<svg width="557" height="75" viewBox="0 0 557 75" fill="none" xmlns="http://www.w3.org/2000/svg">
<path d="M70.4033 38.3906C70.2627 39.5938 69.8174 40.5234 69.0674 41.1797C68.3226 41.8307 67.3304 42.1562 66.0908 42.1562C64.7471 42.1562 63.6689 41.6745 62.8564 40.7109C62.0492 39.7474 61.6455 38.4583 61.6455 36.8438V35.75C61.6455 34.6927 61.833 33.763 62.208 32.9609C62.5882 32.1589 63.1247 31.5443 63.8174 31.1172C64.5101 30.6849 65.3122 30.4688 66.2236 30.4688C67.432 30.4688 68.4007 30.8073 69.1299 31.4844C69.859 32.1562 70.2835 33.0885 70.4033 34.2812H68.8955C68.7653 33.375 68.4814 32.7188 68.0439 32.3125C67.6117 31.9062 67.0049 31.7031 66.2236 31.7031C65.2653 31.7031 64.5127 32.0573 63.9658 32.7656C63.4242 33.474 63.1533 34.4818 63.1533 35.7891V36.8906C63.1533 38.125 63.4111 39.1068 63.9268 39.8359C64.4424 40.5651 65.1637 40.9297 66.0908 40.9297C66.9242 40.9297 67.5622 40.7422 68.0049 40.3672C68.4528 39.987 68.7497 39.3281 68.8955 38.3906H70.4033ZM71.8486 37.6953C71.8486 36.8672 72.0101 36.1224 72.333 35.4609C72.6611 34.7995 73.1143 34.2891 73.6924 33.9297C74.2757 33.5703 74.9398 33.3906 75.6846 33.3906C76.8356 33.3906 77.7653 33.7891 78.4736 34.5859C79.1872 35.3828 79.5439 36.4427 79.5439 37.7656V37.8672C79.5439 38.6901 79.3851 39.4297 79.0674 40.0859C78.7549 40.737 78.3044 41.2448 77.7158 41.6094C77.1325 41.974 76.4606 42.1562 75.7002 42.1562C74.5544 42.1562 73.6247 41.7578 72.9111 40.9609C72.2028 40.1641 71.8486 39.1094 71.8486 37.7969V37.6953ZM73.3018 37.8672C73.3018 38.8047 73.5179 39.5573 73.9502 40.125C74.3877 40.6927 74.971 40.9766 75.7002 40.9766C76.4346 40.9766 77.0179 40.6901 77.4502 40.1172C77.8825 39.5391 78.0986 38.7318 78.0986 37.6953C78.0986 36.7682 77.8773 36.0182 77.4346 35.4453C76.9971 34.8672 76.4137 34.5781 75.6846 34.5781C74.971 34.5781 74.3955 34.862 73.958 35.4297C73.5205 35.9974 73.3018 36.8099 73.3018 37.8672ZM82.7236 33.5469L82.7705 34.6094C83.4163 33.7969 84.2601 33.3906 85.3018 33.3906C87.0882 33.3906 87.9893 34.3984 88.0049 36.4141V42H86.5596V36.4062C86.5544 35.7969 86.4137 35.3464 86.1377 35.0547C85.8669 34.763 85.4424 34.6172 84.8643 34.6172C84.3955 34.6172 83.984 34.7422 83.6299 34.9922C83.2757 35.2422 82.9997 35.5703 82.8018 35.9766V42H81.3564V33.5469H82.7236ZM95.1064 39.7578C95.1064 39.3672 94.958 39.0651 94.6611 38.8516C94.3695 38.6328 93.8564 38.4453 93.1221 38.2891C92.3929 38.1328 91.8122 37.9453 91.3799 37.7266C90.9528 37.5078 90.6351 37.2474 90.4268 36.9453C90.2236 36.6432 90.1221 36.2839 90.1221 35.8672C90.1221 35.1745 90.4137 34.5885 90.9971 34.1094C91.5856 33.6302 92.3356 33.3906 93.2471 33.3906C94.2054 33.3906 94.9814 33.638 95.5752 34.1328C96.1742 34.6276 96.4736 35.2604 96.4736 36.0312H95.0205C95.0205 35.6354 94.8512 35.2943 94.5127 35.0078C94.1794 34.7214 93.7575 34.5781 93.2471 34.5781C92.721 34.5781 92.3096 34.6927 92.0127 34.9219C91.7158 35.151 91.5674 35.4505 91.5674 35.8203C91.5674 36.1693 91.7054 36.4323 91.9814 36.6094C92.2575 36.7865 92.7549 36.9557 93.4736 37.1172C94.1976 37.2786 94.7835 37.4714 95.2314 37.6953C95.6794 37.9193 96.0101 38.1901 96.2236 38.5078C96.4424 38.8203 96.5518 39.2031 96.5518 39.6562C96.5518 40.4115 96.2497 41.0182 95.6455 41.4766C95.0413 41.9297 94.2575 42.1562 93.2939 42.1562C92.6169 42.1562 92.0179 42.0365 91.4971 41.7969C90.9762 41.5573 90.5674 41.224 90.2705 40.7969C89.9788 40.3646 89.833 39.8984 89.833 39.3984H91.2783C91.3044 39.8828 91.4971 40.2682 91.8564 40.5547C92.221 40.8359 92.7002 40.9766 93.2939 40.9766C93.8408 40.9766 94.2783 40.8672 94.6064 40.6484C94.9398 40.4245 95.1064 40.1276 95.1064 39.7578ZM103.653 41.1641C103.091 41.8255 102.265 42.1562 101.177 42.1562C100.276 42.1562 99.5882 41.8958 99.1143 41.375C98.6455 40.849 98.4085 40.0729 98.4033 39.0469V33.5469H99.8486V39.0078C99.8486 40.2891 100.369 40.9297 101.411 40.9297C102.515 40.9297 103.25 40.5182 103.614 39.6953V33.5469H105.06V42H103.685L103.653 41.1641ZM108.622 33.5469L108.661 34.4844C109.281 33.7552 110.117 33.3906 111.169 33.3906C112.351 33.3906 113.156 33.8438 113.583 34.75C113.864 34.3438 114.229 34.0156 114.677 33.7656C115.13 33.5156 115.664 33.3906 116.278 33.3906C118.132 33.3906 119.075 34.3724 119.106 36.3359V42H117.661V36.4219C117.661 35.8177 117.523 35.3672 117.247 35.0703C116.971 34.7682 116.507 34.6172 115.856 34.6172C115.32 34.6172 114.875 34.7786 114.521 35.1016C114.166 35.4193 113.961 35.849 113.903 36.3906V42H112.45V36.4609C112.45 35.2318 111.849 34.6172 110.646 34.6172C109.698 34.6172 109.049 35.0208 108.7 35.8281V42H107.255V33.5469H108.622ZM124.802 42.1562C123.656 42.1562 122.724 41.7812 122.005 41.0312C121.286 40.276 120.927 39.2682 120.927 38.0078V37.7422C120.927 36.9036 121.086 36.1562 121.403 35.5C121.726 34.8385 122.174 34.3229 122.747 33.9531C123.325 33.5781 123.95 33.3906 124.622 33.3906C125.721 33.3906 126.575 33.7526 127.185 34.4766C127.794 35.2005 128.099 36.237 128.099 37.5859V38.1875H122.372C122.393 39.0208 122.635 39.6953 123.099 40.2109C123.567 40.7214 124.161 40.9766 124.88 40.9766C125.39 40.9766 125.823 40.8724 126.177 40.6641C126.531 40.4557 126.841 40.1797 127.106 39.8359L127.989 40.5234C127.281 41.612 126.218 42.1562 124.802 42.1562ZM124.622 34.5781C124.039 34.5781 123.549 34.7917 123.153 35.2188C122.757 35.6406 122.513 36.2344 122.419 37H126.653V36.8906C126.612 36.1562 126.414 35.5885 126.06 35.1875C125.705 34.7812 125.226 34.5781 124.622 34.5781ZM133.864 34.8438C133.646 34.8073 133.409 34.7891 133.153 34.7891C132.205 34.7891 131.562 35.1927 131.224 36V42H129.778V33.5469H131.185L131.208 34.5234C131.682 33.7682 132.354 33.3906 133.224 33.3906C133.505 33.3906 133.718 33.4271 133.864 33.5V34.8438ZM146.653 40.0078L148.278 33.5469H149.724L147.263 42H146.091L144.036 35.5938L142.036 42H140.864L138.411 33.5469H139.849L141.513 39.875L143.481 33.5469H144.646L146.653 40.0078ZM152.771 42H151.325V33.5469H152.771V42ZM151.208 31.3047C151.208 31.0703 151.278 30.8724 151.419 30.7109C151.565 30.5495 151.778 30.4688 152.06 30.4688C152.341 30.4688 152.554 30.5495 152.7 30.7109C152.846 30.8724 152.919 31.0703 152.919 31.3047C152.919 31.5391 152.846 31.7344 152.7 31.8906C152.554 32.0469 152.341 32.125 152.06 32.125C151.778 32.125 151.565 32.0469 151.419 31.8906C151.278 31.7344 151.208 31.5391 151.208 31.3047ZM156.661 42H155.216V30H156.661V42ZM160.552 42H159.106V30H160.552V42ZM171.763 39.7578C171.763 39.3672 171.614 39.0651 171.317 38.8516C171.026 38.6328 170.513 38.4453 169.778 38.2891C169.049 38.1328 168.468 37.9453 168.036 37.7266C167.609 37.5078 167.291 37.2474 167.083 36.9453C166.88 36.6432 166.778 36.2839 166.778 35.8672C166.778 35.1745 167.07 34.5885 167.653 34.1094C168.242 33.6302 168.992 33.3906 169.903 33.3906C170.862 33.3906 171.638 33.638 172.231 34.1328C172.83 34.6276 173.13 35.2604 173.13 36.0312H171.677C171.677 35.6354 171.507 35.2943 171.169 35.0078C170.836 34.7214 170.414 34.5781 169.903 34.5781C169.377 34.5781 168.966 34.6927 168.669 34.9219C168.372 35.151 168.224 35.4505 168.224 35.8203C168.224 36.1693 168.362 36.4323 168.638 36.6094C168.914 36.7865 169.411 36.9557 170.13 37.1172C170.854 37.2786 171.44 37.4714 171.888 37.6953C172.336 37.9193 172.666 38.1901 172.88 38.5078C173.099 38.8203 173.208 39.2031 173.208 39.6562C173.208 40.4115 172.906 41.0182 172.302 41.4766C171.698 41.9297 170.914 42.1562 169.95 42.1562C169.273 42.1562 168.674 42.0365 168.153 41.7969C167.632 41.5573 167.224 41.224 166.927 40.7969C166.635 40.3646 166.489 39.8984 166.489 39.3984H167.935C167.961 39.8828 168.153 40.2682 168.513 40.5547C168.877 40.8359 169.356 40.9766 169.95 40.9766C170.497 40.9766 170.935 40.8672 171.263 40.6484C171.596 40.4245 171.763 40.1276 171.763 39.7578ZM178.481 40.9766C178.997 40.9766 179.448 40.8203 179.833 40.5078C180.218 40.1953 180.432 39.8047 180.474 39.3359H181.841C181.815 39.8203 181.648 40.2812 181.341 40.7188C181.034 41.1562 180.622 41.5052 180.106 41.7656C179.596 42.026 179.054 42.1562 178.481 42.1562C177.33 42.1562 176.414 41.7734 175.731 41.0078C175.054 40.237 174.716 39.1849 174.716 37.8516V37.6094C174.716 36.7865 174.867 36.0547 175.169 35.4141C175.471 34.7734 175.903 34.276 176.466 33.9219C177.034 33.5677 177.703 33.3906 178.474 33.3906C179.422 33.3906 180.208 33.6745 180.833 34.2422C181.463 34.8099 181.799 35.5469 181.841 36.4531H180.474C180.432 35.9062 180.224 35.4583 179.849 35.1094C179.479 34.7552 179.021 34.5781 178.474 34.5781C177.739 34.5781 177.169 34.8438 176.763 35.375C176.362 35.901 176.161 36.6641 176.161 37.6641V37.9375C176.161 38.9115 176.362 39.6615 176.763 40.1875C177.164 40.7135 177.737 40.9766 178.481 40.9766ZM188.685 42C188.601 41.8333 188.534 41.5365 188.481 41.1094C187.81 41.8073 187.007 42.1562 186.075 42.1562C185.242 42.1562 184.557 41.9219 184.021 41.4531C183.489 40.9792 183.224 40.3802 183.224 39.6562C183.224 38.776 183.557 38.0938 184.224 37.6094C184.896 37.1198 185.838 36.875 187.052 36.875H188.458V36.2109C188.458 35.7057 188.307 35.3047 188.005 35.0078C187.703 34.7057 187.257 34.5547 186.669 34.5547C186.153 34.5547 185.721 34.6849 185.372 34.9453C185.023 35.2057 184.849 35.5208 184.849 35.8906H183.396C183.396 35.4688 183.544 35.0625 183.841 34.6719C184.143 34.276 184.549 33.9635 185.06 33.7344C185.575 33.5052 186.14 33.3906 186.755 33.3906C187.729 33.3906 188.492 33.6354 189.044 34.125C189.596 34.6094 189.882 35.2786 189.903 36.1328V40.0234C189.903 40.7995 190.002 41.4167 190.2 41.875V42H188.685ZM186.286 40.8984C186.739 40.8984 187.169 40.7812 187.575 40.5469C187.981 40.3125 188.276 40.0078 188.458 39.6328V37.8984H187.325C185.554 37.8984 184.669 38.4167 184.669 39.4531C184.669 39.9062 184.82 40.2604 185.122 40.5156C185.424 40.7708 185.812 40.8984 186.286 40.8984ZM193.536 33.5469L193.583 34.6094C194.229 33.7969 195.073 33.3906 196.114 33.3906C197.901 33.3906 198.802 34.3984 198.817 36.4141V42H197.372V36.4062C197.367 35.7969 197.226 35.3464 196.95 35.0547C196.679 34.763 196.255 34.6172 195.677 34.6172C195.208 34.6172 194.797 34.7422 194.442 34.9922C194.088 35.2422 193.812 35.5703 193.614 35.9766V42H192.169V33.5469H193.536ZM213.88 36.6797C213.88 37.7786 213.705 38.7266 213.356 39.5234C213.007 40.3151 212.518 40.9349 211.888 41.3828L213.919 42.9766L212.896 43.9219L210.497 42.0156C210.122 42.1094 209.726 42.1562 209.31 42.1562C208.414 42.1562 207.619 41.9375 206.927 41.5C206.234 41.0573 205.695 40.4297 205.31 39.6172C204.929 38.7995 204.734 37.8542 204.724 36.7812V35.9609C204.724 34.8672 204.914 33.901 205.294 33.0625C205.674 32.224 206.211 31.5833 206.903 31.1406C207.601 30.6927 208.398 30.4688 209.294 30.4688C210.211 30.4688 211.015 30.6901 211.708 31.1328C212.406 31.5755 212.942 32.2135 213.317 33.0469C213.692 33.875 213.88 34.8438 213.88 35.9531V36.6797ZM212.38 35.9453C212.38 34.6068 212.112 33.5755 211.575 32.8516C211.044 32.1224 210.284 31.7578 209.294 31.7578C208.351 31.7578 207.606 32.1198 207.06 32.8438C206.518 33.5625 206.239 34.5625 206.224 35.8438V36.6797C206.224 37.9818 206.494 39.0078 207.036 39.7578C207.583 40.5078 208.341 40.8828 209.31 40.8828C210.278 40.8828 211.028 40.5312 211.56 39.8281C212.091 39.1198 212.364 38.1068 212.38 36.7891V35.9453ZM220.364 37.3984H217.692V42H216.185V30.625H219.95C221.231 30.625 222.216 30.9167 222.903 31.5C223.596 32.0833 223.942 32.9323 223.942 34.0469C223.942 34.7552 223.75 35.3724 223.364 35.8984C222.984 36.4245 222.453 36.8177 221.771 37.0781L224.442 41.9062V42H222.833L220.364 37.3984ZM217.692 36.1719H219.997C220.742 36.1719 221.333 35.9792 221.771 35.5938C222.213 35.2083 222.435 34.6927 222.435 34.0469C222.435 33.3438 222.224 32.8047 221.802 32.4297C221.385 32.0547 220.781 31.8646 219.989 31.8594H217.692V36.1719ZM233.185 40.9766C233.7 40.9766 234.151 40.8203 234.536 40.5078C234.922 40.1953 235.135 39.8047 235.177 39.3359H236.544C236.518 39.8203 236.351 40.2812 236.044 40.7188C235.737 41.1562 235.325 41.5052 234.81 41.7656C234.299 42.026 233.757 42.1562 233.185 42.1562C232.034 42.1562 231.117 41.7734 230.435 41.0078C229.757 40.237 229.419 39.1849 229.419 37.8516V37.6094C229.419 36.7865 229.57 36.0547 229.872 35.4141C230.174 34.7734 230.606 34.276 231.169 33.9219C231.737 33.5677 232.406 33.3906 233.177 33.3906C234.125 33.3906 234.911 33.6745 235.536 34.2422C236.166 34.8099 236.502 35.5469 236.544 36.4531H235.177C235.135 35.9062 234.927 35.4583 234.552 35.1094C234.182 34.7552 233.724 34.5781 233.177 34.5781C232.442 34.5781 231.872 34.8438 231.466 35.375C231.065 35.901 230.864 36.6641 230.864 37.6641V37.9375C230.864 38.9115 231.065 39.6615 231.466 40.1875C231.867 40.7135 232.44 40.9766 233.185 40.9766ZM237.786 37.6953C237.786 36.8672 237.948 36.1224 238.271 35.4609C238.599 34.7995 239.052 34.2891 239.63 33.9297C240.213 33.5703 240.877 33.3906 241.622 33.3906C242.773 33.3906 243.703 33.7891 244.411 34.5859C245.125 35.3828 245.481 36.4427 245.481 37.7656V37.8672C245.481 38.6901 245.323 39.4297 245.005 40.0859C244.692 40.737 244.242 41.2448 243.653 41.6094C243.07 41.974 242.398 42.1562 241.638 42.1562C240.492 42.1562 239.562 41.7578 238.849 40.9609C238.14 40.1641 237.786 39.1094 237.786 37.7969V37.6953ZM239.239 37.8672C239.239 38.8047 239.455 39.5573 239.888 40.125C240.325 40.6927 240.909 40.9766 241.638 40.9766C242.372 40.9766 242.955 40.6901 243.388 40.1172C243.82 39.5391 244.036 38.7318 244.036 37.6953C244.036 36.7682 243.815 36.0182 243.372 35.4453C242.935 34.8672 242.351 34.5781 241.622 34.5781C240.909 34.5781 240.333 34.862 239.896 35.4297C239.458 35.9974 239.239 36.8099 239.239 37.8672ZM246.942 37.7031C246.942 36.4062 247.25 35.3646 247.864 34.5781C248.479 33.7865 249.284 33.3906 250.278 33.3906C251.268 33.3906 252.052 33.7292 252.63 34.4062V30H254.075V42H252.747L252.677 41.0938C252.099 41.8021 251.294 42.1562 250.263 42.1562C249.284 42.1562 248.484 41.7552 247.864 40.9531C247.25 40.151 246.942 39.1042 246.942 37.8125V37.7031ZM248.388 37.8672C248.388 38.8255 248.586 39.5755 248.981 40.1172C249.377 40.6589 249.924 40.9297 250.622 40.9297C251.539 40.9297 252.208 40.5182 252.63 39.6953V35.8125C252.198 35.0156 251.534 34.6172 250.638 34.6172C249.929 34.6172 249.377 34.8906 248.981 35.4375C248.586 35.9844 248.388 36.7943 248.388 37.8672ZM259.833 42.1562C258.687 42.1562 257.755 41.7812 257.036 41.0312C256.317 40.276 255.958 39.2682 255.958 38.0078V37.7422C255.958 36.9036 256.117 36.1562 256.435 35.5C256.757 34.8385 257.205 34.3229 257.778 33.9531C258.356 33.5781 258.981 33.3906 259.653 33.3906C260.752 33.3906 261.606 33.7526 262.216 34.4766C262.825 35.2005 263.13 36.237 263.13 37.5859V38.1875H257.403C257.424 39.0208 257.666 39.6953 258.13 40.2109C258.599 40.7214 259.192 40.9766 259.911 40.9766C260.422 40.9766 260.854 40.8724 261.208 40.6641C261.562 40.4557 261.872 40.1797 262.138 39.8359L263.021 40.5234C262.312 41.612 261.25 42.1562 259.833 42.1562ZM259.653 34.5781C259.07 34.5781 258.58 34.7917 258.185 35.2188C257.789 35.6406 257.544 36.2344 257.45 37H261.685V36.8906C261.643 36.1562 261.445 35.5885 261.091 35.1875C260.737 34.7812 260.257 34.5781 259.653 34.5781ZM273.997 42C273.914 41.8333 273.846 41.5365 273.794 41.1094C273.122 41.8073 272.32 42.1562 271.388 42.1562C270.554 42.1562 269.869 41.9219 269.333 41.4531C268.802 40.9792 268.536 40.3802 268.536 39.6562C268.536 38.776 268.869 38.0938 269.536 37.6094C270.208 37.1198 271.151 36.875 272.364 36.875H273.771V36.2109C273.771 35.7057 273.619 35.3047 273.317 35.0078C273.015 34.7057 272.57 34.5547 271.981 34.5547C271.466 34.5547 271.034 34.6849 270.685 34.9453C270.336 35.2057 270.161 35.5208 270.161 35.8906H268.708C268.708 35.4688 268.856 35.0625 269.153 34.6719C269.455 34.276 269.862 33.9635 270.372 33.7344C270.888 33.5052 271.453 33.3906 272.067 33.3906C273.041 33.3906 273.804 33.6354 274.356 34.125C274.909 34.6094 275.195 35.2786 275.216 36.1328V40.0234C275.216 40.7995 275.315 41.4167 275.513 41.875V42H273.997ZM271.599 40.8984C272.052 40.8984 272.481 40.7812 272.888 40.5469C273.294 40.3125 273.588 40.0078 273.771 39.6328V37.8984H272.638C270.867 37.8984 269.981 38.4167 269.981 39.4531C269.981 39.9062 270.132 40.2604 270.435 40.5156C270.737 40.7708 271.125 40.8984 271.599 40.8984ZM278.849 33.5469L278.896 34.6094C279.541 33.7969 280.385 33.3906 281.427 33.3906C283.213 33.3906 284.114 34.3984 284.13 36.4141V42H282.685V36.4062C282.679 35.7969 282.539 35.3464 282.263 35.0547C281.992 34.763 281.567 34.6172 280.989 34.6172C280.521 34.6172 280.109 34.7422 279.755 34.9922C279.401 35.2422 279.125 35.5703 278.927 35.9766V42H277.481V33.5469H278.849ZM285.958 37.7031C285.958 36.4062 286.265 35.3646 286.88 34.5781C287.494 33.7865 288.299 33.3906 289.294 33.3906C290.284 33.3906 291.067 33.7292 291.646 34.4062V30H293.091V42H291.763L291.692 41.0938C291.114 41.8021 290.31 42.1562 289.278 42.1562C288.299 42.1562 287.5 41.7552 286.88 40.9531C286.265 40.151 285.958 39.1042 285.958 37.8125V37.7031ZM287.403 37.8672C287.403 38.8255 287.601 39.5755 287.997 40.1172C288.393 40.6589 288.94 40.9297 289.638 40.9297C290.554 40.9297 291.224 40.5182 291.646 39.6953V35.8125C291.213 35.0156 290.549 34.6172 289.653 34.6172C288.945 34.6172 288.393 34.8906 287.997 35.4375C287.601 35.9844 287.403 36.7943 287.403 37.8672ZM306.45 37.8672C306.45 39.1536 306.156 40.1901 305.567 40.9766C304.979 41.763 304.182 42.1562 303.177 42.1562C302.151 42.1562 301.343 41.8307 300.755 41.1797V45.25H299.31V33.5469H300.63L300.7 34.4844C301.289 33.7552 302.106 33.3906 303.153 33.3906C304.169 33.3906 304.971 33.7734 305.56 34.5391C306.153 35.3047 306.45 36.3698 306.45 37.7344V37.8672ZM305.005 37.7031C305.005 36.75 304.802 35.9974 304.396 35.4453C303.989 34.8932 303.432 34.6172 302.724 34.6172C301.849 34.6172 301.192 35.0052 300.755 35.7812V39.8203C301.187 40.5911 301.849 40.9766 302.739 40.9766C303.432 40.9766 303.981 40.7031 304.388 40.1562C304.799 39.6042 305.005 38.7865 305.005 37.7031ZM313.513 42C313.429 41.8333 313.362 41.5365 313.31 41.1094C312.638 41.8073 311.836 42.1562 310.903 42.1562C310.07 42.1562 309.385 41.9219 308.849 41.4531C308.317 40.9792 308.052 40.3802 308.052 39.6562C308.052 38.776 308.385 38.0938 309.052 37.6094C309.724 37.1198 310.666 36.875 311.88 36.875H313.286V36.2109C313.286 35.7057 313.135 35.3047 312.833 35.0078C312.531 34.7057 312.086 34.5547 311.497 34.5547C310.981 34.5547 310.549 34.6849 310.2 34.9453C309.851 35.2057 309.677 35.5208 309.677 35.8906H308.224C308.224 35.4688 308.372 35.0625 308.669 34.6719C308.971 34.276 309.377 33.9635 309.888 33.7344C310.403 33.5052 310.968 33.3906 311.583 33.3906C312.557 33.3906 313.32 33.6354 313.872 34.125C314.424 34.6094 314.711 35.2786 314.731 36.1328V40.0234C314.731 40.7995 314.83 41.4167 315.028 41.875V42H313.513ZM311.114 40.8984C311.567 40.8984 311.997 40.7812 312.403 40.5469C312.81 40.3125 313.104 40.0078 313.286 39.6328V37.8984H312.153C310.382 37.8984 309.497 38.4167 309.497 39.4531C309.497 39.9062 309.648 40.2604 309.95 40.5156C310.252 40.7708 310.64 40.8984 311.114 40.8984ZM319.638 39.8828L321.606 33.5469H323.153L319.755 43.3047C319.229 44.7109 318.393 45.4141 317.247 45.4141L316.974 45.3906L316.435 45.2891V44.1172L316.825 44.1484C317.315 44.1484 317.695 44.0495 317.966 43.8516C318.242 43.6536 318.468 43.2917 318.646 42.7656L318.966 41.9062L315.95 33.5469H317.528L319.638 39.8828ZM329.864 34.5703C330.505 33.7839 331.338 33.3906 332.364 33.3906C334.151 33.3906 335.052 34.3984 335.067 36.4141V42H333.622V36.4062C333.617 35.7969 333.476 35.3464 333.2 35.0547C332.929 34.763 332.505 34.6172 331.927 34.6172C331.458 34.6172 331.047 34.7422 330.692 34.9922C330.338 35.2422 330.062 35.5703 329.864 35.9766V42H328.419V30H329.864V34.5703ZM338.802 42H337.356V33.5469H338.802V42ZM337.239 31.3047C337.239 31.0703 337.31 30.8724 337.45 30.7109C337.596 30.5495 337.81 30.4688 338.091 30.4688C338.372 30.4688 338.586 30.5495 338.731 30.7109C338.877 30.8724 338.95 31.0703 338.95 31.3047C338.95 31.5391 338.877 31.7344 338.731 31.8906C338.586 32.0469 338.372 32.125 338.091 32.125C337.81 32.125 337.596 32.0469 337.45 31.8906C337.31 31.7344 337.239 31.5391 337.239 31.3047ZM346.044 39.7578C346.044 39.3672 345.896 39.0651 345.599 38.8516C345.307 38.6328 344.794 38.4453 344.06 38.2891C343.33 38.1328 342.75 37.9453 342.317 37.7266C341.89 37.5078 341.573 37.2474 341.364 36.9453C341.161 36.6432 341.06 36.2839 341.06 35.8672C341.06 35.1745 341.351 34.5885 341.935 34.1094C342.523 33.6302 343.273 33.3906 344.185 33.3906C345.143 33.3906 345.919 33.638 346.513 34.1328C347.112 34.6276 347.411 35.2604 347.411 36.0312H345.958C345.958 35.6354 345.789 35.2943 345.45 35.0078C345.117 34.7214 344.695 34.5781 344.185 34.5781C343.659 34.5781 343.247 34.6927 342.95 34.9219C342.653 35.151 342.505 35.4505 342.505 35.8203C342.505 36.1693 342.643 36.4323 342.919 36.6094C343.195 36.7865 343.692 36.9557 344.411 37.1172C345.135 37.2786 345.721 37.4714 346.169 37.6953C346.617 37.9193 346.948 38.1901 347.161 38.5078C347.38 38.8203 347.489 39.2031 347.489 39.6562C347.489 40.4115 347.187 41.0182 346.583 41.4766C345.979 41.9297 345.195 42.1562 344.231 42.1562C343.554 42.1562 342.955 42.0365 342.435 41.7969C341.914 41.5573 341.505 41.224 341.208 40.7969C340.916 40.3646 340.771 39.8984 340.771 39.3984H342.216C342.242 39.8828 342.435 40.2682 342.794 40.5547C343.159 40.8359 343.638 40.9766 344.231 40.9766C344.778 40.9766 345.216 40.8672 345.544 40.6484C345.877 40.4245 346.044 40.1276 346.044 39.7578ZM353.63 42.9766H352.388L357.138 30.625H358.372L353.63 42.9766ZM365.349 34.5703C365.989 33.7839 366.823 33.3906 367.849 33.3906C369.635 33.3906 370.536 34.3984 370.552 36.4141V42H369.106V36.4062C369.101 35.7969 368.961 35.3464 368.685 35.0547C368.414 34.763 367.989 34.6172 367.411 34.6172C366.942 34.6172 366.531 34.7422 366.177 34.9922C365.823 35.2422 365.547 35.5703 365.349 35.9766V42H363.903V30H365.349V34.5703ZM376.224 42.1562C375.078 42.1562 374.146 41.7812 373.427 41.0312C372.708 40.276 372.349 39.2682 372.349 38.0078V37.7422C372.349 36.9036 372.507 36.1562 372.825 35.5C373.148 34.8385 373.596 34.3229 374.169 33.9531C374.747 33.5781 375.372 33.3906 376.044 33.3906C377.143 33.3906 377.997 33.7526 378.606 34.4766C379.216 35.2005 379.521 36.237 379.521 37.5859V38.1875H373.794C373.815 39.0208 374.057 39.6953 374.521 40.2109C374.989 40.7214 375.583 40.9766 376.302 40.9766C376.812 40.9766 377.244 40.8724 377.599 40.6641C377.953 40.4557 378.263 40.1797 378.528 39.8359L379.411 40.5234C378.703 41.612 377.64 42.1562 376.224 42.1562ZM376.044 34.5781C375.461 34.5781 374.971 34.7917 374.575 35.2188C374.179 35.6406 373.935 36.2344 373.841 37H378.075V36.8906C378.034 36.1562 377.836 35.5885 377.481 35.1875C377.127 34.7812 376.648 34.5781 376.044 34.5781ZM385.286 34.8438C385.067 34.8073 384.83 34.7891 384.575 34.7891C383.627 34.7891 382.984 35.1927 382.646 36V42H381.2V33.5469H382.606L382.63 34.5234C383.104 33.7682 383.776 33.3906 384.646 33.3906C384.927 33.3906 385.14 33.4271 385.286 33.5V34.8438ZM397.747 37.8672C397.747 39.1589 397.45 40.1979 396.856 40.9844C396.263 41.7656 395.466 42.1562 394.466 42.1562C393.398 42.1562 392.573 41.7786 391.989 41.0234L391.919 42H390.591V30H392.036V34.4766C392.619 33.7526 393.424 33.3906 394.45 33.3906C395.476 33.3906 396.281 33.7786 396.864 34.5547C397.453 35.3307 397.747 36.3932 397.747 37.7422V37.8672ZM396.302 37.7031C396.302 36.7188 396.112 35.9583 395.731 35.4219C395.351 34.8854 394.804 34.6172 394.091 34.6172C393.138 34.6172 392.453 35.0599 392.036 35.9453V39.6016C392.479 40.487 393.169 40.9297 394.106 40.9297C394.799 40.9297 395.338 40.6615 395.724 40.125C396.109 39.5885 396.302 38.7812 396.302 37.7031ZM401.146 42H399.7V33.5469H401.146V42ZM399.583 31.3047C399.583 31.0703 399.653 30.8724 399.794 30.7109C399.94 30.5495 400.153 30.4688 400.435 30.4688C400.716 30.4688 400.929 30.5495 401.075 30.7109C401.221 30.8724 401.294 31.0703 401.294 31.3047C401.294 31.5391 401.221 31.7344 401.075 31.8906C400.929 32.0469 400.716 32.125 400.435 32.125C400.153 32.125 399.94 32.0469 399.794 31.8906C399.653 31.7344 399.583 31.5391 399.583 31.3047ZM405.036 42H403.591V30H405.036V42ZM408.927 42H407.481V30H408.927V42Z" fill="#656668"/>
<path d="M26.288 48H29.232V24.864H23.216V27.52H26.288V48Z" fill="#656668"/>
</svg>
