<svg width="595" height="113" viewBox="0 0 595 113" fill="none" xmlns="http://www.w3.org/2000/svg">
<g filter="url(#filter0_d)">
<rect x="19" y="16" width="556.56" height="75" rx="24" fill="white"/>
</g>
<path d="M89.4033 54.3906C89.2627 55.5938 88.8174 56.5234 88.0674 57.1797C87.3226 57.8307 86.3304 58.1562 85.0908 58.1562C83.7471 58.1562 82.6689 57.6745 81.8564 56.7109C81.0492 55.7474 80.6455 54.4583 80.6455 52.8438V51.75C80.6455 50.6927 80.833 49.763 81.208 48.9609C81.5882 48.1589 82.1247 47.5443 82.8174 47.1172C83.5101 46.6849 84.3122 46.4688 85.2236 46.4688C86.432 46.4688 87.4007 46.8073 88.1299 47.4844C88.859 48.1562 89.2835 49.0885 89.4033 50.2812H87.8955C87.7653 49.375 87.4814 48.7188 87.0439 48.3125C86.6117 47.9062 86.0049 47.7031 85.2236 47.7031C84.2653 47.7031 83.5127 48.0573 82.9658 48.7656C82.4242 49.474 82.1533 50.4818 82.1533 51.7891V52.8906C82.1533 54.125 82.4111 55.1068 82.9268 55.8359C83.4424 56.5651 84.1637 56.9297 85.0908 56.9297C85.9242 56.9297 86.5622 56.7422 87.0049 56.3672C87.4528 55.987 87.7497 55.3281 87.8955 54.3906H89.4033ZM90.8486 53.6953C90.8486 52.8672 91.0101 52.1224 91.333 51.4609C91.6611 50.7995 92.1143 50.2891 92.6924 49.9297C93.2757 49.5703 93.9398 49.3906 94.6846 49.3906C95.8356 49.3906 96.7653 49.7891 97.4736 50.5859C98.1872 51.3828 98.5439 52.4427 98.5439 53.7656V53.8672C98.5439 54.6901 98.3851 55.4297 98.0674 56.0859C97.7549 56.737 97.3044 57.2448 96.7158 57.6094C96.1325 57.974 95.4606 58.1562 94.7002 58.1562C93.5544 58.1562 92.6247 57.7578 91.9111 56.9609C91.2028 56.1641 90.8486 55.1094 90.8486 53.7969V53.6953ZM92.3018 53.8672C92.3018 54.8047 92.5179 55.5573 92.9502 56.125C93.3877 56.6927 93.971 56.9766 94.7002 56.9766C95.4346 56.9766 96.0179 56.6901 96.4502 56.1172C96.8825 55.5391 97.0986 54.7318 97.0986 53.6953C97.0986 52.7682 96.8773 52.0182 96.4346 51.4453C95.9971 50.8672 95.4137 50.5781 94.6846 50.5781C93.971 50.5781 93.3955 50.862 92.958 51.4297C92.5205 51.9974 92.3018 52.8099 92.3018 53.8672ZM101.724 49.5469L101.771 50.6094C102.416 49.7969 103.26 49.3906 104.302 49.3906C106.088 49.3906 106.989 50.3984 107.005 52.4141V58H105.56V52.4062C105.554 51.7969 105.414 51.3464 105.138 51.0547C104.867 50.763 104.442 50.6172 103.864 50.6172C103.396 50.6172 102.984 50.7422 102.63 50.9922C102.276 51.2422 102 51.5703 101.802 51.9766V58H100.356V49.5469H101.724ZM114.106 55.7578C114.106 55.3672 113.958 55.0651 113.661 54.8516C113.369 54.6328 112.856 54.4453 112.122 54.2891C111.393 54.1328 110.812 53.9453 110.38 53.7266C109.953 53.5078 109.635 53.2474 109.427 52.9453C109.224 52.6432 109.122 52.2839 109.122 51.8672C109.122 51.1745 109.414 50.5885 109.997 50.1094C110.586 49.6302 111.336 49.3906 112.247 49.3906C113.205 49.3906 113.981 49.638 114.575 50.1328C115.174 50.6276 115.474 51.2604 115.474 52.0312H114.021C114.021 51.6354 113.851 51.2943 113.513 51.0078C113.179 50.7214 112.757 50.5781 112.247 50.5781C111.721 50.5781 111.31 50.6927 111.013 50.9219C110.716 51.151 110.567 51.4505 110.567 51.8203C110.567 52.1693 110.705 52.4323 110.981 52.6094C111.257 52.7865 111.755 52.9557 112.474 53.1172C113.198 53.2786 113.784 53.4714 114.231 53.6953C114.679 53.9193 115.01 54.1901 115.224 54.5078C115.442 54.8203 115.552 55.2031 115.552 55.6562C115.552 56.4115 115.25 57.0182 114.646 57.4766C114.041 57.9297 113.257 58.1562 112.294 58.1562C111.617 58.1562 111.018 58.0365 110.497 57.7969C109.976 57.5573 109.567 57.224 109.271 56.7969C108.979 56.3646 108.833 55.8984 108.833 55.3984H110.278C110.304 55.8828 110.497 56.2682 110.856 56.5547C111.221 56.8359 111.7 56.9766 112.294 56.9766C112.841 56.9766 113.278 56.8672 113.606 56.6484C113.94 56.4245 114.106 56.1276 114.106 55.7578ZM122.653 57.1641C122.091 57.8255 121.265 58.1562 120.177 58.1562C119.276 58.1562 118.588 57.8958 118.114 57.375C117.646 56.849 117.409 56.0729 117.403 55.0469V49.5469H118.849V55.0078C118.849 56.2891 119.369 56.9297 120.411 56.9297C121.515 56.9297 122.25 56.5182 122.614 55.6953V49.5469H124.06V58H122.685L122.653 57.1641ZM127.622 49.5469L127.661 50.4844C128.281 49.7552 129.117 49.3906 130.169 49.3906C131.351 49.3906 132.156 49.8438 132.583 50.75C132.864 50.3438 133.229 50.0156 133.677 49.7656C134.13 49.5156 134.664 49.3906 135.278 49.3906C137.132 49.3906 138.075 50.3724 138.106 52.3359V58H136.661V52.4219C136.661 51.8177 136.523 51.3672 136.247 51.0703C135.971 50.7682 135.507 50.6172 134.856 50.6172C134.32 50.6172 133.875 50.7786 133.521 51.1016C133.166 51.4193 132.961 51.849 132.903 52.3906V58H131.45V52.4609C131.45 51.2318 130.849 50.6172 129.646 50.6172C128.698 50.6172 128.049 51.0208 127.7 51.8281V58H126.255V49.5469H127.622ZM143.802 58.1562C142.656 58.1562 141.724 57.7812 141.005 57.0312C140.286 56.276 139.927 55.2682 139.927 54.0078V53.7422C139.927 52.9036 140.086 52.1562 140.403 51.5C140.726 50.8385 141.174 50.3229 141.747 49.9531C142.325 49.5781 142.95 49.3906 143.622 49.3906C144.721 49.3906 145.575 49.7526 146.185 50.4766C146.794 51.2005 147.099 52.237 147.099 53.5859V54.1875H141.372C141.393 55.0208 141.635 55.6953 142.099 56.2109C142.567 56.7214 143.161 56.9766 143.88 56.9766C144.39 56.9766 144.823 56.8724 145.177 56.6641C145.531 56.4557 145.841 56.1797 146.106 55.8359L146.989 56.5234C146.281 57.612 145.218 58.1562 143.802 58.1562ZM143.622 50.5781C143.039 50.5781 142.549 50.7917 142.153 51.2188C141.757 51.6406 141.513 52.2344 141.419 53H145.653V52.8906C145.612 52.1562 145.414 51.5885 145.06 51.1875C144.705 50.7812 144.226 50.5781 143.622 50.5781ZM152.864 50.8438C152.646 50.8073 152.409 50.7891 152.153 50.7891C151.205 50.7891 150.562 51.1927 150.224 52V58H148.778V49.5469H150.185L150.208 50.5234C150.682 49.7682 151.354 49.3906 152.224 49.3906C152.505 49.3906 152.718 49.4271 152.864 49.5V50.8438ZM165.653 56.0078L167.278 49.5469H168.724L166.263 58H165.091L163.036 51.5938L161.036 58H159.864L157.411 49.5469H158.849L160.513 55.875L162.481 49.5469H163.646L165.653 56.0078ZM171.771 58H170.325V49.5469H171.771V58ZM170.208 47.3047C170.208 47.0703 170.278 46.8724 170.419 46.7109C170.565 46.5495 170.778 46.4688 171.06 46.4688C171.341 46.4688 171.554 46.5495 171.7 46.7109C171.846 46.8724 171.919 47.0703 171.919 47.3047C171.919 47.5391 171.846 47.7344 171.7 47.8906C171.554 48.0469 171.341 48.125 171.06 48.125C170.778 48.125 170.565 48.0469 170.419 47.8906C170.278 47.7344 170.208 47.5391 170.208 47.3047ZM175.661 58H174.216V46H175.661V58ZM179.552 58H178.106V46H179.552V58ZM189.231 56.9766C189.747 56.9766 190.198 56.8203 190.583 56.5078C190.968 56.1953 191.182 55.8047 191.224 55.3359H192.591C192.565 55.8203 192.398 56.2812 192.091 56.7188C191.784 57.1562 191.372 57.5052 190.856 57.7656C190.346 58.026 189.804 58.1562 189.231 58.1562C188.08 58.1562 187.164 57.7734 186.481 57.0078C185.804 56.237 185.466 55.1849 185.466 53.8516V53.6094C185.466 52.7865 185.617 52.0547 185.919 51.4141C186.221 50.7734 186.653 50.276 187.216 49.9219C187.784 49.5677 188.453 49.3906 189.224 49.3906C190.172 49.3906 190.958 49.6745 191.583 50.2422C192.213 50.8099 192.549 51.5469 192.591 52.4531H191.224C191.182 51.9062 190.974 51.4583 190.599 51.1094C190.229 50.7552 189.771 50.5781 189.224 50.5781C188.489 50.5781 187.919 50.8438 187.513 51.375C187.112 51.901 186.911 52.6641 186.911 53.6641V53.9375C186.911 54.9115 187.112 55.6615 187.513 56.1875C187.914 56.7135 188.487 56.9766 189.231 56.9766ZM193.833 53.6953C193.833 52.8672 193.994 52.1224 194.317 51.4609C194.646 50.7995 195.099 50.2891 195.677 49.9297C196.26 49.5703 196.924 49.3906 197.669 49.3906C198.82 49.3906 199.75 49.7891 200.458 50.5859C201.172 51.3828 201.528 52.4427 201.528 53.7656V53.8672C201.528 54.6901 201.369 55.4297 201.052 56.0859C200.739 56.737 200.289 57.2448 199.7 57.6094C199.117 57.974 198.445 58.1562 197.685 58.1562C196.539 58.1562 195.609 57.7578 194.896 56.9609C194.187 56.1641 193.833 55.1094 193.833 53.7969V53.6953ZM195.286 53.8672C195.286 54.8047 195.502 55.5573 195.935 56.125C196.372 56.6927 196.955 56.9766 197.685 56.9766C198.419 56.9766 199.002 56.6901 199.435 56.1172C199.867 55.5391 200.083 54.7318 200.083 53.6953C200.083 52.7682 199.862 52.0182 199.419 51.4453C198.981 50.8672 198.398 50.5781 197.669 50.5781C196.955 50.5781 196.38 50.862 195.942 51.4297C195.505 51.9974 195.286 52.8099 195.286 53.8672ZM204.708 49.5469L204.755 50.6094C205.401 49.7969 206.244 49.3906 207.286 49.3906C209.073 49.3906 209.974 50.3984 209.989 52.4141V58H208.544V52.4062C208.539 51.7969 208.398 51.3464 208.122 51.0547C207.851 50.763 207.427 50.6172 206.849 50.6172C206.38 50.6172 205.968 50.7422 205.614 50.9922C205.26 51.2422 204.984 51.5703 204.786 51.9766V58H203.341V49.5469H204.708ZM212.653 58V50.6641H211.317V49.5469H212.653V48.8281C212.653 47.8854 212.922 47.151 213.458 46.625C214 46.099 214.763 45.8359 215.747 45.8359C216.33 45.8359 217.067 45.9948 217.958 46.3125L217.716 47.5312C217.065 47.2708 216.445 47.1406 215.856 47.1406C215.237 47.1406 214.789 47.2812 214.513 47.5625C214.242 47.8385 214.106 48.2552 214.106 48.8125V49.5469H215.833V50.6641H214.106V58H212.653ZM218.677 58H217.224V49.5469H218.677V58ZM225.114 50.8438C224.896 50.8073 224.659 50.7891 224.403 50.7891C223.455 50.7891 222.812 51.1927 222.474 52V58H221.028V49.5469H222.435L222.458 50.5234C222.932 49.7682 223.604 49.3906 224.474 49.3906C224.755 49.3906 224.968 49.4271 225.114 49.5V50.8438ZM227.81 49.5469L227.849 50.4844C228.468 49.7552 229.304 49.3906 230.356 49.3906C231.539 49.3906 232.343 49.8438 232.771 50.75C233.052 50.3438 233.416 50.0156 233.864 49.7656C234.317 49.5156 234.851 49.3906 235.466 49.3906C237.32 49.3906 238.263 50.3724 238.294 52.3359V58H236.849V52.4219C236.849 51.8177 236.711 51.3672 236.435 51.0703C236.159 50.7682 235.695 50.6172 235.044 50.6172C234.507 50.6172 234.062 50.7786 233.708 51.1016C233.354 51.4193 233.148 51.849 233.091 52.3906V58H231.638V52.4609C231.638 51.2318 231.036 50.6172 229.833 50.6172C228.885 50.6172 228.237 51.0208 227.888 51.8281V58H226.442V49.5469H227.81ZM246.411 47.5V49.5469H247.989V50.6641H246.411V55.9062C246.411 56.2448 246.481 56.5 246.622 56.6719C246.763 56.8385 247.002 56.9219 247.341 56.9219C247.507 56.9219 247.737 56.8906 248.028 56.8281V58C247.648 58.1042 247.278 58.1562 246.919 58.1562C246.273 58.1562 245.786 57.9609 245.458 57.5703C245.13 57.1797 244.966 56.625 244.966 55.9062V50.6641H243.427V49.5469H244.966V47.5H246.411ZM251.13 50.5703C251.771 49.7839 252.604 49.3906 253.63 49.3906C255.416 49.3906 256.317 50.3984 256.333 52.4141V58H254.888V52.4062C254.882 51.7969 254.742 51.3464 254.466 51.0547C254.195 50.763 253.771 50.6172 253.192 50.6172C252.724 50.6172 252.312 50.7422 251.958 50.9922C251.604 51.2422 251.328 51.5703 251.13 51.9766V58H249.685V46H251.13V50.5703ZM262.005 58.1562C260.859 58.1562 259.927 57.7812 259.208 57.0312C258.489 56.276 258.13 55.2682 258.13 54.0078V53.7422C258.13 52.9036 258.289 52.1562 258.606 51.5C258.929 50.8385 259.377 50.3229 259.95 49.9531C260.528 49.5781 261.153 49.3906 261.825 49.3906C262.924 49.3906 263.778 49.7526 264.388 50.4766C264.997 51.2005 265.302 52.237 265.302 53.5859V54.1875H259.575C259.596 55.0208 259.838 55.6953 260.302 56.2109C260.771 56.7214 261.364 56.9766 262.083 56.9766C262.593 56.9766 263.026 56.8724 263.38 56.6641C263.734 56.4557 264.044 56.1797 264.31 55.8359L265.192 56.5234C264.484 57.612 263.422 58.1562 262.005 58.1562ZM261.825 50.5781C261.242 50.5781 260.752 50.7917 260.356 51.2188C259.961 51.6406 259.716 52.2344 259.622 53H263.856V52.8906C263.815 52.1562 263.617 51.5885 263.263 51.1875C262.909 50.7812 262.429 50.5781 261.825 50.5781ZM278.091 53.8672C278.091 55.1536 277.797 56.1901 277.208 56.9766C276.619 57.763 275.823 58.1562 274.817 58.1562C273.791 58.1562 272.984 57.8307 272.396 57.1797V61.25H270.95V49.5469H272.271L272.341 50.4844C272.929 49.7552 273.747 49.3906 274.794 49.3906C275.81 49.3906 276.612 49.7734 277.2 50.5391C277.794 51.3047 278.091 52.3698 278.091 53.7344V53.8672ZM276.646 53.7031C276.646 52.75 276.442 51.9974 276.036 51.4453C275.63 50.8932 275.073 50.6172 274.364 50.6172C273.489 50.6172 272.833 51.0052 272.396 51.7812V55.8203C272.828 56.5911 273.489 56.9766 274.38 56.9766C275.073 56.9766 275.622 56.7031 276.028 56.1562C276.44 55.6042 276.646 54.7865 276.646 53.7031ZM285.153 58C285.07 57.8333 285.002 57.5365 284.95 57.1094C284.278 57.8073 283.476 58.1562 282.544 58.1562C281.711 58.1562 281.026 57.9219 280.489 57.4531C279.958 56.9792 279.692 56.3802 279.692 55.6562C279.692 54.776 280.026 54.0938 280.692 53.6094C281.364 53.1198 282.307 52.875 283.521 52.875H284.927V52.2109C284.927 51.7057 284.776 51.3047 284.474 51.0078C284.172 50.7057 283.726 50.5547 283.138 50.5547C282.622 50.5547 282.19 50.6849 281.841 50.9453C281.492 51.2057 281.317 51.5208 281.317 51.8906H279.864C279.864 51.4688 280.013 51.0625 280.31 50.6719C280.612 50.276 281.018 49.9635 281.528 49.7344C282.044 49.5052 282.609 49.3906 283.224 49.3906C284.198 49.3906 284.961 49.6354 285.513 50.125C286.065 50.6094 286.351 51.2786 286.372 52.1328V56.0234C286.372 56.7995 286.471 57.4167 286.669 57.875V58H285.153ZM282.755 56.8984C283.208 56.8984 283.638 56.7812 284.044 56.5469C284.45 56.3125 284.744 56.0078 284.927 55.6328V53.8984H283.794C282.023 53.8984 281.138 54.4167 281.138 55.4531C281.138 55.9062 281.289 56.2604 281.591 56.5156C281.893 56.7708 282.281 56.8984 282.755 56.8984ZM291.278 55.8828L293.247 49.5469H294.794L291.396 59.3047C290.869 60.7109 290.034 61.4141 288.888 61.4141L288.614 61.3906L288.075 61.2891V60.1172L288.466 60.1484C288.955 60.1484 289.336 60.0495 289.606 59.8516C289.882 59.6536 290.109 59.2917 290.286 58.7656L290.606 57.9062L287.591 49.5469H289.169L291.278 55.8828ZM297.45 49.5469L297.489 50.4844C298.109 49.7552 298.945 49.3906 299.997 49.3906C301.179 49.3906 301.984 49.8438 302.411 50.75C302.692 50.3438 303.057 50.0156 303.505 49.7656C303.958 49.5156 304.492 49.3906 305.106 49.3906C306.961 49.3906 307.903 50.3724 307.935 52.3359V58H306.489V52.4219C306.489 51.8177 306.351 51.3672 306.075 51.0703C305.799 50.7682 305.336 50.6172 304.685 50.6172C304.148 50.6172 303.703 50.7786 303.349 51.1016C302.994 51.4193 302.789 51.849 302.731 52.3906V58H301.278V52.4609C301.278 51.2318 300.677 50.6172 299.474 50.6172C298.526 50.6172 297.877 51.0208 297.528 51.8281V58H296.083V49.5469H297.45ZM313.63 58.1562C312.484 58.1562 311.552 57.7812 310.833 57.0312C310.114 56.276 309.755 55.2682 309.755 54.0078V53.7422C309.755 52.9036 309.914 52.1562 310.231 51.5C310.554 50.8385 311.002 50.3229 311.575 49.9531C312.153 49.5781 312.778 49.3906 313.45 49.3906C314.549 49.3906 315.403 49.7526 316.013 50.4766C316.622 51.2005 316.927 52.237 316.927 53.5859V54.1875H311.2C311.221 55.0208 311.463 55.6953 311.927 56.2109C312.396 56.7214 312.989 56.9766 313.708 56.9766C314.218 56.9766 314.651 56.8724 315.005 56.6641C315.359 56.4557 315.669 56.1797 315.935 55.8359L316.817 56.5234C316.109 57.612 315.047 58.1562 313.63 58.1562ZM313.45 50.5781C312.867 50.5781 312.377 50.7917 311.981 51.2188C311.586 51.6406 311.341 52.2344 311.247 53H315.481V52.8906C315.44 52.1562 315.242 51.5885 314.888 51.1875C314.534 50.7812 314.054 50.5781 313.45 50.5781ZM319.974 49.5469L320.021 50.6094C320.666 49.7969 321.51 49.3906 322.552 49.3906C324.338 49.3906 325.239 50.3984 325.255 52.4141V58H323.81V52.4062C323.804 51.7969 323.664 51.3464 323.388 51.0547C323.117 50.763 322.692 50.6172 322.114 50.6172C321.646 50.6172 321.234 50.7422 320.88 50.9922C320.526 51.2422 320.25 51.5703 320.052 51.9766V58H318.606V49.5469H319.974ZM329.396 47.5V49.5469H330.974V50.6641H329.396V55.9062C329.396 56.2448 329.466 56.5 329.606 56.6719C329.747 56.8385 329.987 56.9219 330.325 56.9219C330.492 56.9219 330.721 56.8906 331.013 56.8281V58C330.632 58.1042 330.263 58.1562 329.903 58.1562C329.257 58.1562 328.771 57.9609 328.442 57.5703C328.114 57.1797 327.95 56.625 327.95 55.9062V50.6641H326.411V49.5469H327.95V47.5H329.396ZM341.856 58C341.773 57.8333 341.705 57.5365 341.653 57.1094C340.981 57.8073 340.179 58.1562 339.247 58.1562C338.414 58.1562 337.729 57.9219 337.192 57.4531C336.661 56.9792 336.396 56.3802 336.396 55.6562C336.396 54.776 336.729 54.0938 337.396 53.6094C338.067 53.1198 339.01 52.875 340.224 52.875H341.63V52.2109C341.63 51.7057 341.479 51.3047 341.177 51.0078C340.875 50.7057 340.429 50.5547 339.841 50.5547C339.325 50.5547 338.893 50.6849 338.544 50.9453C338.195 51.2057 338.021 51.5208 338.021 51.8906H336.567C336.567 51.4688 336.716 51.0625 337.013 50.6719C337.315 50.276 337.721 49.9635 338.231 49.7344C338.747 49.5052 339.312 49.3906 339.927 49.3906C340.901 49.3906 341.664 49.6354 342.216 50.125C342.768 50.6094 343.054 51.2786 343.075 52.1328V56.0234C343.075 56.7995 343.174 57.4167 343.372 57.875V58H341.856ZM339.458 56.8984C339.911 56.8984 340.341 56.7812 340.747 56.5469C341.153 56.3125 341.448 56.0078 341.63 55.6328V53.8984H340.497C338.726 53.8984 337.841 54.4167 337.841 55.4531C337.841 55.9062 337.992 56.2604 338.294 56.5156C338.596 56.7708 338.984 56.8984 339.458 56.8984ZM346.052 58V50.6641H344.716V49.5469H346.052V48.6797C346.052 47.7734 346.294 47.0729 346.778 46.5781C347.263 46.0833 347.948 45.8359 348.833 45.8359C349.166 45.8359 349.497 45.8802 349.825 45.9688L349.747 47.1406C349.502 47.0938 349.242 47.0703 348.966 47.0703C348.497 47.0703 348.135 47.2083 347.88 47.4844C347.625 47.7552 347.497 48.1458 347.497 48.6562V49.5469H349.302V50.6641H347.497V58H346.052ZM352.864 47.5V49.5469H354.442V50.6641H352.864V55.9062C352.864 56.2448 352.935 56.5 353.075 56.6719C353.216 56.8385 353.455 56.9219 353.794 56.9219C353.961 56.9219 354.19 56.8906 354.481 56.8281V58C354.101 58.1042 353.731 58.1562 353.372 58.1562C352.726 58.1562 352.239 57.9609 351.911 57.5703C351.583 57.1797 351.419 56.625 351.419 55.9062V50.6641H349.88V49.5469H351.419V47.5H352.864ZM359.646 58.1562C358.5 58.1562 357.567 57.7812 356.849 57.0312C356.13 56.276 355.771 55.2682 355.771 54.0078V53.7422C355.771 52.9036 355.929 52.1562 356.247 51.5C356.57 50.8385 357.018 50.3229 357.591 49.9531C358.169 49.5781 358.794 49.3906 359.466 49.3906C360.565 49.3906 361.419 49.7526 362.028 50.4766C362.638 51.2005 362.942 52.237 362.942 53.5859V54.1875H357.216C357.237 55.0208 357.479 55.6953 357.942 56.2109C358.411 56.7214 359.005 56.9766 359.724 56.9766C360.234 56.9766 360.666 56.8724 361.021 56.6641C361.375 56.4557 361.685 56.1797 361.95 55.8359L362.833 56.5234C362.125 57.612 361.062 58.1562 359.646 58.1562ZM359.466 50.5781C358.882 50.5781 358.393 50.7917 357.997 51.2188C357.601 51.6406 357.356 52.2344 357.263 53H361.497V52.8906C361.455 52.1562 361.257 51.5885 360.903 51.1875C360.549 50.7812 360.07 50.5781 359.466 50.5781ZM368.708 50.8438C368.489 50.8073 368.252 50.7891 367.997 50.7891C367.049 50.7891 366.406 51.1927 366.067 52V58H364.622V49.5469H366.028L366.052 50.5234C366.526 49.7682 367.198 49.3906 368.067 49.3906C368.349 49.3906 368.562 49.4271 368.708 49.5V50.8438ZM377.403 56.9766C377.919 56.9766 378.369 56.8203 378.755 56.5078C379.14 56.1953 379.354 55.8047 379.396 55.3359H380.763C380.737 55.8203 380.57 56.2812 380.263 56.7188C379.955 57.1562 379.544 57.5052 379.028 57.7656C378.518 58.026 377.976 58.1562 377.403 58.1562C376.252 58.1562 375.336 57.7734 374.653 57.0078C373.976 56.237 373.638 55.1849 373.638 53.8516V53.6094C373.638 52.7865 373.789 52.0547 374.091 51.4141C374.393 50.7734 374.825 50.276 375.388 49.9219C375.955 49.5677 376.625 49.3906 377.396 49.3906C378.343 49.3906 379.13 49.6745 379.755 50.2422C380.385 50.8099 380.721 51.5469 380.763 52.4531H379.396C379.354 51.9062 379.146 51.4583 378.771 51.1094C378.401 50.7552 377.942 50.5781 377.396 50.5781C376.661 50.5781 376.091 50.8438 375.685 51.375C375.284 51.901 375.083 52.6641 375.083 53.6641V53.9375C375.083 54.9115 375.284 55.6615 375.685 56.1875C376.086 56.7135 376.659 56.9766 377.403 56.9766ZM383.833 50.5703C384.474 49.7839 385.307 49.3906 386.333 49.3906C388.119 49.3906 389.021 50.3984 389.036 52.4141V58H387.591V52.4062C387.586 51.7969 387.445 51.3464 387.169 51.0547C386.898 50.763 386.474 50.6172 385.896 50.6172C385.427 50.6172 385.015 50.7422 384.661 50.9922C384.307 51.2422 384.031 51.5703 383.833 51.9766V58H382.388V46H383.833V50.5703ZM394.708 58.1562C393.562 58.1562 392.63 57.7812 391.911 57.0312C391.192 56.276 390.833 55.2682 390.833 54.0078V53.7422C390.833 52.9036 390.992 52.1562 391.31 51.5C391.632 50.8385 392.08 50.3229 392.653 49.9531C393.231 49.5781 393.856 49.3906 394.528 49.3906C395.627 49.3906 396.481 49.7526 397.091 50.4766C397.7 51.2005 398.005 52.237 398.005 53.5859V54.1875H392.278C392.299 55.0208 392.541 55.6953 393.005 56.2109C393.474 56.7214 394.067 56.9766 394.786 56.9766C395.297 56.9766 395.729 56.8724 396.083 56.6641C396.437 56.4557 396.747 56.1797 397.013 55.8359L397.896 56.5234C397.187 57.612 396.125 58.1562 394.708 58.1562ZM394.528 50.5781C393.945 50.5781 393.455 50.7917 393.06 51.2188C392.664 51.6406 392.419 52.2344 392.325 53H396.56V52.8906C396.518 52.1562 396.32 51.5885 395.966 51.1875C395.612 50.7812 395.132 50.5781 394.528 50.5781ZM403.075 56.9766C403.591 56.9766 404.041 56.8203 404.427 56.5078C404.812 56.1953 405.026 55.8047 405.067 55.3359H406.435C406.409 55.8203 406.242 56.2812 405.935 56.7188C405.627 57.1562 405.216 57.5052 404.7 57.7656C404.19 58.026 403.648 58.1562 403.075 58.1562C401.924 58.1562 401.007 57.7734 400.325 57.0078C399.648 56.237 399.31 55.1849 399.31 53.8516V53.6094C399.31 52.7865 399.461 52.0547 399.763 51.4141C400.065 50.7734 400.497 50.276 401.06 49.9219C401.627 49.5677 402.297 49.3906 403.067 49.3906C404.015 49.3906 404.802 49.6745 405.427 50.2422C406.057 50.8099 406.393 51.5469 406.435 52.4531H405.067C405.026 51.9062 404.817 51.4583 404.442 51.1094C404.073 50.7552 403.614 50.5781 403.067 50.5781C402.333 50.5781 401.763 50.8438 401.356 51.375C400.955 51.901 400.755 52.6641 400.755 53.6641V53.9375C400.755 54.9115 400.955 55.6615 401.356 56.1875C401.757 56.7135 402.33 56.9766 403.075 56.9766ZM410.419 54.0859L409.513 55.0312V58H408.067V46H409.513V53.2578L410.286 52.3281L412.919 49.5469H414.677L411.388 53.0781L415.06 58H413.364L410.419 54.0859ZM417.739 58H416.294V49.5469H417.739V58ZM416.177 47.3047C416.177 47.0703 416.247 46.8724 416.388 46.7109C416.534 46.5495 416.747 46.4688 417.028 46.4688C417.31 46.4688 417.523 46.5495 417.669 46.7109C417.815 46.8724 417.888 47.0703 417.888 47.3047C417.888 47.5391 417.815 47.7344 417.669 47.8906C417.523 48.0469 417.31 48.125 417.028 48.125C416.747 48.125 416.534 48.0469 416.388 47.8906C416.247 47.7344 416.177 47.5391 416.177 47.3047ZM421.427 49.5469L421.474 50.6094C422.119 49.7969 422.963 49.3906 424.005 49.3906C425.791 49.3906 426.692 50.3984 426.708 52.4141V58H425.263V52.4062C425.257 51.7969 425.117 51.3464 424.841 51.0547C424.57 50.763 424.146 50.6172 423.567 50.6172C423.099 50.6172 422.687 50.7422 422.333 50.9922C421.979 51.2422 421.703 51.5703 421.505 51.9766V58H420.06V49.5469H421.427ZM428.544 53.7031C428.544 52.3854 428.849 51.3385 429.458 50.5625C430.067 49.7812 430.875 49.3906 431.88 49.3906C432.911 49.3906 433.716 49.7552 434.294 50.4844L434.364 49.5469H435.685V57.7969C435.685 58.8906 435.359 59.7526 434.708 60.3828C434.062 61.013 433.192 61.3281 432.099 61.3281C431.489 61.3281 430.893 61.1979 430.31 60.9375C429.726 60.6771 429.281 60.3203 428.974 59.8672L429.724 59C430.343 59.7656 431.101 60.1484 431.997 60.1484C432.7 60.1484 433.247 59.9505 433.638 59.5547C434.034 59.1589 434.231 58.6016 434.231 57.8828V57.1562C433.653 57.8229 432.864 58.1562 431.864 58.1562C430.875 58.1562 430.073 57.7578 429.458 56.9609C428.849 56.1641 428.544 55.0781 428.544 53.7031ZM429.997 53.8672C429.997 54.8203 430.192 55.5703 430.583 56.1172C430.974 56.6589 431.521 56.9297 432.224 56.9297C433.135 56.9297 433.804 56.5156 434.231 55.6875V51.8281C433.789 51.0208 433.125 50.6172 432.239 50.6172C431.536 50.6172 430.987 50.8906 430.591 51.4375C430.195 51.9844 429.997 52.7943 429.997 53.8672ZM443.411 58H441.966V49.5469H443.411V58ZM441.849 47.3047C441.849 47.0703 441.919 46.8724 442.06 46.7109C442.205 46.5495 442.419 46.4688 442.7 46.4688C442.981 46.4688 443.195 46.5495 443.341 46.7109C443.487 46.8724 443.56 47.0703 443.56 47.3047C443.56 47.5391 443.487 47.7344 443.341 47.8906C443.195 48.0469 442.981 48.125 442.7 48.125C442.419 48.125 442.205 48.0469 442.06 47.8906C441.919 47.7344 441.849 47.5391 441.849 47.3047ZM447.692 47.5V49.5469H449.271V50.6641H447.692V55.9062C447.692 56.2448 447.763 56.5 447.903 56.6719C448.044 56.8385 448.284 56.9219 448.622 56.9219C448.789 56.9219 449.018 56.8906 449.31 56.8281V58C448.929 58.1042 448.56 58.1562 448.2 58.1562C447.554 58.1562 447.067 57.9609 446.739 57.5703C446.411 57.1797 446.247 56.625 446.247 55.9062V50.6641H444.708V49.5469H446.247V47.5H447.692Z" fill="#6654A4"/>
<path d="M37.632 63.744H53.024V61.312H42.016C46.144 57.952 52.352 53.056 52.352 47.296C52.352 43.008 49.536 40.448 45.184 40.448C41.024 40.448 37.92 43.008 37.728 47.936H40.544C40.672 45.024 42.208 42.944 45.216 42.944C48.352 42.944 49.472 44.864 49.472 47.424C49.472 52.16 43.712 56.768 37.632 61.664V63.744Z" fill="#6654A4"/>
<defs>
<filter id="filter0_d" x="0" y="0" width="594.56" height="113" filterUnits="userSpaceOnUse" color-interpolation-filters="sRGB">
<feFlood flood-opacity="0" result="BackgroundImageFix"/>
<feColorMatrix in="SourceAlpha" type="matrix" values="0 0 0 0 0 0 0 0 0 0 0 0 0 0 0 0 0 0 127 0"/>
<feMorphology radius="4" operator="dilate" in="SourceAlpha" result="effect1_dropShadow"/>
<feOffset dy="3"/>
<feGaussianBlur stdDeviation="7.5"/>
<feColorMatrix type="matrix" values="0 0 0 0 0.872109 0 0 0 0 0.853125 0 0 0 0 0.9375 0 0 0 0.5 0"/>
<feBlend mode="normal" in2="BackgroundImageFix" result="effect1_dropShadow"/>
<feBlend mode="normal" in="SourceGraphic" in2="effect1_dropShadow" result="shape"/>
</filter>
</defs>
</svg>
