<svg width="557" height="75" viewBox="0 0 557 75" fill="none" xmlns="http://www.w3.org/2000/svg">
<path d="M63.5361 38.5469V43H62.0361V31.625H66.2314C67.4762 31.625 68.4502 31.9427 69.1533 32.5781C69.8617 33.2135 70.2158 34.0547 70.2158 35.1016C70.2158 36.2057 69.8695 37.0573 69.1768 37.6562C68.4893 38.25 67.5023 38.5469 66.2158 38.5469H63.5361ZM63.5361 37.3203H66.2314C67.0335 37.3203 67.6481 37.1328 68.0752 36.7578C68.5023 36.3776 68.7158 35.8307 68.7158 35.1172C68.7158 34.4401 68.5023 33.8984 68.0752 33.4922C67.6481 33.0859 67.0622 32.875 66.3174 32.8594H63.5361V37.3203ZM77.0283 43C76.945 42.8333 76.8773 42.5365 76.8252 42.1094C76.1533 42.8073 75.3512 43.1562 74.4189 43.1562C73.5856 43.1562 72.9007 42.9219 72.3643 42.4531C71.833 41.9792 71.5674 41.3802 71.5674 40.6562C71.5674 39.776 71.9007 39.0938 72.5674 38.6094C73.2393 38.1198 74.182 37.875 75.3955 37.875H76.8018V37.2109C76.8018 36.7057 76.6507 36.3047 76.3486 36.0078C76.0465 35.7057 75.6012 35.5547 75.0127 35.5547C74.4971 35.5547 74.0648 35.6849 73.7158 35.9453C73.3669 36.2057 73.1924 36.5208 73.1924 36.8906H71.7393C71.7393 36.4688 71.8877 36.0625 72.1846 35.6719C72.4867 35.276 72.8929 34.9635 73.4033 34.7344C73.9189 34.5052 74.484 34.3906 75.0986 34.3906C76.0726 34.3906 76.8356 34.6354 77.3877 35.125C77.9398 35.6094 78.2262 36.2786 78.2471 37.1328V41.0234C78.2471 41.7995 78.346 42.4167 78.5439 42.875V43H77.0283ZM74.6299 41.8984C75.083 41.8984 75.5127 41.7812 75.9189 41.5469C76.3252 41.3125 76.6195 41.0078 76.8018 40.6328V38.8984H75.6689C73.8981 38.8984 73.0127 39.4167 73.0127 40.4531C73.0127 40.9062 73.1637 41.2604 73.4658 41.5156C73.7679 41.7708 74.1559 41.8984 74.6299 41.8984ZM83.1533 40.8828L85.1221 34.5469H86.6689L83.2705 44.3047C82.7445 45.7109 81.9085 46.4141 80.7627 46.4141L80.4893 46.3906L79.9502 46.2891V45.1172L80.3408 45.1484C80.8304 45.1484 81.2106 45.0495 81.4814 44.8516C81.7575 44.6536 81.984 44.2917 82.1611 43.7656L82.4814 42.9062L79.4658 34.5469H81.0439L83.1533 40.8828ZM89.3252 34.5469L89.3643 35.4844C89.984 34.7552 90.82 34.3906 91.8721 34.3906C93.0544 34.3906 93.859 34.8438 94.2861 35.75C94.5674 35.3438 94.932 35.0156 95.3799 34.7656C95.833 34.5156 96.3669 34.3906 96.9814 34.3906C98.8356 34.3906 99.7783 35.3724 99.8096 37.3359V43H98.3643V37.4219C98.3643 36.8177 98.2262 36.3672 97.9502 36.0703C97.6742 35.7682 97.2106 35.6172 96.5596 35.6172C96.0231 35.6172 95.5778 35.7786 95.2236 36.1016C94.8695 36.4193 94.6637 36.849 94.6064 37.3906V43H93.1533V37.4609C93.1533 36.2318 92.5518 35.6172 91.3486 35.6172C90.4007 35.6172 89.7523 36.0208 89.4033 36.8281V43H87.958V34.5469H89.3252ZM105.505 43.1562C104.359 43.1562 103.427 42.7812 102.708 42.0312C101.989 41.276 101.63 40.2682 101.63 39.0078V38.7422C101.63 37.9036 101.789 37.1562 102.106 36.5C102.429 35.8385 102.877 35.3229 103.45 34.9531C104.028 34.5781 104.653 34.3906 105.325 34.3906C106.424 34.3906 107.278 34.7526 107.888 35.4766C108.497 36.2005 108.802 37.237 108.802 38.5859V39.1875H103.075C103.096 40.0208 103.338 40.6953 103.802 41.2109C104.271 41.7214 104.864 41.9766 105.583 41.9766C106.093 41.9766 106.526 41.8724 106.88 41.6641C107.234 41.4557 107.544 41.1797 107.81 40.8359L108.692 41.5234C107.984 42.612 106.922 43.1562 105.505 43.1562ZM105.325 35.5781C104.742 35.5781 104.252 35.7917 103.856 36.2188C103.461 36.6406 103.216 37.2344 103.122 38H107.356V37.8906C107.315 37.1562 107.117 36.5885 106.763 36.1875C106.409 35.7812 105.929 35.5781 105.325 35.5781ZM111.849 34.5469L111.896 35.6094C112.541 34.7969 113.385 34.3906 114.427 34.3906C116.213 34.3906 117.114 35.3984 117.13 37.4141V43H115.685V37.4062C115.679 36.7969 115.539 36.3464 115.263 36.0547C114.992 35.763 114.567 35.6172 113.989 35.6172C113.521 35.6172 113.109 35.7422 112.755 35.9922C112.401 36.2422 112.125 36.5703 111.927 36.9766V43H110.481V34.5469H111.849ZM121.271 32.5V34.5469H122.849V35.6641H121.271V40.9062C121.271 41.2448 121.341 41.5 121.481 41.6719C121.622 41.8385 121.862 41.9219 122.2 41.9219C122.367 41.9219 122.596 41.8906 122.888 41.8281V43C122.507 43.1042 122.138 43.1562 121.778 43.1562C121.132 43.1562 120.646 42.9609 120.317 42.5703C119.989 42.1797 119.825 41.625 119.825 40.9062V35.6641H118.286V34.5469H119.825V32.5H121.271ZM131.903 41.9766C132.419 41.9766 132.869 41.8203 133.255 41.5078C133.64 41.1953 133.854 40.8047 133.896 40.3359H135.263C135.237 40.8203 135.07 41.2812 134.763 41.7188C134.455 42.1562 134.044 42.5052 133.528 42.7656C133.018 43.026 132.476 43.1562 131.903 43.1562C130.752 43.1562 129.836 42.7734 129.153 42.0078C128.476 41.237 128.138 40.1849 128.138 38.8516V38.6094C128.138 37.7865 128.289 37.0547 128.591 36.4141C128.893 35.7734 129.325 35.276 129.888 34.9219C130.455 34.5677 131.125 34.3906 131.896 34.3906C132.843 34.3906 133.63 34.6745 134.255 35.2422C134.885 35.8099 135.221 36.5469 135.263 37.4531H133.896C133.854 36.9062 133.646 36.4583 133.271 36.1094C132.901 35.7552 132.442 35.5781 131.896 35.5781C131.161 35.5781 130.591 35.8438 130.185 36.375C129.784 36.901 129.583 37.6641 129.583 38.6641V38.9375C129.583 39.9115 129.784 40.6615 130.185 41.1875C130.586 41.7135 131.159 41.9766 131.903 41.9766ZM136.505 38.6953C136.505 37.8672 136.666 37.1224 136.989 36.4609C137.317 35.7995 137.771 35.2891 138.349 34.9297C138.932 34.5703 139.596 34.3906 140.341 34.3906C141.492 34.3906 142.422 34.7891 143.13 35.5859C143.843 36.3828 144.2 37.4427 144.2 38.7656V38.8672C144.2 39.6901 144.041 40.4297 143.724 41.0859C143.411 41.737 142.961 42.2448 142.372 42.6094C141.789 42.974 141.117 43.1562 140.356 43.1562C139.211 43.1562 138.281 42.7578 137.567 41.9609C136.859 41.1641 136.505 40.1094 136.505 38.7969V38.6953ZM137.958 38.8672C137.958 39.8047 138.174 40.5573 138.606 41.125C139.044 41.6927 139.627 41.9766 140.356 41.9766C141.091 41.9766 141.674 41.6901 142.106 41.1172C142.539 40.5391 142.755 39.7318 142.755 38.6953C142.755 37.7682 142.534 37.0182 142.091 36.4453C141.653 35.8672 141.07 35.5781 140.341 35.5781C139.627 35.5781 139.052 35.862 138.614 36.4297C138.177 36.9974 137.958 37.8099 137.958 38.8672ZM147.372 34.5469L147.411 35.4844C148.031 34.7552 148.867 34.3906 149.919 34.3906C151.101 34.3906 151.906 34.8438 152.333 35.75C152.614 35.3438 152.979 35.0156 153.427 34.7656C153.88 34.5156 154.414 34.3906 155.028 34.3906C156.882 34.3906 157.825 35.3724 157.856 37.3359V43H156.411V37.4219C156.411 36.8177 156.273 36.3672 155.997 36.0703C155.721 35.7682 155.257 35.6172 154.606 35.6172C154.07 35.6172 153.625 35.7786 153.271 36.1016C152.916 36.4193 152.711 36.849 152.653 37.3906V43H151.2V37.4609C151.2 36.2318 150.599 35.6172 149.396 35.6172C148.448 35.6172 147.799 36.0208 147.45 36.8281V43H146.005V34.5469H147.372ZM167.185 38.8672C167.185 40.1536 166.89 41.1901 166.302 41.9766C165.713 42.763 164.916 43.1562 163.911 43.1562C162.885 43.1562 162.078 42.8307 161.489 42.1797V46.25H160.044V34.5469H161.364L161.435 35.4844C162.023 34.7552 162.841 34.3906 163.888 34.3906C164.903 34.3906 165.705 34.7734 166.294 35.5391C166.888 36.3047 167.185 37.3698 167.185 38.7344V38.8672ZM165.739 38.7031C165.739 37.75 165.536 36.9974 165.13 36.4453C164.724 35.8932 164.166 35.6172 163.458 35.6172C162.583 35.6172 161.927 36.0052 161.489 36.7812V40.8203C161.922 41.5911 162.583 41.9766 163.474 41.9766C164.166 41.9766 164.716 41.7031 165.122 41.1562C165.534 40.6042 165.739 39.7865 165.739 38.7031ZM170.599 43H169.153V31H170.599V43ZM176.427 43.1562C175.281 43.1562 174.349 42.7812 173.63 42.0312C172.911 41.276 172.552 40.2682 172.552 39.0078V38.7422C172.552 37.9036 172.711 37.1562 173.028 36.5C173.351 35.8385 173.799 35.3229 174.372 34.9531C174.95 34.5781 175.575 34.3906 176.247 34.3906C177.346 34.3906 178.2 34.7526 178.81 35.4766C179.419 36.2005 179.724 37.237 179.724 38.5859V39.1875H173.997C174.018 40.0208 174.26 40.6953 174.724 41.2109C175.192 41.7214 175.786 41.9766 176.505 41.9766C177.015 41.9766 177.448 41.8724 177.802 41.6641C178.156 41.4557 178.466 41.1797 178.731 40.8359L179.614 41.5234C178.906 42.612 177.843 43.1562 176.427 43.1562ZM176.247 35.5781C175.664 35.5781 175.174 35.7917 174.778 36.2188C174.382 36.6406 174.138 37.2344 174.044 38H178.278V37.8906C178.237 37.1562 178.039 36.5885 177.685 36.1875C177.33 35.7812 176.851 35.5781 176.247 35.5781ZM183.364 32.5V34.5469H184.942V35.6641H183.364V40.9062C183.364 41.2448 183.435 41.5 183.575 41.6719C183.716 41.8385 183.955 41.9219 184.294 41.9219C184.461 41.9219 184.69 41.8906 184.981 41.8281V43C184.601 43.1042 184.231 43.1562 183.872 43.1562C183.226 43.1562 182.739 42.9609 182.411 42.5703C182.083 42.1797 181.919 41.625 181.919 40.9062V35.6641H180.38V34.5469H181.919V32.5H183.364ZM190.146 43.1562C189 43.1562 188.067 42.7812 187.349 42.0312C186.63 41.276 186.271 40.2682 186.271 39.0078V38.7422C186.271 37.9036 186.429 37.1562 186.747 36.5C187.07 35.8385 187.518 35.3229 188.091 34.9531C188.669 34.5781 189.294 34.3906 189.966 34.3906C191.065 34.3906 191.919 34.7526 192.528 35.4766C193.138 36.2005 193.442 37.237 193.442 38.5859V39.1875H187.716C187.737 40.0208 187.979 40.6953 188.442 41.2109C188.911 41.7214 189.505 41.9766 190.224 41.9766C190.734 41.9766 191.166 41.8724 191.521 41.6641C191.875 41.4557 192.185 41.1797 192.45 40.8359L193.333 41.5234C192.625 42.612 191.562 43.1562 190.146 43.1562ZM189.966 35.5781C189.382 35.5781 188.893 35.7917 188.497 36.2188C188.101 36.6406 187.856 37.2344 187.763 38H191.997V37.8906C191.955 37.1562 191.757 36.5885 191.403 36.1875C191.049 35.7812 190.57 35.5781 189.966 35.5781Z" fill="#656668"/>
<path d="M29.12 49H32V43.848H35.2V41.32H32V26.088H28.512L17.28 41.64V43.848H29.12V49ZM20.64 41.32L29.248 29.128V41.32H20.64Z" fill="#656668"/>
</svg>
