<svg width="287" height="264" viewBox="0 0 287 264" fill="none" xmlns="http://www.w3.org/2000/svg">
<g filter="url(#filter0_d)">
<rect x="45" y="30.4277" width="187" height="163" rx="32" fill="white"/>
</g>
<path d="M101.531 148.818C101.391 150.021 100.945 150.951 100.195 151.607C99.4505 152.258 98.4583 152.584 97.2188 152.584C95.875 152.584 94.7969 152.102 93.9844 151.139C93.1771 150.175 92.7734 148.886 92.7734 147.271V146.178C92.7734 145.12 92.9609 144.191 93.3359 143.389C93.7161 142.587 94.2526 141.972 94.9453 141.545C95.638 141.113 96.4401 140.896 97.3516 140.896C98.5599 140.896 99.5286 141.235 100.258 141.912C100.987 142.584 101.411 143.516 101.531 144.709H100.023C99.8932 143.803 99.6094 143.146 99.1719 142.74C98.7396 142.334 98.1328 142.131 97.3516 142.131C96.3932 142.131 95.6406 142.485 95.0938 143.193C94.5521 143.902 94.2812 144.91 94.2812 146.217V147.318C94.2812 148.553 94.5391 149.535 95.0547 150.264C95.5703 150.993 96.2917 151.357 97.2188 151.357C98.0521 151.357 98.6901 151.17 99.1328 150.795C99.5807 150.415 99.8776 149.756 100.023 148.818H101.531ZM102.977 148.123C102.977 147.295 103.138 146.55 103.461 145.889C103.789 145.227 104.242 144.717 104.82 144.357C105.404 143.998 106.068 143.818 106.812 143.818C107.964 143.818 108.893 144.217 109.602 145.014C110.315 145.811 110.672 146.87 110.672 148.193V148.295C110.672 149.118 110.513 149.857 110.195 150.514C109.883 151.165 109.432 151.673 108.844 152.037C108.26 152.402 107.589 152.584 106.828 152.584C105.682 152.584 104.753 152.186 104.039 151.389C103.331 150.592 102.977 149.537 102.977 148.225V148.123ZM104.43 148.295C104.43 149.232 104.646 149.985 105.078 150.553C105.516 151.12 106.099 151.404 106.828 151.404C107.562 151.404 108.146 151.118 108.578 150.545C109.01 149.967 109.227 149.16 109.227 148.123C109.227 147.196 109.005 146.446 108.562 145.873C108.125 145.295 107.542 145.006 106.812 145.006C106.099 145.006 105.523 145.29 105.086 145.857C104.648 146.425 104.43 147.238 104.43 148.295ZM113.844 143.975L113.883 144.912C114.503 144.183 115.339 143.818 116.391 143.818C117.573 143.818 118.378 144.271 118.805 145.178C119.086 144.771 119.451 144.443 119.898 144.193C120.352 143.943 120.885 143.818 121.5 143.818C123.354 143.818 124.297 144.8 124.328 146.764V152.428H122.883V146.85C122.883 146.245 122.745 145.795 122.469 145.498C122.193 145.196 121.729 145.045 121.078 145.045C120.542 145.045 120.096 145.206 119.742 145.529C119.388 145.847 119.182 146.277 119.125 146.818V152.428H117.672V146.889C117.672 145.66 117.07 145.045 115.867 145.045C114.919 145.045 114.271 145.449 113.922 146.256V152.428H112.477V143.975H113.844ZM127.875 143.975L127.914 144.912C128.534 144.183 129.37 143.818 130.422 143.818C131.604 143.818 132.409 144.271 132.836 145.178C133.117 144.771 133.482 144.443 133.93 144.193C134.383 143.943 134.917 143.818 135.531 143.818C137.385 143.818 138.328 144.8 138.359 146.764V152.428H136.914V146.85C136.914 146.245 136.776 145.795 136.5 145.498C136.224 145.196 135.76 145.045 135.109 145.045C134.573 145.045 134.128 145.206 133.773 145.529C133.419 145.847 133.214 146.277 133.156 146.818V152.428H131.703V146.889C131.703 145.66 131.102 145.045 129.898 145.045C128.951 145.045 128.302 145.449 127.953 146.256V152.428H126.508V143.975H127.875ZM142.117 152.428H140.672V143.975H142.117V152.428ZM140.555 141.732C140.555 141.498 140.625 141.3 140.766 141.139C140.911 140.977 141.125 140.896 141.406 140.896C141.688 140.896 141.901 140.977 142.047 141.139C142.193 141.3 142.266 141.498 142.266 141.732C142.266 141.967 142.193 142.162 142.047 142.318C141.901 142.475 141.688 142.553 141.406 142.553C141.125 142.553 140.911 142.475 140.766 142.318C140.625 142.162 140.555 141.967 140.555 141.732ZM146.398 141.928V143.975H147.977V145.092H146.398V150.334C146.398 150.673 146.469 150.928 146.609 151.1C146.75 151.266 146.99 151.35 147.328 151.35C147.495 151.35 147.724 151.318 148.016 151.256V152.428C147.635 152.532 147.266 152.584 146.906 152.584C146.26 152.584 145.773 152.389 145.445 151.998C145.117 151.607 144.953 151.053 144.953 150.334V145.092H143.414V143.975H144.953V141.928H146.398ZM151.031 143.975L151.07 144.912C151.69 144.183 152.526 143.818 153.578 143.818C154.76 143.818 155.565 144.271 155.992 145.178C156.273 144.771 156.638 144.443 157.086 144.193C157.539 143.943 158.073 143.818 158.688 143.818C160.542 143.818 161.484 144.8 161.516 146.764V152.428H160.07V146.85C160.07 146.245 159.932 145.795 159.656 145.498C159.38 145.196 158.917 145.045 158.266 145.045C157.729 145.045 157.284 145.206 156.93 145.529C156.576 145.847 156.37 146.277 156.312 146.818V152.428H154.859V146.889C154.859 145.66 154.258 145.045 153.055 145.045C152.107 145.045 151.458 145.449 151.109 146.256V152.428H149.664V143.975H151.031ZM167.211 152.584C166.065 152.584 165.133 152.209 164.414 151.459C163.695 150.704 163.336 149.696 163.336 148.436V148.17C163.336 147.331 163.495 146.584 163.812 145.928C164.135 145.266 164.583 144.751 165.156 144.381C165.734 144.006 166.359 143.818 167.031 143.818C168.13 143.818 168.984 144.18 169.594 144.904C170.203 145.628 170.508 146.665 170.508 148.014V148.615H164.781C164.802 149.449 165.044 150.123 165.508 150.639C165.977 151.149 166.57 151.404 167.289 151.404C167.799 151.404 168.232 151.3 168.586 151.092C168.94 150.883 169.25 150.607 169.516 150.264L170.398 150.951C169.69 152.04 168.628 152.584 167.211 152.584ZM167.031 145.006C166.448 145.006 165.958 145.219 165.562 145.646C165.167 146.068 164.922 146.662 164.828 147.428H169.062V147.318C169.021 146.584 168.823 146.016 168.469 145.615C168.115 145.209 167.635 145.006 167.031 145.006ZM173.555 143.975L173.602 145.037C174.247 144.225 175.091 143.818 176.133 143.818C177.919 143.818 178.82 144.826 178.836 146.842V152.428H177.391V146.834C177.385 146.225 177.245 145.774 176.969 145.482C176.698 145.191 176.273 145.045 175.695 145.045C175.227 145.045 174.815 145.17 174.461 145.42C174.107 145.67 173.831 145.998 173.633 146.404V152.428H172.188V143.975H173.555ZM182.977 141.928V143.975H184.555V145.092H182.977V150.334C182.977 150.673 183.047 150.928 183.188 151.1C183.328 151.266 183.568 151.35 183.906 151.35C184.073 151.35 184.302 151.318 184.594 151.256V152.428C184.214 152.532 183.844 152.584 183.484 152.584C182.839 152.584 182.352 152.389 182.023 151.998C181.695 151.607 181.531 151.053 181.531 150.334V145.092H179.992V143.975H181.531V141.928H182.977Z" fill="#2B334E"/>
<path fill-rule="evenodd" clip-rule="evenodd" d="M129.041 68.9274C127.241 68.9274 125.553 69.6232 124.291 70.8878C121.67 73.5128 121.67 77.7857 124.293 80.4149L138.999 95.1462L153.708 80.4149C156.331 77.7857 156.331 73.5128 153.708 70.8878C151.183 68.3566 146.733 68.3607 144.208 70.8878L140.474 74.6274C139.691 75.4128 138.308 75.4128 137.524 74.6274L133.791 70.8857C132.528 69.6232 130.843 68.9274 129.041 68.9274ZM138.999 100.177C138.447 100.177 137.916 99.9587 137.526 99.5649L121.343 83.3566C117.101 79.1066 117.101 72.192 121.343 67.942C123.393 65.892 126.126 64.7607 129.041 64.7607C131.956 64.7607 134.691 65.892 136.739 67.942L138.999 70.2066L141.26 67.9441C143.31 65.892 146.043 64.7607 148.96 64.7607C151.872 64.7607 154.608 65.892 156.656 67.942C160.899 72.192 160.899 79.1066 156.658 83.3566L140.474 99.567C140.083 99.9587 139.554 100.177 138.999 100.177Z" fill="#FF5364"/>
<mask id="mask0" mask-type="alpha" maskUnits="userSpaceOnUse" x="118" y="64" width="42" height="37">
<path fill-rule="evenodd" clip-rule="evenodd" d="M129.041 68.9274C127.241 68.9274 125.553 69.6232 124.291 70.8878C121.67 73.5128 121.67 77.7857 124.293 80.4149L138.999 95.1462L153.708 80.4149C156.331 77.7857 156.331 73.5128 153.708 70.8878C151.183 68.3566 146.733 68.3607 144.208 70.8878L140.474 74.6274C139.691 75.4128 138.308 75.4128 137.524 74.6274L133.791 70.8857C132.528 69.6232 130.843 68.9274 129.041 68.9274ZM138.999 100.177C138.447 100.177 137.916 99.9587 137.526 99.5649L121.343 83.3566C117.101 79.1066 117.101 72.192 121.343 67.942C123.393 65.892 126.126 64.7607 129.041 64.7607C131.956 64.7607 134.691 65.892 136.739 67.942L138.999 70.2066L141.26 67.9441C143.31 65.892 146.043 64.7607 148.96 64.7607C151.872 64.7607 154.608 65.892 156.656 67.942C160.899 72.192 160.899 79.1066 156.658 83.3566L140.474 99.567C140.083 99.9587 139.554 100.177 138.999 100.177Z" fill="white"/>
</mask>
<g mask="url(#mask0)">
<rect x="114" y="56.4277" width="50" height="50" fill="#FF5364"/>
</g>
<defs>
<filter id="filter0_d" x="0" y="0.427734" width="287" height="263" filterUnits="userSpaceOnUse" color-interpolation-filters="sRGB">
<feFlood flood-opacity="0" result="BackgroundImageFix"/>
<feColorMatrix in="SourceAlpha" type="matrix" values="0 0 0 0 0 0 0 0 0 0 0 0 0 0 0 0 0 0 127 0"/>
<feOffset dx="5" dy="20"/>
<feGaussianBlur stdDeviation="25"/>
<feColorMatrix type="matrix" values="0 0 0 0 0.290196 0 0 0 0 0.47451 0 0 0 0 0.827451 0 0 0 0.2 0"/>
<feBlend mode="normal" in2="BackgroundImageFix" result="effect1_dropShadow"/>
<feBlend mode="normal" in="SourceGraphic" in2="effect1_dropShadow" result="shape"/>
</filter>
</defs>
</svg>
