<svg width="287" height="263" viewBox="0 0 287 263" fill="none" xmlns="http://www.w3.org/2000/svg">
<g filter="url(#filter0_d)">
<rect x="45" y="30" width="187" height="163" rx="32" fill="white"/>
</g>
<path d="M104.219 152H102.719V140.625H104.219V152ZM108.109 143.547L108.156 144.609C108.802 143.797 109.646 143.391 110.688 143.391C112.474 143.391 113.375 144.398 113.391 146.414V152H111.945V146.406C111.94 145.797 111.799 145.346 111.523 145.055C111.253 144.763 110.828 144.617 110.25 144.617C109.781 144.617 109.37 144.742 109.016 144.992C108.661 145.242 108.385 145.57 108.188 145.977V152H106.742V143.547H108.109ZM116.938 143.547L116.984 144.609C117.63 143.797 118.474 143.391 119.516 143.391C121.302 143.391 122.203 144.398 122.219 146.414V152H120.773V146.406C120.768 145.797 120.628 145.346 120.352 145.055C120.081 144.763 119.656 144.617 119.078 144.617C118.609 144.617 118.198 144.742 117.844 144.992C117.49 145.242 117.214 145.57 117.016 145.977V152H115.57V143.547H116.938ZM124.016 147.695C124.016 146.867 124.177 146.122 124.5 145.461C124.828 144.799 125.281 144.289 125.859 143.93C126.443 143.57 127.107 143.391 127.852 143.391C129.003 143.391 129.932 143.789 130.641 144.586C131.354 145.383 131.711 146.443 131.711 147.766V147.867C131.711 148.69 131.552 149.43 131.234 150.086C130.922 150.737 130.471 151.245 129.883 151.609C129.299 151.974 128.628 152.156 127.867 152.156C126.721 152.156 125.792 151.758 125.078 150.961C124.37 150.164 124.016 149.109 124.016 147.797V147.695ZM125.469 147.867C125.469 148.805 125.685 149.557 126.117 150.125C126.555 150.693 127.138 150.977 127.867 150.977C128.602 150.977 129.185 150.69 129.617 150.117C130.049 149.539 130.266 148.732 130.266 147.695C130.266 146.768 130.044 146.018 129.602 145.445C129.164 144.867 128.581 144.578 127.852 144.578C127.138 144.578 126.562 144.862 126.125 145.43C125.688 145.997 125.469 146.81 125.469 147.867ZM136.188 150.039L138.281 143.547H139.758L136.727 152H135.625L132.562 143.547H134.039L136.188 150.039ZM146.242 152C146.159 151.833 146.091 151.536 146.039 151.109C145.367 151.807 144.565 152.156 143.633 152.156C142.799 152.156 142.115 151.922 141.578 151.453C141.047 150.979 140.781 150.38 140.781 149.656C140.781 148.776 141.115 148.094 141.781 147.609C142.453 147.12 143.396 146.875 144.609 146.875H146.016V146.211C146.016 145.706 145.865 145.305 145.562 145.008C145.26 144.706 144.815 144.555 144.227 144.555C143.711 144.555 143.279 144.685 142.93 144.945C142.581 145.206 142.406 145.521 142.406 145.891H140.953C140.953 145.469 141.102 145.062 141.398 144.672C141.701 144.276 142.107 143.964 142.617 143.734C143.133 143.505 143.698 143.391 144.312 143.391C145.286 143.391 146.049 143.635 146.602 144.125C147.154 144.609 147.44 145.279 147.461 146.133V150.023C147.461 150.799 147.56 151.417 147.758 151.875V152H146.242ZM143.844 150.898C144.297 150.898 144.727 150.781 145.133 150.547C145.539 150.312 145.833 150.008 146.016 149.633V147.898H144.883C143.112 147.898 142.227 148.417 142.227 149.453C142.227 149.906 142.378 150.26 142.68 150.516C142.982 150.771 143.37 150.898 143.844 150.898ZM151.688 141.5V143.547H153.266V144.664H151.688V149.906C151.688 150.245 151.758 150.5 151.898 150.672C152.039 150.839 152.279 150.922 152.617 150.922C152.784 150.922 153.013 150.891 153.305 150.828V152C152.924 152.104 152.555 152.156 152.195 152.156C151.549 152.156 151.062 151.961 150.734 151.57C150.406 151.18 150.242 150.625 150.242 149.906V144.664H148.703V143.547H150.242V141.5H151.688ZM156.531 152H155.086V143.547H156.531V152ZM154.969 141.305C154.969 141.07 155.039 140.872 155.18 140.711C155.326 140.549 155.539 140.469 155.82 140.469C156.102 140.469 156.315 140.549 156.461 140.711C156.607 140.872 156.68 141.07 156.68 141.305C156.68 141.539 156.607 141.734 156.461 141.891C156.315 142.047 156.102 142.125 155.82 142.125C155.539 142.125 155.326 142.047 155.18 141.891C155.039 141.734 154.969 141.539 154.969 141.305ZM158.469 147.695C158.469 146.867 158.63 146.122 158.953 145.461C159.281 144.799 159.734 144.289 160.312 143.93C160.896 143.57 161.56 143.391 162.305 143.391C163.456 143.391 164.385 143.789 165.094 144.586C165.807 145.383 166.164 146.443 166.164 147.766V147.867C166.164 148.69 166.005 149.43 165.688 150.086C165.375 150.737 164.924 151.245 164.336 151.609C163.753 151.974 163.081 152.156 162.32 152.156C161.174 152.156 160.245 151.758 159.531 150.961C158.823 150.164 158.469 149.109 158.469 147.797V147.695ZM159.922 147.867C159.922 148.805 160.138 149.557 160.57 150.125C161.008 150.693 161.591 150.977 162.32 150.977C163.055 150.977 163.638 150.69 164.07 150.117C164.503 149.539 164.719 148.732 164.719 147.695C164.719 146.768 164.497 146.018 164.055 145.445C163.617 144.867 163.034 144.578 162.305 144.578C161.591 144.578 161.016 144.862 160.578 145.43C160.141 145.997 159.922 146.81 159.922 147.867ZM169.344 143.547L169.391 144.609C170.036 143.797 170.88 143.391 171.922 143.391C173.708 143.391 174.609 144.398 174.625 146.414V152H173.18V146.406C173.174 145.797 173.034 145.346 172.758 145.055C172.487 144.763 172.062 144.617 171.484 144.617C171.016 144.617 170.604 144.742 170.25 144.992C169.896 145.242 169.62 145.57 169.422 145.977V152H167.977V143.547H169.344Z" fill="#2B334E"/>
<path fill-rule="evenodd" clip-rule="evenodd" d="M141.083 66.417C141.083 67.5691 140.15 68.5003 139 68.5003C137.85 68.5003 136.917 67.5691 136.917 66.417V62.2503C136.917 61.0982 137.85 60.167 139 60.167C140.15 60.167 141.083 61.0982 141.083 62.2503V66.417ZM141.083 88.2085C141.083 87.4647 141.481 86.7751 142.127 86.4022C144.054 85.296 145.25 83.2251 145.25 81.0001C145.25 77.5543 142.446 74.7501 139 74.7501C135.554 74.7501 132.75 77.5543 132.75 81.0001C132.75 83.2251 133.946 85.296 135.873 86.4022C136.519 86.7751 136.917 87.4647 136.917 88.2085V97.6668H141.083V88.2085ZM128.583 81.0001C128.583 75.2564 133.256 70.5835 139 70.5835C144.744 70.5835 149.417 75.2564 149.417 81.0001C149.417 84.2897 147.846 87.3793 145.25 89.3251V97.6668C145.25 99.9647 143.381 101.833 141.083 101.833H136.917C134.619 101.833 132.75 99.9647 132.75 97.6668V89.3251C130.152 87.3793 128.583 84.2897 128.583 81.0001ZM157.75 78.917H153.583C152.431 78.917 151.5 79.8482 151.5 81.0003C151.5 82.1524 152.431 83.0837 153.583 83.0837H157.75C158.902 83.0837 159.833 82.1524 159.833 81.0003C159.833 79.8482 158.902 78.917 157.75 78.917ZM120.25 78.917H124.417C125.567 78.917 126.5 79.8482 126.5 81.0003C126.5 82.1524 125.567 83.0837 124.417 83.0837H120.25C119.1 83.0837 118.167 82.1524 118.167 81.0003C118.167 79.8482 119.1 78.917 120.25 78.917ZM129.958 69.3709L126.96 66.475C126.133 65.6771 124.816 65.7021 124.014 66.5292C123.214 67.3542 123.237 68.675 124.064 69.475L127.062 72.3688C127.468 72.7604 127.989 72.9542 128.51 72.9542C129.056 72.9542 129.599 72.7396 130.008 72.3167C130.808 71.4917 130.785 70.1709 129.958 69.3709ZM151.041 66.4784C151.866 65.6805 153.191 65.7034 153.984 66.5284C154.784 67.3534 154.761 68.6743 153.934 69.4722L150.936 72.368C150.534 72.7576 150.011 72.9534 149.491 72.9534C148.945 72.9534 148.399 72.7388 147.993 72.3159C147.193 71.4909 147.216 70.1701 148.043 69.3722L151.041 66.4784Z" fill="#FF5364"/>
<mask id="mask0" mask-type="alpha" maskUnits="userSpaceOnUse" x="118" y="60" width="42" height="42">
<path fill-rule="evenodd" clip-rule="evenodd" d="M141.083 66.417C141.083 67.5691 140.15 68.5003 139 68.5003C137.85 68.5003 136.917 67.5691 136.917 66.417V62.2503C136.917 61.0982 137.85 60.167 139 60.167C140.15 60.167 141.083 61.0982 141.083 62.2503V66.417ZM141.083 88.2085C141.083 87.4647 141.481 86.7751 142.127 86.4022C144.054 85.296 145.25 83.2251 145.25 81.0001C145.25 77.5543 142.446 74.7501 139 74.7501C135.554 74.7501 132.75 77.5543 132.75 81.0001C132.75 83.2251 133.946 85.296 135.873 86.4022C136.519 86.7751 136.917 87.4647 136.917 88.2085V97.6668H141.083V88.2085ZM128.583 81.0001C128.583 75.2564 133.256 70.5835 139 70.5835C144.744 70.5835 149.417 75.2564 149.417 81.0001C149.417 84.2897 147.846 87.3793 145.25 89.3251V97.6668C145.25 99.9647 143.381 101.833 141.083 101.833H136.917C134.619 101.833 132.75 99.9647 132.75 97.6668V89.3251C130.152 87.3793 128.583 84.2897 128.583 81.0001ZM157.75 78.917H153.583C152.431 78.917 151.5 79.8482 151.5 81.0003C151.5 82.1524 152.431 83.0837 153.583 83.0837H157.75C158.902 83.0837 159.833 82.1524 159.833 81.0003C159.833 79.8482 158.902 78.917 157.75 78.917ZM120.25 78.917H124.417C125.567 78.917 126.5 79.8482 126.5 81.0003C126.5 82.1524 125.567 83.0837 124.417 83.0837H120.25C119.1 83.0837 118.167 82.1524 118.167 81.0003C118.167 79.8482 119.1 78.917 120.25 78.917ZM129.958 69.3709L126.96 66.475C126.133 65.6771 124.816 65.7021 124.014 66.5292C123.214 67.3542 123.237 68.675 124.064 69.475L127.062 72.3688C127.468 72.7604 127.989 72.9542 128.51 72.9542C129.056 72.9542 129.599 72.7396 130.008 72.3167C130.808 71.4917 130.785 70.1709 129.958 69.3709ZM151.041 66.4784C151.866 65.6805 153.191 65.7034 153.984 66.5284C154.784 67.3534 154.761 68.6743 153.934 69.4722L150.936 72.368C150.534 72.7576 150.011 72.9534 149.491 72.9534C148.945 72.9534 148.399 72.7388 147.993 72.3159C147.193 71.4909 147.216 70.1701 148.043 69.3722L151.041 66.4784Z" fill="white"/>
</mask>
<g mask="url(#mask0)">
<rect x="114" y="56" width="50" height="50" fill="#FF5364"/>
</g>
<defs>
<filter id="filter0_d" x="0" y="0" width="287" height="263" filterUnits="userSpaceOnUse" color-interpolation-filters="sRGB">
<feFlood flood-opacity="0" result="BackgroundImageFix"/>
<feColorMatrix in="SourceAlpha" type="matrix" values="0 0 0 0 0 0 0 0 0 0 0 0 0 0 0 0 0 0 127 0"/>
<feOffset dx="5" dy="20"/>
<feGaussianBlur stdDeviation="25"/>
<feColorMatrix type="matrix" values="0 0 0 0 0.290196 0 0 0 0 0.47451 0 0 0 0 0.827451 0 0 0 0.2 0"/>
<feBlend mode="normal" in2="BackgroundImageFix" result="effect1_dropShadow"/>
<feBlend mode="normal" in="SourceGraphic" in2="effect1_dropShadow" result="shape"/>
</filter>
</defs>
</svg>
