<svg width="287" height="263" viewBox="0 0 287 263" fill="none" xmlns="http://www.w3.org/2000/svg">
<g filter="url(#filter0_d)">
<rect x="45" y="30" width="187" height="163" rx="32" fill="white"/>
</g>
<path d="M94.4219 147.398H91.75V152H90.2422V140.625H94.0078C95.2891 140.625 96.2734 140.917 96.9609 141.5C97.6536 142.083 98 142.932 98 144.047C98 144.755 97.8073 145.372 97.4219 145.898C97.0417 146.424 96.5104 146.818 95.8281 147.078L98.5 151.906V152H96.8906L94.4219 147.398ZM91.75 146.172H94.0547C94.7995 146.172 95.3906 145.979 95.8281 145.594C96.2708 145.208 96.4922 144.693 96.4922 144.047C96.4922 143.344 96.2812 142.805 95.8594 142.43C95.4427 142.055 94.8385 141.865 94.0469 141.859H91.75V146.172ZM103.391 152.156C102.245 152.156 101.312 151.781 100.594 151.031C99.875 150.276 99.5156 149.268 99.5156 148.008V147.742C99.5156 146.904 99.6745 146.156 99.9922 145.5C100.315 144.839 100.763 144.323 101.336 143.953C101.914 143.578 102.539 143.391 103.211 143.391C104.31 143.391 105.164 143.753 105.773 144.477C106.383 145.201 106.688 146.237 106.688 147.586V148.188H100.961C100.982 149.021 101.224 149.695 101.688 150.211C102.156 150.721 102.75 150.977 103.469 150.977C103.979 150.977 104.411 150.872 104.766 150.664C105.12 150.456 105.43 150.18 105.695 149.836L106.578 150.523C105.87 151.612 104.807 152.156 103.391 152.156ZM103.211 144.578C102.628 144.578 102.138 144.792 101.742 145.219C101.346 145.641 101.102 146.234 101.008 147H105.242V146.891C105.201 146.156 105.003 145.589 104.648 145.188C104.294 144.781 103.815 144.578 103.211 144.578ZM113.289 149.758C113.289 149.367 113.141 149.065 112.844 148.852C112.552 148.633 112.039 148.445 111.305 148.289C110.576 148.133 109.995 147.945 109.562 147.727C109.135 147.508 108.818 147.247 108.609 146.945C108.406 146.643 108.305 146.284 108.305 145.867C108.305 145.174 108.596 144.589 109.18 144.109C109.768 143.63 110.518 143.391 111.43 143.391C112.388 143.391 113.164 143.638 113.758 144.133C114.357 144.628 114.656 145.26 114.656 146.031H113.203C113.203 145.635 113.034 145.294 112.695 145.008C112.362 144.721 111.94 144.578 111.43 144.578C110.904 144.578 110.492 144.693 110.195 144.922C109.898 145.151 109.75 145.451 109.75 145.82C109.75 146.169 109.888 146.432 110.164 146.609C110.44 146.786 110.938 146.956 111.656 147.117C112.38 147.279 112.966 147.471 113.414 147.695C113.862 147.919 114.193 148.19 114.406 148.508C114.625 148.82 114.734 149.203 114.734 149.656C114.734 150.411 114.432 151.018 113.828 151.477C113.224 151.93 112.44 152.156 111.477 152.156C110.799 152.156 110.201 152.036 109.68 151.797C109.159 151.557 108.75 151.224 108.453 150.797C108.161 150.365 108.016 149.898 108.016 149.398H109.461C109.487 149.883 109.68 150.268 110.039 150.555C110.404 150.836 110.883 150.977 111.477 150.977C112.023 150.977 112.461 150.867 112.789 150.648C113.122 150.424 113.289 150.128 113.289 149.758ZM123.758 147.867C123.758 149.154 123.464 150.19 122.875 150.977C122.286 151.763 121.49 152.156 120.484 152.156C119.458 152.156 118.651 151.831 118.062 151.18V155.25H116.617V143.547H117.938L118.008 144.484C118.596 143.755 119.414 143.391 120.461 143.391C121.477 143.391 122.279 143.773 122.867 144.539C123.461 145.305 123.758 146.37 123.758 147.734V147.867ZM122.312 147.703C122.312 146.75 122.109 145.997 121.703 145.445C121.297 144.893 120.74 144.617 120.031 144.617C119.156 144.617 118.5 145.005 118.062 145.781V149.82C118.495 150.591 119.156 150.977 120.047 150.977C120.74 150.977 121.289 150.703 121.695 150.156C122.107 149.604 122.312 148.786 122.312 147.703ZM125.219 147.695C125.219 146.867 125.38 146.122 125.703 145.461C126.031 144.799 126.484 144.289 127.062 143.93C127.646 143.57 128.31 143.391 129.055 143.391C130.206 143.391 131.135 143.789 131.844 144.586C132.557 145.383 132.914 146.443 132.914 147.766V147.867C132.914 148.69 132.755 149.43 132.438 150.086C132.125 150.737 131.674 151.245 131.086 151.609C130.503 151.974 129.831 152.156 129.07 152.156C127.924 152.156 126.995 151.758 126.281 150.961C125.573 150.164 125.219 149.109 125.219 147.797V147.695ZM126.672 147.867C126.672 148.805 126.888 149.557 127.32 150.125C127.758 150.693 128.341 150.977 129.07 150.977C129.805 150.977 130.388 150.69 130.82 150.117C131.253 149.539 131.469 148.732 131.469 147.695C131.469 146.768 131.247 146.018 130.805 145.445C130.367 144.867 129.784 144.578 129.055 144.578C128.341 144.578 127.766 144.862 127.328 145.43C126.891 145.997 126.672 146.81 126.672 147.867ZM136.094 143.547L136.141 144.609C136.786 143.797 137.63 143.391 138.672 143.391C140.458 143.391 141.359 144.398 141.375 146.414V152H139.93V146.406C139.924 145.797 139.784 145.346 139.508 145.055C139.237 144.763 138.812 144.617 138.234 144.617C137.766 144.617 137.354 144.742 137 144.992C136.646 145.242 136.37 145.57 136.172 145.977V152H134.727V143.547H136.094ZM148.477 149.758C148.477 149.367 148.328 149.065 148.031 148.852C147.74 148.633 147.227 148.445 146.492 148.289C145.763 148.133 145.182 147.945 144.75 147.727C144.323 147.508 144.005 147.247 143.797 146.945C143.594 146.643 143.492 146.284 143.492 145.867C143.492 145.174 143.784 144.589 144.367 144.109C144.956 143.63 145.706 143.391 146.617 143.391C147.576 143.391 148.352 143.638 148.945 144.133C149.544 144.628 149.844 145.26 149.844 146.031H148.391C148.391 145.635 148.221 145.294 147.883 145.008C147.549 144.721 147.128 144.578 146.617 144.578C146.091 144.578 145.68 144.693 145.383 144.922C145.086 145.151 144.938 145.451 144.938 145.82C144.938 146.169 145.076 146.432 145.352 146.609C145.628 146.786 146.125 146.956 146.844 147.117C147.568 147.279 148.154 147.471 148.602 147.695C149.049 147.919 149.38 148.19 149.594 148.508C149.812 148.82 149.922 149.203 149.922 149.656C149.922 150.411 149.62 151.018 149.016 151.477C148.411 151.93 147.628 152.156 146.664 152.156C145.987 152.156 145.388 152.036 144.867 151.797C144.346 151.557 143.938 151.224 143.641 150.797C143.349 150.365 143.203 149.898 143.203 149.398H144.648C144.674 149.883 144.867 150.268 145.227 150.555C145.591 150.836 146.07 150.977 146.664 150.977C147.211 150.977 147.648 150.867 147.977 150.648C148.31 150.424 148.477 150.128 148.477 149.758ZM153.375 152H151.93V143.547H153.375V152ZM151.812 141.305C151.812 141.07 151.883 140.872 152.023 140.711C152.169 140.549 152.383 140.469 152.664 140.469C152.945 140.469 153.159 140.549 153.305 140.711C153.451 140.872 153.523 141.07 153.523 141.305C153.523 141.539 153.451 141.734 153.305 141.891C153.159 142.047 152.945 142.125 152.664 142.125C152.383 142.125 152.169 142.047 152.023 141.891C151.883 141.734 151.812 141.539 151.812 141.305ZM162.852 147.867C162.852 149.159 162.555 150.198 161.961 150.984C161.367 151.766 160.57 152.156 159.57 152.156C158.503 152.156 157.677 151.779 157.094 151.023L157.023 152H155.695V140H157.141V144.477C157.724 143.753 158.529 143.391 159.555 143.391C160.581 143.391 161.385 143.779 161.969 144.555C162.557 145.331 162.852 146.393 162.852 147.742V147.867ZM161.406 147.703C161.406 146.719 161.216 145.958 160.836 145.422C160.456 144.885 159.909 144.617 159.195 144.617C158.242 144.617 157.557 145.06 157.141 145.945V149.602C157.583 150.487 158.273 150.93 159.211 150.93C159.904 150.93 160.443 150.661 160.828 150.125C161.214 149.589 161.406 148.781 161.406 147.703ZM166.25 152H164.805V143.547H166.25V152ZM164.688 141.305C164.688 141.07 164.758 140.872 164.898 140.711C165.044 140.549 165.258 140.469 165.539 140.469C165.82 140.469 166.034 140.549 166.18 140.711C166.326 140.872 166.398 141.07 166.398 141.305C166.398 141.539 166.326 141.734 166.18 141.891C166.034 142.047 165.82 142.125 165.539 142.125C165.258 142.125 165.044 142.047 164.898 141.891C164.758 141.734 164.688 141.539 164.688 141.305ZM170.141 152H168.695V140H170.141V152ZM174.031 152H172.586V143.547H174.031V152ZM172.469 141.305C172.469 141.07 172.539 140.872 172.68 140.711C172.826 140.549 173.039 140.469 173.32 140.469C173.602 140.469 173.815 140.549 173.961 140.711C174.107 140.872 174.18 141.07 174.18 141.305C174.18 141.539 174.107 141.734 173.961 141.891C173.815 142.047 173.602 142.125 173.32 142.125C173.039 142.125 172.826 142.047 172.68 141.891C172.539 141.734 172.469 141.539 172.469 141.305ZM178.312 141.5V143.547H179.891V144.664H178.312V149.906C178.312 150.245 178.383 150.5 178.523 150.672C178.664 150.839 178.904 150.922 179.242 150.922C179.409 150.922 179.638 150.891 179.93 150.828V152C179.549 152.104 179.18 152.156 178.82 152.156C178.174 152.156 177.688 151.961 177.359 151.57C177.031 151.18 176.867 150.625 176.867 149.906V144.664H175.328V143.547H176.867V141.5H178.312ZM184.352 149.883L186.32 143.547H187.867L184.469 153.305C183.943 154.711 183.107 155.414 181.961 155.414L181.688 155.391L181.148 155.289V154.117L181.539 154.148C182.029 154.148 182.409 154.049 182.68 153.852C182.956 153.654 183.182 153.292 183.359 152.766L183.68 151.906L180.664 143.547H182.242L184.352 149.883Z" fill="black"/>
<path fill-rule="evenodd" clip-rule="evenodd" d="M139 64.6385L124.417 72.8427V73.1448C124.417 83.0198 129.762 92.1635 138.371 97.0073L139 97.3614L139.629 97.0073C148.238 92.1635 153.583 83.0198 153.583 73.1448V72.8427L139 64.6385ZM139 101.522C138.294 101.522 137.587 101.347 136.96 100.993L136.329 100.637C126.41 95.0598 120.25 84.5244 120.25 73.1452V72.8432C120.25 71.3452 121.062 69.9536 122.371 69.214L136.958 61.0098C138.219 60.3015 139.783 60.2994 141.04 61.0077L155.625 69.2119C156.937 69.9536 157.75 71.3452 157.75 72.8432V73.1452C157.75 84.5244 151.59 95.0598 141.671 100.637L141.042 100.991C140.412 101.345 139.706 101.522 139 101.522Z" fill="#FF5364"/>
<mask id="mask0" mask-type="alpha" maskUnits="userSpaceOnUse" x="120" y="60" width="38" height="42">
<path fill-rule="evenodd" clip-rule="evenodd" d="M139 64.6385L124.417 72.8427V73.1448C124.417 83.0198 129.762 92.1635 138.371 97.0073L139 97.3614L139.629 97.0073C148.238 92.1635 153.583 83.0198 153.583 73.1448V72.8427L139 64.6385ZM139 101.522C138.294 101.522 137.587 101.347 136.96 100.993L136.329 100.637C126.41 95.0598 120.25 84.5244 120.25 73.1452V72.8432C120.25 71.3452 121.062 69.9536 122.371 69.214L136.958 61.0098C138.219 60.3015 139.783 60.2994 141.04 61.0077L155.625 69.2119C156.937 69.9536 157.75 71.3452 157.75 72.8432V73.1452C157.75 84.5244 151.59 95.0598 141.671 100.637L141.042 100.991C140.412 101.345 139.706 101.522 139 101.522Z" fill="white"/>
</mask>
<g mask="url(#mask0)">
<rect x="114" y="56" width="50" height="50" fill="#FF5364"/>
</g>
<defs>
<filter id="filter0_d" x="0" y="0" width="287" height="263" filterUnits="userSpaceOnUse" color-interpolation-filters="sRGB">
<feFlood flood-opacity="0" result="BackgroundImageFix"/>
<feColorMatrix in="SourceAlpha" type="matrix" values="0 0 0 0 0 0 0 0 0 0 0 0 0 0 0 0 0 0 127 0"/>
<feOffset dx="5" dy="20"/>
<feGaussianBlur stdDeviation="25"/>
<feColorMatrix type="matrix" values="0 0 0 0 0.290196 0 0 0 0 0.47451 0 0 0 0 0.827451 0 0 0 0.2 0"/>
<feBlend mode="normal" in2="BackgroundImageFix" result="effect1_dropShadow"/>
<feBlend mode="normal" in="SourceGraphic" in2="effect1_dropShadow" result="shape"/>
</filter>
</defs>
</svg>
