<svg width="287" height="263" viewBox="0 0 287 263" fill="none" xmlns="http://www.w3.org/2000/svg">
<g filter="url(#filter0_d)">
<rect x="45" y="30" width="187" height="163" rx="32" fill="white"/>
</g>
<path d="M108.406 146.742H103.477V150.773H109.203V152H101.977V140.625H109.125V141.859H103.477V145.516H108.406V146.742ZM113.68 146.633L115.555 143.547H117.242L114.477 147.727L117.328 152H115.656L113.703 148.836L111.75 152H110.07L112.922 147.727L110.156 143.547H111.828L113.68 146.633ZM122.016 150.977C122.531 150.977 122.982 150.82 123.367 150.508C123.753 150.195 123.966 149.805 124.008 149.336H125.375C125.349 149.82 125.182 150.281 124.875 150.719C124.568 151.156 124.156 151.505 123.641 151.766C123.13 152.026 122.589 152.156 122.016 152.156C120.865 152.156 119.948 151.773 119.266 151.008C118.589 150.237 118.25 149.185 118.25 147.852V147.609C118.25 146.786 118.401 146.055 118.703 145.414C119.005 144.773 119.438 144.276 120 143.922C120.568 143.568 121.237 143.391 122.008 143.391C122.956 143.391 123.742 143.674 124.367 144.242C124.997 144.81 125.333 145.547 125.375 146.453H124.008C123.966 145.906 123.758 145.458 123.383 145.109C123.013 144.755 122.555 144.578 122.008 144.578C121.273 144.578 120.703 144.844 120.297 145.375C119.896 145.901 119.695 146.664 119.695 147.664V147.938C119.695 148.911 119.896 149.661 120.297 150.188C120.698 150.714 121.271 150.977 122.016 150.977ZM130.508 152.156C129.362 152.156 128.43 151.781 127.711 151.031C126.992 150.276 126.633 149.268 126.633 148.008V147.742C126.633 146.904 126.792 146.156 127.109 145.5C127.432 144.839 127.88 144.323 128.453 143.953C129.031 143.578 129.656 143.391 130.328 143.391C131.427 143.391 132.281 143.753 132.891 144.477C133.5 145.201 133.805 146.237 133.805 147.586V148.188H128.078C128.099 149.021 128.341 149.695 128.805 150.211C129.273 150.721 129.867 150.977 130.586 150.977C131.096 150.977 131.529 150.872 131.883 150.664C132.237 150.456 132.547 150.18 132.812 149.836L133.695 150.523C132.987 151.612 131.924 152.156 130.508 152.156ZM130.328 144.578C129.745 144.578 129.255 144.792 128.859 145.219C128.464 145.641 128.219 146.234 128.125 147H132.359V146.891C132.318 146.156 132.12 145.589 131.766 145.188C131.411 144.781 130.932 144.578 130.328 144.578ZM137.055 152H135.609V140H137.055V152ZM140.945 152H139.5V140H140.945V152ZM146.773 152.156C145.628 152.156 144.695 151.781 143.977 151.031C143.258 150.276 142.898 149.268 142.898 148.008V147.742C142.898 146.904 143.057 146.156 143.375 145.5C143.698 144.839 144.146 144.323 144.719 143.953C145.297 143.578 145.922 143.391 146.594 143.391C147.693 143.391 148.547 143.753 149.156 144.477C149.766 145.201 150.07 146.237 150.07 147.586V148.188H144.344C144.365 149.021 144.607 149.695 145.07 150.211C145.539 150.721 146.133 150.977 146.852 150.977C147.362 150.977 147.794 150.872 148.148 150.664C148.503 150.456 148.812 150.18 149.078 149.836L149.961 150.523C149.253 151.612 148.19 152.156 146.773 152.156ZM146.594 144.578C146.01 144.578 145.521 144.792 145.125 145.219C144.729 145.641 144.484 146.234 144.391 147H148.625V146.891C148.583 146.156 148.385 145.589 148.031 145.188C147.677 144.781 147.198 144.578 146.594 144.578ZM153.117 143.547L153.164 144.609C153.81 143.797 154.654 143.391 155.695 143.391C157.482 143.391 158.383 144.398 158.398 146.414V152H156.953V146.406C156.948 145.797 156.807 145.346 156.531 145.055C156.26 144.763 155.836 144.617 155.258 144.617C154.789 144.617 154.378 144.742 154.023 144.992C153.669 145.242 153.393 145.57 153.195 145.977V152H151.75V143.547H153.117ZM163.969 150.977C164.484 150.977 164.935 150.82 165.32 150.508C165.706 150.195 165.919 149.805 165.961 149.336H167.328C167.302 149.82 167.135 150.281 166.828 150.719C166.521 151.156 166.109 151.505 165.594 151.766C165.083 152.026 164.542 152.156 163.969 152.156C162.818 152.156 161.901 151.773 161.219 151.008C160.542 150.237 160.203 149.185 160.203 147.852V147.609C160.203 146.786 160.354 146.055 160.656 145.414C160.958 144.773 161.391 144.276 161.953 143.922C162.521 143.568 163.19 143.391 163.961 143.391C164.909 143.391 165.695 143.674 166.32 144.242C166.951 144.81 167.286 145.547 167.328 146.453H165.961C165.919 145.906 165.711 145.458 165.336 145.109C164.966 144.755 164.508 144.578 163.961 144.578C163.227 144.578 162.656 144.844 162.25 145.375C161.849 145.901 161.648 146.664 161.648 147.664V147.938C161.648 148.911 161.849 149.661 162.25 150.188C162.651 150.714 163.224 150.977 163.969 150.977ZM172.461 152.156C171.315 152.156 170.383 151.781 169.664 151.031C168.945 150.276 168.586 149.268 168.586 148.008V147.742C168.586 146.904 168.745 146.156 169.062 145.5C169.385 144.839 169.833 144.323 170.406 143.953C170.984 143.578 171.609 143.391 172.281 143.391C173.38 143.391 174.234 143.753 174.844 144.477C175.453 145.201 175.758 146.237 175.758 147.586V148.188H170.031C170.052 149.021 170.294 149.695 170.758 150.211C171.227 150.721 171.82 150.977 172.539 150.977C173.049 150.977 173.482 150.872 173.836 150.664C174.19 150.456 174.5 150.18 174.766 149.836L175.648 150.523C174.94 151.612 173.878 152.156 172.461 152.156ZM172.281 144.578C171.698 144.578 171.208 144.792 170.812 145.219C170.417 145.641 170.172 146.234 170.078 147H174.312V146.891C174.271 146.156 174.073 145.589 173.719 145.188C173.365 144.781 172.885 144.578 172.281 144.578Z" fill="#2B334E"/>
<path fill-rule="evenodd" clip-rule="evenodd" d="M139.637 90.8065C138.989 90.4503 138.206 90.4565 137.574 90.8336L129.766 95.4169L132.824 83.5211C134.647 84.5628 136.754 85.1669 138.999 85.1669C141.245 85.1669 143.351 84.5628 145.176 83.5211L148.279 95.5878L139.637 90.8065ZM139 64.3337C143.595 64.3337 147.333 68.0712 147.333 72.667C147.333 77.2628 143.595 81.0003 139 81.0003C134.404 81.0003 130.666 77.2628 130.666 72.667C130.666 68.0712 134.404 64.3337 139 64.3337ZM153.518 99.2316L148.708 80.5253C150.449 78.3753 151.499 75.6441 151.499 72.667C151.499 65.7732 145.893 60.167 138.999 60.167C132.108 60.167 126.499 65.7732 126.499 72.667C126.499 75.6441 127.549 78.3753 129.291 80.5253L124.483 99.2316C124.272 100.048 124.574 100.909 125.247 101.415C125.918 101.921 126.831 101.967 127.554 101.546L138.658 95.0274L150.491 101.573C150.806 101.748 151.154 101.834 151.499 101.834C151.952 101.834 152.402 101.688 152.777 101.398C153.433 100.89 153.727 100.038 153.518 99.2316Z" fill="#FF5364"/>
<mask id="mask0" mask-type="alpha" maskUnits="userSpaceOnUse" x="124" y="60" width="30" height="42">
<path fill-rule="evenodd" clip-rule="evenodd" d="M139.637 90.8065C138.989 90.4503 138.206 90.4565 137.574 90.8336L129.766 95.4169L132.824 83.5211C134.647 84.5628 136.754 85.1669 138.999 85.1669C141.245 85.1669 143.351 84.5628 145.176 83.5211L148.279 95.5878L139.637 90.8065ZM139 64.3337C143.595 64.3337 147.333 68.0712 147.333 72.667C147.333 77.2628 143.595 81.0003 139 81.0003C134.404 81.0003 130.666 77.2628 130.666 72.667C130.666 68.0712 134.404 64.3337 139 64.3337ZM153.518 99.2316L148.708 80.5253C150.449 78.3753 151.499 75.6441 151.499 72.667C151.499 65.7732 145.893 60.167 138.999 60.167C132.108 60.167 126.499 65.7732 126.499 72.667C126.499 75.6441 127.549 78.3753 129.291 80.5253L124.483 99.2316C124.272 100.048 124.574 100.909 125.247 101.415C125.918 101.921 126.831 101.967 127.554 101.546L138.658 95.0274L150.491 101.573C150.806 101.748 151.154 101.834 151.499 101.834C151.952 101.834 152.402 101.688 152.777 101.398C153.433 100.89 153.727 100.038 153.518 99.2316Z" fill="white"/>
</mask>
<g mask="url(#mask0)">
<rect x="114" y="56" width="50" height="50" fill="#FF5364"/>
</g>
<defs>
<filter id="filter0_d" x="0" y="0" width="287" height="263" filterUnits="userSpaceOnUse" color-interpolation-filters="sRGB">
<feFlood flood-opacity="0" result="BackgroundImageFix"/>
<feColorMatrix in="SourceAlpha" type="matrix" values="0 0 0 0 0 0 0 0 0 0 0 0 0 0 0 0 0 0 127 0"/>
<feOffset dx="5" dy="20"/>
<feGaussianBlur stdDeviation="25"/>
<feColorMatrix type="matrix" values="0 0 0 0 0.290196 0 0 0 0 0.47451 0 0 0 0 0.827451 0 0 0 0.2 0"/>
<feBlend mode="normal" in2="BackgroundImageFix" result="effect1_dropShadow"/>
<feBlend mode="normal" in="SourceGraphic" in2="effect1_dropShadow" result="shape"/>
</filter>
</defs>
</svg>
