<svg width="287" height="264" viewBox="0 0 287 264" fill="none" xmlns="http://www.w3.org/2000/svg">
<g filter="url(#filter0_d)">
<rect x="45" y="30.4277" width="187" height="163" rx="32" fill="white"/>
</g>
<path d="M110.344 142.287H106.688V152.428H105.195V142.287H101.547V141.053H110.344V142.287ZM114.531 152.584C113.385 152.584 112.453 152.209 111.734 151.459C111.016 150.704 110.656 149.696 110.656 148.436V148.17C110.656 147.331 110.815 146.584 111.133 145.928C111.456 145.266 111.904 144.751 112.477 144.381C113.055 144.006 113.68 143.818 114.352 143.818C115.451 143.818 116.305 144.18 116.914 144.904C117.523 145.628 117.828 146.665 117.828 148.014V148.615H112.102C112.122 149.449 112.365 150.123 112.828 150.639C113.297 151.149 113.891 151.404 114.609 151.404C115.12 151.404 115.552 151.3 115.906 151.092C116.26 150.883 116.57 150.607 116.836 150.264L117.719 150.951C117.01 152.04 115.948 152.584 114.531 152.584ZM114.352 145.006C113.768 145.006 113.279 145.219 112.883 145.646C112.487 146.068 112.242 146.662 112.148 147.428H116.383V147.318C116.341 146.584 116.143 146.016 115.789 145.615C115.435 145.209 114.956 145.006 114.352 145.006ZM124.727 152.428C124.643 152.261 124.576 151.964 124.523 151.537C123.852 152.235 123.049 152.584 122.117 152.584C121.284 152.584 120.599 152.35 120.062 151.881C119.531 151.407 119.266 150.808 119.266 150.084C119.266 149.204 119.599 148.521 120.266 148.037C120.938 147.548 121.88 147.303 123.094 147.303H124.5V146.639C124.5 146.133 124.349 145.732 124.047 145.436C123.745 145.133 123.299 144.982 122.711 144.982C122.195 144.982 121.763 145.113 121.414 145.373C121.065 145.633 120.891 145.949 120.891 146.318H119.438C119.438 145.896 119.586 145.49 119.883 145.1C120.185 144.704 120.591 144.391 121.102 144.162C121.617 143.933 122.182 143.818 122.797 143.818C123.771 143.818 124.534 144.063 125.086 144.553C125.638 145.037 125.924 145.706 125.945 146.561V150.451C125.945 151.227 126.044 151.844 126.242 152.303V152.428H124.727ZM122.328 151.326C122.781 151.326 123.211 151.209 123.617 150.975C124.023 150.74 124.318 150.436 124.5 150.061V148.326H123.367C121.596 148.326 120.711 148.844 120.711 149.881C120.711 150.334 120.862 150.688 121.164 150.943C121.466 151.199 121.854 151.326 122.328 151.326ZM129.57 143.975L129.609 144.912C130.229 144.183 131.065 143.818 132.117 143.818C133.299 143.818 134.104 144.271 134.531 145.178C134.812 144.771 135.177 144.443 135.625 144.193C136.078 143.943 136.612 143.818 137.227 143.818C139.081 143.818 140.023 144.8 140.055 146.764V152.428H138.609V146.85C138.609 146.245 138.471 145.795 138.195 145.498C137.919 145.196 137.456 145.045 136.805 145.045C136.268 145.045 135.823 145.206 135.469 145.529C135.115 145.847 134.909 146.277 134.852 146.818V152.428H133.398V146.889C133.398 145.66 132.797 145.045 131.594 145.045C130.646 145.045 129.997 145.449 129.648 146.256V152.428H128.203V143.975H129.57ZM149.727 150.436L151.352 143.975H152.797L150.336 152.428H149.164L147.109 146.021L145.109 152.428H143.938L141.484 143.975H142.922L144.586 150.303L146.555 143.975H147.719L149.727 150.436ZM153.891 148.123C153.891 147.295 154.052 146.55 154.375 145.889C154.703 145.227 155.156 144.717 155.734 144.357C156.318 143.998 156.982 143.818 157.727 143.818C158.878 143.818 159.807 144.217 160.516 145.014C161.229 145.811 161.586 146.87 161.586 148.193V148.295C161.586 149.118 161.427 149.857 161.109 150.514C160.797 151.165 160.346 151.673 159.758 152.037C159.174 152.402 158.503 152.584 157.742 152.584C156.596 152.584 155.667 152.186 154.953 151.389C154.245 150.592 153.891 149.537 153.891 148.225V148.123ZM155.344 148.295C155.344 149.232 155.56 149.985 155.992 150.553C156.43 151.12 157.013 151.404 157.742 151.404C158.477 151.404 159.06 151.118 159.492 150.545C159.924 149.967 160.141 149.16 160.141 148.123C160.141 147.196 159.919 146.446 159.477 145.873C159.039 145.295 158.456 145.006 157.727 145.006C157.013 145.006 156.438 145.29 156 145.857C155.562 146.425 155.344 147.238 155.344 148.295ZM167.484 145.271C167.266 145.235 167.029 145.217 166.773 145.217C165.826 145.217 165.182 145.62 164.844 146.428V152.428H163.398V143.975H164.805L164.828 144.951C165.302 144.196 165.974 143.818 166.844 143.818C167.125 143.818 167.339 143.855 167.484 143.928V145.271ZM171.18 148.514L170.273 149.459V152.428H168.828V140.428H170.273V147.686L171.047 146.756L173.68 143.975H175.438L172.148 147.506L175.82 152.428H174.125L171.18 148.514Z" fill="#2B334E"/>
<path fill-rule="evenodd" clip-rule="evenodd" d="M155.667 93.9277C155.667 95.0757 154.731 96.0111 153.583 96.0111H149.417V75.1777H153.583C154.731 75.1777 155.667 76.1132 155.667 77.2611V93.9277ZM122.333 93.9277V77.2611C122.333 76.1132 123.269 75.1777 124.417 75.1777H128.583V96.0111H124.417C123.269 96.0111 122.333 95.0757 122.333 93.9277ZM134.833 67.8861C134.833 67.3111 135.3 66.8444 135.875 66.8444H142.125C142.7 66.8444 143.167 67.3111 143.167 67.8861V71.0111H134.833V67.8861ZM132.75 96.0111H145.25V75.1777H132.75V96.0111ZM153.583 71.0111H147.333V67.8861C147.333 65.0152 144.996 62.6777 142.125 62.6777H135.875C133.004 62.6777 130.667 65.0152 130.667 67.8861V71.0111H124.417C120.971 71.0111 118.167 73.8152 118.167 77.2611V93.9277C118.167 97.3736 120.971 100.178 124.417 100.178H153.583C157.029 100.178 159.833 97.3736 159.833 93.9277V77.2611C159.833 73.8152 157.029 71.0111 153.583 71.0111Z" fill="#FF5364"/>
<mask id="mask0" mask-type="alpha" maskUnits="userSpaceOnUse" x="118" y="62" width="42" height="39">
<path fill-rule="evenodd" clip-rule="evenodd" d="M155.667 93.9277C155.667 95.0757 154.731 96.0111 153.583 96.0111H149.417V75.1777H153.583C154.731 75.1777 155.667 76.1132 155.667 77.2611V93.9277ZM122.333 93.9277V77.2611C122.333 76.1132 123.269 75.1777 124.417 75.1777H128.583V96.0111H124.417C123.269 96.0111 122.333 95.0757 122.333 93.9277ZM134.833 67.8861C134.833 67.3111 135.3 66.8444 135.875 66.8444H142.125C142.7 66.8444 143.167 67.3111 143.167 67.8861V71.0111H134.833V67.8861ZM132.75 96.0111H145.25V75.1777H132.75V96.0111ZM153.583 71.0111H147.333V67.8861C147.333 65.0152 144.996 62.6777 142.125 62.6777H135.875C133.004 62.6777 130.667 65.0152 130.667 67.8861V71.0111H124.417C120.971 71.0111 118.167 73.8152 118.167 77.2611V93.9277C118.167 97.3736 120.971 100.178 124.417 100.178H153.583C157.029 100.178 159.833 97.3736 159.833 93.9277V77.2611C159.833 73.8152 157.029 71.0111 153.583 71.0111Z" fill="white"/>
</mask>
<g mask="url(#mask0)">
<rect x="114" y="56.4277" width="50" height="50" fill="#FF5364"/>
</g>
<defs>
<filter id="filter0_d" x="0" y="0.427734" width="287" height="263" filterUnits="userSpaceOnUse" color-interpolation-filters="sRGB">
<feFlood flood-opacity="0" result="BackgroundImageFix"/>
<feColorMatrix in="SourceAlpha" type="matrix" values="0 0 0 0 0 0 0 0 0 0 0 0 0 0 0 0 0 0 127 0"/>
<feOffset dx="5" dy="20"/>
<feGaussianBlur stdDeviation="25"/>
<feColorMatrix type="matrix" values="0 0 0 0 0.290196 0 0 0 0 0.47451 0 0 0 0 0.827451 0 0 0 0.2 0"/>
<feBlend mode="normal" in2="BackgroundImageFix" result="effect1_dropShadow"/>
<feBlend mode="normal" in="SourceGraphic" in2="effect1_dropShadow" result="shape"/>
</filter>
</defs>
</svg>
