<svg width="287" height="264" viewBox="0 0 287 264" fill="none" xmlns="http://www.w3.org/2000/svg">
<g filter="url(#filter0_d)">
<rect x="45" y="30.4277" width="187" height="163" rx="32" fill="white"/>
</g>
<path d="M109.375 152.428V141.053H112.586C113.576 141.053 114.451 141.271 115.211 141.709C115.971 142.146 116.557 142.769 116.969 143.576C117.385 144.383 117.596 145.311 117.602 146.357V147.084C117.602 148.157 117.393 149.097 116.977 149.904C116.565 150.712 115.974 151.331 115.203 151.764C114.438 152.196 113.544 152.417 112.523 152.428H109.375ZM110.875 142.287V151.201H112.453C113.609 151.201 114.508 150.842 115.148 150.123C115.794 149.404 116.117 148.381 116.117 147.053V146.389C116.117 145.097 115.812 144.094 115.203 143.381C114.599 142.662 113.74 142.298 112.625 142.287H110.875ZM121.219 152.428H119.773V143.975H121.219V152.428ZM119.656 141.732C119.656 141.498 119.727 141.3 119.867 141.139C120.013 140.977 120.227 140.896 120.508 140.896C120.789 140.896 121.003 140.977 121.148 141.139C121.294 141.3 121.367 141.498 121.367 141.732C121.367 141.967 121.294 142.162 121.148 142.318C121.003 142.475 120.789 142.553 120.508 142.553C120.227 142.553 120.013 142.475 119.867 142.318C119.727 142.162 119.656 141.967 119.656 141.732ZM126.328 150.467L128.422 143.975H129.898L126.867 152.428H125.766L122.703 143.975H124.18L126.328 150.467ZM134.688 152.584C133.542 152.584 132.609 152.209 131.891 151.459C131.172 150.704 130.812 149.696 130.812 148.436V148.17C130.812 147.331 130.971 146.584 131.289 145.928C131.612 145.266 132.06 144.751 132.633 144.381C133.211 144.006 133.836 143.818 134.508 143.818C135.607 143.818 136.461 144.18 137.07 144.904C137.68 145.628 137.984 146.665 137.984 148.014V148.615H132.258C132.279 149.449 132.521 150.123 132.984 150.639C133.453 151.149 134.047 151.404 134.766 151.404C135.276 151.404 135.708 151.3 136.062 151.092C136.417 150.883 136.727 150.607 136.992 150.264L137.875 150.951C137.167 152.04 136.104 152.584 134.688 152.584ZM134.508 145.006C133.924 145.006 133.435 145.219 133.039 145.646C132.643 146.068 132.398 146.662 132.305 147.428H136.539V147.318C136.497 146.584 136.299 146.016 135.945 145.615C135.591 145.209 135.112 145.006 134.508 145.006ZM143.75 145.271C143.531 145.235 143.294 145.217 143.039 145.217C142.091 145.217 141.448 145.62 141.109 146.428V152.428H139.664V143.975H141.07L141.094 144.951C141.568 144.196 142.24 143.818 143.109 143.818C143.391 143.818 143.604 143.855 143.75 143.928V145.271ZM150.008 150.186C150.008 149.795 149.859 149.493 149.562 149.279C149.271 149.061 148.758 148.873 148.023 148.717C147.294 148.561 146.714 148.373 146.281 148.154C145.854 147.936 145.536 147.675 145.328 147.373C145.125 147.071 145.023 146.712 145.023 146.295C145.023 145.602 145.315 145.016 145.898 144.537C146.487 144.058 147.237 143.818 148.148 143.818C149.107 143.818 149.883 144.066 150.477 144.561C151.076 145.055 151.375 145.688 151.375 146.459H149.922C149.922 146.063 149.753 145.722 149.414 145.436C149.081 145.149 148.659 145.006 148.148 145.006C147.622 145.006 147.211 145.12 146.914 145.35C146.617 145.579 146.469 145.878 146.469 146.248C146.469 146.597 146.607 146.86 146.883 147.037C147.159 147.214 147.656 147.383 148.375 147.545C149.099 147.706 149.685 147.899 150.133 148.123C150.581 148.347 150.911 148.618 151.125 148.936C151.344 149.248 151.453 149.631 151.453 150.084C151.453 150.839 151.151 151.446 150.547 151.904C149.943 152.357 149.159 152.584 148.195 152.584C147.518 152.584 146.919 152.464 146.398 152.225C145.878 151.985 145.469 151.652 145.172 151.225C144.88 150.792 144.734 150.326 144.734 149.826H146.18C146.206 150.311 146.398 150.696 146.758 150.982C147.122 151.264 147.602 151.404 148.195 151.404C148.742 151.404 149.18 151.295 149.508 151.076C149.841 150.852 150.008 150.555 150.008 150.186ZM154.906 152.428H153.461V143.975H154.906V152.428ZM153.344 141.732C153.344 141.498 153.414 141.3 153.555 141.139C153.701 140.977 153.914 140.896 154.195 140.896C154.477 140.896 154.69 140.977 154.836 141.139C154.982 141.3 155.055 141.498 155.055 141.732C155.055 141.967 154.982 142.162 154.836 142.318C154.69 142.475 154.477 142.553 154.195 142.553C153.914 142.553 153.701 142.475 153.555 142.318C153.414 142.162 153.344 141.967 153.344 141.732ZM159.188 141.928V143.975H160.766V145.092H159.188V150.334C159.188 150.673 159.258 150.928 159.398 151.1C159.539 151.266 159.779 151.35 160.117 151.35C160.284 151.35 160.513 151.318 160.805 151.256V152.428C160.424 152.532 160.055 152.584 159.695 152.584C159.049 152.584 158.562 152.389 158.234 151.998C157.906 151.607 157.742 151.053 157.742 150.334V145.092H156.203V143.975H157.742V141.928H159.188ZM165.227 150.311L167.195 143.975H168.742L165.344 153.732C164.818 155.139 163.982 155.842 162.836 155.842L162.562 155.818L162.023 155.717V154.545L162.414 154.576C162.904 154.576 163.284 154.477 163.555 154.279C163.831 154.081 164.057 153.719 164.234 153.193L164.555 152.334L161.539 143.975H163.117L165.227 150.311Z" fill="#2B334E"/>
<path fill-rule="evenodd" clip-rule="evenodd" d="M144.452 97.1614C146.638 94.0406 148.911 89.451 149.365 83.5114H155.521C154.723 89.8697 150.336 95.1156 144.452 97.1614ZM122.477 83.5114H128.71C129.14 89.4739 131.383 94.0447 133.598 97.1801C127.687 95.1447 123.279 89.8885 122.477 83.5114ZM133.662 65.6548C131.471 68.7757 129.177 73.3798 128.719 79.3444H122.477C123.281 72.9444 127.721 67.6715 133.662 65.6548ZM132.915 79.3452C133.552 72.5286 137.04 67.7827 139.054 65.589C141.138 67.8202 144.571 72.5223 145.165 79.3452H132.915ZM132.917 83.5114H145.171C144.534 90.3385 141.038 95.0843 139.025 97.2781C136.844 94.9656 133.498 90.3281 132.917 83.5114ZM155.521 79.3447H149.371C148.944 73.4092 146.725 68.853 144.521 65.7217C150.371 67.7842 154.727 73.0113 155.521 79.3447ZM159.833 81.4281C159.833 69.9614 150.519 60.6322 139.058 60.5989C139.05 60.5989 139.042 60.5968 139.031 60.5968C139.023 60.5968 139.01 60.5947 139 60.5947C127.513 60.5947 118.167 69.9426 118.167 81.4281C118.167 92.9156 127.513 102.261 139 102.261C139.013 102.261 139.023 102.259 139.031 102.259C139.035 102.259 139.038 102.261 139.042 102.261C139.048 102.261 139.054 102.257 139.058 102.257C150.519 102.226 159.833 92.8947 159.833 81.4281Z" fill="#FF5364"/>
<mask id="mask0" mask-type="alpha" maskUnits="userSpaceOnUse" x="118" y="60" width="42" height="43">
<path fill-rule="evenodd" clip-rule="evenodd" d="M144.452 97.1614C146.638 94.0406 148.911 89.451 149.365 83.5114H155.521C154.723 89.8697 150.336 95.1156 144.452 97.1614ZM122.477 83.5114H128.71C129.14 89.4739 131.383 94.0447 133.598 97.1801C127.687 95.1447 123.279 89.8885 122.477 83.5114ZM133.662 65.6548C131.471 68.7757 129.177 73.3798 128.719 79.3444H122.477C123.281 72.9444 127.721 67.6715 133.662 65.6548ZM132.915 79.3452C133.552 72.5286 137.04 67.7827 139.054 65.589C141.138 67.8202 144.571 72.5223 145.165 79.3452H132.915ZM132.917 83.5114H145.171C144.534 90.3385 141.038 95.0843 139.025 97.2781C136.844 94.9656 133.498 90.3281 132.917 83.5114ZM155.521 79.3447H149.371C148.944 73.4092 146.725 68.853 144.521 65.7217C150.371 67.7842 154.727 73.0113 155.521 79.3447ZM159.833 81.4281C159.833 69.9614 150.519 60.6322 139.058 60.5989C139.05 60.5989 139.042 60.5968 139.031 60.5968C139.023 60.5968 139.01 60.5947 139 60.5947C127.513 60.5947 118.167 69.9426 118.167 81.4281C118.167 92.9156 127.513 102.261 139 102.261C139.013 102.261 139.023 102.259 139.031 102.259C139.035 102.259 139.038 102.261 139.042 102.261C139.048 102.261 139.054 102.257 139.058 102.257C150.519 102.226 159.833 92.8947 159.833 81.4281Z" fill="white"/>
</mask>
<g mask="url(#mask0)">
<rect x="114" y="56.4277" width="50" height="50" fill="#FF5364"/>
</g>
<defs>
<filter id="filter0_d" x="0" y="0.427734" width="287" height="263" filterUnits="userSpaceOnUse" color-interpolation-filters="sRGB">
<feFlood flood-opacity="0" result="BackgroundImageFix"/>
<feColorMatrix in="SourceAlpha" type="matrix" values="0 0 0 0 0 0 0 0 0 0 0 0 0 0 0 0 0 0 127 0"/>
<feOffset dx="5" dy="20"/>
<feGaussianBlur stdDeviation="25"/>
<feColorMatrix type="matrix" values="0 0 0 0 0.290196 0 0 0 0 0.47451 0 0 0 0 0.827451 0 0 0 0.2 0"/>
<feBlend mode="normal" in2="BackgroundImageFix" result="effect1_dropShadow"/>
<feBlend mode="normal" in="SourceGraphic" in2="effect1_dropShadow" result="shape"/>
</filter>
</defs>
</svg>
