<svg width="287" height="264" viewBox="0 0 287 264" fill="none" xmlns="http://www.w3.org/2000/svg">
<g filter="url(#filter0_d)">
<rect x="45" y="30.4277" width="187" height="163" rx="32" fill="white"/>
</g>
<path d="M94.375 147.17H89.4453V151.201H95.1719V152.428H87.9453V141.053H95.0938V142.287H89.4453V145.943H94.375V147.17ZM98.1719 143.975L98.2109 144.912C98.8307 144.183 99.6667 143.818 100.719 143.818C101.901 143.818 102.706 144.271 103.133 145.178C103.414 144.771 103.779 144.443 104.227 144.193C104.68 143.943 105.214 143.818 105.828 143.818C107.682 143.818 108.625 144.8 108.656 146.764V152.428H107.211V146.85C107.211 146.245 107.073 145.795 106.797 145.498C106.521 145.196 106.057 145.045 105.406 145.045C104.87 145.045 104.424 145.206 104.07 145.529C103.716 145.847 103.51 146.277 103.453 146.818V152.428H102V146.889C102 145.66 101.398 145.045 100.195 145.045C99.2474 145.045 98.599 145.449 98.25 146.256V152.428H96.8047V143.975H98.1719ZM117.984 148.295C117.984 149.581 117.69 150.618 117.102 151.404C116.513 152.191 115.716 152.584 114.711 152.584C113.685 152.584 112.878 152.258 112.289 151.607V155.678H110.844V143.975H112.164L112.234 144.912C112.823 144.183 113.641 143.818 114.688 143.818C115.703 143.818 116.505 144.201 117.094 144.967C117.688 145.732 117.984 146.798 117.984 148.162V148.295ZM116.539 148.131C116.539 147.178 116.336 146.425 115.93 145.873C115.523 145.321 114.966 145.045 114.258 145.045C113.383 145.045 112.727 145.433 112.289 146.209V150.248C112.721 151.019 113.383 151.404 114.273 151.404C114.966 151.404 115.516 151.131 115.922 150.584C116.333 150.032 116.539 149.214 116.539 148.131ZM119.445 148.123C119.445 147.295 119.607 146.55 119.93 145.889C120.258 145.227 120.711 144.717 121.289 144.357C121.872 143.998 122.536 143.818 123.281 143.818C124.432 143.818 125.362 144.217 126.07 145.014C126.784 145.811 127.141 146.87 127.141 148.193V148.295C127.141 149.118 126.982 149.857 126.664 150.514C126.352 151.165 125.901 151.673 125.312 152.037C124.729 152.402 124.057 152.584 123.297 152.584C122.151 152.584 121.221 152.186 120.508 151.389C119.799 150.592 119.445 149.537 119.445 148.225V148.123ZM120.898 148.295C120.898 149.232 121.115 149.985 121.547 150.553C121.984 151.12 122.568 151.404 123.297 151.404C124.031 151.404 124.615 151.118 125.047 150.545C125.479 149.967 125.695 149.16 125.695 148.123C125.695 147.196 125.474 146.446 125.031 145.873C124.594 145.295 124.01 145.006 123.281 145.006C122.568 145.006 121.992 145.29 121.555 145.857C121.117 146.425 120.898 147.238 120.898 148.295ZM136.438 150.436L138.062 143.975H139.508L137.047 152.428H135.875L133.82 146.021L131.82 152.428H130.648L128.195 143.975H129.633L131.297 150.303L133.266 143.975H134.43L136.438 150.436ZM144.492 152.584C143.346 152.584 142.414 152.209 141.695 151.459C140.977 150.704 140.617 149.696 140.617 148.436V148.17C140.617 147.331 140.776 146.584 141.094 145.928C141.417 145.266 141.865 144.751 142.438 144.381C143.016 144.006 143.641 143.818 144.312 143.818C145.411 143.818 146.266 144.18 146.875 144.904C147.484 145.628 147.789 146.665 147.789 148.014V148.615H142.062C142.083 149.449 142.326 150.123 142.789 150.639C143.258 151.149 143.852 151.404 144.57 151.404C145.081 151.404 145.513 151.3 145.867 151.092C146.221 150.883 146.531 150.607 146.797 150.264L147.68 150.951C146.971 152.04 145.909 152.584 144.492 152.584ZM144.312 145.006C143.729 145.006 143.24 145.219 142.844 145.646C142.448 146.068 142.203 146.662 142.109 147.428H146.344V147.318C146.302 146.584 146.104 146.016 145.75 145.615C145.396 145.209 144.917 145.006 144.312 145.006ZM153.555 145.271C153.336 145.235 153.099 145.217 152.844 145.217C151.896 145.217 151.253 145.62 150.914 146.428V152.428H149.469V143.975H150.875L150.898 144.951C151.372 144.196 152.044 143.818 152.914 143.818C153.195 143.818 153.409 143.855 153.555 143.928V145.271ZM156.25 143.975L156.289 144.912C156.909 144.183 157.745 143.818 158.797 143.818C159.979 143.818 160.784 144.271 161.211 145.178C161.492 144.771 161.857 144.443 162.305 144.193C162.758 143.943 163.292 143.818 163.906 143.818C165.76 143.818 166.703 144.8 166.734 146.764V152.428H165.289V146.85C165.289 146.245 165.151 145.795 164.875 145.498C164.599 145.196 164.135 145.045 163.484 145.045C162.948 145.045 162.503 145.206 162.148 145.529C161.794 145.847 161.589 146.277 161.531 146.818V152.428H160.078V146.889C160.078 145.66 159.477 145.045 158.273 145.045C157.326 145.045 156.677 145.449 156.328 146.256V152.428H154.883V143.975H156.25ZM172.43 152.584C171.284 152.584 170.352 152.209 169.633 151.459C168.914 150.704 168.555 149.696 168.555 148.436V148.17C168.555 147.331 168.714 146.584 169.031 145.928C169.354 145.266 169.802 144.751 170.375 144.381C170.953 144.006 171.578 143.818 172.25 143.818C173.349 143.818 174.203 144.18 174.812 144.904C175.422 145.628 175.727 146.665 175.727 148.014V148.615H170C170.021 149.449 170.263 150.123 170.727 150.639C171.195 151.149 171.789 151.404 172.508 151.404C173.018 151.404 173.451 151.3 173.805 151.092C174.159 150.883 174.469 150.607 174.734 150.264L175.617 150.951C174.909 152.04 173.846 152.584 172.43 152.584ZM172.25 145.006C171.667 145.006 171.177 145.219 170.781 145.646C170.385 146.068 170.141 146.662 170.047 147.428H174.281V147.318C174.24 146.584 174.042 146.016 173.688 145.615C173.333 145.209 172.854 145.006 172.25 145.006ZM178.773 143.975L178.82 145.037C179.466 144.225 180.31 143.818 181.352 143.818C183.138 143.818 184.039 144.826 184.055 146.842V152.428H182.609V146.834C182.604 146.225 182.464 145.774 182.188 145.482C181.917 145.191 181.492 145.045 180.914 145.045C180.445 145.045 180.034 145.17 179.68 145.42C179.326 145.67 179.049 145.998 178.852 146.404V152.428H177.406V143.975H178.773ZM188.195 141.928V143.975H189.773V145.092H188.195V150.334C188.195 150.673 188.266 150.928 188.406 151.1C188.547 151.266 188.786 151.35 189.125 151.35C189.292 151.35 189.521 151.318 189.812 151.256V152.428C189.432 152.532 189.062 152.584 188.703 152.584C188.057 152.584 187.57 152.389 187.242 151.998C186.914 151.607 186.75 151.053 186.75 150.334V145.092H185.211V143.975H186.75V141.928H188.195Z" fill="#2B334E"/>
<path fill-rule="evenodd" clip-rule="evenodd" d="M157.733 70.934C157.729 70.784 157.685 70.6423 157.646 70.4986C157.614 70.3777 157.6 70.2548 157.548 70.1444C157.5 70.0361 157.419 69.9486 157.348 69.8486C157.26 69.7215 157.181 69.5944 157.069 69.4902C157.05 69.4715 157.041 69.4465 157.021 69.4298C156.946 69.3652 156.854 69.3423 156.773 69.2902C156.648 69.209 156.525 69.1257 156.383 69.0715C156.244 69.0215 156.106 69.009 155.962 68.9882C155.862 68.9736 155.773 68.9277 155.666 68.9277H145.25C144.098 68.9277 143.166 69.8611 143.166 71.0111C143.166 72.1611 144.098 73.0944 145.25 73.0944H151.137L142.729 82.9027L133.821 77.559C132.939 77.0257 131.806 77.2215 131.148 78.0111L120.731 90.5111C119.996 91.3944 120.114 92.709 120.998 93.4444C121.389 93.7694 121.86 93.9277 122.331 93.9277C122.929 93.9277 123.521 93.6736 123.933 93.1777L133.208 82.0486L142.094 87.3819C142.966 87.9048 144.087 87.7215 144.748 86.9507L153.583 76.6423V81.4277C153.583 82.5777 154.514 83.5111 155.666 83.5111C156.819 83.5111 157.75 82.5777 157.75 81.4277V71.0111C157.75 70.984 157.735 70.9611 157.733 70.934Z" fill="#F05665"/>
<mask id="mask0" mask-type="alpha" maskUnits="userSpaceOnUse" x="120" y="68" width="38" height="26">
<path fill-rule="evenodd" clip-rule="evenodd" d="M157.733 70.934C157.729 70.784 157.685 70.6423 157.646 70.4986C157.614 70.3777 157.6 70.2548 157.548 70.1444C157.5 70.0361 157.419 69.9486 157.348 69.8486C157.26 69.7215 157.181 69.5944 157.069 69.4902C157.05 69.4715 157.041 69.4465 157.021 69.4298C156.946 69.3652 156.854 69.3423 156.773 69.2902C156.648 69.209 156.525 69.1257 156.383 69.0715C156.244 69.0215 156.106 69.009 155.962 68.9882C155.862 68.9736 155.773 68.9277 155.666 68.9277H145.25C144.098 68.9277 143.166 69.8611 143.166 71.0111C143.166 72.1611 144.098 73.0944 145.25 73.0944H151.137L142.729 82.9027L133.821 77.559C132.939 77.0257 131.806 77.2215 131.148 78.0111L120.731 90.5111C119.996 91.3944 120.114 92.709 120.998 93.4444C121.389 93.7694 121.86 93.9277 122.331 93.9277C122.929 93.9277 123.521 93.6736 123.933 93.1777L133.208 82.0486L142.094 87.3819C142.966 87.9048 144.087 87.7215 144.748 86.9507L153.583 76.6423V81.4277C153.583 82.5777 154.514 83.5111 155.666 83.5111C156.819 83.5111 157.75 82.5777 157.75 81.4277V71.0111C157.75 70.984 157.735 70.9611 157.733 70.934Z" fill="white"/>
</mask>
<g mask="url(#mask0)">
<rect x="114" y="56.4277" width="50" height="50" fill="#F05665"/>
</g>
<defs>
<filter id="filter0_d" x="0" y="0.427734" width="287" height="263" filterUnits="userSpaceOnUse" color-interpolation-filters="sRGB">
<feFlood flood-opacity="0" result="BackgroundImageFix"/>
<feColorMatrix in="SourceAlpha" type="matrix" values="0 0 0 0 0 0 0 0 0 0 0 0 0 0 0 0 0 0 127 0"/>
<feOffset dx="5" dy="20"/>
<feGaussianBlur stdDeviation="25"/>
<feColorMatrix type="matrix" values="0 0 0 0 0.290196 0 0 0 0 0.47451 0 0 0 0 0.827451 0 0 0 0.2 0"/>
<feBlend mode="normal" in2="BackgroundImageFix" result="effect1_dropShadow"/>
<feBlend mode="normal" in="SourceGraphic" in2="effect1_dropShadow" result="shape"/>
</filter>
</defs>
</svg>
