<svg width="287" height="263" viewBox="0 0 287 263" fill="none" xmlns="http://www.w3.org/2000/svg">
<g filter="url(#filter0_d)">
<rect x="45" y="30" width="187" height="163" rx="32" fill="white"/>
</g>
<path d="M112.422 152H110.922V140.625H112.422V152ZM116.312 143.547L116.359 144.609C117.005 143.797 117.849 143.391 118.891 143.391C120.677 143.391 121.578 144.398 121.594 146.414V152H120.148V146.406C120.143 145.797 120.003 145.346 119.727 145.055C119.456 144.763 119.031 144.617 118.453 144.617C117.984 144.617 117.573 144.742 117.219 144.992C116.865 145.242 116.589 145.57 116.391 145.977V152H114.945V143.547H116.312ZM125.734 141.5V143.547H127.312V144.664H125.734V149.906C125.734 150.245 125.805 150.5 125.945 150.672C126.086 150.839 126.326 150.922 126.664 150.922C126.831 150.922 127.06 150.891 127.352 150.828V152C126.971 152.104 126.602 152.156 126.242 152.156C125.596 152.156 125.109 151.961 124.781 151.57C124.453 151.18 124.289 150.625 124.289 149.906V144.664H122.75V143.547H124.289V141.5H125.734ZM132.516 152.156C131.37 152.156 130.438 151.781 129.719 151.031C129 150.276 128.641 149.268 128.641 148.008V147.742C128.641 146.904 128.799 146.156 129.117 145.5C129.44 144.839 129.888 144.323 130.461 143.953C131.039 143.578 131.664 143.391 132.336 143.391C133.435 143.391 134.289 143.753 134.898 144.477C135.508 145.201 135.812 146.237 135.812 147.586V148.188H130.086C130.107 149.021 130.349 149.695 130.812 150.211C131.281 150.721 131.875 150.977 132.594 150.977C133.104 150.977 133.536 150.872 133.891 150.664C134.245 150.456 134.555 150.18 134.82 149.836L135.703 150.523C134.995 151.612 133.932 152.156 132.516 152.156ZM132.336 144.578C131.753 144.578 131.263 144.792 130.867 145.219C130.471 145.641 130.227 146.234 130.133 147H134.367V146.891C134.326 146.156 134.128 145.589 133.773 145.188C133.419 144.781 132.94 144.578 132.336 144.578ZM137.148 147.703C137.148 146.385 137.453 145.339 138.062 144.562C138.672 143.781 139.479 143.391 140.484 143.391C141.516 143.391 142.32 143.755 142.898 144.484L142.969 143.547H144.289V151.797C144.289 152.891 143.964 153.753 143.312 154.383C142.667 155.013 141.797 155.328 140.703 155.328C140.094 155.328 139.497 155.198 138.914 154.938C138.331 154.677 137.885 154.32 137.578 153.867L138.328 153C138.948 153.766 139.706 154.148 140.602 154.148C141.305 154.148 141.852 153.951 142.242 153.555C142.638 153.159 142.836 152.602 142.836 151.883V151.156C142.258 151.823 141.469 152.156 140.469 152.156C139.479 152.156 138.677 151.758 138.062 150.961C137.453 150.164 137.148 149.078 137.148 147.703ZM138.602 147.867C138.602 148.82 138.797 149.57 139.188 150.117C139.578 150.659 140.125 150.93 140.828 150.93C141.74 150.93 142.409 150.516 142.836 149.688V145.828C142.393 145.021 141.729 144.617 140.844 144.617C140.141 144.617 139.591 144.891 139.195 145.438C138.799 145.984 138.602 146.794 138.602 147.867ZM150.562 144.844C150.344 144.807 150.107 144.789 149.852 144.789C148.904 144.789 148.26 145.193 147.922 146V152H146.477V143.547H147.883L147.906 144.523C148.38 143.768 149.052 143.391 149.922 143.391C150.203 143.391 150.417 143.427 150.562 143.5V144.844ZM153.469 152H152.023V143.547H153.469V152ZM151.906 141.305C151.906 141.07 151.977 140.872 152.117 140.711C152.263 140.549 152.477 140.469 152.758 140.469C153.039 140.469 153.253 140.549 153.398 140.711C153.544 140.872 153.617 141.07 153.617 141.305C153.617 141.539 153.544 141.734 153.398 141.891C153.253 142.047 153.039 142.125 152.758 142.125C152.477 142.125 152.263 142.047 152.117 141.891C151.977 141.734 151.906 141.539 151.906 141.305ZM157.75 141.5V143.547H159.328V144.664H157.75V149.906C157.75 150.245 157.82 150.5 157.961 150.672C158.102 150.839 158.341 150.922 158.68 150.922C158.846 150.922 159.076 150.891 159.367 150.828V152C158.987 152.104 158.617 152.156 158.258 152.156C157.612 152.156 157.125 151.961 156.797 151.57C156.469 151.18 156.305 150.625 156.305 149.906V144.664H154.766V143.547H156.305V141.5H157.75ZM163.789 149.883L165.758 143.547H167.305L163.906 153.305C163.38 154.711 162.544 155.414 161.398 155.414L161.125 155.391L160.586 155.289V154.117L160.977 154.148C161.466 154.148 161.846 154.049 162.117 153.852C162.393 153.654 162.62 153.292 162.797 152.766L163.117 151.906L160.102 143.547H161.68L163.789 149.883Z" fill="#2B334E"/>
<path fill-rule="evenodd" clip-rule="evenodd" d="M123.173 80.2128C125.498 81.0107 127.35 82.9566 128.125 85.4232L128.208 85.6732C129.096 88.2899 128.735 91.1066 127.248 93.2191C126.977 93.6024 127.037 94.0607 127.323 94.2774L131.639 97.5566C131.791 97.6712 131.939 97.6712 132.031 97.6607C132.135 97.6441 132.287 97.5878 132.41 97.4128L132.891 96.7295C134.327 94.6941 136.639 93.4378 139.081 93.367C141.823 93.3107 144.285 94.567 145.819 96.7816L146.064 97.1378C146.187 97.3128 146.337 97.3712 146.444 97.3878C146.535 97.4066 146.685 97.4003 146.835 97.2837L151.129 94.0441C151.429 93.8191 151.496 93.3378 151.273 93.0149L150.731 92.2337C149.335 90.217 148.921 87.6003 149.623 85.2357C150.385 82.6607 152.325 80.6232 154.814 79.7899L155.233 79.6482C155.569 79.5378 155.75 79.1212 155.631 78.7378L153.991 73.4857C153.914 73.2399 153.756 73.1295 153.669 73.0837C153.544 73.0191 153.408 73.0087 153.279 73.0524L152.571 73.2878C150.148 74.0941 147.475 73.6566 145.423 72.1128L145.198 71.9441C143.248 70.4774 142.087 68.1128 142.096 65.6212L142.1 65.0378C142.1 64.7607 141.969 64.5878 141.889 64.5087C141.814 64.4316 141.687 64.3399 141.508 64.3399L136.202 64.3337C135.877 64.3337 135.612 64.6441 135.61 65.0274L135.608 65.5316C135.598 68.0628 134.412 70.4712 132.437 71.9774L132.169 72.1816C129.996 73.8337 127.162 74.3003 124.596 73.4253C124.498 73.392 124.406 73.3982 124.319 73.4441C124.252 73.4774 124.131 73.5628 124.073 73.7524L122.371 79.1607C122.248 79.5545 122.45 79.9649 122.831 80.0962L123.173 80.2128ZM131.946 101.834C130.933 101.834 129.95 101.504 129.121 100.873L124.804 97.5962C122.741 96.0337 122.285 93.0274 123.785 90.8962C124.564 89.792 124.725 88.3732 124.266 87.0274L124.152 86.6774C123.771 85.4649 122.9 84.5232 121.823 84.1545H121.821L121.481 84.0357C118.943 83.167 117.589 80.4774 118.396 77.9107L120.096 72.5045C120.481 71.2816 121.312 70.2941 122.437 69.7253C123.537 69.1712 124.781 69.0857 125.943 69.4837C127.191 69.9087 128.577 69.6774 129.646 68.8649L129.914 68.6607C130.864 67.9357 131.437 66.7587 131.441 65.5149L131.443 65.0128C131.454 62.3378 133.589 60.167 136.2 60.167H136.208L141.514 60.1732C142.768 60.1753 143.952 60.6712 144.843 61.5691C145.766 62.4962 146.271 63.7357 146.266 65.0587L146.262 65.6399C146.258 66.8191 146.798 67.9337 147.708 68.617L147.931 68.7857C148.887 69.5045 150.133 69.7107 151.252 69.3357L151.958 69.1003C153.16 68.7003 154.439 68.7982 155.566 69.3753C156.723 69.967 157.577 70.9857 157.968 72.2462L159.608 77.4982C160.4 80.0357 159.029 82.7732 156.556 83.6003L156.137 83.7399C154.937 84.1441 153.993 85.1441 153.616 86.4191C153.271 87.5878 153.471 88.8732 154.156 89.8607L154.698 90.642C156.185 92.792 155.71 95.8087 153.639 97.3691L149.346 100.611C148.314 101.39 147.05 101.704 145.781 101.502C144.502 101.296 143.385 100.588 142.637 99.5087L142.391 99.1503C141.662 98.1003 140.496 97.4628 139.273 97.5316C138.048 97.5649 136.989 98.1462 136.298 99.1295L135.816 99.8128C135.062 100.882 133.943 101.579 132.671 101.779C132.427 101.817 132.185 101.834 131.946 101.834ZM139 77.8752C137.277 77.8752 135.875 79.2773 135.875 81.0002C135.875 82.7231 137.277 84.1252 139 84.1252C140.723 84.1252 142.125 82.7231 142.125 81.0002C142.125 79.2773 140.723 77.8752 139 77.8752ZM139 88.2919C134.979 88.2919 131.708 85.0211 131.708 81.0002C131.708 76.9794 134.979 73.7086 139 73.7086C143.021 73.7086 146.292 76.9794 146.292 81.0002C146.292 85.0211 143.021 88.2919 139 88.2919Z" fill="#FF5364"/>
<mask id="mask0" mask-type="alpha" maskUnits="userSpaceOnUse" x="118" y="60" width="42" height="42">
<path fill-rule="evenodd" clip-rule="evenodd" d="M123.173 80.2128C125.498 81.0107 127.35 82.9566 128.125 85.4232L128.208 85.6732C129.096 88.2899 128.735 91.1066 127.248 93.2191C126.977 93.6024 127.037 94.0607 127.323 94.2774L131.639 97.5566C131.791 97.6712 131.939 97.6712 132.031 97.6607C132.135 97.6441 132.287 97.5878 132.41 97.4128L132.891 96.7295C134.327 94.6941 136.639 93.4378 139.081 93.367C141.823 93.3107 144.285 94.567 145.819 96.7816L146.064 97.1378C146.187 97.3128 146.337 97.3712 146.444 97.3878C146.535 97.4066 146.685 97.4003 146.835 97.2837L151.129 94.0441C151.429 93.8191 151.496 93.3378 151.273 93.0149L150.731 92.2337C149.335 90.217 148.921 87.6003 149.623 85.2357C150.385 82.6607 152.325 80.6232 154.814 79.7899L155.233 79.6482C155.569 79.5378 155.75 79.1212 155.631 78.7378L153.991 73.4857C153.914 73.2399 153.756 73.1295 153.669 73.0837C153.544 73.0191 153.408 73.0087 153.279 73.0524L152.571 73.2878C150.148 74.0941 147.475 73.6566 145.423 72.1128L145.198 71.9441C143.248 70.4774 142.087 68.1128 142.096 65.6212L142.1 65.0378C142.1 64.7607 141.969 64.5878 141.889 64.5087C141.814 64.4316 141.687 64.3399 141.508 64.3399L136.202 64.3337C135.877 64.3337 135.612 64.6441 135.61 65.0274L135.608 65.5316C135.598 68.0628 134.412 70.4712 132.437 71.9774L132.169 72.1816C129.996 73.8337 127.162 74.3003 124.596 73.4253C124.498 73.392 124.406 73.3982 124.319 73.4441C124.252 73.4774 124.131 73.5628 124.073 73.7524L122.371 79.1607C122.248 79.5545 122.45 79.9649 122.831 80.0962L123.173 80.2128ZM131.946 101.834C130.933 101.834 129.95 101.504 129.121 100.873L124.804 97.5962C122.741 96.0337 122.285 93.0274 123.785 90.8962C124.564 89.792 124.725 88.3732 124.266 87.0274L124.152 86.6774C123.771 85.4649 122.9 84.5232 121.823 84.1545H121.821L121.481 84.0357C118.943 83.167 117.589 80.4774 118.396 77.9107L120.096 72.5045C120.481 71.2816 121.312 70.2941 122.437 69.7253C123.537 69.1712 124.781 69.0857 125.943 69.4837C127.191 69.9087 128.577 69.6774 129.646 68.8649L129.914 68.6607C130.864 67.9357 131.437 66.7587 131.441 65.5149L131.443 65.0128C131.454 62.3378 133.589 60.167 136.2 60.167H136.208L141.514 60.1732C142.768 60.1753 143.952 60.6712 144.843 61.5691C145.766 62.4962 146.271 63.7357 146.266 65.0587L146.262 65.6399C146.258 66.8191 146.798 67.9337 147.708 68.617L147.931 68.7857C148.887 69.5045 150.133 69.7107 151.252 69.3357L151.958 69.1003C153.16 68.7003 154.439 68.7982 155.566 69.3753C156.723 69.967 157.577 70.9857 157.968 72.2462L159.608 77.4982C160.4 80.0357 159.029 82.7732 156.556 83.6003L156.137 83.7399C154.937 84.1441 153.993 85.1441 153.616 86.4191C153.271 87.5878 153.471 88.8732 154.156 89.8607L154.698 90.642C156.185 92.792 155.71 95.8087 153.639 97.3691L149.346 100.611C148.314 101.39 147.05 101.704 145.781 101.502C144.502 101.296 143.385 100.588 142.637 99.5087L142.391 99.1503C141.662 98.1003 140.496 97.4628 139.273 97.5316C138.048 97.5649 136.989 98.1462 136.298 99.1295L135.816 99.8128C135.062 100.882 133.943 101.579 132.671 101.779C132.427 101.817 132.185 101.834 131.946 101.834ZM139 77.8752C137.277 77.8752 135.875 79.2773 135.875 81.0002C135.875 82.7231 137.277 84.1252 139 84.1252C140.723 84.1252 142.125 82.7231 142.125 81.0002C142.125 79.2773 140.723 77.8752 139 77.8752ZM139 88.2919C134.979 88.2919 131.708 85.0211 131.708 81.0002C131.708 76.9794 134.979 73.7086 139 73.7086C143.021 73.7086 146.292 76.9794 146.292 81.0002C146.292 85.0211 143.021 88.2919 139 88.2919Z" fill="white"/>
</mask>
<g mask="url(#mask0)">
<rect x="114" y="56" width="50" height="50" fill="#FF5364"/>
</g>
<defs>
<filter id="filter0_d" x="0" y="0" width="287" height="263" filterUnits="userSpaceOnUse" color-interpolation-filters="sRGB">
<feFlood flood-opacity="0" result="BackgroundImageFix"/>
<feColorMatrix in="SourceAlpha" type="matrix" values="0 0 0 0 0 0 0 0 0 0 0 0 0 0 0 0 0 0 127 0"/>
<feOffset dx="5" dy="20"/>
<feGaussianBlur stdDeviation="25"/>
<feColorMatrix type="matrix" values="0 0 0 0 0.290196 0 0 0 0 0.47451 0 0 0 0 0.827451 0 0 0 0.2 0"/>
<feBlend mode="normal" in2="BackgroundImageFix" result="effect1_dropShadow"/>
<feBlend mode="normal" in="SourceGraphic" in2="effect1_dropShadow" result="shape"/>
</filter>
</defs>
</svg>
