<svg width="178" height="55" viewBox="0 0 178 55" fill="none" xmlns="http://www.w3.org/2000/svg">
<path d="M172.438 54.0039H5.5625C2.50312 54.0039 0 51.5737 0 48.6035V5.40039C0 2.43018 2.50312 0 5.5625 0H172.438C175.497 0 178 2.43018 178 5.40039V48.6035C178 51.5737 175.497 54.0039 172.438 54.0039Z" fill="black"/>
<path d="M37.5467 26.7319C37.5467 22.5466 41.1624 20.5214 41.3014 20.3864C39.2155 17.5512 36.1561 17.1462 35.0436 17.0112C32.4014 16.7411 29.7592 18.4963 28.5077 18.4963C27.117 18.4963 25.0311 17.0112 22.8061 17.0112C19.8858 17.0112 17.2436 18.6313 15.7139 21.1965C12.6545 26.3269 14.8795 33.8875 17.7999 38.0728C19.3295 40.098 20.9983 42.3931 23.2233 42.2581C25.4483 42.1231 26.2827 40.908 28.9249 40.908C31.567 40.908 32.2624 42.2581 34.6264 42.2581C36.9905 42.2581 38.5202 40.233 39.9108 38.2078C41.5795 35.9126 42.2748 33.6175 42.2748 33.4824C42.1358 33.3474 37.5467 31.7273 37.5467 26.7319Z" fill="white"/>
<path d="M33.2362 14.3111C34.3487 12.8259 35.183 10.9358 35.044 8.91064C33.3752 9.04565 31.1502 9.99073 30.0377 11.4758C28.9252 12.6909 27.9518 14.7161 28.2299 16.6062C30.0377 16.7412 31.9846 15.6612 33.2362 14.3111Z" fill="white"/>
<path d="M69.2529 41.988H66.1935L64.5248 36.8577H58.6841L57.1545 41.988H54.2341L60.0748 24.5718H63.6904L69.2529 41.988ZM63.9685 34.6975L62.4388 30.1072C62.2998 29.7021 62.0216 28.4871 61.4654 26.8669C61.3263 27.542 61.0482 28.7571 60.631 30.1072L59.1013 34.6975H63.9685Z" fill="white"/>
<path d="M84.1328 35.6424C84.1328 37.8025 83.5765 39.4226 82.325 40.7727C81.2125 41.8528 79.9609 42.3929 78.2922 42.3929C76.6234 42.3929 75.3719 41.8528 74.6766 40.6377V47.2532H71.7563V33.7522C71.7563 32.4021 71.7562 31.052 71.6172 29.5669H74.1203L74.2594 31.5921C75.2328 30.1069 76.6234 29.2969 78.5703 29.2969C80.1 29.2969 81.3515 29.8369 82.325 31.052C83.5765 32.1321 84.1328 33.6172 84.1328 35.6424ZM81.2125 35.6424C81.2125 34.4273 80.9344 33.3472 80.3781 32.6721C79.8219 31.8621 78.9875 31.457 77.875 31.457C77.1797 31.457 76.4844 31.7271 75.9281 32.1321C75.3719 32.5371 74.9547 33.2122 74.8156 33.8872C74.6766 34.2923 74.6766 34.5623 74.6766 34.6973V36.8574C74.6766 37.8025 74.9547 38.4776 75.5109 39.1526C76.0672 39.8277 76.9016 40.0977 77.7359 40.0977C78.8484 40.0977 79.6828 39.6927 80.239 38.8826C80.9344 38.0725 81.2125 36.9925 81.2125 35.6424Z" fill="white"/>
<path d="M99.0122 35.6424C99.0122 37.8025 98.456 39.4226 97.2044 40.7727C96.0919 41.8528 94.8403 42.3929 93.1716 42.3929C91.5028 42.3929 90.2513 41.8528 89.556 40.6377V47.2532H86.6356V33.7522C86.6356 32.4021 86.6356 31.052 86.4966 29.5669H88.9997L89.1388 31.5921C90.1122 30.1069 91.5028 29.2969 93.4497 29.2969C94.9794 29.2969 96.231 29.8369 97.2044 31.052C98.456 32.1321 99.0122 33.6172 99.0122 35.6424ZM96.0919 35.6424C96.0919 34.4273 95.8138 33.3472 95.2575 32.6721C94.7013 31.8621 93.8669 31.457 92.7544 31.457C92.0591 31.457 91.3638 31.7271 90.8075 32.1321C90.2513 32.5371 89.8341 33.2122 89.695 33.8872C89.556 34.2923 89.556 34.5623 89.556 34.6973V36.8574C89.556 37.8025 89.8341 38.4776 90.3903 39.1526C90.9466 39.8277 91.781 40.0977 92.6153 40.0977C93.7278 40.0977 94.5622 39.6927 95.1185 38.8826C95.8138 38.0725 96.0919 36.9925 96.0919 35.6424Z" fill="white"/>
<path d="M115.7 37.1279C115.7 38.613 115.144 39.8281 114.17 40.7731C113.058 41.8532 111.389 42.2582 109.303 42.2582C107.356 42.2582 105.827 41.8532 104.714 41.1781L105.409 38.883C106.661 39.558 108.052 39.9631 109.581 39.9631C110.694 39.9631 111.528 39.693 112.084 39.288C112.641 38.748 112.919 38.2079 112.919 37.3979C112.919 36.7228 112.641 36.0478 112.224 35.6428C111.667 35.1027 110.833 34.6977 109.72 34.2927C106.522 33.2126 104.992 31.4575 104.992 29.2973C104.992 27.8122 105.548 26.7322 106.661 25.7871C107.773 24.842 109.164 24.437 111.111 24.437C112.78 24.437 114.031 24.707 115.144 25.2471L114.449 27.5422C113.475 27.0022 112.363 26.7322 110.972 26.7322C109.998 26.7322 109.164 27.0022 108.608 27.4072C108.191 27.8122 107.913 28.3523 107.913 29.0273C107.913 29.7024 108.191 30.2424 108.747 30.7824C109.164 31.1875 110.138 31.5925 111.389 32.1325C112.919 32.6726 114.031 33.4826 114.866 34.2927C115.283 34.9677 115.7 35.9128 115.7 37.1279Z" fill="white"/>
<path d="M125.156 31.5925H121.958V37.6679C121.958 39.153 122.514 39.963 123.627 39.963C124.183 39.963 124.6 39.963 124.878 39.828L125.017 41.9882C124.461 42.2582 123.766 42.2582 122.792 42.2582C121.68 42.2582 120.706 41.9882 120.15 41.3131C119.455 40.6381 119.177 39.558 119.177 37.9379V31.5925H117.23V29.4323H119.177V27.1372L121.958 26.3271V29.4323H125.156V31.5925Z" fill="white"/>
<path d="M139.479 35.6426C139.479 37.5327 138.923 39.1528 137.811 40.3679C136.559 41.583 135.029 42.258 133.083 42.258C131.136 42.258 129.606 41.583 128.493 40.3679C127.381 39.1528 126.825 37.6677 126.825 35.7776C126.825 33.8874 127.381 32.2673 128.633 31.0522C129.745 29.8372 131.414 29.1621 133.361 29.1621C135.308 29.1621 136.837 29.8372 137.95 31.0522C138.923 32.2673 139.479 33.7524 139.479 35.6426ZM136.42 35.7776C136.42 34.5625 136.142 33.6174 135.586 32.8074C135.029 31.8623 134.056 31.3223 132.943 31.3223C131.831 31.3223 130.858 31.8623 130.301 32.8074C129.745 33.6174 129.467 34.6975 129.467 35.7776C129.467 36.9926 129.745 37.9377 130.301 38.7478C130.858 39.6928 131.831 40.2329 132.943 40.2329C134.056 40.2329 134.89 39.6928 135.586 38.7478C136.142 37.9377 136.42 36.8576 136.42 35.7776Z" fill="white"/>
<path d="M148.797 31.8625C148.519 31.8625 148.241 31.7275 147.823 31.7275C146.85 31.7275 146.016 32.1326 145.459 32.8076C145.042 33.4827 144.764 34.2927 144.764 35.2378V41.8533H141.844V33.2126C141.844 31.7275 141.844 30.5125 141.705 29.2974H144.208L144.347 31.7275H144.486C144.764 30.9175 145.32 30.2424 145.876 29.7024C146.572 29.2974 147.267 29.0273 147.962 29.0273C148.241 29.0273 148.519 29.0273 148.658 29.0273V31.8625H148.797Z" fill="white"/>
<path d="M161.591 35.1025C161.591 35.6426 161.591 36.0476 161.451 36.3176H152.83C152.83 37.5327 153.247 38.4778 154.081 39.1528C154.776 39.6928 155.75 40.0979 156.862 40.0979C158.114 40.0979 159.366 39.9629 160.339 39.5578L160.756 41.448C159.505 41.988 158.114 42.258 156.445 42.258C154.498 42.258 152.83 41.718 151.717 40.5029C150.605 39.4228 150.048 37.8027 150.048 35.9126C150.048 34.0224 150.605 32.4023 151.578 31.1872C152.691 29.8372 154.22 29.1621 156.167 29.1621C157.975 29.1621 159.505 29.8372 160.339 31.1872C161.312 32.2673 161.591 33.6174 161.591 35.1025ZM158.948 34.4275C158.948 33.6174 158.809 32.9424 158.392 32.2673C157.836 31.4573 157.141 31.0522 156.167 31.0522C155.194 31.0522 154.498 31.4573 153.942 32.1323C153.525 32.6724 153.247 33.4824 153.108 34.2925H158.948V34.4275Z" fill="white"/>
<path d="M63.1343 13.9058C63.1343 15.3909 62.7172 16.606 61.7437 17.416C60.9093 18.0911 59.6578 18.4961 57.989 18.4961C57.1546 18.4961 56.4593 18.4961 55.9031 18.3611V9.99048C56.5984 9.85547 57.4328 9.85547 58.4062 9.85547C59.9359 9.85547 61.0484 10.1255 61.8828 10.8005C62.5781 11.4756 63.1343 12.5557 63.1343 13.9058ZM61.6047 13.9058C61.6047 12.9607 61.3265 12.1506 60.7703 11.6106C60.214 11.0706 59.3796 10.8005 58.4062 10.8005C57.989 10.8005 57.5718 10.8005 57.2937 10.9356V17.281C57.4328 17.281 57.85 17.281 58.2671 17.281C59.3796 17.281 60.214 17.011 60.7703 16.471C61.3265 15.9309 61.6047 14.9858 61.6047 13.9058Z" fill="white"/>
<path d="M70.9219 15.2563C70.9219 16.2014 70.6438 17.0114 70.0875 17.5515C69.5313 18.2265 68.6969 18.4965 67.7234 18.4965C66.75 18.4965 66.0547 18.2265 65.4984 17.5515C64.9422 17.0114 64.6641 16.2014 64.6641 15.2563C64.6641 14.3113 64.9422 13.5012 65.4984 12.9612C66.0547 12.2861 66.8891 12.0161 67.8625 12.0161C68.8359 12.0161 69.5313 12.2861 70.0875 12.9612C70.6438 13.5012 70.9219 14.3113 70.9219 15.2563ZM69.5313 15.2563C69.5313 14.7163 69.3922 14.1763 69.1141 13.7712C68.8359 13.2312 68.4188 13.0962 67.8625 13.0962C67.3063 13.0962 66.8891 13.3662 66.6109 13.7712C66.3328 14.1763 66.1938 14.7163 66.1938 15.2563C66.1938 15.7964 66.3328 16.3364 66.6109 16.7414C66.8891 17.2814 67.3063 17.4165 67.8625 17.4165C68.4188 17.4165 68.8359 17.1464 69.1141 16.6064C69.3922 16.3364 69.5313 15.7964 69.5313 15.2563Z" fill="white"/>
<path d="M81.6294 12.1509L79.6826 18.3613H78.431L77.5966 15.6611C77.3185 14.9861 77.1794 14.311 77.0404 13.636C76.9013 14.311 76.7622 14.9861 76.4841 15.6611L75.6498 18.3613H74.3982L72.3123 12.1509H73.7029L74.3982 15.1211C74.5373 15.7961 74.6763 16.4712 74.8154 17.1462C74.9544 16.6062 75.0935 15.9312 75.3716 15.1211L76.206 12.1509H77.3185L78.1529 14.9861C78.431 15.6611 78.5701 16.3362 78.7091 17.0112C78.8482 16.3362 78.9872 15.6611 79.1263 14.9861L79.9607 12.1509H81.6294Z" fill="white"/>
<path d="M88.861 18.3614H87.4703V14.8511C87.4703 13.771 87.0531 13.231 86.2188 13.231C85.8016 13.231 85.5235 13.366 85.2453 13.636C84.9672 13.906 84.8281 14.311 84.8281 14.7161V18.3614H83.4375V13.906C83.4375 13.366 83.4375 12.8259 83.4375 12.1509H84.6891V13.096C84.8281 12.8259 85.1063 12.5559 85.3844 12.2859C85.8016 12.0159 86.2188 11.8809 86.636 11.8809C87.1922 11.8809 87.7485 12.0159 88.1657 12.4209C88.7219 12.8259 88.861 13.501 88.861 14.4461V18.3614Z" fill="white"/>
<path d="M92.7547 18.3612H91.364V9.31543H92.7547V18.3612Z" fill="white"/>
<path d="M101.098 15.2563C101.098 16.2014 100.82 17.0114 100.264 17.5515C99.7078 18.2265 98.8734 18.4965 97.9 18.4965C96.9265 18.4965 96.2312 18.2265 95.675 17.5515C95.1187 17.0114 94.8406 16.2014 94.8406 15.2563C94.8406 14.3113 95.1187 13.5012 95.675 12.9612C96.2312 12.2861 97.0656 12.0161 98.039 12.0161C99.0125 12.0161 99.7078 12.2861 100.264 12.9612C100.82 13.5012 101.098 14.3113 101.098 15.2563ZM99.7078 15.2563C99.7078 14.7163 99.5687 14.1763 99.2906 13.7712C99.0125 13.2312 98.5953 13.0962 98.039 13.0962C97.4828 13.0962 97.0656 13.3662 96.7875 13.7712C96.5093 14.1763 96.3703 14.7163 96.3703 15.2563C96.3703 15.7964 96.5093 16.3364 96.7875 16.7414C97.0656 17.2814 97.4828 17.4165 98.039 17.4165C98.5953 17.4165 99.0125 17.1464 99.2906 16.6064C99.5687 16.3364 99.7078 15.7964 99.7078 15.2563Z" fill="white"/>
<path d="M107.913 18.3615H106.661L106.522 17.6865C106.105 18.2265 105.41 18.4965 104.714 18.4965C104.158 18.4965 103.602 18.3615 103.324 17.9565C103.045 17.5515 102.767 17.1464 102.767 16.7414C102.767 15.9314 103.045 15.3913 103.741 14.9863C104.436 14.5813 105.27 14.4463 106.522 14.4463V14.3113C106.522 13.5012 106.105 13.0962 105.27 13.0962C104.575 13.0962 104.158 13.2312 103.602 13.5012L103.324 12.5561C103.88 12.1511 104.575 12.0161 105.549 12.0161C107.217 12.0161 108.052 12.8262 108.052 14.5813V16.8764C107.913 17.5515 107.913 17.9565 107.913 18.3615ZM106.522 16.2014V15.2563C104.992 15.2563 104.158 15.6613 104.158 16.4714C104.158 16.7414 104.297 17.0114 104.436 17.1464C104.575 17.2815 104.853 17.4165 105.131 17.4165C105.41 17.4165 105.688 17.2815 105.966 17.1464C106.244 17.0114 106.383 16.7414 106.522 16.4714C106.522 16.4714 106.522 16.3364 106.522 16.2014Z" fill="white"/>
<path d="M115.978 18.3613H114.726V17.4162C114.309 18.2263 113.614 18.4963 112.64 18.4963C111.806 18.4963 111.25 18.2262 110.693 17.6862C110.137 17.1462 109.998 16.3361 109.998 15.3911C109.998 14.446 110.276 13.636 110.832 12.9609C111.389 12.4209 112.084 12.1509 112.779 12.1509C113.614 12.1509 114.17 12.4209 114.587 12.9609V9.45068H115.978V16.7412C115.978 17.2812 115.978 17.8212 115.978 18.3613ZM114.587 15.7961V14.716C114.587 14.581 114.587 14.446 114.587 14.311C114.448 14.041 114.309 13.771 114.031 13.5009C113.753 13.2309 113.475 13.2309 113.057 13.2309C112.501 13.2309 112.084 13.5009 111.806 13.906C111.528 14.311 111.389 14.851 111.389 15.5261C111.389 16.2011 111.528 16.6061 111.806 17.0112C112.084 17.4162 112.501 17.6862 113.057 17.6862C113.475 17.6862 113.892 17.5512 114.17 17.1462C114.448 16.6061 114.587 16.2011 114.587 15.7961Z" fill="white"/>
<path d="M128.076 15.2563C128.076 16.2014 127.798 17.0114 127.242 17.5515C126.686 18.2265 125.851 18.4965 124.878 18.4965C123.905 18.4965 123.209 18.2265 122.653 17.5515C122.097 17.0114 121.819 16.2014 121.819 15.2563C121.819 14.3113 122.097 13.5012 122.653 12.9612C123.209 12.2861 124.044 12.0161 125.017 12.0161C125.99 12.0161 126.686 12.2861 127.242 12.9612C127.798 13.5012 128.076 14.3113 128.076 15.2563ZM126.547 15.2563C126.547 14.7163 126.408 14.1763 126.13 13.7712C125.851 13.2312 125.434 13.0962 124.878 13.0962C124.322 13.0962 123.905 13.3662 123.626 13.7712C123.348 14.1763 123.209 14.7163 123.209 15.2563C123.209 15.7964 123.348 16.3364 123.626 16.7414C123.905 17.2814 124.322 17.4165 124.878 17.4165C125.434 17.4165 125.851 17.1464 126.13 16.6064C126.408 16.3364 126.547 15.7964 126.547 15.2563Z" fill="white"/>
<path d="M135.725 18.3614H134.334V14.8511C134.334 13.771 133.917 13.231 133.083 13.231C132.665 13.231 132.387 13.366 132.109 13.636C131.831 13.906 131.692 14.311 131.692 14.7161V18.3614H130.301V13.906C130.301 13.366 130.301 12.8259 130.301 12.1509H131.553V13.096C131.692 12.8259 131.97 12.5559 132.248 12.2859C132.665 12.0159 133.083 11.8809 133.5 11.8809C134.056 11.8809 134.612 12.0159 135.029 12.4209C135.586 12.8259 135.725 13.501 135.725 14.4461V18.3614Z" fill="white"/>
<path d="M145.181 13.2312H143.652V16.2014C143.652 17.0114 143.93 17.2814 144.486 17.2814C144.764 17.2814 144.903 17.2814 145.181 17.2814V18.3615C144.903 18.4965 144.486 18.4965 144.069 18.4965C143.512 18.4965 143.095 18.3615 142.817 17.9565C142.539 17.6865 142.4 17.0114 142.4 16.3364V13.2312H141.427V12.1511H142.4V11.071L143.791 10.666V12.1511H145.32V13.2312H145.181Z" fill="white"/>
<path d="M152.691 18.3612H151.3V14.8509C151.3 13.7708 150.883 13.2308 150.048 13.2308C149.353 13.2308 148.936 13.5008 148.658 14.1758C148.658 14.3108 148.658 14.4459 148.658 14.7159V18.3612H147.267V9.31543H148.658V13.0957C149.075 12.4207 149.77 12.0157 150.605 12.0157C151.161 12.0157 151.717 12.1507 151.995 12.5557C152.412 12.9607 152.691 13.7708 152.691 14.5809V18.3612Z" fill="white"/>
<path d="M160.339 14.9861C160.339 15.2561 160.339 15.3911 160.339 15.6611H156.167C156.167 16.3362 156.445 16.7412 156.723 17.0112C157.14 17.2812 157.558 17.4162 158.114 17.4162C158.809 17.4162 159.365 17.2812 159.783 17.1462L160.061 18.0913C159.505 18.3613 158.809 18.4963 157.975 18.4963C157.001 18.4963 156.167 18.2263 155.611 17.6863C155.055 17.1462 154.776 16.3362 154.776 15.3911C154.776 14.446 155.055 13.636 155.611 13.0959C156.167 12.4209 156.862 12.1509 157.836 12.1509C158.809 12.1509 159.505 12.4209 159.922 13.0959C160.2 13.501 160.339 14.176 160.339 14.9861ZM159.087 14.581C159.087 14.176 158.948 13.771 158.809 13.501C158.531 13.0959 158.253 12.9609 157.697 12.9609C157.28 12.9609 156.862 13.0959 156.584 13.501C156.306 13.771 156.167 14.176 156.167 14.581H159.087Z" fill="white"/>
</svg>
