<svg width="32" height="32" viewBox="0 0 32 32" fill="none" xmlns="http://www.w3.org/2000/svg">
<path fill-rule="evenodd" clip-rule="evenodd" d="M13.5619 24.5951C13.9513 24.5951 14.338 24.4307 14.602 24.1122L21.0393 16.3454C21.4366 15.8651 21.4313 15.179 21.0246 14.7052L14.358 6.93838C13.8873 6.38952 13.0459 6.31574 12.4793 6.77269C11.9139 7.22964 11.8379 8.04645 12.3099 8.59531L18.2766 15.548L12.5233 22.4889C12.062 23.0456 12.1526 23.8611 12.7273 24.309C12.9726 24.5019 13.2686 24.5951 13.5619 24.5951Z" fill="#656668"/>
<mask id="mask0" mask-type="alpha" maskUnits="userSpaceOnUse" x="12" y="6" width="10" height="19">
<path fill-rule="evenodd" clip-rule="evenodd" d="M13.5619 24.5951C13.9513 24.5951 14.338 24.4307 14.602 24.1122L21.0393 16.3454C21.4366 15.8651 21.4313 15.179 21.0246 14.7052L14.358 6.93838C13.8873 6.38952 13.0459 6.31574 12.4793 6.77269C11.9139 7.22964 11.8379 8.04645 12.3099 8.59531L18.2766 15.548L12.5233 22.4889C12.062 23.0456 12.1526 23.8611 12.7273 24.309C12.9726 24.5019 13.2686 24.5951 13.5619 24.5951Z" fill="white"/>
</mask>
<g mask="url(#mask0)">
<rect width="32" height="31.0675" transform="matrix(-1 0 0 1 32 0)" fill="#656668"/>
</g>
</svg>
