<svg width="32" height="32" viewBox="0 0 32 32" fill="none" xmlns="http://www.w3.org/2000/svg">
<path fill-rule="evenodd" clip-rule="evenodd" d="M18.4381 24.5951C18.0487 24.5951 17.662 24.4307 17.398 24.1122L10.9607 16.3454C10.5634 15.8651 10.5687 15.179 10.9754 14.7052L17.642 6.93838C18.1127 6.38952 18.9541 6.31574 19.5207 6.77269C20.0861 7.22964 20.1621 8.04645 19.6901 8.59531L13.7234 15.548L19.4767 22.4889C19.938 23.0456 19.8474 23.8611 19.2727 24.309C19.0274 24.5019 18.7314 24.5951 18.4381 24.5951Z" fill="#656668"/>
<mask id="mask0" mask-type="alpha" maskUnits="userSpaceOnUse" x="10" y="6" width="10" height="19">
<path fill-rule="evenodd" clip-rule="evenodd" d="M18.4381 24.5951C18.0487 24.5951 17.662 24.4307 17.398 24.1122L10.9607 16.3454C10.5634 15.8651 10.5687 15.179 10.9754 14.7052L17.642 6.93838C18.1127 6.38952 18.9541 6.31574 19.5207 6.77269C20.0861 7.22964 20.1621 8.04645 19.6901 8.59531L13.7234 15.548L19.4767 22.4889C19.938 23.0456 19.8474 23.8611 19.2727 24.309C19.0274 24.5019 18.7314 24.5951 18.4381 24.5951Z" fill="white"/>
</mask>
<g mask="url(#mask0)">
<rect width="32" height="31.0675" fill="#656668"/>
</g>
</svg>
