<svg width="24" height="24" viewBox="0 0 24 24" fill="none" xmlns="http://www.w3.org/2000/svg">
<path fill-rule="evenodd" clip-rule="evenodd" d="M11.9999 15.5338C11.7719 15.5338 11.5449 15.459 11.3599 15.3086L5.35991 10.4543C4.93591 10.1116 4.87791 9.49894 5.23191 9.0873C5.58491 8.67566 6.21491 8.62032 6.63991 8.96303L12.0109 13.3086L17.3729 9.11934C17.8029 8.78342 18.4329 8.84944 18.7789 9.26691C19.1249 9.68438 19.0569 10.295 18.6269 10.6319L12.6269 15.3192C12.4439 15.462 12.2219 15.5338 11.9999 15.5338Z" fill="#656668"/>
<mask id="mask0" mask-type="alpha" maskUnits="userSpaceOnUse" x="5" y="8" width="14" height="8">
<path fill-rule="evenodd" clip-rule="evenodd" d="M11.9999 15.5338C11.7719 15.5338 11.5449 15.459 11.3599 15.3086L5.35991 10.4543C4.93591 10.1116 4.87791 9.49894 5.23191 9.0873C5.58491 8.67566 6.21491 8.62032 6.63991 8.96303L12.0109 13.3086L17.3729 9.11934C17.8029 8.78342 18.4329 8.84944 18.7789 9.26691C19.1249 9.68438 19.0569 10.295 18.6269 10.6319L12.6269 15.3192C12.4439 15.462 12.2219 15.5338 11.9999 15.5338Z" fill="white"/>
</mask>
<g mask="url(#mask0)">
<rect width="24" height="23.3006" fill="#656668"/>
</g>
</svg>
