<svg width="55" height="54" viewBox="0 0 55 54" fill="none" xmlns="http://www.w3.org/2000/svg">
<g clip-path="url(#clip0)">
<path d="M28.7324 0.00415396L2.84448 0.00415039V8.19262C2.84454 8.95794 2.98855 9.71673 3.26931 10.4311C3.61531 11.3108 3.79275 12.2454 3.79276 13.1881V47.4735C3.79261 47.9659 3.99252 48.4381 4.34845 48.7861L9.48241 53.8085H35.0859C35.6096 53.8085 36.0341 53.3932 36.0341 52.8808V17.6297L29.6247 0.610844C29.487 0.245413 29.1306 0.00307738 28.7324 0.00415396Z" fill="#2C3E50"/>
<path d="M36.0334 48.9379V52.8804C36.0334 53.3928 35.6089 53.8081 35.0851 53.8081H9.48169V17.6293H36.0334V48.9379Z" fill="#8977C8"/>
<path d="M36.0341 17.6297H9.48241L2.84448 0.00415039H28.7324C29.1295 0.0042415 29.4845 0.246368 29.6219 0.610841L36.0341 17.6297Z" fill="#6654A4"/>
<path d="M29.9172 13.9187H12.4594C12.2598 13.9186 12.0816 13.7962 12.0137 13.6126L8.51458 4.33595C8.46205 4.19383 8.4836 4.03559 8.57231 3.91188C8.66103 3.78816 8.80579 3.71448 8.96027 3.71442H26.418C26.6177 3.7145 26.7958 3.83689 26.8637 4.02054L27.6887 6.20055L30.3629 13.2972C30.4154 13.4393 30.3938 13.5975 30.3051 13.7212C30.2164 13.8449 30.0716 13.9186 29.9172 13.9187Z" fill="#CBC2EC"/>
<path d="M9.48241 17.6297V53.8085L4.34845 48.7861C3.99275 48.4383 3.79287 47.9664 3.79276 47.4744V13.1881C3.79283 12.2908 3.63237 11.4004 3.31862 10.5572C3.00466 9.71347 2.84419 8.82244 2.84448 7.92452L2.84448 0.00415039L9.48241 17.6297Z" fill="#4D3E81"/>
<path d="M13.276 9.28093C12.8925 9.28085 12.5468 9.05484 12.4001 8.70825C12.2533 8.36166 12.3344 7.96272 12.6056 7.69742L14.5021 5.8421C14.7402 5.60094 15.0928 5.50423 15.4243 5.58912C15.7559 5.67402 16.0148 5.92731 16.1016 6.25165C16.1883 6.57599 16.0895 6.9209 15.843 7.15381L13.9464 9.00913C13.7686 9.18311 13.5275 9.28088 13.276 9.28093Z" fill="#DDF6FC"/>
<path d="M15.1722 12.0639C14.7887 12.0638 14.4431 11.8378 14.2963 11.4912C14.1496 11.1446 14.2307 10.7457 14.5018 10.4804L19.2432 5.8421C19.4813 5.60094 19.8338 5.50423 20.1654 5.58912C20.4969 5.67402 20.7558 5.92731 20.8426 6.25165C20.9294 6.57599 20.8305 6.9209 20.584 7.15381L15.8427 11.7921C15.6649 11.9661 15.4237 12.0639 15.1722 12.0639Z" fill="#DDF6FC"/>
<path d="M25.6028 23.196H19.9131C19.3894 23.196 18.9648 23.6114 18.9648 24.1237V25.979C18.9648 26.4914 19.3894 26.9067 19.9131 26.9067H25.6028C26.1265 26.9067 26.5511 26.4914 26.5511 25.979V24.1237C26.5511 23.6114 26.1265 23.196 25.6028 23.196Z" fill="#4D3E81"/>
<path d="M29.9171 13.9186H17.1533C18.7085 11.4974 22.0749 7.42501 27.6887 6.2005L30.3628 13.2971C30.4153 13.4392 30.3938 13.5975 30.3051 13.7212C30.2163 13.8449 30.0716 13.9186 29.9171 13.9186Z" fill="#BEB3E9"/>
<path d="M49.31 21.3409H33.1893C31.6182 21.3409 30.3445 22.5869 30.3445 24.1239V47.3154C30.3445 48.8524 31.6182 50.0984 33.1893 50.0984H49.31C50.8811 50.0984 52.1548 48.8524 52.1548 47.3154V24.1239C52.1548 22.5869 50.8811 21.3409 49.31 21.3409Z" fill="#CBC2EC"/>
<path d="M42.6721 21.3409H47.4135V50.0984H42.6721V21.3409Z" fill="#6654A4"/>
<path d="M36.5079 41.7492C37.8172 41.7492 38.8786 40.7109 38.8786 39.4301C38.8786 38.1492 37.8172 37.1109 36.5079 37.1109C35.1986 37.1109 34.1372 38.1492 34.1372 39.4301C34.1372 40.7109 35.1986 41.7492 36.5079 41.7492Z" fill="#6654A4"/>
<path d="M36.5079 46.387C37.8172 46.387 38.8786 45.3487 38.8786 44.0679C38.8786 42.7871 37.8172 41.7487 36.5079 41.7487C35.1986 41.7487 34.1372 42.7871 34.1372 44.0679C34.1372 45.3487 35.1986 46.387 36.5079 46.387Z" fill="#DDF6FC"/>
</g>
<defs>
<clipPath id="clip0">
<rect width="55" height="53.8043" fill="white" transform="translate(0 0.00415039)"/>
</clipPath>
</defs>
</svg>
