<svg width="205" height="26" viewBox="0 0 205 26" fill="none" xmlns="http://www.w3.org/2000/svg">
<path d="M22.8541 13.832C22.8541 7.144 17.9581 2.44 11.6541 2.44C5.38213 2.44 0.454125 7.144 0.454125 13.832C0.454125 20.52 5.38213 25.224 11.6541 25.224C17.9581 25.224 22.8541 20.52 22.8541 13.832ZM3.43013 13.832C3.43013 8.36 6.95013 4.968 11.6541 4.968C16.3581 4.968 19.8781 8.36 19.8781 13.832C19.8781 19.272 16.3581 22.696 11.6541 22.696C6.95013 22.696 3.43013 19.272 3.43013 13.832ZM39.5304 25H42.4104V14.664C42.4104 9.64 39.3064 7.144 35.2424 7.144C32.8744 7.144 30.7624 8.136 29.6104 9.96V7.464H26.6984V25H29.6104V15.304C29.6104 11.528 31.6584 9.672 34.6344 9.672C37.5784 9.672 39.5304 11.496 39.5304 15.08V25ZM47.1671 25H50.0791V1.32H47.1671V25ZM55.0421 25H57.9541V7.464H55.0421V25ZM56.5461 4.616C57.6021 4.616 58.4661 3.752 58.4661 2.632C58.4661 1.512 57.6021 0.647999 56.5461 0.647999C55.4261 0.647999 54.5621 1.512 54.5621 2.632C54.5621 3.752 55.4261 4.616 56.5461 4.616ZM75.7491 25H78.6291V14.664C78.6291 9.64 75.5251 7.144 71.4611 7.144C69.0931 7.144 66.9811 8.136 65.8291 9.96V7.464H62.9171V25H65.8291V15.304C65.8291 11.528 67.8771 9.672 70.8531 9.672C73.7971 9.672 75.7491 11.496 75.7491 15.08V25ZM90.8419 9.64C93.8499 9.64 96.4099 11.528 96.3779 14.952H85.3059C85.6259 11.528 87.9939 9.64 90.8419 9.64ZM99.0339 19.592H95.8979C95.2579 21.48 93.5939 22.824 90.9699 22.824C87.9939 22.824 85.4979 20.872 85.2739 17.32H99.2899C99.3539 16.712 99.3859 16.2 99.3859 15.56C99.3859 10.76 96.0579 7.176 90.9699 7.176C85.8499 7.176 82.2979 10.664 82.2979 16.2C82.2979 21.768 85.9779 25.288 90.9699 25.288C95.3219 25.288 98.1379 22.792 99.0339 19.592ZM110.673 13.832C110.673 20.52 115.569 25.192 121.809 25.192C126.641 25.192 130.481 22.792 132.145 18.504H128.657C127.441 21.16 125.073 22.664 121.809 22.664C117.137 22.664 113.649 19.272 113.649 13.832C113.649 8.36 117.137 4.968 121.809 4.968C125.073 4.968 127.441 6.472 128.657 9.16H132.145C130.481 4.84 126.641 2.408 121.809 2.408C115.569 2.408 110.673 7.144 110.673 13.832ZM135.392 16.168C135.392 21.608 139.008 25.288 143.68 25.288C146.912 25.288 149.184 23.624 150.24 21.736V25H153.184V7.464H150.24V10.664C149.216 8.84 146.976 7.176 143.712 7.176C139.008 7.176 135.392 10.696 135.392 16.168ZM150.24 16.2C150.24 20.328 147.488 22.728 144.288 22.728C141.088 22.728 138.368 20.296 138.368 16.168C138.368 12.04 141.088 9.704 144.288 9.704C147.488 9.704 150.24 12.136 150.24 16.2ZM161.017 15.464C161.017 11.4 163.129 10.152 165.913 10.152H166.681V7.144C163.897 7.144 162.009 8.36 161.017 10.312V7.464H158.105V25H161.017V15.464ZM168.954 16.168C168.954 21.608 172.57 25.288 177.274 25.288C180.474 25.288 182.746 23.656 183.802 21.704V25H186.746V1.32H183.802V10.6C182.586 8.584 180.058 7.176 177.306 7.176C172.57 7.176 168.954 10.696 168.954 16.168ZM183.802 16.2C183.802 20.328 181.05 22.728 177.85 22.728C174.65 22.728 171.93 20.296 171.93 16.168C171.93 12.04 174.65 9.704 177.85 9.704C181.05 9.704 183.802 12.136 183.802 16.2ZM204.275 20.232C204.147 13.96 193.971 16.232 193.971 12.072C193.971 10.664 195.251 9.64 197.395 9.64C199.731 9.64 201.075 10.92 201.203 12.68H204.115C203.923 9.256 201.363 7.176 197.491 7.176C193.587 7.176 191.059 9.384 191.059 12.072C191.059 18.6 201.427 16.328 201.427 20.232C201.427 21.672 200.147 22.824 197.843 22.824C195.379 22.824 193.875 21.544 193.715 19.848H190.707C190.899 23.048 193.779 25.288 197.875 25.288C201.747 25.288 204.275 23.112 204.275 20.232Z" fill="#494B52"/>
</svg>
