<svg width="188" height="63" viewBox="0 0 188 63" fill="none" xmlns="http://www.w3.org/2000/svg">
<path d="M3.80656 10.9952C3.80656 13.7122 5.79556 15.6102 8.33056 15.6102C10.2936 15.6102 11.8536 14.6352 12.5296 12.8932H11.1126C10.6186 13.9722 9.65656 14.5832 8.33056 14.5832C6.43256 14.5832 5.01556 13.2052 5.01556 10.9952C5.01556 8.77223 6.43256 7.39423 8.33056 7.39423C9.65656 7.39423 10.6186 8.00523 11.1126 9.09723H12.5296C11.8536 7.34223 10.2936 6.35423 8.33056 6.35423C5.79556 6.35423 3.80656 8.27823 3.80656 10.9952ZM21.0506 11.9572C21.0506 9.70823 19.4776 8.29123 17.4496 8.29123C15.4346 8.29123 13.8486 9.70823 13.8486 11.9572C13.8486 14.2192 15.3826 15.6492 17.3976 15.6492C19.4256 15.6492 21.0506 14.2192 21.0506 11.9572ZM15.0576 11.9572C15.0576 10.1632 16.1886 9.31823 17.4366 9.31823C18.6586 9.31823 19.8416 10.1632 19.8416 11.9572C19.8416 13.7642 18.6326 14.6092 17.3976 14.6092C16.1626 14.6092 15.0576 13.7642 15.0576 11.9572ZM27.819 15.5322H28.989V11.3332C28.989 9.29223 27.728 8.27823 26.077 8.27823C25.115 8.27823 24.257 8.68123 23.789 9.42223V8.40823H22.606V15.5322H23.789V11.5932C23.789 10.0592 24.621 9.30523 25.83 9.30523C27.026 9.30523 27.819 10.0462 27.819 11.5022V15.5322ZM36.0434 13.5952C35.9914 11.0472 31.8574 11.9702 31.8574 10.2802C31.8574 9.70823 32.3774 9.29223 33.2484 9.29223C34.1974 9.29223 34.7434 9.81223 34.7954 10.5272H35.9784C35.9004 9.13623 34.8604 8.29123 33.2874 8.29123C31.7014 8.29123 30.6744 9.18823 30.6744 10.2802C30.6744 12.9322 34.8864 12.0092 34.8864 13.5952C34.8864 14.1802 34.3664 14.6482 33.4304 14.6482C32.4294 14.6482 31.8184 14.1282 31.7534 13.4392H30.5314C30.6094 14.7392 31.7794 15.6492 33.4434 15.6492C35.0164 15.6492 36.0434 14.7652 36.0434 13.5952ZM44.0314 8.40823H42.8484V12.3212C42.8484 13.8552 42.0294 14.6092 40.8074 14.6092C39.6114 14.6092 38.8184 13.8682 38.8184 12.4252V8.40823H37.6484V12.5812C37.6484 14.6222 38.9354 15.6362 40.5734 15.6362C41.5224 15.6362 42.3934 15.2202 42.8484 14.4792V15.5322H44.0314V8.40823ZM56.3118 15.5322H57.4818V11.3332C57.4818 9.29223 56.2208 8.27823 54.5958 8.27823C53.5038 8.27823 52.4898 8.83723 52.0738 9.86423C51.6058 8.79823 50.6308 8.27823 49.4608 8.27823C48.5248 8.27823 47.6798 8.68123 47.2118 9.43523V8.40823H46.0288V15.5322H47.2118V11.6062C47.2118 10.0722 48.0308 9.30523 49.2268 9.30523C50.3968 9.30523 51.1768 10.0462 51.1768 11.5022V15.5322H52.3468V11.6062C52.3468 10.0722 53.1658 9.30523 54.3618 9.30523C55.5318 9.30523 56.3118 10.0462 56.3118 11.5022V15.5322ZM62.4514 9.29223C63.6734 9.29223 64.7134 10.0592 64.7004 11.4502H60.2024C60.3324 10.0592 61.2944 9.29223 62.4514 9.29223ZM65.7794 13.3352H64.5054C64.2454 14.1022 63.5694 14.6482 62.5034 14.6482C61.2944 14.6482 60.2804 13.8552 60.1894 12.4122H65.8834C65.9094 12.1652 65.9224 11.9572 65.9224 11.6972C65.9224 9.74723 64.5704 8.29123 62.5034 8.29123C60.4234 8.29123 58.9804 9.70823 58.9804 11.9572C58.9804 14.2192 60.4754 15.6492 62.5034 15.6492C64.2714 15.6492 65.4154 14.6352 65.7794 13.3352ZM68.6669 11.6582C68.6669 10.0072 69.5249 9.50023 70.6559 9.50023H70.9679V8.27823C69.8369 8.27823 69.0699 8.77223 68.6669 9.56523V8.40823H67.4839V15.5322H68.6669V11.6582ZM75.3573 11.9572C75.3573 14.2192 76.8003 15.6492 78.8283 15.6492C80.5963 15.6492 81.7533 14.6612 82.1173 13.2442H80.8433C80.5833 14.1412 79.8813 14.6482 78.8283 14.6482C77.5283 14.6482 76.5663 13.7252 76.5663 11.9572C76.5663 10.2152 77.5283 9.29223 78.8283 9.29223C79.8813 9.29223 80.5963 9.83823 80.8433 10.6962H82.1173C81.7533 9.20123 80.5963 8.29123 78.8283 8.29123C76.8003 8.29123 75.3573 9.72123 75.3573 11.9572ZM84.8788 11.6582C84.8788 10.0072 85.7368 9.50023 86.8678 9.50023H87.1798V8.27823C86.0488 8.27823 85.2818 8.77223 84.8788 9.56523V8.40823H83.6958V15.5322H84.8788V11.6582ZM91.5744 9.29223C92.7964 9.29223 93.8364 10.0592 93.8234 11.4502H89.3254C89.4554 10.0592 90.4174 9.29223 91.5744 9.29223ZM94.9024 13.3352H93.6284C93.3684 14.1022 92.6924 14.6482 91.6264 14.6482C90.4174 14.6482 89.4034 13.8552 89.3124 12.4122H95.0064C95.0324 12.1652 95.0454 11.9572 95.0454 11.6972C95.0454 9.74723 93.6934 8.29123 91.6264 8.29123C89.5464 8.29123 88.1034 9.70823 88.1034 11.9572C88.1034 14.2192 89.5984 15.6492 91.6264 15.6492C93.3944 15.6492 94.5384 14.6352 94.9024 13.3352ZM96.165 11.9442C96.165 14.1542 97.634 15.6492 99.532 15.6492C100.845 15.6492 101.768 14.9732 102.197 14.2062V15.5322H103.393V8.40823H102.197V9.70823C101.781 8.96723 100.871 8.29123 99.545 8.29123C97.634 8.29123 96.165 9.72123 96.165 11.9442ZM102.197 11.9572C102.197 13.6342 101.079 14.6092 99.779 14.6092C98.479 14.6092 97.374 13.6212 97.374 11.9442C97.374 10.2672 98.479 9.31823 99.779 9.31823C101.079 9.31823 102.197 10.3062 102.197 11.9572ZM105.652 13.5822C105.652 15.0122 106.367 15.5322 107.628 15.5322H108.694V14.5312H107.823C107.095 14.5312 106.835 14.2842 106.835 13.5822V9.38323H108.694V8.40823H106.835V6.61423H105.652V8.40823H104.729V9.38323H105.652V13.5822ZM113.156 9.29223C114.378 9.29223 115.418 10.0592 115.405 11.4502H110.907C111.037 10.0592 111.999 9.29223 113.156 9.29223ZM116.484 13.3352H115.21C114.95 14.1022 114.274 14.6482 113.208 14.6482C111.999 14.6482 110.985 13.8552 110.894 12.4122H116.588C116.614 12.1652 116.627 11.9572 116.627 11.6972C116.627 9.74723 115.275 8.29123 113.208 8.29123C111.128 8.29123 109.685 9.70823 109.685 11.9572C109.685 14.2192 111.18 15.6492 113.208 15.6492C114.976 15.6492 116.12 14.6352 116.484 13.3352ZM121.655 15.5322H122.838V11.5932C122.838 10.0592 123.67 9.30523 124.879 9.30523C126.075 9.30523 126.868 10.0462 126.868 11.5022V15.5322H128.038V11.3332C128.038 9.29223 126.777 8.27823 125.191 8.27823C124.19 8.27823 123.306 8.68123 122.838 9.43523V5.91223H121.655V15.5322ZM132.999 9.29223C134.221 9.29223 135.261 10.0592 135.248 11.4502H130.75C130.88 10.0592 131.842 9.29223 132.999 9.29223ZM136.327 13.3352H135.053C134.793 14.1022 134.117 14.6482 133.051 14.6482C131.842 14.6482 130.828 13.8552 130.737 12.4122H136.431C136.457 12.1652 136.47 11.9572 136.47 11.6972C136.47 9.74723 135.118 8.29123 133.051 8.29123C130.971 8.29123 129.528 9.70823 129.528 11.9572C129.528 14.2192 131.023 15.6492 133.051 15.6492C134.819 15.6492 135.963 14.6352 136.327 13.3352ZM139.215 11.6582C139.215 10.0072 140.073 9.50023 141.204 9.50023H141.516V8.27823C140.385 8.27823 139.618 8.77223 139.215 9.56523V8.40823H138.032V15.5322H139.215V11.6582ZM153.107 11.9572C153.107 9.70823 151.534 8.29123 149.506 8.29123C147.491 8.29123 145.905 9.70823 145.905 11.9572C145.905 14.2192 147.439 15.6492 149.454 15.6492C151.482 15.6492 153.107 14.2192 153.107 11.9572ZM147.114 11.9572C147.114 10.1632 148.245 9.31823 149.493 9.31823C150.715 9.31823 151.898 10.1632 151.898 11.9572C151.898 13.7642 150.689 14.6092 149.454 14.6092C148.219 14.6092 147.114 13.7642 147.114 11.9572ZM159.876 15.5322H161.046V11.3332C161.046 9.29223 159.785 8.27823 158.134 8.27823C157.172 8.27823 156.314 8.68123 155.846 9.42223V8.40823H154.663V15.5322H155.846V11.5932C155.846 10.0592 156.678 9.30523 157.887 9.30523C159.083 9.30523 159.876 10.0462 159.876 11.5022V15.5322ZM162.978 15.5322H164.161V5.91223H162.978V15.5322ZM166.177 15.5322H167.36V8.40823H166.177V15.5322ZM166.788 7.25123C167.217 7.25123 167.568 6.90023 167.568 6.44523C167.568 5.99023 167.217 5.63923 166.788 5.63923C166.333 5.63923 165.982 5.99023 165.982 6.44523C165.982 6.90023 166.333 7.25123 166.788 7.25123ZM174.589 15.5322H175.759V11.3332C175.759 9.29223 174.498 8.27823 172.847 8.27823C171.885 8.27823 171.027 8.68123 170.559 9.42223V8.40823H169.376V15.5322H170.559V11.5932C170.559 10.0592 171.391 9.30523 172.6 9.30523C173.796 9.30523 174.589 10.0462 174.589 11.5022V15.5322ZM180.721 9.29223C181.943 9.29223 182.983 10.0592 182.97 11.4502H178.472C178.602 10.0592 179.564 9.29223 180.721 9.29223ZM184.049 13.3352H182.775C182.515 14.1022 181.839 14.6482 180.773 14.6482C179.564 14.6482 178.55 13.8552 178.459 12.4122H184.153C184.179 12.1652 184.192 11.9572 184.192 11.6972C184.192 9.74723 182.84 8.29123 180.773 8.29123C178.693 8.29123 177.25 9.70823 177.25 11.9572C177.25 14.2192 178.745 15.6492 180.773 15.6492C182.541 15.6492 183.685 14.6352 184.049 13.3352ZM28.8481 31.9572C28.8481 34.2192 30.2911 35.6492 32.3191 35.6492C34.0871 35.6492 35.2441 34.6612 35.6081 33.2442H34.3341C34.0741 34.1412 33.3721 34.6482 32.3191 34.6482C31.0191 34.6482 30.0571 33.7252 30.0571 31.9572C30.0571 30.2152 31.0191 29.2922 32.3191 29.2922C33.3721 29.2922 34.0871 29.8382 34.3341 30.6962H35.6081C35.2441 29.2012 34.0871 28.2912 32.3191 28.2912C30.2911 28.2912 28.8481 29.7212 28.8481 31.9572ZM36.7445 31.9442C36.7445 34.1542 38.2135 35.6492 40.1115 35.6492C41.4245 35.6492 42.3475 34.9732 42.7765 34.2062V35.5322H43.9725V28.4082H42.7765V29.7082C42.3605 28.9672 41.4505 28.2912 40.1245 28.2912C38.2135 28.2912 36.7445 29.7212 36.7445 31.9442ZM42.7765 31.9572C42.7765 33.6342 41.6585 34.6092 40.3585 34.6092C39.0585 34.6092 37.9535 33.6212 37.9535 31.9442C37.9535 30.2672 39.0585 29.3182 40.3585 29.3182C41.6585 29.3182 42.7765 30.3062 42.7765 31.9572ZM47.1547 31.6582C47.1547 30.0072 48.0127 29.5002 49.1437 29.5002H49.4557V28.2782C48.3247 28.2782 47.5577 28.7722 47.1547 29.5652V28.4082H45.9717V35.5322H47.1547V31.6582ZM50.3793 31.9442C50.3793 34.1542 51.8483 35.6492 53.7593 35.6492C55.0593 35.6492 55.9823 34.9862 56.4113 34.1932V35.5322H57.6073V25.9122H56.4113V29.6822C55.9173 28.8632 54.8903 28.2912 53.7723 28.2912C51.8483 28.2912 50.3793 29.7212 50.3793 31.9442ZM56.4113 31.9572C56.4113 33.6342 55.2933 34.6092 53.9933 34.6092C52.6933 34.6092 51.5883 33.6212 51.5883 31.9442C51.5883 30.2672 52.6933 29.3182 53.9933 29.3182C55.2933 29.3182 56.4113 30.3062 56.4113 31.9572ZM63.2933 35.5322H64.4763V29.3832H65.9713V28.4082H64.4763V27.9012C64.4763 26.9782 64.8273 26.5882 65.8933 26.5882V25.6002C64.0733 25.6002 63.2933 26.3152 63.2933 27.9012V28.4082H62.3703V29.3832H63.2933V35.5322ZM68.5336 31.6582C68.5336 30.0072 69.3916 29.5002 70.5226 29.5002H70.8346V28.2782C69.7036 28.2782 68.9366 28.7722 68.5336 29.5652V28.4082H67.3506V35.5322H68.5336V31.6582ZM78.9602 31.9572C78.9602 29.7082 77.3872 28.2912 75.3592 28.2912C73.3442 28.2912 71.7582 29.7082 71.7582 31.9572C71.7582 34.2192 73.2922 35.6492 75.3072 35.6492C77.3352 35.6492 78.9602 34.2192 78.9602 31.9572ZM72.9672 31.9572C72.9672 30.1632 74.0982 29.3182 75.3462 29.3182C76.5682 29.3182 77.7512 30.1632 77.7512 31.9572C77.7512 33.7642 76.5422 34.6092 75.3072 34.6092C74.0722 34.6092 72.9672 33.7642 72.9672 31.9572ZM90.7986 35.5322H91.9686V31.3332C91.9686 29.2922 90.7076 28.2782 89.0826 28.2782C87.9906 28.2782 86.9766 28.8372 86.5606 29.8642C86.0926 28.7982 85.1176 28.2782 83.9476 28.2782C83.0116 28.2782 82.1666 28.6812 81.6986 29.4352V28.4082H80.5156V35.5322H81.6986V31.6062C81.6986 30.0722 82.5176 29.3052 83.7136 29.3052C84.8836 29.3052 85.6636 30.0462 85.6636 31.5022V35.5322H86.8336V31.6062C86.8336 30.0722 87.6526 29.3052 88.8486 29.3052C90.0186 29.3052 90.7986 30.0462 90.7986 31.5022V35.5322ZM97.375 35.5322H98.558V31.5932C98.558 30.0592 99.39 29.3052 100.599 29.3052C101.795 29.3052 102.588 30.0462 102.588 31.5022V35.5322H103.758V31.3332C103.758 29.2922 102.497 28.2782 100.911 28.2782C99.91 28.2782 99.026 28.6812 98.558 29.4352V25.9122H97.375V35.5322ZM108.719 29.2922C109.941 29.2922 110.981 30.0592 110.968 31.4502H106.47C106.6 30.0592 107.562 29.2922 108.719 29.2922ZM112.047 33.3352H110.773C110.513 34.1022 109.837 34.6482 108.771 34.6482C107.562 34.6482 106.548 33.8552 106.457 32.4122H112.151C112.177 32.1652 112.19 31.9572 112.19 31.6972C112.19 29.7472 110.838 28.2912 108.771 28.2912C106.691 28.2912 105.248 29.7082 105.248 31.9572C105.248 34.2192 106.743 35.6492 108.771 35.6492C110.539 35.6492 111.683 34.6352 112.047 33.3352ZM114.935 31.6582C114.935 30.0072 115.793 29.5002 116.924 29.5002H117.236V28.2782C116.105 28.2782 115.338 28.7722 114.935 29.5652V28.4082H113.752V35.5322H114.935V31.6582ZM123.458 35.5322H124.68L126.396 29.8772L128.112 35.5322H129.334L131.557 28.4082H130.387L128.775 34.4012L127.046 28.4082H125.837L124.069 34.3882L122.431 28.4082H121.222L123.458 35.5322ZM132.289 31.9442C132.289 34.1542 133.758 35.6492 135.656 35.6492C136.969 35.6492 137.892 34.9732 138.321 34.2062V35.5322H139.517V28.4082H138.321V29.7082C137.905 28.9672 136.995 28.2912 135.669 28.2912C133.758 28.2912 132.289 29.7212 132.289 31.9442ZM138.321 31.9572C138.321 33.6342 137.203 34.6092 135.903 34.6092C134.603 34.6092 133.498 33.6212 133.498 31.9442C133.498 30.2672 134.603 29.3182 135.903 29.3182C137.203 29.3182 138.321 30.3062 138.321 31.9572ZM141.517 35.5322H142.7V25.9122H141.517V35.5322ZM144.716 35.5322H145.899V25.9122H144.716V35.5322ZM150.944 29.2922C152.166 29.2922 153.206 30.0592 153.193 31.4502H148.695C148.825 30.0592 149.787 29.2922 150.944 29.2922ZM154.272 33.3352H152.998C152.738 34.1022 152.062 34.6482 150.996 34.6482C149.787 34.6482 148.773 33.8552 148.682 32.4122H154.376C154.402 32.1652 154.415 31.9572 154.415 31.6972C154.415 29.7472 153.063 28.2912 150.996 28.2912C148.916 28.2912 147.473 29.7082 147.473 31.9572C147.473 34.2192 148.968 35.6492 150.996 35.6492C152.764 35.6492 153.908 34.6352 154.272 33.3352ZM156.237 33.5822C156.237 35.0122 156.952 35.5322 158.213 35.5322H159.279V34.5312H158.408C157.68 34.5312 157.42 34.2842 157.42 33.5822V29.3832H159.279V28.4082H157.42V26.6142H156.237V28.4082H155.314V29.3832H156.237V33.5822Z" fill="#494B52"/>
</svg>
