<svg width="603" height="366" viewBox="0 0 603 366" fill="none" xmlns="http://www.w3.org/2000/svg">
<path d="M512.045 119.402L507.521 310.957L506.817 340.616C506.817 344.486 503.644 347.656 499.773 347.656H119.101C115.232 347.656 112.057 344.486 112.057 340.616L111.626 310.957L108.892 121.742C108.892 117.871 113.45 110.315 121.803 110.885L493.842 101.251C498.698 101.131 503.398 102.996 506.839 106.431C510.277 109.86 512.16 114.549 512.045 119.402Z" fill="url(#paint0_linear)"/>
<path d="M497.512 334.63C497.512 338.241 494.494 341.196 490.805 341.196H128.17C124.481 341.196 121.463 338.241 121.463 334.63L118.445 130.372C118.445 126.761 122.787 119.71 130.741 120.24L485.149 111.251C489.778 111.133 494.251 112.879 497.528 116.08C500.806 119.282 502.598 123.658 502.489 128.19L497.512 334.63Z" fill="url(#paint1_linear)"/>
<path d="M490.589 341.7H449.837C449.69 341.7 449.569 341.579 449.569 341.432C449.569 341.285 449.69 341.164 449.837 341.164H490.589C495.958 341.164 500.327 336.697 500.327 331.204V206.396C500.327 206.248 500.447 206.128 500.595 206.128C500.742 206.128 500.862 206.248 500.862 206.396V331.204C500.862 336.991 496.252 341.7 490.589 341.7Z" fill="white"/>
<path d="M118.769 205.509C118.622 205.509 118.502 205.389 118.502 205.241V132.513C118.502 125.055 124.34 118.987 131.518 118.987H163.759C163.906 118.987 164.027 119.107 164.027 119.254C164.027 119.402 163.906 119.522 163.759 119.522H131.518C124.637 119.522 119.037 125.35 119.037 132.513V205.241C119.037 205.391 118.917 205.509 118.769 205.509Z" fill="white"/>
<path d="M209.901 201.323C209.901 197.431 206.747 194.277 202.859 194.277H155.804C151.914 194.277 148.763 197.433 148.763 201.323V236.86C148.763 240.752 151.917 243.905 155.804 243.905H202.857C206.747 243.905 209.898 240.749 209.898 236.86V201.323H209.901Z" fill="url(#paint2_linear)"/>
<path opacity="0.8" d="M185.842 227.438H171.663C170.336 227.438 169.255 226.356 169.255 225.028V213.727C169.255 212.399 170.336 211.318 171.663 211.318H185.842C187.169 211.318 188.25 212.399 188.25 213.727V225.028C188.25 226.359 187.169 227.438 185.842 227.438ZM171.665 211.859C170.633 211.859 169.793 212.699 169.793 213.732V225.034C169.793 226.067 170.633 226.908 171.665 226.908H185.845C186.878 226.908 187.718 226.067 187.718 225.034V213.732C187.718 212.699 186.878 211.859 185.845 211.859H171.665Z" fill="white"/>
<path d="M169.524 215.898H148.761C148.614 215.898 148.493 215.778 148.493 215.63C148.493 215.483 148.614 215.363 148.761 215.363H169.524C169.672 215.363 169.792 215.483 169.792 215.63C169.792 215.778 169.672 215.898 169.524 215.898Z" fill="white"/>
<path d="M169.525 220.513H148.761C148.614 220.513 148.493 220.392 148.493 220.245C148.493 220.098 148.614 219.978 148.761 219.978H169.525C169.672 219.978 169.792 220.098 169.792 220.245C169.792 220.395 169.672 220.513 169.525 220.513Z" fill="white"/>
<path d="M209.9 215.899H187.983C187.836 215.899 187.716 215.778 187.716 215.631C187.716 215.484 187.836 215.363 187.983 215.363H209.9C210.047 215.363 210.168 215.484 210.168 215.631C210.168 215.778 210.047 215.899 209.9 215.899Z" fill="white"/>
<path d="M209.9 220.513H187.983C187.836 220.513 187.716 220.393 187.716 220.246C187.716 220.098 187.836 219.978 187.983 219.978H209.9C210.047 219.978 210.168 220.098 210.168 220.246C210.168 220.396 210.047 220.513 209.9 220.513Z" fill="white"/>
<path d="M172.979 212.148C172.858 212.148 172.749 212.065 172.719 211.942L168.575 194.433C168.54 194.289 168.628 194.144 168.773 194.112C168.915 194.077 169.062 194.166 169.094 194.31L173.238 211.819C173.273 211.964 173.182 212.108 173.04 212.14C173.021 212.146 173 212.148 172.979 212.148Z" fill="white"/>
<path d="M184.186 212.148C184.165 212.148 184.143 212.146 184.122 212.14C183.978 212.106 183.892 211.961 183.927 211.816L188.226 194.308C188.261 194.163 188.405 194.075 188.55 194.112C188.694 194.147 188.78 194.291 188.745 194.436L184.446 211.945C184.416 212.065 184.307 212.148 184.186 212.148Z" fill="white"/>
<path d="M168.834 244.862C168.813 244.862 168.794 244.859 168.773 244.854C168.628 244.819 168.54 244.675 168.575 244.533L172.719 227.024C172.754 226.879 172.898 226.791 173.04 226.826C173.185 226.861 173.273 227.005 173.238 227.147L169.094 244.656C169.067 244.779 168.958 244.862 168.834 244.862Z" fill="white"/>
<path d="M188.482 244.862C188.362 244.862 188.252 244.779 188.223 244.659L183.924 227.15C183.889 227.005 183.977 226.861 184.119 226.826C184.263 226.788 184.408 226.879 184.443 227.021L188.742 244.53C188.777 244.675 188.688 244.819 188.547 244.854C188.525 244.859 188.504 244.862 188.482 244.862Z" fill="white"/>
<path d="M210.478 147.825C210.478 152.445 206.732 156.192 202.115 156.192H149.626C145.008 156.192 141.263 152.445 141.263 147.825C141.263 143.205 145.008 139.457 149.626 139.457H202.112C206.732 139.457 210.478 143.202 210.478 147.825Z" fill="#B1A3E1"/>
<path d="M215.092 273.421C215.092 277.837 211.515 281.416 207.1 281.416H149.258C144.844 281.416 141.267 277.837 141.267 273.421V273.255C141.267 268.838 144.844 265.259 149.258 265.259H207.1C211.515 265.259 215.092 268.838 215.092 273.255V273.421Z" fill="#B1A3E1"/>
<path d="M299.303 273.42C299.303 277.837 295.726 281.416 291.312 281.416H233.47C229.056 281.416 225.479 277.837 225.479 273.42V273.254C225.479 268.838 229.056 265.259 233.47 265.259H291.312C295.726 265.259 299.303 268.838 299.303 273.254V273.42Z" fill="#B1A3E1"/>
<path d="M383.512 273.42C383.512 277.837 379.935 281.416 375.52 281.416H317.678C313.264 281.416 309.687 277.837 309.687 273.42V273.254C309.687 268.838 313.264 265.259 317.678 265.259H375.52C379.935 265.259 383.512 268.838 383.512 273.254V273.42Z" fill="#B1A3E1"/>
<path d="M467.72 273.42C467.72 277.837 464.143 281.416 459.728 281.416H401.886C397.472 281.416 393.895 277.837 393.895 273.42V273.254C393.895 268.838 397.472 265.259 401.886 265.259H459.728C464.143 265.259 467.72 268.838 467.72 273.254V273.42Z" fill="#B1A3E1"/>
<g opacity="0.8">
<g opacity="0.8">
<path opacity="0.8" d="M271.038 309.115C271.038 312.622 268.197 315.462 264.695 315.462H156.836C153.331 315.462 150.492 312.619 150.492 309.115C150.492 305.609 153.333 302.769 156.836 302.769H264.692C268.197 302.769 271.038 305.611 271.038 309.115Z" fill="#9E93C5"/>
</g>
<g opacity="0.8">
<path opacity="0.8" d="M459.065 306.808C459.065 310.314 456.223 313.154 452.721 313.154H405.425C401.921 313.154 399.082 310.312 399.082 306.808C399.082 303.301 401.923 300.461 405.425 300.461H452.721C456.226 300.461 459.065 303.301 459.065 306.808Z" fill="#9E93C5"/>
</g>
</g>
<line x1="23.1992" y1="347.604" x2="581.237" y2="347.604" stroke="black"/>
<defs>
<linearGradient id="paint0_linear" x1="415.789" y1="-179.125" x2="367.584" y2="3.95571" gradientUnits="userSpaceOnUse">
<stop stop-color="#6654A4"/>
<stop offset="0.2839" stop-color="#6654A4"/>
<stop offset="1" stop-color="#423376"/>
</linearGradient>
<linearGradient id="paint1_linear" x1="262.929" y1="416.541" x2="197.585" y2="683.134" gradientUnits="userSpaceOnUse">
<stop stop-color="#6654A4"/>
<stop offset="0.2839" stop-color="#7059C1"/>
<stop offset="1" stop-color="#1B113F"/>
</linearGradient>
<linearGradient id="paint2_linear" x1="316.092" y1="167.023" x2="159.928" y2="226.418" gradientUnits="userSpaceOnUse">
<stop stop-color="#F79E1B"/>
<stop offset="1" stop-color="#F2C88A"/>
</linearGradient>
</defs>
</svg>
