<svg width="575" height="124" viewBox="0 0 575 124" fill="none" xmlns="http://www.w3.org/2000/svg">
<path d="M186.119 44H189.759V16.12H186.119V28.36H171.919V16.12H168.279V44H171.919V31.36H186.119V44ZM216.735 33C216.735 26.08 211.895 21.72 205.655 21.72C199.455 21.72 194.575 26.08 194.575 33C194.575 39.96 199.295 44.36 205.495 44.36C211.735 44.36 216.735 39.96 216.735 33ZM198.295 33C198.295 27.48 201.775 24.88 205.615 24.88C209.375 24.88 213.015 27.48 213.015 33C213.015 38.56 209.295 41.16 205.495 41.16C201.695 41.16 198.295 38.56 198.295 33ZM225.801 44H229.561L234.841 26.6L240.121 44H243.881L250.721 22.08H247.121L242.161 40.52L236.841 22.08H233.121L227.681 40.48L222.641 22.08H218.921L225.801 44ZM264.998 44H268.638V22.08H264.998V44ZM266.878 18.52C268.198 18.52 269.278 17.44 269.278 16.04C269.278 14.64 268.198 13.56 266.878 13.56C265.478 13.56 264.398 14.64 264.398 16.04C264.398 17.44 265.478 18.52 266.878 18.52ZM275.642 38C275.642 42.4 277.842 44 281.722 44H285.002V40.92H282.322C280.082 40.92 279.282 40.16 279.282 38V25.08H285.002V22.08H279.282V16.56H275.642V22.08H272.802V25.08H275.642V38ZM304.356 44H308.116L313.396 26.6L318.676 44H322.436L329.276 22.08H325.676L320.716 40.52L315.396 22.08H311.676L306.236 40.48L301.196 22.08H297.476L304.356 44ZM353.689 33C353.689 26.08 348.849 21.72 342.609 21.72C336.409 21.72 331.529 26.08 331.529 33C331.529 39.96 336.249 44.36 342.449 44.36C348.689 44.36 353.689 39.96 353.689 33ZM335.249 33C335.249 27.48 338.729 24.88 342.569 24.88C346.329 24.88 349.969 27.48 349.969 33C349.969 38.56 346.249 41.16 342.449 41.16C338.649 41.16 335.249 38.56 335.249 33ZM362.115 32.08C362.115 27 364.755 25.44 368.235 25.44H369.195V21.68C365.715 21.68 363.355 23.2 362.115 25.64V22.08H358.475V44H362.115V32.08ZM373.396 44H377.036V34.32L385.636 44H390.596L380.236 33L390.556 22.08H385.476L377.036 31.8V14.4H373.396V44ZM409.742 38.04C409.582 30.2 396.862 33.04 396.862 27.84C396.862 26.08 398.462 24.8 401.142 24.8C404.062 24.8 405.742 26.4 405.902 28.6H409.542C409.302 24.32 406.102 21.72 401.262 21.72C396.382 21.72 393.222 24.48 393.222 27.84C393.222 36 406.182 33.16 406.182 38.04C406.182 39.84 404.582 41.28 401.702 41.28C398.622 41.28 396.742 39.68 396.542 37.56H392.782C393.022 41.56 396.622 44.36 401.742 44.36C406.582 44.36 409.742 41.64 409.742 38.04Z" fill="#2B334E"/>
<path d="M1.60988 109.416C1.60988 112.76 4.05788 115.096 7.17788 115.096C9.59388 115.096 11.5139 113.896 12.3459 111.752H10.6019C9.99388 113.08 8.80988 113.832 7.17788 113.832C4.84188 113.832 3.09788 112.136 3.09788 109.416C3.09788 106.68 4.84188 104.984 7.17788 104.984C8.80988 104.984 9.99388 105.736 10.6019 107.08H12.3459C11.5139 104.92 9.59388 103.704 7.17788 103.704C4.05788 103.704 1.60988 106.072 1.60988 109.416ZM22.8333 110.6C22.8333 107.832 20.8973 106.088 18.4013 106.088C15.9213 106.088 13.9693 107.832 13.9693 110.6C13.9693 113.384 15.8573 115.144 18.3373 115.144C20.8333 115.144 22.8333 113.384 22.8333 110.6ZM15.4573 110.6C15.4573 108.392 16.8493 107.352 18.3853 107.352C19.8893 107.352 21.3453 108.392 21.3453 110.6C21.3453 112.824 19.8573 113.864 18.3373 113.864C16.8173 113.864 15.4573 112.824 15.4573 110.6ZM31.1636 115H32.6036V109.832C32.6036 107.32 31.0516 106.072 29.0196 106.072C27.8356 106.072 26.7796 106.568 26.2036 107.48V106.232H24.7476V115H26.2036V110.152C26.2036 108.264 27.2276 107.336 28.7156 107.336C30.1876 107.336 31.1636 108.248 31.1636 110.04V115ZM41.286 112.616C41.222 109.48 36.134 110.616 36.134 108.536C36.134 107.832 36.774 107.32 37.846 107.32C39.014 107.32 39.686 107.96 39.75 108.84H41.206C41.11 107.128 39.83 106.088 37.894 106.088C35.942 106.088 34.678 107.192 34.678 108.536C34.678 111.8 39.862 110.664 39.862 112.616C39.862 113.336 39.222 113.912 38.07 113.912C36.838 113.912 36.086 113.272 36.006 112.424H34.502C34.598 114.024 36.038 115.144 38.086 115.144C40.022 115.144 41.286 114.056 41.286 112.616ZM51.1174 106.232H49.6614V111.048C49.6614 112.936 48.6534 113.864 47.1494 113.864C45.6774 113.864 44.7014 112.952 44.7014 111.176V106.232H43.2614V111.368C43.2614 113.88 44.8454 115.128 46.8614 115.128C48.0294 115.128 49.1014 114.616 49.6614 113.704V115H51.1174V106.232ZM66.2318 115H67.6718V109.832C67.6718 107.32 66.1198 106.072 64.1198 106.072C62.7758 106.072 61.5278 106.76 61.0158 108.024C60.4398 106.712 59.2398 106.072 57.7998 106.072C56.6478 106.072 55.6078 106.568 55.0318 107.496V106.232H53.5758V115H55.0318V110.168C55.0318 108.28 56.0398 107.336 57.5118 107.336C58.9518 107.336 59.9118 108.248 59.9118 110.04V115H61.3518V110.168C61.3518 108.28 62.3598 107.336 63.8318 107.336C65.2718 107.336 66.2318 108.248 66.2318 110.04V115ZM73.7881 107.32C75.2921 107.32 76.5721 108.264 76.5561 109.976H71.0201C71.1801 108.264 72.3641 107.32 73.7881 107.32ZM77.8841 112.296H76.3161C75.9961 113.24 75.1641 113.912 73.8521 113.912C72.3641 113.912 71.1161 112.936 71.0041 111.16H78.0121C78.0441 110.856 78.0601 110.6 78.0601 110.28C78.0601 107.88 76.3961 106.088 73.8521 106.088C71.2921 106.088 69.5161 107.832 69.5161 110.6C69.5161 113.384 71.3561 115.144 73.8521 115.144C76.0281 115.144 77.4361 113.896 77.8841 112.296ZM81.438 110.232C81.438 108.2 82.494 107.576 83.886 107.576H84.27V106.072C82.878 106.072 81.934 106.68 81.438 107.656V106.232H79.982V115H81.438V110.232ZM89.6724 110.6C89.6724 113.384 91.4484 115.144 93.9444 115.144C96.1204 115.144 97.5444 113.928 97.9924 112.184H96.4244C96.1044 113.288 95.2404 113.912 93.9444 113.912C92.3444 113.912 91.1604 112.776 91.1604 110.6C91.1604 108.456 92.3444 107.32 93.9444 107.32C95.2404 107.32 96.1204 107.992 96.4244 109.048H97.9924C97.5444 107.208 96.1204 106.088 93.9444 106.088C91.4484 106.088 89.6724 107.848 89.6724 110.6ZM99.3911 110.584C99.3911 113.304 101.199 115.144 103.535 115.144C105.151 115.144 106.287 114.312 106.815 113.368V115H108.287V106.232H106.815V107.832C106.303 106.92 105.183 106.088 103.551 106.088C101.199 106.088 99.3911 107.848 99.3911 110.584ZM106.815 110.6C106.815 112.664 105.439 113.864 103.839 113.864C102.239 113.864 100.879 112.648 100.879 110.584C100.879 108.52 102.239 107.352 103.839 107.352C105.439 107.352 106.815 108.568 106.815 110.6ZM117.164 115H118.604V109.832C118.604 107.32 117.052 106.072 115.02 106.072C113.836 106.072 112.78 106.568 112.204 107.48V106.232H110.748V115H112.204V110.152C112.204 108.264 113.228 107.336 114.716 107.336C116.188 107.336 117.164 108.248 117.164 110.04V115ZM124.704 110.6C124.704 113.384 126.48 115.144 128.976 115.144C131.152 115.144 132.576 113.928 133.024 112.184H131.456C131.136 113.288 130.272 113.912 128.976 113.912C127.376 113.912 126.192 112.776 126.192 110.6C126.192 108.456 127.376 107.32 128.976 107.32C130.272 107.32 131.152 107.992 131.456 109.048H133.024C132.576 107.208 131.152 106.088 128.976 106.088C126.48 106.088 124.704 107.848 124.704 110.6ZM136.422 110.232C136.422 108.2 137.478 107.576 138.87 107.576H139.254V106.072C137.862 106.072 136.918 106.68 136.422 107.656V106.232H134.966V115H136.422V110.232ZM144.663 107.32C146.167 107.32 147.447 108.264 147.431 109.976H141.895C142.055 108.264 143.239 107.32 144.663 107.32ZM148.759 112.296H147.191C146.871 113.24 146.039 113.912 144.727 113.912C143.239 113.912 141.991 112.936 141.879 111.16H148.887C148.919 110.856 148.935 110.6 148.935 110.28C148.935 107.88 147.271 106.088 144.727 106.088C142.167 106.088 140.391 107.832 140.391 110.6C140.391 113.384 142.231 115.144 144.727 115.144C146.903 115.144 148.311 113.896 148.759 112.296ZM150.313 110.584C150.313 113.304 152.121 115.144 154.457 115.144C156.073 115.144 157.209 114.312 157.737 113.368V115H159.209V106.232H157.737V107.832C157.225 106.92 156.105 106.088 154.473 106.088C152.121 106.088 150.313 107.848 150.313 110.584ZM157.737 110.6C157.737 112.664 156.361 113.864 154.761 113.864C153.161 113.864 151.801 112.648 151.801 110.584C151.801 108.52 153.161 107.352 154.761 107.352C156.361 107.352 157.737 108.568 157.737 110.6ZM161.99 112.6C161.99 114.36 162.87 115 164.422 115H165.734V113.768H164.661C163.766 113.768 163.446 113.464 163.446 112.6V107.432H165.734V106.232H163.446V104.024H161.99V106.232H160.854V107.432H161.99V112.6ZM171.226 107.32C172.73 107.32 174.01 108.264 173.994 109.976H168.458C168.618 108.264 169.802 107.32 171.226 107.32ZM175.322 112.296H173.754C173.434 113.24 172.602 113.912 171.29 113.912C169.802 113.912 168.554 112.936 168.442 111.16H175.45C175.482 110.856 175.498 110.6 175.498 110.28C175.498 107.88 173.834 106.088 171.29 106.088C168.73 106.088 166.954 107.832 166.954 110.6C166.954 113.384 168.794 115.144 171.29 115.144C173.466 115.144 174.874 113.896 175.322 112.296ZM185.013 113.336L182.261 106.232H180.645L184.181 114.904L182.453 119.128H183.957L189.237 106.232H187.733L185.013 113.336ZM199.021 110.6C199.021 107.832 197.085 106.088 194.589 106.088C192.109 106.088 190.157 107.832 190.157 110.6C190.157 113.384 192.045 115.144 194.525 115.144C197.021 115.144 199.021 113.384 199.021 110.6ZM191.645 110.6C191.645 108.392 193.037 107.352 194.573 107.352C196.077 107.352 197.533 108.392 197.533 110.6C197.533 112.824 196.045 113.864 194.525 113.864C193.005 113.864 191.645 112.824 191.645 110.6ZM208.711 106.232H207.255V111.048C207.255 112.936 206.247 113.864 204.743 113.864C203.271 113.864 202.295 112.952 202.295 111.176V106.232H200.855V111.368C200.855 113.88 202.439 115.128 204.455 115.128C205.623 115.128 206.695 114.616 207.255 113.704V115H208.711V106.232ZM212.626 110.232C212.626 108.2 213.682 107.576 215.074 107.576H215.458V106.072C214.066 106.072 213.122 106.68 212.626 107.656V106.232H211.17V115H212.626V110.232ZM229.724 110.6C229.724 107.832 227.788 106.088 225.292 106.088C222.812 106.088 220.86 107.832 220.86 110.6C220.86 113.384 222.748 115.144 225.228 115.144C227.724 115.144 229.724 113.384 229.724 110.6ZM222.348 110.6C222.348 108.392 223.74 107.352 225.276 107.352C226.78 107.352 228.236 108.392 228.236 110.6C228.236 112.824 226.748 113.864 225.228 113.864C223.708 113.864 222.348 112.824 222.348 110.6ZM233.35 115H234.854L236.966 108.04L239.078 115H240.582L243.318 106.232H241.878L239.894 113.608L237.766 106.232H236.278L234.102 113.592L232.086 106.232H230.598L233.35 115ZM251.179 115H252.619V109.832C252.619 107.32 251.067 106.072 249.035 106.072C247.851 106.072 246.795 106.568 246.219 107.48V106.232H244.763V115H246.219V110.152C246.219 108.264 247.243 107.336 248.731 107.336C250.203 107.336 251.179 108.248 251.179 110.04V115ZM267.583 110.6C267.583 107.832 265.647 106.088 263.151 106.088C260.671 106.088 258.719 107.832 258.719 110.6C258.719 113.384 260.607 115.144 263.087 115.144C265.583 115.144 267.583 113.384 267.583 110.6ZM260.207 110.6C260.207 108.392 261.599 107.352 263.135 107.352C264.639 107.352 266.095 108.392 266.095 110.6C266.095 112.824 264.607 113.864 263.087 113.864C261.567 113.864 260.207 112.824 260.207 110.6ZM275.914 115H277.354V109.832C277.354 107.32 275.802 106.072 273.77 106.072C272.586 106.072 271.53 106.568 270.954 107.48V106.232H269.498V115H270.954V110.152C270.954 108.264 271.978 107.336 273.466 107.336C274.938 107.336 275.914 108.248 275.914 110.04V115ZM279.732 115H281.188V103.16H279.732V115ZM283.67 115H285.126V106.232H283.67V115ZM284.422 104.808C284.95 104.808 285.382 104.376 285.382 103.816C285.382 103.256 284.95 102.824 284.422 102.824C283.862 102.824 283.43 103.256 283.43 103.816C283.43 104.376 283.862 104.808 284.422 104.808ZM294.023 115H295.463V109.832C295.463 107.32 293.911 106.072 291.879 106.072C290.695 106.072 289.639 106.568 289.063 107.48V106.232H287.607V115H289.063V110.152C289.063 108.264 290.087 107.336 291.575 107.336C293.047 107.336 294.023 108.248 294.023 110.04V115ZM301.569 107.32C303.073 107.32 304.353 108.264 304.337 109.976H298.801C298.961 108.264 300.145 107.32 301.569 107.32ZM305.665 112.296H304.097C303.777 113.24 302.945 113.912 301.633 113.912C300.145 113.912 298.897 112.936 298.785 111.16H305.793C305.825 110.856 305.841 110.6 305.841 110.28C305.841 107.88 304.177 106.088 301.633 106.088C299.073 106.088 297.297 107.832 297.297 110.6C297.297 113.384 299.137 115.144 301.633 115.144C303.809 115.144 305.217 113.896 305.665 112.296ZM311.485 110.6C311.485 113.384 313.261 115.144 315.757 115.144C317.933 115.144 319.357 113.928 319.805 112.184H318.237C317.917 113.288 317.053 113.912 315.757 113.912C314.157 113.912 312.973 112.776 312.973 110.6C312.973 108.456 314.157 107.32 315.757 107.32C317.053 107.32 317.933 107.992 318.237 109.048H319.805C319.357 107.208 317.933 106.088 315.757 106.088C313.261 106.088 311.485 107.848 311.485 110.6ZM321.204 110.584C321.204 113.304 323.012 115.144 325.348 115.144C326.964 115.144 328.1 114.312 328.628 113.368V115H330.1V106.232H328.628V107.832C328.116 106.92 326.996 106.088 325.364 106.088C323.012 106.088 321.204 107.848 321.204 110.584ZM328.628 110.6C328.628 112.664 327.252 113.864 325.652 113.864C324.052 113.864 322.692 112.648 322.692 110.584C322.692 108.52 324.052 107.352 325.652 107.352C327.252 107.352 328.628 108.568 328.628 110.6ZM334.016 110.232C334.016 108.2 335.072 107.576 336.464 107.576H336.848V106.072C335.456 106.072 334.512 106.68 334.016 107.656V106.232H332.56V115H334.016V110.232ZM337.985 110.584C337.985 113.304 339.793 115.144 342.145 115.144C343.745 115.144 344.881 114.328 345.409 113.352V115H346.881V103.16H345.409V107.8C344.801 106.792 343.537 106.088 342.161 106.088C339.793 106.088 337.985 107.848 337.985 110.584ZM345.409 110.6C345.409 112.664 344.033 113.864 342.433 113.864C340.833 113.864 339.473 112.648 339.473 110.584C339.473 108.52 340.833 107.352 342.433 107.352C344.033 107.352 345.409 108.568 345.409 110.6ZM353.927 112.6C353.927 114.36 354.807 115 356.359 115H357.671V113.768H356.599C355.703 113.768 355.383 113.464 355.383 112.6V107.432H357.671V106.232H355.383V104.024H353.927V106.232H352.791V107.432H353.927V112.6ZM367.755 110.6C367.755 107.832 365.819 106.088 363.323 106.088C360.843 106.088 358.891 107.832 358.891 110.6C358.891 113.384 360.779 115.144 363.259 115.144C365.755 115.144 367.755 113.384 367.755 110.6ZM360.379 110.6C360.379 108.392 361.771 107.352 363.307 107.352C364.811 107.352 366.267 108.392 366.267 110.6C366.267 112.824 364.779 113.864 363.259 113.864C361.739 113.864 360.379 112.824 360.379 110.6ZM381.711 106.232H380.255V111.048C380.255 112.936 379.247 113.864 377.743 113.864C376.271 113.864 375.295 112.952 375.295 111.176V106.232H373.855V111.368C373.855 113.88 375.439 115.128 377.455 115.128C378.623 115.128 379.695 114.616 380.255 113.704V115H381.711V106.232ZM390.474 112.616C390.41 109.48 385.322 110.616 385.322 108.536C385.322 107.832 385.962 107.32 387.034 107.32C388.202 107.32 388.874 107.96 388.938 108.84H390.394C390.298 107.128 389.018 106.088 387.082 106.088C385.13 106.088 383.866 107.192 383.866 108.536C383.866 111.8 389.05 110.664 389.05 112.616C389.05 113.336 388.41 113.912 387.258 113.912C386.026 113.912 385.274 113.272 385.194 112.424H383.69C383.786 114.024 385.226 115.144 387.274 115.144C389.21 115.144 390.474 114.056 390.474 112.616ZM396.257 107.32C397.761 107.32 399.041 108.264 399.025 109.976H393.489C393.649 108.264 394.833 107.32 396.257 107.32ZM400.353 112.296H398.785C398.465 113.24 397.633 113.912 396.321 113.912C394.833 113.912 393.585 112.936 393.473 111.16H400.481C400.513 110.856 400.529 110.6 400.529 110.28C400.529 107.88 398.865 106.088 396.321 106.088C393.761 106.088 391.985 107.832 391.985 110.6C391.985 113.384 393.825 115.144 396.321 115.144C398.497 115.144 399.905 113.896 400.353 112.296ZM406.716 115H408.172V106.232H406.716V115ZM407.468 104.808C407.996 104.808 408.428 104.376 408.428 103.816C408.428 103.256 407.996 102.824 407.468 102.824C406.908 102.824 406.476 103.256 406.476 103.816C406.476 104.376 406.908 104.808 407.468 104.808ZM410.974 112.6C410.974 114.36 411.854 115 413.406 115H414.718V113.768H413.646C412.75 113.768 412.43 113.464 412.43 112.6V107.432H414.718V106.232H412.43V104.024H410.974V106.232H409.838V107.432H410.974V112.6ZM421.02 115H422.476V107.432H424.316V106.232H422.476V105.608C422.476 104.472 422.908 103.992 424.22 103.992V102.776C421.98 102.776 421.02 103.656 421.02 105.608V106.232H419.884V107.432H421.02V115ZM434.333 110.6C434.333 107.832 432.397 106.088 429.901 106.088C427.421 106.088 425.469 107.832 425.469 110.6C425.469 113.384 427.357 115.144 429.837 115.144C432.333 115.144 434.333 113.384 434.333 110.6ZM426.957 110.6C426.957 108.392 428.349 107.352 429.885 107.352C431.389 107.352 432.845 108.392 432.845 110.6C432.845 112.824 431.357 113.864 429.837 113.864C428.317 113.864 426.957 112.824 426.957 110.6ZM437.704 110.232C437.704 108.2 438.76 107.576 440.152 107.576H440.536V106.072C439.144 106.072 438.2 106.68 437.704 107.656V106.232H436.248V115H437.704V110.232ZM454.802 110.6C454.802 107.832 452.866 106.088 450.37 106.088C447.89 106.088 445.938 107.832 445.938 110.6C445.938 113.384 447.826 115.144 450.306 115.144C452.802 115.144 454.802 113.384 454.802 110.6ZM447.426 110.6C447.426 108.392 448.818 107.352 450.354 107.352C451.858 107.352 453.314 108.392 453.314 110.6C453.314 112.824 451.826 113.864 450.306 113.864C448.786 113.864 447.426 112.824 447.426 110.6ZM463.132 115H464.572V109.832C464.572 107.32 463.02 106.072 460.988 106.072C459.804 106.072 458.748 106.568 458.172 107.48V106.232H456.716V115H458.172V110.152C458.172 108.264 459.196 107.336 460.684 107.336C462.156 107.336 463.132 108.248 463.132 110.04V115ZM466.951 115H468.407V103.16H466.951V115ZM470.888 115H472.344V106.232H470.888V115ZM471.64 104.808C472.168 104.808 472.6 104.376 472.6 103.816C472.6 103.256 472.168 102.824 471.64 102.824C471.08 102.824 470.648 103.256 470.648 103.816C470.648 104.376 471.08 104.808 471.64 104.808ZM481.242 115H482.682V109.832C482.682 107.32 481.13 106.072 479.098 106.072C477.914 106.072 476.858 106.568 476.282 107.48V106.232H474.826V115H476.282V110.152C476.282 108.264 477.306 107.336 478.794 107.336C480.266 107.336 481.242 108.248 481.242 110.04V115ZM488.788 107.32C490.292 107.32 491.572 108.264 491.556 109.976H486.02C486.18 108.264 487.364 107.32 488.788 107.32ZM492.884 112.296H491.316C490.996 113.24 490.164 113.912 488.852 113.912C487.364 113.912 486.116 112.936 486.004 111.16H493.012C493.044 110.856 493.06 110.6 493.06 110.28C493.06 107.88 491.396 106.088 488.852 106.088C486.292 106.088 484.516 107.832 484.516 110.6C484.516 113.384 486.356 115.144 488.852 115.144C491.028 115.144 492.436 113.896 492.884 112.296ZM500.704 107.848V106.232H499.248V119.16H500.704V113.384C501.248 114.28 502.384 115.144 503.984 115.144C506.336 115.144 508.144 113.304 508.144 110.584C508.144 107.848 506.336 106.088 503.984 106.088C502.384 106.088 501.232 106.92 500.704 107.848ZM506.656 110.584C506.656 112.648 505.296 113.864 503.68 113.864C502.096 113.864 500.704 112.664 500.704 110.6C500.704 108.568 502.096 107.352 503.68 107.352C505.296 107.352 506.656 108.52 506.656 110.584ZM517.836 106.232H516.38V111.048C516.38 112.936 515.372 113.864 513.868 113.864C512.396 113.864 511.42 112.952 511.42 111.176V106.232H509.98V111.368C509.98 113.88 511.564 115.128 513.58 115.128C514.748 115.128 515.82 114.616 516.38 113.704V115H517.836V106.232ZM521.751 110.232C521.751 108.2 522.807 107.576 524.199 107.576H524.583V106.072C523.191 106.072 522.247 106.68 521.751 107.656V106.232H520.295V115H521.751V110.232ZM525.719 110.6C525.719 113.384 527.495 115.144 529.991 115.144C532.167 115.144 533.591 113.928 534.039 112.184H532.471C532.151 113.288 531.287 113.912 529.991 113.912C528.391 113.912 527.207 112.776 527.207 110.6C527.207 108.456 528.391 107.32 529.991 107.32C531.287 107.32 532.167 107.992 532.471 109.048H534.039C533.591 107.208 532.167 106.088 529.991 106.088C527.495 106.088 525.719 107.848 525.719 110.6ZM535.982 115H537.438V110.152C537.438 108.264 538.462 107.336 539.95 107.336C541.422 107.336 542.398 108.248 542.398 110.04V115H543.838V109.832C543.838 107.32 542.286 106.072 540.334 106.072C539.102 106.072 538.014 106.568 537.438 107.496V103.16H535.982V115ZM545.672 110.584C545.672 113.304 547.48 115.144 549.816 115.144C551.432 115.144 552.568 114.312 553.096 113.368V115H554.568V106.232H553.096V107.832C552.584 106.92 551.464 106.088 549.832 106.088C547.48 106.088 545.672 107.848 545.672 110.584ZM553.096 110.6C553.096 112.664 551.72 113.864 550.12 113.864C548.52 113.864 547.16 112.648 547.16 110.584C547.16 108.52 548.52 107.352 550.12 107.352C551.72 107.352 553.096 108.568 553.096 110.6ZM560.757 107.32C562.261 107.32 563.541 108.264 563.525 109.976H557.989C558.149 108.264 559.333 107.32 560.757 107.32ZM564.853 112.296H563.285C562.965 113.24 562.133 113.912 560.821 113.912C559.333 113.912 558.085 112.936 557.973 111.16H564.981C565.013 110.856 565.029 110.6 565.029 110.28C565.029 107.88 563.365 106.088 560.821 106.088C558.261 106.088 556.485 107.832 556.485 110.6C556.485 113.384 558.325 115.144 560.821 115.144C562.997 115.144 564.405 113.896 564.853 112.296ZM573.255 112.616C573.191 109.48 568.103 110.616 568.103 108.536C568.103 107.832 568.743 107.32 569.815 107.32C570.983 107.32 571.655 107.96 571.719 108.84H573.175C573.079 107.128 571.799 106.088 569.863 106.088C567.911 106.088 566.647 107.192 566.647 108.536C566.647 111.8 571.831 110.664 571.831 112.616C571.831 113.336 571.191 113.912 570.039 113.912C568.807 113.912 568.055 113.272 567.975 112.424H566.471C566.567 114.024 568.007 115.144 570.055 115.144C571.991 115.144 573.255 114.056 573.255 112.616Z" fill="#656668"/>
</svg>
