<svg width="563" height="75" viewBox="0 0 563 75" fill="none" xmlns="http://www.w3.org/2000/svg">
<path d="M70.7861 31.6797C70.7861 32.7943 70.5986 33.7682 70.2236 34.6016C69.8486 35.4297 69.3174 36.0625 68.6299 36.5C67.9424 36.9375 67.1403 37.1562 66.2236 37.1562C65.3278 37.1562 64.5335 36.9375 63.8408 36.5C63.1481 36.0573 62.609 35.4297 62.2236 34.6172C61.8434 33.7995 61.6481 32.8542 61.6377 31.7812V30.9609C61.6377 29.8672 61.8278 28.901 62.208 28.0625C62.5882 27.224 63.1247 26.5833 63.8174 26.1406C64.5153 25.6927 65.3122 25.4688 66.208 25.4688C67.1195 25.4688 67.9215 25.6901 68.6143 26.1328C69.3122 26.5703 69.8486 27.2083 70.2236 28.0469C70.5986 28.8802 70.7861 29.8516 70.7861 30.9609V31.6797ZM69.2939 30.9453C69.2939 29.5964 69.0231 28.5625 68.4814 27.8438C67.9398 27.1198 67.182 26.7578 66.208 26.7578C65.2601 26.7578 64.5127 27.1198 63.9658 27.8438C63.4242 28.5625 63.1455 29.5625 63.1299 30.8438V31.6797C63.1299 32.987 63.4033 34.0156 63.9502 34.7656C64.5023 35.5104 65.2601 35.8828 66.2236 35.8828C67.1924 35.8828 67.9424 35.5312 68.4736 34.8281C69.0049 34.1198 69.2783 33.1068 69.2939 31.7891V30.9453ZM74.1768 28.5469L74.2236 29.6094C74.8695 28.7969 75.7132 28.3906 76.7549 28.3906C78.5413 28.3906 79.4424 29.3984 79.458 31.4141V37H78.0127V31.4062C78.0075 30.7969 77.8669 30.3464 77.5908 30.0547C77.32 29.763 76.8955 29.6172 76.3174 29.6172C75.8486 29.6172 75.4372 29.7422 75.083 29.9922C74.7288 30.2422 74.4528 30.5703 74.2549 30.9766V37H72.8096V28.5469H74.1768ZM83.208 37H81.7627V25H83.208V37ZM87.0986 37H85.6533V28.5469H87.0986V37ZM85.5361 26.3047C85.5361 26.0703 85.6064 25.8724 85.7471 25.7109C85.8929 25.5495 86.1064 25.4688 86.3877 25.4688C86.6689 25.4688 86.8825 25.5495 87.0283 25.7109C87.1742 25.8724 87.2471 26.0703 87.2471 26.3047C87.2471 26.5391 87.1742 26.7344 87.0283 26.8906C86.8825 27.0469 86.6689 27.125 86.3877 27.125C86.1064 27.125 85.8929 27.0469 85.7471 26.8906C85.6064 26.7344 85.5361 26.5391 85.5361 26.3047ZM90.7861 28.5469L90.833 29.6094C91.4788 28.7969 92.3226 28.3906 93.3643 28.3906C95.1507 28.3906 96.0518 29.3984 96.0674 31.4141V37H94.6221V31.4062C94.6169 30.7969 94.4762 30.3464 94.2002 30.0547C93.9294 29.763 93.5049 29.6172 92.9268 29.6172C92.458 29.6172 92.0465 29.7422 91.6924 29.9922C91.3382 30.2422 91.0622 30.5703 90.8643 30.9766V37H89.4189V28.5469H90.7861ZM101.755 37.1562C100.609 37.1562 99.6768 36.7812 98.958 36.0312C98.2393 35.276 97.8799 34.2682 97.8799 33.0078V32.7422C97.8799 31.9036 98.0387 31.1562 98.3564 30.5C98.6794 29.8385 99.1273 29.3229 99.7002 28.9531C100.278 28.5781 100.903 28.3906 101.575 28.3906C102.674 28.3906 103.528 28.7526 104.138 29.4766C104.747 30.2005 105.052 31.237 105.052 32.5859V33.1875H99.3252C99.346 34.0208 99.5882 34.6953 100.052 35.2109C100.521 35.7214 101.114 35.9766 101.833 35.9766C102.343 35.9766 102.776 35.8724 103.13 35.6641C103.484 35.4557 103.794 35.1797 104.06 34.8359L104.942 35.5234C104.234 36.612 103.172 37.1562 101.755 37.1562ZM101.575 29.5781C100.992 29.5781 100.502 29.7917 100.106 30.2188C99.7106 30.6406 99.4658 31.2344 99.3721 32H103.606V31.8906C103.565 31.1562 103.367 30.5885 103.013 30.1875C102.659 29.7812 102.179 29.5781 101.575 29.5781ZM114.091 35.9766C114.606 35.9766 115.057 35.8203 115.442 35.5078C115.828 35.1953 116.041 34.8047 116.083 34.3359H117.45C117.424 34.8203 117.257 35.2812 116.95 35.7188C116.643 36.1562 116.231 36.5052 115.716 36.7656C115.205 37.026 114.664 37.1562 114.091 37.1562C112.94 37.1562 112.023 36.7734 111.341 36.0078C110.664 35.237 110.325 34.1849 110.325 32.8516V32.6094C110.325 31.7865 110.476 31.0547 110.778 30.4141C111.08 29.7734 111.513 29.276 112.075 28.9219C112.643 28.5677 113.312 28.3906 114.083 28.3906C115.031 28.3906 115.817 28.6745 116.442 29.2422C117.073 29.8099 117.409 30.5469 117.45 31.4531H116.083C116.041 30.9062 115.833 30.4583 115.458 30.1094C115.088 29.7552 114.63 29.5781 114.083 29.5781C113.349 29.5781 112.778 29.8438 112.372 30.375C111.971 30.901 111.771 31.6641 111.771 32.6641V32.9375C111.771 33.9115 111.971 34.6615 112.372 35.1875C112.773 35.7135 113.346 35.9766 114.091 35.9766ZM124.294 37C124.211 36.8333 124.143 36.5365 124.091 36.1094C123.419 36.8073 122.617 37.1562 121.685 37.1562C120.851 37.1562 120.166 36.9219 119.63 36.4531C119.099 35.9792 118.833 35.3802 118.833 34.6562C118.833 33.776 119.166 33.0938 119.833 32.6094C120.505 32.1198 121.448 31.875 122.661 31.875H124.067V31.2109C124.067 30.7057 123.916 30.3047 123.614 30.0078C123.312 29.7057 122.867 29.5547 122.278 29.5547C121.763 29.5547 121.33 29.6849 120.981 29.9453C120.632 30.2057 120.458 30.5208 120.458 30.8906H119.005C119.005 30.4688 119.153 30.0625 119.45 29.6719C119.752 29.276 120.159 28.9635 120.669 28.7344C121.185 28.5052 121.75 28.3906 122.364 28.3906C123.338 28.3906 124.101 28.6354 124.653 29.125C125.205 29.6094 125.492 30.2786 125.513 31.1328V35.0234C125.513 35.7995 125.612 36.4167 125.81 36.875V37H124.294ZM121.896 35.8984C122.349 35.8984 122.778 35.7812 123.185 35.5469C123.591 35.3125 123.885 35.0078 124.067 34.6328V32.8984H122.935C121.164 32.8984 120.278 33.4167 120.278 34.4531C120.278 34.9062 120.429 35.2604 120.731 35.5156C121.034 35.7708 121.422 35.8984 121.896 35.8984ZM131.864 29.8438C131.646 29.8073 131.409 29.7891 131.153 29.7891C130.205 29.7891 129.562 30.1927 129.224 31V37H127.778V28.5469H129.185L129.208 29.5234C129.682 28.7682 130.354 28.3906 131.224 28.3906C131.505 28.3906 131.718 28.4271 131.864 28.5V29.8438ZM132.692 32.7031C132.692 31.4062 133 30.3646 133.614 29.5781C134.229 28.7865 135.034 28.3906 136.028 28.3906C137.018 28.3906 137.802 28.7292 138.38 29.4062V25H139.825V37H138.497L138.427 36.0938C137.849 36.8021 137.044 37.1562 136.013 37.1562C135.034 37.1562 134.234 36.7552 133.614 35.9531C133 35.151 132.692 34.1042 132.692 32.8125V32.7031ZM134.138 32.8672C134.138 33.8255 134.336 34.5755 134.731 35.1172C135.127 35.6589 135.674 35.9297 136.372 35.9297C137.289 35.9297 137.958 35.5182 138.38 34.6953V30.8125C137.948 30.0156 137.284 29.6172 136.388 29.6172C135.679 29.6172 135.127 29.8906 134.731 30.4375C134.336 30.9844 134.138 31.7943 134.138 32.8672ZM147.489 29.5703C148.13 28.7839 148.963 28.3906 149.989 28.3906C151.776 28.3906 152.677 29.3984 152.692 31.4141V37H151.247V31.4062C151.242 30.7969 151.101 30.3464 150.825 30.0547C150.554 29.763 150.13 29.6172 149.552 29.6172C149.083 29.6172 148.672 29.7422 148.317 29.9922C147.963 30.2422 147.687 30.5703 147.489 30.9766V37H146.044V25H147.489V29.5703ZM160.075 37C159.992 36.8333 159.924 36.5365 159.872 36.1094C159.2 36.8073 158.398 37.1562 157.466 37.1562C156.632 37.1562 155.948 36.9219 155.411 36.4531C154.88 35.9792 154.614 35.3802 154.614 34.6562C154.614 33.776 154.948 33.0938 155.614 32.6094C156.286 32.1198 157.229 31.875 158.442 31.875H159.849V31.2109C159.849 30.7057 159.698 30.3047 159.396 30.0078C159.093 29.7057 158.648 29.5547 158.06 29.5547C157.544 29.5547 157.112 29.6849 156.763 29.9453C156.414 30.2057 156.239 30.5208 156.239 30.8906H154.786C154.786 30.4688 154.935 30.0625 155.231 29.6719C155.534 29.276 155.94 28.9635 156.45 28.7344C156.966 28.5052 157.531 28.3906 158.146 28.3906C159.119 28.3906 159.882 28.6354 160.435 29.125C160.987 29.6094 161.273 30.2786 161.294 31.1328V35.0234C161.294 35.7995 161.393 36.4167 161.591 36.875V37H160.075ZM157.677 35.8984C158.13 35.8984 158.56 35.7812 158.966 35.5469C159.372 35.3125 159.666 35.0078 159.849 34.6328V32.8984H158.716C156.945 32.8984 156.06 33.4167 156.06 34.4531C156.06 34.9062 156.211 35.2604 156.513 35.5156C156.815 35.7708 157.203 35.8984 157.677 35.8984ZM168.481 34.7578C168.481 34.3672 168.333 34.0651 168.036 33.8516C167.744 33.6328 167.231 33.4453 166.497 33.2891C165.768 33.1328 165.187 32.9453 164.755 32.7266C164.328 32.5078 164.01 32.2474 163.802 31.9453C163.599 31.6432 163.497 31.2839 163.497 30.8672C163.497 30.1745 163.789 29.5885 164.372 29.1094C164.961 28.6302 165.711 28.3906 166.622 28.3906C167.58 28.3906 168.356 28.638 168.95 29.1328C169.549 29.6276 169.849 30.2604 169.849 31.0312H168.396C168.396 30.6354 168.226 30.2943 167.888 30.0078C167.554 29.7214 167.132 29.5781 166.622 29.5781C166.096 29.5781 165.685 29.6927 165.388 29.9219C165.091 30.151 164.942 30.4505 164.942 30.8203C164.942 31.1693 165.08 31.4323 165.356 31.6094C165.632 31.7865 166.13 31.9557 166.849 32.1172C167.573 32.2786 168.159 32.4714 168.606 32.6953C169.054 32.9193 169.385 33.1901 169.599 33.5078C169.817 33.8203 169.927 34.2031 169.927 34.6562C169.927 35.4115 169.625 36.0182 169.021 36.4766C168.416 36.9297 167.632 37.1562 166.669 37.1562C165.992 37.1562 165.393 37.0365 164.872 36.7969C164.351 36.5573 163.942 36.224 163.646 35.7969C163.354 35.3646 163.208 34.8984 163.208 34.3984H164.653C164.679 34.8828 164.872 35.2682 165.231 35.5547C165.596 35.8359 166.075 35.9766 166.669 35.9766C167.216 35.9766 167.653 35.8672 167.981 35.6484C168.315 35.4245 168.481 35.1276 168.481 34.7578ZM182.935 32.8672C182.935 34.1589 182.638 35.1979 182.044 35.9844C181.45 36.7656 180.653 37.1562 179.653 37.1562C178.586 37.1562 177.76 36.7786 177.177 36.0234L177.106 37H175.778V25H177.224V29.4766C177.807 28.7526 178.612 28.3906 179.638 28.3906C180.664 28.3906 181.468 28.7786 182.052 29.5547C182.64 30.3307 182.935 31.3932 182.935 32.7422V32.8672ZM181.489 32.7031C181.489 31.7188 181.299 30.9583 180.919 30.4219C180.539 29.8854 179.992 29.6172 179.278 29.6172C178.325 29.6172 177.64 30.0599 177.224 30.9453V34.6016C177.666 35.487 178.356 35.9297 179.294 35.9297C179.987 35.9297 180.526 35.6615 180.911 35.125C181.297 34.5885 181.489 33.7812 181.489 32.7031ZM188.271 37.1562C187.125 37.1562 186.192 36.7812 185.474 36.0312C184.755 35.276 184.396 34.2682 184.396 33.0078V32.7422C184.396 31.9036 184.554 31.1562 184.872 30.5C185.195 29.8385 185.643 29.3229 186.216 28.9531C186.794 28.5781 187.419 28.3906 188.091 28.3906C189.19 28.3906 190.044 28.7526 190.653 29.4766C191.263 30.2005 191.567 31.237 191.567 32.5859V33.1875H185.841C185.862 34.0208 186.104 34.6953 186.567 35.2109C187.036 35.7214 187.63 35.9766 188.349 35.9766C188.859 35.9766 189.291 35.8724 189.646 35.6641C190 35.4557 190.31 35.1797 190.575 34.8359L191.458 35.5234C190.75 36.612 189.687 37.1562 188.271 37.1562ZM188.091 29.5781C187.507 29.5781 187.018 29.7917 186.622 30.2188C186.226 30.6406 185.981 31.2344 185.888 32H190.122V31.8906C190.08 31.1562 189.882 30.5885 189.528 30.1875C189.174 29.7812 188.695 29.5781 188.091 29.5781ZM196.755 37.1562C195.609 37.1562 194.677 36.7812 193.958 36.0312C193.239 35.276 192.88 34.2682 192.88 33.0078V32.7422C192.88 31.9036 193.039 31.1562 193.356 30.5C193.679 29.8385 194.127 29.3229 194.7 28.9531C195.278 28.5781 195.903 28.3906 196.575 28.3906C197.674 28.3906 198.528 28.7526 199.138 29.4766C199.747 30.2005 200.052 31.237 200.052 32.5859V33.1875H194.325C194.346 34.0208 194.588 34.6953 195.052 35.2109C195.521 35.7214 196.114 35.9766 196.833 35.9766C197.343 35.9766 197.776 35.8724 198.13 35.6641C198.484 35.4557 198.794 35.1797 199.06 34.8359L199.942 35.5234C199.234 36.612 198.172 37.1562 196.755 37.1562ZM196.575 29.5781C195.992 29.5781 195.502 29.7917 195.106 30.2188C194.711 30.6406 194.466 31.2344 194.372 32H198.606V31.8906C198.565 31.1562 198.367 30.5885 198.013 30.1875C197.659 29.7812 197.179 29.5781 196.575 29.5781ZM203.099 28.5469L203.146 29.6094C203.791 28.7969 204.635 28.3906 205.677 28.3906C207.463 28.3906 208.364 29.3984 208.38 31.4141V37H206.935V31.4062C206.929 30.7969 206.789 30.3464 206.513 30.0547C206.242 29.763 205.817 29.6172 205.239 29.6172C204.771 29.6172 204.359 29.7422 204.005 29.9922C203.651 30.2422 203.375 30.5703 203.177 30.9766V37H201.731V28.5469H203.099ZM217.919 35.9766C218.435 35.9766 218.885 35.8203 219.271 35.5078C219.656 35.1953 219.869 34.8047 219.911 34.3359H221.278C221.252 34.8203 221.086 35.2812 220.778 35.7188C220.471 36.1562 220.06 36.5052 219.544 36.7656C219.034 37.026 218.492 37.1562 217.919 37.1562C216.768 37.1562 215.851 36.7734 215.169 36.0078C214.492 35.237 214.153 34.1849 214.153 32.8516V32.6094C214.153 31.7865 214.304 31.0547 214.606 30.4141C214.909 29.7734 215.341 29.276 215.903 28.9219C216.471 28.5677 217.14 28.3906 217.911 28.3906C218.859 28.3906 219.646 28.6745 220.271 29.2422C220.901 29.8099 221.237 30.5469 221.278 31.4531H219.911C219.869 30.9062 219.661 30.4583 219.286 30.1094C218.916 29.7552 218.458 29.5781 217.911 29.5781C217.177 29.5781 216.606 29.8438 216.2 30.375C215.799 30.901 215.599 31.6641 215.599 32.6641V32.9375C215.599 33.9115 215.799 34.6615 216.2 35.1875C216.601 35.7135 217.174 35.9766 217.919 35.9766ZM226.989 29.8438C226.771 29.8073 226.534 29.7891 226.278 29.7891C225.33 29.7891 224.687 30.1927 224.349 31V37H222.903V28.5469H224.31L224.333 29.5234C224.807 28.7682 225.479 28.3906 226.349 28.3906C226.63 28.3906 226.843 28.4271 226.989 28.5V29.8438ZM231.677 37.1562C230.531 37.1562 229.599 36.7812 228.88 36.0312C228.161 35.276 227.802 34.2682 227.802 33.0078V32.7422C227.802 31.9036 227.961 31.1562 228.278 30.5C228.601 29.8385 229.049 29.3229 229.622 28.9531C230.2 28.5781 230.825 28.3906 231.497 28.3906C232.596 28.3906 233.45 28.7526 234.06 29.4766C234.669 30.2005 234.974 31.237 234.974 32.5859V33.1875H229.247C229.268 34.0208 229.51 34.6953 229.974 35.2109C230.442 35.7214 231.036 35.9766 231.755 35.9766C232.265 35.9766 232.698 35.8724 233.052 35.6641C233.406 35.4557 233.716 35.1797 233.981 34.8359L234.864 35.5234C234.156 36.612 233.093 37.1562 231.677 37.1562ZM231.497 29.5781C230.914 29.5781 230.424 29.7917 230.028 30.2188C229.632 30.6406 229.388 31.2344 229.294 32H233.528V31.8906C233.487 31.1562 233.289 30.5885 232.935 30.1875C232.58 29.7812 232.101 29.5781 231.497 29.5781ZM241.872 37C241.789 36.8333 241.721 36.5365 241.669 36.1094C240.997 36.8073 240.195 37.1562 239.263 37.1562C238.429 37.1562 237.744 36.9219 237.208 36.4531C236.677 35.9792 236.411 35.3802 236.411 34.6562C236.411 33.776 236.744 33.0938 237.411 32.6094C238.083 32.1198 239.026 31.875 240.239 31.875H241.646V31.2109C241.646 30.7057 241.494 30.3047 241.192 30.0078C240.89 29.7057 240.445 29.5547 239.856 29.5547C239.341 29.5547 238.909 29.6849 238.56 29.9453C238.211 30.2057 238.036 30.5208 238.036 30.8906H236.583C236.583 30.4688 236.731 30.0625 237.028 29.6719C237.33 29.276 237.737 28.9635 238.247 28.7344C238.763 28.5052 239.328 28.3906 239.942 28.3906C240.916 28.3906 241.679 28.6354 242.231 29.125C242.784 29.6094 243.07 30.2786 243.091 31.1328V35.0234C243.091 35.7995 243.19 36.4167 243.388 36.875V37H241.872ZM239.474 35.8984C239.927 35.8984 240.356 35.7812 240.763 35.5469C241.169 35.3125 241.463 35.0078 241.646 34.6328V32.8984H240.513C238.742 32.8984 237.856 33.4167 237.856 34.4531C237.856 34.9062 238.007 35.2604 238.31 35.5156C238.612 35.7708 239 35.8984 239.474 35.8984ZM247.317 26.5V28.5469H248.896V29.6641H247.317V34.9062C247.317 35.2448 247.388 35.5 247.528 35.6719C247.669 35.8385 247.909 35.9219 248.247 35.9219C248.414 35.9219 248.643 35.8906 248.935 35.8281V37C248.554 37.1042 248.185 37.1562 247.825 37.1562C247.179 37.1562 246.692 36.9609 246.364 36.5703C246.036 36.1797 245.872 35.625 245.872 34.9062V29.6641H244.333V28.5469H245.872V26.5H247.317ZM254.099 37.1562C252.953 37.1562 252.021 36.7812 251.302 36.0312C250.583 35.276 250.224 34.2682 250.224 33.0078V32.7422C250.224 31.9036 250.382 31.1562 250.7 30.5C251.023 29.8385 251.471 29.3229 252.044 28.9531C252.622 28.5781 253.247 28.3906 253.919 28.3906C255.018 28.3906 255.872 28.7526 256.481 29.4766C257.091 30.2005 257.396 31.237 257.396 32.5859V33.1875H251.669C251.69 34.0208 251.932 34.6953 252.396 35.2109C252.864 35.7214 253.458 35.9766 254.177 35.9766C254.687 35.9766 255.119 35.8724 255.474 35.6641C255.828 35.4557 256.138 35.1797 256.403 34.8359L257.286 35.5234C256.578 36.612 255.515 37.1562 254.099 37.1562ZM253.919 29.5781C253.336 29.5781 252.846 29.7917 252.45 30.2188C252.054 30.6406 251.81 31.2344 251.716 32H255.95V31.8906C255.909 31.1562 255.711 30.5885 255.356 30.1875C255.002 29.7812 254.523 29.5781 253.919 29.5781ZM258.724 32.7031C258.724 31.4062 259.031 30.3646 259.646 29.5781C260.26 28.7865 261.065 28.3906 262.06 28.3906C263.049 28.3906 263.833 28.7292 264.411 29.4062V25H265.856V37H264.528L264.458 36.0938C263.88 36.8021 263.075 37.1562 262.044 37.1562C261.065 37.1562 260.265 36.7552 259.646 35.9531C259.031 35.151 258.724 34.1042 258.724 32.8125V32.7031ZM260.169 32.8672C260.169 33.8255 260.367 34.5755 260.763 35.1172C261.159 35.6589 261.705 35.9297 262.403 35.9297C263.32 35.9297 263.989 35.5182 264.411 34.6953V30.8125C263.979 30.0156 263.315 29.6172 262.419 29.6172C261.711 29.6172 261.159 29.8906 260.763 30.4375C260.367 30.9844 260.169 31.7943 260.169 32.8672ZM276.997 34.7578C276.997 34.3672 276.849 34.0651 276.552 33.8516C276.26 33.6328 275.747 33.4453 275.013 33.2891C274.284 33.1328 273.703 32.9453 273.271 32.7266C272.843 32.5078 272.526 32.2474 272.317 31.9453C272.114 31.6432 272.013 31.2839 272.013 30.8672C272.013 30.1745 272.304 29.5885 272.888 29.1094C273.476 28.6302 274.226 28.3906 275.138 28.3906C276.096 28.3906 276.872 28.638 277.466 29.1328C278.065 29.6276 278.364 30.2604 278.364 31.0312H276.911C276.911 30.6354 276.742 30.2943 276.403 30.0078C276.07 29.7214 275.648 29.5781 275.138 29.5781C274.612 29.5781 274.2 29.6927 273.903 29.9219C273.606 30.151 273.458 30.4505 273.458 30.8203C273.458 31.1693 273.596 31.4323 273.872 31.6094C274.148 31.7865 274.646 31.9557 275.364 32.1172C276.088 32.2786 276.674 32.4714 277.122 32.6953C277.57 32.9193 277.901 33.1901 278.114 33.5078C278.333 33.8203 278.442 34.2031 278.442 34.6562C278.442 35.4115 278.14 36.0182 277.536 36.4766C276.932 36.9297 276.148 37.1562 275.185 37.1562C274.507 37.1562 273.909 37.0365 273.388 36.7969C272.867 36.5573 272.458 36.224 272.161 35.7969C271.869 35.3646 271.724 34.8984 271.724 34.3984H273.169C273.195 34.8828 273.388 35.2682 273.747 35.5547C274.112 35.8359 274.591 35.9766 275.185 35.9766C275.731 35.9766 276.169 35.8672 276.497 35.6484C276.83 35.4245 276.997 35.1276 276.997 34.7578ZM285.544 36.1641C284.981 36.8255 284.156 37.1562 283.067 37.1562C282.166 37.1562 281.479 36.8958 281.005 36.375C280.536 35.849 280.299 35.0729 280.294 34.0469V28.5469H281.739V34.0078C281.739 35.2891 282.26 35.9297 283.302 35.9297C284.406 35.9297 285.14 35.5182 285.505 34.6953V28.5469H286.95V37H285.575L285.544 36.1641ZM292.544 35.9766C293.06 35.9766 293.51 35.8203 293.896 35.5078C294.281 35.1953 294.494 34.8047 294.536 34.3359H295.903C295.877 34.8203 295.711 35.2812 295.403 35.7188C295.096 36.1562 294.685 36.5052 294.169 36.7656C293.659 37.026 293.117 37.1562 292.544 37.1562C291.393 37.1562 290.476 36.7734 289.794 36.0078C289.117 35.237 288.778 34.1849 288.778 32.8516V32.6094C288.778 31.7865 288.929 31.0547 289.231 30.4141C289.534 29.7734 289.966 29.276 290.528 28.9219C291.096 28.5677 291.765 28.3906 292.536 28.3906C293.484 28.3906 294.271 28.6745 294.896 29.2422C295.526 29.8099 295.862 30.5469 295.903 31.4531H294.536C294.494 30.9062 294.286 30.4583 293.911 30.1094C293.541 29.7552 293.083 29.5781 292.536 29.5781C291.802 29.5781 291.231 29.8438 290.825 30.375C290.424 30.901 290.224 31.6641 290.224 32.6641V32.9375C290.224 33.9115 290.424 34.6615 290.825 35.1875C291.226 35.7135 291.799 35.9766 292.544 35.9766ZM300.919 35.9766C301.435 35.9766 301.885 35.8203 302.271 35.5078C302.656 35.1953 302.869 34.8047 302.911 34.3359H304.278C304.252 34.8203 304.086 35.2812 303.778 35.7188C303.471 36.1562 303.06 36.5052 302.544 36.7656C302.034 37.026 301.492 37.1562 300.919 37.1562C299.768 37.1562 298.851 36.7734 298.169 36.0078C297.492 35.237 297.153 34.1849 297.153 32.8516V32.6094C297.153 31.7865 297.304 31.0547 297.606 30.4141C297.909 29.7734 298.341 29.276 298.903 28.9219C299.471 28.5677 300.14 28.3906 300.911 28.3906C301.859 28.3906 302.646 28.6745 303.271 29.2422C303.901 29.8099 304.237 30.5469 304.278 31.4531H302.911C302.869 30.9062 302.661 30.4583 302.286 30.1094C301.916 29.7552 301.458 29.5781 300.911 29.5781C300.177 29.5781 299.606 29.8438 299.2 30.375C298.799 30.901 298.599 31.6641 298.599 32.6641V32.9375C298.599 33.9115 298.799 34.6615 299.2 35.1875C299.601 35.7135 300.174 35.9766 300.919 35.9766ZM309.411 37.1562C308.265 37.1562 307.333 36.7812 306.614 36.0312C305.896 35.276 305.536 34.2682 305.536 33.0078V32.7422C305.536 31.9036 305.695 31.1562 306.013 30.5C306.336 29.8385 306.784 29.3229 307.356 28.9531C307.935 28.5781 308.56 28.3906 309.231 28.3906C310.33 28.3906 311.185 28.7526 311.794 29.4766C312.403 30.2005 312.708 31.237 312.708 32.5859V33.1875H306.981C307.002 34.0208 307.244 34.6953 307.708 35.2109C308.177 35.7214 308.771 35.9766 309.489 35.9766C310 35.9766 310.432 35.8724 310.786 35.6641C311.14 35.4557 311.45 35.1797 311.716 34.8359L312.599 35.5234C311.89 36.612 310.828 37.1562 309.411 37.1562ZM309.231 29.5781C308.648 29.5781 308.159 29.7917 307.763 30.2188C307.367 30.6406 307.122 31.2344 307.028 32H311.263V31.8906C311.221 31.1562 311.023 30.5885 310.669 30.1875C310.315 29.7812 309.836 29.5781 309.231 29.5781ZM319.31 34.7578C319.31 34.3672 319.161 34.0651 318.864 33.8516C318.573 33.6328 318.06 33.4453 317.325 33.2891C316.596 33.1328 316.015 32.9453 315.583 32.7266C315.156 32.5078 314.838 32.2474 314.63 31.9453C314.427 31.6432 314.325 31.2839 314.325 30.8672C314.325 30.1745 314.617 29.5885 315.2 29.1094C315.789 28.6302 316.539 28.3906 317.45 28.3906C318.409 28.3906 319.185 28.638 319.778 29.1328C320.377 29.6276 320.677 30.2604 320.677 31.0312H319.224C319.224 30.6354 319.054 30.2943 318.716 30.0078C318.382 29.7214 317.961 29.5781 317.45 29.5781C316.924 29.5781 316.513 29.6927 316.216 29.9219C315.919 30.151 315.771 30.4505 315.771 30.8203C315.771 31.1693 315.909 31.4323 316.185 31.6094C316.461 31.7865 316.958 31.9557 317.677 32.1172C318.401 32.2786 318.987 32.4714 319.435 32.6953C319.882 32.9193 320.213 33.1901 320.427 33.5078C320.646 33.8203 320.755 34.2031 320.755 34.6562C320.755 35.4115 320.453 36.0182 319.849 36.4766C319.244 36.9297 318.461 37.1562 317.497 37.1562C316.82 37.1562 316.221 37.0365 315.7 36.7969C315.179 36.5573 314.771 36.224 314.474 35.7969C314.182 35.3646 314.036 34.8984 314.036 34.3984H315.481C315.507 34.8828 315.7 35.2682 316.06 35.5547C316.424 35.8359 316.903 35.9766 317.497 35.9766C318.044 35.9766 318.481 35.8672 318.81 35.6484C319.143 35.4245 319.31 35.1276 319.31 34.7578ZM327.56 34.7578C327.56 34.3672 327.411 34.0651 327.114 33.8516C326.823 33.6328 326.31 33.4453 325.575 33.2891C324.846 33.1328 324.265 32.9453 323.833 32.7266C323.406 32.5078 323.088 32.2474 322.88 31.9453C322.677 31.6432 322.575 31.2839 322.575 30.8672C322.575 30.1745 322.867 29.5885 323.45 29.1094C324.039 28.6302 324.789 28.3906 325.7 28.3906C326.659 28.3906 327.435 28.638 328.028 29.1328C328.627 29.6276 328.927 30.2604 328.927 31.0312H327.474C327.474 30.6354 327.304 30.2943 326.966 30.0078C326.632 29.7214 326.211 29.5781 325.7 29.5781C325.174 29.5781 324.763 29.6927 324.466 29.9219C324.169 30.151 324.021 30.4505 324.021 30.8203C324.021 31.1693 324.159 31.4323 324.435 31.6094C324.711 31.7865 325.208 31.9557 325.927 32.1172C326.651 32.2786 327.237 32.4714 327.685 32.6953C328.132 32.9193 328.463 33.1901 328.677 33.5078C328.896 33.8203 329.005 34.2031 329.005 34.6562C329.005 35.4115 328.703 36.0182 328.099 36.4766C327.494 36.9297 326.711 37.1562 325.747 37.1562C325.07 37.1562 324.471 37.0365 323.95 36.7969C323.429 36.5573 323.021 36.224 322.724 35.7969C322.432 35.3646 322.286 34.8984 322.286 34.3984H323.731C323.757 34.8828 323.95 35.2682 324.31 35.5547C324.674 35.8359 325.153 35.9766 325.747 35.9766C326.294 35.9766 326.731 35.8672 327.06 35.6484C327.393 35.4245 327.56 35.1276 327.56 34.7578ZM331.599 37V29.6641H330.263V28.5469H331.599V27.6797C331.599 26.7734 331.841 26.0729 332.325 25.5781C332.81 25.0833 333.494 24.8359 334.38 24.8359C334.713 24.8359 335.044 24.8802 335.372 24.9688L335.294 26.1406C335.049 26.0938 334.789 26.0703 334.513 26.0703C334.044 26.0703 333.682 26.2083 333.427 26.4844C333.172 26.7552 333.044 27.1458 333.044 27.6562V28.5469H334.849V29.6641H333.044V37H331.599ZM341.669 36.1641C341.106 36.8255 340.281 37.1562 339.192 37.1562C338.291 37.1562 337.604 36.8958 337.13 36.375C336.661 35.849 336.424 35.0729 336.419 34.0469V28.5469H337.864V34.0078C337.864 35.2891 338.385 35.9297 339.427 35.9297C340.531 35.9297 341.265 35.5182 341.63 34.6953V28.5469H343.075V37H341.7L341.669 36.1641ZM346.849 37H345.403V25H346.849V37ZM350.739 37H349.294V25H350.739V37ZM355.825 34.8828L357.794 28.5469H359.341L355.942 38.3047C355.416 39.7109 354.58 40.4141 353.435 40.4141L353.161 40.3906L352.622 40.2891V39.1172L353.013 39.1484C353.502 39.1484 353.882 39.0495 354.153 38.8516C354.429 38.6536 354.656 38.2917 354.833 37.7656L355.153 36.9062L352.138 28.5469H353.716L355.825 34.8828ZM359.825 36.2422C359.825 35.9922 359.898 35.7839 360.044 35.6172C360.195 35.4505 360.419 35.3672 360.716 35.3672C361.013 35.3672 361.237 35.4505 361.388 35.6172C361.544 35.7839 361.622 35.9922 361.622 36.2422C361.622 36.4818 361.544 36.6823 361.388 36.8438C361.237 37.0052 361.013 37.0859 360.716 37.0859C360.419 37.0859 360.195 37.0052 360.044 36.8438C359.898 36.6823 359.825 36.4818 359.825 36.2422Z" fill="#656668"/>
<path d="M28.7587 49H31.6387V43.848H34.8387V41.32H31.6387V26.088H28.1507L16.9187 41.64V43.848H28.7587V49ZM20.2787 41.32L28.8867 29.128V41.32H20.2787Z" fill="#656668"/>
</svg>
