<svg width="620" height="113" viewBox="0 0 620 113" fill="none" xmlns="http://www.w3.org/2000/svg">
<g filter="url(#filter0_d)">
<rect x="19" y="16" width="582" height="75" rx="24" fill="white"/>
</g>
<path d="M87.3171 55.0312H82.5515L81.4812 58H79.9343L84.2781 46.625H85.5906L89.9421 58H88.4031L87.3171 55.0312ZM83.0046 53.7969H86.8718L84.9343 48.4766L83.0046 53.7969ZM90.8953 53.7031C90.8953 52.4062 91.2026 51.3646 91.8171 50.5781C92.4317 49.7865 93.2364 49.3906 94.2312 49.3906C95.2208 49.3906 96.0046 49.7292 96.5828 50.4062V46H98.0281V58H96.7L96.6296 57.0938C96.0515 57.8021 95.2468 58.1562 94.2156 58.1562C93.2364 58.1562 92.4369 57.7552 91.8171 56.9531C91.2026 56.151 90.8953 55.1042 90.8953 53.8125V53.7031ZM92.3406 53.8672C92.3406 54.8255 92.5385 55.5755 92.9343 56.1172C93.3302 56.6589 93.877 56.9297 94.575 56.9297C95.4916 56.9297 96.1609 56.5182 96.5828 55.6953V51.8125C96.1505 51.0156 95.4864 50.6172 94.5906 50.6172C93.8822 50.6172 93.3302 50.8906 92.9343 51.4375C92.5385 51.9844 92.3406 52.7943 92.3406 53.8672ZM99.9265 53.7031C99.9265 52.4062 100.234 51.3646 100.848 50.5781C101.463 49.7865 102.268 49.3906 103.262 49.3906C104.252 49.3906 105.036 49.7292 105.614 50.4062V46H107.059V58H105.731L105.661 57.0938C105.083 57.8021 104.278 58.1562 103.247 58.1562C102.268 58.1562 101.468 57.7552 100.848 56.9531C100.234 56.151 99.9265 55.1042 99.9265 53.8125V53.7031ZM101.372 53.8672C101.372 54.8255 101.57 55.5755 101.966 56.1172C102.361 56.6589 102.908 56.9297 103.606 56.9297C104.523 56.9297 105.192 56.5182 105.614 55.6953V51.8125C105.182 51.0156 104.518 50.6172 103.622 50.6172C102.913 50.6172 102.361 50.8906 101.966 51.4375C101.57 51.9844 101.372 52.7943 101.372 53.8672ZM115.239 47.5V49.5469H116.817V50.6641H115.239V55.9062C115.239 56.2448 115.309 56.5 115.45 56.6719C115.591 56.8385 115.83 56.9219 116.169 56.9219C116.335 56.9219 116.565 56.8906 116.856 56.8281V58C116.476 58.1042 116.106 58.1562 115.747 58.1562C115.101 58.1562 114.614 57.9609 114.286 57.5703C113.958 57.1797 113.794 56.625 113.794 55.9062V50.6641H112.255V49.5469H113.794V47.5H115.239ZM119.958 50.5703C120.598 49.7839 121.432 49.3906 122.458 49.3906C124.244 49.3906 125.145 50.3984 125.161 52.4141V58H123.716V52.4062C123.71 51.7969 123.57 51.3464 123.294 51.0547C123.023 50.763 122.598 50.6172 122.02 50.6172C121.552 50.6172 121.14 50.7422 120.786 50.9922C120.432 51.2422 120.156 51.5703 119.958 51.9766V58H118.512V46H119.958V50.5703ZM130.833 58.1562C129.687 58.1562 128.755 57.7812 128.036 57.0312C127.317 56.276 126.958 55.2682 126.958 54.0078V53.7422C126.958 52.9036 127.117 52.1562 127.434 51.5C127.757 50.8385 128.205 50.3229 128.778 49.9531C129.356 49.5781 129.981 49.3906 130.653 49.3906C131.752 49.3906 132.606 49.7526 133.216 50.4766C133.825 51.2005 134.13 52.237 134.13 53.5859V54.1875H128.403C128.424 55.0208 128.666 55.6953 129.13 56.2109C129.598 56.7214 130.192 56.9766 130.911 56.9766C131.421 56.9766 131.854 56.8724 132.208 56.6641C132.562 56.4557 132.872 56.1797 133.137 55.8359L134.02 56.5234C133.312 57.612 132.249 58.1562 130.833 58.1562ZM130.653 50.5781C130.07 50.5781 129.58 50.7917 129.184 51.2188C128.788 51.6406 128.544 52.2344 128.45 53H132.684V52.8906C132.643 52.1562 132.445 51.5885 132.091 51.1875C131.736 50.7812 131.257 50.5781 130.653 50.5781ZM144.997 58C144.913 57.8333 144.846 57.5365 144.794 57.1094C144.122 57.8073 143.32 58.1562 142.387 58.1562C141.554 58.1562 140.869 57.9219 140.333 57.4531C139.802 56.9792 139.536 56.3802 139.536 55.6562C139.536 54.776 139.869 54.0938 140.536 53.6094C141.208 53.1198 142.15 52.875 143.364 52.875H144.77V52.2109C144.77 51.7057 144.619 51.3047 144.317 51.0078C144.015 50.7057 143.57 50.5547 142.981 50.5547C142.466 50.5547 142.033 50.6849 141.684 50.9453C141.335 51.2057 141.161 51.5208 141.161 51.8906H139.708C139.708 51.4688 139.856 51.0625 140.153 50.6719C140.455 50.276 140.861 49.9635 141.372 49.7344C141.887 49.5052 142.453 49.3906 143.067 49.3906C144.041 49.3906 144.804 49.6354 145.356 50.125C145.908 50.6094 146.195 51.2786 146.216 52.1328V56.0234C146.216 56.7995 146.315 57.4167 146.512 57.875V58H144.997ZM142.598 56.8984C143.052 56.8984 143.481 56.7812 143.887 56.5469C144.294 56.3125 144.588 56.0078 144.77 55.6328V53.8984H143.637C141.867 53.8984 140.981 54.4167 140.981 55.4531C140.981 55.9062 141.132 56.2604 141.434 56.5156C141.736 56.7708 142.124 56.8984 142.598 56.8984ZM149.841 49.5469L149.88 50.4844C150.499 49.7552 151.335 49.3906 152.387 49.3906C153.57 49.3906 154.374 49.8438 154.802 50.75C155.083 50.3438 155.447 50.0156 155.895 49.7656C156.348 49.5156 156.882 49.3906 157.497 49.3906C159.351 49.3906 160.294 50.3724 160.325 52.3359V58H158.88V52.4219C158.88 51.8177 158.742 51.3672 158.466 51.0703C158.19 50.7682 157.726 50.6172 157.075 50.6172C156.538 50.6172 156.093 50.7786 155.739 51.1016C155.385 51.4193 155.179 51.849 155.122 52.3906V58H153.669V52.4609C153.669 51.2318 153.067 50.6172 151.864 50.6172C150.916 50.6172 150.268 51.0208 149.919 51.8281V58H148.473V49.5469H149.841ZM162.13 53.6953C162.13 52.8672 162.291 52.1224 162.614 51.4609C162.942 50.7995 163.395 50.2891 163.973 49.9297C164.557 49.5703 165.221 49.3906 165.966 49.3906C167.117 49.3906 168.046 49.7891 168.755 50.5859C169.468 51.3828 169.825 52.4427 169.825 53.7656V53.8672C169.825 54.6901 169.666 55.4297 169.348 56.0859C169.036 56.737 168.585 57.2448 167.997 57.6094C167.413 57.974 166.742 58.1562 165.981 58.1562C164.835 58.1562 163.906 57.7578 163.192 56.9609C162.484 56.1641 162.13 55.1094 162.13 53.7969V53.6953ZM163.583 53.8672C163.583 54.8047 163.799 55.5573 164.231 56.125C164.669 56.6927 165.252 56.9766 165.981 56.9766C166.716 56.9766 167.299 56.6901 167.731 56.1172C168.163 55.5391 168.38 54.7318 168.38 53.6953C168.38 52.7682 168.158 52.0182 167.716 51.4453C167.278 50.8672 166.695 50.5781 165.966 50.5781C165.252 50.5781 164.677 50.862 164.239 51.4297C163.802 51.9974 163.583 52.8099 163.583 53.8672ZM176.856 57.1641C176.294 57.8255 175.468 58.1562 174.38 58.1562C173.479 58.1562 172.791 57.8958 172.317 57.375C171.848 56.849 171.611 56.0729 171.606 55.0469V49.5469H173.052V55.0078C173.052 56.2891 173.572 56.9297 174.614 56.9297C175.718 56.9297 176.453 56.5182 176.817 55.6953V49.5469H178.262V58H176.887L176.856 57.1641ZM181.833 49.5469L181.88 50.6094C182.525 49.7969 183.369 49.3906 184.411 49.3906C186.197 49.3906 187.098 50.3984 187.114 52.4141V58H185.669V52.4062C185.663 51.7969 185.523 51.3464 185.247 51.0547C184.976 50.763 184.552 50.6172 183.973 50.6172C183.505 50.6172 183.093 50.7422 182.739 50.9922C182.385 51.2422 182.109 51.5703 181.911 51.9766V58H180.466V49.5469H181.833ZM191.255 47.5V49.5469H192.833V50.6641H191.255V55.9062C191.255 56.2448 191.325 56.5 191.466 56.6719C191.606 56.8385 191.846 56.9219 192.184 56.9219C192.351 56.9219 192.58 56.8906 192.872 56.8281V58C192.492 58.1042 192.122 58.1562 191.762 58.1562C191.117 58.1562 190.63 57.9609 190.302 57.5703C189.973 57.1797 189.809 56.625 189.809 55.9062V50.6641H188.27V49.5469H189.809V47.5H191.255ZM199.864 49.5469L199.911 50.6094C200.557 49.7969 201.4 49.3906 202.442 49.3906C204.229 49.3906 205.13 50.3984 205.145 52.4141V58H203.7V52.4062C203.695 51.7969 203.554 51.3464 203.278 51.0547C203.007 50.763 202.583 50.6172 202.005 50.6172C201.536 50.6172 201.124 50.7422 200.77 50.9922C200.416 51.2422 200.14 51.5703 199.942 51.9766V58H198.497V49.5469H199.864ZM210.833 58.1562C209.687 58.1562 208.755 57.7812 208.036 57.0312C207.317 56.276 206.958 55.2682 206.958 54.0078V53.7422C206.958 52.9036 207.117 52.1562 207.434 51.5C207.757 50.8385 208.205 50.3229 208.778 49.9531C209.356 49.5781 209.981 49.3906 210.653 49.3906C211.752 49.3906 212.606 49.7526 213.216 50.4766C213.825 51.2005 214.13 52.237 214.13 53.5859V54.1875H208.403C208.424 55.0208 208.666 55.6953 209.13 56.2109C209.598 56.7214 210.192 56.9766 210.911 56.9766C211.421 56.9766 211.854 56.8724 212.208 56.6641C212.562 56.4557 212.872 56.1797 213.137 55.8359L214.02 56.5234C213.312 57.612 212.249 58.1562 210.833 58.1562ZM210.653 50.5781C210.07 50.5781 209.58 50.7917 209.184 51.2188C208.788 51.6406 208.544 52.2344 208.45 53H212.684V52.8906C212.643 52.1562 212.445 51.5885 212.091 51.1875C211.736 50.7812 211.257 50.5781 210.653 50.5781ZM219.317 58.1562C218.171 58.1562 217.239 57.7812 216.52 57.0312C215.802 56.276 215.442 55.2682 215.442 54.0078V53.7422C215.442 52.9036 215.601 52.1562 215.919 51.5C216.242 50.8385 216.69 50.3229 217.262 49.9531C217.841 49.5781 218.466 49.3906 219.137 49.3906C220.236 49.3906 221.091 49.7526 221.7 50.4766C222.309 51.2005 222.614 52.237 222.614 53.5859V54.1875H216.887C216.908 55.0208 217.15 55.6953 217.614 56.2109C218.083 56.7214 218.677 56.9766 219.395 56.9766C219.906 56.9766 220.338 56.8724 220.692 56.6641C221.046 56.4557 221.356 56.1797 221.622 55.8359L222.505 56.5234C221.796 57.612 220.734 58.1562 219.317 58.1562ZM219.137 50.5781C218.554 50.5781 218.065 50.7917 217.669 51.2188C217.273 51.6406 217.028 52.2344 216.934 53H221.169V52.8906C221.127 52.1562 220.929 51.5885 220.575 51.1875C220.221 50.7812 219.742 50.5781 219.137 50.5781ZM223.942 53.7031C223.942 52.4062 224.249 51.3646 224.864 50.5781C225.479 49.7865 226.283 49.3906 227.278 49.3906C228.268 49.3906 229.052 49.7292 229.63 50.4062V46H231.075V58H229.747L229.677 57.0938C229.098 57.8021 228.294 58.1562 227.262 58.1562C226.283 58.1562 225.484 57.7552 224.864 56.9531C224.249 56.151 223.942 55.1042 223.942 53.8125V53.7031ZM225.387 53.8672C225.387 54.8255 225.585 55.5755 225.981 56.1172C226.377 56.6589 226.924 56.9297 227.622 56.9297C228.538 56.9297 229.208 56.5182 229.63 55.6953V51.8125C229.197 51.0156 228.533 50.6172 227.637 50.6172C226.929 50.6172 226.377 50.8906 225.981 51.4375C225.585 51.9844 225.387 52.7943 225.387 53.8672ZM236.833 58.1562C235.687 58.1562 234.755 57.7812 234.036 57.0312C233.317 56.276 232.958 55.2682 232.958 54.0078V53.7422C232.958 52.9036 233.117 52.1562 233.434 51.5C233.757 50.8385 234.205 50.3229 234.778 49.9531C235.356 49.5781 235.981 49.3906 236.653 49.3906C237.752 49.3906 238.606 49.7526 239.216 50.4766C239.825 51.2005 240.13 52.237 240.13 53.5859V54.1875H234.403C234.424 55.0208 234.666 55.6953 235.13 56.2109C235.598 56.7214 236.192 56.9766 236.911 56.9766C237.421 56.9766 237.854 56.8724 238.208 56.6641C238.562 56.4557 238.872 56.1797 239.137 55.8359L240.02 56.5234C239.312 57.612 238.249 58.1562 236.833 58.1562ZM236.653 50.5781C236.07 50.5781 235.58 50.7917 235.184 51.2188C234.788 51.6406 234.544 52.2344 234.45 53H238.684V52.8906C238.643 52.1562 238.445 51.5885 238.091 51.1875C237.736 50.7812 237.257 50.5781 236.653 50.5781ZM241.458 53.7031C241.458 52.4062 241.765 51.3646 242.38 50.5781C242.994 49.7865 243.799 49.3906 244.794 49.3906C245.783 49.3906 246.567 49.7292 247.145 50.4062V46H248.591V58H247.262L247.192 57.0938C246.614 57.8021 245.809 58.1562 244.778 58.1562C243.799 58.1562 242.999 57.7552 242.38 56.9531C241.765 56.151 241.458 55.1042 241.458 53.8125V53.7031ZM242.903 53.8672C242.903 54.8255 243.101 55.5755 243.497 56.1172C243.893 56.6589 244.44 56.9297 245.137 56.9297C246.054 56.9297 246.723 56.5182 247.145 55.6953V51.8125C246.713 51.0156 246.049 50.6172 245.153 50.6172C244.445 50.6172 243.893 50.8906 243.497 51.4375C243.101 51.9844 242.903 52.7943 242.903 53.8672ZM256.77 47.5V49.5469H258.348V50.6641H256.77V55.9062C256.77 56.2448 256.841 56.5 256.981 56.6719C257.122 56.8385 257.361 56.9219 257.7 56.9219C257.867 56.9219 258.096 56.8906 258.387 56.8281V58C258.007 58.1042 257.637 58.1562 257.278 58.1562C256.632 58.1562 256.145 57.9609 255.817 57.5703C255.489 57.1797 255.325 56.625 255.325 55.9062V50.6641H253.786V49.5469H255.325V47.5H256.77ZM259.505 53.6953C259.505 52.8672 259.666 52.1224 259.989 51.4609C260.317 50.7995 260.77 50.2891 261.348 49.9297C261.932 49.5703 262.596 49.3906 263.341 49.3906C264.492 49.3906 265.421 49.7891 266.13 50.5859C266.843 51.3828 267.2 52.4427 267.2 53.7656V53.8672C267.2 54.6901 267.041 55.4297 266.723 56.0859C266.411 56.737 265.96 57.2448 265.372 57.6094C264.788 57.974 264.117 58.1562 263.356 58.1562C262.21 58.1562 261.281 57.7578 260.567 56.9609C259.859 56.1641 259.505 55.1094 259.505 53.7969V53.6953ZM260.958 53.8672C260.958 54.8047 261.174 55.5573 261.606 56.125C262.044 56.6927 262.627 56.9766 263.356 56.9766C264.091 56.9766 264.674 56.6901 265.106 56.1172C265.538 55.5391 265.755 54.7318 265.755 53.6953C265.755 52.7682 265.533 52.0182 265.091 51.4453C264.653 50.8672 264.07 50.5781 263.341 50.5781C262.627 50.5781 262.052 50.862 261.614 51.4297C261.177 51.9974 260.958 52.8099 260.958 53.8672ZM272.63 53.7031C272.63 52.4062 272.937 51.3646 273.552 50.5781C274.166 49.7865 274.971 49.3906 275.966 49.3906C276.955 49.3906 277.739 49.7292 278.317 50.4062V46H279.762V58H278.434L278.364 57.0938C277.786 57.8021 276.981 58.1562 275.95 58.1562C274.971 58.1562 274.171 57.7552 273.552 56.9531C272.937 56.151 272.63 55.1042 272.63 53.8125V53.7031ZM274.075 53.8672C274.075 54.8255 274.273 55.5755 274.669 56.1172C275.065 56.6589 275.611 56.9297 276.309 56.9297C277.226 56.9297 277.895 56.5182 278.317 55.6953V51.8125C277.885 51.0156 277.221 50.6172 276.325 50.6172C275.617 50.6172 275.065 50.8906 274.669 51.4375C274.273 51.9844 274.075 52.7943 274.075 53.8672ZM285.52 58.1562C284.374 58.1562 283.442 57.7812 282.723 57.0312C282.005 56.276 281.645 55.2682 281.645 54.0078V53.7422C281.645 52.9036 281.804 52.1562 282.122 51.5C282.445 50.8385 282.893 50.3229 283.466 49.9531C284.044 49.5781 284.669 49.3906 285.341 49.3906C286.44 49.3906 287.294 49.7526 287.903 50.4766C288.512 51.2005 288.817 52.237 288.817 53.5859V54.1875H283.091C283.111 55.0208 283.354 55.6953 283.817 56.2109C284.286 56.7214 284.88 56.9766 285.598 56.9766C286.109 56.9766 286.541 56.8724 286.895 56.6641C287.249 56.4557 287.559 56.1797 287.825 55.8359L288.708 56.5234C287.999 57.612 286.937 58.1562 285.52 58.1562ZM285.341 50.5781C284.757 50.5781 284.268 50.7917 283.872 51.2188C283.476 51.6406 283.231 52.2344 283.137 53H287.372V52.8906C287.33 52.1562 287.132 51.5885 286.778 51.1875C286.424 50.7812 285.945 50.5781 285.341 50.5781ZM297.637 53.8672C297.637 55.1536 297.343 56.1901 296.755 56.9766C296.166 57.763 295.369 58.1562 294.364 58.1562C293.338 58.1562 292.531 57.8307 291.942 57.1797V61.25H290.497V49.5469H291.817L291.887 50.4844C292.476 49.7552 293.294 49.3906 294.341 49.3906C295.356 49.3906 296.158 49.7734 296.747 50.5391C297.341 51.3047 297.637 52.3698 297.637 53.7344V53.8672ZM296.192 53.7031C296.192 52.75 295.989 51.9974 295.583 51.4453C295.177 50.8932 294.619 50.6172 293.911 50.6172C293.036 50.6172 292.38 51.0052 291.942 51.7812V55.8203C292.374 56.5911 293.036 56.9766 293.927 56.9766C294.619 56.9766 295.169 56.7031 295.575 56.1562C295.986 55.6042 296.192 54.7865 296.192 53.7031ZM299.098 53.6953C299.098 52.8672 299.26 52.1224 299.583 51.4609C299.911 50.7995 300.364 50.2891 300.942 49.9297C301.525 49.5703 302.19 49.3906 302.934 49.3906C304.085 49.3906 305.015 49.7891 305.723 50.5859C306.437 51.3828 306.794 52.4427 306.794 53.7656V53.8672C306.794 54.6901 306.635 55.4297 306.317 56.0859C306.005 56.737 305.554 57.2448 304.966 57.6094C304.382 57.974 303.71 58.1562 302.95 58.1562C301.804 58.1562 300.874 57.7578 300.161 56.9609C299.453 56.1641 299.098 55.1094 299.098 53.7969V53.6953ZM300.552 53.8672C300.552 54.8047 300.768 55.5573 301.2 56.125C301.637 56.6927 302.221 56.9766 302.95 56.9766C303.684 56.9766 304.268 56.6901 304.7 56.1172C305.132 55.5391 305.348 54.7318 305.348 53.6953C305.348 52.7682 305.127 52.0182 304.684 51.4453C304.247 50.8672 303.663 50.5781 302.934 50.5781C302.221 50.5781 301.645 50.862 301.208 51.4297C300.77 51.9974 300.552 52.8099 300.552 53.8672ZM313.528 55.7578C313.528 55.3672 313.38 55.0651 313.083 54.8516C312.791 54.6328 312.278 54.4453 311.544 54.2891C310.815 54.1328 310.234 53.9453 309.802 53.7266C309.374 53.5078 309.057 53.2474 308.848 52.9453C308.645 52.6432 308.544 52.2839 308.544 51.8672C308.544 51.1745 308.835 50.5885 309.419 50.1094C310.007 49.6302 310.757 49.3906 311.669 49.3906C312.627 49.3906 313.403 49.638 313.997 50.1328C314.596 50.6276 314.895 51.2604 314.895 52.0312H313.442C313.442 51.6354 313.273 51.2943 312.934 51.0078C312.601 50.7214 312.179 50.5781 311.669 50.5781C311.143 50.5781 310.731 50.6927 310.434 50.9219C310.137 51.151 309.989 51.4505 309.989 51.8203C309.989 52.1693 310.127 52.4323 310.403 52.6094C310.679 52.7865 311.177 52.9557 311.895 53.1172C312.619 53.2786 313.205 53.4714 313.653 53.6953C314.101 53.9193 314.432 54.1901 314.645 54.5078C314.864 54.8203 314.973 55.2031 314.973 55.6562C314.973 56.4115 314.671 57.0182 314.067 57.4766C313.463 57.9297 312.679 58.1562 311.716 58.1562C311.038 58.1562 310.44 58.0365 309.919 57.7969C309.398 57.5573 308.989 57.224 308.692 56.7969C308.4 56.3646 308.255 55.8984 308.255 55.3984H309.7C309.726 55.8828 309.919 56.2682 310.278 56.5547C310.643 56.8359 311.122 56.9766 311.716 56.9766C312.262 56.9766 312.7 56.8672 313.028 56.6484C313.361 56.4245 313.528 56.1276 313.528 55.7578ZM318.427 58H316.981V49.5469H318.427V58ZM316.864 47.3047C316.864 47.0703 316.934 46.8724 317.075 46.7109C317.221 46.5495 317.434 46.4688 317.716 46.4688C317.997 46.4688 318.21 46.5495 318.356 46.7109C318.502 46.8724 318.575 47.0703 318.575 47.3047C318.575 47.5391 318.502 47.7344 318.356 47.8906C318.21 48.0469 317.997 48.125 317.716 48.125C317.434 48.125 317.221 48.0469 317.075 47.8906C316.934 47.7344 316.864 47.5391 316.864 47.3047ZM322.708 47.5V49.5469H324.286V50.6641H322.708V55.9062C322.708 56.2448 322.778 56.5 322.919 56.6719C323.059 56.8385 323.299 56.9219 323.637 56.9219C323.804 56.9219 324.033 56.8906 324.325 56.8281V58C323.945 58.1042 323.575 58.1562 323.216 58.1562C322.57 58.1562 322.083 57.9609 321.755 57.5703C321.427 57.1797 321.262 56.625 321.262 55.9062V50.6641H319.723V49.5469H321.262V47.5H322.708ZM331.52 58H330.075V49.5469H331.52V58ZM329.958 47.3047C329.958 47.0703 330.028 46.8724 330.169 46.7109C330.315 46.5495 330.528 46.4688 330.809 46.4688C331.091 46.4688 331.304 46.5495 331.45 46.7109C331.596 46.8724 331.669 47.0703 331.669 47.3047C331.669 47.5391 331.596 47.7344 331.45 47.8906C331.304 48.0469 331.091 48.125 330.809 48.125C330.528 48.125 330.315 48.0469 330.169 47.8906C330.028 47.7344 329.958 47.5391 329.958 47.3047ZM335.208 49.5469L335.255 50.6094C335.9 49.7969 336.744 49.3906 337.786 49.3906C339.572 49.3906 340.473 50.3984 340.489 52.4141V58H339.044V52.4062C339.038 51.7969 338.898 51.3464 338.622 51.0547C338.351 50.763 337.927 50.6172 337.348 50.6172C336.88 50.6172 336.468 50.7422 336.114 50.9922C335.76 51.2422 335.484 51.5703 335.286 51.9766V58H333.841V49.5469H335.208ZM349.403 55.8828L351.372 49.5469H352.919L349.52 59.3047C348.994 60.7109 348.158 61.4141 347.012 61.4141L346.739 61.3906L346.2 61.2891V60.1172L346.591 60.1484C347.08 60.1484 347.46 60.0495 347.731 59.8516C348.007 59.6536 348.234 59.2917 348.411 58.7656L348.731 57.9062L345.716 49.5469H347.294L349.403 55.8828ZM353.708 53.6953C353.708 52.8672 353.869 52.1224 354.192 51.4609C354.52 50.7995 354.973 50.2891 355.552 49.9297C356.135 49.5703 356.799 49.3906 357.544 49.3906C358.695 49.3906 359.624 49.7891 360.333 50.5859C361.046 51.3828 361.403 52.4427 361.403 53.7656V53.8672C361.403 54.6901 361.244 55.4297 360.927 56.0859C360.614 56.737 360.163 57.2448 359.575 57.6094C358.992 57.974 358.32 58.1562 357.559 58.1562C356.413 58.1562 355.484 57.7578 354.77 56.9609C354.062 56.1641 353.708 55.1094 353.708 53.7969V53.6953ZM355.161 53.8672C355.161 54.8047 355.377 55.5573 355.809 56.125C356.247 56.6927 356.83 56.9766 357.559 56.9766C358.294 56.9766 358.877 56.6901 359.309 56.1172C359.742 55.5391 359.958 54.7318 359.958 53.6953C359.958 52.7682 359.736 52.0182 359.294 51.4453C358.856 50.8672 358.273 50.5781 357.544 50.5781C356.83 50.5781 356.255 50.862 355.817 51.4297C355.38 51.9974 355.161 52.8099 355.161 53.8672ZM368.434 57.1641C367.872 57.8255 367.046 58.1562 365.958 58.1562C365.057 58.1562 364.369 57.8958 363.895 57.375C363.427 56.849 363.19 56.0729 363.184 55.0469V49.5469H364.63V55.0078C364.63 56.2891 365.15 56.9297 366.192 56.9297C367.296 56.9297 368.031 56.5182 368.395 55.6953V49.5469H369.841V58H368.466L368.434 57.1641ZM376.13 50.8438C375.911 50.8073 375.674 50.7891 375.419 50.7891C374.471 50.7891 373.828 51.1927 373.489 52V58H372.044V49.5469H373.45L373.473 50.5234C373.947 49.7682 374.619 49.3906 375.489 49.3906C375.77 49.3906 375.984 49.4271 376.13 49.5V50.8438ZM381.052 53.6953C381.052 52.8672 381.213 52.1224 381.536 51.4609C381.864 50.7995 382.317 50.2891 382.895 49.9297C383.479 49.5703 384.143 49.3906 384.887 49.3906C386.038 49.3906 386.968 49.7891 387.677 50.5859C388.39 51.3828 388.747 52.4427 388.747 53.7656V53.8672C388.747 54.6901 388.588 55.4297 388.27 56.0859C387.958 56.737 387.507 57.2448 386.919 57.6094C386.335 57.974 385.663 58.1562 384.903 58.1562C383.757 58.1562 382.828 57.7578 382.114 56.9609C381.406 56.1641 381.052 55.1094 381.052 53.7969V53.6953ZM382.505 53.8672C382.505 54.8047 382.721 55.5573 383.153 56.125C383.591 56.6927 384.174 56.9766 384.903 56.9766C385.637 56.9766 386.221 56.6901 386.653 56.1172C387.085 55.5391 387.302 54.7318 387.302 53.6953C387.302 52.7682 387.08 52.0182 386.637 51.4453C386.2 50.8672 385.617 50.5781 384.887 50.5781C384.174 50.5781 383.598 50.862 383.161 51.4297C382.723 51.9974 382.505 52.8099 382.505 53.8672ZM391.927 49.5469L391.973 50.6094C392.619 49.7969 393.463 49.3906 394.505 49.3906C396.291 49.3906 397.192 50.3984 397.208 52.4141V58H395.762V52.4062C395.757 51.7969 395.617 51.3464 395.341 51.0547C395.07 50.763 394.645 50.6172 394.067 50.6172C393.598 50.6172 393.187 50.7422 392.833 50.9922C392.479 51.2422 392.203 51.5703 392.005 51.9766V58H390.559V49.5469H391.927ZM400.958 58H399.512V46H400.958V58ZM404.848 58H403.403V49.5469H404.848V58ZM403.286 47.3047C403.286 47.0703 403.356 46.8724 403.497 46.7109C403.643 46.5495 403.856 46.4688 404.137 46.4688C404.419 46.4688 404.632 46.5495 404.778 46.7109C404.924 46.8724 404.997 47.0703 404.997 47.3047C404.997 47.5391 404.924 47.7344 404.778 47.8906C404.632 48.0469 404.419 48.125 404.137 48.125C403.856 48.125 403.643 48.0469 403.497 47.8906C403.356 47.7344 403.286 47.5391 403.286 47.3047ZM408.536 49.5469L408.583 50.6094C409.229 49.7969 410.072 49.3906 411.114 49.3906C412.9 49.3906 413.802 50.3984 413.817 52.4141V58H412.372V52.4062C412.367 51.7969 412.226 51.3464 411.95 51.0547C411.679 50.763 411.255 50.6172 410.677 50.6172C410.208 50.6172 409.796 50.7422 409.442 50.9922C409.088 51.2422 408.812 51.5703 408.614 51.9766V58H407.169V49.5469H408.536ZM419.505 58.1562C418.359 58.1562 417.427 57.7812 416.708 57.0312C415.989 56.276 415.63 55.2682 415.63 54.0078V53.7422C415.63 52.9036 415.788 52.1562 416.106 51.5C416.429 50.8385 416.877 50.3229 417.45 49.9531C418.028 49.5781 418.653 49.3906 419.325 49.3906C420.424 49.3906 421.278 49.7526 421.887 50.4766C422.497 51.2005 422.802 52.237 422.802 53.5859V54.1875H417.075C417.096 55.0208 417.338 55.6953 417.802 56.2109C418.27 56.7214 418.864 56.9766 419.583 56.9766C420.093 56.9766 420.525 56.8724 420.88 56.6641C421.234 56.4557 421.544 56.1797 421.809 55.8359L422.692 56.5234C421.984 57.612 420.921 58.1562 419.505 58.1562ZM419.325 50.5781C418.742 50.5781 418.252 50.7917 417.856 51.2188C417.46 51.6406 417.216 52.2344 417.122 53H421.356V52.8906C421.315 52.1562 421.117 51.5885 420.762 51.1875C420.408 50.7812 419.929 50.5781 419.325 50.5781ZM431.841 56.9766C432.356 56.9766 432.807 56.8203 433.192 56.5078C433.578 56.1953 433.791 55.8047 433.833 55.3359H435.2C435.174 55.8203 435.007 56.2812 434.7 56.7188C434.393 57.1562 433.981 57.5052 433.466 57.7656C432.955 58.026 432.413 58.1562 431.841 58.1562C430.69 58.1562 429.773 57.7734 429.091 57.0078C428.413 56.237 428.075 55.1849 428.075 53.8516V53.6094C428.075 52.7865 428.226 52.0547 428.528 51.4141C428.83 50.7734 429.262 50.276 429.825 49.9219C430.393 49.5677 431.062 49.3906 431.833 49.3906C432.781 49.3906 433.567 49.6745 434.192 50.2422C434.822 50.8099 435.158 51.5469 435.2 52.4531H433.833C433.791 51.9062 433.583 51.4583 433.208 51.1094C432.838 50.7552 432.38 50.5781 431.833 50.5781C431.098 50.5781 430.528 50.8438 430.122 51.375C429.721 51.901 429.52 52.6641 429.52 53.6641V53.9375C429.52 54.9115 429.721 55.6615 430.122 56.1875C430.523 56.7135 431.096 56.9766 431.841 56.9766ZM442.044 58C441.96 57.8333 441.893 57.5365 441.841 57.1094C441.169 57.8073 440.367 58.1562 439.434 58.1562C438.601 58.1562 437.916 57.9219 437.38 57.4531C436.848 56.9792 436.583 56.3802 436.583 55.6562C436.583 54.776 436.916 54.0938 437.583 53.6094C438.255 53.1198 439.197 52.875 440.411 52.875H441.817V52.2109C441.817 51.7057 441.666 51.3047 441.364 51.0078C441.062 50.7057 440.617 50.5547 440.028 50.5547C439.512 50.5547 439.08 50.6849 438.731 50.9453C438.382 51.2057 438.208 51.5208 438.208 51.8906H436.755C436.755 51.4688 436.903 51.0625 437.2 50.6719C437.502 50.276 437.908 49.9635 438.419 49.7344C438.934 49.5052 439.499 49.3906 440.114 49.3906C441.088 49.3906 441.851 49.6354 442.403 50.125C442.955 50.6094 443.242 51.2786 443.262 52.1328V56.0234C443.262 56.7995 443.361 57.4167 443.559 57.875V58H442.044ZM439.645 56.8984C440.098 56.8984 440.528 56.7812 440.934 56.5469C441.341 56.3125 441.635 56.0078 441.817 55.6328V53.8984H440.684C438.913 53.8984 438.028 54.4167 438.028 55.4531C438.028 55.9062 438.179 56.2604 438.481 56.5156C438.783 56.7708 439.171 56.8984 439.645 56.8984ZM449.614 50.8438C449.395 50.8073 449.158 50.7891 448.903 50.7891C447.955 50.7891 447.312 51.1927 446.973 52V58H445.528V49.5469H446.934L446.958 50.5234C447.432 49.7682 448.104 49.3906 448.973 49.3906C449.255 49.3906 449.468 49.4271 449.614 49.5V50.8438ZM450.442 53.7031C450.442 52.4062 450.749 51.3646 451.364 50.5781C451.979 49.7865 452.783 49.3906 453.778 49.3906C454.768 49.3906 455.552 49.7292 456.13 50.4062V46H457.575V58H456.247L456.177 57.0938C455.598 57.8021 454.794 58.1562 453.762 58.1562C452.783 58.1562 451.984 57.7552 451.364 56.9531C450.749 56.151 450.442 55.1042 450.442 53.8125V53.7031ZM451.887 53.8672C451.887 54.8255 452.085 55.5755 452.481 56.1172C452.877 56.6589 453.424 56.9297 454.122 56.9297C455.038 56.9297 455.708 56.5182 456.13 55.6953V51.8125C455.697 51.0156 455.033 50.6172 454.137 50.6172C453.429 50.6172 452.877 50.8906 452.481 51.4375C452.085 51.9844 451.887 52.7943 451.887 53.8672ZM459.856 57.2422C459.856 56.9922 459.929 56.7839 460.075 56.6172C460.226 56.4505 460.45 56.3672 460.747 56.3672C461.044 56.3672 461.268 56.4505 461.419 56.6172C461.575 56.7839 461.653 56.9922 461.653 57.2422C461.653 57.4818 461.575 57.6823 461.419 57.8438C461.268 58.0052 461.044 58.0859 460.747 58.0859C460.45 58.0859 460.226 58.0052 460.075 57.8438C459.929 57.6823 459.856 57.4818 459.856 57.2422Z" fill="#6654A4"/>
<path d="M46.2863 64H49.2303V40.864H43.2143V43.52H46.2863V64Z" fill="#6654A4"/>
<defs>
<filter id="filter0_d" x="0" y="0" width="620" height="113" filterUnits="userSpaceOnUse" color-interpolation-filters="sRGB">
<feFlood flood-opacity="0" result="BackgroundImageFix"/>
<feColorMatrix in="SourceAlpha" type="matrix" values="0 0 0 0 0 0 0 0 0 0 0 0 0 0 0 0 0 0 127 0"/>
<feMorphology radius="4" operator="dilate" in="SourceAlpha" result="effect1_dropShadow"/>
<feOffset dy="3"/>
<feGaussianBlur stdDeviation="7.5"/>
<feColorMatrix type="matrix" values="0 0 0 0 0.872109 0 0 0 0 0.853125 0 0 0 0 0.9375 0 0 0 0.5 0"/>
<feBlend mode="normal" in2="BackgroundImageFix" result="effect1_dropShadow"/>
<feBlend mode="normal" in="SourceGraphic" in2="effect1_dropShadow" result="shape"/>
</filter>
</defs>
</svg>
