<svg width="595" height="113" viewBox="0 0 595 113" fill="none" xmlns="http://www.w3.org/2000/svg">
<g filter="url(#filter0_d)">
<rect x="19" y="16" width="556.56" height="75" rx="24" fill="white"/>
</g>
<path d="M89.4033 51.3906C89.2627 52.5938 88.8174 53.5234 88.0674 54.1797C87.3226 54.8307 86.3304 55.1562 85.0908 55.1562C83.7471 55.1562 82.6689 54.6745 81.8564 53.7109C81.0492 52.7474 80.6455 51.4583 80.6455 49.8438V48.75C80.6455 47.6927 80.833 46.763 81.208 45.9609C81.5882 45.1589 82.1247 44.5443 82.8174 44.1172C83.5101 43.6849 84.3122 43.4688 85.2236 43.4688C86.432 43.4688 87.4007 43.8073 88.1299 44.4844C88.859 45.1562 89.2835 46.0885 89.4033 47.2812H87.8955C87.7653 46.375 87.4814 45.7188 87.0439 45.3125C86.6117 44.9062 86.0049 44.7031 85.2236 44.7031C84.2653 44.7031 83.5127 45.0573 82.9658 45.7656C82.4242 46.474 82.1533 47.4818 82.1533 48.7891V49.8906C82.1533 51.125 82.4111 52.1068 82.9268 52.8359C83.4424 53.5651 84.1637 53.9297 85.0908 53.9297C85.9242 53.9297 86.5622 53.7422 87.0049 53.3672C87.4528 52.987 87.7497 52.3281 87.8955 51.3906H89.4033ZM90.8486 50.6953C90.8486 49.8672 91.0101 49.1224 91.333 48.4609C91.6611 47.7995 92.1143 47.2891 92.6924 46.9297C93.2757 46.5703 93.9398 46.3906 94.6846 46.3906C95.8356 46.3906 96.7653 46.7891 97.4736 47.5859C98.1872 48.3828 98.5439 49.4427 98.5439 50.7656V50.8672C98.5439 51.6901 98.3851 52.4297 98.0674 53.0859C97.7549 53.737 97.3044 54.2448 96.7158 54.6094C96.1325 54.974 95.4606 55.1562 94.7002 55.1562C93.5544 55.1562 92.6247 54.7578 91.9111 53.9609C91.2028 53.1641 90.8486 52.1094 90.8486 50.7969V50.6953ZM92.3018 50.8672C92.3018 51.8047 92.5179 52.5573 92.9502 53.125C93.3877 53.6927 93.971 53.9766 94.7002 53.9766C95.4346 53.9766 96.0179 53.6901 96.4502 53.1172C96.8825 52.5391 97.0986 51.7318 97.0986 50.6953C97.0986 49.7682 96.8773 49.0182 96.4346 48.4453C95.9971 47.8672 95.4137 47.5781 94.6846 47.5781C93.971 47.5781 93.3955 47.862 92.958 48.4297C92.5205 48.9974 92.3018 49.8099 92.3018 50.8672ZM101.724 46.5469L101.771 47.6094C102.416 46.7969 103.26 46.3906 104.302 46.3906C106.088 46.3906 106.989 47.3984 107.005 49.4141V55H105.56V49.4062C105.554 48.7969 105.414 48.3464 105.138 48.0547C104.867 47.763 104.442 47.6172 103.864 47.6172C103.396 47.6172 102.984 47.7422 102.63 47.9922C102.276 48.2422 102 48.5703 101.802 48.9766V55H100.356V46.5469H101.724ZM109.669 55V47.6641H108.333V46.5469H109.669V45.8281C109.669 44.8854 109.937 44.151 110.474 43.625C111.015 43.099 111.778 42.8359 112.763 42.8359C113.346 42.8359 114.083 42.9948 114.974 43.3125L114.731 44.5312C114.08 44.2708 113.461 44.1406 112.872 44.1406C112.252 44.1406 111.804 44.2812 111.528 44.5625C111.257 44.8385 111.122 45.2552 111.122 45.8125V46.5469H112.849V47.6641H111.122V55H109.669ZM115.692 55H114.239V46.5469H115.692V55ZM122.13 47.8438C121.911 47.8073 121.674 47.7891 121.419 47.7891C120.471 47.7891 119.828 48.1927 119.489 49V55H118.044V46.5469H119.45L119.474 47.5234C119.948 46.7682 120.619 46.3906 121.489 46.3906C121.771 46.3906 121.984 46.4271 122.13 46.5V47.8438ZM124.825 46.5469L124.864 47.4844C125.484 46.7552 126.32 46.3906 127.372 46.3906C128.554 46.3906 129.359 46.8438 129.786 47.75C130.067 47.3438 130.432 47.0156 130.88 46.7656C131.333 46.5156 131.867 46.3906 132.481 46.3906C134.336 46.3906 135.278 47.3724 135.31 49.3359V55H133.864V49.4219C133.864 48.8177 133.726 48.3672 133.45 48.0703C133.174 47.7682 132.711 47.6172 132.06 47.6172C131.523 47.6172 131.078 47.7786 130.724 48.1016C130.369 48.4193 130.164 48.849 130.106 49.3906V55H128.653V49.4609C128.653 48.2318 128.052 47.6172 126.849 47.6172C125.901 47.6172 125.252 48.0208 124.903 48.8281V55H123.458V46.5469H124.825ZM143.427 44.5V46.5469H145.005V47.6641H143.427V52.9062C143.427 53.2448 143.497 53.5 143.638 53.6719C143.778 53.8385 144.018 53.9219 144.356 53.9219C144.523 53.9219 144.752 53.8906 145.044 53.8281V55C144.664 55.1042 144.294 55.1562 143.935 55.1562C143.289 55.1562 142.802 54.9609 142.474 54.5703C142.146 54.1797 141.981 53.625 141.981 52.9062V47.6641H140.442V46.5469H141.981V44.5H143.427ZM148.146 47.5703C148.786 46.7839 149.619 46.3906 150.646 46.3906C152.432 46.3906 153.333 47.3984 153.349 49.4141V55H151.903V49.4062C151.898 48.7969 151.757 48.3464 151.481 48.0547C151.211 47.763 150.786 47.6172 150.208 47.6172C149.739 47.6172 149.328 47.7422 148.974 47.9922C148.619 48.2422 148.343 48.5703 148.146 48.9766V55H146.7V43H148.146V47.5703ZM159.021 55.1562C157.875 55.1562 156.942 54.7812 156.224 54.0312C155.505 53.276 155.146 52.2682 155.146 51.0078V50.7422C155.146 49.9036 155.304 49.1562 155.622 48.5C155.945 47.8385 156.393 47.3229 156.966 46.9531C157.544 46.5781 158.169 46.3906 158.841 46.3906C159.94 46.3906 160.794 46.7526 161.403 47.4766C162.013 48.2005 162.317 49.237 162.317 50.5859V51.1875H156.591C156.612 52.0208 156.854 52.6953 157.317 53.2109C157.786 53.7214 158.38 53.9766 159.099 53.9766C159.609 53.9766 160.041 53.8724 160.396 53.6641C160.75 53.4557 161.06 53.1797 161.325 52.8359L162.208 53.5234C161.5 54.612 160.437 55.1562 159.021 55.1562ZM158.841 47.5781C158.257 47.5781 157.768 47.7917 157.372 48.2188C156.976 48.6406 156.731 49.2344 156.638 50H160.872V49.8906C160.83 49.1562 160.632 48.5885 160.278 48.1875C159.924 47.7812 159.445 47.5781 158.841 47.5781ZM167.583 50.6953C167.583 49.8672 167.744 49.1224 168.067 48.4609C168.396 47.7995 168.849 47.2891 169.427 46.9297C170.01 46.5703 170.674 46.3906 171.419 46.3906C172.57 46.3906 173.5 46.7891 174.208 47.5859C174.922 48.3828 175.278 49.4427 175.278 50.7656V50.8672C175.278 51.6901 175.119 52.4297 174.802 53.0859C174.489 53.737 174.039 54.2448 173.45 54.6094C172.867 54.974 172.195 55.1562 171.435 55.1562C170.289 55.1562 169.359 54.7578 168.646 53.9609C167.937 53.1641 167.583 52.1094 167.583 50.7969V50.6953ZM169.036 50.8672C169.036 51.8047 169.252 52.5573 169.685 53.125C170.122 53.6927 170.705 53.9766 171.435 53.9766C172.169 53.9766 172.752 53.6901 173.185 53.1172C173.617 52.5391 173.833 51.7318 173.833 50.6953C173.833 49.7682 173.612 49.0182 173.169 48.4453C172.731 47.8672 172.148 47.5781 171.419 47.5781C170.705 47.5781 170.13 47.862 169.692 48.4297C169.255 48.9974 169.036 49.8099 169.036 50.8672ZM178.458 46.5469L178.505 47.6094C179.151 46.7969 179.994 46.3906 181.036 46.3906C182.823 46.3906 183.724 47.3984 183.739 49.4141V55H182.294V49.4062C182.289 48.7969 182.148 48.3464 181.872 48.0547C181.601 47.763 181.177 47.6172 180.599 47.6172C180.13 47.6172 179.718 47.7422 179.364 47.9922C179.01 48.2422 178.734 48.5703 178.536 48.9766V55H177.091V46.5469H178.458ZM187.489 55H186.044V43H187.489V55ZM191.38 55H189.935V46.5469H191.38V55ZM189.817 44.3047C189.817 44.0703 189.888 43.8724 190.028 43.7109C190.174 43.5495 190.388 43.4688 190.669 43.4688C190.95 43.4688 191.164 43.5495 191.31 43.7109C191.455 43.8724 191.528 44.0703 191.528 44.3047C191.528 44.5391 191.455 44.7344 191.31 44.8906C191.164 45.0469 190.95 45.125 190.669 45.125C190.388 45.125 190.174 45.0469 190.028 44.8906C189.888 44.7344 189.817 44.5391 189.817 44.3047ZM195.067 46.5469L195.114 47.6094C195.76 46.7969 196.604 46.3906 197.646 46.3906C199.432 46.3906 200.333 47.3984 200.349 49.4141V55H198.903V49.4062C198.898 48.7969 198.757 48.3464 198.481 48.0547C198.211 47.763 197.786 47.6172 197.208 47.6172C196.739 47.6172 196.328 47.7422 195.974 47.9922C195.619 48.2422 195.343 48.5703 195.146 48.9766V55H193.7V46.5469H195.067ZM206.036 55.1562C204.89 55.1562 203.958 54.7812 203.239 54.0312C202.521 53.276 202.161 52.2682 202.161 51.0078V50.7422C202.161 49.9036 202.32 49.1562 202.638 48.5C202.961 47.8385 203.409 47.3229 203.981 46.9531C204.56 46.5781 205.185 46.3906 205.856 46.3906C206.955 46.3906 207.81 46.7526 208.419 47.4766C209.028 48.2005 209.333 49.237 209.333 50.5859V51.1875H203.606C203.627 52.0208 203.869 52.6953 204.333 53.2109C204.802 53.7214 205.396 53.9766 206.114 53.9766C206.625 53.9766 207.057 53.8724 207.411 53.6641C207.765 53.4557 208.075 53.1797 208.341 52.8359L209.224 53.5234C208.515 54.612 207.453 55.1562 206.036 55.1562ZM205.856 47.5781C205.273 47.5781 204.784 47.7917 204.388 48.2188C203.992 48.6406 203.747 49.2344 203.653 50H207.888V49.8906C207.846 49.1562 207.648 48.5885 207.294 48.1875C206.94 47.7812 206.461 47.5781 205.856 47.5781ZM218.372 53.9766C218.888 53.9766 219.338 53.8203 219.724 53.5078C220.109 53.1953 220.323 52.8047 220.364 52.3359H221.731C221.705 52.8203 221.539 53.2812 221.231 53.7188C220.924 54.1562 220.513 54.5052 219.997 54.7656C219.487 55.026 218.945 55.1562 218.372 55.1562C217.221 55.1562 216.304 54.7734 215.622 54.0078C214.945 53.237 214.606 52.1849 214.606 50.8516V50.6094C214.606 49.7865 214.757 49.0547 215.06 48.4141C215.362 47.7734 215.794 47.276 216.356 46.9219C216.924 46.5677 217.593 46.3906 218.364 46.3906C219.312 46.3906 220.099 46.6745 220.724 47.2422C221.354 47.8099 221.69 48.5469 221.731 49.4531H220.364C220.323 48.9062 220.114 48.4583 219.739 48.1094C219.369 47.7552 218.911 47.5781 218.364 47.5781C217.63 47.5781 217.06 47.8438 216.653 48.375C216.252 48.901 216.052 49.6641 216.052 50.6641V50.9375C216.052 51.9115 216.252 52.6615 216.653 53.1875C217.054 53.7135 217.627 53.9766 218.372 53.9766ZM228.575 55C228.492 54.8333 228.424 54.5365 228.372 54.1094C227.7 54.8073 226.898 55.1562 225.966 55.1562C225.132 55.1562 224.448 54.9219 223.911 54.4531C223.38 53.9792 223.114 53.3802 223.114 52.6562C223.114 51.776 223.448 51.0938 224.114 50.6094C224.786 50.1198 225.729 49.875 226.942 49.875H228.349V49.2109C228.349 48.7057 228.198 48.3047 227.896 48.0078C227.593 47.7057 227.148 47.5547 226.56 47.5547C226.044 47.5547 225.612 47.6849 225.263 47.9453C224.914 48.2057 224.739 48.5208 224.739 48.8906H223.286C223.286 48.4688 223.435 48.0625 223.731 47.6719C224.034 47.276 224.44 46.9635 224.95 46.7344C225.466 46.5052 226.031 46.3906 226.646 46.3906C227.619 46.3906 228.382 46.6354 228.935 47.125C229.487 47.6094 229.773 48.2786 229.794 49.1328V53.0234C229.794 53.7995 229.893 54.4167 230.091 54.875V55H228.575ZM226.177 53.8984C226.63 53.8984 227.06 53.7812 227.466 53.5469C227.872 53.3125 228.166 53.0078 228.349 52.6328V50.8984H227.216C225.445 50.8984 224.56 51.4167 224.56 52.4531C224.56 52.9062 224.711 53.2604 225.013 53.5156C225.315 53.7708 225.703 53.8984 226.177 53.8984ZM236.146 47.8438C235.927 47.8073 235.69 47.7891 235.435 47.7891C234.487 47.7891 233.843 48.1927 233.505 49V55H232.06V46.5469H233.466L233.489 47.5234C233.963 46.7682 234.635 46.3906 235.505 46.3906C235.786 46.3906 236 46.4271 236.146 46.5V47.8438ZM236.974 50.7031C236.974 49.4062 237.281 48.3646 237.896 47.5781C238.51 46.7865 239.315 46.3906 240.31 46.3906C241.299 46.3906 242.083 46.7292 242.661 47.4062V43H244.106V55H242.778L242.708 54.0938C242.13 54.8021 241.325 55.1562 240.294 55.1562C239.315 55.1562 238.515 54.7552 237.896 53.9531C237.281 53.151 236.974 52.1042 236.974 50.8125V50.7031ZM238.419 50.8672C238.419 51.8255 238.617 52.5755 239.013 53.1172C239.409 53.6589 239.955 53.9297 240.653 53.9297C241.57 53.9297 242.239 53.5182 242.661 52.6953V48.8125C242.229 48.0156 241.565 47.6172 240.669 47.6172C239.961 47.6172 239.409 47.8906 239.013 48.4375C238.617 48.9844 238.419 49.7943 238.419 50.8672ZM251.896 55H250.45V46.5469H251.896V55ZM250.333 44.3047C250.333 44.0703 250.403 43.8724 250.544 43.7109C250.69 43.5495 250.903 43.4688 251.185 43.4688C251.466 43.4688 251.679 43.5495 251.825 43.7109C251.971 43.8724 252.044 44.0703 252.044 44.3047C252.044 44.5391 251.971 44.7344 251.825 44.8906C251.679 45.0469 251.466 45.125 251.185 45.125C250.903 45.125 250.69 45.0469 250.544 44.8906C250.403 44.7344 250.333 44.5391 250.333 44.3047ZM255.583 46.5469L255.63 47.6094C256.276 46.7969 257.119 46.3906 258.161 46.3906C259.948 46.3906 260.849 47.3984 260.864 49.4141V55H259.419V49.4062C259.414 48.7969 259.273 48.3464 258.997 48.0547C258.726 47.763 258.302 47.6172 257.724 47.6172C257.255 47.6172 256.843 47.7422 256.489 47.9922C256.135 48.2422 255.859 48.5703 255.661 48.9766V55H254.216V46.5469H255.583ZM263.755 55V47.6641H262.419V46.5469H263.755V45.6797C263.755 44.7734 263.997 44.0729 264.481 43.5781C264.966 43.0833 265.651 42.8359 266.536 42.8359C266.869 42.8359 267.2 42.8802 267.528 42.9688L267.45 44.1406C267.205 44.0938 266.945 44.0703 266.669 44.0703C266.2 44.0703 265.838 44.2083 265.583 44.4844C265.328 44.7552 265.2 45.1458 265.2 45.6562V46.5469H267.005V47.6641H265.2V55H263.755ZM268.224 50.6953C268.224 49.8672 268.385 49.1224 268.708 48.4609C269.036 47.7995 269.489 47.2891 270.067 46.9297C270.651 46.5703 271.315 46.3906 272.06 46.3906C273.211 46.3906 274.14 46.7891 274.849 47.5859C275.562 48.3828 275.919 49.4427 275.919 50.7656V50.8672C275.919 51.6901 275.76 52.4297 275.442 53.0859C275.13 53.737 274.679 54.2448 274.091 54.6094C273.507 54.974 272.836 55.1562 272.075 55.1562C270.929 55.1562 270 54.7578 269.286 53.9609C268.578 53.1641 268.224 52.1094 268.224 50.7969V50.6953ZM269.677 50.8672C269.677 51.8047 269.893 52.5573 270.325 53.125C270.763 53.6927 271.346 53.9766 272.075 53.9766C272.81 53.9766 273.393 53.6901 273.825 53.1172C274.257 52.5391 274.474 51.7318 274.474 50.6953C274.474 49.7682 274.252 49.0182 273.81 48.4453C273.372 47.8672 272.789 47.5781 272.06 47.5781C271.346 47.5781 270.771 47.862 270.333 48.4297C269.896 48.9974 269.677 49.8099 269.677 50.8672ZM281.817 47.8438C281.599 47.8073 281.362 47.7891 281.106 47.7891C280.159 47.7891 279.515 48.1927 279.177 49V55H277.731V46.5469H279.138L279.161 47.5234C279.635 46.7682 280.307 46.3906 281.177 46.3906C281.458 46.3906 281.672 46.4271 281.817 46.5V47.8438ZM284.513 46.5469L284.552 47.4844C285.172 46.7552 286.007 46.3906 287.06 46.3906C288.242 46.3906 289.047 46.8438 289.474 47.75C289.755 47.3438 290.119 47.0156 290.567 46.7656C291.021 46.5156 291.554 46.3906 292.169 46.3906C294.023 46.3906 294.966 47.3724 294.997 49.3359V55H293.552V49.4219C293.552 48.8177 293.414 48.3672 293.138 48.0703C292.862 47.7682 292.398 47.6172 291.747 47.6172C291.211 47.6172 290.765 47.7786 290.411 48.1016C290.057 48.4193 289.851 48.849 289.794 49.3906V55H288.341V49.4609C288.341 48.2318 287.739 47.6172 286.536 47.6172C285.588 47.6172 284.94 48.0208 284.591 48.8281V55H283.146V46.5469H284.513ZM302.403 55C302.32 54.8333 302.252 54.5365 302.2 54.1094C301.528 54.8073 300.726 55.1562 299.794 55.1562C298.961 55.1562 298.276 54.9219 297.739 54.4531C297.208 53.9792 296.942 53.3802 296.942 52.6562C296.942 51.776 297.276 51.0938 297.942 50.6094C298.614 50.1198 299.557 49.875 300.771 49.875H302.177V49.2109C302.177 48.7057 302.026 48.3047 301.724 48.0078C301.422 47.7057 300.976 47.5547 300.388 47.5547C299.872 47.5547 299.44 47.6849 299.091 47.9453C298.742 48.2057 298.567 48.5208 298.567 48.8906H297.114C297.114 48.4688 297.263 48.0625 297.56 47.6719C297.862 47.276 298.268 46.9635 298.778 46.7344C299.294 46.5052 299.859 46.3906 300.474 46.3906C301.448 46.3906 302.211 46.6354 302.763 47.125C303.315 47.6094 303.601 48.2786 303.622 49.1328V53.0234C303.622 53.7995 303.721 54.4167 303.919 54.875V55H302.403ZM300.005 53.8984C300.458 53.8984 300.888 53.7812 301.294 53.5469C301.7 53.3125 301.994 53.0078 302.177 52.6328V50.8984H301.044C299.273 50.8984 298.388 51.4167 298.388 52.4531C298.388 52.9062 298.539 53.2604 298.841 53.5156C299.143 53.7708 299.531 53.8984 300.005 53.8984ZM307.849 44.5V46.5469H309.427V47.6641H307.849V52.9062C307.849 53.2448 307.919 53.5 308.06 53.6719C308.2 53.8385 308.44 53.9219 308.778 53.9219C308.945 53.9219 309.174 53.8906 309.466 53.8281V55C309.086 55.1042 308.716 55.1562 308.356 55.1562C307.711 55.1562 307.224 54.9609 306.896 54.5703C306.567 54.1797 306.403 53.625 306.403 52.9062V47.6641H304.864V46.5469H306.403V44.5H307.849ZM312.692 55H311.247V46.5469H312.692V55ZM311.13 44.3047C311.13 44.0703 311.2 43.8724 311.341 43.7109C311.487 43.5495 311.7 43.4688 311.981 43.4688C312.263 43.4688 312.476 43.5495 312.622 43.7109C312.768 43.8724 312.841 44.0703 312.841 44.3047C312.841 44.5391 312.768 44.7344 312.622 44.8906C312.476 45.0469 312.263 45.125 311.981 45.125C311.7 45.125 311.487 45.0469 311.341 44.8906C311.2 44.7344 311.13 44.5391 311.13 44.3047ZM314.63 50.6953C314.63 49.8672 314.791 49.1224 315.114 48.4609C315.442 47.7995 315.896 47.2891 316.474 46.9297C317.057 46.5703 317.721 46.3906 318.466 46.3906C319.617 46.3906 320.547 46.7891 321.255 47.5859C321.968 48.3828 322.325 49.4427 322.325 50.7656V50.8672C322.325 51.6901 322.166 52.4297 321.849 53.0859C321.536 53.737 321.086 54.2448 320.497 54.6094C319.914 54.974 319.242 55.1562 318.481 55.1562C317.336 55.1562 316.406 54.7578 315.692 53.9609C314.984 53.1641 314.63 52.1094 314.63 50.7969V50.6953ZM316.083 50.8672C316.083 51.8047 316.299 52.5573 316.731 53.125C317.169 53.6927 317.752 53.9766 318.481 53.9766C319.216 53.9766 319.799 53.6901 320.231 53.1172C320.664 52.5391 320.88 51.7318 320.88 50.6953C320.88 49.7682 320.659 49.0182 320.216 48.4453C319.778 47.8672 319.195 47.5781 318.466 47.5781C317.752 47.5781 317.177 47.862 316.739 48.4297C316.302 48.9974 316.083 49.8099 316.083 50.8672ZM325.505 46.5469L325.552 47.6094C326.198 46.7969 327.041 46.3906 328.083 46.3906C329.869 46.3906 330.771 47.3984 330.786 49.4141V55H329.341V49.4062C329.336 48.7969 329.195 48.3464 328.919 48.0547C328.648 47.763 328.224 47.6172 327.646 47.6172C327.177 47.6172 326.765 47.7422 326.411 47.9922C326.057 48.2422 325.781 48.5703 325.583 48.9766V55H324.138V46.5469H325.505ZM332.997 54.2422C332.997 53.9922 333.07 53.7839 333.216 53.6172C333.367 53.4505 333.591 53.3672 333.888 53.3672C334.185 53.3672 334.409 53.4505 334.56 53.6172C334.716 53.7839 334.794 53.9922 334.794 54.2422C334.794 54.4818 334.716 54.6823 334.56 54.8438C334.409 55.0052 334.185 55.0859 333.888 55.0859C333.591 55.0859 333.367 55.0052 333.216 54.8438C333.07 54.6823 332.997 54.4818 332.997 54.2422Z" fill="#6654A4"/>
<path d="M38.1105 63.744H53.5025V61.312H42.4945C46.6225 57.952 52.8305 53.056 52.8305 47.296C52.8305 43.008 50.0145 40.448 45.6625 40.448C41.5025 40.448 38.3985 43.008 38.2065 47.936H41.0225C41.1505 45.024 42.6865 42.944 45.6945 42.944C48.8305 42.944 49.9505 44.864 49.9505 47.424C49.9505 52.16 44.1905 56.768 38.1105 61.664V63.744Z" fill="#6654A4"/>
<defs>
<filter id="filter0_d" x="0" y="0" width="594.56" height="113" filterUnits="userSpaceOnUse" color-interpolation-filters="sRGB">
<feFlood flood-opacity="0" result="BackgroundImageFix"/>
<feColorMatrix in="SourceAlpha" type="matrix" values="0 0 0 0 0 0 0 0 0 0 0 0 0 0 0 0 0 0 127 0"/>
<feMorphology radius="4" operator="dilate" in="SourceAlpha" result="effect1_dropShadow"/>
<feOffset dy="3"/>
<feGaussianBlur stdDeviation="7.5"/>
<feColorMatrix type="matrix" values="0 0 0 0 0.872109 0 0 0 0 0.853125 0 0 0 0 0.9375 0 0 0 0.5 0"/>
<feBlend mode="normal" in2="BackgroundImageFix" result="effect1_dropShadow"/>
<feBlend mode="normal" in="SourceGraphic" in2="effect1_dropShadow" result="shape"/>
</filter>
</defs>
</svg>
