<svg width="557" height="75" viewBox="0 0 557 75" fill="none" xmlns="http://www.w3.org/2000/svg">
<path d="M70.4031 38.3906C70.2625 39.5938 69.8171 40.5234 69.0671 41.1797C68.3223 41.8307 67.3302 42.1562 66.0906 42.1562C64.7468 42.1562 63.6687 41.6745 62.8562 40.7109C62.0489 39.7474 61.6453 38.4583 61.6453 36.8438V35.75C61.6453 34.6927 61.8328 33.763 62.2078 32.9609C62.588 32.1589 63.1244 31.5443 63.8171 31.1172C64.5098 30.6849 65.3119 30.4688 66.2234 30.4688C67.4317 30.4688 68.4005 30.8073 69.1296 31.4844C69.8588 32.1562 70.2833 33.0885 70.4031 34.2812H68.8953C68.7651 33.375 68.4812 32.7188 68.0437 32.3125C67.6114 31.9062 67.0046 31.7031 66.2234 31.7031C65.2651 31.7031 64.5125 32.0573 63.9656 32.7656C63.4239 33.474 63.1531 34.4818 63.1531 35.7891V36.8906C63.1531 38.125 63.4109 39.1068 63.9265 39.8359C64.4421 40.5651 65.1635 40.9297 66.0906 40.9297C66.9239 40.9297 67.5619 40.7422 68.0046 40.3672C68.4526 39.987 68.7494 39.3281 68.8953 38.3906H70.4031ZM71.8484 37.6953C71.8484 36.8672 72.0098 36.1224 72.3328 35.4609C72.6609 34.7995 73.114 34.2891 73.6921 33.9297C74.2755 33.5703 74.9395 33.3906 75.6843 33.3906C76.8354 33.3906 77.7651 33.7891 78.4734 34.5859C79.1869 35.3828 79.5437 36.4427 79.5437 37.7656V37.8672C79.5437 38.6901 79.3848 39.4297 79.0671 40.0859C78.7546 40.737 78.3041 41.2448 77.7156 41.6094C77.1322 41.974 76.4604 42.1562 75.7 42.1562C74.5541 42.1562 73.6244 41.7578 72.9109 40.9609C72.2026 40.1641 71.8484 39.1094 71.8484 37.7969V37.6953ZM73.3015 37.8672C73.3015 38.8047 73.5177 39.5573 73.95 40.125C74.3875 40.6927 74.9708 40.9766 75.7 40.9766C76.4343 40.9766 77.0177 40.6901 77.45 40.1172C77.8822 39.5391 78.0984 38.7318 78.0984 37.6953C78.0984 36.7682 77.877 36.0182 77.4343 35.4453C76.9968 34.8672 76.4135 34.5781 75.6843 34.5781C74.9708 34.5781 74.3953 34.862 73.9578 35.4297C73.5203 35.9974 73.3015 36.8099 73.3015 37.8672ZM82.7234 33.5469L82.7703 34.6094C83.4161 33.7969 84.2598 33.3906 85.3015 33.3906C87.088 33.3906 87.989 34.3984 88.0046 36.4141V42H86.5593V36.4062C86.5541 35.7969 86.4135 35.3464 86.1375 35.0547C85.8666 34.763 85.4421 34.6172 84.864 34.6172C84.3953 34.6172 83.9838 34.7422 83.6296 34.9922C83.2755 35.2422 82.9994 35.5703 82.8015 35.9766V42H81.3562V33.5469H82.7234ZM90.6687 42V34.6641H89.3328V33.5469H90.6687V32.8281C90.6687 31.8854 90.9369 31.151 91.4734 30.625C92.0151 30.099 92.7781 29.8359 93.7625 29.8359C94.3458 29.8359 95.0828 29.9948 95.9734 30.3125L95.7312 31.5312C95.0802 31.2708 94.4604 31.1406 93.8718 31.1406C93.252 31.1406 92.8041 31.2812 92.5281 31.5625C92.2572 31.8385 92.1218 32.2552 92.1218 32.8125V33.5469H93.8484V34.6641H92.1218V42H90.6687ZM96.6921 42H95.239V33.5469H96.6921V42ZM103.13 34.8438C102.911 34.8073 102.674 34.7891 102.419 34.7891C101.471 34.7891 100.828 35.1927 100.489 36V42H99.0437V33.5469H100.45L100.473 34.5234C100.947 33.7682 101.619 33.3906 102.489 33.3906C102.77 33.3906 102.984 33.4271 103.13 33.5V34.8438ZM105.825 33.5469L105.864 34.4844C106.484 33.7552 107.32 33.3906 108.372 33.3906C109.554 33.3906 110.359 33.8438 110.786 34.75C111.067 34.3438 111.432 34.0156 111.88 33.7656C112.333 33.5156 112.867 33.3906 113.481 33.3906C115.335 33.3906 116.278 34.3724 116.309 36.3359V42H114.864V36.4219C114.864 35.8177 114.726 35.3672 114.45 35.0703C114.174 34.7682 113.71 34.6172 113.059 34.6172C112.523 34.6172 112.078 34.7786 111.723 35.1016C111.369 35.4193 111.163 35.849 111.106 36.3906V42H109.653V36.4609C109.653 35.2318 109.052 34.6172 107.848 34.6172C106.9 34.6172 106.252 35.0208 105.903 35.8281V42H104.458V33.5469H105.825ZM124.427 31.5V33.5469H126.005V34.6641H124.427V39.9062C124.427 40.2448 124.497 40.5 124.637 40.6719C124.778 40.8385 125.018 40.9219 125.356 40.9219C125.523 40.9219 125.752 40.8906 126.044 40.8281V42C125.663 42.1042 125.294 42.1562 124.934 42.1562C124.288 42.1562 123.802 41.9609 123.473 41.5703C123.145 41.1797 122.981 40.625 122.981 39.9062V34.6641H121.442V33.5469H122.981V31.5H124.427ZM129.145 34.5703C129.786 33.7839 130.619 33.3906 131.645 33.3906C133.432 33.3906 134.333 34.3984 134.348 36.4141V42H132.903V36.4062C132.898 35.7969 132.757 35.3464 132.481 35.0547C132.21 34.763 131.786 34.6172 131.208 34.6172C130.739 34.6172 130.328 34.7422 129.973 34.9922C129.619 35.2422 129.343 35.5703 129.145 35.9766V42H127.7V30H129.145V34.5703ZM140.02 42.1562C138.874 42.1562 137.942 41.7812 137.223 41.0312C136.505 40.276 136.145 39.2682 136.145 38.0078V37.7422C136.145 36.9036 136.304 36.1562 136.622 35.5C136.945 34.8385 137.393 34.3229 137.966 33.9531C138.544 33.5781 139.169 33.3906 139.841 33.3906C140.94 33.3906 141.794 33.7526 142.403 34.4766C143.012 35.2005 143.317 36.237 143.317 37.5859V38.1875H137.591C137.611 39.0208 137.854 39.6953 138.317 40.2109C138.786 40.7214 139.38 40.9766 140.098 40.9766C140.609 40.9766 141.041 40.8724 141.395 40.6641C141.749 40.4557 142.059 40.1797 142.325 39.8359L143.208 40.5234C142.499 41.612 141.437 42.1562 140.02 42.1562ZM139.841 34.5781C139.257 34.5781 138.768 34.7917 138.372 35.2188C137.976 35.6406 137.731 36.2344 137.637 37H141.872V36.8906C141.83 36.1562 141.632 35.5885 141.278 35.1875C140.924 34.7812 140.445 34.5781 139.841 34.5781ZM148.583 37.6953C148.583 36.8672 148.744 36.1224 149.067 35.4609C149.395 34.7995 149.848 34.2891 150.427 33.9297C151.01 33.5703 151.674 33.3906 152.419 33.3906C153.57 33.3906 154.499 33.7891 155.208 34.5859C155.921 35.3828 156.278 36.4427 156.278 37.7656V37.8672C156.278 38.6901 156.119 39.4297 155.802 40.0859C155.489 40.737 155.038 41.2448 154.45 41.6094C153.867 41.974 153.195 42.1562 152.434 42.1562C151.288 42.1562 150.359 41.7578 149.645 40.9609C148.937 40.1641 148.583 39.1094 148.583 37.7969V37.6953ZM150.036 37.8672C150.036 38.8047 150.252 39.5573 150.684 40.125C151.122 40.6927 151.705 40.9766 152.434 40.9766C153.169 40.9766 153.752 40.6901 154.184 40.1172C154.617 39.5391 154.833 38.7318 154.833 37.6953C154.833 36.7682 154.611 36.0182 154.169 35.4453C153.731 34.8672 153.148 34.5781 152.419 34.5781C151.705 34.5781 151.13 34.862 150.692 35.4297C150.255 35.9974 150.036 36.8099 150.036 37.8672ZM159.458 33.5469L159.505 34.6094C160.15 33.7969 160.994 33.3906 162.036 33.3906C163.822 33.3906 164.723 34.3984 164.739 36.4141V42H163.294V36.4062C163.288 35.7969 163.148 35.3464 162.872 35.0547C162.601 34.763 162.177 34.6172 161.598 34.6172C161.13 34.6172 160.718 34.7422 160.364 34.9922C160.01 35.2422 159.734 35.5703 159.536 35.9766V42H158.091V33.5469H159.458ZM168.489 42H167.044V30H168.489V42ZM172.38 42H170.934V33.5469H172.38V42ZM170.817 31.3047C170.817 31.0703 170.887 30.8724 171.028 30.7109C171.174 30.5495 171.387 30.4688 171.669 30.4688C171.95 30.4688 172.163 30.5495 172.309 30.7109C172.455 30.8724 172.528 31.0703 172.528 31.3047C172.528 31.5391 172.455 31.7344 172.309 31.8906C172.163 32.0469 171.95 32.125 171.669 32.125C171.387 32.125 171.174 32.0469 171.028 31.8906C170.887 31.7344 170.817 31.5391 170.817 31.3047ZM176.067 33.5469L176.114 34.6094C176.76 33.7969 177.604 33.3906 178.645 33.3906C180.432 33.3906 181.333 34.3984 181.348 36.4141V42H179.903V36.4062C179.898 35.7969 179.757 35.3464 179.481 35.0547C179.21 34.763 178.786 34.6172 178.208 34.6172C177.739 34.6172 177.328 34.7422 176.973 34.9922C176.619 35.2422 176.343 35.5703 176.145 35.9766V42H174.7V33.5469H176.067ZM187.036 42.1562C185.89 42.1562 184.958 41.7812 184.239 41.0312C183.52 40.276 183.161 39.2682 183.161 38.0078V37.7422C183.161 36.9036 183.32 36.1562 183.637 35.5C183.96 34.8385 184.408 34.3229 184.981 33.9531C185.559 33.5781 186.184 33.3906 186.856 33.3906C187.955 33.3906 188.809 33.7526 189.419 34.4766C190.028 35.2005 190.333 36.237 190.333 37.5859V38.1875H184.606C184.627 39.0208 184.869 39.6953 185.333 40.2109C185.802 40.7214 186.395 40.9766 187.114 40.9766C187.624 40.9766 188.057 40.8724 188.411 40.6641C188.765 40.4557 189.075 40.1797 189.341 39.8359L190.223 40.5234C189.515 41.612 188.453 42.1562 187.036 42.1562ZM186.856 34.5781C186.273 34.5781 185.783 34.7917 185.387 35.2188C184.992 35.6406 184.747 36.2344 184.653 37H188.887V36.8906C188.846 36.1562 188.648 35.5885 188.294 35.1875C187.94 34.7812 187.46 34.5781 186.856 34.5781ZM199.372 40.9766C199.887 40.9766 200.338 40.8203 200.723 40.5078C201.109 40.1953 201.322 39.8047 201.364 39.3359H202.731C202.705 39.8203 202.538 40.2812 202.231 40.7188C201.924 41.1562 201.512 41.5052 200.997 41.7656C200.486 42.026 199.945 42.1562 199.372 42.1562C198.221 42.1562 197.304 41.7734 196.622 41.0078C195.945 40.237 195.606 39.1849 195.606 37.8516V37.6094C195.606 36.7865 195.757 36.0547 196.059 35.4141C196.361 34.7734 196.794 34.276 197.356 33.9219C197.924 33.5677 198.593 33.3906 199.364 33.3906C200.312 33.3906 201.098 33.6745 201.723 34.2422C202.354 34.8099 202.69 35.5469 202.731 36.4531H201.364C201.322 35.9062 201.114 35.4583 200.739 35.1094C200.369 34.7552 199.911 34.5781 199.364 34.5781C198.63 34.5781 198.059 34.8438 197.653 35.375C197.252 35.901 197.052 36.6641 197.052 37.6641V37.9375C197.052 38.9115 197.252 39.6615 197.653 40.1875C198.054 40.7135 198.627 40.9766 199.372 40.9766ZM209.575 42C209.492 41.8333 209.424 41.5365 209.372 41.1094C208.7 41.8073 207.898 42.1562 206.966 42.1562C206.132 42.1562 205.447 41.9219 204.911 41.4531C204.38 40.9792 204.114 40.3802 204.114 39.6562C204.114 38.776 204.447 38.0938 205.114 37.6094C205.786 37.1198 206.729 36.875 207.942 36.875H209.348V36.2109C209.348 35.7057 209.197 35.3047 208.895 35.0078C208.593 34.7057 208.148 34.5547 207.559 34.5547C207.044 34.5547 206.611 34.6849 206.262 34.9453C205.913 35.2057 205.739 35.5208 205.739 35.8906H204.286C204.286 35.4688 204.434 35.0625 204.731 34.6719C205.033 34.276 205.44 33.9635 205.95 33.7344C206.466 33.5052 207.031 33.3906 207.645 33.3906C208.619 33.3906 209.382 33.6354 209.934 34.125C210.486 34.6094 210.773 35.2786 210.794 36.1328V40.0234C210.794 40.7995 210.893 41.4167 211.091 41.875V42H209.575ZM207.177 40.8984C207.63 40.8984 208.059 40.7812 208.466 40.5469C208.872 40.3125 209.166 40.0078 209.348 39.6328V37.8984H208.216C206.445 37.8984 205.559 38.4167 205.559 39.4531C205.559 39.9062 205.71 40.2604 206.012 40.5156C206.315 40.7708 206.703 40.8984 207.177 40.8984ZM217.145 34.8438C216.927 34.8073 216.69 34.7891 216.434 34.7891C215.486 34.7891 214.843 35.1927 214.505 36V42H213.059V33.5469H214.466L214.489 34.5234C214.963 33.7682 215.635 33.3906 216.505 33.3906C216.786 33.3906 216.999 33.4271 217.145 33.5V34.8438ZM217.973 37.7031C217.973 36.4062 218.281 35.3646 218.895 34.5781C219.51 33.7865 220.315 33.3906 221.309 33.3906C222.299 33.3906 223.083 33.7292 223.661 34.4062V30H225.106V42H223.778L223.708 41.0938C223.13 41.8021 222.325 42.1562 221.294 42.1562C220.315 42.1562 219.515 41.7552 218.895 40.9531C218.281 40.151 217.973 39.1042 217.973 37.8125V37.7031ZM219.419 37.8672C219.419 38.8255 219.617 39.5755 220.012 40.1172C220.408 40.6589 220.955 40.9297 221.653 40.9297C222.57 40.9297 223.239 40.5182 223.661 39.6953V35.8125C223.229 35.0156 222.565 34.6172 221.669 34.6172C220.96 34.6172 220.408 34.8906 220.012 35.4375C219.617 35.9844 219.419 36.7943 219.419 37.8672ZM232.895 42H231.45V33.5469H232.895V42ZM231.333 31.3047C231.333 31.0703 231.403 30.8724 231.544 30.7109C231.69 30.5495 231.903 30.4688 232.184 30.4688C232.466 30.4688 232.679 30.5495 232.825 30.7109C232.971 30.8724 233.044 31.0703 233.044 31.3047C233.044 31.5391 232.971 31.7344 232.825 31.8906C232.679 32.0469 232.466 32.125 232.184 32.125C231.903 32.125 231.69 32.0469 231.544 31.8906C231.403 31.7344 231.333 31.5391 231.333 31.3047ZM236.583 33.5469L236.63 34.6094C237.275 33.7969 238.119 33.3906 239.161 33.3906C240.947 33.3906 241.848 34.3984 241.864 36.4141V42H240.419V36.4062C240.413 35.7969 240.273 35.3464 239.997 35.0547C239.726 34.763 239.302 34.6172 238.723 34.6172C238.255 34.6172 237.843 34.7422 237.489 34.9922C237.135 35.2422 236.859 35.5703 236.661 35.9766V42H235.216V33.5469H236.583ZM244.755 42V34.6641H243.419V33.5469H244.755V32.6797C244.755 31.7734 244.997 31.0729 245.481 30.5781C245.966 30.0833 246.65 29.8359 247.536 29.8359C247.869 29.8359 248.2 29.8802 248.528 29.9688L248.45 31.1406C248.205 31.0938 247.945 31.0703 247.669 31.0703C247.2 31.0703 246.838 31.2083 246.583 31.4844C246.328 31.7552 246.2 32.1458 246.2 32.6562V33.5469H248.005V34.6641H246.2V42H244.755ZM249.223 37.6953C249.223 36.8672 249.385 36.1224 249.708 35.4609C250.036 34.7995 250.489 34.2891 251.067 33.9297C251.65 33.5703 252.315 33.3906 253.059 33.3906C254.21 33.3906 255.14 33.7891 255.848 34.5859C256.562 35.3828 256.919 36.4427 256.919 37.7656V37.8672C256.919 38.6901 256.76 39.4297 256.442 40.0859C256.13 40.737 255.679 41.2448 255.091 41.6094C254.507 41.974 253.835 42.1562 253.075 42.1562C251.929 42.1562 250.999 41.7578 250.286 40.9609C249.578 40.1641 249.223 39.1094 249.223 37.7969V37.6953ZM250.677 37.8672C250.677 38.8047 250.893 39.5573 251.325 40.125C251.762 40.6927 252.346 40.9766 253.075 40.9766C253.809 40.9766 254.393 40.6901 254.825 40.1172C255.257 39.5391 255.473 38.7318 255.473 37.6953C255.473 36.7682 255.252 36.0182 254.809 35.4453C254.372 34.8672 253.788 34.5781 253.059 34.5781C252.346 34.5781 251.77 34.862 251.333 35.4297C250.895 35.9974 250.677 36.8099 250.677 37.8672ZM262.817 34.8438C262.598 34.8073 262.361 34.7891 262.106 34.7891C261.158 34.7891 260.515 35.1927 260.177 36V42H258.731V33.5469H260.137L260.161 34.5234C260.635 33.7682 261.307 33.3906 262.177 33.3906C262.458 33.3906 262.671 33.4271 262.817 33.5V34.8438ZM265.512 33.5469L265.552 34.4844C266.171 33.7552 267.007 33.3906 268.059 33.3906C269.242 33.3906 270.046 33.8438 270.473 34.75C270.755 34.3438 271.119 34.0156 271.567 33.7656C272.02 33.5156 272.554 33.3906 273.169 33.3906C275.023 33.3906 275.966 34.3724 275.997 36.3359V42H274.552V36.4219C274.552 35.8177 274.413 35.3672 274.137 35.0703C273.861 34.7682 273.398 34.6172 272.747 34.6172C272.21 34.6172 271.765 34.7786 271.411 35.1016C271.057 35.4193 270.851 35.849 270.794 36.3906V42H269.341V36.4609C269.341 35.2318 268.739 34.6172 267.536 34.6172C266.588 34.6172 265.94 35.0208 265.591 35.8281V42H264.145V33.5469H265.512ZM283.403 42C283.32 41.8333 283.252 41.5365 283.2 41.1094C282.528 41.8073 281.726 42.1562 280.794 42.1562C279.96 42.1562 279.275 41.9219 278.739 41.4531C278.208 40.9792 277.942 40.3802 277.942 39.6562C277.942 38.776 278.275 38.0938 278.942 37.6094C279.614 37.1198 280.557 36.875 281.77 36.875H283.177V36.2109C283.177 35.7057 283.025 35.3047 282.723 35.0078C282.421 34.7057 281.976 34.5547 281.387 34.5547C280.872 34.5547 280.44 34.6849 280.091 34.9453C279.742 35.2057 279.567 35.5208 279.567 35.8906H278.114C278.114 35.4688 278.262 35.0625 278.559 34.6719C278.861 34.276 279.268 33.9635 279.778 33.7344C280.294 33.5052 280.859 33.3906 281.473 33.3906C282.447 33.3906 283.21 33.6354 283.762 34.125C284.315 34.6094 284.601 35.2786 284.622 36.1328V40.0234C284.622 40.7995 284.721 41.4167 284.919 41.875V42H283.403ZM281.005 40.8984C281.458 40.8984 281.887 40.7812 282.294 40.5469C282.7 40.3125 282.994 40.0078 283.177 39.6328V37.8984H282.044C280.273 37.8984 279.387 38.4167 279.387 39.4531C279.387 39.9062 279.538 40.2604 279.841 40.5156C280.143 40.7708 280.531 40.8984 281.005 40.8984ZM288.848 31.5V33.5469H290.427V34.6641H288.848V39.9062C288.848 40.2448 288.919 40.5 289.059 40.6719C289.2 40.8385 289.44 40.9219 289.778 40.9219C289.945 40.9219 290.174 40.8906 290.466 40.8281V42C290.085 42.1042 289.716 42.1562 289.356 42.1562C288.71 42.1562 288.223 41.9609 287.895 41.5703C287.567 41.1797 287.403 40.625 287.403 39.9062V34.6641H285.864V33.5469H287.403V31.5H288.848ZM293.692 42H292.247V33.5469H293.692V42ZM292.13 31.3047C292.13 31.0703 292.2 30.8724 292.341 30.7109C292.486 30.5495 292.7 30.4688 292.981 30.4688C293.262 30.4688 293.476 30.5495 293.622 30.7109C293.768 30.8724 293.841 31.0703 293.841 31.3047C293.841 31.5391 293.768 31.7344 293.622 31.8906C293.476 32.0469 293.262 32.125 292.981 32.125C292.7 32.125 292.486 32.0469 292.341 31.8906C292.2 31.7344 292.13 31.5391 292.13 31.3047ZM295.63 37.6953C295.63 36.8672 295.791 36.1224 296.114 35.4609C296.442 34.7995 296.895 34.2891 297.473 33.9297C298.057 33.5703 298.721 33.3906 299.466 33.3906C300.617 33.3906 301.546 33.7891 302.255 34.5859C302.968 35.3828 303.325 36.4427 303.325 37.7656V37.8672C303.325 38.6901 303.166 39.4297 302.848 40.0859C302.536 40.737 302.085 41.2448 301.497 41.6094C300.913 41.974 300.242 42.1562 299.481 42.1562C298.335 42.1562 297.406 41.7578 296.692 40.9609C295.984 40.1641 295.63 39.1094 295.63 37.7969V37.6953ZM297.083 37.8672C297.083 38.8047 297.299 39.5573 297.731 40.125C298.169 40.6927 298.752 40.9766 299.481 40.9766C300.216 40.9766 300.799 40.6901 301.231 40.1172C301.663 39.5391 301.88 38.7318 301.88 37.6953C301.88 36.7682 301.658 36.0182 301.216 35.4453C300.778 34.8672 300.195 34.5781 299.466 34.5781C298.752 34.5781 298.177 34.862 297.739 35.4297C297.302 35.9974 297.083 36.8099 297.083 37.8672ZM306.505 33.5469L306.552 34.6094C307.197 33.7969 308.041 33.3906 309.083 33.3906C310.869 33.3906 311.77 34.3984 311.786 36.4141V42H310.341V36.4062C310.335 35.7969 310.195 35.3464 309.919 35.0547C309.648 34.763 309.223 34.6172 308.645 34.6172C308.177 34.6172 307.765 34.7422 307.411 34.9922C307.057 35.2422 306.781 35.5703 306.583 35.9766V42H305.137V33.5469H306.505ZM313.997 41.2422C313.997 40.9922 314.07 40.7839 314.216 40.6172C314.367 40.4505 314.591 40.3672 314.887 40.3672C315.184 40.3672 315.408 40.4505 315.559 40.6172C315.716 40.7839 315.794 40.9922 315.794 41.2422C315.794 41.4818 315.716 41.6823 315.559 41.8438C315.408 42.0052 315.184 42.0859 314.887 42.0859C314.591 42.0859 314.367 42.0052 314.216 41.8438C314.07 41.6823 313.997 41.4818 313.997 41.2422Z" fill="#656668"/>
<path d="M19.1108 47.744H34.5028V45.312H23.4948C27.6228 41.952 33.8308 37.056 33.8308 31.296C33.8308 27.008 31.0148 24.448 26.6628 24.448C22.5028 24.448 19.3988 27.008 19.2068 31.936H22.0228C22.1508 29.024 23.6868 26.944 26.6948 26.944C29.8308 26.944 30.9508 28.864 30.9508 31.424C30.9508 36.16 25.1908 40.768 19.1108 45.664V47.744Z" fill="#656668"/>
</svg>
