<svg width="188" height="63" viewBox="0 0 188 63" fill="none" xmlns="http://www.w3.org/2000/svg">
<path d="M10.0463 10.9952C10.0463 13.7122 12.0353 15.6102 14.5703 15.6102C16.5333 15.6102 18.0933 14.6352 18.7693 12.8932H17.3523C16.8583 13.9722 15.8963 14.5832 14.5703 14.5832C12.6723 14.5832 11.2553 13.2052 11.2553 10.9952C11.2553 8.77223 12.6723 7.39423 14.5703 7.39423C15.8963 7.39423 16.8583 8.00523 17.3523 9.09723H18.7693C18.0933 7.34223 16.5333 6.35423 14.5703 6.35423C12.0353 6.35423 10.0463 8.27823 10.0463 10.9952ZM27.2903 11.9572C27.2903 9.70823 25.7173 8.29123 23.6893 8.29123C21.6743 8.29123 20.0883 9.70823 20.0883 11.9572C20.0883 14.2192 21.6223 15.6492 23.6373 15.6492C25.6653 15.6492 27.2903 14.2192 27.2903 11.9572ZM21.2973 11.9572C21.2973 10.1632 22.4283 9.31823 23.6763 9.31823C24.8983 9.31823 26.0813 10.1632 26.0813 11.9572C26.0813 13.7642 24.8723 14.6092 23.6373 14.6092C22.4023 14.6092 21.2973 13.7642 21.2973 11.9572ZM34.0587 15.5322H35.2287V11.3332C35.2287 9.29223 33.9677 8.27823 32.3167 8.27823C31.3547 8.27823 30.4967 8.68123 30.0287 9.42223V8.40823H28.8457V15.5322H30.0287V11.5932C30.0287 10.0592 30.8607 9.30523 32.0697 9.30523C33.2657 9.30523 34.0587 10.0462 34.0587 11.5022V15.5322ZM42.2832 13.5952C42.2312 11.0472 38.0972 11.9702 38.0972 10.2802C38.0972 9.70823 38.6172 9.29223 39.4882 9.29223C40.4372 9.29223 40.9832 9.81223 41.0352 10.5272H42.2182C42.1402 9.13623 41.1002 8.29123 39.5272 8.29123C37.9412 8.29123 36.9142 9.18823 36.9142 10.2802C36.9142 12.9322 41.1262 12.0092 41.1262 13.5952C41.1262 14.1802 40.6062 14.6482 39.6702 14.6482C38.6692 14.6482 38.0582 14.1282 37.9932 13.4392H36.7712C36.8492 14.7392 38.0192 15.6492 39.6832 15.6492C41.2562 15.6492 42.2832 14.7652 42.2832 13.5952ZM50.2711 8.40823H49.0881V12.3212C49.0881 13.8552 48.2691 14.6092 47.0471 14.6092C45.8511 14.6092 45.0581 13.8682 45.0581 12.4252V8.40823H43.8881V12.5812C43.8881 14.6222 45.1751 15.6362 46.8131 15.6362C47.7621 15.6362 48.6331 15.2202 49.0881 14.4792V15.5322H50.2711V8.40823ZM62.5516 15.5322H63.7216V11.3332C63.7216 9.29223 62.4606 8.27823 60.8356 8.27823C59.7436 8.27823 58.7296 8.83723 58.3136 9.86423C57.8456 8.79823 56.8706 8.27823 55.7006 8.27823C54.7646 8.27823 53.9196 8.68123 53.4516 9.43523V8.40823H52.2686V15.5322H53.4516V11.6062C53.4516 10.0722 54.2706 9.30523 55.4666 9.30523C56.6366 9.30523 57.4166 10.0462 57.4166 11.5022V15.5322H58.5866V11.6062C58.5866 10.0722 59.4056 9.30523 60.6016 9.30523C61.7716 9.30523 62.5516 10.0462 62.5516 11.5022V15.5322ZM68.6911 9.29223C69.9131 9.29223 70.9531 10.0592 70.9401 11.4502H66.4421C66.5721 10.0592 67.5341 9.29223 68.6911 9.29223ZM72.0191 13.3352H70.7451C70.4851 14.1022 69.8091 14.6482 68.7431 14.6482C67.5341 14.6482 66.5201 13.8552 66.4291 12.4122H72.1231C72.1491 12.1652 72.1621 11.9572 72.1621 11.6972C72.1621 9.74723 70.8101 8.29123 68.7431 8.29123C66.6631 8.29123 65.2201 9.70823 65.2201 11.9572C65.2201 14.2192 66.7151 15.6492 68.7431 15.6492C70.5111 15.6492 71.6551 14.6352 72.0191 13.3352ZM74.9067 11.6582C74.9067 10.0072 75.7647 9.50023 76.8957 9.50023H77.2077V8.27823C76.0767 8.27823 75.3097 8.77223 74.9067 9.56523V8.40823H73.7237V15.5322H74.9067V11.6582ZM83.4301 15.5322H84.6521L86.3681 9.87723L88.0841 15.5322H89.3061L91.5291 8.40823H90.3591L88.7471 14.4012L87.0181 8.40823H85.8091L84.0411 14.3882L82.4031 8.40823H81.1941L83.4301 15.5322ZM92.2611 11.9442C92.2611 14.1542 93.7301 15.6492 95.6281 15.6492C96.9411 15.6492 97.8641 14.9732 98.2931 14.2062V15.5322H99.4891V8.40823H98.2931V9.70823C97.8771 8.96723 96.9671 8.29123 95.6411 8.29123C93.7301 8.29123 92.2611 9.72123 92.2611 11.9442ZM98.2931 11.9572C98.2931 13.6342 97.1751 14.6092 95.8751 14.6092C94.5751 14.6092 93.4701 13.6212 93.4701 11.9442C93.4701 10.2672 94.5751 9.31823 95.8751 9.31823C97.1751 9.31823 98.2931 10.3062 98.2931 11.9572ZM106.701 15.5322H107.871V11.3332C107.871 9.29223 106.61 8.27823 104.959 8.27823C103.997 8.27823 103.139 8.68123 102.671 9.42223V8.40823H101.488V15.5322H102.671V11.5932C102.671 10.0592 103.503 9.30523 104.712 9.30523C105.908 9.30523 106.701 10.0462 106.701 11.5022V15.5322ZM110.064 13.5822C110.064 15.0122 110.779 15.5322 112.04 15.5322H113.106V14.5312H112.235C111.507 14.5312 111.247 14.2842 111.247 13.5822V9.38323H113.106V8.40823H111.247V6.61423H110.064V8.40823H109.141V9.38323H110.064V13.5822ZM118.265 13.5822C118.265 15.0122 118.98 15.5322 120.241 15.5322H121.307V14.5312H120.436C119.708 14.5312 119.448 14.2842 119.448 13.5822V9.38323H121.307V8.40823H119.448V6.61423H118.265V8.40823H117.342V9.38323H118.265V13.5822ZM129.5 11.9572C129.5 9.70823 127.927 8.29123 125.899 8.29123C123.884 8.29123 122.298 9.70823 122.298 11.9572C122.298 14.2192 123.832 15.6492 125.847 15.6492C127.875 15.6492 129.5 14.2192 129.5 11.9572ZM123.507 11.9572C123.507 10.1632 124.638 9.31823 125.886 9.31823C127.108 9.31823 128.291 10.1632 128.291 11.9572C128.291 13.7642 127.082 14.6092 125.847 14.6092C124.612 14.6092 123.507 13.7642 123.507 11.9572ZM135.705 9.73423V5.91223H134.522V15.5322H135.705V14.2192C136.147 14.9992 137.07 15.6492 138.37 15.6492C140.281 15.6492 141.75 14.1542 141.75 11.9442C141.75 9.72123 140.294 8.29123 138.37 8.29123C137.109 8.29123 136.16 8.94123 135.705 9.73423ZM140.541 11.9442C140.541 13.6212 139.436 14.6092 138.123 14.6092C136.836 14.6092 135.705 13.6342 135.705 11.9572C135.705 10.3062 136.836 9.31823 138.123 9.31823C139.436 9.31823 140.541 10.2672 140.541 11.9442ZM149.625 8.40823H148.442V12.3212C148.442 13.8552 147.623 14.6092 146.401 14.6092C145.205 14.6092 144.412 13.8682 144.412 12.4252V8.40823H143.242V12.5812C143.242 14.6222 144.529 15.6362 146.167 15.6362C147.116 15.6362 147.987 15.2202 148.442 14.4792V15.5322H149.625V8.40823ZM154.326 14.1802L152.09 8.40823H150.777L153.65 15.4542L152.246 18.8862H153.468L157.758 8.40823H156.536L154.326 14.1802ZM161.971 11.9442C161.971 14.1542 163.44 15.6492 165.338 15.6492C166.651 15.6492 167.574 14.9732 168.003 14.2062V15.5322H169.199V8.40823H168.003V9.70823C167.587 8.96723 166.677 8.29123 165.351 8.29123C163.44 8.29123 161.971 9.72123 161.971 11.9442ZM168.003 11.9572C168.003 13.6342 166.885 14.6092 165.585 14.6092C164.285 14.6092 163.18 13.6212 163.18 11.9442C163.18 10.2672 164.285 9.31823 165.585 9.31823C166.885 9.31823 168.003 10.3062 168.003 11.9572ZM176.411 15.5322H177.581V11.3332C177.581 9.29223 176.32 8.27823 174.669 8.27823C173.707 8.27823 172.849 8.68123 172.381 9.42223V8.40823H171.198V15.5322H172.381V11.5932C172.381 10.0592 173.213 9.30523 174.422 9.30523C175.618 9.30523 176.411 10.0462 176.411 11.5022V15.5322ZM21.4314 31.9572C21.4314 29.7082 19.8584 28.2912 17.8304 28.2912C15.8154 28.2912 14.2294 29.7082 14.2294 31.9572C14.2294 34.2192 15.7634 35.6492 17.7784 35.6492C19.8064 35.6492 21.4314 34.2192 21.4314 31.9572ZM15.4384 31.9572C15.4384 30.1632 16.5694 29.3182 17.8174 29.3182C19.0394 29.3182 20.2224 30.1632 20.2224 31.9572C20.2224 33.7642 19.0134 34.6092 17.7784 34.6092C16.5434 34.6092 15.4384 33.7642 15.4384 31.9572ZM28.1998 35.5322H29.3698V31.3332C29.3698 29.2922 28.1088 28.2782 26.4578 28.2782C25.4958 28.2782 24.6378 28.6812 24.1698 29.4222V28.4082H22.9868V35.5322H24.1698V31.5932C24.1698 30.0592 25.0018 29.3052 26.2108 29.3052C27.4068 29.3052 28.1998 30.0462 28.1998 31.5022V35.5322ZM31.3023 35.5322H32.4853V25.9122H31.3023V35.5322ZM34.5015 35.5322H35.6845V28.4082H34.5015V35.5322ZM35.1125 27.2512C35.5415 27.2512 35.8925 26.9002 35.8925 26.4452C35.8925 25.9902 35.5415 25.6392 35.1125 25.6392C34.6575 25.6392 34.3065 25.9902 34.3065 26.4452C34.3065 26.9002 34.6575 27.2512 35.1125 27.2512ZM42.9137 35.5322H44.0837V31.3332C44.0837 29.2922 42.8227 28.2782 41.1717 28.2782C40.2097 28.2782 39.3517 28.6812 38.8837 29.4222V28.4082H37.7007V35.5322H38.8837V31.5932C38.8837 30.0592 39.7157 29.3052 40.9247 29.3052C42.1207 29.3052 42.9137 30.0462 42.9137 31.5022V35.5322ZM49.0451 29.2922C50.2671 29.2922 51.3071 30.0592 51.2941 31.4502H46.7961C46.9261 30.0592 47.8881 29.2922 49.0451 29.2922ZM52.3731 33.3352H51.0991C50.8391 34.1022 50.1631 34.6482 49.0971 34.6482C47.8881 34.6482 46.8741 33.8552 46.7831 32.4122H52.4771C52.5031 32.1652 52.5161 31.9572 52.5161 31.6972C52.5161 29.7472 51.1641 28.2912 49.0971 28.2912C47.0171 28.2912 45.5741 29.7082 45.5741 31.9572C45.5741 34.2192 47.0691 35.6492 49.0971 35.6492C50.8651 35.6492 52.0091 34.6352 52.3731 33.3352ZM57.5435 35.5322H58.7265V28.4082H57.5435V35.5322ZM58.1545 27.2512C58.5835 27.2512 58.9345 26.9002 58.9345 26.4452C58.9345 25.9902 58.5835 25.6392 58.1545 25.6392C57.6995 25.6392 57.3485 25.9902 57.3485 26.4452C57.3485 26.9002 57.6995 27.2512 58.1545 27.2512ZM61.0027 33.5822C61.0027 35.0122 61.7177 35.5322 62.9787 35.5322H64.0447V34.5312H63.1737C62.4457 34.5312 62.1857 34.2842 62.1857 33.5822V29.3832H64.0447V28.4082H62.1857V26.6142H61.0027V28.4082H60.0797V29.3832H61.0027V33.5822ZM68.5071 29.2922C69.7291 29.2922 70.7691 30.0592 70.7561 31.4502H66.2581C66.3881 30.0592 67.3501 29.2922 68.5071 29.2922ZM71.8351 33.3352H70.5611C70.3011 34.1022 69.6251 34.6482 68.5591 34.6482C67.3501 34.6482 66.3361 33.8552 66.2451 32.4122H71.9391C71.9651 32.1652 71.9781 31.9572 71.9781 31.6972C71.9781 29.7472 70.6261 28.2912 68.5591 28.2912C66.4791 28.2912 65.0361 29.7082 65.0361 31.9572C65.0361 34.2192 66.5311 35.6492 68.5591 35.6492C70.3271 35.6492 71.4711 34.6352 71.8351 33.3352ZM83.8226 35.5322H84.9926V31.3332C84.9926 29.2922 83.7316 28.2782 82.1066 28.2782C81.0146 28.2782 80.0006 28.8372 79.5846 29.8642C79.1166 28.7982 78.1416 28.2782 76.9716 28.2782C76.0356 28.2782 75.1906 28.6812 74.7226 29.4352V28.4082H73.5396V35.5322H74.7226V31.6062C74.7226 30.0722 75.5416 29.3052 76.7376 29.3052C77.9076 29.3052 78.6876 30.0462 78.6876 31.5022V35.5322H79.8576V31.6062C79.8576 30.0722 80.6766 29.3052 81.8726 29.3052C83.0426 29.3052 83.8226 30.0462 83.8226 31.5022V35.5322ZM91.5819 29.7342V25.9122H90.3989V35.5322H91.5819V34.2192C92.0239 34.9992 92.9469 35.6492 94.2469 35.6492C96.1579 35.6492 97.6269 34.1542 97.6269 31.9442C97.6269 29.7212 96.1709 28.2912 94.2469 28.2912C92.9859 28.2912 92.0369 28.9412 91.5819 29.7342ZM96.4179 31.9442C96.4179 33.6212 95.3129 34.6092 93.9999 34.6092C92.7129 34.6092 91.5819 33.6342 91.5819 31.9572C91.5819 30.3062 92.7129 29.3182 93.9999 29.3182C95.3129 29.3182 96.4179 30.2672 96.4179 31.9442ZM105.502 28.4082H104.319V32.3212C104.319 33.8552 103.5 34.6092 102.278 34.6092C101.082 34.6092 100.289 33.8682 100.289 32.4252V28.4082H99.1191V32.5812C99.1191 34.6222 100.406 35.6362 102.044 35.6362C102.993 35.6362 103.864 35.2202 104.319 34.4792V35.5322H105.502V28.4082ZM107.76 33.5822C107.76 35.0122 108.475 35.5322 109.736 35.5322H110.802V34.5312H109.931C109.203 34.5312 108.943 34.2842 108.943 33.5822V29.3832H110.802V28.4082H108.943V26.6142H107.76V28.4082H106.837V29.3832H107.76V33.5822ZM120.823 33.5952C120.771 31.0472 116.637 31.9702 116.637 30.2802C116.637 29.7082 117.157 29.2922 118.028 29.2922C118.977 29.2922 119.523 29.8122 119.575 30.5272H120.758C120.68 29.1362 119.64 28.2912 118.067 28.2912C116.481 28.2912 115.454 29.1882 115.454 30.2802C115.454 32.9322 119.666 32.0092 119.666 33.5952C119.666 34.1802 119.146 34.6482 118.21 34.6482C117.209 34.6482 116.598 34.1282 116.533 33.4392H115.311C115.389 34.7392 116.559 35.6492 118.223 35.6492C119.796 35.6492 120.823 34.7652 120.823 33.5952ZM122.493 35.5322H123.676V31.5932C123.676 30.0592 124.508 29.3052 125.717 29.3052C126.913 29.3052 127.706 30.0462 127.706 31.5022V35.5322H128.876V31.3332C128.876 29.2922 127.615 28.2782 126.029 28.2782C125.028 28.2782 124.144 28.6812 123.676 29.4352V25.9122H122.493V35.5322ZM133.837 29.2922C135.059 29.2922 136.099 30.0592 136.086 31.4502H131.588C131.718 30.0592 132.68 29.2922 133.837 29.2922ZM137.165 33.3352H135.891C135.631 34.1022 134.955 34.6482 133.889 34.6482C132.68 34.6482 131.666 33.8552 131.575 32.4122H137.269C137.295 32.1652 137.308 31.9572 137.308 31.6972C137.308 29.7472 135.956 28.2912 133.889 28.2912C131.809 28.2912 130.366 29.7082 130.366 31.9572C130.366 34.2192 131.861 35.6492 133.889 35.6492C135.657 35.6492 136.801 34.6352 137.165 33.3352ZM141.893 31.9442C141.893 34.1542 143.362 35.6492 145.273 35.6492C146.573 35.6492 147.496 34.9862 147.925 34.1932V35.5322H149.121V25.9122H147.925V29.6822C147.431 28.8632 146.404 28.2912 145.286 28.2912C143.362 28.2912 141.893 29.7212 141.893 31.9442ZM147.925 31.9572C147.925 33.6342 146.807 34.6092 145.507 34.6092C144.207 34.6092 143.102 33.6212 143.102 31.9442C143.102 30.2672 144.207 29.3182 145.507 29.3182C146.807 29.3182 147.925 30.3062 147.925 31.9572ZM157.881 31.9572C157.881 29.7082 156.308 28.2912 154.28 28.2912C152.265 28.2912 150.679 29.7082 150.679 31.9572C150.679 34.2192 152.213 35.6492 154.228 35.6492C156.256 35.6492 157.881 34.2192 157.881 31.9572ZM151.888 31.9572C151.888 30.1632 153.019 29.3182 154.267 29.3182C155.489 29.3182 156.672 30.1632 156.672 31.9572C156.672 33.7642 155.463 34.6092 154.228 34.6092C152.993 34.6092 151.888 33.7642 151.888 31.9572ZM164.649 35.5322H165.819V31.3332C165.819 29.2922 164.558 28.2782 162.907 28.2782C161.945 28.2782 161.087 28.6812 160.619 29.4222V28.4082H159.436V35.5322H160.619V31.5932C160.619 30.0592 161.451 29.3052 162.66 29.3052C163.856 29.3052 164.649 30.0462 164.649 31.5022V35.5322ZM167.998 29.4222L169.246 26.4712H167.933L167.166 29.4222H167.998ZM170.855 33.5822C170.855 35.0122 171.57 35.5322 172.831 35.5322H173.897V34.5312H173.026C172.298 34.5312 172.038 34.2842 172.038 33.5822V29.3832H173.897V28.4082H172.038V26.6142H170.855V28.4082H169.932V29.3832H170.855V33.5822ZM30.166 55.5322H31.349V51.5932C31.349 50.0592 32.181 49.3052 33.39 49.3052C34.586 49.3052 35.379 50.0462 35.379 51.5022V55.5322H36.549V51.3332C36.549 49.2922 35.288 48.2782 33.702 48.2782C32.701 48.2782 31.817 48.6812 31.349 49.4352V45.9122H30.166V55.5322ZM38.0395 51.9442C38.0395 54.1542 39.5085 55.6492 41.4065 55.6492C42.7195 55.6492 43.6425 54.9732 44.0715 54.2062V55.5322H45.2675V48.4082H44.0715V49.7082C43.6555 48.9672 42.7455 48.2912 41.4195 48.2912C39.5085 48.2912 38.0395 49.7212 38.0395 51.9442ZM44.0715 51.9572C44.0715 53.6342 42.9535 54.6092 41.6535 54.6092C40.3535 54.6092 39.2485 53.6212 39.2485 51.9442C39.2485 50.2672 40.3535 49.3182 41.6535 49.3182C42.9535 49.3182 44.0715 50.3062 44.0715 51.9572ZM46.4216 48.4082L49.2166 55.5322H50.5946L53.3896 48.4082H52.1286L49.9186 54.4402L47.6956 48.4082H46.4216ZM57.5827 49.2922C58.8047 49.2922 59.8447 50.0592 59.8317 51.4502H55.3337C55.4637 50.0592 56.4257 49.2922 57.5827 49.2922ZM60.9107 53.3352H59.6367C59.3767 54.1022 58.7007 54.6482 57.6347 54.6482C56.4257 54.6482 55.4117 53.8552 55.3207 52.4122H61.0147C61.0407 52.1652 61.0537 51.9572 61.0537 51.6972C61.0537 49.7472 59.7017 48.2912 57.6347 48.2912C55.5547 48.2912 54.1117 49.7082 54.1117 51.9572C54.1117 54.2192 55.6067 55.6492 57.6347 55.6492C59.4027 55.6492 60.5467 54.6352 60.9107 53.3352ZM65.6391 51.9442C65.6391 54.1542 67.1081 55.6492 69.0061 55.6492C70.3191 55.6492 71.2421 54.9732 71.6711 54.2062V55.5322H72.8671V48.4082H71.6711V49.7082C71.2551 48.9672 70.3451 48.2912 69.0191 48.2912C67.1081 48.2912 65.6391 49.7212 65.6391 51.9442ZM71.6711 51.9572C71.6711 53.6342 70.5531 54.6092 69.2531 54.6092C67.9531 54.6092 66.8481 53.6212 66.8481 51.9442C66.8481 50.2672 67.9531 49.3182 69.2531 49.3182C70.5531 49.3182 71.6711 50.3062 71.6711 51.9572ZM80.0792 55.5322H81.2492V51.3332C81.2492 49.2922 79.9882 48.2782 78.3372 48.2782C77.3752 48.2782 76.5172 48.6812 76.0492 49.4222V48.4082H74.8662V55.5322H76.0492V51.5932C76.0492 50.0592 76.8812 49.3052 78.0902 49.3052C79.2862 49.3052 80.0792 50.0462 80.0792 51.5022V55.5322ZM93.4075 51.9572C93.4075 49.7082 91.8345 48.2912 89.8065 48.2912C87.7915 48.2912 86.2055 49.7082 86.2055 51.9572C86.2055 54.2192 87.7395 55.6492 89.7545 55.6492C91.7825 55.6492 93.4075 54.2192 93.4075 51.9572ZM87.4145 51.9572C87.4145 50.1632 88.5455 49.3182 89.7935 49.3182C91.0155 49.3182 92.1985 50.1632 92.1985 51.9572C92.1985 53.7642 90.9895 54.6092 89.7545 54.6092C88.5195 54.6092 87.4145 53.7642 87.4145 51.9572ZM100.176 55.5322H101.346V51.3332C101.346 49.2922 100.085 48.2782 98.4339 48.2782C97.4719 48.2782 96.6139 48.6812 96.1459 49.4222V48.4082H94.9629V55.5322H96.1459V51.5932C96.1459 50.0592 96.9779 49.3052 98.1869 49.3052C99.3829 49.3052 100.176 50.0462 100.176 51.5022V55.5322ZM103.278 55.5322H104.461V45.9122H103.278V55.5322ZM106.478 55.5322H107.661V48.4082H106.478V55.5322ZM107.089 47.2512C107.518 47.2512 107.869 46.9002 107.869 46.4452C107.869 45.9902 107.518 45.6392 107.089 45.6392C106.634 45.6392 106.283 45.9902 106.283 46.4452C106.283 46.9002 106.634 47.2512 107.089 47.2512ZM114.89 55.5322H116.06V51.3332C116.06 49.2922 114.799 48.2782 113.148 48.2782C112.186 48.2782 111.328 48.6812 110.86 49.4222V48.4082H109.677V55.5322H110.86V51.5932C110.86 50.0592 111.692 49.3052 112.901 49.3052C114.097 49.3052 114.89 50.0462 114.89 51.5022V55.5322ZM121.021 49.2922C122.243 49.2922 123.283 50.0592 123.27 51.4502H118.772C118.902 50.0592 119.864 49.2922 121.021 49.2922ZM124.349 53.3352H123.075C122.815 54.1022 122.139 54.6482 121.073 54.6482C119.864 54.6482 118.85 53.8552 118.759 52.4122H124.453C124.479 52.1652 124.492 51.9572 124.492 51.6972C124.492 49.7472 123.14 48.2912 121.073 48.2912C118.993 48.2912 117.55 49.7082 117.55 51.9572C117.55 54.2192 119.045 55.6492 121.073 55.6492C122.841 55.6492 123.985 54.6352 124.349 53.3352ZM129.078 51.9572C129.078 54.2192 130.521 55.6492 132.549 55.6492C134.317 55.6492 135.474 54.6612 135.838 53.2442H134.564C134.304 54.1412 133.602 54.6482 132.549 54.6482C131.249 54.6482 130.287 53.7252 130.287 51.9572C130.287 50.2152 131.249 49.2922 132.549 49.2922C133.602 49.2922 134.317 49.8382 134.564 50.6962H135.838C135.474 49.2012 134.317 48.2912 132.549 48.2912C130.521 48.2912 129.078 49.7212 129.078 51.9572ZM136.974 51.9442C136.974 54.1542 138.443 55.6492 140.341 55.6492C141.654 55.6492 142.577 54.9732 143.006 54.2062V55.5322H144.202V48.4082H143.006V49.7082C142.59 48.9672 141.68 48.2912 140.354 48.2912C138.443 48.2912 136.974 49.7212 136.974 51.9442ZM143.006 51.9572C143.006 53.6342 141.888 54.6092 140.588 54.6092C139.288 54.6092 138.183 53.6212 138.183 51.9442C138.183 50.2672 139.288 49.3182 140.588 49.3182C141.888 49.3182 143.006 50.3062 143.006 51.9572ZM147.384 51.6582C147.384 50.0072 148.242 49.5002 149.373 49.5002H149.685V48.2782C148.554 48.2782 147.787 48.7722 147.384 49.5652V48.4082H146.201V55.5322H147.384V51.6582ZM150.609 51.9442C150.609 54.1542 152.078 55.6492 153.989 55.6492C155.289 55.6492 156.212 54.9862 156.641 54.1932V55.5322H157.837V45.9122H156.641V49.6822C156.147 48.8632 155.12 48.2912 154.002 48.2912C152.078 48.2912 150.609 49.7212 150.609 51.9442ZM156.641 51.9572C156.641 53.6342 155.523 54.6092 154.223 54.6092C152.923 54.6092 151.818 53.6212 151.818 51.9442C151.818 50.2672 152.923 49.3182 154.223 49.3182C155.523 49.3182 156.641 50.3062 156.641 51.9572Z" fill="#494B52"/>
</svg>
