<svg width="189" height="63" viewBox="0 0 189 63" fill="none" xmlns="http://www.w3.org/2000/svg">
<path d="M6.01066 10.9952C6.01066 13.7122 7.99966 15.6102 10.5347 15.6102C12.4977 15.6102 14.0577 14.6352 14.7337 12.8932H13.3167C12.8227 13.9722 11.8607 14.5832 10.5347 14.5832C8.63666 14.5832 7.21966 13.2052 7.21966 10.9952C7.21966 8.77223 8.63666 7.39423 10.5347 7.39423C11.8607 7.39423 12.8227 8.00523 13.3167 9.09723H14.7337C14.0577 7.34223 12.4977 6.35423 10.5347 6.35423C7.99966 6.35423 6.01066 8.27823 6.01066 10.9952ZM16.0527 11.9442C16.0527 14.1542 17.5217 15.6492 19.4197 15.6492C20.7327 15.6492 21.6557 14.9732 22.0847 14.2062V15.5322H23.2807V8.40823H22.0847V9.70823C21.6687 8.96723 20.7587 8.29123 19.4327 8.29123C17.5217 8.29123 16.0527 9.72123 16.0527 11.9442ZM22.0847 11.9572C22.0847 13.6342 20.9667 14.6092 19.6667 14.6092C18.3667 14.6092 17.2617 13.6212 17.2617 11.9442C17.2617 10.2672 18.3667 9.31823 19.6667 9.31823C20.9667 9.31823 22.0847 10.3062 22.0847 11.9572ZM26.4628 11.6582C26.4628 10.0072 27.3208 9.50023 28.4518 9.50023H28.7638V8.27823C27.6328 8.27823 26.8658 8.77223 26.4628 9.56523V8.40823H25.2798V15.5322H26.4628V11.6582ZM29.6874 11.9442C29.6874 14.1542 31.1564 15.6492 33.0674 15.6492C34.3674 15.6492 35.2904 14.9862 35.7194 14.1932V15.5322H36.9154V5.91223H35.7194V9.68223C35.2254 8.86323 34.1984 8.29123 33.0804 8.29123C31.1564 8.29123 29.6874 9.72123 29.6874 11.9442ZM35.7194 11.9572C35.7194 13.6342 34.6014 14.6092 33.3014 14.6092C32.0014 14.6092 30.8964 13.6212 30.8964 11.9442C30.8964 10.2672 32.0014 9.31823 33.3014 9.31823C34.6014 9.31823 35.7194 10.3062 35.7194 11.9572ZM42.3804 15.5322H43.5634V11.5932C43.5634 10.0592 44.3954 9.30523 45.6044 9.30523C46.8004 9.30523 47.5934 10.0462 47.5934 11.5022V15.5322H48.7634V11.3332C48.7634 9.29223 47.5024 8.27823 45.9164 8.27823C44.9154 8.27823 44.0314 8.68123 43.5634 9.43523V5.91223H42.3804V15.5322ZM50.2538 11.9442C50.2538 14.1542 51.7228 15.6492 53.6208 15.6492C54.9338 15.6492 55.8568 14.9732 56.2858 14.2062V15.5322H57.4818V8.40823H56.2858V9.70823C55.8698 8.96723 54.9598 8.29123 53.6338 8.29123C51.7228 8.29123 50.2538 9.72123 50.2538 11.9442ZM56.2858 11.9572C56.2858 13.6342 55.1678 14.6092 53.8678 14.6092C52.5678 14.6092 51.4628 13.6212 51.4628 11.9442C51.4628 10.2672 52.5678 9.31823 53.8678 9.31823C55.1678 9.31823 56.2858 10.3062 56.2858 11.9572ZM64.603 13.5952C64.551 11.0472 60.417 11.9702 60.417 10.2802C60.417 9.70823 60.937 9.29223 61.808 9.29223C62.757 9.29223 63.303 9.81223 63.355 10.5272H64.538C64.46 9.13623 63.42 8.29123 61.847 8.29123C60.261 8.29123 59.234 9.18823 59.234 10.2802C59.234 12.9322 63.446 12.0092 63.446 13.5952C63.446 14.1802 62.926 14.6482 61.99 14.6482C60.989 14.6482 60.378 14.1282 60.313 13.4392H59.091C59.169 14.7392 60.339 15.6492 62.003 15.6492C63.576 15.6492 64.603 14.7652 64.603 13.5952ZM70.9218 9.73423V5.91223H69.7388V15.5322H70.9218V14.2192C71.3638 14.9992 72.2868 15.6492 73.5868 15.6492C75.4978 15.6492 76.9668 14.1542 76.9668 11.9442C76.9668 9.72123 75.5108 8.29123 73.5868 8.29123C72.3258 8.29123 71.3768 8.94123 70.9218 9.73423ZM75.7578 11.9442C75.7578 13.6212 74.6528 14.6092 73.3398 14.6092C72.0528 14.6092 70.9218 13.6342 70.9218 11.9572C70.9218 10.3062 72.0528 9.31823 73.3398 9.31823C74.6528 9.31823 75.7578 10.2672 75.7578 11.9442ZM81.5529 9.29223C82.7749 9.29223 83.8149 10.0592 83.8019 11.4502H79.3039C79.4339 10.0592 80.3959 9.29223 81.5529 9.29223ZM84.8809 13.3352H83.6069C83.3469 14.1022 82.6709 14.6482 81.6049 14.6482C80.3959 14.6482 79.3819 13.8552 79.2909 12.4122H84.9849C85.0109 12.1652 85.0239 11.9572 85.0239 11.6972C85.0239 9.74723 83.6719 8.29123 81.6049 8.29123C79.5249 8.29123 78.0819 9.70823 78.0819 11.9572C78.0819 14.2192 79.5769 15.6492 81.6049 15.6492C83.3729 15.6492 84.5169 14.6352 84.8809 13.3352ZM89.6145 9.29223C90.8365 9.29223 91.8765 10.0592 91.8635 11.4502H87.3655C87.4955 10.0592 88.4575 9.29223 89.6145 9.29223ZM92.9425 13.3352H91.6685C91.4085 14.1022 90.7325 14.6482 89.6665 14.6482C88.4575 14.6482 87.4435 13.8552 87.3525 12.4122H93.0465C93.0725 12.1652 93.0855 11.9572 93.0855 11.6972C93.0855 9.74723 91.7335 8.29123 89.6665 8.29123C87.5865 8.29123 86.1435 9.70823 86.1435 11.9572C86.1435 14.2192 87.6385 15.6492 89.6665 15.6492C91.4345 15.6492 92.5785 14.6352 92.9425 13.3352ZM99.86 15.5322H101.03V11.3332C101.03 9.29223 99.769 8.27823 98.118 8.27823C97.156 8.27823 96.298 8.68123 95.83 9.42223V8.40823H94.647V15.5322H95.83V11.5932C95.83 10.0592 96.662 9.30523 97.871 9.30523C99.067 9.30523 99.86 10.0462 99.86 11.5022V15.5322ZM111.55 13.5952C111.498 11.0472 107.364 11.9702 107.364 10.2802C107.364 9.70823 107.884 9.29223 108.755 9.29223C109.704 9.29223 110.25 9.81223 110.302 10.5272H111.485C111.407 9.13623 110.367 8.29123 108.794 8.29123C107.208 8.29123 106.181 9.18823 106.181 10.2802C106.181 12.9322 110.393 12.0092 110.393 13.5952C110.393 14.1802 109.873 14.6482 108.937 14.6482C107.936 14.6482 107.325 14.1282 107.26 13.4392H106.038C106.116 14.7392 107.286 15.6492 108.95 15.6492C110.523 15.6492 111.55 14.7652 111.55 13.5952ZM119.538 8.40823H118.355V12.3212C118.355 13.8552 117.536 14.6092 116.314 14.6092C115.118 14.6092 114.325 13.8682 114.325 12.4252V8.40823H113.155V12.5812C113.155 14.6222 114.442 15.6362 116.08 15.6362C117.029 15.6362 117.9 15.2202 118.355 14.4792V15.5322H119.538V8.40823ZM121.094 11.9572C121.094 14.2192 122.537 15.6492 124.565 15.6492C126.333 15.6492 127.49 14.6612 127.854 13.2442H126.58C126.32 14.1412 125.618 14.6482 124.565 14.6482C123.265 14.6482 122.303 13.7252 122.303 11.9572C122.303 10.2152 123.265 9.29223 124.565 9.29223C125.618 9.29223 126.333 9.83823 126.58 10.6962H127.854C127.49 9.20123 126.333 8.29123 124.565 8.29123C122.537 8.29123 121.094 9.72123 121.094 11.9572ZM128.99 11.9572C128.99 14.2192 130.433 15.6492 132.461 15.6492C134.229 15.6492 135.386 14.6612 135.75 13.2442H134.476C134.216 14.1412 133.514 14.6482 132.461 14.6482C131.161 14.6482 130.199 13.7252 130.199 11.9572C130.199 10.2152 131.161 9.29223 132.461 9.29223C133.514 9.29223 134.229 9.83823 134.476 10.6962H135.75C135.386 9.20123 134.229 8.29123 132.461 8.29123C130.433 8.29123 128.99 9.72123 128.99 11.9572ZM140.358 9.29223C141.58 9.29223 142.62 10.0592 142.607 11.4502H138.109C138.239 10.0592 139.201 9.29223 140.358 9.29223ZM143.686 13.3352H142.412C142.152 14.1022 141.476 14.6482 140.41 14.6482C139.201 14.6482 138.187 13.8552 138.096 12.4122H143.79C143.816 12.1652 143.829 11.9572 143.829 11.6972C143.829 9.74723 142.477 8.29123 140.41 8.29123C138.33 8.29123 136.887 9.70823 136.887 11.9572C136.887 14.2192 138.382 15.6492 140.41 15.6492C142.178 15.6492 143.322 14.6352 143.686 13.3352ZM150.512 13.5952C150.46 11.0472 146.326 11.9702 146.326 10.2802C146.326 9.70823 146.846 9.29223 147.717 9.29223C148.666 9.29223 149.212 9.81223 149.264 10.5272H150.447C150.369 9.13623 149.329 8.29123 147.756 8.29123C146.17 8.29123 145.143 9.18823 145.143 10.2802C145.143 12.9322 149.355 12.0092 149.355 13.5952C149.355 14.1802 148.835 14.6482 147.899 14.6482C146.898 14.6482 146.287 14.1282 146.222 13.4392H145C145.078 14.7392 146.248 15.6492 147.912 15.6492C149.485 15.6492 150.512 14.7652 150.512 13.5952ZM157.304 13.5952C157.252 11.0472 153.118 11.9702 153.118 10.2802C153.118 9.70823 153.638 9.29223 154.509 9.29223C155.458 9.29223 156.004 9.81223 156.056 10.5272H157.239C157.161 9.13623 156.121 8.29123 154.548 8.29123C152.962 8.29123 151.935 9.18823 151.935 10.2802C151.935 12.9322 156.147 12.0092 156.147 13.5952C156.147 14.1802 155.627 14.6482 154.691 14.6482C153.69 14.6482 153.079 14.1282 153.014 13.4392H151.792C151.87 14.7392 153.04 15.6492 154.704 15.6492C156.277 15.6492 157.304 14.7652 157.304 13.5952ZM159.195 15.5322H160.378V9.38323H161.873V8.40823H160.378V7.90123C160.378 6.97823 160.729 6.58823 161.795 6.58823V5.60023C159.975 5.60023 159.195 6.31523 159.195 7.90123V8.40823H158.272V9.38323H159.195V15.5322ZM169.57 8.40823H168.387V12.3212C168.387 13.8552 167.568 14.6092 166.346 14.6092C165.15 14.6092 164.357 13.8682 164.357 12.4252V8.40823H163.187V12.5812C163.187 14.6222 164.474 15.6362 166.112 15.6362C167.061 15.6362 167.932 15.2202 168.387 14.4792V15.5322H169.57V8.40823ZM171.568 15.5322H172.751V5.91223H171.568V15.5322ZM174.767 15.5322H175.95V5.91223H174.767V15.5322ZM180.67 14.1802L178.434 8.40823H177.121L179.994 15.4542L178.59 18.8862H179.812L184.102 8.40823H182.88L180.67 14.1802ZM69.8427 31.9572C69.8427 34.2192 71.2857 35.6492 73.3137 35.6492C75.0817 35.6492 76.2387 34.6612 76.6027 33.2442H75.3287C75.0687 34.1412 74.3667 34.6482 73.3137 34.6482C72.0137 34.6482 71.0517 33.7252 71.0517 31.9572C71.0517 30.2152 72.0137 29.2922 73.3137 29.2922C74.3667 29.2922 75.0817 29.8382 75.3287 30.6962H76.6027C76.2387 29.2012 75.0817 28.2912 73.3137 28.2912C71.2857 28.2912 69.8427 29.7212 69.8427 31.9572ZM79.3642 31.6582C79.3642 30.0072 80.2222 29.5002 81.3532 29.5002H81.6652V28.2782C80.5342 28.2782 79.7672 28.7722 79.3642 29.5652V28.4082H78.1812V35.5322H79.3642V31.6582ZM86.0598 29.2922C87.2818 29.2922 88.3218 30.0592 88.3088 31.4502H83.8108C83.9408 30.0592 84.9028 29.2922 86.0598 29.2922ZM89.3878 33.3352H88.1138C87.8538 34.1022 87.1778 34.6482 86.1118 34.6482C84.9028 34.6482 83.8888 33.8552 83.7978 32.4122H89.4918C89.5178 32.1652 89.5308 31.9572 89.5308 31.6972C89.5308 29.7472 88.1788 28.2912 86.1118 28.2912C84.0318 28.2912 82.5888 29.7082 82.5888 31.9572C82.5888 34.2192 84.0838 35.6492 86.1118 35.6492C87.8798 35.6492 89.0238 34.6352 89.3878 33.3352ZM90.6503 31.9442C90.6503 34.1542 92.1193 35.6492 94.0173 35.6492C95.3303 35.6492 96.2533 34.9732 96.6823 34.2062V35.5322H97.8783V28.4082H96.6823V29.7082C96.2663 28.9672 95.3563 28.2912 94.0303 28.2912C92.1193 28.2912 90.6503 29.7212 90.6503 31.9442ZM96.6823 31.9572C96.6823 33.6342 95.5643 34.6092 94.2643 34.6092C92.9643 34.6092 91.8593 33.6212 91.8593 31.9442C91.8593 30.2672 92.9643 29.3182 94.2643 29.3182C95.5643 29.3182 96.6823 30.3062 96.6823 31.9572ZM100.137 33.5822C100.137 35.0122 100.852 35.5322 102.113 35.5322H103.179V34.5312H102.308C101.58 34.5312 101.32 34.2842 101.32 33.5822V29.3832H103.179V28.4082H101.32V26.6142H100.137V28.4082H99.2145V29.3832H100.137V33.5822ZM107.642 29.2922C108.864 29.2922 109.904 30.0592 109.891 31.4502H105.393C105.523 30.0592 106.485 29.2922 107.642 29.2922ZM110.97 33.3352H109.696C109.436 34.1022 108.76 34.6482 107.694 34.6482C106.485 34.6482 105.471 33.8552 105.38 32.4122H111.074C111.1 32.1652 111.113 31.9572 111.113 31.6972C111.113 29.7472 109.761 28.2912 107.694 28.2912C105.614 28.2912 104.171 29.7082 104.171 31.9572C104.171 34.2192 105.666 35.6492 107.694 35.6492C109.462 35.6492 110.606 34.6352 110.97 33.3352ZM112.232 31.9442C112.232 34.1542 113.701 35.6492 115.612 35.6492C116.912 35.6492 117.835 34.9862 118.264 34.1932V35.5322H119.46V25.9122H118.264V29.6822C117.77 28.8632 116.743 28.2912 115.625 28.2912C113.701 28.2912 112.232 29.7212 112.232 31.9442ZM118.264 31.9572C118.264 33.6342 117.146 34.6092 115.846 34.6092C114.546 34.6092 113.441 33.6212 113.441 31.9442C113.441 30.2672 114.546 29.3182 115.846 29.3182C117.146 29.3182 118.264 30.3062 118.264 31.9572Z" fill="#494B52"/>
</svg>
