<svg width="55" height="55" viewBox="0 0 55 55" fill="none" xmlns="http://www.w3.org/2000/svg">
<path d="M52.8999 8.39244L19.2148 0.569075C17.7896 0.238178 16.377 1.24724 16.0755 2.81128L15.4355 7.32469L54.3025 16.351L54.9424 11.8376C55.2439 10.2742 54.325 8.72343 52.8999 8.39244Z" fill="#6654A4"/>
<path d="M38.735 17.308C38.3416 15.7531 36.8609 14.834 35.4444 15.2651L29.0498 17.2133L13.9747 13.712L12.3168 22.3089L1.95794 25.4642C0.54158 25.8954 -0.295923 27.5204 0.0969012 29.0749L5.93471 52.1615C6.32816 53.7159 7.80896 54.6356 9.22532 54.2039L42.7118 44.0054C44.1281 43.5736 44.9656 41.9492 44.5728 40.3942L43.5708 36.4309L47.3264 37.3023C48.7515 37.6338 50.1641 36.6247 50.4656 35.0607L52.8417 22.7384L39.3139 19.5968L38.735 17.308ZM42.6022 29.0416L43.4304 24.7462C43.5548 24.103 44.1359 23.6882 44.7218 23.824L48.6359 24.7334C49.2225 24.8699 49.6004 25.507 49.4767 26.1507L48.6485 30.4462C48.5242 31.0893 47.9431 31.5047 47.3571 31.3683L43.4431 30.4595C42.8559 30.3225 42.4779 29.6848 42.6022 29.0416ZM2.54066 27.768L11.8077 24.9467L33.6731 18.2876L36.026 17.5702C36.0689 17.5575 36.1118 17.5515 36.1537 17.5515C36.3424 17.5515 36.5681 17.6874 36.634 17.9476L36.9103 19.0395L37.7758 22.4622L3.33853 32.9499L2.19673 28.4359C2.12519 28.1527 2.28264 27.8465 2.54066 27.768ZM42.4729 41.033C42.5169 41.2082 42.4708 41.353 42.4239 41.4437C42.3777 41.5342 42.2886 41.6527 42.129 41.7009L8.64314 51.8993C8.60081 51.912 8.55731 51.9187 8.51543 51.9187C8.3267 51.9187 8.10104 51.7822 8.03507 51.5219L4.63006 38.0558L39.0674 27.5675L41.1677 35.8728L42.4729 41.033Z" fill="#6654A4"/>
<path d="M14.0539 41.9548C13.8932 41.3207 13.2901 40.9463 12.7123 41.1221L8.80161 42.3135C8.22438 42.4893 7.88269 43.1518 8.04338 43.7858L9.12847 48.077C9.28916 48.7111 9.89228 49.0855 10.4701 48.9092L14.3808 47.7183C14.9586 47.5426 15.2997 46.8801 15.1396 46.246L14.0539 41.9548Z" fill="#6654A4"/>
</svg>
