<svg width="306" height="77" viewBox="0 0 306 77" fill="none" xmlns="http://www.w3.org/2000/svg">
<path d="M161.581 5.98C160.927 5.98 160.601 5.64667 160.601 4.98C160.601 4.32667 160.927 4 161.581 4C162.221 4 162.541 4.32667 162.541 4.98C162.541 5.64667 162.221 5.98 161.581 5.98ZM168.881 13.38H170.201V15H168.681C167.987 15 167.387 14.86 166.881 14.58C166.721 15.94 166.127 17 165.101 17.76C164.181 18.4533 163.041 18.8 161.681 18.8C159.947 18.8 158.601 18.1867 157.641 16.96C156.907 16.0133 156.541 14.8933 156.541 13.6C156.541 12.48 156.821 11.52 157.381 10.72L159.041 10.36C158.441 11.3067 158.141 12.3267 158.141 13.42C158.141 14.54 158.487 15.46 159.181 16.18C159.834 16.8467 160.667 17.18 161.681 17.18C162.854 17.18 163.761 16.84 164.401 16.16C164.934 15.5867 165.201 14.84 165.201 13.92V7.24L166.921 6.32V11.38C166.921 12.7133 167.574 13.38 168.881 13.38ZM168.994 15V13.38H170.314C171.62 13.38 172.274 12.7133 172.274 11.38V7.24L173.994 6.32V11.44C173.994 12.5733 173.654 13.4667 172.974 14.12C172.347 14.7067 171.527 15 170.514 15H168.994ZM170.054 18.98C169.4 18.98 169.074 18.6467 169.074 17.98C169.074 17.3267 169.4 17 170.054 17C170.694 17 171.014 17.3267 171.014 17.98C171.014 18.6467 170.694 18.98 170.054 18.98ZM172.594 18.98C171.94 18.98 171.614 18.6467 171.614 17.98C171.614 17.3267 171.94 17 172.594 17C173.234 17 173.554 17.3267 173.554 17.98C173.554 18.6467 173.234 18.98 172.594 18.98ZM188.685 13.38H190.005V15H188.485C187.338 15 186.452 14.6333 185.825 13.9C185.158 14.6333 184.238 15 183.065 15H176.185L177.025 13.38H179.945V5.62L181.665 4.7V13.38H182.925C184.312 13.38 185.005 12.6533 185.005 11.2V3.02L186.745 2.1V11.22C186.745 11.9933 186.892 12.5467 187.185 12.88C187.492 13.2133 187.992 13.38 188.685 13.38ZM192.878 3.9C192.225 3.9 191.898 3.56667 191.898 2.9C191.898 2.24667 192.225 1.92 192.878 1.92C193.518 1.92 193.838 2.24667 193.838 2.9C193.838 3.56667 193.518 3.9 192.878 3.9ZM188.798 15V13.38H190.118C191.425 13.38 192.078 12.7133 192.078 11.38V7.24L193.798 6.32V11.44C193.798 12.5733 193.458 13.4667 192.778 14.12C192.152 14.7067 191.332 15 190.318 15H188.798ZM202.31 14.36C201.803 14.56 201.183 14.66 200.45 14.66C199.263 14.66 198.33 14.2133 197.65 13.32C197.077 12.56 196.79 11.6067 196.79 10.46C196.79 9.04667 197.17 7.94 197.93 7.14C198.61 6.42 199.503 6.06 200.61 6.06C201.743 6.06 202.617 6.41333 203.23 7.12C203.777 7.74667 204.05 8.56667 204.05 9.58V13.94C204.05 15.4467 203.657 16.64 202.87 17.52C202.123 18.3467 201.13 18.76 199.89 18.76C199.063 18.76 198.283 18.5667 197.55 18.18V16.66C198.257 17.0333 198.957 17.22 199.65 17.22C200.437 17.22 201.063 16.9667 201.53 16.46C201.997 15.9667 202.257 15.2667 202.31 14.36ZM202.31 9.66C202.31 8.32667 201.743 7.66 200.61 7.66C199.943 7.66 199.417 7.90667 199.03 8.4C198.657 8.89333 198.47 9.56667 198.47 10.42C198.47 11.26 198.65 11.9333 199.01 12.44C199.383 12.9333 199.883 13.18 200.51 13.18C201.39 13.18 201.99 12.9333 202.31 12.44V9.66ZM207.448 15V3.02L209.168 2.1V15H207.448ZM221.909 14.52C220.642 15.28 219.876 15.8 219.609 16.08C219.076 16.6 218.809 17.2467 218.809 18.02C218.809 18.8733 219.102 19.56 219.689 20.08C220.276 20.6133 221.036 20.88 221.969 20.88C223.436 20.8667 224.662 20.5133 225.649 19.82V21.44C224.502 22.1467 223.249 22.5 221.889 22.5C220.409 22.5 219.222 22.0133 218.329 21.04C217.556 20.2133 217.169 19.1933 217.169 17.98C217.169 17.0733 217.409 16.3 217.889 15.66C218.369 15.0333 219.216 14.3733 220.429 13.68C219.336 12.88 218.216 11.6267 217.069 9.92V9.04C217.722 8.10667 218.489 7.38 219.369 6.86C220.249 6.32667 221.142 6.06 222.049 6.06C222.942 6.06 223.836 6.33333 224.729 6.88C225.622 7.41333 226.389 8.14667 227.029 9.08V9.92C226.349 10.9467 225.222 12.0867 223.649 13.34C223.942 13.3667 224.176 13.38 224.349 13.38H229.629L229.649 15H224.209C223.422 15 222.656 14.84 221.909 14.52ZM218.669 9.5C219.869 11.14 220.962 12.2267 221.949 12.76C223.242 11.88 224.402 10.78 225.429 9.46C224.442 8.26 223.316 7.65333 222.049 7.64C220.769 7.64 219.642 8.26 218.669 9.5ZM234.967 4.02C234.314 4.02 233.987 3.68667 233.987 3.02C233.987 2.36667 234.314 2.04 234.967 2.04C235.607 2.04 235.927 2.36667 235.927 3.02C235.927 3.68667 235.607 4.02 234.967 4.02ZM228.447 15V13.38H232.047C231.434 12.7 231.127 11.7533 231.127 10.54C231.127 9.08667 231.507 7.95333 232.267 7.14C232.934 6.42 233.82 6.06 234.927 6.06C236.06 6.06 236.94 6.41333 237.567 7.12C238.1 7.74667 238.367 8.56667 238.367 9.58V11.48C238.354 12.5867 238.027 13.46 237.387 14.1C236.76 14.7 235.927 15 234.887 15H228.447ZM236.647 9.66C236.647 8.32667 236.074 7.66 234.927 7.66C234.274 7.66 233.76 7.91333 233.387 8.42C233.014 8.91333 232.827 9.60667 232.827 10.5C232.827 11.38 233.007 12.08 233.367 12.6C233.727 13.12 234.207 13.38 234.807 13.38C236.034 13.38 236.647 12.74 236.647 11.46V9.66ZM240.165 15L241.005 13.38H244.565C245.098 13.38 245.472 13.2467 245.685 12.98C245.912 12.7133 246.025 12.2533 246.025 11.6C246.025 9.82667 245.205 8.49333 243.565 7.6L244.445 6.12C246.538 7.34667 247.632 9.04 247.725 11.2C247.752 11.9733 247.925 12.5333 248.245 12.88C248.578 13.2133 249.105 13.38 249.825 13.38H251.005V15H249.685C248.578 15 247.712 14.6467 247.085 13.94C246.645 14.6467 245.905 15 244.865 15H240.165ZM249.814 15V13.38H250.874C252.261 13.38 252.954 12.6533 252.954 11.2V3.02L254.694 2.1V11.22C254.694 12.4067 254.341 13.3467 253.634 14.04C252.967 14.68 252.094 15 251.014 15H249.814ZM258.288 15V3.02L260.008 2.1V15H258.288ZM273.629 5.7C272.975 5.7 272.649 5.36667 272.649 4.7C272.649 4.04667 272.975 3.72 273.629 3.72C274.269 3.72 274.589 4.04667 274.589 4.7C274.589 5.36667 274.269 5.7 273.629 5.7ZM276.169 5.7C275.515 5.7 275.189 5.36667 275.189 4.7C275.189 4.04667 275.515 3.72 276.169 3.72C276.809 3.72 277.129 4.04667 277.129 4.7C277.129 5.36667 276.809 5.7 276.169 5.7ZM271.609 15C270.529 15 269.682 14.64 269.069 13.92C268.535 13.2933 268.269 12.4733 268.269 11.46V9.04L269.989 8.12V11.3C269.989 12.6867 270.635 13.38 271.929 13.38H278.569C279.862 13.38 280.509 12.6867 280.509 11.3V7.24L282.229 6.32V11.46C282.229 12.62 281.875 13.52 281.169 14.16C280.542 14.72 279.735 15 278.749 15H271.609ZM288.397 13.94C288.397 15.4333 288.003 16.6333 287.217 17.54C286.47 18.4067 285.477 18.84 284.237 18.84C283.437 18.84 282.657 18.64 281.897 18.24V16.74C282.577 17.1133 283.257 17.3 283.937 17.3C284.79 17.3 285.457 17.0133 285.937 16.44C286.417 15.8667 286.657 15.0733 286.657 14.06V7.24L288.397 6.32V13.94ZM295.479 15C294.319 15 293.426 14.6267 292.799 13.88C292.266 13.24 291.999 12.4267 291.999 11.44V3.02L293.719 2.1V11.38C293.719 12.7133 294.373 13.38 295.679 13.38H296.999V15H295.479ZM299.731 6.54C299.744 6.54 299.764 6.54 299.791 6.54C299.817 6.54 299.837 6.54 299.851 6.54C301.357 6.54 302.577 7.00667 303.511 7.94C304.364 8.78 304.791 9.85333 304.791 11.16V11.5C304.791 12.6467 304.437 13.54 303.731 14.18C303.104 14.7267 302.297 15 301.311 15H295.791V13.38H301.151C302.431 13.38 303.071 12.7067 303.071 11.36V11.18C303.071 10.1933 302.684 9.43333 301.911 8.9C301.297 8.48667 300.551 8.28 299.671 8.28C298.964 8.28 298.251 8.40667 297.531 8.66V6.96L301.911 2.1H303.671L299.731 6.54Z" fill="#6654A4"/>
<path d="M43.667 42.2C42.995 41.432 42.2483 41.048 41.427 41.048C40.9683 41.048 40.6057 41.1867 40.339 41.464C40.0723 41.7307 39.939 42.0987 39.939 42.568V42.6C39.9497 43.0907 40.099 43.4747 40.387 43.752C40.675 44.0293 41.235 44.312 42.067 44.6C42.9417 44.9093 43.5337 45.2187 43.843 45.528C44.163 45.8373 44.323 46.2747 44.323 46.84C44.323 47.7893 43.8697 48.568 42.963 49.176C42.1097 49.752 41.0003 50.04 39.635 50.04C37.9923 50.04 36.755 49.56 35.923 48.6C35.3043 47.8853 34.995 47.0053 34.995 45.96C34.995 45.0427 35.2297 44.2533 35.699 43.592L36.739 43.384C36.227 44.1627 35.971 44.9947 35.971 45.88C35.971 46.8507 36.307 47.624 36.979 48.2C37.6297 48.7653 38.515 49.048 39.635 49.048C40.8617 49.048 41.811 48.792 42.483 48.28C43.0057 47.8747 43.267 47.3947 43.267 46.84C43.267 46.5093 43.1497 46.248 42.915 46.056C42.6803 45.864 42.2163 45.6453 41.523 45.4C40.627 45.08 40.003 44.7653 39.651 44.456C39.1497 43.9973 38.899 43.3733 38.899 42.584C38.899 41.7627 39.1923 41.1173 39.779 40.648C40.2377 40.2853 40.7603 40.104 41.347 40.104C42.2857 40.104 43.059 40.456 43.667 41.16V42.2ZM38.627 52.68C38.1897 52.68 37.971 52.4613 37.971 52.024C37.971 51.5867 38.1897 51.368 38.627 51.368C39.043 51.368 39.251 51.5867 39.251 52.024C39.251 52.4613 39.043 52.68 38.627 52.68ZM40.451 52.68C40.0243 52.68 39.811 52.4613 39.811 52.024C39.811 51.5867 40.0243 51.368 40.451 51.368C40.8777 51.368 41.091 51.5867 41.091 52.024C41.091 52.4613 40.8777 52.68 40.451 52.68ZM49.6308 38.04C49.1934 38.04 48.9748 37.816 48.9748 37.368C48.9748 36.9413 49.1934 36.728 49.6308 36.728C50.0468 36.728 50.2548 36.9413 50.2548 37.368C50.2548 37.816 50.0468 38.04 49.6308 38.04ZM52.0308 46.008H52.5908V47H51.9028C51.2414 47 50.6921 46.84 50.2548 46.52C50.1694 48.2907 49.4548 49.4107 48.1108 49.88C47.7694 49.9973 47.4068 50.056 47.0228 50.056C46.4041 50.056 45.8067 49.9067 45.2307 49.608V48.664C45.7747 48.9627 46.3294 49.112 46.8948 49.112C47.3428 49.112 47.7374 49.0107 48.0788 48.808C48.8254 48.36 49.1988 47.5227 49.1988 46.296V40.712L50.2548 40.152V40.168L50.2708 40.152V44.184C50.2708 45.4 50.8574 46.008 52.0308 46.008ZM52.2775 47V46.008H52.8375C54.0108 46.008 54.5975 45.4 54.5975 44.184V40.712L55.6695 40.152V44.216C55.6695 45.112 55.4082 45.8107 54.8855 46.312C54.4055 46.7707 53.7655 47 52.9655 47H52.2775ZM52.8055 49.992C52.3682 49.992 52.1495 49.768 52.1495 49.32C52.1495 48.8933 52.3682 48.68 52.8055 48.68C53.2215 48.68 53.4295 48.8933 53.4295 49.32C53.4295 49.768 53.2215 49.992 52.8055 49.992ZM54.6295 49.992C54.1922 49.992 53.9735 49.768 53.9735 49.32C53.9735 48.8933 54.1922 48.68 54.6295 48.68C55.0455 48.68 55.2535 48.8933 55.2535 49.32C55.2535 49.768 55.0455 49.992 54.6295 49.992ZM58.5494 47V37.24L59.6214 36.68V47H58.5494ZM70.0103 39.672C69.5729 39.672 69.3543 39.448 69.3543 39C69.3543 38.5733 69.5729 38.36 70.0103 38.36C70.4263 38.36 70.6343 38.5733 70.6343 39C70.6343 39.448 70.4263 39.672 70.0103 39.672ZM75.9303 46.008H76.4903V47H75.8023C75.1409 47 74.5916 46.8453 74.1543 46.536C74.0796 47.656 73.6316 48.536 72.8103 49.176C72.0849 49.752 71.1676 50.04 70.0583 50.04C68.7036 50.04 67.6529 49.56 66.9062 48.6C66.3196 47.864 66.0263 46.984 66.0263 45.96C66.0263 45.0427 66.2609 44.2533 66.7303 43.592L67.7703 43.384C67.2583 44.1627 67.0023 44.9947 67.0023 45.88C67.0023 46.8187 67.3063 47.592 67.9143 48.2C68.4796 48.7653 69.1943 49.048 70.0583 49.048C71.0716 49.048 71.8556 48.7493 72.4103 48.152C72.8689 47.6613 73.0983 47.016 73.0983 46.216V40.712L74.1703 40.152V44.184C74.1703 45.4 74.7569 46.008 75.9303 46.008ZM78.4881 42.712C78.4881 41.8053 78.7601 41.1013 79.3041 40.6C79.7735 40.1733 80.3921 39.96 81.1601 39.96C82.1521 39.96 82.9148 40.3227 83.4481 41.048C83.9068 41.6667 84.1361 42.4773 84.1361 43.48C84.1361 44.6213 83.8428 45.512 83.2561 46.152C82.7441 46.7173 82.0775 47 81.2561 47C80.2535 47 79.5068 46.68 79.0161 46.04C78.5361 46.68 77.8161 47 76.8561 47H76.1681V46.008H76.7281C77.9015 46.008 78.4881 45.4 78.4881 44.184V42.712ZM79.5601 44.248C79.5601 45.4213 80.1361 46.008 81.2881 46.008C81.8428 46.008 82.2801 45.784 82.6001 45.336C82.9201 44.888 83.0801 44.264 83.0801 43.464C83.0801 42.6747 82.9095 42.056 82.5681 41.608C82.2375 41.16 81.7681 40.936 81.1601 40.936C80.0935 40.936 79.5601 41.56 79.5601 42.808V44.248ZM94.1955 46.6C94.0888 46.664 93.9128 46.7653 93.6675 46.904L93.6355 46.92C92.7608 47.4107 92.1742 47.832 91.8755 48.184C91.5875 48.536 91.4435 49.0053 91.4435 49.592C91.4435 50.296 91.6835 50.872 92.1635 51.32C92.6542 51.7787 93.2835 52.008 94.0515 52.008H94.0835C95.2995 52.008 96.2755 51.736 97.0115 51.192V52.168C96.1368 52.7227 95.1502 53 94.0515 53C92.8995 53 91.9822 52.6213 91.2995 51.864C90.7342 51.224 90.4515 50.456 90.4515 49.56C90.4515 48.8027 90.6382 48.1947 91.0115 47.736C91.3848 47.2773 92.1368 46.7333 93.2675 46.104C92.3395 45.4747 91.3582 44.424 90.3235 42.952V42.296C91.4328 40.7387 92.7395 39.96 94.2435 39.96C94.9475 39.96 95.6462 40.168 96.3395 40.584C97.0328 41 97.6462 41.5813 98.1795 42.328V42.952C97.4435 43.9653 96.4568 44.952 95.2195 45.912C95.4968 45.976 95.7848 46.008 96.0835 46.008H99.9555V47H96.0195C95.3902 47 94.7822 46.8667 94.1955 46.6ZM91.2515 42.648C92.3715 44.12 93.3582 45.08 94.2115 45.528C95.3102 44.76 96.3235 43.7893 97.2515 42.616C96.3982 41.496 95.3955 40.936 94.2435 40.936H94.1955C93.0968 40.936 92.1155 41.5067 91.2515 42.648ZM104.501 38.072C104.064 38.072 103.845 37.848 103.845 37.4C103.845 36.9733 104.064 36.76 104.501 36.76C104.917 36.76 105.125 36.9733 105.125 37.4C105.125 37.848 104.917 38.072 104.501 38.072ZM99.6369 47V46.008H102.357C101.77 45.4213 101.477 44.5787 101.477 43.48C101.477 42.328 101.776 41.4373 102.373 40.808C102.896 40.2427 103.589 39.96 104.453 39.96C105.338 39.96 106.021 40.2373 106.501 40.792C106.917 41.272 107.125 41.912 107.125 42.712V44.264C107.114 45.128 106.853 45.8053 106.341 46.296C105.872 46.7653 105.232 47 104.421 47H99.6369ZM106.069 42.808C106.069 41.56 105.53 40.936 104.453 40.936C103.856 40.936 103.386 41.16 103.045 41.608C102.714 42.0453 102.549 42.664 102.549 43.464C102.549 44.2427 102.709 44.8613 103.029 45.32C103.36 45.7787 103.797 46.008 104.341 46.008C105.493 46.008 106.069 45.4107 106.069 44.216V42.808ZM108.566 47L109.078 46.008H112.086C112.577 46.008 112.918 45.8853 113.11 45.64C113.313 45.3947 113.414 44.968 113.414 44.36C113.414 42.792 112.726 41.624 111.35 40.856L111.878 39.976C113.574 40.9573 114.438 42.3387 114.47 44.12C114.481 45.3787 115.094 46.008 116.31 46.008H116.806V47H116.198C115.27 47 114.561 46.6907 114.07 46.072C113.708 46.6907 113.105 47 112.262 47H108.566ZM116.481 47V46.008H116.929C118.145 46.008 118.753 45.3787 118.753 44.12V37.24L119.825 36.68V44.136C119.825 45.0427 119.558 45.7573 119.025 46.28C118.523 46.76 117.862 47 117.041 47H116.481ZM122.706 47V37.24L123.778 36.68V47H122.706ZM134.743 39.56C134.316 39.56 134.103 39.336 134.103 38.888C134.103 38.4613 134.316 38.248 134.743 38.248C135.169 38.248 135.383 38.4613 135.383 38.888C135.383 39.336 135.169 39.56 134.743 39.56ZM136.583 39.56C136.145 39.56 135.927 39.336 135.927 38.888C135.927 38.4613 136.145 38.248 136.583 38.248C136.999 38.248 137.207 38.4613 137.207 38.888C137.207 39.336 136.999 39.56 136.583 39.56ZM133.095 47C132.305 47 131.676 46.7547 131.207 46.264C130.737 45.7627 130.503 45.0907 130.503 44.248V42.152L131.575 41.592V44.12C131.575 45.3787 132.161 46.008 133.335 46.008H138.695C139.868 46.008 140.455 45.3787 140.455 44.12V40.712L141.527 40.152V44.248C141.527 45.1547 141.249 45.8587 140.695 46.36C140.215 46.7867 139.585 47 138.807 47H133.095ZM146.505 46.232C146.505 48.1733 145.79 49.3893 144.361 49.88C144.019 49.9973 143.657 50.056 143.273 50.056C142.654 50.056 142.057 49.9067 141.481 49.608V48.664C142.025 48.9627 142.579 49.112 143.145 49.112C143.593 49.112 143.987 49.0107 144.329 48.808C145.075 48.36 145.449 47.5227 145.449 46.296V40.712L146.505 40.152V46.232ZM152.082 47C151.175 47 150.476 46.7067 149.986 46.12C149.58 45.6187 149.378 44.984 149.378 44.216V37.24L150.45 36.68V44.184C150.45 45.4 151.036 46.008 152.21 46.008H152.77V47H152.082ZM160.945 46.008H161.345V47H160.817C159.857 47 159.137 46.6747 158.657 46.024C158.177 46.6747 157.452 47 156.481 47H152.449V46.008H156.369C157.532 46.008 158.113 45.384 158.113 44.136V43.976C158.113 43.1013 157.793 42.4453 157.153 42.008C156.641 41.6453 156.001 41.464 155.233 41.464C154.657 41.464 154.087 41.5653 153.521 41.768V40.712L157.153 36.68H158.257L154.977 40.392C155.084 40.3813 155.196 40.376 155.313 40.376C156.337 40.376 157.191 40.6373 157.873 41.16C158.748 41.832 159.185 42.7653 159.185 43.96V44.184C159.185 45.4 159.772 46.008 160.945 46.008ZM161.027 47V46.008H161.588C162.761 46.008 163.348 45.4 163.348 44.184V40.712L164.42 40.152V44.216C164.42 45.112 164.158 45.8107 163.636 46.312C163.156 46.7707 162.516 47 161.715 47H161.027ZM163.156 49.992C162.718 49.992 162.5 49.768 162.5 49.32C162.5 48.8933 162.718 48.68 163.156 48.68C163.572 48.68 163.78 48.8933 163.78 49.32C163.78 49.768 163.572 49.992 163.156 49.992ZM174.807 39.672C174.37 39.672 174.151 39.448 174.151 39C174.151 38.5733 174.37 38.36 174.807 38.36C175.223 38.36 175.431 38.5733 175.431 39C175.431 39.448 175.223 39.672 174.807 39.672ZM180.727 46.008H181.287V47H180.599C179.938 47 179.388 46.8453 178.951 46.536C178.876 47.656 178.428 48.536 177.607 49.176C176.882 49.752 175.964 50.04 174.855 50.04C173.5 50.04 172.45 49.56 171.703 48.6C171.116 47.864 170.823 46.984 170.823 45.96C170.823 45.0427 171.058 44.2533 171.527 43.592L172.567 43.384C172.055 44.1627 171.799 44.9947 171.799 45.88C171.799 46.8187 172.103 47.592 172.711 48.2C173.276 48.7653 173.991 49.048 174.855 49.048C175.868 49.048 176.652 48.7493 177.207 48.152C177.666 47.6613 177.895 47.016 177.895 46.216V40.712L178.967 40.152V44.184C178.967 45.4 179.554 46.008 180.727 46.008ZM180.965 47V46.008H181.525C182.698 46.008 183.285 45.4 183.285 44.184V40.712L184.357 40.152V44.216C184.357 45.112 184.096 45.8107 183.573 46.312C183.093 46.7707 182.453 47 181.653 47H180.965ZM181.493 49.992C181.056 49.992 180.837 49.768 180.837 49.32C180.837 48.8933 181.056 48.68 181.493 48.68C181.909 48.68 182.117 48.8933 182.117 49.32C182.117 49.768 181.909 49.992 181.493 49.992ZM183.317 49.992C182.88 49.992 182.661 49.768 182.661 49.32C182.661 48.8933 182.88 48.68 183.317 48.68C183.733 48.68 183.941 48.8933 183.941 49.32C183.941 49.768 183.733 49.992 183.317 49.992ZM195.909 46.008H196.469V47H195.781C194.8 47 194.069 46.664 193.589 45.992C193.088 46.664 192.346 47 191.365 47H186.117L186.629 46.008H189.077V39.32L190.133 38.76V46.008H191.253C192.469 46.008 193.077 45.3787 193.077 44.12V37.24L194.133 36.68V40.168L194.149 40.152V44.184C194.149 45.4 194.736 46.008 195.909 46.008ZM198.937 38.04C198.499 38.04 198.281 37.816 198.281 37.368C198.281 36.9413 198.499 36.728 198.937 36.728C199.353 36.728 199.561 36.9413 199.561 37.368C199.561 37.816 199.353 38.04 198.937 38.04ZM196.152 47V46.008H196.713C197.886 46.008 198.473 45.4 198.473 44.184V40.712L199.545 40.152V44.216C199.545 45.112 199.283 45.8107 198.761 46.312C198.281 46.7707 197.641 47 196.84 47H196.152ZM206.52 46.408C206.072 46.664 205.496 46.792 204.792 46.792C203.864 46.792 203.139 46.4347 202.616 45.72C202.168 45.112 201.944 44.344 201.944 43.416C201.944 42.296 202.243 41.4213 202.84 40.792C203.363 40.2373 204.056 39.96 204.92 39.96C205.806 39.96 206.488 40.2373 206.968 40.792C207.384 41.272 207.592 41.912 207.592 42.712V46.232C207.592 47.224 207.384 48.04 206.968 48.68C206.552 49.3307 205.96 49.7467 205.192 49.928C204.936 50.0027 204.659 50.04 204.36 50.04C203.742 50.04 203.139 49.8907 202.552 49.592V48.648C203.107 48.9467 203.656 49.096 204.2 49.096C204.638 49.096 205.022 49 205.352 48.808C206.099 48.4347 206.488 47.6347 206.52 46.408ZM206.52 42.808C206.52 41.56 205.987 40.936 204.92 40.936C204.323 40.936 203.848 41.1547 203.496 41.592C203.155 42.0293 202.984 42.632 202.984 43.4C202.984 44.1467 203.15 44.744 203.48 45.192C203.811 45.6293 204.259 45.848 204.824 45.848C205.667 45.848 206.232 45.6133 206.52 45.144V42.808ZM210.315 47V37.24L211.387 36.68V47H210.315ZM221.68 46.6C221.573 46.664 221.397 46.7653 221.152 46.904L221.12 46.92C220.245 47.4107 219.659 47.832 219.36 48.184C219.072 48.536 218.928 49.0053 218.928 49.592C218.928 50.296 219.168 50.872 219.648 51.32C220.139 51.7787 220.768 52.008 221.536 52.008H221.568C222.784 52.008 223.76 51.736 224.496 51.192V52.168C223.621 52.7227 222.635 53 221.536 53C220.384 53 219.467 52.6213 218.784 51.864C218.219 51.224 217.936 50.456 217.936 49.56C217.936 48.8027 218.123 48.1947 218.496 47.736C218.869 47.2773 219.621 46.7333 220.752 46.104C219.824 45.4747 218.843 44.424 217.808 42.952V42.296C218.917 40.7387 220.224 39.96 221.728 39.96C222.432 39.96 223.131 40.168 223.824 40.584C224.517 41 225.131 41.5813 225.664 42.328V42.952C224.928 43.9653 223.941 44.952 222.704 45.912C222.981 45.976 223.269 46.008 223.568 46.008H227.44V47H223.504C222.875 47 222.267 46.8667 221.68 46.6ZM218.736 42.648C219.856 44.12 220.843 45.08 221.696 45.528C222.795 44.76 223.808 43.7893 224.736 42.616C223.883 41.496 222.88 40.936 221.728 40.936H221.68C220.581 40.936 219.6 41.5067 218.736 42.648ZM231.985 38.072C231.548 38.072 231.329 37.848 231.329 37.4C231.329 36.9733 231.548 36.76 231.985 36.76C232.401 36.76 232.609 36.9733 232.609 37.4C232.609 37.848 232.401 38.072 231.985 38.072ZM227.121 47V46.008H229.841C229.255 45.4213 228.961 44.5787 228.961 43.48C228.961 42.328 229.26 41.4373 229.857 40.808C230.38 40.2427 231.073 39.96 231.937 39.96C232.823 39.96 233.505 40.2373 233.985 40.792C234.401 41.272 234.609 41.912 234.609 42.712V44.264C234.599 45.128 234.337 45.8053 233.825 46.296C233.356 46.7653 232.716 47 231.905 47H227.121ZM233.553 42.808C233.553 41.56 233.015 40.936 231.937 40.936C231.34 40.936 230.871 41.16 230.529 41.608C230.199 42.0453 230.033 42.664 230.033 43.464C230.033 44.2427 230.193 44.8613 230.513 45.32C230.844 45.7787 231.281 46.008 231.825 46.008C232.977 46.008 233.553 45.4107 233.553 44.216V42.808ZM236.051 47L236.563 46.008H239.571C240.061 46.008 240.403 45.8853 240.595 45.64C240.797 45.3947 240.899 44.968 240.899 44.36C240.899 42.8027 240.216 41.6347 238.851 40.856L239.363 39.976C241.101 40.9893 241.971 42.456 241.971 44.376C241.971 46.1253 241.229 47 239.747 47H236.051ZM244.518 47V37.24L245.59 36.68V47H244.518ZM256.411 46.408C255.963 46.664 255.387 46.792 254.683 46.792C253.755 46.792 253.03 46.4347 252.507 45.72C252.059 45.112 251.835 44.344 251.835 43.416C251.835 42.296 252.134 41.4213 252.731 40.792C253.254 40.2373 253.947 39.96 254.811 39.96C255.696 39.96 256.379 40.2373 256.859 40.792C257.275 41.272 257.483 41.912 257.483 42.712V46.232C257.483 47.224 257.275 48.04 256.859 48.68C256.443 49.3307 255.851 49.7467 255.083 49.928C254.827 50.0027 254.55 50.04 254.251 50.04C253.632 50.04 253.03 49.8907 252.443 49.592V48.648C252.998 48.9467 253.547 49.096 254.091 49.096C254.528 49.096 254.912 49 255.243 48.808C255.99 48.4347 256.379 47.6347 256.411 46.408ZM256.411 42.808C256.411 41.56 255.878 40.936 254.811 40.936C254.214 40.936 253.739 41.1547 253.387 41.592C253.046 42.0293 252.875 42.632 252.875 43.4C252.875 44.1467 253.04 44.744 253.371 45.192C253.702 45.6293 254.15 45.848 254.715 45.848C255.558 45.848 256.123 45.6133 256.411 45.144V42.808ZM272.401 42.2C271.729 41.432 270.983 41.048 270.161 41.048C269.703 41.048 269.34 41.1867 269.073 41.464C268.807 41.7307 268.673 42.0987 268.673 42.568V42.6C268.684 43.0907 268.833 43.4747 269.121 43.752C269.409 44.0293 269.969 44.312 270.801 44.6C271.676 44.9093 272.268 45.2187 272.577 45.528C272.897 45.8373 273.057 46.2747 273.057 46.84C273.057 47.7893 272.604 48.568 271.697 49.176C270.844 49.752 269.735 50.04 268.369 50.04C266.727 50.04 265.489 49.56 264.657 48.6C264.039 47.8853 263.729 47.0053 263.729 45.96C263.729 45.0427 263.964 44.2533 264.433 43.592L265.473 43.384C264.961 44.1627 264.705 44.9947 264.705 45.88C264.705 46.8507 265.041 47.624 265.713 48.2C266.364 48.7653 267.249 49.048 268.369 49.048C269.596 49.048 270.545 48.792 271.217 48.28C271.74 47.8747 272.001 47.3947 272.001 46.84C272.001 46.5093 271.884 46.248 271.649 46.056C271.415 45.864 270.951 45.6453 270.257 45.4C269.361 45.08 268.737 44.7653 268.385 44.456C267.884 43.9973 267.633 43.3733 267.633 42.584C267.633 41.7627 267.927 41.1173 268.513 40.648C268.972 40.2853 269.495 40.104 270.081 40.104C271.02 40.104 271.793 40.456 272.401 41.16V42.2ZM267.361 52.68C266.924 52.68 266.705 52.4613 266.705 52.024C266.705 51.5867 266.924 51.368 267.361 51.368C267.777 51.368 267.985 51.5867 267.985 52.024C267.985 52.4613 267.777 52.68 267.361 52.68ZM269.185 52.68C268.759 52.68 268.545 52.4613 268.545 52.024C268.545 51.5867 268.759 51.368 269.185 51.368C269.612 51.368 269.825 51.5867 269.825 52.024C269.825 52.4613 269.612 52.68 269.185 52.68ZM280.765 46.008H281.325V47H280.637C279.976 47 279.426 46.84 278.989 46.52C278.904 48.2907 278.189 49.4107 276.845 49.88C276.504 49.9973 276.141 50.056 275.757 50.056C275.138 50.056 274.541 49.9067 273.965 49.608V48.664C274.509 48.9627 275.064 49.112 275.629 49.112C276.077 49.112 276.472 49.0107 276.813 48.808C277.56 48.36 277.933 47.5227 277.933 46.296V40.712L278.989 40.152V40.168L279.005 40.152V44.184C279.005 45.4 279.592 46.008 280.765 46.008ZM282.628 38.088C282.201 38.088 281.988 37.8693 281.988 37.432C281.988 36.9947 282.201 36.776 282.628 36.776C283.055 36.776 283.268 36.9947 283.268 37.432C283.268 37.8693 283.055 38.088 282.628 38.088ZM284.452 38.088C284.025 38.088 283.812 37.8693 283.812 37.432C283.812 36.9947 284.025 36.776 284.452 36.776C284.879 36.776 285.092 36.9947 285.092 37.432C285.092 37.8693 284.879 38.088 284.452 38.088ZM286.164 46.008H286.724V47H286.036C285.076 47 284.356 46.6747 283.876 46.024C283.375 46.6747 282.649 47 281.7 47H281.012V46.008H281.572C282.745 46.008 283.332 45.4 283.332 44.184V40.712L284.404 40.152V44.184C284.404 45.4 284.991 46.008 286.164 46.008ZM294.867 36.904C294.483 36.904 294.291 36.7013 294.291 36.296C294.291 35.912 294.483 35.72 294.867 35.72C295.251 35.72 295.443 35.912 295.443 36.296C295.443 36.7013 295.251 36.904 294.867 36.904ZM293.971 38.568C293.533 38.568 293.315 38.3493 293.315 37.912C293.315 37.4747 293.533 37.256 293.971 37.256C294.387 37.256 294.595 37.4747 294.595 37.912C294.595 38.3493 294.387 38.568 293.971 38.568ZM295.795 38.568C295.368 38.568 295.155 38.3493 295.155 37.912C295.155 37.4747 295.368 37.256 295.795 37.256C296.221 37.256 296.435 37.4747 296.435 37.912C296.435 38.3493 296.221 38.568 295.795 38.568ZM286.402 47V46.008H287.379C288.563 46.008 289.155 45.4 289.155 44.184V41.88L290.227 41.32V44.184C290.227 45.4 290.813 46.008 291.987 46.008H292.579C293.752 46.008 294.339 45.4 294.339 44.184V41.304L295.411 40.728V44.184C295.411 45.4 296.003 46.008 297.187 46.008H297.763C298.947 46.008 299.539 45.4 299.539 44.184V40.712L300.611 40.152V44.216C300.611 45.1013 300.349 45.7947 299.827 46.296C299.357 46.7547 298.723 46.9893 297.923 47H297.043C296.051 47 295.331 46.648 294.883 45.944C294.424 46.648 293.709 47 292.739 47H291.859C290.867 47 290.141 46.648 289.683 45.944C289.235 46.648 288.515 47 287.523 47H286.402ZM303.487 47V37.24L304.559 36.68V47H303.487ZM286.591 62.904C286.196 62.904 285.999 62.7013 285.999 62.296C285.999 61.912 286.196 61.72 286.591 61.72C286.975 61.72 287.167 61.912 287.167 62.296C287.167 62.7013 286.975 62.904 286.591 62.904ZM285.679 64.568C285.252 64.568 285.039 64.3493 285.039 63.912C285.039 63.4747 285.252 63.256 285.679 63.256C286.106 63.256 286.319 63.4747 286.319 63.912C286.319 64.3493 286.106 64.568 285.679 64.568ZM286.863 63.912C286.863 63.4747 287.082 63.256 287.519 63.256C287.935 63.256 288.143 63.4747 288.143 63.912C288.143 64.3493 287.935 64.568 287.519 64.568C287.082 64.568 286.863 64.3493 286.863 63.912ZM291.279 66.712L292.351 66.152V70.216C292.351 71.1013 292.084 71.8 291.551 72.312C291.071 72.7707 290.436 73 289.647 73H288.799C287.828 73 287.103 72.6693 286.623 72.008C286.143 72.6693 285.418 73 284.447 73H283.599C282.97 73 282.42 72.8453 281.951 72.536C281.876 73.656 281.428 74.536 280.607 75.176C279.882 75.752 278.964 76.04 277.855 76.04C276.5 76.04 275.45 75.56 274.703 74.6C274.116 73.864 273.823 72.984 273.823 71.96C273.823 71.0427 274.058 70.2533 274.527 69.592L275.567 69.384C275.055 70.1627 274.799 70.9947 274.799 71.88C274.799 72.8187 275.103 73.592 275.711 74.2C276.276 74.7653 276.991 75.048 277.855 75.048C278.868 75.048 279.652 74.7493 280.207 74.152C280.666 73.6613 280.895 73.016 280.895 72.216V67.88L281.967 67.32V70.184C281.967 71.4 282.559 72.008 283.743 72.008H284.319C285.503 72.008 286.095 71.4 286.095 70.184V67.304L287.151 66.728V70.184C287.151 71.4 287.743 72.008 288.927 72.008H289.519C290.692 72.008 291.279 71.4 291.279 70.184V66.712ZM297.941 73C297.034 73 296.336 72.7067 295.845 72.12C295.44 71.6187 295.237 70.984 295.237 70.216V63.24L296.309 62.68V70.184C296.309 71.4 296.896 72.008 298.069 72.008H298.629V73H297.941ZM300.837 66.392C300.943 66.3813 301.055 66.376 301.173 66.376C302.133 66.376 302.954 66.6107 303.637 67.08C304.575 67.752 305.045 68.712 305.045 69.96V70.264C305.045 71.16 304.767 71.8587 304.213 72.36C303.733 72.7867 303.109 73 302.341 73H298.309V72.008H302.229C303.391 72.008 303.973 71.384 303.973 70.136V69.976C303.973 69.112 303.663 68.4667 303.045 68.04C302.533 67.656 301.882 67.464 301.093 67.464C300.517 67.464 299.946 67.5653 299.381 67.768V66.712L303.013 62.68H304.117L300.837 66.392Z" fill="#656668"/>
</svg>
