<svg width="595" height="113" viewBox="0 0 595 113" fill="none" xmlns="http://www.w3.org/2000/svg">
<g filter="url(#filter0_d)">
<rect x="19" y="16" width="556.56" height="75" rx="24" fill="white"/>
</g>
<path d="M89.7861 47.6797C89.7861 48.7943 89.5986 49.7682 89.2236 50.6016C88.8486 51.4297 88.3174 52.0625 87.6299 52.5C86.9424 52.9375 86.1403 53.1562 85.2236 53.1562C84.3278 53.1562 83.5335 52.9375 82.8408 52.5C82.1481 52.0573 81.609 51.4297 81.2236 50.6172C80.8434 49.7995 80.6481 48.8542 80.6377 47.7812V46.9609C80.6377 45.8672 80.8278 44.901 81.208 44.0625C81.5882 43.224 82.1247 42.5833 82.8174 42.1406C83.5153 41.6927 84.3122 41.4688 85.208 41.4688C86.1195 41.4688 86.9215 41.6901 87.6143 42.1328C88.3122 42.5703 88.8486 43.2083 89.2236 44.0469C89.5986 44.8802 89.7861 45.8516 89.7861 46.9609V47.6797ZM88.2939 46.9453C88.2939 45.5964 88.0231 44.5625 87.4814 43.8438C86.9398 43.1198 86.182 42.7578 85.208 42.7578C84.2601 42.7578 83.5127 43.1198 82.9658 43.8438C82.4242 44.5625 82.1455 45.5625 82.1299 46.8438V47.6797C82.1299 48.987 82.4033 50.0156 82.9502 50.7656C83.5023 51.5104 84.2601 51.8828 85.2236 51.8828C86.1924 51.8828 86.9424 51.5312 87.4736 50.8281C88.0049 50.1198 88.2783 49.1068 88.2939 47.7891V46.9453ZM93.1768 44.5469L93.2236 45.6094C93.8695 44.7969 94.7132 44.3906 95.7549 44.3906C97.5413 44.3906 98.4424 45.3984 98.458 47.4141V53H97.0127V47.4062C97.0075 46.7969 96.8669 46.3464 96.5908 46.0547C96.32 45.763 95.8955 45.6172 95.3174 45.6172C94.8486 45.6172 94.4372 45.7422 94.083 45.9922C93.7288 46.2422 93.4528 46.5703 93.2549 46.9766V53H91.8096V44.5469H93.1768ZM102.208 53H100.763V41H102.208V53ZM106.099 53H104.653V44.5469H106.099V53ZM104.536 42.3047C104.536 42.0703 104.606 41.8724 104.747 41.7109C104.893 41.5495 105.106 41.4688 105.388 41.4688C105.669 41.4688 105.882 41.5495 106.028 41.7109C106.174 41.8724 106.247 42.0703 106.247 42.3047C106.247 42.5391 106.174 42.7344 106.028 42.8906C105.882 43.0469 105.669 43.125 105.388 43.125C105.106 43.125 104.893 43.0469 104.747 42.8906C104.606 42.7344 104.536 42.5391 104.536 42.3047ZM109.786 44.5469L109.833 45.6094C110.479 44.7969 111.323 44.3906 112.364 44.3906C114.151 44.3906 115.052 45.3984 115.067 47.4141V53H113.622V47.4062C113.617 46.7969 113.476 46.3464 113.2 46.0547C112.929 45.763 112.505 45.6172 111.927 45.6172C111.458 45.6172 111.047 45.7422 110.692 45.9922C110.338 46.2422 110.062 46.5703 109.864 46.9766V53H108.419V44.5469H109.786ZM120.755 53.1562C119.609 53.1562 118.677 52.7812 117.958 52.0312C117.239 51.276 116.88 50.2682 116.88 49.0078V48.7422C116.88 47.9036 117.039 47.1562 117.356 46.5C117.679 45.8385 118.127 45.3229 118.7 44.9531C119.278 44.5781 119.903 44.3906 120.575 44.3906C121.674 44.3906 122.528 44.7526 123.138 45.4766C123.747 46.2005 124.052 47.237 124.052 48.5859V49.1875H118.325C118.346 50.0208 118.588 50.6953 119.052 51.2109C119.521 51.7214 120.114 51.9766 120.833 51.9766C121.343 51.9766 121.776 51.8724 122.13 51.6641C122.484 51.4557 122.794 51.1797 123.06 50.8359L123.942 51.5234C123.234 52.612 122.172 53.1562 120.755 53.1562ZM120.575 45.5781C119.992 45.5781 119.502 45.7917 119.106 46.2188C118.711 46.6406 118.466 47.2344 118.372 48H122.606V47.8906C122.565 47.1562 122.367 46.5885 122.013 46.1875C121.659 45.7812 121.179 45.5781 120.575 45.5781ZM133.091 51.9766C133.606 51.9766 134.057 51.8203 134.442 51.5078C134.828 51.1953 135.041 50.8047 135.083 50.3359H136.45C136.424 50.8203 136.257 51.2812 135.95 51.7188C135.643 52.1562 135.231 52.5052 134.716 52.7656C134.205 53.026 133.664 53.1562 133.091 53.1562C131.94 53.1562 131.023 52.7734 130.341 52.0078C129.664 51.237 129.325 50.1849 129.325 48.8516V48.6094C129.325 47.7865 129.476 47.0547 129.778 46.4141C130.08 45.7734 130.513 45.276 131.075 44.9219C131.643 44.5677 132.312 44.3906 133.083 44.3906C134.031 44.3906 134.817 44.6745 135.442 45.2422C136.073 45.8099 136.409 46.5469 136.45 47.4531H135.083C135.041 46.9062 134.833 46.4583 134.458 46.1094C134.088 45.7552 133.63 45.5781 133.083 45.5781C132.349 45.5781 131.778 45.8438 131.372 46.375C130.971 46.901 130.771 47.6641 130.771 48.6641V48.9375C130.771 49.9115 130.971 50.6615 131.372 51.1875C131.773 51.7135 132.346 51.9766 133.091 51.9766ZM143.294 53C143.211 52.8333 143.143 52.5365 143.091 52.1094C142.419 52.8073 141.617 53.1562 140.685 53.1562C139.851 53.1562 139.166 52.9219 138.63 52.4531C138.099 51.9792 137.833 51.3802 137.833 50.6562C137.833 49.776 138.166 49.0938 138.833 48.6094C139.505 48.1198 140.448 47.875 141.661 47.875H143.067V47.2109C143.067 46.7057 142.916 46.3047 142.614 46.0078C142.312 45.7057 141.867 45.5547 141.278 45.5547C140.763 45.5547 140.33 45.6849 139.981 45.9453C139.632 46.2057 139.458 46.5208 139.458 46.8906H138.005C138.005 46.4688 138.153 46.0625 138.45 45.6719C138.752 45.276 139.159 44.9635 139.669 44.7344C140.185 44.5052 140.75 44.3906 141.364 44.3906C142.338 44.3906 143.101 44.6354 143.653 45.125C144.205 45.6094 144.492 46.2786 144.513 47.1328V51.0234C144.513 51.7995 144.612 52.4167 144.81 52.875V53H143.294ZM140.896 51.8984C141.349 51.8984 141.778 51.7812 142.185 51.5469C142.591 51.3125 142.885 51.0078 143.067 50.6328V48.8984H141.935C140.164 48.8984 139.278 49.4167 139.278 50.4531C139.278 50.9062 139.429 51.2604 139.731 51.5156C140.034 51.7708 140.422 51.8984 140.896 51.8984ZM150.864 45.8438C150.646 45.8073 150.409 45.7891 150.153 45.7891C149.205 45.7891 148.562 46.1927 148.224 47V53H146.778V44.5469H148.185L148.208 45.5234C148.682 44.7682 149.354 44.3906 150.224 44.3906C150.505 44.3906 150.718 44.4271 150.864 44.5V45.8438ZM151.692 48.7031C151.692 47.4062 152 46.3646 152.614 45.5781C153.229 44.7865 154.034 44.3906 155.028 44.3906C156.018 44.3906 156.802 44.7292 157.38 45.4062V41H158.825V53H157.497L157.427 52.0938C156.849 52.8021 156.044 53.1562 155.013 53.1562C154.034 53.1562 153.234 52.7552 152.614 51.9531C152 51.151 151.692 50.1042 151.692 48.8125V48.7031ZM153.138 48.8672C153.138 49.8255 153.336 50.5755 153.731 51.1172C154.127 51.6589 154.674 51.9297 155.372 51.9297C156.289 51.9297 156.958 51.5182 157.38 50.6953V46.8125C156.948 46.0156 156.284 45.6172 155.388 45.6172C154.679 45.6172 154.127 45.8906 153.731 46.4375C153.336 46.9844 153.138 47.7943 153.138 48.8672ZM166.489 45.5703C167.13 44.7839 167.963 44.3906 168.989 44.3906C170.776 44.3906 171.677 45.3984 171.692 47.4141V53H170.247V47.4062C170.242 46.7969 170.101 46.3464 169.825 46.0547C169.554 45.763 169.13 45.6172 168.552 45.6172C168.083 45.6172 167.672 45.7422 167.317 45.9922C166.963 46.2422 166.687 46.5703 166.489 46.9766V53H165.044V41H166.489V45.5703ZM179.075 53C178.992 52.8333 178.924 52.5365 178.872 52.1094C178.2 52.8073 177.398 53.1562 176.466 53.1562C175.632 53.1562 174.948 52.9219 174.411 52.4531C173.88 51.9792 173.614 51.3802 173.614 50.6562C173.614 49.776 173.948 49.0938 174.614 48.6094C175.286 48.1198 176.229 47.875 177.442 47.875H178.849V47.2109C178.849 46.7057 178.698 46.3047 178.396 46.0078C178.093 45.7057 177.648 45.5547 177.06 45.5547C176.544 45.5547 176.112 45.6849 175.763 45.9453C175.414 46.2057 175.239 46.5208 175.239 46.8906H173.786C173.786 46.4688 173.935 46.0625 174.231 45.6719C174.534 45.276 174.94 44.9635 175.45 44.7344C175.966 44.5052 176.531 44.3906 177.146 44.3906C178.119 44.3906 178.882 44.6354 179.435 45.125C179.987 45.6094 180.273 46.2786 180.294 47.1328V51.0234C180.294 51.7995 180.393 52.4167 180.591 52.875V53H179.075ZM176.677 51.8984C177.13 51.8984 177.56 51.7812 177.966 51.5469C178.372 51.3125 178.666 51.0078 178.849 50.6328V48.8984H177.716C175.945 48.8984 175.06 49.4167 175.06 50.4531C175.06 50.9062 175.211 51.2604 175.513 51.5156C175.815 51.7708 176.203 51.8984 176.677 51.8984ZM187.481 50.7578C187.481 50.3672 187.333 50.0651 187.036 49.8516C186.744 49.6328 186.231 49.4453 185.497 49.2891C184.768 49.1328 184.187 48.9453 183.755 48.7266C183.328 48.5078 183.01 48.2474 182.802 47.9453C182.599 47.6432 182.497 47.2839 182.497 46.8672C182.497 46.1745 182.789 45.5885 183.372 45.1094C183.961 44.6302 184.711 44.3906 185.622 44.3906C186.58 44.3906 187.356 44.638 187.95 45.1328C188.549 45.6276 188.849 46.2604 188.849 47.0312H187.396C187.396 46.6354 187.226 46.2943 186.888 46.0078C186.554 45.7214 186.132 45.5781 185.622 45.5781C185.096 45.5781 184.685 45.6927 184.388 45.9219C184.091 46.151 183.942 46.4505 183.942 46.8203C183.942 47.1693 184.08 47.4323 184.356 47.6094C184.632 47.7865 185.13 47.9557 185.849 48.1172C186.573 48.2786 187.159 48.4714 187.606 48.6953C188.054 48.9193 188.385 49.1901 188.599 49.5078C188.817 49.8203 188.927 50.2031 188.927 50.6562C188.927 51.4115 188.625 52.0182 188.021 52.4766C187.416 52.9297 186.632 53.1562 185.669 53.1562C184.992 53.1562 184.393 53.0365 183.872 52.7969C183.351 52.5573 182.942 52.224 182.646 51.7969C182.354 51.3646 182.208 50.8984 182.208 50.3984H183.653C183.679 50.8828 183.872 51.2682 184.231 51.5547C184.596 51.8359 185.075 51.9766 185.669 51.9766C186.216 51.9766 186.653 51.8672 186.981 51.6484C187.315 51.4245 187.481 51.1276 187.481 50.7578ZM201.935 48.8672C201.935 50.1589 201.638 51.1979 201.044 51.9844C200.45 52.7656 199.653 53.1562 198.653 53.1562C197.586 53.1562 196.76 52.7786 196.177 52.0234L196.106 53H194.778V41H196.224V45.4766C196.807 44.7526 197.612 44.3906 198.638 44.3906C199.664 44.3906 200.468 44.7786 201.052 45.5547C201.64 46.3307 201.935 47.3932 201.935 48.7422V48.8672ZM200.489 48.7031C200.489 47.7188 200.299 46.9583 199.919 46.4219C199.539 45.8854 198.992 45.6172 198.278 45.6172C197.325 45.6172 196.64 46.0599 196.224 46.9453V50.6016C196.666 51.487 197.356 51.9297 198.294 51.9297C198.987 51.9297 199.526 51.6615 199.911 51.125C200.297 50.5885 200.489 49.7812 200.489 48.7031ZM207.271 53.1562C206.125 53.1562 205.192 52.7812 204.474 52.0312C203.755 51.276 203.396 50.2682 203.396 49.0078V48.7422C203.396 47.9036 203.554 47.1562 203.872 46.5C204.195 45.8385 204.643 45.3229 205.216 44.9531C205.794 44.5781 206.419 44.3906 207.091 44.3906C208.19 44.3906 209.044 44.7526 209.653 45.4766C210.263 46.2005 210.567 47.237 210.567 48.5859V49.1875H204.841C204.862 50.0208 205.104 50.6953 205.567 51.2109C206.036 51.7214 206.63 51.9766 207.349 51.9766C207.859 51.9766 208.291 51.8724 208.646 51.6641C209 51.4557 209.31 51.1797 209.575 50.8359L210.458 51.5234C209.75 52.612 208.687 53.1562 207.271 53.1562ZM207.091 45.5781C206.507 45.5781 206.018 45.7917 205.622 46.2188C205.226 46.6406 204.981 47.2344 204.888 48H209.122V47.8906C209.08 47.1562 208.882 46.5885 208.528 46.1875C208.174 45.7812 207.695 45.5781 207.091 45.5781ZM215.755 53.1562C214.609 53.1562 213.677 52.7812 212.958 52.0312C212.239 51.276 211.88 50.2682 211.88 49.0078V48.7422C211.88 47.9036 212.039 47.1562 212.356 46.5C212.679 45.8385 213.127 45.3229 213.7 44.9531C214.278 44.5781 214.903 44.3906 215.575 44.3906C216.674 44.3906 217.528 44.7526 218.138 45.4766C218.747 46.2005 219.052 47.237 219.052 48.5859V49.1875H213.325C213.346 50.0208 213.588 50.6953 214.052 51.2109C214.521 51.7214 215.114 51.9766 215.833 51.9766C216.343 51.9766 216.776 51.8724 217.13 51.6641C217.484 51.4557 217.794 51.1797 218.06 50.8359L218.942 51.5234C218.234 52.612 217.172 53.1562 215.755 53.1562ZM215.575 45.5781C214.992 45.5781 214.502 45.7917 214.106 46.2188C213.711 46.6406 213.466 47.2344 213.372 48H217.606V47.8906C217.565 47.1562 217.367 46.5885 217.013 46.1875C216.659 45.7812 216.179 45.5781 215.575 45.5781ZM222.099 44.5469L222.146 45.6094C222.791 44.7969 223.635 44.3906 224.677 44.3906C226.463 44.3906 227.364 45.3984 227.38 47.4141V53H225.935V47.4062C225.929 46.7969 225.789 46.3464 225.513 46.0547C225.242 45.763 224.817 45.6172 224.239 45.6172C223.771 45.6172 223.359 45.7422 223.005 45.9922C222.651 46.2422 222.375 46.5703 222.177 46.9766V53H220.731V44.5469H222.099ZM236.919 51.9766C237.435 51.9766 237.885 51.8203 238.271 51.5078C238.656 51.1953 238.869 50.8047 238.911 50.3359H240.278C240.252 50.8203 240.086 51.2812 239.778 51.7188C239.471 52.1562 239.06 52.5052 238.544 52.7656C238.034 53.026 237.492 53.1562 236.919 53.1562C235.768 53.1562 234.851 52.7734 234.169 52.0078C233.492 51.237 233.153 50.1849 233.153 48.8516V48.6094C233.153 47.7865 233.304 47.0547 233.606 46.4141C233.909 45.7734 234.341 45.276 234.903 44.9219C235.471 44.5677 236.14 44.3906 236.911 44.3906C237.859 44.3906 238.646 44.6745 239.271 45.2422C239.901 45.8099 240.237 46.5469 240.278 47.4531H238.911C238.869 46.9062 238.661 46.4583 238.286 46.1094C237.916 45.7552 237.458 45.5781 236.911 45.5781C236.177 45.5781 235.606 45.8438 235.2 46.375C234.799 46.901 234.599 47.6641 234.599 48.6641V48.9375C234.599 49.9115 234.799 50.6615 235.2 51.1875C235.601 51.7135 236.174 51.9766 236.919 51.9766ZM245.989 45.8438C245.771 45.8073 245.534 45.7891 245.278 45.7891C244.33 45.7891 243.687 46.1927 243.349 47V53H241.903V44.5469H243.31L243.333 45.5234C243.807 44.7682 244.479 44.3906 245.349 44.3906C245.63 44.3906 245.843 44.4271 245.989 44.5V45.8438ZM250.677 53.1562C249.531 53.1562 248.599 52.7812 247.88 52.0312C247.161 51.276 246.802 50.2682 246.802 49.0078V48.7422C246.802 47.9036 246.961 47.1562 247.278 46.5C247.601 45.8385 248.049 45.3229 248.622 44.9531C249.2 44.5781 249.825 44.3906 250.497 44.3906C251.596 44.3906 252.45 44.7526 253.06 45.4766C253.669 46.2005 253.974 47.237 253.974 48.5859V49.1875H248.247C248.268 50.0208 248.51 50.6953 248.974 51.2109C249.442 51.7214 250.036 51.9766 250.755 51.9766C251.265 51.9766 251.698 51.8724 252.052 51.6641C252.406 51.4557 252.716 51.1797 252.981 50.8359L253.864 51.5234C253.156 52.612 252.093 53.1562 250.677 53.1562ZM250.497 45.5781C249.914 45.5781 249.424 45.7917 249.028 46.2188C248.632 46.6406 248.388 47.2344 248.294 48H252.528V47.8906C252.487 47.1562 252.289 46.5885 251.935 46.1875C251.58 45.7812 251.101 45.5781 250.497 45.5781ZM260.872 53C260.789 52.8333 260.721 52.5365 260.669 52.1094C259.997 52.8073 259.195 53.1562 258.263 53.1562C257.429 53.1562 256.744 52.9219 256.208 52.4531C255.677 51.9792 255.411 51.3802 255.411 50.6562C255.411 49.776 255.744 49.0938 256.411 48.6094C257.083 48.1198 258.026 47.875 259.239 47.875H260.646V47.2109C260.646 46.7057 260.494 46.3047 260.192 46.0078C259.89 45.7057 259.445 45.5547 258.856 45.5547C258.341 45.5547 257.909 45.6849 257.56 45.9453C257.211 46.2057 257.036 46.5208 257.036 46.8906H255.583C255.583 46.4688 255.731 46.0625 256.028 45.6719C256.33 45.276 256.737 44.9635 257.247 44.7344C257.763 44.5052 258.328 44.3906 258.942 44.3906C259.916 44.3906 260.679 44.6354 261.231 45.125C261.784 45.6094 262.07 46.2786 262.091 47.1328V51.0234C262.091 51.7995 262.19 52.4167 262.388 52.875V53H260.872ZM258.474 51.8984C258.927 51.8984 259.356 51.7812 259.763 51.5469C260.169 51.3125 260.463 51.0078 260.646 50.6328V48.8984H259.513C257.742 48.8984 256.856 49.4167 256.856 50.4531C256.856 50.9062 257.007 51.2604 257.31 51.5156C257.612 51.7708 258 51.8984 258.474 51.8984ZM266.317 42.5V44.5469H267.896V45.6641H266.317V50.9062C266.317 51.2448 266.388 51.5 266.528 51.6719C266.669 51.8385 266.909 51.9219 267.247 51.9219C267.414 51.9219 267.643 51.8906 267.935 51.8281V53C267.554 53.1042 267.185 53.1562 266.825 53.1562C266.179 53.1562 265.692 52.9609 265.364 52.5703C265.036 52.1797 264.872 51.625 264.872 50.9062V45.6641H263.333V44.5469H264.872V42.5H266.317ZM273.099 53.1562C271.953 53.1562 271.021 52.7812 270.302 52.0312C269.583 51.276 269.224 50.2682 269.224 49.0078V48.7422C269.224 47.9036 269.382 47.1562 269.7 46.5C270.023 45.8385 270.471 45.3229 271.044 44.9531C271.622 44.5781 272.247 44.3906 272.919 44.3906C274.018 44.3906 274.872 44.7526 275.481 45.4766C276.091 46.2005 276.396 47.237 276.396 48.5859V49.1875H270.669C270.69 50.0208 270.932 50.6953 271.396 51.2109C271.864 51.7214 272.458 51.9766 273.177 51.9766C273.687 51.9766 274.119 51.8724 274.474 51.6641C274.828 51.4557 275.138 51.1797 275.403 50.8359L276.286 51.5234C275.578 52.612 274.515 53.1562 273.099 53.1562ZM272.919 45.5781C272.336 45.5781 271.846 45.7917 271.45 46.2188C271.054 46.6406 270.81 47.2344 270.716 48H274.95V47.8906C274.909 47.1562 274.711 46.5885 274.356 46.1875C274.002 45.7812 273.523 45.5781 272.919 45.5781ZM277.724 48.7031C277.724 47.4062 278.031 46.3646 278.646 45.5781C279.26 44.7865 280.065 44.3906 281.06 44.3906C282.049 44.3906 282.833 44.7292 283.411 45.4062V41H284.856V53H283.528L283.458 52.0938C282.88 52.8021 282.075 53.1562 281.044 53.1562C280.065 53.1562 279.265 52.7552 278.646 51.9531C278.031 51.151 277.724 50.1042 277.724 48.8125V48.7031ZM279.169 48.8672C279.169 49.8255 279.367 50.5755 279.763 51.1172C280.159 51.6589 280.705 51.9297 281.403 51.9297C282.32 51.9297 282.989 51.5182 283.411 50.6953V46.8125C282.979 46.0156 282.315 45.6172 281.419 45.6172C280.711 45.6172 280.159 45.8906 279.763 46.4375C279.367 46.9844 279.169 47.7943 279.169 48.8672ZM295.997 50.7578C295.997 50.3672 295.849 50.0651 295.552 49.8516C295.26 49.6328 294.747 49.4453 294.013 49.2891C293.284 49.1328 292.703 48.9453 292.271 48.7266C291.843 48.5078 291.526 48.2474 291.317 47.9453C291.114 47.6432 291.013 47.2839 291.013 46.8672C291.013 46.1745 291.304 45.5885 291.888 45.1094C292.476 44.6302 293.226 44.3906 294.138 44.3906C295.096 44.3906 295.872 44.638 296.466 45.1328C297.065 45.6276 297.364 46.2604 297.364 47.0312H295.911C295.911 46.6354 295.742 46.2943 295.403 46.0078C295.07 45.7214 294.648 45.5781 294.138 45.5781C293.612 45.5781 293.2 45.6927 292.903 45.9219C292.606 46.151 292.458 46.4505 292.458 46.8203C292.458 47.1693 292.596 47.4323 292.872 47.6094C293.148 47.7865 293.646 47.9557 294.364 48.1172C295.088 48.2786 295.674 48.4714 296.122 48.6953C296.57 48.9193 296.901 49.1901 297.114 49.5078C297.333 49.8203 297.442 50.2031 297.442 50.6562C297.442 51.4115 297.14 52.0182 296.536 52.4766C295.932 52.9297 295.148 53.1562 294.185 53.1562C293.507 53.1562 292.909 53.0365 292.388 52.7969C291.867 52.5573 291.458 52.224 291.161 51.7969C290.869 51.3646 290.724 50.8984 290.724 50.3984H292.169C292.195 50.8828 292.388 51.2682 292.747 51.5547C293.112 51.8359 293.591 51.9766 294.185 51.9766C294.731 51.9766 295.169 51.8672 295.497 51.6484C295.83 51.4245 295.997 51.1276 295.997 50.7578ZM304.544 52.1641C303.981 52.8255 303.156 53.1562 302.067 53.1562C301.166 53.1562 300.479 52.8958 300.005 52.375C299.536 51.849 299.299 51.0729 299.294 50.0469V44.5469H300.739V50.0078C300.739 51.2891 301.26 51.9297 302.302 51.9297C303.406 51.9297 304.14 51.5182 304.505 50.6953V44.5469H305.95V53H304.575L304.544 52.1641ZM311.544 51.9766C312.06 51.9766 312.51 51.8203 312.896 51.5078C313.281 51.1953 313.494 50.8047 313.536 50.3359H314.903C314.877 50.8203 314.711 51.2812 314.403 51.7188C314.096 52.1562 313.685 52.5052 313.169 52.7656C312.659 53.026 312.117 53.1562 311.544 53.1562C310.393 53.1562 309.476 52.7734 308.794 52.0078C308.117 51.237 307.778 50.1849 307.778 48.8516V48.6094C307.778 47.7865 307.929 47.0547 308.231 46.4141C308.534 45.7734 308.966 45.276 309.528 44.9219C310.096 44.5677 310.765 44.3906 311.536 44.3906C312.484 44.3906 313.271 44.6745 313.896 45.2422C314.526 45.8099 314.862 46.5469 314.903 47.4531H313.536C313.494 46.9062 313.286 46.4583 312.911 46.1094C312.541 45.7552 312.083 45.5781 311.536 45.5781C310.802 45.5781 310.231 45.8438 309.825 46.375C309.424 46.901 309.224 47.6641 309.224 48.6641V48.9375C309.224 49.9115 309.424 50.6615 309.825 51.1875C310.226 51.7135 310.799 51.9766 311.544 51.9766ZM319.919 51.9766C320.435 51.9766 320.885 51.8203 321.271 51.5078C321.656 51.1953 321.869 50.8047 321.911 50.3359H323.278C323.252 50.8203 323.086 51.2812 322.778 51.7188C322.471 52.1562 322.06 52.5052 321.544 52.7656C321.034 53.026 320.492 53.1562 319.919 53.1562C318.768 53.1562 317.851 52.7734 317.169 52.0078C316.492 51.237 316.153 50.1849 316.153 48.8516V48.6094C316.153 47.7865 316.304 47.0547 316.606 46.4141C316.909 45.7734 317.341 45.276 317.903 44.9219C318.471 44.5677 319.14 44.3906 319.911 44.3906C320.859 44.3906 321.646 44.6745 322.271 45.2422C322.901 45.8099 323.237 46.5469 323.278 47.4531H321.911C321.869 46.9062 321.661 46.4583 321.286 46.1094C320.916 45.7552 320.458 45.5781 319.911 45.5781C319.177 45.5781 318.606 45.8438 318.2 46.375C317.799 46.901 317.599 47.6641 317.599 48.6641V48.9375C317.599 49.9115 317.799 50.6615 318.2 51.1875C318.601 51.7135 319.174 51.9766 319.919 51.9766ZM328.411 53.1562C327.265 53.1562 326.333 52.7812 325.614 52.0312C324.896 51.276 324.536 50.2682 324.536 49.0078V48.7422C324.536 47.9036 324.695 47.1562 325.013 46.5C325.336 45.8385 325.784 45.3229 326.356 44.9531C326.935 44.5781 327.56 44.3906 328.231 44.3906C329.33 44.3906 330.185 44.7526 330.794 45.4766C331.403 46.2005 331.708 47.237 331.708 48.5859V49.1875H325.981C326.002 50.0208 326.244 50.6953 326.708 51.2109C327.177 51.7214 327.771 51.9766 328.489 51.9766C329 51.9766 329.432 51.8724 329.786 51.6641C330.14 51.4557 330.45 51.1797 330.716 50.8359L331.599 51.5234C330.89 52.612 329.828 53.1562 328.411 53.1562ZM328.231 45.5781C327.648 45.5781 327.159 45.7917 326.763 46.2188C326.367 46.6406 326.122 47.2344 326.028 48H330.263V47.8906C330.221 47.1562 330.023 46.5885 329.669 46.1875C329.315 45.7812 328.836 45.5781 328.231 45.5781ZM338.31 50.7578C338.31 50.3672 338.161 50.0651 337.864 49.8516C337.573 49.6328 337.06 49.4453 336.325 49.2891C335.596 49.1328 335.015 48.9453 334.583 48.7266C334.156 48.5078 333.838 48.2474 333.63 47.9453C333.427 47.6432 333.325 47.2839 333.325 46.8672C333.325 46.1745 333.617 45.5885 334.2 45.1094C334.789 44.6302 335.539 44.3906 336.45 44.3906C337.409 44.3906 338.185 44.638 338.778 45.1328C339.377 45.6276 339.677 46.2604 339.677 47.0312H338.224C338.224 46.6354 338.054 46.2943 337.716 46.0078C337.382 45.7214 336.961 45.5781 336.45 45.5781C335.924 45.5781 335.513 45.6927 335.216 45.9219C334.919 46.151 334.771 46.4505 334.771 46.8203C334.771 47.1693 334.909 47.4323 335.185 47.6094C335.461 47.7865 335.958 47.9557 336.677 48.1172C337.401 48.2786 337.987 48.4714 338.435 48.6953C338.882 48.9193 339.213 49.1901 339.427 49.5078C339.646 49.8203 339.755 50.2031 339.755 50.6562C339.755 51.4115 339.453 52.0182 338.849 52.4766C338.244 52.9297 337.461 53.1562 336.497 53.1562C335.82 53.1562 335.221 53.0365 334.7 52.7969C334.179 52.5573 333.771 52.224 333.474 51.7969C333.182 51.3646 333.036 50.8984 333.036 50.3984H334.481C334.507 50.8828 334.7 51.2682 335.06 51.5547C335.424 51.8359 335.903 51.9766 336.497 51.9766C337.044 51.9766 337.481 51.8672 337.81 51.6484C338.143 51.4245 338.31 51.1276 338.31 50.7578ZM346.56 50.7578C346.56 50.3672 346.411 50.0651 346.114 49.8516C345.823 49.6328 345.31 49.4453 344.575 49.2891C343.846 49.1328 343.265 48.9453 342.833 48.7266C342.406 48.5078 342.088 48.2474 341.88 47.9453C341.677 47.6432 341.575 47.2839 341.575 46.8672C341.575 46.1745 341.867 45.5885 342.45 45.1094C343.039 44.6302 343.789 44.3906 344.7 44.3906C345.659 44.3906 346.435 44.638 347.028 45.1328C347.627 45.6276 347.927 46.2604 347.927 47.0312H346.474C346.474 46.6354 346.304 46.2943 345.966 46.0078C345.632 45.7214 345.211 45.5781 344.7 45.5781C344.174 45.5781 343.763 45.6927 343.466 45.9219C343.169 46.151 343.021 46.4505 343.021 46.8203C343.021 47.1693 343.159 47.4323 343.435 47.6094C343.711 47.7865 344.208 47.9557 344.927 48.1172C345.651 48.2786 346.237 48.4714 346.685 48.6953C347.132 48.9193 347.463 49.1901 347.677 49.5078C347.896 49.8203 348.005 50.2031 348.005 50.6562C348.005 51.4115 347.703 52.0182 347.099 52.4766C346.494 52.9297 345.711 53.1562 344.747 53.1562C344.07 53.1562 343.471 53.0365 342.95 52.7969C342.429 52.5573 342.021 52.224 341.724 51.7969C341.432 51.3646 341.286 50.8984 341.286 50.3984H342.731C342.757 50.8828 342.95 51.2682 343.31 51.5547C343.674 51.8359 344.153 51.9766 344.747 51.9766C345.294 51.9766 345.731 51.8672 346.06 51.6484C346.393 51.4245 346.56 51.1276 346.56 50.7578ZM350.599 53V45.6641H349.263V44.5469H350.599V43.6797C350.599 42.7734 350.841 42.0729 351.325 41.5781C351.81 41.0833 352.494 40.8359 353.38 40.8359C353.713 40.8359 354.044 40.8802 354.372 40.9688L354.294 42.1406C354.049 42.0938 353.789 42.0703 353.513 42.0703C353.044 42.0703 352.682 42.2083 352.427 42.4844C352.172 42.7552 352.044 43.1458 352.044 43.6562V44.5469H353.849V45.6641H352.044V53H350.599ZM360.669 52.1641C360.106 52.8255 359.281 53.1562 358.192 53.1562C357.291 53.1562 356.604 52.8958 356.13 52.375C355.661 51.849 355.424 51.0729 355.419 50.0469V44.5469H356.864V50.0078C356.864 51.2891 357.385 51.9297 358.427 51.9297C359.531 51.9297 360.265 51.5182 360.63 50.6953V44.5469H362.075V53H360.7L360.669 52.1641ZM365.849 53H364.403V41H365.849V53ZM369.739 53H368.294V41H369.739V53ZM374.825 50.8828L376.794 44.5469H378.341L374.942 54.3047C374.416 55.7109 373.58 56.4141 372.435 56.4141L372.161 56.3906L371.622 56.2891V55.1172L372.013 55.1484C372.502 55.1484 372.882 55.0495 373.153 54.8516C373.429 54.6536 373.656 54.2917 373.833 53.7656L374.153 52.9062L371.138 44.5469H372.716L374.825 50.8828ZM378.825 52.2422C378.825 51.9922 378.898 51.7839 379.044 51.6172C379.195 51.4505 379.419 51.3672 379.716 51.3672C380.013 51.3672 380.237 51.4505 380.388 51.6172C380.544 51.7839 380.622 51.9922 380.622 52.2422C380.622 52.4818 380.544 52.6823 380.388 52.8438C380.237 53.0052 380.013 53.0859 379.716 53.0859C379.419 53.0859 379.195 53.0052 379.044 52.8438C378.898 52.6823 378.825 52.4818 378.825 52.2422Z" fill="#6654A4"/>
<path d="M47.7587 65H50.6387V59.848H53.8387V57.32H50.6387V42.088H47.1507L35.9187 57.64V59.848H47.7587V65ZM39.2787 57.32L47.8867 45.128V57.32H39.2787Z" fill="#6654A4"/>
<defs>
<filter id="filter0_d" x="0" y="0" width="594.56" height="113" filterUnits="userSpaceOnUse" color-interpolation-filters="sRGB">
<feFlood flood-opacity="0" result="BackgroundImageFix"/>
<feColorMatrix in="SourceAlpha" type="matrix" values="0 0 0 0 0 0 0 0 0 0 0 0 0 0 0 0 0 0 127 0"/>
<feMorphology radius="4" operator="dilate" in="SourceAlpha" result="effect1_dropShadow"/>
<feOffset dy="3"/>
<feGaussianBlur stdDeviation="7.5"/>
<feColorMatrix type="matrix" values="0 0 0 0 0.872109 0 0 0 0 0.853125 0 0 0 0 0.9375 0 0 0 0.5 0"/>
<feBlend mode="normal" in2="BackgroundImageFix" result="effect1_dropShadow"/>
<feBlend mode="normal" in="SourceGraphic" in2="effect1_dropShadow" result="shape"/>
</filter>
</defs>
</svg>
