<svg width="595" height="75" viewBox="0 0 595 75" fill="none" xmlns="http://www.w3.org/2000/svg">
<path d="M68.6016 37.0312H63.8359L62.7656 40H61.2188L65.5625 28.625H66.875L71.2266 40H69.6875L68.6016 37.0312ZM64.2891 35.7969H68.1562L66.2188 30.4766L64.2891 35.7969ZM72.1797 35.7031C72.1797 34.4062 72.487 33.3646 73.1016 32.5781C73.7161 31.7865 74.5208 31.3906 75.5156 31.3906C76.5052 31.3906 77.2891 31.7292 77.8672 32.4062V28H79.3125V40H77.9844L77.9141 39.0938C77.3359 39.8021 76.5312 40.1562 75.5 40.1562C74.5208 40.1562 73.7214 39.7552 73.1016 38.9531C72.487 38.151 72.1797 37.1042 72.1797 35.8125V35.7031ZM73.625 35.8672C73.625 36.8255 73.8229 37.5755 74.2188 38.1172C74.6146 38.6589 75.1615 38.9297 75.8594 38.9297C76.776 38.9297 77.4453 38.5182 77.8672 37.6953V33.8125C77.4349 33.0156 76.7708 32.6172 75.875 32.6172C75.1667 32.6172 74.6146 32.8906 74.2188 33.4375C73.8229 33.9844 73.625 34.7943 73.625 35.8672ZM81.2109 35.7031C81.2109 34.4062 81.5182 33.3646 82.1328 32.5781C82.7474 31.7865 83.5521 31.3906 84.5469 31.3906C85.5365 31.3906 86.3203 31.7292 86.8984 32.4062V28H88.3438V40H87.0156L86.9453 39.0938C86.3672 39.8021 85.5625 40.1562 84.5312 40.1562C83.5521 40.1562 82.7526 39.7552 82.1328 38.9531C81.5182 38.151 81.2109 37.1042 81.2109 35.8125V35.7031ZM82.6562 35.8672C82.6562 36.8255 82.8542 37.5755 83.25 38.1172C83.6458 38.6589 84.1927 38.9297 84.8906 38.9297C85.8073 38.9297 86.4766 38.5182 86.8984 37.6953V33.8125C86.4661 33.0156 85.8021 32.6172 84.9062 32.6172C84.1979 32.6172 83.6458 32.8906 83.25 33.4375C82.8542 33.9844 82.6562 34.7943 82.6562 35.8672ZM96.5234 29.5V31.5469H98.1016V32.6641H96.5234V37.9062C96.5234 38.2448 96.5938 38.5 96.7344 38.6719C96.875 38.8385 97.1146 38.9219 97.4531 38.9219C97.6198 38.9219 97.849 38.8906 98.1406 38.8281V40C97.7604 40.1042 97.3906 40.1562 97.0312 40.1562C96.3854 40.1562 95.8984 39.9609 95.5703 39.5703C95.2422 39.1797 95.0781 38.625 95.0781 37.9062V32.6641H93.5391V31.5469H95.0781V29.5H96.5234ZM101.242 32.5703C101.883 31.7839 102.716 31.3906 103.742 31.3906C105.529 31.3906 106.43 32.3984 106.445 34.4141V40H105V34.4062C104.995 33.7969 104.854 33.3464 104.578 33.0547C104.307 32.763 103.883 32.6172 103.305 32.6172C102.836 32.6172 102.424 32.7422 102.07 32.9922C101.716 33.2422 101.44 33.5703 101.242 33.9766V40H99.7969V28H101.242V32.5703ZM112.117 40.1562C110.971 40.1562 110.039 39.7812 109.32 39.0312C108.602 38.276 108.242 37.2682 108.242 36.0078V35.7422C108.242 34.9036 108.401 34.1562 108.719 33.5C109.042 32.8385 109.49 32.3229 110.062 31.9531C110.641 31.5781 111.266 31.3906 111.938 31.3906C113.036 31.3906 113.891 31.7526 114.5 32.4766C115.109 33.2005 115.414 34.237 115.414 35.5859V36.1875H109.688C109.708 37.0208 109.951 37.6953 110.414 38.2109C110.883 38.7214 111.477 38.9766 112.195 38.9766C112.706 38.9766 113.138 38.8724 113.492 38.6641C113.846 38.4557 114.156 38.1797 114.422 37.8359L115.305 38.5234C114.596 39.612 113.534 40.1562 112.117 40.1562ZM111.938 32.5781C111.354 32.5781 110.865 32.7917 110.469 33.2188C110.073 33.6406 109.828 34.2344 109.734 35H113.969V34.8906C113.927 34.1562 113.729 33.5885 113.375 33.1875C113.021 32.7812 112.542 32.5781 111.938 32.5781ZM126.281 40C126.198 39.8333 126.13 39.5365 126.078 39.1094C125.406 39.8073 124.604 40.1562 123.672 40.1562C122.839 40.1562 122.154 39.9219 121.617 39.4531C121.086 38.9792 120.82 38.3802 120.82 37.6562C120.82 36.776 121.154 36.0938 121.82 35.6094C122.492 35.1198 123.435 34.875 124.648 34.875H126.055V34.2109C126.055 33.7057 125.904 33.3047 125.602 33.0078C125.299 32.7057 124.854 32.5547 124.266 32.5547C123.75 32.5547 123.318 32.6849 122.969 32.9453C122.62 33.2057 122.445 33.5208 122.445 33.8906H120.992C120.992 33.4688 121.141 33.0625 121.438 32.6719C121.74 32.276 122.146 31.9635 122.656 31.7344C123.172 31.5052 123.737 31.3906 124.352 31.3906C125.326 31.3906 126.089 31.6354 126.641 32.125C127.193 32.6094 127.479 33.2786 127.5 34.1328V38.0234C127.5 38.7995 127.599 39.4167 127.797 39.875V40H126.281ZM123.883 38.8984C124.336 38.8984 124.766 38.7812 125.172 38.5469C125.578 38.3125 125.872 38.0078 126.055 37.6328V35.8984H124.922C123.151 35.8984 122.266 36.4167 122.266 37.4531C122.266 37.9062 122.417 38.2604 122.719 38.5156C123.021 38.7708 123.409 38.8984 123.883 38.8984ZM131.125 31.5469L131.164 32.4844C131.784 31.7552 132.62 31.3906 133.672 31.3906C134.854 31.3906 135.659 31.8438 136.086 32.75C136.367 32.3438 136.732 32.0156 137.18 31.7656C137.633 31.5156 138.167 31.3906 138.781 31.3906C140.635 31.3906 141.578 32.3724 141.609 34.3359V40H140.164V34.4219C140.164 33.8177 140.026 33.3672 139.75 33.0703C139.474 32.7682 139.01 32.6172 138.359 32.6172C137.823 32.6172 137.378 32.7786 137.023 33.1016C136.669 33.4193 136.464 33.849 136.406 34.3906V40H134.953V34.4609C134.953 33.2318 134.352 32.6172 133.148 32.6172C132.201 32.6172 131.552 33.0208 131.203 33.8281V40H129.758V31.5469H131.125ZM143.414 35.6953C143.414 34.8672 143.576 34.1224 143.898 33.4609C144.227 32.7995 144.68 32.2891 145.258 31.9297C145.841 31.5703 146.505 31.3906 147.25 31.3906C148.401 31.3906 149.331 31.7891 150.039 32.5859C150.753 33.3828 151.109 34.4427 151.109 35.7656V35.8672C151.109 36.6901 150.951 37.4297 150.633 38.0859C150.32 38.737 149.87 39.2448 149.281 39.6094C148.698 39.974 148.026 40.1562 147.266 40.1562C146.12 40.1562 145.19 39.7578 144.477 38.9609C143.768 38.1641 143.414 37.1094 143.414 35.7969V35.6953ZM144.867 35.8672C144.867 36.8047 145.083 37.5573 145.516 38.125C145.953 38.6927 146.536 38.9766 147.266 38.9766C148 38.9766 148.583 38.6901 149.016 38.1172C149.448 37.5391 149.664 36.7318 149.664 35.6953C149.664 34.7682 149.443 34.0182 149 33.4453C148.562 32.8672 147.979 32.5781 147.25 32.5781C146.536 32.5781 145.961 32.862 145.523 33.4297C145.086 33.9974 144.867 34.8099 144.867 35.8672ZM158.141 39.1641C157.578 39.8255 156.753 40.1562 155.664 40.1562C154.763 40.1562 154.076 39.8958 153.602 39.375C153.133 38.849 152.896 38.0729 152.891 37.0469V31.5469H154.336V37.0078C154.336 38.2891 154.857 38.9297 155.898 38.9297C157.003 38.9297 157.737 38.5182 158.102 37.6953V31.5469H159.547V40H158.172L158.141 39.1641ZM163.117 31.5469L163.164 32.6094C163.81 31.7969 164.654 31.3906 165.695 31.3906C167.482 31.3906 168.383 32.3984 168.398 34.4141V40H166.953V34.4062C166.948 33.7969 166.807 33.3464 166.531 33.0547C166.26 32.763 165.836 32.6172 165.258 32.6172C164.789 32.6172 164.378 32.7422 164.023 32.9922C163.669 33.2422 163.393 33.5703 163.195 33.9766V40H161.75V31.5469H163.117ZM172.539 29.5V31.5469H174.117V32.6641H172.539V37.9062C172.539 38.2448 172.609 38.5 172.75 38.6719C172.891 38.8385 173.13 38.9219 173.469 38.9219C173.635 38.9219 173.865 38.8906 174.156 38.8281V40C173.776 40.1042 173.406 40.1562 173.047 40.1562C172.401 40.1562 171.914 39.9609 171.586 39.5703C171.258 39.1797 171.094 38.625 171.094 37.9062V32.6641H169.555V31.5469H171.094V29.5H172.539ZM181.148 31.5469L181.195 32.6094C181.841 31.7969 182.685 31.3906 183.727 31.3906C185.513 31.3906 186.414 32.3984 186.43 34.4141V40H184.984V34.4062C184.979 33.7969 184.839 33.3464 184.562 33.0547C184.292 32.763 183.867 32.6172 183.289 32.6172C182.82 32.6172 182.409 32.7422 182.055 32.9922C181.701 33.2422 181.424 33.5703 181.227 33.9766V40H179.781V31.5469H181.148ZM192.117 40.1562C190.971 40.1562 190.039 39.7812 189.32 39.0312C188.602 38.276 188.242 37.2682 188.242 36.0078V35.7422C188.242 34.9036 188.401 34.1562 188.719 33.5C189.042 32.8385 189.49 32.3229 190.062 31.9531C190.641 31.5781 191.266 31.3906 191.938 31.3906C193.036 31.3906 193.891 31.7526 194.5 32.4766C195.109 33.2005 195.414 34.237 195.414 35.5859V36.1875H189.688C189.708 37.0208 189.951 37.6953 190.414 38.2109C190.883 38.7214 191.477 38.9766 192.195 38.9766C192.706 38.9766 193.138 38.8724 193.492 38.6641C193.846 38.4557 194.156 38.1797 194.422 37.8359L195.305 38.5234C194.596 39.612 193.534 40.1562 192.117 40.1562ZM191.938 32.5781C191.354 32.5781 190.865 32.7917 190.469 33.2188C190.073 33.6406 189.828 34.2344 189.734 35H193.969V34.8906C193.927 34.1562 193.729 33.5885 193.375 33.1875C193.021 32.7812 192.542 32.5781 191.938 32.5781ZM200.602 40.1562C199.456 40.1562 198.523 39.7812 197.805 39.0312C197.086 38.276 196.727 37.2682 196.727 36.0078V35.7422C196.727 34.9036 196.885 34.1562 197.203 33.5C197.526 32.8385 197.974 32.3229 198.547 31.9531C199.125 31.5781 199.75 31.3906 200.422 31.3906C201.521 31.3906 202.375 31.7526 202.984 32.4766C203.594 33.2005 203.898 34.237 203.898 35.5859V36.1875H198.172C198.193 37.0208 198.435 37.6953 198.898 38.2109C199.367 38.7214 199.961 38.9766 200.68 38.9766C201.19 38.9766 201.622 38.8724 201.977 38.6641C202.331 38.4557 202.641 38.1797 202.906 37.8359L203.789 38.5234C203.081 39.612 202.018 40.1562 200.602 40.1562ZM200.422 32.5781C199.839 32.5781 199.349 32.7917 198.953 33.2188C198.557 33.6406 198.312 34.2344 198.219 35H202.453V34.8906C202.411 34.1562 202.214 33.5885 201.859 33.1875C201.505 32.7812 201.026 32.5781 200.422 32.5781ZM205.227 35.7031C205.227 34.4062 205.534 33.3646 206.148 32.5781C206.763 31.7865 207.568 31.3906 208.562 31.3906C209.552 31.3906 210.336 31.7292 210.914 32.4062V28H212.359V40H211.031L210.961 39.0938C210.383 39.8021 209.578 40.1562 208.547 40.1562C207.568 40.1562 206.768 39.7552 206.148 38.9531C205.534 38.151 205.227 37.1042 205.227 35.8125V35.7031ZM206.672 35.8672C206.672 36.8255 206.87 37.5755 207.266 38.1172C207.661 38.6589 208.208 38.9297 208.906 38.9297C209.823 38.9297 210.492 38.5182 210.914 37.6953V33.8125C210.482 33.0156 209.818 32.6172 208.922 32.6172C208.214 32.6172 207.661 32.8906 207.266 33.4375C206.87 33.9844 206.672 34.7943 206.672 35.8672ZM218.117 40.1562C216.971 40.1562 216.039 39.7812 215.32 39.0312C214.602 38.276 214.242 37.2682 214.242 36.0078V35.7422C214.242 34.9036 214.401 34.1562 214.719 33.5C215.042 32.8385 215.49 32.3229 216.062 31.9531C216.641 31.5781 217.266 31.3906 217.938 31.3906C219.036 31.3906 219.891 31.7526 220.5 32.4766C221.109 33.2005 221.414 34.237 221.414 35.5859V36.1875H215.688C215.708 37.0208 215.951 37.6953 216.414 38.2109C216.883 38.7214 217.477 38.9766 218.195 38.9766C218.706 38.9766 219.138 38.8724 219.492 38.6641C219.846 38.4557 220.156 38.1797 220.422 37.8359L221.305 38.5234C220.596 39.612 219.534 40.1562 218.117 40.1562ZM217.938 32.5781C217.354 32.5781 216.865 32.7917 216.469 33.2188C216.073 33.6406 215.828 34.2344 215.734 35H219.969V34.8906C219.927 34.1562 219.729 33.5885 219.375 33.1875C219.021 32.7812 218.542 32.5781 217.938 32.5781ZM222.742 35.7031C222.742 34.4062 223.049 33.3646 223.664 32.5781C224.279 31.7865 225.083 31.3906 226.078 31.3906C227.068 31.3906 227.852 31.7292 228.43 32.4062V28H229.875V40H228.547L228.477 39.0938C227.898 39.8021 227.094 40.1562 226.062 40.1562C225.083 40.1562 224.284 39.7552 223.664 38.9531C223.049 38.151 222.742 37.1042 222.742 35.8125V35.7031ZM224.188 35.8672C224.188 36.8255 224.385 37.5755 224.781 38.1172C225.177 38.6589 225.724 38.9297 226.422 38.9297C227.339 38.9297 228.008 38.5182 228.43 37.6953V33.8125C227.997 33.0156 227.333 32.6172 226.438 32.6172C225.729 32.6172 225.177 32.8906 224.781 33.4375C224.385 33.9844 224.188 34.7943 224.188 35.8672ZM238.055 29.5V31.5469H239.633V32.6641H238.055V37.9062C238.055 38.2448 238.125 38.5 238.266 38.6719C238.406 38.8385 238.646 38.9219 238.984 38.9219C239.151 38.9219 239.38 38.8906 239.672 38.8281V40C239.292 40.1042 238.922 40.1562 238.562 40.1562C237.917 40.1562 237.43 39.9609 237.102 39.5703C236.773 39.1797 236.609 38.625 236.609 37.9062V32.6641H235.07V31.5469H236.609V29.5H238.055ZM240.789 35.6953C240.789 34.8672 240.951 34.1224 241.273 33.4609C241.602 32.7995 242.055 32.2891 242.633 31.9297C243.216 31.5703 243.88 31.3906 244.625 31.3906C245.776 31.3906 246.706 31.7891 247.414 32.5859C248.128 33.3828 248.484 34.4427 248.484 35.7656V35.8672C248.484 36.6901 248.326 37.4297 248.008 38.0859C247.695 38.737 247.245 39.2448 246.656 39.6094C246.073 39.974 245.401 40.1562 244.641 40.1562C243.495 40.1562 242.565 39.7578 241.852 38.9609C241.143 38.1641 240.789 37.1094 240.789 35.7969V35.6953ZM242.242 35.8672C242.242 36.8047 242.458 37.5573 242.891 38.125C243.328 38.6927 243.911 38.9766 244.641 38.9766C245.375 38.9766 245.958 38.6901 246.391 38.1172C246.823 37.5391 247.039 36.7318 247.039 35.6953C247.039 34.7682 246.818 34.0182 246.375 33.4453C245.938 32.8672 245.354 32.5781 244.625 32.5781C243.911 32.5781 243.336 32.862 242.898 33.4297C242.461 33.9974 242.242 34.8099 242.242 35.8672ZM253.914 35.7031C253.914 34.4062 254.221 33.3646 254.836 32.5781C255.451 31.7865 256.255 31.3906 257.25 31.3906C258.24 31.3906 259.023 31.7292 259.602 32.4062V28H261.047V40H259.719L259.648 39.0938C259.07 39.8021 258.266 40.1562 257.234 40.1562C256.255 40.1562 255.456 39.7552 254.836 38.9531C254.221 38.151 253.914 37.1042 253.914 35.8125V35.7031ZM255.359 35.8672C255.359 36.8255 255.557 37.5755 255.953 38.1172C256.349 38.6589 256.896 38.9297 257.594 38.9297C258.51 38.9297 259.18 38.5182 259.602 37.6953V33.8125C259.169 33.0156 258.505 32.6172 257.609 32.6172C256.901 32.6172 256.349 32.8906 255.953 33.4375C255.557 33.9844 255.359 34.7943 255.359 35.8672ZM266.805 40.1562C265.659 40.1562 264.727 39.7812 264.008 39.0312C263.289 38.276 262.93 37.2682 262.93 36.0078V35.7422C262.93 34.9036 263.089 34.1562 263.406 33.5C263.729 32.8385 264.177 32.3229 264.75 31.9531C265.328 31.5781 265.953 31.3906 266.625 31.3906C267.724 31.3906 268.578 31.7526 269.188 32.4766C269.797 33.2005 270.102 34.237 270.102 35.5859V36.1875H264.375C264.396 37.0208 264.638 37.6953 265.102 38.2109C265.57 38.7214 266.164 38.9766 266.883 38.9766C267.393 38.9766 267.826 38.8724 268.18 38.6641C268.534 38.4557 268.844 38.1797 269.109 37.8359L269.992 38.5234C269.284 39.612 268.221 40.1562 266.805 40.1562ZM266.625 32.5781C266.042 32.5781 265.552 32.7917 265.156 33.2188C264.76 33.6406 264.516 34.2344 264.422 35H268.656V34.8906C268.615 34.1562 268.417 33.5885 268.062 33.1875C267.708 32.7812 267.229 32.5781 266.625 32.5781ZM278.922 35.8672C278.922 37.1536 278.628 38.1901 278.039 38.9766C277.451 39.763 276.654 40.1562 275.648 40.1562C274.622 40.1562 273.815 39.8307 273.227 39.1797V43.25H271.781V31.5469H273.102L273.172 32.4844C273.76 31.7552 274.578 31.3906 275.625 31.3906C276.641 31.3906 277.443 31.7734 278.031 32.5391C278.625 33.3047 278.922 34.3698 278.922 35.7344V35.8672ZM277.477 35.7031C277.477 34.75 277.273 33.9974 276.867 33.4453C276.461 32.8932 275.904 32.6172 275.195 32.6172C274.32 32.6172 273.664 33.0052 273.227 33.7812V37.8203C273.659 38.5911 274.32 38.9766 275.211 38.9766C275.904 38.9766 276.453 38.7031 276.859 38.1562C277.271 37.6042 277.477 36.7865 277.477 35.7031ZM280.383 35.6953C280.383 34.8672 280.544 34.1224 280.867 33.4609C281.195 32.7995 281.648 32.2891 282.227 31.9297C282.81 31.5703 283.474 31.3906 284.219 31.3906C285.37 31.3906 286.299 31.7891 287.008 32.5859C287.721 33.3828 288.078 34.4427 288.078 35.7656V35.8672C288.078 36.6901 287.919 37.4297 287.602 38.0859C287.289 38.737 286.839 39.2448 286.25 39.6094C285.667 39.974 284.995 40.1562 284.234 40.1562C283.089 40.1562 282.159 39.7578 281.445 38.9609C280.737 38.1641 280.383 37.1094 280.383 35.7969V35.6953ZM281.836 35.8672C281.836 36.8047 282.052 37.5573 282.484 38.125C282.922 38.6927 283.505 38.9766 284.234 38.9766C284.969 38.9766 285.552 38.6901 285.984 38.1172C286.417 37.5391 286.633 36.7318 286.633 35.6953C286.633 34.7682 286.411 34.0182 285.969 33.4453C285.531 32.8672 284.948 32.5781 284.219 32.5781C283.505 32.5781 282.93 32.862 282.492 33.4297C282.055 33.9974 281.836 34.8099 281.836 35.8672ZM294.812 37.7578C294.812 37.3672 294.664 37.0651 294.367 36.8516C294.076 36.6328 293.562 36.4453 292.828 36.2891C292.099 36.1328 291.518 35.9453 291.086 35.7266C290.659 35.5078 290.341 35.2474 290.133 34.9453C289.93 34.6432 289.828 34.2839 289.828 33.8672C289.828 33.1745 290.12 32.5885 290.703 32.1094C291.292 31.6302 292.042 31.3906 292.953 31.3906C293.911 31.3906 294.688 31.638 295.281 32.1328C295.88 32.6276 296.18 33.2604 296.18 34.0312H294.727C294.727 33.6354 294.557 33.2943 294.219 33.0078C293.885 32.7214 293.464 32.5781 292.953 32.5781C292.427 32.5781 292.016 32.6927 291.719 32.9219C291.422 33.151 291.273 33.4505 291.273 33.8203C291.273 34.1693 291.411 34.4323 291.688 34.6094C291.964 34.7865 292.461 34.9557 293.18 35.1172C293.904 35.2786 294.49 35.4714 294.938 35.6953C295.385 35.9193 295.716 36.1901 295.93 36.5078C296.148 36.8203 296.258 37.2031 296.258 37.6562C296.258 38.4115 295.956 39.0182 295.352 39.4766C294.747 39.9297 293.964 40.1562 293 40.1562C292.323 40.1562 291.724 40.0365 291.203 39.7969C290.682 39.5573 290.273 39.224 289.977 38.7969C289.685 38.3646 289.539 37.8984 289.539 37.3984H290.984C291.01 37.8828 291.203 38.2682 291.562 38.5547C291.927 38.8359 292.406 38.9766 293 38.9766C293.547 38.9766 293.984 38.8672 294.312 38.6484C294.646 38.4245 294.812 38.1276 294.812 37.7578ZM299.711 40H298.266V31.5469H299.711V40ZM298.148 29.3047C298.148 29.0703 298.219 28.8724 298.359 28.7109C298.505 28.5495 298.719 28.4688 299 28.4688C299.281 28.4688 299.495 28.5495 299.641 28.7109C299.786 28.8724 299.859 29.0703 299.859 29.3047C299.859 29.5391 299.786 29.7344 299.641 29.8906C299.495 30.0469 299.281 30.125 299 30.125C298.719 30.125 298.505 30.0469 298.359 29.8906C298.219 29.7344 298.148 29.5391 298.148 29.3047ZM303.992 29.5V31.5469H305.57V32.6641H303.992V37.9062C303.992 38.2448 304.062 38.5 304.203 38.6719C304.344 38.8385 304.583 38.9219 304.922 38.9219C305.089 38.9219 305.318 38.8906 305.609 38.8281V40C305.229 40.1042 304.859 40.1562 304.5 40.1562C303.854 40.1562 303.367 39.9609 303.039 39.5703C302.711 39.1797 302.547 38.625 302.547 37.9062V32.6641H301.008V31.5469H302.547V29.5H303.992ZM312.805 40H311.359V31.5469H312.805V40ZM311.242 29.3047C311.242 29.0703 311.312 28.8724 311.453 28.7109C311.599 28.5495 311.812 28.4688 312.094 28.4688C312.375 28.4688 312.589 28.5495 312.734 28.7109C312.88 28.8724 312.953 29.0703 312.953 29.3047C312.953 29.5391 312.88 29.7344 312.734 29.8906C312.589 30.0469 312.375 30.125 312.094 30.125C311.812 30.125 311.599 30.0469 311.453 29.8906C311.312 29.7344 311.242 29.5391 311.242 29.3047ZM316.492 31.5469L316.539 32.6094C317.185 31.7969 318.029 31.3906 319.07 31.3906C320.857 31.3906 321.758 32.3984 321.773 34.4141V40H320.328V34.4062C320.323 33.7969 320.182 33.3464 319.906 33.0547C319.635 32.763 319.211 32.6172 318.633 32.6172C318.164 32.6172 317.753 32.7422 317.398 32.9922C317.044 33.2422 316.768 33.5703 316.57 33.9766V40H315.125V31.5469H316.492ZM330.688 37.8828L332.656 31.5469H334.203L330.805 41.3047C330.279 42.7109 329.443 43.4141 328.297 43.4141L328.023 43.3906L327.484 43.2891V42.1172L327.875 42.1484C328.365 42.1484 328.745 42.0495 329.016 41.8516C329.292 41.6536 329.518 41.2917 329.695 40.7656L330.016 39.9062L327 31.5469H328.578L330.688 37.8828ZM334.992 35.6953C334.992 34.8672 335.154 34.1224 335.477 33.4609C335.805 32.7995 336.258 32.2891 336.836 31.9297C337.419 31.5703 338.083 31.3906 338.828 31.3906C339.979 31.3906 340.909 31.7891 341.617 32.5859C342.331 33.3828 342.688 34.4427 342.688 35.7656V35.8672C342.688 36.6901 342.529 37.4297 342.211 38.0859C341.898 38.737 341.448 39.2448 340.859 39.6094C340.276 39.974 339.604 40.1562 338.844 40.1562C337.698 40.1562 336.768 39.7578 336.055 38.9609C335.346 38.1641 334.992 37.1094 334.992 35.7969V35.6953ZM336.445 35.8672C336.445 36.8047 336.661 37.5573 337.094 38.125C337.531 38.6927 338.115 38.9766 338.844 38.9766C339.578 38.9766 340.161 38.6901 340.594 38.1172C341.026 37.5391 341.242 36.7318 341.242 35.6953C341.242 34.7682 341.021 34.0182 340.578 33.4453C340.141 32.8672 339.557 32.5781 338.828 32.5781C338.115 32.5781 337.539 32.862 337.102 33.4297C336.664 33.9974 336.445 34.8099 336.445 35.8672ZM349.719 39.1641C349.156 39.8255 348.331 40.1562 347.242 40.1562C346.341 40.1562 345.654 39.8958 345.18 39.375C344.711 38.849 344.474 38.0729 344.469 37.0469V31.5469H345.914V37.0078C345.914 38.2891 346.435 38.9297 347.477 38.9297C348.581 38.9297 349.315 38.5182 349.68 37.6953V31.5469H351.125V40H349.75L349.719 39.1641ZM357.414 32.8438C357.195 32.8073 356.958 32.7891 356.703 32.7891C355.755 32.7891 355.112 33.1927 354.773 34V40H353.328V31.5469H354.734L354.758 32.5234C355.232 31.7682 355.904 31.3906 356.773 31.3906C357.055 31.3906 357.268 31.4271 357.414 31.5V32.8438ZM362.336 35.6953C362.336 34.8672 362.497 34.1224 362.82 33.4609C363.148 32.7995 363.602 32.2891 364.18 31.9297C364.763 31.5703 365.427 31.3906 366.172 31.3906C367.323 31.3906 368.253 31.7891 368.961 32.5859C369.674 33.3828 370.031 34.4427 370.031 35.7656V35.8672C370.031 36.6901 369.872 37.4297 369.555 38.0859C369.242 38.737 368.792 39.2448 368.203 39.6094C367.62 39.974 366.948 40.1562 366.188 40.1562C365.042 40.1562 364.112 39.7578 363.398 38.9609C362.69 38.1641 362.336 37.1094 362.336 35.7969V35.6953ZM363.789 35.8672C363.789 36.8047 364.005 37.5573 364.438 38.125C364.875 38.6927 365.458 38.9766 366.188 38.9766C366.922 38.9766 367.505 38.6901 367.938 38.1172C368.37 37.5391 368.586 36.7318 368.586 35.6953C368.586 34.7682 368.365 34.0182 367.922 33.4453C367.484 32.8672 366.901 32.5781 366.172 32.5781C365.458 32.5781 364.883 32.862 364.445 33.4297C364.008 33.9974 363.789 34.8099 363.789 35.8672ZM373.211 31.5469L373.258 32.6094C373.904 31.7969 374.747 31.3906 375.789 31.3906C377.576 31.3906 378.477 32.3984 378.492 34.4141V40H377.047V34.4062C377.042 33.7969 376.901 33.3464 376.625 33.0547C376.354 32.763 375.93 32.6172 375.352 32.6172C374.883 32.6172 374.471 32.7422 374.117 32.9922C373.763 33.2422 373.487 33.5703 373.289 33.9766V40H371.844V31.5469H373.211ZM382.242 40H380.797V28H382.242V40ZM386.133 40H384.688V31.5469H386.133V40ZM384.57 29.3047C384.57 29.0703 384.641 28.8724 384.781 28.7109C384.927 28.5495 385.141 28.4688 385.422 28.4688C385.703 28.4688 385.917 28.5495 386.062 28.7109C386.208 28.8724 386.281 29.0703 386.281 29.3047C386.281 29.5391 386.208 29.7344 386.062 29.8906C385.917 30.0469 385.703 30.125 385.422 30.125C385.141 30.125 384.927 30.0469 384.781 29.8906C384.641 29.7344 384.57 29.5391 384.57 29.3047ZM389.82 31.5469L389.867 32.6094C390.513 31.7969 391.357 31.3906 392.398 31.3906C394.185 31.3906 395.086 32.3984 395.102 34.4141V40H393.656V34.4062C393.651 33.7969 393.51 33.3464 393.234 33.0547C392.964 32.763 392.539 32.6172 391.961 32.6172C391.492 32.6172 391.081 32.7422 390.727 32.9922C390.372 33.2422 390.096 33.5703 389.898 33.9766V40H388.453V31.5469H389.82ZM400.789 40.1562C399.643 40.1562 398.711 39.7812 397.992 39.0312C397.273 38.276 396.914 37.2682 396.914 36.0078V35.7422C396.914 34.9036 397.073 34.1562 397.391 33.5C397.714 32.8385 398.161 32.3229 398.734 31.9531C399.312 31.5781 399.938 31.3906 400.609 31.3906C401.708 31.3906 402.562 31.7526 403.172 32.4766C403.781 33.2005 404.086 34.237 404.086 35.5859V36.1875H398.359C398.38 37.0208 398.622 37.6953 399.086 38.2109C399.555 38.7214 400.148 38.9766 400.867 38.9766C401.378 38.9766 401.81 38.8724 402.164 38.6641C402.518 38.4557 402.828 38.1797 403.094 37.8359L403.977 38.5234C403.268 39.612 402.206 40.1562 400.789 40.1562ZM400.609 32.5781C400.026 32.5781 399.536 32.7917 399.141 33.2188C398.745 33.6406 398.5 34.2344 398.406 35H402.641V34.8906C402.599 34.1562 402.401 33.5885 402.047 33.1875C401.693 32.7812 401.214 32.5781 400.609 32.5781ZM413.125 38.9766C413.641 38.9766 414.091 38.8203 414.477 38.5078C414.862 38.1953 415.076 37.8047 415.117 37.3359H416.484C416.458 37.8203 416.292 38.2812 415.984 38.7188C415.677 39.1562 415.266 39.5052 414.75 39.7656C414.24 40.026 413.698 40.1562 413.125 40.1562C411.974 40.1562 411.057 39.7734 410.375 39.0078C409.698 38.237 409.359 37.1849 409.359 35.8516V35.6094C409.359 34.7865 409.51 34.0547 409.812 33.4141C410.115 32.7734 410.547 32.276 411.109 31.9219C411.677 31.5677 412.346 31.3906 413.117 31.3906C414.065 31.3906 414.852 31.6745 415.477 32.2422C416.107 32.8099 416.443 33.5469 416.484 34.4531H415.117C415.076 33.9062 414.867 33.4583 414.492 33.1094C414.122 32.7552 413.664 32.5781 413.117 32.5781C412.383 32.5781 411.812 32.8438 411.406 33.375C411.005 33.901 410.805 34.6641 410.805 35.6641V35.9375C410.805 36.9115 411.005 37.6615 411.406 38.1875C411.807 38.7135 412.38 38.9766 413.125 38.9766ZM423.328 40C423.245 39.8333 423.177 39.5365 423.125 39.1094C422.453 39.8073 421.651 40.1562 420.719 40.1562C419.885 40.1562 419.201 39.9219 418.664 39.4531C418.133 38.9792 417.867 38.3802 417.867 37.6562C417.867 36.776 418.201 36.0938 418.867 35.6094C419.539 35.1198 420.482 34.875 421.695 34.875H423.102V34.2109C423.102 33.7057 422.951 33.3047 422.648 33.0078C422.346 32.7057 421.901 32.5547 421.312 32.5547C420.797 32.5547 420.365 32.6849 420.016 32.9453C419.667 33.2057 419.492 33.5208 419.492 33.8906H418.039C418.039 33.4688 418.188 33.0625 418.484 32.6719C418.786 32.276 419.193 31.9635 419.703 31.7344C420.219 31.5052 420.784 31.3906 421.398 31.3906C422.372 31.3906 423.135 31.6354 423.688 32.125C424.24 32.6094 424.526 33.2786 424.547 34.1328V38.0234C424.547 38.7995 424.646 39.4167 424.844 39.875V40H423.328ZM420.93 38.8984C421.383 38.8984 421.812 38.7812 422.219 38.5469C422.625 38.3125 422.919 38.0078 423.102 37.6328V35.8984H421.969C420.198 35.8984 419.312 36.4167 419.312 37.4531C419.312 37.9062 419.464 38.2604 419.766 38.5156C420.068 38.7708 420.456 38.8984 420.93 38.8984ZM430.898 32.8438C430.68 32.8073 430.443 32.7891 430.188 32.7891C429.24 32.7891 428.596 33.1927 428.258 34V40H426.812V31.5469H428.219L428.242 32.5234C428.716 31.7682 429.388 31.3906 430.258 31.3906C430.539 31.3906 430.753 31.4271 430.898 31.5V32.8438ZM431.727 35.7031C431.727 34.4062 432.034 33.3646 432.648 32.5781C433.263 31.7865 434.068 31.3906 435.062 31.3906C436.052 31.3906 436.836 31.7292 437.414 32.4062V28H438.859V40H437.531L437.461 39.0938C436.883 39.8021 436.078 40.1562 435.047 40.1562C434.068 40.1562 433.268 39.7552 432.648 38.9531C432.034 38.151 431.727 37.1042 431.727 35.8125V35.7031ZM433.172 35.8672C433.172 36.8255 433.37 37.5755 433.766 38.1172C434.161 38.6589 434.708 38.9297 435.406 38.9297C436.323 38.9297 436.992 38.5182 437.414 37.6953V33.8125C436.982 33.0156 436.318 32.6172 435.422 32.6172C434.714 32.6172 434.161 32.8906 433.766 33.4375C433.37 33.9844 433.172 34.7943 433.172 35.8672ZM441.141 39.2422C441.141 38.9922 441.214 38.7839 441.359 38.6172C441.51 38.4505 441.734 38.3672 442.031 38.3672C442.328 38.3672 442.552 38.4505 442.703 38.6172C442.859 38.7839 442.938 38.9922 442.938 39.2422C442.938 39.4818 442.859 39.6823 442.703 39.8438C442.552 40.0052 442.328 40.0859 442.031 40.0859C441.734 40.0859 441.51 40.0052 441.359 39.8438C441.214 39.6823 441.141 39.4818 441.141 39.2422Z" fill="#656668"/>
<path d="M27.2865 48H30.2305V24.864H24.2145V27.52H27.2865V48Z" fill="#656668"/>
</svg>
