<svg width="189" height="63" viewBox="0 0 189 63" fill="none" xmlns="http://www.w3.org/2000/svg">
<path d="M17.4823 10.9952C17.4823 13.7122 19.4713 15.6102 22.0063 15.6102C23.9693 15.6102 25.5293 14.6352 26.2053 12.8932H24.7883C24.2943 13.9722 23.3323 14.5832 22.0063 14.5832C20.1083 14.5832 18.6913 13.2052 18.6913 10.9952C18.6913 8.77223 20.1083 7.39423 22.0063 7.39423C23.3323 7.39423 24.2943 8.00523 24.7883 9.09723H26.2053C25.5293 7.34223 23.9693 6.35423 22.0063 6.35423C19.4713 6.35423 17.4823 8.27823 17.4823 10.9952ZM34.7263 11.9572C34.7263 9.70823 33.1533 8.29123 31.1253 8.29123C29.1103 8.29123 27.5243 9.70823 27.5243 11.9572C27.5243 14.2192 29.0583 15.6492 31.0733 15.6492C33.1013 15.6492 34.7263 14.2192 34.7263 11.9572ZM28.7333 11.9572C28.7333 10.1632 29.8643 9.31823 31.1123 9.31823C32.3343 9.31823 33.5173 10.1632 33.5173 11.9572C33.5173 13.7642 32.3083 14.6092 31.0733 14.6092C29.8383 14.6092 28.7333 13.7642 28.7333 11.9572ZM41.4948 15.5322H42.6648V11.3332C42.6648 9.29223 41.4038 8.27823 39.7528 8.27823C38.7908 8.27823 37.9328 8.68123 37.4648 9.42223V8.40823H36.2818V15.5322H37.4648V11.5932C37.4648 10.0592 38.2968 9.30523 39.5058 9.30523C40.7018 9.30523 41.4948 10.0462 41.4948 11.5022V15.5322ZM49.7192 13.5952C49.6672 11.0472 45.5332 11.9702 45.5332 10.2802C45.5332 9.70823 46.0532 9.29223 46.9242 9.29223C47.8732 9.29223 48.4192 9.81223 48.4712 10.5272H49.6542C49.5762 9.13623 48.5362 8.29123 46.9632 8.29123C45.3772 8.29123 44.3502 9.18823 44.3502 10.2802C44.3502 12.9322 48.5622 12.0092 48.5622 13.5952C48.5622 14.1802 48.0422 14.6482 47.1062 14.6482C46.1052 14.6482 45.4942 14.1282 45.4292 13.4392H44.2072C44.2852 14.7392 45.4552 15.6492 47.1192 15.6492C48.6922 15.6492 49.7192 14.7652 49.7192 13.5952ZM57.7072 8.40823H56.5242V12.3212C56.5242 13.8552 55.7052 14.6092 54.4832 14.6092C53.2872 14.6092 52.4942 13.8682 52.4942 12.4252V8.40823H51.3242V12.5812C51.3242 14.6222 52.6112 15.6362 54.2492 15.6362C55.1982 15.6362 56.0692 15.2202 56.5242 14.4792V15.5322H57.7072V8.40823ZM69.9876 15.5322H71.1576V11.3332C71.1576 9.29223 69.8966 8.27823 68.2716 8.27823C67.1796 8.27823 66.1656 8.83723 65.7496 9.86423C65.2816 8.79823 64.3066 8.27823 63.1366 8.27823C62.2006 8.27823 61.3556 8.68123 60.8876 9.43523V8.40823H59.7046V15.5322H60.8876V11.6062C60.8876 10.0722 61.7066 9.30523 62.9026 9.30523C64.0726 9.30523 64.8526 10.0462 64.8526 11.5022V15.5322H66.0226V11.6062C66.0226 10.0722 66.8416 9.30523 68.0376 9.30523C69.2076 9.30523 69.9876 10.0462 69.9876 11.5022V15.5322ZM76.1272 9.29223C77.3492 9.29223 78.3892 10.0592 78.3762 11.4502H73.8782C74.0082 10.0592 74.9702 9.29223 76.1272 9.29223ZM79.4552 13.3352H78.1812C77.9212 14.1022 77.2452 14.6482 76.1792 14.6482C74.9702 14.6482 73.9562 13.8552 73.8652 12.4122H79.5592C79.5852 12.1652 79.5982 11.9572 79.5982 11.6972C79.5982 9.74723 78.2462 8.29123 76.1792 8.29123C74.0992 8.29123 72.6562 9.70823 72.6562 11.9572C72.6562 14.2192 74.1512 15.6492 76.1792 15.6492C77.9472 15.6492 79.0912 14.6352 79.4552 13.3352ZM82.3427 11.6582C82.3427 10.0072 83.2007 9.50023 84.3317 9.50023H84.6437V8.27823C83.5127 8.27823 82.7457 8.77223 82.3427 9.56523V8.40823H81.1597V15.5322H82.3427V11.6582ZM94.6881 15.5322H95.8581V11.3332C95.8581 9.29223 94.5971 8.27823 92.9461 8.27823C91.9841 8.27823 91.1261 8.68123 90.6581 9.42223V8.40823H89.4751V15.5322H90.6581V11.5932C90.6581 10.0592 91.4901 9.30523 92.6991 9.30523C93.8951 9.30523 94.6881 10.0462 94.6881 11.5022V15.5322ZM104.551 11.9572C104.551 9.70823 102.978 8.29123 100.95 8.29123C98.9346 8.29123 97.3486 9.70823 97.3486 11.9572C97.3486 14.2192 98.8826 15.6492 100.898 15.6492C102.926 15.6492 104.551 14.2192 104.551 11.9572ZM98.5576 11.9572C98.5576 10.1632 99.6886 9.31823 100.937 9.31823C102.159 9.31823 103.342 10.1632 103.342 11.9572C103.342 13.7642 102.133 14.6092 100.898 14.6092C99.6626 14.6092 98.5576 13.7642 98.5576 11.9572ZM107.497 15.5322H108.719L110.435 9.87723L112.151 15.5322H113.373L115.596 8.40823H114.426L112.814 14.4012L111.085 8.40823H109.876L108.108 14.3882L106.47 8.40823H105.261L107.497 15.5322ZM119.794 11.9572C119.794 14.2192 121.237 15.6492 123.265 15.6492C125.033 15.6492 126.19 14.6612 126.554 13.2442H125.28C125.02 14.1412 124.318 14.6482 123.265 14.6482C121.965 14.6482 121.003 13.7252 121.003 11.9572C121.003 10.2152 121.965 9.29223 123.265 9.29223C124.318 9.29223 125.033 9.83823 125.28 10.6962H126.554C126.19 9.20123 125.033 8.29123 123.265 8.29123C121.237 8.29123 119.794 9.72123 119.794 11.9572ZM127.69 11.9442C127.69 14.1542 129.159 15.6492 131.057 15.6492C132.37 15.6492 133.293 14.9732 133.722 14.2062V15.5322H134.918V8.40823H133.722V9.70823C133.306 8.96723 132.396 8.29123 131.07 8.29123C129.159 8.29123 127.69 9.72123 127.69 11.9442ZM133.722 11.9572C133.722 13.6342 132.604 14.6092 131.304 14.6092C130.004 14.6092 128.899 13.6212 128.899 11.9442C128.899 10.2672 130.004 9.31823 131.304 9.31823C132.604 9.31823 133.722 10.3062 133.722 11.9572ZM142.131 15.5322H143.301V11.3332C143.301 9.29223 142.04 8.27823 140.389 8.27823C139.427 8.27823 138.569 8.68123 138.101 9.42223V8.40823H136.918V15.5322H138.101V11.5932C138.101 10.0592 138.933 9.30523 140.142 9.30523C141.338 9.30523 142.131 10.0462 142.131 11.5022V15.5322ZM149.882 9.73423V5.91223H148.699V15.5322H149.882V14.2192C150.324 14.9992 151.247 15.6492 152.547 15.6492C154.458 15.6492 155.927 14.1542 155.927 11.9442C155.927 9.72123 154.471 8.29123 152.547 8.29123C151.286 8.29123 150.337 8.94123 149.882 9.73423ZM154.718 11.9442C154.718 13.6212 153.613 14.6092 152.3 14.6092C151.013 14.6092 149.882 13.6342 149.882 11.9572C149.882 10.3062 151.013 9.31823 152.3 9.31823C153.613 9.31823 154.718 10.2672 154.718 11.9442ZM163.802 8.40823H162.619V12.3212C162.619 13.8552 161.8 14.6092 160.578 14.6092C159.382 14.6092 158.589 13.8682 158.589 12.4252V8.40823H157.419V12.5812C157.419 14.6222 158.706 15.6362 160.344 15.6362C161.293 15.6362 162.164 15.2202 162.619 14.4792V15.5322H163.802V8.40823ZM168.503 14.1802L166.267 8.40823H164.954L167.827 15.4542L166.423 18.8862H167.645L171.935 8.40823H170.713L168.503 14.1802ZM12.1047 29.2922C13.3267 29.2922 14.3667 30.0592 14.3537 31.4502H9.85571C9.98571 30.0592 10.9477 29.2922 12.1047 29.2922ZM15.4327 33.3352H14.1587C13.8987 34.1022 13.2227 34.6482 12.1567 34.6482C10.9477 34.6482 9.93371 33.8552 9.84271 32.4122H15.5367C15.5627 32.1652 15.5757 31.9572 15.5757 31.6972C15.5757 29.7472 14.2237 28.2912 12.1567 28.2912C10.0767 28.2912 8.63371 29.7082 8.63371 31.9572C8.63371 34.2192 10.1287 35.6492 12.1567 35.6492C13.9247 35.6492 15.0687 34.6352 15.4327 33.3352ZM16.2922 28.4082L19.0872 35.5322H20.4652L23.2602 28.4082H21.9992L19.7892 34.4402L17.5662 28.4082H16.2922ZM27.4533 29.2922C28.6753 29.2922 29.7153 30.0592 29.7023 31.4502H25.2043C25.3343 30.0592 26.2963 29.2922 27.4533 29.2922ZM30.7813 33.3352H29.5073C29.2473 34.1022 28.5713 34.6482 27.5053 34.6482C26.2963 34.6482 25.2823 33.8552 25.1913 32.4122H30.8853C30.9113 32.1652 30.9243 31.9572 30.9243 31.6972C30.9243 29.7472 29.5723 28.2912 27.5053 28.2912C25.4253 28.2912 23.9823 29.7082 23.9823 31.9572C23.9823 34.2192 25.4773 35.6492 27.5053 35.6492C29.2733 35.6492 30.4173 34.6352 30.7813 33.3352ZM33.6689 31.6582C33.6689 30.0072 34.5269 29.5002 35.6579 29.5002H35.9699V28.2782C34.8389 28.2782 34.0719 28.7722 33.6689 29.5652V28.4082H32.4859V35.5322H33.6689V31.6582ZM40.0395 34.1802L37.8035 28.4082H36.4905L39.3635 35.4542L37.9595 38.8862H39.1815L43.4715 28.4082H42.2495L40.0395 34.1802ZM44.9207 33.5822C44.9207 35.0122 45.6357 35.5322 46.8967 35.5322H47.9627V34.5312H47.0917C46.3637 34.5312 46.1037 34.2842 46.1037 33.5822V29.3832H47.9627V28.4082H46.1037V26.6142H44.9207V28.4082H43.9977V29.3832H44.9207V33.5822ZM49.396 35.5322H50.579V31.5932C50.579 30.0592 51.411 29.3052 52.62 29.3052C53.816 29.3052 54.609 30.0462 54.609 31.5022V35.5322H55.779V31.3332C55.779 29.2922 54.518 28.2782 52.932 28.2782C51.931 28.2782 51.047 28.6812 50.579 29.4352V25.9122H49.396V35.5322ZM57.7114 35.5322H58.8944V28.4082H57.7114V35.5322ZM58.3224 27.2512C58.7514 27.2512 59.1024 26.9002 59.1024 26.4452C59.1024 25.9902 58.7514 25.6392 58.3224 25.6392C57.8674 25.6392 57.5164 25.9902 57.5164 26.4452C57.5164 26.9002 57.8674 27.2512 58.3224 27.2512ZM66.1237 35.5322H67.2937V31.3332C67.2937 29.2922 66.0327 28.2782 64.3817 28.2782C63.4197 28.2782 62.5617 28.6812 62.0937 29.4222V28.4082H60.9107V35.5322H62.0937V31.5932C62.0937 30.0592 62.9257 29.3052 64.1347 29.3052C65.3307 29.3052 66.1237 30.0462 66.1237 31.5022V35.5322ZM68.7841 31.9442C68.7841 34.1542 70.2531 35.6492 72.1641 35.6492C73.4641 35.6492 74.3871 34.9602 74.8161 34.1932V35.6882C74.8161 37.2092 73.8671 38.0152 72.6061 38.0152C71.4361 38.0152 70.5911 37.4302 70.3311 36.5722H69.1611C69.3951 38.0932 70.7341 39.0422 72.6061 39.0422C74.6991 39.0422 76.0121 37.6512 76.0121 35.6882V28.4082H74.8161V29.7082C74.4001 28.9412 73.4641 28.2912 72.1641 28.2912C70.2531 28.2912 68.7841 29.7212 68.7841 31.9442ZM74.8161 31.9572C74.8161 33.6342 73.6981 34.6092 72.3981 34.6092C71.0981 34.6092 69.9931 33.6212 69.9931 31.9442C69.9931 30.2672 71.0981 29.3182 72.3981 29.3182C73.6981 29.3182 74.8161 30.3062 74.8161 31.9572ZM81.7371 33.5822C81.7371 35.0122 82.4521 35.5322 83.7131 35.5322H84.7791V34.5312H83.9081C83.1801 34.5312 82.9201 34.2842 82.9201 33.5822V29.3832H84.7791V28.4082H82.9201V26.6142H81.7371V28.4082H80.8141V29.3832H81.7371V33.5822ZM86.2124 35.5322H87.3954V31.5932C87.3954 30.0592 88.2274 29.3052 89.4364 29.3052C90.6324 29.3052 91.4254 30.0462 91.4254 31.5022V35.5322H92.5954V31.3332C92.5954 29.2922 91.3344 28.2782 89.7484 28.2782C88.7474 28.2782 87.8634 28.6812 87.3954 29.4352V25.9122H86.2124V35.5322ZM94.0859 31.9442C94.0859 34.1542 95.5549 35.6492 97.4529 35.6492C98.7659 35.6492 99.6889 34.9732 100.118 34.2062V35.5322H101.314V28.4082H100.118V29.7082C99.7019 28.9672 98.7919 28.2912 97.4659 28.2912C95.5549 28.2912 94.0859 29.7212 94.0859 31.9442ZM100.118 31.9572C100.118 33.6342 98.9999 34.6092 97.6999 34.6092C96.3999 34.6092 95.2949 33.6212 95.2949 31.9442C95.2949 30.2672 96.3999 29.3182 97.6999 29.3182C98.9999 29.3182 100.118 30.3062 100.118 31.9572ZM103.573 33.5822C103.573 35.0122 104.288 35.5322 105.549 35.5322H106.615V34.5312H105.744C105.016 34.5312 104.756 34.2842 104.756 33.5822V29.3832H106.615V28.4082H104.756V26.6142H103.573V28.4082H102.65V29.3832H103.573V33.5822ZM116.636 33.5952C116.584 31.0472 112.45 31.9702 112.45 30.2802C112.45 29.7082 112.97 29.2922 113.841 29.2922C114.79 29.2922 115.336 29.8122 115.388 30.5272H116.571C116.493 29.1362 115.453 28.2912 113.88 28.2912C112.294 28.2912 111.267 29.1882 111.267 30.2802C111.267 32.9322 115.479 32.0092 115.479 33.5952C115.479 34.1802 114.959 34.6482 114.023 34.6482C113.022 34.6482 112.411 34.1282 112.346 33.4392H111.124C111.202 34.7392 112.372 35.6492 114.036 35.6492C115.609 35.6492 116.636 34.7652 116.636 33.5952ZM118.306 35.5322H119.489V31.5932C119.489 30.0592 120.321 29.3052 121.53 29.3052C122.726 29.3052 123.519 30.0462 123.519 31.5022V35.5322H124.689V31.3332C124.689 29.2922 123.428 28.2782 121.842 28.2782C120.841 28.2782 119.957 28.6812 119.489 29.4352V25.9122H118.306V35.5322ZM129.651 29.2922C130.873 29.2922 131.913 30.0592 131.9 31.4502H127.402C127.532 30.0592 128.494 29.2922 129.651 29.2922ZM132.979 33.3352H131.705C131.445 34.1022 130.769 34.6482 129.703 34.6482C128.494 34.6482 127.48 33.8552 127.389 32.4122H133.083C133.109 32.1652 133.122 31.9572 133.122 31.6972C133.122 29.7472 131.77 28.2912 129.703 28.2912C127.623 28.2912 126.18 29.7082 126.18 31.9572C126.18 34.2192 127.675 35.6492 129.703 35.6492C131.471 35.6492 132.615 34.6352 132.979 33.3352ZM139.54 35.5322H140.762L142.478 29.8772L144.194 35.5322H145.416L147.639 28.4082H146.469L144.857 34.4012L143.128 28.4082H141.919L140.151 34.3882L138.513 28.4082H137.304L139.54 35.5322ZM148.813 35.5322H149.996V28.4082H148.813V35.5322ZM149.424 27.2512C149.853 27.2512 150.204 26.9002 150.204 26.4452C150.204 25.9902 149.853 25.6392 149.424 25.6392C148.969 25.6392 148.618 25.9902 148.618 26.4452C148.618 26.9002 148.969 27.2512 149.424 27.2512ZM157.134 33.5952C157.082 31.0472 152.948 31.9702 152.948 30.2802C152.948 29.7082 153.468 29.2922 154.339 29.2922C155.288 29.2922 155.834 29.8122 155.886 30.5272H157.069C156.991 29.1362 155.951 28.2912 154.378 28.2912C152.792 28.2912 151.765 29.1882 151.765 30.2802C151.765 32.9322 155.977 32.0092 155.977 33.5952C155.977 34.1802 155.457 34.6482 154.521 34.6482C153.52 34.6482 152.909 34.1282 152.844 33.4392H151.622C151.7 34.7392 152.87 35.6492 154.534 35.6492C156.107 35.6492 157.134 34.7652 157.134 33.5952ZM158.804 35.5322H159.987V31.5932C159.987 30.0592 160.819 29.3052 162.028 29.3052C163.224 29.3052 164.017 30.0462 164.017 31.5022V35.5322H165.187V31.3332C165.187 29.2922 163.926 28.2782 162.34 28.2782C161.339 28.2782 160.455 28.6812 159.987 29.4352V25.9122H158.804V35.5322ZM170.149 29.2922C171.371 29.2922 172.411 30.0592 172.398 31.4502H167.9C168.03 30.0592 168.992 29.2922 170.149 29.2922ZM173.477 33.3352H172.203C171.943 34.1022 171.267 34.6482 170.201 34.6482C168.992 34.6482 167.978 33.8552 167.887 32.4122H173.581C173.607 32.1652 173.62 31.9572 173.62 31.6972C173.62 29.7472 172.268 28.2912 170.201 28.2912C168.121 28.2912 166.678 29.7082 166.678 31.9572C166.678 34.2192 168.173 35.6492 170.201 35.6492C171.969 35.6492 173.113 34.6352 173.477 33.3352ZM180.303 33.5952C180.251 31.0472 176.117 31.9702 176.117 30.2802C176.117 29.7082 176.637 29.2922 177.508 29.2922C178.457 29.2922 179.003 29.8122 179.055 30.5272H180.238C180.16 29.1362 179.12 28.2912 177.547 28.2912C175.961 28.2912 174.934 29.1882 174.934 30.2802C174.934 32.9322 179.146 32.0092 179.146 33.5952C179.146 34.1802 178.626 34.6482 177.69 34.6482C176.689 34.6482 176.078 34.1282 176.013 33.4392H174.791C174.869 34.7392 176.039 35.6492 177.703 35.6492C179.276 35.6492 180.303 34.7652 180.303 33.5952ZM65.5877 55.5322H66.7707V49.3832H68.2657V48.4082H66.7707V47.9012C66.7707 46.9782 67.1217 46.5882 68.1877 46.5882V45.6002C66.3677 45.6002 65.5877 46.3152 65.5877 47.9012V48.4082H64.6647V49.3832H65.5877V55.5322ZM76.405 51.9572C76.405 49.7082 74.832 48.2912 72.804 48.2912C70.789 48.2912 69.203 49.7082 69.203 51.9572C69.203 54.2192 70.737 55.6492 72.752 55.6492C74.78 55.6492 76.405 54.2192 76.405 51.9572ZM70.412 51.9572C70.412 50.1632 71.543 49.3182 72.791 49.3182C74.013 49.3182 75.196 50.1632 75.196 51.9572C75.196 53.7642 73.987 54.6092 72.752 54.6092C71.517 54.6092 70.412 53.7642 70.412 51.9572ZM79.1435 51.6582C79.1435 50.0072 80.0015 49.5002 81.1325 49.5002H81.4445V48.2782C80.3135 48.2782 79.5465 48.7722 79.1435 49.5652V48.4082H77.9605V55.5322H79.1435V51.6582ZM93.0359 51.9572C93.0359 49.7082 91.4629 48.2912 89.4349 48.2912C87.4199 48.2912 85.8339 49.7082 85.8339 51.9572C85.8339 54.2192 87.3679 55.6492 89.3829 55.6492C91.4109 55.6492 93.0359 54.2192 93.0359 51.9572ZM87.0429 51.9572C87.0429 50.1632 88.1739 49.3182 89.4219 49.3182C90.6439 49.3182 91.8269 50.1632 91.8269 51.9572C91.8269 53.7642 90.6179 54.6092 89.3829 54.6092C88.1479 54.6092 87.0429 53.7642 87.0429 51.9572ZM99.8043 55.5322H100.974V51.3332C100.974 49.2922 99.7133 48.2782 98.0623 48.2782C97.1003 48.2782 96.2423 48.6812 95.7743 49.4222V48.4082H94.5913V55.5322H95.7743V51.5932C95.7743 50.0592 96.6063 49.3052 97.8153 49.3052C99.0113 49.3052 99.8043 50.0462 99.8043 51.5022V55.5322ZM102.907 55.5322H104.09V45.9122H102.907V55.5322ZM106.106 55.5322H107.289V48.4082H106.106V55.5322ZM106.717 47.2512C107.146 47.2512 107.497 46.9002 107.497 46.4452C107.497 45.9902 107.146 45.6392 106.717 45.6392C106.262 45.6392 105.911 45.9902 105.911 46.4452C105.911 46.9002 106.262 47.2512 106.717 47.2512ZM114.518 55.5322H115.688V51.3332C115.688 49.2922 114.427 48.2782 112.776 48.2782C111.814 48.2782 110.956 48.6812 110.488 49.4222V48.4082H109.305V55.5322H110.488V51.5932C110.488 50.0592 111.32 49.3052 112.529 49.3052C113.725 49.3052 114.518 50.0462 114.518 51.5022V55.5322ZM120.65 49.2922C121.872 49.2922 122.912 50.0592 122.899 51.4502H118.401C118.531 50.0592 119.493 49.2922 120.65 49.2922ZM123.978 53.3352H122.704C122.444 54.1022 121.768 54.6482 120.702 54.6482C119.493 54.6482 118.479 53.8552 118.388 52.4122H124.082C124.108 52.1652 124.121 51.9572 124.121 51.6972C124.121 49.7472 122.769 48.2912 120.702 48.2912C118.622 48.2912 117.179 49.7082 117.179 51.9572C117.179 54.2192 118.674 55.6492 120.702 55.6492C122.47 55.6492 123.614 54.6352 123.978 53.3352Z" fill="#494B52"/>
</svg>
