<svg width="262" height="191" viewBox="0 0 262 191" fill="none" xmlns="http://www.w3.org/2000/svg">
<path d="M61.6666 80.2212C61.5234 81.7381 60.9635 82.923 59.9869 83.7759C59.0103 84.6222 57.7115 85.0454 56.0904 85.0454C54.9576 85.0454 53.9582 84.7785 53.0924 84.2446C52.233 83.7043 51.5689 82.9393 51.1002 81.9497C50.6314 80.9601 50.3873 79.811 50.3678 78.5024V77.1743C50.3678 75.8332 50.6054 74.6515 51.0806 73.6294C51.5559 72.6073 52.2362 71.8195 53.1217 71.2661C54.0136 70.7127 55.0422 70.436 56.2076 70.436C57.7766 70.436 59.0396 70.8625 59.9967 71.7153C60.9537 72.5682 61.5103 73.7726 61.6666 75.3286H59.2056C59.0885 74.3065 58.789 73.5708 58.3072 73.1216C57.8319 72.6659 57.1321 72.438 56.2076 72.438C55.1334 72.438 54.3066 72.8319 53.7271 73.6196C53.1542 74.4009 52.8612 75.55 52.8482 77.0669V78.3267C52.8482 79.8631 53.1217 81.035 53.6685 81.8423C54.2219 82.6496 55.0292 83.0532 56.0904 83.0532C57.0605 83.0532 57.7896 82.8351 58.2779 82.3989C58.7662 81.9627 59.0754 81.2368 59.2056 80.2212H61.6666ZM69.1861 76.4517C68.8736 76.3996 68.5513 76.3735 68.2193 76.3735C67.1321 76.3735 66.3997 76.7902 66.022 77.6235V84.8501H63.649V74.2837H65.9146L65.9732 75.4653C66.5461 74.5474 67.3404 74.0884 68.356 74.0884C68.6946 74.0884 68.9745 74.134 69.1959 74.2251L69.1861 76.4517ZM75.1431 85.0454C73.6392 85.0454 72.4185 84.5734 71.481 83.6294C70.55 82.6789 70.0845 81.4159 70.0845 79.8403V79.5474C70.0845 78.4927 70.2864 77.5519 70.69 76.7251C71.1002 75.8918 71.6731 75.244 72.4088 74.7817C73.1444 74.3195 73.9648 74.0884 74.8697 74.0884C76.3085 74.0884 77.4185 74.5474 78.1998 75.4653C78.9875 76.3833 79.3814 77.6821 79.3814 79.3618V80.3188H72.4771C72.5487 81.1912 72.8385 81.8813 73.3463 82.3892C73.8606 82.897 74.5051 83.1509 75.2799 83.1509C76.3671 83.1509 77.2525 82.7114 77.9361 81.8325L79.2154 83.0532C78.7922 83.6847 78.2258 84.1763 77.5162 84.5278C76.8131 84.8729 76.022 85.0454 75.1431 85.0454ZM74.8599 75.9927C74.2089 75.9927 73.6816 76.2205 73.2779 76.6763C72.8808 77.132 72.6269 77.7668 72.5162 78.5806H77.0377V78.4048C76.9856 77.6105 76.774 77.0116 76.4029 76.6079C76.0318 76.1978 75.5175 75.9927 74.8599 75.9927ZM87.5455 84.8501C87.4413 84.6483 87.3502 84.3195 87.272 83.8638C86.5168 84.6515 85.5924 85.0454 84.4986 85.0454C83.4374 85.0454 82.5715 84.7427 81.901 84.1372C81.2304 83.5317 80.8951 82.783 80.8951 81.8911C80.8951 80.7648 81.3118 79.9022 82.1451 79.3032C82.9849 78.6978 84.1829 78.395 85.7388 78.395H87.1939V77.7017C87.1939 77.1548 87.0409 76.7186 86.7349 76.3931C86.4289 76.061 85.9635 75.895 85.3385 75.895C84.7981 75.895 84.3554 76.0317 84.0103 76.3052C83.6653 76.5721 83.4928 76.9139 83.4928 77.3306H81.1197C81.1197 76.7511 81.3118 76.2108 81.6959 75.7095C82.08 75.2017 82.6008 74.8045 83.2584 74.5181C83.9224 74.2316 84.6614 74.0884 85.4752 74.0884C86.7122 74.0884 87.6985 74.4009 88.4342 75.0259C89.1698 75.6444 89.5474 76.5168 89.567 77.6431V82.4087C89.567 83.3592 89.7004 84.1177 89.9674 84.6841V84.8501H87.5455ZM84.9381 83.1411C85.4068 83.1411 85.8463 83.0272 86.2564 82.7993C86.6731 82.5715 86.9856 82.2655 87.1939 81.8813V79.8892H85.9146C85.0357 79.8892 84.3749 80.0422 83.9322 80.3481C83.4895 80.6541 83.2681 81.0871 83.2681 81.647C83.2681 82.1027 83.4179 82.4673 83.7174 82.7407C84.0234 83.0076 84.4303 83.1411 84.9381 83.1411ZM95.026 71.7153V74.2837H96.8912V76.0415H95.026V81.9399C95.026 82.3436 95.1041 82.6366 95.2603 82.8188C95.4231 82.9946 95.7095 83.0825 96.1197 83.0825C96.3931 83.0825 96.6698 83.05 96.9498 82.9849V84.8208C96.4094 84.9705 95.8886 85.0454 95.3873 85.0454C93.5644 85.0454 92.6529 84.0396 92.6529 82.0278V76.0415H90.9146V74.2837H92.6529V71.7153H95.026ZM103.366 85.0454C101.862 85.0454 100.641 84.5734 99.7037 83.6294C98.7727 82.6789 98.3072 81.4159 98.3072 79.8403V79.5474C98.3072 78.4927 98.509 77.5519 98.9127 76.7251C99.3228 75.8918 99.8957 75.244 100.631 74.7817C101.367 74.3195 102.187 74.0884 103.092 74.0884C104.531 74.0884 105.641 74.5474 106.422 75.4653C107.21 76.3833 107.604 77.6821 107.604 79.3618V80.3188H100.7C100.771 81.1912 101.061 81.8813 101.569 82.3892C102.083 82.897 102.728 83.1509 103.503 83.1509C104.59 83.1509 105.475 82.7114 106.159 81.8325L107.438 83.0532C107.015 83.6847 106.448 84.1763 105.739 84.5278C105.036 84.8729 104.245 85.0454 103.366 85.0454ZM103.083 75.9927C102.432 75.9927 101.904 76.2205 101.501 76.6763C101.103 77.132 100.85 77.7668 100.739 78.5806H105.26V78.4048C105.208 77.6105 104.997 77.0116 104.626 76.6079C104.254 76.1978 103.74 75.9927 103.083 75.9927ZM120.749 84.8501C120.644 84.6483 120.553 84.3195 120.475 83.8638C119.72 84.6515 118.795 85.0454 117.702 85.0454C116.641 85.0454 115.775 84.7427 115.104 84.1372C114.434 83.5317 114.098 82.783 114.098 81.8911C114.098 80.7648 114.515 79.9022 115.348 79.3032C116.188 78.6978 117.386 78.395 118.942 78.395H120.397V77.7017C120.397 77.1548 120.244 76.7186 119.938 76.3931C119.632 76.061 119.167 75.895 118.542 75.895C118.001 75.895 117.559 76.0317 117.213 76.3052C116.868 76.5721 116.696 76.9139 116.696 77.3306H114.323C114.323 76.7511 114.515 76.2108 114.899 75.7095C115.283 75.2017 115.804 74.8045 116.462 74.5181C117.126 74.2316 117.864 74.0884 118.678 74.0884C119.915 74.0884 120.902 74.4009 121.637 75.0259C122.373 75.6444 122.751 76.5168 122.77 77.6431V82.4087C122.77 83.3592 122.904 84.1177 123.17 84.6841V84.8501H120.749ZM118.141 83.1411C118.61 83.1411 119.049 83.0272 119.46 82.7993C119.876 82.5715 120.189 82.2655 120.397 81.8813V79.8892H119.118C118.239 79.8892 117.578 80.0422 117.135 80.3481C116.693 80.6541 116.471 81.0871 116.471 81.647C116.471 82.1027 116.621 82.4673 116.92 82.7407C117.226 83.0076 117.633 83.1411 118.141 83.1411ZM127.458 74.2837L127.526 75.5044C128.307 74.5604 129.333 74.0884 130.602 74.0884C132.803 74.0884 133.922 75.3481 133.962 77.8677V84.8501H131.588V78.0044C131.588 77.3338 131.442 76.839 131.149 76.52C130.863 76.1945 130.391 76.0317 129.733 76.0317C128.776 76.0317 128.063 76.4647 127.594 77.3306V84.8501H125.221V74.2837H127.458ZM147.682 84.8501C147.578 84.6483 147.487 84.3195 147.409 83.8638C146.654 84.6515 145.729 85.0454 144.635 85.0454C143.574 85.0454 142.708 84.7427 142.038 84.1372C141.367 83.5317 141.032 82.783 141.032 81.8911C141.032 80.7648 141.448 79.9022 142.282 79.3032C143.122 78.6978 144.32 78.395 145.876 78.395H147.331V77.7017C147.331 77.1548 147.178 76.7186 146.872 76.3931C146.566 76.061 146.1 75.895 145.475 75.895C144.935 75.895 144.492 76.0317 144.147 76.3052C143.802 76.5721 143.629 76.9139 143.629 77.3306H141.256C141.256 76.7511 141.448 76.2108 141.833 75.7095C142.217 75.2017 142.738 74.8045 143.395 74.5181C144.059 74.2316 144.798 74.0884 145.612 74.0884C146.849 74.0884 147.835 74.4009 148.571 75.0259C149.307 75.6444 149.684 76.5168 149.704 77.6431V82.4087C149.704 83.3592 149.837 84.1177 150.104 84.6841V84.8501H147.682ZM145.075 83.1411C145.544 83.1411 145.983 83.0272 146.393 82.7993C146.81 82.5715 147.122 82.2655 147.331 81.8813V79.8892H146.051C145.172 79.8892 144.512 80.0422 144.069 80.3481C143.626 80.6541 143.405 81.0871 143.405 81.647C143.405 82.1027 143.555 82.4673 143.854 82.7407C144.16 83.0076 144.567 83.1411 145.075 83.1411ZM156.53 83.1509C157.122 83.1509 157.614 82.9784 158.004 82.6333C158.395 82.2882 158.603 81.8618 158.629 81.354H160.866C160.84 82.0116 160.635 82.6268 160.251 83.1997C159.866 83.7661 159.346 84.2153 158.688 84.5474C158.031 84.8794 157.321 85.0454 156.559 85.0454C155.081 85.0454 153.909 84.5669 153.044 83.6099C152.178 82.6528 151.745 81.3312 151.745 79.645V79.4009C151.745 77.7928 152.174 76.507 153.034 75.5435C153.893 74.5734 155.065 74.0884 156.549 74.0884C157.806 74.0884 158.828 74.4562 159.616 75.1919C160.41 75.9211 160.827 76.8813 160.866 78.0728H158.629C158.603 77.4673 158.395 76.9692 158.004 76.5786C157.62 76.188 157.129 75.9927 156.53 75.9927C155.762 75.9927 155.169 76.2726 154.753 76.8325C154.336 77.3859 154.124 78.229 154.118 79.3618V79.7427C154.118 80.8885 154.323 81.7446 154.733 82.311C155.15 82.8709 155.749 83.1509 156.53 83.1509ZM166.999 83.1509C167.591 83.1509 168.083 82.9784 168.473 82.6333C168.864 82.2882 169.072 81.8618 169.098 81.354H171.335C171.309 82.0116 171.103 82.6268 170.719 83.1997C170.335 83.7661 169.814 84.2153 169.157 84.5474C168.499 84.8794 167.79 85.0454 167.028 85.0454C165.55 85.0454 164.378 84.5669 163.512 83.6099C162.646 82.6528 162.213 81.3312 162.213 79.645V79.4009C162.213 77.7928 162.643 76.507 163.503 75.5435C164.362 74.5734 165.534 74.0884 167.018 74.0884C168.275 74.0884 169.297 74.4562 170.085 75.1919C170.879 75.9211 171.295 76.8813 171.335 78.0728H169.098C169.072 77.4673 168.864 76.9692 168.473 76.5786C168.089 76.188 167.598 75.9927 166.999 75.9927C166.23 75.9927 165.638 76.2726 165.221 76.8325C164.805 77.3859 164.593 78.229 164.587 79.3618V79.7427C164.587 80.8885 164.792 81.7446 165.202 82.311C165.618 82.8709 166.217 83.1509 166.999 83.1509ZM172.682 79.4692C172.682 78.4341 172.887 77.5031 173.297 76.6763C173.708 75.8429 174.284 75.2049 175.026 74.7622C175.768 74.313 176.621 74.0884 177.585 74.0884C179.01 74.0884 180.166 74.5474 181.051 75.4653C181.943 76.3833 182.425 77.6007 182.497 79.1177L182.506 79.6743C182.506 80.716 182.305 81.647 181.901 82.4673C181.504 83.2876 180.931 83.9224 180.182 84.3716C179.44 84.8208 178.581 85.0454 177.604 85.0454C176.113 85.0454 174.919 84.5506 174.02 83.561C173.128 82.5649 172.682 81.2401 172.682 79.5864V79.4692ZM175.055 79.6743C175.055 80.7616 175.28 81.6144 175.729 82.2329C176.178 82.8449 176.803 83.1509 177.604 83.1509C178.405 83.1509 179.027 82.8384 179.469 82.2134C179.919 81.5884 180.143 80.6737 180.143 79.4692C180.143 78.4015 179.912 77.5552 179.45 76.9302C178.994 76.3052 178.372 75.9927 177.585 75.9927C176.81 75.9927 176.195 76.3019 175.739 76.9204C175.283 77.5324 175.055 78.4504 175.055 79.6743ZM190.915 83.8149C190.218 84.6353 189.228 85.0454 187.946 85.0454C186.8 85.0454 185.931 84.7101 185.338 84.0396C184.753 83.369 184.46 82.3989 184.46 81.1294V74.2837H186.833V81.1001C186.833 82.4412 187.389 83.1118 188.503 83.1118C189.655 83.1118 190.433 82.6984 190.837 81.8716V74.2837H193.21V84.8501H190.973L190.915 83.8149ZM197.829 74.2837L197.897 75.5044C198.678 74.5604 199.704 74.0884 200.973 74.0884C203.174 74.0884 204.294 75.3481 204.333 77.8677V84.8501H201.96V78.0044C201.96 77.3338 201.813 76.839 201.52 76.52C201.234 76.1945 200.762 76.0317 200.104 76.0317C199.147 76.0317 198.434 76.4647 197.965 77.3306V84.8501H195.592V74.2837H197.829ZM209.733 71.7153V74.2837H211.598V76.0415H209.733V81.9399C209.733 82.3436 209.811 82.6366 209.967 82.8188C210.13 82.9946 210.417 83.0825 210.827 83.0825C211.1 83.0825 211.377 83.05 211.657 82.9849V84.8208C211.116 84.9705 210.596 85.0454 210.094 85.0454C208.271 85.0454 207.36 84.0396 207.36 82.0278V76.0415H205.622V74.2837H207.36V71.7153H209.733Z" fill="#6654A4"/>
<path d="M71.9688 125.249H69.2969V129.851H67.7891V118.476H71.5547C72.8359 118.476 73.8203 118.767 74.5078 119.351C75.2005 119.934 75.5469 120.783 75.5469 121.897C75.5469 122.606 75.3542 123.223 74.9688 123.749C74.5885 124.275 74.0573 124.668 73.375 124.929L76.0469 129.757V129.851H74.4375L71.9688 125.249ZM69.2969 124.022H71.6016C72.3464 124.022 72.9375 123.83 73.375 123.444C73.8177 123.059 74.0391 122.543 74.0391 121.897C74.0391 121.194 73.8281 120.655 73.4062 120.28C72.9896 119.905 72.3854 119.715 71.5938 119.71H69.2969V124.022ZM80.9375 130.007C79.7917 130.007 78.8594 129.632 78.1406 128.882C77.4219 128.127 77.0625 127.119 77.0625 125.858V125.593C77.0625 124.754 77.2214 124.007 77.5391 123.351C77.862 122.689 78.3099 122.174 78.8828 121.804C79.4609 121.429 80.0859 121.241 80.7578 121.241C81.8568 121.241 82.7109 121.603 83.3203 122.327C83.9297 123.051 84.2344 124.088 84.2344 125.437V126.038H78.5078C78.5286 126.871 78.7708 127.546 79.2344 128.062C79.7031 128.572 80.2969 128.827 81.0156 128.827C81.526 128.827 81.9583 128.723 82.3125 128.515C82.6667 128.306 82.9766 128.03 83.2422 127.687L84.125 128.374C83.4167 129.463 82.3542 130.007 80.9375 130.007ZM80.7578 122.429C80.1745 122.429 79.6849 122.642 79.2891 123.069C78.8932 123.491 78.6484 124.085 78.5547 124.851H82.7891V124.741C82.7474 124.007 82.5495 123.439 82.1953 123.038C81.8411 122.632 81.362 122.429 80.7578 122.429ZM85.5703 125.554C85.5703 124.236 85.875 123.189 86.4844 122.413C87.0938 121.632 87.901 121.241 88.9062 121.241C89.9375 121.241 90.7422 121.606 91.3203 122.335L91.3906 121.397H92.7109V129.647C92.7109 130.741 92.3854 131.603 91.7344 132.233C91.0885 132.864 90.2188 133.179 89.125 133.179C88.5156 133.179 87.9193 133.049 87.3359 132.788C86.7526 132.528 86.3073 132.171 86 131.718L86.75 130.851C87.3698 131.616 88.1276 131.999 89.0234 131.999C89.7266 131.999 90.2734 131.801 90.6641 131.405C91.0599 131.009 91.2578 130.452 91.2578 129.733V129.007C90.6797 129.674 89.8906 130.007 88.8906 130.007C87.901 130.007 87.099 129.608 86.4844 128.812C85.875 128.015 85.5703 126.929 85.5703 125.554ZM87.0234 125.718C87.0234 126.671 87.2188 127.421 87.6094 127.968C88 128.509 88.5469 128.78 89.25 128.78C90.1615 128.78 90.8307 128.366 91.2578 127.538V123.679C90.8151 122.871 90.151 122.468 89.2656 122.468C88.5625 122.468 88.013 122.741 87.6172 123.288C87.2214 123.835 87.0234 124.645 87.0234 125.718ZM96.4688 129.851H95.0234V121.397H96.4688V129.851ZM94.9062 119.155C94.9062 118.921 94.9766 118.723 95.1172 118.562C95.263 118.4 95.4766 118.319 95.7578 118.319C96.0391 118.319 96.2526 118.4 96.3984 118.562C96.5443 118.723 96.6172 118.921 96.6172 119.155C96.6172 119.39 96.5443 119.585 96.3984 119.741C96.2526 119.897 96.0391 119.976 95.7578 119.976C95.4766 119.976 95.263 119.897 95.1172 119.741C94.9766 119.585 94.9062 119.39 94.9062 119.155ZM103.711 127.608C103.711 127.218 103.562 126.916 103.266 126.702C102.974 126.483 102.461 126.296 101.727 126.14C100.997 125.983 100.417 125.796 99.9844 125.577C99.5573 125.358 99.2396 125.098 99.0312 124.796C98.8281 124.494 98.7266 124.134 98.7266 123.718C98.7266 123.025 99.0182 122.439 99.6016 121.96C100.19 121.481 100.94 121.241 101.852 121.241C102.81 121.241 103.586 121.489 104.18 121.983C104.779 122.478 105.078 123.111 105.078 123.882H103.625C103.625 123.486 103.456 123.145 103.117 122.858C102.784 122.572 102.362 122.429 101.852 122.429C101.326 122.429 100.914 122.543 100.617 122.772C100.32 123.002 100.172 123.301 100.172 123.671C100.172 124.02 100.31 124.283 100.586 124.46C100.862 124.637 101.359 124.806 102.078 124.968C102.802 125.129 103.388 125.322 103.836 125.546C104.284 125.77 104.615 126.041 104.828 126.358C105.047 126.671 105.156 127.054 105.156 127.507C105.156 128.262 104.854 128.869 104.25 129.327C103.646 129.78 102.862 130.007 101.898 130.007C101.221 130.007 100.622 129.887 100.102 129.647C99.5807 129.408 99.1719 129.075 98.875 128.647C98.5833 128.215 98.4375 127.749 98.4375 127.249H99.8828C99.9089 127.733 100.102 128.119 100.461 128.405C100.826 128.687 101.305 128.827 101.898 128.827C102.445 128.827 102.883 128.718 103.211 128.499C103.544 128.275 103.711 127.978 103.711 127.608ZM109 119.351V121.397H110.578V122.515H109V127.757C109 128.095 109.07 128.351 109.211 128.522C109.352 128.689 109.591 128.772 109.93 128.772C110.096 128.772 110.326 128.741 110.617 128.679V129.851C110.237 129.955 109.867 130.007 109.508 130.007C108.862 130.007 108.375 129.812 108.047 129.421C107.719 129.03 107.555 128.476 107.555 127.757V122.515H106.016V121.397H107.555V119.351H109ZM115.781 130.007C114.635 130.007 113.703 129.632 112.984 128.882C112.266 128.127 111.906 127.119 111.906 125.858V125.593C111.906 124.754 112.065 124.007 112.383 123.351C112.706 122.689 113.154 122.174 113.727 121.804C114.305 121.429 114.93 121.241 115.602 121.241C116.701 121.241 117.555 121.603 118.164 122.327C118.773 123.051 119.078 124.088 119.078 125.437V126.038H113.352C113.372 126.871 113.615 127.546 114.078 128.062C114.547 128.572 115.141 128.827 115.859 128.827C116.37 128.827 116.802 128.723 117.156 128.515C117.51 128.306 117.82 128.03 118.086 127.687L118.969 128.374C118.26 129.463 117.198 130.007 115.781 130.007ZM115.602 122.429C115.018 122.429 114.529 122.642 114.133 123.069C113.737 123.491 113.492 124.085 113.398 124.851H117.633V124.741C117.591 124.007 117.393 123.439 117.039 123.038C116.685 122.632 116.206 122.429 115.602 122.429ZM124.844 122.694C124.625 122.658 124.388 122.64 124.133 122.64C123.185 122.64 122.542 123.043 122.203 123.851V129.851H120.758V121.397H122.164L122.188 122.374C122.661 121.619 123.333 121.241 124.203 121.241C124.484 121.241 124.698 121.278 124.844 121.351V122.694ZM132.914 127.733L134.883 121.397H136.43L133.031 131.155C132.505 132.562 131.669 133.265 130.523 133.265L130.25 133.241L129.711 133.14V131.968L130.102 131.999C130.591 131.999 130.971 131.9 131.242 131.702C131.518 131.504 131.745 131.142 131.922 130.616L132.242 129.757L129.227 121.397H130.805L132.914 127.733ZM137.219 125.546C137.219 124.718 137.38 123.973 137.703 123.312C138.031 122.65 138.484 122.14 139.062 121.78C139.646 121.421 140.31 121.241 141.055 121.241C142.206 121.241 143.135 121.64 143.844 122.437C144.557 123.233 144.914 124.293 144.914 125.616V125.718C144.914 126.541 144.755 127.28 144.438 127.937C144.125 128.588 143.674 129.095 143.086 129.46C142.503 129.825 141.831 130.007 141.07 130.007C139.924 130.007 138.995 129.608 138.281 128.812C137.573 128.015 137.219 126.96 137.219 125.647V125.546ZM138.672 125.718C138.672 126.655 138.888 127.408 139.32 127.976C139.758 128.543 140.341 128.827 141.07 128.827C141.805 128.827 142.388 128.541 142.82 127.968C143.253 127.39 143.469 126.582 143.469 125.546C143.469 124.619 143.247 123.869 142.805 123.296C142.367 122.718 141.784 122.429 141.055 122.429C140.341 122.429 139.766 122.713 139.328 123.28C138.891 123.848 138.672 124.66 138.672 125.718ZM151.945 129.015C151.383 129.676 150.557 130.007 149.469 130.007C148.568 130.007 147.88 129.746 147.406 129.226C146.938 128.7 146.701 127.924 146.695 126.897V121.397H148.141V126.858C148.141 128.14 148.661 128.78 149.703 128.78C150.807 128.78 151.542 128.369 151.906 127.546V121.397H153.352V129.851H151.977L151.945 129.015ZM159.641 122.694C159.422 122.658 159.185 122.64 158.93 122.64C157.982 122.64 157.339 123.043 157 123.851V129.851H155.555V121.397H156.961L156.984 122.374C157.458 121.619 158.13 121.241 159 121.241C159.281 121.241 159.495 121.278 159.641 121.351V122.694ZM164.594 125.554C164.594 124.257 164.901 123.215 165.516 122.429C166.13 121.637 166.935 121.241 167.93 121.241C168.919 121.241 169.703 121.58 170.281 122.257V117.851H171.727V129.851H170.398L170.328 128.944C169.75 129.653 168.945 130.007 167.914 130.007C166.935 130.007 166.135 129.606 165.516 128.804C164.901 128.002 164.594 126.955 164.594 125.663V125.554ZM166.039 125.718C166.039 126.676 166.237 127.426 166.633 127.968C167.029 128.509 167.576 128.78 168.273 128.78C169.19 128.78 169.859 128.369 170.281 127.546V123.663C169.849 122.866 169.185 122.468 168.289 122.468C167.581 122.468 167.029 122.741 166.633 123.288C166.237 123.835 166.039 124.645 166.039 125.718ZM179.195 129.851C179.112 129.684 179.044 129.387 178.992 128.96C178.32 129.658 177.518 130.007 176.586 130.007C175.753 130.007 175.068 129.772 174.531 129.304C174 128.83 173.734 128.231 173.734 127.507C173.734 126.627 174.068 125.944 174.734 125.46C175.406 124.97 176.349 124.726 177.562 124.726H178.969V124.062C178.969 123.556 178.818 123.155 178.516 122.858C178.214 122.556 177.768 122.405 177.18 122.405C176.664 122.405 176.232 122.535 175.883 122.796C175.534 123.056 175.359 123.371 175.359 123.741H173.906C173.906 123.319 174.055 122.913 174.352 122.522C174.654 122.127 175.06 121.814 175.57 121.585C176.086 121.356 176.651 121.241 177.266 121.241C178.24 121.241 179.003 121.486 179.555 121.976C180.107 122.46 180.393 123.129 180.414 123.983V127.874C180.414 128.65 180.513 129.267 180.711 129.726V129.851H179.195ZM176.797 128.749C177.25 128.749 177.68 128.632 178.086 128.397C178.492 128.163 178.786 127.858 178.969 127.483V125.749H177.836C176.065 125.749 175.18 126.267 175.18 127.304C175.18 127.757 175.331 128.111 175.633 128.366C175.935 128.621 176.323 128.749 176.797 128.749ZM184.641 119.351V121.397H186.219V122.515H184.641V127.757C184.641 128.095 184.711 128.351 184.852 128.522C184.992 128.689 185.232 128.772 185.57 128.772C185.737 128.772 185.966 128.741 186.258 128.679V129.851C185.878 129.955 185.508 130.007 185.148 130.007C184.503 130.007 184.016 129.812 183.688 129.421C183.359 129.03 183.195 128.476 183.195 127.757V122.515H181.656V121.397H183.195V119.351H184.641ZM193.133 129.851C193.049 129.684 192.982 129.387 192.93 128.96C192.258 129.658 191.456 130.007 190.523 130.007C189.69 130.007 189.005 129.772 188.469 129.304C187.938 128.83 187.672 128.231 187.672 127.507C187.672 126.627 188.005 125.944 188.672 125.46C189.344 124.97 190.286 124.726 191.5 124.726H192.906V124.062C192.906 123.556 192.755 123.155 192.453 122.858C192.151 122.556 191.706 122.405 191.117 122.405C190.602 122.405 190.169 122.535 189.82 122.796C189.471 123.056 189.297 123.371 189.297 123.741H187.844C187.844 123.319 187.992 122.913 188.289 122.522C188.591 122.127 188.997 121.814 189.508 121.585C190.023 121.356 190.589 121.241 191.203 121.241C192.177 121.241 192.94 121.486 193.492 121.976C194.044 122.46 194.331 123.129 194.352 123.983V127.874C194.352 128.65 194.451 129.267 194.648 129.726V129.851H193.133ZM190.734 128.749C191.188 128.749 191.617 128.632 192.023 128.397C192.43 128.163 192.724 127.858 192.906 127.483V125.749H191.773C190.003 125.749 189.117 126.267 189.117 127.304C189.117 127.757 189.268 128.111 189.57 128.366C189.872 128.621 190.26 128.749 190.734 128.749ZM54.3125 145.351V147.397H55.8906V148.515H54.3125V153.757C54.3125 154.095 54.3828 154.351 54.5234 154.522C54.6641 154.689 54.9036 154.772 55.2422 154.772C55.4089 154.772 55.638 154.741 55.9297 154.679V155.851C55.5495 155.955 55.1797 156.007 54.8203 156.007C54.1745 156.007 53.6875 155.812 53.3594 155.421C53.0312 155.03 52.8672 154.476 52.8672 153.757V148.515H51.3281V147.397H52.8672V145.351H54.3125ZM59.0312 148.421C59.6719 147.634 60.5052 147.241 61.5312 147.241C63.3177 147.241 64.2188 148.249 64.2344 150.265V155.851H62.7891V150.257C62.7839 149.647 62.6432 149.197 62.3672 148.905C62.0964 148.614 61.6719 148.468 61.0938 148.468C60.625 148.468 60.2135 148.593 59.8594 148.843C59.5052 149.093 59.2292 149.421 59.0312 149.827V155.851H57.5859V143.851H59.0312V148.421ZM70.4844 148.694C70.2656 148.658 70.0286 148.64 69.7734 148.64C68.8255 148.64 68.1823 149.043 67.8438 149.851V155.851H66.3984V147.397H67.8047L67.8281 148.374C68.3021 147.619 68.974 147.241 69.8438 147.241C70.125 147.241 70.3385 147.278 70.4844 147.351V148.694ZM71.2812 151.546C71.2812 150.718 71.4427 149.973 71.7656 149.312C72.0938 148.65 72.5469 148.14 73.125 147.78C73.7083 147.421 74.3724 147.241 75.1172 147.241C76.2682 147.241 77.1979 147.64 77.9062 148.437C78.6198 149.233 78.9766 150.293 78.9766 151.616V151.718C78.9766 152.541 78.8177 153.28 78.5 153.937C78.1875 154.588 77.737 155.095 77.1484 155.46C76.5651 155.825 75.8932 156.007 75.1328 156.007C73.987 156.007 73.0573 155.608 72.3438 154.812C71.6354 154.015 71.2812 152.96 71.2812 151.647V151.546ZM72.7344 151.718C72.7344 152.655 72.9505 153.408 73.3828 153.976C73.8203 154.543 74.4036 154.827 75.1328 154.827C75.8672 154.827 76.4505 154.541 76.8828 153.968C77.3151 153.39 77.5312 152.582 77.5312 151.546C77.5312 150.619 77.3099 149.869 76.8672 149.296C76.4297 148.718 75.8464 148.429 75.1172 148.429C74.4036 148.429 73.8281 148.713 73.3906 149.28C72.9531 149.848 72.7344 150.66 72.7344 151.718ZM86.0078 155.015C85.4453 155.676 84.6198 156.007 83.5312 156.007C82.6302 156.007 81.9427 155.746 81.4688 155.226C81 154.7 80.763 153.924 80.7578 152.897V147.397H82.2031V152.858C82.2031 154.14 82.724 154.78 83.7656 154.78C84.8698 154.78 85.6042 154.369 85.9688 153.546V147.397H87.4141V155.851H86.0391L86.0078 155.015ZM89.2734 151.554C89.2734 150.236 89.5781 149.189 90.1875 148.413C90.7969 147.632 91.6042 147.241 92.6094 147.241C93.6406 147.241 94.4453 147.606 95.0234 148.335L95.0938 147.397H96.4141V155.647C96.4141 156.741 96.0885 157.603 95.4375 158.233C94.7917 158.864 93.9219 159.179 92.8281 159.179C92.2188 159.179 91.6224 159.049 91.0391 158.788C90.4557 158.528 90.0104 158.171 89.7031 157.718L90.4531 156.851C91.0729 157.616 91.8307 157.999 92.7266 157.999C93.4297 157.999 93.9766 157.801 94.3672 157.405C94.763 157.009 94.9609 156.452 94.9609 155.733V155.007C94.3828 155.674 93.5938 156.007 92.5938 156.007C91.6042 156.007 90.8021 155.608 90.1875 154.812C89.5781 154.015 89.2734 152.929 89.2734 151.554ZM90.7266 151.718C90.7266 152.671 90.9219 153.421 91.3125 153.968C91.7031 154.509 92.25 154.78 92.9531 154.78C93.8646 154.78 94.5339 154.366 94.9609 153.538V149.679C94.5182 148.871 93.8542 148.468 92.9688 148.468C92.2656 148.468 91.7161 148.741 91.3203 149.288C90.9245 149.835 90.7266 150.645 90.7266 151.718ZM100.047 148.421C100.688 147.634 101.521 147.241 102.547 147.241C104.333 147.241 105.234 148.249 105.25 150.265V155.851H103.805V150.257C103.799 149.647 103.659 149.197 103.383 148.905C103.112 148.614 102.688 148.468 102.109 148.468C101.641 148.468 101.229 148.593 100.875 148.843C100.521 149.093 100.245 149.421 100.047 149.827V155.851H98.6016V143.851H100.047V148.421ZM118.039 150.593H113.109V154.624H118.836V155.851H111.609V144.476H118.758V145.71H113.109V149.366H118.039V150.593ZM125.695 155.851C125.612 155.684 125.544 155.387 125.492 154.96C124.82 155.658 124.018 156.007 123.086 156.007C122.253 156.007 121.568 155.772 121.031 155.304C120.5 154.83 120.234 154.231 120.234 153.507C120.234 152.627 120.568 151.944 121.234 151.46C121.906 150.97 122.849 150.726 124.062 150.726H125.469V150.062C125.469 149.556 125.318 149.155 125.016 148.858C124.714 148.556 124.268 148.405 123.68 148.405C123.164 148.405 122.732 148.535 122.383 148.796C122.034 149.056 121.859 149.371 121.859 149.741H120.406C120.406 149.319 120.555 148.913 120.852 148.522C121.154 148.127 121.56 147.814 122.07 147.585C122.586 147.356 123.151 147.241 123.766 147.241C124.74 147.241 125.503 147.486 126.055 147.976C126.607 148.46 126.893 149.129 126.914 149.983V153.874C126.914 154.65 127.013 155.267 127.211 155.726V155.851H125.695ZM123.297 154.749C123.75 154.749 124.18 154.632 124.586 154.397C124.992 154.163 125.286 153.858 125.469 153.483V151.749H124.336C122.565 151.749 121.68 152.267 121.68 153.304C121.68 153.757 121.831 154.111 122.133 154.366C122.435 154.621 122.823 154.749 123.297 154.749ZM134.102 153.608C134.102 153.218 133.953 152.916 133.656 152.702C133.365 152.483 132.852 152.296 132.117 152.14C131.388 151.983 130.807 151.796 130.375 151.577C129.948 151.358 129.63 151.098 129.422 150.796C129.219 150.494 129.117 150.134 129.117 149.718C129.117 149.025 129.409 148.439 129.992 147.96C130.581 147.481 131.331 147.241 132.242 147.241C133.201 147.241 133.977 147.489 134.57 147.983C135.169 148.478 135.469 149.111 135.469 149.882H134.016C134.016 149.486 133.846 149.145 133.508 148.858C133.174 148.572 132.753 148.429 132.242 148.429C131.716 148.429 131.305 148.543 131.008 148.772C130.711 149.002 130.562 149.301 130.562 149.671C130.562 150.02 130.701 150.283 130.977 150.46C131.253 150.637 131.75 150.806 132.469 150.968C133.193 151.129 133.779 151.322 134.227 151.546C134.674 151.77 135.005 152.041 135.219 152.358C135.438 152.671 135.547 153.054 135.547 153.507C135.547 154.262 135.245 154.869 134.641 155.327C134.036 155.78 133.253 156.007 132.289 156.007C131.612 156.007 131.013 155.887 130.492 155.647C129.971 155.408 129.562 155.075 129.266 154.647C128.974 154.215 128.828 153.749 128.828 153.249H130.273C130.299 153.733 130.492 154.119 130.852 154.405C131.216 154.687 131.695 154.827 132.289 154.827C132.836 154.827 133.273 154.718 133.602 154.499C133.935 154.275 134.102 153.978 134.102 153.608ZM140.195 153.733L142.164 147.397H143.711L140.312 157.155C139.786 158.562 138.951 159.265 137.805 159.265L137.531 159.241L136.992 159.14V157.968L137.383 157.999C137.872 157.999 138.253 157.9 138.523 157.702C138.799 157.504 139.026 157.142 139.203 156.616L139.523 155.757L136.508 147.397H138.086L140.195 153.733ZM153.602 152.241C153.461 153.444 153.016 154.374 152.266 155.03C151.521 155.681 150.529 156.007 149.289 156.007C147.945 156.007 146.867 155.525 146.055 154.562C145.247 153.598 144.844 152.309 144.844 150.694V149.601C144.844 148.543 145.031 147.614 145.406 146.812C145.786 146.009 146.323 145.395 147.016 144.968C147.708 144.535 148.51 144.319 149.422 144.319C150.63 144.319 151.599 144.658 152.328 145.335C153.057 146.007 153.482 146.939 153.602 148.132H152.094C151.964 147.226 151.68 146.569 151.242 146.163C150.81 145.757 150.203 145.554 149.422 145.554C148.464 145.554 147.711 145.908 147.164 146.616C146.622 147.325 146.352 148.332 146.352 149.64V150.741C146.352 151.976 146.609 152.957 147.125 153.687C147.641 154.416 148.362 154.78 149.289 154.78C150.122 154.78 150.76 154.593 151.203 154.218C151.651 153.838 151.948 153.179 152.094 152.241H153.602ZM160.648 155.851C160.565 155.684 160.497 155.387 160.445 154.96C159.773 155.658 158.971 156.007 158.039 156.007C157.206 156.007 156.521 155.772 155.984 155.304C155.453 154.83 155.188 154.231 155.188 153.507C155.188 152.627 155.521 151.944 156.188 151.46C156.859 150.97 157.802 150.726 159.016 150.726H160.422V150.062C160.422 149.556 160.271 149.155 159.969 148.858C159.667 148.556 159.221 148.405 158.633 148.405C158.117 148.405 157.685 148.535 157.336 148.796C156.987 149.056 156.812 149.371 156.812 149.741H155.359C155.359 149.319 155.508 148.913 155.805 148.522C156.107 148.127 156.513 147.814 157.023 147.585C157.539 147.356 158.104 147.241 158.719 147.241C159.693 147.241 160.456 147.486 161.008 147.976C161.56 148.46 161.846 149.129 161.867 149.983V153.874C161.867 154.65 161.966 155.267 162.164 155.726V155.851H160.648ZM158.25 154.749C158.703 154.749 159.133 154.632 159.539 154.397C159.945 154.163 160.24 153.858 160.422 153.483V151.749H159.289C157.518 151.749 156.633 152.267 156.633 153.304C156.633 153.757 156.784 154.111 157.086 154.366C157.388 154.621 157.776 154.749 158.25 154.749ZM169.055 153.608C169.055 153.218 168.906 152.916 168.609 152.702C168.318 152.483 167.805 152.296 167.07 152.14C166.341 151.983 165.76 151.796 165.328 151.577C164.901 151.358 164.583 151.098 164.375 150.796C164.172 150.494 164.07 150.134 164.07 149.718C164.07 149.025 164.362 148.439 164.945 147.96C165.534 147.481 166.284 147.241 167.195 147.241C168.154 147.241 168.93 147.489 169.523 147.983C170.122 148.478 170.422 149.111 170.422 149.882H168.969C168.969 149.486 168.799 149.145 168.461 148.858C168.128 148.572 167.706 148.429 167.195 148.429C166.669 148.429 166.258 148.543 165.961 148.772C165.664 149.002 165.516 149.301 165.516 149.671C165.516 150.02 165.654 150.283 165.93 150.46C166.206 150.637 166.703 150.806 167.422 150.968C168.146 151.129 168.732 151.322 169.18 151.546C169.628 151.77 169.958 152.041 170.172 152.358C170.391 152.671 170.5 153.054 170.5 153.507C170.5 154.262 170.198 154.869 169.594 155.327C168.99 155.78 168.206 156.007 167.242 156.007C166.565 156.007 165.966 155.887 165.445 155.647C164.924 155.408 164.516 155.075 164.219 154.647C163.927 154.215 163.781 153.749 163.781 153.249H165.227C165.253 153.733 165.445 154.119 165.805 154.405C166.169 154.687 166.648 154.827 167.242 154.827C167.789 154.827 168.227 154.718 168.555 154.499C168.888 154.275 169.055 153.978 169.055 153.608ZM173.828 148.421C174.469 147.634 175.302 147.241 176.328 147.241C178.115 147.241 179.016 148.249 179.031 150.265V155.851H177.586V150.257C177.581 149.647 177.44 149.197 177.164 148.905C176.893 148.614 176.469 148.468 175.891 148.468C175.422 148.468 175.01 148.593 174.656 148.843C174.302 149.093 174.026 149.421 173.828 149.827V155.851H172.383V143.851H173.828V148.421ZM190.383 155.851C190.299 155.684 190.232 155.387 190.18 154.96C189.508 155.658 188.706 156.007 187.773 156.007C186.94 156.007 186.255 155.772 185.719 155.304C185.188 154.83 184.922 154.231 184.922 153.507C184.922 152.627 185.255 151.944 185.922 151.46C186.594 150.97 187.536 150.726 188.75 150.726H190.156V150.062C190.156 149.556 190.005 149.155 189.703 148.858C189.401 148.556 188.956 148.405 188.367 148.405C187.852 148.405 187.419 148.535 187.07 148.796C186.721 149.056 186.547 149.371 186.547 149.741H185.094C185.094 149.319 185.242 148.913 185.539 148.522C185.841 148.127 186.247 147.814 186.758 147.585C187.273 147.356 187.839 147.241 188.453 147.241C189.427 147.241 190.19 147.486 190.742 147.976C191.294 148.46 191.581 149.129 191.602 149.983V153.874C191.602 154.65 191.701 155.267 191.898 155.726V155.851H190.383ZM187.984 154.749C188.438 154.749 188.867 154.632 189.273 154.397C189.68 154.163 189.974 153.858 190.156 153.483V151.749H189.023C187.253 151.749 186.367 152.267 186.367 153.304C186.367 153.757 186.518 154.111 186.82 154.366C187.122 154.621 187.51 154.749 187.984 154.749ZM201.008 151.718C201.008 153.004 200.714 154.041 200.125 154.827C199.536 155.614 198.74 156.007 197.734 156.007C196.708 156.007 195.901 155.681 195.312 155.03V159.101H193.867V147.397H195.188L195.258 148.335C195.846 147.606 196.664 147.241 197.711 147.241C198.727 147.241 199.529 147.624 200.117 148.39C200.711 149.155 201.008 150.22 201.008 151.585V151.718ZM199.562 151.554C199.562 150.601 199.359 149.848 198.953 149.296C198.547 148.744 197.99 148.468 197.281 148.468C196.406 148.468 195.75 148.856 195.312 149.632V153.671C195.745 154.442 196.406 154.827 197.297 154.827C197.99 154.827 198.539 154.554 198.945 154.007C199.357 153.455 199.562 152.637 199.562 151.554ZM209.992 151.718C209.992 153.004 209.698 154.041 209.109 154.827C208.521 155.614 207.724 156.007 206.719 156.007C205.693 156.007 204.885 155.681 204.297 155.03V159.101H202.852V147.397H204.172L204.242 148.335C204.831 147.606 205.648 147.241 206.695 147.241C207.711 147.241 208.513 147.624 209.102 148.39C209.695 149.155 209.992 150.22 209.992 151.585V151.718ZM208.547 151.554C208.547 150.601 208.344 149.848 207.938 149.296C207.531 148.744 206.974 148.468 206.266 148.468C205.391 148.468 204.734 148.856 204.297 149.632V153.671C204.729 154.442 205.391 154.827 206.281 154.827C206.974 154.827 207.523 154.554 207.93 154.007C208.341 153.455 208.547 152.637 208.547 151.554Z" fill="#656668"/>
<path fill-rule="evenodd" clip-rule="evenodd" d="M153 37.0674C153 39.6619 151.969 42.1502 150.135 43.9848C148.3 45.8194 145.812 46.85 143.217 46.85C140.623 46.85 138.135 45.8194 136.3 43.9848C134.465 42.1502 133.435 39.6619 133.435 37.0674C133.435 34.4729 134.465 31.9847 136.3 30.1501C138.135 28.3155 140.623 27.2848 143.217 27.2848C145.812 27.2848 148.3 28.3155 150.135 30.1501C151.969 31.9847 153 34.4729 153 37.0674V37.0674Z" stroke="#6654A4" stroke-width="2.625" stroke-linejoin="round"/>
<path d="M148.109 37.0674H138.326M143.217 32.1761V41.9587V32.1761Z" stroke="#6654A4" stroke-width="2.625" stroke-linecap="round" stroke-linejoin="round"/>
<path d="M134.345 26.8592C132.828 26.3554 131.185 25.8174 129.522 25.1815V20.2902C129.522 20.2902 132.457 19.082 132.457 14.4206C133.988 14.4206 133.988 10.3706 132.457 10.3706C132.457 9.92063 134.071 7.23041 133.435 4.63802C132.505 0.920627 121.647 0.920627 120.717 4.64291C116.085 3.71356 118.761 9.89128 118.761 10.5125C117.23 10.5125 117.23 14.4255 118.761 14.4255C118.761 19.0869 121.696 20.2951 121.696 20.2951V25.1864C116.261 27.2554 109.785 28.625 108.978 31.056C108.049 33.8538 108 39.0239 108 39.0239H128.543" stroke="#6654A4" stroke-width="2.625" stroke-linejoin="round"/>
</svg>
