<svg width="49" height="49" viewBox="0 0 49 49" fill="none" xmlns="http://www.w3.org/2000/svg">
<path fill-rule="evenodd" clip-rule="evenodd" d="M47 37.0674C47 39.6619 45.9694 42.1502 44.1348 43.9848C42.3002 45.8194 39.8119 46.85 37.2174 46.85C34.6229 46.85 32.1347 45.8194 30.3001 43.9848C28.4655 42.1502 27.4348 39.6619 27.4348 37.0674C27.4348 34.4729 28.4655 31.9847 30.3001 30.1501C32.1347 28.3155 34.6229 27.2848 37.2174 27.2848C39.8119 27.2848 42.3002 28.3155 44.1348 30.1501C45.9694 31.9847 47 34.4729 47 37.0674V37.0674Z" stroke="#6654A4" stroke-width="2.625" stroke-linejoin="round"/>
<path d="M42.1088 37.0674H32.3262M37.2175 32.1761V41.9587V32.1761Z" stroke="#6654A4" stroke-width="2.625" stroke-linecap="round" stroke-linejoin="round"/>
<path d="M28.3446 26.8592C26.8283 26.3554 25.1848 25.8174 23.5217 25.1815V20.2902C23.5217 20.2902 26.4565 19.082 26.4565 14.4206C27.9875 14.4206 27.9875 10.3706 26.4565 10.3706C26.4565 9.92063 28.0707 7.23041 27.4348 4.63802C26.5054 0.920627 15.6467 0.920627 14.7174 4.64291C10.0853 3.71356 12.7609 9.89128 12.7609 10.5125C11.2299 10.5125 11.2299 14.4255 12.7609 14.4255C12.7609 19.0869 15.6957 20.2951 15.6957 20.2951V25.1864C10.2614 27.2554 3.78533 28.625 2.97826 31.056C2.04891 33.8538 2 39.0239 2 39.0239H22.5435" stroke="#6654A4" stroke-width="2.625" stroke-linejoin="round"/>
</svg>
