<svg width="263" height="191" viewBox="0 0 263 191" fill="none" xmlns="http://www.w3.org/2000/svg">
<path d="M86.7646 81.8496C85.6846 81.8496 84.8379 81.4896 84.2246 80.7696C83.6913 80.1429 83.4246 79.3229 83.4246 78.3096V75.8896L85.1446 74.9696V78.1496C85.1446 79.5363 85.7913 80.2296 87.0846 80.2296H93.7246C95.0179 80.2296 95.6646 79.5363 95.6646 78.1496V74.0896L97.3846 73.1696V78.3096C97.3846 79.4696 97.0313 80.3696 96.3246 81.0096C95.6979 81.5696 94.8913 81.8496 93.9046 81.8496H86.7646ZM90.0646 85.8296C89.4113 85.8296 89.0846 85.4963 89.0846 84.8296C89.0846 84.1763 89.4113 83.8496 90.0646 83.8496C90.7046 83.8496 91.0246 84.1763 91.0246 84.8296C91.0246 85.4963 90.7046 85.8296 90.0646 85.8296ZM104.463 81.8496C103.303 81.8496 102.41 81.4763 101.783 80.7296C101.25 80.0896 100.983 79.2763 100.983 78.2896V69.8696L102.703 68.9496V78.2296C102.703 79.5629 103.357 80.2296 104.663 80.2296H105.983V81.8496H104.463ZM104.775 81.8496V80.2296H106.575C107.868 80.2296 108.515 79.5629 108.515 78.2296V75.4296L110.235 74.5096V78.2296C110.235 79.5629 110.888 80.2296 112.195 80.2296H113.115C114.421 80.2296 115.075 79.5629 115.075 78.2296V74.7496L116.795 73.8496V78.2296C116.795 79.5629 117.441 80.2296 118.735 80.2296H119.675C120.981 80.2296 121.635 79.5629 121.635 78.2296V74.0896L123.355 73.1696V78.0496C123.355 79.5029 124.048 80.2296 125.435 80.2296H127.095V81.8496H125.295C124.095 81.8496 123.181 81.4429 122.555 80.6296C121.995 81.4296 121.121 81.8363 119.935 81.8496H118.555C117.381 81.8496 116.508 81.4563 115.935 80.6696C115.361 81.4429 114.508 81.8363 113.375 81.8496H111.995C110.848 81.8496 109.975 81.4563 109.375 80.6696C108.801 81.4563 107.928 81.8496 106.755 81.8496H104.775ZM125.888 81.8496V80.2296H128.628C131.335 80.2296 133.475 79.3363 135.048 77.5496C133.941 75.5096 132.595 74.4896 131.008 74.4896C129.928 74.4896 128.815 75.0629 127.668 76.2096V74.6096C128.788 73.4763 129.975 72.9096 131.228 72.9096C132.255 72.9096 133.248 73.2829 134.208 74.0296C135.168 74.7629 136.015 75.8163 136.748 77.1896V78.0696C134.788 80.5896 132.075 81.8496 128.608 81.8496H125.888ZM143.165 68.6696L143.625 67.8096H144.165C144.032 67.5696 143.965 67.3163 143.965 67.0496C143.965 66.6629 144.112 66.3296 144.405 66.0496C144.699 65.7563 145.039 65.6096 145.425 65.6096C145.759 65.6096 146.079 65.7163 146.385 65.9296V66.8096C146.105 66.5829 145.825 66.4696 145.545 66.4696C145.052 66.4696 144.805 66.6963 144.805 67.1496C144.805 67.3629 144.905 67.5829 145.105 67.8096H146.925L146.465 68.6696H143.165ZM147.705 81.8496C146.545 81.8496 145.652 81.4763 145.025 80.7296C144.492 80.0896 144.225 79.2763 144.225 78.2896V70.6696L145.945 69.7496V78.2296C145.945 79.5629 146.599 80.2296 147.905 80.2296H149.225V81.8496H147.705ZM159.017 68.9096C158.43 68.9096 158.137 68.6096 158.137 68.0096C158.137 67.4229 158.43 67.1296 159.017 67.1296C159.603 67.1296 159.897 67.4229 159.897 68.0096C159.897 68.6096 159.603 68.9096 159.017 68.9096ZM157.757 71.2896C157.103 71.2896 156.777 70.9563 156.777 70.2896C156.777 69.6363 157.103 69.3096 157.757 69.3096C158.397 69.3096 158.717 69.6363 158.717 70.2896C158.717 70.9563 158.397 71.2896 157.757 71.2896ZM160.297 71.2896C159.643 71.2896 159.317 70.9563 159.317 70.2896C159.317 69.6363 159.643 69.3096 160.297 69.3096C160.937 69.3096 161.257 69.6363 161.257 70.2896C161.257 70.9563 160.937 71.2896 160.297 71.2896ZM148.017 81.8496V80.2296H149.817C151.11 80.2296 151.757 79.5629 151.757 78.2296V75.4296L153.477 74.5096V78.2296C153.477 79.5629 154.13 80.2296 155.437 80.2296H156.357C157.663 80.2296 158.317 79.5629 158.317 78.2296V74.7496L160.037 73.8496V78.2296C160.037 79.5629 160.683 80.2296 161.977 80.2296H162.917C164.223 80.2296 164.877 79.5629 164.877 78.2296V74.0896L166.597 73.1696V78.0496C166.597 79.5029 167.29 80.2296 168.677 80.2296H170.337V81.8496H168.537C167.337 81.8496 166.423 81.4429 165.797 80.6296C165.237 81.4296 164.363 81.8363 163.177 81.8496H161.797C160.623 81.8496 159.75 81.4563 159.177 80.6696C158.603 81.4429 157.75 81.8363 156.617 81.8496H155.237C154.09 81.8496 153.217 81.4563 152.617 80.6696C152.043 81.4563 151.17 81.8496 149.997 81.8496H148.017ZM173.21 70.7496C172.557 70.7496 172.23 70.4163 172.23 69.7496C172.23 69.0963 172.557 68.7696 173.21 68.7696C173.85 68.7696 174.17 69.0963 174.17 69.7496C174.17 70.4163 173.85 70.7496 173.21 70.7496ZM169.13 81.8496V80.2296H170.45C171.757 80.2296 172.41 79.5629 172.41 78.2296V74.0896L174.13 73.1696V78.2896C174.13 79.4229 173.79 80.3163 173.11 80.9696C172.483 81.5563 171.663 81.8496 170.65 81.8496H169.13ZM177.721 81.8496V69.8696L179.441 68.9496V81.8496H177.721Z" fill="#6654A4"/>
<path d="M46.9722 119.522C46.5348 119.522 46.3162 119.298 46.3162 118.85C46.3162 118.423 46.5348 118.21 46.9722 118.21C47.3882 118.21 47.5962 118.423 47.5962 118.85C47.5962 119.298 47.3882 119.522 46.9722 119.522ZM52.8922 125.858H53.4522V126.85H52.7642C52.1028 126.85 51.5535 126.695 51.1162 126.386C51.0415 127.506 50.5935 128.386 49.7722 129.026C49.0468 129.602 48.1295 129.89 47.0202 129.89C45.6655 129.89 44.6148 129.41 43.8682 128.45C43.2815 127.714 42.9882 126.834 42.9882 125.81C42.9882 124.892 43.2228 124.103 43.6922 123.442L44.7322 123.234C44.2202 124.012 43.9642 124.844 43.9642 125.73C43.9642 126.668 44.2682 127.442 44.8762 128.05C45.4415 128.615 46.1562 128.898 47.0202 128.898C48.0335 128.898 48.8175 128.599 49.3722 128.002C49.8308 127.511 50.0602 126.866 50.0602 126.066V120.562L51.1322 120.002V124.034C51.1322 125.25 51.7188 125.858 52.8922 125.858ZM58.282 125.858H58.842V126.85H58.154C57.194 126.85 56.474 126.524 55.994 125.874C55.4927 126.524 54.7674 126.85 53.818 126.85H53.13V125.858H53.69C54.8634 125.858 55.45 125.25 55.45 124.034V120.562L56.522 120.002V124.034C56.522 125.25 57.1087 125.858 58.282 125.858ZM54.65 128.53C55.0767 128.53 55.29 128.748 55.29 129.186C55.29 129.623 55.0767 129.842 54.65 129.842C54.2234 129.842 54.01 129.623 54.01 129.186C54.01 128.748 54.2234 128.53 54.65 128.53ZM56.474 128.53C56.9007 128.53 57.114 128.748 57.114 129.186C57.114 129.623 56.9007 129.842 56.474 129.842C56.0474 129.842 55.834 129.623 55.834 129.186C55.834 128.748 56.0474 128.53 56.474 128.53ZM66.9847 116.754C66.6007 116.754 66.4087 116.551 66.4087 116.146C66.4087 115.762 66.6007 115.57 66.9847 115.57C67.3687 115.57 67.5607 115.762 67.5607 116.146C67.5607 116.551 67.3687 116.754 66.9847 116.754ZM66.0887 118.418C65.6513 118.418 65.4327 118.199 65.4327 117.762C65.4327 117.324 65.6513 117.106 66.0887 117.106C66.5047 117.106 66.7127 117.324 66.7127 117.762C66.7127 118.199 66.5047 118.418 66.0887 118.418ZM67.9127 118.418C67.486 118.418 67.2727 118.199 67.2727 117.762C67.2727 117.324 67.486 117.106 67.9127 117.106C68.3393 117.106 68.5527 117.324 68.5527 117.762C68.5527 118.199 68.3393 118.418 67.9127 118.418ZM58.5207 126.85V125.858H59.4967C60.6807 125.858 61.2727 125.25 61.2727 124.034V121.73L62.3447 121.17V124.034C62.3447 125.25 62.9313 125.858 64.1047 125.858H64.6967C65.87 125.858 66.4567 125.25 66.4567 124.034V121.154L67.5287 120.578V124.034C67.5287 125.25 68.1207 125.858 69.3047 125.858H69.8807C71.0647 125.858 71.6567 125.25 71.6567 124.034V120.562L72.7287 120.002V123.97C72.7287 125.228 73.3367 125.858 74.5527 125.858H75.4807V126.85H74.4407C73.4273 126.85 72.686 126.492 72.2167 125.778C71.7473 126.492 71.022 126.85 70.0407 126.85H69.1607C68.1687 126.85 67.4487 126.498 67.0007 125.794C66.542 126.498 65.8273 126.85 64.8567 126.85H63.9767C62.9847 126.85 62.2593 126.498 61.8007 125.794C61.3527 126.498 60.6327 126.85 59.6407 126.85H58.5207ZM80.3133 125.858H80.8733V126.85H80.1853C79.2253 126.85 78.5053 126.524 78.0253 125.874C77.524 126.524 76.7986 126.85 75.8493 126.85H75.1613V125.858H75.7213C76.8946 125.858 77.4813 125.25 77.4813 124.034V120.562L78.5533 120.002V124.034C78.5533 125.25 79.14 125.858 80.3133 125.858ZM76.6813 128.53C77.108 128.53 77.3213 128.748 77.3213 129.186C77.3213 129.623 77.108 129.842 76.6813 129.842C76.2546 129.842 76.0413 129.623 76.0413 129.186C76.0413 128.748 76.2546 128.53 76.6813 128.53ZM78.5053 128.53C78.932 128.53 79.1453 128.748 79.1453 129.186C79.1453 129.623 78.932 129.842 78.5053 129.842C78.0786 129.842 77.8653 129.623 77.8653 129.186C77.8653 128.748 78.0786 128.53 78.5053 128.53ZM89.0479 125.858H89.4479V126.85H88.9199C87.9599 126.85 87.2399 126.524 86.7599 125.874C86.2799 126.524 85.5546 126.85 84.5839 126.85H80.5519V125.858H84.4719C85.6346 125.858 86.2159 125.234 86.2159 123.986V123.826C86.2159 122.951 85.8959 122.295 85.2559 121.858C84.7439 121.495 84.1039 121.314 83.3359 121.314C82.7599 121.314 82.1892 121.415 81.6239 121.618V120.562L85.2559 116.53H86.3599L83.0799 120.242C83.1866 120.231 83.2986 120.226 83.4159 120.226C84.4399 120.226 85.2932 120.487 85.9759 121.01C86.8506 121.682 87.2879 122.615 87.2879 123.81V124.034C87.2879 125.25 87.8746 125.858 89.0479 125.858ZM94.282 125.858H94.842V126.85H94.154C93.194 126.85 92.474 126.524 91.994 125.874C91.4927 126.524 90.7674 126.85 89.818 126.85H89.13V125.858H89.69C90.8634 125.858 91.45 125.25 91.45 124.034V120.562L92.522 120.002V124.034C92.522 125.25 93.1087 125.858 94.282 125.858ZM90.65 128.53C91.0767 128.53 91.29 128.748 91.29 129.186C91.29 129.623 91.0767 129.842 90.65 129.842C90.2234 129.842 90.01 129.623 90.01 129.186C90.01 128.748 90.2234 128.53 90.65 128.53ZM92.474 128.53C92.9007 128.53 93.114 128.748 93.114 129.186C93.114 129.623 92.9007 129.842 92.474 129.842C92.0474 129.842 91.834 129.623 91.834 129.186C91.834 128.748 92.0474 128.53 92.474 128.53ZM99.6247 125.858H100.185V126.85H99.4967C98.5153 126.85 97.7847 126.514 97.3047 125.842C96.8033 126.514 96.062 126.85 95.0807 126.85H94.5207V125.858H94.9687C96.1847 125.858 96.7927 125.228 96.7927 123.97V117.09L97.8647 116.53V124.034C97.8647 125.25 98.4513 125.858 99.6247 125.858ZM99.8644 126.85V125.858H100.424C101.598 125.858 102.184 125.25 102.184 124.034V120.562L103.256 120.002V124.066C103.256 124.962 102.995 125.66 102.472 126.162C101.992 126.62 101.352 126.85 100.552 126.85H99.8644ZM101.992 129.842C101.555 129.842 101.336 129.618 101.336 129.17C101.336 128.743 101.555 128.53 101.992 128.53C102.408 128.53 102.616 128.743 102.616 129.17C102.616 129.618 102.408 129.842 101.992 129.842ZM106.136 126.85V117.09L107.208 116.53V126.85H106.136ZM122.941 126.85C122.856 127.767 122.376 128.508 121.501 129.074C120.658 129.618 119.576 129.89 118.253 129.89C116.61 129.89 115.373 129.41 114.541 128.45C113.922 127.735 113.613 126.855 113.613 125.81C113.613 124.892 113.848 124.103 114.317 123.442L115.357 123.234C114.845 124.012 114.589 124.844 114.589 125.73C114.589 126.711 114.925 127.495 115.597 128.082C116.237 128.647 117.122 128.93 118.253 128.93C119.416 128.93 120.328 128.684 120.989 128.194C121.48 127.831 121.768 127.383 121.853 126.85H120.221L120.733 125.858H122.989V126.85H122.941ZM117.245 132.53C116.808 132.53 116.589 132.311 116.589 131.874C116.589 131.436 116.808 131.218 117.245 131.218C117.661 131.218 117.869 131.436 117.869 131.874C117.869 132.311 117.661 132.53 117.245 132.53ZM119.069 132.53C118.642 132.53 118.429 132.311 118.429 131.874C118.429 131.436 118.642 131.218 119.069 131.218C119.496 131.218 119.709 131.436 119.709 131.874C119.709 132.311 119.496 132.53 119.069 132.53ZM127.562 125.858H128.122V126.85H127.434C126.453 126.85 125.722 126.514 125.242 125.842C124.741 126.514 123.999 126.85 123.018 126.85H122.458V125.858H122.906C124.122 125.858 124.73 125.228 124.73 123.97V117.09L125.802 116.53V124.034C125.802 125.25 126.389 125.858 127.562 125.858ZM135.994 125.858V126.85H127.802V125.858H130.49C129.818 125.175 129.482 124.268 129.482 123.138C129.482 122.06 129.85 121.207 130.586 120.578C131.173 120.076 131.861 119.82 132.65 119.81C133.749 119.81 134.607 120.242 135.226 121.106V122.162C134.586 121.244 133.765 120.786 132.762 120.786H132.714C132.074 120.786 131.551 121.004 131.146 121.442C130.751 121.879 130.554 122.455 130.554 123.17C130.554 123.991 130.799 124.647 131.29 125.138C131.759 125.618 132.389 125.858 133.178 125.858H135.994ZM154.858 125.858H155.402V126.85H154.714C153.754 126.85 153.034 126.524 152.554 125.874C152.074 126.524 151.348 126.85 150.378 126.85H144.666C143.876 126.85 143.247 126.604 142.778 126.114C142.308 125.612 142.074 124.94 142.074 124.098V122.002L143.146 121.442V123.97C143.146 125.228 143.732 125.858 144.906 125.858H150.266C151.428 125.858 152.01 125.228 152.01 123.97V117.09L153.082 116.53V124.034C153.082 125.25 153.674 125.858 154.858 125.858ZM147.514 119.218C147.951 119.218 148.298 119.335 148.554 119.57C148.81 119.804 148.938 120.119 148.938 120.514C148.938 120.866 148.831 121.148 148.618 121.362C148.415 121.564 148.143 121.666 147.802 121.666H145.818L146.122 121.106H147.754C148.159 121.106 148.362 120.903 148.362 120.498C148.362 120.007 148.052 119.762 147.434 119.762C147.114 119.762 146.842 119.826 146.618 119.954V119.41L147.93 117.938H148.602L147.498 119.218H147.514ZM156.043 117.89C155.606 117.89 155.387 117.666 155.387 117.218C155.387 116.791 155.606 116.578 156.043 116.578C156.459 116.578 156.667 116.791 156.667 117.218C156.667 117.666 156.459 117.89 156.043 117.89ZM157.867 117.89C157.43 117.89 157.211 117.666 157.211 117.218C157.211 116.791 157.43 116.578 157.867 116.578C158.283 116.578 158.491 116.791 158.491 117.218C158.491 117.666 158.283 117.89 157.867 117.89ZM155.083 126.85V125.858H155.643C156.816 125.858 157.403 125.25 157.403 124.034V120.562L158.475 120.002V124.066C158.475 124.962 158.214 125.66 157.691 126.162C157.211 126.62 156.571 126.85 155.771 126.85H155.083ZM164.059 126.85C163.152 126.85 162.454 126.556 161.963 125.97C161.558 125.468 161.355 124.834 161.355 124.066V117.09L162.427 116.53V124.034C162.427 125.25 163.014 125.858 164.187 125.858H164.747V126.85H164.059ZM167.211 117.89C166.774 117.89 166.555 117.666 166.555 117.218C166.555 116.791 166.774 116.578 167.211 116.578C167.627 116.578 167.835 116.791 167.835 117.218C167.835 117.666 167.627 117.89 167.211 117.89ZM164.427 126.85V125.858H164.987C166.16 125.858 166.747 125.25 166.747 124.034V120.562L167.819 120.002V124.066C167.819 124.962 167.558 125.66 167.035 126.162C166.555 126.62 165.915 126.85 165.115 126.85H164.427ZM173.403 126.85C172.496 126.85 171.797 126.556 171.307 125.97C170.901 125.468 170.699 124.834 170.699 124.066V117.09L171.771 116.53V124.034C171.771 125.25 172.357 125.858 173.531 125.858H174.091V126.85H173.403ZM178.923 125.858H179.483V126.85H178.795C177.835 126.85 177.115 126.524 176.635 125.874C176.133 126.524 175.408 126.85 174.459 126.85H173.771V125.858H174.331C175.504 125.858 176.091 125.25 176.091 124.034V120.562L177.163 120.002V124.034C177.163 125.25 177.749 125.858 178.923 125.858ZM175.291 128.53C175.717 128.53 175.931 128.748 175.931 129.186C175.931 129.623 175.717 129.842 175.291 129.842C174.864 129.842 174.651 129.623 174.651 129.186C174.651 128.748 174.864 128.53 175.291 128.53ZM177.115 128.53C177.541 128.53 177.755 128.748 177.755 129.186C177.755 129.623 177.541 129.842 177.115 129.842C176.688 129.842 176.475 129.623 176.475 129.186C176.475 128.748 176.688 128.53 177.115 128.53ZM179.161 126.85V125.858H179.721C180.895 125.858 181.481 125.25 181.481 124.034V120.562L182.553 120.002V124.066C182.553 124.962 182.292 125.66 181.769 126.162C181.289 126.62 180.649 126.85 179.849 126.85H179.161ZM181.289 129.842C180.852 129.842 180.633 129.618 180.633 129.17C180.633 128.743 180.852 128.53 181.289 128.53C181.705 128.53 181.913 128.743 181.913 129.17C181.913 129.618 181.705 129.842 181.289 129.842ZM199.021 125.858H199.581V126.85H198.893C198.21 126.85 197.64 126.679 197.181 126.338C197.096 127.468 196.642 128.359 195.821 129.01C195.085 129.596 194.157 129.89 193.037 129.89C191.65 129.89 190.584 129.415 189.837 128.466C189.25 127.73 188.957 126.85 188.957 125.826C188.957 124.898 189.192 124.114 189.661 123.474L190.717 123.234C190.194 124.002 189.933 124.844 189.933 125.762C189.933 126.7 190.237 127.468 190.845 128.066C191.421 128.631 192.152 128.914 193.037 128.914C194.061 128.914 194.856 128.604 195.421 127.986C195.901 127.474 196.141 126.807 196.141 125.986V117.09L197.197 116.53V124.05V124.082C197.197 125.266 197.805 125.858 199.021 125.858ZM209.367 125.858H209.927V126.85H209.351C208.466 126.85 207.756 126.748 207.223 126.546C206.7 126.343 206.215 125.986 205.767 125.474C204.402 126.391 202.823 126.85 201.031 126.85H199.255V125.858H201.047C203.372 125.858 205.186 125.068 206.487 123.49C205.538 121.676 204.391 120.77 203.047 120.77C202.13 120.77 201.234 121.234 200.359 122.162V121.106C201.234 120.242 202.146 119.81 203.095 119.81H203.127C204.802 119.81 206.252 120.94 207.479 123.202V123.858C207.148 124.284 206.796 124.652 206.423 124.962C206.764 125.292 207.148 125.527 207.575 125.666C208.012 125.794 208.61 125.858 209.367 125.858ZM203.479 128.53C203.895 128.53 204.103 128.743 204.103 129.17C204.103 129.618 203.895 129.842 203.479 129.842C203.042 129.842 202.823 129.618 202.823 129.17C202.823 128.743 203.042 128.53 203.479 128.53ZM209.614 126.85V125.858H210.59C211.774 125.858 212.366 125.25 212.366 124.034V121.73L213.438 121.17V124.034C213.438 125.25 214.025 125.858 215.198 125.858H215.79C216.964 125.858 217.55 125.25 217.55 124.034V121.154L218.622 120.578V124.034C218.622 125.25 219.214 125.858 220.398 125.858H220.974C222.158 125.858 222.75 125.25 222.75 124.034V120.562L223.822 120.002V124.066C223.822 124.951 223.561 125.644 223.038 126.146C222.569 126.604 221.934 126.839 221.134 126.85H220.254C219.262 126.85 218.542 126.498 218.094 125.794C217.636 126.498 216.921 126.85 215.95 126.85H215.07C214.078 126.85 213.353 126.498 212.894 125.794C212.446 126.498 211.726 126.85 210.734 126.85H209.614ZM113.366 142.754C112.971 142.754 112.774 142.551 112.774 142.146C112.774 141.762 112.971 141.57 113.366 141.57C113.75 141.57 113.942 141.762 113.942 142.146C113.942 142.551 113.75 142.754 113.366 142.754ZM112.454 144.418C112.027 144.418 111.814 144.199 111.814 143.762C111.814 143.324 112.027 143.106 112.454 143.106C112.88 143.106 113.094 143.324 113.094 143.762C113.094 144.199 112.88 144.418 112.454 144.418ZM113.638 143.762C113.638 143.324 113.856 143.106 114.294 143.106C114.71 143.106 114.918 143.324 114.918 143.762C114.918 144.199 114.71 144.418 114.294 144.418C113.856 144.418 113.638 144.199 113.638 143.762ZM118.054 146.562L119.126 146.002V150.066C119.126 150.951 118.859 151.65 118.326 152.162C117.846 152.62 117.211 152.85 116.422 152.85H115.574C114.603 152.85 113.878 152.519 113.398 151.858C112.918 152.519 112.192 152.85 111.222 152.85H110.374C109.744 152.85 109.195 152.695 108.726 152.386C108.651 153.506 108.203 154.386 107.382 155.026C106.656 155.602 105.739 155.89 104.63 155.89C103.275 155.89 102.224 155.41 101.478 154.45C100.891 153.714 100.598 152.834 100.598 151.81C100.598 150.892 100.832 150.103 101.302 149.442L102.342 149.234C101.83 150.012 101.574 150.844 101.574 151.73C101.574 152.668 101.878 153.442 102.486 154.05C103.051 154.615 103.766 154.898 104.63 154.898C105.643 154.898 106.427 154.599 106.982 154.002C107.44 153.511 107.67 152.866 107.67 152.066V147.73L108.742 147.17V150.034C108.742 151.25 109.334 151.858 110.518 151.858H111.094C112.278 151.858 112.87 151.25 112.87 150.034V147.154L113.926 146.578V150.034C113.926 151.25 114.518 151.858 115.702 151.858H116.294C117.467 151.858 118.054 151.25 118.054 150.034V146.562ZM124.715 152.85C123.809 152.85 123.11 152.556 122.619 151.97C122.214 151.468 122.011 150.834 122.011 150.066V143.09L123.083 142.53V150.034C123.083 151.25 123.67 151.858 124.843 151.858H125.403V152.85H124.715ZM127.611 146.242C127.718 146.231 127.83 146.226 127.947 146.226C128.907 146.226 129.728 146.46 130.411 146.93C131.35 147.602 131.819 148.562 131.819 149.81V150.114C131.819 151.01 131.542 151.708 130.987 152.21C130.507 152.636 129.883 152.85 129.115 152.85H125.083V151.858H129.003C130.166 151.858 130.747 151.234 130.747 149.986V149.826C130.747 148.962 130.438 148.316 129.819 147.89C129.307 147.506 128.656 147.314 127.867 147.314C127.291 147.314 126.72 147.415 126.155 147.618V146.562L129.787 142.53H130.891L127.611 146.242ZM146.41 148.05C145.738 147.282 144.991 146.898 144.17 146.898C143.711 146.898 143.349 147.036 143.082 147.314C142.815 147.58 142.682 147.948 142.682 148.418V148.45C142.693 148.94 142.842 149.324 143.13 149.602C143.418 149.879 143.978 150.162 144.81 150.45C145.685 150.759 146.277 151.068 146.586 151.378C146.906 151.687 147.066 152.124 147.066 152.69C147.066 153.639 146.613 154.418 145.706 155.026C144.853 155.602 143.743 155.89 142.378 155.89C140.735 155.89 139.498 155.41 138.666 154.45C138.047 153.735 137.738 152.855 137.738 151.81C137.738 150.892 137.973 150.103 138.442 149.442L139.482 149.234C138.97 150.012 138.714 150.844 138.714 151.73C138.714 152.7 139.05 153.474 139.722 154.05C140.373 154.615 141.258 154.898 142.378 154.898C143.605 154.898 144.554 154.642 145.226 154.13C145.749 153.724 146.01 153.244 146.01 152.69C146.01 152.359 145.893 152.098 145.658 151.906C145.423 151.714 144.959 151.495 144.266 151.25C143.37 150.93 142.746 150.615 142.394 150.306C141.893 149.847 141.642 149.223 141.642 148.434C141.642 147.612 141.935 146.967 142.522 146.498C142.981 146.135 143.503 145.954 144.09 145.954C145.029 145.954 145.802 146.306 146.41 147.01V148.05ZM141.37 158.53C140.933 158.53 140.714 158.311 140.714 157.874C140.714 157.436 140.933 157.218 141.37 157.218C141.786 157.218 141.994 157.436 141.994 157.874C141.994 158.311 141.786 158.53 141.37 158.53ZM143.194 158.53C142.767 158.53 142.554 158.311 142.554 157.874C142.554 157.436 142.767 157.218 143.194 157.218C143.621 157.218 143.834 157.436 143.834 157.874C143.834 158.311 143.621 158.53 143.194 158.53ZM152.374 143.89C151.937 143.89 151.718 143.666 151.718 143.218C151.718 142.791 151.937 142.578 152.374 142.578C152.79 142.578 152.998 142.791 152.998 143.218C152.998 143.666 152.79 143.89 152.374 143.89ZM154.774 151.858H155.334V152.85H154.646C153.985 152.85 153.435 152.69 152.998 152.37C152.913 154.14 152.198 155.26 150.854 155.73C150.513 155.847 150.15 155.906 149.766 155.906C149.147 155.906 148.55 155.756 147.974 155.458V154.514C148.518 154.812 149.073 154.962 149.638 154.962C150.086 154.962 150.481 154.86 150.822 154.658C151.569 154.21 151.942 153.372 151.942 152.146V146.562L152.998 146.002V146.018L153.014 146.002V150.034C153.014 151.25 153.601 151.858 154.774 151.858ZM155.021 152.85V151.858H155.581C156.754 151.858 157.341 151.25 157.341 150.034V146.562L158.413 146.002V150.066C158.413 150.962 158.151 151.66 157.629 152.162C157.149 152.62 156.509 152.85 155.709 152.85H155.021ZM155.549 155.842C155.111 155.842 154.893 155.618 154.893 155.17C154.893 154.743 155.111 154.53 155.549 154.53C155.965 154.53 156.173 154.743 156.173 155.17C156.173 155.618 155.965 155.842 155.549 155.842ZM157.373 155.842C156.935 155.842 156.717 155.618 156.717 155.17C156.717 154.743 156.935 154.53 157.373 154.53C157.789 154.53 157.997 154.743 157.997 155.17C157.997 155.618 157.789 155.842 157.373 155.842ZM161.293 152.85V143.09L162.365 142.53V152.85H161.293Z" fill="#656668"/>
<path fill-rule="evenodd" clip-rule="evenodd" d="M153.641 37.0678C153.641 39.6623 152.611 42.1505 150.776 43.9851C148.942 45.8197 146.453 46.8504 143.859 46.8504C141.264 46.8504 138.776 45.8197 136.941 43.9851C135.107 42.1505 134.076 39.6623 134.076 37.0678C134.076 34.4733 135.107 31.985 136.941 30.1504C138.776 28.3158 141.264 27.2852 143.859 27.2852C146.453 27.2852 148.942 28.3158 150.776 30.1504C152.611 31.985 153.641 34.4733 153.641 37.0678V37.0678Z" stroke="#6654A4" stroke-width="2.625" stroke-linejoin="round"/>
<path d="M148.75 37.0671H138.968M143.859 32.1758V41.9584V32.1758Z" stroke="#6654A4" stroke-width="2.625" stroke-linecap="round" stroke-linejoin="round"/>
<path d="M134.986 26.8592C133.47 26.3554 131.826 25.8174 130.163 25.1815V20.2902C130.163 20.2902 133.098 19.082 133.098 14.4206C134.629 14.4206 134.629 10.3706 133.098 10.3706C133.098 9.92063 134.712 7.23041 134.076 4.63802C133.147 0.920627 122.288 0.920627 121.359 4.64291C116.727 3.71356 119.402 9.89128 119.402 10.5125C117.871 10.5125 117.871 14.4255 119.402 14.4255C119.402 19.0869 122.337 20.2951 122.337 20.2951V25.1864C116.903 27.2554 110.427 28.625 109.62 31.056C108.691 33.8538 108.642 39.0239 108.642 39.0239H129.185" stroke="#6654A4" stroke-width="2.625" stroke-linejoin="round"/>
</svg>
