<svg width="153" height="97" viewBox="0 0 153 97" fill="none" xmlns="http://www.w3.org/2000/svg">
<g clip-path="url(#clip0)">
<path d="M24.8878 71.9059C26.7856 71.3548 28.7451 71.3979 30.6915 71.3203C30.6632 71.6307 30.7234 71.9863 30.5899 72.2428C30.0175 73.3385 29.3566 74.3774 28.8807 75.5356C28.5521 76.3417 27.7483 76.6952 26.832 76.5364C25.8613 76.3683 25.1634 75.902 24.8841 74.8746C24.6135 73.8687 24.8334 72.8923 24.8878 71.9059Z" fill="#995925"/>
<path d="M22.554 60.7493C22.0142 59.5817 21.9736 58.0909 21.7864 56.8566C21.2656 53.3993 20.8571 49.9255 20.3957 46.4596C20.0947 44.1986 21.1415 42.8205 23.1351 42.8787C24.6586 42.9233 25.5915 44.047 25.281 45.5213C24.3444 49.9664 24.2654 54.4303 24.9255 58.9164C24.9981 59.4115 25.0445 60.0387 25.0982 60.5366C24.031 60.6537 23.2446 60.7227 22.554 60.7493Z" fill="#995925"/>
<path d="M25.0321 71.9949C17.2842 71.9824 9.53624 71.9714 1.78831 71.9618C0.0377659 71.9604 0.0377658 71.9776 0.0377658 70.2325C0.0377658 47.3372 0.026642 24.4419 0.00439453 1.54667C0.00439453 0.279293 0.367126 0.00842916 1.60549 0.0199247C9.77202 0.0960826 17.948 -0.153227 26.1036 0.159308C35.1995 0.507048 43.7382 2.86363 50.9144 8.79533C57.9347 14.5963 61.232 22.2659 62.1119 31.0866C62.8077 38.0651 61.9669 44.8475 59.0004 51.2706C57.6801 54.1344 56.1356 56.8897 53.8047 59.1098C52.9602 55.6705 52.0636 52.2513 50.8085 48.9248C49.8415 46.3548 49.0921 44.3539 47.0985 42.2825C47.6063 41.9671 47.6789 40.7191 47.7318 40.2363C48.0626 37.3732 48.1279 34.5159 47.7819 31.6391C46.3701 19.923 38.5598 13.1349 27.4602 11.5959C23.2838 11.0176 19.0891 11.2065 14.8996 11.1117C13.6968 11.0844 13.3667 11.4285 13.3703 12.6442C13.4158 28.1698 13.4257 43.6953 13.4001 59.2205C13.4001 59.5402 13.4088 59.8599 13.4001 60.1789C13.3935 60.5791 13.5909 60.7537 13.9884 60.7472C17.6672 60.7235 21.3511 61.0044 25.0212 60.5374C25.8773 60.531 26.7435 60.7357 27.5828 60.4095L31.9465 59.4037C33.8247 58.9891 35.6855 58.5365 37.1176 57.1268C38.1611 56.5549 39.1442 55.881 40.0521 55.1151C43.1621 52.5171 45.1564 49.1877 46.5813 45.4754C47.0767 45.8066 47.2247 46.3541 47.3843 46.8606C48.1555 49.3034 49.0057 51.7254 49.6093 54.2077C50.2231 56.7346 51.2554 59.1759 51.3374 61.8235C45.8086 66.7041 39.3237 69.5952 32.0814 70.9243C32.0829 70.9215 30.3621 71.2836 25.0321 71.9949Z" fill="#0F5FAA"/>
<path d="M122.524 32.0583C122.652 30.6932 122.81 29.6571 123.234 28.6872C123.584 27.8897 124.211 27.4723 125.102 27.6188C126.916 27.9177 127.647 29.4696 128.421 30.7801C129.105 31.9354 128.356 33.09 127.517 33.9723C126.647 34.8898 125.493 35.402 124.282 34.7676C123.774 34.5087 123.345 34.1219 123.036 33.6463C122.728 33.1707 122.551 32.623 122.524 32.0583Z" fill="#B42B80"/>
<path d="M27.387 71.9953C29.3675 71.751 33.3568 71.1123 33.3568 71.1123C33.3286 71.4227 33.2226 72.0758 33.0884 72.3337C32.5168 73.4294 31.8551 74.469 31.3792 75.6271C31.0506 76.4325 30.2468 76.786 29.3305 76.6272C28.3599 76.4591 27.662 75.9928 27.3827 74.9654C27.1113 73.9603 27.3312 72.9839 27.387 71.9953Z" fill="#F08F39"/>
<path d="M25.0203 60.5366C24.4805 59.3691 24.4639 58.088 24.2781 56.8566C23.7594 53.3993 23.3488 49.9255 22.8889 46.4596C22.5878 44.1986 23.6354 42.8205 25.6282 42.8787C27.1517 42.9233 28.0854 44.047 27.7749 45.5213C26.8376 49.9664 26.7592 54.4303 27.4187 58.9164C27.4912 59.4115 27.5289 59.9115 27.5833 60.4094C26.7425 60.7356 25.8763 60.5308 25.0203 60.5366Z" fill="#F08F39"/>
<path d="M152.547 72.2653C151.902 73.0053 151.271 73.8193 150.14 73.4666C148.921 73.0865 148.197 72.2746 147.928 70.9469C147.153 67.139 147.319 63.3311 147.728 59.5074C147.825 58.5992 147.904 57.6882 147.946 56.7772C147.962 56.4496 148.145 55.9869 147.643 55.8482C147.248 55.7426 146.941 55.9919 146.718 56.3095C145.539 57.9814 144.444 59.7186 143.169 61.3151C140.981 64.0539 138.749 66.7647 136.404 69.3713C135.046 70.8801 133.004 71.2709 131.125 71.8378C130.57 72.0059 130.123 71.7006 129.69 71.263C128.137 69.6867 127.559 67.7748 127.736 65.6647C128.036 62.0845 128.09 58.4706 129.352 55.0169C131.147 50.1084 133.609 45.651 137.858 42.3977C139.557 41.098 141.583 40.4579 143.728 40.427C145.407 40.404 147.413 42.2835 147.638 44.0035C147.743 44.8219 148.024 44.8966 148.693 44.5682C151.031 43.4187 152.439 45.4728 152.37 47.3652C152.239 51.0704 150.961 54.5988 150.396 58.2436C149.797 62.114 150.063 65.8709 152.239 69.2836C152.239 69.2836 153.723 70.9167 152.547 72.2653ZM130.322 67.0765C130.343 67.2252 130.35 67.7375 130.498 68.2074C130.694 68.831 131.248 69.132 131.804 68.8022C132.607 68.3259 133.48 68.0119 134.202 67.3229C140.25 61.5263 143.982 54.3186 147.194 46.7696C147.556 45.9075 147.242 45.7781 146.505 45.993C145.622 46.2502 144.708 46.3306 144.001 45.7278C142.819 44.722 141.771 45.0956 140.591 45.707C136.896 47.6217 134.94 50.9985 133.069 54.4185C130.976 58.245 130.649 62.4941 130.322 67.0765Z" fill="#F08F39"/>
<path d="M71.4946 60.6348C71.5672 60.9682 71.6296 61.2606 72.0373 61.188C72.712 61.0681 72.4051 60.2583 72.3877 59.8007C72.2375 55.903 72.178 52.0211 73.9721 48.4014C77.339 41.6069 83.7092 40.7375 89.2496 44.8809C92.7028 47.4624 93.9172 51.095 93.1794 55.3131C92.9458 56.6466 92.121 57.4606 90.6831 57.6683C87.9017 58.0699 85.5193 59.3337 83.3451 61.0702C82.246 61.9475 81.345 63.1409 79.6996 63.2127C78.0311 63.2845 76.932 62.5876 76.8232 61.1636C76.7274 59.9027 77.7264 58.7927 79.2302 58.769C81.9776 58.7302 84.0147 57.2048 86.1163 55.7787C86.3739 55.6034 86.5603 55.3289 86.7932 55.1155C87.4686 54.4969 88.6068 54.295 88.699 53.1505C88.8339 51.4492 88.3907 49.8606 87.3134 48.5523C84.8939 45.6109 78.6557 45.2473 76.7267 49.9576C74.5641 55.2413 74.2122 60.5285 76.5185 65.7712C78.6288 70.5691 82.7458 72.2683 87.9082 71.5003C90.53 71.1101 93.0445 70.2695 95.5111 69.273C96.2837 68.9612 96.2365 68.6264 96.0631 68.0516C95.3696 65.7424 95.2963 63.3988 95.6279 61.0221C95.7585 60.0773 96.2989 59.333 96.7618 58.5728C98.0306 56.4893 99.631 54.627 101.759 53.4092C105.024 51.5411 108.382 51.9614 111.603 53.6247C112.407 54.04 113.311 54.0658 114.1 54.5853C114.688 54.9726 114.898 54.216 114.95 53.7167C115.167 51.5383 115.458 49.3606 115.544 47.1786C115.72 42.6185 115.519 38.0763 114.772 33.5542C114.409 31.3528 114.33 29.1033 114.171 26.8725C114.069 25.4456 115.171 23.931 116.219 23.9454C117.778 23.9662 118.817 25.1539 118.697 26.9041C118.058 36.1723 118.385 45.4464 118.304 54.7182C118.288 56.5683 117.923 58.4478 118.975 60.1944C119.404 60.9078 118.954 61.5925 118.544 62.2226C116.496 65.3731 113.526 67.4481 110.279 69.2026C108.223 70.3133 105.926 70.8378 103.813 71.8149C103.459 71.9788 102.988 71.9989 102.589 71.9479C100.298 71.6605 98.27 72.4817 96.1959 73.2605C92.9973 74.4604 89.6486 75.0998 86.2331 75.0883C80.5847 75.0689 76.7746 72.2144 74.5351 67.1909C74.2129 66.4674 73.8821 65.9616 73.029 66.2619C71.0427 66.9595 69.8217 66.1268 68.3062 64.1532C66.7102 62.0754 66.5564 59.4831 65.8694 57.0899C65.6648 56.3779 65.4494 55.7061 64.7195 55.5775C64.0318 55.4561 63.6872 56.1315 63.2918 56.6143C61.616 58.6612 60.8681 61.1895 59.6471 63.4721C58.799 65.057 57.8211 66.5177 56.2715 67.5235C55.3103 68.1457 54.4782 68.0265 53.7535 67.1075C52.8931 66.0147 52.1973 64.8566 51.9072 63.4778L49.6111 54.2095C49.0075 51.7272 48.1601 49.3031 47.3861 46.8625C47.2265 46.3595 46.8057 45.9198 46.5837 45.478C46.4916 45.2718 46.4219 45.0512 46.3037 44.8608C45.4426 43.4749 44.9978 43.4296 43.9909 44.6747C43.338 45.478 42.7003 46.2963 42.1308 47.157C40.0625 50.2824 38.3113 53.5694 37.1179 57.128C35.6858 58.5376 33.825 58.9902 31.9468 59.4048C32.0839 58.9737 32.1579 58.5103 32.3668 58.1166C34.0912 54.8727 35.7322 51.5886 37.6569 48.4467C38.9874 46.274 40.2461 44.0784 41.964 42.163C43.3786 40.5823 45.5456 40.2856 47.2069 41.5767C49.2005 43.6473 49.8418 46.3581 50.8088 48.9281C52.0602 52.2546 52.9605 55.6738 53.805 59.1131C53.921 60.4947 54.4477 61.7714 54.883 63.0647C54.9904 63.3837 55.0129 63.8694 55.4634 63.9017C55.9139 63.934 56.0118 63.4706 56.1729 63.1617C57.4141 60.7699 58.231 58.1834 59.5971 55.8484C60.3624 54.5422 61.1778 53.2899 62.3807 52.3228C64.3394 50.748 67.4473 51.0346 68.8373 53.5148C69.8834 55.3828 70.1525 57.4807 71.0224 59.3818C71.3227 59.9796 71.3227 60.1585 71.4946 60.6348ZM107.253 56.7695C105.646 56.9412 104.502 56.9081 103.462 57.2185C102.441 57.5238 101.213 57.3996 100.438 58.3594C98.595 60.6348 97.6084 63.1689 97.9116 66.1426C98.1031 68.0243 101.004 69.4095 102.473 69.0488C106.208 68.1313 109.142 66.0155 111.839 63.3801C113.034 62.2126 113.482 60.951 113.604 59.412C113.664 58.6648 113.459 58.3774 112.691 58.5929C111.597 58.899 110.67 58.6044 109.724 57.9736C108.849 57.3931 107.998 56.5446 107.252 56.7695H107.253Z" fill="#F08F39"/>
<path d="M121.14 54.7269C121.148 50.3134 121.131 46.5457 120.7 42.7321C120.591 41.7772 120.442 40.7448 121.837 40.1068C122.666 39.7274 123.591 39.1548 124.398 39.5248C125.623 40.0874 126.64 40.933 126.401 42.2981C125.874 45.3157 125.391 48.3405 124.911 51.3638C124.076 56.6172 124.331 61.8319 125.816 67.0013C126.146 68.1508 126.482 69.3004 126.759 70.4643C127.11 71.9501 125.913 73.4539 124.327 73.5889C122.708 73.7262 121.305 72.5019 121.062 71.0089C120.162 65.384 121.437 59.7548 121.14 54.7269Z" fill="#F08F39"/>
<path d="M153 77.6416H0V97.0001H153V77.6416Z" fill="#132B50"/>
<path d="M12.8323 81.6631L17.6087 92.9783H16.5053L14.894 89.2559H10.4789L8.88285 92.9783H7.7417L12.5805 81.6631H12.8323ZM12.7024 84.0671L10.9475 88.1624H14.4493L12.7024 84.0671Z" fill="white"/>
<path d="M24.043 92.9783V81.6631H26.1664C27.6991 81.6631 28.8114 81.7989 29.5035 82.0705C30.4969 82.4536 31.2732 83.1206 31.8323 84.0714C32.3913 85.0222 32.6711 86.1528 32.6716 87.4633C32.6716 88.5956 32.4499 89.5931 32.0064 90.4557C31.5629 91.3184 30.9876 91.9542 30.2805 92.3633C29.5724 92.7738 28.581 92.9788 27.3061 92.9783H24.043ZM25.0245 91.9099H26.2085C27.6246 91.9099 28.6064 91.8124 29.1539 91.6175C29.9182 91.3461 30.5616 90.8167 30.9711 90.1224C31.4122 89.4039 31.633 88.5238 31.6335 87.482C31.6335 86.3913 31.3941 85.459 30.9153 84.685C30.4652 83.9332 29.7555 83.3681 28.9174 83.0943C28.2765 82.8783 27.2205 82.7707 25.7493 82.7717H25.0238L25.0245 91.9099Z" fill="white"/>
<path d="M38.7231 81.6631H39.8375L43.2326 90.4054L46.6844 81.6631H47.7987L43.34 92.9783H43.1173L38.7231 81.6631Z" fill="white"/>
<path d="M54.374 81.6631H60.2437V82.7717H55.3976V86.3166H60.2017V87.4245H55.3947V91.8704H60.1988V92.9783H54.374V81.6631Z" fill="white"/>
<path d="M66.9131 81.6631H68.956C70.0925 81.6631 70.8632 81.7146 71.268 81.8176C71.8645 81.9637 72.3895 82.3142 72.7502 82.8069C73.1313 83.3127 73.3218 83.9354 73.3218 84.6749C73.3337 85.2412 73.1981 85.8009 72.9279 86.3001C72.673 86.7598 72.2804 87.1298 71.8042 87.3591C71.3157 87.5986 70.6424 87.7203 69.7845 87.7241L73.4684 92.9783H72.1988L68.5156 87.7241H67.9353V92.9783H66.9131V81.6631ZM67.9403 82.7717V86.6169L69.7047 86.632C70.3881 86.632 70.8935 86.5602 71.2209 86.4165C71.5458 86.2763 71.8155 86.0346 71.9884 85.7282C72.1736 85.4062 72.2688 85.0411 72.2641 84.6706C72.2686 84.3069 72.172 83.9489 71.9848 83.636C71.8182 83.3428 71.5619 83.1096 71.2528 82.97C70.9503 82.8363 70.4483 82.771 69.7467 82.771L67.9403 82.7717Z" fill="white"/>
<path d="M79.3452 82.7717V81.6631H84.9574V82.7717H82.6722V92.9783H81.629V82.7717H79.3452Z" fill="white"/>
<path d="M91.1343 81.6631H92.1579V92.9783H91.1343V81.6631Z" fill="white"/>
<path d="M98.2944 90.8729L99.165 90.2981C99.7778 91.5434 100.486 92.1661 101.288 92.1661C101.629 92.1673 101.964 92.0756 102.256 91.901C102.55 91.7333 102.789 91.4863 102.946 91.189C103.102 90.8978 103.183 90.5731 103.182 90.2435C103.177 89.8464 103.056 89.4593 102.834 89.1284C102.514 88.6255 101.929 88.0205 101.08 87.3136C100.231 86.6066 99.6989 86.0907 99.4842 85.766C99.1303 85.2572 98.9413 84.6537 98.9423 84.0359C98.9359 83.5681 99.0458 83.106 99.2622 82.6902C99.4666 82.2939 99.7787 81.962 100.163 81.7318C100.543 81.5005 100.981 81.3793 101.428 81.3819C101.908 81.381 102.379 81.5188 102.781 81.7785C103.202 82.0424 103.647 82.5281 104.116 83.2355L103.279 83.9353C102.892 83.372 102.564 83.0001 102.294 82.8195C102.032 82.6436 101.723 82.5499 101.407 82.5508C101.217 82.5442 101.029 82.5779 100.853 82.6495C100.678 82.7211 100.521 82.8291 100.391 82.9661C100.128 83.2423 99.9862 83.6104 99.9964 83.9899C99.9965 84.2346 100.044 84.477 100.136 84.7041C100.26 84.9828 100.431 85.2381 100.643 85.4585C100.777 85.6022 101.218 85.9789 101.965 86.5886C102.853 87.3138 103.461 87.9576 103.791 88.5199C104.119 89.0846 104.285 89.6515 104.285 90.2198C104.295 91.0146 103.992 91.7818 103.439 92.3587C102.875 92.9641 102.189 93.2666 101.382 93.2661C100.772 93.2702 100.178 93.0772 99.6888 92.7165C99.1867 92.3496 98.722 91.735 98.2944 90.8729Z" fill="white"/>
<path d="M111.157 81.6631H112.182V92.9783H111.157V81.6631Z" fill="white"/>
<path d="M119.382 92.9783V81.6631H119.605L126.425 90.3372V81.6631H127.428V92.9783H127.199L120.44 84.4069V92.9783H119.382Z" fill="white"/>
<path d="M144.654 83.5629L143.86 84.3935C143.333 83.8066 142.696 83.3272 141.983 82.9824C141.303 82.6619 140.64 82.502 139.996 82.5024C139.185 82.5041 138.39 82.7303 137.702 83.1555C136.985 83.5815 136.401 84.1948 136.013 84.928C135.618 85.6553 135.412 86.4683 135.413 87.2939C135.413 88.1416 135.626 88.9759 136.034 89.7209C136.428 90.4672 137.02 91.0924 137.747 91.5286C138.468 91.9649 139.297 92.1926 140.141 92.186C141.194 92.186 142.085 91.8581 142.814 91.2024C143.543 90.5467 143.976 89.6946 144.114 88.6461H140.849V87.554H145.264C145.255 89.3023 144.786 90.6913 143.855 91.7211C142.924 92.751 141.679 93.2649 140.118 93.263C138.225 93.263 136.725 92.55 135.62 91.1241C134.77 90.0272 134.345 88.7579 134.345 87.3162C134.338 86.2747 134.589 85.2475 135.076 84.3245C135.532 83.435 136.226 82.6861 137.081 82.159C137.932 81.6384 138.893 81.378 139.964 81.378C140.81 81.3729 141.647 81.5502 142.416 81.8975C143.18 82.2438 143.925 82.7989 144.654 83.5629Z" fill="white"/>
</g>
<defs>
<clipPath id="clip0">
<rect width="153" height="97" fill="white"/>
</clipPath>
</defs>
</svg>
