<svg width="123" height="271" viewBox="0 0 123 271" fill="none" xmlns="http://www.w3.org/2000/svg">
<circle cx="2.64842" cy="2.01707" r="2.01707" fill="#6654A4"/>
<circle cx="32.2309" cy="2.01707" r="2.01707" fill="#6654A4"/>
<circle cx="61.8149" cy="2.01707" r="2.01707" fill="#6654A4"/>
<circle cx="91.3989" cy="2.01707" r="2.01707" fill="#6654A4"/>
<circle cx="120.983" cy="2.01707" r="2.01707" fill="#6654A4"/>
<circle cx="2.64793" cy="31.6008" r="2.01707" fill="#6654A4"/>
<circle cx="32.2309" cy="31.6008" r="2.01707" fill="#6654A4"/>
<circle cx="61.8149" cy="31.6008" r="2.01707" fill="#6654A4"/>
<circle cx="91.3989" cy="31.6008" r="2.01707" fill="#6654A4"/>
<circle cx="120.983" cy="31.6008" r="2.01707" fill="#6654A4"/>
<circle cx="2.64793" cy="61.1846" r="2.01707" fill="#6654A4"/>
<circle cx="32.2309" cy="61.1846" r="2.01707" fill="#6654A4"/>
<circle cx="61.8149" cy="61.1846" r="2.01707" fill="#6654A4"/>
<circle cx="91.3989" cy="61.1846" r="2.01707" fill="#6654A4"/>
<circle cx="120.983" cy="61.1846" r="2.01707" fill="#6654A4"/>
<circle cx="2.64793" cy="90.7682" r="2.01707" fill="#6654A4"/>
<circle cx="32.2309" cy="90.7682" r="2.01707" fill="#6654A4"/>
<circle cx="61.8149" cy="90.7682" r="2.01707" fill="#6654A4"/>
<circle cx="91.3989" cy="90.7682" r="2.01707" fill="#6654A4"/>
<circle cx="120.983" cy="90.7682" r="2.01707" fill="#6654A4"/>
<circle cx="2.64793" cy="120.352" r="2.01707" fill="#6654A4"/>
<circle cx="32.2309" cy="120.352" r="2.01707" fill="#6654A4"/>
<circle cx="61.8149" cy="120.352" r="2.01707" fill="#6654A4"/>
<circle cx="91.3989" cy="120.352" r="2.01707" fill="#6654A4"/>
<circle cx="120.983" cy="120.352" r="2.01707" fill="#6654A4"/>
<circle cx="2.64793" cy="149.936" r="2.01707" fill="#6654A4"/>
<circle cx="32.2309" cy="149.936" r="2.01707" fill="#6654A4"/>
<circle cx="61.8149" cy="149.936" r="2.01707" fill="#6654A4"/>
<circle cx="91.3989" cy="149.936" r="2.01707" fill="#6654A4"/>
<circle cx="120.983" cy="149.936" r="2.01707" fill="#6654A4"/>
<circle cx="2.64793" cy="179.519" r="2.01707" fill="#6654A4"/>
<circle cx="32.2309" cy="179.519" r="2.01707" fill="#6654A4"/>
<circle cx="61.8149" cy="179.519" r="2.01707" fill="#6654A4"/>
<circle cx="91.3989" cy="179.519" r="2.01707" fill="#6654A4"/>
<circle cx="120.983" cy="179.519" r="2.01707" fill="#6654A4"/>
<circle cx="2.64793" cy="209.103" r="2.01707" fill="#6654A4"/>
<circle cx="32.2309" cy="209.103" r="2.01707" fill="#6654A4"/>
<circle cx="61.8149" cy="209.103" r="2.01707" fill="#6654A4"/>
<circle cx="91.3989" cy="209.103" r="2.01707" fill="#6654A4"/>
<circle cx="120.983" cy="209.103" r="2.01707" fill="#6654A4"/>
<circle cx="2.64793" cy="238.687" r="2.01707" fill="#6654A4"/>
<circle cx="32.2309" cy="238.687" r="2.01707" fill="#6654A4"/>
<circle cx="61.8149" cy="238.687" r="2.01707" fill="#6654A4"/>
<circle cx="91.3989" cy="238.687" r="2.01707" fill="#6654A4"/>
<circle cx="120.983" cy="238.687" r="2.01707" fill="#6654A4"/>
<circle cx="2.64793" cy="268.27" r="2.01707" fill="#6654A4"/>
<circle cx="32.2309" cy="268.27" r="2.01707" fill="#6654A4"/>
<circle cx="61.8149" cy="268.27" r="2.01707" fill="#6654A4"/>
<circle cx="91.3989" cy="268.27" r="2.01707" fill="#6654A4"/>
<circle cx="120.983" cy="268.27" r="2.01707" fill="#6654A4"/>
</svg>
