<svg width="126" height="103" viewBox="0 0 126 103" fill="none" xmlns="http://www.w3.org/2000/svg">
<path d="M12.3934 95.1834C12.3934 95.5089 12.3791 95.7799 12.353 95.9961C12.3269 96.2148 12.2864 96.3906 12.2318 96.5237C12.1771 96.6592 12.1105 96.7566 12.0297 96.8184C11.9489 96.8802 11.861 96.9111 11.7635 96.9111H1.25978C0.90324 96.9111 0.606122 96.8018 0.363673 96.5831C0.121224 96.3645 0 96.0104 0 95.5184V76.5967C0 76.1048 0.121224 75.7507 0.363673 75.5321C0.606122 75.3134 0.905617 75.2041 1.25978 75.2041H11.6993C11.7968 75.2041 11.8824 75.2326 11.9584 75.2873C12.0345 75.3443 12.0987 75.4417 12.1533 75.5796C12.208 75.7198 12.2484 75.898 12.2746 76.1167C12.3007 76.3353 12.315 76.611 12.315 76.9461C12.315 77.2598 12.3007 77.5236 12.2746 77.7422C12.2484 77.9608 12.208 78.1367 12.1533 78.2698C12.0987 78.4029 12.0345 78.5027 11.9584 78.5645C11.8824 78.6263 11.7968 78.6572 11.6993 78.6572H4.23334V83.9568H10.5513C10.6487 83.9568 10.7367 83.9877 10.8175 84.0494C10.8983 84.1112 10.9649 84.2063 11.0195 84.3346C11.0742 84.463 11.1146 84.6364 11.1408 84.8551C11.1669 85.0737 11.1812 85.3399 11.1812 85.6512C11.1812 85.9768 11.1669 86.243 11.1408 86.4568C11.1146 86.6683 11.0742 86.8395 11.0195 86.9678C10.9649 87.0961 10.8983 87.1888 10.8175 87.2435C10.7367 87.3005 10.6487 87.3266 10.5513 87.3266H4.23334V93.4485H11.7635C11.861 93.4485 11.9489 93.4794 12.0297 93.5412C12.1105 93.603 12.1771 93.7004 12.2318 93.8335C12.2864 93.969 12.3269 94.1448 12.353 94.3611C12.3791 94.5869 12.3934 94.8578 12.3934 95.1834Z" fill="white"/>
<path d="M28.181 96.3906C28.181 96.5474 28.1263 96.671 28.0194 96.7589C27.9124 96.8492 27.7412 96.9134 27.5107 96.9514C27.2801 96.9894 26.9378 97.0108 26.4838 97.0108C25.9989 97.0108 25.6472 96.9918 25.4261 96.9514C25.205 96.911 25.0482 96.8469 24.9578 96.7589C24.8651 96.6686 24.82 96.5474 24.82 96.3906V95.1999C24.2281 95.8606 23.5507 96.3739 22.7924 96.7423C22.0342 97.1106 21.1904 97.296 20.2634 97.296C19.498 97.296 18.7944 97.1915 18.155 96.9847C17.5132 96.7779 16.9594 96.4714 16.4912 96.0626C16.0229 95.6539 15.6592 95.1477 15.4001 94.544C15.1411 93.9404 15.0127 93.2346 15.0127 92.4313C15.0127 91.5591 15.1767 90.801 15.5047 90.1594C15.8327 89.5154 16.3224 88.9854 16.9761 88.5648C17.6273 88.1465 18.4379 87.8352 19.4077 87.6332C20.3775 87.4312 21.5018 87.3313 22.7853 87.3313H24.1925V86.4259C24.1925 85.9554 24.1473 85.5442 24.0546 85.1925C23.9619 84.8408 23.8122 84.5461 23.603 84.3108C23.3938 84.0755 23.1133 83.902 22.7615 83.7904C22.4121 83.6787 21.9772 83.6216 21.4614 83.6216C20.7815 83.6216 20.1754 83.7 19.643 83.8569C19.1106 84.0137 18.6375 84.1872 18.2287 84.3773C17.8199 84.5675 17.4776 84.741 17.2019 84.8978C16.9261 85.0547 16.7027 85.1331 16.5316 85.1331C16.4127 85.1331 16.3081 85.0951 16.2154 85.0166C16.1227 84.9382 16.049 84.8265 15.9896 84.6815C15.9302 84.5366 15.885 84.3583 15.8518 84.1445C15.8185 83.9329 15.8042 83.6977 15.8042 83.441C15.8042 83.094 15.8304 82.8207 15.885 82.6187C15.9397 82.4167 16.0419 82.2361 16.1917 82.0745C16.3414 81.9129 16.6052 81.7323 16.9832 81.5374C17.3611 81.3426 17.8009 81.1596 18.3071 80.9932C18.8134 80.8245 19.3649 80.689 19.9639 80.5821C20.5629 80.4751 21.1785 80.4229 21.8131 80.4229C22.9446 80.4229 23.912 80.5369 24.713 80.7674C25.5164 80.9956 26.1748 81.3497 26.693 81.825C27.2088 82.3003 27.5867 82.9134 27.8244 83.662C28.0621 84.4106 28.181 85.2994 28.181 86.3285V96.3906ZM24.1901 89.9835H22.6379C21.9795 89.9835 21.4209 90.0334 20.9574 90.1356C20.4939 90.2354 20.116 90.3875 19.826 90.5895C19.536 90.7915 19.3221 91.0339 19.1866 91.3191C19.0511 91.6043 18.9846 91.9323 18.9846 92.3006C18.9846 92.928 19.1747 93.4199 19.5574 93.7764C19.9401 94.1353 20.4702 94.3135 21.15 94.3135C21.7204 94.3135 22.2457 94.1638 22.7259 93.8596C23.206 93.5554 23.6933 93.1158 24.1877 92.5335V89.9835H24.1901Z" fill="white"/>
<path d="M42.3861 92.113C42.3861 92.9638 42.2316 93.7124 41.925 94.3612C41.6184 95.0099 41.1834 95.5518 40.6248 95.9891C40.0639 96.424 39.4031 96.7519 38.6377 96.9706C37.8723 97.1892 37.0427 97.2985 36.149 97.2985C35.6094 97.2985 35.096 97.2557 34.6064 97.1726C34.1167 97.0894 33.677 96.9824 33.2895 96.8541C32.9021 96.7258 32.5788 96.5951 32.3198 96.4596C32.0607 96.3265 31.8729 96.2006 31.754 96.0817C31.6352 95.9653 31.5449 95.7799 31.4783 95.528C31.4141 95.2761 31.3809 94.9054 31.3809 94.4134C31.3809 94.0902 31.3904 93.8288 31.4141 93.634C31.4379 93.4391 31.4688 93.2822 31.5116 93.1634C31.5544 93.047 31.609 92.9685 31.6732 92.9281C31.7374 92.8901 31.8182 92.8687 31.9157 92.8687C32.0345 92.8687 32.208 92.9376 32.441 93.0779C32.6715 93.2181 32.9615 93.3725 33.3062 93.5389C33.6508 93.7076 34.0525 93.8645 34.5089 94.0094C34.9677 94.1544 35.4858 94.2281 36.0682 94.2281C36.4343 94.2281 36.7599 94.1877 37.0451 94.1116C37.3304 94.0332 37.5776 93.9215 37.7891 93.7765C38.0007 93.6316 38.1575 93.4462 38.2669 93.2228C38.3738 92.9994 38.4285 92.7428 38.4285 92.4505C38.4285 92.1154 38.3287 91.8278 38.129 91.5878C37.9294 91.3478 37.6655 91.1386 37.3375 90.958C37.0095 90.7798 36.6363 90.611 36.2227 90.4542C35.8067 90.2973 35.3813 90.1239 34.9463 89.9337C34.5089 89.7436 34.0834 89.525 33.6699 89.2802C33.2539 89.033 32.8831 88.7336 32.5551 88.3748C32.2271 88.0183 31.9632 87.5858 31.7635 87.0843C31.5639 86.5805 31.4641 85.9769 31.4641 85.2734C31.4641 84.5581 31.5995 83.8998 31.8681 83.3033C32.1367 82.7068 32.5242 82.1935 33.0305 81.7681C33.5368 81.3427 34.1548 81.0124 34.8797 80.7795C35.6071 80.5442 36.4224 80.4277 37.328 80.4277C37.7796 80.4277 38.2193 80.461 38.6448 80.5276C39.0703 80.5941 39.4554 80.6773 39.8 80.7795C40.1447 80.8793 40.4347 80.9886 40.6723 81.1074C40.91 81.2239 41.0788 81.3261 41.181 81.4092C41.2832 81.4924 41.3569 81.578 41.3997 81.6611C41.4425 81.7443 41.4758 81.8465 41.4972 81.963C41.5185 82.0794 41.5376 82.2267 41.5542 82.3979C41.5708 82.5713 41.578 82.7876 41.578 83.0443C41.578 83.3461 41.5708 83.5932 41.5542 83.7834C41.5376 83.9735 41.5114 84.1256 41.4734 84.2349C41.4353 84.3466 41.3854 84.4226 41.3189 84.4607C41.2547 84.5011 41.1786 84.5201 41.0931 84.5201C40.9956 84.5201 40.8459 84.4607 40.6414 84.3442C40.437 84.2278 40.1803 84.1018 39.8737 83.9663C39.5671 83.8309 39.2105 83.7073 38.8064 83.5885C38.4024 83.472 37.9412 83.4126 37.4254 83.4126C37.0594 83.4126 36.7409 83.453 36.4723 83.5291C36.2037 83.6075 35.9826 83.7192 35.8091 83.8642C35.6356 84.0091 35.5072 84.1802 35.4217 84.3751C35.3361 84.57 35.2933 84.7815 35.2933 85.0049C35.2933 85.3518 35.3955 85.6418 35.5999 85.8771C35.8044 86.1123 36.073 86.3191 36.4081 86.4973C36.7409 86.6756 37.1212 86.8443 37.5467 87.0011C37.9721 87.158 38.4024 87.3291 38.8397 87.5121C39.2747 87.6975 39.7073 87.9113 40.1328 88.1585C40.5583 88.4056 40.9386 88.7075 41.2713 89.0639C41.6041 89.4228 41.8751 89.8506 42.0795 90.3473C42.2839 90.8416 42.3861 91.4309 42.3861 92.113Z" fill="white"/>
<path d="M53.3315 96.9109L51.5868 102.211C51.4894 102.491 51.2255 102.691 50.7953 102.814C50.3651 102.938 49.7352 103 48.9056 103C48.4754 103 48.1307 102.981 47.8716 102.94C47.6126 102.9 47.42 102.836 47.2893 102.748C47.1609 102.657 47.0896 102.546 47.0801 102.413C47.0682 102.277 47.1015 102.115 47.1776 101.925L49.1005 96.9109C48.9603 96.8444 48.8343 96.7398 48.7202 96.5996C48.6061 96.4594 48.5229 96.3121 48.4706 96.1552L43.51 82.4C43.3697 82.0079 43.3008 81.7108 43.3008 81.5017C43.3008 81.2949 43.365 81.1333 43.4957 81.0145C43.6264 80.8957 43.8427 80.8173 44.1494 80.7721C44.456 80.727 44.8624 80.7056 45.3687 80.7056C45.8322 80.7056 46.1983 80.7151 46.4669 80.7317C46.7355 80.7483 46.947 80.7911 47.0968 80.8577C47.2465 80.9242 47.3606 81.0288 47.4367 81.1666C47.5127 81.3068 47.5864 81.5041 47.6625 81.7631L51.0568 91.7777H51.1043L54.2062 81.5635C54.2704 81.2735 54.3536 81.0811 54.4558 80.986C54.558 80.8909 54.7268 80.822 54.9645 80.7769C55.2022 80.7317 55.6157 80.7103 56.2076 80.7103C56.6711 80.7103 57.0562 80.7317 57.3628 80.7769C57.6694 80.822 57.8952 80.9052 58.0426 81.0288C58.1876 81.1523 58.2613 81.3163 58.2613 81.5231C58.2613 81.7298 58.2185 81.9722 58.1329 82.2527L53.3315 96.9109Z" fill="white"/>
<path d="M78.9693 93.6223C78.9693 93.9027 78.9622 94.1404 78.9455 94.3352C78.9289 94.5301 78.9051 94.6988 78.8718 94.8391C78.8386 94.9793 78.7958 95.0981 78.7435 95.2003C78.6888 95.3001 78.6032 95.4165 78.4844 95.5449C78.3655 95.6732 78.1374 95.8396 77.7974 96.0392C77.4575 96.2412 77.044 96.4337 76.5543 96.6191C76.0647 96.8044 75.5037 96.9565 74.8738 97.0801C74.2439 97.2037 73.5617 97.2655 72.8296 97.2655C71.3963 97.2655 70.1033 97.0349 68.9505 96.5787C67.7976 96.12 66.8183 95.4356 66.0102 94.523C65.202 93.6128 64.5816 92.4744 64.1514 91.1103C63.7212 89.7462 63.5049 88.1587 63.5049 86.3478C63.5049 84.5036 63.7426 82.8639 64.2156 81.4332C64.6886 80.0026 65.3518 78.8 66.2027 77.828C67.0537 76.8561 68.0734 76.117 69.2642 75.6132C70.4551 75.1093 71.7671 74.8574 73.1981 74.8574C73.7804 74.8574 74.339 74.9073 74.8786 75.0071C75.4181 75.107 75.9149 75.24 76.3737 75.4016C76.8324 75.5632 77.2436 75.751 77.6097 75.9625C77.9757 76.174 78.2324 76.357 78.3774 76.5067C78.5224 76.6564 78.6223 76.7824 78.6769 76.8846C78.7316 76.9868 78.7744 77.1127 78.8053 77.2696C78.8386 77.4264 78.8623 77.6118 78.879 77.8233C78.8956 78.0348 78.9027 78.2986 78.9027 78.6123C78.9027 78.9474 78.8908 79.2326 78.8695 79.4678C78.8481 79.7031 78.81 79.8932 78.7554 80.0382C78.7007 80.1832 78.6365 80.2901 78.5605 80.3567C78.4844 80.4232 78.3988 80.4565 78.3014 80.4565C78.1397 80.4565 77.9353 80.359 77.6881 80.1618C77.4409 79.9669 77.12 79.7483 76.7278 79.5082C76.3333 79.2682 75.865 79.0496 75.3207 78.8547C74.7764 78.6598 74.1274 78.5624 73.374 78.5624C72.5444 78.5624 71.8028 78.7382 71.1515 79.09C70.5002 79.4417 69.944 79.9455 69.4876 80.5991C69.0289 81.2526 68.6819 82.044 68.4465 82.9732C68.2089 83.9024 68.09 84.9481 68.09 86.1102C68.09 87.384 68.216 88.489 68.4703 89.423C68.7223 90.357 69.0836 91.1246 69.5518 91.7306C70.0201 92.3366 70.5858 92.7858 71.249 93.0804C71.9121 93.3775 72.6561 93.5249 73.4881 93.5249C74.2415 93.5249 74.8952 93.4322 75.4443 93.2468C75.9933 93.0614 76.464 92.8594 76.8586 92.6337C77.2508 92.4103 77.574 92.2083 77.8283 92.03C78.0803 91.8518 78.2776 91.7615 78.4178 91.7615C78.5248 91.7615 78.6127 91.7852 78.6769 91.828C78.7411 91.8732 78.7958 91.9611 78.8386 92.0966C78.8813 92.2297 78.9146 92.4174 78.936 92.6574C78.9598 92.8998 78.9693 93.2207 78.9693 93.6223Z" fill="#F05665"/>
<path d="M94.0628 96.3906C94.0628 96.5474 94.0082 96.671 93.9012 96.7589C93.7942 96.8492 93.6231 96.9134 93.3925 96.9514C93.162 96.9894 92.8197 97.0108 92.3657 97.0108C91.8808 97.0108 91.529 96.9918 91.308 96.9514C91.0869 96.911 90.93 96.8469 90.8397 96.7589C90.747 96.6686 90.7018 96.5474 90.7018 96.3906V95.1999C90.11 95.8606 89.4325 96.3739 88.6743 96.7423C87.916 97.1106 87.0722 97.296 86.1452 97.296C85.3798 97.296 84.6763 97.1915 84.0369 96.9847C83.3951 96.7779 82.8413 96.4714 82.373 96.0626C81.9047 95.6539 81.5411 95.1477 81.282 94.544C81.0229 93.9404 80.8945 93.2346 80.8945 92.4313C80.8945 91.5591 81.0585 90.801 81.3866 90.1594C81.7146 89.5154 82.2042 88.9854 82.8579 88.5648C83.5092 88.1465 84.3197 87.8352 85.2895 87.6332C86.2593 87.4312 87.3836 87.3313 88.6672 87.3313H90.0743V86.4259C90.0743 85.9554 90.0291 85.5442 89.9364 85.1925C89.8437 84.8408 89.694 84.5461 89.4848 84.3108C89.2757 84.0755 88.9952 83.902 88.6434 83.7904C88.294 83.6787 87.859 83.6216 87.3432 83.6216C86.6634 83.6216 86.0573 83.7 85.5248 83.8569C84.9924 84.0137 84.5194 84.1872 84.1105 84.3773C83.7017 84.5675 83.3594 84.741 83.0837 84.8978C82.808 85.0547 82.5845 85.1331 82.4134 85.1331C82.2946 85.1331 82.19 85.0951 82.0973 85.0166C82.0046 84.9382 81.9309 84.8265 81.8715 84.6815C81.812 84.5366 81.7669 84.3583 81.7336 84.1445C81.7003 83.9329 81.6861 83.6977 81.6861 83.441C81.6861 83.094 81.7122 82.8207 81.7669 82.6187C81.8215 82.4167 81.9238 82.2361 82.0735 82.0745C82.2233 81.9129 82.4871 81.7323 82.865 81.5374C83.243 81.3426 83.6827 81.1596 84.189 80.9932C84.6953 80.8245 85.2467 80.689 85.8457 80.5821C86.4447 80.4751 87.0603 80.4229 87.695 80.4229C88.8264 80.4229 89.7938 80.5369 90.5949 80.7674C91.3983 80.9956 92.0567 81.3497 92.5749 81.825C93.0907 82.3003 93.4686 82.9134 93.7063 83.662C93.944 84.4106 94.0628 85.2994 94.0628 86.3285V96.3906ZM90.0719 89.9835H88.5198C87.8614 89.9835 87.3028 90.0334 86.8393 90.1356C86.3758 90.2354 85.9978 90.3875 85.7079 90.5895C85.4179 90.7915 85.2039 91.0339 85.0685 91.3191C84.933 91.6043 84.8664 91.9323 84.8664 92.3006C84.8664 92.928 85.0566 93.4199 85.4393 93.7764C85.822 94.1353 86.352 94.3135 87.0318 94.3135C87.6023 94.3135 88.1276 94.1638 88.6077 93.8596C89.0879 93.5554 89.5752 93.1158 90.0696 92.5335V89.9835H90.0719Z" fill="#F05665"/>
<path d="M108.265 92.113C108.265 92.9638 108.111 93.7124 107.804 94.3612C107.497 95.0099 107.062 95.5518 106.504 95.9891C105.943 96.424 105.282 96.7519 104.517 96.9706C103.751 97.1892 102.922 97.2985 102.028 97.2985C101.488 97.2985 100.975 97.2557 100.485 97.1726C99.9956 97.0894 99.5559 96.9824 99.1685 96.8541C98.781 96.7258 98.4577 96.5951 98.1987 96.4596C97.9396 96.3265 97.7518 96.2006 97.6329 96.0817C97.5141 95.9653 97.4238 95.7799 97.3572 95.528C97.293 95.2761 97.2598 94.9054 97.2598 94.4134C97.2598 94.0902 97.2693 93.8288 97.293 93.6339C97.3168 93.4391 97.3477 93.2822 97.3905 93.1634C97.4333 93.047 97.488 92.9685 97.5521 92.9281C97.6163 92.8901 97.6971 92.8687 97.7946 92.8687C97.9134 92.8687 98.0869 92.9376 98.3199 93.0778C98.5505 93.2181 98.8404 93.3725 99.1851 93.5389C99.5298 93.7076 99.9315 93.8645 100.388 94.0094C100.847 94.1544 101.365 94.2281 101.947 94.2281C102.313 94.2281 102.639 94.1877 102.924 94.1116C103.209 94.0332 103.456 93.9215 103.668 93.7765C103.88 93.6316 104.036 93.4462 104.146 93.2228C104.253 92.9994 104.307 92.7428 104.307 92.4504C104.307 92.1154 104.208 91.8278 104.008 91.5878C103.808 91.3478 103.544 91.1386 103.216 90.958C102.888 90.7798 102.515 90.611 102.102 90.4542C101.686 90.2973 101.26 90.1239 100.825 89.9337C100.388 89.7436 99.9624 89.525 99.5488 89.2802C99.1328 89.033 98.762 88.7336 98.434 88.3748C98.106 88.0183 97.8421 87.5858 97.6425 87.0843C97.4428 86.5805 97.343 85.9769 97.343 85.2734C97.343 84.5581 97.4784 83.8998 97.747 83.3033C98.0156 82.7068 98.4031 82.1935 98.9094 81.7681C99.4157 81.3427 100.034 81.0124 100.759 80.7795C101.486 80.5442 102.301 80.4277 103.207 80.4277C103.659 80.4277 104.098 80.461 104.524 80.5276C104.949 80.5941 105.334 80.6773 105.679 80.7795C106.024 80.8793 106.314 80.9886 106.551 81.1074C106.789 81.2239 106.958 81.3261 107.06 81.4092C107.162 81.4924 107.236 81.578 107.279 81.6611C107.321 81.7443 107.355 81.8465 107.376 81.963C107.397 82.0794 107.416 82.2267 107.433 82.3979C107.45 82.5713 107.457 82.7876 107.457 83.0443C107.457 83.3461 107.45 83.5932 107.433 83.7834C107.416 83.9735 107.39 84.1256 107.352 84.2349C107.314 84.3466 107.264 84.4226 107.198 84.4607C107.134 84.5011 107.058 84.5201 106.972 84.5201C106.875 84.5201 106.725 84.4607 106.52 84.3442C106.316 84.2278 106.059 84.1018 105.753 83.9663C105.446 83.8309 105.089 83.7073 104.685 83.5885C104.281 83.472 103.82 83.4126 103.304 83.4126C102.938 83.4126 102.62 83.453 102.351 83.5291C102.083 83.6075 101.862 83.7192 101.688 83.8642C101.515 84.0091 101.386 84.1802 101.301 84.3751C101.215 84.57 101.172 84.7815 101.172 85.0049C101.172 85.3518 101.274 85.6418 101.479 85.877C101.683 86.1123 101.952 86.3191 102.287 86.4973C102.62 86.6756 103 86.8443 103.426 87.0011C103.851 87.158 104.281 87.3291 104.719 87.5121C105.154 87.6974 105.586 87.9113 106.012 88.1585C106.437 88.4056 106.817 88.7075 107.15 89.0639C107.483 89.4228 107.754 89.8506 107.958 90.3473C108.163 90.8416 108.265 91.4309 108.265 92.113Z" fill="#F05665"/>
<path d="M125.087 96.3409C125.087 96.4526 125.054 96.55 124.99 96.6332C124.925 96.7164 124.816 96.7877 124.666 96.8424C124.514 96.8994 124.307 96.9398 124.044 96.9683C123.78 96.9968 123.454 97.0111 123.067 97.0111C122.667 97.0111 122.337 96.9968 122.073 96.9683C121.809 96.9398 121.602 96.8994 121.45 96.8424C121.298 96.7877 121.191 96.7164 121.127 96.6332C121.063 96.55 121.03 96.4526 121.03 96.3409V87.8021C121.03 87.0749 120.977 86.5046 120.875 86.0911C120.773 85.6776 120.626 85.3211 120.431 85.0264C120.236 84.7293 119.986 84.5012 119.679 84.3396C119.373 84.178 119.014 84.0972 118.605 84.0972C118.089 84.0972 117.566 84.292 117.039 84.6842C116.511 85.0763 115.962 85.6467 115.391 86.3953V96.3433C115.391 96.455 115.358 96.5524 115.294 96.6356C115.23 96.7188 115.118 96.7901 114.964 96.8447C114.807 96.9018 114.6 96.9422 114.341 96.9707C114.082 96.9992 113.754 97.0135 113.354 97.0135C112.955 97.0135 112.627 96.9992 112.368 96.9707C112.109 96.9422 111.902 96.9018 111.745 96.8447C111.588 96.7901 111.479 96.7188 111.415 96.6356C111.351 96.5524 111.317 96.455 111.317 96.3433V74.287C111.317 74.1753 111.351 74.0755 111.415 73.9852C111.479 73.8949 111.591 73.8212 111.745 73.7594C111.902 73.6976 112.109 73.6501 112.368 73.6168C112.627 73.5835 112.955 73.5669 113.354 73.5669C113.754 73.5669 114.082 73.5835 114.341 73.6168C114.6 73.6501 114.807 73.6976 114.964 73.7594C115.12 73.8212 115.23 73.8972 115.294 73.9852C115.358 74.0755 115.391 74.1753 115.391 74.287V82.5572C116.093 81.8419 116.806 81.3072 117.533 80.9554C118.26 80.6037 119.016 80.4279 119.803 80.4279C120.782 80.4279 121.61 80.5966 122.285 80.9317C122.957 81.2668 123.502 81.7254 123.918 82.3077C124.331 82.8899 124.631 83.5696 124.814 84.3467C124.997 85.1238 125.089 86.0673 125.089 87.1724V96.3409H125.087Z" fill="#F05665"/>
<path d="M87.5094 47.5016V47.9318C87.5094 50.7527 84.6143 53.0602 81.0774 53.0602H58.9385C64.0156 50.8144 68.3345 47.081 71.3865 42.3755H81.0774C84.6143 42.3731 87.5094 44.6807 87.5094 47.5016Z" fill="#F05665"/>
<path d="M93.6923 26.4882V26.9302C93.6923 29.7511 90.7972 32.0587 87.2603 32.0587H75.6133C76.0292 30.0601 76.2455 27.9878 76.2455 25.8537C76.2455 24.3256 76.1362 22.8284 75.9199 21.3716H87.2603C90.7996 21.3716 93.6923 23.6673 93.6923 26.4882Z" fill="#F05665"/>
<path d="M100.164 5.11661V5.55864C100.164 8.37955 97.2687 10.6752 93.7318 10.6752H72.2038C69.6367 6.22406 65.9619 2.52385 61.5859 0H93.7341C94.1786 0 94.6041 0.0404005 95.0272 0.10219C95.4432 0.173485 95.8473 0.275674 96.2323 0.399252L96.7957 0.615514C97.5159 0.933966 98.1695 1.36411 98.6925 1.86555C99.61 2.74724 100.164 3.88558 100.164 5.11661Z" fill="#F05665"/>
<path d="M42.1242 28.0996V37.3799C38.8844 37.4725 35.7421 37.8409 32.8089 38.4778C32.0578 35.2671 31.6228 31.7499 31.5254 28.0996H42.1242Z" fill="#BAB7B7"/>
<path d="M69.3611 28.0879C69.0735 33.2164 67.4049 38.0668 64.5311 42.1782C62.437 40.9875 60.0268 39.9942 57.3789 39.2242C58.1894 35.7569 58.6625 31.9949 58.7623 28.0879H69.3611Z" fill="white"/>
<path d="M69.3615 24.9604H58.7603C58.6605 21.0629 58.1875 17.2891 57.377 13.8336C60.0249 13.0636 62.4351 12.0703 64.5292 10.8701C67.4053 14.9815 69.0739 19.8438 69.3615 24.9604Z" fill="white"/>
<path d="M42.1236 40.5073V53.06C41.1656 52.782 40.2172 52.2282 39.2974 51.4297C37.826 50.1369 36.4926 48.2618 35.335 45.8521C34.6837 44.5094 34.1204 43.0526 33.626 41.4936C36.2929 40.928 39.1595 40.6 42.1236 40.5073Z" fill="#BAB7B7"/>
<path d="M62.582 8.40804C60.804 9.3729 58.7789 10.1833 56.5659 10.8273C56.0121 9.03306 55.3703 7.35049 54.6192 5.80339C54.0369 4.59375 53.4046 3.49581 52.7414 2.51193C52.5536 2.22438 52.3564 1.9487 52.1591 1.69204C52.0117 1.48766 51.8524 1.29279 51.7051 1.10742C53.7017 1.78472 55.608 2.7282 57.386 3.89744C58.206 4.42977 58.9857 5.01439 59.7463 5.65129C60.4784 6.2573 61.1796 6.91322 61.8499 7.60953C62.0995 7.8757 62.3467 8.14187 62.582 8.40804Z" fill="white"/>
<path d="M53.6333 41.4916C53.1389 43.0506 52.5756 44.5074 51.9243 45.8501C50.7691 48.2599 49.4356 50.1373 47.9619 51.4278C47.0421 52.2286 46.0937 52.7824 45.1357 53.058V40.5054C48.0998 40.6004 50.9664 40.9284 53.6333 41.4916Z" fill="#BAB7B7"/>
<path d="M35.5541 51.9408C34.1897 51.4679 32.8563 50.8951 31.5822 50.1869C29.3408 48.9559 27.2562 47.366 25.4069 45.4387C25.1597 45.182 24.9125 44.9159 24.6748 44.6497C24.9315 44.5071 25.1882 44.3716 25.464 44.2385C27.0446 43.4591 28.7941 42.7818 30.6909 42.228C31.2447 44.0223 31.896 45.7049 32.6376 47.252C33.5194 49.07 34.4964 50.6504 35.5541 51.9408Z" fill="white"/>
<path d="M42.1241 0V12.5527C39.1601 12.46 36.2958 12.1225 33.6289 11.5688C34.1233 10.0098 34.6866 8.55303 35.3379 7.21031C36.4931 4.80053 37.8266 2.9231 39.3003 1.63266C40.2178 0.819893 41.1638 0.278051 42.1241 0Z" fill="#BAB7B7"/>
<path d="M42.1237 15.6802V24.9604H31.5225C31.6223 21.3101 32.0549 17.7929 32.806 14.5728C35.7415 15.2073 38.8815 15.5875 42.1237 15.6802Z" fill="#BAB7B7"/>
<path d="M55.7365 28.0878C55.6367 31.75 55.2041 35.2672 54.453 38.4755C51.5198 37.8386 48.3775 37.4703 45.1377 37.3776V28.0854H55.7365V28.0878Z" fill="#BAB7B7"/>
<path d="M62.582 44.6498C62.3443 44.9159 62.0971 45.1821 61.8499 45.4387C60.4665 46.8742 58.9548 48.1266 57.3361 49.1817C55.5771 50.351 53.6803 51.2731 51.7051 51.9409C52.0616 51.5107 52.4063 51.0378 52.7414 50.5459C53.4022 49.562 54.0345 48.464 54.6192 47.2544C55.3703 45.7049 56.0121 44.0247 56.5659 42.2305C58.7789 42.8769 60.804 43.6873 62.582 44.6498Z" fill="white"/>
<path d="M35.5546 1.10742C34.4969 2.40975 33.52 3.97824 32.6405 5.80339C31.8989 7.35287 31.2476 9.03306 30.6938 10.8273C28.5094 10.1904 26.5056 9.39191 24.7467 8.43893C24.7277 8.42942 24.6967 8.41754 24.6777 8.40804C24.8156 8.25356 24.944 8.11097 25.0937 7.9565C25.1935 7.84481 25.3005 7.72123 25.4098 7.60715C28.3026 4.60563 31.7705 2.40024 35.5546 1.10742Z" fill="white"/>
<path d="M55.7369 24.9604H45.1357V15.6802C48.3755 15.5875 51.5178 15.2073 54.451 14.5728C55.2045 17.7929 55.6371 21.3101 55.7369 24.9604Z" fill="#BAB7B7"/>
<path d="M53.6329 11.5688C50.966 12.1225 48.0994 12.46 45.1377 12.5527V0C46.0956 0.278051 47.044 0.819893 47.9639 1.63028C49.4352 2.9231 50.7687 4.79816 51.9263 7.20793C52.5752 8.55303 53.1385 10.0098 53.6329 11.5688Z" fill="#BAB7B7"/>
</svg>
