<svg width="24" height="25" viewBox="0 0 24 25" fill="none" xmlns="http://www.w3.org/2000/svg">
<path fill-rule="evenodd" clip-rule="evenodd" d="M19 18.918H5.00003C4.44903 18.918 4.00003 18.47 4.00003 17.918V8.16797L11.4 13.718C11.578 13.852 11.789 13.918 12 13.918C12.211 13.918 12.422 13.852 12.6 13.718L20 8.16797V17.918C20 18.47 19.551 18.918 19 18.918ZM18.333 6.91797L12 11.668L5.66698 6.91797H18.333ZM19 4.91797H5C3.346 4.91797 2 6.26397 2 7.91797V17.918C2 19.572 3.346 20.918 5 20.918H19C20.654 20.918 22 19.572 22 17.918V7.91797C22 6.26397 20.654 4.91797 19 4.91797Z" fill="#494B52"/>
<mask id="mask0" mask-type="alpha" maskUnits="userSpaceOnUse" x="2" y="4" width="20" height="17">
<path fill-rule="evenodd" clip-rule="evenodd" d="M19 18.918H5.00003C4.44903 18.918 4.00003 18.47 4.00003 17.918V8.16797L11.4 13.718C11.578 13.852 11.789 13.918 12 13.918C12.211 13.918 12.422 13.852 12.6 13.718L20 8.16797V17.918C20 18.47 19.551 18.918 19 18.918ZM18.333 6.91797L12 11.668L5.66698 6.91797H18.333ZM19 4.91797H5C3.346 4.91797 2 6.26397 2 7.91797V17.918C2 19.572 3.346 20.918 5 20.918H19C20.654 20.918 22 19.572 22 17.918V7.91797C22 6.26397 20.654 4.91797 19 4.91797Z" fill="white"/>
</mask>
<g mask="url(#mask0)">
</g>
</svg>
