<svg width="262" height="190" viewBox="0 0 262 190" fill="none" xmlns="http://www.w3.org/2000/svg">
<path d="M69.7474 79.2296H71.0674V80.8496H69.5474C68.4274 80.8496 67.5608 80.5029 66.9474 79.8096C66.2941 80.5029 65.4208 80.8496 64.3274 80.8496H57.1874C56.1074 80.8496 55.2608 80.4896 54.6474 79.7696C54.1141 79.1429 53.8474 78.3229 53.8474 77.3096V74.8896L55.5674 73.9696V77.1496C55.5674 78.5363 56.2141 79.2296 57.5074 79.2296H64.1474C65.4274 79.2296 66.0674 78.5363 66.0674 77.1496V68.8696L67.8074 67.9496V77.2296C67.8074 78.5629 68.4541 79.2296 69.7474 79.2296ZM60.9274 71.1096C62.0741 71.1629 62.6474 71.7296 62.6474 72.8096C62.6474 73.2763 62.5074 73.6496 62.2274 73.9296C61.9608 74.2096 61.6008 74.3496 61.1474 74.3496H58.5074L58.9674 73.4896H61.0674C61.5474 73.4896 61.7874 73.2496 61.7874 72.7696C61.7874 72.1829 61.4141 71.8896 60.6674 71.8896C60.2808 71.8896 59.9274 71.9829 59.6074 72.1696V71.3696L61.2874 69.5096H62.3474L60.9274 71.1096ZM72.1054 69.8896C71.4521 69.8896 71.1254 69.5563 71.1254 68.8896C71.1254 68.2363 71.4521 67.9096 72.1054 67.9096C72.7454 67.9096 73.0654 68.2363 73.0654 68.8896C73.0654 69.5563 72.7454 69.8896 72.1054 69.8896ZM74.6654 69.8896C74.0121 69.8896 73.6854 69.5563 73.6854 68.8896C73.6854 68.2363 74.0121 67.9096 74.6654 67.9096C75.3054 67.9096 75.6254 68.2363 75.6254 68.8896C75.6254 69.5563 75.3054 69.8896 74.6654 69.8896ZM76.8254 79.2296H78.1454V80.8496H76.6254C75.5187 80.8496 74.6454 80.4963 74.0054 79.7896C73.3654 80.4963 72.4921 80.8496 71.3854 80.8496H69.8654V79.2296H71.1854C72.4921 79.2296 73.1454 78.5629 73.1454 77.2296V73.0896L74.8654 72.1696V77.2296C74.8654 78.5629 75.5187 79.2296 76.8254 79.2296ZM87.9757 69.7496C87.3224 69.7496 86.9957 69.4163 86.9957 68.7496C86.9957 68.0963 87.3224 67.7696 87.9757 67.7696C88.6157 67.7696 88.9357 68.0963 88.9357 68.7496C88.9357 69.4163 88.6157 69.7496 87.9757 69.7496ZM94.8157 79.2296H96.1357V80.8496H94.6157C93.5491 80.8496 92.7157 80.5363 92.1157 79.9096C91.5691 80.5363 90.7957 80.8496 89.7957 80.8496H76.9357V79.2296H80.6557L80.7157 79.0096V68.8696L82.4357 67.9496V75.2696C83.9557 73.0296 85.8424 71.9096 88.0957 71.9096C89.6024 71.9096 90.8091 72.4363 91.7157 73.4896C92.4891 74.3829 92.8757 75.4829 92.8757 76.7896V77.2696C92.8757 78.5763 93.5224 79.2296 94.8157 79.2296ZM91.1357 77.3496V76.7896C91.1357 75.7496 90.8157 74.9229 90.1757 74.3096C89.6291 73.7763 88.9424 73.5096 88.1157 73.5096C86.7424 73.5096 85.5024 74.1296 84.3957 75.3696C83.5691 76.3029 82.9157 77.4696 82.4357 78.8696V79.2296H89.6557C90.2291 79.2296 90.6157 79.0963 90.8157 78.8296C91.0291 78.5629 91.1357 78.0696 91.1357 77.3496ZM101.204 69.8696C100.55 69.8696 100.224 69.5363 100.224 68.8696C100.224 68.2163 100.55 67.8896 101.204 67.8896C101.844 67.8896 102.164 68.2163 102.164 68.8696C102.164 69.5363 101.844 69.8696 101.204 69.8696ZM103.684 79.2296H107.404V80.8496H102.524C102.004 80.8496 101.55 80.8029 101.164 80.7096C100.79 80.8029 100.337 80.8496 99.8035 80.8496H94.9435V79.2296H98.6635C97.8369 78.2829 97.4235 77.2363 97.4235 76.0896C97.4235 74.7829 97.7902 73.7429 98.5235 72.9696C99.1902 72.2629 100.07 71.9096 101.164 71.9096C102.417 71.9096 103.384 72.3629 104.064 73.2696C104.637 74.0163 104.924 74.9563 104.924 76.0896C104.924 77.2363 104.51 78.2829 103.684 79.2296ZM101.184 79.0496C101.797 78.8363 102.297 78.4496 102.684 77.8896C103.07 77.3163 103.264 76.6896 103.264 76.0096C103.264 75.2363 103.07 74.6296 102.684 74.1896C102.31 73.7363 101.804 73.5096 101.164 73.5096C100.524 73.5096 100.01 73.7363 99.6235 74.1896C99.2502 74.6429 99.0635 75.2496 99.0635 76.0096C99.0635 76.6763 99.2635 77.2963 99.6635 77.8696C100.064 78.4429 100.57 78.8363 101.184 79.0496ZM119.253 79.2296H120.553V80.8496H119.233C118.153 80.8496 117.286 80.7296 116.633 80.4896C115.98 80.2363 115.373 79.7963 114.813 79.1696C113.133 80.2896 111.173 80.8496 108.933 80.8496H106.213V79.2296H108.953C111.66 79.2296 113.8 78.3363 115.373 76.5496C114.266 74.5096 112.92 73.4896 111.333 73.4896C110.253 73.4896 109.14 74.0629 107.993 75.2096V73.6096C109.113 72.4763 110.3 71.9096 111.553 71.9096C112.58 71.9096 113.573 72.2829 114.533 73.0296C115.493 73.7629 116.34 74.8163 117.073 76.1896V77.0696C116.66 77.5896 116.266 78.0096 115.893 78.3296C116.613 78.9296 117.733 79.2296 119.253 79.2296ZM132.238 79.2296H133.578V80.8496H132.058C130.951 80.8496 130.078 80.4963 129.438 79.7896C128.758 80.7629 127.764 81.2496 126.458 81.2496C125.151 81.2496 124.164 80.7696 123.498 79.8096C122.871 80.5029 121.998 80.8496 120.878 80.8496H119.358V79.2296H120.678C121.984 79.2296 122.638 78.5629 122.638 77.2296V76.5696C122.638 75.0229 123.018 73.8363 123.778 73.0096C124.444 72.2763 125.338 71.9096 126.458 71.9096C127.738 71.9096 128.724 72.3829 129.418 73.3296C130.004 74.1429 130.298 75.2229 130.298 76.5696V77.2296C130.298 78.5629 130.944 79.2296 132.238 79.2296ZM126.458 79.6296C127.111 79.6296 127.624 79.3563 127.998 78.8096C128.384 78.2629 128.578 77.5096 128.578 76.5496C128.578 74.5229 127.871 73.5096 126.458 73.5096C125.058 73.5096 124.358 74.5229 124.358 76.5496C124.358 78.6029 125.058 79.6296 126.458 79.6296ZM132.385 80.8496V79.2296H133.705C135.012 79.2296 135.665 78.5629 135.665 77.2296V73.0896L137.385 72.1696V77.2896C137.385 78.4229 137.045 79.3163 136.365 79.9696C135.738 80.5563 134.918 80.8496 133.905 80.8496H132.385ZM135.605 84.8296C134.952 84.8296 134.625 84.4963 134.625 83.8296C134.625 83.1763 134.952 82.8496 135.605 82.8496C136.245 82.8496 136.565 83.1763 136.565 83.8296C136.565 84.4963 136.245 84.8296 135.605 84.8296ZM150.124 80.3696C148.858 81.1296 148.091 81.6496 147.824 81.9296C147.291 82.4496 147.024 83.0963 147.024 83.8696C147.024 84.7229 147.318 85.4096 147.904 85.9296C148.491 86.4629 149.251 86.7296 150.184 86.7296C151.651 86.7163 152.878 86.3629 153.864 85.6696V87.2896C152.718 87.9963 151.464 88.3496 150.104 88.3496C148.624 88.3496 147.438 87.8629 146.544 86.8896C145.771 86.0629 145.384 85.0429 145.384 83.8296C145.384 82.9229 145.624 82.1496 146.104 81.5096C146.584 80.8829 147.431 80.2229 148.644 79.5296C147.551 78.7296 146.431 77.4763 145.284 75.7696V74.8896C145.938 73.9563 146.704 73.2296 147.584 72.7096C148.464 72.1763 149.358 71.9096 150.264 71.9096C151.158 71.9096 152.051 72.1829 152.944 72.7296C153.838 73.2629 154.604 73.9963 155.244 74.9296V75.7696C154.564 76.7963 153.438 77.9363 151.864 79.1896C152.158 79.2163 152.391 79.2296 152.564 79.2296H157.844L157.864 80.8496H152.424C151.638 80.8496 150.871 80.6896 150.124 80.3696ZM146.884 75.3496C148.084 76.9896 149.178 78.0763 150.164 78.6096C151.458 77.7296 152.618 76.6296 153.644 75.3096C152.658 74.1096 151.531 73.5029 150.264 73.4896C148.984 73.4896 147.858 74.1096 146.884 75.3496ZM158.902 69.8896C158.249 69.8896 157.922 69.5563 157.922 68.8896C157.922 68.2363 158.249 67.9096 158.902 67.9096C159.542 67.9096 159.862 68.2363 159.862 68.8896C159.862 69.5563 159.542 69.8896 158.902 69.8896ZM161.462 69.8896C160.809 69.8896 160.482 69.5563 160.482 68.8896C160.482 68.2363 160.809 67.9096 161.462 67.9096C162.102 67.9096 162.422 68.2363 162.422 68.8896C162.422 69.5563 162.102 69.8896 161.462 69.8896ZM163.622 79.2296H164.942V80.8496H163.422C162.316 80.8496 161.442 80.4963 160.802 79.7896C160.162 80.4963 159.289 80.8496 158.182 80.8496H156.662V79.2296H157.982C159.289 79.2296 159.942 78.5629 159.942 77.2296V73.0896L161.662 72.1696V77.2296C161.662 78.5629 162.316 79.2296 163.622 79.2296ZM176.613 79.2296H177.953V80.8496H176.433C175.326 80.8496 174.453 80.4963 173.813 79.7896C173.133 80.7629 172.139 81.2496 170.833 81.2496C169.526 81.2496 168.539 80.7696 167.873 79.8096C167.246 80.5029 166.373 80.8496 165.253 80.8496H163.733V79.2296H165.053C166.359 79.2296 167.013 78.5629 167.013 77.2296V76.5696C167.013 75.0229 167.393 73.8363 168.153 73.0096C168.819 72.2763 169.713 71.9096 170.833 71.9096C172.113 71.9096 173.099 72.3829 173.793 73.3296C174.379 74.1429 174.673 75.2229 174.673 76.5696V77.2296C174.673 78.5629 175.319 79.2296 176.613 79.2296ZM170.833 79.6296C171.486 79.6296 171.999 79.3563 172.373 78.8096C172.759 78.2629 172.953 77.5096 172.953 76.5496C172.953 74.5229 172.246 73.5096 170.833 73.5096C169.433 73.5096 168.733 74.5229 168.733 76.5496C168.733 78.6029 169.433 79.6296 170.833 79.6296ZM179 69.8896C178.347 69.8896 178.02 69.5563 178.02 68.8896C178.02 68.2363 178.347 67.9096 179 67.9096C179.64 67.9096 179.96 68.2363 179.96 68.8896C179.96 69.5563 179.64 69.8896 179 69.8896ZM181.56 69.8896C180.907 69.8896 180.58 69.5563 180.58 68.8896C180.58 68.2363 180.907 67.9096 181.56 67.9096C182.2 67.9096 182.52 68.2363 182.52 68.8896C182.52 69.5563 182.2 69.8896 181.56 69.8896ZM183.72 79.2296H185.04V80.8496H183.52C182.413 80.8496 181.54 80.4963 180.9 79.7896C180.26 80.4963 179.387 80.8496 178.28 80.8496H176.76V79.2296H178.08C179.387 79.2296 180.04 78.5629 180.04 77.2296V73.0896L181.76 72.1696V77.2296C181.76 78.5629 182.413 79.2296 183.72 79.2296ZM183.83 80.8496V79.2296H185.63C186.924 79.2296 187.57 78.5629 187.57 77.2296V74.4296L189.29 73.5096V77.2296C189.29 78.5629 189.944 79.2296 191.25 79.2296H192.17C193.477 79.2296 194.13 78.5629 194.13 77.2296V73.7496L195.85 72.8496V77.2296C195.85 78.5629 196.497 79.2296 197.79 79.2296H198.73C200.037 79.2296 200.69 78.5629 200.69 77.2296V73.0896L202.41 72.1696V77.2896C202.41 78.4229 202.07 79.3096 201.39 79.9496C200.79 80.5363 199.99 80.8363 198.99 80.8496H197.61C196.437 80.8496 195.564 80.4563 194.99 79.6696C194.417 80.4429 193.564 80.8363 192.43 80.8496H191.05C189.904 80.8496 189.03 80.4563 188.43 79.6696C187.857 80.4563 186.984 80.8496 185.81 80.8496H183.83ZM206.015 80.8496V68.8696L207.735 67.9496V80.8496H206.015Z" fill="#6654A4"/>
<path d="M66.2712 124.858H66.8152V125.85H66.1272C64.9859 125.85 64.1912 125.402 63.7432 124.506C63.1885 125.082 62.5059 125.37 61.6952 125.37C60.7779 125.37 60.0525 125.023 59.5192 124.33C59.0712 123.743 58.8472 123.012 58.8472 122.138C58.8472 121.114 59.1459 120.292 59.7432 119.674C60.2659 119.13 60.9112 118.858 61.6792 118.858C62.3725 118.858 62.9539 119.06 63.4232 119.466V118.602L64.4952 118.042V123.034C64.4952 124.25 65.0872 124.858 66.2712 124.858ZM63.4232 120.682C62.9539 120.116 62.3832 119.834 61.7112 119.834C61.1779 119.834 60.7405 120.052 60.3992 120.49C60.0685 120.916 59.9032 121.471 59.9032 122.154C59.9032 122.847 60.0685 123.402 60.3992 123.818C60.7405 124.234 61.1832 124.442 61.7272 124.442C62.4205 124.442 62.9965 124.138 63.4552 123.53C63.4339 123.338 63.4232 123.183 63.4232 123.066V120.682ZM70.6324 116.298L70.3284 116.858H67.8644L68.1684 116.298H68.5684C68.4724 116.106 68.4244 115.914 68.4244 115.722C68.4244 115.423 68.5364 115.162 68.7604 114.938C68.9844 114.714 69.2458 114.602 69.5444 114.602C69.7898 114.602 70.0244 114.676 70.2484 114.826V115.418C70.0351 115.268 69.8271 115.194 69.6244 115.194C69.4538 115.194 69.3044 115.247 69.1764 115.354C69.0591 115.46 69.0004 115.588 69.0004 115.738C69.0004 115.93 69.0804 116.116 69.2404 116.298H70.6324ZM71.6404 124.858H72.2004V125.85H71.5124C70.5524 125.85 69.8324 125.524 69.3524 124.874C68.8511 125.524 68.1258 125.85 67.1764 125.85H66.4884V124.858H67.0484C68.2218 124.858 68.8084 124.25 68.8084 123.034V119.562L69.8804 119.002V123.034C69.8804 124.25 70.4671 124.858 71.6404 124.858ZM77.0311 124.858H77.5911V125.85H76.9031C75.9431 125.85 75.2231 125.524 74.7431 124.874C74.2417 125.524 73.5164 125.85 72.5671 125.85H71.8791V124.858H72.4391C73.6124 124.858 74.1991 124.25 74.1991 123.034V119.562L75.2711 119.002V123.034C75.2711 124.25 75.8577 124.858 77.0311 124.858ZM73.3991 127.53C73.8257 127.53 74.0391 127.748 74.0391 128.186C74.0391 128.623 73.8257 128.842 73.3991 128.842C72.9724 128.842 72.7591 128.623 72.7591 128.186C72.7591 127.748 72.9724 127.53 73.3991 127.53ZM75.2231 127.53C75.6497 127.53 75.8631 127.748 75.8631 128.186C75.8631 128.623 75.6497 128.842 75.2231 128.842C74.7964 128.842 74.5831 128.623 74.5831 128.186C74.5831 127.748 74.7964 127.53 75.2231 127.53ZM82.3737 124.858H82.9337V125.85H82.2457C81.2644 125.85 80.5337 125.514 80.0537 124.842C79.5524 125.514 78.811 125.85 77.8297 125.85H77.2697V124.858H77.7177C78.9337 124.858 79.5417 124.228 79.5417 122.97V116.09L80.6137 115.53V123.034C80.6137 124.25 81.2004 124.858 82.3737 124.858ZM84.9334 121.562C84.9334 120.655 85.2054 119.951 85.7494 119.45C86.2188 119.023 86.8374 118.81 87.6054 118.81C88.5974 118.81 89.3601 119.172 89.8934 119.898C90.3521 120.516 90.5814 121.327 90.5814 122.33C90.5814 123.471 90.2881 124.362 89.7014 125.002C89.1894 125.567 88.5228 125.85 87.7014 125.85C86.6988 125.85 85.9521 125.53 85.4614 124.89C84.9814 125.53 84.2614 125.85 83.3014 125.85H82.6134V124.858H83.1734C84.3468 124.858 84.9334 124.25 84.9334 123.034V121.562ZM86.0054 123.098C86.0054 124.271 86.5814 124.858 87.7334 124.858C88.2881 124.858 88.7254 124.634 89.0454 124.186C89.3654 123.738 89.5254 123.114 89.5254 122.314C89.5254 121.524 89.3548 120.906 89.0134 120.458C88.6828 120.01 88.2134 119.786 87.6054 119.786C86.5388 119.786 86.0054 120.41 86.0054 121.658V123.098ZM103.537 124.858H104.081V125.85H103.393C102.251 125.85 101.457 125.402 101.009 124.506C100.454 125.082 99.7715 125.37 98.9608 125.37C98.0435 125.37 97.3181 125.023 96.7848 124.33C96.3368 123.743 96.1128 123.012 96.1128 122.138C96.1128 121.114 96.4115 120.292 97.0088 119.674C97.5315 119.13 98.1768 118.858 98.9448 118.858C99.6381 118.858 100.219 119.06 100.689 119.466V118.602L101.761 118.042V123.034C101.761 124.25 102.353 124.858 103.537 124.858ZM100.689 120.682C100.219 120.116 99.6488 119.834 98.9768 119.834C98.4435 119.834 98.0061 120.052 97.6648 120.49C97.3341 120.916 97.1688 121.471 97.1688 122.154C97.1688 122.847 97.3341 123.402 97.6648 123.818C98.0061 124.234 98.4488 124.442 98.9928 124.442C99.6861 124.442 100.262 124.138 100.721 123.53C100.699 123.338 100.689 123.183 100.689 123.066V120.682ZM118.474 124.858V125.85H117.786C116.89 125.85 116.197 125.562 115.706 124.986C115.322 125.562 114.703 125.85 113.85 125.85H103.754V124.858H106.458V116.09L107.45 115.53V122.25C108.698 119.956 110.351 118.81 112.41 118.81C113.605 118.81 114.554 119.22 115.258 120.042C115.855 120.746 116.154 121.615 116.154 122.65V123.066C116.154 124.26 116.746 124.858 117.93 124.858H118.474ZM115.082 122.65C115.082 121.754 114.799 121.034 114.234 120.49C113.754 120.02 113.151 119.786 112.426 119.786C111.178 119.786 110.069 120.388 109.098 121.594C108.362 122.5 107.818 123.588 107.466 124.858H113.738C114.25 124.858 114.602 124.74 114.794 124.506C114.986 124.26 115.082 123.818 115.082 123.178V122.65ZM112.314 116.89C111.877 116.89 111.658 116.666 111.658 116.218C111.658 115.791 111.877 115.578 112.314 115.578C112.73 115.578 112.938 115.791 112.938 116.218C112.938 116.666 112.73 116.89 112.314 116.89ZM122.816 116.938C122.379 116.938 122.16 116.714 122.16 116.266C122.16 115.839 122.379 115.626 122.816 115.626C123.232 115.626 123.44 115.839 123.44 116.266C123.44 116.714 123.232 116.938 122.816 116.938ZM124.448 124.858H127.376V125.85H123.76C123.398 125.85 123.067 125.812 122.768 125.738C122.47 125.812 122.139 125.85 121.776 125.85H118.16V124.858H121.104C120.262 124.079 119.84 123.156 119.84 122.09C119.84 121.055 120.128 120.234 120.704 119.626C121.227 119.082 121.915 118.81 122.768 118.81C123.739 118.81 124.491 119.162 125.024 119.866C125.472 120.452 125.696 121.194 125.696 122.09C125.696 123.167 125.28 124.09 124.448 124.858ZM122.832 124.714C123.376 124.522 123.819 124.18 124.16 123.69C124.512 123.188 124.688 122.65 124.688 122.074C124.688 121.37 124.512 120.815 124.16 120.41C123.819 119.994 123.355 119.786 122.768 119.786C122.182 119.786 121.718 119.994 121.376 120.41C121.035 120.815 120.864 121.364 120.864 122.058C120.864 122.644 121.035 123.188 121.376 123.69C121.718 124.18 122.16 124.522 122.704 124.714L122.768 124.73L122.8 124.714H122.832ZM137.163 124.858H137.723V125.85H137.147C136.262 125.85 135.552 125.748 135.019 125.546C134.496 125.343 134.011 124.986 133.563 124.474C132.198 125.391 130.619 125.85 128.827 125.85H127.051V124.858H128.843C131.168 124.858 132.982 124.068 134.283 122.49C133.334 120.676 132.187 119.77 130.843 119.77C129.926 119.77 129.03 120.234 128.155 121.162V120.106C129.03 119.242 129.942 118.81 130.891 118.81H130.923C132.598 118.81 134.048 119.94 135.275 122.202V122.858C134.944 123.284 134.592 123.652 134.219 123.962C134.56 124.292 134.944 124.527 135.371 124.666C135.808 124.794 136.406 124.858 137.163 124.858ZM147.474 124.858H148.018V125.85H147.33C146.36 125.85 145.634 125.514 145.154 124.842C144.621 125.727 143.81 126.17 142.722 126.17C141.624 126.17 140.813 125.732 140.29 124.858C139.8 125.519 139.069 125.85 138.098 125.85H137.41V124.858H137.97C139.144 124.858 139.73 124.25 139.73 123.034V122.49C139.73 121.263 140.029 120.324 140.626 119.674C141.149 119.098 141.848 118.81 142.722 118.81C143.725 118.81 144.488 119.183 145.01 119.93C145.469 120.57 145.698 121.423 145.698 122.49V123.034C145.698 124.25 146.29 124.858 147.474 124.858ZM142.722 125.178C143.309 125.178 143.773 124.938 144.114 124.458C144.456 123.967 144.626 123.306 144.626 122.474C144.626 120.682 143.992 119.786 142.722 119.786C141.442 119.786 140.802 120.682 140.802 122.474C140.802 124.276 141.442 125.178 142.722 125.178ZM147.692 125.85V124.858H148.252C149.425 124.858 150.012 124.25 150.012 123.034V119.562L151.084 119.002V123.066C151.084 123.962 150.822 124.66 150.3 125.162C149.82 125.62 149.18 125.85 148.38 125.85H147.692ZM149.82 128.842C149.382 128.842 149.164 128.618 149.164 128.17C149.164 127.743 149.382 127.53 149.82 127.53C150.236 127.53 150.444 127.743 150.444 128.17C150.444 128.618 150.236 128.842 149.82 128.842ZM161.375 125.45C161.269 125.514 161.093 125.615 160.847 125.754L160.815 125.77C159.941 126.26 159.354 126.682 159.055 127.034C158.767 127.386 158.623 127.855 158.623 128.442C158.623 129.146 158.863 129.722 159.343 130.17C159.834 130.628 160.463 130.858 161.231 130.858H161.263C162.479 130.858 163.455 130.586 164.191 130.042V131.018C163.317 131.572 162.33 131.85 161.231 131.85C160.079 131.85 159.162 131.471 158.479 130.714C157.914 130.074 157.631 129.306 157.631 128.41C157.631 127.652 157.818 127.044 158.191 126.586C158.565 126.127 159.317 125.583 160.447 124.954C159.519 124.324 158.538 123.274 157.503 121.802V121.146C158.613 119.588 159.919 118.81 161.423 118.81C162.127 118.81 162.826 119.018 163.519 119.434C164.213 119.85 164.826 120.431 165.359 121.178V121.802C164.623 122.815 163.637 123.802 162.399 124.762C162.677 124.826 162.965 124.858 163.263 124.858H167.135V125.85H163.199C162.57 125.85 161.962 125.716 161.375 125.45ZM158.431 121.498C159.551 122.97 160.538 123.93 161.391 124.378C162.49 123.61 163.503 122.639 164.431 121.466C163.578 120.346 162.575 119.786 161.423 119.786H161.375C160.277 119.786 159.295 120.356 158.431 121.498ZM168.433 116.938C168.006 116.938 167.793 116.719 167.793 116.282C167.793 115.844 168.006 115.626 168.433 115.626C168.859 115.626 169.073 115.844 169.073 116.282C169.073 116.719 168.859 116.938 168.433 116.938ZM170.257 116.938C169.83 116.938 169.617 116.719 169.617 116.282C169.617 115.844 169.83 115.626 170.257 115.626C170.683 115.626 170.897 115.844 170.897 116.282C170.897 116.719 170.683 116.938 170.257 116.938ZM171.969 124.858H172.529V125.85H171.841C170.881 125.85 170.161 125.524 169.681 124.874C169.179 125.524 168.454 125.85 167.505 125.85H166.817V124.858H167.377C168.55 124.858 169.137 124.25 169.137 123.034V119.562L170.209 119.002V123.034C170.209 124.25 170.795 124.858 171.969 124.858ZM182.271 124.858H182.815V125.85H182.127C181.157 125.85 180.431 125.514 179.951 124.842C179.418 125.727 178.607 126.17 177.519 126.17C176.421 126.17 175.61 125.732 175.087 124.858C174.597 125.519 173.866 125.85 172.895 125.85H172.207V124.858H172.767C173.941 124.858 174.527 124.25 174.527 123.034V122.49C174.527 121.263 174.826 120.324 175.423 119.674C175.946 119.098 176.645 118.81 177.519 118.81C178.522 118.81 179.285 119.183 179.807 119.93C180.266 120.57 180.495 121.423 180.495 122.49V123.034C180.495 124.25 181.087 124.858 182.271 124.858ZM177.519 125.178C178.106 125.178 178.57 124.938 178.911 124.458C179.253 123.967 179.423 123.306 179.423 122.474C179.423 120.682 178.789 119.786 177.519 119.786C176.239 119.786 175.599 120.682 175.599 122.474C175.599 124.276 176.239 125.178 177.519 125.178ZM184.104 116.938C183.678 116.938 183.464 116.719 183.464 116.282C183.464 115.844 183.678 115.626 184.104 115.626C184.531 115.626 184.744 115.844 184.744 116.282C184.744 116.719 184.531 116.938 184.104 116.938ZM185.928 116.938C185.502 116.938 185.288 116.719 185.288 116.282C185.288 115.844 185.502 115.626 185.928 115.626C186.355 115.626 186.568 115.844 186.568 116.282C186.568 116.719 186.355 116.938 185.928 116.938ZM187.64 124.858H188.2V125.85H187.512C186.552 125.85 185.832 125.524 185.352 124.874C184.851 125.524 184.126 125.85 183.176 125.85H182.488V124.858H183.048C184.222 124.858 184.808 124.25 184.808 123.034V119.562L185.88 119.002V123.034C185.88 124.25 186.467 124.858 187.64 124.858ZM187.879 125.85V124.858H188.855C190.039 124.858 190.631 124.25 190.631 123.034V120.73L191.703 120.17V123.034C191.703 124.25 192.29 124.858 193.463 124.858H194.055C195.228 124.858 195.815 124.25 195.815 123.034V120.154L196.887 119.578V123.034C196.887 124.25 197.479 124.858 198.663 124.858H199.239C200.423 124.858 201.015 124.25 201.015 123.034V119.562L202.087 119.002V123.066C202.087 123.951 201.826 124.644 201.303 125.146C200.834 125.604 200.199 125.839 199.399 125.85H198.519C197.527 125.85 196.807 125.498 196.359 124.794C195.9 125.498 195.186 125.85 194.215 125.85H193.335C192.343 125.85 191.618 125.498 191.159 124.794C190.711 125.498 189.991 125.85 188.999 125.85H187.879ZM204.963 125.85V116.09L206.035 115.53V125.85H204.963ZM65.8178 150.858H66.3618V151.85H65.6738C64.7138 151.85 63.9938 151.524 63.5138 150.874C63.0338 151.524 62.3084 151.85 61.3378 151.85H55.6258C54.8364 151.85 54.2071 151.604 53.7378 151.114C53.2684 150.612 53.0338 149.94 53.0338 149.098V147.002L54.1058 146.442V148.97C54.1058 150.228 54.6924 150.858 55.8658 150.858H61.2258C62.3884 150.858 62.9698 150.228 62.9698 148.97V142.09L64.0418 141.53V149.034C64.0418 150.25 64.6338 150.858 65.8178 150.858ZM58.4738 144.218C58.9111 144.218 59.2578 144.335 59.5138 144.57C59.7698 144.804 59.8978 145.119 59.8978 145.514C59.8978 145.866 59.7911 146.148 59.5778 146.362C59.3751 146.564 59.1031 146.666 58.7618 146.666H56.7778L57.0818 146.106H58.7138C59.1191 146.106 59.3218 145.903 59.3218 145.498C59.3218 145.007 59.0124 144.762 58.3938 144.762C58.0738 144.762 57.8018 144.826 57.5778 144.954V144.41L58.8898 142.938H59.5618L58.4578 144.218H58.4738ZM66.0431 151.85V150.858H66.4911C67.7071 150.858 68.3151 150.228 68.3151 148.97V142.09L69.3871 141.53V148.986C69.3871 149.892 69.1205 150.607 68.5871 151.13C68.0858 151.61 67.4245 151.85 66.6031 151.85H66.0431ZM76.1401 150.858H76.7001V151.85H76.0121C75.3508 151.85 74.8015 151.69 74.3641 151.37C74.2788 153.14 73.5641 154.26 72.2201 154.73C71.8788 154.847 71.5161 154.906 71.1321 154.906C70.5135 154.906 69.9161 154.756 69.3401 154.458V153.514C69.8841 153.812 70.4388 153.962 71.0041 153.962C71.4521 153.962 71.8468 153.86 72.1881 153.658C72.9348 153.21 73.3081 152.372 73.3081 151.146V145.562L74.3641 145.002V145.018L74.3801 145.002V149.034C74.3801 150.25 74.9668 150.858 76.1401 150.858ZM81.2509 142.922C80.8135 142.922 80.5949 142.698 80.5949 142.25C80.5949 141.823 80.8135 141.61 81.2509 141.61C81.6669 141.61 81.8749 141.823 81.8749 142.25C81.8749 142.698 81.6669 142.922 81.2509 142.922ZM76.3869 151.85V150.858H79.1069C78.5202 150.271 78.2269 149.428 78.2269 148.33C78.2269 147.178 78.5255 146.287 79.1229 145.658C79.6455 145.092 80.3389 144.81 81.2029 144.81C82.0882 144.81 82.7709 145.087 83.2509 145.642C83.6669 146.122 83.8749 146.762 83.8749 147.562V149.114C83.8642 149.978 83.6029 150.655 83.0909 151.146C82.6215 151.615 81.9815 151.85 81.1709 151.85H76.3869ZM82.8189 147.658C82.8189 146.41 82.2802 145.786 81.2029 145.786C80.6055 145.786 80.1362 146.01 79.7949 146.458C79.4642 146.895 79.2989 147.514 79.2989 148.314C79.2989 149.092 79.4589 149.711 79.7789 150.17C80.1095 150.628 80.5469 150.858 81.0909 150.858C82.2429 150.858 82.8189 150.26 82.8189 149.066V147.658ZM93.6203 150.858V151.85H91.9243C91.9136 152.554 91.6843 153.172 91.2363 153.706C90.7989 154.25 90.2283 154.607 89.5243 154.778C89.2683 154.852 88.9909 154.89 88.6923 154.89C88.0736 154.89 87.4709 154.74 86.8843 154.442V153.498C87.4389 153.796 87.9883 153.946 88.5323 153.946C88.9696 153.946 89.3536 153.85 89.6843 153.658C90.0149 153.487 90.2923 153.226 90.5163 152.874C90.7403 152.532 90.8523 152.191 90.8523 151.85L89.4923 151.802C88.3083 151.748 87.4229 151.375 86.8363 150.682C86.3563 150.095 86.1163 149.311 86.1163 148.33C86.1163 147.178 86.4149 146.287 87.0123 145.658C87.5456 145.092 88.2603 144.81 89.1562 144.81C90.0843 144.81 90.7936 145.087 91.2843 145.642C91.7109 146.122 91.9243 146.762 91.9243 147.562V150.858H93.6203ZM90.8523 147.674C90.8523 146.415 90.2869 145.786 89.1562 145.786C88.5269 145.786 88.0363 146.01 87.6843 146.458C87.3429 146.895 87.1723 147.514 87.1723 148.314C87.1723 149.903 87.9563 150.735 89.5243 150.81C89.9936 150.842 90.4363 150.858 90.8523 150.858V147.674ZM94.9091 142.938C94.4825 142.938 94.2691 142.719 94.2691 142.282C94.2691 141.844 94.4825 141.626 94.9091 141.626C95.3358 141.626 95.5491 141.844 95.5491 142.282C95.5491 142.719 95.3358 142.938 94.9091 142.938ZM96.7331 142.938C96.3065 142.938 96.0931 142.719 96.0931 142.282C96.0931 141.844 96.3065 141.626 96.7331 141.626C97.1598 141.626 97.3731 141.844 97.3731 142.282C97.3731 142.719 97.1598 142.938 96.7331 142.938ZM98.4451 150.858H99.0051V151.85H98.3171C97.3571 151.85 96.6371 151.524 96.1571 150.874C95.6558 151.524 94.9305 151.85 93.9811 151.85H93.2931V150.858H93.8531C95.0265 150.858 95.6131 150.25 95.6131 149.034V145.562L96.6851 145.002V149.034C96.6851 150.25 97.2718 150.858 98.4451 150.858ZM100.3 147.162C100.524 146.276 100.945 145.578 101.564 145.066C102.193 144.543 102.929 144.282 103.772 144.282C104.849 144.282 105.745 144.66 106.46 145.418C107.132 146.143 107.468 147.066 107.468 148.186V149.098C107.468 150.004 107.19 150.708 106.636 151.21C106.166 151.636 105.542 151.85 104.764 151.85H103.18C102.806 151.85 102.46 151.796 102.14 151.69C101.82 151.796 101.484 151.85 101.132 151.85H98.6837V150.858H100.732C100.156 150.282 99.8678 149.572 99.8678 148.73C99.8678 148.111 100.012 147.588 100.3 147.162ZM106.412 148.97V148.186C106.412 147.226 106.102 146.468 105.484 145.914C104.982 145.476 104.396 145.258 103.724 145.258C102.828 145.258 102.145 145.604 101.676 146.298C101.836 146.266 101.996 146.25 102.156 146.25C102.838 146.25 103.388 146.479 103.804 146.938C104.22 147.386 104.428 147.983 104.428 148.73C104.428 149.572 104.14 150.282 103.564 150.858H104.684C105.836 150.858 106.412 150.228 106.412 148.97ZM102.156 150.714C103.126 150.394 103.612 149.722 103.612 148.698C103.612 148.196 103.478 147.796 103.212 147.498C102.956 147.188 102.604 147.034 102.156 147.034C101.708 147.034 101.35 147.183 101.084 147.482C100.817 147.78 100.684 148.186 100.684 148.698C100.684 149.722 101.174 150.394 102.156 150.714ZM122.932 151.85C122.847 152.767 122.367 153.508 121.492 154.074C120.65 154.618 119.567 154.89 118.244 154.89C116.602 154.89 115.364 154.41 114.532 153.45C113.914 152.735 113.604 151.855 113.604 150.81C113.604 149.892 113.839 149.103 114.308 148.442L115.348 148.234C114.836 149.012 114.58 149.844 114.58 150.73C114.58 151.711 114.916 152.495 115.588 153.082C116.228 153.647 117.114 153.93 118.244 153.93C119.407 153.93 120.319 153.684 120.98 153.194C121.471 152.831 121.759 152.383 121.844 151.85H120.212L120.724 150.858H122.98V151.85H122.932ZM117.236 157.53C116.799 157.53 116.58 157.311 116.58 156.874C116.58 156.436 116.799 156.218 117.236 156.218C117.652 156.218 117.86 156.436 117.86 156.874C117.86 157.311 117.652 157.53 117.236 157.53ZM119.06 157.53C118.634 157.53 118.42 157.311 118.42 156.874C118.42 156.436 118.634 156.218 119.06 156.218C119.487 156.218 119.7 156.436 119.7 156.874C119.7 157.311 119.487 157.53 119.06 157.53ZM127.553 150.858H128.113V151.85H127.425C126.444 151.85 125.713 151.514 125.233 150.842C124.732 151.514 123.991 151.85 123.009 151.85H122.449V150.858H122.897C124.113 150.858 124.721 150.228 124.721 148.97V142.09L125.793 141.53V149.034C125.793 150.25 126.38 150.858 127.553 150.858ZM127.793 151.85V150.858H128.241C129.457 150.858 130.065 150.228 130.065 148.97V142.09L131.137 141.53V148.986C131.137 149.892 130.87 150.607 130.337 151.13C129.836 151.61 129.174 151.85 128.353 151.85H127.793ZM134.018 151.85V142.09L135.09 141.53V151.85H134.018ZM146.055 144.41C145.628 144.41 145.415 144.186 145.415 143.738C145.415 143.311 145.628 143.098 146.055 143.098C146.482 143.098 146.695 143.311 146.695 143.738C146.695 144.186 146.482 144.41 146.055 144.41ZM147.895 144.41C147.458 144.41 147.239 144.186 147.239 143.738C147.239 143.311 147.458 143.098 147.895 143.098C148.311 143.098 148.519 143.311 148.519 143.738C148.519 144.186 148.311 144.41 147.895 144.41ZM144.407 151.85C143.618 151.85 142.988 151.604 142.519 151.114C142.05 150.612 141.815 149.94 141.815 149.098V147.002L142.887 146.442V148.97C142.887 150.228 143.474 150.858 144.647 150.858H150.007C151.18 150.858 151.767 150.228 151.767 148.97V145.562L152.839 145.002V149.098C152.839 150.004 152.562 150.708 152.007 151.21C151.527 151.636 150.898 151.85 150.119 151.85H144.407ZM158.425 151.85C157.519 151.85 156.82 151.556 156.329 150.97C155.924 150.468 155.721 149.834 155.721 149.066V142.09L156.793 141.53V149.034C156.793 150.25 157.38 150.858 158.553 150.858H159.113V151.85H158.425ZM163.945 150.858H164.505V151.85H163.817C162.857 151.85 162.137 151.524 161.657 150.874C161.156 151.524 160.43 151.85 159.481 151.85H158.793V150.858H159.353C160.526 150.858 161.113 150.25 161.113 149.034V145.562L162.185 145.002V149.034C162.185 150.25 162.772 150.858 163.945 150.858ZM160.313 153.53C160.74 153.53 160.953 153.748 160.953 154.186C160.953 154.623 160.74 154.842 160.313 154.842C159.886 154.842 159.673 154.623 159.673 154.186C159.673 153.748 159.886 153.53 160.313 153.53ZM162.137 153.53C162.564 153.53 162.777 153.748 162.777 154.186C162.777 154.623 162.564 154.842 162.137 154.842C161.71 154.842 161.497 154.623 161.497 154.186C161.497 153.748 161.71 153.53 162.137 153.53ZM166.968 142.89C166.53 142.89 166.312 142.666 166.312 142.218C166.312 141.791 166.53 141.578 166.968 141.578C167.384 141.578 167.592 141.791 167.592 142.218C167.592 142.666 167.384 142.89 166.968 142.89ZM164.184 151.85V150.858H164.744C165.917 150.858 166.504 150.25 166.504 149.034V145.562L167.576 145.002V149.066C167.576 149.962 167.314 150.66 166.792 151.162C166.312 151.62 165.672 151.85 164.872 151.85H164.184ZM173.16 151.85C172.253 151.85 171.554 151.556 171.064 150.97C170.658 150.468 170.456 149.834 170.456 149.066V142.09L171.528 141.53V149.034C171.528 150.25 172.114 150.858 173.288 150.858H173.848V151.85H173.16ZM182.024 150.858H182.424V151.85H181.896C180.936 151.85 180.216 151.524 179.736 150.874C179.256 151.524 178.53 151.85 177.56 151.85H173.527V150.858H177.448C178.61 150.858 179.192 150.234 179.192 148.986V148.826C179.192 147.951 178.872 147.295 178.232 146.858C177.72 146.495 177.08 146.314 176.312 146.314C175.736 146.314 175.165 146.415 174.6 146.618V145.562L178.232 141.53H179.336L176.056 145.242C176.162 145.231 176.274 145.226 176.392 145.226C177.416 145.226 178.269 145.487 178.952 146.01C179.826 146.682 180.264 147.615 180.264 148.81V149.034C180.264 150.25 180.85 150.858 182.024 150.858ZM184.426 147.562C184.426 146.655 184.698 145.951 185.242 145.45C185.711 145.023 186.33 144.81 187.098 144.81C188.09 144.81 188.852 145.172 189.386 145.898C189.844 146.516 190.074 147.327 190.074 148.33C190.074 149.471 189.78 150.362 189.194 151.002C188.682 151.567 188.015 151.85 187.194 151.85C186.191 151.85 185.444 151.53 184.954 150.89C184.474 151.53 183.754 151.85 182.794 151.85H182.106V150.858H182.666C183.839 150.858 184.426 150.25 184.426 149.034V147.562ZM185.498 149.098C185.498 150.271 186.074 150.858 187.226 150.858C187.78 150.858 188.218 150.634 188.538 150.186C188.858 149.738 189.018 149.114 189.018 148.314C189.018 147.524 188.847 146.906 188.506 146.458C188.175 146.01 187.706 145.786 187.098 145.786C186.031 145.786 185.498 146.41 185.498 147.658V149.098ZM198.561 142.09L199.617 141.53V148.986C199.617 149.892 199.351 150.607 198.817 151.13C198.327 151.61 197.671 151.85 196.849 151.85H191.601L192.113 150.858H194.561V144.17L195.617 143.61V150.858H196.737C197.953 150.858 198.561 150.228 198.561 148.97V142.09ZM195.889 154.026C195.676 153.866 195.468 153.786 195.265 153.786C195.095 153.786 194.951 153.839 194.833 153.946C194.716 154.063 194.657 154.196 194.657 154.346C194.657 154.527 194.732 154.708 194.881 154.89H196.289L195.985 155.466H193.505L193.809 154.89H194.225C194.119 154.698 194.065 154.506 194.065 154.314C194.065 154.015 194.177 153.754 194.401 153.53C194.625 153.316 194.892 153.21 195.201 153.21C195.436 153.21 195.665 153.279 195.889 153.418V154.026ZM205.207 151.85C204.3 151.85 203.601 151.556 203.111 150.97C202.705 150.468 202.503 149.834 202.503 149.066V142.09L203.575 141.53V149.034C203.575 150.25 204.161 150.858 205.335 150.858H205.895V151.85H205.207ZM205.574 151.85V150.858H206.134C207.308 150.858 207.894 150.25 207.894 149.034V145.562L208.966 145.002V149.066C208.966 149.962 208.705 150.66 208.182 151.162C207.702 151.62 207.062 151.85 206.262 151.85H205.574ZM207.702 154.842C207.265 154.842 207.046 154.618 207.046 154.17C207.046 153.743 207.265 153.53 207.702 153.53C208.118 153.53 208.326 153.743 208.326 154.17C208.326 154.618 208.118 154.842 207.702 154.842ZM64.8415 176.858H65.3855V177.85H64.6975C63.5562 177.85 62.7615 177.402 62.3135 176.506C61.7588 177.082 61.0762 177.37 60.2655 177.37C59.3482 177.37 58.6228 177.023 58.0895 176.33C57.6415 175.743 57.4175 175.012 57.4175 174.138C57.4175 173.114 57.7162 172.292 58.3135 171.674C58.8362 171.13 59.4815 170.858 60.2495 170.858C60.9428 170.858 61.5242 171.06 61.9935 171.466V170.602L63.0655 170.042V175.034C63.0655 176.25 63.6575 176.858 64.8415 176.858ZM61.9935 172.682C61.5242 172.116 60.9535 171.834 60.2815 171.834C59.7482 171.834 59.3108 172.052 58.9695 172.49C58.6388 172.916 58.4735 173.471 58.4735 174.154C58.4735 174.847 58.6388 175.402 58.9695 175.818C59.3108 176.234 59.7535 176.442 60.2975 176.442C60.9908 176.442 61.5668 176.138 62.0255 175.53C62.0042 175.338 61.9935 175.183 61.9935 175.066V172.682ZM67.7308 168.89C67.2934 168.89 67.0748 168.666 67.0748 168.218C67.0748 167.791 67.2934 167.578 67.7308 167.578C68.1468 167.578 68.3548 167.791 68.3548 168.218C68.3548 168.666 68.1468 168.89 67.7308 168.89ZM70.2108 176.858H70.7708V177.85H70.0828C69.1228 177.85 68.4028 177.524 67.9228 176.874C67.4214 177.524 66.6961 177.85 65.7467 177.85H65.0587V176.858H65.6188C66.7921 176.858 67.3788 176.25 67.3788 175.034V171.562L68.4508 171.002V175.034C68.4508 176.25 69.0374 176.858 70.2108 176.858ZM72.7694 173.562C72.7694 172.655 73.0414 171.951 73.5854 171.45C74.0547 171.023 74.6734 170.81 75.4414 170.81C76.4334 170.81 77.196 171.172 77.7294 171.898C78.188 172.516 78.4174 173.327 78.4174 174.33C78.4174 175.471 78.124 176.362 77.5374 177.002C77.0254 177.567 76.3587 177.85 75.5374 177.85C74.5347 177.85 73.788 177.53 73.2974 176.89C72.8174 177.53 72.0974 177.85 71.1374 177.85H70.4494V176.858H71.0094C72.1827 176.858 72.7694 176.25 72.7694 175.034V173.562ZM73.8414 175.098C73.8414 176.271 74.4174 176.858 75.5694 176.858C76.124 176.858 76.5614 176.634 76.8814 176.186C77.2014 175.738 77.3614 175.114 77.3614 174.314C77.3614 173.524 77.1907 172.906 76.8494 172.458C76.5187 172.01 76.0494 171.786 75.4414 171.786C74.3747 171.786 73.8414 172.41 73.8414 173.658V175.098ZM83.385 165.866C83.065 166.378 82.713 166.634 82.329 166.634C82.0837 166.634 81.7957 166.522 81.465 166.298C81.2303 166.138 81.049 166.058 80.921 166.058C80.729 166.058 80.5103 166.228 80.265 166.57L79.849 166.266C80.1797 165.743 80.5317 165.482 80.905 165.482C81.1183 165.482 81.3743 165.583 81.673 165.786C81.929 165.967 82.1423 166.058 82.313 166.058C82.4837 166.058 82.7023 165.892 82.969 165.562L83.385 165.866ZM81.065 177.85V168.09L82.137 167.53V177.85H81.065ZM92.9579 177.258C92.5099 177.514 91.9339 177.642 91.2299 177.642C90.3019 177.642 89.5765 177.284 89.0539 176.57C88.6059 175.962 88.3819 175.194 88.3819 174.266C88.3819 173.146 88.6805 172.271 89.2779 171.642C89.8005 171.087 90.4939 170.81 91.3579 170.81C92.2432 170.81 92.9259 171.087 93.4059 171.642C93.8219 172.122 94.0299 172.762 94.0299 173.562V177.082C94.0299 178.074 93.8219 178.89 93.4059 179.53C92.9899 180.18 92.3979 180.596 91.6299 180.778C91.3739 180.852 91.0965 180.89 90.7979 180.89C90.1792 180.89 89.5765 180.74 88.9899 180.442V179.498C89.5445 179.796 90.0939 179.946 90.6379 179.946C91.0752 179.946 91.4592 179.85 91.7899 179.658C92.5365 179.284 92.9259 178.484 92.9579 177.258ZM92.9579 173.658C92.9579 172.41 92.4245 171.786 91.3579 171.786C90.7605 171.786 90.2859 172.004 89.9339 172.442C89.5925 172.879 89.4219 173.482 89.4219 174.25C89.4219 174.996 89.5872 175.594 89.9179 176.042C90.2485 176.479 90.6965 176.698 91.2619 176.698C92.1045 176.698 92.6699 176.463 92.9579 175.994V173.658ZM107.06 176.858H107.604V177.85H106.916C105.775 177.85 104.98 177.402 104.532 176.506C103.978 177.082 103.295 177.37 102.484 177.37C101.567 177.37 100.842 177.023 100.308 176.33C99.8603 175.743 99.6363 175.012 99.6363 174.138C99.6363 173.114 99.9349 172.292 100.532 171.674C101.055 171.13 101.7 170.858 102.468 170.858C103.162 170.858 103.743 171.06 104.212 171.466V170.602L105.284 170.042V175.034C105.284 176.25 105.876 176.858 107.06 176.858ZM104.212 172.682C103.743 172.116 103.172 171.834 102.5 171.834C101.967 171.834 101.53 172.052 101.188 172.49C100.858 172.916 100.692 173.471 100.692 174.154C100.692 174.847 100.858 175.402 101.188 175.818C101.53 176.234 101.972 176.442 102.516 176.442C103.21 176.442 103.786 176.138 104.244 175.53C104.223 175.338 104.212 175.183 104.212 175.066V172.682ZM112.382 176.858H112.942V177.85H112.254C111.272 177.85 110.542 177.514 110.062 176.842C109.56 177.514 108.819 177.85 107.838 177.85H107.277V176.858H107.726C108.941 176.858 109.549 176.228 109.549 174.97V168.09L110.622 167.53V175.034C110.622 176.25 111.208 176.858 112.382 176.858ZM123.181 176.858H123.741V177.85H123.053C122.083 177.85 121.357 177.524 120.877 176.874C120.397 177.524 119.672 177.85 118.701 177.85H117.117C116.744 177.85 116.397 177.796 116.077 177.69C115.757 177.796 115.421 177.85 115.069 177.85H112.621V176.858H114.669C114.093 176.282 113.805 175.572 113.805 174.73C113.805 174.111 113.949 173.588 114.237 173.162C114.461 172.276 114.883 171.578 115.501 171.066C116.131 170.543 116.867 170.282 117.709 170.282C118.787 170.282 119.683 170.66 120.397 171.418C121.069 172.143 121.405 173.066 121.405 174.186V175.034C121.405 176.25 121.997 176.858 123.181 176.858ZM118.621 176.858C119.773 176.858 120.349 176.228 120.349 174.97V174.186C120.349 173.226 120.04 172.468 119.421 171.914C118.92 171.476 118.333 171.258 117.661 171.258C116.765 171.258 116.083 171.604 115.613 172.298C115.773 172.266 115.933 172.25 116.093 172.25C116.776 172.25 117.325 172.479 117.741 172.938C118.157 173.386 118.365 173.983 118.365 174.73C118.365 175.572 118.077 176.282 117.501 176.858H118.621ZM116.093 176.714C117.064 176.394 117.549 175.722 117.549 174.698C117.549 174.196 117.416 173.796 117.149 173.498C116.893 173.188 116.541 173.034 116.093 173.034C115.645 173.034 115.288 173.183 115.021 173.482C114.755 173.78 114.621 174.186 114.621 174.698C114.621 175.722 115.112 176.394 116.093 176.714ZM123.418 177.85V176.858H124.394C125.578 176.858 126.17 176.25 126.17 175.034V172.73L127.242 172.17V175.034C127.242 176.25 127.829 176.858 129.002 176.858H129.594C130.767 176.858 131.354 176.25 131.354 175.034V172.154L132.426 171.578V175.034C132.426 176.25 133.018 176.858 134.202 176.858H134.778C135.962 176.858 136.554 176.25 136.554 175.034V171.562L137.626 171.002V175.066C137.626 175.951 137.365 176.644 136.842 177.146C136.373 177.604 135.738 177.839 134.938 177.85H134.058C133.066 177.85 132.346 177.498 131.898 176.794C131.439 177.498 130.725 177.85 129.754 177.85H128.874C127.882 177.85 127.157 177.498 126.698 176.794C126.25 177.498 125.53 177.85 124.538 177.85H123.418ZM147.914 177.45C147.808 177.514 147.632 177.615 147.386 177.754L147.354 177.77C146.48 178.26 145.893 178.682 145.594 179.034C145.306 179.386 145.162 179.855 145.162 180.442C145.162 181.146 145.402 181.722 145.882 182.17C146.373 182.628 147.002 182.858 147.77 182.858H147.802C149.018 182.858 149.994 182.586 150.73 182.042V183.018C149.856 183.572 148.869 183.85 147.77 183.85C146.618 183.85 145.701 183.471 145.018 182.714C144.453 182.074 144.17 181.306 144.17 180.41C144.17 179.652 144.357 179.044 144.73 178.586C145.104 178.127 145.856 177.583 146.986 176.954C146.058 176.324 145.077 175.274 144.042 173.802V173.146C145.152 171.588 146.458 170.81 147.962 170.81C148.666 170.81 149.365 171.018 150.058 171.434C150.752 171.85 151.365 172.431 151.898 173.178V173.802C151.162 174.815 150.176 175.802 148.938 176.762C149.216 176.826 149.504 176.858 149.802 176.858H153.674V177.85H149.738C149.109 177.85 148.501 177.716 147.914 177.45ZM144.97 173.498C146.09 174.97 147.077 175.93 147.93 176.378C149.029 175.61 150.042 174.639 150.97 173.466C150.117 172.346 149.114 171.786 147.962 171.786H147.914C146.816 171.786 145.834 172.356 144.97 173.498ZM158.22 168.922C157.782 168.922 157.564 168.698 157.564 168.25C157.564 167.823 157.782 167.61 158.22 167.61C158.636 167.61 158.844 167.823 158.844 168.25C158.844 168.698 158.636 168.922 158.22 168.922ZM153.356 177.85V176.858H156.076C155.489 176.271 155.196 175.428 155.196 174.33C155.196 173.178 155.494 172.287 156.092 171.658C156.614 171.092 157.308 170.81 158.172 170.81C159.057 170.81 159.74 171.087 160.22 171.642C160.636 172.122 160.844 172.762 160.844 173.562V175.114C160.833 175.978 160.572 176.655 160.06 177.146C159.59 177.615 158.95 177.85 158.14 177.85H153.356ZM159.788 173.658C159.788 172.41 159.249 171.786 158.172 171.786C157.574 171.786 157.105 172.01 156.764 172.458C156.433 172.895 156.268 173.514 156.268 174.314C156.268 175.092 156.428 175.711 156.748 176.17C157.078 176.628 157.516 176.858 158.06 176.858C159.212 176.858 159.788 176.26 159.788 175.066V173.658ZM162.285 177.85L162.797 176.858H165.805C166.296 176.858 166.637 176.735 166.829 176.49C167.032 176.244 167.133 175.818 167.133 175.21C167.133 173.652 166.45 172.484 165.085 171.706L165.597 170.826C167.336 171.839 168.205 173.306 168.205 175.226C168.205 176.975 167.464 177.85 165.981 177.85H162.285ZM180.068 168.938C179.631 168.938 179.412 168.714 179.412 168.266C179.412 167.839 179.631 167.626 180.068 167.626C180.484 167.626 180.692 167.839 180.692 168.266C180.692 168.714 180.484 168.938 180.068 168.938ZM181.892 168.938C181.455 168.938 181.236 168.714 181.236 168.266C181.236 167.839 181.455 167.626 181.892 167.626C182.308 167.626 182.516 167.839 182.516 168.266C182.516 168.714 182.308 168.938 181.892 168.938ZM183.62 177.066C183.62 178.303 183.172 179.263 182.276 179.946C181.455 180.575 180.335 180.89 178.916 180.89C177.274 180.89 176.036 180.41 175.204 179.45C174.586 178.735 174.276 177.855 174.276 176.81C174.276 175.892 174.511 175.103 174.98 174.442L176.02 174.234C175.508 175.012 175.252 175.844 175.252 176.73C175.252 177.7 175.588 178.474 176.26 179.05C176.911 179.615 177.796 179.898 178.916 179.898C180.196 179.898 181.146 179.604 181.764 179.018C182.276 178.538 182.532 177.898 182.532 177.098C182.138 177.46 181.567 177.642 180.82 177.642C179.903 177.642 179.178 177.279 178.644 176.554C178.196 175.946 177.972 175.183 177.972 174.266C177.972 173.146 178.271 172.271 178.868 171.642C179.391 171.087 180.084 170.81 180.948 170.81C181.834 170.81 182.516 171.087 182.996 171.642C183.412 172.122 183.62 172.762 183.62 173.562V177.066ZM182.548 173.658C182.548 172.41 182.015 171.786 180.948 171.786C180.351 171.786 179.882 172.004 179.54 172.442C179.199 172.879 179.028 173.482 179.028 174.25C179.028 175.007 179.188 175.604 179.508 176.042C179.839 176.479 180.287 176.698 180.852 176.698C181.716 176.698 182.282 176.452 182.548 175.962V173.658ZM191.265 176.858H191.825V177.85H191.137C190.476 177.85 189.926 177.69 189.489 177.37C189.404 179.14 188.689 180.26 187.345 180.73C187.004 180.847 186.641 180.906 186.257 180.906C185.638 180.906 185.041 180.756 184.465 180.458V179.514C185.009 179.812 185.564 179.962 186.129 179.962C186.577 179.962 186.972 179.86 187.313 179.658C188.06 179.21 188.433 178.372 188.433 177.146V171.562L189.489 171.002V171.018L189.505 171.002V175.034C189.505 176.25 190.092 176.858 191.265 176.858ZM195.208 174.25C196.456 171.956 198.109 170.81 200.168 170.81C201.363 170.81 202.312 171.22 203.016 172.042C203.613 172.746 203.912 173.615 203.912 174.65V175.21C203.912 176.97 203.144 177.85 201.608 177.85H191.512V176.858H194.216V168.09L195.208 167.53V174.25ZM202.84 174.65C202.84 173.754 202.557 173.034 201.992 172.49C201.512 172.02 200.909 171.786 200.184 171.786C198.936 171.786 197.827 172.388 196.856 173.594C196.12 174.5 195.576 175.588 195.224 176.858H201.496C202.008 176.858 202.36 176.74 202.552 176.506C202.744 176.26 202.84 175.818 202.84 175.178V174.65Z" fill="#656668"/>
<path d="M135.803 28.6528C134.396 30.0588 132.489 30.8487 130.5 30.8487C128.511 30.8487 126.604 30.0588 125.197 28.6528H135.803ZM124.875 19.6004H124.894H124.875ZM136.125 19.6004H136.144H136.125ZM147.375 23.3504C147.375 25.5664 146.939 27.7607 146.09 29.8081C145.242 31.8554 143.999 33.7157 142.432 35.2827C140.865 36.8496 139.005 38.0926 136.958 38.9407C134.91 39.7887 132.716 40.2252 130.5 40.2252C128.284 40.2252 126.09 39.7887 124.042 38.9407C121.995 38.0926 120.135 36.8496 118.568 35.2827C117.001 33.7157 115.758 31.8554 114.91 29.8081C114.061 27.7607 113.625 25.5664 113.625 23.3504C113.625 18.8749 115.403 14.5827 118.568 11.4181C121.732 8.25346 126.024 6.47559 130.5 6.47559C134.976 6.47559 139.268 8.25346 142.432 11.4181C145.597 14.5827 147.375 18.8749 147.375 23.3504Z" stroke="#6654A4" stroke-width="4" stroke-linecap="round" stroke-linejoin="round"/>
</svg>
