<svg width="262" height="190" viewBox="0 0 262 190" fill="none" xmlns="http://www.w3.org/2000/svg">
<path d="M80.4068 77.5024H74.567V81.8774H81.3931V83.8501H72.0963V69.6313H81.3248V71.6235H74.567V75.5493H80.4068V77.5024ZM85.3775 73.2837L85.4459 74.5044C86.2271 73.5604 87.2525 73.0884 88.522 73.0884C90.7226 73.0884 91.8424 74.3481 91.8814 76.8677V83.8501H89.5084V77.0044C89.5084 76.3338 89.3619 75.839 89.0689 75.52C88.7825 75.1945 88.3105 75.0317 87.6529 75.0317C86.6959 75.0317 85.983 75.4647 85.5142 76.3306V83.8501H83.1412V73.2837H85.3775ZM96.7838 73.2837V84.7876C96.7838 85.8683 96.5136 86.6919 95.9732 87.2583C95.4394 87.8312 94.6549 88.1177 93.6197 88.1177C93.1835 88.1177 92.7636 88.0623 92.3599 87.9517V86.0767C92.6073 86.1353 92.8873 86.1646 93.1998 86.1646C93.9875 86.1646 94.3912 85.7349 94.4107 84.8755V73.2837H96.7838ZM94.2056 70.5396C94.2056 70.175 94.3196 69.8722 94.5474 69.6313C94.7818 69.3905 95.1138 69.27 95.5435 69.27C95.9732 69.27 96.3053 69.3905 96.5396 69.6313C96.774 69.8722 96.8912 70.175 96.8912 70.5396C96.8912 70.8976 96.774 71.1971 96.5396 71.438C96.3053 71.6724 95.9732 71.7896 95.5435 71.7896C95.1138 71.7896 94.7818 71.6724 94.5474 71.438C94.3196 71.1971 94.2056 70.8976 94.2056 70.5396ZM98.8834 78.4692C98.8834 77.4341 99.0885 76.5031 99.4986 75.6763C99.9088 74.8429 100.485 74.2049 101.227 73.7622C101.969 73.313 102.822 73.0884 103.786 73.0884C105.212 73.0884 106.367 73.5474 107.253 74.4653C108.144 75.3833 108.626 76.6007 108.698 78.1177L108.708 78.6743C108.708 79.716 108.506 80.647 108.102 81.4673C107.705 82.2876 107.132 82.9224 106.383 83.3716C105.641 83.8208 104.782 84.0454 103.805 84.0454C102.314 84.0454 101.12 83.5506 100.221 82.561C99.3293 81.5649 98.8834 80.2401 98.8834 78.5864V78.4692ZM101.256 78.6743C101.256 79.7616 101.481 80.6144 101.93 81.2329C102.379 81.8449 103.004 82.1509 103.805 82.1509C104.606 82.1509 105.228 81.8384 105.67 81.2134C106.12 80.5884 106.344 79.6737 106.344 78.4692C106.344 77.4015 106.113 76.5552 105.651 75.9302C105.195 75.3052 104.573 74.9927 103.786 74.9927C103.011 74.9927 102.396 75.3019 101.94 75.9204C101.484 76.5324 101.256 77.4504 101.256 78.6743ZM114.254 80.4517L116.403 73.2837H118.932L114.733 85.4517C114.088 87.229 112.995 88.1177 111.452 88.1177C111.107 88.1177 110.726 88.0591 110.309 87.9419V86.106L110.758 86.1353C111.357 86.1353 111.807 86.0246 112.106 85.8032C112.412 85.5884 112.653 85.2238 112.829 84.7095L113.17 83.8013L109.46 73.2837H112.018L114.254 80.4517ZM128.258 70.7153V73.2837H130.124V75.0415H128.258V80.9399C128.258 81.3436 128.337 81.6366 128.493 81.8188C128.656 81.9946 128.942 82.0825 129.352 82.0825C129.626 82.0825 129.902 82.05 130.182 81.9849V83.8208C129.642 83.9705 129.121 84.0454 128.62 84.0454C126.797 84.0454 125.885 83.0396 125.885 81.0278V75.0415H124.147V73.2837H125.885V70.7153H128.258ZM134.284 74.436C135.059 73.5376 136.038 73.0884 137.223 73.0884C139.476 73.0884 140.618 74.3742 140.651 76.9458V83.8501H138.278V77.0337C138.278 76.3045 138.118 75.7902 137.799 75.4907C137.487 75.1847 137.025 75.0317 136.413 75.0317C135.462 75.0317 134.753 75.4549 134.284 76.3013V83.8501H131.911V68.8501H134.284V74.436ZM147.712 84.0454C146.208 84.0454 144.987 83.5734 144.049 82.6294C143.118 81.6789 142.653 80.4159 142.653 78.8403V78.5474C142.653 77.4927 142.855 76.5519 143.258 75.7251C143.669 74.8918 144.241 74.244 144.977 73.7817C145.713 73.3195 146.533 73.0884 147.438 73.0884C148.877 73.0884 149.987 73.5474 150.768 74.4653C151.556 75.3833 151.95 76.6821 151.95 78.3618V79.3188H145.045C145.117 80.1912 145.407 80.8813 145.915 81.3892C146.429 81.897 147.073 82.1509 147.848 82.1509C148.935 82.1509 149.821 81.7114 150.504 80.8325L151.784 82.0532C151.361 82.6847 150.794 83.1763 150.085 83.5278C149.381 83.8729 148.59 84.0454 147.712 84.0454ZM147.428 74.9927C146.777 74.9927 146.25 75.2205 145.846 75.6763C145.449 76.132 145.195 76.7668 145.085 77.5806H149.606V77.4048C149.554 76.6105 149.342 76.0116 148.971 75.6079C148.6 75.1978 148.086 74.9927 147.428 74.9927ZM165.094 83.8501C164.99 83.6483 164.899 83.3195 164.821 82.8638C164.066 83.6515 163.141 84.0454 162.047 84.0454C160.986 84.0454 160.12 83.7427 159.45 83.1372C158.779 82.5317 158.444 81.783 158.444 80.8911C158.444 79.7648 158.861 78.9022 159.694 78.3032C160.534 77.6978 161.732 77.395 163.288 77.395H164.743V76.7017C164.743 76.1548 164.59 75.7186 164.284 75.3931C163.978 75.061 163.512 74.895 162.887 74.895C162.347 74.895 161.904 75.0317 161.559 75.3052C161.214 75.5721 161.042 75.9139 161.042 76.3306H158.669C158.669 75.7511 158.861 75.2108 159.245 74.7095C159.629 74.2017 160.15 73.8045 160.807 73.5181C161.471 73.2316 162.21 73.0884 163.024 73.0884C164.261 73.0884 165.247 73.4009 165.983 74.0259C166.719 74.6444 167.096 75.5168 167.116 76.6431V81.4087C167.116 82.3592 167.249 83.1177 167.516 83.6841V83.8501H165.094ZM162.487 82.1411C162.956 82.1411 163.395 82.0272 163.805 81.7993C164.222 81.5715 164.534 81.2655 164.743 80.8813V78.8892H163.463C162.585 78.8892 161.924 79.0422 161.481 79.3481C161.038 79.6541 160.817 80.0871 160.817 80.647C160.817 81.1027 160.967 81.4673 161.266 81.7407C161.572 82.0076 161.979 82.1411 162.487 82.1411ZM178.854 78.6743C178.854 80.3084 178.483 81.6138 177.741 82.5903C176.999 83.5604 176.003 84.0454 174.753 84.0454C173.594 84.0454 172.666 83.6646 171.969 82.9028V87.9126H169.596V73.2837H171.784L171.881 74.3579C172.578 73.5116 173.525 73.0884 174.723 73.0884C176.012 73.0884 177.021 73.5701 177.751 74.5337C178.486 75.4907 178.854 76.8221 178.854 78.5278V78.6743ZM176.491 78.4692C176.491 77.4146 176.279 76.578 175.856 75.9595C175.439 75.341 174.84 75.0317 174.059 75.0317C173.089 75.0317 172.392 75.4321 171.969 76.2329V80.9204C172.399 81.7407 173.102 82.1509 174.079 82.1509C174.834 82.1509 175.423 81.8481 175.846 81.2427C176.276 80.6307 176.491 79.7062 176.491 78.4692ZM190.124 78.6743C190.124 80.3084 189.753 81.6138 189.01 82.5903C188.268 83.5604 187.272 84.0454 186.022 84.0454C184.863 84.0454 183.935 83.6646 183.239 82.9028V87.9126H180.866V73.2837H183.053L183.151 74.3579C183.848 73.5116 184.795 73.0884 185.993 73.0884C187.282 73.0884 188.291 73.5701 189.02 74.5337C189.756 75.4907 190.124 76.8221 190.124 78.5278V78.6743ZM187.76 78.4692C187.76 77.4146 187.549 76.578 187.126 75.9595C186.709 75.341 186.11 75.0317 185.329 75.0317C184.359 75.0317 183.662 75.4321 183.239 76.2329V80.9204C183.669 81.7407 184.372 82.1509 185.348 82.1509C186.103 82.1509 186.693 81.8481 187.116 81.2427C187.545 80.6307 187.76 79.7062 187.76 78.4692Z" fill="#6654A4"/>
<path d="M32.875 123.78C31.5885 123.41 30.651 122.957 30.0625 122.421C29.4792 121.879 29.1875 121.213 29.1875 120.421C29.1875 119.525 29.5443 118.785 30.2578 118.202C30.9766 117.614 31.9089 117.319 33.0547 117.319C33.8359 117.319 34.5312 117.47 35.1406 117.772C35.7552 118.075 36.2292 118.491 36.5625 119.022C36.901 119.554 37.0703 120.134 37.0703 120.765H35.5625C35.5625 120.077 35.3438 119.538 34.9062 119.147C34.4688 118.752 33.8516 118.554 33.0547 118.554C32.3151 118.554 31.737 118.718 31.3203 119.046C30.9089 119.369 30.7031 119.819 30.7031 120.397C30.7031 120.861 30.8984 121.254 31.2891 121.577C31.6849 121.895 32.3542 122.187 33.2969 122.452C34.2448 122.718 34.9844 123.012 35.5156 123.335C36.0521 123.653 36.4479 124.025 36.7031 124.452C36.9635 124.879 37.0938 125.382 37.0938 125.96C37.0938 126.882 36.7344 127.621 36.0156 128.179C35.2969 128.731 34.3359 129.007 33.1328 129.007C32.3516 129.007 31.6224 128.858 30.9453 128.562C30.2682 128.259 29.7448 127.848 29.375 127.327C29.0104 126.806 28.8281 126.215 28.8281 125.554H30.3359C30.3359 126.241 30.5885 126.785 31.0938 127.187C31.6042 127.582 32.2839 127.78 33.1328 127.78C33.9245 127.78 34.5312 127.619 34.9531 127.296C35.375 126.973 35.5859 126.533 35.5859 125.976C35.5859 125.418 35.3906 124.989 35 124.687C34.6094 124.379 33.901 124.077 32.875 123.78ZM40.7578 118.351V120.397H42.3359V121.515H40.7578V126.757C40.7578 127.095 40.8281 127.351 40.9688 127.522C41.1094 127.689 41.349 127.772 41.6875 127.772C41.8542 127.772 42.0833 127.741 42.375 127.679V128.851C41.9948 128.955 41.625 129.007 41.2656 129.007C40.6198 129.007 40.1328 128.812 39.8047 128.421C39.4766 128.03 39.3125 127.476 39.3125 126.757V121.515H37.7734V120.397H39.3125V118.351H40.7578ZM49.25 128.851C49.1667 128.684 49.099 128.387 49.0469 127.96C48.375 128.658 47.5729 129.007 46.6406 129.007C45.8073 129.007 45.1224 128.772 44.5859 128.304C44.0547 127.83 43.7891 127.231 43.7891 126.507C43.7891 125.627 44.1224 124.944 44.7891 124.46C45.4609 123.97 46.4036 123.726 47.6172 123.726H49.0234V123.062C49.0234 122.556 48.8724 122.155 48.5703 121.858C48.2682 121.556 47.8229 121.405 47.2344 121.405C46.7188 121.405 46.2865 121.535 45.9375 121.796C45.5885 122.056 45.4141 122.371 45.4141 122.741H43.9609C43.9609 122.319 44.1094 121.913 44.4062 121.522C44.7083 121.127 45.1146 120.814 45.625 120.585C46.1406 120.356 46.7057 120.241 47.3203 120.241C48.2943 120.241 49.0573 120.486 49.6094 120.976C50.1615 121.46 50.4479 122.129 50.4688 122.983V126.874C50.4688 127.65 50.5677 128.267 50.7656 128.726V128.851H49.25ZM46.8516 127.749C47.3047 127.749 47.7344 127.632 48.1406 127.397C48.5469 127.163 48.8411 126.858 49.0234 126.483V124.749H47.8906C46.1198 124.749 45.2344 125.267 45.2344 126.304C45.2344 126.757 45.3854 127.111 45.6875 127.366C45.9896 127.621 46.3776 127.749 46.8516 127.749ZM56.8203 121.694C56.6016 121.658 56.3646 121.64 56.1094 121.64C55.1615 121.64 54.5182 122.043 54.1797 122.851V128.851H52.7344V120.397H54.1406L54.1641 121.374C54.638 120.619 55.3099 120.241 56.1797 120.241C56.4609 120.241 56.6745 120.278 56.8203 120.351V121.694ZM60.5078 118.351V120.397H62.0859V121.515H60.5078V126.757C60.5078 127.095 60.5781 127.351 60.7188 127.522C60.8594 127.689 61.099 127.772 61.4375 127.772C61.6042 127.772 61.8333 127.741 62.125 127.679V128.851C61.7448 128.955 61.375 129.007 61.0156 129.007C60.3698 129.007 59.8828 128.812 59.5547 128.421C59.2266 128.03 59.0625 127.476 59.0625 126.757V121.515H57.5234V120.397H59.0625V118.351H60.5078ZM71.2578 129.007C70.112 129.007 69.1797 128.632 68.4609 127.882C67.7422 127.127 67.3828 126.119 67.3828 124.858V124.593C67.3828 123.754 67.5417 123.007 67.8594 122.351C68.1823 121.689 68.6302 121.174 69.2031 120.804C69.7812 120.429 70.4062 120.241 71.0781 120.241C72.1771 120.241 73.0312 120.603 73.6406 121.327C74.25 122.051 74.5547 123.088 74.5547 124.437V125.038H68.8281C68.849 125.871 69.0911 126.546 69.5547 127.062C70.0234 127.572 70.6172 127.827 71.3359 127.827C71.8464 127.827 72.2786 127.723 72.6328 127.515C72.987 127.306 73.2969 127.03 73.5625 126.687L74.4453 127.374C73.737 128.463 72.6745 129.007 71.2578 129.007ZM71.0781 121.429C70.4948 121.429 70.0052 121.642 69.6094 122.069C69.2135 122.491 68.9688 123.085 68.875 123.851H73.1094V123.741C73.0677 123.007 72.8698 122.439 72.5156 122.038C72.1615 121.632 71.6823 121.429 71.0781 121.429ZM77.6016 120.397L77.6484 121.46C78.2943 120.647 79.138 120.241 80.1797 120.241C81.9661 120.241 82.8672 121.249 82.8828 123.265V128.851H81.4375V123.257C81.4323 122.647 81.2917 122.197 81.0156 121.905C80.7448 121.614 80.3203 121.468 79.7422 121.468C79.2734 121.468 78.862 121.593 78.5078 121.843C78.1536 122.093 77.8776 122.421 77.6797 122.827V128.851H76.2344V120.397H77.6016ZM86.5547 120.397V129.827C86.5547 131.452 85.8177 132.265 84.3438 132.265C84.026 132.265 83.7318 132.218 83.4609 132.124V130.968C83.6276 131.009 83.8464 131.03 84.1172 131.03C84.4401 131.03 84.6849 130.942 84.8516 130.765C85.0234 130.593 85.1094 130.291 85.1094 129.858V120.397H86.5547ZM84.9609 118.155C84.9609 117.926 85.0312 117.731 85.1719 117.569C85.3177 117.403 85.5286 117.319 85.8047 117.319C86.0859 117.319 86.2995 117.4 86.4453 117.562C86.5911 117.723 86.6641 117.921 86.6641 118.155C86.6641 118.39 86.5911 118.585 86.4453 118.741C86.2995 118.897 86.0859 118.976 85.8047 118.976C85.5234 118.976 85.3125 118.897 85.1719 118.741C85.0312 118.585 84.9609 118.39 84.9609 118.155ZM88.5078 124.546C88.5078 123.718 88.6693 122.973 88.9922 122.312C89.3203 121.65 89.7734 121.14 90.3516 120.78C90.9349 120.421 91.599 120.241 92.3438 120.241C93.4948 120.241 94.4245 120.64 95.1328 121.437C95.8464 122.233 96.2031 123.293 96.2031 124.616V124.718C96.2031 125.541 96.0443 126.28 95.7266 126.937C95.4141 127.588 94.9635 128.095 94.375 128.46C93.7917 128.825 93.1198 129.007 92.3594 129.007C91.2135 129.007 90.2839 128.608 89.5703 127.812C88.862 127.015 88.5078 125.96 88.5078 124.647V124.546ZM89.9609 124.718C89.9609 125.655 90.1771 126.408 90.6094 126.976C91.0469 127.543 91.6302 127.827 92.3594 127.827C93.0938 127.827 93.6771 127.541 94.1094 126.968C94.5417 126.39 94.7578 125.582 94.7578 124.546C94.7578 123.619 94.5365 122.869 94.0938 122.296C93.6562 121.718 93.0729 121.429 92.3438 121.429C91.6302 121.429 91.0547 121.713 90.6172 122.28C90.1797 122.848 89.9609 123.66 89.9609 124.718ZM100.656 126.733L102.625 120.397H104.172L100.773 130.155C100.247 131.562 99.4115 132.265 98.2656 132.265L97.9922 132.241L97.4531 132.14V130.968L97.8438 130.999C98.3333 130.999 98.7135 130.9 98.9844 130.702C99.2604 130.504 99.487 130.142 99.6641 129.616L99.9844 128.757L96.9688 120.397H98.5469L100.656 126.733ZM107.039 128.851H105.594V120.397H107.039V128.851ZM105.477 118.155C105.477 117.921 105.547 117.723 105.688 117.562C105.833 117.4 106.047 117.319 106.328 117.319C106.609 117.319 106.823 117.4 106.969 117.562C107.115 117.723 107.188 117.921 107.188 118.155C107.188 118.39 107.115 118.585 106.969 118.741C106.823 118.897 106.609 118.976 106.328 118.976C106.047 118.976 105.833 118.897 105.688 118.741C105.547 118.585 105.477 118.39 105.477 118.155ZM110.727 120.397L110.773 121.46C111.419 120.647 112.263 120.241 113.305 120.241C115.091 120.241 115.992 121.249 116.008 123.265V128.851H114.562V123.257C114.557 122.647 114.417 122.197 114.141 121.905C113.87 121.614 113.445 121.468 112.867 121.468C112.398 121.468 111.987 121.593 111.633 121.843C111.279 122.093 111.003 122.421 110.805 122.827V128.851H109.359V120.397H110.727ZM117.844 124.554C117.844 123.236 118.148 122.189 118.758 121.413C119.367 120.632 120.174 120.241 121.18 120.241C122.211 120.241 123.016 120.606 123.594 121.335L123.664 120.397H124.984V128.647C124.984 129.741 124.659 130.603 124.008 131.233C123.362 131.864 122.492 132.179 121.398 132.179C120.789 132.179 120.193 132.049 119.609 131.788C119.026 131.528 118.581 131.171 118.273 130.718L119.023 129.851C119.643 130.616 120.401 130.999 121.297 130.999C122 130.999 122.547 130.801 122.938 130.405C123.333 130.009 123.531 129.452 123.531 128.733V128.007C122.953 128.674 122.164 129.007 121.164 129.007C120.174 129.007 119.372 128.608 118.758 127.812C118.148 127.015 117.844 125.929 117.844 124.554ZM119.297 124.718C119.297 125.671 119.492 126.421 119.883 126.968C120.273 127.509 120.82 127.78 121.523 127.78C122.435 127.78 123.104 127.366 123.531 126.538V122.679C123.089 121.871 122.424 121.468 121.539 121.468C120.836 121.468 120.286 121.741 119.891 122.288C119.495 122.835 119.297 123.645 119.297 124.718ZM138.625 126.858L140.25 120.397H141.695L139.234 128.851H138.062L136.008 122.444L134.008 128.851H132.836L130.383 120.397H131.82L133.484 126.726L135.453 120.397H136.617L138.625 126.858ZM144.742 128.851H143.297V120.397H144.742V128.851ZM143.18 118.155C143.18 117.921 143.25 117.723 143.391 117.562C143.536 117.4 143.75 117.319 144.031 117.319C144.312 117.319 144.526 117.4 144.672 117.562C144.818 117.723 144.891 117.921 144.891 118.155C144.891 118.39 144.818 118.585 144.672 118.741C144.526 118.897 144.312 118.976 144.031 118.976C143.75 118.976 143.536 118.897 143.391 118.741C143.25 118.585 143.18 118.39 143.18 118.155ZM149.023 118.351V120.397H150.602V121.515H149.023V126.757C149.023 127.095 149.094 127.351 149.234 127.522C149.375 127.689 149.615 127.772 149.953 127.772C150.12 127.772 150.349 127.741 150.641 127.679V128.851C150.26 128.955 149.891 129.007 149.531 129.007C148.885 129.007 148.398 128.812 148.07 128.421C147.742 128.03 147.578 127.476 147.578 126.757V121.515H146.039V120.397H147.578V118.351H149.023ZM153.742 121.421C154.383 120.634 155.216 120.241 156.242 120.241C158.029 120.241 158.93 121.249 158.945 123.265V128.851H157.5V123.257C157.495 122.647 157.354 122.197 157.078 121.905C156.807 121.614 156.383 121.468 155.805 121.468C155.336 121.468 154.924 121.593 154.57 121.843C154.216 122.093 153.94 122.421 153.742 122.827V128.851H152.297V116.851H153.742V121.421ZM171.734 123.593H166.805V127.624H172.531V128.851H165.305V117.476H172.453V118.71H166.805V122.366H171.734V123.593ZM179.391 128.851C179.307 128.684 179.24 128.387 179.188 127.96C178.516 128.658 177.714 129.007 176.781 129.007C175.948 129.007 175.263 128.772 174.727 128.304C174.195 127.83 173.93 127.231 173.93 126.507C173.93 125.627 174.263 124.944 174.93 124.46C175.602 123.97 176.544 123.726 177.758 123.726H179.164V123.062C179.164 122.556 179.013 122.155 178.711 121.858C178.409 121.556 177.964 121.405 177.375 121.405C176.859 121.405 176.427 121.535 176.078 121.796C175.729 122.056 175.555 122.371 175.555 122.741H174.102C174.102 122.319 174.25 121.913 174.547 121.522C174.849 121.127 175.255 120.814 175.766 120.585C176.281 120.356 176.846 120.241 177.461 120.241C178.435 120.241 179.198 120.486 179.75 120.976C180.302 121.46 180.589 122.129 180.609 122.983V126.874C180.609 127.65 180.708 128.267 180.906 128.726V128.851H179.391ZM176.992 127.749C177.445 127.749 177.875 127.632 178.281 127.397C178.688 127.163 178.982 126.858 179.164 126.483V124.749H178.031C176.26 124.749 175.375 125.267 175.375 126.304C175.375 126.757 175.526 127.111 175.828 127.366C176.13 127.621 176.518 127.749 176.992 127.749ZM187.797 126.608C187.797 126.218 187.648 125.916 187.352 125.702C187.06 125.483 186.547 125.296 185.812 125.14C185.083 124.983 184.503 124.796 184.07 124.577C183.643 124.358 183.326 124.098 183.117 123.796C182.914 123.494 182.812 123.134 182.812 122.718C182.812 122.025 183.104 121.439 183.688 120.96C184.276 120.481 185.026 120.241 185.938 120.241C186.896 120.241 187.672 120.489 188.266 120.983C188.865 121.478 189.164 122.111 189.164 122.882H187.711C187.711 122.486 187.542 122.145 187.203 121.858C186.87 121.572 186.448 121.429 185.938 121.429C185.411 121.429 185 121.543 184.703 121.772C184.406 122.002 184.258 122.301 184.258 122.671C184.258 123.02 184.396 123.283 184.672 123.46C184.948 123.637 185.445 123.806 186.164 123.968C186.888 124.129 187.474 124.322 187.922 124.546C188.37 124.77 188.701 125.041 188.914 125.358C189.133 125.671 189.242 126.054 189.242 126.507C189.242 127.262 188.94 127.869 188.336 128.327C187.732 128.78 186.948 129.007 185.984 129.007C185.307 129.007 184.708 128.887 184.188 128.647C183.667 128.408 183.258 128.075 182.961 127.647C182.669 127.215 182.523 126.749 182.523 126.249H183.969C183.995 126.733 184.188 127.119 184.547 127.405C184.911 127.687 185.391 127.827 185.984 127.827C186.531 127.827 186.969 127.718 187.297 127.499C187.63 127.275 187.797 126.978 187.797 126.608ZM193.891 126.733L195.859 120.397H197.406L194.008 130.155C193.482 131.562 192.646 132.265 191.5 132.265L191.227 132.241L190.688 132.14V130.968L191.078 130.999C191.568 130.999 191.948 130.9 192.219 130.702C192.495 130.504 192.721 130.142 192.898 129.616L193.219 128.757L190.203 120.397H191.781L193.891 126.733ZM207.297 125.241C207.156 126.444 206.711 127.374 205.961 128.03C205.216 128.681 204.224 129.007 202.984 129.007C201.641 129.007 200.562 128.525 199.75 127.562C198.943 126.598 198.539 125.309 198.539 123.694V122.601C198.539 121.543 198.727 120.614 199.102 119.812C199.482 119.009 200.018 118.395 200.711 117.968C201.404 117.535 202.206 117.319 203.117 117.319C204.326 117.319 205.294 117.658 206.023 118.335C206.753 119.007 207.177 119.939 207.297 121.132H205.789C205.659 120.226 205.375 119.569 204.938 119.163C204.505 118.757 203.898 118.554 203.117 118.554C202.159 118.554 201.406 118.908 200.859 119.616C200.318 120.325 200.047 121.332 200.047 122.64V123.741C200.047 124.976 200.305 125.957 200.82 126.687C201.336 127.416 202.057 127.78 202.984 127.78C203.818 127.78 204.456 127.593 204.898 127.218C205.346 126.838 205.643 126.179 205.789 125.241H207.297ZM214.344 128.851C214.26 128.684 214.193 128.387 214.141 127.96C213.469 128.658 212.667 129.007 211.734 129.007C210.901 129.007 210.216 128.772 209.68 128.304C209.148 127.83 208.883 127.231 208.883 126.507C208.883 125.627 209.216 124.944 209.883 124.46C210.555 123.97 211.497 123.726 212.711 123.726H214.117V123.062C214.117 122.556 213.966 122.155 213.664 121.858C213.362 121.556 212.917 121.405 212.328 121.405C211.812 121.405 211.38 121.535 211.031 121.796C210.682 122.056 210.508 122.371 210.508 122.741H209.055C209.055 122.319 209.203 121.913 209.5 121.522C209.802 121.127 210.208 120.814 210.719 120.585C211.234 120.356 211.799 120.241 212.414 120.241C213.388 120.241 214.151 120.486 214.703 120.976C215.255 121.46 215.542 122.129 215.562 122.983V126.874C215.562 127.65 215.661 128.267 215.859 128.726V128.851H214.344ZM211.945 127.749C212.398 127.749 212.828 127.632 213.234 127.397C213.641 127.163 213.935 126.858 214.117 126.483V124.749H212.984C211.214 124.749 210.328 125.267 210.328 126.304C210.328 126.757 210.479 127.111 210.781 127.366C211.083 127.621 211.471 127.749 211.945 127.749ZM222.75 126.608C222.75 126.218 222.602 125.916 222.305 125.702C222.013 125.483 221.5 125.296 220.766 125.14C220.036 124.983 219.456 124.796 219.023 124.577C218.596 124.358 218.279 124.098 218.07 123.796C217.867 123.494 217.766 123.134 217.766 122.718C217.766 122.025 218.057 121.439 218.641 120.96C219.229 120.481 219.979 120.241 220.891 120.241C221.849 120.241 222.625 120.489 223.219 120.983C223.818 121.478 224.117 122.111 224.117 122.882H222.664C222.664 122.486 222.495 122.145 222.156 121.858C221.823 121.572 221.401 121.429 220.891 121.429C220.365 121.429 219.953 121.543 219.656 121.772C219.359 122.002 219.211 122.301 219.211 122.671C219.211 123.02 219.349 123.283 219.625 123.46C219.901 123.637 220.398 123.806 221.117 123.968C221.841 124.129 222.427 124.322 222.875 124.546C223.323 124.77 223.654 125.041 223.867 125.358C224.086 125.671 224.195 126.054 224.195 126.507C224.195 127.262 223.893 127.869 223.289 128.327C222.685 128.78 221.901 129.007 220.938 129.007C220.26 129.007 219.661 128.887 219.141 128.647C218.62 128.408 218.211 128.075 217.914 127.647C217.622 127.215 217.477 126.749 217.477 126.249H218.922C218.948 126.733 219.141 127.119 219.5 127.405C219.865 127.687 220.344 127.827 220.938 127.827C221.484 127.827 221.922 127.718 222.25 127.499C222.583 127.275 222.75 126.978 222.75 126.608ZM227.523 121.421C228.164 120.634 228.997 120.241 230.023 120.241C231.81 120.241 232.711 121.249 232.727 123.265V128.851H231.281V123.257C231.276 122.647 231.135 122.197 230.859 121.905C230.589 121.614 230.164 121.468 229.586 121.468C229.117 121.468 228.706 121.593 228.352 121.843C227.997 122.093 227.721 122.421 227.523 122.827V128.851H226.078V116.851H227.523V121.421ZM72.9609 154.015C72.3984 154.676 71.5729 155.007 70.4844 155.007C69.5833 155.007 68.8958 154.746 68.4219 154.226C67.9531 153.7 67.7161 152.924 67.7109 151.897V146.397H69.1562V151.858C69.1562 153.14 69.6771 153.78 70.7188 153.78C71.8229 153.78 72.5573 153.369 72.9219 152.546V146.397H74.3672V154.851H72.9922L72.9609 154.015ZM77.9375 146.397L77.9844 147.46C78.6302 146.647 79.474 146.241 80.5156 146.241C82.3021 146.241 83.2031 147.249 83.2188 149.265V154.851H81.7734V149.257C81.7682 148.647 81.6276 148.197 81.3516 147.905C81.0807 147.614 80.6562 147.468 80.0781 147.468C79.6094 147.468 79.1979 147.593 78.8438 147.843C78.4896 148.093 78.2135 148.421 78.0156 148.827V154.851H76.5703V146.397H77.9375ZM86.9688 154.851H85.5234V142.851H86.9688V154.851ZM90.8594 154.851H89.4141V146.397H90.8594V154.851ZM89.2969 144.155C89.2969 143.921 89.3672 143.723 89.5078 143.562C89.6536 143.4 89.8672 143.319 90.1484 143.319C90.4297 143.319 90.6432 143.4 90.7891 143.562C90.9349 143.723 91.0078 143.921 91.0078 144.155C91.0078 144.39 90.9349 144.585 90.7891 144.741C90.6432 144.897 90.4297 144.976 90.1484 144.976C89.8672 144.976 89.6536 144.897 89.5078 144.741C89.3672 144.585 89.2969 144.39 89.2969 144.155ZM94.5391 146.397L94.5781 147.335C95.1979 146.606 96.0339 146.241 97.0859 146.241C98.2682 146.241 99.0729 146.694 99.5 147.601C99.7812 147.194 100.146 146.866 100.594 146.616C101.047 146.366 101.581 146.241 102.195 146.241C104.049 146.241 104.992 147.223 105.023 149.187V154.851H103.578V149.272C103.578 148.668 103.44 148.218 103.164 147.921C102.888 147.619 102.424 147.468 101.773 147.468C101.237 147.468 100.792 147.629 100.438 147.952C100.083 148.27 99.8776 148.7 99.8203 149.241V154.851H98.3672V149.312C98.3672 148.082 97.7656 147.468 96.5625 147.468C95.6146 147.468 94.9661 147.871 94.6172 148.679V154.851H93.1719V146.397H94.5391ZM108.781 154.851H107.336V146.397H108.781V154.851ZM107.219 144.155C107.219 143.921 107.289 143.723 107.43 143.562C107.576 143.4 107.789 143.319 108.07 143.319C108.352 143.319 108.565 143.4 108.711 143.562C108.857 143.723 108.93 143.921 108.93 144.155C108.93 144.39 108.857 144.585 108.711 144.741C108.565 144.897 108.352 144.976 108.07 144.976C107.789 144.976 107.576 144.897 107.43 144.741C107.289 144.585 107.219 144.39 107.219 144.155ZM113.062 144.351V146.397H114.641V147.515H113.062V152.757C113.062 153.095 113.133 153.351 113.273 153.522C113.414 153.689 113.654 153.772 113.992 153.772C114.159 153.772 114.388 153.741 114.68 153.679V154.851C114.299 154.955 113.93 155.007 113.57 155.007C112.924 155.007 112.438 154.812 112.109 154.421C111.781 154.03 111.617 153.476 111.617 152.757V147.515H110.078V146.397H111.617V144.351H113.062ZM119.844 155.007C118.698 155.007 117.766 154.632 117.047 153.882C116.328 153.127 115.969 152.119 115.969 150.858V150.593C115.969 149.754 116.128 149.007 116.445 148.351C116.768 147.689 117.216 147.174 117.789 146.804C118.367 146.429 118.992 146.241 119.664 146.241C120.763 146.241 121.617 146.603 122.227 147.327C122.836 148.051 123.141 149.088 123.141 150.437V151.038H117.414C117.435 151.871 117.677 152.546 118.141 153.062C118.609 153.572 119.203 153.827 119.922 153.827C120.432 153.827 120.865 153.723 121.219 153.515C121.573 153.306 121.883 153.03 122.148 152.687L123.031 153.374C122.323 154.463 121.26 155.007 119.844 155.007ZM119.664 147.429C119.081 147.429 118.591 147.642 118.195 148.069C117.799 148.491 117.555 149.085 117.461 149.851H121.695V149.741C121.654 149.007 121.456 148.439 121.102 148.038C120.747 147.632 120.268 147.429 119.664 147.429ZM124.469 150.554C124.469 149.257 124.776 148.215 125.391 147.429C126.005 146.637 126.81 146.241 127.805 146.241C128.794 146.241 129.578 146.58 130.156 147.257V142.851H131.602V154.851H130.273L130.203 153.944C129.625 154.653 128.82 155.007 127.789 155.007C126.81 155.007 126.01 154.606 125.391 153.804C124.776 153.002 124.469 151.955 124.469 150.663V150.554ZM125.914 150.718C125.914 151.676 126.112 152.426 126.508 152.968C126.904 153.509 127.451 153.78 128.148 153.78C129.065 153.78 129.734 153.369 130.156 152.546V148.663C129.724 147.866 129.06 147.468 128.164 147.468C127.456 147.468 126.904 147.741 126.508 148.288C126.112 148.835 125.914 149.645 125.914 150.718ZM138.531 154.851V147.515H137.195V146.397H138.531V145.53C138.531 144.624 138.773 143.924 139.258 143.429C139.742 142.934 140.427 142.687 141.312 142.687C141.646 142.687 141.977 142.731 142.305 142.819L142.227 143.991C141.982 143.944 141.721 143.921 141.445 143.921C140.977 143.921 140.615 144.059 140.359 144.335C140.104 144.606 139.977 144.996 139.977 145.507V146.397H141.781V147.515H139.977V154.851H138.531ZM146.703 155.007C145.557 155.007 144.625 154.632 143.906 153.882C143.188 153.127 142.828 152.119 142.828 150.858V150.593C142.828 149.754 142.987 149.007 143.305 148.351C143.628 147.689 144.076 147.174 144.648 146.804C145.227 146.429 145.852 146.241 146.523 146.241C147.622 146.241 148.477 146.603 149.086 147.327C149.695 148.051 150 149.088 150 150.437V151.038H144.273C144.294 151.871 144.536 152.546 145 153.062C145.469 153.572 146.062 153.827 146.781 153.827C147.292 153.827 147.724 153.723 148.078 153.515C148.432 153.306 148.742 153.03 149.008 152.687L149.891 153.374C149.182 154.463 148.12 155.007 146.703 155.007ZM146.523 147.429C145.94 147.429 145.451 147.642 145.055 148.069C144.659 148.491 144.414 149.085 144.32 149.851H148.555V149.741C148.513 149.007 148.315 148.439 147.961 148.038C147.607 147.632 147.128 147.429 146.523 147.429ZM156.898 154.851C156.815 154.684 156.747 154.387 156.695 153.96C156.023 154.658 155.221 155.007 154.289 155.007C153.456 155.007 152.771 154.772 152.234 154.304C151.703 153.83 151.438 153.231 151.438 152.507C151.438 151.627 151.771 150.944 152.438 150.46C153.109 149.97 154.052 149.726 155.266 149.726H156.672V149.062C156.672 148.556 156.521 148.155 156.219 147.858C155.917 147.556 155.471 147.405 154.883 147.405C154.367 147.405 153.935 147.535 153.586 147.796C153.237 148.056 153.062 148.371 153.062 148.741H151.609C151.609 148.319 151.758 147.913 152.055 147.522C152.357 147.127 152.763 146.814 153.273 146.585C153.789 146.356 154.354 146.241 154.969 146.241C155.943 146.241 156.706 146.486 157.258 146.976C157.81 147.46 158.096 148.129 158.117 148.983V152.874C158.117 153.65 158.216 154.267 158.414 154.726V154.851H156.898ZM154.5 153.749C154.953 153.749 155.383 153.632 155.789 153.397C156.195 153.163 156.49 152.858 156.672 152.483V150.749H155.539C153.768 150.749 152.883 151.267 152.883 152.304C152.883 152.757 153.034 153.111 153.336 153.366C153.638 153.621 154.026 153.749 154.5 153.749ZM162.344 144.351V146.397H163.922V147.515H162.344V152.757C162.344 153.095 162.414 153.351 162.555 153.522C162.695 153.689 162.935 153.772 163.273 153.772C163.44 153.772 163.669 153.741 163.961 153.679V154.851C163.581 154.955 163.211 155.007 162.852 155.007C162.206 155.007 161.719 154.812 161.391 154.421C161.062 154.03 160.898 153.476 160.898 152.757V147.515H159.359V146.397H160.898V144.351H162.344ZM170.836 154.015C170.273 154.676 169.448 155.007 168.359 155.007C167.458 155.007 166.771 154.746 166.297 154.226C165.828 153.7 165.591 152.924 165.586 151.897V146.397H167.031V151.858C167.031 153.14 167.552 153.78 168.594 153.78C169.698 153.78 170.432 153.369 170.797 152.546V146.397H172.242V154.851H170.867L170.836 154.015ZM178.531 147.694C178.312 147.658 178.076 147.64 177.82 147.64C176.872 147.64 176.229 148.043 175.891 148.851V154.851H174.445V146.397H175.852L175.875 147.374C176.349 146.619 177.021 146.241 177.891 146.241C178.172 146.241 178.385 146.278 178.531 146.351V147.694ZM183.219 155.007C182.073 155.007 181.141 154.632 180.422 153.882C179.703 153.127 179.344 152.119 179.344 150.858V150.593C179.344 149.754 179.503 149.007 179.82 148.351C180.143 147.689 180.591 147.174 181.164 146.804C181.742 146.429 182.367 146.241 183.039 146.241C184.138 146.241 184.992 146.603 185.602 147.327C186.211 148.051 186.516 149.088 186.516 150.437V151.038H180.789C180.81 151.871 181.052 152.546 181.516 153.062C181.984 153.572 182.578 153.827 183.297 153.827C183.807 153.827 184.24 153.723 184.594 153.515C184.948 153.306 185.258 153.03 185.523 152.687L186.406 153.374C185.698 154.463 184.635 155.007 183.219 155.007ZM183.039 147.429C182.456 147.429 181.966 147.642 181.57 148.069C181.174 148.491 180.93 149.085 180.836 149.851H185.07V149.741C185.029 149.007 184.831 148.439 184.477 148.038C184.122 147.632 183.643 147.429 183.039 147.429ZM193.117 152.608C193.117 152.218 192.969 151.916 192.672 151.702C192.38 151.483 191.867 151.296 191.133 151.14C190.404 150.983 189.823 150.796 189.391 150.577C188.964 150.358 188.646 150.098 188.438 149.796C188.234 149.494 188.133 149.134 188.133 148.718C188.133 148.025 188.424 147.439 189.008 146.96C189.596 146.481 190.346 146.241 191.258 146.241C192.216 146.241 192.992 146.489 193.586 146.983C194.185 147.478 194.484 148.111 194.484 148.882H193.031C193.031 148.486 192.862 148.145 192.523 147.858C192.19 147.572 191.768 147.429 191.258 147.429C190.732 147.429 190.32 147.543 190.023 147.772C189.727 148.002 189.578 148.301 189.578 148.671C189.578 149.02 189.716 149.283 189.992 149.46C190.268 149.637 190.766 149.806 191.484 149.968C192.208 150.129 192.794 150.322 193.242 150.546C193.69 150.77 194.021 151.041 194.234 151.358C194.453 151.671 194.562 152.054 194.562 152.507C194.562 153.262 194.26 153.869 193.656 154.327C193.052 154.78 192.268 155.007 191.305 155.007C190.628 155.007 190.029 154.887 189.508 154.647C188.987 154.408 188.578 154.075 188.281 153.647C187.99 153.215 187.844 152.749 187.844 152.249H189.289C189.315 152.733 189.508 153.119 189.867 153.405C190.232 153.687 190.711 153.827 191.305 153.827C191.852 153.827 192.289 153.718 192.617 153.499C192.951 153.275 193.117 152.978 193.117 152.608Z" fill="#656668"/>
<path d="M135.803 28.6528C134.396 30.0588 132.489 30.8486 130.5 30.8486C128.511 30.8486 126.604 30.0588 125.197 28.6528H135.803ZM124.875 19.6004H124.894H124.875ZM136.125 19.6004H136.144H136.125ZM147.375 23.3503C147.375 25.5663 146.939 27.7607 146.09 29.808C145.242 31.8554 143.999 33.7156 142.432 35.2826C140.865 36.8496 139.005 38.0926 136.958 38.9406C134.91 39.7886 132.716 40.2251 130.5 40.2251C128.284 40.2251 126.09 39.7886 124.042 38.9406C121.995 38.0926 120.135 36.8496 118.568 35.2826C117.001 33.7156 115.758 31.8554 114.91 29.808C114.061 27.7607 113.625 25.5663 113.625 23.3503C113.625 18.8748 115.403 14.5827 118.568 11.418C121.732 8.2534 126.024 6.47552 130.5 6.47552C134.976 6.47552 139.268 8.2534 142.432 11.418C145.597 14.5827 147.375 18.8748 147.375 23.3503Z" stroke="#6654A4" stroke-width="4" stroke-linecap="round" stroke-linejoin="round"/>
</svg>
