<svg width="45" height="46" viewBox="0 0 45 46" fill="none" xmlns="http://www.w3.org/2000/svg">
<g clip-path="url(#clip0)">
<path d="M36.3872 13.9242C36.8725 13.9242 37.2661 13.5307 37.2661 13.0453V3.48727C37.2661 2.0334 36.0833 0.850586 34.6294 0.850586H2.63721C1.18332 0.850586 0.000488281 2.0334 0.000488281 3.48727V43.2133C0.000488281 44.6672 1.18332 45.85 2.63721 45.85H34.6294C36.0833 45.85 37.2661 44.6672 37.2661 43.2133V36.7383C37.2661 36.2529 36.8725 35.8595 36.3872 35.8595C35.9019 35.8595 35.5083 36.2529 35.5083 36.7383V43.2133C35.5083 43.698 35.114 44.0922 34.6294 44.0922H2.63721C2.15258 44.0922 1.7583 43.698 1.7583 43.2133V3.48727C1.7583 3.00265 2.15258 2.60838 2.63721 2.60838H34.6294C35.114 2.60838 35.5083 3.00265 35.5083 3.48727V13.0453C35.5083 13.5307 35.9019 13.9242 36.3872 13.9242Z" fill="#6654A4"/>
<path d="M18.6335 5.59662C14.1749 5.59662 10.5476 9.22391 10.5476 13.6825C10.5476 15.9954 11.5241 18.0844 13.0861 19.5595C13.1153 19.5908 13.1464 19.6204 13.1805 19.6474C14.6193 20.9639 16.5342 21.7682 18.6335 21.7682C20.7327 21.7682 22.6476 20.9638 24.0865 19.6474C24.1205 19.6204 24.1516 19.5907 24.1808 19.5595C25.743 18.0844 26.7195 15.9954 26.7195 13.6825C26.7195 9.22391 23.0921 5.59662 18.6335 5.59662ZM18.6335 20.0105C17.1984 20.0105 15.8739 19.5296 14.8111 18.7213C15.5836 17.3516 17.0251 16.4949 18.6335 16.4949C20.242 16.4949 21.6835 17.3516 22.456 18.7213C21.3931 19.5296 20.0687 20.0105 18.6335 20.0105ZM17.2273 13.3309V12.7596C17.2273 11.9843 17.8582 11.3534 18.6335 11.3534C19.4089 11.3534 20.0398 11.9843 20.0398 12.7596V13.3309C20.0398 14.1063 19.4089 14.7371 18.6335 14.7371C17.8582 14.7371 17.2273 14.1063 17.2273 13.3309ZM23.7259 17.4338C23.0777 16.4725 22.1794 15.7248 21.1364 15.2632C21.5504 14.7283 21.7976 14.0581 21.7976 13.3309V12.7596C21.7976 11.0149 20.3783 9.59559 18.6335 9.59559C16.8888 9.59559 15.4695 11.0149 15.4695 12.7596V13.3309C15.4695 14.0581 15.7167 14.7283 16.1307 15.2632C15.0877 15.7248 14.1894 16.4725 13.5412 17.4338C12.7652 16.3833 12.3054 15.0858 12.3054 13.6825C12.3054 10.1932 15.1442 7.35441 18.6335 7.35441C22.1229 7.35441 24.9617 10.1932 24.9617 13.6825C24.9617 15.0858 24.5019 16.3833 23.7259 17.4338Z" fill="#6654A4"/>
<path d="M23.3796 39.3462H18.6335C18.1482 39.3462 17.7546 39.7397 17.7546 40.2251C17.7546 40.7105 18.1482 41.104 18.6335 41.104H23.3796C23.865 41.104 24.2585 40.7105 24.2585 40.2251C24.2585 39.7397 23.865 39.3462 23.3796 39.3462Z" fill="#6654A4"/>
<path d="M23.3796 34.4244H10.8992C10.4138 34.4244 10.0203 34.8179 10.0203 35.3033C10.0203 35.7887 10.4138 36.1822 10.8992 36.1822H23.3796C23.865 36.1822 24.2585 35.7887 24.2585 35.3033C24.2585 34.8179 23.865 34.4244 23.3796 34.4244Z" fill="#6654A4"/>
<path d="M23.3796 29.5026H10.8992C10.4138 29.5026 10.0203 29.896 10.0203 30.3815C10.0203 30.8669 10.4138 31.2604 10.8992 31.2604H23.3796C23.865 31.2604 24.2585 30.8669 24.2585 30.3815C24.2585 29.896 23.865 29.5026 23.3796 29.5026Z" fill="#6654A4"/>
<path d="M7.76646 24.8383C7.60307 24.6748 7.37632 24.5808 7.14429 24.5808C6.91305 24.5808 6.68629 24.6748 6.5229 24.8383C6.35942 25.0018 6.26538 25.2285 6.26538 25.4597C6.26538 25.6908 6.35934 25.9176 6.5229 26.0811C6.68726 26.2445 6.91305 26.3386 7.14429 26.3386C7.37632 26.3386 7.6022 26.2445 7.76646 26.0811C7.92994 25.9176 8.02407 25.6908 8.02407 25.4597C8.02407 25.2285 7.93003 25.0018 7.76646 24.8383Z" fill="#6654A4"/>
<path d="M7.76646 29.7601C7.6022 29.5966 7.37632 29.5026 7.14429 29.5026C6.91305 29.5026 6.68726 29.5966 6.5229 29.7601C6.35942 29.9236 6.26538 30.1503 6.26538 30.3815C6.26538 30.6126 6.35934 30.8394 6.5229 31.0028C6.68726 31.1663 6.91305 31.2604 7.14429 31.2604C7.37632 31.2604 7.6022 31.1663 7.76646 31.0028C7.92994 30.8394 8.02407 30.6126 8.02407 30.3815C8.02407 30.1503 7.93003 29.9236 7.76646 29.7601Z" fill="#6654A4"/>
<path d="M7.76646 34.6819C7.6022 34.5184 7.37632 34.4244 7.14429 34.4244C6.91305 34.4244 6.68726 34.5184 6.5229 34.6819C6.35942 34.8454 6.26538 35.0722 6.26538 35.3033C6.26538 35.5345 6.35934 35.7612 6.5229 35.9247C6.68629 36.0882 6.91305 36.1822 7.14429 36.1822C7.37632 36.1822 7.60307 36.0882 7.76646 35.9247C7.92994 35.7612 8.02407 35.5345 8.02407 35.3033C8.02407 35.0722 7.93003 34.8454 7.76646 34.6819Z" fill="#6654A4"/>
<path d="M23.3796 24.5808H10.8992C10.4138 24.5808 10.0203 24.9743 10.0203 25.4597C10.0203 25.9451 10.4138 26.3386 10.8992 26.3386H23.3796C23.865 26.3386 24.2585 25.9451 24.2585 25.4597C24.2585 24.9743 23.865 24.5808 23.3796 24.5808Z" fill="#6654A4"/>
<path d="M43.1547 12.3043C42.3008 11.8113 41.3061 11.6804 40.3535 11.9355C39.4011 12.1908 38.605 12.8016 38.1121 13.6554L27.0518 32.8121C26.9912 32.9171 26.9529 33.0336 26.9395 33.1541L26.1609 40.1276C26.1223 40.4746 26.2926 40.8116 26.5949 40.9863C26.7314 41.065 26.8831 41.104 27.0343 41.104C27.2182 41.104 27.4013 41.0465 27.5556 40.9328L33.2056 36.7718C33.3032 36.6999 33.3849 36.6086 33.4455 36.5036L44.5057 17.3469C45.5235 15.5842 44.9174 13.3221 43.1547 12.3043ZM28.1308 38.3261L28.5373 34.6847L31.0811 36.1533L28.1308 38.3261ZM32.3627 34.8635L29.0136 32.9299L37.8892 17.5571L41.2383 19.4907L32.3627 34.8635ZM42.9835 16.4679L42.1171 17.9684L38.7681 16.0349L39.6344 14.5343C39.8926 14.0871 40.3096 13.7672 40.8084 13.6335C41.3075 13.4997 41.8285 13.5684 42.2757 13.8267C42.723 14.0849 43.0429 14.5018 43.1766 15.0007C43.3103 15.4995 43.2417 16.0206 42.9835 16.4679Z" fill="#6654A4"/>
</g>
<defs>
<clipPath id="clip0">
<rect width="45" height="44.9995" fill="white" transform="translate(0 0.850586)"/>
</clipPath>
</defs>
</svg>
