<svg width="262" height="190" viewBox="0 0 262 190" fill="none" xmlns="http://www.w3.org/2000/svg">
<path d="M75.1724 77.8247H69.4498V83.8501H66.9791V69.6313H76.0123V71.6235H69.4498V75.8521H75.1724V77.8247ZM80.2701 83.8501H77.897V73.2837H80.2701V83.8501ZM77.7506 70.5396C77.7506 70.175 77.8645 69.8722 78.0924 69.6313C78.3267 69.3905 78.6588 69.27 79.0885 69.27C79.5181 69.27 79.8502 69.3905 80.0845 69.6313C80.3189 69.8722 80.4361 70.175 80.4361 70.5396C80.4361 70.8976 80.3189 71.1971 80.0845 71.438C79.8502 71.6724 79.5181 71.7896 79.0885 71.7896C78.6588 71.7896 78.3267 71.6724 78.0924 71.438C77.8645 71.1971 77.7506 70.8976 77.7506 70.5396ZM85.3873 83.8501H83.0142V68.8501H85.3873V83.8501ZM90.5045 83.8501H88.1314V68.8501H90.5045V83.8501ZM104.391 83.8501C104.287 83.6483 104.196 83.3195 104.118 82.8638C103.363 83.6515 102.438 84.0454 101.344 84.0454C100.283 84.0454 99.4172 83.7427 98.7467 83.1372C98.0761 82.5317 97.7408 81.783 97.7408 80.8911C97.7408 79.7648 98.1575 78.9022 98.9908 78.3032C99.8306 77.6978 101.029 77.395 102.585 77.395H104.04V76.7017C104.04 76.1548 103.887 75.7186 103.581 75.3931C103.275 75.061 102.809 74.895 102.184 74.895C101.644 74.895 101.201 75.0317 100.856 75.3052C100.511 75.5721 100.338 75.9139 100.338 76.3306H97.9654C97.9654 75.7511 98.1575 75.2108 98.5416 74.7095C98.9257 74.2017 99.4465 73.8045 100.104 73.5181C100.768 73.2316 101.507 73.0884 102.321 73.0884C103.558 73.0884 104.544 73.4009 105.28 74.0259C106.016 74.6444 106.393 75.5168 106.413 76.6431V81.4087C106.413 82.3592 106.546 83.1177 106.813 83.6841V83.8501H104.391ZM101.784 82.1411C102.253 82.1411 102.692 82.0272 103.102 81.7993C103.519 81.5715 103.831 81.2655 104.04 80.8813V78.8892H102.76C101.881 78.8892 101.221 79.0422 100.778 79.3481C100.335 79.6541 100.114 80.0871 100.114 80.647C100.114 81.1027 100.264 81.4673 100.563 81.7407C100.869 82.0076 101.276 82.1411 101.784 82.1411ZM118.151 78.6743C118.151 80.3084 117.78 81.6138 117.038 82.5903C116.295 83.5604 115.299 84.0454 114.049 84.0454C112.891 84.0454 111.963 83.6646 111.266 82.9028V87.9126H108.893V73.2837H111.081L111.178 74.3579C111.875 73.5116 112.822 73.0884 114.02 73.0884C115.309 73.0884 116.318 73.5701 117.047 74.5337C117.783 75.4907 118.151 76.8221 118.151 78.5278V78.6743ZM115.788 78.4692C115.788 77.4146 115.576 76.578 115.153 75.9595C114.736 75.341 114.137 75.0317 113.356 75.0317C112.386 75.0317 111.689 75.4321 111.266 76.2329V80.9204C111.696 81.7407 112.399 82.1509 113.376 82.1509C114.131 82.1509 114.72 81.8481 115.143 81.2427C115.573 80.6307 115.788 79.7062 115.788 78.4692ZM129.42 78.6743C129.42 80.3084 129.049 81.6138 128.307 82.5903C127.565 83.5604 126.569 84.0454 125.319 84.0454C124.16 84.0454 123.232 83.6646 122.536 82.9028V87.9126H120.163V73.2837H122.35L122.448 74.3579C123.144 73.5116 124.092 73.0884 125.29 73.0884C126.579 73.0884 127.588 73.5701 128.317 74.5337C129.053 75.4907 129.42 76.8221 129.42 78.5278V78.6743ZM127.057 78.4692C127.057 77.4146 126.846 76.578 126.422 75.9595C126.006 75.341 125.407 75.0317 124.626 75.0317C123.656 75.0317 122.959 75.4321 122.536 76.2329V80.9204C122.965 81.7407 123.669 82.1509 124.645 82.1509C125.4 82.1509 125.989 81.8481 126.413 81.2427C126.842 80.6307 127.057 79.7062 127.057 78.4692ZM133.962 83.8501H131.588V68.8501H133.962V83.8501ZM139.079 83.8501H136.706V73.2837H139.079V83.8501ZM136.559 70.5396C136.559 70.175 136.673 69.8722 136.901 69.6313C137.135 69.3905 137.467 69.27 137.897 69.27C138.327 69.27 138.659 69.3905 138.893 69.6313C139.128 69.8722 139.245 70.175 139.245 70.5396C139.245 70.8976 139.128 71.1971 138.893 71.438C138.659 71.6724 138.327 71.7896 137.897 71.7896C137.467 71.7896 137.135 71.6724 136.901 71.438C136.673 71.1971 136.559 70.8976 136.559 70.5396ZM146.012 82.1509C146.605 82.1509 147.096 81.9784 147.487 81.6333C147.878 81.2882 148.086 80.8618 148.112 80.354H150.348C150.322 81.0116 150.117 81.6268 149.733 82.1997C149.349 82.7661 148.828 83.2153 148.17 83.5474C147.513 83.8794 146.803 84.0454 146.042 84.0454C144.564 84.0454 143.392 83.5669 142.526 82.6099C141.66 81.6528 141.227 80.3312 141.227 78.645V78.4009C141.227 76.7928 141.657 75.507 142.516 74.5435C143.376 73.5734 144.547 73.0884 146.032 73.0884C147.288 73.0884 148.31 73.4562 149.098 74.1919C149.892 74.9211 150.309 75.8813 150.348 77.0728H148.112C148.086 76.4673 147.878 75.9692 147.487 75.5786C147.103 75.188 146.611 74.9927 146.012 74.9927C145.244 74.9927 144.652 75.2726 144.235 75.8325C143.818 76.3859 143.607 77.229 143.6 78.3618V78.7427C143.6 79.8885 143.805 80.7446 144.215 81.311C144.632 81.8709 145.231 82.1509 146.012 82.1509ZM158.454 83.8501C158.35 83.6483 158.258 83.3195 158.18 82.8638C157.425 83.6515 156.501 84.0454 155.407 84.0454C154.346 84.0454 153.48 83.7427 152.809 83.1372C152.139 82.5317 151.803 81.783 151.803 80.8911C151.803 79.7648 152.22 78.9022 153.053 78.3032C153.893 77.6978 155.091 77.395 156.647 77.395H158.102V76.7017C158.102 76.1548 157.949 75.7186 157.643 75.3931C157.337 75.061 156.872 74.895 156.247 74.895C155.706 74.895 155.264 75.0317 154.919 75.3052C154.573 75.5721 154.401 75.9139 154.401 76.3306H152.028C152.028 75.7511 152.22 75.2108 152.604 74.7095C152.988 74.2017 153.509 73.8045 154.167 73.5181C154.831 73.2316 155.57 73.0884 156.383 73.0884C157.62 73.0884 158.607 73.4009 159.342 74.0259C160.078 74.6444 160.456 75.5168 160.475 76.6431V81.4087C160.475 82.3592 160.609 83.1177 160.876 83.6841V83.8501H158.454ZM155.846 82.1411C156.315 82.1411 156.754 82.0272 157.165 81.7993C157.581 81.5715 157.894 81.2655 158.102 80.8813V78.8892H156.823C155.944 78.8892 155.283 79.0422 154.84 79.3481C154.398 79.6541 154.176 80.0871 154.176 80.647C154.176 81.1027 154.326 81.4673 154.626 81.7407C154.932 82.0076 155.338 82.1411 155.846 82.1411ZM165.934 70.7153V73.2837H167.799V75.0415H165.934V80.9399C165.934 81.3436 166.012 81.6366 166.169 81.8188C166.331 81.9946 166.618 82.0825 167.028 82.0825C167.301 82.0825 167.578 82.05 167.858 81.9849V83.8208C167.318 83.9705 166.797 84.0454 166.295 84.0454C164.473 84.0454 163.561 83.0396 163.561 81.0278V75.0415H161.823V73.2837H163.561V70.7153H165.934ZM172.145 83.8501H169.772V73.2837H172.145V83.8501ZM169.626 70.5396C169.626 70.175 169.739 69.8722 169.967 69.6313C170.202 69.3905 170.534 69.27 170.963 69.27C171.393 69.27 171.725 69.3905 171.96 69.6313C172.194 69.8722 172.311 70.175 172.311 70.5396C172.311 70.8976 172.194 71.1971 171.96 71.438C171.725 71.6724 171.393 71.7896 170.963 71.7896C170.534 71.7896 170.202 71.6724 169.967 71.438C169.739 71.1971 169.626 70.8976 169.626 70.5396ZM174.294 78.4692C174.294 77.4341 174.499 76.5031 174.909 75.6763C175.319 74.8429 175.895 74.2049 176.637 73.7622C177.379 73.313 178.232 73.0884 179.196 73.0884C180.622 73.0884 181.777 73.5474 182.663 74.4653C183.555 75.3833 184.036 76.6007 184.108 78.1177L184.118 78.6743C184.118 79.716 183.916 80.647 183.512 81.4673C183.115 82.2876 182.542 82.9224 181.794 83.3716C181.051 83.8208 180.192 84.0454 179.215 84.0454C177.725 84.0454 176.53 83.5506 175.631 82.561C174.739 81.5649 174.294 80.2401 174.294 78.5864V78.4692ZM176.667 78.6743C176.667 79.7616 176.891 80.6144 177.34 81.2329C177.79 81.8449 178.415 82.1509 179.215 82.1509C180.016 82.1509 180.638 81.8384 181.081 81.2134C181.53 80.5884 181.754 79.6737 181.754 78.4692C181.754 77.4015 181.523 76.5552 181.061 75.9302C180.605 75.3052 179.984 74.9927 179.196 74.9927C178.421 74.9927 177.806 75.3019 177.35 75.9204C176.894 76.5324 176.667 77.4504 176.667 78.6743ZM188.327 73.2837L188.395 74.5044C189.176 73.5604 190.202 73.0884 191.471 73.0884C193.672 73.0884 194.792 74.3481 194.831 76.8677V83.8501H192.458V77.0044C192.458 76.3338 192.311 75.839 192.018 75.52C191.732 75.1945 191.26 75.0317 190.602 75.0317C189.645 75.0317 188.932 75.4647 188.463 76.3306V83.8501H186.09V73.2837H188.327Z" fill="#6654A4"/>
<path d="M38.375 126.858L41.625 117.476H43.2656L39.0469 128.851H37.7188L33.5078 117.476H35.1406L38.375 126.858ZM46.1406 128.851H44.6953V120.397H46.1406V128.851ZM44.5781 118.155C44.5781 117.921 44.6484 117.723 44.7891 117.562C44.9349 117.4 45.1484 117.319 45.4297 117.319C45.7109 117.319 45.9245 117.4 46.0703 117.562C46.2161 117.723 46.2891 117.921 46.2891 118.155C46.2891 118.39 46.2161 118.585 46.0703 118.741C45.9245 118.897 45.7109 118.976 45.4297 118.976C45.1484 118.976 44.9349 118.897 44.7891 118.741C44.6484 118.585 44.5781 118.39 44.5781 118.155ZM53.3828 126.608C53.3828 126.218 53.2344 125.916 52.9375 125.702C52.6458 125.483 52.1328 125.296 51.3984 125.14C50.6693 124.983 50.0885 124.796 49.6562 124.577C49.2292 124.358 48.9115 124.098 48.7031 123.796C48.5 123.494 48.3984 123.134 48.3984 122.718C48.3984 122.025 48.6901 121.439 49.2734 120.96C49.862 120.481 50.612 120.241 51.5234 120.241C52.4818 120.241 53.2578 120.489 53.8516 120.983C54.4505 121.478 54.75 122.111 54.75 122.882H53.2969C53.2969 122.486 53.1276 122.145 52.7891 121.858C52.4557 121.572 52.0339 121.429 51.5234 121.429C50.9974 121.429 50.5859 121.543 50.2891 121.772C49.9922 122.002 49.8438 122.301 49.8438 122.671C49.8438 123.02 49.9818 123.283 50.2578 123.46C50.5339 123.637 51.0312 123.806 51.75 123.968C52.474 124.129 53.0599 124.322 53.5078 124.546C53.9557 124.77 54.2865 125.041 54.5 125.358C54.7188 125.671 54.8281 126.054 54.8281 126.507C54.8281 127.262 54.526 127.869 53.9219 128.327C53.3177 128.78 52.5339 129.007 51.5703 129.007C50.8932 129.007 50.2943 128.887 49.7734 128.647C49.2526 128.408 48.8438 128.075 48.5469 127.647C48.2552 127.215 48.1094 126.749 48.1094 126.249H49.5547C49.5807 126.733 49.7734 127.119 50.1328 127.405C50.4974 127.687 50.9766 127.827 51.5703 127.827C52.1172 127.827 52.5547 127.718 52.8828 127.499C53.2161 127.275 53.3828 126.978 53.3828 126.608ZM58.2812 128.851H56.8359V120.397H58.2812V128.851ZM56.7188 118.155C56.7188 117.921 56.7891 117.723 56.9297 117.562C57.0755 117.4 57.2891 117.319 57.5703 117.319C57.8516 117.319 58.0651 117.4 58.2109 117.562C58.3568 117.723 58.4297 117.921 58.4297 118.155C58.4297 118.39 58.3568 118.585 58.2109 118.741C58.0651 118.897 57.8516 118.976 57.5703 118.976C57.2891 118.976 57.0755 118.897 56.9297 118.741C56.7891 118.585 56.7188 118.39 56.7188 118.155ZM62.5625 118.351V120.397H64.1406V121.515H62.5625V126.757C62.5625 127.095 62.6328 127.351 62.7734 127.522C62.9141 127.689 63.1536 127.772 63.4922 127.772C63.6589 127.772 63.888 127.741 64.1797 127.679V128.851C63.7995 128.955 63.4297 129.007 63.0703 129.007C62.4245 129.007 61.9375 128.812 61.6094 128.421C61.2812 128.03 61.1172 127.476 61.1172 126.757V121.515H59.5781V120.397H61.1172V118.351H62.5625ZM69.4219 124.546C69.4219 123.718 69.5833 122.973 69.9062 122.312C70.2344 121.65 70.6875 121.14 71.2656 120.78C71.849 120.421 72.513 120.241 73.2578 120.241C74.4089 120.241 75.3385 120.64 76.0469 121.437C76.7604 122.233 77.1172 123.293 77.1172 124.616V124.718C77.1172 125.541 76.9583 126.28 76.6406 126.937C76.3281 127.588 75.8776 128.095 75.2891 128.46C74.7057 128.825 74.0339 129.007 73.2734 129.007C72.1276 129.007 71.1979 128.608 70.4844 127.812C69.776 127.015 69.4219 125.96 69.4219 124.647V124.546ZM70.875 124.718C70.875 125.655 71.0911 126.408 71.5234 126.976C71.9609 127.543 72.5443 127.827 73.2734 127.827C74.0078 127.827 74.5911 127.541 75.0234 126.968C75.4557 126.39 75.6719 125.582 75.6719 124.546C75.6719 123.619 75.4505 122.869 75.0078 122.296C74.5703 121.718 73.987 121.429 73.2578 121.429C72.5443 121.429 71.9688 121.713 71.5312 122.28C71.0938 122.848 70.875 123.66 70.875 124.718ZM80.2969 120.397L80.3438 121.46C80.9896 120.647 81.8333 120.241 82.875 120.241C84.6615 120.241 85.5625 121.249 85.5781 123.265V128.851H84.1328V123.257C84.1276 122.647 83.987 122.197 83.7109 121.905C83.4401 121.614 83.0156 121.468 82.4375 121.468C81.9688 121.468 81.5573 121.593 81.2031 121.843C80.849 122.093 80.5729 122.421 80.375 122.827V128.851H78.9297V120.397H80.2969ZM91.2656 129.007C90.1198 129.007 89.1875 128.632 88.4688 127.882C87.75 127.127 87.3906 126.119 87.3906 124.858V124.593C87.3906 123.754 87.5495 123.007 87.8672 122.351C88.1901 121.689 88.638 121.174 89.2109 120.804C89.7891 120.429 90.4141 120.241 91.0859 120.241C92.1849 120.241 93.0391 120.603 93.6484 121.327C94.2578 122.051 94.5625 123.088 94.5625 124.437V125.038H88.8359C88.8568 125.871 89.099 126.546 89.5625 127.062C90.0312 127.572 90.625 127.827 91.3438 127.827C91.8542 127.827 92.2865 127.723 92.6406 127.515C92.9948 127.306 93.3047 127.03 93.5703 126.687L94.4531 127.374C93.7448 128.463 92.6823 129.007 91.2656 129.007ZM91.0859 121.429C90.5026 121.429 90.013 121.642 89.6172 122.069C89.2214 122.491 88.9766 123.085 88.8828 123.851H93.1172V123.741C93.0755 123.007 92.8776 122.439 92.5234 122.038C92.1693 121.632 91.6901 121.429 91.0859 121.429ZM99.8281 124.546C99.8281 123.718 99.9896 122.973 100.312 122.312C100.641 121.65 101.094 121.14 101.672 120.78C102.255 120.421 102.919 120.241 103.664 120.241C104.815 120.241 105.745 120.64 106.453 121.437C107.167 122.233 107.523 123.293 107.523 124.616V124.718C107.523 125.541 107.365 126.28 107.047 126.937C106.734 127.588 106.284 128.095 105.695 128.46C105.112 128.825 104.44 129.007 103.68 129.007C102.534 129.007 101.604 128.608 100.891 127.812C100.182 127.015 99.8281 125.96 99.8281 124.647V124.546ZM101.281 124.718C101.281 125.655 101.497 126.408 101.93 126.976C102.367 127.543 102.951 127.827 103.68 127.827C104.414 127.827 104.997 127.541 105.43 126.968C105.862 126.39 106.078 125.582 106.078 124.546C106.078 123.619 105.857 122.869 105.414 122.296C104.977 121.718 104.393 121.429 103.664 121.429C102.951 121.429 102.375 121.713 101.938 122.28C101.5 122.848 101.281 123.66 101.281 124.718ZM110.047 128.851V121.515H108.711V120.397H110.047V119.53C110.047 118.624 110.289 117.924 110.773 117.429C111.258 116.934 111.943 116.687 112.828 116.687C113.161 116.687 113.492 116.731 113.82 116.819L113.742 117.991C113.497 117.944 113.237 117.921 112.961 117.921C112.492 117.921 112.13 118.059 111.875 118.335C111.62 118.606 111.492 118.996 111.492 119.507V120.397H113.297V121.515H111.492V128.851H110.047ZM118.484 124.546C118.484 123.718 118.646 122.973 118.969 122.312C119.297 121.65 119.75 121.14 120.328 120.78C120.911 120.421 121.576 120.241 122.32 120.241C123.471 120.241 124.401 120.64 125.109 121.437C125.823 122.233 126.18 123.293 126.18 124.616V124.718C126.18 125.541 126.021 126.28 125.703 126.937C125.391 127.588 124.94 128.095 124.352 128.46C123.768 128.825 123.096 129.007 122.336 129.007C121.19 129.007 120.26 128.608 119.547 127.812C118.839 127.015 118.484 125.96 118.484 124.647V124.546ZM119.938 124.718C119.938 125.655 120.154 126.408 120.586 126.976C121.023 127.543 121.607 127.827 122.336 127.827C123.07 127.827 123.654 127.541 124.086 126.968C124.518 126.39 124.734 125.582 124.734 124.546C124.734 123.619 124.513 122.869 124.07 122.296C123.633 121.718 123.049 121.429 122.32 121.429C121.607 121.429 121.031 121.713 120.594 122.28C120.156 122.848 119.938 123.66 119.938 124.718ZM133.211 128.015C132.648 128.676 131.823 129.007 130.734 129.007C129.833 129.007 129.146 128.746 128.672 128.226C128.203 127.7 127.966 126.924 127.961 125.897V120.397H129.406V125.858C129.406 127.14 129.927 127.78 130.969 127.78C132.073 127.78 132.807 127.369 133.172 126.546V120.397H134.617V128.851H133.242L133.211 128.015ZM140.906 121.694C140.688 121.658 140.451 121.64 140.195 121.64C139.247 121.64 138.604 122.043 138.266 122.851V128.851H136.82V120.397H138.227L138.25 121.374C138.724 120.619 139.396 120.241 140.266 120.241C140.547 120.241 140.76 120.278 140.906 120.351V121.694ZM147.781 128.851H146.336V116.851H147.781V128.851ZM149.719 124.546C149.719 123.718 149.88 122.973 150.203 122.312C150.531 121.65 150.984 121.14 151.562 120.78C152.146 120.421 152.81 120.241 153.555 120.241C154.706 120.241 155.635 120.64 156.344 121.437C157.057 122.233 157.414 123.293 157.414 124.616V124.718C157.414 125.541 157.255 126.28 156.938 126.937C156.625 127.588 156.174 128.095 155.586 128.46C155.003 128.825 154.331 129.007 153.57 129.007C152.424 129.007 151.495 128.608 150.781 127.812C150.073 127.015 149.719 125.96 149.719 124.647V124.546ZM151.172 124.718C151.172 125.655 151.388 126.408 151.82 126.976C152.258 127.543 152.841 127.827 153.57 127.827C154.305 127.827 154.888 127.541 155.32 126.968C155.753 126.39 155.969 125.582 155.969 124.546C155.969 123.619 155.747 122.869 155.305 122.296C154.867 121.718 154.284 121.429 153.555 121.429C152.841 121.429 152.266 121.713 151.828 122.28C151.391 122.848 151.172 123.66 151.172 124.718ZM162.617 127.827C163.133 127.827 163.583 127.671 163.969 127.358C164.354 127.046 164.568 126.655 164.609 126.187H165.977C165.951 126.671 165.784 127.132 165.477 127.569C165.169 128.007 164.758 128.356 164.242 128.616C163.732 128.877 163.19 129.007 162.617 129.007C161.466 129.007 160.549 128.624 159.867 127.858C159.19 127.088 158.852 126.035 158.852 124.702V124.46C158.852 123.637 159.003 122.905 159.305 122.265C159.607 121.624 160.039 121.127 160.602 120.772C161.169 120.418 161.839 120.241 162.609 120.241C163.557 120.241 164.344 120.525 164.969 121.093C165.599 121.66 165.935 122.397 165.977 123.304H164.609C164.568 122.757 164.359 122.309 163.984 121.96C163.615 121.606 163.156 121.429 162.609 121.429C161.875 121.429 161.305 121.694 160.898 122.226C160.497 122.752 160.297 123.515 160.297 124.515V124.788C160.297 125.762 160.497 126.512 160.898 127.038C161.299 127.564 161.872 127.827 162.617 127.827ZM172.82 128.851C172.737 128.684 172.669 128.387 172.617 127.96C171.945 128.658 171.143 129.007 170.211 129.007C169.378 129.007 168.693 128.772 168.156 128.304C167.625 127.83 167.359 127.231 167.359 126.507C167.359 125.627 167.693 124.944 168.359 124.46C169.031 123.97 169.974 123.726 171.188 123.726H172.594V123.062C172.594 122.556 172.443 122.155 172.141 121.858C171.839 121.556 171.393 121.405 170.805 121.405C170.289 121.405 169.857 121.535 169.508 121.796C169.159 122.056 168.984 122.371 168.984 122.741H167.531C167.531 122.319 167.68 121.913 167.977 121.522C168.279 121.127 168.685 120.814 169.195 120.585C169.711 120.356 170.276 120.241 170.891 120.241C171.865 120.241 172.628 120.486 173.18 120.976C173.732 121.46 174.018 122.129 174.039 122.983V126.874C174.039 127.65 174.138 128.267 174.336 128.726V128.851H172.82ZM170.422 127.749C170.875 127.749 171.305 127.632 171.711 127.397C172.117 127.163 172.411 126.858 172.594 126.483V124.749H171.461C169.69 124.749 168.805 125.267 168.805 126.304C168.805 126.757 168.956 127.111 169.258 127.366C169.56 127.621 169.948 127.749 170.422 127.749ZM178.266 118.351V120.397H179.844V121.515H178.266V126.757C178.266 127.095 178.336 127.351 178.477 127.522C178.617 127.689 178.857 127.772 179.195 127.772C179.362 127.772 179.591 127.741 179.883 127.679V128.851C179.503 128.955 179.133 129.007 178.773 129.007C178.128 129.007 177.641 128.812 177.312 128.421C176.984 128.03 176.82 127.476 176.82 126.757V121.515H175.281V120.397H176.82V118.351H178.266ZM183.109 128.851H181.664V120.397H183.109V128.851ZM181.547 118.155C181.547 117.921 181.617 117.723 181.758 117.562C181.904 117.4 182.117 117.319 182.398 117.319C182.68 117.319 182.893 117.4 183.039 117.562C183.185 117.723 183.258 117.921 183.258 118.155C183.258 118.39 183.185 118.585 183.039 118.741C182.893 118.897 182.68 118.976 182.398 118.976C182.117 118.976 181.904 118.897 181.758 118.741C181.617 118.585 181.547 118.39 181.547 118.155ZM185.047 124.546C185.047 123.718 185.208 122.973 185.531 122.312C185.859 121.65 186.312 121.14 186.891 120.78C187.474 120.421 188.138 120.241 188.883 120.241C190.034 120.241 190.964 120.64 191.672 121.437C192.385 122.233 192.742 123.293 192.742 124.616V124.718C192.742 125.541 192.583 126.28 192.266 126.937C191.953 127.588 191.503 128.095 190.914 128.46C190.331 128.825 189.659 129.007 188.898 129.007C187.753 129.007 186.823 128.608 186.109 127.812C185.401 127.015 185.047 125.96 185.047 124.647V124.546ZM186.5 124.718C186.5 125.655 186.716 126.408 187.148 126.976C187.586 127.543 188.169 127.827 188.898 127.827C189.633 127.827 190.216 127.541 190.648 126.968C191.081 126.39 191.297 125.582 191.297 124.546C191.297 123.619 191.076 122.869 190.633 122.296C190.195 121.718 189.612 121.429 188.883 121.429C188.169 121.429 187.594 121.713 187.156 122.28C186.719 122.848 186.5 123.66 186.5 124.718ZM195.922 120.397L195.969 121.46C196.615 120.647 197.458 120.241 198.5 120.241C200.286 120.241 201.188 121.249 201.203 123.265V128.851H199.758V123.257C199.753 122.647 199.612 122.197 199.336 121.905C199.065 121.614 198.641 121.468 198.062 121.468C197.594 121.468 197.182 121.593 196.828 121.843C196.474 122.093 196.198 122.421 196 122.827V128.851H194.555V120.397H195.922ZM208.305 126.608C208.305 126.218 208.156 125.916 207.859 125.702C207.568 125.483 207.055 125.296 206.32 125.14C205.591 124.983 205.01 124.796 204.578 124.577C204.151 124.358 203.833 124.098 203.625 123.796C203.422 123.494 203.32 123.134 203.32 122.718C203.32 122.025 203.612 121.439 204.195 120.96C204.784 120.481 205.534 120.241 206.445 120.241C207.404 120.241 208.18 120.489 208.773 120.983C209.372 121.478 209.672 122.111 209.672 122.882H208.219C208.219 122.486 208.049 122.145 207.711 121.858C207.378 121.572 206.956 121.429 206.445 121.429C205.919 121.429 205.508 121.543 205.211 121.772C204.914 122.002 204.766 122.301 204.766 122.671C204.766 123.02 204.904 123.283 205.18 123.46C205.456 123.637 205.953 123.806 206.672 123.968C207.396 124.129 207.982 124.322 208.43 124.546C208.878 124.77 209.208 125.041 209.422 125.358C209.641 125.671 209.75 126.054 209.75 126.507C209.75 127.262 209.448 127.869 208.844 128.327C208.24 128.78 207.456 129.007 206.492 129.007C205.815 129.007 205.216 128.887 204.695 128.647C204.174 128.408 203.766 128.075 203.469 127.647C203.177 127.215 203.031 126.749 203.031 126.249H204.477C204.503 126.733 204.695 127.119 205.055 127.405C205.419 127.687 205.898 127.827 206.492 127.827C207.039 127.827 207.477 127.718 207.805 127.499C208.138 127.275 208.305 126.978 208.305 126.608ZM217.562 118.351V120.397H219.141V121.515H217.562V126.757C217.562 127.095 217.633 127.351 217.773 127.522C217.914 127.689 218.154 127.772 218.492 127.772C218.659 127.772 218.888 127.741 219.18 127.679V128.851C218.799 128.955 218.43 129.007 218.07 129.007C217.424 129.007 216.938 128.812 216.609 128.421C216.281 128.03 216.117 127.476 216.117 126.757V121.515H214.578V120.397H216.117V118.351H217.562ZM220.297 124.546C220.297 123.718 220.458 122.973 220.781 122.312C221.109 121.65 221.562 121.14 222.141 120.78C222.724 120.421 223.388 120.241 224.133 120.241C225.284 120.241 226.214 120.64 226.922 121.437C227.635 122.233 227.992 123.293 227.992 124.616V124.718C227.992 125.541 227.833 126.28 227.516 126.937C227.203 127.588 226.753 128.095 226.164 128.46C225.581 128.825 224.909 129.007 224.148 129.007C223.003 129.007 222.073 128.608 221.359 127.812C220.651 127.015 220.297 125.96 220.297 124.647V124.546ZM221.75 124.718C221.75 125.655 221.966 126.408 222.398 126.976C222.836 127.543 223.419 127.827 224.148 127.827C224.883 127.827 225.466 127.541 225.898 126.968C226.331 126.39 226.547 125.582 226.547 124.546C226.547 123.619 226.326 122.869 225.883 122.296C225.445 121.718 224.862 121.429 224.133 121.429C223.419 121.429 222.844 121.713 222.406 122.28C221.969 122.848 221.75 123.66 221.75 124.718ZM67.4766 152.89L69.5703 146.397H71.0469L68.0156 154.851H66.9141L63.8516 146.397H65.3281L67.4766 152.89ZM75.8359 155.007C74.6901 155.007 73.7578 154.632 73.0391 153.882C72.3203 153.127 71.9609 152.119 71.9609 150.858V150.593C71.9609 149.754 72.1198 149.007 72.4375 148.351C72.7604 147.689 73.2083 147.174 73.7812 146.804C74.3594 146.429 74.9844 146.241 75.6562 146.241C76.7552 146.241 77.6094 146.603 78.2188 147.327C78.8281 148.051 79.1328 149.088 79.1328 150.437V151.038H73.4062C73.4271 151.871 73.6693 152.546 74.1328 153.062C74.6016 153.572 75.1953 153.827 75.9141 153.827C76.4245 153.827 76.8568 153.723 77.2109 153.515C77.5651 153.306 77.875 153.03 78.1406 152.687L79.0234 153.374C78.3151 154.463 77.2526 155.007 75.8359 155.007ZM75.6562 147.429C75.0729 147.429 74.5833 147.642 74.1875 148.069C73.7917 148.491 73.5469 149.085 73.4531 149.851H77.6875V149.741C77.6458 149.007 77.4479 148.439 77.0938 148.038C76.7396 147.632 76.2604 147.429 75.6562 147.429ZM84.8984 147.694C84.6797 147.658 84.4427 147.64 84.1875 147.64C83.2396 147.64 82.5964 148.043 82.2578 148.851V154.851H80.8125V146.397H82.2188L82.2422 147.374C82.7161 146.619 83.388 146.241 84.2578 146.241C84.5391 146.241 84.7526 146.278 84.8984 146.351V147.694ZM87.8047 154.851H86.3594V146.397H87.8047V154.851ZM86.2422 144.155C86.2422 143.921 86.3125 143.723 86.4531 143.562C86.599 143.4 86.8125 143.319 87.0938 143.319C87.375 143.319 87.5885 143.4 87.7344 143.562C87.8802 143.723 87.9531 143.921 87.9531 144.155C87.9531 144.39 87.8802 144.585 87.7344 144.741C87.5885 144.897 87.375 144.976 87.0938 144.976C86.8125 144.976 86.599 144.897 86.4531 144.741C86.3125 144.585 86.2422 144.39 86.2422 144.155ZM90.8359 154.851V147.515H89.5V146.397H90.8359V145.53C90.8359 144.624 91.0781 143.924 91.5625 143.429C92.0469 142.934 92.7318 142.687 93.6172 142.687C93.9505 142.687 94.2812 142.731 94.6094 142.819L94.5312 143.991C94.2865 143.944 94.026 143.921 93.75 143.921C93.2812 143.921 92.9193 144.059 92.6641 144.335C92.4089 144.606 92.2812 144.996 92.2812 145.507V146.397H94.0859V147.515H92.2812V154.851H90.8359ZM98.4531 152.733L100.422 146.397H101.969L98.5703 156.155C98.0443 157.562 97.2083 158.265 96.0625 158.265L95.7891 158.241L95.25 158.14V156.968L95.6406 156.999C96.1302 156.999 96.5104 156.9 96.7812 156.702C97.0573 156.504 97.2839 156.142 97.4609 155.616L97.7812 154.757L94.7656 146.397H96.3438L98.4531 152.733ZM110 152.733L111.969 146.397H113.516L110.117 156.155C109.591 157.562 108.755 158.265 107.609 158.265L107.336 158.241L106.797 158.14V156.968L107.188 156.999C107.677 156.999 108.057 156.9 108.328 156.702C108.604 156.504 108.831 156.142 109.008 155.616L109.328 154.757L106.312 146.397H107.891L110 152.733ZM114.305 150.546C114.305 149.718 114.466 148.973 114.789 148.312C115.117 147.65 115.57 147.14 116.148 146.78C116.732 146.421 117.396 146.241 118.141 146.241C119.292 146.241 120.221 146.64 120.93 147.437C121.643 148.233 122 149.293 122 150.616V150.718C122 151.541 121.841 152.28 121.523 152.937C121.211 153.588 120.76 154.095 120.172 154.46C119.589 154.825 118.917 155.007 118.156 155.007C117.01 155.007 116.081 154.608 115.367 153.812C114.659 153.015 114.305 151.96 114.305 150.647V150.546ZM115.758 150.718C115.758 151.655 115.974 152.408 116.406 152.976C116.844 153.543 117.427 153.827 118.156 153.827C118.891 153.827 119.474 153.541 119.906 152.968C120.339 152.39 120.555 151.582 120.555 150.546C120.555 149.619 120.333 148.869 119.891 148.296C119.453 147.718 118.87 147.429 118.141 147.429C117.427 147.429 116.852 147.713 116.414 148.28C115.977 148.848 115.758 149.66 115.758 150.718ZM129.031 154.015C128.469 154.676 127.643 155.007 126.555 155.007C125.654 155.007 124.966 154.746 124.492 154.226C124.023 153.7 123.786 152.924 123.781 151.897V146.397H125.227V151.858C125.227 153.14 125.747 153.78 126.789 153.78C127.893 153.78 128.628 153.369 128.992 152.546V146.397H130.438V154.851H129.062L129.031 154.015ZM136.727 147.694C136.508 147.658 136.271 147.64 136.016 147.64C135.068 147.64 134.424 148.043 134.086 148.851V154.851H132.641V146.397H134.047L134.07 147.374C134.544 146.619 135.216 146.241 136.086 146.241C136.367 146.241 136.581 146.278 136.727 146.351V147.694ZM147.25 154.851C147.167 154.684 147.099 154.387 147.047 153.96C146.375 154.658 145.573 155.007 144.641 155.007C143.807 155.007 143.122 154.772 142.586 154.304C142.055 153.83 141.789 153.231 141.789 152.507C141.789 151.627 142.122 150.944 142.789 150.46C143.461 149.97 144.404 149.726 145.617 149.726H147.023V149.062C147.023 148.556 146.872 148.155 146.57 147.858C146.268 147.556 145.823 147.405 145.234 147.405C144.719 147.405 144.286 147.535 143.938 147.796C143.589 148.056 143.414 148.371 143.414 148.741H141.961C141.961 148.319 142.109 147.913 142.406 147.522C142.708 147.127 143.115 146.814 143.625 146.585C144.141 146.356 144.706 146.241 145.32 146.241C146.294 146.241 147.057 146.486 147.609 146.976C148.161 147.46 148.448 148.129 148.469 148.983V152.874C148.469 153.65 148.568 154.267 148.766 154.726V154.851H147.25ZM144.852 153.749C145.305 153.749 145.734 153.632 146.141 153.397C146.547 153.163 146.841 152.858 147.023 152.483V150.749H145.891C144.12 150.749 143.234 151.267 143.234 152.304C143.234 152.757 143.385 153.111 143.688 153.366C143.99 153.621 144.378 153.749 144.852 153.749ZM154.125 153.827C154.641 153.827 155.091 153.671 155.477 153.358C155.862 153.046 156.076 152.655 156.117 152.187H157.484C157.458 152.671 157.292 153.132 156.984 153.569C156.677 154.007 156.266 154.356 155.75 154.616C155.24 154.877 154.698 155.007 154.125 155.007C152.974 155.007 152.057 154.624 151.375 153.858C150.698 153.088 150.359 152.035 150.359 150.702V150.46C150.359 149.637 150.51 148.905 150.812 148.265C151.115 147.624 151.547 147.127 152.109 146.772C152.677 146.418 153.346 146.241 154.117 146.241C155.065 146.241 155.852 146.525 156.477 147.093C157.107 147.66 157.443 148.397 157.484 149.304H156.117C156.076 148.757 155.867 148.309 155.492 147.96C155.122 147.606 154.664 147.429 154.117 147.429C153.383 147.429 152.812 147.694 152.406 148.226C152.005 148.752 151.805 149.515 151.805 150.515V150.788C151.805 151.762 152.005 152.512 152.406 153.038C152.807 153.564 153.38 153.827 154.125 153.827ZM162.5 153.827C163.016 153.827 163.466 153.671 163.852 153.358C164.237 153.046 164.451 152.655 164.492 152.187H165.859C165.833 152.671 165.667 153.132 165.359 153.569C165.052 154.007 164.641 154.356 164.125 154.616C163.615 154.877 163.073 155.007 162.5 155.007C161.349 155.007 160.432 154.624 159.75 153.858C159.073 153.088 158.734 152.035 158.734 150.702V150.46C158.734 149.637 158.885 148.905 159.188 148.265C159.49 147.624 159.922 147.127 160.484 146.772C161.052 146.418 161.721 146.241 162.492 146.241C163.44 146.241 164.227 146.525 164.852 147.093C165.482 147.66 165.818 148.397 165.859 149.304H164.492C164.451 148.757 164.242 148.309 163.867 147.96C163.497 147.606 163.039 147.429 162.492 147.429C161.758 147.429 161.188 147.694 160.781 148.226C160.38 148.752 160.18 149.515 160.18 150.515V150.788C160.18 151.762 160.38 152.512 160.781 153.038C161.182 153.564 161.755 153.827 162.5 153.827ZM167.102 150.546C167.102 149.718 167.263 148.973 167.586 148.312C167.914 147.65 168.367 147.14 168.945 146.78C169.529 146.421 170.193 146.241 170.938 146.241C172.089 146.241 173.018 146.64 173.727 147.437C174.44 148.233 174.797 149.293 174.797 150.616V150.718C174.797 151.541 174.638 152.28 174.32 152.937C174.008 153.588 173.557 154.095 172.969 154.46C172.385 154.825 171.714 155.007 170.953 155.007C169.807 155.007 168.878 154.608 168.164 153.812C167.456 153.015 167.102 151.96 167.102 150.647V150.546ZM168.555 150.718C168.555 151.655 168.771 152.408 169.203 152.976C169.641 153.543 170.224 153.827 170.953 153.827C171.688 153.827 172.271 153.541 172.703 152.968C173.135 152.39 173.352 151.582 173.352 150.546C173.352 149.619 173.13 148.869 172.688 148.296C172.25 147.718 171.667 147.429 170.938 147.429C170.224 147.429 169.648 147.713 169.211 148.28C168.773 148.848 168.555 149.66 168.555 150.718ZM181.828 154.015C181.266 154.676 180.44 155.007 179.352 155.007C178.451 155.007 177.763 154.746 177.289 154.226C176.82 153.7 176.583 152.924 176.578 151.897V146.397H178.023V151.858C178.023 153.14 178.544 153.78 179.586 153.78C180.69 153.78 181.424 153.369 181.789 152.546V146.397H183.234V154.851H181.859L181.828 154.015ZM186.805 146.397L186.852 147.46C187.497 146.647 188.341 146.241 189.383 146.241C191.169 146.241 192.07 147.249 192.086 149.265V154.851H190.641V149.257C190.635 148.647 190.495 148.197 190.219 147.905C189.948 147.614 189.523 147.468 188.945 147.468C188.477 147.468 188.065 147.593 187.711 147.843C187.357 148.093 187.081 148.421 186.883 148.827V154.851H185.438V146.397H186.805ZM196.227 144.351V146.397H197.805V147.515H196.227V152.757C196.227 153.095 196.297 153.351 196.438 153.522C196.578 153.689 196.818 153.772 197.156 153.772C197.323 153.772 197.552 153.741 197.844 153.679V154.851C197.464 154.955 197.094 155.007 196.734 155.007C196.089 155.007 195.602 154.812 195.273 154.421C194.945 154.03 194.781 153.476 194.781 152.757V147.515H193.242V146.397H194.781V144.351H196.227Z" fill="#656668"/>
<g clip-path="url(#clip0)">
<path d="M144.387 13.9242C144.873 13.9242 145.266 13.5307 145.266 13.0453V3.48727C145.266 2.0334 144.083 0.850586 142.629 0.850586H110.637C109.183 0.850586 108 2.0334 108 3.48727V43.2133C108 44.6672 109.183 45.85 110.637 45.85H142.629C144.083 45.85 145.266 44.6672 145.266 43.2133V36.7383C145.266 36.2529 144.873 35.8595 144.387 35.8595C143.902 35.8595 143.508 36.2529 143.508 36.7383V43.2133C143.508 43.698 143.114 44.0922 142.629 44.0922H110.637C110.153 44.0922 109.758 43.698 109.758 43.2133V3.48727C109.758 3.00265 110.153 2.60838 110.637 2.60838H142.629C143.114 2.60838 143.508 3.00265 143.508 3.48727V13.0453C143.508 13.5307 143.902 13.9242 144.387 13.9242Z" fill="#6654A4"/>
<path d="M126.634 5.59662C122.175 5.59662 118.548 9.22391 118.548 13.6825C118.548 15.9954 119.524 18.0844 121.086 19.5595C121.115 19.5908 121.146 19.6204 121.18 19.6474C122.619 20.9639 124.534 21.7682 126.633 21.7682C128.733 21.7682 130.648 20.9638 132.086 19.6474C132.12 19.6204 132.152 19.5907 132.181 19.5595C133.743 18.0844 134.719 15.9954 134.719 13.6825C134.719 9.22391 131.092 5.59662 126.634 5.59662ZM126.634 20.0105C125.198 20.0105 123.874 19.5296 122.811 18.7213C123.584 17.3516 125.025 16.4949 126.634 16.4949C128.242 16.4949 129.684 17.3516 130.456 18.7213C129.393 19.5296 128.069 20.0105 126.634 20.0105ZM125.227 13.3309V12.7596C125.227 11.9843 125.858 11.3534 126.634 11.3534C127.409 11.3534 128.04 11.9843 128.04 12.7596V13.3309C128.04 14.1063 127.409 14.7371 126.634 14.7371C125.858 14.7371 125.227 14.1063 125.227 13.3309ZM131.726 17.4338C131.078 16.4725 130.179 15.7248 129.136 15.2632C129.55 14.7283 129.798 14.0581 129.798 13.3309V12.7596C129.798 11.0149 128.378 9.59559 126.634 9.59559C124.889 9.59559 123.469 11.0149 123.469 12.7596V13.3309C123.469 14.0581 123.717 14.7283 124.131 15.2632C123.088 15.7248 122.189 16.4725 121.541 17.4338C120.765 16.3833 120.305 15.0858 120.305 13.6825C120.305 10.1932 123.144 7.35441 126.634 7.35441C130.123 7.35441 132.962 10.1932 132.962 13.6825C132.962 15.0858 132.502 16.3833 131.726 17.4338Z" fill="#6654A4"/>
<path d="M131.38 39.3462H126.634C126.148 39.3462 125.755 39.7397 125.755 40.2251C125.755 40.7105 126.148 41.104 126.634 41.104H131.38C131.865 41.104 132.259 40.7105 132.259 40.2251C132.259 39.7397 131.865 39.3462 131.38 39.3462Z" fill="#6654A4"/>
<path d="M131.38 34.4244H118.899C118.414 34.4244 118.02 34.8179 118.02 35.3033C118.02 35.7887 118.414 36.1822 118.899 36.1822H131.38C131.865 36.1822 132.259 35.7887 132.259 35.3033C132.259 34.8179 131.865 34.4244 131.38 34.4244Z" fill="#6654A4"/>
<path d="M131.38 29.5026H118.899C118.414 29.5026 118.02 29.896 118.02 30.3815C118.02 30.8669 118.414 31.2604 118.899 31.2604H131.38C131.865 31.2604 132.259 30.8669 132.259 30.3815C132.259 29.896 131.865 29.5026 131.38 29.5026Z" fill="#6654A4"/>
<path d="M115.766 24.8383C115.603 24.6748 115.376 24.5808 115.144 24.5808C114.913 24.5808 114.686 24.6748 114.523 24.8383C114.359 25.0018 114.265 25.2285 114.265 25.4597C114.265 25.6908 114.359 25.9176 114.523 26.0811C114.687 26.2445 114.913 26.3386 115.144 26.3386C115.376 26.3386 115.602 26.2445 115.766 26.0811C115.93 25.9176 116.024 25.6908 116.024 25.4597C116.024 25.2285 115.93 25.0018 115.766 24.8383Z" fill="#6654A4"/>
<path d="M115.766 29.7601C115.602 29.5966 115.376 29.5026 115.144 29.5026C114.913 29.5026 114.687 29.5966 114.523 29.7601C114.359 29.9236 114.265 30.1503 114.265 30.3815C114.265 30.6126 114.359 30.8394 114.523 31.0028C114.687 31.1663 114.913 31.2604 115.144 31.2604C115.376 31.2604 115.602 31.1663 115.766 31.0028C115.93 30.8394 116.024 30.6126 116.024 30.3815C116.024 30.1503 115.93 29.9236 115.766 29.7601Z" fill="#6654A4"/>
<path d="M115.766 34.6819C115.602 34.5184 115.376 34.4244 115.144 34.4244C114.913 34.4244 114.687 34.5184 114.523 34.6819C114.359 34.8454 114.265 35.0722 114.265 35.3033C114.265 35.5345 114.359 35.7612 114.523 35.9247C114.686 36.0882 114.913 36.1822 115.144 36.1822C115.376 36.1822 115.603 36.0882 115.766 35.9247C115.93 35.7612 116.024 35.5345 116.024 35.3033C116.024 35.0722 115.93 34.8454 115.766 34.6819Z" fill="#6654A4"/>
<path d="M131.38 24.5808H118.899C118.414 24.5808 118.02 24.9743 118.02 25.4597C118.02 25.9451 118.414 26.3386 118.899 26.3386H131.38C131.865 26.3386 132.259 25.9451 132.259 25.4597C132.259 24.9743 131.865 24.5808 131.38 24.5808Z" fill="#6654A4"/>
<path d="M151.155 12.3043C150.301 11.8113 149.306 11.6804 148.354 11.9355C147.401 12.1908 146.605 12.8016 146.112 13.6554L135.052 32.8121C134.991 32.9171 134.953 33.0336 134.939 33.1541L134.161 40.1276C134.122 40.4746 134.293 40.8116 134.595 40.9863C134.731 41.065 134.883 41.104 135.034 41.104C135.218 41.104 135.401 41.0465 135.556 40.9328L141.206 36.7718C141.303 36.6999 141.385 36.6086 141.445 36.5036L152.506 17.3469C153.524 15.5842 152.917 13.3221 151.155 12.3043ZM136.131 38.3261L136.537 34.6847L139.081 36.1533L136.131 38.3261ZM140.363 34.8635L137.014 32.9299L145.889 17.5571L149.238 19.4907L140.363 34.8635ZM150.983 16.4679L150.117 17.9684L146.768 16.0349L147.634 14.5343C147.893 14.0871 148.31 13.7672 148.808 13.6335C149.307 13.4997 149.829 13.5684 150.276 13.8267C150.723 14.0849 151.043 14.5018 151.177 15.0007C151.31 15.4995 151.242 16.0206 150.983 16.4679Z" fill="#6654A4"/>
</g>
<defs>
<clipPath id="clip0">
<rect width="45" height="44.9995" fill="white" transform="translate(108 0.850586)"/>
</clipPath>
</defs>
</svg>
