<svg width="263" height="190" viewBox="0 0 263 190" fill="none" xmlns="http://www.w3.org/2000/svg">
<path d="M68.973 79.2296H70.293V80.8496H68.773C67.653 80.8496 66.7864 80.5029 66.173 79.8096C65.5197 80.5029 64.6464 80.8496 63.553 80.8496H56.413C55.333 80.8496 54.4864 80.4896 53.873 79.7696C53.3397 79.1429 53.073 78.3229 53.073 77.3096V74.8896L54.793 73.9696V77.1496C54.793 78.5363 55.4397 79.2296 56.733 79.2296H63.373C64.653 79.2296 65.293 78.5363 65.293 77.1496V68.8696L67.033 67.9496V77.2296C67.033 78.5629 67.6797 79.2296 68.973 79.2296ZM60.153 71.1096C61.2997 71.1629 61.873 71.7296 61.873 72.8096C61.873 73.2763 61.733 73.6496 61.453 73.9296C61.1864 74.2096 60.8264 74.3496 60.373 74.3496H57.733L58.193 73.4896H60.293C60.773 73.4896 61.013 73.2496 61.013 72.7696C61.013 72.1829 60.6397 71.8896 59.893 71.8896C59.5064 71.8896 59.153 71.9829 58.833 72.1696V71.3696L60.513 69.5096H61.573L60.153 71.1096ZM71.331 69.8896C70.6777 69.8896 70.351 69.5563 70.351 68.8896C70.351 68.2363 70.6777 67.9096 71.331 67.9096C71.971 67.9096 72.291 68.2363 72.291 68.8896C72.291 69.5563 71.971 69.8896 71.331 69.8896ZM73.891 69.8896C73.2377 69.8896 72.911 69.5563 72.911 68.8896C72.911 68.2363 73.2377 67.9096 73.891 67.9096C74.531 67.9096 74.851 68.2363 74.851 68.8896C74.851 69.5563 74.531 69.8896 73.891 69.8896ZM76.051 79.2296H77.371V80.8496H75.851C74.7443 80.8496 73.871 80.4963 73.231 79.7896C72.591 80.4963 71.7177 80.8496 70.611 80.8496H69.091V79.2296H70.411C71.7177 79.2296 72.371 78.5629 72.371 77.2296V73.0896L74.091 72.1696V77.2296C74.091 78.5629 74.7443 79.2296 76.051 79.2296ZM80.2413 69.7496C79.588 69.7496 79.2613 69.4163 79.2613 68.7496C79.2613 68.0963 79.588 67.7696 80.2413 67.7696C80.8813 67.7696 81.2013 68.0963 81.2013 68.7496C81.2013 69.4163 80.8813 69.7496 80.2413 69.7496ZM76.1613 80.8496V79.2296H77.4813C78.788 79.2296 79.4413 78.5629 79.4413 77.2296V73.0896L81.1613 72.1696V77.2896C81.1613 78.4229 80.8213 79.3163 80.1413 79.9696C79.5146 80.5563 78.6946 80.8496 77.6813 80.8496H76.1613ZM88.2327 80.8496C87.0727 80.8496 86.1794 80.4763 85.5527 79.7296C85.0194 79.0896 84.7527 78.2763 84.7527 77.2896V68.8696L86.4727 67.9496V77.2296C86.4727 78.5629 87.126 79.2296 88.4327 79.2296H89.7527V80.8496H88.2327ZM95.5041 79.2296H96.8241V80.8496H95.3041C94.1975 80.8496 93.3241 80.4963 92.6841 79.7896C92.0441 80.4963 91.1708 80.8496 90.0641 80.8496H88.5441V79.2296H89.8641C91.1708 79.2296 91.8241 78.5629 91.8241 77.2296V73.0896L93.5441 72.1696V77.2296C93.5441 78.5629 94.1975 79.2296 95.5041 79.2296ZM90.7241 82.8496C91.3641 82.8496 91.6841 83.1829 91.6841 83.8496C91.6841 84.5029 91.3641 84.8296 90.7241 84.8296C90.0708 84.8296 89.7441 84.5029 89.7441 83.8496C89.7441 83.1829 90.0708 82.8496 90.7241 82.8496ZM93.2641 82.8496C93.9041 82.8496 94.2241 83.1829 94.2241 83.8496C94.2241 84.5029 93.9041 84.8296 93.2641 84.8296C92.6108 84.8296 92.2841 84.5029 92.2841 83.8496C92.2841 83.1829 92.6108 82.8496 93.2641 82.8496ZM95.6144 80.8496V79.2296H96.9344C98.2411 79.2296 98.8944 78.5629 98.8944 77.2296V73.0896L100.614 72.1696V77.2896C100.614 78.4229 100.274 79.3163 99.5944 79.9696C98.9678 80.5563 98.1478 80.8496 97.1344 80.8496H95.6144ZM98.8344 84.8296C98.1811 84.8296 97.8544 84.4963 97.8544 83.8296C97.8544 83.1763 98.1811 82.8496 98.8344 82.8496C99.4744 82.8496 99.7944 83.1763 99.7944 83.8296C99.7944 84.4963 99.4744 84.8296 98.8344 84.8296ZM121.194 79.2296H122.514V80.8496H120.994C120.274 80.8496 119.627 80.6896 119.054 80.3696C118.867 81.7429 118.247 82.8229 117.194 83.6096C116.26 84.3029 115.107 84.6496 113.734 84.6496C111.947 84.6496 110.567 84.0496 109.594 82.8496C108.847 81.9163 108.474 80.8029 108.474 79.5096C108.474 78.3763 108.747 77.4096 109.294 76.6096L111.014 76.2296C110.4 77.1763 110.094 78.2096 110.094 79.3296C110.094 80.4363 110.447 81.3429 111.154 82.0496C111.807 82.7029 112.667 83.0296 113.734 83.0296C114.947 83.0296 115.88 82.6696 116.534 81.9496C117.094 81.3363 117.374 80.5496 117.374 79.5896V68.8696L119.114 67.9496V77.2296C119.114 78.5629 119.807 79.2296 121.194 79.2296ZM128.278 79.2296H129.598V80.8496H128.078C126.971 80.8496 126.098 80.4963 125.458 79.7896C124.818 80.4963 123.944 80.8496 122.838 80.8496H121.318V79.2296H122.638C123.944 79.2296 124.598 78.5629 124.598 77.2296V73.0896L126.318 72.1696V77.2296C126.318 78.5629 126.971 79.2296 128.278 79.2296ZM123.498 82.8496C124.138 82.8496 124.458 83.1829 124.458 83.8496C124.458 84.5029 124.138 84.8296 123.498 84.8296C122.844 84.8296 122.518 84.5029 122.518 83.8496C122.518 83.1829 122.844 82.8496 123.498 82.8496ZM126.038 82.8496C126.678 82.8496 126.998 83.1829 126.998 83.8496C126.998 84.5029 126.678 84.8296 126.038 84.8296C125.384 84.8296 125.058 84.5029 125.058 83.8496C125.058 83.1829 125.384 82.8496 126.038 82.8496ZM141.428 79.2296H142.728V80.8496H141.408C140.328 80.8496 139.461 80.7296 138.808 80.4896C138.155 80.2363 137.548 79.7963 136.988 79.1696C135.308 80.2896 133.348 80.8496 131.108 80.8496H128.388V79.2296H131.128C133.835 79.2296 135.975 78.3363 137.548 76.5496C136.441 74.5096 135.095 73.4896 133.508 73.4896C132.428 73.4896 131.315 74.0629 130.168 75.2096V73.6096C131.288 72.4763 132.475 71.9096 133.728 71.9096C134.755 71.9096 135.748 72.2829 136.708 73.0296C137.668 73.7629 138.515 74.8163 139.248 76.1896V77.0696C138.835 77.5896 138.441 78.0096 138.068 78.3296C138.788 78.9296 139.908 79.2296 141.428 79.2296ZM134.888 82.8496C135.528 82.8496 135.848 83.1763 135.848 83.8296C135.848 84.4963 135.528 84.8296 134.888 84.8296C134.235 84.8296 133.908 84.4963 133.908 83.8296C133.908 83.1763 134.235 82.8496 134.888 82.8496ZM141.532 80.8496V79.2296H143.332C144.626 79.2296 145.272 78.5629 145.272 77.2296V74.4296L146.992 73.5096V77.2296C146.992 78.5629 147.646 79.2296 148.952 79.2296H149.872C151.179 79.2296 151.832 78.5629 151.832 77.2296V73.7496L153.552 72.8496V77.2296C153.552 78.5629 154.199 79.2296 155.492 79.2296H156.432C157.739 79.2296 158.392 78.5629 158.392 77.2296V73.0896L160.112 72.1696V77.0496C160.112 78.5029 160.806 79.2296 162.192 79.2296H163.852V80.8496H162.052C160.852 80.8496 159.939 80.4429 159.312 79.6296C158.752 80.4296 157.879 80.8363 156.692 80.8496H155.312C154.139 80.8496 153.266 80.4563 152.692 79.6696C152.119 80.4429 151.266 80.8363 150.132 80.8496H148.752C147.606 80.8496 146.732 80.4563 146.132 79.6696C145.559 80.4563 144.686 80.8496 143.512 80.8496H141.532ZM164.186 69.7496C163.532 69.7496 163.206 69.4163 163.206 68.7496C163.206 68.0963 163.532 67.7696 164.186 67.7696C164.826 67.7696 165.146 68.0963 165.146 68.7496C165.146 69.4163 164.826 69.7496 164.186 69.7496ZM166.726 69.7496C166.072 69.7496 165.746 69.4163 165.746 68.7496C165.746 68.0963 166.072 67.7696 166.726 67.7696C167.366 67.7696 167.686 68.0963 167.686 68.7496C167.686 69.4163 167.366 69.7496 166.726 69.7496ZM162.646 80.8496V79.2296H163.966C165.272 79.2296 165.926 78.5629 165.926 77.2296V73.0896L167.646 72.1696V77.2896C167.646 78.4229 167.306 79.3163 166.626 79.9696C165.999 80.5563 165.179 80.8496 164.166 80.8496H162.646ZM188.225 79.2296H189.545V80.8496H188.025C187.305 80.8496 186.658 80.6896 186.085 80.3696C185.898 81.7429 185.278 82.8229 184.225 83.6096C183.292 84.3029 182.138 84.6496 180.765 84.6496C178.978 84.6496 177.598 84.0496 176.625 82.8496C175.878 81.9163 175.505 80.8029 175.505 79.5096C175.505 78.3763 175.778 77.4096 176.325 76.6096L178.045 76.2296C177.432 77.1763 177.125 78.2096 177.125 79.3296C177.125 80.4363 177.478 81.3429 178.185 82.0496C178.838 82.7029 179.698 83.0296 180.765 83.0296C181.978 83.0296 182.912 82.6696 183.565 81.9496C184.125 81.3363 184.405 80.5496 184.405 79.5896V68.8696L186.145 67.9496V77.2296C186.145 78.5629 186.838 79.2296 188.225 79.2296ZM201.229 79.2296H202.569V80.8496H201.049C199.942 80.8496 199.069 80.4963 198.429 79.7896C197.749 80.7629 196.755 81.2496 195.449 81.2496C194.142 81.2496 193.155 80.7696 192.489 79.8096C191.862 80.5029 190.989 80.8496 189.869 80.8496H188.349V79.2296H189.669C190.975 79.2296 191.629 78.5629 191.629 77.2296V76.5696C191.629 75.0229 192.009 73.8363 192.769 73.0096C193.435 72.2763 194.329 71.9096 195.449 71.9096C196.729 71.9096 197.715 72.3829 198.409 73.3296C198.995 74.1429 199.289 75.2229 199.289 76.5696V77.2296C199.289 78.5629 199.935 79.2296 201.229 79.2296ZM195.449 79.6296C196.102 79.6296 196.615 79.3563 196.989 78.8096C197.375 78.2629 197.569 77.5096 197.569 76.5496C197.569 74.5229 196.862 73.5096 195.449 73.5096C194.049 73.5096 193.349 74.5229 193.349 76.5496C193.349 78.6029 194.049 79.6296 195.449 79.6296ZM205.316 72.3896C205.329 72.3896 205.349 72.3896 205.376 72.3896C205.403 72.3896 205.423 72.3896 205.436 72.3896C206.943 72.3896 208.163 72.8563 209.096 73.7896C209.949 74.6296 210.376 75.7029 210.376 77.0096V77.3496C210.376 78.4963 210.023 79.3896 209.316 80.0296C208.689 80.5763 207.883 80.8496 206.896 80.8496H201.376V79.2296H206.736C208.016 79.2296 208.656 78.5563 208.656 77.2096V77.0296C208.656 76.0429 208.269 75.2829 207.496 74.7496C206.883 74.3363 206.136 74.1296 205.256 74.1296C204.549 74.1296 203.836 74.2563 203.116 74.5096V72.8096L207.496 67.9496H209.256L205.316 72.3896Z" fill="#6654A4"/>
<path d="M45.9411 124.858H46.5011V125.85H45.8131C44.8318 125.85 44.1011 125.514 43.6211 124.842C43.1198 125.514 42.3784 125.85 41.3971 125.85H36.1491L36.6611 124.858H39.1091V118.17L40.1651 117.61V124.858H41.2851C42.5011 124.858 43.1091 124.228 43.1091 122.97V116.09L44.1651 115.53V119.018L44.1811 119.002V123.034C44.1811 124.25 44.7678 124.858 45.9411 124.858ZM48.5047 121.562C48.5047 120.655 48.7767 119.951 49.3207 119.45C49.7901 119.023 50.4087 118.81 51.1767 118.81C52.1687 118.81 52.9314 119.172 53.4647 119.898C53.9234 120.516 54.1527 121.327 54.1527 122.33C54.1527 123.471 53.8594 124.362 53.2727 125.002C52.7607 125.567 52.0941 125.85 51.2727 125.85C50.2701 125.85 49.5234 125.53 49.0327 124.89C48.5527 125.53 47.8327 125.85 46.8727 125.85H46.1847V124.858H46.7447C47.9181 124.858 48.5047 124.25 48.5047 123.034V121.562ZM49.5767 123.098C49.5767 124.271 50.1527 124.858 51.3047 124.858C51.8594 124.858 52.2967 124.634 52.6167 124.186C52.9367 123.738 53.0967 123.114 53.0967 122.314C53.0967 121.524 52.9261 120.906 52.5847 120.458C52.2541 120.01 51.7847 119.786 51.1767 119.786C50.1101 119.786 49.5767 120.41 49.5767 121.658V123.098ZM56.8004 125.85V116.09L57.8724 115.53V125.85H56.8004ZM64.8495 125.258C64.4015 125.514 63.8255 125.642 63.1215 125.642C62.1935 125.642 61.4681 125.284 60.9455 124.57C60.4975 123.962 60.2735 123.194 60.2735 122.266C60.2735 121.146 60.5721 120.271 61.1695 119.642C61.6921 119.087 62.3855 118.81 63.2495 118.81C64.1348 118.81 64.8175 119.087 65.2975 119.642C65.7135 120.122 65.9215 120.762 65.9215 121.562V125.082C65.9215 126.074 65.7135 126.89 65.2975 127.53C64.8815 128.18 64.2895 128.596 63.5215 128.778C63.2655 128.852 62.9881 128.89 62.6895 128.89C62.0708 128.89 61.4681 128.74 60.8815 128.442V127.498C61.4361 127.796 61.9855 127.946 62.5295 127.946C62.9668 127.946 63.3508 127.85 63.6815 127.658C64.4281 127.284 64.8175 126.484 64.8495 125.258ZM64.8495 121.658C64.8495 120.41 64.3161 119.786 63.2495 119.786C62.6521 119.786 62.1775 120.004 61.8255 120.442C61.4841 120.879 61.3135 121.482 61.3135 122.25C61.3135 122.996 61.4788 123.594 61.8095 124.042C62.1401 124.479 62.5881 124.698 63.1535 124.698C63.9961 124.698 64.5615 124.463 64.8495 123.994V121.658ZM84.9359 115.754C84.5412 115.754 84.3439 115.551 84.3439 115.146C84.3439 114.762 84.5412 114.57 84.9359 114.57C85.3199 114.57 85.5119 114.762 85.5119 115.146C85.5119 115.551 85.3199 115.754 84.9359 115.754ZM84.0239 117.418C83.5972 117.418 83.3839 117.199 83.3839 116.762C83.3839 116.324 83.5972 116.106 84.0239 116.106C84.4505 116.106 84.6639 116.324 84.6639 116.762C84.6639 117.199 84.4505 117.418 84.0239 117.418ZM85.2079 116.762C85.2079 116.324 85.4265 116.106 85.8639 116.106C86.2799 116.106 86.4879 116.324 86.4879 116.762C86.4879 117.199 86.2799 117.418 85.8639 117.418C85.4265 117.418 85.2079 117.199 85.2079 116.762ZM89.6239 119.562L90.6959 119.002V123.066C90.6959 123.951 90.4292 124.65 89.8959 125.162C89.4159 125.62 88.7812 125.85 87.9919 125.85H87.1439C86.1732 125.85 85.4479 125.519 84.9679 124.858C84.4879 125.519 83.7625 125.85 82.7919 125.85H81.9439C81.3145 125.85 80.7652 125.695 80.2959 125.386C80.2212 126.506 79.7732 127.386 78.9519 128.026C78.2265 128.602 77.3092 128.89 76.1999 128.89C74.8452 128.89 73.7945 128.41 73.0479 127.45C72.4612 126.714 72.1679 125.834 72.1679 124.81C72.1679 123.892 72.4025 123.103 72.8719 122.442L73.9119 122.234C73.3999 123.012 73.1439 123.844 73.1439 124.73C73.1439 125.668 73.4479 126.442 74.0559 127.05C74.6212 127.615 75.3359 127.898 76.1999 127.898C77.2132 127.898 77.9972 127.599 78.5519 127.002C79.0105 126.511 79.2399 125.866 79.2399 125.066V120.73L80.3119 120.17V123.034C80.3119 124.25 80.9039 124.858 82.0879 124.858H82.6639C83.8479 124.858 84.4399 124.25 84.4399 123.034V120.154L85.4959 119.578V123.034C85.4959 124.25 86.0879 124.858 87.2719 124.858H87.8639C89.0372 124.858 89.6239 124.25 89.6239 123.034V119.562ZM96.2856 125.85C95.3789 125.85 94.6803 125.556 94.1896 124.97C93.7843 124.468 93.5816 123.834 93.5816 123.066V116.09L94.6536 115.53V123.034C94.6536 124.25 95.2403 124.858 96.4136 124.858H96.9736V125.85H96.2856ZM99.1815 119.242C99.2881 119.231 99.4001 119.226 99.5175 119.226C100.477 119.226 101.299 119.46 101.981 119.93C102.92 120.602 103.389 121.562 103.389 122.81V123.114C103.389 124.01 103.112 124.708 102.557 125.21C102.077 125.636 101.453 125.85 100.685 125.85H96.6535V124.858H100.573C101.736 124.858 102.317 124.234 102.317 122.986V122.826C102.317 121.962 102.008 121.316 101.389 120.89C100.877 120.506 100.227 120.314 99.4375 120.314C98.8615 120.314 98.2908 120.415 97.7255 120.618V119.562L101.357 115.53H102.461L99.1815 119.242ZM117.98 121.05C117.308 120.282 116.562 119.898 115.74 119.898C115.282 119.898 114.919 120.036 114.652 120.314C114.386 120.58 114.252 120.948 114.252 121.418V121.45C114.263 121.94 114.412 122.324 114.7 122.602C114.988 122.879 115.548 123.162 116.38 123.45C117.255 123.759 117.847 124.068 118.156 124.378C118.476 124.687 118.636 125.124 118.636 125.69C118.636 126.639 118.183 127.418 117.276 128.026C116.423 128.602 115.314 128.89 113.948 128.89C112.306 128.89 111.068 128.41 110.236 127.45C109.618 126.735 109.308 125.855 109.308 124.81C109.308 123.892 109.543 123.103 110.012 122.442L111.052 122.234C110.54 123.012 110.284 123.844 110.284 124.73C110.284 125.7 110.62 126.474 111.292 127.05C111.943 127.615 112.828 127.898 113.948 127.898C115.175 127.898 116.124 127.642 116.796 127.13C117.319 126.724 117.58 126.244 117.58 125.69C117.58 125.359 117.463 125.098 117.228 124.906C116.994 124.714 116.53 124.495 115.836 124.25C114.94 123.93 114.316 123.615 113.964 123.306C113.463 122.847 113.212 122.223 113.212 121.434C113.212 120.612 113.506 119.967 114.092 119.498C114.551 119.135 115.074 118.954 115.66 118.954C116.599 118.954 117.372 119.306 117.98 120.01V121.05ZM112.94 131.53C112.503 131.53 112.284 131.311 112.284 130.874C112.284 130.436 112.503 130.218 112.94 130.218C113.356 130.218 113.564 130.436 113.564 130.874C113.564 131.311 113.356 131.53 112.94 131.53ZM114.764 131.53C114.338 131.53 114.124 131.311 114.124 130.874C114.124 130.436 114.338 130.218 114.764 130.218C115.191 130.218 115.404 130.436 115.404 130.874C115.404 131.311 115.191 131.53 114.764 131.53ZM123.944 116.89C123.507 116.89 123.288 116.666 123.288 116.218C123.288 115.791 123.507 115.578 123.944 115.578C124.36 115.578 124.568 115.791 124.568 116.218C124.568 116.666 124.36 116.89 123.944 116.89ZM126.344 124.858H126.904V125.85H126.216C125.555 125.85 125.006 125.69 124.568 125.37C124.483 127.14 123.768 128.26 122.424 128.73C122.083 128.847 121.72 128.906 121.336 128.906C120.718 128.906 120.12 128.756 119.544 128.458V127.514C120.088 127.812 120.643 127.962 121.208 127.962C121.656 127.962 122.051 127.86 122.392 127.658C123.139 127.21 123.512 126.372 123.512 125.146V119.562L124.568 119.002V119.018L124.584 119.002V123.034C124.584 124.25 125.171 124.858 126.344 124.858ZM126.591 125.85V124.858H127.151C128.324 124.858 128.911 124.25 128.911 123.034V119.562L129.983 119.002V123.066C129.983 123.962 129.722 124.66 129.199 125.162C128.719 125.62 128.079 125.85 127.279 125.85H126.591ZM127.119 128.842C126.682 128.842 126.463 128.618 126.463 128.17C126.463 127.743 126.682 127.53 127.119 127.53C127.535 127.53 127.743 127.743 127.743 128.17C127.743 128.618 127.535 128.842 127.119 128.842ZM128.943 128.842C128.506 128.842 128.287 128.618 128.287 128.17C128.287 127.743 128.506 127.53 128.943 127.53C129.359 127.53 129.567 127.743 129.567 128.17C129.567 128.618 129.359 128.842 128.943 128.842ZM138.703 116.09L139.759 115.53V122.986C139.759 123.892 139.492 124.607 138.959 125.13C138.468 125.61 137.812 125.85 136.991 125.85H131.743L132.255 124.858H134.703V118.17L135.759 117.61V124.858H136.879C138.095 124.858 138.703 124.228 138.703 122.97V116.09ZM153.096 131.018C152.221 131.572 151.235 131.85 150.136 131.85C148.856 131.85 147.843 131.45 147.096 130.65C146.477 129.988 146.168 129.204 146.168 128.298C146.168 127.636 146.339 127.039 146.68 126.506C147.021 125.972 147.485 125.572 148.072 125.306C146.984 124.687 146.44 123.631 146.44 122.138C146.44 121.06 146.808 120.207 147.544 119.578C148.12 119.076 148.808 118.82 149.608 118.81C150.696 118.81 151.555 119.242 152.184 120.106V121.162C151.533 120.244 150.707 119.786 149.704 119.786C149.043 119.786 148.509 120.01 148.104 120.458C147.699 120.895 147.496 121.466 147.496 122.17C147.496 122.991 147.741 123.647 148.232 124.138C148.701 124.618 149.331 124.858 150.12 124.858H152.952V125.85H150.152C149.117 125.85 148.333 126.132 147.8 126.698C147.395 127.124 147.192 127.652 147.192 128.282C147.192 129.05 147.475 129.679 148.04 130.17C148.573 130.628 149.272 130.858 150.136 130.858H150.168C151.384 130.858 152.36 130.586 153.096 130.042V131.018ZM159.688 124.858H160.248V125.85H159.56C158.899 125.85 158.349 125.69 157.912 125.37C157.827 127.14 157.112 128.26 155.768 128.73C155.427 128.847 155.064 128.906 154.68 128.906C154.061 128.906 153.464 128.756 152.888 128.458V127.514C153.432 127.812 153.987 127.962 154.552 127.962C155 127.962 155.395 127.86 155.736 127.658C156.483 127.21 156.856 126.372 156.856 125.146V119.562L157.912 119.002V119.018L157.928 119.002V123.034C157.928 124.25 158.515 124.858 159.688 124.858ZM164.799 116.922C164.361 116.922 164.143 116.698 164.143 116.25C164.143 115.823 164.361 115.61 164.799 115.61C165.215 115.61 165.423 115.823 165.423 116.25C165.423 116.698 165.215 116.922 164.799 116.922ZM159.935 125.85V124.858H162.655C162.068 124.271 161.775 123.428 161.775 122.33C161.775 121.178 162.073 120.287 162.671 119.658C163.193 119.092 163.887 118.81 164.751 118.81C165.636 118.81 166.319 119.087 166.799 119.642C167.215 120.122 167.423 120.762 167.423 121.562V123.114C167.412 123.978 167.151 124.655 166.639 125.146C166.169 125.615 165.529 125.85 164.719 125.85H159.935ZM166.367 121.658C166.367 120.41 165.828 119.786 164.751 119.786C164.153 119.786 163.684 120.01 163.343 120.458C163.012 120.895 162.847 121.514 162.847 122.314C162.847 123.092 163.007 123.711 163.327 124.17C163.657 124.628 164.095 124.858 164.639 124.858C165.791 124.858 166.367 124.26 166.367 123.066V121.658ZM176.58 125.85C175.791 125.85 175.161 125.604 174.692 125.114C174.223 124.612 173.988 123.94 173.988 123.098V121.002L175.06 120.442V122.97C175.06 124.228 175.647 124.858 176.82 124.858H182.18C183.353 124.858 183.94 124.228 183.94 122.97V119.562L185.012 119.002V123.098C185.012 124.004 184.735 124.708 184.18 125.21C183.7 125.636 183.071 125.85 182.292 125.85H176.58ZM179.188 128.842C178.751 128.842 178.532 128.618 178.532 128.17C178.532 127.743 178.751 127.53 179.188 127.53C179.604 127.53 179.812 127.743 179.812 128.17C179.812 128.618 179.604 128.842 179.188 128.842ZM191.766 124.858H192.326V125.85H191.638C190.977 125.85 190.427 125.69 189.99 125.37C189.905 127.14 189.19 128.26 187.846 128.73C187.505 128.847 187.142 128.906 186.758 128.906C186.139 128.906 185.542 128.756 184.966 128.458V127.514C185.51 127.812 186.065 127.962 186.63 127.962C187.078 127.962 187.473 127.86 187.814 127.658C188.561 127.21 188.934 126.372 188.934 125.146V119.562L189.99 119.002V119.018L190.006 119.002V123.034C190.006 124.25 190.593 124.858 191.766 124.858ZM195.933 116.938C195.496 116.938 195.277 116.714 195.277 116.266C195.277 115.839 195.496 115.626 195.933 115.626C196.349 115.626 196.557 115.839 196.557 116.266C196.557 116.714 196.349 116.938 195.933 116.938ZM197.757 116.938C197.32 116.938 197.101 116.714 197.101 116.266C197.101 115.839 197.32 115.626 197.757 115.626C198.173 115.626 198.381 115.839 198.381 116.266C198.381 116.714 198.173 116.938 197.757 116.938ZM192.013 125.85V124.858H194.733C194.146 124.271 193.853 123.428 193.853 122.33C193.853 121.178 194.152 120.287 194.749 119.658C195.272 119.092 195.965 118.81 196.829 118.81C197.714 118.81 198.397 119.087 198.877 119.642C199.293 120.122 199.501 120.762 199.501 121.562V123.114C199.49 123.978 199.229 124.655 198.717 125.146C198.248 125.615 197.608 125.85 196.797 125.85H192.013ZM198.445 121.658C198.445 120.41 197.906 119.786 196.829 119.786C196.232 119.786 195.762 120.01 195.421 120.458C195.09 120.895 194.925 121.514 194.925 122.314C194.925 123.092 195.085 123.711 195.405 124.17C195.736 124.628 196.173 124.858 196.717 124.858C197.869 124.858 198.445 124.26 198.445 123.066V121.658ZM202.222 125.85V116.09L203.294 115.53V125.85H202.222ZM212.115 125.082C212.115 127.023 211.4 128.239 209.971 128.73C209.63 128.847 209.267 128.906 208.883 128.906C208.264 128.906 207.667 128.756 207.091 128.458V127.514C207.635 127.812 208.19 127.962 208.755 127.962C209.203 127.962 209.598 127.86 209.939 127.658C210.686 127.21 211.059 126.372 211.059 125.146V119.562L212.115 119.002V125.082ZM219.084 125.258C218.636 125.514 218.06 125.642 217.356 125.642C216.428 125.642 215.703 125.284 215.18 124.57C214.732 123.962 214.508 123.194 214.508 122.266C214.508 121.146 214.807 120.271 215.404 119.642C215.927 119.087 216.62 118.81 217.484 118.81C218.369 118.81 219.052 119.087 219.532 119.642C219.948 120.122 220.156 120.762 220.156 121.562V125.082C220.156 126.074 219.948 126.89 219.532 127.53C219.116 128.18 218.524 128.596 217.756 128.778C217.5 128.852 217.223 128.89 216.924 128.89C216.305 128.89 215.703 128.74 215.116 128.442V127.498C215.671 127.796 216.22 127.946 216.764 127.946C217.201 127.946 217.585 127.85 217.916 127.658C218.663 127.284 219.052 126.484 219.084 125.258ZM219.084 121.658C219.084 120.41 218.551 119.786 217.484 119.786C216.887 119.786 216.412 120.004 216.06 120.442C215.719 120.879 215.548 121.482 215.548 122.25C215.548 122.996 215.713 123.594 216.044 124.042C216.375 124.479 216.823 124.698 217.388 124.698C218.231 124.698 218.796 124.463 219.084 123.994V121.658ZM225.397 116.89C224.96 116.89 224.741 116.666 224.741 116.218C224.741 115.791 224.96 115.578 225.397 115.578C225.813 115.578 226.021 115.791 226.021 116.218C226.021 116.666 225.813 116.89 225.397 116.89ZM226.021 125.082C226.021 127.023 225.307 128.239 223.877 128.73C223.536 128.847 223.173 128.906 222.789 128.906C222.171 128.906 221.573 128.756 220.997 128.458V127.514C221.541 127.812 222.096 127.962 222.661 127.962C223.109 127.962 223.504 127.86 223.845 127.658C224.592 127.21 224.965 126.372 224.965 125.146V119.562L226.021 119.002V125.082ZM66.9506 150.858H67.5106V151.85H66.8226C66.1399 151.85 65.5693 151.679 65.1106 151.338C65.0253 152.468 64.5719 153.359 63.7506 154.01C63.0146 154.596 62.0866 154.89 60.9666 154.89C59.5799 154.89 58.5133 154.415 57.7666 153.466C57.1799 152.73 56.8866 151.85 56.8866 150.826C56.8866 149.898 57.1213 149.114 57.5906 148.474L58.6466 148.234C58.1239 149.002 57.8626 149.844 57.8626 150.762C57.8626 151.7 58.1666 152.468 58.7746 153.066C59.3506 153.631 60.0813 153.914 60.9666 153.914C61.9906 153.914 62.7853 153.604 63.3506 152.986C63.8306 152.474 64.0706 151.807 64.0706 150.986V142.09L65.1266 141.53V149.05V149.082C65.1266 150.266 65.7346 150.858 66.9506 150.858ZM77.2487 150.858H77.7927V151.85H77.1047C76.1341 151.85 75.4087 151.514 74.9287 150.842C74.3954 151.727 73.5847 152.17 72.4967 152.17C71.3981 152.17 70.5874 151.732 70.0647 150.858C69.5741 151.519 68.8434 151.85 67.8727 151.85H67.1847V150.858H67.7447C68.9181 150.858 69.5047 150.25 69.5047 149.034V148.49C69.5047 147.263 69.8034 146.324 70.4007 145.674C70.9234 145.098 71.6221 144.81 72.4967 144.81C73.4994 144.81 74.2621 145.183 74.7847 145.93C75.2434 146.57 75.4727 147.423 75.4727 148.49V149.034C75.4727 150.25 76.0647 150.858 77.2487 150.858ZM72.4967 151.178C73.0834 151.178 73.5474 150.938 73.8887 150.458C74.2301 149.967 74.4007 149.306 74.4007 148.474C74.4007 146.682 73.7661 145.786 72.4967 145.786C71.2167 145.786 70.5767 146.682 70.5767 148.474C70.5767 150.276 71.2167 151.178 72.4967 151.178ZM85.962 150.858H86.362V151.85H85.834C84.874 151.85 84.154 151.524 83.674 150.874C83.194 151.524 82.4686 151.85 81.498 151.85H77.466V150.858H81.386C82.5486 150.858 83.13 150.234 83.13 148.986V148.826C83.13 147.951 82.81 147.295 82.17 146.858C81.658 146.495 81.018 146.314 80.25 146.314C79.674 146.314 79.1033 146.415 78.538 146.618V145.562L82.17 141.53H83.274L79.994 145.242C80.1006 145.231 80.2126 145.226 80.33 145.226C81.354 145.226 82.2073 145.487 82.89 146.01C83.7646 146.682 84.202 147.615 84.202 148.81V149.034C84.202 150.25 84.7886 150.858 85.962 150.858ZM87.0041 142.89C86.5668 142.89 86.3481 142.666 86.3481 142.218C86.3481 141.791 86.5668 141.578 87.0041 141.578C87.4201 141.578 87.6281 141.791 87.6281 142.218C87.6281 142.666 87.4201 142.89 87.0041 142.89ZM88.8281 142.89C88.3908 142.89 88.1721 142.666 88.1721 142.218C88.1721 141.791 88.3908 141.578 88.8281 141.578C89.2441 141.578 89.4521 141.791 89.4521 142.218C89.4521 142.666 89.2441 142.89 88.8281 142.89ZM86.0441 151.85V150.858H86.6041C87.7774 150.858 88.3641 150.25 88.3641 149.034V145.562L89.4361 145.002V149.066C89.4361 149.962 89.1748 150.66 88.6521 151.162C88.1721 151.62 87.5321 151.85 86.7321 151.85H86.0441ZM99.9197 144.682C99.4824 144.682 99.2637 144.458 99.2637 144.01C99.2637 143.583 99.4824 143.37 99.9197 143.37C100.336 143.37 100.544 143.583 100.544 144.01C100.544 144.458 100.336 144.682 99.9197 144.682ZM103.984 151.066C103.984 152.271 103.568 153.231 102.736 153.946C102 154.575 101.045 154.89 99.8717 154.89C98.5171 154.89 97.4664 154.41 96.7197 153.45C96.1331 152.714 95.8397 151.834 95.8397 150.81C95.8397 149.892 96.0744 149.103 96.5437 148.442L97.5837 148.234C97.0717 149.012 96.8157 149.844 96.8157 150.73C96.8157 151.668 97.1197 152.442 97.7277 153.05C98.2931 153.615 99.0077 153.898 99.8717 153.898C100.885 153.898 101.669 153.599 102.224 153.002C102.682 152.511 102.912 151.866 102.912 151.066V145.562L103.984 145.002V151.066ZM109.567 151.85C108.66 151.85 107.962 151.556 107.471 150.97C107.066 150.468 106.863 149.834 106.863 149.066V142.09L107.935 141.53V149.034C107.935 150.25 108.522 150.858 109.695 150.858H110.255V151.85H109.567ZM118.399 141.754C118.015 141.754 117.823 141.551 117.823 141.146C117.823 140.762 118.015 140.57 118.399 140.57C118.783 140.57 118.975 140.762 118.975 141.146C118.975 141.551 118.783 141.754 118.399 141.754ZM117.503 143.418C117.065 143.418 116.847 143.199 116.847 142.762C116.847 142.324 117.065 142.106 117.503 142.106C117.919 142.106 118.127 142.324 118.127 142.762C118.127 143.199 117.919 143.418 117.503 143.418ZM119.327 143.418C118.9 143.418 118.687 143.199 118.687 142.762C118.687 142.324 118.9 142.106 119.327 142.106C119.753 142.106 119.967 142.324 119.967 142.762C119.967 143.199 119.753 143.418 119.327 143.418ZM109.935 151.85V150.858H110.911C112.095 150.858 112.687 150.25 112.687 149.034V146.73L113.759 146.17V149.034C113.759 150.25 114.345 150.858 115.519 150.858H116.111C117.284 150.858 117.871 150.25 117.871 149.034V146.154L118.943 145.578V149.034C118.943 150.25 119.535 150.858 120.719 150.858H121.295C122.479 150.858 123.071 150.25 123.071 149.034V145.562L124.143 145.002V148.97C124.143 150.228 124.751 150.858 125.967 150.858H126.895V151.85H125.855C124.841 151.85 124.1 151.492 123.631 150.778C123.161 151.492 122.436 151.85 121.455 151.85H120.575C119.583 151.85 118.863 151.498 118.415 150.794C117.956 151.498 117.241 151.85 116.271 151.85H115.391C114.399 151.85 113.673 151.498 113.215 150.794C112.767 151.498 112.047 151.85 111.055 151.85H109.935ZM134.767 150.858V151.85H126.575V150.858H129.263C128.591 150.175 128.255 149.268 128.255 148.138C128.255 147.06 128.623 146.207 129.359 145.578C129.946 145.076 130.634 144.82 131.423 144.81C132.522 144.81 133.381 145.242 133.999 146.106V147.162C133.359 146.244 132.538 145.786 131.535 145.786H131.487C130.847 145.786 130.325 146.004 129.919 146.442C129.525 146.879 129.327 147.455 129.327 148.17C129.327 148.991 129.573 149.647 130.063 150.138C130.533 150.618 131.162 150.858 131.951 150.858H134.767ZM143.423 151.85C142.474 151.85 141.733 151.535 141.199 150.906C140.751 150.362 140.527 149.658 140.527 148.794C140.527 146.82 141.519 145.492 143.503 144.81C145.487 145.492 146.479 146.82 146.479 148.794C146.479 149.786 146.186 150.559 145.599 151.114C145.087 151.604 144.415 151.85 143.583 151.85H143.423ZM143.375 150.858H143.631C144.186 150.858 144.623 150.676 144.943 150.314C145.263 149.94 145.423 149.434 145.423 148.794C145.423 147.375 144.783 146.372 143.503 145.786C142.223 146.372 141.583 147.375 141.583 148.794C141.583 149.423 141.743 149.924 142.063 150.298C142.383 150.671 142.821 150.858 143.375 150.858ZM151.131 151.082C151.131 153.023 150.416 154.239 148.987 154.73C148.645 154.847 148.283 154.906 147.899 154.906C147.28 154.906 146.683 154.756 146.107 154.458V153.514C146.651 153.812 147.205 153.962 147.771 153.962C148.219 153.962 148.613 153.86 148.955 153.658C149.701 153.21 150.075 152.372 150.075 151.146V145.562L151.131 145.002V151.082ZM156.707 151.85C155.801 151.85 155.102 151.556 154.611 150.97C154.206 150.468 154.003 149.834 154.003 149.066V142.09L155.075 141.53V149.034C155.075 150.25 155.662 150.858 156.835 150.858H157.395V151.85H156.707ZM167.139 150.858H167.683V151.85H166.995C166.025 151.85 165.299 151.514 164.819 150.842C164.286 151.727 163.475 152.17 162.387 152.17C161.289 152.17 160.478 151.732 159.955 150.858C159.465 151.519 158.734 151.85 157.763 151.85H157.075V150.858H157.635C158.809 150.858 159.395 150.25 159.395 149.034V148.49C159.395 147.263 159.694 146.324 160.291 145.674C160.814 145.098 161.513 144.81 162.387 144.81C163.39 144.81 164.153 145.183 164.675 145.93C165.134 146.57 165.363 147.423 165.363 148.49V149.034C165.363 150.25 165.955 150.858 167.139 150.858ZM162.387 151.178C162.974 151.178 163.438 150.938 163.779 150.458C164.121 149.967 164.291 149.306 164.291 148.474C164.291 146.682 163.657 145.786 162.387 145.786C161.107 145.786 160.467 146.682 160.467 148.474C160.467 150.276 161.107 151.178 162.387 151.178ZM169.933 141.274C169.517 141.274 169.309 141.06 169.309 140.634C169.309 140.218 169.517 140.01 169.933 140.01C170.338 140.01 170.541 140.218 170.541 140.634C170.541 141.06 170.338 141.274 169.933 141.274ZM169.037 142.938C168.599 142.938 168.381 142.719 168.381 142.282C168.381 141.844 168.599 141.626 169.037 141.626C169.453 141.626 169.661 141.844 169.661 142.282C169.661 142.719 169.453 142.938 169.037 142.938ZM170.205 142.282C170.205 141.844 170.423 141.626 170.861 141.626C171.277 141.626 171.485 141.844 171.485 142.282C171.485 142.719 171.277 142.938 170.861 142.938C170.423 142.938 170.205 142.719 170.205 142.282ZM172.509 150.858H173.069V151.85H172.381C171.421 151.85 170.701 151.524 170.221 150.874C169.719 151.524 168.994 151.85 168.045 151.85H167.357V150.858H167.917C169.09 150.858 169.677 150.25 169.677 149.034V145.562L170.749 145.002V149.034C170.749 150.25 171.335 150.858 172.509 150.858ZM174.363 142.938C173.937 142.938 173.723 142.719 173.723 142.282C173.723 141.844 173.937 141.626 174.363 141.626C174.79 141.626 175.003 141.844 175.003 142.282C175.003 142.719 174.79 142.938 174.363 142.938ZM176.187 142.938C175.761 142.938 175.547 142.719 175.547 142.282C175.547 141.844 175.761 141.626 176.187 141.626C176.614 141.626 176.827 141.844 176.827 142.282C176.827 142.719 176.614 142.938 176.187 142.938ZM177.899 150.858H178.459V151.85H177.771C176.811 151.85 176.091 151.524 175.611 150.874C175.11 151.524 174.385 151.85 173.435 151.85H172.747V150.858H173.307C174.481 150.858 175.067 150.25 175.067 149.034V145.562L176.139 145.002V149.034C176.139 150.25 176.726 150.858 177.899 150.858ZM178.138 151.85V150.858H179.114C180.298 150.858 180.89 150.25 180.89 149.034V146.73L181.962 146.17V149.034C181.962 150.25 182.549 150.858 183.722 150.858H184.314C185.487 150.858 186.074 150.25 186.074 149.034V146.154L187.146 145.578V149.034C187.146 150.25 187.738 150.858 188.922 150.858H189.498C190.682 150.858 191.274 150.25 191.274 149.034V145.562L192.346 145.002V149.066C192.346 149.951 192.085 150.644 191.562 151.146C191.093 151.604 190.458 151.839 189.658 151.85H188.778C187.786 151.85 187.066 151.498 186.618 150.794C186.159 151.498 185.445 151.85 184.474 151.85H183.594C182.602 151.85 181.877 151.498 181.418 150.794C180.97 151.498 180.25 151.85 179.258 151.85H178.138ZM201.062 142.09L202.118 141.53V148.986C202.118 149.892 201.852 150.607 201.318 151.13C200.828 151.61 200.172 151.85 199.35 151.85H194.102L194.614 150.858H197.062V144.17L198.118 143.61V150.858H199.238C200.454 150.858 201.062 150.228 201.062 148.97V142.09ZM205.003 151.85V142.09L206.075 141.53V151.85H205.003ZM92.8725 176.858H93.4325V177.85H92.7445C92.0618 177.85 91.4911 177.679 91.0325 177.338C90.9471 178.468 90.4938 179.359 89.6725 180.01C88.9365 180.596 88.0085 180.89 86.8885 180.89C85.5018 180.89 84.4351 180.415 83.6885 179.466C83.1018 178.73 82.8085 177.85 82.8085 176.826C82.8085 175.898 83.0431 175.114 83.5125 174.474L84.5685 174.234C84.0458 175.002 83.7845 175.844 83.7845 176.762C83.7845 177.7 84.0885 178.468 84.6965 179.066C85.2725 179.631 86.0031 179.914 86.8885 179.914C87.9125 179.914 88.7071 179.604 89.2725 178.986C89.7525 178.474 89.9925 177.807 89.9925 176.986V168.09L91.0485 167.53V175.05V175.082C91.0485 176.266 91.6565 176.858 92.8725 176.858ZM98.2586 176.858H98.8186V177.85H98.1306C97.1706 177.85 96.4506 177.524 95.9706 176.874C95.4693 177.524 94.7439 177.85 93.7946 177.85H93.1066V176.858H93.6666C94.8399 176.858 95.4266 176.25 95.4266 175.034V171.562L96.4986 171.002V175.034C96.4986 176.25 97.0853 176.858 98.2586 176.858ZM94.6266 179.53C95.0533 179.53 95.2666 179.748 95.2666 180.186C95.2666 180.623 95.0533 180.842 94.6266 180.842C94.1999 180.842 93.9866 180.623 93.9866 180.186C93.9866 179.748 94.1999 179.53 94.6266 179.53ZM96.4506 179.53C96.8773 179.53 97.0906 179.748 97.0906 180.186C97.0906 180.623 96.8773 180.842 96.4506 180.842C96.0239 180.842 95.8106 180.623 95.8106 180.186C95.8106 179.748 96.0239 179.53 96.4506 179.53ZM108.609 176.858H109.169V177.85H108.593C107.708 177.85 106.999 177.748 106.465 177.546C105.943 177.343 105.457 176.986 105.009 176.474C103.644 177.391 102.065 177.85 100.273 177.85H98.4972V176.858H100.289C102.615 176.858 104.428 176.068 105.729 174.49C104.78 172.676 103.633 171.77 102.289 171.77C101.372 171.77 100.476 172.234 99.6012 173.162V172.106C100.476 171.242 101.388 170.81 102.337 170.81H102.369C104.044 170.81 105.495 171.94 106.721 174.202V174.858C106.391 175.284 106.039 175.652 105.665 175.962C106.007 176.292 106.391 176.527 106.817 176.666C107.255 176.794 107.852 176.858 108.609 176.858ZM102.721 179.53C103.137 179.53 103.345 179.743 103.345 180.17C103.345 180.618 103.137 180.842 102.721 180.842C102.284 180.842 102.065 180.618 102.065 180.17C102.065 179.743 102.284 179.53 102.721 179.53ZM108.857 177.85V176.858H109.833C111.017 176.858 111.609 176.25 111.609 175.034V172.73L112.681 172.17V175.034C112.681 176.25 113.267 176.858 114.441 176.858H115.033C116.206 176.858 116.793 176.25 116.793 175.034V172.154L117.865 171.578V175.034C117.865 176.25 118.457 176.858 119.641 176.858H120.217C121.401 176.858 121.993 176.25 121.993 175.034V171.562L123.065 171.002V174.97C123.065 176.228 123.673 176.858 124.889 176.858H125.817V177.85H124.777C123.763 177.85 123.022 177.492 122.553 176.778C122.083 177.492 121.358 177.85 120.377 177.85H119.497C118.505 177.85 117.785 177.498 117.337 176.794C116.878 177.498 116.163 177.85 115.193 177.85H114.313C113.321 177.85 112.595 177.498 112.137 176.794C111.689 177.498 110.969 177.85 109.977 177.85H108.857ZM127.113 168.938C126.687 168.938 126.473 168.719 126.473 168.282C126.473 167.844 126.687 167.626 127.113 167.626C127.54 167.626 127.753 167.844 127.753 168.282C127.753 168.719 127.54 168.938 127.113 168.938ZM128.937 168.938C128.511 168.938 128.297 168.719 128.297 168.282C128.297 167.844 128.511 167.626 128.937 167.626C129.364 167.626 129.577 167.844 129.577 168.282C129.577 168.719 129.364 168.938 128.937 168.938ZM130.649 176.858H131.209V177.85H130.521C129.561 177.85 128.841 177.524 128.361 176.874C127.86 177.524 127.135 177.85 126.185 177.85H125.497V176.858H126.057C127.231 176.858 127.817 176.25 127.817 175.034V171.562L128.889 171.002V175.034C128.889 176.25 129.476 176.858 130.649 176.858ZM130.888 177.85V176.858H131.336C132.552 176.858 133.16 176.228 133.16 174.97V168.09L134.232 167.53V174.986C134.232 175.892 133.965 176.607 133.432 177.13C132.931 177.61 132.269 177.85 131.448 177.85H130.888ZM137.113 177.85V168.09L138.185 167.53V177.85H137.113ZM151.374 176.858H151.918V177.85H151.23C150.088 177.85 149.294 177.402 148.846 176.506C148.291 177.082 147.608 177.37 146.798 177.37C145.88 177.37 145.155 177.023 144.622 176.33C144.174 175.743 143.95 175.012 143.95 174.138C143.95 173.114 144.248 172.292 144.846 171.674C145.368 171.13 146.014 170.858 146.782 170.858C147.475 170.858 148.056 171.06 148.526 171.466V170.602L149.598 170.042V175.034C149.598 176.25 150.19 176.858 151.374 176.858ZM148.526 172.682C148.056 172.116 147.486 171.834 146.814 171.834C146.28 171.834 145.843 172.052 145.502 172.49C145.171 172.916 145.006 173.471 145.006 174.154C145.006 174.847 145.171 175.402 145.502 175.818C145.843 176.234 146.286 176.442 146.83 176.442C147.523 176.442 148.099 176.138 148.558 175.53C148.536 175.338 148.526 175.183 148.526 175.066V172.682ZM156.743 176.858H157.303V177.85H156.615C155.655 177.85 154.935 177.524 154.455 176.874C153.954 177.524 153.228 177.85 152.279 177.85H151.591V176.858H152.151C153.324 176.858 153.911 176.25 153.911 175.034V171.562L154.983 171.002V175.034C154.983 176.25 155.57 176.858 156.743 176.858ZM153.111 179.53C153.538 179.53 153.751 179.748 153.751 180.186C153.751 180.623 153.538 180.842 153.111 180.842C152.684 180.842 152.471 180.623 152.471 180.186C152.471 179.748 152.684 179.53 153.111 179.53ZM154.935 179.53C155.362 179.53 155.575 179.748 155.575 180.186C155.575 180.623 155.362 180.842 154.935 180.842C154.508 180.842 154.295 180.623 154.295 180.186C154.295 179.748 154.508 179.53 154.935 179.53ZM162.086 176.858H162.646V177.85H161.958C160.976 177.85 160.246 177.514 159.766 176.842C159.264 177.514 158.523 177.85 157.542 177.85H156.982V176.858H157.43C158.646 176.858 159.254 176.228 159.254 174.97V168.09L160.326 167.53V175.034C160.326 176.25 160.912 176.858 162.086 176.858ZM172.389 176.858H172.933V177.85H172.245C171.275 177.85 170.549 177.514 170.069 176.842C169.536 177.727 168.725 178.17 167.637 178.17C166.539 178.17 165.728 177.732 165.205 176.858C164.715 177.519 163.984 177.85 163.013 177.85H162.325V176.858H162.885C164.059 176.858 164.645 176.25 164.645 175.034V174.49C164.645 173.263 164.944 172.324 165.541 171.674C166.064 171.098 166.763 170.81 167.637 170.81C168.64 170.81 169.403 171.183 169.925 171.93C170.384 172.57 170.613 173.423 170.613 174.49V175.034C170.613 176.25 171.205 176.858 172.389 176.858ZM167.637 177.178C168.224 177.178 168.688 176.938 169.029 176.458C169.371 175.967 169.541 175.306 169.541 174.474C169.541 172.682 168.907 171.786 167.637 171.786C166.357 171.786 165.717 172.682 165.717 174.474C165.717 176.276 166.357 177.178 167.637 177.178ZM180.799 176.858V177.85H172.607V176.858H175.295C174.623 176.175 174.287 175.268 174.287 174.138C174.287 173.06 174.655 172.207 175.391 171.578C175.977 171.076 176.665 170.82 177.455 170.81C178.553 170.81 179.412 171.242 180.031 172.106V173.162C179.391 172.244 178.569 171.786 177.567 171.786H177.519C176.879 171.786 176.356 172.004 175.951 172.442C175.556 172.879 175.359 173.455 175.359 174.17C175.359 174.991 175.604 175.647 176.095 176.138C176.564 176.618 177.193 176.858 177.983 176.858H180.799Z" fill="#656668"/>
<g clip-path="url(#clip0)">
<path d="M145.029 13.9242C145.515 13.9242 145.908 13.5307 145.908 13.0453V3.48727C145.908 2.0334 144.725 0.850586 143.271 0.850586H111.279C109.825 0.850586 108.643 2.0334 108.643 3.48727V43.2133C108.643 44.6672 109.825 45.85 111.279 45.85H143.271C144.725 45.85 145.908 44.6672 145.908 43.2133V36.7383C145.908 36.2529 145.515 35.8595 145.029 35.8595C144.544 35.8595 144.15 36.2529 144.15 36.7383V43.2133C144.15 43.698 143.756 44.0922 143.271 44.0922H111.279C110.795 44.0922 110.4 43.698 110.4 43.2133V3.48727C110.4 3.00265 110.795 2.60838 111.279 2.60838H143.271C143.756 2.60838 144.15 3.00265 144.15 3.48727V13.0453C144.15 13.5307 144.544 13.9242 145.029 13.9242Z" fill="#6654A4"/>
<path d="M127.275 5.59668C122.817 5.59668 119.189 9.22397 119.189 13.6825C119.189 15.9955 120.166 18.0845 121.728 19.5596C121.757 19.5909 121.788 19.6205 121.822 19.6475C123.261 20.964 125.176 21.7683 127.275 21.7683C129.375 21.7683 131.289 20.9639 132.728 19.6475C132.762 19.6205 132.793 19.5908 132.823 19.5596C134.385 18.0845 135.361 15.9955 135.361 13.6825C135.361 9.22397 131.734 5.59668 127.275 5.59668ZM127.275 20.0106C125.84 20.0106 124.516 19.5296 123.453 18.7214C124.225 17.3516 125.667 16.495 127.275 16.495C128.884 16.495 130.325 17.3516 131.098 18.7214C130.035 19.5296 128.711 20.0106 127.275 20.0106ZM125.869 13.331V12.7597C125.869 11.9843 126.5 11.3534 127.275 11.3534C128.051 11.3534 128.682 11.9843 128.682 12.7597V13.331C128.682 14.1063 128.051 14.7372 127.275 14.7372C126.5 14.7372 125.869 14.1063 125.869 13.331ZM132.368 17.4339C131.72 16.4726 130.821 15.7249 129.778 15.2633C130.192 14.7283 130.439 14.0582 130.439 13.331V12.7597C130.439 11.015 129.02 9.59565 127.275 9.59565C125.531 9.59565 124.111 11.015 124.111 12.7597V13.331C124.111 14.0582 124.359 14.7283 124.773 15.2633C123.73 15.7249 122.831 16.4726 122.183 17.4339C121.407 16.3834 120.947 15.0858 120.947 13.6825C120.947 10.1932 123.786 7.35447 127.275 7.35447C130.765 7.35447 133.604 10.1932 133.604 13.6825C133.604 15.0858 133.144 16.3834 132.368 17.4339Z" fill="#6654A4"/>
<path d="M132.021 39.3467H127.275C126.79 39.3467 126.396 39.7402 126.396 40.2256C126.396 40.711 126.79 41.1045 127.275 41.1045H132.021C132.507 41.1045 132.9 40.711 132.9 40.2256C132.9 39.7402 132.507 39.3467 132.021 39.3467Z" fill="#6654A4"/>
<path d="M132.021 34.4248H119.541C119.056 34.4248 118.662 34.8183 118.662 35.3037C118.662 35.7891 119.056 36.1826 119.541 36.1826H132.021C132.507 36.1826 132.9 35.7891 132.9 35.3037C132.9 34.8183 132.507 34.4248 132.021 34.4248Z" fill="#6654A4"/>
<path d="M132.021 29.5029H119.541C119.056 29.5029 118.662 29.8964 118.662 30.3818C118.662 30.8672 119.056 31.2607 119.541 31.2607H132.021C132.507 31.2607 132.9 30.8672 132.9 30.3818C132.9 29.8964 132.507 29.5029 132.021 29.5029Z" fill="#6654A4"/>
<path d="M116.408 24.8386C116.245 24.6751 116.018 24.5811 115.786 24.5811C115.555 24.5811 115.328 24.6751 115.165 24.8386C115.001 25.002 114.907 25.2288 114.907 25.46C114.907 25.6911 115.001 25.9179 115.165 26.0813C115.329 26.2448 115.555 26.3388 115.786 26.3388C116.018 26.3388 116.244 26.2448 116.408 26.0813C116.572 25.9179 116.666 25.6911 116.666 25.46C116.666 25.2288 116.572 25.002 116.408 24.8386Z" fill="#6654A4"/>
<path d="M116.408 29.7604C116.244 29.597 116.018 29.5029 115.786 29.5029C115.555 29.5029 115.329 29.597 115.165 29.7604C115.001 29.9239 114.907 30.1507 114.907 30.3818C114.907 30.613 115.001 30.8397 115.165 31.0032C115.329 31.1667 115.555 31.2607 115.786 31.2607C116.018 31.2607 116.244 31.1667 116.408 31.0032C116.572 30.8397 116.666 30.613 116.666 30.3818C116.666 30.1507 116.572 29.9239 116.408 29.7604Z" fill="#6654A4"/>
<path d="M116.408 34.6823C116.244 34.5188 116.018 34.4248 115.786 34.4248C115.555 34.4248 115.329 34.5188 115.165 34.6823C115.001 34.8458 114.907 35.0726 114.907 35.3037C114.907 35.5348 115.001 35.7616 115.165 35.9251C115.328 36.0886 115.555 36.1826 115.786 36.1826C116.018 36.1826 116.245 36.0886 116.408 35.9251C116.572 35.7616 116.666 35.5348 116.666 35.3037C116.666 35.0726 116.572 34.8458 116.408 34.6823Z" fill="#6654A4"/>
<path d="M132.021 24.5811H119.541C119.056 24.5811 118.662 24.9745 118.662 25.46C118.662 25.9454 119.056 26.3388 119.541 26.3388H132.021C132.507 26.3388 132.9 25.9454 132.9 25.46C132.9 24.9745 132.507 24.5811 132.021 24.5811Z" fill="#6654A4"/>
<path d="M151.796 12.3047C150.942 11.8117 149.947 11.6808 148.995 11.9359C148.042 12.1912 147.246 12.802 146.753 13.6558L135.693 32.8125C135.633 32.9175 135.594 33.034 135.581 33.1545L134.802 40.128C134.764 40.475 134.934 40.812 135.236 40.9867C135.373 41.0654 135.524 41.1044 135.676 41.1044C135.86 41.1044 136.043 41.0469 136.197 40.9332L141.847 36.7722C141.945 36.7003 142.026 36.609 142.087 36.504L153.147 17.3473C154.165 15.5846 153.559 13.3225 151.796 12.3047ZM136.772 38.3265L137.179 34.6851L139.722 36.1537L136.772 38.3265ZM141.004 34.8638L137.655 32.9303L146.531 17.5575L149.88 19.4911L141.004 34.8638ZM151.625 16.4683L150.758 17.9688L147.409 16.0353L148.276 14.5347C148.534 14.0875 148.951 13.7675 149.45 13.6339C149.949 13.5001 150.47 13.5688 150.917 13.827C151.364 14.0853 151.684 14.5022 151.818 15.0011C151.952 15.4999 151.883 16.021 151.625 16.4683Z" fill="#6654A4"/>
</g>
<defs>
<clipPath id="clip0">
<rect width="45" height="44.9995" fill="white" transform="translate(108.642 0.850586)"/>
</clipPath>
</defs>
</svg>
