<svg width="262" height="190" viewBox="0 0 262 190" fill="none" xmlns="http://www.w3.org/2000/svg">
<path d="M72.7896 79.2212C72.6464 80.7381 72.0865 81.923 71.1099 82.7759C70.1334 83.6222 68.8345 84.0454 67.2135 84.0454C66.0806 84.0454 65.0813 83.7785 64.2154 83.2446C63.356 82.7043 62.692 81.9393 62.2232 80.9497C61.7545 79.9601 61.5103 78.811 61.4908 77.5024V76.1743C61.4908 74.8332 61.7284 73.6515 62.2037 72.6294C62.6789 71.6073 63.3593 70.8195 64.2447 70.2661C65.1366 69.7127 66.1653 69.436 67.3306 69.436C68.8997 69.436 70.1627 69.8625 71.1197 70.7153C72.0767 71.5682 72.6334 72.7726 72.7896 74.3286H70.3287C70.2115 73.3065 69.912 72.5708 69.4303 72.1216C68.955 71.6659 68.2551 71.438 67.3306 71.438C66.2564 71.438 65.4296 71.8319 64.8502 72.6196C64.2773 73.4009 63.9843 74.55 63.9713 76.0669V77.3267C63.9713 78.8631 64.2447 80.035 64.7916 80.8423C65.345 81.6496 66.1523 82.0532 67.2135 82.0532C68.1835 82.0532 68.9127 81.8351 69.401 81.3989C69.8892 80.9627 70.1985 80.2368 70.3287 79.2212H72.7896ZM80.3092 75.4517C79.9967 75.3996 79.6744 75.3735 79.3424 75.3735C78.2551 75.3735 77.5227 75.7902 77.1451 76.6235V83.8501H74.772V73.2837H77.0377L77.0963 74.4653C77.6692 73.5474 78.4635 73.0884 79.4791 73.0884C79.8176 73.0884 80.0976 73.134 80.3189 73.2251L80.3092 75.4517ZM86.2662 84.0454C84.7623 84.0454 83.5416 83.5734 82.6041 82.6294C81.6731 81.6789 81.2076 80.4159 81.2076 78.8403V78.5474C81.2076 77.4927 81.4094 76.5519 81.8131 75.7251C82.2232 74.8918 82.7961 74.244 83.5318 73.7817C84.2675 73.3195 85.0878 73.0884 85.9928 73.0884C87.4316 73.0884 88.5416 73.5474 89.3228 74.4653C90.1106 75.3833 90.5045 76.6821 90.5045 78.3618V79.3188H83.6002C83.6718 80.1912 83.9615 80.8813 84.4693 81.3892C84.9836 81.897 85.6282 82.1509 86.4029 82.1509C87.4901 82.1509 88.3756 81.7114 89.0592 80.8325L90.3385 82.0532C89.9153 82.6847 89.3489 83.1763 88.6392 83.5278C87.9361 83.8729 87.1451 84.0454 86.2662 84.0454ZM85.983 74.9927C85.3319 74.9927 84.8046 75.2205 84.401 75.6763C84.0038 76.132 83.7499 76.7668 83.6392 77.5806H88.1607V77.4048C88.1086 76.6105 87.897 76.0116 87.526 75.6079C87.1549 75.1978 86.6405 74.9927 85.983 74.9927ZM98.6685 83.8501C98.5644 83.6483 98.4732 83.3195 98.3951 82.8638C97.6399 83.6515 96.7154 84.0454 95.6217 84.0454C94.5605 84.0454 93.6946 83.7427 93.024 83.1372C92.3534 82.5317 92.0181 81.783 92.0181 80.8911C92.0181 79.7648 92.4348 78.9022 93.2681 78.3032C94.108 77.6978 95.3059 77.395 96.8619 77.395H98.317V76.7017C98.317 76.1548 98.164 75.7186 97.858 75.3931C97.552 75.061 97.0865 74.895 96.4615 74.895C95.9211 74.895 95.4784 75.0317 95.1334 75.3052C94.7883 75.5721 94.6158 75.9139 94.6158 76.3306H92.2428C92.2428 75.7511 92.4348 75.2108 92.8189 74.7095C93.203 74.2017 93.7239 73.8045 94.3814 73.5181C95.0455 73.2316 95.7844 73.0884 96.5982 73.0884C97.8352 73.0884 98.8215 73.4009 99.5572 74.0259C100.293 74.6444 100.67 75.5168 100.69 76.6431V81.4087C100.69 82.3592 100.823 83.1177 101.09 83.6841V83.8501H98.6685ZM96.0611 82.1411C96.5299 82.1411 96.9693 82.0272 97.3795 81.7993C97.7961 81.5715 98.1086 81.2655 98.317 80.8813V78.8892H97.0377C96.1588 78.8892 95.498 79.0422 95.0553 79.3481C94.6125 79.6541 94.3912 80.0871 94.3912 80.647C94.3912 81.1027 94.5409 81.4673 94.8404 81.7407C95.1464 82.0076 95.5533 82.1411 96.0611 82.1411ZM106.149 70.7153V73.2837H108.014V75.0415H106.149V80.9399C106.149 81.3436 106.227 81.6366 106.383 81.8188C106.546 81.9946 106.833 82.0825 107.243 82.0825C107.516 82.0825 107.793 82.05 108.073 81.9849V83.8208C107.532 83.9705 107.012 84.0454 106.51 84.0454C104.687 84.0454 103.776 83.0396 103.776 81.0278V75.0415H102.038V73.2837H103.776V70.7153H106.149ZM114.489 84.0454C112.985 84.0454 111.764 83.5734 110.827 82.6294C109.896 81.6789 109.43 80.4159 109.43 78.8403V78.5474C109.43 77.4927 109.632 76.5519 110.036 75.7251C110.446 74.8918 111.019 74.244 111.754 73.7817C112.49 73.3195 113.31 73.0884 114.215 73.0884C115.654 73.0884 116.764 73.5474 117.545 74.4653C118.333 75.3833 118.727 76.6821 118.727 78.3618V79.3188H111.823C111.894 80.1912 112.184 80.8813 112.692 81.3892C113.206 81.897 113.851 82.1509 114.626 82.1509C115.713 82.1509 116.598 81.7114 117.282 80.8325L118.561 82.0532C118.138 82.6847 117.572 83.1763 116.862 83.5278C116.159 83.8729 115.368 84.0454 114.489 84.0454ZM114.206 74.9927C113.555 74.9927 113.027 75.2205 112.624 75.6763C112.226 76.132 111.973 76.7668 111.862 77.5806H116.383V77.4048C116.331 76.6105 116.12 76.0116 115.749 75.6079C115.378 75.1978 114.863 74.9927 114.206 74.9927ZM129.254 80.4517L131.403 73.2837H133.932L129.733 85.4517C129.088 87.229 127.995 88.1177 126.452 88.1177C126.107 88.1177 125.726 88.0591 125.309 87.9419V86.106L125.758 86.1353C126.357 86.1353 126.807 86.0246 127.106 85.8032C127.412 85.5884 127.653 85.2238 127.829 84.7095L128.17 83.8013L124.46 73.2837H127.018L129.254 80.4517ZM134.704 78.4692C134.704 77.4341 134.909 76.5031 135.319 75.6763C135.729 74.8429 136.305 74.2049 137.047 73.7622C137.79 73.313 138.642 73.0884 139.606 73.0884C141.032 73.0884 142.187 73.5474 143.073 74.4653C143.965 75.3833 144.447 76.6007 144.518 78.1177L144.528 78.6743C144.528 79.716 144.326 80.647 143.922 81.4673C143.525 82.2876 142.952 82.9224 142.204 83.3716C141.462 83.8208 140.602 84.0454 139.626 84.0454C138.135 84.0454 136.94 83.5506 136.042 82.561C135.15 81.5649 134.704 80.2401 134.704 78.5864V78.4692ZM137.077 78.6743C137.077 79.7616 137.301 80.6144 137.751 81.2329C138.2 81.8449 138.825 82.1509 139.626 82.1509C140.426 82.1509 141.048 81.8384 141.491 81.2134C141.94 80.5884 142.165 79.6737 142.165 78.4692C142.165 77.4015 141.934 76.5552 141.471 75.9302C141.016 75.3052 140.394 74.9927 139.606 74.9927C138.831 74.9927 138.216 75.3019 137.76 75.9204C137.305 76.5324 137.077 77.4504 137.077 78.6743ZM152.936 82.8149C152.239 83.6353 151.25 84.0454 149.967 84.0454C148.822 84.0454 147.952 83.7101 147.36 83.0396C146.774 82.369 146.481 81.3989 146.481 80.1294V73.2837H148.854V80.1001C148.854 81.4412 149.411 82.1118 150.524 82.1118C151.676 82.1118 152.454 81.6984 152.858 80.8716V73.2837H155.231V83.8501H152.995L152.936 82.8149ZM163.18 75.4517C162.868 75.3996 162.545 75.3735 162.213 75.3735C161.126 75.3735 160.394 75.7902 160.016 76.6235V83.8501H157.643V73.2837H159.909L159.967 74.4653C160.54 73.5474 161.335 73.0884 162.35 73.0884C162.689 73.0884 162.969 73.134 163.19 73.2251L163.18 75.4517ZM172.36 78.5669V83.8501H169.889V69.6313H175.329C176.917 69.6313 178.177 70.0448 179.108 70.8716C180.045 71.6984 180.514 72.7922 180.514 74.1528C180.514 75.5461 180.055 76.63 179.137 77.4048C178.226 78.1795 176.947 78.5669 175.299 78.5669H172.36ZM172.36 76.5845H175.329C176.208 76.5845 176.878 76.3794 177.34 75.9692C177.803 75.5526 178.034 74.9536 178.034 74.1724C178.034 73.4041 177.799 72.7922 177.331 72.3364C176.862 71.8742 176.217 71.6366 175.397 71.6235H172.36V76.5845ZM185.29 83.8501H182.829V69.6313H185.29V83.8501ZM199.606 83.8501H197.135L190.797 73.7622V83.8501H188.327V69.6313H190.797L197.155 79.7583V69.6313H199.606V83.8501Z" fill="#6654A4"/>
<path d="M66.3906 125.241C66.25 126.444 65.8047 127.374 65.0547 128.03C64.3099 128.681 63.3177 129.007 62.0781 129.007C60.7344 129.007 59.6562 128.525 58.8438 127.562C58.0365 126.598 57.6328 125.309 57.6328 123.694V122.601C57.6328 121.543 57.8203 120.614 58.1953 119.812C58.5755 119.009 59.112 118.395 59.8047 117.968C60.4974 117.535 61.2995 117.319 62.2109 117.319C63.4193 117.319 64.388 117.658 65.1172 118.335C65.8464 119.007 66.2708 119.939 66.3906 121.132H64.8828C64.7526 120.226 64.4688 119.569 64.0312 119.163C63.599 118.757 62.9922 118.554 62.2109 118.554C61.2526 118.554 60.5 118.908 59.9531 119.616C59.4115 120.325 59.1406 121.332 59.1406 122.64V123.741C59.1406 124.976 59.3984 125.957 59.9141 126.687C60.4297 127.416 61.151 127.78 62.0781 127.78C62.9115 127.78 63.5495 127.593 63.9922 127.218C64.4401 126.838 64.737 126.179 64.8828 125.241H66.3906ZM72.3047 121.694C72.0859 121.658 71.849 121.64 71.5938 121.64C70.6458 121.64 70.0026 122.043 69.6641 122.851V128.851H68.2188V120.397H69.625L69.6484 121.374C70.1224 120.619 70.7943 120.241 71.6641 120.241C71.9453 120.241 72.1589 120.278 72.3047 120.351V121.694ZM76.9922 129.007C75.8464 129.007 74.9141 128.632 74.1953 127.882C73.4766 127.127 73.1172 126.119 73.1172 124.858V124.593C73.1172 123.754 73.276 123.007 73.5938 122.351C73.9167 121.689 74.3646 121.174 74.9375 120.804C75.5156 120.429 76.1406 120.241 76.8125 120.241C77.9115 120.241 78.7656 120.603 79.375 121.327C79.9844 122.051 80.2891 123.088 80.2891 124.437V125.038H74.5625C74.5833 125.871 74.8255 126.546 75.2891 127.062C75.7578 127.572 76.3516 127.827 77.0703 127.827C77.5807 127.827 78.013 127.723 78.3672 127.515C78.7214 127.306 79.0312 127.03 79.2969 126.687L80.1797 127.374C79.4714 128.463 78.4089 129.007 76.9922 129.007ZM76.8125 121.429C76.2292 121.429 75.7396 121.642 75.3438 122.069C74.9479 122.491 74.7031 123.085 74.6094 123.851H78.8438V123.741C78.8021 123.007 78.6042 122.439 78.25 122.038C77.8958 121.632 77.4167 121.429 76.8125 121.429ZM87.1875 128.851C87.1042 128.684 87.0365 128.387 86.9844 127.96C86.3125 128.658 85.5104 129.007 84.5781 129.007C83.7448 129.007 83.0599 128.772 82.5234 128.304C81.9922 127.83 81.7266 127.231 81.7266 126.507C81.7266 125.627 82.0599 124.944 82.7266 124.46C83.3984 123.97 84.3411 123.726 85.5547 123.726H86.9609V123.062C86.9609 122.556 86.8099 122.155 86.5078 121.858C86.2057 121.556 85.7604 121.405 85.1719 121.405C84.6562 121.405 84.224 121.535 83.875 121.796C83.526 122.056 83.3516 122.371 83.3516 122.741H81.8984C81.8984 122.319 82.0469 121.913 82.3438 121.522C82.6458 121.127 83.0521 120.814 83.5625 120.585C84.0781 120.356 84.6432 120.241 85.2578 120.241C86.2318 120.241 86.9948 120.486 87.5469 120.976C88.099 121.46 88.3854 122.129 88.4062 122.983V126.874C88.4062 127.65 88.5052 128.267 88.7031 128.726V128.851H87.1875ZM84.7891 127.749C85.2422 127.749 85.6719 127.632 86.0781 127.397C86.4844 127.163 86.7786 126.858 86.9609 126.483V124.749H85.8281C84.0573 124.749 83.1719 125.267 83.1719 126.304C83.1719 126.757 83.3229 127.111 83.625 127.366C83.9271 127.621 84.3151 127.749 84.7891 127.749ZM92.6328 118.351V120.397H94.2109V121.515H92.6328V126.757C92.6328 127.095 92.7031 127.351 92.8438 127.522C92.9844 127.689 93.224 127.772 93.5625 127.772C93.7292 127.772 93.9583 127.741 94.25 127.679V128.851C93.8698 128.955 93.5 129.007 93.1406 129.007C92.4948 129.007 92.0078 128.812 91.6797 128.421C91.3516 128.03 91.1875 127.476 91.1875 126.757V121.515H89.6484V120.397H91.1875V118.351H92.6328ZM99.4141 129.007C98.2682 129.007 97.3359 128.632 96.6172 127.882C95.8984 127.127 95.5391 126.119 95.5391 124.858V124.593C95.5391 123.754 95.6979 123.007 96.0156 122.351C96.3385 121.689 96.7865 121.174 97.3594 120.804C97.9375 120.429 98.5625 120.241 99.2344 120.241C100.333 120.241 101.188 120.603 101.797 121.327C102.406 122.051 102.711 123.088 102.711 124.437V125.038H96.9844C97.0052 125.871 97.2474 126.546 97.7109 127.062C98.1797 127.572 98.7734 127.827 99.4922 127.827C100.003 127.827 100.435 127.723 100.789 127.515C101.143 127.306 101.453 127.03 101.719 126.687L102.602 127.374C101.893 128.463 100.831 129.007 99.4141 129.007ZM99.2344 121.429C98.651 121.429 98.1615 121.642 97.7656 122.069C97.3698 122.491 97.125 123.085 97.0312 123.851H101.266V123.741C101.224 123.007 101.026 122.439 100.672 122.038C100.318 121.632 99.8385 121.429 99.2344 121.429ZM111.125 126.733L113.094 120.397H114.641L111.242 130.155C110.716 131.562 109.88 132.265 108.734 132.265L108.461 132.241L107.922 132.14V130.968L108.312 130.999C108.802 130.999 109.182 130.9 109.453 130.702C109.729 130.504 109.956 130.142 110.133 129.616L110.453 128.757L107.438 120.397H109.016L111.125 126.733ZM115.43 124.546C115.43 123.718 115.591 122.973 115.914 122.312C116.242 121.65 116.695 121.14 117.273 120.78C117.857 120.421 118.521 120.241 119.266 120.241C120.417 120.241 121.346 120.64 122.055 121.437C122.768 122.233 123.125 123.293 123.125 124.616V124.718C123.125 125.541 122.966 126.28 122.648 126.937C122.336 127.588 121.885 128.095 121.297 128.46C120.714 128.825 120.042 129.007 119.281 129.007C118.135 129.007 117.206 128.608 116.492 127.812C115.784 127.015 115.43 125.96 115.43 124.647V124.546ZM116.883 124.718C116.883 125.655 117.099 126.408 117.531 126.976C117.969 127.543 118.552 127.827 119.281 127.827C120.016 127.827 120.599 127.541 121.031 126.968C121.464 126.39 121.68 125.582 121.68 124.546C121.68 123.619 121.458 122.869 121.016 122.296C120.578 121.718 119.995 121.429 119.266 121.429C118.552 121.429 117.977 121.713 117.539 122.28C117.102 122.848 116.883 123.66 116.883 124.718ZM130.156 128.015C129.594 128.676 128.768 129.007 127.68 129.007C126.779 129.007 126.091 128.746 125.617 128.226C125.148 127.7 124.911 126.924 124.906 125.897V120.397H126.352V125.858C126.352 127.14 126.872 127.78 127.914 127.78C129.018 127.78 129.753 127.369 130.117 126.546V120.397H131.562V128.851H130.188L130.156 128.015ZM137.852 121.694C137.633 121.658 137.396 121.64 137.141 121.64C136.193 121.64 135.549 122.043 135.211 122.851V128.851H133.766V120.397H135.172L135.195 121.374C135.669 120.619 136.341 120.241 137.211 120.241C137.492 120.241 137.706 120.278 137.852 120.351V121.694ZM144.883 124.397V128.851H143.383V117.476H147.578C148.823 117.476 149.797 117.793 150.5 118.429C151.208 119.064 151.562 119.905 151.562 120.952C151.562 122.056 151.216 122.908 150.523 123.507C149.836 124.101 148.849 124.397 147.562 124.397H144.883ZM144.883 123.171H147.578C148.38 123.171 148.995 122.983 149.422 122.608C149.849 122.228 150.062 121.681 150.062 120.968C150.062 120.291 149.849 119.749 149.422 119.343C148.995 118.937 148.409 118.726 147.664 118.71H144.883V123.171ZM155.086 128.851H153.586V117.476H155.086V128.851ZM166.578 128.851H165.07L159.344 120.085V128.851H157.836V117.476H159.344L165.086 126.28V117.476H166.578V128.851ZM178.203 128.851C178.12 128.684 178.052 128.387 178 127.96C177.328 128.658 176.526 129.007 175.594 129.007C174.76 129.007 174.076 128.772 173.539 128.304C173.008 127.83 172.742 127.231 172.742 126.507C172.742 125.627 173.076 124.944 173.742 124.46C174.414 123.97 175.357 123.726 176.57 123.726H177.977V123.062C177.977 122.556 177.826 122.155 177.523 121.858C177.221 121.556 176.776 121.405 176.188 121.405C175.672 121.405 175.24 121.535 174.891 121.796C174.542 122.056 174.367 122.371 174.367 122.741H172.914C172.914 122.319 173.062 121.913 173.359 121.522C173.661 121.127 174.068 120.814 174.578 120.585C175.094 120.356 175.659 120.241 176.273 120.241C177.247 120.241 178.01 120.486 178.562 120.976C179.115 121.46 179.401 122.129 179.422 122.983V126.874C179.422 127.65 179.521 128.267 179.719 128.726V128.851H178.203ZM175.805 127.749C176.258 127.749 176.688 127.632 177.094 127.397C177.5 127.163 177.794 126.858 177.977 126.483V124.749H176.844C175.073 124.749 174.188 125.267 174.188 126.304C174.188 126.757 174.339 127.111 174.641 127.366C174.943 127.621 175.331 127.749 175.805 127.749ZM182.398 128.851V121.515H181.062V120.397H182.398V119.53C182.398 118.624 182.641 117.924 183.125 117.429C183.609 116.934 184.294 116.687 185.18 116.687C185.513 116.687 185.844 116.731 186.172 116.819L186.094 117.991C185.849 117.944 185.589 117.921 185.312 117.921C184.844 117.921 184.482 118.059 184.227 118.335C183.971 118.606 183.844 118.996 183.844 119.507V120.397H185.648V121.515H183.844V128.851H182.398ZM189.211 118.351V120.397H190.789V121.515H189.211V126.757C189.211 127.095 189.281 127.351 189.422 127.522C189.562 127.689 189.802 127.772 190.141 127.772C190.307 127.772 190.536 127.741 190.828 127.679V128.851C190.448 128.955 190.078 129.007 189.719 129.007C189.073 129.007 188.586 128.812 188.258 128.421C187.93 128.03 187.766 127.476 187.766 126.757V121.515H186.227V120.397H187.766V118.351H189.211ZM195.992 129.007C194.846 129.007 193.914 128.632 193.195 127.882C192.477 127.127 192.117 126.119 192.117 124.858V124.593C192.117 123.754 192.276 123.007 192.594 122.351C192.917 121.689 193.365 121.174 193.938 120.804C194.516 120.429 195.141 120.241 195.812 120.241C196.911 120.241 197.766 120.603 198.375 121.327C198.984 122.051 199.289 123.088 199.289 124.437V125.038H193.562C193.583 125.871 193.826 126.546 194.289 127.062C194.758 127.572 195.352 127.827 196.07 127.827C196.581 127.827 197.013 127.723 197.367 127.515C197.721 127.306 198.031 127.03 198.297 126.687L199.18 127.374C198.471 128.463 197.409 129.007 195.992 129.007ZM195.812 121.429C195.229 121.429 194.74 121.642 194.344 122.069C193.948 122.491 193.703 123.085 193.609 123.851H197.844V123.741C197.802 123.007 197.604 122.439 197.25 122.038C196.896 121.632 196.417 121.429 195.812 121.429ZM205.055 121.694C204.836 121.658 204.599 121.64 204.344 121.64C203.396 121.64 202.753 122.043 202.414 122.851V128.851H200.969V120.397H202.375L202.398 121.374C202.872 120.619 203.544 120.241 204.414 120.241C204.695 120.241 204.909 120.278 205.055 120.351V121.694ZM39.9219 147.694C39.7031 147.658 39.4661 147.64 39.2109 147.64C38.263 147.64 37.6198 148.043 37.2812 148.851V154.851H35.8359V146.397H37.2422L37.2656 147.374C37.7396 146.619 38.4115 146.241 39.2812 146.241C39.5625 146.241 39.776 146.278 39.9219 146.351V147.694ZM44.6094 155.007C43.4635 155.007 42.5312 154.632 41.8125 153.882C41.0938 153.127 40.7344 152.119 40.7344 150.858V150.593C40.7344 149.754 40.8932 149.007 41.2109 148.351C41.5339 147.689 41.9818 147.174 42.5547 146.804C43.1328 146.429 43.7578 146.241 44.4297 146.241C45.5286 146.241 46.3828 146.603 46.9922 147.327C47.6016 148.051 47.9062 149.088 47.9062 150.437V151.038H42.1797C42.2005 151.871 42.4427 152.546 42.9062 153.062C43.375 153.572 43.9688 153.827 44.6875 153.827C45.1979 153.827 45.6302 153.723 45.9844 153.515C46.3385 153.306 46.6484 153.03 46.9141 152.687L47.7969 153.374C47.0885 154.463 46.026 155.007 44.6094 155.007ZM44.4297 147.429C43.8464 147.429 43.3568 147.642 42.9609 148.069C42.5651 148.491 42.3203 149.085 42.2266 149.851H46.4609V149.741C46.4193 149.007 46.2214 148.439 45.8672 148.038C45.513 147.632 45.0339 147.429 44.4297 147.429ZM52.9766 153.827C53.4922 153.827 53.9427 153.671 54.3281 153.358C54.7135 153.046 54.9271 152.655 54.9688 152.187H56.3359C56.3099 152.671 56.1432 153.132 55.8359 153.569C55.5286 154.007 55.1172 154.356 54.6016 154.616C54.0911 154.877 53.5495 155.007 52.9766 155.007C51.8255 155.007 50.9089 154.624 50.2266 153.858C49.5495 153.088 49.2109 152.035 49.2109 150.702V150.46C49.2109 149.637 49.362 148.905 49.6641 148.265C49.9661 147.624 50.3984 147.127 50.9609 146.772C51.5286 146.418 52.1979 146.241 52.9688 146.241C53.9167 146.241 54.7031 146.525 55.3281 147.093C55.9583 147.66 56.2943 148.397 56.3359 149.304H54.9688C54.9271 148.757 54.7188 148.309 54.3438 147.96C53.974 147.606 53.5156 147.429 52.9688 147.429C52.2344 147.429 51.6641 147.694 51.2578 148.226C50.8568 148.752 50.6562 149.515 50.6562 150.515V150.788C50.6562 151.762 50.8568 152.512 51.2578 153.038C51.6589 153.564 52.2318 153.827 52.9766 153.827ZM61.4688 155.007C60.3229 155.007 59.3906 154.632 58.6719 153.882C57.9531 153.127 57.5938 152.119 57.5938 150.858V150.593C57.5938 149.754 57.7526 149.007 58.0703 148.351C58.3932 147.689 58.8411 147.174 59.4141 146.804C59.9922 146.429 60.6172 146.241 61.2891 146.241C62.388 146.241 63.2422 146.603 63.8516 147.327C64.4609 148.051 64.7656 149.088 64.7656 150.437V151.038H59.0391C59.0599 151.871 59.3021 152.546 59.7656 153.062C60.2344 153.572 60.8281 153.827 61.5469 153.827C62.0573 153.827 62.4896 153.723 62.8438 153.515C63.1979 153.306 63.5078 153.03 63.7734 152.687L64.6562 153.374C63.9479 154.463 62.8854 155.007 61.4688 155.007ZM61.2891 147.429C60.7057 147.429 60.2161 147.642 59.8203 148.069C59.4245 148.491 59.1797 149.085 59.0859 149.851H63.3203V149.741C63.2786 149.007 63.0807 148.439 62.7266 148.038C62.3724 147.632 61.8932 147.429 61.2891 147.429ZM68.0156 154.851H66.5703V146.397H68.0156V154.851ZM66.4531 144.155C66.4531 143.921 66.5234 143.723 66.6641 143.562C66.8099 143.4 67.0234 143.319 67.3047 143.319C67.5859 143.319 67.7995 143.4 67.9453 143.562C68.0911 143.723 68.1641 143.921 68.1641 144.155C68.1641 144.39 68.0911 144.585 67.9453 144.741C67.7995 144.897 67.5859 144.976 67.3047 144.976C67.0234 144.976 66.8099 144.897 66.6641 144.741C66.5234 144.585 66.4531 144.39 66.4531 144.155ZM73.125 152.89L75.2188 146.397H76.6953L73.6641 154.851H72.5625L69.5 146.397H70.9766L73.125 152.89ZM79.6562 154.851H78.2109V146.397H79.6562V154.851ZM78.0938 144.155C78.0938 143.921 78.1641 143.723 78.3047 143.562C78.4505 143.4 78.6641 143.319 78.9453 143.319C79.2266 143.319 79.4401 143.4 79.5859 143.562C79.7318 143.723 79.8047 143.921 79.8047 144.155C79.8047 144.39 79.7318 144.585 79.5859 144.741C79.4401 144.897 79.2266 144.976 78.9453 144.976C78.6641 144.976 78.4505 144.897 78.3047 144.741C78.1641 144.585 78.0938 144.39 78.0938 144.155ZM83.3438 146.397L83.3906 147.46C84.0365 146.647 84.8802 146.241 85.9219 146.241C87.7083 146.241 88.6094 147.249 88.625 149.265V154.851H87.1797V149.257C87.1745 148.647 87.0339 148.197 86.7578 147.905C86.487 147.614 86.0625 147.468 85.4844 147.468C85.0156 147.468 84.6042 147.593 84.25 147.843C83.8958 148.093 83.6198 148.421 83.4219 148.827V154.851H81.9766V146.397H83.3438ZM90.4609 150.554C90.4609 149.236 90.7656 148.189 91.375 147.413C91.9844 146.632 92.7917 146.241 93.7969 146.241C94.8281 146.241 95.6328 146.606 96.2109 147.335L96.2812 146.397H97.6016V154.647C97.6016 155.741 97.276 156.603 96.625 157.233C95.9792 157.864 95.1094 158.179 94.0156 158.179C93.4062 158.179 92.8099 158.049 92.2266 157.788C91.6432 157.528 91.1979 157.171 90.8906 156.718L91.6406 155.851C92.2604 156.616 93.0182 156.999 93.9141 156.999C94.6172 156.999 95.1641 156.801 95.5547 156.405C95.9505 156.009 96.1484 155.452 96.1484 154.733V154.007C95.5703 154.674 94.7812 155.007 93.7812 155.007C92.7917 155.007 91.9896 154.608 91.375 153.812C90.7656 153.015 90.4609 151.929 90.4609 150.554ZM91.9141 150.718C91.9141 151.671 92.1094 152.421 92.5 152.968C92.8906 153.509 93.4375 153.78 94.1406 153.78C95.0521 153.78 95.7214 153.366 96.1484 152.538V148.679C95.7057 147.871 95.0417 147.468 94.1562 147.468C93.4531 147.468 92.9036 147.741 92.5078 148.288C92.112 148.835 91.9141 149.645 91.9141 150.718ZM105.719 144.351V146.397H107.297V147.515H105.719V152.757C105.719 153.095 105.789 153.351 105.93 153.522C106.07 153.689 106.31 153.772 106.648 153.772C106.815 153.772 107.044 153.741 107.336 153.679V154.851C106.956 154.955 106.586 155.007 106.227 155.007C105.581 155.007 105.094 154.812 104.766 154.421C104.438 154.03 104.273 153.476 104.273 152.757V147.515H102.734V146.397H104.273V144.351H105.719ZM110.438 147.421C111.078 146.634 111.911 146.241 112.938 146.241C114.724 146.241 115.625 147.249 115.641 149.265V154.851H114.195V149.257C114.19 148.647 114.049 148.197 113.773 147.905C113.503 147.614 113.078 147.468 112.5 147.468C112.031 147.468 111.62 147.593 111.266 147.843C110.911 148.093 110.635 148.421 110.438 148.827V154.851H108.992V142.851H110.438V147.421ZM121.312 155.007C120.167 155.007 119.234 154.632 118.516 153.882C117.797 153.127 117.438 152.119 117.438 150.858V150.593C117.438 149.754 117.596 149.007 117.914 148.351C118.237 147.689 118.685 147.174 119.258 146.804C119.836 146.429 120.461 146.241 121.133 146.241C122.232 146.241 123.086 146.603 123.695 147.327C124.305 148.051 124.609 149.088 124.609 150.437V151.038H118.883C118.904 151.871 119.146 152.546 119.609 153.062C120.078 153.572 120.672 153.827 121.391 153.827C121.901 153.827 122.333 153.723 122.688 153.515C123.042 153.306 123.352 153.03 123.617 152.687L124.5 153.374C123.792 154.463 122.729 155.007 121.312 155.007ZM121.133 147.429C120.549 147.429 120.06 147.642 119.664 148.069C119.268 148.491 119.023 149.085 118.93 149.851H123.164V149.741C123.122 149.007 122.924 148.439 122.57 148.038C122.216 147.632 121.737 147.429 121.133 147.429ZM135.477 154.851C135.393 154.684 135.326 154.387 135.273 153.96C134.602 154.658 133.799 155.007 132.867 155.007C132.034 155.007 131.349 154.772 130.812 154.304C130.281 153.83 130.016 153.231 130.016 152.507C130.016 151.627 130.349 150.944 131.016 150.46C131.688 149.97 132.63 149.726 133.844 149.726H135.25V149.062C135.25 148.556 135.099 148.155 134.797 147.858C134.495 147.556 134.049 147.405 133.461 147.405C132.945 147.405 132.513 147.535 132.164 147.796C131.815 148.056 131.641 148.371 131.641 148.741H130.188C130.188 148.319 130.336 147.913 130.633 147.522C130.935 147.127 131.341 146.814 131.852 146.585C132.367 146.356 132.932 146.241 133.547 146.241C134.521 146.241 135.284 146.486 135.836 146.976C136.388 147.46 136.674 148.129 136.695 148.983V152.874C136.695 153.65 136.794 154.267 136.992 154.726V154.851H135.477ZM133.078 153.749C133.531 153.749 133.961 153.632 134.367 153.397C134.773 153.163 135.068 152.858 135.25 152.483V150.749H134.117C132.346 150.749 131.461 151.267 131.461 152.304C131.461 152.757 131.612 153.111 131.914 153.366C132.216 153.621 132.604 153.749 133.078 153.749ZM146.102 150.718C146.102 152.004 145.807 153.041 145.219 153.827C144.63 154.614 143.833 155.007 142.828 155.007C141.802 155.007 140.995 154.681 140.406 154.03V158.101H138.961V146.397H140.281L140.352 147.335C140.94 146.606 141.758 146.241 142.805 146.241C143.82 146.241 144.622 146.624 145.211 147.39C145.805 148.155 146.102 149.22 146.102 150.585V150.718ZM144.656 150.554C144.656 149.601 144.453 148.848 144.047 148.296C143.641 147.744 143.083 147.468 142.375 147.468C141.5 147.468 140.844 147.856 140.406 148.632V152.671C140.839 153.442 141.5 153.827 142.391 153.827C143.083 153.827 143.633 153.554 144.039 153.007C144.451 152.455 144.656 151.637 144.656 150.554ZM155.086 150.718C155.086 152.004 154.792 153.041 154.203 153.827C153.615 154.614 152.818 155.007 151.812 155.007C150.786 155.007 149.979 154.681 149.391 154.03V158.101H147.945V146.397H149.266L149.336 147.335C149.924 146.606 150.742 146.241 151.789 146.241C152.805 146.241 153.607 146.624 154.195 147.39C154.789 148.155 155.086 149.22 155.086 150.585V150.718ZM153.641 150.554C153.641 149.601 153.438 148.848 153.031 148.296C152.625 147.744 152.068 147.468 151.359 147.468C150.484 147.468 149.828 147.856 149.391 148.632V152.671C149.823 153.442 150.484 153.827 151.375 153.827C152.068 153.827 152.617 153.554 153.023 153.007C153.435 152.455 153.641 151.637 153.641 150.554ZM161.016 147.694C160.797 147.658 160.56 147.64 160.305 147.64C159.357 147.64 158.714 148.043 158.375 148.851V154.851H156.93V146.397H158.336L158.359 147.374C158.833 146.619 159.505 146.241 160.375 146.241C160.656 146.241 160.87 146.278 161.016 146.351V147.694ZM161.812 150.546C161.812 149.718 161.974 148.973 162.297 148.312C162.625 147.65 163.078 147.14 163.656 146.78C164.24 146.421 164.904 146.241 165.648 146.241C166.799 146.241 167.729 146.64 168.438 147.437C169.151 148.233 169.508 149.293 169.508 150.616V150.718C169.508 151.541 169.349 152.28 169.031 152.937C168.719 153.588 168.268 154.095 167.68 154.46C167.096 154.825 166.424 155.007 165.664 155.007C164.518 155.007 163.589 154.608 162.875 153.812C162.167 153.015 161.812 151.96 161.812 150.647V150.546ZM163.266 150.718C163.266 151.655 163.482 152.408 163.914 152.976C164.352 153.543 164.935 153.827 165.664 153.827C166.398 153.827 166.982 153.541 167.414 152.968C167.846 152.39 168.062 151.582 168.062 150.546C168.062 149.619 167.841 148.869 167.398 148.296C166.961 147.718 166.378 147.429 165.648 147.429C164.935 147.429 164.359 147.713 163.922 148.28C163.484 148.848 163.266 149.66 163.266 150.718ZM173.984 152.89L176.078 146.397H177.555L174.523 154.851H173.422L170.359 146.397H171.836L173.984 152.89ZM184.039 154.851C183.956 154.684 183.888 154.387 183.836 153.96C183.164 154.658 182.362 155.007 181.43 155.007C180.596 155.007 179.911 154.772 179.375 154.304C178.844 153.83 178.578 153.231 178.578 152.507C178.578 151.627 178.911 150.944 179.578 150.46C180.25 149.97 181.193 149.726 182.406 149.726H183.812V149.062C183.812 148.556 183.661 148.155 183.359 147.858C183.057 147.556 182.612 147.405 182.023 147.405C181.508 147.405 181.076 147.535 180.727 147.796C180.378 148.056 180.203 148.371 180.203 148.741H178.75C178.75 148.319 178.898 147.913 179.195 147.522C179.497 147.127 179.904 146.814 180.414 146.585C180.93 146.356 181.495 146.241 182.109 146.241C183.083 146.241 183.846 146.486 184.398 146.976C184.951 147.46 185.237 148.129 185.258 148.983V152.874C185.258 153.65 185.357 154.267 185.555 154.726V154.851H184.039ZM181.641 153.749C182.094 153.749 182.523 153.632 182.93 153.397C183.336 153.163 183.63 152.858 183.812 152.483V150.749H182.68C180.909 150.749 180.023 151.267 180.023 152.304C180.023 152.757 180.174 153.111 180.477 153.366C180.779 153.621 181.167 153.749 181.641 153.749ZM189.094 154.851H187.648V142.851H189.094V154.851ZM198.961 149.78C197.674 149.41 196.737 148.957 196.148 148.421C195.565 147.879 195.273 147.213 195.273 146.421C195.273 145.525 195.63 144.785 196.344 144.202C197.062 143.614 197.995 143.319 199.141 143.319C199.922 143.319 200.617 143.47 201.227 143.772C201.841 144.075 202.315 144.491 202.648 145.022C202.987 145.554 203.156 146.134 203.156 146.765H201.648C201.648 146.077 201.43 145.538 200.992 145.147C200.555 144.752 199.938 144.554 199.141 144.554C198.401 144.554 197.823 144.718 197.406 145.046C196.995 145.369 196.789 145.819 196.789 146.397C196.789 146.861 196.984 147.254 197.375 147.577C197.771 147.895 198.44 148.187 199.383 148.452C200.331 148.718 201.07 149.012 201.602 149.335C202.138 149.653 202.534 150.025 202.789 150.452C203.049 150.879 203.18 151.382 203.18 151.96C203.18 152.882 202.82 153.621 202.102 154.179C201.383 154.731 200.422 155.007 199.219 155.007C198.438 155.007 197.708 154.858 197.031 154.562C196.354 154.259 195.831 153.848 195.461 153.327C195.096 152.806 194.914 152.215 194.914 151.554H196.422C196.422 152.241 196.674 152.785 197.18 153.187C197.69 153.582 198.37 153.78 199.219 153.78C200.01 153.78 200.617 153.619 201.039 153.296C201.461 152.973 201.672 152.533 201.672 151.976C201.672 151.418 201.477 150.989 201.086 150.687C200.695 150.379 199.987 150.077 198.961 149.78ZM207.047 143.476L210.766 152.757L214.484 143.476H216.43V154.851H214.93V150.421L215.07 145.64L211.336 154.851H210.188L206.461 145.663L206.609 150.421V154.851H205.109V143.476H207.047ZM222.43 149.78C221.143 149.41 220.206 148.957 219.617 148.421C219.034 147.879 218.742 147.213 218.742 146.421C218.742 145.525 219.099 144.785 219.812 144.202C220.531 143.614 221.464 143.319 222.609 143.319C223.391 143.319 224.086 143.47 224.695 143.772C225.31 144.075 225.784 144.491 226.117 145.022C226.456 145.554 226.625 146.134 226.625 146.765H225.117C225.117 146.077 224.898 145.538 224.461 145.147C224.023 144.752 223.406 144.554 222.609 144.554C221.87 144.554 221.292 144.718 220.875 145.046C220.464 145.369 220.258 145.819 220.258 146.397C220.258 146.861 220.453 147.254 220.844 147.577C221.24 147.895 221.909 148.187 222.852 148.452C223.799 148.718 224.539 149.012 225.07 149.335C225.607 149.653 226.003 150.025 226.258 150.452C226.518 150.879 226.648 151.382 226.648 151.96C226.648 152.882 226.289 153.621 225.57 154.179C224.852 154.731 223.891 155.007 222.688 155.007C221.906 155.007 221.177 154.858 220.5 154.562C219.823 154.259 219.299 153.848 218.93 153.327C218.565 152.806 218.383 152.215 218.383 151.554H219.891C219.891 152.241 220.143 152.785 220.648 153.187C221.159 153.582 221.839 153.78 222.688 153.78C223.479 153.78 224.086 153.619 224.508 153.296C224.93 152.973 225.141 152.533 225.141 151.976C225.141 151.418 224.945 150.989 224.555 150.687C224.164 150.379 223.456 150.077 222.43 149.78Z" fill="#656668"/>
<path d="M127.688 24.18L124.045 20.5378L122.062 22.5206L127.688 28.1455L138.938 16.8957L136.955 14.9129L127.688 24.18Z" fill="#6654A4"/>
<path d="M130.5 43.0375L121.815 38.4068C119.339 37.0896 117.269 35.1231 115.826 32.7182C114.383 30.3134 113.622 27.561 113.625 24.7565V6.47549C113.626 5.72981 113.922 5.01488 114.45 4.4876C114.977 3.96032 115.692 3.66377 116.438 3.66302H144.562C145.308 3.66377 146.023 3.96032 146.55 4.4876C147.078 5.01488 147.374 5.72981 147.375 6.47549V24.7565C147.378 27.561 146.617 30.3134 145.174 32.7182C143.731 35.1231 141.661 37.0896 139.185 38.4068L130.5 43.0375ZM116.438 6.47549V24.7565C116.435 27.0512 117.058 29.3032 118.239 31.2708C119.419 33.2384 121.114 34.8473 123.14 35.9248L130.5 39.8496L137.86 35.9262C139.887 34.8486 141.581 33.2395 142.762 31.2716C143.943 29.3038 144.565 27.0515 144.562 24.7565V6.47549H116.438Z" fill="#6654A4"/>
</svg>
