<svg width="262" height="190" viewBox="0 0 262 190" fill="none" xmlns="http://www.w3.org/2000/svg">
<path d="M69.566 75.0296C68.6727 74.0963 67.7394 73.6296 66.766 73.6296C66.246 73.6296 65.8327 73.7829 65.526 74.0896C65.2194 74.3963 65.066 74.8096 65.066 75.3296C65.066 75.9029 65.2394 76.3496 65.586 76.6696C65.9327 76.9896 66.606 77.3229 67.606 77.6696C68.606 78.0296 69.286 78.3696 69.646 78.6896C70.1794 79.1429 70.446 79.7629 70.446 80.5496C70.446 81.8029 69.8527 82.8163 68.666 83.5896C67.586 84.2963 66.1794 84.6496 64.446 84.6496C62.3394 84.6496 60.7527 84.0363 59.686 82.8096C58.8994 81.9029 58.506 80.7829 58.506 79.4496C58.506 78.3296 58.786 77.3696 59.346 76.5696L61.006 76.2096C60.406 77.1563 60.106 78.1763 60.106 79.2696C60.106 80.4163 60.4927 81.3363 61.266 82.0296C62.026 82.6963 63.086 83.0296 64.446 83.0296C65.8994 83.0296 67.0194 82.7429 67.806 82.1696C68.4194 81.7163 68.726 81.1696 68.726 80.5296C68.726 80.1696 68.586 79.8763 68.306 79.6496C68.0394 79.4229 67.4994 79.1696 66.686 78.8896C65.566 78.4896 64.7927 78.0896 64.366 77.6896C63.726 77.1029 63.406 76.3163 63.406 75.3296C63.406 74.2496 63.786 73.4029 64.546 72.7896C65.1327 72.3229 65.7994 72.0896 66.546 72.0896C67.7727 72.0896 68.7794 72.5363 69.566 73.4296V75.0296ZM63.106 88.1896C62.4527 88.1896 62.126 87.8563 62.126 87.1896C62.126 86.5363 62.4527 86.2096 63.106 86.2096C63.746 86.2096 64.066 86.5363 64.066 87.1896C64.066 87.8563 63.746 88.1896 63.106 88.1896ZM65.646 88.1896C64.9927 88.1896 64.666 87.8563 64.666 87.1896C64.666 86.5363 64.9927 86.2096 65.646 86.2096C66.286 86.2096 66.606 86.5363 66.606 87.1896C66.606 87.8563 66.286 88.1896 65.646 88.1896ZM80.1342 79.2296H81.4542V80.8496H79.9342C79.2542 80.8496 78.6675 80.7163 78.1742 80.4496C78.0542 81.7696 77.5942 82.8229 76.7942 83.6096C76.0608 84.3296 75.1408 84.6896 74.0342 84.6896C73.2342 84.6896 72.4542 84.4896 71.6942 84.0896V82.5896C72.3742 82.9629 73.0542 83.1496 73.7342 83.1496C74.5875 83.1496 75.2542 82.8629 75.7342 82.2896C76.2142 81.7163 76.4542 80.9229 76.4542 79.9096V73.0896L78.1742 72.1696V72.1896L78.1942 72.1696V77.6296C78.3142 78.6963 78.9608 79.2296 80.1342 79.2296ZM80.256 80.8496V79.2296H82.056C83.3494 79.2296 83.996 78.5629 83.996 77.2296V74.4296L85.716 73.5096V77.2296C85.716 78.5629 86.3694 79.2296 87.676 79.2296H88.596C89.9027 79.2296 90.556 78.5629 90.556 77.2296V73.7496L92.276 72.8496V77.2296C92.276 78.5629 92.9227 79.2296 94.216 79.2296H95.156C96.4627 79.2296 97.116 78.5629 97.116 77.2296V73.0896L98.836 72.1696V77.0496C98.836 78.5029 99.5294 79.2296 100.916 79.2296H102.576V80.8496H100.776C99.576 80.8496 98.6627 80.4429 98.036 79.6296C97.476 80.4296 96.6027 80.8363 95.416 80.8496H94.036C92.8627 80.8496 91.9894 80.4563 91.416 79.6696C90.8427 80.4429 89.9894 80.8363 88.856 80.8496H87.476C86.3294 80.8496 85.456 80.4563 84.856 79.6696C84.2827 80.4563 83.4094 80.8496 82.236 80.8496H80.256ZM101.369 80.8496V79.2296H102.429C103.816 79.2296 104.509 78.5029 104.509 77.0496V68.8696L106.249 67.9496V77.0696C106.249 78.2563 105.896 79.1963 105.189 79.8896C104.523 80.5296 103.649 80.8496 102.569 80.8496H101.369ZM109.844 80.8496V68.8696L111.564 67.9496V80.8496H109.844ZM132.044 68.8696L133.784 67.9496V77.3096C133.784 78.4696 133.431 79.3696 132.724 80.0096C132.097 80.5696 131.291 80.8496 130.304 80.8496H123.164C122.084 80.8496 121.237 80.4896 120.624 79.7696C120.091 79.1429 119.824 78.3229 119.824 77.3096V74.8896L121.544 73.9696V77.1496C121.544 78.5363 122.191 79.2296 123.484 79.2296H130.124C131.404 79.2296 132.044 78.5363 132.044 77.1496V68.8696ZM126.904 71.1096C128.051 71.1629 128.624 71.7296 128.624 72.8096C128.624 73.2763 128.484 73.6496 128.204 73.9296C127.937 74.2096 127.577 74.3496 127.124 74.3496H124.484L124.944 73.4896H127.044C127.524 73.4896 127.764 73.2496 127.764 72.7696C127.764 72.1829 127.391 71.8896 126.644 71.8896C126.257 71.8896 125.904 71.9829 125.584 72.1696V71.3696L127.264 69.5096H128.324L126.904 71.1096ZM139.183 69.7496C138.529 69.7496 138.203 69.4163 138.203 68.7496C138.203 68.0963 138.529 67.7696 139.183 67.7696C139.823 67.7696 140.143 68.0963 140.143 68.7496C140.143 69.4163 139.823 69.7496 139.183 69.7496ZM142.283 79.2296H143.603V80.8496H142.083C141.403 80.8496 140.816 80.7163 140.323 80.4496C140.203 81.7696 139.743 82.8229 138.943 83.6096C138.209 84.3296 137.289 84.6896 136.183 84.6896C135.383 84.6896 134.603 84.4896 133.843 84.0896V82.5896C134.523 82.9629 135.203 83.1496 135.883 83.1496C136.736 83.1496 137.403 82.8629 137.883 82.2896C138.363 81.7163 138.603 80.9229 138.603 79.9096V73.0896L140.323 72.1696V72.1896L140.343 72.1696V77.6296C140.463 78.6963 141.109 79.2296 142.283 79.2296ZM145.684 75.4296C145.684 74.2696 146.031 73.3696 146.724 72.7296C147.338 72.1829 148.138 71.9096 149.124 71.9096C150.391 71.9096 151.364 72.3763 152.044 73.3096C152.631 74.0963 152.924 75.1229 152.924 76.3896C152.924 77.8296 152.551 78.9563 151.804 79.7696C151.151 80.4896 150.298 80.8496 149.244 80.8496C148.044 80.8496 147.131 80.5163 146.504 79.8496C145.864 80.5163 145.004 80.8496 143.924 80.8496H142.404V79.2296H143.724C145.031 79.2296 145.684 78.5629 145.684 77.2296V75.4296ZM147.404 77.3696C147.404 78.6096 148.011 79.2296 149.224 79.2296C149.851 79.2296 150.338 78.9763 150.684 78.4696C151.044 77.9629 151.224 77.2563 151.224 76.3496C151.224 75.4563 151.038 74.7629 150.664 74.2696C150.291 73.7629 149.778 73.5096 149.124 73.5096C147.978 73.5096 147.404 74.1763 147.404 75.5096V77.3696ZM159.19 79.7896C159.19 81.2829 158.797 82.4829 158.01 83.3896C157.264 84.2563 156.27 84.6896 155.03 84.6896C154.23 84.6896 153.45 84.4896 152.69 84.0896V82.5896C153.37 82.9629 154.05 83.1496 154.73 83.1496C155.584 83.1496 156.25 82.8629 156.73 82.2896C157.21 81.7163 157.45 80.9229 157.45 79.9096V73.0896L159.19 72.1696V79.7896ZM166.401 67.6696L166.861 66.8096H167.401C167.267 66.5696 167.201 66.3163 167.201 66.0496C167.201 65.6629 167.347 65.3296 167.641 65.0496C167.934 64.7563 168.274 64.6096 168.661 64.6096C168.994 64.6096 169.314 64.7163 169.621 64.9296V65.8096C169.341 65.5829 169.061 65.4696 168.781 65.4696C168.287 65.4696 168.041 65.6963 168.041 66.1496C168.041 66.3629 168.141 66.5829 168.341 66.8096H170.161L169.701 67.6696H166.401ZM170.941 80.8496C169.781 80.8496 168.887 80.4763 168.261 79.7296C167.727 79.0896 167.461 78.2763 167.461 77.2896V69.6696L169.181 68.7496V77.2296C169.181 78.5629 169.834 79.2296 171.141 79.2296H172.461V80.8496H170.941ZM182.252 67.9096C181.665 67.9096 181.372 67.6096 181.372 67.0096C181.372 66.4229 181.665 66.1296 182.252 66.1296C182.839 66.1296 183.132 66.4229 183.132 67.0096C183.132 67.6096 182.839 67.9096 182.252 67.9096ZM180.992 70.2896C180.339 70.2896 180.012 69.9563 180.012 69.2896C180.012 68.6363 180.339 68.3096 180.992 68.3096C181.632 68.3096 181.952 68.6363 181.952 69.2896C181.952 69.9563 181.632 70.2896 180.992 70.2896ZM183.532 70.2896C182.879 70.2896 182.552 69.9563 182.552 69.2896C182.552 68.6363 182.879 68.3096 183.532 68.3096C184.172 68.3096 184.492 68.6363 184.492 69.2896C184.492 69.9563 184.172 70.2896 183.532 70.2896ZM171.252 80.8496V79.2296H173.052C174.345 79.2296 174.992 78.5629 174.992 77.2296V74.4296L176.712 73.5096V77.2296C176.712 78.5629 177.365 79.2296 178.672 79.2296H179.592C180.899 79.2296 181.552 78.5629 181.552 77.2296V73.7496L183.272 72.8496V77.2296C183.272 78.5629 183.919 79.2296 185.212 79.2296H186.152C187.459 79.2296 188.112 78.5629 188.112 77.2296V73.0896L189.832 72.1696V77.0496C189.832 78.5029 190.525 79.2296 191.912 79.2296H193.572V80.8496H191.772C190.572 80.8496 189.659 80.4429 189.032 79.6296C188.472 80.4296 187.599 80.8363 186.412 80.8496H185.032C183.859 80.8496 182.985 80.4563 182.412 79.6696C181.839 80.4429 180.985 80.8363 179.852 80.8496H178.472C177.325 80.8496 176.452 80.4563 175.852 79.6696C175.279 80.4563 174.405 80.8496 173.232 80.8496H171.252ZM196.445 69.7496C195.792 69.7496 195.465 69.4163 195.465 68.7496C195.465 68.0963 195.792 67.7696 196.445 67.7696C197.085 67.7696 197.405 68.0963 197.405 68.7496C197.405 69.4163 197.085 69.7496 196.445 69.7496ZM192.365 80.8496V79.2296H193.685C194.992 79.2296 195.645 78.5629 195.645 77.2296V73.0896L197.365 72.1696V77.2896C197.365 78.4229 197.025 79.3163 196.345 79.9696C195.719 80.5563 194.899 80.8496 193.885 80.8496H192.365ZM200.957 80.8496V68.8696L202.677 67.9496V80.8496H200.957Z" fill="#6654A4"/>
<path d="M59.5726 124.794C59.9566 123.162 60.6446 121.786 61.6366 120.666C62.7353 119.428 64.026 118.81 65.5086 118.81C66.7033 118.81 67.6526 119.22 68.3566 120.042C68.954 120.746 69.2526 121.615 69.2526 122.65V123.098C69.2526 124.004 68.9753 124.708 68.4206 125.21C67.9513 125.636 67.3273 125.85 66.5486 125.85H60.0366C59.4073 125.85 58.858 125.695 58.3886 125.386C58.314 126.506 57.866 127.386 57.0446 128.026C56.3193 128.602 55.402 128.89 54.2926 128.89C52.938 128.89 51.8873 128.41 51.1406 127.45C50.554 126.714 50.2606 125.834 50.2606 124.81C50.2606 123.892 50.4953 123.103 50.9646 122.442L52.0046 122.234C51.4926 123.012 51.2366 123.844 51.2366 124.73C51.2366 125.668 51.5406 126.442 52.1486 127.05C52.714 127.615 53.4286 127.898 54.2926 127.898C55.306 127.898 56.09 127.599 56.6446 127.002C57.1033 126.511 57.3326 125.866 57.3326 125.066V120.73L58.4046 120.17V123.034C58.4046 124.036 58.794 124.623 59.5726 124.794ZM68.1806 122.97V122.65C68.1806 121.754 67.898 121.034 67.3326 120.49C66.8526 120.02 66.25 119.786 65.5246 119.786C64.266 119.786 63.1566 120.372 62.1966 121.546C61.4606 122.431 60.9113 123.535 60.5486 124.858H66.4686C67.61 124.858 68.1806 124.228 68.1806 122.97ZM74.5503 125.85C73.6436 125.85 72.9449 125.556 72.4543 124.97C72.0489 124.468 71.8463 123.834 71.8463 123.066V116.09L72.9183 115.53V123.034C72.9183 124.25 73.5049 124.858 74.6783 124.858H75.2383V125.85H74.5503ZM79.3981 116.89C78.9608 116.89 78.7421 116.666 78.7421 116.218C78.7421 115.791 78.9608 115.578 79.3981 115.578C79.8141 115.578 80.0221 115.791 80.0221 116.218C80.0221 116.666 79.8141 116.89 79.3981 116.89ZM85.0301 124.858H85.5901V125.85H85.0141C84.1288 125.85 83.4195 125.748 82.8861 125.546C82.3635 125.343 81.8781 124.986 81.4301 124.474C80.0648 125.391 78.4861 125.85 76.6941 125.85H74.9181V124.858H76.7101C79.0355 124.858 80.8488 124.068 82.1501 122.49C81.2008 120.676 80.0541 119.77 78.7101 119.77C77.7928 119.77 76.8968 120.234 76.0221 121.162V120.106C76.8968 119.242 77.8088 118.81 78.7581 118.81H78.7901C80.4648 118.81 81.9155 119.94 83.1421 122.202V122.858C82.8115 123.284 82.4595 123.652 82.0861 123.962C82.4275 124.292 82.8115 124.527 83.2381 124.666C83.6755 124.794 84.2728 124.858 85.0301 124.858ZM85.2775 125.85V124.858H85.7255C86.9415 124.858 87.5495 124.228 87.5495 122.97V116.09L88.6215 115.53V122.986C88.6215 123.892 88.3548 124.607 87.8215 125.13C87.3202 125.61 86.6588 125.85 85.8375 125.85H85.2775ZM91.5025 125.85V116.09L92.5745 115.53V125.85H91.5025ZM107.651 121.05C106.979 120.282 106.233 119.898 105.411 119.898C104.953 119.898 104.59 120.036 104.323 120.314C104.057 120.58 103.923 120.948 103.923 121.418V121.45C103.934 121.94 104.083 122.324 104.371 122.602C104.659 122.879 105.219 123.162 106.051 123.45C106.926 123.759 107.518 124.068 107.827 124.378C108.147 124.687 108.307 125.124 108.307 125.69C108.307 126.639 107.854 127.418 106.947 128.026C106.094 128.602 104.985 128.89 103.619 128.89C101.977 128.89 100.739 128.41 99.9074 127.45C99.2887 126.735 98.9794 125.855 98.9794 124.81C98.9794 123.892 99.214 123.103 99.6834 122.442L100.723 122.234C100.211 123.012 99.9554 123.844 99.9554 124.73C99.9554 125.7 100.291 126.474 100.963 127.05C101.614 127.615 102.499 127.898 103.619 127.898C104.846 127.898 105.795 127.642 106.467 127.13C106.99 126.724 107.251 126.244 107.251 125.69C107.251 125.359 107.134 125.098 106.899 124.906C106.665 124.714 106.201 124.495 105.507 124.25C104.611 123.93 103.987 123.615 103.635 123.306C103.134 122.847 102.883 122.223 102.883 121.434C102.883 120.612 103.177 119.967 103.763 119.498C104.222 119.135 104.745 118.954 105.331 118.954C106.27 118.954 107.043 119.306 107.651 120.01V121.05ZM102.611 131.53C102.174 131.53 101.955 131.311 101.955 130.874C101.955 130.436 102.174 130.218 102.611 130.218C103.027 130.218 103.235 130.436 103.235 130.874C103.235 131.311 103.027 131.53 102.611 131.53ZM104.435 131.53C104.009 131.53 103.795 131.311 103.795 130.874C103.795 130.436 104.009 130.218 104.435 130.218C104.862 130.218 105.075 130.436 105.075 130.874C105.075 131.311 104.862 131.53 104.435 131.53ZM116.015 124.858H116.575V125.85H115.887C115.226 125.85 114.676 125.69 114.239 125.37C114.154 127.14 113.439 128.26 112.095 128.73C111.754 128.847 111.391 128.906 111.007 128.906C110.388 128.906 109.791 128.756 109.215 128.458V127.514C109.759 127.812 110.314 127.962 110.879 127.962C111.327 127.962 111.722 127.86 112.063 127.658C112.81 127.21 113.183 126.372 113.183 125.146V119.562L114.239 119.002V119.018L114.255 119.002V123.034C114.255 124.25 114.842 124.858 116.015 124.858ZM116.262 125.85V124.858H117.238C118.422 124.858 119.014 124.25 119.014 123.034V120.73L120.086 120.17V123.034C120.086 124.25 120.673 124.858 121.846 124.858H122.438C123.611 124.858 124.198 124.25 124.198 123.034V120.154L125.27 119.578V123.034C125.27 124.25 125.862 124.858 127.046 124.858H127.622C128.806 124.858 129.398 124.25 129.398 123.034V119.562L130.47 119.002V122.97C130.47 124.228 131.078 124.858 132.294 124.858H133.222V125.85H132.182C131.169 125.85 130.427 125.492 129.958 124.778C129.489 125.492 128.763 125.85 127.782 125.85H126.902C125.91 125.85 125.19 125.498 124.742 124.794C124.283 125.498 123.569 125.85 122.598 125.85H121.718C120.726 125.85 120.001 125.498 119.542 124.794C119.094 125.498 118.374 125.85 117.382 125.85H116.262ZM132.902 125.85V124.858H133.351C134.566 124.858 135.174 124.228 135.174 122.97V116.09L136.247 115.53V122.986C136.247 123.892 135.98 124.607 135.447 125.13C134.945 125.61 134.284 125.85 133.463 125.85H132.902ZM139.128 125.85V116.09L140.2 115.53V125.85H139.128ZM156.86 116.09L157.932 115.53V123.098C157.932 124.004 157.655 124.708 157.1 125.21C156.631 125.636 156.007 125.85 155.228 125.85H149.516C148.727 125.85 148.098 125.604 147.628 125.114C147.159 124.612 146.924 123.94 146.924 123.098V121.002L147.996 120.442V122.97C147.996 124.228 148.583 124.858 149.756 124.858H155.116C156.279 124.858 156.86 124.228 156.86 122.97V116.09ZM152.364 118.218C152.802 118.218 153.148 118.335 153.404 118.57C153.66 118.804 153.788 119.119 153.788 119.514C153.788 119.866 153.682 120.148 153.468 120.362C153.266 120.564 152.994 120.666 152.652 120.666H150.668L150.972 120.106H152.604C153.01 120.106 153.212 119.903 153.212 119.498C153.212 119.007 152.903 118.762 152.284 118.762C151.964 118.762 151.692 118.826 151.468 118.954V118.41L152.78 116.938H153.452L152.348 118.218H152.364ZM162.287 116.89C161.85 116.89 161.631 116.666 161.631 116.218C161.631 115.791 161.85 115.578 162.287 115.578C162.703 115.578 162.911 115.791 162.911 116.218C162.911 116.666 162.703 116.89 162.287 116.89ZM164.687 124.858H165.247V125.85H164.559C163.898 125.85 163.348 125.69 162.911 125.37C162.826 127.14 162.111 128.26 160.767 128.73C160.426 128.847 160.063 128.906 159.679 128.906C159.06 128.906 158.463 128.756 157.887 128.458V127.514C158.431 127.812 158.986 127.962 159.551 127.962C159.999 127.962 160.394 127.86 160.735 127.658C161.482 127.21 161.855 126.372 161.855 125.146V119.562L162.911 119.002V119.018L162.927 119.002V123.034C162.927 124.25 163.514 124.858 164.687 124.858ZM167.254 121.562C167.254 120.655 167.526 119.951 168.07 119.45C168.539 119.023 169.158 118.81 169.926 118.81C170.918 118.81 171.68 119.172 172.214 119.898C172.672 120.516 172.902 121.327 172.902 122.33C172.902 123.471 172.608 124.362 172.022 125.002C171.51 125.567 170.843 125.85 170.022 125.85C169.019 125.85 168.272 125.53 167.782 124.89C167.302 125.53 166.582 125.85 165.622 125.85H164.934V124.858H165.494C166.667 124.858 167.254 124.25 167.254 123.034V121.562ZM168.326 123.098C168.326 124.271 168.902 124.858 170.054 124.858C170.608 124.858 171.046 124.634 171.366 124.186C171.686 123.738 171.846 123.114 171.846 122.314C171.846 121.524 171.675 120.906 171.334 120.458C171.003 120.01 170.534 119.786 169.926 119.786C168.859 119.786 168.326 120.41 168.326 121.658V123.098ZM177.645 125.082C177.645 127.023 176.931 128.239 175.501 128.73C175.16 128.847 174.797 128.906 174.413 128.906C173.795 128.906 173.197 128.756 172.621 128.458V127.514C173.165 127.812 173.72 127.962 174.285 127.962C174.733 127.962 175.128 127.86 175.469 127.658C176.216 127.21 176.589 126.372 176.589 125.146V119.562L177.645 119.002V125.082ZM183.482 115.306L183.786 114.746H184.186C184.079 114.564 184.026 114.372 184.026 114.17C184.026 113.871 184.138 113.61 184.362 113.386C184.597 113.162 184.863 113.05 185.162 113.05C185.397 113.05 185.626 113.124 185.85 113.274V113.866C185.647 113.716 185.445 113.642 185.242 113.642C185.061 113.642 184.911 113.695 184.794 113.802C184.677 113.908 184.618 114.042 184.618 114.202C184.618 114.383 184.693 114.564 184.842 114.746H186.25L185.946 115.306H183.482ZM187.066 125.85C186.159 125.85 185.461 125.556 184.97 124.97C184.565 124.468 184.362 123.834 184.362 123.066V116.73L185.434 116.17V123.034C185.434 124.25 186.021 124.858 187.194 124.858H187.754V125.85H187.066ZM195.898 115.754C195.514 115.754 195.322 115.551 195.322 115.146C195.322 114.762 195.514 114.57 195.898 114.57C196.282 114.57 196.474 114.762 196.474 115.146C196.474 115.551 196.282 115.754 195.898 115.754ZM195.002 117.418C194.564 117.418 194.346 117.199 194.346 116.762C194.346 116.324 194.564 116.106 195.002 116.106C195.418 116.106 195.626 116.324 195.626 116.762C195.626 117.199 195.418 117.418 195.002 117.418ZM196.826 117.418C196.399 117.418 196.186 117.199 196.186 116.762C196.186 116.324 196.399 116.106 196.826 116.106C197.252 116.106 197.466 116.324 197.466 116.762C197.466 117.199 197.252 117.418 196.826 117.418ZM187.434 125.85V124.858H188.41C189.594 124.858 190.186 124.25 190.186 123.034V120.73L191.258 120.17V123.034C191.258 124.25 191.844 124.858 193.018 124.858H193.61C194.783 124.858 195.37 124.25 195.37 123.034V120.154L196.442 119.578V123.034C196.442 124.25 197.034 124.858 198.218 124.858H198.794C199.978 124.858 200.57 124.25 200.57 123.034V119.562L201.642 119.002V122.97C201.642 124.228 202.25 124.858 203.466 124.858H204.394V125.85H203.354C202.34 125.85 201.599 125.492 201.13 124.778C200.66 125.492 199.935 125.85 198.954 125.85H198.074C197.082 125.85 196.362 125.498 195.914 124.794C195.455 125.498 194.74 125.85 193.77 125.85H192.89C191.898 125.85 191.172 125.498 190.714 124.794C190.266 125.498 189.546 125.85 188.554 125.85H187.434ZM206.858 116.89C206.421 116.89 206.202 116.666 206.202 116.218C206.202 115.791 206.421 115.578 206.858 115.578C207.274 115.578 207.482 115.791 207.482 116.218C207.482 116.666 207.274 116.89 206.858 116.89ZM204.074 125.85V124.858H204.634C205.808 124.858 206.394 124.25 206.394 123.034V119.562L207.466 119.002V123.066C207.466 123.962 207.205 124.66 206.682 125.162C206.202 125.62 205.562 125.85 204.762 125.85H204.074ZM210.346 125.85V116.09L211.418 115.53V125.85H210.346ZM110.919 150.858H111.463V151.85H110.775C109.815 151.85 109.095 151.524 108.615 150.874C108.135 151.524 107.41 151.85 106.439 151.85H100.727C99.938 151.85 99.3086 151.604 98.8393 151.114C98.37 150.612 98.1353 149.94 98.1353 149.098V147.002L99.2073 146.442V148.97C99.2073 150.228 99.794 150.858 100.967 150.858H106.327C107.49 150.858 108.071 150.228 108.071 148.97V142.09L109.143 141.53V149.034C109.143 150.25 109.735 150.858 110.919 150.858ZM103.575 144.218C104.013 144.218 104.359 144.335 104.615 144.57C104.871 144.804 104.999 145.119 104.999 145.514C104.999 145.866 104.893 146.148 104.679 146.362C104.477 146.564 104.205 146.666 103.863 146.666H101.879L102.183 146.106H103.815C104.221 146.106 104.423 145.903 104.423 145.498C104.423 145.007 104.114 144.762 103.495 144.762C103.175 144.762 102.903 144.826 102.679 144.954V144.41L103.991 142.938H104.663L103.559 144.218H103.575ZM112.761 142.938C112.334 142.938 112.121 142.719 112.121 142.282C112.121 141.844 112.334 141.626 112.761 141.626C113.187 141.626 113.401 141.844 113.401 142.282C113.401 142.719 113.187 142.938 112.761 142.938ZM114.585 142.938C114.158 142.938 113.945 142.719 113.945 142.282C113.945 141.844 114.158 141.626 114.585 141.626C115.011 141.626 115.225 141.844 115.225 142.282C115.225 142.719 115.011 142.938 114.585 142.938ZM116.297 150.858H116.857V151.85H116.169C115.209 151.85 114.489 151.524 114.009 150.874C113.507 151.524 112.782 151.85 111.833 151.85H111.145V150.858H111.705C112.878 150.858 113.465 150.25 113.465 149.034V145.562L114.537 145.002V149.034C114.537 150.25 115.123 150.858 116.297 150.858ZM131.255 150.858V151.85H130.567C129.671 151.85 128.978 151.562 128.487 150.986C128.103 151.562 127.485 151.85 126.631 151.85H116.535V150.858H119.239V142.09L120.231 141.53V148.25C121.479 145.956 123.133 144.81 125.191 144.81C126.386 144.81 127.335 145.22 128.039 146.042C128.637 146.746 128.935 147.615 128.935 148.65V149.066C128.935 150.26 129.527 150.858 130.711 150.858H131.255ZM127.863 148.65C127.863 147.754 127.581 147.034 127.015 146.49C126.535 146.02 125.933 145.786 125.207 145.786C123.959 145.786 122.85 146.388 121.879 147.594C121.143 148.5 120.599 149.588 120.247 150.858H126.519C127.031 150.858 127.383 150.74 127.575 150.506C127.767 150.26 127.863 149.818 127.863 149.178V148.65ZM125.095 142.89C124.658 142.89 124.439 142.666 124.439 142.218C124.439 141.791 124.658 141.578 125.095 141.578C125.511 141.578 125.719 141.791 125.719 142.218C125.719 142.666 125.511 142.89 125.095 142.89ZM135.598 142.938C135.16 142.938 134.942 142.714 134.942 142.266C134.942 141.839 135.16 141.626 135.598 141.626C136.014 141.626 136.222 141.839 136.222 142.266C136.222 142.714 136.014 142.938 135.598 142.938ZM137.23 150.858H140.158V151.85H136.542C136.179 151.85 135.848 151.812 135.55 151.738C135.251 151.812 134.92 151.85 134.558 151.85H130.942V150.858H133.886C133.043 150.079 132.622 149.156 132.622 148.09C132.622 147.055 132.91 146.234 133.486 145.626C134.008 145.082 134.696 144.81 135.55 144.81C136.52 144.81 137.272 145.162 137.806 145.866C138.254 146.452 138.478 147.194 138.478 148.09C138.478 149.167 138.062 150.09 137.23 150.858ZM135.614 150.714C136.158 150.522 136.6 150.18 136.942 149.69C137.294 149.188 137.47 148.65 137.47 148.074C137.47 147.37 137.294 146.815 136.942 146.41C136.6 145.994 136.136 145.786 135.55 145.786C134.963 145.786 134.499 145.994 134.158 146.41C133.816 146.815 133.646 147.364 133.646 148.058C133.646 148.644 133.816 149.188 134.158 149.69C134.499 150.18 134.942 150.522 135.486 150.714L135.55 150.73L135.582 150.714H135.614ZM149.944 150.858H150.504V151.85H149.928C149.043 151.85 148.334 151.748 147.8 151.546C147.278 151.343 146.792 150.986 146.344 150.474C144.979 151.391 143.4 151.85 141.608 151.85H139.832V150.858H141.624C143.95 150.858 145.763 150.068 147.064 148.49C146.115 146.676 144.968 145.77 143.624 145.77C142.707 145.77 141.811 146.234 140.936 147.162V146.106C141.811 145.242 142.723 144.81 143.672 144.81H143.704C145.379 144.81 146.83 145.94 148.056 148.202V148.858C147.726 149.284 147.374 149.652 147 149.962C147.342 150.292 147.726 150.527 148.152 150.666C148.59 150.794 149.187 150.858 149.944 150.858ZM160.256 150.858H160.8V151.85H160.112C159.141 151.85 158.416 151.514 157.936 150.842C157.402 151.727 156.592 152.17 155.504 152.17C154.405 152.17 153.594 151.732 153.072 150.858C152.581 151.519 151.85 151.85 150.88 151.85H150.192V150.858H150.752C151.925 150.858 152.512 150.25 152.512 149.034V148.49C152.512 147.263 152.81 146.324 153.408 145.674C153.93 145.098 154.629 144.81 155.504 144.81C156.506 144.81 157.269 145.183 157.792 145.93C158.25 146.57 158.48 147.423 158.48 148.49V149.034C158.48 150.25 159.072 150.858 160.256 150.858ZM155.504 151.178C156.09 151.178 156.554 150.938 156.896 150.458C157.237 149.967 157.408 149.306 157.408 148.474C157.408 146.682 156.773 145.786 155.504 145.786C154.224 145.786 153.584 146.682 153.584 148.474C153.584 150.276 154.224 151.178 155.504 151.178ZM160.473 151.85V150.858H161.033C162.206 150.858 162.793 150.25 162.793 149.034V145.562L163.865 145.002V149.066C163.865 149.962 163.603 150.66 163.081 151.162C162.601 151.62 161.961 151.85 161.161 151.85H160.473ZM162.601 154.842C162.163 154.842 161.945 154.618 161.945 154.17C161.945 153.743 162.163 153.53 162.601 153.53C163.017 153.53 163.225 153.743 163.225 154.17C163.225 154.618 163.017 154.842 162.601 154.842Z" fill="#656668"/>
<path d="M127.688 24.1802L124.045 20.538L122.062 22.5208L127.688 28.1457L138.938 16.8959L136.955 14.9131L127.688 24.1802Z" fill="#6654A4"/>
<path d="M130.5 43.0376L121.815 38.4069C119.339 37.0897 117.269 35.1231 115.826 32.7183C114.383 30.3134 113.622 27.5611 113.625 24.7566V6.47555C113.626 5.72987 113.922 5.01494 114.45 4.48766C114.977 3.96038 115.692 3.66383 116.438 3.66309H144.562C145.308 3.66383 146.023 3.96038 146.55 4.48766C147.078 5.01494 147.374 5.72987 147.375 6.47555V24.7566C147.378 27.5611 146.617 30.3134 145.174 32.7183C143.731 35.1231 141.661 37.0897 139.185 38.4069L130.5 43.0376ZM116.438 6.47555V24.7566C116.435 27.0513 117.058 29.3033 118.239 31.2709C119.419 33.2385 121.114 34.8474 123.14 35.9249L130.5 39.8497L137.86 35.9263C139.887 34.8487 141.581 33.2396 142.762 31.2717C143.943 29.3038 144.565 27.0515 144.562 24.7566V6.47555H116.438Z" fill="#6654A4"/>
</svg>
