<svg width="214" height="45" viewBox="0 0 214 45" fill="none" xmlns="http://www.w3.org/2000/svg">
<path d="M72.9248 35.3521C72.9248 35.583 72.8444 35.7621 72.6876 35.8895C72.5268 36.0208 72.2775 36.1124 71.9358 36.1721C71.594 36.2278 71.0915 36.2557 70.4241 36.2557C69.7085 36.2557 69.1899 36.2278 68.8642 36.1721C68.5386 36.1164 68.3094 36.0208 68.1727 35.8895C68.0361 35.7581 67.9717 35.579 67.9717 35.3521V33.6126C67.0993 34.5759 66.1023 35.3282 64.9806 35.8656C63.8589 36.403 62.6167 36.6736 61.2538 36.6736C60.1281 36.6736 59.0908 36.5224 58.1461 36.2199C57.2013 35.9173 56.3811 35.4675 55.6937 34.8744C55.0022 34.2774 54.4675 33.541 54.0855 32.6573C53.7036 31.7736 53.5146 30.7466 53.5146 29.5724C53.5146 28.2986 53.7559 27.192 54.2423 26.2526C54.7288 25.3132 55.4484 24.537 56.4093 23.928C57.3701 23.315 58.5642 22.8612 59.9954 22.5666C61.4266 22.2721 63.083 22.1248 64.9766 22.1248H67.0511V20.8032C67.0511 20.1186 66.9827 19.5175 66.8501 19.004C66.7134 18.4905 66.4922 18.0606 66.1827 17.7183C65.8731 17.376 65.459 17.1212 64.9444 16.958C64.4258 16.7948 63.7906 16.7112 63.0267 16.7112C62.0257 16.7112 61.1332 16.8267 60.3452 17.0536C59.5572 17.2844 58.8657 17.5352 58.2626 17.8138C57.6596 18.0925 57.153 18.3433 56.751 18.5741C56.345 18.805 56.0153 18.9165 55.762 18.9165C55.5891 18.9165 55.4323 18.8607 55.2956 18.7453C55.159 18.6299 55.0504 18.4667 54.962 18.2557C54.8735 18.0447 54.8092 17.782 54.761 17.4715C54.7127 17.161 54.6886 16.8187 54.6886 16.4445C54.6886 15.939 54.7288 15.537 54.8092 15.2464C54.8896 14.9518 55.0384 14.6891 55.2635 14.4503C55.4846 14.2154 55.8746 13.9527 56.4294 13.6661C56.9842 13.3795 57.6355 13.1168 58.3833 12.87C59.131 12.6232 59.9431 12.4242 60.8236 12.269C61.704 12.1137 62.6126 12.0381 63.5534 12.0381C65.2218 12.0381 66.645 12.2053 67.831 12.5396C69.013 12.874 69.9859 13.3875 70.7498 14.0841C71.5136 14.7807 72.0684 15.6723 72.4182 16.767C72.768 17.8616 72.9408 19.1593 72.9408 20.6599V35.3521H72.9248ZM67.043 25.9978H64.7555C63.7866 25.9978 62.9624 26.0695 62.279 26.2168C61.5955 26.364 61.0407 26.583 60.6105 26.8775C60.1803 27.1721 59.8668 27.5264 59.6698 27.9443C59.4728 28.3583 59.3723 28.8399 59.3723 29.3773C59.3723 30.2928 59.6537 31.0093 60.2165 31.5308C60.7794 32.0522 61.5633 32.315 62.5644 32.315C63.4046 32.315 64.1806 32.096 64.8881 31.6542C65.5957 31.2123 66.3154 30.5675 67.043 29.7196V25.9978Z" fill="#6654A4"/>
<path d="M93.8668 29.1057C93.8668 30.3477 93.6416 31.4423 93.1873 32.3857C92.733 33.3331 92.0938 34.1252 91.2696 34.7621C90.4455 35.399 89.4685 35.8766 88.3388 36.1951C87.2091 36.5135 85.9869 36.6727 84.6683 36.6727C83.8722 36.6727 83.1164 36.613 82.3928 36.4896C81.6691 36.3662 81.0218 36.211 80.4509 36.0239C79.8801 35.8368 79.4016 35.6458 79.0197 35.4467C78.6378 35.2477 78.3604 35.0686 78.1875 34.8974C78.0146 34.7263 77.8779 34.4556 77.7815 34.0894C77.685 33.7232 77.6367 33.1778 77.6367 32.4613C77.6367 31.9877 77.6528 31.6095 77.685 31.3229C77.7171 31.0363 77.7654 30.8094 77.8297 30.6382C77.894 30.4671 77.9744 30.3517 78.0669 30.2959C78.1594 30.2402 78.28 30.2084 78.4247 30.2084C78.5976 30.2084 78.8589 30.3118 79.2006 30.5149C79.5424 30.7179 79.9685 30.9447 80.4751 31.1876C80.9816 31.4344 81.5726 31.6612 82.248 31.8722C82.9234 32.0832 83.6873 32.1907 84.5477 32.1907C85.0864 32.1907 85.5688 32.1349 85.9869 32.0195C86.4091 31.9041 86.7749 31.7409 87.0845 31.5299C87.394 31.3189 87.6272 31.0482 87.788 30.7218C87.9448 30.3954 88.0252 30.0213 88.0252 29.5953C88.0252 29.1057 87.8765 28.6838 87.583 28.3335C87.2895 27.9832 86.8995 27.6767 86.4171 27.414C85.9306 27.1513 85.3839 26.9085 84.7728 26.6776C84.1617 26.4507 83.5345 26.196 82.8913 25.9173C82.248 25.6387 81.6209 25.3202 81.0098 24.962C80.3987 24.6037 79.8519 24.1619 79.3655 23.6405C78.879 23.119 78.493 22.4901 78.1996 21.7537C77.9061 21.0173 77.7573 20.1376 77.7573 19.1106C77.7573 18.0677 77.9543 17.1084 78.3523 16.2327C78.7503 15.3609 79.3212 14.6126 80.069 13.9916C80.8168 13.3707 81.7254 12.889 82.7988 12.5467C83.8722 12.2044 85.0743 12.0332 86.4091 12.0332C87.0764 12.0332 87.7237 12.081 88.3509 12.1805C88.978 12.28 89.5449 12.3994 90.0555 12.5467C90.5621 12.694 90.9922 12.8532 91.342 13.0244C91.6918 13.1955 91.941 13.3428 92.0938 13.4662C92.2466 13.5896 92.3511 13.713 92.4154 13.8324C92.4798 13.9518 92.528 14.1031 92.5602 14.2742C92.5923 14.4454 92.6205 14.6564 92.6446 14.9111C92.6687 15.1659 92.6808 15.4804 92.6808 15.8545C92.6808 16.2964 92.6687 16.6546 92.6446 16.9332C92.6205 17.2119 92.5803 17.4308 92.524 17.594C92.4677 17.7572 92.3913 17.8687 92.2988 17.9244C92.2064 17.9801 92.0938 18.008 91.9652 18.008C91.8204 18.008 91.5993 17.9244 91.2978 17.7493C90.9963 17.5781 90.6183 17.395 90.164 17.1999C89.7098 17.0049 89.1871 16.8218 88.5921 16.6506C87.9971 16.4795 87.3177 16.3919 86.5538 16.3919C86.0151 16.3919 85.5447 16.4476 85.1467 16.5631C84.7487 16.6785 84.423 16.8417 84.1697 17.0527C83.9165 17.2636 83.7235 17.5144 83.5989 17.801C83.4702 18.0876 83.4099 18.3941 83.4099 18.7205C83.4099 19.226 83.5627 19.652 83.8642 19.9943C84.1657 20.3366 84.5637 20.6391 85.0542 20.9018C85.5447 21.1646 86.1075 21.4074 86.7347 21.6382C87.3619 21.8691 87.9971 22.1159 88.6403 22.3866C89.2836 22.6573 89.9188 22.9717 90.546 23.33C91.1731 23.6882 91.732 24.1301 92.2265 24.6515C92.717 25.173 93.115 25.7979 93.4165 26.5264C93.718 27.2508 93.8668 28.1106 93.8668 29.1057Z" fill="#6654A4"/>
<path d="M110.004 36.1115L107.431 43.8497C107.286 44.2557 106.9 44.5502 106.265 44.7294C105.63 44.9085 104.701 45 103.479 45C102.844 45 102.337 44.9722 101.955 44.9125C101.573 44.8567 101.288 44.7612 101.099 44.6298C100.91 44.4985 100.805 44.3353 100.789 44.1402C100.773 43.9452 100.821 43.7064 100.934 43.4317L103.768 36.1075C103.563 36.008 103.374 35.8567 103.209 35.6537C103.041 35.4507 102.92 35.2358 102.84 35.0049L95.5185 14.9271C95.3135 14.3578 95.209 13.92 95.209 13.6175C95.209 13.3149 95.3055 13.0801 95.4944 12.9089C95.6834 12.7378 96.005 12.6184 96.4593 12.5547C96.9136 12.491 97.5126 12.4552 98.2564 12.4552C98.9398 12.4552 99.4786 12.4671 99.8766 12.491C100.275 12.5149 100.584 12.5746 100.805 12.6741C101.026 12.7736 101.195 12.9249 101.304 13.1279C101.412 13.3309 101.525 13.6214 101.637 13.9956L106.639 28.6161H106.711L111.286 13.7011C111.383 13.2751 111.503 12.9965 111.656 12.8572C111.809 12.7179 112.058 12.6184 112.408 12.5507C112.758 12.487 113.369 12.4512 114.241 12.4512C114.925 12.4512 115.491 12.483 115.946 12.5507C116.4 12.6184 116.734 12.7378 116.947 12.9169C117.16 13.096 117.268 13.3388 117.268 13.6414C117.268 13.9439 117.204 14.2981 117.08 14.7081L110.004 36.1115Z" fill="#6654A4"/>
<path d="M145.118 31.3108C145.118 31.7208 145.106 32.0671 145.081 32.3537C145.057 32.6403 145.021 32.8831 144.973 33.0901C144.925 33.2931 144.86 33.4683 144.784 33.6155C144.704 33.7628 144.579 33.93 144.402 34.1171C144.225 34.3042 143.891 34.547 143.389 34.8376C142.886 35.1321 142.275 35.4147 141.556 35.6814C140.832 35.9521 140.008 36.175 139.079 36.3541C138.15 36.5333 137.145 36.6248 136.064 36.6248C133.953 36.6248 132.044 36.2905 130.347 35.6217C128.646 34.953 127.203 33.9539 126.009 32.6204C124.819 31.2909 123.902 29.631 123.271 27.6368C122.636 25.6465 122.318 23.3258 122.318 20.6828C122.318 17.9879 122.668 15.5956 123.368 13.5058C124.067 11.4161 125.044 9.66065 126.298 8.23959C127.553 6.81854 129.056 5.73981 130.813 5.00739C132.57 4.27498 134.5 3.90479 136.615 3.90479C137.471 3.90479 138.299 3.97643 139.091 4.12371C139.883 4.27099 140.619 4.46206 141.294 4.70089C141.97 4.93574 142.577 5.2104 143.115 5.52088C143.654 5.83137 144.032 6.09806 144.245 6.31699C144.458 6.53592 144.607 6.71903 144.687 6.86631C144.768 7.01359 144.832 7.20067 144.876 7.43154C144.925 7.66241 144.961 7.92911 144.985 8.23959C145.009 8.55007 145.021 8.93221 145.021 9.38997C145.021 9.87957 145.005 10.2975 144.973 10.6399C144.941 10.9822 144.884 11.2608 144.804 11.4718C144.724 11.6828 144.627 11.838 144.519 11.9375C144.406 12.037 144.281 12.0848 144.137 12.0848C143.899 12.0848 143.598 11.9415 143.232 11.6549C142.866 11.3683 142.396 11.0499 141.813 10.6996C141.234 10.3493 140.542 10.0308 139.738 9.74424C138.934 9.45764 137.978 9.31434 136.868 9.31434C135.646 9.31434 134.552 9.57307 133.591 10.0866C132.63 10.6001 131.814 11.3365 131.139 12.2918C130.464 13.2471 129.953 14.4015 129.603 15.7588C129.253 17.1162 129.081 18.6407 129.081 20.3365C129.081 22.1993 129.265 23.8115 129.639 25.1728C130.013 26.5381 130.544 27.6606 131.235 28.5403C131.927 29.42 132.759 30.0808 133.736 30.5107C134.713 30.9446 135.815 31.1595 137.037 31.1595C138.146 31.1595 139.111 31.0242 139.919 30.7535C140.727 30.4828 141.423 30.1883 142.002 29.8579C142.581 29.5315 143.059 29.2369 143.433 28.9782C143.807 28.7155 144.096 28.5881 144.301 28.5881C144.458 28.5881 144.587 28.62 144.683 28.6876C144.78 28.7513 144.856 28.8827 144.921 29.0777C144.985 29.2728 145.033 29.5474 145.065 29.8977C145.097 30.248 145.118 30.7217 145.118 31.3108Z" fill="#F05665"/>
<path d="M167.37 35.3511C167.37 35.582 167.29 35.7611 167.133 35.8885C166.972 36.0199 166.723 36.1114 166.381 36.1711C166.039 36.2268 165.537 36.2547 164.869 36.2547C164.154 36.2547 163.635 36.2268 163.31 36.1711C162.984 36.1154 162.755 36.0199 162.618 35.8885C162.481 35.7571 162.417 35.578 162.417 35.3511V33.6116C161.545 34.5749 160.548 35.3272 159.426 35.8646C158.304 36.402 157.062 36.6727 155.699 36.6727C154.573 36.6727 153.536 36.5214 152.591 36.2189C151.647 35.9164 150.826 35.4666 150.139 34.8735C149.447 34.2764 148.913 33.54 148.531 32.6563C148.149 31.7726 147.96 30.7456 147.96 29.5714C147.96 28.2976 148.201 27.191 148.688 26.2516C149.174 25.3122 149.894 24.536 150.855 23.927C151.815 23.314 153.009 22.8602 154.441 22.5656C155.872 22.2711 157.528 22.1238 159.422 22.1238H161.496V20.8023C161.496 20.1176 161.428 19.5165 161.295 19.0031C161.159 18.4896 160.938 18.0597 160.628 17.7173C160.318 17.375 159.904 17.1203 159.39 16.9571C158.871 16.7939 158.236 16.7103 157.472 16.7103C156.471 16.7103 155.578 16.8257 154.79 17.0526C154.002 17.2835 153.311 17.5342 152.708 17.8129C152.105 18.0915 151.598 18.3423 151.196 18.5732C150.79 18.804 150.461 18.9155 150.207 18.9155C150.034 18.9155 149.878 18.8598 149.741 18.7443C149.604 18.6289 149.496 18.4657 149.407 18.2547C149.319 18.0437 149.255 17.781 149.206 17.4705C149.158 17.1601 149.134 16.8177 149.134 16.4436C149.134 15.938 149.174 15.536 149.255 15.2454C149.335 14.9509 149.484 14.6881 149.709 14.4493C149.93 14.2145 150.32 13.9517 150.875 13.6652C151.429 13.3786 152.081 13.1158 152.829 12.869C153.576 12.6222 154.388 12.4232 155.269 12.268C156.149 12.1127 157.058 12.0371 157.999 12.0371C159.667 12.0371 161.09 12.2043 162.276 12.5387C163.458 12.873 164.431 13.3865 165.195 14.0831C165.959 14.7797 166.514 15.6713 166.863 16.766C167.213 17.8606 167.386 19.1583 167.386 20.659V35.3511H167.37ZM161.484 25.9969H159.197C158.228 25.9969 157.404 26.0685 156.72 26.2158C156.037 26.3631 155.482 26.582 155.052 26.8766C154.622 27.1711 154.308 27.5254 154.111 27.9433C153.914 28.3573 153.814 28.839 153.814 29.3763C153.814 30.2919 154.095 31.0084 154.658 31.5298C155.221 32.0513 156.005 32.314 157.006 32.314C157.846 32.314 158.622 32.095 159.329 31.6532C160.037 31.2114 160.757 30.5665 161.484 29.7187V25.9969Z" fill="#F05665"/>
<path d="M188.312 29.1057C188.312 30.3477 188.087 31.4423 187.633 32.3857C187.178 33.3331 186.539 34.1252 185.715 34.7621C184.891 35.399 183.914 35.8766 182.784 36.1951C181.654 36.5135 180.432 36.6727 179.114 36.6727C178.318 36.6727 177.562 36.613 176.838 36.4896C176.114 36.3662 175.467 36.211 174.896 36.0239C174.325 35.8368 173.847 35.6458 173.465 35.4467C173.083 35.2477 172.806 35.0686 172.633 34.8974C172.46 34.7263 172.323 34.4556 172.227 34.0894C172.13 33.7232 172.082 33.1778 172.082 32.4613C172.082 31.9877 172.098 31.6095 172.13 31.3229C172.162 31.0363 172.211 30.8094 172.275 30.6382C172.339 30.4671 172.42 30.3517 172.512 30.2959C172.605 30.2402 172.725 30.2084 172.87 30.2084C173.043 30.2084 173.304 30.3118 173.646 30.5149C173.988 30.7179 174.414 30.9447 174.92 31.1876C175.427 31.4344 176.018 31.6612 176.693 31.8722C177.369 32.0832 178.133 32.1907 178.993 32.1907C179.532 32.1907 180.014 32.1349 180.432 32.0195C180.854 31.9041 181.22 31.7409 181.53 31.5299C181.839 31.3189 182.073 31.0482 182.233 30.7218C182.39 30.3954 182.471 30.0213 182.471 29.5953C182.471 29.1057 182.322 28.6838 182.028 28.3335C181.735 27.9832 181.345 27.6767 180.862 27.414C180.376 27.1513 179.829 26.9085 179.218 26.6776C178.607 26.4507 177.98 26.196 177.337 25.9173C176.693 25.6387 176.066 25.3202 175.455 24.962C174.844 24.6037 174.297 24.1619 173.811 23.6405C173.324 23.119 172.938 22.4901 172.645 21.7537C172.351 21.0173 172.203 20.1376 172.203 19.1106C172.203 18.0677 172.4 17.1084 172.798 16.2327C173.196 15.3609 173.767 14.6126 174.514 13.9916C175.262 13.3707 176.171 12.889 177.244 12.5467C178.318 12.2044 179.52 12.0332 180.854 12.0332C181.522 12.0332 182.169 12.081 182.796 12.1805C183.423 12.28 183.99 12.3994 184.501 12.5467C185.007 12.694 185.438 12.8532 185.787 13.0244C186.137 13.1955 186.386 13.3428 186.539 13.4662C186.692 13.5896 186.796 13.713 186.861 13.8324C186.925 13.9518 186.973 14.1031 187.005 14.2742C187.038 14.4454 187.066 14.6564 187.09 14.9111C187.114 15.1659 187.126 15.4804 187.126 15.8545C187.126 16.2964 187.114 16.6546 187.09 16.9332C187.066 17.2119 187.026 17.4308 186.969 17.594C186.913 17.7572 186.837 17.8687 186.744 17.9244C186.652 17.9801 186.539 18.008 186.41 18.008C186.266 18.008 186.045 17.9244 185.743 17.7493C185.442 17.5781 185.064 17.395 184.609 17.1999C184.155 17.0049 183.632 16.8218 183.037 16.6506C182.442 16.4795 181.763 16.3919 180.999 16.3919C180.46 16.3919 179.99 16.4476 179.592 16.5631C179.194 16.6785 178.868 16.8417 178.615 17.0527C178.362 17.2636 178.169 17.5144 178.044 17.801C177.916 18.0876 177.855 18.3941 177.855 18.7205C177.855 19.226 178.008 19.652 178.309 19.9943C178.611 20.3366 179.009 20.6391 179.5 20.9018C179.99 21.1646 180.553 21.4074 181.18 21.6382C181.807 21.8691 182.442 22.1159 183.086 22.3866C183.729 22.6573 184.364 22.9717 184.991 23.33C185.618 23.6882 186.177 24.1301 186.672 24.6515C187.162 25.173 187.56 25.7979 187.862 26.5264C188.159 27.2508 188.312 28.1106 188.312 29.1057Z" fill="#F05665"/>
<path d="M213.114 35.2754C213.114 35.4386 213.065 35.5819 212.969 35.7053C212.872 35.8287 212.716 35.9282 212.495 36.0118C212.273 36.0954 211.968 36.1551 211.578 36.1949C211.188 36.2347 210.71 36.2546 210.139 36.2546C209.552 36.2546 209.061 36.2347 208.675 36.1949C208.289 36.1551 207.98 36.0954 207.759 36.0118C207.538 35.9282 207.377 35.8287 207.284 35.7053C207.188 35.5819 207.139 35.4386 207.139 35.2754V22.8123C207.139 21.7495 207.063 20.9176 206.914 20.3125C206.762 19.7075 206.544 19.19 206.259 18.7562C205.974 18.3223 205.604 17.9879 205.153 17.7531C204.703 17.5182 204.173 17.3988 203.569 17.3988C202.806 17.3988 202.038 17.6854 201.258 18.2546C200.478 18.8278 199.67 19.6597 198.829 20.7544V35.2754C198.829 35.4386 198.781 35.5819 198.685 35.7053C198.588 35.8287 198.427 35.9282 198.198 36.0118C197.969 36.0954 197.664 36.1551 197.282 36.1949C196.9 36.2347 196.417 36.2546 195.826 36.2546C195.235 36.2546 194.753 36.2347 194.375 36.1949C193.997 36.1551 193.688 36.0954 193.458 36.0118C193.229 35.9282 193.064 35.8287 192.972 35.7053C192.875 35.5819 192.827 35.4386 192.827 35.2754V3.07283C192.827 2.90963 192.875 2.76235 192.972 2.631C193.068 2.49964 193.229 2.39216 193.458 2.30061C193.688 2.20906 193.993 2.14139 194.375 2.09362C194.757 2.04586 195.239 2.02197 195.826 2.02197C196.413 2.02197 196.9 2.04586 197.282 2.09362C197.664 2.14139 197.969 2.21304 198.198 2.30061C198.427 2.39216 198.592 2.49964 198.685 2.631C198.781 2.76235 198.829 2.90963 198.829 3.07283V15.1458C199.863 14.1029 200.916 13.3227 201.985 12.8053C203.059 12.2918 204.173 12.033 205.334 12.033C206.778 12.033 208 12.2798 208.993 12.7694C209.986 13.259 210.786 13.9278 211.401 14.7756C212.012 15.6235 212.454 16.6186 212.724 17.7531C212.993 18.8875 213.13 20.2648 213.13 21.8809V35.2754H213.114Z" fill="#F05665"/>
<path d="M44.3485 33.2016V33.5041C44.3485 35.4745 42.3062 37.0866 39.8096 37.0866H24.1826C27.7647 35.5183 30.8121 32.9071 32.967 29.6191H39.8056C42.3062 29.6191 44.3485 31.2313 44.3485 33.2016Z" fill="#F05665"/>
<path d="M48.7136 18.5136V18.8201C48.7136 20.7904 46.6713 22.4025 44.1747 22.4025H35.9531C36.2466 21.0054 36.3994 19.5565 36.3994 18.0677C36.3994 17.001 36.323 15.9541 36.1702 14.9351H44.1747C46.6673 14.939 48.7136 16.5432 48.7136 18.5136Z" fill="#F05665"/>
<path d="M53.2814 3.5785V3.88501C53.2814 5.85537 51.2391 7.46351 48.7424 7.46351H33.5456C31.7325 4.35073 29.1394 1.76338 26.0518 0H48.7424C49.056 0 49.3576 0.0278638 49.6551 0.0716497C49.9485 0.123397 50.234 0.195046 50.5074 0.278638L50.9054 0.429898C51.416 0.652808 51.8743 0.951349 52.2441 1.30562C52.8914 1.9226 53.2814 2.71473 53.2814 3.5785Z" fill="#F05665"/>
<path d="M12.3138 19.6401V26.1284C10.0263 26.1921 7.81109 26.4508 5.7366 26.8967C5.20592 24.6516 4.90038 22.1956 4.83203 19.6441H12.3138V19.6401Z" fill="#BAB7B7"/>
<path d="M31.5398 19.6319C31.3388 23.2144 30.1608 26.6058 28.1306 29.4798C26.6511 28.6478 24.9505 27.9512 23.0811 27.4139C23.6519 24.9897 23.9856 22.3586 24.058 19.6279H31.5398V19.6319Z" fill="#6654A4"/>
<path d="M31.5398 17.447H24.058C23.9896 14.7243 23.6519 12.0852 23.0811 9.669C24.9505 9.13163 26.6511 8.43503 28.1306 7.59912C30.1568 10.4731 31.3348 13.8685 31.5398 17.447Z" fill="#6654A4"/>
<path d="M12.3147 28.3135V37.0866C11.6393 36.8915 10.9679 36.5054 10.3206 35.9481C9.2834 35.0446 8.33863 33.735 7.5225 32.0472C7.06419 31.1078 6.66617 30.0888 6.31641 29.0021C8.20194 28.608 10.2242 28.3772 12.3147 28.3135Z" fill="#BAB7B7"/>
<path d="M26.755 5.87942C25.5006 6.55213 24.0694 7.12135 22.5095 7.57115C22.1196 6.31728 21.6653 5.14302 21.1346 4.06031C20.7245 3.21644 20.2782 2.44819 19.8079 1.75956C19.6752 1.56053 19.5345 1.36549 19.3978 1.18636C19.2933 1.04306 19.1807 0.907725 19.0762 0.776367C20.4833 1.25005 21.8301 1.91082 23.0844 2.72683C23.6634 3.101 24.2141 3.50702 24.7529 3.95284C25.2675 4.37477 25.762 4.83254 26.2364 5.32214C26.4133 5.50525 26.5861 5.69233 26.755 5.87942Z" fill="#6654A4"/>
<path d="M20.4397 29.0021C20.09 30.0928 19.6919 31.1078 19.2336 32.0472C18.4175 33.731 17.4767 35.0446 16.4355 35.9481C15.7882 36.5054 15.1168 36.8955 14.4414 37.0866V28.3135C16.532 28.3772 18.5542 28.608 20.4397 29.0021Z" fill="#BAB7B7"/>
<path d="M7.67881 36.3064C6.71796 35.976 5.7772 35.574 4.87665 35.0804C3.29264 34.2206 1.82121 33.11 0.518621 31.7606C0.341727 31.5815 0.168853 31.3944 0 31.2074C0.180914 31.1078 0.361829 31.0123 0.558825 30.9208C1.67647 30.3754 2.90669 29.9017 4.24948 29.5156C4.63945 30.7695 5.10179 31.9438 5.62443 33.0265C6.23954 34.2962 6.93103 35.4028 7.67881 36.3064Z" fill="#6654A4"/>
<path d="M12.3147 0V8.77311C10.2242 8.70942 8.20194 8.47059 6.31641 8.08448C6.66617 6.99381 7.06419 5.97877 7.5225 5.03936C8.33863 3.35559 9.27938 2.04202 10.3206 1.13843C10.9679 0.573198 11.6393 0.195046 12.3147 0Z" fill="#BAB7B7"/>
<path d="M12.3138 10.9583V17.4465H4.83203C4.90038 14.895 5.20994 12.435 5.7366 10.186C7.81109 10.6279 10.0263 10.8946 12.3138 10.9583Z" fill="#BAB7B7"/>
<path d="M21.9232 19.6323C21.8549 22.1918 21.5453 24.6518 21.0187 26.8928C18.9482 26.447 16.729 26.1923 14.4414 26.1246V19.6323H21.9232Z" fill="#BAB7B7"/>
<path d="M26.755 31.2074C26.5861 31.3944 26.4133 31.5815 26.2404 31.7606C25.2634 32.7637 24.1981 33.6395 23.0523 34.3759C21.81 35.1919 20.4712 35.8367 19.0762 36.3024C19.3254 35.9999 19.5707 35.6735 19.8079 35.3272C20.2742 34.6386 20.7205 33.8703 21.1346 33.0265C21.6653 31.9438 22.1196 30.7695 22.5095 29.5156C24.0694 29.9694 25.5006 30.5346 26.755 31.2074Z" fill="#6654A4"/>
<path d="M7.67881 0.771973C6.93103 1.68352 6.24356 2.77816 5.62041 4.05592C5.09777 5.13863 4.63543 6.31288 4.24546 7.56675C2.70568 7.12093 1.29052 6.56366 0.0482438 5.89493C0.0361829 5.89095 0.012061 5.88299 0 5.87901C0.0964877 5.77153 0.188955 5.67202 0.293483 5.56454C0.361829 5.48493 0.438215 5.40134 0.518621 5.32173C2.56094 3.22 5.0053 1.67556 7.67881 0.771973Z" fill="#6654A4"/>
<path d="M21.9232 17.4465H14.4414V10.9583C16.729 10.8946 18.9442 10.6279 21.0187 10.186C21.5453 12.435 21.8549 14.895 21.9232 17.4465Z" fill="#BAB7B7"/>
<path d="M20.4397 8.08448C18.5582 8.47059 16.536 8.70942 14.4414 8.77311V0C15.1168 0.195046 15.7882 0.573198 16.4355 1.13843C17.4727 2.04202 18.4175 3.35161 19.2336 5.03936C19.6919 5.97877 20.09 6.99779 20.4397 8.08448Z" fill="#BAB7B7"/>
</svg>
