<svg width="45" height="46" viewBox="0 0 45 46" fill="none" xmlns="http://www.w3.org/2000/svg">
<path d="M27.8025 28.6528C26.396 30.0588 24.4887 30.8486 22.5 30.8486C20.5113 30.8486 18.604 30.0588 17.1975 28.6528H27.8025ZM16.875 19.6004H16.8938H16.875ZM28.125 19.6004H28.1438H28.125ZM39.375 23.3503C39.375 25.5663 38.9385 27.7607 38.0905 29.808C37.2424 31.8554 35.9994 33.7156 34.4324 35.2826C32.8654 36.8496 31.0052 38.0926 28.9578 38.9406C26.9104 39.7886 24.7161 40.2251 22.5 40.2251C20.2839 40.2251 18.0896 39.7886 16.0422 38.9406C13.9948 38.0926 12.1346 36.8496 10.5676 35.2826C9.00058 33.7156 7.75758 31.8554 6.90953 29.808C6.06148 27.7607 5.625 25.5663 5.625 23.3503C5.625 18.8748 7.4029 14.5827 10.5676 11.418C13.7322 8.2534 18.0245 6.47552 22.5 6.47552C26.9755 6.47552 31.2677 8.2534 34.4324 11.418C37.5971 14.5827 39.375 18.8748 39.375 23.3503Z" stroke="#6654A4" stroke-width="4" stroke-linecap="round" stroke-linejoin="round"/>
</svg>
