<svg width="158" height="12" viewBox="0 0 158 12" fill="none" xmlns="http://www.w3.org/2000/svg">
<path d="M0.606852 5.16075C0.606852 7.87775 2.59585 9.77575 5.13085 9.77575C7.09385 9.77575 8.65385 8.80075 9.32985 7.05875H7.91285C7.41885 8.13775 6.45685 8.74875 5.13085 8.74875C3.23285 8.74875 1.81585 7.37075 1.81585 5.16075C1.81585 2.93775 3.23285 1.55975 5.13085 1.55975C6.45685 1.55975 7.41885 2.17075 7.91285 3.26275H9.32985C8.65385 1.50775 7.09385 0.519754 5.13085 0.519754C2.59585 0.519754 0.606852 2.44375 0.606852 5.16075ZM17.4088 2.57375H16.2258V6.48675C16.2258 8.02075 15.4068 8.77475 14.1848 8.77475C12.9888 8.77475 12.1958 8.03375 12.1958 6.59075V2.57375H11.0258V6.74675C11.0258 8.78775 12.3128 9.80175 13.9508 9.80175C14.8998 9.80175 15.7708 9.38575 16.2258 8.64475V9.69775H17.4088V2.57375ZM24.5283 7.76075C24.4763 5.21275 20.3423 6.13575 20.3423 4.44575C20.3423 3.87375 20.8623 3.45775 21.7333 3.45775C22.6823 3.45775 23.2283 3.97775 23.2803 4.69275H24.4633C24.3853 3.30175 23.3453 2.45675 21.7723 2.45675C20.1863 2.45675 19.1593 3.35375 19.1593 4.44575C19.1593 7.09775 23.3713 6.17475 23.3713 7.76075C23.3713 8.34575 22.8513 8.81375 21.9153 8.81375C20.9143 8.81375 20.3033 8.29375 20.2383 7.60475H19.0163C19.0943 8.90475 20.2643 9.81475 21.9283 9.81475C23.5013 9.81475 24.5283 8.93075 24.5283 7.76075ZM26.4583 7.74775C26.4583 9.17775 27.1733 9.69775 28.4343 9.69775H29.5003V8.69675H28.6293C27.9013 8.69675 27.6413 8.44975 27.6413 7.74775V3.54875H29.5003V2.57375H27.6413V0.779753H26.4583V2.57375H25.5353V3.54875H26.4583V7.74775ZM37.6936 6.12275C37.6936 3.87375 36.1206 2.45675 34.0926 2.45675C32.0776 2.45675 30.4916 3.87375 30.4916 6.12275C30.4916 8.38475 32.0256 9.81475 34.0406 9.81475C36.0686 9.81475 37.6936 8.38475 37.6936 6.12275ZM31.7006 6.12275C31.7006 4.32875 32.8316 3.48375 34.0796 3.48375C35.3016 3.48375 36.4846 4.32875 36.4846 6.12275C36.4846 7.92975 35.2756 8.77475 34.0406 8.77475C32.8056 8.77475 31.7006 7.92975 31.7006 6.12275ZM49.532 9.69775H50.702V5.49875C50.702 3.45775 49.441 2.44375 47.816 2.44375C46.724 2.44375 45.71 3.00275 45.294 4.02975C44.826 2.96375 43.851 2.44375 42.681 2.44375C41.745 2.44375 40.9 2.84675 40.432 3.60075V2.57375H39.249V9.69775H40.432V5.77175C40.432 4.23775 41.251 3.47075 42.447 3.47075C43.617 3.47075 44.397 4.21175 44.397 5.66775V9.69775H45.567V5.77175C45.567 4.23775 46.386 3.47075 47.582 3.47075C48.752 3.47075 49.532 4.21175 49.532 5.66775V9.69775ZM55.6716 3.45775C56.8936 3.45775 57.9336 4.22475 57.9206 5.61575H53.4226C53.5526 4.22475 54.5146 3.45775 55.6716 3.45775ZM58.9996 7.50075H57.7256C57.4656 8.26775 56.7896 8.81375 55.7236 8.81375C54.5146 8.81375 53.5006 8.02075 53.4096 6.57775H59.1036C59.1296 6.33075 59.1426 6.12275 59.1426 5.86275C59.1426 3.91275 57.7906 2.45675 55.7236 2.45675C53.6436 2.45675 52.2006 3.87375 52.2006 6.12275C52.2006 8.38475 53.6956 9.81475 55.7236 9.81475C57.4916 9.81475 58.6356 8.80075 58.9996 7.50075ZM61.8871 5.82375C61.8871 4.17275 62.7451 3.66575 63.8761 3.66575H64.1881V2.44375C63.0571 2.44375 62.2901 2.93775 61.8871 3.73075V2.57375H60.7041V9.69775H61.8871V5.82375ZM74.1416 7.76075C74.0896 5.21275 69.9556 6.13575 69.9556 4.44575C69.9556 3.87375 70.4756 3.45775 71.3466 3.45775C72.2956 3.45775 72.8416 3.97775 72.8936 4.69275H74.0766C73.9986 3.30175 72.9586 2.45675 71.3856 2.45675C69.7996 2.45675 68.7726 3.35375 68.7726 4.44575C68.7726 7.09775 72.9846 6.17475 72.9846 7.76075C72.9846 8.34575 72.4646 8.81375 71.5286 8.81375C70.5276 8.81375 69.9166 8.29375 69.8516 7.60475H68.6296C68.7076 8.90475 69.8776 9.81475 71.5416 9.81475C73.1146 9.81475 74.1416 8.93075 74.1416 7.76075ZM75.3695 6.12275C75.3695 8.38475 76.8125 9.81475 78.8405 9.81475C80.6085 9.81475 81.7655 8.82675 82.1295 7.40975H80.8555C80.5955 8.30675 79.8935 8.81375 78.8405 8.81375C77.5405 8.81375 76.5785 7.89075 76.5785 6.12275C76.5785 4.38075 77.5405 3.45775 78.8405 3.45775C79.8935 3.45775 80.6085 4.00375 80.8555 4.86175H82.1295C81.7655 3.36675 80.6085 2.45675 78.8405 2.45675C76.8125 2.45675 75.3695 3.88675 75.3695 6.12275ZM83.266 6.10975C83.266 8.31975 84.735 9.81475 86.633 9.81475C87.946 9.81475 88.869 9.13875 89.298 8.37175V9.69775H90.494V2.57375H89.298V3.87375C88.882 3.13275 87.972 2.45675 86.646 2.45675C84.735 2.45675 83.266 3.88675 83.266 6.10975ZM89.298 6.12275C89.298 7.79975 88.18 8.77475 86.88 8.77475C85.58 8.77475 84.475 7.78675 84.475 6.10975C84.475 4.43275 85.58 3.48375 86.88 3.48375C88.18 3.48375 89.298 4.47175 89.298 6.12275ZM97.7062 9.69775H98.8762V5.49875C98.8762 3.45775 97.6152 2.44375 95.9642 2.44375C95.0022 2.44375 94.1442 2.84675 93.6762 3.58775V2.57375H92.4932V9.69775H93.6762V5.75875C93.6762 4.22475 94.5082 3.47075 95.7172 3.47075C96.9132 3.47075 97.7062 4.21175 97.7062 5.66775V9.69775ZM105.041 5.16075C105.041 2.93775 106.471 1.55975 108.382 1.55975C110.293 1.55975 111.723 2.93775 111.723 5.16075C111.723 7.37075 110.293 8.76175 108.382 8.76175C106.471 8.76175 105.041 7.37075 105.041 5.16075ZM112.932 5.16075C112.932 2.44375 110.943 0.532753 108.382 0.532753C105.834 0.532753 103.832 2.44375 103.832 5.16075C103.832 7.87775 105.834 9.78875 108.382 9.78875C108.85 9.78875 109.305 9.72375 109.734 9.60675L111.541 11.4138H113.075L110.787 9.13875C112.087 8.35875 112.932 6.92875 112.932 5.16075ZM119.369 3.30175C119.369 4.31575 118.784 5.04375 117.445 5.04375H115.703V1.61175H117.445C118.797 1.61175 119.369 2.27475 119.369 3.30175ZM114.52 0.636754V9.69775H115.703V5.99275H117.133L119.291 9.69775H120.708L118.433 5.90175C119.954 5.56375 120.591 4.45875 120.591 3.30175C120.591 1.81975 119.577 0.636754 117.445 0.636754H114.52ZM125.453 6.12275C125.453 8.38475 126.896 9.81475 128.924 9.81475C130.692 9.81475 131.849 8.82675 132.213 7.40975H130.939C130.679 8.30675 129.977 8.81375 128.924 8.81375C127.624 8.81375 126.662 7.89075 126.662 6.12275C126.662 4.38075 127.624 3.45775 128.924 3.45775C129.977 3.45775 130.692 4.00375 130.939 4.86175H132.213C131.849 3.36675 130.692 2.45675 128.924 2.45675C126.896 2.45675 125.453 3.88675 125.453 6.12275ZM140.551 6.12275C140.551 3.87375 138.978 2.45675 136.95 2.45675C134.935 2.45675 133.349 3.87375 133.349 6.12275C133.349 8.38475 134.883 9.81475 136.898 9.81475C138.926 9.81475 140.551 8.38475 140.551 6.12275ZM134.558 6.12275C134.558 4.32875 135.689 3.48375 136.937 3.48375C138.159 3.48375 139.342 4.32875 139.342 6.12275C139.342 7.92975 138.133 8.77475 136.898 8.77475C135.663 8.77475 134.558 7.92975 134.558 6.12275ZM141.664 6.10975C141.664 8.31975 143.133 9.81475 145.044 9.81475C146.344 9.81475 147.267 9.15175 147.696 8.35875V9.69775H148.892V0.0777538H147.696V3.84775C147.202 3.02875 146.175 2.45675 145.057 2.45675C143.133 2.45675 141.664 3.88675 141.664 6.10975ZM147.696 6.12275C147.696 7.79975 146.578 8.77475 145.278 8.77475C143.978 8.77475 142.873 7.78675 142.873 6.10975C142.873 4.43275 143.978 3.48375 145.278 3.48375C146.578 3.48375 147.696 4.47175 147.696 6.12275ZM153.921 3.45775C155.143 3.45775 156.183 4.22475 156.17 5.61575H151.672C151.802 4.22475 152.764 3.45775 153.921 3.45775ZM157.249 7.50075H155.975C155.715 8.26775 155.039 8.81375 153.973 8.81375C152.764 8.81375 151.75 8.02075 151.659 6.57775H157.353C157.379 6.33075 157.392 6.12275 157.392 5.86275C157.392 3.91275 156.04 2.45675 153.973 2.45675C151.893 2.45675 150.45 3.87375 150.45 6.12275C150.45 8.38475 151.945 9.81475 153.973 9.81475C155.741 9.81475 156.885 8.80075 157.249 7.50075Z" fill="#494B52"/>
</svg>
