<svg width="164" height="31" viewBox="0 0 164 31" fill="none" xmlns="http://www.w3.org/2000/svg">
<path d="M0.502848 7.12275C0.502848 9.38475 1.94585 10.8148 3.97385 10.8148C5.74185 10.8148 6.89885 9.82675 7.26285 8.40975H5.98885C5.72885 9.30675 5.02685 9.81375 3.97385 9.81375C2.67385 9.81375 1.71185 8.89075 1.71185 7.12275C1.71185 5.38075 2.67385 4.45775 3.97385 4.45775C5.02685 4.45775 5.74185 5.00375 5.98885 5.86175H7.26285C6.89885 4.36675 5.74185 3.45675 3.97385 3.45675C1.94585 3.45675 0.502848 4.88675 0.502848 7.12275ZM15.1593 3.57375H13.9763V7.48675C13.9763 9.02075 13.1573 9.77475 11.9353 9.77475C10.7393 9.77475 9.94633 9.03375 9.94633 7.59075V3.57375H8.77633V7.74675C8.77633 9.78775 10.0633 10.8018 11.7013 10.8018C12.6503 10.8018 13.5213 10.3858 13.9763 9.64475V10.6978H15.1593V3.57375ZM22.2788 8.76075C22.2268 6.21275 18.0928 7.13575 18.0928 5.44575C18.0928 4.87375 18.6128 4.45775 19.4838 4.45775C20.4328 4.45775 20.9788 4.97775 21.0308 5.69275H22.2138C22.1358 4.30175 21.0958 3.45675 19.5228 3.45675C17.9368 3.45675 16.9098 4.35375 16.9098 5.44575C16.9098 8.09775 21.1218 7.17475 21.1218 8.76075C21.1218 9.34575 20.6018 9.81375 19.6658 9.81375C18.6648 9.81375 18.0538 9.29375 17.9888 8.60475H16.7668C16.8448 9.90475 18.0148 10.8148 19.6788 10.8148C21.2518 10.8148 22.2788 9.93075 22.2788 8.76075ZM24.2088 8.74775C24.2088 10.1778 24.9238 10.6978 26.1848 10.6978H27.2508V9.69675H26.3798C25.6518 9.69675 25.3918 9.44975 25.3918 8.74775V4.54875H27.2508V3.57375H25.3918V1.77975H24.2088V3.57375H23.2858V4.54875H24.2088V8.74775ZM35.4441 7.12275C35.4441 4.87375 33.8711 3.45675 31.8431 3.45675C29.8281 3.45675 28.2421 4.87375 28.2421 7.12275C28.2421 9.38475 29.7761 10.8148 31.7911 10.8148C33.8191 10.8148 35.4441 9.38475 35.4441 7.12275ZM29.4511 7.12275C29.4511 5.32875 30.5821 4.48375 31.8301 4.48375C33.0521 4.48375 34.2351 5.32875 34.2351 7.12275C34.2351 8.92975 33.0261 9.77475 31.7911 9.77475C30.5561 9.77475 29.4511 8.92975 29.4511 7.12275ZM47.2825 10.6978H48.4525V6.49875C48.4525 4.45775 47.1915 3.44375 45.5665 3.44375C44.4745 3.44375 43.4605 4.00275 43.0445 5.02975C42.5765 3.96375 41.6015 3.44375 40.4315 3.44375C39.4955 3.44375 38.6505 3.84675 38.1825 4.60075V3.57375H36.9995V10.6978H38.1825V6.77175C38.1825 5.23775 39.0015 4.47075 40.1975 4.47075C41.3675 4.47075 42.1475 5.21175 42.1475 6.66775V10.6978H43.3175V6.77175C43.3175 5.23775 44.1365 4.47075 45.3325 4.47075C46.5025 4.47075 47.2825 5.21175 47.2825 6.66775V10.6978ZM53.4221 4.45775C54.6441 4.45775 55.6841 5.22475 55.6711 6.61575H51.1731C51.3031 5.22475 52.2651 4.45775 53.4221 4.45775ZM56.7501 8.50075H55.4761C55.2161 9.26775 54.5401 9.81375 53.4741 9.81375C52.2651 9.81375 51.2511 9.02075 51.1601 7.57775H56.8541C56.8801 7.33075 56.8931 7.12275 56.8931 6.86275C56.8931 4.91275 55.5411 3.45675 53.4741 3.45675C51.3941 3.45675 49.9511 4.87375 49.9511 7.12275C49.9511 9.38475 51.4461 10.8148 53.4741 10.8148C55.2421 10.8148 56.3861 9.80075 56.7501 8.50075ZM59.6376 6.82375C59.6376 5.17275 60.4956 4.66575 61.6266 4.66575H61.9386V3.44375C60.8076 3.44375 60.0406 3.93775 59.6376 4.73075V3.57375H58.4546V10.6978H59.6376V6.82375ZM68.161 10.6978H69.383L71.099 5.04275L72.815 10.6978H74.037L76.26 3.57375H75.09L73.478 9.56675L71.749 3.57375H70.54L68.772 9.55375L67.134 3.57375H65.925L68.161 10.6978ZM76.9921 7.10975C76.9921 9.31975 78.4611 10.8148 80.3591 10.8148C81.6721 10.8148 82.5951 10.1388 83.0241 9.37175V10.6978H84.2201V3.57375H83.0241V4.87375C82.6081 4.13275 81.6981 3.45675 80.3721 3.45675C78.4611 3.45675 76.9921 4.88675 76.9921 7.10975ZM83.0241 7.12275C83.0241 8.79975 81.9061 9.77475 80.6061 9.77475C79.3061 9.77475 78.2011 8.78675 78.2011 7.10975C78.2011 5.43275 79.3061 4.48375 80.6061 4.48375C81.9061 4.48375 83.0241 5.47175 83.0241 7.12275ZM91.4323 10.6978H92.6023V6.49875C92.6023 4.45775 91.3413 3.44375 89.6903 3.44375C88.7283 3.44375 87.8703 3.84675 87.4023 4.58775V3.57375H86.2193V10.6978H87.4023V6.75875C87.4023 5.22475 88.2343 4.47075 89.4433 4.47075C90.6393 4.47075 91.4323 5.21175 91.4323 6.66775V10.6978ZM94.7947 8.74775C94.7947 10.1778 95.5097 10.6978 96.7707 10.6978H97.8367V9.69675H96.9657C96.2377 9.69675 95.9777 9.44975 95.9777 8.74775V4.54875H97.8367V3.57375H95.9777V1.77975H94.7947V3.57375H93.8717V4.54875H94.7947V8.74775ZM102.996 8.74775C102.996 10.1778 103.711 10.6978 104.972 10.6978H106.038V9.69675H105.167C104.439 9.69675 104.179 9.44975 104.179 8.74775V4.54875H106.038V3.57375H104.179V1.77975H102.996V3.57375H102.073V4.54875H102.996V8.74775ZM114.231 7.12275C114.231 4.87375 112.658 3.45675 110.63 3.45675C108.615 3.45675 107.029 4.87375 107.029 7.12275C107.029 9.38475 108.563 10.8148 110.578 10.8148C112.606 10.8148 114.231 9.38475 114.231 7.12275ZM108.238 7.12275C108.238 5.32875 109.369 4.48375 110.617 4.48375C111.839 4.48375 113.022 5.32875 113.022 7.12275C113.022 8.92975 111.813 9.77475 110.578 9.77475C109.343 9.77475 108.238 8.92975 108.238 7.12275ZM120.435 4.88675V3.57375H119.252V14.0778H120.435V9.38475C120.877 10.1128 121.8 10.8148 123.1 10.8148C125.011 10.8148 126.48 9.31975 126.48 7.10975C126.48 4.88675 125.011 3.45675 123.1 3.45675C121.8 3.45675 120.864 4.13275 120.435 4.88675ZM125.271 7.10975C125.271 8.78675 124.166 9.77475 122.853 9.77475C121.566 9.77475 120.435 8.79975 120.435 7.12275C120.435 5.47175 121.566 4.48375 122.853 4.48375C124.166 4.48375 125.271 5.43275 125.271 7.10975ZM127.596 7.10975C127.596 9.31975 129.065 10.8148 130.963 10.8148C132.276 10.8148 133.199 10.1388 133.628 9.37175V10.6978H134.824V3.57375H133.628V4.87375C133.212 4.13275 132.302 3.45675 130.976 3.45675C129.065 3.45675 127.596 4.88675 127.596 7.10975ZM133.628 7.12275C133.628 8.79975 132.51 9.77475 131.21 9.77475C129.91 9.77475 128.805 8.78675 128.805 7.10975C128.805 5.43275 129.91 4.48375 131.21 4.48375C132.51 4.48375 133.628 5.47175 133.628 7.12275ZM139.527 9.34575L137.291 3.57375H135.978L138.851 10.6198L137.447 14.0518H138.669L142.959 3.57375H141.737L139.527 9.34575ZM147.835 10.6978H149.018V4.54875H150.513V3.57375H149.018V3.06675C149.018 2.14375 149.369 1.75375 150.435 1.75375V0.765753C148.615 0.765753 147.835 1.48075 147.835 3.06675V3.57375H146.912V4.54875H147.835V10.6978ZM158.652 7.12275C158.652 4.87375 157.079 3.45675 155.051 3.45675C153.036 3.45675 151.45 4.87375 151.45 7.12275C151.45 9.38475 152.984 10.8148 154.999 10.8148C157.027 10.8148 158.652 9.38475 158.652 7.12275ZM152.659 7.12275C152.659 5.32875 153.79 4.48375 155.038 4.48375C156.26 4.48375 157.443 5.32875 157.443 7.12275C157.443 8.92975 156.234 9.77475 154.999 9.77475C153.764 9.77475 152.659 8.92975 152.659 7.12275ZM161.391 6.82375C161.391 5.17275 162.249 4.66575 163.38 4.66575H163.692V3.44375C162.561 3.44375 161.794 3.93775 161.391 4.73075V3.57375H160.208V10.6978H161.391V6.82375ZM58.0674 30.6978H59.2504V26.7588C59.2504 25.2248 60.0824 24.4708 61.2914 24.4708C62.4874 24.4708 63.2804 25.2118 63.2804 26.6678V30.6978H64.4504V26.4988C64.4504 24.4578 63.1894 23.4438 61.6034 23.4438C60.6024 23.4438 59.7184 23.8468 59.2504 24.6008V21.0778H58.0674V30.6978ZM69.4118 24.4578C70.6338 24.4578 71.6738 25.2248 71.6608 26.6158H67.1628C67.2928 25.2248 68.2548 24.4578 69.4118 24.4578ZM72.7398 28.5008H71.4658C71.2058 29.2678 70.5298 29.8138 69.4638 29.8138C68.2548 29.8138 67.2408 29.0208 67.1498 27.5778H72.8438C72.8698 27.3308 72.8828 27.1228 72.8828 26.8628C72.8828 24.9128 71.5308 23.4568 69.4638 23.4568C67.3838 23.4568 65.9408 24.8738 65.9408 27.1228C65.9408 29.3848 67.4358 30.8148 69.4638 30.8148C71.2318 30.8148 72.3758 29.8008 72.7398 28.5008ZM75.6274 26.8238C75.6274 25.1728 76.4854 24.6658 77.6164 24.6658H77.9284V23.4438C76.7974 23.4438 76.0304 23.9378 75.6274 24.7308V23.5738H74.4444V30.6978H75.6274V26.8238ZM83.9428 24.8998V21.0778H82.7598V30.6978H83.9428V29.3848C84.3848 30.1648 85.3078 30.8148 86.6078 30.8148C88.5188 30.8148 89.9878 29.3198 89.9878 27.1098C89.9878 24.8868 88.5318 23.4568 86.6078 23.4568C85.3468 23.4568 84.3978 24.1068 83.9428 24.8998ZM88.7788 27.1098C88.7788 28.7868 87.6738 29.7748 86.3608 29.7748C85.0738 29.7748 83.9428 28.7998 83.9428 27.1228C83.9428 25.4718 85.0738 24.4838 86.3608 24.4838C87.6738 24.4838 88.7788 25.4328 88.7788 27.1098ZM91.5449 30.6978H92.7279V23.5738H91.5449V30.6978ZM92.1559 22.4168C92.5849 22.4168 92.9359 22.0658 92.9359 21.6108C92.9359 21.1558 92.5849 20.8048 92.1559 20.8048C91.7009 20.8048 91.3499 21.1558 91.3499 21.6108C91.3499 22.0658 91.7009 22.4168 92.1559 22.4168ZM94.7442 30.6978H95.9272V21.0778H94.7442V30.6978ZM97.9434 30.6978H99.1264V21.0778H97.9434V30.6978ZM106.265 28.7608C106.213 26.2128 102.079 27.1358 102.079 25.4458C102.079 24.8738 102.599 24.4578 103.47 24.4578C104.419 24.4578 104.965 24.9778 105.017 25.6928H106.2C106.122 24.3018 105.082 23.4568 103.509 23.4568C101.923 23.4568 100.896 24.3538 100.896 25.4458C100.896 28.0978 105.108 27.1748 105.108 28.7608C105.108 29.3458 104.588 29.8138 103.652 29.8138C102.651 29.8138 102.04 29.2938 101.975 28.6048H100.753C100.831 29.9048 102.001 30.8148 103.665 30.8148C105.238 30.8148 106.265 29.9308 106.265 28.7608Z" fill="#494B52"/>
</svg>
