<svg width="182" height="15" viewBox="0 0 182 15" fill="none" xmlns="http://www.w3.org/2000/svg">
<path d="M0.0855547 2.59875H2.56855V10.6978H3.75155V2.59875H6.22156V1.63675H0.0855547V2.59875ZM8.86076 6.82375C8.86076 5.17275 9.71876 4.66575 10.8498 4.66575H11.1618V3.44375C10.0308 3.44375 9.26376 3.93775 8.86076 4.73075V3.57375H7.67776V10.6978H8.86076V6.82375ZM12.0854 7.10975C12.0854 9.31975 13.5544 10.8148 15.4524 10.8148C16.7654 10.8148 17.6884 10.1388 18.1174 9.37175V10.6978H19.3134V3.57375H18.1174V4.87375C17.7014 4.13275 16.7914 3.45675 15.4654 3.45675C13.5544 3.45675 12.0854 4.88675 12.0854 7.10975ZM18.1174 7.12275C18.1174 8.79975 16.9994 9.77475 15.6994 9.77475C14.3994 9.77475 13.2944 8.78675 13.2944 7.10975C13.2944 5.43275 14.3994 4.48375 15.6994 4.48375C16.9994 4.48375 18.1174 5.47175 18.1174 7.12275ZM26.5255 10.6978H27.6955V6.49875C27.6955 4.45775 26.4345 3.44375 24.7835 3.44375C23.8215 3.44375 22.9635 3.84675 22.4955 4.58775V3.57375H21.3125V10.6978H22.4955V6.75875C22.4955 5.22475 23.3275 4.47075 24.5365 4.47075C25.7325 4.47075 26.5255 5.21175 26.5255 6.66775V10.6978ZM34.75 8.76075C34.698 6.21275 30.564 7.13575 30.564 5.44575C30.564 4.87375 31.084 4.45775 31.955 4.45775C32.904 4.45775 33.45 4.97775 33.502 5.69275H34.685C34.607 4.30175 33.567 3.45675 31.994 3.45675C30.408 3.45675 29.381 4.35375 29.381 5.44575C29.381 8.09775 33.593 7.17475 33.593 8.76075C33.593 9.34575 33.073 9.81375 32.137 9.81375C31.136 9.81375 30.525 9.29375 30.46 8.60475H29.238C29.316 9.90475 30.486 10.8148 32.15 10.8148C33.723 10.8148 34.75 9.93075 34.75 8.76075ZM35.9779 7.10975C35.9779 9.31975 37.4469 10.8148 39.3449 10.8148C40.6579 10.8148 41.5809 10.1388 42.0099 9.37175V10.6978H43.2059V3.57375H42.0099V4.87375C41.5939 4.13275 40.6839 3.45675 39.3579 3.45675C37.4469 3.45675 35.9779 4.88675 35.9779 7.10975ZM42.0099 7.12275C42.0099 8.79975 40.8919 9.77475 39.5919 9.77475C38.2919 9.77475 37.1869 8.78675 37.1869 7.10975C37.1869 5.43275 38.2919 4.48375 39.5919 4.48375C40.8919 4.48375 42.0099 5.47175 42.0099 7.12275ZM44.7631 7.12275C44.7631 9.38475 46.2061 10.8148 48.2341 10.8148C50.0021 10.8148 51.1591 9.82675 51.5231 8.40975H50.2491C49.9891 9.30675 49.2871 9.81375 48.2341 9.81375C46.9341 9.81375 45.9721 8.89075 45.9721 7.12275C45.9721 5.38075 46.9341 4.45775 48.2341 4.45775C49.2871 4.45775 50.0021 5.00375 50.2491 5.86175H51.5231C51.1591 4.36675 50.0021 3.45675 48.2341 3.45675C46.2061 3.45675 44.7631 4.88675 44.7631 7.12275ZM53.3616 8.74775C53.3616 10.1778 54.0766 10.6978 55.3376 10.6978H56.4036V9.69675H55.5326C54.8046 9.69675 54.5446 9.44975 54.5446 8.74775V4.54875H56.4036V3.57375H54.5446V1.77975H53.3616V3.57375H52.4386V4.54875H53.3616V8.74775ZM57.8369 10.6978H59.0199V3.57375H57.8369V10.6978ZM58.4479 2.41675C58.8769 2.41675 59.2279 2.06575 59.2279 1.61075C59.2279 1.15575 58.8769 0.804753 58.4479 0.804753C57.9929 0.804753 57.6419 1.15575 57.6419 1.61075C57.6419 2.06575 57.9929 2.41675 58.4479 2.41675ZM67.7962 7.12275C67.7962 4.87375 66.2232 3.45675 64.1952 3.45675C62.1802 3.45675 60.5942 4.87375 60.5942 7.12275C60.5942 9.38475 62.1282 10.8148 64.1432 10.8148C66.1712 10.8148 67.7962 9.38475 67.7962 7.12275ZM61.8032 7.12275C61.8032 5.32875 62.9342 4.48375 64.1822 4.48375C65.4042 4.48375 66.5872 5.32875 66.5872 7.12275C66.5872 8.92975 65.3782 9.77475 64.1432 9.77475C62.9082 9.77475 61.8032 8.92975 61.8032 7.12275ZM74.5646 10.6978H75.7346V6.49875C75.7346 4.45775 74.4736 3.44375 72.8226 3.44375C71.8606 3.44375 71.0026 3.84675 70.5346 4.58775V3.57375H69.3516V10.6978H70.5346V6.75875C70.5346 5.22475 71.3666 4.47075 72.5756 4.47075C73.7716 4.47075 74.5646 5.21175 74.5646 6.66775V10.6978ZM86.2548 8.76075C86.2028 6.21275 82.0688 7.13575 82.0688 5.44575C82.0688 4.87375 82.5888 4.45775 83.4598 4.45775C84.4088 4.45775 84.9548 4.97775 85.0068 5.69275H86.1898C86.1118 4.30175 85.0718 3.45675 83.4988 3.45675C81.9128 3.45675 80.8858 4.35375 80.8858 5.44575C80.8858 8.09775 85.0978 7.17475 85.0978 8.76075C85.0978 9.34575 84.5778 9.81375 83.6418 9.81375C82.6408 9.81375 82.0298 9.29375 81.9648 8.60475H80.7428C80.8208 9.90475 81.9908 10.8148 83.6548 10.8148C85.2278 10.8148 86.2548 9.93075 86.2548 8.76075ZM94.2428 3.57375H93.0598V7.48675C93.0598 9.02075 92.2408 9.77475 91.0188 9.77475C89.8228 9.77475 89.0298 9.03375 89.0298 7.59075V3.57375H87.8598V7.74675C87.8598 9.78775 89.1468 10.8018 90.7848 10.8018C91.7338 10.8018 92.6048 10.3858 93.0598 9.64475V10.6978H94.2428V3.57375ZM95.7983 7.12275C95.7983 9.38475 97.2413 10.8148 99.2693 10.8148C101.037 10.8148 102.194 9.82675 102.558 8.40975H101.284C101.024 9.30675 100.322 9.81375 99.2693 9.81375C97.9693 9.81375 97.0073 8.89075 97.0073 7.12275C97.0073 5.38075 97.9693 4.45775 99.2693 4.45775C100.322 4.45775 101.037 5.00375 101.284 5.86175H102.558C102.194 4.36675 101.037 3.45675 99.2693 3.45675C97.2413 3.45675 95.7983 4.88675 95.7983 7.12275ZM103.695 7.12275C103.695 9.38475 105.138 10.8148 107.166 10.8148C108.934 10.8148 110.091 9.82675 110.455 8.40975H109.181C108.921 9.30675 108.219 9.81375 107.166 9.81375C105.866 9.81375 104.904 8.89075 104.904 7.12275C104.904 5.38075 105.866 4.45775 107.166 4.45775C108.219 4.45775 108.934 5.00375 109.181 5.86175H110.455C110.091 4.36675 108.934 3.45675 107.166 3.45675C105.138 3.45675 103.695 4.88675 103.695 7.12275ZM115.062 4.45775C116.284 4.45775 117.324 5.22475 117.311 6.61575H112.813C112.943 5.22475 113.905 4.45775 115.062 4.45775ZM118.39 8.50075H117.116C116.856 9.26775 116.18 9.81375 115.114 9.81375C113.905 9.81375 112.891 9.02075 112.8 7.57775H118.494C118.52 7.33075 118.533 7.12275 118.533 6.86275C118.533 4.91275 117.181 3.45675 115.114 3.45675C113.034 3.45675 111.591 4.87375 111.591 7.12275C111.591 9.38475 113.086 10.8148 115.114 10.8148C116.882 10.8148 118.026 9.80075 118.39 8.50075ZM120.316 10.6978H121.499V4.54875H122.994V3.57375H121.499V3.06675C121.499 2.14375 121.85 1.75375 122.916 1.75375V0.765753C121.096 0.765753 120.316 1.48075 120.316 3.06675V3.57375H119.393V4.54875H120.316V10.6978ZM130.691 3.57375H129.508V7.48675C129.508 9.02075 128.689 9.77475 127.467 9.77475C126.271 9.77475 125.478 9.03375 125.478 7.59075V3.57375H124.308V7.74675C124.308 9.78775 125.595 10.8018 127.233 10.8018C128.182 10.8018 129.053 10.3858 129.508 9.64475V10.6978H130.691V3.57375ZM132.689 10.6978H133.872V1.07775H132.689V10.6978ZM135.888 10.6978H137.071V1.07775H135.888V10.6978ZM141.791 9.34575L139.555 3.57375H138.242L141.115 10.6198L139.711 14.0518H140.933L145.223 3.57375H144.001L141.791 9.34575ZM149.436 7.10975C149.436 9.31975 150.905 10.8148 152.816 10.8148C154.116 10.8148 155.039 10.1518 155.468 9.35875V10.6978H156.664V1.07775H155.468V4.84775C154.974 4.02875 153.947 3.45675 152.829 3.45675C150.905 3.45675 149.436 4.88675 149.436 7.10975ZM155.468 7.12275C155.468 8.79975 154.35 9.77475 153.05 9.77475C151.75 9.77475 150.645 8.78675 150.645 7.10975C150.645 5.43275 151.75 4.48375 153.05 4.48375C154.35 4.48375 155.468 5.47175 155.468 7.12275ZM165.423 7.12275C165.423 4.87375 163.85 3.45675 161.822 3.45675C159.807 3.45675 158.221 4.87375 158.221 7.12275C158.221 9.38475 159.755 10.8148 161.77 10.8148C163.798 10.8148 165.423 9.38475 165.423 7.12275ZM159.43 7.12275C159.43 5.32875 160.561 4.48375 161.809 4.48375C163.031 4.48375 164.214 5.32875 164.214 7.12275C164.214 8.92975 163.005 9.77475 161.77 9.77475C160.535 9.77475 159.43 8.92975 159.43 7.12275ZM172.192 10.6978H173.362V6.49875C173.362 4.45775 172.101 3.44375 170.45 3.44375C169.488 3.44375 168.63 3.84675 168.162 4.58775V3.57375H166.979V10.6978H168.162V6.75875C168.162 5.22475 168.994 4.47075 170.203 4.47075C171.399 4.47075 172.192 5.21175 172.192 6.66775V10.6978ZM178.323 4.45775C179.545 4.45775 180.585 5.22475 180.572 6.61575H176.074C176.204 5.22475 177.166 4.45775 178.323 4.45775ZM181.651 8.50075H180.377C180.117 9.26775 179.441 9.81375 178.375 9.81375C177.166 9.81375 176.152 9.02075 176.061 7.57775H181.755C181.781 7.33075 181.794 7.12275 181.794 6.86275C181.794 4.91275 180.442 3.45675 178.375 3.45675C176.295 3.45675 174.852 4.87375 174.852 7.12275C174.852 9.38475 176.347 10.8148 178.375 10.8148C180.143 10.8148 181.287 9.80075 181.651 8.50075Z" fill="#494B52"/>
</svg>
