<svg width="220" height="234" viewBox="0 0 220 234" fill="none" xmlns="http://www.w3.org/2000/svg">
<path d="M210.214 209.015C206.398 216.589 202.028 221.114 197.282 223.476C189.995 227.139 181.808 225.732 173.344 222.567C173.086 222.481 172.837 222.385 172.579 222.289C171.431 221.84 170.274 221.37 169.107 220.874C155.823 215.222 142.108 206.71 130.249 207.858C124.826 208.383 118.916 210.631 112.575 213.596C106.904 216.255 100.869 219.497 94.5282 222.605C93.3991 223.16 92.2615 223.705 91.1147 224.25C88.1881 225.629 85.1947 226.948 82.1343 228.152C64.9869 234.905 45.8878 237.888 25.3504 225.322C11.0238 216.551 -17.7253 166.733 15.1555 117.508C51.6896 62.7928 149.25 63.6541 177.483 79.2044C227.458 106.73 226.061 177.577 210.214 209.015Z" fill="#D6DCFD"/>
<path d="M113.035 165.071C143.372 165.071 167.965 140.478 167.965 110.141C167.965 79.8034 143.372 55.2103 113.035 55.2103C82.6976 55.2103 58.1045 79.8034 58.1045 110.141C58.1045 140.478 82.6976 165.071 113.035 165.071Z" fill="#7A67D3"/>
<path d="M144.848 29.3358H81.2213C77.0211 29.3358 73.6162 32.7407 73.6162 36.9409V169.141C73.6162 173.341 77.0211 176.746 81.2213 176.746H144.848C149.048 176.746 152.453 173.341 152.453 169.141V36.9409C152.453 32.7407 149.048 29.3358 144.848 29.3358Z" fill="black"/>
<path d="M130.008 34.5865V36.5941C130.008 36.985 129.931 37.372 129.782 37.7331C129.632 38.0942 129.413 38.4224 129.137 38.6989C128.861 38.9754 128.533 39.1948 128.172 39.3445C127.811 39.4942 127.424 39.5714 127.033 39.5716H99.039C98.6481 39.5715 98.2612 39.4944 97.9001 39.3447C97.539 39.195 97.2109 38.9756 96.9346 38.6991C96.6584 38.4227 96.4392 38.0945 96.2897 37.7333C96.1403 37.3721 96.0636 36.985 96.0638 36.5941V34.5865C96.0639 34.4593 96.0389 34.3332 95.9903 34.2156C95.9417 34.098 95.8703 33.9911 95.7804 33.9011C95.6905 33.811 95.5837 33.7396 95.4662 33.6908C95.3486 33.642 95.2227 33.6168 95.0954 33.6167H83.5171C82.8272 33.617 82.1442 33.7532 81.5069 34.0175C80.8696 34.2817 80.2905 34.669 79.8029 35.157C79.3152 35.6451 78.9284 36.2244 78.6647 36.8619C78.4009 37.4994 78.2653 38.1827 78.2656 38.8726V167.209C78.2653 167.899 78.4009 168.582 78.6647 169.219C78.9284 169.857 79.3152 170.436 79.8029 170.924C80.2905 171.412 80.8696 171.799 81.5069 172.064C82.1442 172.328 82.8272 172.464 83.5171 172.465H142.551C143.241 172.464 143.924 172.328 144.561 172.064C145.199 171.799 145.778 171.412 146.265 170.924C146.753 170.436 147.14 169.857 147.403 169.219C147.667 168.582 147.802 167.899 147.802 167.209V38.8726C147.802 38.1827 147.667 37.4995 147.403 36.862C147.14 36.2245 146.753 35.6451 146.265 35.1571C145.778 34.669 145.199 34.2817 144.561 34.0175C143.924 33.7532 143.241 33.617 142.551 33.6167H130.973C130.717 33.6176 130.471 33.7203 130.29 33.9021C130.109 34.0839 130.007 34.33 130.008 34.5865Z" fill="white"/>
<path d="M149.672 157.8H76.9541V172.954H149.672V157.8Z" fill="black"/>
<path d="M114.117 171.808C117.157 171.808 119.622 169.341 119.622 166.297C119.622 163.254 117.157 160.787 114.117 160.787C111.076 160.787 108.611 163.254 108.611 166.297C108.611 169.341 111.076 171.808 114.117 171.808Z" fill="#545454"/>
<path d="M118.246 166.298C118.246 166.841 118.14 167.378 117.932 167.879C117.725 168.38 117.421 168.836 117.038 169.22C116.654 169.604 116.199 169.908 115.698 170.116C115.197 170.324 114.659 170.431 114.117 170.431C113.575 170.431 113.037 170.324 112.536 170.116C112.035 169.908 111.58 169.604 111.197 169.22C110.813 168.836 110.509 168.38 110.302 167.879C110.094 167.378 109.988 166.841 109.988 166.298C109.988 165.756 110.094 165.218 110.302 164.717C110.509 164.216 110.813 163.76 111.197 163.376C111.58 162.993 112.035 162.688 112.536 162.48C113.037 162.272 113.575 162.165 114.117 162.165C114.659 162.165 115.197 162.272 115.698 162.48C116.199 162.688 116.654 162.993 117.038 163.376C117.421 163.76 117.725 164.216 117.932 164.717C118.14 165.218 118.246 165.756 118.246 166.298Z" fill="#737373"/>
<path d="M119.227 34.7284H102.253C101.746 34.7284 101.335 35.1396 101.335 35.6468C101.335 36.154 101.746 36.5652 102.253 36.5652H119.227C119.734 36.5652 120.145 36.154 120.145 35.6468C120.145 35.1396 119.734 34.7284 119.227 34.7284Z" fill="#A4A5A4"/>
<path d="M124.735 35.647C124.735 35.8277 124.699 36.0067 124.63 36.1738C124.561 36.3408 124.46 36.4926 124.332 36.6205C124.204 36.7484 124.053 36.8499 123.886 36.9191C123.719 36.9884 123.54 37.0241 123.359 37.0242C123.178 37.0242 122.999 36.9885 122.832 36.9193C122.665 36.8501 122.513 36.7487 122.385 36.6208C122.257 36.4929 122.156 36.341 122.087 36.174C122.018 36.0069 121.982 35.8278 121.982 35.647C121.982 35.4661 122.018 35.287 122.087 35.1199C122.156 34.9528 122.257 34.8009 122.385 34.6729C122.513 34.545 122.665 34.4434 122.832 34.3741C122.999 34.3048 123.178 34.2691 123.359 34.269C123.724 34.2694 124.074 34.4148 124.332 34.6732C124.59 34.9315 124.735 35.2818 124.735 35.647Z" fill="#A4A5A4"/>
<path d="M132.668 128.077H91.2202C87.2288 128.077 83.9932 131.313 83.9932 135.304V135.31C83.9932 139.302 87.2288 142.537 91.2202 142.537H132.668C136.66 142.537 139.895 139.302 139.895 135.31V135.304C139.895 131.313 136.66 128.077 132.668 128.077Z" fill="#6654A4"/>
<path d="M104.235 136.607L105.001 136.533C105.047 136.79 105.14 136.978 105.28 137.099C105.422 137.219 105.612 137.28 105.851 137.28C106.105 137.28 106.295 137.226 106.423 137.12C106.552 137.012 106.617 136.886 106.617 136.743C106.617 136.651 106.589 136.573 106.535 136.509C106.481 136.443 106.387 136.387 106.253 136.339C106.161 136.307 105.951 136.25 105.623 136.169C105.201 136.064 104.905 135.936 104.735 135.783C104.496 135.569 104.376 135.307 104.376 134.999C104.376 134.801 104.432 134.615 104.544 134.444C104.657 134.27 104.819 134.138 105.03 134.048C105.243 133.957 105.499 133.912 105.798 133.912C106.287 133.912 106.655 134.019 106.901 134.234C107.149 134.448 107.28 134.734 107.292 135.092L106.505 135.127C106.472 134.926 106.399 134.783 106.287 134.696C106.177 134.607 106.012 134.563 105.79 134.563C105.562 134.563 105.383 134.61 105.253 134.704C105.17 134.764 105.128 134.845 105.128 134.946C105.128 135.038 105.167 135.117 105.245 135.183C105.345 135.266 105.586 135.353 105.968 135.443C106.351 135.533 106.634 135.627 106.816 135.725C107.001 135.82 107.144 135.952 107.247 136.121C107.351 136.287 107.404 136.494 107.404 136.74C107.404 136.963 107.342 137.172 107.218 137.367C107.094 137.562 106.918 137.708 106.691 137.803C106.465 137.897 106.182 137.944 105.843 137.944C105.351 137.944 104.973 137.831 104.708 137.604C104.444 137.375 104.287 137.043 104.235 136.607Z" fill="white"/>
<path d="M110.559 136.442L111.322 136.684C111.205 137.11 111.01 137.426 110.737 137.633C110.466 137.839 110.121 137.941 109.703 137.941C109.185 137.941 108.76 137.765 108.427 137.413C108.094 137.058 107.927 136.574 107.927 135.961C107.927 135.313 108.095 134.81 108.43 134.452C108.765 134.092 109.205 133.912 109.751 133.912C110.227 133.912 110.615 134.053 110.912 134.335C111.089 134.501 111.222 134.74 111.311 135.052L110.532 135.238C110.486 135.036 110.389 134.877 110.242 134.76C110.097 134.643 109.92 134.584 109.711 134.584C109.422 134.584 109.187 134.688 109.006 134.895C108.827 135.103 108.738 135.439 108.738 135.903C108.738 136.395 108.827 136.746 109.004 136.955C109.181 137.164 109.411 137.269 109.695 137.269C109.904 137.269 110.084 137.203 110.234 137.07C110.385 136.937 110.493 136.728 110.559 136.442Z" fill="white"/>
<path d="M115.513 137.875H114.657L114.317 136.99H112.76L112.438 137.875H111.603L113.121 133.978H113.953L115.513 137.875ZM114.065 136.333L113.528 134.887L113.001 136.333H114.065Z" fill="white"/>
<path d="M115.941 137.875V133.978H116.707L118.301 136.581V133.978H119.032V137.875H118.243L116.672 135.334V137.875H115.941Z" fill="white"/>
<path d="M131.261 109.515H123.299V111.498H121.391V109.537H119.422C119.422 108.831 119.422 108.187 119.422 107.541H121.358V105.639H119.349C119.379 106.301 119.407 106.926 119.435 107.556H115.392V109.513H117.327V111.507H113.457V107.544H111.448V109.519H109.442L109.454 109.533V107.509H107.43L107.444 107.523V105.594H115.369V103.592H119.344V97.639H117.419C117.39 96.9958 117.361 96.3526 117.333 95.6936H113.487V97.629H117.431C117.395 98.2723 117.36 98.9076 117.321 99.5987H113.476V101.6H111.428V95.645H109.408V93.6896H107.446V97.6805H105.521V99.5887L105.539 99.5723H103.547C103.547 98.2494 103.547 96.9694 103.547 95.6894H105.483V93.6882H103.56V95.7058C102.356 95.6922 101.153 95.6758 99.9482 95.6665C99.1799 95.6607 98.4123 95.6665 97.5826 95.6665V93.6496H95.5772L95.5885 93.6639V91.6399L95.5742 91.6541L99.5101 91.6377V93.6196H101.506V91.6399H107.438V89.628H115.389V93.621H119.391V91.6406H121.358V89.6444H119.394C119.394 89.0031 119.394 88.362 119.394 87.7212H121.358V85.7243H119.391V83.7475H115.389V87.7276H111.469V83.6889H113.463V81.6877H115.374V79.7759H117.399V81.6555H121.415V77.7676L121.403 77.7826H123.287V81.7241H125.359L125.344 81.707V83.6874H123.332V85.7079H131.207V87.709H129.333V91.5984C128.652 91.5984 124.006 91.6163 123.337 91.6163V93.6432H131.208V95.6343H129.366V99.6152H131.295L131.284 99.6016C131.268 100.703 131.252 101.805 131.235 102.906C131.235 103.12 131.235 103.334 131.235 103.587H129.361V107.525H131.265L131.248 107.508V109.532L131.261 109.515ZM127.285 95.6879H121.417V101.548H127.285V95.6879ZM127.285 107.496V103.628H125.284V105.619H123.325V107.496H127.285ZM113.42 91.6684H111.468V93.6124H113.42V91.6684Z" fill="black"/>
<path d="M101.461 75.7459H87.6553V61.9272H101.461V75.7459ZM99.4785 73.7712V63.9191H89.647V73.7712H99.4785Z" fill="black"/>
<path d="M123.404 75.745V61.927H137.198V75.7414L123.404 75.745ZM125.372 63.9117V73.7703H135.23V63.9117H125.372Z" fill="black"/>
<path d="M87.6426 111.465V97.6924H101.458V111.465H87.6426ZM89.6523 99.6228V109.496H99.4859V99.6228H89.6523Z" fill="black"/>
<path d="M131.289 99.6184C131.261 98.9902 131.233 98.3613 131.204 97.6887H135.206V93.6721H133.259V91.6474H131.252V89.6362H133.23V85.7468H137.232V87.713H135.274V89.6227H137.231V99.6034H131.278L131.289 99.6184Z" fill="black"/>
<path d="M93.5808 91.6478V89.6666H89.6458V95.6179H87.6553V85.7208H91.5725L91.5547 85.7043V87.6833H93.5787V85.7043L93.5644 85.7186H97.5417V89.6409H95.5742V91.6471L95.5885 91.6327H93.5644L93.5808 91.6478Z" fill="black"/>
<path d="M91.5702 81.6819L89.6848 81.7212L89.6971 81.7312C89.6627 81.1037 89.6292 80.4769 89.592 79.7901H87.6465V77.809H97.5587V79.7937H99.5077L99.4905 79.778V81.7012H103.524L103.509 81.6869V83.6666H95.5439V81.6869H93.5621L93.5764 81.7012V79.8208H91.5524V81.7005L91.5702 81.6819Z" fill="black"/>
<path d="M109.455 73.7619V71.8608H117.393V67.8178L117.377 67.8328H119.401V65.8087L119.389 65.8237H121.355V71.82H119.386V73.7597L119.401 73.7469H117.361V75.7709H115.37V73.7905H113.475V75.7716L111.448 75.7559L111.463 75.7702V73.7462H109.438L109.455 73.7619Z" fill="black"/>
<path d="M99.5085 79.795V77.7938H105.537V75.7577L105.52 75.7734H107.444V73.7494L107.432 73.7637H109.455L109.438 73.7487V75.7727H111.462L111.448 75.7584L111.465 79.7928H109.441V77.8138H107.446V79.795H105.504V81.6889H103.51L103.524 81.7032V79.78H99.4912L99.5085 79.795Z" fill="black"/>
<path d="M109.441 109.517V111.499H103.526V101.592H105.537L105.519 101.576V107.524H107.442L107.428 107.51V109.534H109.452L109.441 109.517Z" fill="black"/>
<path d="M113.496 63.8781H115.33V61.9398H121.345V63.8995H119.386V65.8249L119.397 65.8099H117.373V67.8339L117.389 67.8189H115.36V65.8471H113.495L113.507 65.8571V63.8688L113.496 63.8781Z" fill="black"/>
<path d="M105.533 75.7569H103.519V71.8575H105.475V69.8564H103.523V67.8702H109.389V69.8342H107.428V73.7651L107.44 73.7508H105.516V75.7748L105.533 75.7569Z" fill="black"/>
<path d="M135.262 107.509V109.517H137.23V111.496H131.26V109.515L131.242 109.532H133.266V107.508L133.251 107.523H135.275L135.262 107.509Z" fill="black"/>
<path d="M129.368 79.8099C129.351 80.7757 129.335 81.741 129.319 82.7058C129.315 83.0189 129.319 83.3319 129.319 83.6728H127.329V81.7081H125.339L125.355 81.726C125.355 80.4288 125.355 79.1316 125.355 77.8037H127.284V79.8227H129.376L129.368 79.8099Z" fill="black"/>
<path d="M133.265 105.615V103.634H137.224V107.509H135.259L135.273 107.523V105.6H133.249L133.265 105.615Z" fill="black"/>
<path d="M113.5 65.8459C113.482 66.7443 113.462 67.6427 113.447 68.5411C113.441 68.9549 113.447 72.9007 113.447 73.3374H111.476V65.8574H113.513L113.5 65.8459Z" fill="black"/>
<path d="M119.386 73.7604H121.398V77.7813L121.409 77.7663L119.386 77.7799L119.4 73.7476L119.386 73.7604Z" fill="black"/>
<path d="M91.5725 85.7214V81.6833L91.5547 81.6998H93.5787L93.5644 81.6855V85.7185L93.5787 85.7042H91.5547L91.5725 85.7214Z" fill="black"/>
<path d="M107.427 65.7756V61.9398H109.391V65.7756H107.427Z" fill="black"/>
<path d="M135.309 79.743H133.279V77.8069H135.298V79.7559L135.309 79.743Z" fill="black"/>
<path d="M113.51 63.869H111.476V61.9329H113.496C113.496 62.5947 113.496 63.2372 113.496 63.879L113.51 63.869Z" fill="black"/>
<path d="M95.575 93.6415V95.6197H93.5789V93.64L93.5625 93.655H95.5865L95.575 93.6415Z" fill="black"/>
<path d="M131.271 81.7089H133.201V83.6721H131.271V81.7089Z" fill="black"/>
<path d="M89.6846 81.7236C89.656 82.3669 89.6274 83.0101 89.5974 83.6769H87.6592V81.7322H89.6961L89.6846 81.7236Z" fill="black"/>
<path d="M93.5781 93.6415H91.5684V91.6482H93.5781L93.5617 91.6332V93.6565L93.5781 93.6415Z" fill="black"/>
<path d="M129.379 79.8251V77.809H131.201V79.8101H129.366L129.379 79.8251Z" fill="black"/>
<path d="M131.258 107.524V105.614H133.264L133.248 105.599V107.524L133.262 107.51H131.238L131.258 107.524Z" fill="black"/>
<path d="M105.473 65.7925H103.531V63.9343H105.473V65.7925Z" fill="black"/>
<path d="M105.534 101.592V99.5641L105.517 99.5805L107.442 99.5655L107.462 101.556L107.473 101.543L105.517 101.576L105.534 101.592Z" fill="black"/>
<path d="M135.299 79.7562H137.228V81.6659H135.312C135.312 81.0226 135.312 80.3837 135.312 79.744L135.299 79.7562Z" fill="black"/>
<path d="M103.518 87.7235H99.5205V85.7452H109.4V87.7006H105.527V89.5974H103.518V87.7235Z" fill="black"/>
<path d="M107.427 79.7759H109.451V90.0925H107.427V79.7759Z" fill="black"/>
<path d="M101.515 91.6471H99.4912V89.6674H101.515V91.6471Z" fill="black"/>
<path d="M111.449 79.7759H113.473V81.6984H111.449V79.7759Z" fill="black"/>
<path d="M117.39 87.7137C117.39 88.3546 117.39 88.9957 117.39 89.637H115.366V87.7137H117.39Z" fill="black"/>
<path d="M107.465 101.56H109.395V103.571H107.478V101.548L107.465 101.56Z" fill="black"/>
<path d="M113.457 101.58H115.38V103.603H113.457V101.58Z" fill="black"/>
<path d="M107.427 99.5835V97.661H109.394V99.5835H107.427Z" fill="black"/>
<path d="M119.401 77.766V79.7893H117.378V77.766H119.401Z" fill="black"/>
<path d="M113.457 75.7571H115.38V77.7347H113.457V75.7571Z" fill="black"/>
<path d="M125.262 99.5631H123.332V97.6992H125.262V99.5631Z" fill="black"/>
<path d="M117.374 89.6233H119.397V91.6473H117.374V89.6233Z" fill="black"/>
<path d="M119.401 87.7273H117.378V85.7032H119.401V87.7273Z" fill="black"/>
<path d="M97.5309 71.8029H91.6104V65.9173C91.6674 65.8916 91.7278 65.874 91.7897 65.8651C93.58 65.8615 95.3696 65.8551 97.1599 65.8716C97.2843 65.8716 97.5172 66.0424 97.5172 66.136C97.5308 68.0071 97.5309 69.8789 97.5309 71.8029Z" fill="black"/>
<path d="M127.351 65.8927H133.221V71.7947H127.351V65.8927Z" fill="black"/>
<path d="M97.5013 101.618V107.493H91.6064V101.618H97.5013Z" fill="black"/>
<path d="M83.4429 57.2848H93.2757V55.438H81.5947V67.8737H83.4422L83.4429 57.2848Z" fill="#6654A4"/>
<path d="M83.4432 106.26H81.5957V117.94H94.0315V116.093H83.4418L83.4432 106.26Z" fill="#6654A4"/>
<path d="M132.042 55.4379V57.2846H142.632V67.1174H144.479V55.4379H132.042Z" fill="#6654A4"/>
<path d="M142.632 116.093H132.799V117.939H144.479V105.504H142.632V116.093Z" fill="#6654A4"/>
<path d="M144.527 83.7523H81.5693V85.707H144.527V83.7523Z" fill="#6654A4"/>
<path d="M75.5726 89.3091C75.5726 89.3091 81.5168 94.4377 82.8126 100.41C84.55 108.422 76.2866 120.558 76.7418 130.435C77.2678 141.851 83.4829 146.782 87.2658 154.348C91.6398 163.096 91.3275 168.848 91.3275 171.844C91.3464 173.583 90.9694 175.305 90.2253 176.877H131.275C131.275 176.877 123.184 189.162 107.305 199.05C94.3099 207.141 87.5288 220.92 87.5288 220.92H30L50.7119 186.524C50.7119 186.524 46.9634 168.403 49.1761 155.301C53.1798 131.601 75.5726 89.3091 75.5726 89.3091Z" fill="#B78876"/>
<path d="M90.4123 176.757C90.4123 176.757 88.2253 180.814 85.6703 184.966C83.1152 189.118 81.5186 191.353 81.5186 191.353C81.5186 191.353 87.5578 189.718 91.4186 186.882C95.2853 184.03 98.7473 180.666 101.71 176.883L90.4123 176.757Z" fill="#996552"/>
<path d="M147.476 3.95163L149.256 0.697632L151.036 3.95163C152.816 7.20657 155.492 9.88269 158.747 11.6625L162.001 13.4428L158.747 15.2224C155.492 17.0024 152.816 19.6785 151.036 22.9333L149.256 26.188L147.476 22.9333C145.696 19.6786 143.02 17.0026 139.765 15.2224L136.511 13.4428L139.765 11.6625C143.02 9.88249 145.696 7.20643 147.476 3.95163Z" fill="#6654A4"/>
<path d="M115.062 15.7399L115.816 14.3591L116.571 15.7399C117.326 17.12 118.461 18.2548 119.842 19.0097L121.222 19.7644L119.842 20.5198C118.461 21.2748 117.326 22.4095 116.571 23.7896L115.816 25.1704L115.062 23.7896C114.307 22.4092 113.172 21.2744 111.791 20.5198L110.411 19.7644L111.791 19.0097C113.172 18.2551 114.307 17.1203 115.062 15.7399Z" fill="#6654A4"/>
<path d="M162.263 53.2701L162.611 52.6348L162.959 53.2701C163.306 53.9057 163.828 54.4282 164.464 54.776L165.1 55.1233L164.464 55.4714C163.829 55.8189 163.306 56.3412 162.959 56.9765L162.611 57.6126L162.263 56.9765C161.916 56.3411 161.393 55.8188 160.758 55.4714L160.122 55.1233L160.758 54.776C161.393 54.4281 161.916 53.9056 162.263 53.2701Z" fill="#6654A4"/>
<path d="M166.421 28.0114L167.055 26.8522L167.689 28.0114C168.323 29.1703 169.276 30.123 170.435 30.7566L171.593 31.3905L170.435 32.0244C169.276 32.6583 168.323 33.6113 167.689 34.7703L167.055 35.9288L166.421 34.7703C165.787 33.6114 164.835 32.6585 163.676 32.0244L162.517 31.3905L163.676 30.7566C164.835 30.1228 165.787 29.1701 166.421 28.0114Z" fill="#6654A4"/>
</svg>
