<svg width="180" height="34" viewBox="0 0 180 34" fill="none" xmlns="http://www.w3.org/2000/svg">
<path d="M0.776773 5.16075C0.776773 7.87775 2.76577 9.77575 5.30077 9.77575C7.26377 9.77575 8.82377 8.80075 9.49977 7.05875H8.08277C7.58877 8.13775 6.62677 8.74875 5.30077 8.74875C3.40277 8.74875 1.98577 7.37075 1.98577 5.16075C1.98577 2.93775 3.40277 1.55975 5.30077 1.55975C6.62677 1.55975 7.58877 2.17075 8.08277 3.26275H9.49977C8.82377 1.50775 7.26377 0.519754 5.30077 0.519754C2.76577 0.519754 0.776773 2.44375 0.776773 5.16075ZM17.5788 2.57375H16.3958V6.48675C16.3958 8.02075 15.5768 8.77475 14.3548 8.77475C13.1588 8.77475 12.3658 8.03375 12.3658 6.59075V2.57375H11.1958V6.74675C11.1958 8.78775 12.4828 9.80175 14.1208 9.80175C15.0698 9.80175 15.9408 9.38575 16.3958 8.64475V9.69775H17.5788V2.57375ZM24.6982 7.76075C24.6462 5.21275 20.5122 6.13575 20.5122 4.44575C20.5122 3.87375 21.0322 3.45775 21.9032 3.45775C22.8522 3.45775 23.3982 3.97775 23.4502 4.69275H24.6332C24.5552 3.30175 23.5152 2.45675 21.9422 2.45675C20.3562 2.45675 19.3292 3.35375 19.3292 4.44575C19.3292 7.09775 23.5412 6.17475 23.5412 7.76075C23.5412 8.34575 23.0212 8.81375 22.0852 8.81375C21.0842 8.81375 20.4732 8.29375 20.4082 7.60475H19.1862C19.2642 8.90475 20.4342 9.81475 22.0982 9.81475C23.6712 9.81475 24.6982 8.93075 24.6982 7.76075ZM26.6282 7.74775C26.6282 9.17775 27.3432 9.69775 28.6042 9.69775H29.6702V8.69675H28.7992C28.0712 8.69675 27.8112 8.44975 27.8112 7.74775V3.54875H29.6702V2.57375H27.8112V0.779753H26.6282V2.57375H25.7052V3.54875H26.6282V7.74775ZM37.8635 6.12275C37.8635 3.87375 36.2905 2.45675 34.2625 2.45675C32.2475 2.45675 30.6615 3.87375 30.6615 6.12275C30.6615 8.38475 32.1955 9.81475 34.2105 9.81475C36.2385 9.81475 37.8635 8.38475 37.8635 6.12275ZM31.8705 6.12275C31.8705 4.32875 33.0015 3.48375 34.2495 3.48375C35.4715 3.48375 36.6545 4.32875 36.6545 6.12275C36.6545 7.92975 35.4455 8.77475 34.2105 8.77475C32.9755 8.77475 31.8705 7.92975 31.8705 6.12275ZM49.702 9.69775H50.872V5.49875C50.872 3.45775 49.611 2.44375 47.986 2.44375C46.894 2.44375 45.88 3.00275 45.464 4.02975C44.996 2.96375 44.021 2.44375 42.851 2.44375C41.915 2.44375 41.07 2.84675 40.602 3.60075V2.57375H39.419V9.69775H40.602V5.77175C40.602 4.23775 41.421 3.47075 42.617 3.47075C43.787 3.47075 44.567 4.21175 44.567 5.66775V9.69775H45.737V5.77175C45.737 4.23775 46.556 3.47075 47.752 3.47075C48.922 3.47075 49.702 4.21175 49.702 5.66775V9.69775ZM55.8415 3.45775C57.0635 3.45775 58.1035 4.22475 58.0905 5.61575H53.5925C53.7225 4.22475 54.6845 3.45775 55.8415 3.45775ZM59.1695 7.50075H57.8955C57.6355 8.26775 56.9595 8.81375 55.8935 8.81375C54.6845 8.81375 53.6705 8.02075 53.5795 6.57775H59.2735C59.2995 6.33075 59.3125 6.12275 59.3125 5.86275C59.3125 3.91275 57.9605 2.45675 55.8935 2.45675C53.8135 2.45675 52.3705 3.87375 52.3705 6.12275C52.3705 8.38475 53.8655 9.81475 55.8935 9.81475C57.6615 9.81475 58.8055 8.80075 59.1695 7.50075ZM62.057 5.82375C62.057 4.17275 62.915 3.66575 64.046 3.66575H64.358V2.44375C63.227 2.44375 62.46 2.93775 62.057 3.73075V2.57375H60.874V9.69775H62.057V5.82375ZM70.3725 3.88675V2.57375H69.1895V13.0778H70.3725V8.38475C70.8145 9.11275 71.7375 9.81475 73.0375 9.81475C74.9485 9.81475 76.4175 8.31975 76.4175 6.10975C76.4175 3.88675 74.9485 2.45675 73.0375 2.45675C71.7375 2.45675 70.8015 3.13275 70.3725 3.88675ZM75.2085 6.10975C75.2085 7.78675 74.1035 8.77475 72.7905 8.77475C71.5035 8.77475 70.3725 7.79975 70.3725 6.12275C70.3725 4.47175 71.5035 3.48375 72.7905 3.48375C74.1035 3.48375 75.2085 4.43275 75.2085 6.10975ZM77.5326 6.10975C77.5326 8.31975 79.0016 9.81475 80.8996 9.81475C82.2126 9.81475 83.1356 9.13875 83.5646 8.37175V9.69775H84.7606V2.57375H83.5646V3.87375C83.1486 3.13275 82.2386 2.45675 80.9126 2.45675C79.0016 2.45675 77.5326 3.88675 77.5326 6.10975ZM83.5646 6.12275C83.5646 7.79975 82.4466 8.77475 81.1466 8.77475C79.8466 8.77475 78.7416 7.78675 78.7416 6.10975C78.7416 4.43275 79.8466 3.48375 81.1466 3.48375C82.4466 3.48375 83.5646 4.47175 83.5646 6.12275ZM89.4638 8.34575L87.2278 2.57375H85.9148L88.7878 9.61975L87.3838 13.0518H88.6058L92.8958 2.57375H91.6738L89.4638 8.34575ZM99.207 7.76075C99.155 5.21275 95.021 6.13575 95.021 4.44575C95.021 3.87375 95.541 3.45775 96.412 3.45775C97.361 3.45775 97.907 3.97775 97.959 4.69275H99.142C99.064 3.30175 98.024 2.45675 96.451 2.45675C94.865 2.45675 93.838 3.35375 93.838 4.44575C93.838 7.09775 98.05 6.17475 98.05 7.76075C98.05 8.34575 97.53 8.81375 96.594 8.81375C95.593 8.81375 94.982 8.29375 94.917 7.60475H93.695C93.773 8.90475 94.943 9.81475 96.607 9.81475C98.18 9.81475 99.207 8.93075 99.207 7.76075ZM104.603 7.74775C104.603 9.17775 105.318 9.69775 106.579 9.69775H107.645V8.69675H106.774C106.046 8.69675 105.786 8.44975 105.786 7.74775V3.54875H107.645V2.57375H105.786V0.779753H104.603V2.57375H103.68V3.54875H104.603V7.74775ZM109.078 9.69775H110.261V5.75875C110.261 4.22475 111.093 3.47075 112.302 3.47075C113.498 3.47075 114.291 4.21175 114.291 5.66775V9.69775H115.461V5.49875C115.461 3.45775 114.2 2.44375 112.614 2.44375C111.613 2.44375 110.729 2.84675 110.261 3.60075V0.0777538H109.078V9.69775ZM120.423 3.45775C121.645 3.45775 122.685 4.22475 122.672 5.61575H118.174C118.304 4.22475 119.266 3.45775 120.423 3.45775ZM123.751 7.50075H122.477C122.217 8.26775 121.541 8.81375 120.475 8.81375C119.266 8.81375 118.252 8.02075 118.161 6.57775H123.855C123.881 6.33075 123.894 6.12275 123.894 5.86275C123.894 3.91275 122.542 2.45675 120.475 2.45675C118.395 2.45675 116.952 3.87375 116.952 6.12275C116.952 8.38475 118.447 9.81475 120.475 9.81475C122.243 9.81475 123.387 8.80075 123.751 7.50075ZM128.479 6.10975C128.479 8.31975 129.948 9.81475 131.846 9.81475C133.159 9.81475 134.082 9.13875 134.511 8.37175V9.69775H135.707V2.57375H134.511V3.87375C134.095 3.13275 133.185 2.45675 131.859 2.45675C129.948 2.45675 128.479 3.88675 128.479 6.10975ZM134.511 6.12275C134.511 7.79975 133.393 8.77475 132.093 8.77475C130.793 8.77475 129.688 7.78675 129.688 6.10975C129.688 4.43275 130.793 3.48375 132.093 3.48375C133.393 3.48375 134.511 4.47175 134.511 6.12275ZM147.989 9.69775H149.159V5.49875C149.159 3.45775 147.898 2.44375 146.273 2.44375C145.181 2.44375 144.167 3.00275 143.751 4.02975C143.283 2.96375 142.308 2.44375 141.138 2.44375C140.202 2.44375 139.357 2.84675 138.889 3.60075V2.57375H137.706V9.69775H138.889V5.77175C138.889 4.23775 139.708 3.47075 140.904 3.47075C142.074 3.47075 142.854 4.21175 142.854 5.66775V9.69775H144.024V5.77175C144.024 4.23775 144.843 3.47075 146.039 3.47075C147.209 3.47075 147.989 4.21175 147.989 5.66775V9.69775ZM157.86 6.12275C157.86 3.87375 156.287 2.45675 154.259 2.45675C152.244 2.45675 150.658 3.87375 150.658 6.12275C150.658 8.38475 152.192 9.81475 154.207 9.81475C156.235 9.81475 157.86 8.38475 157.86 6.12275ZM151.867 6.12275C151.867 4.32875 152.998 3.48375 154.246 3.48375C155.468 3.48375 156.651 4.32875 156.651 6.12275C156.651 7.92975 155.442 8.77475 154.207 8.77475C152.972 8.77475 151.867 7.92975 151.867 6.12275ZM165.733 2.57375H164.55V6.48675C164.55 8.02075 163.731 8.77475 162.509 8.77475C161.313 8.77475 160.52 8.03375 160.52 6.59075V2.57375H159.35V6.74675C159.35 8.78775 160.637 9.80175 162.275 9.80175C163.224 9.80175 164.095 9.38575 164.55 8.64475V9.69775H165.733V2.57375ZM172.943 9.69775H174.113V5.49875C174.113 3.45775 172.852 2.44375 171.201 2.44375C170.239 2.44375 169.381 2.84675 168.913 3.58775V2.57375H167.73V9.69775H168.913V5.75875C168.913 4.22475 169.745 3.47075 170.954 3.47075C172.15 3.47075 172.943 4.21175 172.943 5.66775V9.69775ZM176.306 7.74775C176.306 9.17775 177.021 9.69775 178.282 9.69775H179.348V8.69675H178.477C177.749 8.69675 177.489 8.44975 177.489 7.74775V3.54875H179.348V2.57375H177.489V0.779753H176.306V2.57375H175.383V3.54875H176.306V7.74775ZM11.0395 29.6978H12.2615L13.9775 24.0428L15.6935 29.6978H16.9155L19.1385 22.5738H17.9685L16.3565 28.5668L14.6275 22.5738H13.4185L11.6505 28.5538L10.0125 22.5738H8.80346L11.0395 29.6978ZM20.3125 29.6978H21.4955V22.5738H20.3125V29.6978ZM20.9235 21.4168C21.3525 21.4168 21.7035 21.0658 21.7035 20.6108C21.7035 20.1558 21.3525 19.8048 20.9235 19.8048C20.4685 19.8048 20.1175 20.1558 20.1175 20.6108C20.1175 21.0658 20.4685 21.4168 20.9235 21.4168ZM23.7717 27.7478C23.7717 29.1778 24.4867 29.6978 25.7477 29.6978H26.8137V28.6968H25.9427C25.2147 28.6968 24.9547 28.4498 24.9547 27.7478V23.5488H26.8137V22.5738H24.9547V20.7798H23.7717V22.5738H22.8487V23.5488H23.7717V27.7478ZM28.2471 29.6978H29.4301V25.7588C29.4301 24.2248 30.2621 23.4708 31.4711 23.4708C32.6671 23.4708 33.4601 24.2118 33.4601 25.6678V29.6978H34.6301V25.4988C34.6301 23.4578 33.3691 22.4438 31.7831 22.4438C30.7821 22.4438 29.8981 22.8468 29.4301 23.6008V20.0778H28.2471V29.6978ZM40.0283 29.6978H41.2113V25.7588C41.2113 24.2248 42.0433 23.4708 43.2523 23.4708C44.4483 23.4708 45.2413 24.2118 45.2413 25.6678V29.6978H46.4113V25.4988C46.4113 23.4578 45.1503 22.4438 43.5643 22.4438C42.5633 22.4438 41.6793 22.8468 41.2113 23.6008V20.0778H40.0283V29.6978ZM51.3728 23.4578C52.5948 23.4578 53.6348 24.2248 53.6218 25.6158H49.1238C49.2538 24.2248 50.2158 23.4578 51.3728 23.4578ZM54.7008 27.5008H53.4268C53.1668 28.2678 52.4908 28.8138 51.4248 28.8138C50.2158 28.8138 49.2018 28.0208 49.1108 26.5778H54.8048C54.8308 26.3308 54.8438 26.1228 54.8438 25.8628C54.8438 23.9128 53.4918 22.4568 51.4248 22.4568C49.3448 22.4568 47.9018 23.8738 47.9018 26.1228C47.9018 28.3848 49.3968 29.8148 51.4248 29.8148C53.1928 29.8148 54.3368 28.8008 54.7008 27.5008ZM57.5883 25.8238C57.5883 24.1728 58.4463 23.6658 59.5773 23.6658H59.8893V22.4438C58.7583 22.4438 57.9913 22.9378 57.5883 23.7308V22.5738H56.4053V29.6978H57.5883V25.8238ZM69.5957 20.6238H64.7207V29.6978H69.5957V28.7228H65.9037V25.6028H69.2057V24.6278H65.9037V21.5988H69.5957V20.6238ZM70.9438 26.1098C70.9438 28.3198 72.4128 29.8148 74.3108 29.8148C75.6238 29.8148 76.5468 29.1388 76.9758 28.3718V29.6978H78.1718V22.5738H76.9758V23.8738C76.5598 23.1328 75.6498 22.4568 74.3238 22.4568C72.4128 22.4568 70.9438 23.8868 70.9438 26.1098ZM76.9758 26.1228C76.9758 27.7998 75.8578 28.7748 74.5578 28.7748C73.2578 28.7748 72.1528 27.7868 72.1528 26.1098C72.1528 24.4328 73.2578 23.4838 74.5578 23.4838C75.8578 23.4838 76.9758 24.4718 76.9758 26.1228ZM85.2929 27.7608C85.2409 25.2128 81.1069 26.1358 81.1069 24.4458C81.1069 23.8738 81.6269 23.4578 82.4979 23.4578C83.4469 23.4578 83.9929 23.9778 84.0449 24.6928H85.2279C85.1499 23.3018 84.1099 22.4568 82.5369 22.4568C80.9509 22.4568 79.9239 23.3538 79.9239 24.4458C79.9239 27.0978 84.1359 26.1748 84.1359 27.7608C84.1359 28.3458 83.6159 28.8138 82.6799 28.8138C81.6789 28.8138 81.0679 28.2938 81.0029 27.6048H79.7809C79.8589 28.9048 81.0289 29.8148 82.6929 29.8148C84.2659 29.8148 85.2929 28.9308 85.2929 27.7608ZM89.6669 28.3458L87.4309 22.5738H86.1179L88.9909 29.6198L87.5869 33.0518H88.8089L93.0989 22.5738H91.8769L89.6669 28.3458ZM93.8461 25.1608C93.8461 27.8778 95.8351 29.7758 98.3701 29.7758C100.333 29.7758 101.893 28.8008 102.569 27.0588H101.152C100.658 28.1378 99.6961 28.7488 98.3701 28.7488C96.4721 28.7488 95.0551 27.3708 95.0551 25.1608C95.0551 22.9378 96.4721 21.5598 98.3701 21.5598C99.6961 21.5598 100.658 22.1708 101.152 23.2628H102.569C101.893 21.5078 100.333 20.5198 98.3701 20.5198C95.8351 20.5198 93.8461 22.4438 93.8461 25.1608ZM103.888 26.1098C103.888 28.3198 105.357 29.8148 107.255 29.8148C108.568 29.8148 109.491 29.1388 109.92 28.3718V29.6978H111.116V22.5738H109.92V23.8738C109.504 23.1328 108.594 22.4568 107.268 22.4568C105.357 22.4568 103.888 23.8868 103.888 26.1098ZM109.92 26.1228C109.92 27.7998 108.802 28.7748 107.502 28.7748C106.202 28.7748 105.097 27.7868 105.097 26.1098C105.097 24.4328 106.202 23.4838 107.502 23.4838C108.802 23.4838 109.92 24.4718 109.92 26.1228ZM118.237 27.7608C118.185 25.2128 114.051 26.1358 114.051 24.4458C114.051 23.8738 114.571 23.4578 115.442 23.4578C116.391 23.4578 116.937 23.9778 116.989 24.6928H118.172C118.094 23.3018 117.054 22.4568 115.481 22.4568C113.895 22.4568 112.868 23.3538 112.868 24.4458C112.868 27.0978 117.08 26.1748 117.08 27.7608C117.08 28.3458 116.56 28.8138 115.624 28.8138C114.623 28.8138 114.012 28.2938 113.947 27.6048H112.725C112.803 28.9048 113.973 29.8148 115.637 29.8148C117.21 29.8148 118.237 28.9308 118.237 27.7608ZM119.907 29.6978H121.09V25.7588C121.09 24.2248 121.922 23.4708 123.131 23.4708C124.327 23.4708 125.12 24.2118 125.12 25.6678V29.6978H126.29V25.4988C126.29 23.4578 125.029 22.4438 123.443 22.4438C122.442 22.4438 121.558 22.8468 121.09 23.6008V20.0778H119.907V29.6978ZM133.522 29.7108L134.835 29.6978L137.019 22.4048L139.125 29.6978H140.451L143.077 20.6368H141.803L139.814 28.2938L137.734 20.6368H136.408L134.224 28.3198L132.248 20.6368H130.987L133.522 29.7108ZM143.929 26.1098C143.929 28.3198 145.398 29.8148 147.296 29.8148C148.609 29.8148 149.532 29.1388 149.961 28.3718V29.6978H151.157V22.5738H149.961V23.8738C149.545 23.1328 148.635 22.4568 147.309 22.4568C145.398 22.4568 143.929 23.8868 143.929 26.1098ZM149.961 26.1228C149.961 27.7998 148.843 28.7748 147.543 28.7748C146.243 28.7748 145.138 27.7868 145.138 26.1098C145.138 24.4328 146.243 23.4838 147.543 23.4838C148.843 23.4838 149.961 24.4718 149.961 26.1228ZM153.156 29.6978H154.339V20.0778H153.156V29.6978ZM156.355 29.6978H157.538V20.0778H156.355V29.6978ZM162.584 23.4578C163.806 23.4578 164.846 24.2248 164.833 25.6158H160.335C160.465 24.2248 161.427 23.4578 162.584 23.4578ZM165.912 27.5008H164.638C164.378 28.2678 163.702 28.8138 162.636 28.8138C161.427 28.8138 160.413 28.0208 160.322 26.5778H166.016C166.042 26.3308 166.055 26.1228 166.055 25.8628C166.055 23.9128 164.703 22.4568 162.636 22.4568C160.556 22.4568 159.113 23.8738 159.113 26.1228C159.113 28.3848 160.608 29.8148 162.636 29.8148C164.404 29.8148 165.548 28.8008 165.912 27.5008ZM167.876 27.7478C167.876 29.1778 168.591 29.6978 169.852 29.6978H170.918V28.6968H170.047C169.319 28.6968 169.059 28.4498 169.059 27.7478V23.5488H170.918V22.5738H169.059V20.7798H167.876V22.5738H166.953V23.5488H167.876V27.7478Z" fill="#494B52"/>
</svg>
