<svg width="633" height="144" viewBox="0 0 633 144" fill="none" xmlns="http://www.w3.org/2000/svg">
<path d="M214.619 44.6975H218.259V16.8175H214.619V29.0575H200.419V16.8175H196.779V44.6975H200.419V32.0575H214.619V44.6975ZM245.235 33.6975C245.235 26.7775 240.395 22.4175 234.155 22.4175C227.955 22.4175 223.075 26.7775 223.075 33.6975C223.075 40.6575 227.795 45.0575 233.995 45.0575C240.235 45.0575 245.235 40.6575 245.235 33.6975ZM226.795 33.6975C226.795 28.1775 230.275 25.5775 234.115 25.5775C237.875 25.5775 241.515 28.1775 241.515 33.6975C241.515 39.2575 237.795 41.8575 233.995 41.8575C230.195 41.8575 226.795 39.2575 226.795 33.6975ZM254.301 44.6975H258.061L263.341 27.2975L268.621 44.6975H272.381L279.221 22.7775H275.621L270.661 41.2175L265.341 22.7775H261.621L256.181 41.1775L251.141 22.7775H247.421L254.301 44.6975ZM293.498 44.6975H297.138V22.7775H293.498V44.6975ZM295.378 19.2175C296.698 19.2175 297.778 18.1375 297.778 16.7375C297.778 15.3375 296.698 14.2575 295.378 14.2575C293.978 14.2575 292.898 15.3375 292.898 16.7375C292.898 18.1375 293.978 19.2175 295.378 19.2175ZM304.142 38.6975C304.142 43.0975 306.342 44.6975 310.222 44.6975H313.502V41.6175H310.822C308.582 41.6175 307.782 40.8575 307.782 38.6975V25.7775H313.502V22.7775H307.782V17.2575H304.142V22.7775H301.302V25.7775H304.142V38.6975ZM332.856 44.6975H336.616L341.896 27.2975L347.176 44.6975H350.936L357.776 22.7775H354.176L349.216 41.2175L343.896 22.7775H340.176L334.736 41.1775L329.696 22.7775H325.976L332.856 44.6975ZM382.189 33.6975C382.189 26.7775 377.349 22.4175 371.109 22.4175C364.909 22.4175 360.029 26.7775 360.029 33.6975C360.029 40.6575 364.749 45.0575 370.949 45.0575C377.189 45.0575 382.189 40.6575 382.189 33.6975ZM363.749 33.6975C363.749 28.1775 367.229 25.5775 371.069 25.5775C374.829 25.5775 378.469 28.1775 378.469 33.6975C378.469 39.2575 374.749 41.8575 370.949 41.8575C367.149 41.8575 363.749 39.2575 363.749 33.6975ZM390.615 32.7775C390.615 27.6975 393.255 26.1375 396.735 26.1375H397.695V22.3775C394.215 22.3775 391.855 23.8975 390.615 26.3375V22.7775H386.975V44.6975H390.615V32.7775ZM401.896 44.6975H405.536V35.0175L414.136 44.6975H419.096L408.736 33.6975L419.056 22.7775H413.976L405.536 32.4975V15.0975H401.896V44.6975ZM438.242 38.7375C438.082 30.8975 425.362 33.7375 425.362 28.5375C425.362 26.7775 426.962 25.4975 429.642 25.4975C432.562 25.4975 434.242 27.0975 434.402 29.2975H438.042C437.802 25.0175 434.602 22.4175 429.762 22.4175C424.882 22.4175 421.722 25.1775 421.722 28.5375C421.722 36.6975 434.682 33.8575 434.682 38.7375C434.682 40.5375 433.082 41.9775 430.202 41.9775C427.122 41.9775 425.242 40.3775 425.042 38.2575H421.282C421.522 42.2575 425.122 45.0575 430.242 45.0575C435.082 45.0575 438.242 42.3375 438.242 38.7375Z" fill="#2B334E"/>
<path d="M0.820813 90.1135C0.820813 93.4575 3.26881 95.7935 6.38881 95.7935C8.80481 95.7935 10.7248 94.5935 11.5568 92.4495H9.81281C9.20481 93.7775 8.02081 94.5295 6.38881 94.5295C4.05281 94.5295 2.30881 92.8335 2.30881 90.1135C2.30881 87.3775 4.05281 85.6815 6.38881 85.6815C8.02081 85.6815 9.20481 86.4335 9.81281 87.7775H11.5568C10.7248 85.6175 8.80481 84.4015 6.38881 84.4015C3.26881 84.4015 0.820813 86.7695 0.820813 90.1135ZM22.0442 91.2975C22.0442 88.5295 20.1082 86.7855 17.6122 86.7855C15.1322 86.7855 13.1802 88.5295 13.1802 91.2975C13.1802 94.0815 15.0682 95.8415 17.5482 95.8415C20.0442 95.8415 22.0442 94.0815 22.0442 91.2975ZM14.6682 91.2975C14.6682 89.0895 16.0602 88.0495 17.5962 88.0495C19.1002 88.0495 20.5562 89.0895 20.5562 91.2975C20.5562 93.5215 19.0682 94.5615 17.5482 94.5615C16.0282 94.5615 14.6682 93.5215 14.6682 91.2975ZM30.3746 95.6975H31.8146V90.5295C31.8146 88.0175 30.2626 86.7695 28.2306 86.7695C27.0466 86.7695 25.9906 87.2655 25.4146 88.1775V86.9295H23.9586V95.6975H25.4146V90.8495C25.4146 88.9615 26.4386 88.0335 27.9266 88.0335C29.3986 88.0335 30.3746 88.9455 30.3746 90.7375V95.6975ZM40.4969 93.3135C40.4329 90.1775 35.3449 91.3135 35.3449 89.2335C35.3449 88.5295 35.9849 88.0175 37.0569 88.0175C38.2249 88.0175 38.8969 88.6575 38.9609 89.5375H40.4169C40.3209 87.8255 39.0409 86.7855 37.1049 86.7855C35.1529 86.7855 33.8889 87.8895 33.8889 89.2335C33.8889 92.4975 39.0729 91.3615 39.0729 93.3135C39.0729 94.0335 38.4329 94.6095 37.2809 94.6095C36.0489 94.6095 35.2969 93.9695 35.2169 93.1215H33.7129C33.8089 94.7215 35.2489 95.8415 37.2969 95.8415C39.2329 95.8415 40.4969 94.7535 40.4969 93.3135ZM50.3283 86.9295H48.8723V91.7455C48.8723 93.6335 47.8643 94.5615 46.3603 94.5615C44.8883 94.5615 43.9123 93.6495 43.9123 91.8735V86.9295H42.4723V92.0655C42.4723 94.5775 44.0563 95.8255 46.0723 95.8255C47.2403 95.8255 48.3123 95.3135 48.8723 94.4015V95.6975H50.3283V86.9295ZM65.4427 95.6975H66.8827V90.5295C66.8827 88.0175 65.3307 86.7695 63.3307 86.7695C61.9867 86.7695 60.7387 87.4575 60.2267 88.7215C59.6507 87.4095 58.4507 86.7695 57.0107 86.7695C55.8587 86.7695 54.8187 87.2655 54.2427 88.1935V86.9295H52.7867V95.6975H54.2427V90.8655C54.2427 88.9775 55.2507 88.0335 56.7227 88.0335C58.1627 88.0335 59.1227 88.9455 59.1227 90.7375V95.6975H60.5627V90.8655C60.5627 88.9775 61.5707 88.0335 63.0427 88.0335C64.4827 88.0335 65.4427 88.9455 65.4427 90.7375V95.6975ZM72.9991 88.0175C74.5031 88.0175 75.7831 88.9615 75.7671 90.6735H70.2311C70.3911 88.9615 71.5751 88.0175 72.9991 88.0175ZM77.0951 92.9935H75.5271C75.2071 93.9375 74.3751 94.6095 73.0631 94.6095C71.5751 94.6095 70.3271 93.6335 70.2151 91.8575H77.2231C77.2551 91.5535 77.2711 91.2975 77.2711 90.9775C77.2711 88.5775 75.6071 86.7855 73.0631 86.7855C70.5031 86.7855 68.7271 88.5295 68.7271 91.2975C68.7271 94.0815 70.5671 95.8415 73.0631 95.8415C75.2391 95.8415 76.6471 94.5935 77.0951 92.9935ZM80.6489 90.9295C80.6489 88.8975 81.7049 88.2735 83.0969 88.2735H83.4809V86.7695C82.0889 86.7695 81.1449 87.3775 80.6489 88.3535V86.9295H79.1929V95.6975H80.6489V90.9295ZM88.8833 91.2975C88.8833 94.0815 90.6593 95.8415 93.1553 95.8415C95.3313 95.8415 96.7553 94.6255 97.2033 92.8815H95.6353C95.3153 93.9855 94.4513 94.6095 93.1553 94.6095C91.5553 94.6095 90.3713 93.4735 90.3713 91.2975C90.3713 89.1535 91.5553 88.0175 93.1553 88.0175C94.4513 88.0175 95.3313 88.6895 95.6353 89.7455H97.2033C96.7553 87.9055 95.3313 86.7855 93.1553 86.7855C90.6593 86.7855 88.8833 88.5455 88.8833 91.2975ZM98.6021 91.2815C98.6021 94.0015 100.41 95.8415 102.746 95.8415C104.362 95.8415 105.498 95.0095 106.026 94.0655V95.6975H107.498V86.9295H106.026V88.5295C105.514 87.6175 104.394 86.7855 102.762 86.7855C100.41 86.7855 98.6021 88.5455 98.6021 91.2815ZM106.026 91.2975C106.026 93.3615 104.65 94.5615 103.05 94.5615C101.45 94.5615 100.09 93.3455 100.09 91.2815C100.09 89.2175 101.45 88.0495 103.05 88.0495C104.65 88.0495 106.026 89.2655 106.026 91.2975ZM116.375 95.6975H117.815V90.5295C117.815 88.0175 116.263 86.7695 114.231 86.7695C113.047 86.7695 111.991 87.2655 111.415 88.1775V86.9295H109.959V95.6975H111.415V90.8495C111.415 88.9615 112.439 88.0335 113.927 88.0335C115.399 88.0335 116.375 88.9455 116.375 90.7375V95.6975ZM128.187 88.0175C129.691 88.0175 130.971 88.9615 130.955 90.6735H125.419C125.579 88.9615 126.763 88.0175 128.187 88.0175ZM132.283 92.9935H130.715C130.395 93.9375 129.563 94.6095 128.251 94.6095C126.763 94.6095 125.515 93.6335 125.403 91.8575H132.411C132.443 91.5535 132.459 91.2975 132.459 90.9775C132.459 88.5775 130.795 86.7855 128.251 86.7855C125.691 86.7855 123.915 88.5295 123.915 91.2975C123.915 94.0815 125.755 95.8415 128.251 95.8415C130.427 95.8415 131.835 94.5935 132.283 92.9935ZM133.836 91.2815C133.836 94.0015 135.644 95.8415 137.98 95.8415C139.596 95.8415 140.732 95.0095 141.26 94.0655V95.6975H142.732V86.9295H141.26V88.5295C140.748 87.6175 139.628 86.7855 137.996 86.7855C135.644 86.7855 133.836 88.5455 133.836 91.2815ZM141.26 91.2975C141.26 93.3615 139.884 94.5615 138.284 94.5615C136.684 94.5615 135.324 93.3455 135.324 91.2815C135.324 89.2175 136.684 88.0495 138.284 88.0495C139.884 88.0495 141.26 89.2655 141.26 91.2975ZM151.497 93.3135C151.433 90.1775 146.345 91.3135 146.345 89.2335C146.345 88.5295 146.985 88.0175 148.057 88.0175C149.225 88.0175 149.897 88.6575 149.961 89.5375H151.417C151.321 87.8255 150.041 86.7855 148.105 86.7855C146.153 86.7855 144.889 87.8895 144.889 89.2335C144.889 92.4975 150.073 91.3615 150.073 93.3135C150.073 94.0335 149.433 94.6095 148.281 94.6095C147.049 94.6095 146.297 93.9695 146.217 93.1215H144.713C144.809 94.7215 146.249 95.8415 148.297 95.8415C150.233 95.8415 151.497 94.7535 151.497 93.3135ZM153.552 95.6975H155.008V86.9295H153.552V95.6975ZM154.304 85.5055C154.832 85.5055 155.264 85.0735 155.264 84.5135C155.264 83.9535 154.832 83.5215 154.304 83.5215C153.744 83.5215 153.312 83.9535 153.312 84.5135C153.312 85.0735 153.744 85.5055 154.304 85.5055ZM157.49 95.6975H158.946V83.8575H157.49V95.6975ZM164.755 94.0335L162.003 86.9295H160.387L163.923 95.6015L162.195 99.8255H163.699L168.979 86.9295H167.475L164.755 94.0335ZM181.125 95.6975H182.565V90.5295C182.565 88.0175 181.013 86.7695 178.981 86.7695C177.797 86.7695 176.741 87.2655 176.165 88.1775V86.9295H174.709V95.6975H176.165V90.8495C176.165 88.9615 177.189 88.0335 178.677 88.0335C180.149 88.0335 181.125 88.9455 181.125 90.7375V95.6975ZM193.263 91.2975C193.263 88.5295 191.327 86.7855 188.831 86.7855C186.351 86.7855 184.399 88.5295 184.399 91.2975C184.399 94.0815 186.287 95.8415 188.767 95.8415C191.263 95.8415 193.263 94.0815 193.263 91.2975ZM185.887 91.2975C185.887 89.0895 187.279 88.0495 188.815 88.0495C190.319 88.0495 191.775 89.0895 191.775 91.2975C191.775 93.5215 190.287 94.5615 188.767 94.5615C187.247 94.5615 185.887 93.5215 185.887 91.2975ZM196.889 95.6975H198.393L200.505 88.7375L202.617 95.6975H204.121L206.857 86.9295H205.417L203.433 94.3055L201.305 86.9295H199.817L197.641 94.2895L195.625 86.9295H194.137L196.889 95.6975ZM214.024 88.5455V86.9295H212.568V99.8575H214.024V94.0815C214.568 94.9775 215.704 95.8415 217.304 95.8415C219.656 95.8415 221.464 94.0015 221.464 91.2815C221.464 88.5455 219.656 86.7855 217.304 86.7855C215.704 86.7855 214.552 87.6175 214.024 88.5455ZM219.976 91.2815C219.976 93.3455 218.616 94.5615 217 94.5615C215.416 94.5615 214.024 93.3615 214.024 91.2975C214.024 89.2655 215.416 88.0495 217 88.0495C218.616 88.0495 219.976 89.2175 219.976 91.2815ZM222.836 91.2815C222.836 94.0015 224.644 95.8415 226.98 95.8415C228.596 95.8415 229.732 95.0095 230.26 94.0655V95.6975H231.732V86.9295H230.26V88.5295C229.748 87.6175 228.628 86.7855 226.996 86.7855C224.644 86.7855 222.836 88.5455 222.836 91.2815ZM230.26 91.2975C230.26 93.3615 228.884 94.5615 227.284 94.5615C225.684 94.5615 224.324 93.3455 224.324 91.2815C224.324 89.2175 225.684 88.0495 227.284 88.0495C228.884 88.0495 230.26 89.2655 230.26 91.2975ZM237.521 94.0335L234.769 86.9295H233.153L236.689 95.6015L234.961 99.8255H236.465L241.745 86.9295H240.241L237.521 94.0335ZM250.802 94.0335L248.05 86.9295H246.434L249.97 95.6015L248.242 99.8255H249.746L255.026 86.9295H253.522L250.802 94.0335ZM264.81 91.2975C264.81 88.5295 262.874 86.7855 260.378 86.7855C257.898 86.7855 255.946 88.5295 255.946 91.2975C255.946 94.0815 257.834 95.8415 260.314 95.8415C262.81 95.8415 264.81 94.0815 264.81 91.2975ZM257.434 91.2975C257.434 89.0895 258.826 88.0495 260.362 88.0495C261.866 88.0495 263.322 89.0895 263.322 91.2975C263.322 93.5215 261.834 94.5615 260.314 94.5615C258.794 94.5615 257.434 93.5215 257.434 91.2975ZM274.5 86.9295H273.044V91.7455C273.044 93.6335 272.036 94.5615 270.532 94.5615C269.06 94.5615 268.084 93.6495 268.084 91.8735V86.9295H266.644V92.0655C266.644 94.5775 268.228 95.8255 270.244 95.8255C271.412 95.8255 272.484 95.3135 273.044 94.4015V95.6975H274.5V86.9295ZM278.415 90.9295C278.415 88.8975 279.471 88.2735 280.863 88.2735H281.247V86.7695C279.855 86.7695 278.911 87.3775 278.415 88.3535V86.9295H276.959V95.6975H278.415V90.9295ZM288.649 88.5455V86.9295H287.193V99.8575H288.649V94.0815C289.193 94.9775 290.329 95.8415 291.929 95.8415C294.281 95.8415 296.089 94.0015 296.089 91.2815C296.089 88.5455 294.281 86.7855 291.929 86.7855C290.329 86.7855 289.177 87.6175 288.649 88.5455ZM294.601 91.2815C294.601 93.3455 293.241 94.5615 291.625 94.5615C290.041 94.5615 288.649 93.3615 288.649 91.2975C288.649 89.2655 290.041 88.0495 291.625 88.0495C293.241 88.0495 294.601 89.2175 294.601 91.2815ZM297.461 91.2815C297.461 94.0015 299.269 95.8415 301.605 95.8415C303.221 95.8415 304.357 95.0095 304.885 94.0655V95.6975H306.357V86.9295H304.885V88.5295C304.373 87.6175 303.253 86.7855 301.621 86.7855C299.269 86.7855 297.461 88.5455 297.461 91.2815ZM304.885 91.2975C304.885 93.3615 303.509 94.5615 301.909 94.5615C300.309 94.5615 298.949 93.3455 298.949 91.2815C298.949 89.2175 300.309 88.0495 301.909 88.0495C303.509 88.0495 304.885 89.2655 304.885 91.2975ZM312.146 94.0335L309.394 86.9295H307.778L311.314 95.6015L309.586 99.8255H311.09L316.37 86.9295H314.866L312.146 94.0335ZM330.49 95.6975H331.93V90.5295C331.93 88.0175 330.378 86.7695 328.378 86.7695C327.034 86.7695 325.786 87.4575 325.274 88.7215C324.698 87.4095 323.498 86.7695 322.058 86.7695C320.906 86.7695 319.866 87.2655 319.29 88.1935V86.9295H317.834V95.6975H319.29V90.8655C319.29 88.9775 320.298 88.0335 321.77 88.0335C323.21 88.0335 324.17 88.9455 324.17 90.7375V95.6975H325.61V90.8655C325.61 88.9775 326.618 88.0335 328.09 88.0335C329.53 88.0335 330.49 88.9455 330.49 90.7375V95.6975ZM338.046 88.0175C339.55 88.0175 340.83 88.9615 340.814 90.6735H335.278C335.438 88.9615 336.622 88.0175 338.046 88.0175ZM342.142 92.9935H340.574C340.254 93.9375 339.422 94.6095 338.11 94.6095C336.622 94.6095 335.374 93.6335 335.262 91.8575H342.27C342.302 91.5535 342.318 91.2975 342.318 90.9775C342.318 88.5775 340.654 86.7855 338.11 86.7855C335.55 86.7855 333.774 88.5295 333.774 91.2975C333.774 94.0815 335.614 95.8415 338.11 95.8415C340.286 95.8415 341.694 94.5935 342.142 92.9935ZM350.656 95.6975H352.096V90.5295C352.096 88.0175 350.544 86.7695 348.512 86.7695C347.328 86.7695 346.272 87.2655 345.696 88.1775V86.9295H344.24V95.6975H345.696V90.8495C345.696 88.9615 346.72 88.0335 348.208 88.0335C349.68 88.0335 350.656 88.9455 350.656 90.7375V95.6975ZM354.794 93.2975C354.794 95.0575 355.674 95.6975 357.226 95.6975H358.538V94.4655H357.466C356.57 94.4655 356.25 94.1615 356.25 93.2975V88.1295H358.538V86.9295H356.25V84.7215H354.794V86.9295H353.658V88.1295H354.794V93.2975ZM366.606 93.3135C366.542 90.1775 361.454 91.3135 361.454 89.2335C361.454 88.5295 362.094 88.0175 363.166 88.0175C364.334 88.0175 365.006 88.6575 365.07 89.5375H366.526C366.43 87.8255 365.15 86.7855 363.214 86.7855C361.262 86.7855 359.998 87.8895 359.998 89.2335C359.998 92.4975 365.182 91.3615 365.182 93.3135C365.182 94.0335 364.542 94.6095 363.39 94.6095C362.158 94.6095 361.406 93.9695 361.326 93.1215H359.822C359.918 94.7215 361.358 95.8415 363.406 95.8415C365.342 95.8415 366.606 94.7535 366.606 93.3135ZM374.383 88.5615V83.8575H372.927V95.6975H374.383V94.0815C374.927 95.0415 376.063 95.8415 377.663 95.8415C380.015 95.8415 381.823 94.0015 381.823 91.2815C381.823 88.5455 380.031 86.7855 377.663 86.7855C376.111 86.7855 374.943 87.5855 374.383 88.5615ZM380.335 91.2815C380.335 93.3455 378.975 94.5615 377.359 94.5615C375.775 94.5615 374.383 93.3615 374.383 91.2975C374.383 89.2655 375.775 88.0495 377.359 88.0495C378.975 88.0495 380.335 89.2175 380.335 91.2815ZM387.068 94.0335L384.316 86.9295H382.7L386.236 95.6015L384.508 99.8255H386.012L391.292 86.9295H389.788L387.068 94.0335ZM403.325 93.3135C403.261 90.1775 398.173 91.3135 398.173 89.2335C398.173 88.5295 398.813 88.0175 399.885 88.0175C401.053 88.0175 401.725 88.6575 401.789 89.5375H403.245C403.149 87.8255 401.869 86.7855 399.933 86.7855C397.981 86.7855 396.717 87.8895 396.717 89.2335C396.717 92.4975 401.901 91.3615 401.901 93.3135C401.901 94.0335 401.261 94.6095 400.109 94.6095C398.877 94.6095 398.125 93.9695 398.045 93.1215H396.541C396.637 94.7215 398.077 95.8415 400.125 95.8415C402.061 95.8415 403.325 94.7535 403.325 93.3135ZM404.836 91.2975C404.836 94.0815 406.612 95.8415 409.108 95.8415C411.284 95.8415 412.708 94.6255 413.156 92.8815H411.588C411.268 93.9855 410.404 94.6095 409.108 94.6095C407.508 94.6095 406.324 93.4735 406.324 91.2975C406.324 89.1535 407.508 88.0175 409.108 88.0175C410.404 88.0175 411.284 88.6895 411.588 89.7455H413.156C412.708 87.9055 411.284 86.7855 409.108 86.7855C406.612 86.7855 404.836 88.5455 404.836 91.2975ZM414.555 91.2815C414.555 94.0015 416.363 95.8415 418.699 95.8415C420.315 95.8415 421.451 95.0095 421.979 94.0655V95.6975H423.451V86.9295H421.979V88.5295C421.467 87.6175 420.347 86.7855 418.715 86.7855C416.363 86.7855 414.555 88.5455 414.555 91.2815ZM421.979 91.2975C421.979 93.3615 420.603 94.5615 419.003 94.5615C417.403 94.5615 416.043 93.3455 416.043 91.2815C416.043 89.2175 417.403 88.0495 419.003 88.0495C420.603 88.0495 421.979 89.2655 421.979 91.2975ZM432.328 95.6975H433.768V90.5295C433.768 88.0175 432.216 86.7695 430.184 86.7695C429 86.7695 427.944 87.2655 427.368 88.1775V86.9295H425.912V95.6975H427.368V90.8495C427.368 88.9615 428.392 88.0335 429.88 88.0335C431.352 88.0335 432.328 88.9455 432.328 90.7375V95.6975ZM442.562 95.6975H444.002V90.5295C444.002 88.0175 442.45 86.7695 440.418 86.7695C439.234 86.7695 438.178 87.2655 437.602 88.1775V86.9295H436.146V95.6975H437.602V90.8495C437.602 88.9615 438.626 88.0335 440.114 88.0335C441.586 88.0335 442.562 88.9455 442.562 90.7375V95.6975ZM446.38 95.6975H447.836V86.9295H446.38V95.6975ZM447.132 85.5055C447.66 85.5055 448.092 85.0735 448.092 84.5135C448.092 83.9535 447.66 83.5215 447.132 83.5215C446.572 83.5215 446.14 83.9535 446.14 84.5135C446.14 85.0735 446.572 85.5055 447.132 85.5055ZM456.734 95.6975H458.174V90.5295C458.174 88.0175 456.622 86.7695 454.59 86.7695C453.406 86.7695 452.35 87.2655 451.774 88.1775V86.9295H450.318V95.6975H451.774V90.8495C451.774 88.9615 452.798 88.0335 454.286 88.0335C455.758 88.0335 456.734 88.9455 456.734 90.7375V95.6975ZM460.008 91.2815C460.008 94.0015 461.816 95.8415 464.168 95.8415C465.768 95.8415 466.904 94.9935 467.432 94.0495V95.8895C467.432 97.7615 466.264 98.7535 464.712 98.7535C463.272 98.7535 462.232 98.0335 461.912 96.9775H460.472C460.76 98.8495 462.408 100.018 464.712 100.018C467.288 100.018 468.904 98.3055 468.904 95.8895V86.9295H467.432V88.5295C466.92 87.5855 465.768 86.7855 464.168 86.7855C461.816 86.7855 460.008 88.5455 460.008 91.2815ZM467.432 91.2975C467.432 93.3615 466.056 94.5615 464.456 94.5615C462.856 94.5615 461.496 93.3455 461.496 91.2815C461.496 89.2175 462.856 88.0495 464.456 88.0495C466.056 88.0495 467.432 89.2655 467.432 91.2975ZM476.574 90.1135C476.574 87.3775 478.334 85.6815 480.686 85.6815C483.038 85.6815 484.798 87.3775 484.798 90.1135C484.798 92.8335 483.038 94.5455 480.686 94.5455C478.334 94.5455 476.574 92.8335 476.574 90.1135ZM486.286 90.1135C486.286 86.7695 483.838 84.4175 480.686 84.4175C477.55 84.4175 475.086 86.7695 475.086 90.1135C475.086 93.4575 477.55 95.8095 480.686 95.8095C481.262 95.8095 481.822 95.7295 482.35 95.5855L484.574 97.8095H486.462L483.646 95.0095C485.246 94.0495 486.286 92.2895 486.286 90.1135ZM494.208 87.8255C494.208 89.0735 493.488 89.9695 491.84 89.9695H489.696V85.7455H491.84C493.504 85.7455 494.208 86.5615 494.208 87.8255ZM488.24 84.5455V95.6975H489.696V91.1375H491.456L494.112 95.6975H495.856L493.056 91.0255C494.928 90.6095 495.712 89.2495 495.712 87.8255C495.712 86.0015 494.464 84.5455 491.84 84.5455H488.24ZM501.696 91.2975C501.696 94.0815 503.472 95.8415 505.968 95.8415C508.144 95.8415 509.568 94.6255 510.016 92.8815H508.448C508.128 93.9855 507.264 94.6095 505.968 94.6095C504.368 94.6095 503.184 93.4735 503.184 91.2975C503.184 89.1535 504.368 88.0175 505.968 88.0175C507.264 88.0175 508.144 88.6895 508.448 89.7455H510.016C509.568 87.9055 508.144 86.7855 505.968 86.7855C503.472 86.7855 501.696 88.5455 501.696 91.2975ZM520.279 91.2975C520.279 88.5295 518.343 86.7855 515.847 86.7855C513.367 86.7855 511.415 88.5295 511.415 91.2975C511.415 94.0815 513.303 95.8415 515.783 95.8415C518.279 95.8415 520.279 94.0815 520.279 91.2975ZM512.903 91.2975C512.903 89.0895 514.295 88.0495 515.831 88.0495C517.335 88.0495 518.791 89.0895 518.791 91.2975C518.791 93.5215 517.303 94.5615 515.783 94.5615C514.263 94.5615 512.903 93.5215 512.903 91.2975ZM521.649 91.2815C521.649 94.0015 523.457 95.8415 525.809 95.8415C527.409 95.8415 528.545 95.0255 529.073 94.0495V95.6975H530.545V83.8575H529.073V88.4975C528.465 87.4895 527.201 86.7855 525.825 86.7855C523.457 86.7855 521.649 88.5455 521.649 91.2815ZM529.073 91.2975C529.073 93.3615 527.697 94.5615 526.097 94.5615C524.497 94.5615 523.137 93.3455 523.137 91.2815C523.137 89.2175 524.497 88.0495 526.097 88.0495C527.697 88.0495 529.073 89.2655 529.073 91.2975ZM536.733 88.0175C538.237 88.0175 539.517 88.9615 539.501 90.6735H533.965C534.125 88.9615 535.309 88.0175 536.733 88.0175ZM540.829 92.9935H539.261C538.941 93.9375 538.109 94.6095 536.797 94.6095C535.309 94.6095 534.061 93.6335 533.949 91.8575H540.957C540.989 91.5535 541.005 91.2975 541.005 90.9775C541.005 88.5775 539.341 86.7855 536.797 86.7855C534.237 86.7855 532.461 88.5295 532.461 91.2975C532.461 94.0815 534.301 95.8415 536.797 95.8415C538.973 95.8415 540.381 94.5935 540.829 92.9935ZM547.513 93.2975C547.513 95.0575 548.393 95.6975 549.945 95.6975H551.257V94.4655H550.185C549.289 94.4655 548.969 94.1615 548.969 93.2975V88.1295H551.257V86.9295H548.969V84.7215H547.513V86.9295H546.377V88.1295H547.513V93.2975ZM553.021 95.6975H554.477V90.8495C554.477 88.9615 555.501 88.0335 556.989 88.0335C558.461 88.0335 559.437 88.9455 559.437 90.7375V95.6975H560.877V90.5295C560.877 88.0175 559.325 86.7695 557.373 86.7695C556.141 86.7695 555.053 87.2655 554.477 88.1935V83.8575H553.021V95.6975ZM562.711 91.2815C562.711 94.0015 564.519 95.8415 566.855 95.8415C568.471 95.8415 569.607 95.0095 570.135 94.0655V95.6975H571.607V86.9295H570.135V88.5295C569.623 87.6175 568.503 86.7855 566.871 86.7855C564.519 86.7855 562.711 88.5455 562.711 91.2815ZM570.135 91.2975C570.135 93.3615 568.759 94.5615 567.159 94.5615C565.559 94.5615 564.199 93.3455 564.199 91.2815C564.199 89.2175 565.559 88.0495 567.159 88.0495C568.759 88.0495 570.135 89.2655 570.135 91.2975ZM574.388 93.2975C574.388 95.0575 575.268 95.6975 576.82 95.6975H578.132V94.4655H577.06C576.164 94.4655 575.844 94.1615 575.844 93.2975V88.1295H578.132V86.9295H575.844V84.7215H574.388V86.9295H573.252V88.1295H574.388V93.2975ZM585.874 95.6975H587.378L589.49 88.7375L591.602 95.6975H593.106L595.842 86.9295H594.402L592.418 94.3055L590.29 86.9295H588.802L586.626 94.2895L584.61 86.9295H583.122L585.874 95.6975ZM597.287 95.6975H598.743V86.9295H597.287V95.6975ZM598.039 85.5055C598.567 85.5055 598.999 85.0735 598.999 84.5135C598.999 83.9535 598.567 83.5215 598.039 83.5215C597.479 83.5215 597.047 83.9535 597.047 84.5135C597.047 85.0735 597.479 85.5055 598.039 85.5055ZM601.224 95.6975H602.68V83.8575H601.224V95.6975ZM605.162 95.6975H606.618V83.8575H605.162V95.6975ZM614.821 88.5615V83.8575H613.365V95.6975H614.821V94.0815C615.365 95.0415 616.501 95.8415 618.101 95.8415C620.453 95.8415 622.261 94.0015 622.261 91.2815C622.261 88.5455 620.469 86.7855 618.101 86.7855C616.549 86.7855 615.381 87.5855 614.821 88.5615ZM620.773 91.2815C620.773 93.3455 619.413 94.5615 617.797 94.5615C616.213 94.5615 614.821 93.3615 614.821 91.2975C614.821 89.2655 616.213 88.0495 617.797 88.0495C619.413 88.0495 620.773 89.2175 620.773 91.2815ZM627.905 88.0175C629.409 88.0175 630.689 88.9615 630.673 90.6735H625.137C625.297 88.9615 626.481 88.0175 627.905 88.0175ZM632.001 92.9935H630.433C630.113 93.9375 629.281 94.6095 627.969 94.6095C626.481 94.6095 625.233 93.6335 625.121 91.8575H632.129C632.161 91.5535 632.177 91.2975 632.177 90.9775C632.177 88.5775 630.513 86.7855 627.969 86.7855C625.409 86.7855 623.633 88.5295 623.633 91.2975C623.633 94.0815 625.473 95.8415 627.969 95.8415C630.145 95.8415 631.553 94.5935 632.001 92.9935ZM198.204 121.282C198.204 124.002 200.012 125.842 202.348 125.842C203.964 125.842 205.1 125.01 205.628 124.066V125.698H207.1V116.93H205.628V118.53C205.116 117.618 203.996 116.786 202.364 116.786C200.012 116.786 198.204 118.546 198.204 121.282ZM205.628 121.298C205.628 123.362 204.252 124.562 202.652 124.562C201.052 124.562 199.692 123.346 199.692 121.282C199.692 119.218 201.052 118.05 202.652 118.05C204.252 118.05 205.628 119.266 205.628 121.298ZM208.52 116.93L211.96 125.698H213.656L217.096 116.93H215.544L212.824 124.354L210.088 116.93H208.52ZM217.985 121.282C217.985 124.002 219.793 125.842 222.129 125.842C223.745 125.842 224.881 125.01 225.409 124.066V125.698H226.881V116.93H225.409V118.53C224.897 117.618 223.777 116.786 222.145 116.786C219.793 116.786 217.985 118.546 217.985 121.282ZM225.409 121.298C225.409 123.362 224.033 124.562 222.433 124.562C220.833 124.562 219.473 123.346 219.473 121.282C219.473 119.218 220.833 118.05 222.433 118.05C224.033 118.05 225.409 119.266 225.409 121.298ZM229.341 125.698H230.797V116.93H229.341V125.698ZM230.093 115.506C230.621 115.506 231.053 115.074 231.053 114.514C231.053 113.954 230.621 113.522 230.093 113.522C229.533 113.522 229.101 113.954 229.101 114.514C229.101 115.074 229.533 115.506 230.093 115.506ZM233.279 125.698H234.735V113.858H233.279V125.698ZM236.672 121.282C236.672 124.002 238.48 125.842 240.816 125.842C242.432 125.842 243.568 125.01 244.096 124.066V125.698H245.568V116.93H244.096V118.53C243.584 117.618 242.464 116.786 240.832 116.786C238.48 116.786 236.672 118.546 236.672 121.282ZM244.096 121.298C244.096 123.362 242.72 124.562 241.12 124.562C239.52 124.562 238.16 123.346 238.16 121.282C238.16 119.218 239.52 118.05 241.12 118.05C242.72 118.05 244.096 119.266 244.096 121.298ZM249.485 118.562V113.858H248.029V125.698H249.485V124.082C250.029 125.042 251.165 125.842 252.765 125.842C255.117 125.842 256.925 124.002 256.925 121.282C256.925 118.546 255.133 116.786 252.765 116.786C251.213 116.786 250.045 117.586 249.485 118.562ZM255.437 121.282C255.437 123.346 254.077 124.562 252.461 124.562C250.877 124.562 249.485 123.362 249.485 121.298C249.485 119.266 250.877 118.05 252.461 118.05C254.077 118.05 255.437 119.218 255.437 121.282ZM258.841 125.698H260.297V113.858H258.841V125.698ZM266.507 118.018C268.011 118.018 269.291 118.962 269.275 120.674H263.739C263.899 118.962 265.083 118.018 266.507 118.018ZM270.603 122.994H269.035C268.715 123.938 267.883 124.61 266.571 124.61C265.083 124.61 263.835 123.634 263.723 121.858H270.731C270.763 121.554 270.779 121.298 270.779 120.978C270.779 118.578 269.115 116.786 266.571 116.786C264.011 116.786 262.235 118.53 262.235 121.298C262.235 124.082 264.075 125.842 266.571 125.842C268.747 125.842 270.155 124.594 270.603 122.994ZM277.238 125.698H278.694V118.13H280.534V116.93H278.694V116.306C278.694 115.17 279.126 114.69 280.438 114.69V113.474C278.198 113.474 277.238 114.354 277.238 116.306V116.93H276.102V118.13H277.238V125.698ZM290.552 121.298C290.552 118.53 288.616 116.786 286.12 116.786C283.64 116.786 281.688 118.53 281.688 121.298C281.688 124.082 283.576 125.842 286.056 125.842C288.552 125.842 290.552 124.082 290.552 121.298ZM283.176 121.298C283.176 119.09 284.568 118.05 286.104 118.05C287.608 118.05 289.064 119.09 289.064 121.298C289.064 123.522 287.576 124.562 286.056 124.562C284.536 124.562 283.176 123.522 283.176 121.298ZM293.922 120.93C293.922 118.898 294.978 118.274 296.37 118.274H296.754V116.77C295.362 116.77 294.418 117.378 293.922 118.354V116.93H292.466V125.698H293.922V120.93ZM311.021 121.298C311.021 118.53 309.085 116.786 306.589 116.786C304.109 116.786 302.157 118.53 302.157 121.298C302.157 124.082 304.045 125.842 306.525 125.842C309.021 125.842 311.021 124.082 311.021 121.298ZM303.645 121.298C303.645 119.09 305.037 118.05 306.573 118.05C308.077 118.05 309.533 119.09 309.533 121.298C309.533 123.522 308.045 124.562 306.525 124.562C305.005 124.562 303.645 123.522 303.645 121.298ZM313.255 123.298C313.255 125.058 314.135 125.698 315.687 125.698H316.999V124.466H315.927C315.031 124.466 314.711 124.162 314.711 123.298V118.13H316.999V116.93H314.711V114.722H313.255V116.93H312.119V118.13H313.255V123.298ZM318.763 125.698H320.219V120.85C320.219 118.962 321.243 118.034 322.731 118.034C324.203 118.034 325.179 118.946 325.179 120.738V125.698H326.619V120.53C326.619 118.018 325.067 116.77 323.115 116.77C321.883 116.77 320.795 117.266 320.219 118.194V113.858H318.763V125.698ZM332.726 118.018C334.23 118.018 335.51 118.962 335.494 120.674H329.958C330.118 118.962 331.302 118.018 332.726 118.018ZM336.822 122.994H335.254C334.934 123.938 334.102 124.61 332.79 124.61C331.302 124.61 330.054 123.634 329.942 121.858H336.95C336.982 121.554 336.998 121.298 336.998 120.978C336.998 118.578 335.334 116.786 332.79 116.786C330.23 116.786 328.454 118.53 328.454 121.298C328.454 124.082 330.294 125.842 332.79 125.842C334.966 125.842 336.374 124.594 336.822 122.994ZM340.376 120.93C340.376 118.898 341.432 118.274 342.824 118.274H343.208V116.77C341.816 116.77 340.872 117.378 340.376 118.354V116.93H338.92V125.698H340.376V120.93ZM361.81 125.698H363.25V120.53C363.25 118.018 361.698 116.77 359.698 116.77C358.354 116.77 357.106 117.458 356.594 118.722C356.018 117.41 354.818 116.77 353.378 116.77C352.226 116.77 351.186 117.266 350.61 118.194V116.93H349.154V125.698H350.61V120.866C350.61 118.978 351.618 118.034 353.09 118.034C354.53 118.034 355.49 118.946 355.49 120.738V125.698H356.93V120.866C356.93 118.978 357.938 118.034 359.41 118.034C360.85 118.034 361.81 118.946 361.81 120.738V125.698ZM369.366 118.018C370.87 118.018 372.15 118.962 372.134 120.674H366.598C366.758 118.962 367.942 118.018 369.366 118.018ZM373.462 122.994H371.894C371.574 123.938 370.742 124.61 369.43 124.61C367.942 124.61 366.694 123.634 366.582 121.858H373.59C373.622 121.554 373.638 121.298 373.638 120.978C373.638 118.578 371.974 116.786 369.43 116.786C366.87 116.786 365.094 118.53 365.094 121.298C365.094 124.082 366.934 125.842 369.43 125.842C371.606 125.842 373.014 124.594 373.462 122.994ZM377.016 120.93C377.016 118.898 378.072 118.274 379.464 118.274H379.848V116.77C378.456 116.77 377.512 117.378 377.016 118.354V116.93H375.56V125.698H377.016V120.93ZM380.985 121.298C380.985 124.082 382.761 125.842 385.257 125.842C387.433 125.842 388.857 124.626 389.305 122.882H387.737C387.417 123.986 386.553 124.61 385.257 124.61C383.657 124.61 382.473 123.474 382.473 121.298C382.473 119.154 383.657 118.018 385.257 118.018C386.553 118.018 387.433 118.69 387.737 119.746H389.305C388.857 117.906 387.433 116.786 385.257 116.786C382.761 116.786 380.985 118.546 380.985 121.298ZM391.248 125.698H392.704V120.85C392.704 118.962 393.728 118.034 395.216 118.034C396.688 118.034 397.664 118.946 397.664 120.738V125.698H399.104V120.53C399.104 118.018 397.552 116.77 395.6 116.77C394.368 116.77 393.28 117.266 392.704 118.194V113.858H391.248V125.698ZM400.938 121.282C400.938 124.002 402.746 125.842 405.082 125.842C406.698 125.842 407.834 125.01 408.362 124.066V125.698H409.834V116.93H408.362V118.53C407.85 117.618 406.73 116.786 405.098 116.786C402.746 116.786 400.938 118.546 400.938 121.282ZM408.362 121.298C408.362 123.362 406.986 124.562 405.386 124.562C403.786 124.562 402.426 123.346 402.426 121.282C402.426 119.218 403.786 118.05 405.386 118.05C406.986 118.05 408.362 119.266 408.362 121.298ZM418.711 125.698H420.151V120.53C420.151 118.018 418.599 116.77 416.567 116.77C415.383 116.77 414.327 117.266 413.751 118.178V116.93H412.295V125.698H413.751V120.85C413.751 118.962 414.775 118.034 416.263 118.034C417.735 118.034 418.711 118.946 418.711 120.738V125.698ZM422.849 123.298C422.849 125.058 423.729 125.698 425.281 125.698H426.593V124.466H425.521C424.625 124.466 424.305 124.162 424.305 123.298V118.13H426.593V116.93H424.305V114.722H422.849V116.93H421.713V118.13H422.849V123.298ZM434.661 123.314C434.597 120.178 429.509 121.314 429.509 119.234C429.509 118.53 430.149 118.018 431.221 118.018C432.389 118.018 433.061 118.658 433.125 119.538H434.581C434.485 117.826 433.205 116.786 431.269 116.786C429.317 116.786 428.053 117.89 428.053 119.234C428.053 122.498 433.237 121.362 433.237 123.314C433.237 124.034 432.597 124.61 431.445 124.61C430.213 124.61 429.461 123.97 429.381 123.122H427.877C427.973 124.722 429.413 125.842 431.461 125.842C433.397 125.842 434.661 124.754 434.661 123.314Z" fill="#656668"/>
</svg>
