<svg width="220" height="181" viewBox="0 0 220 181" fill="none" xmlns="http://www.w3.org/2000/svg">
<path d="M11.9872 53.0605C15.087 46.9124 18.7105 41.7804 22.7646 38.0952C23.914 37.036 25.15 36.0748 26.4595 35.2215C27.6323 34.4564 28.8727 33.8003 30.1651 33.2613C48.6394 25.6245 67.5567 43.0016 88.691 40.9491C106.406 39.2246 119.155 29.3811 130.457 21.1187C134.16 18.2954 138.037 15.7072 142.065 13.3692C143.133 12.7742 144.21 12.2301 145.278 11.7473C146.428 11.2344 147.649 10.7522 148.952 10.3107C148.952 10.308 148.953 10.3054 148.955 10.3035C148.957 10.3016 148.96 10.3005 148.963 10.3005L148.973 10.3107C165.344 4.6959 192.996 4.90161 205.251 16.9824C218.081 29.6378 233.662 70.653 198.374 123.483C159.165 182.203 52.039 190.322 23.4124 170.902C-6.21102 150.826 -5.02047 86.7987 11.9872 53.0605Z" fill="#D6DCFD"/>
<path d="M39.5132 25.6343C45.7542 17.4172 52.3324 18.5773 56.8982 20.5635C59.1709 21.6011 61.0824 23.2933 62.3878 25.4234C63.6932 27.5535 64.3334 30.0247 64.2262 32.5208C64.1458 33.8332 63.8653 35.2154 64.3963 36.4168C65.2548 38.3498 67.7527 38.8944 69.1995 40.4369C71.1772 42.5467 70.7392 45.8868 70.0711 48.6999C69.403 51.513 68.6997 54.7256 70.3545 57.0972C71.8698 59.2693 74.7588 59.8519 77.1418 61.0074C78.7254 61.7633 80.1313 62.8453 81.2676 64.1824C82.4039 65.5196 83.2448 67.0818 83.7353 68.7666C84.1983 70.46 84.2345 72.2418 83.8406 73.9526C83.4467 75.6634 82.635 77.25 81.4781 78.5704C79.1614 81.0945 75.6831 82.2131 72.2943 82.7124C67.3442 83.4061 62.3023 83.0109 57.5208 81.5543C52.7393 80.0978 48.3333 77.615 44.6107 74.2794C40.935 70.8919 38.0432 66.7429 36.1371 62.1221C34.231 57.5013 33.3564 52.52 33.5748 47.5263" fill="#2E353A"/>
<path d="M77.9198 79.4147C77.9011 79.3949 78.1346 79.2113 78.4865 78.7811C79.0009 78.1583 79.3791 77.4346 79.5966 76.6566C79.9126 75.4183 79.924 74.122 79.6296 72.8784C79.2761 71.2233 78.4738 69.6974 77.3106 68.4679C76.6437 67.7504 75.8844 67.1246 75.0528 66.6068C74.137 66.0603 73.175 65.5949 72.178 65.2162C71.0909 64.806 70.0391 64.308 69.033 63.7269C67.9746 63.0653 67.0515 62.2088 66.3128 61.2028C64.7547 59.0187 63.9119 56.4053 63.9003 53.7225C63.8718 52.3208 63.9906 50.9199 64.2551 49.5431C64.5095 48.1479 64.8632 46.7606 65.1329 45.3495C65.3429 44.3687 65.4584 43.3699 65.478 42.367C65.4306 41.3923 65.2083 40.4341 64.8218 39.5381C64.4596 38.6314 64.0335 37.7513 63.6924 36.8355C63.3912 35.9175 63.1938 34.9686 63.1041 34.0066C62.9908 33.0647 62.9908 32.1365 62.8843 31.2536C62.7887 30.3784 62.6209 29.5125 62.3827 28.6649C61.9603 27.064 61.2519 25.5527 60.2917 24.2039L60.2809 24.1886V24.1852C59.5655 23.0719 58.62 22.1248 57.5079 21.4077C56.3957 20.6906 55.1429 20.2201 53.8336 20.0279C51.7976 19.7428 49.7258 20.1758 47.9745 21.2525C46.8425 21.93 45.8653 22.8374 45.1059 23.916C44.5868 24.6652 44.3946 25.1191 44.3691 25.1061C44.5385 24.6672 44.7572 24.2489 45.0209 23.8593C45.757 22.7367 46.7299 21.7889 47.8714 21.0825C49.6548 19.9459 51.7814 19.4734 53.8783 19.748C55.2357 19.9339 56.5372 20.4102 57.6941 21.1443C58.8509 21.8784 59.836 22.8531 60.5823 24.0021L60.5688 23.984C61.5701 25.3651 62.3102 26.9177 62.7528 28.5652C63 29.4312 63.1751 30.3162 63.2764 31.2111C63.3897 32.1286 63.3898 33.0483 63.5031 33.9647C63.5915 34.8936 63.7826 35.8099 64.0731 36.6967C64.4052 37.5841 64.832 38.4619 65.2032 39.3868C65.6091 40.327 65.842 41.3328 65.8911 42.3557C65.8737 43.3883 65.7562 44.4167 65.5404 45.4266C65.2672 46.8558 64.9136 48.2408 64.6609 49.6173C64.3999 50.9661 64.2812 52.3386 64.3067 53.7123C64.3109 56.3141 65.1188 58.851 66.6199 60.9761C67.3268 61.9476 68.2113 62.7764 69.2267 63.4186C70.2133 63.9945 71.2449 64.4899 72.3112 64.8999C73.3228 65.2923 74.2976 65.7732 75.2245 66.3371C76.0748 66.8763 76.8495 67.5265 77.5277 68.2706C78.7111 69.5465 79.5174 71.1254 79.8573 72.832C80.1408 74.111 80.1049 75.4401 79.7526 76.7019C79.5145 77.4931 79.1041 78.2217 78.5511 78.8355C78.3652 79.0537 78.1532 79.2482 77.9198 79.4147Z" fill="#4D5A64"/>
<path d="M55.0977 69.7662C55.5033 69.2193 55.9853 68.7334 56.5291 68.3234C57.0092 67.8405 57.5564 67.4292 58.1537 67.1022C57.7479 67.6489 57.2659 68.1348 56.7223 68.545C56.242 69.0276 55.6948 69.4389 55.0977 69.7662Z" fill="#FAFAFA"/>
<path d="M53.0668 64.5558L34.2526 66.847C34.2526 66.847 19.1139 69.5994 16.0713 80.9373C13.9694 88.7673 9.61944 103.352 7.12882 111.627C6.60812 113.358 6.70789 115.215 7.41092 116.88C8.11395 118.545 9.37607 119.911 10.9795 120.745C11.9236 121.236 12.9587 121.527 14.0203 121.601C15.0819 121.674 16.1473 121.529 17.1503 121.173C18.1533 120.818 19.0723 120.26 19.8504 119.534C20.6285 118.808 21.2489 117.93 21.6731 116.954L29.9015 98.0186C29.9015 98.0186 32.8013 104.632 32.6346 107.761C32.468 110.889 25.9339 122.385 25.9339 122.385C39.8304 130.354 53.9519 129.348 64.9356 124.368L64.4115 94.4433C64.4115 94.4433 69.5826 121.144 80.0556 119.11C88.8354 117.406 83.054 100.296 80.0556 93.7497C76.231 85.4028 71.2412 73.4949 68.0983 70.624C59.6789 62.9255 53.0668 64.5558 53.0668 64.5558Z" fill="#E8505B"/>
<g opacity="0.2">
<g opacity="0.2">
<g opacity="0.2">
<path opacity="0.2" d="M35.682 68.6911C34.4745 70.4233 33.0313 71.9787 31.3943 73.3125C30.3761 74.3086 29.1902 75.1174 27.8911 75.7017C27.238 75.9876 26.5249 76.1099 25.8138 76.0577C25.1028 76.0056 24.4153 75.7806 23.8109 75.4024C22.6571 74.5722 22.2038 72.7645 23.102 71.6623C23.6959 70.9341 24.674 70.6688 25.5864 70.4439L34.7266 68.1907" fill="black"/>
</g>
</g>
</g>
<path d="M11.6855 103.57C12.4051 102.886 13.3023 102.418 14.2748 102.218C15.2232 101.925 16.2351 101.903 17.1951 102.157C16.2384 102.198 15.2864 102.314 14.3479 102.503C13.4339 102.789 12.5437 103.145 11.6855 103.57Z" fill="#2E353A"/>
<path d="M14.168 100.969C14.7663 100.6 15.4782 100.462 16.1712 100.579C16.8739 100.596 17.5465 100.867 18.064 101.343C17.436 101.14 16.7942 100.982 16.1435 100.871C15.4835 100.856 14.8232 100.888 14.168 100.969Z" fill="#2E353A"/>
<g opacity="0.2">
<g opacity="0.2">
<g opacity="0.2">
<path opacity="0.2" d="M17.9135 102.367C17.0888 101.969 16.1745 101.793 15.2609 101.856C14.3472 101.92 13.4659 102.22 12.704 102.728C12.3889 102.944 11.9904 103.205 11.6612 103.012C11.3455 102.826 11.3642 102.349 11.5387 102.027C11.9558 101.261 12.9079 100.97 13.7761 100.88C15.3501 100.718 16.9391 100.973 18.3834 101.62" fill="black"/>
</g>
</g>
</g>
<g opacity="0.2">
<g opacity="0.2">
<g opacity="0.2">
<path opacity="0.2" d="M48.4879 89.7196C47.4973 91.7149 44.6475 92.9645 43.3135 95.1411C42.1869 96.9784 41.767 99.146 41.0886 101.192C39.1767 106.881 35.2451 111.673 30.0381 114.659C31.0695 112.704 31.9073 110.653 32.5395 108.535C32.6771 107.244 32.4866 105.939 31.9858 104.742C32.6324 102.758 35.4597 100.018 36.7551 98.3809C38.2416 96.3663 39.9263 94.5058 41.784 92.8273C43.6571 91.1428 45.9926 90.0593 48.4885 89.7173" fill="black"/>
</g>
</g>
</g>
<path d="M71.7464 102.683C71.7835 103.221 71.7714 103.76 71.7102 104.295C71.6597 105.287 71.5475 106.656 71.6099 108.159C71.717 111.19 72.8907 113.429 72.7762 113.464C72.7581 113.473 72.6792 113.34 72.5494 113.091C72.3716 112.738 72.2139 112.376 72.0768 112.005C71.6251 110.775 71.3674 109.482 71.313 108.173C71.2783 106.872 71.341 105.57 71.5006 104.278C71.533 103.74 71.6152 103.206 71.7464 102.683Z" fill="#2E353A"/>
<path d="M49.5627 82.2299C49.5627 82.2299 51.5461 83.1083 53.0943 83.8167C55.5391 84.9376 56.3534 82.9003 56.3534 82.9003L49.5571 77.9871C48.6595 77.352 47.5897 77.0055 46.4902 76.9937C45.3907 76.982 44.3136 77.3055 43.4027 77.9213C42.847 78.3033 42.3666 78.7848 41.986 79.3415L37.1226 86.2552L10.6625 107.357C6.52564 110.659 6.38681 116.232 10.5736 119.474C12.1053 120.666 14.0337 121.23 15.9664 121.051C17.8992 120.872 19.6911 119.963 20.978 118.51L42.7046 93.969L45.5102 91.8071L48.8107 89.4128C48.8107 89.4128 51.2775 87.6288 49.2448 85.8194C48.5869 85.2334 49.854 85.2453 49.9815 84.3964C50.0473 83.9544 49.9181 83.8739 49.144 83.3339C49.1456 83.3327 50.3584 83.3605 49.5627 82.2299Z" fill="#B78876"/>
<path d="M49.4993 82.805C49.4636 82.8294 49.3068 82.639 49.0461 82.3517C48.7311 81.976 48.3288 81.6832 47.8746 81.4988C47.6514 81.4251 47.4142 81.4034 47.1812 81.4353C46.9483 81.4672 46.7256 81.5519 46.5304 81.683C46.2329 81.8961 46.1672 82.1448 46.1196 82.1284C46.0896 82.1324 46.0783 81.8303 46.3973 81.5232C46.6101 81.3397 46.8672 81.2152 47.1432 81.1621C47.4191 81.1091 47.7041 81.1292 47.9698 81.2206C48.4762 81.418 48.9089 81.7677 49.2081 82.2213C49.4365 82.5546 49.5311 82.7846 49.4993 82.805Z" fill="#996552"/>
<path d="M46.1023 84.5211C46.0745 84.499 46.1702 84.308 46.4354 84.0955C46.7897 83.8204 47.2257 83.6716 47.6742 83.6727C48.1228 83.6752 48.5578 83.8276 48.9097 84.1057C49.1733 84.3199 49.2678 84.512 49.2394 84.5336C49.2111 84.5551 49.0593 84.4282 48.793 84.2769C48.452 84.0804 48.0666 83.9737 47.6731 83.9669C47.2796 83.9705 46.8934 84.0742 46.5511 84.2683C46.2836 84.4168 46.1357 84.5511 46.1023 84.5211Z" fill="#996552"/>
<path d="M46.1023 86.52C46.0745 86.4979 46.1702 86.3069 46.4354 86.0944C46.7897 85.8193 47.2257 85.6705 47.6742 85.6716C48.1228 85.6741 48.5578 85.8265 48.9097 86.1046C49.1733 86.3188 49.2678 86.5103 49.2394 86.5324C49.2111 86.5545 49.0593 86.4271 48.793 86.2758C48.452 86.0793 48.0666 85.9726 47.6731 85.9657C47.2796 85.9693 46.8934 86.0731 46.5511 86.2672C46.2836 86.4157 46.1357 86.55 46.1023 86.52Z" fill="#996552"/>
<path d="M68.835 76.5659L70.7012 78.5878C70.7012 78.5878 71.3245 107.206 72.4119 111.093C73.4994 114.981 79.8777 121.514 83.2988 116.225C86.72 110.937 78.1667 77.1881 78.1667 77.1881C78.1667 77.1881 75.8338 69.4119 75.6779 67.5458L68.835 76.5659Z" fill="#B78876"/>
<path d="M73.121 59.9911L72.3843 79.7603C72.3585 80.4547 72.1572 81.1312 71.799 81.7267C71.4409 82.3222 70.9375 82.8172 70.3362 83.1655L64.382 86.6099C64.0073 86.8266 63.5821 86.9409 63.1492 86.9411C62.7163 86.9414 62.2909 86.8276 61.9159 86.6113C61.5409 86.3949 61.2295 86.0837 61.013 85.7088C60.7965 85.3339 60.6826 84.9086 60.6826 84.4757V66.1715C60.6827 65.6612 60.8193 65.1603 61.0784 64.7207C61.3375 64.2811 61.7096 63.919 62.1559 63.6718L71.0678 58.7302C71.2823 58.6117 71.5244 58.5522 71.7693 58.5579C72.0142 58.5635 72.2531 58.634 72.4619 58.7622C72.6706 58.8904 72.8417 59.0717 72.9575 59.2876C73.0732 59.5035 73.1297 59.7463 73.121 59.9911Z" fill="#4D5A64"/>
<path d="M66.272 65.2032C66.1956 65.3585 66.1505 65.5274 66.1394 65.7002C66.1283 65.8729 66.1515 66.0461 66.2074 66.21C66.2632 66.3738 66.3509 66.525 66.4652 66.655C66.5796 66.7849 66.7184 66.8911 66.8738 66.9673C67.0291 67.0437 67.198 67.0887 67.3708 67.0998C67.5435 67.1109 67.7168 67.0878 67.8806 67.032C68.0444 66.9761 68.1956 66.8885 68.3255 66.7741C68.4555 66.6597 68.5617 66.5209 68.6379 66.3655C68.7143 66.2102 68.7593 66.0413 68.7703 65.8685C68.7814 65.6958 68.7584 65.5226 68.7026 65.3587C68.6467 65.1949 68.559 65.0437 68.4447 64.9137C68.3303 64.7838 68.1915 64.6776 68.0361 64.6014C67.8808 64.525 67.7119 64.48 67.5391 64.4689C67.3664 64.4578 67.1931 64.4809 67.0293 64.5368C66.8655 64.5926 66.7143 64.6803 66.5844 64.7946C66.4544 64.909 66.3482 65.0478 66.272 65.2032Z" fill="#FAFAFA"/>
<path d="M75.6797 67.546C75.6797 67.546 71.2708 61.4376 70.2927 61.4886C69.3145 61.5396 64.5781 64.372 64.7838 64.9897C64.9896 65.6074 65.9683 65.9678 66.8432 65.5564C67.7182 65.1449 69.263 63.6511 69.6234 63.96C69.9839 64.2688 71.0135 65.3501 71.0135 65.3501C71.0135 65.3501 66.6601 67.5721 66.3286 68.4391C65.9885 69.326 65.1952 70.8589 66.2255 71.425C66.8965 71.7939 67.976 71.3735 68.3879 69.6229C68.3879 69.6229 67.564 72.1459 68.8368 72.7636C70.2065 73.4289 70.6275 72.0269 71.7343 70.6526C72.6648 69.4954 73.0837 70.9683 73.0837 70.9683L75.6797 67.546Z" fill="#AA8776"/>
<path d="M72.34 67.5985C72.0735 67.6443 71.8041 67.6705 71.5337 67.6768C70.9014 67.753 70.2944 67.9712 69.7582 68.3149C69.2275 68.6671 68.7833 69.1347 68.4588 69.6828C68.3437 69.9278 68.211 70.1642 68.062 70.3901C68.0547 70.1073 68.1285 69.8283 68.2745 69.586C68.567 68.9679 69.0245 68.4427 69.5966 68.0683C70.1698 67.6959 70.8346 67.4887 71.5178 67.4694C71.7986 67.4338 72.0837 67.4786 72.34 67.5985Z" fill="#996552"/>
<path d="M35.203 27.4426L35.2081 29.9893L35.0421 68.1182C35.0228 72.5447 38.8134 76.0865 43.5533 76.0707C48.3402 76.0548 52.2928 72.4206 52.3857 67.9494C52.4838 63.256 52.6726 58.3156 52.6726 58.3156C52.6726 58.3156 58.7362 57.419 60.1291 49.5528C60.8216 45.6426 60.7389 39.2055 60.5014 33.942C60.4516 32.8189 60.1748 31.7175 59.688 30.7042C59.2012 29.6908 58.5143 28.7865 57.6688 28.0456C56.8232 27.3048 55.8365 26.7428 54.7679 26.3934C53.6994 26.0441 52.5712 25.9146 51.4513 26.0128L35.203 27.4426Z" fill="#B78876"/>
<path d="M58.663 38.7404C58.6608 39.0041 58.5556 39.2566 58.3701 39.4439C58.1845 39.6313 57.9331 39.7388 57.6694 39.7435C57.5405 39.7515 57.4114 39.7337 57.2895 39.691C57.1676 39.6483 57.0555 39.5816 56.9598 39.4949C56.8641 39.4081 56.7867 39.3031 56.7322 39.186C56.6778 39.0689 56.6472 38.9421 56.6426 38.813C56.6447 38.5495 56.7498 38.2971 56.9351 38.1097C57.1204 37.9223 57.3713 37.8145 57.6348 37.8094C57.7639 37.8013 57.8932 37.8192 58.0152 37.862C58.1372 37.9047 58.2494 37.9714 58.3452 38.0582C58.441 38.145 58.5185 38.25 58.573 38.3672C58.6276 38.4844 58.6582 38.6113 58.663 38.7404Z" fill="#2E353A"/>
<path d="M59.0631 37.2638C58.935 37.393 58.1785 36.8104 57.0899 36.7962C56.003 36.7639 55.1937 37.3097 55.0781 37.1742C55.0214 37.1141 55.1535 36.8784 55.5055 36.6313C55.9824 36.3132 56.5462 36.1504 57.1193 36.1655C57.6854 36.1733 58.2342 36.3613 58.6862 36.7022C59.0166 36.9651 59.1254 37.2054 59.0631 37.2638Z" fill="#2E353A"/>
<path d="M48.3396 38.5557C48.3372 38.8194 48.2321 39.0718 48.0464 39.2592C47.8607 39.4465 47.6092 39.554 47.3455 39.5587C47.2166 39.5667 47.0875 39.5488 46.9657 39.506C46.8439 39.4633 46.7318 39.3966 46.6362 39.3099C46.5405 39.2231 46.4633 39.1181 46.4089 39.0011C46.3544 38.884 46.324 38.7572 46.3193 38.6282C46.3214 38.3645 46.4261 38.1121 46.6114 37.9246C46.7967 37.737 47.048 37.6292 47.3116 37.624C47.4406 37.6161 47.5699 37.634 47.6919 37.6768C47.8139 37.7196 47.9261 37.7864 48.0219 37.8732C48.1177 37.96 48.1951 38.0651 48.2496 38.1823C48.3042 38.2995 48.3348 38.4265 48.3396 38.5557Z" fill="#2E353A"/>
<path d="M48.3479 37.2747C48.2198 37.4039 47.4622 36.8214 46.3747 36.8072C45.2878 36.7749 44.4785 37.3206 44.3623 37.1852C44.3057 37.1251 44.4365 36.8894 44.7901 36.6423C45.267 36.3242 45.8306 36.1615 46.4036 36.1765C46.9699 36.1842 47.5188 36.3721 47.971 36.7131C48.3003 36.9761 48.4102 37.2164 48.3479 37.2747Z" fill="#2E353A"/>
<path d="M52.1563 45.4189C52.7331 45.249 53.329 45.1523 53.93 45.131C54.2082 45.1072 54.473 45.0568 54.5228 44.8681C54.5516 44.5814 54.4923 44.2928 54.3528 44.0407C54.1034 43.3633 53.8418 42.6529 53.5679 41.9094C52.4799 38.8753 51.6978 36.3824 51.8202 36.3399C51.9426 36.2974 52.9241 38.72 54.0122 41.7558C54.2732 42.5038 54.5231 43.2183 54.7619 43.899C54.931 44.2376 54.9751 44.6249 54.8866 44.9928C54.8444 45.0898 54.7807 45.1759 54.7003 45.2446C54.6199 45.3134 54.5249 45.3629 54.4225 45.3895C54.2678 45.428 54.1088 45.447 53.9494 45.4461C53.3529 45.5129 52.7504 45.5038 52.1563 45.4189Z" fill="#2E353A"/>
<path d="M52.6736 58.3145C48.9584 58.3057 45.3185 57.266 42.1592 55.311C42.1592 55.311 44.6259 60.7757 52.5342 60.1778L52.6736 58.3145Z" fill="#996552"/>
<path d="M51.6426 48.0372C51.44 47.7727 51.1734 47.5642 50.8679 47.4312C50.5625 47.2983 50.2282 47.2453 49.8966 47.2773C49.6563 47.2948 49.4221 47.3607 49.2078 47.4709C48.9936 47.5811 48.8038 47.7335 48.6499 47.9188C48.5008 48.0974 48.4103 48.3177 48.3907 48.5495C48.3712 48.7814 48.4235 49.0137 48.5406 49.2148C48.712 49.4133 48.9387 49.5562 49.1918 49.625C49.4449 49.6939 49.7128 49.6856 49.9612 49.6013C50.4786 49.4281 50.9568 49.1543 51.3678 48.7954C51.4921 48.7106 51.5993 48.6031 51.684 48.4786C51.7251 48.4193 51.7477 48.3491 51.7487 48.2769C51.7497 48.2047 51.7291 48.1339 51.6896 48.0735" fill="#996552"/>
<path d="M48.9408 46.1139C49.1182 46.1065 49.0995 47.2886 50.0958 48.1449C51.092 49.0012 52.3523 48.8941 52.3586 49.0595C52.3739 49.1338 52.0752 49.2862 51.5425 49.2862C50.8501 49.2837 50.1807 49.037 49.6521 48.5897C49.1454 48.1602 48.8253 47.5506 48.7594 46.8896C48.7215 46.3961 48.8586 46.1076 48.9408 46.1139Z" fill="#2E353A"/>
<path d="M25.7027 71.8972C28.8322 72.1336 31.9349 71.1738 34.3843 69.2117C36.8338 67.2495 38.4476 64.4311 38.8999 61.3255C38.9645 60.7873 39.0853 60.2574 39.2603 59.7444C40.1319 57.4159 40.2362 54.8698 39.5583 52.4777C39.2653 51.3738 38.8461 50.165 39.3476 49.1393C39.7114 48.3947 40.4747 47.9492 41.0992 47.4041C42.4793 46.1188 43.3126 44.3522 43.4267 42.4698C43.5299 40.6013 43.2214 38.7329 42.5228 36.9967C42.1652 36.0333 41.7294 34.981 42.0932 34.021C42.424 33.3722 42.9039 32.8111 43.4935 32.3838C44.6363 31.3537 45.5862 30.128 46.2986 28.7643C47.0212 27.3799 47.4888 25.5812 45.6045 24.4835C45.206 24.259 44.7691 24.1106 44.3163 24.046C40.9819 23.5292 37.006 24.0256 34.7743 26.6528C32.9541 28.7915 32.6957 31.8097 32.5195 34.6115C31.9652 43.4411 17.3473 59.8453 22.999 71.938L25.7027 71.8972Z" fill="#2E353A"/>
<path d="M48.7009 33.0131C48.5876 33.3072 47.5041 33.1474 46.2245 33.2789C44.9415 33.3843 43.905 33.7402 43.7401 33.4716C43.667 33.343 43.8534 33.0681 44.2728 32.7887C44.832 32.441 45.4662 32.2315 46.1226 32.1778C46.7765 32.1108 47.4369 32.2005 48.0493 32.4397C48.5179 32.6369 48.7497 32.8737 48.7009 33.0131Z" fill="#2E353A"/>
<path d="M58.718 34.1041C58.5219 34.3478 57.7768 34.0775 56.8751 34.0474C55.9747 33.9879 55.2067 34.184 55.0356 33.9222C54.9608 33.7953 55.0855 33.5499 55.4233 33.3215C55.8737 33.0422 56.3999 32.9099 56.929 32.943C57.4586 32.9612 57.9694 33.144 58.3904 33.466C58.7043 33.7284 58.8047 33.9846 58.718 34.1041Z" fill="#2E353A"/>
<path d="M145.768 44.8791L167.465 47.5216C167.465 47.5216 184.923 50.6951 188.433 63.771C190.856 72.8007 195.873 89.6202 198.747 99.1639C199.986 103.281 198.611 107.085 194.318 109.618L194.281 109.635C193.189 110.163 192.004 110.471 190.793 110.539C189.582 110.607 188.37 110.435 187.226 110.032C186.082 109.63 185.029 109.005 184.127 108.194C183.226 107.383 182.494 106.402 181.973 105.306L172.484 83.4704C172.484 83.4704 169.141 91.0976 169.332 94.7052C169.524 98.3127 177.06 111.57 177.06 111.57C161.034 120.76 144.748 119.601 132.082 113.854L132.686 79.3421C132.686 79.3421 126.723 110.133 114.645 107.79C104.52 105.824 111.188 86.0903 114.645 78.5425C119.056 68.9171 124.81 55.1844 128.433 51.8738C138.142 42.9988 145.768 44.8791 145.768 44.8791Z" fill="#EBEBEB"/>
<path d="M165.026 19.1063C165.156 19.0536 170.25 17.7179 169.942 22.8692C169.635 28.0204 164.526 26.6485 164.525 26.5006C164.525 26.3526 165.026 19.1063 165.026 19.1063Z" fill="#FFBE9D"/>
<path d="M166.198 24.6465C166.222 24.6312 166.284 24.7146 166.431 24.7933C166.639 24.897 166.879 24.9161 167.101 24.8466C167.658 24.6794 168.167 23.8435 168.248 22.9164C168.288 22.4755 168.228 22.0313 168.074 21.6164C168.035 21.4526 167.957 21.3006 167.847 21.1735C167.737 21.0465 167.597 20.9482 167.44 20.8871C167.339 20.8536 167.229 20.8567 167.129 20.8958C167.03 20.935 166.947 21.0077 166.896 21.1013C166.818 21.2413 166.845 21.3461 166.817 21.3529C166.802 21.3654 166.711 21.2605 166.766 21.0503C166.802 20.9243 166.88 20.8147 166.988 20.7398C167.136 20.6413 167.317 20.6049 167.492 20.6383C167.701 20.6929 167.892 20.8001 168.048 20.9497C168.204 21.0993 168.319 21.2863 168.381 21.4929C168.575 21.9518 168.652 22.4511 168.608 22.947C168.513 23.983 167.924 24.9225 167.166 25.0937C167.025 25.1255 166.879 25.1253 166.738 25.0932C166.598 25.061 166.466 24.9976 166.353 24.9078C166.2 24.7718 166.18 24.6545 166.198 24.6465Z" fill="#EB996E"/>
<path d="M152.144 0.705688C149.526 0.705688 146.861 0.705678 143.587 2.41653C141.52 3.49325 140.231 5.20524 139.155 7.27311C138.297 8.95332 137.878 10.8236 137.937 12.7094C138.032 14.4911 138.039 15.7367 138.75 17.3728" fill="#263238"/>
<path d="M153.157 1.10419C151.317 0.97475 149.47 1.21307 147.724 1.80523C145.977 2.39738 144.365 3.33149 142.984 4.5531C141.602 5.7747 140.477 7.25932 139.675 8.92029C138.873 10.5812 138.41 12.3853 138.313 14.2271C137.973 20.6807 137.679 27.6578 137.75 31.1753C137.904 38.7186 145.457 39.8315 145.457 39.8315C145.457 39.8315 145.291 42.0689 145.104 44.8434C145.015 46.1698 145.193 47.5006 145.628 48.7569C146.062 50.0133 146.744 51.1697 147.633 52.1578C148.523 53.1459 149.601 53.9455 150.805 54.5094C152.009 55.0733 153.314 55.3899 154.642 55.4406C155.947 55.49 157.248 55.2818 158.473 54.8279C159.697 54.3739 160.82 53.6831 161.777 52.795C162.734 51.9069 163.507 50.8388 164.051 49.6519C164.595 48.4649 164.899 47.1824 164.947 45.8776L166.07 15.4733C166.203 11.87 164.93 8.35615 162.52 5.67428C160.109 2.99241 156.751 1.35261 153.154 1.10136L153.157 1.10419Z" fill="#FFBE9D"/>
<path d="M145.476 39.8356C148.922 39.7913 152.282 38.7561 155.155 36.8536C155.155 36.8536 152.873 42.3421 145.34 41.7227L145.476 39.8356Z" fill="#AA6550"/>
<path d="M141.228 18.4313C141.227 18.7119 141.337 18.9815 141.533 19.1826C141.728 19.3837 141.995 19.5005 142.275 19.508C142.412 19.5178 142.55 19.5 142.68 19.4557C142.81 19.4115 142.93 19.3417 143.033 19.2504C143.136 19.1591 143.219 19.0482 143.279 18.9242C143.338 18.8001 143.372 18.6655 143.378 18.5282C143.379 18.2473 143.27 17.9771 143.075 17.7753C142.879 17.5735 142.613 17.4561 142.332 17.4481C142.195 17.4382 142.056 17.456 141.926 17.5003C141.795 17.5447 141.675 17.6148 141.572 17.7064C141.469 17.7981 141.386 17.9095 141.326 18.034C141.267 18.1585 141.234 18.2936 141.228 18.4313Z" fill="#263238"/>
<path d="M140.183 16.9057C140.317 17.0445 141.128 16.4342 142.288 16.428C143.446 16.4053 144.302 16.9947 144.427 16.8519C144.488 16.7884 144.349 16.5362 143.977 16.2688C143.473 15.9251 142.874 15.746 142.264 15.7559C141.661 15.7584 141.074 15.9529 140.589 16.3113C140.235 16.5878 140.116 16.8434 140.183 16.9057Z" fill="#263238"/>
<path d="M152.578 18.4275C152.578 18.7081 152.687 18.9777 152.883 19.1788C153.079 19.3799 153.345 19.4966 153.626 19.5042C153.763 19.514 153.901 19.4963 154.031 19.4521C154.161 19.4079 154.281 19.338 154.384 19.2467C154.487 19.1554 154.57 19.0445 154.629 18.9204C154.689 18.7964 154.722 18.6617 154.729 18.5244C154.73 18.2435 154.621 17.9735 154.425 17.7718C154.23 17.5701 153.963 17.4528 153.683 17.4448C153.545 17.4349 153.407 17.4526 153.277 17.497C153.146 17.5413 153.026 17.6114 152.923 17.703C152.82 17.7946 152.736 17.9059 152.677 18.0303C152.618 18.1548 152.584 18.2898 152.578 18.4275Z" fill="#263238"/>
<path d="M151.58 17.0328C151.715 17.1716 152.527 16.5613 153.686 16.5556C154.843 16.5329 155.699 17.1223 155.824 16.9795C155.885 16.916 155.749 16.6638 155.374 16.3969C154.87 16.0533 154.272 15.8741 153.662 15.8841C153.059 15.8868 152.472 16.0813 151.987 16.4394C151.634 16.7149 151.514 16.9704 151.58 17.0328Z" fill="#263238"/>
<path d="M147.443 25.6633C146.83 25.4767 146.197 25.3676 145.557 25.3386C145.261 25.3102 144.98 25.2535 144.928 25.0518C144.901 24.7462 144.967 24.4396 145.119 24.1729C145.392 23.455 145.678 22.7013 145.977 21.9118C147.167 18.6918 148.026 16.0459 147.896 15.9994C147.765 15.9529 146.695 18.5241 145.505 21.7434C145.219 22.5368 144.945 23.295 144.685 24.0181C144.502 24.3768 144.45 24.7884 144.54 25.181C144.584 25.2851 144.651 25.3778 144.736 25.4522C144.821 25.5265 144.922 25.5805 145.031 25.61C145.195 25.6532 145.364 25.6755 145.534 25.6763C146.168 25.7527 146.81 25.7483 147.443 25.6633Z" fill="#263238"/>
<path d="M150.86 26.4374C150.671 26.4283 150.678 27.6842 149.608 28.5909C148.538 29.4976 147.198 29.365 147.189 29.5412C147.172 29.6206 147.49 29.7832 148.056 29.794C148.794 29.7984 149.509 29.5428 150.076 29.072C150.621 28.6194 150.968 27.9731 151.045 27.2693C151.089 26.74 150.946 26.4295 150.86 26.4374Z" fill="#263238"/>
<path d="M151.23 12.4812C151.347 12.7952 152.503 12.6371 153.865 12.7901C155.23 12.9159 156.329 13.3052 156.508 13.0213C156.587 12.8853 156.394 12.59 155.947 12.2885C155.356 11.9122 154.683 11.6826 153.984 11.6187C153.288 11.5399 152.582 11.6285 151.926 11.8771C151.429 12.0823 151.18 12.3322 151.23 12.4812Z" fill="#263238"/>
<path d="M140.344 12.7778C140.55 13.039 141.347 12.7597 142.307 12.7393C143.267 12.6826 144.081 12.9019 144.267 12.6259C144.348 12.4916 144.218 12.2292 143.86 11.9822C143.383 11.6799 142.825 11.5336 142.261 11.5634C141.697 11.5773 141.151 11.7666 140.699 12.1051C140.362 12.3777 140.253 12.6497 140.344 12.7778Z" fill="#263238"/>
<path d="M166.018 17.8368C166.018 17.8368 165.69 19.5811 165.602 20.3688C165.57 20.6561 165.608 23.8528 164.832 24.0126C164.164 24.1498 162.836 23.5423 162.245 22.2202C161.654 20.8981 160.53 17.7257 160.652 16.2829C160.886 14.319 160.841 12.3318 160.516 10.3808C160.181 8.41522 159.163 6.6308 157.642 5.34173C156.875 4.71475 155.949 4.31218 154.967 4.17856C153.986 4.04494 152.986 4.18549 152.079 4.58463C150.99 5.13149 150.175 6.09939 149.16 6.77376C148.256 7.41476 147.15 7.70267 146.049 7.58302C145.503 7.51338 144.988 7.2915 144.563 6.94282C144.137 6.59415 143.819 6.13278 143.644 5.61149C143.524 5.02414 143.572 4.41489 143.782 3.8536C143.993 3.29232 144.357 2.80169 144.834 2.43797C145.801 1.72532 146.931 1.26318 148.12 1.09266C151.384 0.390904 154.78 0.627855 157.915 1.77609C161.07 2.93352 163.641 5.28742 165.071 8.32764C166.601 11.8457 166.422 14.0031 166.018 17.8379" fill="#263238"/>
<path d="M148.772 18.4823C148.809 18.0639 148.874 17.6486 148.969 17.2395C149.262 16.1301 149.921 15.152 150.839 14.4627C151.466 13.9885 152.195 13.6675 152.968 13.5254C153.855 13.3642 154.769 13.4425 155.616 13.7521C156.073 13.9145 156.503 14.1464 156.89 14.4394C157.299 14.7371 157.658 15.0985 157.953 15.5099C158.585 16.3731 158.928 17.4145 158.931 18.4845C158.928 19.5547 158.585 20.5963 157.953 21.4597C157.658 21.8711 157.299 22.2325 156.889 22.5302C156.502 22.8232 156.073 23.0551 155.615 23.2176C154.768 23.5271 153.854 23.6054 152.967 23.4442C152.194 23.3024 151.464 22.9814 150.838 22.5069C149.92 21.8176 149.261 20.8394 148.967 19.7301C148.873 19.3212 148.807 18.9061 148.771 18.4879C148.765 18.515 148.763 18.543 148.766 18.5707L148.769 18.8155C148.767 18.9484 148.778 19.0811 148.8 19.2121C148.818 19.3928 148.85 19.5719 148.895 19.7477C149.167 20.8888 149.824 21.9014 150.755 22.6151C151.394 23.1107 152.142 23.4482 152.937 23.6001C153.852 23.7738 154.797 23.699 155.674 23.3836C156.148 23.2176 156.594 22.9794 156.996 22.6775C157.421 22.3704 157.795 21.9969 158.101 21.5713C158.761 20.6772 159.118 19.5964 159.121 18.4856C159.118 17.3751 158.76 16.2945 158.101 15.4006C157.795 14.9751 157.422 14.6018 156.996 14.2949C156.594 13.9931 156.149 13.755 155.674 13.5888C154.798 13.2735 153.853 13.1989 152.938 13.3729C152.143 13.5247 151.395 13.8621 150.756 14.3578C149.825 15.0713 149.168 16.084 148.896 17.2253C148.851 17.4011 148.818 17.5802 148.8 17.7609C148.778 17.8919 148.768 18.0247 148.769 18.1575L148.766 18.4018C148.764 18.4288 148.766 18.4559 148.772 18.4823Z" fill="#263238"/>
<path d="M135.494 18.4812C135.53 18.0628 135.596 17.6475 135.69 17.2384C135.984 16.129 136.643 15.1508 137.56 14.4616C138.187 13.9873 138.917 13.6663 139.69 13.5243C140.577 13.3632 141.491 13.4414 142.338 13.751C142.795 13.9136 143.225 14.1454 143.612 14.4383C144.021 14.7359 144.38 15.0974 144.675 15.5088C145.307 16.3719 145.65 17.4133 145.653 18.4834C145.65 19.5536 145.308 20.5953 144.675 21.4586C144.38 21.8701 144.021 22.2315 143.612 22.5291C143.225 22.822 142.795 23.0538 142.338 23.2165C141.491 23.5261 140.577 23.6043 139.689 23.4431C138.916 23.3013 138.187 22.9803 137.56 22.5058C136.642 21.8167 135.983 20.8385 135.69 19.729C135.595 19.3201 135.529 18.905 135.493 18.4868C135.487 18.514 135.485 18.5419 135.487 18.5696C135.487 18.6364 135.487 18.7169 135.49 18.8144C135.489 18.9473 135.5 19.08 135.521 19.211C135.54 19.3917 135.572 19.5708 135.617 19.7466C135.889 20.8876 136.546 21.9002 137.477 22.614C138.116 23.1095 138.864 23.447 139.658 23.599C140.574 23.7727 141.519 23.6979 142.395 23.3825C142.87 23.2165 143.316 22.9783 143.718 22.6764C144.143 22.3693 144.516 21.9958 144.823 21.5702C145.482 20.6761 145.839 19.5953 145.843 18.4846C145.839 17.3739 145.482 16.2934 144.823 15.3995C144.516 14.9741 144.142 14.6007 143.717 14.2938C143.315 13.9919 142.869 13.7537 142.395 13.5877C141.518 13.2724 140.573 13.1978 139.658 13.3718C138.864 13.5235 138.116 13.861 137.477 14.3567C136.546 15.0705 135.889 16.0831 135.617 17.2242C135.571 17.4 135.539 17.5791 135.521 17.7598C135.499 17.8908 135.489 18.0236 135.49 18.1564C135.49 18.2545 135.49 18.3344 135.487 18.4007C135.485 18.4277 135.488 18.4548 135.494 18.4812Z" fill="#263238"/>
<path d="M145.623 17.9329C145.639 17.9589 145.808 17.8649 146.096 17.7691C146.471 17.6467 146.865 17.5966 147.258 17.6212C147.652 17.6487 148.036 17.7506 148.392 17.9215C148.665 18.0541 148.82 18.1703 148.839 18.1482C148.859 18.1261 148.726 17.9782 148.457 17.8082C148.098 17.5899 147.691 17.462 147.272 17.4353C146.853 17.4059 146.433 17.4788 146.048 17.6478C145.756 17.7782 145.61 17.9153 145.623 17.9329Z" fill="#263238"/>
<path d="M143.568 5.20581C143.494 4.81422 143.625 4.59492 143.403 4.43511C143.152 4.25207 142.676 4.73207 142.501 4.92305C142.445 4.98425 142.269 4.74623 142.2 4.70033C142.123 4.5438 142.078 4.37352 142.067 4.19939C142.1 3.92681 142.529 3.85312 142.73 3.66725C142.937 3.48596 143.179 3.3487 143.441 3.26378C143.548 3.21009 143.667 3.18553 143.786 3.19259C143.906 3.19966 144.021 3.23809 144.121 3.304C144.181 3.37371 144.225 3.4551 144.251 3.54294C144.277 3.63078 144.285 3.7231 144.273 3.81401C144.273 3.99599 144.238 4.17628 144.17 4.34501C144.1 4.51485 143.971 4.65338 143.807 4.73433" fill="#263238"/>
<path d="M166.298 13.8266C166.298 13.8266 162.599 15.1833 160.674 15.9982L160.782 14.1066L166.166 11.978C166.166 11.978 166.301 13.384 166.298 13.8266Z" fill="#EBEBEB"/>
<path d="M165.954 10.8894C165.06 11.1643 164.185 11.4996 163.335 11.893C162.462 12.2282 161.612 12.6222 160.791 13.0723C161.686 12.797 162.56 12.4614 163.41 12.0681C164.283 11.7327 165.133 11.3389 165.954 10.8894Z" fill="#EBEBEB"/>
<path d="M164.84 50.7391L165.126 41.7853C165.126 41.7853 163.348 49.9786 154.032 49.872C145.129 49.77 145.292 42.6535 145.292 42.6535L144.975 46.2622V60.8387L150.782 84.6172L158.197 85.5579L166.393 53.0535L164.84 50.7391Z" fill="#E8505B"/>
<path d="M146.12 47.875C146.149 47.9424 146.185 48.0063 146.228 48.0654C146.335 48.2455 146.453 48.4189 146.581 48.5845C147.049 49.2005 147.608 49.7419 148.239 50.1899C149.175 50.8575 150.225 51.3501 151.337 51.6441C152.698 52.0087 154.117 52.1069 155.515 51.9331C156.908 51.7399 158.262 51.3323 159.53 50.7249C160.563 50.2336 161.545 49.6418 162.462 48.9579C163.081 48.5007 163.674 48.0088 164.237 47.4846C164.439 47.3021 164.586 47.1485 164.687 47.0482C164.742 46.9999 164.791 46.9455 164.834 46.8861C164.772 46.9243 164.715 46.9693 164.664 47.0204L164.191 47.4296C163.78 47.7837 163.171 48.2836 162.386 48.8463C161.466 49.5088 160.486 50.0838 159.458 50.564C158.203 51.1541 156.866 51.5513 155.492 51.7421C154.117 51.9124 152.723 51.8209 151.382 51.4724C150.287 51.1903 149.249 50.7181 148.317 50.0772C147.688 49.6445 147.123 49.1257 146.639 48.5358C146.299 48.117 146.137 47.8625 146.12 47.875Z" fill="#263238"/>
<path d="M152.582 124.297L152.716 82.0412L164.716 51.2022L165.12 41.9209L172.43 47.4507C172.43 47.4507 183.076 84.0892 183.24 82.8187C183.405 81.5482 183.244 124.296 183.244 124.296L152.582 124.297Z" fill="#EBEBEB"/>
<path d="M152.868 124.18C152.921 124.18 152.963 114.659 152.963 102.916C152.963 91.1721 152.921 81.6494 152.868 81.6494C152.815 81.6494 152.773 91.1699 152.773 102.916C152.773 114.662 152.816 124.18 152.868 124.18Z" fill="#263238"/>
<path d="M172.326 53.4854L170.843 54.6085L171.886 61.4446L154.37 79.7914L170.279 58.9007L168.923 53.4854H172.326Z" fill="#E0E0E0"/>
<path d="M154.033 80.2365C154.065 80.2065 154.095 80.1735 154.121 80.1379L154.362 79.8364L155.274 78.6673L158.604 74.3446L169.533 60.0401L170.355 58.96L170.383 58.9237L170.372 58.8795L169.012 53.4647L168.923 53.5781L172.327 53.5735H172.413V53.4868C172.408 51.2767 172.403 49.2479 172.399 47.4515V47.4153L172.371 47.3937L167.088 43.3787L165.637 42.2901L165.256 42.0107C165.214 41.9769 165.169 41.947 165.122 41.9211C165.159 41.9601 165.2 41.9957 165.243 42.0277C165.334 42.1008 165.456 42.1977 165.611 42.3235L167.038 43.4427L172.282 47.5082L172.254 47.4515C172.25 49.2479 172.245 51.2756 172.239 53.4868L172.326 53.4001L168.923 53.3956H168.805L168.834 53.5089C169.266 55.2396 169.719 57.0536 170.186 58.9254L170.203 58.8449L169.38 59.9245L158.496 74.2618L155.215 78.6209L154.33 79.8109L154.103 80.1237C154.077 80.159 154.053 80.1968 154.033 80.2365Z" fill="#263238"/>
<path d="M142.047 45.8605C144.191 42.1107 145.303 42.5006 145.303 42.5006L145.19 43.8368V46.6454L146.206 58.6939L152.718 84.8752L152.584 124.295H127.966L124.901 76.1753" fill="#EBEBEB"/>
<path d="M152.717 80.9395C152.709 80.8991 152.696 80.8597 152.679 80.8222L152.55 80.4856L152.035 79.1992C151.575 78.0731 150.918 76.4643 150.108 74.4803L147.228 67.4913C146.955 66.8367 146.685 66.1539 146.346 65.4857C146.022 64.8119 145.639 64.1517 145.244 63.4836C144.405 62.1196 143.492 60.8024 142.509 59.5377C142.013 58.8967 141.512 58.2728 140.995 57.675L141.012 57.7724L142.084 55.0443L142.119 54.9542L142.028 54.9231L137.541 53.3976L137.586 53.5234L142.674 45.0286C143.29 43.9978 143.816 43.1749 144.374 42.8361C144.584 42.7075 144.814 42.6145 145.054 42.5606C145.138 42.5447 145.221 42.5245 145.303 42.5C145.218 42.5053 145.133 42.5165 145.049 42.5334C144.801 42.5764 144.563 42.6631 144.345 42.7896C144.006 43.0093 143.712 43.2937 143.482 43.6266C143.16 44.0591 142.862 44.5083 142.588 44.9725L137.439 53.4355L137.382 53.5262L137.483 53.5613L141.966 55.0993L141.91 54.9775L140.833 57.7039L140.812 57.7571L140.85 57.8008C141.36 58.3935 141.863 59.0175 142.357 59.655C143.335 60.9139 144.245 62.2245 145.082 63.5811C145.476 64.2441 145.859 64.9003 146.182 65.5673C146.518 66.2281 146.787 66.9013 147.064 67.5581L149.982 74.5319L151.966 79.2275L152.514 80.5003L152.661 80.8296C152.676 80.8681 152.695 80.9049 152.717 80.9395Z" fill="#263238"/>
<path d="M177.171 68.7337C177.228 68.5528 177.268 68.3674 177.293 68.1795C177.35 68.0061 177.428 67.7981 177.51 67.5561C177.627 67.3261 177.741 67.054 177.907 66.7758C178.299 66.1224 178.758 65.5115 179.277 64.9528C179.916 64.2721 180.619 63.6538 181.376 63.1065C182.749 62.1016 184.31 61.3844 185.967 60.9978C186.471 60.8919 186.982 60.8269 187.497 60.8034C187.687 60.8042 187.876 60.7887 188.063 60.7569C187.875 60.731 187.684 60.7217 187.493 60.7292C186.973 60.7245 186.453 60.7702 185.941 60.8657C184.251 61.2189 182.657 61.9302 181.266 62.9517C180.499 63.5065 179.789 64.1372 179.149 64.8343C178.627 65.407 178.171 66.0359 177.789 66.7095C177.626 66.9968 177.518 67.279 177.409 67.5165C177.334 67.7692 177.263 67.9846 177.219 68.1637C177.186 68.3519 177.17 68.5427 177.171 68.7337Z" fill="#263238"/>
<path d="M131.934 76.1365C131.881 76.1365 131.839 79.0833 131.839 82.7169C131.839 86.3506 131.881 89.2979 131.934 89.2979C131.986 89.2979 132.029 86.3511 132.029 82.7169C132.029 79.0827 131.986 76.1365 131.934 76.1365Z" fill="#263238"/>
<path d="M178.772 92.3268C174.277 87.3501 174.475 78.4995 177.055 72.2211C177.293 79.0214 178.095 85.0556 178.71 91.6667" fill="#E0E0E0"/>
<path d="M165.965 64.5009C165.913 64.5009 165.87 66.2282 165.87 68.3595C165.87 70.4908 165.913 72.2187 165.965 72.2187C166.018 72.2187 166.06 70.4914 166.06 68.3595C166.06 66.2276 166.017 64.5009 165.965 64.5009Z" fill="#263238"/>
<path d="M168.896 77.3222C168.821 78.0692 168.534 78.7793 168.069 79.3691C167.835 79.6744 167.537 79.9258 167.197 80.1063C166.857 80.2869 166.482 80.3924 166.097 80.4158C165.577 80.4428 165.06 80.3342 164.594 80.1008C164.129 79.8673 163.733 79.517 163.443 79.084C162.602 77.7449 162.395 74.959 163.069 73.3117C163.533 72.1783 164.576 71.1254 165.799 71.097C166.478 71.0909 167.14 71.3145 167.677 71.7316C168.214 72.1487 168.594 72.7348 168.756 73.395" fill="#E0E0E0"/>
<path d="M168.754 73.3943C168.701 73.1166 168.601 72.8501 168.457 72.6066C168.298 72.3138 168.095 72.0474 167.854 71.8167C167.533 71.5067 167.144 71.2777 166.717 71.1485C166.469 71.0734 166.212 71.0324 165.953 71.0267C165.67 71.0117 165.387 71.0487 165.117 71.1361C164.528 71.3442 164.011 71.7152 163.625 72.206C163.192 72.7363 162.891 73.3622 162.748 74.0319C162.594 74.7423 162.539 75.4706 162.585 76.1961C162.595 77.313 162.918 78.4047 163.517 79.3475C163.83 79.7574 164.249 80.0736 164.729 80.2615C165.165 80.4354 165.633 80.5143 166.101 80.4928H166.091C166.434 80.4945 166.772 80.4108 167.074 80.2491C167.344 80.1124 167.592 79.9388 167.814 79.7334C168.159 79.3904 168.433 78.9822 168.62 78.5326C168.743 78.2496 168.829 77.9516 168.875 77.6462C168.887 77.5662 168.894 77.4857 168.898 77.4049C168.898 77.3482 168.898 77.3221 168.895 77.3215C168.825 77.7262 168.705 78.1207 168.538 78.4957C168.344 78.9252 168.069 79.3136 167.729 79.6399C167.513 79.8325 167.272 79.9944 167.011 80.121C166.73 80.2667 166.416 80.3409 166.099 80.3369H166.088C165.625 80.3593 165.164 80.2712 164.742 80.0801C164.32 79.8889 163.95 79.6001 163.661 79.2375C163.091 78.321 162.784 77.2649 162.775 76.1853C162.697 74.7408 162.939 73.2844 163.76 72.3165C164.123 71.8478 164.609 71.4905 165.165 71.2857C165.417 71.2002 165.682 71.1617 165.948 71.1723C166.195 71.1741 166.441 71.2092 166.678 71.2766C167.089 71.3932 167.467 71.6044 167.781 71.8932C168.02 72.1118 168.226 72.3642 168.392 72.6423C168.528 72.8853 168.649 73.1364 168.754 73.3943Z" fill="#263238"/>
<path d="M169.749 77.3956C169.673 78.1425 169.386 78.8523 168.921 79.442C168.687 79.7473 168.389 79.9987 168.049 80.1793C167.708 80.3598 167.333 80.4653 166.949 80.4887C166.429 80.5153 165.911 80.4067 165.446 80.1732C164.981 79.9398 164.584 79.5896 164.295 79.1569C163.453 77.8172 163.246 75.032 163.921 73.3846C164.384 72.2512 165.427 71.1988 166.651 71.1699C167.33 71.164 167.992 71.3877 168.529 71.8047C169.065 72.2218 169.446 72.8078 169.608 73.4679" fill="#E0E0E0"/>
<path d="M169.609 73.4661C169.556 73.1884 169.455 72.9219 169.311 72.6784C169.152 72.3854 168.949 72.1187 168.708 71.8879C168.388 71.578 167.998 71.3492 167.571 71.2203C167.323 71.145 167.066 71.1039 166.807 71.0979C166.524 71.083 166.241 71.1203 165.971 71.2079C165.383 71.4157 164.865 71.7865 164.48 72.2772C164.046 72.8074 163.746 73.4334 163.603 74.1031C163.449 74.8136 163.394 75.5418 163.439 76.2673C163.45 77.3842 163.773 78.476 164.372 79.4187C164.685 79.8284 165.104 80.1445 165.584 80.3328C166.019 80.5065 166.487 80.5853 166.956 80.564H166.945C167.288 80.5656 167.626 80.4817 167.929 80.3197C168.198 80.1832 168.447 80.0096 168.668 79.8041C169.014 79.461 169.287 79.0528 169.474 78.6032C169.597 78.32 169.683 78.0219 169.729 77.7164C169.741 77.6365 169.749 77.5561 169.752 77.4755C169.752 77.4188 169.752 77.3928 169.749 77.3928C169.68 77.7976 169.56 78.192 169.392 78.5669C169.198 78.9966 168.923 79.3851 168.583 79.7117C168.367 79.9042 168.126 80.066 167.866 80.1928C167.585 80.3383 167.271 80.4122 166.954 80.4082H166.943C166.48 80.4305 166.019 80.3424 165.597 80.1511C165.175 79.9598 164.804 79.6709 164.516 79.3082C163.946 78.3916 163.639 77.3355 163.63 76.256C163.552 74.8109 163.794 73.3551 164.616 72.3866C164.978 71.9178 165.465 71.5606 166.021 71.3563C166.272 71.271 166.538 71.2327 166.803 71.243C167.05 71.2451 167.296 71.2801 167.533 71.3473C167.944 71.4639 168.322 71.6751 168.636 71.9638C168.875 72.1825 169.081 72.4349 169.247 72.713C169.383 72.9566 169.503 73.2081 169.609 73.4661Z" fill="#263238"/>
<path d="M168.197 73.0556C168.602 73.0055 169.013 73.0887 169.366 73.2925C169.72 73.4964 169.998 73.8099 170.158 74.1856C170.459 74.9517 170.458 75.8036 170.154 76.5686C170.029 76.9653 169.821 77.3312 169.546 77.6424C169.265 77.9546 168.874 78.1448 168.456 78.1723C168.151 78.1559 167.855 78.0663 167.593 77.9111C167.33 77.7559 167.109 77.5398 166.948 77.2809C166.665 76.879 166.472 76.4204 166.383 75.9368C166.294 75.4532 166.311 74.956 166.433 74.4797C166.6 73.8467 167.066 73.1973 167.72 73.1803" fill="#E0E0E0"/>
<path d="M167.717 73.1821C167.67 73.1706 167.62 73.1692 167.572 73.1781C167.432 73.1949 167.297 73.2406 167.176 73.3125C166.96 73.4557 166.775 73.6407 166.631 73.8566C166.488 74.0724 166.389 74.3148 166.34 74.5694C166.164 75.319 166.244 76.106 166.567 76.805C166.752 77.2232 167.032 77.5921 167.386 77.8817C167.577 78.0466 167.804 78.1634 168.049 78.2226C168.295 78.2817 168.55 78.2814 168.795 78.2217C169.275 78.0703 169.678 77.7409 169.921 77.3014C170.146 76.9095 170.304 76.4833 170.391 76.0399C170.484 75.6669 170.5 75.2786 170.437 74.8991C170.374 74.5196 170.235 74.157 170.026 73.8338C169.878 73.6212 169.689 73.4401 169.47 73.301C169.251 73.1619 169.007 73.0676 168.752 73.0234C168.614 73.0026 168.473 73.0026 168.335 73.0234C168.287 73.0284 168.239 73.0418 168.195 73.0631C168.377 73.0566 168.559 73.0682 168.739 73.0977C169.221 73.209 169.642 73.5005 169.916 73.9126C170.105 74.2232 170.229 74.5686 170.281 74.9282C170.333 75.2877 170.312 75.6541 170.219 76.0054C170.132 76.4276 169.978 76.8331 169.762 77.2062C169.541 77.6031 169.177 77.901 168.745 78.0398C168.528 78.0924 168.302 78.0926 168.085 78.0402C167.868 77.9879 167.667 77.8846 167.498 77.7389C167.166 77.4693 166.901 77.1263 166.724 76.737C166.41 76.0731 166.321 75.3246 166.471 74.6056C166.552 74.1173 166.818 73.679 167.214 73.3821C167.369 73.2865 167.539 73.2188 167.717 73.1821Z" fill="#263238"/>
<path d="M166.359 79.0591C166.388 79.0665 166.428 78.9458 166.553 78.7979C166.72 78.6096 166.936 78.4713 167.177 78.3984C167.427 78.3299 167.684 78.29 167.943 78.2793C168.147 78.2646 168.277 78.2482 168.277 78.2227C168.278 78.1972 168.153 78.166 167.945 78.1462C167.667 78.1169 167.387 78.1413 167.119 78.2181C166.841 78.2999 166.602 78.4784 166.444 78.7214C166.329 78.9123 166.337 79.0569 166.359 79.0591Z" fill="#263238"/>
<path d="M166.072 72.558C166.055 72.5744 166.128 72.6889 166.298 72.8232C166.525 72.9949 166.788 73.1103 167.068 73.1598C167.347 73.2114 167.635 73.1957 167.907 73.1139C168.114 73.0471 168.221 72.966 168.212 72.9439C167.844 72.9989 167.472 73.0082 167.102 72.9717C166.743 72.8771 166.397 72.7381 166.072 72.558Z" fill="#263238"/>
<path d="M140.979 46.4C140.976 46.3943 140.935 46.4096 140.859 46.4442C140.748 46.4951 140.639 46.5518 140.534 46.6142C140.144 46.8369 139.777 47.0992 139.44 47.3968C138.318 48.3871 137.502 49.6775 137.089 51.116C136.657 52.5282 136.357 53.9777 136.194 55.4455C136.131 56.0077 136.097 56.4656 136.075 56.7795C136.055 56.9428 136.052 57.1076 136.066 57.2714C136.11 57.1131 136.137 56.9508 136.149 56.7869C136.196 56.4372 136.256 55.9935 136.327 55.4631C136.529 54.0096 136.844 52.5743 137.271 51.1704C137.678 49.7641 138.458 48.4946 139.53 47.4971C139.985 47.0965 140.47 46.7298 140.979 46.4Z" fill="#263238"/>
<path d="M145.526 86.5996C144.467 86.5594 143.622 85.5042 142.564 85.5603C142.172 85.5964 141.809 85.7822 141.551 86.079C141.293 86.3758 141.158 86.7607 141.176 87.1538C141.225 87.5445 141.422 87.9015 141.726 88.1507C142.031 88.3998 142.42 88.522 142.812 88.4918C143.924 88.3626 144.574 87.0603 145.664 86.8098" fill="#263238"/>
<path d="M136.552 87.5007C136.885 87.4995 137.216 87.4721 137.544 87.4186L137.487 87.0576C136.928 87.1793 136.35 87.1855 135.789 87.0759C135.227 86.9663 134.694 86.7431 134.222 86.42C133.14 85.6266 132.444 84.2048 132.151 82.1964L132.14 82.12C132.02 81.3266 131.856 65.7045 131.856 62.739C131.783 61.4893 132.176 60.2567 132.958 59.2798C133.741 58.3029 134.859 57.6511 136.095 57.4506C136.259 57.42 139.955 56.8028 141.916 61.8617C143.969 67.1598 147.252 77.3693 147.47 78.5662C147.497 78.713 147.537 78.8943 147.583 79.1051C147.923 80.6352 148.634 83.8251 146.506 85.6612C144.137 87.7076 142.267 86.9159 142.189 86.8813L142.039 87.2146C142.126 87.2531 144.189 88.145 146.745 85.9372C149.037 83.9583 148.294 80.6267 147.935 79.0235C147.89 78.8184 147.85 78.6421 147.822 78.4993C147.603 77.2934 144.308 67.0402 142.25 61.7286C140.176 56.375 136.07 57.0817 136.029 57.0885C134.715 57.3183 133.53 58.0181 132.694 59.0574C131.857 60.0967 131.428 61.4046 131.484 62.7373C131.484 65.1803 131.647 81.3249 131.774 82.1749L131.785 82.2497C132.092 84.3584 132.838 85.8607 134.001 86.7147C134.743 87.2475 135.639 87.5235 136.552 87.5007Z" fill="#263238"/>
<path d="M131.674 65.7283C131.838 65.0877 132.094 64.4744 132.434 63.9075C132.821 63.3071 133.31 62.7785 133.878 62.3451C134.573 61.815 135.372 61.4373 136.223 61.2366C137.787 60.8923 139.423 61.1056 140.846 61.8396C141.427 62.1567 141.966 62.5432 142.454 62.9906C142.459 62.9866 142.43 62.9481 142.37 62.8772C142.285 62.7745 142.194 62.6772 142.097 62.586C141.741 62.2454 141.341 61.954 140.907 61.7195C140.266 61.3659 139.571 61.1209 138.849 60.9947C137.964 60.8315 137.055 60.8508 136.177 61.0514C135.3 61.258 134.479 61.6519 133.768 62.2063C133.19 62.6577 132.699 63.2103 132.318 63.8372C132.062 64.2592 131.872 64.7179 131.754 65.1973C131.721 65.3263 131.696 65.4575 131.681 65.59C131.671 65.6353 131.668 65.6821 131.674 65.7283Z" fill="#263238"/>
<path d="M183.313 126.447C183.313 126.447 171.729 124.888 163.522 125.242L155.315 125.597C155.315 125.597 129.66 129.281 128.81 127.936C127.96 126.591 127.964 124.296 127.964 124.296L174.166 119.219L183.244 124.296L183.313 126.447Z" fill="#EBEBEB"/>
<path d="M152.513 67.7104C152.513 67.7104 150.429 68.6335 148.801 69.3798C146.231 70.5574 145.375 68.4165 145.375 68.4165L152.519 63.2516C153.463 62.5839 154.587 62.2196 155.743 62.2072C156.899 62.1949 158.031 62.5351 158.988 63.1825C159.572 63.5842 160.076 64.0902 160.475 64.6751L165.587 71.9402L193.401 94.1223C197.753 97.5928 197.896 103.451 193.495 106.858C191.885 108.112 189.857 108.705 187.826 108.516C185.794 108.328 183.91 107.373 182.558 105.846L159.72 80.049L156.773 77.7766L153.304 75.2599C153.304 75.2599 150.71 73.3847 152.847 71.4823C153.539 70.8663 152.207 70.8793 152.074 69.9868C152.004 69.5221 152.14 69.4376 152.954 68.8698C152.951 68.8698 151.677 68.8987 152.513 67.7104Z" fill="#FFBE9D"/>
<path d="M151.26 56.6172C151.298 56.6427 151.463 56.4421 151.738 56.1423C152.07 55.7476 152.493 55.4399 152.97 55.2458C153.205 55.1683 153.454 55.1455 153.699 55.1791C153.944 55.2127 154.178 55.3018 154.383 55.4396C154.695 55.6629 154.764 55.9247 154.815 55.9077C154.846 55.9116 154.859 55.5943 154.522 55.2718C154.299 55.079 154.028 54.9481 153.738 54.8923C153.448 54.8366 153.149 54.8578 152.869 54.9539C152.336 55.1608 151.881 55.5284 151.566 56.0057C151.326 56.3537 151.227 56.5957 151.26 56.6172Z" fill="#996552"/>
<path d="M154.823 58.418C154.852 58.3942 154.751 58.1913 154.473 57.9703C154.1 57.6811 153.642 57.5247 153.17 57.526C152.698 57.5279 152.241 57.6875 151.871 57.9794C151.594 58.206 151.495 58.4066 151.525 58.4293C151.555 58.452 151.714 58.316 151.994 58.1596C152.353 57.9527 152.758 57.8404 153.172 57.8332C153.585 57.8369 153.991 57.946 154.351 58.1499C154.633 58.3086 154.788 58.4492 154.823 58.418Z" fill="#996552"/>
<path d="M154.823 60.5215C154.852 60.4983 154.751 60.2948 154.473 60.0744C154.101 59.7848 153.642 59.6282 153.17 59.6295C152.698 59.6317 152.241 59.7913 151.871 60.0829C151.594 60.3096 151.495 60.5102 151.525 60.5328C151.555 60.5555 151.714 60.4195 151.994 60.2631C152.353 60.0563 152.758 59.9439 153.172 59.9367C153.585 59.9405 153.991 60.0495 154.351 60.2535C154.633 60.4121 154.788 60.5527 154.823 60.5215Z" fill="#996552"/>
<path d="M118.461 59.9935L117.018 62.5006C117.018 62.5006 123.041 91.98 122.83 96.2189C122.619 100.458 117.603 108.638 112.865 104.014C108.126 99.3896 109.039 62.8032 109.039 62.8032C109.039 62.8032 109.621 54.2892 109.346 52.3397L118.461 59.9935Z" fill="#FFBE9D"/>
<path d="M110.213 44.0014L115.568 64.0953C115.756 64.8011 116.12 65.4477 116.626 65.9746C117.132 66.5016 117.764 66.8916 118.461 67.1084L125.366 69.2528C125.8 69.3878 126.263 69.406 126.707 69.3056C127.151 69.2051 127.56 68.9895 127.894 68.6804C128.228 68.3713 128.475 67.9797 128.61 67.545C128.744 67.1102 128.762 66.6477 128.661 66.204L124.401 47.4407C124.282 46.9178 124.026 46.4361 123.658 46.0458C123.29 45.6554 122.825 45.3707 122.31 45.221L112.025 42.2299C111.777 42.1582 111.515 42.1534 111.265 42.2162C111.015 42.2789 110.786 42.4069 110.602 42.5871C110.418 42.7673 110.285 42.9932 110.216 43.2417C110.148 43.4902 110.147 43.7523 110.213 44.0014Z" fill="#596972"/>
<path d="M118.448 47.7503C118.679 48.0361 118.787 48.402 118.748 48.7674C118.709 49.1329 118.527 49.468 118.241 49.6992C118.1 49.8136 117.937 49.899 117.763 49.9506C117.588 50.0022 117.405 50.0189 117.224 49.9997C117.043 49.9805 116.868 49.9259 116.708 49.839C116.548 49.752 116.407 49.6344 116.293 49.4929C116.178 49.3514 116.093 49.1887 116.041 49.0142C115.99 48.8396 115.973 48.6567 115.992 48.4757C116.011 48.2947 116.066 48.1193 116.153 47.9594C116.24 47.7996 116.357 47.6584 116.499 47.544C116.785 47.313 117.151 47.205 117.516 47.2437C117.881 47.2823 118.217 47.4646 118.448 47.7503Z" fill="#FAFAFA"/>
<path d="M109.348 52.3405C109.348 52.3405 112.446 45.0528 113.46 44.8776C114.475 44.7025 119.989 46.5029 119.92 47.1841C119.852 47.8653 118.934 48.4625 117.942 48.2444C116.949 48.0262 115.018 46.8543 114.72 47.2555C114.422 47.6567 113.618 49.0038 113.618 49.0038C113.618 49.0038 118.598 50.2686 119.14 51.0801C119.694 51.9103 120.864 53.297 119.94 54.1171C119.338 54.6509 118.134 54.4718 117.305 52.7734C117.305 52.7734 118.736 55.1677 117.575 56.0971C116.329 57.0978 115.569 55.761 114.114 54.6078C112.891 53.6382 112.804 55.2453 112.804 55.2453L109.348 52.3405Z" fill="#FFBE9D"/>
<path d="M112.78 51.6175C113.064 51.6022 113.347 51.5662 113.625 51.5099C114.291 51.4409 114.964 51.5232 115.594 51.7507C116.22 51.9888 116.784 52.365 117.244 52.8512C117.601 53.2258 117.772 53.5069 117.814 53.4836C117.847 53.4678 117.743 53.1436 117.41 52.709C116.966 52.1441 116.374 51.7127 115.701 51.4622C115.027 51.2132 114.297 51.1554 113.592 51.2951C113.296 51.3233 113.015 51.4352 112.78 51.6175Z" fill="#996552"/>
<path d="M108.395 64.2242L119.379 70.0877C119.529 70.1681 119.658 70.2828 119.755 70.4226C119.852 70.5624 119.915 70.7232 119.938 70.8919L123.874 99.9526L114.675 107.8L109.422 101.155L106.815 65.2505C106.802 65.0587 106.84 64.8667 106.925 64.6946C107.011 64.5224 107.141 64.3764 107.303 64.2717C107.464 64.1669 107.65 64.1073 107.842 64.0989C108.035 64.0906 108.225 64.1338 108.395 64.2242Z" fill="#EBEBEB"/>
<path d="M126.327 98.5672C126.44 98.5632 120.074 112.31 111.943 106.558C111.943 106.558 109.595 105.502 109.197 99.437C108.784 93.1547 106.809 65.5487 106.816 65.1599C106.816 65.1599 106.884 63.7398 108.454 64.2561L119.191 69.9882C119.191 69.9882 119.938 70.3849 120.171 72.6165L123.873 99.9533" stroke="#263238" stroke-width="0.2" stroke-miterlimit="10"/>
<path d="M181.803 105.331L161.732 83.9498C161.616 83.8256 161.531 83.6756 161.484 83.5121C161.436 83.3486 161.429 83.1762 161.461 83.0091L163.838 70.7877C163.875 70.5994 163.962 70.4245 164.089 70.281C164.217 70.1375 164.381 70.0308 164.563 69.9718C164.746 69.9129 164.941 69.9038 165.129 69.9457C165.316 69.9875 165.489 70.0787 165.629 70.2097L193.306 94.1401C193.306 94.1401 198.906 97.1107 196.52 104.457C194.134 111.804 184.875 109.82 181.804 105.331" fill="#EBEBEB"/>
<path d="M193.788 94.4513C188.936 89.9744 166.01 70.4178 165.69 70.1673C165.69 70.1673 164.491 69.281 163.922 70.8406C163.922 70.8406 162.131 80.0584 161.655 82.5145C161.523 82.9739 161.571 83.4662 161.788 83.8921C162.268 84.4489 162.785 84.9734 163.335 85.4619L182.794 107.009C182.721 106.861 189.473 114.976 196.982 107.548" stroke="#263238" stroke-width="0.2" stroke-miterlimit="10"/>
</svg>
