<svg width="220" height="247" viewBox="0 0 220 247" fill="none" xmlns="http://www.w3.org/2000/svg">
<path d="M9.78512 107.923C13.6012 100.349 17.972 95.8253 22.7176 93.4626C30.0045 89.8002 38.1926 91.2057 46.6565 94.3712C46.9151 94.4578 47.1633 94.553 47.4219 94.6489C48.5694 95.0986 49.7268 95.568 50.8933 96.0642C64.1777 101.716 77.8926 110.229 89.7518 109.081C95.1749 108.556 101.085 106.307 107.427 103.343C113.098 100.684 119.133 97.4415 125.474 94.3331C126.602 93.7784 127.74 93.2335 128.887 92.688C131.814 91.3094 134.807 89.9912 137.868 88.7859C155.016 82.0341 174.116 79.0498 194.649 91.6173C208.976 100.387 237.726 150.206 204.844 199.432C168.31 254.148 70.7477 253.287 42.5148 237.736C-7.4564 210.211 -6.06209 139.36 9.78512 107.923Z" fill="#D6DCFD"/>
<g opacity="0.5">
<path opacity="0.5" d="M70.0777 194.061C70.2447 193.797 70.3421 193.495 70.3605 193.183C70.379 192.871 70.318 192.559 70.1834 192.277C69.8735 192.247 69.561 192.293 69.2722 192.409C68.9834 192.525 68.7268 192.709 68.5238 192.945C68.3348 193.19 68.2506 193.501 68.2896 193.808C68.3286 194.116 68.4876 194.395 68.7319 194.586C69.2571 194.914 70.1105 194.433 69.9871 193.825L70.0777 194.061Z" fill="white"/>
<path opacity="0.5" d="M73.7622 202.482C73.8962 202.427 74.0158 202.342 74.1118 202.233C74.2077 202.124 74.2775 201.995 74.3156 201.855C74.1961 201.804 74.0675 201.777 73.9374 201.776C73.8725 201.777 73.8092 201.796 73.7552 201.832C73.7012 201.869 73.6589 201.92 73.6335 201.979C73.579 202.149 73.7148 202.314 73.8396 202.439H73.6925L73.7622 202.482Z" fill="white"/>
<path opacity="0.5" d="M74.2955 203.495C74.3325 203.575 74.3439 203.664 74.3284 203.751C74.2293 203.698 74.1439 203.622 74.0791 203.53C74.0143 203.438 73.9718 203.332 73.9549 203.22C73.9201 203.099 73.8984 202.946 73.9988 202.87C74.0684 202.817 74.1663 202.829 74.2496 202.804C74.4177 202.755 74.5693 202.555 74.7243 202.637C74.7656 202.665 74.796 202.707 74.8101 202.755C74.8242 202.803 74.8212 202.854 74.8017 202.9C74.7604 202.99 74.6983 203.07 74.6205 203.132L74.1459 203.573L74.2955 203.495Z" fill="white"/>
<path opacity="0.5" d="M68.6324 190.005C68.698 189.836 68.4309 189.699 68.2779 189.797C68.2096 189.857 68.1545 189.931 68.1161 190.013C68.0777 190.095 68.0567 190.185 68.0547 190.276C68.1757 190.31 68.3042 190.308 68.4241 190.27C68.544 190.232 68.6498 190.159 68.7282 190.06L68.6324 190.005Z" fill="white"/>
<path opacity="0.5" d="M66.3758 208.63C66.3935 208.544 66.3935 208.454 66.3758 208.368C66.366 208.324 66.3434 208.285 66.311 208.254C66.2786 208.224 66.2379 208.204 66.194 208.196C66.0476 208.185 65.9589 208.358 65.8237 208.415C65.6885 208.472 65.5093 208.41 65.401 208.509C65.3789 208.538 65.3631 208.57 65.3547 208.605C65.3463 208.639 65.3454 208.676 65.3522 208.711C65.359 208.746 65.3733 208.779 65.394 208.808C65.4148 208.837 65.4416 208.861 65.4725 208.879C65.6033 208.944 65.7527 208.963 65.8953 208.93C66.0252 208.923 66.1505 208.879 66.2576 208.806C66.3099 208.767 66.3472 208.711 66.3629 208.648C66.3786 208.585 66.3717 208.519 66.3436 208.46L66.3758 208.63Z" fill="white"/>
<path opacity="0.5" d="M62.4043 191.804C62.3799 191.839 62.3428 191.863 62.301 191.871C62.2591 191.879 62.2156 191.871 62.1798 191.848C62.145 191.823 62.1158 191.791 62.0941 191.754C62.0724 191.717 62.0586 191.676 62.0537 191.634C62.0429 191.584 62.0449 191.533 62.0597 191.485C62.0708 191.458 62.0871 191.434 62.1077 191.414C62.1282 191.394 62.1526 191.378 62.1793 191.368C62.2061 191.357 62.2347 191.352 62.2634 191.353C62.2921 191.354 62.3204 191.36 62.3466 191.372C62.3974 191.4 62.4358 191.446 62.4539 191.501C62.4721 191.556 62.4687 191.616 62.4444 191.669C62.4169 191.72 62.3722 191.76 62.3181 191.782C62.2641 191.803 62.2041 191.805 62.1489 191.787L62.4043 191.804Z" fill="white"/>
<path opacity="0.5" d="M71.1932 201.599C71.2245 201.63 71.2633 201.652 71.3058 201.664C71.3482 201.675 71.3929 201.675 71.4354 201.664C71.478 201.653 71.5169 201.631 71.5486 201.601C71.5802 201.57 71.6034 201.532 71.616 201.49C71.5548 201.417 71.472 201.366 71.3796 201.343C71.3332 201.333 71.2848 201.339 71.242 201.36C71.1993 201.38 71.1645 201.414 71.1433 201.457C71.1345 201.478 71.1312 201.502 71.1335 201.525C71.1359 201.548 71.1438 201.571 71.1568 201.59C71.1697 201.609 71.1873 201.625 71.2078 201.636C71.2284 201.648 71.2512 201.653 71.2746 201.654L71.1932 201.599Z" fill="white"/>
<path opacity="0.5" d="M74.1851 204.376C74.2943 204.369 74.4004 204.337 74.4953 204.283C74.5903 204.228 74.6716 204.153 74.7333 204.063L74.2646 203.803C74.1943 203.756 74.1127 203.728 74.0282 203.723C73.988 203.728 73.9492 203.742 73.9146 203.763C73.88 203.784 73.8502 203.812 73.8273 203.846C73.8044 203.879 73.7889 203.917 73.7818 203.957C73.7747 203.997 73.7761 204.038 73.786 204.078C73.8119 204.156 73.8614 204.225 73.9276 204.274C73.9938 204.324 74.0736 204.351 74.1562 204.354L74.1851 204.376Z" fill="white"/>
<path opacity="0.5" d="M64.4617 193.208L64.3088 193.111C64.2663 193.137 64.2338 193.176 64.2167 193.223C64.1995 193.27 64.1986 193.321 64.2142 193.368C64.2237 193.391 64.2376 193.411 64.2552 193.428C64.2728 193.446 64.2937 193.459 64.3166 193.468C64.3395 193.477 64.364 193.481 64.3886 193.48C64.4132 193.48 64.4374 193.474 64.4597 193.464C64.4804 193.451 64.4978 193.434 64.5105 193.413C64.5233 193.392 64.5311 193.369 64.5334 193.345C64.5356 193.321 64.5322 193.296 64.5234 193.274C64.5146 193.251 64.5007 193.231 64.4827 193.214L64.4617 193.208Z" fill="white"/>
<path opacity="0.5" d="M72.3091 202.304C72.2008 202.35 72.2244 202.522 72.3124 202.601C72.4003 202.68 72.5244 202.706 72.6202 202.775C72.6698 202.81 72.711 202.856 72.741 202.909C72.771 202.962 72.7892 203.021 72.7942 203.082C72.8 203.117 72.7966 203.153 72.7843 203.186C72.772 203.22 72.7511 203.249 72.7239 203.272C72.6819 203.294 72.6344 203.305 72.5867 203.302C72.3529 203.319 72.119 203.271 71.9106 203.164C71.8079 203.108 71.7237 203.024 71.6685 202.921C71.6133 202.818 71.5895 202.701 71.6001 202.585C71.6142 202.504 71.6488 202.429 71.7008 202.367C71.7527 202.304 71.82 202.257 71.8961 202.228C71.9735 202.201 72.0566 202.195 72.1373 202.21C72.2179 202.225 72.2932 202.26 72.3557 202.313L72.3091 202.304Z" fill="white"/>
<path opacity="0.5" d="M75.4211 201.821C75.4934 201.805 75.5568 201.763 75.5982 201.701C75.6396 201.64 75.6556 201.565 75.6429 201.493C75.6269 201.42 75.5917 201.354 75.541 201.3C75.4902 201.247 75.4258 201.208 75.3547 201.188C75.293 201.168 75.2103 201.169 75.1808 201.227C75.1733 201.248 75.1705 201.271 75.1725 201.294C75.1746 201.316 75.1814 201.338 75.1926 201.358L75.3895 201.865L75.4211 201.821Z" fill="white"/>
<path opacity="0.5" d="M72.1 195.746C72.0384 195.787 71.9681 195.813 71.8947 195.822C71.8213 195.831 71.7467 195.824 71.6768 195.799C71.6069 195.775 71.5437 195.735 71.4918 195.682C71.4399 195.63 71.401 195.566 71.3779 195.495C71.5705 195.363 71.7971 195.29 72.0304 195.285C72.2621 195.304 72.49 195.521 72.4316 195.745L72.0955 195.974L72.1 195.746Z" fill="white"/>
<path opacity="0.5" d="M71.5442 199.976L71.646 199.817C71.5785 199.745 71.4867 199.701 71.3886 199.694C71.2914 199.698 71.2041 199.821 71.2678 199.895C71.2943 199.92 71.3275 199.938 71.3637 199.946L71.6985 200.05L71.5442 199.976Z" fill="white"/>
<path opacity="0.5" d="M69.7079 197.155C69.7672 197.011 69.797 196.857 69.7953 196.702C69.7924 196.624 69.7667 196.55 69.7216 196.487C69.6764 196.424 69.6136 196.375 69.5412 196.348C69.4659 196.329 69.3865 196.337 69.316 196.369C69.2111 196.419 69.13 196.508 69.0898 196.617C69.0497 196.727 69.0539 196.847 69.1014 196.953C69.1574 197.055 69.251 197.131 69.3624 197.165C69.4737 197.199 69.594 197.189 69.6974 197.135L69.7079 197.155Z" fill="white"/>
<path opacity="0.5" d="M70.185 195.594C70.1581 195.492 70.1318 195.39 70.1048 195.289C70.0239 195.289 69.9441 195.307 69.8712 195.342C69.8647 195.419 69.8885 195.496 69.9375 195.556C69.9865 195.615 70.0569 195.654 70.1338 195.663L70.185 195.594Z" fill="white"/>
<path opacity="0.5" d="M65.4465 189.472C65.1454 188.941 64.7263 188.486 64.2215 188.143C64.1439 188.083 64.0544 188.04 63.9589 188.018C63.8642 188.01 63.7691 188.026 63.6822 188.065C63.5952 188.103 63.5193 188.163 63.4613 188.238C63.3143 188.419 63.2247 188.639 63.2039 188.871C63.1831 189.103 63.232 189.336 63.3445 189.54C63.4624 189.74 63.6271 189.909 63.8243 190.033C64.0216 190.156 64.2456 190.23 64.4776 190.249C64.6043 190.267 64.7333 190.259 64.8572 190.227C64.9811 190.195 65.0975 190.139 65.1997 190.062C65.2991 189.982 65.3674 189.87 65.3929 189.745C65.4184 189.62 65.3996 189.49 65.3395 189.377C65.3197 189.376 65.3 189.38 65.2823 189.389C65.2645 189.398 65.2493 189.411 65.2379 189.427C65.2265 189.443 65.2194 189.462 65.2172 189.482C65.215 189.501 65.2177 189.521 65.2252 189.54L65.4465 189.472Z" fill="white"/>
<path opacity="0.5" d="M66.9821 208.471C66.9577 208.506 66.9206 208.53 66.8787 208.538C66.8369 208.546 66.7935 208.538 66.7577 208.515C66.7228 208.49 66.6935 208.458 66.6718 208.421C66.6501 208.384 66.6364 208.343 66.6316 208.301C66.6209 208.252 66.6232 208.201 66.6382 208.152C66.6492 208.126 66.6655 208.102 66.686 208.082C66.7065 208.062 66.7309 208.046 66.7577 208.035C66.7844 208.025 66.813 208.019 66.8417 208.02C66.8705 208.021 66.8988 208.027 66.9251 208.039C66.9759 208.067 67.0142 208.114 67.0323 208.169C67.0504 208.224 67.047 208.284 67.0228 208.337C66.9949 208.388 66.9501 208.428 66.8961 208.449C66.842 208.471 66.7821 208.472 66.7268 208.454L66.9821 208.471Z" fill="white"/>
<path opacity="0.5" d="M73.9543 198.124C73.8394 198.017 73.6537 198.076 73.5145 198.148C73.3754 198.221 73.2073 198.303 73.0708 198.225C73.0514 198.216 73.0347 198.202 73.0218 198.184C73.0089 198.167 73.0002 198.147 72.9966 198.126C72.9867 198.015 73.1384 197.982 73.2322 197.924C73.3012 197.869 73.3638 197.807 73.4187 197.738C73.4952 197.665 73.5917 197.617 73.6958 197.6C73.7999 197.583 73.9067 197.598 74.0023 197.642C74.0354 197.688 74.0549 197.742 74.0583 197.798C74.0618 197.855 74.0492 197.911 74.022 197.96C73.9932 198.009 73.9511 198.048 73.9008 198.074C73.8505 198.099 73.7939 198.11 73.7377 198.105L73.9543 198.124Z" fill="white"/>
<path opacity="0.5" d="M70.4976 196.347C70.3828 196.24 70.197 196.299 70.0579 196.371C69.9187 196.444 69.7506 196.526 69.6147 196.448C69.5954 196.439 69.5785 196.425 69.5657 196.407C69.5528 196.39 69.5441 196.37 69.5405 196.348C69.5306 196.238 69.6823 196.205 69.7762 196.147C69.8452 196.092 69.9077 196.029 69.9627 195.96C70.0391 195.888 70.1357 195.84 70.2398 195.823C70.3439 195.806 70.4506 195.821 70.5462 195.865C70.5794 195.911 70.5989 195.965 70.6024 196.022C70.6059 196.078 70.5932 196.134 70.5659 196.184C70.537 196.232 70.4949 196.271 70.4446 196.297C70.3943 196.322 70.3378 196.333 70.2817 196.327L70.4976 196.347Z" fill="white"/>
<path opacity="0.5" d="M69.8022 193.53C69.7863 193.402 69.7414 193.28 69.6709 193.172C69.6606 193.155 69.6468 193.139 69.6302 193.126C69.6126 193.117 69.5928 193.112 69.5728 193.112C69.5527 193.112 69.533 193.117 69.5153 193.126C69.4717 193.149 69.4358 193.184 69.4123 193.227C69.3889 193.271 69.3791 193.32 69.3841 193.369C69.3905 193.417 69.4084 193.464 69.4366 193.504C69.4647 193.544 69.5021 193.577 69.5455 193.599C69.592 193.627 69.6473 193.635 69.6998 193.622C69.7257 193.615 69.7481 193.599 69.7633 193.576C69.7786 193.554 69.7855 193.527 69.7831 193.501C69.7794 193.499 69.7752 193.498 69.771 193.498C69.7669 193.499 69.7629 193.5 69.7593 193.502C69.7558 193.504 69.753 193.507 69.7509 193.511C69.7489 193.515 69.7478 193.519 69.7477 193.523L69.8022 193.53Z" fill="white"/>
<path opacity="0.5" d="M76.4714 218.267C76.5084 218.348 76.5199 218.438 76.5042 218.525C76.4051 218.471 76.3197 218.395 76.2548 218.303C76.1899 218.211 76.1472 218.104 76.1301 217.993C76.096 217.873 76.0743 217.719 76.1747 217.643C76.2443 217.59 76.3421 217.602 76.4255 217.577C76.5935 217.528 76.7452 217.329 76.9001 217.411C76.9417 217.439 76.9722 217.48 76.9863 217.528C77.0005 217.576 76.9973 217.627 76.9775 217.673C76.9364 217.764 76.8743 217.843 76.7963 217.905L76.3218 218.347L76.4714 218.267Z" fill="white"/>
<path opacity="0.5" d="M72.3561 198.111C72.297 198.213 72.4218 198.336 72.5367 198.346C72.6542 198.337 72.7712 198.322 72.8872 198.301C72.9481 198.3 73.0085 198.312 73.0644 198.337C73.1202 198.361 73.1701 198.397 73.2109 198.443C73.2369 198.468 73.2559 198.499 73.2659 198.533C73.2759 198.568 73.2767 198.605 73.268 198.64C73.2482 198.683 73.2163 198.72 73.1761 198.746C72.9992 198.9 72.7834 199.001 72.5524 199.04C72.4368 199.057 72.3188 199.04 72.2128 198.991C72.1069 198.942 72.0177 198.862 71.9563 198.763C71.9197 198.69 71.9026 198.609 71.9069 198.528C71.9112 198.447 71.9366 198.368 71.9806 198.3C72.026 198.232 72.0883 198.178 72.1612 198.142C72.2341 198.106 72.3151 198.09 72.3962 198.095L72.3561 198.111Z" fill="white"/>
<path opacity="0.5" d="M73.801 197.598C73.7426 197.701 73.8667 197.825 73.9822 197.835C74.0998 197.826 74.2167 197.811 74.3327 197.789C74.3937 197.789 74.4541 197.801 74.51 197.825C74.5658 197.85 74.6157 197.886 74.6564 197.931C74.6824 197.956 74.7013 197.988 74.7113 198.022C74.7214 198.057 74.7221 198.093 74.7135 198.128C74.6934 198.172 74.6616 198.208 74.6216 198.235C74.4445 198.388 74.2284 198.49 73.9973 198.529C73.8817 198.546 73.7638 198.528 73.658 198.479C73.5521 198.43 73.4631 198.35 73.4019 198.251C73.3652 198.178 73.348 198.098 73.3522 198.016C73.3563 197.935 73.3816 197.857 73.4255 197.788C73.4711 197.721 73.5335 197.667 73.6065 197.631C73.6795 197.595 73.7605 197.578 73.8417 197.583L73.801 197.598Z" fill="white"/>
<path opacity="0.5" d="M74.1127 199.936C74.0543 200.039 74.1784 200.163 74.2939 200.173C74.4115 200.164 74.5284 200.148 74.6444 200.127C74.7054 200.126 74.7658 200.139 74.8216 200.163C74.8774 200.187 74.9274 200.224 74.9681 200.269C74.994 200.294 75.013 200.325 75.023 200.36C75.033 200.394 75.0337 200.431 75.0252 200.466C75.005 200.509 74.9733 200.546 74.9333 200.572C74.7562 200.726 74.5401 200.828 74.309 200.866C74.1933 200.884 74.0752 200.867 73.9692 200.817C73.8632 200.768 73.7742 200.688 73.7129 200.589C73.6765 200.516 73.6595 200.435 73.6637 200.354C73.668 200.273 73.6933 200.194 73.7372 200.126C73.7829 200.059 73.8452 200.004 73.9182 199.968C73.9911 199.933 74.0722 199.916 74.1534 199.921L74.1127 199.936Z" fill="white"/>
<path opacity="0.5" d="M59.7271 190.571C59.6681 190.674 59.7927 190.797 59.9076 190.807C60.0252 190.798 60.1422 190.783 60.2582 190.762C60.3192 190.761 60.3796 190.773 60.4355 190.798C60.4913 190.822 60.5413 190.859 60.5819 190.904C60.608 190.929 60.627 190.96 60.637 190.995C60.647 191.029 60.6477 191.066 60.6389 191.101C60.6188 191.144 60.587 191.181 60.547 191.207C60.3702 191.361 60.1544 191.463 59.9234 191.501C59.8078 191.519 59.6897 191.501 59.5838 191.452C59.4778 191.403 59.3887 191.323 59.3273 191.224C59.2907 191.151 59.2737 191.07 59.278 190.989C59.2822 190.908 59.3076 190.829 59.3516 190.761C59.3972 190.694 59.4596 190.639 59.5326 190.603C59.6056 190.567 59.6867 190.551 59.7679 190.556L59.7271 190.571Z" fill="white"/>
<path opacity="0.5" d="M66.662 210.561C66.71 210.505 66.7348 210.433 66.7315 210.36C66.7282 210.287 66.697 210.218 66.6443 210.167C66.5881 210.119 66.5199 210.087 66.4472 210.075C66.3744 210.062 66.2997 210.069 66.2307 210.096C66.1697 210.117 66.1034 210.167 66.1145 210.231C66.1224 210.275 66.1631 210.303 66.2011 210.327L66.6606 210.616L66.662 210.561Z" fill="white"/>
<path opacity="0.5" d="M65.0825 200.55C65.1423 200.406 65.1723 200.253 65.1705 200.097C65.1678 200.02 65.1422 199.945 65.0971 199.882C65.0519 199.819 64.989 199.77 64.9164 199.743C64.8411 199.724 64.7619 199.732 64.6913 199.764C64.5862 199.814 64.5049 199.903 64.4648 200.013C64.4247 200.122 64.4289 200.243 64.4766 200.349C64.5327 200.451 64.6263 200.527 64.7377 200.561C64.8491 200.595 64.9694 200.584 65.0727 200.53L65.0825 200.55Z" fill="white"/>
<path opacity="0.5" d="M61.6873 194.941C61.7048 194.854 61.7048 194.765 61.6873 194.678C61.6774 194.635 61.6548 194.595 61.6224 194.564C61.5901 194.534 61.5494 194.514 61.5055 194.506C61.3591 194.496 61.2705 194.668 61.1352 194.725C61 194.781 60.8207 194.72 60.7124 194.82C60.6903 194.848 60.6746 194.88 60.6662 194.915C60.6578 194.95 60.6569 194.986 60.6637 195.021C60.6705 195.056 60.6848 195.089 60.7055 195.118C60.7263 195.147 60.753 195.172 60.784 195.189C60.9151 195.254 61.0646 195.273 61.2074 195.241C61.3373 195.233 61.4625 195.19 61.5692 195.115C61.6214 195.077 61.6586 195.021 61.6745 194.959C61.6903 194.896 61.6837 194.829 61.6558 194.771L61.6873 194.941Z" fill="white"/>
<path opacity="0.5" d="M72.9479 201.398C73.2399 201.287 73.4989 201.103 73.7006 200.865C73.9023 200.626 74.0402 200.34 74.1013 200.034C73.871 199.824 73.5937 199.673 73.2928 199.593C72.9919 199.513 72.6762 199.507 72.3723 199.574C72.0723 199.657 71.8176 199.856 71.6642 200.127C71.5108 200.398 71.4712 200.718 71.5542 201.018C71.6149 201.155 71.7106 201.273 71.8317 201.36C71.9527 201.447 72.0947 201.501 72.2432 201.515C72.3918 201.53 72.5415 201.505 72.6772 201.443C72.8128 201.38 72.9296 201.284 73.0156 201.162L72.9479 201.398Z" fill="white"/>
<path opacity="0.5" d="M75.3929 204.064C75.2491 203.998 75.0935 204.117 74.9865 204.232C74.8795 204.347 74.7476 204.48 74.5926 204.452C74.5713 204.449 74.5509 204.441 74.5331 204.429C74.5153 204.417 74.5006 204.401 74.4902 204.382C74.4436 204.282 74.5755 204.2 74.6458 204.114C74.6926 204.039 74.7308 203.959 74.7594 203.876C74.8075 203.782 74.8827 203.705 74.9754 203.654C75.068 203.604 75.1737 203.582 75.2787 203.593C75.3251 203.625 75.3614 203.67 75.3834 203.722C75.4054 203.774 75.4121 203.831 75.4027 203.886C75.3917 203.942 75.3651 203.993 75.326 204.034C75.287 204.075 75.237 204.103 75.1821 204.117L75.3929 204.064Z" fill="white"/>
<path opacity="0.5" d="M70.8358 201.995C70.8142 201.939 70.7932 201.882 70.7702 201.825C70.7205 201.82 70.6706 201.833 70.6287 201.86C70.5868 201.887 70.5554 201.928 70.5397 201.975C70.5337 201.999 70.5326 202.024 70.5364 202.048C70.5402 202.072 70.5489 202.095 70.5619 202.116C70.5748 202.137 70.5919 202.155 70.612 202.169C70.6321 202.183 70.6549 202.193 70.6789 202.198C70.7032 202.2 70.7276 202.197 70.7503 202.188C70.7729 202.179 70.7932 202.165 70.8096 202.147C70.8259 202.129 70.8378 202.108 70.8442 202.084C70.8507 202.061 70.8517 202.036 70.847 202.012L70.8358 201.995Z" fill="white"/>
<path opacity="0.5" d="M73.3098 204.395C73.3076 204.411 73.3021 204.427 73.2935 204.442C73.2849 204.456 73.2735 204.469 73.2599 204.478C73.2464 204.488 73.2309 204.495 73.2146 204.499C73.1982 204.503 73.1813 204.503 73.1648 204.5C73.098 204.485 73.0389 204.446 72.998 204.391C72.9595 204.351 72.9309 204.303 72.9147 204.25C72.9042 204.196 72.912 204.141 72.9371 204.092C72.9621 204.044 73.0028 204.005 73.0525 203.982C73.1032 203.962 73.1585 203.955 73.2126 203.963C73.2668 203.971 73.3179 203.993 73.3604 204.028C73.3823 204.043 73.4008 204.062 73.4149 204.085C73.429 204.107 73.4384 204.133 73.4425 204.159C73.4454 204.185 73.4385 204.212 73.4232 204.233C73.4078 204.255 73.3849 204.27 73.359 204.276L73.3098 204.395Z" fill="white"/>
<path opacity="0.5" d="M60.8129 190.142C60.9802 189.878 61.0777 189.576 61.0963 189.264C61.1149 188.952 61.054 188.641 60.9193 188.359C60.6094 188.329 60.2967 188.374 60.0078 188.49C59.7189 188.606 59.4623 188.79 59.2597 189.027C59.0703 189.272 58.9859 189.583 59.0249 189.89C59.0639 190.198 59.2231 190.477 59.4678 190.668C59.993 190.996 60.8464 190.516 60.7229 189.907L60.8129 190.142Z" fill="white"/>
<path opacity="0.5" d="M74.5697 205.127C74.5344 204.466 74.3476 203.822 74.0236 203.245C73.9763 203.149 73.9091 203.064 73.8266 202.996C73.7383 202.943 73.6379 202.912 73.5347 202.907C73.4314 202.903 73.3286 202.924 73.2358 202.969C73.0058 203.073 72.8123 203.244 72.68 203.459C72.5476 203.674 72.4827 203.923 72.4933 204.175C72.5109 204.427 72.5888 204.671 72.7206 204.886C72.8523 205.101 73.034 205.281 73.2502 205.411C73.4802 205.569 73.7635 205.629 74.038 205.579C74.1732 205.549 74.2937 205.473 74.3789 205.364C74.4641 205.255 74.5086 205.119 74.5047 204.981C74.4858 204.971 74.4648 204.966 74.4436 204.967C74.4224 204.967 74.4016 204.973 74.3829 204.983C74.3643 204.993 74.3483 205.007 74.3365 205.025C74.3247 205.043 74.3173 205.063 74.315 205.084L74.5697 205.127Z" fill="white"/>
<path opacity="0.5" d="M70.0783 200.859C70.2456 200.595 70.3431 200.293 70.3617 199.981C70.3803 199.669 70.3194 199.358 70.1847 199.076C69.8748 199.046 69.5623 199.091 69.2734 199.207C68.9846 199.323 68.728 199.507 68.5251 199.744C68.3359 199.989 68.2516 200.3 68.2906 200.607C68.3296 200.915 68.4887 201.194 68.7332 201.385C69.2583 201.713 70.1118 201.232 69.9884 200.624L70.0783 200.859Z" fill="white"/>
<path opacity="0.5" d="M69.2241 194.718C69.2982 194.593 69.3427 194.453 69.3541 194.308C69.3655 194.164 69.3435 194.018 69.2897 193.884C69.1635 193.915 69.0447 193.97 68.9398 194.047C68.8881 194.086 68.8491 194.14 68.8275 194.201C68.8059 194.262 68.8027 194.329 68.8184 194.392C68.8761 194.56 69.081 194.611 69.2589 194.637L69.1414 194.725L69.2241 194.718Z" fill="white"/>
<path opacity="0.5" d="M67.7546 193.232C67.7703 193.152 67.7593 193.069 67.7231 192.996C67.6729 192.935 67.6056 192.891 67.5301 192.869C67.3318 192.787 67.1414 192.688 66.9609 192.573C67.0668 192.913 67.1723 193.253 67.2773 193.594C67.2877 193.62 67.2924 193.648 67.2911 193.677C67.2812 193.775 67.1533 193.808 67.0942 193.885C67.0036 193.997 67.0771 194.165 67.169 194.279C67.8196 195.072 67.7165 193.672 67.7546 193.232Z" fill="white"/>
<path opacity="0.5" d="M75.3419 203.357C75.3157 203.255 75.2901 203.154 75.2645 203.053C75.1634 203.08 75.0732 203.137 75.0067 203.218C74.9402 203.299 74.9006 203.399 74.8936 203.503C74.9001 203.712 75.1693 203.884 75.3334 203.754C75.4352 203.675 75.5618 203.509 75.6399 203.611L75.3419 203.357Z" fill="white"/>
<path opacity="0.5" d="M68.0929 198.043C68.1298 198.124 68.1412 198.213 68.1257 198.3C68.0264 198.247 67.9409 198.171 67.876 198.079C67.811 197.987 67.7684 197.88 67.7515 197.769C67.7167 197.648 67.6957 197.495 67.7955 197.418C67.8651 197.366 67.9629 197.378 68.0469 197.353C68.2149 197.304 68.3666 197.104 68.5215 197.186C68.5627 197.214 68.5928 197.256 68.6068 197.304C68.6208 197.351 68.6179 197.403 68.5984 197.449C68.5573 197.539 68.4954 197.618 68.4178 197.68L67.9432 198.122L68.0929 198.043Z" fill="white"/>
<path opacity="0.5" d="M64.9488 199.384C65.0144 199.215 64.7473 199.078 64.5944 199.176C64.526 199.236 64.4709 199.309 64.4325 199.392C64.3941 199.474 64.3731 199.564 64.3711 199.655C64.4921 199.689 64.6206 199.687 64.7405 199.649C64.8604 199.611 64.9663 199.538 65.0446 199.439L64.9488 199.384Z" fill="white"/>
<path opacity="0.5" d="M65.4904 195.541C65.466 195.576 65.4289 195.6 65.3871 195.608C65.3452 195.617 65.3017 195.608 65.2659 195.585C65.2311 195.56 65.2018 195.528 65.18 195.491C65.1582 195.455 65.1443 195.414 65.1392 195.371C65.1288 195.322 65.1311 195.27 65.1458 195.222C65.157 195.196 65.1733 195.172 65.1939 195.152C65.2144 195.132 65.2388 195.116 65.2655 195.105C65.2922 195.095 65.3208 195.09 65.3495 195.09C65.3782 195.091 65.4065 195.097 65.4327 195.109C65.4836 195.137 65.522 195.184 65.5401 195.239C65.5583 195.294 65.5548 195.354 65.5304 195.407C65.5027 195.458 65.458 195.498 65.4041 195.519C65.3501 195.541 65.2903 195.543 65.235 195.525L65.4904 195.541Z" fill="white"/>
<path opacity="0.5" d="M66.64 195.547C66.6835 195.553 66.7278 195.547 66.7687 195.531C66.8095 195.515 66.8454 195.488 66.8729 195.454C66.9005 195.42 66.9186 195.379 66.9257 195.336C66.9327 195.292 66.9284 195.248 66.9131 195.206C66.8204 195.184 66.7229 195.192 66.6353 195.23C66.5924 195.25 66.5572 195.283 66.5353 195.325C66.5133 195.367 66.5058 195.415 66.5139 195.462C66.5202 195.484 66.5318 195.505 66.5477 195.521C66.5635 195.538 66.5832 195.551 66.605 195.559C66.6269 195.566 66.6502 195.568 66.6731 195.565C66.696 195.562 66.7177 195.553 66.7365 195.539L66.64 195.547Z" fill="white"/>
<path opacity="0.5" d="M70.6946 195.979C70.7776 195.907 70.8432 195.818 70.8867 195.718C70.9301 195.617 70.9502 195.508 70.9453 195.399L70.4143 195.472C70.3299 195.477 70.2482 195.503 70.1773 195.549C70.1481 195.578 70.1252 195.612 70.1102 195.649C70.0951 195.687 70.0883 195.728 70.0901 195.768C70.0919 195.809 70.1023 195.849 70.1206 195.885C70.1389 195.921 70.1647 195.953 70.1963 195.979C70.2637 196.026 70.3439 196.051 70.4261 196.051C70.5082 196.051 70.5885 196.026 70.6559 195.979H70.6946Z" fill="white"/>
<path opacity="0.5" d="M63.7993 197.446C63.7663 197.5 63.7183 197.543 63.6613 197.571C63.6042 197.598 63.5404 197.608 63.4777 197.6C63.4152 197.59 63.3568 197.563 63.3094 197.521C63.2619 197.479 63.2274 197.425 63.2099 197.364C63.1875 197.281 63.221 197.167 63.307 197.158C63.3434 197.158 63.3791 197.168 63.41 197.187L63.838 197.399L63.7901 197.464L63.7993 197.446Z" fill="white"/>
<path opacity="0.5" d="M61.3248 197.218C61.2099 197.111 61.0248 197.17 60.8856 197.242C60.7465 197.314 60.5784 197.396 60.4418 197.319C60.4226 197.309 60.4058 197.295 60.393 197.278C60.3801 197.26 60.3714 197.24 60.3676 197.219C60.3578 197.109 60.5094 197.075 60.6033 197.017C60.6723 196.963 60.7349 196.9 60.7898 196.831C60.8663 196.758 60.9628 196.71 61.0669 196.693C61.171 196.677 61.2778 196.691 61.3734 196.736C61.4066 196.782 61.426 196.836 61.4295 196.892C61.433 196.949 61.4204 197.005 61.3931 197.054C61.3641 197.103 61.3221 197.142 61.2718 197.167C61.2215 197.193 61.1649 197.203 61.1088 197.198L61.3248 197.218Z" fill="white"/>
<path opacity="0.5" d="M61.4994 195.655C61.4994 195.595 61.4994 195.534 61.4961 195.474C61.4509 195.453 61.3998 195.448 61.3513 195.46C61.3029 195.472 61.2599 195.5 61.2296 195.54C61.216 195.56 61.2068 195.583 61.2023 195.607C61.1978 195.631 61.1982 195.656 61.2036 195.68C61.2089 195.704 61.219 195.727 61.2333 195.747C61.2476 195.767 61.2658 195.784 61.2867 195.796C61.3088 195.807 61.3329 195.812 61.3573 195.811C61.3816 195.81 61.4054 195.804 61.4268 195.792C61.4482 195.78 61.4666 195.764 61.4804 195.744C61.4943 195.724 61.5033 195.701 61.5066 195.677L61.4994 195.655Z" fill="white"/>
<path opacity="0.5" d="M67.9537 195.443C67.8946 195.547 68.0194 195.669 68.1343 195.679C68.2518 195.671 68.3689 195.656 68.4848 195.635C68.5458 195.634 68.6063 195.646 68.6621 195.67C68.718 195.695 68.7678 195.731 68.8084 195.776C68.8345 195.801 68.8536 195.832 68.8636 195.867C68.8737 195.902 68.8743 195.938 68.8656 195.973C68.8455 196.017 68.8136 196.053 68.7737 196.08C68.5968 196.233 68.381 196.335 68.15 196.374C68.0344 196.391 67.9163 196.374 67.8103 196.324C67.7044 196.275 67.6152 196.196 67.5539 196.096C67.5173 196.023 67.5003 195.943 67.5045 195.861C67.5088 195.78 67.5342 195.702 67.5782 195.633C67.6238 195.566 67.6862 195.512 67.7591 195.476C67.8321 195.44 67.9132 195.423 67.9944 195.428L67.9537 195.443Z" fill="white"/>
<path opacity="0.5" d="M70.1581 193.191C70.2067 193.136 70.2319 193.064 70.2286 192.991C70.2253 192.917 70.1937 192.848 70.1404 192.798C70.0843 192.749 70.0162 192.717 69.9434 192.705C69.8706 192.693 69.7957 192.7 69.7268 192.727C69.6658 192.748 69.5995 192.798 69.6106 192.862C69.6185 192.905 69.6599 192.934 69.6973 192.958L70.1568 193.247L70.1581 193.191Z" fill="white"/>
<path opacity="0.5" d="M67.1245 200.735C67.0629 200.776 66.9926 200.802 66.9193 200.811C66.846 200.82 66.7715 200.812 66.7017 200.788C66.6318 200.764 66.5685 200.724 66.5166 200.671C66.4647 200.619 66.4256 200.555 66.4023 200.485C66.595 200.353 66.8221 200.279 67.0556 200.274C67.2867 200.293 67.5151 200.51 67.456 200.733L67.1206 200.963L67.1245 200.735Z" fill="white"/>
<path opacity="0.5" d="M65.9451 194.04L65.9306 193.851C65.8337 193.835 65.7342 193.854 65.651 193.907C65.5761 193.969 65.5794 194.119 65.6746 194.14C65.7112 194.145 65.7482 194.139 65.7816 194.123L66.1098 194.007L65.9451 194.04Z" fill="white"/>
<path opacity="0.5" d="M66.5053 204.973L66.4252 204.668C66.3444 204.669 66.2645 204.687 66.1914 204.721C66.185 204.799 66.2093 204.876 66.259 204.936C66.3087 204.996 66.3799 205.034 66.4573 205.042L66.5053 204.973Z" fill="white"/>
<path opacity="0.5" d="M67.4867 202.56L67.4066 202.254C67.3257 202.255 67.246 202.274 67.1729 202.308C67.1665 202.386 67.1907 202.463 67.2404 202.522C67.2902 202.582 67.3614 202.62 67.4388 202.628L67.4867 202.56Z" fill="white"/>
<path opacity="0.5" d="M62.3711 186.446C62.4578 186.365 62.3771 186.211 62.2681 186.167C62.153 186.141 62.0367 186.121 61.9195 186.107C61.8609 186.09 61.8067 186.061 61.7605 186.021C61.7143 185.981 61.6772 185.932 61.6517 185.876C61.6342 185.845 61.625 185.811 61.625 185.775C61.625 185.74 61.6342 185.705 61.6517 185.674C61.6838 185.638 61.7252 185.613 61.7712 185.599C61.9854 185.504 62.2217 185.471 62.4539 185.502C62.5694 185.52 62.6772 185.571 62.7639 185.649C62.8506 185.727 62.9124 185.829 62.9416 185.942C62.9552 186.023 62.9477 186.105 62.9198 186.181C62.892 186.257 62.8448 186.325 62.7828 186.378C62.7192 186.429 62.6434 186.463 62.5627 186.475C62.4821 186.488 62.3995 186.48 62.3232 186.451L62.3711 186.446Z" fill="white"/>
<path opacity="0.5" d="M71.3916 199.209C71.5818 199.713 71.8852 200.167 72.2785 200.535C72.3384 200.598 72.4108 200.648 72.4911 200.68C72.5727 200.7 72.6579 200.699 72.7389 200.677C72.82 200.656 72.8944 200.614 72.9553 200.556C73.1076 200.419 73.2157 200.24 73.2655 200.041C73.3153 199.842 73.3047 199.633 73.235 199.44C73.1596 199.249 73.0393 199.079 72.8842 198.945C72.7291 198.81 72.5438 198.715 72.3441 198.667C72.1252 198.601 71.8891 198.625 71.6876 198.733C71.5897 198.789 71.5146 198.877 71.4752 198.983C71.4357 199.089 71.4345 199.205 71.4717 199.312C71.4888 199.315 71.5065 199.314 71.5232 199.309C71.5398 199.303 71.5549 199.294 71.567 199.281C71.5791 199.269 71.5879 199.253 71.5926 199.237C71.5972 199.22 71.5977 199.202 71.5938 199.185L71.3916 199.209Z" fill="white"/>
<path opacity="0.5" d="M75.2807 199.054C75.358 199.027 75.4246 198.976 75.4698 198.909C75.4977 198.835 75.5027 198.754 75.4843 198.677C75.456 198.465 75.4475 198.251 75.4587 198.037L74.7293 198.819C74.7111 198.841 74.6888 198.86 74.6637 198.873C74.5731 198.913 74.4812 198.818 74.384 198.803C74.2416 198.78 74.1326 198.928 74.0814 199.065C73.7171 200.025 74.8803 199.239 75.2807 199.054Z" fill="white"/>
<path opacity="0.5" d="M71.4968 199.126L71.506 198.945C71.4625 198.921 71.4119 198.912 71.3628 198.921C71.3136 198.929 71.2687 198.954 71.2355 198.991C71.2201 199.01 71.2088 199.033 71.2024 199.057C71.196 199.081 71.1946 199.106 71.1983 199.13C71.2019 199.155 71.2105 199.179 71.2236 199.2C71.2366 199.221 71.2539 199.239 71.2742 199.253C71.2956 199.265 71.3194 199.272 71.3438 199.272C71.3681 199.273 71.3924 199.268 71.4145 199.258C71.4367 199.248 71.4562 199.233 71.4715 199.214C71.4868 199.195 71.4975 199.173 71.5027 199.149L71.4968 199.126Z" fill="white"/>
<path opacity="0.5" d="M74.0948 197.845C74.167 197.859 74.2419 197.845 74.304 197.805C74.3661 197.766 74.4107 197.704 74.4283 197.633C74.4422 197.56 74.4362 197.485 74.4109 197.416C74.3855 197.346 74.3419 197.285 74.2846 197.239C74.236 197.196 74.1592 197.164 74.1093 197.205C74.0944 197.222 74.0832 197.241 74.0763 197.262C74.0694 197.283 74.067 197.306 74.0692 197.328L74.0469 197.871L74.0948 197.845Z" fill="white"/>
<path opacity="0.5" d="M72.1915 198.279C72.3364 198.282 72.4799 198.251 72.611 198.189C72.7421 198.127 72.8573 198.036 72.9477 197.923C72.8584 197.829 72.7513 197.753 72.6326 197.7C72.5728 197.675 72.5068 197.668 72.4428 197.679C72.3789 197.691 72.3198 197.721 72.2729 197.766C72.156 197.897 72.2144 198.105 72.2787 198.27L72.1475 198.212L72.1915 198.279Z" fill="white"/>
<path opacity="0.5" d="M70.9366 197.907C70.8854 197.979 70.8132 198.034 70.7298 198.063C70.7265 197.95 70.7497 197.838 70.7974 197.735C70.8452 197.633 70.9162 197.543 71.0049 197.472C71.0922 197.382 71.215 197.287 71.3331 197.336C71.4139 197.37 71.452 197.461 71.515 197.522C71.6417 197.642 71.8898 197.675 71.8957 197.85C71.892 197.899 71.8713 197.946 71.837 197.982C71.8028 198.018 71.7572 198.041 71.7079 198.047C71.6089 198.056 71.509 198.042 71.4165 198.005L70.7974 197.813L70.9366 197.907Z" fill="white"/>
<path opacity="0.5" d="M74.0193 199.139C74.1225 199.176 74.2326 199.188 74.3413 199.176C74.45 199.164 74.5546 199.127 74.647 199.068L74.3187 198.644C74.273 198.573 74.2094 198.515 74.1343 198.477C74.0952 198.465 74.0543 198.462 74.0141 198.468C73.9738 198.474 73.9353 198.488 73.901 198.51C73.8667 198.532 73.8374 198.56 73.815 198.594C73.7926 198.628 73.7776 198.666 73.7712 198.706C73.7637 198.789 73.7818 198.871 73.8229 198.943C73.864 199.015 73.9262 199.072 74.001 199.107L74.0193 199.139Z" fill="white"/>
<path opacity="0.5" d="M73.1219 196.493C73.0038 196.493 72.9571 196.661 73.007 196.768C73.0731 196.865 73.1444 196.959 73.2204 197.049C73.2517 197.102 73.2712 197.16 73.2778 197.221C73.2844 197.282 73.2778 197.343 73.2585 197.401C73.2498 197.436 73.2323 197.467 73.2078 197.493C73.1833 197.518 73.1526 197.537 73.1186 197.547C73.0708 197.551 73.0227 197.542 72.9801 197.52C72.759 197.443 72.5635 197.307 72.4149 197.126C72.3423 197.034 72.2982 196.923 72.2883 196.806C72.2784 196.69 72.303 196.573 72.3591 196.47C72.4039 196.402 72.4656 196.347 72.5383 196.31C72.611 196.273 72.692 196.256 72.7733 196.26C72.8548 196.267 72.9331 196.294 73.0005 196.34C73.0679 196.386 73.122 196.449 73.1573 196.523L73.1219 196.493Z" fill="white"/>
<path opacity="0.5" d="M70.8313 203.77C70.9852 203.75 71.1334 203.7 71.2671 203.621C71.3329 203.581 71.3853 203.522 71.4175 203.452C71.4498 203.381 71.4605 203.303 71.4483 203.227C71.4266 203.152 71.3804 203.087 71.317 203.042C71.2213 202.976 71.1035 202.95 70.9887 202.969C70.874 202.989 70.7715 203.053 70.7032 203.147C70.6424 203.246 70.623 203.365 70.6489 203.479C70.6748 203.592 70.744 203.691 70.8418 203.754L70.8313 203.77Z" fill="white"/>
<path opacity="0.5" d="M74.2813 203.575C74.4262 203.577 74.5696 203.546 74.7007 203.485C74.8318 203.423 74.947 203.332 75.0375 203.219C74.948 203.124 74.8407 203.048 74.7218 202.996C74.662 202.97 74.596 202.963 74.5321 202.975C74.4682 202.986 74.409 203.016 74.362 203.061C74.2451 203.192 74.3042 203.4 74.3686 203.565L74.2373 203.507L74.2813 203.575Z" fill="white"/>
<path opacity="0.5" d="M70.5248 197.541C70.4178 197.427 70.2281 197.472 70.0843 197.536C69.9405 197.599 69.7666 197.667 69.6359 197.58C69.6176 197.569 69.6022 197.554 69.5908 197.536C69.5794 197.518 69.5724 197.497 69.5703 197.476C69.5703 197.365 69.7213 197.344 69.8198 197.291C69.8918 197.241 69.9579 197.184 70.0167 197.119C70.0983 197.051 70.1984 197.01 70.3038 197C70.4092 196.991 70.5151 197.013 70.6075 197.065C70.6378 197.112 70.6538 197.168 70.6538 197.224C70.6538 197.28 70.6378 197.336 70.6075 197.383C70.5754 197.43 70.5307 197.466 70.4786 197.488C70.4264 197.51 70.3691 197.516 70.3134 197.507L70.5248 197.541Z" fill="white"/>
<path opacity="0.5" d="M73.2378 200.394L73.3939 200.287C73.3602 200.195 73.2936 200.118 73.2069 200.072C73.1156 200.038 72.987 200.116 73.0159 200.209C73.0295 200.243 73.0522 200.272 73.0815 200.294L73.3474 200.522L73.2378 200.394Z" fill="white"/>
<path opacity="0.5" d="M86.7582 225.946C86.8922 225.89 87.0119 225.805 87.1078 225.696C87.2037 225.587 87.2734 225.458 87.3116 225.318C87.1919 225.267 87.0635 225.24 86.9335 225.239C86.8685 225.24 86.805 225.259 86.751 225.296C86.6971 225.332 86.6549 225.383 86.6296 225.443C86.5751 225.612 86.7109 225.777 86.8357 225.902H86.6886L86.7582 225.946Z" fill="white"/>
<path opacity="0.5" d="M87.2917 226.955C87.3286 227.036 87.3401 227.126 87.3245 227.213C87.2254 227.159 87.14 227.083 87.0752 226.991C87.0104 226.898 86.9679 226.792 86.9509 226.681C86.9162 226.561 86.8945 226.407 86.9949 226.331C87.0645 226.278 87.1623 226.29 87.2457 226.265C87.4137 226.215 87.5661 226.017 87.7203 226.098C87.7617 226.126 87.792 226.167 87.8062 226.215C87.8203 226.263 87.8174 226.315 87.7978 226.361C87.7567 226.451 87.6945 226.531 87.6166 226.592L87.142 227.034L87.2917 226.955Z" fill="white"/>
<path opacity="0.5" d="M79.3709 232.092C79.3887 232.005 79.3887 231.916 79.3709 231.829C79.3611 231.786 79.3387 231.746 79.3063 231.715C79.2739 231.685 79.233 231.664 79.189 231.657C79.0427 231.646 78.9541 231.819 78.8188 231.876C78.6836 231.933 78.5043 231.871 78.396 231.971C78.3739 231.999 78.3582 232.031 78.3498 232.066C78.3414 232.101 78.3405 232.137 78.3473 232.172C78.3541 232.207 78.3684 232.24 78.3891 232.269C78.4099 232.298 78.4366 232.322 78.4676 232.34C78.5984 232.405 78.7478 232.423 78.8904 232.391C79.0204 232.384 79.1458 232.34 79.2528 232.266C79.3049 232.228 79.342 232.172 79.3576 232.109C79.3733 232.046 79.3667 231.98 79.3387 231.922L79.3709 232.092Z" fill="white"/>
<path opacity="0.5" d="M84.189 225.059C84.2202 225.091 84.2589 225.113 84.3013 225.124C84.3438 225.136 84.3886 225.136 84.4312 225.125C84.4738 225.114 84.5128 225.093 84.5445 225.062C84.5761 225.032 84.5993 224.993 84.6118 224.951C84.551 224.878 84.468 224.826 84.3754 224.804C84.3291 224.794 84.2807 224.8 84.238 224.82C84.1952 224.841 84.1604 224.875 84.1391 224.917C84.1305 224.939 84.1273 224.962 84.1297 224.985C84.1321 225.008 84.1401 225.031 84.153 225.05C84.1659 225.069 84.1834 225.085 84.2038 225.096C84.2243 225.108 84.2471 225.114 84.2704 225.114L84.189 225.059Z" fill="white"/>
<path opacity="0.5" d="M87.1773 227.838C87.2864 227.83 87.3923 227.798 87.4872 227.743C87.5821 227.689 87.6636 227.614 87.7254 227.524L87.2567 227.261C87.1864 227.214 87.1049 227.186 87.0204 227.18C86.9801 227.186 86.9414 227.199 86.9068 227.22C86.8722 227.242 86.8424 227.27 86.8195 227.304C86.7966 227.337 86.7811 227.375 86.774 227.415C86.7669 227.455 86.7683 227.496 86.7782 227.536C86.8043 227.614 86.8538 227.682 86.92 227.732C86.9862 227.781 87.0659 227.809 87.1484 227.812L87.1773 227.838Z" fill="white"/>
<path opacity="0.5" d="M85.3052 225.766C85.1969 225.813 85.2206 225.984 85.3085 226.063C85.3965 226.142 85.5206 226.168 85.6164 226.237C85.6658 226.273 85.7069 226.318 85.7369 226.371C85.767 226.424 85.7852 226.483 85.7904 226.544C85.7963 226.579 85.7929 226.615 85.7806 226.648C85.7683 226.682 85.7474 226.711 85.7201 226.734C85.6782 226.757 85.6306 226.767 85.5829 226.764C85.3491 226.781 85.115 226.733 84.9067 226.625C84.804 226.57 84.7198 226.485 84.6646 226.383C84.6094 226.28 84.5856 226.163 84.5962 226.046C84.6104 225.966 84.6452 225.892 84.6971 225.829C84.749 225.767 84.8163 225.719 84.8923 225.69C84.9693 225.664 85.0518 225.658 85.1318 225.673C85.2118 225.688 85.2865 225.723 85.3485 225.776L85.3052 225.766Z" fill="white"/>
<path opacity="0.5" d="M88.4171 225.282C88.4894 225.266 88.5529 225.224 88.5943 225.162C88.6357 225.101 88.6517 225.026 88.639 224.953C88.6229 224.881 88.5876 224.815 88.5368 224.761C88.4861 224.708 88.4219 224.669 88.3508 224.649C88.2891 224.629 88.2064 224.63 88.1769 224.688C88.1694 224.709 88.1666 224.732 88.1686 224.755C88.1707 224.777 88.1774 224.799 88.1886 224.819L88.3856 225.326L88.4171 225.282Z" fill="white"/>
<path opacity="0.5" d="M84.5363 223.437C84.5704 223.384 84.602 223.331 84.6381 223.277C84.5701 223.206 84.4786 223.163 84.3808 223.154C84.2836 223.159 84.1963 223.282 84.26 223.356C84.2866 223.381 84.3198 223.399 84.3558 223.407L84.6906 223.511L84.5363 223.437Z" fill="white"/>
<path opacity="0.5" d="M82.7002 220.616C82.7595 220.473 82.7892 220.319 82.7875 220.164C82.7848 220.086 82.7592 220.011 82.714 219.948C82.6688 219.885 82.606 219.837 82.5334 219.809C82.4582 219.791 82.3788 219.798 82.3083 219.83C82.2033 219.881 82.1221 219.97 82.082 220.079C82.0419 220.188 82.046 220.309 82.0936 220.415C82.1496 220.517 82.2434 220.593 82.3547 220.627C82.4661 220.661 82.5864 220.65 82.6897 220.596L82.7002 220.616Z" fill="white"/>
<path opacity="0.5" d="M79.9822 231.932C79.9579 231.967 79.9209 231.991 79.8789 232C79.837 232.008 79.7935 231.999 79.7577 231.976C79.7229 231.951 79.6937 231.919 79.672 231.882C79.6502 231.845 79.6365 231.804 79.6316 231.762C79.6209 231.713 79.6232 231.661 79.6382 231.613C79.6493 231.586 79.6656 231.562 79.6861 231.542C79.7067 231.522 79.731 231.506 79.7578 231.496C79.7845 231.485 79.8132 231.48 79.8419 231.481C79.8707 231.482 79.8989 231.488 79.9251 231.5C79.9759 231.528 80.0142 231.574 80.0323 231.63C80.0505 231.685 80.0471 231.745 80.023 231.797C79.9953 231.849 79.9505 231.889 79.8963 231.91C79.8422 231.932 79.7821 231.933 79.7268 231.915L79.9822 231.932Z" fill="white"/>
<path opacity="0.5" d="M77.399 215.506C77.2841 215.399 77.0983 215.458 76.9591 215.531C76.82 215.604 76.6519 215.685 76.5153 215.607C76.4962 215.597 76.4796 215.583 76.4668 215.566C76.454 215.549 76.4455 215.529 76.4419 215.507C76.432 215.398 76.583 215.364 76.6775 215.306C76.7467 215.251 76.8092 215.189 76.8639 215.119C76.9404 215.047 77.037 214.999 77.1411 214.982C77.2452 214.965 77.352 214.98 77.4476 215.024C77.4808 215.07 77.5003 215.124 77.5037 215.181C77.5072 215.237 77.4946 215.293 77.4673 215.343C77.4385 215.391 77.3964 215.43 77.346 215.456C77.2957 215.481 77.2392 215.492 77.183 215.486L77.399 215.506Z" fill="white"/>
<path opacity="0.5" d="M75.801 215.491C75.7426 215.593 75.8667 215.717 75.9822 215.727C76.0997 215.718 76.2167 215.703 76.3327 215.682C76.3937 215.681 76.4541 215.693 76.5099 215.718C76.5657 215.742 76.6157 215.778 76.6564 215.824C76.6824 215.849 76.7013 215.88 76.7113 215.915C76.7214 215.949 76.7221 215.986 76.7134 216.021C76.693 216.064 76.6613 216.101 76.6216 216.127C76.4445 216.281 76.2284 216.382 75.9973 216.421C75.8817 216.438 75.7637 216.421 75.6579 216.372C75.552 216.322 75.463 216.243 75.4019 216.144C75.3652 216.071 75.348 215.99 75.3522 215.909C75.3563 215.828 75.3816 215.749 75.4255 215.681C75.4711 215.613 75.5335 215.559 75.6064 215.523C75.6794 215.487 75.7605 215.471 75.8416 215.476L75.801 215.491Z" fill="white"/>
<path opacity="0.5" d="M77.2467 214.979C77.1883 215.082 77.3123 215.206 77.4272 215.216C77.5448 215.207 77.6618 215.192 77.7777 215.17C77.8388 215.169 77.8994 215.182 77.9553 215.206C78.0113 215.231 78.0613 215.267 78.102 215.312C78.128 215.337 78.1469 215.368 78.1569 215.403C78.1668 215.438 78.1673 215.474 78.1585 215.509C78.1388 215.553 78.1069 215.59 78.0666 215.616C77.8898 215.769 77.6739 215.871 77.4429 215.91C77.3273 215.927 77.2092 215.91 77.1032 215.86C76.9973 215.811 76.9082 215.731 76.8469 215.632C76.8103 215.559 76.7933 215.478 76.7975 215.397C76.8018 215.316 76.8272 215.237 76.8712 215.169C76.9167 215.102 76.9791 215.048 77.0521 215.012C77.1251 214.976 77.2062 214.96 77.2874 214.965L77.2467 214.979Z" fill="white"/>
<path opacity="0.5" d="M77.5586 217.317C77.5002 217.42 77.6243 217.543 77.7398 217.553C77.8573 217.544 77.9744 217.529 78.0904 217.508C78.1514 217.507 78.2118 217.52 78.2677 217.544C78.3235 217.569 78.3734 217.605 78.414 217.65C78.4401 217.675 78.4592 217.706 78.4692 217.741C78.4792 217.776 78.4799 217.812 78.4711 217.847C78.451 217.891 78.4192 217.927 78.3792 217.954C78.2023 218.107 77.9865 218.209 77.7556 218.247C77.64 218.264 77.5219 218.247 77.4159 218.198C77.3099 218.149 77.2207 218.069 77.1595 217.97C77.1228 217.897 77.1058 217.816 77.11 217.735C77.1143 217.654 77.1398 217.575 77.1838 217.506C77.2293 217.439 77.2916 217.385 77.3644 217.349C77.4373 217.313 77.5183 217.297 77.5993 217.302L77.5586 217.317Z" fill="white"/>
<path opacity="0.5" d="M79.6581 234.021C79.7063 233.966 79.7314 233.894 79.7281 233.821C79.7248 233.747 79.6934 233.678 79.6404 233.627C79.5843 233.579 79.5163 233.547 79.4435 233.534C79.3707 233.522 79.2958 233.529 79.2268 233.556C79.1658 233.577 79.0995 233.627 79.1106 233.691C79.1176 233.712 79.129 233.732 79.1439 233.748C79.1588 233.765 79.177 233.778 79.1973 233.787L79.6568 234.076L79.6581 234.021Z" fill="white"/>
<path opacity="0.5" d="M78.0777 224.01C78.1374 223.866 78.1674 223.712 78.1657 223.557C78.1633 223.479 78.1379 223.404 78.0926 223.341C78.0474 223.278 77.9844 223.23 77.9116 223.203C77.8364 223.184 77.7571 223.192 77.6864 223.223C77.5814 223.274 77.5 223.363 77.4599 223.472C77.4198 223.581 77.4241 223.702 77.4718 223.808C77.5278 223.91 77.6215 223.986 77.7329 224.02C77.8443 224.054 77.9645 224.043 78.0678 223.989L78.0777 224.01Z" fill="white"/>
<path opacity="0.5" d="M76.3924 218.781C76.6843 218.669 76.9431 218.486 77.1447 218.247C77.3464 218.009 77.4841 217.723 77.5452 217.417C77.3151 217.207 77.0379 217.056 76.737 216.976C76.4362 216.896 76.1205 216.889 75.8167 216.957C75.5174 217.04 75.2633 217.238 75.11 217.509C74.9567 217.779 74.9167 218.098 74.9987 218.398C75.0594 218.534 75.1551 218.652 75.2761 218.739C75.3971 218.827 75.5391 218.88 75.6876 218.895C75.836 218.909 75.9857 218.884 76.1213 218.822C76.2568 218.759 76.3735 218.662 76.4593 218.54L76.3924 218.781Z" fill="white"/>
<path opacity="0.5" d="M88.3839 227.525C88.2401 227.46 88.0845 227.58 87.9775 227.694C87.8705 227.808 87.7386 227.942 87.5836 227.913C87.5623 227.911 87.5418 227.903 87.524 227.891C87.5062 227.879 87.4916 227.863 87.4812 227.844C87.4353 227.743 87.5665 227.661 87.6368 227.576C87.6835 227.501 87.7216 227.422 87.7503 227.338C87.7984 227.244 87.8736 227.167 87.9662 227.116C88.0588 227.066 88.1646 227.044 88.2696 227.055C88.3161 227.087 88.3526 227.132 88.3746 227.184C88.3966 227.236 88.4031 227.293 88.3936 227.349C88.3825 227.404 88.3559 227.455 88.3169 227.496C88.2778 227.537 88.2279 227.565 88.1731 227.579L88.3839 227.525Z" fill="white"/>
<path opacity="0.5" d="M83.8299 225.455C83.8082 225.398 83.7871 225.342 83.7641 225.285C83.7145 225.28 83.6647 225.292 83.6229 225.319C83.581 225.347 83.5496 225.387 83.5338 225.434C83.5278 225.458 83.5267 225.483 83.5306 225.507C83.5344 225.531 83.5431 225.555 83.556 225.576C83.569 225.597 83.586 225.615 83.6061 225.629C83.6262 225.643 83.6489 225.653 83.673 225.658C83.6972 225.66 83.7216 225.657 83.7443 225.648C83.7669 225.639 83.7873 225.625 83.8036 225.607C83.8199 225.589 83.8317 225.567 83.8382 225.544C83.8447 225.52 83.8457 225.496 83.841 225.472L83.8299 225.455Z" fill="white"/>
<path opacity="0.5" d="M86.3059 227.857C86.3037 227.874 86.2981 227.89 86.2895 227.904C86.2809 227.918 86.2696 227.931 86.256 227.941C86.2424 227.951 86.227 227.958 86.2106 227.961C86.1943 227.965 86.1773 227.966 86.1608 227.963C86.094 227.947 86.035 227.909 85.9941 227.854C85.9555 227.814 85.9268 227.766 85.9107 227.712C85.9003 227.659 85.9083 227.603 85.9333 227.555C85.9583 227.506 85.9988 227.467 86.0485 227.445C86.0993 227.424 86.1545 227.418 86.2086 227.426C86.2627 227.434 86.3138 227.456 86.3565 227.49C86.3783 227.505 86.3968 227.525 86.4109 227.547C86.425 227.57 86.4344 227.595 86.4385 227.621C86.4416 227.648 86.4348 227.674 86.4194 227.696C86.404 227.718 86.3811 227.733 86.3551 227.739L86.3059 227.857Z" fill="white"/>
<path opacity="0.5" d="M87.5648 228.589C87.5296 227.928 87.3427 227.284 87.0186 226.707C86.9713 226.611 86.9043 226.526 86.8217 226.458C86.7333 226.405 86.6329 226.374 86.5296 226.37C86.4264 226.365 86.3237 226.386 86.2309 226.432C86.001 226.536 85.8075 226.706 85.6751 226.921C85.5428 227.136 85.4778 227.385 85.4884 227.637C85.5059 227.889 85.5838 228.133 85.7155 228.348C85.8473 228.563 86.029 228.743 86.2453 228.873C86.4755 229.031 86.7586 229.091 87.033 229.041C87.1682 229.011 87.2889 228.935 87.3741 228.826C87.4593 228.717 87.5038 228.582 87.4998 228.443C87.4809 228.434 87.46 228.429 87.4388 228.429C87.4177 228.429 87.3968 228.435 87.3782 228.445C87.3595 228.455 87.3436 228.469 87.3318 228.487C87.3199 228.504 87.3124 228.525 87.3101 228.546L87.5648 228.589Z" fill="white"/>
<path opacity="0.5" d="M83.0734 224.32C83.2407 224.056 83.3381 223.754 83.3567 223.442C83.3753 223.13 83.3145 222.818 83.1798 222.536C82.8699 222.507 82.5573 222.552 82.2685 222.668C81.9796 222.784 81.723 222.968 81.5202 223.204C81.331 223.45 81.2467 223.76 81.2857 224.068C81.3247 224.375 81.4838 224.655 81.7283 224.845C82.2535 225.173 83.1069 224.693 82.9834 224.084L83.0734 224.32Z" fill="white"/>
<path opacity="0.5" d="M88.338 226.816C88.3117 226.715 88.2861 226.614 88.2605 226.512C88.1593 226.539 88.0692 226.598 88.0027 226.678C87.9362 226.759 87.8967 226.859 87.8896 226.963C87.8962 227.172 88.1653 227.344 88.3294 227.215C88.4312 227.135 88.5579 226.969 88.636 227.071L88.338 226.816Z" fill="white"/>
<path opacity="0.5" d="M81.089 221.504C81.126 221.585 81.1375 221.674 81.1218 221.761C81.0225 221.708 80.937 221.632 80.872 221.54C80.8071 221.447 80.7645 221.341 80.7476 221.23C80.7128 221.11 80.6918 220.955 80.7916 220.88C80.8612 220.827 80.959 220.838 81.0431 220.814C81.2111 220.764 81.3628 220.565 81.5177 220.647C81.5588 220.675 81.589 220.717 81.603 220.764C81.617 220.812 81.614 220.863 81.5945 220.909C81.5534 221 81.4915 221.079 81.4139 221.141L80.9394 221.583L81.089 221.504Z" fill="white"/>
<path opacity="0.5" d="M77.9449 222.845C78.0105 222.676 77.7433 222.538 77.5904 222.637C77.522 222.697 77.4668 222.771 77.4284 222.853C77.39 222.936 77.3691 223.025 77.3672 223.116C77.4882 223.151 77.6167 223.149 77.7366 223.11C77.8565 223.072 77.9623 222.999 78.0407 222.9L77.9449 222.845Z" fill="white"/>
<path opacity="0.5" d="M80.1205 224.196C80.0588 224.236 79.9886 224.262 79.9152 224.272C79.8419 224.281 79.7674 224.273 79.6976 224.249C79.6277 224.224 79.5644 224.184 79.5126 224.132C79.4607 224.079 79.4216 224.015 79.3984 223.945C79.5912 223.813 79.8181 223.74 80.0516 223.735C80.2827 223.753 80.5111 223.971 80.4521 224.194L80.1166 224.424L80.1205 224.196Z" fill="white"/>
<path opacity="0.5" d="M79.4994 228.435L79.4193 228.129C79.3385 228.13 79.2588 228.148 79.1856 228.182C79.1792 228.26 79.2034 228.337 79.2531 228.397C79.3028 228.457 79.374 228.495 79.4515 228.503L79.4994 228.435Z" fill="white"/>
<path opacity="0.5" d="M80.4788 226.02L80.3987 225.715C80.3179 225.716 80.2382 225.734 80.165 225.768C80.1588 225.846 80.1831 225.923 80.2327 225.982C80.2824 226.042 80.3536 226.08 80.4309 226.089L80.4788 226.02Z" fill="white"/>
<path opacity="0.5" d="M68.5898 207.179C68.7801 207.683 69.0835 208.137 69.4767 208.505C69.5365 208.568 69.609 208.617 69.6894 208.65C69.7709 208.67 69.8562 208.669 69.9373 208.647C70.0184 208.626 70.0928 208.584 70.1535 208.526C70.3059 208.389 70.4139 208.209 70.4637 208.011C70.5136 207.812 70.5029 207.603 70.4332 207.41C70.358 207.219 70.2376 207.049 70.0825 206.914C69.9274 206.78 69.7421 206.685 69.5423 206.637C69.434 206.604 69.3202 206.593 69.2075 206.604C69.0949 206.616 68.9855 206.649 68.8859 206.703C68.7883 206.759 68.7134 206.848 68.674 206.954C68.6346 207.059 68.6331 207.175 68.6699 207.282C68.6871 207.285 68.7048 207.284 68.7214 207.279C68.7381 207.274 68.7531 207.264 68.7653 207.252C68.7774 207.239 68.7862 207.224 68.7908 207.207C68.7955 207.19 68.7959 207.172 68.792 207.155L68.5898 207.179Z" fill="white"/>
<path opacity="0.5" d="M78.7268 216.435C78.804 216.408 78.8705 216.357 78.9159 216.29C78.9438 216.216 78.9486 216.136 78.9297 216.059C78.9021 215.847 78.8935 215.632 78.904 215.418L78.1753 216.2C78.1573 216.222 78.135 216.241 78.1097 216.254C78.0191 216.294 77.9272 216.2 77.8294 216.184C77.6869 216.162 77.5779 216.309 77.5267 216.446C77.1624 217.406 78.3257 216.62 78.7268 216.435Z" fill="white"/>
<path opacity="0.5" d="M84.4916 222.588L84.5008 222.407C84.4572 222.383 84.4066 222.374 84.3575 222.382C84.3083 222.391 84.2634 222.416 84.2303 222.453C84.215 222.473 84.2039 222.495 84.1975 222.519C84.1912 222.543 84.1897 222.568 84.1934 222.593C84.197 222.617 84.2056 222.641 84.2186 222.662C84.2316 222.683 84.2488 222.701 84.2691 222.716C84.2905 222.727 84.3142 222.734 84.3386 222.734C84.3629 222.735 84.3871 222.73 84.4092 222.72C84.4314 222.71 84.4508 222.695 84.4661 222.676C84.4815 222.657 84.4922 222.635 84.4975 222.611L84.4916 222.588Z" fill="white"/>
<path opacity="0.5" d="M77.5372 215.226C77.6094 215.241 77.6845 215.227 77.7467 215.187C77.8088 215.148 77.8533 215.086 77.8707 215.014C77.8843 214.942 77.8781 214.867 77.8528 214.798C77.8275 214.728 77.7841 214.667 77.7269 214.62C77.6777 214.578 77.6015 214.545 77.5516 214.587C77.5369 214.603 77.5257 214.623 77.5187 214.644C77.5117 214.665 77.5091 214.687 77.511 214.71C77.5035 214.891 77.4963 215.072 77.4893 215.253L77.5372 215.226Z" fill="white"/>
<path opacity="0.5" d="M75.637 215.661C75.7819 215.664 75.9254 215.633 76.0565 215.572C76.1876 215.51 76.3029 215.419 76.3933 215.306C76.3043 215.211 76.1971 215.135 76.0782 215.082C76.0183 215.057 75.9525 215.05 75.8886 215.062C75.8247 215.073 75.7655 215.103 75.7184 215.148C75.6016 215.279 75.66 215.488 75.725 215.652L75.5938 215.594L75.637 215.661Z" fill="white"/>
<path opacity="0.5" d="M83.9326 221.368C83.8814 221.44 83.8092 221.495 83.7259 221.524C83.7227 221.411 83.7458 221.299 83.7936 221.196C83.8413 221.093 83.9123 221.003 84.0009 220.933C84.0882 220.843 84.211 220.748 84.3291 220.797C84.4099 220.831 84.4479 220.922 84.511 220.982C84.6377 221.103 84.8859 221.136 84.8918 221.311C84.8882 221.36 84.8674 221.407 84.8332 221.443C84.7989 221.479 84.7533 221.502 84.704 221.507C84.6049 221.517 84.505 221.503 84.4126 221.466L83.7935 221.274L83.9326 221.368Z" fill="white"/>
<path opacity="0.5" d="M77.4647 216.521C77.5677 216.558 77.6778 216.57 77.7866 216.558C77.8953 216.546 77.9997 216.509 78.0922 216.451L77.764 216.027C77.7185 215.955 77.6548 215.897 77.5795 215.859C77.5405 215.847 77.4996 215.845 77.4594 215.85C77.4192 215.856 77.3806 215.87 77.3463 215.892C77.312 215.914 77.2827 215.942 77.2603 215.976C77.2379 216.01 77.223 216.048 77.2165 216.089C77.209 216.171 77.2271 216.253 77.2682 216.325C77.3093 216.397 77.3715 216.454 77.4462 216.489L77.4647 216.521Z" fill="white"/>
<path opacity="0.5" d="M76.5702 213.875C76.452 213.875 76.4054 214.042 76.4553 214.149C76.5212 214.246 76.5924 214.341 76.6686 214.431C76.6997 214.483 76.7192 214.542 76.7258 214.602C76.7324 214.663 76.7259 214.724 76.7067 214.782C76.6979 214.816 76.6802 214.848 76.6556 214.874C76.631 214.899 76.6002 214.918 76.5662 214.928C76.5186 214.932 76.471 214.923 76.4283 214.901C76.2075 214.824 76.0121 214.688 75.8631 214.508C75.7905 214.416 75.7464 214.304 75.7365 214.188C75.7266 214.071 75.7512 213.954 75.8073 213.851C75.8521 213.783 75.9139 213.728 75.9864 213.692C76.0589 213.655 76.1397 213.638 76.2209 213.642C76.3023 213.648 76.3807 213.676 76.4482 213.722C76.5157 213.768 76.57 213.831 76.6056 213.904L76.5702 213.875Z" fill="white"/>
<path opacity="0.5" d="M83.8264 227.231C83.9803 227.212 84.1286 227.161 84.2623 227.083C84.3277 227.042 84.3798 226.983 84.412 226.913C84.4442 226.843 84.4551 226.765 84.4435 226.689C84.422 226.614 84.3757 226.549 84.3122 226.505C84.2166 226.438 84.0987 226.412 83.984 226.432C83.8693 226.451 83.7667 226.515 83.6984 226.609C83.6376 226.708 83.6181 226.827 83.644 226.941C83.6699 227.054 83.7391 227.153 83.8369 227.216L83.8264 227.231Z" fill="white"/>
<path opacity="0.5" d="M87.2738 227.036C87.4188 227.038 87.5623 227.007 87.6934 226.945C87.8245 226.883 87.9397 226.792 88.0301 226.679C87.9407 226.585 87.8334 226.509 87.7143 226.457C87.6545 226.431 87.5886 226.424 87.5247 226.436C87.4607 226.447 87.4016 226.477 87.3546 226.522C87.2378 226.654 87.2969 226.861 87.3612 227.026L87.2266 226.968L87.2738 227.036Z" fill="white"/>
<path opacity="0.5" d="M83.5209 221.002C83.4139 220.887 83.2242 220.936 83.0804 220.995C82.9366 221.054 82.7627 221.127 82.632 221.041C82.6137 221.029 82.5982 221.014 82.5868 220.996C82.5755 220.978 82.5685 220.957 82.5664 220.936C82.5664 220.825 82.7174 220.804 82.8159 220.752C82.8877 220.702 82.9538 220.643 83.0128 220.579C83.0943 220.511 83.1945 220.47 83.2999 220.46C83.4053 220.451 83.5112 220.473 83.6036 220.525C83.6339 220.572 83.6499 220.627 83.6499 220.684C83.6499 220.74 83.6339 220.796 83.6036 220.843C83.5714 220.89 83.5267 220.926 83.4746 220.948C83.4225 220.97 83.3652 220.977 83.3095 220.967L83.5209 221.002Z" fill="white"/>
<path opacity="0.5" d="M76.6831 217.773L76.8392 217.667C76.8055 217.575 76.7389 217.498 76.6522 217.452C76.561 217.418 76.4323 217.496 76.4612 217.589C76.4748 217.622 76.4975 217.652 76.5268 217.673L76.7933 217.902L76.6831 217.773Z" fill="white"/>
</g>
<path d="M132.562 168.099C163.458 168.099 188.505 143.053 188.505 112.157C188.505 81.2605 163.458 56.2142 132.562 56.2142C101.666 56.2142 76.6201 81.2605 76.6201 112.157C76.6201 143.053 101.666 168.099 132.562 168.099Z" fill="#7A67D3"/>
<path d="M165.027 29.8641H100.102C95.8593 29.8641 92.4199 33.3035 92.4199 37.5462V172.308C92.4199 176.551 95.8593 179.99 100.102 179.99H165.027C169.269 179.99 172.709 176.551 172.709 172.308V37.5462C172.709 33.3035 169.269 29.8641 165.027 29.8641Z" fill="black"/>
<path d="M149.848 35.2121V37.2566C149.848 38.0607 149.529 38.832 148.96 39.4006C148.391 39.9692 147.62 40.2887 146.816 40.2887H118.306C117.502 40.2887 116.731 39.9692 116.162 39.4006C115.594 38.832 115.274 38.0607 115.274 37.2566V35.2121C115.274 35.0824 115.249 34.9539 115.199 34.8341C115.15 34.7142 115.077 34.6053 114.985 34.5135C114.894 34.4217 114.785 34.3489 114.665 34.2992C114.545 34.2495 114.417 34.2238 114.287 34.2238H102.497C101.078 34.2245 99.7178 34.7889 98.7149 35.7928C97.712 36.7967 97.1488 38.1578 97.1494 39.5768V170.277C97.1488 171.696 97.712 173.057 98.7149 174.061C99.7178 175.065 101.078 175.629 102.497 175.63H162.62C163.322 175.63 164.018 175.491 164.667 175.222C165.316 174.953 165.905 174.558 166.402 174.061C166.899 173.564 167.292 172.974 167.561 172.325C167.829 171.675 167.967 170.98 167.967 170.277V39.5768C167.967 38.8742 167.829 38.1785 167.561 37.5292C167.292 36.8799 166.899 36.2899 166.402 35.7928C165.905 35.2958 165.316 34.9014 164.667 34.6321C164.018 34.3629 163.322 34.2241 162.62 34.2238H150.83C150.569 34.2253 150.319 34.3301 150.135 34.5153C149.951 34.7005 149.848 34.951 149.848 35.2121Z" fill="white"/>
<path d="M169.874 160.696H95.8174V176.129H169.874V160.696Z" fill="black"/>
<path d="M133.664 174.96C136.761 174.96 139.271 172.447 139.271 169.348C139.271 166.248 136.761 163.735 133.664 163.735C130.568 163.735 128.058 166.248 128.058 169.348C128.058 172.447 130.568 174.96 133.664 174.96Z" fill="#545454"/>
<path d="M137.869 169.35C137.87 169.902 137.761 170.449 137.55 170.96C137.339 171.47 137.029 171.934 136.639 172.325C136.248 172.716 135.785 173.026 135.274 173.238C134.764 173.449 134.217 173.558 133.664 173.559C133.112 173.558 132.565 173.449 132.054 173.238C131.544 173.026 131.08 172.716 130.69 172.325C130.299 171.934 129.99 171.47 129.778 170.96C129.567 170.449 129.459 169.902 129.459 169.35C129.459 168.797 129.567 168.25 129.778 167.739C129.99 167.229 130.299 166.765 130.69 166.374C131.08 165.983 131.544 165.673 132.054 165.461C132.565 165.25 133.112 165.14 133.664 165.14C134.217 165.14 134.764 165.25 135.274 165.461C135.785 165.673 136.248 165.983 136.639 166.374C137.029 166.765 137.339 167.229 137.55 167.739C137.761 168.25 137.87 168.797 137.869 169.35Z" fill="#737373"/>
<path d="M138.877 35.3573H121.576C121.064 35.3573 120.648 35.7726 120.648 36.285V36.3001C120.648 36.8125 121.064 37.2278 121.576 37.2278H138.877C139.389 37.2278 139.805 36.8125 139.805 36.3001V36.285C139.805 35.7726 139.389 35.3573 138.877 35.3573Z" fill="#A4A5A4"/>
<path d="M144.48 36.2924C144.48 36.6643 144.332 37.021 144.069 37.284C143.806 37.5471 143.45 37.695 143.078 37.6952C142.706 37.695 142.349 37.5471 142.086 37.284C141.823 37.021 141.676 36.6643 141.676 36.2924C141.676 36.1082 141.712 35.9258 141.782 35.7556C141.853 35.5854 141.956 35.4307 142.086 35.3004C142.216 35.17 142.371 35.0666 142.541 34.9961C142.711 34.9255 142.894 34.8891 143.078 34.889C143.262 34.8891 143.444 34.9255 143.615 34.9961C143.785 35.0666 143.939 35.17 144.069 35.3004C144.2 35.4307 144.303 35.5854 144.373 35.7556C144.444 35.9258 144.48 36.1082 144.48 36.2924Z" fill="#A4A5A4"/>
<path d="M92.4135 90.9417C92.4135 90.9417 98.4676 96.1648 99.7866 102.247C101.556 110.405 93.1448 122.766 93.6047 132.825C94.1404 144.448 100.47 149.474 104.322 157.179C108.777 166.088 108.458 171.945 108.458 174.997C108.478 176.768 108.094 178.521 107.336 180.122H149.141C149.141 180.122 140.903 192.633 124.73 202.704C111.496 210.944 104.588 224.979 104.588 224.979H46L67.094 189.951C67.094 189.951 63.2758 171.496 65.5296 158.152C69.6085 134.011 92.4135 90.9417 92.4135 90.9417Z" fill="#B78876"/>
<path d="M107.526 179.999C107.526 179.999 105.299 184.131 102.696 188.359C100.094 192.587 98.4688 194.864 98.4688 194.864C98.4688 194.864 104.619 193.199 108.551 190.311C112.488 187.407 116.012 183.983 119.029 180.132L107.526 179.999Z" fill="#996552"/>
<path d="M164.468 4.01189L166.28 0.69751L168.093 4.01189C169.906 7.32623 172.632 10.0513 175.946 11.8643L179.261 13.6771L175.946 15.4899C172.632 17.3029 169.906 20.0283 168.093 23.343L166.28 26.6574L164.468 23.343C162.655 20.0282 159.93 17.3027 156.615 15.4899L153.301 13.6771L156.615 11.8643C159.93 10.0515 162.655 7.32635 164.468 4.01189Z" fill="#6654A4"/>
<path d="M131.459 16.0178L132.227 14.6115L132.996 16.0178C133.765 17.4234 134.921 18.5792 136.327 19.3481L137.732 20.1169L136.327 20.8858C134.921 21.6546 133.765 22.8104 132.996 24.216L132.227 25.6216L131.459 24.216C130.69 22.8104 129.534 21.6546 128.128 20.8858L126.723 20.1169L128.128 19.3481C129.534 18.5791 130.69 17.4234 131.459 16.0178Z" fill="#6654A4"/>
<path d="M179.527 54.2387L179.881 53.589L180.234 54.2387C180.589 54.8858 181.121 55.4178 181.768 55.7721L182.418 56.1259L181.768 56.4796C181.121 56.8339 180.589 57.3663 180.234 58.0137L179.881 58.6635L179.527 58.0137C179.173 57.3665 178.64 56.8341 177.993 56.4796L177.344 56.1259L177.993 55.7721C178.64 55.4176 179.172 54.8856 179.527 54.2387Z" fill="#6654A4"/>
<path d="M183.765 28.5147L184.41 27.3344L185.055 28.5147C185.701 29.6951 186.672 30.6655 187.852 31.3108L189.032 31.9562L187.852 32.6016C186.672 33.2473 185.701 34.2179 185.055 35.3983L184.41 36.5787L183.765 35.3983C183.119 34.218 182.149 33.2474 180.968 32.6016L179.788 31.9562L180.968 31.3108C182.149 30.6654 183.119 29.695 183.765 28.5147Z" fill="#6654A4"/>
<path d="M133.072 107.137C145.016 107.137 154.699 97.4544 154.699 85.5103C154.699 73.5661 145.016 63.8834 133.072 63.8834C121.128 63.8834 111.445 73.5661 111.445 85.5103C111.445 97.4544 121.128 107.137 133.072 107.137Z" fill="#AB97E8"/>
<path d="M123.087 84.51L130.411 91.1683L143.061 79.8492" stroke="white" stroke-width="1.417" stroke-linecap="round" stroke-linejoin="round"/>
<path d="M115.066 133.154V130.18H114.004V129.575H116.848V130.18H115.789V133.154H115.066ZM117.32 133.154V129.575H118.841C119.223 129.575 119.501 129.607 119.673 129.672C119.847 129.736 119.986 129.85 120.091 130.014C120.195 130.179 120.247 130.367 120.247 130.578C120.247 130.847 120.168 131.069 120.01 131.245C119.852 131.419 119.616 131.529 119.302 131.574C119.458 131.665 119.587 131.766 119.688 131.875C119.79 131.984 119.928 132.177 120.1 132.456L120.537 133.154H119.673L119.151 132.375C118.965 132.097 118.838 131.922 118.77 131.85C118.701 131.777 118.629 131.727 118.552 131.701C118.476 131.674 118.355 131.66 118.189 131.66H118.042V133.154H117.32ZM118.042 131.089H118.577C118.924 131.089 119.14 131.074 119.226 131.045C119.313 131.015 119.38 130.965 119.429 130.893C119.478 130.822 119.502 130.732 119.502 130.625C119.502 130.504 119.47 130.407 119.405 130.334C119.341 130.259 119.251 130.212 119.134 130.193C119.075 130.184 118.899 130.18 118.606 130.18H118.042V131.089ZM124.158 133.154H123.372L123.059 132.341H121.629L121.333 133.154H120.567L121.961 129.575H122.725L124.158 133.154ZM122.827 131.738L122.334 130.41L121.851 131.738H122.827ZM124.551 133.154V129.575H125.254L126.719 131.965V129.575H127.39V133.154H126.665L125.222 130.82V133.154H124.551ZM127.974 131.989L128.677 131.921C128.719 132.157 128.805 132.33 128.933 132.441C129.064 132.552 129.239 132.607 129.458 132.607C129.691 132.607 129.866 132.558 129.983 132.461C130.102 132.361 130.161 132.246 130.161 132.114C130.161 132.029 130.136 131.958 130.086 131.899C130.037 131.839 129.951 131.787 129.827 131.743C129.742 131.714 129.549 131.661 129.248 131.587C128.861 131.491 128.589 131.373 128.433 131.233C128.213 131.036 128.103 130.796 128.103 130.512C128.103 130.33 128.155 130.16 128.257 130.002C128.361 129.843 128.51 129.721 128.704 129.638C128.899 129.555 129.134 129.514 129.409 129.514C129.859 129.514 130.196 129.612 130.423 129.809C130.65 130.006 130.77 130.269 130.781 130.598L130.059 130.63C130.028 130.446 129.961 130.314 129.859 130.234C129.758 130.153 129.606 130.112 129.402 130.112C129.192 130.112 129.028 130.155 128.909 130.241C128.832 130.297 128.794 130.371 128.794 130.464C128.794 130.548 128.83 130.621 128.902 130.681C128.993 130.757 129.214 130.837 129.566 130.92C129.917 131.003 130.177 131.089 130.344 131.179C130.514 131.267 130.646 131.388 130.74 131.543C130.836 131.696 130.884 131.885 130.884 132.111C130.884 132.317 130.827 132.509 130.713 132.688C130.599 132.867 130.438 133 130.23 133.088C130.021 133.174 129.762 133.217 129.451 133.217C128.998 133.217 128.651 133.113 128.408 132.905C128.166 132.695 128.021 132.39 127.974 131.989ZM134.719 133.154H133.933L133.621 132.341H132.19L131.895 133.154H131.128L132.522 129.575H133.286L134.719 133.154ZM133.389 131.738L132.896 130.41L132.412 131.738H133.389ZM137.395 131.838L138.096 132.06C137.989 132.451 137.809 132.741 137.559 132.932C137.31 133.121 136.993 133.215 136.609 133.215C136.134 133.215 135.743 133.053 135.437 132.729C135.131 132.404 134.978 131.959 134.978 131.396C134.978 130.8 135.132 130.338 135.44 130.009C135.747 129.679 136.152 129.514 136.653 129.514C137.091 129.514 137.447 129.643 137.72 129.902C137.883 130.055 138.005 130.275 138.086 130.561L137.371 130.732C137.329 130.547 137.24 130.4 137.105 130.293C136.971 130.185 136.809 130.131 136.616 130.131C136.351 130.131 136.136 130.227 135.969 130.417C135.805 130.608 135.723 130.916 135.723 131.342C135.723 131.795 135.804 132.117 135.967 132.309C136.13 132.501 136.341 132.597 136.602 132.597C136.794 132.597 136.959 132.536 137.097 132.414C137.236 132.292 137.335 132.1 137.395 131.838ZM139.524 133.154V130.18H138.462V129.575H141.306V130.18H140.247V133.154H139.524ZM141.753 133.154V129.575H142.476V133.154H141.753ZM143.02 131.386C143.02 131.022 143.075 130.716 143.184 130.468C143.265 130.286 143.376 130.123 143.516 129.978C143.657 129.833 143.812 129.725 143.98 129.655C144.203 129.561 144.46 129.514 144.751 129.514C145.279 129.514 145.7 129.677 146.016 130.005C146.333 130.332 146.492 130.787 146.492 131.369C146.492 131.947 146.335 132.4 146.021 132.727C145.707 133.052 145.287 133.215 144.761 133.215C144.229 133.215 143.806 133.053 143.491 132.729C143.177 132.404 143.02 131.956 143.02 131.386ZM143.765 131.362C143.765 131.767 143.858 132.075 144.046 132.285C144.233 132.493 144.47 132.597 144.759 132.597C145.047 132.597 145.283 132.494 145.467 132.287C145.652 132.079 145.745 131.767 145.745 131.352C145.745 130.942 145.655 130.636 145.474 130.434C145.295 130.232 145.056 130.131 144.759 130.131C144.461 130.131 144.221 130.234 144.038 130.439C143.856 130.643 143.765 130.95 143.765 131.362ZM147.066 133.154V129.575H147.769L149.234 131.965V129.575H149.905V133.154H149.18L147.737 130.82V133.154H147.066ZM115.33 139.989L116.033 139.921C116.075 140.157 116.161 140.33 116.289 140.441C116.42 140.552 116.594 140.607 116.814 140.607C117.047 140.607 117.222 140.558 117.339 140.461C117.458 140.361 117.517 140.246 117.517 140.114C117.517 140.029 117.492 139.958 117.442 139.899C117.393 139.839 117.307 139.787 117.183 139.743C117.098 139.714 116.905 139.661 116.604 139.587C116.217 139.491 115.945 139.373 115.789 139.233C115.569 139.036 115.459 138.796 115.459 138.512C115.459 138.33 115.511 138.16 115.613 138.002C115.717 137.843 115.866 137.721 116.06 137.638C116.255 137.555 116.49 137.514 116.765 137.514C117.215 137.514 117.552 137.612 117.779 137.809C118.006 138.006 118.126 138.269 118.137 138.598L117.415 138.63C117.384 138.446 117.317 138.314 117.215 138.234C117.114 138.153 116.962 138.112 116.758 138.112C116.548 138.112 116.384 138.155 116.265 138.241C116.188 138.297 116.15 138.371 116.15 138.464C116.15 138.548 116.186 138.621 116.258 138.681C116.349 138.757 116.57 138.837 116.922 138.92C117.273 139.003 117.533 139.089 117.7 139.179C117.87 139.267 118.002 139.388 118.096 139.543C118.192 139.696 118.24 139.885 118.24 140.111C118.24 140.317 118.183 140.509 118.069 140.688C117.955 140.867 117.794 141 117.586 141.088C117.377 141.174 117.118 141.217 116.807 141.217C116.354 141.217 116.007 141.113 115.764 140.905C115.522 140.695 115.377 140.39 115.33 139.989ZM118.843 137.575H119.566V139.513C119.566 139.821 119.575 140.02 119.593 140.111C119.623 140.258 119.697 140.376 119.812 140.465C119.929 140.553 120.089 140.597 120.291 140.597C120.496 140.597 120.65 140.556 120.755 140.473C120.859 140.388 120.921 140.285 120.943 140.163C120.964 140.041 120.974 139.838 120.974 139.555V137.575H121.697V139.455C121.697 139.884 121.677 140.188 121.638 140.365C121.599 140.543 121.527 140.693 121.421 140.815C121.317 140.937 121.177 141.034 121.001 141.108C120.825 141.179 120.596 141.215 120.313 141.215C119.971 141.215 119.711 141.176 119.534 141.098C119.358 141.018 119.219 140.915 119.116 140.79C119.014 140.663 118.946 140.531 118.914 140.392C118.867 140.187 118.843 139.884 118.843 139.484V137.575ZM124.751 139.838L125.452 140.06C125.344 140.451 125.165 140.741 124.915 140.932C124.666 141.121 124.349 141.215 123.965 141.215C123.49 141.215 123.099 141.053 122.793 140.729C122.487 140.404 122.334 139.959 122.334 139.396C122.334 138.8 122.488 138.338 122.796 138.009C123.103 137.679 123.508 137.514 124.009 137.514C124.447 137.514 124.802 137.643 125.076 137.902C125.239 138.055 125.361 138.275 125.442 138.561L124.727 138.732C124.684 138.547 124.596 138.4 124.461 138.293C124.327 138.185 124.164 138.131 123.972 138.131C123.707 138.131 123.491 138.227 123.325 138.417C123.161 138.608 123.079 138.916 123.079 139.342C123.079 139.795 123.16 140.117 123.323 140.309C123.486 140.501 123.697 140.597 123.958 140.597C124.15 140.597 124.315 140.536 124.453 140.414C124.592 140.292 124.691 140.1 124.751 139.838ZM128.365 139.838L129.065 140.06C128.958 140.451 128.779 140.741 128.528 140.932C128.279 141.121 127.962 141.215 127.578 141.215C127.103 141.215 126.712 141.053 126.406 140.729C126.101 140.404 125.948 139.959 125.948 139.396C125.948 138.8 126.101 138.338 126.409 138.009C126.717 137.679 127.121 137.514 127.622 137.514C128.06 137.514 128.416 137.643 128.689 137.902C128.852 138.055 128.974 138.275 129.055 138.561L128.34 138.732C128.298 138.547 128.209 138.4 128.074 138.293C127.941 138.185 127.778 138.131 127.586 138.131C127.32 138.131 127.105 138.227 126.939 138.417C126.774 138.608 126.692 138.916 126.692 139.342C126.692 139.795 126.774 140.117 126.936 140.309C127.099 140.501 127.311 140.597 127.571 140.597C127.763 140.597 127.928 140.536 128.067 140.414C128.205 140.292 128.304 140.1 128.365 139.838ZM129.688 141.154V137.575H132.342V138.18H130.41V138.974H132.207V139.577H130.41V140.551H132.41V141.154H129.688ZM132.84 139.989L133.543 139.921C133.585 140.157 133.67 140.33 133.799 140.441C133.929 140.552 134.104 140.607 134.324 140.607C134.557 140.607 134.732 140.558 134.849 140.461C134.968 140.361 135.027 140.246 135.027 140.114C135.027 140.029 135.002 139.958 134.951 139.899C134.903 139.839 134.816 139.787 134.693 139.743C134.608 139.714 134.415 139.661 134.114 139.587C133.727 139.491 133.455 139.373 133.299 139.233C133.079 139.036 132.969 138.796 132.969 138.512C132.969 138.33 133.02 138.16 133.123 138.002C133.227 137.843 133.376 137.721 133.57 137.638C133.765 137.555 134 137.514 134.275 137.514C134.724 137.514 135.062 137.612 135.288 137.809C135.516 138.006 135.636 138.269 135.647 138.598L134.925 138.63C134.894 138.446 134.827 138.314 134.724 138.234C134.623 138.153 134.471 138.112 134.268 138.112C134.058 138.112 133.893 138.155 133.775 138.241C133.698 138.297 133.66 138.371 133.66 138.464C133.66 138.548 133.696 138.621 133.767 138.681C133.858 138.757 134.08 138.837 134.431 138.92C134.783 139.003 135.043 139.089 135.21 139.179C135.379 139.267 135.511 139.388 135.606 139.543C135.702 139.696 135.75 139.885 135.75 140.111C135.75 140.317 135.693 140.509 135.579 140.688C135.465 140.867 135.304 141 135.095 141.088C134.887 141.174 134.628 141.217 134.317 141.217C133.864 141.217 133.517 141.113 133.274 140.905C133.032 140.695 132.887 140.39 132.84 139.989ZM136.175 139.989L136.878 139.921C136.92 140.157 137.005 140.33 137.134 140.441C137.264 140.552 137.439 140.607 137.659 140.607C137.892 140.607 138.067 140.558 138.184 140.461C138.303 140.361 138.362 140.246 138.362 140.114C138.362 140.029 138.337 139.958 138.286 139.899C138.238 139.839 138.151 139.787 138.028 139.743C137.943 139.714 137.75 139.661 137.449 139.587C137.062 139.491 136.79 139.373 136.634 139.233C136.414 139.036 136.304 138.796 136.304 138.512C136.304 138.33 136.355 138.16 136.458 138.002C136.562 137.843 136.711 137.721 136.905 137.638C137.1 137.555 137.335 137.514 137.61 137.514C138.059 137.514 138.397 137.612 138.623 137.809C138.851 138.006 138.971 138.269 138.982 138.598L138.26 138.63C138.229 138.446 138.162 138.314 138.059 138.234C137.958 138.153 137.806 138.112 137.603 138.112C137.393 138.112 137.228 138.155 137.11 138.241C137.033 138.297 136.995 138.371 136.995 138.464C136.995 138.548 137.031 138.621 137.102 138.681C137.193 138.757 137.415 138.837 137.766 138.92C138.118 139.003 138.378 139.089 138.545 139.179C138.714 139.267 138.846 139.388 138.941 139.543C139.037 139.696 139.085 139.885 139.085 140.111C139.085 140.317 139.028 140.509 138.914 140.688C138.8 140.867 138.639 141 138.43 141.088C138.222 141.174 137.962 141.217 137.652 141.217C137.199 141.217 136.852 141.113 136.609 140.905C136.367 140.695 136.222 140.39 136.175 139.989ZM139.698 141.154V137.575H142.151V138.18H140.42V139.027H141.914V139.633H140.42V141.154H139.698ZM142.744 137.575H143.467V139.513C143.467 139.821 143.476 140.02 143.494 140.111C143.525 140.258 143.598 140.376 143.714 140.465C143.831 140.553 143.99 140.597 144.192 140.597C144.397 140.597 144.552 140.556 144.656 140.473C144.76 140.388 144.823 140.285 144.844 140.163C144.865 140.041 144.876 139.838 144.876 139.555V137.575H145.598V139.455C145.598 139.884 145.579 140.188 145.54 140.365C145.501 140.543 145.428 140.693 145.323 140.815C145.218 140.937 145.078 141.034 144.903 141.108C144.727 141.179 144.497 141.215 144.214 141.215C143.872 141.215 143.613 141.176 143.435 141.098C143.26 141.018 143.12 140.915 143.018 140.79C142.915 140.663 142.848 140.531 142.815 140.392C142.768 140.187 142.744 139.884 142.744 139.484V137.575ZM146.382 141.154V137.604H147.105V140.551H148.902V141.154H146.382Z" fill="#263238"/>
</svg>
