<svg width="563" height="75" viewBox="0 0 563 75" fill="none" xmlns="http://www.w3.org/2000/svg">
<path d="M70.4033 35.3906C70.2627 36.5938 69.8174 37.5234 69.0674 38.1797C68.3226 38.8307 67.3304 39.1562 66.0908 39.1562C64.7471 39.1562 63.6689 38.6745 62.8564 37.7109C62.0492 36.7474 61.6455 35.4583 61.6455 33.8438V32.75C61.6455 31.6927 61.833 30.763 62.208 29.9609C62.5882 29.1589 63.1247 28.5443 63.8174 28.1172C64.5101 27.6849 65.3122 27.4688 66.2236 27.4688C67.432 27.4688 68.4007 27.8073 69.1299 28.4844C69.859 29.1562 70.2835 30.0885 70.4033 31.2812H68.8955C68.7653 30.375 68.4814 29.7188 68.0439 29.3125C67.6117 28.9062 67.0049 28.7031 66.2236 28.7031C65.2653 28.7031 64.5127 29.0573 63.9658 29.7656C63.4242 30.474 63.1533 31.4818 63.1533 32.7891V33.8906C63.1533 35.125 63.4111 36.1068 63.9268 36.8359C64.4424 37.5651 65.1637 37.9297 66.0908 37.9297C66.9242 37.9297 67.5622 37.7422 68.0049 37.3672C68.4528 36.987 68.7497 36.3281 68.8955 35.3906H70.4033ZM77.4502 38.1641C76.8877 38.8255 76.0622 39.1562 74.9736 39.1562C74.0726 39.1562 73.3851 38.8958 72.9111 38.375C72.4424 37.849 72.2054 37.0729 72.2002 36.0469V30.5469H73.6455V36.0078C73.6455 37.2891 74.1663 37.9297 75.208 37.9297C76.3122 37.9297 77.0465 37.5182 77.4111 36.6953V30.5469H78.8564V39H77.4814L77.4502 38.1641ZM85.9814 36.7578C85.9814 36.3672 85.833 36.0651 85.5361 35.8516C85.2445 35.6328 84.7314 35.4453 83.9971 35.2891C83.2679 35.1328 82.6872 34.9453 82.2549 34.7266C81.8278 34.5078 81.5101 34.2474 81.3018 33.9453C81.0986 33.6432 80.9971 33.2839 80.9971 32.8672C80.9971 32.1745 81.2887 31.5885 81.8721 31.1094C82.4606 30.6302 83.2106 30.3906 84.1221 30.3906C85.0804 30.3906 85.8564 30.638 86.4502 31.1328C87.0492 31.6276 87.3486 32.2604 87.3486 33.0312H85.8955C85.8955 32.6354 85.7262 32.2943 85.3877 32.0078C85.0544 31.7214 84.6325 31.5781 84.1221 31.5781C83.596 31.5781 83.1846 31.6927 82.8877 31.9219C82.5908 32.151 82.4424 32.4505 82.4424 32.8203C82.4424 33.1693 82.5804 33.4323 82.8564 33.6094C83.1325 33.7865 83.6299 33.9557 84.3486 34.1172C85.0726 34.2786 85.6585 34.4714 86.1064 34.6953C86.5544 34.9193 86.8851 35.1901 87.0986 35.5078C87.3174 35.8203 87.4268 36.2031 87.4268 36.6562C87.4268 37.4115 87.1247 38.0182 86.5205 38.4766C85.9163 38.9297 85.1325 39.1562 84.1689 39.1562C83.4919 39.1562 82.8929 39.0365 82.3721 38.7969C81.8512 38.5573 81.4424 38.224 81.1455 37.7969C80.8538 37.3646 80.708 36.8984 80.708 36.3984H82.1533C82.1794 36.8828 82.3721 37.2682 82.7314 37.5547C83.096 37.8359 83.5752 37.9766 84.1689 37.9766C84.7158 37.9766 85.1533 37.8672 85.4814 37.6484C85.8148 37.4245 85.9814 37.1276 85.9814 36.7578ZM91.2705 28.5V30.5469H92.8486V31.6641H91.2705V36.9062C91.2705 37.2448 91.3408 37.5 91.4814 37.6719C91.6221 37.8385 91.8617 37.9219 92.2002 37.9219C92.3669 37.9219 92.596 37.8906 92.8877 37.8281V39C92.5075 39.1042 92.1377 39.1562 91.7783 39.1562C91.1325 39.1562 90.6455 38.9609 90.3174 38.5703C89.9893 38.1797 89.8252 37.625 89.8252 36.9062V31.6641H88.2861V30.5469H89.8252V28.5H91.2705ZM94.0049 34.6953C94.0049 33.8672 94.1663 33.1224 94.4893 32.4609C94.8174 31.7995 95.2705 31.2891 95.8486 30.9297C96.432 30.5703 97.096 30.3906 97.8408 30.3906C98.9919 30.3906 99.9215 30.7891 100.63 31.5859C101.343 32.3828 101.7 33.4427 101.7 34.7656V34.8672C101.7 35.6901 101.541 36.4297 101.224 37.0859C100.911 37.737 100.461 38.2448 99.8721 38.6094C99.2887 38.974 98.6169 39.1562 97.8564 39.1562C96.7106 39.1562 95.7809 38.7578 95.0674 37.9609C94.359 37.1641 94.0049 36.1094 94.0049 34.7969V34.6953ZM95.458 34.8672C95.458 35.8047 95.6742 36.5573 96.1064 37.125C96.5439 37.6927 97.1273 37.9766 97.8564 37.9766C98.5908 37.9766 99.1742 37.6901 99.6064 37.1172C100.039 36.5391 100.255 35.7318 100.255 34.6953C100.255 33.7682 100.034 33.0182 99.5908 32.4453C99.1533 31.8672 98.57 31.5781 97.8408 31.5781C97.1273 31.5781 96.5518 31.862 96.1143 32.4297C95.6768 32.9974 95.458 33.8099 95.458 34.8672ZM104.872 30.5469L104.911 31.4844C105.531 30.7552 106.367 30.3906 107.419 30.3906C108.601 30.3906 109.406 30.8438 109.833 31.75C110.114 31.3438 110.479 31.0156 110.927 30.7656C111.38 30.5156 111.914 30.3906 112.528 30.3906C114.382 30.3906 115.325 31.3724 115.356 33.3359V39H113.911V33.4219C113.911 32.8177 113.773 32.3672 113.497 32.0703C113.221 31.7682 112.757 31.6172 112.106 31.6172C111.57 31.6172 111.125 31.7786 110.771 32.1016C110.416 32.4193 110.211 32.849 110.153 33.3906V39H108.7V33.4609C108.7 32.2318 108.099 31.6172 106.896 31.6172C105.948 31.6172 105.299 32.0208 104.95 32.8281V39H103.505V30.5469H104.872ZM121.052 39.1562C119.906 39.1562 118.974 38.7812 118.255 38.0312C117.536 37.276 117.177 36.2682 117.177 35.0078V34.7422C117.177 33.9036 117.336 33.1562 117.653 32.5C117.976 31.8385 118.424 31.3229 118.997 30.9531C119.575 30.5781 120.2 30.3906 120.872 30.3906C121.971 30.3906 122.825 30.7526 123.435 31.4766C124.044 32.2005 124.349 33.237 124.349 34.5859V35.1875H118.622C118.643 36.0208 118.885 36.6953 119.349 37.2109C119.817 37.7214 120.411 37.9766 121.13 37.9766C121.64 37.9766 122.073 37.8724 122.427 37.6641C122.781 37.4557 123.091 37.1797 123.356 36.8359L124.239 37.5234C123.531 38.612 122.468 39.1562 121.052 39.1562ZM120.872 31.5781C120.289 31.5781 119.799 31.7917 119.403 32.2188C119.007 32.6406 118.763 33.2344 118.669 34H122.903V33.8906C122.862 33.1562 122.664 32.5885 122.31 32.1875C121.955 31.7812 121.476 31.5781 120.872 31.5781ZM130.114 31.8438C129.896 31.8073 129.659 31.7891 129.403 31.7891C128.455 31.7891 127.812 32.1927 127.474 33V39H126.028V30.5469H127.435L127.458 31.5234C127.932 30.7682 128.604 30.3906 129.474 30.3906C129.755 30.3906 129.968 30.4271 130.114 30.5V31.8438ZM138.927 39.1562C137.781 39.1562 136.849 38.7812 136.13 38.0312C135.411 37.276 135.052 36.2682 135.052 35.0078V34.7422C135.052 33.9036 135.211 33.1562 135.528 32.5C135.851 31.8385 136.299 31.3229 136.872 30.9531C137.45 30.5781 138.075 30.3906 138.747 30.3906C139.846 30.3906 140.7 30.7526 141.31 31.4766C141.919 32.2005 142.224 33.237 142.224 34.5859V35.1875H136.497C136.518 36.0208 136.76 36.6953 137.224 37.2109C137.692 37.7214 138.286 37.9766 139.005 37.9766C139.515 37.9766 139.948 37.8724 140.302 37.6641C140.656 37.4557 140.966 37.1797 141.231 36.8359L142.114 37.5234C141.406 38.612 140.343 39.1562 138.927 39.1562ZM138.747 31.5781C138.164 31.5781 137.674 31.7917 137.278 32.2188C136.882 32.6406 136.638 33.2344 136.544 34H140.778V33.8906C140.737 33.1562 140.539 32.5885 140.185 32.1875C139.83 31.7812 139.351 31.5781 138.747 31.5781ZM145.271 30.5469L145.317 31.6094C145.963 30.7969 146.807 30.3906 147.849 30.3906C149.635 30.3906 150.536 31.3984 150.552 33.4141V39H149.106V33.4062C149.101 32.7969 148.961 32.3464 148.685 32.0547C148.414 31.763 147.989 31.6172 147.411 31.6172C146.942 31.6172 146.531 31.7422 146.177 31.9922C145.823 32.2422 145.547 32.5703 145.349 32.9766V39H143.903V30.5469H145.271ZM154.692 28.5V30.5469H156.271V31.6641H154.692V36.9062C154.692 37.2448 154.763 37.5 154.903 37.6719C155.044 37.8385 155.284 37.9219 155.622 37.9219C155.789 37.9219 156.018 37.8906 156.31 37.8281V39C155.929 39.1042 155.56 39.1562 155.2 39.1562C154.554 39.1562 154.067 38.9609 153.739 38.5703C153.411 38.1797 153.247 37.625 153.247 36.9062V31.6641H151.708V30.5469H153.247V28.5H154.692ZM161.474 39.1562C160.328 39.1562 159.396 38.7812 158.677 38.0312C157.958 37.276 157.599 36.2682 157.599 35.0078V34.7422C157.599 33.9036 157.757 33.1562 158.075 32.5C158.398 31.8385 158.846 31.3229 159.419 30.9531C159.997 30.5781 160.622 30.3906 161.294 30.3906C162.393 30.3906 163.247 30.7526 163.856 31.4766C164.466 32.2005 164.771 33.237 164.771 34.5859V35.1875H159.044C159.065 36.0208 159.307 36.6953 159.771 37.2109C160.239 37.7214 160.833 37.9766 161.552 37.9766C162.062 37.9766 162.494 37.8724 162.849 37.6641C163.203 37.4557 163.513 37.1797 163.778 36.8359L164.661 37.5234C163.953 38.612 162.89 39.1562 161.474 39.1562ZM161.294 31.5781C160.711 31.5781 160.221 31.7917 159.825 32.2188C159.429 32.6406 159.185 33.2344 159.091 34H163.325V33.8906C163.284 33.1562 163.086 32.5885 162.731 32.1875C162.377 31.7812 161.898 31.5781 161.294 31.5781ZM170.536 31.8438C170.317 31.8073 170.08 31.7891 169.825 31.7891C168.877 31.7891 168.234 32.1927 167.896 33V39H166.45V30.5469H167.856L167.88 31.5234C168.354 30.7682 169.026 30.3906 169.896 30.3906C170.177 30.3906 170.39 30.4271 170.536 30.5V31.8438ZM176.794 36.7578C176.794 36.3672 176.646 36.0651 176.349 35.8516C176.057 35.6328 175.544 35.4453 174.81 35.2891C174.08 35.1328 173.5 34.9453 173.067 34.7266C172.64 34.5078 172.323 34.2474 172.114 33.9453C171.911 33.6432 171.81 33.2839 171.81 32.8672C171.81 32.1745 172.101 31.5885 172.685 31.1094C173.273 30.6302 174.023 30.3906 174.935 30.3906C175.893 30.3906 176.669 30.638 177.263 31.1328C177.862 31.6276 178.161 32.2604 178.161 33.0312H176.708C176.708 32.6354 176.539 32.2943 176.2 32.0078C175.867 31.7214 175.445 31.5781 174.935 31.5781C174.409 31.5781 173.997 31.6927 173.7 31.9219C173.403 32.151 173.255 32.4505 173.255 32.8203C173.255 33.1693 173.393 33.4323 173.669 33.6094C173.945 33.7865 174.442 33.9557 175.161 34.1172C175.885 34.2786 176.471 34.4714 176.919 34.6953C177.367 34.9193 177.698 35.1901 177.911 35.5078C178.13 35.8203 178.239 36.2031 178.239 36.6562C178.239 37.4115 177.937 38.0182 177.333 38.4766C176.729 38.9297 175.945 39.1562 174.981 39.1562C174.304 39.1562 173.705 39.0365 173.185 38.7969C172.664 38.5573 172.255 38.224 171.958 37.7969C171.666 37.3646 171.521 36.8984 171.521 36.3984H172.966C172.992 36.8828 173.185 37.2682 173.544 37.5547C173.909 37.8359 174.388 37.9766 174.981 37.9766C175.528 37.9766 175.966 37.8672 176.294 37.6484C176.627 37.4245 176.794 37.1276 176.794 36.7578ZM185.45 30.5469L185.489 31.4844C186.109 30.7552 186.945 30.3906 187.997 30.3906C189.179 30.3906 189.984 30.8438 190.411 31.75C190.692 31.3438 191.057 31.0156 191.505 30.7656C191.958 30.5156 192.492 30.3906 193.106 30.3906C194.961 30.3906 195.903 31.3724 195.935 33.3359V39H194.489V33.4219C194.489 32.8177 194.351 32.3672 194.075 32.0703C193.799 31.7682 193.336 31.6172 192.685 31.6172C192.148 31.6172 191.703 31.7786 191.349 32.1016C190.994 32.4193 190.789 32.849 190.731 33.3906V39H189.278V33.4609C189.278 32.2318 188.677 31.6172 187.474 31.6172C186.526 31.6172 185.877 32.0208 185.528 32.8281V39H184.083V30.5469H185.45ZM197.739 34.6953C197.739 33.8672 197.901 33.1224 198.224 32.4609C198.552 31.7995 199.005 31.2891 199.583 30.9297C200.166 30.5703 200.83 30.3906 201.575 30.3906C202.726 30.3906 203.656 30.7891 204.364 31.5859C205.078 32.3828 205.435 33.4427 205.435 34.7656V34.8672C205.435 35.6901 205.276 36.4297 204.958 37.0859C204.646 37.737 204.195 38.2448 203.606 38.6094C203.023 38.974 202.351 39.1562 201.591 39.1562C200.445 39.1562 199.515 38.7578 198.802 37.9609C198.093 37.1641 197.739 36.1094 197.739 34.7969V34.6953ZM199.192 34.8672C199.192 35.8047 199.409 36.5573 199.841 37.125C200.278 37.6927 200.862 37.9766 201.591 37.9766C202.325 37.9766 202.909 37.6901 203.341 37.1172C203.773 36.5391 203.989 35.7318 203.989 34.6953C203.989 33.7682 203.768 33.0182 203.325 32.4453C202.888 31.8672 202.304 31.5781 201.575 31.5781C200.862 31.5781 200.286 31.862 199.849 32.4297C199.411 32.9974 199.192 33.8099 199.192 34.8672ZM214.403 34.8672C214.403 36.1589 214.106 37.1979 213.513 37.9844C212.919 38.7656 212.122 39.1562 211.122 39.1562C210.054 39.1562 209.229 38.7786 208.646 38.0234L208.575 39H207.247V27H208.692V31.4766C209.276 30.7526 210.08 30.3906 211.106 30.3906C212.132 30.3906 212.937 30.7786 213.521 31.5547C214.109 32.3307 214.403 33.3932 214.403 34.7422V34.8672ZM212.958 34.7031C212.958 33.7188 212.768 32.9583 212.388 32.4219C212.007 31.8854 211.461 31.6172 210.747 31.6172C209.794 31.6172 209.109 32.0599 208.692 32.9453V36.6016C209.135 37.487 209.825 37.9297 210.763 37.9297C211.455 37.9297 211.994 37.6615 212.38 37.125C212.765 36.5885 212.958 35.7812 212.958 34.7031ZM217.802 39H216.356V30.5469H217.802V39ZM216.239 28.3047C216.239 28.0703 216.31 27.8724 216.45 27.7109C216.596 27.5495 216.81 27.4688 217.091 27.4688C217.372 27.4688 217.586 27.5495 217.731 27.7109C217.877 27.8724 217.95 28.0703 217.95 28.3047C217.95 28.5391 217.877 28.7344 217.731 28.8906C217.586 29.0469 217.372 29.125 217.091 29.125C216.81 29.125 216.596 29.0469 216.45 28.8906C216.31 28.7344 216.239 28.5391 216.239 28.3047ZM221.692 39H220.247V27H221.692V39ZM227.521 39.1562C226.375 39.1562 225.442 38.7812 224.724 38.0312C224.005 37.276 223.646 36.2682 223.646 35.0078V34.7422C223.646 33.9036 223.804 33.1562 224.122 32.5C224.445 31.8385 224.893 31.3229 225.466 30.9531C226.044 30.5781 226.669 30.3906 227.341 30.3906C228.44 30.3906 229.294 30.7526 229.903 31.4766C230.513 32.2005 230.817 33.237 230.817 34.5859V35.1875H225.091C225.112 36.0208 225.354 36.6953 225.817 37.2109C226.286 37.7214 226.88 37.9766 227.599 37.9766C228.109 37.9766 228.541 37.8724 228.896 37.6641C229.25 37.4557 229.56 37.1797 229.825 36.8359L230.708 37.5234C230 38.612 228.937 39.1562 227.521 39.1562ZM227.341 31.5781C226.757 31.5781 226.268 31.7917 225.872 32.2188C225.476 32.6406 225.231 33.2344 225.138 34H229.372V33.8906C229.33 33.1562 229.132 32.5885 228.778 32.1875C228.424 31.7812 227.945 31.5781 227.341 31.5781ZM237.833 30.5469L237.88 31.6094C238.526 30.7969 239.369 30.3906 240.411 30.3906C242.198 30.3906 243.099 31.3984 243.114 33.4141V39H241.669V33.4062C241.664 32.7969 241.523 32.3464 241.247 32.0547C240.976 31.763 240.552 31.6172 239.974 31.6172C239.505 31.6172 239.093 31.7422 238.739 31.9922C238.385 32.2422 238.109 32.5703 237.911 32.9766V39H236.466V30.5469H237.833ZM250.513 38.1641C249.95 38.8255 249.125 39.1562 248.036 39.1562C247.135 39.1562 246.448 38.8958 245.974 38.375C245.505 37.849 245.268 37.0729 245.263 36.0469V30.5469H246.708V36.0078C246.708 37.2891 247.229 37.9297 248.271 37.9297C249.375 37.9297 250.109 37.5182 250.474 36.6953V30.5469H251.919V39H250.544L250.513 38.1641ZM255.481 30.5469L255.521 31.4844C256.14 30.7552 256.976 30.3906 258.028 30.3906C259.211 30.3906 260.015 30.8438 260.442 31.75C260.724 31.3438 261.088 31.0156 261.536 30.7656C261.989 30.5156 262.523 30.3906 263.138 30.3906C264.992 30.3906 265.935 31.3724 265.966 33.3359V39H264.521V33.4219C264.521 32.8177 264.382 32.3672 264.106 32.0703C263.83 31.7682 263.367 31.6172 262.716 31.6172C262.179 31.6172 261.734 31.7786 261.38 32.1016C261.026 32.4193 260.82 32.849 260.763 33.3906V39H259.31V33.4609C259.31 32.2318 258.708 31.6172 257.505 31.6172C256.557 31.6172 255.909 32.0208 255.56 32.8281V39H254.114V30.5469H255.481ZM275.31 34.8672C275.31 36.1589 275.013 37.1979 274.419 37.9844C273.825 38.7656 273.028 39.1562 272.028 39.1562C270.961 39.1562 270.135 38.7786 269.552 38.0234L269.481 39H268.153V27H269.599V31.4766C270.182 30.7526 270.987 30.3906 272.013 30.3906C273.039 30.3906 273.843 30.7786 274.427 31.5547C275.015 32.3307 275.31 33.3932 275.31 34.7422V34.8672ZM273.864 34.7031C273.864 33.7188 273.674 32.9583 273.294 32.4219C272.914 31.8854 272.367 31.6172 271.653 31.6172C270.7 31.6172 270.015 32.0599 269.599 32.9453V36.6016C270.041 37.487 270.731 37.9297 271.669 37.9297C272.362 37.9297 272.901 37.6615 273.286 37.125C273.672 36.5885 273.864 35.7812 273.864 34.7031ZM280.646 39.1562C279.5 39.1562 278.567 38.7812 277.849 38.0312C277.13 37.276 276.771 36.2682 276.771 35.0078V34.7422C276.771 33.9036 276.929 33.1562 277.247 32.5C277.57 31.8385 278.018 31.3229 278.591 30.9531C279.169 30.5781 279.794 30.3906 280.466 30.3906C281.565 30.3906 282.419 30.7526 283.028 31.4766C283.638 32.2005 283.942 33.237 283.942 34.5859V35.1875H278.216C278.237 36.0208 278.479 36.6953 278.942 37.2109C279.411 37.7214 280.005 37.9766 280.724 37.9766C281.234 37.9766 281.666 37.8724 282.021 37.6641C282.375 37.4557 282.685 37.1797 282.95 36.8359L283.833 37.5234C283.125 38.612 282.062 39.1562 280.646 39.1562ZM280.466 31.5781C279.882 31.5781 279.393 31.7917 278.997 32.2188C278.601 32.6406 278.356 33.2344 278.263 34H282.497V33.8906C282.455 33.1562 282.257 32.5885 281.903 32.1875C281.549 31.7812 281.07 31.5781 280.466 31.5781ZM289.708 31.8438C289.489 31.8073 289.252 31.7891 288.997 31.7891C288.049 31.7891 287.406 32.1927 287.067 33V39H285.622V30.5469H287.028L287.052 31.5234C287.526 30.7682 288.198 30.3906 289.067 30.3906C289.349 30.3906 289.562 30.4271 289.708 30.5V31.8438ZM300.231 39C300.148 38.8333 300.08 38.5365 300.028 38.1094C299.356 38.8073 298.554 39.1562 297.622 39.1562C296.789 39.1562 296.104 38.9219 295.567 38.4531C295.036 37.9792 294.771 37.3802 294.771 36.6562C294.771 35.776 295.104 35.0938 295.771 34.6094C296.442 34.1198 297.385 33.875 298.599 33.875H300.005V33.2109C300.005 32.7057 299.854 32.3047 299.552 32.0078C299.25 31.7057 298.804 31.5547 298.216 31.5547C297.7 31.5547 297.268 31.6849 296.919 31.9453C296.57 32.2057 296.396 32.5208 296.396 32.8906H294.942C294.942 32.4688 295.091 32.0625 295.388 31.6719C295.69 31.276 296.096 30.9635 296.606 30.7344C297.122 30.5052 297.687 30.3906 298.302 30.3906C299.276 30.3906 300.039 30.6354 300.591 31.125C301.143 31.6094 301.429 32.2786 301.45 33.1328V37.0234C301.45 37.7995 301.549 38.4167 301.747 38.875V39H300.231ZM297.833 37.8984C298.286 37.8984 298.716 37.7812 299.122 37.5469C299.528 37.3125 299.823 37.0078 300.005 36.6328V34.8984H298.872C297.101 34.8984 296.216 35.4167 296.216 36.4531C296.216 36.9062 296.367 37.2604 296.669 37.5156C296.971 37.7708 297.359 37.8984 297.833 37.8984ZM305.083 30.5469L305.13 31.6094C305.776 30.7969 306.619 30.3906 307.661 30.3906C309.448 30.3906 310.349 31.3984 310.364 33.4141V39H308.919V33.4062C308.914 32.7969 308.773 32.3464 308.497 32.0547C308.226 31.763 307.802 31.6172 307.224 31.6172C306.755 31.6172 306.343 31.7422 305.989 31.9922C305.635 32.2422 305.359 32.5703 305.161 32.9766V39H303.716V30.5469H305.083ZM312.192 34.7031C312.192 33.4062 312.5 32.3646 313.114 31.5781C313.729 30.7865 314.534 30.3906 315.528 30.3906C316.518 30.3906 317.302 30.7292 317.88 31.4062V27H319.325V39H317.997L317.927 38.0938C317.349 38.8021 316.544 39.1562 315.513 39.1562C314.534 39.1562 313.734 38.7552 313.114 37.9531C312.5 37.151 312.192 36.1042 312.192 34.8125V34.7031ZM313.638 34.8672C313.638 35.8255 313.836 36.5755 314.231 37.1172C314.627 37.6589 315.174 37.9297 315.872 37.9297C316.789 37.9297 317.458 37.5182 317.88 36.6953V32.8125C317.448 32.0156 316.784 31.6172 315.888 31.6172C315.179 31.6172 314.627 31.8906 314.231 32.4375C313.836 32.9844 313.638 33.7943 313.638 34.8672ZM330.763 39C330.679 38.8333 330.612 38.5365 330.56 38.1094C329.888 38.8073 329.086 39.1562 328.153 39.1562C327.32 39.1562 326.635 38.9219 326.099 38.4531C325.567 37.9792 325.302 37.3802 325.302 36.6562C325.302 35.776 325.635 35.0938 326.302 34.6094C326.974 34.1198 327.916 33.875 329.13 33.875H330.536V33.2109C330.536 32.7057 330.385 32.3047 330.083 32.0078C329.781 31.7057 329.336 31.5547 328.747 31.5547C328.231 31.5547 327.799 31.6849 327.45 31.9453C327.101 32.2057 326.927 32.5208 326.927 32.8906H325.474C325.474 32.4688 325.622 32.0625 325.919 31.6719C326.221 31.276 326.627 30.9635 327.138 30.7344C327.653 30.5052 328.218 30.3906 328.833 30.3906C329.807 30.3906 330.57 30.6354 331.122 31.125C331.674 31.6094 331.961 32.2786 331.981 33.1328V37.0234C331.981 37.7995 332.08 38.4167 332.278 38.875V39H330.763ZM328.364 37.8984C328.817 37.8984 329.247 37.7812 329.653 37.5469C330.06 37.3125 330.354 37.0078 330.536 36.6328V34.8984H329.403C327.632 34.8984 326.747 35.4167 326.747 36.4531C326.747 36.9062 326.898 37.2604 327.2 37.5156C327.502 37.7708 327.89 37.8984 328.364 37.8984ZM335.606 30.5469L335.646 31.4844C336.265 30.7552 337.101 30.3906 338.153 30.3906C339.336 30.3906 340.14 30.8438 340.567 31.75C340.849 31.3438 341.213 31.0156 341.661 30.7656C342.114 30.5156 342.648 30.3906 343.263 30.3906C345.117 30.3906 346.06 31.3724 346.091 33.3359V39H344.646V33.4219C344.646 32.8177 344.507 32.3672 344.231 32.0703C343.955 31.7682 343.492 31.6172 342.841 31.6172C342.304 31.6172 341.859 31.7786 341.505 32.1016C341.151 32.4193 340.945 32.849 340.888 33.3906V39H339.435V33.4609C339.435 32.2318 338.833 31.6172 337.63 31.6172C336.682 31.6172 336.034 32.0208 335.685 32.8281V39H334.239V30.5469H335.606ZM347.896 34.6953C347.896 33.8672 348.057 33.1224 348.38 32.4609C348.708 31.7995 349.161 31.2891 349.739 30.9297C350.323 30.5703 350.987 30.3906 351.731 30.3906C352.882 30.3906 353.812 30.7891 354.521 31.5859C355.234 32.3828 355.591 33.4427 355.591 34.7656V34.8672C355.591 35.6901 355.432 36.4297 355.114 37.0859C354.802 37.737 354.351 38.2448 353.763 38.6094C353.179 38.974 352.507 39.1562 351.747 39.1562C350.601 39.1562 349.672 38.7578 348.958 37.9609C348.25 37.1641 347.896 36.1094 347.896 34.7969V34.6953ZM349.349 34.8672C349.349 35.8047 349.565 36.5573 349.997 37.125C350.435 37.6927 351.018 37.9766 351.747 37.9766C352.481 37.9766 353.065 37.6901 353.497 37.1172C353.929 36.5391 354.146 35.7318 354.146 34.6953C354.146 33.7682 353.924 33.0182 353.481 32.4453C353.044 31.8672 352.461 31.5781 351.731 31.5781C351.018 31.5781 350.442 31.862 350.005 32.4297C349.567 32.9974 349.349 33.8099 349.349 34.8672ZM362.622 38.1641C362.06 38.8255 361.234 39.1562 360.146 39.1562C359.244 39.1562 358.557 38.8958 358.083 38.375C357.614 37.849 357.377 37.0729 357.372 36.0469V30.5469H358.817V36.0078C358.817 37.2891 359.338 37.9297 360.38 37.9297C361.484 37.9297 362.218 37.5182 362.583 36.6953V30.5469H364.028V39H362.653L362.622 38.1641ZM367.599 30.5469L367.646 31.6094C368.291 30.7969 369.135 30.3906 370.177 30.3906C371.963 30.3906 372.864 31.3984 372.88 33.4141V39H371.435V33.4062C371.429 32.7969 371.289 32.3464 371.013 32.0547C370.742 31.763 370.317 31.6172 369.739 31.6172C369.271 31.6172 368.859 31.7422 368.505 31.9922C368.151 32.2422 367.875 32.5703 367.677 32.9766V39H366.231V30.5469H367.599ZM377.021 28.5V30.5469H378.599V31.6641H377.021V36.9062C377.021 37.2448 377.091 37.5 377.231 37.6719C377.372 37.8385 377.612 37.9219 377.95 37.9219C378.117 37.9219 378.346 37.8906 378.638 37.8281V39C378.257 39.1042 377.888 39.1562 377.528 39.1562C376.882 39.1562 376.396 38.9609 376.067 38.5703C375.739 38.1797 375.575 37.625 375.575 36.9062V31.6641H374.036V30.5469H375.575V28.5H377.021ZM383.88 34.6953C383.88 33.8672 384.041 33.1224 384.364 32.4609C384.692 31.7995 385.146 31.2891 385.724 30.9297C386.307 30.5703 386.971 30.3906 387.716 30.3906C388.867 30.3906 389.797 30.7891 390.505 31.5859C391.218 32.3828 391.575 33.4427 391.575 34.7656V34.8672C391.575 35.6901 391.416 36.4297 391.099 37.0859C390.786 37.737 390.336 38.2448 389.747 38.6094C389.164 38.974 388.492 39.1562 387.731 39.1562C386.586 39.1562 385.656 38.7578 384.942 37.9609C384.234 37.1641 383.88 36.1094 383.88 34.7969V34.6953ZM385.333 34.8672C385.333 35.8047 385.549 36.5573 385.981 37.125C386.419 37.6927 387.002 37.9766 387.731 37.9766C388.466 37.9766 389.049 37.6901 389.481 37.1172C389.914 36.5391 390.13 35.7318 390.13 34.6953C390.13 33.7682 389.909 33.0182 389.466 32.4453C389.028 31.8672 388.445 31.5781 387.716 31.5781C387.002 31.5781 386.427 31.862 385.989 32.4297C385.552 32.9974 385.333 33.8099 385.333 34.8672ZM397.474 31.8438C397.255 31.8073 397.018 31.7891 396.763 31.7891C395.815 31.7891 395.172 32.1927 394.833 33V39H393.388V30.5469H394.794L394.817 31.5234C395.291 30.7682 395.963 30.3906 396.833 30.3906C397.114 30.3906 397.328 30.4271 397.474 30.5V31.8438ZM406.169 37.9766C406.685 37.9766 407.135 37.8203 407.521 37.5078C407.906 37.1953 408.119 36.8047 408.161 36.3359H409.528C409.502 36.8203 409.336 37.2812 409.028 37.7188C408.721 38.1562 408.31 38.5052 407.794 38.7656C407.284 39.026 406.742 39.1562 406.169 39.1562C405.018 39.1562 404.101 38.7734 403.419 38.0078C402.742 37.237 402.403 36.1849 402.403 34.8516V34.6094C402.403 33.7865 402.554 33.0547 402.856 32.4141C403.159 31.7734 403.591 31.276 404.153 30.9219C404.721 30.5677 405.39 30.3906 406.161 30.3906C407.109 30.3906 407.896 30.6745 408.521 31.2422C409.151 31.8099 409.487 32.5469 409.528 33.4531H408.161C408.119 32.9062 407.911 32.4583 407.536 32.1094C407.166 31.7552 406.708 31.5781 406.161 31.5781C405.427 31.5781 404.856 31.8438 404.45 32.375C404.049 32.901 403.849 33.6641 403.849 34.6641V34.9375C403.849 35.9115 404.049 36.6615 404.45 37.1875C404.851 37.7135 405.424 37.9766 406.169 37.9766ZM412.599 31.5703C413.239 30.7839 414.073 30.3906 415.099 30.3906C416.885 30.3906 417.786 31.3984 417.802 33.4141V39H416.356V33.4062C416.351 32.7969 416.211 32.3464 415.935 32.0547C415.664 31.763 415.239 31.6172 414.661 31.6172C414.192 31.6172 413.781 31.7422 413.427 31.9922C413.073 32.2422 412.797 32.5703 412.599 32.9766V39H411.153V27H412.599V31.5703ZM419.583 34.6953C419.583 33.8672 419.744 33.1224 420.067 32.4609C420.396 31.7995 420.849 31.2891 421.427 30.9297C422.01 30.5703 422.674 30.3906 423.419 30.3906C424.57 30.3906 425.5 30.7891 426.208 31.5859C426.922 32.3828 427.278 33.4427 427.278 34.7656V34.8672C427.278 35.6901 427.119 36.4297 426.802 37.0859C426.489 37.737 426.039 38.2448 425.45 38.6094C424.867 38.974 424.195 39.1562 423.435 39.1562C422.289 39.1562 421.359 38.7578 420.646 37.9609C419.937 37.1641 419.583 36.1094 419.583 34.7969V34.6953ZM421.036 34.8672C421.036 35.8047 421.252 36.5573 421.685 37.125C422.122 37.6927 422.705 37.9766 423.435 37.9766C424.169 37.9766 424.752 37.6901 425.185 37.1172C425.617 36.5391 425.833 35.7318 425.833 34.6953C425.833 33.7682 425.612 33.0182 425.169 32.4453C424.731 31.8672 424.148 31.5781 423.419 31.5781C422.705 31.5781 422.13 31.862 421.692 32.4297C421.255 32.9974 421.036 33.8099 421.036 34.8672ZM428.708 34.6953C428.708 33.8672 428.869 33.1224 429.192 32.4609C429.521 31.7995 429.974 31.2891 430.552 30.9297C431.135 30.5703 431.799 30.3906 432.544 30.3906C433.695 30.3906 434.625 30.7891 435.333 31.5859C436.047 32.3828 436.403 33.4427 436.403 34.7656V34.8672C436.403 35.6901 436.244 36.4297 435.927 37.0859C435.614 37.737 435.164 38.2448 434.575 38.6094C433.992 38.974 433.32 39.1562 432.56 39.1562C431.414 39.1562 430.484 38.7578 429.771 37.9609C429.062 37.1641 428.708 36.1094 428.708 34.7969V34.6953ZM430.161 34.8672C430.161 35.8047 430.377 36.5573 430.81 37.125C431.247 37.6927 431.83 37.9766 432.56 37.9766C433.294 37.9766 433.877 37.6901 434.31 37.1172C434.742 36.5391 434.958 35.7318 434.958 34.6953C434.958 33.7682 434.737 33.0182 434.294 32.4453C433.856 31.8672 433.273 31.5781 432.544 31.5781C431.83 31.5781 431.255 31.862 430.817 32.4297C430.38 32.9974 430.161 33.8099 430.161 34.8672ZM443.138 36.7578C443.138 36.3672 442.989 36.0651 442.692 35.8516C442.401 35.6328 441.888 35.4453 441.153 35.2891C440.424 35.1328 439.843 34.9453 439.411 34.7266C438.984 34.5078 438.666 34.2474 438.458 33.9453C438.255 33.6432 438.153 33.2839 438.153 32.8672C438.153 32.1745 438.445 31.5885 439.028 31.1094C439.617 30.6302 440.367 30.3906 441.278 30.3906C442.237 30.3906 443.013 30.638 443.606 31.1328C444.205 31.6276 444.505 32.2604 444.505 33.0312H443.052C443.052 32.6354 442.882 32.2943 442.544 32.0078C442.211 31.7214 441.789 31.5781 441.278 31.5781C440.752 31.5781 440.341 31.6927 440.044 31.9219C439.747 32.151 439.599 32.4505 439.599 32.8203C439.599 33.1693 439.737 33.4323 440.013 33.6094C440.289 33.7865 440.786 33.9557 441.505 34.1172C442.229 34.2786 442.815 34.4714 443.263 34.6953C443.711 34.9193 444.041 35.1901 444.255 35.5078C444.474 35.8203 444.583 36.2031 444.583 36.6562C444.583 37.4115 444.281 38.0182 443.677 38.4766C443.073 38.9297 442.289 39.1562 441.325 39.1562C440.648 39.1562 440.049 39.0365 439.528 38.7969C439.007 38.5573 438.599 38.224 438.302 37.7969C438.01 37.3646 437.864 36.8984 437.864 36.3984H439.31C439.336 36.8828 439.528 37.2682 439.888 37.5547C440.252 37.8359 440.731 37.9766 441.325 37.9766C441.872 37.9766 442.31 37.8672 442.638 37.6484C442.971 37.4245 443.138 37.1276 443.138 36.7578ZM449.974 39.1562C448.828 39.1562 447.896 38.7812 447.177 38.0312C446.458 37.276 446.099 36.2682 446.099 35.0078V34.7422C446.099 33.9036 446.257 33.1562 446.575 32.5C446.898 31.8385 447.346 31.3229 447.919 30.9531C448.497 30.5781 449.122 30.3906 449.794 30.3906C450.893 30.3906 451.747 30.7526 452.356 31.4766C452.966 32.2005 453.271 33.237 453.271 34.5859V35.1875H447.544C447.565 36.0208 447.807 36.6953 448.271 37.2109C448.739 37.7214 449.333 37.9766 450.052 37.9766C450.562 37.9766 450.994 37.8724 451.349 37.6641C451.703 37.4557 452.013 37.1797 452.278 36.8359L453.161 37.5234C452.453 38.612 451.39 39.1562 449.974 39.1562ZM449.794 31.5781C449.211 31.5781 448.721 31.7917 448.325 32.2188C447.929 32.6406 447.685 33.2344 447.591 34H451.825V33.8906C451.784 33.1562 451.586 32.5885 451.231 32.1875C450.877 31.7812 450.398 31.5781 449.794 31.5781ZM459.63 39V31.6641H458.294V30.5469H459.63V29.6797C459.63 28.7734 459.872 28.0729 460.356 27.5781C460.841 27.0833 461.526 26.8359 462.411 26.8359C462.744 26.8359 463.075 26.8802 463.403 26.9688L463.325 28.1406C463.08 28.0938 462.82 28.0703 462.544 28.0703C462.075 28.0703 461.713 28.2083 461.458 28.4844C461.203 28.7552 461.075 29.1458 461.075 29.6562V30.5469H462.88V31.6641H461.075V39H459.63ZM468.567 31.8438C468.349 31.8073 468.112 31.7891 467.856 31.7891C466.909 31.7891 466.265 32.1927 465.927 33V39H464.481V30.5469H465.888L465.911 31.5234C466.385 30.7682 467.057 30.3906 467.927 30.3906C468.208 30.3906 468.422 30.4271 468.567 30.5V31.8438ZM469.364 34.6953C469.364 33.8672 469.526 33.1224 469.849 32.4609C470.177 31.7995 470.63 31.2891 471.208 30.9297C471.791 30.5703 472.455 30.3906 473.2 30.3906C474.351 30.3906 475.281 30.7891 475.989 31.5859C476.703 32.3828 477.06 33.4427 477.06 34.7656V34.8672C477.06 35.6901 476.901 36.4297 476.583 37.0859C476.271 37.737 475.82 38.2448 475.231 38.6094C474.648 38.974 473.976 39.1562 473.216 39.1562C472.07 39.1562 471.14 38.7578 470.427 37.9609C469.718 37.1641 469.364 36.1094 469.364 34.7969V34.6953ZM470.817 34.8672C470.817 35.8047 471.034 36.5573 471.466 37.125C471.903 37.6927 472.487 37.9766 473.216 37.9766C473.95 37.9766 474.534 37.6901 474.966 37.1172C475.398 36.5391 475.614 35.7318 475.614 34.6953C475.614 33.7682 475.393 33.0182 474.95 32.4453C474.513 31.8672 473.929 31.5781 473.2 31.5781C472.487 31.5781 471.911 31.862 471.474 32.4297C471.036 32.9974 470.817 33.8099 470.817 34.8672ZM480.231 30.5469L480.271 31.4844C480.89 30.7552 481.726 30.3906 482.778 30.3906C483.961 30.3906 484.765 30.8438 485.192 31.75C485.474 31.3438 485.838 31.0156 486.286 30.7656C486.739 30.5156 487.273 30.3906 487.888 30.3906C489.742 30.3906 490.685 31.3724 490.716 33.3359V39H489.271V33.4219C489.271 32.8177 489.132 32.3672 488.856 32.0703C488.58 31.7682 488.117 31.6172 487.466 31.6172C486.929 31.6172 486.484 31.7786 486.13 32.1016C485.776 32.4193 485.57 32.849 485.513 33.3906V39H484.06V33.4609C484.06 32.2318 483.458 31.6172 482.255 31.6172C481.307 31.6172 480.659 32.0208 480.31 32.8281V39H478.864V30.5469H480.231ZM498.442 39H496.997V27H498.442V39ZM502.333 39H500.888V30.5469H502.333V39ZM500.771 28.3047C500.771 28.0703 500.841 27.8724 500.981 27.7109C501.127 27.5495 501.341 27.4688 501.622 27.4688C501.903 27.4688 502.117 27.5495 502.263 27.7109C502.409 27.8724 502.481 28.0703 502.481 28.3047C502.481 28.5391 502.409 28.7344 502.263 28.8906C502.117 29.0469 501.903 29.125 501.622 29.125C501.341 29.125 501.127 29.0469 500.981 28.8906C500.841 28.7344 500.771 28.5391 500.771 28.3047ZM509.575 36.7578C509.575 36.3672 509.427 36.0651 509.13 35.8516C508.838 35.6328 508.325 35.4453 507.591 35.2891C506.862 35.1328 506.281 34.9453 505.849 34.7266C505.422 34.5078 505.104 34.2474 504.896 33.9453C504.692 33.6432 504.591 33.2839 504.591 32.8672C504.591 32.1745 504.882 31.5885 505.466 31.1094C506.054 30.6302 506.804 30.3906 507.716 30.3906C508.674 30.3906 509.45 30.638 510.044 31.1328C510.643 31.6276 510.942 32.2604 510.942 33.0312H509.489C509.489 32.6354 509.32 32.2943 508.981 32.0078C508.648 31.7214 508.226 31.5781 507.716 31.5781C507.19 31.5781 506.778 31.6927 506.481 31.9219C506.185 32.151 506.036 32.4505 506.036 32.8203C506.036 33.1693 506.174 33.4323 506.45 33.6094C506.726 33.7865 507.224 33.9557 507.942 34.1172C508.666 34.2786 509.252 34.4714 509.7 34.6953C510.148 34.9193 510.479 35.1901 510.692 35.5078C510.911 35.8203 511.021 36.2031 511.021 36.6562C511.021 37.4115 510.718 38.0182 510.114 38.4766C509.51 38.9297 508.726 39.1562 507.763 39.1562C507.086 39.1562 506.487 39.0365 505.966 38.7969C505.445 38.5573 505.036 38.224 504.739 37.7969C504.448 37.3646 504.302 36.8984 504.302 36.3984H505.747C505.773 36.8828 505.966 37.2682 506.325 37.5547C506.69 37.8359 507.169 37.9766 507.763 37.9766C508.31 37.9766 508.747 37.8672 509.075 37.6484C509.409 37.4245 509.575 37.1276 509.575 36.7578ZM514.864 28.5V30.5469H516.442V31.6641H514.864V36.9062C514.864 37.2448 514.935 37.5 515.075 37.6719C515.216 37.8385 515.455 37.9219 515.794 37.9219C515.961 37.9219 516.19 37.8906 516.481 37.8281V39C516.101 39.1042 515.731 39.1562 515.372 39.1562C514.726 39.1562 514.239 38.9609 513.911 38.5703C513.583 38.1797 513.419 37.625 513.419 36.9062V31.6641H511.88V30.5469H513.419V28.5H514.864ZM518.169 38.2422C518.169 37.9922 518.242 37.7839 518.388 37.6172C518.539 37.4505 518.763 37.3672 519.06 37.3672C519.356 37.3672 519.58 37.4505 519.731 37.6172C519.888 37.7839 519.966 37.9922 519.966 38.2422C519.966 38.4818 519.888 38.6823 519.731 38.8438C519.58 39.0052 519.356 39.0859 519.06 39.0859C518.763 39.0859 518.539 39.0052 518.388 38.8438C518.242 38.6823 518.169 38.4818 518.169 38.2422Z" fill="#656668"/>
<path d="M27.286 48H30.23V24.864H24.214V27.52H27.286V48Z" fill="#656668"/>
</svg>
