<svg width="557" height="75" viewBox="0 0 557 75" fill="none" xmlns="http://www.w3.org/2000/svg">
<path d="M70.4033 38.3906C70.2627 39.5938 69.8174 40.5234 69.0674 41.1797C68.3226 41.8307 67.3304 42.1562 66.0908 42.1562C64.7471 42.1562 63.6689 41.6745 62.8564 40.7109C62.0492 39.7474 61.6455 38.4583 61.6455 36.8438V35.75C61.6455 34.6927 61.833 33.763 62.208 32.9609C62.5882 32.1589 63.1247 31.5443 63.8174 31.1172C64.5101 30.6849 65.3122 30.4688 66.2236 30.4688C67.432 30.4688 68.4007 30.8073 69.1299 31.4844C69.859 32.1562 70.2835 33.0885 70.4033 34.2812H68.8955C68.7653 33.375 68.4814 32.7188 68.0439 32.3125C67.6117 31.9062 67.0049 31.7031 66.2236 31.7031C65.2653 31.7031 64.5127 32.0573 63.9658 32.7656C63.4242 33.474 63.1533 34.4818 63.1533 35.7891V36.8906C63.1533 38.125 63.4111 39.1068 63.9268 39.8359C64.4424 40.5651 65.1637 40.9297 66.0908 40.9297C66.9242 40.9297 67.5622 40.7422 68.0049 40.3672C68.4528 39.987 68.7497 39.3281 68.8955 38.3906H70.4033ZM71.8486 37.6953C71.8486 36.8672 72.0101 36.1224 72.333 35.4609C72.6611 34.7995 73.1143 34.2891 73.6924 33.9297C74.2757 33.5703 74.9398 33.3906 75.6846 33.3906C76.8356 33.3906 77.7653 33.7891 78.4736 34.5859C79.1872 35.3828 79.5439 36.4427 79.5439 37.7656V37.8672C79.5439 38.6901 79.3851 39.4297 79.0674 40.0859C78.7549 40.737 78.3044 41.2448 77.7158 41.6094C77.1325 41.974 76.4606 42.1562 75.7002 42.1562C74.5544 42.1562 73.6247 41.7578 72.9111 40.9609C72.2028 40.1641 71.8486 39.1094 71.8486 37.7969V37.6953ZM73.3018 37.8672C73.3018 38.8047 73.5179 39.5573 73.9502 40.125C74.3877 40.6927 74.971 40.9766 75.7002 40.9766C76.4346 40.9766 77.0179 40.6901 77.4502 40.1172C77.8825 39.5391 78.0986 38.7318 78.0986 37.6953C78.0986 36.7682 77.8773 36.0182 77.4346 35.4453C76.9971 34.8672 76.4137 34.5781 75.6846 34.5781C74.971 34.5781 74.3955 34.862 73.958 35.4297C73.5205 35.9974 73.3018 36.8099 73.3018 37.8672ZM82.7236 33.5469L82.7705 34.6094C83.4163 33.7969 84.2601 33.3906 85.3018 33.3906C87.0882 33.3906 87.9893 34.3984 88.0049 36.4141V42H86.5596V36.4062C86.5544 35.7969 86.4137 35.3464 86.1377 35.0547C85.8669 34.763 85.4424 34.6172 84.8643 34.6172C84.3955 34.6172 83.984 34.7422 83.6299 34.9922C83.2757 35.2422 82.9997 35.5703 82.8018 35.9766V42H81.3564V33.5469H82.7236ZM95.1064 39.7578C95.1064 39.3672 94.958 39.0651 94.6611 38.8516C94.3695 38.6328 93.8564 38.4453 93.1221 38.2891C92.3929 38.1328 91.8122 37.9453 91.3799 37.7266C90.9528 37.5078 90.6351 37.2474 90.4268 36.9453C90.2236 36.6432 90.1221 36.2839 90.1221 35.8672C90.1221 35.1745 90.4137 34.5885 90.9971 34.1094C91.5856 33.6302 92.3356 33.3906 93.2471 33.3906C94.2054 33.3906 94.9814 33.638 95.5752 34.1328C96.1742 34.6276 96.4736 35.2604 96.4736 36.0312H95.0205C95.0205 35.6354 94.8512 35.2943 94.5127 35.0078C94.1794 34.7214 93.7575 34.5781 93.2471 34.5781C92.721 34.5781 92.3096 34.6927 92.0127 34.9219C91.7158 35.151 91.5674 35.4505 91.5674 35.8203C91.5674 36.1693 91.7054 36.4323 91.9814 36.6094C92.2575 36.7865 92.7549 36.9557 93.4736 37.1172C94.1976 37.2786 94.7835 37.4714 95.2314 37.6953C95.6794 37.9193 96.0101 38.1901 96.2236 38.5078C96.4424 38.8203 96.5518 39.2031 96.5518 39.6562C96.5518 40.4115 96.2497 41.0182 95.6455 41.4766C95.0413 41.9297 94.2575 42.1562 93.2939 42.1562C92.6169 42.1562 92.0179 42.0365 91.4971 41.7969C90.9762 41.5573 90.5674 41.224 90.2705 40.7969C89.9788 40.3646 89.833 39.8984 89.833 39.3984H91.2783C91.3044 39.8828 91.4971 40.2682 91.8564 40.5547C92.221 40.8359 92.7002 40.9766 93.2939 40.9766C93.8408 40.9766 94.2783 40.8672 94.6064 40.6484C94.9398 40.4245 95.1064 40.1276 95.1064 39.7578ZM103.653 41.1641C103.091 41.8255 102.265 42.1562 101.177 42.1562C100.276 42.1562 99.5882 41.8958 99.1143 41.375C98.6455 40.849 98.4085 40.0729 98.4033 39.0469V33.5469H99.8486V39.0078C99.8486 40.2891 100.369 40.9297 101.411 40.9297C102.515 40.9297 103.25 40.5182 103.614 39.6953V33.5469H105.06V42H103.685L103.653 41.1641ZM108.622 33.5469L108.661 34.4844C109.281 33.7552 110.117 33.3906 111.169 33.3906C112.351 33.3906 113.156 33.8438 113.583 34.75C113.864 34.3438 114.229 34.0156 114.677 33.7656C115.13 33.5156 115.664 33.3906 116.278 33.3906C118.132 33.3906 119.075 34.3724 119.106 36.3359V42H117.661V36.4219C117.661 35.8177 117.523 35.3672 117.247 35.0703C116.971 34.7682 116.507 34.6172 115.856 34.6172C115.32 34.6172 114.875 34.7786 114.521 35.1016C114.166 35.4193 113.961 35.849 113.903 36.3906V42H112.45V36.4609C112.45 35.2318 111.849 34.6172 110.646 34.6172C109.698 34.6172 109.049 35.0208 108.7 35.8281V42H107.255V33.5469H108.622ZM124.802 42.1562C123.656 42.1562 122.724 41.7812 122.005 41.0312C121.286 40.276 120.927 39.2682 120.927 38.0078V37.7422C120.927 36.9036 121.086 36.1562 121.403 35.5C121.726 34.8385 122.174 34.3229 122.747 33.9531C123.325 33.5781 123.95 33.3906 124.622 33.3906C125.721 33.3906 126.575 33.7526 127.185 34.4766C127.794 35.2005 128.099 36.237 128.099 37.5859V38.1875H122.372C122.393 39.0208 122.635 39.6953 123.099 40.2109C123.567 40.7214 124.161 40.9766 124.88 40.9766C125.39 40.9766 125.823 40.8724 126.177 40.6641C126.531 40.4557 126.841 40.1797 127.106 39.8359L127.989 40.5234C127.281 41.612 126.218 42.1562 124.802 42.1562ZM124.622 34.5781C124.039 34.5781 123.549 34.7917 123.153 35.2188C122.757 35.6406 122.513 36.2344 122.419 37H126.653V36.8906C126.612 36.1562 126.414 35.5885 126.06 35.1875C125.705 34.7812 125.226 34.5781 124.622 34.5781ZM133.864 34.8438C133.646 34.8073 133.409 34.7891 133.153 34.7891C132.205 34.7891 131.562 35.1927 131.224 36V42H129.778V33.5469H131.185L131.208 34.5234C131.682 33.7682 132.354 33.3906 133.224 33.3906C133.505 33.3906 133.718 33.4271 133.864 33.5V34.8438ZM146.653 40.0078L148.278 33.5469H149.724L147.263 42H146.091L144.036 35.5938L142.036 42H140.864L138.411 33.5469H139.849L141.513 39.875L143.481 33.5469H144.646L146.653 40.0078ZM152.771 42H151.325V33.5469H152.771V42ZM151.208 31.3047C151.208 31.0703 151.278 30.8724 151.419 30.7109C151.565 30.5495 151.778 30.4688 152.06 30.4688C152.341 30.4688 152.554 30.5495 152.7 30.7109C152.846 30.8724 152.919 31.0703 152.919 31.3047C152.919 31.5391 152.846 31.7344 152.7 31.8906C152.554 32.0469 152.341 32.125 152.06 32.125C151.778 32.125 151.565 32.0469 151.419 31.8906C151.278 31.7344 151.208 31.5391 151.208 31.3047ZM156.661 42H155.216V30H156.661V42ZM160.552 42H159.106V30H160.552V42ZM170.231 40.9766C170.747 40.9766 171.198 40.8203 171.583 40.5078C171.968 40.1953 172.182 39.8047 172.224 39.3359H173.591C173.565 39.8203 173.398 40.2812 173.091 40.7188C172.784 41.1562 172.372 41.5052 171.856 41.7656C171.346 42.026 170.804 42.1562 170.231 42.1562C169.08 42.1562 168.164 41.7734 167.481 41.0078C166.804 40.237 166.466 39.1849 166.466 37.8516V37.6094C166.466 36.7865 166.617 36.0547 166.919 35.4141C167.221 34.7734 167.653 34.276 168.216 33.9219C168.784 33.5677 169.453 33.3906 170.224 33.3906C171.172 33.3906 171.958 33.6745 172.583 34.2422C173.213 34.8099 173.549 35.5469 173.591 36.4531H172.224C172.182 35.9062 171.974 35.4583 171.599 35.1094C171.229 34.7552 170.771 34.5781 170.224 34.5781C169.489 34.5781 168.919 34.8438 168.513 35.375C168.112 35.901 167.911 36.6641 167.911 37.6641V37.9375C167.911 38.9115 168.112 39.6615 168.513 40.1875C168.914 40.7135 169.487 40.9766 170.231 40.9766ZM174.833 37.6953C174.833 36.8672 174.994 36.1224 175.317 35.4609C175.646 34.7995 176.099 34.2891 176.677 33.9297C177.26 33.5703 177.924 33.3906 178.669 33.3906C179.82 33.3906 180.75 33.7891 181.458 34.5859C182.172 35.3828 182.528 36.4427 182.528 37.7656V37.8672C182.528 38.6901 182.369 39.4297 182.052 40.0859C181.739 40.737 181.289 41.2448 180.7 41.6094C180.117 41.974 179.445 42.1562 178.685 42.1562C177.539 42.1562 176.609 41.7578 175.896 40.9609C175.187 40.1641 174.833 39.1094 174.833 37.7969V37.6953ZM176.286 37.8672C176.286 38.8047 176.502 39.5573 176.935 40.125C177.372 40.6927 177.955 40.9766 178.685 40.9766C179.419 40.9766 180.002 40.6901 180.435 40.1172C180.867 39.5391 181.083 38.7318 181.083 37.6953C181.083 36.7682 180.862 36.0182 180.419 35.4453C179.981 34.8672 179.398 34.5781 178.669 34.5781C177.955 34.5781 177.38 34.862 176.942 35.4297C176.505 35.9974 176.286 36.8099 176.286 37.8672ZM185.708 33.5469L185.755 34.6094C186.401 33.7969 187.244 33.3906 188.286 33.3906C190.073 33.3906 190.974 34.3984 190.989 36.4141V42H189.544V36.4062C189.539 35.7969 189.398 35.3464 189.122 35.0547C188.851 34.763 188.427 34.6172 187.849 34.6172C187.38 34.6172 186.968 34.7422 186.614 34.9922C186.26 35.2422 185.984 35.5703 185.786 35.9766V42H184.341V33.5469H185.708ZM193.653 42V34.6641H192.317V33.5469H193.653V32.8281C193.653 31.8854 193.922 31.151 194.458 30.625C195 30.099 195.763 29.8359 196.747 29.8359C197.33 29.8359 198.067 29.9948 198.958 30.3125L198.716 31.5312C198.065 31.2708 197.445 31.1406 196.856 31.1406C196.237 31.1406 195.789 31.2812 195.513 31.5625C195.242 31.8385 195.106 32.2552 195.106 32.8125V33.5469H196.833V34.6641H195.106V42H193.653ZM199.677 42H198.224V33.5469H199.677V42ZM206.114 34.8438C205.896 34.8073 205.659 34.7891 205.403 34.7891C204.455 34.7891 203.812 35.1927 203.474 36V42H202.028V33.5469H203.435L203.458 34.5234C203.932 33.7682 204.604 33.3906 205.474 33.3906C205.755 33.3906 205.968 33.4271 206.114 33.5V34.8438ZM208.81 33.5469L208.849 34.4844C209.468 33.7552 210.304 33.3906 211.356 33.3906C212.539 33.3906 213.343 33.8438 213.771 34.75C214.052 34.3438 214.416 34.0156 214.864 33.7656C215.317 33.5156 215.851 33.3906 216.466 33.3906C218.32 33.3906 219.263 34.3724 219.294 36.3359V42H217.849V36.4219C217.849 35.8177 217.711 35.3672 217.435 35.0703C217.159 34.7682 216.695 34.6172 216.044 34.6172C215.507 34.6172 215.062 34.7786 214.708 35.1016C214.354 35.4193 214.148 35.849 214.091 36.3906V42H212.638V36.4609C212.638 35.2318 212.036 34.6172 210.833 34.6172C209.885 34.6172 209.237 35.0208 208.888 35.8281V42H207.442V33.5469H208.81ZM227.411 31.5V33.5469H228.989V34.6641H227.411V39.9062C227.411 40.2448 227.481 40.5 227.622 40.6719C227.763 40.8385 228.002 40.9219 228.341 40.9219C228.507 40.9219 228.737 40.8906 229.028 40.8281V42C228.648 42.1042 228.278 42.1562 227.919 42.1562C227.273 42.1562 226.786 41.9609 226.458 41.5703C226.13 41.1797 225.966 40.625 225.966 39.9062V34.6641H224.427V33.5469H225.966V31.5H227.411ZM232.13 34.5703C232.771 33.7839 233.604 33.3906 234.63 33.3906C236.416 33.3906 237.317 34.3984 237.333 36.4141V42H235.888V36.4062C235.882 35.7969 235.742 35.3464 235.466 35.0547C235.195 34.763 234.771 34.6172 234.192 34.6172C233.724 34.6172 233.312 34.7422 232.958 34.9922C232.604 35.2422 232.328 35.5703 232.13 35.9766V42H230.685V30H232.13V34.5703ZM243.005 42.1562C241.859 42.1562 240.927 41.7812 240.208 41.0312C239.489 40.276 239.13 39.2682 239.13 38.0078V37.7422C239.13 36.9036 239.289 36.1562 239.606 35.5C239.929 34.8385 240.377 34.3229 240.95 33.9531C241.528 33.5781 242.153 33.3906 242.825 33.3906C243.924 33.3906 244.778 33.7526 245.388 34.4766C245.997 35.2005 246.302 36.237 246.302 37.5859V38.1875H240.575C240.596 39.0208 240.838 39.6953 241.302 40.2109C241.771 40.7214 242.364 40.9766 243.083 40.9766C243.593 40.9766 244.026 40.8724 244.38 40.6641C244.734 40.4557 245.044 40.1797 245.31 39.8359L246.192 40.5234C245.484 41.612 244.422 42.1562 243.005 42.1562ZM242.825 34.5781C242.242 34.5781 241.752 34.7917 241.356 35.2188C240.961 35.6406 240.716 36.2344 240.622 37H244.856V36.8906C244.815 36.1562 244.617 35.5885 244.263 35.1875C243.909 34.7812 243.429 34.5781 242.825 34.5781ZM259.091 37.8672C259.091 39.1536 258.797 40.1901 258.208 40.9766C257.619 41.763 256.823 42.1562 255.817 42.1562C254.791 42.1562 253.984 41.8307 253.396 41.1797V45.25H251.95V33.5469H253.271L253.341 34.4844C253.929 33.7552 254.747 33.3906 255.794 33.3906C256.81 33.3906 257.612 33.7734 258.2 34.5391C258.794 35.3047 259.091 36.3698 259.091 37.7344V37.8672ZM257.646 37.7031C257.646 36.75 257.442 35.9974 257.036 35.4453C256.63 34.8932 256.073 34.6172 255.364 34.6172C254.489 34.6172 253.833 35.0052 253.396 35.7812V39.8203C253.828 40.5911 254.489 40.9766 255.38 40.9766C256.073 40.9766 256.622 40.7031 257.028 40.1562C257.44 39.6042 257.646 38.7865 257.646 37.7031ZM266.153 42C266.07 41.8333 266.002 41.5365 265.95 41.1094C265.278 41.8073 264.476 42.1562 263.544 42.1562C262.711 42.1562 262.026 41.9219 261.489 41.4531C260.958 40.9792 260.692 40.3802 260.692 39.6562C260.692 38.776 261.026 38.0938 261.692 37.6094C262.364 37.1198 263.307 36.875 264.521 36.875H265.927V36.2109C265.927 35.7057 265.776 35.3047 265.474 35.0078C265.172 34.7057 264.726 34.5547 264.138 34.5547C263.622 34.5547 263.19 34.6849 262.841 34.9453C262.492 35.2057 262.317 35.5208 262.317 35.8906H260.864C260.864 35.4688 261.013 35.0625 261.31 34.6719C261.612 34.276 262.018 33.9635 262.528 33.7344C263.044 33.5052 263.609 33.3906 264.224 33.3906C265.198 33.3906 265.961 33.6354 266.513 34.125C267.065 34.6094 267.351 35.2786 267.372 36.1328V40.0234C267.372 40.7995 267.471 41.4167 267.669 41.875V42H266.153ZM263.755 40.8984C264.208 40.8984 264.638 40.7812 265.044 40.5469C265.45 40.3125 265.744 40.0078 265.927 39.6328V37.8984H264.794C263.023 37.8984 262.138 38.4167 262.138 39.4531C262.138 39.9062 262.289 40.2604 262.591 40.5156C262.893 40.7708 263.281 40.8984 263.755 40.8984ZM272.278 39.8828L274.247 33.5469H275.794L272.396 43.3047C271.869 44.7109 271.034 45.4141 269.888 45.4141L269.614 45.3906L269.075 45.2891V44.1172L269.466 44.1484C269.955 44.1484 270.336 44.0495 270.606 43.8516C270.882 43.6536 271.109 43.2917 271.286 42.7656L271.606 41.9062L268.591 33.5469H270.169L272.278 39.8828ZM278.45 33.5469L278.489 34.4844C279.109 33.7552 279.945 33.3906 280.997 33.3906C282.179 33.3906 282.984 33.8438 283.411 34.75C283.692 34.3438 284.057 34.0156 284.505 33.7656C284.958 33.5156 285.492 33.3906 286.106 33.3906C287.961 33.3906 288.903 34.3724 288.935 36.3359V42H287.489V36.4219C287.489 35.8177 287.351 35.3672 287.075 35.0703C286.799 34.7682 286.336 34.6172 285.685 34.6172C285.148 34.6172 284.703 34.7786 284.349 35.1016C283.994 35.4193 283.789 35.849 283.731 36.3906V42H282.278V36.4609C282.278 35.2318 281.677 34.6172 280.474 34.6172C279.526 34.6172 278.877 35.0208 278.528 35.8281V42H277.083V33.5469H278.45ZM294.63 42.1562C293.484 42.1562 292.552 41.7812 291.833 41.0312C291.114 40.276 290.755 39.2682 290.755 38.0078V37.7422C290.755 36.9036 290.914 36.1562 291.231 35.5C291.554 34.8385 292.002 34.3229 292.575 33.9531C293.153 33.5781 293.778 33.3906 294.45 33.3906C295.549 33.3906 296.403 33.7526 297.013 34.4766C297.622 35.2005 297.927 36.237 297.927 37.5859V38.1875H292.2C292.221 39.0208 292.463 39.6953 292.927 40.2109C293.396 40.7214 293.989 40.9766 294.708 40.9766C295.218 40.9766 295.651 40.8724 296.005 40.6641C296.359 40.4557 296.669 40.1797 296.935 39.8359L297.817 40.5234C297.109 41.612 296.047 42.1562 294.63 42.1562ZM294.45 34.5781C293.867 34.5781 293.377 34.7917 292.981 35.2188C292.586 35.6406 292.341 36.2344 292.247 37H296.481V36.8906C296.44 36.1562 296.242 35.5885 295.888 35.1875C295.534 34.7812 295.054 34.5781 294.45 34.5781ZM300.974 33.5469L301.021 34.6094C301.666 33.7969 302.51 33.3906 303.552 33.3906C305.338 33.3906 306.239 34.3984 306.255 36.4141V42H304.81V36.4062C304.804 35.7969 304.664 35.3464 304.388 35.0547C304.117 34.763 303.692 34.6172 303.114 34.6172C302.646 34.6172 302.234 34.7422 301.88 34.9922C301.526 35.2422 301.25 35.5703 301.052 35.9766V42H299.606V33.5469H300.974ZM310.396 31.5V33.5469H311.974V34.6641H310.396V39.9062C310.396 40.2448 310.466 40.5 310.606 40.6719C310.747 40.8385 310.987 40.9219 311.325 40.9219C311.492 40.9219 311.721 40.8906 312.013 40.8281V42C311.632 42.1042 311.263 42.1562 310.903 42.1562C310.257 42.1562 309.771 41.9609 309.442 41.5703C309.114 41.1797 308.95 40.625 308.95 39.9062V34.6641H307.411V33.5469H308.95V31.5H310.396ZM322.856 42C322.773 41.8333 322.705 41.5365 322.653 41.1094C321.981 41.8073 321.179 42.1562 320.247 42.1562C319.414 42.1562 318.729 41.9219 318.192 41.4531C317.661 40.9792 317.396 40.3802 317.396 39.6562C317.396 38.776 317.729 38.0938 318.396 37.6094C319.067 37.1198 320.01 36.875 321.224 36.875H322.63V36.2109C322.63 35.7057 322.479 35.3047 322.177 35.0078C321.875 34.7057 321.429 34.5547 320.841 34.5547C320.325 34.5547 319.893 34.6849 319.544 34.9453C319.195 35.2057 319.021 35.5208 319.021 35.8906H317.567C317.567 35.4688 317.716 35.0625 318.013 34.6719C318.315 34.276 318.721 33.9635 319.231 33.7344C319.747 33.5052 320.312 33.3906 320.927 33.3906C321.901 33.3906 322.664 33.6354 323.216 34.125C323.768 34.6094 324.054 35.2786 324.075 36.1328V40.0234C324.075 40.7995 324.174 41.4167 324.372 41.875V42H322.856ZM320.458 40.8984C320.911 40.8984 321.341 40.7812 321.747 40.5469C322.153 40.3125 322.448 40.0078 322.63 39.6328V37.8984H321.497C319.726 37.8984 318.841 38.4167 318.841 39.4531C318.841 39.9062 318.992 40.2604 319.294 40.5156C319.596 40.7708 319.984 40.8984 320.458 40.8984ZM327.052 42V34.6641H325.716V33.5469H327.052V32.6797C327.052 31.7734 327.294 31.0729 327.778 30.5781C328.263 30.0833 328.948 29.8359 329.833 29.8359C330.166 29.8359 330.497 29.8802 330.825 29.9688L330.747 31.1406C330.502 31.0938 330.242 31.0703 329.966 31.0703C329.497 31.0703 329.135 31.2083 328.88 31.4844C328.625 31.7552 328.497 32.1458 328.497 32.6562V33.5469H330.302V34.6641H328.497V42H327.052ZM333.864 31.5V33.5469H335.442V34.6641H333.864V39.9062C333.864 40.2448 333.935 40.5 334.075 40.6719C334.216 40.8385 334.455 40.9219 334.794 40.9219C334.961 40.9219 335.19 40.8906 335.481 40.8281V42C335.101 42.1042 334.731 42.1562 334.372 42.1562C333.726 42.1562 333.239 41.9609 332.911 41.5703C332.583 41.1797 332.419 40.625 332.419 39.9062V34.6641H330.88V33.5469H332.419V31.5H333.864ZM340.646 42.1562C339.5 42.1562 338.567 41.7812 337.849 41.0312C337.13 40.276 336.771 39.2682 336.771 38.0078V37.7422C336.771 36.9036 336.929 36.1562 337.247 35.5C337.57 34.8385 338.018 34.3229 338.591 33.9531C339.169 33.5781 339.794 33.3906 340.466 33.3906C341.565 33.3906 342.419 33.7526 343.028 34.4766C343.638 35.2005 343.942 36.237 343.942 37.5859V38.1875H338.216C338.237 39.0208 338.479 39.6953 338.942 40.2109C339.411 40.7214 340.005 40.9766 340.724 40.9766C341.234 40.9766 341.666 40.8724 342.021 40.6641C342.375 40.4557 342.685 40.1797 342.95 39.8359L343.833 40.5234C343.125 41.612 342.062 42.1562 340.646 42.1562ZM340.466 34.5781C339.882 34.5781 339.393 34.7917 338.997 35.2188C338.601 35.6406 338.356 36.2344 338.263 37H342.497V36.8906C342.455 36.1562 342.257 35.5885 341.903 35.1875C341.549 34.7812 341.07 34.5781 340.466 34.5781ZM349.708 34.8438C349.489 34.8073 349.252 34.7891 348.997 34.7891C348.049 34.7891 347.406 35.1927 347.067 36V42H345.622V33.5469H347.028L347.052 34.5234C347.526 33.7682 348.198 33.3906 349.067 33.3906C349.349 33.3906 349.562 33.4271 349.708 33.5V34.8438ZM358.403 40.9766C358.919 40.9766 359.369 40.8203 359.755 40.5078C360.14 40.1953 360.354 39.8047 360.396 39.3359H361.763C361.737 39.8203 361.57 40.2812 361.263 40.7188C360.955 41.1562 360.544 41.5052 360.028 41.7656C359.518 42.026 358.976 42.1562 358.403 42.1562C357.252 42.1562 356.336 41.7734 355.653 41.0078C354.976 40.237 354.638 39.1849 354.638 37.8516V37.6094C354.638 36.7865 354.789 36.0547 355.091 35.4141C355.393 34.7734 355.825 34.276 356.388 33.9219C356.955 33.5677 357.625 33.3906 358.396 33.3906C359.343 33.3906 360.13 33.6745 360.755 34.2422C361.385 34.8099 361.721 35.5469 361.763 36.4531H360.396C360.354 35.9062 360.146 35.4583 359.771 35.1094C359.401 34.7552 358.942 34.5781 358.396 34.5781C357.661 34.5781 357.091 34.8438 356.685 35.375C356.284 35.901 356.083 36.6641 356.083 37.6641V37.9375C356.083 38.9115 356.284 39.6615 356.685 40.1875C357.086 40.7135 357.659 40.9766 358.403 40.9766ZM364.833 34.5703C365.474 33.7839 366.307 33.3906 367.333 33.3906C369.119 33.3906 370.021 34.3984 370.036 36.4141V42H368.591V36.4062C368.586 35.7969 368.445 35.3464 368.169 35.0547C367.898 34.763 367.474 34.6172 366.896 34.6172C366.427 34.6172 366.015 34.7422 365.661 34.9922C365.307 35.2422 365.031 35.5703 364.833 35.9766V42H363.388V30H364.833V34.5703ZM375.708 42.1562C374.562 42.1562 373.63 41.7812 372.911 41.0312C372.192 40.276 371.833 39.2682 371.833 38.0078V37.7422C371.833 36.9036 371.992 36.1562 372.31 35.5C372.632 34.8385 373.08 34.3229 373.653 33.9531C374.231 33.5781 374.856 33.3906 375.528 33.3906C376.627 33.3906 377.481 33.7526 378.091 34.4766C378.7 35.2005 379.005 36.237 379.005 37.5859V38.1875H373.278C373.299 39.0208 373.541 39.6953 374.005 40.2109C374.474 40.7214 375.067 40.9766 375.786 40.9766C376.297 40.9766 376.729 40.8724 377.083 40.6641C377.437 40.4557 377.747 40.1797 378.013 39.8359L378.896 40.5234C378.187 41.612 377.125 42.1562 375.708 42.1562ZM375.528 34.5781C374.945 34.5781 374.455 34.7917 374.06 35.2188C373.664 35.6406 373.419 36.2344 373.325 37H377.56V36.8906C377.518 36.1562 377.32 35.5885 376.966 35.1875C376.612 34.7812 376.132 34.5781 375.528 34.5781ZM384.075 40.9766C384.591 40.9766 385.041 40.8203 385.427 40.5078C385.812 40.1953 386.026 39.8047 386.067 39.3359H387.435C387.409 39.8203 387.242 40.2812 386.935 40.7188C386.627 41.1562 386.216 41.5052 385.7 41.7656C385.19 42.026 384.648 42.1562 384.075 42.1562C382.924 42.1562 382.007 41.7734 381.325 41.0078C380.648 40.237 380.31 39.1849 380.31 37.8516V37.6094C380.31 36.7865 380.461 36.0547 380.763 35.4141C381.065 34.7734 381.497 34.276 382.06 33.9219C382.627 33.5677 383.297 33.3906 384.067 33.3906C385.015 33.3906 385.802 33.6745 386.427 34.2422C387.057 34.8099 387.393 35.5469 387.435 36.4531H386.067C386.026 35.9062 385.817 35.4583 385.442 35.1094C385.073 34.7552 384.614 34.5781 384.067 34.5781C383.333 34.5781 382.763 34.8438 382.356 35.375C381.955 35.901 381.755 36.6641 381.755 37.6641V37.9375C381.755 38.9115 381.955 39.6615 382.356 40.1875C382.757 40.7135 383.33 40.9766 384.075 40.9766ZM391.419 38.0859L390.513 39.0312V42H389.067V30H390.513V37.2578L391.286 36.3281L393.919 33.5469H395.677L392.388 37.0781L396.06 42H394.364L391.419 38.0859ZM398.739 42H397.294V33.5469H398.739V42ZM397.177 31.3047C397.177 31.0703 397.247 30.8724 397.388 30.7109C397.534 30.5495 397.747 30.4688 398.028 30.4688C398.31 30.4688 398.523 30.5495 398.669 30.7109C398.815 30.8724 398.888 31.0703 398.888 31.3047C398.888 31.5391 398.815 31.7344 398.669 31.8906C398.523 32.0469 398.31 32.125 398.028 32.125C397.747 32.125 397.534 32.0469 397.388 31.8906C397.247 31.7344 397.177 31.5391 397.177 31.3047ZM402.427 33.5469L402.474 34.6094C403.119 33.7969 403.963 33.3906 405.005 33.3906C406.791 33.3906 407.692 34.3984 407.708 36.4141V42H406.263V36.4062C406.257 35.7969 406.117 35.3464 405.841 35.0547C405.57 34.763 405.146 34.6172 404.567 34.6172C404.099 34.6172 403.687 34.7422 403.333 34.9922C402.979 35.2422 402.703 35.5703 402.505 35.9766V42H401.06V33.5469H402.427ZM409.544 37.7031C409.544 36.3854 409.849 35.3385 410.458 34.5625C411.067 33.7812 411.875 33.3906 412.88 33.3906C413.911 33.3906 414.716 33.7552 415.294 34.4844L415.364 33.5469H416.685V41.7969C416.685 42.8906 416.359 43.7526 415.708 44.3828C415.062 45.013 414.192 45.3281 413.099 45.3281C412.489 45.3281 411.893 45.1979 411.31 44.9375C410.726 44.6771 410.281 44.3203 409.974 43.8672L410.724 43C411.343 43.7656 412.101 44.1484 412.997 44.1484C413.7 44.1484 414.247 43.9505 414.638 43.5547C415.034 43.1589 415.231 42.6016 415.231 41.8828V41.1562C414.653 41.8229 413.864 42.1562 412.864 42.1562C411.875 42.1562 411.073 41.7578 410.458 40.9609C409.849 40.1641 409.544 39.0781 409.544 37.7031ZM410.997 37.8672C410.997 38.8203 411.192 39.5703 411.583 40.1172C411.974 40.6589 412.521 40.9297 413.224 40.9297C414.135 40.9297 414.804 40.5156 415.231 39.6875V35.8281C414.789 35.0208 414.125 34.6172 413.239 34.6172C412.536 34.6172 411.987 34.8906 411.591 35.4375C411.195 35.9844 410.997 36.7943 410.997 37.8672ZM424.411 42H422.966V33.5469H424.411V42ZM422.849 31.3047C422.849 31.0703 422.919 30.8724 423.06 30.7109C423.205 30.5495 423.419 30.4688 423.7 30.4688C423.981 30.4688 424.195 30.5495 424.341 30.7109C424.487 30.8724 424.56 31.0703 424.56 31.3047C424.56 31.5391 424.487 31.7344 424.341 31.8906C424.195 32.0469 423.981 32.125 423.7 32.125C423.419 32.125 423.205 32.0469 423.06 31.8906C422.919 31.7344 422.849 31.5391 422.849 31.3047ZM428.692 31.5V33.5469H430.271V34.6641H428.692V39.9062C428.692 40.2448 428.763 40.5 428.903 40.6719C429.044 40.8385 429.284 40.9219 429.622 40.9219C429.789 40.9219 430.018 40.8906 430.31 40.8281V42C429.929 42.1042 429.56 42.1562 429.2 42.1562C428.554 42.1562 428.067 41.9609 427.739 41.5703C427.411 41.1797 427.247 40.625 427.247 39.9062V34.6641H425.708V33.5469H427.247V31.5H428.692Z" fill="#656668"/>
<path d="M19.1105 47.744H34.5025V45.312H23.4945C27.6225 41.952 33.8305 37.056 33.8305 31.296C33.8305 27.008 31.0145 24.448 26.6625 24.448C22.5025 24.448 19.3985 27.008 19.2065 31.936H22.0225C22.1505 29.024 23.6865 26.944 26.6945 26.944C29.8305 26.944 30.9505 28.864 30.9505 31.424C30.9505 36.16 25.1905 40.768 19.1105 45.664V47.744Z" fill="#656668"/>
</svg>
