<svg width="557" height="75" viewBox="0 0 557 75" fill="none" xmlns="http://www.w3.org/2000/svg">
<path d="M70.4033 39.3906C70.2627 40.5938 69.8174 41.5234 69.0674 42.1797C68.3226 42.8307 67.3304 43.1562 66.0908 43.1562C64.7471 43.1562 63.6689 42.6745 62.8564 41.7109C62.0492 40.7474 61.6455 39.4583 61.6455 37.8438V36.75C61.6455 35.6927 61.833 34.763 62.208 33.9609C62.5882 33.1589 63.1247 32.5443 63.8174 32.1172C64.5101 31.6849 65.3122 31.4688 66.2236 31.4688C67.432 31.4688 68.4007 31.8073 69.1299 32.4844C69.859 33.1562 70.2835 34.0885 70.4033 35.2812H68.8955C68.7653 34.375 68.4814 33.7188 68.0439 33.3125C67.6117 32.9062 67.0049 32.7031 66.2236 32.7031C65.2653 32.7031 64.5127 33.0573 63.9658 33.7656C63.4242 34.474 63.1533 35.4818 63.1533 36.7891V37.8906C63.1533 39.125 63.4111 40.1068 63.9268 40.8359C64.4424 41.5651 65.1637 41.9297 66.0908 41.9297C66.9242 41.9297 67.5622 41.7422 68.0049 41.3672C68.4528 40.987 68.7497 40.3281 68.8955 39.3906H70.4033ZM71.8486 38.6953C71.8486 37.8672 72.0101 37.1224 72.333 36.4609C72.6611 35.7995 73.1143 35.2891 73.6924 34.9297C74.2757 34.5703 74.9398 34.3906 75.6846 34.3906C76.8356 34.3906 77.7653 34.7891 78.4736 35.5859C79.1872 36.3828 79.5439 37.4427 79.5439 38.7656V38.8672C79.5439 39.6901 79.3851 40.4297 79.0674 41.0859C78.7549 41.737 78.3044 42.2448 77.7158 42.6094C77.1325 42.974 76.4606 43.1562 75.7002 43.1562C74.5544 43.1562 73.6247 42.7578 72.9111 41.9609C72.2028 41.1641 71.8486 40.1094 71.8486 38.7969V38.6953ZM73.3018 38.8672C73.3018 39.8047 73.5179 40.5573 73.9502 41.125C74.3877 41.6927 74.971 41.9766 75.7002 41.9766C76.4346 41.9766 77.0179 41.6901 77.4502 41.1172C77.8825 40.5391 78.0986 39.7318 78.0986 38.6953C78.0986 37.7682 77.8773 37.0182 77.4346 36.4453C76.9971 35.8672 76.4137 35.5781 75.6846 35.5781C74.971 35.5781 74.3955 35.862 73.958 36.4297C73.5205 36.9974 73.3018 37.8099 73.3018 38.8672ZM82.7236 34.5469L82.7705 35.6094C83.4163 34.7969 84.2601 34.3906 85.3018 34.3906C87.0882 34.3906 87.9893 35.3984 88.0049 37.4141V43H86.5596V37.4062C86.5544 36.7969 86.4137 36.3464 86.1377 36.0547C85.8669 35.763 85.4424 35.6172 84.8643 35.6172C84.3955 35.6172 83.984 35.7422 83.6299 35.9922C83.2757 36.2422 82.9997 36.5703 82.8018 36.9766V43H81.3564V34.5469H82.7236ZM95.1064 40.7578C95.1064 40.3672 94.958 40.0651 94.6611 39.8516C94.3695 39.6328 93.8564 39.4453 93.1221 39.2891C92.3929 39.1328 91.8122 38.9453 91.3799 38.7266C90.9528 38.5078 90.6351 38.2474 90.4268 37.9453C90.2236 37.6432 90.1221 37.2839 90.1221 36.8672C90.1221 36.1745 90.4137 35.5885 90.9971 35.1094C91.5856 34.6302 92.3356 34.3906 93.2471 34.3906C94.2054 34.3906 94.9814 34.638 95.5752 35.1328C96.1742 35.6276 96.4736 36.2604 96.4736 37.0312H95.0205C95.0205 36.6354 94.8512 36.2943 94.5127 36.0078C94.1794 35.7214 93.7575 35.5781 93.2471 35.5781C92.721 35.5781 92.3096 35.6927 92.0127 35.9219C91.7158 36.151 91.5674 36.4505 91.5674 36.8203C91.5674 37.1693 91.7054 37.4323 91.9814 37.6094C92.2575 37.7865 92.7549 37.9557 93.4736 38.1172C94.1976 38.2786 94.7835 38.4714 95.2314 38.6953C95.6794 38.9193 96.0101 39.1901 96.2236 39.5078C96.4424 39.8203 96.5518 40.2031 96.5518 40.6562C96.5518 41.4115 96.2497 42.0182 95.6455 42.4766C95.0413 42.9297 94.2575 43.1562 93.2939 43.1562C92.6169 43.1562 92.0179 43.0365 91.4971 42.7969C90.9762 42.5573 90.5674 42.224 90.2705 41.7969C89.9788 41.3646 89.833 40.8984 89.833 40.3984H91.2783C91.3044 40.8828 91.4971 41.2682 91.8564 41.5547C92.221 41.8359 92.7002 41.9766 93.2939 41.9766C93.8408 41.9766 94.2783 41.8672 94.6064 41.6484C94.9398 41.4245 95.1064 41.1276 95.1064 40.7578ZM103.653 42.1641C103.091 42.8255 102.265 43.1562 101.177 43.1562C100.276 43.1562 99.5882 42.8958 99.1143 42.375C98.6455 41.849 98.4085 41.0729 98.4033 40.0469V34.5469H99.8486V40.0078C99.8486 41.2891 100.369 41.9297 101.411 41.9297C102.515 41.9297 103.25 41.5182 103.614 40.6953V34.5469H105.06V43H103.685L103.653 42.1641ZM108.622 34.5469L108.661 35.4844C109.281 34.7552 110.117 34.3906 111.169 34.3906C112.351 34.3906 113.156 34.8438 113.583 35.75C113.864 35.3438 114.229 35.0156 114.677 34.7656C115.13 34.5156 115.664 34.3906 116.278 34.3906C118.132 34.3906 119.075 35.3724 119.106 37.3359V43H117.661V37.4219C117.661 36.8177 117.523 36.3672 117.247 36.0703C116.971 35.7682 116.507 35.6172 115.856 35.6172C115.32 35.6172 114.875 35.7786 114.521 36.1016C114.166 36.4193 113.961 36.849 113.903 37.3906V43H112.45V37.4609C112.45 36.2318 111.849 35.6172 110.646 35.6172C109.698 35.6172 109.049 36.0208 108.7 36.8281V43H107.255V34.5469H108.622ZM124.802 43.1562C123.656 43.1562 122.724 42.7812 122.005 42.0312C121.286 41.276 120.927 40.2682 120.927 39.0078V38.7422C120.927 37.9036 121.086 37.1562 121.403 36.5C121.726 35.8385 122.174 35.3229 122.747 34.9531C123.325 34.5781 123.95 34.3906 124.622 34.3906C125.721 34.3906 126.575 34.7526 127.185 35.4766C127.794 36.2005 128.099 37.237 128.099 38.5859V39.1875H122.372C122.393 40.0208 122.635 40.6953 123.099 41.2109C123.567 41.7214 124.161 41.9766 124.88 41.9766C125.39 41.9766 125.823 41.8724 126.177 41.6641C126.531 41.4557 126.841 41.1797 127.106 40.8359L127.989 41.5234C127.281 42.612 126.218 43.1562 124.802 43.1562ZM124.622 35.5781C124.039 35.5781 123.549 35.7917 123.153 36.2188C122.757 36.6406 122.513 37.2344 122.419 38H126.653V37.8906C126.612 37.1562 126.414 36.5885 126.06 36.1875C125.705 35.7812 125.226 35.5781 124.622 35.5781ZM133.864 35.8438C133.646 35.8073 133.409 35.7891 133.153 35.7891C132.205 35.7891 131.562 36.1927 131.224 37V43H129.778V34.5469H131.185L131.208 35.5234C131.682 34.7682 132.354 34.3906 133.224 34.3906C133.505 34.3906 133.718 34.4271 133.864 34.5V35.8438ZM146.653 41.0078L148.278 34.5469H149.724L147.263 43H146.091L144.036 36.5938L142.036 43H140.864L138.411 34.5469H139.849L141.513 40.875L143.481 34.5469H144.646L146.653 41.0078ZM152.771 43H151.325V34.5469H152.771V43ZM151.208 32.3047C151.208 32.0703 151.278 31.8724 151.419 31.7109C151.565 31.5495 151.778 31.4688 152.06 31.4688C152.341 31.4688 152.554 31.5495 152.7 31.7109C152.846 31.8724 152.919 32.0703 152.919 32.3047C152.919 32.5391 152.846 32.7344 152.7 32.8906C152.554 33.0469 152.341 33.125 152.06 33.125C151.778 33.125 151.565 33.0469 151.419 32.8906C151.278 32.7344 151.208 32.5391 151.208 32.3047ZM156.661 43H155.216V31H156.661V43ZM160.552 43H159.106V31H160.552V43ZM170.349 43.1562C169.203 43.1562 168.271 42.7812 167.552 42.0312C166.833 41.276 166.474 40.2682 166.474 39.0078V38.7422C166.474 37.9036 166.632 37.1562 166.95 36.5C167.273 35.8385 167.721 35.3229 168.294 34.9531C168.872 34.5781 169.497 34.3906 170.169 34.3906C171.268 34.3906 172.122 34.7526 172.731 35.4766C173.341 36.2005 173.646 37.237 173.646 38.5859V39.1875H167.919C167.94 40.0208 168.182 40.6953 168.646 41.2109C169.114 41.7214 169.708 41.9766 170.427 41.9766C170.937 41.9766 171.369 41.8724 171.724 41.6641C172.078 41.4557 172.388 41.1797 172.653 40.8359L173.536 41.5234C172.828 42.612 171.765 43.1562 170.349 43.1562ZM170.169 35.5781C169.586 35.5781 169.096 35.7917 168.7 36.2188C168.304 36.6406 168.06 37.2344 167.966 38H172.2V37.8906C172.159 37.1562 171.961 36.5885 171.606 36.1875C171.252 35.7812 170.773 35.5781 170.169 35.5781ZM176.692 34.5469L176.739 35.6094C177.385 34.7969 178.229 34.3906 179.271 34.3906C181.057 34.3906 181.958 35.3984 181.974 37.4141V43H180.528V37.4062C180.523 36.7969 180.382 36.3464 180.106 36.0547C179.836 35.763 179.411 35.6172 178.833 35.6172C178.364 35.6172 177.953 35.7422 177.599 35.9922C177.244 36.2422 176.968 36.5703 176.771 36.9766V43H175.325V34.5469H176.692ZM186.114 32.5V34.5469H187.692V35.6641H186.114V40.9062C186.114 41.2448 186.185 41.5 186.325 41.6719C186.466 41.8385 186.705 41.9219 187.044 41.9219C187.211 41.9219 187.44 41.8906 187.731 41.8281V43C187.351 43.1042 186.981 43.1562 186.622 43.1562C185.976 43.1562 185.489 42.9609 185.161 42.5703C184.833 42.1797 184.669 41.625 184.669 40.9062V35.6641H183.13V34.5469H184.669V32.5H186.114ZM192.896 43.1562C191.75 43.1562 190.817 42.7812 190.099 42.0312C189.38 41.276 189.021 40.2682 189.021 39.0078V38.7422C189.021 37.9036 189.179 37.1562 189.497 36.5C189.82 35.8385 190.268 35.3229 190.841 34.9531C191.419 34.5781 192.044 34.3906 192.716 34.3906C193.815 34.3906 194.669 34.7526 195.278 35.4766C195.888 36.2005 196.192 37.237 196.192 38.5859V39.1875H190.466C190.487 40.0208 190.729 40.6953 191.192 41.2109C191.661 41.7214 192.255 41.9766 192.974 41.9766C193.484 41.9766 193.916 41.8724 194.271 41.6641C194.625 41.4557 194.935 41.1797 195.2 40.8359L196.083 41.5234C195.375 42.612 194.312 43.1562 192.896 43.1562ZM192.716 35.5781C192.132 35.5781 191.643 35.7917 191.247 36.2188C190.851 36.6406 190.606 37.2344 190.513 38H194.747V37.8906C194.705 37.1562 194.507 36.5885 194.153 36.1875C193.799 35.7812 193.32 35.5781 192.716 35.5781ZM201.958 35.8438C201.739 35.8073 201.502 35.7891 201.247 35.7891C200.299 35.7891 199.656 36.1927 199.317 37V43H197.872V34.5469H199.278L199.302 35.5234C199.776 34.7682 200.448 34.3906 201.317 34.3906C201.599 34.3906 201.812 34.4271 201.958 34.5V35.8438ZM208.708 35.5703C209.349 34.7839 210.182 34.3906 211.208 34.3906C212.994 34.3906 213.896 35.3984 213.911 37.4141V43H212.466V37.4062C212.461 36.7969 212.32 36.3464 212.044 36.0547C211.773 35.763 211.349 35.6172 210.771 35.6172C210.302 35.6172 209.89 35.7422 209.536 35.9922C209.182 36.2422 208.906 36.5703 208.708 36.9766V43H207.263V31H208.708V35.5703ZM217.646 43H216.2V34.5469H217.646V43ZM216.083 32.3047C216.083 32.0703 216.153 31.8724 216.294 31.7109C216.44 31.5495 216.653 31.4688 216.935 31.4688C217.216 31.4688 217.429 31.5495 217.575 31.7109C217.721 31.8724 217.794 32.0703 217.794 32.3047C217.794 32.5391 217.721 32.7344 217.575 32.8906C217.429 33.0469 217.216 33.125 216.935 33.125C216.653 33.125 216.44 33.0469 216.294 32.8906C216.153 32.7344 216.083 32.5391 216.083 32.3047ZM224.888 40.7578C224.888 40.3672 224.739 40.0651 224.442 39.8516C224.151 39.6328 223.638 39.4453 222.903 39.2891C222.174 39.1328 221.593 38.9453 221.161 38.7266C220.734 38.5078 220.416 38.2474 220.208 37.9453C220.005 37.6432 219.903 37.2839 219.903 36.8672C219.903 36.1745 220.195 35.5885 220.778 35.1094C221.367 34.6302 222.117 34.3906 223.028 34.3906C223.987 34.3906 224.763 34.638 225.356 35.1328C225.955 35.6276 226.255 36.2604 226.255 37.0312H224.802C224.802 36.6354 224.632 36.2943 224.294 36.0078C223.961 35.7214 223.539 35.5781 223.028 35.5781C222.502 35.5781 222.091 35.6927 221.794 35.9219C221.497 36.151 221.349 36.4505 221.349 36.8203C221.349 37.1693 221.487 37.4323 221.763 37.6094C222.039 37.7865 222.536 37.9557 223.255 38.1172C223.979 38.2786 224.565 38.4714 225.013 38.6953C225.461 38.9193 225.791 39.1901 226.005 39.5078C226.224 39.8203 226.333 40.2031 226.333 40.6562C226.333 41.4115 226.031 42.0182 225.427 42.4766C224.823 42.9297 224.039 43.1562 223.075 43.1562C222.398 43.1562 221.799 43.0365 221.278 42.7969C220.757 42.5573 220.349 42.224 220.052 41.7969C219.76 41.3646 219.614 40.8984 219.614 40.3984H221.06C221.086 40.8828 221.278 41.2682 221.638 41.5547C222.002 41.8359 222.481 41.9766 223.075 41.9766C223.622 41.9766 224.06 41.8672 224.388 41.6484C224.721 41.4245 224.888 41.1276 224.888 40.7578ZM233.911 38.5469V43H232.411V31.625H236.606C237.851 31.625 238.825 31.9427 239.528 32.5781C240.237 33.2135 240.591 34.0547 240.591 35.1016C240.591 36.2057 240.244 37.0573 239.552 37.6562C238.864 38.25 237.877 38.5469 236.591 38.5469H233.911ZM233.911 37.3203H236.606C237.409 37.3203 238.023 37.1328 238.45 36.7578C238.877 36.3776 239.091 35.8307 239.091 35.1172C239.091 34.4401 238.877 33.8984 238.45 33.4922C238.023 33.0859 237.437 32.875 236.692 32.8594H233.911V37.3203ZM244.114 43H242.614V31.625H244.114V43ZM255.606 43H254.099L248.372 34.2344V43H246.864V31.625H248.372L254.114 40.4297V31.625H255.606V43Z" fill="#656668"/>
<path d="M18.4786 31.688H21.3266C21.6146 29.448 23.2466 27.912 25.9666 27.912C28.7506 27.912 30.2226 29.448 30.2226 31.656C30.2226 34.344 28.1426 35.528 24.2706 35.56H23.5026V37.992H24.2386C28.3986 37.992 30.6706 39.24 30.6706 42.504C30.6706 44.872 29.1986 46.696 26.0946 46.696C23.0226 46.696 21.2306 44.808 20.9426 42.344H18.1266C18.4786 46.824 21.7426 49.16 26.1266 49.16C30.9586 49.16 33.4546 46.344 33.4546 42.76C33.4546 39.432 31.6306 37.448 28.9426 36.808V36.648C31.3746 36.104 33.0386 34.024 33.0386 31.368C33.0386 28.04 30.5746 25.416 26.0626 25.416C21.7746 25.416 18.7666 27.72 18.4786 31.688Z" fill="#656668"/>
</svg>
