<svg width="644" height="97" viewBox="0 0 644 97" fill="none" xmlns="http://www.w3.org/2000/svg">
<path d="M188.777 12.696V35H199.497V32.632H191.689V12.696H188.777ZM202.589 35H205.501V17.464H202.589V35ZM204.093 14.616C205.149 14.616 206.013 13.752 206.013 12.632C206.013 11.512 205.149 10.648 204.093 10.648C202.973 10.648 202.109 11.512 202.109 12.632C202.109 13.752 202.973 14.616 204.093 14.616ZM208.384 17.464L215.264 35H218.656L225.536 17.464H222.432L216.992 32.312L211.52 17.464H208.384ZM228.402 35H231.314V17.464H228.402V35ZM229.906 14.616C230.962 14.616 231.826 13.752 231.826 12.632C231.826 11.512 230.962 10.648 229.906 10.648C228.786 10.648 227.922 11.512 227.922 12.632C227.922 13.752 228.786 14.616 229.906 14.616ZM249.109 35H251.989V24.664C251.989 19.64 248.885 17.144 244.821 17.144C242.453 17.144 240.341 18.136 239.189 19.96V17.464H236.277V35H239.189V25.304C239.189 21.528 241.237 19.672 244.213 19.672C247.157 19.672 249.109 21.496 249.109 25.08V35ZM255.657 26.168C255.657 31.608 259.273 35.288 263.977 35.288C267.177 35.288 269.449 33.592 270.505 31.704V35.384C270.505 39.128 268.169 41.112 265.065 41.112C262.185 41.112 260.105 39.672 259.465 37.56H256.585C257.161 41.304 260.457 43.64 265.065 43.64C270.217 43.64 273.449 40.216 273.449 35.384V17.464H270.505V20.664C269.481 18.776 267.177 17.176 263.977 17.176C259.273 17.176 255.657 20.696 255.657 26.168ZM270.505 26.2C270.505 30.328 267.753 32.728 264.553 32.728C261.353 32.728 258.633 30.296 258.633 26.168C258.633 22.04 261.353 19.704 264.553 19.704C267.753 19.704 270.505 22.136 270.505 26.2ZM308.214 23.832C308.214 17.144 303.318 12.44 297.014 12.44C290.742 12.44 285.814 17.144 285.814 23.832C285.814 30.52 290.742 35.224 297.014 35.224C303.318 35.224 308.214 30.52 308.214 23.832ZM288.79 23.832C288.79 18.36 292.31 14.968 297.014 14.968C301.718 14.968 305.238 18.36 305.238 23.832C305.238 29.272 301.718 32.696 297.014 32.696C292.31 32.696 288.79 29.272 288.79 23.832ZM327.61 17.464H324.698V27.096C324.698 30.872 322.682 32.728 319.674 32.728C316.73 32.728 314.778 30.904 314.778 27.352V17.464H311.898V27.736C311.898 32.76 315.066 35.256 319.098 35.256C321.434 35.256 323.578 34.232 324.698 32.408V35H327.61V17.464ZM335.439 25.464C335.439 21.4 337.551 20.152 340.335 20.152H341.103V17.144C338.319 17.144 336.431 18.36 335.439 20.312V17.464H332.527V35H335.439V25.464ZM361.347 31.928L354.339 12.696H351.235L359.651 35H363.011L371.427 12.696H368.355L361.347 31.928ZM373.532 26.168C373.532 31.608 377.148 35.288 381.82 35.288C385.052 35.288 387.324 33.624 388.38 31.736V35H391.324V17.464H388.38V20.664C387.356 18.84 385.116 17.176 381.852 17.176C377.148 17.176 373.532 20.696 373.532 26.168ZM388.38 26.2C388.38 30.328 385.628 32.728 382.428 32.728C379.228 32.728 376.508 30.296 376.508 26.168C376.508 22.04 379.228 19.704 382.428 19.704C385.628 19.704 388.38 22.136 388.38 26.2ZM396.245 35H399.157V11.32H396.245V35ZM419.672 17.464H416.76V27.096C416.76 30.872 414.744 32.728 411.736 32.728C408.792 32.728 406.84 30.904 406.84 27.352V17.464H403.96V27.736C403.96 32.76 407.128 35.256 411.16 35.256C413.496 35.256 415.64 34.232 416.76 32.408V35H419.672V17.464ZM432.045 19.64C435.053 19.64 437.613 21.528 437.581 24.952H426.509C426.829 21.528 429.197 19.64 432.045 19.64ZM440.237 29.592H437.101C436.461 31.48 434.797 32.824 432.173 32.824C429.197 32.824 426.701 30.872 426.477 27.32H440.493C440.557 26.712 440.589 26.2 440.589 25.56C440.589 20.76 437.261 17.176 432.173 17.176C427.053 17.176 423.501 20.664 423.501 26.2C423.501 31.768 427.181 35.288 432.173 35.288C436.525 35.288 439.341 32.792 440.237 29.592ZM457.041 30.232C456.913 23.96 446.737 26.232 446.737 22.072C446.737 20.664 448.017 19.64 450.161 19.64C452.497 19.64 453.841 20.92 453.969 22.68H456.881C456.689 19.256 454.129 17.176 450.257 17.176C446.353 17.176 443.825 19.384 443.825 22.072C443.825 28.6 454.193 26.328 454.193 30.232C454.193 31.672 452.913 32.824 450.609 32.824C448.145 32.824 446.641 31.544 446.481 29.848H443.473C443.665 33.048 446.545 35.288 450.641 35.288C454.513 35.288 457.041 33.112 457.041 30.232Z" fill="#2B334E"/>
<path opacity="0.6" d="M174.333 81.416C174.333 78.072 171.885 75.72 168.733 75.72C165.597 75.72 163.133 78.072 163.133 81.416C163.133 84.76 165.597 87.112 168.733 87.112C171.885 87.112 174.333 84.76 174.333 81.416ZM164.621 81.416C164.621 78.68 166.381 76.984 168.733 76.984C171.085 76.984 172.845 78.68 172.845 81.416C172.845 84.136 171.085 85.848 168.733 85.848C166.381 85.848 164.621 84.136 164.621 81.416ZM184.031 78.232H182.575V83.048C182.575 84.936 181.567 85.864 180.063 85.864C178.591 85.864 177.615 84.952 177.615 83.176V78.232H176.175V83.368C176.175 85.88 177.759 87.128 179.775 87.128C180.943 87.128 182.015 86.616 182.575 85.704V87H184.031V78.232ZM187.946 82.232C187.946 80.2 189.002 79.576 190.394 79.576H190.778V78.072C189.386 78.072 188.442 78.68 187.946 79.656V78.232H186.49V87H187.946V82.232ZM198.18 79.864V75.16H196.724V87H198.18V85.384C198.724 86.344 199.86 87.144 201.46 87.144C203.812 87.144 205.62 85.304 205.62 82.584C205.62 79.848 203.828 78.088 201.46 78.088C199.908 78.088 198.74 78.888 198.18 79.864ZM204.132 82.584C204.132 84.648 202.772 85.864 201.156 85.864C199.572 85.864 198.18 84.664 198.18 82.6C198.18 80.568 199.572 79.352 201.156 79.352C202.772 79.352 204.132 80.52 204.132 82.584ZM211.265 79.32C212.769 79.32 214.049 80.264 214.033 81.976H208.497C208.657 80.264 209.841 79.32 211.265 79.32ZM215.361 84.296H213.793C213.473 85.24 212.641 85.912 211.329 85.912C209.841 85.912 208.593 84.936 208.481 83.16H215.489C215.521 82.856 215.537 82.6 215.537 82.28C215.537 79.88 213.873 78.088 211.329 78.088C208.769 78.088 206.993 79.832 206.993 82.6C206.993 85.384 208.833 87.144 211.329 87.144C213.505 87.144 214.913 85.896 215.361 84.296ZM217.459 87H218.915V75.16H217.459V87ZM221.396 87H222.852V78.232H221.396V87ZM222.148 76.808C222.676 76.808 223.108 76.376 223.108 75.816C223.108 75.256 222.676 74.824 222.148 74.824C221.588 74.824 221.156 75.256 221.156 75.816C221.156 76.376 221.588 76.808 222.148 76.808ZM229.062 79.32C230.566 79.32 231.846 80.264 231.83 81.976H226.294C226.454 80.264 227.638 79.32 229.062 79.32ZM233.158 84.296H231.59C231.27 85.24 230.438 85.912 229.126 85.912C227.638 85.912 226.39 84.936 226.278 83.16H233.286C233.318 82.856 233.334 82.6 233.334 82.28C233.334 79.88 231.67 78.088 229.126 78.088C226.566 78.088 224.79 79.832 224.79 82.6C224.79 85.384 226.63 87.144 229.126 87.144C231.302 87.144 232.71 85.896 233.158 84.296ZM235.527 87H236.983V79.432H238.823V78.232H236.983V77.608C236.983 76.472 237.415 75.992 238.727 75.992V74.776C236.487 74.776 235.527 75.656 235.527 77.608V78.232H234.391V79.432H235.527V87ZM246.825 84.616C246.761 81.48 241.673 82.616 241.673 80.536C241.673 79.832 242.313 79.32 243.385 79.32C244.553 79.32 245.225 79.96 245.289 80.84H246.745C246.649 79.128 245.369 78.088 243.433 78.088C241.481 78.088 240.217 79.192 240.217 80.536C240.217 83.8 245.401 82.664 245.401 84.616C245.401 85.336 244.761 85.912 243.609 85.912C242.377 85.912 241.625 85.272 241.545 84.424H240.041C240.137 86.024 241.577 87.144 243.625 87.144C245.561 87.144 246.825 86.056 246.825 84.616ZM252.602 82.584C252.602 85.304 254.41 87.144 256.762 87.144C258.362 87.144 259.498 86.328 260.026 85.352V87H261.498V75.16H260.026V79.8C259.418 78.792 258.154 78.088 256.778 78.088C254.41 78.088 252.602 79.848 252.602 82.584ZM260.026 82.6C260.026 84.664 258.65 85.864 257.05 85.864C255.45 85.864 254.09 84.648 254.09 82.584C254.09 80.52 255.45 79.352 257.05 79.352C258.65 79.352 260.026 80.568 260.026 82.6ZM263.959 87H265.415V78.232H263.959V87ZM264.711 76.808C265.239 76.808 265.671 76.376 265.671 75.816C265.671 75.256 265.239 74.824 264.711 74.824C264.151 74.824 263.719 75.256 263.719 75.816C263.719 76.376 264.151 76.808 264.711 76.808ZM274.2 84.616C274.136 81.48 269.048 82.616 269.048 80.536C269.048 79.832 269.688 79.32 270.76 79.32C271.928 79.32 272.6 79.96 272.664 80.84H274.12C274.024 79.128 272.744 78.088 270.808 78.088C268.856 78.088 267.592 79.192 267.592 80.536C267.592 83.8 272.776 82.664 272.776 84.616C272.776 85.336 272.136 85.912 270.984 85.912C269.752 85.912 269 85.272 268.92 84.424H267.416C267.512 86.024 268.952 87.144 271 87.144C272.936 87.144 274.2 86.056 274.2 84.616ZM276.575 84.6C276.575 86.36 277.455 87 279.007 87H280.319V85.768H279.247C278.351 85.768 278.031 85.464 278.031 84.6V79.432H280.319V78.232H278.031V76.024H276.575V78.232H275.439V79.432H276.575V84.6ZM282.084 87H283.54V78.232H282.084V87ZM282.836 76.808C283.364 76.808 283.796 76.376 283.796 75.816C283.796 75.256 283.364 74.824 282.836 74.824C282.276 74.824 281.844 75.256 281.844 75.816C281.844 76.376 282.276 76.808 282.836 76.808ZM292.437 87H293.877V81.832C293.877 79.32 292.325 78.072 290.293 78.072C289.109 78.072 288.053 78.568 287.477 79.48V78.232H286.021V87H287.477V82.152C287.477 80.264 288.501 79.336 289.989 79.336C291.461 79.336 292.437 80.248 292.437 82.04V87ZM295.711 82.584C295.711 85.304 297.519 87.144 299.871 87.144C301.471 87.144 302.607 86.296 303.135 85.352V87.192C303.135 89.064 301.967 90.056 300.415 90.056C298.975 90.056 297.935 89.336 297.615 88.28H296.175C296.463 90.152 298.111 91.32 300.415 91.32C302.991 91.32 304.607 89.608 304.607 87.192V78.232H303.135V79.832C302.623 78.888 301.471 78.088 299.871 78.088C297.519 78.088 295.711 79.848 295.711 82.584ZM303.135 82.6C303.135 84.664 301.759 85.864 300.159 85.864C298.559 85.864 297.199 84.648 297.199 82.584C297.199 80.52 298.559 79.352 300.159 79.352C301.759 79.352 303.135 80.568 303.135 82.6ZM314.844 78.232H313.388V83.048C313.388 84.936 312.38 85.864 310.876 85.864C309.404 85.864 308.428 84.952 308.428 83.176V78.232H306.988V83.368C306.988 85.88 308.572 87.128 310.588 87.128C311.756 87.128 312.828 86.616 313.388 85.704V87H314.844V78.232ZM317.302 87H318.758V78.232H317.302V87ZM318.054 76.808C318.582 76.808 319.014 76.376 319.014 75.816C319.014 75.256 318.582 74.824 318.054 74.824C317.494 74.824 317.062 75.256 317.062 75.816C317.062 76.376 317.494 76.808 318.054 76.808ZM327.544 84.616C327.48 81.48 322.392 82.616 322.392 80.536C322.392 79.832 323.032 79.32 324.104 79.32C325.272 79.32 325.944 79.96 326.008 80.84H327.464C327.368 79.128 326.088 78.088 324.152 78.088C322.2 78.088 320.936 79.192 320.936 80.536C320.936 83.8 326.12 82.664 326.12 84.616C326.12 85.336 325.48 85.912 324.328 85.912C323.096 85.912 322.344 85.272 322.264 84.424H320.76C320.856 86.024 322.296 87.144 324.344 87.144C326.28 87.144 327.544 86.056 327.544 84.616ZM329.599 87H331.055V82.152C331.055 80.264 332.079 79.336 333.567 79.336C335.039 79.336 336.015 80.248 336.015 82.04V87H337.455V81.832C337.455 79.32 335.903 78.072 333.951 78.072C332.719 78.072 331.631 78.568 331.055 79.496V75.16H329.599V87ZM351.875 78.232H350.419V83.048C350.419 84.936 349.411 85.864 347.907 85.864C346.435 85.864 345.459 84.952 345.459 83.176V78.232H344.019V83.368C344.019 85.88 345.603 87.128 347.619 87.128C348.787 87.128 349.859 86.616 350.419 85.704V87H351.875V78.232ZM360.638 84.616C360.574 81.48 355.486 82.616 355.486 80.536C355.486 79.832 356.126 79.32 357.198 79.32C358.366 79.32 359.038 79.96 359.102 80.84H360.558C360.462 79.128 359.182 78.088 357.246 78.088C355.294 78.088 354.03 79.192 354.03 80.536C354.03 83.8 359.214 82.664 359.214 84.616C359.214 85.336 358.574 85.912 357.422 85.912C356.19 85.912 355.438 85.272 355.358 84.424H353.854C353.95 86.024 355.39 87.144 357.438 87.144C359.374 87.144 360.638 86.056 360.638 84.616ZM366.415 82.584C366.415 85.304 368.223 87.144 370.559 87.144C372.175 87.144 373.311 86.312 373.839 85.368V87H375.311V78.232H373.839V79.832C373.327 78.92 372.207 78.088 370.575 78.088C368.223 78.088 366.415 79.848 366.415 82.584ZM373.839 82.6C373.839 84.664 372.463 85.864 370.863 85.864C369.263 85.864 367.903 84.648 367.903 82.584C367.903 80.52 369.263 79.352 370.863 79.352C372.463 79.352 373.839 80.568 373.839 82.6ZM384.075 84.616C384.011 81.48 378.923 82.616 378.923 80.536C378.923 79.832 379.563 79.32 380.635 79.32C381.803 79.32 382.475 79.96 382.539 80.84H383.995C383.899 79.128 382.619 78.088 380.683 78.088C378.731 78.088 377.467 79.192 377.467 80.536C377.467 83.8 382.651 82.664 382.651 84.616C382.651 85.336 382.011 85.912 380.859 85.912C379.627 85.912 378.875 85.272 378.795 84.424H377.291C377.387 86.024 378.827 87.144 380.875 87.144C382.811 87.144 384.075 86.056 384.075 84.616ZM389.852 82.584C389.852 85.304 391.66 87.144 393.996 87.144C395.612 87.144 396.748 86.312 397.276 85.368V87H398.748V78.232H397.276V79.832C396.764 78.92 395.644 78.088 394.012 78.088C391.66 78.088 389.852 79.848 389.852 82.584ZM397.276 82.6C397.276 84.664 395.9 85.864 394.3 85.864C392.7 85.864 391.34 84.648 391.34 82.584C391.34 80.52 392.7 79.352 394.3 79.352C395.9 79.352 397.276 80.568 397.276 82.6ZM404.93 82.6C404.93 85.384 406.706 87.144 409.202 87.144C411.378 87.144 412.802 85.928 413.25 84.184H411.682C411.362 85.288 410.498 85.912 409.202 85.912C407.602 85.912 406.418 84.776 406.418 82.6C406.418 80.456 407.602 79.32 409.202 79.32C410.498 79.32 411.378 79.992 411.682 81.048H413.25C412.802 79.208 411.378 78.088 409.202 78.088C406.706 78.088 404.93 79.848 404.93 82.6ZM423.513 82.6C423.513 79.832 421.577 78.088 419.081 78.088C416.601 78.088 414.649 79.832 414.649 82.6C414.649 85.384 416.537 87.144 419.017 87.144C421.513 87.144 423.513 85.384 423.513 82.6ZM416.137 82.6C416.137 80.392 417.529 79.352 419.065 79.352C420.569 79.352 422.025 80.392 422.025 82.6C422.025 84.824 420.537 85.864 419.017 85.864C417.497 85.864 416.137 84.824 416.137 82.6ZM438.083 87H439.523V81.832C439.523 79.32 437.971 78.072 435.971 78.072C434.627 78.072 433.379 78.76 432.867 80.024C432.291 78.712 431.091 78.072 429.651 78.072C428.499 78.072 427.459 78.568 426.883 79.496V78.232H425.427V87H426.883V82.168C426.883 80.28 427.891 79.336 429.363 79.336C430.803 79.336 431.763 80.248 431.763 82.04V87H433.203V82.168C433.203 80.28 434.211 79.336 435.683 79.336C437.123 79.336 438.083 80.248 438.083 82.04V87ZM443.368 79.848V78.232H441.912V91.16H443.368V85.384C443.912 86.28 445.048 87.144 446.648 87.144C449 87.144 450.808 85.304 450.808 82.584C450.808 79.848 449 78.088 446.648 78.088C445.048 78.088 443.896 78.92 443.368 79.848ZM449.32 82.584C449.32 84.648 447.96 85.864 446.344 85.864C444.76 85.864 443.368 84.664 443.368 82.6C443.368 80.568 444.76 79.352 446.344 79.352C447.96 79.352 449.32 80.52 449.32 82.584ZM452.18 82.584C452.18 85.304 453.988 87.144 456.324 87.144C457.94 87.144 459.076 86.312 459.604 85.368V87H461.076V78.232H459.604V79.832C459.092 78.92 457.972 78.088 456.34 78.088C453.988 78.088 452.18 79.848 452.18 82.584ZM459.604 82.6C459.604 84.664 458.228 85.864 456.628 85.864C455.028 85.864 453.668 84.648 453.668 82.584C453.668 80.52 455.028 79.352 456.628 79.352C458.228 79.352 459.604 80.568 459.604 82.6ZM469.953 87H471.393V81.832C471.393 79.32 469.841 78.072 467.809 78.072C466.625 78.072 465.569 78.568 464.993 79.48V78.232H463.537V87H464.993V82.152C464.993 80.264 466.017 79.336 467.505 79.336C468.977 79.336 469.953 80.248 469.953 82.04V87ZM477.099 85.336L474.347 78.232H472.731L476.267 86.904L474.539 91.128H476.043L481.323 78.232H479.819L477.099 85.336Z" fill="#0F001A"/>
</svg>
