<svg width="925" height="416" viewBox="0 0 925 416" fill="none" xmlns="http://www.w3.org/2000/svg">
<g filter="url(#filter0_d)">
<rect x="15" y="10" width="187" height="163" rx="32" fill="white"/>
</g>
<path d="M74.2188 132H72.7188V120.625H74.2188V132ZM78.1094 123.547L78.1562 124.609C78.8021 123.797 79.6458 123.391 80.6875 123.391C82.474 123.391 83.375 124.398 83.3906 126.414V132H81.9453V126.406C81.9401 125.797 81.7995 125.346 81.5234 125.055C81.2526 124.763 80.8281 124.617 80.25 124.617C79.7812 124.617 79.3698 124.742 79.0156 124.992C78.6615 125.242 78.3854 125.57 78.1875 125.977V132H76.7422V123.547H78.1094ZM86.9375 123.547L86.9844 124.609C87.6302 123.797 88.474 123.391 89.5156 123.391C91.3021 123.391 92.2031 124.398 92.2188 126.414V132H90.7734V126.406C90.7682 125.797 90.6276 125.346 90.3516 125.055C90.0807 124.763 89.6562 124.617 89.0781 124.617C88.6094 124.617 88.1979 124.742 87.8438 124.992C87.4896 125.242 87.2135 125.57 87.0156 125.977V132H85.5703V123.547H86.9375ZM94.0156 127.695C94.0156 126.867 94.1771 126.122 94.5 125.461C94.8281 124.799 95.2812 124.289 95.8594 123.93C96.4427 123.57 97.1068 123.391 97.8516 123.391C99.0026 123.391 99.9323 123.789 100.641 124.586C101.354 125.383 101.711 126.443 101.711 127.766V127.867C101.711 128.69 101.552 129.43 101.234 130.086C100.922 130.737 100.471 131.245 99.8828 131.609C99.2995 131.974 98.6276 132.156 97.8672 132.156C96.7214 132.156 95.7917 131.758 95.0781 130.961C94.3698 130.164 94.0156 129.109 94.0156 127.797V127.695ZM95.4688 127.867C95.4688 128.805 95.6849 129.557 96.1172 130.125C96.5547 130.693 97.138 130.977 97.8672 130.977C98.6016 130.977 99.1849 130.69 99.6172 130.117C100.049 129.539 100.266 128.732 100.266 127.695C100.266 126.768 100.044 126.018 99.6016 125.445C99.1641 124.867 98.5807 124.578 97.8516 124.578C97.138 124.578 96.5625 124.862 96.125 125.43C95.6875 125.997 95.4688 126.81 95.4688 127.867ZM106.188 130.039L108.281 123.547H109.758L106.727 132H105.625L102.562 123.547H104.039L106.188 130.039ZM116.242 132C116.159 131.833 116.091 131.536 116.039 131.109C115.367 131.807 114.565 132.156 113.633 132.156C112.799 132.156 112.115 131.922 111.578 131.453C111.047 130.979 110.781 130.38 110.781 129.656C110.781 128.776 111.115 128.094 111.781 127.609C112.453 127.12 113.396 126.875 114.609 126.875H116.016V126.211C116.016 125.706 115.865 125.305 115.562 125.008C115.26 124.706 114.815 124.555 114.227 124.555C113.711 124.555 113.279 124.685 112.93 124.945C112.581 125.206 112.406 125.521 112.406 125.891H110.953C110.953 125.469 111.102 125.062 111.398 124.672C111.701 124.276 112.107 123.964 112.617 123.734C113.133 123.505 113.698 123.391 114.312 123.391C115.286 123.391 116.049 123.635 116.602 124.125C117.154 124.609 117.44 125.279 117.461 126.133V130.023C117.461 130.799 117.56 131.417 117.758 131.875V132H116.242ZM113.844 130.898C114.297 130.898 114.727 130.781 115.133 130.547C115.539 130.312 115.833 130.008 116.016 129.633V127.898H114.883C113.112 127.898 112.227 128.417 112.227 129.453C112.227 129.906 112.378 130.26 112.68 130.516C112.982 130.771 113.37 130.898 113.844 130.898ZM121.688 121.5V123.547H123.266V124.664H121.688V129.906C121.688 130.245 121.758 130.5 121.898 130.672C122.039 130.839 122.279 130.922 122.617 130.922C122.784 130.922 123.013 130.891 123.305 130.828V132C122.924 132.104 122.555 132.156 122.195 132.156C121.549 132.156 121.062 131.961 120.734 131.57C120.406 131.18 120.242 130.625 120.242 129.906V124.664H118.703V123.547H120.242V121.5H121.688ZM126.531 132H125.086V123.547H126.531V132ZM124.969 121.305C124.969 121.07 125.039 120.872 125.18 120.711C125.326 120.549 125.539 120.469 125.82 120.469C126.102 120.469 126.315 120.549 126.461 120.711C126.607 120.872 126.68 121.07 126.68 121.305C126.68 121.539 126.607 121.734 126.461 121.891C126.315 122.047 126.102 122.125 125.82 122.125C125.539 122.125 125.326 122.047 125.18 121.891C125.039 121.734 124.969 121.539 124.969 121.305ZM128.469 127.695C128.469 126.867 128.63 126.122 128.953 125.461C129.281 124.799 129.734 124.289 130.312 123.93C130.896 123.57 131.56 123.391 132.305 123.391C133.456 123.391 134.385 123.789 135.094 124.586C135.807 125.383 136.164 126.443 136.164 127.766V127.867C136.164 128.69 136.005 129.43 135.688 130.086C135.375 130.737 134.924 131.245 134.336 131.609C133.753 131.974 133.081 132.156 132.32 132.156C131.174 132.156 130.245 131.758 129.531 130.961C128.823 130.164 128.469 129.109 128.469 127.797V127.695ZM129.922 127.867C129.922 128.805 130.138 129.557 130.57 130.125C131.008 130.693 131.591 130.977 132.32 130.977C133.055 130.977 133.638 130.69 134.07 130.117C134.503 129.539 134.719 128.732 134.719 127.695C134.719 126.768 134.497 126.018 134.055 125.445C133.617 124.867 133.034 124.578 132.305 124.578C131.591 124.578 131.016 124.862 130.578 125.43C130.141 125.997 129.922 126.81 129.922 127.867ZM139.344 123.547L139.391 124.609C140.036 123.797 140.88 123.391 141.922 123.391C143.708 123.391 144.609 124.398 144.625 126.414V132H143.18V126.406C143.174 125.797 143.034 125.346 142.758 125.055C142.487 124.763 142.062 124.617 141.484 124.617C141.016 124.617 140.604 124.742 140.25 124.992C139.896 125.242 139.62 125.57 139.422 125.977V132H137.977V123.547H139.344Z" fill="#2B334E"/>
<path fill-rule="evenodd" clip-rule="evenodd" d="M111.083 46.4165C111.083 47.5686 110.15 48.4998 109 48.4998C107.85 48.4998 106.917 47.5686 106.917 46.4165V42.2498C106.917 41.0978 107.85 40.1665 109 40.1665C110.15 40.1665 111.083 41.0978 111.083 42.2498V46.4165ZM111.083 68.208C111.083 67.4642 111.481 66.7746 112.127 66.4017C114.054 65.2955 115.25 63.2246 115.25 60.9996C115.25 57.5538 112.446 54.7496 109 54.7496C105.554 54.7496 102.75 57.5538 102.75 60.9996C102.75 63.2246 103.946 65.2955 105.873 66.4017C106.519 66.7746 106.917 67.4642 106.917 68.208V77.6663H111.083V68.208ZM98.5832 60.9996C98.5832 55.2559 103.256 50.583 109 50.583C114.744 50.583 119.417 55.2559 119.417 60.9996C119.417 64.2892 117.846 67.3788 115.25 69.3246V77.6663C115.25 79.9642 113.381 81.833 111.083 81.833H106.917C104.619 81.833 102.75 79.9642 102.75 77.6663V69.3246C100.152 67.3788 98.5832 64.2892 98.5832 60.9996ZM127.75 58.9165H123.583C122.431 58.9165 121.5 59.8478 121.5 60.9998C121.5 62.1519 122.431 63.0832 123.583 63.0832H127.75C128.902 63.0832 129.833 62.1519 129.833 60.9998C129.833 59.8478 128.902 58.9165 127.75 58.9165ZM90.2498 58.9165H94.4165C95.5665 58.9165 96.4998 59.8478 96.4998 60.9998C96.4998 62.1519 95.5665 63.0832 94.4165 63.0832H90.2498C89.0998 63.0832 88.1665 62.1519 88.1665 60.9998C88.1665 59.8478 89.0998 58.9165 90.2498 58.9165ZM99.9575 49.3704L96.9596 46.4745C96.1325 45.6766 94.8158 45.7016 94.0137 46.5287C93.2137 47.3537 93.2367 48.6745 94.0637 49.4745L97.0617 52.3683C97.4679 52.76 97.9887 52.9537 98.5096 52.9537C99.0554 52.9537 99.5992 52.7391 100.007 52.3162C100.807 51.4912 100.785 50.1704 99.9575 49.3704ZM121.04 46.4779C121.865 45.68 123.19 45.7029 123.984 46.5279C124.784 47.3529 124.761 48.6738 123.934 49.4717L120.936 52.3675C120.534 52.7571 120.011 52.9529 119.49 52.9529C118.944 52.9529 118.399 52.7384 117.992 52.3154C117.192 51.4904 117.215 50.1696 118.042 49.3717L121.04 46.4779Z" fill="#FF5364"/>
<mask id="mask0" mask-type="alpha" maskUnits="userSpaceOnUse" x="88" y="40" width="42" height="42">
<path fill-rule="evenodd" clip-rule="evenodd" d="M111.083 46.4165C111.083 47.5686 110.15 48.4998 109 48.4998C107.85 48.4998 106.917 47.5686 106.917 46.4165V42.2498C106.917 41.0978 107.85 40.1665 109 40.1665C110.15 40.1665 111.083 41.0978 111.083 42.2498V46.4165ZM111.083 68.208C111.083 67.4642 111.481 66.7746 112.127 66.4017C114.054 65.2955 115.25 63.2246 115.25 60.9996C115.25 57.5538 112.446 54.7496 109 54.7496C105.554 54.7496 102.75 57.5538 102.75 60.9996C102.75 63.2246 103.946 65.2955 105.873 66.4017C106.519 66.7746 106.917 67.4642 106.917 68.208V77.6663H111.083V68.208ZM98.5832 60.9996C98.5832 55.2559 103.256 50.583 109 50.583C114.744 50.583 119.417 55.2559 119.417 60.9996C119.417 64.2892 117.846 67.3788 115.25 69.3246V77.6663C115.25 79.9642 113.381 81.833 111.083 81.833H106.917C104.619 81.833 102.75 79.9642 102.75 77.6663V69.3246C100.152 67.3788 98.5832 64.2892 98.5832 60.9996ZM127.75 58.9165H123.583C122.431 58.9165 121.5 59.8478 121.5 60.9998C121.5 62.1519 122.431 63.0832 123.583 63.0832H127.75C128.902 63.0832 129.833 62.1519 129.833 60.9998C129.833 59.8478 128.902 58.9165 127.75 58.9165ZM90.2498 58.9165H94.4165C95.5665 58.9165 96.4998 59.8478 96.4998 60.9998C96.4998 62.1519 95.5665 63.0832 94.4165 63.0832H90.2498C89.0998 63.0832 88.1665 62.1519 88.1665 60.9998C88.1665 59.8478 89.0998 58.9165 90.2498 58.9165ZM99.9575 49.3704L96.9596 46.4745C96.1325 45.6766 94.8158 45.7016 94.0137 46.5287C93.2137 47.3537 93.2367 48.6745 94.0637 49.4745L97.0617 52.3683C97.4679 52.76 97.9887 52.9537 98.5096 52.9537C99.0554 52.9537 99.5992 52.7391 100.007 52.3162C100.807 51.4912 100.785 50.1704 99.9575 49.3704ZM121.04 46.4779C121.865 45.68 123.19 45.7029 123.984 46.5279C124.784 47.3529 124.761 48.6738 123.934 49.4717L120.936 52.3675C120.534 52.7571 120.011 52.9529 119.49 52.9529C118.944 52.9529 118.399 52.7384 117.992 52.3154C117.192 51.4904 117.215 50.1696 118.042 49.3717L121.04 46.4779Z" fill="white"/>
</mask>
<g mask="url(#mask0)">
<rect x="84" y="36" width="50" height="50" fill="#FF5364"/>
</g>
<g filter="url(#filter1_d)">
<rect x="15" y="232.428" width="187" height="163" rx="32" fill="white"/>
</g>
<path d="M69.6484 344.287H65.9922V354.428H64.5V344.287H60.8516V343.053H69.6484V344.287ZM74.6016 347.271C74.3828 347.235 74.1458 347.217 73.8906 347.217C72.9427 347.217 72.2995 347.62 71.9609 348.428V354.428H70.5156V345.975H71.9219L71.9453 346.951C72.4193 346.196 73.0911 345.818 73.9609 345.818C74.2422 345.818 74.4557 345.855 74.6016 345.928V347.271ZM80.8438 354.428C80.7604 354.261 80.6927 353.964 80.6406 353.537C79.9688 354.235 79.1667 354.584 78.2344 354.584C77.401 354.584 76.7161 354.35 76.1797 353.881C75.6484 353.407 75.3828 352.808 75.3828 352.084C75.3828 351.204 75.7161 350.521 76.3828 350.037C77.0547 349.548 77.9974 349.303 79.2109 349.303H80.6172V348.639C80.6172 348.133 80.4661 347.732 80.1641 347.436C79.862 347.133 79.4167 346.982 78.8281 346.982C78.3125 346.982 77.8802 347.113 77.5312 347.373C77.1823 347.633 77.0078 347.949 77.0078 348.318H75.5547C75.5547 347.896 75.7031 347.49 76 347.1C76.3021 346.704 76.7083 346.391 77.2188 346.162C77.7344 345.933 78.2995 345.818 78.9141 345.818C79.888 345.818 80.651 346.063 81.2031 346.553C81.7552 347.037 82.0417 347.706 82.0625 348.561V352.451C82.0625 353.227 82.1615 353.844 82.3594 354.303V354.428H80.8438ZM78.4453 353.326C78.8984 353.326 79.3281 353.209 79.7344 352.975C80.1406 352.74 80.4349 352.436 80.6172 352.061V350.326H79.4844C77.7135 350.326 76.8281 350.844 76.8281 351.881C76.8281 352.334 76.9792 352.688 77.2812 352.943C77.5833 353.199 77.9714 353.326 78.4453 353.326ZM85.6953 345.975L85.7422 347.037C86.388 346.225 87.2318 345.818 88.2734 345.818C90.0599 345.818 90.9609 346.826 90.9766 348.842V354.428H89.5312V348.834C89.526 348.225 89.3854 347.774 89.1094 347.482C88.8385 347.191 88.4141 347.045 87.8359 347.045C87.3672 347.045 86.9557 347.17 86.6016 347.42C86.2474 347.67 85.9714 347.998 85.7734 348.404V354.428H84.3281V345.975H85.6953ZM98.0781 352.186C98.0781 351.795 97.9297 351.493 97.6328 351.279C97.3411 351.061 96.8281 350.873 96.0938 350.717C95.3646 350.561 94.7839 350.373 94.3516 350.154C93.9245 349.936 93.6068 349.675 93.3984 349.373C93.1953 349.071 93.0938 348.712 93.0938 348.295C93.0938 347.602 93.3854 347.016 93.9688 346.537C94.5573 346.058 95.3073 345.818 96.2188 345.818C97.1771 345.818 97.9531 346.066 98.5469 346.561C99.1458 347.055 99.4453 347.688 99.4453 348.459H97.9922C97.9922 348.063 97.8229 347.722 97.4844 347.436C97.151 347.149 96.7292 347.006 96.2188 347.006C95.6927 347.006 95.2812 347.12 94.9844 347.35C94.6875 347.579 94.5391 347.878 94.5391 348.248C94.5391 348.597 94.6771 348.86 94.9531 349.037C95.2292 349.214 95.7266 349.383 96.4453 349.545C97.1693 349.706 97.7552 349.899 98.2031 350.123C98.651 350.347 98.9818 350.618 99.1953 350.936C99.4141 351.248 99.5234 351.631 99.5234 352.084C99.5234 352.839 99.2214 353.446 98.6172 353.904C98.013 354.357 97.2292 354.584 96.2656 354.584C95.5885 354.584 94.9896 354.464 94.4688 354.225C93.9479 353.985 93.5391 353.652 93.2422 353.225C92.9505 352.792 92.8047 352.326 92.8047 351.826H94.25C94.276 352.311 94.4688 352.696 94.8281 352.982C95.1927 353.264 95.6719 353.404 96.2656 353.404C96.8125 353.404 97.25 353.295 97.5781 353.076C97.9115 352.852 98.0781 352.555 98.0781 352.186ZM108.547 350.295C108.547 351.581 108.253 352.618 107.664 353.404C107.076 354.191 106.279 354.584 105.273 354.584C104.247 354.584 103.44 354.258 102.852 353.607V357.678H101.406V345.975H102.727L102.797 346.912C103.385 346.183 104.203 345.818 105.25 345.818C106.266 345.818 107.068 346.201 107.656 346.967C108.25 347.732 108.547 348.798 108.547 350.162V350.295ZM107.102 350.131C107.102 349.178 106.898 348.425 106.492 347.873C106.086 347.321 105.529 347.045 104.82 347.045C103.945 347.045 103.289 347.433 102.852 348.209V352.248C103.284 353.019 103.945 353.404 104.836 353.404C105.529 353.404 106.078 353.131 106.484 352.584C106.896 352.032 107.102 351.214 107.102 350.131ZM115.609 354.428C115.526 354.261 115.458 353.964 115.406 353.537C114.734 354.235 113.932 354.584 113 354.584C112.167 354.584 111.482 354.35 110.945 353.881C110.414 353.407 110.148 352.808 110.148 352.084C110.148 351.204 110.482 350.521 111.148 350.037C111.82 349.548 112.763 349.303 113.977 349.303H115.383V348.639C115.383 348.133 115.232 347.732 114.93 347.436C114.628 347.133 114.182 346.982 113.594 346.982C113.078 346.982 112.646 347.113 112.297 347.373C111.948 347.633 111.773 347.949 111.773 348.318H110.32C110.32 347.896 110.469 347.49 110.766 347.1C111.068 346.704 111.474 346.391 111.984 346.162C112.5 345.933 113.065 345.818 113.68 345.818C114.654 345.818 115.417 346.063 115.969 346.553C116.521 347.037 116.807 347.706 116.828 348.561V352.451C116.828 353.227 116.927 353.844 117.125 354.303V354.428H115.609ZM113.211 353.326C113.664 353.326 114.094 353.209 114.5 352.975C114.906 352.74 115.201 352.436 115.383 352.061V350.326H114.25C112.479 350.326 111.594 350.844 111.594 351.881C111.594 352.334 111.745 352.688 112.047 352.943C112.349 353.199 112.737 353.326 113.211 353.326ZM123.18 347.271C122.961 347.235 122.724 347.217 122.469 347.217C121.521 347.217 120.878 347.62 120.539 348.428V354.428H119.094V345.975H120.5L120.523 346.951C120.997 346.196 121.669 345.818 122.539 345.818C122.82 345.818 123.034 345.855 123.18 345.928V347.271ZM127.867 354.584C126.721 354.584 125.789 354.209 125.07 353.459C124.352 352.704 123.992 351.696 123.992 350.436V350.17C123.992 349.331 124.151 348.584 124.469 347.928C124.792 347.266 125.24 346.751 125.812 346.381C126.391 346.006 127.016 345.818 127.688 345.818C128.786 345.818 129.641 346.18 130.25 346.904C130.859 347.628 131.164 348.665 131.164 350.014V350.615H125.438C125.458 351.449 125.701 352.123 126.164 352.639C126.633 353.149 127.227 353.404 127.945 353.404C128.456 353.404 128.888 353.3 129.242 353.092C129.596 352.883 129.906 352.607 130.172 352.264L131.055 352.951C130.346 354.04 129.284 354.584 127.867 354.584ZM127.688 347.006C127.104 347.006 126.615 347.219 126.219 347.646C125.823 348.068 125.578 348.662 125.484 349.428H129.719V349.318C129.677 348.584 129.479 348.016 129.125 347.615C128.771 347.209 128.292 347.006 127.688 347.006ZM134.211 345.975L134.258 347.037C134.904 346.225 135.747 345.818 136.789 345.818C138.576 345.818 139.477 346.826 139.492 348.842V354.428H138.047V348.834C138.042 348.225 137.901 347.774 137.625 347.482C137.354 347.191 136.93 347.045 136.352 347.045C135.883 347.045 135.471 347.17 135.117 347.42C134.763 347.67 134.487 347.998 134.289 348.404V354.428H132.844V345.975H134.211ZM145.062 353.404C145.578 353.404 146.029 353.248 146.414 352.936C146.799 352.623 147.013 352.232 147.055 351.764H148.422C148.396 352.248 148.229 352.709 147.922 353.146C147.615 353.584 147.203 353.933 146.688 354.193C146.177 354.454 145.635 354.584 145.062 354.584C143.911 354.584 142.995 354.201 142.312 353.436C141.635 352.665 141.297 351.613 141.297 350.279V350.037C141.297 349.214 141.448 348.482 141.75 347.842C142.052 347.201 142.484 346.704 143.047 346.35C143.615 345.995 144.284 345.818 145.055 345.818C146.003 345.818 146.789 346.102 147.414 346.67C148.044 347.238 148.38 347.975 148.422 348.881H147.055C147.013 348.334 146.805 347.886 146.43 347.537C146.06 347.183 145.602 347.006 145.055 347.006C144.32 347.006 143.75 347.271 143.344 347.803C142.943 348.329 142.742 349.092 142.742 350.092V350.365C142.742 351.339 142.943 352.089 143.344 352.615C143.745 353.141 144.318 353.404 145.062 353.404ZM152.812 352.311L154.781 345.975H156.328L152.93 355.732C152.404 357.139 151.568 357.842 150.422 357.842L150.148 357.818L149.609 357.717V356.545L150 356.576C150.49 356.576 150.87 356.477 151.141 356.279C151.417 356.081 151.643 355.719 151.82 355.193L152.141 354.334L149.125 345.975H150.703L152.812 352.311Z" fill="#2B334E"/>
<g filter="url(#filter2_d)">
<rect x="251" y="10" width="187" height="163" rx="32" fill="white"/>
</g>
<path d="M314.406 126.742H309.477V130.773H315.203V132H307.977V120.625H315.125V121.859H309.477V125.516H314.406V126.742ZM319.68 126.633L321.555 123.547H323.242L320.477 127.727L323.328 132H321.656L319.703 128.836L317.75 132H316.07L318.922 127.727L316.156 123.547H317.828L319.68 126.633ZM328.016 130.977C328.531 130.977 328.982 130.82 329.367 130.508C329.753 130.195 329.966 129.805 330.008 129.336H331.375C331.349 129.82 331.182 130.281 330.875 130.719C330.568 131.156 330.156 131.505 329.641 131.766C329.13 132.026 328.589 132.156 328.016 132.156C326.865 132.156 325.948 131.773 325.266 131.008C324.589 130.237 324.25 129.185 324.25 127.852V127.609C324.25 126.786 324.401 126.055 324.703 125.414C325.005 124.773 325.438 124.276 326 123.922C326.568 123.568 327.237 123.391 328.008 123.391C328.956 123.391 329.742 123.674 330.367 124.242C330.997 124.81 331.333 125.547 331.375 126.453H330.008C329.966 125.906 329.758 125.458 329.383 125.109C329.013 124.755 328.555 124.578 328.008 124.578C327.273 124.578 326.703 124.844 326.297 125.375C325.896 125.901 325.695 126.664 325.695 127.664V127.938C325.695 128.911 325.896 129.661 326.297 130.188C326.698 130.714 327.271 130.977 328.016 130.977ZM336.508 132.156C335.362 132.156 334.43 131.781 333.711 131.031C332.992 130.276 332.633 129.268 332.633 128.008V127.742C332.633 126.904 332.792 126.156 333.109 125.5C333.432 124.839 333.88 124.323 334.453 123.953C335.031 123.578 335.656 123.391 336.328 123.391C337.427 123.391 338.281 123.753 338.891 124.477C339.5 125.201 339.805 126.237 339.805 127.586V128.188H334.078C334.099 129.021 334.341 129.695 334.805 130.211C335.273 130.721 335.867 130.977 336.586 130.977C337.096 130.977 337.529 130.872 337.883 130.664C338.237 130.456 338.547 130.18 338.812 129.836L339.695 130.523C338.987 131.612 337.924 132.156 336.508 132.156ZM336.328 124.578C335.745 124.578 335.255 124.792 334.859 125.219C334.464 125.641 334.219 126.234 334.125 127H338.359V126.891C338.318 126.156 338.12 125.589 337.766 125.188C337.411 124.781 336.932 124.578 336.328 124.578ZM343.055 132H341.609V120H343.055V132ZM346.945 132H345.5V120H346.945V132ZM352.773 132.156C351.628 132.156 350.695 131.781 349.977 131.031C349.258 130.276 348.898 129.268 348.898 128.008V127.742C348.898 126.904 349.057 126.156 349.375 125.5C349.698 124.839 350.146 124.323 350.719 123.953C351.297 123.578 351.922 123.391 352.594 123.391C353.693 123.391 354.547 123.753 355.156 124.477C355.766 125.201 356.07 126.237 356.07 127.586V128.188H350.344C350.365 129.021 350.607 129.695 351.07 130.211C351.539 130.721 352.133 130.977 352.852 130.977C353.362 130.977 353.794 130.872 354.148 130.664C354.503 130.456 354.812 130.18 355.078 129.836L355.961 130.523C355.253 131.612 354.19 132.156 352.773 132.156ZM352.594 124.578C352.01 124.578 351.521 124.792 351.125 125.219C350.729 125.641 350.484 126.234 350.391 127H354.625V126.891C354.583 126.156 354.385 125.589 354.031 125.188C353.677 124.781 353.198 124.578 352.594 124.578ZM359.117 123.547L359.164 124.609C359.81 123.797 360.654 123.391 361.695 123.391C363.482 123.391 364.383 124.398 364.398 126.414V132H362.953V126.406C362.948 125.797 362.807 125.346 362.531 125.055C362.26 124.763 361.836 124.617 361.258 124.617C360.789 124.617 360.378 124.742 360.023 124.992C359.669 125.242 359.393 125.57 359.195 125.977V132H357.75V123.547H359.117ZM369.969 130.977C370.484 130.977 370.935 130.82 371.32 130.508C371.706 130.195 371.919 129.805 371.961 129.336H373.328C373.302 129.82 373.135 130.281 372.828 130.719C372.521 131.156 372.109 131.505 371.594 131.766C371.083 132.026 370.542 132.156 369.969 132.156C368.818 132.156 367.901 131.773 367.219 131.008C366.542 130.237 366.203 129.185 366.203 127.852V127.609C366.203 126.786 366.354 126.055 366.656 125.414C366.958 124.773 367.391 124.276 367.953 123.922C368.521 123.568 369.19 123.391 369.961 123.391C370.909 123.391 371.695 123.674 372.32 124.242C372.951 124.81 373.286 125.547 373.328 126.453H371.961C371.919 125.906 371.711 125.458 371.336 125.109C370.966 124.755 370.508 124.578 369.961 124.578C369.227 124.578 368.656 124.844 368.25 125.375C367.849 125.901 367.648 126.664 367.648 127.664V127.938C367.648 128.911 367.849 129.661 368.25 130.188C368.651 130.714 369.224 130.977 369.969 130.977ZM378.461 132.156C377.315 132.156 376.383 131.781 375.664 131.031C374.945 130.276 374.586 129.268 374.586 128.008V127.742C374.586 126.904 374.745 126.156 375.062 125.5C375.385 124.839 375.833 124.323 376.406 123.953C376.984 123.578 377.609 123.391 378.281 123.391C379.38 123.391 380.234 123.753 380.844 124.477C381.453 125.201 381.758 126.237 381.758 127.586V128.188H376.031C376.052 129.021 376.294 129.695 376.758 130.211C377.227 130.721 377.82 130.977 378.539 130.977C379.049 130.977 379.482 130.872 379.836 130.664C380.19 130.456 380.5 130.18 380.766 129.836L381.648 130.523C380.94 131.612 379.878 132.156 378.461 132.156ZM378.281 124.578C377.698 124.578 377.208 124.792 376.812 125.219C376.417 125.641 376.172 126.234 376.078 127H380.312V126.891C380.271 126.156 380.073 125.589 379.719 125.188C379.365 124.781 378.885 124.578 378.281 124.578Z" fill="#2B334E"/>
<path fill-rule="evenodd" clip-rule="evenodd" d="M345.637 70.806C344.989 70.4498 344.205 70.456 343.574 70.8331L335.766 75.4165L338.824 63.5206C340.647 64.5623 342.753 65.1665 344.999 65.1665C347.245 65.1665 349.351 64.5623 351.176 63.5206L354.278 75.5873L345.637 70.806ZM344.999 44.3332C349.595 44.3332 353.333 48.0707 353.333 52.6665C353.333 57.2623 349.595 60.9998 344.999 60.9998C340.403 60.9998 336.666 57.2623 336.666 52.6665C336.666 48.0707 340.403 44.3332 344.999 44.3332ZM359.518 79.2311L354.708 60.5248C356.449 58.3748 357.499 55.6436 357.499 52.6665C357.499 45.7728 351.893 40.1665 344.999 40.1665C338.108 40.1665 332.499 45.7728 332.499 52.6665C332.499 55.6436 333.549 58.3748 335.291 60.5248L330.483 79.2311C330.272 80.0478 330.574 80.9082 331.247 81.4144C331.918 81.9207 332.83 81.9665 333.553 81.5457L344.658 75.0269L356.491 81.5728C356.805 81.7478 357.153 81.8332 357.499 81.8332C357.951 81.8332 358.401 81.6873 358.776 81.3978C359.433 80.8894 359.726 80.0373 359.518 79.2311Z" fill="#FF5364"/>
<mask id="mask1" mask-type="alpha" maskUnits="userSpaceOnUse" x="330" y="40" width="30" height="42">
<path fill-rule="evenodd" clip-rule="evenodd" d="M345.637 70.806C344.989 70.4498 344.205 70.456 343.574 70.8331L335.766 75.4165L338.824 63.5206C340.647 64.5623 342.753 65.1665 344.999 65.1665C347.245 65.1665 349.351 64.5623 351.176 63.5206L354.278 75.5873L345.637 70.806ZM344.999 44.3332C349.595 44.3332 353.333 48.0707 353.333 52.6665C353.333 57.2623 349.595 60.9998 344.999 60.9998C340.403 60.9998 336.666 57.2623 336.666 52.6665C336.666 48.0707 340.403 44.3332 344.999 44.3332ZM359.518 79.2311L354.708 60.5248C356.449 58.3748 357.499 55.6436 357.499 52.6665C357.499 45.7728 351.893 40.1665 344.999 40.1665C338.108 40.1665 332.499 45.7728 332.499 52.6665C332.499 55.6436 333.549 58.3748 335.291 60.5248L330.483 79.2311C330.272 80.0478 330.574 80.9082 331.247 81.4144C331.918 81.9207 332.83 81.9665 333.553 81.5457L344.658 75.0269L356.491 81.5728C356.805 81.7478 357.153 81.8332 357.499 81.8332C357.951 81.8332 358.401 81.6873 358.776 81.3978C359.433 80.8894 359.726 80.0373 359.518 79.2311Z" fill="white"/>
</mask>
<g mask="url(#mask1)">
<rect x="320" y="36" width="50" height="50" fill="#FF5364"/>
</g>
<g filter="url(#filter3_d)">
<rect x="251" y="232.428" width="187" height="163" rx="32" fill="white"/>
</g>
<path d="M316.344 344.287H312.688V354.428H311.195V344.287H307.547V343.053H316.344V344.287ZM320.531 354.584C319.385 354.584 318.453 354.209 317.734 353.459C317.016 352.704 316.656 351.696 316.656 350.436V350.17C316.656 349.331 316.815 348.584 317.133 347.928C317.456 347.266 317.904 346.751 318.477 346.381C319.055 346.006 319.68 345.818 320.352 345.818C321.451 345.818 322.305 346.18 322.914 346.904C323.523 347.628 323.828 348.665 323.828 350.014V350.615H318.102C318.122 351.449 318.365 352.123 318.828 352.639C319.297 353.149 319.891 353.404 320.609 353.404C321.12 353.404 321.552 353.3 321.906 353.092C322.26 352.883 322.57 352.607 322.836 352.264L323.719 352.951C323.01 354.04 321.948 354.584 320.531 354.584ZM320.352 347.006C319.768 347.006 319.279 347.219 318.883 347.646C318.487 348.068 318.242 348.662 318.148 349.428H322.383V349.318C322.341 348.584 322.143 348.016 321.789 347.615C321.435 347.209 320.956 347.006 320.352 347.006ZM330.727 354.428C330.643 354.261 330.576 353.964 330.523 353.537C329.852 354.235 329.049 354.584 328.117 354.584C327.284 354.584 326.599 354.35 326.062 353.881C325.531 353.407 325.266 352.808 325.266 352.084C325.266 351.204 325.599 350.521 326.266 350.037C326.938 349.548 327.88 349.303 329.094 349.303H330.5V348.639C330.5 348.133 330.349 347.732 330.047 347.436C329.745 347.133 329.299 346.982 328.711 346.982C328.195 346.982 327.763 347.113 327.414 347.373C327.065 347.633 326.891 347.949 326.891 348.318H325.438C325.438 347.896 325.586 347.49 325.883 347.1C326.185 346.704 326.591 346.391 327.102 346.162C327.617 345.933 328.182 345.818 328.797 345.818C329.771 345.818 330.534 346.063 331.086 346.553C331.638 347.037 331.924 347.706 331.945 348.561V352.451C331.945 353.227 332.044 353.844 332.242 354.303V354.428H330.727ZM328.328 353.326C328.781 353.326 329.211 353.209 329.617 352.975C330.023 352.74 330.318 352.436 330.5 352.061V350.326H329.367C327.596 350.326 326.711 350.844 326.711 351.881C326.711 352.334 326.862 352.688 327.164 352.943C327.466 353.199 327.854 353.326 328.328 353.326ZM335.57 345.975L335.609 346.912C336.229 346.183 337.065 345.818 338.117 345.818C339.299 345.818 340.104 346.271 340.531 347.178C340.812 346.771 341.177 346.443 341.625 346.193C342.078 345.943 342.612 345.818 343.227 345.818C345.081 345.818 346.023 346.8 346.055 348.764V354.428H344.609V348.85C344.609 348.245 344.471 347.795 344.195 347.498C343.919 347.196 343.456 347.045 342.805 347.045C342.268 347.045 341.823 347.206 341.469 347.529C341.115 347.847 340.909 348.277 340.852 348.818V354.428H339.398V348.889C339.398 347.66 338.797 347.045 337.594 347.045C336.646 347.045 335.997 347.449 335.648 348.256V354.428H334.203V345.975H335.57ZM355.727 352.436L357.352 345.975H358.797L356.336 354.428H355.164L353.109 348.021L351.109 354.428H349.938L347.484 345.975H348.922L350.586 352.303L352.555 345.975H353.719L355.727 352.436ZM359.891 350.123C359.891 349.295 360.052 348.55 360.375 347.889C360.703 347.227 361.156 346.717 361.734 346.357C362.318 345.998 362.982 345.818 363.727 345.818C364.878 345.818 365.807 346.217 366.516 347.014C367.229 347.811 367.586 348.87 367.586 350.193V350.295C367.586 351.118 367.427 351.857 367.109 352.514C366.797 353.165 366.346 353.673 365.758 354.037C365.174 354.402 364.503 354.584 363.742 354.584C362.596 354.584 361.667 354.186 360.953 353.389C360.245 352.592 359.891 351.537 359.891 350.225V350.123ZM361.344 350.295C361.344 351.232 361.56 351.985 361.992 352.553C362.43 353.12 363.013 353.404 363.742 353.404C364.477 353.404 365.06 353.118 365.492 352.545C365.924 351.967 366.141 351.16 366.141 350.123C366.141 349.196 365.919 348.446 365.477 347.873C365.039 347.295 364.456 347.006 363.727 347.006C363.013 347.006 362.438 347.29 362 347.857C361.562 348.425 361.344 349.238 361.344 350.295ZM373.484 347.271C373.266 347.235 373.029 347.217 372.773 347.217C371.826 347.217 371.182 347.62 370.844 348.428V354.428H369.398V345.975H370.805L370.828 346.951C371.302 346.196 371.974 345.818 372.844 345.818C373.125 345.818 373.339 345.855 373.484 345.928V347.271ZM377.18 350.514L376.273 351.459V354.428H374.828V342.428H376.273V349.686L377.047 348.756L379.68 345.975H381.438L378.148 349.506L381.82 354.428H380.125L377.18 350.514Z" fill="#2B334E"/>
<path fill-rule="evenodd" clip-rule="evenodd" d="M361.667 295.928C361.667 297.076 360.731 298.011 359.583 298.011H355.417V277.178H359.583C360.731 277.178 361.667 278.113 361.667 279.261V295.928ZM328.333 295.928V279.261C328.333 278.113 329.269 277.178 330.417 277.178H334.583V298.011H330.417C329.269 298.011 328.333 297.076 328.333 295.928ZM340.833 269.886C340.833 269.311 341.3 268.844 341.875 268.844H348.125C348.7 268.844 349.167 269.311 349.167 269.886V273.011H340.833V269.886ZM338.75 298.011H351.25V277.178H338.75V298.011ZM359.583 273.011H353.333V269.886C353.333 267.015 350.996 264.678 348.125 264.678H341.875C339.004 264.678 336.667 267.015 336.667 269.886V273.011H330.417C326.971 273.011 324.167 275.815 324.167 279.261V295.928C324.167 299.374 326.971 302.178 330.417 302.178H359.583C363.029 302.178 365.833 299.374 365.833 295.928V279.261C365.833 275.815 363.029 273.011 359.583 273.011Z" fill="#FF5364"/>
<mask id="mask2" mask-type="alpha" maskUnits="userSpaceOnUse" x="324" y="264" width="42" height="39">
<path fill-rule="evenodd" clip-rule="evenodd" d="M361.667 295.928C361.667 297.076 360.731 298.011 359.583 298.011H355.417V277.178H359.583C360.731 277.178 361.667 278.113 361.667 279.261V295.928ZM328.333 295.928V279.261C328.333 278.113 329.269 277.178 330.417 277.178H334.583V298.011H330.417C329.269 298.011 328.333 297.076 328.333 295.928ZM340.833 269.886C340.833 269.311 341.3 268.844 341.875 268.844H348.125C348.7 268.844 349.167 269.311 349.167 269.886V273.011H340.833V269.886ZM338.75 298.011H351.25V277.178H338.75V298.011ZM359.583 273.011H353.333V269.886C353.333 267.015 350.996 264.678 348.125 264.678H341.875C339.004 264.678 336.667 267.015 336.667 269.886V273.011H330.417C326.971 273.011 324.167 275.815 324.167 279.261V295.928C324.167 299.374 326.971 302.178 330.417 302.178H359.583C363.029 302.178 365.833 299.374 365.833 295.928V279.261C365.833 275.815 363.029 273.011 359.583 273.011Z" fill="white"/>
</mask>
<g mask="url(#mask2)">
<rect x="320" y="258.428" width="50" height="50" fill="#FF5364"/>
</g>
<g filter="url(#filter4_d)">
<rect x="487" y="10" width="187" height="163" rx="32" fill="white"/>
</g>
<path d="M554.422 132H552.922V120.625H554.422V132ZM558.312 123.547L558.359 124.609C559.005 123.797 559.849 123.391 560.891 123.391C562.677 123.391 563.578 124.398 563.594 126.414V132H562.148V126.406C562.143 125.797 562.003 125.346 561.727 125.055C561.456 124.763 561.031 124.617 560.453 124.617C559.984 124.617 559.573 124.742 559.219 124.992C558.865 125.242 558.589 125.57 558.391 125.977V132H556.945V123.547H558.312ZM567.734 121.5V123.547H569.312V124.664H567.734V129.906C567.734 130.245 567.805 130.5 567.945 130.672C568.086 130.839 568.326 130.922 568.664 130.922C568.831 130.922 569.06 130.891 569.352 130.828V132C568.971 132.104 568.602 132.156 568.242 132.156C567.596 132.156 567.109 131.961 566.781 131.57C566.453 131.18 566.289 130.625 566.289 129.906V124.664H564.75V123.547H566.289V121.5H567.734ZM574.516 132.156C573.37 132.156 572.438 131.781 571.719 131.031C571 130.276 570.641 129.268 570.641 128.008V127.742C570.641 126.904 570.799 126.156 571.117 125.5C571.44 124.839 571.888 124.323 572.461 123.953C573.039 123.578 573.664 123.391 574.336 123.391C575.435 123.391 576.289 123.753 576.898 124.477C577.508 125.201 577.812 126.237 577.812 127.586V128.188H572.086C572.107 129.021 572.349 129.695 572.812 130.211C573.281 130.721 573.875 130.977 574.594 130.977C575.104 130.977 575.536 130.872 575.891 130.664C576.245 130.456 576.555 130.18 576.82 129.836L577.703 130.523C576.995 131.612 575.932 132.156 574.516 132.156ZM574.336 124.578C573.753 124.578 573.263 124.792 572.867 125.219C572.471 125.641 572.227 126.234 572.133 127H576.367V126.891C576.326 126.156 576.128 125.589 575.773 125.188C575.419 124.781 574.94 124.578 574.336 124.578ZM579.148 127.703C579.148 126.385 579.453 125.339 580.062 124.562C580.672 123.781 581.479 123.391 582.484 123.391C583.516 123.391 584.32 123.755 584.898 124.484L584.969 123.547H586.289V131.797C586.289 132.891 585.964 133.753 585.312 134.383C584.667 135.013 583.797 135.328 582.703 135.328C582.094 135.328 581.497 135.198 580.914 134.938C580.331 134.677 579.885 134.32 579.578 133.867L580.328 133C580.948 133.766 581.706 134.148 582.602 134.148C583.305 134.148 583.852 133.951 584.242 133.555C584.638 133.159 584.836 132.602 584.836 131.883V131.156C584.258 131.823 583.469 132.156 582.469 132.156C581.479 132.156 580.677 131.758 580.062 130.961C579.453 130.164 579.148 129.078 579.148 127.703ZM580.602 127.867C580.602 128.82 580.797 129.57 581.188 130.117C581.578 130.659 582.125 130.93 582.828 130.93C583.74 130.93 584.409 130.516 584.836 129.688V125.828C584.393 125.021 583.729 124.617 582.844 124.617C582.141 124.617 581.591 124.891 581.195 125.438C580.799 125.984 580.602 126.794 580.602 127.867ZM592.562 124.844C592.344 124.807 592.107 124.789 591.852 124.789C590.904 124.789 590.26 125.193 589.922 126V132H588.477V123.547H589.883L589.906 124.523C590.38 123.768 591.052 123.391 591.922 123.391C592.203 123.391 592.417 123.427 592.562 123.5V124.844ZM595.469 132H594.023V123.547H595.469V132ZM593.906 121.305C593.906 121.07 593.977 120.872 594.117 120.711C594.263 120.549 594.477 120.469 594.758 120.469C595.039 120.469 595.253 120.549 595.398 120.711C595.544 120.872 595.617 121.07 595.617 121.305C595.617 121.539 595.544 121.734 595.398 121.891C595.253 122.047 595.039 122.125 594.758 122.125C594.477 122.125 594.263 122.047 594.117 121.891C593.977 121.734 593.906 121.539 593.906 121.305ZM599.75 121.5V123.547H601.328V124.664H599.75V129.906C599.75 130.245 599.82 130.5 599.961 130.672C600.102 130.839 600.341 130.922 600.68 130.922C600.846 130.922 601.076 130.891 601.367 130.828V132C600.987 132.104 600.617 132.156 600.258 132.156C599.612 132.156 599.125 131.961 598.797 131.57C598.469 131.18 598.305 130.625 598.305 129.906V124.664H596.766V123.547H598.305V121.5H599.75ZM605.789 129.883L607.758 123.547H609.305L605.906 133.305C605.38 134.711 604.544 135.414 603.398 135.414L603.125 135.391L602.586 135.289V134.117L602.977 134.148C603.466 134.148 603.846 134.049 604.117 133.852C604.393 133.654 604.62 133.292 604.797 132.766L605.117 131.906L602.102 123.547H603.68L605.789 129.883Z" fill="#2B334E"/>
<path fill-rule="evenodd" clip-rule="evenodd" d="M565.173 60.2128C567.498 61.0107 569.35 62.9566 570.125 65.4232L570.208 65.6732C571.096 68.2899 570.735 71.1066 569.248 73.2191C568.977 73.6024 569.037 74.0607 569.323 74.2774L573.639 77.5566C573.791 77.6712 573.939 77.6712 574.031 77.6607C574.135 77.6441 574.287 77.5878 574.41 77.4128L574.891 76.7295C576.327 74.6941 578.639 73.4378 581.081 73.367C583.823 73.3107 586.285 74.567 587.819 76.7816L588.064 77.1378C588.187 77.3128 588.337 77.3712 588.444 77.3878C588.535 77.4066 588.685 77.4003 588.835 77.2837L593.129 74.0441C593.429 73.8191 593.496 73.3378 593.273 73.0149L592.731 72.2337C591.335 70.217 590.921 67.6003 591.623 65.2357C592.385 62.6607 594.325 60.6232 596.814 59.7899L597.233 59.6482C597.569 59.5378 597.75 59.1212 597.631 58.7378L595.991 53.4857C595.914 53.2399 595.756 53.1295 595.669 53.0837C595.544 53.0191 595.408 53.0087 595.279 53.0524L594.571 53.2878C592.148 54.0941 589.475 53.6566 587.423 52.1128L587.198 51.9441C585.248 50.4774 584.087 48.1128 584.096 45.6212L584.1 45.0378C584.1 44.7607 583.969 44.5878 583.889 44.5087C583.814 44.4316 583.687 44.3399 583.508 44.3399L578.202 44.3337C577.877 44.3337 577.612 44.6441 577.61 45.0274L577.608 45.5316C577.598 48.0628 576.412 50.4712 574.437 51.9774L574.169 52.1816C571.996 53.8337 569.162 54.3003 566.596 53.4253C566.498 53.392 566.406 53.3982 566.319 53.4441C566.252 53.4774 566.131 53.5628 566.073 53.7524L564.371 59.1607C564.248 59.5545 564.45 59.9649 564.831 60.0962L565.173 60.2128ZM573.946 81.8337C572.933 81.8337 571.95 81.5045 571.121 80.8732L566.804 77.5962C564.741 76.0337 564.285 73.0274 565.785 70.8962C566.564 69.792 566.725 68.3732 566.266 67.0274L566.152 66.6774C565.771 65.4649 564.9 64.5232 563.823 64.1545H563.821L563.481 64.0357C560.943 63.167 559.589 60.4774 560.396 57.9107L562.096 52.5045C562.481 51.2816 563.312 50.2941 564.437 49.7253C565.537 49.1712 566.781 49.0857 567.943 49.4837C569.191 49.9087 570.577 49.6774 571.646 48.8649L571.914 48.6607C572.864 47.9357 573.437 46.7587 573.441 45.5149L573.443 45.0128C573.454 42.3378 575.589 40.167 578.2 40.167H578.208L583.514 40.1732C584.768 40.1753 585.952 40.6712 586.843 41.5691C587.766 42.4962 588.271 43.7357 588.266 45.0587L588.262 45.6399C588.258 46.8191 588.798 47.9337 589.708 48.617L589.931 48.7857C590.887 49.5045 592.133 49.7107 593.252 49.3357L593.958 49.1003C595.16 48.7003 596.439 48.7982 597.566 49.3753C598.723 49.967 599.577 50.9857 599.968 52.2462L601.608 57.4982C602.4 60.0357 601.029 62.7732 598.556 63.6003L598.137 63.7399C596.937 64.1441 595.993 65.1441 595.616 66.4191C595.271 67.5878 595.471 68.8732 596.156 69.8607L596.698 70.642C598.185 72.792 597.71 75.8087 595.639 77.3691L591.346 80.6107C590.314 81.3899 589.05 81.7045 587.781 81.5024C586.502 81.2962 585.385 80.5878 584.637 79.5087L584.391 79.1503C583.662 78.1003 582.496 77.4628 581.273 77.5316C580.048 77.5649 578.989 78.1462 578.298 79.1295L577.816 79.8128C577.062 80.8816 575.943 81.5795 574.671 81.7795C574.427 81.817 574.185 81.8337 573.946 81.8337ZM581 57.8752C579.277 57.8752 577.875 59.2773 577.875 61.0002C577.875 62.7231 579.277 64.1252 581 64.1252C582.723 64.1252 584.125 62.7231 584.125 61.0002C584.125 59.2773 582.723 57.8752 581 57.8752ZM581 68.2919C576.979 68.2919 573.708 65.0211 573.708 61.0002C573.708 56.9794 576.979 53.7086 581 53.7086C585.021 53.7086 588.292 56.9794 588.292 61.0002C588.292 65.0211 585.021 68.2919 581 68.2919Z" fill="#FF5364"/>
<mask id="mask3" mask-type="alpha" maskUnits="userSpaceOnUse" x="560" y="40" width="42" height="42">
<path fill-rule="evenodd" clip-rule="evenodd" d="M565.173 60.2128C567.498 61.0107 569.35 62.9566 570.125 65.4232L570.208 65.6732C571.096 68.2899 570.735 71.1066 569.248 73.2191C568.977 73.6024 569.037 74.0607 569.323 74.2774L573.639 77.5566C573.791 77.6712 573.939 77.6712 574.031 77.6607C574.135 77.6441 574.287 77.5878 574.41 77.4128L574.891 76.7295C576.327 74.6941 578.639 73.4378 581.081 73.367C583.823 73.3107 586.285 74.567 587.819 76.7816L588.064 77.1378C588.187 77.3128 588.337 77.3712 588.444 77.3878C588.535 77.4066 588.685 77.4003 588.835 77.2837L593.129 74.0441C593.429 73.8191 593.496 73.3378 593.273 73.0149L592.731 72.2337C591.335 70.217 590.921 67.6003 591.623 65.2357C592.385 62.6607 594.325 60.6232 596.814 59.7899L597.233 59.6482C597.569 59.5378 597.75 59.1212 597.631 58.7378L595.991 53.4857C595.914 53.2399 595.756 53.1295 595.669 53.0837C595.544 53.0191 595.408 53.0087 595.279 53.0524L594.571 53.2878C592.148 54.0941 589.475 53.6566 587.423 52.1128L587.198 51.9441C585.248 50.4774 584.087 48.1128 584.096 45.6212L584.1 45.0378C584.1 44.7607 583.969 44.5878 583.889 44.5087C583.814 44.4316 583.687 44.3399 583.508 44.3399L578.202 44.3337C577.877 44.3337 577.612 44.6441 577.61 45.0274L577.608 45.5316C577.598 48.0628 576.412 50.4712 574.437 51.9774L574.169 52.1816C571.996 53.8337 569.162 54.3003 566.596 53.4253C566.498 53.392 566.406 53.3982 566.319 53.4441C566.252 53.4774 566.131 53.5628 566.073 53.7524L564.371 59.1607C564.248 59.5545 564.45 59.9649 564.831 60.0962L565.173 60.2128ZM573.946 81.8337C572.933 81.8337 571.95 81.5045 571.121 80.8732L566.804 77.5962C564.741 76.0337 564.285 73.0274 565.785 70.8962C566.564 69.792 566.725 68.3732 566.266 67.0274L566.152 66.6774C565.771 65.4649 564.9 64.5232 563.823 64.1545H563.821L563.481 64.0357C560.943 63.167 559.589 60.4774 560.396 57.9107L562.096 52.5045C562.481 51.2816 563.312 50.2941 564.437 49.7253C565.537 49.1712 566.781 49.0857 567.943 49.4837C569.191 49.9087 570.577 49.6774 571.646 48.8649L571.914 48.6607C572.864 47.9357 573.437 46.7587 573.441 45.5149L573.443 45.0128C573.454 42.3378 575.589 40.167 578.2 40.167H578.208L583.514 40.1732C584.768 40.1753 585.952 40.6712 586.843 41.5691C587.766 42.4962 588.271 43.7357 588.266 45.0587L588.262 45.6399C588.258 46.8191 588.798 47.9337 589.708 48.617L589.931 48.7857C590.887 49.5045 592.133 49.7107 593.252 49.3357L593.958 49.1003C595.16 48.7003 596.439 48.7982 597.566 49.3753C598.723 49.967 599.577 50.9857 599.968 52.2462L601.608 57.4982C602.4 60.0357 601.029 62.7732 598.556 63.6003L598.137 63.7399C596.937 64.1441 595.993 65.1441 595.616 66.4191C595.271 67.5878 595.471 68.8732 596.156 69.8607L596.698 70.642C598.185 72.792 597.71 75.8087 595.639 77.3691L591.346 80.6107C590.314 81.3899 589.05 81.7045 587.781 81.5024C586.502 81.2962 585.385 80.5878 584.637 79.5087L584.391 79.1503C583.662 78.1003 582.496 77.4628 581.273 77.5316C580.048 77.5649 578.989 78.1462 578.298 79.1295L577.816 79.8128C577.062 80.8816 575.943 81.5795 574.671 81.7795C574.427 81.817 574.185 81.8337 573.946 81.8337ZM581 57.8752C579.277 57.8752 577.875 59.2773 577.875 61.0002C577.875 62.7231 579.277 64.1252 581 64.1252C582.723 64.1252 584.125 62.7231 584.125 61.0002C584.125 59.2773 582.723 57.8752 581 57.8752ZM581 68.2919C576.979 68.2919 573.708 65.0211 573.708 61.0002C573.708 56.9794 576.979 53.7086 581 53.7086C585.021 53.7086 588.292 56.9794 588.292 61.0002C588.292 65.0211 585.021 68.2919 581 68.2919Z" fill="white"/>
</mask>
<g mask="url(#mask3)">
<rect x="556" y="36" width="50" height="50" fill="#FF5364"/>
</g>
<g filter="url(#filter5_d)">
<rect x="487" y="232.428" width="187" height="163" rx="32" fill="white"/>
</g>
<path d="M543.531 350.818C543.391 352.021 542.945 352.951 542.195 353.607C541.451 354.258 540.458 354.584 539.219 354.584C537.875 354.584 536.797 354.102 535.984 353.139C535.177 352.175 534.773 350.886 534.773 349.271V348.178C534.773 347.12 534.961 346.191 535.336 345.389C535.716 344.587 536.253 343.972 536.945 343.545C537.638 343.113 538.44 342.896 539.352 342.896C540.56 342.896 541.529 343.235 542.258 343.912C542.987 344.584 543.411 345.516 543.531 346.709H542.023C541.893 345.803 541.609 345.146 541.172 344.74C540.74 344.334 540.133 344.131 539.352 344.131C538.393 344.131 537.641 344.485 537.094 345.193C536.552 345.902 536.281 346.91 536.281 348.217V349.318C536.281 350.553 536.539 351.535 537.055 352.264C537.57 352.993 538.292 353.357 539.219 353.357C540.052 353.357 540.69 353.17 541.133 352.795C541.581 352.415 541.878 351.756 542.023 350.818H543.531ZM544.977 350.123C544.977 349.295 545.138 348.55 545.461 347.889C545.789 347.227 546.242 346.717 546.82 346.357C547.404 345.998 548.068 345.818 548.812 345.818C549.964 345.818 550.893 346.217 551.602 347.014C552.315 347.811 552.672 348.87 552.672 350.193V350.295C552.672 351.118 552.513 351.857 552.195 352.514C551.883 353.165 551.432 353.673 550.844 354.037C550.26 354.402 549.589 354.584 548.828 354.584C547.682 354.584 546.753 354.186 546.039 353.389C545.331 352.592 544.977 351.537 544.977 350.225V350.123ZM546.43 350.295C546.43 351.232 546.646 351.985 547.078 352.553C547.516 353.12 548.099 353.404 548.828 353.404C549.562 353.404 550.146 353.118 550.578 352.545C551.01 351.967 551.227 351.16 551.227 350.123C551.227 349.196 551.005 348.446 550.562 347.873C550.125 347.295 549.542 347.006 548.812 347.006C548.099 347.006 547.523 347.29 547.086 347.857C546.648 348.425 546.43 349.238 546.43 350.295ZM555.844 345.975L555.883 346.912C556.503 346.183 557.339 345.818 558.391 345.818C559.573 345.818 560.378 346.271 560.805 347.178C561.086 346.771 561.451 346.443 561.898 346.193C562.352 345.943 562.885 345.818 563.5 345.818C565.354 345.818 566.297 346.8 566.328 348.764V354.428H564.883V348.85C564.883 348.245 564.745 347.795 564.469 347.498C564.193 347.196 563.729 347.045 563.078 347.045C562.542 347.045 562.096 347.206 561.742 347.529C561.388 347.847 561.182 348.277 561.125 348.818V354.428H559.672V348.889C559.672 347.66 559.07 347.045 557.867 347.045C556.919 347.045 556.271 347.449 555.922 348.256V354.428H554.477V345.975H555.844ZM569.875 345.975L569.914 346.912C570.534 346.183 571.37 345.818 572.422 345.818C573.604 345.818 574.409 346.271 574.836 347.178C575.117 346.771 575.482 346.443 575.93 346.193C576.383 345.943 576.917 345.818 577.531 345.818C579.385 345.818 580.328 346.8 580.359 348.764V354.428H578.914V348.85C578.914 348.245 578.776 347.795 578.5 347.498C578.224 347.196 577.76 347.045 577.109 347.045C576.573 347.045 576.128 347.206 575.773 347.529C575.419 347.847 575.214 348.277 575.156 348.818V354.428H573.703V348.889C573.703 347.66 573.102 347.045 571.898 347.045C570.951 347.045 570.302 347.449 569.953 348.256V354.428H568.508V345.975H569.875ZM584.117 354.428H582.672V345.975H584.117V354.428ZM582.555 343.732C582.555 343.498 582.625 343.3 582.766 343.139C582.911 342.977 583.125 342.896 583.406 342.896C583.688 342.896 583.901 342.977 584.047 343.139C584.193 343.3 584.266 343.498 584.266 343.732C584.266 343.967 584.193 344.162 584.047 344.318C583.901 344.475 583.688 344.553 583.406 344.553C583.125 344.553 582.911 344.475 582.766 344.318C582.625 344.162 582.555 343.967 582.555 343.732ZM588.398 343.928V345.975H589.977V347.092H588.398V352.334C588.398 352.673 588.469 352.928 588.609 353.1C588.75 353.266 588.99 353.35 589.328 353.35C589.495 353.35 589.724 353.318 590.016 353.256V354.428C589.635 354.532 589.266 354.584 588.906 354.584C588.26 354.584 587.773 354.389 587.445 353.998C587.117 353.607 586.953 353.053 586.953 352.334V347.092H585.414V345.975H586.953V343.928H588.398ZM593.031 345.975L593.07 346.912C593.69 346.183 594.526 345.818 595.578 345.818C596.76 345.818 597.565 346.271 597.992 347.178C598.273 346.771 598.638 346.443 599.086 346.193C599.539 345.943 600.073 345.818 600.688 345.818C602.542 345.818 603.484 346.8 603.516 348.764V354.428H602.07V348.85C602.07 348.245 601.932 347.795 601.656 347.498C601.38 347.196 600.917 347.045 600.266 347.045C599.729 347.045 599.284 347.206 598.93 347.529C598.576 347.847 598.37 348.277 598.312 348.818V354.428H596.859V348.889C596.859 347.66 596.258 347.045 595.055 347.045C594.107 347.045 593.458 347.449 593.109 348.256V354.428H591.664V345.975H593.031ZM609.211 354.584C608.065 354.584 607.133 354.209 606.414 353.459C605.695 352.704 605.336 351.696 605.336 350.436V350.17C605.336 349.331 605.495 348.584 605.812 347.928C606.135 347.266 606.583 346.751 607.156 346.381C607.734 346.006 608.359 345.818 609.031 345.818C610.13 345.818 610.984 346.18 611.594 346.904C612.203 347.628 612.508 348.665 612.508 350.014V350.615H606.781C606.802 351.449 607.044 352.123 607.508 352.639C607.977 353.149 608.57 353.404 609.289 353.404C609.799 353.404 610.232 353.3 610.586 353.092C610.94 352.883 611.25 352.607 611.516 352.264L612.398 352.951C611.69 354.04 610.628 354.584 609.211 354.584ZM609.031 347.006C608.448 347.006 607.958 347.219 607.562 347.646C607.167 348.068 606.922 348.662 606.828 349.428H611.062V349.318C611.021 348.584 610.823 348.016 610.469 347.615C610.115 347.209 609.635 347.006 609.031 347.006ZM615.555 345.975L615.602 347.037C616.247 346.225 617.091 345.818 618.133 345.818C619.919 345.818 620.82 346.826 620.836 348.842V354.428H619.391V348.834C619.385 348.225 619.245 347.774 618.969 347.482C618.698 347.191 618.273 347.045 617.695 347.045C617.227 347.045 616.815 347.17 616.461 347.42C616.107 347.67 615.831 347.998 615.633 348.404V354.428H614.188V345.975H615.555ZM624.977 343.928V345.975H626.555V347.092H624.977V352.334C624.977 352.673 625.047 352.928 625.188 353.1C625.328 353.266 625.568 353.35 625.906 353.35C626.073 353.35 626.302 353.318 626.594 353.256V354.428C626.214 354.532 625.844 354.584 625.484 354.584C624.839 354.584 624.352 354.389 624.023 353.998C623.695 353.607 623.531 353.053 623.531 352.334V347.092H621.992V345.975H623.531V343.928H624.977Z" fill="#2B334E"/>
<path fill-rule="evenodd" clip-rule="evenodd" d="M571.041 270.928C569.241 270.928 567.554 271.624 566.291 272.888C563.67 275.513 563.67 279.786 566.293 282.415L581 297.147L595.708 282.415C598.331 279.786 598.331 275.513 595.708 272.888C593.183 270.357 588.733 270.361 586.208 272.888L582.475 276.628C581.691 277.413 580.308 277.413 579.525 276.628L575.791 272.886C574.529 271.624 572.843 270.928 571.041 270.928ZM581 302.178C580.448 302.178 579.916 301.959 579.527 301.565L563.343 285.357C559.102 281.107 559.102 274.192 563.343 269.942C565.393 267.892 568.127 266.761 571.041 266.761C573.956 266.761 576.691 267.892 578.739 269.942L581 272.207L583.26 269.945C585.31 267.892 588.043 266.761 590.96 266.761C593.873 266.761 596.608 267.892 598.656 269.942C602.9 274.192 602.9 281.107 598.658 285.357L582.475 301.567C582.083 301.959 581.554 302.178 581 302.178Z" fill="#FF5364"/>
<mask id="mask4" mask-type="alpha" maskUnits="userSpaceOnUse" x="560" y="266" width="42" height="37">
<path fill-rule="evenodd" clip-rule="evenodd" d="M571.041 270.928C569.241 270.928 567.554 271.624 566.291 272.888C563.67 275.513 563.67 279.786 566.293 282.415L581 297.147L595.708 282.415C598.331 279.786 598.331 275.513 595.708 272.888C593.183 270.357 588.733 270.361 586.208 272.888L582.475 276.628C581.691 277.413 580.308 277.413 579.525 276.628L575.791 272.886C574.529 271.624 572.843 270.928 571.041 270.928ZM581 302.178C580.448 302.178 579.916 301.959 579.527 301.565L563.343 285.357C559.102 281.107 559.102 274.192 563.343 269.942C565.393 267.892 568.127 266.761 571.041 266.761C573.956 266.761 576.691 267.892 578.739 269.942L581 272.207L583.26 269.945C585.31 267.892 588.043 266.761 590.96 266.761C593.873 266.761 596.608 267.892 598.656 269.942C602.9 274.192 602.9 281.107 598.658 285.357L582.475 301.567C582.083 301.959 581.554 302.178 581 302.178Z" fill="white"/>
</mask>
<g mask="url(#mask4)">
<rect x="556" y="258.428" width="50" height="50" fill="#FF5364"/>
</g>
<g filter="url(#filter6_d)">
<rect x="723" y="10" width="187" height="163" rx="32" fill="white"/>
</g>
<path d="M772.422 127.398H769.75V132H768.242V120.625H772.008C773.289 120.625 774.273 120.917 774.961 121.5C775.654 122.083 776 122.932 776 124.047C776 124.755 775.807 125.372 775.422 125.898C775.042 126.424 774.51 126.818 773.828 127.078L776.5 131.906V132H774.891L772.422 127.398ZM769.75 126.172H772.055C772.799 126.172 773.391 125.979 773.828 125.594C774.271 125.208 774.492 124.693 774.492 124.047C774.492 123.344 774.281 122.805 773.859 122.43C773.443 122.055 772.839 121.865 772.047 121.859H769.75V126.172ZM781.391 132.156C780.245 132.156 779.312 131.781 778.594 131.031C777.875 130.276 777.516 129.268 777.516 128.008V127.742C777.516 126.904 777.674 126.156 777.992 125.5C778.315 124.839 778.763 124.323 779.336 123.953C779.914 123.578 780.539 123.391 781.211 123.391C782.31 123.391 783.164 123.753 783.773 124.477C784.383 125.201 784.688 126.237 784.688 127.586V128.188H778.961C778.982 129.021 779.224 129.695 779.688 130.211C780.156 130.721 780.75 130.977 781.469 130.977C781.979 130.977 782.411 130.872 782.766 130.664C783.12 130.456 783.43 130.18 783.695 129.836L784.578 130.523C783.87 131.612 782.807 132.156 781.391 132.156ZM781.211 124.578C780.628 124.578 780.138 124.792 779.742 125.219C779.346 125.641 779.102 126.234 779.008 127H783.242V126.891C783.201 126.156 783.003 125.589 782.648 125.188C782.294 124.781 781.815 124.578 781.211 124.578ZM791.289 129.758C791.289 129.367 791.141 129.065 790.844 128.852C790.552 128.633 790.039 128.445 789.305 128.289C788.576 128.133 787.995 127.945 787.562 127.727C787.135 127.508 786.818 127.247 786.609 126.945C786.406 126.643 786.305 126.284 786.305 125.867C786.305 125.174 786.596 124.589 787.18 124.109C787.768 123.63 788.518 123.391 789.43 123.391C790.388 123.391 791.164 123.638 791.758 124.133C792.357 124.628 792.656 125.26 792.656 126.031H791.203C791.203 125.635 791.034 125.294 790.695 125.008C790.362 124.721 789.94 124.578 789.43 124.578C788.904 124.578 788.492 124.693 788.195 124.922C787.898 125.151 787.75 125.451 787.75 125.82C787.75 126.169 787.888 126.432 788.164 126.609C788.44 126.786 788.938 126.956 789.656 127.117C790.38 127.279 790.966 127.471 791.414 127.695C791.862 127.919 792.193 128.19 792.406 128.508C792.625 128.82 792.734 129.203 792.734 129.656C792.734 130.411 792.432 131.018 791.828 131.477C791.224 131.93 790.44 132.156 789.477 132.156C788.799 132.156 788.201 132.036 787.68 131.797C787.159 131.557 786.75 131.224 786.453 130.797C786.161 130.365 786.016 129.898 786.016 129.398H787.461C787.487 129.883 787.68 130.268 788.039 130.555C788.404 130.836 788.883 130.977 789.477 130.977C790.023 130.977 790.461 130.867 790.789 130.648C791.122 130.424 791.289 130.128 791.289 129.758ZM801.758 127.867C801.758 129.154 801.464 130.19 800.875 130.977C800.286 131.763 799.49 132.156 798.484 132.156C797.458 132.156 796.651 131.831 796.062 131.18V135.25H794.617V123.547H795.938L796.008 124.484C796.596 123.755 797.414 123.391 798.461 123.391C799.477 123.391 800.279 123.773 800.867 124.539C801.461 125.305 801.758 126.37 801.758 127.734V127.867ZM800.312 127.703C800.312 126.75 800.109 125.997 799.703 125.445C799.297 124.893 798.74 124.617 798.031 124.617C797.156 124.617 796.5 125.005 796.062 125.781V129.82C796.495 130.591 797.156 130.977 798.047 130.977C798.74 130.977 799.289 130.703 799.695 130.156C800.107 129.604 800.312 128.786 800.312 127.703ZM803.219 127.695C803.219 126.867 803.38 126.122 803.703 125.461C804.031 124.799 804.484 124.289 805.062 123.93C805.646 123.57 806.31 123.391 807.055 123.391C808.206 123.391 809.135 123.789 809.844 124.586C810.557 125.383 810.914 126.443 810.914 127.766V127.867C810.914 128.69 810.755 129.43 810.438 130.086C810.125 130.737 809.674 131.245 809.086 131.609C808.503 131.974 807.831 132.156 807.07 132.156C805.924 132.156 804.995 131.758 804.281 130.961C803.573 130.164 803.219 129.109 803.219 127.797V127.695ZM804.672 127.867C804.672 128.805 804.888 129.557 805.32 130.125C805.758 130.693 806.341 130.977 807.07 130.977C807.805 130.977 808.388 130.69 808.82 130.117C809.253 129.539 809.469 128.732 809.469 127.695C809.469 126.768 809.247 126.018 808.805 125.445C808.367 124.867 807.784 124.578 807.055 124.578C806.341 124.578 805.766 124.862 805.328 125.43C804.891 125.997 804.672 126.81 804.672 127.867ZM814.094 123.547L814.141 124.609C814.786 123.797 815.63 123.391 816.672 123.391C818.458 123.391 819.359 124.398 819.375 126.414V132H817.93V126.406C817.924 125.797 817.784 125.346 817.508 125.055C817.237 124.763 816.812 124.617 816.234 124.617C815.766 124.617 815.354 124.742 815 124.992C814.646 125.242 814.37 125.57 814.172 125.977V132H812.727V123.547H814.094ZM826.477 129.758C826.477 129.367 826.328 129.065 826.031 128.852C825.74 128.633 825.227 128.445 824.492 128.289C823.763 128.133 823.182 127.945 822.75 127.727C822.323 127.508 822.005 127.247 821.797 126.945C821.594 126.643 821.492 126.284 821.492 125.867C821.492 125.174 821.784 124.589 822.367 124.109C822.956 123.63 823.706 123.391 824.617 123.391C825.576 123.391 826.352 123.638 826.945 124.133C827.544 124.628 827.844 125.26 827.844 126.031H826.391C826.391 125.635 826.221 125.294 825.883 125.008C825.549 124.721 825.128 124.578 824.617 124.578C824.091 124.578 823.68 124.693 823.383 124.922C823.086 125.151 822.938 125.451 822.938 125.82C822.938 126.169 823.076 126.432 823.352 126.609C823.628 126.786 824.125 126.956 824.844 127.117C825.568 127.279 826.154 127.471 826.602 127.695C827.049 127.919 827.38 128.19 827.594 128.508C827.812 128.82 827.922 129.203 827.922 129.656C827.922 130.411 827.62 131.018 827.016 131.477C826.411 131.93 825.628 132.156 824.664 132.156C823.987 132.156 823.388 132.036 822.867 131.797C822.346 131.557 821.938 131.224 821.641 130.797C821.349 130.365 821.203 129.898 821.203 129.398H822.648C822.674 129.883 822.867 130.268 823.227 130.555C823.591 130.836 824.07 130.977 824.664 130.977C825.211 130.977 825.648 130.867 825.977 130.648C826.31 130.424 826.477 130.128 826.477 129.758ZM831.375 132H829.93V123.547H831.375V132ZM829.812 121.305C829.812 121.07 829.883 120.872 830.023 120.711C830.169 120.549 830.383 120.469 830.664 120.469C830.945 120.469 831.159 120.549 831.305 120.711C831.451 120.872 831.523 121.07 831.523 121.305C831.523 121.539 831.451 121.734 831.305 121.891C831.159 122.047 830.945 122.125 830.664 122.125C830.383 122.125 830.169 122.047 830.023 121.891C829.883 121.734 829.812 121.539 829.812 121.305ZM840.852 127.867C840.852 129.159 840.555 130.198 839.961 130.984C839.367 131.766 838.57 132.156 837.57 132.156C836.503 132.156 835.677 131.779 835.094 131.023L835.023 132H833.695V120H835.141V124.477C835.724 123.753 836.529 123.391 837.555 123.391C838.581 123.391 839.385 123.779 839.969 124.555C840.557 125.331 840.852 126.393 840.852 127.742V127.867ZM839.406 127.703C839.406 126.719 839.216 125.958 838.836 125.422C838.456 124.885 837.909 124.617 837.195 124.617C836.242 124.617 835.557 125.06 835.141 125.945V129.602C835.583 130.487 836.273 130.93 837.211 130.93C837.904 130.93 838.443 130.661 838.828 130.125C839.214 129.589 839.406 128.781 839.406 127.703ZM844.25 132H842.805V123.547H844.25V132ZM842.688 121.305C842.688 121.07 842.758 120.872 842.898 120.711C843.044 120.549 843.258 120.469 843.539 120.469C843.82 120.469 844.034 120.549 844.18 120.711C844.326 120.872 844.398 121.07 844.398 121.305C844.398 121.539 844.326 121.734 844.18 121.891C844.034 122.047 843.82 122.125 843.539 122.125C843.258 122.125 843.044 122.047 842.898 121.891C842.758 121.734 842.688 121.539 842.688 121.305ZM848.141 132H846.695V120H848.141V132ZM852.031 132H850.586V123.547H852.031V132ZM850.469 121.305C850.469 121.07 850.539 120.872 850.68 120.711C850.826 120.549 851.039 120.469 851.32 120.469C851.602 120.469 851.815 120.549 851.961 120.711C852.107 120.872 852.18 121.07 852.18 121.305C852.18 121.539 852.107 121.734 851.961 121.891C851.815 122.047 851.602 122.125 851.32 122.125C851.039 122.125 850.826 122.047 850.68 121.891C850.539 121.734 850.469 121.539 850.469 121.305ZM856.312 121.5V123.547H857.891V124.664H856.312V129.906C856.312 130.245 856.383 130.5 856.523 130.672C856.664 130.839 856.904 130.922 857.242 130.922C857.409 130.922 857.638 130.891 857.93 130.828V132C857.549 132.104 857.18 132.156 856.82 132.156C856.174 132.156 855.688 131.961 855.359 131.57C855.031 131.18 854.867 130.625 854.867 129.906V124.664H853.328V123.547H854.867V121.5H856.312ZM862.352 129.883L864.32 123.547H865.867L862.469 133.305C861.943 134.711 861.107 135.414 859.961 135.414L859.688 135.391L859.148 135.289V134.117L859.539 134.148C860.029 134.148 860.409 134.049 860.68 133.852C860.956 133.654 861.182 133.292 861.359 132.766L861.68 131.906L858.664 123.547H860.242L862.352 129.883Z" fill="black"/>
<path fill-rule="evenodd" clip-rule="evenodd" d="M817 44.6385L802.417 52.8427V53.1448C802.417 63.0198 807.762 72.1635 816.371 77.0073L817 77.3614L817.629 77.0073C826.238 72.1635 831.583 63.0198 831.583 53.1448V52.8427L817 44.6385ZM817 81.5223C816.294 81.5223 815.587 81.3473 814.96 80.9932L814.329 80.6369C804.41 75.0598 798.25 64.5244 798.25 53.1452V52.8432C798.25 51.3452 799.062 49.9536 800.371 49.214L814.958 41.0098C816.219 40.3015 817.783 40.2994 819.04 41.0077L833.625 49.2119C834.937 49.9536 835.75 51.3452 835.75 52.8432V53.1452C835.75 64.5244 829.59 75.0598 819.671 80.6369L819.042 80.9911C818.412 81.3452 817.706 81.5223 817 81.5223Z" fill="#FF5364"/>
<mask id="mask5" mask-type="alpha" maskUnits="userSpaceOnUse" x="798" y="40" width="38" height="42">
<path fill-rule="evenodd" clip-rule="evenodd" d="M817 44.6385L802.417 52.8427V53.1448C802.417 63.0198 807.762 72.1635 816.371 77.0073L817 77.3614L817.629 77.0073C826.238 72.1635 831.583 63.0198 831.583 53.1448V52.8427L817 44.6385ZM817 81.5223C816.294 81.5223 815.587 81.3473 814.96 80.9932L814.329 80.6369C804.41 75.0598 798.25 64.5244 798.25 53.1452V52.8432C798.25 51.3452 799.062 49.9536 800.371 49.214L814.958 41.0098C816.219 40.3015 817.783 40.2994 819.04 41.0077L833.625 49.2119C834.937 49.9536 835.75 51.3452 835.75 52.8432V53.1452C835.75 64.5244 829.59 75.0598 819.671 80.6369L819.042 80.9911C818.412 81.3452 817.706 81.5223 817 81.5223Z" fill="white"/>
</mask>
<g mask="url(#mask5)">
<rect x="792" y="36" width="50" height="50" fill="#FF5364"/>
</g>
<g filter="url(#filter7_d)">
<rect x="723" y="232.428" width="187" height="163" rx="32" fill="white"/>
</g>
<path d="M772.375 349.17H767.445V353.201H773.172V354.428H765.945V343.053H773.094V344.287H767.445V347.943H772.375V349.17ZM776.172 345.975L776.211 346.912C776.831 346.183 777.667 345.818 778.719 345.818C779.901 345.818 780.706 346.271 781.133 347.178C781.414 346.771 781.779 346.443 782.227 346.193C782.68 345.943 783.214 345.818 783.828 345.818C785.682 345.818 786.625 346.8 786.656 348.764V354.428H785.211V348.85C785.211 348.245 785.073 347.795 784.797 347.498C784.521 347.196 784.057 347.045 783.406 347.045C782.87 347.045 782.424 347.206 782.07 347.529C781.716 347.847 781.51 348.277 781.453 348.818V354.428H780V348.889C780 347.66 779.398 347.045 778.195 347.045C777.247 347.045 776.599 347.449 776.25 348.256V354.428H774.805V345.975H776.172ZM795.984 350.295C795.984 351.581 795.69 352.618 795.102 353.404C794.513 354.191 793.716 354.584 792.711 354.584C791.685 354.584 790.878 354.258 790.289 353.607V357.678H788.844V345.975H790.164L790.234 346.912C790.823 346.183 791.641 345.818 792.688 345.818C793.703 345.818 794.505 346.201 795.094 346.967C795.688 347.732 795.984 348.798 795.984 350.162V350.295ZM794.539 350.131C794.539 349.178 794.336 348.425 793.93 347.873C793.523 347.321 792.966 347.045 792.258 347.045C791.383 347.045 790.727 347.433 790.289 348.209V352.248C790.721 353.019 791.383 353.404 792.273 353.404C792.966 353.404 793.516 353.131 793.922 352.584C794.333 352.032 794.539 351.214 794.539 350.131ZM797.445 350.123C797.445 349.295 797.607 348.55 797.93 347.889C798.258 347.227 798.711 346.717 799.289 346.357C799.872 345.998 800.536 345.818 801.281 345.818C802.432 345.818 803.362 346.217 804.07 347.014C804.784 347.811 805.141 348.87 805.141 350.193V350.295C805.141 351.118 804.982 351.857 804.664 352.514C804.352 353.165 803.901 353.673 803.312 354.037C802.729 354.402 802.057 354.584 801.297 354.584C800.151 354.584 799.221 354.186 798.508 353.389C797.799 352.592 797.445 351.537 797.445 350.225V350.123ZM798.898 350.295C798.898 351.232 799.115 351.985 799.547 352.553C799.984 353.12 800.568 353.404 801.297 353.404C802.031 353.404 802.615 353.118 803.047 352.545C803.479 351.967 803.695 351.16 803.695 350.123C803.695 349.196 803.474 348.446 803.031 347.873C802.594 347.295 802.01 347.006 801.281 347.006C800.568 347.006 799.992 347.29 799.555 347.857C799.117 348.425 798.898 349.238 798.898 350.295ZM814.438 352.436L816.062 345.975H817.508L815.047 354.428H813.875L811.82 348.021L809.82 354.428H808.648L806.195 345.975H807.633L809.297 352.303L811.266 345.975H812.43L814.438 352.436ZM822.492 354.584C821.346 354.584 820.414 354.209 819.695 353.459C818.977 352.704 818.617 351.696 818.617 350.436V350.17C818.617 349.331 818.776 348.584 819.094 347.928C819.417 347.266 819.865 346.751 820.438 346.381C821.016 346.006 821.641 345.818 822.312 345.818C823.411 345.818 824.266 346.18 824.875 346.904C825.484 347.628 825.789 348.665 825.789 350.014V350.615H820.062C820.083 351.449 820.326 352.123 820.789 352.639C821.258 353.149 821.852 353.404 822.57 353.404C823.081 353.404 823.513 353.3 823.867 353.092C824.221 352.883 824.531 352.607 824.797 352.264L825.68 352.951C824.971 354.04 823.909 354.584 822.492 354.584ZM822.312 347.006C821.729 347.006 821.24 347.219 820.844 347.646C820.448 348.068 820.203 348.662 820.109 349.428H824.344V349.318C824.302 348.584 824.104 348.016 823.75 347.615C823.396 347.209 822.917 347.006 822.312 347.006ZM831.555 347.271C831.336 347.235 831.099 347.217 830.844 347.217C829.896 347.217 829.253 347.62 828.914 348.428V354.428H827.469V345.975H828.875L828.898 346.951C829.372 346.196 830.044 345.818 830.914 345.818C831.195 345.818 831.409 345.855 831.555 345.928V347.271ZM834.25 345.975L834.289 346.912C834.909 346.183 835.745 345.818 836.797 345.818C837.979 345.818 838.784 346.271 839.211 347.178C839.492 346.771 839.857 346.443 840.305 346.193C840.758 345.943 841.292 345.818 841.906 345.818C843.76 345.818 844.703 346.8 844.734 348.764V354.428H843.289V348.85C843.289 348.245 843.151 347.795 842.875 347.498C842.599 347.196 842.135 347.045 841.484 347.045C840.948 347.045 840.503 347.206 840.148 347.529C839.794 347.847 839.589 348.277 839.531 348.818V354.428H838.078V348.889C838.078 347.66 837.477 347.045 836.273 347.045C835.326 347.045 834.677 347.449 834.328 348.256V354.428H832.883V345.975H834.25ZM850.43 354.584C849.284 354.584 848.352 354.209 847.633 353.459C846.914 352.704 846.555 351.696 846.555 350.436V350.17C846.555 349.331 846.714 348.584 847.031 347.928C847.354 347.266 847.802 346.751 848.375 346.381C848.953 346.006 849.578 345.818 850.25 345.818C851.349 345.818 852.203 346.18 852.812 346.904C853.422 347.628 853.727 348.665 853.727 350.014V350.615H848C848.021 351.449 848.263 352.123 848.727 352.639C849.195 353.149 849.789 353.404 850.508 353.404C851.018 353.404 851.451 353.3 851.805 353.092C852.159 352.883 852.469 352.607 852.734 352.264L853.617 352.951C852.909 354.04 851.846 354.584 850.43 354.584ZM850.25 347.006C849.667 347.006 849.177 347.219 848.781 347.646C848.385 348.068 848.141 348.662 848.047 349.428H852.281V349.318C852.24 348.584 852.042 348.016 851.688 347.615C851.333 347.209 850.854 347.006 850.25 347.006ZM856.773 345.975L856.82 347.037C857.466 346.225 858.31 345.818 859.352 345.818C861.138 345.818 862.039 346.826 862.055 348.842V354.428H860.609V348.834C860.604 348.225 860.464 347.774 860.188 347.482C859.917 347.191 859.492 347.045 858.914 347.045C858.445 347.045 858.034 347.17 857.68 347.42C857.326 347.67 857.049 347.998 856.852 348.404V354.428H855.406V345.975H856.773ZM866.195 343.928V345.975H867.773V347.092H866.195V352.334C866.195 352.673 866.266 352.928 866.406 353.1C866.547 353.266 866.786 353.35 867.125 353.35C867.292 353.35 867.521 353.318 867.812 353.256V354.428C867.432 354.532 867.062 354.584 866.703 354.584C866.057 354.584 865.57 354.389 865.242 353.998C864.914 353.607 864.75 353.053 864.75 352.334V347.092H863.211V345.975H864.75V343.928H866.195Z" fill="#2B334E"/>
<path fill-rule="evenodd" clip-rule="evenodd" d="M835.733 272.934C835.729 272.784 835.685 272.642 835.645 272.499C835.614 272.378 835.6 272.255 835.547 272.144C835.5 272.036 835.418 271.949 835.347 271.849C835.26 271.721 835.181 271.594 835.068 271.49C835.05 271.471 835.041 271.446 835.02 271.43C834.945 271.365 834.854 271.342 834.772 271.29C834.647 271.209 834.525 271.126 834.383 271.071C834.243 271.021 834.106 271.009 833.962 270.988C833.862 270.974 833.772 270.928 833.666 270.928H823.25C822.097 270.928 821.166 271.861 821.166 273.011C821.166 274.161 822.097 275.094 823.25 275.094H829.137L820.729 284.903L811.82 279.559C810.939 279.026 809.806 279.221 809.147 280.011L798.731 292.511C797.995 293.394 798.114 294.709 798.997 295.444C799.389 295.769 799.86 295.928 800.331 295.928C800.929 295.928 801.52 295.674 801.933 295.178L811.208 284.049L820.093 289.382C820.966 289.905 822.087 289.721 822.747 288.951L831.583 278.642V283.428C831.583 284.578 832.514 285.511 833.666 285.511C834.818 285.511 835.75 284.578 835.75 283.428V273.011C835.75 272.984 835.735 272.961 835.733 272.934" fill="#F05665"/>
<mask id="mask6" mask-type="alpha" maskUnits="userSpaceOnUse" x="798" y="270" width="38" height="26">
<path fill-rule="evenodd" clip-rule="evenodd" d="M835.733 272.934C835.729 272.784 835.685 272.642 835.645 272.499C835.614 272.378 835.6 272.255 835.547 272.144C835.5 272.036 835.418 271.949 835.347 271.849C835.26 271.721 835.181 271.594 835.068 271.49C835.05 271.471 835.041 271.446 835.02 271.43C834.945 271.365 834.854 271.342 834.772 271.29C834.647 271.209 834.525 271.126 834.383 271.071C834.243 271.021 834.106 271.009 833.962 270.988C833.862 270.974 833.772 270.928 833.666 270.928H823.25C822.097 270.928 821.166 271.861 821.166 273.011C821.166 274.161 822.097 275.094 823.25 275.094H829.137L820.729 284.903L811.82 279.559C810.939 279.026 809.806 279.221 809.147 280.011L798.731 292.511C797.995 293.394 798.114 294.709 798.997 295.444C799.389 295.769 799.86 295.928 800.331 295.928C800.929 295.928 801.52 295.674 801.933 295.178L811.208 284.049L820.093 289.382C820.966 289.905 822.087 289.721 822.747 288.951L831.583 278.642V283.428C831.583 284.578 832.514 285.511 833.666 285.511C834.818 285.511 835.75 284.578 835.75 283.428V273.011C835.75 272.984 835.735 272.961 835.733 272.934" fill="white"/>
</mask>
<g mask="url(#mask6)">
<rect x="792" y="258.428" width="50" height="50" fill="#F05665"/>
</g>
<path d="M129.406 283.551C128.073 281.238 120.74 269.634 108.281 270.009C96.7604 270.301 90.0938 280.426 88.2812 283.551C87.9062 284.196 87.9062 284.988 88.2812 285.634C89.5938 287.905 96.6146 299.176 108.885 299.176H109.406C120.927 298.884 127.615 288.759 129.406 285.634C129.781 284.988 129.781 284.196 129.406 283.551ZM109.302 295.009C100.323 295.217 94.4687 287.53 92.6354 284.592C94.7187 281.238 100.156 274.384 108.49 274.176C117.427 273.946 123.302 281.655 125.156 284.592C123.01 287.946 117.635 294.801 109.302 295.009Z" fill="#FF5364"/>
<path d="M108.844 277.301C104.823 277.301 101.552 280.572 101.552 284.592C101.552 288.613 104.823 291.884 108.844 291.884C112.865 291.884 116.136 288.613 116.136 284.592C116.136 280.572 112.865 277.301 108.844 277.301ZM108.844 287.717C107.115 287.717 105.719 286.322 105.719 284.592C105.719 282.863 107.115 281.467 108.844 281.467C110.573 281.467 111.969 282.863 111.969 284.592C111.969 286.322 110.573 287.717 108.844 287.717Z" fill="#FF5364"/>
<defs>
<filter id="filter0_d" x="0" y="0" width="217" height="193" filterUnits="userSpaceOnUse" color-interpolation-filters="sRGB">
<feFlood flood-opacity="0" result="BackgroundImageFix"/>
<feColorMatrix in="SourceAlpha" type="matrix" values="0 0 0 0 0 0 0 0 0 0 0 0 0 0 0 0 0 0 127 0"/>
<feOffset dy="5"/>
<feGaussianBlur stdDeviation="7.5"/>
<feColorMatrix type="matrix" values="0 0 0 0 0.290196 0 0 0 0 0.47451 0 0 0 0 0.827451 0 0 0 0.08 0"/>
<feBlend mode="normal" in2="BackgroundImageFix" result="effect1_dropShadow"/>
<feBlend mode="normal" in="SourceGraphic" in2="effect1_dropShadow" result="shape"/>
</filter>
<filter id="filter1_d" x="0" y="222.428" width="217" height="193" filterUnits="userSpaceOnUse" color-interpolation-filters="sRGB">
<feFlood flood-opacity="0" result="BackgroundImageFix"/>
<feColorMatrix in="SourceAlpha" type="matrix" values="0 0 0 0 0 0 0 0 0 0 0 0 0 0 0 0 0 0 127 0"/>
<feOffset dy="5"/>
<feGaussianBlur stdDeviation="7.5"/>
<feColorMatrix type="matrix" values="0 0 0 0 0.290196 0 0 0 0 0.47451 0 0 0 0 0.827451 0 0 0 0.08 0"/>
<feBlend mode="normal" in2="BackgroundImageFix" result="effect1_dropShadow"/>
<feBlend mode="normal" in="SourceGraphic" in2="effect1_dropShadow" result="shape"/>
</filter>
<filter id="filter2_d" x="236" y="0" width="217" height="193" filterUnits="userSpaceOnUse" color-interpolation-filters="sRGB">
<feFlood flood-opacity="0" result="BackgroundImageFix"/>
<feColorMatrix in="SourceAlpha" type="matrix" values="0 0 0 0 0 0 0 0 0 0 0 0 0 0 0 0 0 0 127 0"/>
<feOffset dy="5"/>
<feGaussianBlur stdDeviation="7.5"/>
<feColorMatrix type="matrix" values="0 0 0 0 0.290196 0 0 0 0 0.47451 0 0 0 0 0.827451 0 0 0 0.08 0"/>
<feBlend mode="normal" in2="BackgroundImageFix" result="effect1_dropShadow"/>
<feBlend mode="normal" in="SourceGraphic" in2="effect1_dropShadow" result="shape"/>
</filter>
<filter id="filter3_d" x="236" y="222.428" width="217" height="193" filterUnits="userSpaceOnUse" color-interpolation-filters="sRGB">
<feFlood flood-opacity="0" result="BackgroundImageFix"/>
<feColorMatrix in="SourceAlpha" type="matrix" values="0 0 0 0 0 0 0 0 0 0 0 0 0 0 0 0 0 0 127 0"/>
<feOffset dy="5"/>
<feGaussianBlur stdDeviation="7.5"/>
<feColorMatrix type="matrix" values="0 0 0 0 0.290196 0 0 0 0 0.47451 0 0 0 0 0.827451 0 0 0 0.08 0"/>
<feBlend mode="normal" in2="BackgroundImageFix" result="effect1_dropShadow"/>
<feBlend mode="normal" in="SourceGraphic" in2="effect1_dropShadow" result="shape"/>
</filter>
<filter id="filter4_d" x="472" y="0" width="217" height="193" filterUnits="userSpaceOnUse" color-interpolation-filters="sRGB">
<feFlood flood-opacity="0" result="BackgroundImageFix"/>
<feColorMatrix in="SourceAlpha" type="matrix" values="0 0 0 0 0 0 0 0 0 0 0 0 0 0 0 0 0 0 127 0"/>
<feOffset dy="5"/>
<feGaussianBlur stdDeviation="7.5"/>
<feColorMatrix type="matrix" values="0 0 0 0 0.290196 0 0 0 0 0.47451 0 0 0 0 0.827451 0 0 0 0.08 0"/>
<feBlend mode="normal" in2="BackgroundImageFix" result="effect1_dropShadow"/>
<feBlend mode="normal" in="SourceGraphic" in2="effect1_dropShadow" result="shape"/>
</filter>
<filter id="filter5_d" x="472" y="222.428" width="217" height="193" filterUnits="userSpaceOnUse" color-interpolation-filters="sRGB">
<feFlood flood-opacity="0" result="BackgroundImageFix"/>
<feColorMatrix in="SourceAlpha" type="matrix" values="0 0 0 0 0 0 0 0 0 0 0 0 0 0 0 0 0 0 127 0"/>
<feOffset dy="5"/>
<feGaussianBlur stdDeviation="7.5"/>
<feColorMatrix type="matrix" values="0 0 0 0 0.290196 0 0 0 0 0.47451 0 0 0 0 0.827451 0 0 0 0.08 0"/>
<feBlend mode="normal" in2="BackgroundImageFix" result="effect1_dropShadow"/>
<feBlend mode="normal" in="SourceGraphic" in2="effect1_dropShadow" result="shape"/>
</filter>
<filter id="filter6_d" x="708" y="0" width="217" height="193" filterUnits="userSpaceOnUse" color-interpolation-filters="sRGB">
<feFlood flood-opacity="0" result="BackgroundImageFix"/>
<feColorMatrix in="SourceAlpha" type="matrix" values="0 0 0 0 0 0 0 0 0 0 0 0 0 0 0 0 0 0 127 0"/>
<feOffset dy="5"/>
<feGaussianBlur stdDeviation="7.5"/>
<feColorMatrix type="matrix" values="0 0 0 0 0.290196 0 0 0 0 0.47451 0 0 0 0 0.827451 0 0 0 0.08 0"/>
<feBlend mode="normal" in2="BackgroundImageFix" result="effect1_dropShadow"/>
<feBlend mode="normal" in="SourceGraphic" in2="effect1_dropShadow" result="shape"/>
</filter>
<filter id="filter7_d" x="708" y="222.428" width="217" height="193" filterUnits="userSpaceOnUse" color-interpolation-filters="sRGB">
<feFlood flood-opacity="0" result="BackgroundImageFix"/>
<feColorMatrix in="SourceAlpha" type="matrix" values="0 0 0 0 0 0 0 0 0 0 0 0 0 0 0 0 0 0 127 0"/>
<feOffset dy="5"/>
<feGaussianBlur stdDeviation="7.5"/>
<feColorMatrix type="matrix" values="0 0 0 0 0.290196 0 0 0 0 0.47451 0 0 0 0 0.827451 0 0 0 0.08 0"/>
<feBlend mode="normal" in2="BackgroundImageFix" result="effect1_dropShadow"/>
<feBlend mode="normal" in="SourceGraphic" in2="effect1_dropShadow" result="shape"/>
</filter>
</defs>
</svg>
