<svg width="287" height="263" viewBox="0 0 287 263" fill="none" xmlns="http://www.w3.org/2000/svg">
<g filter="url(#filter0_d)">
<rect x="45" y="30" width="187" height="163" rx="32" fill="white"/>
</g>
<path d="M107.734 139.96C107.296 139.96 107.078 139.736 107.078 139.288C107.078 138.861 107.296 138.648 107.734 138.648C108.15 138.648 108.358 138.861 108.358 139.288C108.358 139.736 108.15 139.96 107.734 139.96ZM109.558 139.96C109.12 139.96 108.902 139.736 108.902 139.288C108.902 138.861 109.12 138.648 109.558 138.648C109.974 138.648 110.182 138.861 110.182 139.288C110.182 139.736 109.974 139.96 109.558 139.96ZM112.662 148.008H113.206V149H112.518C111.376 149 110.582 148.552 110.134 147.656C109.579 148.232 108.896 148.52 108.086 148.52C107.168 148.52 106.443 148.173 105.91 147.48C105.462 146.893 105.238 146.163 105.238 145.288C105.238 144.264 105.536 143.443 106.134 142.824C106.656 142.28 107.302 142.008 108.07 142.008C108.763 142.008 109.344 142.211 109.814 142.616V141.752L110.886 141.192V146.184C110.886 147.4 111.478 148.008 112.662 148.008ZM109.814 143.832C109.344 143.267 108.774 142.984 108.102 142.984C107.568 142.984 107.131 143.203 106.79 143.64C106.459 144.067 106.294 144.621 106.294 145.304C106.294 145.997 106.459 146.552 106.79 146.968C107.131 147.384 107.574 147.592 108.118 147.592C108.811 147.592 109.387 147.288 109.846 146.68C109.824 146.488 109.814 146.333 109.814 146.216V143.832ZM118.031 148.008H118.591V149H117.903C116.943 149 116.223 148.675 115.743 148.024C115.242 148.675 114.516 149 113.567 149H112.879V148.008H113.439C114.612 148.008 115.199 147.4 115.199 146.184V142.712L116.271 142.152V146.184C116.271 147.4 116.858 148.008 118.031 148.008ZM114.399 150.68C114.826 150.68 115.039 150.899 115.039 151.336C115.039 151.773 114.826 151.992 114.399 151.992C113.972 151.992 113.759 151.773 113.759 151.336C113.759 150.899 113.972 150.68 114.399 150.68ZM116.223 150.68C116.65 150.68 116.863 150.899 116.863 151.336C116.863 151.773 116.65 151.992 116.223 151.992C115.796 151.992 115.583 151.773 115.583 151.336C115.583 150.899 115.796 150.68 116.223 150.68ZM118.27 149V148.008H118.718C119.934 148.008 120.542 147.379 120.542 146.12V139.24L121.614 138.68V146.136C121.614 147.043 121.347 147.757 120.814 148.28C120.312 148.76 119.651 149 118.83 149H118.27ZM131.519 148.008V149H129.823C129.812 149.704 129.583 150.323 129.135 150.856C128.697 151.4 128.127 151.757 127.423 151.928C127.167 152.003 126.889 152.04 126.591 152.04C125.972 152.04 125.369 151.891 124.783 151.592V150.648C125.337 150.947 125.887 151.096 126.431 151.096C126.868 151.096 127.252 151 127.583 150.808C127.913 150.637 128.191 150.376 128.415 150.024C128.639 149.683 128.751 149.341 128.751 149L127.391 148.952C126.207 148.899 125.321 148.525 124.735 147.832C124.255 147.245 124.015 146.461 124.015 145.48C124.015 144.328 124.313 143.437 124.911 142.808C125.444 142.243 126.159 141.96 127.055 141.96C127.983 141.96 128.692 142.237 129.183 142.792C129.609 143.272 129.823 143.912 129.823 144.712V148.008H131.519ZM128.751 144.824C128.751 143.565 128.185 142.936 127.055 142.936C126.425 142.936 125.935 143.16 125.583 143.608C125.241 144.045 125.071 144.664 125.071 145.464C125.071 147.053 125.855 147.885 127.423 147.96C127.892 147.992 128.335 148.008 128.751 148.008V144.824ZM135.336 139.448L135.032 140.008H132.568L132.872 139.448H133.272C133.176 139.256 133.128 139.064 133.128 138.872C133.128 138.573 133.24 138.312 133.464 138.088C133.688 137.864 133.949 137.752 134.248 137.752C134.493 137.752 134.728 137.827 134.952 137.976V138.568C134.738 138.419 134.53 138.344 134.328 138.344C134.157 138.344 134.008 138.397 133.88 138.504C133.762 138.611 133.704 138.739 133.704 138.888C133.704 139.08 133.784 139.267 133.944 139.448H135.336ZM136.344 148.008H136.904V149H136.216C135.256 149 134.536 148.675 134.056 148.024C133.554 148.675 132.829 149 131.88 149H131.192V148.008H131.752C132.925 148.008 133.512 147.4 133.512 146.184V142.712L134.584 142.152V146.184C134.584 147.4 135.17 148.008 136.344 148.008ZM136.582 149V148.008H137.558C138.742 148.008 139.334 147.4 139.334 146.184V143.88L140.406 143.32V146.184C140.406 147.4 140.993 148.008 142.166 148.008H142.758C143.932 148.008 144.518 147.4 144.518 146.184V143.304L145.59 142.728V146.184C145.59 147.4 146.182 148.008 147.366 148.008H147.942C149.126 148.008 149.718 147.4 149.718 146.184V142.712L150.79 142.152V146.12C150.79 147.379 151.398 148.008 152.614 148.008H153.542V149H152.502C151.489 149 150.748 148.643 150.278 147.928C149.809 148.643 149.084 149 148.102 149H147.222C146.23 149 145.51 148.648 145.062 147.944C144.604 148.648 143.889 149 142.918 149H142.038C141.046 149 140.321 148.648 139.862 147.944C139.414 148.648 138.694 149 137.702 149H136.582ZM163.287 148.008H163.831V149H163.143C162.172 149 161.447 148.664 160.967 147.992C160.433 148.877 159.623 149.32 158.535 149.32C157.436 149.32 156.625 148.883 156.103 148.008C155.612 148.669 154.881 149 153.911 149H153.223V148.008H153.783C154.956 148.008 155.543 147.4 155.543 146.184V145.64C155.543 144.413 155.841 143.475 156.439 142.824C156.961 142.248 157.66 141.96 158.535 141.96C159.537 141.96 160.3 142.333 160.823 143.08C161.281 143.72 161.511 144.573 161.511 145.64V146.184C161.511 147.4 162.103 148.008 163.287 148.008ZM158.535 148.328C159.121 148.328 159.585 148.088 159.927 147.608C160.268 147.117 160.439 146.456 160.439 145.624C160.439 143.832 159.804 142.936 158.535 142.936C157.255 142.936 156.615 143.832 156.615 145.624C156.615 147.427 157.255 148.328 158.535 148.328ZM163.504 149V148.008H163.952C165.168 148.008 165.776 147.379 165.776 146.12V139.24L166.848 138.68V146.136C166.848 147.043 166.581 147.757 166.048 148.28C165.547 148.76 164.885 149 164.064 149H163.504ZM169.729 149V139.24L170.801 138.68V149H169.729Z" fill="black"/>
<path fill-rule="evenodd" clip-rule="evenodd" d="M139 64.6385L124.417 72.8427V73.1448C124.417 83.0198 129.762 92.1635 138.371 97.0073L139 97.3614L139.629 97.0073C148.238 92.1635 153.583 83.0198 153.583 73.1448V72.8427L139 64.6385ZM139 101.522C138.294 101.522 137.587 101.347 136.96 100.993L136.329 100.637C126.41 95.0598 120.25 84.5244 120.25 73.1452V72.8432C120.25 71.3452 121.062 69.9536 122.371 69.214L136.958 61.0098C138.219 60.3015 139.783 60.2994 141.04 61.0077L155.625 69.2119C156.937 69.9536 157.75 71.3452 157.75 72.8432V73.1452C157.75 84.5244 151.59 95.0598 141.671 100.637L141.042 100.991C140.412 101.345 139.706 101.522 139 101.522Z" fill="#FF5364"/>
<mask id="mask0" mask-type="alpha" maskUnits="userSpaceOnUse" x="120" y="60" width="38" height="42">
<path fill-rule="evenodd" clip-rule="evenodd" d="M139 64.6385L124.417 72.8427V73.1448C124.417 83.0198 129.762 92.1635 138.371 97.0073L139 97.3614L139.629 97.0073C148.238 92.1635 153.583 83.0198 153.583 73.1448V72.8427L139 64.6385ZM139 101.522C138.294 101.522 137.587 101.347 136.96 100.993L136.329 100.637C126.41 95.0598 120.25 84.5244 120.25 73.1452V72.8432C120.25 71.3452 121.062 69.9536 122.371 69.214L136.958 61.0098C138.219 60.3015 139.783 60.2994 141.04 61.0077L155.625 69.2119C156.937 69.9536 157.75 71.3452 157.75 72.8432V73.1452C157.75 84.5244 151.59 95.0598 141.671 100.637L141.042 100.991C140.412 101.345 139.706 101.522 139 101.522Z" fill="white"/>
</mask>
<g mask="url(#mask0)">
<rect x="114" y="56" width="50" height="50" fill="#FF5364"/>
</g>
<defs>
<filter id="filter0_d" x="0" y="0" width="287" height="263" filterUnits="userSpaceOnUse" color-interpolation-filters="sRGB">
<feFlood flood-opacity="0" result="BackgroundImageFix"/>
<feColorMatrix in="SourceAlpha" type="matrix" values="0 0 0 0 0 0 0 0 0 0 0 0 0 0 0 0 0 0 127 0"/>
<feOffset dx="5" dy="20"/>
<feGaussianBlur stdDeviation="25"/>
<feColorMatrix type="matrix" values="0 0 0 0 0.290196 0 0 0 0 0.47451 0 0 0 0 0.827451 0 0 0 0.2 0"/>
<feBlend mode="normal" in2="BackgroundImageFix" result="effect1_dropShadow"/>
<feBlend mode="normal" in="SourceGraphic" in2="effect1_dropShadow" result="shape"/>
</filter>
</defs>
</svg>
