<svg width="287" height="263" viewBox="0 0 287 263" fill="none" xmlns="http://www.w3.org/2000/svg">
<g filter="url(#filter0_d)">
<rect x="45" y="30" width="187" height="163" rx="32" fill="white"/>
</g>
<path d="M125.778 148.008H126.338V149H125.65C124.967 149 124.396 148.829 123.938 148.488C123.852 149.619 123.399 150.509 122.578 151.16C121.842 151.747 120.914 152.04 119.794 152.04C118.407 152.04 117.34 151.565 116.594 150.616C116.007 149.88 115.714 149 115.714 147.976C115.714 147.048 115.948 146.264 116.418 145.624L117.474 145.384C116.951 146.152 116.69 146.995 116.69 147.912C116.69 148.851 116.994 149.619 117.602 150.216C118.178 150.781 118.908 151.064 119.794 151.064C120.818 151.064 121.612 150.755 122.178 150.136C122.658 149.624 122.898 148.957 122.898 148.136V139.24L123.954 138.68V146.2V146.232C123.954 147.416 124.562 148.008 125.778 148.008ZM128.332 144.712C128.332 143.805 128.604 143.101 129.148 142.6C129.617 142.173 130.236 141.96 131.004 141.96C131.996 141.96 132.759 142.323 133.292 143.048C133.751 143.667 133.98 144.477 133.98 145.48C133.98 146.621 133.687 147.512 133.1 148.152C132.588 148.717 131.921 149 131.1 149C130.097 149 129.351 148.68 128.86 148.04C128.38 148.68 127.66 149 126.7 149H126.012V148.008H126.572C127.745 148.008 128.332 147.4 128.332 146.184V144.712ZM129.404 146.248C129.404 147.421 129.98 148.008 131.132 148.008C131.687 148.008 132.124 147.784 132.444 147.336C132.764 146.888 132.924 146.264 132.924 145.464C132.924 144.675 132.753 144.056 132.412 143.608C132.081 143.16 131.612 142.936 131.004 142.936C129.937 142.936 129.404 143.56 129.404 144.808V146.248ZM139.332 149C138.425 149 137.726 148.707 137.236 148.12C136.83 147.619 136.628 146.984 136.628 146.216V139.24L137.7 138.68V146.184C137.7 147.4 138.286 148.008 139.46 148.008H140.02V149H139.332ZM148.195 148.008H148.595V149H148.067C147.107 149 146.387 148.675 145.907 148.024C145.427 148.675 144.702 149 143.731 149H139.699V148.008H143.619C144.782 148.008 145.363 147.384 145.363 146.136V145.976C145.363 145.101 145.043 144.445 144.403 144.008C143.891 143.645 143.251 143.464 142.483 143.464C141.907 143.464 141.337 143.565 140.771 143.768V142.712L144.403 138.68H145.507L142.227 142.392C142.334 142.381 142.446 142.376 142.563 142.376C143.587 142.376 144.441 142.637 145.123 143.16C145.998 143.832 146.435 144.765 146.435 145.96V146.184C146.435 147.4 147.022 148.008 148.195 148.008ZM149.894 140.088C149.467 140.088 149.254 139.869 149.254 139.432C149.254 138.995 149.467 138.776 149.894 138.776C150.32 138.776 150.534 138.995 150.534 139.432C150.534 139.869 150.32 140.088 149.894 140.088ZM151.718 140.088C151.291 140.088 151.078 139.869 151.078 139.432C151.078 138.995 151.291 138.776 151.718 138.776C152.144 138.776 152.358 138.995 152.358 139.432C152.358 139.869 152.144 140.088 151.718 140.088ZM153.43 148.008H153.99V149H153.302C152.342 149 151.622 148.675 151.142 148.024C150.64 148.675 149.915 149 148.965 149H148.277V148.008H148.838C150.011 148.008 150.598 147.4 150.598 146.184V142.712L151.67 142.152V146.184C151.67 147.4 152.256 148.008 153.43 148.008ZM153.668 149V148.008H154.116C155.332 148.008 155.94 147.379 155.94 146.12V139.24L157.012 138.68V146.136C157.012 147.043 156.745 147.757 156.212 148.28C155.711 148.76 155.049 149 154.228 149H153.668ZM159.893 149V139.24L160.965 138.68V149H159.893Z" fill="#2B334E"/>
<path fill-rule="evenodd" clip-rule="evenodd" d="M123.173 80.2126C125.498 81.0105 127.35 82.9564 128.125 85.423L128.208 85.673C129.096 88.2897 128.735 91.1064 127.248 93.2189C126.977 93.6022 127.037 94.0605 127.323 94.2772L131.639 97.5564C131.791 97.6709 131.939 97.6709 132.031 97.6605C132.135 97.6439 132.287 97.5876 132.41 97.4126L132.891 96.7293C134.327 94.6939 136.639 93.4376 139.081 93.3668C141.823 93.3105 144.285 94.5668 145.819 96.7814L146.064 97.1376C146.187 97.3126 146.337 97.3709 146.444 97.3876C146.535 97.4064 146.685 97.4001 146.835 97.2834L151.129 94.0439C151.429 93.8189 151.496 93.3376 151.273 93.0147L150.731 92.2334C149.335 90.2168 148.921 87.6001 149.623 85.2355C150.385 82.6605 152.325 80.623 154.814 79.7897L155.233 79.648C155.569 79.5376 155.75 79.1209 155.631 78.7376L153.991 73.4855C153.914 73.2397 153.756 73.1293 153.669 73.0834C153.544 73.0189 153.408 73.0084 153.279 73.0522L152.571 73.2876C150.148 74.0939 147.475 73.6564 145.423 72.1126L145.198 71.9439C143.248 70.4772 142.087 68.1126 142.096 65.6209L142.1 65.0376C142.1 64.7605 141.969 64.5876 141.889 64.5084C141.814 64.4314 141.687 64.3397 141.508 64.3397L136.202 64.3334C135.877 64.3334 135.612 64.6439 135.61 65.0272L135.608 65.5314C135.598 68.0626 134.412 70.4709 132.437 71.9772L132.169 72.1814C129.996 73.8334 127.162 74.3001 124.596 73.4251C124.498 73.3918 124.406 73.398 124.319 73.4439C124.252 73.4772 124.131 73.5626 124.073 73.7522L122.371 79.1605C122.248 79.5543 122.45 79.9647 122.831 80.0959L123.173 80.2126ZM131.946 101.833C130.933 101.833 129.95 101.504 129.121 100.873L124.804 97.5959C122.741 96.0334 122.285 93.0272 123.785 90.8959C124.564 89.7918 124.725 88.373 124.266 87.0272L124.152 86.6772C123.771 85.4647 122.9 84.523 121.823 84.1543H121.821L121.481 84.0355C118.943 83.1668 117.589 80.4772 118.396 77.9105L120.096 72.5043C120.481 71.2814 121.312 70.2939 122.437 69.7251C123.537 69.1709 124.781 69.0855 125.943 69.4834C127.191 69.9084 128.577 69.6772 129.646 68.8647L129.914 68.6605C130.864 67.9355 131.437 66.7584 131.441 65.5147L131.443 65.0126C131.454 62.3376 133.589 60.1668 136.2 60.1668H136.208L141.514 60.173C142.768 60.1751 143.952 60.6709 144.843 61.5689C145.766 62.4959 146.271 63.7355 146.266 65.0584L146.262 65.6397C146.258 66.8189 146.798 67.9334 147.708 68.6168L147.931 68.7855C148.887 69.5043 150.133 69.7105 151.252 69.3355L151.958 69.1001C153.16 68.7001 154.439 68.798 155.566 69.3751C156.723 69.9668 157.577 70.9855 157.968 72.2459L159.608 77.498C160.4 80.0355 159.029 82.773 156.556 83.6001L156.137 83.7397C154.937 84.1439 153.993 85.1439 153.616 86.4189C153.271 87.5876 153.471 88.873 154.156 89.8605L154.698 90.6418C156.185 92.7918 155.71 95.8084 153.639 97.3689L149.346 100.611C148.314 101.39 147.05 101.704 145.781 101.502C144.502 101.296 143.385 100.588 142.637 99.5084L142.391 99.1501C141.662 98.1001 140.496 97.4626 139.273 97.5314C138.048 97.5647 136.989 98.1459 136.298 99.1293L135.816 99.8126C135.062 100.881 133.943 101.579 132.671 101.779C132.427 101.817 132.185 101.833 131.946 101.833ZM139 77.875C137.277 77.875 135.875 79.2771 135.875 81C135.875 82.7229 137.277 84.125 139 84.125C140.723 84.125 142.125 82.7229 142.125 81C142.125 79.2771 140.723 77.875 139 77.875ZM139 88.2917C134.979 88.2917 131.708 85.0208 131.708 81C131.708 76.9792 134.979 73.7083 139 73.7083C143.021 73.7083 146.292 76.9792 146.292 81C146.292 85.0208 143.021 88.2917 139 88.2917Z" fill="#FF5364"/>
<mask id="mask0" mask-type="alpha" maskUnits="userSpaceOnUse" x="118" y="60" width="42" height="42">
<path fill-rule="evenodd" clip-rule="evenodd" d="M123.173 80.2126C125.498 81.0105 127.35 82.9564 128.125 85.423L128.208 85.673C129.096 88.2897 128.735 91.1064 127.248 93.2189C126.977 93.6022 127.037 94.0605 127.323 94.2772L131.639 97.5564C131.791 97.6709 131.939 97.6709 132.031 97.6605C132.135 97.6439 132.287 97.5876 132.41 97.4126L132.891 96.7293C134.327 94.6939 136.639 93.4376 139.081 93.3668C141.823 93.3105 144.285 94.5668 145.819 96.7814L146.064 97.1376C146.187 97.3126 146.337 97.3709 146.444 97.3876C146.535 97.4064 146.685 97.4001 146.835 97.2834L151.129 94.0439C151.429 93.8189 151.496 93.3376 151.273 93.0147L150.731 92.2334C149.335 90.2168 148.921 87.6001 149.623 85.2355C150.385 82.6605 152.325 80.623 154.814 79.7897L155.233 79.648C155.569 79.5376 155.75 79.1209 155.631 78.7376L153.991 73.4855C153.914 73.2397 153.756 73.1293 153.669 73.0834C153.544 73.0189 153.408 73.0084 153.279 73.0522L152.571 73.2876C150.148 74.0939 147.475 73.6564 145.423 72.1126L145.198 71.9439C143.248 70.4772 142.087 68.1126 142.096 65.6209L142.1 65.0376C142.1 64.7605 141.969 64.5876 141.889 64.5084C141.814 64.4314 141.687 64.3397 141.508 64.3397L136.202 64.3334C135.877 64.3334 135.612 64.6439 135.61 65.0272L135.608 65.5314C135.598 68.0626 134.412 70.4709 132.437 71.9772L132.169 72.1814C129.996 73.8334 127.162 74.3001 124.596 73.4251C124.498 73.3918 124.406 73.398 124.319 73.4439C124.252 73.4772 124.131 73.5626 124.073 73.7522L122.371 79.1605C122.248 79.5543 122.45 79.9647 122.831 80.0959L123.173 80.2126ZM131.946 101.833C130.933 101.833 129.95 101.504 129.121 100.873L124.804 97.5959C122.741 96.0334 122.285 93.0272 123.785 90.8959C124.564 89.7918 124.725 88.373 124.266 87.0272L124.152 86.6772C123.771 85.4647 122.9 84.523 121.823 84.1543H121.821L121.481 84.0355C118.943 83.1668 117.589 80.4772 118.396 77.9105L120.096 72.5043C120.481 71.2814 121.312 70.2939 122.437 69.7251C123.537 69.1709 124.781 69.0855 125.943 69.4834C127.191 69.9084 128.577 69.6772 129.646 68.8647L129.914 68.6605C130.864 67.9355 131.437 66.7584 131.441 65.5147L131.443 65.0126C131.454 62.3376 133.589 60.1668 136.2 60.1668H136.208L141.514 60.173C142.768 60.1751 143.952 60.6709 144.843 61.5689C145.766 62.4959 146.271 63.7355 146.266 65.0584L146.262 65.6397C146.258 66.8189 146.798 67.9334 147.708 68.6168L147.931 68.7855C148.887 69.5043 150.133 69.7105 151.252 69.3355L151.958 69.1001C153.16 68.7001 154.439 68.798 155.566 69.3751C156.723 69.9668 157.577 70.9855 157.968 72.2459L159.608 77.498C160.4 80.0355 159.029 82.773 156.556 83.6001L156.137 83.7397C154.937 84.1439 153.993 85.1439 153.616 86.4189C153.271 87.5876 153.471 88.873 154.156 89.8605L154.698 90.6418C156.185 92.7918 155.71 95.8084 153.639 97.3689L149.346 100.611C148.314 101.39 147.05 101.704 145.781 101.502C144.502 101.296 143.385 100.588 142.637 99.5084L142.391 99.1501C141.662 98.1001 140.496 97.4626 139.273 97.5314C138.048 97.5647 136.989 98.1459 136.298 99.1293L135.816 99.8126C135.062 100.881 133.943 101.579 132.671 101.779C132.427 101.817 132.185 101.833 131.946 101.833ZM139 77.875C137.277 77.875 135.875 79.2771 135.875 81C135.875 82.7229 137.277 84.125 139 84.125C140.723 84.125 142.125 82.7229 142.125 81C142.125 79.2771 140.723 77.875 139 77.875ZM139 88.2917C134.979 88.2917 131.708 85.0208 131.708 81C131.708 76.9792 134.979 73.7083 139 73.7083C143.021 73.7083 146.292 76.9792 146.292 81C146.292 85.0208 143.021 88.2917 139 88.2917Z" fill="white"/>
</mask>
<g mask="url(#mask0)">
<rect x="114" y="56" width="50" height="50" fill="#FF5364"/>
</g>
<defs>
<filter id="filter0_d" x="0" y="0" width="287" height="263" filterUnits="userSpaceOnUse" color-interpolation-filters="sRGB">
<feFlood flood-opacity="0" result="BackgroundImageFix"/>
<feColorMatrix in="SourceAlpha" type="matrix" values="0 0 0 0 0 0 0 0 0 0 0 0 0 0 0 0 0 0 127 0"/>
<feOffset dx="5" dy="20"/>
<feGaussianBlur stdDeviation="25"/>
<feColorMatrix type="matrix" values="0 0 0 0 0.290196 0 0 0 0 0.47451 0 0 0 0 0.827451 0 0 0 0.2 0"/>
<feBlend mode="normal" in2="BackgroundImageFix" result="effect1_dropShadow"/>
<feBlend mode="normal" in="SourceGraphic" in2="effect1_dropShadow" result="shape"/>
</filter>
</defs>
</svg>
