<svg width="287" height="264" viewBox="0 0 287 264" fill="none" xmlns="http://www.w3.org/2000/svg">
<g filter="url(#filter0_d)">
<rect x="45" y="30.4277" width="187" height="163" rx="32" fill="white"/>
</g>
<path d="M110.965 148.436H111.525V149.428H110.837C110.155 149.428 109.584 149.257 109.125 148.916C109.04 150.046 108.587 150.937 107.765 151.588C107.029 152.174 106.101 152.468 104.981 152.468C103.595 152.468 102.528 151.993 101.781 151.044C101.195 150.308 100.901 149.428 100.901 148.404C100.901 147.476 101.136 146.692 101.605 146.052L102.661 145.812C102.139 146.58 101.877 147.422 101.877 148.34C101.877 149.278 102.181 150.046 102.789 150.644C103.365 151.209 104.096 151.492 104.981 151.492C106.005 151.492 106.8 151.182 107.365 150.564C107.845 150.052 108.085 149.385 108.085 148.564V139.668L109.141 139.108V146.628V146.66C109.141 147.844 109.749 148.436 110.965 148.436ZM121.263 148.436H121.807V149.428H121.119C120.149 149.428 119.423 149.092 118.943 148.42C118.41 149.305 117.599 149.748 116.511 149.748C115.413 149.748 114.602 149.31 114.079 148.436C113.589 149.097 112.858 149.428 111.887 149.428H111.199V148.436H111.759C112.933 148.436 113.519 147.828 113.519 146.612V146.068C113.519 144.841 113.818 143.902 114.415 143.252C114.938 142.676 115.637 142.388 116.511 142.388C117.514 142.388 118.277 142.761 118.799 143.508C119.258 144.148 119.487 145.001 119.487 146.068V146.612C119.487 147.828 120.079 148.436 121.263 148.436ZM116.511 148.756C117.098 148.756 117.562 148.516 117.903 148.036C118.245 147.545 118.415 146.884 118.415 146.052C118.415 144.26 117.781 143.364 116.511 143.364C115.231 143.364 114.591 144.26 114.591 146.052C114.591 147.854 115.231 148.756 116.511 148.756ZM132.905 149.428H128.953C128.377 149.428 127.79 149.305 127.193 149.06C126.585 149.305 125.993 149.428 125.417 149.428H121.481V148.436H125.353C125.566 148.436 125.785 148.42 126.009 148.388C125.166 147.78 124.249 146.777 123.257 145.38V144.724C124.366 143.166 125.673 142.388 127.177 142.388C128.67 142.388 129.982 143.177 131.113 144.756V145.38C130.121 146.777 129.209 147.78 128.377 148.388C128.59 148.42 128.803 148.436 129.017 148.436H132.889L132.905 149.428ZM124.185 145.06C125.305 146.553 126.302 147.524 127.177 147.972C128.041 147.524 129.043 146.548 130.185 145.044C129.331 143.924 128.329 143.364 127.177 143.364H127.129C126.041 143.364 125.059 143.929 124.185 145.06ZM132.59 149.428V148.436H133.038C134.254 148.436 134.862 147.806 134.862 146.548V139.668L135.934 139.108V146.564C135.934 147.47 135.667 148.185 135.134 148.708C134.633 149.188 133.971 149.428 133.15 149.428H132.59ZM138.815 149.428V139.668L139.887 139.108V149.428H138.815ZM152.02 140.516C151.583 140.516 151.364 140.292 151.364 139.844C151.364 139.417 151.583 139.204 152.02 139.204C152.436 139.204 152.644 139.417 152.644 139.844C152.644 140.292 152.436 140.516 152.02 140.516ZM153.844 140.516C153.407 140.516 153.188 140.292 153.188 139.844C153.188 139.417 153.407 139.204 153.844 139.204C154.26 139.204 154.468 139.417 154.468 139.844C154.468 140.292 154.26 140.516 153.844 140.516ZM155.604 149.428C155.348 151.454 153.791 152.468 150.932 152.468C149.289 152.468 148.052 151.988 147.22 151.028C146.601 150.313 146.292 149.433 146.292 148.388C146.292 147.47 146.527 146.681 146.996 146.02L148.036 145.812C147.524 146.59 147.268 147.422 147.268 148.308C147.268 149.278 147.604 150.052 148.276 150.628C148.927 151.193 149.812 151.476 150.932 151.476C153.087 151.476 154.276 150.788 154.5 149.412L154.068 149.38C152.564 149.316 151.492 148.98 150.852 148.372C150.276 147.817 149.988 146.996 149.988 145.908C149.988 144.756 150.287 143.865 150.884 143.236C151.407 142.67 152.1 142.388 152.964 142.388C153.849 142.388 154.532 142.665 155.012 143.22C155.428 143.7 155.636 144.34 155.636 145.14V148.436H157.332V149.428H155.604ZM154.564 148.436V145.236C154.564 143.988 154.031 143.364 152.964 143.364C152.356 143.364 151.881 143.588 151.54 144.036C151.209 144.484 151.044 145.102 151.044 145.892C151.044 146.777 151.268 147.412 151.716 147.796C152.175 148.169 152.964 148.377 154.084 148.42L154.564 148.436ZM157.012 149.428V148.436H157.572C158.745 148.436 159.332 147.828 159.332 146.612V143.14L160.404 142.58V146.644C160.404 147.54 160.143 148.238 159.62 148.74C159.14 149.198 158.5 149.428 157.7 149.428H157.012ZM157.54 152.42C157.103 152.42 156.884 152.196 156.884 151.748C156.884 151.321 157.103 151.108 157.54 151.108C157.956 151.108 158.164 151.321 158.164 151.748C158.164 152.196 157.956 152.42 157.54 152.42ZM159.364 152.42C158.927 152.42 158.708 152.196 158.708 151.748C158.708 151.321 158.927 151.108 159.364 151.108C159.78 151.108 159.988 151.321 159.988 151.748C159.988 152.196 159.78 152.42 159.364 152.42ZM168.203 148.436H168.763V149.428H168.075C167.413 149.428 166.864 149.268 166.427 148.948C166.341 150.718 165.627 151.838 164.283 152.308C163.941 152.425 163.579 152.484 163.195 152.484C162.576 152.484 161.979 152.334 161.403 152.036V151.092C161.947 151.39 162.501 151.54 163.067 151.54C163.515 151.54 163.909 151.438 164.251 151.236C164.997 150.788 165.371 149.95 165.371 148.724V143.14L166.427 142.58V142.596L166.443 142.58V146.612C166.443 147.828 167.029 148.436 168.203 148.436ZM173.313 140.5C172.876 140.5 172.657 140.276 172.657 139.828C172.657 139.401 172.876 139.188 173.313 139.188C173.729 139.188 173.937 139.401 173.937 139.828C173.937 140.276 173.729 140.5 173.313 140.5ZM168.449 149.428V148.436H171.169C170.583 147.849 170.289 147.006 170.289 145.908C170.289 144.756 170.588 143.865 171.185 143.236C171.708 142.67 172.401 142.388 173.265 142.388C174.151 142.388 174.833 142.665 175.313 143.22C175.729 143.7 175.937 144.34 175.937 145.14V146.692C175.927 147.556 175.665 148.233 175.153 148.724C174.684 149.193 174.044 149.428 173.233 149.428H168.449ZM174.881 145.236C174.881 143.988 174.343 143.364 173.265 143.364C172.668 143.364 172.199 143.588 171.857 144.036C171.527 144.473 171.361 145.092 171.361 145.892C171.361 146.67 171.521 147.289 171.841 147.748C172.172 148.206 172.609 148.436 173.153 148.436C174.305 148.436 174.881 147.838 174.881 146.644V145.236Z" fill="#2B334E"/>
<path fill-rule="evenodd" clip-rule="evenodd" d="M155.667 93.9277C155.667 95.0757 154.732 96.0111 153.584 96.0111H149.417V75.1777H153.584C154.732 75.1777 155.667 76.1132 155.667 77.2611V93.9277ZM122.334 93.9277V77.2611C122.334 76.1132 123.269 75.1777 124.417 75.1777H128.584V96.0111H124.417C123.269 96.0111 122.334 95.0757 122.334 93.9277ZM134.834 67.8861C134.834 67.3111 135.3 66.8444 135.875 66.8444H142.125C142.7 66.8444 143.167 67.3111 143.167 67.8861V71.0111H134.834V67.8861ZM132.75 96.0111H145.25V75.1777H132.75V96.0111ZM153.584 71.0111H147.334V67.8861C147.334 65.0152 144.996 62.6777 142.125 62.6777H135.875C133.004 62.6777 130.667 65.0152 130.667 67.8861V71.0111H124.417C120.971 71.0111 118.167 73.8152 118.167 77.2611V93.9277C118.167 97.3736 120.971 100.178 124.417 100.178H153.584C157.029 100.178 159.834 97.3736 159.834 93.9277V77.2611C159.834 73.8152 157.029 71.0111 153.584 71.0111Z" fill="#FF5364"/>
<mask id="mask0" mask-type="alpha" maskUnits="userSpaceOnUse" x="118" y="62" width="42" height="39">
<path fill-rule="evenodd" clip-rule="evenodd" d="M155.667 93.9277C155.667 95.0757 154.732 96.0111 153.584 96.0111H149.417V75.1777H153.584C154.732 75.1777 155.667 76.1132 155.667 77.2611V93.9277ZM122.334 93.9277V77.2611C122.334 76.1132 123.269 75.1777 124.417 75.1777H128.584V96.0111H124.417C123.269 96.0111 122.334 95.0757 122.334 93.9277ZM134.834 67.8861C134.834 67.3111 135.3 66.8444 135.875 66.8444H142.125C142.7 66.8444 143.167 67.3111 143.167 67.8861V71.0111H134.834V67.8861ZM132.75 96.0111H145.25V75.1777H132.75V96.0111ZM153.584 71.0111H147.334V67.8861C147.334 65.0152 144.996 62.6777 142.125 62.6777H135.875C133.004 62.6777 130.667 65.0152 130.667 67.8861V71.0111H124.417C120.971 71.0111 118.167 73.8152 118.167 77.2611V93.9277C118.167 97.3736 120.971 100.178 124.417 100.178H153.584C157.029 100.178 159.834 97.3736 159.834 93.9277V77.2611C159.834 73.8152 157.029 71.0111 153.584 71.0111Z" fill="white"/>
</mask>
<g mask="url(#mask0)">
<rect x="114" y="56.4277" width="50" height="50" fill="#FF5364"/>
</g>
<defs>
<filter id="filter0_d" x="0" y="0.427734" width="287" height="263" filterUnits="userSpaceOnUse" color-interpolation-filters="sRGB">
<feFlood flood-opacity="0" result="BackgroundImageFix"/>
<feColorMatrix in="SourceAlpha" type="matrix" values="0 0 0 0 0 0 0 0 0 0 0 0 0 0 0 0 0 0 127 0"/>
<feOffset dx="5" dy="20"/>
<feGaussianBlur stdDeviation="25"/>
<feColorMatrix type="matrix" values="0 0 0 0 0.290196 0 0 0 0 0.47451 0 0 0 0 0.827451 0 0 0 0.2 0"/>
<feBlend mode="normal" in2="BackgroundImageFix" result="effect1_dropShadow"/>
<feBlend mode="normal" in="SourceGraphic" in2="effect1_dropShadow" result="shape"/>
</filter>
</defs>
</svg>
