<svg width="925" height="416" viewBox="0 0 925 416" fill="none" xmlns="http://www.w3.org/2000/svg">
<g filter="url(#filter0_d)">
<rect x="15" y="10" width="187" height="163" rx="32" fill="white"/>
</g>
<path d="M91.0282 128.232C91.0282 130.173 90.3135 131.389 88.8842 131.88C88.5429 131.997 88.1802 132.056 87.7962 132.056C87.1775 132.056 86.5802 131.907 86.0042 131.608V130.664C86.5482 130.963 87.1029 131.112 87.6682 131.112C88.1162 131.112 88.5109 131.011 88.8522 130.808C89.5989 130.36 89.9722 129.523 89.9722 128.296V122.712L91.0282 122.152V128.232ZM96.6049 129C95.6983 129 94.9996 128.707 94.5089 128.12C94.1036 127.619 93.9009 126.984 93.9009 126.216V119.24L94.9729 118.68V126.184C94.9729 127.4 95.5596 128.008 96.7329 128.008H97.2929V129H96.6049ZM105.469 128.008H105.869V129H105.341C104.381 129 103.661 128.675 103.181 128.024C102.701 128.675 101.975 129 101.005 129H96.9728V128.008H100.893C102.055 128.008 102.637 127.384 102.637 126.136V125.976C102.637 125.101 102.317 124.445 101.677 124.008C101.165 123.645 100.525 123.464 99.7568 123.464C99.1808 123.464 98.6101 123.565 98.0448 123.768V122.712L101.677 118.68H102.781L99.5008 122.392C99.6075 122.381 99.7195 122.376 99.8368 122.376C100.861 122.376 101.714 122.637 102.397 123.16C103.271 123.832 103.709 124.765 103.709 125.96V126.184C103.709 127.4 104.295 128.008 105.469 128.008ZM107.167 120.088C106.74 120.088 106.527 119.869 106.527 119.432C106.527 118.995 106.74 118.776 107.167 118.776C107.594 118.776 107.807 118.995 107.807 119.432C107.807 119.869 107.594 120.088 107.167 120.088ZM108.991 120.088C108.564 120.088 108.351 119.869 108.351 119.432C108.351 118.995 108.564 118.776 108.991 118.776C109.418 118.776 109.631 118.995 109.631 119.432C109.631 119.869 109.418 120.088 108.991 120.088ZM110.703 128.008H111.263V129H110.575C109.615 129 108.895 128.675 108.415 128.024C107.914 128.675 107.188 129 106.239 129H105.551V128.008H106.111C107.284 128.008 107.871 127.4 107.871 126.184V122.712L108.943 122.152V126.184C108.943 127.4 109.53 128.008 110.703 128.008ZM110.942 129V128.008H111.502C112.675 128.008 113.262 127.4 113.262 126.184V122.712L114.334 122.152V126.216C114.334 127.112 114.072 127.811 113.55 128.312C113.07 128.771 112.43 129 111.63 129H110.942ZM113.07 131.992C112.632 131.992 112.414 131.768 112.414 131.32C112.414 130.893 112.632 130.68 113.07 130.68C113.486 130.68 113.694 130.893 113.694 131.32C113.694 131.768 113.486 131.992 113.07 131.992ZM123.053 119.24L124.109 118.68V126.136C124.109 127.043 123.843 127.757 123.309 128.28C122.819 128.76 122.163 129 121.341 129H116.093L116.605 128.008H119.053V121.32L120.109 120.76V128.008H121.229C122.445 128.008 123.053 127.379 123.053 126.12V119.24ZM126.995 129V119.24L128.067 118.68V129H126.995Z" fill="#2B334E"/>
<path fill-rule="evenodd" clip-rule="evenodd" d="M111.083 46.4165C111.083 47.5686 110.15 48.4998 109 48.4998C107.85 48.4998 106.917 47.5686 106.917 46.4165V42.2498C106.917 41.0978 107.85 40.1665 109 40.1665C110.15 40.1665 111.083 41.0978 111.083 42.2498V46.4165ZM111.083 68.208C111.083 67.4642 111.481 66.7746 112.127 66.4017C114.054 65.2955 115.25 63.2246 115.25 60.9996C115.25 57.5538 112.446 54.7496 109 54.7496C105.554 54.7496 102.75 57.5538 102.75 60.9996C102.75 63.2246 103.946 65.2955 105.873 66.4017C106.519 66.7746 106.917 67.4642 106.917 68.208V77.6663H111.083V68.208ZM98.5832 60.9996C98.5832 55.2559 103.256 50.583 109 50.583C114.744 50.583 119.417 55.2559 119.417 60.9996C119.417 64.2892 117.846 67.3788 115.25 69.3246V77.6663C115.25 79.9642 113.381 81.833 111.083 81.833H106.917C104.619 81.833 102.75 79.9642 102.75 77.6663V69.3246C100.152 67.3788 98.5832 64.2892 98.5832 60.9996ZM127.75 58.9165H123.583C122.431 58.9165 121.5 59.8478 121.5 60.9998C121.5 62.1519 122.431 63.0832 123.583 63.0832H127.75C128.902 63.0832 129.833 62.1519 129.833 60.9998C129.833 59.8478 128.902 58.9165 127.75 58.9165ZM90.2498 58.9165H94.4165C95.5665 58.9165 96.4998 59.8478 96.4998 60.9998C96.4998 62.1519 95.5665 63.0832 94.4165 63.0832H90.2498C89.0998 63.0832 88.1665 62.1519 88.1665 60.9998C88.1665 59.8478 89.0998 58.9165 90.2498 58.9165ZM99.9575 49.3704L96.9596 46.4745C96.1325 45.6766 94.8158 45.7016 94.0137 46.5287C93.2137 47.3537 93.2367 48.6745 94.0637 49.4745L97.0617 52.3683C97.4679 52.76 97.9887 52.9537 98.5096 52.9537C99.0554 52.9537 99.5992 52.7391 100.007 52.3162C100.807 51.4912 100.785 50.1704 99.9575 49.3704ZM121.04 46.4779C121.865 45.68 123.19 45.7029 123.984 46.5279C124.784 47.3529 124.761 48.6738 123.934 49.4717L120.936 52.3675C120.534 52.7571 120.011 52.9529 119.49 52.9529C118.944 52.9529 118.399 52.7384 117.992 52.3154C117.192 51.4904 117.215 50.1696 118.042 49.3717L121.04 46.4779Z" fill="#FF5364"/>
<mask id="mask0" mask-type="alpha" maskUnits="userSpaceOnUse" x="88" y="40" width="42" height="42">
<path fill-rule="evenodd" clip-rule="evenodd" d="M111.083 46.4165C111.083 47.5686 110.15 48.4998 109 48.4998C107.85 48.4998 106.917 47.5686 106.917 46.4165V42.2498C106.917 41.0978 107.85 40.1665 109 40.1665C110.15 40.1665 111.083 41.0978 111.083 42.2498V46.4165ZM111.083 68.208C111.083 67.4642 111.481 66.7746 112.127 66.4017C114.054 65.2955 115.25 63.2246 115.25 60.9996C115.25 57.5538 112.446 54.7496 109 54.7496C105.554 54.7496 102.75 57.5538 102.75 60.9996C102.75 63.2246 103.946 65.2955 105.873 66.4017C106.519 66.7746 106.917 67.4642 106.917 68.208V77.6663H111.083V68.208ZM98.5832 60.9996C98.5832 55.2559 103.256 50.583 109 50.583C114.744 50.583 119.417 55.2559 119.417 60.9996C119.417 64.2892 117.846 67.3788 115.25 69.3246V77.6663C115.25 79.9642 113.381 81.833 111.083 81.833H106.917C104.619 81.833 102.75 79.9642 102.75 77.6663V69.3246C100.152 67.3788 98.5832 64.2892 98.5832 60.9996ZM127.75 58.9165H123.583C122.431 58.9165 121.5 59.8478 121.5 60.9998C121.5 62.1519 122.431 63.0832 123.583 63.0832H127.75C128.902 63.0832 129.833 62.1519 129.833 60.9998C129.833 59.8478 128.902 58.9165 127.75 58.9165ZM90.2498 58.9165H94.4165C95.5665 58.9165 96.4998 59.8478 96.4998 60.9998C96.4998 62.1519 95.5665 63.0832 94.4165 63.0832H90.2498C89.0998 63.0832 88.1665 62.1519 88.1665 60.9998C88.1665 59.8478 89.0998 58.9165 90.2498 58.9165ZM99.9575 49.3704L96.9596 46.4745C96.1325 45.6766 94.8158 45.7016 94.0137 46.5287C93.2137 47.3537 93.2367 48.6745 94.0637 49.4745L97.0617 52.3683C97.4679 52.76 97.9887 52.9537 98.5096 52.9537C99.0554 52.9537 99.5992 52.7391 100.007 52.3162C100.807 51.4912 100.785 50.1704 99.9575 49.3704ZM121.04 46.4779C121.865 45.68 123.19 45.7029 123.984 46.5279C124.784 47.3529 124.761 48.6738 123.934 49.4717L120.936 52.3675C120.534 52.7571 120.011 52.9529 119.49 52.9529C118.944 52.9529 118.399 52.7384 117.992 52.3154C117.192 51.4904 117.215 50.1696 118.042 49.3717L121.04 46.4779Z" fill="white"/>
</mask>
<g mask="url(#mask0)">
<rect x="84" y="36" width="50" height="50" fill="#FF5364"/>
</g>
<g filter="url(#filter1_d)">
<rect x="15" y="232.428" width="187" height="163" rx="32" fill="white"/>
</g>
<path d="M98.298 356.596C97.4233 357.15 96.4367 357.428 95.338 357.428C94.058 357.428 93.0447 357.028 92.298 356.228C91.6793 355.566 91.37 354.782 91.37 353.876C91.37 353.214 91.5407 352.617 91.882 352.084C92.2233 351.55 92.6873 351.15 93.274 350.884C92.186 350.265 91.642 349.209 91.642 347.716C91.642 346.638 92.01 345.785 92.746 345.156C93.322 344.654 94.01 344.398 94.81 344.388C95.898 344.388 96.7567 344.82 97.386 345.684V346.74C96.7353 345.822 95.9087 345.364 94.906 345.364C94.2447 345.364 93.7113 345.588 93.306 346.036C92.9007 346.473 92.698 347.044 92.698 347.748C92.698 348.569 92.9433 349.225 93.434 349.716C93.9033 350.196 94.5327 350.436 95.322 350.436H98.154V351.428H95.354C94.3193 351.428 93.5353 351.71 93.002 352.276C92.5967 352.702 92.394 353.23 92.394 353.86C92.394 354.628 92.6767 355.257 93.242 355.748C93.7753 356.206 94.474 356.436 95.338 356.436H95.37C96.586 356.436 97.562 356.164 98.298 355.62V356.596ZM107.558 350.436V351.428H105.862C105.851 352.132 105.622 352.75 105.174 353.284C104.736 353.828 104.166 354.185 103.462 354.356C103.206 354.43 102.928 354.468 102.63 354.468C102.011 354.468 101.408 354.318 100.822 354.02V353.076C101.376 353.374 101.926 353.524 102.47 353.524C102.907 353.524 103.291 353.428 103.622 353.236C103.952 353.065 104.23 352.804 104.454 352.452C104.678 352.11 104.79 351.769 104.79 351.428L103.43 351.38C102.246 351.326 101.36 350.953 100.774 350.26C100.294 349.673 100.054 348.889 100.054 347.908C100.054 346.756 100.352 345.865 100.95 345.236C101.483 344.67 102.198 344.388 103.094 344.388C104.022 344.388 104.731 344.665 105.222 345.22C105.648 345.7 105.862 346.34 105.862 347.14V350.436H107.558ZM104.79 347.252C104.79 345.993 104.224 345.364 103.094 345.364C102.464 345.364 101.974 345.588 101.622 346.036C101.28 346.473 101.11 347.092 101.11 347.892C101.11 349.481 101.894 350.313 103.462 350.388C103.931 350.42 104.374 350.436 104.79 350.436V347.252ZM109.903 342.468C109.465 342.468 109.247 342.244 109.247 341.796C109.247 341.369 109.465 341.156 109.903 341.156C110.319 341.156 110.527 341.369 110.527 341.796C110.527 342.244 110.319 342.468 109.903 342.468ZM112.383 350.436H112.943V351.428H112.255C111.295 351.428 110.575 351.102 110.095 350.452C109.593 351.102 108.868 351.428 107.919 351.428H107.231V350.436H107.791C108.964 350.436 109.551 349.828 109.551 348.612V345.14L110.623 344.58V348.612C110.623 349.828 111.209 350.436 112.383 350.436ZM114.237 342.516C113.811 342.516 113.597 342.297 113.597 341.86C113.597 341.422 113.811 341.204 114.237 341.204C114.664 341.204 114.877 341.422 114.877 341.86C114.877 342.297 114.664 342.516 114.237 342.516ZM116.061 342.516C115.635 342.516 115.421 342.297 115.421 341.86C115.421 341.422 115.635 341.204 116.061 341.204C116.488 341.204 116.701 341.422 116.701 341.86C116.701 342.297 116.488 342.516 116.061 342.516ZM117.773 350.436H118.333V351.428H117.645C116.685 351.428 115.965 351.102 115.485 350.452C114.984 351.102 114.259 351.428 113.309 351.428H112.621V350.436H113.181C114.355 350.436 114.941 349.828 114.941 348.612V345.14L116.013 344.58V348.612C116.013 349.828 116.6 350.436 117.773 350.436ZM118.012 351.428V350.436H118.46C119.676 350.436 120.284 349.806 120.284 348.548V341.668L121.356 341.108V348.564C121.356 349.47 121.089 350.185 120.556 350.708C120.055 351.188 119.393 351.428 118.572 351.428H118.012ZM124.237 351.428V341.668L125.309 341.108V351.428H124.237Z" fill="#2B334E"/>
<g filter="url(#filter2_d)">
<rect x="251" y="10" width="187" height="163" rx="32" fill="white"/>
</g>
<path d="M325.826 120.04C325.389 120.04 325.17 119.816 325.17 119.368C325.17 118.941 325.389 118.728 325.826 118.728C326.242 118.728 326.45 118.941 326.45 119.368C326.45 119.816 326.242 120.04 325.826 120.04ZM326.45 128.232C326.45 130.173 325.735 131.389 324.306 131.88C323.965 131.997 323.602 132.056 323.218 132.056C322.599 132.056 322.002 131.907 321.426 131.608V130.664C321.97 130.963 322.525 131.112 323.09 131.112C323.538 131.112 323.933 131.011 324.274 130.808C325.021 130.36 325.394 129.523 325.394 128.296V122.712L326.45 122.152V128.232ZM332.027 129C331.12 129 330.421 128.707 329.931 128.12C329.525 127.619 329.323 126.984 329.323 126.216V119.24L330.395 118.68V126.184C330.395 127.4 330.981 128.008 332.155 128.008H332.715V129H332.027ZM337.547 128.008H338.107V129H337.419C336.459 129 335.739 128.675 335.259 128.024C334.757 128.675 334.032 129 333.083 129H332.395V128.008H332.955C334.128 128.008 334.715 127.4 334.715 126.184V122.712L335.787 122.152V126.184C335.787 127.4 336.373 128.008 337.547 128.008ZM333.915 130.68C334.341 130.68 334.555 130.899 334.555 131.336C334.555 131.773 334.341 131.992 333.915 131.992C333.488 131.992 333.275 131.773 333.275 131.336C333.275 130.899 333.488 130.68 333.915 130.68ZM335.739 130.68C336.165 130.68 336.379 130.899 336.379 131.336C336.379 131.773 336.165 131.992 335.739 131.992C335.312 131.992 335.099 131.773 335.099 131.336C335.099 130.899 335.312 130.68 335.739 130.68ZM339.401 120.088C338.975 120.088 338.761 119.869 338.761 119.432C338.761 118.995 338.975 118.776 339.401 118.776C339.828 118.776 340.041 118.995 340.041 119.432C340.041 119.869 339.828 120.088 339.401 120.088ZM341.225 120.088C340.799 120.088 340.585 119.869 340.585 119.432C340.585 118.995 340.799 118.776 341.225 118.776C341.652 118.776 341.865 118.995 341.865 119.432C341.865 119.869 341.652 120.088 341.225 120.088ZM342.937 128.008H343.497V129H342.809C341.849 129 341.129 128.675 340.649 128.024C340.148 128.675 339.423 129 338.473 129H337.785V128.008H338.345C339.519 128.008 340.105 127.4 340.105 126.184V122.712L341.177 122.152V126.184C341.177 127.4 341.764 128.008 342.937 128.008ZM345.496 124.712C345.496 123.805 345.768 123.101 346.312 122.6C346.781 122.173 347.4 121.96 348.168 121.96C349.16 121.96 349.923 122.323 350.456 123.048C350.915 123.667 351.144 124.477 351.144 125.48C351.144 126.621 350.851 127.512 350.264 128.152C349.752 128.717 349.085 129 348.264 129C347.261 129 346.515 128.68 346.024 128.04C345.544 128.68 344.824 129 343.864 129H343.176V128.008H343.736C344.909 128.008 345.496 127.4 345.496 126.184V124.712ZM346.568 126.248C346.568 127.421 347.144 128.008 348.296 128.008C348.851 128.008 349.288 127.784 349.608 127.336C349.928 126.888 350.088 126.264 350.088 125.464C350.088 124.675 349.917 124.056 349.576 123.608C349.245 123.16 348.776 122.936 348.168 122.936C347.101 122.936 346.568 123.56 346.568 124.808V126.248ZM359.632 119.24L360.688 118.68V126.136C360.688 127.043 360.421 127.757 359.888 128.28C359.397 128.76 358.741 129 357.92 129H352.672L353.184 128.008H355.632V121.32L356.688 120.76V128.008H357.808C359.024 128.008 359.632 127.379 359.632 126.12V119.24ZM363.573 129V119.24L364.645 118.68V129H363.573Z" fill="#2B334E"/>
<path fill-rule="evenodd" clip-rule="evenodd" d="M345.637 70.806C344.989 70.4498 344.205 70.456 343.574 70.8331L335.766 75.4165L338.824 63.5206C340.647 64.5623 342.753 65.1665 344.999 65.1665C347.245 65.1665 349.351 64.5623 351.176 63.5206L354.278 75.5873L345.637 70.806ZM344.999 44.3332C349.595 44.3332 353.333 48.0707 353.333 52.6665C353.333 57.2623 349.595 60.9998 344.999 60.9998C340.403 60.9998 336.666 57.2623 336.666 52.6665C336.666 48.0707 340.403 44.3332 344.999 44.3332V44.3332ZM359.518 79.2311L354.708 60.5248C356.449 58.3748 357.499 55.6436 357.499 52.6665C357.499 45.7728 351.893 40.1665 344.999 40.1665C338.108 40.1665 332.499 45.7728 332.499 52.6665C332.499 55.6436 333.549 58.3748 335.291 60.5248L330.483 79.2311C330.272 80.0478 330.574 80.9082 331.247 81.4144C331.918 81.9207 332.83 81.9665 333.553 81.5457L344.658 75.0269L356.491 81.5728C356.805 81.7478 357.153 81.8332 357.499 81.8332C357.951 81.8332 358.401 81.6873 358.776 81.3978C359.433 80.8894 359.726 80.0373 359.518 79.2311V79.2311Z" fill="#FF5364"/>
<mask id="mask1" mask-type="alpha" maskUnits="userSpaceOnUse" x="330" y="40" width="30" height="42">
<path fill-rule="evenodd" clip-rule="evenodd" d="M345.637 70.806C344.989 70.4498 344.205 70.456 343.574 70.8331L335.766 75.4165L338.824 63.5206C340.647 64.5623 342.753 65.1665 344.999 65.1665C347.245 65.1665 349.351 64.5623 351.176 63.5206L354.278 75.5873L345.637 70.806ZM344.999 44.3332C349.595 44.3332 353.333 48.0707 353.333 52.6665C353.333 57.2623 349.595 60.9998 344.999 60.9998C340.403 60.9998 336.666 57.2623 336.666 52.6665C336.666 48.0707 340.403 44.3332 344.999 44.3332V44.3332ZM359.518 79.2311L354.708 60.5248C356.449 58.3748 357.499 55.6436 357.499 52.6665C357.499 45.7728 351.893 40.1665 344.999 40.1665C338.108 40.1665 332.499 45.7728 332.499 52.6665C332.499 55.6436 333.549 58.3748 335.291 60.5248L330.483 79.2311C330.272 80.0478 330.574 80.9082 331.247 81.4144C331.918 81.9207 332.83 81.9665 333.553 81.5457L344.658 75.0269L356.491 81.5728C356.805 81.7478 357.153 81.8332 357.499 81.8332C357.951 81.8332 358.401 81.6873 358.776 81.3978C359.433 80.8894 359.726 80.0373 359.518 79.2311V79.2311Z" fill="white"/>
</mask>
<g mask="url(#mask1)">
<rect x="320" y="36" width="50" height="50" fill="#FF5364"/>
</g>
<g filter="url(#filter3_d)">
<rect x="251" y="232.428" width="187" height="163" rx="32" fill="white"/>
</g>
<path d="M316.965 350.436H317.525V351.428H316.837C316.155 351.428 315.584 351.257 315.125 350.916C315.04 352.046 314.587 352.937 313.765 353.588C313.029 354.174 312.101 354.468 310.981 354.468C309.595 354.468 308.528 353.993 307.781 353.044C307.195 352.308 306.901 351.428 306.901 350.404C306.901 349.476 307.136 348.692 307.605 348.052L308.661 347.812C308.139 348.58 307.877 349.422 307.877 350.34C307.877 351.278 308.181 352.046 308.789 352.644C309.365 353.209 310.096 353.492 310.981 353.492C312.005 353.492 312.8 353.182 313.365 352.564C313.845 352.052 314.085 351.385 314.085 350.564V341.668L315.141 341.108V348.628V348.66C315.141 349.844 315.749 350.436 316.965 350.436ZM327.263 350.436H327.807V351.428H327.119C326.149 351.428 325.423 351.092 324.943 350.42C324.41 351.305 323.599 351.748 322.511 351.748C321.413 351.748 320.602 351.31 320.079 350.436C319.589 351.097 318.858 351.428 317.887 351.428H317.199V350.436H317.759C318.933 350.436 319.519 349.828 319.519 348.612V348.068C319.519 346.841 319.818 345.902 320.415 345.252C320.938 344.676 321.637 344.388 322.511 344.388C323.514 344.388 324.277 344.761 324.799 345.508C325.258 346.148 325.487 347.001 325.487 348.068V348.612C325.487 349.828 326.079 350.436 327.263 350.436ZM322.511 350.756C323.098 350.756 323.562 350.516 323.903 350.036C324.245 349.545 324.415 348.884 324.415 348.052C324.415 346.26 323.781 345.364 322.511 345.364C321.231 345.364 320.591 346.26 320.591 348.052C320.591 349.854 321.231 350.756 322.511 350.756ZM338.905 351.428H334.953C334.377 351.428 333.79 351.305 333.193 351.06C332.585 351.305 331.993 351.428 331.417 351.428H327.481V350.436H331.353C331.566 350.436 331.785 350.42 332.009 350.388C331.166 349.78 330.249 348.777 329.257 347.38V346.724C330.366 345.166 331.673 344.388 333.177 344.388C334.67 344.388 335.982 345.177 337.113 346.756V347.38C336.121 348.777 335.209 349.78 334.377 350.388C334.59 350.42 334.803 350.436 335.017 350.436H338.889L338.905 351.428ZM330.185 347.06C331.305 348.553 332.302 349.524 333.177 349.972C334.041 349.524 335.043 348.548 336.185 347.044C335.331 345.924 334.329 345.364 333.177 345.364H333.129C332.041 345.364 331.059 345.929 330.185 347.06ZM338.59 351.428V350.436H339.038C340.254 350.436 340.862 349.806 340.862 348.548V341.668L341.934 341.108V348.564C341.934 349.47 341.667 350.185 341.134 350.708C340.633 351.188 339.971 351.428 339.15 351.428H338.59ZM344.815 351.428V341.668L345.887 341.108V351.428H344.815ZM358.02 342.516C357.583 342.516 357.364 342.292 357.364 341.844C357.364 341.417 357.583 341.204 358.02 341.204C358.436 341.204 358.644 341.417 358.644 341.844C358.644 342.292 358.436 342.516 358.02 342.516ZM359.844 342.516C359.407 342.516 359.188 342.292 359.188 341.844C359.188 341.417 359.407 341.204 359.844 341.204C360.26 341.204 360.468 341.417 360.468 341.844C360.468 342.292 360.26 342.516 359.844 342.516ZM361.604 351.428C361.348 353.454 359.791 354.468 356.932 354.468C355.289 354.468 354.052 353.988 353.22 353.028C352.601 352.313 352.292 351.433 352.292 350.388C352.292 349.47 352.527 348.681 352.996 348.02L354.036 347.812C353.524 348.59 353.268 349.422 353.268 350.308C353.268 351.278 353.604 352.052 354.276 352.628C354.927 353.193 355.812 353.476 356.932 353.476C359.087 353.476 360.276 352.788 360.5 351.412L360.068 351.38C358.564 351.316 357.492 350.98 356.852 350.372C356.276 349.817 355.988 348.996 355.988 347.908C355.988 346.756 356.287 345.865 356.884 345.236C357.407 344.67 358.1 344.388 358.964 344.388C359.849 344.388 360.532 344.665 361.012 345.22C361.428 345.7 361.636 346.34 361.636 347.14V350.436H363.332V351.428H361.604ZM360.564 350.436V347.236C360.564 345.988 360.031 345.364 358.964 345.364C358.356 345.364 357.881 345.588 357.54 346.036C357.209 346.484 357.044 347.102 357.044 347.892C357.044 348.777 357.268 349.412 357.716 349.796C358.175 350.169 358.964 350.377 360.084 350.42L360.564 350.436ZM363.012 351.428V350.436H363.572C364.745 350.436 365.332 349.828 365.332 348.612V345.14L366.404 344.58V348.644C366.404 349.54 366.143 350.238 365.62 350.74C365.14 351.198 364.5 351.428 363.7 351.428H363.012ZM363.54 354.42C363.103 354.42 362.884 354.196 362.884 353.748C362.884 353.321 363.103 353.108 363.54 353.108C363.956 353.108 364.164 353.321 364.164 353.748C364.164 354.196 363.956 354.42 363.54 354.42ZM365.364 354.42C364.927 354.42 364.708 354.196 364.708 353.748C364.708 353.321 364.927 353.108 365.364 353.108C365.78 353.108 365.988 353.321 365.988 353.748C365.988 354.196 365.78 354.42 365.364 354.42ZM374.203 350.436H374.763V351.428H374.075C373.413 351.428 372.864 351.268 372.427 350.948C372.341 352.718 371.627 353.838 370.283 354.308C369.941 354.425 369.579 354.484 369.195 354.484C368.576 354.484 367.979 354.334 367.403 354.036V353.092C367.947 353.39 368.501 353.54 369.067 353.54C369.515 353.54 369.909 353.438 370.251 353.236C370.997 352.788 371.371 351.95 371.371 350.724V345.14L372.427 344.58V344.596L372.443 344.58V348.612C372.443 349.828 373.029 350.436 374.203 350.436ZM379.313 342.5C378.876 342.5 378.657 342.276 378.657 341.828C378.657 341.401 378.876 341.188 379.313 341.188C379.729 341.188 379.937 341.401 379.937 341.828C379.937 342.276 379.729 342.5 379.313 342.5ZM374.449 351.428V350.436H377.169C376.583 349.849 376.289 349.006 376.289 347.908C376.289 346.756 376.588 345.865 377.185 345.236C377.708 344.67 378.401 344.388 379.265 344.388C380.151 344.388 380.833 344.665 381.313 345.22C381.729 345.7 381.937 346.34 381.937 347.14V348.692C381.927 349.556 381.665 350.233 381.153 350.724C380.684 351.193 380.044 351.428 379.233 351.428H374.449ZM380.881 347.236C380.881 345.988 380.343 345.364 379.265 345.364C378.668 345.364 378.199 345.588 377.857 346.036C377.527 346.473 377.361 347.092 377.361 347.892C377.361 348.67 377.521 349.289 377.841 349.748C378.172 350.206 378.609 350.436 379.153 350.436C380.305 350.436 380.881 349.838 380.881 348.644V347.236Z" fill="#2B334E"/>
<path fill-rule="evenodd" clip-rule="evenodd" d="M361.666 295.928C361.666 297.076 360.731 298.011 359.583 298.011H355.417V277.178H359.583C360.731 277.178 361.666 278.113 361.666 279.261V295.928ZM328.333 295.928V279.261C328.333 278.113 329.269 277.178 330.417 277.178H334.583V298.011H330.417C329.269 298.011 328.333 297.076 328.333 295.928V295.928ZM340.833 269.886C340.833 269.311 341.3 268.844 341.875 268.844H348.125C348.7 268.844 349.167 269.311 349.167 269.886V273.011H340.833V269.886ZM338.75 298.011H351.25V277.178H338.75V298.011ZM359.583 273.011H353.333V269.886C353.333 267.015 350.996 264.678 348.125 264.678H341.875C339.004 264.678 336.667 267.015 336.667 269.886V273.011H330.417C326.971 273.011 324.167 275.815 324.167 279.261V295.928C324.167 299.374 326.971 302.178 330.417 302.178H359.583C363.029 302.178 365.833 299.374 365.833 295.928V279.261C365.833 275.815 363.029 273.011 359.583 273.011V273.011Z" fill="#FF5364"/>
<mask id="mask2" mask-type="alpha" maskUnits="userSpaceOnUse" x="324" y="264" width="42" height="39">
<path fill-rule="evenodd" clip-rule="evenodd" d="M361.666 295.928C361.666 297.076 360.731 298.011 359.583 298.011H355.417V277.178H359.583C360.731 277.178 361.666 278.113 361.666 279.261V295.928ZM328.333 295.928V279.261C328.333 278.113 329.269 277.178 330.417 277.178H334.583V298.011H330.417C329.269 298.011 328.333 297.076 328.333 295.928V295.928ZM340.833 269.886C340.833 269.311 341.3 268.844 341.875 268.844H348.125C348.7 268.844 349.167 269.311 349.167 269.886V273.011H340.833V269.886ZM338.75 298.011H351.25V277.178H338.75V298.011ZM359.583 273.011H353.333V269.886C353.333 267.015 350.996 264.678 348.125 264.678H341.875C339.004 264.678 336.667 267.015 336.667 269.886V273.011H330.417C326.971 273.011 324.167 275.815 324.167 279.261V295.928C324.167 299.374 326.971 302.178 330.417 302.178H359.583C363.029 302.178 365.833 299.374 365.833 295.928V279.261C365.833 275.815 363.029 273.011 359.583 273.011V273.011Z" fill="white"/>
</mask>
<g mask="url(#mask2)">
<rect x="320" y="258.428" width="50" height="50" fill="#FF5364"/>
</g>
<g filter="url(#filter4_d)">
<rect x="487" y="10" width="187" height="163" rx="32" fill="white"/>
</g>
<path d="M567.778 128.008H568.338V129H567.65C566.967 129 566.396 128.829 565.938 128.488C565.852 129.619 565.399 130.509 564.578 131.16C563.842 131.747 562.914 132.04 561.794 132.04C560.407 132.04 559.34 131.565 558.594 130.616C558.007 129.88 557.714 129 557.714 127.976C557.714 127.048 557.948 126.264 558.418 125.624L559.474 125.384C558.951 126.152 558.69 126.995 558.69 127.912C558.69 128.851 558.994 129.619 559.602 130.216C560.178 130.781 560.908 131.064 561.794 131.064C562.818 131.064 563.612 130.755 564.178 130.136C564.658 129.624 564.898 128.957 564.898 128.136V119.24L565.954 118.68V126.2V126.232C565.954 127.416 566.562 128.008 567.778 128.008ZM570.332 124.712C570.332 123.805 570.604 123.101 571.148 122.6C571.617 122.173 572.236 121.96 573.004 121.96C573.996 121.96 574.759 122.323 575.292 123.048C575.751 123.667 575.98 124.477 575.98 125.48C575.98 126.621 575.687 127.512 575.1 128.152C574.588 128.717 573.921 129 573.1 129C572.097 129 571.351 128.68 570.86 128.04C570.38 128.68 569.66 129 568.7 129H568.012V128.008H568.572C569.745 128.008 570.332 127.4 570.332 126.184V124.712ZM571.404 126.248C571.404 127.421 571.98 128.008 573.132 128.008C573.687 128.008 574.124 127.784 574.444 127.336C574.764 126.888 574.924 126.264 574.924 125.464C574.924 124.675 574.753 124.056 574.412 123.608C574.081 123.16 573.612 122.936 573.004 122.936C571.937 122.936 571.404 123.56 571.404 124.808V126.248ZM581.332 129C580.425 129 579.726 128.707 579.236 128.12C578.83 127.619 578.628 126.984 578.628 126.216V119.24L579.7 118.68V126.184C579.7 127.4 580.286 128.008 581.46 128.008H582.02V129H581.332ZM590.195 128.008H590.595V129H590.067C589.107 129 588.387 128.675 587.907 128.024C587.427 128.675 586.702 129 585.731 129H581.699V128.008H585.619C586.782 128.008 587.363 127.384 587.363 126.136V125.976C587.363 125.101 587.043 124.445 586.403 124.008C585.891 123.645 585.251 123.464 584.483 123.464C583.907 123.464 583.337 123.565 582.771 123.768V122.712L586.403 118.68H587.507L584.227 122.392C584.334 122.381 584.446 122.376 584.563 122.376C585.587 122.376 586.441 122.637 587.123 123.16C587.998 123.832 588.435 124.765 588.435 125.96V126.184C588.435 127.4 589.022 128.008 590.195 128.008ZM591.894 120.088C591.467 120.088 591.254 119.869 591.254 119.432C591.254 118.995 591.467 118.776 591.894 118.776C592.32 118.776 592.534 118.995 592.534 119.432C592.534 119.869 592.32 120.088 591.894 120.088ZM593.718 120.088C593.291 120.088 593.078 119.869 593.078 119.432C593.078 118.995 593.291 118.776 593.718 118.776C594.144 118.776 594.358 118.995 594.358 119.432C594.358 119.869 594.144 120.088 593.718 120.088ZM595.43 128.008H595.99V129H595.302C594.342 129 593.622 128.675 593.142 128.024C592.64 128.675 591.915 129 590.965 129H590.277V128.008H590.838C592.011 128.008 592.598 127.4 592.598 126.184V122.712L593.67 122.152V126.184C593.67 127.4 594.256 128.008 595.43 128.008ZM595.668 129V128.008H596.116C597.332 128.008 597.94 127.379 597.94 126.12V119.24L599.012 118.68V126.136C599.012 127.043 598.745 127.757 598.212 128.28C597.711 128.76 597.049 129 596.228 129H595.668ZM601.893 129V119.24L602.965 118.68V129H601.893Z" fill="#2B334E"/>
<path fill-rule="evenodd" clip-rule="evenodd" d="M565.173 60.2128C567.498 61.0107 569.35 62.9566 570.125 65.4232L570.208 65.6732C571.096 68.2899 570.735 71.1066 569.248 73.2191C568.977 73.6024 569.037 74.0607 569.323 74.2774L573.639 77.5566C573.791 77.6712 573.939 77.6712 574.031 77.6607C574.135 77.6441 574.287 77.5878 574.41 77.4128L574.891 76.7295C576.327 74.6941 578.639 73.4378 581.081 73.367C583.823 73.3107 586.285 74.567 587.819 76.7816L588.064 77.1378C588.187 77.3128 588.337 77.3712 588.444 77.3878C588.535 77.4066 588.685 77.4003 588.835 77.2837L593.129 74.0441C593.429 73.8191 593.496 73.3378 593.273 73.0149L592.731 72.2337C591.335 70.217 590.921 67.6003 591.623 65.2357C592.385 62.6607 594.325 60.6232 596.814 59.7899L597.233 59.6482C597.569 59.5378 597.75 59.1212 597.631 58.7378L595.991 53.4857C595.914 53.2399 595.756 53.1295 595.669 53.0837C595.544 53.0191 595.408 53.0087 595.279 53.0524L594.571 53.2878C592.148 54.0941 589.475 53.6566 587.423 52.1128L587.198 51.9441C585.248 50.4774 584.087 48.1128 584.096 45.6212L584.1 45.0378C584.1 44.7607 583.969 44.5878 583.889 44.5087C583.814 44.4316 583.687 44.3399 583.508 44.3399L578.202 44.3337C577.877 44.3337 577.612 44.6441 577.61 45.0274L577.608 45.5316C577.598 48.0628 576.412 50.4712 574.437 51.9774L574.169 52.1816C571.996 53.8337 569.162 54.3003 566.596 53.4253C566.498 53.392 566.406 53.3982 566.319 53.4441C566.252 53.4774 566.131 53.5628 566.073 53.7524L564.371 59.1607C564.248 59.5545 564.45 59.9649 564.831 60.0962L565.173 60.2128ZM573.946 81.8337C572.933 81.8337 571.95 81.5045 571.121 80.8732L566.804 77.5962C564.741 76.0337 564.285 73.0274 565.785 70.8962C566.564 69.792 566.725 68.3732 566.266 67.0274L566.152 66.6774C565.771 65.4649 564.9 64.5232 563.823 64.1545H563.821L563.481 64.0357C560.943 63.167 559.589 60.4774 560.396 57.9107L562.096 52.5045C562.481 51.2816 563.312 50.2941 564.437 49.7253C565.537 49.1712 566.781 49.0857 567.943 49.4837C569.191 49.9087 570.577 49.6774 571.646 48.8649L571.914 48.6607C572.864 47.9357 573.437 46.7587 573.441 45.5149L573.443 45.0128C573.454 42.3378 575.589 40.167 578.2 40.167H578.208L583.514 40.1732C584.768 40.1753 585.952 40.6712 586.843 41.5691C587.766 42.4962 588.271 43.7357 588.266 45.0587L588.262 45.6399C588.258 46.8191 588.798 47.9337 589.708 48.617L589.931 48.7857C590.887 49.5045 592.133 49.7107 593.252 49.3357L593.958 49.1003C595.16 48.7003 596.439 48.7982 597.566 49.3753C598.723 49.967 599.577 50.9857 599.968 52.2462L601.608 57.4982C602.4 60.0357 601.029 62.7732 598.556 63.6003L598.137 63.7399C596.937 64.1441 595.993 65.1441 595.616 66.4191C595.271 67.5878 595.471 68.8732 596.156 69.8607L596.698 70.642C598.185 72.792 597.71 75.8087 595.639 77.3691L591.346 80.6107C590.314 81.3899 589.05 81.7045 587.781 81.5024C586.502 81.2962 585.385 80.5878 584.637 79.5087L584.391 79.1503C583.662 78.1003 582.496 77.4628 581.273 77.5316C580.048 77.5649 578.989 78.1462 578.298 79.1295L577.816 79.8128C577.062 80.8816 575.943 81.5795 574.671 81.7795C574.427 81.817 574.185 81.8337 573.946 81.8337V81.8337ZM581 57.8752C579.277 57.8752 577.875 59.2773 577.875 61.0002C577.875 62.7231 579.277 64.1252 581 64.1252C582.723 64.1252 584.125 62.7231 584.125 61.0002C584.125 59.2773 582.723 57.8752 581 57.8752M581 68.2919C576.979 68.2919 573.708 65.0211 573.708 61.0002C573.708 56.9794 576.979 53.7086 581 53.7086C585.021 53.7086 588.292 56.9794 588.292 61.0002C588.292 65.0211 585.021 68.2919 581 68.2919" fill="#FF5364"/>
<mask id="mask3" mask-type="alpha" maskUnits="userSpaceOnUse" x="560" y="40" width="42" height="42">
<path fill-rule="evenodd" clip-rule="evenodd" d="M565.173 60.2128C567.498 61.0107 569.35 62.9566 570.125 65.4232L570.208 65.6732C571.096 68.2899 570.735 71.1066 569.248 73.2191C568.977 73.6024 569.037 74.0607 569.323 74.2774L573.639 77.5566C573.791 77.6712 573.939 77.6712 574.031 77.6607C574.135 77.6441 574.287 77.5878 574.41 77.4128L574.891 76.7295C576.327 74.6941 578.639 73.4378 581.081 73.367C583.823 73.3107 586.285 74.567 587.819 76.7816L588.064 77.1378C588.187 77.3128 588.337 77.3712 588.444 77.3878C588.535 77.4066 588.685 77.4003 588.835 77.2837L593.129 74.0441C593.429 73.8191 593.496 73.3378 593.273 73.0149L592.731 72.2337C591.335 70.217 590.921 67.6003 591.623 65.2357C592.385 62.6607 594.325 60.6232 596.814 59.7899L597.233 59.6482C597.569 59.5378 597.75 59.1212 597.631 58.7378L595.991 53.4857C595.914 53.2399 595.756 53.1295 595.669 53.0837C595.544 53.0191 595.408 53.0087 595.279 53.0524L594.571 53.2878C592.148 54.0941 589.475 53.6566 587.423 52.1128L587.198 51.9441C585.248 50.4774 584.087 48.1128 584.096 45.6212L584.1 45.0378C584.1 44.7607 583.969 44.5878 583.889 44.5087C583.814 44.4316 583.687 44.3399 583.508 44.3399L578.202 44.3337C577.877 44.3337 577.612 44.6441 577.61 45.0274L577.608 45.5316C577.598 48.0628 576.412 50.4712 574.437 51.9774L574.169 52.1816C571.996 53.8337 569.162 54.3003 566.596 53.4253C566.498 53.392 566.406 53.3982 566.319 53.4441C566.252 53.4774 566.131 53.5628 566.073 53.7524L564.371 59.1607C564.248 59.5545 564.45 59.9649 564.831 60.0962L565.173 60.2128ZM573.946 81.8337C572.933 81.8337 571.95 81.5045 571.121 80.8732L566.804 77.5962C564.741 76.0337 564.285 73.0274 565.785 70.8962C566.564 69.792 566.725 68.3732 566.266 67.0274L566.152 66.6774C565.771 65.4649 564.9 64.5232 563.823 64.1545H563.821L563.481 64.0357C560.943 63.167 559.589 60.4774 560.396 57.9107L562.096 52.5045C562.481 51.2816 563.312 50.2941 564.437 49.7253C565.537 49.1712 566.781 49.0857 567.943 49.4837C569.191 49.9087 570.577 49.6774 571.646 48.8649L571.914 48.6607C572.864 47.9357 573.437 46.7587 573.441 45.5149L573.443 45.0128C573.454 42.3378 575.589 40.167 578.2 40.167H578.208L583.514 40.1732C584.768 40.1753 585.952 40.6712 586.843 41.5691C587.766 42.4962 588.271 43.7357 588.266 45.0587L588.262 45.6399C588.258 46.8191 588.798 47.9337 589.708 48.617L589.931 48.7857C590.887 49.5045 592.133 49.7107 593.252 49.3357L593.958 49.1003C595.16 48.7003 596.439 48.7982 597.566 49.3753C598.723 49.967 599.577 50.9857 599.968 52.2462L601.608 57.4982C602.4 60.0357 601.029 62.7732 598.556 63.6003L598.137 63.7399C596.937 64.1441 595.993 65.1441 595.616 66.4191C595.271 67.5878 595.471 68.8732 596.156 69.8607L596.698 70.642C598.185 72.792 597.71 75.8087 595.639 77.3691L591.346 80.6107C590.314 81.3899 589.05 81.7045 587.781 81.5024C586.502 81.2962 585.385 80.5878 584.637 79.5087L584.391 79.1503C583.662 78.1003 582.496 77.4628 581.273 77.5316C580.048 77.5649 578.989 78.1462 578.298 79.1295L577.816 79.8128C577.062 80.8816 575.943 81.5795 574.671 81.7795C574.427 81.817 574.185 81.8337 573.946 81.8337V81.8337ZM581 57.8752C579.277 57.8752 577.875 59.2773 577.875 61.0002C577.875 62.7231 579.277 64.1252 581 64.1252C582.723 64.1252 584.125 62.7231 584.125 61.0002C584.125 59.2773 582.723 57.8752 581 57.8752M581 68.2919C576.979 68.2919 573.708 65.0211 573.708 61.0002C573.708 56.9794 576.979 53.7086 581 53.7086C585.021 53.7086 588.292 56.9794 588.292 61.0002C588.292 65.0211 585.021 68.2919 581 68.2919" fill="white"/>
</mask>
<g mask="url(#mask3)">
<rect x="556" y="36" width="50" height="50" fill="#FF5364"/>
</g>
<g filter="url(#filter5_d)">
<rect x="487" y="232.428" width="187" height="163" rx="32" fill="white"/>
</g>
<path d="M561.664 350.436C561.162 349.796 560.912 348.953 560.912 347.908C560.912 346.756 561.21 345.865 561.808 345.236C562.33 344.67 563.024 344.388 563.888 344.388C564.773 344.388 565.456 344.665 565.936 345.22C566.352 345.7 566.56 346.34 566.56 347.14V348.772C566.56 349.582 566.32 350.228 565.84 350.708C565.36 351.177 564.704 351.417 563.872 351.428H561.84C560.666 351.428 560.08 352.036 560.08 353.252V355.908L559.008 356.468V353.22C559.008 352.334 559.269 351.641 559.792 351.14C560.261 350.681 560.885 350.446 561.664 350.436ZM565.488 348.676V347.236C565.488 345.988 564.954 345.364 563.888 345.364C563.28 345.364 562.805 345.588 562.464 346.036C562.133 346.484 561.968 347.102 561.968 347.892C561.968 348.692 562.128 349.316 562.448 349.764C562.768 350.212 563.21 350.436 563.776 350.436C564.917 350.436 565.488 349.849 565.488 348.676ZM569.284 351.428V341.668L570.356 341.108V351.428H569.284ZM575.756 342.468C575.318 342.468 575.1 342.244 575.1 341.796C575.1 341.369 575.318 341.156 575.756 341.156C576.172 341.156 576.38 341.369 576.38 341.796C576.38 342.244 576.172 342.468 575.756 342.468ZM578.156 350.436H578.716V351.428H578.028C577.366 351.428 576.817 351.268 576.38 350.948C576.294 352.718 575.58 353.838 574.236 354.308C573.894 354.425 573.532 354.484 573.148 354.484C572.529 354.484 571.932 354.334 571.356 354.036V353.092C571.9 353.39 572.454 353.54 573.02 353.54C573.468 353.54 573.862 353.438 574.204 353.236C574.95 352.788 575.324 351.95 575.324 350.724V345.14L576.38 344.58V344.596L576.396 344.58V348.612C576.396 349.828 576.982 350.436 578.156 350.436ZM580.019 342.516C579.592 342.516 579.379 342.297 579.379 341.86C579.379 341.422 579.592 341.204 580.019 341.204C580.445 341.204 580.659 341.422 580.659 341.86C580.659 342.297 580.445 342.516 580.019 342.516ZM581.843 342.516C581.416 342.516 581.203 342.297 581.203 341.86C581.203 341.422 581.416 341.204 581.843 341.204C582.269 341.204 582.483 341.422 582.483 341.86C582.483 342.297 582.269 342.516 581.843 342.516ZM583.555 350.436H584.115V351.428H583.427C582.467 351.428 581.747 351.102 581.267 350.452C580.765 351.102 580.04 351.428 579.09 351.428H578.402V350.436H578.963C580.136 350.436 580.723 349.828 580.723 348.612V345.14L581.795 344.58V348.612C581.795 349.828 582.381 350.436 583.555 350.436ZM583.793 351.428V350.436H584.241C585.457 350.436 586.065 349.806 586.065 348.548V341.668L587.137 341.108V348.564C587.137 349.47 586.87 350.185 586.337 350.708C585.836 351.188 585.174 351.428 584.353 351.428H583.793ZM595.858 341.668L596.914 341.108V348.564C596.914 349.47 596.647 350.185 596.114 350.708C595.623 351.188 594.967 351.428 594.146 351.428H588.898L589.41 350.436H591.858V343.748L592.914 343.188V350.436H594.034C595.25 350.436 595.858 349.806 595.858 348.548V341.668ZM599.799 351.428V341.668L600.871 341.108V351.428H599.799Z" fill="#2B334E"/>
<path fill-rule="evenodd" clip-rule="evenodd" d="M571.041 270.928C569.241 270.928 567.554 271.624 566.291 272.888C563.67 275.513 563.67 279.786 566.293 282.415L581 297.147L595.708 282.415C598.331 279.786 598.331 275.513 595.708 272.888C593.183 270.357 588.733 270.361 586.208 272.888L582.475 276.628C581.691 277.413 580.308 277.413 579.525 276.628L575.791 272.886C574.529 271.624 572.843 270.928 571.041 270.928M581 302.178V302.178C580.448 302.178 579.916 301.959 579.527 301.565L563.343 285.357C559.102 281.107 559.102 274.192 563.343 269.942C565.393 267.892 568.127 266.761 571.041 266.761C573.956 266.761 576.691 267.892 578.739 269.942L581 272.207L583.26 269.945C585.31 267.892 588.043 266.761 590.96 266.761C593.873 266.761 596.608 267.892 598.656 269.942C602.9 274.192 602.9 281.107 598.658 285.357L582.475 301.567C582.083 301.959 581.554 302.178 581 302.178" fill="#FF5364"/>
<mask id="mask4" mask-type="alpha" maskUnits="userSpaceOnUse" x="560" y="266" width="42" height="37">
<path fill-rule="evenodd" clip-rule="evenodd" d="M571.041 270.928C569.241 270.928 567.554 271.624 566.291 272.888C563.67 275.513 563.67 279.786 566.293 282.415L581 297.147L595.708 282.415C598.331 279.786 598.331 275.513 595.708 272.888C593.183 270.357 588.733 270.361 586.208 272.888L582.475 276.628C581.691 277.413 580.308 277.413 579.525 276.628L575.791 272.886C574.529 271.624 572.843 270.928 571.041 270.928M581 302.178V302.178C580.448 302.178 579.916 301.959 579.527 301.565L563.343 285.357C559.102 281.107 559.102 274.192 563.343 269.942C565.393 267.892 568.127 266.761 571.041 266.761C573.956 266.761 576.691 267.892 578.739 269.942L581 272.207L583.26 269.945C585.31 267.892 588.043 266.761 590.96 266.761C593.873 266.761 596.608 267.892 598.656 269.942C602.9 274.192 602.9 281.107 598.658 285.357L582.475 301.567C582.083 301.959 581.554 302.178 581 302.178" fill="white"/>
</mask>
<g mask="url(#mask4)">
<rect x="556" y="258.428" width="50" height="50" fill="#FF5364"/>
</g>
<g filter="url(#filter6_d)">
<rect x="723" y="10" width="187" height="163" rx="32" fill="white"/>
</g>
<path d="M785.734 119.96C785.296 119.96 785.078 119.736 785.078 119.288C785.078 118.861 785.296 118.648 785.734 118.648C786.15 118.648 786.358 118.861 786.358 119.288C786.358 119.736 786.15 119.96 785.734 119.96ZM787.558 119.96C787.12 119.96 786.902 119.736 786.902 119.288C786.902 118.861 787.12 118.648 787.558 118.648C787.974 118.648 788.182 118.861 788.182 119.288C788.182 119.736 787.974 119.96 787.558 119.96ZM790.662 128.008H791.206V129H790.518C789.376 129 788.582 128.552 788.134 127.656C787.579 128.232 786.896 128.52 786.086 128.52C785.168 128.52 784.443 128.173 783.91 127.48C783.462 126.893 783.238 126.163 783.238 125.288C783.238 124.264 783.536 123.443 784.134 122.824C784.656 122.28 785.302 122.008 786.07 122.008C786.763 122.008 787.344 122.211 787.814 122.616V121.752L788.886 121.192V126.184C788.886 127.4 789.478 128.008 790.662 128.008ZM787.814 123.832C787.344 123.267 786.774 122.984 786.102 122.984C785.568 122.984 785.131 123.203 784.79 123.64C784.459 124.067 784.294 124.621 784.294 125.304C784.294 125.997 784.459 126.552 784.79 126.968C785.131 127.384 785.574 127.592 786.118 127.592C786.811 127.592 787.387 127.288 787.846 126.68C787.824 126.488 787.814 126.333 787.814 126.216V123.832ZM796.031 128.008H796.591V129H795.903C794.943 129 794.223 128.675 793.743 128.024C793.242 128.675 792.516 129 791.567 129H790.879V128.008H791.439C792.612 128.008 793.199 127.4 793.199 126.184V122.712L794.271 122.152V126.184C794.271 127.4 794.858 128.008 796.031 128.008ZM792.399 130.68C792.826 130.68 793.039 130.899 793.039 131.336C793.039 131.773 792.826 131.992 792.399 131.992C791.972 131.992 791.759 131.773 791.759 131.336C791.759 130.899 791.972 130.68 792.399 130.68ZM794.223 130.68C794.65 130.68 794.863 130.899 794.863 131.336C794.863 131.773 794.65 131.992 794.223 131.992C793.796 131.992 793.583 131.773 793.583 131.336C793.583 130.899 793.796 130.68 794.223 130.68ZM796.27 129V128.008H796.718C797.934 128.008 798.542 127.379 798.542 126.12V119.24L799.614 118.68V126.136C799.614 127.043 799.347 127.757 798.814 128.28C798.312 128.76 797.651 129 796.83 129H796.27ZM809.519 128.008V129H807.823C807.812 129.704 807.583 130.323 807.135 130.856C806.697 131.4 806.127 131.757 805.423 131.928C805.167 132.003 804.889 132.04 804.591 132.04C803.972 132.04 803.369 131.891 802.783 131.592V130.648C803.337 130.947 803.887 131.096 804.431 131.096C804.868 131.096 805.252 131 805.583 130.808C805.913 130.637 806.191 130.376 806.415 130.024C806.639 129.683 806.751 129.341 806.751 129L805.391 128.952C804.207 128.899 803.321 128.525 802.735 127.832C802.255 127.245 802.015 126.461 802.015 125.48C802.015 124.328 802.313 123.437 802.911 122.808C803.444 122.243 804.159 121.96 805.055 121.96C805.983 121.96 806.692 122.237 807.183 122.792C807.609 123.272 807.823 123.912 807.823 124.712V128.008H809.519ZM806.751 124.824C806.751 123.565 806.185 122.936 805.055 122.936C804.425 122.936 803.935 123.16 803.583 123.608C803.241 124.045 803.071 124.664 803.071 125.464C803.071 127.053 803.855 127.885 805.423 127.96C805.892 127.992 806.335 128.008 806.751 128.008V124.824ZM813.336 119.448L813.032 120.008H810.568L810.872 119.448H811.272C811.176 119.256 811.128 119.064 811.128 118.872C811.128 118.573 811.24 118.312 811.464 118.088C811.688 117.864 811.949 117.752 812.248 117.752C812.493 117.752 812.728 117.827 812.952 117.976V118.568C812.738 118.419 812.53 118.344 812.328 118.344C812.157 118.344 812.008 118.397 811.88 118.504C811.762 118.611 811.704 118.739 811.704 118.888C811.704 119.08 811.784 119.267 811.944 119.448H813.336ZM814.344 128.008H814.904V129H814.216C813.256 129 812.536 128.675 812.056 128.024C811.554 128.675 810.829 129 809.88 129H809.192V128.008H809.752C810.925 128.008 811.512 127.4 811.512 126.184V122.712L812.584 122.152V126.184C812.584 127.4 813.17 128.008 814.344 128.008ZM814.582 129V128.008H815.558C816.742 128.008 817.334 127.4 817.334 126.184V123.88L818.406 123.32V126.184C818.406 127.4 818.993 128.008 820.166 128.008H820.758C821.932 128.008 822.518 127.4 822.518 126.184V123.304L823.59 122.728V126.184C823.59 127.4 824.182 128.008 825.366 128.008H825.942C827.126 128.008 827.718 127.4 827.718 126.184V122.712L828.79 122.152V126.12C828.79 127.379 829.398 128.008 830.614 128.008H831.542V129H830.502C829.489 129 828.748 128.643 828.278 127.928C827.809 128.643 827.084 129 826.102 129H825.222C824.23 129 823.51 128.648 823.062 127.944C822.604 128.648 821.889 129 820.918 129H820.038C819.046 129 818.321 128.648 817.862 127.944C817.414 128.648 816.694 129 815.702 129H814.582ZM841.287 128.008H841.831V129H841.143C840.172 129 839.447 128.664 838.967 127.992C838.433 128.877 837.623 129.32 836.535 129.32C835.436 129.32 834.625 128.883 834.103 128.008C833.612 128.669 832.881 129 831.911 129H831.223V128.008H831.783C832.956 128.008 833.543 127.4 833.543 126.184V125.64C833.543 124.413 833.841 123.475 834.439 122.824C834.961 122.248 835.66 121.96 836.535 121.96C837.537 121.96 838.3 122.333 838.823 123.08C839.281 123.72 839.511 124.573 839.511 125.64V126.184C839.511 127.4 840.103 128.008 841.287 128.008ZM836.535 128.328C837.121 128.328 837.585 128.088 837.927 127.608C838.268 127.117 838.439 126.456 838.439 125.624C838.439 123.832 837.804 122.936 836.535 122.936C835.255 122.936 834.615 123.832 834.615 125.624C834.615 127.427 835.255 128.328 836.535 128.328ZM841.504 129V128.008H841.952C843.168 128.008 843.776 127.379 843.776 126.12V119.24L844.848 118.68V126.136C844.848 127.043 844.581 127.757 844.048 128.28C843.547 128.76 842.885 129 842.064 129H841.504ZM847.729 129V119.24L848.801 118.68V129H847.729Z" fill="black"/>
<path fill-rule="evenodd" clip-rule="evenodd" d="M817 44.6385L802.417 52.8427V53.1448C802.417 63.0198 807.762 72.1635 816.371 77.0073L817 77.3614L817.629 77.0073C826.238 72.1635 831.583 63.0198 831.583 53.1448V52.8427L817 44.6385ZM817 81.5223C816.294 81.5223 815.587 81.3473 814.96 80.9932L814.329 80.6369C804.41 75.0598 798.25 64.5244 798.25 53.1452V52.8432C798.25 51.3452 799.062 49.9536 800.371 49.214L814.958 41.0098C816.219 40.3015 817.783 40.2994 819.04 41.0077L833.625 49.2119C834.937 49.9536 835.75 51.3452 835.75 52.8432V53.1452C835.75 64.5244 829.59 75.0598 819.671 80.6369L819.042 80.9911C818.412 81.3452 817.706 81.5223 817 81.5223V81.5223Z" fill="#FF5364"/>
<mask id="mask5" mask-type="alpha" maskUnits="userSpaceOnUse" x="798" y="40" width="38" height="42">
<path fill-rule="evenodd" clip-rule="evenodd" d="M817 44.6385L802.417 52.8427V53.1448C802.417 63.0198 807.762 72.1635 816.371 77.0073L817 77.3614L817.629 77.0073C826.238 72.1635 831.583 63.0198 831.583 53.1448V52.8427L817 44.6385ZM817 81.5223C816.294 81.5223 815.587 81.3473 814.96 80.9932L814.329 80.6369C804.41 75.0598 798.25 64.5244 798.25 53.1452V52.8432C798.25 51.3452 799.062 49.9536 800.371 49.214L814.958 41.0098C816.219 40.3015 817.783 40.2994 819.04 41.0077L833.625 49.2119C834.937 49.9536 835.75 51.3452 835.75 52.8432V53.1452C835.75 64.5244 829.59 75.0598 819.671 80.6369L819.042 80.9911C818.412 81.3452 817.706 81.5223 817 81.5223V81.5223Z" fill="white"/>
</mask>
<g mask="url(#mask5)">
<rect x="792" y="36" width="50" height="50" fill="#FF5364"/>
</g>
<g filter="url(#filter7_d)">
<rect x="723" y="232.428" width="187" height="163" rx="32" fill="white"/>
</g>
<path d="M796.784 344.1C796.346 344.1 796.128 343.876 796.128 343.428C796.128 343.001 796.346 342.788 796.784 342.788C797.2 342.788 797.408 343.001 797.408 343.428C797.408 343.876 797.2 344.1 796.784 344.1ZM802.704 350.436H803.264V351.428H802.576C801.914 351.428 801.365 351.273 800.928 350.964C800.853 352.084 800.405 352.964 799.584 353.604C798.858 354.18 797.941 354.468 796.832 354.468C795.477 354.468 794.426 353.988 793.68 353.028C793.093 352.292 792.8 351.412 792.8 350.388C792.8 349.47 793.034 348.681 793.504 348.02L794.544 347.812C794.032 348.59 793.776 349.422 793.776 350.308C793.776 351.246 794.08 352.02 794.688 352.628C795.253 353.193 795.968 353.476 796.832 353.476C797.845 353.476 798.629 353.177 799.184 352.58C799.642 352.089 799.872 351.444 799.872 350.644V345.14L800.944 344.58V348.612C800.944 349.828 801.53 350.436 802.704 350.436ZM808.094 350.436H808.654V351.428H807.966C807.006 351.428 806.286 351.102 805.806 350.452C805.304 351.102 804.579 351.428 803.63 351.428H802.942V350.436H803.502C804.675 350.436 805.262 349.828 805.262 348.612V345.14L806.334 344.58V348.612C806.334 349.828 806.92 350.436 808.094 350.436ZM804.462 353.108C804.888 353.108 805.102 353.326 805.102 353.764C805.102 354.201 804.888 354.42 804.462 354.42C804.035 354.42 803.822 354.201 803.822 353.764C803.822 353.326 804.035 353.108 804.462 353.108ZM806.286 353.108C806.712 353.108 806.926 353.326 806.926 353.764C806.926 354.201 806.712 354.42 806.286 354.42C805.859 354.42 805.646 354.201 805.646 353.764C805.646 353.326 805.859 353.108 806.286 353.108ZM816.828 350.436H817.228V351.428H816.7C815.74 351.428 815.02 351.102 814.54 350.452C814.06 351.102 813.335 351.428 812.364 351.428H808.332V350.436H812.252C813.415 350.436 813.996 349.812 813.996 348.564V348.404C813.996 347.529 813.676 346.873 813.036 346.436C812.524 346.073 811.884 345.892 811.116 345.892C810.54 345.892 809.97 345.993 809.404 346.196V345.14L813.036 341.108H814.14L810.86 344.82C810.967 344.809 811.079 344.804 811.196 344.804C812.22 344.804 813.074 345.065 813.756 345.588C814.631 346.26 815.068 347.193 815.068 348.388V348.612C815.068 349.828 815.655 350.436 816.828 350.436ZM826.974 350.436H827.518V351.428H826.83C825.86 351.428 825.134 351.092 824.654 350.42C824.121 351.305 823.31 351.748 822.222 351.748C821.124 351.748 820.313 351.31 819.79 350.436C819.3 351.097 818.569 351.428 817.598 351.428H816.91V350.436H817.47C818.644 350.436 819.23 349.828 819.23 348.612V348.068C819.23 346.841 819.529 345.902 820.126 345.252C820.649 344.676 821.348 344.388 822.222 344.388C823.225 344.388 823.988 344.761 824.51 345.508C824.969 346.148 825.198 347.001 825.198 348.068V348.612C825.198 349.828 825.79 350.436 826.974 350.436ZM822.222 350.756C822.809 350.756 823.273 350.516 823.614 350.036C823.956 349.545 824.126 348.884 824.126 348.052C824.126 346.26 823.492 345.364 822.222 345.364C820.942 345.364 820.302 346.26 820.302 348.052C820.302 349.854 820.942 350.756 822.222 350.756ZM828.808 342.516C828.381 342.516 828.168 342.297 828.168 341.86C828.168 341.422 828.381 341.204 828.808 341.204C829.234 341.204 829.448 341.422 829.448 341.86C829.448 342.297 829.234 342.516 828.808 342.516ZM830.632 342.516C830.205 342.516 829.992 342.297 829.992 341.86C829.992 341.422 830.205 341.204 830.632 341.204C831.058 341.204 831.272 341.422 831.272 341.86C831.272 342.297 831.058 342.516 830.632 342.516ZM832.344 350.436H832.904V351.428H832.216C831.256 351.428 830.536 351.102 830.056 350.452C829.554 351.102 828.829 351.428 827.88 351.428H827.192V350.436H827.752C828.925 350.436 829.512 349.828 829.512 348.612V345.14L830.584 344.58V348.612C830.584 349.828 831.17 350.436 832.344 350.436ZM832.582 351.428V350.436H833.03C834.246 350.436 834.854 349.806 834.854 348.548V341.668L835.926 341.108V348.564C835.926 349.47 835.66 350.185 835.126 350.708C834.625 351.188 833.964 351.428 833.142 351.428H832.582ZM838.807 351.428V341.668L839.879 341.108V351.428H838.807Z" fill="#2B334E"/>
<path fill-rule="evenodd" clip-rule="evenodd" d="M835.733 272.934C835.729 272.784 835.685 272.642 835.645 272.499C835.614 272.378 835.6 272.255 835.547 272.144C835.5 272.036 835.418 271.949 835.347 271.849C835.26 271.721 835.181 271.594 835.068 271.49C835.05 271.471 835.041 271.446 835.02 271.43C834.945 271.365 834.854 271.342 834.772 271.29C834.647 271.209 834.525 271.126 834.383 271.071C834.243 271.021 834.106 271.009 833.962 270.988C833.862 270.974 833.772 270.928 833.666 270.928H823.25C822.097 270.928 821.166 271.861 821.166 273.011C821.166 274.161 822.097 275.094 823.25 275.094H829.137L820.729 284.903L811.82 279.559C810.939 279.026 809.806 279.221 809.147 280.011L798.731 292.511C797.995 293.394 798.114 294.709 798.997 295.444C799.389 295.769 799.86 295.928 800.331 295.928C800.929 295.928 801.52 295.674 801.933 295.178L811.208 284.049L820.093 289.382C820.966 289.905 822.087 289.721 822.747 288.951L831.583 278.642V283.428C831.583 284.578 832.514 285.511 833.666 285.511C834.818 285.511 835.75 284.578 835.75 283.428V273.011C835.75 272.984 835.735 272.961 835.733 272.934" fill="#F05665"/>
<mask id="mask6" mask-type="alpha" maskUnits="userSpaceOnUse" x="798" y="270" width="38" height="26">
<path fill-rule="evenodd" clip-rule="evenodd" d="M835.733 272.934C835.729 272.784 835.685 272.642 835.645 272.499C835.614 272.378 835.6 272.255 835.547 272.144C835.5 272.036 835.418 271.949 835.347 271.849C835.26 271.721 835.181 271.594 835.068 271.49C835.05 271.471 835.041 271.446 835.02 271.43C834.945 271.365 834.854 271.342 834.772 271.29C834.647 271.209 834.525 271.126 834.383 271.071C834.243 271.021 834.106 271.009 833.962 270.988C833.862 270.974 833.772 270.928 833.666 270.928H823.25C822.097 270.928 821.166 271.861 821.166 273.011C821.166 274.161 822.097 275.094 823.25 275.094H829.137L820.729 284.903L811.82 279.559C810.939 279.026 809.806 279.221 809.147 280.011L798.731 292.511C797.995 293.394 798.114 294.709 798.997 295.444C799.389 295.769 799.86 295.928 800.331 295.928C800.929 295.928 801.52 295.674 801.933 295.178L811.208 284.049L820.093 289.382C820.966 289.905 822.087 289.721 822.747 288.951L831.583 278.642V283.428C831.583 284.578 832.514 285.511 833.666 285.511C834.818 285.511 835.75 284.578 835.75 283.428V273.011C835.75 272.984 835.735 272.961 835.733 272.934" fill="white"/>
</mask>
<g mask="url(#mask6)">
<rect x="792" y="258.428" width="50" height="50" fill="#F05665"/>
</g>
<path d="M129.406 283.551C128.073 281.238 120.74 269.634 108.281 270.009C96.7604 270.301 90.0937 280.426 88.2813 283.551C87.9062 284.196 87.9062 284.988 88.2813 285.634C89.5937 287.905 96.6146 299.176 108.885 299.176H109.406C120.927 298.884 127.615 288.759 129.406 285.634C129.781 284.988 129.781 284.196 129.406 283.551ZM109.302 295.009C100.323 295.217 94.4687 287.53 92.6354 284.592C94.7187 281.238 100.156 274.384 108.49 274.176C117.427 273.946 123.302 281.655 125.156 284.592C123.01 287.946 117.635 294.801 109.302 295.009Z" fill="#FF5364"/>
<path d="M108.844 277.301C104.823 277.301 101.552 280.572 101.552 284.592C101.552 288.613 104.823 291.884 108.844 291.884C112.865 291.884 116.136 288.613 116.136 284.592C116.136 280.572 112.865 277.301 108.844 277.301ZM108.844 287.717C107.115 287.717 105.719 286.322 105.719 284.592C105.719 282.863 107.115 281.467 108.844 281.467C110.573 281.467 111.969 282.863 111.969 284.592C111.969 286.322 110.573 287.717 108.844 287.717Z" fill="#FF5364"/>
<defs>
<filter id="filter0_d" x="0" y="0" width="217" height="193" filterUnits="userSpaceOnUse" color-interpolation-filters="sRGB">
<feFlood flood-opacity="0" result="BackgroundImageFix"/>
<feColorMatrix in="SourceAlpha" type="matrix" values="0 0 0 0 0 0 0 0 0 0 0 0 0 0 0 0 0 0 127 0"/>
<feOffset dy="5"/>
<feGaussianBlur stdDeviation="7.5"/>
<feColorMatrix type="matrix" values="0 0 0 0 0.290196 0 0 0 0 0.47451 0 0 0 0 0.827451 0 0 0 0.08 0"/>
<feBlend mode="normal" in2="BackgroundImageFix" result="effect1_dropShadow"/>
<feBlend mode="normal" in="SourceGraphic" in2="effect1_dropShadow" result="shape"/>
</filter>
<filter id="filter1_d" x="0" y="222.428" width="217" height="193" filterUnits="userSpaceOnUse" color-interpolation-filters="sRGB">
<feFlood flood-opacity="0" result="BackgroundImageFix"/>
<feColorMatrix in="SourceAlpha" type="matrix" values="0 0 0 0 0 0 0 0 0 0 0 0 0 0 0 0 0 0 127 0"/>
<feOffset dy="5"/>
<feGaussianBlur stdDeviation="7.5"/>
<feColorMatrix type="matrix" values="0 0 0 0 0.290196 0 0 0 0 0.47451 0 0 0 0 0.827451 0 0 0 0.08 0"/>
<feBlend mode="normal" in2="BackgroundImageFix" result="effect1_dropShadow"/>
<feBlend mode="normal" in="SourceGraphic" in2="effect1_dropShadow" result="shape"/>
</filter>
<filter id="filter2_d" x="236" y="0" width="217" height="193" filterUnits="userSpaceOnUse" color-interpolation-filters="sRGB">
<feFlood flood-opacity="0" result="BackgroundImageFix"/>
<feColorMatrix in="SourceAlpha" type="matrix" values="0 0 0 0 0 0 0 0 0 0 0 0 0 0 0 0 0 0 127 0"/>
<feOffset dy="5"/>
<feGaussianBlur stdDeviation="7.5"/>
<feColorMatrix type="matrix" values="0 0 0 0 0.290196 0 0 0 0 0.47451 0 0 0 0 0.827451 0 0 0 0.08 0"/>
<feBlend mode="normal" in2="BackgroundImageFix" result="effect1_dropShadow"/>
<feBlend mode="normal" in="SourceGraphic" in2="effect1_dropShadow" result="shape"/>
</filter>
<filter id="filter3_d" x="236" y="222.428" width="217" height="193" filterUnits="userSpaceOnUse" color-interpolation-filters="sRGB">
<feFlood flood-opacity="0" result="BackgroundImageFix"/>
<feColorMatrix in="SourceAlpha" type="matrix" values="0 0 0 0 0 0 0 0 0 0 0 0 0 0 0 0 0 0 127 0"/>
<feOffset dy="5"/>
<feGaussianBlur stdDeviation="7.5"/>
<feColorMatrix type="matrix" values="0 0 0 0 0.290196 0 0 0 0 0.47451 0 0 0 0 0.827451 0 0 0 0.08 0"/>
<feBlend mode="normal" in2="BackgroundImageFix" result="effect1_dropShadow"/>
<feBlend mode="normal" in="SourceGraphic" in2="effect1_dropShadow" result="shape"/>
</filter>
<filter id="filter4_d" x="472" y="0" width="217" height="193" filterUnits="userSpaceOnUse" color-interpolation-filters="sRGB">
<feFlood flood-opacity="0" result="BackgroundImageFix"/>
<feColorMatrix in="SourceAlpha" type="matrix" values="0 0 0 0 0 0 0 0 0 0 0 0 0 0 0 0 0 0 127 0"/>
<feOffset dy="5"/>
<feGaussianBlur stdDeviation="7.5"/>
<feColorMatrix type="matrix" values="0 0 0 0 0.290196 0 0 0 0 0.47451 0 0 0 0 0.827451 0 0 0 0.08 0"/>
<feBlend mode="normal" in2="BackgroundImageFix" result="effect1_dropShadow"/>
<feBlend mode="normal" in="SourceGraphic" in2="effect1_dropShadow" result="shape"/>
</filter>
<filter id="filter5_d" x="472" y="222.428" width="217" height="193" filterUnits="userSpaceOnUse" color-interpolation-filters="sRGB">
<feFlood flood-opacity="0" result="BackgroundImageFix"/>
<feColorMatrix in="SourceAlpha" type="matrix" values="0 0 0 0 0 0 0 0 0 0 0 0 0 0 0 0 0 0 127 0"/>
<feOffset dy="5"/>
<feGaussianBlur stdDeviation="7.5"/>
<feColorMatrix type="matrix" values="0 0 0 0 0.290196 0 0 0 0 0.47451 0 0 0 0 0.827451 0 0 0 0.08 0"/>
<feBlend mode="normal" in2="BackgroundImageFix" result="effect1_dropShadow"/>
<feBlend mode="normal" in="SourceGraphic" in2="effect1_dropShadow" result="shape"/>
</filter>
<filter id="filter6_d" x="708" y="0" width="217" height="193" filterUnits="userSpaceOnUse" color-interpolation-filters="sRGB">
<feFlood flood-opacity="0" result="BackgroundImageFix"/>
<feColorMatrix in="SourceAlpha" type="matrix" values="0 0 0 0 0 0 0 0 0 0 0 0 0 0 0 0 0 0 127 0"/>
<feOffset dy="5"/>
<feGaussianBlur stdDeviation="7.5"/>
<feColorMatrix type="matrix" values="0 0 0 0 0.290196 0 0 0 0 0.47451 0 0 0 0 0.827451 0 0 0 0.08 0"/>
<feBlend mode="normal" in2="BackgroundImageFix" result="effect1_dropShadow"/>
<feBlend mode="normal" in="SourceGraphic" in2="effect1_dropShadow" result="shape"/>
</filter>
<filter id="filter7_d" x="708" y="222.428" width="217" height="193" filterUnits="userSpaceOnUse" color-interpolation-filters="sRGB">
<feFlood flood-opacity="0" result="BackgroundImageFix"/>
<feColorMatrix in="SourceAlpha" type="matrix" values="0 0 0 0 0 0 0 0 0 0 0 0 0 0 0 0 0 0 127 0"/>
<feOffset dy="5"/>
<feGaussianBlur stdDeviation="7.5"/>
<feColorMatrix type="matrix" values="0 0 0 0 0.290196 0 0 0 0 0.47451 0 0 0 0 0.827451 0 0 0 0.08 0"/>
<feBlend mode="normal" in2="BackgroundImageFix" result="effect1_dropShadow"/>
<feBlend mode="normal" in="SourceGraphic" in2="effect1_dropShadow" result="shape"/>
</filter>
</defs>
</svg>
