<svg width="287" height="263" viewBox="0 0 287 263" fill="none" xmlns="http://www.w3.org/2000/svg">
<g filter="url(#filter0_d)">
<rect x="45" y="30" width="187" height="163" rx="32" fill="white"/>
</g>
<path d="M119.826 140.04C119.389 140.04 119.17 139.816 119.17 139.368C119.17 138.941 119.389 138.728 119.826 138.728C120.242 138.728 120.45 138.941 120.45 139.368C120.45 139.816 120.242 140.04 119.826 140.04ZM120.45 148.232C120.45 150.173 119.735 151.389 118.306 151.88C117.965 151.997 117.602 152.056 117.218 152.056C116.599 152.056 116.002 151.907 115.426 151.608V150.664C115.97 150.963 116.525 151.112 117.09 151.112C117.538 151.112 117.933 151.011 118.274 150.808C119.021 150.36 119.394 149.523 119.394 148.296V142.712L120.45 142.152V148.232ZM126.027 149C125.12 149 124.421 148.707 123.931 148.12C123.525 147.619 123.323 146.984 123.323 146.216V139.24L124.395 138.68V146.184C124.395 147.4 124.981 148.008 126.155 148.008H126.715V149H126.027ZM131.547 148.008H132.107V149H131.419C130.459 149 129.739 148.675 129.259 148.024C128.757 148.675 128.032 149 127.083 149H126.395V148.008H126.955C128.128 148.008 128.715 147.4 128.715 146.184V142.712L129.787 142.152V146.184C129.787 147.4 130.373 148.008 131.547 148.008ZM127.915 150.68C128.341 150.68 128.555 150.899 128.555 151.336C128.555 151.773 128.341 151.992 127.915 151.992C127.488 151.992 127.275 151.773 127.275 151.336C127.275 150.899 127.488 150.68 127.915 150.68ZM129.739 150.68C130.165 150.68 130.379 150.899 130.379 151.336C130.379 151.773 130.165 151.992 129.739 151.992C129.312 151.992 129.099 151.773 129.099 151.336C129.099 150.899 129.312 150.68 129.739 150.68ZM133.401 140.088C132.975 140.088 132.761 139.869 132.761 139.432C132.761 138.995 132.975 138.776 133.401 138.776C133.828 138.776 134.041 138.995 134.041 139.432C134.041 139.869 133.828 140.088 133.401 140.088ZM135.225 140.088C134.799 140.088 134.585 139.869 134.585 139.432C134.585 138.995 134.799 138.776 135.225 138.776C135.652 138.776 135.865 138.995 135.865 139.432C135.865 139.869 135.652 140.088 135.225 140.088ZM136.937 148.008H137.497V149H136.809C135.849 149 135.129 148.675 134.649 148.024C134.148 148.675 133.423 149 132.473 149H131.785V148.008H132.345C133.519 148.008 134.105 147.4 134.105 146.184V142.712L135.177 142.152V146.184C135.177 147.4 135.764 148.008 136.937 148.008ZM139.496 144.712C139.496 143.805 139.768 143.101 140.312 142.6C140.781 142.173 141.4 141.96 142.168 141.96C143.16 141.96 143.923 142.323 144.456 143.048C144.915 143.667 145.144 144.477 145.144 145.48C145.144 146.621 144.851 147.512 144.264 148.152C143.752 148.717 143.085 149 142.264 149C141.261 149 140.515 148.68 140.024 148.04C139.544 148.68 138.824 149 137.864 149H137.176V148.008H137.736C138.909 148.008 139.496 147.4 139.496 146.184V144.712ZM140.568 146.248C140.568 147.421 141.144 148.008 142.296 148.008C142.851 148.008 143.288 147.784 143.608 147.336C143.928 146.888 144.088 146.264 144.088 145.464C144.088 144.675 143.917 144.056 143.576 143.608C143.245 143.16 142.776 142.936 142.168 142.936C141.101 142.936 140.568 143.56 140.568 144.808V146.248ZM153.632 139.24L154.688 138.68V146.136C154.688 147.043 154.421 147.757 153.888 148.28C153.397 148.76 152.741 149 151.92 149H146.672L147.184 148.008H149.632V141.32L150.688 140.76V148.008H151.808C153.024 148.008 153.632 147.379 153.632 146.12V139.24ZM157.573 149V139.24L158.645 138.68V149H157.573Z" fill="#2B334E"/>
<path fill-rule="evenodd" clip-rule="evenodd" d="M139.637 90.8062C138.989 90.4499 138.206 90.4562 137.575 90.8333L129.766 95.4166L132.825 83.5208C134.648 84.5624 136.754 85.1666 139 85.1666C141.245 85.1666 143.352 84.5624 145.177 83.5208L148.279 95.5874L139.637 90.8062ZM139 64.3333C143.596 64.3333 147.333 68.0708 147.333 72.6667C147.333 77.2625 143.596 81 139 81C134.404 81 130.666 77.2625 130.666 72.6667C130.666 68.0708 134.404 64.3333 139 64.3333ZM153.518 99.2312L148.708 80.525C150.45 78.375 151.5 75.6437 151.5 72.6667C151.5 65.7729 145.893 60.1667 139 60.1667C132.108 60.1667 126.5 65.7729 126.5 72.6667C126.5 75.6437 127.55 78.375 129.291 80.525L124.483 99.2312C124.273 100.048 124.575 100.908 125.248 101.415C125.918 101.921 126.831 101.967 127.554 101.546L138.658 95.0271L150.491 101.573C150.806 101.748 151.154 101.833 151.5 101.833C151.952 101.833 152.402 101.687 152.777 101.398C153.433 100.89 153.727 100.037 153.518 99.2312Z" fill="#FF5364"/>
<mask id="mask0" mask-type="alpha" maskUnits="userSpaceOnUse" x="124" y="60" width="30" height="42">
<path fill-rule="evenodd" clip-rule="evenodd" d="M139.637 90.8062C138.989 90.4499 138.206 90.4562 137.575 90.8333L129.766 95.4166L132.825 83.5208C134.648 84.5624 136.754 85.1666 139 85.1666C141.245 85.1666 143.352 84.5624 145.177 83.5208L148.279 95.5874L139.637 90.8062ZM139 64.3333C143.596 64.3333 147.333 68.0708 147.333 72.6667C147.333 77.2625 143.596 81 139 81C134.404 81 130.666 77.2625 130.666 72.6667C130.666 68.0708 134.404 64.3333 139 64.3333ZM153.518 99.2312L148.708 80.525C150.45 78.375 151.5 75.6437 151.5 72.6667C151.5 65.7729 145.893 60.1667 139 60.1667C132.108 60.1667 126.5 65.7729 126.5 72.6667C126.5 75.6437 127.55 78.375 129.291 80.525L124.483 99.2312C124.273 100.048 124.575 100.908 125.248 101.415C125.918 101.921 126.831 101.967 127.554 101.546L138.658 95.0271L150.491 101.573C150.806 101.748 151.154 101.833 151.5 101.833C151.952 101.833 152.402 101.687 152.777 101.398C153.433 100.89 153.727 100.037 153.518 99.2312Z" fill="white"/>
</mask>
<g mask="url(#mask0)">
<rect x="114" y="56" width="50" height="50" fill="#FF5364"/>
</g>
<defs>
<filter id="filter0_d" x="0" y="0" width="287" height="263" filterUnits="userSpaceOnUse" color-interpolation-filters="sRGB">
<feFlood flood-opacity="0" result="BackgroundImageFix"/>
<feColorMatrix in="SourceAlpha" type="matrix" values="0 0 0 0 0 0 0 0 0 0 0 0 0 0 0 0 0 0 127 0"/>
<feOffset dx="5" dy="20"/>
<feGaussianBlur stdDeviation="25"/>
<feColorMatrix type="matrix" values="0 0 0 0 0.290196 0 0 0 0 0.47451 0 0 0 0 0.827451 0 0 0 0.2 0"/>
<feBlend mode="normal" in2="BackgroundImageFix" result="effect1_dropShadow"/>
<feBlend mode="normal" in="SourceGraphic" in2="effect1_dropShadow" result="shape"/>
</filter>
</defs>
</svg>
