<svg width="287" height="264" viewBox="0 0 287 264" fill="none" xmlns="http://www.w3.org/2000/svg">
<g filter="url(#filter0_d)">
<rect x="45" y="30.4277" width="187" height="163" rx="32" fill="white"/>
</g>
<path d="M118.784 142.1C118.346 142.1 118.128 141.876 118.128 141.428C118.128 141.001 118.346 140.788 118.784 140.788C119.2 140.788 119.408 141.001 119.408 141.428C119.408 141.876 119.2 142.1 118.784 142.1ZM124.704 148.436H125.264V149.428H124.576C123.914 149.428 123.365 149.273 122.928 148.964C122.853 150.084 122.405 150.964 121.584 151.604C120.858 152.18 119.941 152.468 118.832 152.468C117.477 152.468 116.426 151.988 115.68 151.028C115.093 150.292 114.8 149.412 114.8 148.388C114.8 147.47 115.034 146.681 115.504 146.02L116.544 145.812C116.032 146.59 115.776 147.422 115.776 148.308C115.776 149.246 116.08 150.02 116.688 150.628C117.253 151.193 117.968 151.476 118.832 151.476C119.845 151.476 120.629 151.177 121.184 150.58C121.642 150.089 121.872 149.444 121.872 148.644V143.14L122.944 142.58V146.612C122.944 147.828 123.53 148.436 124.704 148.436ZM130.094 148.436H130.654V149.428H129.966C129.006 149.428 128.286 149.102 127.806 148.452C127.304 149.102 126.579 149.428 125.63 149.428H124.942V148.436H125.502C126.675 148.436 127.262 147.828 127.262 146.612V143.14L128.334 142.58V146.612C128.334 147.828 128.92 148.436 130.094 148.436ZM126.462 151.108C126.888 151.108 127.102 151.326 127.102 151.764C127.102 152.201 126.888 152.42 126.462 152.42C126.035 152.42 125.822 152.201 125.822 151.764C125.822 151.326 126.035 151.108 126.462 151.108ZM128.286 151.108C128.712 151.108 128.926 151.326 128.926 151.764C128.926 152.201 128.712 152.42 128.286 152.42C127.859 152.42 127.646 152.201 127.646 151.764C127.646 151.326 127.859 151.108 128.286 151.108ZM138.828 148.436H139.228V149.428H138.7C137.74 149.428 137.02 149.102 136.54 148.452C136.06 149.102 135.335 149.428 134.364 149.428H130.332V148.436H134.252C135.415 148.436 135.996 147.812 135.996 146.564V146.404C135.996 145.529 135.676 144.873 135.036 144.436C134.524 144.073 133.884 143.892 133.116 143.892C132.54 143.892 131.97 143.993 131.404 144.196V143.14L135.036 139.108H136.14L132.86 142.82C132.967 142.809 133.079 142.804 133.196 142.804C134.22 142.804 135.074 143.065 135.756 143.588C136.631 144.26 137.068 145.193 137.068 146.388V146.612C137.068 147.828 137.655 148.436 138.828 148.436ZM148.974 148.436H149.518V149.428H148.83C147.86 149.428 147.134 149.092 146.654 148.42C146.121 149.305 145.31 149.748 144.222 149.748C143.124 149.748 142.313 149.31 141.79 148.436C141.3 149.097 140.569 149.428 139.598 149.428H138.91V148.436H139.47C140.644 148.436 141.23 147.828 141.23 146.612V146.068C141.23 144.841 141.529 143.902 142.126 143.252C142.649 142.676 143.348 142.388 144.222 142.388C145.225 142.388 145.988 142.761 146.51 143.508C146.969 144.148 147.198 145.001 147.198 146.068V146.612C147.198 147.828 147.79 148.436 148.974 148.436ZM144.222 148.756C144.809 148.756 145.273 148.516 145.614 148.036C145.956 147.545 146.126 146.884 146.126 146.052C146.126 144.26 145.492 143.364 144.222 143.364C142.942 143.364 142.302 144.26 142.302 146.052C142.302 147.854 142.942 148.756 144.222 148.756ZM150.808 140.516C150.381 140.516 150.168 140.297 150.168 139.86C150.168 139.422 150.381 139.204 150.808 139.204C151.234 139.204 151.448 139.422 151.448 139.86C151.448 140.297 151.234 140.516 150.808 140.516ZM152.632 140.516C152.205 140.516 151.992 140.297 151.992 139.86C151.992 139.422 152.205 139.204 152.632 139.204C153.058 139.204 153.272 139.422 153.272 139.86C153.272 140.297 153.058 140.516 152.632 140.516ZM154.344 148.436H154.904V149.428H154.216C153.256 149.428 152.536 149.102 152.056 148.452C151.554 149.102 150.829 149.428 149.88 149.428H149.192V148.436H149.752C150.925 148.436 151.512 147.828 151.512 146.612V143.14L152.584 142.58V146.612C152.584 147.828 153.17 148.436 154.344 148.436ZM154.582 149.428V148.436H155.03C156.246 148.436 156.854 147.806 156.854 146.548V139.668L157.926 139.108V146.564C157.926 147.47 157.66 148.185 157.126 148.708C156.625 149.188 155.964 149.428 155.142 149.428H154.582ZM160.807 149.428V139.668L161.879 139.108V149.428H160.807Z" fill="#2B334E"/>
<path fill-rule="evenodd" clip-rule="evenodd" d="M157.733 70.9339C157.729 70.7839 157.685 70.6422 157.646 70.4984C157.615 70.3776 157.6 70.2547 157.548 70.1443C157.5 70.0359 157.419 69.9484 157.348 69.8484C157.26 69.7214 157.181 69.5943 157.069 69.4901C157.05 69.4714 157.042 69.4464 157.021 69.4297C156.946 69.3651 156.854 69.3422 156.773 69.2901C156.648 69.2089 156.525 69.1255 156.383 69.0714C156.244 69.0214 156.106 69.0089 155.963 68.988C155.863 68.9734 155.773 68.9276 155.667 68.9276H145.25C144.098 68.9276 143.167 69.8609 143.167 71.0109C143.167 72.1609 144.098 73.0943 145.25 73.0943H151.138L142.729 82.9026L133.821 77.5589C132.94 77.0255 131.806 77.2214 131.148 78.0109L120.731 90.5109C119.996 91.3943 120.115 92.7089 120.998 93.4443C121.39 93.7693 121.86 93.9276 122.331 93.9276C122.929 93.9276 123.521 93.6734 123.933 93.1776L133.208 82.0484L142.094 87.3818C142.967 87.9047 144.088 87.7214 144.748 86.9505L153.583 76.6422V81.4276C153.583 82.5776 154.515 83.5109 155.667 83.5109C156.819 83.5109 157.75 82.5776 157.75 81.4276V71.0109C157.75 70.9839 157.735 70.9609 157.733 70.9339Z" fill="#F05665"/>
<mask id="mask0" mask-type="alpha" maskUnits="userSpaceOnUse" x="120" y="68" width="38" height="26">
<path fill-rule="evenodd" clip-rule="evenodd" d="M157.733 70.9339C157.729 70.7839 157.685 70.6422 157.646 70.4984C157.615 70.3776 157.6 70.2547 157.548 70.1443C157.5 70.0359 157.419 69.9484 157.348 69.8484C157.26 69.7214 157.181 69.5943 157.069 69.4901C157.05 69.4714 157.042 69.4464 157.021 69.4297C156.946 69.3651 156.854 69.3422 156.773 69.2901C156.648 69.2089 156.525 69.1255 156.383 69.0714C156.244 69.0214 156.106 69.0089 155.963 68.988C155.863 68.9734 155.773 68.9276 155.667 68.9276H145.25C144.098 68.9276 143.167 69.8609 143.167 71.0109C143.167 72.1609 144.098 73.0943 145.25 73.0943H151.138L142.729 82.9026L133.821 77.5589C132.94 77.0255 131.806 77.2214 131.148 78.0109L120.731 90.5109C119.996 91.3943 120.115 92.7089 120.998 93.4443C121.39 93.7693 121.86 93.9276 122.331 93.9276C122.929 93.9276 123.521 93.6734 123.933 93.1776L133.208 82.0484L142.094 87.3818C142.967 87.9047 144.088 87.7214 144.748 86.9505L153.583 76.6422V81.4276C153.583 82.5776 154.515 83.5109 155.667 83.5109C156.819 83.5109 157.75 82.5776 157.75 81.4276V71.0109C157.75 70.9839 157.735 70.9609 157.733 70.9339Z" fill="white"/>
</mask>
<g mask="url(#mask0)">
<rect x="114" y="56.4277" width="50" height="50" fill="#F05665"/>
</g>
<defs>
<filter id="filter0_d" x="0" y="0.427734" width="287" height="263" filterUnits="userSpaceOnUse" color-interpolation-filters="sRGB">
<feFlood flood-opacity="0" result="BackgroundImageFix"/>
<feColorMatrix in="SourceAlpha" type="matrix" values="0 0 0 0 0 0 0 0 0 0 0 0 0 0 0 0 0 0 127 0"/>
<feOffset dx="5" dy="20"/>
<feGaussianBlur stdDeviation="25"/>
<feColorMatrix type="matrix" values="0 0 0 0 0.290196 0 0 0 0 0.47451 0 0 0 0 0.827451 0 0 0 0.2 0"/>
<feBlend mode="normal" in2="BackgroundImageFix" result="effect1_dropShadow"/>
<feBlend mode="normal" in="SourceGraphic" in2="effect1_dropShadow" result="shape"/>
</filter>
</defs>
</svg>
