<svg width="287" height="264" viewBox="0 0 287 264" fill="none" xmlns="http://www.w3.org/2000/svg">
<g filter="url(#filter0_d)">
<rect x="45" y="30.4277" width="187" height="163" rx="32" fill="white"/>
</g>
<path d="M119.664 148.436C119.162 147.796 118.912 146.953 118.912 145.908C118.912 144.756 119.21 143.865 119.808 143.236C120.33 142.67 121.024 142.388 121.888 142.388C122.773 142.388 123.456 142.665 123.936 143.22C124.352 143.7 124.56 144.34 124.56 145.14V146.772C124.56 147.582 124.32 148.228 123.84 148.708C123.36 149.177 122.704 149.417 121.872 149.428H119.84C118.666 149.428 118.08 150.036 118.08 151.252V153.908L117.008 154.468V151.22C117.008 150.334 117.269 149.641 117.792 149.14C118.261 148.681 118.885 148.446 119.664 148.436ZM123.488 146.676V145.236C123.488 143.988 122.954 143.364 121.888 143.364C121.28 143.364 120.805 143.588 120.464 144.036C120.133 144.484 119.968 145.102 119.968 145.892C119.968 146.692 120.128 147.316 120.448 147.764C120.768 148.212 121.21 148.436 121.776 148.436C122.917 148.436 123.488 147.849 123.488 146.676ZM127.284 149.428V139.668L128.356 139.108V149.428H127.284ZM133.756 140.468C133.318 140.468 133.1 140.244 133.1 139.796C133.1 139.369 133.318 139.156 133.756 139.156C134.172 139.156 134.38 139.369 134.38 139.796C134.38 140.244 134.172 140.468 133.756 140.468ZM136.156 148.436H136.716V149.428H136.028C135.366 149.428 134.817 149.268 134.38 148.948C134.294 150.718 133.58 151.838 132.236 152.308C131.894 152.425 131.532 152.484 131.148 152.484C130.529 152.484 129.932 152.334 129.356 152.036V151.092C129.9 151.39 130.454 151.54 131.02 151.54C131.468 151.54 131.862 151.438 132.204 151.236C132.95 150.788 133.324 149.95 133.324 148.724V143.14L134.38 142.58V142.596L134.396 142.58V146.612C134.396 147.828 134.982 148.436 136.156 148.436ZM138.019 140.516C137.592 140.516 137.379 140.297 137.379 139.86C137.379 139.422 137.592 139.204 138.019 139.204C138.445 139.204 138.659 139.422 138.659 139.86C138.659 140.297 138.445 140.516 138.019 140.516ZM139.843 140.516C139.416 140.516 139.203 140.297 139.203 139.86C139.203 139.422 139.416 139.204 139.843 139.204C140.269 139.204 140.483 139.422 140.483 139.86C140.483 140.297 140.269 140.516 139.843 140.516ZM141.555 148.436H142.115V149.428H141.427C140.467 149.428 139.747 149.102 139.267 148.452C138.765 149.102 138.04 149.428 137.09 149.428H136.402V148.436H136.963C138.136 148.436 138.723 147.828 138.723 146.612V143.14L139.795 142.58V146.612C139.795 147.828 140.381 148.436 141.555 148.436ZM141.793 149.428V148.436H142.241C143.457 148.436 144.065 147.806 144.065 146.548V139.668L145.137 139.108V146.564C145.137 147.47 144.87 148.185 144.337 148.708C143.836 149.188 143.174 149.428 142.353 149.428H141.793ZM153.858 139.668L154.914 139.108V146.564C154.914 147.47 154.647 148.185 154.114 148.708C153.623 149.188 152.967 149.428 152.146 149.428H146.898L147.41 148.436H149.858V141.748L150.914 141.188V148.436H152.034C153.25 148.436 153.858 147.806 153.858 146.548V139.668ZM157.799 149.428V139.668L158.871 139.108V149.428H157.799Z" fill="#2B334E"/>
<path fill-rule="evenodd" clip-rule="evenodd" d="M129.041 68.9277C127.241 68.9277 125.554 69.6235 124.291 70.8881C121.67 73.5131 121.67 77.786 124.293 80.4152L139 95.1465L153.708 80.4152C156.331 77.786 156.331 73.5131 153.708 70.8881C151.183 68.3569 146.733 68.361 144.208 70.8881L140.475 74.6277C139.691 75.4131 138.308 75.4131 137.525 74.6277L133.791 70.886C132.529 69.6235 130.843 68.9277 129.041 68.9277ZM139 100.178C138.448 100.178 137.916 99.959 137.527 99.5652L121.343 83.3569C117.102 79.1069 117.102 72.1923 121.343 67.9423C123.393 65.8923 126.127 64.761 129.041 64.761C131.956 64.761 134.691 65.8923 136.739 67.9423L139 70.2069L141.26 67.9444C143.31 65.8923 146.043 64.761 148.96 64.761C151.873 64.761 154.608 65.8923 156.656 67.9423C160.9 72.1923 160.9 79.1069 156.658 83.3569L140.475 99.5673C140.083 99.959 139.554 100.178 139 100.178Z" fill="#FF5364"/>
<mask id="mask0" mask-type="alpha" maskUnits="userSpaceOnUse" x="118" y="64" width="42" height="37">
<path fill-rule="evenodd" clip-rule="evenodd" d="M129.041 68.9277C127.241 68.9277 125.554 69.6235 124.291 70.8881C121.67 73.5131 121.67 77.786 124.293 80.4152L139 95.1465L153.708 80.4152C156.331 77.786 156.331 73.5131 153.708 70.8881C151.183 68.3569 146.733 68.361 144.208 70.8881L140.475 74.6277C139.691 75.4131 138.308 75.4131 137.525 74.6277L133.791 70.886C132.529 69.6235 130.843 68.9277 129.041 68.9277ZM139 100.178C138.448 100.178 137.916 99.959 137.527 99.5652L121.343 83.3569C117.102 79.1069 117.102 72.1923 121.343 67.9423C123.393 65.8923 126.127 64.761 129.041 64.761C131.956 64.761 134.691 65.8923 136.739 67.9423L139 70.2069L141.26 67.9444C143.31 65.8923 146.043 64.761 148.96 64.761C151.873 64.761 154.608 65.8923 156.656 67.9423C160.9 72.1923 160.9 79.1069 156.658 83.3569L140.475 99.5673C140.083 99.959 139.554 100.178 139 100.178Z" fill="white"/>
</mask>
<g mask="url(#mask0)">
<rect x="114" y="56.4277" width="50" height="50" fill="#FF5364"/>
</g>
<defs>
<filter id="filter0_d" x="0" y="0.427734" width="287" height="263" filterUnits="userSpaceOnUse" color-interpolation-filters="sRGB">
<feFlood flood-opacity="0" result="BackgroundImageFix"/>
<feColorMatrix in="SourceAlpha" type="matrix" values="0 0 0 0 0 0 0 0 0 0 0 0 0 0 0 0 0 0 127 0"/>
<feOffset dx="5" dy="20"/>
<feGaussianBlur stdDeviation="25"/>
<feColorMatrix type="matrix" values="0 0 0 0 0.290196 0 0 0 0 0.47451 0 0 0 0 0.827451 0 0 0 0.2 0"/>
<feBlend mode="normal" in2="BackgroundImageFix" result="effect1_dropShadow"/>
<feBlend mode="normal" in="SourceGraphic" in2="effect1_dropShadow" result="shape"/>
</filter>
</defs>
</svg>
