<svg width="287" height="264" viewBox="0 0 287 264" fill="none" xmlns="http://www.w3.org/2000/svg">
<g filter="url(#filter0_d)">
<rect x="45" y="30.4277" width="187" height="163" rx="32" fill="white"/>
</g>
<path d="M128.298 154.596C127.423 155.15 126.437 155.428 125.338 155.428C124.058 155.428 123.045 155.028 122.298 154.228C121.679 153.566 121.37 152.782 121.37 151.876C121.37 151.214 121.541 150.617 121.882 150.084C122.223 149.55 122.687 149.15 123.274 148.884C122.186 148.265 121.642 147.209 121.642 145.716C121.642 144.638 122.01 143.785 122.746 143.156C123.322 142.654 124.01 142.398 124.81 142.388C125.898 142.388 126.757 142.82 127.386 143.684V144.74C126.735 143.822 125.909 143.364 124.906 143.364C124.245 143.364 123.711 143.588 123.306 144.036C122.901 144.473 122.698 145.044 122.698 145.748C122.698 146.569 122.943 147.225 123.434 147.716C123.903 148.196 124.533 148.436 125.322 148.436H128.154V149.428H125.354C124.319 149.428 123.535 149.71 123.002 150.276C122.597 150.702 122.394 151.23 122.394 151.86C122.394 152.628 122.677 153.257 123.242 153.748C123.775 154.206 124.474 154.436 125.338 154.436H125.37C126.586 154.436 127.562 154.164 128.298 153.62V154.596ZM137.558 148.436V149.428H135.862C135.851 150.132 135.622 150.75 135.174 151.284C134.736 151.828 134.166 152.185 133.462 152.356C133.206 152.43 132.928 152.468 132.63 152.468C132.011 152.468 131.408 152.318 130.822 152.02V151.076C131.376 151.374 131.926 151.524 132.47 151.524C132.907 151.524 133.291 151.428 133.622 151.236C133.952 151.065 134.23 150.804 134.454 150.452C134.678 150.11 134.79 149.769 134.79 149.428L133.43 149.38C132.246 149.326 131.36 148.953 130.774 148.26C130.294 147.673 130.054 146.889 130.054 145.908C130.054 144.756 130.352 143.865 130.95 143.236C131.483 142.67 132.198 142.388 133.094 142.388C134.022 142.388 134.731 142.665 135.222 143.22C135.648 143.7 135.862 144.34 135.862 145.14V148.436H137.558ZM134.79 145.252C134.79 143.993 134.224 143.364 133.094 143.364C132.464 143.364 131.974 143.588 131.622 144.036C131.28 144.473 131.11 145.092 131.11 145.892C131.11 147.481 131.894 148.313 133.462 148.388C133.931 148.42 134.374 148.436 134.79 148.436V145.252ZM139.903 140.468C139.465 140.468 139.247 140.244 139.247 139.796C139.247 139.369 139.465 139.156 139.903 139.156C140.319 139.156 140.527 139.369 140.527 139.796C140.527 140.244 140.319 140.468 139.903 140.468ZM142.383 148.436H142.943V149.428H142.255C141.295 149.428 140.575 149.102 140.095 148.452C139.593 149.102 138.868 149.428 137.919 149.428H137.231V148.436H137.791C138.964 148.436 139.551 147.828 139.551 146.612V143.14L140.623 142.58V146.612C140.623 147.828 141.209 148.436 142.383 148.436ZM144.237 140.516C143.811 140.516 143.597 140.297 143.597 139.86C143.597 139.422 143.811 139.204 144.237 139.204C144.664 139.204 144.877 139.422 144.877 139.86C144.877 140.297 144.664 140.516 144.237 140.516ZM146.061 140.516C145.635 140.516 145.421 140.297 145.421 139.86C145.421 139.422 145.635 139.204 146.061 139.204C146.488 139.204 146.701 139.422 146.701 139.86C146.701 140.297 146.488 140.516 146.061 140.516ZM147.773 148.436H148.333V149.428H147.645C146.685 149.428 145.965 149.102 145.485 148.452C144.984 149.102 144.259 149.428 143.309 149.428H142.621V148.436H143.181C144.355 148.436 144.941 147.828 144.941 146.612V143.14L146.013 142.58V146.612C146.013 147.828 146.6 148.436 147.773 148.436ZM148.012 149.428V148.436H148.46C149.676 148.436 150.284 147.806 150.284 146.548V139.668L151.356 139.108V146.564C151.356 147.47 151.089 148.185 150.556 148.708C150.055 149.188 149.393 149.428 148.572 149.428H148.012ZM154.237 149.428V139.668L155.309 139.108V149.428H154.237Z" fill="#2B334E"/>
<path fill-rule="evenodd" clip-rule="evenodd" d="M144.453 97.1611C146.638 94.0403 148.911 89.4507 149.365 83.5111H155.521C154.723 89.8694 150.336 95.1153 144.453 97.1611ZM122.477 83.5111H128.711C129.14 89.4736 131.383 94.0444 133.598 97.1798C127.688 95.1444 123.279 89.8882 122.477 83.5111ZM133.663 65.6545C131.471 68.7754 129.177 73.3795 128.719 79.3441H122.477C123.281 72.9441 127.721 67.6712 133.663 65.6545ZM132.915 79.3449C133.553 72.5283 137.04 67.7824 139.055 65.5887C141.138 67.8199 144.571 72.522 145.165 79.3449H132.915ZM132.917 83.5111H145.171C144.534 90.3382 141.038 95.084 139.025 97.2778C136.844 94.9653 133.498 90.3278 132.917 83.5111ZM155.521 79.3444H149.371C148.944 73.4089 146.725 68.8527 144.521 65.7214C150.371 67.7839 154.727 73.011 155.521 79.3444ZM159.834 81.4278C159.834 69.9611 150.519 60.6319 139.059 60.5986C139.05 60.5986 139.042 60.5965 139.032 60.5965C139.023 60.5965 139.011 60.5944 139 60.5944C127.513 60.5944 118.167 69.9423 118.167 81.4278C118.167 92.9153 127.513 102.261 139 102.261C139.013 102.261 139.023 102.259 139.032 102.259C139.036 102.259 139.038 102.261 139.042 102.261C139.048 102.261 139.054 102.257 139.059 102.257C150.519 102.226 159.834 92.8944 159.834 81.4278Z" fill="#FF5364"/>
<mask id="mask0" mask-type="alpha" maskUnits="userSpaceOnUse" x="118" y="60" width="42" height="43">
<path fill-rule="evenodd" clip-rule="evenodd" d="M144.453 97.1611C146.638 94.0403 148.911 89.4507 149.365 83.5111H155.521C154.723 89.8694 150.336 95.1153 144.453 97.1611ZM122.477 83.5111H128.711C129.14 89.4736 131.383 94.0444 133.598 97.1798C127.688 95.1444 123.279 89.8882 122.477 83.5111ZM133.663 65.6545C131.471 68.7754 129.177 73.3795 128.719 79.3441H122.477C123.281 72.9441 127.721 67.6712 133.663 65.6545ZM132.915 79.3449C133.553 72.5283 137.04 67.7824 139.055 65.5887C141.138 67.8199 144.571 72.522 145.165 79.3449H132.915ZM132.917 83.5111H145.171C144.534 90.3382 141.038 95.084 139.025 97.2778C136.844 94.9653 133.498 90.3278 132.917 83.5111ZM155.521 79.3444H149.371C148.944 73.4089 146.725 68.8527 144.521 65.7214C150.371 67.7839 154.727 73.011 155.521 79.3444ZM159.834 81.4278C159.834 69.9611 150.519 60.6319 139.059 60.5986C139.05 60.5986 139.042 60.5965 139.032 60.5965C139.023 60.5965 139.011 60.5944 139 60.5944C127.513 60.5944 118.167 69.9423 118.167 81.4278C118.167 92.9153 127.513 102.261 139 102.261C139.013 102.261 139.023 102.259 139.032 102.259C139.036 102.259 139.038 102.261 139.042 102.261C139.048 102.261 139.054 102.257 139.059 102.257C150.519 102.226 159.834 92.8944 159.834 81.4278Z" fill="white"/>
</mask>
<g mask="url(#mask0)">
<rect x="114" y="56.4277" width="50" height="50" fill="#FF5364"/>
</g>
<defs>
<filter id="filter0_d" x="0" y="0.427734" width="287" height="263" filterUnits="userSpaceOnUse" color-interpolation-filters="sRGB">
<feFlood flood-opacity="0" result="BackgroundImageFix"/>
<feColorMatrix in="SourceAlpha" type="matrix" values="0 0 0 0 0 0 0 0 0 0 0 0 0 0 0 0 0 0 127 0"/>
<feOffset dx="5" dy="20"/>
<feGaussianBlur stdDeviation="25"/>
<feColorMatrix type="matrix" values="0 0 0 0 0.290196 0 0 0 0 0.47451 0 0 0 0 0.827451 0 0 0 0.2 0"/>
<feBlend mode="normal" in2="BackgroundImageFix" result="effect1_dropShadow"/>
<feBlend mode="normal" in="SourceGraphic" in2="effect1_dropShadow" result="shape"/>
</filter>
</defs>
</svg>
