<svg width="287" height="263" viewBox="0 0 287 263" fill="none" xmlns="http://www.w3.org/2000/svg">
<g filter="url(#filter0_d)">
<rect x="45" y="30" width="187" height="163" rx="32" fill="white"/>
</g>
<path d="M121.028 148.232C121.028 150.173 120.314 151.389 118.884 151.88C118.543 151.997 118.18 152.056 117.796 152.056C117.178 152.056 116.58 151.907 116.004 151.608V150.664C116.548 150.963 117.103 151.112 117.668 151.112C118.116 151.112 118.511 151.011 118.852 150.808C119.599 150.36 119.972 149.523 119.972 148.296V142.712L121.028 142.152V148.232ZM126.605 149C125.698 149 125 148.707 124.509 148.12C124.104 147.619 123.901 146.984 123.901 146.216V139.24L124.973 138.68V146.184C124.973 147.4 125.56 148.008 126.733 148.008H127.293V149H126.605ZM135.469 148.008H135.869V149H135.341C134.381 149 133.661 148.675 133.181 148.024C132.701 148.675 131.975 149 131.005 149H126.973V148.008H130.893C132.055 148.008 132.637 147.384 132.637 146.136V145.976C132.637 145.101 132.317 144.445 131.677 144.008C131.165 143.645 130.525 143.464 129.757 143.464C129.181 143.464 128.61 143.565 128.045 143.768V142.712L131.677 138.68H132.781L129.501 142.392C129.607 142.381 129.719 142.376 129.837 142.376C130.861 142.376 131.714 142.637 132.397 143.16C133.271 143.832 133.709 144.765 133.709 145.96V146.184C133.709 147.4 134.295 148.008 135.469 148.008ZM137.167 140.088C136.74 140.088 136.527 139.869 136.527 139.432C136.527 138.995 136.74 138.776 137.167 138.776C137.594 138.776 137.807 138.995 137.807 139.432C137.807 139.869 137.594 140.088 137.167 140.088ZM138.991 140.088C138.564 140.088 138.351 139.869 138.351 139.432C138.351 138.995 138.564 138.776 138.991 138.776C139.418 138.776 139.631 138.995 139.631 139.432C139.631 139.869 139.418 140.088 138.991 140.088ZM140.703 148.008H141.263V149H140.575C139.615 149 138.895 148.675 138.415 148.024C137.914 148.675 137.188 149 136.239 149H135.551V148.008H136.111C137.284 148.008 137.871 147.4 137.871 146.184V142.712L138.943 142.152V146.184C138.943 147.4 139.53 148.008 140.703 148.008ZM140.942 149V148.008H141.502C142.675 148.008 143.262 147.4 143.262 146.184V142.712L144.334 142.152V146.216C144.334 147.112 144.072 147.811 143.55 148.312C143.07 148.771 142.43 149 141.63 149H140.942ZM143.07 151.992C142.632 151.992 142.414 151.768 142.414 151.32C142.414 150.893 142.632 150.68 143.07 150.68C143.486 150.68 143.694 150.893 143.694 151.32C143.694 151.768 143.486 151.992 143.07 151.992ZM153.053 139.24L154.109 138.68V146.136C154.109 147.043 153.843 147.757 153.309 148.28C152.819 148.76 152.163 149 151.341 149H146.093L146.605 148.008H149.053V141.32L150.109 140.76V148.008H151.229C152.445 148.008 153.053 147.379 153.053 146.12V139.24ZM156.995 149V139.24L158.067 138.68V149H156.995Z" fill="#2B334E"/>
<path fill-rule="evenodd" clip-rule="evenodd" d="M141.084 66.4167C141.084 67.5687 140.15 68.5 139 68.5C137.85 68.5 136.917 67.5687 136.917 66.4167V62.25C136.917 61.0979 137.85 60.1667 139 60.1667C140.15 60.1667 141.084 61.0979 141.084 62.25V66.4167ZM141.084 88.2081C141.084 87.4644 141.482 86.7748 142.127 86.4019C144.054 85.2956 145.25 83.2248 145.25 80.9998C145.25 77.554 142.446 74.7498 139 74.7498C135.554 74.7498 132.75 77.554 132.75 80.9998C132.75 83.2248 133.946 85.2956 135.873 86.4019C136.519 86.7748 136.917 87.4644 136.917 88.2081V97.6665H141.084V88.2081ZM128.584 80.9998C128.584 75.256 133.257 70.5831 139 70.5831C144.744 70.5831 149.417 75.256 149.417 80.9998C149.417 84.2894 147.846 87.379 145.25 89.3248V97.6665C145.25 99.9644 143.382 101.833 141.084 101.833H136.917C134.619 101.833 132.75 99.9644 132.75 97.6665V89.3248C130.152 87.379 128.584 84.2894 128.584 80.9998ZM157.75 78.9167H153.584C152.432 78.9167 151.5 79.8479 151.5 81C151.5 82.1521 152.432 83.0833 153.584 83.0833H157.75C158.902 83.0833 159.834 82.1521 159.834 81C159.834 79.8479 158.902 78.9167 157.75 78.9167ZM120.25 78.9167H124.417C125.567 78.9167 126.5 79.8479 126.5 81C126.5 82.1521 125.567 83.0833 124.417 83.0833H120.25C119.1 83.0833 118.167 82.1521 118.167 81C118.167 79.8479 119.1 78.9167 120.25 78.9167ZM129.958 69.3705L126.96 66.4747C126.133 65.6768 124.816 65.7018 124.014 66.5289C123.214 67.3539 123.237 68.6747 124.064 69.4747L127.062 72.3684C127.468 72.7601 127.989 72.9539 128.51 72.9539C129.056 72.9539 129.6 72.7393 130.008 72.3164C130.808 71.4914 130.785 70.1705 129.958 69.3705ZM151.041 66.4781C151.866 65.6802 153.191 65.7031 153.985 66.5281C154.785 67.3531 154.762 68.6739 153.935 69.4718L150.937 72.3677C150.535 72.7573 150.012 72.9531 149.491 72.9531C148.945 72.9531 148.399 72.7385 147.993 72.3156C147.193 71.4906 147.216 70.1698 148.043 69.3718L151.041 66.4781Z" fill="#FF5364"/>
<mask id="mask0" mask-type="alpha" maskUnits="userSpaceOnUse" x="118" y="60" width="42" height="42">
<path fill-rule="evenodd" clip-rule="evenodd" d="M141.084 66.4167C141.084 67.5687 140.15 68.5 139 68.5C137.85 68.5 136.917 67.5687 136.917 66.4167V62.25C136.917 61.0979 137.85 60.1667 139 60.1667C140.15 60.1667 141.084 61.0979 141.084 62.25V66.4167ZM141.084 88.2081C141.084 87.4644 141.482 86.7748 142.127 86.4019C144.054 85.2956 145.25 83.2248 145.25 80.9998C145.25 77.554 142.446 74.7498 139 74.7498C135.554 74.7498 132.75 77.554 132.75 80.9998C132.75 83.2248 133.946 85.2956 135.873 86.4019C136.519 86.7748 136.917 87.4644 136.917 88.2081V97.6665H141.084V88.2081ZM128.584 80.9998C128.584 75.256 133.257 70.5831 139 70.5831C144.744 70.5831 149.417 75.256 149.417 80.9998C149.417 84.2894 147.846 87.379 145.25 89.3248V97.6665C145.25 99.9644 143.382 101.833 141.084 101.833H136.917C134.619 101.833 132.75 99.9644 132.75 97.6665V89.3248C130.152 87.379 128.584 84.2894 128.584 80.9998ZM157.75 78.9167H153.584C152.432 78.9167 151.5 79.8479 151.5 81C151.5 82.1521 152.432 83.0833 153.584 83.0833H157.75C158.902 83.0833 159.834 82.1521 159.834 81C159.834 79.8479 158.902 78.9167 157.75 78.9167ZM120.25 78.9167H124.417C125.567 78.9167 126.5 79.8479 126.5 81C126.5 82.1521 125.567 83.0833 124.417 83.0833H120.25C119.1 83.0833 118.167 82.1521 118.167 81C118.167 79.8479 119.1 78.9167 120.25 78.9167ZM129.958 69.3705L126.96 66.4747C126.133 65.6768 124.816 65.7018 124.014 66.5289C123.214 67.3539 123.237 68.6747 124.064 69.4747L127.062 72.3684C127.468 72.7601 127.989 72.9539 128.51 72.9539C129.056 72.9539 129.6 72.7393 130.008 72.3164C130.808 71.4914 130.785 70.1705 129.958 69.3705ZM151.041 66.4781C151.866 65.6802 153.191 65.7031 153.985 66.5281C154.785 67.3531 154.762 68.6739 153.935 69.4718L150.937 72.3677C150.535 72.7573 150.012 72.9531 149.491 72.9531C148.945 72.9531 148.399 72.7385 147.993 72.3156C147.193 71.4906 147.216 70.1698 148.043 69.3718L151.041 66.4781Z" fill="white"/>
</mask>
<g mask="url(#mask0)">
<rect x="114" y="56" width="50" height="50" fill="#FF5364"/>
</g>
<defs>
<filter id="filter0_d" x="0" y="0" width="287" height="263" filterUnits="userSpaceOnUse" color-interpolation-filters="sRGB">
<feFlood flood-opacity="0" result="BackgroundImageFix"/>
<feColorMatrix in="SourceAlpha" type="matrix" values="0 0 0 0 0 0 0 0 0 0 0 0 0 0 0 0 0 0 127 0"/>
<feOffset dx="5" dy="20"/>
<feGaussianBlur stdDeviation="25"/>
<feColorMatrix type="matrix" values="0 0 0 0 0.290196 0 0 0 0 0.47451 0 0 0 0 0.827451 0 0 0 0.2 0"/>
<feBlend mode="normal" in2="BackgroundImageFix" result="effect1_dropShadow"/>
<feBlend mode="normal" in="SourceGraphic" in2="effect1_dropShadow" result="shape"/>
</filter>
</defs>
</svg>
