<svg width="145" height="110" viewBox="0 0 145 110" fill="none" xmlns="http://www.w3.org/2000/svg">
<path d="M27.0945 108.525V101.331C27.1377 100.727 27.0476 100.12 26.8302 99.5511C26.6129 98.9826 26.2733 98.4655 25.834 98.0345C25.3948 97.6034 24.866 97.2682 24.2828 97.0512C23.6997 96.8341 23.0756 96.7402 22.4521 96.7757C21.6361 96.7238 20.8206 96.8855 20.0909 97.244C19.3612 97.6025 18.744 98.1447 18.3037 98.8138C17.9023 98.1647 17.328 97.6328 16.6414 97.2741C15.9547 96.9154 15.1811 96.7432 14.4021 96.7757C13.7231 96.7424 13.0469 96.882 12.4405 97.1806C11.8341 97.4792 11.3186 97.9265 10.9451 98.4781V97.0635H8.37695V108.525H10.9698V102.219C10.9146 101.827 10.9493 101.428 11.0714 101.05C11.1934 100.673 11.3999 100.326 11.6759 100.036C11.9519 99.7446 12.2907 99.5164 12.6681 99.3674C13.0455 99.2184 13.4521 99.1522 13.8589 99.1735C15.5627 99.1735 16.427 100.252 16.427 102.195V108.573H19.0198V102.219C18.9669 101.827 19.0032 101.429 19.1261 101.053C19.249 100.676 19.4555 100.331 19.731 100.04C20.0066 99.7497 20.3445 99.5215 20.7208 99.3718C21.0971 99.222 21.5027 99.1543 21.9089 99.1735C23.6621 99.1735 24.5017 100.252 24.5017 102.195V108.573L27.0945 108.525ZM65.4556 97.0635H61.233V93.5867H58.6402V97.0635H56.2943V99.3413H58.6896V104.616C58.6896 107.278 59.7514 108.86 62.7887 108.86C63.9234 108.864 65.0362 108.557 65.9988 107.973L65.258 105.839C64.5693 106.238 63.7877 106.461 62.9862 106.487C61.7516 106.487 61.2824 105.719 61.2824 104.568V99.3413H65.4803L65.4556 97.0635ZM87.3586 96.7757C86.7324 96.7579 86.1129 96.9043 85.5653 97.1997C85.0177 97.4951 84.5623 97.9285 84.2472 98.4542V97.0635H81.7038V108.525H84.2719V102.099C84.2719 100.205 85.1115 99.1495 86.7412 99.1495C87.2905 99.1422 87.8359 99.24 88.3463 99.4372L89.1365 97.0395C88.55 96.8358 87.9321 96.7303 87.3092 96.7278L87.3586 96.7757ZM54.2448 97.9746C52.7911 97.1354 51.1198 96.7192 49.4296 96.7757C46.4417 96.7757 44.4909 98.1664 44.4909 100.444C44.4909 102.315 45.9232 103.465 48.5653 103.825L49.8 103.993C51.2075 104.185 51.8742 104.544 51.8742 105.192C51.8742 106.079 50.9359 106.583 49.1827 106.583C47.7724 106.622 46.3895 106.2 45.2564 105.384L44.0218 107.326C45.5177 108.34 47.3095 108.861 49.1333 108.812C52.541 108.812 54.5164 107.254 54.5164 105.072C54.5164 102.89 52.9608 102.003 50.3926 101.643L49.158 101.475C48.0468 101.331 47.1578 101.116 47.1578 100.348C47.1578 99.5811 47.9974 99.0056 49.4049 99.0056C50.7058 99.0203 51.9812 99.3588 53.1089 99.9887L54.2448 97.9746ZM123.028 96.7757C122.402 96.7579 121.782 96.9043 121.235 97.1997C120.687 97.4951 120.232 97.9285 119.917 98.4542V97.0635H117.373V108.525H119.941V102.099C119.941 100.205 120.781 99.1495 122.411 99.1495C122.96 99.1422 123.505 99.24 124.016 99.4372L124.806 97.0395C124.219 96.8358 123.602 96.7303 122.979 96.7278L123.028 96.7757ZM89.939 102.77C89.9085 103.576 90.0514 104.378 90.3587 105.127C90.666 105.876 91.1309 106.554 91.7236 107.118C92.3163 107.682 93.0238 108.12 93.8007 108.404C94.5777 108.687 95.4071 108.81 96.2358 108.765C97.7777 108.841 99.2931 108.353 100.483 107.398L99.2484 105.384C98.3606 106.041 97.2781 106.403 96.1617 106.415C95.2125 106.34 94.3269 105.921 93.6812 105.242C93.0355 104.562 92.677 103.671 92.677 102.746C92.677 101.821 93.0355 100.931 93.6812 100.251C94.3269 99.571 95.2125 99.1522 96.1617 99.0776C97.2781 99.0897 98.3606 99.4513 99.2484 100.109L100.483 98.0945C99.2931 97.1392 97.7777 96.6516 96.2358 96.7278C95.4071 96.6822 94.5777 96.8051 93.8007 97.0886C93.0238 97.3721 92.3163 97.8099 91.7236 98.3742C91.1309 98.9384 90.666 99.6166 90.3587 100.365C90.0514 101.114 89.9085 101.917 89.939 102.722V102.77ZM113.99 102.77V97.0635H111.422V98.4542C110.986 97.9093 110.423 97.4729 109.779 97.1811C109.135 96.8892 108.428 96.7503 107.718 96.7757C106.081 96.7757 104.511 97.4073 103.353 98.5315C102.195 99.6556 101.545 101.18 101.545 102.77C101.545 104.36 102.195 105.885 103.353 107.009C104.511 108.133 106.081 108.765 107.718 108.765C108.428 108.79 109.135 108.651 109.779 108.359C110.423 108.067 110.986 107.631 111.422 107.086V108.477H113.99V102.77ZM104.434 102.77C104.475 102.095 104.718 101.447 105.134 100.905C105.549 100.363 106.119 99.9507 106.773 99.7191C107.427 99.4875 108.136 99.4465 108.814 99.6014C109.491 99.7563 110.107 100.1 110.586 100.591C111.065 101.081 111.385 101.697 111.508 102.362C111.631 103.027 111.551 103.713 111.278 104.334C111.004 104.956 110.55 105.486 109.97 105.86C109.39 106.234 108.71 106.435 108.015 106.439C107.526 106.445 107.041 106.352 106.59 106.168C106.14 105.983 105.734 105.71 105.398 105.365C105.061 105.02 104.802 104.612 104.636 104.165C104.47 103.719 104.402 103.244 104.434 102.77ZM73.4439 96.7757C71.8066 96.798 70.2455 97.4509 69.104 98.5908C67.9625 99.7307 67.334 101.264 67.357 102.854C67.3799 104.444 68.0523 105.96 69.2262 107.068C70.4001 108.177 71.9794 108.787 73.6167 108.765C75.3931 108.853 77.14 108.298 78.5183 107.206L77.2837 105.36C76.3087 106.119 75.1009 106.541 73.8513 106.559C73.0024 106.629 72.1585 106.376 71.4991 105.852C70.8397 105.328 70.4167 104.575 70.3202 103.753H79.0863C79.0863 103.441 79.0863 103.13 79.0863 102.794C79.0863 99.1975 76.7898 96.7997 73.4809 96.7997L73.4439 96.7757ZM73.4439 99.0056C73.8281 98.9977 74.2103 99.0633 74.5684 99.1988C74.9266 99.3343 75.2538 99.537 75.5312 99.7953C75.8087 100.054 76.0311 100.362 76.1856 100.704C76.3401 101.046 76.4237 101.414 76.4317 101.787H70.2584C70.3031 101.017 70.6564 100.295 71.2425 99.7756C71.8287 99.2557 72.6011 98.9794 73.3945 99.0056H73.4439ZM137.782 102.794V92.4598H135.313V98.4542C134.877 97.9093 134.314 97.4729 133.67 97.1811C133.025 96.8892 132.319 96.7503 131.609 96.7757C129.972 96.7757 128.402 97.4073 127.244 98.5315C126.086 99.6556 125.436 101.18 125.436 102.77C125.436 104.36 126.086 105.885 127.244 107.009C128.402 108.133 129.972 108.765 131.609 108.765C132.319 108.79 133.025 108.651 133.67 108.359C134.314 108.067 134.877 107.631 135.313 107.086V108.477H137.782V102.794ZM142.067 106.858C142.227 106.856 142.387 106.885 142.536 106.942C142.678 106.998 142.807 107.08 142.919 107.182C143.027 107.285 143.115 107.407 143.178 107.542C143.24 107.682 143.273 107.833 143.273 107.985C143.273 108.138 143.24 108.289 143.178 108.429C143.115 108.563 143.027 108.685 142.919 108.788C142.807 108.891 142.678 108.972 142.536 109.028C142.388 109.092 142.228 109.124 142.067 109.124C141.833 109.122 141.604 109.056 141.407 108.933C141.21 108.81 141.054 108.635 140.955 108.429C140.894 108.289 140.862 108.138 140.862 107.985C140.862 107.833 140.894 107.682 140.955 107.542C141.018 107.407 141.106 107.285 141.215 107.182C141.326 107.08 141.456 106.998 141.597 106.942C141.758 106.88 141.931 106.852 142.104 106.858H142.067ZM142.067 108.884C142.19 108.885 142.312 108.861 142.425 108.812C142.531 108.766 142.627 108.701 142.709 108.621C142.863 108.457 142.949 108.243 142.949 108.021C142.949 107.799 142.863 107.585 142.709 107.422C142.627 107.341 142.531 107.276 142.425 107.23C142.312 107.182 142.19 107.158 142.067 107.158C141.944 107.159 141.822 107.183 141.709 107.23C141.598 107.274 141.497 107.339 141.412 107.422C141.258 107.585 141.172 107.799 141.172 108.021C141.172 108.243 141.258 108.457 141.412 108.621C141.497 108.703 141.598 108.768 141.709 108.812C141.833 108.865 141.968 108.889 142.104 108.884H142.067ZM142.141 107.458C142.256 107.452 142.37 107.486 142.462 107.554C142.499 107.584 142.529 107.623 142.549 107.666C142.568 107.71 142.576 107.758 142.573 107.805C142.575 107.845 142.568 107.885 142.553 107.922C142.538 107.959 142.515 107.993 142.486 108.021C142.415 108.084 142.324 108.122 142.227 108.129L142.585 108.525H142.301L141.968 108.129H141.857V108.525H141.622V107.47L142.141 107.458ZM141.869 107.662V107.949H142.141C142.189 107.963 142.241 107.963 142.289 107.949C142.298 107.933 142.302 107.914 142.302 107.895C142.302 107.877 142.298 107.858 142.289 107.841C142.298 107.825 142.302 107.806 142.302 107.787C142.302 107.769 142.298 107.75 142.289 107.733C142.241 107.719 142.189 107.719 142.141 107.733L141.869 107.662ZM128.288 102.794C128.329 102.119 128.572 101.471 128.988 100.929C129.403 100.387 129.973 99.9747 130.627 99.7431C131.281 99.5114 131.99 99.4705 132.667 99.6254C133.345 99.7802 133.961 100.124 134.44 100.615C134.918 101.105 135.239 101.721 135.362 102.386C135.485 103.051 135.405 103.737 135.131 104.358C134.858 104.98 134.404 105.51 133.824 105.884C133.244 106.258 132.564 106.459 131.868 106.463C131.379 106.469 130.895 106.376 130.444 106.192C129.994 106.007 129.588 105.734 129.251 105.389C128.915 105.044 128.656 104.636 128.49 104.189C128.324 103.743 128.255 103.268 128.288 102.794ZM41.5771 102.794V97.0635H39.009V98.4542C38.5729 97.9093 38.0096 97.4729 37.3655 97.1811C36.7215 96.8892 36.0152 96.7503 35.305 96.7757C33.6678 96.7757 32.0975 97.4073 30.9398 98.5315C29.7821 99.6556 29.1317 101.18 29.1317 102.77C29.1317 104.36 29.7821 105.885 30.9398 107.009C32.0975 108.133 33.6678 108.765 35.305 108.765C36.0152 108.79 36.7215 108.651 37.3655 108.359C38.0096 108.067 38.5729 107.631 39.009 107.086V108.477H41.5771V102.794ZM32.0208 102.794C32.0618 102.119 32.305 101.471 32.7206 100.929C33.1362 100.387 33.706 99.9747 34.3598 99.7431C35.0136 99.5114 35.723 99.4705 36.4004 99.6254C37.0779 99.7802 37.6939 100.124 38.1727 100.615C38.6515 101.105 38.972 101.721 39.0949 102.386C39.2178 103.051 39.1377 103.737 38.8644 104.358C38.5911 104.98 38.1366 105.51 37.5568 105.884C36.977 106.258 36.2973 106.459 35.6013 106.463C35.1104 106.472 34.6229 106.382 34.1696 106.199C33.7163 106.016 33.3072 105.743 32.9682 105.398C32.6292 105.053 32.3678 104.643 32.2004 104.195C32.0331 103.747 31.9635 103.27 31.9961 102.794H32.0208Z" fill="#231F20"/>
<path d="M92.2847 9.72388H53.3928V77.5935H92.2847V9.72388Z" fill="#FF5F00"/>
<path d="M55.8619 43.6656C55.8547 37.1284 57.3795 30.6752 60.3207 24.7949C63.262 18.9145 67.5427 13.7611 72.8385 9.72486C66.2814 4.72093 58.4067 1.60928 50.1145 0.745546C41.8222 -0.118185 33.447 1.30085 25.9461 4.84046C18.4451 8.38008 12.121 13.8975 7.69655 20.762C3.27209 27.6266 0.925781 35.5614 0.925781 43.6596C0.925781 51.7578 3.27209 59.6926 7.69655 66.5572C12.121 73.4218 18.4451 78.9392 25.9461 82.4788C33.447 86.0184 41.8222 87.4374 50.1145 86.5737C58.4067 85.71 66.2814 82.5983 72.8385 77.5944C67.5443 73.5594 63.2646 68.4079 60.3234 62.5298C57.3822 56.6516 55.8566 50.2009 55.8619 43.6656Z" fill="#EB001B"/>
<path d="M144.758 43.6648C144.758 51.7635 142.411 59.6988 137.986 66.5636C133.561 73.4284 127.236 78.9457 119.734 82.4848C112.232 86.0239 103.856 87.4421 95.5633 86.5771C87.2706 85.7121 79.3958 82.599 72.8391 77.5935C78.1312 73.5549 82.4097 68.402 85.3517 62.5236C88.2936 56.6451 89.8223 50.1946 89.8223 43.6588C89.8223 37.1229 88.2936 30.6724 85.3517 24.794C82.4097 18.9155 78.1312 13.7626 72.8391 9.72404C79.3958 4.71855 87.2706 1.60539 95.5633 0.740421C103.856 -0.12455 112.232 1.29357 119.734 4.83267C127.236 8.37178 133.561 13.8891 137.986 20.7539C142.411 27.6187 144.758 35.554 144.758 43.6528V43.6648Z" fill="#F79E1B"/>
<path d="M140.511 70.3999V69.0092H141.091V68.7214H139.622V69.0092H140.251V70.3999H140.511ZM143.363 70.3999V68.7214H142.918L142.4 69.9203L141.881 68.7214H141.486V70.3999H141.807V69.1411L142.288 70.2321H142.622L143.103 69.1411V70.4119L143.363 70.3999Z" fill="#F79E1B"/>
</svg>
