<svg width="432" height="349" viewBox="0 0 432 349" fill="none" xmlns="http://www.w3.org/2000/svg">
<path d="M67.3179 22.4824C75.5502 13.3596 83.8884 6.61798 91.9321 3.00081C94.221 1.94786 96.5733 1.15368 98.96 0.629269C101.099 0.157164 103.265 -0.0492954 105.432 0.00988975C136.361 1.0064 152.278 50.126 183.482 64.0235C209.639 75.6664 233.842 67.6241 255.007 61.378C262.015 59.1111 269.123 57.4388 276.286 56.3707C278.169 56.1353 280.035 56.0046 281.848 55.9826C283.794 55.9784 285.827 56.0803 287.948 56.3363C287.951 56.3253 287.96 56.3211 287.969 56.3253L287.978 56.3542C314.665 59.4387 353.683 83.1403 363.481 116.533C373.732 151.507 370.148 242.938 287.159 314.038C194.938 393.079 38.2016 318.268 9.81609 257.063C-19.5687 193.77 22.1445 72.5489 67.3179 22.4824Z" fill="#D8DBEE"/>
<path fill-rule="evenodd" clip-rule="evenodd" d="M68.5097 263.028L22.1292 273.38L289.864 266.368L247.132 255.977L68.5097 263.028Z" fill="url(#paint0_radial)"/>
<path fill-rule="evenodd" clip-rule="evenodd" d="M22.1292 273.38L25.7739 278.541L285.233 274.229L289.864 266.368L22.1292 273.38Z" fill="url(#paint1_linear)"/>
<path opacity="0.3" fill-rule="evenodd" clip-rule="evenodd" d="M248.645 274.837L252.035 267.475L270.111 266.946L266.684 274.31L248.645 274.837Z" fill="#540041"/>
<path fill-rule="evenodd" clip-rule="evenodd" d="M58.9988 74.7734L63.3179 135.909L245.731 138.367L249.089 74.1885L58.9988 74.7734Z" fill="#E6515B"/>
<path fill-rule="evenodd" clip-rule="evenodd" d="M58.9988 74.7734L63.5739 109.946L247.031 106.278L246.134 130.655L62.9091 130.12L58.9988 74.7734Z" fill="#E6515B"/>
<path fill-rule="evenodd" clip-rule="evenodd" d="M71.9657 256.565L66.5647 129.617L242.124 129.06L236.377 257.216L71.9657 256.565Z" fill="#E6515B"/>
<path opacity="0.5" fill-rule="evenodd" clip-rule="evenodd" d="M67.9578 255.257L68.5978 261.316H238.29L238.733 254.756L172.709 256.566L67.9578 255.257Z" fill="#811734"/>
<path fill-rule="evenodd" clip-rule="evenodd" d="M174.005 166.826L195.554 165.987L195.538 173.548H174.029L174.005 166.826Z" fill="#FF9F57"/>
<path opacity="0.2" fill-rule="evenodd" clip-rule="evenodd" d="M85.5825 165.617L104.77 164.871L104.754 171.603H85.6032L85.5825 165.617Z" fill="#811734"/>
<path opacity="0.2" fill-rule="evenodd" clip-rule="evenodd" d="M163.085 175.625L182.272 174.879L182.257 181.611H163.105L163.085 175.625Z" fill="#811734"/>
<path opacity="0.2" fill-rule="evenodd" clip-rule="evenodd" d="M183.453 175.292L203.167 174.525L202.625 181.278H183.474L183.453 175.292Z" fill="#811734"/>
<path fill-rule="evenodd" clip-rule="evenodd" d="M78.8589 177.243L61.0098 141.037H66.5649L81.3199 177.243C81.3185 177.243 79.9986 178.724 78.8589 177.243Z" fill="url(#paint2_radial)"/>
<path fill-rule="evenodd" clip-rule="evenodd" d="M227.635 177.243L245.484 141.037H239.929L225.174 177.243C225.176 177.243 226.496 178.724 227.635 177.243Z" fill="url(#paint3_radial)"/>
<path opacity="0.5" fill-rule="evenodd" clip-rule="evenodd" d="M88.4909 243.578L86.9893 173.291H157.627L155.996 242.755L88.4909 243.578Z" fill="#811734"/>
<path fill-rule="evenodd" clip-rule="evenodd" d="M91.3729 239.911L152.694 239.269L154.111 176.777L90.5002 176.803L91.3729 239.911Z" fill="#D8DBEE"/>
<path opacity="0.5" fill-rule="evenodd" clip-rule="evenodd" d="M157.627 173.291H158.785L157.627 242.755H155.996L157.627 173.291Z" fill="#811734"/>
<path opacity="0.5" fill-rule="evenodd" clip-rule="evenodd" d="M91.3729 239.911L90.5002 176.803L92.0322 176.777V239.911H91.3729Z" fill="#811734"/>
<path opacity="0.5" fill-rule="evenodd" clip-rule="evenodd" d="M172.678 260.943L173.2 187.715L220.602 188.351L217.071 261.315L172.678 260.943Z" fill="#811734"/>
<path fill-rule="evenodd" clip-rule="evenodd" d="M175.975 261.315L177.238 191.723H216.948L213.852 261.315H175.975Z" fill="url(#paint4_linear)"/>
<path opacity="0.5" fill-rule="evenodd" clip-rule="evenodd" d="M216.947 191.723H215.25L212.5 261.301L213.852 261.315L216.947 191.723Z" fill="#811734"/>
<path fill-rule="evenodd" clip-rule="evenodd" d="M180.513 247.262V195.188H212.533L209.774 247.262H180.513Z" fill="#D8DBEE"/>
<path fill-rule="evenodd" clip-rule="evenodd" d="M239.57 186.01L241.281 147.877L67.5476 152.732L68.752 181.036L239.57 186.01Z" fill="#E6515B"/>
<path fill-rule="evenodd" clip-rule="evenodd" d="M69.9424 124.738L68.5977 117.04H239.49L237.33 123.761L69.9424 124.738Z" fill="#442672"/>
<path fill-rule="evenodd" clip-rule="evenodd" d="M62.4767 163.183C57.424 163.183 52.9342 158.992 52.4497 153.822L51.0774 139.173H69.7992L70.9141 153.822C71.3063 158.992 67.5295 163.183 62.4767 163.183Z" fill="#442672"/>
<path fill-rule="evenodd" clip-rule="evenodd" d="M80.7744 163.183C75.7216 163.183 71.3061 158.992 70.9125 153.822L69.7976 139.173H88.5194L89.3769 153.822C89.6783 158.992 85.8272 163.183 80.7744 163.183Z" fill="#D8DBEE"/>
<path fill-rule="evenodd" clip-rule="evenodd" d="M99.0738 163.183C94.021 163.183 89.6798 158.992 89.377 153.822L88.5195 139.173H107.241L107.84 153.822C108.051 158.992 104.127 163.183 99.0738 163.183Z" fill="#442672"/>
<path fill-rule="evenodd" clip-rule="evenodd" d="M117.372 163.183C112.319 163.183 108.051 158.992 107.84 153.822L107.241 139.173H125.963L126.304 153.822C126.424 158.992 122.424 163.183 117.372 163.183Z" fill="#D8DBEE"/>
<path fill-rule="evenodd" clip-rule="evenodd" d="M135.671 163.183C130.618 163.183 126.424 158.992 126.303 153.822L125.962 139.173H144.683L144.766 153.822C144.796 158.992 140.724 163.183 135.671 163.183Z" fill="#442672"/>
<path fill-rule="evenodd" clip-rule="evenodd" d="M153.969 163.183C148.916 163.183 144.795 158.992 144.766 153.822L144.683 139.173H163.405L163.23 153.822C163.168 158.992 159.021 163.183 153.969 163.183Z" fill="#D8DBEE"/>
<path fill-rule="evenodd" clip-rule="evenodd" d="M172.268 163.183C167.215 163.183 163.168 158.992 163.23 153.822L163.405 139.173H182.127L181.695 153.822C181.541 158.992 177.321 163.183 172.268 163.183Z" fill="#442672"/>
<path fill-rule="evenodd" clip-rule="evenodd" d="M190.566 163.183C185.513 163.183 181.541 158.992 181.693 153.822L182.126 139.173H200.847L200.156 153.822C199.913 158.992 195.62 163.183 190.566 163.183Z" fill="#D8DBEE"/>
<path fill-rule="evenodd" clip-rule="evenodd" d="M208.865 163.183C203.812 163.183 199.913 158.992 200.157 153.822L200.848 139.173H219.569L218.621 153.822C218.285 158.992 213.918 163.183 208.865 163.183Z" fill="#442672"/>
<path fill-rule="evenodd" clip-rule="evenodd" d="M227.163 163.464C222.11 163.464 218.285 159.273 218.619 154.103L219.568 139.454H238.29L237.083 154.103C236.657 159.273 232.217 163.464 227.163 163.464Z" fill="#D8DBEE"/>
<path fill-rule="evenodd" clip-rule="evenodd" d="M245.462 163.183C240.409 163.183 236.657 158.992 237.084 153.822L238.291 139.173H257.013L255.548 153.822C255.031 158.992 250.515 163.183 245.462 163.183Z" fill="#442672"/>
<path fill-rule="evenodd" clip-rule="evenodd" d="M69.9423 124.738L51.0774 139.172C127.282 143.501 178.887 143.681 257.012 139.172L237.33 123.761L69.9423 124.738Z" fill="#5B3CA0"/>
<path opacity="0.5" fill-rule="evenodd" clip-rule="evenodd" d="M83.8662 242.756L84.008 245.449H157.945V241.849L83.8662 242.756Z" fill="#811734"/>
<path opacity="0.5" fill-rule="evenodd" clip-rule="evenodd" d="M157.945 241.849L160.201 242.27L160.182 245.449H157.945V241.849Z" fill="#811734"/>
<path fill-rule="evenodd" clip-rule="evenodd" d="M100.49 186.01L103.28 221.225H116.261L117.101 234.889H119.673L118.542 224.329H133.788L134.502 234.889H137.503L137.932 217.605L153.249 214.762L154.045 185.626L100.49 186.01Z" fill="#D8DBEE"/>
<path fill-rule="evenodd" clip-rule="evenodd" d="M183.453 196.785L184.78 222.707H191.268V233.329H193.918L193.309 226.105H200.428L200.352 233.329H206.428L209.827 238.099L211.379 196.156L183.453 196.785Z" fill="#D8DBEE"/>
<path opacity="0.5" fill-rule="evenodd" clip-rule="evenodd" d="M97.5408 210.108L101.121 226.789L137.004 223.368L138.563 205.9L97.5408 210.108Z" fill="#816090"/>
<path fill-rule="evenodd" clip-rule="evenodd" d="M97.5408 210.108L138.563 205.9L140.116 221.606L99.8586 225.436L97.5408 210.108Z" fill="url(#paint5_radial)"/>
<path fill-rule="evenodd" clip-rule="evenodd" d="M138.563 205.9L123.983 197.326L97.5408 210.107L99.0204 209.927L123.937 197.866L137.721 205.986L138.563 205.9Z" fill="url(#paint6_radial)"/>
<path d="M107.708 214.813C107.938 214.316 108.274 213.906 108.717 213.582C109.16 213.259 109.656 213.07 110.204 213.019C110.752 212.968 111.273 213.062 111.767 213.297C112.263 213.531 112.672 213.873 112.995 214.317C113.319 214.763 113.506 215.257 113.557 215.8C113.609 216.354 113.517 216.876 113.28 217.369C113.045 217.862 112.705 218.266 112.261 218.584C111.817 218.902 111.323 219.088 110.775 219.139C110.222 219.191 109.699 219.1 109.207 218.87C108.716 218.641 108.31 218.305 107.992 217.864C107.675 217.424 107.491 216.927 107.439 216.374C107.389 215.83 107.478 215.31 107.708 214.813ZM108.998 217.195C109.191 217.472 109.438 217.683 109.738 217.827C110.039 217.972 110.363 218.027 110.71 217.995C111.046 217.963 111.345 217.85 111.606 217.652C111.866 217.455 112.062 217.205 112.193 216.899C112.322 216.594 112.372 216.268 112.339 215.914C112.305 215.556 112.193 215.238 112.003 214.96C111.813 214.683 111.569 214.471 111.275 214.327C110.979 214.182 110.661 214.126 110.319 214.158C109.978 214.189 109.675 214.305 109.412 214.5C109.149 214.697 108.95 214.95 108.815 215.257C108.679 215.566 108.629 215.899 108.662 216.257C108.692 216.606 108.805 216.917 108.998 217.195Z" fill="white"/>
<path d="M118.02 212.9C118.455 213.222 118.703 213.697 118.761 214.32C118.794 214.677 118.755 215.019 118.647 215.344C118.536 215.669 118.336 215.946 118.044 216.177C117.751 216.407 117.357 216.544 116.863 216.591L116.016 216.671L116.194 218.566L115.014 218.676L114.454 212.689L116.268 212.52C117.002 212.45 117.587 212.576 118.02 212.9ZM117.272 215.244C117.397 215.129 117.484 215.004 117.53 214.861C117.577 214.721 117.595 214.586 117.583 214.463C117.563 214.251 117.482 214.052 117.339 213.866C117.196 213.681 116.945 213.603 116.588 213.637L115.741 213.717L115.909 215.523L116.747 215.445C116.972 215.423 117.146 215.357 117.272 215.244Z" fill="white"/>
<path d="M123.714 211.822L123.822 212.961L120.918 213.232L121.037 214.509L123.608 214.268L123.716 215.408L121.145 215.649L121.266 216.941L124.284 216.659L124.39 217.797L120.192 218.191L119.632 212.204L123.714 211.822Z" fill="white"/>
<path d="M130.441 211.191L131.025 217.424L130.992 217.426L126.448 214.036L126.803 217.572L125.607 217.684L125.025 211.461L125.074 211.457L129.615 214.905L129.253 211.303L130.441 211.191Z" fill="white"/>
<path fill-rule="evenodd" clip-rule="evenodd" d="M97.5408 117.04L130.888 65.1867L263.533 55.4775L260.344 99.6792L181.69 117.04H97.5408Z" fill="#E6515B"/>
<path fill-rule="evenodd" clip-rule="evenodd" d="M260.344 99.6787L247.032 109.36V106.277L191.268 117.039H181.69L260.344 99.6787Z" fill="url(#paint7_linear)"/>
<path opacity="0.5" fill-rule="evenodd" clip-rule="evenodd" d="M181.69 117.039L106.754 102.714L97.5408 117.039H181.69Z" fill="#811734"/>
<path opacity="0.5" fill-rule="evenodd" clip-rule="evenodd" d="M130.888 65.1865L181.69 117.04L118.828 83.94L130.888 65.1865Z" fill="#811734"/>
<path opacity="0.5" fill-rule="evenodd" clip-rule="evenodd" d="M157.391 63.2474L181.69 117.04L177.563 61.7705L157.391 63.2474Z" fill="#811734"/>
<path opacity="0.5" fill-rule="evenodd" clip-rule="evenodd" d="M205.899 59.6962L181.69 117.04L228.445 58.0459L205.899 59.6962Z" fill="#811734"/>
<path opacity="0.5" fill-rule="evenodd" clip-rule="evenodd" d="M263.533 55.4775L181.69 117.04L260.344 86.2593L263.533 55.4775Z" fill="#811734"/>
<path d="M169.928 88.8334C169.928 89.6235 169.846 90.3172 169.681 90.9118C169.515 91.5077 169.301 92.017 169.035 92.4423C168.769 92.8676 168.472 93.2186 168.142 93.4925C167.811 93.7678 167.474 93.9853 167.129 94.1449C166.783 94.3046 166.453 94.4174 166.138 94.4821C165.822 94.5468 165.55 94.5799 165.32 94.5799C165.2 94.5799 165.034 94.573 164.825 94.5578C164.614 94.5427 164.374 94.511 164.103 94.4601C163.834 94.4106 163.535 94.3376 163.21 94.2426C162.885 94.1477 162.543 94.0155 162.182 93.8449L162.347 90.0625C162.938 90.5622 163.465 90.898 163.93 91.0687C164.395 91.2393 164.787 91.3233 165.108 91.3233C165.729 91.3233 166.197 91.0976 166.512 90.6475C166.827 90.1974 166.986 89.6124 166.986 88.8912C166.986 88.4108 166.867 87.8727 166.633 87.2781C166.398 86.6821 165.981 86.0393 165.379 85.3484C164.969 84.868 164.544 84.3684 164.103 83.8481C163.663 83.3278 163.262 82.7717 162.903 82.1813C162.543 81.5908 162.248 80.9563 162.018 80.2749C161.787 79.595 161.673 78.8586 161.673 78.0686C161.673 77.0679 161.81 76.2022 162.086 75.4713C162.361 74.7404 162.728 74.1348 163.189 73.6545C163.65 73.1741 164.178 72.8162 164.774 72.5809C165.37 72.3455 165.992 72.2285 166.643 72.2285C167.214 72.2285 167.796 72.307 168.392 72.4611C168.988 72.6167 169.586 72.8534 170.186 73.1741L169.899 76.9565C169.639 76.6261 169.367 76.3632 169.082 76.1678C168.795 75.9723 168.522 75.8251 168.256 75.7246C167.99 75.6255 167.745 75.5594 167.521 75.5291C167.295 75.4988 167.108 75.4851 166.958 75.4851C166.668 75.4851 166.401 75.558 166.154 75.7025C165.909 75.8484 165.699 76.0425 165.524 76.2889C165.349 76.5339 165.211 76.8243 165.111 77.1588C165.01 77.4946 164.961 77.847 164.961 78.2172C164.961 78.7884 165.083 79.3032 165.328 79.7629C165.573 80.224 165.88 80.6796 166.252 81.1297C166.622 81.5798 167.02 82.0436 167.445 82.5185C167.871 82.9933 168.268 83.5288 168.639 84.1247C169.009 84.7207 169.316 85.4007 169.562 86.1659C169.806 86.9353 169.928 87.8231 169.928 88.8334Z" fill="white"/>
<path d="M179.055 75.7288C178.734 75.7096 178.367 75.6944 177.951 75.6834C177.536 75.6738 177.094 75.6683 176.623 75.6683C176.553 76.5987 176.495 77.5622 176.451 78.5573C176.406 79.5538 176.368 80.5641 176.338 81.5895C176.308 82.615 176.289 83.6459 176.279 84.6809C176.269 85.7174 176.264 86.74 176.264 87.7503C176.264 88.901 176.271 90.0145 176.286 91.0894C176.301 92.1658 176.333 93.2036 176.384 94.2042H173.186C173.277 92.503 173.346 90.6917 173.397 88.7702C173.446 86.8488 173.473 84.9122 173.473 82.9604C173.473 81.69 173.457 80.4485 173.427 79.2373C173.397 78.026 173.367 76.8451 173.336 75.6944C172.856 75.6944 172.4 75.6999 171.971 75.7096C171.54 75.7192 171.156 75.7343 170.815 75.755L170.845 72.6182C171.206 72.6484 171.61 72.6705 172.062 72.6856C172.512 72.7007 172.985 72.7131 173.481 72.7228C173.976 72.7324 174.484 72.7407 175.004 72.7448C175.525 72.7503 176.035 72.7517 176.535 72.7517C177.036 72.7517 177.508 72.7517 177.954 72.7517C178.4 72.7517 178.796 72.742 179.147 72.7214L179.055 75.7288Z" fill="white"/>
<path d="M190.493 83.6398C190.493 85.6508 190.355 87.3575 190.08 88.7587C189.805 90.1598 189.432 91.2981 188.961 92.1735C188.49 93.0489 187.936 93.6848 187.294 94.0798C186.654 94.4748 185.969 94.673 185.238 94.673C184.507 94.673 183.822 94.4859 183.182 94.1101C182.541 93.7357 181.98 93.1177 181.5 92.2561C181.019 91.3958 180.642 90.2603 180.367 88.8481C180.091 87.4373 179.954 85.7003 179.954 83.6398C179.954 81.5684 180.091 79.8093 180.367 78.3627C180.642 76.9161 181.019 75.7407 181.5 74.835C181.98 73.9293 182.54 73.2742 183.182 72.8681C183.822 72.4635 184.507 72.2598 185.238 72.2598C185.969 72.2598 186.654 72.458 187.294 72.853C187.934 73.2494 188.49 73.8963 188.961 74.7965C189.432 75.6966 189.803 76.8707 190.08 78.3173C190.355 79.7639 190.493 81.5381 190.493 83.6398ZM187.146 83.6398C187.146 82.0694 187.096 80.7425 186.996 79.662C186.895 78.5816 186.757 77.7034 186.583 77.0276C186.408 76.3518 186.204 75.8645 185.974 75.5645C185.744 75.2644 185.499 75.1144 185.238 75.1144C184.968 75.1144 184.715 75.2672 184.479 75.5728C184.244 75.8783 184.039 76.3683 183.864 77.0441C183.689 77.7199 183.552 78.6008 183.451 79.6854C183.351 80.7714 183.301 82.09 183.301 83.6412C183.301 85.1828 183.351 86.4766 183.451 87.5213C183.552 88.5673 183.688 89.4083 183.864 90.0428C184.039 90.6787 184.244 91.1316 184.479 91.4013C184.715 91.6725 184.967 91.8074 185.238 91.8074C185.498 91.8074 185.743 91.6642 185.974 91.3793C186.204 91.0944 186.406 90.6278 186.583 89.9837C186.757 89.3381 186.895 88.4958 186.996 87.4538C187.095 86.4119 187.146 85.1401 187.146 83.6398Z" fill="white"/>
<path d="M200.911 79.0169C200.911 79.6872 200.848 80.3602 200.724 81.0361C200.599 81.7119 200.396 82.3629 200.115 82.9878C199.835 83.6127 199.475 84.199 199.035 84.7441C198.594 85.2891 198.054 85.7722 197.414 86.1934C197.974 87.6249 198.592 88.9972 199.268 90.313C199.943 91.6288 200.696 92.8979 201.526 94.1187L197.774 94.3293L195.222 87.0784C195.262 88.2993 195.312 89.5105 195.372 90.7108C195.432 91.911 195.507 93.0974 195.597 94.2688H191.934C192.094 91.9977 192.212 89.7253 192.286 87.4542C192.361 85.1831 192.399 82.8956 192.399 80.5942C192.399 79.2633 192.39 77.935 192.369 76.6096C192.348 75.2841 192.308 73.9448 192.249 72.5946C192.779 72.4349 193.317 72.3303 193.862 72.2794C194.407 72.2299 194.87 72.2051 195.251 72.2051C195.521 72.2051 195.849 72.2326 196.234 72.2877C196.619 72.3427 197.023 72.4556 197.442 72.6249C197.862 72.7956 198.281 73.0351 198.696 73.3447C199.111 73.6544 199.482 74.0632 199.807 74.5684C200.132 75.0735 200.398 75.6887 200.603 76.4141C200.808 77.1381 200.911 78.0066 200.911 79.0169ZM195.191 84.645C195.54 84.5459 195.849 84.3972 196.114 84.2018C196.38 84.0063 196.612 83.7847 196.812 83.5342C197.012 83.2837 197.18 83.0195 197.314 82.7387C197.449 82.4579 197.562 82.1785 197.652 81.8977C197.851 81.2466 197.967 80.5364 197.997 79.7656C197.997 79.7464 197.994 79.6225 197.99 79.3981C197.985 79.1724 197.959 78.8902 197.908 78.5503C197.857 78.2103 197.785 77.8401 197.69 77.4395C197.595 77.0404 197.458 76.6509 197.277 76.2765C197.097 75.9007 196.867 75.569 196.586 75.2786C196.306 74.9882 195.966 74.7831 195.566 74.6633C195.447 76.2352 195.353 77.7988 195.288 79.3541C195.224 80.9108 195.191 82.4785 195.191 84.06V84.645Z" fill="white"/>
<path d="M208.626 86.1167C208.315 86.0974 208.001 86.0823 207.68 86.0713C207.36 86.0617 207.04 86.0562 206.719 86.0562C206.539 86.0562 206.352 86.0617 206.157 86.0713C205.961 86.0809 205.768 86.0864 205.578 86.0864L205.519 91.4448C206.34 91.4255 207.138 91.3856 207.913 91.325C208.689 91.2644 209.512 91.1695 210.382 91.0401V94.1769C209.822 94.1563 209.278 94.1425 208.754 94.1315C208.228 94.1219 207.705 94.1164 207.185 94.1164C206.404 94.1164 205.634 94.1287 204.874 94.1535C204.113 94.1783 203.328 94.2155 202.517 94.2664C202.607 92.4055 202.68 90.5611 202.735 88.7346C202.79 86.9081 202.817 85.0651 202.817 83.2029C202.817 81.4218 202.795 79.6531 202.75 77.8969C202.706 76.1406 202.627 74.3719 202.517 72.5908C203.698 72.6817 204.824 72.7257 205.895 72.7257C206.575 72.7257 207.254 72.7078 207.929 72.6734C208.605 72.639 209.328 72.5908 210.099 72.5303V75.9823C209.478 75.8722 208.865 75.7868 208.26 75.7263C207.654 75.6671 207.051 75.6368 206.451 75.6368H205.865C205.764 76.888 205.697 78.1336 205.662 79.3751C205.627 80.6166 205.599 81.8623 205.58 83.112C205.84 83.1327 206.103 83.1423 206.368 83.1423C206.634 83.1423 206.907 83.1423 207.186 83.1423C207.416 83.1423 207.651 83.1423 207.892 83.1423C208.132 83.1423 208.378 83.1327 208.627 83.112V86.1167H208.626Z" fill="white"/>
<path opacity="0.5" fill-rule="evenodd" clip-rule="evenodd" d="M75.5445 262.75L65.0977 268.232L238.29 261.315H114.409L75.5445 262.75Z" fill="#AC2A41"/>
<path d="M373.187 247.96C373.187 247.96 372.762 252.682 373.107 254.217C373.293 255.039 374.322 256.73 373.85 257.504C373.378 258.277 372.837 258.47 372.837 258.47L360.585 258.644C359.917 258.653 360.359 258.277 360.896 257.931C361.776 257.364 362.487 256.989 365.301 255.797C365.484 255.719 366.153 255.347 366.394 255.219C367.005 254.893 367.619 254.378 368.146 253.863C369.026 253.006 369.103 248.846 369.103 248.846L373.187 247.96Z" fill="#F7A491"/>
<path d="M363.61 185.182C363.61 185.182 358.344 182.87 359.357 187.898C360.37 192.924 368.086 249.459 368.086 249.459L375.313 249.815C375.313 249.815 376.237 230.967 376.035 228.259C375.832 225.552 374.635 221.365 374.635 221.365L374.022 204.643L367.204 183.997L363.61 185.182Z" fill="black"/>
<path d="M366.394 255.218C369.634 255.946 372.029 255.451 373.37 254.979C373.715 255.836 374.174 256.912 373.93 257.532C373.633 258.291 373.245 258.629 372.87 258.637C369.911 258.706 361.993 258.631 359.735 258.658C359.42 258.662 359.247 258.338 359.449 258.126C360.011 257.543 366.153 255.347 366.394 255.218Z" fill="black"/>
<path d="M359.357 151.208C359.357 151.208 354.904 143.58 354.213 140.78C353.522 137.981 351.13 123.878 351.332 122.97C351.535 122.061 355.317 119.877 354.851 119.105C354.384 118.334 350.78 118.331 349.956 118.397C349.132 118.463 347.473 118.891 346.763 119.413C346.053 119.935 347.561 136.834 348.011 140.472C348.461 144.11 353.993 155.315 353.993 155.315L359.357 151.208Z" fill="#F7A491"/>
<path d="M394.049 210.655C394.049 210.655 397.721 207.226 398.539 205.84C398.977 205.098 399.373 203.206 400.288 202.871C401.202 202.535 401.76 202.688 401.76 202.688L411.397 209.427C411.923 209.794 411.313 209.838 410.651 209.805C409.565 209.752 408.749 209.644 405.721 208.992C405.524 208.949 404.741 208.864 404.463 208.828C403.757 208.739 402.917 208.794 402.142 208.898C400.853 209.07 397.849 212.258 397.849 212.258L394.049 210.655Z" fill="#F7A491"/>
<path d="M404.459 208.829C402.457 206.446 400.247 205.487 398.872 205.103C399.21 204.243 399.581 203.119 400.208 202.774C400.976 202.351 401.506 202.438 401.804 202.642C404.15 204.249 410.293 208.647 412.063 209.893C412.311 210.066 412.217 210.414 411.91 210.465C411.061 210.604 404.738 208.863 404.459 208.829Z" fill="black"/>
<path d="M394.136 148.885C391.849 144.615 386.784 142.266 381.879 143.403C380.12 141.282 377.396 139.798 374.563 139.441C368.975 138.737 361.765 141.149 362.5 146.343C360.735 149.975 361.168 154.981 364.694 157.434C364.046 162.208 369.424 166.443 375.787 165.872C378.347 169.019 382.798 170.864 386.962 170.146C387.961 169.974 389.478 169.649 389.739 169.689C389.413 169.656 396.999 174.078 402.229 166.204C407.568 158.169 402.311 149.186 394.136 148.885Z" fill="black"/>
<path d="M361.49 187.005C361.49 187.005 373.301 182.33 373.487 182.864C374.968 187.11 379.575 185.74 382.31 193.218C383.455 196.35 384.63 217.183 384.63 217.183C384.63 217.183 389.288 213.742 395.943 207.73C396.454 207.269 401.457 211.505 401.457 211.505C388.246 227.397 382.548 228.226 380.343 227.335C375.741 225.478 366.032 199.499 366.048 199.502C364.883 197.478 361.49 187.005 361.49 187.005Z" fill="black"/>
<path d="M381.07 157.656C381.07 157.656 398.141 157.637 401.795 157.45C405.103 157.281 418.224 157.578 418.738 157.524C419.251 157.472 422.642 152.357 423.205 152.906C423.77 153.456 421.318 155.442 422.077 155.958C422.835 156.473 430.978 155.319 430.869 155.855C430.667 156.858 425.917 156.73 425.921 157.215C425.925 157.699 430.892 156.943 431.23 157.747C431.567 158.551 426.452 158.075 426.247 158.434C426.043 158.793 430.992 159.45 430.485 160.197C430.21 160.603 426.101 159.519 426.121 160.072C426.14 160.625 429.139 161.885 428.771 162.325C428.404 162.766 426.419 160.972 424.679 160.95C422.94 160.928 421.694 160.12 418.918 160.797C417.547 161.132 407.079 162.272 398.235 162.945C389.167 163.634 381.734 163.853 381.734 163.853L381.07 157.656Z" fill="#F7A491"/>
<path d="M355.756 168.403C355.53 165.962 356.069 164.083 356.192 163.273C355.364 160.737 353.599 155.33 352.965 154.267C352.965 154.267 355.936 149.181 358.98 149.217C358.98 149.217 362.088 155.453 364.489 156.568C364.525 156.56 365.34 156.892 365.698 156.889C368.017 156.874 376.123 156.655 377.637 156.632L376.785 166.871C370.91 177.122 372.501 182.501 374.737 184.49C375.788 185.426 360.079 189.225 359.357 187.899C358.503 186.336 356.215 173.336 355.756 168.403Z" fill="#E6515B"/>
<path d="M373.519 157.018C375.013 156.382 385.833 156.7 385.833 156.7C385.833 156.7 387.346 163.408 386.124 165.02C386.124 165.02 376.449 166.301 376.724 167.009L373.519 157.018Z" fill="#E6515B"/>
<path d="M370.682 152.709C370.682 152.709 370.492 156.367 370.685 157.891C370.877 159.415 368.928 162.988 365.301 163.05C361.675 163.112 364.769 159.622 365.087 158.122C365.405 156.623 365.786 150.753 365.786 150.753L370.682 152.709Z" fill="#F7A491"/>
<path d="M365.786 150.751C365.786 150.751 365.698 152.114 365.57 153.694C366.714 154.909 368.471 155.53 370.61 154.789C370.634 153.657 370.682 152.707 370.682 152.707L365.786 150.751Z" fill="#F47458"/>
<path d="M370.982 141.806C370.982 141.806 373.035 142.352 374.189 144.181C375.341 146.01 375.827 151.217 371.398 153.363C366.968 155.508 363.932 151.903 364.134 148.582C364.337 145.26 365.478 140.879 370.982 141.806Z" fill="#F7A491"/>
<path d="M363.244 147.484C363.544 148.307 364.224 148.848 364.762 148.692C365.3 148.537 365.494 147.744 365.194 146.921C364.894 146.098 364.214 145.557 363.676 145.712C363.136 145.868 362.944 146.661 363.244 147.484Z" fill="#F7A491"/>
<path d="M370.365 141.658C370.365 141.658 372.614 147.134 374.914 147.752C377.214 148.37 376.973 151.04 376.973 151.04C376.973 151.04 377.399 144.864 375.319 143.314C373.238 141.764 370.365 141.658 370.365 141.658Z" fill="black"/>
<path d="M373.9 148.799C373.525 149.643 373.742 150.51 374.382 150.734C375.022 150.96 375.845 150.458 376.219 149.614C376.593 148.77 376.377 147.903 375.737 147.679C375.097 147.454 374.274 147.955 373.9 148.799Z" fill="#F7A491"/>
<path d="M346.763 120.6C346.763 120.6 351.12 120.907 351.708 120.907C352.296 120.907 354.004 119.334 354.004 119.334L346.763 120.6Z" fill="#F47458"/>
<path d="M338.57 121.221L341.884 109.737L318.698 103.045L315.383 114.529L338.57 121.221Z" fill="#92E3A9"/>
<path opacity="0.5" d="M318.704 103.042L315.379 114.543L338.565 121.229L341.891 109.727L318.704 103.042ZM337.961 120.078L316.575 113.891L319.355 104.191L340.742 110.377L337.961 120.078Z" fill="black"/>
<path opacity="0.5" d="M339.029 111.603L336.166 110.794C335.844 110.719 335.643 110.366 335.763 110.041C335.837 109.719 336.191 109.518 336.516 109.637L339.379 110.447C339.701 110.521 339.902 110.875 339.782 111.2C339.66 111.48 339.351 111.679 339.029 111.603Z" fill="black"/>
<path opacity="0.5" d="M320.803 114.722L317.94 113.912C317.618 113.838 317.417 113.484 317.537 113.159C317.611 112.837 317.965 112.636 318.29 112.756L321.153 113.565C321.475 113.64 321.676 113.993 321.556 114.318C321.435 114.598 321.125 114.796 320.803 114.722Z" fill="black"/>
<path d="M327.761 115.502C329.701 116.086 331.741 115.026 332.325 113.084C332.908 111.143 331.849 109.103 329.907 108.52C327.966 107.936 325.926 108.996 325.342 110.938C324.757 112.835 325.817 114.874 327.761 115.502Z" fill="#5E936D"/>
<path d="M329.956 113.934C329.875 114.12 329.697 114.221 329.511 114.14L328.308 113.746C328.624 113.684 328.937 113.577 329.155 113.384L329.664 113.539C329.849 113.621 329.992 113.75 329.956 113.934Z" fill="#92E3A9"/>
<path d="M330.889 112.612C330.808 112.798 330.63 112.899 330.445 112.817L329.798 112.623C329.839 112.53 329.922 112.389 329.917 112.298C329.959 112.205 329.953 112.114 329.997 112.067L330.599 112.264C330.78 112.254 330.88 112.431 330.889 112.612Z" fill="#92E3A9"/>
<path d="M331.679 111.161C331.598 111.347 331.42 111.447 331.235 111.366L330.079 111.015C330.019 110.745 329.869 110.48 329.675 110.262L331.433 110.81C331.478 110.807 331.526 110.851 331.573 110.894L331.621 110.937C331.67 110.979 331.67 110.979 331.716 111.023C331.718 111.022 331.721 111.067 331.679 111.161Z" fill="#92E3A9"/>
<path d="M327.338 111.702L327.183 112.21C326.998 112.174 326.815 112.138 326.631 112.101C326.666 111.917 326.701 111.688 326.737 111.504L327.338 111.702Z" fill="#92E3A9"/>
<path d="M329.189 112.29C329.112 112.567 328.898 112.806 328.68 112.999C328.585 112.912 328.442 112.784 328.346 112.698C328.472 112.509 328.554 112.323 328.588 112.093L329.189 112.29Z" fill="#92E3A9"/>
<path d="M329.306 111.92L328.705 111.723C328.786 111.537 328.82 111.307 328.808 111.08C328.944 111.073 329.126 111.064 329.262 111.057C329.367 111.325 329.383 111.643 329.306 111.92Z" fill="#92E3A9"/>
<path d="M327.11 112.577L326.917 113.27C326.869 113.227 326.822 113.183 326.774 113.14C326.721 113.007 326.672 112.917 326.665 112.782C326.661 112.691 326.655 112.601 326.651 112.51C326.788 112.503 326.927 112.541 327.11 112.577Z" fill="#92E3A9"/>
<path d="M329.154 110.699C329.017 110.705 328.926 110.71 328.79 110.718C328.786 110.627 328.779 110.491 328.774 110.4C328.77 110.309 328.767 110.264 328.717 110.175L328.714 110.13L328.712 110.085C328.807 110.171 328.903 110.257 328.953 110.345C329.001 110.387 329.002 110.433 329.05 110.477C329.099 110.52 329.1 110.565 329.148 110.609C329.151 110.653 329.154 110.699 329.154 110.699Z" fill="#92E3A9"/>
<path d="M327.807 112.861C327.766 112.954 327.723 113.001 327.635 113.052C327.549 113.147 327.463 113.243 327.33 113.296C327.287 113.344 327.196 113.348 327.151 113.351L327.344 112.658C327.525 112.693 327.667 112.777 327.807 112.861Z" fill="#92E3A9"/>
<path d="M326.453 113.067C326.405 113.025 326.313 112.983 326.262 112.895C326.167 112.809 326.069 112.678 326.017 112.544C326.017 112.544 326.014 112.499 325.969 112.502L326.014 112.499C326.105 112.495 326.241 112.488 326.332 112.482C326.336 112.573 326.343 112.71 326.349 112.8C326.395 112.842 326.401 112.932 326.453 113.067Z" fill="#92E3A9"/>
<path d="M327.97 109.804L327.777 110.496C327.638 110.458 327.452 110.376 327.312 110.292C327.353 110.199 327.396 110.152 327.484 110.101C327.571 110.006 327.656 109.91 327.79 109.857C327.835 109.856 327.879 109.808 327.97 109.804Z" fill="#92E3A9"/>
<path d="M327.615 110.868L327.459 111.376L326.858 111.179C326.939 110.993 327.02 110.806 327.103 110.62C327.242 110.706 327.428 110.787 327.615 110.868Z" fill="#92E3A9"/>
<path d="M328.263 111.973C328.182 112.159 328.101 112.346 328.018 112.532C327.878 112.448 327.69 112.367 327.507 112.331L327.663 111.823L328.263 111.973Z" fill="#92E3A9"/>
<path d="M328.373 113.241C328.373 113.241 328.328 113.244 328.33 113.289C328.242 113.339 328.107 113.391 328.018 113.397C327.884 113.449 327.794 113.453 327.657 113.46C327.703 113.457 327.7 113.412 327.745 113.41C327.788 113.362 327.878 113.313 327.92 113.265C328.007 113.17 328.05 113.121 328.09 113.028C328.227 113.068 328.322 113.153 328.373 113.241Z" fill="#92E3A9"/>
<path d="M327.463 109.693C327.375 109.742 327.289 109.839 327.246 109.885C327.159 109.98 327.117 110.028 327.077 110.122C326.982 110.035 326.888 109.995 326.793 109.909C326.793 109.909 326.793 109.909 326.838 109.906C326.838 109.906 326.838 109.906 326.884 109.903C327.012 109.761 327.236 109.705 327.463 109.693Z" fill="#92E3A9"/>
<path d="M328.383 111.648L327.781 111.452L327.937 110.944C328.121 110.98 328.304 111.015 328.489 111.052C328.452 111.236 328.419 111.464 328.383 111.648Z" fill="#92E3A9"/>
<path d="M328.515 110.687C328.33 110.651 328.194 110.658 328.057 110.619L328.249 109.927C328.297 109.969 328.344 110.013 328.392 110.056C328.445 110.19 328.494 110.279 328.501 110.414C328.505 110.505 328.511 110.596 328.515 110.687Z" fill="#92E3A9"/>
<path d="M338.57 121.221L341.884 109.737L318.698 103.045L315.383 114.529L338.57 121.221Z" stroke="#263238" stroke-width="0.5" stroke-miterlimit="3.9999" stroke-linecap="round" stroke-linejoin="round"/>
<path d="M314.401 118.597C311.562 117.522 308.623 116.594 305.598 115.83" stroke="#263238" stroke-width="0.5" stroke-linecap="round" stroke-linejoin="round"/>
<path d="M319.918 120.929C318.727 120.371 317.515 119.84 316.284 119.338" stroke="#263238" stroke-width="0.5" stroke-linecap="round" stroke-linejoin="round"/>
<path d="M323.227 122.574C322.604 122.245 321.975 121.925 321.339 121.611" stroke="#263238" stroke-width="0.5" stroke-linecap="round" stroke-linejoin="round"/>
<path d="M305.313 117.689C304.712 116.909 304.092 116.134 303.458 115.367C304.409 114.956 305.374 114.561 306.351 114.182" stroke="#263238" stroke-width="0.5" stroke-linecap="round" stroke-linejoin="round"/>
<path d="M299.724 105.14C296.488 104.065 293.131 103.155 289.665 102.43" stroke="#263238" stroke-width="0.5" stroke-linecap="round" stroke-linejoin="round"/>
<path d="M306.027 107.503C304.67 106.933 303.286 106.394 301.878 105.886" stroke="#263238" stroke-width="0.5" stroke-linecap="round" stroke-linejoin="round"/>
<path d="M309.792 109.188C309.084 108.851 308.368 108.521 307.644 108.2" stroke="#263238" stroke-width="0.5" stroke-linecap="round" stroke-linejoin="round"/>
<path d="M289.135 104.3C288.484 103.522 287.821 102.751 287.145 101.986C288.299 101.553 289.463 101.138 290.636 100.746" stroke="#263238" stroke-width="0.5" stroke-linecap="round" stroke-linejoin="round"/>
<path d="M291.589 97.5002C291.077 97.6887 290.503 97.7069 289.983 97.6068C289.446 97.465 288.948 97.1643 288.563 96.7737C288.071 96.2288 287.804 95.503 287.825 94.7695C287.845 94.0361 288.168 93.3356 288.757 92.8282C289.009 92.5897 289.319 92.3796 289.66 92.2544C290.172 92.0659 290.746 92.0477 291.266 92.1477C291.803 92.2896 292.301 92.5902 292.686 92.9808C293.178 93.5257 293.445 94.2516 293.424 94.985C293.404 95.7185 293.08 96.4189 292.492 96.9263C292.24 97.1649 291.93 97.375 291.589 97.5002Z" fill="#BFBFBF"/>
<path d="M291.542 97.3721C291.84 97.2621 292.167 97.0938 292.417 96.856C293.509 95.8733 293.599 94.1452 292.615 93.0541C291.87 92.2149 290.669 91.9787 289.689 92.3398C289.391 92.4498 289.064 92.6182 288.814 92.856C287.722 93.8386 287.632 95.5668 288.615 96.6578C289.361 97.497 290.562 97.7332 291.542 97.3721ZM291.621 97.586L291.542 97.3721L291.621 97.586C291.066 97.7897 290.492 97.8079 289.912 97.6813C289.333 97.5547 288.835 97.254 288.418 96.778C287.91 96.1895 287.644 95.4648 287.649 94.6878C287.696 93.8955 288.019 93.1951 288.608 92.6876C288.902 92.4339 289.211 92.2227 289.553 92.0967C290.108 91.8931 290.682 91.8748 291.261 92.0015C291.84 92.1281 292.338 92.4288 292.756 92.9047C293.263 93.4933 293.529 94.218 293.525 94.995C293.52 95.7721 293.154 96.4877 292.566 96.9951C292.288 97.2925 291.962 97.4601 291.621 97.586Z" fill="#263238"/>
<path d="M292.074 96.4499C292.984 95.6312 293.055 94.248 292.237 93.3391C291.418 92.429 290.035 92.3585 289.126 93.1766C288.217 93.9946 288.145 95.3785 288.963 96.2874C289.782 97.1975 291.164 97.2687 292.074 96.4499Z" fill="#7C7C7C"/>
<path d="M291.994 94.7847C292.084 94.8974 292.045 95.0562 291.933 95.1461L291.248 95.7852C291.355 95.5523 291.378 95.3498 291.342 95.1207L291.636 94.867C291.734 94.7347 291.878 94.7309 291.994 94.7847Z" fill="#BFBFBF"/>
<path d="M291.594 93.963C291.684 94.0756 291.646 94.2345 291.533 94.3244L291.17 94.652C291.139 94.566 291.065 94.4969 290.991 94.4279C290.932 94.4014 290.901 94.3153 290.842 94.2888L291.205 93.9611C291.334 93.9129 291.478 93.9091 291.594 93.963Z" fill="#BFBFBF"/>
<path d="M291.196 93.1409C291.286 93.2535 291.247 93.4124 291.134 93.5022L290.477 94.0837C290.259 94.0184 290.057 93.9957 289.845 94.0746L290.824 93.1818C290.866 93.1667 290.866 93.1667 290.893 93.1079L290.935 93.0927C290.978 93.0775 290.978 93.0775 291.021 93.0616C291.122 93.0718 291.137 93.1143 291.196 93.1409Z" fill="#BFBFBF"/>
<path d="M290.016 95.4636L290.27 95.7579C290.158 95.8477 290.104 95.9642 289.991 96.054C289.859 95.9577 289.785 95.8876 289.652 95.792L290.016 95.4636Z" fill="#BFBFBF"/>
<path d="M290.898 94.7037C291.047 94.8429 291.125 95.0556 291.161 95.2847C291.075 95.3158 290.947 95.3632 290.863 95.3947C290.773 95.2821 290.71 95.1118 290.579 95.0155L290.898 94.7037Z" fill="#BFBFBF"/>
<path d="M290.767 94.607L290.446 94.9195C290.356 94.8069 290.224 94.7106 290.091 94.6138C290.16 94.5399 290.215 94.4227 290.225 94.3222C290.427 94.3438 290.662 94.4519 290.767 94.607Z" fill="#BFBFBF"/>
<path d="M290.402 95.8545L290.745 96.2614C290.703 96.2766 290.66 96.2937 290.618 96.3088C290.516 96.2975 290.415 96.2861 290.357 96.2588C290.299 96.2322 290.241 96.205 290.182 96.1784C290.22 96.0183 290.289 95.9444 290.402 95.8545Z" fill="#BFBFBF"/>
<path d="M290.109 94.268C290.097 94.3693 290.028 94.4432 290.001 94.5009C289.942 94.4743 289.884 94.447 289.81 94.3769C289.751 94.3503 289.693 94.323 289.651 94.3382L289.608 94.3534L289.566 94.3686C289.652 94.3375 289.736 94.306 289.822 94.2737C289.864 94.2585 289.908 94.2426 289.965 94.2699C289.965 94.2718 290.024 94.2984 290.109 94.268Z" fill="#BFBFBF"/>
<path d="M290.782 95.5693C290.797 95.6117 290.83 95.6971 290.845 95.7395C290.877 95.8249 290.866 95.9261 290.896 96.0111C290.911 96.0535 290.885 96.1123 290.842 96.1275L290.499 95.7206C290.584 95.6914 290.654 95.6167 290.782 95.5693Z" fill="#BFBFBF"/>
<path d="M290.505 96.399C290.462 96.4142 290.377 96.4465 290.335 96.4616C290.249 96.4927 290.106 96.4977 290.004 96.4863L289.962 96.5015C289.962 96.5015 289.962 96.5015 289.988 96.4427C290.015 96.3839 290.042 96.3262 290.096 96.2098C290.155 96.2364 290.213 96.2637 290.287 96.3338C290.346 96.3604 290.447 96.3718 290.505 96.399Z" fill="#BFBFBF"/>
<path d="M289.256 94.5827L289.6 94.9896C289.531 95.0635 289.418 95.1534 289.29 95.2008C289.275 95.1584 289.243 95.073 289.228 95.0306C289.197 94.9445 289.207 94.844 289.177 94.7591C289.202 94.6991 289.229 94.6403 289.256 94.5827Z" fill="#BFBFBF"/>
<path d="M289.689 95.1003L289.942 95.3945L289.622 95.7071C289.532 95.5944 289.443 95.483 289.395 95.3551C289.491 95.2205 289.576 95.1901 289.689 95.1003Z" fill="#BFBFBF"/>
<path d="M290.466 95.1052C290.556 95.2178 290.645 95.3293 290.735 95.4419C290.622 95.5318 290.494 95.5792 290.425 95.6532L290.172 95.3589L290.466 95.1052Z" fill="#BFBFBF"/>
<path d="M291.107 95.4016C291.123 95.4441 291.123 95.4441 291.107 95.4016C291.111 95.5453 291.085 95.6041 291.074 95.7046C291.063 95.8059 291.036 95.8635 290.967 95.9375C290.967 95.9375 290.952 95.895 290.935 95.8521C290.919 95.8097 290.903 95.7661 290.887 95.7243C290.856 95.6383 290.84 95.5965 290.809 95.5105C290.979 95.4479 291.021 95.4327 291.107 95.4016Z" fill="#BFBFBF"/>
<path d="M289.047 94.8032C289.078 94.8893 289.051 94.9469 289.083 95.0323C289.115 95.1176 289.131 95.1601 289.162 95.2462C289.076 95.2784 288.991 95.3088 288.906 95.341C288.906 95.341 288.906 95.341 288.891 95.2986C288.876 95.2561 288.891 95.2986 288.891 95.2986C288.928 95.1373 289.009 94.9633 289.047 94.8032Z" fill="#BFBFBF"/>
<path d="M290.376 94.9921L290.055 95.3046L289.801 95.0103C289.914 94.9204 289.968 94.804 290.08 94.7141C290.153 94.7839 290.285 94.8802 290.376 94.9921Z" fill="#BFBFBF"/>
<path d="M289.905 94.6327C289.836 94.7067 289.781 94.8239 289.669 94.913L289.326 94.5061C289.368 94.4909 289.412 94.475 289.453 94.4587C289.555 94.4701 289.656 94.4814 289.714 94.5087C289.831 94.5637 289.888 94.591 289.905 94.6327Z" fill="#BFBFBF"/>
<path d="M296.049 126.438L299.157 114.896L275.854 108.622L272.747 120.164L296.049 126.438Z" fill="#92E3A9"/>
<path opacity="0.5" d="M275.892 108.594L272.804 120.139L296.13 126.45L299.218 114.905L275.892 108.594ZM295.424 125.308L273.923 119.472L276.559 109.712L298.083 115.508L295.424 125.308Z" fill="black"/>
<path opacity="0.5" d="M296.357 116.772L293.49 116.01C293.17 115.931 292.984 115.614 293.065 115.293C293.145 114.973 293.461 114.787 293.782 114.868L296.649 115.629C296.97 115.709 297.156 116.026 297.074 116.346C296.995 116.666 296.679 116.851 296.357 116.772Z" fill="black"/>
<path opacity="0.5" d="M278.176 120.191L275.309 119.43C274.989 119.35 274.803 119.034 274.884 118.713C274.964 118.392 275.281 118.207 275.601 118.288L278.468 119.049C278.789 119.129 278.975 119.445 278.894 119.766C278.852 120.11 278.497 120.273 278.176 120.191Z" fill="black"/>
<path d="M296.049 126.438L299.157 114.896L275.854 108.622L272.747 120.164L296.049 126.438Z" stroke="#263238" stroke-width="0.4" stroke-miterlimit="3.9999" stroke-linecap="round" stroke-linejoin="round"/>
<path d="M285.564 121.023C287.564 121.285 289.401 119.826 289.663 117.826C289.924 115.826 288.465 113.989 286.465 113.727C284.465 113.466 282.628 114.925 282.366 116.924C282.103 118.924 283.562 120.762 285.564 121.023Z" fill="#5E936D"/>
<path d="M287.408 119.097C287.357 119.278 287.186 119.389 286.984 119.378L285.711 119.221C286.021 119.137 286.299 118.931 286.497 118.678L287.043 118.73C287.262 118.804 287.397 118.934 287.408 119.097Z" fill="#92E3A9"/>
<path d="M288.084 117.652C288.033 117.832 287.862 117.944 287.66 117.933L286.973 117.852C287.002 117.711 287.047 117.631 287.053 117.531C287.058 117.429 287.042 117.367 287.049 117.265L287.697 117.324C287.921 117.296 288.096 117.448 288.084 117.652Z" fill="#92E3A9"/>
<path d="M288.626 116.074C288.575 116.254 288.404 116.366 288.202 116.355L286.967 116.22C286.861 115.949 286.67 115.734 286.417 115.536L288.237 115.745C288.276 115.767 288.338 115.75 288.377 115.774L288.417 115.796C288.457 115.818 288.495 115.841 288.512 115.903C288.615 115.91 288.632 115.973 288.626 116.074Z" fill="#92E3A9"/>
<path d="M284.416 117.373L284.363 117.919C284.161 117.907 283.997 117.918 283.833 117.929C283.806 117.703 283.795 117.539 283.807 117.337L284.416 117.373Z" fill="#92E3A9"/>
<path d="M286.376 117.61C286.318 117.892 286.222 118.151 285.983 118.381C285.865 118.313 285.708 118.223 285.59 118.154C285.664 117.934 285.715 117.755 285.749 117.512L286.376 117.61Z" fill="#92E3A9"/>
<path d="M286.439 117.228L285.853 117.152C285.865 116.95 285.876 116.746 285.85 116.52C286.014 116.509 286.138 116.476 286.285 116.403C286.414 116.636 286.458 116.923 286.439 117.228Z" fill="#92E3A9"/>
<path d="M284.384 118.246L284.279 118.973C284.24 118.951 284.161 118.905 284.145 118.842C284.05 118.735 284.015 118.611 283.982 118.487C283.966 118.425 283.933 118.301 283.916 118.239C284.018 118.245 284.18 118.234 284.384 118.246Z" fill="#92E3A9"/>
<path d="M286.06 116.065C285.937 116.098 285.813 116.131 285.687 116.165C285.693 116.063 285.638 115.979 285.604 115.855C285.587 115.793 285.57 115.731 285.514 115.646C285.514 115.646 285.474 115.624 285.498 115.584L285.481 115.522C285.599 115.59 285.678 115.635 285.796 115.704C285.836 115.726 285.853 115.789 285.931 115.835C285.971 115.857 285.988 115.92 286.026 115.942C286.044 116.003 286.084 116.026 286.06 116.065Z" fill="#92E3A9"/>
<path d="M285.127 118.413C285.082 118.491 285.036 118.57 284.991 118.649C284.923 118.768 284.815 118.863 284.731 118.919C284.669 118.936 284.645 118.976 284.584 118.992L284.688 118.265C284.806 118.332 284.987 118.384 285.127 118.413Z" fill="#92E3A9"/>
<path d="M283.818 118.864C283.74 118.819 283.661 118.773 283.622 118.751C283.503 118.684 283.408 118.575 283.312 118.468C283.312 118.468 283.272 118.446 283.295 118.406C283.295 118.406 283.319 118.366 283.357 118.389C283.481 118.356 283.543 118.34 283.667 118.305C283.661 118.407 283.717 118.491 283.751 118.615C283.729 118.655 283.762 118.779 283.818 118.864Z" fill="#92E3A9"/>
<path d="M284.716 115.394L284.611 116.121C284.471 116.092 284.291 116.041 284.149 116.012C284.194 115.934 284.24 115.855 284.285 115.776C284.352 115.657 284.461 115.562 284.545 115.506C284.63 115.451 284.654 115.411 284.716 115.394Z" fill="#92E3A9"/>
<path d="M284.571 116.465L284.519 117.012L283.933 116.936C283.945 116.734 283.996 116.553 284.07 116.333C284.187 116.402 284.368 116.453 284.571 116.465Z" fill="#92E3A9"/>
<path d="M285.407 117.471C285.394 117.674 285.343 117.854 285.269 118.074C285.089 118.023 284.908 117.971 284.768 117.942L284.82 117.396L285.407 117.471Z" fill="#92E3A9"/>
<path d="M285.763 118.675L285.74 118.715C285.654 118.771 285.547 118.866 285.463 118.922C285.378 118.979 285.254 119.012 285.13 119.045C285.153 119.005 285.153 119.005 285.215 118.988C285.261 118.91 285.283 118.87 285.368 118.814C285.414 118.735 285.481 118.617 285.526 118.538C285.566 118.56 285.685 118.629 285.763 118.675Z" fill="#92E3A9"/>
<path d="M284.248 115.387C284.162 115.444 284.095 115.562 284.05 115.641C284.004 115.719 283.937 115.838 283.891 115.916C283.773 115.849 283.694 115.803 283.576 115.734C283.576 115.734 283.576 115.734 283.6 115.694C283.6 115.694 283.6 115.694 283.623 115.654C283.791 115.543 284 115.454 284.248 115.387Z" fill="#92E3A9"/>
<path d="M285.448 117.129L284.862 117.053L284.914 116.507C285.116 116.519 285.28 116.508 285.444 116.497C285.471 116.723 285.46 116.925 285.448 117.129Z" fill="#92E3A9"/>
<path d="M285.423 116.17C285.259 116.181 285.096 116.19 284.955 116.163L285.06 115.436C285.1 115.458 285.178 115.503 285.195 115.567C285.29 115.674 285.324 115.798 285.357 115.922C285.374 115.984 285.429 116.069 285.423 116.17Z" fill="#92E3A9"/>
<path d="M318.077 123.87C318.375 124.777 318.084 125.781 317.334 126.412C316.844 126.812 316.239 127.01 315.607 126.98C314.975 126.949 314.387 126.616 314 126.168C313.786 125.952 313.643 125.664 313.558 125.405C313.26 124.498 313.551 123.494 314.302 122.864C314.792 122.463 315.396 122.265 316.029 122.296C316.661 122.326 317.248 122.66 317.635 123.107C317.849 123.323 317.991 123.611 318.077 123.87Z" fill="#BFBFBF"/>
<path d="M317.99 123.899C317.904 123.64 317.777 123.394 317.548 123.135C316.761 122.197 315.325 122.049 314.402 122.878C313.695 123.492 313.433 124.44 313.717 125.304C313.803 125.563 313.931 125.809 314.159 126.067C314.946 127.006 316.383 127.155 317.306 126.325C318.026 125.753 318.274 124.763 317.99 123.899ZM318.207 123.828L317.99 123.899L318.207 123.828C318.519 124.777 318.241 125.826 317.463 126.512C316.973 126.913 316.325 127.126 315.65 127.11C315.003 127.035 314.386 126.76 313.972 126.227C313.742 125.967 313.614 125.723 313.516 125.42C313.203 124.471 313.481 123.422 314.259 122.736C314.749 122.335 315.397 122.122 316.073 122.139C316.72 122.213 317.336 122.488 317.751 123.021C317.978 123.281 318.107 123.526 318.207 123.828Z" fill="#263238"/>
<path d="M317.26 123.42C316.616 122.627 315.452 122.579 314.703 123.209C313.909 123.853 313.861 125.017 314.491 125.766C315.135 126.559 316.299 126.607 317.048 125.977C317.798 125.349 317.902 124.214 317.26 123.42Z" fill="#7C7C7C"/>
<path d="M315.85 123.502C315.966 123.416 316.081 123.474 316.152 123.545L316.639 124.151C316.466 124.065 316.265 124.035 316.079 124.049L315.849 123.789C315.764 123.674 315.779 123.573 315.85 123.502Z" fill="#BFBFBF"/>
<path d="M315.132 123.787C315.247 123.701 315.362 123.759 315.433 123.83L315.676 124.133C315.589 124.161 315.561 124.219 315.476 124.248C315.433 124.261 315.404 124.319 315.375 124.376L315.131 124.073C315.059 124.002 315.059 123.859 315.132 123.787Z" fill="#BFBFBF"/>
<path d="M314.426 124.114C314.542 124.028 314.656 124.086 314.728 124.158L315.2 124.72C315.156 124.877 315.126 125.079 315.14 125.266L314.425 124.401C314.411 124.358 314.411 124.358 314.397 124.314C314.383 124.271 314.383 124.271 314.367 124.228C314.397 124.171 314.382 124.129 314.426 124.114Z" fill="#BFBFBF"/>
<path d="M316.333 125.114L316.593 124.884C316.665 124.956 316.737 125.028 316.807 125.1C316.749 125.215 316.634 125.301 316.562 125.372L316.333 125.114Z" fill="#BFBFBF"/>
<path d="M315.761 124.392C315.92 124.293 316.092 124.236 316.221 124.193C316.25 124.28 316.278 124.365 316.307 124.452C316.178 124.495 316.062 124.581 315.991 124.652L315.761 124.392Z" fill="#BFBFBF"/>
<path d="M315.645 124.479L315.889 124.782C315.773 124.868 315.715 124.982 315.599 125.068C315.528 124.996 315.427 124.981 315.37 124.952C315.443 124.737 315.545 124.608 315.645 124.479Z" fill="#BFBFBF"/>
<path d="M316.679 124.856L317.01 124.555C317.024 124.598 317.038 124.642 317.038 124.642C317.023 124.743 316.994 124.8 316.966 124.858C316.937 124.915 316.908 124.972 316.865 124.986C316.822 125.001 316.751 124.929 316.679 124.856Z" fill="#BFBFBF"/>
<path d="M315.355 125.053C315.413 125.081 315.47 125.111 315.542 125.183C315.513 125.241 315.484 125.298 315.456 125.356C315.427 125.413 315.427 125.413 315.398 125.47C315.398 125.47 315.398 125.47 315.411 125.513C315.382 125.427 315.368 125.384 315.34 125.297C315.327 125.254 315.327 125.254 315.355 125.196C315.385 125.139 315.37 125.095 315.355 125.053Z" fill="#BFBFBF"/>
<path d="M316.465 124.496C316.508 124.483 316.552 124.468 316.637 124.44C316.724 124.412 316.809 124.383 316.867 124.412C316.91 124.398 316.925 124.44 316.982 124.47L316.65 124.771C316.579 124.697 316.507 124.626 316.465 124.496Z" fill="#BFBFBF"/>
<path d="M317.124 124.758C317.138 124.801 317.152 124.845 317.167 124.887C317.195 124.974 317.181 125.074 317.166 125.174L317.179 125.217C317.179 125.217 317.179 125.217 317.136 125.23C317.079 125.202 317.022 125.173 316.964 125.144C316.993 125.086 317.022 125.03 317.051 124.972C317.124 124.901 317.11 124.858 317.124 124.758Z" fill="#BFBFBF"/>
<path d="M315.597 125.786L315.929 125.485C316 125.556 316.028 125.643 316.1 125.715C316.057 125.729 316.013 125.744 315.928 125.771C315.842 125.799 315.798 125.814 315.697 125.799C315.698 125.801 315.64 125.772 315.597 125.786Z" fill="#BFBFBF"/>
<path d="M316.044 125.4L316.304 125.171L316.547 125.474C316.432 125.559 316.36 125.631 316.231 125.674C316.159 125.601 316.073 125.485 316.044 125.4Z" fill="#BFBFBF"/>
<path d="M316.032 124.782C316.148 124.696 316.22 124.625 316.349 124.582C316.377 124.669 316.463 124.783 316.534 124.856L316.274 125.086L316.032 124.782Z" fill="#BFBFBF"/>
<path d="M316.322 124.208C316.423 124.223 316.524 124.238 316.566 124.223C316.624 124.252 316.723 124.267 316.781 124.296L316.738 124.31C316.695 124.323 316.651 124.338 316.609 124.352C316.567 124.367 316.48 124.395 316.437 124.409C316.365 124.338 316.351 124.295 316.322 124.208Z" fill="#BFBFBF"/>
<path d="M315.784 125.916C315.827 125.902 315.928 125.917 315.971 125.902C316.014 125.888 316.101 125.859 316.144 125.845C316.173 125.931 316.187 125.974 316.215 126.061C316.056 126.018 315.899 125.974 315.784 125.916Z" fill="#BFBFBF"/>
<path d="M315.96 124.852L316.203 125.155L315.943 125.385C315.872 125.313 315.8 125.241 315.729 125.168C315.773 125.01 315.889 124.924 315.96 124.852Z" fill="#BFBFBF"/>
<path d="M315.642 125.196C315.714 125.268 315.786 125.341 315.856 125.413L315.525 125.714C315.511 125.671 315.496 125.627 315.496 125.627C315.511 125.526 315.541 125.469 315.569 125.412C315.584 125.311 315.613 125.254 315.642 125.196Z" fill="#BFBFBF"/>
<path d="M271.793 107.677C270.794 107.986 269.737 107.647 269.107 106.842C268.659 106.314 268.5 105.65 268.541 105.018C268.613 104.329 268.956 103.747 269.441 103.312C269.705 103.086 269.995 102.949 270.299 102.855C271.297 102.545 272.355 102.885 272.985 103.69C273.433 104.217 273.592 104.882 273.55 105.514C273.479 106.203 273.135 106.785 272.651 107.22C272.374 107.402 272.14 107.57 271.793 107.677Z" fill="#BFBFBF"/>
<path d="M271.752 107.547C272.056 107.452 272.303 107.328 272.567 107.105C273.592 106.264 273.739 104.742 272.898 103.717C272.268 102.912 271.238 102.66 270.326 102.943C270.023 103.037 269.775 103.162 269.512 103.385C268.487 104.226 268.34 105.748 269.181 106.773C269.853 107.563 270.84 107.83 271.752 107.547ZM271.819 107.764L271.752 107.547L271.819 107.764C271.341 107.913 270.824 107.931 270.295 107.761C269.78 107.635 269.342 107.294 268.976 106.884C268.528 106.357 268.313 105.662 268.385 104.973C268.457 104.285 268.787 103.66 269.358 103.196C269.622 102.971 269.913 102.834 270.26 102.727C270.738 102.578 271.256 102.56 271.784 102.73C272.299 102.856 272.737 103.197 273.103 103.607C273.551 104.134 273.766 104.829 273.694 105.518C273.623 106.206 273.292 106.832 272.721 107.295C272.458 107.519 272.167 107.657 271.819 107.764Z" fill="#263238"/>
<path d="M272.272 106.767C273.107 106.081 273.249 104.847 272.562 104.012C271.876 103.177 270.642 103.036 269.807 103.722C268.972 104.409 268.831 105.643 269.517 106.477C270.204 107.312 271.438 107.455 272.272 106.767Z" fill="#7C7C7C"/>
<path d="M272.276 105.243C272.36 105.36 272.3 105.473 272.227 105.544L271.583 106.077C271.673 105.906 271.706 105.705 271.683 105.476L271.947 105.251C272.062 105.166 272.206 105.17 272.276 105.243Z" fill="#BFBFBF"/>
<path d="M271.948 104.488C272.031 104.605 271.972 104.719 271.899 104.789L271.562 105.085C271.534 104.998 271.478 104.967 271.451 104.882C271.438 104.838 271.381 104.809 271.324 104.778L271.675 104.528C271.734 104.412 271.877 104.415 271.948 104.488Z" fill="#BFBFBF"/>
<path d="M271.619 103.733C271.703 103.85 271.643 103.964 271.57 104.034L270.97 104.553C270.799 104.463 270.612 104.472 270.424 104.483L271.332 103.727C271.375 103.714 271.375 103.714 271.42 103.7C271.463 103.687 271.463 103.687 271.507 103.674C271.562 103.703 271.605 103.689 271.619 103.733Z" fill="#BFBFBF"/>
<path d="M270.496 105.794L270.721 106.058C270.648 106.129 270.531 106.212 270.471 106.326C270.358 106.266 270.274 106.149 270.19 106.032L270.496 105.794Z" fill="#BFBFBF"/>
<path d="M271.286 105.121C271.383 105.282 271.481 105.441 271.491 105.63C271.404 105.657 271.317 105.683 271.23 105.711C271.19 105.581 271.106 105.463 271.023 105.347L271.286 105.121Z" fill="#BFBFBF"/>
<path d="M271.217 105.047L270.91 105.285C270.826 105.168 270.699 105.065 270.628 104.991C270.701 104.92 270.718 104.82 270.792 104.749C270.948 104.798 271.076 104.9 271.217 105.047Z" fill="#BFBFBF"/>
<path d="M270.79 106.131L271.098 106.511C271.055 106.524 271.01 106.538 270.968 106.552C270.867 106.535 270.811 106.505 270.71 106.488C270.653 106.459 270.597 106.429 270.54 106.399C270.644 106.272 270.717 106.202 270.79 106.131Z" fill="#BFBFBF"/>
<path d="M270.635 104.703C270.605 104.761 270.588 104.86 270.515 104.93C270.458 104.901 270.401 104.871 270.344 104.841C270.287 104.811 270.244 104.824 270.231 104.781C270.231 104.781 270.231 104.781 270.187 104.794L270.144 104.807C270.232 104.78 270.274 104.766 270.362 104.74C270.405 104.727 270.45 104.713 270.463 104.756C270.534 104.687 270.547 104.73 270.635 104.703Z" fill="#BFBFBF"/>
<path d="M271.141 105.879C271.154 105.922 271.182 106.009 271.195 106.052C271.222 106.14 271.206 106.24 271.219 106.283C271.232 106.326 271.202 106.384 271.159 106.397L270.851 106.017C270.98 105.978 271.067 105.95 271.141 105.879Z" fill="#BFBFBF"/>
<path d="M270.895 106.622C270.852 106.635 270.807 106.649 270.721 106.676C270.634 106.703 270.534 106.687 270.435 106.669L270.391 106.682C270.391 106.682 270.391 106.682 270.378 106.639C270.408 106.582 270.438 106.526 270.468 106.468C270.525 106.498 270.581 106.528 270.639 106.558C270.737 106.576 270.794 106.605 270.895 106.622Z" fill="#BFBFBF"/>
<path d="M269.852 104.945L270.161 105.325C270.088 105.395 270 105.422 269.883 105.506C269.87 105.463 269.842 105.376 269.829 105.332C269.801 105.246 269.818 105.145 269.805 105.102C269.823 105.002 269.823 105.002 269.852 104.945Z" fill="#BFBFBF"/>
<path d="M270.23 105.401L270.455 105.665L270.148 105.903C270.064 105.786 269.994 105.713 269.953 105.583C270.04 105.555 270.114 105.484 270.23 105.401Z" fill="#BFBFBF"/>
<path d="M270.906 105.429C270.99 105.546 271.06 105.619 271.101 105.749C270.97 105.789 270.898 105.86 270.823 105.93L270.598 105.665L270.906 105.429Z" fill="#BFBFBF"/>
<path d="M271.488 105.772C271.471 105.872 271.455 105.973 271.424 106.029C271.394 106.085 271.378 106.186 271.348 106.243L271.335 106.2C271.322 106.157 271.308 106.112 271.294 106.07C271.28 106.027 271.254 105.94 271.241 105.896C271.358 105.813 271.401 105.8 271.488 105.772Z" fill="#BFBFBF"/>
<path d="M269.676 105.144C269.689 105.187 269.672 105.288 269.687 105.332C269.7 105.375 269.728 105.462 269.741 105.505C269.653 105.532 269.61 105.546 269.523 105.572C269.569 105.414 269.616 105.258 269.676 105.144Z" fill="#BFBFBF"/>
<path d="M270.836 105.357L270.528 105.595L270.303 105.33C270.376 105.26 270.493 105.176 270.553 105.063C270.638 105.179 270.752 105.239 270.836 105.357Z" fill="#BFBFBF"/>
<path d="M270.441 105.002C270.368 105.072 270.294 105.143 270.22 105.213L269.912 104.832C269.955 104.819 270 104.806 270.042 104.792C270.143 104.808 270.199 104.839 270.3 104.855C270.327 104.942 270.383 104.973 270.441 105.002Z" fill="#BFBFBF"/>
<path d="M320.616 233.738C326.158 234.563 335.838 230.666 341.027 225.878C341.296 225.63 341.312 225.21 341.064 224.943C340.817 224.673 340.397 224.658 340.13 224.906C334.017 230.548 322.242 234.287 318.767 231.678C317.064 230.399 317.92 227.694 318.94 225.649C325.042 213.406 350.157 213.379 350.41 213.38C350.775 213.381 351.073 213.087 351.075 212.721C351.076 212.356 350.786 212.056 350.416 212.056C349.349 212.05 324.22 212.086 317.756 225.059C315.503 229.579 316.63 231.729 317.972 232.735C318.665 233.257 319.568 233.581 320.616 233.738Z" fill="url(#paint8_radial)"/>
<path fill-rule="evenodd" clip-rule="evenodd" d="M382.362 212.366L367.622 210.575L327.515 211.358L335.775 213.372L382.362 212.366Z" fill="url(#paint9_linear)"/>
<path fill-rule="evenodd" clip-rule="evenodd" d="M388.876 278.879L382.362 212.366L335.775 213.372L337.034 282.938L388.876 278.879Z" fill="#E6515B"/>
<path fill-rule="evenodd" clip-rule="evenodd" d="M337.034 282.938L326.074 277.483L327.515 211.358L338.298 211.725L335.775 213.372L337.034 282.938Z" fill="#E6515B"/>
<path opacity="0.5" fill-rule="evenodd" clip-rule="evenodd" d="M326.074 277.483L334.573 272.31L337.034 282.938L326.074 277.483Z" fill="#811734"/>
<path opacity="0.5" fill-rule="evenodd" clip-rule="evenodd" d="M334.573 272.31L334.327 211.59L338.298 211.725L335.775 213.372L337.034 282.938L334.573 272.31Z" fill="#811734"/>
<path opacity="0.5" d="M368.717 221.689C369.72 221.636 370.469 220.361 370.388 218.842C370.308 217.323 369.429 216.135 368.426 216.188C367.422 216.241 366.674 217.516 366.754 219.035C366.834 220.553 367.713 221.742 368.717 221.689Z" fill="#811734"/>
<path opacity="0.5" fill-rule="evenodd" clip-rule="evenodd" d="M349.214 220.353C349.294 221.872 350.173 223.06 351.177 223.008C352.18 222.956 352.929 221.681 352.848 220.162C352.768 218.642 351.888 217.454 350.885 217.507C349.881 217.56 349.134 218.833 349.214 220.353Z" fill="#811734"/>
<path d="M367.735 219.334C369.378 218.605 370.665 217.617 371.949 216.547C373.217 215.481 374.373 214.297 375.448 213.05C376.525 211.801 377.484 210.466 378.401 209.106C379.273 207.733 380.168 206.323 380.818 204.765C381.528 203.239 381.891 201.551 382.055 199.846C382.208 198.134 381.939 196.346 381.226 194.719C380.515 193.098 379.313 191.626 377.721 190.709C376.141 189.782 374.23 189.438 372.437 189.695C370.588 189.87 368.859 190.972 367.691 192.276C366.503 193.6 365.661 195.092 364.937 196.584C363.516 199.586 362.436 202.628 361.187 205.57C359.939 208.505 358.499 211.344 356.59 213.827C354.721 216.339 352.288 218.386 349.496 219.804L349.488 219.808C349.162 219.973 349.032 220.371 349.198 220.697C349.359 221.015 349.744 221.146 350.066 220.997C353.093 219.592 355.804 217.458 357.885 214.847C359.976 212.238 361.533 209.284 362.868 206.304C364.218 203.328 365.29 200.259 366.668 197.429C367.358 196.021 368.146 194.682 369.129 193.603C369.63 193.082 370.161 192.601 370.771 192.287C371.059 192.093 371.392 192.007 371.702 191.866C372.04 191.801 372.35 191.667 372.712 191.656C374.112 191.438 375.554 191.683 376.775 192.374C377.997 193.056 379.006 194.144 379.634 195.454C380.261 196.76 380.581 198.259 380.502 199.772C380.53 200.15 380.443 200.526 380.409 200.904C380.365 201.283 380.328 201.663 380.213 202.032L379.93 203.149C379.805 203.514 379.659 203.873 379.524 204.237C379.287 204.977 378.869 205.646 378.535 206.351C378.162 207.042 377.718 207.715 377.304 208.391C376.421 209.715 375.499 211.013 374.47 212.22C373.441 213.426 372.338 214.568 371.137 215.589C369.951 216.591 368.595 217.531 367.27 218.097L367.206 218.125C366.87 218.268 366.715 218.656 366.858 218.992C367.001 219.328 367.389 219.483 367.725 219.34C367.728 219.337 367.734 219.334 367.735 219.334Z" fill="url(#paint10_linear)"/>
<path opacity="0.5" d="M380.815 259.655L380.702 235.979L341.188 235.455L343.849 261.366L380.815 259.655Z" fill="#811734"/>
<path d="M325.312 276.193C325.312 279.918 322.292 282.936 318.569 282.936H268.667C264.943 282.936 261.924 279.916 261.924 276.193V153.154C261.924 149.43 264.943 146.411 268.667 146.411H318.569C322.292 146.411 325.312 149.431 325.312 153.154V276.193Z" fill="#45215B"/>
<path d="M320.896 276.193C320.896 279.918 317.878 282.936 314.153 282.936H264.252C260.527 282.936 257.509 279.916 257.509 276.193V153.154C257.509 149.43 260.529 146.411 264.252 146.411H314.153C317.878 146.411 320.896 149.431 320.896 153.154V276.193Z" fill="#F1F1F2"/>
<path d="M295.826 153.151C295.826 154.184 294.991 155.019 293.959 155.019H284.446C283.414 155.019 282.579 154.184 282.579 153.151C282.579 152.119 283.414 151.282 284.446 151.282H293.959C294.991 151.282 295.826 152.12 295.826 153.151Z" fill="#A598C4"/>
<path d="M318.856 157.737H259.745V266.788H318.856V157.737Z" fill="#A598C4"/>
<path d="M261.924 265.259V157.737H259.745V266.788H318.858V265.259H261.924Z" fill="#82799A"/>
<path d="M296.517 277.571C296.517 278.932 295.413 280.036 294.051 280.036H284.351C282.99 280.036 281.885 278.932 281.885 277.571V271.899C281.885 270.537 282.989 269.434 284.351 269.434H294.051C295.413 269.434 296.517 270.537 296.517 271.899V277.571Z" fill="#A598C4"/>
<path d="M259.745 251.722V235.867L318.858 165.143V180.997L259.745 251.722Z" fill="white"/>
<path d="M259.745 262.583V256.922L318.858 186.197V191.86L259.745 262.583Z" fill="white"/>
<path d="M264.789 174.09C264.789 178.962 261.204 182.911 256.783 182.911C252.361 182.911 248.778 178.962 248.778 174.09H264.789Z" fill="#291346"/>
<path d="M280.802 174.09C280.802 178.962 277.217 182.911 272.795 182.911C268.374 182.911 264.789 178.962 264.789 174.09H280.802Z" fill="#CCCECF"/>
<path d="M296.813 174.09C296.813 178.962 293.229 182.911 288.807 182.911C284.384 182.911 280.8 178.962 280.8 174.09H296.813Z" fill="#38245A"/>
<path d="M312.826 174.09C312.826 178.962 309.241 182.911 304.82 182.911C300.397 182.911 296.813 178.962 296.813 174.09H312.826Z" fill="#CCCECF"/>
<path d="M328.837 174.09C328.837 178.962 325.254 182.911 320.831 182.911C316.41 182.911 312.825 178.962 312.825 174.09H328.837Z" fill="#291346"/>
<path d="M315.113 157.737H264.217L248.778 174.09H328.837L315.113 157.737Z" fill="#38245A"/>
<path d="M304.934 157.737H274.397L264.789 174.09H312.826L304.934 157.737Z" fill="white"/>
<path d="M294.754 157.737H284.576L280.802 174.09H296.813L294.754 157.737Z" fill="#38245A"/>
<path d="M312.967 194.993H265.791V246.853H312.967V194.993Z" fill="white"/>
<path d="M281.413 199.683H268.136V212.959H281.413V199.683ZM278.758 210.303H270.792V202.338H278.758V210.303Z" fill="black"/>
<path d="M276.103 204.993H273.448V207.648H276.103V204.993Z" fill="black"/>
<path d="M297.344 199.683V212.959H310.621V199.683H297.344ZM307.965 210.303H300V202.338H307.965V210.303Z" fill="black"/>
<path d="M305.31 204.993H302.655V207.648H305.31V204.993Z" fill="black"/>
<path d="M268.136 242.165H281.413V228.889H268.136V242.165ZM270.791 231.545H278.756V239.51H270.791V231.545Z" fill="black"/>
<path d="M276.103 234.2H273.448V236.855H276.103V234.2Z" fill="black"/>
<path d="M294.688 199.683H289.378V202.338H294.688V199.683Z" fill="black"/>
<path d="M289.378 210.303H292.033V207.648H294.688V204.993H286.723V202.338H284.068V204.993V206.32V207.648H289.378V210.303Z" fill="black"/>
<path d="M286.723 210.303H284.068V212.958H286.723V210.303Z" fill="black"/>
<path d="M294.688 212.958H292.033V215.613H284.068V218.268H294.688V212.958Z" fill="black"/>
<path d="M270.791 223.58H273.448V220.923H270.791V215.613H268.136V226.235H270.791V223.58Z" fill="black"/>
<path d="M276.103 215.613H273.448V218.268H276.103V215.613Z" fill="black"/>
<path d="M284.068 226.235H289.378V223.58H286.723V220.923H281.413V215.613H278.758V220.923H276.103V226.235H278.758V223.58H280.084H281.413H284.068V226.235Z" fill="black"/>
<path d="M294.688 220.924H292.033V226.234H294.688V220.924Z" fill="black"/>
<path d="M292.033 228.89H284.068V231.545H289.378V239.51H284.068V242.165H292.033V239.51H297.345V236.855H292.033V228.89Z" fill="black"/>
<path d="M286.723 234.2H284.068V236.855H286.723V234.2Z" fill="black"/>
<path d="M297.343 228.89H294.688V234.2H297.343V228.89Z" fill="black"/>
<path d="M307.965 234.2H300V242.165H302.655V236.855H307.965V234.2Z" fill="black"/>
<path d="M310.62 239.511H305.31V242.166H310.62V239.511Z" fill="black"/>
<path d="M310.62 228.89H307.965V231.545H310.62V228.89Z" fill="black"/>
<path d="M300 231.545H302.655V223.58H297.344V226.235H300V231.545Z" fill="black"/>
<path d="M305.31 218.268H302.655V215.613H300V218.268H297.344V220.923H307.965V218.268H310.62V215.613H305.31V218.268Z" fill="black"/>
<path d="M310.62 223.58H305.31V226.235H310.62V223.58Z" fill="black"/>
<path d="M365.584 146.801C365.612 146.872 366.002 146.767 366.429 146.937C366.858 147.099 367.085 147.443 367.153 147.409C367.184 147.395 367.171 147.281 367.073 147.128C366.977 146.977 366.785 146.789 366.518 146.686C366.251 146.583 365.988 146.593 365.82 146.644C365.65 146.692 365.568 146.767 365.584 146.801Z" fill="#1A2E35"/>
<path d="M369.826 147.917C369.875 147.976 370.214 147.759 370.672 147.792C371.13 147.818 371.451 148.077 371.505 148.023C371.531 148 371.484 147.896 371.344 147.779C371.206 147.664 370.968 147.543 370.682 147.525C370.395 147.507 370.149 147.596 370.003 147.694C369.856 147.793 369.801 147.89 369.826 147.917Z" fill="#1A2E35"/>
<path d="M367.922 149.798C367.93 149.774 367.663 149.661 367.226 149.497C367.114 149.458 367.011 149.41 367.011 149.328C367.004 149.238 367.08 149.127 367.166 149.007C367.338 148.755 367.519 148.492 367.709 148.216C368.469 147.087 369.048 146.148 369.003 146.118C368.957 146.088 368.303 146.978 367.544 148.107C367.359 148.386 367.183 148.652 367.015 148.907C366.941 149.026 366.832 149.156 366.85 149.341C366.861 149.434 366.93 149.516 366.999 149.552C367.066 149.592 367.131 149.608 367.186 149.625C367.633 149.756 367.914 149.823 367.922 149.798Z" fill="#1A2E35"/>
<path d="M369.137 151.082C369.047 150.874 368.852 150.719 368.642 150.645C368.338 150.537 367.992 150.594 367.757 150.789C367.6 150.95 367.659 151.234 367.678 151.301C367.837 151.503 367.852 151.674 368.073 151.798C368.296 151.922 368.858 151.845 369.038 151.686C369.197 151.547 369.227 151.29 369.137 151.082Z" fill="#FF9A6C"/>
<path d="M369.166 150.418C369.095 150.396 368.979 150.882 368.482 151.129C367.987 151.378 367.482 151.202 367.461 151.268C367.447 151.297 367.554 151.389 367.771 151.447C367.984 151.505 368.313 151.509 368.617 151.358C368.92 151.206 369.096 150.949 369.159 150.754C369.225 150.555 369.199 150.422 369.166 150.418Z" fill="#1A2E35"/>
<path d="M370.748 145.549C370.723 145.677 371.135 145.574 371.512 145.849C371.896 146.115 372.116 146.667 372.222 146.597C372.272 146.562 372.269 146.427 372.193 146.25C372.117 146.072 371.962 145.859 371.733 145.696C371.505 145.534 371.256 145.461 371.07 145.451C370.883 145.442 370.762 145.489 370.748 145.549Z" fill="#1A2E35"/>
<path d="M365.858 145.077C365.958 145.172 366.246 144.795 366.668 144.75C367.091 144.691 367.513 144.98 367.585 144.864C367.617 144.808 367.549 144.708 367.383 144.626C367.219 144.543 366.952 144.487 366.661 144.523C366.371 144.558 366.127 144.677 365.99 144.798C365.852 144.919 365.812 145.031 365.858 145.077Z" fill="#1A2E35"/>
<defs>
<radialGradient id="paint0_radial" cx="0" cy="0" r="1" gradientUnits="userSpaceOnUse" gradientTransform="translate(155.839 264.466) rotate(-1.67439) scale(94.8011 85.2339)">
<stop stop-color="#7C65E0"/>
<stop offset="0.9944" stop-color="#954CB8"/>
</radialGradient>
<linearGradient id="paint1_linear" x1="22.2537" y1="277.644" x2="289.965" y2="269.823" gradientUnits="userSpaceOnUse">
<stop stop-color="#603082"/>
<stop offset="0.9944" stop-color="#2A0E51"/>
</linearGradient>
<radialGradient id="paint2_radial" cx="0" cy="0" r="1" gradientUnits="userSpaceOnUse" gradientTransform="translate(71.1643 159.469) scale(14.8806)">
<stop stop-color="#EBD7E3"/>
<stop offset="0.9829" stop-color="#BDAFD2"/>
</radialGradient>
<radialGradient id="paint3_radial" cx="0" cy="0" r="1" gradientUnits="userSpaceOnUse" gradientTransform="translate(235.33 159.469) rotate(180) scale(14.8806)">
<stop stop-color="#EBD7E3"/>
<stop offset="0.9829" stop-color="#BDAFD2"/>
</radialGradient>
<linearGradient id="paint4_linear" x1="196.461" y1="261.315" x2="196.461" y2="191.722" gradientUnits="userSpaceOnUse">
<stop stop-color="#6D47D3"/>
<stop offset="0.9944" stop-color="#713592"/>
</linearGradient>
<radialGradient id="paint5_radial" cx="0" cy="0" r="1" gradientUnits="userSpaceOnUse" gradientTransform="translate(118.828 215.668) scale(16.5614)">
<stop stop-color="#7C65E0"/>
<stop offset="0.9944" stop-color="#954CB8"/>
</radialGradient>
<radialGradient id="paint6_radial" cx="0" cy="0" r="1" gradientUnits="userSpaceOnUse" gradientTransform="translate(118.052 203.716) scale(15.1912)">
<stop stop-color="#7C65E0"/>
<stop offset="0.9944" stop-color="#954CB8"/>
</radialGradient>
<linearGradient id="paint7_linear" x1="181.689" y1="108.359" x2="260.344" y2="108.359" gradientUnits="userSpaceOnUse">
<stop stop-color="#C73E27"/>
<stop offset="0.998" stop-color="#A4152C"/>
</linearGradient>
<radialGradient id="paint8_radial" cx="0" cy="0" r="1" gradientUnits="userSpaceOnUse" gradientTransform="translate(333.645 222.756) rotate(-175.313) scale(14.4788)">
<stop stop-color="#EBD7E3"/>
<stop offset="0.9829" stop-color="#BDAFD2"/>
</radialGradient>
<linearGradient id="paint9_linear" x1="354.702" y1="214.928" x2="355.142" y2="209.555" gradientUnits="userSpaceOnUse">
<stop stop-color="#C73E27"/>
<stop offset="0.998" stop-color="#A4152C"/>
</linearGradient>
<linearGradient id="paint10_linear" x1="363.692" y1="223.13" x2="368.794" y2="188.804" gradientUnits="userSpaceOnUse">
<stop offset="0.0171" stop-color="#BD8BD2"/>
<stop offset="1" stop-color="#EBD7E3"/>
</linearGradient>
</defs>
</svg>
