<svg width="633" height="349" viewBox="0 0 633 349" fill="none" xmlns="http://www.w3.org/2000/svg">
<g clip-path="url(#clip0)">
<path d="M535.844 128.069C438.157 146.606 495.434 -58.3983 362.355 28.619C309.432 63.2248 233.225 21.3468 160.249 44.2366C93.2274 65.257 109.738 134.231 116.222 156.8C129.32 202.386 64.082 184.205 26.2642 203.792C-33.0529 234.515 18.9792 358.377 75.0173 358.894C131.055 359.411 542.751 357.865 542.751 357.865C542.751 357.865 567.206 340.467 580.192 304.607C606.813 231.093 621.865 111.744 535.844 128.069Z" fill="url(#paint0_linear)"/>
<path d="M111.548 290.797H86.8877V341.62H111.548V290.797Z" fill="#DCEAF9"/>
<path opacity="0.17" d="M478.524 341.582V147.856H449.72V125.644H442.979V87.454H406.83V125.644H373.034V73.2954L335.741 59.1789V103.81H327.236V44.3741L289.942 56.7342V146.01H242.777V198.74H225.155V212.024H184.675V189.149H161.434V126.99H132.726V241.736H104.017V341.582H478.524Z" fill="#6653A2"/>
<path opacity="0.17" d="M321.158 61.6853H296.001V70.8987H321.158V61.6853Z" fill="#6653A2"/>
<path opacity="0.17" d="M321.158 78.9943H296.001V88.2078H321.158V78.9943Z" fill="#6653A2"/>
<path opacity="0.17" d="M321.158 94.566H296.001V103.779H321.158V94.566Z" fill="#6653A2"/>
<path opacity="0.17" d="M161.698 169.299H132.738V183.521H161.698V169.299Z" fill="#6653A2"/>
<path opacity="0.17" d="M161.698 212.955H132.738V227.176H161.698V212.955Z" fill="#6653A2"/>
<path opacity="0.17" d="M161.698 234.438H132.738V248.66H161.698V234.438Z" fill="#6653A2"/>
<path opacity="0.17" d="M161.698 256.915H132.738V271.137H161.698V256.915Z" fill="#6653A2"/>
<path opacity="0.17" d="M161.698 278.927H132.738V293.148H161.698V278.927Z" fill="#6653A2"/>
<path opacity="0.17" d="M161.698 301.406H132.738V315.627H161.698V301.406Z" fill="#6653A2"/>
<path opacity="0.17" d="M367.597 94.5661H341.136V103.78H367.597V94.5661Z" fill="#6653A2"/>
<path opacity="0.17" d="M367.597 79.1343H341.136V88.3477H367.597V79.1343Z" fill="#6653A2"/>
<path opacity="0.17" d="M367.597 109.666H295.361V118.88H367.597V109.666Z" fill="#6653A2"/>
<path opacity="0.17" d="M367.597 123.52H295.361V132.733H367.597V123.52Z" fill="#6653A2"/>
<path opacity="0.17" d="M367.597 137.28H295.361V146.14H367.597V137.28Z" fill="#6653A2"/>
<path opacity="0.17" d="M161.698 191.471H132.738V205.693H161.698V191.471Z" fill="#6653A2"/>
<path opacity="0.17" d="M256.806 155.081H250.485V163.993H256.806V155.081Z" fill="#6653A2"/>
<path opacity="0.17" d="M268.628 155.081H262.307V163.993H268.628V155.081Z" fill="#6653A2"/>
<path opacity="0.17" d="M280.186 155.081H273.864V163.993H280.186V155.081Z" fill="#6653A2"/>
<path opacity="0.17" d="M291.145 155.081H284.824V163.993H291.145V155.081Z" fill="#6653A2"/>
<path opacity="0.17" d="M302.313 155.081H295.992V163.993H302.313V155.081Z" fill="#6653A2"/>
<path opacity="0.17" d="M313.61 155.081H307.289V163.993H313.61V155.081Z" fill="#6653A2"/>
<path opacity="0.17" d="M325.434 155.081H319.113V163.993H325.434V155.081Z" fill="#6653A2"/>
<path opacity="0.17" d="M336.991 155.081H330.67V163.993H336.991V155.081Z" fill="#6653A2"/>
<path opacity="0.17" d="M347.951 155.081H341.629V163.993H347.951V155.081Z" fill="#6653A2"/>
<path opacity="0.17" d="M359.119 155.081H352.797V163.993H359.119V155.081Z" fill="#6653A2"/>
<path opacity="0.17" d="M370.757 155.081H364.436V163.993H370.757V155.081Z" fill="#6653A2"/>
<path opacity="0.17" d="M382.581 155.081H376.259V163.993H382.581V155.081Z" fill="#6653A2"/>
<path opacity="0.17" d="M394.138 155.081H387.817V163.993H394.138V155.081Z" fill="#6653A2"/>
<path opacity="0.17" d="M405.096 155.081H398.774V163.993H405.096V155.081Z" fill="#6653A2"/>
<path opacity="0.17" d="M416.268 155.081H409.944V163.993H416.268V155.081Z" fill="#6653A2"/>
<path opacity="0.17" d="M427.563 155.081H421.241V163.993H427.563V155.081Z" fill="#6653A2"/>
<path opacity="0.17" d="M439.384 155.081H433.063V163.993H439.384V155.081Z" fill="#6653A2"/>
<path opacity="0.17" d="M450.942 155.081H444.621V163.993H450.942V155.081Z" fill="#6653A2"/>
<path opacity="0.17" d="M461.901 155.081H455.58V163.993H461.901V155.081Z" fill="#6653A2"/>
<path opacity="0.17" d="M473.069 155.081H466.748V163.993H473.069V155.081Z" fill="#6653A2"/>
<path opacity="0.17" d="M256.806 170.808H250.485V179.721H256.806V170.808Z" fill="#6653A2"/>
<path opacity="0.17" d="M268.628 170.808H262.307V179.721H268.628V170.808Z" fill="#6653A2"/>
<path opacity="0.17" d="M280.186 170.808H273.864V179.721H280.186V170.808Z" fill="#6653A2"/>
<path opacity="0.17" d="M291.145 170.808H284.824V179.721H291.145V170.808Z" fill="#6653A2"/>
<path opacity="0.17" d="M302.313 170.808H295.992V179.721H302.313V170.808Z" fill="#6653A2"/>
<path opacity="0.17" d="M313.61 170.808H307.289V179.721H313.61V170.808Z" fill="#6653A2"/>
<path opacity="0.17" d="M325.434 170.808H319.113V179.721H325.434V170.808Z" fill="#6653A2"/>
<path opacity="0.17" d="M336.991 170.808H330.67V179.721H336.991V170.808Z" fill="#6653A2"/>
<path opacity="0.17" d="M347.951 170.808H341.629V179.721H347.951V170.808Z" fill="#6653A2"/>
<path opacity="0.17" d="M359.119 170.808H352.797V179.721H359.119V170.808Z" fill="#6653A2"/>
<path opacity="0.17" d="M370.757 170.808H364.436V179.721H370.757V170.808Z" fill="#6653A2"/>
<path opacity="0.17" d="M382.581 170.808H376.259V179.721H382.581V170.808Z" fill="#6653A2"/>
<path opacity="0.17" d="M394.138 170.808H387.817V179.721H394.138V170.808Z" fill="#6653A2"/>
<path opacity="0.17" d="M405.096 170.808H398.774V179.721H405.096V170.808Z" fill="#6653A2"/>
<path opacity="0.17" d="M416.268 170.808H409.944V179.721H416.268V170.808Z" fill="#6653A2"/>
<path opacity="0.17" d="M427.563 170.808H421.241V179.721H427.563V170.808Z" fill="#6653A2"/>
<path opacity="0.17" d="M439.384 170.808H433.063V179.721H439.384V170.808Z" fill="#6653A2"/>
<path opacity="0.17" d="M450.942 170.808H444.621V179.721H450.942V170.808Z" fill="#6653A2"/>
<path opacity="0.17" d="M461.901 170.808H455.58V179.721H461.901V170.808Z" fill="#6653A2"/>
<path opacity="0.17" d="M473.069 170.808H466.748V179.721H473.069V170.808Z" fill="#6653A2"/>
<path opacity="0.17" d="M256.806 186.293H250.485V195.206H256.806V186.293Z" fill="#6653A2"/>
<path opacity="0.17" d="M268.628 186.293H262.307V195.206H268.628V186.293Z" fill="#6653A2"/>
<path opacity="0.17" d="M280.186 186.293H273.864V195.206H280.186V186.293Z" fill="#6653A2"/>
<path opacity="0.17" d="M291.145 186.293H284.824V195.206H291.145V186.293Z" fill="#6653A2"/>
<path opacity="0.17" d="M302.313 186.293H295.992V195.206H302.313V186.293Z" fill="#6653A2"/>
<path opacity="0.17" d="M313.61 186.293H307.289V195.206H313.61V186.293Z" fill="#6653A2"/>
<path opacity="0.17" d="M325.434 186.293H319.113V195.206H325.434V186.293Z" fill="#6653A2"/>
<path opacity="0.17" d="M336.991 186.293H330.67V195.206H336.991V186.293Z" fill="#6653A2"/>
<path opacity="0.17" d="M347.951 186.293H341.629V195.206H347.951V186.293Z" fill="#6653A2"/>
<path opacity="0.17" d="M359.119 186.293H352.797V195.206H359.119V186.293Z" fill="#6653A2"/>
<path opacity="0.17" d="M370.757 186.293H364.436V195.206H370.757V186.293Z" fill="#6653A2"/>
<path opacity="0.17" d="M382.581 186.293H376.259V195.206H382.581V186.293Z" fill="#6653A2"/>
<path opacity="0.17" d="M394.138 186.293H387.817V195.206H394.138V186.293Z" fill="#6653A2"/>
<path opacity="0.17" d="M405.096 186.293H398.774V195.206H405.096V186.293Z" fill="#6653A2"/>
<path opacity="0.17" d="M416.268 186.293H409.944V195.206H416.268V186.293Z" fill="#6653A2"/>
<path opacity="0.17" d="M427.563 186.293H421.241V195.206H427.563V186.293Z" fill="#6653A2"/>
<path opacity="0.17" d="M439.384 186.293H433.063V195.206H439.384V186.293Z" fill="#6653A2"/>
<path opacity="0.17" d="M450.942 186.293H444.621V195.206H450.942V186.293Z" fill="#6653A2"/>
<path opacity="0.17" d="M461.901 186.293H455.58V195.206H461.901V186.293Z" fill="#6653A2"/>
<path opacity="0.17" d="M473.069 186.293H466.748V195.206H473.069V186.293Z" fill="#6653A2"/>
<path opacity="0.17" d="M256.806 202.745H250.485V211.658H256.806V202.745Z" fill="#6653A2"/>
<path opacity="0.17" d="M268.628 202.745H262.307V211.658H268.628V202.745Z" fill="#6653A2"/>
<path opacity="0.17" d="M280.186 202.745H273.864V211.658H280.186V202.745Z" fill="#6653A2"/>
<path opacity="0.17" d="M291.145 202.745H284.824V211.658H291.145V202.745Z" fill="#6653A2"/>
<path opacity="0.17" d="M302.313 202.745H295.992V211.658H302.313V202.745Z" fill="#6653A2"/>
<path opacity="0.17" d="M313.61 202.745H307.289V211.658H313.61V202.745Z" fill="#6653A2"/>
<path opacity="0.17" d="M325.434 202.745H319.113V211.658H325.434V202.745Z" fill="#6653A2"/>
<path opacity="0.17" d="M336.991 202.745H330.67V211.658H336.991V202.745Z" fill="#6653A2"/>
<path opacity="0.17" d="M347.951 202.745H341.629V211.658H347.951V202.745Z" fill="#6653A2"/>
<path opacity="0.17" d="M359.119 202.745H352.797V211.658H359.119V202.745Z" fill="#6653A2"/>
<path opacity="0.17" d="M370.757 202.745H364.436V211.658H370.757V202.745Z" fill="#6653A2"/>
<path opacity="0.17" d="M382.581 202.745H376.259V211.658H382.581V202.745Z" fill="#6653A2"/>
<path opacity="0.17" d="M394.138 202.745H387.817V211.658H394.138V202.745Z" fill="#6653A2"/>
<path opacity="0.17" d="M405.096 202.745H398.774V211.658H405.096V202.745Z" fill="#6653A2"/>
<path opacity="0.17" d="M416.268 202.745H409.944V211.658H416.268V202.745Z" fill="#6653A2"/>
<path opacity="0.17" d="M427.563 202.745H421.241V211.658H427.563V202.745Z" fill="#6653A2"/>
<path opacity="0.17" d="M439.384 202.745H433.063V211.658H439.384V202.745Z" fill="#6653A2"/>
<path opacity="0.17" d="M450.942 202.745H444.621V211.658H450.942V202.745Z" fill="#6653A2"/>
<path opacity="0.17" d="M461.901 202.745H455.58V211.658H461.901V202.745Z" fill="#6653A2"/>
<path opacity="0.17" d="M473.069 202.745H466.748V211.658H473.069V202.745Z" fill="#6653A2"/>
<path opacity="0.17" d="M256.806 218.473H250.485V227.385H256.806V218.473Z" fill="#6653A2"/>
<path opacity="0.17" d="M268.628 218.473H262.307V227.385H268.628V218.473Z" fill="#6653A2"/>
<path opacity="0.17" d="M280.186 218.473H273.864V227.385H280.186V218.473Z" fill="#6653A2"/>
<path opacity="0.17" d="M291.145 218.473H284.824V227.385H291.145V218.473Z" fill="#6653A2"/>
<path opacity="0.17" d="M302.313 218.473H295.992V227.385H302.313V218.473Z" fill="#6653A2"/>
<path opacity="0.17" d="M313.61 218.473H307.289V227.385H313.61V218.473Z" fill="#6653A2"/>
<path opacity="0.17" d="M325.434 218.473H319.113V227.385H325.434V218.473Z" fill="#6653A2"/>
<path opacity="0.17" d="M336.991 218.473H330.67V227.385H336.991V218.473Z" fill="#6653A2"/>
<path opacity="0.17" d="M347.951 218.473H341.629V227.385H347.951V218.473Z" fill="#6653A2"/>
<path opacity="0.17" d="M359.119 218.473H352.797V227.385H359.119V218.473Z" fill="#6653A2"/>
<path opacity="0.17" d="M370.757 218.473H364.436V227.385H370.757V218.473Z" fill="#6653A2"/>
<path opacity="0.17" d="M382.581 218.473H376.259V227.385H382.581V218.473Z" fill="#6653A2"/>
<path opacity="0.17" d="M394.138 218.473H387.817V227.385H394.138V218.473Z" fill="#6653A2"/>
<path opacity="0.17" d="M405.096 218.473H398.774V227.385H405.096V218.473Z" fill="#6653A2"/>
<path opacity="0.17" d="M416.268 218.473H409.944V227.385H416.268V218.473Z" fill="#6653A2"/>
<path opacity="0.17" d="M427.563 218.473H421.241V227.385H427.563V218.473Z" fill="#6653A2"/>
<path opacity="0.17" d="M439.384 218.473H433.063V227.385H439.384V218.473Z" fill="#6653A2"/>
<path opacity="0.17" d="M461.901 218.473H455.58V227.385H461.901V218.473Z" fill="#6653A2"/>
<path opacity="0.17" d="M450.942 218.473H444.621V227.385H450.942V218.473Z" fill="#6653A2"/>
<path opacity="0.17" d="M473.069 218.473H466.748V227.385H473.069V218.473Z" fill="#6653A2"/>
<path opacity="0.17" d="M256.806 233.958H250.485V242.87H256.806V233.958Z" fill="#6653A2"/>
<path opacity="0.17" d="M268.628 233.958H262.307V242.87H268.628V233.958Z" fill="#6653A2"/>
<path opacity="0.17" d="M280.186 233.958H273.864V242.87H280.186V233.958Z" fill="#6653A2"/>
<path opacity="0.17" d="M291.145 233.958H284.824V242.87H291.145V233.958Z" fill="#6653A2"/>
<path opacity="0.17" d="M302.313 233.958H295.992V242.87H302.313V233.958Z" fill="#6653A2"/>
<path opacity="0.17" d="M313.61 233.958H307.289V242.87H313.61V233.958Z" fill="#6653A2"/>
<path opacity="0.17" d="M325.434 233.958H319.113V242.87H325.434V233.958Z" fill="#6653A2"/>
<path opacity="0.17" d="M336.991 233.958H330.67V242.87H336.991V233.958Z" fill="#6653A2"/>
<path opacity="0.17" d="M347.951 233.958H341.629V242.87H347.951V233.958Z" fill="#6653A2"/>
<path opacity="0.17" d="M359.119 233.958H352.797V242.87H359.119V233.958Z" fill="#6653A2"/>
<path opacity="0.17" d="M370.757 233.958H364.436V242.87H370.757V233.958Z" fill="#6653A2"/>
<path opacity="0.17" d="M382.581 233.958H376.259V242.87H382.581V233.958Z" fill="#6653A2"/>
<path opacity="0.17" d="M394.138 233.958H387.817V242.87H394.138V233.958Z" fill="#6653A2"/>
<path opacity="0.17" d="M405.096 233.958H398.774V242.87H405.096V233.958Z" fill="#6653A2"/>
<path opacity="0.17" d="M416.268 233.958H409.944V242.87H416.268V233.958Z" fill="#6653A2"/>
<path opacity="0.17" d="M427.563 233.958H421.241V242.87H427.563V233.958Z" fill="#6653A2"/>
<path opacity="0.17" d="M439.384 233.958H433.063V242.87H439.384V233.958Z" fill="#6653A2"/>
<path opacity="0.17" d="M461.901 233.958H455.58V242.87H461.901V233.958Z" fill="#6653A2"/>
<path opacity="0.17" d="M473.069 233.958H466.748V242.87H473.069V233.958Z" fill="#6653A2"/>
<path opacity="0.17" d="M540.135 216.341H526.069V311.503H540.135V216.341Z" fill="#6653A2"/>
<path d="M526.067 274.198H510.969V340.297H526.067V274.198Z" fill="#ADC9E0"/>
<path opacity="0.17" d="M194.964 189.149V170.612H195.725V189.149H206.155V212.024H184.676V189.149H194.964Z" fill="#6653A2"/>
<path opacity="0.17" d="M132.738 141.22V126.998H138.503V120.808H139.264V126.998H161.298H161.701H165.869V120.808H166.63V126.998H171.975V189.149H161.298V162.369H132.738V148.148H161.298V141.22H132.738Z" fill="#6653A2"/>
<path opacity="0.17" d="M445.42 230.193V310.412H526.069V216.341L445.42 230.193Z" fill="#6653A2"/>
<path opacity="0.17" d="M546.032 274.026H445.42V341.695H546.032V274.026Z" fill="#6653A2"/>
<path opacity="0.17" d="M546.032 233.901H445.42V255.894H546.032V233.901Z" fill="#6653A2"/>
<path opacity="0.17" d="M457.438 292.297H452.271V299.581H457.438V292.297Z" fill="#6653A2"/>
<path opacity="0.17" d="M467.099 292.297H461.932V299.581H467.099V292.297Z" fill="#6653A2"/>
<path opacity="0.17" d="M476.546 292.297H471.378V299.581H476.546V292.297Z" fill="#6653A2"/>
<path opacity="0.17" d="M485.503 292.297H480.336V299.581H485.503V292.297Z" fill="#6653A2"/>
<path opacity="0.17" d="M494.632 292.297H489.464V299.581H494.632V292.297Z" fill="#6653A2"/>
<path opacity="0.17" d="M503.865 292.297H498.698V299.581H503.865V292.297Z" fill="#6653A2"/>
<path opacity="0.17" d="M513.528 292.297H508.361V299.581H513.528V292.297Z" fill="#6653A2"/>
<path opacity="0.17" d="M522.975 292.297H517.808V299.581H522.975V292.297Z" fill="#6653A2"/>
<path opacity="0.17" d="M531.93 292.297H526.763V299.581H531.93V292.297Z" fill="#6653A2"/>
<path opacity="0.17" d="M541.059 292.297H535.892V299.581H541.059V292.297Z" fill="#6653A2"/>
<path opacity="0.17" d="M457.438 305.151H452.271V312.436H457.438V305.151Z" fill="#6653A2"/>
<path opacity="0.17" d="M467.099 305.151H461.932V312.436H467.099V305.151Z" fill="#6653A2"/>
<path opacity="0.17" d="M476.546 305.151H471.378V312.436H476.546V305.151Z" fill="#6653A2"/>
<path opacity="0.17" d="M485.503 305.151H480.336V312.436H485.503V305.151Z" fill="#6653A2"/>
<path opacity="0.17" d="M494.632 305.151H489.464V312.436H494.632V305.151Z" fill="#6653A2"/>
<path opacity="0.17" d="M503.865 305.151H498.698V312.436H503.865V305.151Z" fill="#6653A2"/>
<path opacity="0.17" d="M513.528 305.151H508.361V312.436H513.528V305.151Z" fill="#6653A2"/>
<path opacity="0.17" d="M522.975 305.151H517.808V312.436H522.975V305.151Z" fill="#6653A2"/>
<path opacity="0.17" d="M531.93 305.151H526.763V312.436H531.93V305.151Z" fill="#6653A2"/>
<path opacity="0.17" d="M541.059 305.151H535.892V312.436H541.059V305.151Z" fill="#6653A2"/>
<path opacity="0.17" d="M457.438 266.398H452.271V273.682H457.438V266.398Z" fill="#6653A2"/>
<path opacity="0.17" d="M467.099 266.398H461.932V273.682H467.099V266.398Z" fill="#6653A2"/>
<path opacity="0.17" d="M476.546 266.398H471.378V273.682H476.546V266.398Z" fill="#6653A2"/>
<path opacity="0.17" d="M485.503 266.398H480.336V273.682H485.503V266.398Z" fill="#6653A2"/>
<path opacity="0.17" d="M494.632 266.398H489.464V273.682H494.632V266.398Z" fill="#6653A2"/>
<path opacity="0.17" d="M503.865 266.398H498.698V273.682H503.865V266.398Z" fill="#6653A2"/>
<path opacity="0.17" d="M513.528 266.398H508.361V273.682H513.528V266.398Z" fill="#6653A2"/>
<path opacity="0.17" d="M522.975 266.398H517.808V273.682H522.975V266.398Z" fill="#6653A2"/>
<path opacity="0.17" d="M457.438 279.25H452.271V286.535H457.438V279.25Z" fill="#6653A2"/>
<path opacity="0.17" d="M467.099 279.25H461.932V286.535H467.099V279.25Z" fill="#6653A2"/>
<path opacity="0.17" d="M476.546 279.25H471.378V286.535H476.546V279.25Z" fill="#6653A2"/>
<path opacity="0.17" d="M485.503 279.25H480.336V286.535H485.503V279.25Z" fill="#6653A2"/>
<path opacity="0.17" d="M494.632 279.25H489.464V286.535H494.632V279.25Z" fill="#6653A2"/>
<path opacity="0.17" d="M503.865 279.25H498.698V286.535H503.865V279.25Z" fill="#6653A2"/>
<path opacity="0.17" d="M513.528 279.25H508.361V286.535H513.528V279.25Z" fill="#6653A2"/>
<path opacity="0.17" d="M522.975 279.25H517.808V286.535H522.975V279.25Z" fill="#6653A2"/>
<path opacity="0.17" d="M531.93 279.25H526.763V286.535H531.93V279.25Z" fill="#6653A2"/>
<path opacity="0.17" d="M541.059 279.25H535.892V286.535H541.059V279.25Z" fill="#6653A2"/>
<path opacity="0.17" d="M457.438 317.807H452.271V325.091H457.438V317.807Z" fill="#6653A2"/>
<path opacity="0.17" d="M467.099 317.807H461.932V325.091H467.099V317.807Z" fill="#6653A2"/>
<path opacity="0.17" d="M476.546 317.807H471.378V325.091H476.546V317.807Z" fill="#6653A2"/>
<path opacity="0.17" d="M485.503 317.807H480.336V325.091H485.503V317.807Z" fill="#6653A2"/>
<path opacity="0.17" d="M494.632 317.807H489.464V325.091H494.632V317.807Z" fill="#6653A2"/>
<path opacity="0.17" d="M503.865 317.807H498.698V325.091H503.865V317.807Z" fill="#6653A2"/>
<path opacity="0.17" d="M513.528 317.807H508.361V325.091H513.528V317.807Z" fill="#6653A2"/>
<path opacity="0.17" d="M522.975 317.807H517.808V325.091H522.975V317.807Z" fill="#6653A2"/>
<path opacity="0.17" d="M531.93 317.807H526.763V325.091H531.93V317.807Z" fill="#6653A2"/>
<path opacity="0.17" d="M541.059 317.807H535.892V325.091H541.059V317.807Z" fill="#6653A2"/>
<path opacity="0.17" d="M520.659 201.235H519.169V220.308H520.659V201.235Z" fill="#6653A2"/>
<path opacity="0.17" d="M457.437 240.08H453.095V247.593H457.437V240.08Z" fill="#6653A2"/>
<path opacity="0.17" d="M500.546 240.08H496.203V247.593H500.546V240.08Z" fill="#6653A2"/>
<path opacity="0.17" d="M534.837 240.08H530.494V247.593H534.837V240.08Z" fill="#6653A2"/>
<path opacity="0.17" d="M177.481 341.867H322.273V257.163H177.481V341.867Z" fill="#6653A2"/>
<path opacity="0.17" d="M267.944 277.386H275.663V265.597H267.944V277.386Z" fill="#6653A2"/>
<path opacity="0.17" d="M253.925 277.386H261.644V265.597H253.925V277.386Z" fill="#6653A2"/>
<path opacity="0.17" d="M240.311 277.386H248.03V265.597H240.311V277.386Z" fill="#6653A2"/>
<path opacity="0.17" d="M226.607 277.386H234.326V265.597H226.607V277.386Z" fill="#6653A2"/>
<path opacity="0.17" d="M212.993 277.386H220.712V265.597H212.993V277.386Z" fill="#6653A2"/>
<path opacity="0.17" d="M198.717 277.386H206.436V265.597H198.717V277.386Z" fill="#6653A2"/>
<path opacity="0.17" d="M185.104 277.386H192.823V265.597H185.104V277.386Z" fill="#6653A2"/>
<path opacity="0.17" d="M308.873 294.82H316.592V283.031H308.873V294.82Z" fill="#6653A2"/>
<path opacity="0.17" d="M295.262 294.82H302.981V283.031H295.262V294.82Z" fill="#6653A2"/>
<path opacity="0.17" d="M281.557 294.82H289.276V283.031H281.557V294.82Z" fill="#6653A2"/>
<path opacity="0.17" d="M267.944 294.82H275.663V283.031H267.944V294.82Z" fill="#6653A2"/>
<path opacity="0.17" d="M253.925 294.82H261.644V283.031H253.925V294.82Z" fill="#6653A2"/>
<path opacity="0.17" d="M240.311 294.82H248.03V283.031H240.311V294.82Z" fill="#6653A2"/>
<path opacity="0.17" d="M226.607 294.82H234.326V283.031H226.607V294.82Z" fill="#6653A2"/>
<path opacity="0.17" d="M212.993 294.82H220.712V283.031H212.993V294.82Z" fill="#6653A2"/>
<path opacity="0.17" d="M198.717 294.82H206.436V283.031H198.717V294.82Z" fill="#6653A2"/>
<path opacity="0.17" d="M185.104 294.82H192.823V283.031H185.104V294.82Z" fill="#6653A2"/>
<path opacity="0.17" d="M308.873 313.545H316.592V301.756H308.873V313.545Z" fill="#6653A2"/>
<path opacity="0.17" d="M295.262 313.545H302.981V301.756H295.262V313.545Z" fill="#6653A2"/>
<path opacity="0.17" d="M281.557 313.545H289.276V301.756H281.557V313.545Z" fill="#6653A2"/>
<path opacity="0.17" d="M267.944 313.545H275.663V301.756H267.944V313.545Z" fill="#6653A2"/>
<path opacity="0.17" d="M253.925 313.545H261.644V301.756H253.925V313.545Z" fill="#6653A2"/>
<path opacity="0.17" d="M240.311 313.545H248.03V301.756H240.311V313.545Z" fill="#6653A2"/>
<path opacity="0.17" d="M226.607 313.545H234.326V301.756H226.607V313.545Z" fill="#6653A2"/>
<path opacity="0.17" d="M212.993 313.545H220.712V301.756H212.993V313.545Z" fill="#6653A2"/>
<path opacity="0.17" d="M198.717 313.545H206.436V301.756H198.717V313.545Z" fill="#6653A2"/>
<path opacity="0.17" d="M185.104 313.545H192.823V301.756H185.104V313.545Z" fill="#6653A2"/>
<path opacity="0.17" d="M308.873 330.979H316.592V319.19H308.873V330.979Z" fill="#6653A2"/>
<path opacity="0.17" d="M295.262 330.979H302.981V319.19H295.262V330.979Z" fill="#6653A2"/>
<path opacity="0.17" d="M227.362 260.784H197.147V234.438L227.362 246.008V260.784Z" fill="#6653A2"/>
<path opacity="0.17" d="M376.274 341.866H445.42V266.646L376.274 290.584V341.866Z" fill="#6653A2"/>
<path opacity="0.17" d="M378.101 295.151H443.594V292.827H378.101V295.151Z" fill="#6653A2"/>
<path opacity="0.17" d="M378.101 302.621H443.594V300.297H378.101V302.621Z" fill="#6653A2"/>
<path opacity="0.17" d="M378.101 310.094H443.594V307.77H378.101V310.094Z" fill="#6653A2"/>
<path opacity="0.17" d="M378.101 317.565H443.594V315.241H378.101V317.565Z" fill="#6653A2"/>
<path opacity="0.17" d="M378.101 325.035H443.594V322.711H378.101V325.035Z" fill="#6653A2"/>
<path opacity="0.17" d="M378.101 332.507H443.594V330.183H378.101V332.507Z" fill="#6653A2"/>
<path opacity="0.17" d="M191.336 256.915H197.147V234.438H191.336V256.915Z" fill="#6653A2"/>
<path opacity="0.17" d="M215.318 253.436V245.717H203.531V253.436H215.318Z" fill="#6653A2"/>
<path opacity="0.17" d="M435.229 125.013H439.236V91.0185H435.229V125.013Z" fill="#6653A2"/>
<path opacity="0.17" d="M427.26 125.013H431.267V91.0185H427.26V125.013Z" fill="#6653A2"/>
<path opacity="0.17" d="M419.4 125.013H423.407V91.0185H419.4V125.013Z" fill="#6653A2"/>
<path opacity="0.17" d="M411.263 125.013H415.27V91.0185H411.263V125.013Z" fill="#6653A2"/>
<path d="M35.4448 323.757H352.613L339.735 276.187H35.4448V323.757Z" fill="#1C2948"/>
<path d="M179.914 229.62C179.921 229.62 179.931 229.622 179.939 229.622C179.931 229.622 179.921 229.622 179.914 229.62Z" fill="#163560"/>
<path d="M271.008 265.487C266.251 265.31 261.31 265.214 256.178 265.214C256.178 265.214 227.769 240.559 194.907 232.167C228.695 240.51 271.008 265.487 271.008 265.487Z" fill="#163560"/>
<path d="M13.7087 283.994V256.772C13.7087 256.772 45.6432 253.121 64.9542 246.126C109.662 229.701 133.687 229.398 174.29 229.398C205.116 229.398 236.335 250.044 249.584 259.984C254.049 263.335 259.464 265.186 265.045 265.309C313.808 266.377 343.953 276.112 358.924 282.685C365.939 285.764 370.454 292.717 370.454 300.379V309.545C371.463 309.545 372.279 310.361 372.279 311.37V326.577C372.279 327.586 371.463 328.403 370.454 328.403H349.621H341.355C344.239 323.237 345.828 317.251 345.669 310.879C345.215 292.728 330.39 277.947 312.241 277.546C292.99 277.12 277.251 292.6 277.251 311.755C277.251 317.801 278.825 323.475 281.574 328.405H102.537C105.421 323.239 107.01 317.253 106.851 310.881C106.396 292.73 91.572 277.948 73.4229 277.548C54.1713 277.122 38.4322 292.602 38.4322 311.757C38.4322 317.803 40.0063 323.477 42.7557 328.407H35.6061C10.8653 328.407 7.3586 303.102 7.1266 290.696C7.0595 287.01 10.0294 283.994 13.7087 283.994Z" fill="#F1A34F"/>
<path d="M189.965 234.314C218.213 241.463 248.499 265.897 248.499 265.897L168.327 264.181C165.183 264.114 162.351 262.261 161.028 259.408L148.744 232.895H178.469C182.346 232.895 186.208 233.363 189.965 234.314Z" fill="#163560"/>
<path d="M144.029 233.506L155.286 259.294C156.15 261.276 154.699 263.495 152.536 263.497C141.178 263.502 111.357 263.081 94.1911 258.78C90.067 257.746 88.6827 252.558 91.7503 249.614C98.7274 242.918 113.895 233.506 144.029 233.506Z" fill="#163560"/>
<path d="M368.37 291.636H356.656C356.656 291.636 337.502 273.753 306.762 268.686C306.762 268.686 363.548 274.942 368.37 291.636Z" fill="#B64C41"/>
<path d="M13.7085 283.994H16.8088C18.5458 283.994 20.1314 282.999 20.8734 281.429C22.6661 277.636 26.6023 270.432 32.6418 265.312C34.9809 263.33 33.5813 259.51 30.5155 259.51H13.7085V283.994Z" fill="#B64C41"/>
<path d="M167.486 271.753H183.067C183.928 271.753 184.626 271.055 184.626 270.194C184.626 269.333 183.928 268.635 183.067 268.635H167.486C166.625 268.635 165.927 269.333 165.927 270.194C165.927 271.055 166.625 271.753 167.486 271.753Z" fill="#163560"/>
<path d="M98.6008 271.753H114.183C115.043 271.753 115.741 271.055 115.741 270.194C115.741 269.333 115.043 268.635 114.183 268.635H98.6008C97.7399 268.635 97.042 269.333 97.042 270.194C97.042 271.055 97.7399 271.753 98.6008 271.753Z" fill="#163560"/>
<path d="M111.792 281.866H252.278C258.087 281.866 261.661 288.222 258.641 293.187L249.594 308.059C247.625 311.295 243.324 312.183 240.241 309.984C228.229 301.42 193.628 283.651 111.792 281.866Z" fill="#DD7F30"/>
<path d="M163.064 216.339H170.269C171.211 216.339 172.053 216.929 172.371 217.815L176.618 229.623H160.833V218.57C160.831 217.338 161.83 216.339 163.064 216.339Z" fill="#F1A34F"/>
<path d="M160.831 229.435V221.359H163.921C166.053 221.359 167.955 222.699 168.67 224.707L170.358 229.435H160.831Z" fill="#163560"/>
<path d="M204.148 285.868H193.486V296.531H204.148V285.868Z" fill="#163560"/>
<path d="M193.486 296.53H182.824V307.193H193.486V296.53Z" fill="#163560"/>
<path d="M182.824 285.868H172.162V296.531H182.824V285.868Z" fill="#163560"/>
<path d="M172.162 296.53H161.5V307.193H172.162V296.53Z" fill="#163560"/>
<path d="M161.498 285.868H150.835V296.531H161.498V285.868Z" fill="#163560"/>
<path d="M93.4057 332.969C105.027 321.347 105.027 302.503 93.4057 290.881C81.7844 279.259 62.9427 279.259 51.3214 290.881C39.7002 302.503 39.7002 321.347 51.3214 332.969C62.9427 344.591 81.7844 344.591 93.4057 332.969Z" fill="#2D3A62"/>
<path d="M72.3664 293.488C82.5491 293.488 90.805 301.743 90.805 311.929C90.805 322.114 82.551 330.369 72.3664 330.369C62.1817 330.369 53.9277 322.114 53.9277 311.929C53.9277 301.743 62.1836 293.488 72.3664 293.488ZM69.8413 295.509C65.8265 296.123 62.2871 298.177 59.7602 301.122L66.1505 305.068C67.1916 304.123 68.4513 303.415 69.8432 303.02V295.509H69.8413ZM74.8914 295.509V303.022C76.2834 303.415 77.5411 304.124 78.5842 305.07L84.9745 301.124C82.4456 298.175 78.9082 296.121 74.8914 295.509ZM87.6798 318.367C88.5138 316.387 88.9759 314.21 88.9759 311.927C88.9759 309.612 88.5023 307.409 87.6472 305.409L81.2607 309.353C81.4965 310.17 81.625 311.033 81.625 311.927C81.625 312.79 81.5042 313.624 81.2837 314.416L87.6798 318.367ZM74.8914 328.346C78.9369 327.729 82.4974 325.65 85.0282 322.668L78.6455 318.726C77.591 319.7 76.3102 320.431 74.8895 320.833V328.346H74.8914ZM76.5518 311.927C76.5518 309.614 74.6767 307.741 72.3664 307.741C70.0541 307.741 68.1809 309.616 68.1809 311.927C68.1809 314.237 70.056 316.113 72.3664 316.113C74.6786 316.114 76.5518 314.239 76.5518 311.927ZM69.8413 328.346V320.833C68.4206 320.431 67.1398 319.7 66.0853 318.726L59.7026 322.668C62.2335 325.65 65.7958 327.729 69.8413 328.346ZM63.4509 314.416C63.2305 313.624 63.1097 312.79 63.1097 311.927C63.1097 311.033 63.2381 310.17 63.474 309.353L57.0874 305.409C56.2323 307.411 55.7588 309.614 55.7588 311.927C55.7588 314.21 56.2208 316.387 57.0548 318.367L63.4509 314.416Z" fill="#98BDF4"/>
<path d="M332.476 333.014C344.097 321.392 344.097 302.548 332.476 290.926C320.855 279.304 302.013 279.304 290.392 290.926C278.77 302.548 278.77 321.392 290.392 333.014C302.013 344.637 320.855 344.637 332.476 333.014Z" fill="#2D3A62"/>
<path d="M311.438 293.53C321.621 293.53 329.876 301.787 329.876 311.97C329.876 322.154 321.622 330.411 311.438 330.411C301.255 330.411 292.999 322.154 292.999 311.97C292.999 301.787 301.255 293.53 311.438 293.53ZM308.913 295.551C304.898 296.163 301.358 298.218 298.831 301.163L305.222 305.11C306.263 304.164 307.523 303.457 308.915 303.062V295.551H308.913ZM313.963 295.551V303.064C315.355 303.457 316.613 304.166 317.656 305.111L324.046 301.165C321.517 298.218 317.978 296.165 313.963 295.551ZM326.751 318.411C327.585 316.43 328.045 314.254 328.045 311.97C328.045 309.656 327.572 307.455 326.717 305.453L320.33 309.399C320.566 310.216 320.694 311.079 320.694 311.972C320.694 312.835 320.574 313.669 320.353 314.461L326.751 318.411ZM313.963 328.39C318.008 327.772 321.569 325.694 324.102 322.712L317.719 318.77C316.664 319.744 315.384 320.474 313.963 320.877V328.39ZM315.623 311.97C315.623 309.658 313.748 307.784 311.438 307.784C309.127 307.784 307.252 309.658 307.252 311.97C307.252 314.283 309.127 316.156 311.438 316.156C313.748 316.156 315.623 314.283 315.623 311.97ZM308.913 328.39V320.877C307.492 320.474 306.211 319.744 305.157 318.77L298.774 322.712C301.305 325.694 304.867 327.772 308.913 328.39ZM302.522 314.459C302.302 313.667 302.181 312.833 302.181 311.97C302.181 311.077 302.309 310.214 302.545 309.397L296.159 305.451C295.304 307.453 294.83 309.656 294.83 311.968C294.83 314.252 295.292 316.428 296.126 318.409L302.522 314.459Z" fill="#98BDF4"/>
<path d="M464.7 240.453C463.383 240.453 462.217 240.188 461.207 239.684C448.643 233.447 460.306 190.587 460.306 190.587C460.306 190.587 460.898 188.653 463.184 187.621C464.371 187.094 466.017 186.808 468.301 187.182C474.914 188.281 476.187 191.026 476.449 192.564C476.737 194.125 482.711 240.365 464.7 240.453Z" fill="#6653A2"/>
<path d="M461.207 239.683C448.643 233.446 460.306 190.586 460.306 190.586C460.306 190.586 460.898 188.652 463.184 187.62C468.038 188.895 469.049 191.2 469.311 192.563C469.555 194.013 474.695 233.708 461.207 239.683Z" fill="#6653A2"/>
<path d="M487.063 328.15C487.063 328.15 489.926 330.804 489.368 332.689C488.81 334.574 486.225 335.832 485.877 338.135C485.528 340.439 487.57 342.052 486.314 342.052C485.058 342.052 476.882 341.695 476.882 341.695C476.882 341.695 475.956 340.073 478.192 339.584C480.426 339.095 481.269 336.388 481.129 333.874C480.989 331.36 481.338 328.008 481.338 328.008L486.086 326.891L487.063 328.15Z" fill="#233862"/>
<path d="M451.943 335.244C451.943 335.244 452.64 340.83 451.385 341.459C450.129 342.088 435.116 341.879 435.116 341.879C435.116 341.879 435.116 339.994 437.699 339.574C440.281 339.156 444.822 337.618 445.589 334.198C446.357 330.777 451.943 335.244 451.943 335.244Z" fill="#233862"/>
<path d="M438.364 249.943C438.364 249.943 439.212 260.529 440.211 273.252C441.566 290.536 443.196 311.768 443.357 315.791C443.635 322.776 444.755 333.947 444.755 333.947C444.755 333.947 447.406 336.601 452.715 335.483C452.715 335.483 457.445 319.535 458.797 302.662C458.818 302.386 458.839 302.106 458.86 301.828C460.116 284.649 462.072 248.478 462.072 248.478L438.364 249.943Z" fill="#231F20"/>
<path d="M438.364 249.943C438.364 249.943 439.212 260.529 440.211 273.251L458.795 302.66C458.816 302.383 458.837 302.103 458.858 301.825C460.114 284.647 462.07 248.476 462.07 248.476L438.364 249.943Z" fill="#231F20"/>
<path d="M442.237 251.2C442.237 251.2 457.528 289.536 467.582 307.551C477.636 325.567 480.779 330.595 480.779 330.595C480.779 330.595 486.538 328.29 487.062 326.72C487.062 326.72 483.218 291.939 476.484 283.462C472.68 278.67 468.211 264.295 468 259.265C467.791 254.238 466.639 244.288 466.639 244.288L442.237 251.2Z" fill="#231F20"/>
<path d="M415.232 207.738L412.013 207.85C411.386 207.871 410.776 207.698 410.22 207.407C409.066 206.799 406.779 206.143 404.902 209.006C404.902 209.006 403.926 210.772 405.193 211.278C406.46 211.786 406.019 211.37 407.799 212.133C409.133 212.705 410.5 212.687 411.44 212.114C412.239 211.627 413.244 211.616 414.153 211.842L417.092 212.574L415.232 207.738Z" fill="#FFB27D"/>
<path d="M450.081 192.023C449.4 188.007 449.379 185.628 449.379 185.628L457.136 179.375C456.849 187.973 462.357 192.107 462.357 192.107C462.357 192.107 452.019 197.196 446.043 195.311C446.045 195.313 447.515 193.432 450.081 192.023Z" fill="#FFB27D"/>
<path d="M447.552 185.489C447.552 185.489 457.422 187.128 458.348 180.965C459.274 174.803 461.172 170.864 454.91 169.556C448.649 168.249 447.067 170.416 446.258 172.398C445.449 174.379 445.01 184.902 447.552 185.489Z" fill="#FFB27D"/>
<path d="M411.735 209.76C411.86 207.873 412.513 205.965 412.513 205.965C412.513 205.965 430.371 204.983 432.054 204.694C433.738 204.404 455.522 193.967 455.522 193.967L466.021 205.848C466.021 205.848 437.971 213.591 433.69 214.237C426.617 215.307 412.13 212.502 412.13 212.502C412.13 212.502 411.637 211.242 411.735 209.76Z" fill="#963333"/>
<path d="M467.797 246.253C467.818 246.604 467.423 246.999 466.963 247.307C466.589 247.572 466.15 247.769 465.887 247.9C464.568 248.492 463.274 249.02 461.999 249.482C458.945 250.623 455.936 251.392 452.663 251.7C449.17 252.051 445.282 251.7 442.318 251.415C440.648 251.217 439.286 251.064 438.452 251.064H438.343C438.101 251.064 437.883 250.975 437.707 250.822C437.574 250.734 437.465 245.507 437.53 238.475C437.53 237.486 437.551 236.476 437.551 235.421C437.551 235.091 437.551 234.719 437.595 234.389V234.278C437.618 230.984 437.728 227.49 437.881 224.043V223.976C438.211 216.309 438.803 208.927 439.835 204.82C441.022 200.009 443.788 196.845 446.292 194.494L448.357 192.671C448.532 192.715 448.708 192.738 448.884 192.759C450.773 193.068 452.773 192.891 454.794 191.902C457.144 190.738 459.736 189.463 460.152 189.772C460.197 189.816 460.262 189.86 460.306 189.904C461.031 190.475 461.69 191.2 462.283 192.057C462.327 192.078 462.327 192.078 462.327 192.101C462.348 192.101 462.348 192.101 462.348 192.101C462.831 192.803 463.293 193.595 463.709 194.473C464.39 195.858 464.961 197.461 465.465 199.24C466.806 204.051 467.465 210.114 467.442 216.593C467.442 218.24 467.398 219.91 467.289 221.602C467.268 222.085 467.245 222.547 467.223 223.007C467.026 227.203 467.049 231.091 467.158 234.497V234.606C467.268 238.056 467.467 240.978 467.62 243.152C467.711 244.473 467.776 245.526 467.797 246.253Z" fill="#B64C41"/>
<path d="M467.624 243.16C467.31 238.581 466.763 230.704 467.296 221.615C467.392 219.922 467.442 218.244 467.45 216.591C465.406 211.633 463.734 208.036 463.734 208.036H458.582C458.582 208.038 454.805 233.841 467.624 243.16Z" fill="#963333"/>
<path d="M458.356 180.373C458.356 180.373 457.344 180.204 457.507 178.808C457.67 177.412 457.668 175.588 456.534 175.93C455.399 176.269 455.344 177.178 454.878 176.647C454.412 176.116 454.402 173.882 451.028 173.727C447.653 173.571 446.281 174.745 444.712 174.056C443.142 173.366 443.06 170.99 443.06 170.99C443.06 170.99 443.506 171.838 444.181 172.108C444.181 172.108 441.562 168.526 444.593 166.07C447.625 163.614 450.715 165.223 452.47 165.328C456.335 165.562 458.831 165.794 460.095 168.335C461.358 170.873 460.837 177.926 458.356 180.373Z" fill="black"/>
<path d="M476.047 240.698L477.966 245.219C478.198 245.766 478.179 246.374 477.964 246.928C477.493 248.145 477.103 250.492 480.163 252.026C480.163 252.026 482.029 252.793 482.387 251.476C482.746 250.159 482.384 250.644 482.938 248.79C483.421 247.168 483.103 245.591 482.121 244.786C481.776 244.502 481.615 244.05 481.567 243.605L481.264 240.727L476.047 240.698Z" fill="#FFB27D"/>
<path d="M480.242 245.225C478.386 245.588 476.374 245.44 476.374 245.44C476.374 245.44 470.866 228.422 470.157 226.869C469.447 225.314 453.796 206.916 453.796 206.916L460.317 190.596C460.317 190.596 477.247 218.877 478.965 222.852C481.806 229.419 482.792 244.142 482.792 244.142C482.792 244.142 481.699 244.941 480.242 245.225Z" fill="#B64C41"/>
<path d="M458.879 226.57C456.77 223.977 454.728 220.286 453.432 215.101C452.861 212.839 452.422 210.269 452.201 207.391C452.201 207.391 451.609 201.921 454.331 198.099C455.277 196.759 456.638 195.595 458.571 194.979C459.69 194.584 461.03 194.387 462.591 194.431C462.942 194.431 465.626 194.352 466.021 194.396C465.603 193.516 466.178 192.301 465.695 191.599C465.695 191.599 464.351 192.094 464.33 192.094C464.221 192.094 461.822 192.08 461.207 192.103C460.768 192.124 460.241 192.147 459.648 192.235C457.627 192.521 454.882 193.311 452.729 195.355C452.048 195.969 451.454 196.717 450.926 197.597C450.708 197.948 450.508 198.41 450.334 198.914C449.038 202.868 449.235 210.91 451.783 218.399C453.43 223.21 456.045 227.803 459.888 230.943C461.843 232.568 464.401 233.902 467.055 234.598C467.294 234.661 467.536 234.502 467.58 234.259L467.768 233.219C467.816 232.961 467.666 232.707 467.417 232.623C466.113 232.182 462.12 230.587 458.879 226.57Z" fill="#6653A2"/>
<path d="M556.491 218.421C556.491 218.421 553.644 219.956 553.093 221.755C552.545 223.554 552.407 244.423 551.515 246.276C550.622 248.13 549.776 258.77 551.149 263.895C551.149 263.895 550.093 268.449 550.426 269.341C550.76 270.233 553.475 271.331 554.451 271.262C555.427 271.193 555.925 265.519 554.854 263.893L556.491 218.421Z" fill="#FFB27D"/>
<path d="M583.55 210.35C581.786 208.811 581.364 206.241 581.274 204.747C581.623 207.395 584.006 209.733 584.006 209.733C581.168 206.37 585.745 194.058 578.58 190.946C573.89 188.909 570.435 190.244 568.606 191.41C564.515 190.855 559.608 196.752 559.608 196.752L569.4 209.731C569.4 209.731 570.1 208.116 571.078 208.189C570.545 210.245 570.232 211.925 571.26 212.979C576.358 218.218 574.278 220.758 577.188 221.658C580.75 222.758 587.85 214.103 583.55 210.35Z" fill="black"/>
<path d="M558.433 217.796C558.433 217.796 555.295 217.994 553.68 219.848C552.066 221.7 551.851 236.806 551.851 236.806C551.851 236.806 552.294 238.497 554.171 238.359C556.046 238.223 558.433 217.796 558.433 217.796Z" fill="#6653A2"/>
<path d="M590.523 255.457C590.307 255.983 589.365 256.45 588.01 256.786C584.971 257.543 579.846 257.641 576.111 256.257C572.104 254.773 569.197 233.592 567.962 222.736C567.531 218.949 567.303 216.418 567.303 216.418C567.303 216.418 569.605 212.815 578.513 214.015C587.421 215.215 588.322 218.22 589.122 223.625C589.923 229.033 591.223 253.754 590.523 255.457Z" fill="#6653A2"/>
<path d="M588.009 256.786C584.97 257.543 579.845 257.641 576.11 256.256C572.103 254.772 569.197 233.592 567.962 222.735C569.016 219 569.854 216.542 569.854 216.542C569.854 216.542 581.04 215.19 583.216 218.569C585.162 221.592 587.53 250.677 588.009 256.786Z" fill="#231F20"/>
<path d="M579.907 258.091C576.843 251.219 575.376 249.276 575.326 247.116C575.286 245.405 576.128 243.561 577.765 239.037C578.151 237.971 578.417 236.876 578.58 235.768C579.876 227.047 574.834 217.621 571.699 216.979C570.826 216.749 569.348 213.598 569.367 208.523L568.974 208.599L562.375 209.907C562.375 209.907 562.525 211.984 562.53 213.941C562.534 215.571 562.436 217.117 562.066 217.312C561.591 217.354 561.311 217.383 561.311 217.383C561.311 217.383 555.808 225.024 555.346 232.132C554.884 239.24 559.752 242.328 555.31 256.53C550.776 271.036 581.6 261.888 579.907 258.091Z" fill="#FFB27D"/>
<path d="M562.377 209.906C562.377 209.906 562.527 211.982 562.532 213.94C566.225 213.836 568.177 210.467 568.976 208.6L562.377 209.906Z" fill="#E8945B"/>
<path d="M569.657 207.881C569.657 207.881 571.592 204.823 572.056 202.209C572.387 200.341 571.436 193.423 564.484 194.418C564.484 194.418 562.465 194.618 560.567 195.899C559.058 196.919 556.878 199.12 559.315 205.158L559.948 207.198L569.657 207.881Z" fill="black"/>
<path d="M561.144 211.759C561.144 211.759 569.881 211.903 569.887 206.461C569.893 201.018 571.024 197.371 565.447 197.049C559.869 196.726 558.782 198.803 558.339 200.619C557.894 202.435 558.87 211.581 561.144 211.759Z" fill="#FFB27D"/>
<path d="M561.466 196.915C561.466 196.915 563.859 203.3 567.531 204.243C571.202 205.187 572.794 204.203 572.794 204.203C572.794 204.203 574.084 198.225 573.499 194.319C573.499 194.321 563.27 193.876 561.466 196.915Z" fill="black"/>
<path d="M562.059 197.434C562.059 197.434 560.272 198.859 559.837 200.245C559.401 201.632 559.206 204.485 558.374 204.387C558.374 204.387 556.571 200.048 558.596 197.591C560.745 194.989 562.059 197.434 562.059 197.434Z" fill="black"/>
<path d="M572.17 324.029C569.971 332.775 566.664 339.478 566.664 339.478L563.782 339.279C563.782 339.279 565.195 332.556 565.115 323.473C565.057 317.122 564.273 309.619 561.763 302.454C553.143 277.832 554.535 259.911 554.535 259.911L570.748 261.807L571.503 261.895C571.57 269.341 571.762 279.452 571.931 287.356C572.08 294.466 572.211 299.79 572.211 299.79C575.326 306.505 574.193 315.982 572.17 324.029Z" fill="#231F20"/>
<path d="M577.765 239.037C576.128 243.561 575.284 245.405 575.326 247.116C570.107 239.034 560.68 237.814 560.68 237.814L578.582 235.768C578.417 236.875 578.151 237.971 577.765 239.037Z" fill="#CB7D45"/>
<path d="M591.269 265.389L588.646 266.175C588.646 266.175 579.993 251.817 579.207 248.082C578.95 246.866 578.321 244.431 577.587 241.705C576.066 236.058 574.107 229.147 574.107 229.147L573.461 226.35L571.258 216.81C571.258 216.81 575.476 217.242 577.942 218.273C578.758 218.614 579.381 219.021 579.598 219.498C581.41 223.483 583.22 233.54 584.491 240.715C585.2 244.713 585.741 247.818 586.023 248.475C586.811 250.312 589.215 260.408 591.269 265.389Z" fill="#FFB27D"/>
<path d="M581.471 322.634C580.539 332.584 576.435 339.017 576.435 339.017L575.058 340.018C575.058 340.018 573.756 333.009 572.834 324.668C571.956 316.741 570.752 308.354 569.39 305.795C563.984 295.642 562.356 257.313 562.356 257.313L578.793 256.498C580.446 259.277 581.166 263.837 581.337 269.019C581.768 282.1 578.695 299.158 578.235 301.624C578.235 301.626 578.235 301.628 578.233 301.63C578.197 301.822 578.252 302.008 578.34 302.18C581.613 308.654 582.085 316.061 581.471 322.634Z" fill="#231F20"/>
<path d="M561.727 197.649C561.727 197.649 563.432 204.335 568.064 206.477C568.064 206.477 563.432 202.368 563.038 197.954C562.645 193.542 561.727 197.649 561.727 197.649Z" fill="black"/>
<path d="M581.966 263.052C581.995 263.606 581.964 264.049 581.864 264.365C581.515 265.466 580.313 265.968 577.41 265.667C575.637 265.483 574.845 262.507 574.492 259.97C573.426 263.6 571.934 265.638 570.004 266.066C567.189 266.691 552.99 268.419 552.06 261.667C551.038 254.243 554.1 241.095 554.267 234.008C553.849 231.494 553.707 229.312 553.751 227.439C553.87 222.39 555.352 219.56 556.491 218.419C556.813 218.172 557.137 218.016 558.433 217.794C559.094 217.681 560.013 217.55 561.313 217.38C561.313 217.38 561.844 217.32 561.83 217.339C561.591 217.769 558.373 222.639 558.625 223.891C558.887 225.203 570.293 224.022 571.079 223.301C571.865 222.58 573.11 217.058 573.11 217.058C573.11 217.058 577.527 217.167 579.504 218.605C579.504 218.605 580.073 219.324 580.175 219.518C582.282 223.531 583.835 233.651 585.315 240.876C581.728 242.853 578.591 242.265 577.619 242.004C578.892 250.328 581.778 259.261 581.966 263.052Z" fill="#6653A2"/>
<path d="M561.313 217.382C561.313 217.382 561.307 217.392 561.296 217.413C560.908 218.026 554.849 227.711 554.267 234.01C553.849 231.497 553.707 229.314 553.751 227.441C554.529 225.062 556.422 219.775 558.433 217.796C558.686 217.547 561.313 217.382 561.313 217.382Z" fill="#231F20"/>
<path d="M581.471 322.634C580.54 332.583 576.435 339.017 576.435 339.017L575.033 340.294C575.033 340.294 573.756 333.009 572.834 324.67C573.806 324.739 578.087 324.894 581.471 322.634Z" fill="#FFB27D"/>
<path d="M572.17 324.03C569.971 332.775 566.664 339.479 566.664 339.479L563.782 339.279C563.782 339.279 565.195 332.557 565.115 323.474C566.091 323.966 568.11 324.467 572.17 324.03Z" fill="#FFB27D"/>
<path d="M568.322 341.896H566.484C565.868 341.8 565.412 341.619 564.781 341.537C563.823 341.41 563.38 341.805 563.291 341.896C563.28 341.907 563.274 341.915 563.274 341.915H555.461C555.266 341.635 555.454 340.983 555.638 340.505C555.762 340.179 556.035 339.934 556.37 339.836C557.198 339.597 558.832 339.382 560.327 338.028C561.169 337.269 564.392 335.232 564.392 335.232L564.409 335.229C564.48 335.23 564.818 335.334 566.282 336.571C567.04 337.209 568.332 335.67 568.332 335.67C568.332 335.67 568.575 335.871 568.756 336.245C568.901 336.54 569.007 336.945 568.923 337.445C568.806 338.149 569.181 339.458 569.482 340.342C569.665 340.879 569.818 341.259 569.818 341.259C569.818 341.259 569.904 341.698 568.322 341.896Z" fill="#231F20"/>
<path d="M568.754 336.24C568.315 336.549 567.387 337.159 566.773 337.239C565.943 337.349 564.39 335.23 564.39 335.23L564.407 335.226C564.478 335.228 564.816 335.331 566.281 336.568C567.038 337.207 568.33 335.667 568.33 335.667C568.33 335.667 568.574 335.866 568.754 336.24Z" fill="#231F20"/>
<path d="M568.323 341.895H566.484C565.869 341.799 565.412 341.619 564.781 341.536C563.823 341.41 563.38 341.805 563.292 341.895C563.28 341.906 563.274 341.914 563.274 341.914H555.461C555.266 341.634 555.454 340.982 555.638 340.505C555.875 340.294 555.943 341.421 556.073 341.602C556.203 341.782 562.448 341.667 562.808 341.404C563.169 341.141 564.25 340.683 565.759 341.044C567.071 341.356 569.005 340.553 569.485 340.34C569.667 340.877 569.82 341.256 569.82 341.256C569.82 341.256 569.904 341.697 568.323 341.895Z" fill="#231F20"/>
<path d="M578.137 341.895H576.299C575.683 341.799 575.227 341.619 574.596 341.537C573.637 341.41 573.194 341.805 573.106 341.895C573.095 341.907 573.089 341.914 573.089 341.914H565.276C565.079 341.634 565.268 340.982 565.453 340.505C565.577 340.179 565.849 339.934 566.185 339.836C567.013 339.596 568.647 339.381 570.142 338.028C570.984 337.268 574.207 335.232 574.207 335.232L574.224 335.228C574.295 335.23 574.632 335.333 576.097 336.57C576.855 337.209 578.147 335.669 578.147 335.669C578.147 335.669 578.388 335.87 578.571 336.244C578.716 336.54 578.822 336.944 578.739 337.445C578.622 338.148 578.998 339.458 579.299 340.342C579.481 340.879 579.635 341.258 579.635 341.258C579.635 341.258 579.721 341.698 578.137 341.895Z" fill="#231F20"/>
<path d="M578.568 336.24C578.129 336.549 577.203 337.159 576.588 337.239C575.758 337.349 574.207 335.23 574.207 335.23L574.224 335.226C574.295 335.228 574.632 335.331 576.097 336.568C576.854 337.207 578.147 335.667 578.147 335.667C578.147 335.667 578.388 335.866 578.568 336.24Z" fill="#231F20"/>
<path d="M578.137 341.895H576.299C575.683 341.799 575.227 341.619 574.596 341.536C573.637 341.41 573.194 341.805 573.106 341.895C573.095 341.906 573.089 341.914 573.089 341.914H565.276C564.99 341.569 565.268 340.982 565.452 340.505C565.69 340.294 565.757 341.421 565.888 341.602C566.018 341.782 572.263 341.667 572.623 341.404C572.984 341.141 574.065 340.683 575.574 341.044C576.885 341.356 578.82 340.553 579.299 340.34C579.481 340.877 579.635 341.256 579.635 341.256C579.635 341.256 579.721 341.697 578.137 341.895Z" fill="#231F20"/>
<path d="M581.966 263.052C580.016 262.4 577.512 260.668 574.508 256.784C566.551 246.498 573.833 234.411 574.809 234.186C575.785 233.96 577.621 242.006 577.621 242.006C578.893 250.327 581.778 259.261 581.966 263.052Z" fill="#6653A2"/>
<path d="M576.494 216.814C576.494 216.814 569.504 221.775 568.903 233.335C568.303 244.896 578.712 247.249 578.712 247.249L578.038 243.596C578.038 243.596 569.605 240.543 571.806 231.334C574.007 222.124 580.346 217.382 580.346 217.382L576.494 216.814Z" fill="#231F20"/>
<path d="M591.083 264.954C591.083 264.954 591.88 266.833 592.711 267.359C593.541 267.882 594.896 270.043 594.546 271.009C594.365 271.508 592.922 273.023 591.269 272.866C590.224 272.766 589.52 268.103 589.215 267.228C588.909 266.354 588.648 266.179 588.648 266.179L591.083 264.954Z" fill="#FFB27D"/>
<path d="M525.03 259.651C525.03 259.651 532.043 256.458 537.351 259.252C542.658 262.046 539.414 285.1 531.825 287.334C531.825 287.334 515.534 307.135 525.03 259.651Z" fill="#231F20"/>
<path d="M512.611 262.322C512.266 259.626 512.937 254.736 512.937 254.736C512.937 254.736 510.554 254.614 509.222 257.754C506.457 264.262 507.657 278.312 507.826 280.323C507.826 280.323 506.877 284.317 508.288 291.226C508.081 291.717 507.799 292.353 507.63 292.608C507.605 292.637 507.582 292.666 507.561 292.698C507.391 292.957 507.373 293.304 507.55 293.582L508.462 295.03C508.549 295.166 508.669 295.268 508.807 295.333C508.853 295.354 508.899 295.371 508.949 295.383L510.08 295.649L510.192 291.795C510.19 291.791 510.184 291.791 510.178 291.793C510.567 287.997 512.928 264.797 512.611 262.322ZM509.687 292.071L509.664 292.041L509.712 292.069C509.701 292.073 509.691 292.075 509.687 292.071Z" fill="#FFB27D"/>
<path d="M532.808 338.658L531.907 341.912H524.292C524.292 341.912 522.023 337.753 532.808 338.658Z" fill="#233862"/>
<path d="M516.477 338.658L515.576 341.912H507.96C507.96 341.912 505.694 337.753 516.477 338.658Z" fill="#233862"/>
<path d="M531.326 240.541C531.823 238.384 531.209 236.791 530.22 235.257C529.271 233.786 527.936 233.723 526.654 232.476C525.446 231.303 523.197 230.532 521.406 230.532C515.675 230.532 510.713 234.041 511.845 239.989C512.203 241.88 511.9 243.37 513.432 245.578C515.344 248.336 517.669 250.551 521.404 250.551C523.387 250.551 525.124 250.092 526.652 248.648C527.484 247.862 528.678 247.764 529.411 246.907C530.893 245.178 530.784 242.898 531.326 240.541Z" fill="black"/>
<path d="M517.432 247.586C517.432 247.586 518.689 252.447 516.147 254.514L523.289 258.165L524.23 253.44C524.23 253.44 522.881 249.749 523.251 244.608L517.432 247.586Z" fill="#FFB27D"/>
<path d="M517.249 250.035C517.249 250.035 524.56 250.927 524.715 245.775C524.871 240.624 521.824 237.288 519.79 237.326C515.735 237.403 515.066 239.04 514.596 240.747C514.124 242.453 513.883 249.671 517.249 250.035Z" fill="#FFB27D"/>
<path d="M510.274 288.961L524.721 290.156C524.721 290.156 526.418 315.495 516.925 338.986L508.831 338.833L510.274 288.961Z" fill="#231F20"/>
<path d="M532.693 290.418C532.693 290.418 537.137 307.687 533.533 339.204L523.728 339.206L519.025 298.289C518.844 297.078 516.567 295.39 516.567 295.39L516.479 290.714L532.693 290.418Z" fill="#231F20"/>
<path d="M533.021 264.807L533.966 257.047C533.823 256.846 533.709 256.675 533.566 256.502C531.905 254.47 525.521 253.582 524.232 253.438C524.223 253.454 524.175 253.549 523.993 253.741C522.819 254.802 521.224 255.929 519.105 255.643C517.301 255.415 517.008 254.47 517.064 253.438C513.285 254.067 511.135 255.258 511.135 255.258C507.285 256.702 506.511 269.495 506.511 269.495C507.023 269.342 509.578 269.79 510.763 270.011L510.286 288.975C519.477 292.984 532.705 290.407 532.705 290.407L532.676 290.292L531.788 275.115L532.619 268.185L533.021 264.807Z" fill="#B64C41"/>
<path d="M527.129 289.791C527.754 290.574 530.834 290.85 532.684 290.282L531.783 275.127L533.023 264.818L531.825 264.262C531.825 264.262 526.564 268.482 527.179 271.846C527.795 275.211 526.324 288.785 527.129 289.791Z" fill="#B64C41"/>
<path d="M538.432 265.58C538.432 265.58 534.365 267.097 532.621 268.186C532.277 268.387 532.047 268.558 531.905 268.73L526.351 257.678L525.291 255.588L524.317 253.613L524.23 253.44C524.23 253.44 524.307 253.446 524.459 253.469C525.003 253.527 526.349 253.699 527.894 254.042C528.868 254.273 529.927 254.529 530.872 254.901H530.901C532.045 255.331 533.019 255.876 533.564 256.504C533.708 256.677 533.821 256.848 533.965 257.049C535.826 259.711 538.432 265.58 538.432 265.58Z" fill="#B64C41"/>
<path d="M532.638 286.409C532.638 286.409 512.664 264.949 525.291 255.586C526.035 255.013 526.896 254.497 527.896 254.038C528.87 254.269 529.929 254.525 530.874 254.897C529.842 255.183 527.896 255.929 526.351 257.674C523.287 261.081 522.058 268.512 532.481 283.6L532.638 286.409Z" fill="#231F20"/>
<path d="M517.98 237.374C517.98 237.374 524.227 237.37 522.792 241.659C521.887 244.363 524.896 244.783 524.896 244.783L526.343 240.449L525.436 237.074L517.98 237.374Z" fill="black"/>
<path d="M538.25 265.62C536.319 266.216 533.403 267.514 532.517 268.387C533.498 270.643 534.051 272.137 534.051 272.137C533.312 271.809 529.495 271.499 527.516 271.357C527.292 271.339 525.482 270.747 525.482 270.747C525.482 270.747 525.467 267.658 521.933 267.413C521.933 267.413 520.461 267.422 520.764 268.427C521.067 269.432 521.097 268.996 521.492 270.423C521.887 271.851 522.913 272.937 524.006 273.002C529.252 277.414 536.476 277.45 538.654 277.349C539.041 277.331 539.375 277.059 539.461 276.681C540.288 273.096 539.722 269.378 538.25 265.62Z" fill="#FFB27D"/>
<path d="M256.572 333.631H249.915L238.908 339.521L257.836 339.295L256.572 333.631Z" fill="#070808"/>
<path d="M257.901 341.786L257.836 339.295L238.908 339.521L238.973 342.012L257.901 341.786Z" fill="white"/>
<path d="M245.316 335.8L247.496 336.396" stroke="white" stroke-width="1.4566" stroke-miterlimit="10" stroke-linecap="round" stroke-linejoin="round"/>
<path d="M247.448 334.706L249.628 335.303" stroke="white" stroke-width="1.4566" stroke-miterlimit="10" stroke-linecap="round" stroke-linejoin="round"/>
<path d="M249.212 324.247H255.997L256.572 333.631H249.789L249.212 324.247Z" fill="#F9B189"/>
<path d="M244.773 262.581L248.955 330.615H258.403L256.77 262.581H244.773Z" fill="#070808"/>
<path d="M271.871 333.631H265.214L254.207 339.521L273.134 339.295L271.871 333.631Z" fill="#070808"/>
<path d="M273.199 341.786L273.134 339.295L254.207 339.521L254.272 342.012L273.199 341.786Z" fill="white"/>
<path d="M260.614 335.8L262.794 336.396" stroke="white" stroke-width="1.4566" stroke-miterlimit="10" stroke-linecap="round" stroke-linejoin="round"/>
<path d="M262.744 334.706L264.926 335.303" stroke="white" stroke-width="1.4566" stroke-miterlimit="10" stroke-linecap="round" stroke-linejoin="round"/>
<path d="M263.835 324.247H270.62L271.87 333.631H265.085L263.835 324.247Z" fill="#F9B189"/>
<path d="M264.776 262.581L274.025 330.615H263.699L250.255 262.581H264.776Z" fill="#070808"/>
<path d="M257.671 300.108L252.391 273.393L248.537 270.882" stroke="#111111" stroke-width="0.6376" stroke-miterlimit="10" stroke-linecap="round" stroke-linejoin="round"/>
<path d="M266.132 272.553L260.363 268.011" stroke="#111111" stroke-width="0.6376" stroke-miterlimit="10" stroke-linecap="round" stroke-linejoin="round"/>
<path d="M242.994 236.724L232.485 250.524C231.323 251.822 231.251 253.767 232.313 255.147C233.653 256.888 236.222 257.046 237.764 255.479L249.058 242.415C250.608 240.841 250.657 238.333 249.173 236.699C247.515 234.874 244.639 234.885 242.994 236.724Z" fill="#F9B189"/>
<path d="M248.142 231.487C248.142 231.487 243.004 232.128 239.071 239.753L245.115 246.998L248.142 231.487Z" fill="#E6515B"/>
<path d="M239.69 251.091L225.284 242.054L222.416 245.015L232.861 255.718L239.69 251.091Z" fill="#F9B189"/>
<path d="M222.975 236.407L215.832 238.492C215.832 238.492 215.832 244.029 222.421 245.03C222.782 245.086 224.404 244.465 224.682 244.215L225.778 241.09C226.168 240.578 226.133 239.861 225.7 239.385L222.975 236.407Z" fill="#F9B189"/>
<path d="M223.566 237.328L221.039 234.011C220.663 233.549 220.021 233.451 219.597 233.792C219.188 234.12 219.123 234.74 219.445 235.211L221.779 238.851L223.566 237.328Z" fill="#F8B0A0"/>
<path d="M220.511 239.976L217.476 236.979C217.056 236.557 216.433 236.515 216.077 236.883C215.733 237.236 215.755 237.846 216.125 238.281L219.022 241.608L220.511 239.976Z" fill="#F8B0A0"/>
<path d="M221.681 237.928L218.813 235.094C218.389 234.676 217.747 234.659 217.369 235.054C217.007 235.433 217.013 236.062 217.385 236.495L220.101 239.677L221.681 237.928Z" fill="#F8B0A0"/>
<path d="M216.852 229.227L215.715 229.3V236.766L219.707 243.017L220.92 242.917L218.779 235.065L216.852 229.227Z" fill="#2A428F"/>
<path d="M223.543 239.591L220.207 242.735C219.902 243.115 219.323 243.109 219.024 242.726L211.759 233.658C211.581 233.428 211.585 233.108 211.767 232.881L215.266 229.533C215.519 229.217 216.002 229.223 216.25 229.543L223.551 238.659C223.765 238.933 223.762 239.318 223.543 239.591Z" fill="#020403"/>
<path d="M224.653 239.518L221.317 242.662C221.012 243.042 220.433 243.036 220.134 242.653L212.87 233.585C212.691 233.355 212.695 233.035 212.877 232.808L216.376 229.46C216.629 229.144 217.113 229.15 217.36 229.47L224.661 238.586C224.876 238.86 224.872 239.245 224.653 239.518Z" fill="white"/>
<path d="M225.008 242.106C225.399 241.914 226.375 240.896 226.203 239.353C225.976 237.322 224.926 235.782 224.926 235.782C224.577 235.129 224.174 234.812 223.606 234.891C222.993 234.977 222.598 235.631 222.709 236.083L223.35 237.502C223.35 237.502 222.646 239.301 224.118 242.028L225.008 242.106Z" fill="#F9B189"/>
<path d="M257.809 230.024C257.809 230.024 261.695 230.933 264.466 232.331C266.21 233.211 266.404 235.111 266.183 237.054L264.776 262.581H244.773L243.374 237.919C243.182 235.213 244.769 232.561 247.338 231.689C250.214 230.711 252.032 229.779 253.564 229.691L257.809 230.024Z" fill="#E6515B"/>
<path d="M243.797 245.422L243.374 237.918" stroke="#111111" stroke-width="0.6376" stroke-miterlimit="10" stroke-linecap="round" stroke-linejoin="round"/>
<path d="M257.809 230.024L260.115 230.659C260.115 230.659 258.403 233.961 252.18 233.401C247.816 233.01 249.574 230.874 249.574 230.874L251.745 230.087L257.809 230.024Z" fill="#F9B189"/>
<path d="M276.714 244.681L266.383 259.888L269.165 262.931L280.567 251.758L276.714 244.681Z" fill="#F9B189"/>
<path d="M256.892 260.581L261.31 258.333L260.877 257.363C260.719 257.01 260.817 256.594 261.114 256.349C261.423 256.096 261.866 256.088 262.182 256.332L266.535 259.748L269.165 262.93C266.778 264.974 265.219 264.949 264.32 264.552C264.215 264.586 264.111 264.625 264.006 264.655L260.334 265.708C259.995 265.854 259.6 265.712 259.433 265.382C259.312 265.142 259.27 264.759 259.975 264.4L259.268 264.759C258.909 264.914 258.491 264.757 258.323 264.404C258.166 264.092 258.359 263.679 258.773 263.409L258.233 263.622C257.842 263.791 257.379 263.599 257.234 263.183C257.107 262.824 257.297 262.427 257.636 262.255L258.417 261.86L257.489 262.084C257.061 262.235 256.586 262.007 256.446 261.559C256.327 261.175 256.534 260.763 256.892 260.581Z" fill="#F9B189"/>
<path d="M258.183 261.971L260.796 260.738" stroke="#111111" stroke-width="0.4141" stroke-miterlimit="10" stroke-linecap="round" stroke-linejoin="round"/>
<path d="M258.887 263.365L261.404 262.316" stroke="#111111" stroke-width="0.4141" stroke-miterlimit="10" stroke-linecap="round" stroke-linejoin="round"/>
<path d="M259.742 264.495L261.876 263.653" stroke="#111111" stroke-width="0.4141" stroke-miterlimit="10" stroke-linecap="round" stroke-linejoin="round"/>
<path d="M262.224 240.488L275.36 251.818C276.585 253.056 278.519 253.248 279.963 252.27C281.783 251.039 282.095 248.483 280.626 246.85L268.275 234.781C266.799 233.14 264.299 232.937 262.577 234.319C260.654 235.863 260.489 238.733 262.224 240.488Z" fill="#F9B189"/>
<path d="M261.632 231.155C261.632 231.155 268.488 232.495 274.112 239.625L268.153 247.394L259.607 241.274L261.632 231.155Z" fill="#E6515B"/>
<path d="M247.183 208.595C247.183 208.595 244.869 210.662 246.788 215.308L249.965 209.038L247.183 208.595Z" fill="#070808"/>
<path d="M260.148 209.154C260.148 209.154 262.851 208.861 263.465 213.03C264.078 217.198 261.015 219.691 257.615 221.706L260.148 209.154Z" fill="#070808"/>
<path d="M254.513 222.418C258.795 222.418 262.267 218.866 262.267 214.484C262.267 210.102 258.795 206.549 254.513 206.549C250.231 206.549 246.76 210.102 246.76 214.484C246.76 218.866 250.231 222.418 254.513 222.418Z" fill="#070808"/>
<path d="M248.502 219.048C249.476 218.566 249.874 217.385 249.392 216.412C248.91 215.438 247.729 215.04 246.756 215.522C245.782 216.004 245.384 217.184 245.866 218.158C246.348 219.132 247.528 219.53 248.502 219.048Z" fill="#F3805F"/>
<path d="M251.71 222.468L251.593 231.027L257.978 229.973L257.516 217.693L251.71 222.468Z" fill="#F9B189"/>
<path d="M251.647 226.805L256.131 222.418L251.505 223.231L251.647 226.805Z" fill="#F3805F"/>
<path d="M247.686 210.671C247.686 210.671 245.958 217.567 246.739 220.215C247.519 222.863 249.574 224.579 253.006 224.015C253.006 224.015 256.965 223.94 258.135 218.102C259.897 209.31 251.944 206.093 247.686 210.671Z" fill="#F9B189"/>
<path d="M257.027 218.096C257.027 218.096 254.492 212.277 257.245 211.141C258.072 210.8 258.555 210.628 258.946 213.546C259.337 216.462 258.317 216.94 258.317 216.94L257.027 218.096Z" fill="#070808"/>
<path d="M260.529 218.763C260.171 219.828 259.019 220.401 257.955 220.042C256.89 219.684 256.317 218.531 256.676 217.467C257.034 216.403 258.187 215.83 259.251 216.188C260.315 216.547 260.888 217.699 260.529 218.763Z" fill="#F9B189"/>
<path d="M259.538 217.549C259.538 217.549 258.062 217.076 257.615 218.704" stroke="#111111" stroke-width="0.3944" stroke-miterlimit="10" stroke-linecap="round" stroke-linejoin="round"/>
<path d="M258.07 211.206C258.07 211.206 256.009 212.982 250.907 211.954C245.805 210.926 245.605 207.467 246.219 206.254C246.219 206.254 248.096 207.711 251.189 206.913C252.914 206.468 256.768 204.846 259.08 206.583C259.878 207.182 260.342 208.175 260.148 209.153C260 209.912 259.494 210.777 258.07 211.206Z" fill="#070808"/>
<path d="M188.01 238.026H168.361V259.628H188.01V238.026Z" fill="white"/>
<path d="M174.868 239.979H169.339V245.509H174.868V239.979ZM173.762 244.403H170.445V241.085H173.762V244.403Z" fill="black"/>
<path d="M172.656 242.19H171.549V243.296H172.656V242.19Z" fill="black"/>
<path d="M181.504 239.979V245.509H187.033V239.979H181.504ZM185.927 244.403H182.61V241.085H185.927V244.403Z" fill="black"/>
<path d="M184.821 242.19H183.715V243.296H184.821V242.19Z" fill="black"/>
<path d="M169.339 257.675H174.868V252.145H169.339V257.675ZM170.445 253.25H173.762V256.567H170.445V253.25Z" fill="black"/>
<path d="M172.656 254.357H171.549V255.463H172.656V254.357Z" fill="black"/>
<path d="M180.398 239.979H178.185V241.085H180.398V239.979Z" fill="black"/>
<path d="M178.185 244.403H179.292V243.296H180.398V242.19H177.079V241.084H175.975V242.19V242.744V243.296H178.185V244.403Z" fill="black"/>
<path d="M177.081 244.402H175.975V245.509H177.081V244.402Z" fill="black"/>
<path d="M180.398 245.509H179.292V246.614H175.975V247.72H180.398V245.509Z" fill="black"/>
<path d="M170.445 249.933H171.55V248.827H170.445V246.614H169.339V251.039H170.445V249.933Z" fill="black"/>
<path d="M172.656 246.614H171.549V247.72H172.656V246.614Z" fill="black"/>
<path d="M175.975 251.039H178.185V249.933H177.079V248.827H174.868V246.614H173.762V248.827H172.656V251.039H173.762V249.933H174.314H174.868H175.975V251.039Z" fill="black"/>
<path d="M180.398 248.827H179.292V251.039H180.398V248.827Z" fill="black"/>
<path d="M179.292 252.145H175.975V253.25H178.185V256.569H175.975V257.675H179.292V256.569H181.504V255.462H179.292V252.145Z" fill="black"/>
<path d="M177.081 254.357H175.975V255.463H177.081V254.357Z" fill="black"/>
<path d="M181.504 252.145H180.397V254.358H181.504V252.145Z" fill="black"/>
<path d="M185.927 254.357H182.61V257.676H183.715V255.463H185.927V254.357Z" fill="black"/>
<path d="M187.033 256.569H184.821V257.675H187.033V256.569Z" fill="black"/>
<path d="M187.034 252.145H185.927V253.252H187.034V252.145Z" fill="black"/>
<path d="M182.61 253.25H183.715V249.932H181.504V251.039H182.61V253.25Z" fill="black"/>
<path d="M184.821 247.72H183.715V246.614H182.61V247.72H181.504V248.827H185.927V247.72H187.033V246.614H184.821V247.72Z" fill="black"/>
<path d="M187.033 249.932H184.821V251.039H187.033V249.932Z" fill="black"/>
<path d="M218.318 231.347L214.608 234.382L217.944 238.46L221.654 235.426L218.318 231.347Z" fill="white"/>
<path d="M216.127 233.756L215.083 234.609L215.936 235.654L216.981 234.801L216.127 233.756ZM216.603 234.762L215.976 235.274L215.464 234.647L216.091 234.135L216.603 234.762Z" fill="black"/>
<path d="M216.061 234.503L215.852 234.674L216.023 234.884L216.232 234.713L216.061 234.503Z" fill="black"/>
<path d="M217.381 232.732L218.235 233.777L219.279 232.923L218.426 231.878L217.381 232.732ZM218.9 232.883L218.273 233.395L217.761 232.768L218.388 232.256L218.9 232.883Z" fill="black"/>
<path d="M218.358 232.625L218.148 232.796L218.32 233.005L218.529 232.834L218.358 232.625Z" fill="black"/>
<path d="M217.817 237.951L218.862 237.097L218.008 236.052L216.963 236.906L217.817 237.951ZM217.341 236.946L217.968 236.434L218.48 237.061L217.853 237.573L217.341 236.946Z" fill="black"/>
<path d="M217.94 236.801L217.731 236.972L217.902 237.181L218.111 237.01L217.94 236.801Z" fill="black"/>
<path d="M217.181 232.89L216.764 233.232L216.935 233.441L217.352 233.1L217.181 232.89Z" fill="black"/>
<path d="M217.437 234.079L217.646 233.909L217.475 233.7L217.684 233.529L217.513 233.32L216.886 233.832L216.716 233.623L216.507 233.794L216.677 234.003L216.764 234.108L216.848 234.212L217.266 233.87L217.437 234.079Z" fill="black"/>
<path d="M217.239 234.239L217.029 234.41L217.2 234.619L217.41 234.448L217.239 234.239Z" fill="black"/>
<path d="M218.026 233.947L217.817 234.118L217.987 234.327L217.36 234.839L217.533 235.048L218.367 234.363L218.026 233.947Z" fill="black"/>
<path d="M216.829 236.32L217.038 236.149L216.868 235.94L216.659 236.111L216.317 235.693L216.108 235.863L216.791 236.699L217 236.529L216.829 236.32Z" fill="black"/>
<path d="M216.744 235.34L216.535 235.511L216.706 235.72L216.916 235.549L216.744 235.34Z" fill="black"/>
<path d="M218.045 235.673L218.463 235.332L218.292 235.123L218.083 235.293L217.913 235.086L217.495 235.428L217.153 235.01L216.944 235.18L217.286 235.598L217.077 235.769L217.418 236.187L217.627 236.016L217.456 235.807L217.56 235.721L217.665 235.637L217.874 235.466L218.045 235.673Z" fill="black"/>
<path d="M218.548 234.56L218.339 234.731L218.68 235.148L218.889 234.977L218.548 234.56Z" fill="black"/>
<path d="M218.842 235.37L218.215 235.882L218.386 236.091L218.804 235.75L219.316 236.377L218.898 236.718L219.069 236.927L219.695 236.415L219.525 236.206L219.943 235.865L219.772 235.656L219.354 235.997L218.842 235.37Z" fill="black"/>
<path d="M218.776 236.118L218.567 236.289L218.738 236.498L218.947 236.327L218.776 236.118Z" fill="black"/>
<path d="M219.27 235.017L219.061 235.188L219.402 235.605L219.611 235.434L219.27 235.017Z" fill="black"/>
<path d="M220.436 234.764L219.809 235.276L220.322 235.903L220.531 235.731L220.188 235.315L220.606 234.973L220.436 234.764Z" fill="black"/>
<path d="M220.995 235L220.578 235.341L220.749 235.55L221.166 235.209L220.995 235Z" fill="black"/>
<path d="M220.313 234.162L220.104 234.333L220.275 234.543L220.484 234.372L220.313 234.162Z" fill="black"/>
<path d="M219.638 235.067L219.847 234.897L219.335 234.27L218.917 234.611L219.088 234.82L219.297 234.649L219.638 235.067Z" fill="black"/>
<path d="M219.203 233.681L218.994 233.851L218.823 233.642L218.614 233.813L218.785 234.022L218.576 234.193L218.746 234.402L219.582 233.719L219.412 233.51L219.621 233.339L219.45 233.13L219.032 233.472L219.203 233.681Z" fill="black"/>
<path d="M219.971 233.745L219.554 234.087L219.725 234.296L220.142 233.955L219.971 233.745Z" fill="black"/>
<path d="M253.491 215.674C253.234 215.759 253.094 216.033 253.181 216.288C253.265 216.543 253.543 216.681 253.8 216.597C254.057 216.512 254.197 216.238 254.111 215.983C254.026 215.728 253.748 215.59 253.491 215.674Z" fill="#1A2E35"/>
<path d="M252.811 215.657C252.866 215.713 253.183 215.441 253.647 215.41C254.111 215.374 254.462 215.598 254.509 215.537C254.532 215.51 254.475 215.408 254.32 215.306C254.168 215.205 253.915 215.113 253.626 215.134C253.336 215.155 253.098 215.282 252.964 215.402C252.828 215.523 252.784 215.632 252.811 215.657Z" fill="#1A2E35"/>
<path d="M248.359 215.674C248.102 215.759 247.962 216.033 248.048 216.288C248.132 216.543 248.41 216.681 248.667 216.597C248.924 216.512 249.064 216.238 248.978 215.983C248.893 215.728 248.615 215.59 248.359 215.674Z" fill="#1A2E35"/>
<path d="M247.667 215.667C247.722 215.723 248.039 215.45 248.502 215.42C248.966 215.383 249.317 215.608 249.365 215.546C249.388 215.519 249.331 215.418 249.175 215.316C249.024 215.215 248.771 215.123 248.481 215.144C248.192 215.165 247.954 215.291 247.82 215.412C247.682 215.535 247.638 215.642 247.667 215.667Z" fill="#1A2E35"/>
<path d="M251.164 219.46C251.164 219.423 250.872 219.389 250.403 219.362C250.28 219.358 250.182 219.339 250.169 219.276C250.142 219.205 250.178 219.072 250.228 218.925C250.322 218.612 250.418 218.294 250.518 217.962C250.915 216.593 251.181 215.466 251.11 215.446C251.039 215.427 250.661 216.52 250.265 217.889C250.171 218.223 250.082 218.543 249.994 218.858C249.962 219 249.891 219.168 249.969 219.362C250.011 219.458 250.111 219.523 250.194 219.536C250.276 219.554 250.345 219.548 250.403 219.546C250.872 219.527 251.164 219.496 251.164 219.46Z" fill="#1A2E35"/>
<path d="M252.711 219.845C251.783 220.296 251.352 220.434 250.493 220.683C250.493 220.683 251.104 221.496 252.044 221.067C253.022 220.62 252.711 219.845 252.711 219.845Z" fill="white"/>
<path d="M254.463 214.482C254.358 214.616 253.994 214.553 253.518 214.534C253.045 214.495 252.675 214.515 252.588 214.367C252.491 214.213 252.949 213.864 253.56 213.914C254.172 213.939 254.58 214.342 254.463 214.482Z" fill="#1A2E35"/>
<path d="M249.112 214.396C249.078 214.566 248.769 214.647 248.424 214.679C248.077 214.708 247.759 214.681 247.696 214.52C247.63 214.363 247.922 214.1 248.369 214.062C248.815 214.022 249.149 214.231 249.112 214.396Z" fill="#1A2E35"/>
<path d="M563.796 203.497C563.771 203.626 564.181 203.522 564.559 203.797C564.942 204.061 565.161 204.612 565.268 204.543C565.318 204.508 565.316 204.374 565.24 204.197C565.165 204.021 565.008 203.808 564.78 203.645C564.551 203.484 564.304 203.409 564.118 203.402C563.932 203.39 563.809 203.436 563.796 203.497Z" fill="#1A2E35"/>
<path d="M520.528 241.655C520.298 241.73 520.175 241.975 520.25 242.203C520.327 242.429 520.574 242.554 520.802 242.477C521.032 242.403 521.155 242.157 521.08 241.929C521.005 241.701 520.756 241.578 520.528 241.655Z" fill="#1A2E35"/>
<path d="M519.92 241.638C519.97 241.686 520.252 241.444 520.666 241.417C521.08 241.385 521.393 241.584 521.437 241.528C521.458 241.504 521.406 241.413 521.268 241.323C521.134 241.233 520.908 241.151 520.649 241.17C520.392 241.189 520.179 241.302 520.058 241.41C519.935 241.519 519.895 241.617 519.92 241.638Z" fill="#1A2E35"/>
<path d="M515.945 241.656C515.715 241.73 515.593 241.976 515.667 242.204C515.744 242.43 515.991 242.555 516.219 242.478C516.45 242.403 516.572 242.158 516.497 241.93C516.423 241.702 516.175 241.579 515.945 241.656Z" fill="#1A2E35"/>
<path d="M515.326 241.648C515.376 241.696 515.658 241.454 516.072 241.427C516.486 241.394 516.799 241.594 516.843 241.538C516.864 241.513 516.812 241.423 516.674 241.333C516.54 241.243 516.314 241.161 516.055 241.18C515.798 241.199 515.585 241.31 515.464 241.419C515.342 241.529 515.301 241.625 515.326 241.648Z" fill="#1A2E35"/>
<path d="M518.45 245.032C518.45 244.999 518.191 244.968 517.769 244.945C517.66 244.941 517.573 244.924 517.56 244.869C517.535 244.805 517.568 244.688 517.612 244.556C517.696 244.276 517.781 243.994 517.871 243.697C518.225 242.474 518.461 241.469 518.4 241.452C518.337 241.434 517.999 242.41 517.644 243.634C517.562 243.933 517.481 244.217 517.403 244.499C517.374 244.625 517.311 244.777 517.38 244.949C517.416 245.035 517.506 245.093 517.581 245.104C517.654 245.12 517.715 245.116 517.767 245.114C518.189 245.093 518.45 245.064 518.45 245.032Z" fill="#1A2E35"/>
<path d="M519.83 245.377C519.002 245.78 518.617 245.903 517.85 246.125C517.85 246.125 518.394 246.852 519.236 246.466C520.108 246.068 519.83 245.377 519.83 245.377Z" fill="white"/>
<path d="M521.395 240.589C521.301 240.71 520.95 240.51 520.526 240.493C520.102 240.459 519.798 240.618 519.721 240.487C519.633 240.351 520.043 240.039 520.588 240.083C521.134 240.104 521.5 240.464 521.395 240.589Z" fill="#1A2E35"/>
<path d="M516.617 240.512C516.586 240.664 516.241 240.42 515.932 240.449C515.622 240.474 515.409 240.767 515.351 240.621C515.294 240.481 515.553 240.247 515.953 240.213C516.352 240.178 516.649 240.364 516.617 240.512Z" fill="#1A2E35"/>
<path d="M559.394 204.473C559.423 204.544 559.812 204.441 560.237 204.609C560.667 204.772 560.893 205.116 560.96 205.081C560.993 205.068 560.979 204.955 560.882 204.801C560.786 204.65 560.594 204.464 560.328 204.36C560.061 204.257 559.798 204.268 559.63 204.316C559.459 204.366 559.379 204.441 559.394 204.473Z" fill="#1A2E35"/>
<path d="M563.629 205.589C563.679 205.649 564.017 205.432 564.475 205.465C564.933 205.49 565.253 205.749 565.307 205.697C565.334 205.674 565.286 205.57 565.146 205.453C565.01 205.338 564.77 205.217 564.484 205.2C564.199 205.183 563.951 205.271 563.806 205.369C563.66 205.465 563.604 205.563 563.629 205.589Z" fill="#1A2E35"/>
<path d="M561.727 207.469C561.735 207.444 561.469 207.331 561.031 207.168C560.92 207.129 560.817 207.081 560.817 206.999C560.809 206.911 560.886 206.798 560.972 206.679C561.145 206.428 561.325 206.165 561.513 205.889C562.272 204.761 562.849 203.824 562.805 203.793C562.759 203.762 562.107 204.652 561.348 205.779C561.164 206.058 560.987 206.324 560.819 206.577C560.746 206.696 560.636 206.826 560.654 207.01C560.665 207.103 560.734 207.185 560.801 207.221C560.868 207.262 560.934 207.277 560.989 207.294C561.44 207.425 561.72 207.494 561.727 207.469Z" fill="#1A2E35"/>
<path d="M562.941 208.751C562.851 208.544 562.657 208.389 562.446 208.314C562.141 208.207 561.796 208.264 561.562 208.458C561.405 208.619 561.464 208.901 561.484 208.968C561.641 209.169 561.656 209.342 561.879 209.464C562.101 209.587 562.663 209.51 562.841 209.353C563 209.215 563.031 208.958 562.941 208.751Z" fill="#FF9A6C"/>
<path d="M562.97 208.086C562.899 208.065 562.784 208.55 562.287 208.798C561.793 209.045 561.288 208.871 561.267 208.938C561.254 208.966 561.361 209.058 561.578 209.116C561.791 209.173 562.119 209.177 562.423 209.028C562.726 208.876 562.901 208.619 562.964 208.426C563.029 208.224 563.004 208.092 562.97 208.086Z" fill="#1A2E35"/>
<path d="M559.666 202.754C559.766 202.849 560.054 202.472 560.477 202.426C560.899 202.366 561.321 202.656 561.394 202.539C561.424 202.483 561.359 202.384 561.192 202.301C561.029 202.219 560.763 202.163 560.472 202.198C560.182 202.234 559.939 202.353 559.8 202.472C559.661 202.596 559.622 202.708 559.666 202.754Z" fill="#1A2E35"/>
<path d="M446.415 177.797C446.384 178.033 446.561 178.253 446.806 178.29C447.052 178.326 447.276 178.163 447.305 177.927C447.335 177.691 447.159 177.471 446.914 177.434C446.668 177.398 446.444 177.561 446.415 177.797Z" fill="#1A2E35"/>
<path d="M446.308 176.923C446.357 176.986 446.72 176.765 447.203 176.811C447.686 176.85 448.018 177.13 448.075 177.076C448.104 177.053 448.056 176.942 447.912 176.815C447.771 176.689 447.521 176.556 447.22 176.531C446.919 176.506 446.657 176.593 446.501 176.692C446.344 176.792 446.283 176.894 446.308 176.923Z" fill="#1A2E35"/>
<path d="M450.974 178.4C450.943 178.635 451.12 178.856 451.365 178.892C451.611 178.929 451.835 178.766 451.864 178.53C451.894 178.294 451.718 178.074 451.473 178.037C451.229 178.003 451.005 178.164 450.974 178.4Z" fill="#1A2E35"/>
<path d="M451.045 177.446C451.095 177.51 451.459 177.289 451.94 177.335C452.424 177.374 452.755 177.654 452.813 177.6C452.842 177.577 452.794 177.466 452.65 177.339C452.508 177.212 452.259 177.08 451.958 177.055C451.657 177.03 451.394 177.117 451.239 177.216C451.08 177.316 451.02 177.418 451.045 177.446Z" fill="#1A2E35"/>
<path d="M448.965 180.865C448.969 180.838 448.674 180.758 448.194 180.652C448.072 180.627 447.959 180.593 447.945 180.507C447.924 180.414 447.987 180.286 448.06 180.148C448.204 179.86 448.354 179.559 448.511 179.243C449.14 177.952 449.606 176.888 449.554 176.863C449.502 176.838 448.95 177.864 448.321 179.155C448.17 179.473 448.024 179.776 447.886 180.067C447.826 180.204 447.732 180.355 447.778 180.545C447.803 180.641 447.888 180.716 447.964 180.744C448.041 180.775 448.11 180.783 448.171 180.792C448.658 180.863 448.961 180.892 448.965 180.865Z" fill="#1A2E35"/>
<path d="M450.355 181.329C450.276 181.317 450.228 181.841 449.745 182.172C449.264 182.504 448.71 182.395 448.7 182.468C448.691 182.5 448.815 182.581 449.051 182.609C449.281 182.638 449.626 182.594 449.921 182.393C450.217 182.19 450.36 181.896 450.399 181.683C450.439 181.465 450.391 181.329 450.355 181.329Z" fill="#1A2E35"/>
<path d="M451.093 175.542C451.13 175.678 451.617 175.659 452.177 175.78C452.738 175.889 453.181 176.096 453.266 175.985C453.304 175.931 453.237 175.801 453.062 175.657C452.892 175.513 452.61 175.366 452.274 175.297C451.937 175.228 451.622 175.254 451.408 175.32C451.191 175.385 451.078 175.479 451.093 175.542Z" fill="#1A2E35"/>
<path d="M446.614 175.542C446.689 175.659 447.032 175.577 447.433 175.607C447.834 175.625 448.166 175.749 448.254 175.64C448.292 175.588 448.25 175.473 448.112 175.356C447.976 175.239 447.74 175.132 447.464 175.116C447.188 175.099 446.94 175.178 446.793 175.277C446.637 175.375 446.582 175.485 446.614 175.542Z" fill="#1A2E35"/>
<path d="M629.086 343.613H3.83243C3.49882 343.613 3.22656 343.25 3.22656 342.807C3.22656 342.364 3.49882 342 3.83243 342H629.086C629.419 342 629.691 342.362 629.691 342.807C629.691 343.25 629.419 343.613 629.086 343.613Z" fill="#2E3552"/>
</g>
<defs>
<linearGradient id="paint0_linear" x1="344.074" y1="183.118" x2="550.45" y2="123.582" gradientUnits="userSpaceOnUse">
<stop stop-color="#D6DCFD"/>
<stop offset="1" stop-color="#D6DCFD" stop-opacity="0"/>
</linearGradient>
<clipPath id="clip0">
<rect width="632.364" height="348.18" fill="white"/>
</clipPath>
</defs>
</svg>
