<svg width="187" height="88" viewBox="0 0 187 88" fill="none" xmlns="http://www.w3.org/2000/svg">
<path d="M184.185 3.43408L178.46 73.1937C178.019 80.1941 171.765 85.9168 164.555 85.9168H47.2272C18.2158 85.9168 16.2419 75.0574 17.7003 54.5503L22.4078 3.43408H184.185Z" fill="white"/>
<path d="M67.7059 3.43408L61.5672 85.9168H32.1962C3.18482 85.9168 1.21093 75.0574 2.6693 54.5503L7.37679 3.43408H67.7059Z" fill="#510C76"/>
<path d="M74.5635 36.8169L73.5121 51.9042C73.0915 57.8904 77.7312 62.79 83.8156 62.79H88.5367C94.6212 62.79 99.9391 57.8904 100.36 51.9042L102.171 25.9377H86.3865C80.302 25.9311 74.9772 30.8307 74.5635 36.8169ZM90.7683 51.9042C90.7141 52.6747 89.9747 53.353 89.1947 53.353H84.4736C83.6868 53.353 83.0492 52.6747 83.0966 51.9042L84.148 36.8169C84.2023 36.0464 84.9416 35.3681 85.7217 35.3681H91.9215L90.7683 51.9042Z" fill="#510C76"/>
<path d="M162.059 25.9297H146.274L144.463 51.8962C144.395 52.9104 144.477 53.8982 144.68 54.8334C144.463 54.8465 144.246 54.8597 144.022 54.8597C139.05 54.8597 136.642 51.4879 137.09 45.1461L137.857 34.1484H137.802L138.074 30.2827C138.243 27.8856 136.385 25.9297 133.949 25.9297H128.652C128.652 25.9297 128.516 27.8856 128.347 30.2827L127.621 40.6812C127.607 40.8853 127.594 41.0829 127.58 41.2804L127.512 42.288C127.485 42.7095 127.458 43.098 127.431 43.4405L127.397 43.9476C127.377 44.2307 127.363 44.4612 127.349 44.639L127.336 44.7905C127.336 44.8168 127.329 44.8432 127.329 44.8695L127.322 44.9683C127.322 45.0078 127.316 45.0342 127.316 45.0342L127.132 47.6947C126.97 50.026 127.112 52.1201 127.519 53.9838C126.413 54.5633 125.145 54.8531 123.714 54.8531C119.427 54.8531 113.878 53.5031 113.878 46.2525L114.991 30.2761C115.16 27.879 113.302 25.9231 110.867 25.9231H105.569C105.569 25.9231 105.433 27.879 105.264 30.2761L102.727 67.7936C102.557 70.1907 102.157 75.9859 102.157 75.9859H107.455C109.89 75.9859 112.02 74.03 112.182 71.6329L112.739 62.433C114.19 63.2299 118.05 63.6579 120.288 63.6579C123.829 63.6579 127.302 62.2486 129.975 59.3905C132.213 62.1564 135.713 63.6579 140.346 63.6579C143.371 63.6579 146.349 62.782 148.893 61.0237C149.612 61.814 150.995 62.624 152.203 62.9138H152.21C153.017 63.1047 153.865 63.2233 154.747 63.2233H159.468C165.552 63.2233 170.87 58.3237 171.291 52.3375L172.342 36.7957C172.783 30.8293 168.15 25.9297 162.059 25.9297ZM161.726 52.3572C161.672 53.1277 160.933 53.806 160.153 53.806H155.432C154.645 53.806 154.007 53.1277 154.055 52.3572L155.208 35.3667H161.408C162.194 35.3667 162.832 36.045 162.785 36.8155L161.726 52.3572Z" fill="#510C76"/>
<path d="M80.0711 17.0394L79.9287 19.1138C79.7794 21.2805 81.4549 23.0585 83.6594 23.0585H85.3688C87.5733 23.0585 89.4997 21.287 89.6489 19.1138L90.0695 13.0947H84.3513C82.1536 13.0947 80.2204 14.8662 80.0711 17.0394Z" fill="#510C76"/>
<path d="M91.0125 17.0394L90.8701 19.1138C90.7209 21.2805 92.3963 23.0585 94.6008 23.0585H96.3102C98.5147 23.0585 100.441 21.287 100.59 19.1138L101.011 13.0947H95.2927C93.0882 13.0947 91.1618 14.8662 91.0125 17.0394Z" fill="#510C76"/>
<path d="M109.591 22.9927L111.728 23.0059C114.021 23.0389 115.805 21.5637 115.825 19.4234L115.954 17.7639C116.117 15.5248 114.916 13.187 112.684 13.1672L106.023 13.1014L105.576 18.6464C105.549 20.7866 107.36 22.8215 109.591 22.9927Z" fill="#E7630F"/>
<path d="M114.591 70.1117L114.448 72.1862C114.299 74.3528 115.974 76.1309 118.179 76.1309H119.888C122.093 76.1309 124.019 74.3594 124.168 72.1862L124.589 66.167H118.871C116.673 66.167 114.747 67.9451 114.591 70.1117Z" fill="#510C76"/>
<path d="M126.217 70.1117L126.075 72.1862C125.925 74.3528 127.601 76.1309 129.805 76.1309H131.515C133.719 76.1309 135.646 74.3594 135.795 72.1862L136.215 66.167H130.497C128.3 66.167 126.366 67.9451 126.217 70.1117Z" fill="#510C76"/>
<path d="M133.264 22.7436C132.864 22.7436 132.457 22.7436 132.057 22.7436C131.813 22.7436 131.745 22.6646 131.758 22.4341C131.874 20.8009 132.003 19.1612 132.111 17.528C132.138 17.1197 132.145 16.7114 132.111 16.3031C132.071 15.7697 131.82 15.5458 131.27 15.5392C130.816 15.5326 130.361 15.5655 129.907 15.5853C129.798 15.5919 129.737 15.6248 129.757 15.7565C129.893 16.527 129.798 17.2712 129.737 18.0285C129.656 19.1217 129.574 20.2148 129.493 21.308C129.466 21.6965 129.425 22.0785 129.398 22.467C129.384 22.6712 129.276 22.7568 129.059 22.7568C128.252 22.7502 127.444 22.7568 126.644 22.7568C126.379 22.7568 126.318 22.6909 126.339 22.4473C126.468 20.768 126.597 19.0887 126.719 17.4029C126.746 17.0341 126.753 16.6521 126.725 16.2768C126.698 15.8026 126.474 15.5853 125.986 15.5589C125.532 15.5326 125.084 15.5523 124.636 15.5392C124.507 15.5392 124.501 15.6116 124.494 15.7038C124.419 16.7509 124.338 17.798 124.263 18.8451C124.175 20.037 124.087 21.229 123.999 22.4209C123.978 22.6844 123.897 22.7568 123.619 22.7568C122.818 22.7568 122.018 22.7568 121.224 22.7568C120.967 22.7568 120.899 22.6778 120.912 22.4209C121.041 20.6626 121.163 18.8977 121.292 17.1394C121.38 15.9672 121.462 14.795 121.55 13.6228C121.57 13.3726 121.625 13.3001 121.923 13.2606C122.54 13.175 123.164 13.0762 123.788 13.0301C124.806 12.9511 125.823 12.9182 126.854 13.0565C127.431 13.1355 128.001 13.2409 128.55 13.478C128.631 13.5109 128.74 13.5043 128.821 13.478C129.907 13.1223 131.039 12.9248 132.22 12.9775C132.701 12.9972 133.197 13.0762 133.665 13.2014C134.573 13.4384 135.062 14.064 135.225 14.9333C135.36 15.6314 135.293 16.3228 135.245 17.0077C135.136 18.4499 135.028 19.8855 134.919 21.3278C134.892 21.7097 134.858 22.0851 134.824 22.467C134.804 22.6909 134.729 22.7568 134.492 22.7568C134.085 22.7436 133.678 22.7436 133.264 22.7436Z" fill="#510C76"/>
<path d="M151.715 18.8509C150.833 18.8509 149.951 18.8575 149.069 18.8509C148.906 18.8509 148.845 18.897 148.838 19.0551C148.805 19.8651 149.096 20.201 149.944 20.2536C150.568 20.2866 151.185 20.2734 151.809 20.2734C152.434 20.2734 153.051 20.2734 153.675 20.2734C153.987 20.2734 154.055 20.3327 154.034 20.6225C154 21.1691 153.96 21.7091 153.912 22.2491C153.899 22.4269 153.811 22.5388 153.621 22.5586C152.732 22.6442 151.85 22.7759 150.955 22.8088C150.127 22.8418 149.293 22.7891 148.459 22.7364C147.889 22.6969 147.326 22.5388 146.824 22.2096C146.22 21.8144 145.969 21.2349 145.84 20.5961C145.657 19.6873 145.705 18.7851 145.773 17.8894C145.834 17.0728 145.922 16.2628 146.152 15.4791C146.397 14.6559 146.804 13.9513 147.59 13.5232C148.052 13.273 148.56 13.1413 149.089 13.0688C150.27 12.9173 151.457 12.8976 152.657 13.1083C153.186 13.2005 153.695 13.3652 154.123 13.7405C154.645 14.2081 154.828 14.8074 154.909 15.433C155.052 16.4735 154.97 17.4943 154.875 18.5151C154.862 18.6929 154.747 18.8114 154.557 18.8312C154.455 18.8444 154.353 18.8509 154.251 18.8509C153.404 18.8509 152.556 18.8509 151.715 18.8509ZM148.933 17.0333C149.062 17.0333 149.137 17.0333 149.212 17.0333C149.917 17.0333 150.616 17.0333 151.321 17.0333C151.986 17.0333 152.02 16.9938 151.884 16.3352C151.796 15.9006 151.559 15.6504 151.111 15.5845C150.806 15.545 150.494 15.5318 150.195 15.5516C149.686 15.5911 149.293 15.8216 149.117 16.2957C149.035 16.5196 149.001 16.7567 148.933 17.0333Z" fill="#510C76"/>
<path d="M141.974 18.8504C141.106 18.8504 140.238 18.857 139.369 18.8438C139.152 18.8372 139.112 18.9228 139.112 19.1006C139.112 19.8975 139.383 20.1807 140.211 20.2465C140.448 20.2663 140.692 20.2597 140.93 20.2597C141.947 20.2597 142.964 20.2597 143.982 20.2597C144.253 20.2597 144.328 20.3255 144.314 20.5824C144.28 21.1421 144.233 21.6953 144.192 22.2485C144.179 22.4197 144.09 22.5251 143.907 22.5448C143.046 22.6304 142.191 22.7424 141.323 22.7951C140.367 22.8609 139.403 22.8412 138.433 22.6831C137.992 22.6107 137.565 22.4856 137.178 22.2485C136.541 21.86 136.263 21.2738 136.127 20.6087C135.917 19.588 135.978 18.5804 136.086 17.586C136.154 16.9209 136.256 16.2491 136.405 15.6038C136.609 14.7213 137.036 13.9706 137.864 13.5096C138.325 13.2593 138.834 13.121 139.363 13.0552C140.536 12.9037 141.73 12.884 142.931 13.0947C143.473 13.1869 143.995 13.3581 144.423 13.7533C144.938 14.234 145.142 14.8399 145.183 15.4721C145.23 16.2294 145.21 16.9867 145.21 17.7506C145.21 17.9943 145.176 18.2379 145.155 18.475C145.135 18.6792 145.02 18.8043 144.796 18.8241C144.701 18.8306 144.606 18.8372 144.511 18.8372C143.67 18.8504 142.822 18.8504 141.974 18.8504ZM142.212 17.0196C142.191 16.7628 142.184 16.5257 142.144 16.2886C142.069 15.8869 141.818 15.6367 141.404 15.584C141.099 15.5445 140.787 15.5247 140.489 15.5511C139.661 15.6169 139.247 16.1635 139.274 17.0196C140.238 17.0196 141.201 17.0196 142.212 17.0196Z" fill="#510C76"/>
<path d="M167.804 15.532C167.201 15.532 166.604 15.532 166 15.532C165.742 15.532 165.668 15.4595 165.681 15.2225C165.722 14.6627 165.776 14.0963 165.81 13.5366C165.824 13.3653 165.912 13.2797 166.075 13.2534C167.458 13.0031 168.876 12.9109 170.314 12.9834C170.938 13.0163 171.562 13.0888 172.173 13.2863C173.326 13.6617 173.78 14.3927 173.746 15.453C173.712 16.6581 173.597 17.8501 173.509 19.0486C173.448 19.9574 173.373 20.8662 173.312 21.775C173.278 22.269 173.149 22.4204 172.647 22.506C170.918 22.809 169.154 22.9011 167.37 22.7892C166.943 22.7629 166.509 22.6904 166.088 22.5916C165.281 22.3941 164.806 21.8541 164.657 21.0836C164.487 20.2011 164.542 19.3384 164.86 18.5284C165.206 17.6327 165.932 17.1915 166.882 17.0401C167.363 16.961 167.859 16.9281 168.354 16.9149C169.039 16.8886 169.731 16.8952 170.423 16.8952C170.558 16.8952 170.626 16.8622 170.613 16.7239C170.606 16.691 170.613 16.6581 170.613 16.6252C170.653 15.9205 170.321 15.5649 169.582 15.5517C168.991 15.5254 168.394 15.5386 167.804 15.532ZM170.457 18.693C169.785 18.693 169.134 18.6733 168.496 18.6996C168.069 18.7128 167.757 18.9103 167.682 19.345C167.662 19.4701 167.648 19.6018 167.655 19.7335C167.669 20.155 167.852 20.346 168.286 20.3987C168.951 20.4777 169.595 20.4184 170.233 20.3065C170.28 20.2999 170.341 20.234 170.348 20.1879C170.389 19.7006 170.423 19.2067 170.457 18.693Z" fill="#510C76"/>
<path d="M159.766 20.1809C159.895 20.1809 159.97 20.1809 160.044 20.1809C161.211 20.1809 162.378 20.1809 163.544 20.1809C163.632 20.1809 163.721 20.1875 163.809 20.2007C163.938 20.2205 164.006 20.3061 163.999 20.4312C163.958 21.1029 163.911 21.7812 163.856 22.453C163.836 22.6834 163.734 22.7427 163.449 22.7427C162.323 22.7427 161.197 22.7427 160.071 22.7427C158.565 22.7427 157.053 22.7427 155.547 22.7427C155.181 22.7427 155.106 22.6703 155.133 22.3146C155.167 21.8866 155.201 21.4519 155.255 21.0239C155.269 20.8988 155.337 20.7605 155.418 20.6683C156.673 19.226 157.935 17.797 159.196 16.3613C159.42 16.1045 159.651 15.8411 159.909 15.5448C159.78 15.5448 159.705 15.5448 159.637 15.5448C158.518 15.5448 157.399 15.5448 156.28 15.5448C155.9 15.5448 155.845 15.4921 155.873 15.1233C155.913 14.5569 155.954 13.984 155.988 13.4176C156.008 13.141 156.11 13.0554 156.436 13.0554C158.579 13.0554 160.723 13.0554 162.866 13.0554C163.232 13.0554 163.605 13.0554 163.972 13.0554C164.229 13.062 164.304 13.141 164.284 13.3913C164.25 13.8589 164.229 14.3198 164.182 14.7874C164.168 14.9257 164.114 15.0706 164.026 15.1694C162.669 16.7762 161.299 18.3699 159.936 19.9702C159.895 20.0163 159.854 20.0756 159.766 20.1809Z" fill="#510C76"/>
<path d="M143.561 66.7269C141.282 66.7269 139.281 68.663 139.125 71.0206L138.779 76.1638H165.749C168.028 76.1638 170.029 74.2277 170.185 71.8701L170.531 66.7269H143.561Z" fill="#E7630F"/>
<path d="M161.557 87.8858H32.2503C18.6365 87.8858 10.3815 85.6073 5.47048 80.5035C-0.539372 74.254 -0.376577 64.4285 0.362784 54.0629L5.26699 0.806335L186.926 0.997309L181.174 70.2961C180.373 79.8318 171.392 87.8858 161.557 87.8858ZM9.58784 5.40298L5.07706 54.4251C4.28344 65.5809 4.66329 72.9303 8.92987 77.3689C12.8098 81.4058 20.2238 83.2892 32.2503 83.2892H161.557C169.032 83.2892 175.849 77.1713 176.453 69.9273L181.798 5.58079L9.58784 5.40298Z" fill="white"/>
<path d="M40.7088 63.0455H25.3518C22.9099 63.0455 21.0717 61.116 21.248 58.7518L23.4118 29.9405C23.5882 27.5763 25.7181 25.6467 28.16 25.6467H43.517C45.9589 25.6467 47.7972 27.5763 47.6208 29.9405L45.457 58.7518C45.2739 61.1226 43.144 63.0455 40.7088 63.0455ZM27.9362 28.5773C27.1629 28.5773 26.4846 29.1897 26.4303 29.9405L24.2665 58.7518C24.2122 59.5026 24.7956 60.115 25.5689 60.115H40.9259C41.6991 60.115 42.3775 59.5026 42.4317 58.7518L44.5955 29.9405C44.6498 29.1897 44.0665 28.5773 43.2932 28.5773H27.9362Z" fill="white"/>
<path d="M44.6494 53.8655L44.4323 56.7432H23.0452L23.2622 53.8655H44.6494Z" fill="white"/>
</svg>
