<svg width="24" height="25" viewBox="0 0 24 25" fill="none" xmlns="http://www.w3.org/2000/svg">
<path fill-rule="evenodd" clip-rule="evenodd" d="M6.6 4.91797C5.166 4.91797 4 6.08397 4 7.51797C4 14.906 10.011 20.918 17.4 20.918C18.833 20.918 20 19.752 20 18.318C20 18.207 19.993 18.098 19.979 17.99L15.359 16.93C15.267 17.106 15.166 17.297 15.074 17.475C14.618 18.345 14.288 18.977 13.446 18.638C10.14 17.478 7.441 14.778 6.266 11.432C5.909 10.647 6.589 10.291 7.451 9.84097C7.626 9.74897 7.815 9.64997 7.988 9.55997L6.928 4.93897C6.817 4.92497 6.709 4.91797 6.6 4.91797ZM17.4 22.918C8.908 22.918 2 16.01 2 7.51797C2 4.98097 4.063 2.91797 6.6 2.91797C6.86 2.91797 7.117 2.93997 7.366 2.98297C7.609 3.02197 7.853 3.08397 8.091 3.16597C8.416 3.27897 8.661 3.55197 8.738 3.88797L10.107 9.85197C10.183 10.18 10.088 10.524 9.854 10.768C9.718 10.91 9.715 10.913 8.475 11.562C9.479 13.736 11.224 15.475 13.354 16.445C14.004 15.204 14.008 15.2 14.15 15.064C14.394 14.83 14.74 14.739 15.066 14.811L21.031 16.18C21.366 16.257 21.639 16.501 21.751 16.826C21.833 17.062 21.895 17.306 21.936 17.557C21.978 17.804 22 18.06 22 18.318C22 20.855 19.936 22.918 17.4 22.918Z" fill="#494B52"/>
<mask id="mask0" mask-type="alpha" maskUnits="userSpaceOnUse" x="2" y="2" width="20" height="21">
<path fill-rule="evenodd" clip-rule="evenodd" d="M6.6 4.91797C5.166 4.91797 4 6.08397 4 7.51797C4 14.906 10.011 20.918 17.4 20.918C18.833 20.918 20 19.752 20 18.318C20 18.207 19.993 18.098 19.979 17.99L15.359 16.93C15.267 17.106 15.166 17.297 15.074 17.475C14.618 18.345 14.288 18.977 13.446 18.638C10.14 17.478 7.441 14.778 6.266 11.432C5.909 10.647 6.589 10.291 7.451 9.84097C7.626 9.74897 7.815 9.64997 7.988 9.55997L6.928 4.93897C6.817 4.92497 6.709 4.91797 6.6 4.91797ZM17.4 22.918C8.908 22.918 2 16.01 2 7.51797C2 4.98097 4.063 2.91797 6.6 2.91797C6.86 2.91797 7.117 2.93997 7.366 2.98297C7.609 3.02197 7.853 3.08397 8.091 3.16597C8.416 3.27897 8.661 3.55197 8.738 3.88797L10.107 9.85197C10.183 10.18 10.088 10.524 9.854 10.768C9.718 10.91 9.715 10.913 8.475 11.562C9.479 13.736 11.224 15.475 13.354 16.445C14.004 15.204 14.008 15.2 14.15 15.064C14.394 14.83 14.74 14.739 15.066 14.811L21.031 16.18C21.366 16.257 21.639 16.501 21.751 16.826C21.833 17.062 21.895 17.306 21.936 17.557C21.978 17.804 22 18.06 22 18.318C22 20.855 19.936 22.918 17.4 22.918Z" fill="white"/>
</mask>
<g mask="url(#mask0)">
<rect y="0.917969" width="24" height="24" fill="#494B52"/>
</g>
</svg>
