<svg width="24" height="25" viewBox="0 0 24 25" fill="none" xmlns="http://www.w3.org/2000/svg">
<path fill-rule="evenodd" clip-rule="evenodd" d="M12 11.9184C11.173 11.9184 10.5 11.2454 10.5 10.4184C10.5 9.59144 11.173 8.91845 12 8.91845C12.827 8.91845 13.5 9.59144 13.5 10.4184C13.5 11.2454 12.827 11.9184 12 11.9184ZM12 6.91845C10.07 6.91845 8.49999 8.48845 8.49999 10.4184C8.49999 12.3484 10.07 13.9184 12 13.9184C13.93 13.9184 15.5 12.3484 15.5 10.4184C15.5 8.48845 13.93 6.91845 12 6.91845ZM12 20.5649C10.325 18.9809 6.00003 14.5339 6.00003 10.8409C6.00003 7.57594 8.69103 4.91895 12 4.91895C15.309 4.91895 18 7.57594 18 10.8409C18 14.5339 13.675 18.9809 12 20.5649ZM12 2.91895C7.589 2.91895 4 6.47195 4 10.8409C4 16.3159 11.049 22.4199 11.349 22.6769C11.537 22.8379 11.768 22.9189 12 22.9189C12.232 22.9189 12.463 22.8379 12.651 22.6769C12.951 22.4199 20 16.3159 20 10.8409C20 6.47195 16.411 2.91895 12 2.91895Z" fill="#494B52"/>
<mask id="mask0" mask-type="alpha" maskUnits="userSpaceOnUse" x="4" y="2" width="16" height="21">
<path fill-rule="evenodd" clip-rule="evenodd" d="M12 11.9184C11.173 11.9184 10.5 11.2454 10.5 10.4184C10.5 9.59144 11.173 8.91845 12 8.91845C12.827 8.91845 13.5 9.59144 13.5 10.4184C13.5 11.2454 12.827 11.9184 12 11.9184ZM12 6.91845C10.07 6.91845 8.49999 8.48845 8.49999 10.4184C8.49999 12.3484 10.07 13.9184 12 13.9184C13.93 13.9184 15.5 12.3484 15.5 10.4184C15.5 8.48845 13.93 6.91845 12 6.91845ZM12 20.5649C10.325 18.9809 6.00003 14.5339 6.00003 10.8409C6.00003 7.57594 8.69103 4.91895 12 4.91895C15.309 4.91895 18 7.57594 18 10.8409C18 14.5339 13.675 18.9809 12 20.5649ZM12 2.91895C7.589 2.91895 4 6.47195 4 10.8409C4 16.3159 11.049 22.4199 11.349 22.6769C11.537 22.8379 11.768 22.9189 12 22.9189C12.232 22.9189 12.463 22.8379 12.651 22.6769C12.951 22.4199 20 16.3159 20 10.8409C20 6.47195 16.411 2.91895 12 2.91895Z" fill="white"/>
</mask>
<g mask="url(#mask0)">
</g>
</svg>
