<svg width="55" height="54" viewBox="0 0 55 54" fill="none" xmlns="http://www.w3.org/2000/svg">
<path d="M51.5625 23.5394C52.2463 23.5394 52.902 23.2737 53.3855 22.8007C53.869 22.3277 54.1406 21.6862 54.1406 21.0173V12.6104C54.1406 11.9415 53.869 11.3 53.3855 10.827C52.902 10.354 52.2463 10.0883 51.5625 10.0883H36.0938C35.41 10.0883 34.7542 10.354 34.2707 10.827C33.7872 11.3 33.5156 11.9415 33.5156 12.6104V21.858H24.9219V12.6104C24.9219 11.9415 24.6503 11.3 24.1668 10.827C23.6833 10.354 23.0275 10.0883 22.3438 10.0883H13.75C13.0662 10.0883 12.4105 10.354 11.927 10.827C11.4435 11.3 11.1719 11.9415 11.1719 12.6104V21.0173C11.1719 21.6862 11.4435 22.3277 11.927 22.8007C12.4105 23.2737 13.0662 23.5394 13.75 23.5394H18.0469V31.1056C18.0469 31.3286 18.1374 31.5424 18.2986 31.7001C18.4597 31.8578 18.6783 31.9463 18.9062 31.9463H23.2031V38.6719H13.75C13.0662 38.6719 12.4105 38.9376 11.927 39.4106C11.4435 39.8836 11.1719 40.5251 11.1719 41.194V49.6009C11.1719 50.2698 11.4435 50.9113 11.927 51.3843C12.4105 51.8573 13.0662 52.123 13.75 52.123H22.3438C23.0275 52.123 23.6833 51.8573 24.1668 51.3843C24.6503 50.9113 24.9219 50.2698 24.9219 49.6009V40.3533H40.3906V49.6009C40.3906 50.2698 40.6622 50.9113 41.1457 51.3843C41.6292 51.8573 42.285 52.123 42.9688 52.123H51.5625C52.2463 52.123 52.902 51.8573 53.3855 51.3843C53.869 50.9113 54.1406 50.2698 54.1406 49.6009V41.194C54.1406 40.5251 53.869 39.8836 53.3855 39.4106C52.902 38.9376 52.2463 38.6719 51.5625 38.6719H42.1094V31.1056C42.1094 30.8827 42.0188 30.6688 41.8577 30.5112C41.6965 30.3535 41.4779 30.265 41.25 30.265H35.2344V23.5394H51.5625Z" fill="#CBC2EC"/>
<path d="M17.1875 1.6814H3.4375C2.75374 1.6814 2.09798 1.94711 1.61449 2.4201C1.131 2.89308 0.859375 3.53458 0.859375 4.20347V17.6546C0.859375 18.3235 1.131 18.965 1.61449 19.4379C2.09798 19.9109 2.75374 20.1766 3.4375 20.1766H17.1875C17.8713 20.1766 18.527 19.9109 19.0105 19.4379C19.494 18.965 19.7656 18.3235 19.7656 17.6546V4.20347C19.7656 3.53458 19.494 2.89308 19.0105 2.4201C18.527 1.94711 17.8713 1.6814 17.1875 1.6814ZM18.0469 17.6546C18.0469 17.8775 17.9563 18.0914 17.7952 18.249C17.634 18.4067 17.4154 18.4953 17.1875 18.4953H3.4375C3.20958 18.4953 2.99099 18.4067 2.82983 18.249C2.66867 18.0914 2.57812 17.8775 2.57812 17.6546V4.20347C2.57812 3.98051 2.66867 3.76668 2.82983 3.60902C2.99099 3.45136 3.20958 3.36278 3.4375 3.36278H17.1875C17.4154 3.36278 17.634 3.45136 17.7952 3.60902C17.9563 3.76668 18.0469 3.98051 18.0469 4.20347V17.6546Z" fill="#6654A4"/>
<path d="M17.1875 25.2208H3.4375C2.75374 25.2208 2.09798 25.4865 1.61449 25.9595C1.131 26.4325 0.859375 27.074 0.859375 27.7429V41.194C0.859375 41.8629 1.131 42.5044 1.61449 42.9774C2.09798 43.4504 2.75374 43.7161 3.4375 43.7161H17.1875C17.8713 43.7161 18.527 43.4504 19.0105 42.9774C19.494 42.5044 19.7656 41.8629 19.7656 41.194V27.7429C19.7656 27.074 19.494 26.4325 19.0105 25.9595C18.527 25.4865 17.8713 25.2208 17.1875 25.2208ZM18.0469 41.194C18.0469 41.417 17.9563 41.6308 17.7952 41.7885C17.634 41.9461 17.4154 42.0347 17.1875 42.0347H3.4375C3.20958 42.0347 2.99099 41.9461 2.82983 41.7885C2.66867 41.6308 2.57812 41.417 2.57812 41.194V27.7429C2.57812 27.5199 2.66867 27.3061 2.82983 27.1484C2.99099 26.9908 3.20958 26.9022 3.4375 26.9022H17.1875C17.4154 26.9022 17.634 26.9908 17.7952 27.1484C17.9563 27.3061 18.0469 27.5199 18.0469 27.7429V41.194Z" fill="#6654A4"/>
<path d="M41.25 1.6814H27.5C26.8162 1.6814 26.1605 1.94711 25.677 2.4201C25.1935 2.89308 24.9219 3.53458 24.9219 4.20347V17.6546C24.9219 18.3235 25.1935 18.965 25.677 19.4379C26.1605 19.9109 26.8162 20.1766 27.5 20.1766H41.25C41.9338 20.1766 42.5895 19.9109 43.073 19.4379C43.5565 18.965 43.8281 18.3235 43.8281 17.6546V4.20347C43.8281 3.53458 43.5565 2.89308 43.073 2.4201C42.5895 1.94711 41.9338 1.6814 41.25 1.6814ZM42.1094 17.6546C42.1094 17.8775 42.0188 18.0914 41.8577 18.249C41.6965 18.4067 41.4779 18.4953 41.25 18.4953H27.5C27.2721 18.4953 27.0535 18.4067 26.8923 18.249C26.7312 18.0914 26.6406 17.8775 26.6406 17.6546V4.20347C26.6406 3.98051 26.7312 3.76668 26.8923 3.60902C27.0535 3.45136 27.2721 3.36278 27.5 3.36278H41.25C41.4779 3.36278 41.6965 3.45136 41.8577 3.60902C42.0188 3.76668 42.1094 3.98051 42.1094 4.20347V17.6546Z" fill="#6654A4"/>
<path d="M10.3125 7.56622C9.63263 7.56622 8.96802 7.76345 8.40273 8.13295C7.83744 8.50246 7.39684 9.02765 7.13667 9.64212C6.87649 10.2566 6.80842 10.9327 6.94105 11.585C7.07369 12.2374 7.40108 12.8365 7.88182 13.3068C8.36257 13.7771 8.97507 14.0974 9.64188 14.2272C10.3087 14.3569 10.9999 14.2903 11.628 14.0358C12.2561 13.7813 12.793 13.3503 13.1707 12.7973C13.5484 12.2442 13.75 11.5941 13.75 10.929C13.75 10.0371 13.3878 9.1818 12.7432 8.55116C12.0985 7.92051 11.2242 7.56622 10.3125 7.56622ZM10.3125 12.6104C9.97257 12.6104 9.64026 12.5118 9.35762 12.327C9.07497 12.1423 8.85467 11.8797 8.72458 11.5724C8.5945 11.2652 8.56046 10.9271 8.62678 10.601C8.6931 10.2748 8.85679 9.97522 9.09716 9.74008C9.33753 9.50493 9.64379 9.34479 9.97719 9.27992C10.3106 9.21504 10.6562 9.24834 10.9702 9.3756C11.2843 9.50286 11.5527 9.71836 11.7416 9.99487C11.9304 10.2714 12.0313 10.5964 12.0313 10.929C12.0313 11.3749 11.8502 11.8026 11.5278 12.1179C11.2055 12.4332 10.7683 12.6104 10.3125 12.6104Z" fill="#6654A4"/>
<path d="M34.375 7.56622C33.6951 7.56622 33.0305 7.76345 32.4652 8.13295C31.8999 8.50246 31.4593 9.02765 31.1992 9.64212C30.939 10.2566 30.8709 10.9327 31.0036 11.585C31.1362 12.2374 31.4636 12.8365 31.9443 13.3068C32.4251 13.7771 33.0376 14.0974 33.7044 14.2272C34.3712 14.3569 35.0624 14.2903 35.6905 14.0358C36.3186 13.7813 36.8555 13.3503 37.2332 12.7973C37.6109 12.2442 37.8125 11.5941 37.8125 10.929C37.8125 10.0371 37.4503 9.1818 36.8057 8.55116C36.161 7.92051 35.2867 7.56622 34.375 7.56622ZM34.375 12.6104C34.0351 12.6104 33.7028 12.5118 33.4201 12.327C33.1375 12.1423 32.9172 11.8797 32.7871 11.5724C32.657 11.2652 32.623 10.9271 32.6893 10.601C32.7556 10.2748 32.9193 9.97522 33.1597 9.74008C33.4 9.50493 33.7063 9.34479 34.0397 9.27992C34.3731 9.21504 34.7187 9.24834 35.0327 9.3756C35.3468 9.50286 35.6152 9.71836 35.8041 9.99487C35.993 10.2714 36.0938 10.5964 36.0938 10.929C36.0938 11.3749 35.9127 11.8026 35.5903 12.1179C35.268 12.4332 34.8308 12.6104 34.375 12.6104Z" fill="#6654A4"/>
<path d="M10.3125 31.1057C9.63263 31.1057 8.96802 31.3029 8.40273 31.6724C7.83744 32.0419 7.39684 32.5671 7.13667 33.1815C6.87649 33.796 6.80842 34.4722 6.94105 35.1245C7.07369 35.7768 7.40108 36.376 7.88182 36.8463C8.36257 37.3166 8.97507 37.6368 9.64188 37.7666C10.3087 37.8963 10.9999 37.8297 11.628 37.5752C12.2561 37.3207 12.793 36.8897 13.1707 36.3367C13.5484 35.7837 13.75 35.1335 13.75 34.4684C13.75 33.5766 13.3878 32.7212 12.7432 32.0906C12.0985 31.4599 11.2242 31.1057 10.3125 31.1057ZM10.3125 36.1498C9.97257 36.1498 9.64026 36.0512 9.35762 35.8664C9.07497 35.6817 8.85467 35.4191 8.72458 35.1119C8.5945 34.8046 8.56046 34.4666 8.62678 34.1404C8.6931 33.8142 8.85679 33.5146 9.09716 33.2795C9.33753 33.0444 9.64379 32.8842 9.97719 32.8193C10.3106 32.7545 10.6562 32.7878 10.9702 32.915C11.2843 33.0423 11.5527 33.2578 11.7416 33.5343C11.9304 33.8108 12.0313 34.1359 12.0313 34.4684C12.0313 34.9144 11.8502 35.342 11.5278 35.6573C11.2055 35.9727 10.7683 36.1498 10.3125 36.1498Z" fill="#6654A4"/>
<path d="M40.3906 31.9464H35.2344V28.5836C35.2344 27.9147 34.9628 27.2732 34.4793 26.8002C33.9958 26.3272 33.34 26.0615 32.6562 26.0615H27.5C26.8162 26.0615 26.1605 26.3272 25.677 26.8002C25.1935 27.2732 24.9219 27.9147 24.9219 28.5836V33.6278C24.9219 34.2967 25.1935 34.9382 25.677 35.4111C26.1605 35.8841 26.8162 36.1498 27.5 36.1498H30.9375V41.194C30.9375 41.8629 31.2091 42.5044 31.6926 42.9774C32.1761 43.4504 32.8319 43.7161 33.5156 43.7161H40.3906C41.0744 43.7161 41.7301 43.4504 42.2136 42.9774C42.6971 42.5044 42.9688 41.8629 42.9688 41.194V34.4685C42.9688 33.7996 42.6971 33.1581 42.2136 32.6851C41.7301 32.2121 41.0744 31.9464 40.3906 31.9464ZM41.25 41.194C41.25 41.417 41.1595 41.6308 40.9983 41.7885C40.8371 41.9461 40.6185 42.0347 40.3906 42.0347H33.5156C33.2877 42.0347 33.0691 41.9461 32.908 41.7885C32.7468 41.6308 32.6562 41.417 32.6562 41.194V35.3091C32.6562 35.0862 32.5657 34.8723 32.4045 34.7147C32.2434 34.557 32.0248 34.4685 31.7969 34.4685H27.5C27.2721 34.4685 27.0535 34.3799 26.8923 34.2222C26.7312 34.0646 26.6406 33.8507 26.6406 33.6278V28.5836C26.6406 28.3606 26.7312 28.1468 26.8923 27.9891C27.0535 27.8315 27.2721 27.7429 27.5 27.7429H32.6562C32.8842 27.7429 33.1028 27.8315 33.2639 27.9891C33.4251 28.1468 33.5156 28.3606 33.5156 28.5836V32.7871C33.5156 33.01 33.6062 33.2239 33.7673 33.3815C33.9285 33.5392 34.1471 33.6278 34.375 33.6278H40.3906C40.6185 33.6278 40.8371 33.7163 40.9983 33.874C41.1595 34.0317 41.25 34.2455 41.25 34.4685V41.194Z" fill="#6654A4"/>
</svg>
