<svg width="400" height="352" viewBox="0 0 400 352" fill="none" xmlns="http://www.w3.org/2000/svg">
<path d="M203.498 351.698L61.8066 269.854V266.066L203.498 347.922L346.09 265.548V269.335L203.498 351.698Z" fill="#6654A4"/>
<path d="M203.498 347.922L61.8066 266.066L204.398 183.704L346.089 265.548L203.498 347.922Z" fill="#EBF5F8"/>
<path d="M167.799 221.209L163.236 223.849L167.774 226.464L172.336 223.824L167.799 221.209Z" fill="#072359"/>
<path d="M154.053 239.628L167.74 231.72L163.214 229.104L158.677 226.477L154.114 229.117L158.652 231.732L144.965 239.64L149.49 242.268L144.928 244.896L140.403 242.28L135.865 239.665L131.303 242.293L135.828 244.921L131.266 247.548L135.803 250.164L140.366 247.536L144.903 250.152L140.341 252.792L144.879 255.407L154.003 250.139L149.466 247.524L154.028 244.884L158.566 247.499L163.128 244.871L158.59 242.243L154.053 239.628Z" fill="#072359"/>
<path d="M167.714 236.976L163.151 239.616L167.689 242.232L172.251 239.592L167.714 236.976Z" fill="#072359"/>
<path d="M158.528 252.754L163.066 255.37L167.604 257.998L172.166 255.358L167.628 252.742L163.091 250.114L158.565 247.499L154.003 250.139L158.528 252.754Z" fill="#072359"/>
<path d="M163.127 244.872L167.652 247.488L172.227 244.848L167.689 242.232L163.127 244.872Z" fill="#072359"/>
<path d="M190.477 234.311L185.939 231.683L181.402 229.068L172.277 234.336L176.815 236.963L181.352 239.579L172.228 244.847L176.753 247.474L181.315 244.834L185.853 247.45L190.415 244.822L185.878 242.194L190.44 239.566L185.915 236.939L190.477 234.311Z" fill="#072359"/>
<path d="M158.503 258.01L153.966 255.394L149.403 258.022L153.941 260.65L158.479 263.265L163.041 260.625L158.503 258.01Z" fill="#072359"/>
<path d="M176.727 252.719L181.265 255.347L185.79 257.962L194.915 252.694L190.389 250.066L185.827 252.706L181.289 250.091L176.752 247.475L172.189 250.103L176.727 252.719Z" fill="#072359"/>
<path d="M199.54 239.542L195.003 236.926L190.44 239.566L194.978 242.182L199.516 244.797L204.078 242.17L199.54 239.542Z" fill="#072359"/>
<path d="M226.89 228.982L222.328 231.622L226.866 234.237L231.428 231.609L226.89 228.982Z" fill="#072359"/>
<path d="M231.451 226.354L235.989 228.97L240.551 226.33L236.013 223.714L231.451 226.354Z" fill="#072359"/>
<path d="M245.076 228.957L249.651 226.317L245.113 223.702L240.551 226.329L245.076 228.957Z" fill="#072359"/>
<path d="M231.363 242.12L235.926 239.48L231.388 236.865L226.863 234.237L222.3 236.877L217.763 234.262L213.2 236.89L217.738 239.517L222.263 242.133L226.826 239.493L231.363 242.12Z" fill="#072359"/>
<path d="M240.488 236.84L245.05 234.213L240.513 231.585L235.95 234.225L240.488 236.84Z" fill="#072359"/>
<path d="M222.24 247.389L226.802 244.749L222.265 242.133L217.702 244.774L213.177 242.146L208.639 239.53L204.077 242.17L208.615 244.786L204.052 247.426L199.515 244.798L194.952 247.438L199.478 250.054L204.015 252.669L185.766 263.217L190.304 265.833L185.741 268.473L181.204 265.858L176.666 263.23L181.228 260.602L176.703 257.974L153.879 271.163L158.417 273.778L172.104 265.87L176.641 268.485L162.954 276.393L167.492 279.021L176.617 273.741L181.142 276.369L185.704 273.729L190.242 276.344L194.78 278.972L190.217 281.6L194.755 284.215L199.317 281.587L203.843 284.203L212.967 278.935L208.442 276.319L203.88 278.947L199.342 276.332L203.904 273.692L199.367 271.076L194.804 273.716L190.267 271.089L194.841 268.461L199.367 271.076L203.929 268.436L199.404 265.821L194.866 263.205L213.115 252.657L208.578 250.041L213.14 247.401L217.678 250.017L213.115 252.657L217.653 255.272L226.778 250.004L222.24 247.389Z" fill="#072359"/>
<path d="M176.581 278.997L172.019 281.637L176.556 284.252L181.119 281.612L176.581 278.997Z" fill="#072359"/>
<path d="M208.527 260.552L213.053 263.168L222.177 257.9L217.652 255.272L208.527 260.552Z" fill="#072359"/>
<path d="M254.127 239.444L263.251 234.176L258.714 231.56L249.589 236.828L254.127 239.444Z" fill="#072359"/>
<path d="M213.029 268.424L208.491 265.808L203.929 268.436L208.466 271.064L213.029 268.424Z" fill="#072359"/>
<path d="M190.192 286.855L185.655 284.24L181.092 286.88L176.555 284.264L167.43 289.532L162.892 286.917L158.355 284.301L153.817 281.686L158.379 279.046L153.842 276.43L149.304 273.815L126.492 286.991L131.03 289.606L135.568 292.222L140.105 294.837L149.23 289.569L144.692 286.954L140.13 289.594L135.592 286.979L140.155 284.338L144.692 286.954L149.255 284.314L153.792 286.929L149.23 289.569L153.768 292.185L144.643 297.453L149.181 300.068L153.718 302.684L158.256 305.299L162.794 307.914L167.331 310.53L171.894 307.89L167.356 305.274L162.818 302.659L158.281 300.043L153.743 297.428L162.868 292.16L167.405 294.776L171.943 297.391L167.381 300.031L171.918 302.647L181.043 297.379L185.581 299.994L190.143 297.354L185.605 294.738L190.168 292.098L185.63 289.483L190.192 286.855ZM176.493 294.763L171.955 292.148L176.518 289.508L181.055 292.123L176.493 294.763Z" fill="#072359"/>
<path d="M222.154 263.155L217.592 265.783L222.129 268.411L226.667 271.026L231.23 268.386L226.692 265.771L222.154 263.155Z" fill="#072359"/>
<path d="M258.63 247.327L263.192 244.687L267.729 247.303L272.292 244.675L276.83 247.29L281.355 249.906L272.23 255.174L276.768 257.801L290.455 249.893L285.917 247.278L281.392 244.65L276.854 242.035L272.316 239.419L267.779 236.791L254.092 244.699L258.63 247.327Z" fill="#072359"/>
<path d="M194.756 284.215L190.193 286.855L194.719 289.47L190.156 292.11L194.694 294.726L203.819 289.458L208.356 292.073L212.882 294.701L217.456 292.061L212.919 289.446L217.481 286.806L212.943 284.19L208.381 286.818L203.843 284.202L199.281 286.843L194.756 284.215Z" fill="#072359"/>
<path d="M222.094 273.666L217.568 271.038L213.006 273.678L217.531 276.294L222.069 278.922L226.631 276.281L222.094 273.666Z" fill="#072359"/>
<path d="M235.731 276.269L240.269 278.885L244.794 281.5L249.356 278.873L244.831 276.245L240.293 273.629L235.756 271.014L231.193 273.642L235.731 276.269Z" fill="#072359"/>
<path d="M258.516 268.336L263.079 265.709L258.541 263.081L253.979 265.721L258.516 268.336Z" fill="#072359"/>
<path d="M267.664 257.813L263.126 255.198L267.689 252.558L263.151 249.942L244.902 260.491L240.364 257.875L244.926 255.235L240.389 252.62L244.951 249.979L249.489 252.595L254.051 249.955L249.513 247.339L244.976 244.724L249.538 242.084L245 239.468L226.751 250.016L231.289 252.632L222.164 257.9L226.702 260.515L231.264 257.875L235.802 260.491L240.339 263.106L231.215 268.374L235.752 270.989L240.315 268.349L244.852 270.965L249.39 273.58L253.928 276.196L258.465 278.811L253.903 281.451L258.441 284.067L267.565 278.799L263.028 276.183L267.59 273.543L272.128 276.159L276.69 273.519L272.152 270.903L276.715 268.263L281.252 270.878L285.79 273.494L267.541 284.042L272.078 286.658L299.452 270.841L294.915 268.226L290.352 270.866L285.815 268.251L281.277 265.635L285.839 262.995L281.302 260.38L276.764 257.764L272.202 260.404L267.664 257.813ZM272.177 265.685L258.49 273.593L253.952 270.977L249.415 268.362L244.877 265.746L258.564 257.838L263.102 260.454L267.639 263.069L272.177 265.685Z" fill="#072359"/>
<path d="M226.521 297.304L221.983 294.676L217.421 297.317L221.959 299.932L226.496 302.56L231.022 305.175L235.559 307.791L240.097 310.419L244.659 307.778L240.122 305.163L235.584 302.535L240.146 299.907L244.684 302.523L249.246 299.883L244.709 297.267L240.183 294.652L231.059 299.92L226.521 297.304Z" fill="#072359"/>
<path d="M244.767 286.756L240.23 284.141L235.667 286.768L231.142 284.153L235.704 281.513L231.167 278.897L222.042 284.165L226.58 286.793L231.105 289.408L226.543 292.049L231.08 294.664L240.205 289.396L244.743 292.012L249.28 294.627L253.806 297.255L258.368 294.615L253.843 291.999L262.967 286.719L258.43 284.104L249.305 289.371L244.767 286.756Z" fill="#072359"/>
<path d="M294.931 263.02L290.368 265.66L294.906 268.276L299.468 265.636L294.931 263.02Z" fill="#072359"/>
<path d="M304.028 263.008L308.591 260.368L304.053 257.753L299.515 255.125L290.391 260.405L294.928 263.021L299.491 260.38L304.028 263.008Z" fill="#072359"/>
<path d="M304.006 268.262L299.443 270.89L303.969 273.518L317.656 265.61L313.13 262.982L308.568 265.622L304.03 263.007L299.468 265.635L304.006 268.262Z" fill="#072359"/>
<path d="M267.469 294.603L262.932 291.975L258.369 294.615L262.907 297.231L267.469 294.603Z" fill="#072359"/>
<path d="M272.03 291.962L276.592 289.322L272.055 286.707L267.492 289.347L272.03 291.962Z" fill="#072359"/>
<path d="M149.378 263.279L144.841 260.664L140.303 258.048L135.765 255.433L131.228 252.817L126.69 250.202L122.152 247.586L90.2158 266.03L94.7535 268.646L99.2912 271.261L103.829 273.877L108.367 276.492L112.904 279.108L117.442 281.723L121.98 284.338L153.916 265.894L149.378 263.279ZM122.004 279.095L117.467 276.48L112.929 273.864L108.391 271.249L103.854 268.633L99.3158 266.018L122.128 252.842L126.665 255.457L131.203 258.073L135.741 260.688L140.278 263.304L144.816 265.919L122.004 279.095Z" fill="#072359"/>
<path d="M122.029 273.839L135.716 265.931L122.116 258.073L108.429 265.981L122.029 273.839Z" fill="#072359"/>
<path d="M172.362 218.569L176.9 221.184L181.438 223.8L185.975 226.415L190.513 229.031L195.051 231.646L199.588 234.262L204.126 236.877L236.062 218.433L231.525 215.818L226.987 213.202L222.449 210.587L217.912 207.972L213.374 205.356L208.836 202.741L204.299 200.125L172.362 218.569ZM208.812 207.996L213.349 210.612L217.887 213.227L222.425 215.843L226.962 218.458L204.151 231.634L199.613 229.019L195.075 226.403L190.538 223.788L186 221.172L181.462 218.557L204.274 205.381L208.812 207.996Z" fill="#072359"/>
<path d="M204.25 210.637L190.562 218.545L204.163 226.404L217.85 218.496L204.25 210.637Z" fill="#072359"/>
<path d="M176.381 315.785L180.919 318.401L185.457 321.016L189.994 323.632L194.532 326.247L199.07 328.863L203.607 331.478L235.544 313.034L231.006 310.419L226.468 307.803L221.931 305.188L217.393 302.572L212.855 299.957L208.318 297.342L203.78 294.726L171.844 313.17L176.381 315.785ZM203.755 299.969L208.293 302.585L212.831 305.2L217.368 307.816L221.906 310.431L226.444 313.047L203.632 326.223L199.094 323.607L194.557 320.992L190.019 318.376L185.481 315.761L180.944 313.145L203.755 299.969Z" fill="#072359"/>
<path d="M203.731 305.224L190.044 313.132L203.645 320.991L217.332 313.083L203.731 305.224Z" fill="#072359"/>
<path d="M385.239 139.13C398.704 146.902 400.159 158.672 388.507 165.408L289.825 222.417C278.16 229.153 257.802 228.302 244.337 220.53L14.6418 87.8323C1.60835 80.3067 -0.179602 69.043 10.3014 62.2206C-3.89112 71.239 -2.74437 87.6719 9.61093 98.1338C11.0413 99.3798 12.7182 100.589 14.6542 101.699L244.349 234.384C257.814 242.157 278.172 243.008 289.837 236.272C289.837 236.272 389.234 178.843 389.579 178.621C406.904 167.801 400.652 147.445 385.239 139.13Z" fill="url(#paint0_linear)"/>
<path d="M388.506 165.396L289.824 222.405C278.159 229.141 257.801 228.29 244.336 220.518L14.6409 87.8328C1.17584 80.0604 -0.279181 68.2909 11.3733 61.5548L110.055 4.54526C121.72 -2.19077 142.078 -1.33952 155.543 6.43283L385.238 139.13C398.703 146.903 400.158 158.66 388.506 165.396Z" fill="url(#paint1_linear)"/>
<path d="M287.579 219.21C277.184 225.218 260.328 225.243 250.007 219.284L16.7856 84.5635C6.45257 78.5924 6.51422 68.8584 16.909 62.8626L112.299 7.75296C122.693 1.74481 139.549 1.72014 149.87 7.67894L383.092 142.4C393.425 148.371 393.363 158.105 382.969 164.101L287.579 219.21Z" fill="url(#paint2_linear)"/>
<path d="M118.517 11.3428L106.704 18.1652C105.644 18.7821 105.631 19.7814 106.692 20.3859C110.354 22.5078 110.342 25.9499 106.655 28.0842L52.1164 59.5931C48.4296 61.7274 42.4616 61.7397 38.7994 59.6177C37.7389 59.0009 36.0126 59.0132 34.9522 59.6301L23.1395 66.4525C16.185 70.4743 16.148 76.9636 23.0655 80.9608L256.287 215.682C263.192 219.679 274.438 219.654 281.392 215.632L376.782 160.523C383.737 156.501 383.774 150.011 376.856 146.014L143.634 11.2935C136.717 7.30858 125.471 7.32092 118.517 11.3428Z" fill="#EBF5F8" stroke="#072359" stroke-width="0.1956" stroke-miterlimit="10"/>
<path opacity="0.15" d="M374.905 158.118L277.209 214.56C272.561 217.25 264.447 216.904 259.071 213.807L246.235 206.393C240.871 203.296 240.279 198.608 244.928 195.919L342.623 139.477C347.272 136.787 355.386 137.133 360.762 140.229L373.598 147.644C378.974 150.74 379.554 155.429 374.905 158.118Z" fill="#6654A4"/>
<path d="M203.596 180.127L92.5713 115.999L204.299 51.4641L315.312 115.592L203.596 180.127Z" fill="#EBF5F8"/>
<path d="M175.631 80.8514L172.055 82.9117L175.606 84.9721L179.182 82.8994L175.631 80.8514Z" fill="#072359"/>
<path d="M164.853 95.2851L175.58 89.0919L172.029 87.0316L168.478 84.9836L164.902 87.0439L168.453 89.1042L157.726 95.2975L161.277 97.3454L157.701 99.4057L154.15 97.3578L150.599 95.3098L147.023 97.3701L150.574 99.4304L146.998 101.491L150.549 103.539L154.125 101.478L157.689 103.526L154.113 105.599L157.664 107.647L164.816 103.514L161.252 101.466L164.828 99.3934L168.392 101.454L171.955 99.381L168.404 97.3331L164.853 95.2851Z" fill="#072359"/>
<path d="M175.555 93.2009L171.979 95.2735L175.531 97.3215L179.107 95.2612L175.555 93.2009Z" fill="#072359"/>
<path d="M168.368 105.574L171.919 107.622L175.47 109.67L179.046 107.61L175.495 105.549L171.943 103.501L168.392 101.453L164.816 103.514L168.368 105.574Z" fill="#072359"/>
<path d="M171.955 99.3816L175.519 101.442L179.082 99.3693L175.531 97.3213L171.955 99.3816Z" fill="#072359"/>
<path d="M193.386 91.1158L189.835 89.0555L186.284 87.0076L179.132 91.1405L182.684 93.1884L186.235 95.2487L179.083 99.3693L182.647 101.43L186.222 99.3569L189.774 101.417L193.35 99.3446L189.786 97.2967L193.362 95.224L189.811 93.1761L193.386 91.1158Z" fill="#072359"/>
<path d="M168.343 109.683L164.792 107.635L161.216 109.695L164.767 111.756L168.318 113.804L171.894 111.743L168.343 109.683Z" fill="#072359"/>
<path d="M182.623 105.537L186.174 107.598L189.725 109.646L196.877 105.513L193.326 103.465L189.75 105.525L186.198 103.477L182.647 101.429L179.071 103.489L182.623 105.537Z" fill="#072359"/>
<path d="M200.488 95.2123L196.937 93.1643L193.361 95.2246L196.925 97.2849L200.476 99.3328L204.052 97.2725L200.488 95.2123Z" fill="#072359"/>
<path d="M221.919 86.9451L218.343 89.0054L221.894 91.0657L225.47 88.993L221.919 86.9451Z" fill="#072359"/>
<path d="M225.495 84.8733L229.046 86.9335L232.622 84.8609L229.071 82.813L225.495 84.8733Z" fill="#072359"/>
<path d="M236.174 86.9218L239.75 84.8491L236.199 82.8011L232.623 84.8615L236.174 86.9218Z" fill="#072359"/>
<path d="M225.434 97.2341L229.01 95.1614L225.459 93.1135L221.895 91.0656L218.319 93.1258L214.768 91.0779L211.192 93.1382L214.756 95.1861L218.307 97.2464L221.883 95.1738L225.434 97.2341Z" fill="#072359"/>
<path d="M232.586 93.1019L236.162 91.0293L232.598 88.9813L229.022 91.054L232.586 93.1019Z" fill="#072359"/>
<path d="M218.283 101.355L221.859 99.295L218.308 97.2471L214.732 99.3073L211.181 97.2594L207.629 95.1991L204.054 97.2717L207.605 99.3197L204.029 101.392L200.478 99.332L196.902 101.405L200.453 103.453L204.004 105.501L189.701 113.766L193.252 115.814L189.676 117.887L186.125 115.827L182.574 113.779L186.149 111.706L182.598 109.658L164.719 119.984L168.27 122.032L178.998 115.839L182.549 117.899L171.834 124.093L175.385 126.14L182.537 122.008L186.088 124.068L189.664 121.995L193.215 124.055L196.766 126.103L193.19 128.164L196.741 130.224L200.317 128.151L203.869 130.212L211.02 126.079L207.469 124.031L203.893 126.091L200.342 124.043L203.918 121.971L200.367 119.923L196.791 121.983L193.24 119.935L196.803 117.875L200.367 119.923L203.943 117.85L200.379 115.802L196.828 113.754L211.131 105.488L207.58 103.44L211.156 101.368L214.707 103.428L211.131 105.488L214.683 107.548L221.834 103.416L218.283 101.355Z" fill="#072359"/>
<path d="M182.511 126.128L178.935 128.188L182.486 130.249L186.062 128.176L182.511 126.128Z" fill="#072359"/>
<path d="M207.53 111.669L211.082 113.729L218.233 109.596L214.682 107.548L207.53 111.669Z" fill="#072359"/>
<path d="M243.264 95.1368L250.416 91.0039L246.852 88.9559L239.713 93.0888L243.264 95.1368Z" fill="#072359"/>
<path d="M211.07 117.837L207.506 115.789L203.942 117.85L207.494 119.91L211.07 117.837Z" fill="#072359"/>
<path d="M193.165 132.285L189.614 130.237L186.038 132.297L182.487 130.249L175.335 134.382L171.784 132.334L168.233 130.286L164.681 128.238L168.257 126.178L164.706 124.13L161.155 122.082L143.275 132.408L146.827 134.456L150.378 136.504L153.929 138.552L161.081 134.419L157.53 132.371L153.954 134.431L150.403 132.383L153.978 130.323L157.53 132.371L161.106 130.311L164.657 132.359L161.081 134.419L164.632 136.467L157.48 140.6L161.032 142.648L164.583 144.696L168.134 146.744L171.685 148.792L175.236 150.839L178.812 148.779L175.261 146.731L171.71 144.683L168.159 142.635L164.607 140.587L171.759 136.454L175.31 138.502L178.862 140.55L175.286 142.611L178.837 144.659L185.989 140.526L189.54 142.574L193.116 140.513L189.565 138.465L193.141 136.405L189.589 134.357L193.165 132.285ZM182.438 138.478L178.886 136.43L182.462 134.37L186.013 136.417L182.438 138.478Z" fill="#072359"/>
<path d="M218.206 113.717L214.63 115.777L218.193 117.825L221.745 119.885L225.321 117.813L221.769 115.765L218.206 113.717Z" fill="#072359"/>
<path d="M246.791 101.306L250.367 99.2454L253.919 101.293L257.494 99.2331L261.046 101.281L264.597 103.341L257.445 107.462L261.009 109.522L271.724 103.317L268.173 101.269L264.622 99.2208L261.07 97.1605L257.519 95.1125L253.968 93.0646L243.24 99.2578L246.791 101.306Z" fill="#072359"/>
<path d="M196.74 130.224L193.164 132.284L196.716 134.332L193.14 136.405L196.691 138.453L203.843 134.32L207.394 136.38L210.957 138.428L214.521 136.368L210.97 134.308L214.546 132.247L210.994 130.199L207.419 132.26L203.867 130.212L200.291 132.272L196.74 130.224Z" fill="#072359"/>
<path d="M218.169 121.946L214.618 119.898L211.042 121.958L214.593 124.019L218.144 126.066L221.72 123.994L218.169 121.946Z" fill="#072359"/>
<path d="M228.849 123.981L232.4 126.042L235.951 128.09L239.527 126.029L235.976 123.969L232.425 121.921L228.874 119.873L225.298 121.933L228.849 123.981Z" fill="#072359"/>
<path d="M246.702 117.776L250.278 115.715L246.726 113.655L243.15 115.728L246.702 117.776Z" fill="#072359"/>
<path d="M253.868 109.534L250.317 107.486L253.893 105.426L250.341 103.378L236.038 111.644L232.487 109.596L236.063 107.536L232.511 105.488L236.087 103.427L239.638 105.475L243.214 103.415L239.663 101.367L236.112 99.3191L239.688 97.2588L236.136 95.2108L221.833 103.477L225.384 105.525L218.232 109.658L221.784 111.705L225.36 109.645L228.911 111.693L232.462 113.741L225.31 117.874L228.861 119.922L232.437 117.862L235.989 119.91L239.54 121.958L243.091 124.006L246.642 126.053L243.066 128.114L246.618 130.162L253.769 126.029L250.218 123.981L253.794 121.921L257.345 123.968L260.921 121.908L257.37 119.86L260.946 117.8L264.497 119.848L268.048 121.896L253.745 130.162L257.296 132.21L278.751 119.823L275.2 117.775L271.624 119.836L268.073 117.788L264.522 115.74L268.098 113.679L264.546 111.631L260.995 109.583L257.419 111.644L253.868 109.534ZM257.407 115.703L246.679 121.896L243.128 119.848L239.577 117.788L236.026 115.74L246.753 109.546L250.304 111.594L253.856 113.642L257.407 115.703Z" fill="#072359"/>
<path d="M221.635 140.464L218.084 138.416L214.508 140.476L218.059 142.536L221.61 144.584L225.161 146.644L228.713 148.692L232.264 150.74L235.84 148.68L232.288 146.62L228.737 144.572L232.313 142.511L235.864 144.559L239.44 142.499L235.889 140.439L232.338 138.391L225.186 142.524L221.635 140.464Z" fill="#072359"/>
<path d="M235.926 132.211L232.375 130.163L228.799 132.223L225.248 130.175L228.824 128.103L225.273 126.055L218.121 130.187L221.672 132.235L225.223 134.283L221.648 136.356L225.211 138.404L232.351 134.271L235.914 136.331L239.465 138.379L243.017 140.427L246.592 138.367L243.041 136.319L250.193 132.186L246.629 130.126L239.49 134.259L235.926 132.211Z" fill="#072359"/>
<path d="M275.235 113.605L271.659 115.678L275.21 117.726L278.786 115.666L275.235 113.605Z" fill="#072359"/>
<path d="M282.364 113.594L285.94 111.534L282.388 109.486L278.837 107.425L271.686 111.558L275.237 113.606L278.813 111.546L282.364 113.594Z" fill="#072359"/>
<path d="M282.341 117.714L278.765 119.775L282.316 121.835L293.044 115.642L289.492 113.582L285.916 115.654L282.365 113.594L278.789 115.667L282.341 117.714Z" fill="#072359"/>
<path d="M253.72 138.354L250.169 136.306L246.593 138.367L250.144 140.415L253.72 138.354Z" fill="#072359"/>
<path d="M257.296 136.282L260.872 134.222L257.321 132.174L253.745 134.234L257.296 136.282Z" fill="#072359"/>
<path d="M161.191 113.815L157.64 111.767L154.089 109.719L150.537 107.671L146.986 105.623L143.435 103.575L139.884 101.527L114.853 115.986L118.404 118.034L121.955 120.082L125.506 122.13L129.057 124.178L132.609 126.226L136.16 128.274L139.711 130.322L164.742 115.863L161.191 113.815ZM139.736 126.201L136.185 124.153L132.633 122.105L129.082 120.057L125.531 118.01L121.98 115.962L139.859 105.635L143.41 107.683L146.962 109.731L150.513 111.779L154.064 113.827L157.615 115.875L139.736 126.201Z" fill="#072359"/>
<path d="M139.76 122.093L150.488 115.888L139.834 109.731L129.106 115.937L139.76 122.093Z" fill="#072359"/>
<path d="M179.205 78.7908L182.756 80.8387L186.308 82.8867L189.859 84.9346L193.41 86.9826L196.961 89.0305L200.512 91.0785L204.064 93.1264L229.095 78.6674L225.544 76.6195L221.992 74.5715L218.441 72.5236L214.89 70.4756L211.339 68.4277L207.788 66.3797L204.236 64.3318L179.205 78.7908ZM207.751 70.5003L211.302 72.5483L214.853 74.5962L218.404 76.6441L221.955 78.6921L204.076 89.0182L200.525 86.9702L196.974 84.9223L193.422 82.8743L189.871 80.8264L186.32 78.7785L204.199 68.4524L207.751 70.5003Z" fill="#072359"/>
<path d="M204.174 72.5608L193.459 78.7663L204.113 84.9225L214.84 78.717L204.174 72.5608Z" fill="#072359"/>
<path d="M182.35 154.947L185.901 156.995L189.452 159.043L193.004 161.091L196.555 163.139L200.106 165.187L203.657 167.235L228.688 152.776L225.137 150.728L221.586 148.68L218.035 146.632L214.484 144.584L210.932 142.536L207.381 140.488L203.83 138.44L178.799 152.899L182.35 154.947ZM203.805 142.561L207.356 144.609L210.908 146.657L214.459 148.705L218.01 150.753L221.561 152.801L203.682 163.127L200.131 161.079L196.58 159.031L193.028 156.983L189.477 154.935L185.926 152.887L203.805 142.561Z" fill="#072359"/>
<path d="M203.78 146.682L193.053 152.875L203.706 159.031L214.434 152.838L203.78 146.682Z" fill="#072359"/>
<path d="M116.839 123.019L113.72 124.82L98.4297 115.987L113.818 107.104L116.926 108.893L104.657 115.975L116.839 123.019Z" fill="#6654A4"/>
<path d="M219.565 63.6782L216.446 65.4794L204.263 58.4473L191.994 65.5287L188.887 63.7275L204.275 54.8448L219.565 63.6782Z" fill="#6654A4"/>
<path d="M309.47 115.605L294.081 124.5L290.974 122.699L303.243 115.617L291.048 108.573L294.18 106.772L309.47 115.605Z" fill="#6654A4"/>
<path d="M219.011 167.865L203.623 176.747L188.32 167.914L191.452 166.113L203.635 173.157L215.904 166.063L219.011 167.865Z" fill="#6654A4"/>
<path d="M301.64 172.219C297.04 174.872 297.016 179.19 301.59 181.83C306.165 184.47 313.625 184.458 318.224 181.805C322.824 179.153 322.848 174.835 318.274 172.194C313.699 169.554 306.239 169.567 301.64 172.219Z" fill="#F7FEFE"/>
<path d="M297.493 169.838C290.588 173.835 290.551 180.288 297.419 184.248C304.287 188.22 315.459 188.196 322.364 184.198C329.269 180.201 329.306 173.749 322.438 169.789C315.57 165.816 304.398 165.841 297.493 169.838ZM319.22 182.385C314.066 185.358 305.693 185.383 300.576 182.422C295.446 179.461 295.483 174.625 300.637 171.652C305.792 168.678 314.164 168.654 319.281 171.615C324.399 174.576 324.374 179.399 319.22 182.385Z" fill="#F7FEFE"/>
<path d="M256.47 91.6082L162.079 146.138L194.052 164.607L241.248 137.342L288.443 110.077L256.47 91.6082Z" fill="url(#paint3_linear)"/>
<path d="M65.6279 124.535C65.6279 124.005 65.3073 123.4 64.9127 123.178L47.2059 112.951C47.0333 112.852 46.873 112.852 46.7497 112.926L46.7374 112.914L45.2207 113.79L63.8646 125.991L65.3813 125.115L65.369 125.103C65.5169 125.029 65.6279 124.831 65.6279 124.535Z" fill="#403567"/>
<path d="M45.6878 115.727L63.3947 125.955C63.7893 126.177 64.1099 125.942 64.1099 125.412C64.1099 124.881 63.7893 124.277 63.3947 124.055L45.6878 113.827C45.2933 113.605 44.9727 113.84 44.9727 114.37C44.9727 114.888 45.2933 115.505 45.6878 115.727Z" fill="#6654A4"/>
<path d="M89.6972 138.451C89.6972 137.92 89.3766 137.316 88.982 137.094L71.2753 126.866C71.1026 126.768 70.9423 126.768 70.819 126.842L70.8067 126.829L69.29 127.705L87.9339 139.907L89.4506 139.031L89.4382 139.018C89.5985 138.932 89.6972 138.747 89.6972 138.451Z" fill="#403567"/>
<path d="M69.7698 129.643L87.4767 139.87C87.8712 140.092 88.1918 139.858 88.1918 139.327C88.1918 138.797 87.8712 138.192 87.4767 137.97L69.7698 127.743C69.3753 127.521 69.0547 127.755 69.0547 128.286C69.0547 128.804 69.3753 129.408 69.7698 129.643Z" fill="#6654A4"/>
<defs>
<linearGradient id="paint0_linear" x1="312.661" y1="185.544" x2="47.2526" y2="34.7786" gradientUnits="userSpaceOnUse">
<stop stop-color="#403C77"/>
<stop offset="0.711487" stop-color="#6654A4"/>
<stop offset="1" stop-color="#A191D7"/>
</linearGradient>
<linearGradient id="paint1_linear" x1="299.801" y1="212.279" x2="232.975" y2="-28.1441" gradientUnits="userSpaceOnUse">
<stop stop-color="#61519E"/>
<stop offset="0.5304" stop-color="#9282CA"/>
<stop offset="1" stop-color="#A192D7"/>
</linearGradient>
<linearGradient id="paint2_linear" x1="55.5269" y1="30.0551" x2="199.866" y2="279.92" gradientUnits="userSpaceOnUse">
<stop stop-color="#A292DA"/>
<stop offset="1" stop-color="#3B2D6D"/>
</linearGradient>
<linearGradient id="paint3_linear" x1="210.065" y1="119.329" x2="224.586" y2="144.468" gradientUnits="userSpaceOnUse">
<stop stop-color="#F05665"/>
<stop offset="0.9471" stop-color="#F05665" stop-opacity="0.07"/>
</linearGradient>
</defs>
</svg>
