<svg width="557" height="75" viewBox="0 0 557 75" fill="none" xmlns="http://www.w3.org/2000/svg">
<path d="M70.6882 38.3906C70.5476 39.5938 70.1023 40.5234 69.3523 41.1797C68.6075 41.8307 67.6153 42.1562 66.3757 42.1562C65.032 42.1562 63.9539 41.6745 63.1414 40.7109C62.3341 39.7474 61.9304 38.4583 61.9304 36.8438V35.75C61.9304 34.6927 62.1179 33.763 62.4929 32.9609C62.8731 32.1589 63.4096 31.5443 64.1023 31.1172C64.795 30.6849 65.5971 30.4688 66.5085 30.4688C67.7169 30.4688 68.6856 30.8073 69.4148 31.4844C70.144 32.1562 70.5684 33.0885 70.6882 34.2812H69.1804C69.0502 33.375 68.7664 32.7188 68.3289 32.3125C67.8966 31.9062 67.2898 31.7031 66.5085 31.7031C65.5502 31.7031 64.7976 32.0573 64.2507 32.7656C63.7091 33.474 63.4382 34.4818 63.4382 35.7891V36.8906C63.4382 38.125 63.696 39.1068 64.2117 39.8359C64.7273 40.5651 65.4486 40.9297 66.3757 40.9297C67.2091 40.9297 67.8471 40.7422 68.2898 40.3672C68.7377 39.987 69.0346 39.3281 69.1804 38.3906H70.6882ZM72.1335 37.6953C72.1335 36.8672 72.295 36.1224 72.6179 35.4609C72.946 34.7995 73.3992 34.2891 73.9773 33.9297C74.5606 33.5703 75.2247 33.3906 75.9695 33.3906C77.1205 33.3906 78.0502 33.7891 78.7585 34.5859C79.4721 35.3828 79.8289 36.4427 79.8289 37.7656V37.8672C79.8289 38.6901 79.67 39.4297 79.3523 40.0859C79.0398 40.737 78.5893 41.2448 78.0007 41.6094C77.4174 41.974 76.7455 42.1562 75.9851 42.1562C74.8393 42.1562 73.9096 41.7578 73.196 40.9609C72.4877 40.1641 72.1335 39.1094 72.1335 37.7969V37.6953ZM73.5867 37.8672C73.5867 38.8047 73.8028 39.5573 74.2351 40.125C74.6726 40.6927 75.2559 40.9766 75.9851 40.9766C76.7195 40.9766 77.3028 40.6901 77.7351 40.1172C78.1674 39.5391 78.3835 38.7318 78.3835 37.6953C78.3835 36.7682 78.1622 36.0182 77.7195 35.4453C77.282 34.8672 76.6986 34.5781 75.9695 34.5781C75.2559 34.5781 74.6804 34.862 74.2429 35.4297C73.8054 35.9974 73.5867 36.8099 73.5867 37.8672ZM83.0085 33.5469L83.0554 34.6094C83.7013 33.7969 84.545 33.3906 85.5867 33.3906C87.3731 33.3906 88.2742 34.3984 88.2898 36.4141V42H86.8445V36.4062C86.8393 35.7969 86.6986 35.3464 86.4226 35.0547C86.1518 34.763 85.7273 34.6172 85.1492 34.6172C84.6804 34.6172 84.269 34.7422 83.9148 34.9922C83.5606 35.2422 83.2846 35.5703 83.0867 35.9766V42H81.6414V33.5469H83.0085ZM90.9539 42V34.6641H89.6179V33.5469H90.9539V32.8281C90.9539 31.8854 91.2221 31.151 91.7585 30.625C92.3002 30.099 93.0632 29.8359 94.0476 29.8359C94.6309 29.8359 95.3679 29.9948 96.2585 30.3125L96.0164 31.5312C95.3653 31.2708 94.7455 31.1406 94.157 31.1406C93.5372 31.1406 93.0893 31.2812 92.8132 31.5625C92.5424 31.8385 92.407 32.2552 92.407 32.8125V33.5469H94.1335V34.6641H92.407V42H90.9539ZM96.9773 42H95.5242V33.5469H96.9773V42ZM103.415 34.8438C103.196 34.8073 102.959 34.7891 102.704 34.7891C101.756 34.7891 101.113 35.1927 100.774 36V42H99.3289V33.5469H100.735L100.759 34.5234C101.233 33.7682 101.904 33.3906 102.774 33.3906C103.055 33.3906 103.269 33.4271 103.415 33.5V34.8438ZM106.11 33.5469L106.149 34.4844C106.769 33.7552 107.605 33.3906 108.657 33.3906C109.839 33.3906 110.644 33.8438 111.071 34.75C111.352 34.3438 111.717 34.0156 112.165 33.7656C112.618 33.5156 113.152 33.3906 113.766 33.3906C115.621 33.3906 116.563 34.3724 116.594 36.3359V42H115.149V36.4219C115.149 35.8177 115.011 35.3672 114.735 35.0703C114.459 34.7682 113.996 34.6172 113.344 34.6172C112.808 34.6172 112.363 34.7786 112.009 35.1016C111.654 35.4193 111.449 35.849 111.391 36.3906V42H109.938V36.4609C109.938 35.2318 109.337 34.6172 108.134 34.6172C107.186 34.6172 106.537 35.0208 106.188 35.8281V42H104.743V33.5469H106.11ZM124.712 31.5V33.5469H126.29V34.6641H124.712V39.9062C124.712 40.2448 124.782 40.5 124.923 40.6719C125.063 40.8385 125.303 40.9219 125.641 40.9219C125.808 40.9219 126.037 40.8906 126.329 40.8281V42C125.949 42.1042 125.579 42.1562 125.219 42.1562C124.574 42.1562 124.087 41.9609 123.759 41.5703C123.43 41.1797 123.266 40.625 123.266 39.9062V34.6641H121.727V33.5469H123.266V31.5H124.712ZM129.43 34.5703C130.071 33.7839 130.904 33.3906 131.93 33.3906C133.717 33.3906 134.618 34.3984 134.634 36.4141V42H133.188V36.4062C133.183 35.7969 133.042 35.3464 132.766 35.0547C132.496 34.763 132.071 34.6172 131.493 34.6172C131.024 34.6172 130.613 34.7422 130.259 34.9922C129.904 35.2422 129.628 35.5703 129.43 35.9766V42H127.985V30H129.43V34.5703ZM140.305 42.1562C139.16 42.1562 138.227 41.7812 137.509 41.0312C136.79 40.276 136.43 39.2682 136.43 38.0078V37.7422C136.43 36.9036 136.589 36.1562 136.907 35.5C137.23 34.8385 137.678 34.3229 138.251 33.9531C138.829 33.5781 139.454 33.3906 140.126 33.3906C141.225 33.3906 142.079 33.7526 142.688 34.4766C143.298 35.2005 143.602 36.237 143.602 37.5859V38.1875H137.876C137.897 39.0208 138.139 39.6953 138.602 40.2109C139.071 40.7214 139.665 40.9766 140.384 40.9766C140.894 40.9766 141.326 40.8724 141.68 40.6641C142.035 40.4557 142.344 40.1797 142.61 39.8359L143.493 40.5234C142.785 41.612 141.722 42.1562 140.305 42.1562ZM140.126 34.5781C139.542 34.5781 139.053 34.7917 138.657 35.2188C138.261 35.6406 138.016 36.2344 137.923 37H142.157V36.8906C142.115 36.1562 141.917 35.5885 141.563 35.1875C141.209 34.7812 140.73 34.5781 140.126 34.5781ZM156.391 37.8672C156.391 39.1536 156.097 40.1901 155.509 40.9766C154.92 41.763 154.123 42.1562 153.118 42.1562C152.092 42.1562 151.285 41.8307 150.696 41.1797V45.25H149.251V33.5469H150.571L150.641 34.4844C151.23 33.7552 152.048 33.3906 153.094 33.3906C154.11 33.3906 154.912 33.7734 155.501 34.5391C156.094 35.3047 156.391 36.3698 156.391 37.7344V37.8672ZM154.946 37.7031C154.946 36.75 154.743 35.9974 154.337 35.4453C153.93 34.8932 153.373 34.6172 152.665 34.6172C151.79 34.6172 151.134 35.0052 150.696 35.7812V39.8203C151.128 40.5911 151.79 40.9766 152.68 40.9766C153.373 40.9766 153.923 40.7031 154.329 40.1562C154.74 39.6042 154.946 38.7865 154.946 37.7031ZM163.454 42C163.371 41.8333 163.303 41.5365 163.251 41.1094C162.579 41.8073 161.777 42.1562 160.844 42.1562C160.011 42.1562 159.326 41.9219 158.79 41.4531C158.259 40.9792 157.993 40.3802 157.993 39.6562C157.993 38.776 158.326 38.0938 158.993 37.6094C159.665 37.1198 160.608 36.875 161.821 36.875H163.227V36.2109C163.227 35.7057 163.076 35.3047 162.774 35.0078C162.472 34.7057 162.027 34.5547 161.438 34.5547C160.923 34.5547 160.49 34.6849 160.141 34.9453C159.792 35.2057 159.618 35.5208 159.618 35.8906H158.165C158.165 35.4688 158.313 35.0625 158.61 34.6719C158.912 34.276 159.318 33.9635 159.829 33.7344C160.344 33.5052 160.91 33.3906 161.524 33.3906C162.498 33.3906 163.261 33.6354 163.813 34.125C164.365 34.6094 164.652 35.2786 164.673 36.1328V40.0234C164.673 40.7995 164.772 41.4167 164.969 41.875V42H163.454ZM161.055 40.8984C161.509 40.8984 161.938 40.7812 162.344 40.5469C162.751 40.3125 163.045 40.0078 163.227 39.6328V37.8984H162.094C160.324 37.8984 159.438 38.4167 159.438 39.4531C159.438 39.9062 159.589 40.2604 159.891 40.5156C160.193 40.7708 160.581 40.8984 161.055 40.8984ZM169.579 39.8828L171.548 33.5469H173.094L169.696 43.3047C169.17 44.7109 168.334 45.4141 167.188 45.4141L166.915 45.3906L166.376 45.2891V44.1172L166.766 44.1484C167.256 44.1484 167.636 44.0495 167.907 43.8516C168.183 43.6536 168.41 43.2917 168.587 42.7656L168.907 41.9062L165.891 33.5469H167.469L169.579 39.8828ZM175.751 33.5469L175.79 34.4844C176.41 33.7552 177.246 33.3906 178.298 33.3906C179.48 33.3906 180.285 33.8438 180.712 34.75C180.993 34.3438 181.358 34.0156 181.805 33.7656C182.259 33.5156 182.792 33.3906 183.407 33.3906C185.261 33.3906 186.204 34.3724 186.235 36.3359V42H184.79V36.4219C184.79 35.8177 184.652 35.3672 184.376 35.0703C184.1 34.7682 183.636 34.6172 182.985 34.6172C182.449 34.6172 182.003 34.7786 181.649 35.1016C181.295 35.4193 181.089 35.849 181.032 36.3906V42H179.579V36.4609C179.579 35.2318 178.977 34.6172 177.774 34.6172C176.826 34.6172 176.178 35.0208 175.829 35.8281V42H174.384V33.5469H175.751ZM191.93 42.1562C190.785 42.1562 189.852 41.7812 189.134 41.0312C188.415 40.276 188.055 39.2682 188.055 38.0078V37.7422C188.055 36.9036 188.214 36.1562 188.532 35.5C188.855 34.8385 189.303 34.3229 189.876 33.9531C190.454 33.5781 191.079 33.3906 191.751 33.3906C192.85 33.3906 193.704 33.7526 194.313 34.4766C194.923 35.2005 195.227 36.237 195.227 37.5859V38.1875H189.501C189.522 39.0208 189.764 39.6953 190.227 40.2109C190.696 40.7214 191.29 40.9766 192.009 40.9766C192.519 40.9766 192.951 40.8724 193.305 40.6641C193.66 40.4557 193.969 40.1797 194.235 39.8359L195.118 40.5234C194.41 41.612 193.347 42.1562 191.93 42.1562ZM191.751 34.5781C191.167 34.5781 190.678 34.7917 190.282 35.2188C189.886 35.6406 189.641 36.2344 189.548 37H193.782V36.8906C193.74 36.1562 193.542 35.5885 193.188 35.1875C192.834 34.7812 192.355 34.5781 191.751 34.5781ZM198.274 33.5469L198.321 34.6094C198.967 33.7969 199.811 33.3906 200.852 33.3906C202.639 33.3906 203.54 34.3984 203.555 36.4141V42H202.11V36.4062C202.105 35.7969 201.964 35.3464 201.688 35.0547C201.417 34.763 200.993 34.6172 200.415 34.6172C199.946 34.6172 199.535 34.7422 199.18 34.9922C198.826 35.2422 198.55 35.5703 198.352 35.9766V42H196.907V33.5469H198.274ZM207.696 31.5V33.5469H209.274V34.6641H207.696V39.9062C207.696 40.2448 207.766 40.5 207.907 40.6719C208.048 40.8385 208.287 40.9219 208.626 40.9219C208.792 40.9219 209.022 40.8906 209.313 40.8281V42C208.933 42.1042 208.563 42.1562 208.204 42.1562C207.558 42.1562 207.071 41.9609 206.743 41.5703C206.415 41.1797 206.251 40.625 206.251 39.9062V34.6641H204.712V33.5469H206.251V31.5H207.696ZM214.587 37.7031C214.587 36.4062 214.894 35.3646 215.509 34.5781C216.123 33.7865 216.928 33.3906 217.923 33.3906C218.912 33.3906 219.696 33.7292 220.274 34.4062V30H221.719V42H220.391L220.321 41.0938C219.743 41.8021 218.938 42.1562 217.907 42.1562C216.928 42.1562 216.128 41.7552 215.509 40.9531C214.894 40.151 214.587 39.1042 214.587 37.8125V37.7031ZM216.032 37.8672C216.032 38.8255 216.23 39.5755 216.626 40.1172C217.022 40.6589 217.568 40.9297 218.266 40.9297C219.183 40.9297 219.852 40.5182 220.274 39.6953V35.8125C219.842 35.0156 219.178 34.6172 218.282 34.6172C217.574 34.6172 217.022 34.8906 216.626 35.4375C216.23 35.9844 216.032 36.7943 216.032 37.8672ZM227.477 42.1562C226.331 42.1562 225.399 41.7812 224.68 41.0312C223.962 40.276 223.602 39.2682 223.602 38.0078V37.7422C223.602 36.9036 223.761 36.1562 224.079 35.5C224.402 34.8385 224.85 34.3229 225.423 33.9531C226.001 33.5781 226.626 33.3906 227.298 33.3906C228.397 33.3906 229.251 33.7526 229.86 34.4766C230.469 35.2005 230.774 36.237 230.774 37.5859V38.1875H225.048C225.068 39.0208 225.311 39.6953 225.774 40.2109C226.243 40.7214 226.837 40.9766 227.555 40.9766C228.066 40.9766 228.498 40.8724 228.852 40.6641C229.206 40.4557 229.516 40.1797 229.782 39.8359L230.665 40.5234C229.956 41.612 228.894 42.1562 227.477 42.1562ZM227.298 34.5781C226.714 34.5781 226.225 34.7917 225.829 35.2188C225.433 35.6406 225.188 36.2344 225.094 37H229.329V36.8906C229.287 36.1562 229.089 35.5885 228.735 35.1875C228.381 34.7812 227.902 34.5781 227.298 34.5781ZM234.415 31.5V33.5469H235.993V34.6641H234.415V39.9062C234.415 40.2448 234.485 40.5 234.626 40.6719C234.766 40.8385 235.006 40.9219 235.344 40.9219C235.511 40.9219 235.74 40.8906 236.032 40.8281V42C235.652 42.1042 235.282 42.1562 234.923 42.1562C234.277 42.1562 233.79 41.9609 233.462 41.5703C233.134 41.1797 232.969 40.625 232.969 39.9062V34.6641H231.43V33.5469H232.969V31.5H234.415ZM242.907 42C242.824 41.8333 242.756 41.5365 242.704 41.1094C242.032 41.8073 241.23 42.1562 240.298 42.1562C239.464 42.1562 238.779 41.9219 238.243 41.4531C237.712 40.9792 237.446 40.3802 237.446 39.6562C237.446 38.776 237.779 38.0938 238.446 37.6094C239.118 37.1198 240.061 36.875 241.274 36.875H242.68V36.2109C242.68 35.7057 242.529 35.3047 242.227 35.0078C241.925 34.7057 241.48 34.5547 240.891 34.5547C240.376 34.5547 239.943 34.6849 239.594 34.9453C239.246 35.2057 239.071 35.5208 239.071 35.8906H237.618C237.618 35.4688 237.766 35.0625 238.063 34.6719C238.365 34.276 238.772 33.9635 239.282 33.7344C239.798 33.5052 240.363 33.3906 240.977 33.3906C241.951 33.3906 242.714 33.6354 243.266 34.125C243.818 34.6094 244.105 35.2786 244.126 36.1328V40.0234C244.126 40.7995 244.225 41.4167 244.423 41.875V42H242.907ZM240.509 40.8984C240.962 40.8984 241.391 40.7812 241.798 40.5469C242.204 40.3125 242.498 40.0078 242.68 39.6328V37.8984H241.548C239.777 37.8984 238.891 38.4167 238.891 39.4531C238.891 39.9062 239.042 40.2604 239.344 40.5156C239.647 40.7708 240.035 40.8984 240.509 40.8984ZM247.962 42H246.516V33.5469H247.962V42ZM246.399 31.3047C246.399 31.0703 246.469 30.8724 246.61 30.7109C246.756 30.5495 246.969 30.4688 247.251 30.4688C247.532 30.4688 247.746 30.5495 247.891 30.7109C248.037 30.8724 248.11 31.0703 248.11 31.3047C248.11 31.5391 248.037 31.7344 247.891 31.8906C247.746 32.0469 247.532 32.125 247.251 32.125C246.969 32.125 246.756 32.0469 246.61 31.8906C246.469 31.7344 246.399 31.5391 246.399 31.3047ZM251.852 42H250.407V30H251.852V42ZM259.094 39.7578C259.094 39.3672 258.946 39.0651 258.649 38.8516C258.358 38.6328 257.844 38.4453 257.11 38.2891C256.381 38.1328 255.8 37.9453 255.368 37.7266C254.941 37.5078 254.623 37.2474 254.415 36.9453C254.212 36.6432 254.11 36.2839 254.11 35.8672C254.11 35.1745 254.402 34.5885 254.985 34.1094C255.574 33.6302 256.324 33.3906 257.235 33.3906C258.193 33.3906 258.969 33.638 259.563 34.1328C260.162 34.6276 260.462 35.2604 260.462 36.0312H259.009C259.009 35.6354 258.839 35.2943 258.501 35.0078C258.167 34.7214 257.746 34.5781 257.235 34.5781C256.709 34.5781 256.298 34.6927 256.001 34.9219C255.704 35.151 255.555 35.4505 255.555 35.8203C255.555 36.1693 255.693 36.4323 255.969 36.6094C256.246 36.7865 256.743 36.9557 257.462 37.1172C258.186 37.2786 258.772 37.4714 259.219 37.6953C259.667 37.9193 259.998 38.1901 260.212 38.5078C260.43 38.8203 260.54 39.2031 260.54 39.6562C260.54 40.4115 260.238 41.0182 259.634 41.4766C259.029 41.9297 258.246 42.1562 257.282 42.1562C256.605 42.1562 256.006 42.0365 255.485 41.7969C254.964 41.5573 254.555 41.224 254.259 40.7969C253.967 40.3646 253.821 39.8984 253.821 39.3984H255.266C255.292 39.8828 255.485 40.2682 255.844 40.5547C256.209 40.8359 256.688 40.9766 257.282 40.9766C257.829 40.9766 258.266 40.8672 258.594 40.6484C258.928 40.4245 259.094 40.1276 259.094 39.7578ZM262.454 41.2422C262.454 40.9922 262.527 40.7839 262.673 40.6172C262.824 40.4505 263.048 40.3672 263.344 40.3672C263.641 40.3672 263.865 40.4505 264.016 40.6172C264.173 40.7839 264.251 40.9922 264.251 41.2422C264.251 41.4818 264.173 41.6823 264.016 41.8438C263.865 42.0052 263.641 42.0859 263.344 42.0859C263.048 42.0859 262.824 42.0052 262.673 41.8438C262.527 41.6823 262.454 41.4818 262.454 41.2422Z" fill="#656668"/>
<path d="M18.6322 47.744H34.0242V45.312H23.0162C27.1442 41.952 33.3522 37.056 33.3522 31.296C33.3522 27.008 30.5362 24.448 26.1842 24.448C22.0242 24.448 18.9202 27.008 18.7282 31.936H21.5442C21.6722 29.024 23.2082 26.944 26.2162 26.944C29.3522 26.944 30.4722 28.864 30.4722 31.424C30.4722 36.16 24.7122 40.768 18.6322 45.664V47.744Z" fill="#656668"/>
</svg>
