<svg width="557" height="75" viewBox="0 0 557 75" fill="none" xmlns="http://www.w3.org/2000/svg">
<path d="M63.821 38.5469V43H62.321V31.625H66.5164C67.7611 31.625 68.7351 31.9427 69.4382 32.5781C70.1466 33.2135 70.5007 34.0547 70.5007 35.1016C70.5007 36.2057 70.1544 37.0573 69.4617 37.6562C68.7742 38.25 67.7872 38.5469 66.5007 38.5469H63.821ZM63.821 37.3203H66.5164C67.3184 37.3203 67.933 37.1328 68.3601 36.7578C68.7872 36.3776 69.0007 35.8307 69.0007 35.1172C69.0007 34.4401 68.7872 33.8984 68.3601 33.4922C67.933 33.0859 67.3471 32.875 66.6023 32.8594H63.821V37.3203ZM77.3132 43C77.2299 42.8333 77.1622 42.5365 77.1101 42.1094C76.4382 42.8073 75.6361 43.1562 74.7039 43.1562C73.8705 43.1562 73.1856 42.9219 72.6492 42.4531C72.1179 41.9792 71.8523 41.3802 71.8523 40.6562C71.8523 39.776 72.1856 39.0938 72.8523 38.6094C73.5242 38.1198 74.4669 37.875 75.6804 37.875H77.0867V37.2109C77.0867 36.7057 76.9356 36.3047 76.6335 36.0078C76.3315 35.7057 75.8861 35.5547 75.2976 35.5547C74.782 35.5547 74.3497 35.6849 74.0007 35.9453C73.6518 36.2057 73.4773 36.5208 73.4773 36.8906H72.0242C72.0242 36.4688 72.1726 36.0625 72.4695 35.6719C72.7716 35.276 73.1778 34.9635 73.6882 34.7344C74.2039 34.5052 74.769 34.3906 75.3835 34.3906C76.3575 34.3906 77.1205 34.6354 77.6726 35.125C78.2247 35.6094 78.5111 36.2786 78.532 37.1328V41.0234C78.532 41.7995 78.6309 42.4167 78.8289 42.875V43H77.3132ZM74.9148 41.8984C75.3679 41.8984 75.7976 41.7812 76.2039 41.5469C76.6101 41.3125 76.9044 41.0078 77.0867 40.6328V38.8984H75.9539C74.183 38.8984 73.2976 39.4167 73.2976 40.4531C73.2976 40.9062 73.4486 41.2604 73.7507 41.5156C74.0528 41.7708 74.4408 41.8984 74.9148 41.8984ZM83.4382 40.8828L85.407 34.5469H86.9539L83.5554 44.3047C83.0294 45.7109 82.1934 46.4141 81.0476 46.4141L80.7742 46.3906L80.2351 46.2891V45.1172L80.6257 45.1484C81.1153 45.1484 81.4955 45.0495 81.7664 44.8516C82.0424 44.6536 82.269 44.2917 82.446 43.7656L82.7664 42.9062L79.7507 34.5469H81.3289L83.4382 40.8828ZM89.6101 34.5469L89.6492 35.4844C90.269 34.7552 91.1049 34.3906 92.157 34.3906C93.3393 34.3906 94.144 34.8438 94.571 35.75C94.8523 35.3438 95.2169 35.0156 95.6648 34.7656C96.1179 34.5156 96.6518 34.3906 97.2664 34.3906C99.1205 34.3906 100.063 35.3724 100.094 37.3359V43H98.6492V37.4219C98.6492 36.8177 98.5111 36.3672 98.2351 36.0703C97.9591 35.7682 97.4955 35.6172 96.8445 35.6172C96.308 35.6172 95.8627 35.7786 95.5085 36.1016C95.1544 36.4193 94.9486 36.849 94.8914 37.3906V43H93.4382V37.4609C93.4382 36.2318 92.8367 35.6172 91.6335 35.6172C90.6856 35.6172 90.0372 36.0208 89.6882 36.8281V43H88.2429V34.5469H89.6101ZM105.79 43.1562C104.644 43.1562 103.712 42.7812 102.993 42.0312C102.274 41.276 101.915 40.2682 101.915 39.0078V38.7422C101.915 37.9036 102.074 37.1562 102.391 36.5C102.714 35.8385 103.162 35.3229 103.735 34.9531C104.313 34.5781 104.938 34.3906 105.61 34.3906C106.709 34.3906 107.563 34.7526 108.173 35.4766C108.782 36.2005 109.087 37.237 109.087 38.5859V39.1875H103.36C103.381 40.0208 103.623 40.6953 104.087 41.2109C104.555 41.7214 105.149 41.9766 105.868 41.9766C106.378 41.9766 106.811 41.8724 107.165 41.6641C107.519 41.4557 107.829 41.1797 108.094 40.8359L108.977 41.5234C108.269 42.612 107.206 43.1562 105.79 43.1562ZM105.61 35.5781C105.027 35.5781 104.537 35.7917 104.141 36.2188C103.746 36.6406 103.501 37.2344 103.407 38H107.641V37.8906C107.6 37.1562 107.402 36.5885 107.048 36.1875C106.693 35.7812 106.214 35.5781 105.61 35.5781ZM112.134 34.5469L112.18 35.6094C112.826 34.7969 113.67 34.3906 114.712 34.3906C116.498 34.3906 117.399 35.3984 117.415 37.4141V43H115.969V37.4062C115.964 36.7969 115.824 36.3464 115.548 36.0547C115.277 35.763 114.852 35.6172 114.274 35.6172C113.805 35.6172 113.394 35.7422 113.04 35.9922C112.686 36.2422 112.41 36.5703 112.212 36.9766V43H110.766V34.5469H112.134ZM121.555 32.5V34.5469H123.134V35.6641H121.555V40.9062C121.555 41.2448 121.626 41.5 121.766 41.6719C121.907 41.8385 122.147 41.9219 122.485 41.9219C122.652 41.9219 122.881 41.8906 123.173 41.8281V43C122.792 43.1042 122.423 43.1562 122.063 43.1562C121.417 43.1562 120.93 42.9609 120.602 42.5703C120.274 42.1797 120.11 41.625 120.11 40.9062V35.6641H118.571V34.5469H120.11V32.5H121.555ZM132.188 41.9766C132.704 41.9766 133.154 41.8203 133.54 41.5078C133.925 41.1953 134.139 40.8047 134.18 40.3359H135.548C135.522 40.8203 135.355 41.2812 135.048 41.7188C134.74 42.1562 134.329 42.5052 133.813 42.7656C133.303 43.026 132.761 43.1562 132.188 43.1562C131.037 43.1562 130.121 42.7734 129.438 42.0078C128.761 41.237 128.423 40.1849 128.423 38.8516V38.6094C128.423 37.7865 128.574 37.0547 128.876 36.4141C129.178 35.7734 129.61 35.276 130.173 34.9219C130.74 34.5677 131.41 34.3906 132.18 34.3906C133.128 34.3906 133.915 34.6745 134.54 35.2422C135.17 35.8099 135.506 36.5469 135.548 37.4531H134.18C134.139 36.9062 133.93 36.4583 133.555 36.1094C133.186 35.7552 132.727 35.5781 132.18 35.5781C131.446 35.5781 130.876 35.8438 130.469 36.375C130.068 36.901 129.868 37.6641 129.868 38.6641V38.9375C129.868 39.9115 130.068 40.6615 130.469 41.1875C130.871 41.7135 131.443 41.9766 132.188 41.9766ZM136.79 38.6953C136.79 37.8672 136.951 37.1224 137.274 36.4609C137.602 35.7995 138.055 35.2891 138.634 34.9297C139.217 34.5703 139.881 34.3906 140.626 34.3906C141.777 34.3906 142.706 34.7891 143.415 35.5859C144.128 36.3828 144.485 37.4427 144.485 38.7656V38.8672C144.485 39.6901 144.326 40.4297 144.009 41.0859C143.696 41.737 143.246 42.2448 142.657 42.6094C142.074 42.974 141.402 43.1562 140.641 43.1562C139.496 43.1562 138.566 42.7578 137.852 41.9609C137.144 41.1641 136.79 40.1094 136.79 38.7969V38.6953ZM138.243 38.8672C138.243 39.8047 138.459 40.5573 138.891 41.125C139.329 41.6927 139.912 41.9766 140.641 41.9766C141.376 41.9766 141.959 41.6901 142.391 41.1172C142.824 40.5391 143.04 39.7318 143.04 38.6953C143.04 37.7682 142.818 37.0182 142.376 36.4453C141.938 35.8672 141.355 35.5781 140.626 35.5781C139.912 35.5781 139.337 35.862 138.899 36.4297C138.462 36.9974 138.243 37.8099 138.243 38.8672ZM147.657 34.5469L147.696 35.4844C148.316 34.7552 149.152 34.3906 150.204 34.3906C151.386 34.3906 152.191 34.8438 152.618 35.75C152.899 35.3438 153.264 35.0156 153.712 34.7656C154.165 34.5156 154.699 34.3906 155.313 34.3906C157.167 34.3906 158.11 35.3724 158.141 37.3359V43H156.696V37.4219C156.696 36.8177 156.558 36.3672 156.282 36.0703C156.006 35.7682 155.542 35.6172 154.891 35.6172C154.355 35.6172 153.91 35.7786 153.555 36.1016C153.201 36.4193 152.996 36.849 152.938 37.3906V43H151.485V37.4609C151.485 36.2318 150.884 35.6172 149.68 35.6172C148.733 35.6172 148.084 36.0208 147.735 36.8281V43H146.29V34.5469H147.657ZM167.469 38.8672C167.469 40.1536 167.175 41.1901 166.587 41.9766C165.998 42.763 165.201 43.1562 164.196 43.1562C163.17 43.1562 162.363 42.8307 161.774 42.1797V46.25H160.329V34.5469H161.649L161.719 35.4844C162.308 34.7552 163.126 34.3906 164.173 34.3906C165.188 34.3906 165.99 34.7734 166.579 35.5391C167.173 36.3047 167.469 37.3698 167.469 38.7344V38.8672ZM166.024 38.7031C166.024 37.75 165.821 36.9974 165.415 36.4453C165.009 35.8932 164.451 35.6172 163.743 35.6172C162.868 35.6172 162.212 36.0052 161.774 36.7812V40.8203C162.206 41.5911 162.868 41.9766 163.759 41.9766C164.451 41.9766 165.001 41.7031 165.407 41.1562C165.818 40.6042 166.024 39.7865 166.024 38.7031ZM170.884 43H169.438V31H170.884V43ZM176.712 43.1562C175.566 43.1562 174.634 42.7812 173.915 42.0312C173.196 41.276 172.837 40.2682 172.837 39.0078V38.7422C172.837 37.9036 172.996 37.1562 173.313 36.5C173.636 35.8385 174.084 35.3229 174.657 34.9531C175.235 34.5781 175.86 34.3906 176.532 34.3906C177.631 34.3906 178.485 34.7526 179.094 35.4766C179.704 36.2005 180.009 37.237 180.009 38.5859V39.1875H174.282C174.303 40.0208 174.545 40.6953 175.009 41.2109C175.477 41.7214 176.071 41.9766 176.79 41.9766C177.3 41.9766 177.733 41.8724 178.087 41.6641C178.441 41.4557 178.751 41.1797 179.016 40.8359L179.899 41.5234C179.191 42.612 178.128 43.1562 176.712 43.1562ZM176.532 35.5781C175.949 35.5781 175.459 35.7917 175.063 36.2188C174.667 36.6406 174.423 37.2344 174.329 38H178.563V37.8906C178.522 37.1562 178.324 36.5885 177.969 36.1875C177.615 35.7812 177.136 35.5781 176.532 35.5781ZM183.649 32.5V34.5469H185.227V35.6641H183.649V40.9062C183.649 41.2448 183.719 41.5 183.86 41.6719C184.001 41.8385 184.24 41.9219 184.579 41.9219C184.746 41.9219 184.975 41.8906 185.266 41.8281V43C184.886 43.1042 184.516 43.1562 184.157 43.1562C183.511 43.1562 183.024 42.9609 182.696 42.5703C182.368 42.1797 182.204 41.625 182.204 40.9062V35.6641H180.665V34.5469H182.204V32.5H183.649ZM190.43 43.1562C189.285 43.1562 188.352 42.7812 187.634 42.0312C186.915 41.276 186.555 40.2682 186.555 39.0078V38.7422C186.555 37.9036 186.714 37.1562 187.032 36.5C187.355 35.8385 187.803 35.3229 188.376 34.9531C188.954 34.5781 189.579 34.3906 190.251 34.3906C191.35 34.3906 192.204 34.7526 192.813 35.4766C193.423 36.2005 193.727 37.237 193.727 38.5859V39.1875H188.001C188.022 40.0208 188.264 40.6953 188.727 41.2109C189.196 41.7214 189.79 41.9766 190.509 41.9766C191.019 41.9766 191.451 41.8724 191.805 41.6641C192.16 41.4557 192.469 41.1797 192.735 40.8359L193.618 41.5234C192.91 42.612 191.847 43.1562 190.43 43.1562ZM190.251 35.5781C189.667 35.5781 189.178 35.7917 188.782 36.2188C188.386 36.6406 188.141 37.2344 188.048 38H192.282V37.8906C192.24 37.1562 192.042 36.5885 191.688 36.1875C191.334 35.7812 190.855 35.5781 190.251 35.5781ZM195.055 38.7031C195.055 37.4062 195.363 36.3646 195.977 35.5781C196.592 34.7865 197.397 34.3906 198.391 34.3906C199.381 34.3906 200.165 34.7292 200.743 35.4062V31H202.188V43H200.86L200.79 42.0938C200.212 42.8021 199.407 43.1562 198.376 43.1562C197.397 43.1562 196.597 42.7552 195.977 41.9531C195.363 41.151 195.055 40.1042 195.055 38.8125V38.7031ZM196.501 38.8672C196.501 39.8255 196.699 40.5755 197.094 41.1172C197.49 41.6589 198.037 41.9297 198.735 41.9297C199.652 41.9297 200.321 41.5182 200.743 40.6953V36.8125C200.311 36.0156 199.647 35.6172 198.751 35.6172C198.042 35.6172 197.49 35.8906 197.094 36.4375C196.699 36.9844 196.501 37.7943 196.501 38.8672ZM213.329 40.7578C213.329 40.3672 213.18 40.0651 212.884 39.8516C212.592 39.6328 212.079 39.4453 211.344 39.2891C210.615 39.1328 210.035 38.9453 209.602 38.7266C209.175 38.5078 208.858 38.2474 208.649 37.9453C208.446 37.6432 208.344 37.2839 208.344 36.8672C208.344 36.1745 208.636 35.5885 209.219 35.1094C209.808 34.6302 210.558 34.3906 211.469 34.3906C212.428 34.3906 213.204 34.638 213.798 35.1328C214.397 35.6276 214.696 36.2604 214.696 37.0312H213.243C213.243 36.6354 213.074 36.2943 212.735 36.0078C212.402 35.7214 211.98 35.5781 211.469 35.5781C210.943 35.5781 210.532 35.6927 210.235 35.9219C209.938 36.151 209.79 36.4505 209.79 36.8203C209.79 37.1693 209.928 37.4323 210.204 37.6094C210.48 37.7865 210.977 37.9557 211.696 38.1172C212.42 38.2786 213.006 38.4714 213.454 38.6953C213.902 38.9193 214.233 39.1901 214.446 39.5078C214.665 39.8203 214.774 40.2031 214.774 40.6562C214.774 41.4115 214.472 42.0182 213.868 42.4766C213.264 42.9297 212.48 43.1562 211.516 43.1562C210.839 43.1562 210.24 43.0365 209.719 42.7969C209.199 42.5573 208.79 42.224 208.493 41.7969C208.201 41.3646 208.055 40.8984 208.055 40.3984H209.501C209.527 40.8828 209.719 41.2682 210.079 41.5547C210.443 41.8359 210.923 41.9766 211.516 41.9766C212.063 41.9766 212.501 41.8672 212.829 41.6484C213.162 41.4245 213.329 41.1276 213.329 40.7578ZM221.876 42.1641C221.313 42.8255 220.488 43.1562 219.399 43.1562C218.498 43.1562 217.811 42.8958 217.337 42.375C216.868 41.849 216.631 41.0729 216.626 40.0469V34.5469H218.071V40.0078C218.071 41.2891 218.592 41.9297 219.634 41.9297C220.738 41.9297 221.472 41.5182 221.837 40.6953V34.5469H223.282V43H221.907L221.876 42.1641ZM228.876 41.9766C229.391 41.9766 229.842 41.8203 230.227 41.5078C230.613 41.1953 230.826 40.8047 230.868 40.3359H232.235C232.209 40.8203 232.042 41.2812 231.735 41.7188C231.428 42.1562 231.016 42.5052 230.501 42.7656C229.99 43.026 229.449 43.1562 228.876 43.1562C227.725 43.1562 226.808 42.7734 226.126 42.0078C225.449 41.237 225.11 40.1849 225.11 38.8516V38.6094C225.11 37.7865 225.261 37.0547 225.563 36.4141C225.865 35.7734 226.298 35.276 226.86 34.9219C227.428 34.5677 228.097 34.3906 228.868 34.3906C229.816 34.3906 230.602 34.6745 231.227 35.2422C231.858 35.8099 232.193 36.5469 232.235 37.4531H230.868C230.826 36.9062 230.618 36.4583 230.243 36.1094C229.873 35.7552 229.415 35.5781 228.868 35.5781C228.134 35.5781 227.563 35.8438 227.157 36.375C226.756 36.901 226.555 37.6641 226.555 38.6641V38.9375C226.555 39.9115 226.756 40.6615 227.157 41.1875C227.558 41.7135 228.131 41.9766 228.876 41.9766ZM237.251 41.9766C237.766 41.9766 238.217 41.8203 238.602 41.5078C238.988 41.1953 239.201 40.8047 239.243 40.3359H240.61C240.584 40.8203 240.417 41.2812 240.11 41.7188C239.803 42.1562 239.391 42.5052 238.876 42.7656C238.365 43.026 237.824 43.1562 237.251 43.1562C236.1 43.1562 235.183 42.7734 234.501 42.0078C233.824 41.237 233.485 40.1849 233.485 38.8516V38.6094C233.485 37.7865 233.636 37.0547 233.938 36.4141C234.24 35.7734 234.673 35.276 235.235 34.9219C235.803 34.5677 236.472 34.3906 237.243 34.3906C238.191 34.3906 238.977 34.6745 239.602 35.2422C240.233 35.8099 240.568 36.5469 240.61 37.4531H239.243C239.201 36.9062 238.993 36.4583 238.618 36.1094C238.248 35.7552 237.79 35.5781 237.243 35.5781C236.509 35.5781 235.938 35.8438 235.532 36.375C235.131 36.901 234.93 37.6641 234.93 38.6641V38.9375C234.93 39.9115 235.131 40.6615 235.532 41.1875C235.933 41.7135 236.506 41.9766 237.251 41.9766ZM245.743 43.1562C244.597 43.1562 243.665 42.7812 242.946 42.0312C242.227 41.276 241.868 40.2682 241.868 39.0078V38.7422C241.868 37.9036 242.027 37.1562 242.344 36.5C242.667 35.8385 243.115 35.3229 243.688 34.9531C244.266 34.5781 244.891 34.3906 245.563 34.3906C246.662 34.3906 247.516 34.7526 248.126 35.4766C248.735 36.2005 249.04 37.237 249.04 38.5859V39.1875H243.313C243.334 40.0208 243.576 40.6953 244.04 41.2109C244.509 41.7214 245.102 41.9766 245.821 41.9766C246.331 41.9766 246.764 41.8724 247.118 41.6641C247.472 41.4557 247.782 41.1797 248.048 40.8359L248.93 41.5234C248.222 42.612 247.16 43.1562 245.743 43.1562ZM245.563 35.5781C244.98 35.5781 244.49 35.7917 244.094 36.2188C243.699 36.6406 243.454 37.2344 243.36 38H247.594V37.8906C247.553 37.1562 247.355 36.5885 247.001 36.1875C246.647 35.7812 246.167 35.5781 245.563 35.5781ZM255.641 40.7578C255.641 40.3672 255.493 40.0651 255.196 39.8516C254.904 39.6328 254.391 39.4453 253.657 39.2891C252.928 39.1328 252.347 38.9453 251.915 38.7266C251.488 38.5078 251.17 38.2474 250.962 37.9453C250.759 37.6432 250.657 37.2839 250.657 36.8672C250.657 36.1745 250.949 35.5885 251.532 35.1094C252.121 34.6302 252.871 34.3906 253.782 34.3906C254.74 34.3906 255.516 34.638 256.11 35.1328C256.709 35.6276 257.009 36.2604 257.009 37.0312H255.555C255.555 36.6354 255.386 36.2943 255.048 36.0078C254.714 35.7214 254.292 35.5781 253.782 35.5781C253.256 35.5781 252.844 35.6927 252.548 35.9219C252.251 36.151 252.102 36.4505 252.102 36.8203C252.102 37.1693 252.24 37.4323 252.516 37.6094C252.792 37.7865 253.29 37.9557 254.009 38.1172C254.733 38.2786 255.318 38.4714 255.766 38.6953C256.214 38.9193 256.545 39.1901 256.759 39.5078C256.977 39.8203 257.087 40.2031 257.087 40.6562C257.087 41.4115 256.785 42.0182 256.18 42.4766C255.576 42.9297 254.792 43.1562 253.829 43.1562C253.152 43.1562 252.553 43.0365 252.032 42.7969C251.511 42.5573 251.102 42.224 250.805 41.7969C250.514 41.3646 250.368 40.8984 250.368 40.3984H251.813C251.839 40.8828 252.032 41.2682 252.391 41.5547C252.756 41.8359 253.235 41.9766 253.829 41.9766C254.376 41.9766 254.813 41.8672 255.141 41.6484C255.475 41.4245 255.641 41.1276 255.641 40.7578ZM263.891 40.7578C263.891 40.3672 263.743 40.0651 263.446 39.8516C263.154 39.6328 262.641 39.4453 261.907 39.2891C261.178 39.1328 260.597 38.9453 260.165 38.7266C259.738 38.5078 259.42 38.2474 259.212 37.9453C259.009 37.6432 258.907 37.2839 258.907 36.8672C258.907 36.1745 259.199 35.5885 259.782 35.1094C260.371 34.6302 261.121 34.3906 262.032 34.3906C262.99 34.3906 263.766 34.638 264.36 35.1328C264.959 35.6276 265.259 36.2604 265.259 37.0312H263.805C263.805 36.6354 263.636 36.2943 263.298 36.0078C262.964 35.7214 262.542 35.5781 262.032 35.5781C261.506 35.5781 261.094 35.6927 260.798 35.9219C260.501 36.151 260.352 36.4505 260.352 36.8203C260.352 37.1693 260.49 37.4323 260.766 37.6094C261.042 37.7865 261.54 37.9557 262.259 38.1172C262.983 38.2786 263.568 38.4714 264.016 38.6953C264.464 38.9193 264.795 39.1901 265.009 39.5078C265.227 39.8203 265.337 40.2031 265.337 40.6562C265.337 41.4115 265.035 42.0182 264.43 42.4766C263.826 42.9297 263.042 43.1562 262.079 43.1562C261.402 43.1562 260.803 43.0365 260.282 42.7969C259.761 42.5573 259.352 42.224 259.055 41.7969C258.764 41.3646 258.618 40.8984 258.618 40.3984H260.063C260.089 40.8828 260.282 41.2682 260.641 41.5547C261.006 41.8359 261.485 41.9766 262.079 41.9766C262.626 41.9766 263.063 41.8672 263.391 41.6484C263.725 41.4245 263.891 41.1276 263.891 40.7578ZM267.93 43V35.6641H266.594V34.5469H267.93V33.6797C267.93 32.7734 268.173 32.0729 268.657 31.5781C269.141 31.0833 269.826 30.8359 270.712 30.8359C271.045 30.8359 271.376 30.8802 271.704 30.9688L271.626 32.1406C271.381 32.0938 271.121 32.0703 270.844 32.0703C270.376 32.0703 270.014 32.2083 269.759 32.4844C269.503 32.7552 269.376 33.1458 269.376 33.6562V34.5469H271.18V35.6641H269.376V43H267.93ZM278.001 42.1641C277.438 42.8255 276.613 43.1562 275.524 43.1562C274.623 43.1562 273.936 42.8958 273.462 42.375C272.993 41.849 272.756 41.0729 272.751 40.0469V34.5469H274.196V40.0078C274.196 41.2891 274.717 41.9297 275.759 41.9297C276.863 41.9297 277.597 41.5182 277.962 40.6953V34.5469H279.407V43H278.032L278.001 42.1641ZM283.18 43H281.735V31H283.18V43ZM287.071 43H285.626V31H287.071V43ZM292.157 40.8828L294.126 34.5469H295.673L292.274 44.3047C291.748 45.7109 290.912 46.4141 289.766 46.4141L289.493 46.3906L288.954 46.2891V45.1172L289.344 45.1484C289.834 45.1484 290.214 45.0495 290.485 44.8516C290.761 44.6536 290.988 44.2917 291.165 43.7656L291.485 42.9062L288.469 34.5469H290.048L292.157 40.8828ZM296.157 42.2422C296.157 41.9922 296.23 41.7839 296.376 41.6172C296.527 41.4505 296.751 41.3672 297.048 41.3672C297.344 41.3672 297.568 41.4505 297.719 41.6172C297.876 41.7839 297.954 41.9922 297.954 42.2422C297.954 42.4818 297.876 42.6823 297.719 42.8438C297.568 43.0052 297.344 43.0859 297.048 43.0859C296.751 43.0859 296.527 43.0052 296.376 42.8438C296.23 42.6823 296.157 42.4818 296.157 42.2422Z" fill="#656668"/>
<path d="M29.1202 49H32.0002V43.848H35.2002V41.32H32.0002V26.088H28.5122L17.2802 41.64V43.848H29.1202V49ZM20.6402 41.32L29.2482 29.128V41.32H20.6402Z" fill="#656668"/>
</svg>
