<svg width="557" height="75" viewBox="0 0 557 75" fill="none" xmlns="http://www.w3.org/2000/svg">
<path d="M68.7507 37.7422H63.821V41.7734H69.5476V43H62.321V31.625H69.4695V32.8594H63.821V36.5156H68.7507V37.7422ZM72.5554 34.5469L72.6023 35.6094C73.2481 34.7969 74.0919 34.3906 75.1335 34.3906C76.92 34.3906 77.821 35.3984 77.8367 37.4141V43H76.3914V37.4062C76.3861 36.7969 76.2455 36.3464 75.9695 36.0547C75.6986 35.763 75.2742 35.6172 74.696 35.6172C74.2273 35.6172 73.8158 35.7422 73.4617 35.9922C73.1075 36.2422 72.8315 36.5703 72.6335 36.9766V43H71.1882V34.5469H72.5554ZM81.9773 32.5V34.5469H83.5554V35.6641H81.9773V40.9062C81.9773 41.2448 82.0476 41.5 82.1882 41.6719C82.3289 41.8385 82.5684 41.9219 82.907 41.9219C83.0736 41.9219 83.3028 41.8906 83.5945 41.8281V43C83.2143 43.1042 82.8445 43.1562 82.4851 43.1562C81.8393 43.1562 81.3523 42.9609 81.0242 42.5703C80.696 42.1797 80.532 41.625 80.532 40.9062V35.6641H78.9929V34.5469H80.532V32.5H81.9773ZM88.7585 43.1562C87.6127 43.1562 86.6804 42.7812 85.9617 42.0312C85.2429 41.276 84.8835 40.2682 84.8835 39.0078V38.7422C84.8835 37.9036 85.0424 37.1562 85.3601 36.5C85.683 35.8385 86.1309 35.3229 86.7039 34.9531C87.282 34.5781 87.907 34.3906 88.5789 34.3906C89.6778 34.3906 90.532 34.7526 91.1414 35.4766C91.7507 36.2005 92.0554 37.237 92.0554 38.5859V39.1875H86.3289C86.3497 40.0208 86.5919 40.6953 87.0554 41.2109C87.5242 41.7214 88.1179 41.9766 88.8367 41.9766C89.3471 41.9766 89.7794 41.8724 90.1335 41.6641C90.4877 41.4557 90.7976 41.1797 91.0632 40.8359L91.946 41.5234C91.2377 42.612 90.1752 43.1562 88.7585 43.1562ZM88.5789 35.5781C87.9955 35.5781 87.5059 35.7917 87.1101 36.2188C86.7143 36.6406 86.4695 37.2344 86.3757 38H90.6101V37.8906C90.5684 37.1562 90.3705 36.5885 90.0164 36.1875C89.6622 35.7812 89.183 35.5781 88.5789 35.5781ZM97.821 35.8438C97.6023 35.8073 97.3653 35.7891 97.1101 35.7891C96.1622 35.7891 95.519 36.1927 95.1804 37V43H93.7351V34.5469H95.1414L95.1648 35.5234C95.6388 34.7682 96.3106 34.3906 97.1804 34.3906C97.4617 34.3906 97.6752 34.4271 97.821 34.5V35.8438ZM105.891 40.8828L107.86 34.5469H109.407L106.009 44.3047C105.483 45.7109 104.647 46.4141 103.501 46.4141L103.227 46.3906L102.688 46.2891V45.1172L103.079 45.1484C103.568 45.1484 103.949 45.0495 104.219 44.8516C104.496 44.6536 104.722 44.2917 104.899 43.7656L105.219 42.9062L102.204 34.5469H103.782L105.891 40.8828ZM110.196 38.6953C110.196 37.8672 110.358 37.1224 110.68 36.4609C111.009 35.7995 111.462 35.2891 112.04 34.9297C112.623 34.5703 113.287 34.3906 114.032 34.3906C115.183 34.3906 116.113 34.7891 116.821 35.5859C117.535 36.3828 117.891 37.4427 117.891 38.7656V38.8672C117.891 39.6901 117.733 40.4297 117.415 41.0859C117.102 41.737 116.652 42.2448 116.063 42.6094C115.48 42.974 114.808 43.1562 114.048 43.1562C112.902 43.1562 111.972 42.7578 111.259 41.9609C110.55 41.1641 110.196 40.1094 110.196 38.7969V38.6953ZM111.649 38.8672C111.649 39.8047 111.865 40.5573 112.298 41.125C112.735 41.6927 113.318 41.9766 114.048 41.9766C114.782 41.9766 115.365 41.6901 115.798 41.1172C116.23 40.5391 116.446 39.7318 116.446 38.6953C116.446 37.7682 116.225 37.0182 115.782 36.4453C115.344 35.8672 114.761 35.5781 114.032 35.5781C113.318 35.5781 112.743 35.862 112.305 36.4297C111.868 36.9974 111.649 37.8099 111.649 38.8672ZM124.923 42.1641C124.36 42.8255 123.535 43.1562 122.446 43.1562C121.545 43.1562 120.858 42.8958 120.384 42.375C119.915 41.849 119.678 41.0729 119.673 40.0469V34.5469H121.118V40.0078C121.118 41.2891 121.639 41.9297 122.68 41.9297C123.785 41.9297 124.519 41.5182 124.884 40.6953V34.5469H126.329V43H124.954L124.923 42.1641ZM134.227 38.5469V43H132.727V31.625H136.923C138.167 31.625 139.141 31.9427 139.844 32.5781C140.553 33.2135 140.907 34.0547 140.907 35.1016C140.907 36.2057 140.561 37.0573 139.868 37.6562C139.18 38.25 138.193 38.5469 136.907 38.5469H134.227ZM134.227 37.3203H136.923C137.725 37.3203 138.339 37.1328 138.766 36.7578C139.193 36.3776 139.407 35.8307 139.407 35.1172C139.407 34.4401 139.193 33.8984 138.766 33.4922C138.339 33.0859 137.753 32.875 137.009 32.8594H134.227V37.3203ZM144.43 43H142.93V31.625H144.43V43ZM155.923 43H154.415L148.688 34.2344V43H147.18V31.625H148.688L154.43 40.4297V31.625H155.923V43ZM164.29 32.5V34.5469H165.868V35.6641H164.29V40.9062C164.29 41.2448 164.36 41.5 164.501 41.6719C164.641 41.8385 164.881 41.9219 165.219 41.9219C165.386 41.9219 165.615 41.8906 165.907 41.8281V43C165.527 43.1042 165.157 43.1562 164.798 43.1562C164.152 43.1562 163.665 42.9609 163.337 42.5703C163.009 42.1797 162.844 41.625 162.844 40.9062V35.6641H161.305V34.5469H162.844V32.5H164.29ZM167.024 38.6953C167.024 37.8672 167.186 37.1224 167.509 36.4609C167.837 35.7995 168.29 35.2891 168.868 34.9297C169.451 34.5703 170.115 34.3906 170.86 34.3906C172.011 34.3906 172.941 34.7891 173.649 35.5859C174.363 36.3828 174.719 37.4427 174.719 38.7656V38.8672C174.719 39.6901 174.561 40.4297 174.243 41.0859C173.93 41.737 173.48 42.2448 172.891 42.6094C172.308 42.974 171.636 43.1562 170.876 43.1562C169.73 43.1562 168.8 42.7578 168.087 41.9609C167.378 41.1641 167.024 40.1094 167.024 38.7969V38.6953ZM168.477 38.8672C168.477 39.8047 168.693 40.5573 169.126 41.125C169.563 41.6927 170.147 41.9766 170.876 41.9766C171.61 41.9766 172.193 41.6901 172.626 41.1172C173.058 40.5391 173.274 39.7318 173.274 38.6953C173.274 37.7682 173.053 37.0182 172.61 36.4453C172.173 35.8672 171.589 35.5781 170.86 35.5781C170.147 35.5781 169.571 35.862 169.134 36.4297C168.696 36.9974 168.477 37.8099 168.477 38.8672ZM187.641 38.8672C187.641 40.1536 187.347 41.1901 186.759 41.9766C186.17 42.763 185.373 43.1562 184.368 43.1562C183.342 43.1562 182.535 42.8307 181.946 42.1797V46.25H180.501V34.5469H181.821L181.891 35.4844C182.48 34.7552 183.298 34.3906 184.344 34.3906C185.36 34.3906 186.162 34.7734 186.751 35.5391C187.344 36.3047 187.641 37.3698 187.641 38.7344V38.8672ZM186.196 38.7031C186.196 37.75 185.993 36.9974 185.587 36.4453C185.18 35.8932 184.623 35.6172 183.915 35.6172C183.04 35.6172 182.384 36.0052 181.946 36.7812V40.8203C182.378 41.5911 183.04 41.9766 183.93 41.9766C184.623 41.9766 185.173 41.7031 185.579 41.1562C185.99 40.6042 186.196 39.7865 186.196 38.7031ZM193.571 35.8438C193.352 35.8073 193.115 35.7891 192.86 35.7891C191.912 35.7891 191.269 36.1927 190.93 37V43H189.485V34.5469H190.891L190.915 35.5234C191.389 34.7682 192.061 34.3906 192.93 34.3906C193.212 34.3906 193.425 34.4271 193.571 34.5V35.8438ZM194.368 38.6953C194.368 37.8672 194.529 37.1224 194.852 36.4609C195.18 35.7995 195.634 35.2891 196.212 34.9297C196.795 34.5703 197.459 34.3906 198.204 34.3906C199.355 34.3906 200.285 34.7891 200.993 35.5859C201.706 36.3828 202.063 37.4427 202.063 38.7656V38.8672C202.063 39.6901 201.904 40.4297 201.587 41.0859C201.274 41.737 200.824 42.2448 200.235 42.6094C199.652 42.974 198.98 43.1562 198.219 43.1562C197.074 43.1562 196.144 42.7578 195.43 41.9609C194.722 41.1641 194.368 40.1094 194.368 38.7969V38.6953ZM195.821 38.8672C195.821 39.8047 196.037 40.5573 196.469 41.125C196.907 41.6927 197.49 41.9766 198.219 41.9766C198.954 41.9766 199.537 41.6901 199.969 41.1172C200.402 40.5391 200.618 39.7318 200.618 38.6953C200.618 37.7682 200.397 37.0182 199.954 36.4453C199.516 35.8672 198.933 35.5781 198.204 35.5781C197.49 35.5781 196.915 35.862 196.477 36.4297C196.04 36.9974 195.821 37.8099 195.821 38.8672ZM207.266 41.9766C207.782 41.9766 208.233 41.8203 208.618 41.5078C209.003 41.1953 209.217 40.8047 209.259 40.3359H210.626C210.6 40.8203 210.433 41.2812 210.126 41.7188C209.818 42.1562 209.407 42.5052 208.891 42.7656C208.381 43.026 207.839 43.1562 207.266 43.1562C206.115 43.1562 205.199 42.7734 204.516 42.0078C203.839 41.237 203.501 40.1849 203.501 38.8516V38.6094C203.501 37.7865 203.652 37.0547 203.954 36.4141C204.256 35.7734 204.688 35.276 205.251 34.9219C205.818 34.5677 206.488 34.3906 207.259 34.3906C208.206 34.3906 208.993 34.6745 209.618 35.2422C210.248 35.8099 210.584 36.5469 210.626 37.4531H209.259C209.217 36.9062 209.009 36.4583 208.634 36.1094C208.264 35.7552 207.805 35.5781 207.259 35.5781C206.524 35.5781 205.954 35.8438 205.548 36.375C205.147 36.901 204.946 37.6641 204.946 38.6641V38.9375C204.946 39.9115 205.147 40.6615 205.548 41.1875C205.949 41.7135 206.522 41.9766 207.266 41.9766ZM215.759 43.1562C214.613 43.1562 213.68 42.7812 212.962 42.0312C212.243 41.276 211.884 40.2682 211.884 39.0078V38.7422C211.884 37.9036 212.042 37.1562 212.36 36.5C212.683 35.8385 213.131 35.3229 213.704 34.9531C214.282 34.5781 214.907 34.3906 215.579 34.3906C216.678 34.3906 217.532 34.7526 218.141 35.4766C218.751 36.2005 219.055 37.237 219.055 38.5859V39.1875H213.329C213.35 40.0208 213.592 40.6953 214.055 41.2109C214.524 41.7214 215.118 41.9766 215.837 41.9766C216.347 41.9766 216.779 41.8724 217.134 41.6641C217.488 41.4557 217.798 41.1797 218.063 40.8359L218.946 41.5234C218.238 42.612 217.175 43.1562 215.759 43.1562ZM215.579 35.5781C214.996 35.5781 214.506 35.7917 214.11 36.2188C213.714 36.6406 213.469 37.2344 213.376 38H217.61V37.8906C217.568 37.1562 217.371 36.5885 217.016 36.1875C216.662 35.7812 216.183 35.5781 215.579 35.5781ZM224.243 43.1562C223.097 43.1562 222.165 42.7812 221.446 42.0312C220.727 41.276 220.368 40.2682 220.368 39.0078V38.7422C220.368 37.9036 220.527 37.1562 220.844 36.5C221.167 35.8385 221.615 35.3229 222.188 34.9531C222.766 34.5781 223.391 34.3906 224.063 34.3906C225.162 34.3906 226.016 34.7526 226.626 35.4766C227.235 36.2005 227.54 37.237 227.54 38.5859V39.1875H221.813C221.834 40.0208 222.076 40.6953 222.54 41.2109C223.009 41.7214 223.602 41.9766 224.321 41.9766C224.831 41.9766 225.264 41.8724 225.618 41.6641C225.972 41.4557 226.282 41.1797 226.548 40.8359L227.43 41.5234C226.722 42.612 225.66 43.1562 224.243 43.1562ZM224.063 35.5781C223.48 35.5781 222.99 35.7917 222.594 36.2188C222.199 36.6406 221.954 37.2344 221.86 38H226.094V37.8906C226.053 37.1562 225.855 36.5885 225.501 36.1875C225.147 35.7812 224.667 35.5781 224.063 35.5781ZM228.868 38.7031C228.868 37.4062 229.175 36.3646 229.79 35.5781C230.404 34.7865 231.209 34.3906 232.204 34.3906C233.193 34.3906 233.977 34.7292 234.555 35.4062V31H236.001V43H234.673L234.602 42.0938C234.024 42.8021 233.219 43.1562 232.188 43.1562C231.209 43.1562 230.41 42.7552 229.79 41.9531C229.175 41.151 228.868 40.1042 228.868 38.8125V38.7031ZM230.313 38.8672C230.313 39.8255 230.511 40.5755 230.907 41.1172C231.303 41.6589 231.85 41.9297 232.548 41.9297C233.464 41.9297 234.134 41.5182 234.555 40.6953V36.8125C234.123 36.0156 233.459 35.6172 232.563 35.6172C231.855 35.6172 231.303 35.8906 230.907 36.4375C230.511 36.9844 230.313 37.7943 230.313 38.8672ZM238.282 42.2422C238.282 41.9922 238.355 41.7839 238.501 41.6172C238.652 41.4505 238.876 41.3672 239.173 41.3672C239.469 41.3672 239.693 41.4505 239.844 41.6172C240.001 41.7839 240.079 41.9922 240.079 42.2422C240.079 42.4818 240.001 42.6823 239.844 42.8438C239.693 43.0052 239.469 43.0859 239.173 43.0859C238.876 43.0859 238.652 43.0052 238.501 42.8438C238.355 42.6823 238.282 42.4818 238.282 42.2422Z" fill="#656668"/>
<path d="M18.9202 31.688H21.7682C22.0562 29.448 23.6882 27.912 26.4082 27.912C29.1922 27.912 30.6642 29.448 30.6642 31.656C30.6642 34.344 28.5842 35.528 24.7122 35.56H23.9442V37.992H24.6802C28.8402 37.992 31.1122 39.24 31.1122 42.504C31.1122 44.872 29.6402 46.696 26.5362 46.696C23.4642 46.696 21.6722 44.808 21.3842 42.344H18.5682C18.9202 46.824 22.1842 49.16 26.5682 49.16C31.4002 49.16 33.8962 46.344 33.8962 42.76C33.8962 39.432 32.0722 37.448 29.3842 36.808V36.648C31.8162 36.104 33.4802 34.024 33.4802 31.368C33.4802 28.04 31.0162 25.416 26.5042 25.416C22.2162 25.416 19.2082 27.72 18.9202 31.688Z" fill="#656668"/>
</svg>
