<svg width="557" height="75" viewBox="0 0 557 75" fill="none" xmlns="http://www.w3.org/2000/svg">
<path d="M70.0439 30.625V38.3594C70.0387 39.4323 69.7002 40.3099 69.0283 40.9922C68.3617 41.6745 67.4554 42.0573 66.3096 42.1406L65.9111 42.1562C64.6663 42.1562 63.6742 41.8203 62.9346 41.1484C62.195 40.4766 61.82 39.5521 61.8096 38.375V30.625H63.2939V38.3281C63.2939 39.151 63.5205 39.7917 63.9736 40.25C64.4268 40.7031 65.0726 40.9297 65.9111 40.9297C66.7601 40.9297 67.4085 40.7031 67.8564 40.25C68.3096 39.7969 68.5361 39.1589 68.5361 38.3359V30.625H70.0439ZM77.1064 39.7578C77.1064 39.3672 76.958 39.0651 76.6611 38.8516C76.3695 38.6328 75.8564 38.4453 75.1221 38.2891C74.3929 38.1328 73.8122 37.9453 73.3799 37.7266C72.9528 37.5078 72.6351 37.2474 72.4268 36.9453C72.2236 36.6432 72.1221 36.2839 72.1221 35.8672C72.1221 35.1745 72.4137 34.5885 72.9971 34.1094C73.5856 33.6302 74.3356 33.3906 75.2471 33.3906C76.2054 33.3906 76.9814 33.638 77.5752 34.1328C78.1742 34.6276 78.4736 35.2604 78.4736 36.0312H77.0205C77.0205 35.6354 76.8512 35.2943 76.5127 35.0078C76.1794 34.7214 75.7575 34.5781 75.2471 34.5781C74.721 34.5781 74.3096 34.6927 74.0127 34.9219C73.7158 35.151 73.5674 35.4505 73.5674 35.8203C73.5674 36.1693 73.7054 36.4323 73.9814 36.6094C74.2575 36.7865 74.7549 36.9557 75.4736 37.1172C76.1976 37.2786 76.7835 37.4714 77.2314 37.6953C77.6794 37.9193 78.0101 38.1901 78.2236 38.5078C78.4424 38.8203 78.5518 39.2031 78.5518 39.6562C78.5518 40.4115 78.2497 41.0182 77.6455 41.4766C77.0413 41.9297 76.2575 42.1562 75.2939 42.1562C74.6169 42.1562 74.0179 42.0365 73.4971 41.7969C72.9762 41.5573 72.5674 41.224 72.2705 40.7969C71.9788 40.3646 71.833 39.8984 71.833 39.3984H73.2783C73.3044 39.8828 73.4971 40.2682 73.8564 40.5547C74.221 40.8359 74.7002 40.9766 75.2939 40.9766C75.8408 40.9766 76.2783 40.8672 76.6064 40.6484C76.9398 40.4245 77.1064 40.1276 77.1064 39.7578ZM83.9424 42.1562C82.7965 42.1562 81.8643 41.7812 81.1455 41.0312C80.4268 40.276 80.0674 39.2682 80.0674 38.0078V37.7422C80.0674 36.9036 80.2262 36.1562 80.5439 35.5C80.8669 34.8385 81.3148 34.3229 81.8877 33.9531C82.4658 33.5781 83.0908 33.3906 83.7627 33.3906C84.8617 33.3906 85.7158 33.7526 86.3252 34.4766C86.9346 35.2005 87.2393 36.237 87.2393 37.5859V38.1875H81.5127C81.5335 39.0208 81.7757 39.6953 82.2393 40.2109C82.708 40.7214 83.3018 40.9766 84.0205 40.9766C84.5309 40.9766 84.9632 40.8724 85.3174 40.6641C85.6715 40.4557 85.9814 40.1797 86.2471 39.8359L87.1299 40.5234C86.4215 41.612 85.359 42.1562 83.9424 42.1562ZM83.7627 34.5781C83.1794 34.5781 82.6898 34.7917 82.2939 35.2188C81.8981 35.6406 81.6533 36.2344 81.5596 37H85.7939V36.8906C85.7523 36.1562 85.5544 35.5885 85.2002 35.1875C84.846 34.7812 84.3669 34.5781 83.7627 34.5781ZM99.5439 36.7422H94.6143V40.7734H100.341V42H93.1143V30.625H100.263V31.8594H94.6143V35.5156H99.5439V36.7422ZM107.2 42C107.117 41.8333 107.049 41.5365 106.997 41.1094C106.325 41.8073 105.523 42.1562 104.591 42.1562C103.757 42.1562 103.073 41.9219 102.536 41.4531C102.005 40.9792 101.739 40.3802 101.739 39.6562C101.739 38.776 102.073 38.0938 102.739 37.6094C103.411 37.1198 104.354 36.875 105.567 36.875H106.974V36.2109C106.974 35.7057 106.823 35.3047 106.521 35.0078C106.218 34.7057 105.773 34.5547 105.185 34.5547C104.669 34.5547 104.237 34.6849 103.888 34.9453C103.539 35.2057 103.364 35.5208 103.364 35.8906H101.911C101.911 35.4688 102.06 35.0625 102.356 34.6719C102.659 34.276 103.065 33.9635 103.575 33.7344C104.091 33.5052 104.656 33.3906 105.271 33.3906C106.244 33.3906 107.007 33.6354 107.56 34.125C108.112 34.6094 108.398 35.2786 108.419 36.1328V40.0234C108.419 40.7995 108.518 41.4167 108.716 41.875V42H107.2ZM104.802 40.8984C105.255 40.8984 105.685 40.7812 106.091 40.5469C106.497 40.3125 106.791 40.0078 106.974 39.6328V37.8984H105.841C104.07 37.8984 103.185 38.4167 103.185 39.4531C103.185 39.9062 103.336 40.2604 103.638 40.5156C103.94 40.7708 104.328 40.8984 104.802 40.8984ZM115.606 39.7578C115.606 39.3672 115.458 39.0651 115.161 38.8516C114.869 38.6328 114.356 38.4453 113.622 38.2891C112.893 38.1328 112.312 37.9453 111.88 37.7266C111.453 37.5078 111.135 37.2474 110.927 36.9453C110.724 36.6432 110.622 36.2839 110.622 35.8672C110.622 35.1745 110.914 34.5885 111.497 34.1094C112.086 33.6302 112.836 33.3906 113.747 33.3906C114.705 33.3906 115.481 33.638 116.075 34.1328C116.674 34.6276 116.974 35.2604 116.974 36.0312H115.521C115.521 35.6354 115.351 35.2943 115.013 35.0078C114.679 34.7214 114.257 34.5781 113.747 34.5781C113.221 34.5781 112.81 34.6927 112.513 34.9219C112.216 35.151 112.067 35.4505 112.067 35.8203C112.067 36.1693 112.205 36.4323 112.481 36.6094C112.757 36.7865 113.255 36.9557 113.974 37.1172C114.698 37.2786 115.284 37.4714 115.731 37.6953C116.179 37.9193 116.51 38.1901 116.724 38.5078C116.942 38.8203 117.052 39.2031 117.052 39.6562C117.052 40.4115 116.75 41.0182 116.146 41.4766C115.541 41.9297 114.757 42.1562 113.794 42.1562C113.117 42.1562 112.518 42.0365 111.997 41.7969C111.476 41.5573 111.067 41.224 110.771 40.7969C110.479 40.3646 110.333 39.8984 110.333 39.3984H111.778C111.804 39.8828 111.997 40.2682 112.356 40.5547C112.721 40.8359 113.2 40.9766 113.794 40.9766C114.341 40.9766 114.778 40.8672 115.106 40.6484C115.44 40.4245 115.606 40.1276 115.606 39.7578ZM121.7 39.8828L123.669 33.5469H125.216L121.817 43.3047C121.291 44.7109 120.455 45.4141 119.31 45.4141L119.036 45.3906L118.497 45.2891V44.1172L118.888 44.1484C119.377 44.1484 119.757 44.0495 120.028 43.8516C120.304 43.6536 120.531 43.2917 120.708 42.7656L121.028 41.9062L118.013 33.5469H119.591L121.7 39.8828ZM135.106 38.3906C134.966 39.5938 134.521 40.5234 133.771 41.1797C133.026 41.8307 132.034 42.1562 130.794 42.1562C129.45 42.1562 128.372 41.6745 127.56 40.7109C126.752 39.7474 126.349 38.4583 126.349 36.8438V35.75C126.349 34.6927 126.536 33.763 126.911 32.9609C127.291 32.1589 127.828 31.5443 128.521 31.1172C129.213 30.6849 130.015 30.4688 130.927 30.4688C132.135 30.4688 133.104 30.8073 133.833 31.4844C134.562 32.1562 134.987 33.0885 135.106 34.2812H133.599C133.468 33.375 133.185 32.7188 132.747 32.3125C132.315 31.9062 131.708 31.7031 130.927 31.7031C129.968 31.7031 129.216 32.0573 128.669 32.7656C128.127 33.474 127.856 34.4818 127.856 35.7891V36.8906C127.856 38.125 128.114 39.1068 128.63 39.8359C129.146 40.5651 129.867 40.9297 130.794 40.9297C131.627 40.9297 132.265 40.7422 132.708 40.3672C133.156 39.987 133.453 39.3281 133.599 38.3906H135.106ZM142.153 42C142.07 41.8333 142.002 41.5365 141.95 41.1094C141.278 41.8073 140.476 42.1562 139.544 42.1562C138.711 42.1562 138.026 41.9219 137.489 41.4531C136.958 40.9792 136.692 40.3802 136.692 39.6562C136.692 38.776 137.026 38.0938 137.692 37.6094C138.364 37.1198 139.307 36.875 140.521 36.875H141.927V36.2109C141.927 35.7057 141.776 35.3047 141.474 35.0078C141.172 34.7057 140.726 34.5547 140.138 34.5547C139.622 34.5547 139.19 34.6849 138.841 34.9453C138.492 35.2057 138.317 35.5208 138.317 35.8906H136.864C136.864 35.4688 137.013 35.0625 137.31 34.6719C137.612 34.276 138.018 33.9635 138.528 33.7344C139.044 33.5052 139.609 33.3906 140.224 33.3906C141.198 33.3906 141.961 33.6354 142.513 34.125C143.065 34.6094 143.351 35.2786 143.372 36.1328V40.0234C143.372 40.7995 143.471 41.4167 143.669 41.875V42H142.153ZM139.755 40.8984C140.208 40.8984 140.638 40.7812 141.044 40.5469C141.45 40.3125 141.744 40.0078 141.927 39.6328V37.8984H140.794C139.023 37.8984 138.138 38.4167 138.138 39.4531C138.138 39.9062 138.289 40.2604 138.591 40.5156C138.893 40.7708 139.281 40.8984 139.755 40.8984ZM150.56 39.7578C150.56 39.3672 150.411 39.0651 150.114 38.8516C149.823 38.6328 149.31 38.4453 148.575 38.2891C147.846 38.1328 147.265 37.9453 146.833 37.7266C146.406 37.5078 146.088 37.2474 145.88 36.9453C145.677 36.6432 145.575 36.2839 145.575 35.8672C145.575 35.1745 145.867 34.5885 146.45 34.1094C147.039 33.6302 147.789 33.3906 148.7 33.3906C149.659 33.3906 150.435 33.638 151.028 34.1328C151.627 34.6276 151.927 35.2604 151.927 36.0312H150.474C150.474 35.6354 150.304 35.2943 149.966 35.0078C149.632 34.7214 149.211 34.5781 148.7 34.5781C148.174 34.5781 147.763 34.6927 147.466 34.9219C147.169 35.151 147.021 35.4505 147.021 35.8203C147.021 36.1693 147.159 36.4323 147.435 36.6094C147.711 36.7865 148.208 36.9557 148.927 37.1172C149.651 37.2786 150.237 37.4714 150.685 37.6953C151.132 37.9193 151.463 38.1901 151.677 38.5078C151.896 38.8203 152.005 39.2031 152.005 39.6562C152.005 40.4115 151.703 41.0182 151.099 41.4766C150.494 41.9297 149.711 42.1562 148.747 42.1562C148.07 42.1562 147.471 42.0365 146.95 41.7969C146.429 41.5573 146.021 41.224 145.724 40.7969C145.432 40.3646 145.286 39.8984 145.286 39.3984H146.731C146.757 39.8828 146.95 40.2682 147.31 40.5547C147.674 40.8359 148.153 40.9766 148.747 40.9766C149.294 40.9766 149.731 40.8672 150.06 40.6484C150.393 40.4245 150.56 40.1276 150.56 39.7578ZM155.333 34.5703C155.974 33.7839 156.807 33.3906 157.833 33.3906C159.619 33.3906 160.521 34.3984 160.536 36.4141V42H159.091V36.4062C159.086 35.7969 158.945 35.3464 158.669 35.0547C158.398 34.763 157.974 34.6172 157.396 34.6172C156.927 34.6172 156.515 34.7422 156.161 34.9922C155.807 35.2422 155.531 35.5703 155.333 35.9766V42H153.888V30H155.333V34.5703ZM171.888 42C171.804 41.8333 171.737 41.5365 171.685 41.1094C171.013 41.8073 170.211 42.1562 169.278 42.1562C168.445 42.1562 167.76 41.9219 167.224 41.4531C166.692 40.9792 166.427 40.3802 166.427 39.6562C166.427 38.776 166.76 38.0938 167.427 37.6094C168.099 37.1198 169.041 36.875 170.255 36.875H171.661V36.2109C171.661 35.7057 171.51 35.3047 171.208 35.0078C170.906 34.7057 170.461 34.5547 169.872 34.5547C169.356 34.5547 168.924 34.6849 168.575 34.9453C168.226 35.2057 168.052 35.5208 168.052 35.8906H166.599C166.599 35.4688 166.747 35.0625 167.044 34.6719C167.346 34.276 167.752 33.9635 168.263 33.7344C168.778 33.5052 169.343 33.3906 169.958 33.3906C170.932 33.3906 171.695 33.6354 172.247 34.125C172.799 34.6094 173.086 35.2786 173.106 36.1328V40.0234C173.106 40.7995 173.205 41.4167 173.403 41.875V42H171.888ZM169.489 40.8984C169.942 40.8984 170.372 40.7812 170.778 40.5469C171.185 40.3125 171.479 40.0078 171.661 39.6328V37.8984H170.528C168.757 37.8984 167.872 38.4167 167.872 39.4531C167.872 39.9062 168.023 40.2604 168.325 40.5156C168.627 40.7708 169.015 40.8984 169.489 40.8984ZM182.513 37.8672C182.513 39.1536 182.218 40.1901 181.63 40.9766C181.041 41.763 180.244 42.1562 179.239 42.1562C178.213 42.1562 177.406 41.8307 176.817 41.1797V45.25H175.372V33.5469H176.692L176.763 34.4844C177.351 33.7552 178.169 33.3906 179.216 33.3906C180.231 33.3906 181.034 33.7734 181.622 34.5391C182.216 35.3047 182.513 36.3698 182.513 37.7344V37.8672ZM181.067 37.7031C181.067 36.75 180.864 35.9974 180.458 35.4453C180.052 34.8932 179.494 34.6172 178.786 34.6172C177.911 34.6172 177.255 35.0052 176.817 35.7812V39.8203C177.25 40.5911 177.911 40.9766 178.802 40.9766C179.494 40.9766 180.044 40.7031 180.45 40.1562C180.862 39.6042 181.067 38.7865 181.067 37.7031ZM191.497 37.8672C191.497 39.1536 191.203 40.1901 190.614 40.9766C190.026 41.763 189.229 42.1562 188.224 42.1562C187.198 42.1562 186.39 41.8307 185.802 41.1797V45.25H184.356V33.5469H185.677L185.747 34.4844C186.336 33.7552 187.153 33.3906 188.2 33.3906C189.216 33.3906 190.018 33.7734 190.606 34.5391C191.2 35.3047 191.497 36.3698 191.497 37.7344V37.8672ZM190.052 37.7031C190.052 36.75 189.849 35.9974 189.442 35.4453C189.036 34.8932 188.479 34.6172 187.771 34.6172C186.896 34.6172 186.239 35.0052 185.802 35.7812V39.8203C186.234 40.5911 186.896 40.9766 187.786 40.9766C188.479 40.9766 189.028 40.7031 189.435 40.1562C189.846 39.6042 190.052 38.7865 190.052 37.7031ZM194.911 42H193.466V30H194.911V42ZM198.802 42H197.356V33.5469H198.802V42ZM197.239 31.3047C197.239 31.0703 197.31 30.8724 197.45 30.7109C197.596 30.5495 197.81 30.4688 198.091 30.4688C198.372 30.4688 198.586 30.5495 198.731 30.7109C198.877 30.8724 198.95 31.0703 198.95 31.3047C198.95 31.5391 198.877 31.7344 198.731 31.8906C198.586 32.0469 198.372 32.125 198.091 32.125C197.81 32.125 197.596 32.0469 197.45 31.8906C197.31 31.7344 197.239 31.5391 197.239 31.3047ZM204.513 40.9766C205.028 40.9766 205.479 40.8203 205.864 40.5078C206.25 40.1953 206.463 39.8047 206.505 39.3359H207.872C207.846 39.8203 207.679 40.2812 207.372 40.7188C207.065 41.1562 206.653 41.5052 206.138 41.7656C205.627 42.026 205.086 42.1562 204.513 42.1562C203.362 42.1562 202.445 41.7734 201.763 41.0078C201.086 40.237 200.747 39.1849 200.747 37.8516V37.6094C200.747 36.7865 200.898 36.0547 201.2 35.4141C201.502 34.7734 201.935 34.276 202.497 33.9219C203.065 33.5677 203.734 33.3906 204.505 33.3906C205.453 33.3906 206.239 33.6745 206.864 34.2422C207.494 34.8099 207.83 35.5469 207.872 36.4531H206.505C206.463 35.9062 206.255 35.4583 205.88 35.1094C205.51 34.7552 205.052 34.5781 204.505 34.5781C203.771 34.5781 203.2 34.8438 202.794 35.375C202.393 35.901 202.192 36.6641 202.192 37.6641V37.9375C202.192 38.9115 202.393 39.6615 202.794 40.1875C203.195 40.7135 203.768 40.9766 204.513 40.9766ZM214.716 42C214.632 41.8333 214.565 41.5365 214.513 41.1094C213.841 41.8073 213.039 42.1562 212.106 42.1562C211.273 42.1562 210.588 41.9219 210.052 41.4531C209.521 40.9792 209.255 40.3802 209.255 39.6562C209.255 38.776 209.588 38.0938 210.255 37.6094C210.927 37.1198 211.869 36.875 213.083 36.875H214.489V36.2109C214.489 35.7057 214.338 35.3047 214.036 35.0078C213.734 34.7057 213.289 34.5547 212.7 34.5547C212.185 34.5547 211.752 34.6849 211.403 34.9453C211.054 35.2057 210.88 35.5208 210.88 35.8906H209.427C209.427 35.4688 209.575 35.0625 209.872 34.6719C210.174 34.276 210.58 33.9635 211.091 33.7344C211.606 33.5052 212.172 33.3906 212.786 33.3906C213.76 33.3906 214.523 33.6354 215.075 34.125C215.627 34.6094 215.914 35.2786 215.935 36.1328V40.0234C215.935 40.7995 216.034 41.4167 216.231 41.875V42H214.716ZM212.317 40.8984C212.771 40.8984 213.2 40.7812 213.606 40.5469C214.013 40.3125 214.307 40.0078 214.489 39.6328V37.8984H213.356C211.586 37.8984 210.7 38.4167 210.7 39.4531C210.7 39.9062 210.851 40.2604 211.153 40.5156C211.455 40.7708 211.843 40.8984 212.317 40.8984ZM220.161 31.5V33.5469H221.739V34.6641H220.161V39.9062C220.161 40.2448 220.231 40.5 220.372 40.6719C220.513 40.8385 220.752 40.9219 221.091 40.9219C221.257 40.9219 221.487 40.8906 221.778 40.8281V42C221.398 42.1042 221.028 42.1562 220.669 42.1562C220.023 42.1562 219.536 41.9609 219.208 41.5703C218.88 41.1797 218.716 40.625 218.716 39.9062V34.6641H217.177V33.5469H218.716V31.5H220.161ZM225.005 42H223.56V33.5469H225.005V42ZM223.442 31.3047C223.442 31.0703 223.513 30.8724 223.653 30.7109C223.799 30.5495 224.013 30.4688 224.294 30.4688C224.575 30.4688 224.789 30.5495 224.935 30.7109C225.08 30.8724 225.153 31.0703 225.153 31.3047C225.153 31.5391 225.08 31.7344 224.935 31.8906C224.789 32.0469 224.575 32.125 224.294 32.125C224.013 32.125 223.799 32.0469 223.653 31.8906C223.513 31.7344 223.442 31.5391 223.442 31.3047ZM226.942 37.6953C226.942 36.8672 227.104 36.1224 227.427 35.4609C227.755 34.7995 228.208 34.2891 228.786 33.9297C229.369 33.5703 230.034 33.3906 230.778 33.3906C231.929 33.3906 232.859 33.7891 233.567 34.5859C234.281 35.3828 234.638 36.4427 234.638 37.7656V37.8672C234.638 38.6901 234.479 39.4297 234.161 40.0859C233.849 40.737 233.398 41.2448 232.81 41.6094C232.226 41.974 231.554 42.1562 230.794 42.1562C229.648 42.1562 228.718 41.7578 228.005 40.9609C227.297 40.1641 226.942 39.1094 226.942 37.7969V37.6953ZM228.396 37.8672C228.396 38.8047 228.612 39.5573 229.044 40.125C229.481 40.6927 230.065 40.9766 230.794 40.9766C231.528 40.9766 232.112 40.6901 232.544 40.1172C232.976 39.5391 233.192 38.7318 233.192 37.6953C233.192 36.7682 232.971 36.0182 232.528 35.4453C232.091 34.8672 231.507 34.5781 230.778 34.5781C230.065 34.5781 229.489 34.862 229.052 35.4297C228.614 35.9974 228.396 36.8099 228.396 37.8672ZM237.817 33.5469L237.864 34.6094C238.51 33.7969 239.354 33.3906 240.396 33.3906C242.182 33.3906 243.083 34.3984 243.099 36.4141V42H241.653V36.4062C241.648 35.7969 241.507 35.3464 241.231 35.0547C240.961 34.763 240.536 34.6172 239.958 34.6172C239.489 34.6172 239.078 34.7422 238.724 34.9922C238.369 35.2422 238.093 35.5703 237.896 35.9766V42H236.45V33.5469H237.817ZM251.208 31.5V33.5469H252.786V34.6641H251.208V39.9062C251.208 40.2448 251.278 40.5 251.419 40.6719C251.56 40.8385 251.799 40.9219 252.138 40.9219C252.304 40.9219 252.534 40.8906 252.825 40.8281V42C252.445 42.1042 252.075 42.1562 251.716 42.1562C251.07 42.1562 250.583 41.9609 250.255 41.5703C249.927 41.1797 249.763 40.625 249.763 39.9062V34.6641H248.224V33.5469H249.763V31.5H251.208ZM253.942 37.6953C253.942 36.8672 254.104 36.1224 254.427 35.4609C254.755 34.7995 255.208 34.2891 255.786 33.9297C256.369 33.5703 257.034 33.3906 257.778 33.3906C258.929 33.3906 259.859 33.7891 260.567 34.5859C261.281 35.3828 261.638 36.4427 261.638 37.7656V37.8672C261.638 38.6901 261.479 39.4297 261.161 40.0859C260.849 40.737 260.398 41.2448 259.81 41.6094C259.226 41.974 258.554 42.1562 257.794 42.1562C256.648 42.1562 255.718 41.7578 255.005 40.9609C254.297 40.1641 253.942 39.1094 253.942 37.7969V37.6953ZM255.396 37.8672C255.396 38.8047 255.612 39.5573 256.044 40.125C256.481 40.6927 257.065 40.9766 257.794 40.9766C258.528 40.9766 259.112 40.6901 259.544 40.1172C259.976 39.5391 260.192 38.7318 260.192 37.6953C260.192 36.7682 259.971 36.0182 259.528 35.4453C259.091 34.8672 258.507 34.5781 257.778 34.5781C257.065 34.5781 256.489 34.862 256.052 35.4297C255.614 35.9974 255.396 36.8099 255.396 37.8672ZM272.341 39.7578C272.341 39.3672 272.192 39.0651 271.896 38.8516C271.604 38.6328 271.091 38.4453 270.356 38.2891C269.627 38.1328 269.047 37.9453 268.614 37.7266C268.187 37.5078 267.869 37.2474 267.661 36.9453C267.458 36.6432 267.356 36.2839 267.356 35.8672C267.356 35.1745 267.648 34.5885 268.231 34.1094C268.82 33.6302 269.57 33.3906 270.481 33.3906C271.44 33.3906 272.216 33.638 272.81 34.1328C273.409 34.6276 273.708 35.2604 273.708 36.0312H272.255C272.255 35.6354 272.086 35.2943 271.747 35.0078C271.414 34.7214 270.992 34.5781 270.481 34.5781C269.955 34.5781 269.544 34.6927 269.247 34.9219C268.95 35.151 268.802 35.4505 268.802 35.8203C268.802 36.1693 268.94 36.4323 269.216 36.6094C269.492 36.7865 269.989 36.9557 270.708 37.1172C271.432 37.2786 272.018 37.4714 272.466 37.6953C272.914 37.9193 273.244 38.1901 273.458 38.5078C273.677 38.8203 273.786 39.2031 273.786 39.6562C273.786 40.4115 273.484 41.0182 272.88 41.4766C272.276 41.9297 271.492 42.1562 270.528 42.1562C269.851 42.1562 269.252 42.0365 268.731 41.7969C268.211 41.5573 267.802 41.224 267.505 40.7969C267.213 40.3646 267.067 39.8984 267.067 39.3984H268.513C268.539 39.8828 268.731 40.2682 269.091 40.5547C269.455 40.8359 269.935 40.9766 270.528 40.9766C271.075 40.9766 271.513 40.8672 271.841 40.6484C272.174 40.4245 272.341 40.1276 272.341 39.7578ZM279.06 40.9766C279.575 40.9766 280.026 40.8203 280.411 40.5078C280.797 40.1953 281.01 39.8047 281.052 39.3359H282.419C282.393 39.8203 282.226 40.2812 281.919 40.7188C281.612 41.1562 281.2 41.5052 280.685 41.7656C280.174 42.026 279.632 42.1562 279.06 42.1562C277.909 42.1562 276.992 41.7734 276.31 41.0078C275.632 40.237 275.294 39.1849 275.294 37.8516V37.6094C275.294 36.7865 275.445 36.0547 275.747 35.4141C276.049 34.7734 276.481 34.276 277.044 33.9219C277.612 33.5677 278.281 33.3906 279.052 33.3906C280 33.3906 280.786 33.6745 281.411 34.2422C282.041 34.8099 282.377 35.5469 282.419 36.4531H281.052C281.01 35.9062 280.802 35.4583 280.427 35.1094C280.057 34.7552 279.599 34.5781 279.052 34.5781C278.317 34.5781 277.747 34.8438 277.341 35.375C276.94 35.901 276.739 36.6641 276.739 37.6641V37.9375C276.739 38.9115 276.94 39.6615 277.341 40.1875C277.742 40.7135 278.315 40.9766 279.06 40.9766ZM289.263 42C289.179 41.8333 289.112 41.5365 289.06 41.1094C288.388 41.8073 287.586 42.1562 286.653 42.1562C285.82 42.1562 285.135 41.9219 284.599 41.4531C284.067 40.9792 283.802 40.3802 283.802 39.6562C283.802 38.776 284.135 38.0938 284.802 37.6094C285.474 37.1198 286.416 36.875 287.63 36.875H289.036V36.2109C289.036 35.7057 288.885 35.3047 288.583 35.0078C288.281 34.7057 287.836 34.5547 287.247 34.5547C286.731 34.5547 286.299 34.6849 285.95 34.9453C285.601 35.2057 285.427 35.5208 285.427 35.8906H283.974C283.974 35.4688 284.122 35.0625 284.419 34.6719C284.721 34.276 285.127 33.9635 285.638 33.7344C286.153 33.5052 286.718 33.3906 287.333 33.3906C288.307 33.3906 289.07 33.6354 289.622 34.125C290.174 34.6094 290.461 35.2786 290.481 36.1328V40.0234C290.481 40.7995 290.58 41.4167 290.778 41.875V42H289.263ZM286.864 40.8984C287.317 40.8984 287.747 40.7812 288.153 40.5469C288.56 40.3125 288.854 40.0078 289.036 39.6328V37.8984H287.903C286.132 37.8984 285.247 38.4167 285.247 39.4531C285.247 39.9062 285.398 40.2604 285.7 40.5156C286.002 40.7708 286.39 40.8984 286.864 40.8984ZM294.114 33.5469L294.161 34.6094C294.807 33.7969 295.651 33.3906 296.692 33.3906C298.479 33.3906 299.38 34.3984 299.396 36.4141V42H297.95V36.4062C297.945 35.7969 297.804 35.3464 297.528 35.0547C297.257 34.763 296.833 34.6172 296.255 34.6172C295.786 34.6172 295.375 34.7422 295.021 34.9922C294.666 35.2422 294.39 35.5703 294.192 35.9766V42H292.747V33.5469H294.114ZM314.458 36.6797C314.458 37.7786 314.284 38.7266 313.935 39.5234C313.586 40.3151 313.096 40.9349 312.466 41.3828L314.497 42.9766L313.474 43.9219L311.075 42.0156C310.7 42.1094 310.304 42.1562 309.888 42.1562C308.992 42.1562 308.198 41.9375 307.505 41.5C306.812 41.0573 306.273 40.4297 305.888 39.6172C305.507 38.7995 305.312 37.8542 305.302 36.7812V35.9609C305.302 34.8672 305.492 33.901 305.872 33.0625C306.252 32.224 306.789 31.5833 307.481 31.1406C308.179 30.6927 308.976 30.4688 309.872 30.4688C310.789 30.4688 311.593 30.6901 312.286 31.1328C312.984 31.5755 313.521 32.2135 313.896 33.0469C314.271 33.875 314.458 34.8438 314.458 35.9531V36.6797ZM312.958 35.9453C312.958 34.6068 312.69 33.5755 312.153 32.8516C311.622 32.1224 310.862 31.7578 309.872 31.7578C308.929 31.7578 308.185 32.1198 307.638 32.8438C307.096 33.5625 306.817 34.5625 306.802 35.8438V36.6797C306.802 37.9818 307.073 39.0078 307.614 39.7578C308.161 40.5078 308.919 40.8828 309.888 40.8828C310.856 40.8828 311.606 40.5312 312.138 39.8281C312.669 39.1198 312.942 38.1068 312.958 36.7891V35.9453ZM320.942 37.3984H318.271V42H316.763V30.625H320.528C321.81 30.625 322.794 30.9167 323.481 31.5C324.174 32.0833 324.521 32.9323 324.521 34.0469C324.521 34.7552 324.328 35.3724 323.942 35.8984C323.562 36.4245 323.031 36.8177 322.349 37.0781L325.021 41.9062V42H323.411L320.942 37.3984ZM318.271 36.1719H320.575C321.32 36.1719 321.911 35.9792 322.349 35.5938C322.791 35.2083 323.013 34.6927 323.013 34.0469C323.013 33.3438 322.802 32.8047 322.38 32.4297C321.963 32.0547 321.359 31.8646 320.567 31.8594H318.271V36.1719ZM333.763 40.9766C334.278 40.9766 334.729 40.8203 335.114 40.5078C335.5 40.1953 335.713 39.8047 335.755 39.3359H337.122C337.096 39.8203 336.929 40.2812 336.622 40.7188C336.315 41.1562 335.903 41.5052 335.388 41.7656C334.877 42.026 334.336 42.1562 333.763 42.1562C332.612 42.1562 331.695 41.7734 331.013 41.0078C330.336 40.237 329.997 39.1849 329.997 37.8516V37.6094C329.997 36.7865 330.148 36.0547 330.45 35.4141C330.752 34.7734 331.185 34.276 331.747 33.9219C332.315 33.5677 332.984 33.3906 333.755 33.3906C334.703 33.3906 335.489 33.6745 336.114 34.2422C336.744 34.8099 337.08 35.5469 337.122 36.4531H335.755C335.713 35.9062 335.505 35.4583 335.13 35.1094C334.76 34.7552 334.302 34.5781 333.755 34.5781C333.021 34.5781 332.45 34.8438 332.044 35.375C331.643 35.901 331.442 36.6641 331.442 37.6641V37.9375C331.442 38.9115 331.643 39.6615 332.044 40.1875C332.445 40.7135 333.018 40.9766 333.763 40.9766ZM338.364 37.6953C338.364 36.8672 338.526 36.1224 338.849 35.4609C339.177 34.7995 339.63 34.2891 340.208 33.9297C340.791 33.5703 341.455 33.3906 342.2 33.3906C343.351 33.3906 344.281 33.7891 344.989 34.5859C345.703 35.3828 346.06 36.4427 346.06 37.7656V37.8672C346.06 38.6901 345.901 39.4297 345.583 40.0859C345.271 40.737 344.82 41.2448 344.231 41.6094C343.648 41.974 342.976 42.1562 342.216 42.1562C341.07 42.1562 340.14 41.7578 339.427 40.9609C338.718 40.1641 338.364 39.1094 338.364 37.7969V37.6953ZM339.817 37.8672C339.817 38.8047 340.034 39.5573 340.466 40.125C340.903 40.6927 341.487 40.9766 342.216 40.9766C342.95 40.9766 343.534 40.6901 343.966 40.1172C344.398 39.5391 344.614 38.7318 344.614 37.6953C344.614 36.7682 344.393 36.0182 343.95 35.4453C343.513 34.8672 342.929 34.5781 342.2 34.5781C341.487 34.5781 340.911 34.862 340.474 35.4297C340.036 35.9974 339.817 36.8099 339.817 37.8672ZM347.521 37.7031C347.521 36.4062 347.828 35.3646 348.442 34.5781C349.057 33.7865 349.862 33.3906 350.856 33.3906C351.846 33.3906 352.63 33.7292 353.208 34.4062V30H354.653V42H353.325L353.255 41.0938C352.677 41.8021 351.872 42.1562 350.841 42.1562C349.862 42.1562 349.062 41.7552 348.442 40.9531C347.828 40.151 347.521 39.1042 347.521 37.8125V37.7031ZM348.966 37.8672C348.966 38.8255 349.164 39.5755 349.56 40.1172C349.955 40.6589 350.502 40.9297 351.2 40.9297C352.117 40.9297 352.786 40.5182 353.208 39.6953V35.8125C352.776 35.0156 352.112 34.6172 351.216 34.6172C350.507 34.6172 349.955 34.8906 349.56 35.4375C349.164 35.9844 348.966 36.7943 348.966 37.8672ZM360.411 42.1562C359.265 42.1562 358.333 41.7812 357.614 41.0312C356.896 40.276 356.536 39.2682 356.536 38.0078V37.7422C356.536 36.9036 356.695 36.1562 357.013 35.5C357.336 34.8385 357.784 34.3229 358.356 33.9531C358.935 33.5781 359.56 33.3906 360.231 33.3906C361.33 33.3906 362.185 33.7526 362.794 34.4766C363.403 35.2005 363.708 36.237 363.708 37.5859V38.1875H357.981C358.002 39.0208 358.244 39.6953 358.708 40.2109C359.177 40.7214 359.771 40.9766 360.489 40.9766C361 40.9766 361.432 40.8724 361.786 40.6641C362.14 40.4557 362.45 40.1797 362.716 39.8359L363.599 40.5234C362.89 41.612 361.828 42.1562 360.411 42.1562ZM360.231 34.5781C359.648 34.5781 359.159 34.7917 358.763 35.2188C358.367 35.6406 358.122 36.2344 358.028 37H362.263V36.8906C362.221 36.1562 362.023 35.5885 361.669 35.1875C361.315 34.7812 360.836 34.5781 360.231 34.5781ZM365.419 41.2422C365.419 40.9922 365.492 40.7839 365.638 40.6172C365.789 40.4505 366.013 40.3672 366.31 40.3672C366.606 40.3672 366.83 40.4505 366.981 40.6172C367.138 40.7839 367.216 40.9922 367.216 41.2422C367.216 41.4818 367.138 41.6823 366.981 41.8438C366.83 42.0052 366.606 42.0859 366.31 42.0859C366.013 42.0859 365.789 42.0052 365.638 41.8438C365.492 41.6823 365.419 41.4818 365.419 41.2422Z" fill="#656668"/>
<path d="M26.2885 48H29.2325V24.864H23.2165V27.52H26.2885V48Z" fill="#656668"/>
</svg>
