<svg width="595" height="352" viewBox="0 0 595 352" fill="none" xmlns="http://www.w3.org/2000/svg">
<path d="M89.4023 38.3906C89.2617 39.5938 88.8164 40.5234 88.0664 41.1797C87.3216 41.8307 86.3294 42.1562 85.0898 42.1562C83.7461 42.1562 82.668 41.6745 81.8555 40.7109C81.0482 39.7474 80.6445 38.4583 80.6445 36.8438V35.75C80.6445 34.6927 80.832 33.763 81.207 32.9609C81.5872 32.1589 82.1237 31.5443 82.8164 31.1172C83.5091 30.6849 84.3112 30.4688 85.2227 30.4688C86.431 30.4688 87.3997 30.8073 88.1289 31.4844C88.8581 32.1562 89.2826 33.0885 89.4023 34.2812H87.8945C87.7643 33.375 87.4805 32.7188 87.043 32.3125C86.6107 31.9062 86.0039 31.7031 85.2227 31.7031C84.2643 31.7031 83.5117 32.0573 82.9648 32.7656C82.4232 33.474 82.1523 34.4818 82.1523 35.7891V36.8906C82.1523 38.125 82.4102 39.1068 82.9258 39.8359C83.4414 40.5651 84.1628 40.9297 85.0898 40.9297C85.9232 40.9297 86.5612 40.7422 87.0039 40.3672C87.4518 39.987 87.7487 39.3281 87.8945 38.3906H89.4023ZM90.8477 37.6953C90.8477 36.8672 91.0091 36.1224 91.332 35.4609C91.6602 34.7995 92.1133 34.2891 92.6914 33.9297C93.2747 33.5703 93.9388 33.3906 94.6836 33.3906C95.8346 33.3906 96.7643 33.7891 97.4727 34.5859C98.1862 35.3828 98.543 36.4427 98.543 37.7656V37.8672C98.543 38.6901 98.3841 39.4297 98.0664 40.0859C97.7539 40.737 97.3034 41.2448 96.7148 41.6094C96.1315 41.974 95.4596 42.1562 94.6992 42.1562C93.5534 42.1562 92.6237 41.7578 91.9102 40.9609C91.2018 40.1641 90.8477 39.1094 90.8477 37.7969V37.6953ZM92.3008 37.8672C92.3008 38.8047 92.5169 39.5573 92.9492 40.125C93.3867 40.6927 93.9701 40.9766 94.6992 40.9766C95.4336 40.9766 96.0169 40.6901 96.4492 40.1172C96.8815 39.5391 97.0977 38.7318 97.0977 37.6953C97.0977 36.7682 96.8763 36.0182 96.4336 35.4453C95.9961 34.8672 95.4128 34.5781 94.6836 34.5781C93.9701 34.5781 93.3945 34.862 92.957 35.4297C92.5195 35.9974 92.3008 36.8099 92.3008 37.8672ZM101.723 33.5469L101.77 34.6094C102.415 33.7969 103.259 33.3906 104.301 33.3906C106.087 33.3906 106.988 34.3984 107.004 36.4141V42H105.559V36.4062C105.553 35.7969 105.413 35.3464 105.137 35.0547C104.866 34.763 104.441 34.6172 103.863 34.6172C103.395 34.6172 102.983 34.7422 102.629 34.9922C102.275 35.2422 101.999 35.5703 101.801 35.9766V42H100.355V33.5469H101.723ZM114.105 39.7578C114.105 39.3672 113.957 39.0651 113.66 38.8516C113.368 38.6328 112.855 38.4453 112.121 38.2891C111.392 38.1328 110.811 37.9453 110.379 37.7266C109.952 37.5078 109.634 37.2474 109.426 36.9453C109.223 36.6432 109.121 36.2839 109.121 35.8672C109.121 35.1745 109.413 34.5885 109.996 34.1094C110.585 33.6302 111.335 33.3906 112.246 33.3906C113.204 33.3906 113.98 33.638 114.574 34.1328C115.173 34.6276 115.473 35.2604 115.473 36.0312H114.02C114.02 35.6354 113.85 35.2943 113.512 35.0078C113.178 34.7214 112.757 34.5781 112.246 34.5781C111.72 34.5781 111.309 34.6927 111.012 34.9219C110.715 35.151 110.566 35.4505 110.566 35.8203C110.566 36.1693 110.704 36.4323 110.98 36.6094C111.257 36.7865 111.754 36.9557 112.473 37.1172C113.197 37.2786 113.783 37.4714 114.23 37.6953C114.678 37.9193 115.009 38.1901 115.223 38.5078C115.441 38.8203 115.551 39.2031 115.551 39.6562C115.551 40.4115 115.249 41.0182 114.645 41.4766C114.04 41.9297 113.257 42.1562 112.293 42.1562C111.616 42.1562 111.017 42.0365 110.496 41.7969C109.975 41.5573 109.566 41.224 109.27 40.7969C108.978 40.3646 108.832 39.8984 108.832 39.3984H110.277C110.303 39.8828 110.496 40.2682 110.855 40.5547C111.22 40.8359 111.699 40.9766 112.293 40.9766C112.84 40.9766 113.277 40.8672 113.605 40.6484C113.939 40.4245 114.105 40.1276 114.105 39.7578ZM122.652 41.1641C122.09 41.8255 121.264 42.1562 120.176 42.1562C119.275 42.1562 118.587 41.8958 118.113 41.375C117.645 40.849 117.408 40.0729 117.402 39.0469V33.5469H118.848V39.0078C118.848 40.2891 119.368 40.9297 120.41 40.9297C121.514 40.9297 122.249 40.5182 122.613 39.6953V33.5469H124.059V42H122.684L122.652 41.1641ZM127.621 33.5469L127.66 34.4844C128.28 33.7552 129.116 33.3906 130.168 33.3906C131.35 33.3906 132.155 33.8438 132.582 34.75C132.863 34.3438 133.228 34.0156 133.676 33.7656C134.129 33.5156 134.663 33.3906 135.277 33.3906C137.132 33.3906 138.074 34.3724 138.105 36.3359V42H136.66V36.4219C136.66 35.8177 136.522 35.3672 136.246 35.0703C135.97 34.7682 135.507 34.6172 134.855 34.6172C134.319 34.6172 133.874 34.7786 133.52 35.1016C133.165 35.4193 132.96 35.849 132.902 36.3906V42H131.449V36.4609C131.449 35.2318 130.848 34.6172 129.645 34.6172C128.697 34.6172 128.048 35.0208 127.699 35.8281V42H126.254V33.5469H127.621ZM143.801 42.1562C142.655 42.1562 141.723 41.7812 141.004 41.0312C140.285 40.276 139.926 39.2682 139.926 38.0078V37.7422C139.926 36.9036 140.085 36.1562 140.402 35.5C140.725 34.8385 141.173 34.3229 141.746 33.9531C142.324 33.5781 142.949 33.3906 143.621 33.3906C144.72 33.3906 145.574 33.7526 146.184 34.4766C146.793 35.2005 147.098 36.237 147.098 37.5859V38.1875H141.371C141.392 39.0208 141.634 39.6953 142.098 40.2109C142.566 40.7214 143.16 40.9766 143.879 40.9766C144.389 40.9766 144.822 40.8724 145.176 40.6641C145.53 40.4557 145.84 40.1797 146.105 39.8359L146.988 40.5234C146.28 41.612 145.217 42.1562 143.801 42.1562ZM143.621 34.5781C143.038 34.5781 142.548 34.7917 142.152 35.2188C141.757 35.6406 141.512 36.2344 141.418 37H145.652V36.8906C145.611 36.1562 145.413 35.5885 145.059 35.1875C144.704 34.7812 144.225 34.5781 143.621 34.5781ZM152.863 34.8438C152.645 34.8073 152.408 34.7891 152.152 34.7891C151.204 34.7891 150.561 35.1927 150.223 36V42H148.777V33.5469H150.184L150.207 34.5234C150.681 33.7682 151.353 33.3906 152.223 33.3906C152.504 33.3906 152.717 33.4271 152.863 33.5V34.8438ZM165.652 40.0078L167.277 33.5469H168.723L166.262 42H165.09L163.035 35.5938L161.035 42H159.863L157.41 33.5469H158.848L160.512 39.875L162.48 33.5469H163.645L165.652 40.0078ZM171.77 42H170.324V33.5469H171.77V42ZM170.207 31.3047C170.207 31.0703 170.277 30.8724 170.418 30.7109C170.564 30.5495 170.777 30.4688 171.059 30.4688C171.34 30.4688 171.553 30.5495 171.699 30.7109C171.845 30.8724 171.918 31.0703 171.918 31.3047C171.918 31.5391 171.845 31.7344 171.699 31.8906C171.553 32.0469 171.34 32.125 171.059 32.125C170.777 32.125 170.564 32.0469 170.418 31.8906C170.277 31.7344 170.207 31.5391 170.207 31.3047ZM175.66 42H174.215V30H175.66V42ZM179.551 42H178.105V30H179.551V42ZM190.762 39.7578C190.762 39.3672 190.613 39.0651 190.316 38.8516C190.025 38.6328 189.512 38.4453 188.777 38.2891C188.048 38.1328 187.467 37.9453 187.035 37.7266C186.608 37.5078 186.29 37.2474 186.082 36.9453C185.879 36.6432 185.777 36.2839 185.777 35.8672C185.777 35.1745 186.069 34.5885 186.652 34.1094C187.241 33.6302 187.991 33.3906 188.902 33.3906C189.861 33.3906 190.637 33.638 191.23 34.1328C191.829 34.6276 192.129 35.2604 192.129 36.0312H190.676C190.676 35.6354 190.507 35.2943 190.168 35.0078C189.835 34.7214 189.413 34.5781 188.902 34.5781C188.376 34.5781 187.965 34.6927 187.668 34.9219C187.371 35.151 187.223 35.4505 187.223 35.8203C187.223 36.1693 187.361 36.4323 187.637 36.6094C187.913 36.7865 188.41 36.9557 189.129 37.1172C189.853 37.2786 190.439 37.4714 190.887 37.6953C191.335 37.9193 191.665 38.1901 191.879 38.5078C192.098 38.8203 192.207 39.2031 192.207 39.6562C192.207 40.4115 191.905 41.0182 191.301 41.4766C190.697 41.9297 189.913 42.1562 188.949 42.1562C188.272 42.1562 187.673 42.0365 187.152 41.7969C186.632 41.5573 186.223 41.224 185.926 40.7969C185.634 40.3646 185.488 39.8984 185.488 39.3984H186.934C186.96 39.8828 187.152 40.2682 187.512 40.5547C187.876 40.8359 188.355 40.9766 188.949 40.9766C189.496 40.9766 189.934 40.8672 190.262 40.6484C190.595 40.4245 190.762 40.1276 190.762 39.7578ZM197.48 40.9766C197.996 40.9766 198.447 40.8203 198.832 40.5078C199.217 40.1953 199.431 39.8047 199.473 39.3359H200.84C200.814 39.8203 200.647 40.2812 200.34 40.7188C200.033 41.1562 199.621 41.5052 199.105 41.7656C198.595 42.026 198.053 42.1562 197.48 42.1562C196.329 42.1562 195.413 41.7734 194.73 41.0078C194.053 40.237 193.715 39.1849 193.715 37.8516V37.6094C193.715 36.7865 193.866 36.0547 194.168 35.4141C194.47 34.7734 194.902 34.276 195.465 33.9219C196.033 33.5677 196.702 33.3906 197.473 33.3906C198.421 33.3906 199.207 33.6745 199.832 34.2422C200.462 34.8099 200.798 35.5469 200.84 36.4531H199.473C199.431 35.9062 199.223 35.4583 198.848 35.1094C198.478 34.7552 198.02 34.5781 197.473 34.5781C196.738 34.5781 196.168 34.8438 195.762 35.375C195.361 35.901 195.16 36.6641 195.16 37.6641V37.9375C195.16 38.9115 195.361 39.6615 195.762 40.1875C196.163 40.7135 196.736 40.9766 197.48 40.9766ZM207.684 42C207.6 41.8333 207.533 41.5365 207.48 41.1094C206.809 41.8073 206.007 42.1562 205.074 42.1562C204.241 42.1562 203.556 41.9219 203.02 41.4531C202.488 40.9792 202.223 40.3802 202.223 39.6562C202.223 38.776 202.556 38.0938 203.223 37.6094C203.895 37.1198 204.837 36.875 206.051 36.875H207.457V36.2109C207.457 35.7057 207.306 35.3047 207.004 35.0078C206.702 34.7057 206.257 34.5547 205.668 34.5547C205.152 34.5547 204.72 34.6849 204.371 34.9453C204.022 35.2057 203.848 35.5208 203.848 35.8906H202.395C202.395 35.4688 202.543 35.0625 202.84 34.6719C203.142 34.276 203.548 33.9635 204.059 33.7344C204.574 33.5052 205.139 33.3906 205.754 33.3906C206.728 33.3906 207.491 33.6354 208.043 34.125C208.595 34.6094 208.882 35.2786 208.902 36.1328V40.0234C208.902 40.7995 209.001 41.4167 209.199 41.875V42H207.684ZM205.285 40.8984C205.738 40.8984 206.168 40.7812 206.574 40.5469C206.98 40.3125 207.275 40.0078 207.457 39.6328V37.8984H206.324C204.553 37.8984 203.668 38.4167 203.668 39.4531C203.668 39.9062 203.819 40.2604 204.121 40.5156C204.423 40.7708 204.811 40.8984 205.285 40.8984ZM212.535 33.5469L212.582 34.6094C213.228 33.7969 214.072 33.3906 215.113 33.3906C216.9 33.3906 217.801 34.3984 217.816 36.4141V42H216.371V36.4062C216.366 35.7969 216.225 35.3464 215.949 35.0547C215.678 34.763 215.254 34.6172 214.676 34.6172C214.207 34.6172 213.796 34.7422 213.441 34.9922C213.087 35.2422 212.811 35.5703 212.613 35.9766V42H211.168V33.5469H212.535ZM232.879 36.6797C232.879 37.7786 232.704 38.7266 232.355 39.5234C232.007 40.3151 231.517 40.9349 230.887 41.3828L232.918 42.9766L231.895 43.9219L229.496 42.0156C229.121 42.1094 228.725 42.1562 228.309 42.1562C227.413 42.1562 226.618 41.9375 225.926 41.5C225.233 41.0573 224.694 40.4297 224.309 39.6172C223.928 38.7995 223.733 37.8542 223.723 36.7812V35.9609C223.723 34.8672 223.913 33.901 224.293 33.0625C224.673 32.224 225.21 31.5833 225.902 31.1406C226.6 30.6927 227.397 30.4688 228.293 30.4688C229.21 30.4688 230.014 30.6901 230.707 31.1328C231.405 31.5755 231.941 32.2135 232.316 33.0469C232.691 33.875 232.879 34.8438 232.879 35.9531V36.6797ZM231.379 35.9453C231.379 34.6068 231.111 33.5755 230.574 32.8516C230.043 32.1224 229.283 31.7578 228.293 31.7578C227.35 31.7578 226.605 32.1198 226.059 32.8438C225.517 33.5625 225.238 34.5625 225.223 35.8438V36.6797C225.223 37.9818 225.493 39.0078 226.035 39.7578C226.582 40.5078 227.34 40.8828 228.309 40.8828C229.277 40.8828 230.027 40.5312 230.559 39.8281C231.09 39.1198 231.363 38.1068 231.379 36.7891V35.9453ZM239.363 37.3984H236.691V42H235.184V30.625H238.949C240.23 30.625 241.215 30.9167 241.902 31.5C242.595 32.0833 242.941 32.9323 242.941 34.0469C242.941 34.7552 242.749 35.3724 242.363 35.8984C241.983 36.4245 241.452 36.8177 240.77 37.0781L243.441 41.9062V42H241.832L239.363 37.3984ZM236.691 36.1719H238.996C239.741 36.1719 240.332 35.9792 240.77 35.5938C241.212 35.2083 241.434 34.6927 241.434 34.0469C241.434 33.3438 241.223 32.8047 240.801 32.4297C240.384 32.0547 239.78 31.8646 238.988 31.8594H236.691V36.1719ZM252.184 40.9766C252.699 40.9766 253.15 40.8203 253.535 40.5078C253.921 40.1953 254.134 39.8047 254.176 39.3359H255.543C255.517 39.8203 255.35 40.2812 255.043 40.7188C254.736 41.1562 254.324 41.5052 253.809 41.7656C253.298 42.026 252.757 42.1562 252.184 42.1562C251.033 42.1562 250.116 41.7734 249.434 41.0078C248.757 40.237 248.418 39.1849 248.418 37.8516V37.6094C248.418 36.7865 248.569 36.0547 248.871 35.4141C249.173 34.7734 249.605 34.276 250.168 33.9219C250.736 33.5677 251.405 33.3906 252.176 33.3906C253.124 33.3906 253.91 33.6745 254.535 34.2422C255.165 34.8099 255.501 35.5469 255.543 36.4531H254.176C254.134 35.9062 253.926 35.4583 253.551 35.1094C253.181 34.7552 252.723 34.5781 252.176 34.5781C251.441 34.5781 250.871 34.8438 250.465 35.375C250.064 35.901 249.863 36.6641 249.863 37.6641V37.9375C249.863 38.9115 250.064 39.6615 250.465 40.1875C250.866 40.7135 251.439 40.9766 252.184 40.9766ZM256.785 37.6953C256.785 36.8672 256.947 36.1224 257.27 35.4609C257.598 34.7995 258.051 34.2891 258.629 33.9297C259.212 33.5703 259.876 33.3906 260.621 33.3906C261.772 33.3906 262.702 33.7891 263.41 34.5859C264.124 35.3828 264.48 36.4427 264.48 37.7656V37.8672C264.48 38.6901 264.322 39.4297 264.004 40.0859C263.691 40.737 263.241 41.2448 262.652 41.6094C262.069 41.974 261.397 42.1562 260.637 42.1562C259.491 42.1562 258.561 41.7578 257.848 40.9609C257.139 40.1641 256.785 39.1094 256.785 37.7969V37.6953ZM258.238 37.8672C258.238 38.8047 258.454 39.5573 258.887 40.125C259.324 40.6927 259.908 40.9766 260.637 40.9766C261.371 40.9766 261.954 40.6901 262.387 40.1172C262.819 39.5391 263.035 38.7318 263.035 37.6953C263.035 36.7682 262.814 36.0182 262.371 35.4453C261.934 34.8672 261.35 34.5781 260.621 34.5781C259.908 34.5781 259.332 34.862 258.895 35.4297C258.457 35.9974 258.238 36.8099 258.238 37.8672ZM265.941 37.7031C265.941 36.4062 266.249 35.3646 266.863 34.5781C267.478 33.7865 268.283 33.3906 269.277 33.3906C270.267 33.3906 271.051 33.7292 271.629 34.4062V30H273.074V42H271.746L271.676 41.0938C271.098 41.8021 270.293 42.1562 269.262 42.1562C268.283 42.1562 267.483 41.7552 266.863 40.9531C266.249 40.151 265.941 39.1042 265.941 37.8125V37.7031ZM267.387 37.8672C267.387 38.8255 267.585 39.5755 267.98 40.1172C268.376 40.6589 268.923 40.9297 269.621 40.9297C270.538 40.9297 271.207 40.5182 271.629 39.6953V35.8125C271.197 35.0156 270.533 34.6172 269.637 34.6172C268.928 34.6172 268.376 34.8906 267.98 35.4375C267.585 35.9844 267.387 36.7943 267.387 37.8672ZM278.832 42.1562C277.686 42.1562 276.754 41.7812 276.035 41.0312C275.316 40.276 274.957 39.2682 274.957 38.0078V37.7422C274.957 36.9036 275.116 36.1562 275.434 35.5C275.757 34.8385 276.204 34.3229 276.777 33.9531C277.355 33.5781 277.98 33.3906 278.652 33.3906C279.751 33.3906 280.605 33.7526 281.215 34.4766C281.824 35.2005 282.129 36.237 282.129 37.5859V38.1875H276.402C276.423 39.0208 276.665 39.6953 277.129 40.2109C277.598 40.7214 278.191 40.9766 278.91 40.9766C279.421 40.9766 279.853 40.8724 280.207 40.6641C280.561 40.4557 280.871 40.1797 281.137 39.8359L282.02 40.5234C281.311 41.612 280.249 42.1562 278.832 42.1562ZM278.652 34.5781C278.069 34.5781 277.579 34.7917 277.184 35.2188C276.788 35.6406 276.543 36.2344 276.449 37H280.684V36.8906C280.642 36.1562 280.444 35.5885 280.09 35.1875C279.736 34.7812 279.257 34.5781 278.652 34.5781ZM292.996 42C292.913 41.8333 292.845 41.5365 292.793 41.1094C292.121 41.8073 291.319 42.1562 290.387 42.1562C289.553 42.1562 288.868 41.9219 288.332 41.4531C287.801 40.9792 287.535 40.3802 287.535 39.6562C287.535 38.776 287.868 38.0938 288.535 37.6094C289.207 37.1198 290.15 36.875 291.363 36.875H292.77V36.2109C292.77 35.7057 292.618 35.3047 292.316 35.0078C292.014 34.7057 291.569 34.5547 290.98 34.5547C290.465 34.5547 290.033 34.6849 289.684 34.9453C289.335 35.2057 289.16 35.5208 289.16 35.8906H287.707C287.707 35.4688 287.855 35.0625 288.152 34.6719C288.454 34.276 288.861 33.9635 289.371 33.7344C289.887 33.5052 290.452 33.3906 291.066 33.3906C292.04 33.3906 292.803 33.6354 293.355 34.125C293.908 34.6094 294.194 35.2786 294.215 36.1328V40.0234C294.215 40.7995 294.314 41.4167 294.512 41.875V42H292.996ZM290.598 40.8984C291.051 40.8984 291.48 40.7812 291.887 40.5469C292.293 40.3125 292.587 40.0078 292.77 39.6328V37.8984H291.637C289.866 37.8984 288.98 38.4167 288.98 39.4531C288.98 39.9062 289.132 40.2604 289.434 40.5156C289.736 40.7708 290.124 40.8984 290.598 40.8984ZM297.848 33.5469L297.895 34.6094C298.54 33.7969 299.384 33.3906 300.426 33.3906C302.212 33.3906 303.113 34.3984 303.129 36.4141V42H301.684V36.4062C301.678 35.7969 301.538 35.3464 301.262 35.0547C300.991 34.763 300.566 34.6172 299.988 34.6172C299.52 34.6172 299.108 34.7422 298.754 34.9922C298.4 35.2422 298.124 35.5703 297.926 35.9766V42H296.48V33.5469H297.848ZM304.957 37.7031C304.957 36.4062 305.264 35.3646 305.879 34.5781C306.493 33.7865 307.298 33.3906 308.293 33.3906C309.283 33.3906 310.066 33.7292 310.645 34.4062V30H312.09V42H310.762L310.691 41.0938C310.113 41.8021 309.309 42.1562 308.277 42.1562C307.298 42.1562 306.499 41.7552 305.879 40.9531C305.264 40.151 304.957 39.1042 304.957 37.8125V37.7031ZM306.402 37.8672C306.402 38.8255 306.6 39.5755 306.996 40.1172C307.392 40.6589 307.939 40.9297 308.637 40.9297C309.553 40.9297 310.223 40.5182 310.645 39.6953V35.8125C310.212 35.0156 309.548 34.6172 308.652 34.6172C307.944 34.6172 307.392 34.8906 306.996 35.4375C306.6 35.9844 306.402 36.7943 306.402 37.8672ZM325.449 37.8672C325.449 39.1536 325.155 40.1901 324.566 40.9766C323.978 41.763 323.181 42.1562 322.176 42.1562C321.15 42.1562 320.342 41.8307 319.754 41.1797V45.25H318.309V33.5469H319.629L319.699 34.4844C320.288 33.7552 321.105 33.3906 322.152 33.3906C323.168 33.3906 323.97 33.7734 324.559 34.5391C325.152 35.3047 325.449 36.3698 325.449 37.7344V37.8672ZM324.004 37.7031C324.004 36.75 323.801 35.9974 323.395 35.4453C322.988 34.8932 322.431 34.6172 321.723 34.6172C320.848 34.6172 320.191 35.0052 319.754 35.7812V39.8203C320.186 40.5911 320.848 40.9766 321.738 40.9766C322.431 40.9766 322.98 40.7031 323.387 40.1562C323.798 39.6042 324.004 38.7865 324.004 37.7031ZM332.512 42C332.428 41.8333 332.361 41.5365 332.309 41.1094C331.637 41.8073 330.835 42.1562 329.902 42.1562C329.069 42.1562 328.384 41.9219 327.848 41.4531C327.316 40.9792 327.051 40.3802 327.051 39.6562C327.051 38.776 327.384 38.0938 328.051 37.6094C328.723 37.1198 329.665 36.875 330.879 36.875H332.285V36.2109C332.285 35.7057 332.134 35.3047 331.832 35.0078C331.53 34.7057 331.085 34.5547 330.496 34.5547C329.98 34.5547 329.548 34.6849 329.199 34.9453C328.85 35.2057 328.676 35.5208 328.676 35.8906H327.223C327.223 35.4688 327.371 35.0625 327.668 34.6719C327.97 34.276 328.376 33.9635 328.887 33.7344C329.402 33.5052 329.967 33.3906 330.582 33.3906C331.556 33.3906 332.319 33.6354 332.871 34.125C333.423 34.6094 333.71 35.2786 333.73 36.1328V40.0234C333.73 40.7995 333.829 41.4167 334.027 41.875V42H332.512ZM330.113 40.8984C330.566 40.8984 330.996 40.7812 331.402 40.5469C331.809 40.3125 332.103 40.0078 332.285 39.6328V37.8984H331.152C329.382 37.8984 328.496 38.4167 328.496 39.4531C328.496 39.9062 328.647 40.2604 328.949 40.5156C329.251 40.7708 329.639 40.8984 330.113 40.8984ZM338.637 39.8828L340.605 33.5469H342.152L338.754 43.3047C338.228 44.7109 337.392 45.4141 336.246 45.4141L335.973 45.3906L335.434 45.2891V44.1172L335.824 44.1484C336.314 44.1484 336.694 44.0495 336.965 43.8516C337.241 43.6536 337.467 43.2917 337.645 42.7656L337.965 41.9062L334.949 33.5469H336.527L338.637 39.8828ZM348.863 34.5703C349.504 33.7839 350.337 33.3906 351.363 33.3906C353.15 33.3906 354.051 34.3984 354.066 36.4141V42H352.621V36.4062C352.616 35.7969 352.475 35.3464 352.199 35.0547C351.928 34.763 351.504 34.6172 350.926 34.6172C350.457 34.6172 350.046 34.7422 349.691 34.9922C349.337 35.2422 349.061 35.5703 348.863 35.9766V42H347.418V30H348.863V34.5703ZM357.801 42H356.355V33.5469H357.801V42ZM356.238 31.3047C356.238 31.0703 356.309 30.8724 356.449 30.7109C356.595 30.5495 356.809 30.4688 357.09 30.4688C357.371 30.4688 357.585 30.5495 357.73 30.7109C357.876 30.8724 357.949 31.0703 357.949 31.3047C357.949 31.5391 357.876 31.7344 357.73 31.8906C357.585 32.0469 357.371 32.125 357.09 32.125C356.809 32.125 356.595 32.0469 356.449 31.8906C356.309 31.7344 356.238 31.5391 356.238 31.3047ZM365.043 39.7578C365.043 39.3672 364.895 39.0651 364.598 38.8516C364.306 38.6328 363.793 38.4453 363.059 38.2891C362.329 38.1328 361.749 37.9453 361.316 37.7266C360.889 37.5078 360.572 37.2474 360.363 36.9453C360.16 36.6432 360.059 36.2839 360.059 35.8672C360.059 35.1745 360.35 34.5885 360.934 34.1094C361.522 33.6302 362.272 33.3906 363.184 33.3906C364.142 33.3906 364.918 33.638 365.512 34.1328C366.111 34.6276 366.41 35.2604 366.41 36.0312H364.957C364.957 35.6354 364.788 35.2943 364.449 35.0078C364.116 34.7214 363.694 34.5781 363.184 34.5781C362.658 34.5781 362.246 34.6927 361.949 34.9219C361.652 35.151 361.504 35.4505 361.504 35.8203C361.504 36.1693 361.642 36.4323 361.918 36.6094C362.194 36.7865 362.691 36.9557 363.41 37.1172C364.134 37.2786 364.72 37.4714 365.168 37.6953C365.616 37.9193 365.947 38.1901 366.16 38.5078C366.379 38.8203 366.488 39.2031 366.488 39.6562C366.488 40.4115 366.186 41.0182 365.582 41.4766C364.978 41.9297 364.194 42.1562 363.23 42.1562C362.553 42.1562 361.954 42.0365 361.434 41.7969C360.913 41.5573 360.504 41.224 360.207 40.7969C359.915 40.3646 359.77 39.8984 359.77 39.3984H361.215C361.241 39.8828 361.434 40.2682 361.793 40.5547C362.158 40.8359 362.637 40.9766 363.23 40.9766C363.777 40.9766 364.215 40.8672 364.543 40.6484C364.876 40.4245 365.043 40.1276 365.043 39.7578ZM372.629 42.9766H371.387L376.137 30.625H377.371L372.629 42.9766ZM384.348 34.5703C384.988 33.7839 385.822 33.3906 386.848 33.3906C388.634 33.3906 389.535 34.3984 389.551 36.4141V42H388.105V36.4062C388.1 35.7969 387.96 35.3464 387.684 35.0547C387.413 34.763 386.988 34.6172 386.41 34.6172C385.941 34.6172 385.53 34.7422 385.176 34.9922C384.822 35.2422 384.546 35.5703 384.348 35.9766V42H382.902V30H384.348V34.5703ZM395.223 42.1562C394.077 42.1562 393.145 41.7812 392.426 41.0312C391.707 40.276 391.348 39.2682 391.348 38.0078V37.7422C391.348 36.9036 391.507 36.1562 391.824 35.5C392.147 34.8385 392.595 34.3229 393.168 33.9531C393.746 33.5781 394.371 33.3906 395.043 33.3906C396.142 33.3906 396.996 33.7526 397.605 34.4766C398.215 35.2005 398.52 36.237 398.52 37.5859V38.1875H392.793C392.814 39.0208 393.056 39.6953 393.52 40.2109C393.988 40.7214 394.582 40.9766 395.301 40.9766C395.811 40.9766 396.243 40.8724 396.598 40.6641C396.952 40.4557 397.262 40.1797 397.527 39.8359L398.41 40.5234C397.702 41.612 396.639 42.1562 395.223 42.1562ZM395.043 34.5781C394.46 34.5781 393.97 34.7917 393.574 35.2188C393.178 35.6406 392.934 36.2344 392.84 37H397.074V36.8906C397.033 36.1562 396.835 35.5885 396.48 35.1875C396.126 34.7812 395.647 34.5781 395.043 34.5781ZM404.285 34.8438C404.066 34.8073 403.829 34.7891 403.574 34.7891C402.626 34.7891 401.983 35.1927 401.645 36V42H400.199V33.5469H401.605L401.629 34.5234C402.103 33.7682 402.775 33.3906 403.645 33.3906C403.926 33.3906 404.139 33.4271 404.285 33.5V34.8438ZM416.746 37.8672C416.746 39.1589 416.449 40.1979 415.855 40.9844C415.262 41.7656 414.465 42.1562 413.465 42.1562C412.397 42.1562 411.572 41.7786 410.988 41.0234L410.918 42H409.59V30H411.035V34.4766C411.618 33.7526 412.423 33.3906 413.449 33.3906C414.475 33.3906 415.28 33.7786 415.863 34.5547C416.452 35.3307 416.746 36.3932 416.746 37.7422V37.8672ZM415.301 37.7031C415.301 36.7188 415.111 35.9583 414.73 35.4219C414.35 34.8854 413.803 34.6172 413.09 34.6172C412.137 34.6172 411.452 35.0599 411.035 35.9453V39.6016C411.478 40.487 412.168 40.9297 413.105 40.9297C413.798 40.9297 414.337 40.6615 414.723 40.125C415.108 39.5885 415.301 38.7812 415.301 37.7031ZM420.145 42H418.699V33.5469H420.145V42ZM418.582 31.3047C418.582 31.0703 418.652 30.8724 418.793 30.7109C418.939 30.5495 419.152 30.4688 419.434 30.4688C419.715 30.4688 419.928 30.5495 420.074 30.7109C420.22 30.8724 420.293 31.0703 420.293 31.3047C420.293 31.5391 420.22 31.7344 420.074 31.8906C419.928 32.0469 419.715 32.125 419.434 32.125C419.152 32.125 418.939 32.0469 418.793 31.8906C418.652 31.7344 418.582 31.5391 418.582 31.3047ZM424.035 42H422.59V30H424.035V42ZM427.926 42H426.48V30H427.926V42Z" fill="#656668"/>
<path d="M46.286 48H49.23V24.864H43.214V27.52H46.286V48Z" fill="#656668"/>
<path d="M89.4023 123.391C89.2617 124.594 88.8164 125.523 88.0664 126.18C87.3216 126.831 86.3294 127.156 85.0898 127.156C83.7461 127.156 82.668 126.674 81.8555 125.711C81.0482 124.747 80.6445 123.458 80.6445 121.844V120.75C80.6445 119.693 80.832 118.763 81.207 117.961C81.5872 117.159 82.1237 116.544 82.8164 116.117C83.5091 115.685 84.3112 115.469 85.2227 115.469C86.431 115.469 87.3997 115.807 88.1289 116.484C88.8581 117.156 89.2826 118.089 89.4023 119.281H87.8945C87.7643 118.375 87.4805 117.719 87.043 117.312C86.6107 116.906 86.0039 116.703 85.2227 116.703C84.2643 116.703 83.5117 117.057 82.9648 117.766C82.4232 118.474 82.1523 119.482 82.1523 120.789V121.891C82.1523 123.125 82.4102 124.107 82.9258 124.836C83.4414 125.565 84.1628 125.93 85.0898 125.93C85.9232 125.93 86.5612 125.742 87.0039 125.367C87.4518 124.987 87.7487 124.328 87.8945 123.391H89.4023ZM90.8477 122.695C90.8477 121.867 91.0091 121.122 91.332 120.461C91.6602 119.799 92.1133 119.289 92.6914 118.93C93.2747 118.57 93.9388 118.391 94.6836 118.391C95.8346 118.391 96.7643 118.789 97.4727 119.586C98.1862 120.383 98.543 121.443 98.543 122.766V122.867C98.543 123.69 98.3841 124.43 98.0664 125.086C97.7539 125.737 97.3034 126.245 96.7148 126.609C96.1315 126.974 95.4596 127.156 94.6992 127.156C93.5534 127.156 92.6237 126.758 91.9102 125.961C91.2018 125.164 90.8477 124.109 90.8477 122.797V122.695ZM92.3008 122.867C92.3008 123.805 92.5169 124.557 92.9492 125.125C93.3867 125.693 93.9701 125.977 94.6992 125.977C95.4336 125.977 96.0169 125.69 96.4492 125.117C96.8815 124.539 97.0977 123.732 97.0977 122.695C97.0977 121.768 96.8763 121.018 96.4336 120.445C95.9961 119.867 95.4128 119.578 94.6836 119.578C93.9701 119.578 93.3945 119.862 92.957 120.43C92.5195 120.997 92.3008 121.81 92.3008 122.867ZM101.723 118.547L101.77 119.609C102.415 118.797 103.259 118.391 104.301 118.391C106.087 118.391 106.988 119.398 107.004 121.414V127H105.559V121.406C105.553 120.797 105.413 120.346 105.137 120.055C104.866 119.763 104.441 119.617 103.863 119.617C103.395 119.617 102.983 119.742 102.629 119.992C102.275 120.242 101.999 120.57 101.801 120.977V127H100.355V118.547H101.723ZM114.105 124.758C114.105 124.367 113.957 124.065 113.66 123.852C113.368 123.633 112.855 123.445 112.121 123.289C111.392 123.133 110.811 122.945 110.379 122.727C109.952 122.508 109.634 122.247 109.426 121.945C109.223 121.643 109.121 121.284 109.121 120.867C109.121 120.174 109.413 119.589 109.996 119.109C110.585 118.63 111.335 118.391 112.246 118.391C113.204 118.391 113.98 118.638 114.574 119.133C115.173 119.628 115.473 120.26 115.473 121.031H114.02C114.02 120.635 113.85 120.294 113.512 120.008C113.178 119.721 112.757 119.578 112.246 119.578C111.72 119.578 111.309 119.693 111.012 119.922C110.715 120.151 110.566 120.451 110.566 120.82C110.566 121.169 110.704 121.432 110.98 121.609C111.257 121.786 111.754 121.956 112.473 122.117C113.197 122.279 113.783 122.471 114.23 122.695C114.678 122.919 115.009 123.19 115.223 123.508C115.441 123.82 115.551 124.203 115.551 124.656C115.551 125.411 115.249 126.018 114.645 126.477C114.04 126.93 113.257 127.156 112.293 127.156C111.616 127.156 111.017 127.036 110.496 126.797C109.975 126.557 109.566 126.224 109.27 125.797C108.978 125.365 108.832 124.898 108.832 124.398H110.277C110.303 124.883 110.496 125.268 110.855 125.555C111.22 125.836 111.699 125.977 112.293 125.977C112.84 125.977 113.277 125.867 113.605 125.648C113.939 125.424 114.105 125.128 114.105 124.758ZM122.652 126.164C122.09 126.826 121.264 127.156 120.176 127.156C119.275 127.156 118.587 126.896 118.113 126.375C117.645 125.849 117.408 125.073 117.402 124.047V118.547H118.848V124.008C118.848 125.289 119.368 125.93 120.41 125.93C121.514 125.93 122.249 125.518 122.613 124.695V118.547H124.059V127H122.684L122.652 126.164ZM127.621 118.547L127.66 119.484C128.28 118.755 129.116 118.391 130.168 118.391C131.35 118.391 132.155 118.844 132.582 119.75C132.863 119.344 133.228 119.016 133.676 118.766C134.129 118.516 134.663 118.391 135.277 118.391C137.132 118.391 138.074 119.372 138.105 121.336V127H136.66V121.422C136.66 120.818 136.522 120.367 136.246 120.07C135.97 119.768 135.507 119.617 134.855 119.617C134.319 119.617 133.874 119.779 133.52 120.102C133.165 120.419 132.96 120.849 132.902 121.391V127H131.449V121.461C131.449 120.232 130.848 119.617 129.645 119.617C128.697 119.617 128.048 120.021 127.699 120.828V127H126.254V118.547H127.621ZM143.801 127.156C142.655 127.156 141.723 126.781 141.004 126.031C140.285 125.276 139.926 124.268 139.926 123.008V122.742C139.926 121.904 140.085 121.156 140.402 120.5C140.725 119.839 141.173 119.323 141.746 118.953C142.324 118.578 142.949 118.391 143.621 118.391C144.72 118.391 145.574 118.753 146.184 119.477C146.793 120.201 147.098 121.237 147.098 122.586V123.188H141.371C141.392 124.021 141.634 124.695 142.098 125.211C142.566 125.721 143.16 125.977 143.879 125.977C144.389 125.977 144.822 125.872 145.176 125.664C145.53 125.456 145.84 125.18 146.105 124.836L146.988 125.523C146.28 126.612 145.217 127.156 143.801 127.156ZM143.621 119.578C143.038 119.578 142.548 119.792 142.152 120.219C141.757 120.641 141.512 121.234 141.418 122H145.652V121.891C145.611 121.156 145.413 120.589 145.059 120.188C144.704 119.781 144.225 119.578 143.621 119.578ZM152.863 119.844C152.645 119.807 152.408 119.789 152.152 119.789C151.204 119.789 150.561 120.193 150.223 121V127H148.777V118.547H150.184L150.207 119.523C150.681 118.768 151.353 118.391 152.223 118.391C152.504 118.391 152.717 118.427 152.863 118.5V119.844ZM165.652 125.008L167.277 118.547H168.723L166.262 127H165.09L163.035 120.594L161.035 127H159.863L157.41 118.547H158.848L160.512 124.875L162.48 118.547H163.645L165.652 125.008ZM171.77 127H170.324V118.547H171.77V127ZM170.207 116.305C170.207 116.07 170.277 115.872 170.418 115.711C170.564 115.549 170.777 115.469 171.059 115.469C171.34 115.469 171.553 115.549 171.699 115.711C171.845 115.872 171.918 116.07 171.918 116.305C171.918 116.539 171.845 116.734 171.699 116.891C171.553 117.047 171.34 117.125 171.059 117.125C170.777 117.125 170.564 117.047 170.418 116.891C170.277 116.734 170.207 116.539 170.207 116.305ZM175.66 127H174.215V115H175.66V127ZM179.551 127H178.105V115H179.551V127ZM190.762 124.758C190.762 124.367 190.613 124.065 190.316 123.852C190.025 123.633 189.512 123.445 188.777 123.289C188.048 123.133 187.467 122.945 187.035 122.727C186.608 122.508 186.29 122.247 186.082 121.945C185.879 121.643 185.777 121.284 185.777 120.867C185.777 120.174 186.069 119.589 186.652 119.109C187.241 118.63 187.991 118.391 188.902 118.391C189.861 118.391 190.637 118.638 191.23 119.133C191.829 119.628 192.129 120.26 192.129 121.031H190.676C190.676 120.635 190.507 120.294 190.168 120.008C189.835 119.721 189.413 119.578 188.902 119.578C188.376 119.578 187.965 119.693 187.668 119.922C187.371 120.151 187.223 120.451 187.223 120.82C187.223 121.169 187.361 121.432 187.637 121.609C187.913 121.786 188.41 121.956 189.129 122.117C189.853 122.279 190.439 122.471 190.887 122.695C191.335 122.919 191.665 123.19 191.879 123.508C192.098 123.82 192.207 124.203 192.207 124.656C192.207 125.411 191.905 126.018 191.301 126.477C190.697 126.93 189.913 127.156 188.949 127.156C188.272 127.156 187.673 127.036 187.152 126.797C186.632 126.557 186.223 126.224 185.926 125.797C185.634 125.365 185.488 124.898 185.488 124.398H186.934C186.96 124.883 187.152 125.268 187.512 125.555C187.876 125.836 188.355 125.977 188.949 125.977C189.496 125.977 189.934 125.867 190.262 125.648C190.595 125.424 190.762 125.128 190.762 124.758ZM197.48 125.977C197.996 125.977 198.447 125.82 198.832 125.508C199.217 125.195 199.431 124.805 199.473 124.336H200.84C200.814 124.82 200.647 125.281 200.34 125.719C200.033 126.156 199.621 126.505 199.105 126.766C198.595 127.026 198.053 127.156 197.48 127.156C196.329 127.156 195.413 126.773 194.73 126.008C194.053 125.237 193.715 124.185 193.715 122.852V122.609C193.715 121.786 193.866 121.055 194.168 120.414C194.47 119.773 194.902 119.276 195.465 118.922C196.033 118.568 196.702 118.391 197.473 118.391C198.421 118.391 199.207 118.674 199.832 119.242C200.462 119.81 200.798 120.547 200.84 121.453H199.473C199.431 120.906 199.223 120.458 198.848 120.109C198.478 119.755 198.02 119.578 197.473 119.578C196.738 119.578 196.168 119.844 195.762 120.375C195.361 120.901 195.16 121.664 195.16 122.664V122.938C195.16 123.911 195.361 124.661 195.762 125.188C196.163 125.714 196.736 125.977 197.48 125.977ZM207.684 127C207.6 126.833 207.533 126.536 207.48 126.109C206.809 126.807 206.007 127.156 205.074 127.156C204.241 127.156 203.556 126.922 203.02 126.453C202.488 125.979 202.223 125.38 202.223 124.656C202.223 123.776 202.556 123.094 203.223 122.609C203.895 122.12 204.837 121.875 206.051 121.875H207.457V121.211C207.457 120.706 207.306 120.305 207.004 120.008C206.702 119.706 206.257 119.555 205.668 119.555C205.152 119.555 204.72 119.685 204.371 119.945C204.022 120.206 203.848 120.521 203.848 120.891H202.395C202.395 120.469 202.543 120.062 202.84 119.672C203.142 119.276 203.548 118.964 204.059 118.734C204.574 118.505 205.139 118.391 205.754 118.391C206.728 118.391 207.491 118.635 208.043 119.125C208.595 119.609 208.882 120.279 208.902 121.133V125.023C208.902 125.799 209.001 126.417 209.199 126.875V127H207.684ZM205.285 125.898C205.738 125.898 206.168 125.781 206.574 125.547C206.98 125.312 207.275 125.008 207.457 124.633V122.898H206.324C204.553 122.898 203.668 123.417 203.668 124.453C203.668 124.906 203.819 125.26 204.121 125.516C204.423 125.771 204.811 125.898 205.285 125.898ZM212.535 118.547L212.582 119.609C213.228 118.797 214.072 118.391 215.113 118.391C216.9 118.391 217.801 119.398 217.816 121.414V127H216.371V121.406C216.366 120.797 216.225 120.346 215.949 120.055C215.678 119.763 215.254 119.617 214.676 119.617C214.207 119.617 213.796 119.742 213.441 119.992C213.087 120.242 212.811 120.57 212.613 120.977V127H211.168V118.547H212.535ZM232.879 121.68C232.879 122.779 232.704 123.727 232.355 124.523C232.007 125.315 231.517 125.935 230.887 126.383L232.918 127.977L231.895 128.922L229.496 127.016C229.121 127.109 228.725 127.156 228.309 127.156C227.413 127.156 226.618 126.938 225.926 126.5C225.233 126.057 224.694 125.43 224.309 124.617C223.928 123.799 223.733 122.854 223.723 121.781V120.961C223.723 119.867 223.913 118.901 224.293 118.062C224.673 117.224 225.21 116.583 225.902 116.141C226.6 115.693 227.397 115.469 228.293 115.469C229.21 115.469 230.014 115.69 230.707 116.133C231.405 116.576 231.941 117.214 232.316 118.047C232.691 118.875 232.879 119.844 232.879 120.953V121.68ZM231.379 120.945C231.379 119.607 231.111 118.576 230.574 117.852C230.043 117.122 229.283 116.758 228.293 116.758C227.35 116.758 226.605 117.12 226.059 117.844C225.517 118.562 225.238 119.562 225.223 120.844V121.68C225.223 122.982 225.493 124.008 226.035 124.758C226.582 125.508 227.34 125.883 228.309 125.883C229.277 125.883 230.027 125.531 230.559 124.828C231.09 124.12 231.363 123.107 231.379 121.789V120.945ZM239.363 122.398H236.691V127H235.184V115.625H238.949C240.23 115.625 241.215 115.917 241.902 116.5C242.595 117.083 242.941 117.932 242.941 119.047C242.941 119.755 242.749 120.372 242.363 120.898C241.983 121.424 241.452 121.818 240.77 122.078L243.441 126.906V127H241.832L239.363 122.398ZM236.691 121.172H238.996C239.741 121.172 240.332 120.979 240.77 120.594C241.212 120.208 241.434 119.693 241.434 119.047C241.434 118.344 241.223 117.805 240.801 117.43C240.384 117.055 239.78 116.865 238.988 116.859H236.691V121.172ZM252.184 125.977C252.699 125.977 253.15 125.82 253.535 125.508C253.921 125.195 254.134 124.805 254.176 124.336H255.543C255.517 124.82 255.35 125.281 255.043 125.719C254.736 126.156 254.324 126.505 253.809 126.766C253.298 127.026 252.757 127.156 252.184 127.156C251.033 127.156 250.116 126.773 249.434 126.008C248.757 125.237 248.418 124.185 248.418 122.852V122.609C248.418 121.786 248.569 121.055 248.871 120.414C249.173 119.773 249.605 119.276 250.168 118.922C250.736 118.568 251.405 118.391 252.176 118.391C253.124 118.391 253.91 118.674 254.535 119.242C255.165 119.81 255.501 120.547 255.543 121.453H254.176C254.134 120.906 253.926 120.458 253.551 120.109C253.181 119.755 252.723 119.578 252.176 119.578C251.441 119.578 250.871 119.844 250.465 120.375C250.064 120.901 249.863 121.664 249.863 122.664V122.938C249.863 123.911 250.064 124.661 250.465 125.188C250.866 125.714 251.439 125.977 252.184 125.977ZM256.785 122.695C256.785 121.867 256.947 121.122 257.27 120.461C257.598 119.799 258.051 119.289 258.629 118.93C259.212 118.57 259.876 118.391 260.621 118.391C261.772 118.391 262.702 118.789 263.41 119.586C264.124 120.383 264.48 121.443 264.48 122.766V122.867C264.48 123.69 264.322 124.43 264.004 125.086C263.691 125.737 263.241 126.245 262.652 126.609C262.069 126.974 261.397 127.156 260.637 127.156C259.491 127.156 258.561 126.758 257.848 125.961C257.139 125.164 256.785 124.109 256.785 122.797V122.695ZM258.238 122.867C258.238 123.805 258.454 124.557 258.887 125.125C259.324 125.693 259.908 125.977 260.637 125.977C261.371 125.977 261.954 125.69 262.387 125.117C262.819 124.539 263.035 123.732 263.035 122.695C263.035 121.768 262.814 121.018 262.371 120.445C261.934 119.867 261.35 119.578 260.621 119.578C259.908 119.578 259.332 119.862 258.895 120.43C258.457 120.997 258.238 121.81 258.238 122.867ZM265.941 122.703C265.941 121.406 266.249 120.365 266.863 119.578C267.478 118.786 268.283 118.391 269.277 118.391C270.267 118.391 271.051 118.729 271.629 119.406V115H273.074V127H271.746L271.676 126.094C271.098 126.802 270.293 127.156 269.262 127.156C268.283 127.156 267.483 126.755 266.863 125.953C266.249 125.151 265.941 124.104 265.941 122.812V122.703ZM267.387 122.867C267.387 123.826 267.585 124.576 267.98 125.117C268.376 125.659 268.923 125.93 269.621 125.93C270.538 125.93 271.207 125.518 271.629 124.695V120.812C271.197 120.016 270.533 119.617 269.637 119.617C268.928 119.617 268.376 119.891 267.98 120.438C267.585 120.984 267.387 121.794 267.387 122.867ZM278.832 127.156C277.686 127.156 276.754 126.781 276.035 126.031C275.316 125.276 274.957 124.268 274.957 123.008V122.742C274.957 121.904 275.116 121.156 275.434 120.5C275.757 119.839 276.204 119.323 276.777 118.953C277.355 118.578 277.98 118.391 278.652 118.391C279.751 118.391 280.605 118.753 281.215 119.477C281.824 120.201 282.129 121.237 282.129 122.586V123.188H276.402C276.423 124.021 276.665 124.695 277.129 125.211C277.598 125.721 278.191 125.977 278.91 125.977C279.421 125.977 279.853 125.872 280.207 125.664C280.561 125.456 280.871 125.18 281.137 124.836L282.02 125.523C281.311 126.612 280.249 127.156 278.832 127.156ZM278.652 119.578C278.069 119.578 277.579 119.792 277.184 120.219C276.788 120.641 276.543 121.234 276.449 122H280.684V121.891C280.642 121.156 280.444 120.589 280.09 120.188C279.736 119.781 279.257 119.578 278.652 119.578ZM292.996 127C292.913 126.833 292.845 126.536 292.793 126.109C292.121 126.807 291.319 127.156 290.387 127.156C289.553 127.156 288.868 126.922 288.332 126.453C287.801 125.979 287.535 125.38 287.535 124.656C287.535 123.776 287.868 123.094 288.535 122.609C289.207 122.12 290.15 121.875 291.363 121.875H292.77V121.211C292.77 120.706 292.618 120.305 292.316 120.008C292.014 119.706 291.569 119.555 290.98 119.555C290.465 119.555 290.033 119.685 289.684 119.945C289.335 120.206 289.16 120.521 289.16 120.891H287.707C287.707 120.469 287.855 120.062 288.152 119.672C288.454 119.276 288.861 118.964 289.371 118.734C289.887 118.505 290.452 118.391 291.066 118.391C292.04 118.391 292.803 118.635 293.355 119.125C293.908 119.609 294.194 120.279 294.215 121.133V125.023C294.215 125.799 294.314 126.417 294.512 126.875V127H292.996ZM290.598 125.898C291.051 125.898 291.48 125.781 291.887 125.547C292.293 125.312 292.587 125.008 292.77 124.633V122.898H291.637C289.866 122.898 288.98 123.417 288.98 124.453C288.98 124.906 289.132 125.26 289.434 125.516C289.736 125.771 290.124 125.898 290.598 125.898ZM297.848 118.547L297.895 119.609C298.54 118.797 299.384 118.391 300.426 118.391C302.212 118.391 303.113 119.398 303.129 121.414V127H301.684V121.406C301.678 120.797 301.538 120.346 301.262 120.055C300.991 119.763 300.566 119.617 299.988 119.617C299.52 119.617 299.108 119.742 298.754 119.992C298.4 120.242 298.124 120.57 297.926 120.977V127H296.48V118.547H297.848ZM304.957 122.703C304.957 121.406 305.264 120.365 305.879 119.578C306.493 118.786 307.298 118.391 308.293 118.391C309.283 118.391 310.066 118.729 310.645 119.406V115H312.09V127H310.762L310.691 126.094C310.113 126.802 309.309 127.156 308.277 127.156C307.298 127.156 306.499 126.755 305.879 125.953C305.264 125.151 304.957 124.104 304.957 122.812V122.703ZM306.402 122.867C306.402 123.826 306.6 124.576 306.996 125.117C307.392 125.659 307.939 125.93 308.637 125.93C309.553 125.93 310.223 125.518 310.645 124.695V120.812C310.212 120.016 309.548 119.617 308.652 119.617C307.944 119.617 307.392 119.891 306.996 120.438C306.6 120.984 306.402 121.794 306.402 122.867ZM325.449 122.867C325.449 124.154 325.155 125.19 324.566 125.977C323.978 126.763 323.181 127.156 322.176 127.156C321.15 127.156 320.342 126.831 319.754 126.18V130.25H318.309V118.547H319.629L319.699 119.484C320.288 118.755 321.105 118.391 322.152 118.391C323.168 118.391 323.97 118.773 324.559 119.539C325.152 120.305 325.449 121.37 325.449 122.734V122.867ZM324.004 122.703C324.004 121.75 323.801 120.997 323.395 120.445C322.988 119.893 322.431 119.617 321.723 119.617C320.848 119.617 320.191 120.005 319.754 120.781V124.82C320.186 125.591 320.848 125.977 321.738 125.977C322.431 125.977 322.98 125.703 323.387 125.156C323.798 124.604 324.004 123.786 324.004 122.703ZM332.512 127C332.428 126.833 332.361 126.536 332.309 126.109C331.637 126.807 330.835 127.156 329.902 127.156C329.069 127.156 328.384 126.922 327.848 126.453C327.316 125.979 327.051 125.38 327.051 124.656C327.051 123.776 327.384 123.094 328.051 122.609C328.723 122.12 329.665 121.875 330.879 121.875H332.285V121.211C332.285 120.706 332.134 120.305 331.832 120.008C331.53 119.706 331.085 119.555 330.496 119.555C329.98 119.555 329.548 119.685 329.199 119.945C328.85 120.206 328.676 120.521 328.676 120.891H327.223C327.223 120.469 327.371 120.062 327.668 119.672C327.97 119.276 328.376 118.964 328.887 118.734C329.402 118.505 329.967 118.391 330.582 118.391C331.556 118.391 332.319 118.635 332.871 119.125C333.423 119.609 333.71 120.279 333.73 121.133V125.023C333.73 125.799 333.829 126.417 334.027 126.875V127H332.512ZM330.113 125.898C330.566 125.898 330.996 125.781 331.402 125.547C331.809 125.312 332.103 125.008 332.285 124.633V122.898H331.152C329.382 122.898 328.496 123.417 328.496 124.453C328.496 124.906 328.647 125.26 328.949 125.516C329.251 125.771 329.639 125.898 330.113 125.898ZM338.637 124.883L340.605 118.547H342.152L338.754 128.305C338.228 129.711 337.392 130.414 336.246 130.414L335.973 130.391L335.434 130.289V129.117L335.824 129.148C336.314 129.148 336.694 129.049 336.965 128.852C337.241 128.654 337.467 128.292 337.645 127.766L337.965 126.906L334.949 118.547H336.527L338.637 124.883ZM348.863 119.57C349.504 118.784 350.337 118.391 351.363 118.391C353.15 118.391 354.051 119.398 354.066 121.414V127H352.621V121.406C352.616 120.797 352.475 120.346 352.199 120.055C351.928 119.763 351.504 119.617 350.926 119.617C350.457 119.617 350.046 119.742 349.691 119.992C349.337 120.242 349.061 120.57 348.863 120.977V127H347.418V115H348.863V119.57ZM357.801 127H356.355V118.547H357.801V127ZM356.238 116.305C356.238 116.07 356.309 115.872 356.449 115.711C356.595 115.549 356.809 115.469 357.09 115.469C357.371 115.469 357.585 115.549 357.73 115.711C357.876 115.872 357.949 116.07 357.949 116.305C357.949 116.539 357.876 116.734 357.73 116.891C357.585 117.047 357.371 117.125 357.09 117.125C356.809 117.125 356.595 117.047 356.449 116.891C356.309 116.734 356.238 116.539 356.238 116.305ZM365.043 124.758C365.043 124.367 364.895 124.065 364.598 123.852C364.306 123.633 363.793 123.445 363.059 123.289C362.329 123.133 361.749 122.945 361.316 122.727C360.889 122.508 360.572 122.247 360.363 121.945C360.16 121.643 360.059 121.284 360.059 120.867C360.059 120.174 360.35 119.589 360.934 119.109C361.522 118.63 362.272 118.391 363.184 118.391C364.142 118.391 364.918 118.638 365.512 119.133C366.111 119.628 366.41 120.26 366.41 121.031H364.957C364.957 120.635 364.788 120.294 364.449 120.008C364.116 119.721 363.694 119.578 363.184 119.578C362.658 119.578 362.246 119.693 361.949 119.922C361.652 120.151 361.504 120.451 361.504 120.82C361.504 121.169 361.642 121.432 361.918 121.609C362.194 121.786 362.691 121.956 363.41 122.117C364.134 122.279 364.72 122.471 365.168 122.695C365.616 122.919 365.947 123.19 366.16 123.508C366.379 123.82 366.488 124.203 366.488 124.656C366.488 125.411 366.186 126.018 365.582 126.477C364.978 126.93 364.194 127.156 363.23 127.156C362.553 127.156 361.954 127.036 361.434 126.797C360.913 126.557 360.504 126.224 360.207 125.797C359.915 125.365 359.77 124.898 359.77 124.398H361.215C361.241 124.883 361.434 125.268 361.793 125.555C362.158 125.836 362.637 125.977 363.23 125.977C363.777 125.977 364.215 125.867 364.543 125.648C364.876 125.424 365.043 125.128 365.043 124.758ZM372.629 127.977H371.387L376.137 115.625H377.371L372.629 127.977ZM384.348 119.57C384.988 118.784 385.822 118.391 386.848 118.391C388.634 118.391 389.535 119.398 389.551 121.414V127H388.105V121.406C388.1 120.797 387.96 120.346 387.684 120.055C387.413 119.763 386.988 119.617 386.41 119.617C385.941 119.617 385.53 119.742 385.176 119.992C384.822 120.242 384.546 120.57 384.348 120.977V127H382.902V115H384.348V119.57ZM395.223 127.156C394.077 127.156 393.145 126.781 392.426 126.031C391.707 125.276 391.348 124.268 391.348 123.008V122.742C391.348 121.904 391.507 121.156 391.824 120.5C392.147 119.839 392.595 119.323 393.168 118.953C393.746 118.578 394.371 118.391 395.043 118.391C396.142 118.391 396.996 118.753 397.605 119.477C398.215 120.201 398.52 121.237 398.52 122.586V123.188H392.793C392.814 124.021 393.056 124.695 393.52 125.211C393.988 125.721 394.582 125.977 395.301 125.977C395.811 125.977 396.243 125.872 396.598 125.664C396.952 125.456 397.262 125.18 397.527 124.836L398.41 125.523C397.702 126.612 396.639 127.156 395.223 127.156ZM395.043 119.578C394.46 119.578 393.97 119.792 393.574 120.219C393.178 120.641 392.934 121.234 392.84 122H397.074V121.891C397.033 121.156 396.835 120.589 396.48 120.188C396.126 119.781 395.647 119.578 395.043 119.578ZM404.285 119.844C404.066 119.807 403.829 119.789 403.574 119.789C402.626 119.789 401.983 120.193 401.645 121V127H400.199V118.547H401.605L401.629 119.523C402.103 118.768 402.775 118.391 403.645 118.391C403.926 118.391 404.139 118.427 404.285 118.5V119.844ZM416.746 122.867C416.746 124.159 416.449 125.198 415.855 125.984C415.262 126.766 414.465 127.156 413.465 127.156C412.397 127.156 411.572 126.779 410.988 126.023L410.918 127H409.59V115H411.035V119.477C411.618 118.753 412.423 118.391 413.449 118.391C414.475 118.391 415.28 118.779 415.863 119.555C416.452 120.331 416.746 121.393 416.746 122.742V122.867ZM415.301 122.703C415.301 121.719 415.111 120.958 414.73 120.422C414.35 119.885 413.803 119.617 413.09 119.617C412.137 119.617 411.452 120.06 411.035 120.945V124.602C411.478 125.487 412.168 125.93 413.105 125.93C413.798 125.93 414.337 125.661 414.723 125.125C415.108 124.589 415.301 123.781 415.301 122.703ZM420.145 127H418.699V118.547H420.145V127ZM418.582 116.305C418.582 116.07 418.652 115.872 418.793 115.711C418.939 115.549 419.152 115.469 419.434 115.469C419.715 115.469 419.928 115.549 420.074 115.711C420.22 115.872 420.293 116.07 420.293 116.305C420.293 116.539 420.22 116.734 420.074 116.891C419.928 117.047 419.715 117.125 419.434 117.125C419.152 117.125 418.939 117.047 418.793 116.891C418.652 116.734 418.582 116.539 418.582 116.305ZM424.035 127H422.59V115H424.035V127ZM427.926 127H426.48V115H427.926V127Z" fill="#656668"/>
<path d="M38.1105 132.744H53.5025V130.312H42.4945C46.6225 126.952 52.8305 122.056 52.8305 116.296C52.8305 112.008 50.0145 109.448 45.6625 109.448C41.5025 109.448 38.3985 112.008 38.2065 116.936H41.0225C41.1505 114.024 42.6865 111.944 45.6945 111.944C48.8305 111.944 49.9505 113.864 49.9505 116.424C49.9505 121.16 44.1905 125.768 38.1105 130.664V132.744Z" fill="#656668"/>
<path d="M89.4023 209.391C89.2617 210.594 88.8164 211.523 88.0664 212.18C87.3216 212.831 86.3294 213.156 85.0898 213.156C83.7461 213.156 82.668 212.674 81.8555 211.711C81.0482 210.747 80.6445 209.458 80.6445 207.844V206.75C80.6445 205.693 80.832 204.763 81.207 203.961C81.5872 203.159 82.1237 202.544 82.8164 202.117C83.5091 201.685 84.3112 201.469 85.2227 201.469C86.431 201.469 87.3997 201.807 88.1289 202.484C88.8581 203.156 89.2826 204.089 89.4023 205.281H87.8945C87.7643 204.375 87.4805 203.719 87.043 203.312C86.6107 202.906 86.0039 202.703 85.2227 202.703C84.2643 202.703 83.5117 203.057 82.9648 203.766C82.4232 204.474 82.1523 205.482 82.1523 206.789V207.891C82.1523 209.125 82.4102 210.107 82.9258 210.836C83.4414 211.565 84.1628 211.93 85.0898 211.93C85.9232 211.93 86.5612 211.742 87.0039 211.367C87.4518 210.987 87.7487 210.328 87.8945 209.391H89.4023ZM90.8477 208.695C90.8477 207.867 91.0091 207.122 91.332 206.461C91.6602 205.799 92.1133 205.289 92.6914 204.93C93.2747 204.57 93.9388 204.391 94.6836 204.391C95.8346 204.391 96.7643 204.789 97.4727 205.586C98.1862 206.383 98.543 207.443 98.543 208.766V208.867C98.543 209.69 98.3841 210.43 98.0664 211.086C97.7539 211.737 97.3034 212.245 96.7148 212.609C96.1315 212.974 95.4596 213.156 94.6992 213.156C93.5534 213.156 92.6237 212.758 91.9102 211.961C91.2018 211.164 90.8477 210.109 90.8477 208.797V208.695ZM92.3008 208.867C92.3008 209.805 92.5169 210.557 92.9492 211.125C93.3867 211.693 93.9701 211.977 94.6992 211.977C95.4336 211.977 96.0169 211.69 96.4492 211.117C96.8815 210.539 97.0977 209.732 97.0977 208.695C97.0977 207.768 96.8763 207.018 96.4336 206.445C95.9961 205.867 95.4128 205.578 94.6836 205.578C93.9701 205.578 93.3945 205.862 92.957 206.43C92.5195 206.997 92.3008 207.81 92.3008 208.867ZM101.723 204.547L101.77 205.609C102.415 204.797 103.259 204.391 104.301 204.391C106.087 204.391 106.988 205.398 107.004 207.414V213H105.559V207.406C105.553 206.797 105.413 206.346 105.137 206.055C104.866 205.763 104.441 205.617 103.863 205.617C103.395 205.617 102.983 205.742 102.629 205.992C102.275 206.242 101.999 206.57 101.801 206.977V213H100.355V204.547H101.723ZM114.105 210.758C114.105 210.367 113.957 210.065 113.66 209.852C113.368 209.633 112.855 209.445 112.121 209.289C111.392 209.133 110.811 208.945 110.379 208.727C109.952 208.508 109.634 208.247 109.426 207.945C109.223 207.643 109.121 207.284 109.121 206.867C109.121 206.174 109.413 205.589 109.996 205.109C110.585 204.63 111.335 204.391 112.246 204.391C113.204 204.391 113.98 204.638 114.574 205.133C115.173 205.628 115.473 206.26 115.473 207.031H114.02C114.02 206.635 113.85 206.294 113.512 206.008C113.178 205.721 112.757 205.578 112.246 205.578C111.72 205.578 111.309 205.693 111.012 205.922C110.715 206.151 110.566 206.451 110.566 206.82C110.566 207.169 110.704 207.432 110.98 207.609C111.257 207.786 111.754 207.956 112.473 208.117C113.197 208.279 113.783 208.471 114.23 208.695C114.678 208.919 115.009 209.19 115.223 209.508C115.441 209.82 115.551 210.203 115.551 210.656C115.551 211.411 115.249 212.018 114.645 212.477C114.04 212.93 113.257 213.156 112.293 213.156C111.616 213.156 111.017 213.036 110.496 212.797C109.975 212.557 109.566 212.224 109.27 211.797C108.978 211.365 108.832 210.898 108.832 210.398H110.277C110.303 210.883 110.496 211.268 110.855 211.555C111.22 211.836 111.699 211.977 112.293 211.977C112.84 211.977 113.277 211.867 113.605 211.648C113.939 211.424 114.105 211.128 114.105 210.758ZM122.652 212.164C122.09 212.826 121.264 213.156 120.176 213.156C119.275 213.156 118.587 212.896 118.113 212.375C117.645 211.849 117.408 211.073 117.402 210.047V204.547H118.848V210.008C118.848 211.289 119.368 211.93 120.41 211.93C121.514 211.93 122.249 211.518 122.613 210.695V204.547H124.059V213H122.684L122.652 212.164ZM127.621 204.547L127.66 205.484C128.28 204.755 129.116 204.391 130.168 204.391C131.35 204.391 132.155 204.844 132.582 205.75C132.863 205.344 133.228 205.016 133.676 204.766C134.129 204.516 134.663 204.391 135.277 204.391C137.132 204.391 138.074 205.372 138.105 207.336V213H136.66V207.422C136.66 206.818 136.522 206.367 136.246 206.07C135.97 205.768 135.507 205.617 134.855 205.617C134.319 205.617 133.874 205.779 133.52 206.102C133.165 206.419 132.96 206.849 132.902 207.391V213H131.449V207.461C131.449 206.232 130.848 205.617 129.645 205.617C128.697 205.617 128.048 206.021 127.699 206.828V213H126.254V204.547H127.621ZM143.801 213.156C142.655 213.156 141.723 212.781 141.004 212.031C140.285 211.276 139.926 210.268 139.926 209.008V208.742C139.926 207.904 140.085 207.156 140.402 206.5C140.725 205.839 141.173 205.323 141.746 204.953C142.324 204.578 142.949 204.391 143.621 204.391C144.72 204.391 145.574 204.753 146.184 205.477C146.793 206.201 147.098 207.237 147.098 208.586V209.188H141.371C141.392 210.021 141.634 210.695 142.098 211.211C142.566 211.721 143.16 211.977 143.879 211.977C144.389 211.977 144.822 211.872 145.176 211.664C145.53 211.456 145.84 211.18 146.105 210.836L146.988 211.523C146.28 212.612 145.217 213.156 143.801 213.156ZM143.621 205.578C143.038 205.578 142.548 205.792 142.152 206.219C141.757 206.641 141.512 207.234 141.418 208H145.652V207.891C145.611 207.156 145.413 206.589 145.059 206.188C144.704 205.781 144.225 205.578 143.621 205.578ZM152.863 205.844C152.645 205.807 152.408 205.789 152.152 205.789C151.204 205.789 150.561 206.193 150.223 207V213H148.777V204.547H150.184L150.207 205.523C150.681 204.768 151.353 204.391 152.223 204.391C152.504 204.391 152.717 204.427 152.863 204.5V205.844ZM165.652 211.008L167.277 204.547H168.723L166.262 213H165.09L163.035 206.594L161.035 213H159.863L157.41 204.547H158.848L160.512 210.875L162.48 204.547H163.645L165.652 211.008ZM171.77 213H170.324V204.547H171.77V213ZM170.207 202.305C170.207 202.07 170.277 201.872 170.418 201.711C170.564 201.549 170.777 201.469 171.059 201.469C171.34 201.469 171.553 201.549 171.699 201.711C171.845 201.872 171.918 202.07 171.918 202.305C171.918 202.539 171.845 202.734 171.699 202.891C171.553 203.047 171.34 203.125 171.059 203.125C170.777 203.125 170.564 203.047 170.418 202.891C170.277 202.734 170.207 202.539 170.207 202.305ZM175.66 213H174.215V201H175.66V213ZM179.551 213H178.105V201H179.551V213ZM189.348 213.156C188.202 213.156 187.27 212.781 186.551 212.031C185.832 211.276 185.473 210.268 185.473 209.008V208.742C185.473 207.904 185.632 207.156 185.949 206.5C186.272 205.839 186.72 205.323 187.293 204.953C187.871 204.578 188.496 204.391 189.168 204.391C190.267 204.391 191.121 204.753 191.73 205.477C192.34 206.201 192.645 207.237 192.645 208.586V209.188H186.918C186.939 210.021 187.181 210.695 187.645 211.211C188.113 211.721 188.707 211.977 189.426 211.977C189.936 211.977 190.368 211.872 190.723 211.664C191.077 211.456 191.387 211.18 191.652 210.836L192.535 211.523C191.827 212.612 190.764 213.156 189.348 213.156ZM189.168 205.578C188.585 205.578 188.095 205.792 187.699 206.219C187.303 206.641 187.059 207.234 186.965 208H191.199V207.891C191.158 207.156 190.96 206.589 190.605 206.188C190.251 205.781 189.772 205.578 189.168 205.578ZM195.691 204.547L195.738 205.609C196.384 204.797 197.228 204.391 198.27 204.391C200.056 204.391 200.957 205.398 200.973 207.414V213H199.527V207.406C199.522 206.797 199.382 206.346 199.105 206.055C198.835 205.763 198.41 205.617 197.832 205.617C197.363 205.617 196.952 205.742 196.598 205.992C196.243 206.242 195.967 206.57 195.77 206.977V213H194.324V204.547H195.691ZM205.113 202.5V204.547H206.691V205.664H205.113V210.906C205.113 211.245 205.184 211.5 205.324 211.672C205.465 211.839 205.704 211.922 206.043 211.922C206.21 211.922 206.439 211.891 206.73 211.828V213C206.35 213.104 205.98 213.156 205.621 213.156C204.975 213.156 204.488 212.961 204.16 212.57C203.832 212.18 203.668 211.625 203.668 210.906V205.664H202.129V204.547H203.668V202.5H205.113ZM211.895 213.156C210.749 213.156 209.816 212.781 209.098 212.031C208.379 211.276 208.02 210.268 208.02 209.008V208.742C208.02 207.904 208.178 207.156 208.496 206.5C208.819 205.839 209.267 205.323 209.84 204.953C210.418 204.578 211.043 204.391 211.715 204.391C212.814 204.391 213.668 204.753 214.277 205.477C214.887 206.201 215.191 207.237 215.191 208.586V209.188H209.465C209.486 210.021 209.728 210.695 210.191 211.211C210.66 211.721 211.254 211.977 211.973 211.977C212.483 211.977 212.915 211.872 213.27 211.664C213.624 211.456 213.934 211.18 214.199 210.836L215.082 211.523C214.374 212.612 213.311 213.156 211.895 213.156ZM211.715 205.578C211.132 205.578 210.642 205.792 210.246 206.219C209.85 206.641 209.605 207.234 209.512 208H213.746V207.891C213.704 207.156 213.507 206.589 213.152 206.188C212.798 205.781 212.319 205.578 211.715 205.578ZM220.957 205.844C220.738 205.807 220.501 205.789 220.246 205.789C219.298 205.789 218.655 206.193 218.316 207V213H216.871V204.547H218.277L218.301 205.523C218.775 204.768 219.447 204.391 220.316 204.391C220.598 204.391 220.811 204.427 220.957 204.5V205.844ZM227.707 205.57C228.348 204.784 229.181 204.391 230.207 204.391C231.993 204.391 232.895 205.398 232.91 207.414V213H231.465V207.406C231.46 206.797 231.319 206.346 231.043 206.055C230.772 205.763 230.348 205.617 229.77 205.617C229.301 205.617 228.889 205.742 228.535 205.992C228.181 206.242 227.905 206.57 227.707 206.977V213H226.262V201H227.707V205.57ZM236.645 213H235.199V204.547H236.645V213ZM235.082 202.305C235.082 202.07 235.152 201.872 235.293 201.711C235.439 201.549 235.652 201.469 235.934 201.469C236.215 201.469 236.428 201.549 236.574 201.711C236.72 201.872 236.793 202.07 236.793 202.305C236.793 202.539 236.72 202.734 236.574 202.891C236.428 203.047 236.215 203.125 235.934 203.125C235.652 203.125 235.439 203.047 235.293 202.891C235.152 202.734 235.082 202.539 235.082 202.305ZM243.887 210.758C243.887 210.367 243.738 210.065 243.441 209.852C243.15 209.633 242.637 209.445 241.902 209.289C241.173 209.133 240.592 208.945 240.16 208.727C239.733 208.508 239.415 208.247 239.207 207.945C239.004 207.643 238.902 207.284 238.902 206.867C238.902 206.174 239.194 205.589 239.777 205.109C240.366 204.63 241.116 204.391 242.027 204.391C242.986 204.391 243.762 204.638 244.355 205.133C244.954 205.628 245.254 206.26 245.254 207.031H243.801C243.801 206.635 243.632 206.294 243.293 206.008C242.96 205.721 242.538 205.578 242.027 205.578C241.501 205.578 241.09 205.693 240.793 205.922C240.496 206.151 240.348 206.451 240.348 206.82C240.348 207.169 240.486 207.432 240.762 207.609C241.038 207.786 241.535 207.956 242.254 208.117C242.978 208.279 243.564 208.471 244.012 208.695C244.46 208.919 244.79 209.19 245.004 209.508C245.223 209.82 245.332 210.203 245.332 210.656C245.332 211.411 245.03 212.018 244.426 212.477C243.822 212.93 243.038 213.156 242.074 213.156C241.397 213.156 240.798 213.036 240.277 212.797C239.757 212.557 239.348 212.224 239.051 211.797C238.759 211.365 238.613 210.898 238.613 210.398H240.059C240.085 210.883 240.277 211.268 240.637 211.555C241.001 211.836 241.48 211.977 242.074 211.977C242.621 211.977 243.059 211.867 243.387 211.648C243.72 211.424 243.887 211.128 243.887 210.758ZM252.91 208.547V213H251.41V201.625H255.605C256.85 201.625 257.824 201.943 258.527 202.578C259.236 203.214 259.59 204.055 259.59 205.102C259.59 206.206 259.243 207.057 258.551 207.656C257.863 208.25 256.876 208.547 255.59 208.547H252.91ZM252.91 207.32H255.605C256.408 207.32 257.022 207.133 257.449 206.758C257.876 206.378 258.09 205.831 258.09 205.117C258.09 204.44 257.876 203.898 257.449 203.492C257.022 203.086 256.436 202.875 255.691 202.859H252.91V207.32ZM263.113 213H261.613V201.625H263.113V213ZM274.605 213H273.098L267.371 204.234V213H265.863V201.625H267.371L273.113 210.43V201.625H274.605V213Z" fill="#6654A4"/>
<path d="M37.4786 201.688H40.3266C40.6146 199.448 42.2466 197.912 44.9666 197.912C47.7506 197.912 49.2226 199.448 49.2226 201.656C49.2226 204.344 47.1426 205.528 43.2706 205.56H42.5026V207.992H43.2386C47.3986 207.992 49.6706 209.24 49.6706 212.504C49.6706 214.872 48.1986 216.696 45.0946 216.696C42.0226 216.696 40.2306 214.808 39.9426 212.344H37.1266C37.4786 216.824 40.7426 219.16 45.1266 219.16C49.9586 219.16 52.4546 216.344 52.4546 212.76C52.4546 209.432 50.6306 207.448 47.9426 206.808V206.648C50.3746 206.104 52.0386 204.024 52.0386 201.368C52.0386 198.04 49.5746 195.416 45.0626 195.416C40.7746 195.416 37.7666 197.72 37.4786 201.688Z" fill="#656668"/>
<g filter="url(#filter0_d)">
<rect x="19" y="255" width="556.56" height="75" rx="24" fill="white"/>
</g>
<path d="M82.5352 293.547V298H81.0352V286.625H85.2305C86.4753 286.625 87.4492 286.943 88.1523 287.578C88.8607 288.214 89.2148 289.055 89.2148 290.102C89.2148 291.206 88.8685 292.057 88.1758 292.656C87.4883 293.25 86.5013 293.547 85.2148 293.547H82.5352ZM82.5352 292.32H85.2305C86.0326 292.32 86.6471 292.133 87.0742 291.758C87.5013 291.378 87.7148 290.831 87.7148 290.117C87.7148 289.44 87.5013 288.898 87.0742 288.492C86.6471 288.086 86.0612 287.875 85.3164 287.859H82.5352V292.32ZM96.0273 298C95.944 297.833 95.8763 297.536 95.8242 297.109C95.1523 297.807 94.3503 298.156 93.418 298.156C92.5846 298.156 91.8997 297.922 91.3633 297.453C90.832 296.979 90.5664 296.38 90.5664 295.656C90.5664 294.776 90.8997 294.094 91.5664 293.609C92.2383 293.12 93.181 292.875 94.3945 292.875H95.8008V292.211C95.8008 291.706 95.6497 291.305 95.3477 291.008C95.0456 290.706 94.6003 290.555 94.0117 290.555C93.4961 290.555 93.0638 290.685 92.7148 290.945C92.3659 291.206 92.1914 291.521 92.1914 291.891H90.7383C90.7383 291.469 90.8867 291.062 91.1836 290.672C91.4857 290.276 91.8919 289.964 92.4023 289.734C92.918 289.505 93.4831 289.391 94.0977 289.391C95.0716 289.391 95.8346 289.635 96.3867 290.125C96.9388 290.609 97.2253 291.279 97.2461 292.133V296.023C97.2461 296.799 97.3451 297.417 97.543 297.875V298H96.0273ZM93.6289 296.898C94.082 296.898 94.5117 296.781 94.918 296.547C95.3242 296.312 95.6185 296.008 95.8008 295.633V293.898H94.668C92.8971 293.898 92.0117 294.417 92.0117 295.453C92.0117 295.906 92.1628 296.26 92.4648 296.516C92.7669 296.771 93.1549 296.898 93.6289 296.898ZM102.152 295.883L104.121 289.547H105.668L102.27 299.305C101.743 300.711 100.908 301.414 99.7617 301.414L99.4883 301.391L98.9492 301.289V300.117L99.3398 300.148C99.8294 300.148 100.21 300.049 100.48 299.852C100.757 299.654 100.983 299.292 101.16 298.766L101.48 297.906L98.4648 289.547H100.043L102.152 295.883ZM108.324 289.547L108.363 290.484C108.983 289.755 109.819 289.391 110.871 289.391C112.053 289.391 112.858 289.844 113.285 290.75C113.566 290.344 113.931 290.016 114.379 289.766C114.832 289.516 115.366 289.391 115.98 289.391C117.835 289.391 118.777 290.372 118.809 292.336V298H117.363V292.422C117.363 291.818 117.225 291.367 116.949 291.07C116.673 290.768 116.21 290.617 115.559 290.617C115.022 290.617 114.577 290.779 114.223 291.102C113.868 291.419 113.663 291.849 113.605 292.391V298H112.152V292.461C112.152 291.232 111.551 290.617 110.348 290.617C109.4 290.617 108.751 291.021 108.402 291.828V298H106.957V289.547H108.324ZM124.504 298.156C123.358 298.156 122.426 297.781 121.707 297.031C120.988 296.276 120.629 295.268 120.629 294.008V293.742C120.629 292.904 120.788 292.156 121.105 291.5C121.428 290.839 121.876 290.323 122.449 289.953C123.027 289.578 123.652 289.391 124.324 289.391C125.423 289.391 126.277 289.753 126.887 290.477C127.496 291.201 127.801 292.237 127.801 293.586V294.188H122.074C122.095 295.021 122.337 295.695 122.801 296.211C123.27 296.721 123.863 296.977 124.582 296.977C125.092 296.977 125.525 296.872 125.879 296.664C126.233 296.456 126.543 296.18 126.809 295.836L127.691 296.523C126.983 297.612 125.921 298.156 124.504 298.156ZM124.324 290.578C123.741 290.578 123.251 290.792 122.855 291.219C122.46 291.641 122.215 292.234 122.121 293H126.355V292.891C126.314 292.156 126.116 291.589 125.762 291.188C125.408 290.781 124.928 290.578 124.324 290.578ZM130.848 289.547L130.895 290.609C131.54 289.797 132.384 289.391 133.426 289.391C135.212 289.391 136.113 290.398 136.129 292.414V298H134.684V292.406C134.678 291.797 134.538 291.346 134.262 291.055C133.991 290.763 133.566 290.617 132.988 290.617C132.52 290.617 132.108 290.742 131.754 290.992C131.4 291.242 131.124 291.57 130.926 291.977V298H129.48V289.547H130.848ZM140.27 287.5V289.547H141.848V290.664H140.27V295.906C140.27 296.245 140.34 296.5 140.48 296.672C140.621 296.839 140.861 296.922 141.199 296.922C141.366 296.922 141.595 296.891 141.887 296.828V298C141.507 298.104 141.137 298.156 140.777 298.156C140.132 298.156 139.645 297.961 139.316 297.57C138.988 297.18 138.824 296.625 138.824 295.906V290.664H137.285V289.547H138.824V287.5H140.27ZM150.902 296.977C151.418 296.977 151.868 296.82 152.254 296.508C152.639 296.195 152.853 295.805 152.895 295.336H154.262C154.236 295.82 154.069 296.281 153.762 296.719C153.454 297.156 153.043 297.505 152.527 297.766C152.017 298.026 151.475 298.156 150.902 298.156C149.751 298.156 148.835 297.773 148.152 297.008C147.475 296.237 147.137 295.185 147.137 293.852V293.609C147.137 292.786 147.288 292.055 147.59 291.414C147.892 290.773 148.324 290.276 148.887 289.922C149.454 289.568 150.124 289.391 150.895 289.391C151.842 289.391 152.629 289.674 153.254 290.242C153.884 290.81 154.22 291.547 154.262 292.453H152.895C152.853 291.906 152.645 291.458 152.27 291.109C151.9 290.755 151.441 290.578 150.895 290.578C150.16 290.578 149.59 290.844 149.184 291.375C148.783 291.901 148.582 292.664 148.582 293.664V293.938C148.582 294.911 148.783 295.661 149.184 296.188C149.585 296.714 150.158 296.977 150.902 296.977ZM155.504 293.695C155.504 292.867 155.665 292.122 155.988 291.461C156.316 290.799 156.77 290.289 157.348 289.93C157.931 289.57 158.595 289.391 159.34 289.391C160.491 289.391 161.421 289.789 162.129 290.586C162.842 291.383 163.199 292.443 163.199 293.766V293.867C163.199 294.69 163.04 295.43 162.723 296.086C162.41 296.737 161.96 297.245 161.371 297.609C160.788 297.974 160.116 298.156 159.355 298.156C158.21 298.156 157.28 297.758 156.566 296.961C155.858 296.164 155.504 295.109 155.504 293.797V293.695ZM156.957 293.867C156.957 294.805 157.173 295.557 157.605 296.125C158.043 296.693 158.626 296.977 159.355 296.977C160.09 296.977 160.673 296.69 161.105 296.117C161.538 295.539 161.754 294.732 161.754 293.695C161.754 292.768 161.533 292.018 161.09 291.445C160.652 290.867 160.069 290.578 159.34 290.578C158.626 290.578 158.051 290.862 157.613 291.43C157.176 291.997 156.957 292.81 156.957 293.867ZM166.371 289.547L166.41 290.484C167.03 289.755 167.866 289.391 168.918 289.391C170.1 289.391 170.905 289.844 171.332 290.75C171.613 290.344 171.978 290.016 172.426 289.766C172.879 289.516 173.413 289.391 174.027 289.391C175.882 289.391 176.824 290.372 176.855 292.336V298H175.41V292.422C175.41 291.818 175.272 291.367 174.996 291.07C174.72 290.768 174.257 290.617 173.605 290.617C173.069 290.617 172.624 290.779 172.27 291.102C171.915 291.419 171.71 291.849 171.652 292.391V298H170.199V292.461C170.199 291.232 169.598 290.617 168.395 290.617C167.447 290.617 166.798 291.021 166.449 291.828V298H165.004V289.547H166.371ZM186.184 293.867C186.184 295.154 185.889 296.19 185.301 296.977C184.712 297.763 183.915 298.156 182.91 298.156C181.884 298.156 181.077 297.831 180.488 297.18V301.25H179.043V289.547H180.363L180.434 290.484C181.022 289.755 181.84 289.391 182.887 289.391C183.902 289.391 184.704 289.773 185.293 290.539C185.887 291.305 186.184 292.37 186.184 293.734V293.867ZM184.738 293.703C184.738 292.75 184.535 291.997 184.129 291.445C183.723 290.893 183.165 290.617 182.457 290.617C181.582 290.617 180.926 291.005 180.488 291.781V295.82C180.921 296.591 181.582 296.977 182.473 296.977C183.165 296.977 183.715 296.703 184.121 296.156C184.533 295.604 184.738 294.786 184.738 293.703ZM189.598 298H188.152V286H189.598V298ZM195.426 298.156C194.28 298.156 193.348 297.781 192.629 297.031C191.91 296.276 191.551 295.268 191.551 294.008V293.742C191.551 292.904 191.71 292.156 192.027 291.5C192.35 290.839 192.798 290.323 193.371 289.953C193.949 289.578 194.574 289.391 195.246 289.391C196.345 289.391 197.199 289.753 197.809 290.477C198.418 291.201 198.723 292.237 198.723 293.586V294.188H192.996C193.017 295.021 193.259 295.695 193.723 296.211C194.191 296.721 194.785 296.977 195.504 296.977C196.014 296.977 196.447 296.872 196.801 296.664C197.155 296.456 197.465 296.18 197.73 295.836L198.613 296.523C197.905 297.612 196.842 298.156 195.426 298.156ZM195.246 290.578C194.663 290.578 194.173 290.792 193.777 291.219C193.382 291.641 193.137 292.234 193.043 293H197.277V292.891C197.236 292.156 197.038 291.589 196.684 291.188C196.329 290.781 195.85 290.578 195.246 290.578ZM202.363 287.5V289.547H203.941V290.664H202.363V295.906C202.363 296.245 202.434 296.5 202.574 296.672C202.715 296.839 202.954 296.922 203.293 296.922C203.46 296.922 203.689 296.891 203.98 296.828V298C203.6 298.104 203.23 298.156 202.871 298.156C202.225 298.156 201.738 297.961 201.41 297.57C201.082 297.18 200.918 296.625 200.918 295.906V290.664H199.379V289.547H200.918V287.5H202.363ZM209.145 298.156C207.999 298.156 207.066 297.781 206.348 297.031C205.629 296.276 205.27 295.268 205.27 294.008V293.742C205.27 292.904 205.428 292.156 205.746 291.5C206.069 290.839 206.517 290.323 207.09 289.953C207.668 289.578 208.293 289.391 208.965 289.391C210.064 289.391 210.918 289.753 211.527 290.477C212.137 291.201 212.441 292.237 212.441 293.586V294.188H206.715C206.736 295.021 206.978 295.695 207.441 296.211C207.91 296.721 208.504 296.977 209.223 296.977C209.733 296.977 210.165 296.872 210.52 296.664C210.874 296.456 211.184 296.18 211.449 295.836L212.332 296.523C211.624 297.612 210.561 298.156 209.145 298.156ZM208.965 290.578C208.382 290.578 207.892 290.792 207.496 291.219C207.1 291.641 206.855 292.234 206.762 293H210.996V292.891C210.954 292.156 210.757 291.589 210.402 291.188C210.048 290.781 209.569 290.578 208.965 290.578Z" fill="#6654A4"/>
<path d="M47.7587 304H50.6387V298.848H53.8387V296.32H50.6387V281.088H47.1507L35.9187 296.64V298.848H47.7587V304ZM39.2787 296.32L47.8867 284.128V296.32H39.2787Z" fill="#6654A4"/>
<defs>
<filter id="filter0_d" x="0" y="239" width="594.56" height="113" filterUnits="userSpaceOnUse" color-interpolation-filters="sRGB">
<feFlood flood-opacity="0" result="BackgroundImageFix"/>
<feColorMatrix in="SourceAlpha" type="matrix" values="0 0 0 0 0 0 0 0 0 0 0 0 0 0 0 0 0 0 127 0"/>
<feMorphology radius="4" operator="dilate" in="SourceAlpha" result="effect1_dropShadow"/>
<feOffset dy="3"/>
<feGaussianBlur stdDeviation="7.5"/>
<feColorMatrix type="matrix" values="0 0 0 0 0.872109 0 0 0 0 0.853125 0 0 0 0 0.9375 0 0 0 0.5 0"/>
<feBlend mode="normal" in2="BackgroundImageFix" result="effect1_dropShadow"/>
<feBlend mode="normal" in="SourceGraphic" in2="effect1_dropShadow" result="shape"/>
</filter>
</defs>
</svg>
