<svg width="595" height="330" viewBox="0 0 595 330" fill="none" xmlns="http://www.w3.org/2000/svg">
<path d="M89.4033 38.3906C89.2627 39.5938 88.8174 40.5234 88.0674 41.1797C87.3226 41.8307 86.3304 42.1562 85.0908 42.1562C83.7471 42.1562 82.6689 41.6745 81.8564 40.7109C81.0492 39.7474 80.6455 38.4583 80.6455 36.8438V35.75C80.6455 34.6927 80.833 33.763 81.208 32.9609C81.5882 32.1589 82.1247 31.5443 82.8174 31.1172C83.5101 30.6849 84.3122 30.4688 85.2236 30.4688C86.432 30.4688 87.4007 30.8073 88.1299 31.4844C88.859 32.1562 89.2835 33.0885 89.4033 34.2812H87.8955C87.7653 33.375 87.4814 32.7188 87.0439 32.3125C86.6117 31.9062 86.0049 31.7031 85.2236 31.7031C84.2653 31.7031 83.5127 32.0573 82.9658 32.7656C82.4242 33.474 82.1533 34.4818 82.1533 35.7891V36.8906C82.1533 38.125 82.4111 39.1068 82.9268 39.8359C83.4424 40.5651 84.1637 40.9297 85.0908 40.9297C85.9242 40.9297 86.5622 40.7422 87.0049 40.3672C87.4528 39.987 87.7497 39.3281 87.8955 38.3906H89.4033ZM90.8486 37.6953C90.8486 36.8672 91.0101 36.1224 91.333 35.4609C91.6611 34.7995 92.1143 34.2891 92.6924 33.9297C93.2757 33.5703 93.9398 33.3906 94.6846 33.3906C95.8356 33.3906 96.7653 33.7891 97.4736 34.5859C98.1872 35.3828 98.5439 36.4427 98.5439 37.7656V37.8672C98.5439 38.6901 98.3851 39.4297 98.0674 40.0859C97.7549 40.737 97.3044 41.2448 96.7158 41.6094C96.1325 41.974 95.4606 42.1562 94.7002 42.1562C93.5544 42.1562 92.6247 41.7578 91.9111 40.9609C91.2028 40.1641 90.8486 39.1094 90.8486 37.7969V37.6953ZM92.3018 37.8672C92.3018 38.8047 92.5179 39.5573 92.9502 40.125C93.3877 40.6927 93.971 40.9766 94.7002 40.9766C95.4346 40.9766 96.0179 40.6901 96.4502 40.1172C96.8825 39.5391 97.0986 38.7318 97.0986 37.6953C97.0986 36.7682 96.8773 36.0182 96.4346 35.4453C95.9971 34.8672 95.4137 34.5781 94.6846 34.5781C93.971 34.5781 93.3955 34.862 92.958 35.4297C92.5205 35.9974 92.3018 36.8099 92.3018 37.8672ZM101.724 33.5469L101.771 34.6094C102.416 33.7969 103.26 33.3906 104.302 33.3906C106.088 33.3906 106.989 34.3984 107.005 36.4141V42H105.56V36.4062C105.554 35.7969 105.414 35.3464 105.138 35.0547C104.867 34.763 104.442 34.6172 103.864 34.6172C103.396 34.6172 102.984 34.7422 102.63 34.9922C102.276 35.2422 102 35.5703 101.802 35.9766V42H100.356V33.5469H101.724ZM114.106 39.7578C114.106 39.3672 113.958 39.0651 113.661 38.8516C113.369 38.6328 112.856 38.4453 112.122 38.2891C111.393 38.1328 110.812 37.9453 110.38 37.7266C109.953 37.5078 109.635 37.2474 109.427 36.9453C109.224 36.6432 109.122 36.2839 109.122 35.8672C109.122 35.1745 109.414 34.5885 109.997 34.1094C110.586 33.6302 111.336 33.3906 112.247 33.3906C113.205 33.3906 113.981 33.638 114.575 34.1328C115.174 34.6276 115.474 35.2604 115.474 36.0312H114.021C114.021 35.6354 113.851 35.2943 113.513 35.0078C113.179 34.7214 112.757 34.5781 112.247 34.5781C111.721 34.5781 111.31 34.6927 111.013 34.9219C110.716 35.151 110.567 35.4505 110.567 35.8203C110.567 36.1693 110.705 36.4323 110.981 36.6094C111.257 36.7865 111.755 36.9557 112.474 37.1172C113.198 37.2786 113.784 37.4714 114.231 37.6953C114.679 37.9193 115.01 38.1901 115.224 38.5078C115.442 38.8203 115.552 39.2031 115.552 39.6562C115.552 40.4115 115.25 41.0182 114.646 41.4766C114.041 41.9297 113.257 42.1562 112.294 42.1562C111.617 42.1562 111.018 42.0365 110.497 41.7969C109.976 41.5573 109.567 41.224 109.271 40.7969C108.979 40.3646 108.833 39.8984 108.833 39.3984H110.278C110.304 39.8828 110.497 40.2682 110.856 40.5547C111.221 40.8359 111.7 40.9766 112.294 40.9766C112.841 40.9766 113.278 40.8672 113.606 40.6484C113.94 40.4245 114.106 40.1276 114.106 39.7578ZM122.653 41.1641C122.091 41.8255 121.265 42.1562 120.177 42.1562C119.276 42.1562 118.588 41.8958 118.114 41.375C117.646 40.849 117.409 40.0729 117.403 39.0469V33.5469H118.849V39.0078C118.849 40.2891 119.369 40.9297 120.411 40.9297C121.515 40.9297 122.25 40.5182 122.614 39.6953V33.5469H124.06V42H122.685L122.653 41.1641ZM127.622 33.5469L127.661 34.4844C128.281 33.7552 129.117 33.3906 130.169 33.3906C131.351 33.3906 132.156 33.8438 132.583 34.75C132.864 34.3438 133.229 34.0156 133.677 33.7656C134.13 33.5156 134.664 33.3906 135.278 33.3906C137.132 33.3906 138.075 34.3724 138.106 36.3359V42H136.661V36.4219C136.661 35.8177 136.523 35.3672 136.247 35.0703C135.971 34.7682 135.507 34.6172 134.856 34.6172C134.32 34.6172 133.875 34.7786 133.521 35.1016C133.166 35.4193 132.961 35.849 132.903 36.3906V42H131.45V36.4609C131.45 35.2318 130.849 34.6172 129.646 34.6172C128.698 34.6172 128.049 35.0208 127.7 35.8281V42H126.255V33.5469H127.622ZM143.802 42.1562C142.656 42.1562 141.724 41.7812 141.005 41.0312C140.286 40.276 139.927 39.2682 139.927 38.0078V37.7422C139.927 36.9036 140.086 36.1562 140.403 35.5C140.726 34.8385 141.174 34.3229 141.747 33.9531C142.325 33.5781 142.95 33.3906 143.622 33.3906C144.721 33.3906 145.575 33.7526 146.185 34.4766C146.794 35.2005 147.099 36.237 147.099 37.5859V38.1875H141.372C141.393 39.0208 141.635 39.6953 142.099 40.2109C142.567 40.7214 143.161 40.9766 143.88 40.9766C144.39 40.9766 144.823 40.8724 145.177 40.6641C145.531 40.4557 145.841 40.1797 146.106 39.8359L146.989 40.5234C146.281 41.612 145.218 42.1562 143.802 42.1562ZM143.622 34.5781C143.039 34.5781 142.549 34.7917 142.153 35.2188C141.757 35.6406 141.513 36.2344 141.419 37H145.653V36.8906C145.612 36.1562 145.414 35.5885 145.06 35.1875C144.705 34.7812 144.226 34.5781 143.622 34.5781ZM152.864 34.8438C152.646 34.8073 152.409 34.7891 152.153 34.7891C151.205 34.7891 150.562 35.1927 150.224 36V42H148.778V33.5469H150.185L150.208 34.5234C150.682 33.7682 151.354 33.3906 152.224 33.3906C152.505 33.3906 152.718 33.4271 152.864 33.5V34.8438ZM165.653 40.0078L167.278 33.5469H168.724L166.263 42H165.091L163.036 35.5938L161.036 42H159.864L157.411 33.5469H158.849L160.513 39.875L162.481 33.5469H163.646L165.653 40.0078ZM171.771 42H170.325V33.5469H171.771V42ZM170.208 31.3047C170.208 31.0703 170.278 30.8724 170.419 30.7109C170.565 30.5495 170.778 30.4688 171.06 30.4688C171.341 30.4688 171.554 30.5495 171.7 30.7109C171.846 30.8724 171.919 31.0703 171.919 31.3047C171.919 31.5391 171.846 31.7344 171.7 31.8906C171.554 32.0469 171.341 32.125 171.06 32.125C170.778 32.125 170.565 32.0469 170.419 31.8906C170.278 31.7344 170.208 31.5391 170.208 31.3047ZM175.661 42H174.216V30H175.661V42ZM179.552 42H178.106V30H179.552V42ZM190.763 39.7578C190.763 39.3672 190.614 39.0651 190.317 38.8516C190.026 38.6328 189.513 38.4453 188.778 38.2891C188.049 38.1328 187.468 37.9453 187.036 37.7266C186.609 37.5078 186.291 37.2474 186.083 36.9453C185.88 36.6432 185.778 36.2839 185.778 35.8672C185.778 35.1745 186.07 34.5885 186.653 34.1094C187.242 33.6302 187.992 33.3906 188.903 33.3906C189.862 33.3906 190.638 33.638 191.231 34.1328C191.83 34.6276 192.13 35.2604 192.13 36.0312H190.677C190.677 35.6354 190.507 35.2943 190.169 35.0078C189.836 34.7214 189.414 34.5781 188.903 34.5781C188.377 34.5781 187.966 34.6927 187.669 34.9219C187.372 35.151 187.224 35.4505 187.224 35.8203C187.224 36.1693 187.362 36.4323 187.638 36.6094C187.914 36.7865 188.411 36.9557 189.13 37.1172C189.854 37.2786 190.44 37.4714 190.888 37.6953C191.336 37.9193 191.666 38.1901 191.88 38.5078C192.099 38.8203 192.208 39.2031 192.208 39.6562C192.208 40.4115 191.906 41.0182 191.302 41.4766C190.698 41.9297 189.914 42.1562 188.95 42.1562C188.273 42.1562 187.674 42.0365 187.153 41.7969C186.632 41.5573 186.224 41.224 185.927 40.7969C185.635 40.3646 185.489 39.8984 185.489 39.3984H186.935C186.961 39.8828 187.153 40.2682 187.513 40.5547C187.877 40.8359 188.356 40.9766 188.95 40.9766C189.497 40.9766 189.935 40.8672 190.263 40.6484C190.596 40.4245 190.763 40.1276 190.763 39.7578ZM197.481 40.9766C197.997 40.9766 198.448 40.8203 198.833 40.5078C199.218 40.1953 199.432 39.8047 199.474 39.3359H200.841C200.815 39.8203 200.648 40.2812 200.341 40.7188C200.034 41.1562 199.622 41.5052 199.106 41.7656C198.596 42.026 198.054 42.1562 197.481 42.1562C196.33 42.1562 195.414 41.7734 194.731 41.0078C194.054 40.237 193.716 39.1849 193.716 37.8516V37.6094C193.716 36.7865 193.867 36.0547 194.169 35.4141C194.471 34.7734 194.903 34.276 195.466 33.9219C196.034 33.5677 196.703 33.3906 197.474 33.3906C198.422 33.3906 199.208 33.6745 199.833 34.2422C200.463 34.8099 200.799 35.5469 200.841 36.4531H199.474C199.432 35.9062 199.224 35.4583 198.849 35.1094C198.479 34.7552 198.021 34.5781 197.474 34.5781C196.739 34.5781 196.169 34.8438 195.763 35.375C195.362 35.901 195.161 36.6641 195.161 37.6641V37.9375C195.161 38.9115 195.362 39.6615 195.763 40.1875C196.164 40.7135 196.737 40.9766 197.481 40.9766ZM207.685 42C207.601 41.8333 207.534 41.5365 207.481 41.1094C206.81 41.8073 206.007 42.1562 205.075 42.1562C204.242 42.1562 203.557 41.9219 203.021 41.4531C202.489 40.9792 202.224 40.3802 202.224 39.6562C202.224 38.776 202.557 38.0938 203.224 37.6094C203.896 37.1198 204.838 36.875 206.052 36.875H207.458V36.2109C207.458 35.7057 207.307 35.3047 207.005 35.0078C206.703 34.7057 206.257 34.5547 205.669 34.5547C205.153 34.5547 204.721 34.6849 204.372 34.9453C204.023 35.2057 203.849 35.5208 203.849 35.8906H202.396C202.396 35.4688 202.544 35.0625 202.841 34.6719C203.143 34.276 203.549 33.9635 204.06 33.7344C204.575 33.5052 205.14 33.3906 205.755 33.3906C206.729 33.3906 207.492 33.6354 208.044 34.125C208.596 34.6094 208.882 35.2786 208.903 36.1328V40.0234C208.903 40.7995 209.002 41.4167 209.2 41.875V42H207.685ZM205.286 40.8984C205.739 40.8984 206.169 40.7812 206.575 40.5469C206.981 40.3125 207.276 40.0078 207.458 39.6328V37.8984H206.325C204.554 37.8984 203.669 38.4167 203.669 39.4531C203.669 39.9062 203.82 40.2604 204.122 40.5156C204.424 40.7708 204.812 40.8984 205.286 40.8984ZM212.536 33.5469L212.583 34.6094C213.229 33.7969 214.073 33.3906 215.114 33.3906C216.901 33.3906 217.802 34.3984 217.817 36.4141V42H216.372V36.4062C216.367 35.7969 216.226 35.3464 215.95 35.0547C215.679 34.763 215.255 34.6172 214.677 34.6172C214.208 34.6172 213.797 34.7422 213.442 34.9922C213.088 35.2422 212.812 35.5703 212.614 35.9766V42H211.169V33.5469H212.536ZM232.88 36.6797C232.88 37.7786 232.705 38.7266 232.356 39.5234C232.007 40.3151 231.518 40.9349 230.888 41.3828L232.919 42.9766L231.896 43.9219L229.497 42.0156C229.122 42.1094 228.726 42.1562 228.31 42.1562C227.414 42.1562 226.619 41.9375 225.927 41.5C225.234 41.0573 224.695 40.4297 224.31 39.6172C223.929 38.7995 223.734 37.8542 223.724 36.7812V35.9609C223.724 34.8672 223.914 33.901 224.294 33.0625C224.674 32.224 225.211 31.5833 225.903 31.1406C226.601 30.6927 227.398 30.4688 228.294 30.4688C229.211 30.4688 230.015 30.6901 230.708 31.1328C231.406 31.5755 231.942 32.2135 232.317 33.0469C232.692 33.875 232.88 34.8438 232.88 35.9531V36.6797ZM231.38 35.9453C231.38 34.6068 231.112 33.5755 230.575 32.8516C230.044 32.1224 229.284 31.7578 228.294 31.7578C227.351 31.7578 226.606 32.1198 226.06 32.8438C225.518 33.5625 225.239 34.5625 225.224 35.8438V36.6797C225.224 37.9818 225.494 39.0078 226.036 39.7578C226.583 40.5078 227.341 40.8828 228.31 40.8828C229.278 40.8828 230.028 40.5312 230.56 39.8281C231.091 39.1198 231.364 38.1068 231.38 36.7891V35.9453ZM239.364 37.3984H236.692V42H235.185V30.625H238.95C240.231 30.625 241.216 30.9167 241.903 31.5C242.596 32.0833 242.942 32.9323 242.942 34.0469C242.942 34.7552 242.75 35.3724 242.364 35.8984C241.984 36.4245 241.453 36.8177 240.771 37.0781L243.442 41.9062V42H241.833L239.364 37.3984ZM236.692 36.1719H238.997C239.742 36.1719 240.333 35.9792 240.771 35.5938C241.213 35.2083 241.435 34.6927 241.435 34.0469C241.435 33.3438 241.224 32.8047 240.802 32.4297C240.385 32.0547 239.781 31.8646 238.989 31.8594H236.692V36.1719ZM252.185 40.9766C252.7 40.9766 253.151 40.8203 253.536 40.5078C253.922 40.1953 254.135 39.8047 254.177 39.3359H255.544C255.518 39.8203 255.351 40.2812 255.044 40.7188C254.737 41.1562 254.325 41.5052 253.81 41.7656C253.299 42.026 252.757 42.1562 252.185 42.1562C251.034 42.1562 250.117 41.7734 249.435 41.0078C248.757 40.237 248.419 39.1849 248.419 37.8516V37.6094C248.419 36.7865 248.57 36.0547 248.872 35.4141C249.174 34.7734 249.606 34.276 250.169 33.9219C250.737 33.5677 251.406 33.3906 252.177 33.3906C253.125 33.3906 253.911 33.6745 254.536 34.2422C255.166 34.8099 255.502 35.5469 255.544 36.4531H254.177C254.135 35.9062 253.927 35.4583 253.552 35.1094C253.182 34.7552 252.724 34.5781 252.177 34.5781C251.442 34.5781 250.872 34.8438 250.466 35.375C250.065 35.901 249.864 36.6641 249.864 37.6641V37.9375C249.864 38.9115 250.065 39.6615 250.466 40.1875C250.867 40.7135 251.44 40.9766 252.185 40.9766ZM256.786 37.6953C256.786 36.8672 256.948 36.1224 257.271 35.4609C257.599 34.7995 258.052 34.2891 258.63 33.9297C259.213 33.5703 259.877 33.3906 260.622 33.3906C261.773 33.3906 262.703 33.7891 263.411 34.5859C264.125 35.3828 264.481 36.4427 264.481 37.7656V37.8672C264.481 38.6901 264.323 39.4297 264.005 40.0859C263.692 40.737 263.242 41.2448 262.653 41.6094C262.07 41.974 261.398 42.1562 260.638 42.1562C259.492 42.1562 258.562 41.7578 257.849 40.9609C257.14 40.1641 256.786 39.1094 256.786 37.7969V37.6953ZM258.239 37.8672C258.239 38.8047 258.455 39.5573 258.888 40.125C259.325 40.6927 259.909 40.9766 260.638 40.9766C261.372 40.9766 261.955 40.6901 262.388 40.1172C262.82 39.5391 263.036 38.7318 263.036 37.6953C263.036 36.7682 262.815 36.0182 262.372 35.4453C261.935 34.8672 261.351 34.5781 260.622 34.5781C259.909 34.5781 259.333 34.862 258.896 35.4297C258.458 35.9974 258.239 36.8099 258.239 37.8672ZM265.942 37.7031C265.942 36.4062 266.25 35.3646 266.864 34.5781C267.479 33.7865 268.284 33.3906 269.278 33.3906C270.268 33.3906 271.052 33.7292 271.63 34.4062V30H273.075V42H271.747L271.677 41.0938C271.099 41.8021 270.294 42.1562 269.263 42.1562C268.284 42.1562 267.484 41.7552 266.864 40.9531C266.25 40.151 265.942 39.1042 265.942 37.8125V37.7031ZM267.388 37.8672C267.388 38.8255 267.586 39.5755 267.981 40.1172C268.377 40.6589 268.924 40.9297 269.622 40.9297C270.539 40.9297 271.208 40.5182 271.63 39.6953V35.8125C271.198 35.0156 270.534 34.6172 269.638 34.6172C268.929 34.6172 268.377 34.8906 267.981 35.4375C267.586 35.9844 267.388 36.7943 267.388 37.8672ZM278.833 42.1562C277.687 42.1562 276.755 41.7812 276.036 41.0312C275.317 40.276 274.958 39.2682 274.958 38.0078V37.7422C274.958 36.9036 275.117 36.1562 275.435 35.5C275.757 34.8385 276.205 34.3229 276.778 33.9531C277.356 33.5781 277.981 33.3906 278.653 33.3906C279.752 33.3906 280.606 33.7526 281.216 34.4766C281.825 35.2005 282.13 36.237 282.13 37.5859V38.1875H276.403C276.424 39.0208 276.666 39.6953 277.13 40.2109C277.599 40.7214 278.192 40.9766 278.911 40.9766C279.422 40.9766 279.854 40.8724 280.208 40.6641C280.562 40.4557 280.872 40.1797 281.138 39.8359L282.021 40.5234C281.312 41.612 280.25 42.1562 278.833 42.1562ZM278.653 34.5781C278.07 34.5781 277.58 34.7917 277.185 35.2188C276.789 35.6406 276.544 36.2344 276.45 37H280.685V36.8906C280.643 36.1562 280.445 35.5885 280.091 35.1875C279.737 34.7812 279.257 34.5781 278.653 34.5781ZM292.997 42C292.914 41.8333 292.846 41.5365 292.794 41.1094C292.122 41.8073 291.32 42.1562 290.388 42.1562C289.554 42.1562 288.869 41.9219 288.333 41.4531C287.802 40.9792 287.536 40.3802 287.536 39.6562C287.536 38.776 287.869 38.0938 288.536 37.6094C289.208 37.1198 290.151 36.875 291.364 36.875H292.771V36.2109C292.771 35.7057 292.619 35.3047 292.317 35.0078C292.015 34.7057 291.57 34.5547 290.981 34.5547C290.466 34.5547 290.034 34.6849 289.685 34.9453C289.336 35.2057 289.161 35.5208 289.161 35.8906H287.708C287.708 35.4688 287.856 35.0625 288.153 34.6719C288.455 34.276 288.862 33.9635 289.372 33.7344C289.888 33.5052 290.453 33.3906 291.067 33.3906C292.041 33.3906 292.804 33.6354 293.356 34.125C293.909 34.6094 294.195 35.2786 294.216 36.1328V40.0234C294.216 40.7995 294.315 41.4167 294.513 41.875V42H292.997ZM290.599 40.8984C291.052 40.8984 291.481 40.7812 291.888 40.5469C292.294 40.3125 292.588 40.0078 292.771 39.6328V37.8984H291.638C289.867 37.8984 288.981 38.4167 288.981 39.4531C288.981 39.9062 289.132 40.2604 289.435 40.5156C289.737 40.7708 290.125 40.8984 290.599 40.8984ZM297.849 33.5469L297.896 34.6094C298.541 33.7969 299.385 33.3906 300.427 33.3906C302.213 33.3906 303.114 34.3984 303.13 36.4141V42H301.685V36.4062C301.679 35.7969 301.539 35.3464 301.263 35.0547C300.992 34.763 300.567 34.6172 299.989 34.6172C299.521 34.6172 299.109 34.7422 298.755 34.9922C298.401 35.2422 298.125 35.5703 297.927 35.9766V42H296.481V33.5469H297.849ZM304.958 37.7031C304.958 36.4062 305.265 35.3646 305.88 34.5781C306.494 33.7865 307.299 33.3906 308.294 33.3906C309.284 33.3906 310.067 33.7292 310.646 34.4062V30H312.091V42H310.763L310.692 41.0938C310.114 41.8021 309.31 42.1562 308.278 42.1562C307.299 42.1562 306.5 41.7552 305.88 40.9531C305.265 40.151 304.958 39.1042 304.958 37.8125V37.7031ZM306.403 37.8672C306.403 38.8255 306.601 39.5755 306.997 40.1172C307.393 40.6589 307.94 40.9297 308.638 40.9297C309.554 40.9297 310.224 40.5182 310.646 39.6953V35.8125C310.213 35.0156 309.549 34.6172 308.653 34.6172C307.945 34.6172 307.393 34.8906 306.997 35.4375C306.601 35.9844 306.403 36.7943 306.403 37.8672ZM325.45 37.8672C325.45 39.1536 325.156 40.1901 324.567 40.9766C323.979 41.763 323.182 42.1562 322.177 42.1562C321.151 42.1562 320.343 41.8307 319.755 41.1797V45.25H318.31V33.5469H319.63L319.7 34.4844C320.289 33.7552 321.106 33.3906 322.153 33.3906C323.169 33.3906 323.971 33.7734 324.56 34.5391C325.153 35.3047 325.45 36.3698 325.45 37.7344V37.8672ZM324.005 37.7031C324.005 36.75 323.802 35.9974 323.396 35.4453C322.989 34.8932 322.432 34.6172 321.724 34.6172C320.849 34.6172 320.192 35.0052 319.755 35.7812V39.8203C320.187 40.5911 320.849 40.9766 321.739 40.9766C322.432 40.9766 322.981 40.7031 323.388 40.1562C323.799 39.6042 324.005 38.7865 324.005 37.7031ZM332.513 42C332.429 41.8333 332.362 41.5365 332.31 41.1094C331.638 41.8073 330.836 42.1562 329.903 42.1562C329.07 42.1562 328.385 41.9219 327.849 41.4531C327.317 40.9792 327.052 40.3802 327.052 39.6562C327.052 38.776 327.385 38.0938 328.052 37.6094C328.724 37.1198 329.666 36.875 330.88 36.875H332.286V36.2109C332.286 35.7057 332.135 35.3047 331.833 35.0078C331.531 34.7057 331.086 34.5547 330.497 34.5547C329.981 34.5547 329.549 34.6849 329.2 34.9453C328.851 35.2057 328.677 35.5208 328.677 35.8906H327.224C327.224 35.4688 327.372 35.0625 327.669 34.6719C327.971 34.276 328.377 33.9635 328.888 33.7344C329.403 33.5052 329.968 33.3906 330.583 33.3906C331.557 33.3906 332.32 33.6354 332.872 34.125C333.424 34.6094 333.711 35.2786 333.731 36.1328V40.0234C333.731 40.7995 333.83 41.4167 334.028 41.875V42H332.513ZM330.114 40.8984C330.567 40.8984 330.997 40.7812 331.403 40.5469C331.81 40.3125 332.104 40.0078 332.286 39.6328V37.8984H331.153C329.382 37.8984 328.497 38.4167 328.497 39.4531C328.497 39.9062 328.648 40.2604 328.95 40.5156C329.252 40.7708 329.64 40.8984 330.114 40.8984ZM338.638 39.8828L340.606 33.5469H342.153L338.755 43.3047C338.229 44.7109 337.393 45.4141 336.247 45.4141L335.974 45.3906L335.435 45.2891V44.1172L335.825 44.1484C336.315 44.1484 336.695 44.0495 336.966 43.8516C337.242 43.6536 337.468 43.2917 337.646 42.7656L337.966 41.9062L334.95 33.5469H336.528L338.638 39.8828ZM348.864 34.5703C349.505 33.7839 350.338 33.3906 351.364 33.3906C353.151 33.3906 354.052 34.3984 354.067 36.4141V42H352.622V36.4062C352.617 35.7969 352.476 35.3464 352.2 35.0547C351.929 34.763 351.505 34.6172 350.927 34.6172C350.458 34.6172 350.047 34.7422 349.692 34.9922C349.338 35.2422 349.062 35.5703 348.864 35.9766V42H347.419V30H348.864V34.5703ZM357.802 42H356.356V33.5469H357.802V42ZM356.239 31.3047C356.239 31.0703 356.31 30.8724 356.45 30.7109C356.596 30.5495 356.81 30.4688 357.091 30.4688C357.372 30.4688 357.586 30.5495 357.731 30.7109C357.877 30.8724 357.95 31.0703 357.95 31.3047C357.95 31.5391 357.877 31.7344 357.731 31.8906C357.586 32.0469 357.372 32.125 357.091 32.125C356.81 32.125 356.596 32.0469 356.45 31.8906C356.31 31.7344 356.239 31.5391 356.239 31.3047ZM365.044 39.7578C365.044 39.3672 364.896 39.0651 364.599 38.8516C364.307 38.6328 363.794 38.4453 363.06 38.2891C362.33 38.1328 361.75 37.9453 361.317 37.7266C360.89 37.5078 360.573 37.2474 360.364 36.9453C360.161 36.6432 360.06 36.2839 360.06 35.8672C360.06 35.1745 360.351 34.5885 360.935 34.1094C361.523 33.6302 362.273 33.3906 363.185 33.3906C364.143 33.3906 364.919 33.638 365.513 34.1328C366.112 34.6276 366.411 35.2604 366.411 36.0312H364.958C364.958 35.6354 364.789 35.2943 364.45 35.0078C364.117 34.7214 363.695 34.5781 363.185 34.5781C362.659 34.5781 362.247 34.6927 361.95 34.9219C361.653 35.151 361.505 35.4505 361.505 35.8203C361.505 36.1693 361.643 36.4323 361.919 36.6094C362.195 36.7865 362.692 36.9557 363.411 37.1172C364.135 37.2786 364.721 37.4714 365.169 37.6953C365.617 37.9193 365.948 38.1901 366.161 38.5078C366.38 38.8203 366.489 39.2031 366.489 39.6562C366.489 40.4115 366.187 41.0182 365.583 41.4766C364.979 41.9297 364.195 42.1562 363.231 42.1562C362.554 42.1562 361.955 42.0365 361.435 41.7969C360.914 41.5573 360.505 41.224 360.208 40.7969C359.916 40.3646 359.771 39.8984 359.771 39.3984H361.216C361.242 39.8828 361.435 40.2682 361.794 40.5547C362.159 40.8359 362.638 40.9766 363.231 40.9766C363.778 40.9766 364.216 40.8672 364.544 40.6484C364.877 40.4245 365.044 40.1276 365.044 39.7578ZM372.63 42.9766H371.388L376.138 30.625H377.372L372.63 42.9766ZM384.349 34.5703C384.989 33.7839 385.823 33.3906 386.849 33.3906C388.635 33.3906 389.536 34.3984 389.552 36.4141V42H388.106V36.4062C388.101 35.7969 387.961 35.3464 387.685 35.0547C387.414 34.763 386.989 34.6172 386.411 34.6172C385.942 34.6172 385.531 34.7422 385.177 34.9922C384.823 35.2422 384.547 35.5703 384.349 35.9766V42H382.903V30H384.349V34.5703ZM395.224 42.1562C394.078 42.1562 393.146 41.7812 392.427 41.0312C391.708 40.276 391.349 39.2682 391.349 38.0078V37.7422C391.349 36.9036 391.507 36.1562 391.825 35.5C392.148 34.8385 392.596 34.3229 393.169 33.9531C393.747 33.5781 394.372 33.3906 395.044 33.3906C396.143 33.3906 396.997 33.7526 397.606 34.4766C398.216 35.2005 398.521 36.237 398.521 37.5859V38.1875H392.794C392.815 39.0208 393.057 39.6953 393.521 40.2109C393.989 40.7214 394.583 40.9766 395.302 40.9766C395.812 40.9766 396.244 40.8724 396.599 40.6641C396.953 40.4557 397.263 40.1797 397.528 39.8359L398.411 40.5234C397.703 41.612 396.64 42.1562 395.224 42.1562ZM395.044 34.5781C394.461 34.5781 393.971 34.7917 393.575 35.2188C393.179 35.6406 392.935 36.2344 392.841 37H397.075V36.8906C397.034 36.1562 396.836 35.5885 396.481 35.1875C396.127 34.7812 395.648 34.5781 395.044 34.5781ZM404.286 34.8438C404.067 34.8073 403.83 34.7891 403.575 34.7891C402.627 34.7891 401.984 35.1927 401.646 36V42H400.2V33.5469H401.606L401.63 34.5234C402.104 33.7682 402.776 33.3906 403.646 33.3906C403.927 33.3906 404.14 33.4271 404.286 33.5V34.8438ZM416.747 37.8672C416.747 39.1589 416.45 40.1979 415.856 40.9844C415.263 41.7656 414.466 42.1562 413.466 42.1562C412.398 42.1562 411.573 41.7786 410.989 41.0234L410.919 42H409.591V30H411.036V34.4766C411.619 33.7526 412.424 33.3906 413.45 33.3906C414.476 33.3906 415.281 33.7786 415.864 34.5547C416.453 35.3307 416.747 36.3932 416.747 37.7422V37.8672ZM415.302 37.7031C415.302 36.7188 415.112 35.9583 414.731 35.4219C414.351 34.8854 413.804 34.6172 413.091 34.6172C412.138 34.6172 411.453 35.0599 411.036 35.9453V39.6016C411.479 40.487 412.169 40.9297 413.106 40.9297C413.799 40.9297 414.338 40.6615 414.724 40.125C415.109 39.5885 415.302 38.7812 415.302 37.7031ZM420.146 42H418.7V33.5469H420.146V42ZM418.583 31.3047C418.583 31.0703 418.653 30.8724 418.794 30.7109C418.94 30.5495 419.153 30.4688 419.435 30.4688C419.716 30.4688 419.929 30.5495 420.075 30.7109C420.221 30.8724 420.294 31.0703 420.294 31.3047C420.294 31.5391 420.221 31.7344 420.075 31.8906C419.929 32.0469 419.716 32.125 419.435 32.125C419.153 32.125 418.94 32.0469 418.794 31.8906C418.653 31.7344 418.583 31.5391 418.583 31.3047ZM424.036 42H422.591V30H424.036V42ZM427.927 42H426.481V30H427.927V42Z" fill="#656668"/>
<path d="M45.288 48H48.232V24.864H42.216V27.52H45.288V48Z" fill="#656668"/>
<path d="M89.4033 123.391C89.2627 124.594 88.8174 125.523 88.0674 126.18C87.3226 126.831 86.3304 127.156 85.0908 127.156C83.7471 127.156 82.6689 126.674 81.8564 125.711C81.0492 124.747 80.6455 123.458 80.6455 121.844V120.75C80.6455 119.693 80.833 118.763 81.208 117.961C81.5882 117.159 82.1247 116.544 82.8174 116.117C83.5101 115.685 84.3122 115.469 85.2236 115.469C86.432 115.469 87.4007 115.807 88.1299 116.484C88.859 117.156 89.2835 118.089 89.4033 119.281H87.8955C87.7653 118.375 87.4814 117.719 87.0439 117.312C86.6117 116.906 86.0049 116.703 85.2236 116.703C84.2653 116.703 83.5127 117.057 82.9658 117.766C82.4242 118.474 82.1533 119.482 82.1533 120.789V121.891C82.1533 123.125 82.4111 124.107 82.9268 124.836C83.4424 125.565 84.1637 125.93 85.0908 125.93C85.9242 125.93 86.5622 125.742 87.0049 125.367C87.4528 124.987 87.7497 124.328 87.8955 123.391H89.4033ZM90.8486 122.695C90.8486 121.867 91.0101 121.122 91.333 120.461C91.6611 119.799 92.1143 119.289 92.6924 118.93C93.2757 118.57 93.9398 118.391 94.6846 118.391C95.8356 118.391 96.7653 118.789 97.4736 119.586C98.1872 120.383 98.5439 121.443 98.5439 122.766V122.867C98.5439 123.69 98.3851 124.43 98.0674 125.086C97.7549 125.737 97.3044 126.245 96.7158 126.609C96.1325 126.974 95.4606 127.156 94.7002 127.156C93.5544 127.156 92.6247 126.758 91.9111 125.961C91.2028 125.164 90.8486 124.109 90.8486 122.797V122.695ZM92.3018 122.867C92.3018 123.805 92.5179 124.557 92.9502 125.125C93.3877 125.693 93.971 125.977 94.7002 125.977C95.4346 125.977 96.0179 125.69 96.4502 125.117C96.8825 124.539 97.0986 123.732 97.0986 122.695C97.0986 121.768 96.8773 121.018 96.4346 120.445C95.9971 119.867 95.4137 119.578 94.6846 119.578C93.971 119.578 93.3955 119.862 92.958 120.43C92.5205 120.997 92.3018 121.81 92.3018 122.867ZM101.724 118.547L101.771 119.609C102.416 118.797 103.26 118.391 104.302 118.391C106.088 118.391 106.989 119.398 107.005 121.414V127H105.56V121.406C105.554 120.797 105.414 120.346 105.138 120.055C104.867 119.763 104.442 119.617 103.864 119.617C103.396 119.617 102.984 119.742 102.63 119.992C102.276 120.242 102 120.57 101.802 120.977V127H100.356V118.547H101.724ZM114.106 124.758C114.106 124.367 113.958 124.065 113.661 123.852C113.369 123.633 112.856 123.445 112.122 123.289C111.393 123.133 110.812 122.945 110.38 122.727C109.953 122.508 109.635 122.247 109.427 121.945C109.224 121.643 109.122 121.284 109.122 120.867C109.122 120.174 109.414 119.589 109.997 119.109C110.586 118.63 111.336 118.391 112.247 118.391C113.205 118.391 113.981 118.638 114.575 119.133C115.174 119.628 115.474 120.26 115.474 121.031H114.021C114.021 120.635 113.851 120.294 113.513 120.008C113.179 119.721 112.757 119.578 112.247 119.578C111.721 119.578 111.31 119.693 111.013 119.922C110.716 120.151 110.567 120.451 110.567 120.82C110.567 121.169 110.705 121.432 110.981 121.609C111.257 121.786 111.755 121.956 112.474 122.117C113.198 122.279 113.784 122.471 114.231 122.695C114.679 122.919 115.01 123.19 115.224 123.508C115.442 123.82 115.552 124.203 115.552 124.656C115.552 125.411 115.25 126.018 114.646 126.477C114.041 126.93 113.257 127.156 112.294 127.156C111.617 127.156 111.018 127.036 110.497 126.797C109.976 126.557 109.567 126.224 109.271 125.797C108.979 125.365 108.833 124.898 108.833 124.398H110.278C110.304 124.883 110.497 125.268 110.856 125.555C111.221 125.836 111.7 125.977 112.294 125.977C112.841 125.977 113.278 125.867 113.606 125.648C113.94 125.424 114.106 125.128 114.106 124.758ZM122.653 126.164C122.091 126.826 121.265 127.156 120.177 127.156C119.276 127.156 118.588 126.896 118.114 126.375C117.646 125.849 117.409 125.073 117.403 124.047V118.547H118.849V124.008C118.849 125.289 119.369 125.93 120.411 125.93C121.515 125.93 122.25 125.518 122.614 124.695V118.547H124.06V127H122.685L122.653 126.164ZM127.622 118.547L127.661 119.484C128.281 118.755 129.117 118.391 130.169 118.391C131.351 118.391 132.156 118.844 132.583 119.75C132.864 119.344 133.229 119.016 133.677 118.766C134.13 118.516 134.664 118.391 135.278 118.391C137.132 118.391 138.075 119.372 138.106 121.336V127H136.661V121.422C136.661 120.818 136.523 120.367 136.247 120.07C135.971 119.768 135.507 119.617 134.856 119.617C134.32 119.617 133.875 119.779 133.521 120.102C133.166 120.419 132.961 120.849 132.903 121.391V127H131.45V121.461C131.45 120.232 130.849 119.617 129.646 119.617C128.698 119.617 128.049 120.021 127.7 120.828V127H126.255V118.547H127.622ZM143.802 127.156C142.656 127.156 141.724 126.781 141.005 126.031C140.286 125.276 139.927 124.268 139.927 123.008V122.742C139.927 121.904 140.086 121.156 140.403 120.5C140.726 119.839 141.174 119.323 141.747 118.953C142.325 118.578 142.95 118.391 143.622 118.391C144.721 118.391 145.575 118.753 146.185 119.477C146.794 120.201 147.099 121.237 147.099 122.586V123.188H141.372C141.393 124.021 141.635 124.695 142.099 125.211C142.567 125.721 143.161 125.977 143.88 125.977C144.39 125.977 144.823 125.872 145.177 125.664C145.531 125.456 145.841 125.18 146.106 124.836L146.989 125.523C146.281 126.612 145.218 127.156 143.802 127.156ZM143.622 119.578C143.039 119.578 142.549 119.792 142.153 120.219C141.757 120.641 141.513 121.234 141.419 122H145.653V121.891C145.612 121.156 145.414 120.589 145.06 120.188C144.705 119.781 144.226 119.578 143.622 119.578ZM152.864 119.844C152.646 119.807 152.409 119.789 152.153 119.789C151.205 119.789 150.562 120.193 150.224 121V127H148.778V118.547H150.185L150.208 119.523C150.682 118.768 151.354 118.391 152.224 118.391C152.505 118.391 152.718 118.427 152.864 118.5V119.844ZM165.653 125.008L167.278 118.547H168.724L166.263 127H165.091L163.036 120.594L161.036 127H159.864L157.411 118.547H158.849L160.513 124.875L162.481 118.547H163.646L165.653 125.008ZM171.771 127H170.325V118.547H171.771V127ZM170.208 116.305C170.208 116.07 170.278 115.872 170.419 115.711C170.565 115.549 170.778 115.469 171.06 115.469C171.341 115.469 171.554 115.549 171.7 115.711C171.846 115.872 171.919 116.07 171.919 116.305C171.919 116.539 171.846 116.734 171.7 116.891C171.554 117.047 171.341 117.125 171.06 117.125C170.778 117.125 170.565 117.047 170.419 116.891C170.278 116.734 170.208 116.539 170.208 116.305ZM175.661 127H174.216V115H175.661V127ZM179.552 127H178.106V115H179.552V127ZM190.763 124.758C190.763 124.367 190.614 124.065 190.317 123.852C190.026 123.633 189.513 123.445 188.778 123.289C188.049 123.133 187.468 122.945 187.036 122.727C186.609 122.508 186.291 122.247 186.083 121.945C185.88 121.643 185.778 121.284 185.778 120.867C185.778 120.174 186.07 119.589 186.653 119.109C187.242 118.63 187.992 118.391 188.903 118.391C189.862 118.391 190.638 118.638 191.231 119.133C191.83 119.628 192.13 120.26 192.13 121.031H190.677C190.677 120.635 190.507 120.294 190.169 120.008C189.836 119.721 189.414 119.578 188.903 119.578C188.377 119.578 187.966 119.693 187.669 119.922C187.372 120.151 187.224 120.451 187.224 120.82C187.224 121.169 187.362 121.432 187.638 121.609C187.914 121.786 188.411 121.956 189.13 122.117C189.854 122.279 190.44 122.471 190.888 122.695C191.336 122.919 191.666 123.19 191.88 123.508C192.099 123.82 192.208 124.203 192.208 124.656C192.208 125.411 191.906 126.018 191.302 126.477C190.698 126.93 189.914 127.156 188.95 127.156C188.273 127.156 187.674 127.036 187.153 126.797C186.632 126.557 186.224 126.224 185.927 125.797C185.635 125.365 185.489 124.898 185.489 124.398H186.935C186.961 124.883 187.153 125.268 187.513 125.555C187.877 125.836 188.356 125.977 188.95 125.977C189.497 125.977 189.935 125.867 190.263 125.648C190.596 125.424 190.763 125.128 190.763 124.758ZM197.481 125.977C197.997 125.977 198.448 125.82 198.833 125.508C199.218 125.195 199.432 124.805 199.474 124.336H200.841C200.815 124.82 200.648 125.281 200.341 125.719C200.034 126.156 199.622 126.505 199.106 126.766C198.596 127.026 198.054 127.156 197.481 127.156C196.33 127.156 195.414 126.773 194.731 126.008C194.054 125.237 193.716 124.185 193.716 122.852V122.609C193.716 121.786 193.867 121.055 194.169 120.414C194.471 119.773 194.903 119.276 195.466 118.922C196.034 118.568 196.703 118.391 197.474 118.391C198.422 118.391 199.208 118.674 199.833 119.242C200.463 119.81 200.799 120.547 200.841 121.453H199.474C199.432 120.906 199.224 120.458 198.849 120.109C198.479 119.755 198.021 119.578 197.474 119.578C196.739 119.578 196.169 119.844 195.763 120.375C195.362 120.901 195.161 121.664 195.161 122.664V122.938C195.161 123.911 195.362 124.661 195.763 125.188C196.164 125.714 196.737 125.977 197.481 125.977ZM207.685 127C207.601 126.833 207.534 126.536 207.481 126.109C206.81 126.807 206.007 127.156 205.075 127.156C204.242 127.156 203.557 126.922 203.021 126.453C202.489 125.979 202.224 125.38 202.224 124.656C202.224 123.776 202.557 123.094 203.224 122.609C203.896 122.12 204.838 121.875 206.052 121.875H207.458V121.211C207.458 120.706 207.307 120.305 207.005 120.008C206.703 119.706 206.257 119.555 205.669 119.555C205.153 119.555 204.721 119.685 204.372 119.945C204.023 120.206 203.849 120.521 203.849 120.891H202.396C202.396 120.469 202.544 120.062 202.841 119.672C203.143 119.276 203.549 118.964 204.06 118.734C204.575 118.505 205.14 118.391 205.755 118.391C206.729 118.391 207.492 118.635 208.044 119.125C208.596 119.609 208.882 120.279 208.903 121.133V125.023C208.903 125.799 209.002 126.417 209.2 126.875V127H207.685ZM205.286 125.898C205.739 125.898 206.169 125.781 206.575 125.547C206.981 125.312 207.276 125.008 207.458 124.633V122.898H206.325C204.554 122.898 203.669 123.417 203.669 124.453C203.669 124.906 203.82 125.26 204.122 125.516C204.424 125.771 204.812 125.898 205.286 125.898ZM212.536 118.547L212.583 119.609C213.229 118.797 214.073 118.391 215.114 118.391C216.901 118.391 217.802 119.398 217.817 121.414V127H216.372V121.406C216.367 120.797 216.226 120.346 215.95 120.055C215.679 119.763 215.255 119.617 214.677 119.617C214.208 119.617 213.797 119.742 213.442 119.992C213.088 120.242 212.812 120.57 212.614 120.977V127H211.169V118.547H212.536ZM232.88 121.68C232.88 122.779 232.705 123.727 232.356 124.523C232.007 125.315 231.518 125.935 230.888 126.383L232.919 127.977L231.896 128.922L229.497 127.016C229.122 127.109 228.726 127.156 228.31 127.156C227.414 127.156 226.619 126.938 225.927 126.5C225.234 126.057 224.695 125.43 224.31 124.617C223.929 123.799 223.734 122.854 223.724 121.781V120.961C223.724 119.867 223.914 118.901 224.294 118.062C224.674 117.224 225.211 116.583 225.903 116.141C226.601 115.693 227.398 115.469 228.294 115.469C229.211 115.469 230.015 115.69 230.708 116.133C231.406 116.576 231.942 117.214 232.317 118.047C232.692 118.875 232.88 119.844 232.88 120.953V121.68ZM231.38 120.945C231.38 119.607 231.112 118.576 230.575 117.852C230.044 117.122 229.284 116.758 228.294 116.758C227.351 116.758 226.606 117.12 226.06 117.844C225.518 118.562 225.239 119.562 225.224 120.844V121.68C225.224 122.982 225.494 124.008 226.036 124.758C226.583 125.508 227.341 125.883 228.31 125.883C229.278 125.883 230.028 125.531 230.56 124.828C231.091 124.12 231.364 123.107 231.38 121.789V120.945ZM239.364 122.398H236.692V127H235.185V115.625H238.95C240.231 115.625 241.216 115.917 241.903 116.5C242.596 117.083 242.942 117.932 242.942 119.047C242.942 119.755 242.75 120.372 242.364 120.898C241.984 121.424 241.453 121.818 240.771 122.078L243.442 126.906V127H241.833L239.364 122.398ZM236.692 121.172H238.997C239.742 121.172 240.333 120.979 240.771 120.594C241.213 120.208 241.435 119.693 241.435 119.047C241.435 118.344 241.224 117.805 240.802 117.43C240.385 117.055 239.781 116.865 238.989 116.859H236.692V121.172ZM252.185 125.977C252.7 125.977 253.151 125.82 253.536 125.508C253.922 125.195 254.135 124.805 254.177 124.336H255.544C255.518 124.82 255.351 125.281 255.044 125.719C254.737 126.156 254.325 126.505 253.81 126.766C253.299 127.026 252.757 127.156 252.185 127.156C251.034 127.156 250.117 126.773 249.435 126.008C248.757 125.237 248.419 124.185 248.419 122.852V122.609C248.419 121.786 248.57 121.055 248.872 120.414C249.174 119.773 249.606 119.276 250.169 118.922C250.737 118.568 251.406 118.391 252.177 118.391C253.125 118.391 253.911 118.674 254.536 119.242C255.166 119.81 255.502 120.547 255.544 121.453H254.177C254.135 120.906 253.927 120.458 253.552 120.109C253.182 119.755 252.724 119.578 252.177 119.578C251.442 119.578 250.872 119.844 250.466 120.375C250.065 120.901 249.864 121.664 249.864 122.664V122.938C249.864 123.911 250.065 124.661 250.466 125.188C250.867 125.714 251.44 125.977 252.185 125.977ZM256.786 122.695C256.786 121.867 256.948 121.122 257.271 120.461C257.599 119.799 258.052 119.289 258.63 118.93C259.213 118.57 259.877 118.391 260.622 118.391C261.773 118.391 262.703 118.789 263.411 119.586C264.125 120.383 264.481 121.443 264.481 122.766V122.867C264.481 123.69 264.323 124.43 264.005 125.086C263.692 125.737 263.242 126.245 262.653 126.609C262.07 126.974 261.398 127.156 260.638 127.156C259.492 127.156 258.562 126.758 257.849 125.961C257.14 125.164 256.786 124.109 256.786 122.797V122.695ZM258.239 122.867C258.239 123.805 258.455 124.557 258.888 125.125C259.325 125.693 259.909 125.977 260.638 125.977C261.372 125.977 261.955 125.69 262.388 125.117C262.82 124.539 263.036 123.732 263.036 122.695C263.036 121.768 262.815 121.018 262.372 120.445C261.935 119.867 261.351 119.578 260.622 119.578C259.909 119.578 259.333 119.862 258.896 120.43C258.458 120.997 258.239 121.81 258.239 122.867ZM265.942 122.703C265.942 121.406 266.25 120.365 266.864 119.578C267.479 118.786 268.284 118.391 269.278 118.391C270.268 118.391 271.052 118.729 271.63 119.406V115H273.075V127H271.747L271.677 126.094C271.099 126.802 270.294 127.156 269.263 127.156C268.284 127.156 267.484 126.755 266.864 125.953C266.25 125.151 265.942 124.104 265.942 122.812V122.703ZM267.388 122.867C267.388 123.826 267.586 124.576 267.981 125.117C268.377 125.659 268.924 125.93 269.622 125.93C270.539 125.93 271.208 125.518 271.63 124.695V120.812C271.198 120.016 270.534 119.617 269.638 119.617C268.929 119.617 268.377 119.891 267.981 120.438C267.586 120.984 267.388 121.794 267.388 122.867ZM278.833 127.156C277.687 127.156 276.755 126.781 276.036 126.031C275.317 125.276 274.958 124.268 274.958 123.008V122.742C274.958 121.904 275.117 121.156 275.435 120.5C275.757 119.839 276.205 119.323 276.778 118.953C277.356 118.578 277.981 118.391 278.653 118.391C279.752 118.391 280.606 118.753 281.216 119.477C281.825 120.201 282.13 121.237 282.13 122.586V123.188H276.403C276.424 124.021 276.666 124.695 277.13 125.211C277.599 125.721 278.192 125.977 278.911 125.977C279.422 125.977 279.854 125.872 280.208 125.664C280.562 125.456 280.872 125.18 281.138 124.836L282.021 125.523C281.312 126.612 280.25 127.156 278.833 127.156ZM278.653 119.578C278.07 119.578 277.58 119.792 277.185 120.219C276.789 120.641 276.544 121.234 276.45 122H280.685V121.891C280.643 121.156 280.445 120.589 280.091 120.188C279.737 119.781 279.257 119.578 278.653 119.578ZM292.997 127C292.914 126.833 292.846 126.536 292.794 126.109C292.122 126.807 291.32 127.156 290.388 127.156C289.554 127.156 288.869 126.922 288.333 126.453C287.802 125.979 287.536 125.38 287.536 124.656C287.536 123.776 287.869 123.094 288.536 122.609C289.208 122.12 290.151 121.875 291.364 121.875H292.771V121.211C292.771 120.706 292.619 120.305 292.317 120.008C292.015 119.706 291.57 119.555 290.981 119.555C290.466 119.555 290.034 119.685 289.685 119.945C289.336 120.206 289.161 120.521 289.161 120.891H287.708C287.708 120.469 287.856 120.062 288.153 119.672C288.455 119.276 288.862 118.964 289.372 118.734C289.888 118.505 290.453 118.391 291.067 118.391C292.041 118.391 292.804 118.635 293.356 119.125C293.909 119.609 294.195 120.279 294.216 121.133V125.023C294.216 125.799 294.315 126.417 294.513 126.875V127H292.997ZM290.599 125.898C291.052 125.898 291.481 125.781 291.888 125.547C292.294 125.312 292.588 125.008 292.771 124.633V122.898H291.638C289.867 122.898 288.981 123.417 288.981 124.453C288.981 124.906 289.132 125.26 289.435 125.516C289.737 125.771 290.125 125.898 290.599 125.898ZM297.849 118.547L297.896 119.609C298.541 118.797 299.385 118.391 300.427 118.391C302.213 118.391 303.114 119.398 303.13 121.414V127H301.685V121.406C301.679 120.797 301.539 120.346 301.263 120.055C300.992 119.763 300.567 119.617 299.989 119.617C299.521 119.617 299.109 119.742 298.755 119.992C298.401 120.242 298.125 120.57 297.927 120.977V127H296.481V118.547H297.849ZM304.958 122.703C304.958 121.406 305.265 120.365 305.88 119.578C306.494 118.786 307.299 118.391 308.294 118.391C309.284 118.391 310.067 118.729 310.646 119.406V115H312.091V127H310.763L310.692 126.094C310.114 126.802 309.31 127.156 308.278 127.156C307.299 127.156 306.5 126.755 305.88 125.953C305.265 125.151 304.958 124.104 304.958 122.812V122.703ZM306.403 122.867C306.403 123.826 306.601 124.576 306.997 125.117C307.393 125.659 307.94 125.93 308.638 125.93C309.554 125.93 310.224 125.518 310.646 124.695V120.812C310.213 120.016 309.549 119.617 308.653 119.617C307.945 119.617 307.393 119.891 306.997 120.438C306.601 120.984 306.403 121.794 306.403 122.867ZM325.45 122.867C325.45 124.154 325.156 125.19 324.567 125.977C323.979 126.763 323.182 127.156 322.177 127.156C321.151 127.156 320.343 126.831 319.755 126.18V130.25H318.31V118.547H319.63L319.7 119.484C320.289 118.755 321.106 118.391 322.153 118.391C323.169 118.391 323.971 118.773 324.56 119.539C325.153 120.305 325.45 121.37 325.45 122.734V122.867ZM324.005 122.703C324.005 121.75 323.802 120.997 323.396 120.445C322.989 119.893 322.432 119.617 321.724 119.617C320.849 119.617 320.192 120.005 319.755 120.781V124.82C320.187 125.591 320.849 125.977 321.739 125.977C322.432 125.977 322.981 125.703 323.388 125.156C323.799 124.604 324.005 123.786 324.005 122.703ZM332.513 127C332.429 126.833 332.362 126.536 332.31 126.109C331.638 126.807 330.836 127.156 329.903 127.156C329.07 127.156 328.385 126.922 327.849 126.453C327.317 125.979 327.052 125.38 327.052 124.656C327.052 123.776 327.385 123.094 328.052 122.609C328.724 122.12 329.666 121.875 330.88 121.875H332.286V121.211C332.286 120.706 332.135 120.305 331.833 120.008C331.531 119.706 331.086 119.555 330.497 119.555C329.981 119.555 329.549 119.685 329.2 119.945C328.851 120.206 328.677 120.521 328.677 120.891H327.224C327.224 120.469 327.372 120.062 327.669 119.672C327.971 119.276 328.377 118.964 328.888 118.734C329.403 118.505 329.968 118.391 330.583 118.391C331.557 118.391 332.32 118.635 332.872 119.125C333.424 119.609 333.711 120.279 333.731 121.133V125.023C333.731 125.799 333.83 126.417 334.028 126.875V127H332.513ZM330.114 125.898C330.567 125.898 330.997 125.781 331.403 125.547C331.81 125.312 332.104 125.008 332.286 124.633V122.898H331.153C329.382 122.898 328.497 123.417 328.497 124.453C328.497 124.906 328.648 125.26 328.95 125.516C329.252 125.771 329.64 125.898 330.114 125.898ZM338.638 124.883L340.606 118.547H342.153L338.755 128.305C338.229 129.711 337.393 130.414 336.247 130.414L335.974 130.391L335.435 130.289V129.117L335.825 129.148C336.315 129.148 336.695 129.049 336.966 128.852C337.242 128.654 337.468 128.292 337.646 127.766L337.966 126.906L334.95 118.547H336.528L338.638 124.883ZM348.864 119.57C349.505 118.784 350.338 118.391 351.364 118.391C353.151 118.391 354.052 119.398 354.067 121.414V127H352.622V121.406C352.617 120.797 352.476 120.346 352.2 120.055C351.929 119.763 351.505 119.617 350.927 119.617C350.458 119.617 350.047 119.742 349.692 119.992C349.338 120.242 349.062 120.57 348.864 120.977V127H347.419V115H348.864V119.57ZM357.802 127H356.356V118.547H357.802V127ZM356.239 116.305C356.239 116.07 356.31 115.872 356.45 115.711C356.596 115.549 356.81 115.469 357.091 115.469C357.372 115.469 357.586 115.549 357.731 115.711C357.877 115.872 357.95 116.07 357.95 116.305C357.95 116.539 357.877 116.734 357.731 116.891C357.586 117.047 357.372 117.125 357.091 117.125C356.81 117.125 356.596 117.047 356.45 116.891C356.31 116.734 356.239 116.539 356.239 116.305ZM365.044 124.758C365.044 124.367 364.896 124.065 364.599 123.852C364.307 123.633 363.794 123.445 363.06 123.289C362.33 123.133 361.75 122.945 361.317 122.727C360.89 122.508 360.573 122.247 360.364 121.945C360.161 121.643 360.06 121.284 360.06 120.867C360.06 120.174 360.351 119.589 360.935 119.109C361.523 118.63 362.273 118.391 363.185 118.391C364.143 118.391 364.919 118.638 365.513 119.133C366.112 119.628 366.411 120.26 366.411 121.031H364.958C364.958 120.635 364.789 120.294 364.45 120.008C364.117 119.721 363.695 119.578 363.185 119.578C362.659 119.578 362.247 119.693 361.95 119.922C361.653 120.151 361.505 120.451 361.505 120.82C361.505 121.169 361.643 121.432 361.919 121.609C362.195 121.786 362.692 121.956 363.411 122.117C364.135 122.279 364.721 122.471 365.169 122.695C365.617 122.919 365.948 123.19 366.161 123.508C366.38 123.82 366.489 124.203 366.489 124.656C366.489 125.411 366.187 126.018 365.583 126.477C364.979 126.93 364.195 127.156 363.231 127.156C362.554 127.156 361.955 127.036 361.435 126.797C360.914 126.557 360.505 126.224 360.208 125.797C359.916 125.365 359.771 124.898 359.771 124.398H361.216C361.242 124.883 361.435 125.268 361.794 125.555C362.159 125.836 362.638 125.977 363.231 125.977C363.778 125.977 364.216 125.867 364.544 125.648C364.877 125.424 365.044 125.128 365.044 124.758ZM372.63 127.977H371.388L376.138 115.625H377.372L372.63 127.977ZM384.349 119.57C384.989 118.784 385.823 118.391 386.849 118.391C388.635 118.391 389.536 119.398 389.552 121.414V127H388.106V121.406C388.101 120.797 387.961 120.346 387.685 120.055C387.414 119.763 386.989 119.617 386.411 119.617C385.942 119.617 385.531 119.742 385.177 119.992C384.823 120.242 384.547 120.57 384.349 120.977V127H382.903V115H384.349V119.57ZM395.224 127.156C394.078 127.156 393.146 126.781 392.427 126.031C391.708 125.276 391.349 124.268 391.349 123.008V122.742C391.349 121.904 391.507 121.156 391.825 120.5C392.148 119.839 392.596 119.323 393.169 118.953C393.747 118.578 394.372 118.391 395.044 118.391C396.143 118.391 396.997 118.753 397.606 119.477C398.216 120.201 398.521 121.237 398.521 122.586V123.188H392.794C392.815 124.021 393.057 124.695 393.521 125.211C393.989 125.721 394.583 125.977 395.302 125.977C395.812 125.977 396.244 125.872 396.599 125.664C396.953 125.456 397.263 125.18 397.528 124.836L398.411 125.523C397.703 126.612 396.64 127.156 395.224 127.156ZM395.044 119.578C394.461 119.578 393.971 119.792 393.575 120.219C393.179 120.641 392.935 121.234 392.841 122H397.075V121.891C397.034 121.156 396.836 120.589 396.481 120.188C396.127 119.781 395.648 119.578 395.044 119.578ZM404.286 119.844C404.067 119.807 403.83 119.789 403.575 119.789C402.627 119.789 401.984 120.193 401.646 121V127H400.2V118.547H401.606L401.63 119.523C402.104 118.768 402.776 118.391 403.646 118.391C403.927 118.391 404.14 118.427 404.286 118.5V119.844ZM416.747 122.867C416.747 124.159 416.45 125.198 415.856 125.984C415.263 126.766 414.466 127.156 413.466 127.156C412.398 127.156 411.573 126.779 410.989 126.023L410.919 127H409.591V115H411.036V119.477C411.619 118.753 412.424 118.391 413.45 118.391C414.476 118.391 415.281 118.779 415.864 119.555C416.453 120.331 416.747 121.393 416.747 122.742V122.867ZM415.302 122.703C415.302 121.719 415.112 120.958 414.731 120.422C414.351 119.885 413.804 119.617 413.091 119.617C412.138 119.617 411.453 120.06 411.036 120.945V124.602C411.479 125.487 412.169 125.93 413.106 125.93C413.799 125.93 414.338 125.661 414.724 125.125C415.109 124.589 415.302 123.781 415.302 122.703ZM420.146 127H418.7V118.547H420.146V127ZM418.583 116.305C418.583 116.07 418.653 115.872 418.794 115.711C418.94 115.549 419.153 115.469 419.435 115.469C419.716 115.469 419.929 115.549 420.075 115.711C420.221 115.872 420.294 116.07 420.294 116.305C420.294 116.539 420.221 116.734 420.075 116.891C419.929 117.047 419.716 117.125 419.435 117.125C419.153 117.125 418.94 117.047 418.794 116.891C418.653 116.734 418.583 116.539 418.583 116.305ZM424.036 127H422.591V115H424.036V127ZM427.927 127H426.481V115H427.927V127Z" fill="#656668"/>
<path d="M37.632 132.744H53.024V130.312H42.016C46.144 126.952 52.352 122.056 52.352 116.296C52.352 112.008 49.536 109.448 45.184 109.448C41.024 109.448 37.92 112.008 37.728 116.936H40.544C40.672 114.024 42.208 111.944 45.216 111.944C48.352 111.944 49.472 113.864 49.472 116.424C49.472 121.16 43.712 125.768 37.632 130.664V132.744Z" fill="#656668"/>
<g filter="url(#filter0_d)">
<rect x="19" y="170" width="556.56" height="75" rx="24" fill="white"/>
</g>
<path d="M89.4033 209.391C89.2627 210.594 88.8174 211.523 88.0674 212.18C87.3226 212.831 86.3304 213.156 85.0908 213.156C83.7471 213.156 82.6689 212.674 81.8564 211.711C81.0492 210.747 80.6455 209.458 80.6455 207.844V206.75C80.6455 205.693 80.833 204.763 81.208 203.961C81.5882 203.159 82.1247 202.544 82.8174 202.117C83.5101 201.685 84.3122 201.469 85.2236 201.469C86.432 201.469 87.4007 201.807 88.1299 202.484C88.859 203.156 89.2835 204.089 89.4033 205.281H87.8955C87.7653 204.375 87.4814 203.719 87.0439 203.312C86.6117 202.906 86.0049 202.703 85.2236 202.703C84.2653 202.703 83.5127 203.057 82.9658 203.766C82.4242 204.474 82.1533 205.482 82.1533 206.789V207.891C82.1533 209.125 82.4111 210.107 82.9268 210.836C83.4424 211.565 84.1637 211.93 85.0908 211.93C85.9242 211.93 86.5622 211.742 87.0049 211.367C87.4528 210.987 87.7497 210.328 87.8955 209.391H89.4033ZM90.8486 208.695C90.8486 207.867 91.0101 207.122 91.333 206.461C91.6611 205.799 92.1143 205.289 92.6924 204.93C93.2757 204.57 93.9398 204.391 94.6846 204.391C95.8356 204.391 96.7653 204.789 97.4736 205.586C98.1872 206.383 98.5439 207.443 98.5439 208.766V208.867C98.5439 209.69 98.3851 210.43 98.0674 211.086C97.7549 211.737 97.3044 212.245 96.7158 212.609C96.1325 212.974 95.4606 213.156 94.7002 213.156C93.5544 213.156 92.6247 212.758 91.9111 211.961C91.2028 211.164 90.8486 210.109 90.8486 208.797V208.695ZM92.3018 208.867C92.3018 209.805 92.5179 210.557 92.9502 211.125C93.3877 211.693 93.971 211.977 94.7002 211.977C95.4346 211.977 96.0179 211.69 96.4502 211.117C96.8825 210.539 97.0986 209.732 97.0986 208.695C97.0986 207.768 96.8773 207.018 96.4346 206.445C95.9971 205.867 95.4137 205.578 94.6846 205.578C93.971 205.578 93.3955 205.862 92.958 206.43C92.5205 206.997 92.3018 207.81 92.3018 208.867ZM101.724 204.547L101.771 205.609C102.416 204.797 103.26 204.391 104.302 204.391C106.088 204.391 106.989 205.398 107.005 207.414V213H105.56V207.406C105.554 206.797 105.414 206.346 105.138 206.055C104.867 205.763 104.442 205.617 103.864 205.617C103.396 205.617 102.984 205.742 102.63 205.992C102.276 206.242 102 206.57 101.802 206.977V213H100.356V204.547H101.724ZM114.106 210.758C114.106 210.367 113.958 210.065 113.661 209.852C113.369 209.633 112.856 209.445 112.122 209.289C111.393 209.133 110.812 208.945 110.38 208.727C109.953 208.508 109.635 208.247 109.427 207.945C109.224 207.643 109.122 207.284 109.122 206.867C109.122 206.174 109.414 205.589 109.997 205.109C110.586 204.63 111.336 204.391 112.247 204.391C113.205 204.391 113.981 204.638 114.575 205.133C115.174 205.628 115.474 206.26 115.474 207.031H114.021C114.021 206.635 113.851 206.294 113.513 206.008C113.179 205.721 112.757 205.578 112.247 205.578C111.721 205.578 111.31 205.693 111.013 205.922C110.716 206.151 110.567 206.451 110.567 206.82C110.567 207.169 110.705 207.432 110.981 207.609C111.257 207.786 111.755 207.956 112.474 208.117C113.198 208.279 113.784 208.471 114.231 208.695C114.679 208.919 115.01 209.19 115.224 209.508C115.442 209.82 115.552 210.203 115.552 210.656C115.552 211.411 115.25 212.018 114.646 212.477C114.041 212.93 113.257 213.156 112.294 213.156C111.617 213.156 111.018 213.036 110.497 212.797C109.976 212.557 109.567 212.224 109.271 211.797C108.979 211.365 108.833 210.898 108.833 210.398H110.278C110.304 210.883 110.497 211.268 110.856 211.555C111.221 211.836 111.7 211.977 112.294 211.977C112.841 211.977 113.278 211.867 113.606 211.648C113.94 211.424 114.106 211.128 114.106 210.758ZM122.653 212.164C122.091 212.826 121.265 213.156 120.177 213.156C119.276 213.156 118.588 212.896 118.114 212.375C117.646 211.849 117.409 211.073 117.403 210.047V204.547H118.849V210.008C118.849 211.289 119.369 211.93 120.411 211.93C121.515 211.93 122.25 211.518 122.614 210.695V204.547H124.06V213H122.685L122.653 212.164ZM127.622 204.547L127.661 205.484C128.281 204.755 129.117 204.391 130.169 204.391C131.351 204.391 132.156 204.844 132.583 205.75C132.864 205.344 133.229 205.016 133.677 204.766C134.13 204.516 134.664 204.391 135.278 204.391C137.132 204.391 138.075 205.372 138.106 207.336V213H136.661V207.422C136.661 206.818 136.523 206.367 136.247 206.07C135.971 205.768 135.507 205.617 134.856 205.617C134.32 205.617 133.875 205.779 133.521 206.102C133.166 206.419 132.961 206.849 132.903 207.391V213H131.45V207.461C131.45 206.232 130.849 205.617 129.646 205.617C128.698 205.617 128.049 206.021 127.7 206.828V213H126.255V204.547H127.622ZM143.802 213.156C142.656 213.156 141.724 212.781 141.005 212.031C140.286 211.276 139.927 210.268 139.927 209.008V208.742C139.927 207.904 140.086 207.156 140.403 206.5C140.726 205.839 141.174 205.323 141.747 204.953C142.325 204.578 142.95 204.391 143.622 204.391C144.721 204.391 145.575 204.753 146.185 205.477C146.794 206.201 147.099 207.237 147.099 208.586V209.188H141.372C141.393 210.021 141.635 210.695 142.099 211.211C142.567 211.721 143.161 211.977 143.88 211.977C144.39 211.977 144.823 211.872 145.177 211.664C145.531 211.456 145.841 211.18 146.106 210.836L146.989 211.523C146.281 212.612 145.218 213.156 143.802 213.156ZM143.622 205.578C143.039 205.578 142.549 205.792 142.153 206.219C141.757 206.641 141.513 207.234 141.419 208H145.653V207.891C145.612 207.156 145.414 206.589 145.06 206.188C144.705 205.781 144.226 205.578 143.622 205.578ZM152.864 205.844C152.646 205.807 152.409 205.789 152.153 205.789C151.205 205.789 150.562 206.193 150.224 207V213H148.778V204.547H150.185L150.208 205.523C150.682 204.768 151.354 204.391 152.224 204.391C152.505 204.391 152.718 204.427 152.864 204.5V205.844ZM165.653 211.008L167.278 204.547H168.724L166.263 213H165.091L163.036 206.594L161.036 213H159.864L157.411 204.547H158.849L160.513 210.875L162.481 204.547H163.646L165.653 211.008ZM171.771 213H170.325V204.547H171.771V213ZM170.208 202.305C170.208 202.07 170.278 201.872 170.419 201.711C170.565 201.549 170.778 201.469 171.06 201.469C171.341 201.469 171.554 201.549 171.7 201.711C171.846 201.872 171.919 202.07 171.919 202.305C171.919 202.539 171.846 202.734 171.7 202.891C171.554 203.047 171.341 203.125 171.06 203.125C170.778 203.125 170.565 203.047 170.419 202.891C170.278 202.734 170.208 202.539 170.208 202.305ZM175.661 213H174.216V201H175.661V213ZM179.552 213H178.106V201H179.552V213ZM189.349 213.156C188.203 213.156 187.271 212.781 186.552 212.031C185.833 211.276 185.474 210.268 185.474 209.008V208.742C185.474 207.904 185.632 207.156 185.95 206.5C186.273 205.839 186.721 205.323 187.294 204.953C187.872 204.578 188.497 204.391 189.169 204.391C190.268 204.391 191.122 204.753 191.731 205.477C192.341 206.201 192.646 207.237 192.646 208.586V209.188H186.919C186.94 210.021 187.182 210.695 187.646 211.211C188.114 211.721 188.708 211.977 189.427 211.977C189.937 211.977 190.369 211.872 190.724 211.664C191.078 211.456 191.388 211.18 191.653 210.836L192.536 211.523C191.828 212.612 190.765 213.156 189.349 213.156ZM189.169 205.578C188.586 205.578 188.096 205.792 187.7 206.219C187.304 206.641 187.06 207.234 186.966 208H191.2V207.891C191.159 207.156 190.961 206.589 190.606 206.188C190.252 205.781 189.773 205.578 189.169 205.578ZM195.692 204.547L195.739 205.609C196.385 204.797 197.229 204.391 198.271 204.391C200.057 204.391 200.958 205.398 200.974 207.414V213H199.528V207.406C199.523 206.797 199.382 206.346 199.106 206.055C198.836 205.763 198.411 205.617 197.833 205.617C197.364 205.617 196.953 205.742 196.599 205.992C196.244 206.242 195.968 206.57 195.771 206.977V213H194.325V204.547H195.692ZM205.114 202.5V204.547H206.692V205.664H205.114V210.906C205.114 211.245 205.185 211.5 205.325 211.672C205.466 211.839 205.705 211.922 206.044 211.922C206.211 211.922 206.44 211.891 206.731 211.828V213C206.351 213.104 205.981 213.156 205.622 213.156C204.976 213.156 204.489 212.961 204.161 212.57C203.833 212.18 203.669 211.625 203.669 210.906V205.664H202.13V204.547H203.669V202.5H205.114ZM211.896 213.156C210.75 213.156 209.817 212.781 209.099 212.031C208.38 211.276 208.021 210.268 208.021 209.008V208.742C208.021 207.904 208.179 207.156 208.497 206.5C208.82 205.839 209.268 205.323 209.841 204.953C210.419 204.578 211.044 204.391 211.716 204.391C212.815 204.391 213.669 204.753 214.278 205.477C214.888 206.201 215.192 207.237 215.192 208.586V209.188H209.466C209.487 210.021 209.729 210.695 210.192 211.211C210.661 211.721 211.255 211.977 211.974 211.977C212.484 211.977 212.916 211.872 213.271 211.664C213.625 211.456 213.935 211.18 214.2 210.836L215.083 211.523C214.375 212.612 213.312 213.156 211.896 213.156ZM211.716 205.578C211.132 205.578 210.643 205.792 210.247 206.219C209.851 206.641 209.606 207.234 209.513 208H213.747V207.891C213.705 207.156 213.507 206.589 213.153 206.188C212.799 205.781 212.32 205.578 211.716 205.578ZM220.958 205.844C220.739 205.807 220.502 205.789 220.247 205.789C219.299 205.789 218.656 206.193 218.317 207V213H216.872V204.547H218.278L218.302 205.523C218.776 204.768 219.448 204.391 220.317 204.391C220.599 204.391 220.812 204.427 220.958 204.5V205.844ZM227.708 205.57C228.349 204.784 229.182 204.391 230.208 204.391C231.994 204.391 232.896 205.398 232.911 207.414V213H231.466V207.406C231.461 206.797 231.32 206.346 231.044 206.055C230.773 205.763 230.349 205.617 229.771 205.617C229.302 205.617 228.89 205.742 228.536 205.992C228.182 206.242 227.906 206.57 227.708 206.977V213H226.263V201H227.708V205.57ZM236.646 213H235.2V204.547H236.646V213ZM235.083 202.305C235.083 202.07 235.153 201.872 235.294 201.711C235.44 201.549 235.653 201.469 235.935 201.469C236.216 201.469 236.429 201.549 236.575 201.711C236.721 201.872 236.794 202.07 236.794 202.305C236.794 202.539 236.721 202.734 236.575 202.891C236.429 203.047 236.216 203.125 235.935 203.125C235.653 203.125 235.44 203.047 235.294 202.891C235.153 202.734 235.083 202.539 235.083 202.305ZM243.888 210.758C243.888 210.367 243.739 210.065 243.442 209.852C243.151 209.633 242.638 209.445 241.903 209.289C241.174 209.133 240.593 208.945 240.161 208.727C239.734 208.508 239.416 208.247 239.208 207.945C239.005 207.643 238.903 207.284 238.903 206.867C238.903 206.174 239.195 205.589 239.778 205.109C240.367 204.63 241.117 204.391 242.028 204.391C242.987 204.391 243.763 204.638 244.356 205.133C244.955 205.628 245.255 206.26 245.255 207.031H243.802C243.802 206.635 243.632 206.294 243.294 206.008C242.961 205.721 242.539 205.578 242.028 205.578C241.502 205.578 241.091 205.693 240.794 205.922C240.497 206.151 240.349 206.451 240.349 206.82C240.349 207.169 240.487 207.432 240.763 207.609C241.039 207.786 241.536 207.956 242.255 208.117C242.979 208.279 243.565 208.471 244.013 208.695C244.461 208.919 244.791 209.19 245.005 209.508C245.224 209.82 245.333 210.203 245.333 210.656C245.333 211.411 245.031 212.018 244.427 212.477C243.823 212.93 243.039 213.156 242.075 213.156C241.398 213.156 240.799 213.036 240.278 212.797C239.757 212.557 239.349 212.224 239.052 211.797C238.76 211.365 238.614 210.898 238.614 210.398H240.06C240.086 210.883 240.278 211.268 240.638 211.555C241.002 211.836 241.481 211.977 242.075 211.977C242.622 211.977 243.06 211.867 243.388 211.648C243.721 211.424 243.888 211.128 243.888 210.758ZM252.911 208.547V213H251.411V201.625H255.606C256.851 201.625 257.825 201.943 258.528 202.578C259.237 203.214 259.591 204.055 259.591 205.102C259.591 206.206 259.244 207.057 258.552 207.656C257.864 208.25 256.877 208.547 255.591 208.547H252.911ZM252.911 207.32H255.606C256.409 207.32 257.023 207.133 257.45 206.758C257.877 206.378 258.091 205.831 258.091 205.117C258.091 204.44 257.877 203.898 257.45 203.492C257.023 203.086 256.437 202.875 255.692 202.859H252.911V207.32ZM263.114 213H261.614V201.625H263.114V213ZM274.606 213H273.099L267.372 204.234V213H265.864V201.625H267.372L273.114 210.43V201.625H274.606V213Z" fill="#6654A4"/>
<path d="M37.92 201.688H40.768C41.056 199.448 42.688 197.912 45.408 197.912C48.192 197.912 49.664 199.448 49.664 201.656C49.664 204.344 47.584 205.528 43.712 205.56H42.944V207.992H43.68C47.84 207.992 50.112 209.24 50.112 212.504C50.112 214.872 48.64 216.696 45.536 216.696C42.464 216.696 40.672 214.808 40.384 212.344H37.568C37.92 216.824 41.184 219.16 45.568 219.16C50.4 219.16 52.896 216.344 52.896 212.76C52.896 209.432 51.072 207.448 48.384 206.808V206.648C50.816 206.104 52.48 204.024 52.48 201.368C52.48 198.04 50.016 195.416 45.504 195.416C41.216 195.416 38.208 197.72 37.92 201.688Z" fill="#6654A4"/>
<path d="M82.5361 293.547V298H81.0361V286.625H85.2314C86.4762 286.625 87.4502 286.943 88.1533 287.578C88.8617 288.214 89.2158 289.055 89.2158 290.102C89.2158 291.206 88.8695 292.057 88.1768 292.656C87.4893 293.25 86.5023 293.547 85.2158 293.547H82.5361ZM82.5361 292.32H85.2314C86.0335 292.32 86.6481 292.133 87.0752 291.758C87.5023 291.378 87.7158 290.831 87.7158 290.117C87.7158 289.44 87.5023 288.898 87.0752 288.492C86.6481 288.086 86.0622 287.875 85.3174 287.859H82.5361V292.32ZM96.0283 298C95.945 297.833 95.8773 297.536 95.8252 297.109C95.1533 297.807 94.3512 298.156 93.4189 298.156C92.5856 298.156 91.9007 297.922 91.3643 297.453C90.833 296.979 90.5674 296.38 90.5674 295.656C90.5674 294.776 90.9007 294.094 91.5674 293.609C92.2393 293.12 93.182 292.875 94.3955 292.875H95.8018V292.211C95.8018 291.706 95.6507 291.305 95.3486 291.008C95.0465 290.706 94.6012 290.555 94.0127 290.555C93.4971 290.555 93.0648 290.685 92.7158 290.945C92.3669 291.206 92.1924 291.521 92.1924 291.891H90.7393C90.7393 291.469 90.8877 291.062 91.1846 290.672C91.4867 290.276 91.8929 289.964 92.4033 289.734C92.9189 289.505 93.484 289.391 94.0986 289.391C95.0726 289.391 95.8356 289.635 96.3877 290.125C96.9398 290.609 97.2262 291.279 97.2471 292.133V296.023C97.2471 296.799 97.346 297.417 97.5439 297.875V298H96.0283ZM93.6299 296.898C94.083 296.898 94.5127 296.781 94.9189 296.547C95.3252 296.312 95.6195 296.008 95.8018 295.633V293.898H94.6689C92.8981 293.898 92.0127 294.417 92.0127 295.453C92.0127 295.906 92.1637 296.26 92.4658 296.516C92.7679 296.771 93.1559 296.898 93.6299 296.898ZM102.153 295.883L104.122 289.547H105.669L102.271 299.305C101.744 300.711 100.909 301.414 99.7627 301.414L99.4893 301.391L98.9502 301.289V300.117L99.3408 300.148C99.8304 300.148 100.211 300.049 100.481 299.852C100.757 299.654 100.984 299.292 101.161 298.766L101.481 297.906L98.4658 289.547H100.044L102.153 295.883ZM108.325 289.547L108.364 290.484C108.984 289.755 109.82 289.391 110.872 289.391C112.054 289.391 112.859 289.844 113.286 290.75C113.567 290.344 113.932 290.016 114.38 289.766C114.833 289.516 115.367 289.391 115.981 289.391C117.836 289.391 118.778 290.372 118.81 292.336V298H117.364V292.422C117.364 291.818 117.226 291.367 116.95 291.07C116.674 290.768 116.211 290.617 115.56 290.617C115.023 290.617 114.578 290.779 114.224 291.102C113.869 291.419 113.664 291.849 113.606 292.391V298H112.153V292.461C112.153 291.232 111.552 290.617 110.349 290.617C109.401 290.617 108.752 291.021 108.403 291.828V298H106.958V289.547H108.325ZM124.505 298.156C123.359 298.156 122.427 297.781 121.708 297.031C120.989 296.276 120.63 295.268 120.63 294.008V293.742C120.63 292.904 120.789 292.156 121.106 291.5C121.429 290.839 121.877 290.323 122.45 289.953C123.028 289.578 123.653 289.391 124.325 289.391C125.424 289.391 126.278 289.753 126.888 290.477C127.497 291.201 127.802 292.237 127.802 293.586V294.188H122.075C122.096 295.021 122.338 295.695 122.802 296.211C123.271 296.721 123.864 296.977 124.583 296.977C125.093 296.977 125.526 296.872 125.88 296.664C126.234 296.456 126.544 296.18 126.81 295.836L127.692 296.523C126.984 297.612 125.922 298.156 124.505 298.156ZM124.325 290.578C123.742 290.578 123.252 290.792 122.856 291.219C122.461 291.641 122.216 292.234 122.122 293H126.356V292.891C126.315 292.156 126.117 291.589 125.763 291.188C125.409 290.781 124.929 290.578 124.325 290.578ZM130.849 289.547L130.896 290.609C131.541 289.797 132.385 289.391 133.427 289.391C135.213 289.391 136.114 290.398 136.13 292.414V298H134.685V292.406C134.679 291.797 134.539 291.346 134.263 291.055C133.992 290.763 133.567 290.617 132.989 290.617C132.521 290.617 132.109 290.742 131.755 290.992C131.401 291.242 131.125 291.57 130.927 291.977V298H129.481V289.547H130.849ZM140.271 287.5V289.547H141.849V290.664H140.271V295.906C140.271 296.245 140.341 296.5 140.481 296.672C140.622 296.839 140.862 296.922 141.2 296.922C141.367 296.922 141.596 296.891 141.888 296.828V298C141.507 298.104 141.138 298.156 140.778 298.156C140.132 298.156 139.646 297.961 139.317 297.57C138.989 297.18 138.825 296.625 138.825 295.906V290.664H137.286V289.547H138.825V287.5H140.271ZM150.903 296.977C151.419 296.977 151.869 296.82 152.255 296.508C152.64 296.195 152.854 295.805 152.896 295.336H154.263C154.237 295.82 154.07 296.281 153.763 296.719C153.455 297.156 153.044 297.505 152.528 297.766C152.018 298.026 151.476 298.156 150.903 298.156C149.752 298.156 148.836 297.773 148.153 297.008C147.476 296.237 147.138 295.185 147.138 293.852V293.609C147.138 292.786 147.289 292.055 147.591 291.414C147.893 290.773 148.325 290.276 148.888 289.922C149.455 289.568 150.125 289.391 150.896 289.391C151.843 289.391 152.63 289.674 153.255 290.242C153.885 290.81 154.221 291.547 154.263 292.453H152.896C152.854 291.906 152.646 291.458 152.271 291.109C151.901 290.755 151.442 290.578 150.896 290.578C150.161 290.578 149.591 290.844 149.185 291.375C148.784 291.901 148.583 292.664 148.583 293.664V293.938C148.583 294.911 148.784 295.661 149.185 296.188C149.586 296.714 150.159 296.977 150.903 296.977ZM155.505 293.695C155.505 292.867 155.666 292.122 155.989 291.461C156.317 290.799 156.771 290.289 157.349 289.93C157.932 289.57 158.596 289.391 159.341 289.391C160.492 289.391 161.422 289.789 162.13 290.586C162.843 291.383 163.2 292.443 163.2 293.766V293.867C163.2 294.69 163.041 295.43 162.724 296.086C162.411 296.737 161.961 297.245 161.372 297.609C160.789 297.974 160.117 298.156 159.356 298.156C158.211 298.156 157.281 297.758 156.567 296.961C155.859 296.164 155.505 295.109 155.505 293.797V293.695ZM156.958 293.867C156.958 294.805 157.174 295.557 157.606 296.125C158.044 296.693 158.627 296.977 159.356 296.977C160.091 296.977 160.674 296.69 161.106 296.117C161.539 295.539 161.755 294.732 161.755 293.695C161.755 292.768 161.534 292.018 161.091 291.445C160.653 290.867 160.07 290.578 159.341 290.578C158.627 290.578 158.052 290.862 157.614 291.43C157.177 291.997 156.958 292.81 156.958 293.867ZM166.372 289.547L166.411 290.484C167.031 289.755 167.867 289.391 168.919 289.391C170.101 289.391 170.906 289.844 171.333 290.75C171.614 290.344 171.979 290.016 172.427 289.766C172.88 289.516 173.414 289.391 174.028 289.391C175.882 289.391 176.825 290.372 176.856 292.336V298H175.411V292.422C175.411 291.818 175.273 291.367 174.997 291.07C174.721 290.768 174.257 290.617 173.606 290.617C173.07 290.617 172.625 290.779 172.271 291.102C171.916 291.419 171.711 291.849 171.653 292.391V298H170.2V292.461C170.2 291.232 169.599 290.617 168.396 290.617C167.448 290.617 166.799 291.021 166.45 291.828V298H165.005V289.547H166.372ZM186.185 293.867C186.185 295.154 185.89 296.19 185.302 296.977C184.713 297.763 183.916 298.156 182.911 298.156C181.885 298.156 181.078 297.831 180.489 297.18V301.25H179.044V289.547H180.364L180.435 290.484C181.023 289.755 181.841 289.391 182.888 289.391C183.903 289.391 184.705 289.773 185.294 290.539C185.888 291.305 186.185 292.37 186.185 293.734V293.867ZM184.739 293.703C184.739 292.75 184.536 291.997 184.13 291.445C183.724 290.893 183.166 290.617 182.458 290.617C181.583 290.617 180.927 291.005 180.489 291.781V295.82C180.922 296.591 181.583 296.977 182.474 296.977C183.166 296.977 183.716 296.703 184.122 296.156C184.534 295.604 184.739 294.786 184.739 293.703ZM189.599 298H188.153V286H189.599V298ZM195.427 298.156C194.281 298.156 193.349 297.781 192.63 297.031C191.911 296.276 191.552 295.268 191.552 294.008V293.742C191.552 292.904 191.711 292.156 192.028 291.5C192.351 290.839 192.799 290.323 193.372 289.953C193.95 289.578 194.575 289.391 195.247 289.391C196.346 289.391 197.2 289.753 197.81 290.477C198.419 291.201 198.724 292.237 198.724 293.586V294.188H192.997C193.018 295.021 193.26 295.695 193.724 296.211C194.192 296.721 194.786 296.977 195.505 296.977C196.015 296.977 196.448 296.872 196.802 296.664C197.156 296.456 197.466 296.18 197.731 295.836L198.614 296.523C197.906 297.612 196.843 298.156 195.427 298.156ZM195.247 290.578C194.664 290.578 194.174 290.792 193.778 291.219C193.382 291.641 193.138 292.234 193.044 293H197.278V292.891C197.237 292.156 197.039 291.589 196.685 291.188C196.33 290.781 195.851 290.578 195.247 290.578ZM202.364 287.5V289.547H203.942V290.664H202.364V295.906C202.364 296.245 202.435 296.5 202.575 296.672C202.716 296.839 202.955 296.922 203.294 296.922C203.461 296.922 203.69 296.891 203.981 296.828V298C203.601 298.104 203.231 298.156 202.872 298.156C202.226 298.156 201.739 297.961 201.411 297.57C201.083 297.18 200.919 296.625 200.919 295.906V290.664H199.38V289.547H200.919V287.5H202.364ZM209.146 298.156C208 298.156 207.067 297.781 206.349 297.031C205.63 296.276 205.271 295.268 205.271 294.008V293.742C205.271 292.904 205.429 292.156 205.747 291.5C206.07 290.839 206.518 290.323 207.091 289.953C207.669 289.578 208.294 289.391 208.966 289.391C210.065 289.391 210.919 289.753 211.528 290.477C212.138 291.201 212.442 292.237 212.442 293.586V294.188H206.716C206.737 295.021 206.979 295.695 207.442 296.211C207.911 296.721 208.505 296.977 209.224 296.977C209.734 296.977 210.166 296.872 210.521 296.664C210.875 296.456 211.185 296.18 211.45 295.836L212.333 296.523C211.625 297.612 210.562 298.156 209.146 298.156ZM208.966 290.578C208.382 290.578 207.893 290.792 207.497 291.219C207.101 291.641 206.856 292.234 206.763 293H210.997V292.891C210.955 292.156 210.757 291.589 210.403 291.188C210.049 290.781 209.57 290.578 208.966 290.578Z" fill="#656668"/>
<path d="M48.12 304H51V298.848H54.2V296.32H51V281.088H47.512L36.28 296.64V298.848H48.12V304ZM39.64 296.32L48.248 284.128V296.32H39.64Z" fill="#656668"/>
<defs>
<filter id="filter0_d" x="0" y="154" width="594.56" height="113" filterUnits="userSpaceOnUse" color-interpolation-filters="sRGB">
<feFlood flood-opacity="0" result="BackgroundImageFix"/>
<feColorMatrix in="SourceAlpha" type="matrix" values="0 0 0 0 0 0 0 0 0 0 0 0 0 0 0 0 0 0 127 0"/>
<feMorphology radius="4" operator="dilate" in="SourceAlpha" result="effect1_dropShadow"/>
<feOffset dy="3"/>
<feGaussianBlur stdDeviation="7.5"/>
<feColorMatrix type="matrix" values="0 0 0 0 0.872109 0 0 0 0 0.853125 0 0 0 0 0.9375 0 0 0 0.5 0"/>
<feBlend mode="normal" in2="BackgroundImageFix" result="effect1_dropShadow"/>
<feBlend mode="normal" in="SourceGraphic" in2="effect1_dropShadow" result="shape"/>
</filter>
</defs>
</svg>
