<svg width="306" height="75" viewBox="0 0 306 75" fill="none" xmlns="http://www.w3.org/2000/svg">
<path d="M96.8464 15.1C96.4064 15.1933 95.9931 15.24 95.6064 15.24C93.7264 15.24 92.2797 14.5067 91.2664 13.04C90.4664 11.8667 90.0664 10.44 90.0664 8.76C90.0664 6.76 90.5997 5.13333 91.6664 3.88C92.6797 2.69333 93.9931 2.1 95.6064 2.1C97.4731 2.1 98.9197 2.86667 99.9464 4.4C100.746 5.61333 101.146 7.06667 101.146 8.76C101.146 10.04 100.9 11.1933 100.406 12.22C99.9264 13.2333 99.2597 14 98.4064 14.52L100.886 17.14H98.7264L96.8464 15.1ZM92.0264 8.76C92.0264 10.36 92.3664 11.5933 93.0464 12.46C93.6731 13.2467 94.5264 13.64 95.6064 13.64C96.8464 13.64 97.7797 13.1333 98.4064 12.12C98.9264 11.2667 99.1864 10.1467 99.1864 8.76C99.1864 7.14667 98.8464 5.88 98.1664 4.96C97.5397 4.12 96.6864 3.7 95.6064 3.7C94.3797 3.7 93.4464 4.24 92.8064 5.32C92.2864 6.21333 92.0264 7.36 92.0264 8.76ZM103.952 15V2.36C105.126 2.18667 106.206 2.1 107.192 2.1C110.259 2.1 111.792 3.39333 111.792 5.98C111.792 7.66 111.099 8.84667 109.712 9.54L112.232 15H110.352L108.072 10C107.899 10.0267 107.646 10.04 107.312 10.04C106.846 10.04 106.346 9.99333 105.812 9.9V15H103.952ZM105.812 3.72V8.4C106.346 8.49333 106.846 8.54 107.312 8.54C108.992 8.54 109.832 7.68667 109.832 5.98C109.832 4.38 108.986 3.58 107.292 3.58C106.679 3.58 106.186 3.62667 105.812 3.72ZM129.446 13.74C129.446 15.3267 128.893 16.5933 127.786 17.54C126.813 18.38 125.573 18.8 124.066 18.8C122.28 18.8 120.9 18.2 119.926 17C119.18 16.0667 118.806 14.9533 118.806 13.66C118.806 12.5267 119.08 11.56 119.626 10.76L121.346 10.38C120.733 11.3267 120.426 12.36 120.426 13.48C120.426 14.5867 120.78 15.4933 121.486 16.2C122.14 16.8533 123 17.18 124.066 17.18C125.28 17.18 126.213 16.82 126.866 16.1C127.426 15.4867 127.706 14.7 127.706 13.74V3.02L129.446 2.1V13.74ZM133.054 15V3.02L134.774 2.1V15H133.054ZM141.434 15L142.274 13.38H145.834C146.368 13.38 146.741 13.2467 146.954 12.98C147.181 12.7133 147.294 12.2533 147.294 11.6C147.294 9.81333 146.488 8.46 144.874 7.54L145.714 6.12C147.914 7.37333 149.014 9.20667 149.014 11.62C149.014 13.8733 148.054 15 146.134 15H141.434ZM161.554 13.38V15H159.074C159.021 16.1467 158.527 17.0933 157.594 17.84C156.807 18.4533 155.914 18.76 154.914 18.76C154.087 18.76 153.307 18.5667 152.574 18.18V16.66C153.281 17.0333 153.981 17.22 154.674 17.22C155.381 17.22 155.994 17 156.514 16.56C157.047 16.12 157.321 15.5933 157.334 14.98C156.641 14.9533 156.127 14.9267 155.794 14.9C154.354 14.82 153.267 14.3333 152.534 13.44C151.921 12.6933 151.614 11.7267 151.614 10.54C151.614 9.08667 152.001 7.95333 152.774 7.14C153.467 6.42 154.381 6.06 155.514 6.06C156.701 6.06 157.614 6.41333 158.254 7.12C158.801 7.74667 159.074 8.56667 159.074 9.58V13.38H161.554ZM157.334 9.7C157.334 8.34 156.727 7.66 155.514 7.66C154.821 7.66 154.281 7.91333 153.894 8.42C153.507 8.91333 153.314 9.60667 153.314 10.5C153.314 12.2467 154.167 13.1733 155.874 13.28C156.194 13.32 156.681 13.3533 157.334 13.38V9.7ZM164.301 6.54C164.314 6.54 164.334 6.54 164.361 6.54C164.388 6.54 164.408 6.54 164.421 6.54C165.928 6.54 167.148 7.00667 168.081 7.94C168.934 8.78 169.361 9.85333 169.361 11.16V11.5C169.361 12.6467 169.008 13.54 168.301 14.18C167.674 14.7267 166.868 15 165.881 15H160.361V13.38H165.721C167.001 13.38 167.641 12.7067 167.641 11.36V11.18C167.641 10.1933 167.254 9.43333 166.481 8.9C165.868 8.48667 165.121 8.28 164.241 8.28C163.534 8.28 162.821 8.40667 162.101 8.66V6.96L166.481 2.1H168.241L164.301 6.54ZM175.638 21.3V16.94C175.638 15.8067 175.965 14.9267 176.618 14.3C177.205 13.7267 178.018 13.42 179.058 13.38C178.458 12.7 178.158 11.7533 178.158 10.54C178.158 9.08667 178.538 7.95333 179.298 7.14C179.978 6.42 180.872 6.06 181.978 6.06C183.112 6.06 183.985 6.41333 184.598 7.12C185.145 7.74667 185.418 8.56667 185.418 9.58V11.74C185.405 12.74 185.092 13.5267 184.478 14.1C183.865 14.6733 183.018 14.9733 181.938 15H179.318C178.012 15 177.358 15.6667 177.358 17V20.38L175.638 21.3ZM183.698 9.66C183.698 8.32667 183.125 7.66 181.978 7.66C181.312 7.66 180.792 7.91333 180.418 8.42C180.058 8.91333 179.878 9.60667 179.878 10.5C179.878 11.4067 180.052 12.1133 180.398 12.62C180.745 13.1267 181.232 13.38 181.858 13.38C183.085 13.38 183.698 12.76 183.698 11.52V9.66ZM188.816 15V3.02L190.536 2.1V15H188.816ZM192.528 15L193.368 13.38H196.928C197.461 13.38 197.835 13.2467 198.048 12.98C198.275 12.7133 198.388 12.2533 198.388 11.6C198.388 9.82667 197.568 8.49333 195.928 7.6L196.808 6.12C198.901 7.34667 199.995 9.04 200.088 11.2C200.115 11.9733 200.288 12.5333 200.608 12.88C200.941 13.2133 201.468 13.38 202.188 13.38H203.368V15H202.048C200.941 15 200.075 14.6467 199.448 13.94C199.008 14.6467 198.268 15 197.228 15H192.528ZM208.237 3.9C207.584 3.9 207.257 3.56667 207.257 2.9C207.257 2.24667 207.584 1.92 208.237 1.92C208.877 1.92 209.197 2.24667 209.197 2.9C209.197 3.56667 208.877 3.9 208.237 3.9ZM215.217 13.38H216.517V15H215.197C214.117 15 213.251 14.88 212.597 14.64C211.944 14.3867 211.337 13.9467 210.777 13.32C209.097 14.44 207.137 15 204.897 15H202.177V13.38H204.917C207.624 13.38 209.764 12.4867 211.337 10.7C210.231 8.66 208.884 7.64 207.297 7.64C206.217 7.64 205.104 8.21333 203.957 9.36V7.76C205.077 6.62667 206.264 6.06 207.517 6.06C208.544 6.06 209.537 6.43333 210.497 7.18C211.457 7.91333 212.304 8.96667 213.037 10.34V11.22C212.624 11.74 212.231 12.16 211.857 12.48C212.577 13.08 213.697 13.38 215.217 13.38ZM217.562 4.04C216.909 4.04 216.582 3.70667 216.582 3.04C216.582 2.38667 216.909 2.06 217.562 2.06C218.202 2.06 218.522 2.38667 218.522 3.04C218.522 3.70667 218.202 4.04 217.562 4.04ZM220.122 4.04C219.469 4.04 219.142 3.70667 219.142 3.04C219.142 2.38667 219.469 2.06 220.122 2.06C220.762 2.06 221.082 2.38667 221.082 3.04C221.082 3.70667 220.762 4.04 220.122 4.04ZM222.282 13.38H223.602V15H222.082C220.975 15 220.102 14.6467 219.462 13.94C218.822 14.6467 217.949 15 216.842 15H215.322V13.38H216.642C217.949 13.38 218.602 12.7133 218.602 11.38V7.24L220.322 6.32V11.38C220.322 12.7133 220.975 13.38 222.282 13.38ZM222.392 15V13.38H224.192C225.486 13.38 226.132 12.7133 226.132 11.38V8.58L227.852 7.66V11.38C227.852 12.7133 228.506 13.38 229.812 13.38H230.732C232.039 13.38 232.692 12.7133 232.692 11.38V7.9L234.412 7V11.38C234.412 12.7133 235.059 13.38 236.352 13.38H237.292C238.599 13.38 239.252 12.7133 239.252 11.38V7.24L240.972 6.32V11.44C240.972 12.5733 240.632 13.46 239.952 14.1C239.352 14.6867 238.552 14.9867 237.552 15H236.172C234.999 15 234.126 14.6067 233.552 13.82C232.979 14.5933 232.126 14.9867 230.992 15H229.612C228.466 15 227.592 14.6067 226.992 13.82C226.419 14.6067 225.546 15 224.372 15H222.392ZM248.057 15C246.897 15 246.004 14.6267 245.377 13.88C244.844 13.24 244.577 12.4267 244.577 11.44V3.02L246.297 2.1V11.38C246.297 12.7133 246.951 13.38 248.257 13.38H249.577V15H248.057ZM248.369 15V13.38H249.689C250.995 13.38 251.649 12.7133 251.649 11.38V7.24L253.369 6.32V11.44C253.369 12.5733 253.029 13.4667 252.349 14.12C251.722 14.7067 250.902 15 249.889 15H248.369ZM251.589 18.98C250.935 18.98 250.609 18.6467 250.609 17.98C250.609 17.3267 250.935 17 251.589 17C252.229 17 252.549 17.3267 252.549 17.98C252.549 18.6467 252.229 18.98 251.589 18.98ZM266.108 14.52C264.841 15.28 264.075 15.8 263.808 16.08C263.275 16.6 263.008 17.2467 263.008 18.02C263.008 18.8733 263.301 19.56 263.888 20.08C264.475 20.6133 265.235 20.88 266.168 20.88C267.635 20.8667 268.861 20.5133 269.848 19.82V21.44C268.701 22.1467 267.448 22.5 266.088 22.5C264.608 22.5 263.421 22.0133 262.528 21.04C261.755 20.2133 261.368 19.1933 261.368 17.98C261.368 17.0733 261.608 16.3 262.088 15.66C262.568 15.0333 263.415 14.3733 264.628 13.68C263.535 12.88 262.415 11.6267 261.268 9.92V9.04C261.921 8.10667 262.688 7.38 263.568 6.86C264.448 6.32667 265.341 6.06 266.248 6.06C267.141 6.06 268.035 6.33333 268.928 6.88C269.821 7.41333 270.588 8.14667 271.228 9.08V9.92C270.548 10.9467 269.421 12.0867 267.848 13.34C268.141 13.3667 268.375 13.38 268.548 13.38H273.828L273.848 15H268.408C267.621 15 266.855 14.84 266.108 14.52ZM262.868 9.5C264.068 11.14 265.161 12.2267 266.148 12.76C267.441 11.88 268.601 10.78 269.628 9.46C268.641 8.26 267.515 7.65333 266.248 7.64C264.968 7.64 263.841 8.26 262.868 9.5ZM279.166 4.02C278.513 4.02 278.186 3.68667 278.186 3.02C278.186 2.36667 278.513 2.04 279.166 2.04C279.806 2.04 280.126 2.36667 280.126 3.02C280.126 3.68667 279.806 4.02 279.166 4.02ZM272.646 15V13.38H276.246C275.633 12.7 275.326 11.7533 275.326 10.54C275.326 9.08667 275.706 7.95333 276.466 7.14C277.133 6.42 278.019 6.06 279.126 6.06C280.259 6.06 281.139 6.41333 281.766 7.12C282.299 7.74667 282.566 8.56667 282.566 9.58V11.48C282.553 12.5867 282.226 13.46 281.586 14.1C280.959 14.7 280.126 15 279.086 15H272.646ZM280.846 9.66C280.846 8.32667 280.273 7.66 279.126 7.66C278.473 7.66 277.959 7.91333 277.586 8.42C277.213 8.91333 277.026 9.60667 277.026 10.5C277.026 11.38 277.206 12.08 277.566 12.6C277.926 13.12 278.406 13.38 279.006 13.38C280.233 13.38 280.846 12.74 280.846 11.46V9.66ZM284.364 15L285.204 13.38H288.764C289.297 13.38 289.671 13.2467 289.884 12.98C290.111 12.7133 290.224 12.2533 290.224 11.6C290.224 9.82667 289.404 8.49333 287.764 7.6L288.644 6.12C290.737 7.34667 291.831 9.04 291.924 11.2C291.951 11.9733 292.124 12.5333 292.444 12.88C292.777 13.2133 293.304 13.38 294.024 13.38H295.204V15H293.884C292.777 15 291.911 14.6467 291.284 13.94C290.844 14.6467 290.104 15 289.064 15H284.364ZM294.013 15V13.38H295.073C296.46 13.38 297.153 12.6533 297.153 11.2V3.02L298.893 2.1V11.22C298.893 12.4067 298.54 13.3467 297.833 14.04C297.167 14.68 296.293 15 295.213 15H294.013ZM302.488 15V3.02L304.208 2.1V15H302.488Z" fill="#6654A4"/>
<path d="M11.5281 59.68L13.4961 61.744H12.1201L10.5361 60.048C10.1735 60.144 9.82146 60.192 9.48013 60.192C8.01879 60.192 6.88279 59.5947 6.07213 58.4C5.44279 57.4507 5.12813 56.304 5.12813 54.96C5.12813 53.392 5.54413 52.1067 6.37613 51.104C7.17613 50.1547 8.21079 49.68 9.48013 49.68C10.9415 49.68 12.0775 50.2933 12.8881 51.52C13.5175 52.48 13.8321 53.6267 13.8321 54.96C13.8321 56.0267 13.6241 56.9813 13.2081 57.824C12.8028 58.656 12.2428 59.2747 11.5281 59.68ZM6.39213 54.96C6.39213 56.3147 6.68546 57.3653 7.27213 58.112C7.81613 58.8053 8.55213 59.152 9.48013 59.152C10.5468 59.152 11.3521 58.7093 11.8961 57.824C12.3441 57.088 12.5681 56.1333 12.5681 54.96C12.5681 53.616 12.2748 52.56 11.6881 51.792C11.1441 51.0667 10.4081 50.704 9.48013 50.704C8.42413 50.704 7.61879 51.168 7.06413 52.096C6.61613 52.8427 6.39213 53.7973 6.39213 54.96ZM16.065 60V49.872C17.0143 49.744 17.8357 49.68 18.529 49.68C20.9183 49.68 22.113 50.704 22.113 52.752C22.113 54.1493 21.5157 55.088 20.321 55.568L22.353 60H21.153L19.281 55.856L19.265 55.84C19.0837 55.8613 18.8597 55.872 18.593 55.872C18.177 55.872 17.729 55.84 17.249 55.776V60H16.065ZM17.249 50.736V54.816C17.633 54.88 18.0597 54.912 18.529 54.912C20.0863 54.912 20.865 54.192 20.865 52.752C20.865 51.3333 20.0863 50.624 18.529 50.624C18.0383 50.624 17.6117 50.6613 17.249 50.736ZM36.1725 59.136C36.1725 60.3733 35.7512 61.3547 34.9085 62.08C34.1512 62.72 33.1858 63.04 32.0125 63.04C30.6258 63.04 29.5592 62.5653 28.8125 61.616C28.2258 60.88 27.9325 60 27.9325 58.976C27.9325 58.048 28.1672 57.264 28.6365 56.624L29.6925 56.384C29.1698 57.152 28.9085 57.9947 28.9085 58.912C28.9085 59.8507 29.2125 60.6187 29.8205 61.216C30.3965 61.7813 31.1272 62.064 32.0125 62.064C33.0365 62.064 33.8312 61.7547 34.3965 61.136C34.8765 60.624 35.1165 59.9573 35.1165 59.136V50.24L36.1725 49.68V59.136ZM39.0494 60V50.24L40.1214 49.68V60H39.0494ZM45.5663 60L46.0783 59.008H49.0863C49.5769 59.008 49.9183 58.8853 50.1102 58.64C50.3129 58.3947 50.4143 57.968 50.4143 57.36C50.4143 55.8027 49.7316 54.6347 48.3663 53.856L48.8783 52.976C50.6169 53.9893 51.4863 55.456 51.4863 57.376C51.4863 59.1253 50.7449 60 49.2623 60H45.5663ZM61.0578 59.008V60H59.3618C59.3511 60.704 59.1218 61.3227 58.6738 61.856C58.2364 62.4 57.6658 62.7573 56.9618 62.928C56.7058 63.0027 56.4284 63.04 56.1298 63.04C55.5111 63.04 54.9084 62.8907 54.3218 62.592V61.648C54.8764 61.9467 55.4258 62.096 55.9698 62.096C56.4071 62.096 56.7911 62 57.1218 61.808C57.4524 61.6373 57.7298 61.376 57.9538 61.024C58.1778 60.6827 58.2898 60.3413 58.2898 60L56.9298 59.952C55.7458 59.8987 54.8604 59.5253 54.2738 58.832C53.7938 58.2453 53.5538 57.4613 53.5538 56.48C53.5538 55.328 53.8524 54.4373 54.4498 53.808C54.9831 53.2427 55.6978 52.96 56.5938 52.96C57.5218 52.96 58.2311 53.2373 58.7218 53.792C59.1484 54.272 59.3618 54.912 59.3618 55.712V59.008H61.0578ZM58.2898 55.824C58.2898 54.5653 57.7244 53.936 56.5938 53.936C55.9644 53.936 55.4738 54.16 55.1218 54.608C54.7804 55.0453 54.6098 55.664 54.6098 56.464C54.6098 58.0533 55.3938 58.8853 56.9618 58.96C57.4311 58.992 57.8738 59.008 58.2898 59.008V55.824ZM63.2586 53.392C63.3653 53.3813 63.4773 53.376 63.5946 53.376C64.5546 53.376 65.376 53.6107 66.0586 54.08C66.9973 54.752 67.4666 55.712 67.4666 56.96V57.264C67.4666 58.16 67.1893 58.8587 66.6346 59.36C66.1546 59.7867 65.5306 60 64.7626 60H60.7306V59.008H64.6506C65.8133 59.008 66.3946 58.384 66.3946 57.136V56.976C66.3946 56.112 66.0853 55.4667 65.4666 55.04C64.9546 54.656 64.304 54.464 63.5146 54.464C62.9386 54.464 62.368 54.5653 61.8026 54.768V53.712L65.4346 49.68H66.5386L63.2586 53.392ZM79.1136 51.088C78.6763 51.088 78.4576 50.864 78.4576 50.416C78.4576 49.9893 78.6763 49.776 79.1136 49.776C79.5296 49.776 79.7376 49.9893 79.7376 50.416C79.7376 50.864 79.5296 51.088 79.1136 51.088ZM80.9376 51.088C80.5003 51.088 80.2816 50.864 80.2816 50.416C80.2816 49.9893 80.5003 49.776 80.9376 49.776C81.3536 49.776 81.5616 49.9893 81.5616 50.416C81.5616 50.864 81.3536 51.088 80.9376 51.088ZM82.6976 60C82.4416 62.0267 80.8843 63.04 78.0256 63.04C76.383 63.04 75.1456 62.56 74.3136 61.6C73.695 60.8853 73.3856 60.0053 73.3856 58.96C73.3856 58.0427 73.6203 57.2533 74.0896 56.592L75.1296 56.384C74.6176 57.1627 74.3616 57.9947 74.3616 58.88C74.3616 59.8507 74.6976 60.624 75.3696 61.2C76.0203 61.7653 76.9056 62.048 78.0256 62.048C80.1803 62.048 81.3696 61.36 81.5936 59.984L81.1616 59.952C79.6576 59.888 78.5856 59.552 77.9456 58.944C77.3696 58.3893 77.0816 57.568 77.0816 56.48C77.0816 55.328 77.3803 54.4373 77.9776 53.808C78.5003 53.2427 79.1936 52.96 80.0576 52.96C80.943 52.96 81.6256 53.2373 82.1056 53.792C82.5216 54.272 82.7296 54.912 82.7296 55.712V59.008H84.4256V60H82.6976ZM81.6576 59.008V55.808C81.6576 54.56 81.1243 53.936 80.0576 53.936C79.4496 53.936 78.975 54.16 78.6336 54.608C78.303 55.056 78.1376 55.6747 78.1376 56.464C78.1376 57.3493 78.3616 57.984 78.8096 58.368C79.2683 58.7413 80.0576 58.9493 81.1776 58.992L81.6576 59.008ZM84.1056 60V59.008H84.6656C85.839 59.008 86.4256 58.4 86.4256 57.184V53.712L87.4976 53.152V57.216C87.4976 58.112 87.2363 58.8107 86.7136 59.312C86.2336 59.7707 85.5936 60 84.7936 60H84.1056ZM84.6336 62.992C84.1963 62.992 83.9776 62.768 83.9776 62.32C83.9776 61.8933 84.1963 61.68 84.6336 61.68C85.0496 61.68 85.2576 61.8933 85.2576 62.32C85.2576 62.768 85.0496 62.992 84.6336 62.992ZM86.4576 62.992C86.0203 62.992 85.8016 62.768 85.8016 62.32C85.8016 61.8933 86.0203 61.68 86.4576 61.68C86.8736 61.68 87.0816 61.8933 87.0816 62.32C87.0816 62.768 86.8736 62.992 86.4576 62.992ZM94.2495 59.008H94.8095V60H94.1215C93.4602 60 92.9108 59.84 92.4735 59.52C92.3882 61.2907 91.6735 62.4107 90.3295 62.88C89.9882 62.9973 89.6255 63.056 89.2415 63.056C88.6228 63.056 88.0255 62.9067 87.4495 62.608V61.664C87.9935 61.9627 88.5482 62.112 89.1135 62.112C89.5615 62.112 89.9562 62.0107 90.2975 61.808C91.0442 61.36 91.4175 60.5227 91.4175 59.296V53.712L92.4735 53.152V53.168L92.4895 53.152V57.184C92.4895 58.4 93.0762 59.008 94.2495 59.008ZM98.1923 56.4C99.4403 54.1067 101.094 52.96 103.152 52.96C104.347 52.96 105.296 53.3707 106 54.192C106.598 54.896 106.896 55.7653 106.896 56.8V57.36C106.896 59.12 106.128 60 104.592 60H94.4962V59.008H97.2003V50.24L98.1923 49.68V56.4ZM105.824 56.8C105.824 55.904 105.542 55.184 104.976 54.64C104.496 54.1707 103.894 53.936 103.168 53.936C101.92 53.936 100.811 54.5387 99.8403 55.744C99.1043 56.6507 98.5603 57.7387 98.2083 59.008H104.48C104.992 59.008 105.344 58.8907 105.536 58.656C105.728 58.4107 105.824 57.968 105.824 57.328V56.8ZM116.995 52.672C116.557 52.672 116.339 52.448 116.339 52C116.339 51.5733 116.557 51.36 116.995 51.36C117.411 51.36 117.619 51.5733 117.619 52C117.619 52.448 117.411 52.672 116.995 52.672ZM122.915 59.008H123.475V60H122.787C122.125 60 121.576 59.8453 121.139 59.536C121.064 60.656 120.616 61.536 119.795 62.176C119.069 62.752 118.152 63.04 117.043 63.04C115.688 63.04 114.637 62.56 113.891 61.6C113.304 60.864 113.011 59.984 113.011 58.96C113.011 58.0427 113.245 57.2533 113.715 56.592L114.755 56.384C114.243 57.1627 113.987 57.9947 113.987 58.88C113.987 59.8187 114.291 60.592 114.899 61.2C115.464 61.7653 116.179 62.048 117.043 62.048C118.056 62.048 118.84 61.7493 119.395 61.152C119.853 60.6613 120.083 60.016 120.083 59.216V53.712L121.155 53.152V57.184C121.155 58.4 121.741 59.008 122.915 59.008ZM131.345 59.008V60H123.152V59.008H125.841C125.169 58.3253 124.833 57.4187 124.833 56.288C124.833 55.2107 125.201 54.3573 125.937 53.728C126.523 53.2267 127.211 52.9707 128.001 52.96C129.099 52.96 129.958 53.392 130.577 54.256V55.312C129.937 54.3947 129.115 53.936 128.113 53.936H128.065C127.425 53.936 126.902 54.1547 126.497 54.592C126.102 55.0293 125.905 55.6053 125.905 56.32C125.905 57.1413 126.15 57.7973 126.641 58.288C127.11 58.768 127.739 59.008 128.529 59.008H131.345ZM141.184 52.832C140.747 52.832 140.528 52.608 140.528 52.16C140.528 51.7333 140.747 51.52 141.184 51.52C141.6 51.52 141.808 51.7333 141.808 52.16C141.808 52.608 141.6 52.832 141.184 52.832ZM145.248 59.216C145.248 60.4213 144.832 61.3813 144 62.096C143.264 62.7253 142.31 63.04 141.136 63.04C139.782 63.04 138.731 62.56 137.984 61.6C137.398 60.864 137.104 59.984 137.104 58.96C137.104 58.0427 137.339 57.2533 137.808 56.592L138.848 56.384C138.336 57.1627 138.08 57.9947 138.08 58.88C138.08 59.8187 138.384 60.592 138.992 61.2C139.558 61.7653 140.272 62.048 141.136 62.048C142.15 62.048 142.934 61.7493 143.488 61.152C143.947 60.6613 144.176 60.016 144.176 59.216V53.712L145.248 53.152V59.216ZM150.832 60C149.925 60 149.226 59.7067 148.736 59.12C148.33 58.6187 148.128 57.984 148.128 57.216V50.24L149.2 49.68V57.184C149.2 58.4 149.786 59.008 150.96 59.008H151.52V60H150.832ZM159.695 59.008H160.095V60H159.567C158.607 60 157.887 59.6747 157.407 59.024C156.927 59.6747 156.202 60 155.231 60H151.199V59.008H155.119C156.282 59.008 156.863 58.384 156.863 57.136V56.976C156.863 56.1013 156.543 55.4453 155.903 55.008C155.391 54.6453 154.751 54.464 153.983 54.464C153.407 54.464 152.837 54.5653 152.271 54.768V53.712L155.903 49.68H157.007L153.727 53.392C153.834 53.3813 153.946 53.376 154.063 53.376C155.087 53.376 155.941 53.6373 156.623 54.16C157.498 54.832 157.935 55.7653 157.935 56.96V57.184C157.935 58.4 158.522 59.008 159.695 59.008ZM162.098 55.712C162.098 54.8053 162.37 54.1013 162.914 53.6C163.383 53.1733 164.002 52.96 164.77 52.96C165.762 52.96 166.524 53.3227 167.058 54.048C167.516 54.6667 167.746 55.4773 167.746 56.48C167.746 57.6213 167.452 58.512 166.866 59.152C166.354 59.7173 165.687 60 164.866 60C163.863 60 163.116 59.68 162.626 59.04C162.146 59.68 161.426 60 160.465 60H159.777V59.008H160.338C161.511 59.008 162.098 58.4 162.098 57.184V55.712ZM163.17 57.248C163.17 58.4213 163.746 59.008 164.898 59.008C165.452 59.008 165.89 58.784 166.21 58.336C166.53 57.888 166.69 57.264 166.69 56.464C166.69 55.6747 166.519 55.056 166.178 54.608C165.847 54.16 165.378 53.936 164.77 53.936C163.703 53.936 163.17 54.56 163.17 55.808V57.248ZM182.589 55.2C181.917 54.432 181.17 54.048 180.349 54.048C179.89 54.048 179.528 54.1867 179.261 54.464C178.994 54.7307 178.861 55.0987 178.861 55.568V55.6C178.872 56.0907 179.021 56.4747 179.309 56.752C179.597 57.0293 180.157 57.312 180.989 57.6C181.864 57.9093 182.456 58.2187 182.765 58.528C183.085 58.8373 183.245 59.2747 183.245 59.84C183.245 60.7893 182.792 61.568 181.885 62.176C181.032 62.752 179.922 63.04 178.557 63.04C176.914 63.04 175.677 62.56 174.845 61.6C174.226 60.8853 173.917 60.0053 173.917 58.96C173.917 58.0427 174.152 57.2533 174.621 56.592L175.661 56.384C175.149 57.1627 174.893 57.9947 174.893 58.88C174.893 59.8507 175.229 60.624 175.901 61.2C176.552 61.7653 177.437 62.048 178.557 62.048C179.784 62.048 180.733 61.792 181.405 61.28C181.928 60.8747 182.189 60.3947 182.189 59.84C182.189 59.5093 182.072 59.248 181.837 59.056C181.602 58.864 181.138 58.6453 180.445 58.4C179.549 58.08 178.925 57.7653 178.573 57.456C178.072 56.9973 177.821 56.3733 177.821 55.584C177.821 54.7627 178.114 54.1173 178.701 53.648C179.16 53.2853 179.682 53.104 180.269 53.104C181.208 53.104 181.981 53.456 182.589 54.16V55.2ZM177.549 65.68C177.112 65.68 176.893 65.4613 176.893 65.024C176.893 64.5867 177.112 64.368 177.549 64.368C177.965 64.368 178.173 64.5867 178.173 65.024C178.173 65.4613 177.965 65.68 177.549 65.68ZM179.373 65.68C178.946 65.68 178.733 65.4613 178.733 65.024C178.733 64.5867 178.946 64.368 179.373 64.368C179.8 64.368 180.013 64.5867 180.013 65.024C180.013 65.4613 179.8 65.68 179.373 65.68ZM185.643 60V50.24L186.715 49.68V60H185.643ZM202.448 60C202.363 60.9173 201.883 61.6587 201.008 62.224C200.165 62.768 199.083 63.04 197.76 63.04C196.117 63.04 194.88 62.56 194.048 61.6C193.429 60.8853 193.12 60.0053 193.12 58.96C193.12 58.0427 193.355 57.2533 193.824 56.592L194.864 56.384C194.352 57.1627 194.096 57.9947 194.096 58.88C194.096 59.8613 194.432 60.6453 195.104 61.232C195.744 61.7973 196.629 62.08 197.76 62.08C198.923 62.08 199.835 61.8347 200.496 61.344C200.987 60.9813 201.275 60.5333 201.36 60H199.728L200.24 59.008H202.496V60H202.448ZM196.752 65.68C196.315 65.68 196.096 65.4613 196.096 65.024C196.096 64.5867 196.315 64.368 196.752 64.368C197.168 64.368 197.376 64.5867 197.376 65.024C197.376 65.4613 197.168 65.68 196.752 65.68ZM198.576 65.68C198.149 65.68 197.936 65.4613 197.936 65.024C197.936 64.5867 198.149 64.368 198.576 64.368C199.003 64.368 199.216 64.5867 199.216 65.024C199.216 65.4613 199.003 65.68 198.576 65.68ZM206.829 51.072C206.392 51.072 206.173 50.848 206.173 50.4C206.173 49.9733 206.392 49.76 206.829 49.76C207.245 49.76 207.453 49.9733 207.453 50.4C207.453 50.848 207.245 51.072 206.829 51.072ZM201.965 60V59.008H204.685C204.098 58.4213 203.805 57.5787 203.805 56.48C203.805 55.328 204.104 54.4373 204.701 53.808C205.224 53.2427 205.917 52.96 206.781 52.96C207.666 52.96 208.349 53.2373 208.829 53.792C209.245 54.272 209.453 54.912 209.453 55.712V57.264C209.442 58.128 209.181 58.8053 208.669 59.296C208.2 59.7653 207.56 60 206.749 60H201.965ZM208.397 55.808C208.397 54.56 207.858 53.936 206.781 53.936C206.184 53.936 205.714 54.16 205.373 54.608C205.042 55.0453 204.877 55.664 204.877 56.464C204.877 57.2427 205.037 57.8613 205.357 58.32C205.688 58.7787 206.125 59.008 206.669 59.008C207.821 59.008 208.397 58.4107 208.397 57.216V55.808ZM228.802 59.008H229.346V60H228.658C227.698 60 226.978 59.6747 226.498 59.024C226.018 59.6747 225.293 60 224.322 60H218.61C217.821 60 217.191 59.7547 216.722 59.264C216.253 58.7627 216.018 58.0907 216.018 57.248V55.152L217.09 54.592V57.12C217.09 58.3787 217.677 59.008 218.85 59.008H224.21C225.373 59.008 225.954 58.3787 225.954 57.12V50.24L227.026 49.68V57.184C227.026 58.4 227.618 59.008 228.802 59.008ZM221.458 52.368C221.895 52.368 222.242 52.4853 222.498 52.72C222.754 52.9547 222.882 53.2693 222.882 53.664C222.882 54.016 222.775 54.2987 222.562 54.512C222.359 54.7147 222.087 54.816 221.746 54.816H219.762L220.066 54.256H221.698C222.103 54.256 222.306 54.0533 222.306 53.648C222.306 53.1573 221.997 52.912 221.378 52.912C221.058 52.912 220.786 52.976 220.562 53.104V52.56L221.874 51.088H222.546L221.442 52.368H221.458ZM234.132 59.008H234.692V60H234.004C233.022 60 232.292 59.664 231.812 58.992C231.31 59.664 230.569 60 229.588 60H229.027V59.008H229.476C230.691 59.008 231.299 58.3787 231.299 57.12V50.24L232.372 49.68V57.184C232.372 58.4 232.958 59.008 234.132 59.008ZM234.371 60V59.008H234.931C236.105 59.008 236.691 58.4 236.691 57.184V53.712L237.763 53.152V57.216C237.763 58.112 237.502 58.8107 236.979 59.312C236.499 59.7707 235.859 60 235.059 60H234.371ZM234.899 62.992C234.462 62.992 234.243 62.768 234.243 62.32C234.243 61.8933 234.462 61.68 234.899 61.68C235.315 61.68 235.523 61.8933 235.523 62.32C235.523 62.768 235.315 62.992 234.899 62.992ZM236.723 62.992C236.286 62.992 236.067 62.768 236.067 62.32C236.067 61.8933 236.286 61.68 236.723 61.68C237.139 61.68 237.347 61.8933 237.347 62.32C237.347 62.768 237.139 62.992 236.723 62.992ZM243.347 60C242.44 60 241.742 59.7067 241.251 59.12C240.846 58.6187 240.643 57.984 240.643 57.216V50.24L241.715 49.68V57.184C241.715 58.4 242.302 59.008 243.475 59.008H244.035V60H243.347ZM243.715 60V59.008H244.275C245.448 59.008 246.035 58.4 246.035 57.184V53.712L247.107 53.152V57.216C247.107 58.112 246.846 58.8107 246.323 59.312C245.843 59.7707 245.203 60 244.403 60H243.715ZM245.843 62.992C245.406 62.992 245.187 62.768 245.187 62.32C245.187 61.8933 245.406 61.68 245.843 61.68C246.259 61.68 246.467 61.8933 246.467 62.32C246.467 62.768 246.259 62.992 245.843 62.992ZM257.011 59.008V60H255.315C255.304 60.704 255.075 61.3227 254.627 61.856C254.19 62.4 253.619 62.7573 252.915 62.928C252.659 63.0027 252.382 63.04 252.083 63.04C251.464 63.04 250.862 62.8907 250.275 62.592V61.648C250.83 61.9467 251.379 62.096 251.923 62.096C252.36 62.096 252.744 62 253.075 61.808C253.406 61.6373 253.683 61.376 253.907 61.024C254.131 60.6827 254.243 60.3413 254.243 60L252.883 59.952C251.699 59.8987 250.814 59.5253 250.227 58.832C249.747 58.2453 249.507 57.4613 249.507 56.48C249.507 55.328 249.806 54.4373 250.403 53.808C250.936 53.2427 251.651 52.96 252.547 52.96C253.475 52.96 254.184 53.2373 254.675 53.792C255.102 54.272 255.315 54.912 255.315 55.712V59.008H257.011ZM254.243 55.824C254.243 54.5653 253.678 53.936 252.547 53.936C251.918 53.936 251.427 54.16 251.075 54.608C250.734 55.0453 250.563 55.664 250.563 56.464C250.563 58.0533 251.347 58.8853 252.915 58.96C253.384 58.992 253.827 59.008 254.243 59.008V55.824ZM266.748 59.008H267.292V60H266.604C265.633 60 264.908 59.664 264.428 58.992C263.894 59.8773 263.084 60.32 261.996 60.32C260.897 60.32 260.086 59.8827 259.564 59.008C259.073 59.6693 258.342 60 257.372 60H256.684V59.008H257.244C258.417 59.008 259.004 58.4 259.004 57.184V56.64C259.004 55.4133 259.302 54.4747 259.9 53.824C260.422 53.248 261.121 52.96 261.996 52.96C262.998 52.96 263.761 53.3333 264.284 54.08C264.742 54.72 264.972 55.5733 264.972 56.64V57.184C264.972 58.4 265.564 59.008 266.748 59.008ZM261.996 59.328C262.582 59.328 263.046 59.088 263.388 58.608C263.729 58.1173 263.9 57.456 263.9 56.624C263.9 54.832 263.265 53.936 261.996 53.936C260.716 53.936 260.076 54.832 260.076 56.624C260.076 58.4267 260.716 59.328 261.996 59.328ZM266.965 60V59.008H267.525C268.698 59.008 269.285 58.4 269.285 57.184V53.712L270.357 53.152V57.216C270.357 58.112 270.096 58.8107 269.573 59.312C269.093 59.7707 268.453 60 267.653 60H266.965ZM269.093 62.992C268.656 62.992 268.437 62.768 268.437 62.32C268.437 61.8933 268.656 61.68 269.093 61.68C269.509 61.68 269.717 61.8933 269.717 62.32C269.717 62.768 269.509 62.992 269.093 62.992ZM280.649 59.6C280.542 59.664 280.366 59.7653 280.121 59.904L280.089 59.92C279.214 60.4107 278.627 60.832 278.329 61.184C278.041 61.536 277.897 62.0053 277.897 62.592C277.897 63.296 278.137 63.872 278.617 64.32C279.107 64.7787 279.737 65.008 280.505 65.008H280.537C281.753 65.008 282.729 64.736 283.465 64.192V65.168C282.59 65.7227 281.603 66 280.505 66C279.353 66 278.435 65.6213 277.753 64.864C277.187 64.224 276.905 63.456 276.905 62.56C276.905 61.8027 277.091 61.1947 277.465 60.736C277.838 60.2773 278.59 59.7333 279.721 59.104C278.793 58.4747 277.811 57.424 276.777 55.952V55.296C277.886 53.7387 279.193 52.96 280.697 52.96C281.401 52.96 282.099 53.168 282.793 53.584C283.486 54 284.099 54.5813 284.633 55.328V55.952C283.897 56.9653 282.91 57.952 281.673 58.912C281.95 58.976 282.238 59.008 282.537 59.008H286.409V60H282.473C281.843 60 281.235 59.8667 280.649 59.6ZM277.705 55.648C278.825 57.12 279.811 58.08 280.665 58.528C281.763 57.76 282.777 56.7893 283.705 55.616C282.851 54.496 281.849 53.936 280.697 53.936H280.649C279.55 53.936 278.569 54.5067 277.705 55.648ZM290.954 51.072C290.517 51.072 290.298 50.848 290.298 50.4C290.298 49.9733 290.517 49.76 290.954 49.76C291.37 49.76 291.578 49.9733 291.578 50.4C291.578 50.848 291.37 51.072 290.954 51.072ZM286.09 60V59.008H288.81C288.223 58.4213 287.93 57.5787 287.93 56.48C287.93 55.328 288.229 54.4373 288.826 53.808C289.349 53.2427 290.042 52.96 290.906 52.96C291.791 52.96 292.474 53.2373 292.954 53.792C293.37 54.272 293.578 54.912 293.578 55.712V57.264C293.567 58.128 293.306 58.8053 292.794 59.296C292.325 59.7653 291.685 60 290.874 60H286.09ZM292.522 55.808C292.522 54.56 291.983 53.936 290.906 53.936C290.309 53.936 289.839 54.16 289.498 54.608C289.167 55.0453 289.002 55.664 289.002 56.464C289.002 57.2427 289.162 57.8613 289.482 58.32C289.813 58.7787 290.25 59.008 290.794 59.008C291.946 59.008 292.522 58.4107 292.522 57.216V55.808ZM295.019 60L295.531 59.008H298.539C299.03 59.008 299.371 58.8853 299.563 58.64C299.766 58.3947 299.867 57.968 299.867 57.36C299.867 55.8027 299.185 54.6347 297.819 53.856L298.331 52.976C300.07 53.9893 300.939 55.456 300.939 57.376C300.939 59.1253 300.198 60 298.715 60H295.019ZM303.487 60V50.24L304.559 49.68V60H303.487Z" fill="#656668"/>
</svg>
