<svg width="595" height="113" viewBox="0 0 595 113" fill="none" xmlns="http://www.w3.org/2000/svg">
<g filter="url(#filter0_d)">
<rect x="19" y="16" width="556.56" height="75" rx="24" fill="white"/>
</g>
<path d="M82.5361 54.5469V59H81.0361V47.625H85.2314C86.4762 47.625 87.4502 47.9427 88.1533 48.5781C88.8617 49.2135 89.2158 50.0547 89.2158 51.1016C89.2158 52.2057 88.8695 53.0573 88.1768 53.6562C87.4893 54.25 86.5023 54.5469 85.2158 54.5469H82.5361ZM82.5361 53.3203H85.2314C86.0335 53.3203 86.6481 53.1328 87.0752 52.7578C87.5023 52.3776 87.7158 51.8307 87.7158 51.1172C87.7158 50.4401 87.5023 49.8984 87.0752 49.4922C86.6481 49.0859 86.0622 48.875 85.3174 48.8594H82.5361V53.3203ZM96.0283 59C95.945 58.8333 95.8773 58.5365 95.8252 58.1094C95.1533 58.8073 94.3512 59.1562 93.4189 59.1562C92.5856 59.1562 91.9007 58.9219 91.3643 58.4531C90.833 57.9792 90.5674 57.3802 90.5674 56.6562C90.5674 55.776 90.9007 55.0938 91.5674 54.6094C92.2393 54.1198 93.182 53.875 94.3955 53.875H95.8018V53.2109C95.8018 52.7057 95.6507 52.3047 95.3486 52.0078C95.0465 51.7057 94.6012 51.5547 94.0127 51.5547C93.4971 51.5547 93.0648 51.6849 92.7158 51.9453C92.3669 52.2057 92.1924 52.5208 92.1924 52.8906H90.7393C90.7393 52.4688 90.8877 52.0625 91.1846 51.6719C91.4867 51.276 91.8929 50.9635 92.4033 50.7344C92.9189 50.5052 93.484 50.3906 94.0986 50.3906C95.0726 50.3906 95.8356 50.6354 96.3877 51.125C96.9398 51.6094 97.2262 52.2786 97.2471 53.1328V57.0234C97.2471 57.7995 97.346 58.4167 97.5439 58.875V59H96.0283ZM93.6299 57.8984C94.083 57.8984 94.5127 57.7812 94.9189 57.5469C95.3252 57.3125 95.6195 57.0078 95.8018 56.6328V54.8984H94.6689C92.8981 54.8984 92.0127 55.4167 92.0127 56.4531C92.0127 56.9062 92.1637 57.2604 92.4658 57.5156C92.7679 57.7708 93.1559 57.8984 93.6299 57.8984ZM102.153 56.8828L104.122 50.5469H105.669L102.271 60.3047C101.744 61.7109 100.909 62.4141 99.7627 62.4141L99.4893 62.3906L98.9502 62.2891V61.1172L99.3408 61.1484C99.8304 61.1484 100.211 61.0495 100.481 60.8516C100.757 60.6536 100.984 60.2917 101.161 59.7656L101.481 58.9062L98.4658 50.5469H100.044L102.153 56.8828ZM108.325 50.5469L108.364 51.4844C108.984 50.7552 109.82 50.3906 110.872 50.3906C112.054 50.3906 112.859 50.8438 113.286 51.75C113.567 51.3438 113.932 51.0156 114.38 50.7656C114.833 50.5156 115.367 50.3906 115.981 50.3906C117.836 50.3906 118.778 51.3724 118.81 53.3359V59H117.364V53.4219C117.364 52.8177 117.226 52.3672 116.95 52.0703C116.674 51.7682 116.211 51.6172 115.56 51.6172C115.023 51.6172 114.578 51.7786 114.224 52.1016C113.869 52.4193 113.664 52.849 113.606 53.3906V59H112.153V53.4609C112.153 52.2318 111.552 51.6172 110.349 51.6172C109.401 51.6172 108.752 52.0208 108.403 52.8281V59H106.958V50.5469H108.325ZM124.505 59.1562C123.359 59.1562 122.427 58.7812 121.708 58.0312C120.989 57.276 120.63 56.2682 120.63 55.0078V54.7422C120.63 53.9036 120.789 53.1562 121.106 52.5C121.429 51.8385 121.877 51.3229 122.45 50.9531C123.028 50.5781 123.653 50.3906 124.325 50.3906C125.424 50.3906 126.278 50.7526 126.888 51.4766C127.497 52.2005 127.802 53.237 127.802 54.5859V55.1875H122.075C122.096 56.0208 122.338 56.6953 122.802 57.2109C123.271 57.7214 123.864 57.9766 124.583 57.9766C125.093 57.9766 125.526 57.8724 125.88 57.6641C126.234 57.4557 126.544 57.1797 126.81 56.8359L127.692 57.5234C126.984 58.612 125.922 59.1562 124.505 59.1562ZM124.325 51.5781C123.742 51.5781 123.252 51.7917 122.856 52.2188C122.461 52.6406 122.216 53.2344 122.122 54H126.356V53.8906C126.315 53.1562 126.117 52.5885 125.763 52.1875C125.409 51.7812 124.929 51.5781 124.325 51.5781ZM130.849 50.5469L130.896 51.6094C131.541 50.7969 132.385 50.3906 133.427 50.3906C135.213 50.3906 136.114 51.3984 136.13 53.4141V59H134.685V53.4062C134.679 52.7969 134.539 52.3464 134.263 52.0547C133.992 51.763 133.567 51.6172 132.989 51.6172C132.521 51.6172 132.109 51.7422 131.755 51.9922C131.401 52.2422 131.125 52.5703 130.927 52.9766V59H129.481V50.5469H130.849ZM140.271 48.5V50.5469H141.849V51.6641H140.271V56.9062C140.271 57.2448 140.341 57.5 140.481 57.6719C140.622 57.8385 140.862 57.9219 141.2 57.9219C141.367 57.9219 141.596 57.8906 141.888 57.8281V59C141.507 59.1042 141.138 59.1562 140.778 59.1562C140.132 59.1562 139.646 58.9609 139.317 58.5703C138.989 58.1797 138.825 57.625 138.825 56.9062V51.6641H137.286V50.5469H138.825V48.5H140.271ZM150.903 57.9766C151.419 57.9766 151.869 57.8203 152.255 57.5078C152.64 57.1953 152.854 56.8047 152.896 56.3359H154.263C154.237 56.8203 154.07 57.2812 153.763 57.7188C153.455 58.1562 153.044 58.5052 152.528 58.7656C152.018 59.026 151.476 59.1562 150.903 59.1562C149.752 59.1562 148.836 58.7734 148.153 58.0078C147.476 57.237 147.138 56.1849 147.138 54.8516V54.6094C147.138 53.7865 147.289 53.0547 147.591 52.4141C147.893 51.7734 148.325 51.276 148.888 50.9219C149.455 50.5677 150.125 50.3906 150.896 50.3906C151.843 50.3906 152.63 50.6745 153.255 51.2422C153.885 51.8099 154.221 52.5469 154.263 53.4531H152.896C152.854 52.9062 152.646 52.4583 152.271 52.1094C151.901 51.7552 151.442 51.5781 150.896 51.5781C150.161 51.5781 149.591 51.8438 149.185 52.375C148.784 52.901 148.583 53.6641 148.583 54.6641V54.9375C148.583 55.9115 148.784 56.6615 149.185 57.1875C149.586 57.7135 150.159 57.9766 150.903 57.9766ZM155.505 54.6953C155.505 53.8672 155.666 53.1224 155.989 52.4609C156.317 51.7995 156.771 51.2891 157.349 50.9297C157.932 50.5703 158.596 50.3906 159.341 50.3906C160.492 50.3906 161.422 50.7891 162.13 51.5859C162.843 52.3828 163.2 53.4427 163.2 54.7656V54.8672C163.2 55.6901 163.041 56.4297 162.724 57.0859C162.411 57.737 161.961 58.2448 161.372 58.6094C160.789 58.974 160.117 59.1562 159.356 59.1562C158.211 59.1562 157.281 58.7578 156.567 57.9609C155.859 57.1641 155.505 56.1094 155.505 54.7969V54.6953ZM156.958 54.8672C156.958 55.8047 157.174 56.5573 157.606 57.125C158.044 57.6927 158.627 57.9766 159.356 57.9766C160.091 57.9766 160.674 57.6901 161.106 57.1172C161.539 56.5391 161.755 55.7318 161.755 54.6953C161.755 53.7682 161.534 53.0182 161.091 52.4453C160.653 51.8672 160.07 51.5781 159.341 51.5781C158.627 51.5781 158.052 51.862 157.614 52.4297C157.177 52.9974 156.958 53.8099 156.958 54.8672ZM166.372 50.5469L166.411 51.4844C167.031 50.7552 167.867 50.3906 168.919 50.3906C170.101 50.3906 170.906 50.8438 171.333 51.75C171.614 51.3438 171.979 51.0156 172.427 50.7656C172.88 50.5156 173.414 50.3906 174.028 50.3906C175.882 50.3906 176.825 51.3724 176.856 53.3359V59H175.411V53.4219C175.411 52.8177 175.273 52.3672 174.997 52.0703C174.721 51.7682 174.257 51.6172 173.606 51.6172C173.07 51.6172 172.625 51.7786 172.271 52.1016C171.916 52.4193 171.711 52.849 171.653 53.3906V59H170.2V53.4609C170.2 52.2318 169.599 51.6172 168.396 51.6172C167.448 51.6172 166.799 52.0208 166.45 52.8281V59H165.005V50.5469H166.372ZM186.185 54.8672C186.185 56.1536 185.89 57.1901 185.302 57.9766C184.713 58.763 183.916 59.1562 182.911 59.1562C181.885 59.1562 181.078 58.8307 180.489 58.1797V62.25H179.044V50.5469H180.364L180.435 51.4844C181.023 50.7552 181.841 50.3906 182.888 50.3906C183.903 50.3906 184.705 50.7734 185.294 51.5391C185.888 52.3047 186.185 53.3698 186.185 54.7344V54.8672ZM184.739 54.7031C184.739 53.75 184.536 52.9974 184.13 52.4453C183.724 51.8932 183.166 51.6172 182.458 51.6172C181.583 51.6172 180.927 52.0052 180.489 52.7812V56.8203C180.922 57.5911 181.583 57.9766 182.474 57.9766C183.166 57.9766 183.716 57.7031 184.122 57.1562C184.534 56.6042 184.739 55.7865 184.739 54.7031ZM189.599 59H188.153V47H189.599V59ZM195.427 59.1562C194.281 59.1562 193.349 58.7812 192.63 58.0312C191.911 57.276 191.552 56.2682 191.552 55.0078V54.7422C191.552 53.9036 191.711 53.1562 192.028 52.5C192.351 51.8385 192.799 51.3229 193.372 50.9531C193.95 50.5781 194.575 50.3906 195.247 50.3906C196.346 50.3906 197.2 50.7526 197.81 51.4766C198.419 52.2005 198.724 53.237 198.724 54.5859V55.1875H192.997C193.018 56.0208 193.26 56.6953 193.724 57.2109C194.192 57.7214 194.786 57.9766 195.505 57.9766C196.015 57.9766 196.448 57.8724 196.802 57.6641C197.156 57.4557 197.466 57.1797 197.731 56.8359L198.614 57.5234C197.906 58.612 196.843 59.1562 195.427 59.1562ZM195.247 51.5781C194.664 51.5781 194.174 51.7917 193.778 52.2188C193.382 52.6406 193.138 53.2344 193.044 54H197.278V53.8906C197.237 53.1562 197.039 52.5885 196.685 52.1875C196.33 51.7812 195.851 51.5781 195.247 51.5781ZM202.364 48.5V50.5469H203.942V51.6641H202.364V56.9062C202.364 57.2448 202.435 57.5 202.575 57.6719C202.716 57.8385 202.955 57.9219 203.294 57.9219C203.461 57.9219 203.69 57.8906 203.981 57.8281V59C203.601 59.1042 203.231 59.1562 202.872 59.1562C202.226 59.1562 201.739 58.9609 201.411 58.5703C201.083 58.1797 200.919 57.625 200.919 56.9062V51.6641H199.38V50.5469H200.919V48.5H202.364ZM209.146 59.1562C208 59.1562 207.067 58.7812 206.349 58.0312C205.63 57.276 205.271 56.2682 205.271 55.0078V54.7422C205.271 53.9036 205.429 53.1562 205.747 52.5C206.07 51.8385 206.518 51.3229 207.091 50.9531C207.669 50.5781 208.294 50.3906 208.966 50.3906C210.065 50.3906 210.919 50.7526 211.528 51.4766C212.138 52.2005 212.442 53.237 212.442 54.5859V55.1875H206.716C206.737 56.0208 206.979 56.6953 207.442 57.2109C207.911 57.7214 208.505 57.9766 209.224 57.9766C209.734 57.9766 210.166 57.8724 210.521 57.6641C210.875 57.4557 211.185 57.1797 211.45 56.8359L212.333 57.5234C211.625 58.612 210.562 59.1562 209.146 59.1562ZM208.966 51.5781C208.382 51.5781 207.893 51.7917 207.497 52.2188C207.101 52.6406 206.856 53.2344 206.763 54H210.997V53.8906C210.955 53.1562 210.757 52.5885 210.403 52.1875C210.049 51.7812 209.57 51.5781 208.966 51.5781ZM213.771 54.7031C213.771 53.4062 214.078 52.3646 214.692 51.5781C215.307 50.7865 216.112 50.3906 217.106 50.3906C218.096 50.3906 218.88 50.7292 219.458 51.4062V47H220.903V59H219.575L219.505 58.0938C218.927 58.8021 218.122 59.1562 217.091 59.1562C216.112 59.1562 215.312 58.7552 214.692 57.9531C214.078 57.151 213.771 56.1042 213.771 54.8125V54.7031ZM215.216 54.8672C215.216 55.8255 215.414 56.5755 215.81 57.1172C216.205 57.6589 216.752 57.9297 217.45 57.9297C218.367 57.9297 219.036 57.5182 219.458 56.6953V52.8125C219.026 52.0156 218.362 51.6172 217.466 51.6172C216.757 51.6172 216.205 51.8906 215.81 52.4375C215.414 52.9844 215.216 53.7943 215.216 54.8672ZM232.044 56.7578C232.044 56.3672 231.896 56.0651 231.599 55.8516C231.307 55.6328 230.794 55.4453 230.06 55.2891C229.33 55.1328 228.75 54.9453 228.317 54.7266C227.89 54.5078 227.573 54.2474 227.364 53.9453C227.161 53.6432 227.06 53.2839 227.06 52.8672C227.06 52.1745 227.351 51.5885 227.935 51.1094C228.523 50.6302 229.273 50.3906 230.185 50.3906C231.143 50.3906 231.919 50.638 232.513 51.1328C233.112 51.6276 233.411 52.2604 233.411 53.0312H231.958C231.958 52.6354 231.789 52.2943 231.45 52.0078C231.117 51.7214 230.695 51.5781 230.185 51.5781C229.659 51.5781 229.247 51.6927 228.95 51.9219C228.653 52.151 228.505 52.4505 228.505 52.8203C228.505 53.1693 228.643 53.4323 228.919 53.6094C229.195 53.7865 229.692 53.9557 230.411 54.1172C231.135 54.2786 231.721 54.4714 232.169 54.6953C232.617 54.9193 232.948 55.1901 233.161 55.5078C233.38 55.8203 233.489 56.2031 233.489 56.6562C233.489 57.4115 233.187 58.0182 232.583 58.4766C231.979 58.9297 231.195 59.1562 230.231 59.1562C229.554 59.1562 228.955 59.0365 228.435 58.7969C227.914 58.5573 227.505 58.224 227.208 57.7969C226.916 57.3646 226.771 56.8984 226.771 56.3984H228.216C228.242 56.8828 228.435 57.2682 228.794 57.5547C229.159 57.8359 229.638 57.9766 230.231 57.9766C230.778 57.9766 231.216 57.8672 231.544 57.6484C231.877 57.4245 232.044 57.1276 232.044 56.7578ZM240.591 58.1641C240.028 58.8255 239.203 59.1562 238.114 59.1562C237.213 59.1562 236.526 58.8958 236.052 58.375C235.583 57.849 235.346 57.0729 235.341 56.0469V50.5469H236.786V56.0078C236.786 57.2891 237.307 57.9297 238.349 57.9297C239.453 57.9297 240.187 57.5182 240.552 56.6953V50.5469H241.997V59H240.622L240.591 58.1641ZM247.591 57.9766C248.106 57.9766 248.557 57.8203 248.942 57.5078C249.328 57.1953 249.541 56.8047 249.583 56.3359H250.95C250.924 56.8203 250.757 57.2812 250.45 57.7188C250.143 58.1562 249.731 58.5052 249.216 58.7656C248.705 59.026 248.164 59.1562 247.591 59.1562C246.44 59.1562 245.523 58.7734 244.841 58.0078C244.164 57.237 243.825 56.1849 243.825 54.8516V54.6094C243.825 53.7865 243.976 53.0547 244.278 52.4141C244.58 51.7734 245.013 51.276 245.575 50.9219C246.143 50.5677 246.812 50.3906 247.583 50.3906C248.531 50.3906 249.317 50.6745 249.942 51.2422C250.573 51.8099 250.909 52.5469 250.95 53.4531H249.583C249.541 52.9062 249.333 52.4583 248.958 52.1094C248.588 51.7552 248.13 51.5781 247.583 51.5781C246.849 51.5781 246.278 51.8438 245.872 52.375C245.471 52.901 245.271 53.6641 245.271 54.6641V54.9375C245.271 55.9115 245.471 56.6615 245.872 57.1875C246.273 57.7135 246.846 57.9766 247.591 57.9766ZM255.966 57.9766C256.481 57.9766 256.932 57.8203 257.317 57.5078C257.703 57.1953 257.916 56.8047 257.958 56.3359H259.325C259.299 56.8203 259.132 57.2812 258.825 57.7188C258.518 58.1562 258.106 58.5052 257.591 58.7656C257.08 59.026 256.539 59.1562 255.966 59.1562C254.815 59.1562 253.898 58.7734 253.216 58.0078C252.539 57.237 252.2 56.1849 252.2 54.8516V54.6094C252.2 53.7865 252.351 53.0547 252.653 52.4141C252.955 51.7734 253.388 51.276 253.95 50.9219C254.518 50.5677 255.187 50.3906 255.958 50.3906C256.906 50.3906 257.692 50.6745 258.317 51.2422C258.948 51.8099 259.284 52.5469 259.325 53.4531H257.958C257.916 52.9062 257.708 52.4583 257.333 52.1094C256.963 51.7552 256.505 51.5781 255.958 51.5781C255.224 51.5781 254.653 51.8438 254.247 52.375C253.846 52.901 253.646 53.6641 253.646 54.6641V54.9375C253.646 55.9115 253.846 56.6615 254.247 57.1875C254.648 57.7135 255.221 57.9766 255.966 57.9766ZM264.458 59.1562C263.312 59.1562 262.38 58.7812 261.661 58.0312C260.942 57.276 260.583 56.2682 260.583 55.0078V54.7422C260.583 53.9036 260.742 53.1562 261.06 52.5C261.382 51.8385 261.83 51.3229 262.403 50.9531C262.981 50.5781 263.606 50.3906 264.278 50.3906C265.377 50.3906 266.231 50.7526 266.841 51.4766C267.45 52.2005 267.755 53.237 267.755 54.5859V55.1875H262.028C262.049 56.0208 262.291 56.6953 262.755 57.2109C263.224 57.7214 263.817 57.9766 264.536 57.9766C265.047 57.9766 265.479 57.8724 265.833 57.6641C266.187 57.4557 266.497 57.1797 266.763 56.8359L267.646 57.5234C266.937 58.612 265.875 59.1562 264.458 59.1562ZM264.278 51.5781C263.695 51.5781 263.205 51.7917 262.81 52.2188C262.414 52.6406 262.169 53.2344 262.075 54H266.31V53.8906C266.268 53.1562 266.07 52.5885 265.716 52.1875C265.362 51.7812 264.882 51.5781 264.278 51.5781ZM274.356 56.7578C274.356 56.3672 274.208 56.0651 273.911 55.8516C273.619 55.6328 273.106 55.4453 272.372 55.2891C271.643 55.1328 271.062 54.9453 270.63 54.7266C270.203 54.5078 269.885 54.2474 269.677 53.9453C269.474 53.6432 269.372 53.2839 269.372 52.8672C269.372 52.1745 269.664 51.5885 270.247 51.1094C270.836 50.6302 271.586 50.3906 272.497 50.3906C273.455 50.3906 274.231 50.638 274.825 51.1328C275.424 51.6276 275.724 52.2604 275.724 53.0312H274.271C274.271 52.6354 274.101 52.2943 273.763 52.0078C273.429 51.7214 273.007 51.5781 272.497 51.5781C271.971 51.5781 271.56 51.6927 271.263 51.9219C270.966 52.151 270.817 52.4505 270.817 52.8203C270.817 53.1693 270.955 53.4323 271.231 53.6094C271.507 53.7865 272.005 53.9557 272.724 54.1172C273.448 54.2786 274.034 54.4714 274.481 54.6953C274.929 54.9193 275.26 55.1901 275.474 55.5078C275.692 55.8203 275.802 56.2031 275.802 56.6562C275.802 57.4115 275.5 58.0182 274.896 58.4766C274.291 58.9297 273.507 59.1562 272.544 59.1562C271.867 59.1562 271.268 59.0365 270.747 58.7969C270.226 58.5573 269.817 58.224 269.521 57.7969C269.229 57.3646 269.083 56.8984 269.083 56.3984H270.528C270.554 56.8828 270.747 57.2682 271.106 57.5547C271.471 57.8359 271.95 57.9766 272.544 57.9766C273.091 57.9766 273.528 57.8672 273.856 57.6484C274.19 57.4245 274.356 57.1276 274.356 56.7578ZM282.606 56.7578C282.606 56.3672 282.458 56.0651 282.161 55.8516C281.869 55.6328 281.356 55.4453 280.622 55.2891C279.893 55.1328 279.312 54.9453 278.88 54.7266C278.453 54.5078 278.135 54.2474 277.927 53.9453C277.724 53.6432 277.622 53.2839 277.622 52.8672C277.622 52.1745 277.914 51.5885 278.497 51.1094C279.086 50.6302 279.836 50.3906 280.747 50.3906C281.705 50.3906 282.481 50.638 283.075 51.1328C283.674 51.6276 283.974 52.2604 283.974 53.0312H282.521C282.521 52.6354 282.351 52.2943 282.013 52.0078C281.679 51.7214 281.257 51.5781 280.747 51.5781C280.221 51.5781 279.81 51.6927 279.513 51.9219C279.216 52.151 279.067 52.4505 279.067 52.8203C279.067 53.1693 279.205 53.4323 279.481 53.6094C279.757 53.7865 280.255 53.9557 280.974 54.1172C281.698 54.2786 282.284 54.4714 282.731 54.6953C283.179 54.9193 283.51 55.1901 283.724 55.5078C283.942 55.8203 284.052 56.2031 284.052 56.6562C284.052 57.4115 283.75 58.0182 283.146 58.4766C282.541 58.9297 281.757 59.1562 280.794 59.1562C280.117 59.1562 279.518 59.0365 278.997 58.7969C278.476 58.5573 278.067 58.224 277.771 57.7969C277.479 57.3646 277.333 56.8984 277.333 56.3984H278.778C278.804 56.8828 278.997 57.2682 279.356 57.5547C279.721 57.8359 280.2 57.9766 280.794 57.9766C281.341 57.9766 281.778 57.8672 282.106 57.6484C282.44 57.4245 282.606 57.1276 282.606 56.7578ZM286.646 59V51.6641H285.31V50.5469H286.646V49.6797C286.646 48.7734 286.888 48.0729 287.372 47.5781C287.856 47.0833 288.541 46.8359 289.427 46.8359C289.76 46.8359 290.091 46.8802 290.419 46.9688L290.341 48.1406C290.096 48.0938 289.836 48.0703 289.56 48.0703C289.091 48.0703 288.729 48.2083 288.474 48.4844C288.218 48.7552 288.091 49.1458 288.091 49.6562V50.5469H289.896V51.6641H288.091V59H286.646ZM296.716 58.1641C296.153 58.8255 295.328 59.1562 294.239 59.1562C293.338 59.1562 292.651 58.8958 292.177 58.375C291.708 57.849 291.471 57.0729 291.466 56.0469V50.5469H292.911V56.0078C292.911 57.2891 293.432 57.9297 294.474 57.9297C295.578 57.9297 296.312 57.5182 296.677 56.6953V50.5469H298.122V59H296.747L296.716 58.1641ZM301.896 59H300.45V47H301.896V59ZM305.786 59H304.341V47H305.786V59ZM310.872 56.8828L312.841 50.5469H314.388L310.989 60.3047C310.463 61.7109 309.627 62.4141 308.481 62.4141L308.208 62.3906L307.669 62.2891V61.1172L308.06 61.1484C308.549 61.1484 308.929 61.0495 309.2 60.8516C309.476 60.6536 309.703 60.2917 309.88 59.7656L310.2 58.9062L307.185 50.5469H308.763L310.872 56.8828ZM314.872 58.2422C314.872 57.9922 314.945 57.7839 315.091 57.6172C315.242 57.4505 315.466 57.3672 315.763 57.3672C316.06 57.3672 316.284 57.4505 316.435 57.6172C316.591 57.7839 316.669 57.9922 316.669 58.2422C316.669 58.4818 316.591 58.6823 316.435 58.8438C316.284 59.0052 316.06 59.0859 315.763 59.0859C315.466 59.0859 315.242 59.0052 315.091 58.8438C314.945 58.6823 314.872 58.4818 314.872 58.2422Z" fill="#6654A4"/>
<path d="M47.7587 65H50.6387V59.848H53.8387V57.32H50.6387V42.088H47.1507L35.9187 57.64V59.848H47.7587V65ZM39.2787 57.32L47.8867 45.128V57.32H39.2787Z" fill="#6654A4"/>
<defs>
<filter id="filter0_d" x="0" y="0" width="594.56" height="113" filterUnits="userSpaceOnUse" color-interpolation-filters="sRGB">
<feFlood flood-opacity="0" result="BackgroundImageFix"/>
<feColorMatrix in="SourceAlpha" type="matrix" values="0 0 0 0 0 0 0 0 0 0 0 0 0 0 0 0 0 0 127 0"/>
<feMorphology radius="4" operator="dilate" in="SourceAlpha" result="effect1_dropShadow"/>
<feOffset dy="3"/>
<feGaussianBlur stdDeviation="7.5"/>
<feColorMatrix type="matrix" values="0 0 0 0 0.872109 0 0 0 0 0.853125 0 0 0 0 0.9375 0 0 0 0.5 0"/>
<feBlend mode="normal" in2="BackgroundImageFix" result="effect1_dropShadow"/>
<feBlend mode="normal" in="SourceGraphic" in2="effect1_dropShadow" result="shape"/>
</filter>
</defs>
</svg>
