<svg width="595" height="113" viewBox="0 0 595 113" fill="none" xmlns="http://www.w3.org/2000/svg">
<g filter="url(#filter0_d)">
<rect x="19" y="16" width="556.56" height="75" rx="24" fill="white"/>
</g>
<path d="M89.3289 46.625V54.3594C89.3236 55.4323 88.9851 56.3099 88.3132 56.9922C87.6466 57.6745 86.7403 58.0573 85.5945 58.1406L85.196 58.1562C83.9513 58.1562 82.9591 57.8203 82.2195 57.1484C81.4799 56.4766 81.1049 55.5521 81.0945 54.375V46.625H82.5789V54.3281C82.5789 55.151 82.8054 55.7917 83.2585 56.25C83.7117 56.7031 84.3575 56.9297 85.196 56.9297C86.045 56.9297 86.6934 56.7031 87.1414 56.25C87.5945 55.7969 87.821 55.1589 87.821 54.3359V46.625H89.3289ZM96.3914 55.7578C96.3914 55.3672 96.2429 55.0651 95.946 54.8516C95.6544 54.6328 95.1414 54.4453 94.407 54.2891C93.6778 54.1328 93.0971 53.9453 92.6648 53.7266C92.2377 53.5078 91.92 53.2474 91.7117 52.9453C91.5085 52.6432 91.407 52.2839 91.407 51.8672C91.407 51.1745 91.6986 50.5885 92.282 50.1094C92.8705 49.6302 93.6205 49.3906 94.532 49.3906C95.4903 49.3906 96.2664 49.638 96.8601 50.1328C97.4591 50.6276 97.7585 51.2604 97.7585 52.0312H96.3054C96.3054 51.6354 96.1361 51.2943 95.7976 51.0078C95.4643 50.7214 95.0424 50.5781 94.532 50.5781C94.0059 50.5781 93.5945 50.6927 93.2976 50.9219C93.0007 51.151 92.8523 51.4505 92.8523 51.8203C92.8523 52.1693 92.9903 52.4323 93.2664 52.6094C93.5424 52.7865 94.0398 52.9557 94.7585 53.1172C95.4825 53.2786 96.0684 53.4714 96.5164 53.6953C96.9643 53.9193 97.295 54.1901 97.5085 54.5078C97.7273 54.8203 97.8367 55.2031 97.8367 55.6562C97.8367 56.4115 97.5346 57.0182 96.9304 57.4766C96.3263 57.9297 95.5424 58.1562 94.5789 58.1562C93.9018 58.1562 93.3028 58.0365 92.782 57.7969C92.2611 57.5573 91.8523 57.224 91.5554 56.7969C91.2638 56.3646 91.1179 55.8984 91.1179 55.3984H92.5632C92.5893 55.8828 92.782 56.2682 93.1414 56.5547C93.5059 56.8359 93.9851 56.9766 94.5789 56.9766C95.1257 56.9766 95.5632 56.8672 95.8914 56.6484C96.2247 56.4245 96.3914 56.1276 96.3914 55.7578ZM103.227 58.1562C102.081 58.1562 101.149 57.7812 100.43 57.0312C99.7117 56.276 99.3523 55.2682 99.3523 54.0078V53.7422C99.3523 52.9036 99.5111 52.1562 99.8289 51.5C100.152 50.8385 100.6 50.3229 101.173 49.9531C101.751 49.5781 102.376 49.3906 103.048 49.3906C104.147 49.3906 105.001 49.7526 105.61 50.4766C106.219 51.2005 106.524 52.237 106.524 53.5859V54.1875H100.798C100.818 55.0208 101.061 55.6953 101.524 56.2109C101.993 56.7214 102.587 56.9766 103.305 56.9766C103.816 56.9766 104.248 56.8724 104.602 56.6641C104.956 56.4557 105.266 56.1797 105.532 55.8359L106.415 56.5234C105.706 57.612 104.644 58.1562 103.227 58.1562ZM103.048 50.5781C102.464 50.5781 101.975 50.7917 101.579 51.2188C101.183 51.6406 100.938 52.2344 100.844 53H105.079V52.8906C105.037 52.1562 104.839 51.5885 104.485 51.1875C104.131 50.7812 103.652 50.5781 103.048 50.5781ZM118.829 52.7422H113.899V56.7734H119.626V58H112.399V46.625H119.548V47.8594H113.899V51.5156H118.829V52.7422ZM126.485 58C126.402 57.8333 126.334 57.5365 126.282 57.1094C125.61 57.8073 124.808 58.1562 123.876 58.1562C123.042 58.1562 122.358 57.9219 121.821 57.4531C121.29 56.9792 121.024 56.3802 121.024 55.6562C121.024 54.776 121.358 54.0938 122.024 53.6094C122.696 53.1198 123.639 52.875 124.852 52.875H126.259V52.2109C126.259 51.7057 126.108 51.3047 125.805 51.0078C125.503 50.7057 125.058 50.5547 124.469 50.5547C123.954 50.5547 123.522 50.6849 123.173 50.9453C122.824 51.2057 122.649 51.5208 122.649 51.8906H121.196C121.196 51.4688 121.344 51.0625 121.641 50.6719C121.943 50.276 122.35 49.9635 122.86 49.7344C123.376 49.5052 123.941 49.3906 124.555 49.3906C125.529 49.3906 126.292 49.6354 126.844 50.125C127.397 50.6094 127.683 51.2786 127.704 52.1328V56.0234C127.704 56.7995 127.803 57.4167 128.001 57.875V58H126.485ZM124.087 56.8984C124.54 56.8984 124.969 56.7812 125.376 56.5469C125.782 56.3125 126.076 56.0078 126.259 55.6328V53.8984H125.126C123.355 53.8984 122.469 54.4167 122.469 55.4531C122.469 55.9062 122.621 56.2604 122.923 56.5156C123.225 56.7708 123.613 56.8984 124.087 56.8984ZM134.891 55.7578C134.891 55.3672 134.743 55.0651 134.446 54.8516C134.154 54.6328 133.641 54.4453 132.907 54.2891C132.178 54.1328 131.597 53.9453 131.165 53.7266C130.738 53.5078 130.42 53.2474 130.212 52.9453C130.009 52.6432 129.907 52.2839 129.907 51.8672C129.907 51.1745 130.199 50.5885 130.782 50.1094C131.371 49.6302 132.121 49.3906 133.032 49.3906C133.99 49.3906 134.766 49.638 135.36 50.1328C135.959 50.6276 136.259 51.2604 136.259 52.0312H134.805C134.805 51.6354 134.636 51.2943 134.298 51.0078C133.964 50.7214 133.542 50.5781 133.032 50.5781C132.506 50.5781 132.094 50.6927 131.798 50.9219C131.501 51.151 131.352 51.4505 131.352 51.8203C131.352 52.1693 131.49 52.4323 131.766 52.6094C132.042 52.7865 132.54 52.9557 133.259 53.1172C133.983 53.2786 134.568 53.4714 135.016 53.6953C135.464 53.9193 135.795 54.1901 136.009 54.5078C136.227 54.8203 136.337 55.2031 136.337 55.6562C136.337 56.4115 136.035 57.0182 135.43 57.4766C134.826 57.9297 134.042 58.1562 133.079 58.1562C132.402 58.1562 131.803 58.0365 131.282 57.7969C130.761 57.5573 130.352 57.224 130.055 56.7969C129.764 56.3646 129.618 55.8984 129.618 55.3984H131.063C131.089 55.8828 131.282 56.2682 131.641 56.5547C132.006 56.8359 132.485 56.9766 133.079 56.9766C133.626 56.9766 134.063 56.8672 134.391 56.6484C134.725 56.4245 134.891 56.1276 134.891 55.7578ZM140.985 55.8828L142.954 49.5469H144.501L141.102 59.3047C140.576 60.7109 139.74 61.4141 138.594 61.4141L138.321 61.3906L137.782 61.2891V60.1172L138.173 60.1484C138.662 60.1484 139.042 60.0495 139.313 59.8516C139.589 59.6536 139.816 59.2917 139.993 58.7656L140.313 57.9062L137.298 49.5469H138.876L140.985 55.8828ZM154.391 54.3906C154.251 55.5938 153.805 56.5234 153.055 57.1797C152.311 57.8307 151.318 58.1562 150.079 58.1562C148.735 58.1562 147.657 57.6745 146.844 56.7109C146.037 55.7474 145.634 54.4583 145.634 52.8438V51.75C145.634 50.6927 145.821 49.763 146.196 48.9609C146.576 48.1589 147.113 47.5443 147.805 47.1172C148.498 46.6849 149.3 46.4688 150.212 46.4688C151.42 46.4688 152.389 46.8073 153.118 47.4844C153.847 48.1562 154.272 49.0885 154.391 50.2812H152.884C152.753 49.375 152.469 48.7188 152.032 48.3125C151.6 47.9062 150.993 47.7031 150.212 47.7031C149.253 47.7031 148.501 48.0573 147.954 48.7656C147.412 49.474 147.141 50.4818 147.141 51.7891V52.8906C147.141 54.125 147.399 55.1068 147.915 55.8359C148.43 56.5651 149.152 56.9297 150.079 56.9297C150.912 56.9297 151.55 56.7422 151.993 56.3672C152.441 55.987 152.738 55.3281 152.884 54.3906H154.391ZM161.438 58C161.355 57.8333 161.287 57.5365 161.235 57.1094C160.563 57.8073 159.761 58.1562 158.829 58.1562C157.996 58.1562 157.311 57.9219 156.774 57.4531C156.243 56.9792 155.977 56.3802 155.977 55.6562C155.977 54.776 156.311 54.0938 156.977 53.6094C157.649 53.1198 158.592 52.875 159.805 52.875H161.212V52.2109C161.212 51.7057 161.061 51.3047 160.759 51.0078C160.456 50.7057 160.011 50.5547 159.423 50.5547C158.907 50.5547 158.475 50.6849 158.126 50.9453C157.777 51.2057 157.602 51.5208 157.602 51.8906H156.149C156.149 51.4688 156.298 51.0625 156.594 50.6719C156.897 50.276 157.303 49.9635 157.813 49.7344C158.329 49.5052 158.894 49.3906 159.509 49.3906C160.483 49.3906 161.246 49.6354 161.798 50.125C162.35 50.6094 162.636 51.2786 162.657 52.1328V56.0234C162.657 56.7995 162.756 57.4167 162.954 57.875V58H161.438ZM159.04 56.8984C159.493 56.8984 159.923 56.7812 160.329 56.5469C160.735 56.3125 161.029 56.0078 161.212 55.6328V53.8984H160.079C158.308 53.8984 157.423 54.4167 157.423 55.4531C157.423 55.9062 157.574 56.2604 157.876 56.5156C158.178 56.7708 158.566 56.8984 159.04 56.8984ZM169.844 55.7578C169.844 55.3672 169.696 55.0651 169.399 54.8516C169.108 54.6328 168.594 54.4453 167.86 54.2891C167.131 54.1328 166.55 53.9453 166.118 53.7266C165.691 53.5078 165.373 53.2474 165.165 52.9453C164.962 52.6432 164.86 52.2839 164.86 51.8672C164.86 51.1745 165.152 50.5885 165.735 50.1094C166.324 49.6302 167.074 49.3906 167.985 49.3906C168.943 49.3906 169.719 49.638 170.313 50.1328C170.912 50.6276 171.212 51.2604 171.212 52.0312H169.759C169.759 51.6354 169.589 51.2943 169.251 51.0078C168.917 50.7214 168.496 50.5781 167.985 50.5781C167.459 50.5781 167.048 50.6927 166.751 50.9219C166.454 51.151 166.305 51.4505 166.305 51.8203C166.305 52.1693 166.443 52.4323 166.719 52.6094C166.996 52.7865 167.493 52.9557 168.212 53.1172C168.936 53.2786 169.522 53.4714 169.969 53.6953C170.417 53.9193 170.748 54.1901 170.962 54.5078C171.18 54.8203 171.29 55.2031 171.29 55.6562C171.29 56.4115 170.988 57.0182 170.384 57.4766C169.779 57.9297 168.996 58.1562 168.032 58.1562C167.355 58.1562 166.756 58.0365 166.235 57.7969C165.714 57.5573 165.305 57.224 165.009 56.7969C164.717 56.3646 164.571 55.8984 164.571 55.3984H166.016C166.042 55.8828 166.235 56.2682 166.594 56.5547C166.959 56.8359 167.438 56.9766 168.032 56.9766C168.579 56.9766 169.016 56.8672 169.344 56.6484C169.678 56.4245 169.844 56.1276 169.844 55.7578ZM174.618 50.5703C175.259 49.7839 176.092 49.3906 177.118 49.3906C178.904 49.3906 179.805 50.3984 179.821 52.4141V58H178.376V52.4062C178.371 51.7969 178.23 51.3464 177.954 51.0547C177.683 50.763 177.259 50.6172 176.68 50.6172C176.212 50.6172 175.8 50.7422 175.446 50.9922C175.092 51.2422 174.816 51.5703 174.618 51.9766V58H173.173V46H174.618V50.5703ZM191.173 58C191.089 57.8333 191.022 57.5365 190.969 57.1094C190.298 57.8073 189.496 58.1562 188.563 58.1562C187.73 58.1562 187.045 57.9219 186.509 57.4531C185.977 56.9792 185.712 56.3802 185.712 55.6562C185.712 54.776 186.045 54.0938 186.712 53.6094C187.384 53.1198 188.326 52.875 189.54 52.875H190.946V52.2109C190.946 51.7057 190.795 51.3047 190.493 51.0078C190.191 50.7057 189.746 50.5547 189.157 50.5547C188.641 50.5547 188.209 50.6849 187.86 50.9453C187.511 51.2057 187.337 51.5208 187.337 51.8906H185.884C185.884 51.4688 186.032 51.0625 186.329 50.6719C186.631 50.276 187.037 49.9635 187.548 49.7344C188.063 49.5052 188.628 49.3906 189.243 49.3906C190.217 49.3906 190.98 49.6354 191.532 50.125C192.084 50.6094 192.371 51.2786 192.391 52.1328V56.0234C192.391 56.7995 192.49 57.4167 192.688 57.875V58H191.173ZM188.774 56.8984C189.227 56.8984 189.657 56.7812 190.063 56.5469C190.469 56.3125 190.764 56.0078 190.946 55.6328V53.8984H189.813C188.042 53.8984 187.157 54.4167 187.157 55.4531C187.157 55.9062 187.308 56.2604 187.61 56.5156C187.912 56.7708 188.3 56.8984 188.774 56.8984ZM201.798 53.8672C201.798 55.1536 201.503 56.1901 200.915 56.9766C200.326 57.763 199.529 58.1562 198.524 58.1562C197.498 58.1562 196.691 57.8307 196.102 57.1797V61.25H194.657V49.5469H195.977L196.048 50.4844C196.636 49.7552 197.454 49.3906 198.501 49.3906C199.516 49.3906 200.318 49.7734 200.907 50.5391C201.501 51.3047 201.798 52.3698 201.798 53.7344V53.8672ZM200.352 53.7031C200.352 52.75 200.149 51.9974 199.743 51.4453C199.337 50.8932 198.779 50.6172 198.071 50.6172C197.196 50.6172 196.54 51.0052 196.102 51.7812V55.8203C196.535 56.5911 197.196 56.9766 198.087 56.9766C198.779 56.9766 199.329 56.7031 199.735 56.1562C200.147 55.6042 200.352 54.7865 200.352 53.7031ZM210.782 53.8672C210.782 55.1536 210.488 56.1901 209.899 56.9766C209.311 57.763 208.514 58.1562 207.509 58.1562C206.483 58.1562 205.675 57.8307 205.087 57.1797V61.25H203.641V49.5469H204.962L205.032 50.4844C205.621 49.7552 206.438 49.3906 207.485 49.3906C208.501 49.3906 209.303 49.7734 209.891 50.5391C210.485 51.3047 210.782 52.3698 210.782 53.7344V53.8672ZM209.337 53.7031C209.337 52.75 209.134 51.9974 208.727 51.4453C208.321 50.8932 207.764 50.6172 207.055 50.6172C206.18 50.6172 205.524 51.0052 205.087 51.7812V55.8203C205.519 56.5911 206.18 56.9766 207.071 56.9766C207.764 56.9766 208.313 56.7031 208.719 56.1562C209.131 55.6042 209.337 54.7865 209.337 53.7031ZM214.196 58H212.751V46H214.196V58ZM218.087 58H216.641V49.5469H218.087V58ZM216.524 47.3047C216.524 47.0703 216.594 46.8724 216.735 46.7109C216.881 46.5495 217.094 46.4688 217.376 46.4688C217.657 46.4688 217.871 46.5495 218.016 46.7109C218.162 46.8724 218.235 47.0703 218.235 47.3047C218.235 47.5391 218.162 47.7344 218.016 47.8906C217.871 48.0469 217.657 48.125 217.376 48.125C217.094 48.125 216.881 48.0469 216.735 47.8906C216.594 47.7344 216.524 47.5391 216.524 47.3047ZM223.798 56.9766C224.313 56.9766 224.764 56.8203 225.149 56.5078C225.535 56.1953 225.748 55.8047 225.79 55.3359H227.157C227.131 55.8203 226.964 56.2812 226.657 56.7188C226.35 57.1562 225.938 57.5052 225.423 57.7656C224.912 58.026 224.371 58.1562 223.798 58.1562C222.647 58.1562 221.73 57.7734 221.048 57.0078C220.371 56.237 220.032 55.1849 220.032 53.8516V53.6094C220.032 52.7865 220.183 52.0547 220.485 51.4141C220.787 50.7734 221.219 50.276 221.782 49.9219C222.35 49.5677 223.019 49.3906 223.79 49.3906C224.738 49.3906 225.524 49.6745 226.149 50.2422C226.779 50.8099 227.115 51.5469 227.157 52.4531H225.79C225.748 51.9062 225.54 51.4583 225.165 51.1094C224.795 50.7552 224.337 50.5781 223.79 50.5781C223.055 50.5781 222.485 50.8438 222.079 51.375C221.678 51.901 221.477 52.6641 221.477 53.6641V53.9375C221.477 54.9115 221.678 55.6615 222.079 56.1875C222.48 56.7135 223.053 56.9766 223.798 56.9766ZM234.001 58C233.917 57.8333 233.85 57.5365 233.798 57.1094C233.126 57.8073 232.324 58.1562 231.391 58.1562C230.558 58.1562 229.873 57.9219 229.337 57.4531C228.805 56.9792 228.54 56.3802 228.54 55.6562C228.54 54.776 228.873 54.0938 229.54 53.6094C230.212 53.1198 231.154 52.875 232.368 52.875H233.774V52.2109C233.774 51.7057 233.623 51.3047 233.321 51.0078C233.019 50.7057 232.574 50.5547 231.985 50.5547C231.469 50.5547 231.037 50.6849 230.688 50.9453C230.339 51.2057 230.165 51.5208 230.165 51.8906H228.712C228.712 51.4688 228.86 51.0625 229.157 50.6719C229.459 50.276 229.865 49.9635 230.376 49.7344C230.891 49.5052 231.456 49.3906 232.071 49.3906C233.045 49.3906 233.808 49.6354 234.36 50.125C234.912 50.6094 235.199 51.2786 235.219 52.1328V56.0234C235.219 56.7995 235.318 57.4167 235.516 57.875V58H234.001ZM231.602 56.8984C232.055 56.8984 232.485 56.7812 232.891 56.5469C233.298 56.3125 233.592 56.0078 233.774 55.6328V53.8984H232.641C230.871 53.8984 229.985 54.4167 229.985 55.4531C229.985 55.9062 230.136 56.2604 230.438 56.5156C230.74 56.7708 231.128 56.8984 231.602 56.8984ZM239.446 47.5V49.5469H241.024V50.6641H239.446V55.9062C239.446 56.2448 239.516 56.5 239.657 56.6719C239.798 56.8385 240.037 56.9219 240.376 56.9219C240.542 56.9219 240.772 56.8906 241.063 56.8281V58C240.683 58.1042 240.313 58.1562 239.954 58.1562C239.308 58.1562 238.821 57.9609 238.493 57.5703C238.165 57.1797 238.001 56.625 238.001 55.9062V50.6641H236.462V49.5469H238.001V47.5H239.446ZM244.29 58H242.844V49.5469H244.29V58ZM242.727 47.3047C242.727 47.0703 242.798 46.8724 242.938 46.7109C243.084 46.5495 243.298 46.4688 243.579 46.4688C243.86 46.4688 244.074 46.5495 244.219 46.7109C244.365 46.8724 244.438 47.0703 244.438 47.3047C244.438 47.5391 244.365 47.7344 244.219 47.8906C244.074 48.0469 243.86 48.125 243.579 48.125C243.298 48.125 243.084 48.0469 242.938 47.8906C242.798 47.7344 242.727 47.5391 242.727 47.3047ZM246.227 53.6953C246.227 52.8672 246.389 52.1224 246.712 51.4609C247.04 50.7995 247.493 50.2891 248.071 49.9297C248.654 49.5703 249.318 49.3906 250.063 49.3906C251.214 49.3906 252.144 49.7891 252.852 50.5859C253.566 51.3828 253.923 52.4427 253.923 53.7656V53.8672C253.923 54.6901 253.764 55.4297 253.446 56.0859C253.134 56.737 252.683 57.2448 252.094 57.6094C251.511 57.974 250.839 58.1562 250.079 58.1562C248.933 58.1562 248.003 57.7578 247.29 56.9609C246.581 56.1641 246.227 55.1094 246.227 53.7969V53.6953ZM247.68 53.8672C247.68 54.8047 247.897 55.5573 248.329 56.125C248.766 56.6927 249.35 56.9766 250.079 56.9766C250.813 56.9766 251.397 56.6901 251.829 56.1172C252.261 55.5391 252.477 54.7318 252.477 53.6953C252.477 52.7682 252.256 52.0182 251.813 51.4453C251.376 50.8672 250.792 50.5781 250.063 50.5781C249.35 50.5781 248.774 50.862 248.337 51.4297C247.899 51.9974 247.68 52.8099 247.68 53.8672ZM257.102 49.5469L257.149 50.6094C257.795 49.7969 258.639 49.3906 259.68 49.3906C261.467 49.3906 262.368 50.3984 262.384 52.4141V58H260.938V52.4062C260.933 51.7969 260.792 51.3464 260.516 51.0547C260.246 50.763 259.821 50.6172 259.243 50.6172C258.774 50.6172 258.363 50.7422 258.009 50.9922C257.654 51.2422 257.378 51.5703 257.18 51.9766V58H255.735V49.5469H257.102ZM270.493 47.5V49.5469H272.071V50.6641H270.493V55.9062C270.493 56.2448 270.563 56.5 270.704 56.6719C270.844 56.8385 271.084 56.9219 271.423 56.9219C271.589 56.9219 271.818 56.8906 272.11 56.8281V58C271.73 58.1042 271.36 58.1562 271.001 58.1562C270.355 58.1562 269.868 57.9609 269.54 57.5703C269.212 57.1797 269.048 56.625 269.048 55.9062V50.6641H267.509V49.5469H269.048V47.5H270.493ZM273.227 53.6953C273.227 52.8672 273.389 52.1224 273.712 51.4609C274.04 50.7995 274.493 50.2891 275.071 49.9297C275.654 49.5703 276.318 49.3906 277.063 49.3906C278.214 49.3906 279.144 49.7891 279.852 50.5859C280.566 51.3828 280.923 52.4427 280.923 53.7656V53.8672C280.923 54.6901 280.764 55.4297 280.446 56.0859C280.134 56.737 279.683 57.2448 279.094 57.6094C278.511 57.974 277.839 58.1562 277.079 58.1562C275.933 58.1562 275.003 57.7578 274.29 56.9609C273.581 56.1641 273.227 55.1094 273.227 53.7969V53.6953ZM274.68 53.8672C274.68 54.8047 274.897 55.5573 275.329 56.125C275.766 56.6927 276.35 56.9766 277.079 56.9766C277.813 56.9766 278.397 56.6901 278.829 56.1172C279.261 55.5391 279.477 54.7318 279.477 53.6953C279.477 52.7682 279.256 52.0182 278.813 51.4453C278.376 50.8672 277.792 50.5781 277.063 50.5781C276.35 50.5781 275.774 50.862 275.337 51.4297C274.899 51.9974 274.68 52.8099 274.68 53.8672ZM291.626 55.7578C291.626 55.3672 291.477 55.0651 291.18 54.8516C290.889 54.6328 290.376 54.4453 289.641 54.2891C288.912 54.1328 288.331 53.9453 287.899 53.7266C287.472 53.5078 287.154 53.2474 286.946 52.9453C286.743 52.6432 286.641 52.2839 286.641 51.8672C286.641 51.1745 286.933 50.5885 287.516 50.1094C288.105 49.6302 288.855 49.3906 289.766 49.3906C290.725 49.3906 291.501 49.638 292.094 50.1328C292.693 50.6276 292.993 51.2604 292.993 52.0312H291.54C291.54 51.6354 291.371 51.2943 291.032 51.0078C290.699 50.7214 290.277 50.5781 289.766 50.5781C289.24 50.5781 288.829 50.6927 288.532 50.9219C288.235 51.151 288.087 51.4505 288.087 51.8203C288.087 52.1693 288.225 52.4323 288.501 52.6094C288.777 52.7865 289.274 52.9557 289.993 53.1172C290.717 53.2786 291.303 53.4714 291.751 53.6953C292.199 53.9193 292.529 54.1901 292.743 54.5078C292.962 54.8203 293.071 55.2031 293.071 55.6562C293.071 56.4115 292.769 57.0182 292.165 57.4766C291.561 57.9297 290.777 58.1562 289.813 58.1562C289.136 58.1562 288.537 58.0365 288.016 57.7969C287.496 57.5573 287.087 57.224 286.79 56.7969C286.498 56.3646 286.352 55.8984 286.352 55.3984H287.798C287.824 55.8828 288.016 56.2682 288.376 56.5547C288.74 56.8359 289.219 56.9766 289.813 56.9766C290.36 56.9766 290.798 56.8672 291.126 56.6484C291.459 56.4245 291.626 56.1276 291.626 55.7578ZM298.344 56.9766C298.86 56.9766 299.311 56.8203 299.696 56.5078C300.081 56.1953 300.295 55.8047 300.337 55.3359H301.704C301.678 55.8203 301.511 56.2812 301.204 56.7188C300.897 57.1562 300.485 57.5052 299.969 57.7656C299.459 58.026 298.917 58.1562 298.344 58.1562C297.193 58.1562 296.277 57.7734 295.594 57.0078C294.917 56.237 294.579 55.1849 294.579 53.8516V53.6094C294.579 52.7865 294.73 52.0547 295.032 51.4141C295.334 50.7734 295.766 50.276 296.329 49.9219C296.897 49.5677 297.566 49.3906 298.337 49.3906C299.285 49.3906 300.071 49.6745 300.696 50.2422C301.326 50.8099 301.662 51.5469 301.704 52.4531H300.337C300.295 51.9062 300.087 51.4583 299.712 51.1094C299.342 50.7552 298.884 50.5781 298.337 50.5781C297.602 50.5781 297.032 50.8438 296.626 51.375C296.225 51.901 296.024 52.6641 296.024 53.6641V53.9375C296.024 54.9115 296.225 55.6615 296.626 56.1875C297.027 56.7135 297.6 56.9766 298.344 56.9766ZM308.548 58C308.464 57.8333 308.397 57.5365 308.344 57.1094C307.673 57.8073 306.871 58.1562 305.938 58.1562C305.105 58.1562 304.42 57.9219 303.884 57.4531C303.352 56.9792 303.087 56.3802 303.087 55.6562C303.087 54.776 303.42 54.0938 304.087 53.6094C304.759 53.1198 305.701 52.875 306.915 52.875H308.321V52.2109C308.321 51.7057 308.17 51.3047 307.868 51.0078C307.566 50.7057 307.121 50.5547 306.532 50.5547C306.016 50.5547 305.584 50.6849 305.235 50.9453C304.886 51.2057 304.712 51.5208 304.712 51.8906H303.259C303.259 51.4688 303.407 51.0625 303.704 50.6719C304.006 50.276 304.412 49.9635 304.923 49.7344C305.438 49.5052 306.003 49.3906 306.618 49.3906C307.592 49.3906 308.355 49.6354 308.907 50.125C309.459 50.6094 309.746 51.2786 309.766 52.1328V56.0234C309.766 56.7995 309.865 57.4167 310.063 57.875V58H308.548ZM306.149 56.8984C306.602 56.8984 307.032 56.7812 307.438 56.5469C307.844 56.3125 308.139 56.0078 308.321 55.6328V53.8984H307.188C305.417 53.8984 304.532 54.4167 304.532 55.4531C304.532 55.9062 304.683 56.2604 304.985 56.5156C305.287 56.7708 305.675 56.8984 306.149 56.8984ZM313.399 49.5469L313.446 50.6094C314.092 49.7969 314.936 49.3906 315.977 49.3906C317.764 49.3906 318.665 50.3984 318.68 52.4141V58H317.235V52.4062C317.23 51.7969 317.089 51.3464 316.813 51.0547C316.542 50.763 316.118 50.6172 315.54 50.6172C315.071 50.6172 314.66 50.7422 314.305 50.9922C313.951 51.2422 313.675 51.5703 313.477 51.9766V58H312.032V49.5469H313.399ZM333.743 52.6797C333.743 53.7786 333.568 54.7266 333.219 55.5234C332.871 56.3151 332.381 56.9349 331.751 57.3828L333.782 58.9766L332.759 59.9219L330.36 58.0156C329.985 58.1094 329.589 58.1562 329.173 58.1562C328.277 58.1562 327.483 57.9375 326.79 57.5C326.097 57.0573 325.558 56.4297 325.173 55.6172C324.792 54.7995 324.597 53.8542 324.587 52.7812V51.9609C324.587 50.8672 324.777 49.901 325.157 49.0625C325.537 48.224 326.074 47.5833 326.766 47.1406C327.464 46.6927 328.261 46.4688 329.157 46.4688C330.074 46.4688 330.878 46.6901 331.571 47.1328C332.269 47.5755 332.805 48.2135 333.18 49.0469C333.555 49.875 333.743 50.8438 333.743 51.9531V52.6797ZM332.243 51.9453C332.243 50.6068 331.975 49.5755 331.438 48.8516C330.907 48.1224 330.147 47.7578 329.157 47.7578C328.214 47.7578 327.469 48.1198 326.923 48.8438C326.381 49.5625 326.102 50.5625 326.087 51.8438V52.6797C326.087 53.9818 326.358 55.0078 326.899 55.7578C327.446 56.5078 328.204 56.8828 329.173 56.8828C330.141 56.8828 330.891 56.5312 331.423 55.8281C331.954 55.1198 332.227 54.1068 332.243 52.7891V51.9453ZM340.227 53.3984H337.555V58H336.048V46.625H339.813C341.094 46.625 342.079 46.9167 342.766 47.5C343.459 48.0833 343.805 48.9323 343.805 50.0469C343.805 50.7552 343.613 51.3724 343.227 51.8984C342.847 52.4245 342.316 52.8177 341.634 53.0781L344.305 57.9062V58H342.696L340.227 53.3984ZM337.555 52.1719H339.86C340.605 52.1719 341.196 51.9792 341.634 51.5938C342.076 51.2083 342.298 50.6927 342.298 50.0469C342.298 49.3438 342.087 48.8047 341.665 48.4297C341.248 48.0547 340.644 47.8646 339.852 47.8594H337.555V52.1719ZM353.048 56.9766C353.563 56.9766 354.014 56.8203 354.399 56.5078C354.785 56.1953 354.998 55.8047 355.04 55.3359H356.407C356.381 55.8203 356.214 56.2812 355.907 56.7188C355.6 57.1562 355.188 57.5052 354.673 57.7656C354.162 58.026 353.621 58.1562 353.048 58.1562C351.897 58.1562 350.98 57.7734 350.298 57.0078C349.621 56.237 349.282 55.1849 349.282 53.8516V53.6094C349.282 52.7865 349.433 52.0547 349.735 51.4141C350.037 50.7734 350.469 50.276 351.032 49.9219C351.6 49.5677 352.269 49.3906 353.04 49.3906C353.988 49.3906 354.774 49.6745 355.399 50.2422C356.029 50.8099 356.365 51.5469 356.407 52.4531H355.04C354.998 51.9062 354.79 51.4583 354.415 51.1094C354.045 50.7552 353.587 50.5781 353.04 50.5781C352.305 50.5781 351.735 50.8438 351.329 51.375C350.928 51.901 350.727 52.6641 350.727 53.6641V53.9375C350.727 54.9115 350.928 55.6615 351.329 56.1875C351.73 56.7135 352.303 56.9766 353.048 56.9766ZM357.649 53.6953C357.649 52.8672 357.811 52.1224 358.134 51.4609C358.462 50.7995 358.915 50.2891 359.493 49.9297C360.076 49.5703 360.74 49.3906 361.485 49.3906C362.636 49.3906 363.566 49.7891 364.274 50.5859C364.988 51.3828 365.344 52.4427 365.344 53.7656V53.8672C365.344 54.6901 365.186 55.4297 364.868 56.0859C364.555 56.737 364.105 57.2448 363.516 57.6094C362.933 57.974 362.261 58.1562 361.501 58.1562C360.355 58.1562 359.425 57.7578 358.712 56.9609C358.003 56.1641 357.649 55.1094 357.649 53.7969V53.6953ZM359.102 53.8672C359.102 54.8047 359.318 55.5573 359.751 56.125C360.188 56.6927 360.772 56.9766 361.501 56.9766C362.235 56.9766 362.818 56.6901 363.251 56.1172C363.683 55.5391 363.899 54.7318 363.899 53.6953C363.899 52.7682 363.678 52.0182 363.235 51.4453C362.798 50.8672 362.214 50.5781 361.485 50.5781C360.772 50.5781 360.196 50.862 359.759 51.4297C359.321 51.9974 359.102 52.8099 359.102 53.8672ZM366.805 53.7031C366.805 52.4062 367.113 51.3646 367.727 50.5781C368.342 49.7865 369.147 49.3906 370.141 49.3906C371.131 49.3906 371.915 49.7292 372.493 50.4062V46H373.938V58H372.61L372.54 57.0938C371.962 57.8021 371.157 58.1562 370.126 58.1562C369.147 58.1562 368.347 57.7552 367.727 56.9531C367.113 56.151 366.805 55.1042 366.805 53.8125V53.7031ZM368.251 53.8672C368.251 54.8255 368.449 55.5755 368.844 56.1172C369.24 56.6589 369.787 56.9297 370.485 56.9297C371.402 56.9297 372.071 56.5182 372.493 55.6953V51.8125C372.061 51.0156 371.397 50.6172 370.501 50.6172C369.792 50.6172 369.24 50.8906 368.844 51.4375C368.449 51.9844 368.251 52.7943 368.251 53.8672ZM379.696 58.1562C378.55 58.1562 377.618 57.7812 376.899 57.0312C376.18 56.276 375.821 55.2682 375.821 54.0078V53.7422C375.821 52.9036 375.98 52.1562 376.298 51.5C376.621 50.8385 377.068 50.3229 377.641 49.9531C378.219 49.5781 378.844 49.3906 379.516 49.3906C380.615 49.3906 381.469 49.7526 382.079 50.4766C382.688 51.2005 382.993 52.237 382.993 53.5859V54.1875H377.266C377.287 55.0208 377.529 55.6953 377.993 56.2109C378.462 56.7214 379.055 56.9766 379.774 56.9766C380.285 56.9766 380.717 56.8724 381.071 56.6641C381.425 56.4557 381.735 56.1797 382.001 55.8359L382.884 56.5234C382.175 57.612 381.113 58.1562 379.696 58.1562ZM379.516 50.5781C378.933 50.5781 378.443 50.7917 378.048 51.2188C377.652 51.6406 377.407 52.2344 377.313 53H381.548V52.8906C381.506 52.1562 381.308 51.5885 380.954 51.1875C380.6 50.7812 380.121 50.5781 379.516 50.5781ZM384.704 57.2422C384.704 56.9922 384.777 56.7839 384.923 56.6172C385.074 56.4505 385.298 56.3672 385.594 56.3672C385.891 56.3672 386.115 56.4505 386.266 56.6172C386.423 56.7839 386.501 56.9922 386.501 57.2422C386.501 57.4818 386.423 57.6823 386.266 57.8438C386.115 58.0052 385.891 58.0859 385.594 58.0859C385.298 58.0859 385.074 58.0052 384.923 57.8438C384.777 57.6823 384.704 57.4818 384.704 57.2422Z" fill="#6654A4"/>
<path d="M45.2882 64H48.2322V40.864H42.2162V43.52H45.2882V64Z" fill="#6654A4"/>
<defs>
<filter id="filter0_d" x="0" y="0" width="594.56" height="113" filterUnits="userSpaceOnUse" color-interpolation-filters="sRGB">
<feFlood flood-opacity="0" result="BackgroundImageFix"/>
<feColorMatrix in="SourceAlpha" type="matrix" values="0 0 0 0 0 0 0 0 0 0 0 0 0 0 0 0 0 0 127 0"/>
<feMorphology radius="4" operator="dilate" in="SourceAlpha" result="effect1_dropShadow"/>
<feOffset dy="3"/>
<feGaussianBlur stdDeviation="7.5"/>
<feColorMatrix type="matrix" values="0 0 0 0 0.872109 0 0 0 0 0.853125 0 0 0 0 0.9375 0 0 0 0.5 0"/>
<feBlend mode="normal" in2="BackgroundImageFix" result="effect1_dropShadow"/>
<feBlend mode="normal" in="SourceGraphic" in2="effect1_dropShadow" result="shape"/>
</filter>
</defs>
</svg>
