<svg width="595" height="113" viewBox="0 0 595 113" fill="none" xmlns="http://www.w3.org/2000/svg">
<g filter="url(#filter0_d)">
<rect x="19" y="16" width="556.56" height="75" rx="24" fill="white"/>
</g>
<path d="M89.4033 54.3906C89.2627 55.5938 88.8174 56.5234 88.0674 57.1797C87.3226 57.8307 86.3304 58.1562 85.0908 58.1562C83.7471 58.1562 82.6689 57.6745 81.8564 56.7109C81.0492 55.7474 80.6455 54.4583 80.6455 52.8438V51.75C80.6455 50.6927 80.833 49.763 81.208 48.9609C81.5882 48.1589 82.1247 47.5443 82.8174 47.1172C83.5101 46.6849 84.3122 46.4688 85.2236 46.4688C86.432 46.4688 87.4007 46.8073 88.1299 47.4844C88.859 48.1562 89.2835 49.0885 89.4033 50.2812H87.8955C87.7653 49.375 87.4814 48.7188 87.0439 48.3125C86.6117 47.9062 86.0049 47.7031 85.2236 47.7031C84.2653 47.7031 83.5127 48.0573 82.9658 48.7656C82.4242 49.474 82.1533 50.4818 82.1533 51.7891V52.8906C82.1533 54.125 82.4111 55.1068 82.9268 55.8359C83.4424 56.5651 84.1637 56.9297 85.0908 56.9297C85.9242 56.9297 86.5622 56.7422 87.0049 56.3672C87.4528 55.987 87.7497 55.3281 87.8955 54.3906H89.4033ZM90.8486 53.6953C90.8486 52.8672 91.0101 52.1224 91.333 51.4609C91.6611 50.7995 92.1143 50.2891 92.6924 49.9297C93.2757 49.5703 93.9398 49.3906 94.6846 49.3906C95.8356 49.3906 96.7653 49.7891 97.4736 50.5859C98.1872 51.3828 98.5439 52.4427 98.5439 53.7656V53.8672C98.5439 54.6901 98.3851 55.4297 98.0674 56.0859C97.7549 56.737 97.3044 57.2448 96.7158 57.6094C96.1325 57.974 95.4606 58.1562 94.7002 58.1562C93.5544 58.1562 92.6247 57.7578 91.9111 56.9609C91.2028 56.1641 90.8486 55.1094 90.8486 53.7969V53.6953ZM92.3018 53.8672C92.3018 54.8047 92.5179 55.5573 92.9502 56.125C93.3877 56.6927 93.971 56.9766 94.7002 56.9766C95.4346 56.9766 96.0179 56.6901 96.4502 56.1172C96.8825 55.5391 97.0986 54.7318 97.0986 53.6953C97.0986 52.7682 96.8773 52.0182 96.4346 51.4453C95.9971 50.8672 95.4137 50.5781 94.6846 50.5781C93.971 50.5781 93.3955 50.862 92.958 51.4297C92.5205 51.9974 92.3018 52.8099 92.3018 53.8672ZM101.724 49.5469L101.771 50.6094C102.416 49.7969 103.26 49.3906 104.302 49.3906C106.088 49.3906 106.989 50.3984 107.005 52.4141V58H105.56V52.4062C105.554 51.7969 105.414 51.3464 105.138 51.0547C104.867 50.763 104.442 50.6172 103.864 50.6172C103.396 50.6172 102.984 50.7422 102.63 50.9922C102.276 51.2422 102 51.5703 101.802 51.9766V58H100.356V49.5469H101.724ZM109.669 58V50.6641H108.333V49.5469H109.669V48.8281C109.669 47.8854 109.937 47.151 110.474 46.625C111.015 46.099 111.778 45.8359 112.763 45.8359C113.346 45.8359 114.083 45.9948 114.974 46.3125L114.731 47.5312C114.08 47.2708 113.461 47.1406 112.872 47.1406C112.252 47.1406 111.804 47.2812 111.528 47.5625C111.257 47.8385 111.122 48.2552 111.122 48.8125V49.5469H112.849V50.6641H111.122V58H109.669ZM115.692 58H114.239V49.5469H115.692V58ZM122.13 50.8438C121.911 50.8073 121.674 50.7891 121.419 50.7891C120.471 50.7891 119.828 51.1927 119.489 52V58H118.044V49.5469H119.45L119.474 50.5234C119.948 49.7682 120.619 49.3906 121.489 49.3906C121.771 49.3906 121.984 49.4271 122.13 49.5V50.8438ZM124.825 49.5469L124.864 50.4844C125.484 49.7552 126.32 49.3906 127.372 49.3906C128.554 49.3906 129.359 49.8438 129.786 50.75C130.067 50.3438 130.432 50.0156 130.88 49.7656C131.333 49.5156 131.867 49.3906 132.481 49.3906C134.336 49.3906 135.278 50.3724 135.31 52.3359V58H133.864V52.4219C133.864 51.8177 133.726 51.3672 133.45 51.0703C133.174 50.7682 132.711 50.6172 132.06 50.6172C131.523 50.6172 131.078 50.7786 130.724 51.1016C130.369 51.4193 130.164 51.849 130.106 52.3906V58H128.653V52.4609C128.653 51.2318 128.052 50.6172 126.849 50.6172C125.901 50.6172 125.252 51.0208 124.903 51.8281V58H123.458V49.5469H124.825ZM143.427 47.5V49.5469H145.005V50.6641H143.427V55.9062C143.427 56.2448 143.497 56.5 143.638 56.6719C143.778 56.8385 144.018 56.9219 144.356 56.9219C144.523 56.9219 144.752 56.8906 145.044 56.8281V58C144.664 58.1042 144.294 58.1562 143.935 58.1562C143.289 58.1562 142.802 57.9609 142.474 57.5703C142.146 57.1797 141.981 56.625 141.981 55.9062V50.6641H140.442V49.5469H141.981V47.5H143.427ZM148.146 50.5703C148.786 49.7839 149.619 49.3906 150.646 49.3906C152.432 49.3906 153.333 50.3984 153.349 52.4141V58H151.903V52.4062C151.898 51.7969 151.757 51.3464 151.481 51.0547C151.211 50.763 150.786 50.6172 150.208 50.6172C149.739 50.6172 149.328 50.7422 148.974 50.9922C148.619 51.2422 148.343 51.5703 148.146 51.9766V58H146.7V46H148.146V50.5703ZM159.021 58.1562C157.875 58.1562 156.942 57.7812 156.224 57.0312C155.505 56.276 155.146 55.2682 155.146 54.0078V53.7422C155.146 52.9036 155.304 52.1562 155.622 51.5C155.945 50.8385 156.393 50.3229 156.966 49.9531C157.544 49.5781 158.169 49.3906 158.841 49.3906C159.94 49.3906 160.794 49.7526 161.403 50.4766C162.013 51.2005 162.317 52.237 162.317 53.5859V54.1875H156.591C156.612 55.0208 156.854 55.6953 157.317 56.2109C157.786 56.7214 158.38 56.9766 159.099 56.9766C159.609 56.9766 160.041 56.8724 160.396 56.6641C160.75 56.4557 161.06 56.1797 161.325 55.8359L162.208 56.5234C161.5 57.612 160.437 58.1562 159.021 58.1562ZM158.841 50.5781C158.257 50.5781 157.768 50.7917 157.372 51.2188C156.976 51.6406 156.731 52.2344 156.638 53H160.872V52.8906C160.83 52.1562 160.632 51.5885 160.278 51.1875C159.924 50.7812 159.445 50.5781 158.841 50.5781ZM175.106 53.8672C175.106 55.1536 174.812 56.1901 174.224 56.9766C173.635 57.763 172.838 58.1562 171.833 58.1562C170.807 58.1562 170 57.8307 169.411 57.1797V61.25H167.966V49.5469H169.286L169.356 50.4844C169.945 49.7552 170.763 49.3906 171.81 49.3906C172.825 49.3906 173.627 49.7734 174.216 50.5391C174.81 51.3047 175.106 52.3698 175.106 53.7344V53.8672ZM173.661 53.7031C173.661 52.75 173.458 51.9974 173.052 51.4453C172.646 50.8932 172.088 50.6172 171.38 50.6172C170.505 50.6172 169.849 51.0052 169.411 51.7812V55.8203C169.843 56.5911 170.505 56.9766 171.396 56.9766C172.088 56.9766 172.638 56.7031 173.044 56.1562C173.455 55.6042 173.661 54.7865 173.661 53.7031ZM182.169 58C182.086 57.8333 182.018 57.5365 181.966 57.1094C181.294 57.8073 180.492 58.1562 179.56 58.1562C178.726 58.1562 178.041 57.9219 177.505 57.4531C176.974 56.9792 176.708 56.3802 176.708 55.6562C176.708 54.776 177.041 54.0938 177.708 53.6094C178.38 53.1198 179.323 52.875 180.536 52.875H181.942V52.2109C181.942 51.7057 181.791 51.3047 181.489 51.0078C181.187 50.7057 180.742 50.5547 180.153 50.5547C179.638 50.5547 179.205 50.6849 178.856 50.9453C178.507 51.2057 178.333 51.5208 178.333 51.8906H176.88C176.88 51.4688 177.028 51.0625 177.325 50.6719C177.627 50.276 178.034 49.9635 178.544 49.7344C179.06 49.5052 179.625 49.3906 180.239 49.3906C181.213 49.3906 181.976 49.6354 182.528 50.125C183.08 50.6094 183.367 51.2786 183.388 52.1328V56.0234C183.388 56.7995 183.487 57.4167 183.685 57.875V58H182.169ZM179.771 56.8984C180.224 56.8984 180.653 56.7812 181.06 56.5469C181.466 56.3125 181.76 56.0078 181.942 55.6328V53.8984H180.81C179.039 53.8984 178.153 54.4167 178.153 55.4531C178.153 55.9062 178.304 56.2604 178.606 56.5156C178.909 56.7708 179.297 56.8984 179.771 56.8984ZM188.294 55.8828L190.263 49.5469H191.81L188.411 59.3047C187.885 60.7109 187.049 61.4141 185.903 61.4141L185.63 61.3906L185.091 61.2891V60.1172L185.481 60.1484C185.971 60.1484 186.351 60.0495 186.622 59.8516C186.898 59.6536 187.125 59.2917 187.302 58.7656L187.622 57.9062L184.606 49.5469H186.185L188.294 55.8828ZM194.466 49.5469L194.505 50.4844C195.125 49.7552 195.961 49.3906 197.013 49.3906C198.195 49.3906 199 49.8438 199.427 50.75C199.708 50.3438 200.073 50.0156 200.521 49.7656C200.974 49.5156 201.507 49.3906 202.122 49.3906C203.976 49.3906 204.919 50.3724 204.95 52.3359V58H203.505V52.4219C203.505 51.8177 203.367 51.3672 203.091 51.0703C202.815 50.7682 202.351 50.6172 201.7 50.6172C201.164 50.6172 200.718 50.7786 200.364 51.1016C200.01 51.4193 199.804 51.849 199.747 52.3906V58H198.294V52.4609C198.294 51.2318 197.692 50.6172 196.489 50.6172C195.541 50.6172 194.893 51.0208 194.544 51.8281V58H193.099V49.5469H194.466ZM210.646 58.1562C209.5 58.1562 208.567 57.7812 207.849 57.0312C207.13 56.276 206.771 55.2682 206.771 54.0078V53.7422C206.771 52.9036 206.929 52.1562 207.247 51.5C207.57 50.8385 208.018 50.3229 208.591 49.9531C209.169 49.5781 209.794 49.3906 210.466 49.3906C211.565 49.3906 212.419 49.7526 213.028 50.4766C213.638 51.2005 213.942 52.237 213.942 53.5859V54.1875H208.216C208.237 55.0208 208.479 55.6953 208.942 56.2109C209.411 56.7214 210.005 56.9766 210.724 56.9766C211.234 56.9766 211.666 56.8724 212.021 56.6641C212.375 56.4557 212.685 56.1797 212.95 55.8359L213.833 56.5234C213.125 57.612 212.062 58.1562 210.646 58.1562ZM210.466 50.5781C209.882 50.5781 209.393 50.7917 208.997 51.2188C208.601 51.6406 208.356 52.2344 208.263 53H212.497V52.8906C212.455 52.1562 212.257 51.5885 211.903 51.1875C211.549 50.7812 211.07 50.5781 210.466 50.5781ZM216.989 49.5469L217.036 50.6094C217.682 49.7969 218.526 49.3906 219.567 49.3906C221.354 49.3906 222.255 50.3984 222.271 52.4141V58H220.825V52.4062C220.82 51.7969 220.679 51.3464 220.403 51.0547C220.132 50.763 219.708 50.6172 219.13 50.6172C218.661 50.6172 218.25 50.7422 217.896 50.9922C217.541 51.2422 217.265 51.5703 217.067 51.9766V58H215.622V49.5469H216.989ZM226.411 47.5V49.5469H227.989V50.6641H226.411V55.9062C226.411 56.2448 226.481 56.5 226.622 56.6719C226.763 56.8385 227.002 56.9219 227.341 56.9219C227.507 56.9219 227.737 56.8906 228.028 56.8281V58C227.648 58.1042 227.278 58.1562 226.919 58.1562C226.273 58.1562 225.786 57.9609 225.458 57.5703C225.13 57.1797 224.966 56.625 224.966 55.9062V50.6641H223.427V49.5469H224.966V47.5H226.411ZM233.302 53.7031C233.302 52.4062 233.609 51.3646 234.224 50.5781C234.838 49.7865 235.643 49.3906 236.638 49.3906C237.627 49.3906 238.411 49.7292 238.989 50.4062V46H240.435V58H239.106L239.036 57.0938C238.458 57.8021 237.653 58.1562 236.622 58.1562C235.643 58.1562 234.843 57.7552 234.224 56.9531C233.609 56.151 233.302 55.1042 233.302 53.8125V53.7031ZM234.747 53.8672C234.747 54.8255 234.945 55.5755 235.341 56.1172C235.737 56.6589 236.284 56.9297 236.981 56.9297C237.898 56.9297 238.567 56.5182 238.989 55.6953V51.8125C238.557 51.0156 237.893 50.6172 236.997 50.6172C236.289 50.6172 235.737 50.8906 235.341 51.4375C234.945 51.9844 234.747 52.7943 234.747 53.8672ZM246.192 58.1562C245.047 58.1562 244.114 57.7812 243.396 57.0312C242.677 56.276 242.317 55.2682 242.317 54.0078V53.7422C242.317 52.9036 242.476 52.1562 242.794 51.5C243.117 50.8385 243.565 50.3229 244.138 49.9531C244.716 49.5781 245.341 49.3906 246.013 49.3906C247.112 49.3906 247.966 49.7526 248.575 50.4766C249.185 51.2005 249.489 52.237 249.489 53.5859V54.1875H243.763C243.784 55.0208 244.026 55.6953 244.489 56.2109C244.958 56.7214 245.552 56.9766 246.271 56.9766C246.781 56.9766 247.213 56.8724 247.567 56.6641C247.922 56.4557 248.231 56.1797 248.497 55.8359L249.38 56.5234C248.672 57.612 247.609 58.1562 246.192 58.1562ZM246.013 50.5781C245.429 50.5781 244.94 50.7917 244.544 51.2188C244.148 51.6406 243.903 52.2344 243.81 53H248.044V52.8906C248.002 52.1562 247.804 51.5885 247.45 51.1875C247.096 50.7812 246.617 50.5781 246.013 50.5781ZM253.13 47.5V49.5469H254.708V50.6641H253.13V55.9062C253.13 56.2448 253.2 56.5 253.341 56.6719C253.481 56.8385 253.721 56.9219 254.06 56.9219C254.226 56.9219 254.455 56.8906 254.747 56.8281V58C254.367 58.1042 253.997 58.1562 253.638 58.1562C252.992 58.1562 252.505 57.9609 252.177 57.5703C251.849 57.1797 251.685 56.625 251.685 55.9062V50.6641H250.146V49.5469H251.685V47.5H253.13ZM261.622 58C261.539 57.8333 261.471 57.5365 261.419 57.1094C260.747 57.8073 259.945 58.1562 259.013 58.1562C258.179 58.1562 257.494 57.9219 256.958 57.4531C256.427 56.9792 256.161 56.3802 256.161 55.6562C256.161 54.776 256.494 54.0938 257.161 53.6094C257.833 53.1198 258.776 52.875 259.989 52.875H261.396V52.2109C261.396 51.7057 261.244 51.3047 260.942 51.0078C260.64 50.7057 260.195 50.5547 259.606 50.5547C259.091 50.5547 258.659 50.6849 258.31 50.9453C257.961 51.2057 257.786 51.5208 257.786 51.8906H256.333C256.333 51.4688 256.481 51.0625 256.778 50.6719C257.08 50.276 257.487 49.9635 257.997 49.7344C258.513 49.5052 259.078 49.3906 259.692 49.3906C260.666 49.3906 261.429 49.6354 261.981 50.125C262.534 50.6094 262.82 51.2786 262.841 52.1328V56.0234C262.841 56.7995 262.94 57.4167 263.138 57.875V58H261.622ZM259.224 56.8984C259.677 56.8984 260.106 56.7812 260.513 56.5469C260.919 56.3125 261.213 56.0078 261.396 55.6328V53.8984H260.263C258.492 53.8984 257.606 54.4167 257.606 55.4531C257.606 55.9062 257.757 56.2604 258.06 56.5156C258.362 56.7708 258.75 56.8984 259.224 56.8984ZM266.677 58H265.231V49.5469H266.677V58ZM265.114 47.3047C265.114 47.0703 265.185 46.8724 265.325 46.7109C265.471 46.5495 265.685 46.4688 265.966 46.4688C266.247 46.4688 266.461 46.5495 266.606 46.7109C266.752 46.8724 266.825 47.0703 266.825 47.3047C266.825 47.5391 266.752 47.7344 266.606 47.8906C266.461 48.0469 266.247 48.125 265.966 48.125C265.685 48.125 265.471 48.0469 265.325 47.8906C265.185 47.7344 265.114 47.5391 265.114 47.3047ZM270.567 58H269.122V46H270.567V58ZM277.81 55.7578C277.81 55.3672 277.661 55.0651 277.364 54.8516C277.073 54.6328 276.56 54.4453 275.825 54.2891C275.096 54.1328 274.515 53.9453 274.083 53.7266C273.656 53.5078 273.338 53.2474 273.13 52.9453C272.927 52.6432 272.825 52.2839 272.825 51.8672C272.825 51.1745 273.117 50.5885 273.7 50.1094C274.289 49.6302 275.039 49.3906 275.95 49.3906C276.909 49.3906 277.685 49.638 278.278 50.1328C278.877 50.6276 279.177 51.2604 279.177 52.0312H277.724C277.724 51.6354 277.554 51.2943 277.216 51.0078C276.882 50.7214 276.461 50.5781 275.95 50.5781C275.424 50.5781 275.013 50.6927 274.716 50.9219C274.419 51.151 274.271 51.4505 274.271 51.8203C274.271 52.1693 274.409 52.4323 274.685 52.6094C274.961 52.7865 275.458 52.9557 276.177 53.1172C276.901 53.2786 277.487 53.4714 277.935 53.6953C278.382 53.9193 278.713 54.1901 278.927 54.5078C279.146 54.8203 279.255 55.2031 279.255 55.6562C279.255 56.4115 278.953 57.0182 278.349 57.4766C277.744 57.9297 276.961 58.1562 275.997 58.1562C275.32 58.1562 274.721 58.0365 274.2 57.7969C273.679 57.5573 273.271 57.224 272.974 56.7969C272.682 56.3646 272.536 55.8984 272.536 55.3984H273.981C274.007 55.8828 274.2 56.2682 274.56 56.5547C274.924 56.8359 275.403 56.9766 275.997 56.9766C276.544 56.9766 276.981 56.8672 277.31 56.6484C277.643 56.4245 277.81 56.1276 277.81 55.7578ZM281.169 57.2422C281.169 56.9922 281.242 56.7839 281.388 56.6172C281.539 56.4505 281.763 56.3672 282.06 56.3672C282.356 56.3672 282.58 56.4505 282.731 56.6172C282.888 56.7839 282.966 56.9922 282.966 57.2422C282.966 57.4818 282.888 57.6823 282.731 57.8438C282.58 58.0052 282.356 58.0859 282.06 58.0859C281.763 58.0859 281.539 58.0052 281.388 57.8438C281.242 57.6823 281.169 57.4818 281.169 57.2422Z" fill="#6654A4"/>
<path d="M37.632 63.744H53.024V61.312H42.016C46.144 57.952 52.352 53.056 52.352 47.296C52.352 43.008 49.536 40.448 45.184 40.448C41.024 40.448 37.92 43.008 37.728 47.936H40.544C40.672 45.024 42.208 42.944 45.216 42.944C48.352 42.944 49.472 44.864 49.472 47.424C49.472 52.16 43.712 56.768 37.632 61.664V63.744Z" fill="#6654A4"/>
<defs>
<filter id="filter0_d" x="0" y="0" width="594.56" height="113" filterUnits="userSpaceOnUse" color-interpolation-filters="sRGB">
<feFlood flood-opacity="0" result="BackgroundImageFix"/>
<feColorMatrix in="SourceAlpha" type="matrix" values="0 0 0 0 0 0 0 0 0 0 0 0 0 0 0 0 0 0 127 0"/>
<feMorphology radius="4" operator="dilate" in="SourceAlpha" result="effect1_dropShadow"/>
<feOffset dy="3"/>
<feGaussianBlur stdDeviation="7.5"/>
<feColorMatrix type="matrix" values="0 0 0 0 0.872109 0 0 0 0 0.853125 0 0 0 0 0.9375 0 0 0 0.5 0"/>
<feBlend mode="normal" in2="BackgroundImageFix" result="effect1_dropShadow"/>
<feBlend mode="normal" in="SourceGraphic" in2="effect1_dropShadow" result="shape"/>
</filter>
</defs>
</svg>
