<svg width="595" height="113" viewBox="0 0 595 113" fill="none" xmlns="http://www.w3.org/2000/svg">
<g filter="url(#filter0_d)">
<rect x="19" y="16" width="556.56" height="75" rx="24" fill="white"/>
</g>
<path d="M87.4658 53.7422H82.5361V57.7734H88.2627V59H81.0361V47.625H88.1846V48.8594H82.5361V52.5156H87.4658V53.7422ZM91.2705 50.5469L91.3174 51.6094C91.9632 50.7969 92.807 50.3906 93.8486 50.3906C95.6351 50.3906 96.5361 51.3984 96.5518 53.4141V59H95.1064V53.4062C95.1012 52.7969 94.9606 52.3464 94.6846 52.0547C94.4137 51.763 93.9893 51.6172 93.4111 51.6172C92.9424 51.6172 92.5309 51.7422 92.1768 51.9922C91.8226 52.2422 91.5465 52.5703 91.3486 52.9766V59H89.9033V50.5469H91.2705ZM100.692 48.5V50.5469H102.271V51.6641H100.692V56.9062C100.692 57.2448 100.763 57.5 100.903 57.6719C101.044 57.8385 101.284 57.9219 101.622 57.9219C101.789 57.9219 102.018 57.8906 102.31 57.8281V59C101.929 59.1042 101.56 59.1562 101.2 59.1562C100.554 59.1562 100.067 58.9609 99.7393 58.5703C99.4111 58.1797 99.2471 57.625 99.2471 56.9062V51.6641H97.708V50.5469H99.2471V48.5H100.692ZM107.474 59.1562C106.328 59.1562 105.396 58.7812 104.677 58.0312C103.958 57.276 103.599 56.2682 103.599 55.0078V54.7422C103.599 53.9036 103.757 53.1562 104.075 52.5C104.398 51.8385 104.846 51.3229 105.419 50.9531C105.997 50.5781 106.622 50.3906 107.294 50.3906C108.393 50.3906 109.247 50.7526 109.856 51.4766C110.466 52.2005 110.771 53.237 110.771 54.5859V55.1875H105.044C105.065 56.0208 105.307 56.6953 105.771 57.2109C106.239 57.7214 106.833 57.9766 107.552 57.9766C108.062 57.9766 108.494 57.8724 108.849 57.6641C109.203 57.4557 109.513 57.1797 109.778 56.8359L110.661 57.5234C109.953 58.612 108.89 59.1562 107.474 59.1562ZM107.294 51.5781C106.711 51.5781 106.221 51.7917 105.825 52.2188C105.429 52.6406 105.185 53.2344 105.091 54H109.325V53.8906C109.284 53.1562 109.086 52.5885 108.731 52.1875C108.377 51.7812 107.898 51.5781 107.294 51.5781ZM116.536 51.8438C116.317 51.8073 116.08 51.7891 115.825 51.7891C114.877 51.7891 114.234 52.1927 113.896 53V59H112.45V50.5469H113.856L113.88 51.5234C114.354 50.7682 115.026 50.3906 115.896 50.3906C116.177 50.3906 116.39 50.4271 116.536 50.5V51.8438ZM124.606 56.8828L126.575 50.5469H128.122L124.724 60.3047C124.198 61.7109 123.362 62.4141 122.216 62.4141L121.942 62.3906L121.403 62.2891V61.1172L121.794 61.1484C122.284 61.1484 122.664 61.0495 122.935 60.8516C123.211 60.6536 123.437 60.2917 123.614 59.7656L123.935 58.9062L120.919 50.5469H122.497L124.606 56.8828ZM128.911 54.6953C128.911 53.8672 129.073 53.1224 129.396 52.4609C129.724 51.7995 130.177 51.2891 130.755 50.9297C131.338 50.5703 132.002 50.3906 132.747 50.3906C133.898 50.3906 134.828 50.7891 135.536 51.5859C136.25 52.3828 136.606 53.4427 136.606 54.7656V54.8672C136.606 55.6901 136.448 56.4297 136.13 57.0859C135.817 57.737 135.367 58.2448 134.778 58.6094C134.195 58.974 133.523 59.1562 132.763 59.1562C131.617 59.1562 130.687 58.7578 129.974 57.9609C129.265 57.1641 128.911 56.1094 128.911 54.7969V54.6953ZM130.364 54.8672C130.364 55.8047 130.58 56.5573 131.013 57.125C131.45 57.6927 132.034 57.9766 132.763 57.9766C133.497 57.9766 134.08 57.6901 134.513 57.1172C134.945 56.5391 135.161 55.7318 135.161 54.6953C135.161 53.7682 134.94 53.0182 134.497 52.4453C134.06 51.8672 133.476 51.5781 132.747 51.5781C132.034 51.5781 131.458 51.862 131.021 52.4297C130.583 52.9974 130.364 53.8099 130.364 54.8672ZM143.638 58.1641C143.075 58.8255 142.25 59.1562 141.161 59.1562C140.26 59.1562 139.573 58.8958 139.099 58.375C138.63 57.849 138.393 57.0729 138.388 56.0469V50.5469H139.833V56.0078C139.833 57.2891 140.354 57.9297 141.396 57.9297C142.5 57.9297 143.234 57.5182 143.599 56.6953V50.5469H145.044V59H143.669L143.638 58.1641ZM152.942 54.5469V59H151.442V47.625H155.638C156.882 47.625 157.856 47.9427 158.56 48.5781C159.268 49.2135 159.622 50.0547 159.622 51.1016C159.622 52.2057 159.276 53.0573 158.583 53.6562C157.896 54.25 156.909 54.5469 155.622 54.5469H152.942ZM152.942 53.3203H155.638C156.44 53.3203 157.054 53.1328 157.481 52.7578C157.909 52.3776 158.122 51.8307 158.122 51.1172C158.122 50.4401 157.909 49.8984 157.481 49.4922C157.054 49.0859 156.468 48.875 155.724 48.8594H152.942V53.3203ZM163.146 59H161.646V47.625H163.146V59ZM174.638 59H173.13L167.403 50.2344V59H165.896V47.625H167.403L173.146 56.4297V47.625H174.638V59ZM183.005 48.5V50.5469H184.583V51.6641H183.005V56.9062C183.005 57.2448 183.075 57.5 183.216 57.6719C183.356 57.8385 183.596 57.9219 183.935 57.9219C184.101 57.9219 184.33 57.8906 184.622 57.8281V59C184.242 59.1042 183.872 59.1562 183.513 59.1562C182.867 59.1562 182.38 58.9609 182.052 58.5703C181.724 58.1797 181.56 57.625 181.56 56.9062V51.6641H180.021V50.5469H181.56V48.5H183.005ZM185.739 54.6953C185.739 53.8672 185.901 53.1224 186.224 52.4609C186.552 51.7995 187.005 51.2891 187.583 50.9297C188.166 50.5703 188.83 50.3906 189.575 50.3906C190.726 50.3906 191.656 50.7891 192.364 51.5859C193.078 52.3828 193.435 53.4427 193.435 54.7656V54.8672C193.435 55.6901 193.276 56.4297 192.958 57.0859C192.646 57.737 192.195 58.2448 191.606 58.6094C191.023 58.974 190.351 59.1562 189.591 59.1562C188.445 59.1562 187.515 58.7578 186.802 57.9609C186.093 57.1641 185.739 56.1094 185.739 54.7969V54.6953ZM187.192 54.8672C187.192 55.8047 187.409 56.5573 187.841 57.125C188.278 57.6927 188.862 57.9766 189.591 57.9766C190.325 57.9766 190.909 57.6901 191.341 57.1172C191.773 56.5391 191.989 55.7318 191.989 54.6953C191.989 53.7682 191.768 53.0182 191.325 52.4453C190.888 51.8672 190.304 51.5781 189.575 51.5781C188.862 51.5781 188.286 51.862 187.849 52.4297C187.411 52.9974 187.192 53.8099 187.192 54.8672ZM206.356 54.8672C206.356 56.1536 206.062 57.1901 205.474 57.9766C204.885 58.763 204.088 59.1562 203.083 59.1562C202.057 59.1562 201.25 58.8307 200.661 58.1797V62.25H199.216V50.5469H200.536L200.606 51.4844C201.195 50.7552 202.013 50.3906 203.06 50.3906C204.075 50.3906 204.877 50.7734 205.466 51.5391C206.06 52.3047 206.356 53.3698 206.356 54.7344V54.8672ZM204.911 54.7031C204.911 53.75 204.708 52.9974 204.302 52.4453C203.896 51.8932 203.338 51.6172 202.63 51.6172C201.755 51.6172 201.099 52.0052 200.661 52.7812V56.8203C201.093 57.5911 201.755 57.9766 202.646 57.9766C203.338 57.9766 203.888 57.7031 204.294 57.1562C204.705 56.6042 204.911 55.7865 204.911 54.7031ZM212.286 51.8438C212.067 51.8073 211.83 51.7891 211.575 51.7891C210.627 51.7891 209.984 52.1927 209.646 53V59H208.2V50.5469H209.606L209.63 51.5234C210.104 50.7682 210.776 50.3906 211.646 50.3906C211.927 50.3906 212.14 50.4271 212.286 50.5V51.8438ZM213.083 54.6953C213.083 53.8672 213.244 53.1224 213.567 52.4609C213.896 51.7995 214.349 51.2891 214.927 50.9297C215.51 50.5703 216.174 50.3906 216.919 50.3906C218.07 50.3906 219 50.7891 219.708 51.5859C220.422 52.3828 220.778 53.4427 220.778 54.7656V54.8672C220.778 55.6901 220.619 56.4297 220.302 57.0859C219.989 57.737 219.539 58.2448 218.95 58.6094C218.367 58.974 217.695 59.1562 216.935 59.1562C215.789 59.1562 214.859 58.7578 214.146 57.9609C213.437 57.1641 213.083 56.1094 213.083 54.7969V54.6953ZM214.536 54.8672C214.536 55.8047 214.752 56.5573 215.185 57.125C215.622 57.6927 216.205 57.9766 216.935 57.9766C217.669 57.9766 218.252 57.6901 218.685 57.1172C219.117 56.5391 219.333 55.7318 219.333 54.6953C219.333 53.7682 219.112 53.0182 218.669 52.4453C218.231 51.8672 217.648 51.5781 216.919 51.5781C216.205 51.5781 215.63 51.862 215.192 52.4297C214.755 52.9974 214.536 53.8099 214.536 54.8672ZM225.981 57.9766C226.497 57.9766 226.948 57.8203 227.333 57.5078C227.718 57.1953 227.932 56.8047 227.974 56.3359H229.341C229.315 56.8203 229.148 57.2812 228.841 57.7188C228.534 58.1562 228.122 58.5052 227.606 58.7656C227.096 59.026 226.554 59.1562 225.981 59.1562C224.83 59.1562 223.914 58.7734 223.231 58.0078C222.554 57.237 222.216 56.1849 222.216 54.8516V54.6094C222.216 53.7865 222.367 53.0547 222.669 52.4141C222.971 51.7734 223.403 51.276 223.966 50.9219C224.534 50.5677 225.203 50.3906 225.974 50.3906C226.922 50.3906 227.708 50.6745 228.333 51.2422C228.963 51.8099 229.299 52.5469 229.341 53.4531H227.974C227.932 52.9062 227.724 52.4583 227.349 52.1094C226.979 51.7552 226.521 51.5781 225.974 51.5781C225.239 51.5781 224.669 51.8438 224.263 52.375C223.862 52.901 223.661 53.6641 223.661 54.6641V54.9375C223.661 55.9115 223.862 56.6615 224.263 57.1875C224.664 57.7135 225.237 57.9766 225.981 57.9766ZM234.474 59.1562C233.328 59.1562 232.396 58.7812 231.677 58.0312C230.958 57.276 230.599 56.2682 230.599 55.0078V54.7422C230.599 53.9036 230.757 53.1562 231.075 52.5C231.398 51.8385 231.846 51.3229 232.419 50.9531C232.997 50.5781 233.622 50.3906 234.294 50.3906C235.393 50.3906 236.247 50.7526 236.856 51.4766C237.466 52.2005 237.771 53.237 237.771 54.5859V55.1875H232.044C232.065 56.0208 232.307 56.6953 232.771 57.2109C233.239 57.7214 233.833 57.9766 234.552 57.9766C235.062 57.9766 235.494 57.8724 235.849 57.6641C236.203 57.4557 236.513 57.1797 236.778 56.8359L237.661 57.5234C236.953 58.612 235.89 59.1562 234.474 59.1562ZM234.294 51.5781C233.711 51.5781 233.221 51.7917 232.825 52.2188C232.429 52.6406 232.185 53.2344 232.091 54H236.325V53.8906C236.284 53.1562 236.086 52.5885 235.731 52.1875C235.377 51.7812 234.898 51.5781 234.294 51.5781ZM242.958 59.1562C241.812 59.1562 240.88 58.7812 240.161 58.0312C239.442 57.276 239.083 56.2682 239.083 55.0078V54.7422C239.083 53.9036 239.242 53.1562 239.56 52.5C239.882 51.8385 240.33 51.3229 240.903 50.9531C241.481 50.5781 242.106 50.3906 242.778 50.3906C243.877 50.3906 244.731 50.7526 245.341 51.4766C245.95 52.2005 246.255 53.237 246.255 54.5859V55.1875H240.528C240.549 56.0208 240.791 56.6953 241.255 57.2109C241.724 57.7214 242.317 57.9766 243.036 57.9766C243.547 57.9766 243.979 57.8724 244.333 57.6641C244.687 57.4557 244.997 57.1797 245.263 56.8359L246.146 57.5234C245.437 58.612 244.375 59.1562 242.958 59.1562ZM242.778 51.5781C242.195 51.5781 241.705 51.7917 241.31 52.2188C240.914 52.6406 240.669 53.2344 240.575 54H244.81V53.8906C244.768 53.1562 244.57 52.5885 244.216 52.1875C243.862 51.7812 243.382 51.5781 242.778 51.5781ZM247.583 54.7031C247.583 53.4062 247.89 52.3646 248.505 51.5781C249.119 50.7865 249.924 50.3906 250.919 50.3906C251.909 50.3906 252.692 50.7292 253.271 51.4062V47H254.716V59H253.388L253.317 58.0938C252.739 58.8021 251.935 59.1562 250.903 59.1562C249.924 59.1562 249.125 58.7552 248.505 57.9531C247.89 57.151 247.583 56.1042 247.583 54.8125V54.7031ZM249.028 54.8672C249.028 55.8255 249.226 56.5755 249.622 57.1172C250.018 57.6589 250.565 57.9297 251.263 57.9297C252.179 57.9297 252.849 57.5182 253.271 56.6953V52.8125C252.838 52.0156 252.174 51.6172 251.278 51.6172C250.57 51.6172 250.018 51.8906 249.622 52.4375C249.226 52.9844 249.028 53.7943 249.028 54.8672ZM256.997 58.2422C256.997 57.9922 257.07 57.7839 257.216 57.6172C257.367 57.4505 257.591 57.3672 257.888 57.3672C258.185 57.3672 258.409 57.4505 258.56 57.6172C258.716 57.7839 258.794 57.9922 258.794 58.2422C258.794 58.4818 258.716 58.6823 258.56 58.8438C258.409 59.0052 258.185 59.0859 257.888 59.0859C257.591 59.0859 257.367 59.0052 257.216 58.8438C257.07 58.6823 256.997 58.4818 256.997 58.2422Z" fill="#6654A4"/>
<path d="M37.92 47.688H40.768C41.056 45.448 42.688 43.912 45.408 43.912C48.192 43.912 49.664 45.448 49.664 47.656C49.664 50.344 47.584 51.528 43.712 51.56H42.944V53.992H43.68C47.84 53.992 50.112 55.24 50.112 58.504C50.112 60.872 48.64 62.696 45.536 62.696C42.464 62.696 40.672 60.808 40.384 58.344H37.568C37.92 62.824 41.184 65.16 45.568 65.16C50.4 65.16 52.896 62.344 52.896 58.76C52.896 55.432 51.072 53.448 48.384 52.808V52.648C50.816 52.104 52.48 50.024 52.48 47.368C52.48 44.04 50.016 41.416 45.504 41.416C41.216 41.416 38.208 43.72 37.92 47.688Z" fill="#6654A4"/>
<defs>
<filter id="filter0_d" x="0" y="0" width="594.56" height="113" filterUnits="userSpaceOnUse" color-interpolation-filters="sRGB">
<feFlood flood-opacity="0" result="BackgroundImageFix"/>
<feColorMatrix in="SourceAlpha" type="matrix" values="0 0 0 0 0 0 0 0 0 0 0 0 0 0 0 0 0 0 127 0"/>
<feMorphology radius="4" operator="dilate" in="SourceAlpha" result="effect1_dropShadow"/>
<feOffset dy="3"/>
<feGaussianBlur stdDeviation="7.5"/>
<feColorMatrix type="matrix" values="0 0 0 0 0.872109 0 0 0 0 0.853125 0 0 0 0 0.9375 0 0 0 0.5 0"/>
<feBlend mode="normal" in2="BackgroundImageFix" result="effect1_dropShadow"/>
<feBlend mode="normal" in="SourceGraphic" in2="effect1_dropShadow" result="shape"/>
</filter>
</defs>
</svg>
