<svg width="595" height="414" viewBox="0 0 595 414" fill="none" xmlns="http://www.w3.org/2000/svg">
<path d="M23.352 23.832C23.352 18.36 26.872 14.968 31.576 14.968C36.28 14.968 39.8 18.36 39.8 23.832C39.8 29.272 36.28 32.696 31.576 32.696C26.872 32.696 23.352 29.272 23.352 23.832ZM42.776 23.832C42.776 17.144 37.88 12.44 31.576 12.44C25.304 12.44 20.376 17.144 20.376 23.832C20.376 30.52 25.304 35.224 31.576 35.224C32.728 35.224 33.848 35.064 34.904 34.776L39.352 39.224H43.128L37.496 33.624C40.696 31.704 42.776 28.184 42.776 23.832ZM58.6188 19.256C58.6188 21.752 57.1788 23.544 53.8828 23.544H49.5948V15.096H53.8828C57.2108 15.096 58.6188 16.728 58.6188 19.256ZM46.6828 12.696V35H49.5948V25.88H53.1148L58.4268 35H61.9148L56.3148 25.656C60.0588 24.824 61.6268 22.104 61.6268 19.256C61.6268 15.608 59.1308 12.696 53.8828 12.696H46.6828ZM77.5948 20.696V17.464H74.6828V43.32H77.5948V31.768C78.6828 33.56 80.9548 35.288 84.1548 35.288C88.8588 35.288 92.4748 31.608 92.4748 26.168C92.4748 20.696 88.8588 17.176 84.1548 17.176C80.9548 17.176 78.6508 18.84 77.5948 20.696ZM89.4988 26.168C89.4988 30.296 86.7788 32.728 83.5468 32.728C80.3788 32.728 77.5948 30.328 77.5948 26.2C77.5948 22.136 80.3788 19.704 83.5468 19.704C86.7788 19.704 89.4988 22.04 89.4988 26.168ZM95.2198 26.168C95.2198 31.608 98.8358 35.288 103.508 35.288C106.74 35.288 109.012 33.624 110.068 31.736V35H113.012V17.464H110.068V20.664C109.044 18.84 106.804 17.176 103.54 17.176C98.8358 17.176 95.2198 20.696 95.2198 26.168ZM110.068 26.2C110.068 30.328 107.316 32.728 104.116 32.728C100.916 32.728 98.1958 30.296 98.1958 26.168C98.1958 22.04 100.916 19.704 104.116 19.704C107.316 19.704 110.068 22.136 110.068 26.2ZM124.589 31.672L119.085 17.464H115.853L122.925 34.808L119.469 43.256H122.477L133.037 17.464H130.029L124.589 31.672ZM161.276 35H164.156V24.664C164.156 19.64 161.052 17.144 157.052 17.144C154.364 17.144 151.868 18.52 150.844 21.048C149.692 18.424 147.292 17.144 144.412 17.144C142.108 17.144 140.028 18.136 138.876 19.992V17.464H135.964V35H138.876V25.336C138.876 21.56 140.892 19.672 143.836 19.672C146.716 19.672 148.636 21.496 148.636 25.08V35H151.516V25.336C151.516 21.56 153.532 19.672 156.476 19.672C159.356 19.672 161.276 21.496 161.276 25.08V35ZM176.389 19.64C179.397 19.64 181.957 21.528 181.925 24.952H170.853C171.173 21.528 173.541 19.64 176.389 19.64ZM184.581 29.592H181.445C180.805 31.48 179.141 32.824 176.517 32.824C173.541 32.824 171.045 30.872 170.821 27.32H184.837C184.901 26.712 184.933 26.2 184.933 25.56C184.933 20.76 181.605 17.176 176.517 17.176C171.397 17.176 167.845 20.664 167.845 26.2C167.845 31.768 171.525 35.288 176.517 35.288C180.869 35.288 183.685 32.792 184.581 29.592ZM201.609 35H204.489V24.664C204.489 19.64 201.385 17.144 197.321 17.144C194.953 17.144 192.841 18.136 191.689 19.96V17.464H188.777V35H191.689V25.304C191.689 21.528 193.737 19.672 196.713 19.672C199.657 19.672 201.609 21.496 201.609 25.08V35ZM209.885 30.2C209.885 33.72 211.645 35 214.749 35H217.373V32.536H215.229C213.437 32.536 212.797 31.928 212.797 30.2V19.864H217.373V17.464H212.797V13.048H209.885V17.464H207.613V19.864H209.885V30.2Z" fill="#6654A4"/>
<g filter="url(#filter0_d)">
<rect x="19" y="84" width="556.56" height="75" rx="24" fill="white"/>
</g>
<path d="M89.6885 122.391C89.5479 123.594 89.1025 124.523 88.3525 125.18C87.6077 125.831 86.6156 126.156 85.376 126.156C84.0322 126.156 82.9541 125.674 82.1416 124.711C81.3343 123.747 80.9307 122.458 80.9307 120.844V119.75C80.9307 118.693 81.1182 117.763 81.4932 116.961C81.8734 116.159 82.4098 115.544 83.1025 115.117C83.7952 114.685 84.5973 114.469 85.5088 114.469C86.7171 114.469 87.6859 114.807 88.415 115.484C89.1442 116.156 89.5687 117.089 89.6885 118.281H88.1807C88.0505 117.375 87.7666 116.719 87.3291 116.312C86.8968 115.906 86.29 115.703 85.5088 115.703C84.5505 115.703 83.7979 116.057 83.251 116.766C82.7093 117.474 82.4385 118.482 82.4385 119.789V120.891C82.4385 122.125 82.6963 123.107 83.2119 123.836C83.7275 124.565 84.4489 124.93 85.376 124.93C86.2093 124.93 86.8473 124.742 87.29 124.367C87.738 123.987 88.0348 123.328 88.1807 122.391H89.6885ZM91.1338 121.695C91.1338 120.867 91.2952 120.122 91.6182 119.461C91.9463 118.799 92.3994 118.289 92.9775 117.93C93.5609 117.57 94.2249 117.391 94.9697 117.391C96.1208 117.391 97.0505 117.789 97.7588 118.586C98.4723 119.383 98.8291 120.443 98.8291 121.766V121.867C98.8291 122.69 98.6702 123.43 98.3525 124.086C98.04 124.737 97.5895 125.245 97.001 125.609C96.4176 125.974 95.7458 126.156 94.9854 126.156C93.8395 126.156 92.9098 125.758 92.1963 124.961C91.488 124.164 91.1338 123.109 91.1338 121.797V121.695ZM92.5869 121.867C92.5869 122.805 92.8031 123.557 93.2354 124.125C93.6729 124.693 94.2562 124.977 94.9854 124.977C95.7197 124.977 96.3031 124.69 96.7354 124.117C97.1676 123.539 97.3838 122.732 97.3838 121.695C97.3838 120.768 97.1624 120.018 96.7197 119.445C96.2822 118.867 95.6989 118.578 94.9697 118.578C94.2562 118.578 93.6807 118.862 93.2432 119.43C92.8057 119.997 92.5869 120.81 92.5869 121.867ZM102.009 117.547L102.056 118.609C102.701 117.797 103.545 117.391 104.587 117.391C106.373 117.391 107.274 118.398 107.29 120.414V126H105.845V120.406C105.84 119.797 105.699 119.346 105.423 119.055C105.152 118.763 104.728 118.617 104.149 118.617C103.681 118.617 103.269 118.742 102.915 118.992C102.561 119.242 102.285 119.57 102.087 119.977V126H100.642V117.547H102.009ZM114.392 123.758C114.392 123.367 114.243 123.065 113.946 122.852C113.655 122.633 113.142 122.445 112.407 122.289C111.678 122.133 111.097 121.945 110.665 121.727C110.238 121.508 109.92 121.247 109.712 120.945C109.509 120.643 109.407 120.284 109.407 119.867C109.407 119.174 109.699 118.589 110.282 118.109C110.871 117.63 111.621 117.391 112.532 117.391C113.491 117.391 114.267 117.638 114.86 118.133C115.459 118.628 115.759 119.26 115.759 120.031H114.306C114.306 119.635 114.136 119.294 113.798 119.008C113.465 118.721 113.043 118.578 112.532 118.578C112.006 118.578 111.595 118.693 111.298 118.922C111.001 119.151 110.853 119.451 110.853 119.82C110.853 120.169 110.991 120.432 111.267 120.609C111.543 120.786 112.04 120.956 112.759 121.117C113.483 121.279 114.069 121.471 114.517 121.695C114.965 121.919 115.295 122.19 115.509 122.508C115.728 122.82 115.837 123.203 115.837 123.656C115.837 124.411 115.535 125.018 114.931 125.477C114.326 125.93 113.543 126.156 112.579 126.156C111.902 126.156 111.303 126.036 110.782 125.797C110.261 125.557 109.853 125.224 109.556 124.797C109.264 124.365 109.118 123.898 109.118 123.398H110.563C110.59 123.883 110.782 124.268 111.142 124.555C111.506 124.836 111.985 124.977 112.579 124.977C113.126 124.977 113.563 124.867 113.892 124.648C114.225 124.424 114.392 124.128 114.392 123.758ZM122.938 125.164C122.376 125.826 121.55 126.156 120.462 126.156C119.561 126.156 118.873 125.896 118.399 125.375C117.931 124.849 117.694 124.073 117.688 123.047V117.547H119.134V123.008C119.134 124.289 119.655 124.93 120.696 124.93C121.8 124.93 122.535 124.518 122.899 123.695V117.547H124.345V126H122.97L122.938 125.164ZM127.907 117.547L127.946 118.484C128.566 117.755 129.402 117.391 130.454 117.391C131.636 117.391 132.441 117.844 132.868 118.75C133.149 118.344 133.514 118.016 133.962 117.766C134.415 117.516 134.949 117.391 135.563 117.391C137.418 117.391 138.36 118.372 138.392 120.336V126H136.946V120.422C136.946 119.818 136.808 119.367 136.532 119.07C136.256 118.768 135.793 118.617 135.142 118.617C134.605 118.617 134.16 118.779 133.806 119.102C133.451 119.419 133.246 119.849 133.188 120.391V126H131.735V120.461C131.735 119.232 131.134 118.617 129.931 118.617C128.983 118.617 128.334 119.021 127.985 119.828V126H126.54V117.547H127.907ZM144.087 126.156C142.941 126.156 142.009 125.781 141.29 125.031C140.571 124.276 140.212 123.268 140.212 122.008V121.742C140.212 120.904 140.371 120.156 140.688 119.5C141.011 118.839 141.459 118.323 142.032 117.953C142.61 117.578 143.235 117.391 143.907 117.391C145.006 117.391 145.86 117.753 146.47 118.477C147.079 119.201 147.384 120.237 147.384 121.586V122.188H141.657C141.678 123.021 141.92 123.695 142.384 124.211C142.853 124.721 143.446 124.977 144.165 124.977C144.675 124.977 145.108 124.872 145.462 124.664C145.816 124.456 146.126 124.18 146.392 123.836L147.274 124.523C146.566 125.612 145.504 126.156 144.087 126.156ZM143.907 118.578C143.324 118.578 142.834 118.792 142.438 119.219C142.043 119.641 141.798 120.234 141.704 121H145.938V120.891C145.897 120.156 145.699 119.589 145.345 119.188C144.991 118.781 144.511 118.578 143.907 118.578ZM153.149 118.844C152.931 118.807 152.694 118.789 152.438 118.789C151.491 118.789 150.847 119.193 150.509 120V126H149.063V117.547H150.47L150.493 118.523C150.967 117.768 151.639 117.391 152.509 117.391C152.79 117.391 153.004 117.427 153.149 117.5V118.844ZM165.938 124.008L167.563 117.547H169.009L166.548 126H165.376L163.321 119.594L161.321 126H160.149L157.696 117.547H159.134L160.798 123.875L162.767 117.547H163.931L165.938 124.008ZM172.056 126H170.61V117.547H172.056V126ZM170.493 115.305C170.493 115.07 170.563 114.872 170.704 114.711C170.85 114.549 171.063 114.469 171.345 114.469C171.626 114.469 171.84 114.549 171.985 114.711C172.131 114.872 172.204 115.07 172.204 115.305C172.204 115.539 172.131 115.734 171.985 115.891C171.84 116.047 171.626 116.125 171.345 116.125C171.063 116.125 170.85 116.047 170.704 115.891C170.563 115.734 170.493 115.539 170.493 115.305ZM175.946 126H174.501V114H175.946V126ZM179.837 126H178.392V114H179.837V126ZM191.048 123.758C191.048 123.367 190.899 123.065 190.603 122.852C190.311 122.633 189.798 122.445 189.063 122.289C188.334 122.133 187.754 121.945 187.321 121.727C186.894 121.508 186.576 121.247 186.368 120.945C186.165 120.643 186.063 120.284 186.063 119.867C186.063 119.174 186.355 118.589 186.938 118.109C187.527 117.63 188.277 117.391 189.188 117.391C190.147 117.391 190.923 117.638 191.517 118.133C192.116 118.628 192.415 119.26 192.415 120.031H190.962C190.962 119.635 190.793 119.294 190.454 119.008C190.121 118.721 189.699 118.578 189.188 118.578C188.662 118.578 188.251 118.693 187.954 118.922C187.657 119.151 187.509 119.451 187.509 119.82C187.509 120.169 187.647 120.432 187.923 120.609C188.199 120.786 188.696 120.956 189.415 121.117C190.139 121.279 190.725 121.471 191.173 121.695C191.621 121.919 191.951 122.19 192.165 122.508C192.384 122.82 192.493 123.203 192.493 123.656C192.493 124.411 192.191 125.018 191.587 125.477C190.983 125.93 190.199 126.156 189.235 126.156C188.558 126.156 187.959 126.036 187.438 125.797C186.918 125.557 186.509 125.224 186.212 124.797C185.92 124.365 185.774 123.898 185.774 123.398H187.22C187.246 123.883 187.438 124.268 187.798 124.555C188.162 124.836 188.642 124.977 189.235 124.977C189.782 124.977 190.22 124.867 190.548 124.648C190.881 124.424 191.048 124.128 191.048 123.758ZM197.767 124.977C198.282 124.977 198.733 124.82 199.118 124.508C199.504 124.195 199.717 123.805 199.759 123.336H201.126C201.1 123.82 200.933 124.281 200.626 124.719C200.319 125.156 199.907 125.505 199.392 125.766C198.881 126.026 198.34 126.156 197.767 126.156C196.616 126.156 195.699 125.773 195.017 125.008C194.34 124.237 194.001 123.185 194.001 121.852V121.609C194.001 120.786 194.152 120.055 194.454 119.414C194.756 118.773 195.188 118.276 195.751 117.922C196.319 117.568 196.988 117.391 197.759 117.391C198.707 117.391 199.493 117.674 200.118 118.242C200.748 118.81 201.084 119.547 201.126 120.453H199.759C199.717 119.906 199.509 119.458 199.134 119.109C198.764 118.755 198.306 118.578 197.759 118.578C197.024 118.578 196.454 118.844 196.048 119.375C195.647 119.901 195.446 120.664 195.446 121.664V121.938C195.446 122.911 195.647 123.661 196.048 124.188C196.449 124.714 197.022 124.977 197.767 124.977ZM207.97 126C207.886 125.833 207.819 125.536 207.767 125.109C207.095 125.807 206.293 126.156 205.36 126.156C204.527 126.156 203.842 125.922 203.306 125.453C202.774 124.979 202.509 124.38 202.509 123.656C202.509 122.776 202.842 122.094 203.509 121.609C204.181 121.12 205.123 120.875 206.337 120.875H207.743V120.211C207.743 119.706 207.592 119.305 207.29 119.008C206.988 118.706 206.543 118.555 205.954 118.555C205.438 118.555 205.006 118.685 204.657 118.945C204.308 119.206 204.134 119.521 204.134 119.891H202.681C202.681 119.469 202.829 119.062 203.126 118.672C203.428 118.276 203.834 117.964 204.345 117.734C204.86 117.505 205.425 117.391 206.04 117.391C207.014 117.391 207.777 117.635 208.329 118.125C208.881 118.609 209.168 119.279 209.188 120.133V124.023C209.188 124.799 209.287 125.417 209.485 125.875V126H207.97ZM205.571 124.898C206.024 124.898 206.454 124.781 206.86 124.547C207.267 124.312 207.561 124.008 207.743 123.633V121.898H206.61C204.84 121.898 203.954 122.417 203.954 123.453C203.954 123.906 204.105 124.26 204.407 124.516C204.709 124.771 205.097 124.898 205.571 124.898ZM212.821 117.547L212.868 118.609C213.514 117.797 214.358 117.391 215.399 117.391C217.186 117.391 218.087 118.398 218.103 120.414V126H216.657V120.406C216.652 119.797 216.511 119.346 216.235 119.055C215.965 118.763 215.54 118.617 214.962 118.617C214.493 118.617 214.082 118.742 213.728 118.992C213.373 119.242 213.097 119.57 212.899 119.977V126H211.454V117.547H212.821ZM233.165 120.68C233.165 121.779 232.991 122.727 232.642 123.523C232.293 124.315 231.803 124.935 231.173 125.383L233.204 126.977L232.181 127.922L229.782 126.016C229.407 126.109 229.011 126.156 228.595 126.156C227.699 126.156 226.905 125.938 226.212 125.5C225.519 125.057 224.98 124.43 224.595 123.617C224.215 122.799 224.019 121.854 224.009 120.781V119.961C224.009 118.867 224.199 117.901 224.579 117.062C224.959 116.224 225.496 115.583 226.188 115.141C226.886 114.693 227.683 114.469 228.579 114.469C229.496 114.469 230.3 114.69 230.993 115.133C231.691 115.576 232.228 116.214 232.603 117.047C232.978 117.875 233.165 118.844 233.165 119.953V120.68ZM231.665 119.945C231.665 118.607 231.397 117.576 230.86 116.852C230.329 116.122 229.569 115.758 228.579 115.758C227.636 115.758 226.892 116.12 226.345 116.844C225.803 117.562 225.524 118.562 225.509 119.844V120.68C225.509 121.982 225.78 123.008 226.321 123.758C226.868 124.508 227.626 124.883 228.595 124.883C229.563 124.883 230.313 124.531 230.845 123.828C231.376 123.12 231.649 122.107 231.665 120.789V119.945ZM239.649 121.398H236.978V126H235.47V114.625H239.235C240.517 114.625 241.501 114.917 242.188 115.5C242.881 116.083 243.228 116.932 243.228 118.047C243.228 118.755 243.035 119.372 242.649 119.898C242.269 120.424 241.738 120.818 241.056 121.078L243.728 125.906V126H242.118L239.649 121.398ZM236.978 120.172H239.282C240.027 120.172 240.618 119.979 241.056 119.594C241.498 119.208 241.72 118.693 241.72 118.047C241.72 117.344 241.509 116.805 241.087 116.43C240.67 116.055 240.066 115.865 239.274 115.859H236.978V120.172ZM252.47 124.977C252.985 124.977 253.436 124.82 253.821 124.508C254.207 124.195 254.42 123.805 254.462 123.336H255.829C255.803 123.82 255.636 124.281 255.329 124.719C255.022 125.156 254.61 125.505 254.095 125.766C253.584 126.026 253.043 126.156 252.47 126.156C251.319 126.156 250.402 125.773 249.72 125.008C249.043 124.237 248.704 123.185 248.704 121.852V121.609C248.704 120.786 248.855 120.055 249.157 119.414C249.459 118.773 249.892 118.276 250.454 117.922C251.022 117.568 251.691 117.391 252.462 117.391C253.41 117.391 254.196 117.674 254.821 118.242C255.451 118.81 255.787 119.547 255.829 120.453H254.462C254.42 119.906 254.212 119.458 253.837 119.109C253.467 118.755 253.009 118.578 252.462 118.578C251.728 118.578 251.157 118.844 250.751 119.375C250.35 119.901 250.149 120.664 250.149 121.664V121.938C250.149 122.911 250.35 123.661 250.751 124.188C251.152 124.714 251.725 124.977 252.47 124.977ZM257.071 121.695C257.071 120.867 257.233 120.122 257.556 119.461C257.884 118.799 258.337 118.289 258.915 117.93C259.498 117.57 260.162 117.391 260.907 117.391C262.058 117.391 262.988 117.789 263.696 118.586C264.41 119.383 264.767 120.443 264.767 121.766V121.867C264.767 122.69 264.608 123.43 264.29 124.086C263.978 124.737 263.527 125.245 262.938 125.609C262.355 125.974 261.683 126.156 260.923 126.156C259.777 126.156 258.847 125.758 258.134 124.961C257.425 124.164 257.071 123.109 257.071 121.797V121.695ZM258.524 121.867C258.524 122.805 258.741 123.557 259.173 124.125C259.61 124.693 260.194 124.977 260.923 124.977C261.657 124.977 262.241 124.69 262.673 124.117C263.105 123.539 263.321 122.732 263.321 121.695C263.321 120.768 263.1 120.018 262.657 119.445C262.22 118.867 261.636 118.578 260.907 118.578C260.194 118.578 259.618 118.862 259.181 119.43C258.743 119.997 258.524 120.81 258.524 121.867ZM266.228 121.703C266.228 120.406 266.535 119.365 267.149 118.578C267.764 117.786 268.569 117.391 269.563 117.391C270.553 117.391 271.337 117.729 271.915 118.406V114H273.36V126H272.032L271.962 125.094C271.384 125.802 270.579 126.156 269.548 126.156C268.569 126.156 267.769 125.755 267.149 124.953C266.535 124.151 266.228 123.104 266.228 121.812V121.703ZM267.673 121.867C267.673 122.826 267.871 123.576 268.267 124.117C268.662 124.659 269.209 124.93 269.907 124.93C270.824 124.93 271.493 124.518 271.915 123.695V119.812C271.483 119.016 270.819 118.617 269.923 118.617C269.215 118.617 268.662 118.891 268.267 119.438C267.871 119.984 267.673 120.794 267.673 121.867ZM279.118 126.156C277.972 126.156 277.04 125.781 276.321 125.031C275.603 124.276 275.243 123.268 275.243 122.008V121.742C275.243 120.904 275.402 120.156 275.72 119.5C276.043 118.839 276.491 118.323 277.063 117.953C277.642 117.578 278.267 117.391 278.938 117.391C280.037 117.391 280.892 117.753 281.501 118.477C282.11 119.201 282.415 120.237 282.415 121.586V122.188H276.688C276.709 123.021 276.951 123.695 277.415 124.211C277.884 124.721 278.478 124.977 279.196 124.977C279.707 124.977 280.139 124.872 280.493 124.664C280.847 124.456 281.157 124.18 281.423 123.836L282.306 124.523C281.597 125.612 280.535 126.156 279.118 126.156ZM278.938 118.578C278.355 118.578 277.866 118.792 277.47 119.219C277.074 119.641 276.829 120.234 276.735 121H280.97V120.891C280.928 120.156 280.73 119.589 280.376 119.188C280.022 118.781 279.543 118.578 278.938 118.578ZM293.282 126C293.199 125.833 293.131 125.536 293.079 125.109C292.407 125.807 291.605 126.156 290.673 126.156C289.84 126.156 289.155 125.922 288.618 125.453C288.087 124.979 287.821 124.38 287.821 123.656C287.821 122.776 288.155 122.094 288.821 121.609C289.493 121.12 290.436 120.875 291.649 120.875H293.056V120.211C293.056 119.706 292.905 119.305 292.603 119.008C292.3 118.706 291.855 118.555 291.267 118.555C290.751 118.555 290.319 118.685 289.97 118.945C289.621 119.206 289.446 119.521 289.446 119.891H287.993C287.993 119.469 288.142 119.062 288.438 118.672C288.741 118.276 289.147 117.964 289.657 117.734C290.173 117.505 290.738 117.391 291.353 117.391C292.326 117.391 293.09 117.635 293.642 118.125C294.194 118.609 294.48 119.279 294.501 120.133V124.023C294.501 124.799 294.6 125.417 294.798 125.875V126H293.282ZM290.884 124.898C291.337 124.898 291.767 124.781 292.173 124.547C292.579 124.312 292.873 124.008 293.056 123.633V121.898H291.923C290.152 121.898 289.267 122.417 289.267 123.453C289.267 123.906 289.418 124.26 289.72 124.516C290.022 124.771 290.41 124.898 290.884 124.898ZM298.134 117.547L298.181 118.609C298.826 117.797 299.67 117.391 300.712 117.391C302.498 117.391 303.399 118.398 303.415 120.414V126H301.97V120.406C301.965 119.797 301.824 119.346 301.548 119.055C301.277 118.763 300.853 118.617 300.274 118.617C299.806 118.617 299.394 118.742 299.04 118.992C298.686 119.242 298.41 119.57 298.212 119.977V126H296.767V117.547H298.134ZM305.243 121.703C305.243 120.406 305.55 119.365 306.165 118.578C306.78 117.786 307.584 117.391 308.579 117.391C309.569 117.391 310.353 117.729 310.931 118.406V114H312.376V126H311.048L310.978 125.094C310.399 125.802 309.595 126.156 308.563 126.156C307.584 126.156 306.785 125.755 306.165 124.953C305.55 124.151 305.243 123.104 305.243 121.812V121.703ZM306.688 121.867C306.688 122.826 306.886 123.576 307.282 124.117C307.678 124.659 308.225 124.93 308.923 124.93C309.84 124.93 310.509 124.518 310.931 123.695V119.812C310.498 119.016 309.834 118.617 308.938 118.617C308.23 118.617 307.678 118.891 307.282 119.438C306.886 119.984 306.688 120.794 306.688 121.867ZM325.735 121.867C325.735 123.154 325.441 124.19 324.853 124.977C324.264 125.763 323.467 126.156 322.462 126.156C321.436 126.156 320.629 125.831 320.04 125.18V129.25H318.595V117.547H319.915L319.985 118.484C320.574 117.755 321.392 117.391 322.438 117.391C323.454 117.391 324.256 117.773 324.845 118.539C325.438 119.305 325.735 120.37 325.735 121.734V121.867ZM324.29 121.703C324.29 120.75 324.087 119.997 323.681 119.445C323.274 118.893 322.717 118.617 322.009 118.617C321.134 118.617 320.478 119.005 320.04 119.781V123.82C320.472 124.591 321.134 124.977 322.024 124.977C322.717 124.977 323.267 124.703 323.673 124.156C324.084 123.604 324.29 122.786 324.29 121.703ZM332.798 126C332.715 125.833 332.647 125.536 332.595 125.109C331.923 125.807 331.121 126.156 330.188 126.156C329.355 126.156 328.67 125.922 328.134 125.453C327.603 124.979 327.337 124.38 327.337 123.656C327.337 122.776 327.67 122.094 328.337 121.609C329.009 121.12 329.951 120.875 331.165 120.875H332.571V120.211C332.571 119.706 332.42 119.305 332.118 119.008C331.816 118.706 331.371 118.555 330.782 118.555C330.267 118.555 329.834 118.685 329.485 118.945C329.136 119.206 328.962 119.521 328.962 119.891H327.509C327.509 119.469 327.657 119.062 327.954 118.672C328.256 118.276 328.662 117.964 329.173 117.734C329.688 117.505 330.254 117.391 330.868 117.391C331.842 117.391 332.605 117.635 333.157 118.125C333.709 118.609 333.996 119.279 334.017 120.133V124.023C334.017 124.799 334.116 125.417 334.313 125.875V126H332.798ZM330.399 124.898C330.853 124.898 331.282 124.781 331.688 124.547C332.095 124.312 332.389 124.008 332.571 123.633V121.898H331.438C329.668 121.898 328.782 122.417 328.782 123.453C328.782 123.906 328.933 124.26 329.235 124.516C329.537 124.771 329.925 124.898 330.399 124.898ZM338.923 123.883L340.892 117.547H342.438L339.04 127.305C338.514 128.711 337.678 129.414 336.532 129.414L336.259 129.391L335.72 129.289V128.117L336.11 128.148C336.6 128.148 336.98 128.049 337.251 127.852C337.527 127.654 337.754 127.292 337.931 126.766L338.251 125.906L335.235 117.547H336.813L338.923 123.883ZM349.149 118.57C349.79 117.784 350.623 117.391 351.649 117.391C353.436 117.391 354.337 118.398 354.353 120.414V126H352.907V120.406C352.902 119.797 352.761 119.346 352.485 119.055C352.215 118.763 351.79 118.617 351.212 118.617C350.743 118.617 350.332 118.742 349.978 118.992C349.623 119.242 349.347 119.57 349.149 119.977V126H347.704V114H349.149V118.57ZM358.087 126H356.642V117.547H358.087V126ZM356.524 115.305C356.524 115.07 356.595 114.872 356.735 114.711C356.881 114.549 357.095 114.469 357.376 114.469C357.657 114.469 357.871 114.549 358.017 114.711C358.162 114.872 358.235 115.07 358.235 115.305C358.235 115.539 358.162 115.734 358.017 115.891C357.871 116.047 357.657 116.125 357.376 116.125C357.095 116.125 356.881 116.047 356.735 115.891C356.595 115.734 356.524 115.539 356.524 115.305ZM365.329 123.758C365.329 123.367 365.181 123.065 364.884 122.852C364.592 122.633 364.079 122.445 363.345 122.289C362.616 122.133 362.035 121.945 361.603 121.727C361.175 121.508 360.858 121.247 360.649 120.945C360.446 120.643 360.345 120.284 360.345 119.867C360.345 119.174 360.636 118.589 361.22 118.109C361.808 117.63 362.558 117.391 363.47 117.391C364.428 117.391 365.204 117.638 365.798 118.133C366.397 118.628 366.696 119.26 366.696 120.031H365.243C365.243 119.635 365.074 119.294 364.735 119.008C364.402 118.721 363.98 118.578 363.47 118.578C362.944 118.578 362.532 118.693 362.235 118.922C361.938 119.151 361.79 119.451 361.79 119.82C361.79 120.169 361.928 120.432 362.204 120.609C362.48 120.786 362.978 120.956 363.696 121.117C364.42 121.279 365.006 121.471 365.454 121.695C365.902 121.919 366.233 122.19 366.446 122.508C366.665 122.82 366.774 123.203 366.774 123.656C366.774 124.411 366.472 125.018 365.868 125.477C365.264 125.93 364.48 126.156 363.517 126.156C362.84 126.156 362.241 126.036 361.72 125.797C361.199 125.557 360.79 125.224 360.493 124.797C360.201 124.365 360.056 123.898 360.056 123.398H361.501C361.527 123.883 361.72 124.268 362.079 124.555C362.444 124.836 362.923 124.977 363.517 124.977C364.063 124.977 364.501 124.867 364.829 124.648C365.162 124.424 365.329 124.128 365.329 123.758ZM372.915 126.977H371.673L376.423 114.625H377.657L372.915 126.977ZM384.634 118.57C385.274 117.784 386.108 117.391 387.134 117.391C388.92 117.391 389.821 118.398 389.837 120.414V126H388.392V120.406C388.386 119.797 388.246 119.346 387.97 119.055C387.699 118.763 387.274 118.617 386.696 118.617C386.228 118.617 385.816 118.742 385.462 118.992C385.108 119.242 384.832 119.57 384.634 119.977V126H383.188V114H384.634V118.57ZM395.509 126.156C394.363 126.156 393.431 125.781 392.712 125.031C391.993 124.276 391.634 123.268 391.634 122.008V121.742C391.634 120.904 391.793 120.156 392.11 119.5C392.433 118.839 392.881 118.323 393.454 117.953C394.032 117.578 394.657 117.391 395.329 117.391C396.428 117.391 397.282 117.753 397.892 118.477C398.501 119.201 398.806 120.237 398.806 121.586V122.188H393.079C393.1 123.021 393.342 123.695 393.806 124.211C394.274 124.721 394.868 124.977 395.587 124.977C396.097 124.977 396.53 124.872 396.884 124.664C397.238 124.456 397.548 124.18 397.813 123.836L398.696 124.523C397.988 125.612 396.925 126.156 395.509 126.156ZM395.329 118.578C394.746 118.578 394.256 118.792 393.86 119.219C393.465 119.641 393.22 120.234 393.126 121H397.36V120.891C397.319 120.156 397.121 119.589 396.767 119.188C396.412 118.781 395.933 118.578 395.329 118.578ZM404.571 118.844C404.353 118.807 404.116 118.789 403.86 118.789C402.912 118.789 402.269 119.193 401.931 120V126H400.485V117.547H401.892L401.915 118.523C402.389 117.768 403.061 117.391 403.931 117.391C404.212 117.391 404.425 117.427 404.571 117.5V118.844ZM417.032 121.867C417.032 123.159 416.735 124.198 416.142 124.984C415.548 125.766 414.751 126.156 413.751 126.156C412.683 126.156 411.858 125.779 411.274 125.023L411.204 126H409.876V114H411.321V118.477C411.905 117.753 412.709 117.391 413.735 117.391C414.761 117.391 415.566 117.779 416.149 118.555C416.738 119.331 417.032 120.393 417.032 121.742V121.867ZM415.587 121.703C415.587 120.719 415.397 119.958 415.017 119.422C414.636 118.885 414.09 118.617 413.376 118.617C412.423 118.617 411.738 119.06 411.321 119.945V123.602C411.764 124.487 412.454 124.93 413.392 124.93C414.084 124.93 414.623 124.661 415.009 124.125C415.394 123.589 415.587 122.781 415.587 121.703ZM420.431 126H418.985V117.547H420.431V126ZM418.868 115.305C418.868 115.07 418.938 114.872 419.079 114.711C419.225 114.549 419.438 114.469 419.72 114.469C420.001 114.469 420.215 114.549 420.36 114.711C420.506 114.872 420.579 115.07 420.579 115.305C420.579 115.539 420.506 115.734 420.36 115.891C420.215 116.047 420.001 116.125 419.72 116.125C419.438 116.125 419.225 116.047 419.079 115.891C418.938 115.734 418.868 115.539 418.868 115.305ZM424.321 126H422.876V114H424.321V126ZM428.212 126H426.767V114H428.212V126ZM430.563 125.242C430.563 124.992 430.636 124.784 430.782 124.617C430.933 124.451 431.157 124.367 431.454 124.367C431.751 124.367 431.975 124.451 432.126 124.617C432.282 124.784 432.36 124.992 432.36 125.242C432.36 125.482 432.282 125.682 432.126 125.844C431.975 126.005 431.751 126.086 431.454 126.086C431.157 126.086 430.933 126.005 430.782 125.844C430.636 125.682 430.563 125.482 430.563 125.242Z" fill="#6654A4"/>
<path d="M45.288 132H48.232V108.864H42.216V111.52H45.288V132Z" fill="#6654A4"/>
<path d="M89.6885 207.391C89.5479 208.594 89.1025 209.523 88.3525 210.18C87.6077 210.831 86.6156 211.156 85.376 211.156C84.0322 211.156 82.9541 210.674 82.1416 209.711C81.3343 208.747 80.9307 207.458 80.9307 205.844V204.75C80.9307 203.693 81.1182 202.763 81.4932 201.961C81.8734 201.159 82.4098 200.544 83.1025 200.117C83.7952 199.685 84.5973 199.469 85.5088 199.469C86.7171 199.469 87.6859 199.807 88.415 200.484C89.1442 201.156 89.5687 202.089 89.6885 203.281H88.1807C88.0505 202.375 87.7666 201.719 87.3291 201.312C86.8968 200.906 86.29 200.703 85.5088 200.703C84.5505 200.703 83.7979 201.057 83.251 201.766C82.7093 202.474 82.4385 203.482 82.4385 204.789V205.891C82.4385 207.125 82.6963 208.107 83.2119 208.836C83.7275 209.565 84.4489 209.93 85.376 209.93C86.2093 209.93 86.8473 209.742 87.29 209.367C87.738 208.987 88.0348 208.328 88.1807 207.391H89.6885ZM91.1338 206.695C91.1338 205.867 91.2952 205.122 91.6182 204.461C91.9463 203.799 92.3994 203.289 92.9775 202.93C93.5609 202.57 94.2249 202.391 94.9697 202.391C96.1208 202.391 97.0505 202.789 97.7588 203.586C98.4723 204.383 98.8291 205.443 98.8291 206.766V206.867C98.8291 207.69 98.6702 208.43 98.3525 209.086C98.04 209.737 97.5895 210.245 97.001 210.609C96.4176 210.974 95.7458 211.156 94.9854 211.156C93.8395 211.156 92.9098 210.758 92.1963 209.961C91.488 209.164 91.1338 208.109 91.1338 206.797V206.695ZM92.5869 206.867C92.5869 207.805 92.8031 208.557 93.2354 209.125C93.6729 209.693 94.2562 209.977 94.9854 209.977C95.7197 209.977 96.3031 209.69 96.7354 209.117C97.1676 208.539 97.3838 207.732 97.3838 206.695C97.3838 205.768 97.1624 205.018 96.7197 204.445C96.2822 203.867 95.6989 203.578 94.9697 203.578C94.2562 203.578 93.6807 203.862 93.2432 204.43C92.8057 204.997 92.5869 205.81 92.5869 206.867ZM102.009 202.547L102.056 203.609C102.701 202.797 103.545 202.391 104.587 202.391C106.373 202.391 107.274 203.398 107.29 205.414V211H105.845V205.406C105.84 204.797 105.699 204.346 105.423 204.055C105.152 203.763 104.728 203.617 104.149 203.617C103.681 203.617 103.269 203.742 102.915 203.992C102.561 204.242 102.285 204.57 102.087 204.977V211H100.642V202.547H102.009ZM114.392 208.758C114.392 208.367 114.243 208.065 113.946 207.852C113.655 207.633 113.142 207.445 112.407 207.289C111.678 207.133 111.097 206.945 110.665 206.727C110.238 206.508 109.92 206.247 109.712 205.945C109.509 205.643 109.407 205.284 109.407 204.867C109.407 204.174 109.699 203.589 110.282 203.109C110.871 202.63 111.621 202.391 112.532 202.391C113.491 202.391 114.267 202.638 114.86 203.133C115.459 203.628 115.759 204.26 115.759 205.031H114.306C114.306 204.635 114.136 204.294 113.798 204.008C113.465 203.721 113.043 203.578 112.532 203.578C112.006 203.578 111.595 203.693 111.298 203.922C111.001 204.151 110.853 204.451 110.853 204.82C110.853 205.169 110.991 205.432 111.267 205.609C111.543 205.786 112.04 205.956 112.759 206.117C113.483 206.279 114.069 206.471 114.517 206.695C114.965 206.919 115.295 207.19 115.509 207.508C115.728 207.82 115.837 208.203 115.837 208.656C115.837 209.411 115.535 210.018 114.931 210.477C114.326 210.93 113.543 211.156 112.579 211.156C111.902 211.156 111.303 211.036 110.782 210.797C110.261 210.557 109.853 210.224 109.556 209.797C109.264 209.365 109.118 208.898 109.118 208.398H110.563C110.59 208.883 110.782 209.268 111.142 209.555C111.506 209.836 111.985 209.977 112.579 209.977C113.126 209.977 113.563 209.867 113.892 209.648C114.225 209.424 114.392 209.128 114.392 208.758ZM122.938 210.164C122.376 210.826 121.55 211.156 120.462 211.156C119.561 211.156 118.873 210.896 118.399 210.375C117.931 209.849 117.694 209.073 117.688 208.047V202.547H119.134V208.008C119.134 209.289 119.655 209.93 120.696 209.93C121.8 209.93 122.535 209.518 122.899 208.695V202.547H124.345V211H122.97L122.938 210.164ZM127.907 202.547L127.946 203.484C128.566 202.755 129.402 202.391 130.454 202.391C131.636 202.391 132.441 202.844 132.868 203.75C133.149 203.344 133.514 203.016 133.962 202.766C134.415 202.516 134.949 202.391 135.563 202.391C137.418 202.391 138.36 203.372 138.392 205.336V211H136.946V205.422C136.946 204.818 136.808 204.367 136.532 204.07C136.256 203.768 135.793 203.617 135.142 203.617C134.605 203.617 134.16 203.779 133.806 204.102C133.451 204.419 133.246 204.849 133.188 205.391V211H131.735V205.461C131.735 204.232 131.134 203.617 129.931 203.617C128.983 203.617 128.334 204.021 127.985 204.828V211H126.54V202.547H127.907ZM144.087 211.156C142.941 211.156 142.009 210.781 141.29 210.031C140.571 209.276 140.212 208.268 140.212 207.008V206.742C140.212 205.904 140.371 205.156 140.688 204.5C141.011 203.839 141.459 203.323 142.032 202.953C142.61 202.578 143.235 202.391 143.907 202.391C145.006 202.391 145.86 202.753 146.47 203.477C147.079 204.201 147.384 205.237 147.384 206.586V207.188H141.657C141.678 208.021 141.92 208.695 142.384 209.211C142.853 209.721 143.446 209.977 144.165 209.977C144.675 209.977 145.108 209.872 145.462 209.664C145.816 209.456 146.126 209.18 146.392 208.836L147.274 209.523C146.566 210.612 145.504 211.156 144.087 211.156ZM143.907 203.578C143.324 203.578 142.834 203.792 142.438 204.219C142.043 204.641 141.798 205.234 141.704 206H145.938V205.891C145.897 205.156 145.699 204.589 145.345 204.188C144.991 203.781 144.511 203.578 143.907 203.578ZM153.149 203.844C152.931 203.807 152.694 203.789 152.438 203.789C151.491 203.789 150.847 204.193 150.509 205V211H149.063V202.547H150.47L150.493 203.523C150.967 202.768 151.639 202.391 152.509 202.391C152.79 202.391 153.004 202.427 153.149 202.5V203.844ZM165.938 209.008L167.563 202.547H169.009L166.548 211H165.376L163.321 204.594L161.321 211H160.149L157.696 202.547H159.134L160.798 208.875L162.767 202.547H163.931L165.938 209.008ZM172.056 211H170.61V202.547H172.056V211ZM170.493 200.305C170.493 200.07 170.563 199.872 170.704 199.711C170.85 199.549 171.063 199.469 171.345 199.469C171.626 199.469 171.84 199.549 171.985 199.711C172.131 199.872 172.204 200.07 172.204 200.305C172.204 200.539 172.131 200.734 171.985 200.891C171.84 201.047 171.626 201.125 171.345 201.125C171.063 201.125 170.85 201.047 170.704 200.891C170.563 200.734 170.493 200.539 170.493 200.305ZM175.946 211H174.501V199H175.946V211ZM179.837 211H178.392V199H179.837V211ZM189.517 209.977C190.032 209.977 190.483 209.82 190.868 209.508C191.254 209.195 191.467 208.805 191.509 208.336H192.876C192.85 208.82 192.683 209.281 192.376 209.719C192.069 210.156 191.657 210.505 191.142 210.766C190.631 211.026 190.09 211.156 189.517 211.156C188.366 211.156 187.449 210.773 186.767 210.008C186.09 209.237 185.751 208.185 185.751 206.852V206.609C185.751 205.786 185.902 205.055 186.204 204.414C186.506 203.773 186.938 203.276 187.501 202.922C188.069 202.568 188.738 202.391 189.509 202.391C190.457 202.391 191.243 202.674 191.868 203.242C192.498 203.81 192.834 204.547 192.876 205.453H191.509C191.467 204.906 191.259 204.458 190.884 204.109C190.514 203.755 190.056 203.578 189.509 203.578C188.774 203.578 188.204 203.844 187.798 204.375C187.397 204.901 187.196 205.664 187.196 206.664V206.938C187.196 207.911 187.397 208.661 187.798 209.188C188.199 209.714 188.772 209.977 189.517 209.977ZM194.118 206.695C194.118 205.867 194.28 205.122 194.603 204.461C194.931 203.799 195.384 203.289 195.962 202.93C196.545 202.57 197.209 202.391 197.954 202.391C199.105 202.391 200.035 202.789 200.743 203.586C201.457 204.383 201.813 205.443 201.813 206.766V206.867C201.813 207.69 201.655 208.43 201.337 209.086C201.024 209.737 200.574 210.245 199.985 210.609C199.402 210.974 198.73 211.156 197.97 211.156C196.824 211.156 195.894 210.758 195.181 209.961C194.472 209.164 194.118 208.109 194.118 206.797V206.695ZM195.571 206.867C195.571 207.805 195.787 208.557 196.22 209.125C196.657 209.693 197.241 209.977 197.97 209.977C198.704 209.977 199.287 209.69 199.72 209.117C200.152 208.539 200.368 207.732 200.368 206.695C200.368 205.768 200.147 205.018 199.704 204.445C199.267 203.867 198.683 203.578 197.954 203.578C197.241 203.578 196.665 203.862 196.228 204.43C195.79 204.997 195.571 205.81 195.571 206.867ZM204.993 202.547L205.04 203.609C205.686 202.797 206.53 202.391 207.571 202.391C209.358 202.391 210.259 203.398 210.274 205.414V211H208.829V205.406C208.824 204.797 208.683 204.346 208.407 204.055C208.136 203.763 207.712 203.617 207.134 203.617C206.665 203.617 206.254 203.742 205.899 203.992C205.545 204.242 205.269 204.57 205.071 204.977V211H203.626V202.547H204.993ZM212.938 211V203.664H211.603V202.547H212.938V201.828C212.938 200.885 213.207 200.151 213.743 199.625C214.285 199.099 215.048 198.836 216.032 198.836C216.616 198.836 217.353 198.995 218.243 199.312L218.001 200.531C217.35 200.271 216.73 200.141 216.142 200.141C215.522 200.141 215.074 200.281 214.798 200.562C214.527 200.839 214.392 201.255 214.392 201.812V202.547H216.118V203.664H214.392V211H212.938ZM218.962 211H217.509V202.547H218.962V211ZM225.399 203.844C225.181 203.807 224.944 203.789 224.688 203.789C223.741 203.789 223.097 204.193 222.759 205V211H221.313V202.547H222.72L222.743 203.523C223.217 202.768 223.889 202.391 224.759 202.391C225.04 202.391 225.254 202.427 225.399 202.5V203.844ZM228.095 202.547L228.134 203.484C228.754 202.755 229.59 202.391 230.642 202.391C231.824 202.391 232.629 202.844 233.056 203.75C233.337 203.344 233.701 203.016 234.149 202.766C234.603 202.516 235.136 202.391 235.751 202.391C237.605 202.391 238.548 203.372 238.579 205.336V211H237.134V205.422C237.134 204.818 236.996 204.367 236.72 204.07C236.444 203.768 235.98 203.617 235.329 203.617C234.793 203.617 234.347 203.779 233.993 204.102C233.639 204.419 233.433 204.849 233.376 205.391V211H231.923V205.461C231.923 204.232 231.321 203.617 230.118 203.617C229.17 203.617 228.522 204.021 228.173 204.828V211H226.728V202.547H228.095ZM246.696 200.5V202.547H248.274V203.664H246.696V208.906C246.696 209.245 246.767 209.5 246.907 209.672C247.048 209.839 247.287 209.922 247.626 209.922C247.793 209.922 248.022 209.891 248.313 209.828V211C247.933 211.104 247.563 211.156 247.204 211.156C246.558 211.156 246.071 210.961 245.743 210.57C245.415 210.18 245.251 209.625 245.251 208.906V203.664H243.712V202.547H245.251V200.5H246.696ZM251.415 203.57C252.056 202.784 252.889 202.391 253.915 202.391C255.701 202.391 256.603 203.398 256.618 205.414V211H255.173V205.406C255.168 204.797 255.027 204.346 254.751 204.055C254.48 203.763 254.056 203.617 253.478 203.617C253.009 203.617 252.597 203.742 252.243 203.992C251.889 204.242 251.613 204.57 251.415 204.977V211H249.97V199H251.415V203.57ZM262.29 211.156C261.144 211.156 260.212 210.781 259.493 210.031C258.774 209.276 258.415 208.268 258.415 207.008V206.742C258.415 205.904 258.574 205.156 258.892 204.5C259.215 203.839 259.662 203.323 260.235 202.953C260.813 202.578 261.438 202.391 262.11 202.391C263.209 202.391 264.063 202.753 264.673 203.477C265.282 204.201 265.587 205.237 265.587 206.586V207.188H259.86C259.881 208.021 260.123 208.695 260.587 209.211C261.056 209.721 261.649 209.977 262.368 209.977C262.879 209.977 263.311 209.872 263.665 209.664C264.019 209.456 264.329 209.18 264.595 208.836L265.478 209.523C264.769 210.612 263.707 211.156 262.29 211.156ZM262.11 203.578C261.527 203.578 261.037 203.792 260.642 204.219C260.246 204.641 260.001 205.234 259.907 206H264.142V205.891C264.1 205.156 263.902 204.589 263.548 204.188C263.194 203.781 262.715 203.578 262.11 203.578ZM278.376 206.867C278.376 208.154 278.082 209.19 277.493 209.977C276.905 210.763 276.108 211.156 275.103 211.156C274.076 211.156 273.269 210.831 272.681 210.18V214.25H271.235V202.547H272.556L272.626 203.484C273.215 202.755 274.032 202.391 275.079 202.391C276.095 202.391 276.897 202.773 277.485 203.539C278.079 204.305 278.376 205.37 278.376 206.734V206.867ZM276.931 206.703C276.931 205.75 276.728 204.997 276.321 204.445C275.915 203.893 275.358 203.617 274.649 203.617C273.774 203.617 273.118 204.005 272.681 204.781V208.82C273.113 209.591 273.774 209.977 274.665 209.977C275.358 209.977 275.907 209.703 276.313 209.156C276.725 208.604 276.931 207.786 276.931 206.703ZM285.438 211C285.355 210.833 285.287 210.536 285.235 210.109C284.563 210.807 283.761 211.156 282.829 211.156C281.996 211.156 281.311 210.922 280.774 210.453C280.243 209.979 279.978 209.38 279.978 208.656C279.978 207.776 280.311 207.094 280.978 206.609C281.649 206.12 282.592 205.875 283.806 205.875H285.212V205.211C285.212 204.706 285.061 204.305 284.759 204.008C284.457 203.706 284.011 203.555 283.423 203.555C282.907 203.555 282.475 203.685 282.126 203.945C281.777 204.206 281.603 204.521 281.603 204.891H280.149C280.149 204.469 280.298 204.062 280.595 203.672C280.897 203.276 281.303 202.964 281.813 202.734C282.329 202.505 282.894 202.391 283.509 202.391C284.483 202.391 285.246 202.635 285.798 203.125C286.35 203.609 286.636 204.279 286.657 205.133V209.023C286.657 209.799 286.756 210.417 286.954 210.875V211H285.438ZM283.04 209.898C283.493 209.898 283.923 209.781 284.329 209.547C284.735 209.312 285.03 209.008 285.212 208.633V206.898H284.079C282.308 206.898 281.423 207.417 281.423 208.453C281.423 208.906 281.574 209.26 281.876 209.516C282.178 209.771 282.566 209.898 283.04 209.898ZM291.563 208.883L293.532 202.547H295.079L291.681 212.305C291.155 213.711 290.319 214.414 289.173 214.414L288.899 214.391L288.36 214.289V213.117L288.751 213.148C289.241 213.148 289.621 213.049 289.892 212.852C290.168 212.654 290.394 212.292 290.571 211.766L290.892 210.906L287.876 202.547H289.454L291.563 208.883ZM297.735 202.547L297.774 203.484C298.394 202.755 299.23 202.391 300.282 202.391C301.465 202.391 302.269 202.844 302.696 203.75C302.978 203.344 303.342 203.016 303.79 202.766C304.243 202.516 304.777 202.391 305.392 202.391C307.246 202.391 308.188 203.372 308.22 205.336V211H306.774V205.422C306.774 204.818 306.636 204.367 306.36 204.07C306.084 203.768 305.621 203.617 304.97 203.617C304.433 203.617 303.988 203.779 303.634 204.102C303.28 204.419 303.074 204.849 303.017 205.391V211H301.563V205.461C301.563 204.232 300.962 203.617 299.759 203.617C298.811 203.617 298.162 204.021 297.813 204.828V211H296.368V202.547H297.735ZM313.915 211.156C312.769 211.156 311.837 210.781 311.118 210.031C310.399 209.276 310.04 208.268 310.04 207.008V206.742C310.04 205.904 310.199 205.156 310.517 204.5C310.84 203.839 311.287 203.323 311.86 202.953C312.438 202.578 313.063 202.391 313.735 202.391C314.834 202.391 315.688 202.753 316.298 203.477C316.907 204.201 317.212 205.237 317.212 206.586V207.188H311.485C311.506 208.021 311.748 208.695 312.212 209.211C312.681 209.721 313.274 209.977 313.993 209.977C314.504 209.977 314.936 209.872 315.29 209.664C315.644 209.456 315.954 209.18 316.22 208.836L317.103 209.523C316.394 210.612 315.332 211.156 313.915 211.156ZM313.735 203.578C313.152 203.578 312.662 203.792 312.267 204.219C311.871 204.641 311.626 205.234 311.532 206H315.767V205.891C315.725 205.156 315.527 204.589 315.173 204.188C314.819 203.781 314.34 203.578 313.735 203.578ZM320.259 202.547L320.306 203.609C320.951 202.797 321.795 202.391 322.837 202.391C324.623 202.391 325.524 203.398 325.54 205.414V211H324.095V205.406C324.09 204.797 323.949 204.346 323.673 204.055C323.402 203.763 322.978 203.617 322.399 203.617C321.931 203.617 321.519 203.742 321.165 203.992C320.811 204.242 320.535 204.57 320.337 204.977V211H318.892V202.547H320.259ZM329.681 200.5V202.547H331.259V203.664H329.681V208.906C329.681 209.245 329.751 209.5 329.892 209.672C330.032 209.839 330.272 209.922 330.61 209.922C330.777 209.922 331.006 209.891 331.298 209.828V211C330.918 211.104 330.548 211.156 330.188 211.156C329.543 211.156 329.056 210.961 328.728 210.57C328.399 210.18 328.235 209.625 328.235 208.906V203.664H326.696V202.547H328.235V200.5H329.681ZM342.142 211C342.058 210.833 341.991 210.536 341.938 210.109C341.267 210.807 340.465 211.156 339.532 211.156C338.699 211.156 338.014 210.922 337.478 210.453C336.946 209.979 336.681 209.38 336.681 208.656C336.681 207.776 337.014 207.094 337.681 206.609C338.353 206.12 339.295 205.875 340.509 205.875H341.915V205.211C341.915 204.706 341.764 204.305 341.462 204.008C341.16 203.706 340.715 203.555 340.126 203.555C339.61 203.555 339.178 203.685 338.829 203.945C338.48 204.206 338.306 204.521 338.306 204.891H336.853C336.853 204.469 337.001 204.062 337.298 203.672C337.6 203.276 338.006 202.964 338.517 202.734C339.032 202.505 339.597 202.391 340.212 202.391C341.186 202.391 341.949 202.635 342.501 203.125C343.053 203.609 343.34 204.279 343.36 205.133V209.023C343.36 209.799 343.459 210.417 343.657 210.875V211H342.142ZM339.743 209.898C340.196 209.898 340.626 209.781 341.032 209.547C341.438 209.312 341.733 209.008 341.915 208.633V206.898H340.782C339.011 206.898 338.126 207.417 338.126 208.453C338.126 208.906 338.277 209.26 338.579 209.516C338.881 209.771 339.269 209.898 339.743 209.898ZM346.337 211V203.664H345.001V202.547H346.337V201.68C346.337 200.773 346.579 200.073 347.063 199.578C347.548 199.083 348.233 198.836 349.118 198.836C349.451 198.836 349.782 198.88 350.11 198.969L350.032 200.141C349.787 200.094 349.527 200.07 349.251 200.07C348.782 200.07 348.42 200.208 348.165 200.484C347.91 200.755 347.782 201.146 347.782 201.656V202.547H349.587V203.664H347.782V211H346.337ZM353.149 200.5V202.547H354.728V203.664H353.149V208.906C353.149 209.245 353.22 209.5 353.36 209.672C353.501 209.839 353.741 209.922 354.079 209.922C354.246 209.922 354.475 209.891 354.767 209.828V211C354.386 211.104 354.017 211.156 353.657 211.156C353.011 211.156 352.524 210.961 352.196 210.57C351.868 210.18 351.704 209.625 351.704 208.906V203.664H350.165V202.547H351.704V200.5H353.149ZM359.931 211.156C358.785 211.156 357.853 210.781 357.134 210.031C356.415 209.276 356.056 208.268 356.056 207.008V206.742C356.056 205.904 356.215 205.156 356.532 204.5C356.855 203.839 357.303 203.323 357.876 202.953C358.454 202.578 359.079 202.391 359.751 202.391C360.85 202.391 361.704 202.753 362.313 203.477C362.923 204.201 363.228 205.237 363.228 206.586V207.188H357.501C357.522 208.021 357.764 208.695 358.228 209.211C358.696 209.721 359.29 209.977 360.009 209.977C360.519 209.977 360.951 209.872 361.306 209.664C361.66 209.456 361.97 209.18 362.235 208.836L363.118 209.523C362.41 210.612 361.347 211.156 359.931 211.156ZM359.751 203.578C359.168 203.578 358.678 203.792 358.282 204.219C357.886 204.641 357.642 205.234 357.548 206H361.782V205.891C361.741 205.156 361.543 204.589 361.188 204.188C360.834 203.781 360.355 203.578 359.751 203.578ZM368.993 203.844C368.774 203.807 368.537 203.789 368.282 203.789C367.334 203.789 366.691 204.193 366.353 205V211H364.907V202.547H366.313L366.337 203.523C366.811 202.768 367.483 202.391 368.353 202.391C368.634 202.391 368.847 202.427 368.993 202.5V203.844ZM377.688 209.977C378.204 209.977 378.655 209.82 379.04 209.508C379.425 209.195 379.639 208.805 379.681 208.336H381.048C381.022 208.82 380.855 209.281 380.548 209.719C380.241 210.156 379.829 210.505 379.313 210.766C378.803 211.026 378.261 211.156 377.688 211.156C376.537 211.156 375.621 210.773 374.938 210.008C374.261 209.237 373.923 208.185 373.923 206.852V206.609C373.923 205.786 374.074 205.055 374.376 204.414C374.678 203.773 375.11 203.276 375.673 202.922C376.241 202.568 376.91 202.391 377.681 202.391C378.629 202.391 379.415 202.674 380.04 203.242C380.67 203.81 381.006 204.547 381.048 205.453H379.681C379.639 204.906 379.431 204.458 379.056 204.109C378.686 203.755 378.228 203.578 377.681 203.578C376.946 203.578 376.376 203.844 375.97 204.375C375.569 204.901 375.368 205.664 375.368 206.664V206.938C375.368 207.911 375.569 208.661 375.97 209.188C376.371 209.714 376.944 209.977 377.688 209.977ZM384.118 203.57C384.759 202.784 385.592 202.391 386.618 202.391C388.405 202.391 389.306 203.398 389.321 205.414V211H387.876V205.406C387.871 204.797 387.73 204.346 387.454 204.055C387.183 203.763 386.759 203.617 386.181 203.617C385.712 203.617 385.3 203.742 384.946 203.992C384.592 204.242 384.316 204.57 384.118 204.977V211H382.673V199H384.118V203.57ZM394.993 211.156C393.847 211.156 392.915 210.781 392.196 210.031C391.478 209.276 391.118 208.268 391.118 207.008V206.742C391.118 205.904 391.277 205.156 391.595 204.5C391.918 203.839 392.366 203.323 392.938 202.953C393.517 202.578 394.142 202.391 394.813 202.391C395.912 202.391 396.767 202.753 397.376 203.477C397.985 204.201 398.29 205.237 398.29 206.586V207.188H392.563C392.584 208.021 392.826 208.695 393.29 209.211C393.759 209.721 394.353 209.977 395.071 209.977C395.582 209.977 396.014 209.872 396.368 209.664C396.722 209.456 397.032 209.18 397.298 208.836L398.181 209.523C397.472 210.612 396.41 211.156 394.993 211.156ZM394.813 203.578C394.23 203.578 393.741 203.792 393.345 204.219C392.949 204.641 392.704 205.234 392.61 206H396.845V205.891C396.803 205.156 396.605 204.589 396.251 204.188C395.897 203.781 395.418 203.578 394.813 203.578ZM403.36 209.977C403.876 209.977 404.326 209.82 404.712 209.508C405.097 209.195 405.311 208.805 405.353 208.336H406.72C406.694 208.82 406.527 209.281 406.22 209.719C405.912 210.156 405.501 210.505 404.985 210.766C404.475 211.026 403.933 211.156 403.36 211.156C402.209 211.156 401.293 210.773 400.61 210.008C399.933 209.237 399.595 208.185 399.595 206.852V206.609C399.595 205.786 399.746 205.055 400.048 204.414C400.35 203.773 400.782 203.276 401.345 202.922C401.912 202.568 402.582 202.391 403.353 202.391C404.3 202.391 405.087 202.674 405.712 203.242C406.342 203.81 406.678 204.547 406.72 205.453H405.353C405.311 204.906 405.103 204.458 404.728 204.109C404.358 203.755 403.899 203.578 403.353 203.578C402.618 203.578 402.048 203.844 401.642 204.375C401.241 204.901 401.04 205.664 401.04 206.664V206.938C401.04 207.911 401.241 208.661 401.642 209.188C402.043 209.714 402.616 209.977 403.36 209.977ZM410.704 207.086L409.798 208.031V211H408.353V199H409.798V206.258L410.571 205.328L413.204 202.547H414.962L411.673 206.078L415.345 211H413.649L410.704 207.086ZM418.024 211H416.579V202.547H418.024V211ZM416.462 200.305C416.462 200.07 416.532 199.872 416.673 199.711C416.819 199.549 417.032 199.469 417.313 199.469C417.595 199.469 417.808 199.549 417.954 199.711C418.1 199.872 418.173 200.07 418.173 200.305C418.173 200.539 418.1 200.734 417.954 200.891C417.808 201.047 417.595 201.125 417.313 201.125C417.032 201.125 416.819 201.047 416.673 200.891C416.532 200.734 416.462 200.539 416.462 200.305ZM421.712 202.547L421.759 203.609C422.405 202.797 423.248 202.391 424.29 202.391C426.076 202.391 426.978 203.398 426.993 205.414V211H425.548V205.406C425.543 204.797 425.402 204.346 425.126 204.055C424.855 203.763 424.431 203.617 423.853 203.617C423.384 203.617 422.972 203.742 422.618 203.992C422.264 204.242 421.988 204.57 421.79 204.977V211H420.345V202.547H421.712ZM428.829 206.703C428.829 205.385 429.134 204.339 429.743 203.562C430.353 202.781 431.16 202.391 432.165 202.391C433.196 202.391 434.001 202.755 434.579 203.484L434.649 202.547H435.97V210.797C435.97 211.891 435.644 212.753 434.993 213.383C434.347 214.013 433.478 214.328 432.384 214.328C431.774 214.328 431.178 214.198 430.595 213.938C430.011 213.677 429.566 213.32 429.259 212.867L430.009 212C430.629 212.766 431.386 213.148 432.282 213.148C432.985 213.148 433.532 212.951 433.923 212.555C434.319 212.159 434.517 211.602 434.517 210.883V210.156C433.938 210.823 433.149 211.156 432.149 211.156C431.16 211.156 430.358 210.758 429.743 209.961C429.134 209.164 428.829 208.078 428.829 206.703ZM430.282 206.867C430.282 207.82 430.478 208.57 430.868 209.117C431.259 209.659 431.806 209.93 432.509 209.93C433.42 209.93 434.09 209.516 434.517 208.688V204.828C434.074 204.021 433.41 203.617 432.524 203.617C431.821 203.617 431.272 203.891 430.876 204.438C430.48 204.984 430.282 205.794 430.282 206.867ZM443.696 211H442.251V202.547H443.696V211ZM442.134 200.305C442.134 200.07 442.204 199.872 442.345 199.711C442.491 199.549 442.704 199.469 442.985 199.469C443.267 199.469 443.48 199.549 443.626 199.711C443.772 199.872 443.845 200.07 443.845 200.305C443.845 200.539 443.772 200.734 443.626 200.891C443.48 201.047 443.267 201.125 442.985 201.125C442.704 201.125 442.491 201.047 442.345 200.891C442.204 200.734 442.134 200.539 442.134 200.305ZM447.978 200.5V202.547H449.556V203.664H447.978V208.906C447.978 209.245 448.048 209.5 448.188 209.672C448.329 209.839 448.569 209.922 448.907 209.922C449.074 209.922 449.303 209.891 449.595 209.828V211C449.215 211.104 448.845 211.156 448.485 211.156C447.84 211.156 447.353 210.961 447.024 210.57C446.696 210.18 446.532 209.625 446.532 208.906V203.664H444.993V202.547H446.532V200.5H447.978ZM451.282 210.242C451.282 209.992 451.355 209.784 451.501 209.617C451.652 209.451 451.876 209.367 452.173 209.367C452.47 209.367 452.694 209.451 452.845 209.617C453.001 209.784 453.079 209.992 453.079 210.242C453.079 210.482 453.001 210.682 452.845 210.844C452.694 211.005 452.47 211.086 452.173 211.086C451.876 211.086 451.652 211.005 451.501 210.844C451.355 210.682 451.282 210.482 451.282 210.242Z" fill="#656668"/>
<path d="M37.632 216.744H53.024V214.312H42.016C46.144 210.952 52.352 206.056 52.352 200.296C52.352 196.008 49.536 193.448 45.184 193.448C41.024 193.448 37.92 196.008 37.728 200.936H40.544C40.672 198.024 42.208 195.944 45.216 195.944C48.352 195.944 49.472 197.864 49.472 200.424C49.472 205.16 43.712 209.768 37.632 214.664V216.744Z" fill="#656668"/>
<path d="M89.6885 293.391C89.5479 294.594 89.1025 295.523 88.3525 296.18C87.6077 296.831 86.6156 297.156 85.376 297.156C84.0322 297.156 82.9541 296.674 82.1416 295.711C81.3343 294.747 80.9307 293.458 80.9307 291.844V290.75C80.9307 289.693 81.1182 288.763 81.4932 287.961C81.8734 287.159 82.4098 286.544 83.1025 286.117C83.7952 285.685 84.5973 285.469 85.5088 285.469C86.7171 285.469 87.6859 285.807 88.415 286.484C89.1442 287.156 89.5687 288.089 89.6885 289.281H88.1807C88.0505 288.375 87.7666 287.719 87.3291 287.312C86.8968 286.906 86.29 286.703 85.5088 286.703C84.5505 286.703 83.7979 287.057 83.251 287.766C82.7093 288.474 82.4385 289.482 82.4385 290.789V291.891C82.4385 293.125 82.6963 294.107 83.2119 294.836C83.7275 295.565 84.4489 295.93 85.376 295.93C86.2093 295.93 86.8473 295.742 87.29 295.367C87.738 294.987 88.0348 294.328 88.1807 293.391H89.6885ZM91.1338 292.695C91.1338 291.867 91.2952 291.122 91.6182 290.461C91.9463 289.799 92.3994 289.289 92.9775 288.93C93.5609 288.57 94.2249 288.391 94.9697 288.391C96.1208 288.391 97.0505 288.789 97.7588 289.586C98.4723 290.383 98.8291 291.443 98.8291 292.766V292.867C98.8291 293.69 98.6702 294.43 98.3525 295.086C98.04 295.737 97.5895 296.245 97.001 296.609C96.4176 296.974 95.7458 297.156 94.9854 297.156C93.8395 297.156 92.9098 296.758 92.1963 295.961C91.488 295.164 91.1338 294.109 91.1338 292.797V292.695ZM92.5869 292.867C92.5869 293.805 92.8031 294.557 93.2354 295.125C93.6729 295.693 94.2562 295.977 94.9854 295.977C95.7197 295.977 96.3031 295.69 96.7354 295.117C97.1676 294.539 97.3838 293.732 97.3838 292.695C97.3838 291.768 97.1624 291.018 96.7197 290.445C96.2822 289.867 95.6989 289.578 94.9697 289.578C94.2562 289.578 93.6807 289.862 93.2432 290.43C92.8057 290.997 92.5869 291.81 92.5869 292.867ZM102.009 288.547L102.056 289.609C102.701 288.797 103.545 288.391 104.587 288.391C106.373 288.391 107.274 289.398 107.29 291.414V297H105.845V291.406C105.84 290.797 105.699 290.346 105.423 290.055C105.152 289.763 104.728 289.617 104.149 289.617C103.681 289.617 103.269 289.742 102.915 289.992C102.561 290.242 102.285 290.57 102.087 290.977V297H100.642V288.547H102.009ZM114.392 294.758C114.392 294.367 114.243 294.065 113.946 293.852C113.655 293.633 113.142 293.445 112.407 293.289C111.678 293.133 111.097 292.945 110.665 292.727C110.238 292.508 109.92 292.247 109.712 291.945C109.509 291.643 109.407 291.284 109.407 290.867C109.407 290.174 109.699 289.589 110.282 289.109C110.871 288.63 111.621 288.391 112.532 288.391C113.491 288.391 114.267 288.638 114.86 289.133C115.459 289.628 115.759 290.26 115.759 291.031H114.306C114.306 290.635 114.136 290.294 113.798 290.008C113.465 289.721 113.043 289.578 112.532 289.578C112.006 289.578 111.595 289.693 111.298 289.922C111.001 290.151 110.853 290.451 110.853 290.82C110.853 291.169 110.991 291.432 111.267 291.609C111.543 291.786 112.04 291.956 112.759 292.117C113.483 292.279 114.069 292.471 114.517 292.695C114.965 292.919 115.295 293.19 115.509 293.508C115.728 293.82 115.837 294.203 115.837 294.656C115.837 295.411 115.535 296.018 114.931 296.477C114.326 296.93 113.543 297.156 112.579 297.156C111.902 297.156 111.303 297.036 110.782 296.797C110.261 296.557 109.853 296.224 109.556 295.797C109.264 295.365 109.118 294.898 109.118 294.398H110.563C110.59 294.883 110.782 295.268 111.142 295.555C111.506 295.836 111.985 295.977 112.579 295.977C113.126 295.977 113.563 295.867 113.892 295.648C114.225 295.424 114.392 295.128 114.392 294.758ZM122.938 296.164C122.376 296.826 121.55 297.156 120.462 297.156C119.561 297.156 118.873 296.896 118.399 296.375C117.931 295.849 117.694 295.073 117.688 294.047V288.547H119.134V294.008C119.134 295.289 119.655 295.93 120.696 295.93C121.8 295.93 122.535 295.518 122.899 294.695V288.547H124.345V297H122.97L122.938 296.164ZM127.907 288.547L127.946 289.484C128.566 288.755 129.402 288.391 130.454 288.391C131.636 288.391 132.441 288.844 132.868 289.75C133.149 289.344 133.514 289.016 133.962 288.766C134.415 288.516 134.949 288.391 135.563 288.391C137.418 288.391 138.36 289.372 138.392 291.336V297H136.946V291.422C136.946 290.818 136.808 290.367 136.532 290.07C136.256 289.768 135.793 289.617 135.142 289.617C134.605 289.617 134.16 289.779 133.806 290.102C133.451 290.419 133.246 290.849 133.188 291.391V297H131.735V291.461C131.735 290.232 131.134 289.617 129.931 289.617C128.983 289.617 128.334 290.021 127.985 290.828V297H126.54V288.547H127.907ZM144.087 297.156C142.941 297.156 142.009 296.781 141.29 296.031C140.571 295.276 140.212 294.268 140.212 293.008V292.742C140.212 291.904 140.371 291.156 140.688 290.5C141.011 289.839 141.459 289.323 142.032 288.953C142.61 288.578 143.235 288.391 143.907 288.391C145.006 288.391 145.86 288.753 146.47 289.477C147.079 290.201 147.384 291.237 147.384 292.586V293.188H141.657C141.678 294.021 141.92 294.695 142.384 295.211C142.853 295.721 143.446 295.977 144.165 295.977C144.675 295.977 145.108 295.872 145.462 295.664C145.816 295.456 146.126 295.18 146.392 294.836L147.274 295.523C146.566 296.612 145.504 297.156 144.087 297.156ZM143.907 289.578C143.324 289.578 142.834 289.792 142.438 290.219C142.043 290.641 141.798 291.234 141.704 292H145.938V291.891C145.897 291.156 145.699 290.589 145.345 290.188C144.991 289.781 144.511 289.578 143.907 289.578ZM153.149 289.844C152.931 289.807 152.694 289.789 152.438 289.789C151.491 289.789 150.847 290.193 150.509 291V297H149.063V288.547H150.47L150.493 289.523C150.967 288.768 151.639 288.391 152.509 288.391C152.79 288.391 153.004 288.427 153.149 288.5V289.844ZM165.938 295.008L167.563 288.547H169.009L166.548 297H165.376L163.321 290.594L161.321 297H160.149L157.696 288.547H159.134L160.798 294.875L162.767 288.547H163.931L165.938 295.008ZM172.056 297H170.61V288.547H172.056V297ZM170.493 286.305C170.493 286.07 170.563 285.872 170.704 285.711C170.85 285.549 171.063 285.469 171.345 285.469C171.626 285.469 171.84 285.549 171.985 285.711C172.131 285.872 172.204 286.07 172.204 286.305C172.204 286.539 172.131 286.734 171.985 286.891C171.84 287.047 171.626 287.125 171.345 287.125C171.063 287.125 170.85 287.047 170.704 286.891C170.563 286.734 170.493 286.539 170.493 286.305ZM175.946 297H174.501V285H175.946V297ZM179.837 297H178.392V285H179.837V297ZM189.634 297.156C188.488 297.156 187.556 296.781 186.837 296.031C186.118 295.276 185.759 294.268 185.759 293.008V292.742C185.759 291.904 185.918 291.156 186.235 290.5C186.558 289.839 187.006 289.323 187.579 288.953C188.157 288.578 188.782 288.391 189.454 288.391C190.553 288.391 191.407 288.753 192.017 289.477C192.626 290.201 192.931 291.237 192.931 292.586V293.188H187.204C187.225 294.021 187.467 294.695 187.931 295.211C188.399 295.721 188.993 295.977 189.712 295.977C190.222 295.977 190.655 295.872 191.009 295.664C191.363 295.456 191.673 295.18 191.938 294.836L192.821 295.523C192.113 296.612 191.05 297.156 189.634 297.156ZM189.454 289.578C188.871 289.578 188.381 289.792 187.985 290.219C187.59 290.641 187.345 291.234 187.251 292H191.485V291.891C191.444 291.156 191.246 290.589 190.892 290.188C190.537 289.781 190.058 289.578 189.454 289.578ZM195.978 288.547L196.024 289.609C196.67 288.797 197.514 288.391 198.556 288.391C200.342 288.391 201.243 289.398 201.259 291.414V297H199.813V291.406C199.808 290.797 199.668 290.346 199.392 290.055C199.121 289.763 198.696 289.617 198.118 289.617C197.649 289.617 197.238 289.742 196.884 289.992C196.53 290.242 196.254 290.57 196.056 290.977V297H194.61V288.547H195.978ZM205.399 286.5V288.547H206.978V289.664H205.399V294.906C205.399 295.245 205.47 295.5 205.61 295.672C205.751 295.839 205.991 295.922 206.329 295.922C206.496 295.922 206.725 295.891 207.017 295.828V297C206.636 297.104 206.267 297.156 205.907 297.156C205.261 297.156 204.774 296.961 204.446 296.57C204.118 296.18 203.954 295.625 203.954 294.906V289.664H202.415V288.547H203.954V286.5H205.399ZM212.181 297.156C211.035 297.156 210.103 296.781 209.384 296.031C208.665 295.276 208.306 294.268 208.306 293.008V292.742C208.306 291.904 208.465 291.156 208.782 290.5C209.105 289.839 209.553 289.323 210.126 288.953C210.704 288.578 211.329 288.391 212.001 288.391C213.1 288.391 213.954 288.753 214.563 289.477C215.173 290.201 215.478 291.237 215.478 292.586V293.188H209.751C209.772 294.021 210.014 294.695 210.478 295.211C210.946 295.721 211.54 295.977 212.259 295.977C212.769 295.977 213.201 295.872 213.556 295.664C213.91 295.456 214.22 295.18 214.485 294.836L215.368 295.523C214.66 296.612 213.597 297.156 212.181 297.156ZM212.001 289.578C211.418 289.578 210.928 289.792 210.532 290.219C210.136 290.641 209.892 291.234 209.798 292H214.032V291.891C213.991 291.156 213.793 290.589 213.438 290.188C213.084 289.781 212.605 289.578 212.001 289.578ZM221.243 289.844C221.024 289.807 220.787 289.789 220.532 289.789C219.584 289.789 218.941 290.193 218.603 291V297H217.157V288.547H218.563L218.587 289.523C219.061 288.768 219.733 288.391 220.603 288.391C220.884 288.391 221.097 288.427 221.243 288.5V289.844ZM227.993 289.57C228.634 288.784 229.467 288.391 230.493 288.391C232.28 288.391 233.181 289.398 233.196 291.414V297H231.751V291.406C231.746 290.797 231.605 290.346 231.329 290.055C231.058 289.763 230.634 289.617 230.056 289.617C229.587 289.617 229.175 289.742 228.821 289.992C228.467 290.242 228.191 290.57 227.993 290.977V297H226.548V285H227.993V289.57ZM236.931 297H235.485V288.547H236.931V297ZM235.368 286.305C235.368 286.07 235.438 285.872 235.579 285.711C235.725 285.549 235.938 285.469 236.22 285.469C236.501 285.469 236.715 285.549 236.86 285.711C237.006 285.872 237.079 286.07 237.079 286.305C237.079 286.539 237.006 286.734 236.86 286.891C236.715 287.047 236.501 287.125 236.22 287.125C235.938 287.125 235.725 287.047 235.579 286.891C235.438 286.734 235.368 286.539 235.368 286.305ZM244.173 294.758C244.173 294.367 244.024 294.065 243.728 293.852C243.436 293.633 242.923 293.445 242.188 293.289C241.459 293.133 240.879 292.945 240.446 292.727C240.019 292.508 239.701 292.247 239.493 291.945C239.29 291.643 239.188 291.284 239.188 290.867C239.188 290.174 239.48 289.589 240.063 289.109C240.652 288.63 241.402 288.391 242.313 288.391C243.272 288.391 244.048 288.638 244.642 289.133C245.241 289.628 245.54 290.26 245.54 291.031H244.087C244.087 290.635 243.918 290.294 243.579 290.008C243.246 289.721 242.824 289.578 242.313 289.578C241.787 289.578 241.376 289.693 241.079 289.922C240.782 290.151 240.634 290.451 240.634 290.82C240.634 291.169 240.772 291.432 241.048 291.609C241.324 291.786 241.821 291.956 242.54 292.117C243.264 292.279 243.85 292.471 244.298 292.695C244.746 292.919 245.076 293.19 245.29 293.508C245.509 293.82 245.618 294.203 245.618 294.656C245.618 295.411 245.316 296.018 244.712 296.477C244.108 296.93 243.324 297.156 242.36 297.156C241.683 297.156 241.084 297.036 240.563 296.797C240.043 296.557 239.634 296.224 239.337 295.797C239.045 295.365 238.899 294.898 238.899 294.398H240.345C240.371 294.883 240.563 295.268 240.923 295.555C241.287 295.836 241.767 295.977 242.36 295.977C242.907 295.977 243.345 295.867 243.673 295.648C244.006 295.424 244.173 295.128 244.173 294.758ZM253.196 292.547V297H251.696V285.625H255.892C257.136 285.625 258.11 285.943 258.813 286.578C259.522 287.214 259.876 288.055 259.876 289.102C259.876 290.206 259.53 291.057 258.837 291.656C258.149 292.25 257.162 292.547 255.876 292.547H253.196ZM253.196 291.32H255.892C256.694 291.32 257.308 291.133 257.735 290.758C258.162 290.378 258.376 289.831 258.376 289.117C258.376 288.44 258.162 287.898 257.735 287.492C257.308 287.086 256.722 286.875 255.978 286.859H253.196V291.32ZM263.399 297H261.899V285.625H263.399V297ZM274.892 297H273.384L267.657 288.234V297H266.149V285.625H267.657L273.399 294.43V285.625H274.892V297ZM277.36 296.242C277.36 295.992 277.433 295.784 277.579 295.617C277.73 295.451 277.954 295.367 278.251 295.367C278.548 295.367 278.772 295.451 278.923 295.617C279.079 295.784 279.157 295.992 279.157 296.242C279.157 296.482 279.079 296.682 278.923 296.844C278.772 297.005 278.548 297.086 278.251 297.086C277.954 297.086 277.73 297.005 277.579 296.844C277.433 296.682 277.36 296.482 277.36 296.242Z" fill="#656668"/>
<path d="M37.92 285.688H40.768C41.056 283.448 42.688 281.912 45.408 281.912C48.192 281.912 49.664 283.448 49.664 285.656C49.664 288.344 47.584 289.528 43.712 289.56H42.944V291.992H43.68C47.84 291.992 50.112 293.24 50.112 296.504C50.112 298.872 48.64 300.696 45.536 300.696C42.464 300.696 40.672 298.808 40.384 296.344H37.568C37.92 300.824 41.184 303.16 45.568 303.16C50.4 303.16 52.896 300.344 52.896 296.76C52.896 293.432 51.072 291.448 48.384 290.808V290.648C50.816 290.104 52.48 288.024 52.48 285.368C52.48 282.04 50.016 279.416 45.504 279.416C41.216 279.416 38.208 281.72 37.92 285.688Z" fill="#656668"/>
<path d="M82.8213 377.547V382H81.3213V370.625H85.5166C86.7614 370.625 87.7354 370.943 88.4385 371.578C89.1468 372.214 89.501 373.055 89.501 374.102C89.501 375.206 89.1546 376.057 88.4619 376.656C87.7744 377.25 86.7874 377.547 85.501 377.547H82.8213ZM82.8213 376.32H85.5166C86.3187 376.32 86.9333 376.133 87.3604 375.758C87.7874 375.378 88.001 374.831 88.001 374.117C88.001 373.44 87.7874 372.898 87.3604 372.492C86.9333 372.086 86.3473 371.875 85.6025 371.859H82.8213V376.32ZM96.3135 382C96.2301 381.833 96.1624 381.536 96.1104 381.109C95.4385 381.807 94.6364 382.156 93.7041 382.156C92.8708 382.156 92.1859 381.922 91.6494 381.453C91.1182 380.979 90.8525 380.38 90.8525 379.656C90.8525 378.776 91.1859 378.094 91.8525 377.609C92.5244 377.12 93.4671 376.875 94.6807 376.875H96.0869V376.211C96.0869 375.706 95.9359 375.305 95.6338 375.008C95.3317 374.706 94.8864 374.555 94.2979 374.555C93.7822 374.555 93.3499 374.685 93.001 374.945C92.652 375.206 92.4775 375.521 92.4775 375.891H91.0244C91.0244 375.469 91.1729 375.062 91.4697 374.672C91.7718 374.276 92.1781 373.964 92.6885 373.734C93.2041 373.505 93.7692 373.391 94.3838 373.391C95.3577 373.391 96.1208 373.635 96.6729 374.125C97.2249 374.609 97.5114 375.279 97.5322 376.133V380.023C97.5322 380.799 97.6312 381.417 97.8291 381.875V382H96.3135ZM93.915 380.898C94.3682 380.898 94.7979 380.781 95.2041 380.547C95.6104 380.312 95.9046 380.008 96.0869 379.633V377.898H94.9541C93.1833 377.898 92.2979 378.417 92.2979 379.453C92.2979 379.906 92.4489 380.26 92.751 380.516C93.0531 380.771 93.4411 380.898 93.915 380.898ZM102.438 379.883L104.407 373.547H105.954L102.556 383.305C102.03 384.711 101.194 385.414 100.048 385.414L99.7744 385.391L99.2354 385.289V384.117L99.626 384.148C100.116 384.148 100.496 384.049 100.767 383.852C101.043 383.654 101.269 383.292 101.446 382.766L101.767 381.906L98.751 373.547H100.329L102.438 379.883ZM108.61 373.547L108.649 374.484C109.269 373.755 110.105 373.391 111.157 373.391C112.34 373.391 113.144 373.844 113.571 374.75C113.853 374.344 114.217 374.016 114.665 373.766C115.118 373.516 115.652 373.391 116.267 373.391C118.121 373.391 119.063 374.372 119.095 376.336V382H117.649V376.422C117.649 375.818 117.511 375.367 117.235 375.07C116.959 374.768 116.496 374.617 115.845 374.617C115.308 374.617 114.863 374.779 114.509 375.102C114.155 375.419 113.949 375.849 113.892 376.391V382H112.438V376.461C112.438 375.232 111.837 374.617 110.634 374.617C109.686 374.617 109.037 375.021 108.688 375.828V382H107.243V373.547H108.61ZM124.79 382.156C123.644 382.156 122.712 381.781 121.993 381.031C121.274 380.276 120.915 379.268 120.915 378.008V377.742C120.915 376.904 121.074 376.156 121.392 375.5C121.715 374.839 122.162 374.323 122.735 373.953C123.313 373.578 123.938 373.391 124.61 373.391C125.709 373.391 126.563 373.753 127.173 374.477C127.782 375.201 128.087 376.237 128.087 377.586V378.188H122.36C122.381 379.021 122.623 379.695 123.087 380.211C123.556 380.721 124.149 380.977 124.868 380.977C125.379 380.977 125.811 380.872 126.165 380.664C126.519 380.456 126.829 380.18 127.095 379.836L127.978 380.523C127.269 381.612 126.207 382.156 124.79 382.156ZM124.61 374.578C124.027 374.578 123.537 374.792 123.142 375.219C122.746 375.641 122.501 376.234 122.407 377H126.642V376.891C126.6 376.156 126.402 375.589 126.048 375.188C125.694 374.781 125.215 374.578 124.61 374.578ZM131.134 373.547L131.181 374.609C131.826 373.797 132.67 373.391 133.712 373.391C135.498 373.391 136.399 374.398 136.415 376.414V382H134.97V376.406C134.965 375.797 134.824 375.346 134.548 375.055C134.277 374.763 133.853 374.617 133.274 374.617C132.806 374.617 132.394 374.742 132.04 374.992C131.686 375.242 131.41 375.57 131.212 375.977V382H129.767V373.547H131.134ZM140.556 371.5V373.547H142.134V374.664H140.556V379.906C140.556 380.245 140.626 380.5 140.767 380.672C140.907 380.839 141.147 380.922 141.485 380.922C141.652 380.922 141.881 380.891 142.173 380.828V382C141.793 382.104 141.423 382.156 141.063 382.156C140.418 382.156 139.931 381.961 139.603 381.57C139.274 381.18 139.11 380.625 139.11 379.906V374.664H137.571V373.547H139.11V371.5H140.556ZM151.188 380.977C151.704 380.977 152.155 380.82 152.54 380.508C152.925 380.195 153.139 379.805 153.181 379.336H154.548C154.522 379.82 154.355 380.281 154.048 380.719C153.741 381.156 153.329 381.505 152.813 381.766C152.303 382.026 151.761 382.156 151.188 382.156C150.037 382.156 149.121 381.773 148.438 381.008C147.761 380.237 147.423 379.185 147.423 377.852V377.609C147.423 376.786 147.574 376.055 147.876 375.414C148.178 374.773 148.61 374.276 149.173 373.922C149.741 373.568 150.41 373.391 151.181 373.391C152.129 373.391 152.915 373.674 153.54 374.242C154.17 374.81 154.506 375.547 154.548 376.453H153.181C153.139 375.906 152.931 375.458 152.556 375.109C152.186 374.755 151.728 374.578 151.181 374.578C150.446 374.578 149.876 374.844 149.47 375.375C149.069 375.901 148.868 376.664 148.868 377.664V377.938C148.868 378.911 149.069 379.661 149.47 380.188C149.871 380.714 150.444 380.977 151.188 380.977ZM155.79 377.695C155.79 376.867 155.951 376.122 156.274 375.461C156.603 374.799 157.056 374.289 157.634 373.93C158.217 373.57 158.881 373.391 159.626 373.391C160.777 373.391 161.707 373.789 162.415 374.586C163.129 375.383 163.485 376.443 163.485 377.766V377.867C163.485 378.69 163.326 379.43 163.009 380.086C162.696 380.737 162.246 381.245 161.657 381.609C161.074 381.974 160.402 382.156 159.642 382.156C158.496 382.156 157.566 381.758 156.853 380.961C156.144 380.164 155.79 379.109 155.79 377.797V377.695ZM157.243 377.867C157.243 378.805 157.459 379.557 157.892 380.125C158.329 380.693 158.912 380.977 159.642 380.977C160.376 380.977 160.959 380.69 161.392 380.117C161.824 379.539 162.04 378.732 162.04 377.695C162.04 376.768 161.819 376.018 161.376 375.445C160.938 374.867 160.355 374.578 159.626 374.578C158.912 374.578 158.337 374.862 157.899 375.43C157.462 375.997 157.243 376.81 157.243 377.867ZM166.657 373.547L166.696 374.484C167.316 373.755 168.152 373.391 169.204 373.391C170.386 373.391 171.191 373.844 171.618 374.75C171.899 374.344 172.264 374.016 172.712 373.766C173.165 373.516 173.699 373.391 174.313 373.391C176.168 373.391 177.11 374.372 177.142 376.336V382H175.696V376.422C175.696 375.818 175.558 375.367 175.282 375.07C175.006 374.768 174.543 374.617 173.892 374.617C173.355 374.617 172.91 374.779 172.556 375.102C172.201 375.419 171.996 375.849 171.938 376.391V382H170.485V376.461C170.485 375.232 169.884 374.617 168.681 374.617C167.733 374.617 167.084 375.021 166.735 375.828V382H165.29V373.547H166.657ZM186.47 377.867C186.47 379.154 186.175 380.19 185.587 380.977C184.998 381.763 184.201 382.156 183.196 382.156C182.17 382.156 181.363 381.831 180.774 381.18V385.25H179.329V373.547H180.649L180.72 374.484C181.308 373.755 182.126 373.391 183.173 373.391C184.188 373.391 184.991 373.773 185.579 374.539C186.173 375.305 186.47 376.37 186.47 377.734V377.867ZM185.024 377.703C185.024 376.75 184.821 375.997 184.415 375.445C184.009 374.893 183.451 374.617 182.743 374.617C181.868 374.617 181.212 375.005 180.774 375.781V379.82C181.207 380.591 181.868 380.977 182.759 380.977C183.451 380.977 184.001 380.703 184.407 380.156C184.819 379.604 185.024 378.786 185.024 377.703ZM189.884 382H188.438V370H189.884V382ZM195.712 382.156C194.566 382.156 193.634 381.781 192.915 381.031C192.196 380.276 191.837 379.268 191.837 378.008V377.742C191.837 376.904 191.996 376.156 192.313 375.5C192.636 374.839 193.084 374.323 193.657 373.953C194.235 373.578 194.86 373.391 195.532 373.391C196.631 373.391 197.485 373.753 198.095 374.477C198.704 375.201 199.009 376.237 199.009 377.586V378.188H193.282C193.303 379.021 193.545 379.695 194.009 380.211C194.478 380.721 195.071 380.977 195.79 380.977C196.3 380.977 196.733 380.872 197.087 380.664C197.441 380.456 197.751 380.18 198.017 379.836L198.899 380.523C198.191 381.612 197.129 382.156 195.712 382.156ZM195.532 374.578C194.949 374.578 194.459 374.792 194.063 375.219C193.668 375.641 193.423 376.234 193.329 377H197.563V376.891C197.522 376.156 197.324 375.589 196.97 375.188C196.616 374.781 196.136 374.578 195.532 374.578ZM202.649 371.5V373.547H204.228V374.664H202.649V379.906C202.649 380.245 202.72 380.5 202.86 380.672C203.001 380.839 203.241 380.922 203.579 380.922C203.746 380.922 203.975 380.891 204.267 380.828V382C203.886 382.104 203.517 382.156 203.157 382.156C202.511 382.156 202.024 381.961 201.696 381.57C201.368 381.18 201.204 380.625 201.204 379.906V374.664H199.665V373.547H201.204V371.5H202.649ZM209.431 382.156C208.285 382.156 207.353 381.781 206.634 381.031C205.915 380.276 205.556 379.268 205.556 378.008V377.742C205.556 376.904 205.715 376.156 206.032 375.5C206.355 374.839 206.803 374.323 207.376 373.953C207.954 373.578 208.579 373.391 209.251 373.391C210.35 373.391 211.204 373.753 211.813 374.477C212.423 375.201 212.728 376.237 212.728 377.586V378.188H207.001C207.022 379.021 207.264 379.695 207.728 380.211C208.196 380.721 208.79 380.977 209.509 380.977C210.019 380.977 210.451 380.872 210.806 380.664C211.16 380.456 211.47 380.18 211.735 379.836L212.618 380.523C211.91 381.612 210.847 382.156 209.431 382.156ZM209.251 374.578C208.668 374.578 208.178 374.792 207.782 375.219C207.386 375.641 207.142 376.234 207.048 377H211.282V376.891C211.241 376.156 211.043 375.589 210.688 375.188C210.334 374.781 209.855 374.578 209.251 374.578ZM214.438 381.242C214.438 380.992 214.511 380.784 214.657 380.617C214.808 380.451 215.032 380.367 215.329 380.367C215.626 380.367 215.85 380.451 216.001 380.617C216.157 380.784 216.235 380.992 216.235 381.242C216.235 381.482 216.157 381.682 216.001 381.844C215.85 382.005 215.626 382.086 215.329 382.086C215.032 382.086 214.808 382.005 214.657 381.844C214.511 381.682 214.438 381.482 214.438 381.242Z" fill="#656668"/>
<path d="M48.12 388H51V382.848H54.2V380.32H51V365.088H47.512L36.28 380.64V382.848H48.12V388ZM39.64 380.32L48.248 368.128V380.32H39.64Z" fill="#656668"/>
<defs>
<filter id="filter0_d" x="0" y="68" width="594.56" height="113" filterUnits="userSpaceOnUse" color-interpolation-filters="sRGB">
<feFlood flood-opacity="0" result="BackgroundImageFix"/>
<feColorMatrix in="SourceAlpha" type="matrix" values="0 0 0 0 0 0 0 0 0 0 0 0 0 0 0 0 0 0 127 0"/>
<feMorphology radius="4" operator="dilate" in="SourceAlpha" result="effect1_dropShadow"/>
<feOffset dy="3"/>
<feGaussianBlur stdDeviation="7.5"/>
<feColorMatrix type="matrix" values="0 0 0 0 0.872109 0 0 0 0 0.853125 0 0 0 0 0.9375 0 0 0 0.5 0"/>
<feBlend mode="normal" in2="BackgroundImageFix" result="effect1_dropShadow"/>
<feBlend mode="normal" in="SourceGraphic" in2="effect1_dropShadow" result="shape"/>
</filter>
</defs>
</svg>
