<svg width="198" height="32" viewBox="0 0 198 32" fill="none" xmlns="http://www.w3.org/2000/svg">
<path d="M3.352 11.832C3.352 6.36 6.872 2.968 11.576 2.968C16.28 2.968 19.8 6.36 19.8 11.832C19.8 17.272 16.28 20.696 11.576 20.696C6.872 20.696 3.352 17.272 3.352 11.832ZM22.776 11.832C22.776 5.144 17.88 0.439999 11.576 0.439999C5.304 0.439999 0.376 5.144 0.376 11.832C0.376 18.52 5.304 23.224 11.576 23.224C12.728 23.224 13.848 23.064 14.904 22.776L19.352 27.224H23.128L17.496 21.624C20.696 19.704 22.776 16.184 22.776 11.832ZM38.6188 7.256C38.6188 9.752 37.1788 11.544 33.8828 11.544H29.5948V3.096H33.8828C37.2108 3.096 38.6188 4.728 38.6188 7.256ZM26.6828 0.695999V23H29.5948V13.88H33.1148L38.4268 23H41.9148L36.3148 13.656C40.0588 12.824 41.6268 10.104 41.6268 7.256C41.6268 3.608 39.1308 0.695999 33.8828 0.695999H26.6828ZM57.5948 8.696V5.464H54.6828V31.32H57.5948V19.768C58.6828 21.56 60.9548 23.288 64.1548 23.288C68.8588 23.288 72.4748 19.608 72.4748 14.168C72.4748 8.696 68.8588 5.176 64.1548 5.176C60.9548 5.176 58.6508 6.84 57.5948 8.696ZM69.4988 14.168C69.4988 18.296 66.7788 20.728 63.5468 20.728C60.3788 20.728 57.5948 18.328 57.5948 14.2C57.5948 10.136 60.3788 7.704 63.5468 7.704C66.7788 7.704 69.4988 10.04 69.4988 14.168ZM75.2198 14.168C75.2198 19.608 78.8358 23.288 83.5078 23.288C86.7398 23.288 89.0118 21.624 90.0678 19.736V23H93.0118V5.464H90.0678V8.664C89.0438 6.84 86.8038 5.176 83.5398 5.176C78.8358 5.176 75.2198 8.696 75.2198 14.168ZM90.0678 14.2C90.0678 18.328 87.3158 20.728 84.1158 20.728C80.9158 20.728 78.1958 18.296 78.1958 14.168C78.1958 10.04 80.9158 7.704 84.1158 7.704C87.3158 7.704 90.0678 10.136 90.0678 14.2ZM104.589 19.672L99.0848 5.464H95.8528L102.925 22.808L99.4688 31.256H102.477L113.037 5.464H110.029L104.589 19.672ZM141.276 23H144.156V12.664C144.156 7.64 141.052 5.144 137.052 5.144C134.364 5.144 131.868 6.52 130.844 9.048C129.692 6.424 127.292 5.144 124.412 5.144C122.108 5.144 120.028 6.136 118.876 7.992V5.464H115.964V23H118.876V13.336C118.876 9.56 120.892 7.672 123.836 7.672C126.716 7.672 128.636 9.496 128.636 13.08V23H131.516V13.336C131.516 9.56 133.532 7.672 136.476 7.672C139.356 7.672 141.276 9.496 141.276 13.08V23ZM156.389 7.64C159.397 7.64 161.957 9.528 161.925 12.952H150.853C151.173 9.528 153.541 7.64 156.389 7.64ZM164.581 17.592H161.445C160.805 19.48 159.141 20.824 156.517 20.824C153.541 20.824 151.045 18.872 150.821 15.32H164.837C164.901 14.712 164.933 14.2 164.933 13.56C164.933 8.76 161.605 5.176 156.517 5.176C151.397 5.176 147.845 8.664 147.845 14.2C147.845 19.768 151.525 23.288 156.517 23.288C160.869 23.288 163.685 20.792 164.581 17.592ZM181.609 23H184.489V12.664C184.489 7.64 181.385 5.144 177.321 5.144C174.953 5.144 172.841 6.136 171.689 7.96V5.464H168.777V23H171.689V13.304C171.689 9.528 173.737 7.672 176.713 7.672C179.657 7.672 181.609 9.496 181.609 13.08V23ZM189.885 18.2C189.885 21.72 191.645 23 194.749 23H197.373V20.536H195.229C193.437 20.536 192.797 19.928 192.797 18.2V7.864H197.373V5.464H192.797V1.048H189.885V5.464H187.613V7.864H189.885V18.2Z" fill="#6654A4"/>
</svg>
