<svg width="1044" height="424" viewBox="0 0 1044 424" fill="none" xmlns="http://www.w3.org/2000/svg">
<path d="M539 143.32C539 146.44 537.2 148.68 533.08 148.68H527.72V138.12H533.08C537.24 138.12 539 140.16 539 143.32ZM524.08 135.12V163H527.72V151.6H532.12L538.76 163H543.12L536.12 151.32C540.8 150.28 542.76 146.88 542.76 143.32C542.76 138.76 539.64 135.12 533.08 135.12H524.08ZM557.736 143.8C561.496 143.8 564.696 146.16 564.656 150.44H550.816C551.216 146.16 554.176 143.8 557.736 143.8ZM567.976 156.24H564.056C563.256 158.6 561.176 160.28 557.896 160.28C554.176 160.28 551.056 157.84 550.776 153.4H568.296C568.376 152.64 568.416 152 568.416 151.2C568.416 145.2 564.256 140.72 557.896 140.72C551.496 140.72 547.056 145.08 547.056 152C547.056 158.96 551.656 163.36 557.896 163.36C563.336 163.36 566.856 160.24 567.976 156.24ZM571.861 151.96C571.861 158.76 576.381 163.36 582.181 163.36C586.261 163.36 589.181 161.2 590.421 158.96V173.4H594.101V141.08H590.421V145.08C589.181 142.8 586.301 140.72 582.301 140.72C576.381 140.72 571.861 145.12 571.861 151.96ZM590.421 152C590.421 157.16 586.981 160.16 582.981 160.16C578.981 160.16 575.581 157.12 575.581 151.96C575.581 146.8 578.981 143.88 582.981 143.88C586.981 143.88 590.421 146.92 590.421 152ZM619.692 141.08H616.052V153.12C616.052 157.84 613.532 160.16 609.772 160.16C606.092 160.16 603.652 157.88 603.652 153.44V141.08H600.052V153.92C600.052 160.2 604.012 163.32 609.052 163.32C611.972 163.32 614.652 162.04 616.052 159.76V163H619.692V141.08ZM635.158 143.8C638.918 143.8 642.118 146.16 642.078 150.44H628.238C628.638 146.16 631.598 143.8 635.158 143.8ZM645.398 156.24H641.478C640.678 158.6 638.598 160.28 635.318 160.28C631.598 160.28 628.478 157.84 628.198 153.4H645.718C645.798 152.64 645.838 152 645.838 151.2C645.838 145.2 641.678 140.72 635.318 140.72C628.918 140.72 624.478 145.08 624.478 152C624.478 158.96 629.078 163.36 635.318 163.36C640.758 163.36 644.278 160.24 645.398 156.24ZM666.403 157.04C666.243 149.2 653.523 152.04 653.523 146.84C653.523 145.08 655.123 143.8 657.803 143.8C660.723 143.8 662.403 145.4 662.563 147.6H666.203C665.963 143.32 662.763 140.72 657.923 140.72C653.043 140.72 649.883 143.48 649.883 146.84C649.883 155 662.843 152.16 662.843 157.04C662.843 158.84 661.243 160.28 658.363 160.28C655.283 160.28 653.403 158.68 653.203 156.56H649.443C649.683 160.56 653.283 163.36 658.403 163.36C663.243 163.36 666.403 160.64 666.403 157.04ZM672.341 157C672.341 161.4 674.541 163 678.421 163H681.701V159.92H679.021C676.781 159.92 675.981 159.16 675.981 157V144.08H681.701V141.08H675.981V135.56H672.341V141.08H669.501V144.08H672.341V157ZM697.575 157C697.575 161.4 699.775 163 703.655 163H706.935V159.92H704.255C702.015 159.92 701.215 159.16 701.215 157V144.08H706.935V141.08H701.215V135.56H697.575V141.08H694.735V144.08H697.575V157ZM732.146 152C732.146 145.08 727.306 140.72 721.066 140.72C714.866 140.72 709.986 145.08 709.986 152C709.986 158.96 714.706 163.36 720.906 163.36C727.146 163.36 732.146 158.96 732.146 152ZM713.706 152C713.706 146.48 717.186 143.88 721.026 143.88C724.786 143.88 728.426 146.48 728.426 152C728.426 157.56 724.706 160.16 720.906 160.16C717.106 160.16 713.706 157.56 713.706 152ZM762.516 143.32C762.516 146.44 760.716 148.68 756.596 148.68H751.236V138.12H756.596C760.756 138.12 762.516 140.16 762.516 143.32ZM747.596 135.12V163H751.236V151.6H755.636L762.276 163H766.636L759.636 151.32C764.316 150.28 766.276 146.88 766.276 143.32C766.276 138.76 763.156 135.12 756.596 135.12H747.596ZM781.252 143.8C785.012 143.8 788.212 146.16 788.172 150.44H774.332C774.732 146.16 777.692 143.8 781.252 143.8ZM791.492 156.24H787.572C786.772 158.6 784.692 160.28 781.412 160.28C777.692 160.28 774.572 157.84 774.292 153.4H791.812C791.892 152.64 791.932 152 791.932 151.2C791.932 145.2 787.772 140.72 781.412 140.72C775.012 140.72 770.572 145.08 770.572 152C770.572 158.96 775.172 163.36 781.412 163.36C786.852 163.36 790.372 160.24 791.492 156.24ZM795.376 152C795.376 158.96 799.816 163.36 806.056 163.36C811.496 163.36 815.056 160.32 816.176 155.96H812.256C811.456 158.72 809.296 160.28 806.056 160.28C802.056 160.28 799.096 157.44 799.096 152C799.096 146.64 802.056 143.8 806.056 143.8C809.296 143.8 811.496 145.48 812.256 148.12H816.176C815.056 143.52 811.496 140.72 806.056 140.72C799.816 140.72 795.376 145.12 795.376 152ZM830.353 143.8C834.113 143.8 837.313 146.16 837.273 150.44H823.433C823.833 146.16 826.793 143.8 830.353 143.8ZM840.593 156.24H836.673C835.873 158.6 833.793 160.28 830.513 160.28C826.793 160.28 823.673 157.84 823.393 153.4H840.913C840.993 152.64 841.033 152 841.033 151.2C841.033 145.2 836.873 140.72 830.513 140.72C824.113 140.72 819.673 145.08 819.673 152C819.673 158.96 824.273 163.36 830.513 163.36C835.953 163.36 839.473 160.24 840.593 156.24ZM845.838 163H849.478V141.08H845.838V163ZM847.718 137.52C849.038 137.52 850.118 136.44 850.118 135.04C850.118 133.64 849.038 132.56 847.718 132.56C846.318 132.56 845.238 133.64 845.238 135.04C845.238 136.44 846.318 137.52 847.718 137.52ZM853.082 141.08L861.682 163H865.922L874.522 141.08H870.642L863.842 159.64L857.002 141.08H853.082ZM887.423 143.8C891.183 143.8 894.383 146.16 894.343 150.44H880.503C880.903 146.16 883.863 143.8 887.423 143.8ZM897.663 156.24H893.743C892.943 158.6 890.863 160.28 887.583 160.28C883.863 160.28 880.743 157.84 880.463 153.4H897.983C898.063 152.64 898.103 152 898.103 151.2C898.103 145.2 893.943 140.72 887.583 140.72C881.183 140.72 876.743 145.08 876.743 152C876.743 158.96 881.343 163.36 887.583 163.36C893.023 163.36 896.543 160.24 897.663 156.24ZM913.572 163H917.212V142.32L926.452 163H929.012L938.212 142.36V163H941.852V135.32H937.972L927.732 158.2L917.492 135.32H913.572V163ZM968.825 152C968.825 145.08 963.985 140.72 957.745 140.72C951.545 140.72 946.665 145.08 946.665 152C946.665 158.96 951.385 163.36 957.585 163.36C963.825 163.36 968.825 158.96 968.825 152ZM950.385 152C950.385 146.48 953.865 143.88 957.705 143.88C961.465 143.88 965.105 146.48 965.105 152C965.105 157.56 961.385 160.16 957.585 160.16C953.785 160.16 950.385 157.56 950.385 152ZM989.651 163H993.251V150.08C993.251 143.8 989.371 140.68 984.291 140.68C981.331 140.68 978.691 141.92 977.251 144.2V141.08H973.611V163H977.251V150.88C977.251 146.16 979.811 143.84 983.531 143.84C987.211 143.84 989.651 146.12 989.651 150.6V163ZM1008.52 143.8C1012.28 143.8 1015.48 146.16 1015.44 150.44H1001.6C1002 146.16 1004.96 143.8 1008.52 143.8ZM1018.76 156.24H1014.84C1014.04 158.6 1011.96 160.28 1008.68 160.28C1004.96 160.28 1001.84 157.84 1001.56 153.4H1019.08C1019.16 152.64 1019.2 152 1019.2 151.2C1019.2 145.2 1015.04 140.72 1008.68 140.72C1002.28 140.72 997.837 145.08 997.837 152C997.837 158.96 1002.44 163.36 1008.68 163.36C1014.12 163.36 1017.64 160.24 1018.76 156.24ZM1032.32 158.84L1025.44 141.08H1021.4L1030.24 162.76L1025.92 173.32H1029.68L1042.88 141.08H1039.12L1032.32 158.84Z" fill="#2B334E"/>
<path d="M523.688 226.032V229.76H527.752V230.96H523.688V234.8H528.232V236H522.232V224.832H528.232V226.032H523.688ZM529.891 231.584C529.891 230.688 530.072 229.904 530.435 229.232C530.798 228.549 531.294 228.021 531.923 227.648C532.563 227.275 533.272 227.088 534.051 227.088C534.819 227.088 535.486 227.253 536.051 227.584C536.616 227.915 537.038 228.331 537.315 228.832V227.232H538.787V236H537.315V234.368C537.027 234.88 536.595 235.307 536.019 235.648C535.454 235.979 534.792 236.144 534.035 236.144C533.256 236.144 532.552 235.952 531.923 235.568C531.294 235.184 530.798 234.645 530.435 233.952C530.072 233.259 529.891 232.469 529.891 231.584ZM537.315 231.6C537.315 230.939 537.182 230.363 536.915 229.872C536.648 229.381 536.286 229.008 535.827 228.752C535.379 228.485 534.883 228.352 534.339 228.352C533.795 228.352 533.299 228.48 532.851 228.736C532.403 228.992 532.046 229.365 531.779 229.856C531.512 230.347 531.379 230.923 531.379 231.584C531.379 232.256 531.512 232.843 531.779 233.344C532.046 233.835 532.403 234.213 532.851 234.48C533.299 234.736 533.795 234.864 534.339 234.864C534.883 234.864 535.379 234.736 535.827 234.48C536.286 234.213 536.648 233.835 536.915 233.344C537.182 232.843 537.315 232.261 537.315 231.6ZM544.352 236.144C543.68 236.144 543.077 236.032 542.544 235.808C542.01 235.573 541.589 235.253 541.28 234.848C540.97 234.432 540.8 233.957 540.768 233.424H542.272C542.314 233.861 542.517 234.219 542.88 234.496C543.253 234.773 543.738 234.912 544.336 234.912C544.89 234.912 545.328 234.789 545.648 234.544C545.968 234.299 546.128 233.989 546.128 233.616C546.128 233.232 545.957 232.949 545.616 232.768C545.274 232.576 544.746 232.389 544.032 232.208C543.381 232.037 542.848 231.867 542.432 231.696C542.026 231.515 541.674 231.253 541.376 230.912C541.088 230.56 540.944 230.101 540.944 229.536C540.944 229.088 541.077 228.677 541.344 228.304C541.61 227.931 541.989 227.637 542.48 227.424C542.97 227.2 543.53 227.088 544.16 227.088C545.13 227.088 545.914 227.333 546.512 227.824C547.109 228.315 547.429 228.987 547.472 229.84H546.016C545.984 229.381 545.797 229.013 545.456 228.736C545.125 228.459 544.677 228.32 544.112 228.32C543.589 228.32 543.173 228.432 542.864 228.656C542.554 228.88 542.4 229.173 542.4 229.536C542.4 229.824 542.49 230.064 542.672 230.256C542.864 230.437 543.098 230.587 543.376 230.704C543.664 230.811 544.058 230.933 544.56 231.072C545.189 231.243 545.701 231.413 546.096 231.584C546.49 231.744 546.826 231.989 547.104 232.32C547.392 232.651 547.541 233.083 547.552 233.616C547.552 234.096 547.418 234.528 547.152 234.912C546.885 235.296 546.506 235.6 546.016 235.824C545.536 236.037 544.981 236.144 544.352 236.144ZM550.359 225.808C550.082 225.808 549.847 225.712 549.655 225.52C549.463 225.328 549.367 225.093 549.367 224.816C549.367 224.539 549.463 224.304 549.655 224.112C549.847 223.92 550.082 223.824 550.359 223.824C550.626 223.824 550.85 223.92 551.031 224.112C551.223 224.304 551.319 224.539 551.319 224.816C551.319 225.093 551.223 225.328 551.031 225.52C550.85 225.712 550.626 225.808 550.359 225.808ZM551.063 227.232V236H549.607V227.232H551.063ZM555.001 224.16V236H553.545V224.16H555.001ZM565.034 227.232L559.754 240.128H558.25L559.978 235.904L556.442 227.232H558.058L560.81 234.336L563.53 227.232H565.034ZM572.219 228.656C572.475 228.155 572.838 227.765 573.307 227.488C573.787 227.211 574.369 227.072 575.051 227.072V228.576H574.667C573.035 228.576 572.219 229.461 572.219 231.232V236H570.763V227.232H572.219V228.656ZM584.732 231.28C584.732 231.557 584.716 231.851 584.684 232.16H577.676C577.729 233.024 578.023 233.701 578.556 234.192C579.1 234.672 579.756 234.912 580.524 234.912C581.153 234.912 581.676 234.768 582.092 234.48C582.519 234.181 582.817 233.787 582.988 233.296H584.556C584.321 234.139 583.852 234.827 583.148 235.36C582.444 235.883 581.569 236.144 580.524 236.144C579.692 236.144 578.945 235.957 578.284 235.584C577.633 235.211 577.121 234.683 576.748 234C576.375 233.307 576.188 232.507 576.188 231.6C576.188 230.693 576.369 229.899 576.732 229.216C577.095 228.533 577.601 228.011 578.252 227.648C578.913 227.275 579.671 227.088 580.524 227.088C581.356 227.088 582.092 227.269 582.732 227.632C583.372 227.995 583.863 228.496 584.204 229.136C584.556 229.765 584.732 230.48 584.732 231.28ZM583.228 230.976C583.228 230.421 583.105 229.947 582.86 229.552C582.615 229.147 582.279 228.843 581.852 228.64C581.436 228.427 580.972 228.32 580.46 228.32C579.724 228.32 579.095 228.555 578.572 229.024C578.06 229.493 577.767 230.144 577.692 230.976H583.228ZM586.11 231.584C586.11 230.688 586.291 229.904 586.654 229.232C587.017 228.549 587.513 228.021 588.142 227.648C588.782 227.275 589.497 227.088 590.286 227.088C591.043 227.088 591.705 227.259 592.27 227.6C592.846 227.931 593.267 228.341 593.534 228.832V227.232H595.006V240.16H593.534V234.384C593.257 234.875 592.83 235.291 592.254 235.632C591.678 235.973 591.006 236.144 590.238 236.144C589.47 236.144 588.771 235.952 588.142 235.568C587.513 235.184 587.017 234.645 586.654 233.952C586.291 233.259 586.11 232.469 586.11 231.584ZM593.534 231.6C593.534 230.939 593.401 230.363 593.134 229.872C592.867 229.381 592.505 229.008 592.046 228.752C591.598 228.485 591.102 228.352 590.558 228.352C590.014 228.352 589.518 228.48 589.07 228.736C588.622 228.992 588.265 229.365 587.998 229.856C587.731 230.347 587.598 230.923 587.598 231.584C587.598 232.256 587.731 232.843 587.998 233.344C588.265 233.835 588.622 234.213 589.07 234.48C589.518 234.736 590.014 234.864 590.558 234.864C591.102 234.864 591.598 234.736 592.046 234.48C592.505 234.213 592.867 233.835 593.134 233.344C593.401 232.843 593.534 232.261 593.534 231.6ZM605.242 227.232V236H603.786V234.704C603.509 235.152 603.12 235.504 602.618 235.76C602.128 236.005 601.584 236.128 600.986 236.128C600.304 236.128 599.69 235.989 599.146 235.712C598.602 235.424 598.17 234.997 597.85 234.432C597.541 233.867 597.386 233.179 597.386 232.368V227.232H598.826V232.176C598.826 233.04 599.045 233.707 599.482 234.176C599.92 234.635 600.517 234.864 601.274 234.864C602.053 234.864 602.666 234.624 603.114 234.144C603.562 233.664 603.786 232.965 603.786 232.048V227.232H605.242ZM615.701 231.28C615.701 231.557 615.685 231.851 615.653 232.16H608.645C608.698 233.024 608.991 233.701 609.525 234.192C610.069 234.672 610.725 234.912 611.493 234.912C612.122 234.912 612.645 234.768 613.061 234.48C613.487 234.181 613.786 233.787 613.957 233.296H615.525C615.29 234.139 614.821 234.827 614.117 235.36C613.413 235.883 612.538 236.144 611.493 236.144C610.661 236.144 609.914 235.957 609.253 235.584C608.602 235.211 608.09 234.683 607.717 234C607.343 233.307 607.157 232.507 607.157 231.6C607.157 230.693 607.338 229.899 607.701 229.216C608.063 228.533 608.57 228.011 609.221 227.648C609.882 227.275 610.639 227.088 611.493 227.088C612.325 227.088 613.061 227.269 613.701 227.632C614.341 227.995 614.831 228.496 615.173 229.136C615.525 229.765 615.701 230.48 615.701 231.28ZM614.197 230.976C614.197 230.421 614.074 229.947 613.829 229.552C613.583 229.147 613.247 228.843 612.821 228.64C612.405 228.427 611.941 228.32 611.429 228.32C610.693 228.32 610.063 228.555 609.541 229.024C609.029 229.493 608.735 230.144 608.661 230.976H614.197ZM620.727 236.144C620.055 236.144 619.452 236.032 618.919 235.808C618.385 235.573 617.964 235.253 617.655 234.848C617.345 234.432 617.175 233.957 617.143 233.424H618.647C618.689 233.861 618.892 234.219 619.255 234.496C619.628 234.773 620.113 234.912 620.711 234.912C621.265 234.912 621.703 234.789 622.023 234.544C622.343 234.299 622.503 233.989 622.503 233.616C622.503 233.232 622.332 232.949 621.991 232.768C621.649 232.576 621.121 232.389 620.407 232.208C619.756 232.037 619.223 231.867 618.807 231.696C618.401 231.515 618.049 231.253 617.751 230.912C617.463 230.56 617.319 230.101 617.319 229.536C617.319 229.088 617.452 228.677 617.719 228.304C617.985 227.931 618.364 227.637 618.855 227.424C619.345 227.2 619.905 227.088 620.535 227.088C621.505 227.088 622.289 227.333 622.887 227.824C623.484 228.315 623.804 228.987 623.847 229.84H622.391C622.359 229.381 622.172 229.013 621.831 228.736C621.5 228.459 621.052 228.32 620.487 228.32C619.964 228.32 619.548 228.432 619.239 228.656C618.929 228.88 618.775 229.173 618.775 229.536C618.775 229.824 618.865 230.064 619.047 230.256C619.239 230.437 619.473 230.587 619.751 230.704C620.039 230.811 620.433 230.933 620.935 231.072C621.564 231.243 622.076 231.413 622.471 231.584C622.865 231.744 623.201 231.989 623.479 232.32C623.767 232.651 623.916 233.083 623.927 233.616C623.927 234.096 623.793 234.528 623.527 234.912C623.26 235.296 622.881 235.6 622.391 235.824C621.911 236.037 621.356 236.144 620.727 236.144ZM627.758 228.432V233.6C627.758 234.027 627.849 234.331 628.03 234.512C628.211 234.683 628.526 234.768 628.974 234.768H630.046V236H628.734C627.923 236 627.315 235.813 626.91 235.44C626.505 235.067 626.302 234.453 626.302 233.6V228.432H625.166V227.232H626.302V225.024H627.758V227.232H630.046V228.432H627.758ZM646.62 227.072C647.302 227.072 647.91 227.216 648.444 227.504C648.977 227.781 649.398 228.203 649.708 228.768C650.017 229.333 650.172 230.021 650.172 230.832V236H648.732V231.04C648.732 230.165 648.513 229.499 648.076 229.04C647.649 228.571 647.068 228.336 646.332 228.336C645.574 228.336 644.972 228.581 644.524 229.072C644.076 229.552 643.852 230.251 643.852 231.168V236H642.412V231.04C642.412 230.165 642.193 229.499 641.756 229.04C641.329 228.571 640.748 228.336 640.012 228.336C639.254 228.336 638.652 228.581 638.204 229.072C637.756 229.552 637.532 230.251 637.532 231.168V236H636.076V227.232H637.532V228.496C637.82 228.037 638.204 227.685 638.684 227.44C639.174 227.195 639.713 227.072 640.3 227.072C641.036 227.072 641.686 227.237 642.252 227.568C642.817 227.899 643.238 228.384 643.516 229.024C643.761 228.405 644.166 227.925 644.732 227.584C645.297 227.243 645.926 227.072 646.62 227.072ZM656.384 236.144C655.563 236.144 654.816 235.957 654.144 235.584C653.483 235.211 652.96 234.683 652.576 234C652.203 233.307 652.016 232.507 652.016 231.6C652.016 230.704 652.208 229.915 652.592 229.232C652.987 228.539 653.52 228.011 654.192 227.648C654.864 227.275 655.616 227.088 656.448 227.088C657.28 227.088 658.032 227.275 658.704 227.648C659.376 228.011 659.904 228.533 660.288 229.216C660.683 229.899 660.88 230.693 660.88 231.6C660.88 232.507 660.677 233.307 660.272 234C659.877 234.683 659.339 235.211 658.656 235.584C657.973 235.957 657.216 236.144 656.384 236.144ZM656.384 234.864C656.907 234.864 657.397 234.741 657.856 234.496C658.315 234.251 658.683 233.883 658.96 233.392C659.248 232.901 659.392 232.304 659.392 231.6C659.392 230.896 659.253 230.299 658.976 229.808C658.699 229.317 658.336 228.955 657.888 228.72C657.44 228.475 656.955 228.352 656.432 228.352C655.899 228.352 655.408 228.475 654.96 228.72C654.523 228.955 654.171 229.317 653.904 229.808C653.637 230.299 653.504 230.896 653.504 231.6C653.504 232.315 653.632 232.917 653.888 233.408C654.155 233.899 654.507 234.267 654.944 234.512C655.381 234.747 655.861 234.864 656.384 234.864ZM667.067 227.072C668.133 227.072 668.997 227.397 669.659 228.048C670.32 228.688 670.651 229.616 670.651 230.832V236H669.211V231.04C669.211 230.165 668.992 229.499 668.555 229.04C668.117 228.571 667.52 228.336 666.763 228.336C665.995 228.336 665.381 228.576 664.923 229.056C664.475 229.536 664.251 230.235 664.251 231.152V236H662.795V227.232H664.251V228.48C664.539 228.032 664.928 227.685 665.419 227.44C665.92 227.195 666.469 227.072 667.067 227.072ZM681.029 231.28C681.029 231.557 681.013 231.851 680.981 232.16H673.973C674.026 233.024 674.32 233.701 674.853 234.192C675.397 234.672 676.053 234.912 676.821 234.912C677.45 234.912 677.973 234.768 678.389 234.48C678.816 234.181 679.114 233.787 679.285 233.296H680.853C680.618 234.139 680.149 234.827 679.445 235.36C678.741 235.883 677.866 236.144 676.821 236.144C675.989 236.144 675.242 235.957 674.581 235.584C673.93 235.211 673.418 234.683 673.045 234C672.672 233.307 672.485 232.507 672.485 231.6C672.485 230.693 672.666 229.899 673.029 229.216C673.392 228.533 673.898 228.011 674.549 227.648C675.21 227.275 675.968 227.088 676.821 227.088C677.653 227.088 678.389 227.269 679.029 227.632C679.669 227.995 680.16 228.496 680.501 229.136C680.853 229.765 681.029 230.48 681.029 231.28ZM679.525 230.976C679.525 230.421 679.402 229.947 679.157 229.552C678.912 229.147 678.576 228.843 678.149 228.64C677.733 228.427 677.269 228.32 676.757 228.32C676.021 228.32 675.392 228.555 674.869 229.024C674.357 229.493 674.064 230.144 673.989 230.976H679.525ZM690.503 227.232L685.223 240.128H683.719L685.447 235.904L681.911 227.232H683.527L686.279 234.336L688.999 227.232H690.503ZM699.8 228.432H697.96V236H696.504V228.432H695.368V227.232H696.504V226.608C696.504 225.627 696.755 224.912 697.256 224.464C697.768 224.005 698.584 223.776 699.704 223.776V224.992C699.064 224.992 698.611 225.12 698.344 225.376C698.088 225.621 697.96 226.032 697.96 226.608V227.232H699.8V228.432ZM702.954 228.656C703.21 228.155 703.572 227.765 704.042 227.488C704.522 227.211 705.103 227.072 705.786 227.072V228.576H705.402C703.77 228.576 702.954 229.461 702.954 231.232V236H701.498V227.232H702.954V228.656ZM711.29 236.144C710.469 236.144 709.722 235.957 709.05 235.584C708.389 235.211 707.866 234.683 707.482 234C707.109 233.307 706.922 232.507 706.922 231.6C706.922 230.704 707.114 229.915 707.498 229.232C707.893 228.539 708.426 228.011 709.098 227.648C709.77 227.275 710.522 227.088 711.354 227.088C712.186 227.088 712.938 227.275 713.61 227.648C714.282 228.011 714.81 228.533 715.194 229.216C715.589 229.899 715.786 230.693 715.786 231.6C715.786 232.507 715.584 233.307 715.178 234C714.784 234.683 714.245 235.211 713.562 235.584C712.88 235.957 712.122 236.144 711.29 236.144ZM711.29 234.864C711.813 234.864 712.304 234.741 712.762 234.496C713.221 234.251 713.589 233.883 713.866 233.392C714.154 232.901 714.298 232.304 714.298 231.6C714.298 230.896 714.16 230.299 713.882 229.808C713.605 229.317 713.242 228.955 712.794 228.72C712.346 228.475 711.861 228.352 711.338 228.352C710.805 228.352 710.314 228.475 709.866 228.72C709.429 228.955 709.077 229.317 708.81 229.808C708.544 230.299 708.41 230.896 708.41 231.6C708.41 232.315 708.538 232.917 708.794 233.408C709.061 233.899 709.413 234.267 709.85 234.512C710.288 234.747 710.768 234.864 711.29 234.864ZM728.245 227.072C728.927 227.072 729.535 227.216 730.069 227.504C730.602 227.781 731.023 228.203 731.333 228.768C731.642 229.333 731.797 230.021 731.797 230.832V236H730.357V231.04C730.357 230.165 730.138 229.499 729.701 229.04C729.274 228.571 728.693 228.336 727.957 228.336C727.199 228.336 726.597 228.581 726.149 229.072C725.701 229.552 725.477 230.251 725.477 231.168V236H724.037V231.04C724.037 230.165 723.818 229.499 723.381 229.04C722.954 228.571 722.373 228.336 721.637 228.336C720.879 228.336 720.277 228.581 719.829 229.072C719.381 229.552 719.157 230.251 719.157 231.168V236H717.701V227.232H719.157V228.496C719.445 228.037 719.829 227.685 720.309 227.44C720.799 227.195 721.338 227.072 721.925 227.072C722.661 227.072 723.311 227.237 723.877 227.568C724.442 227.899 724.863 228.384 725.141 229.024C725.386 228.405 725.791 227.925 726.357 227.584C726.922 227.243 727.551 227.072 728.245 227.072ZM746.003 227.232L740.723 240.128H739.219L740.947 235.904L737.411 227.232H739.027L741.779 234.336L744.499 227.232H746.003ZM751.29 236.144C750.469 236.144 749.722 235.957 749.05 235.584C748.389 235.211 747.866 234.683 747.482 234C747.109 233.307 746.922 232.507 746.922 231.6C746.922 230.704 747.114 229.915 747.498 229.232C747.893 228.539 748.426 228.011 749.098 227.648C749.77 227.275 750.522 227.088 751.354 227.088C752.186 227.088 752.938 227.275 753.61 227.648C754.282 228.011 754.81 228.533 755.194 229.216C755.589 229.899 755.786 230.693 755.786 231.6C755.786 232.507 755.584 233.307 755.178 234C754.784 234.683 754.245 235.211 753.562 235.584C752.88 235.957 752.122 236.144 751.29 236.144ZM751.29 234.864C751.813 234.864 752.304 234.741 752.762 234.496C753.221 234.251 753.589 233.883 753.866 233.392C754.154 232.901 754.298 232.304 754.298 231.6C754.298 230.896 754.16 230.299 753.882 229.808C753.605 229.317 753.242 228.955 752.794 228.72C752.346 228.475 751.861 228.352 751.338 228.352C750.805 228.352 750.314 228.475 749.866 228.72C749.429 228.955 749.077 229.317 748.81 229.808C748.544 230.299 748.41 230.896 748.41 231.6C748.41 232.315 748.538 232.917 748.794 233.408C749.061 233.899 749.413 234.267 749.85 234.512C750.288 234.747 750.768 234.864 751.29 234.864ZM765.477 227.232V236H764.021V234.704C763.743 235.152 763.354 235.504 762.853 235.76C762.362 236.005 761.818 236.128 761.221 236.128C760.538 236.128 759.925 235.989 759.381 235.712C758.837 235.424 758.405 234.997 758.085 234.432C757.775 233.867 757.621 233.179 757.621 232.368V227.232H759.061V232.176C759.061 233.04 759.279 233.707 759.717 234.176C760.154 234.635 760.751 234.864 761.509 234.864C762.287 234.864 762.901 234.624 763.349 234.144C763.797 233.664 764.021 232.965 764.021 232.048V227.232H765.477ZM769.391 228.656C769.647 228.155 770.01 227.765 770.479 227.488C770.959 227.211 771.54 227.072 772.223 227.072V228.576H771.839C770.207 228.576 769.391 229.461 769.391 231.232V236H767.935V227.232H769.391V228.656ZM781.738 228.432H779.898V236H778.442V228.432H777.306V227.232H778.442V226.608C778.442 225.627 778.692 224.912 779.194 224.464C779.706 224.005 780.522 223.776 781.641 223.776V224.992C781.002 224.992 780.548 225.12 780.282 225.376C780.026 225.621 779.898 226.032 779.898 226.608V227.232H781.738V228.432ZM784.891 228.656C785.147 228.155 785.51 227.765 785.979 227.488C786.459 227.211 787.04 227.072 787.723 227.072V228.576H787.339C785.707 228.576 784.891 229.461 784.891 231.232V236H783.435V227.232H784.891V228.656ZM790.156 225.808C789.879 225.808 789.644 225.712 789.452 225.52C789.26 225.328 789.164 225.093 789.164 224.816C789.164 224.539 789.26 224.304 789.452 224.112C789.644 223.92 789.879 223.824 790.156 223.824C790.423 223.824 790.647 223.92 790.828 224.112C791.02 224.304 791.116 224.539 791.116 224.816C791.116 225.093 791.02 225.328 790.828 225.52C790.647 225.712 790.423 225.808 790.156 225.808ZM790.86 227.232V236H789.404V227.232H790.86ZM801.341 231.28C801.341 231.557 801.325 231.851 801.293 232.16H794.285C794.339 233.024 794.632 233.701 795.165 234.192C795.709 234.672 796.365 234.912 797.133 234.912C797.763 234.912 798.285 234.768 798.701 234.48C799.128 234.181 799.427 233.787 799.597 233.296H801.165C800.931 234.139 800.461 234.827 799.757 235.36C799.053 235.883 798.179 236.144 797.133 236.144C796.301 236.144 795.555 235.957 794.893 235.584C794.243 235.211 793.731 234.683 793.357 234C792.984 233.307 792.797 232.507 792.797 231.6C792.797 230.693 792.979 229.899 793.341 229.216C793.704 228.533 794.211 228.011 794.861 227.648C795.523 227.275 796.28 227.088 797.133 227.088C797.965 227.088 798.701 227.269 799.341 227.632C799.981 227.995 800.472 228.496 800.813 229.136C801.165 229.765 801.341 230.48 801.341 231.28ZM799.837 230.976C799.837 230.421 799.715 229.947 799.469 229.552C799.224 229.147 798.888 228.843 798.461 228.64C798.045 228.427 797.581 228.32 797.069 228.32C796.333 228.32 795.704 228.555 795.181 229.024C794.669 229.493 794.376 230.144 794.301 230.976H799.837ZM807.535 227.072C808.602 227.072 809.466 227.397 810.127 228.048C810.789 228.688 811.119 229.616 811.119 230.832V236H809.679V231.04C809.679 230.165 809.461 229.499 809.023 229.04C808.586 228.571 807.989 228.336 807.231 228.336C806.463 228.336 805.85 228.576 805.391 229.056C804.943 229.536 804.719 230.235 804.719 231.152V236H803.263V227.232H804.719V228.48C805.007 228.032 805.397 227.685 805.887 227.44C806.389 227.195 806.938 227.072 807.535 227.072ZM812.954 231.584C812.954 230.688 813.135 229.904 813.498 229.232C813.86 228.549 814.356 228.021 814.986 227.648C815.626 227.275 816.34 227.088 817.13 227.088C817.812 227.088 818.447 227.248 819.034 227.568C819.62 227.877 820.068 228.288 820.378 228.8V224.16H821.85V236H820.378V234.352C820.09 234.875 819.663 235.307 819.098 235.648C818.532 235.979 817.871 236.144 817.114 236.144C816.335 236.144 815.626 235.952 814.986 235.568C814.356 235.184 813.86 234.645 813.498 233.952C813.135 233.259 812.954 232.469 812.954 231.584ZM820.378 231.6C820.378 230.939 820.244 230.363 819.978 229.872C819.711 229.381 819.348 229.008 818.89 228.752C818.442 228.485 817.946 228.352 817.402 228.352C816.858 228.352 816.362 228.48 815.914 228.736C815.466 228.992 815.108 229.365 814.842 229.856C814.575 230.347 814.442 230.923 814.442 231.584C814.442 232.256 814.575 232.843 814.842 233.344C815.108 233.835 815.466 234.213 815.914 234.48C816.362 234.736 816.858 234.864 817.402 234.864C817.946 234.864 818.442 234.736 818.89 234.48C819.348 234.213 819.711 233.835 819.978 233.344C820.244 232.843 820.378 232.261 820.378 231.6ZM827.414 236.144C826.742 236.144 826.139 236.032 825.606 235.808C825.073 235.573 824.651 235.253 824.342 234.848C824.033 234.432 823.862 233.957 823.83 233.424H825.334C825.377 233.861 825.579 234.219 825.942 234.496C826.315 234.773 826.801 234.912 827.398 234.912C827.953 234.912 828.39 234.789 828.71 234.544C829.03 234.299 829.19 233.989 829.19 233.616C829.19 233.232 829.019 232.949 828.678 232.768C828.337 232.576 827.809 232.389 827.094 232.208C826.443 232.037 825.91 231.867 825.494 231.696C825.089 231.515 824.737 231.253 824.438 230.912C824.15 230.56 824.006 230.101 824.006 229.536C824.006 229.088 824.139 228.677 824.406 228.304C824.673 227.931 825.051 227.637 825.542 227.424C826.033 227.2 826.593 227.088 827.222 227.088C828.193 227.088 828.977 227.333 829.574 227.824C830.171 228.315 830.491 228.987 830.534 229.84H829.078C829.046 229.381 828.859 229.013 828.518 228.736C828.187 228.459 827.739 228.32 827.174 228.32C826.651 228.32 826.235 228.432 825.926 228.656C825.617 228.88 825.462 229.173 825.462 229.536C825.462 229.824 825.553 230.064 825.734 230.256C825.926 230.437 826.161 230.587 826.438 230.704C826.726 230.811 827.121 230.933 827.622 231.072C828.251 231.243 828.763 231.413 829.158 231.584C829.553 231.744 829.889 231.989 830.166 232.32C830.454 232.651 830.603 233.083 830.614 233.616C830.614 234.096 830.481 234.528 830.214 234.912C829.947 235.296 829.569 235.6 829.078 235.824C828.598 236.037 828.043 236.144 827.414 236.144ZM840.759 236.144C839.938 236.144 839.191 235.957 838.519 235.584C837.858 235.211 837.335 234.683 836.951 234C836.578 233.307 836.391 232.507 836.391 231.6C836.391 230.704 836.583 229.915 836.967 229.232C837.362 228.539 837.895 228.011 838.567 227.648C839.239 227.275 839.991 227.088 840.823 227.088C841.655 227.088 842.407 227.275 843.079 227.648C843.751 228.011 844.279 228.533 844.663 229.216C845.058 229.899 845.255 230.693 845.255 231.6C845.255 232.507 845.052 233.307 844.647 234C844.252 234.683 843.714 235.211 843.031 235.584C842.348 235.957 841.591 236.144 840.759 236.144ZM840.759 234.864C841.282 234.864 841.772 234.741 842.231 234.496C842.69 234.251 843.058 233.883 843.335 233.392C843.623 232.901 843.767 232.304 843.767 231.6C843.767 230.896 843.628 230.299 843.351 229.808C843.074 229.317 842.711 228.955 842.263 228.72C841.815 228.475 841.33 228.352 840.807 228.352C840.274 228.352 839.783 228.475 839.335 228.72C838.898 228.955 838.546 229.317 838.279 229.808C838.012 230.299 837.879 230.896 837.879 231.6C837.879 232.315 838.007 232.917 838.263 233.408C838.53 233.899 838.882 234.267 839.319 234.512C839.756 234.747 840.236 234.864 840.759 234.864ZM848.626 228.656C848.882 228.155 849.244 227.765 849.714 227.488C850.194 227.211 850.775 227.072 851.458 227.072V228.576H851.074C849.442 228.576 848.626 229.461 848.626 231.232V236H847.17V227.232H848.626V228.656ZM526.056 266.144C525.235 266.144 524.488 265.957 523.816 265.584C523.155 265.211 522.632 264.683 522.248 264C521.875 263.307 521.688 262.507 521.688 261.6C521.688 260.704 521.88 259.915 522.264 259.232C522.659 258.539 523.192 258.011 523.864 257.648C524.536 257.275 525.288 257.088 526.12 257.088C526.952 257.088 527.704 257.275 528.376 257.648C529.048 258.011 529.576 258.533 529.96 259.216C530.355 259.899 530.552 260.693 530.552 261.6C530.552 262.507 530.349 263.307 529.944 264C529.549 264.683 529.011 265.211 528.328 265.584C527.645 265.957 526.888 266.144 526.056 266.144ZM526.056 264.864C526.579 264.864 527.069 264.741 527.528 264.496C527.987 264.251 528.355 263.883 528.632 263.392C528.92 262.901 529.064 262.304 529.064 261.6C529.064 260.896 528.925 260.299 528.648 259.808C528.371 259.317 528.008 258.955 527.56 258.72C527.112 258.475 526.627 258.352 526.104 258.352C525.571 258.352 525.08 258.475 524.632 258.72C524.195 258.955 523.843 259.317 523.576 259.808C523.309 260.299 523.176 260.896 523.176 261.6C523.176 262.315 523.304 262.917 523.56 263.408C523.827 263.899 524.179 264.267 524.616 264.512C525.053 264.747 525.533 264.864 526.056 264.864ZM534.242 258.432V263.6C534.242 264.027 534.333 264.331 534.514 264.512C534.696 264.683 535.01 264.768 535.458 264.768H536.53V266H535.218C534.408 266 533.8 265.813 533.394 265.44C532.989 265.067 532.786 264.453 532.786 263.6V258.432H531.65V257.232H532.786V255.024H534.242V257.232H536.53V258.432H534.242ZM542.647 257.072C543.308 257.072 543.905 257.216 544.439 257.504C544.972 257.781 545.388 258.203 545.687 258.768C545.996 259.333 546.151 260.021 546.151 260.832V266H544.711V261.04C544.711 260.165 544.492 259.499 544.055 259.04C543.617 258.571 543.02 258.336 542.263 258.336C541.495 258.336 540.881 258.576 540.423 259.056C539.975 259.536 539.751 260.235 539.751 261.152V266H538.295V254.16H539.751V258.48C540.039 258.032 540.433 257.685 540.935 257.44C541.447 257.195 542.017 257.072 542.647 257.072ZM556.529 261.28C556.529 261.557 556.513 261.851 556.481 262.16H549.473C549.526 263.024 549.82 263.701 550.353 264.192C550.897 264.672 551.553 264.912 552.321 264.912C552.95 264.912 553.473 264.768 553.889 264.48C554.316 264.181 554.614 263.787 554.785 263.296H556.353C556.118 264.139 555.649 264.827 554.945 265.36C554.241 265.883 553.366 266.144 552.321 266.144C551.489 266.144 550.742 265.957 550.081 265.584C549.43 265.211 548.918 264.683 548.545 264C548.172 263.307 547.985 262.507 547.985 261.6C547.985 260.693 548.166 259.899 548.529 259.216C548.892 258.533 549.398 258.011 550.049 257.648C550.71 257.275 551.468 257.088 552.321 257.088C553.153 257.088 553.889 257.269 554.529 257.632C555.169 257.995 555.66 258.496 556.001 259.136C556.353 259.765 556.529 260.48 556.529 261.28ZM555.025 260.976C555.025 260.421 554.902 259.947 554.657 259.552C554.412 259.147 554.076 258.843 553.649 258.64C553.233 258.427 552.769 258.32 552.257 258.32C551.521 258.32 550.892 258.555 550.369 259.024C549.857 259.493 549.564 260.144 549.489 260.976H555.025ZM559.907 258.656C560.163 258.155 560.525 257.765 560.995 257.488C561.475 257.211 562.056 257.072 562.739 257.072V258.576H562.355C560.723 258.576 559.907 259.461 559.907 261.232V266H558.451V257.232H559.907V258.656ZM567.524 266.144C566.852 266.144 566.249 266.032 565.716 265.808C565.182 265.573 564.761 265.253 564.452 264.848C564.142 264.432 563.972 263.957 563.94 263.424H565.444C565.486 263.861 565.689 264.219 566.052 264.496C566.425 264.773 566.91 264.912 567.508 264.912C568.062 264.912 568.5 264.789 568.82 264.544C569.14 264.299 569.3 263.989 569.3 263.616C569.3 263.232 569.129 262.949 568.788 262.768C568.446 262.576 567.918 262.389 567.204 262.208C566.553 262.037 566.02 261.867 565.604 261.696C565.198 261.515 564.846 261.253 564.548 260.912C564.26 260.56 564.116 260.101 564.116 259.536C564.116 259.088 564.249 258.677 564.516 258.304C564.782 257.931 565.161 257.637 565.652 257.424C566.142 257.2 566.702 257.088 567.332 257.088C568.302 257.088 569.086 257.333 569.684 257.824C570.281 258.315 570.601 258.987 570.644 259.84H569.188C569.156 259.381 568.969 259.013 568.628 258.736C568.297 258.459 567.849 258.32 567.284 258.32C566.761 258.32 566.345 258.432 566.036 258.656C565.726 258.88 565.572 259.173 565.572 259.536C565.572 259.824 565.662 260.064 565.844 260.256C566.036 260.437 566.27 260.587 566.548 260.704C566.836 260.811 567.23 260.933 567.732 261.072C568.361 261.243 568.873 261.413 569.268 261.584C569.662 261.744 569.998 261.989 570.276 262.32C570.564 262.651 570.713 263.083 570.724 263.616C570.724 264.096 570.59 264.528 570.324 264.912C570.057 265.296 569.678 265.6 569.188 265.824C568.708 266.037 568.153 266.144 567.524 266.144ZM573.243 266.096C572.966 266.096 572.731 266 572.539 265.808C572.347 265.616 572.251 265.381 572.251 265.104C572.251 264.827 572.347 264.592 572.539 264.4C572.731 264.208 572.966 264.112 573.243 264.112C573.51 264.112 573.734 264.208 573.915 264.4C574.107 264.592 574.203 264.827 574.203 265.104C574.203 265.381 574.107 265.616 573.915 265.808C573.734 266 573.51 266.096 573.243 266.096ZM586.02 254.848V263.088C586.02 264.005 585.737 264.741 585.172 265.296C584.607 265.84 583.86 266.112 582.932 266.112C581.993 266.112 581.241 265.835 580.676 265.28C580.111 264.715 579.828 263.947 579.828 262.976H581.284C581.295 263.52 581.433 263.963 581.7 264.304C581.977 264.645 582.388 264.816 582.932 264.816C583.476 264.816 583.881 264.656 584.148 264.336C584.415 264.005 584.548 263.589 584.548 263.088V254.848H586.02ZM596.664 257.232V266H595.208V264.704C594.931 265.152 594.542 265.504 594.04 265.76C593.55 266.005 593.006 266.128 592.408 266.128C591.726 266.128 591.112 265.989 590.568 265.712C590.024 265.424 589.592 264.997 589.272 264.432C588.963 263.867 588.808 263.179 588.808 262.368V257.232H590.248V262.176C590.248 263.04 590.467 263.707 590.904 264.176C591.342 264.635 591.939 264.864 592.696 264.864C593.475 264.864 594.088 264.624 594.536 264.144C594.984 263.664 595.208 262.965 595.208 262.048V257.232H596.664ZM602.227 266.144C601.555 266.144 600.952 266.032 600.419 265.808C599.885 265.573 599.464 265.253 599.155 264.848C598.845 264.432 598.675 263.957 598.643 263.424H600.147C600.189 263.861 600.392 264.219 600.755 264.496C601.128 264.773 601.613 264.912 602.211 264.912C602.765 264.912 603.203 264.789 603.523 264.544C603.843 264.299 604.003 263.989 604.003 263.616C604.003 263.232 603.832 262.949 603.491 262.768C603.149 262.576 602.621 262.389 601.907 262.208C601.256 262.037 600.723 261.867 600.307 261.696C599.901 261.515 599.549 261.253 599.251 260.912C598.963 260.56 598.819 260.101 598.819 259.536C598.819 259.088 598.952 258.677 599.219 258.304C599.485 257.931 599.864 257.637 600.355 257.424C600.845 257.2 601.405 257.088 602.035 257.088C603.005 257.088 603.789 257.333 604.387 257.824C604.984 258.315 605.304 258.987 605.347 259.84H603.891C603.859 259.381 603.672 259.013 603.331 258.736C603 258.459 602.552 258.32 601.987 258.32C601.464 258.32 601.048 258.432 600.739 258.656C600.429 258.88 600.275 259.173 600.275 259.536C600.275 259.824 600.365 260.064 600.547 260.256C600.739 260.437 600.973 260.587 601.251 260.704C601.539 260.811 601.933 260.933 602.435 261.072C603.064 261.243 603.576 261.413 603.971 261.584C604.365 261.744 604.701 261.989 604.979 262.32C605.267 262.651 605.416 263.083 605.427 263.616C605.427 264.096 605.293 264.528 605.027 264.912C604.76 265.296 604.381 265.6 603.891 265.824C603.411 266.037 602.856 266.144 602.227 266.144ZM609.258 258.432V263.6C609.258 264.027 609.349 264.331 609.53 264.512C609.711 264.683 610.026 264.768 610.474 264.768H611.546V266H610.234C609.423 266 608.815 265.813 608.41 265.44C608.005 265.067 607.802 264.453 607.802 263.6V258.432H606.666V257.232H607.802V255.024H609.258V257.232H611.546V258.432H609.258ZM625.576 261.28C625.576 261.557 625.56 261.851 625.528 262.16H618.52C618.573 263.024 618.866 263.701 619.4 264.192C619.944 264.672 620.6 264.912 621.368 264.912C621.997 264.912 622.52 264.768 622.936 264.48C623.362 264.181 623.661 263.787 623.832 263.296H625.4C625.165 264.139 624.696 264.827 623.992 265.36C623.288 265.883 622.413 266.144 621.368 266.144C620.536 266.144 619.789 265.957 619.128 265.584C618.477 265.211 617.965 264.683 617.592 264C617.218 263.307 617.032 262.507 617.032 261.6C617.032 260.693 617.213 259.899 617.576 259.216C617.938 258.533 618.445 258.011 619.096 257.648C619.757 257.275 620.514 257.088 621.368 257.088C622.2 257.088 622.936 257.269 623.576 257.632C624.216 257.995 624.706 258.496 625.048 259.136C625.4 259.765 625.576 260.48 625.576 261.28ZM624.072 260.976C624.072 260.421 623.949 259.947 623.704 259.552C623.458 259.147 623.122 258.843 622.696 258.64C622.28 258.427 621.816 258.32 621.304 258.32C620.568 258.32 619.938 258.555 619.416 259.024C618.904 259.493 618.61 260.144 618.536 260.976H624.072ZM631.77 257.072C632.836 257.072 633.7 257.397 634.362 258.048C635.023 258.688 635.354 259.616 635.354 260.832V266H633.914V261.04C633.914 260.165 633.695 259.499 633.258 259.04C632.82 258.571 632.223 258.336 631.466 258.336C630.698 258.336 630.084 258.576 629.626 259.056C629.178 259.536 628.954 260.235 628.954 261.152V266H627.498V257.232H628.954V258.48C629.242 258.032 629.631 257.685 630.122 257.44C630.623 257.195 631.172 257.072 631.77 257.072ZM639.508 258.432V263.6C639.508 264.027 639.599 264.331 639.78 264.512C639.961 264.683 640.276 264.768 640.724 264.768H641.796V266H640.484C639.673 266 639.065 265.813 638.66 265.44C638.255 265.067 638.052 264.453 638.052 263.6V258.432H636.916V257.232H638.052V255.024H639.508V257.232H641.796V258.432H639.508ZM651.56 261.28C651.56 261.557 651.544 261.851 651.512 262.16H644.504C644.557 263.024 644.851 263.701 645.384 264.192C645.928 264.672 646.584 264.912 647.352 264.912C647.981 264.912 648.504 264.768 648.92 264.48C649.347 264.181 649.645 263.787 649.816 263.296H651.384C651.149 264.139 650.68 264.827 649.976 265.36C649.272 265.883 648.397 266.144 647.352 266.144C646.52 266.144 645.773 265.957 645.112 265.584C644.461 265.211 643.949 264.683 643.576 264C643.203 263.307 643.016 262.507 643.016 261.6C643.016 260.693 643.197 259.899 643.56 259.216C643.923 258.533 644.429 258.011 645.08 257.648C645.741 257.275 646.499 257.088 647.352 257.088C648.184 257.088 648.92 257.269 649.56 257.632C650.2 257.995 650.691 258.496 651.032 259.136C651.384 259.765 651.56 260.48 651.56 261.28ZM650.056 260.976C650.056 260.421 649.933 259.947 649.688 259.552C649.443 259.147 649.107 258.843 648.68 258.64C648.264 258.427 647.8 258.32 647.288 258.32C646.552 258.32 645.923 258.555 645.4 259.024C644.888 259.493 644.595 260.144 644.52 260.976H650.056ZM654.938 258.656C655.194 258.155 655.557 257.765 656.026 257.488C656.506 257.211 657.087 257.072 657.77 257.072V258.576H657.386C655.754 258.576 654.938 259.461 654.938 261.232V266H653.482V257.232H654.938V258.656ZM665.492 258.432V263.6C665.492 264.027 665.583 264.331 665.764 264.512C665.946 264.683 666.26 264.768 666.708 264.768H667.78V266H666.468C665.658 266 665.05 265.813 664.644 265.44C664.239 265.067 664.036 264.453 664.036 263.6V258.432H662.9V257.232H664.036V255.024H665.492V257.232H667.78V258.432H665.492ZM673.897 257.072C674.558 257.072 675.155 257.216 675.689 257.504C676.222 257.781 676.638 258.203 676.937 258.768C677.246 259.333 677.401 260.021 677.401 260.832V266H675.961V261.04C675.961 260.165 675.742 259.499 675.305 259.04C674.867 258.571 674.27 258.336 673.513 258.336C672.745 258.336 672.131 258.576 671.673 259.056C671.225 259.536 671.001 260.235 671.001 261.152V266H669.545V254.16H671.001V258.48C671.289 258.032 671.683 257.685 672.185 257.44C672.697 257.195 673.267 257.072 673.897 257.072ZM687.779 261.28C687.779 261.557 687.763 261.851 687.731 262.16H680.723C680.776 263.024 681.07 263.701 681.603 264.192C682.147 264.672 682.803 264.912 683.571 264.912C684.2 264.912 684.723 264.768 685.139 264.48C685.566 264.181 685.864 263.787 686.035 263.296H687.603C687.368 264.139 686.899 264.827 686.195 265.36C685.491 265.883 684.616 266.144 683.571 266.144C682.739 266.144 681.992 265.957 681.331 265.584C680.68 265.211 680.168 264.683 679.795 264C679.422 263.307 679.235 262.507 679.235 261.6C679.235 260.693 679.416 259.899 679.779 259.216C680.142 258.533 680.648 258.011 681.299 257.648C681.96 257.275 682.718 257.088 683.571 257.088C684.403 257.088 685.139 257.269 685.779 257.632C686.419 257.995 686.91 258.496 687.251 259.136C687.603 259.765 687.779 260.48 687.779 261.28ZM686.275 260.976C686.275 260.421 686.152 259.947 685.907 259.552C685.662 259.147 685.326 258.843 684.899 258.64C684.483 258.427 684.019 258.32 683.507 258.32C682.771 258.32 682.142 258.555 681.619 259.024C681.107 259.493 680.814 260.144 680.739 260.976H686.275ZM693.422 261.584C693.422 260.688 693.604 259.904 693.966 259.232C694.329 258.549 694.825 258.021 695.454 257.648C696.094 257.275 696.804 257.088 697.582 257.088C698.35 257.088 699.017 257.253 699.582 257.584C700.148 257.915 700.569 258.331 700.846 258.832V257.232H702.318V266H700.846V264.368C700.558 264.88 700.126 265.307 699.55 265.648C698.985 265.979 698.324 266.144 697.566 266.144C696.788 266.144 696.084 265.952 695.454 265.568C694.825 265.184 694.329 264.645 693.966 263.952C693.604 263.259 693.422 262.469 693.422 261.584ZM700.846 261.6C700.846 260.939 700.713 260.363 700.446 259.872C700.18 259.381 699.817 259.008 699.358 258.752C698.91 258.485 698.414 258.352 697.87 258.352C697.326 258.352 696.83 258.48 696.382 258.736C695.934 258.992 695.577 259.365 695.31 259.856C695.044 260.347 694.91 260.923 694.91 261.584C694.91 262.256 695.044 262.843 695.31 263.344C695.577 263.835 695.934 264.213 696.382 264.48C696.83 264.736 697.326 264.864 697.87 264.864C698.414 264.864 698.91 264.736 699.358 264.48C699.817 264.213 700.18 263.835 700.446 263.344C700.713 262.843 700.846 262.261 700.846 261.6ZM715.323 257.072C716.006 257.072 716.614 257.216 717.147 257.504C717.68 257.781 718.102 258.203 718.411 258.768C718.72 259.333 718.875 260.021 718.875 260.832V266H717.435V261.04C717.435 260.165 717.216 259.499 716.779 259.04C716.352 258.571 715.771 258.336 715.035 258.336C714.278 258.336 713.675 258.581 713.227 259.072C712.779 259.552 712.555 260.251 712.555 261.168V266H711.115V261.04C711.115 260.165 710.896 259.499 710.459 259.04C710.032 258.571 709.451 258.336 708.715 258.336C707.958 258.336 707.355 258.581 706.907 259.072C706.459 259.552 706.235 260.251 706.235 261.168V266H704.779V257.232H706.235V258.496C706.523 258.037 706.907 257.685 707.387 257.44C707.878 257.195 708.416 257.072 709.003 257.072C709.739 257.072 710.39 257.237 710.955 257.568C711.52 257.899 711.942 258.384 712.219 259.024C712.464 258.405 712.87 257.925 713.435 257.584C714 257.243 714.63 257.072 715.323 257.072ZM725.087 266.144C724.266 266.144 723.519 265.957 722.847 265.584C722.186 265.211 721.663 264.683 721.279 264C720.906 263.307 720.719 262.507 720.719 261.6C720.719 260.704 720.911 259.915 721.295 259.232C721.69 258.539 722.223 258.011 722.895 257.648C723.567 257.275 724.319 257.088 725.151 257.088C725.983 257.088 726.735 257.275 727.407 257.648C728.079 258.011 728.607 258.533 728.991 259.216C729.386 259.899 729.583 260.693 729.583 261.6C729.583 262.507 729.381 263.307 728.975 264C728.581 264.683 728.042 265.211 727.359 265.584C726.677 265.957 725.919 266.144 725.087 266.144ZM725.087 264.864C725.61 264.864 726.101 264.741 726.559 264.496C727.018 264.251 727.386 263.883 727.663 263.392C727.951 262.901 728.095 262.304 728.095 261.6C728.095 260.896 727.957 260.299 727.679 259.808C727.402 259.317 727.039 258.955 726.591 258.72C726.143 258.475 725.658 258.352 725.135 258.352C724.602 258.352 724.111 258.475 723.663 258.72C723.226 258.955 722.874 259.317 722.607 259.808C722.341 260.299 722.207 260.896 722.207 261.6C722.207 262.315 722.335 262.917 722.591 263.408C722.858 263.899 723.21 264.267 723.647 264.512C724.085 264.747 724.565 264.864 725.087 264.864ZM739.274 257.232V266H737.818V264.704C737.54 265.152 737.151 265.504 736.65 265.76C736.159 266.005 735.615 266.128 735.018 266.128C734.335 266.128 733.722 265.989 733.178 265.712C732.634 265.424 732.202 264.997 731.882 264.432C731.572 263.867 731.418 263.179 731.418 262.368V257.232H732.858V262.176C732.858 263.04 733.076 263.707 733.514 264.176C733.951 264.635 734.548 264.864 735.306 264.864C736.084 264.864 736.698 264.624 737.146 264.144C737.594 263.664 737.818 262.965 737.818 262.048V257.232H739.274ZM746.004 257.072C747.071 257.072 747.935 257.397 748.596 258.048C749.257 258.688 749.588 259.616 749.588 260.832V266H748.148V261.04C748.148 260.165 747.929 259.499 747.492 259.04C747.055 258.571 746.457 258.336 745.7 258.336C744.932 258.336 744.319 258.576 743.86 259.056C743.412 259.536 743.188 260.235 743.188 261.152V266H741.732V257.232H743.188V258.48C743.476 258.032 743.865 257.685 744.356 257.44C744.857 257.195 745.407 257.072 746.004 257.072ZM753.742 258.432V263.6C753.742 264.027 753.833 264.331 754.014 264.512C754.196 264.683 754.51 264.768 754.958 264.768H756.03V266H754.718C753.908 266 753.3 265.813 752.894 265.44C752.489 265.067 752.286 264.453 752.286 263.6V258.432H751.15V257.232H752.286V255.024H753.742V257.232H756.03V258.432H753.742ZM761.516 261.584C761.516 260.688 761.697 259.904 762.06 259.232C762.423 258.549 762.919 258.021 763.548 257.648C764.188 257.275 764.897 257.088 765.676 257.088C766.444 257.088 767.111 257.253 767.676 257.584C768.241 257.915 768.663 258.331 768.94 258.832V257.232H770.412V266H768.94V264.368C768.652 264.88 768.22 265.307 767.644 265.648C767.079 265.979 766.417 266.144 765.66 266.144C764.881 266.144 764.177 265.952 763.548 265.568C762.919 265.184 762.423 264.645 762.06 263.952C761.697 263.259 761.516 262.469 761.516 261.584ZM768.94 261.6C768.94 260.939 768.807 260.363 768.54 259.872C768.273 259.381 767.911 259.008 767.452 258.752C767.004 258.485 766.508 258.352 765.964 258.352C765.42 258.352 764.924 258.48 764.476 258.736C764.028 258.992 763.671 259.365 763.404 259.856C763.137 260.347 763.004 260.923 763.004 261.584C763.004 262.256 763.137 262.843 763.404 263.344C763.671 263.835 764.028 264.213 764.476 264.48C764.924 264.736 765.42 264.864 765.964 264.864C766.508 264.864 767.004 264.736 767.452 264.48C767.911 264.213 768.273 263.835 768.54 263.344C768.807 262.843 768.94 262.261 768.94 261.6ZM777.145 257.072C778.211 257.072 779.075 257.397 779.737 258.048C780.398 258.688 780.729 259.616 780.729 260.832V266H779.289V261.04C779.289 260.165 779.07 259.499 778.633 259.04C778.195 258.571 777.598 258.336 776.841 258.336C776.073 258.336 775.459 258.576 775.001 259.056C774.553 259.536 774.329 260.235 774.329 261.152V266H772.873V257.232H774.329V258.48C774.617 258.032 775.006 257.685 775.497 257.44C775.998 257.195 776.547 257.072 777.145 257.072ZM782.563 261.584C782.563 260.688 782.744 259.904 783.107 259.232C783.47 258.549 783.966 258.021 784.595 257.648C785.235 257.275 785.95 257.088 786.739 257.088C787.422 257.088 788.056 257.248 788.643 257.568C789.23 257.877 789.678 258.288 789.987 258.8V254.16H791.459V266H789.987V264.352C789.699 264.875 789.272 265.307 788.707 265.648C788.142 265.979 787.48 266.144 786.723 266.144C785.944 266.144 785.235 265.952 784.595 265.568C783.966 265.184 783.47 264.645 783.107 263.952C782.744 263.259 782.563 262.469 782.563 261.584ZM789.987 261.6C789.987 260.939 789.854 260.363 789.587 259.872C789.32 259.381 788.958 259.008 788.499 258.752C788.051 258.485 787.555 258.352 787.011 258.352C786.467 258.352 785.971 258.48 785.523 258.736C785.075 258.992 784.718 259.365 784.451 259.856C784.184 260.347 784.051 260.923 784.051 261.584C784.051 262.256 784.184 262.843 784.451 263.344C784.718 263.835 785.075 264.213 785.523 264.48C785.971 264.736 786.467 264.864 787.011 264.864C787.555 264.864 788.051 264.736 788.499 264.48C788.958 264.213 789.32 263.835 789.587 263.344C789.854 262.843 789.987 262.261 789.987 261.6ZM801.289 266.144C800.617 266.144 800.014 266.032 799.481 265.808C798.948 265.573 798.526 265.253 798.217 264.848C797.908 264.432 797.737 263.957 797.705 263.424H799.209C799.252 263.861 799.454 264.219 799.817 264.496C800.19 264.773 800.676 264.912 801.273 264.912C801.828 264.912 802.265 264.789 802.585 264.544C802.905 264.299 803.065 263.989 803.065 263.616C803.065 263.232 802.894 262.949 802.553 262.768C802.212 262.576 801.684 262.389 800.969 262.208C800.318 262.037 799.785 261.867 799.369 261.696C798.964 261.515 798.612 261.253 798.313 260.912C798.025 260.56 797.881 260.101 797.881 259.536C797.881 259.088 798.014 258.677 798.281 258.304C798.548 257.931 798.926 257.637 799.417 257.424C799.908 257.2 800.468 257.088 801.097 257.088C802.068 257.088 802.852 257.333 803.449 257.824C804.046 258.315 804.366 258.987 804.409 259.84H802.953C802.921 259.381 802.734 259.013 802.393 258.736C802.062 258.459 801.614 258.32 801.049 258.32C800.526 258.32 800.11 258.432 799.801 258.656C799.492 258.88 799.337 259.173 799.337 259.536C799.337 259.824 799.428 260.064 799.609 260.256C799.801 260.437 800.036 260.587 800.313 260.704C800.601 260.811 800.996 260.933 801.497 261.072C802.126 261.243 802.638 261.413 803.033 261.584C803.428 261.744 803.764 261.989 804.041 262.32C804.329 262.651 804.478 263.083 804.489 263.616C804.489 264.096 804.356 264.528 804.089 264.912C803.822 265.296 803.444 265.6 802.953 265.824C802.473 266.037 801.918 266.144 801.289 266.144ZM814.545 261.28C814.545 261.557 814.529 261.851 814.497 262.16H807.489C807.542 263.024 807.835 263.701 808.369 264.192C808.913 264.672 809.569 264.912 810.337 264.912C810.966 264.912 811.489 264.768 811.905 264.48C812.331 264.181 812.63 263.787 812.801 263.296H814.369C814.134 264.139 813.665 264.827 812.961 265.36C812.257 265.883 811.382 266.144 810.337 266.144C809.505 266.144 808.758 265.957 808.097 265.584C807.446 265.211 806.934 264.683 806.561 264C806.187 263.307 806.001 262.507 806.001 261.6C806.001 260.693 806.182 259.899 806.545 259.216C806.907 258.533 807.414 258.011 808.065 257.648C808.726 257.275 809.483 257.088 810.337 257.088C811.169 257.088 811.905 257.269 812.545 257.632C813.185 257.995 813.675 258.496 814.017 259.136C814.369 259.765 814.545 260.48 814.545 261.28ZM813.041 260.976C813.041 260.421 812.918 259.947 812.673 259.552C812.427 259.147 812.091 258.843 811.665 258.64C811.249 258.427 810.785 258.32 810.273 258.32C809.537 258.32 808.907 258.555 808.385 259.024C807.873 259.493 807.579 260.144 807.505 260.976H813.041ZM820.738 257.072C821.805 257.072 822.669 257.397 823.33 258.048C823.992 258.688 824.322 259.616 824.322 260.832V266H822.882V261.04C822.882 260.165 822.664 259.499 822.226 259.04C821.789 258.571 821.192 258.336 820.434 258.336C819.666 258.336 819.053 258.576 818.594 259.056C818.146 259.536 817.922 260.235 817.922 261.152V266H816.466V257.232H817.922V258.48C818.21 258.032 818.6 257.685 819.09 257.44C819.592 257.195 820.141 257.072 820.738 257.072ZM826.157 261.584C826.157 260.688 826.338 259.904 826.701 259.232C827.063 258.549 827.559 258.021 828.189 257.648C828.829 257.275 829.543 257.088 830.333 257.088C831.015 257.088 831.65 257.248 832.237 257.568C832.823 257.877 833.271 258.288 833.581 258.8V254.16H835.053V266H833.581V264.352C833.293 264.875 832.866 265.307 832.301 265.648C831.735 265.979 831.074 266.144 830.317 266.144C829.538 266.144 828.829 265.952 828.189 265.568C827.559 265.184 827.063 264.645 826.701 263.952C826.338 263.259 826.157 262.469 826.157 261.584ZM833.581 261.6C833.581 260.939 833.447 260.363 833.181 259.872C832.914 259.381 832.551 259.008 832.093 258.752C831.645 258.485 831.149 258.352 830.605 258.352C830.061 258.352 829.565 258.48 829.117 258.736C828.669 258.992 828.311 259.365 828.045 259.856C827.778 260.347 827.645 260.923 827.645 261.584C827.645 262.256 827.778 262.843 828.045 263.344C828.311 263.835 828.669 264.213 829.117 264.48C829.565 264.736 830.061 264.864 830.605 264.864C831.149 264.864 831.645 264.736 832.093 264.48C832.551 264.213 832.914 263.835 833.181 263.344C833.447 262.843 833.581 262.261 833.581 261.6ZM843.555 258.432V263.6C843.555 264.027 843.646 264.331 843.827 264.512C844.008 264.683 844.323 264.768 844.771 264.768H845.843V266H844.531C843.72 266 843.112 265.813 842.707 265.44C842.302 265.067 842.099 264.453 842.099 263.6V258.432H840.963V257.232H842.099V255.024H843.555V257.232H845.843V258.432H843.555ZM851.959 257.072C852.62 257.072 853.218 257.216 853.751 257.504C854.284 257.781 854.7 258.203 854.999 258.768C855.308 259.333 855.463 260.021 855.463 260.832V266H854.023V261.04C854.023 260.165 853.804 259.499 853.367 259.04C852.93 258.571 852.332 258.336 851.575 258.336C850.807 258.336 850.194 258.576 849.735 259.056C849.287 259.536 849.063 260.235 849.063 261.152V266H847.607V254.16H849.063V258.48C849.351 258.032 849.746 257.685 850.247 257.44C850.759 257.195 851.33 257.072 851.959 257.072ZM865.841 261.28C865.841 261.557 865.825 261.851 865.793 262.16H858.785C858.839 263.024 859.132 263.701 859.665 264.192C860.209 264.672 860.865 264.912 861.633 264.912C862.263 264.912 862.785 264.768 863.201 264.48C863.628 264.181 863.927 263.787 864.097 263.296H865.665C865.431 264.139 864.961 264.827 864.257 265.36C863.553 265.883 862.679 266.144 861.633 266.144C860.801 266.144 860.055 265.957 859.393 265.584C858.743 265.211 858.231 264.683 857.857 264C857.484 263.307 857.297 262.507 857.297 261.6C857.297 260.693 857.479 259.899 857.841 259.216C858.204 258.533 858.711 258.011 859.361 257.648C860.023 257.275 860.78 257.088 861.633 257.088C862.465 257.088 863.201 257.269 863.841 257.632C864.481 257.995 864.972 258.496 865.313 259.136C865.665 259.765 865.841 260.48 865.841 261.28ZM864.337 260.976C864.337 260.421 864.215 259.947 863.969 259.552C863.724 259.147 863.388 258.843 862.961 258.64C862.545 258.427 862.081 258.32 861.569 258.32C860.833 258.32 860.204 258.555 859.681 259.024C859.169 259.493 858.876 260.144 858.801 260.976H864.337ZM523.688 288.656C523.944 288.155 524.307 287.765 524.776 287.488C525.256 287.211 525.837 287.072 526.52 287.072V288.576H526.136C524.504 288.576 523.688 289.461 523.688 291.232V296H522.232V287.232H523.688V288.656ZM536.201 291.28C536.201 291.557 536.185 291.851 536.153 292.16H529.145C529.198 293.024 529.491 293.701 530.025 294.192C530.569 294.672 531.225 294.912 531.993 294.912C532.622 294.912 533.145 294.768 533.561 294.48C533.987 294.181 534.286 293.787 534.457 293.296H536.025C535.79 294.139 535.321 294.827 534.617 295.36C533.913 295.883 533.038 296.144 531.993 296.144C531.161 296.144 530.414 295.957 529.753 295.584C529.102 295.211 528.59 294.683 528.217 294C527.843 293.307 527.657 292.507 527.657 291.6C527.657 290.693 527.838 289.899 528.201 289.216C528.563 288.533 529.07 288.011 529.721 287.648C530.382 287.275 531.139 287.088 531.993 287.088C532.825 287.088 533.561 287.269 534.201 287.632C534.841 287.995 535.331 288.496 535.673 289.136C536.025 289.765 536.201 290.48 536.201 291.28ZM534.697 290.976C534.697 290.421 534.574 289.947 534.329 289.552C534.083 289.147 533.747 288.843 533.321 288.64C532.905 288.427 532.441 288.32 531.929 288.32C531.193 288.32 530.563 288.555 530.041 289.024C529.529 289.493 529.235 290.144 529.161 290.976H534.697ZM537.579 291.584C537.579 290.688 537.76 289.904 538.123 289.232C538.485 288.549 538.981 288.021 539.611 287.648C540.251 287.275 540.965 287.088 541.755 287.088C542.512 287.088 543.173 287.259 543.739 287.6C544.315 287.931 544.736 288.341 545.003 288.832V287.232H546.475V300.16H545.003V294.384C544.725 294.875 544.299 295.291 543.723 295.632C543.147 295.973 542.475 296.144 541.707 296.144C540.939 296.144 540.24 295.952 539.611 295.568C538.981 295.184 538.485 294.645 538.123 293.952C537.76 293.259 537.579 292.469 537.579 291.584ZM545.003 291.6C545.003 290.939 544.869 290.363 544.603 289.872C544.336 289.381 543.973 289.008 543.515 288.752C543.067 288.485 542.571 288.352 542.027 288.352C541.483 288.352 540.987 288.48 540.539 288.736C540.091 288.992 539.733 289.365 539.467 289.856C539.2 290.347 539.067 290.923 539.067 291.584C539.067 292.256 539.2 292.843 539.467 293.344C539.733 293.835 540.091 294.213 540.539 294.48C540.987 294.736 541.483 294.864 542.027 294.864C542.571 294.864 543.067 294.736 543.515 294.48C543.973 294.213 544.336 293.835 544.603 293.344C544.869 292.843 545.003 292.261 545.003 291.6ZM556.711 287.232V296H555.255V294.704C554.978 295.152 554.588 295.504 554.087 295.76C553.596 296.005 553.052 296.128 552.455 296.128C551.772 296.128 551.159 295.989 550.615 295.712C550.071 295.424 549.639 294.997 549.319 294.432C549.01 293.867 548.855 293.179 548.855 292.368V287.232H550.295V292.176C550.295 293.04 550.514 293.707 550.951 294.176C551.388 294.635 551.986 294.864 552.743 294.864C553.522 294.864 554.135 294.624 554.583 294.144C555.031 293.664 555.255 292.965 555.255 292.048V287.232H556.711ZM567.17 291.28C567.17 291.557 567.154 291.851 567.122 292.16H560.114C560.167 293.024 560.46 293.701 560.994 294.192C561.538 294.672 562.194 294.912 562.962 294.912C563.591 294.912 564.114 294.768 564.53 294.48C564.956 294.181 565.255 293.787 565.426 293.296H566.994C566.759 294.139 566.29 294.827 565.586 295.36C564.882 295.883 564.007 296.144 562.962 296.144C562.13 296.144 561.383 295.957 560.722 295.584C560.071 295.211 559.559 294.683 559.186 294C558.812 293.307 558.626 292.507 558.626 291.6C558.626 290.693 558.807 289.899 559.17 289.216C559.532 288.533 560.039 288.011 560.69 287.648C561.351 287.275 562.108 287.088 562.962 287.088C563.794 287.088 564.53 287.269 565.17 287.632C565.81 287.995 566.3 288.496 566.642 289.136C566.994 289.765 567.17 290.48 567.17 291.28ZM565.666 290.976C565.666 290.421 565.543 289.947 565.298 289.552C565.052 289.147 564.716 288.843 564.29 288.64C563.874 288.427 563.41 288.32 562.898 288.32C562.162 288.32 561.532 288.555 561.01 289.024C560.498 289.493 560.204 290.144 560.13 290.976H565.666ZM572.195 296.144C571.523 296.144 570.921 296.032 570.387 295.808C569.854 295.573 569.433 295.253 569.123 294.848C568.814 294.432 568.643 293.957 568.611 293.424H570.115C570.158 293.861 570.361 294.219 570.723 294.496C571.097 294.773 571.582 294.912 572.179 294.912C572.734 294.912 573.171 294.789 573.491 294.544C573.811 294.299 573.971 293.989 573.971 293.616C573.971 293.232 573.801 292.949 573.459 292.768C573.118 292.576 572.59 292.389 571.875 292.208C571.225 292.037 570.691 291.867 570.275 291.696C569.87 291.515 569.518 291.253 569.219 290.912C568.931 290.56 568.787 290.101 568.787 289.536C568.787 289.088 568.921 288.677 569.187 288.304C569.454 287.931 569.833 287.637 570.323 287.424C570.814 287.2 571.374 287.088 572.003 287.088C572.974 287.088 573.758 287.333 574.355 287.824C574.953 288.315 575.273 288.987 575.315 289.84H573.859C573.827 289.381 573.641 289.013 573.299 288.736C572.969 288.459 572.521 288.32 571.955 288.32C571.433 288.32 571.017 288.432 570.707 288.656C570.398 288.88 570.243 289.173 570.243 289.536C570.243 289.824 570.334 290.064 570.515 290.256C570.707 290.437 570.942 290.587 571.219 290.704C571.507 290.811 571.902 290.933 572.403 291.072C573.033 291.243 573.545 291.413 573.939 291.584C574.334 291.744 574.67 291.989 574.947 292.32C575.235 292.651 575.385 293.083 575.395 293.616C575.395 294.096 575.262 294.528 574.995 294.912C574.729 295.296 574.35 295.6 573.859 295.824C573.379 296.037 572.825 296.144 572.195 296.144ZM579.227 288.432V293.6C579.227 294.027 579.317 294.331 579.499 294.512C579.68 294.683 579.995 294.768 580.443 294.768H581.515V296H580.203C579.392 296 578.784 295.813 578.379 295.44C577.973 295.067 577.771 294.453 577.771 293.6V288.432H576.635V287.232H577.771V285.024H579.227V287.232H581.515V288.432H579.227ZM583.743 296.096C583.466 296.096 583.231 296 583.039 295.808C582.847 295.616 582.751 295.381 582.751 295.104C582.751 294.827 582.847 294.592 583.039 294.4C583.231 294.208 583.466 294.112 583.743 294.112C584.01 294.112 584.234 294.208 584.415 294.4C584.607 294.592 584.703 294.827 584.703 295.104C584.703 295.381 584.607 295.616 584.415 295.808C584.234 296 584.01 296.096 583.743 296.096Z" fill="#656668"/>
<path d="M222.182 423.317C344.89 423.317 444.365 417.509 444.365 410.345C444.365 403.181 344.89 397.373 222.182 397.373C99.4744 397.373 0 403.181 0 410.345C0 417.509 99.4744 423.317 222.182 423.317Z" fill="#EDEEF8"/>
<path d="M311.976 89.1896C307.599 86.4508 295.028 89.1666 297.125 102.975C299.211 116.795 283.019 113.197 286.548 129.205C290.078 145.214 318.714 168.969 336.35 152.834C353.986 136.699 339.123 129.583 339.455 110.435C339.639 99.0445 334.471 78.67 311.976 89.1896Z" fill="#263238"/>
<path d="M337.966 152.135C337.886 152.135 337.817 152.101 337.76 152.043C337.645 151.929 337.645 151.746 337.76 151.631C348.623 140.836 346.114 134.259 342.94 125.939C341.186 121.344 339.192 116.13 339.032 109.358C338.86 102.058 336.19 92.066 329.234 87.9636C324.307 85.053 317.981 85.5457 310.441 89.4648C310.292 89.5335 310.12 89.4877 310.04 89.3387C309.96 89.1898 310.017 89.0179 310.166 88.9377C317.901 84.9269 324.41 84.4342 329.532 87.4594C336.694 91.6993 339.445 101.898 339.616 109.346C339.777 116.016 341.748 121.184 343.49 125.733C346.744 134.259 349.311 140.985 338.173 152.055C338.115 152.101 338.035 152.135 337.966 152.135Z" fill="#263238"/>
<path d="M340.465 150.565C340.453 150.531 340.648 150.829 340.774 151.001L341.244 151.62C341.576 152.044 341.931 152.468 342.309 152.892C343.066 153.74 343.879 154.553 344.762 155.344C346.481 156.937 348.394 158.403 350.446 159.71C352.508 160.982 354.628 162.231 356.897 163.251C357.997 163.812 359.177 164.248 360.312 164.763C360.53 164.855 360.335 164.798 360.174 164.855C359.991 164.901 359.899 165.027 360.025 164.958C360.266 164.844 360.873 164.11 361.332 163.205C361.813 162.288 362.226 161.199 362.627 160.076C363.406 157.796 363.967 155.298 364.495 152.788C365.01 150.267 365.411 147.678 365.766 145.076C366.156 142.487 366.443 139.84 366.729 137.261L371.393 137.284C371.783 142.785 371.748 148.193 371.278 153.74C371.049 156.513 370.66 159.297 369.983 162.162C369.64 163.594 369.193 165.05 368.551 166.562C367.875 168.064 367.096 169.702 365.285 171.318C364.391 172.109 363.062 172.854 361.561 173.117C360.071 173.404 358.513 173.14 357.481 172.762C356.141 172.281 354.766 171.879 353.436 171.329C350.766 170.287 348.154 169.026 345.633 167.559C343.123 166.058 340.705 164.351 338.448 162.38C337.325 161.383 336.259 160.306 335.239 159.16C334.724 158.587 334.231 157.979 333.749 157.349L333.039 156.341C332.787 155.963 332.615 155.699 332.26 155.08L340.465 150.565Z" fill="#FFC3BD"/>
<path d="M338.895 146.326C349.609 153.167 348.738 157.384 348.738 157.384L342.012 167.136C342.012 167.136 324.846 160.249 323.757 154.863C322.623 149.236 333.692 143.003 338.895 146.326Z" fill="#F37884"/>
<path d="M349.323 156.41C349.735 156.696 349.838 157.269 349.552 157.693L342.653 167.56C342.367 167.972 341.794 168.075 341.37 167.789C340.957 167.502 340.854 166.929 341.141 166.505L348.039 156.639C348.337 156.226 348.91 156.123 349.323 156.41Z" fill="#6654A4"/>
<path d="M367.52 139.507L362.203 132.402L372.402 129.767C372.402 129.767 374.476 136.092 371.084 140.733L367.52 139.507Z" fill="#FFC3BD"/>
<path d="M362.49 123.671L370.981 122.238L372.402 129.778L362.203 132.403L362.49 123.671Z" fill="#FFC3BD"/>
<path d="M276.086 400.444L285.804 401.373L292.76 378.534L283.031 377.595L276.086 400.444Z" fill="#FFC3BD"/>
<path d="M214.264 366.674L221.472 373.435L237.034 356.338L229.826 349.577L214.264 366.674Z" fill="#FFC3BD"/>
<path d="M224.807 370.192L219.387 360.429C219.192 360.074 218.779 359.925 218.413 360.062L210.07 363.237C209.211 363.569 208.833 364.68 209.302 365.483C211.251 368.852 212.362 370.376 214.746 374.673C216.212 377.308 219.066 383.37 221.083 387.014C223.065 390.578 226.824 388.859 226.308 387.152C223.993 379.532 224.429 375.292 225.082 371.923C225.196 371.338 225.093 370.719 224.807 370.192Z" fill="#263238"/>
<path d="M286.962 398.416H275.182C274.758 398.416 274.369 398.714 274.254 399.138L271.687 408.466C271.424 409.428 272.134 410.322 273.12 410.334C277.268 410.368 279.239 410.357 284.418 410.357C287.604 410.357 295.855 410.357 300.255 410.357C304.564 410.357 305.457 406.002 303.681 405.612C295.694 403.848 291.088 401.407 288.624 399.081C288.188 398.634 287.593 398.416 286.962 398.416Z" fill="#263238"/>
<path opacity="0.2" d="M292.749 378.546L289.174 390.315H279.158L283.031 377.606L292.749 378.546Z" fill="black"/>
<path opacity="0.2" d="M229.826 349.577L237.034 356.349L229.013 365.161L221.805 358.389L229.826 349.577Z" fill="black"/>
<path d="M338.895 146.326C338.895 146.326 342.791 148.984 318.096 202.625C302.672 198.35 286.721 193.939 279.215 191.864C284.246 176.223 286.973 166.471 288.394 131.898C288.394 131.898 297.034 132.38 305.503 134.293C312.138 135.795 317.558 137.067 323.161 139.186C330.564 141.96 338.895 146.326 338.895 146.326Z" fill="#F05665"/>
<path opacity="0.1" d="M338.895 146.326C338.895 146.326 342.791 148.984 318.096 202.625C302.672 198.35 286.721 193.939 279.215 191.864C284.246 176.223 286.973 166.471 288.394 131.898C288.394 131.898 297.034 132.38 305.503 134.293C312.138 135.795 317.558 137.067 323.161 139.186C330.564 141.96 338.895 146.326 338.895 146.326Z" fill="white"/>
<path d="M312.768 114.881C312.31 120.874 310.533 131.588 305.514 134.281C305.514 134.281 302.592 144.216 315.278 147.872C326.003 150.954 323.173 139.174 323.173 139.174C317.26 135.908 320.915 130.122 321.993 123.647L312.768 114.881Z" fill="#FFC3BD"/>
<path opacity="0.2" d="M312.756 114.893C312.389 119.705 311.175 127.578 308.104 131.875C311.679 132.23 317.317 131.13 318.921 128.472C319.345 127.784 320.181 125.171 320.903 122.616L312.756 114.893Z" fill="black"/>
<path d="M328.489 106.206C328.466 116.061 328.661 120.244 323.997 125.572C316.984 133.594 304.872 131.405 301.95 121.734C299.326 113.036 299.807 98.3682 309.192 93.8992C318.451 89.4874 328.512 96.3514 328.489 106.206Z" fill="#FFC3BD"/>
<path d="M308.104 100.74C313.639 108.475 332.26 119.224 333.509 108.865C334.758 98.5059 325.247 88.2728 315.839 89.2583C306.419 90.2438 303.394 94.1628 308.104 100.74Z" fill="#263238"/>
<path d="M332.569 115.409C331.687 117.253 330.025 118.514 328.432 119.041C326.037 119.832 324.719 117.723 325.281 115.397C325.785 113.3 327.653 110.366 330.105 110.584C332.535 110.79 333.589 113.311 332.569 115.409Z" fill="#FFC3BD"/>
<path d="M318.096 202.624C318.096 202.624 331.939 258.694 322.863 301.116C316.778 329.524 294.857 386.911 294.857 386.911L277.714 386.476C277.714 386.476 294.318 326.258 297.745 302.572C303.612 262.063 289.631 194.752 289.631 194.752L318.096 202.624Z" fill="#6654A4"/>
<path opacity="0.2" d="M302.661 210.68L294.089 224.202C296.267 238.217 298.444 255.761 298.994 272.629C311.049 251.051 305.342 222.105 302.661 210.68Z" fill="black"/>
<path d="M297.916 387.793L276.086 387.255L277.553 379.485L299.509 381.135L297.916 387.793Z" fill="#263238"/>
<path d="M309.571 200.39C309.571 200.39 301.572 261.697 284.269 296.533C270.3 324.665 233.023 364.715 233.023 364.715L223.489 354.894C223.489 354.894 248.665 311.372 259.047 292.682C284.51 246.857 261.935 205.764 279.204 191.864L309.571 200.39Z" fill="#6654A4"/>
<path d="M233.997 366.032L221.701 354.035L225.781 348.488L239.188 362.342L233.997 366.032Z" fill="#263238"/>
<path d="M279.262 189.412L276.546 192.403C276.34 192.632 276.58 192.999 277.027 193.125L317.81 204.412C318.166 204.504 318.498 204.424 318.578 204.206L319.896 200.825C319.988 200.596 319.736 200.298 319.357 200.195L279.984 189.297C279.686 189.217 279.399 189.263 279.262 189.412Z" fill="#407BFF"/>
<path opacity="0.5" d="M279.262 189.412L276.546 192.403C276.34 192.632 276.58 192.999 277.027 193.125L317.81 204.412C318.166 204.504 318.498 204.424 318.578 204.206L319.896 200.825C319.988 200.596 319.736 200.298 319.357 200.195L279.984 189.297C279.686 189.217 279.399 189.263 279.262 189.412Z" fill="white"/>
<path d="M283.329 195.279L282.275 194.992C282.068 194.935 281.931 194.786 281.988 194.649L283.73 190.26C283.776 190.134 283.994 190.076 284.2 190.134L285.254 190.42C285.46 190.477 285.598 190.626 285.54 190.764L283.799 195.153C283.753 195.279 283.547 195.336 283.329 195.279Z" fill="#407BFF"/>
<path d="M314.739 203.977L313.684 203.69C313.478 203.633 313.341 203.484 313.398 203.346L315.14 198.957C315.185 198.831 315.403 198.774 315.609 198.831L316.664 199.118C316.87 199.175 317.008 199.324 316.95 199.462L315.208 203.85C315.163 203.977 314.945 204.034 314.739 203.977Z" fill="#6654A4"/>
<path d="M299.04 199.633L297.986 199.347C297.779 199.29 297.642 199.141 297.699 199.003L299.441 194.614C299.487 194.488 299.704 194.431 299.911 194.488L300.965 194.775C301.171 194.832 301.309 194.981 301.252 195.118L299.51 199.507C299.464 199.633 299.246 199.691 299.04 199.633Z" fill="#407BFF"/>
<path d="M313.753 109.828C313.799 110.63 313.41 111.307 312.894 111.329C312.367 111.364 311.908 110.734 311.863 109.931C311.817 109.129 312.206 108.453 312.722 108.43C313.238 108.407 313.707 109.026 313.753 109.828Z" fill="#263238"/>
<path d="M304.712 110.355C304.758 111.157 304.369 111.833 303.853 111.856C303.326 111.89 302.867 111.26 302.822 110.458C302.776 109.656 303.165 108.98 303.681 108.957C304.197 108.934 304.666 109.564 304.712 110.355Z" fill="#263238"/>
<path d="M303.91 108.991L301.95 108.556C301.962 108.556 303.027 110 303.91 108.991Z" fill="#263238"/>
<path d="M307.175 111.593C307.175 111.593 306.018 115.111 304.62 116.864C305.731 117.792 307.507 117.231 307.507 117.231L307.175 111.593Z" fill="#ED847E"/>
<path d="M311.965 119.958C311.518 120.073 311.037 120.153 310.51 120.187C310.407 120.199 310.315 120.107 310.304 120.004C310.292 119.901 310.384 119.798 310.487 119.798C314.016 119.591 315.529 117.024 315.541 117.002C315.598 116.91 315.712 116.876 315.804 116.933C315.896 116.99 315.93 117.105 315.873 117.196C315.827 117.277 314.658 119.259 311.965 119.958Z" fill="#263238"/>
<path d="M316.744 103.984C316.618 104.018 316.469 103.984 316.377 103.881C314.865 102.391 313.157 102.735 313.089 102.758C312.882 102.804 312.665 102.666 312.619 102.46C312.573 102.254 312.699 102.047 312.917 101.99C313.008 101.967 315.094 101.532 316.916 103.319C317.065 103.468 317.076 103.72 316.927 103.869C316.881 103.927 316.813 103.961 316.744 103.984Z" fill="#263238"/>
<path d="M300.769 105.141C300.643 105.198 300.494 105.187 300.38 105.095C300.208 104.969 300.173 104.717 300.299 104.545C301.823 102.482 303.955 102.597 304.047 102.597C304.264 102.608 304.425 102.792 304.413 103.009C304.402 103.227 304.218 103.388 304.001 103.376C303.932 103.376 302.202 103.307 300.93 105.003C300.872 105.072 300.826 105.118 300.769 105.141Z" fill="#263238"/>
<path d="M289.299 146.658C288.302 148.17 287.385 149.374 286.377 150.668C285.38 151.929 284.36 153.155 283.306 154.358C281.186 156.753 278.94 159.011 276.568 161.165C274.207 163.319 271.721 165.359 269.074 167.204C267.779 168.167 266.392 169.003 265.04 169.874L262.931 171.089L261.877 171.685C261.488 171.891 260.983 172.166 260.502 172.361C258.565 173.232 256.079 173.679 253.718 173.255C251.346 172.842 249.364 171.708 247.828 170.459C246.27 169.198 245.112 167.777 244.092 166.345C243.096 164.912 242.236 163.457 241.514 161.967C238.649 156.02 236.965 150.038 235.911 143.759L240.448 142.704C241.4 145.432 242.465 148.251 243.669 150.909C244.837 153.591 246.144 156.192 247.645 158.541C249.123 160.867 250.842 163.044 252.595 164.248C253.466 164.844 254.268 165.141 254.921 165.176C255.575 165.21 256.205 165.084 257.007 164.66C257.213 164.557 257.374 164.454 257.649 164.293L258.543 163.709L260.319 162.54C261.465 161.692 262.645 160.902 263.756 159.996C266.014 158.254 268.157 156.329 270.242 154.358C272.328 152.376 274.299 150.256 276.19 148.079C277.141 147.002 278.069 145.89 278.963 144.767C279.822 143.667 280.762 142.452 281.472 141.444L289.299 146.658Z" fill="#FFC3BD"/>
<path d="M241.4 146.944L242.408 136.252L232.805 140.183C232.805 140.183 233.951 145.557 237.607 147.482L241.4 146.944Z" fill="#FFC3BD"/>
<path d="M239.337 130.477L231.9 128.861L232.794 140.183L242.408 136.253L239.337 130.477Z" fill="#FFC3BD"/>
<path d="M288.394 131.887C283.386 131.841 271.319 151.001 271.319 151.001L279.845 159.824C279.845 159.824 295.853 149.007 296.507 142.601C297.068 137.158 294.765 131.944 288.394 131.887Z" fill="#F37884"/>
<path d="M280.636 160.214C280.281 160.581 279.696 160.581 279.341 160.226L270.747 151.792C270.38 151.436 270.38 150.852 270.735 150.497C271.09 150.13 271.675 150.13 272.03 150.485L280.624 158.919C280.991 159.263 280.991 159.847 280.636 160.214Z" fill="#6654A4"/>
<path d="M226.71 375.44C226.996 375.44 227.283 375.337 227.569 375.12C227.878 374.89 227.924 374.615 227.901 374.421C227.798 373.183 224.647 371.498 224.292 371.304C224.223 371.269 224.143 371.281 224.074 371.327C224.017 371.372 223.982 371.453 224.005 371.533C224.36 372.793 225.14 374.982 226.309 375.372C226.446 375.417 226.572 375.44 226.71 375.44ZM224.521 371.877C225.598 372.495 227.443 373.687 227.512 374.455C227.523 374.547 227.512 374.673 227.328 374.81C227.019 375.039 226.733 375.108 226.446 375.016C225.781 374.776 225.071 373.618 224.521 371.877Z" fill="#407BFF"/>
<path d="M227.191 372.369C227.786 372.369 228.302 372.266 228.6 372.014C228.76 371.877 228.99 371.579 228.783 371.052C228.646 370.708 228.394 370.479 228.05 370.352C226.709 369.871 224.211 371.246 224.108 371.304C224.051 371.338 224.005 371.407 224.005 371.476C224.005 371.544 224.039 371.613 224.097 371.647C224.704 372.014 226.079 372.369 227.191 372.369ZM227.385 370.639C227.58 370.639 227.763 370.662 227.924 370.719C228.165 370.799 228.336 370.96 228.428 371.189C228.554 371.498 228.451 371.624 228.359 371.705C227.775 372.197 225.712 371.922 224.647 371.464C225.22 371.189 226.457 370.639 227.385 370.639Z" fill="#407BFF"/>
<path d="M292.186 400.319C293.092 400.319 293.928 400.181 294.467 399.78C294.822 399.505 295.028 399.138 295.051 398.68C295.074 398.348 294.914 398.164 294.776 398.073C293.699 397.339 289.425 399.322 288.943 399.551C288.863 399.585 288.817 399.665 288.829 399.746C288.84 399.826 288.898 399.895 288.978 399.917C289.826 400.101 291.052 400.319 292.186 400.319ZM294.066 398.29C294.272 398.29 294.432 398.325 294.547 398.393C294.604 398.428 294.662 398.497 294.65 398.657C294.627 399.001 294.49 399.264 294.226 399.471C293.264 400.204 290.914 399.895 289.642 399.654C291.109 399.001 293.08 398.29 294.066 398.29Z" fill="#6654A4"/>
<path d="M289.013 399.917C289.036 399.917 289.059 399.917 289.082 399.905C290.365 399.378 293.07 397.213 292.921 396.135C292.886 395.906 292.726 395.62 292.153 395.551C289.85 395.287 288.864 399.493 288.818 399.676C288.807 399.745 288.83 399.825 288.887 399.871C288.921 399.894 288.967 399.917 289.013 399.917ZM291.947 395.929C292.004 395.929 292.05 395.929 292.107 395.941C292.508 395.986 292.531 396.147 292.543 396.193C292.634 396.88 290.709 398.633 289.311 399.367C289.598 398.381 290.468 395.929 291.947 395.929Z" fill="#6654A4"/>
<path d="M312.951 108.464L311.003 108.028C311.003 108.028 312.069 109.472 312.951 108.464Z" fill="#263238"/>
<path d="M110.467 405.154L240.07 393.833C248.837 393.065 255.38 385.273 254.612 376.506L227.603 67.3486C226.835 58.5823 219.043 52.0391 210.276 52.8068L80.6728 64.1285C71.9065 64.8963 65.3633 72.6885 66.1311 81.4548L93.1404 390.613C93.8967 399.367 101.7 405.922 110.467 405.154Z" fill="#6654A4"/>
<path d="M75.848 172.739C78.3461 172.521 80.2025 170.298 79.9847 167.811L76.4209 126.982C76.2032 124.484 73.9801 122.628 71.4935 122.845C68.9954 123.063 67.139 125.286 67.3567 127.773L70.9205 168.602C71.1382 171.089 73.3499 172.957 75.848 172.739Z" fill="#6654A4"/>
<path d="M234.123 140.516L235.716 140.378C237.572 140.218 238.948 138.568 238.787 136.723L236.61 111.81C236.449 109.954 234.799 108.579 232.954 108.739L231.362 108.877C229.505 109.037 228.13 110.687 228.291 112.532L230.468 137.445C230.628 139.301 232.278 140.676 234.123 140.516Z" fill="#263238"/>
<path d="M237.779 182.364L239.371 182.227C241.228 182.066 242.603 180.416 242.442 178.571L240.265 153.659C240.105 151.803 238.455 150.427 236.61 150.588L235.017 150.725C233.161 150.886 231.785 152.536 231.946 154.381L234.123 179.293C234.284 181.138 235.934 182.525 237.779 182.364Z" fill="#263238"/>
<path d="M113.193 404.914L242.797 393.592C251.563 392.824 258.107 385.032 257.339 376.266L230.318 67.1078C229.55 58.3416 221.758 51.7983 212.992 52.5661L83.3881 63.8878C74.6218 64.6556 68.0786 72.4478 68.8464 81.2141L95.8557 390.372C96.6235 399.138 104.427 405.681 113.193 404.914Z" fill="#263238"/>
<path opacity="0.4" d="M100.428 385.639L252.01 372.392C253.66 372.243 254.875 370.799 254.738 369.149L229.046 75.0948C228.897 73.4447 227.453 72.23 225.803 72.3675L74.2208 85.6144C72.5707 85.7633 71.356 87.2072 71.4935 88.8573L97.185 382.912C97.334 384.573 98.7779 385.788 100.428 385.639Z" fill="#6654A4"/>
<path opacity="0.3" d="M205.785 74.1323L186.739 378.099L155.055 380.872L174.111 76.894L205.785 74.1323Z" fill="#6654A4"/>
<path opacity="0.2" d="M165.034 64.369L132.662 67.1994C131.917 67.2682 131.356 67.9328 131.425 68.6776L131.539 69.9955C131.608 70.7403 132.273 71.3018 133.017 71.233L165.39 68.4026C166.135 68.3339 166.696 67.6692 166.627 66.9244L166.513 65.6066C166.444 64.8617 165.779 64.3002 165.034 64.369Z" fill="white"/>
<path d="M134.864 182.169H292.554C301.057 182.169 308.024 189.125 308.024 197.639V274.977C308.024 283.48 301.068 290.447 292.554 290.447H237.997L213.703 314.729L189.421 290.447H134.864C126.361 290.447 119.394 283.492 119.394 274.977V197.639C119.394 189.125 126.35 182.169 134.864 182.169Z" fill="#6654A4"/>
<path opacity="0.3" d="M134.864 182.169H292.554C301.057 182.169 308.024 189.125 308.024 197.639V274.977C308.024 283.48 301.068 290.447 292.554 290.447H237.997L213.703 314.729L189.421 290.447H134.864C126.361 290.447 119.394 283.492 119.394 274.977V197.639C119.394 189.125 126.35 182.169 134.864 182.169Z" fill="white"/>
<path d="M144.97 208.972V263.633C144.97 268.079 148.534 271.723 152.877 271.723H274.528C278.882 271.723 282.435 268.079 282.435 263.633V208.972C282.435 207.907 282.229 206.887 281.85 205.959C280.682 202.991 277.828 200.894 274.516 200.894H152.877C149.577 200.894 146.723 203.002 145.543 205.959C145.176 206.887 144.97 207.895 144.97 208.972Z" fill="white"/>
<path opacity="0.1" d="M145.555 205.948L204.363 231.559C210.334 234.16 217.083 234.16 223.053 231.559L281.862 205.948C280.693 202.98 277.84 200.883 274.528 200.883H152.877C149.577 200.883 146.724 202.991 145.555 205.948Z" fill="black"/>
<path d="M148.187 205.662C157.37 196.479 157.37 181.591 148.187 172.408C139.005 163.225 124.116 163.225 114.934 172.408C105.751 181.591 105.751 196.479 114.934 205.662C124.116 214.844 139.005 214.844 148.187 205.662Z" fill="#F05665"/>
<path d="M136.101 203.369H130.624V182.742C128.618 184.61 126.269 185.997 123.553 186.891V181.917C124.986 181.447 126.533 180.565 128.206 179.259C129.879 177.952 131.025 176.428 131.655 174.687H136.101V203.369Z" fill="white"/>
<path d="M263.859 43.2842C262.198 43.2842 260.742 42.0695 260.49 40.385C257.259 18.8875 237.148 4.03643 215.651 7.26792C213.783 7.5544 212.052 6.27097 211.766 4.40313C211.491 2.53528 212.763 0.804933 214.631 0.518453C239.841 -3.27454 263.435 14.1549 267.24 39.3651C267.515 41.233 266.243 42.9633 264.375 43.2498C264.192 43.2727 264.02 43.2842 263.859 43.2842Z" fill="#6654A4"/>
<path d="M246.912 45.8283C245.25 45.8283 243.795 44.6136 243.543 42.9291C241.709 30.7824 230.342 22.3828 218.183 24.2048C216.327 24.4913 214.585 23.2078 214.299 21.34C214.012 19.4721 215.296 17.7418 217.164 17.4553C233.035 15.0718 247.886 26.0383 250.281 41.9093C250.567 43.7771 249.284 45.5075 247.416 45.7939C247.255 45.8169 247.084 45.8283 246.912 45.8283Z" fill="#6654A4"/>
<path d="M229.975 48.384C228.313 48.384 226.858 47.1693 226.606 45.4848C226.399 44.1212 225.677 42.918 224.566 42.1044C223.454 41.2908 222.102 40.947 220.738 41.1533C218.882 41.4283 217.14 40.1563 216.854 38.2885C216.579 36.4206 217.851 34.6903 219.719 34.4038C222.881 33.9225 226.044 34.7132 228.611 36.6154C231.189 38.5177 232.862 41.3022 233.344 44.465C233.619 46.3328 232.347 48.0632 230.479 48.3496C230.318 48.3726 230.146 48.384 229.975 48.384Z" fill="#6654A4"/>
</svg>
