<svg width="416" height="34" viewBox="0 0 416 34" fill="none" xmlns="http://www.w3.org/2000/svg">
<path d="M12.4 9.256C12.4 11.752 10.96 13.544 7.664 13.544H3.376V5.096H7.664C10.992 5.096 12.4 6.728 12.4 9.256ZM0.464 2.696V25H3.376V15.88H6.896L12.208 25H15.696L10.096 15.656C13.84 14.824 15.408 12.104 15.408 9.256C15.408 5.608 12.912 2.696 7.664 2.696H0.464ZM27.3888 9.64C30.3968 9.64 32.9568 11.528 32.9248 14.952H21.8528C22.1727 11.528 24.5408 9.64 27.3888 9.64ZM35.5808 19.592H32.4448C31.8048 21.48 30.1408 22.824 27.5168 22.824C24.5408 22.824 22.0448 20.872 21.8208 17.32H35.8368C35.9008 16.712 35.9328 16.2 35.9328 15.56C35.9328 10.76 32.6048 7.176 27.5168 7.176C22.3968 7.176 18.8448 10.664 18.8448 16.2C18.8448 21.768 22.5248 25.288 27.5168 25.288C31.8688 25.288 34.6848 22.792 35.5808 19.592ZM38.6885 16.168C38.6885 21.608 42.3045 25.288 46.9445 25.288C50.2085 25.288 52.5445 23.56 53.5365 21.768V33.32H56.4805V7.464H53.5365V10.664C52.5445 8.84 50.2405 7.176 47.0405 7.176C42.3045 7.176 38.6885 10.696 38.6885 16.168ZM53.5365 16.2C53.5365 20.328 50.7845 22.728 47.5845 22.728C44.3845 22.728 41.6645 20.296 41.6645 16.168C41.6645 12.04 44.3845 9.704 47.5845 9.704C50.7845 9.704 53.5365 12.136 53.5365 16.2ZM76.9535 7.464H74.0415V17.096C74.0415 20.872 72.0255 22.728 69.0175 22.728C66.0735 22.728 64.1215 20.904 64.1215 17.352V7.464H61.2415V17.736C61.2415 22.76 64.4095 25.256 68.4415 25.256C70.7775 25.256 72.9215 24.232 74.0415 22.408V25H76.9535V7.464ZM89.3263 9.64C92.3343 9.64 94.8943 11.528 94.8623 14.952H83.7903C84.1102 11.528 86.4783 9.64 89.3263 9.64ZM97.5183 19.592H94.3823C93.7423 21.48 92.0783 22.824 89.4543 22.824C86.4783 22.824 83.9823 20.872 83.7583 17.32H97.7743C97.8383 16.712 97.8703 16.2 97.8703 15.56C97.8703 10.76 94.5423 7.176 89.4543 7.176C84.3343 7.176 80.7823 10.664 80.7823 16.2C80.7823 21.768 84.4623 25.288 89.4543 25.288C93.8063 25.288 96.6223 22.792 97.5183 19.592ZM114.322 20.232C114.194 13.96 104.018 16.232 104.018 12.072C104.018 10.664 105.298 9.64 107.442 9.64C109.778 9.64 111.122 10.92 111.25 12.68H114.162C113.97 9.256 111.41 7.176 107.538 7.176C103.634 7.176 101.106 9.384 101.106 12.072C101.106 18.6 111.474 16.328 111.474 20.232C111.474 21.672 110.194 22.824 107.89 22.824C105.426 22.824 103.922 21.544 103.762 19.848H100.754C100.946 23.048 103.826 25.288 107.922 25.288C111.794 25.288 114.322 23.112 114.322 20.232ZM119.073 20.2C119.073 23.72 120.833 25 123.937 25H126.561V22.536H124.417C122.625 22.536 121.985 21.928 121.985 20.2V9.864H126.561V7.464H121.985V3.048H119.073V7.464H116.801V9.864H119.073V20.2ZM139.26 20.2C139.26 23.72 141.02 25 144.124 25H146.748V22.536H144.604C142.812 22.536 142.172 21.928 142.172 20.2V9.864H146.748V7.464H142.172V3.048H139.26V7.464H136.988V9.864H139.26V20.2ZM166.917 16.2C166.917 10.664 163.045 7.176 158.053 7.176C153.093 7.176 149.189 10.664 149.189 16.2C149.189 21.768 152.965 25.288 157.925 25.288C162.917 25.288 166.917 21.768 166.917 16.2ZM152.165 16.2C152.165 11.784 154.949 9.704 158.021 9.704C161.029 9.704 163.941 11.784 163.941 16.2C163.941 20.648 160.965 22.728 157.925 22.728C154.885 22.728 152.165 20.648 152.165 16.2ZM191.213 9.256C191.213 11.752 189.773 13.544 186.477 13.544H182.189V5.096H186.477C189.805 5.096 191.213 6.728 191.213 9.256ZM179.277 2.696V25H182.189V15.88H185.709L191.021 25H194.509L188.909 15.656C192.653 14.824 194.221 12.104 194.221 9.256C194.221 5.608 191.725 2.696 186.477 2.696H179.277ZM206.201 9.64C209.209 9.64 211.769 11.528 211.737 14.952H200.665C200.985 11.528 203.353 9.64 206.201 9.64ZM214.393 19.592H211.257C210.617 21.48 208.953 22.824 206.329 22.824C203.353 22.824 200.857 20.872 200.633 17.32H214.649C214.713 16.712 214.745 16.2 214.745 15.56C214.745 10.76 211.417 7.176 206.329 7.176C201.209 7.176 197.657 10.664 197.657 16.2C197.657 21.768 201.337 25.288 206.329 25.288C210.681 25.288 213.497 22.792 214.393 19.592ZM217.501 16.2C217.501 21.768 221.053 25.288 226.045 25.288C230.397 25.288 233.245 22.856 234.141 19.368H231.005C230.365 21.576 228.637 22.824 226.045 22.824C222.845 22.824 220.477 20.552 220.477 16.2C220.477 11.912 222.845 9.64 226.045 9.64C228.637 9.64 230.397 10.984 231.005 13.096H234.141C233.245 9.416 230.397 7.176 226.045 7.176C221.053 7.176 217.501 10.696 217.501 16.2ZM245.483 9.64C248.491 9.64 251.051 11.528 251.019 14.952H239.947C240.266 11.528 242.635 9.64 245.483 9.64ZM253.675 19.592H250.539C249.899 21.48 248.235 22.824 245.611 22.824C242.635 22.824 240.139 20.872 239.915 17.32H253.931C253.995 16.712 254.027 16.2 254.027 15.56C254.027 10.76 250.699 7.176 245.611 7.176C240.491 7.176 236.939 10.664 236.939 16.2C236.939 21.768 240.619 25.288 245.611 25.288C249.963 25.288 252.779 22.792 253.675 19.592ZM257.87 25H260.782V7.464H257.87V25ZM259.374 4.616C260.43 4.616 261.294 3.752 261.294 2.632C261.294 1.512 260.43 0.647999 259.374 0.647999C258.254 0.647999 257.39 1.512 257.39 2.632C257.39 3.752 258.254 4.616 259.374 4.616ZM263.665 7.464L270.545 25H273.937L280.817 7.464H277.713L272.273 22.312L266.801 7.464H263.665ZM291.139 9.64C294.147 9.64 296.707 11.528 296.675 14.952H285.603C285.923 11.528 288.291 9.64 291.139 9.64ZM299.331 19.592H296.195C295.555 21.48 293.891 22.824 291.267 22.824C288.291 22.824 285.795 20.872 285.571 17.32H299.587C299.651 16.712 299.683 16.2 299.683 15.56C299.683 10.76 296.355 7.176 291.267 7.176C286.147 7.176 282.595 10.664 282.595 16.2C282.595 21.768 286.275 25.288 291.267 25.288C295.619 25.288 298.435 22.792 299.331 19.592ZM312.058 25H314.97V8.456L322.362 25H324.41L331.77 8.488V25H334.682V2.856H331.578L323.386 21.16L315.194 2.856H312.058V25ZM356.26 16.2C356.26 10.664 352.388 7.176 347.396 7.176C342.436 7.176 338.532 10.664 338.532 16.2C338.532 21.768 342.308 25.288 347.268 25.288C352.26 25.288 356.26 21.768 356.26 16.2ZM341.508 16.2C341.508 11.784 344.292 9.704 347.364 9.704C350.372 9.704 353.284 11.784 353.284 16.2C353.284 20.648 350.308 22.728 347.268 22.728C344.228 22.728 341.508 20.648 341.508 16.2ZM372.921 25H375.801V14.664C375.801 9.64 372.697 7.144 368.633 7.144C366.265 7.144 364.153 8.136 363.001 9.96V7.464H360.089V25H363.001V15.304C363.001 11.528 365.049 9.672 368.025 9.672C370.969 9.672 372.921 11.496 372.921 15.08V25ZM388.014 9.64C391.022 9.64 393.582 11.528 393.55 14.952H382.478C382.798 11.528 385.166 9.64 388.014 9.64ZM396.206 19.592H393.07C392.43 21.48 390.766 22.824 388.142 22.824C385.166 22.824 382.67 20.872 382.446 17.32H396.462C396.526 16.712 396.558 16.2 396.558 15.56C396.558 10.76 393.23 7.176 388.142 7.176C383.022 7.176 379.47 10.664 379.47 16.2C379.47 21.768 383.15 25.288 388.142 25.288C392.494 25.288 395.31 22.792 396.206 19.592ZM407.058 21.672L401.554 7.464H398.322L405.394 24.808L401.938 33.256H404.946L415.506 7.464H412.498L407.058 21.672Z" fill="#494B52"/>
</svg>
