<svg width="194" height="222" viewBox="0 0 194 222" fill="none" xmlns="http://www.w3.org/2000/svg">
<path d="M131.513 164.682H121.601V203.351H131.513V164.682Z" fill="#F05665"/>
<path d="M131.513 205.263H121.601V211.629H131.513V205.263Z" fill="#F05665"/>
<path d="M131.513 213.54H121.601V217.467H131.513V213.54Z" fill="#F05665"/>
<path d="M131.513 219.378H121.601V221.326H131.513V219.378Z" fill="#F05665"/>
<path d="M134.813 164.682H118.295L126.554 153.253L134.813 164.682Z" fill="#F05665"/>
<path d="M151.238 152.393H141.326V203.352H151.238V152.393Z" fill="#F05665"/>
<path d="M151.238 205.264H141.326V211.63H151.238V205.264Z" fill="#F05665"/>
<path d="M151.238 213.541H141.326V217.468H151.238V213.541Z" fill="#F05665"/>
<path d="M151.238 219.379H141.326V221.327H151.238V219.379Z" fill="#F05665"/>
<path d="M154.544 152.393H138.026L146.285 140.964L154.544 152.393Z" fill="#F05665"/>
<path d="M170.969 140.103H161.057V203.352H170.969V140.103Z" fill="#F05665"/>
<path d="M170.969 205.264H161.057V211.63H170.969V205.264Z" fill="#F05665"/>
<path d="M170.969 213.541H161.057V217.468H170.969V213.541Z" fill="#F05665"/>
<path d="M170.969 219.379H161.057V221.327H170.969V219.379Z" fill="#F05665"/>
<path d="M174.269 140.103H157.751L166.01 128.674L174.269 140.103Z" fill="#F05665"/>
<path d="M190.694 127.813H180.782V203.352H190.694V127.813Z" fill="#F05665"/>
<path d="M190.694 205.264H180.782V211.63H190.694V205.264Z" fill="#F05665"/>
<path d="M190.694 213.541H180.782V217.468H190.694V213.541Z" fill="#F05665"/>
<path d="M190.694 219.379H180.782V221.327H190.694V219.379Z" fill="#F05665"/>
<path d="M194 127.813H177.483L185.741 116.384L194 127.813Z" fill="#F05665"/>
<path opacity="0.6" d="M25.1695 195.297C25.1695 197.706 23.2154 199.654 20.8128 199.654C18.4101 199.654 16.4561 197.7 16.4561 195.297C16.4561 192.888 18.4101 190.94 20.8128 190.94C23.2154 190.94 25.1695 192.888 25.1695 195.297Z" fill="#F05665"/>
<path opacity="0.6" d="M30.4664 186.971C30.4664 188.145 29.5139 189.097 28.3402 189.097C27.1666 189.097 26.2141 188.145 26.2141 186.971C26.2141 185.797 27.1666 184.845 28.3402 184.845C29.52 184.851 30.4664 185.803 30.4664 186.971Z" fill="#F05665"/>
<path opacity="0.6" d="M123.727 193.189C123.727 194.362 122.775 195.315 121.601 195.315C120.427 195.315 119.475 194.362 119.475 193.189C119.475 192.015 120.427 191.062 121.601 191.062C122.775 191.062 123.727 192.015 123.727 193.189Z" fill="#F05665"/>
<path opacity="0.6" d="M166.268 212.582C166.268 213.756 165.315 214.708 164.142 214.708C162.968 214.708 162.016 213.756 162.016 212.582C162.016 211.409 162.968 210.456 164.142 210.456C165.315 210.456 166.268 211.409 166.268 212.582Z" fill="#F05665"/>
<path opacity="0.6" d="M163.011 218.795C163.011 220.19 161.874 221.326 160.48 221.326H2.53169C1.1368 221.326 0 220.19 0 218.795C0 217.4 1.1368 216.263 2.53169 216.263C2.74061 216.263 2.9434 216.288 3.13389 216.337C3.13389 213.578 5.37063 211.341 8.12968 211.341C9.52456 211.341 10.7904 211.919 11.6998 212.847L11.7429 212.828C11.7121 212.521 11.6998 212.207 11.6998 211.894C11.6998 206.689 15.9214 202.462 21.1322 202.462C22.6193 202.462 24.0265 202.806 25.28 203.426C25.4828 199.893 28.4078 197.091 31.9964 197.091C34.8599 197.091 37.2994 198.867 38.2703 201.38C39.9355 198.732 42.8912 196.974 46.2525 196.974C46.8731 196.974 47.4753 197.036 48.0529 197.146C47.9239 196.434 47.8624 195.696 47.8624 194.947C47.8624 187.898 53.5772 182.184 60.6253 182.184C63.8084 182.184 66.721 183.351 68.9516 185.281C69.3695 184.463 70.2236 183.91 71.2007 183.91C71.5448 183.91 71.8766 183.984 72.1716 184.101L74.5435 120.766H88.4555L90.8274 184.101C91.1285 183.978 91.4542 183.91 91.7983 183.91C92.7753 183.91 93.6295 184.47 94.0473 185.281C96.284 183.351 99.1906 182.184 102.374 182.184C109.422 182.184 115.137 187.898 115.137 194.947C115.137 195.696 115.069 196.434 114.946 197.146C115.53 197.036 116.132 196.974 116.746 196.974C120.108 196.974 123.063 198.732 124.729 201.38C125.7 198.867 128.145 197.091 131.003 197.091C134.591 197.091 137.516 199.893 137.719 203.426C138.972 202.806 140.38 202.462 141.867 202.462C147.078 202.462 151.299 206.683 151.299 211.894C151.299 212.207 151.287 212.515 151.256 212.828L151.299 212.847C152.209 211.919 153.474 211.341 154.869 211.341C157.628 211.341 159.865 213.578 159.865 216.337C160.056 216.294 160.258 216.263 160.467 216.263C161.874 216.263 163.011 217.394 163.011 218.795Z" fill="#F05665"/>
<path d="M122.965 197.945L119.677 198.547L118.946 202.013L118.215 198.547L114.927 197.939L118.197 197.14L118.946 193.871L119.696 197.14L122.965 197.945Z" fill="#FCFCFC"/>
<path d="M91.018 170.177L87.7305 170.785L86.9992 174.244L86.2618 170.785L82.9805 170.177L86.2495 169.372L86.9992 166.103L87.7489 169.372L91.018 170.177Z" fill="#FCFCFC"/>
<path d="M43.2846 204.539L41.4473 204.877L41.0356 206.812L40.63 204.877L38.7927 204.532L40.6178 204.09L41.0356 202.259L41.4534 204.09L43.2846 204.539Z" fill="#FCFCFC"/>
<path d="M142.063 210.309L140.226 210.647L139.814 212.582L139.409 210.647L137.572 210.309L139.397 209.86L139.814 208.035L140.238 209.86L142.063 210.309Z" fill="#FCFCFC"/>
<path d="M18.0168 217.092L16.1795 217.43L15.7739 219.366L15.3622 217.43L13.5249 217.092L15.3561 216.644L15.7739 214.812L16.1918 216.644L18.0168 217.092Z" fill="#FCFCFC"/>
<path d="M97.8754 215.483L96.0381 215.821L95.6264 217.756L95.2209 215.821L93.3835 215.483L95.2086 215.034L95.6264 213.203L96.0504 215.034L97.8754 215.483Z" fill="#FCFCFC"/>
<path d="M84.437 164.91L82.5997 165.248L82.1879 167.184L81.7762 165.248L79.9451 164.91L81.7701 164.462L82.1879 162.637L82.6058 164.462L84.437 164.91Z" fill="#FCFCFC"/>
<path d="M146.408 214.494C145.726 214.494 145.719 215.557 146.408 215.557C147.09 215.557 147.09 214.494 146.408 214.494Z" fill="#FCFCFC"/>
<path d="M77.3271 158.2C76.645 158.2 76.6389 159.263 77.3271 159.263C78.0153 159.263 78.0153 158.2 77.3271 158.2Z" fill="#FCFCFC"/>
<path d="M31.9289 217.093C31.2468 217.093 31.2407 218.156 31.9289 218.156C32.611 218.156 32.611 217.093 31.9289 217.093Z" fill="#FCFCFC"/>
<path d="M65.6579 209.773C64.9758 209.773 64.9697 210.836 65.6579 210.836C66.34 210.843 66.34 209.773 65.6579 209.773Z" fill="#FCFCFC"/>
<path d="M133.074 204.926C132.588 204.926 132.588 205.682 133.074 205.682C133.559 205.675 133.559 204.926 133.074 204.926Z" fill="#FCFCFC"/>
<path d="M86.5567 199.278C86.0713 199.278 86.0713 200.034 86.5567 200.034C87.0422 200.034 87.0422 199.278 86.5567 199.278Z" fill="#FCFCFC"/>
<path d="M52.5018 191.923C52.0163 191.923 52.0163 192.679 52.5018 192.679C52.9872 192.673 52.9872 191.923 52.5018 191.923Z" fill="#FCFCFC"/>
<path d="M110.761 193.459C109.446 193.459 109.446 195.499 110.761 195.499C112.076 195.499 112.076 193.459 110.761 193.459Z" fill="#FCFCFC"/>
<path d="M57.3256 188.464C56.0106 188.464 56.0106 190.504 57.3256 190.504C58.6406 190.504 58.6406 188.464 57.3256 188.464Z" fill="#FCFCFC"/>
<path d="M57.8294 70.6855C57.3316 70.6855 38.768 79.2515 37.668 100.347C36.6603 119.746 50.0684 138.162 51.8012 136.946C53.9212 135.453 50.3142 123.366 54.4374 109.546C55.8999 104.642 62.2905 100.292 62.2905 100.292L57.8294 70.6855Z" fill="#F05665"/>
<path opacity="0.1" d="M62.2905 100.291C62.2905 100.291 59.5192 102.177 57.2087 104.868C54.4435 98.7052 49.3002 87.202 45.9697 79.7421C51.4079 73.4559 57.5405 70.6846 57.8232 70.6846L62.2905 100.291Z" fill="black"/>
<path d="M105.066 70.7207C105.563 70.7207 124.115 79.3174 125.184 100.413C126.167 119.812 112.728 138.21 111.002 136.987C108.888 135.488 112.507 123.413 108.408 109.581C106.952 104.677 100.568 100.314 100.568 100.314L105.066 70.7207Z" fill="#F05665"/>
<path opacity="0.1" d="M116.974 79.8707C113.613 87.3859 108.451 98.9137 105.723 105.003C103.4 102.256 100.561 100.315 100.561 100.315L105.065 70.7148C105.348 70.7148 111.536 73.5231 116.974 79.8707Z" fill="black"/>
<path d="M95.4789 119.223L67.4705 119.204C67.4705 119.204 54.2775 95.6143 55.8383 67.483C56.6248 53.442 60.2933 39.3088 64.7115 27.6089C70.7888 11.454 78.3039 -0.0061424 81.5607 2.46994e-06C84.8298 2.46994e-06 92.3143 11.4725 98.3854 27.6335C102.773 39.3333 106.423 53.4788 107.191 67.5199C108.709 95.645 95.4789 119.223 95.4789 119.223Z" fill="#EBEBEB"/>
<path d="M98.2811 63.8759C98.275 72.7982 91.0363 80.0185 82.1201 80.0123C73.1977 80.0062 65.9775 72.7675 65.9836 63.8513C65.9898 54.9289 73.2284 47.7087 82.1447 47.7148C91.0609 47.721 98.2873 54.9597 98.2811 63.8759Z" fill="#C7C7C7"/>
<path d="M97.7096 62.2362C97.7034 71.1586 90.4648 78.3788 81.5485 78.3727C72.6262 78.3665 65.406 71.1279 65.4121 62.2116C65.4183 53.2893 72.6569 46.0691 81.5731 46.0752C90.4893 46.0752 97.7157 53.3139 97.7096 62.2362Z" fill="#F05665"/>
<path d="M92.757 62.2236C92.757 68.4115 87.7428 73.4257 81.5549 73.4257C75.367 73.4257 70.3528 68.4115 70.3528 62.2236C70.3528 56.0357 75.367 51.0215 81.5549 51.0215C87.7428 51.0215 92.757 56.0357 92.757 62.2236Z" fill="white"/>
<path d="M92.763 62.2165C92.763 63.6482 92.4988 65.0185 92.0072 66.2721L85.6227 72.6566C84.3691 73.1482 82.9927 73.4124 81.5671 73.4124C80.5286 73.4124 79.5208 73.265 78.5684 73.0007L92.3513 59.2178C92.6155 60.1764 92.763 61.178 92.763 62.2165Z" fill="#EBEBEB"/>
<path d="M83.2017 51.1437L70.4757 63.8697C70.3958 63.3351 70.3528 62.7821 70.3528 62.229C70.3528 56.0412 75.367 51.0269 81.5549 51.0269C82.1141 51.0208 82.6671 51.0638 83.2017 51.1437Z" fill="#EBEBEB"/>
<path d="M91.3619 56.7978L76.141 72.0186C75.8461 71.8589 75.5634 71.6868 75.2808 71.4902L90.8334 55.9375C91.0178 56.214 91.1898 56.5028 91.3619 56.7978Z" fill="#EBEBEB"/>
<path d="M98.3855 27.6335L64.7178 27.6089C70.7951 11.454 78.3102 -0.0061424 81.567 2.46994e-06C84.8361 2.46994e-06 92.3206 11.4663 98.3855 27.6335Z" fill="#F05665"/>
<path d="M70.5122 24.1377C70.5122 24.66 70.0882 25.0779 69.5659 25.0779C69.0436 25.0779 68.6257 24.6539 68.6257 24.1316C68.6257 23.6093 69.0497 23.1914 69.572 23.1914C70.0944 23.1914 70.5184 23.6154 70.5122 24.1377Z" fill="white"/>
<path d="M76.5034 24.1367C76.5034 24.6591 76.0794 25.0769 75.5571 25.0769C75.0348 25.0769 74.6169 24.6529 74.6169 24.1306C74.6169 23.6083 75.0409 23.1904 75.5633 23.1904C76.0856 23.1966 76.5034 23.6206 76.5034 24.1367Z" fill="white"/>
<path d="M82.4946 24.1426C82.4946 24.6649 82.0706 25.0828 81.5483 25.0828C81.026 25.0828 80.6082 24.6588 80.6082 24.1365C80.6082 23.6141 81.0322 23.1963 81.5545 23.1963C82.0706 23.2024 82.4946 23.6203 82.4946 24.1426Z" fill="white"/>
<path d="M88.4858 24.1494C88.4858 24.6717 88.0618 25.0896 87.5395 25.0896C87.0172 25.0896 86.5994 24.6656 86.5994 24.1433C86.5994 23.621 87.0234 23.2031 87.5457 23.2031C88.0619 23.2031 88.4858 23.6271 88.4858 24.1494Z" fill="white"/>
<path d="M94.471 24.1494C94.471 24.6717 94.047 25.0896 93.5246 25.0896C93.0023 25.0896 92.5845 24.6656 92.5845 24.1433C92.5845 23.621 93.0085 23.2031 93.5308 23.2031C94.0531 23.2093 94.471 23.6333 94.471 24.1494Z" fill="white"/>
<path d="M70.4756 114.897C70.4756 115.42 70.0516 115.838 69.5293 115.838C69.007 115.838 68.5891 115.414 68.5891 114.891C68.5891 114.369 69.0131 113.951 69.5354 113.951C70.0577 113.951 70.4756 114.375 70.4756 114.897Z" fill="#C7C7C7"/>
<path d="M76.4668 114.897C76.4668 115.42 76.0428 115.838 75.5205 115.838C74.9982 115.838 74.5803 115.414 74.5803 114.891C74.5803 114.369 75.0043 113.951 75.5266 113.951C76.0428 113.957 76.4668 114.381 76.4668 114.897Z" fill="#C7C7C7"/>
<path d="M82.4583 114.903C82.4583 115.426 82.0343 115.844 81.5119 115.844C80.9896 115.844 80.5718 115.42 80.5718 114.897C80.5718 114.375 80.9958 113.957 81.5181 113.957C82.0343 113.957 82.4583 114.381 82.4583 114.903Z" fill="#C7C7C7"/>
<path d="M88.4433 114.91C88.4433 115.432 88.0194 115.85 87.497 115.85C86.9747 115.85 86.5569 115.426 86.5569 114.904C86.5569 114.382 86.9809 113.964 87.5032 113.964C88.0255 113.964 88.4433 114.388 88.4433 114.91Z" fill="#C7C7C7"/>
<path d="M94.4346 114.91C94.4346 115.432 94.0106 115.85 93.4883 115.85C92.9659 115.85 92.5481 115.426 92.5481 114.904C92.5481 114.382 92.9721 113.964 93.4944 113.964C94.0106 113.97 94.4346 114.394 94.4346 114.91Z" fill="#C7C7C7"/>
<path d="M92.8983 127.641L70.1192 127.623L69.0562 119.204L93.9736 119.223L92.8983 127.641Z" fill="#F05665"/>
<path opacity="0.1" d="M93.9748 119.223L93.4463 123.321L69.4629 122.424L69.0635 119.204L93.9748 119.223Z" fill="black"/>
</svg>
