<svg width="595" height="113" viewBox="0 0 595 113" fill="none" xmlns="http://www.w3.org/2000/svg">
<g filter="url(#filter0_d)">
<rect x="19" y="16" width="556.56" height="75" rx="24" fill="white"/>
</g>
<path d="M89.4033 54.3906C89.2627 55.5938 88.8174 56.5234 88.0674 57.1797C87.3226 57.8307 86.3304 58.1562 85.0908 58.1562C83.7471 58.1562 82.6689 57.6745 81.8564 56.7109C81.0492 55.7474 80.6455 54.4583 80.6455 52.8438V51.75C80.6455 50.6927 80.833 49.763 81.208 48.9609C81.5882 48.1589 82.1247 47.5443 82.8174 47.1172C83.5101 46.6849 84.3122 46.4688 85.2236 46.4688C86.432 46.4688 87.4007 46.8073 88.1299 47.4844C88.859 48.1562 89.2835 49.0885 89.4033 50.2812H87.8955C87.7653 49.375 87.4814 48.7188 87.0439 48.3125C86.6117 47.9062 86.0049 47.7031 85.2236 47.7031C84.2653 47.7031 83.5127 48.0573 82.9658 48.7656C82.4242 49.474 82.1533 50.4818 82.1533 51.7891V52.8906C82.1533 54.125 82.4111 55.1068 82.9268 55.8359C83.4424 56.5651 84.1637 56.9297 85.0908 56.9297C85.9242 56.9297 86.5622 56.7422 87.0049 56.3672C87.4528 55.987 87.7497 55.3281 87.8955 54.3906H89.4033ZM90.8486 53.6953C90.8486 52.8672 91.0101 52.1224 91.333 51.4609C91.6611 50.7995 92.1143 50.2891 92.6924 49.9297C93.2757 49.5703 93.9398 49.3906 94.6846 49.3906C95.8356 49.3906 96.7653 49.7891 97.4736 50.5859C98.1872 51.3828 98.5439 52.4427 98.5439 53.7656V53.8672C98.5439 54.6901 98.3851 55.4297 98.0674 56.0859C97.7549 56.737 97.3044 57.2448 96.7158 57.6094C96.1325 57.974 95.4606 58.1562 94.7002 58.1562C93.5544 58.1562 92.6247 57.7578 91.9111 56.9609C91.2028 56.1641 90.8486 55.1094 90.8486 53.7969V53.6953ZM92.3018 53.8672C92.3018 54.8047 92.5179 55.5573 92.9502 56.125C93.3877 56.6927 93.971 56.9766 94.7002 56.9766C95.4346 56.9766 96.0179 56.6901 96.4502 56.1172C96.8825 55.5391 97.0986 54.7318 97.0986 53.6953C97.0986 52.7682 96.8773 52.0182 96.4346 51.4453C95.9971 50.8672 95.4137 50.5781 94.6846 50.5781C93.971 50.5781 93.3955 50.862 92.958 51.4297C92.5205 51.9974 92.3018 52.8099 92.3018 53.8672ZM101.724 49.5469L101.771 50.6094C102.416 49.7969 103.26 49.3906 104.302 49.3906C106.088 49.3906 106.989 50.3984 107.005 52.4141V58H105.56V52.4062C105.554 51.7969 105.414 51.3464 105.138 51.0547C104.867 50.763 104.442 50.6172 103.864 50.6172C103.396 50.6172 102.984 50.7422 102.63 50.9922C102.276 51.2422 102 51.5703 101.802 51.9766V58H100.356V49.5469H101.724ZM114.106 55.7578C114.106 55.3672 113.958 55.0651 113.661 54.8516C113.369 54.6328 112.856 54.4453 112.122 54.2891C111.393 54.1328 110.812 53.9453 110.38 53.7266C109.953 53.5078 109.635 53.2474 109.427 52.9453C109.224 52.6432 109.122 52.2839 109.122 51.8672C109.122 51.1745 109.414 50.5885 109.997 50.1094C110.586 49.6302 111.336 49.3906 112.247 49.3906C113.205 49.3906 113.981 49.638 114.575 50.1328C115.174 50.6276 115.474 51.2604 115.474 52.0312H114.021C114.021 51.6354 113.851 51.2943 113.513 51.0078C113.179 50.7214 112.757 50.5781 112.247 50.5781C111.721 50.5781 111.31 50.6927 111.013 50.9219C110.716 51.151 110.567 51.4505 110.567 51.8203C110.567 52.1693 110.705 52.4323 110.981 52.6094C111.257 52.7865 111.755 52.9557 112.474 53.1172C113.198 53.2786 113.784 53.4714 114.231 53.6953C114.679 53.9193 115.01 54.1901 115.224 54.5078C115.442 54.8203 115.552 55.2031 115.552 55.6562C115.552 56.4115 115.25 57.0182 114.646 57.4766C114.041 57.9297 113.257 58.1562 112.294 58.1562C111.617 58.1562 111.018 58.0365 110.497 57.7969C109.976 57.5573 109.567 57.224 109.271 56.7969C108.979 56.3646 108.833 55.8984 108.833 55.3984H110.278C110.304 55.8828 110.497 56.2682 110.856 56.5547C111.221 56.8359 111.7 56.9766 112.294 56.9766C112.841 56.9766 113.278 56.8672 113.606 56.6484C113.94 56.4245 114.106 56.1276 114.106 55.7578ZM122.653 57.1641C122.091 57.8255 121.265 58.1562 120.177 58.1562C119.276 58.1562 118.588 57.8958 118.114 57.375C117.646 56.849 117.409 56.0729 117.403 55.0469V49.5469H118.849V55.0078C118.849 56.2891 119.369 56.9297 120.411 56.9297C121.515 56.9297 122.25 56.5182 122.614 55.6953V49.5469H124.06V58H122.685L122.653 57.1641ZM127.622 49.5469L127.661 50.4844C128.281 49.7552 129.117 49.3906 130.169 49.3906C131.351 49.3906 132.156 49.8438 132.583 50.75C132.864 50.3438 133.229 50.0156 133.677 49.7656C134.13 49.5156 134.664 49.3906 135.278 49.3906C137.132 49.3906 138.075 50.3724 138.106 52.3359V58H136.661V52.4219C136.661 51.8177 136.523 51.3672 136.247 51.0703C135.971 50.7682 135.507 50.6172 134.856 50.6172C134.32 50.6172 133.875 50.7786 133.521 51.1016C133.166 51.4193 132.961 51.849 132.903 52.3906V58H131.45V52.4609C131.45 51.2318 130.849 50.6172 129.646 50.6172C128.698 50.6172 128.049 51.0208 127.7 51.8281V58H126.255V49.5469H127.622ZM143.802 58.1562C142.656 58.1562 141.724 57.7812 141.005 57.0312C140.286 56.276 139.927 55.2682 139.927 54.0078V53.7422C139.927 52.9036 140.086 52.1562 140.403 51.5C140.726 50.8385 141.174 50.3229 141.747 49.9531C142.325 49.5781 142.95 49.3906 143.622 49.3906C144.721 49.3906 145.575 49.7526 146.185 50.4766C146.794 51.2005 147.099 52.237 147.099 53.5859V54.1875H141.372C141.393 55.0208 141.635 55.6953 142.099 56.2109C142.567 56.7214 143.161 56.9766 143.88 56.9766C144.39 56.9766 144.823 56.8724 145.177 56.6641C145.531 56.4557 145.841 56.1797 146.106 55.8359L146.989 56.5234C146.281 57.612 145.218 58.1562 143.802 58.1562ZM143.622 50.5781C143.039 50.5781 142.549 50.7917 142.153 51.2188C141.757 51.6406 141.513 52.2344 141.419 53H145.653V52.8906C145.612 52.1562 145.414 51.5885 145.06 51.1875C144.705 50.7812 144.226 50.5781 143.622 50.5781ZM152.864 50.8438C152.646 50.8073 152.409 50.7891 152.153 50.7891C151.205 50.7891 150.562 51.1927 150.224 52V58H148.778V49.5469H150.185L150.208 50.5234C150.682 49.7682 151.354 49.3906 152.224 49.3906C152.505 49.3906 152.718 49.4271 152.864 49.5V50.8438ZM165.653 56.0078L167.278 49.5469H168.724L166.263 58H165.091L163.036 51.5938L161.036 58H159.864L157.411 49.5469H158.849L160.513 55.875L162.481 49.5469H163.646L165.653 56.0078ZM171.771 58H170.325V49.5469H171.771V58ZM170.208 47.3047C170.208 47.0703 170.278 46.8724 170.419 46.7109C170.565 46.5495 170.778 46.4688 171.06 46.4688C171.341 46.4688 171.554 46.5495 171.7 46.7109C171.846 46.8724 171.919 47.0703 171.919 47.3047C171.919 47.5391 171.846 47.7344 171.7 47.8906C171.554 48.0469 171.341 48.125 171.06 48.125C170.778 48.125 170.565 48.0469 170.419 47.8906C170.278 47.7344 170.208 47.5391 170.208 47.3047ZM175.661 58H174.216V46H175.661V58ZM179.552 58H178.106V46H179.552V58ZM186.325 58V50.6641H184.989V49.5469H186.325V48.8281C186.325 47.8854 186.593 47.151 187.13 46.625C187.672 46.099 188.435 45.8359 189.419 45.8359C190.002 45.8359 190.739 45.9948 191.63 46.3125L191.388 47.5312C190.737 47.2708 190.117 47.1406 189.528 47.1406C188.909 47.1406 188.461 47.2812 188.185 47.5625C187.914 47.8385 187.778 48.2552 187.778 48.8125V49.5469H189.505V50.6641H187.778V58H186.325ZM192.349 58H190.896V49.5469H192.349V58ZM196.271 58H194.825V46H196.271V58ZM200.161 58H198.716V46H200.161V58ZM210.536 50.8438C210.317 50.8073 210.08 50.7891 209.825 50.7891C208.877 50.7891 208.234 51.1927 207.896 52V58H206.45V49.5469H207.856L207.88 50.5234C208.354 49.7682 209.026 49.3906 209.896 49.3906C210.177 49.3906 210.39 49.4271 210.536 49.5V50.8438ZM215.224 58.1562C214.078 58.1562 213.146 57.7812 212.427 57.0312C211.708 56.276 211.349 55.2682 211.349 54.0078V53.7422C211.349 52.9036 211.507 52.1562 211.825 51.5C212.148 50.8385 212.596 50.3229 213.169 49.9531C213.747 49.5781 214.372 49.3906 215.044 49.3906C216.143 49.3906 216.997 49.7526 217.606 50.4766C218.216 51.2005 218.521 52.237 218.521 53.5859V54.1875H212.794C212.815 55.0208 213.057 55.6953 213.521 56.2109C213.989 56.7214 214.583 56.9766 215.302 56.9766C215.812 56.9766 216.244 56.8724 216.599 56.6641C216.953 56.4557 217.263 56.1797 217.528 55.8359L218.411 56.5234C217.703 57.612 216.64 58.1562 215.224 58.1562ZM215.044 50.5781C214.461 50.5781 213.971 50.7917 213.575 51.2188C213.179 51.6406 212.935 52.2344 212.841 53H217.075V52.8906C217.034 52.1562 216.836 51.5885 216.481 51.1875C216.127 50.7812 215.648 50.5781 215.044 50.5781ZM219.849 53.7031C219.849 52.375 220.153 51.3255 220.763 50.5547C221.372 49.7786 222.19 49.3906 223.216 49.3906C224.216 49.3906 225.005 49.7266 225.583 50.3984L225.646 49.5469H226.974V61.25H225.528V57.2188C224.945 57.8438 224.169 58.1562 223.2 58.1562C222.179 58.1562 221.364 57.7604 220.755 56.9688C220.151 56.1719 219.849 55.1172 219.849 53.8047V53.7031ZM221.294 53.8672C221.294 54.8359 221.497 55.5964 221.903 56.1484C222.315 56.7005 222.867 56.9766 223.56 56.9766C224.419 56.9766 225.075 56.5964 225.528 55.8359V51.6953C225.07 50.9505 224.419 50.5781 223.575 50.5781C222.877 50.5781 222.323 50.8568 221.911 51.4141C221.5 51.9661 221.294 52.7839 221.294 53.8672ZM234.513 57.1641C233.95 57.8255 233.125 58.1562 232.036 58.1562C231.135 58.1562 230.448 57.8958 229.974 57.375C229.505 56.849 229.268 56.0729 229.263 55.0469V49.5469H230.708V55.0078C230.708 56.2891 231.229 56.9297 232.271 56.9297C233.375 56.9297 234.109 56.5182 234.474 55.6953V49.5469H235.919V58H234.544L234.513 57.1641ZM241.63 58.1562C240.484 58.1562 239.552 57.7812 238.833 57.0312C238.114 56.276 237.755 55.2682 237.755 54.0078V53.7422C237.755 52.9036 237.914 52.1562 238.231 51.5C238.554 50.8385 239.002 50.3229 239.575 49.9531C240.153 49.5781 240.778 49.3906 241.45 49.3906C242.549 49.3906 243.403 49.7526 244.013 50.4766C244.622 51.2005 244.927 52.237 244.927 53.5859V54.1875H239.2C239.221 55.0208 239.463 55.6953 239.927 56.2109C240.396 56.7214 240.989 56.9766 241.708 56.9766C242.218 56.9766 242.651 56.8724 243.005 56.6641C243.359 56.4557 243.669 56.1797 243.935 55.8359L244.817 56.5234C244.109 57.612 243.047 58.1562 241.63 58.1562ZM241.45 50.5781C240.867 50.5781 240.377 50.7917 239.981 51.2188C239.586 51.6406 239.341 52.2344 239.247 53H243.481V52.8906C243.44 52.1562 243.242 51.5885 242.888 51.1875C242.534 50.7812 242.054 50.5781 241.45 50.5781ZM251.528 55.7578C251.528 55.3672 251.38 55.0651 251.083 54.8516C250.791 54.6328 250.278 54.4453 249.544 54.2891C248.815 54.1328 248.234 53.9453 247.802 53.7266C247.375 53.5078 247.057 53.2474 246.849 52.9453C246.646 52.6432 246.544 52.2839 246.544 51.8672C246.544 51.1745 246.836 50.5885 247.419 50.1094C248.007 49.6302 248.757 49.3906 249.669 49.3906C250.627 49.3906 251.403 49.638 251.997 50.1328C252.596 50.6276 252.896 51.2604 252.896 52.0312H251.442C251.442 51.6354 251.273 51.2943 250.935 51.0078C250.601 50.7214 250.179 50.5781 249.669 50.5781C249.143 50.5781 248.731 50.6927 248.435 50.9219C248.138 51.151 247.989 51.4505 247.989 51.8203C247.989 52.1693 248.127 52.4323 248.403 52.6094C248.679 52.7865 249.177 52.9557 249.896 53.1172C250.619 53.2786 251.205 53.4714 251.653 53.6953C252.101 53.9193 252.432 54.1901 252.646 54.5078C252.864 54.8203 252.974 55.2031 252.974 55.6562C252.974 56.4115 252.672 57.0182 252.067 57.4766C251.463 57.9297 250.679 58.1562 249.716 58.1562C249.039 58.1562 248.44 58.0365 247.919 57.7969C247.398 57.5573 246.989 57.224 246.692 56.7969C246.401 56.3646 246.255 55.8984 246.255 55.3984H247.7C247.726 55.8828 247.919 56.2682 248.278 56.5547C248.643 56.8359 249.122 56.9766 249.716 56.9766C250.263 56.9766 250.7 56.8672 251.028 56.6484C251.362 56.4245 251.528 56.1276 251.528 55.7578ZM256.817 47.5V49.5469H258.396V50.6641H256.817V55.9062C256.817 56.2448 256.888 56.5 257.028 56.6719C257.169 56.8385 257.409 56.9219 257.747 56.9219C257.914 56.9219 258.143 56.8906 258.435 56.8281V58C258.054 58.1042 257.685 58.1562 257.325 58.1562C256.679 58.1562 256.192 57.9609 255.864 57.5703C255.536 57.1797 255.372 56.625 255.372 55.9062V50.6641H253.833V49.5469H255.372V47.5H256.817ZM265.63 58H264.185V49.5469H265.63V58ZM264.067 47.3047C264.067 47.0703 264.138 46.8724 264.278 46.7109C264.424 46.5495 264.638 46.4688 264.919 46.4688C265.2 46.4688 265.414 46.5495 265.56 46.7109C265.705 46.8724 265.778 47.0703 265.778 47.3047C265.778 47.5391 265.705 47.7344 265.56 47.8906C265.414 48.0469 265.2 48.125 264.919 48.125C264.638 48.125 264.424 48.0469 264.278 47.8906C264.138 47.7344 264.067 47.5391 264.067 47.3047ZM269.317 49.5469L269.364 50.6094C270.01 49.7969 270.854 49.3906 271.896 49.3906C273.682 49.3906 274.583 50.3984 274.599 52.4141V58H273.153V52.4062C273.148 51.7969 273.007 51.3464 272.731 51.0547C272.461 50.763 272.036 50.6172 271.458 50.6172C270.989 50.6172 270.578 50.7422 270.224 50.9922C269.869 51.2422 269.593 51.5703 269.396 51.9766V58H267.95V49.5469H269.317ZM277.489 58V50.6641H276.153V49.5469H277.489V48.6797C277.489 47.7734 277.731 47.0729 278.216 46.5781C278.7 46.0833 279.385 45.8359 280.271 45.8359C280.604 45.8359 280.935 45.8802 281.263 45.9688L281.185 47.1406C280.94 47.0938 280.679 47.0703 280.403 47.0703C279.935 47.0703 279.573 47.2083 279.317 47.4844C279.062 47.7552 278.935 48.1458 278.935 48.6562V49.5469H280.739V50.6641H278.935V58H277.489ZM281.958 53.6953C281.958 52.8672 282.119 52.1224 282.442 51.4609C282.771 50.7995 283.224 50.2891 283.802 49.9297C284.385 49.5703 285.049 49.3906 285.794 49.3906C286.945 49.3906 287.875 49.7891 288.583 50.5859C289.297 51.3828 289.653 52.4427 289.653 53.7656V53.8672C289.653 54.6901 289.494 55.4297 289.177 56.0859C288.864 56.737 288.414 57.2448 287.825 57.6094C287.242 57.974 286.57 58.1562 285.81 58.1562C284.664 58.1562 283.734 57.7578 283.021 56.9609C282.312 56.1641 281.958 55.1094 281.958 53.7969V53.6953ZM283.411 53.8672C283.411 54.8047 283.627 55.5573 284.06 56.125C284.497 56.6927 285.08 56.9766 285.81 56.9766C286.544 56.9766 287.127 56.6901 287.56 56.1172C287.992 55.5391 288.208 54.7318 288.208 53.6953C288.208 52.7682 287.987 52.0182 287.544 51.4453C287.106 50.8672 286.523 50.5781 285.794 50.5781C285.08 50.5781 284.505 50.862 284.067 51.4297C283.63 51.9974 283.411 52.8099 283.411 53.8672ZM295.552 50.8438C295.333 50.8073 295.096 50.7891 294.841 50.7891C293.893 50.7891 293.25 51.1927 292.911 52V58H291.466V49.5469H292.872L292.896 50.5234C293.369 49.7682 294.041 49.3906 294.911 49.3906C295.192 49.3906 295.406 49.4271 295.552 49.5V50.8438ZM298.247 49.5469L298.286 50.4844C298.906 49.7552 299.742 49.3906 300.794 49.3906C301.976 49.3906 302.781 49.8438 303.208 50.75C303.489 50.3438 303.854 50.0156 304.302 49.7656C304.755 49.5156 305.289 49.3906 305.903 49.3906C307.757 49.3906 308.7 50.3724 308.731 52.3359V58H307.286V52.4219C307.286 51.8177 307.148 51.3672 306.872 51.0703C306.596 50.7682 306.132 50.6172 305.481 50.6172C304.945 50.6172 304.5 50.7786 304.146 51.1016C303.791 51.4193 303.586 51.849 303.528 52.3906V58H302.075V52.4609C302.075 51.2318 301.474 50.6172 300.271 50.6172C299.323 50.6172 298.674 51.0208 298.325 51.8281V58H296.88V49.5469H298.247ZM316.138 58C316.054 57.8333 315.987 57.5365 315.935 57.1094C315.263 57.8073 314.461 58.1562 313.528 58.1562C312.695 58.1562 312.01 57.9219 311.474 57.4531C310.942 56.9792 310.677 56.3802 310.677 55.6562C310.677 54.776 311.01 54.0938 311.677 53.6094C312.349 53.1198 313.291 52.875 314.505 52.875H315.911V52.2109C315.911 51.7057 315.76 51.3047 315.458 51.0078C315.156 50.7057 314.711 50.5547 314.122 50.5547C313.606 50.5547 313.174 50.6849 312.825 50.9453C312.476 51.2057 312.302 51.5208 312.302 51.8906H310.849C310.849 51.4688 310.997 51.0625 311.294 50.6719C311.596 50.276 312.002 49.9635 312.513 49.7344C313.028 49.5052 313.593 49.3906 314.208 49.3906C315.182 49.3906 315.945 49.6354 316.497 50.125C317.049 50.6094 317.336 51.2786 317.356 52.1328V56.0234C317.356 56.7995 317.455 57.4167 317.653 57.875V58H316.138ZM313.739 56.8984C314.192 56.8984 314.622 56.7812 315.028 56.5469C315.435 56.3125 315.729 56.0078 315.911 55.6328V53.8984H314.778C313.007 53.8984 312.122 54.4167 312.122 55.4531C312.122 55.9062 312.273 56.2604 312.575 56.5156C312.877 56.7708 313.265 56.8984 313.739 56.8984ZM321.583 47.5V49.5469H323.161V50.6641H321.583V55.9062C321.583 56.2448 321.653 56.5 321.794 56.6719C321.935 56.8385 322.174 56.9219 322.513 56.9219C322.679 56.9219 322.909 56.8906 323.2 56.8281V58C322.82 58.1042 322.45 58.1562 322.091 58.1562C321.445 58.1562 320.958 57.9609 320.63 57.5703C320.302 57.1797 320.138 56.625 320.138 55.9062V50.6641H318.599V49.5469H320.138V47.5H321.583ZM326.427 58H324.981V49.5469H326.427V58ZM324.864 47.3047C324.864 47.0703 324.935 46.8724 325.075 46.7109C325.221 46.5495 325.435 46.4688 325.716 46.4688C325.997 46.4688 326.211 46.5495 326.356 46.7109C326.502 46.8724 326.575 47.0703 326.575 47.3047C326.575 47.5391 326.502 47.7344 326.356 47.8906C326.211 48.0469 325.997 48.125 325.716 48.125C325.435 48.125 325.221 48.0469 325.075 47.8906C324.935 47.7344 324.864 47.5391 324.864 47.3047ZM328.364 53.6953C328.364 52.8672 328.526 52.1224 328.849 51.4609C329.177 50.7995 329.63 50.2891 330.208 49.9297C330.791 49.5703 331.455 49.3906 332.2 49.3906C333.351 49.3906 334.281 49.7891 334.989 50.5859C335.703 51.3828 336.06 52.4427 336.06 53.7656V53.8672C336.06 54.6901 335.901 55.4297 335.583 56.0859C335.271 56.737 334.82 57.2448 334.231 57.6094C333.648 57.974 332.976 58.1562 332.216 58.1562C331.07 58.1562 330.14 57.7578 329.427 56.9609C328.718 56.1641 328.364 55.1094 328.364 53.7969V53.6953ZM329.817 53.8672C329.817 54.8047 330.034 55.5573 330.466 56.125C330.903 56.6927 331.487 56.9766 332.216 56.9766C332.95 56.9766 333.534 56.6901 333.966 56.1172C334.398 55.5391 334.614 54.7318 334.614 53.6953C334.614 52.7682 334.393 52.0182 333.95 51.4453C333.513 50.8672 332.929 50.5781 332.2 50.5781C331.487 50.5781 330.911 50.862 330.474 51.4297C330.036 51.9974 329.817 52.8099 329.817 53.8672ZM339.239 49.5469L339.286 50.6094C339.932 49.7969 340.776 49.3906 341.817 49.3906C343.604 49.3906 344.505 50.3984 344.521 52.4141V58H343.075V52.4062C343.07 51.7969 342.929 51.3464 342.653 51.0547C342.382 50.763 341.958 50.6172 341.38 50.6172C340.911 50.6172 340.5 50.7422 340.146 50.9922C339.791 51.2422 339.515 51.5703 339.317 51.9766V58H337.872V49.5469H339.239ZM350.317 53.7031C350.317 52.4062 350.625 51.3646 351.239 50.5781C351.854 49.7865 352.659 49.3906 353.653 49.3906C354.643 49.3906 355.427 49.7292 356.005 50.4062V46H357.45V58H356.122L356.052 57.0938C355.474 57.8021 354.669 58.1562 353.638 58.1562C352.659 58.1562 351.859 57.7552 351.239 56.9531C350.625 56.151 350.317 55.1042 350.317 53.8125V53.7031ZM351.763 53.8672C351.763 54.8255 351.961 55.5755 352.356 56.1172C352.752 56.6589 353.299 56.9297 353.997 56.9297C354.914 56.9297 355.583 56.5182 356.005 55.6953V51.8125C355.573 51.0156 354.909 50.6172 354.013 50.6172C353.304 50.6172 352.752 50.8906 352.356 51.4375C351.961 51.9844 351.763 52.7943 351.763 53.8672ZM363.208 58.1562C362.062 58.1562 361.13 57.7812 360.411 57.0312C359.692 56.276 359.333 55.2682 359.333 54.0078V53.7422C359.333 52.9036 359.492 52.1562 359.81 51.5C360.132 50.8385 360.58 50.3229 361.153 49.9531C361.731 49.5781 362.356 49.3906 363.028 49.3906C364.127 49.3906 364.981 49.7526 365.591 50.4766C366.2 51.2005 366.505 52.237 366.505 53.5859V54.1875H360.778C360.799 55.0208 361.041 55.6953 361.505 56.2109C361.974 56.7214 362.567 56.9766 363.286 56.9766C363.797 56.9766 364.229 56.8724 364.583 56.6641C364.937 56.4557 365.247 56.1797 365.513 55.8359L366.396 56.5234C365.687 57.612 364.625 58.1562 363.208 58.1562ZM363.028 50.5781C362.445 50.5781 361.955 50.7917 361.56 51.2188C361.164 51.6406 360.919 52.2344 360.825 53H365.06V52.8906C365.018 52.1562 364.82 51.5885 364.466 51.1875C364.112 50.7812 363.632 50.5781 363.028 50.5781ZM370.146 47.5V49.5469H371.724V50.6641H370.146V55.9062C370.146 56.2448 370.216 56.5 370.356 56.6719C370.497 56.8385 370.737 56.9219 371.075 56.9219C371.242 56.9219 371.471 56.8906 371.763 56.8281V58C371.382 58.1042 371.013 58.1562 370.653 58.1562C370.007 58.1562 369.521 57.9609 369.192 57.5703C368.864 57.1797 368.7 56.625 368.7 55.9062V50.6641H367.161V49.5469H368.7V47.5H370.146ZM378.638 58C378.554 57.8333 378.487 57.5365 378.435 57.1094C377.763 57.8073 376.961 58.1562 376.028 58.1562C375.195 58.1562 374.51 57.9219 373.974 57.4531C373.442 56.9792 373.177 56.3802 373.177 55.6562C373.177 54.776 373.51 54.0938 374.177 53.6094C374.849 53.1198 375.791 52.875 377.005 52.875H378.411V52.2109C378.411 51.7057 378.26 51.3047 377.958 51.0078C377.656 50.7057 377.211 50.5547 376.622 50.5547C376.106 50.5547 375.674 50.6849 375.325 50.9453C374.976 51.2057 374.802 51.5208 374.802 51.8906H373.349C373.349 51.4688 373.497 51.0625 373.794 50.6719C374.096 50.276 374.502 49.9635 375.013 49.7344C375.528 49.5052 376.093 49.3906 376.708 49.3906C377.682 49.3906 378.445 49.6354 378.997 50.125C379.549 50.6094 379.836 51.2786 379.856 52.1328V56.0234C379.856 56.7995 379.955 57.4167 380.153 57.875V58H378.638ZM376.239 56.8984C376.692 56.8984 377.122 56.7812 377.528 56.5469C377.935 56.3125 378.229 56.0078 378.411 55.6328V53.8984H377.278C375.507 53.8984 374.622 54.4167 374.622 55.4531C374.622 55.9062 374.773 56.2604 375.075 56.5156C375.377 56.7708 375.765 56.8984 376.239 56.8984ZM383.692 58H382.247V49.5469H383.692V58ZM382.13 47.3047C382.13 47.0703 382.2 46.8724 382.341 46.7109C382.487 46.5495 382.7 46.4688 382.981 46.4688C383.263 46.4688 383.476 46.5495 383.622 46.7109C383.768 46.8724 383.841 47.0703 383.841 47.3047C383.841 47.5391 383.768 47.7344 383.622 47.8906C383.476 48.0469 383.263 48.125 382.981 48.125C382.7 48.125 382.487 48.0469 382.341 47.8906C382.2 47.7344 382.13 47.5391 382.13 47.3047ZM387.583 58H386.138V46H387.583V58ZM394.825 55.7578C394.825 55.3672 394.677 55.0651 394.38 54.8516C394.088 54.6328 393.575 54.4453 392.841 54.2891C392.112 54.1328 391.531 53.9453 391.099 53.7266C390.672 53.5078 390.354 53.2474 390.146 52.9453C389.942 52.6432 389.841 52.2839 389.841 51.8672C389.841 51.1745 390.132 50.5885 390.716 50.1094C391.304 49.6302 392.054 49.3906 392.966 49.3906C393.924 49.3906 394.7 49.638 395.294 50.1328C395.893 50.6276 396.192 51.2604 396.192 52.0312H394.739C394.739 51.6354 394.57 51.2943 394.231 51.0078C393.898 50.7214 393.476 50.5781 392.966 50.5781C392.44 50.5781 392.028 50.6927 391.731 50.9219C391.435 51.151 391.286 51.4505 391.286 51.8203C391.286 52.1693 391.424 52.4323 391.7 52.6094C391.976 52.7865 392.474 52.9557 393.192 53.1172C393.916 53.2786 394.502 53.4714 394.95 53.6953C395.398 53.9193 395.729 54.1901 395.942 54.5078C396.161 54.8203 396.271 55.2031 396.271 55.6562C396.271 56.4115 395.968 57.0182 395.364 57.4766C394.76 57.9297 393.976 58.1562 393.013 58.1562C392.336 58.1562 391.737 58.0365 391.216 57.7969C390.695 57.5573 390.286 57.224 389.989 56.7969C389.698 56.3646 389.552 55.8984 389.552 55.3984H390.997C391.023 55.8828 391.216 56.2682 391.575 56.5547C391.94 56.8359 392.419 56.9766 393.013 56.9766C393.56 56.9766 393.997 56.8672 394.325 56.6484C394.659 56.4245 394.825 56.1276 394.825 55.7578Z" fill="#6654A4"/>
<path d="M46.286 64H49.23V40.864H43.214V43.52H46.286V64Z" fill="#6654A4"/>
<defs>
<filter id="filter0_d" x="0" y="0" width="594.56" height="113" filterUnits="userSpaceOnUse" color-interpolation-filters="sRGB">
<feFlood flood-opacity="0" result="BackgroundImageFix"/>
<feColorMatrix in="SourceAlpha" type="matrix" values="0 0 0 0 0 0 0 0 0 0 0 0 0 0 0 0 0 0 127 0"/>
<feMorphology radius="4" operator="dilate" in="SourceAlpha" result="effect1_dropShadow"/>
<feOffset dy="3"/>
<feGaussianBlur stdDeviation="7.5"/>
<feColorMatrix type="matrix" values="0 0 0 0 0.872109 0 0 0 0 0.853125 0 0 0 0 0.9375 0 0 0 0.5 0"/>
<feBlend mode="normal" in2="BackgroundImageFix" result="effect1_dropShadow"/>
<feBlend mode="normal" in="SourceGraphic" in2="effect1_dropShadow" result="shape"/>
</filter>
</defs>
</svg>
