<svg width="595" height="113" viewBox="0 0 595 113" fill="none" xmlns="http://www.w3.org/2000/svg">
<g filter="url(#filter0_d)">
<rect x="19" y="16" width="556.56" height="75" rx="24" fill="white"/>
</g>
<path d="M85.208 53.3984H82.5361V58H81.0283V46.625H84.7939C86.0752 46.625 87.0596 46.9167 87.7471 47.5C88.4398 48.0833 88.7861 48.9323 88.7861 50.0469C88.7861 50.7552 88.5934 51.3724 88.208 51.8984C87.8278 52.4245 87.2965 52.8177 86.6143 53.0781L89.2861 57.9062V58H87.6768L85.208 53.3984ZM82.5361 52.1719H84.8408C85.5856 52.1719 86.1768 51.9792 86.6143 51.5938C87.057 51.2083 87.2783 50.6927 87.2783 50.0469C87.2783 49.3438 87.0674 48.8047 86.6455 48.4297C86.2288 48.0547 85.6247 47.8646 84.833 47.8594H82.5361V52.1719ZM94.1768 58.1562C93.0309 58.1562 92.0986 57.7812 91.3799 57.0312C90.6611 56.276 90.3018 55.2682 90.3018 54.0078V53.7422C90.3018 52.9036 90.4606 52.1562 90.7783 51.5C91.1012 50.8385 91.5492 50.3229 92.1221 49.9531C92.7002 49.5781 93.3252 49.3906 93.9971 49.3906C95.096 49.3906 95.9502 49.7526 96.5596 50.4766C97.1689 51.2005 97.4736 52.237 97.4736 53.5859V54.1875H91.7471C91.7679 55.0208 92.0101 55.6953 92.4736 56.2109C92.9424 56.7214 93.5361 56.9766 94.2549 56.9766C94.7653 56.9766 95.1976 56.8724 95.5518 56.6641C95.9059 56.4557 96.2158 56.1797 96.4814 55.8359L97.3643 56.5234C96.6559 57.612 95.5934 58.1562 94.1768 58.1562ZM93.9971 50.5781C93.4137 50.5781 92.9242 50.7917 92.5283 51.2188C92.1325 51.6406 91.8877 52.2344 91.7939 53H96.0283V52.8906C95.9867 52.1562 95.7887 51.5885 95.4346 51.1875C95.0804 50.7812 94.6012 50.5781 93.9971 50.5781ZM98.8018 53.7031C98.8018 52.375 99.1064 51.3255 99.7158 50.5547C100.325 49.7786 101.143 49.3906 102.169 49.3906C103.169 49.3906 103.958 49.7266 104.536 50.3984L104.599 49.5469H105.927V61.25H104.481V57.2188C103.898 57.8438 103.122 58.1562 102.153 58.1562C101.132 58.1562 100.317 57.7604 99.708 56.9688C99.1038 56.1719 98.8018 55.1172 98.8018 53.8047V53.7031ZM100.247 53.8672C100.247 54.8359 100.45 55.5964 100.856 56.1484C101.268 56.7005 101.82 56.9766 102.513 56.9766C103.372 56.9766 104.028 56.5964 104.481 55.8359V51.6953C104.023 50.9505 103.372 50.5781 102.528 50.5781C101.83 50.5781 101.276 50.8568 100.864 51.4141C100.453 51.9661 100.247 52.7839 100.247 53.8672ZM113.466 57.1641C112.903 57.8255 112.078 58.1562 110.989 58.1562C110.088 58.1562 109.401 57.8958 108.927 57.375C108.458 56.849 108.221 56.0729 108.216 55.0469V49.5469H109.661V55.0078C109.661 56.2891 110.182 56.9297 111.224 56.9297C112.328 56.9297 113.062 56.5182 113.427 55.6953V49.5469H114.872V58H113.497L113.466 57.1641ZM120.583 58.1562C119.437 58.1562 118.505 57.7812 117.786 57.0312C117.067 56.276 116.708 55.2682 116.708 54.0078V53.7422C116.708 52.9036 116.867 52.1562 117.185 51.5C117.507 50.8385 117.955 50.3229 118.528 49.9531C119.106 49.5781 119.731 49.3906 120.403 49.3906C121.502 49.3906 122.356 49.7526 122.966 50.4766C123.575 51.2005 123.88 52.237 123.88 53.5859V54.1875H118.153C118.174 55.0208 118.416 55.6953 118.88 56.2109C119.349 56.7214 119.942 56.9766 120.661 56.9766C121.172 56.9766 121.604 56.8724 121.958 56.6641C122.312 56.4557 122.622 56.1797 122.888 55.8359L123.771 56.5234C123.062 57.612 122 58.1562 120.583 58.1562ZM120.403 50.5781C119.82 50.5781 119.33 50.7917 118.935 51.2188C118.539 51.6406 118.294 52.2344 118.2 53H122.435V52.8906C122.393 52.1562 122.195 51.5885 121.841 51.1875C121.487 50.7812 121.007 50.5781 120.403 50.5781ZM130.481 55.7578C130.481 55.3672 130.333 55.0651 130.036 54.8516C129.744 54.6328 129.231 54.4453 128.497 54.2891C127.768 54.1328 127.187 53.9453 126.755 53.7266C126.328 53.5078 126.01 53.2474 125.802 52.9453C125.599 52.6432 125.497 52.2839 125.497 51.8672C125.497 51.1745 125.789 50.5885 126.372 50.1094C126.961 49.6302 127.711 49.3906 128.622 49.3906C129.58 49.3906 130.356 49.638 130.95 50.1328C131.549 50.6276 131.849 51.2604 131.849 52.0312H130.396C130.396 51.6354 130.226 51.2943 129.888 51.0078C129.554 50.7214 129.132 50.5781 128.622 50.5781C128.096 50.5781 127.685 50.6927 127.388 50.9219C127.091 51.151 126.942 51.4505 126.942 51.8203C126.942 52.1693 127.08 52.4323 127.356 52.6094C127.632 52.7865 128.13 52.9557 128.849 53.1172C129.573 53.2786 130.159 53.4714 130.606 53.6953C131.054 53.9193 131.385 54.1901 131.599 54.5078C131.817 54.8203 131.927 55.2031 131.927 55.6562C131.927 56.4115 131.625 57.0182 131.021 57.4766C130.416 57.9297 129.632 58.1562 128.669 58.1562C127.992 58.1562 127.393 58.0365 126.872 57.7969C126.351 57.5573 125.942 57.224 125.646 56.7969C125.354 56.3646 125.208 55.8984 125.208 55.3984H126.653C126.679 55.8828 126.872 56.2682 127.231 56.5547C127.596 56.8359 128.075 56.9766 128.669 56.9766C129.216 56.9766 129.653 56.8672 129.981 56.6484C130.315 56.4245 130.481 56.1276 130.481 55.7578ZM135.771 47.5V49.5469H137.349V50.6641H135.771V55.9062C135.771 56.2448 135.841 56.5 135.981 56.6719C136.122 56.8385 136.362 56.9219 136.7 56.9219C136.867 56.9219 137.096 56.8906 137.388 56.8281V58C137.007 58.1042 136.638 58.1562 136.278 58.1562C135.632 58.1562 135.146 57.9609 134.817 57.5703C134.489 57.1797 134.325 56.625 134.325 55.9062V50.6641H132.786V49.5469H134.325V47.5H135.771ZM144.458 50.5703C145.099 49.7839 145.932 49.3906 146.958 49.3906C148.744 49.3906 149.646 50.3984 149.661 52.4141V58H148.216V52.4062C148.211 51.7969 148.07 51.3464 147.794 51.0547C147.523 50.763 147.099 50.6172 146.521 50.6172C146.052 50.6172 145.64 50.7422 145.286 50.9922C144.932 51.2422 144.656 51.5703 144.458 51.9766V58H143.013V46H144.458V50.5703ZM157.044 58C156.961 57.8333 156.893 57.5365 156.841 57.1094C156.169 57.8073 155.367 58.1562 154.435 58.1562C153.601 58.1562 152.916 57.9219 152.38 57.4531C151.849 56.9792 151.583 56.3802 151.583 55.6562C151.583 54.776 151.916 54.0938 152.583 53.6094C153.255 53.1198 154.198 52.875 155.411 52.875H156.817V52.2109C156.817 51.7057 156.666 51.3047 156.364 51.0078C156.062 50.7057 155.617 50.5547 155.028 50.5547C154.513 50.5547 154.08 50.6849 153.731 50.9453C153.382 51.2057 153.208 51.5208 153.208 51.8906H151.755C151.755 51.4688 151.903 51.0625 152.2 50.6719C152.502 50.276 152.909 49.9635 153.419 49.7344C153.935 49.5052 154.5 49.3906 155.114 49.3906C156.088 49.3906 156.851 49.6354 157.403 50.125C157.955 50.6094 158.242 51.2786 158.263 52.1328V56.0234C158.263 56.7995 158.362 57.4167 158.56 57.875V58H157.044ZM154.646 56.8984C155.099 56.8984 155.528 56.7812 155.935 56.5469C156.341 56.3125 156.635 56.0078 156.817 55.6328V53.8984H155.685C153.914 53.8984 153.028 54.4167 153.028 55.4531C153.028 55.9062 153.179 56.2604 153.481 56.5156C153.784 56.7708 154.172 56.8984 154.646 56.8984ZM165.45 55.7578C165.45 55.3672 165.302 55.0651 165.005 54.8516C164.713 54.6328 164.2 54.4453 163.466 54.2891C162.737 54.1328 162.156 53.9453 161.724 53.7266C161.297 53.5078 160.979 53.2474 160.771 52.9453C160.567 52.6432 160.466 52.2839 160.466 51.8672C160.466 51.1745 160.757 50.5885 161.341 50.1094C161.929 49.6302 162.679 49.3906 163.591 49.3906C164.549 49.3906 165.325 49.638 165.919 50.1328C166.518 50.6276 166.817 51.2604 166.817 52.0312H165.364C165.364 51.6354 165.195 51.2943 164.856 51.0078C164.523 50.7214 164.101 50.5781 163.591 50.5781C163.065 50.5781 162.653 50.6927 162.356 50.9219C162.06 51.151 161.911 51.4505 161.911 51.8203C161.911 52.1693 162.049 52.4323 162.325 52.6094C162.601 52.7865 163.099 52.9557 163.817 53.1172C164.541 53.2786 165.127 53.4714 165.575 53.6953C166.023 53.9193 166.354 54.1901 166.567 54.5078C166.786 54.8203 166.896 55.2031 166.896 55.6562C166.896 56.4115 166.593 57.0182 165.989 57.4766C165.385 57.9297 164.601 58.1562 163.638 58.1562C162.961 58.1562 162.362 58.0365 161.841 57.7969C161.32 57.5573 160.911 57.224 160.614 56.7969C160.323 56.3646 160.177 55.8984 160.177 55.3984H161.622C161.648 55.8828 161.841 56.2682 162.2 56.5547C162.565 56.8359 163.044 56.9766 163.638 56.9766C164.185 56.9766 164.622 56.8672 164.95 56.6484C165.284 56.4245 165.45 56.1276 165.45 55.7578ZM179.903 53.8672C179.903 55.1589 179.606 56.1979 179.013 56.9844C178.419 57.7656 177.622 58.1562 176.622 58.1562C175.554 58.1562 174.729 57.7786 174.146 57.0234L174.075 58H172.747V46H174.192V50.4766C174.776 49.7526 175.58 49.3906 176.606 49.3906C177.632 49.3906 178.437 49.7786 179.021 50.5547C179.609 51.3307 179.903 52.3932 179.903 53.7422V53.8672ZM178.458 53.7031C178.458 52.7188 178.268 51.9583 177.888 51.4219C177.507 50.8854 176.961 50.6172 176.247 50.6172C175.294 50.6172 174.609 51.0599 174.192 51.9453V55.6016C174.635 56.487 175.325 56.9297 176.263 56.9297C176.955 56.9297 177.494 56.6615 177.88 56.125C178.265 55.5885 178.458 54.7812 178.458 53.7031ZM185.239 58.1562C184.093 58.1562 183.161 57.7812 182.442 57.0312C181.724 56.276 181.364 55.2682 181.364 54.0078V53.7422C181.364 52.9036 181.523 52.1562 181.841 51.5C182.164 50.8385 182.612 50.3229 183.185 49.9531C183.763 49.5781 184.388 49.3906 185.06 49.3906C186.159 49.3906 187.013 49.7526 187.622 50.4766C188.231 51.2005 188.536 52.237 188.536 53.5859V54.1875H182.81C182.83 55.0208 183.073 55.6953 183.536 56.2109C184.005 56.7214 184.599 56.9766 185.317 56.9766C185.828 56.9766 186.26 56.8724 186.614 56.6641C186.968 56.4557 187.278 56.1797 187.544 55.8359L188.427 56.5234C187.718 57.612 186.656 58.1562 185.239 58.1562ZM185.06 50.5781C184.476 50.5781 183.987 50.7917 183.591 51.2188C183.195 51.6406 182.95 52.2344 182.856 53H187.091V52.8906C187.049 52.1562 186.851 51.5885 186.497 51.1875C186.143 50.7812 185.664 50.5781 185.06 50.5781ZM193.724 58.1562C192.578 58.1562 191.646 57.7812 190.927 57.0312C190.208 56.276 189.849 55.2682 189.849 54.0078V53.7422C189.849 52.9036 190.007 52.1562 190.325 51.5C190.648 50.8385 191.096 50.3229 191.669 49.9531C192.247 49.5781 192.872 49.3906 193.544 49.3906C194.643 49.3906 195.497 49.7526 196.106 50.4766C196.716 51.2005 197.021 52.237 197.021 53.5859V54.1875H191.294C191.315 55.0208 191.557 55.6953 192.021 56.2109C192.489 56.7214 193.083 56.9766 193.802 56.9766C194.312 56.9766 194.744 56.8724 195.099 56.6641C195.453 56.4557 195.763 56.1797 196.028 55.8359L196.911 56.5234C196.203 57.612 195.14 58.1562 193.724 58.1562ZM193.544 50.5781C192.961 50.5781 192.471 50.7917 192.075 51.2188C191.679 51.6406 191.435 52.2344 191.341 53H195.575V52.8906C195.534 52.1562 195.336 51.5885 194.981 51.1875C194.627 50.7812 194.148 50.5781 193.544 50.5781ZM200.067 49.5469L200.114 50.6094C200.76 49.7969 201.604 49.3906 202.646 49.3906C204.432 49.3906 205.333 50.3984 205.349 52.4141V58H203.903V52.4062C203.898 51.7969 203.757 51.3464 203.481 51.0547C203.211 50.763 202.786 50.6172 202.208 50.6172C201.739 50.6172 201.328 50.7422 200.974 50.9922C200.619 51.2422 200.343 51.5703 200.146 51.9766V58H198.7V49.5469H200.067ZM216.419 55.7578C216.419 55.3672 216.271 55.0651 215.974 54.8516C215.682 54.6328 215.169 54.4453 214.435 54.2891C213.705 54.1328 213.125 53.9453 212.692 53.7266C212.265 53.5078 211.948 53.2474 211.739 52.9453C211.536 52.6432 211.435 52.2839 211.435 51.8672C211.435 51.1745 211.726 50.5885 212.31 50.1094C212.898 49.6302 213.648 49.3906 214.56 49.3906C215.518 49.3906 216.294 49.638 216.888 50.1328C217.487 50.6276 217.786 51.2604 217.786 52.0312H216.333C216.333 51.6354 216.164 51.2943 215.825 51.0078C215.492 50.7214 215.07 50.5781 214.56 50.5781C214.034 50.5781 213.622 50.6927 213.325 50.9219C213.028 51.151 212.88 51.4505 212.88 51.8203C212.88 52.1693 213.018 52.4323 213.294 52.6094C213.57 52.7865 214.067 52.9557 214.786 53.1172C215.51 53.2786 216.096 53.4714 216.544 53.6953C216.992 53.9193 217.323 54.1901 217.536 54.5078C217.755 54.8203 217.864 55.2031 217.864 55.6562C217.864 56.4115 217.562 57.0182 216.958 57.4766C216.354 57.9297 215.57 58.1562 214.606 58.1562C213.929 58.1562 213.33 58.0365 212.81 57.7969C212.289 57.5573 211.88 57.224 211.583 56.7969C211.291 56.3646 211.146 55.8984 211.146 55.3984H212.591C212.617 55.8828 212.81 56.2682 213.169 56.5547C213.534 56.8359 214.013 56.9766 214.606 56.9766C215.153 56.9766 215.591 56.8672 215.919 56.6484C216.252 56.4245 216.419 56.1276 216.419 55.7578ZM223.255 58.1562C222.109 58.1562 221.177 57.7812 220.458 57.0312C219.739 56.276 219.38 55.2682 219.38 54.0078V53.7422C219.38 52.9036 219.539 52.1562 219.856 51.5C220.179 50.8385 220.627 50.3229 221.2 49.9531C221.778 49.5781 222.403 49.3906 223.075 49.3906C224.174 49.3906 225.028 49.7526 225.638 50.4766C226.247 51.2005 226.552 52.237 226.552 53.5859V54.1875H220.825C220.846 55.0208 221.088 55.6953 221.552 56.2109C222.021 56.7214 222.614 56.9766 223.333 56.9766C223.843 56.9766 224.276 56.8724 224.63 56.6641C224.984 56.4557 225.294 56.1797 225.56 55.8359L226.442 56.5234C225.734 57.612 224.672 58.1562 223.255 58.1562ZM223.075 50.5781C222.492 50.5781 222.002 50.7917 221.606 51.2188C221.211 51.6406 220.966 52.2344 220.872 53H225.106V52.8906C225.065 52.1562 224.867 51.5885 224.513 51.1875C224.159 50.7812 223.679 50.5781 223.075 50.5781ZM229.599 49.5469L229.646 50.6094C230.291 49.7969 231.135 49.3906 232.177 49.3906C233.963 49.3906 234.864 50.3984 234.88 52.4141V58H233.435V52.4062C233.429 51.7969 233.289 51.3464 233.013 51.0547C232.742 50.763 232.317 50.6172 231.739 50.6172C231.271 50.6172 230.859 50.7422 230.505 50.9922C230.151 51.2422 229.875 51.5703 229.677 51.9766V58H228.231V49.5469H229.599ZM239.021 47.5V49.5469H240.599V50.6641H239.021V55.9062C239.021 56.2448 239.091 56.5 239.231 56.6719C239.372 56.8385 239.612 56.9219 239.95 56.9219C240.117 56.9219 240.346 56.8906 240.638 56.8281V58C240.257 58.1042 239.888 58.1562 239.528 58.1562C238.882 58.1562 238.396 57.9609 238.067 57.5703C237.739 57.1797 237.575 56.625 237.575 55.9062V50.6641H236.036V49.5469H237.575V47.5H239.021ZM251.185 55.7578C251.185 55.3672 251.036 55.0651 250.739 54.8516C250.448 54.6328 249.935 54.4453 249.2 54.2891C248.471 54.1328 247.89 53.9453 247.458 53.7266C247.031 53.5078 246.713 53.2474 246.505 52.9453C246.302 52.6432 246.2 52.2839 246.2 51.8672C246.2 51.1745 246.492 50.5885 247.075 50.1094C247.664 49.6302 248.414 49.3906 249.325 49.3906C250.284 49.3906 251.06 49.638 251.653 50.1328C252.252 50.6276 252.552 51.2604 252.552 52.0312H251.099C251.099 51.6354 250.929 51.2943 250.591 51.0078C250.257 50.7214 249.836 50.5781 249.325 50.5781C248.799 50.5781 248.388 50.6927 248.091 50.9219C247.794 51.151 247.646 51.4505 247.646 51.8203C247.646 52.1693 247.784 52.4323 248.06 52.6094C248.336 52.7865 248.833 52.9557 249.552 53.1172C250.276 53.2786 250.862 53.4714 251.31 53.6953C251.757 53.9193 252.088 54.1901 252.302 54.5078C252.521 54.8203 252.63 55.2031 252.63 55.6562C252.63 56.4115 252.328 57.0182 251.724 57.4766C251.119 57.9297 250.336 58.1562 249.372 58.1562C248.695 58.1562 248.096 58.0365 247.575 57.7969C247.054 57.5573 246.646 57.224 246.349 56.7969C246.057 56.3646 245.911 55.8984 245.911 55.3984H247.356C247.382 55.8828 247.575 56.2682 247.935 56.5547C248.299 56.8359 248.778 56.9766 249.372 56.9766C249.919 56.9766 250.356 56.8672 250.685 56.6484C251.018 56.4245 251.185 56.1276 251.185 55.7578ZM259.731 57.1641C259.169 57.8255 258.343 58.1562 257.255 58.1562C256.354 58.1562 255.666 57.8958 255.192 57.375C254.724 56.849 254.487 56.0729 254.481 55.0469V49.5469H255.927V55.0078C255.927 56.2891 256.448 56.9297 257.489 56.9297C258.593 56.9297 259.328 56.5182 259.692 55.6953V49.5469H261.138V58H259.763L259.731 57.1641ZM266.731 56.9766C267.247 56.9766 267.698 56.8203 268.083 56.5078C268.468 56.1953 268.682 55.8047 268.724 55.3359H270.091C270.065 55.8203 269.898 56.2812 269.591 56.7188C269.284 57.1562 268.872 57.5052 268.356 57.7656C267.846 58.026 267.304 58.1562 266.731 58.1562C265.58 58.1562 264.664 57.7734 263.981 57.0078C263.304 56.237 262.966 55.1849 262.966 53.8516V53.6094C262.966 52.7865 263.117 52.0547 263.419 51.4141C263.721 50.7734 264.153 50.276 264.716 49.9219C265.284 49.5677 265.953 49.3906 266.724 49.3906C267.672 49.3906 268.458 49.6745 269.083 50.2422C269.713 50.8099 270.049 51.5469 270.091 52.4531H268.724C268.682 51.9062 268.474 51.4583 268.099 51.1094C267.729 50.7552 267.271 50.5781 266.724 50.5781C265.989 50.5781 265.419 50.8438 265.013 51.375C264.612 51.901 264.411 52.6641 264.411 53.6641V53.9375C264.411 54.9115 264.612 55.6615 265.013 56.1875C265.414 56.7135 265.987 56.9766 266.731 56.9766ZM275.106 56.9766C275.622 56.9766 276.073 56.8203 276.458 56.5078C276.843 56.1953 277.057 55.8047 277.099 55.3359H278.466C278.44 55.8203 278.273 56.2812 277.966 56.7188C277.659 57.1562 277.247 57.5052 276.731 57.7656C276.221 58.026 275.679 58.1562 275.106 58.1562C273.955 58.1562 273.039 57.7734 272.356 57.0078C271.679 56.237 271.341 55.1849 271.341 53.8516V53.6094C271.341 52.7865 271.492 52.0547 271.794 51.4141C272.096 50.7734 272.528 50.276 273.091 49.9219C273.659 49.5677 274.328 49.3906 275.099 49.3906C276.047 49.3906 276.833 49.6745 277.458 50.2422C278.088 50.8099 278.424 51.5469 278.466 52.4531H277.099C277.057 51.9062 276.849 51.4583 276.474 51.1094C276.104 50.7552 275.646 50.5781 275.099 50.5781C274.364 50.5781 273.794 50.8438 273.388 51.375C272.987 51.901 272.786 52.6641 272.786 53.6641V53.9375C272.786 54.9115 272.987 55.6615 273.388 56.1875C273.789 56.7135 274.362 56.9766 275.106 56.9766ZM283.599 58.1562C282.453 58.1562 281.521 57.7812 280.802 57.0312C280.083 56.276 279.724 55.2682 279.724 54.0078V53.7422C279.724 52.9036 279.882 52.1562 280.2 51.5C280.523 50.8385 280.971 50.3229 281.544 49.9531C282.122 49.5781 282.747 49.3906 283.419 49.3906C284.518 49.3906 285.372 49.7526 285.981 50.4766C286.591 51.2005 286.896 52.237 286.896 53.5859V54.1875H281.169C281.19 55.0208 281.432 55.6953 281.896 56.2109C282.364 56.7214 282.958 56.9766 283.677 56.9766C284.187 56.9766 284.619 56.8724 284.974 56.6641C285.328 56.4557 285.638 56.1797 285.903 55.8359L286.786 56.5234C286.078 57.612 285.015 58.1562 283.599 58.1562ZM283.419 50.5781C282.836 50.5781 282.346 50.7917 281.95 51.2188C281.554 51.6406 281.31 52.2344 281.216 53H285.45V52.8906C285.409 52.1562 285.211 51.5885 284.856 51.1875C284.502 50.7812 284.023 50.5781 283.419 50.5781ZM293.497 55.7578C293.497 55.3672 293.349 55.0651 293.052 54.8516C292.76 54.6328 292.247 54.4453 291.513 54.2891C290.784 54.1328 290.203 53.9453 289.771 53.7266C289.343 53.5078 289.026 53.2474 288.817 52.9453C288.614 52.6432 288.513 52.2839 288.513 51.8672C288.513 51.1745 288.804 50.5885 289.388 50.1094C289.976 49.6302 290.726 49.3906 291.638 49.3906C292.596 49.3906 293.372 49.638 293.966 50.1328C294.565 50.6276 294.864 51.2604 294.864 52.0312H293.411C293.411 51.6354 293.242 51.2943 292.903 51.0078C292.57 50.7214 292.148 50.5781 291.638 50.5781C291.112 50.5781 290.7 50.6927 290.403 50.9219C290.106 51.151 289.958 51.4505 289.958 51.8203C289.958 52.1693 290.096 52.4323 290.372 52.6094C290.648 52.7865 291.146 52.9557 291.864 53.1172C292.588 53.2786 293.174 53.4714 293.622 53.6953C294.07 53.9193 294.401 54.1901 294.614 54.5078C294.833 54.8203 294.942 55.2031 294.942 55.6562C294.942 56.4115 294.64 57.0182 294.036 57.4766C293.432 57.9297 292.648 58.1562 291.685 58.1562C291.007 58.1562 290.409 58.0365 289.888 57.7969C289.367 57.5573 288.958 57.224 288.661 56.7969C288.369 56.3646 288.224 55.8984 288.224 55.3984H289.669C289.695 55.8828 289.888 56.2682 290.247 56.5547C290.612 56.8359 291.091 56.9766 291.685 56.9766C292.231 56.9766 292.669 56.8672 292.997 56.6484C293.33 56.4245 293.497 56.1276 293.497 55.7578ZM301.747 55.7578C301.747 55.3672 301.599 55.0651 301.302 54.8516C301.01 54.6328 300.497 54.4453 299.763 54.2891C299.034 54.1328 298.453 53.9453 298.021 53.7266C297.593 53.5078 297.276 53.2474 297.067 52.9453C296.864 52.6432 296.763 52.2839 296.763 51.8672C296.763 51.1745 297.054 50.5885 297.638 50.1094C298.226 49.6302 298.976 49.3906 299.888 49.3906C300.846 49.3906 301.622 49.638 302.216 50.1328C302.815 50.6276 303.114 51.2604 303.114 52.0312H301.661C301.661 51.6354 301.492 51.2943 301.153 51.0078C300.82 50.7214 300.398 50.5781 299.888 50.5781C299.362 50.5781 298.95 50.6927 298.653 50.9219C298.356 51.151 298.208 51.4505 298.208 51.8203C298.208 52.1693 298.346 52.4323 298.622 52.6094C298.898 52.7865 299.396 52.9557 300.114 53.1172C300.838 53.2786 301.424 53.4714 301.872 53.6953C302.32 53.9193 302.651 54.1901 302.864 54.5078C303.083 54.8203 303.192 55.2031 303.192 55.6562C303.192 56.4115 302.89 57.0182 302.286 57.4766C301.682 57.9297 300.898 58.1562 299.935 58.1562C299.257 58.1562 298.659 58.0365 298.138 57.7969C297.617 57.5573 297.208 57.224 296.911 56.7969C296.619 56.3646 296.474 55.8984 296.474 55.3984H297.919C297.945 55.8828 298.138 56.2682 298.497 56.5547C298.862 56.8359 299.341 56.9766 299.935 56.9766C300.481 56.9766 300.919 56.8672 301.247 56.6484C301.58 56.4245 301.747 56.1276 301.747 55.7578ZM305.786 58V50.6641H304.45V49.5469H305.786V48.6797C305.786 47.7734 306.028 47.0729 306.513 46.5781C306.997 46.0833 307.682 45.8359 308.567 45.8359C308.901 45.8359 309.231 45.8802 309.56 45.9688L309.481 47.1406C309.237 47.0938 308.976 47.0703 308.7 47.0703C308.231 47.0703 307.869 47.2083 307.614 47.4844C307.359 47.7552 307.231 48.1458 307.231 48.6562V49.5469H309.036V50.6641H307.231V58H305.786ZM315.856 57.1641C315.294 57.8255 314.468 58.1562 313.38 58.1562C312.479 58.1562 311.791 57.8958 311.317 57.375C310.849 56.849 310.612 56.0729 310.606 55.0469V49.5469H312.052V55.0078C312.052 56.2891 312.573 56.9297 313.614 56.9297C314.718 56.9297 315.453 56.5182 315.817 55.6953V49.5469H317.263V58H315.888L315.856 57.1641ZM321.036 58H319.591V46H321.036V58ZM324.927 58H323.481V46H324.927V58ZM330.013 55.8828L331.981 49.5469H333.528L330.13 59.3047C329.604 60.7109 328.768 61.4141 327.622 61.4141L327.349 61.3906L326.81 61.2891V60.1172L327.2 60.1484C327.69 60.1484 328.07 60.0495 328.341 59.8516C328.617 59.6536 328.843 59.2917 329.021 58.7656L329.341 57.9062L326.325 49.5469H327.903L330.013 55.8828Z" fill="#6654A4"/>
<path d="M38.1105 61.664C40.8198 59.488 42.9425 57.7067 44.4785 56.32C46.0145 54.912 47.3052 53.4507 48.3505 51.936C49.4172 50.4 49.9505 48.896 49.9505 47.424C49.9505 46.0373 49.6092 44.9493 48.9265 44.16C48.2652 43.3493 47.1878 42.944 45.6945 42.944C44.2438 42.944 43.1132 43.4027 42.3025 44.32C41.5132 45.216 41.0865 46.4213 41.0225 47.936H38.2065C38.2918 45.5467 39.0172 43.7013 40.3825 42.4C41.7478 41.0987 43.5078 40.448 45.6625 40.448C47.8598 40.448 49.5985 41.056 50.8785 42.272C52.1798 43.488 52.8305 45.1627 52.8305 47.296C52.8305 49.0667 52.2972 50.7947 51.2305 52.48C50.1852 54.144 48.9905 55.616 47.6465 56.896C46.3025 58.1547 44.5852 59.6267 42.4945 61.312H53.5025V63.744H38.1105V61.664Z" fill="#6654A4"/>
<defs>
<filter id="filter0_d" x="0" y="0" width="594.56" height="113" filterUnits="userSpaceOnUse" color-interpolation-filters="sRGB">
<feFlood flood-opacity="0" result="BackgroundImageFix"/>
<feColorMatrix in="SourceAlpha" type="matrix" values="0 0 0 0 0 0 0 0 0 0 0 0 0 0 0 0 0 0 127 0"/>
<feMorphology radius="4" operator="dilate" in="SourceAlpha" result="effect1_dropShadow"/>
<feOffset dy="3"/>
<feGaussianBlur stdDeviation="7.5"/>
<feColorMatrix type="matrix" values="0 0 0 0 0.872109 0 0 0 0 0.853125 0 0 0 0 0.9375 0 0 0 0.5 0"/>
<feBlend mode="normal" in2="BackgroundImageFix" result="effect1_dropShadow"/>
<feBlend mode="normal" in="SourceGraphic" in2="effect1_dropShadow" result="shape"/>
</filter>
</defs>
</svg>
