<svg width="595" height="113" viewBox="0 0 595 113" fill="none" xmlns="http://www.w3.org/2000/svg">
<g filter="url(#filter0_d)">
<rect x="19" y="16" width="556.56" height="75" rx="24" fill="white"/>
</g>
<path d="M87.3096 52.9766H82.5361V58H81.0361V46.625H88.083V47.8594H82.5361V51.75H87.3096V52.9766ZM91.2236 58H89.7783V49.5469H91.2236V58ZM89.6611 47.3047C89.6611 47.0703 89.7314 46.8724 89.8721 46.7109C90.0179 46.5495 90.2314 46.4688 90.5127 46.4688C90.7939 46.4688 91.0075 46.5495 91.1533 46.7109C91.2992 46.8724 91.3721 47.0703 91.3721 47.3047C91.3721 47.5391 91.2992 47.7344 91.1533 47.8906C91.0075 48.0469 90.7939 48.125 90.5127 48.125C90.2314 48.125 90.0179 48.0469 89.8721 47.8906C89.7314 47.7344 89.6611 47.5391 89.6611 47.3047ZM95.1143 58H93.6689V46H95.1143V58ZM99.0049 58H97.5596V46H99.0049V58ZM107.255 47.5V49.5469H108.833V50.6641H107.255V55.9062C107.255 56.2448 107.325 56.5 107.466 56.6719C107.606 56.8385 107.846 56.9219 108.185 56.9219C108.351 56.9219 108.58 56.8906 108.872 56.8281V58C108.492 58.1042 108.122 58.1562 107.763 58.1562C107.117 58.1562 106.63 57.9609 106.302 57.5703C105.974 57.1797 105.81 56.625 105.81 55.9062V50.6641H104.271V49.5469H105.81V47.5H107.255ZM111.974 50.5703C112.614 49.7839 113.448 49.3906 114.474 49.3906C116.26 49.3906 117.161 50.3984 117.177 52.4141V58H115.731V52.4062C115.726 51.7969 115.586 51.3464 115.31 51.0547C115.039 50.763 114.614 50.6172 114.036 50.6172C113.567 50.6172 113.156 50.7422 112.802 50.9922C112.448 51.2422 112.172 51.5703 111.974 51.9766V58H110.528V46H111.974V50.5703ZM122.849 58.1562C121.703 58.1562 120.771 57.7812 120.052 57.0312C119.333 56.276 118.974 55.2682 118.974 54.0078V53.7422C118.974 52.9036 119.132 52.1562 119.45 51.5C119.773 50.8385 120.221 50.3229 120.794 49.9531C121.372 49.5781 121.997 49.3906 122.669 49.3906C123.768 49.3906 124.622 49.7526 125.231 50.4766C125.841 51.2005 126.146 52.237 126.146 53.5859V54.1875H120.419C120.44 55.0208 120.682 55.6953 121.146 56.2109C121.614 56.7214 122.208 56.9766 122.927 56.9766C123.437 56.9766 123.869 56.8724 124.224 56.6641C124.578 56.4557 124.888 56.1797 125.153 55.8359L126.036 56.5234C125.328 57.612 124.265 58.1562 122.849 58.1562ZM122.669 50.5781C122.086 50.5781 121.596 50.7917 121.2 51.2188C120.804 51.6406 120.56 52.2344 120.466 53H124.7V52.8906C124.659 52.1562 124.461 51.5885 124.106 51.1875C123.752 50.7812 123.273 50.5781 122.669 50.5781ZM135.88 50.8438C135.661 50.8073 135.424 50.7891 135.169 50.7891C134.221 50.7891 133.578 51.1927 133.239 52V58H131.794V49.5469H133.2L133.224 50.5234C133.698 49.7682 134.369 49.3906 135.239 49.3906C135.521 49.3906 135.734 49.4271 135.88 49.5V50.8438ZM140.567 58.1562C139.422 58.1562 138.489 57.7812 137.771 57.0312C137.052 56.276 136.692 55.2682 136.692 54.0078V53.7422C136.692 52.9036 136.851 52.1562 137.169 51.5C137.492 50.8385 137.94 50.3229 138.513 49.9531C139.091 49.5781 139.716 49.3906 140.388 49.3906C141.487 49.3906 142.341 49.7526 142.95 50.4766C143.56 51.2005 143.864 52.237 143.864 53.5859V54.1875H138.138C138.159 55.0208 138.401 55.6953 138.864 56.2109C139.333 56.7214 139.927 56.9766 140.646 56.9766C141.156 56.9766 141.588 56.8724 141.942 56.6641C142.297 56.4557 142.606 56.1797 142.872 55.8359L143.755 56.5234C143.047 57.612 141.984 58.1562 140.567 58.1562ZM140.388 50.5781C139.804 50.5781 139.315 50.7917 138.919 51.2188C138.523 51.6406 138.278 52.2344 138.185 53H142.419V52.8906C142.377 52.1562 142.179 51.5885 141.825 51.1875C141.471 50.7812 140.992 50.5781 140.388 50.5781ZM145.192 53.7031C145.192 52.375 145.497 51.3255 146.106 50.5547C146.716 49.7786 147.534 49.3906 148.56 49.3906C149.56 49.3906 150.349 49.7266 150.927 50.3984L150.989 49.5469H152.317V61.25H150.872V57.2188C150.289 57.8438 149.513 58.1562 148.544 58.1562C147.523 58.1562 146.708 57.7604 146.099 56.9688C145.494 56.1719 145.192 55.1172 145.192 53.8047V53.7031ZM146.638 53.8672C146.638 54.8359 146.841 55.5964 147.247 56.1484C147.659 56.7005 148.211 56.9766 148.903 56.9766C149.763 56.9766 150.419 56.5964 150.872 55.8359V51.6953C150.414 50.9505 149.763 50.5781 148.919 50.5781C148.221 50.5781 147.666 50.8568 147.255 51.4141C146.843 51.9661 146.638 52.7839 146.638 53.8672ZM159.856 57.1641C159.294 57.8255 158.468 58.1562 157.38 58.1562C156.479 58.1562 155.791 57.8958 155.317 57.375C154.849 56.849 154.612 56.0729 154.606 55.0469V49.5469H156.052V55.0078C156.052 56.2891 156.573 56.9297 157.614 56.9297C158.718 56.9297 159.453 56.5182 159.817 55.6953V49.5469H161.263V58H159.888L159.856 57.1641ZM166.974 58.1562C165.828 58.1562 164.896 57.7812 164.177 57.0312C163.458 56.276 163.099 55.2682 163.099 54.0078V53.7422C163.099 52.9036 163.257 52.1562 163.575 51.5C163.898 50.8385 164.346 50.3229 164.919 49.9531C165.497 49.5781 166.122 49.3906 166.794 49.3906C167.893 49.3906 168.747 49.7526 169.356 50.4766C169.966 51.2005 170.271 52.237 170.271 53.5859V54.1875H164.544C164.565 55.0208 164.807 55.6953 165.271 56.2109C165.739 56.7214 166.333 56.9766 167.052 56.9766C167.562 56.9766 167.994 56.8724 168.349 56.6641C168.703 56.4557 169.013 56.1797 169.278 55.8359L170.161 56.5234C169.453 57.612 168.39 58.1562 166.974 58.1562ZM166.794 50.5781C166.211 50.5781 165.721 50.7917 165.325 51.2188C164.929 51.6406 164.685 52.2344 164.591 53H168.825V52.8906C168.784 52.1562 168.586 51.5885 168.231 51.1875C167.877 50.7812 167.398 50.5781 166.794 50.5781ZM176.872 55.7578C176.872 55.3672 176.724 55.0651 176.427 54.8516C176.135 54.6328 175.622 54.4453 174.888 54.2891C174.159 54.1328 173.578 53.9453 173.146 53.7266C172.718 53.5078 172.401 53.2474 172.192 52.9453C171.989 52.6432 171.888 52.2839 171.888 51.8672C171.888 51.1745 172.179 50.5885 172.763 50.1094C173.351 49.6302 174.101 49.3906 175.013 49.3906C175.971 49.3906 176.747 49.638 177.341 50.1328C177.94 50.6276 178.239 51.2604 178.239 52.0312H176.786C176.786 51.6354 176.617 51.2943 176.278 51.0078C175.945 50.7214 175.523 50.5781 175.013 50.5781C174.487 50.5781 174.075 50.6927 173.778 50.9219C173.481 51.151 173.333 51.4505 173.333 51.8203C173.333 52.1693 173.471 52.4323 173.747 52.6094C174.023 52.7865 174.521 52.9557 175.239 53.1172C175.963 53.2786 176.549 53.4714 176.997 53.6953C177.445 53.9193 177.776 54.1901 177.989 54.5078C178.208 54.8203 178.317 55.2031 178.317 55.6562C178.317 56.4115 178.015 57.0182 177.411 57.4766C176.807 57.9297 176.023 58.1562 175.06 58.1562C174.382 58.1562 173.784 58.0365 173.263 57.7969C172.742 57.5573 172.333 57.224 172.036 56.7969C171.744 56.3646 171.599 55.8984 171.599 55.3984H173.044C173.07 55.8828 173.263 56.2682 173.622 56.5547C173.987 56.8359 174.466 56.9766 175.06 56.9766C175.606 56.9766 176.044 56.8672 176.372 56.6484C176.705 56.4245 176.872 56.1276 176.872 55.7578ZM182.161 47.5V49.5469H183.739V50.6641H182.161V55.9062C182.161 56.2448 182.231 56.5 182.372 56.6719C182.513 56.8385 182.752 56.9219 183.091 56.9219C183.257 56.9219 183.487 56.8906 183.778 56.8281V58C183.398 58.1042 183.028 58.1562 182.669 58.1562C182.023 58.1562 181.536 57.9609 181.208 57.5703C180.88 57.1797 180.716 56.625 180.716 55.9062V50.6641H179.177V49.5469H180.716V47.5H182.161ZM190.974 58H189.528V49.5469H190.974V58ZM189.411 47.3047C189.411 47.0703 189.481 46.8724 189.622 46.7109C189.768 46.5495 189.981 46.4688 190.263 46.4688C190.544 46.4688 190.757 46.5495 190.903 46.7109C191.049 46.8724 191.122 47.0703 191.122 47.3047C191.122 47.5391 191.049 47.7344 190.903 47.8906C190.757 48.0469 190.544 48.125 190.263 48.125C189.981 48.125 189.768 48.0469 189.622 47.8906C189.481 47.7344 189.411 47.5391 189.411 47.3047ZM194.661 49.5469L194.708 50.6094C195.354 49.7969 196.198 49.3906 197.239 49.3906C199.026 49.3906 199.927 50.3984 199.942 52.4141V58H198.497V52.4062C198.492 51.7969 198.351 51.3464 198.075 51.0547C197.804 50.763 197.38 50.6172 196.802 50.6172C196.333 50.6172 195.922 50.7422 195.567 50.9922C195.213 51.2422 194.937 51.5703 194.739 51.9766V58H193.294V49.5469H194.661ZM202.833 58V50.6641H201.497V49.5469H202.833V48.6797C202.833 47.7734 203.075 47.0729 203.56 46.5781C204.044 46.0833 204.729 45.8359 205.614 45.8359C205.948 45.8359 206.278 45.8802 206.606 45.9688L206.528 47.1406C206.284 47.0938 206.023 47.0703 205.747 47.0703C205.278 47.0703 204.916 47.2083 204.661 47.4844C204.406 47.7552 204.278 48.1458 204.278 48.6562V49.5469H206.083V50.6641H204.278V58H202.833ZM207.302 53.6953C207.302 52.8672 207.463 52.1224 207.786 51.4609C208.114 50.7995 208.567 50.2891 209.146 49.9297C209.729 49.5703 210.393 49.3906 211.138 49.3906C212.289 49.3906 213.218 49.7891 213.927 50.5859C214.64 51.3828 214.997 52.4427 214.997 53.7656V53.8672C214.997 54.6901 214.838 55.4297 214.521 56.0859C214.208 56.737 213.757 57.2448 213.169 57.6094C212.586 57.974 211.914 58.1562 211.153 58.1562C210.007 58.1562 209.078 57.7578 208.364 56.9609C207.656 56.1641 207.302 55.1094 207.302 53.7969V53.6953ZM208.755 53.8672C208.755 54.8047 208.971 55.5573 209.403 56.125C209.841 56.6927 210.424 56.9766 211.153 56.9766C211.888 56.9766 212.471 56.6901 212.903 56.1172C213.336 55.5391 213.552 54.7318 213.552 53.6953C213.552 52.7682 213.33 52.0182 212.888 51.4453C212.45 50.8672 211.867 50.5781 211.138 50.5781C210.424 50.5781 209.849 50.862 209.411 51.4297C208.974 51.9974 208.755 52.8099 208.755 53.8672ZM220.896 50.8438C220.677 50.8073 220.44 50.7891 220.185 50.7891C219.237 50.7891 218.593 51.1927 218.255 52V58H216.81V49.5469H218.216L218.239 50.5234C218.713 49.7682 219.385 49.3906 220.255 49.3906C220.536 49.3906 220.75 49.4271 220.896 49.5V50.8438ZM223.591 49.5469L223.63 50.4844C224.25 49.7552 225.086 49.3906 226.138 49.3906C227.32 49.3906 228.125 49.8438 228.552 50.75C228.833 50.3438 229.198 50.0156 229.646 49.7656C230.099 49.5156 230.632 49.3906 231.247 49.3906C233.101 49.3906 234.044 50.3724 234.075 52.3359V58H232.63V52.4219C232.63 51.8177 232.492 51.3672 232.216 51.0703C231.94 50.7682 231.476 50.6172 230.825 50.6172C230.289 50.6172 229.843 50.7786 229.489 51.1016C229.135 51.4193 228.929 51.849 228.872 52.3906V58H227.419V52.4609C227.419 51.2318 226.817 50.6172 225.614 50.6172C224.666 50.6172 224.018 51.0208 223.669 51.8281V58H222.224V49.5469H223.591ZM241.481 58C241.398 57.8333 241.33 57.5365 241.278 57.1094C240.606 57.8073 239.804 58.1562 238.872 58.1562C238.039 58.1562 237.354 57.9219 236.817 57.4531C236.286 56.9792 236.021 56.3802 236.021 55.6562C236.021 54.776 236.354 54.0938 237.021 53.6094C237.692 53.1198 238.635 52.875 239.849 52.875H241.255V52.2109C241.255 51.7057 241.104 51.3047 240.802 51.0078C240.5 50.7057 240.054 50.5547 239.466 50.5547C238.95 50.5547 238.518 50.6849 238.169 50.9453C237.82 51.2057 237.646 51.5208 237.646 51.8906H236.192C236.192 51.4688 236.341 51.0625 236.638 50.6719C236.94 50.276 237.346 49.9635 237.856 49.7344C238.372 49.5052 238.937 49.3906 239.552 49.3906C240.526 49.3906 241.289 49.6354 241.841 50.125C242.393 50.6094 242.679 51.2786 242.7 52.1328V56.0234C242.7 56.7995 242.799 57.4167 242.997 57.875V58H241.481ZM239.083 56.8984C239.536 56.8984 239.966 56.7812 240.372 56.5469C240.778 56.3125 241.073 56.0078 241.255 55.6328V53.8984H240.122C238.351 53.8984 237.466 54.4167 237.466 55.4531C237.466 55.9062 237.617 56.2604 237.919 56.5156C238.221 56.7708 238.609 56.8984 239.083 56.8984ZM246.927 47.5V49.5469H248.505V50.6641H246.927V55.9062C246.927 56.2448 246.997 56.5 247.138 56.6719C247.278 56.8385 247.518 56.9219 247.856 56.9219C248.023 56.9219 248.252 56.8906 248.544 56.8281V58C248.164 58.1042 247.794 58.1562 247.435 58.1562C246.789 58.1562 246.302 57.9609 245.974 57.5703C245.646 57.1797 245.481 56.625 245.481 55.9062V50.6641H243.942V49.5469H245.481V47.5H246.927ZM251.771 58H250.325V49.5469H251.771V58ZM250.208 47.3047C250.208 47.0703 250.278 46.8724 250.419 46.7109C250.565 46.5495 250.778 46.4688 251.06 46.4688C251.341 46.4688 251.554 46.5495 251.7 46.7109C251.846 46.8724 251.919 47.0703 251.919 47.3047C251.919 47.5391 251.846 47.7344 251.7 47.8906C251.554 48.0469 251.341 48.125 251.06 48.125C250.778 48.125 250.565 48.0469 250.419 47.8906C250.278 47.7344 250.208 47.5391 250.208 47.3047ZM253.708 53.6953C253.708 52.8672 253.869 52.1224 254.192 51.4609C254.521 50.7995 254.974 50.2891 255.552 49.9297C256.135 49.5703 256.799 49.3906 257.544 49.3906C258.695 49.3906 259.625 49.7891 260.333 50.5859C261.047 51.3828 261.403 52.4427 261.403 53.7656V53.8672C261.403 54.6901 261.244 55.4297 260.927 56.0859C260.614 56.737 260.164 57.2448 259.575 57.6094C258.992 57.974 258.32 58.1562 257.56 58.1562C256.414 58.1562 255.484 57.7578 254.771 56.9609C254.062 56.1641 253.708 55.1094 253.708 53.7969V53.6953ZM255.161 53.8672C255.161 54.8047 255.377 55.5573 255.81 56.125C256.247 56.6927 256.83 56.9766 257.56 56.9766C258.294 56.9766 258.877 56.6901 259.31 56.1172C259.742 55.5391 259.958 54.7318 259.958 53.6953C259.958 52.7682 259.737 52.0182 259.294 51.4453C258.856 50.8672 258.273 50.5781 257.544 50.5781C256.83 50.5781 256.255 50.862 255.817 51.4297C255.38 51.9974 255.161 52.8099 255.161 53.8672ZM264.583 49.5469L264.63 50.6094C265.276 49.7969 266.119 49.3906 267.161 49.3906C268.948 49.3906 269.849 50.3984 269.864 52.4141V58H268.419V52.4062C268.414 51.7969 268.273 51.3464 267.997 51.0547C267.726 50.763 267.302 50.6172 266.724 50.6172C266.255 50.6172 265.843 50.7422 265.489 50.9922C265.135 51.2422 264.859 51.5703 264.661 51.9766V58H263.216V49.5469H264.583ZM275.661 53.7031C275.661 52.4062 275.968 51.3646 276.583 50.5781C277.198 49.7865 278.002 49.3906 278.997 49.3906C279.987 49.3906 280.771 49.7292 281.349 50.4062V46H282.794V58H281.466L281.396 57.0938C280.817 57.8021 280.013 58.1562 278.981 58.1562C278.002 58.1562 277.203 57.7552 276.583 56.9531C275.968 56.151 275.661 55.1042 275.661 53.8125V53.7031ZM277.106 53.8672C277.106 54.8255 277.304 55.5755 277.7 56.1172C278.096 56.6589 278.643 56.9297 279.341 56.9297C280.257 56.9297 280.927 56.5182 281.349 55.6953V51.8125C280.916 51.0156 280.252 50.6172 279.356 50.6172C278.648 50.6172 278.096 50.8906 277.7 51.4375C277.304 51.9844 277.106 52.7943 277.106 53.8672ZM288.552 58.1562C287.406 58.1562 286.474 57.7812 285.755 57.0312C285.036 56.276 284.677 55.2682 284.677 54.0078V53.7422C284.677 52.9036 284.836 52.1562 285.153 51.5C285.476 50.8385 285.924 50.3229 286.497 49.9531C287.075 49.5781 287.7 49.3906 288.372 49.3906C289.471 49.3906 290.325 49.7526 290.935 50.4766C291.544 51.2005 291.849 52.237 291.849 53.5859V54.1875H286.122C286.143 55.0208 286.385 55.6953 286.849 56.2109C287.317 56.7214 287.911 56.9766 288.63 56.9766C289.14 56.9766 289.573 56.8724 289.927 56.6641C290.281 56.4557 290.591 56.1797 290.856 55.8359L291.739 56.5234C291.031 57.612 289.968 58.1562 288.552 58.1562ZM288.372 50.5781C287.789 50.5781 287.299 50.7917 286.903 51.2188C286.507 51.6406 286.263 52.2344 286.169 53H290.403V52.8906C290.362 52.1562 290.164 51.5885 289.81 51.1875C289.455 50.7812 288.976 50.5781 288.372 50.5781ZM295.489 47.5V49.5469H297.067V50.6641H295.489V55.9062C295.489 56.2448 295.56 56.5 295.7 56.6719C295.841 56.8385 296.08 56.9219 296.419 56.9219C296.586 56.9219 296.815 56.8906 297.106 56.8281V58C296.726 58.1042 296.356 58.1562 295.997 58.1562C295.351 58.1562 294.864 57.9609 294.536 57.5703C294.208 57.1797 294.044 56.625 294.044 55.9062V50.6641H292.505V49.5469H294.044V47.5H295.489ZM303.981 58C303.898 57.8333 303.83 57.5365 303.778 57.1094C303.106 57.8073 302.304 58.1562 301.372 58.1562C300.539 58.1562 299.854 57.9219 299.317 57.4531C298.786 56.9792 298.521 56.3802 298.521 55.6562C298.521 54.776 298.854 54.0938 299.521 53.6094C300.192 53.1198 301.135 52.875 302.349 52.875H303.755V52.2109C303.755 51.7057 303.604 51.3047 303.302 51.0078C303 50.7057 302.554 50.5547 301.966 50.5547C301.45 50.5547 301.018 50.6849 300.669 50.9453C300.32 51.2057 300.146 51.5208 300.146 51.8906H298.692C298.692 51.4688 298.841 51.0625 299.138 50.6719C299.44 50.276 299.846 49.9635 300.356 49.7344C300.872 49.5052 301.437 49.3906 302.052 49.3906C303.026 49.3906 303.789 49.6354 304.341 50.125C304.893 50.6094 305.179 51.2786 305.2 52.1328V56.0234C305.2 56.7995 305.299 57.4167 305.497 57.875V58H303.981ZM301.583 56.8984C302.036 56.8984 302.466 56.7812 302.872 56.5469C303.278 56.3125 303.573 56.0078 303.755 55.6328V53.8984H302.622C300.851 53.8984 299.966 54.4167 299.966 55.4531C299.966 55.9062 300.117 56.2604 300.419 56.5156C300.721 56.7708 301.109 56.8984 301.583 56.8984ZM309.036 58H307.591V49.5469H309.036V58ZM307.474 47.3047C307.474 47.0703 307.544 46.8724 307.685 46.7109C307.83 46.5495 308.044 46.4688 308.325 46.4688C308.606 46.4688 308.82 46.5495 308.966 46.7109C309.112 46.8724 309.185 47.0703 309.185 47.3047C309.185 47.5391 309.112 47.7344 308.966 47.8906C308.82 48.0469 308.606 48.125 308.325 48.125C308.044 48.125 307.83 48.0469 307.685 47.8906C307.544 47.7344 307.474 47.5391 307.474 47.3047ZM312.927 58H311.481V46H312.927V58ZM320.169 55.7578C320.169 55.3672 320.021 55.0651 319.724 54.8516C319.432 54.6328 318.919 54.4453 318.185 54.2891C317.455 54.1328 316.875 53.9453 316.442 53.7266C316.015 53.5078 315.698 53.2474 315.489 52.9453C315.286 52.6432 315.185 52.2839 315.185 51.8672C315.185 51.1745 315.476 50.5885 316.06 50.1094C316.648 49.6302 317.398 49.3906 318.31 49.3906C319.268 49.3906 320.044 49.638 320.638 50.1328C321.237 50.6276 321.536 51.2604 321.536 52.0312H320.083C320.083 51.6354 319.914 51.2943 319.575 51.0078C319.242 50.7214 318.82 50.5781 318.31 50.5781C317.784 50.5781 317.372 50.6927 317.075 50.9219C316.778 51.151 316.63 51.4505 316.63 51.8203C316.63 52.1693 316.768 52.4323 317.044 52.6094C317.32 52.7865 317.817 52.9557 318.536 53.1172C319.26 53.2786 319.846 53.4714 320.294 53.6953C320.742 53.9193 321.073 54.1901 321.286 54.5078C321.505 54.8203 321.614 55.2031 321.614 55.6562C321.614 56.4115 321.312 57.0182 320.708 57.4766C320.104 57.9297 319.32 58.1562 318.356 58.1562C317.679 58.1562 317.08 58.0365 316.56 57.7969C316.039 57.5573 315.63 57.224 315.333 56.7969C315.041 56.3646 314.896 55.8984 314.896 55.3984H316.341C316.367 55.8828 316.56 56.2682 316.919 56.5547C317.284 56.8359 317.763 56.9766 318.356 56.9766C318.903 56.9766 319.341 56.8672 319.669 56.6484C320.002 56.4245 320.169 56.1276 320.169 55.7578ZM323.528 57.2422C323.528 56.9922 323.601 56.7839 323.747 56.6172C323.898 56.4505 324.122 56.3672 324.419 56.3672C324.716 56.3672 324.94 56.4505 325.091 56.6172C325.247 56.7839 325.325 56.9922 325.325 57.2422C325.325 57.4818 325.247 57.6823 325.091 57.8438C324.94 58.0052 324.716 58.0859 324.419 58.0859C324.122 58.0859 323.898 58.0052 323.747 57.8438C323.601 57.6823 323.528 57.4818 323.528 57.2422Z" fill="#6654A4"/>
<path d="M46.2865 64H49.2305V40.864H43.2145V43.52H46.2865V64Z" fill="#6654A4"/>
<defs>
<filter id="filter0_d" x="0" y="0" width="594.56" height="113" filterUnits="userSpaceOnUse" color-interpolation-filters="sRGB">
<feFlood flood-opacity="0" result="BackgroundImageFix"/>
<feColorMatrix in="SourceAlpha" type="matrix" values="0 0 0 0 0 0 0 0 0 0 0 0 0 0 0 0 0 0 127 0"/>
<feMorphology radius="4" operator="dilate" in="SourceAlpha" result="effect1_dropShadow"/>
<feOffset dy="3"/>
<feGaussianBlur stdDeviation="7.5"/>
<feColorMatrix type="matrix" values="0 0 0 0 0.872109 0 0 0 0 0.853125 0 0 0 0 0.9375 0 0 0 0.5 0"/>
<feBlend mode="normal" in2="BackgroundImageFix" result="effect1_dropShadow"/>
<feBlend mode="normal" in="SourceGraphic" in2="effect1_dropShadow" result="shape"/>
</filter>
</defs>
</svg>
