<svg width="220" height="179" viewBox="0 0 220 179" fill="none" xmlns="http://www.w3.org/2000/svg">
<path d="M9.78609 68.0287C13.6023 62.0105 17.9733 58.4158 22.7165 56.5387C30.0048 53.6288 38.1915 54.7453 46.6559 57.2604C46.9144 57.3294 47.1629 57.4052 47.4214 57.481C48.5701 57.8384 49.7273 58.2132 50.893 58.6054C64.1774 63.0965 77.893 69.86 89.7522 68.9478C95.1752 68.5298 101.086 66.7438 107.425 64.3883C113.096 62.2759 119.131 59.6997 125.473 57.2299C126.601 56.7868 127.737 56.3561 128.887 55.9229C131.814 54.8285 134.807 53.7799 137.868 52.8215C155.016 47.4555 174.116 45.0857 194.65 55.0712C208.976 62.0395 237.725 101.623 204.845 140.737C168.31 184.211 70.746 183.528 42.5128 171.171C-7.45773 149.302 -6.06161 93.0073 9.78609 68.0287Z" fill="#D6DCFD"/>
<path d="M90.7147 120.504C112.897 120.504 130.879 102.522 130.879 80.3397C130.879 58.1578 112.897 40.1758 90.7147 40.1758C68.5328 40.1758 50.5508 58.1578 50.5508 80.3397C50.5508 102.522 68.5328 120.504 90.7147 120.504Z" fill="#7A67D3"/>
<path d="M113.975 21.2559H67.4523C64.3812 21.2559 61.8916 23.7455 61.8916 26.8166V123.479C61.8916 126.55 64.3812 129.04 67.4523 129.04H113.975C117.046 129.04 119.536 126.55 119.536 123.479V26.8166C119.536 23.7455 117.046 21.2559 113.975 21.2559Z" fill="black"/>
<path d="M103.125 25.0958V26.5638C103.125 27.1409 102.896 27.6945 102.488 28.1028C102.08 28.511 101.526 28.7405 100.949 28.7408H80.4806C80.1948 28.7407 79.9119 28.6842 79.6479 28.5748C79.384 28.4653 79.1442 28.3049 78.9423 28.1027C78.7403 27.9006 78.5801 27.6606 78.4709 27.3965C78.3616 27.1325 78.3055 26.8495 78.3057 26.5638V25.0958C78.3057 25.0027 78.2874 24.9105 78.2518 24.8245C78.2162 24.7385 78.1641 24.6603 78.0983 24.5945C78.0325 24.5286 77.9543 24.4764 77.8683 24.4407C77.7823 24.4051 77.6902 24.3867 77.5971 24.3867H69.1313C68.6269 24.3869 68.1275 24.4865 67.6616 24.6797C67.1956 24.873 66.7723 25.1561 66.4157 25.513C66.0592 25.8699 65.7764 26.2935 65.5836 26.7596C65.3908 27.2257 65.2917 27.7253 65.292 28.2297V122.066C65.2917 122.571 65.3908 123.07 65.5836 123.537C65.7764 124.003 66.0592 124.426 66.4157 124.783C66.7723 125.14 67.1956 125.423 67.6616 125.616C68.1275 125.81 68.6269 125.909 69.1313 125.909H112.296C112.8 125.909 113.3 125.81 113.766 125.616C114.232 125.423 114.655 125.14 115.012 124.783C115.368 124.426 115.651 124.003 115.844 123.537C116.037 123.071 116.136 122.571 116.136 122.066V28.2297C116.136 27.7253 116.037 27.2257 115.844 26.7596C115.651 26.2934 115.368 25.8698 115.012 25.513C114.655 25.1561 114.232 24.873 113.766 24.6797C113.3 24.4865 112.8 24.3869 112.296 24.3867H103.83C103.643 24.3875 103.463 24.4627 103.331 24.5956C103.199 24.7285 103.125 24.9084 103.125 25.0958Z" fill="white"/>
<path d="M117.5 115.188H64.3301V126.268H117.5V115.188Z" fill="black"/>
<path d="M91.5019 125.427C93.7251 125.427 95.5273 123.623 95.5273 121.398C95.5273 119.173 93.7251 117.369 91.5019 117.369C89.2788 117.369 87.4766 119.173 87.4766 121.398C87.4766 123.623 89.2788 125.427 91.5019 125.427Z" fill="#545454"/>
<path d="M94.5236 121.395C94.5238 121.792 94.446 122.185 94.2944 122.551C94.1428 122.918 93.9204 123.251 93.6401 123.531C93.3597 123.812 93.0269 124.035 92.6605 124.187C92.2941 124.339 91.9014 124.417 91.5048 124.417C91.1081 124.417 90.7153 124.339 90.3489 124.187C89.9824 124.035 89.6495 123.812 89.3691 123.532C89.0887 123.251 88.8664 122.918 88.7147 122.551C88.5631 122.185 88.4851 121.792 88.4854 121.395C88.4851 120.998 88.5631 120.606 88.7147 120.239C88.8664 119.872 89.0887 119.539 89.3691 119.259C89.6495 118.978 89.9824 118.755 90.3489 118.603C90.7153 118.451 91.1081 118.373 91.5048 118.373C91.9014 118.373 92.2941 118.452 92.6605 118.604C93.0269 118.756 93.3597 118.978 93.6401 119.259C93.9204 119.539 94.1428 119.873 94.2944 120.239C94.446 120.606 94.5238 120.998 94.5236 121.395Z" fill="#737373"/>
<path d="M95.2422 25.1992H82.8317C82.4608 25.1992 82.1602 25.4999 82.1602 25.8707C82.1602 26.2416 82.4608 26.5422 82.8317 26.5422H95.2422C95.6131 26.5422 95.9137 26.2416 95.9137 25.8707C95.9137 25.4999 95.6131 25.1992 95.2422 25.1992Z" fill="#A4A5A4"/>
<path d="M99.2669 25.8708C99.267 26.003 99.2409 26.134 99.1904 26.2561C99.1398 26.3783 99.0658 26.4893 98.9723 26.5829C98.8788 26.6764 98.7678 26.7505 98.6457 26.8011C98.5235 26.8518 98.3926 26.8778 98.2604 26.8778C97.9934 26.8777 97.7374 26.7715 97.5487 26.5827C97.3599 26.3939 97.2539 26.1378 97.2539 25.8708C97.2538 25.7386 97.2798 25.6076 97.3304 25.4854C97.3809 25.3632 97.455 25.2522 97.5485 25.1586C97.642 25.065 97.753 24.9908 97.8751 24.9401C97.9972 24.8895 98.1282 24.8633 98.2604 24.8633C98.3926 24.8633 98.5236 24.8895 98.6458 24.9401C98.7679 24.9908 98.8788 25.065 98.9723 25.1586C99.0658 25.2522 99.1399 25.3632 99.1904 25.4854C99.2409 25.6076 99.267 25.7386 99.2669 25.8708Z" fill="#A4A5A4"/>
<path d="M80.2068 79.75V85.3034H79.1742V80.6144H78.001V79.75H80.2068Z" fill="#263238"/>
<path d="M81.3096 82.5282C81.3096 80.7039 82.3092 79.6719 83.6266 79.6719C84.944 79.6719 85.951 80.7039 85.951 82.5282C85.951 84.3525 84.9514 85.3846 83.6266 85.3846C82.3019 85.3846 81.3096 84.3536 81.3096 82.5282ZM84.9116 82.5282C84.9116 81.1873 84.3891 80.5691 83.6266 80.5691C82.8736 80.5691 82.3489 81.1873 82.3489 82.5282C82.3489 83.8691 82.8715 84.4879 83.6266 84.4879C84.3885 84.4879 84.9116 83.8697 84.9116 82.5282Z" fill="#263238"/>
<path d="M86.6133 82.5282C86.6133 80.7039 87.6129 79.6719 88.9303 79.6719C90.2478 79.6719 91.2547 80.7039 91.2547 82.5282C91.2547 84.3525 90.2551 85.3846 88.9303 85.3846C87.6056 85.3846 86.6133 84.3536 86.6133 82.5282ZM90.2153 82.5282C90.2153 81.1873 89.6928 80.5691 88.9303 80.5691C88.1773 80.5691 87.6527 81.1873 87.6527 82.5282C87.6527 83.8691 88.1752 84.4879 88.9303 84.4879C89.6923 84.4879 90.2153 83.8697 90.2153 82.5282Z" fill="#263238"/>
<path d="M92.2944 84.7021C92.2912 84.6155 92.3057 84.529 92.3371 84.4482C92.3685 84.3674 92.4161 84.2939 92.477 84.2322C92.5379 84.1704 92.6108 84.1218 92.6912 84.0893C92.7716 84.0568 92.8578 84.0411 92.9445 84.0431C93.0312 84.0411 93.1175 84.0568 93.198 84.0893C93.2785 84.1218 93.3514 84.1703 93.4124 84.232C93.4735 84.2937 93.5212 84.3673 93.5528 84.4481C93.5844 84.5289 93.5991 84.6154 93.5961 84.7021C93.5977 84.7884 93.582 84.8742 93.5499 84.9544C93.5178 85.0346 93.47 85.1075 93.4093 85.1689C93.3485 85.2302 93.2761 85.2788 93.1963 85.3118C93.1164 85.3447 93.0308 85.3613 92.9445 85.3606C92.8582 85.3612 92.7727 85.3445 92.693 85.3116C92.6133 85.2786 92.541 85.23 92.4804 85.1686C92.4198 85.1072 92.3721 85.0343 92.3401 84.9542C92.3082 84.8741 92.2926 84.7883 92.2944 84.7021Z" fill="#263238"/>
<path d="M94.168 82.5282C94.168 80.7039 95.1666 79.6719 96.484 79.6719C97.8014 79.6719 98.8084 80.7039 98.8084 82.5282C98.8084 84.3525 97.8082 85.3846 96.484 85.3846C95.1598 85.3846 94.168 84.3536 94.168 82.5282ZM97.7685 82.5282C97.7685 81.1873 97.2459 80.5691 96.484 80.5691C95.7305 80.5691 95.2058 81.1873 95.2058 82.5282C95.2058 83.8691 95.7284 84.4879 96.484 84.4879C97.2454 84.4879 97.7685 83.8697 97.7685 82.5282Z" fill="#263238"/>
<path d="M103.546 83.5997C103.546 84.5758 102.839 85.3848 101.347 85.3848C100.6 85.4006 99.8688 85.1751 99.2607 84.742L99.6966 83.9409C100.164 84.3019 100.74 84.4946 101.331 84.488C102.069 84.488 102.506 84.163 102.506 83.6399C102.506 83.1079 102.165 82.7745 101.014 82.7745H99.6741L99.9589 79.752H103.22V80.6163H100.832L100.712 81.9023H101.244C102.887 81.9023 103.546 82.6157 103.546 83.5997Z" fill="#263238"/>
<path d="M107.591 93.3164H77.2852C74.3668 93.3164 72.001 95.6822 72.001 98.6007V98.6054C72.001 101.524 74.3668 103.89 77.2852 103.89H107.591C110.51 103.89 112.876 101.524 112.876 98.6054V98.6007C112.876 95.6822 110.51 93.3164 107.591 93.3164Z" fill="#6654A4"/>
<path d="M80.2686 98.8018L80.6904 98.7607C80.7158 98.9023 80.7671 99.0063 80.8442 99.0728C80.9224 99.1392 81.0273 99.1724 81.1592 99.1724C81.2988 99.1724 81.4038 99.1431 81.4741 99.0845C81.5454 99.0249 81.5811 98.9556 81.5811 98.8765C81.5811 98.8257 81.5659 98.7827 81.5356 98.7476C81.5063 98.7114 81.4546 98.6802 81.3804 98.6538C81.3296 98.6362 81.2139 98.605 81.0332 98.5601C80.8008 98.5024 80.6377 98.4316 80.5439 98.3477C80.4121 98.2295 80.3462 98.0854 80.3462 97.9155C80.3462 97.8062 80.377 97.7041 80.4385 97.6094C80.501 97.5137 80.5903 97.4409 80.7065 97.3911C80.8237 97.3413 80.9648 97.3164 81.1299 97.3164C81.3994 97.3164 81.6021 97.3755 81.7378 97.4937C81.8745 97.6118 81.9463 97.7695 81.9531 97.9668L81.5195 97.9858C81.501 97.8755 81.4609 97.7964 81.3994 97.7485C81.3389 97.6997 81.2476 97.6753 81.1255 97.6753C80.9995 97.6753 80.9009 97.7012 80.8296 97.7529C80.7837 97.7861 80.7607 97.8306 80.7607 97.8862C80.7607 97.937 80.7822 97.9805 80.8252 98.0166C80.8799 98.0625 81.0127 98.1104 81.2236 98.1602C81.4346 98.21 81.5903 98.2617 81.6909 98.3154C81.7925 98.3682 81.8716 98.4409 81.9282 98.5337C81.9858 98.6255 82.0146 98.7393 82.0146 98.875C82.0146 98.998 81.9805 99.1133 81.9121 99.2207C81.8438 99.3281 81.7471 99.4082 81.6221 99.4609C81.4971 99.5127 81.3413 99.5386 81.1548 99.5386C80.8833 99.5386 80.6748 99.4761 80.5293 99.3511C80.3838 99.2251 80.2969 99.042 80.2686 98.8018Z" fill="white"/>
<path d="M82.3794 99.5005V97.353H83.9717V97.7163H82.813V98.1924H83.8911V98.5542H82.813V99.1387H84.0127V99.5005H82.3794Z" fill="white"/>
<path d="M84.3848 99.5005V97.353H84.8066L85.6855 98.7871V97.353H86.0884V99.5005H85.6533L84.7876 98.1001V99.5005H84.3848Z" fill="white"/>
<path d="M86.5469 97.353H87.3394C87.5181 97.353 87.6543 97.3667 87.748 97.394C87.874 97.4312 87.9819 97.4971 88.0718 97.5918C88.1616 97.6865 88.23 97.8027 88.2769 97.9404C88.3237 98.0771 88.3472 98.2461 88.3472 98.4473C88.3472 98.624 88.3252 98.7764 88.2812 98.9043C88.2275 99.0605 88.1509 99.187 88.0513 99.2837C87.9761 99.3569 87.8745 99.4141 87.7466 99.4551C87.6509 99.4854 87.5229 99.5005 87.3628 99.5005H86.5469V97.353ZM86.9805 97.7163V99.1387H87.3042C87.4253 99.1387 87.5127 99.1318 87.5664 99.1182C87.6367 99.1006 87.6948 99.0708 87.7407 99.0288C87.7876 98.9868 87.8257 98.918 87.855 98.8223C87.8843 98.7256 87.8989 98.5942 87.8989 98.4282C87.8989 98.2622 87.8843 98.1348 87.855 98.0459C87.8257 97.957 87.7847 97.8877 87.7319 97.8379C87.6792 97.7881 87.6123 97.7544 87.5312 97.7368C87.4707 97.7231 87.3521 97.7163 87.1753 97.7163H86.9805Z" fill="white"/>
<path d="M89.5527 99.5005V97.353H90.4653C90.6948 97.353 90.8613 97.3726 90.9648 97.4116C91.0693 97.4497 91.1528 97.5181 91.2153 97.6167C91.2778 97.7153 91.3091 97.8281 91.3091 97.9551C91.3091 98.1162 91.2617 98.2495 91.167 98.355C91.0723 98.4595 90.9307 98.5254 90.7422 98.5527C90.8359 98.6074 90.9131 98.6675 90.9736 98.7329C91.0352 98.7983 91.1177 98.9146 91.2212 99.0815L91.4834 99.5005H90.9648L90.6514 99.0332C90.54 98.8662 90.4639 98.7612 90.4229 98.7183C90.3818 98.6743 90.3384 98.6445 90.2925 98.6289C90.2466 98.6123 90.1738 98.604 90.0742 98.604H89.9863V99.5005H89.5527ZM89.9863 98.2612H90.3071C90.5151 98.2612 90.645 98.2524 90.6968 98.2349C90.7485 98.2173 90.7891 98.187 90.8184 98.144C90.8477 98.1011 90.8623 98.0474 90.8623 97.9829C90.8623 97.9106 90.8428 97.8525 90.8037 97.8086C90.7656 97.7637 90.7114 97.7354 90.6411 97.7236C90.606 97.7188 90.5005 97.7163 90.3247 97.7163H89.9863V98.2612Z" fill="white"/>
<path d="M91.7192 99.5005V97.353H93.3115V97.7163H92.1528V98.1924H93.231V98.5542H92.1528V99.1387H93.3525V99.5005H91.7192Z" fill="white"/>
<path d="M95.4487 99.228C95.5552 99.3042 95.6709 99.3647 95.7959 99.4097L95.6362 99.7158C95.5708 99.6963 95.5068 99.6694 95.4443 99.6353C95.4307 99.6284 95.3345 99.5649 95.1558 99.4448C95.0151 99.5063 94.8594 99.5371 94.6885 99.5371C94.3584 99.5371 94.0996 99.4399 93.9121 99.2456C93.7256 99.0513 93.6323 98.7783 93.6323 98.4268C93.6323 98.0762 93.7261 97.8037 93.9136 97.6094C94.1011 97.4141 94.3555 97.3164 94.6768 97.3164C94.9951 97.3164 95.2476 97.4141 95.4341 97.6094C95.6206 97.8037 95.7139 98.0762 95.7139 98.4268C95.7139 98.6123 95.688 98.7754 95.6362 98.916C95.5972 99.0234 95.5347 99.1274 95.4487 99.228ZM95.1001 98.9834C95.1558 98.918 95.1973 98.8389 95.2246 98.7461C95.2529 98.6533 95.2671 98.5469 95.2671 98.4268C95.2671 98.1787 95.2124 97.9937 95.103 97.8716C94.9937 97.7485 94.8506 97.687 94.6738 97.687C94.4971 97.687 94.3535 97.7485 94.2432 97.8716C94.1338 97.9946 94.0791 98.1797 94.0791 98.4268C94.0791 98.6777 94.1338 98.8657 94.2432 98.9907C94.3535 99.1147 94.4927 99.1768 94.6606 99.1768C94.7231 99.1768 94.7822 99.1665 94.8379 99.146C94.75 99.0884 94.6606 99.0435 94.5698 99.0112L94.6914 98.7637C94.834 98.8125 94.9702 98.8857 95.1001 98.9834Z" fill="white"/>
<path d="M96.0522 97.353H96.4858V98.5161C96.4858 98.7007 96.4912 98.8203 96.502 98.875C96.5205 98.9629 96.5645 99.0337 96.6338 99.0874C96.7041 99.1401 96.7998 99.1665 96.9209 99.1665C97.0439 99.1665 97.1367 99.1416 97.1992 99.0918C97.2617 99.041 97.2993 98.979 97.312 98.9058C97.3247 98.8325 97.3311 98.7109 97.3311 98.541V97.353H97.7646V98.481C97.7646 98.7388 97.7529 98.9209 97.7295 99.0273C97.7061 99.1338 97.6626 99.2236 97.5991 99.2969C97.5366 99.3701 97.4526 99.4287 97.3472 99.4727C97.2417 99.5156 97.104 99.5371 96.9341 99.5371C96.729 99.5371 96.5732 99.5137 96.4668 99.4668C96.3613 99.4189 96.2778 99.3574 96.2163 99.2822C96.1548 99.2061 96.1143 99.1265 96.0947 99.0435C96.0664 98.9204 96.0522 98.7388 96.0522 98.4985V97.353Z" fill="white"/>
<path d="M98.2231 99.5005V97.353H99.8154V97.7163H98.6567V98.1924H99.7349V98.5542H98.6567V99.1387H99.8564V99.5005H98.2231Z" fill="white"/>
<path d="M100.114 98.8018L100.536 98.7607C100.562 98.9023 100.613 99.0063 100.69 99.0728C100.768 99.1392 100.873 99.1724 101.005 99.1724C101.145 99.1724 101.25 99.1431 101.32 99.0845C101.391 99.0249 101.427 98.9556 101.427 98.8765C101.427 98.8257 101.412 98.7827 101.381 98.7476C101.352 98.7114 101.3 98.6802 101.226 98.6538C101.175 98.6362 101.06 98.605 100.879 98.5601C100.646 98.5024 100.483 98.4316 100.39 98.3477C100.258 98.2295 100.192 98.0854 100.192 97.9155C100.192 97.8062 100.223 97.7041 100.284 97.6094C100.347 97.5137 100.436 97.4409 100.552 97.3911C100.669 97.3413 100.811 97.3164 100.976 97.3164C101.245 97.3164 101.448 97.3755 101.583 97.4937C101.72 97.6118 101.792 97.7695 101.799 97.9668L101.365 97.9858C101.347 97.8755 101.307 97.7964 101.245 97.7485C101.185 97.6997 101.093 97.6753 100.971 97.6753C100.845 97.6753 100.747 97.7012 100.675 97.7529C100.629 97.7861 100.606 97.8306 100.606 97.8862C100.606 97.937 100.628 97.9805 100.671 98.0166C100.726 98.0625 100.858 98.1104 101.069 98.1602C101.28 98.21 101.436 98.2617 101.537 98.3154C101.638 98.3682 101.717 98.4409 101.774 98.5337C101.832 98.6255 101.86 98.7393 101.86 98.875C101.86 98.998 101.826 99.1133 101.758 99.2207C101.689 99.3281 101.593 99.4082 101.468 99.4609C101.343 99.5127 101.187 99.5386 101 99.5386C100.729 99.5386 100.521 99.4761 100.375 99.3511C100.229 99.2251 100.143 99.042 100.114 98.8018Z" fill="white"/>
<path d="M102.708 99.5005V97.7163H102.071V97.353H103.778V97.7163H103.142V99.5005H102.708Z" fill="white"/>
<path d="M89.4134 49.7734H69.8984V50.7371H89.4134V49.7734Z" fill="#6654A4"/>
<path d="M89.4134 53.3926H69.8984V54.3562H89.4134V53.3926Z" fill="#6654A4"/>
<path d="M111.639 49.7734H92.124V50.7371H111.639V49.7734Z" fill="#6654A4"/>
<path d="M111.639 53.3926H92.124V54.3562H111.639V53.3926Z" fill="#6654A4"/>
<path d="M89.4134 56.8574H69.8984V57.821H89.4134V56.8574Z" fill="#6654A4"/>
<path d="M89.4134 60.4766H69.8984V61.4402H89.4134V60.4766Z" fill="#6654A4"/>
<path d="M111.639 56.8574H92.124V57.821H111.639V56.8574Z" fill="#6654A4"/>
<path d="M111.639 60.4766H92.124V61.4402H111.639V60.4766Z" fill="#6654A4"/>
<path d="M63.3213 65.1094C63.3213 65.1094 67.6681 68.8593 68.615 73.226C69.8854 79.084 63.844 87.9578 64.1768 95.1798C64.5614 103.527 69.1057 107.133 71.8716 112.665C75.0698 119.061 74.841 123.266 74.841 125.457C74.8548 126.729 74.5794 127.988 74.0357 129.138H104.05C104.05 129.138 98.1346 138.12 86.523 145.35C77.0216 151.266 72.0634 161.341 72.0634 161.341H30L45.1441 136.191C45.1441 136.191 42.4028 122.942 44.0212 113.362C46.9486 96.0321 63.3213 65.1094 63.3213 65.1094Z" fill="#B78876"/>
<path d="M74.1748 129.049C74.1748 129.049 72.5757 132.015 70.7075 135.051C68.8393 138.086 67.6719 139.721 67.6719 139.721C67.6719 139.721 72.0876 138.525 74.9106 136.452C77.7377 134.366 80.269 131.907 82.4356 129.141L74.1748 129.049Z" fill="#996552"/>
<path d="M115.892 2.69621L117.194 0.316406L118.495 2.69621C119.797 5.07593 121.754 7.03257 124.133 8.33424L126.513 9.63599L124.133 10.9372C121.754 12.2389 119.797 14.1955 118.495 16.5752L117.194 18.955L115.892 16.5752C114.591 14.1954 112.634 12.2387 110.254 10.9372L107.875 9.63599L110.254 8.33424C112.634 7.03274 114.591 5.07605 115.892 2.69621Z" fill="#6654A4"/>
<path d="M92.1928 11.3157L92.7452 10.3066L93.297 11.3157C93.8487 12.3253 94.6787 13.1553 95.6883 13.707L96.6974 14.2589L95.6883 14.8107C94.679 15.3628 93.8491 16.1927 93.297 17.202L92.7452 18.2111L92.1928 17.202C91.6408 16.1928 90.8111 15.363 89.802 14.8107L88.793 14.2589L89.802 13.707C90.8114 13.1552 91.6412 12.3252 92.1928 11.3157Z" fill="#6654A4"/>
<path d="M126.704 38.7556L126.958 38.291L127.212 38.7556C127.466 39.2201 127.848 39.6022 128.313 39.8566L128.777 40.1106L128.313 40.3646C127.848 40.619 127.466 41.0011 127.212 41.4657L126.958 41.9302L126.704 41.4657C126.449 41.0011 126.067 40.619 125.603 40.3646L125.138 40.1106L125.603 39.8566C126.067 39.6021 126.449 39.2201 126.704 38.7556Z" fill="#6654A4"/>
<path d="M129.746 20.2866L130.21 19.4395L130.673 20.2866C131.137 21.134 131.833 21.8308 132.681 22.2943L133.528 22.7578L132.681 23.2213C131.833 23.6848 131.137 24.3816 130.673 25.2291L130.21 26.0761L129.746 25.2291C129.283 24.3815 128.586 23.6847 127.739 23.2213L126.892 22.7578L127.739 22.2943C128.586 21.8309 129.283 21.1341 129.746 20.2866Z" fill="#6654A4"/>
<path d="M81 72.5762L82.3745 68.9971H82.8848L84.3496 72.5762H83.8101L83.3926 71.4922H81.896L81.5029 72.5762H81ZM82.0327 71.1064H83.2461L82.8726 70.1152C82.7586 69.8141 82.674 69.5667 82.6187 69.373C82.5731 69.6025 82.5088 69.8304 82.4258 70.0566L82.0327 71.1064Z" fill="#263238"/>
<path d="M84.7134 72.5762V68.9971H85.4263L86.2734 71.5312C86.3516 71.7673 86.4085 71.9438 86.4443 72.061C86.485 71.9308 86.5485 71.7396 86.6348 71.4873L87.4917 68.9971H88.1289V72.5762H87.6724V69.5806L86.6323 72.5762H86.2051L85.1699 69.5293V72.5762H84.7134Z" fill="#263238"/>
<path d="M88.749 70.833C88.749 70.2389 88.9085 69.7743 89.2275 69.439C89.5465 69.1021 89.9583 68.9336 90.4629 68.9336C90.7933 68.9336 91.0911 69.0125 91.3564 69.1704C91.6217 69.3283 91.8236 69.5488 91.9619 69.832C92.1019 70.1136 92.1719 70.4334 92.1719 70.7915C92.1719 71.1545 92.0986 71.4792 91.9521 71.7656C91.8057 72.0521 91.5981 72.2694 91.3296 72.4175C91.061 72.564 90.7713 72.6372 90.4604 72.6372C90.1235 72.6372 89.8224 72.5558 89.5571 72.3931C89.2918 72.2303 89.0908 72.0081 88.9541 71.7266C88.8174 71.445 88.749 71.1471 88.749 70.833ZM89.2373 70.8403C89.2373 71.2716 89.3529 71.6118 89.584 71.8608C89.8167 72.1082 90.1081 72.2319 90.458 72.2319C90.8145 72.2319 91.1074 72.1066 91.3369 71.856C91.568 71.6053 91.6836 71.2497 91.6836 70.7891C91.6836 70.4977 91.634 70.2438 91.5347 70.0273C91.437 69.8092 91.293 69.6408 91.1025 69.522C90.9137 69.4015 90.7013 69.3413 90.4653 69.3413C90.13 69.3413 89.8411 69.4569 89.5986 69.688C89.3577 69.9175 89.2373 70.3016 89.2373 70.8403Z" fill="#263238"/>
<path d="M95.1333 68.9971H95.6069V71.0649C95.6069 71.4246 95.5662 71.7103 95.4849 71.9219C95.4035 72.1335 95.2562 72.306 95.043 72.4395C94.8314 72.5713 94.5531 72.6372 94.208 72.6372C93.8727 72.6372 93.5985 72.5794 93.3853 72.4639C93.172 72.3483 93.0199 72.1815 92.9287 71.9634C92.8376 71.7437 92.792 71.4442 92.792 71.0649V68.9971H93.2656V71.0625C93.2656 71.3734 93.2941 71.6029 93.3511 71.751C93.4097 71.8975 93.509 72.0106 93.6489 72.0903C93.7905 72.1701 93.9631 72.21 94.1665 72.21C94.5148 72.21 94.763 72.131 94.9111 71.9731C95.0592 71.8153 95.1333 71.5117 95.1333 71.0625V68.9971Z" fill="#263238"/>
<path d="M96.3931 72.5762V68.9971H96.8789L98.7588 71.8071V68.9971H99.2129V72.5762H98.7271L96.8472 69.7637V72.5762H96.3931Z" fill="#263238"/>
<path d="M100.922 72.5762V69.4194H99.7427V68.9971H102.58V69.4194H101.396V72.5762H100.922Z" fill="#263238"/>
<path d="M185.463 25.154C178.909 16.5242 172.001 17.7427 167.206 19.829C164.819 20.9186 162.812 22.6957 161.441 24.9329C160.07 27.17 159.398 29.7653 159.51 32.3867C159.595 33.7648 159.891 35.2166 159.329 36.4784C158.427 38.51 155.804 39.0802 154.284 40.7C152.207 42.9157 152.668 46.4233 153.369 49.3768C154.071 52.3303 154.808 55.705 153.073 58.1954C151.482 60.4764 148.448 61.0884 145.945 62.3011C144.282 63.0948 142.805 64.2311 141.612 65.6353C140.419 67.0396 139.536 68.6803 139.021 70.4497C138.061 73.997 138.906 78.0383 141.391 80.7455C143.824 83.3964 147.477 84.5709 151.036 85.0953C156.234 85.8241 161.529 85.4092 166.551 83.8796C171.572 82.35 176.199 79.7426 180.108 76.2395C183.968 72.6821 187.005 68.3249 189.007 63.4723C191.009 58.6197 191.927 53.3886 191.698 48.1443" fill="#2E353A"/>
<path d="M145.138 81.6339C145.158 81.6132 144.912 81.4223 144.545 80.9686C144.005 80.3145 143.608 79.5545 143.38 78.7376C143.048 77.4372 143.036 76.0759 143.345 74.7699C143.716 73.0318 144.559 71.4293 145.78 70.1382C146.481 69.3848 147.278 68.7277 148.151 68.184C149.113 67.61 150.123 67.1212 151.17 66.7233C152.311 66.2919 153.415 65.7681 154.471 65.1573C155.582 64.4624 156.551 63.5628 157.327 62.5064C158.963 60.2129 159.848 57.4685 159.86 54.6511C159.89 53.179 159.765 51.7078 159.488 50.2619C159.221 48.7965 158.849 47.3414 158.566 45.8574C158.345 44.8273 158.224 43.7785 158.204 42.7253C158.253 41.7017 158.487 40.6954 158.893 39.7544C159.274 38.8021 159.72 37.8781 160.078 36.9165C160.394 35.9524 160.601 34.9559 160.695 33.9456C160.815 32.9564 160.814 31.9804 160.927 31.0543C161.027 30.1351 161.203 29.2259 161.453 28.3357C161.897 26.6546 162.641 25.0675 163.649 23.6511L163.66 23.635L163.662 23.6316C164.414 22.4623 165.407 21.4676 166.575 20.7145C167.743 19.9614 169.059 19.4673 170.435 19.2657C172.573 18.9661 174.748 19.4208 176.588 20.5515C177.776 21.263 178.802 22.2158 179.6 23.3484C180.145 24.1353 180.347 24.6119 180.377 24.597C180.199 24.1351 179.969 23.6949 179.692 23.2849C178.919 22.1064 177.897 21.1115 176.699 20.3699C174.826 19.1767 172.594 18.6806 170.392 18.9685C168.967 19.1637 167.6 19.6638 166.385 20.4348C165.17 21.2057 164.136 22.2293 163.352 23.436L163.366 23.417C162.315 24.8673 161.537 26.4977 161.073 28.2278C160.813 29.1373 160.629 30.0667 160.522 31.0065C160.404 31.9698 160.402 32.9357 160.282 33.8982C160.188 34.8747 159.986 35.8377 159.68 36.7696C159.331 37.7008 158.883 38.6235 158.494 39.5948C158.068 40.5822 157.823 41.6384 157.772 42.7126C157.79 43.7969 157.914 44.8769 158.14 45.9374C158.427 47.4383 158.798 48.8926 159.064 50.3393C159.338 51.7558 159.462 53.1972 159.435 54.6397C159.431 57.372 158.583 60.0363 157.006 62.2681C156.264 63.2882 155.336 64.1585 154.27 64.833C153.234 65.4378 152.15 65.9579 151.031 66.3885C149.968 66.8006 148.944 67.3056 147.971 67.8979C147.078 68.4644 146.265 69.1477 145.552 69.9295C144.31 71.2693 143.463 72.9274 143.106 74.7196C142.808 76.0625 142.846 77.458 143.216 78.7828C143.466 79.6137 143.896 80.379 144.477 81.0236C144.672 81.2534 144.894 81.4584 145.138 81.6339Z" fill="#4D5A64"/>
<path d="M169.112 71.5019C169.168 71.4375 168.495 70.7591 167.609 69.9866C166.722 69.2142 165.958 68.6398 165.903 68.7041C165.847 68.7685 166.52 69.4461 167.406 70.2194C168.292 70.9927 169.056 71.5662 169.112 71.5019Z" fill="#FAFAFA"/>
<path d="M171.234 66.0307L190.992 68.4369C190.992 68.4369 206.89 71.3273 210.085 83.2341C212.293 91.4567 216.861 106.773 219.477 115.464C220.023 117.281 219.919 119.232 219.18 120.98C218.442 122.728 217.117 124.164 215.433 125.039C214.441 125.554 213.354 125.86 212.239 125.937C211.125 126.015 210.006 125.862 208.952 125.489C207.899 125.115 206.934 124.529 206.117 123.767C205.3 123.005 204.648 122.082 204.203 121.057L195.561 101.173C195.561 101.173 192.517 108.118 192.691 111.403C192.866 114.688 199.728 126.761 199.728 126.761C185.134 135.13 170.304 134.074 158.77 128.841L159.32 97.4146C159.32 97.4146 153.889 125.455 142.891 123.318C133.671 121.529 139.742 103.558 142.891 96.6849C146.907 87.9192 152.148 75.4139 155.447 72.399C164.289 64.3181 171.234 66.0307 171.234 66.0307Z" fill="#E8505B"/>
<g opacity="0.2">
<g opacity="0.2">
<g opacity="0.2">
<path opacity="0.2" d="M189.5 70.3721C190.695 72.2344 192.34 73.7624 194.003 75.2252C195.123 76.2114 196.288 77.1967 197.682 77.7343C199.075 78.2718 200.754 78.2913 201.965 77.4202C203.177 76.5491 203.653 74.65 202.71 73.4936C202.086 72.7288 201.059 72.4503 200.101 72.2141L190.502 69.8477" fill="black"/>
</g>
</g>
</g>
<path d="M214.691 106.996C214.747 106.946 213.657 106.001 211.973 105.577C210.291 105.137 208.883 105.441 208.906 105.512C208.912 105.609 210.285 105.453 211.895 105.876C213.511 106.28 214.639 107.077 214.691 106.996Z" fill="#2E353A"/>
<path d="M212.077 104.273C212.119 104.207 211.198 103.738 209.973 103.863C208.746 103.974 207.931 104.609 207.984 104.667C208.029 104.749 208.86 104.272 210.001 104.171C211.139 104.051 212.048 104.362 212.077 104.273Z" fill="#2E353A"/>
<g opacity="0.2">
<g opacity="0.2">
<g opacity="0.2">
<path opacity="0.2" d="M208.154 105.736C209.02 105.318 209.981 105.133 210.94 105.2C211.9 105.267 212.825 105.583 213.625 106.117C213.956 106.344 214.375 106.618 214.72 106.413C215.051 106.219 215.032 105.717 214.847 105.38C214.409 104.575 213.408 104.27 212.497 104.175C210.844 104.005 209.176 104.273 207.659 104.952" fill="black"/>
</g>
</g>
</g>
<g opacity="0.2">
<g opacity="0.2">
<g opacity="0.2">
<path opacity="0.2" d="M176.039 92.4555C177.079 94.5511 180.072 95.8632 181.473 98.1492C182.658 100.078 183.097 102.355 183.81 104.503C185.818 110.478 189.947 115.51 195.415 118.646C194.332 116.593 193.452 114.439 192.788 112.215C192.644 110.859 192.844 109.489 193.369 108.231C192.692 106.145 189.721 103.27 188.361 101.551C186.731 99.4905 185.087 97.4153 183.08 95.721C181.073 94.0266 178.653 92.7179 176.039 92.4551" fill="black"/>
</g>
</g>
</g>
<path d="M151.614 106.068C151.575 106.633 151.588 107.199 151.652 107.761C151.705 108.803 151.822 110.241 151.758 111.819C151.645 115.002 150.412 117.355 150.533 117.39C150.552 117.399 150.635 117.259 150.768 116.998C150.954 116.627 151.12 116.247 151.264 115.858C151.739 114.566 152.01 113.208 152.068 111.833C152.105 110.466 152.039 109.099 151.871 107.742C151.837 107.178 151.751 106.617 151.614 106.068Z" fill="#2E353A"/>
<path d="M174.922 84.5937C174.922 84.5937 172.839 85.5164 171.212 86.2613C168.645 87.4384 167.79 85.2992 167.79 85.2992L174.927 80.1393C175.87 79.4723 176.994 79.1084 178.148 79.096C179.303 79.0837 180.434 79.4236 181.391 80.0703C181.973 80.4716 182.477 80.9771 182.876 81.5614L187.983 88.8204L215.771 110.981C220.119 114.448 220.261 120.301 215.865 123.705C214.256 124.957 212.231 125.55 210.201 125.362C208.172 125.174 206.29 124.22 204.938 122.694L182.122 96.9216L179.175 94.6512L175.709 92.1366C175.709 92.1366 173.118 90.2632 175.253 88.3628C175.944 87.7474 174.614 87.7601 174.48 86.8683C174.411 86.4027 174.547 86.318 175.36 85.7526C175.36 85.7526 174.086 85.7809 174.922 84.5937Z" fill="#B78876"/>
<path d="M174.997 85.1986C175.034 85.2245 175.199 85.0243 175.474 84.7242C175.804 84.3299 176.227 84.0224 176.704 83.8285C176.938 83.7512 177.187 83.7284 177.432 83.7619C177.676 83.7954 177.91 83.8844 178.115 84.022C178.427 84.2459 178.496 84.507 178.546 84.4897C178.578 84.4939 178.589 84.1765 178.255 83.8548C178.031 83.6622 177.761 83.5315 177.472 83.4758C177.182 83.42 176.883 83.4411 176.604 83.5369C176.072 83.7442 175.618 84.1114 175.304 84.5879C175.062 84.9358 174.963 85.1775 174.997 85.1986Z" fill="#996552"/>
<path d="M178.548 86.9984C178.577 86.9751 178.476 86.7745 178.198 86.5514C177.826 86.2625 177.368 86.1062 176.897 86.1074C176.426 86.11 175.969 86.27 175.599 86.562C175.323 86.7868 175.223 86.9887 175.253 87.0115C175.288 87.0428 175.442 86.9006 175.722 86.7419C176.08 86.5356 176.485 86.4236 176.898 86.4164C177.312 86.4201 177.717 86.5291 178.077 86.733C178.357 86.8896 178.513 87.0306 178.548 86.9984Z" fill="#996552"/>
<path d="M178.548 89.098C178.577 89.0747 178.476 88.8741 178.198 88.651C177.826 88.3621 177.368 88.2058 176.897 88.207C176.426 88.2096 175.969 88.3696 175.599 88.6616C175.323 88.8864 175.223 89.0878 175.253 89.1107C175.288 89.1416 175.442 89.0002 175.722 88.8411C176.08 88.6348 176.485 88.5229 176.898 88.5156C177.312 88.5193 177.717 88.6283 178.077 88.8322C178.357 88.9884 178.513 89.1276 178.548 89.098Z" fill="#996552"/>
<path d="M154.673 78.6444L152.713 80.7679C152.713 80.7679 152.059 110.819 150.916 114.904C149.773 118.989 143.076 125.848 139.483 120.294C135.89 114.74 144.872 79.298 144.872 79.298C144.872 79.298 147.323 71.1316 147.486 69.1719L154.673 78.6444Z" fill="#B78876"/>
<path d="M150.179 61.2371L150.951 81.998C150.978 82.7273 151.19 83.4379 151.566 84.0632C151.943 84.6885 152.471 85.2082 153.103 85.5737L159.356 89.1909C159.75 89.4186 160.196 89.5385 160.651 89.5387C161.106 89.5388 161.553 89.4191 161.946 89.1917C162.34 88.9643 162.667 88.6372 162.895 88.2433C163.122 87.8493 163.241 87.4025 163.241 86.9477V67.7266C163.241 67.1911 163.098 66.6653 162.826 66.2039C162.554 65.7425 162.164 65.3621 161.696 65.1023L152.337 59.9127C152.111 59.7879 151.857 59.7251 151.599 59.7308C151.342 59.7365 151.091 59.8105 150.871 59.9452C150.652 60.08 150.472 60.2706 150.35 60.4975C150.229 60.7245 150.169 60.9798 150.179 61.2371Z" fill="#455A64"/>
<path d="M157.369 66.7093C157.449 66.8725 157.496 67.0498 157.508 67.2312C157.519 67.4126 157.495 67.5945 157.437 67.7665C157.378 67.9386 157.286 68.0974 157.166 68.2338C157.046 68.3703 156.9 68.4818 156.737 68.562C156.574 68.6422 156.396 68.6894 156.215 68.7011C156.033 68.7127 155.852 68.6886 155.679 68.6299C155.507 68.5712 155.349 68.4792 155.212 68.3591C155.076 68.239 154.964 68.0932 154.884 67.93C154.804 67.7669 154.757 67.5896 154.745 67.4082C154.733 67.2268 154.758 67.0448 154.816 66.8728C154.875 66.7007 154.967 66.5419 155.087 66.4055C155.207 66.269 155.353 66.1575 155.516 66.0774C155.679 65.9973 155.857 65.95 156.038 65.9384C156.219 65.9268 156.401 65.951 156.573 66.0097C156.745 66.0684 156.904 66.1603 157.041 66.2804C157.177 66.4004 157.289 66.5462 157.369 66.7093Z" fill="#FAFAFA"/>
<path d="M147.491 69.1701C147.491 69.1701 152.121 62.7552 153.148 62.8089C154.176 62.8627 159.149 65.8369 158.934 66.4858C158.718 67.1346 157.69 67.513 156.771 67.0809C155.852 66.6487 154.231 65.0801 153.85 65.4043C153.469 65.7286 152.39 66.8642 152.39 66.8642C152.39 66.8642 156.962 69.1976 157.31 70.1081C157.666 71.0392 158.5 72.6476 157.419 73.2436C156.714 73.6308 155.581 73.1894 155.148 71.3512C155.148 71.3512 156.013 74.0008 154.676 74.6492C153.237 75.348 152.796 73.878 151.634 72.4326C150.656 71.2174 150.217 72.764 150.217 72.764L147.491 69.1701Z" fill="#AA8776"/>
<path d="M150.997 69.2257C151.277 69.2737 151.56 69.3012 151.844 69.3078C152.508 69.3878 153.145 69.6169 153.708 69.9778C154.265 70.3476 154.732 70.8387 155.073 71.4144C155.193 71.6716 155.332 71.9199 155.489 72.1572C155.497 71.8595 155.419 71.5657 155.266 71.3106C154.958 70.6617 154.478 70.1103 153.877 69.7171C153.275 69.326 152.577 69.1083 151.86 69.0881C151.565 69.0516 151.266 69.0993 150.997 69.2257Z" fill="#996552"/>
<path d="M189.986 27.0453L189.981 29.7199L190.155 69.7603C190.176 74.409 186.195 78.1286 181.217 78.1117C176.19 78.0951 172.039 74.2786 171.941 69.583C171.839 64.6541 171.64 59.467 171.64 59.467C171.64 59.467 165.272 58.5257 163.81 50.2645C163.083 46.1563 163.17 39.3981 163.419 33.8704C163.472 32.6909 163.762 31.5343 164.274 30.4702C164.785 29.4061 165.506 28.4564 166.394 27.6784C167.282 26.9004 168.318 26.3101 169.44 25.9432C170.563 25.5762 171.747 25.4401 172.923 25.5431L189.986 27.0453Z" fill="#B78876"/>
<path d="M165.367 38.9134C165.369 39.1903 165.48 39.4554 165.675 39.6522C165.87 39.849 166.134 39.9619 166.411 39.9669C166.546 39.9752 166.682 39.9564 166.81 39.9116C166.938 39.8667 167.055 39.7967 167.156 39.7056C167.256 39.6145 167.337 39.5042 167.395 39.3812C167.452 39.2583 167.484 39.1251 167.489 38.9895C167.486 38.7128 167.376 38.4478 167.182 38.251C166.987 38.0542 166.723 37.941 166.447 37.9356C166.311 37.927 166.175 37.9457 166.047 37.9905C165.919 38.0354 165.801 38.1054 165.7 38.1966C165.6 38.2877 165.518 38.3981 165.461 38.5212C165.404 38.6443 165.372 38.7777 165.367 38.9134Z" fill="#2E353A"/>
<path d="M164.952 37.3594C165.087 37.4953 165.883 36.8858 167.026 36.8684C168.169 36.8346 169.016 37.4077 169.139 37.2655C169.198 37.2024 169.06 36.9548 168.69 36.6953C168.19 36.3615 167.599 36.1906 166.997 36.206C166.403 36.2141 165.827 36.4116 165.352 36.7698C165.001 37.0458 164.887 37.2985 164.952 37.3594Z" fill="#2E353A"/>
<path d="M176.193 38.7208C176.196 38.9978 176.306 39.2628 176.501 39.4596C176.696 39.6563 176.96 39.7693 177.237 39.7743C177.372 39.7827 177.508 39.7638 177.636 39.7189C177.764 39.674 177.882 39.604 177.982 39.5129C178.082 39.4218 178.164 39.3116 178.221 39.1886C178.278 39.0657 178.31 38.9325 178.315 38.797C178.313 38.5201 178.203 38.2549 178.008 38.0579C177.813 37.8609 177.549 37.7477 177.273 37.7423C177.137 37.7337 177.001 37.7524 176.873 37.7973C176.745 37.8421 176.627 37.9123 176.526 38.0035C176.426 38.0947 176.344 38.2052 176.287 38.3285C176.23 38.4517 176.198 38.5851 176.193 38.7208Z" fill="#2E353A"/>
<path d="M176.193 37.377C176.328 37.5129 177.125 36.9034 178.267 36.886C179.41 36.8522 180.259 37.4253 180.381 37.283C180.44 37.22 180.303 36.9724 179.931 36.7129C179.431 36.3791 178.84 36.2082 178.238 36.2236C177.644 36.2316 177.067 36.4289 176.592 36.787C176.243 37.0634 176.127 37.316 176.193 37.377Z" fill="#2E353A"/>
<path d="M172.183 45.9256C172.188 45.86 171.474 45.7499 170.321 45.6234C170.028 45.5984 169.751 45.5455 169.698 45.3474C169.668 45.0463 169.731 44.7432 169.877 44.4784C170.139 43.7674 170.414 43.0213 170.702 42.2403C171.845 39.054 172.666 36.4361 172.537 36.3912C172.409 36.3463 171.378 38.8927 170.236 42.079C169.961 42.8646 169.699 43.6149 169.448 44.3299C169.271 44.6854 169.224 45.0923 169.317 45.4786C169.362 45.5809 169.428 45.6717 169.513 45.7442C169.597 45.8168 169.697 45.8691 169.805 45.8972C169.967 45.9379 170.134 45.958 170.302 45.9573C171.461 45.998 172.18 45.9903 172.183 45.9256Z" fill="#2E353A"/>
<path d="M171.638 59.4696C175.54 59.4596 179.362 58.3666 182.68 56.3125C182.68 56.3125 180.089 62.0515 171.784 61.4234L171.638 59.4696Z" fill="#996552"/>
<path d="M172.714 48.675C172.927 48.3972 173.207 48.1781 173.528 48.0385C173.849 47.8988 174.2 47.8431 174.548 47.8767C174.801 47.8948 175.047 47.9638 175.273 48.0796C175.498 48.1954 175.698 48.3556 175.86 48.5505C176.016 48.7383 176.111 48.9696 176.132 49.2131C176.152 49.4565 176.097 49.7004 175.975 49.9117C175.795 50.1202 175.557 50.2702 175.291 50.3425C175.025 50.4149 174.744 50.4062 174.483 50.3176C173.939 50.1358 173.437 49.8481 173.006 49.4711C172.875 49.382 172.762 49.2691 172.673 49.1384C172.63 49.0762 172.607 49.0024 172.606 48.9267C172.604 48.8509 172.626 48.7765 172.667 48.7131" fill="#996552"/>
<path d="M175.558 46.6584C175.371 46.6508 175.391 47.8922 174.345 48.7912C173.298 49.6902 171.974 49.578 171.968 49.7516C171.952 49.8294 172.267 49.9873 172.826 49.9924C173.553 49.9899 174.256 49.7309 174.811 49.261C175.343 48.8094 175.679 48.1687 175.748 47.474C175.786 46.9547 175.642 46.6499 175.558 46.6584Z" fill="#2E353A"/>
<path d="M199.974 73.736C196.687 73.9842 193.429 72.9763 190.857 70.9157C188.284 68.8551 186.59 65.8953 186.115 62.6338C186.047 62.0687 185.92 61.5122 185.736 60.9734C184.821 58.528 184.711 55.8542 185.423 53.342C185.731 52.1827 186.171 50.9134 185.644 49.8362C185.263 49.054 184.459 48.5863 183.805 48.014C182.355 46.6643 181.48 44.809 181.361 42.832C181.252 40.8697 181.576 38.9075 182.309 37.0842C182.685 36.0738 183.142 34.9679 182.761 33.9592C182.491 33.2465 181.857 32.75 181.29 32.2399C180.09 31.1582 179.092 29.8711 178.344 28.439C177.586 26.9851 177.095 25.0953 179.073 23.9436C179.492 23.7076 179.952 23.5519 180.428 23.4844C183.93 22.9417 188.103 23.4628 190.448 26.219C192.36 28.4649 192.631 31.6334 192.816 34.5768C193.398 43.8496 208.75 61.0767 202.816 73.7758L199.974 73.736Z" fill="#2E353A"/>
<path d="M175.812 32.8984C175.93 33.2074 177.069 33.0393 178.413 33.1773C179.76 33.2882 180.849 33.662 181.022 33.3796C181.099 33.2446 180.905 32.9564 180.463 32.6627C179.875 32.2974 179.21 32.0774 178.52 32.021C177.832 31.95 177.138 32.0443 176.494 32.2961C176.004 32.5052 175.761 32.7541 175.812 32.8984Z" fill="#2E353A"/>
<path d="M165.308 34.0463C165.514 34.3003 166.296 34.0184 167.243 33.9892C168.189 33.9266 168.995 34.1327 169.175 33.8576C169.253 33.7242 169.122 33.4665 168.767 33.2269C168.294 32.9336 167.742 32.7947 167.186 32.8295C166.63 32.8489 166.093 33.0413 165.651 33.3797C165.322 33.6515 165.217 33.9206 165.308 34.0463Z" fill="#2E353A"/>
</svg>
