<svg width="472" height="125" viewBox="0 0 472 125" fill="none" xmlns="http://www.w3.org/2000/svg">
<path d="M134.119 44.3164H137.759V16.4364H134.119V28.6764H119.919V16.4364H116.279V44.3164H119.919V31.6764H134.119V44.3164ZM164.735 33.3164C164.735 26.3964 159.895 22.0364 153.655 22.0364C147.455 22.0364 142.575 26.3964 142.575 33.3164C142.575 40.2764 147.295 44.6764 153.495 44.6764C159.735 44.6764 164.735 40.2764 164.735 33.3164ZM146.295 33.3164C146.295 27.7964 149.775 25.1964 153.615 25.1964C157.375 25.1964 161.015 27.7964 161.015 33.3164C161.015 38.8764 157.295 41.4764 153.495 41.4764C149.695 41.4764 146.295 38.8764 146.295 33.3164ZM173.801 44.3164H177.561L182.841 26.9164L188.121 44.3164H191.881L198.721 22.3964H195.121L190.161 40.8364L184.841 22.3964H181.121L175.681 40.7964L170.641 22.3964H166.921L173.801 44.3164ZM212.998 44.3164H216.638V22.3964H212.998V44.3164ZM214.878 18.8364C216.198 18.8364 217.278 17.7564 217.278 16.3564C217.278 14.9564 216.198 13.8764 214.878 13.8764C213.478 13.8764 212.398 14.9564 212.398 16.3564C212.398 17.7564 213.478 18.8364 214.878 18.8364ZM223.642 38.3164C223.642 42.7164 225.842 44.3164 229.722 44.3164H233.002V41.2364H230.322C228.082 41.2364 227.282 40.4764 227.282 38.3164V25.3964H233.002V22.3964H227.282V16.8764H223.642V22.3964H220.802V25.3964H223.642V38.3164ZM252.356 44.3164H256.116L261.396 26.9164L266.676 44.3164H270.436L277.276 22.3964H273.676L268.716 40.8364L263.396 22.3964H259.676L254.236 40.7964L249.196 22.3964H245.476L252.356 44.3164ZM301.689 33.3164C301.689 26.3964 296.849 22.0364 290.609 22.0364C284.409 22.0364 279.529 26.3964 279.529 33.3164C279.529 40.2764 284.249 44.6764 290.449 44.6764C296.689 44.6764 301.689 40.2764 301.689 33.3164ZM283.249 33.3164C283.249 27.7964 286.729 25.1964 290.569 25.1964C294.329 25.1964 297.969 27.7964 297.969 33.3164C297.969 38.8764 294.249 41.4764 290.449 41.4764C286.649 41.4764 283.249 38.8764 283.249 33.3164ZM310.115 32.3964C310.115 27.3164 312.755 25.7564 316.235 25.7564H317.195V21.9964C313.715 21.9964 311.355 23.5164 310.115 25.9564V22.3964H306.475V44.3164H310.115V32.3964ZM321.396 44.3164H325.036V34.6364L333.636 44.3164H338.596L328.236 33.3164L338.556 22.3964H333.476L325.036 32.1164V14.7164H321.396V44.3164ZM357.742 38.3564C357.582 30.5164 344.862 33.3564 344.862 28.1564C344.862 26.3964 346.462 25.1164 349.142 25.1164C352.062 25.1164 353.742 26.7164 353.902 28.9164H357.542C357.302 24.6364 354.102 22.0364 349.262 22.0364C344.382 22.0364 341.222 24.7964 341.222 28.1564C341.222 36.3164 354.182 33.4764 354.182 38.3564C354.182 40.1564 352.582 41.5964 349.702 41.5964C346.622 41.5964 344.742 39.9964 344.542 37.8764H340.782C341.022 41.8764 344.622 44.6764 349.742 44.6764C354.582 44.6764 357.742 41.9564 357.742 38.3564Z" fill="#2B334E"/>
<path d="M1.65675 109.732C1.65675 113.076 4.10475 115.412 7.22475 115.412C9.64075 115.412 11.5608 114.212 12.3928 112.068H10.6488C10.0408 113.396 8.85675 114.148 7.22475 114.148C4.88875 114.148 3.14475 112.452 3.14475 109.732C3.14475 106.996 4.88875 105.3 7.22475 105.3C8.85675 105.3 10.0408 106.052 10.6488 107.396H12.3928C11.5608 105.236 9.64075 104.02 7.22475 104.02C4.10475 104.02 1.65675 106.388 1.65675 109.732ZM22.8801 110.916C22.8801 108.148 20.9441 106.404 18.4481 106.404C15.9681 106.404 14.0161 108.148 14.0161 110.916C14.0161 113.7 15.9041 115.46 18.3841 115.46C20.8801 115.46 22.8801 113.7 22.8801 110.916ZM15.5041 110.916C15.5041 108.708 16.8961 107.668 18.4321 107.668C19.9361 107.668 21.3921 108.708 21.3921 110.916C21.3921 113.14 19.9041 114.18 18.3841 114.18C16.8641 114.18 15.5041 113.14 15.5041 110.916ZM31.2105 115.316H32.6505V110.148C32.6505 107.636 31.0985 106.388 29.0665 106.388C27.8825 106.388 26.8265 106.884 26.2505 107.796V106.548H24.7945V115.316H26.2505V110.468C26.2505 108.58 27.2745 107.652 28.7625 107.652C30.2345 107.652 31.2105 108.564 31.2105 110.356V115.316ZM41.3329 112.932C41.2689 109.796 36.1809 110.932 36.1809 108.852C36.1809 108.148 36.8209 107.636 37.8929 107.636C39.0609 107.636 39.7329 108.276 39.7969 109.156H41.2529C41.1569 107.444 39.8769 106.404 37.9409 106.404C35.9889 106.404 34.7249 107.508 34.7249 108.852C34.7249 112.116 39.9089 110.98 39.9089 112.932C39.9089 113.652 39.2689 114.228 38.1169 114.228C36.8849 114.228 36.1329 113.588 36.0529 112.74H34.5489C34.6449 114.34 36.0849 115.46 38.1329 115.46C40.0689 115.46 41.3329 114.372 41.3329 112.932ZM51.1643 106.548H49.7083V111.364C49.7083 113.252 48.7003 114.18 47.1963 114.18C45.7243 114.18 44.7483 113.268 44.7483 111.492V106.548H43.3083V111.684C43.3083 114.196 44.8923 115.444 46.9083 115.444C48.0763 115.444 49.1483 114.932 49.7083 114.02V115.316H51.1643V106.548ZM66.2786 115.316H67.7186V110.148C67.7186 107.636 66.1666 106.388 64.1666 106.388C62.8226 106.388 61.5746 107.076 61.0626 108.34C60.4866 107.028 59.2866 106.388 57.8466 106.388C56.6946 106.388 55.6546 106.884 55.0786 107.812V106.548H53.6226V115.316H55.0786V110.484C55.0786 108.596 56.0866 107.652 57.5586 107.652C58.9986 107.652 59.9586 108.564 59.9586 110.356V115.316H61.3986V110.484C61.3986 108.596 62.4066 107.652 63.8786 107.652C65.3186 107.652 66.2786 108.564 66.2786 110.356V115.316ZM73.835 107.636C75.339 107.636 76.619 108.58 76.603 110.292H71.067C71.227 108.58 72.411 107.636 73.835 107.636ZM77.931 112.612H76.363C76.043 113.556 75.211 114.228 73.899 114.228C72.411 114.228 71.163 113.252 71.051 111.476H78.059C78.091 111.172 78.107 110.916 78.107 110.596C78.107 108.196 76.443 106.404 73.899 106.404C71.339 106.404 69.563 108.148 69.563 110.916C69.563 113.7 71.403 115.46 73.899 115.46C76.075 115.46 77.483 114.212 77.931 112.612ZM81.4849 110.548C81.4849 108.516 82.5409 107.892 83.9329 107.892H84.3169V106.388C82.9249 106.388 81.9809 106.996 81.4849 107.972V106.548H80.0289V115.316H81.4849V110.548ZM89.7193 110.916C89.7193 113.7 91.4953 115.46 93.9913 115.46C96.1673 115.46 97.5913 114.244 98.0393 112.5H96.4713C96.1513 113.604 95.2873 114.228 93.9913 114.228C92.3913 114.228 91.2073 113.092 91.2073 110.916C91.2073 108.772 92.3913 107.636 93.9913 107.636C95.2873 107.636 96.1673 108.308 96.4713 109.364H98.0393C97.5913 107.524 96.1673 106.404 93.9913 106.404C91.4953 106.404 89.7193 108.164 89.7193 110.916ZM99.438 110.9C99.438 113.62 101.246 115.46 103.582 115.46C105.198 115.46 106.334 114.628 106.862 113.684V115.316H108.334V106.548H106.862V108.148C106.35 107.236 105.23 106.404 103.598 106.404C101.246 106.404 99.438 108.164 99.438 110.9ZM106.862 110.916C106.862 112.98 105.486 114.18 103.886 114.18C102.286 114.18 100.926 112.964 100.926 110.9C100.926 108.836 102.286 107.668 103.886 107.668C105.486 107.668 106.862 108.884 106.862 110.916ZM117.211 115.316H118.651V110.148C118.651 107.636 117.099 106.388 115.067 106.388C113.883 106.388 112.827 106.884 112.251 107.796V106.548H110.795V115.316H112.251V110.468C112.251 108.58 113.275 107.652 114.763 107.652C116.235 107.652 117.211 108.564 117.211 110.356V115.316ZM131.599 112.932C131.535 109.796 126.447 110.932 126.447 108.852C126.447 108.148 127.087 107.636 128.159 107.636C129.327 107.636 129.999 108.276 130.063 109.156H131.519C131.423 107.444 130.143 106.404 128.207 106.404C126.255 106.404 124.991 107.508 124.991 108.852C124.991 112.116 130.175 110.98 130.175 112.932C130.175 113.652 129.535 114.228 128.383 114.228C127.151 114.228 126.399 113.588 126.319 112.74H124.815C124.911 114.34 126.351 115.46 128.399 115.46C130.335 115.46 131.599 114.372 131.599 112.932ZM137.382 107.636C138.886 107.636 140.166 108.58 140.15 110.292H134.614C134.774 108.58 135.958 107.636 137.382 107.636ZM141.478 112.612H139.91C139.59 113.556 138.758 114.228 137.446 114.228C135.958 114.228 134.71 113.252 134.598 111.476H141.606C141.638 111.172 141.654 110.916 141.654 110.596C141.654 108.196 139.99 106.404 137.446 106.404C134.886 106.404 133.11 108.148 133.11 110.916C133.11 113.7 134.95 115.46 137.446 115.46C139.622 115.46 141.03 114.212 141.478 112.612ZM149.992 115.316H151.432V110.148C151.432 107.636 149.88 106.388 147.848 106.388C146.664 106.388 145.608 106.884 145.032 107.796V106.548H143.576V115.316H145.032V110.468C145.032 108.58 146.056 107.652 147.544 107.652C149.016 107.652 149.992 108.564 149.992 110.356V115.316ZM153.266 110.9C153.266 113.62 155.074 115.46 157.426 115.46C159.026 115.46 160.162 114.644 160.69 113.668V115.316H162.162V103.476H160.69V108.116C160.082 107.108 158.818 106.404 157.442 106.404C155.074 106.404 153.266 108.164 153.266 110.9ZM160.69 110.916C160.69 112.98 159.314 114.18 157.714 114.18C156.114 114.18 154.754 112.964 154.754 110.9C154.754 108.836 156.114 107.668 157.714 107.668C159.314 107.668 160.69 108.884 160.69 110.916ZM170.344 110.548C170.344 108.516 171.4 107.892 172.792 107.892H173.176V106.388C171.784 106.388 170.84 106.996 170.344 107.972V106.548H168.888V115.316H170.344V110.548ZM178.585 107.636C180.089 107.636 181.369 108.58 181.353 110.292H175.817C175.977 108.58 177.161 107.636 178.585 107.636ZM182.681 112.612H181.113C180.793 113.556 179.961 114.228 178.649 114.228C177.161 114.228 175.913 113.252 175.801 111.476H182.809C182.841 111.172 182.857 110.916 182.857 110.596C182.857 108.196 181.193 106.404 178.649 106.404C176.089 106.404 174.313 108.148 174.313 110.916C174.313 113.7 176.153 115.46 178.649 115.46C180.825 115.46 182.233 114.212 182.681 112.612ZM184.235 110.9C184.235 113.62 186.043 115.46 188.363 115.46C189.995 115.46 191.163 114.596 191.659 113.7V119.476H193.131V106.548H191.659V108.148C191.163 107.236 190.011 106.404 188.411 106.404C186.043 106.404 184.235 108.164 184.235 110.9ZM191.659 110.916C191.659 112.98 190.283 114.18 188.683 114.18C187.083 114.18 185.723 112.964 185.723 110.9C185.723 108.836 187.083 107.668 188.683 107.668C190.283 107.668 191.659 108.884 191.659 110.916ZM203.367 106.548H201.911V111.364C201.911 113.252 200.903 114.18 199.399 114.18C197.927 114.18 196.951 113.268 196.951 111.492V106.548H195.511V111.684C195.511 114.196 197.095 115.444 199.111 115.444C200.279 115.444 201.351 114.932 201.911 114.02V115.316H203.367V106.548ZM209.554 107.636C211.058 107.636 212.338 108.58 212.322 110.292H206.786C206.946 108.58 208.13 107.636 209.554 107.636ZM213.65 112.612H212.082C211.762 113.556 210.93 114.228 209.618 114.228C208.13 114.228 206.882 113.252 206.77 111.476H213.778C213.81 111.172 213.826 110.916 213.826 110.596C213.826 108.196 212.162 106.404 209.618 106.404C207.058 106.404 205.282 108.148 205.282 110.916C205.282 113.7 207.122 115.46 209.618 115.46C211.794 115.46 213.202 114.212 213.65 112.612ZM222.052 112.932C221.988 109.796 216.9 110.932 216.9 108.852C216.9 108.148 217.54 107.636 218.612 107.636C219.78 107.636 220.452 108.276 220.516 109.156H221.972C221.876 107.444 220.596 106.404 218.66 106.404C216.708 106.404 215.444 107.508 215.444 108.852C215.444 112.116 220.628 110.98 220.628 112.932C220.628 113.652 219.988 114.228 218.836 114.228C217.604 114.228 216.852 113.588 216.772 112.74H215.268C215.364 114.34 216.804 115.46 218.852 115.46C220.788 115.46 222.052 114.372 222.052 112.932ZM224.427 112.916C224.427 114.676 225.307 115.316 226.859 115.316H228.171V114.084H227.099C226.203 114.084 225.883 113.78 225.883 112.916V107.748H228.171V106.548H225.883V104.34H224.427V106.548H223.291V107.748H224.427V112.916ZM234.473 115.316H235.929V107.748H237.769V106.548H235.929V105.924C235.929 104.788 236.361 104.308 237.673 104.308V103.092C235.433 103.092 234.473 103.972 234.473 105.924V106.548H233.337V107.748H234.473V115.316ZM247.786 110.916C247.786 108.148 245.85 106.404 243.354 106.404C240.874 106.404 238.922 108.148 238.922 110.916C238.922 113.7 240.81 115.46 243.29 115.46C245.786 115.46 247.786 113.7 247.786 110.916ZM240.41 110.916C240.41 108.708 241.802 107.668 243.338 107.668C244.842 107.668 246.298 108.708 246.298 110.916C246.298 113.14 244.81 114.18 243.29 114.18C241.77 114.18 240.41 113.14 240.41 110.916ZM251.157 110.548C251.157 108.516 252.213 107.892 253.605 107.892H253.989V106.388C252.597 106.388 251.653 106.996 251.157 107.972V106.548H249.701V115.316H251.157V110.548ZM260.207 115.316H261.663V107.748H263.503V106.548H261.663V105.924C261.663 104.788 262.095 104.308 263.407 104.308V103.092C261.167 103.092 260.207 103.972 260.207 105.924V106.548H259.071V107.748H260.207V115.316ZM266.657 110.548C266.657 108.516 267.713 107.892 269.105 107.892H269.489V106.388C268.097 106.388 267.153 106.996 266.657 107.972V106.548H265.201V115.316H266.657V110.548ZM271.17 115.316H272.626V106.548H271.17V115.316ZM271.922 105.124C272.45 105.124 272.882 104.692 272.882 104.132C272.882 103.572 272.45 103.14 271.922 103.14C271.362 103.14 270.93 103.572 270.93 104.132C270.93 104.692 271.362 105.124 271.922 105.124ZM278.835 107.636C280.339 107.636 281.619 108.58 281.603 110.292H276.067C276.227 108.58 277.411 107.636 278.835 107.636ZM282.931 112.612H281.363C281.043 113.556 280.211 114.228 278.899 114.228C277.411 114.228 276.163 113.252 276.051 111.476H283.059C283.091 111.172 283.107 110.916 283.107 110.596C283.107 108.196 281.443 106.404 278.899 106.404C276.339 106.404 274.563 108.148 274.563 110.916C274.563 113.7 276.403 115.46 278.899 115.46C281.075 115.46 282.483 114.212 282.931 112.612ZM291.445 115.316H292.885V110.148C292.885 107.636 291.333 106.388 289.301 106.388C288.117 106.388 287.061 106.884 286.485 107.796V106.548H285.029V115.316H286.485V110.468C286.485 108.58 287.509 107.652 288.997 107.652C290.469 107.652 291.445 108.564 291.445 110.356V115.316ZM294.719 110.9C294.719 113.62 296.527 115.46 298.879 115.46C300.479 115.46 301.615 114.644 302.143 113.668V115.316H303.615V103.476H302.143V108.116C301.535 107.108 300.271 106.404 298.895 106.404C296.527 106.404 294.719 108.164 294.719 110.9ZM302.143 110.916C302.143 112.98 300.767 114.18 299.167 114.18C297.567 114.18 296.207 112.964 296.207 110.9C296.207 108.836 297.567 107.668 299.167 107.668C300.767 107.668 302.143 108.884 302.143 110.916ZM312.38 112.932C312.316 109.796 307.228 110.932 307.228 108.852C307.228 108.148 307.868 107.636 308.94 107.636C310.108 107.636 310.78 108.276 310.844 109.156H312.3C312.204 107.444 310.924 106.404 308.988 106.404C307.036 106.404 305.772 107.508 305.772 108.852C305.772 112.116 310.956 110.98 310.956 112.932C310.956 113.652 310.316 114.228 309.164 114.228C307.932 114.228 307.18 113.588 307.1 112.74H305.596C305.692 114.34 307.132 115.46 309.18 115.46C311.116 115.46 312.38 114.372 312.38 112.932ZM319.021 112.916C319.021 114.676 319.901 115.316 321.453 115.316H322.765V114.084H321.693C320.797 114.084 320.477 113.78 320.477 112.916V107.748H322.765V106.548H320.477V104.34H319.021V106.548H317.885V107.748H319.021V112.916ZM332.849 110.916C332.849 108.148 330.913 106.404 328.417 106.404C325.937 106.404 323.985 108.148 323.985 110.916C323.985 113.7 325.873 115.46 328.353 115.46C330.849 115.46 332.849 113.7 332.849 110.916ZM325.473 110.916C325.473 108.708 326.865 107.668 328.401 107.668C329.905 107.668 331.361 108.708 331.361 110.916C331.361 113.14 329.873 114.18 328.353 114.18C326.833 114.18 325.473 113.14 325.473 110.916ZM345.333 112.932C345.269 109.796 340.181 110.932 340.181 108.852C340.181 108.148 340.821 107.636 341.893 107.636C343.061 107.636 343.733 108.276 343.797 109.156H345.253C345.157 107.444 343.877 106.404 341.941 106.404C339.989 106.404 338.725 107.508 338.725 108.852C338.725 112.116 343.909 110.98 343.909 112.932C343.909 113.652 343.269 114.228 342.117 114.228C340.885 114.228 340.133 113.588 340.053 112.74H338.549C338.645 114.34 340.085 115.46 342.133 115.46C344.069 115.46 345.333 114.372 345.333 112.932ZM351.116 107.636C352.62 107.636 353.9 108.58 353.884 110.292H348.348C348.508 108.58 349.692 107.636 351.116 107.636ZM355.212 112.612H353.644C353.324 113.556 352.492 114.228 351.18 114.228C349.692 114.228 348.444 113.252 348.332 111.476H355.34C355.372 111.172 355.388 110.916 355.388 110.596C355.388 108.196 353.724 106.404 351.18 106.404C348.62 106.404 346.844 108.148 346.844 110.916C346.844 113.7 348.684 115.46 351.18 115.46C353.356 115.46 354.764 114.212 355.212 112.612ZM363.726 115.316H365.166V110.148C365.166 107.636 363.614 106.388 361.582 106.388C360.398 106.388 359.342 106.884 358.766 107.796V106.548H357.31V115.316H358.766V110.468C358.766 108.58 359.79 107.652 361.278 107.652C362.75 107.652 363.726 108.564 363.726 110.356V115.316ZM367.001 110.9C367.001 113.62 368.809 115.46 371.161 115.46C372.761 115.46 373.897 114.644 374.425 113.668V115.316H375.897V103.476H374.425V108.116C373.817 107.108 372.553 106.404 371.177 106.404C368.809 106.404 367.001 108.164 367.001 110.9ZM374.425 110.916C374.425 112.98 373.049 114.18 371.449 114.18C369.849 114.18 368.489 112.964 368.489 110.9C368.489 108.836 369.849 107.668 371.449 107.668C373.049 107.668 374.425 108.884 374.425 110.916ZM385.951 113.652L383.199 106.548H381.583L385.119 115.22L383.391 119.444H384.895L390.175 106.548H388.671L385.951 113.652ZM399.958 110.916C399.958 108.148 398.022 106.404 395.526 106.404C393.046 106.404 391.094 108.148 391.094 110.916C391.094 113.7 392.982 115.46 395.462 115.46C397.958 115.46 399.958 113.7 399.958 110.916ZM392.582 110.916C392.582 108.708 393.974 107.668 395.51 107.668C397.014 107.668 398.47 108.708 398.47 110.916C398.47 113.14 396.982 114.18 395.462 114.18C393.942 114.18 392.582 113.14 392.582 110.916ZM409.649 106.548H408.193V111.364C408.193 113.252 407.185 114.18 405.681 114.18C404.209 114.18 403.233 113.268 403.233 111.492V106.548H401.793V111.684C401.793 114.196 403.377 115.444 405.393 115.444C406.561 115.444 407.633 114.932 408.193 114.02V115.316H409.649V106.548ZM429.029 115.316H430.469V110.148C430.469 107.636 428.917 106.388 426.917 106.388C425.573 106.388 424.325 107.076 423.813 108.34C423.237 107.028 422.037 106.388 420.597 106.388C419.445 106.388 418.405 106.884 417.829 107.812V106.548H416.373V115.316H417.829V110.484C417.829 108.596 418.837 107.652 420.309 107.652C421.749 107.652 422.709 108.564 422.709 110.356V115.316H424.149V110.484C424.149 108.596 425.157 107.652 426.629 107.652C428.069 107.652 429.029 108.564 429.029 110.356V115.316ZM441.177 110.916C441.177 108.148 439.241 106.404 436.745 106.404C434.265 106.404 432.313 108.148 432.313 110.916C432.313 113.7 434.201 115.46 436.681 115.46C439.177 115.46 441.177 113.7 441.177 110.916ZM433.801 110.916C433.801 108.708 435.193 107.668 436.729 107.668C438.233 107.668 439.689 108.708 439.689 110.916C439.689 113.14 438.201 114.18 436.681 114.18C435.161 114.18 433.801 113.14 433.801 110.916ZM449.507 115.316H450.947V110.148C450.947 107.636 449.395 106.388 447.363 106.388C446.179 106.388 445.123 106.884 444.547 107.796V106.548H443.091V115.316H444.547V110.468C444.547 108.58 445.571 107.652 447.059 107.652C448.531 107.652 449.507 108.564 449.507 110.356V115.316ZM457.054 107.636C458.558 107.636 459.838 108.58 459.822 110.292H454.286C454.446 108.58 455.63 107.636 457.054 107.636ZM461.15 112.612H459.582C459.262 113.556 458.43 114.228 457.118 114.228C455.63 114.228 454.382 113.252 454.27 111.476H461.278C461.31 111.172 461.326 110.916 461.326 110.596C461.326 108.196 459.662 106.404 457.118 106.404C454.558 106.404 452.782 108.148 452.782 110.916C452.782 113.7 454.622 115.46 457.118 115.46C459.294 115.46 460.702 114.212 461.15 112.612ZM466.576 113.652L463.824 106.548H462.208L465.744 115.22L464.016 119.444H465.52L470.8 106.548H469.296L466.576 113.652Z" fill="#656668"/>
</svg>
