<svg width="237" height="345" viewBox="0 0 237 345" fill="none" xmlns="http://www.w3.org/2000/svg">
<g clip-path="url(#clip0)">
<path d="M20.9385 108.843C24.0808 102.612 27.7534 97.4112 31.8632 93.6767C33.0282 92.6029 34.2811 91.6283 35.6085 90.7632C36.7973 89.9879 38.0545 89.323 39.3646 88.7768C58.0925 81.0378 77.2681 98.6478 98.6914 96.5676C116.649 94.8194 129.572 84.8442 141.027 76.4713C144.781 73.6102 148.712 70.9872 152.794 68.6178C153.877 68.015 154.968 67.4634 156.051 66.9739C157.216 66.4559 158.454 65.9652 159.776 65.5184C159.776 65.517 159.776 65.5157 159.776 65.5144C159.777 65.5131 159.778 65.5119 159.779 65.5109C159.779 65.5099 159.781 65.5092 159.782 65.5087C159.783 65.5082 159.785 65.508 159.786 65.5081L159.797 65.5184C176.392 59.828 204.422 60.0365 216.845 72.2797C229.851 85.1051 245.645 126.67 209.875 180.21C170.129 239.718 61.5367 247.947 32.5187 228.266C2.49105 207.92 3.69815 143.034 20.9385 108.843Z" fill="#D6DCFD"/>
<path d="M38.2604 81.962C45.3927 72.574 52.9103 73.8993 58.1282 76.1686C60.7254 77.3541 62.9098 79.2874 64.4017 81.721C65.8935 84.1547 66.6251 86.9781 66.5027 89.8298C66.4107 91.3293 66.0902 92.9084 66.697 94.281C67.6781 96.4895 70.5327 97.1117 72.1861 98.874C74.4463 101.284 73.9458 105.101 73.1822 108.315C72.4187 111.528 71.615 115.199 73.506 117.908C75.2378 120.39 78.5394 121.056 81.2626 122.376C83.0724 123.239 84.6791 124.476 85.9777 126.003C87.2762 127.531 88.2372 129.316 88.7977 131.241C89.3269 133.175 89.3682 135.211 88.918 137.166C88.4679 139.12 87.5403 140.933 86.2181 142.442C83.5707 145.325 79.5957 146.603 75.7229 147.174C70.0659 147.966 64.304 147.515 58.8397 145.851C53.3753 144.187 48.3401 141.35 44.0859 137.539C39.8853 133.669 36.5805 128.929 34.4022 123.649C32.2239 118.37 31.2245 112.679 31.474 106.974" fill="#2E353A"/>
<path d="M82.1485 143.407C82.1272 143.384 82.394 143.174 82.7961 142.683C83.3841 141.971 83.8162 141.145 84.0648 140.256C84.4259 138.841 84.4389 137.36 84.1025 135.939C83.6985 134.048 82.7816 132.305 81.4524 130.9C80.6902 130.08 79.8225 129.365 78.8722 128.774C77.8255 128.149 76.7262 127.618 75.5868 127.185C74.3444 126.716 73.1424 126.147 71.9926 125.484C70.7831 124.728 69.7282 123.749 68.884 122.6C67.1034 120.104 66.1402 117.119 66.127 114.053C66.0943 112.452 66.2302 110.852 66.5324 109.278C66.8232 107.684 67.2273 106.099 67.5356 104.487C67.7756 103.367 67.9076 102.226 67.9299 101.08C67.8758 99.9662 67.6218 98.8714 67.18 97.8477C66.7662 96.8118 66.2792 95.8063 65.8894 94.76C65.5451 93.7112 65.3196 92.6271 65.2171 91.528C65.0875 90.4519 65.0876 89.3914 64.9658 88.3827C64.8566 87.3827 64.6649 86.3935 64.3927 85.4251C63.9099 83.5961 63.1003 81.8694 62.003 80.3284L61.9907 80.3109V80.307C61.1732 79.0351 60.0926 77.953 58.8216 77.1337C57.5507 76.3144 56.1189 75.7769 54.6227 75.5573C52.2959 75.2315 49.9283 75.7262 47.9269 76.9565C46.6333 77.7304 45.5165 78.7671 44.6486 79.9995C44.0554 80.8554 43.8358 81.374 43.8066 81.3591C44.0002 80.8577 44.2502 80.3798 44.5515 79.9347C45.3926 78.6521 46.5046 77.5693 47.8091 76.7622C49.8471 75.4636 52.2774 74.9238 54.6738 75.2375C56.225 75.4499 57.7124 75.994 59.0345 76.8328C60.3565 77.6715 61.4823 78.7851 62.3352 80.0979L62.3197 80.0772C63.4639 81.6551 64.3098 83.4289 64.8156 85.3111C65.0981 86.3006 65.2981 87.3117 65.4139 88.3341C65.5434 89.3823 65.5435 90.4331 65.6731 91.4801C65.774 92.5414 65.9924 93.5883 66.3245 94.6014C66.704 95.6153 67.1917 96.6182 67.6159 97.6749C68.0797 98.7491 68.346 99.8982 68.402 101.067C68.3821 102.247 68.2479 103.422 68.0012 104.575C67.6891 106.208 67.285 107.791 66.9961 109.363C66.6979 110.904 66.5622 112.472 66.5914 114.042C66.5962 117.014 67.5195 119.913 69.235 122.341C70.0428 123.451 71.0536 124.398 72.2139 125.131C73.3415 125.789 74.5204 126.355 75.739 126.824C76.895 127.272 78.0091 127.821 79.0684 128.466C80.0401 129.082 80.9253 129.825 81.7004 130.675C83.0528 132.132 83.9743 133.936 84.3627 135.886C84.6867 137.347 84.6457 138.866 84.243 140.308C83.9709 141.211 83.502 142.044 82.87 142.745C82.6575 142.994 82.4152 143.217 82.1485 143.407Z" fill="#4D5A64"/>
<path d="M56.0654 132.384C56.529 131.759 57.0799 131.204 57.7012 130.735C58.25 130.183 58.8753 129.713 59.5579 129.34C59.0941 129.965 58.5433 130.52 57.9221 130.988C57.3732 131.54 56.7479 132.01 56.0654 132.384Z" fill="#FAFAFA"/>
<path d="M53.7453 126.431L32.2442 129.048C32.2442 129.048 14.9437 132.193 11.4666 145.146C9.06456 154.092 4.09339 170.755 1.24709 180.21C0.652031 182.187 0.766052 184.309 1.56948 186.211C2.3729 188.113 3.81526 189.675 5.64763 190.627C6.72664 191.187 7.90957 191.52 9.12275 191.604C10.3359 191.689 11.5535 191.522 12.6997 191.116C13.8459 190.71 14.8962 190.072 15.7854 189.243C16.6746 188.413 17.3836 187.41 17.8683 186.295L27.2718 164.662C27.2718 164.662 30.5857 172.218 30.3953 175.792C30.2049 179.366 22.7377 192.5 22.7377 192.5C38.6187 201.605 54.7568 200.456 67.309 194.766L66.7101 160.577C66.7101 160.577 72.6196 191.082 84.5883 188.759C94.6219 186.812 88.0148 167.264 84.5883 159.785C80.2175 150.248 74.5151 136.643 70.9234 133.363C61.3017 124.568 53.7453 126.431 53.7453 126.431Z" fill="#E8505B"/>
<g opacity="0.2">
<g opacity="0.2">
<g opacity="0.2">
<path opacity="0.2" d="M33.8784 131.154C32.4984 133.133 30.8491 134.91 28.9784 136.434C27.8147 137.572 26.4595 138.496 24.9748 139.163C24.2285 139.49 23.4136 139.63 22.601 139.57C21.7884 139.511 21.0027 139.254 20.312 138.821C18.9934 137.873 18.4754 135.808 19.5018 134.548C20.1806 133.716 21.2984 133.413 22.341 133.156L32.7865 130.582" fill="black"/>
</g>
</g>
</g>
<path d="M6.45898 171.001C7.28129 170.219 8.30657 169.684 9.41803 169.457C10.5019 169.121 11.6582 169.097 12.7553 169.386C11.6621 169.433 10.5741 169.566 9.50151 169.782C8.45701 170.108 7.43972 170.516 6.45898 171.001Z" fill="#2E353A"/>
<path d="M9.29785 168.033C9.98161 167.612 10.7952 167.454 11.5871 167.587C12.3902 167.607 13.1589 167.917 13.7503 168.461C13.0326 168.228 12.2992 168.048 11.5555 167.921C10.8013 167.904 10.0467 167.941 9.29785 168.033Z" fill="#2E353A"/>
<g opacity="0.2">
<g opacity="0.2">
<g opacity="0.2">
<path opacity="0.2" d="M13.5682 169.63C12.6257 169.175 11.5809 168.974 10.5368 169.047C9.49265 169.119 8.48546 169.462 7.61473 170.043C7.25465 170.29 6.79931 170.588 6.42305 170.367C6.06232 170.155 6.08365 169.61 6.28312 169.242C6.75977 168.366 7.84777 168.034 8.83993 167.931C10.6388 167.746 12.4547 168.038 14.1052 168.776" fill="black"/>
</g>
</g>
</g>
<g opacity="0.2">
<g opacity="0.2">
<g opacity="0.2">
<path opacity="0.2" d="M48.5142 155.18C47.3822 157.46 44.1254 158.888 42.6009 161.375C41.3134 163.474 40.8335 165.95 40.0583 168.287C37.8733 174.788 33.3803 180.262 27.4297 183.673C28.6084 181.44 29.5659 179.097 30.2883 176.677C30.4455 175.202 30.2279 173.711 29.6556 172.343C30.3945 170.077 33.6255 166.946 35.106 165.076C36.8047 162.774 38.73 160.649 40.853 158.731C42.9935 156.806 45.6626 155.569 48.5149 155.178" fill="black"/>
</g>
</g>
</g>
<path d="M75.1007 169.988C75.1431 170.602 75.1292 171.219 75.0592 171.83C75.0016 172.963 74.8734 174.528 74.9446 176.245C75.067 179.707 76.4083 182.266 76.2775 182.306C76.2568 182.316 76.1667 182.164 76.0183 181.879C75.8152 181.476 75.6348 181.062 75.4782 180.639C74.962 179.233 74.6675 177.756 74.6053 176.26C74.5657 174.774 74.6374 173.286 74.8197 171.81C74.8567 171.196 74.9507 170.586 75.1007 169.988Z" fill="#2E353A"/>
<path d="M49.7371 146.627C49.7371 146.627 52.0037 147.631 53.773 148.44C56.5669 149.721 57.4975 147.393 57.4975 147.393L49.7306 141.78C48.7048 141.054 47.4823 140.658 46.2258 140.645C44.9692 140.631 43.7384 141.001 42.6974 141.705C42.0622 142.141 41.5133 142.691 41.0783 143.327L35.5204 151.226L5.28169 175.335C0.554048 179.107 0.395392 185.474 5.18002 189.178C6.93055 190.54 9.13426 191.185 11.343 190.98C13.5518 190.776 15.5997 189.738 17.0703 188.078L41.8995 160.039L45.1059 157.569L48.8776 154.834C48.8776 154.834 51.6968 152.796 49.3737 150.728C48.6219 150.059 50.07 150.072 50.2157 149.102C50.2908 148.597 50.1431 148.506 49.2585 147.889C49.2604 147.887 50.6463 147.919 49.7371 146.627Z" fill="#B78876"/>
<path d="M49.6607 147.285C49.6199 147.313 49.4407 147.095 49.1428 146.767C48.7828 146.338 48.3231 146.003 47.804 145.793C47.5489 145.709 47.2778 145.684 47.0116 145.72C46.7454 145.757 46.491 145.853 46.2678 146.003C45.9278 146.247 45.8528 146.531 45.7984 146.512C45.7641 146.517 45.7511 146.171 46.1157 145.821C46.359 145.611 46.6528 145.469 46.9681 145.408C47.2834 145.347 47.6092 145.37 47.9128 145.475C48.4915 145.7 48.9859 146.1 49.3279 146.618C49.5889 146.999 49.697 147.262 49.6607 147.285Z" fill="#996552"/>
<path d="M45.7865 149.243C45.7548 149.217 45.8642 148.999 46.1673 148.756C46.5721 148.442 47.0704 148.272 47.583 148.273C48.0956 148.276 48.5927 148.45 48.9949 148.768C49.2961 149.013 49.4041 149.232 49.3717 149.257C49.3393 149.282 49.1659 149.137 48.8615 148.964C48.4718 148.739 48.0314 148.617 47.5817 148.61C47.132 148.614 46.6907 148.732 46.2994 148.954C45.9938 149.124 45.8247 149.277 45.7865 149.243Z" fill="#996552"/>
<path d="M45.7865 151.528C45.7548 151.503 45.8642 151.284 46.1673 151.042C46.5721 150.727 47.0704 150.557 47.583 150.559C48.0956 150.561 48.5927 150.736 48.9949 151.053C49.2961 151.298 49.4041 151.517 49.3717 151.542C49.3393 151.567 49.1659 151.422 48.8615 151.249C48.4718 151.024 48.0314 150.902 47.5817 150.895C47.132 150.899 46.6907 151.017 46.2994 151.239C45.9938 151.409 45.8247 151.562 45.7865 151.528Z" fill="#996552"/>
<path d="M71.7686 140.153L73.9013 142.463C73.9013 142.463 74.6136 175.159 75.8564 179.601C77.0991 184.042 84.3882 191.506 88.2979 185.464C92.2076 179.422 82.433 140.864 82.433 140.864C82.433 140.864 79.7668 131.98 79.5887 129.848L71.7686 140.153Z" fill="#B78876"/>
<path d="M76.6629 121.216L75.8209 143.802C75.7915 144.596 75.5614 145.369 75.1521 146.049C74.7428 146.729 74.1676 147.295 73.4804 147.693L66.676 151.628C66.2477 151.876 65.7618 152.006 65.267 152.007C64.7723 152.007 64.2862 151.877 63.8576 151.63C63.4291 151.382 63.0732 151.027 62.8258 150.599C62.5784 150.17 62.4482 149.684 62.4482 149.19V128.277C62.4483 127.694 62.6045 127.122 62.9006 126.62C63.1967 126.117 63.6218 125.704 64.132 125.421L74.3165 119.775C74.5615 119.64 74.8382 119.572 75.1181 119.579C75.398 119.585 75.671 119.666 75.9096 119.812C76.1482 119.958 76.3436 120.166 76.476 120.412C76.6083 120.659 76.6728 120.936 76.6629 121.216Z" fill="#455A64"/>
<path d="M68.8382 127.168C68.7509 127.346 68.6994 127.539 68.6867 127.736C68.674 127.933 68.7004 128.131 68.7643 128.318C68.8282 128.506 68.9283 128.678 69.059 128.827C69.1897 128.975 69.3483 129.097 69.5259 129.184C69.7035 129.271 69.8965 129.322 70.0939 129.335C70.2913 129.348 70.4893 129.321 70.6765 129.258C70.8637 129.194 71.0365 129.094 71.185 128.963C71.3335 128.832 71.4548 128.674 71.542 128.496C71.6293 128.319 71.6806 128.126 71.6933 127.928C71.706 127.731 71.6797 127.533 71.6158 127.346C71.552 127.159 71.4518 126.986 71.3211 126.837C71.1904 126.689 71.0318 126.568 70.8542 126.481C70.6767 126.393 70.4837 126.342 70.2863 126.329C70.0889 126.317 69.8909 126.343 69.7036 126.407C69.5164 126.471 69.3437 126.571 69.1952 126.701C69.0467 126.832 68.9253 126.991 68.8382 127.168Z" fill="#FAFAFA"/>
<path d="M79.5882 129.847C79.5882 129.847 74.5496 122.868 73.4318 122.926C72.314 122.984 66.9013 126.22 67.1363 126.926C67.3714 127.632 68.4899 128.044 69.4898 127.574C70.4897 127.104 72.2552 125.397 72.6671 125.75C73.0789 126.103 74.2556 127.338 74.2556 127.338C74.2556 127.338 69.2805 129.877 68.9016 130.867C68.5131 131.88 67.6065 133.632 68.7839 134.279C69.5506 134.7 70.7843 134.22 71.2551 132.22C71.2551 132.22 70.3135 135.102 71.768 135.808C73.3333 136.568 73.8145 134.966 75.0794 133.396C76.1427 132.074 76.6214 133.757 76.6214 133.757L79.5882 129.847Z" fill="#AA8776"/>
<path d="M75.7743 129.907C75.4697 129.96 75.1618 129.989 74.8528 129.997C74.1302 130.084 73.4366 130.333 72.8238 130.726C72.2172 131.128 71.7096 131.662 71.3388 132.289C71.2072 132.568 71.0556 132.838 70.8853 133.097C70.877 132.773 70.9613 132.455 71.1282 132.178C71.4624 131.472 71.9853 130.872 72.6391 130.444C73.2941 130.018 74.0538 129.782 74.8346 129.76C75.1555 129.719 75.4813 129.77 75.7743 129.907Z" fill="#996552"/>
<path d="M33.3402 84.0195L33.3461 86.9292L33.1563 130.492C33.1343 135.549 37.4663 139.595 42.883 139.577C48.3535 139.559 52.8706 135.407 52.9768 130.299C53.0888 124.936 53.3046 119.292 53.3046 119.292C53.3046 119.292 60.2341 118.268 61.8259 109.28C62.6173 104.813 62.5228 97.4587 62.2514 91.4451C62.1945 90.162 61.8782 88.9036 61.3219 87.7459C60.7656 86.5881 59.9806 85.5549 59.0143 84.7085C58.0479 83.8621 56.9203 83.22 55.6991 82.8209C54.478 82.4217 53.1888 82.2738 51.9089 82.386L33.3402 84.0195Z" fill="#B78876"/>
<path d="M60.1321 96.9311C60.1296 97.2324 60.0095 97.5208 59.7974 97.7349C59.5854 97.9489 59.2981 98.0717 58.9967 98.0771C58.8494 98.0863 58.7019 98.0659 58.5626 98.0171C58.4233 97.9683 58.2952 97.8921 58.1858 97.793C58.0764 97.694 57.9879 97.574 57.9257 97.4402C57.8634 97.3064 57.8286 97.1615 57.8232 97.014C57.8257 96.7129 57.9457 96.4246 58.1575 96.2105C58.3693 95.9964 58.6561 95.8733 58.9572 95.8674C59.1046 95.8582 59.2524 95.8787 59.3919 95.9275C59.5313 95.9763 59.6595 96.0525 59.769 96.1517C59.8784 96.2508 59.967 96.3708 60.0294 96.5047C60.0917 96.6386 60.1267 96.7836 60.1321 96.9311Z" fill="#2E353A"/>
<path d="M60.589 95.2422C60.4427 95.3898 59.5781 94.7242 58.3341 94.708C57.0919 94.6711 56.1671 95.2946 56.035 95.1399C55.9702 95.0712 56.1212 94.8019 56.5234 94.5196C57.0685 94.1561 57.7127 93.9702 58.3677 93.9874C59.0146 93.9964 59.6418 94.2111 60.1583 94.6006C60.5359 94.901 60.6603 95.1755 60.589 95.2422Z" fill="#2E353A"/>
<path d="M48.3488 96.7208C48.3461 97.0221 48.2259 97.3105 48.0137 97.5246C47.8016 97.7386 47.5141 97.8614 47.2127 97.8668C47.0655 97.8759 46.918 97.8554 46.7787 97.8066C46.6395 97.7577 46.5114 97.6815 46.4021 97.5825C46.2928 97.4834 46.2045 97.3634 46.1423 97.2296C46.0801 97.0959 46.0454 96.9511 46.04 96.8037C46.0423 96.5024 46.162 96.214 46.3738 95.9998C46.5856 95.7855 46.8728 95.6623 47.174 95.6564C47.3215 95.6473 47.4692 95.6678 47.6087 95.7167C47.7481 95.7656 47.8763 95.8419 47.9857 95.9411C48.0952 96.0403 48.1837 96.1603 48.246 96.2942C48.3083 96.4281 48.3433 96.5732 48.3488 96.7208Z" fill="#2E353A"/>
<path d="M48.3563 95.2578C48.21 95.4054 47.3442 94.7398 46.1014 94.7236C44.8592 94.6867 43.9344 95.3102 43.8017 95.1555C43.7369 95.0868 43.8864 94.8175 44.2905 94.5352C44.8354 94.1718 45.4796 93.9859 46.1344 94.003C46.7815 94.0118 47.4089 94.2266 47.9256 94.6161C48.3019 94.9166 48.4276 95.1911 48.3563 95.2578Z" fill="#2E353A"/>
<path d="M52.7071 104.561C53.3663 104.367 54.0472 104.256 54.734 104.232C55.052 104.205 55.3546 104.147 55.4116 103.932C55.4444 103.604 55.3766 103.274 55.2172 102.986C54.9323 102.212 54.6333 101.401 54.3203 100.551C53.0768 97.0848 52.1831 94.2367 52.323 94.1881C52.4629 94.1396 53.5845 96.9074 54.828 100.376C55.1263 101.23 55.4119 102.047 55.6848 102.824C55.878 103.211 55.9284 103.654 55.8272 104.074C55.779 104.185 55.7063 104.283 55.6144 104.362C55.5225 104.44 55.4139 104.497 55.2969 104.527C55.1201 104.571 54.9384 104.593 54.7562 104.592C54.0746 104.668 53.386 104.658 52.7071 104.561Z" fill="#2E353A"/>
<path d="M53.306 119.295C49.0602 119.285 44.9005 118.097 41.29 115.863C41.29 115.863 44.109 122.107 53.1466 121.424L53.306 119.295Z" fill="#996552"/>
<path d="M52.128 107.55C51.8966 107.248 51.5919 107.01 51.2428 106.858C50.8937 106.706 50.5117 106.646 50.1327 106.682C49.8581 106.702 49.5904 106.778 49.3456 106.903C49.1008 107.029 48.8839 107.203 48.708 107.415C48.5376 107.619 48.4342 107.871 48.4118 108.136C48.3894 108.401 48.4493 108.666 48.583 108.896C48.779 109.123 49.038 109.286 49.3273 109.365C49.6165 109.443 49.9227 109.434 50.2065 109.337C50.7979 109.14 51.3443 108.827 51.814 108.417C51.9561 108.32 52.0786 108.197 52.1753 108.055C52.2224 107.987 52.2482 107.907 52.2493 107.824C52.2505 107.742 52.2269 107.661 52.1818 107.592" fill="#996552"/>
<path d="M49.0321 105.356C49.2348 105.347 49.2135 106.698 50.352 107.676C51.4905 108.654 52.9308 108.532 52.9379 108.721C52.9554 108.806 52.6141 108.98 52.0054 108.98C51.214 108.977 50.4491 108.695 49.8449 108.184C49.2659 107.693 48.9001 106.997 48.8248 106.242C48.7814 105.678 48.9382 105.348 49.0321 105.356Z" fill="#2E353A"/>
<path d="M22.48 134.816C26.0565 135.086 29.6022 133.989 32.4015 131.748C35.2007 129.506 37.045 126.286 37.5619 122.738C37.6357 122.123 37.7738 121.517 37.9738 120.931C38.9698 118.271 39.0891 115.362 38.3143 112.629C37.9795 111.368 37.5004 109.987 38.0735 108.815C38.4893 107.964 39.3615 107.455 40.0752 106.832C41.6524 105.364 42.6048 103.346 42.7351 101.195C42.8531 99.0602 42.5005 96.9255 41.7022 94.9419C41.2935 93.8413 40.7955 92.6389 41.2113 91.5421C41.5892 90.8009 42.1376 90.1599 42.8115 89.6717C44.1175 88.4947 45.203 87.0944 46.0172 85.5364C46.8429 83.9547 47.3773 81.8997 45.2239 80.6455C44.7686 80.389 44.2692 80.2195 43.7518 80.1457C39.9412 79.5553 35.3975 80.1224 32.8472 83.124C30.767 85.5675 30.4717 89.0158 30.2703 92.2168C29.6369 102.305 12.9315 121.046 19.3902 134.862L22.48 134.816Z" fill="#2E353A"/>
<path d="M48.7631 90.3891C48.6336 90.7252 47.3954 90.5426 45.9331 90.6928C44.4669 90.8132 43.2824 91.2198 43.0939 90.9129C43.0104 90.766 43.2234 90.4519 43.7026 90.1328C44.3417 89.7354 45.0665 89.4962 45.8166 89.4348C46.5639 89.3582 47.3187 89.4608 48.0184 89.734C48.554 89.9593 48.8188 90.2299 48.7631 90.3891Z" fill="#2E353A"/>
<path d="M60.1951 91.6351C59.971 91.9135 59.1194 91.6046 58.0891 91.5703C57.06 91.5023 56.1824 91.7263 55.9868 91.4272C55.9013 91.2822 56.0439 91.0018 56.4299 90.7409C56.9447 90.4218 57.546 90.2706 58.1506 90.3084C58.7559 90.3293 59.3396 90.5381 59.8207 90.906C60.1795 91.2058 60.2942 91.4984 60.1951 91.6351Z" fill="#2E353A"/>
<path d="M94.1916 87.0923L82.9697 119.615L99.0797 125.171L110.302 92.648L94.1916 87.0923Z" fill="#92E3A9"/>
<path opacity="0.5" d="M82.9697 119.615L99.0793 125.171L110.301 92.6476L94.1917 87.0918L82.9697 119.615ZM108.607 93.4718L98.2543 123.479L84.6626 118.792L95.0161 88.7862L108.607 93.4718Z" fill="black" fill-opacity="0.7"/>
<path opacity="0.5" d="M96.5842 91.3268L95.1983 95.3411C95.1614 95.448 95.1039 95.5466 95.0289 95.6313C94.9539 95.716 94.863 95.785 94.7613 95.8346C94.6596 95.8841 94.5491 95.9132 94.4362 95.92C94.3233 95.9269 94.2101 95.9114 94.1032 95.8746C93.9962 95.8377 93.8976 95.7802 93.8129 95.7052C93.7282 95.6302 93.6591 95.5393 93.6095 95.4377C93.5599 95.336 93.5309 95.2256 93.524 95.1127C93.5172 94.9998 93.5326 94.8866 93.5695 94.7797L94.9561 90.7655C95.0306 90.5497 95.1879 90.3723 95.3933 90.2724C95.5986 90.1724 95.8353 90.1582 96.0512 90.2327C96.1581 90.2695 96.2566 90.327 96.3413 90.402C96.4259 90.4769 96.4949 90.5677 96.5444 90.6693C96.5939 90.771 96.6229 90.8814 96.6297 90.9942C96.6365 91.107 96.6211 91.22 96.5842 91.3268Z" fill="black" fill-opacity="0.7"/>
<path opacity="0.5" d="M99.7015 117.48L98.3149 121.494C98.2403 121.71 98.0831 121.887 97.8777 121.987C97.6723 122.087 97.4357 122.101 97.2198 122.027C97.0039 121.952 96.8265 121.795 96.7265 121.59C96.6266 121.385 96.6123 121.148 96.6868 120.932L98.0727 116.918C98.1473 116.702 98.3045 116.525 98.5099 116.425C98.7152 116.325 98.9519 116.311 99.1678 116.385C99.2748 116.422 99.3734 116.479 99.4581 116.554C99.5428 116.629 99.6119 116.72 99.6615 116.822C99.711 116.924 99.7401 117.034 99.7469 117.147C99.7538 117.26 99.7383 117.373 99.7015 117.48Z" fill="black" fill-opacity="0.7"/>
<path opacity="0.5" d="M91.5899 104.392C91.1281 105.729 91.2167 107.196 91.8361 108.468C92.4554 109.74 93.5549 110.715 94.8928 111.177C96.2309 111.639 97.6977 111.55 98.9706 110.931C100.243 110.312 101.218 109.213 101.68 107.875C102.142 106.537 102.054 105.071 101.435 103.798C100.815 102.526 99.7156 101.551 98.3776 101.089C97.0394 100.627 95.5726 100.716 94.2997 101.335C93.0267 101.954 92.052 103.054 91.5899 104.392ZM99.441 106.706L99.8393 106.843L99.5964 107.545L99.1982 107.408C99.0321 107.683 98.7677 107.883 98.4588 107.97C98.1498 108.056 97.8195 108.022 97.5351 107.874L97.1601 107.744L97.4405 106.932L97.8699 107.08C98.2585 107.215 98.4605 107.091 98.5544 106.821C98.6483 106.55 98.5674 106.328 98.1775 106.193C97.7876 106.058 97.4522 106.118 96.7994 106.539C96.5358 106.765 96.2188 106.919 95.8786 106.987C95.5385 107.055 95.1865 107.035 94.8565 106.928C94.1227 106.675 93.7555 106.208 93.8333 105.562L93.4272 105.422L93.6701 104.72L94.0761 104.859C94.2415 104.587 94.5044 104.388 94.8114 104.302C95.1184 104.217 95.4464 104.251 95.7288 104.399L95.9011 104.458L95.6207 105.27L95.394 105.192C95.0054 105.057 94.8014 105.162 94.7069 105.435C94.6123 105.707 94.7069 105.915 95.0955 106.05C95.484 106.184 95.813 106.123 96.473 105.703C96.7371 105.479 97.0541 105.325 97.3941 105.257C97.734 105.189 98.0856 105.209 98.4158 105.315C98.7306 105.375 99.0111 105.551 99.2011 105.809C99.391 106.067 99.4763 106.387 99.4397 106.706H99.441Z" fill="black" fill-opacity="0.7"/>
<path d="M94.1916 87.0923L82.9697 119.615L99.0797 125.171L110.302 92.648L94.1916 87.0923Z" stroke="#263238" stroke-width="0.5" stroke-linecap="round" stroke-linejoin="round"/>
<path d="M95.2651 68.552L86.4258 35.3027L69.956 39.6789L78.7954 72.9282L95.2651 68.552Z" fill="#92E3A9"/>
<path opacity="0.5" d="M86.4257 35.3027L69.9561 39.6782L78.7948 72.9281L95.2645 68.5519L86.4257 35.3027ZM79.741 71.301L71.5861 40.6255L85.4809 36.935L93.6357 67.6112L79.741 71.301Z" fill="black" fill-opacity="0.7"/>
<path opacity="0.5" d="M90.9156 66.3725L89.8237 62.2657C89.7652 62.045 89.7967 61.8101 89.9113 61.6126C90.026 61.4151 90.2143 61.2711 90.435 61.2124C90.6558 61.1539 90.8908 61.1853 91.0883 61.2999C91.2859 61.4145 91.4299 61.6029 91.4887 61.8235L92.5806 65.9296C92.6096 66.0389 92.6169 66.1528 92.6019 66.2649C92.5869 66.377 92.5499 66.4851 92.4931 66.5829C92.4364 66.6807 92.3609 66.7664 92.271 66.8351C92.1811 66.9037 92.0786 66.954 91.9692 66.983C91.7485 67.0417 91.5135 67.0104 91.3159 66.8959C91.1184 66.7814 90.9743 66.5931 90.9156 66.3725Z" fill="black" fill-opacity="0.7"/>
<path opacity="0.5" d="M73.7323 46.408L72.6404 42.3012C72.6113 42.192 72.6039 42.078 72.6189 41.9659C72.6338 41.8539 72.6706 41.7458 72.7274 41.648C72.7841 41.5502 72.8595 41.4645 72.9494 41.3958C73.0393 41.3271 73.1418 41.2769 73.2511 41.2478C73.3604 41.2187 73.4744 41.2114 73.5866 41.2263C73.6988 41.2412 73.8069 41.278 73.9048 41.3347C74.0027 41.3914 74.0885 41.4669 74.1572 41.5567C74.226 41.6466 74.2763 41.7491 74.3054 41.8584L75.3967 45.9652C75.4258 46.0744 75.4332 46.1883 75.4183 46.3004C75.4033 46.4125 75.3665 46.5205 75.3097 46.6184C75.253 46.7162 75.1776 46.8019 75.0877 46.8706C74.9978 46.9392 74.8953 46.9895 74.786 47.0185C74.6767 47.0477 74.5627 47.055 74.4506 47.0401C74.3385 47.0252 74.2304 46.9883 74.1326 46.9316C74.0347 46.8749 73.949 46.7995 73.8803 46.7097C73.8116 46.6198 73.7613 46.5173 73.7323 46.408Z" fill="black" fill-opacity="0.7"/>
<path opacity="0.5" d="M87.77 52.7459C87.5899 52.0685 87.2781 51.4332 86.8524 50.8762C86.4267 50.3193 85.8955 49.8516 85.289 49.4998C84.6825 49.1481 84.0127 48.9193 83.3177 48.8264C82.6228 48.7335 81.9163 48.7783 81.2387 48.9584C79.8702 49.3218 78.7022 50.2138 77.9916 51.4382C77.281 52.6626 77.086 54.1191 77.4494 55.4872C77.6295 56.1646 77.9413 56.7998 78.367 57.3567C78.7926 57.9136 79.3238 58.3812 79.9302 58.7329C80.5367 59.0845 81.2064 59.3134 81.9013 59.4062C82.5962 59.4991 83.3025 59.4542 83.9801 59.2742C84.6577 59.0944 85.2933 58.7829 85.8505 58.3575C86.4077 57.9321 86.8756 57.401 87.2276 56.7948C87.5795 56.1886 87.8085 55.519 87.9016 54.8243C87.9947 54.1296 87.9499 53.4234 87.77 52.7459ZM79.9629 55.2063L79.5555 55.3144L79.3612 54.5964L79.7686 54.4883C79.7284 53.824 80.1306 53.3753 80.889 53.1739L81.2724 53.0723L81.4932 53.9023L81.0541 54.0195C80.6545 54.125 80.558 54.3386 80.6319 54.6183C80.7057 54.898 80.8967 55.0346 81.2957 54.9291C81.6946 54.8236 81.9394 54.5866 82.2457 53.8731C82.6214 53.0043 83.0028 52.6385 83.6414 52.4688C83.9316 52.3435 84.2583 52.3318 84.5568 52.436C84.8552 52.5402 85.1036 52.7528 85.2527 53.0315L85.6678 52.9214L85.8621 53.6394L85.4469 53.7495C85.4851 54.406 85.0907 54.8501 84.3324 55.0541L84.1569 55.1007L83.936 54.2713L84.1679 54.2098C84.5675 54.1036 84.6763 53.9036 84.6024 53.6271C84.5286 53.3506 84.3343 53.2282 83.9347 53.3344C83.5352 53.4406 83.2988 53.6743 82.9847 54.3898C82.6006 55.2606 82.2276 55.6251 81.5891 55.7948C81.2936 55.9203 80.9614 55.9292 80.6597 55.8197C80.3579 55.7101 80.1089 55.4902 79.9629 55.2043V55.2063Z" fill="black" fill-opacity="0.7"/>
<path d="M95.2651 68.552L86.4258 35.3027L69.956 39.6789L78.7954 72.9282L95.2651 68.552Z" stroke="#263238" stroke-width="0.4" stroke-linecap="round" stroke-linejoin="round"/>
<path d="M109.216 52.8462C109.216 53.8165 108.831 54.747 108.145 55.4331C107.458 56.1192 106.528 56.5048 105.557 56.505C104.587 56.505 103.656 56.1195 102.969 55.4334C102.283 54.7472 101.897 53.8166 101.897 52.8462C101.897 52.3658 101.992 51.89 102.176 51.4461C102.36 51.0022 102.63 50.5989 102.969 50.2591C103.309 49.9194 103.713 49.6498 104.157 49.4659C104.601 49.2821 105.077 49.1875 105.557 49.1875C106.528 49.1877 107.458 49.5732 108.145 50.2593C108.831 50.9454 109.216 51.876 109.216 52.8462Z" fill="#BFBFBF" stroke="#263238" stroke-width="0.4" stroke-linecap="round" stroke-linejoin="round"/>
<path opacity="0.5" d="M107.601 55.1241C108.206 54.582 108.57 53.8223 108.614 53.0119C108.658 52.2014 108.378 51.4067 107.836 50.8024C107.294 50.1982 106.534 49.8339 105.724 49.7897C104.913 49.7455 104.118 50.025 103.514 50.5667C102.909 51.1086 102.545 51.8683 102.501 52.6787C102.456 53.4892 102.736 54.2839 103.278 54.8884C103.82 55.4928 104.58 55.8572 105.391 55.9014C106.202 55.9456 106.997 55.6659 107.601 55.1241ZM104.312 51.7761L104.151 51.5967L104.468 51.3119L104.629 51.4919C104.789 51.4003 104.978 51.373 105.157 51.4158C105.336 51.4585 105.492 51.5679 105.593 51.7217L105.745 51.8914L105.378 52.2202L105.204 52.026C105.045 51.8492 104.911 51.8558 104.788 51.9665C104.665 52.0772 104.644 52.2099 104.802 52.386C104.959 52.5621 105.144 52.6262 105.589 52.5971C105.783 52.558 105.985 52.5694 106.174 52.6301C106.363 52.6909 106.534 52.799 106.669 52.9441C106.809 53.0601 106.9 53.2245 106.924 53.4044C106.948 53.5844 106.903 53.7668 106.799 53.9153L106.963 54.0985L106.645 54.3834L106.482 54.2001C106.323 54.2906 106.135 54.3172 105.958 54.2745C105.78 54.2318 105.625 54.123 105.524 53.9703L105.454 53.8926L105.821 53.5644L105.913 53.666C106.072 53.8428 106.202 53.8467 106.325 53.736C106.448 53.6253 106.459 53.4951 106.301 53.3184C106.143 53.1416 105.962 53.082 105.514 53.1079C105.319 53.1469 105.118 53.1356 104.928 53.0748C104.739 53.0141 104.569 52.906 104.433 52.7608C104.291 52.6424 104.2 52.4745 104.178 52.2911C104.155 52.1078 104.203 51.9228 104.312 51.7735V51.7761Z" fill="black" fill-opacity="0.7"/>
<path d="M91.8842 23.9374C91.8842 24.9077 91.4987 25.8382 90.8125 26.5243C90.1263 27.2104 89.1956 27.596 88.2251 27.5961C87.2545 27.5961 86.3237 27.2107 85.6373 26.5245C84.951 25.8384 84.5654 24.9078 84.5654 23.9374C84.5656 22.9672 84.9513 22.0367 85.6376 21.3507C86.3239 20.6647 87.2546 20.2793 88.2251 20.2793C88.7057 20.2793 89.1815 20.374 89.6254 20.5578C90.0693 20.7417 90.4727 21.0111 90.8125 21.3508C91.1523 21.6905 91.4218 22.0937 91.6057 22.5375C91.7896 22.9814 91.8842 23.457 91.8842 23.9374Z" fill="#BFBFBF" stroke="#263238" stroke-width="0.4" stroke-linecap="round" stroke-linejoin="round"/>
<path opacity="0.5" d="M90.2686 26.2161C90.568 25.9478 90.8117 25.6232 90.9855 25.2608C91.1594 24.8983 91.2602 24.5052 91.2821 24.1038C91.304 23.7024 91.2466 23.3006 91.1131 22.9214C90.9797 22.5422 90.7728 22.193 90.5044 21.8937C89.9622 21.2897 89.2022 20.9255 88.3916 20.8815C87.581 20.8374 86.786 21.117 86.1815 21.6588C85.5771 22.2007 85.2128 22.9604 85.1686 23.7708C85.1244 24.5812 85.4039 25.376 85.9458 25.9805C86.4878 26.5848 87.2477 26.9492 88.0584 26.9934C88.8691 27.0376 89.6641 26.758 90.2686 26.2161ZM86.9794 22.8682L86.8181 22.6888L87.1354 22.404L87.2967 22.584C87.4564 22.4925 87.645 22.4654 87.8241 22.5081C88.0031 22.5508 88.1591 22.6601 88.2604 22.8138L88.4119 22.9834L88.0453 23.3123L87.8711 23.1181C87.7125 22.9413 87.5784 22.9478 87.4554 23.0586C87.3323 23.1693 87.3109 23.302 87.469 23.4787C87.627 23.6555 87.8116 23.7183 88.2558 23.6892C88.4506 23.6501 88.6522 23.6615 88.8414 23.7222C89.0305 23.7829 89.2011 23.8911 89.3367 24.0362C89.4764 24.1522 89.5673 24.3165 89.5913 24.4964C89.6153 24.6764 89.5706 24.8588 89.4662 25.0074L89.6301 25.1906L89.3127 25.4754L89.1482 25.2922C88.9895 25.3826 88.8022 25.4092 88.6245 25.3665C88.4468 25.3238 88.2921 25.2151 88.1917 25.0624L88.1218 24.9847L88.489 24.6558L88.5803 24.7574C88.7389 24.9342 88.8691 24.9381 88.9922 24.8274C89.1152 24.7166 89.1262 24.5865 88.9676 24.4097C88.8089 24.233 88.6289 24.1734 88.1813 24.1993C87.9865 24.2384 87.785 24.227 87.5958 24.1662C87.4066 24.1055 87.2361 23.9974 87.1005 23.8523C86.9597 23.7339 86.869 23.5665 86.8467 23.3839C86.8243 23.2014 86.872 23.0171 86.98 22.8682H86.9794Z" fill="black" fill-opacity="0.7"/>
<path d="M74.8972 94.623C74.4304 94.5085 73.9909 94.3032 73.6035 94.0188C73.2162 93.7344 72.8887 93.3765 72.6397 92.9656C72.3907 92.5546 72.2252 92.0987 72.1525 91.6237C72.0798 91.1488 72.1014 90.6643 72.216 90.1977C72.3306 89.7311 72.5361 89.2916 72.8206 88.9044C73.1051 88.5172 73.4632 88.1898 73.8743 87.941C74.2854 87.6921 74.7415 87.5267 75.2166 87.4541C75.6917 87.3815 76.1764 87.4032 76.6431 87.5179C77.1098 87.6325 77.5493 87.8379 77.9366 88.1223C78.3238 88.4067 78.6513 88.7646 78.9002 89.1756C79.1491 89.5865 79.3146 90.0424 79.3873 90.5173C79.4599 90.9921 79.4383 91.4767 79.3236 91.9432C79.209 92.4097 79.0036 92.8491 78.7191 93.2363C78.4346 93.6234 78.0766 93.9509 77.6656 94.1997C77.2545 94.4486 76.7985 94.614 76.3235 94.6866C75.8485 94.7593 75.3638 94.7376 74.8972 94.623Z" fill="#BFBFBF" stroke="#263238" stroke-width="0.4" stroke-linecap="round" stroke-linejoin="round"/>
<path opacity="0.5" d="M73.0681 92.5109C73.2573 92.8659 73.5147 93.1801 73.8254 93.4356C74.1362 93.6911 74.4943 93.8828 74.8793 93.9999C75.2642 94.1169 75.6685 94.1568 76.0689 94.1175C76.4693 94.0782 76.8581 93.9604 77.2129 93.7708C77.5681 93.5817 77.8824 93.3245 78.138 93.0138C78.3937 92.7032 78.5855 92.3451 78.7026 91.9603C78.8197 91.5754 78.8598 91.1713 78.8206 90.771C78.7813 90.3706 78.6635 89.982 78.4738 89.6272C78.2846 89.2722 78.0273 88.958 77.7165 88.7025C77.4057 88.447 77.0476 88.2552 76.6627 88.1382C76.2777 88.0212 75.8735 87.9812 75.4731 88.0205C75.0726 88.0598 74.6839 88.1776 74.329 88.3672C73.974 88.5564 73.6597 88.8136 73.4041 89.1243C73.1485 89.435 72.9567 89.793 72.8396 90.1778C72.7225 90.5627 72.6824 90.9667 72.7216 91.3671C72.7608 91.7674 72.8786 92.1561 73.0681 92.5109ZM77.1054 90.1153L77.3185 90.0021L77.5192 90.3782L77.3062 90.4915C77.3568 90.6684 77.3381 90.8579 77.2539 91.0215C77.1697 91.1851 77.0263 91.3105 76.8528 91.372L76.6521 91.4789L76.4202 91.0444L76.6501 90.9214C76.8593 90.81 76.8852 90.6786 76.8075 90.5329C76.7298 90.3873 76.6054 90.3355 76.3963 90.4469C76.1871 90.5582 76.0815 90.722 76.0038 91.159C75.9952 91.3575 75.9361 91.5505 75.8319 91.7197C75.7277 91.8889 75.582 92.0286 75.4086 92.1256C75.2631 92.233 75.0826 92.282 74.9028 92.2628C74.7229 92.2437 74.5568 92.1578 74.4372 92.0221L74.2202 92.138L74.0195 91.7618L74.2371 91.6459C74.1873 91.4699 74.2065 91.2816 74.2907 91.1192C74.3749 90.9568 74.5179 90.8326 74.6904 90.7719L74.7824 90.7233L75.0142 91.1577L74.8931 91.2225C74.6846 91.3339 74.6496 91.4601 74.7273 91.6064C74.8051 91.7527 74.9287 91.7942 75.1386 91.6822C75.3484 91.5702 75.4494 91.409 75.531 90.97C75.5396 90.7715 75.5988 90.5785 75.7029 90.4093C75.8071 90.2401 75.9528 90.1004 76.1262 90.0033C76.2739 89.896 76.4565 89.8481 76.6379 89.869C76.8193 89.89 76.9861 89.9784 77.1054 90.1167V90.1153Z" fill="black" fill-opacity="0.7"/>
<path d="M84.6211 89.5731V75.7578" stroke="#263238" stroke-width="0.4" stroke-linecap="round" stroke-linejoin="round"/>
<path d="M84.6211 97.8619V92.3359" stroke="#263238" stroke-width="0.4" stroke-linecap="round" stroke-linejoin="round"/>
<path d="M84.6211 103.024V100.068" stroke="#263238" stroke-width="0.4" stroke-linecap="round" stroke-linejoin="round"/>
<path d="M82.0107 77.37L84.6207 74.1406L87.2306 77.37" stroke="#263238" stroke-width="0.4" stroke-linecap="round" stroke-linejoin="round"/>
<path d="M78.5771 20.3954V6.58008" stroke="#263238" stroke-width="0.4" stroke-linecap="round" stroke-linejoin="round"/>
<path d="M78.5771 28.6842V23.1582" stroke="#263238" stroke-width="0.4" stroke-linecap="round" stroke-linejoin="round"/>
<path d="M78.5771 33.8482V30.8926" stroke="#263238" stroke-width="0.4" stroke-linecap="round" stroke-linejoin="round"/>
<path d="M75.9668 8.19435L78.5767 4.96484L81.1866 8.19435" stroke="#263238" stroke-width="0.4" stroke-linecap="round" stroke-linejoin="round"/>
<path d="M98.7041 61.9715V48.1562" stroke="#263238" stroke-width="0.4" stroke-linecap="round" stroke-linejoin="round"/>
<path d="M98.7041 70.2604V64.7344" stroke="#263238" stroke-width="0.4" stroke-linecap="round" stroke-linejoin="round"/>
<path d="M98.7041 75.4224V72.4668" stroke="#263238" stroke-width="0.4" stroke-linecap="round" stroke-linejoin="round"/>
<path d="M96.0938 49.7705L98.7037 46.541L101.314 49.7705" stroke="#263238" stroke-width="0.4" stroke-linecap="round" stroke-linejoin="round"/>
<path d="M190.34 59.0582C190.954 57.7416 191.916 56.618 193.123 55.809C194.33 55 195.735 54.5364 197.187 54.4684C198.64 54.4392 200.073 54.8079 201.331 55.5346C202.59 56.2614 203.625 57.3184 204.326 58.5914C205.134 60.1109 205.453 61.9212 206.62 63.1883C207.375 63.9571 208.378 64.4339 209.451 64.5342C210.524 64.6344 211.598 64.3517 212.482 63.736C212.689 64.6683 212.552 65.6438 212.097 66.4834C211.643 67.3231 210.9 67.9706 210.006 68.307L212.87 68.601C211.325 71.9716 207.094 73.5158 203.435 72.8573C199.777 72.1989 196.669 69.7806 194.18 67.0303" fill="#263238"/>
<path d="M190.361 59.1049L199.195 61.9971C202.338 64.0405 204.727 67.0545 205.999 70.5803C206.412 71.7723 206.694 73.0122 207.216 74.1607C207.688 75.3452 208.571 76.3196 209.704 76.9046C210.553 77.284 211.518 77.3274 212.387 77.6492C213.12 77.9391 213.771 78.401 214.287 78.9958C214.803 79.5906 215.169 80.3008 215.352 81.0664C215.524 81.8335 215.541 82.6269 215.404 83.4008C215.266 84.1746 214.976 84.9135 214.551 85.5746C214.132 86.2396 213.575 86.8851 213.538 87.6691C213.573 88.1997 213.682 88.7228 213.862 89.223C214.056 90.1084 213.971 91.0322 213.618 91.8671C213.265 92.702 212.662 93.4069 211.891 93.8846C211.101 94.3329 210.192 94.5262 209.288 94.438C208.383 94.3498 207.529 93.9844 206.84 93.3919C206.275 94.6868 205.523 96.0238 204.244 96.6344C202.964 97.2449 201.075 96.6991 200.811 95.3071C200.476 95.969 199.938 96.5065 199.276 96.8413C198.613 97.1761 197.861 97.2908 197.13 97.1685C196.404 97.0152 195.746 96.6337 195.253 96.0799C194.76 95.526 194.457 94.8289 194.388 94.0905L170.177 67.6888C173.79 58.0289 187.922 58.8822 190.361 59.1049Z" fill="#263238"/>
<path d="M194.461 68.2895C195.212 68.3677 195.906 68.7247 196.406 69.29C196.906 69.8553 197.176 70.5877 197.162 71.3422L195.451 111.994C195.387 116.794 186.651 122.471 181.496 122.363C176.291 122.254 177.821 116.745 177.746 112.178C177.62 104.547 177.623 101.683 177.62 101.727C177.62 101.727 171.043 100.638 169.68 92.08C169.003 87.8243 169.217 80.8468 169.577 75.1427C169.901 70.0091 173.313 63.7107 178.443 64.2513L194.461 68.2895Z" fill="#FFBE9D"/>
<path d="M171.808 80.683C171.806 80.9694 171.916 81.2451 172.114 81.4518C172.312 81.6586 172.583 81.7799 172.869 81.7902C173.009 81.8015 173.15 81.7846 173.283 81.7407C173.416 81.6968 173.539 81.6267 173.645 81.5345C173.751 81.4424 173.837 81.33 173.898 81.204C173.96 81.078 173.996 80.9409 174.004 80.8009C174.005 80.5154 173.896 80.2405 173.699 80.0342C173.501 79.8279 173.231 79.7063 172.946 79.695C172.806 79.6834 172.665 79.6999 172.532 79.7435C172.398 79.7872 172.275 79.8571 172.169 79.9491C172.063 80.0412 171.976 80.1536 171.914 80.2796C171.852 80.4056 171.816 80.5428 171.808 80.683Z" fill="#263238"/>
<path d="M171.095 78.7723C171.232 78.9161 172.067 78.3003 173.25 78.3036C174.433 78.29 175.302 78.8973 175.431 78.7529C175.496 78.6882 175.355 78.4292 174.978 78.1553C174.465 77.8012 173.856 77.614 173.233 77.6192C172.617 77.6167 172.016 77.8098 171.517 78.1709C171.152 78.4499 171.029 78.7089 171.095 78.7723Z" fill="#263238"/>
<path d="M183.386 80.6834C183.384 80.9697 183.494 81.2455 183.692 81.4522C183.89 81.6589 184.161 81.7803 184.447 81.7905C184.587 81.8017 184.728 81.7849 184.861 81.7409C184.994 81.697 185.117 81.6269 185.223 81.5347C185.329 81.4425 185.415 81.3302 185.476 81.2042C185.538 81.0782 185.574 80.9412 185.582 80.8012C185.584 80.5148 185.475 80.2388 185.276 80.0318C185.078 79.8249 184.807 79.7032 184.521 79.6928C184.381 79.6816 184.24 79.6985 184.107 79.7425C183.974 79.7865 183.851 79.8568 183.745 79.9491C183.639 80.0414 183.553 80.1539 183.491 80.28C183.429 80.4061 183.394 80.5433 183.386 80.6834Z" fill="#263238"/>
<path d="M182.737 78.9937C182.874 79.1368 183.708 78.5217 184.892 78.5249C186.075 78.5107 186.945 79.1186 187.073 78.9736C187.138 78.9089 186.998 78.6499 186.619 78.3767C186.107 78.0223 185.497 77.8349 184.874 77.8399C184.258 77.838 183.658 78.0313 183.159 78.3922C182.795 78.6706 182.67 78.9296 182.737 78.9937Z" fill="#263238"/>
<path d="M178.439 87.7521C177.814 87.5568 177.168 87.4404 176.515 87.4057C176.213 87.3747 175.927 87.3151 175.875 87.1092C175.85 86.7975 175.921 86.4856 176.077 86.2151L176.972 83.9192C178.214 80.6496 179.113 77.9627 178.979 77.9128C178.846 77.863 177.733 80.4741 176.491 83.7437C176.192 84.5496 175.907 85.3197 175.634 86.0539C175.443 86.4175 175.388 86.8368 175.477 87.2374C175.521 87.3439 175.588 87.439 175.675 87.5155C175.761 87.5919 175.863 87.6476 175.974 87.6783C176.142 87.7235 176.315 87.7475 176.488 87.7495C177.136 87.8328 177.791 87.8337 178.439 87.7521Z" fill="#263238"/>
<path d="M177.62 101.727C181.66 101.789 185.638 100.73 189.113 98.6699C189.113 98.6699 186.325 104.548 177.736 103.747L177.62 101.727Z" fill="#EB996E"/>
<path d="M178.94 90.5973C179.166 90.3143 179.46 90.0933 179.794 89.955C180.129 89.8167 180.493 89.7657 180.853 89.8067C181.114 89.83 181.368 89.9058 181.599 90.0296C181.83 90.1533 182.034 90.3224 182.198 90.5267C182.356 90.7234 182.45 90.9639 182.467 91.2157C182.484 91.4675 182.422 91.7183 182.292 91.9343C182.101 92.1468 181.851 92.2976 181.575 92.3674C181.298 92.4372 181.006 92.4228 180.738 92.326C180.178 92.1285 179.664 91.8222 179.224 91.4247C179.09 91.3305 178.976 91.2121 178.885 91.0758C178.842 91.0108 178.818 90.9342 178.818 90.8559C178.818 90.7777 178.842 90.7011 178.885 90.6361" fill="#EB996E"/>
<path d="M181.924 88.5685C181.73 88.5575 181.73 89.8388 180.629 90.7491C179.528 91.6594 178.16 91.5176 178.15 91.697C178.132 91.7773 178.455 91.9462 179.033 91.9618C179.786 91.9724 180.519 91.7177 181.103 91.2425C181.662 90.7866 182.022 90.1308 182.106 89.4141C182.156 88.8786 182.012 88.5607 181.924 88.5685Z" fill="#263238"/>
<path d="M182.206 76.9254C182.322 77.2492 183.505 77.0944 184.894 77.2615C186.287 77.4007 187.408 77.8066 187.592 77.5205C187.674 77.3826 187.48 77.0802 187.026 76.7694C186.424 76.3815 185.739 76.1423 185.026 76.0715C184.315 75.9859 183.594 76.0704 182.922 76.3181C182.411 76.5221 182.153 76.7733 182.206 76.9254Z" fill="#263238"/>
<path d="M171.53 75.356C171.738 75.6241 172.554 75.3457 173.538 75.3327C174.519 75.2848 175.351 75.5127 175.541 75.2324C175.625 75.0958 175.495 74.8271 175.131 74.5733C174.647 74.2614 174.077 74.1077 173.501 74.1337C172.925 74.1433 172.366 74.3318 171.902 74.673C171.552 74.9475 171.439 75.2266 171.53 75.356Z" fill="#263238"/>
<path d="M196.211 81.9771C196.559 81.7876 196.953 81.6978 197.349 81.7175C197.745 81.7373 198.127 81.8659 198.455 82.0891C199.234 82.5636 199.831 83.2847 200.153 84.1378C200.475 84.9909 200.502 85.927 200.231 86.7974C199.914 87.6535 199.321 88.3797 198.545 88.8613C197.769 89.3429 196.855 89.5523 195.947 89.4564" fill="#FFBE9D"/>
<path d="M182.719 61.401C179.591 61.5046 177.219 62.4531 174.474 63.9507C173.082 64.6691 171.846 65.6549 170.836 66.8517C169.826 68.0485 169.062 69.4327 168.587 70.925C168.467 71.2339 168.411 71.5642 168.422 71.8956C168.434 72.227 168.514 72.5524 168.657 72.8518C168.929 73.196 169.313 73.4346 169.743 73.527C170.172 73.6194 170.62 73.5597 171.01 73.3581C171.78 72.9325 172.436 72.3289 172.924 71.5977C173.147 72.3816 173.618 73.0725 174.266 73.5672C174.913 74.0619 175.704 74.334 176.519 74.3429C177.333 74.3159 178.117 74.0264 178.754 73.5174C179.39 73.0084 179.845 72.3073 180.05 71.5187C180.119 72.3397 180.501 73.103 181.116 73.6505C181.732 74.1981 182.535 74.4882 183.358 74.4608C184.181 74.3894 184.965 74.0793 185.614 73.5686C186.263 73.058 186.748 72.3689 187.011 71.5861C187.216 73.0688 187.73 74.492 188.521 75.7634C189.397 76.9729 190.981 77.8042 192.406 77.3419C192.205 78.6174 192.009 79.9602 192.463 81.169C192.916 82.3778 194.264 83.3574 195.488 82.9378C196.677 82.5306 197.138 81.125 197.417 79.9039C198.027 77.5618 198.336 75.1516 198.337 72.7314C198.331 70.2952 197.559 67.9224 196.129 65.9494C194.509 64.0113 192.3 62.6538 189.839 62.0822C187.391 61.5212 184.879 61.2932 182.37 61.4043" fill="#263238"/>
<path d="M196.81 86.9032C196.835 86.8424 197.144 86.9757 197.558 86.786C197.81 86.6409 198.014 86.4251 198.145 86.1653C198.276 85.9055 198.327 85.613 198.294 85.3241C198.291 85.0313 198.203 84.7458 198.04 84.5022C197.878 84.2587 197.648 84.0676 197.379 83.9521C196.949 83.7767 196.633 83.8621 196.615 83.7961C196.585 83.754 196.907 83.5267 197.473 83.653C197.802 83.7327 198.096 83.9156 198.312 84.1748C198.572 84.4943 198.722 84.8897 198.738 85.3014C198.781 85.675 198.699 86.0524 198.505 86.3744C198.311 86.6964 198.015 86.945 197.664 87.0813C197.081 87.2341 196.764 86.9375 196.81 86.9032Z" fill="#EB996E"/>
<path d="M197.066 90.498C197.684 90.498 198.185 89.9983 198.185 89.3818C198.185 88.7654 197.684 88.2656 197.066 88.2656C196.448 88.2656 195.947 88.7654 195.947 89.3818C195.947 89.9983 196.448 90.498 197.066 90.498Z" fill="#E8505B"/>
<path d="M190.475 58.6718C190.922 58.5197 191.398 58.4654 191.868 58.5126C193.013 58.5643 194.129 58.891 195.121 59.465C196.115 60.0346 196.958 60.8357 197.576 61.8003C197.853 62.1842 198.043 62.6226 198.136 63.0862C198.081 63.1101 197.872 62.6181 197.378 61.9343C196.729 61.0486 195.903 60.3072 194.952 59.757C193.999 59.2115 192.944 58.869 191.852 58.7508C191.013 58.666 190.482 58.7308 190.475 58.6718Z" fill="#E8505B"/>
<path d="M194.963 58.6753C194.938 58.5877 194.928 58.4964 194.933 58.4054C194.937 58.1433 194.993 57.8846 195.097 57.644C195.307 57.2053 195.617 56.8217 196.002 56.524C196.386 56.2262 196.835 56.0224 197.313 55.9289C198.538 55.5954 200.087 56.2228 201.164 57.4063C201.73 58.027 202.2 58.7283 202.56 59.4872C202.941 60.2642 203.252 61.1059 203.581 61.9476C203.882 62.769 204.25 63.5641 204.682 64.325C205.089 65.0197 205.617 65.6363 206.241 66.1457C206.797 66.6071 207.467 66.912 208.18 67.0288C208.802 67.1186 209.436 67.0302 210.01 66.7737C210.854 66.3949 211.537 65.7299 211.939 64.8961C212.063 64.5789 212.169 64.2546 212.255 63.9249C212.268 64.0145 212.267 64.1058 212.25 64.1949C212.218 64.4526 212.154 64.7054 212.059 64.9472C211.684 65.8456 210.989 66.5728 210.108 66.988C209.496 67.28 208.813 67.3893 208.141 67.3026C207.374 67.1914 206.651 66.8751 206.049 66.3871C205.389 65.8607 204.83 65.2188 204.399 64.4927C203.954 63.7179 203.576 62.9068 203.269 62.068C202.626 60.3736 202.004 58.7492 200.937 57.6168C199.916 56.4779 198.499 55.8829 197.364 56.1613C196.913 56.2397 196.487 56.4186 196.115 56.6846C195.744 56.9506 195.437 57.2969 195.218 57.6977C195.082 58.0081 194.996 58.338 194.963 58.6753Z" fill="#455A64"/>
<path d="M178.793 71.8908C178.781 71.8908 178.762 71.8118 178.737 71.6557C178.697 71.4287 178.671 71.1996 178.659 70.9694C178.602 70.1199 178.655 69.2667 178.817 68.4308C179.054 67.1853 179.497 65.988 180.129 64.8886C180.906 63.5365 181.967 62.3682 183.237 61.4636C184.513 60.5754 185.943 59.9314 187.454 59.5639C188.679 59.2454 189.946 59.1159 191.21 59.18C192.061 59.2148 192.904 59.3673 193.713 59.6332C193.933 59.7033 194.148 59.7886 194.356 59.8883C194.499 59.9531 194.573 59.9932 194.568 60.0036C193.476 59.6621 192.344 59.4644 191.2 59.4157C189.962 59.3868 188.727 59.537 187.532 59.8618C186.064 60.2379 184.676 60.8739 183.432 61.7394C182.201 62.6177 181.168 63.7443 180.399 65.0466C179.772 66.112 179.317 67.2702 179.053 68.4781C178.841 69.6026 178.754 70.7471 178.793 71.8908Z" fill="#455A64"/>
<path d="M184.2 71.3148C184.159 71.0951 184.151 70.8706 184.176 70.6486C184.205 70.0421 184.288 69.4394 184.426 68.848C184.879 66.8772 185.839 65.0588 187.211 63.5726C188.592 62.0946 190.334 61.0013 192.266 60.4001C192.845 60.2171 193.44 60.0871 194.043 60.0116C194.262 59.969 194.487 59.9596 194.709 59.9838C194.718 60.0485 193.769 60.1249 192.34 60.6235C190.482 61.2737 188.807 62.3618 187.457 63.796C186.126 65.2467 185.166 66.9975 184.657 68.8992C184.268 70.367 184.264 71.32 184.2 71.3148Z" fill="#455A64"/>
<path d="M182.719 121.861C180.846 116.12 176.263 110.272 171.228 112.382C165.624 114.73 164.066 117.705 160.995 122.316C157.924 126.928 156.041 132.204 154.187 137.422C153.462 139.463 152.762 141.83 153.873 143.689C154.833 145.293 156.808 145.927 158.617 146.409C163.284 147.65 167.994 148.712 172.746 149.595C174.651 149.95 176.741 150.246 178.425 149.291C180.563 148.078 181.217 145.361 181.664 142.946L186.356 117.532" fill="#E8505B"/>
<path d="M177.329 109.628L169.957 112.805C166.231 115.738 165.178 120.762 165.304 125.495L162.239 177.381C162.239 177.381 183.74 190.667 208.868 176.773C209.523 176.411 204.662 164.544 204.662 164.544L211.505 138.635C212.032 134.909 212.355 127.186 211.382 123.52C208.887 114.116 202.217 111.303 195.365 109.42C195.365 109.42 188.511 115.169 181.825 113.957C181.825 113.957 177.745 113.579 177.329 109.628Z" fill="#E8505B"/>
<g opacity="0.2">
<g opacity="0.2">
<g opacity="0.2">
<path opacity="0.2" d="M167.429 152.825L180.187 171.309C181.85 173.718 183.578 176.192 186.046 177.768C187.863 178.889 189.961 179.473 192.097 179.451C194.232 179.429 196.317 178.802 198.111 177.644C199.868 176.43 201.244 174.743 202.081 172.779C202.918 170.815 203.18 168.654 202.839 166.547C202.786 166.042 202.589 165.564 202.272 165.167C201.981 164.907 201.624 164.731 201.24 164.658C200.857 164.584 200.46 164.617 200.094 164.751C199.365 165.028 198.666 165.377 198.008 165.793C194.002 167.919 188.914 166.777 185.156 164.239C181.398 161.702 178.644 157.98 175.765 154.475C174.7 153.18 173.538 151.852 171.964 151.274C170.39 150.695 168.3 151.167 167.633 152.706" fill="black"/>
</g>
</g>
</g>
<path d="M188.915 127.404C191.348 127.404 193.32 125.437 193.32 123.011C193.32 120.586 191.348 118.619 188.915 118.619C186.483 118.619 184.511 120.586 184.511 123.011C184.511 125.437 186.483 127.404 188.915 127.404Z" fill="white"/>
<path d="M168.386 119.263C168.387 120.429 168.852 121.547 169.678 122.371C170.504 123.194 171.623 123.656 172.79 123.655C173.367 123.656 173.939 123.543 174.473 123.322C175.007 123.102 175.492 122.779 175.901 122.371C176.31 121.963 176.635 121.478 176.857 120.945C177.078 120.412 177.193 119.84 177.193 119.263C177.192 118.097 176.727 116.979 175.901 116.155C175.075 115.332 173.956 114.87 172.79 114.871C171.623 114.87 170.504 115.332 169.678 116.155C168.852 116.979 168.387 118.097 168.386 119.263Z" fill="white"/>
<path d="M164.833 161.32C164.835 162.486 165.299 163.604 166.125 164.428C166.951 165.251 168.07 165.713 169.237 165.712C170.403 165.713 171.523 165.251 172.348 164.428C173.174 163.604 173.639 162.486 173.641 161.32C173.64 160.743 173.526 160.171 173.304 159.638C173.082 159.104 172.758 158.62 172.349 158.212C171.94 157.804 171.454 157.481 170.921 157.26C170.387 157.04 169.814 156.927 169.237 156.928C168.659 156.927 168.087 157.04 167.553 157.26C167.019 157.481 166.534 157.804 166.125 158.212C165.716 158.62 165.391 159.104 165.17 159.638C164.948 160.171 164.834 160.743 164.833 161.32Z" fill="white"/>
<path d="M177.195 178.357C179.628 178.357 181.6 176.39 181.6 173.965C181.6 171.539 179.628 169.572 177.195 169.572C174.763 169.572 172.791 171.539 172.791 173.965C172.791 176.39 174.763 178.357 177.195 178.357Z" fill="white"/>
<path d="M197.726 179.421C200.158 179.421 202.13 177.455 202.13 175.029C202.13 172.603 200.158 170.637 197.726 170.637C195.293 170.637 193.321 172.603 193.321 175.029C193.321 177.455 195.293 179.421 197.726 179.421Z" fill="white"/>
<path d="M180.332 152.382C182.765 152.382 184.737 150.416 184.737 147.99C184.737 145.564 182.765 143.598 180.332 143.598C177.9 143.598 175.928 145.564 175.928 147.99C175.928 150.416 177.9 152.382 180.332 152.382Z" fill="white"/>
<path d="M175.928 138.533C178.36 138.533 180.332 136.566 180.332 134.14C180.332 131.715 178.36 129.748 175.928 129.748C173.495 129.748 171.523 131.715 171.523 134.14C171.523 136.566 173.495 138.533 175.928 138.533Z" fill="white"/>
<path d="M175.928 110.695C176.516 111.75 177.283 112.696 178.195 113.488C179.205 114.317 180.364 114.946 181.61 115.34C183.133 115.829 184.742 115.993 186.333 115.821C187.923 115.619 189.469 115.152 190.904 114.437C192.08 113.856 193.193 113.153 194.225 112.342C194.924 111.796 195.596 111.215 196.237 110.601C196.461 110.362 196.703 110.141 196.961 109.939C196.777 110.212 196.566 110.464 196.33 110.694C195.72 111.348 195.066 111.961 194.374 112.528C193.348 113.379 192.23 114.113 191.042 114.716C189.58 115.463 188 115.95 186.372 116.156C184.734 116.334 183.077 116.157 181.514 115.638C180.238 115.218 179.057 114.55 178.041 113.671C177.356 113.082 176.778 112.38 176.331 111.595C176.207 111.384 176.099 111.165 176.007 110.938C175.946 110.782 175.917 110.7 175.928 110.695Z" fill="#263238"/>
<path d="M198.12 110.395C203.156 112.5 208.398 114.753 211.877 118.951C215.413 123.218 216.644 129.016 216.387 134.545C216.13 140.074 214.52 145.441 212.922 150.742C212.296 152.814 211.457 155.137 209.458 155.981C207.733 156.709 205.766 156.056 204.018 155.377C199.518 153.627 195.09 151.706 190.732 149.615C188.984 148.777 187.125 147.785 186.333 146.022C185.327 143.782 186.412 141.206 187.484 138.997C191.246 131.243 195.008 123.489 198.769 115.735" fill="#E8505B"/>
<path d="M208.865 141.619C211.298 141.619 213.27 139.652 213.27 137.226C213.27 134.8 211.298 132.834 208.865 132.834C206.433 132.834 204.461 134.8 204.461 137.226C204.461 139.652 206.433 141.619 208.865 141.619Z" fill="white"/>
<path d="M197.201 149.648C199.634 149.648 201.606 147.681 201.606 145.256C201.606 142.83 199.634 140.863 197.201 140.863C194.769 140.863 192.797 142.83 192.797 145.256C192.797 147.681 194.769 149.648 197.201 149.648Z" fill="white"/>
<path d="M198.367 123.696C198.368 124.262 198.48 124.822 198.698 125.345C198.915 125.868 199.233 126.343 199.634 126.743C200.035 127.143 200.511 127.46 201.035 127.676C201.559 127.892 202.12 128.003 202.686 128.002C203.253 128.003 203.814 127.892 204.337 127.676C204.861 127.46 205.337 127.143 205.738 126.743C206.139 126.343 206.457 125.868 206.674 125.345C206.892 124.822 207.004 124.262 207.004 123.696C207.004 123.129 206.892 122.569 206.674 122.046C206.457 121.523 206.139 121.048 205.738 120.648C205.337 120.248 204.861 119.931 204.337 119.715C203.814 119.499 203.253 119.388 202.686 119.389C202.12 119.388 201.559 119.499 201.035 119.715C200.511 119.931 200.035 120.248 199.634 120.648C199.233 121.048 198.915 121.523 198.698 122.046C198.48 122.569 198.368 123.129 198.367 123.696Z" fill="white"/>
<path d="M189.416 148.94L188.293 153.264L165.913 136.956L159.06 127.218C158.142 125.914 156.755 125.017 155.19 124.712C154.367 124.552 153.521 124.56 152.702 124.736C151.883 124.913 151.109 125.253 150.426 125.738L144.05 130.261C144.05 130.261 144.222 133.692 145.771 133.007C147.32 132.322 150.419 130.604 150.419 130.604L151.28 138.844L155.067 141.591L158.854 144.509L184.124 169.586C185.389 170.841 186.933 171.778 188.63 172.321C190.327 172.864 192.129 172.998 193.887 172.711C195.646 172.425 197.312 171.726 198.748 170.672C200.185 169.618 201.351 168.239 202.152 166.648L205.897 156.018L189.416 148.94Z" fill="#FFBE9D"/>
<path d="M187.729 152.646C188.094 152.74 188.421 152.942 188.669 153.225C189.31 153.863 189.763 154.664 189.978 155.543C190.186 156.405 190.268 157.293 190.22 158.179C190.239 158.545 190.195 158.912 190.091 159.264C190.004 158.91 189.968 158.545 189.983 158.181C189.96 157.321 189.849 156.466 189.653 155.629C189.446 154.804 189.051 154.038 188.498 153.391C188.065 152.903 187.701 152.695 187.729 152.646Z" fill="#EB996E"/>
<path d="M150.38 131.031C150.344 131.008 150.452 130.744 150.715 130.364C151.058 129.843 151.555 129.442 152.136 129.216C152.441 129.111 152.768 129.087 153.085 129.148C153.401 129.209 153.696 129.352 153.94 129.563C154.308 129.915 154.294 130.261 154.26 130.257C154.205 130.276 154.13 129.99 153.788 129.746C153.564 129.596 153.309 129.499 153.041 129.462C152.774 129.425 152.502 129.45 152.246 129.534C151.725 129.747 151.263 130.083 150.901 130.513C150.601 130.841 150.421 131.059 150.38 131.031Z" fill="#EB996E"/>
<path d="M154.387 133.232C154.349 133.266 154.18 133.112 153.872 132.941C153.479 132.718 153.036 132.599 152.585 132.595C152.133 132.603 151.691 132.726 151.3 132.951C150.994 133.125 150.826 133.279 150.787 133.246C150.749 133.212 150.863 133 151.166 132.754C151.57 132.436 152.069 132.261 152.583 132.258C153.098 132.257 153.598 132.428 154.005 132.743C154.309 132.987 154.419 133.206 154.387 133.232Z" fill="#EB996E"/>
<path d="M189.417 148.939C189.268 148.93 189.123 148.895 188.987 148.836C188.587 148.677 188.238 148.412 187.976 148.07C187.563 147.528 187.308 146.882 187.24 146.203C187.179 145.305 187.342 144.406 187.715 143.587C188.083 142.669 188.634 141.744 189.104 140.707C189.604 139.6 190.032 138.461 190.385 137.298C191.152 134.842 191.705 132.058 192.479 129.173C193.137 126.428 194.242 123.809 195.748 121.421C197.013 119.47 198.793 117.906 200.891 116.901C202.299 116.219 203.857 115.903 205.421 115.983C205.99 116.007 206.552 116.114 207.091 116.3C207.082 116.341 206.498 116.153 205.414 116.114C203.881 116.086 202.364 116.43 200.993 117.117C198.955 118.13 197.232 119.678 196.006 121.595C194.535 123.963 193.454 126.552 192.804 129.263C192.034 132.13 191.471 134.921 190.681 137.391C190.317 138.563 189.875 139.71 189.357 140.823C188.868 141.872 188.307 142.785 187.936 143.676C187.564 144.457 187.39 145.318 187.428 146.182C187.478 146.832 187.704 147.456 188.081 147.988C188.32 148.323 188.641 148.593 189.013 148.771C189.269 148.896 189.422 148.919 189.417 148.939Z" fill="#263238"/>
<path d="M164.579 134.881C164.652 133 164.837 131.126 165.133 129.267C165.319 127.395 165.615 125.536 166.022 123.699C165.949 125.58 165.764 127.455 165.468 129.313C165.282 131.185 164.986 133.044 164.579 134.881Z" fill="#263238"/>
<path d="M154.513 144.496L153.324 153.844L139.065 141.693L131.266 143.576C131.266 143.576 139.307 160.457 145.659 167.143C152.011 173.83 155.438 174.783 157.834 174.885C161.129 175.029 162.636 171.017 162.636 171.017L164.072 147.781L154.513 144.496Z" fill="#FFBE9D"/>
<path d="M153.38 153.596C153.869 154.297 154.211 155.09 154.385 155.927C154.665 156.734 154.778 157.589 154.719 158.441C154.449 157.647 154.229 156.838 154.06 156.017C153.783 155.225 153.555 154.416 153.38 153.596Z" fill="#EB996E"/>
<path d="M137.687 117.998H126.952C125.328 117.998 123.878 119.88 124.462 121.418L135.257 142.438C135.462 142.838 135.774 143.173 136.157 143.407C136.541 143.641 136.982 143.765 137.431 143.765L150.518 143.737C150.824 143.702 151.116 143.592 151.37 143.417C151.623 143.242 151.829 143.007 151.97 142.733C152.111 142.459 152.182 142.155 152.177 141.847C152.173 141.539 152.092 141.237 151.942 140.968L141.527 120.389C141.175 119.671 140.628 119.067 139.949 118.644C139.271 118.221 138.487 117.997 137.687 117.998Z" fill="#455A64"/>
<path d="M136.961 119.264H126.227C125.919 119.263 125.617 119.342 125.348 119.492C125.079 119.642 124.854 119.858 124.693 120.12C124.532 120.382 124.441 120.681 124.429 120.989C124.417 121.296 124.484 121.602 124.624 121.875L135.162 142.439C135.367 142.838 135.679 143.174 136.063 143.408C136.446 143.642 136.887 143.765 137.336 143.765H150.273C150.454 143.766 150.631 143.72 150.789 143.632C150.947 143.544 151.079 143.417 151.174 143.264C151.269 143.11 151.323 142.935 151.331 142.755C151.339 142.574 151.3 142.395 151.219 142.234L140.803 121.655C140.45 120.937 139.903 120.332 139.224 119.91C138.545 119.487 137.761 119.263 136.961 119.264Z" fill="#323232"/>
<path d="M136.051 127.871L129.519 130.48L128.119 135.743L131.266 143.577L142.81 145.256L139.428 141.802L139.863 138.794C139.863 138.794 143.084 137.784 143.166 137.291C143.248 136.799 142.766 135.146 142.272 135.067C141.778 134.989 138.401 136.245 138.401 136.245C138.401 136.245 142.399 133.081 142.286 132.572C142.174 132.063 141.745 130.765 140.947 130.62C140.149 130.476 133.698 133.516 133.698 133.516L132.651 135.903L131.737 132.083C131.737 132.083 137.468 130.477 136.051 127.871Z" fill="#FFBE9D"/>
<path d="M136.872 140.209C136.833 140.221 136.711 139.983 136.65 139.562C136.582 139.005 136.648 138.439 136.845 137.913C137.038 137.386 137.355 136.913 137.769 136.534C138.093 136.252 138.339 136.15 138.361 136.184C137.87 136.736 137.466 137.358 137.161 138.03C136.955 138.738 136.857 139.472 136.872 140.209Z" fill="#EB996E"/>
<path d="M133.769 139.069C133.89 138.504 133.976 137.933 134.028 137.357C134.055 136.714 134.165 136.077 134.357 135.462C134.483 135.086 134.688 134.741 134.958 134.451C135.262 134.154 135.625 133.925 136.025 133.78C137.588 133.213 138.994 132.755 140.024 132.42C140.569 132.211 141.133 132.056 141.708 131.955C141.196 132.237 140.657 132.468 140.1 132.645C139.097 133.033 137.681 133.534 136.149 134.09C135.793 134.218 135.467 134.418 135.193 134.678C134.951 134.934 134.765 135.237 134.645 135.568C134.45 136.156 134.322 136.764 134.263 137.381C134.245 137.976 134.075 138.557 133.769 139.069Z" fill="#EB996E"/>
<path d="M132.27 137.889C132.178 137.875 132.197 137.298 132.312 136.602C132.426 135.906 132.595 135.354 132.687 135.371C132.779 135.389 132.76 135.963 132.645 136.659C132.529 137.355 132.362 137.904 132.27 137.889Z" fill="#EB996E"/>
<path d="M132.094 123.229C132.094 123.591 132.238 123.939 132.495 124.195C132.751 124.452 133.099 124.596 133.462 124.596C133.824 124.596 134.172 124.452 134.428 124.195C134.685 123.939 134.829 123.591 134.829 123.229C134.829 122.866 134.685 122.518 134.428 122.262C134.172 122.006 133.824 121.861 133.462 121.861C133.099 121.861 132.751 122.006 132.495 122.262C132.238 122.518 132.094 122.866 132.094 123.229Z" fill="#FAFAFA"/>
<path d="M158.854 144.508C159 144.597 159.134 144.704 159.254 144.824L160.324 145.782L164.093 149.265L164.143 149.312L164.138 149.383C163.967 151.563 163.768 154.127 163.555 156.869C163.259 160.883 163.028 164.522 162.9 167.158C162.842 168.433 162.795 169.488 162.759 170.278C162.763 170.661 162.737 171.044 162.682 171.423C162.635 171.043 162.617 170.659 162.628 170.276C162.618 169.538 162.624 168.468 162.661 167.148C162.729 164.508 162.92 160.863 163.218 156.844C163.421 154.091 163.641 151.52 163.85 149.357L163.895 149.475L160.209 145.904L159.194 144.889C159.067 144.775 158.953 144.647 158.854 144.508Z" fill="#EB996E"/>
<path d="M119.797 83.8793L130.475 114.826L145.804 109.54L135.126 78.5927L119.797 83.8793Z" fill="#92E3A9"/>
<path opacity="0.5" d="M135.126 78.5918L119.797 83.8787L130.475 114.827L145.804 109.54L135.126 78.5918ZM134.341 80.2025L144.193 108.755L131.26 113.216L121.409 84.6635L134.341 80.2025Z" fill="black" fill-opacity="0.7"/>
<path opacity="0.5" d="M132.851 82.6218L134.169 86.4417C134.24 86.6472 134.39 86.8162 134.586 86.9113C134.781 87.0065 135.006 87.0202 135.212 86.9494C135.418 86.8784 135.586 86.7287 135.682 86.5332C135.777 86.3378 135.79 86.1124 135.719 85.907L134.401 82.0871C134.33 81.8816 134.18 81.7127 133.984 81.6176C133.789 81.5225 133.563 81.5092 133.358 81.5802C133.256 81.6152 133.162 81.6699 133.082 81.7412C133.001 81.8126 132.935 81.8991 132.888 81.9959C132.841 82.0926 132.814 82.1976 132.807 82.3051C132.801 82.4125 132.816 82.5201 132.851 82.6218Z" fill="black" fill-opacity="0.7"/>
<path opacity="0.5" d="M129.885 107.508L131.203 111.328C131.238 111.43 131.293 111.524 131.364 111.604C131.436 111.685 131.522 111.751 131.619 111.798C131.716 111.845 131.821 111.872 131.928 111.879C132.036 111.885 132.144 111.87 132.245 111.835C132.347 111.8 132.441 111.746 132.521 111.674C132.602 111.603 132.668 111.517 132.715 111.42C132.762 111.323 132.79 111.218 132.796 111.111C132.803 111.003 132.788 110.896 132.753 110.794L131.434 106.974C131.363 106.769 131.214 106.6 131.018 106.505C130.823 106.409 130.597 106.396 130.392 106.467C130.186 106.538 130.018 106.687 129.922 106.883C129.827 107.078 129.814 107.303 129.885 107.508Z" fill="black" fill-opacity="0.7"/>
<path opacity="0.5" d="M131.144 91.9085C130.194 92.236 129.362 92.8377 128.754 93.6376C128.147 94.4375 127.79 95.3996 127.729 96.4023C127.668 97.4049 127.906 98.4031 128.413 99.2706C128.92 100.138 129.672 100.836 130.576 101.276C131.479 101.715 132.492 101.877 133.488 101.741C134.483 101.605 135.416 101.177 136.168 100.511C136.92 99.8448 137.458 98.9707 137.713 97.9991C137.968 97.0275 137.929 96.002 137.602 95.0525C137.162 93.7794 136.235 92.733 135.024 92.1434C133.813 91.5538 132.417 91.4693 131.144 91.9085ZM131.105 95.9304C131.419 95.8294 131.753 95.8101 132.077 95.8745C132.4 95.9388 132.702 96.0848 132.954 96.2983C133.581 96.6971 133.893 96.7552 134.264 96.6283C134.636 96.5014 134.725 96.3046 134.636 96.0457C134.547 95.7867 134.354 95.6857 133.982 95.8139L133.767 95.8884L133.501 95.1159L133.663 95.0596C133.932 94.919 134.245 94.8861 134.537 94.9676C134.829 95.0492 135.08 95.2391 135.237 95.4986L135.626 95.3645L135.856 96.0333L135.468 96.1628C135.54 96.7785 135.193 97.2221 134.496 97.4629C134.182 97.5645 133.848 97.584 133.524 97.5195C133.2 97.455 132.899 97.3088 132.648 97.0946C132.028 96.6938 131.709 96.6375 131.337 96.7657C130.965 96.8939 130.888 97.1029 130.978 97.3625C131.067 97.6222 131.257 97.74 131.629 97.6118L132.038 97.4713L132.304 98.2438L131.947 98.3667C131.676 98.5081 131.362 98.541 131.068 98.4586C130.773 98.3762 130.522 98.1847 130.364 97.9232L129.985 98.0528L129.754 97.384L130.133 97.2544C130.098 96.9518 130.178 96.6472 130.359 96.4016C130.539 96.1561 130.805 95.9877 131.105 95.9304Z" fill="black" fill-opacity="0.7"/>
<path d="M119.797 83.8793L130.475 114.826L145.804 109.54L135.126 78.5927L119.797 83.8793Z" stroke="#263238" stroke-width="0.5" stroke-linecap="round" stroke-linejoin="round"/>
<path d="M149.777 65.1146L158.188 33.4766L142.517 29.3126L134.106 60.9506L149.777 65.1146Z" fill="#92E3A9"/>
<path opacity="0.5" d="M134.105 60.9514L149.778 65.1146L158.189 33.4764L142.516 29.3125L134.105 60.9514ZM135.656 60.0528L143.415 30.8638L156.638 34.3769L148.877 63.5652L135.656 60.0528Z" fill="black" fill-opacity="0.7"/>
<path opacity="0.5" d="M138.244 58.8771L139.28 54.969C139.335 54.7588 139.305 54.5352 139.196 54.3473C139.087 54.1594 138.907 54.0226 138.697 53.9668C138.593 53.9393 138.484 53.9324 138.378 53.9468C138.271 53.9611 138.168 53.9963 138.075 54.0505C137.982 54.1046 137.9 54.1765 137.835 54.2621C137.77 54.3477 137.722 54.4454 137.694 54.5495L136.658 58.4568C136.631 58.5609 136.624 58.6694 136.638 58.7761C136.653 58.8828 136.688 58.9856 136.742 59.0786C136.796 59.1717 136.868 59.2533 136.954 59.3186C137.039 59.3839 137.137 59.4316 137.241 59.4591C137.451 59.5148 137.675 59.4848 137.863 59.3756C138.051 59.2665 138.188 59.0872 138.244 58.8771Z" fill="black" fill-opacity="0.7"/>
<path opacity="0.5" d="M154.595 39.879L155.631 35.9711C155.658 35.867 155.665 35.7585 155.651 35.6518C155.636 35.5451 155.601 35.4423 155.547 35.3493C155.493 35.2562 155.421 35.1746 155.335 35.1093C155.25 35.044 155.152 34.9963 155.048 34.9688C154.944 34.9412 154.835 34.9344 154.729 34.9487C154.622 34.9631 154.519 34.9983 154.426 35.0524C154.333 35.1065 154.252 35.1784 154.186 35.2641C154.121 35.3497 154.073 35.4473 154.046 35.5514L153.01 39.4583C152.982 39.5624 152.975 39.6708 152.99 39.7776C153.004 39.8843 153.039 39.9873 153.093 40.0804C153.148 40.1736 153.22 40.2552 153.305 40.3205C153.391 40.3858 153.489 40.4335 153.593 40.4611C153.803 40.5164 154.026 40.4862 154.214 40.3771C154.402 40.268 154.539 40.0889 154.595 39.879Z" fill="black" fill-opacity="0.7"/>
<path opacity="0.5" d="M144.845 52.1215C145.816 52.3795 146.841 52.344 147.792 52.0192C148.743 51.6944 149.576 51.095 150.186 50.2969C150.796 49.4988 151.156 48.5376 151.219 47.5351C151.283 46.5327 151.048 45.5339 150.544 44.6651C150.04 43.7962 149.289 43.0964 148.387 42.654C147.485 42.2116 146.472 42.0464 145.476 42.1796C144.48 42.3128 143.546 42.7382 142.792 43.4021C142.038 44.066 141.498 44.9384 141.24 45.9092C141.068 46.5538 141.026 47.2258 141.114 47.8868C141.202 48.5479 141.42 49.1851 141.755 49.762C142.09 50.3389 142.535 50.8442 143.065 51.2491C143.595 51.654 144.2 51.9503 144.845 52.1215ZM147.122 48.806C146.514 48.6441 146.159 48.2983 145.793 47.4689C145.495 46.7878 145.269 46.5626 144.887 46.4648C144.504 46.3671 144.322 46.4778 144.251 46.7426C144.181 47.0074 144.284 47.1957 144.665 47.2999L144.885 47.3582L144.674 48.1481L144.508 48.1027C143.786 47.9085 143.411 47.487 143.447 46.8616L143.052 46.7574L143.233 46.0738L143.628 46.1786C143.77 45.9135 144.006 45.7113 144.29 45.6121C144.574 45.5128 144.885 45.5237 145.161 45.6426C145.769 45.8044 146.133 46.1534 146.49 46.9795C146.781 47.6587 147.014 47.8859 147.396 47.9844C147.779 48.0828 147.957 47.9546 148.028 47.6878C148.1 47.4211 148.006 47.219 147.627 47.118L147.209 47.0067L147.419 46.2175L147.784 46.3139C148.506 46.5081 148.888 46.9336 148.85 47.5648L149.239 47.6684L149.057 48.3514L148.669 48.2491C148.529 48.5209 148.291 48.7297 148.004 48.833C147.716 48.9364 147.4 48.9267 147.119 48.806H147.122Z" fill="black" fill-opacity="0.7"/>
<path d="M149.777 65.1146L158.188 33.4766L142.517 29.3126L134.106 60.9506L149.777 65.1146Z" stroke="#263238" stroke-width="0.4" stroke-linecap="round" stroke-linejoin="round"/>
<path d="M120.831 46.0067C120.831 46.6952 121.035 47.3683 121.418 47.9408C121.801 48.5133 122.344 48.9596 122.981 49.2231C123.617 49.4866 124.317 49.5555 124.993 49.4211C125.668 49.2868 126.289 48.9553 126.776 48.4685C127.263 47.9816 127.594 47.3612 127.729 46.6859C127.863 46.0106 127.794 45.3106 127.531 44.6745C127.267 44.0384 126.821 43.4947 126.248 43.1121C125.675 42.7296 125.002 42.5254 124.313 42.5254C123.856 42.5253 123.403 42.6152 122.981 42.7902C122.558 42.9651 122.174 43.2215 121.851 43.5448C121.527 43.8681 121.271 44.2519 121.096 44.6743C120.921 45.0968 120.831 45.5495 120.831 46.0067Z" fill="#BFBFBF" stroke="#263238" stroke-width="0.4" stroke-linecap="round" stroke-linejoin="round"/>
<path opacity="0.5" d="M126.482 47.9494C126.867 47.5205 127.116 46.9871 127.198 46.4166C127.279 45.8461 127.19 45.2641 126.941 44.7444C126.692 44.2246 126.294 43.7905 125.798 43.4967C125.302 43.203 124.73 43.0629 124.155 43.0941C123.579 43.1254 123.026 43.3266 122.564 43.6723C122.103 44.0181 121.755 44.4927 121.564 45.0363C121.372 45.58 121.347 46.1681 121.49 46.7264C121.633 47.2847 121.938 47.788 122.367 48.1727C122.943 48.6884 123.699 48.9545 124.471 48.9127C125.242 48.8708 125.966 48.5243 126.482 47.9494ZM125.381 45.9221C125.252 46.0603 125.089 46.1632 124.909 46.2211C124.729 46.2789 124.537 46.29 124.352 46.253C123.926 46.2284 123.753 46.2854 123.603 46.4531C123.453 46.6208 123.463 46.7451 123.58 46.8506C123.696 46.9562 123.822 46.9522 123.973 46.7858L124.06 46.6894L124.408 47.0014L124.343 47.0759C124.247 47.221 124.1 47.3243 123.931 47.3648C123.762 47.4054 123.584 47.3801 123.433 47.2942L123.276 47.4682L122.974 47.1976L123.13 47.0234C123.032 46.8819 122.99 46.7086 123.013 46.5377C123.036 46.3668 123.123 46.2109 123.256 46.1009C123.385 45.9624 123.547 45.8591 123.727 45.8012C123.907 45.7433 124.099 45.7326 124.285 45.7701C124.708 45.7986 124.883 45.737 125.034 45.57C125.184 45.4029 125.163 45.2754 125.047 45.1705C124.93 45.0656 124.801 45.0598 124.651 45.2268L124.485 45.4119L124.135 45.0992L124.28 44.938C124.376 44.7917 124.525 44.6877 124.695 44.647C124.865 44.6063 125.045 44.6322 125.197 44.7192L125.351 44.5476L125.653 44.8182L125.5 44.9899C125.601 45.1319 125.645 45.3068 125.622 45.4797C125.6 45.6526 125.513 45.8106 125.379 45.9221H125.381Z" fill="black" fill-opacity="0.7"/>
<path d="M137.322 18.4976C137.322 19.1862 137.526 19.8594 137.908 20.4321C138.291 21.0047 138.835 21.4513 139.471 21.715C140.107 21.9787 140.808 22.0477 141.483 21.9135C142.159 21.7793 142.779 21.448 143.266 20.9611C143.753 20.4743 144.085 19.8539 144.22 19.1786C144.354 18.5032 144.285 17.8032 144.022 17.167C143.758 16.5308 143.312 15.9869 142.739 15.6043C142.167 15.2217 141.493 15.0176 140.804 15.0176C139.881 15.0176 138.996 15.3842 138.343 16.0368C137.69 16.6894 137.323 17.5745 137.322 18.4976Z" fill="#BFBFBF" stroke="#263238" stroke-width="0.4" stroke-linecap="round" stroke-linejoin="round"/>
<path opacity="0.5" d="M142.973 20.4432C143.358 20.0143 143.607 19.4808 143.689 18.9103C143.771 18.3398 143.681 17.7579 143.432 17.2382C143.183 16.7185 142.785 16.2844 142.289 15.9907C141.793 15.6971 141.221 15.557 140.645 15.5883C140.07 15.6196 139.517 15.821 139.055 16.1668C138.594 16.5126 138.246 16.9873 138.055 17.531C137.863 18.0746 137.838 18.6628 137.981 19.221C138.124 19.7793 138.43 20.2826 138.859 20.6672C139.434 21.1828 140.191 21.4488 140.962 21.4068C141.734 21.3648 142.457 21.0182 142.973 20.4432ZM141.872 18.4166C141.743 18.5548 141.581 18.6578 141.401 18.7157C141.221 18.7736 141.029 18.7844 140.844 18.7475C140.418 18.7229 140.245 18.7805 140.095 18.9476C139.945 19.1146 139.955 19.2396 140.072 19.3445C140.189 19.4494 140.313 19.4461 140.464 19.2797L140.55 19.1826L140.9 19.4959L140.835 19.5691C140.74 19.7145 140.593 19.8182 140.424 19.859C140.254 19.8998 140.076 19.8746 139.925 19.7887L139.768 19.9629L139.466 19.6922L139.623 19.518C139.525 19.3766 139.483 19.2031 139.506 19.0323C139.529 18.8615 139.615 18.7056 139.748 18.5954C139.877 18.4567 140.039 18.3535 140.219 18.2955C140.4 18.2376 140.592 18.227 140.777 18.2646C141.2 18.293 141.376 18.2315 141.526 18.0644C141.676 17.8974 141.655 17.7699 141.539 17.6644C141.423 17.5588 141.294 17.553 141.144 17.7206L140.979 17.9059L140.629 17.5925L140.774 17.4319C140.87 17.2856 141.019 17.1816 141.189 17.1408C141.359 17.1001 141.539 17.1257 141.691 17.2125L141.844 17.0414L142.146 17.3122L141.993 17.4824C142.094 17.6248 142.138 17.8003 142.115 17.9736C142.092 18.1469 142.005 18.3051 141.87 18.4166H141.872Z" fill="black" fill-opacity="0.7"/>
<path d="M153.487 85.7599C154.156 85.596 154.761 85.2376 155.226 84.7297C155.691 84.2219 155.995 83.5874 156.1 82.9069C156.204 82.2263 156.104 81.53 155.813 80.9062C155.521 80.2823 155.052 79.7589 154.462 79.4022C153.873 79.0454 153.192 78.8713 152.504 78.9019C151.816 78.9325 151.152 79.1665 150.597 79.5741C150.042 79.9818 149.62 80.5447 149.386 81.192C149.151 81.8392 149.113 82.5416 149.277 83.2102C149.498 84.1063 150.065 84.8783 150.854 85.3565C151.644 85.8346 152.591 85.9796 153.487 85.7599Z" fill="#BFBFBF" stroke="#263238" stroke-width="0.4" stroke-linecap="round" stroke-linejoin="round"/>
<path opacity="0.5" d="M154.027 79.81C153.518 79.5386 152.941 79.4241 152.367 79.481C151.793 79.5379 151.249 79.7637 150.804 80.1298C150.359 80.4958 150.032 80.9855 149.865 81.5372C149.698 82.0889 149.699 82.6776 149.867 83.229C150.035 83.7804 150.362 84.2696 150.808 84.6347C151.254 84.9998 151.799 85.2245 152.373 85.2803C152.946 85.336 153.524 85.2203 154.032 84.9479C154.54 84.6754 154.956 84.2586 155.227 83.7499C155.59 83.0682 155.667 82.2704 155.442 81.5317C155.217 80.7929 154.708 80.1736 154.027 79.81ZM152.322 81.364C152.486 81.4566 152.625 81.5896 152.724 81.7506C152.823 81.9116 152.88 82.0951 152.888 82.2839C152.966 82.7035 153.062 82.8563 153.262 82.9625C153.461 83.0687 153.579 83.0272 153.651 82.8906C153.722 82.754 153.691 82.6316 153.493 82.5254L153.377 82.4606L153.599 82.0476L153.686 82.0949C153.85 82.1529 153.986 82.2713 154.065 82.4257C154.145 82.5801 154.163 82.759 154.116 82.9262L154.323 83.037L154.128 83.3944L153.921 83.2835C153.808 83.4131 153.649 83.4953 153.478 83.5137C153.306 83.532 153.134 83.4852 152.996 83.3827C152.831 83.2905 152.692 83.1576 152.593 82.9965C152.493 82.8354 152.437 82.6517 152.429 82.4627C152.355 82.0444 152.255 81.889 152.056 81.7828C151.857 81.6767 151.738 81.7258 151.667 81.865C151.597 82.0042 151.618 82.1305 151.817 82.2367L152.036 82.3525L151.815 82.767L151.624 82.6653C151.459 82.6067 151.323 82.4874 151.242 82.3318C151.162 82.1762 151.144 81.9958 151.192 81.8274L150.989 81.7187L151.181 81.3613L151.383 81.4694C151.497 81.3362 151.657 81.2512 151.832 81.2317C152.006 81.2121 152.181 81.2594 152.322 81.364Z" fill="black" fill-opacity="0.7"/>
<path d="M150.397 13.2461V26.3919" stroke="#263238" stroke-width="0.4" stroke-linecap="round" stroke-linejoin="round"/>
<path d="M150.397 5.35938V10.618" stroke="#263238" stroke-width="0.4" stroke-linecap="round" stroke-linejoin="round"/>
<path d="M150.397 0.445312V3.25784" stroke="#263238" stroke-width="0.4" stroke-linecap="round" stroke-linejoin="round"/>
<path d="M152.881 24.8555L150.398 27.929L147.915 24.8555" stroke="#263238" stroke-width="0.4" stroke-linecap="round" stroke-linejoin="round"/>
<path d="M143.824 79.0703V92.2161" stroke="#263238" stroke-width="0.4" stroke-linecap="round" stroke-linejoin="round"/>
<path d="M143.824 71.1836V76.4422" stroke="#263238" stroke-width="0.4" stroke-linecap="round" stroke-linejoin="round"/>
<path d="M143.824 66.2695V69.0821" stroke="#263238" stroke-width="0.4" stroke-linecap="round" stroke-linejoin="round"/>
<path d="M146.307 90.6797L143.824 93.7532L141.341 90.6797" stroke="#263238" stroke-width="0.4" stroke-linecap="round" stroke-linejoin="round"/>
<path d="M130.835 39.5098V52.6556" stroke="#263238" stroke-width="0.4" stroke-linecap="round" stroke-linejoin="round"/>
<path d="M130.835 31.623V36.881" stroke="#263238" stroke-width="0.4" stroke-linecap="round" stroke-linejoin="round"/>
<path d="M130.835 26.709V29.5215" stroke="#263238" stroke-width="0.4" stroke-linecap="round" stroke-linejoin="round"/>
<path d="M133.318 51.1191L130.835 54.192L128.353 51.1191" stroke="#263238" stroke-width="0.4" stroke-linecap="round" stroke-linejoin="round"/>
</g>
<path d="M29.5838 267.366C29.5838 268.796 30.2988 269.316 31.5598 269.316H32.6258V268.315H31.7548C31.0268 268.315 30.7668 268.068 30.7668 267.366V263.167H32.6258V262.192H30.7668V260.398H29.5838V262.192H28.6608V263.167H29.5838V267.366ZM34.0591 269.316H35.2421V265.377C35.2421 263.843 36.0741 263.089 37.2831 263.089C38.4791 263.089 39.2721 263.83 39.2721 265.286V269.316H40.4421V265.117C40.4421 263.076 39.1811 262.062 37.5951 262.062C36.5941 262.062 35.7101 262.465 35.2421 263.219V259.696H34.0591V269.316ZM45.4035 263.076C46.6255 263.076 47.6655 263.843 47.6525 265.234H43.1545C43.2845 263.843 44.2465 263.076 45.4035 263.076ZM48.7315 267.119H47.4575C47.1975 267.886 46.5215 268.432 45.4555 268.432C44.2465 268.432 43.2325 267.639 43.1415 266.196H48.8355C48.8615 265.949 48.8745 265.741 48.8745 265.481C48.8745 263.531 47.5225 262.075 45.4555 262.075C43.3755 262.075 41.9325 263.492 41.9325 265.741C41.9325 268.003 43.4275 269.433 45.4555 269.433C47.2235 269.433 48.3675 268.419 48.7315 267.119ZM60.6619 265.741C60.6619 263.492 59.0889 262.075 57.0609 262.075C55.0459 262.075 53.4599 263.492 53.4599 265.741C53.4599 268.003 54.9939 269.433 57.0089 269.433C59.0369 269.433 60.6619 268.003 60.6619 265.741ZM54.6689 265.741C54.6689 263.947 55.7999 263.102 57.0479 263.102C58.2699 263.102 59.4529 263.947 59.4529 265.741C59.4529 267.548 58.2439 268.393 57.0089 268.393C55.7739 268.393 54.6689 267.548 54.6689 265.741ZM62.4773 267.366C62.4773 268.796 63.1923 269.316 64.4533 269.316H65.5193V268.315H64.6483C63.9203 268.315 63.6603 268.068 63.6603 267.366V263.167H65.5193V262.192H63.6603V260.398H62.4773V262.192H61.5543V263.167H62.4773V267.366ZM66.9527 269.316H68.1357V265.377C68.1357 263.843 68.9677 263.089 70.1767 263.089C71.3727 263.089 72.1657 263.83 72.1657 265.286V269.316H73.3357V265.117C73.3357 263.076 72.0747 262.062 70.4887 262.062C69.4877 262.062 68.6037 262.465 68.1357 263.219V259.696H66.9527V269.316ZM78.2971 263.076C79.5191 263.076 80.5591 263.843 80.5461 265.234H76.0481C76.1781 263.843 77.1401 263.076 78.2971 263.076ZM81.6251 267.119H80.3511C80.0911 267.886 79.4151 268.432 78.3491 268.432C77.1401 268.432 76.1261 267.639 76.0351 266.196H81.7291C81.7551 265.949 81.7681 265.741 81.7681 265.481C81.7681 263.531 80.4161 262.075 78.3491 262.075C76.2691 262.075 74.8261 263.492 74.8261 265.741C74.8261 268.003 76.3211 269.433 78.3491 269.433C80.1171 269.433 81.2611 268.419 81.6251 267.119ZM84.5126 265.442C84.5126 263.791 85.3706 263.284 86.5016 263.284H86.8136V262.062C85.6826 262.062 84.9156 262.556 84.5126 263.349V262.192H83.3296V269.316H84.5126V265.442ZM91.866 269.316H93.049V263.167H94.544V262.192H93.049V261.685C93.049 260.762 93.4 260.372 94.466 260.372V259.384C92.646 259.384 91.866 260.099 91.866 261.685V262.192H90.943V263.167H91.866V269.316ZM97.1064 265.442C97.1064 263.791 97.9644 263.284 99.0954 263.284H99.4074V262.062C98.2764 262.062 97.5094 262.556 97.1064 263.349V262.192H95.9234V269.316H97.1064V265.442ZM100.773 269.316H101.956V262.192H100.773V269.316ZM101.384 261.035C101.813 261.035 102.164 260.684 102.164 260.229C102.164 259.774 101.813 259.423 101.384 259.423C100.929 259.423 100.578 259.774 100.578 260.229C100.578 260.684 100.929 261.035 101.384 261.035ZM107.001 263.076C108.223 263.076 109.263 263.843 109.25 265.234H104.752C104.882 263.843 105.844 263.076 107.001 263.076ZM110.329 267.119H109.055C108.795 267.886 108.119 268.432 107.053 268.432C105.844 268.432 104.83 267.639 104.739 266.196H110.433C110.459 265.949 110.472 265.741 110.472 265.481C110.472 263.531 109.12 262.075 107.053 262.075C104.973 262.075 103.53 263.492 103.53 265.741C103.53 268.003 105.025 269.433 107.053 269.433C108.821 269.433 109.965 268.419 110.329 267.119ZM117.247 269.316H118.417V265.117C118.417 263.076 117.156 262.062 115.505 262.062C114.543 262.062 113.685 262.465 113.217 263.206V262.192H112.034V269.316H113.217V265.377C113.217 263.843 114.049 263.089 115.258 263.089C116.454 263.089 117.247 263.83 117.247 265.286V269.316ZM119.907 265.728C119.907 267.938 121.376 269.433 123.287 269.433C124.587 269.433 125.51 268.77 125.939 267.977V269.316H127.135V259.696H125.939V263.466C125.445 262.647 124.418 262.075 123.3 262.075C121.376 262.075 119.907 263.505 119.907 265.728ZM125.939 265.741C125.939 267.418 124.821 268.393 123.521 268.393C122.221 268.393 121.116 267.405 121.116 265.728C121.116 264.051 122.221 263.102 123.521 263.102C124.821 263.102 125.939 264.09 125.939 265.741ZM133.991 269.316H135.213L136.929 263.661L138.645 269.316H139.867L142.09 262.192H140.92L139.308 268.185L137.579 262.192H136.37L134.602 268.172L132.964 262.192H131.755L133.991 269.316ZM143.264 269.316H144.447V262.192H143.264V269.316ZM143.875 261.035C144.304 261.035 144.655 260.684 144.655 260.229C144.655 259.774 144.304 259.423 143.875 259.423C143.42 259.423 143.069 259.774 143.069 260.229C143.069 260.684 143.42 261.035 143.875 261.035ZM146.463 269.316H147.646V259.696H146.463V269.316ZM149.663 269.316H150.846V259.696H149.663V269.316ZM157.511 265.442C157.511 263.791 158.369 263.284 159.5 263.284H159.812V262.062C158.681 262.062 157.914 262.556 157.511 263.349V262.192H156.328V269.316H157.511V265.442ZM164.206 263.076C165.428 263.076 166.468 263.843 166.455 265.234H161.957C162.087 263.843 163.049 263.076 164.206 263.076ZM167.534 267.119H166.26C166 267.886 165.324 268.432 164.258 268.432C163.049 268.432 162.035 267.639 161.944 266.196H167.638C167.664 265.949 167.677 265.741 167.677 265.481C167.677 263.531 166.325 262.075 164.258 262.075C162.178 262.075 160.735 263.492 160.735 265.741C160.735 268.003 162.23 269.433 164.258 269.433C166.026 269.433 167.17 268.419 167.534 267.119ZM168.797 265.741C168.797 268.003 170.24 269.433 172.268 269.433C174.036 269.433 175.193 268.445 175.557 267.028H174.283C174.023 267.925 173.321 268.432 172.268 268.432C170.968 268.432 170.006 267.509 170.006 265.741C170.006 263.999 170.968 263.076 172.268 263.076C173.321 263.076 174.036 263.622 174.283 264.48H175.557C175.193 262.985 174.036 262.075 172.268 262.075C170.24 262.075 168.797 263.505 168.797 265.741ZM180.164 263.076C181.386 263.076 182.426 263.843 182.413 265.234H177.915C178.045 263.843 179.007 263.076 180.164 263.076ZM183.492 267.119H182.218C181.958 267.886 181.282 268.432 180.216 268.432C179.007 268.432 177.993 267.639 177.902 266.196H183.596C183.622 265.949 183.635 265.741 183.635 265.481C183.635 263.531 182.283 262.075 180.216 262.075C178.136 262.075 176.693 263.492 176.693 265.741C176.693 268.003 178.188 269.433 180.216 269.433C181.984 269.433 183.128 268.419 183.492 267.119ZM185.197 269.316H186.38V262.192H185.197V269.316ZM185.808 261.035C186.237 261.035 186.588 260.684 186.588 260.229C186.588 259.774 186.237 259.423 185.808 259.423C185.353 259.423 185.002 259.774 185.002 260.229C185.002 260.684 185.353 261.035 185.808 261.035ZM187.551 262.192L190.346 269.316H191.724L194.519 262.192H193.258L191.048 268.224L188.825 262.192H187.551ZM198.712 263.076C199.934 263.076 200.974 263.843 200.961 265.234H196.463C196.593 263.843 197.555 263.076 198.712 263.076ZM202.04 267.119H200.766C200.506 267.886 199.83 268.432 198.764 268.432C197.555 268.432 196.541 267.639 196.45 266.196H202.144C202.17 265.949 202.183 265.741 202.183 265.481C202.183 263.531 200.831 262.075 198.764 262.075C196.684 262.075 195.241 263.492 195.241 265.741C195.241 268.003 196.736 269.433 198.764 269.433C200.532 269.433 201.676 268.419 202.04 267.119ZM41.4349 289.316H42.6049V285.117C42.6049 283.076 41.3439 282.062 39.7189 282.062C38.6269 282.062 37.6129 282.621 37.1969 283.648C36.7289 282.582 35.7539 282.062 34.5839 282.062C33.6479 282.062 32.8029 282.465 32.3349 283.219V282.192H31.1519V289.316H32.3349V285.39C32.3349 283.856 33.1539 283.089 34.3499 283.089C35.5199 283.089 36.2999 283.83 36.2999 285.286V289.316H37.4699V285.39C37.4699 283.856 38.2889 283.089 39.4849 283.089C40.6549 283.089 41.4349 283.83 41.4349 285.286V289.316ZM51.3054 285.741C51.3054 283.492 49.7324 282.075 47.7044 282.075C45.6894 282.075 44.1034 283.492 44.1034 285.741C44.1034 288.003 45.6374 289.433 47.6524 289.433C49.6804 289.433 51.3054 288.003 51.3054 285.741ZM45.3124 285.741C45.3124 283.947 46.4434 283.102 47.6914 283.102C48.9134 283.102 50.0964 283.947 50.0964 285.741C50.0964 287.548 48.8874 288.393 47.6524 288.393C46.4174 288.393 45.3124 287.548 45.3124 285.741ZM58.0739 289.316H59.2439V285.117C59.2439 283.076 57.9829 282.062 56.3319 282.062C55.3699 282.062 54.5119 282.465 54.0439 283.206V282.192H52.8609V289.316H54.0439V285.377C54.0439 283.843 54.8759 283.089 56.0849 283.089C57.2809 283.089 58.0739 283.83 58.0739 285.286V289.316ZM64.2053 283.076C65.4273 283.076 66.4673 283.843 66.4543 285.234H61.9563C62.0863 283.843 63.0483 283.076 64.2053 283.076ZM67.5333 287.119H66.2593C65.9993 287.886 65.3233 288.432 64.2573 288.432C63.0483 288.432 62.0343 287.639 61.9433 286.196H67.6373C67.6633 285.949 67.6763 285.741 67.6763 285.481C67.6763 283.531 66.3243 282.075 64.2573 282.075C62.1773 282.075 60.7343 283.492 60.7343 285.741C60.7343 288.003 62.2293 289.433 64.2573 289.433C66.0253 289.433 67.1693 288.419 67.5333 287.119ZM71.9418 287.964L69.7058 282.192H68.3928L71.2658 289.238L69.8618 292.67H71.0838L75.3738 282.192H74.1518L71.9418 287.964ZM81.2118 285.442C81.2118 283.791 82.0698 283.284 83.2008 283.284H83.5128V282.062C82.3818 282.062 81.6148 282.556 81.2118 283.349V282.192H80.0288V289.316H81.2118V285.442ZM87.9074 283.076C89.1294 283.076 90.1694 283.843 90.1564 285.234H85.6584C85.7884 283.843 86.7504 283.076 87.9074 283.076ZM91.2354 287.119H89.9614C89.7014 287.886 89.0254 288.432 87.9594 288.432C86.7504 288.432 85.7364 287.639 85.6454 286.196H91.3394C91.3654 285.949 91.3784 285.741 91.3784 285.481C91.3784 283.531 90.0264 282.075 87.9594 282.075C85.8794 282.075 84.4364 283.492 84.4364 285.741C84.4364 288.003 85.9314 289.433 87.9594 289.433C89.7274 289.433 90.8714 288.419 91.2354 287.119ZM92.498 285.728C92.498 287.938 93.967 289.433 95.852 289.433C97.178 289.433 98.127 288.731 98.53 288.003V292.696H99.726V282.192H98.53V283.492C98.127 282.751 97.191 282.075 95.891 282.075C93.967 282.075 92.498 283.505 92.498 285.728ZM98.53 285.741C98.53 287.418 97.412 288.393 96.112 288.393C94.812 288.393 93.707 287.405 93.707 285.728C93.707 284.051 94.812 283.102 96.112 283.102C97.412 283.102 98.53 284.09 98.53 285.741ZM108.043 282.192H106.86V286.105C106.86 287.639 106.041 288.393 104.819 288.393C103.623 288.393 102.83 287.652 102.83 286.209V282.192H101.66V286.365C101.66 288.406 102.947 289.42 104.585 289.42C105.534 289.42 106.405 289.004 106.86 288.263V289.316H108.043V282.192ZM113.07 283.076C114.292 283.076 115.332 283.843 115.319 285.234H110.821C110.951 283.843 111.913 283.076 113.07 283.076ZM116.398 287.119H115.124C114.864 287.886 114.188 288.432 113.122 288.432C111.913 288.432 110.899 287.639 110.808 286.196H116.502C116.528 285.949 116.541 285.741 116.541 285.481C116.541 283.531 115.189 282.075 113.122 282.075C111.042 282.075 109.599 283.492 109.599 285.741C109.599 288.003 111.094 289.433 113.122 289.433C114.89 289.433 116.034 288.419 116.398 287.119ZM123.224 287.379C123.172 284.831 119.038 285.754 119.038 284.064C119.038 283.492 119.558 283.076 120.429 283.076C121.378 283.076 121.924 283.596 121.976 284.311H123.159C123.081 282.92 122.041 282.075 120.468 282.075C118.882 282.075 117.855 282.972 117.855 284.064C117.855 286.716 122.067 285.793 122.067 287.379C122.067 287.964 121.547 288.432 120.611 288.432C119.61 288.432 118.999 287.912 118.934 287.223H117.712C117.79 288.523 118.96 289.433 120.624 289.433C122.197 289.433 123.224 288.549 123.224 287.379ZM125.154 287.366C125.154 288.796 125.869 289.316 127.13 289.316H128.196V288.315H127.325C126.597 288.315 126.337 288.068 126.337 287.366V283.167H128.196V282.192H126.337V280.398H125.154V282.192H124.231V283.167H125.154V287.366ZM139.855 285.741C139.855 283.492 138.282 282.075 136.254 282.075C134.239 282.075 132.653 283.492 132.653 285.741C132.653 288.003 134.187 289.433 136.202 289.433C138.23 289.433 139.855 288.003 139.855 285.741ZM133.862 285.741C133.862 283.947 134.993 283.102 136.241 283.102C137.463 283.102 138.646 283.947 138.646 285.741C138.646 287.548 137.437 288.393 136.202 288.393C134.967 288.393 133.862 287.548 133.862 285.741ZM146.624 289.316H147.794V285.117C147.794 283.076 146.533 282.062 144.882 282.062C143.92 282.062 143.062 282.465 142.594 283.206V282.192H141.411V289.316H142.594V285.377C142.594 283.843 143.426 283.089 144.635 283.089C145.831 283.089 146.624 283.83 146.624 285.286V289.316ZM153.192 289.316H154.375V285.377C154.375 283.843 155.207 283.089 156.416 283.089C157.612 283.089 158.405 283.83 158.405 285.286V289.316H159.575V285.117C159.575 283.076 158.314 282.062 156.728 282.062C155.727 282.062 154.843 282.465 154.375 283.219V279.696H153.192V289.316ZM164.536 283.076C165.758 283.076 166.798 283.843 166.785 285.234H162.287C162.417 283.843 163.379 283.076 164.536 283.076ZM167.864 287.119H166.59C166.33 287.886 165.654 288.432 164.588 288.432C163.379 288.432 162.365 287.639 162.274 286.196H167.968C167.994 285.949 168.007 285.741 168.007 285.481C168.007 283.531 166.655 282.075 164.588 282.075C162.508 282.075 161.065 283.492 161.065 285.741C161.065 288.003 162.56 289.433 164.588 289.433C166.356 289.433 167.5 288.419 167.864 287.119ZM170.752 285.442C170.752 283.791 171.61 283.284 172.741 283.284H173.053V282.062C171.922 282.062 171.155 282.556 170.752 283.349V282.192H169.569V289.316H170.752V285.442ZM180.913 283.076C182.135 283.076 183.175 283.843 183.162 285.234H178.664C178.794 283.843 179.756 283.076 180.913 283.076ZM184.241 287.119H182.967C182.707 287.886 182.031 288.432 180.965 288.432C179.756 288.432 178.742 287.639 178.651 286.196H184.345C184.371 285.949 184.384 285.741 184.384 285.481C184.384 283.531 183.032 282.075 180.965 282.075C178.885 282.075 177.442 283.492 177.442 285.741C177.442 288.003 178.937 289.433 180.965 289.433C182.733 289.433 183.877 288.419 184.241 287.119ZM185.504 285.728C185.504 287.938 186.973 289.433 188.871 289.433C190.184 289.433 191.107 288.757 191.536 287.99V289.316H192.732V282.192H191.536V283.492C191.12 282.751 190.21 282.075 188.884 282.075C186.973 282.075 185.504 283.505 185.504 285.728ZM191.536 285.741C191.536 287.418 190.418 288.393 189.118 288.393C187.818 288.393 186.713 287.405 186.713 285.728C186.713 284.051 187.818 283.102 189.118 283.102C190.418 283.102 191.536 284.09 191.536 285.741ZM199.853 287.379C199.801 284.831 195.667 285.754 195.667 284.064C195.667 283.492 196.187 283.076 197.058 283.076C198.007 283.076 198.553 283.596 198.605 284.311H199.788C199.71 282.92 198.67 282.075 197.097 282.075C195.511 282.075 194.484 282.972 194.484 284.064C194.484 286.716 198.696 285.793 198.696 287.379C198.696 287.964 198.176 288.432 197.24 288.432C196.239 288.432 195.628 287.912 195.563 287.223H194.341C194.419 288.523 195.589 289.433 197.253 289.433C198.826 289.433 199.853 288.549 199.853 287.379ZM204.227 287.964L201.991 282.192H200.678L203.551 289.238L202.147 292.67H203.369L207.659 282.192H206.437L204.227 287.964ZM82.6083 305.741C82.6083 308.003 84.0513 309.433 86.0793 309.433C87.8473 309.433 89.0043 308.445 89.3683 307.028H88.0943C87.8343 307.925 87.1323 308.432 86.0793 308.432C84.7793 308.432 83.8173 307.509 83.8173 305.741C83.8173 303.999 84.7793 303.076 86.0793 303.076C87.1323 303.076 87.8473 303.622 88.0943 304.48H89.3683C89.0043 302.985 87.8473 302.075 86.0793 302.075C84.0513 302.075 82.6083 303.505 82.6083 305.741ZM90.5048 305.728C90.5048 307.938 91.9738 309.433 93.8718 309.433C95.1848 309.433 96.1078 308.757 96.5368 307.99V309.316H97.7328V302.192H96.5368V303.492C96.1208 302.751 95.2108 302.075 93.8848 302.075C91.9738 302.075 90.5048 303.505 90.5048 305.728ZM96.5368 305.741C96.5368 307.418 95.4188 308.393 94.1188 308.393C92.8188 308.393 91.7138 307.405 91.7138 305.728C91.7138 304.051 92.8188 303.102 94.1188 303.102C95.4188 303.102 96.5368 304.09 96.5368 305.741ZM104.854 307.379C104.802 304.831 100.668 305.754 100.668 304.064C100.668 303.492 101.188 303.076 102.059 303.076C103.008 303.076 103.554 303.596 103.606 304.311H104.789C104.711 302.92 103.671 302.075 102.098 302.075C100.512 302.075 99.485 302.972 99.485 304.064C99.485 306.716 103.697 305.793 103.697 307.379C103.697 307.964 103.177 308.432 102.241 308.432C101.24 308.432 100.629 307.912 100.564 307.223H99.342C99.42 308.523 100.59 309.433 102.254 309.433C103.827 309.433 104.854 308.549 104.854 307.379ZM106.524 309.316H107.707V305.377C107.707 303.843 108.539 303.089 109.748 303.089C110.944 303.089 111.737 303.83 111.737 305.286V309.316H112.907V305.117C112.907 303.076 111.646 302.062 110.06 302.062C109.059 302.062 108.175 302.465 107.707 303.219V299.696H106.524V309.316ZM119.696 309.316H120.918L122.634 303.661L124.35 309.316H125.572L127.795 302.192H126.625L125.013 308.185L123.284 302.192H122.075L120.307 308.172L118.669 302.192H117.46L119.696 309.316ZM128.527 305.728C128.527 307.938 129.996 309.433 131.894 309.433C133.207 309.433 134.13 308.757 134.559 307.99V309.316H135.755V302.192H134.559V303.492C134.143 302.751 133.233 302.075 131.907 302.075C129.996 302.075 128.527 303.505 128.527 305.728ZM134.559 305.741C134.559 307.418 133.441 308.393 132.141 308.393C130.841 308.393 129.736 307.405 129.736 305.728C129.736 304.051 130.841 303.102 132.141 303.102C133.441 303.102 134.559 304.09 134.559 305.741ZM137.754 309.316H138.937V299.696H137.754V309.316ZM140.954 309.316H142.137V299.696H140.954V309.316ZM147.182 303.076C148.404 303.076 149.444 303.843 149.431 305.234H144.933C145.063 303.843 146.025 303.076 147.182 303.076ZM150.51 307.119H149.236C148.976 307.886 148.3 308.432 147.234 308.432C146.025 308.432 145.011 307.639 144.92 306.196H150.614C150.64 305.949 150.653 305.741 150.653 305.481C150.653 303.531 149.301 302.075 147.234 302.075C145.154 302.075 143.711 303.492 143.711 305.741C143.711 308.003 145.206 309.433 147.234 309.433C149.002 309.433 150.146 308.419 150.51 307.119ZM152.474 307.366C152.474 308.796 153.189 309.316 154.45 309.316H155.516V308.315H154.645C153.917 308.315 153.657 308.068 153.657 307.366V303.167H155.516V302.192H153.657V300.398H152.474V302.192H151.551V303.167H152.474V307.366Z" fill="#494B52"/>
<defs>
<clipPath id="clip0">
<rect width="235.652" height="257.391" fill="white" transform="translate(0.870117 0.316406)"/>
</clipPath>
</defs>
</svg>
