<svg width="188" height="85" viewBox="0 0 188 85" fill="none" xmlns="http://www.w3.org/2000/svg">
<path d="M19.0692 15.3164H20.2522V9.16741H21.7472V8.19241H20.2522V7.68541C20.2522 6.76241 20.6032 6.37241 21.6692 6.37241V5.38441C19.8492 5.38441 19.0692 6.09941 19.0692 7.68541V8.19241H18.1462V9.16741H19.0692V15.3164ZM24.3095 11.4424C24.3095 9.79141 25.1675 9.28441 26.2985 9.28441H26.6105V8.06241C25.4795 8.06241 24.7125 8.55641 24.3095 9.34941V8.19241H23.1265V15.3164H24.3095V11.4424ZM27.9761 15.3164H29.1591V8.19241H27.9761V15.3164ZM28.5871 7.03541C29.0161 7.03541 29.3671 6.68441 29.3671 6.22941C29.3671 5.77441 29.0161 5.42341 28.5871 5.42341C28.1321 5.42341 27.7811 5.77441 27.7811 6.22941C27.7811 6.68441 28.1321 7.03541 28.5871 7.03541ZM34.2043 9.07641C35.4263 9.07641 36.4663 9.84341 36.4533 11.2344H31.9553C32.0853 9.84341 33.0473 9.07641 34.2043 9.07641ZM37.5323 13.1194H36.2583C35.9983 13.8864 35.3223 14.4324 34.2563 14.4324C33.0473 14.4324 32.0333 13.6394 31.9423 12.1964H37.6363C37.6623 11.9494 37.6753 11.7414 37.6753 11.4814C37.6753 9.53141 36.3233 8.07541 34.2563 8.07541C32.1763 8.07541 30.7333 9.49241 30.7333 11.7414C30.7333 14.0034 32.2283 15.4334 34.2563 15.4334C36.0243 15.4334 37.1683 14.4194 37.5323 13.1194ZM44.4498 15.3164H45.6198V11.1174C45.6198 9.07641 44.3588 8.06241 42.7078 8.06241C41.7458 8.06241 40.8878 8.46541 40.4198 9.20641V8.19241H39.2368V15.3164H40.4198V11.3774C40.4198 9.84341 41.2518 9.08941 42.4608 9.08941C43.6568 9.08941 44.4498 9.83041 44.4498 11.2864V15.3164ZM47.1103 11.7284C47.1103 13.9384 48.5793 15.4334 50.4903 15.4334C51.7903 15.4334 52.7133 14.7704 53.1423 13.9774V15.3164H54.3383V5.69641H53.1423V9.46641C52.6483 8.64741 51.6213 8.07541 50.5033 8.07541C48.5793 8.07541 47.1103 9.50541 47.1103 11.7284ZM53.1423 11.7414C53.1423 13.4184 52.0243 14.3934 50.7243 14.3934C49.4243 14.3934 48.3193 13.4054 48.3193 11.7284C48.3193 10.0514 49.4243 9.10241 50.7243 9.10241C52.0243 9.10241 53.1423 10.0904 53.1423 11.7414ZM61.4594 13.3794C61.4074 10.8314 57.2734 11.7544 57.2734 10.0644C57.2734 9.49241 57.7934 9.07641 58.6644 9.07641C59.6134 9.07641 60.1594 9.59641 60.2114 10.3114H61.3944C61.3164 8.92041 60.2764 8.07541 58.7034 8.07541C57.1174 8.07541 56.0904 8.97241 56.0904 10.0644C56.0904 12.7164 60.3024 11.7934 60.3024 13.3794C60.3024 13.9644 59.7824 14.4324 58.8464 14.4324C57.8454 14.4324 57.2344 13.9124 57.1694 13.2234H55.9474C56.0254 14.5234 57.1954 15.4334 58.8594 15.4334C60.4324 15.4334 61.4594 14.5494 61.4594 13.3794ZM67.9862 15.3164H69.2082L70.9242 9.66141L72.6402 15.3164H73.8622L76.0852 8.19241H74.9152L73.3032 14.1854L71.5742 8.19241H70.3652L68.5972 14.1724L66.9592 8.19241H65.7502L67.9862 15.3164ZM77.2593 15.3164H78.4423V8.19241H77.2593V15.3164ZM77.8703 7.03541C78.2993 7.03541 78.6503 6.68441 78.6503 6.22941C78.6503 5.77441 78.2993 5.42341 77.8703 5.42341C77.4153 5.42341 77.0643 5.77441 77.0643 6.22941C77.0643 6.68441 77.4153 7.03541 77.8703 7.03541ZM80.4585 15.3164H81.6415V5.69641H80.4585V15.3164ZM83.6577 15.3164H84.8407V5.69641H83.6577V15.3164ZM95.4448 13.3794C95.3928 10.8314 91.2588 11.7544 91.2588 10.0644C91.2588 9.49241 91.7788 9.07641 92.6498 9.07641C93.5988 9.07641 94.1448 9.59641 94.1968 10.3114H95.3798C95.3018 8.92041 94.2618 8.07541 92.6888 8.07541C91.1028 8.07541 90.0758 8.97241 90.0758 10.0644C90.0758 12.7164 94.2878 11.7934 94.2878 13.3794C94.2878 13.9644 93.7678 14.4324 92.8318 14.4324C91.8308 14.4324 91.2198 13.9124 91.1548 13.2234H89.9328C90.0108 14.5234 91.1808 15.4334 92.8448 15.4334C94.4178 15.4334 95.4448 14.5494 95.4448 13.3794ZM100.144 9.07641C101.366 9.07641 102.406 9.84341 102.393 11.2344H97.8948C98.0248 9.84341 98.9868 9.07641 100.144 9.07641ZM103.472 13.1194H102.198C101.938 13.8864 101.262 14.4324 100.196 14.4324C98.9868 14.4324 97.9728 13.6394 97.8818 12.1964H103.576C103.602 11.9494 103.615 11.7414 103.615 11.4814C103.615 9.53141 102.263 8.07541 100.196 8.07541C98.1158 8.07541 96.6728 9.49241 96.6728 11.7414C96.6728 14.0034 98.1678 15.4334 100.196 15.4334C101.964 15.4334 103.108 14.4194 103.472 13.1194ZM110.389 15.3164H111.559V11.1174C111.559 9.07641 110.298 8.06241 108.647 8.06241C107.685 8.06241 106.827 8.46541 106.359 9.20641V8.19241H105.176V15.3164H106.359V11.3774C106.359 9.84341 107.191 9.08941 108.4 9.08941C109.596 9.08941 110.389 9.83041 110.389 11.2864V15.3164ZM113.05 11.7284C113.05 13.9384 114.519 15.4334 116.43 15.4334C117.73 15.4334 118.653 14.7704 119.082 13.9774V15.3164H120.278V5.69641H119.082V9.46641C118.588 8.64741 117.561 8.07541 116.443 8.07541C114.519 8.07541 113.05 9.50541 113.05 11.7284ZM119.082 11.7414C119.082 13.4184 117.964 14.3934 116.664 14.3934C115.364 14.3934 114.259 13.4054 114.259 11.7284C114.259 10.0514 115.364 9.10241 116.664 9.10241C117.964 9.10241 119.082 10.0904 119.082 11.7414ZM136.026 15.3164H137.196V11.1174C137.196 9.07641 135.935 8.06241 134.31 8.06241C133.218 8.06241 132.204 8.62141 131.788 9.64841C131.32 8.58241 130.345 8.06241 129.175 8.06241C128.239 8.06241 127.394 8.46541 126.926 9.21941V8.19241H125.743V15.3164H126.926V11.3904C126.926 9.85641 127.745 9.08941 128.941 9.08941C130.111 9.08941 130.891 9.83041 130.891 11.2864V15.3164H132.061V11.3904C132.061 9.85641 132.88 9.08941 134.076 9.08941C135.246 9.08941 136.026 9.83041 136.026 11.2864V15.3164ZM145.896 11.7414C145.896 9.49241 144.323 8.07541 142.295 8.07541C140.28 8.07541 138.694 9.49241 138.694 11.7414C138.694 14.0034 140.228 15.4334 142.243 15.4334C144.271 15.4334 145.896 14.0034 145.896 11.7414ZM139.903 11.7414C139.903 9.94741 141.034 9.10241 142.282 9.10241C143.504 9.10241 144.687 9.94741 144.687 11.7414C144.687 13.5484 143.478 14.3934 142.243 14.3934C141.008 14.3934 139.903 13.5484 139.903 11.7414ZM152.665 15.3164H153.835V11.1174C153.835 9.07641 152.574 8.06241 150.923 8.06241C149.961 8.06241 149.103 8.46541 148.635 9.20641V8.19241H147.452V15.3164H148.635V11.3774C148.635 9.84341 149.467 9.08941 150.676 9.08941C151.872 9.08941 152.665 9.83041 152.665 11.2864V15.3164ZM158.796 9.07641C160.018 9.07641 161.058 9.84341 161.045 11.2344H156.547C156.677 9.84341 157.639 9.07641 158.796 9.07641ZM162.124 13.1194H160.85C160.59 13.8864 159.914 14.4324 158.848 14.4324C157.639 14.4324 156.625 13.6394 156.534 12.1964H162.228C162.254 11.9494 162.267 11.7414 162.267 11.4814C162.267 9.53141 160.915 8.07541 158.848 8.07541C156.768 8.07541 155.325 9.49241 155.325 11.7414C155.325 14.0034 156.82 15.4334 158.848 15.4334C160.616 15.4334 161.76 14.4194 162.124 13.1194ZM166.533 13.9644L164.297 8.19241H162.984L165.857 15.2384L164.453 18.6704H165.675L169.965 8.19241H168.743L166.533 13.9644ZM5.31095 31.4424C5.31095 29.7914 6.16895 29.2844 7.29995 29.2844H7.61195V28.0624C6.48095 28.0624 5.71395 28.5564 5.31095 29.3494V28.1924H4.12795V35.3164H5.31095V31.4424ZM12.0066 29.0764C13.2286 29.0764 14.2686 29.8434 14.2556 31.2344H9.75756C9.88756 29.8434 10.8496 29.0764 12.0066 29.0764ZM15.3346 33.1194H14.0606C13.8006 33.8864 13.1246 34.4324 12.0586 34.4324C10.8496 34.4324 9.83556 33.6394 9.74456 32.1964H15.4386C15.4646 31.9494 15.4776 31.7414 15.4776 31.4814C15.4776 29.5314 14.1256 28.0754 12.0586 28.0754C9.97856 28.0754 8.53556 29.4924 8.53556 31.7414C8.53556 34.0034 10.0306 35.4334 12.0586 35.4334C13.8266 35.4334 14.9706 34.4194 15.3346 33.1194ZM16.5971 31.7284C16.5971 33.9384 18.0661 35.4334 19.9511 35.4334C21.2771 35.4334 22.2261 34.7314 22.6291 34.0034V38.6964H23.8251V28.1924H22.6291V29.4924C22.2261 28.7514 21.2901 28.0754 19.9901 28.0754C18.0661 28.0754 16.5971 29.5054 16.5971 31.7284ZM22.6291 31.7414C22.6291 33.4184 21.5111 34.3934 20.2111 34.3934C18.9111 34.3934 17.8061 33.4054 17.8061 31.7284C17.8061 30.0514 18.9111 29.1024 20.2111 29.1024C21.5111 29.1024 22.6291 30.0904 22.6291 31.7414ZM32.1422 28.1924H30.9592V32.1054C30.9592 33.6394 30.1402 34.3934 28.9182 34.3934C27.7222 34.3934 26.9292 33.6524 26.9292 32.2094V28.1924H25.7592V32.3654C25.7592 34.4064 27.0462 35.4204 28.6842 35.4204C29.6332 35.4204 30.5042 35.0044 30.9592 34.2634V35.3164H32.1422V28.1924ZM37.1687 29.0764C38.3907 29.0764 39.4307 29.8434 39.4177 31.2344H34.9197C35.0497 29.8434 36.0117 29.0764 37.1687 29.0764ZM40.4967 33.1194H39.2227C38.9627 33.8864 38.2867 34.4324 37.2207 34.4324C36.0117 34.4324 34.9977 33.6394 34.9067 32.1964H40.6007C40.6267 31.9494 40.6397 31.7414 40.6397 31.4814C40.6397 29.5314 39.2877 28.0754 37.2207 28.0754C35.1407 28.0754 33.6977 29.4924 33.6977 31.7414C33.6977 34.0034 35.1927 35.4334 37.2207 35.4334C38.9887 35.4334 40.1327 34.4194 40.4967 33.1194ZM47.3232 33.3794C47.2712 30.8314 43.1372 31.7544 43.1372 30.0644C43.1372 29.4924 43.6572 29.0764 44.5282 29.0764C45.4772 29.0764 46.0232 29.5964 46.0752 30.3114H47.2582C47.1802 28.9204 46.1402 28.0754 44.5672 28.0754C42.9812 28.0754 41.9542 28.9724 41.9542 30.0644C41.9542 32.7164 46.1662 31.7934 46.1662 33.3794C46.1662 33.9644 45.6462 34.4324 44.7102 34.4324C43.7092 34.4324 43.0982 33.9124 43.0332 33.2234H41.8112C41.8892 34.5234 43.0592 35.4334 44.7232 35.4334C46.2962 35.4334 47.3232 34.5494 47.3232 33.3794ZM49.2532 33.3664C49.2532 34.7964 49.9682 35.3164 51.2292 35.3164H52.2952V34.3154H51.4242C50.6962 34.3154 50.4362 34.0684 50.4362 33.3664V29.1674H52.2952V28.1924H50.4362V26.3984H49.2532V28.1924H48.3302V29.1674H49.2532V33.3664ZM60.8812 35.3164H62.0642V29.1674H63.5592V28.1924H62.0642V27.6854C62.0642 26.7624 62.4152 26.3724 63.4812 26.3724V25.3844C61.6612 25.3844 60.8812 26.0994 60.8812 27.6854V28.1924H59.9582V29.1674H60.8812V35.3164ZM66.1215 31.4424C66.1215 29.7914 66.9795 29.2844 68.1105 29.2844H68.4225V28.0624C67.2915 28.0624 66.5245 28.5564 66.1215 29.3494V28.1924H64.9385V35.3164H66.1215V31.4424ZM76.5481 31.7414C76.5481 29.4924 74.9751 28.0754 72.9471 28.0754C70.9321 28.0754 69.3461 29.4924 69.3461 31.7414C69.3461 34.0034 70.8801 35.4334 72.8951 35.4334C74.9231 35.4334 76.5481 34.0034 76.5481 31.7414ZM70.5551 31.7414C70.5551 29.9474 71.6861 29.1024 72.9341 29.1024C74.1561 29.1024 75.3391 29.9474 75.3391 31.7414C75.3391 33.5484 74.1301 34.3934 72.8951 34.3934C71.6601 34.3934 70.5551 33.5484 70.5551 31.7414ZM88.3865 35.3164H89.5565V31.1174C89.5565 29.0764 88.2955 28.0624 86.6705 28.0624C85.5785 28.0624 84.5645 28.6214 84.1485 29.6484C83.6805 28.5824 82.7055 28.0624 81.5355 28.0624C80.5995 28.0624 79.7545 28.4654 79.2865 29.2194V28.1924H78.1035V35.3164H79.2865V31.3904C79.2865 29.8564 80.1055 29.0894 81.3015 29.0894C82.4715 29.0894 83.2515 29.8304 83.2515 31.2864V35.3164H84.4215V31.3904C84.4215 29.8564 85.2405 29.0894 86.4365 29.0894C87.6065 29.0894 88.3865 29.8304 88.3865 31.2864V35.3164ZM94.9629 35.3164H96.1459V31.3774C96.1459 29.8434 96.9779 29.0894 98.1869 29.0894C99.3829 29.0894 100.176 29.8304 100.176 31.2864V35.3164H101.346V31.1174C101.346 29.0764 100.085 28.0624 98.4989 28.0624C97.4979 28.0624 96.6139 28.4654 96.1459 29.2194V25.6964H94.9629V35.3164ZM106.307 29.0764C107.529 29.0764 108.569 29.8434 108.556 31.2344H104.058C104.188 29.8434 105.15 29.0764 106.307 29.0764ZM109.635 33.1194H108.361C108.101 33.8864 107.425 34.4324 106.359 34.4324C105.15 34.4324 104.136 33.6394 104.045 32.1964H109.739C109.765 31.9494 109.778 31.7414 109.778 31.4814C109.778 29.5314 108.426 28.0754 106.359 28.0754C104.279 28.0754 102.836 29.4924 102.836 31.7414C102.836 34.0034 104.331 35.4334 106.359 35.4334C108.127 35.4334 109.271 34.4194 109.635 33.1194ZM112.523 31.4424C112.523 29.7914 113.381 29.2844 114.512 29.2844H114.824V28.0624C113.693 28.0624 112.926 28.5564 112.523 29.3494V28.1924H111.34V35.3164H112.523V31.4424ZM122.684 29.0764C123.906 29.0764 124.946 29.8434 124.933 31.2344H120.435C120.565 29.8434 121.527 29.0764 122.684 29.0764ZM126.012 33.1194H124.738C124.478 33.8864 123.802 34.4324 122.736 34.4324C121.527 34.4324 120.513 33.6394 120.422 32.1964H126.116C126.142 31.9494 126.155 31.7414 126.155 31.4814C126.155 29.5314 124.803 28.0754 122.736 28.0754C120.656 28.0754 119.213 29.4924 119.213 31.7414C119.213 34.0034 120.708 35.4334 122.736 35.4334C124.504 35.4334 125.648 34.4194 126.012 33.1194ZM127.275 31.7284C127.275 33.9384 128.744 35.4334 130.642 35.4334C131.955 35.4334 132.878 34.7574 133.307 33.9904V35.3164H134.503V28.1924H133.307V29.4924C132.891 28.7514 131.981 28.0754 130.655 28.0754C128.744 28.0754 127.275 29.5054 127.275 31.7284ZM133.307 31.7414C133.307 33.4184 132.189 34.3934 130.889 34.3934C129.589 34.3934 128.484 33.4054 128.484 31.7284C128.484 30.0514 129.589 29.1024 130.889 29.1024C132.189 29.1024 133.307 30.0904 133.307 31.7414ZM141.624 33.3794C141.572 30.8314 137.438 31.7544 137.438 30.0644C137.438 29.4924 137.958 29.0764 138.829 29.0764C139.778 29.0764 140.324 29.5964 140.376 30.3114H141.559C141.481 28.9204 140.441 28.0754 138.868 28.0754C137.282 28.0754 136.255 28.9724 136.255 30.0644C136.255 32.7164 140.467 31.7934 140.467 33.3794C140.467 33.9644 139.947 34.4324 139.011 34.4324C138.01 34.4324 137.399 33.9124 137.334 33.2234H136.112C136.19 34.5234 137.36 35.4334 139.024 35.4334C140.597 35.4334 141.624 34.5494 141.624 33.3794ZM145.998 33.9644L143.762 28.1924H142.449L145.322 35.2384L143.918 38.6704H145.14L149.43 28.1924H148.208L145.998 33.9644ZM153.643 31.7414C153.643 34.0034 155.086 35.4334 157.114 35.4334C158.882 35.4334 160.039 34.4454 160.403 33.0284H159.129C158.869 33.9254 158.167 34.4324 157.114 34.4324C155.814 34.4324 154.852 33.5094 154.852 31.7414C154.852 29.9994 155.814 29.0764 157.114 29.0764C158.167 29.0764 158.882 29.6224 159.129 30.4804H160.403C160.039 28.9854 158.882 28.0754 157.114 28.0754C155.086 28.0754 153.643 29.5054 153.643 31.7414ZM161.539 31.7284C161.539 33.9384 163.008 35.4334 164.906 35.4334C166.219 35.4334 167.142 34.7574 167.571 33.9904V35.3164H168.767V28.1924H167.571V29.4924C167.155 28.7514 166.245 28.0754 164.919 28.0754C163.008 28.0754 161.539 29.5054 161.539 31.7284ZM167.571 31.7414C167.571 33.4184 166.453 34.3934 165.153 34.3934C163.853 34.3934 162.748 33.4054 162.748 31.7284C162.748 30.0514 163.853 29.1024 165.153 29.1024C166.453 29.1024 167.571 30.0904 167.571 31.7414ZM175.889 33.3794C175.837 30.8314 171.703 31.7544 171.703 30.0644C171.703 29.4924 172.223 29.0764 173.094 29.0764C174.043 29.0764 174.589 29.5964 174.641 30.3114H175.824C175.746 28.9204 174.706 28.0754 173.133 28.0754C171.547 28.0754 170.52 28.9724 170.52 30.0644C170.52 32.7164 174.732 31.7934 174.732 33.3794C174.732 33.9644 174.212 34.4324 173.276 34.4324C172.275 34.4324 171.664 33.9124 171.599 33.2234H170.377C170.455 34.5234 171.625 35.4334 173.289 35.4334C174.862 35.4334 175.889 34.5494 175.889 33.3794ZM177.559 35.3164H178.742V31.3774C178.742 29.8434 179.574 29.0894 180.783 29.0894C181.979 29.0894 182.772 29.8304 182.772 31.2864V35.3164H183.942V31.1174C183.942 29.0764 182.681 28.0624 181.095 28.0624C180.094 28.0624 179.21 28.4654 178.742 29.2194V25.6964H177.559V35.3164ZM14.3422 55.3164H15.5642L17.2802 49.6614L18.9962 55.3164H20.2182L22.4412 48.1924H21.2712L19.6592 54.1854L17.9302 48.1924H16.7212L14.9532 54.1724L13.3152 48.1924H12.1062L14.3422 55.3164ZM23.1733 51.7284C23.1733 53.9384 24.6423 55.4334 26.5403 55.4334C27.8533 55.4334 28.7763 54.7574 29.2053 53.9904V55.3164H30.4013V48.1924H29.2053V49.4924C28.7893 48.7514 27.8793 48.0754 26.5533 48.0754C24.6423 48.0754 23.1733 49.5054 23.1733 51.7284ZM29.2053 51.7414C29.2053 53.4184 28.0873 54.3934 26.7873 54.3934C25.4873 54.3934 24.3823 53.4054 24.3823 51.7284C24.3823 50.0514 25.4873 49.1024 26.7873 49.1024C28.0873 49.1024 29.2053 50.0904 29.2053 51.7414ZM32.4004 55.3164H33.5834V45.6964H32.4004V55.3164ZM35.5996 55.3164H36.7826V45.6964H35.5996V55.3164ZM41.8279 49.0764C43.0499 49.0764 44.0899 49.8434 44.0769 51.2344H39.5789C39.7089 49.8434 40.6709 49.0764 41.8279 49.0764ZM45.1559 53.1194H43.8819C43.6219 53.8864 42.9459 54.4324 41.8799 54.4324C40.6709 54.4324 39.6569 53.6394 39.5659 52.1964H45.2599C45.2859 51.9494 45.2989 51.7414 45.2989 51.4814C45.2989 49.5314 43.9469 48.0754 41.8799 48.0754C39.7999 48.0754 38.3569 49.4924 38.3569 51.7414C38.3569 54.0034 39.8519 55.4334 41.8799 55.4334C43.6479 55.4334 44.7919 54.4194 45.1559 53.1194ZM47.1204 53.3664C47.1204 54.7964 47.8354 55.3164 49.0964 55.3164H50.1624V54.3154H49.2914C48.5634 54.3154 48.3034 54.0684 48.3034 53.3664V49.1674H50.1624V48.1924H48.3034V46.3984H47.1204V48.1924H46.1974V49.1674H47.1204V53.3664ZM55.3215 53.3664C55.3215 54.7964 56.0365 55.3164 57.2975 55.3164H58.3635V54.3154H57.4925C56.7645 54.3154 56.5045 54.0684 56.5045 53.3664V49.1674H58.3635V48.1924H56.5045V46.3984H55.3215V48.1924H54.3985V49.1674H55.3215V53.3664ZM66.5569 51.7414C66.5569 49.4924 64.9839 48.0754 62.9559 48.0754C60.9409 48.0754 59.3549 49.4924 59.3549 51.7414C59.3549 54.0034 60.8889 55.4334 62.9039 55.4334C64.9319 55.4334 66.5569 54.0034 66.5569 51.7414ZM60.5639 51.7414C60.5639 49.9474 61.6949 49.1024 62.9429 49.1024C64.1649 49.1024 65.3479 49.9474 65.3479 51.7414C65.3479 53.5484 64.1389 54.3934 62.9039 54.3934C61.6689 54.3934 60.5639 53.5484 60.5639 51.7414ZM71.5781 55.3164H72.7611V51.3774C72.7611 49.8434 73.5931 49.0894 74.8021 49.0894C75.9981 49.0894 76.7911 49.8304 76.7911 51.2864V55.3164H77.9611V51.1174C77.9611 49.0764 76.7001 48.0624 75.1141 48.0624C74.1131 48.0624 73.2291 48.4654 72.7611 49.2194V45.6964H71.5781V55.3164ZM82.9226 49.0764C84.1446 49.0764 85.1846 49.8434 85.1716 51.2344H80.6736C80.8036 49.8434 81.7656 49.0764 82.9226 49.0764ZM86.2506 53.1194H84.9766C84.7166 53.8864 84.0406 54.4324 82.9746 54.4324C81.7656 54.4324 80.7516 53.6394 80.6606 52.1964H86.3546C86.3806 51.9494 86.3936 51.7414 86.3936 51.4814C86.3936 49.5314 85.0416 48.0754 82.9746 48.0754C80.8946 48.0754 79.4516 49.4924 79.4516 51.7414C79.4516 54.0034 80.9466 55.4334 82.9746 55.4334C84.7426 55.4334 85.8866 54.4194 86.2506 53.1194ZM89.1381 51.4424C89.1381 49.7914 89.9961 49.2844 91.1271 49.2844H91.4391V48.0624C90.3081 48.0624 89.5411 48.5564 89.1381 49.3494V48.1924H87.9551V55.3164H89.1381V51.4424ZM96.4915 55.3164H97.6745V49.1674H99.1695V48.1924H97.6745V47.6854C97.6745 46.7624 98.0255 46.3724 99.0915 46.3724V45.3844C97.2715 45.3844 96.4915 46.0994 96.4915 47.6854V48.1924H95.5685V49.1674H96.4915V55.3164ZM101.732 51.4424C101.732 49.7914 102.59 49.2844 103.721 49.2844H104.033V48.0624C102.902 48.0624 102.135 48.5564 101.732 49.3494V48.1924H100.549V55.3164H101.732V51.4424ZM105.398 55.3164H106.581V48.1924H105.398V55.3164ZM106.009 47.0354C106.438 47.0354 106.789 46.6844 106.789 46.2294C106.789 45.7744 106.438 45.4234 106.009 45.4234C105.554 45.4234 105.203 45.7744 105.203 46.2294C105.203 46.6844 105.554 47.0354 106.009 47.0354ZM111.627 49.0764C112.849 49.0764 113.889 49.8434 113.876 51.2344H109.378C109.508 49.8434 110.47 49.0764 111.627 49.0764ZM114.955 53.1194H113.681C113.421 53.8864 112.745 54.4324 111.679 54.4324C110.47 54.4324 109.456 53.6394 109.365 52.1964H115.059C115.085 51.9494 115.098 51.7414 115.098 51.4814C115.098 49.5314 113.746 48.0754 111.679 48.0754C109.599 48.0754 108.156 49.4924 108.156 51.7414C108.156 54.0034 109.651 55.4334 111.679 55.4334C113.447 55.4334 114.591 54.4194 114.955 53.1194ZM121.872 55.3164H123.042V51.1174C123.042 49.0764 121.781 48.0624 120.13 48.0624C119.168 48.0624 118.31 48.4654 117.842 49.2064V48.1924H116.659V55.3164H117.842V51.3774C117.842 49.8434 118.674 49.0894 119.883 49.0894C121.079 49.0894 121.872 49.8304 121.872 51.2864V55.3164ZM124.533 51.7284C124.533 53.9384 126.002 55.4334 127.913 55.4334C129.213 55.4334 130.136 54.7704 130.565 53.9774V55.3164H131.761V45.6964H130.565V49.4664C130.071 48.6474 129.044 48.0754 127.926 48.0754C126.002 48.0754 124.533 49.5054 124.533 51.7284ZM130.565 51.7414C130.565 53.4184 129.447 54.3934 128.147 54.3934C126.847 54.3934 125.742 53.4054 125.742 51.7284C125.742 50.0514 126.847 49.1024 128.147 49.1024C129.447 49.1024 130.565 50.0904 130.565 51.7414ZM133.383 47.5554H134.202L134.358 44.9684H133.214L133.383 47.5554ZM140.951 53.3794C140.899 50.8314 136.765 51.7544 136.765 50.0644C136.765 49.4924 137.285 49.0764 138.156 49.0764C139.105 49.0764 139.651 49.5964 139.703 50.3114H140.886C140.808 48.9204 139.768 48.0754 138.195 48.0754C136.609 48.0754 135.582 48.9724 135.582 50.0644C135.582 52.7164 139.794 51.7934 139.794 53.3794C139.794 53.9644 139.274 54.4324 138.338 54.4324C137.337 54.4324 136.726 53.9124 136.661 53.2234H135.439C135.517 54.5234 136.687 55.4334 138.351 55.4334C139.924 55.4334 140.951 54.5494 140.951 53.3794ZM149.116 49.0764C150.338 49.0764 151.378 49.8434 151.365 51.2344H146.867C146.997 49.8434 147.959 49.0764 149.116 49.0764ZM152.444 53.1194H151.17C150.91 53.8864 150.234 54.4324 149.168 54.4324C147.959 54.4324 146.945 53.6394 146.854 52.1964H152.548C152.574 51.9494 152.587 51.7414 152.587 51.4814C152.587 49.5314 151.235 48.0754 149.168 48.0754C147.088 48.0754 145.645 49.4924 145.645 51.7414C145.645 54.0034 147.14 55.4334 149.168 55.4334C150.936 55.4334 152.08 54.4194 152.444 53.1194ZM153.706 51.7284C153.706 53.9384 155.175 55.4334 157.073 55.4334C158.386 55.4334 159.309 54.7574 159.738 53.9904V55.3164H160.934V48.1924H159.738V49.4924C159.322 48.7514 158.412 48.0754 157.086 48.0754C155.175 48.0754 153.706 49.5054 153.706 51.7284ZM159.738 51.7414C159.738 53.4184 158.62 54.3934 157.32 54.3934C156.02 54.3934 154.915 53.4054 154.915 51.7284C154.915 50.0514 156.02 49.1024 157.32 49.1024C158.62 49.1024 159.738 50.0904 159.738 51.7414ZM168.056 53.3794C168.004 50.8314 163.87 51.7544 163.87 50.0644C163.87 49.4924 164.39 49.0764 165.261 49.0764C166.21 49.0764 166.756 49.5964 166.808 50.3114H167.991C167.913 48.9204 166.873 48.0754 165.3 48.0754C163.714 48.0754 162.687 48.9724 162.687 50.0644C162.687 52.7164 166.899 51.7934 166.899 53.3794C166.899 53.9644 166.379 54.4324 165.443 54.4324C164.442 54.4324 163.831 53.9124 163.766 53.2234H162.544C162.622 54.5234 163.792 55.4334 165.456 55.4334C167.029 55.4334 168.056 54.5494 168.056 53.3794ZM172.43 53.9644L170.194 48.1924H168.881L171.754 55.2384L170.35 58.6704H171.572L175.862 48.1924H174.64L172.43 53.9644ZM57.6093 71.7414C57.6093 74.0034 59.0523 75.4334 61.0803 75.4334C62.8483 75.4334 64.0053 74.4454 64.3693 73.0284H63.0953C62.8353 73.9254 62.1333 74.4324 61.0803 74.4324C59.7803 74.4324 58.8183 73.5094 58.8183 71.7414C58.8183 69.9994 59.7803 69.0764 61.0803 69.0764C62.1333 69.0764 62.8483 69.6224 63.0953 70.4804H64.3693C64.0053 68.9854 62.8483 68.0754 61.0803 68.0754C59.0523 68.0754 57.6093 69.5054 57.6093 71.7414ZM65.5058 71.7284C65.5058 73.9384 66.9748 75.4334 68.8728 75.4334C70.1858 75.4334 71.1088 74.7574 71.5378 73.9904V75.3164H72.7338V68.1924H71.5378V69.4924C71.1218 68.7514 70.2118 68.0754 68.8858 68.0754C66.9748 68.0754 65.5058 69.5054 65.5058 71.7284ZM71.5378 71.7414C71.5378 73.4184 70.4198 74.3934 69.1198 74.3934C67.8198 74.3934 66.7148 73.4054 66.7148 71.7284C66.7148 70.0514 67.8198 69.1024 69.1198 69.1024C70.4198 69.1024 71.5378 70.0904 71.5378 71.7414ZM79.8549 73.3794C79.8029 70.8314 75.6689 71.7544 75.6689 70.0644C75.6689 69.4924 76.1889 69.0764 77.0599 69.0764C78.0089 69.0764 78.5549 69.5964 78.6069 70.3114H79.7899C79.7119 68.9204 78.6719 68.0754 77.0989 68.0754C75.5129 68.0754 74.4859 68.9724 74.4859 70.0644C74.4859 72.7164 78.6979 71.7934 78.6979 73.3794C78.6979 73.9644 78.1779 74.4324 77.2419 74.4324C76.2409 74.4324 75.6299 73.9124 75.5649 73.2234H74.3429C74.4209 74.5234 75.5909 75.4334 77.2549 75.4334C78.8279 75.4334 79.8549 74.5494 79.8549 73.3794ZM81.5249 75.3164H82.7079V71.3774C82.7079 69.8434 83.5399 69.0894 84.7489 69.0894C85.9449 69.0894 86.7379 69.8304 86.7379 71.2864V75.3164H87.9079V71.1174C87.9079 69.0764 86.6469 68.0624 85.0609 68.0624C84.0599 68.0624 83.1759 68.4654 82.7079 69.2194V65.6964H81.5249V75.3164ZM94.6972 75.3164H95.9192L97.6352 69.6614L99.3512 75.3164H100.573L102.796 68.1924H101.626L100.014 74.1854L98.2852 68.1924H97.0762L95.3082 74.1724L93.6702 68.1924H92.4612L94.6972 75.3164ZM103.528 71.7284C103.528 73.9384 104.997 75.4334 106.895 75.4334C108.208 75.4334 109.131 74.7574 109.56 73.9904V75.3164H110.756V68.1924H109.56V69.4924C109.144 68.7514 108.234 68.0754 106.908 68.0754C104.997 68.0754 103.528 69.5054 103.528 71.7284ZM109.56 71.7414C109.56 73.4184 108.442 74.3934 107.142 74.3934C105.842 74.3934 104.737 73.4054 104.737 71.7284C104.737 70.0514 105.842 69.1024 107.142 69.1024C108.442 69.1024 109.56 70.0904 109.56 71.7414ZM112.755 75.3164H113.938V65.6964H112.755V75.3164ZM115.955 75.3164H117.138V65.6964H115.955V75.3164ZM122.183 69.0764C123.405 69.0764 124.445 69.8434 124.432 71.2344H119.934C120.064 69.8434 121.026 69.0764 122.183 69.0764ZM125.511 73.1194H124.237C123.977 73.8864 123.301 74.4324 122.235 74.4324C121.026 74.4324 120.012 73.6394 119.921 72.1964H125.615C125.641 71.9494 125.654 71.7414 125.654 71.4814C125.654 69.5314 124.302 68.0754 122.235 68.0754C120.155 68.0754 118.712 69.4924 118.712 71.7414C118.712 74.0034 120.207 75.4334 122.235 75.4334C124.003 75.4334 125.147 74.4194 125.511 73.1194ZM127.475 73.3664C127.475 74.7964 128.19 75.3164 129.451 75.3164H130.517V74.3154H129.646C128.918 74.3154 128.658 74.0684 128.658 73.3664V69.1674H130.517V68.1924H128.658V66.3984H127.475V68.1924H126.552V69.1674H127.475V73.3664Z" fill="#494B52"/>
</svg>
