<svg width="214" height="285" viewBox="0 0 214 285" fill="none" xmlns="http://www.w3.org/2000/svg">
<g clip-path="url(#clip0)">
<path d="M11.6084 71.7896C14.6102 65.8185 18.1187 60.834 22.0448 57.255C23.1578 56.2259 24.3547 55.2919 25.6228 54.4627C26.7585 53.7197 27.9595 53.0825 29.211 52.5591C47.102 45.1422 65.4207 62.0192 85.8867 60.0255C103.042 58.3502 115.387 48.7901 126.33 40.7658C129.917 38.0237 133.672 35.5099 137.572 33.2391C138.606 32.6614 139.649 32.1328 140.683 31.6637C141.796 31.1673 142.978 30.6969 144.241 30.2688C144.241 30.2675 144.241 30.2661 144.242 30.2649C144.242 30.2636 144.243 30.2625 144.244 30.2616C144.245 30.2606 144.246 30.2599 144.247 30.2594C144.248 30.259 144.25 30.2588 144.251 30.2589L144.262 30.2688C160.115 24.8152 186.892 25.015 198.761 36.7487C211.185 49.0402 226.273 88.8751 192.101 140.186C154.131 197.218 50.3923 205.104 22.6711 186.242C-6.0147 166.743 -4.86154 104.558 11.6084 71.7896Z" fill="#D6DCFD"/>
<path d="M38.2494 37.1927C45.5457 27.5579 53.2363 28.9181 58.5742 31.247C61.2311 32.4636 63.4658 34.4477 64.992 36.9454C66.5182 39.443 67.2666 42.3406 67.1413 45.2673C67.0472 46.8062 66.7193 48.4268 67.3401 49.8355C68.3438 52.102 71.2641 52.7406 72.9555 54.5492C75.2677 57.0231 74.7556 60.9394 73.9745 64.2379C73.1934 67.5363 72.3712 71.3031 74.3058 74.0839C76.0774 76.6308 79.4549 77.3139 82.2408 78.6688C84.0922 79.5551 85.7359 80.8237 87.0643 82.3916C88.3927 83.9595 89.3759 85.7912 89.9492 87.7667C90.4906 89.7523 90.5328 91.8414 90.0723 93.8474C89.6118 95.8534 88.6629 97.7137 87.3103 99.262C84.6019 102.222 80.5355 103.533 76.5737 104.119C70.7865 104.932 64.8921 104.469 59.302 102.761C53.712 101.053 48.561 98.1418 44.2089 94.2306C39.9117 90.2587 36.5309 85.3938 34.3024 79.9758C32.074 74.5577 31.0516 68.7171 31.3069 62.8618" fill="#2E353A"/>
<path d="M83.1477 100.252C83.1258 100.228 83.3988 100.013 83.8102 99.5089C84.4117 98.7786 84.8538 97.9299 85.1081 97.0177C85.4775 95.5659 85.4907 94.0458 85.1466 92.5877C84.7333 90.647 83.7953 88.8578 82.4355 87.4162C81.6558 86.575 80.7681 85.8412 79.796 85.2341C78.7252 84.5933 77.6006 84.0476 76.435 83.6035C75.1641 83.1226 73.9345 82.5386 72.7581 81.8573C71.5209 81.0816 70.4417 80.0773 69.578 78.8977C67.7565 76.3368 66.7711 73.2725 66.7576 70.1267C66.7242 68.4832 66.8632 66.8407 67.1723 65.2263C67.4698 63.5904 67.8833 61.9637 68.1986 60.3092C68.4441 59.1591 68.5792 57.9881 68.602 56.8121C68.5466 55.6692 68.2868 54.5457 67.8349 53.4951C67.4115 52.4319 66.9134 51.4 66.5145 50.3262C66.1623 49.2498 65.9316 48.1372 65.8268 47.0092C65.6943 45.9049 65.6943 44.8165 65.5697 43.7812C65.458 42.755 65.2619 41.7398 64.9834 40.746C64.4895 38.8689 63.6613 37.0968 62.5388 35.5153L62.5261 35.4973V35.4933C61.6898 34.188 60.5844 33.0775 59.2842 32.2366C57.984 31.3958 56.5193 30.8441 54.9887 30.6188C52.6084 30.2844 50.1863 30.7922 48.1388 32.0547C46.8155 32.849 45.673 33.913 44.7851 35.1777C44.1783 36.0561 43.9536 36.5884 43.9238 36.5731C44.1218 36.0585 44.3775 35.568 44.6858 35.1112C45.5463 33.7949 46.6838 32.6836 48.0183 31.8554C50.1033 30.5226 52.5894 29.9686 55.0409 30.2905C56.6279 30.5086 58.1495 31.067 59.5019 31.9278C60.8544 32.7885 62.0061 33.9314 62.8786 35.2787L62.8627 35.2574C64.0333 36.8768 64.8987 38.6973 65.4161 40.629C65.7051 41.6444 65.9097 42.6821 66.0281 43.7314C66.1606 44.8072 66.1607 45.8856 66.2932 46.9601C66.3965 48.0493 66.62 49.1237 66.9596 50.1635C67.3479 51.204 67.8469 52.2333 68.2808 53.3177C68.7553 54.4202 69.0277 55.5994 69.085 56.7988C69.0646 58.0096 68.9274 59.2155 68.675 60.3996C68.3556 62.0754 67.9422 63.6993 67.6468 65.3133C67.3417 66.8949 67.2029 68.5042 67.2327 70.1148C67.2376 73.1655 68.1822 76.1402 69.9371 78.6319C70.7635 79.771 71.7975 80.7427 72.9846 81.4958C74.1381 82.171 75.3441 82.7519 76.5908 83.2327C77.7734 83.6927 78.913 84.2566 79.9967 84.9178C80.9908 85.55 81.8964 86.3125 82.6893 87.185C84.0728 88.6809 85.0154 90.5322 85.4128 92.5333C85.7443 94.033 85.7023 95.5914 85.2904 97.0709C85.012 97.9986 84.5323 98.8529 83.8858 99.5726C83.6684 99.8285 83.4205 100.057 83.1477 100.252Z" fill="#4D5A64"/>
<path d="M56.4639 88.94C56.9381 88.2988 57.5017 87.729 58.1373 87.2483C58.6987 86.6821 59.3384 86.1998 60.0367 85.8164C59.5622 86.4575 58.9987 87.0272 58.3633 87.5081C57.8017 88.0741 57.162 88.5563 56.4639 88.94Z" fill="#FAFAFA"/>
<path d="M54.0905 82.8294L32.0948 85.5158C32.0948 85.5158 14.3963 88.7431 10.8392 102.037C8.38194 111.218 3.29642 128.319 0.384645 138.022C-0.224102 140.051 -0.107458 142.229 0.714449 144.181C1.53636 146.133 3.01189 147.736 4.88641 148.713C5.99025 149.288 7.20038 149.63 8.44147 149.716C9.68256 149.803 10.9281 149.632 12.1007 149.215C13.2733 148.798 14.3477 148.144 15.2574 147.293C16.167 146.442 16.8924 145.412 17.3882 144.267L27.008 122.066C27.008 122.066 30.3981 129.821 30.2034 133.488C30.0086 137.156 22.3696 150.636 22.3696 150.636C38.6159 159.979 55.1252 158.801 67.9662 152.961L67.3535 117.873C67.3535 117.873 73.3989 149.181 85.6429 146.796C95.9074 144.798 89.1483 124.736 85.6429 117.06C81.1716 107.273 75.3381 93.3107 71.6637 89.9445C61.8207 80.9177 54.0905 82.8294 54.0905 82.8294Z" fill="#E8505B"/>
<g opacity="0.2">
<g opacity="0.2">
<g opacity="0.2">
<path opacity="0.2" d="M33.7665 87.6766C32.3548 89.7076 30.6676 91.5315 28.7538 93.0953C27.5634 94.2633 26.177 95.2117 24.6582 95.8967C23.8946 96.232 23.061 96.3753 22.2297 96.3142C21.3984 96.2531 20.5946 95.9893 19.888 95.5459C18.5392 94.5724 18.0092 92.4528 19.0593 91.1604C19.7536 90.3066 20.8971 89.9956 21.9638 89.7318L32.6495 87.0898" fill="black"/>
</g>
</g>
</g>
<path d="M5.7168 128.57C6.55802 127.768 7.60688 127.219 8.74391 126.985C9.85268 126.641 11.0356 126.616 12.1579 126.913C11.0396 126.961 9.92657 127.097 8.82931 127.319C7.76079 127.654 6.72009 128.072 5.7168 128.57Z" fill="#2E353A"/>
<path d="M8.62012 125.527C9.31961 125.094 10.1519 124.932 10.9621 125.069C11.7836 125.089 12.57 125.408 13.1749 125.965C12.4408 125.727 11.6905 125.542 10.9297 125.412C10.1581 125.394 9.38617 125.432 8.62012 125.527Z" fill="#2E353A"/>
<g opacity="0.2">
<g opacity="0.2">
<g opacity="0.2">
<path opacity="0.2" d="M12.9881 127.165C12.0239 126.698 10.9551 126.491 9.88692 126.566C8.81879 126.64 7.78842 126.992 6.89766 127.588C6.5293 127.841 6.06349 128.148 5.67857 127.92C5.30954 127.703 5.33136 127.144 5.53542 126.766C6.02303 125.867 7.13607 125.527 8.15105 125.421C9.99128 125.231 11.8489 125.53 13.5374 126.288" fill="black"/>
</g>
</g>
</g>
<g opacity="0.2">
<g opacity="0.2">
<g opacity="0.2">
<path opacity="0.2" d="M48.7395 112.335C47.5814 114.674 44.2497 116.139 42.6901 118.692C41.373 120.846 40.8821 123.387 40.0891 125.786C37.8538 132.458 33.2574 138.076 27.1699 141.577C28.3757 139.285 29.3552 136.88 30.0943 134.396C30.2551 132.883 30.0325 131.353 29.447 129.948C30.2029 127.623 33.5083 124.41 35.0228 122.49C36.7606 120.128 38.7302 117.947 40.902 115.979C43.0918 114.003 45.8223 112.733 48.7401 112.332" fill="black"/>
</g>
</g>
</g>
<path d="M75.9375 127.533C75.9809 128.163 75.9667 128.796 75.8951 129.424C75.8362 130.586 75.705 132.192 75.7779 133.954C75.9031 137.508 77.2753 140.134 77.1414 140.175C77.1202 140.185 77.028 140.029 76.8763 139.737C76.6684 139.323 76.484 138.898 76.3238 138.464C75.7956 137.021 75.4944 135.505 75.4307 133.97C75.3902 132.444 75.4635 130.918 75.6501 129.403C75.688 128.772 75.7841 128.146 75.9375 127.533Z" fill="#2E353A"/>
<path d="M49.9904 103.558C49.9904 103.558 52.3092 104.588 54.1192 105.418C56.9773 106.733 57.9293 104.344 57.9293 104.344L49.9838 98.5831C48.9344 97.8384 47.6837 97.4321 46.3983 97.4183C45.1129 97.4046 43.8537 97.784 42.7887 98.506C42.139 98.9539 41.5775 99.5185 41.1324 100.171L35.4467 108.278L4.51239 133.02C-0.324003 136.892 -0.486309 143.426 4.40839 147.227C6.19918 148.625 8.45359 149.287 10.7132 149.077C12.9727 148.867 15.0677 147.802 16.5722 146.098L41.9726 117.322L45.2527 114.787L49.1111 111.98C49.1111 111.98 51.9952 109.888 49.6187 107.767C48.8495 107.08 50.331 107.094 50.48 106.098C50.5569 105.58 50.4058 105.486 49.5008 104.852C49.5028 104.851 50.9206 104.884 49.9904 103.558Z" fill="#B78876"/>
<path d="M49.913 104.234C49.8713 104.262 49.6879 104.039 49.3832 103.702C49.0149 103.262 48.5446 102.918 48.0136 102.702C47.7526 102.616 47.4753 102.59 47.203 102.628C46.9306 102.665 46.6703 102.764 46.4421 102.918C46.0943 103.168 46.0175 103.46 45.9619 103.44C45.9268 103.445 45.9135 103.091 46.2865 102.731C46.5353 102.516 46.8359 102.37 47.1585 102.307C47.4811 102.245 47.8143 102.269 48.1249 102.376C48.7169 102.607 49.2227 103.017 49.5726 103.549C49.8396 103.94 49.9501 104.21 49.913 104.234Z" fill="#996552"/>
<path d="M45.9478 106.243C45.9153 106.217 46.0272 105.993 46.3373 105.744C46.7514 105.421 47.2612 105.247 47.7856 105.248C48.31 105.251 48.8185 105.43 49.23 105.756C49.538 106.007 49.6485 106.232 49.6154 106.257C49.5823 106.283 49.4048 106.134 49.0935 105.956C48.6948 105.726 48.2443 105.601 47.7843 105.593C47.3242 105.597 46.8727 105.719 46.4725 105.946C46.1598 106.121 45.9869 106.278 45.9478 106.243Z" fill="#996552"/>
<path d="M45.9478 108.587C45.9153 108.561 46.0272 108.337 46.3373 108.088C46.7514 107.765 47.2612 107.59 47.7856 107.592C48.31 107.595 48.8185 107.773 49.23 108.099C49.538 108.351 49.6485 108.575 49.6154 108.601C49.5823 108.627 49.4048 108.478 49.0935 108.3C48.6948 108.07 48.2443 107.945 47.7843 107.937C47.3242 107.941 46.8727 108.063 46.4725 108.29C46.1598 108.464 45.9869 108.622 45.9478 108.587Z" fill="#996552"/>
<path d="M72.5283 96.9123L74.7101 99.2831C74.7101 99.2831 75.4388 132.839 76.7102 137.397C77.9815 141.955 85.4383 149.615 89.4379 143.414C93.4376 137.214 83.4381 97.6419 83.4381 97.6419C83.4381 97.6419 80.7106 88.524 80.5284 86.3359L72.5283 96.9123Z" fill="#B78876"/>
<path d="M77.5348 77.4778L76.6735 100.658C76.6433 101.472 76.408 102.265 75.9893 102.964C75.5706 103.662 74.9821 104.242 74.2791 104.651L67.3181 108.689C66.88 108.943 66.3829 109.077 65.8768 109.078C65.3707 109.078 64.8734 108.944 64.435 108.691C63.9966 108.437 63.6325 108.072 63.3794 107.633C63.1263 107.193 62.9931 106.694 62.9932 106.187V84.7245C62.9933 84.1262 63.153 83.5388 63.4559 83.0234C63.7588 82.508 64.1938 82.0834 64.7156 81.7935L75.1344 75.9994C75.3851 75.8604 75.6682 75.7907 75.9545 75.7973C76.2408 75.8039 76.5202 75.8866 76.7642 76.0369C77.0083 76.1872 77.2082 76.3998 77.3436 76.653C77.479 76.9061 77.545 77.1908 77.5348 77.4778Z" fill="#455A64"/>
<path d="M69.5302 83.5868C69.4409 83.769 69.3882 83.967 69.3752 84.1695C69.3623 84.3721 69.3893 84.5752 69.4546 84.7673C69.52 84.9594 69.6225 85.1367 69.7561 85.2891C69.8898 85.4415 70.0521 85.5659 70.2338 85.6553C70.4154 85.7449 70.6128 85.7977 70.8148 85.8107C71.0167 85.8237 71.2193 85.7966 71.4108 85.7311C71.6024 85.6656 71.7791 85.5628 71.931 85.4288C72.0829 85.2947 72.2071 85.1319 72.2962 84.9497C72.3855 84.7675 72.4381 84.5695 72.451 84.367C72.464 84.1644 72.4371 83.9613 72.3718 83.7692C72.3064 83.5771 72.204 83.3998 72.0703 83.2474C71.9366 83.095 71.7743 82.9706 71.5926 82.8812C71.411 82.7916 71.2136 82.7388 71.0116 82.7258C70.8097 82.7128 70.6071 82.7399 70.4156 82.8054C70.2241 82.8709 70.0473 82.9737 69.8954 83.1077C69.7435 83.2418 69.6194 83.4046 69.5302 83.5868Z" fill="#FAFAFA"/>
<path d="M80.5272 86.3353C80.5272 86.3353 75.3727 79.173 74.2292 79.2328C73.0857 79.2926 67.5484 82.6136 67.7889 83.3379C68.0293 84.0622 69.1735 84.4848 70.1965 84.0024C71.2194 83.52 73.0254 81.7684 73.4468 82.1306C73.8682 82.4927 75.0719 83.7605 75.0719 83.7605C75.0719 83.7605 69.9823 86.3659 69.5948 87.3825C69.1973 88.4224 68.2698 90.2198 69.4743 90.8836C70.2587 91.3162 71.5207 90.8231 72.0024 88.7706C72.0024 88.7706 71.0391 91.7288 72.5271 92.4531C74.1284 93.2332 74.6207 91.5893 75.9146 89.9779C77.0024 88.6211 77.4921 90.348 77.4921 90.348L80.5272 86.3353Z" fill="#AA8776"/>
<path d="M76.625 86.3978C76.3135 86.4515 75.9984 86.4821 75.6824 86.4895C74.9431 86.5789 74.2335 86.8347 73.6067 87.2377C72.9862 87.6507 72.4668 88.199 72.0875 88.8417C71.9529 89.1289 71.7978 89.406 71.6236 89.671C71.6151 89.3393 71.7013 89.0122 71.8721 88.7281C72.214 88.0034 72.7489 87.3876 73.4177 86.9486C74.0878 86.512 74.865 86.269 75.6638 86.2463C75.9921 86.2047 76.3253 86.2572 76.625 86.3978Z" fill="#996552"/>
<path d="M33.2165 39.3056L33.2225 42.2917L33.0284 86.9991C33.0059 92.1893 37.4375 96.3422 42.9788 96.3236C48.5751 96.305 53.1962 92.0438 53.3048 86.8011C53.4194 81.298 53.6401 75.5052 53.6401 75.5052C53.6401 75.5052 60.729 74.454 62.3575 65.2305C63.1671 60.6457 63.0704 53.098 62.7928 46.9264C62.7345 45.6095 62.411 44.3181 61.8419 43.1299C61.2728 41.9417 60.4697 40.8814 59.4812 40.0127C58.4926 39.144 57.339 38.4851 56.0898 38.0754C54.8406 37.6658 53.5216 37.514 52.2124 37.6292L33.2165 39.3056Z" fill="#B78876"/>
<path d="M60.6237 52.5588C60.6212 52.8679 60.4982 53.1639 60.2813 53.3836C60.0644 53.6033 59.7704 53.7293 59.4622 53.7349C59.3115 53.7443 59.1605 53.7234 59.018 53.6733C58.8755 53.6232 58.7445 53.545 58.6326 53.4433C58.5207 53.3416 58.4302 53.2185 58.3665 53.0812C58.3029 52.9439 58.2672 52.7952 58.2617 52.6438C58.2642 52.3348 58.387 52.0389 58.6037 51.8192C58.8203 51.5994 59.1137 51.4731 59.4218 51.467C59.5726 51.4576 59.7238 51.4786 59.8664 51.5287C60.009 51.5788 60.1402 51.6571 60.2522 51.7588C60.3642 51.8605 60.4548 51.9837 60.5186 52.1211C60.5824 52.2585 60.6182 52.4073 60.6237 52.5588Z" fill="#2E353A"/>
<path d="M61.0916 50.824C60.9419 50.9755 60.0574 50.2924 58.7847 50.2758C57.514 50.2379 56.5679 50.8778 56.4328 50.719C56.3665 50.6486 56.521 50.3722 56.9324 50.0825C57.49 49.7094 58.1491 49.5186 58.8192 49.5363C59.481 49.5454 60.1226 49.7659 60.651 50.1656C61.0372 50.4739 61.1645 50.7556 61.0916 50.824Z" fill="#2E353A"/>
<path d="M48.5698 52.3426C48.5671 52.6518 48.4442 52.9478 48.2271 53.1675C48.0101 53.3872 47.716 53.5132 47.4077 53.5187C47.257 53.528 47.1061 53.507 46.9637 53.4569C46.8213 53.4068 46.6902 53.3286 46.5784 53.2269C46.4666 53.1252 46.3763 53.0021 46.3127 52.8648C46.249 52.7275 46.2135 52.5789 46.208 52.4276C46.2104 52.1185 46.3328 51.8225 46.5495 51.6026C46.7661 51.3827 47.0599 51.2562 47.3681 51.2502C47.5189 51.2409 47.6701 51.2619 47.8127 51.3121C47.9553 51.3623 48.0865 51.4406 48.1985 51.5424C48.3105 51.6442 48.4009 51.7674 48.4647 51.9048C48.5285 52.0422 48.5643 52.1911 48.5698 52.3426Z" fill="#2E353A"/>
<path d="M48.5777 50.8396C48.4279 50.9911 47.5422 50.308 46.2708 50.2914C45.0001 50.2536 44.054 50.8934 43.9182 50.7346C43.8519 50.6642 44.0049 50.3878 44.4183 50.0981C44.9758 49.7251 45.6348 49.5343 46.3046 49.5519C46.9666 49.5609 47.6085 49.7813 48.1371 50.1811C48.522 50.4894 48.6506 50.7712 48.5777 50.8396Z" fill="#2E353A"/>
<path d="M53.0287 60.3863C53.7031 60.1871 54.3997 60.0737 55.1023 60.0488C55.4276 60.0209 55.7371 59.9617 55.7954 59.7405C55.8291 59.4043 55.7597 59.0659 55.5966 58.7703C55.3051 57.9761 54.9993 57.1431 54.679 56.2713C53.407 52.7137 52.4927 49.7907 52.6358 49.7409C52.7789 49.691 53.9264 52.5317 55.1984 56.0912C55.5036 56.9683 55.7958 57.806 56.0749 58.6042C56.2726 59.0011 56.3242 59.4553 56.2207 59.8866C56.1713 60.0004 56.097 60.1014 56.0029 60.182C55.9089 60.2625 55.7979 60.3206 55.6782 60.3518C55.4972 60.3969 55.3114 60.4193 55.125 60.4182C54.4277 60.4965 53.7233 60.4858 53.0287 60.3863Z" fill="#2E353A"/>
<path d="M53.642 75.508C49.2985 75.4977 45.0431 74.2786 41.3496 71.9863C41.3496 71.9863 44.2335 78.3938 53.4789 77.6928L53.642 75.508Z" fill="#996552"/>
<path d="M52.4363 63.4544C52.1995 63.1443 51.8878 62.8998 51.5307 62.7439C51.1736 62.588 50.7827 62.5259 50.395 62.5634C50.1141 62.584 49.8403 62.6612 49.5899 62.7904C49.3394 62.9197 49.1175 63.0983 48.9375 63.3156C48.7633 63.5251 48.6574 63.7833 48.6346 64.0551C48.6117 64.327 48.6729 64.5994 48.8097 64.8352C49.0102 65.068 49.2752 65.2354 49.5711 65.3162C49.867 65.3969 50.1802 65.3872 50.4706 65.2884C51.0755 65.0854 51.6345 64.7642 52.1151 64.3435C52.2604 64.244 52.3857 64.118 52.4847 63.972C52.5328 63.9025 52.5592 63.8202 52.5604 63.7355C52.5615 63.6509 52.5375 63.5678 52.4913 63.497" fill="#996552"/>
<path d="M49.2695 61.2032C49.4768 61.1946 49.455 62.5807 50.6197 63.5847C51.7844 64.5887 53.2578 64.4631 53.2651 64.6571C53.283 64.7442 52.9339 64.9229 52.3111 64.9229C51.5016 64.9199 50.719 64.6307 50.101 64.1063C49.5087 63.6026 49.1344 62.8879 49.0574 62.1129C49.013 61.5341 49.1734 61.1959 49.2695 61.2032Z" fill="#2E353A"/>
<path d="M22.1067 91.436C25.7654 91.7132 29.3927 90.5878 32.2564 88.2871C35.12 85.9864 37.0067 82.6818 37.5355 79.0403C37.611 78.4093 37.7522 77.7879 37.9568 77.1864C38.9758 74.4562 39.0978 71.4708 38.3052 68.666C37.9627 67.3716 37.4726 65.9543 38.0589 64.7516C38.4842 63.8785 39.3765 63.3562 40.1066 62.717C41.7201 61.21 42.6944 59.1386 42.8277 56.9314C42.9484 54.7405 42.5877 52.5497 41.771 50.514C41.353 49.3844 40.8435 48.1505 41.2688 47.0249C41.6555 46.2642 42.2165 45.6063 42.9058 45.1053C44.2419 43.8974 45.3524 42.4602 46.1853 40.8613C47.03 39.238 47.5767 37.129 45.3738 35.8419C44.9079 35.5786 44.3971 35.4047 43.8678 35.3289C39.9695 34.7229 35.3213 35.305 32.7123 38.3855C30.5843 40.8932 30.2822 44.4321 30.0762 47.7173C29.4282 58.0703 12.3385 77.3047 18.9458 91.4838L22.1067 91.436Z" fill="#2E353A"/>
<path d="M48.9955 45.8407C48.863 46.1855 47.5964 45.9981 46.1004 46.1523C44.6004 46.2759 43.3887 46.6932 43.1959 46.3782C43.1104 46.2274 43.3283 45.9051 43.8186 45.5775C44.4724 45.1698 45.2138 44.9242 45.9812 44.8612C46.7457 44.7826 47.5178 44.8879 48.2337 45.1682C48.7816 45.3995 49.0525 45.6772 48.9955 45.8407Z" fill="#2E353A"/>
<path d="M60.6889 47.1212C60.4597 47.407 59.5885 47.09 58.5345 47.0548C57.4817 46.985 56.5839 47.2149 56.3839 46.9079C56.2964 46.7591 56.4422 46.4714 56.8371 46.2036C57.3637 45.8761 57.9789 45.721 58.5974 45.7597C59.2166 45.7811 59.8138 45.9955 60.3059 46.373C60.673 46.6807 60.7903 46.981 60.6889 47.1212Z" fill="#2E353A"/>
<path d="M176.685 14.8097C177.313 13.4586 178.297 12.3054 179.532 11.4752C180.766 10.6449 182.204 10.1691 183.689 10.0993C185.175 10.0693 186.641 10.4477 187.929 11.1936C189.216 11.9394 190.276 13.0242 190.992 14.3307C191.819 15.8902 192.145 17.748 193.34 19.0484C194.112 19.8374 195.138 20.3267 196.235 20.4296C197.333 20.5325 198.431 20.2423 199.336 19.6105C199.548 20.5673 199.408 21.5684 198.943 22.4301C198.477 23.2919 197.718 23.9564 196.803 24.3016L199.733 24.6033C198.152 28.0625 193.824 29.6473 190.081 28.9715C186.339 28.2958 183.159 25.814 180.613 22.9913" fill="#263238"/>
<path d="M176.706 14.8581L185.744 17.8263C188.959 19.9234 191.403 23.0166 192.704 26.6351C193.126 27.8584 193.414 29.1309 193.949 30.3096C194.432 31.5253 195.335 32.5253 196.495 33.1256C197.362 33.515 198.35 33.5595 199.239 33.8898C199.988 34.1873 200.655 34.6614 201.183 35.2718C201.711 35.8822 202.085 36.6111 202.272 37.3968C202.448 38.1841 202.466 38.9984 202.325 39.7926C202.184 40.5867 201.888 41.3451 201.453 42.0235C201.024 42.7059 200.454 43.3684 200.417 44.1731C200.452 44.7176 200.564 45.2544 200.748 45.7678C200.947 46.6764 200.859 47.6245 200.498 48.4814C200.137 49.3382 199.52 50.0616 198.732 50.552C197.924 51.012 196.993 51.2104 196.068 51.1198C195.143 51.0293 194.269 50.6544 193.564 50.0463C192.986 51.3753 192.217 52.7474 190.908 53.374C189.599 54.0006 187.667 53.4404 187.397 52.0118C187.054 52.6911 186.503 53.2427 185.826 53.5864C185.148 53.93 184.379 54.0476 183.63 53.9222C182.888 53.7648 182.215 53.3733 181.711 52.8049C181.206 52.2365 180.896 51.5211 180.826 50.7633L156.058 23.6676C159.754 13.7537 174.211 14.6295 176.706 14.8581Z" fill="#263238"/>
<path d="M180.901 24.2832C181.669 24.3634 182.379 24.7299 182.89 25.31C183.402 25.8902 183.678 26.6418 183.663 27.4161L181.914 69.1361C181.848 74.0631 172.911 79.8892 167.638 79.7775C162.312 79.6659 163.878 74.012 163.801 69.3248C163.673 61.4941 163.675 58.5544 163.673 58.5996C163.673 58.5996 156.944 57.482 155.549 48.699C154.856 44.3315 155.076 37.1705 155.444 31.3166C155.775 26.048 159.266 19.5841 164.514 20.1389L180.901 24.2832Z" fill="#FFBE9D"/>
<path d="M157.726 37.004C157.724 37.2979 157.836 37.5809 158.039 37.793C158.241 38.0052 158.519 38.1297 158.811 38.1403C158.955 38.1518 159.098 38.1346 159.235 38.0895C159.371 38.0445 159.497 37.9725 159.605 37.8779C159.713 37.7833 159.801 37.6679 159.865 37.5386C159.928 37.4093 159.964 37.2687 159.972 37.125C159.974 36.832 159.862 36.5499 159.66 36.3381C159.458 36.1264 159.182 36.0016 158.89 35.99C158.747 35.9781 158.603 35.995 158.466 36.0398C158.33 36.0846 158.203 36.1563 158.095 36.2508C157.986 36.3453 157.898 36.4606 157.834 36.59C157.771 36.7193 157.734 36.8601 157.726 37.004Z" fill="#263238"/>
<path d="M156.997 35.0429C157.137 35.1904 157.991 34.5585 159.201 34.5618C160.412 34.5479 161.301 35.1711 161.433 35.023C161.499 34.9565 161.355 34.6907 160.969 34.4097C160.445 34.0462 159.821 33.8541 159.184 33.8595C158.553 33.8569 157.939 34.0551 157.429 34.4256C157.055 34.712 156.929 34.9778 156.997 35.0429Z" fill="#263238"/>
<path d="M169.569 37.0025C169.567 37.2963 169.68 37.5794 169.883 37.7915C170.085 38.0036 170.362 38.1282 170.655 38.1387C170.798 38.1502 170.942 38.1329 171.078 38.0878C171.215 38.0427 171.341 37.9708 171.449 37.8762C171.557 37.7816 171.645 37.6662 171.708 37.537C171.771 37.4077 171.808 37.2671 171.816 37.1234C171.818 36.8295 171.706 36.5462 171.504 36.3338C171.301 36.1214 171.024 35.9966 170.731 35.9859C170.588 35.9744 170.444 35.9917 170.307 36.0369C170.171 36.0821 170.045 36.1541 169.937 36.2489C169.828 36.3436 169.74 36.459 169.677 36.5885C169.614 36.7179 169.577 36.8587 169.569 37.0025Z" fill="#263238"/>
<path d="M168.906 35.2682C169.046 35.415 169.9 34.7838 171.111 34.7871C172.321 34.7725 173.211 35.3964 173.342 35.2476C173.408 35.1811 173.266 34.9153 172.878 34.6349C172.354 34.2713 171.73 34.0789 171.093 34.0841C170.463 34.0821 169.848 34.2805 169.338 34.6509C168.965 34.9366 168.838 35.2024 168.906 35.2682Z" fill="#263238"/>
<path d="M164.51 44.2568C163.871 44.0564 163.21 43.937 162.542 43.9013C162.233 43.8694 161.94 43.8083 161.887 43.597C161.862 43.2772 161.934 42.957 162.094 42.6794L163.009 40.3232C164.28 36.9676 165.199 34.2101 165.063 34.1589C164.926 34.1078 163.788 36.7875 162.517 40.1431C162.212 40.9701 161.919 41.7604 161.64 42.5139C161.446 42.8871 161.389 43.3174 161.48 43.7286C161.525 43.8379 161.594 43.9355 161.682 44.0139C161.77 44.0924 161.875 44.1495 161.989 44.1811C162.16 44.2275 162.337 44.2521 162.514 44.2542C163.177 44.3396 163.847 44.3405 164.51 44.2568Z" fill="#263238"/>
<path d="M163.673 58.6005C167.806 58.6635 171.875 57.5775 175.431 55.4629C175.431 55.4629 172.578 61.4956 163.791 60.6736L163.673 58.6005Z" fill="#EB996E"/>
<path d="M165.023 47.179C165.254 46.8885 165.554 46.6617 165.897 46.5198C166.239 46.3779 166.612 46.3255 166.98 46.3677C167.247 46.3916 167.506 46.4694 167.743 46.5963C167.979 46.7233 168.188 46.8968 168.356 47.1065C168.518 47.3084 168.614 47.5552 168.631 47.8136C168.648 48.072 168.586 48.3295 168.452 48.5511C168.257 48.7692 168.001 48.924 167.718 48.9956C167.435 49.0673 167.137 49.0524 166.862 48.9531C166.29 48.7504 165.764 48.436 165.313 48.0282C165.177 47.9315 165.059 47.81 164.967 47.67C164.922 47.6033 164.898 47.5248 164.898 47.4444C164.898 47.3641 164.922 47.2855 164.967 47.2188" fill="#EB996E"/>
<path d="M168.075 45.0958C167.876 45.0846 167.876 46.3995 166.75 47.3338C165.624 48.268 164.225 48.1225 164.215 48.3066C164.196 48.389 164.527 48.5624 165.118 48.5783C165.888 48.5892 166.638 48.3278 167.235 47.8401C167.808 47.3723 168.176 46.6992 168.262 45.9636C168.312 45.4141 168.165 45.0879 168.075 45.0958Z" fill="#263238"/>
<path d="M168.364 33.146C168.484 33.4782 169.693 33.3194 171.114 33.4909C172.539 33.6337 173.686 34.0503 173.874 33.7566C173.959 33.6151 173.759 33.3048 173.295 32.9859C172.68 32.5878 171.978 32.3422 171.25 32.2696C170.522 32.1818 169.784 32.2685 169.097 32.5227C168.574 32.732 168.311 32.9899 168.364 33.146Z" fill="#263238"/>
<path d="M157.443 31.5367C157.656 31.8118 158.491 31.5261 159.497 31.5128C160.5 31.4636 161.352 31.6975 161.546 31.4098C161.632 31.2696 161.499 30.9938 161.127 30.7334C160.631 30.4133 160.048 30.2556 159.459 30.2822C158.87 30.2921 158.298 30.4855 157.823 30.8357C157.466 31.1174 157.349 31.4038 157.443 31.5367Z" fill="#263238"/>
<path d="M182.691 38.3297C183.047 38.1352 183.449 38.043 183.854 38.0633C184.26 38.0836 184.651 38.2155 184.986 38.4446C185.783 38.9316 186.394 39.6717 186.723 40.5472C187.053 41.4227 187.081 42.3834 186.803 43.2766C186.479 44.1553 185.872 44.9006 185.079 45.3948C184.285 45.889 183.35 46.104 182.421 46.0056" fill="#FFBE9D"/>
<path d="M168.889 17.2142C165.689 17.3205 163.262 18.2939 160.454 19.8308C159.03 20.5681 157.765 21.5799 156.732 22.8081C155.699 24.0363 154.917 25.4569 154.432 26.9885C154.309 27.3055 154.251 27.6445 154.263 27.9846C154.276 28.3247 154.357 28.6587 154.503 28.966C154.782 29.3191 155.175 29.5641 155.614 29.6588C156.053 29.7536 156.511 29.6924 156.91 29.4856C157.698 29.0488 158.369 28.4293 158.869 27.6789C159.097 28.4834 159.578 29.1924 160.241 29.7001C160.903 30.2078 161.712 30.4871 162.546 30.4962C163.379 30.4685 164.181 30.1714 164.832 29.649C165.483 29.1266 165.949 28.4071 166.159 27.5978C166.229 28.4404 166.619 29.2237 167.249 29.7856C167.879 30.3476 168.7 30.6453 169.543 30.6171C170.384 30.5439 171.186 30.2257 171.85 29.7016C172.514 29.1775 173.011 28.4703 173.279 27.6669C173.489 29.1886 174.015 30.6492 174.824 31.9541C175.72 33.1953 177.341 34.0485 178.799 33.574C178.593 34.883 178.393 36.2612 178.856 37.5017C179.32 38.7423 180.699 39.7476 181.952 39.317C183.168 38.8991 183.64 37.4565 183.925 36.2033C184.549 33.7997 184.865 31.3261 184.865 28.8424C184.86 26.3421 184.07 23.9069 182.608 21.8821C180.949 19.8931 178.691 18.4998 176.173 17.9132C173.668 17.3375 171.098 17.1035 168.532 17.2175" fill="#263238"/>
<path d="M183.305 43.3861C183.33 43.3237 183.646 43.4605 184.07 43.2659C184.327 43.1169 184.536 42.8954 184.67 42.6288C184.804 42.3621 184.857 42.062 184.823 41.7655C184.82 41.4651 184.729 41.172 184.563 40.922C184.397 40.6721 184.162 40.4759 183.887 40.3575C183.447 40.1774 183.123 40.2651 183.106 40.1973C183.074 40.1541 183.404 39.9209 183.983 40.0505C184.319 40.1322 184.62 40.32 184.841 40.586C185.108 40.9139 185.261 41.3197 185.277 41.7422C185.321 42.1257 185.237 42.5129 185.039 42.8434C184.84 43.1739 184.538 43.429 184.179 43.5688C183.582 43.7257 183.258 43.4213 183.305 43.3861Z" fill="#EB996E"/>
<path d="M183.567 47.0763C184.199 47.0763 184.712 46.5634 184.712 45.9307C184.712 45.298 184.199 44.7852 183.567 44.7852C182.934 44.7852 182.422 45.298 182.422 45.9307C182.422 46.5634 182.934 47.0763 183.567 47.0763Z" fill="#E8505B"/>
<path d="M176.823 14.4128C177.281 14.2567 177.768 14.201 178.249 14.2493C179.42 14.3024 180.561 14.6377 181.576 15.2268C182.594 15.8113 183.455 16.6335 184.088 17.6235C184.371 18.0174 184.566 18.4673 184.661 18.9431C184.604 18.9677 184.391 18.4627 183.886 17.761C183.221 16.852 182.376 16.0911 181.404 15.5264C180.429 14.9667 179.349 14.6151 178.232 14.4939C177.374 14.4068 176.831 14.4732 176.823 14.4128Z" fill="#E8505B"/>
<path d="M181.415 14.4178C181.389 14.3279 181.379 14.2342 181.384 14.1408C181.389 13.8718 181.446 13.6063 181.552 13.3593C181.767 12.9091 182.084 12.5155 182.477 12.2099C182.871 11.9043 183.33 11.6952 183.819 11.5992C185.072 11.257 186.657 11.9008 187.758 13.1155C188.337 13.7525 188.819 14.4722 189.187 15.2511C189.577 16.0484 189.894 16.9123 190.231 17.7761C190.539 18.6191 190.915 19.4351 191.357 20.216C191.774 20.929 192.314 21.5617 192.952 22.0845C193.522 22.5581 194.206 22.8709 194.936 22.9908C195.572 23.083 196.221 22.9923 196.808 22.729C197.672 22.3403 198.371 21.6578 198.781 20.802C198.909 20.4765 199.017 20.1437 199.105 19.8053C199.118 19.8973 199.117 19.991 199.099 20.0824C199.067 20.347 199.001 20.6063 198.905 20.8545C198.521 21.7765 197.809 22.5228 196.908 22.949C196.283 23.2487 195.584 23.3608 194.896 23.2719C194.112 23.1577 193.372 22.8331 192.756 22.3323C192.081 21.792 191.509 21.1333 191.068 20.3881C190.613 19.593 190.226 18.7605 189.911 17.8997C189.254 16.1607 188.618 14.4936 187.526 13.3314C186.482 12.1626 185.033 11.552 183.871 11.8377C183.41 11.9182 182.974 12.1018 182.594 12.3747C182.214 12.6477 181.9 13.0031 181.676 13.4145C181.536 13.733 181.449 14.0717 181.415 14.4178Z" fill="#455A64"/>
<path d="M164.873 27.9811C164.862 27.9811 164.842 27.9001 164.816 27.7399C164.776 27.5069 164.749 27.2717 164.736 27.0356C164.678 26.1638 164.733 25.2881 164.898 24.4302C165.14 23.1519 165.594 21.9233 166.24 20.7949C167.036 19.4073 168.12 18.2083 169.42 17.2799C170.726 16.3684 172.188 15.7074 173.734 15.3303C174.987 15.0033 176.283 14.8705 177.577 14.9363C178.447 14.972 179.309 15.1285 180.137 15.4014C180.362 15.4734 180.582 15.5608 180.794 15.6632C180.942 15.7297 181.016 15.7709 181.012 15.7815C179.894 15.431 178.736 15.2282 177.567 15.1781C176.3 15.1485 175.036 15.3027 173.813 15.636C172.312 16.022 170.892 16.6747 169.62 17.5629C168.36 18.4643 167.303 19.6205 166.517 20.957C165.875 22.0504 165.41 23.2391 165.14 24.4787C164.923 25.6328 164.833 26.8074 164.873 27.9811Z" fill="#455A64"/>
<path d="M170.404 27.3884C170.362 27.1629 170.354 26.9325 170.38 26.7046C170.409 26.0822 170.494 25.4636 170.635 24.8567C171.099 22.8341 172.081 20.9679 173.484 19.4427C174.897 17.9259 176.679 16.8038 178.655 16.1868C179.248 15.999 179.857 15.8655 180.473 15.7881C180.698 15.7443 180.927 15.7347 181.154 15.7595C181.164 15.826 180.193 15.9044 178.732 16.416C176.83 17.0833 175.117 18.2001 173.736 19.6719C172.375 21.1608 171.392 22.9575 170.872 24.9092C170.473 26.4156 170.469 27.3937 170.404 27.3884Z" fill="#455A64"/>
<path d="M168.89 79.2646C166.974 73.3721 162.286 67.3707 157.134 69.5362C151.402 71.9462 149.808 74.9994 146.667 79.7318C143.525 84.4641 141.598 89.8795 139.702 95.2345C138.96 97.3289 138.244 99.7582 139.381 101.667C140.363 103.312 142.383 103.963 144.233 104.457C149.008 105.731 153.826 106.821 158.688 107.728C160.637 108.091 162.774 108.396 164.498 107.415C166.684 106.17 167.353 103.382 167.81 100.904L172.61 74.822" fill="#E8505B"/>
<path d="M163.376 66.7094L155.835 69.9706C152.023 72.9806 150.945 78.1363 151.075 82.9942L147.939 136.243C147.939 136.243 169.935 149.879 195.641 135.619C196.311 135.248 191.338 123.069 191.338 123.069L198.339 96.4789C198.878 92.6555 199.208 84.7291 198.213 80.9669C195.661 71.3155 188.837 68.429 181.827 66.4961C181.827 66.4961 174.815 72.3959 167.975 71.1527C167.975 71.1527 163.802 70.764 163.376 66.7094Z" fill="#E8505B"/>
<g opacity="0.2">
<g opacity="0.2">
<g opacity="0.2">
<path opacity="0.2" d="M153.248 111.042L166.3 130.012C168.001 132.484 169.769 135.023 172.294 136.64C174.152 137.792 176.299 138.391 178.483 138.368C180.668 138.345 182.801 137.702 184.636 136.513C186.433 135.267 187.841 133.536 188.697 131.52C189.553 129.505 189.822 127.287 189.473 125.125C189.418 124.607 189.217 124.115 188.893 123.709C188.595 123.442 188.23 123.261 187.838 123.186C187.445 123.111 187.039 123.144 186.664 123.281C185.919 123.565 185.204 123.924 184.53 124.351C180.433 126.533 175.228 125.36 171.383 122.756C167.539 120.152 164.721 116.332 161.776 112.736C160.687 111.407 159.498 110.043 157.888 109.45C156.277 108.856 154.139 109.341 153.457 110.92" fill="black"/>
</g>
</g>
</g>
<path d="M175.229 84.953C177.718 84.953 179.735 82.9348 179.735 80.4453C179.735 77.9557 177.718 75.9375 175.229 75.9375C172.741 75.9375 170.724 77.9557 170.724 80.4453C170.724 82.9348 172.741 84.953 175.229 84.953Z" fill="white"/>
<path d="M154.228 76.5989C154.229 77.7958 154.705 78.943 155.549 79.7884C156.394 80.6337 157.539 81.1079 158.733 81.1066C159.324 81.1073 159.909 80.9913 160.455 80.7651C161.001 80.539 161.498 80.2071 161.916 79.7886C162.334 79.37 162.666 78.8729 162.893 78.3256C163.12 77.7783 163.237 77.1916 163.238 76.5989C163.236 75.4021 162.761 74.2549 161.916 73.4096C161.071 72.5644 159.926 72.0904 158.733 72.0918C157.539 72.0904 156.394 72.5644 155.549 73.4096C154.705 74.2549 154.229 75.4021 154.228 76.5989Z" fill="white"/>
<path d="M150.592 119.76C150.593 120.957 151.069 122.104 151.914 122.949C152.759 123.794 153.904 124.268 155.097 124.267C156.29 124.268 157.435 123.794 158.28 122.949C159.125 122.104 159.6 120.957 159.602 119.76C159.601 119.167 159.484 118.58 159.258 118.033C159.031 117.486 158.699 116.989 158.28 116.57C157.862 116.151 157.366 115.82 156.819 115.593C156.273 115.367 155.688 115.251 155.097 115.252C154.506 115.251 153.921 115.367 153.375 115.593C152.828 115.82 152.332 116.151 151.914 116.57C151.495 116.989 151.163 117.486 150.936 118.033C150.71 118.58 150.592 119.167 150.592 119.76Z" fill="white"/>
<path d="M163.24 137.246C165.729 137.246 167.746 135.228 167.746 132.738C167.746 130.249 165.729 128.23 163.24 128.23C160.752 128.23 158.734 130.249 158.734 132.738C158.734 135.228 160.752 137.246 163.24 137.246Z" fill="white"/>
<path d="M184.242 138.338C186.731 138.338 188.748 136.32 188.748 133.83C188.748 131.34 186.731 129.322 184.242 129.322C181.754 129.322 179.736 131.34 179.736 133.83C179.736 136.32 181.754 138.338 184.242 138.338Z" fill="white"/>
<path d="M166.449 110.588C168.938 110.588 170.955 108.57 170.955 106.08C170.955 103.59 168.938 101.572 166.449 101.572C163.961 101.572 161.943 103.59 161.943 106.08C161.943 108.57 163.961 110.588 166.449 110.588Z" fill="white"/>
<path d="M161.942 96.3749C164.431 96.3749 166.448 94.3567 166.448 91.8671C166.448 89.3776 164.431 87.3594 161.942 87.3594C159.454 87.3594 157.437 89.3776 157.437 91.8671C157.437 94.3567 159.454 96.3749 161.942 96.3749Z" fill="white"/>
<path d="M161.943 67.8047C162.544 68.8878 163.329 69.8578 164.262 70.6713C165.295 71.5219 166.481 72.1671 167.756 72.5723C169.314 73.074 170.96 73.242 172.587 73.0653C174.214 72.8585 175.795 72.3785 177.263 71.6454C178.467 71.0486 179.605 70.3278 180.66 69.4945C181.376 68.9343 182.063 68.3381 182.719 67.7084C182.948 67.4633 183.196 67.2363 183.459 67.0293C183.271 67.3087 183.055 67.5681 182.814 67.8034C182.19 68.4753 181.521 69.1042 180.813 69.6858C179.763 70.5592 178.62 71.3123 177.404 71.9311C175.909 72.6982 174.293 73.1983 172.627 73.4089C170.951 73.592 169.257 73.4107 167.658 72.8773C166.352 72.4468 165.144 71.7609 164.104 70.8593C163.404 70.2542 162.812 69.5335 162.355 68.7283C162.228 68.5119 162.117 68.2865 162.024 68.0539C161.961 67.8944 161.932 67.8094 161.943 67.8047Z" fill="#263238"/>
<path d="M184.645 67.4961C189.798 69.6569 195.16 71.9693 198.719 76.2777C202.336 80.6565 203.596 86.6069 203.333 92.2814C203.07 97.956 201.422 103.464 199.788 108.904C199.148 111.03 198.289 113.415 196.244 114.281C194.48 115.027 192.468 114.358 190.679 113.661C186.076 111.865 181.545 109.893 177.088 107.748C175.299 106.888 173.398 105.869 172.588 104.06C171.558 101.761 172.668 99.1175 173.765 96.8503C177.613 88.8922 181.462 80.9343 185.31 72.9766" fill="#E8505B"/>
<path d="M195.639 99.5409C198.127 99.5409 200.144 97.5227 200.144 95.0331C200.144 92.5436 198.127 90.5254 195.639 90.5254C193.15 90.5254 191.133 92.5436 191.133 95.0331C191.133 97.5227 193.15 99.5409 195.639 99.5409Z" fill="white"/>
<path d="M183.706 107.781C186.194 107.781 188.212 105.763 188.212 103.273C188.212 100.784 186.194 98.7656 183.706 98.7656C181.217 98.7656 179.2 100.784 179.2 103.273C179.2 105.763 181.217 107.781 183.706 107.781Z" fill="white"/>
<path d="M184.898 81.1466C184.899 81.7278 185.014 82.3032 185.236 82.8399C185.459 83.3765 185.784 83.864 186.195 84.2745C186.605 84.6849 187.092 85.0103 187.628 85.232C188.163 85.4537 188.737 85.5674 189.317 85.5667C189.896 85.5674 190.47 85.4536 191.006 85.2318C191.541 85.0101 192.028 84.6847 192.438 84.2742C192.849 83.8638 193.174 83.3764 193.397 82.8397C193.619 82.3031 193.734 81.7278 193.734 81.1466C193.734 80.5655 193.619 79.9901 193.397 79.4535C193.174 78.9169 192.849 78.4294 192.438 78.019C192.028 77.6085 191.541 77.2831 191.006 77.0614C190.47 76.8396 189.896 76.7259 189.317 76.7266C188.737 76.7258 188.163 76.8395 187.628 77.0612C187.092 77.2829 186.605 77.6083 186.195 78.0187C185.784 78.4292 185.459 78.9167 185.236 79.4533C185.014 79.99 184.899 80.5654 184.898 81.1466Z" fill="white"/>
<path d="M175.742 107.054L174.593 111.492L151.698 94.755L144.687 84.7614C143.748 83.4236 142.329 82.5021 140.728 82.1899C139.887 82.0252 139.021 82.0335 138.184 82.2145C137.346 82.3954 136.553 82.7451 135.855 83.2424L129.332 87.8844C129.332 87.8844 129.508 91.4061 131.093 90.7031C132.678 90.0001 135.848 88.2366 135.848 88.2366L136.728 96.6932L140.603 99.5119L144.477 102.507L170.328 128.244C171.622 129.531 173.202 130.493 174.938 131.05C176.674 131.608 178.517 131.745 180.316 131.451C182.115 131.157 183.819 130.439 185.289 129.358C186.758 128.276 187.951 126.861 188.771 125.227L192.602 114.319L175.742 107.054Z" fill="#FFBE9D"/>
<path d="M174.016 110.859C174.389 110.956 174.724 111.163 174.978 111.453C175.633 112.108 176.097 112.93 176.317 113.832C176.53 114.717 176.613 115.628 176.565 116.537C176.584 116.913 176.539 117.29 176.432 117.651C176.344 117.287 176.307 116.913 176.322 116.539C176.298 115.657 176.185 114.779 175.984 113.92C175.773 113.073 175.369 112.287 174.803 111.624C174.36 111.123 173.987 110.909 174.016 110.859Z" fill="#EB996E"/>
<path d="M135.808 88.6735C135.771 88.6496 135.881 88.3791 136.151 87.9884C136.502 87.454 137.01 87.0423 137.605 86.8103C137.916 86.7024 138.251 86.6786 138.575 86.7411C138.899 86.8036 139.201 86.9502 139.45 87.1665C139.826 87.5279 139.812 87.8834 139.777 87.8788C139.721 87.898 139.644 87.605 139.295 87.3545C139.065 87.2002 138.804 87.1005 138.531 87.0628C138.257 87.0252 137.979 87.0506 137.716 87.1372C137.183 87.355 136.711 87.6999 136.341 88.1419C136.034 88.4781 135.849 88.702 135.808 88.6735Z" fill="#EB996E"/>
<path d="M139.906 90.9329C139.867 90.9682 139.694 90.81 139.38 90.6346C138.978 90.4063 138.525 90.2842 138.063 90.2798C137.601 90.288 137.148 90.4138 136.748 90.6452C136.435 90.8233 136.263 90.9821 136.224 90.9476C136.185 90.913 136.302 90.6957 136.611 90.4432C137.024 90.116 137.535 89.9366 138.061 89.9336C138.588 89.9325 139.1 90.1079 139.515 90.4319C139.827 90.6818 139.94 90.9064 139.906 90.9329Z" fill="#EB996E"/>
<path d="M175.741 107.054C175.59 107.045 175.441 107.009 175.301 106.948C174.893 106.784 174.536 106.513 174.268 106.162C173.845 105.606 173.584 104.942 173.515 104.246C173.452 103.324 173.619 102.402 174.001 101.561C174.377 100.618 174.941 99.6696 175.421 98.6058C175.933 97.4691 176.371 96.3002 176.732 95.1067C177.516 92.5863 178.082 89.7291 178.874 86.7682C179.548 83.9508 180.677 81.2633 182.218 78.8126C183.512 76.8099 185.333 75.2047 187.479 74.1739C188.92 73.4739 190.514 73.1496 192.114 73.231C192.696 73.2563 193.271 73.366 193.822 73.5566C193.813 73.5992 193.216 73.4058 192.107 73.3659C190.538 73.3373 188.986 73.6905 187.584 74.3952C185.499 75.4347 183.736 77.0232 182.483 78.9907C180.977 81.4208 179.871 84.0778 179.207 86.8599C178.419 89.8029 177.843 92.6667 177.035 95.2024C176.663 96.4053 176.21 97.5819 175.68 98.724C175.18 99.8011 174.607 100.737 174.226 101.652C173.847 102.454 173.668 103.337 173.707 104.224C173.758 104.891 173.989 105.532 174.375 106.078C174.62 106.422 174.948 106.698 175.329 106.881C175.59 107.009 175.747 107.033 175.741 107.054Z" fill="#263238"/>
<path d="M150.333 92.6257C150.407 90.6958 150.597 88.772 150.9 86.8648C151.09 84.9436 151.393 83.0354 151.809 81.1504C151.735 83.0806 151.546 85.0045 151.242 86.912C151.052 88.833 150.749 90.7409 150.333 92.6257Z" fill="#263238"/>
<path d="M140.035 102.493L138.819 112.087L124.232 99.6172L116.253 101.549C116.253 101.549 124.479 118.874 130.977 125.736C137.475 132.598 140.981 133.577 143.433 133.681C146.804 133.829 148.345 129.712 148.345 129.712L149.813 105.864L140.035 102.493Z" fill="#FFBE9D"/>
<path d="M138.875 111.832C139.376 112.551 139.726 113.365 139.903 114.224C140.19 115.052 140.306 115.93 140.244 116.805C139.968 115.99 139.743 115.159 139.571 114.316C139.287 113.504 139.055 112.674 138.875 111.832Z" fill="#EB996E"/>
<path d="M122.822 75.2988H111.84C110.179 75.2988 108.696 77.2304 109.293 78.8085L120.336 100.381C120.546 100.791 120.865 101.136 121.257 101.376C121.65 101.616 122.101 101.743 122.561 101.743L135.948 101.715C136.261 101.679 136.561 101.566 136.82 101.386C137.079 101.206 137.29 100.965 137.434 100.684C137.578 100.403 137.651 100.091 137.646 99.7745C137.641 99.4585 137.559 99.1486 137.406 98.8722L126.751 77.7527C126.391 77.016 125.831 76.3955 125.137 75.9617C124.442 75.5279 123.64 75.2982 122.822 75.2988Z" fill="#455A64"/>
<path d="M122.081 76.5977H111.099C110.785 76.5971 110.475 76.6776 110.2 76.8315C109.925 76.9854 109.695 77.2076 109.53 77.4766C109.365 77.7457 109.273 78.0527 109.26 78.3682C109.248 78.6836 109.317 78.997 109.46 79.2781L120.24 100.382C120.45 100.792 120.769 101.136 121.161 101.376C121.554 101.617 122.005 101.743 122.464 101.743H135.699C135.883 101.744 136.065 101.696 136.227 101.606C136.388 101.516 136.524 101.386 136.621 101.229C136.718 101.071 136.773 100.891 136.781 100.706C136.789 100.521 136.749 100.337 136.666 100.172L126.011 79.0516C125.65 78.3149 125.09 77.6944 124.396 77.2607C123.701 76.8269 122.899 76.5972 122.081 76.5977Z" fill="#263238"/>
<path d="M121.149 85.4316L114.467 88.1094L113.034 93.5102L116.253 101.55L128.063 103.273L124.603 99.7283L125.048 96.6412C125.048 96.6412 128.343 95.6053 128.427 95.0996C128.511 94.594 128.018 92.8983 127.513 92.8172C127.007 92.7361 123.552 94.0259 123.552 94.0259C123.552 94.0259 127.642 90.7786 127.527 90.2563C127.413 89.7341 126.974 88.4011 126.157 88.253C125.341 88.1048 118.742 91.2245 118.742 91.2245L117.67 93.675L116.735 89.7547C116.735 89.7547 122.598 88.1061 121.149 85.4316Z" fill="#FFBE9D"/>
<path d="M121.988 98.0944C121.948 98.1063 121.824 97.8618 121.761 97.4299C121.691 96.8582 121.759 96.2779 121.96 95.7382C122.157 95.1971 122.482 94.7116 122.906 94.3229C123.237 94.0332 123.489 93.9288 123.511 93.9634C123.009 94.5298 122.596 95.1686 122.283 95.8584C122.073 96.5845 121.973 97.3384 121.988 98.0944Z" fill="#EB996E"/>
<path d="M118.813 96.9236C118.937 96.3441 119.026 95.7576 119.078 95.1674C119.106 94.5072 119.219 93.8534 119.415 93.2225C119.544 92.8365 119.754 92.4826 120.031 92.1846C120.341 91.8795 120.713 91.6445 121.122 91.4955C122.72 90.9141 124.159 90.4437 125.213 90.1001C125.77 89.8861 126.347 89.7263 126.935 89.623C126.411 89.9122 125.86 90.1492 125.29 90.3307C124.264 90.7294 122.816 91.2437 121.249 91.8138C120.885 91.9452 120.551 92.1508 120.27 92.4178C120.023 92.6804 119.833 92.9912 119.711 93.3308C119.511 93.9343 119.38 94.5584 119.319 95.1913C119.301 95.8026 119.127 96.399 118.813 96.9236Z" fill="#EB996E"/>
<path d="M117.279 95.7134C117.185 95.6982 117.205 95.1061 117.322 94.3918C117.439 93.6775 117.611 93.1114 117.705 93.1293C117.8 93.1473 117.78 93.7367 117.662 94.451C117.544 95.1653 117.374 95.7287 117.279 95.7134Z" fill="#EB996E"/>
<path d="M117.101 80.667C117.101 81.0392 117.248 81.396 117.511 81.6592C117.773 81.9223 118.129 82.0702 118.5 82.0704C118.871 82.0702 119.227 81.9223 119.489 81.6592C119.751 81.396 119.899 81.0392 119.899 80.667C119.899 80.2949 119.751 79.9381 119.489 79.6749C119.227 79.4118 118.871 79.2638 118.5 79.2637C118.129 79.2638 117.773 79.4118 117.511 79.6749C117.248 79.9381 117.101 80.2949 117.101 80.667Z" fill="#FAFAFA"/>
<path d="M144.477 102.506C144.625 102.598 144.762 102.707 144.885 102.831L145.98 103.814L149.836 107.388L149.887 107.436L149.881 107.509C149.707 109.747 149.503 112.378 149.285 115.192C148.982 119.312 148.746 123.047 148.615 125.751C148.556 127.06 148.507 128.143 148.471 128.954C148.475 129.347 148.449 129.739 148.392 130.128C148.344 129.738 148.325 129.345 148.336 128.952C148.326 128.194 148.332 127.096 148.371 125.741C148.44 123.031 148.636 119.291 148.941 115.167C149.148 112.341 149.373 109.703 149.587 107.483L149.633 107.604L145.863 103.939L144.824 102.897C144.693 102.78 144.577 102.649 144.477 102.506Z" fill="#EB996E"/>
</g>
<path d="M37.9419 238.316H39.1249V234.234H42.3229V233.272H39.1249V230.217H43.0639V229.255H37.9419V238.316ZM45.6757 234.442C45.6757 232.791 46.5337 232.284 47.6647 232.284H47.9767V231.062C46.8457 231.062 46.0787 231.556 45.6757 232.349V231.192H44.4927V238.316H45.6757V234.442ZM49.3423 238.316H50.5253V231.192H49.3423V238.316ZM49.9533 230.035C50.3823 230.035 50.7333 229.684 50.7333 229.229C50.7333 228.774 50.3823 228.423 49.9533 228.423C49.4983 228.423 49.1473 228.774 49.1473 229.229C49.1473 229.684 49.4983 230.035 49.9533 230.035ZM55.5705 232.076C56.7925 232.076 57.8325 232.843 57.8195 234.234H53.3215C53.4515 232.843 54.4135 232.076 55.5705 232.076ZM58.8985 236.119H57.6245C57.3645 236.886 56.6885 237.432 55.6225 237.432C54.4135 237.432 53.3995 236.639 53.3085 235.196H59.0025C59.0285 234.949 59.0415 234.741 59.0415 234.481C59.0415 232.531 57.6895 231.075 55.6225 231.075C53.5425 231.075 52.0995 232.492 52.0995 234.741C52.0995 237.003 53.5945 238.433 55.6225 238.433C57.3905 238.433 58.5345 237.419 58.8985 236.119ZM65.8161 238.316H66.9861V234.117C66.9861 232.076 65.7251 231.062 64.0741 231.062C63.1121 231.062 62.2541 231.465 61.7861 232.206V231.192H60.6031V238.316H61.7861V234.377C61.7861 232.843 62.6181 232.089 63.8271 232.089C65.0231 232.089 65.8161 232.83 65.8161 234.286V238.316ZM68.4765 234.728C68.4765 236.938 69.9455 238.433 71.8565 238.433C73.1565 238.433 74.0795 237.77 74.5085 236.977V238.316H75.7045V228.696H74.5085V232.466C74.0145 231.647 72.9875 231.075 71.8695 231.075C69.9455 231.075 68.4765 232.505 68.4765 234.728ZM74.5085 234.741C74.5085 236.418 73.3905 237.393 72.0905 237.393C70.7905 237.393 69.6855 236.405 69.6855 234.728C69.6855 233.051 70.7905 232.102 72.0905 232.102C73.3905 232.102 74.5085 233.09 74.5085 234.741ZM82.8256 236.379C82.7736 233.831 78.6396 234.754 78.6396 233.064C78.6396 232.492 79.1596 232.076 80.0306 232.076C80.9796 232.076 81.5256 232.596 81.5776 233.311H82.7606C82.6826 231.92 81.6426 231.075 80.0696 231.075C78.4836 231.075 77.4566 231.972 77.4566 233.064C77.4566 235.716 81.6686 234.793 81.6686 236.379C81.6686 236.964 81.1486 237.432 80.2126 237.432C79.2116 237.432 78.6006 236.912 78.5356 236.223H77.3136C77.3916 237.523 78.5616 238.433 80.2256 238.433C81.7986 238.433 82.8256 237.549 82.8256 236.379ZM89.3524 238.316H90.5744L92.2904 232.661L94.0064 238.316H95.2284L97.4514 231.192H96.2814L94.6694 237.185L92.9404 231.192H91.7314L89.9634 237.172L88.3254 231.192H87.1164L89.3524 238.316ZM98.1835 234.728C98.1835 236.938 99.6525 238.433 101.551 238.433C102.864 238.433 103.787 237.757 104.216 236.99V238.316H105.412V231.192H104.216V232.492C103.8 231.751 102.89 231.075 101.564 231.075C99.6525 231.075 98.1835 232.505 98.1835 234.728ZM104.216 234.741C104.216 236.418 103.098 237.393 101.798 237.393C100.498 237.393 99.3925 236.405 99.3925 234.728C99.3925 233.051 100.498 232.102 101.798 232.102C103.098 232.102 104.216 233.09 104.216 234.741ZM112.624 238.316H113.794V234.117C113.794 232.076 112.533 231.062 110.882 231.062C109.92 231.062 109.062 231.465 108.594 232.206V231.192H107.411V238.316H108.594V234.377C108.594 232.843 109.426 232.089 110.635 232.089C111.831 232.089 112.624 232.83 112.624 234.286V238.316ZM115.986 236.366C115.986 237.796 116.701 238.316 117.962 238.316H119.028V237.315H118.157C117.429 237.315 117.169 237.068 117.169 236.366V232.167H119.028V231.192H117.169V229.398H115.986V231.192H115.063V232.167H115.986V236.366ZM124.187 236.366C124.187 237.796 124.902 238.316 126.163 238.316H127.229V237.315H126.358C125.63 237.315 125.37 237.068 125.37 236.366V232.167H127.229V231.192H125.37V229.398H124.187V231.192H123.264V232.167H124.187V236.366ZM129.846 234.442C129.846 232.791 130.704 232.284 131.835 232.284H132.147V231.062C131.016 231.062 130.249 231.556 129.846 232.349V231.192H128.663V238.316H129.846V234.442ZM133.07 234.728C133.07 236.938 134.539 238.433 136.437 238.433C137.75 238.433 138.673 237.757 139.102 236.99V238.316H140.298V231.192H139.102V232.492C138.686 231.751 137.776 231.075 136.45 231.075C134.539 231.075 133.07 232.505 133.07 234.728ZM139.102 234.741C139.102 236.418 137.984 237.393 136.684 237.393C135.384 237.393 134.279 236.405 134.279 234.728C134.279 233.051 135.384 232.102 136.684 232.102C137.984 232.102 139.102 233.09 139.102 234.741ZM147.51 238.316H148.68V234.117C148.68 232.076 147.419 231.062 145.768 231.062C144.806 231.062 143.948 231.465 143.48 232.206V231.192H142.297V238.316H143.48V234.377C143.48 232.843 144.312 232.089 145.521 232.089C146.717 232.089 147.51 232.83 147.51 234.286V238.316ZM155.735 236.379C155.683 233.831 151.549 234.754 151.549 233.064C151.549 232.492 152.069 232.076 152.94 232.076C153.889 232.076 154.435 232.596 154.487 233.311H155.67C155.592 231.92 154.552 231.075 152.979 231.075C151.393 231.075 150.366 231.972 150.366 233.064C150.366 235.716 154.578 234.793 154.578 236.379C154.578 236.964 154.058 237.432 153.122 237.432C152.121 237.432 151.51 236.912 151.445 236.223H150.223C150.301 237.523 151.471 238.433 153.135 238.433C154.708 238.433 155.735 237.549 155.735 236.379ZM157.626 238.316H158.809V232.167H160.304V231.192H158.809V230.685C158.809 229.762 159.16 229.372 160.226 229.372V228.384C158.406 228.384 157.626 229.099 157.626 230.685V231.192H156.703V232.167H157.626V238.316ZM164.712 232.076C165.934 232.076 166.974 232.843 166.961 234.234H162.463C162.593 232.843 163.555 232.076 164.712 232.076ZM168.04 236.119H166.766C166.506 236.886 165.83 237.432 164.764 237.432C163.555 237.432 162.541 236.639 162.45 235.196H168.144C168.17 234.949 168.183 234.741 168.183 234.481C168.183 232.531 166.831 231.075 164.764 231.075C162.684 231.075 161.241 232.492 161.241 234.741C161.241 237.003 162.736 238.433 164.764 238.433C166.532 238.433 167.676 237.419 168.04 236.119ZM170.928 234.442C170.928 232.791 171.786 232.284 172.917 232.284H173.229V231.062C172.098 231.062 171.331 231.556 170.928 232.349V231.192H169.745V238.316H170.928V234.442ZM46.7903 258.316H47.9603V254.117C47.9603 252.076 46.6993 251.062 45.0743 251.062C43.9823 251.062 42.9683 251.621 42.5523 252.648C42.0843 251.582 41.1093 251.062 39.9393 251.062C39.0033 251.062 38.1583 251.465 37.6903 252.219V251.192H36.5073V258.316H37.6903V254.39C37.6903 252.856 38.5093 252.089 39.7053 252.089C40.8753 252.089 41.6553 252.83 41.6553 254.286V258.316H42.8253V254.39C42.8253 252.856 43.6443 252.089 44.8403 252.089C46.0103 252.089 46.7903 252.83 46.7903 254.286V258.316ZM56.6609 254.741C56.6609 252.492 55.0879 251.075 53.0599 251.075C51.0449 251.075 49.4589 252.492 49.4589 254.741C49.4589 257.003 50.9929 258.433 53.0079 258.433C55.0359 258.433 56.6609 257.003 56.6609 254.741ZM50.6679 254.741C50.6679 252.947 51.7989 252.102 53.0469 252.102C54.2689 252.102 55.4519 252.947 55.4519 254.741C55.4519 256.548 54.2429 257.393 53.0079 257.393C51.7729 257.393 50.6679 256.548 50.6679 254.741ZM63.4293 258.316H64.5993V254.117C64.5993 252.076 63.3383 251.062 61.6873 251.062C60.7253 251.062 59.8673 251.465 59.3993 252.206V251.192H58.2163V258.316H59.3993V254.377C59.3993 252.843 60.2313 252.089 61.4403 252.089C62.6363 252.089 63.4293 252.83 63.4293 254.286V258.316ZM69.5608 252.076C70.7828 252.076 71.8228 252.843 71.8098 254.234H67.3118C67.4418 252.843 68.4038 252.076 69.5608 252.076ZM72.8888 256.119H71.6148C71.3548 256.886 70.6788 257.432 69.6128 257.432C68.4038 257.432 67.3898 256.639 67.2988 255.196H72.9928C73.0188 254.949 73.0318 254.741 73.0318 254.481C73.0318 252.531 71.6798 251.075 69.6128 251.075C67.5328 251.075 66.0898 252.492 66.0898 254.741C66.0898 257.003 67.5848 258.433 69.6128 258.433C71.3808 258.433 72.5248 257.419 72.8888 256.119ZM77.2973 256.964L75.0613 251.192H73.7483L76.6213 258.238L75.2173 261.67H76.4393L80.7293 251.192H79.5073L77.2973 256.964ZM85.6443 256.366C85.6443 257.796 86.3593 258.316 87.6203 258.316H88.6863V257.315H87.8153C87.0873 257.315 86.8273 257.068 86.8273 256.366V252.167H88.6863V251.192H86.8273V249.398H85.6443V251.192H84.7213V252.167H85.6443V256.366ZM96.8797 254.741C96.8797 252.492 95.3067 251.075 93.2787 251.075C91.2637 251.075 89.6777 252.492 89.6777 254.741C89.6777 257.003 91.2117 258.433 93.2267 258.433C95.2547 258.433 96.8797 257.003 96.8797 254.741ZM90.8867 254.741C90.8867 252.947 92.0177 252.102 93.2657 252.102C94.4877 252.102 95.6707 252.947 95.6707 254.741C95.6707 256.548 94.4617 257.393 93.2267 257.393C91.9917 257.393 90.8867 256.548 90.8867 254.741ZM104.93 252.076C106.152 252.076 107.192 252.843 107.179 254.234H102.681C102.811 252.843 103.773 252.076 104.93 252.076ZM108.258 256.119H106.984C106.724 256.886 106.048 257.432 104.982 257.432C103.773 257.432 102.759 256.639 102.668 255.196H108.362C108.388 254.949 108.401 254.741 108.401 254.481C108.401 252.531 107.049 251.075 104.982 251.075C102.902 251.075 101.459 252.492 101.459 254.741C101.459 257.003 102.954 258.433 104.982 258.433C106.75 258.433 107.894 257.419 108.258 256.119ZM109.52 254.728C109.52 256.938 110.989 258.433 112.887 258.433C114.2 258.433 115.123 257.757 115.552 256.99V258.316H116.748V251.192H115.552V252.492C115.136 251.751 114.226 251.075 112.9 251.075C110.989 251.075 109.52 252.505 109.52 254.728ZM115.552 254.741C115.552 256.418 114.434 257.393 113.134 257.393C111.834 257.393 110.729 256.405 110.729 254.728C110.729 253.051 111.834 252.102 113.134 252.102C114.434 252.102 115.552 253.09 115.552 254.741ZM118.306 254.741C118.306 257.003 119.749 258.433 121.777 258.433C123.545 258.433 124.702 257.445 125.066 256.028H123.792C123.532 256.925 122.83 257.432 121.777 257.432C120.477 257.432 119.515 256.509 119.515 254.741C119.515 252.999 120.477 252.076 121.777 252.076C122.83 252.076 123.545 252.622 123.792 253.48H125.066C124.702 251.985 123.545 251.075 121.777 251.075C119.749 251.075 118.306 252.505 118.306 254.741ZM126.644 258.316H127.827V254.377C127.827 252.843 128.659 252.089 129.868 252.089C131.064 252.089 131.857 252.83 131.857 254.286V258.316H133.027V254.117C133.027 252.076 131.766 251.062 130.18 251.062C129.179 251.062 128.295 251.465 127.827 252.219V248.696H126.644V258.316ZM145.185 254.741C145.185 252.492 143.612 251.075 141.584 251.075C139.569 251.075 137.983 252.492 137.983 254.741C137.983 257.003 139.517 258.433 141.532 258.433C143.56 258.433 145.185 257.003 145.185 254.741ZM139.192 254.741C139.192 252.947 140.323 252.102 141.571 252.102C142.793 252.102 143.976 252.947 143.976 254.741C143.976 256.548 142.767 257.393 141.532 257.393C140.297 257.393 139.192 256.548 139.192 254.741ZM147.001 256.366C147.001 257.796 147.716 258.316 148.977 258.316H150.043V257.315H149.172C148.444 257.315 148.184 257.068 148.184 256.366V252.167H150.043V251.192H148.184V249.398H147.001V251.192H146.078V252.167H147.001V256.366ZM151.476 258.316H152.659V254.377C152.659 252.843 153.491 252.089 154.7 252.089C155.896 252.089 156.689 252.83 156.689 254.286V258.316H157.859V254.117C157.859 252.076 156.598 251.062 155.012 251.062C154.011 251.062 153.127 251.465 152.659 252.219V248.696H151.476V258.316ZM162.821 252.076C164.043 252.076 165.083 252.843 165.07 254.234H160.572C160.702 252.843 161.664 252.076 162.821 252.076ZM166.149 256.119H164.875C164.615 256.886 163.939 257.432 162.873 257.432C161.664 257.432 160.65 256.639 160.559 255.196H166.253C166.279 254.949 166.292 254.741 166.292 254.481C166.292 252.531 164.94 251.075 162.873 251.075C160.793 251.075 159.35 252.492 159.35 254.741C159.35 257.003 160.845 258.433 162.873 258.433C164.641 258.433 165.785 257.419 166.149 256.119ZM169.036 254.442C169.036 252.791 169.894 252.284 171.025 252.284H171.337V251.062C170.206 251.062 169.439 251.556 169.036 252.349V251.192H167.853V258.316H169.036V254.442ZM177.825 256.379C177.773 253.831 173.639 254.754 173.639 253.064C173.639 252.492 174.159 252.076 175.03 252.076C175.979 252.076 176.525 252.596 176.577 253.311H177.76C177.682 251.92 176.642 251.075 175.069 251.075C173.483 251.075 172.456 251.972 172.456 253.064C172.456 255.716 176.668 254.793 176.668 256.379C176.668 256.964 176.148 257.432 175.212 257.432C174.211 257.432 173.6 256.912 173.535 256.223H172.313C172.391 257.523 173.561 258.433 175.225 258.433C176.798 258.433 177.825 257.549 177.825 256.379Z" fill="#494B52"/>
<defs>
<clipPath id="clip0">
<rect width="213.043" height="194.783" fill="white" transform="translate(0 0.621094)"/>
</clipPath>
</defs>
</svg>
