<svg width="557" height="75" viewBox="0 0 557 75" fill="none" xmlns="http://www.w3.org/2000/svg">
<path d="M66.208 37.3984H63.5361V42H62.0283V30.625H65.7939C67.0752 30.625 68.0596 30.9167 68.7471 31.5C69.4398 32.0833 69.7861 32.9323 69.7861 34.0469C69.7861 34.7552 69.5934 35.3724 69.208 35.8984C68.8278 36.4245 68.2965 36.8177 67.6143 37.0781L70.2861 41.9062V42H68.6768L66.208 37.3984ZM63.5361 36.1719H65.8408C66.5856 36.1719 67.1768 35.9792 67.6143 35.5938C68.057 35.2083 68.2783 34.6927 68.2783 34.0469C68.2783 33.3438 68.0674 32.8047 67.6455 32.4297C67.2288 32.0547 66.6247 31.8646 65.833 31.8594H63.5361V36.1719ZM75.1768 42.1562C74.0309 42.1562 73.0986 41.7812 72.3799 41.0312C71.6611 40.276 71.3018 39.2682 71.3018 38.0078V37.7422C71.3018 36.9036 71.4606 36.1562 71.7783 35.5C72.1012 34.8385 72.5492 34.3229 73.1221 33.9531C73.7002 33.5781 74.3252 33.3906 74.9971 33.3906C76.096 33.3906 76.9502 33.7526 77.5596 34.4766C78.1689 35.2005 78.4736 36.237 78.4736 37.5859V38.1875H72.7471C72.7679 39.0208 73.0101 39.6953 73.4736 40.2109C73.9424 40.7214 74.5361 40.9766 75.2549 40.9766C75.7653 40.9766 76.1976 40.8724 76.5518 40.6641C76.9059 40.4557 77.2158 40.1797 77.4814 39.8359L78.3643 40.5234C77.6559 41.612 76.5934 42.1562 75.1768 42.1562ZM74.9971 34.5781C74.4137 34.5781 73.9242 34.7917 73.5283 35.2188C73.1325 35.6406 72.8877 36.2344 72.7939 37H77.0283V36.8906C76.9867 36.1562 76.7887 35.5885 76.4346 35.1875C76.0804 34.7812 75.6012 34.5781 74.9971 34.5781ZM79.8018 37.7031C79.8018 36.375 80.1064 35.3255 80.7158 34.5547C81.3252 33.7786 82.1429 33.3906 83.1689 33.3906C84.1689 33.3906 84.958 33.7266 85.5361 34.3984L85.5986 33.5469H86.9268V45.25H85.4814V41.2188C84.8981 41.8438 84.1221 42.1562 83.1533 42.1562C82.1325 42.1562 81.3174 41.7604 80.708 40.9688C80.1038 40.1719 79.8018 39.1172 79.8018 37.8047V37.7031ZM81.2471 37.8672C81.2471 38.8359 81.4502 39.5964 81.8564 40.1484C82.2679 40.7005 82.82 40.9766 83.5127 40.9766C84.3721 40.9766 85.0283 40.5964 85.4814 39.8359V35.6953C85.0231 34.9505 84.3721 34.5781 83.5283 34.5781C82.8304 34.5781 82.2757 34.8568 81.8643 35.4141C81.4528 35.9661 81.2471 36.7839 81.2471 37.8672ZM94.4658 41.1641C93.9033 41.8255 93.0778 42.1562 91.9893 42.1562C91.0882 42.1562 90.4007 41.8958 89.9268 41.375C89.458 40.849 89.221 40.0729 89.2158 39.0469V33.5469H90.6611V39.0078C90.6611 40.2891 91.182 40.9297 92.2236 40.9297C93.3278 40.9297 94.0622 40.5182 94.4268 39.6953V33.5469H95.8721V42H94.4971L94.4658 41.1641ZM101.583 42.1562C100.437 42.1562 99.5049 41.7812 98.7861 41.0312C98.0674 40.276 97.708 39.2682 97.708 38.0078V37.7422C97.708 36.9036 97.8669 36.1562 98.1846 35.5C98.5075 34.8385 98.9554 34.3229 99.5283 33.9531C100.106 33.5781 100.731 33.3906 101.403 33.3906C102.502 33.3906 103.356 33.7526 103.966 34.4766C104.575 35.2005 104.88 36.237 104.88 37.5859V38.1875H99.1533C99.1742 39.0208 99.4163 39.6953 99.8799 40.2109C100.349 40.7214 100.942 40.9766 101.661 40.9766C102.172 40.9766 102.604 40.8724 102.958 40.6641C103.312 40.4557 103.622 40.1797 103.888 39.8359L104.771 40.5234C104.062 41.612 103 42.1562 101.583 42.1562ZM101.403 34.5781C100.82 34.5781 100.33 34.7917 99.9346 35.2188C99.5387 35.6406 99.2939 36.2344 99.2002 37H103.435V36.8906C103.393 36.1562 103.195 35.5885 102.841 35.1875C102.487 34.7812 102.007 34.5781 101.403 34.5781ZM111.481 39.7578C111.481 39.3672 111.333 39.0651 111.036 38.8516C110.744 38.6328 110.231 38.4453 109.497 38.2891C108.768 38.1328 108.187 37.9453 107.755 37.7266C107.328 37.5078 107.01 37.2474 106.802 36.9453C106.599 36.6432 106.497 36.2839 106.497 35.8672C106.497 35.1745 106.789 34.5885 107.372 34.1094C107.961 33.6302 108.711 33.3906 109.622 33.3906C110.58 33.3906 111.356 33.638 111.95 34.1328C112.549 34.6276 112.849 35.2604 112.849 36.0312H111.396C111.396 35.6354 111.226 35.2943 110.888 35.0078C110.554 34.7214 110.132 34.5781 109.622 34.5781C109.096 34.5781 108.685 34.6927 108.388 34.9219C108.091 35.151 107.942 35.4505 107.942 35.8203C107.942 36.1693 108.08 36.4323 108.356 36.6094C108.632 36.7865 109.13 36.9557 109.849 37.1172C110.573 37.2786 111.159 37.4714 111.606 37.6953C112.054 37.9193 112.385 38.1901 112.599 38.5078C112.817 38.8203 112.927 39.2031 112.927 39.6562C112.927 40.4115 112.625 41.0182 112.021 41.4766C111.416 41.9297 110.632 42.1562 109.669 42.1562C108.992 42.1562 108.393 42.0365 107.872 41.7969C107.351 41.5573 106.942 41.224 106.646 40.7969C106.354 40.3646 106.208 39.8984 106.208 39.3984H107.653C107.679 39.8828 107.872 40.2682 108.231 40.5547C108.596 40.8359 109.075 40.9766 109.669 40.9766C110.216 40.9766 110.653 40.8672 110.981 40.6484C111.315 40.4245 111.481 40.1276 111.481 39.7578ZM116.771 31.5V33.5469H118.349V34.6641H116.771V39.9062C116.771 40.2448 116.841 40.5 116.981 40.6719C117.122 40.8385 117.362 40.9219 117.7 40.9219C117.867 40.9219 118.096 40.8906 118.388 40.8281V42C118.007 42.1042 117.638 42.1562 117.278 42.1562C116.632 42.1562 116.146 41.9609 115.817 41.5703C115.489 41.1797 115.325 40.625 115.325 39.9062V34.6641H113.786V33.5469H115.325V31.5H116.771ZM125.458 34.5703C126.099 33.7839 126.932 33.3906 127.958 33.3906C129.744 33.3906 130.646 34.3984 130.661 36.4141V42H129.216V36.4062C129.211 35.7969 129.07 35.3464 128.794 35.0547C128.523 34.763 128.099 34.6172 127.521 34.6172C127.052 34.6172 126.64 34.7422 126.286 34.9922C125.932 35.2422 125.656 35.5703 125.458 35.9766V42H124.013V30H125.458V34.5703ZM138.044 42C137.961 41.8333 137.893 41.5365 137.841 41.1094C137.169 41.8073 136.367 42.1562 135.435 42.1562C134.601 42.1562 133.916 41.9219 133.38 41.4531C132.849 40.9792 132.583 40.3802 132.583 39.6562C132.583 38.776 132.916 38.0938 133.583 37.6094C134.255 37.1198 135.198 36.875 136.411 36.875H137.817V36.2109C137.817 35.7057 137.666 35.3047 137.364 35.0078C137.062 34.7057 136.617 34.5547 136.028 34.5547C135.513 34.5547 135.08 34.6849 134.731 34.9453C134.382 35.2057 134.208 35.5208 134.208 35.8906H132.755C132.755 35.4688 132.903 35.0625 133.2 34.6719C133.502 34.276 133.909 33.9635 134.419 33.7344C134.935 33.5052 135.5 33.3906 136.114 33.3906C137.088 33.3906 137.851 33.6354 138.403 34.125C138.955 34.6094 139.242 35.2786 139.263 36.1328V40.0234C139.263 40.7995 139.362 41.4167 139.56 41.875V42H138.044ZM135.646 40.8984C136.099 40.8984 136.528 40.7812 136.935 40.5469C137.341 40.3125 137.635 40.0078 137.817 39.6328V37.8984H136.685C134.914 37.8984 134.028 38.4167 134.028 39.4531C134.028 39.9062 134.179 40.2604 134.481 40.5156C134.784 40.7708 135.172 40.8984 135.646 40.8984ZM146.45 39.7578C146.45 39.3672 146.302 39.0651 146.005 38.8516C145.713 38.6328 145.2 38.4453 144.466 38.2891C143.737 38.1328 143.156 37.9453 142.724 37.7266C142.297 37.5078 141.979 37.2474 141.771 36.9453C141.567 36.6432 141.466 36.2839 141.466 35.8672C141.466 35.1745 141.757 34.5885 142.341 34.1094C142.929 33.6302 143.679 33.3906 144.591 33.3906C145.549 33.3906 146.325 33.638 146.919 34.1328C147.518 34.6276 147.817 35.2604 147.817 36.0312H146.364C146.364 35.6354 146.195 35.2943 145.856 35.0078C145.523 34.7214 145.101 34.5781 144.591 34.5781C144.065 34.5781 143.653 34.6927 143.356 34.9219C143.06 35.151 142.911 35.4505 142.911 35.8203C142.911 36.1693 143.049 36.4323 143.325 36.6094C143.601 36.7865 144.099 36.9557 144.817 37.1172C145.541 37.2786 146.127 37.4714 146.575 37.6953C147.023 37.9193 147.354 38.1901 147.567 38.5078C147.786 38.8203 147.896 39.2031 147.896 39.6562C147.896 40.4115 147.593 41.0182 146.989 41.4766C146.385 41.9297 145.601 42.1562 144.638 42.1562C143.961 42.1562 143.362 42.0365 142.841 41.7969C142.32 41.5573 141.911 41.224 141.614 40.7969C141.323 40.3646 141.177 39.8984 141.177 39.3984H142.622C142.648 39.8828 142.841 40.2682 143.2 40.5547C143.565 40.8359 144.044 40.9766 144.638 40.9766C145.185 40.9766 145.622 40.8672 145.95 40.6484C146.284 40.4245 146.45 40.1276 146.45 39.7578ZM160.903 37.8672C160.903 39.1589 160.606 40.1979 160.013 40.9844C159.419 41.7656 158.622 42.1562 157.622 42.1562C156.554 42.1562 155.729 41.7786 155.146 41.0234L155.075 42H153.747V30H155.192V34.4766C155.776 33.7526 156.58 33.3906 157.606 33.3906C158.632 33.3906 159.437 33.7786 160.021 34.5547C160.609 35.3307 160.903 36.3932 160.903 37.7422V37.8672ZM159.458 37.7031C159.458 36.7188 159.268 35.9583 158.888 35.4219C158.507 34.8854 157.961 34.6172 157.247 34.6172C156.294 34.6172 155.609 35.0599 155.192 35.9453V39.6016C155.635 40.487 156.325 40.9297 157.263 40.9297C157.955 40.9297 158.494 40.6615 158.88 40.125C159.265 39.5885 159.458 38.7812 159.458 37.7031ZM166.239 42.1562C165.093 42.1562 164.161 41.7812 163.442 41.0312C162.724 40.276 162.364 39.2682 162.364 38.0078V37.7422C162.364 36.9036 162.523 36.1562 162.841 35.5C163.164 34.8385 163.612 34.3229 164.185 33.9531C164.763 33.5781 165.388 33.3906 166.06 33.3906C167.159 33.3906 168.013 33.7526 168.622 34.4766C169.231 35.2005 169.536 36.237 169.536 37.5859V38.1875H163.81C163.83 39.0208 164.073 39.6953 164.536 40.2109C165.005 40.7214 165.599 40.9766 166.317 40.9766C166.828 40.9766 167.26 40.8724 167.614 40.6641C167.968 40.4557 168.278 40.1797 168.544 39.8359L169.427 40.5234C168.718 41.612 167.656 42.1562 166.239 42.1562ZM166.06 34.5781C165.476 34.5781 164.987 34.7917 164.591 35.2188C164.195 35.6406 163.95 36.2344 163.856 37H168.091V36.8906C168.049 36.1562 167.851 35.5885 167.497 35.1875C167.143 34.7812 166.664 34.5781 166.06 34.5781ZM174.724 42.1562C173.578 42.1562 172.646 41.7812 171.927 41.0312C171.208 40.276 170.849 39.2682 170.849 38.0078V37.7422C170.849 36.9036 171.007 36.1562 171.325 35.5C171.648 34.8385 172.096 34.3229 172.669 33.9531C173.247 33.5781 173.872 33.3906 174.544 33.3906C175.643 33.3906 176.497 33.7526 177.106 34.4766C177.716 35.2005 178.021 36.237 178.021 37.5859V38.1875H172.294C172.315 39.0208 172.557 39.6953 173.021 40.2109C173.489 40.7214 174.083 40.9766 174.802 40.9766C175.312 40.9766 175.744 40.8724 176.099 40.6641C176.453 40.4557 176.763 40.1797 177.028 39.8359L177.911 40.5234C177.203 41.612 176.14 42.1562 174.724 42.1562ZM174.544 34.5781C173.961 34.5781 173.471 34.7917 173.075 35.2188C172.679 35.6406 172.435 36.2344 172.341 37H176.575V36.8906C176.534 36.1562 176.336 35.5885 175.981 35.1875C175.627 34.7812 175.148 34.5781 174.544 34.5781ZM181.067 33.5469L181.114 34.6094C181.76 33.7969 182.604 33.3906 183.646 33.3906C185.432 33.3906 186.333 34.3984 186.349 36.4141V42H184.903V36.4062C184.898 35.7969 184.757 35.3464 184.481 35.0547C184.211 34.763 183.786 34.6172 183.208 34.6172C182.739 34.6172 182.328 34.7422 181.974 34.9922C181.619 35.2422 181.343 35.5703 181.146 35.9766V42H179.7V33.5469H181.067ZM197.419 39.7578C197.419 39.3672 197.271 39.0651 196.974 38.8516C196.682 38.6328 196.169 38.4453 195.435 38.2891C194.705 38.1328 194.125 37.9453 193.692 37.7266C193.265 37.5078 192.948 37.2474 192.739 36.9453C192.536 36.6432 192.435 36.2839 192.435 35.8672C192.435 35.1745 192.726 34.5885 193.31 34.1094C193.898 33.6302 194.648 33.3906 195.56 33.3906C196.518 33.3906 197.294 33.638 197.888 34.1328C198.487 34.6276 198.786 35.2604 198.786 36.0312H197.333C197.333 35.6354 197.164 35.2943 196.825 35.0078C196.492 34.7214 196.07 34.5781 195.56 34.5781C195.034 34.5781 194.622 34.6927 194.325 34.9219C194.028 35.151 193.88 35.4505 193.88 35.8203C193.88 36.1693 194.018 36.4323 194.294 36.6094C194.57 36.7865 195.067 36.9557 195.786 37.1172C196.51 37.2786 197.096 37.4714 197.544 37.6953C197.992 37.9193 198.323 38.1901 198.536 38.5078C198.755 38.8203 198.864 39.2031 198.864 39.6562C198.864 40.4115 198.562 41.0182 197.958 41.4766C197.354 41.9297 196.57 42.1562 195.606 42.1562C194.929 42.1562 194.33 42.0365 193.81 41.7969C193.289 41.5573 192.88 41.224 192.583 40.7969C192.291 40.3646 192.146 39.8984 192.146 39.3984H193.591C193.617 39.8828 193.81 40.2682 194.169 40.5547C194.534 40.8359 195.013 40.9766 195.606 40.9766C196.153 40.9766 196.591 40.8672 196.919 40.6484C197.252 40.4245 197.419 40.1276 197.419 39.7578ZM204.255 42.1562C203.109 42.1562 202.177 41.7812 201.458 41.0312C200.739 40.276 200.38 39.2682 200.38 38.0078V37.7422C200.38 36.9036 200.539 36.1562 200.856 35.5C201.179 34.8385 201.627 34.3229 202.2 33.9531C202.778 33.5781 203.403 33.3906 204.075 33.3906C205.174 33.3906 206.028 33.7526 206.638 34.4766C207.247 35.2005 207.552 36.237 207.552 37.5859V38.1875H201.825C201.846 39.0208 202.088 39.6953 202.552 40.2109C203.021 40.7214 203.614 40.9766 204.333 40.9766C204.843 40.9766 205.276 40.8724 205.63 40.6641C205.984 40.4557 206.294 40.1797 206.56 39.8359L207.442 40.5234C206.734 41.612 205.672 42.1562 204.255 42.1562ZM204.075 34.5781C203.492 34.5781 203.002 34.7917 202.606 35.2188C202.211 35.6406 201.966 36.2344 201.872 37H206.106V36.8906C206.065 36.1562 205.867 35.5885 205.513 35.1875C205.159 34.7812 204.679 34.5781 204.075 34.5781ZM210.599 33.5469L210.646 34.6094C211.291 33.7969 212.135 33.3906 213.177 33.3906C214.963 33.3906 215.864 34.3984 215.88 36.4141V42H214.435V36.4062C214.429 35.7969 214.289 35.3464 214.013 35.0547C213.742 34.763 213.317 34.6172 212.739 34.6172C212.271 34.6172 211.859 34.7422 211.505 34.9922C211.151 35.2422 210.875 35.5703 210.677 35.9766V42H209.231V33.5469H210.599ZM220.021 31.5V33.5469H221.599V34.6641H220.021V39.9062C220.021 40.2448 220.091 40.5 220.231 40.6719C220.372 40.8385 220.612 40.9219 220.95 40.9219C221.117 40.9219 221.346 40.8906 221.638 40.8281V42C221.257 42.1042 220.888 42.1562 220.528 42.1562C219.882 42.1562 219.396 41.9609 219.067 41.5703C218.739 41.1797 218.575 40.625 218.575 39.9062V34.6641H217.036V33.5469H218.575V31.5H220.021ZM232.185 39.7578C232.185 39.3672 232.036 39.0651 231.739 38.8516C231.448 38.6328 230.935 38.4453 230.2 38.2891C229.471 38.1328 228.89 37.9453 228.458 37.7266C228.031 37.5078 227.713 37.2474 227.505 36.9453C227.302 36.6432 227.2 36.2839 227.2 35.8672C227.2 35.1745 227.492 34.5885 228.075 34.1094C228.664 33.6302 229.414 33.3906 230.325 33.3906C231.284 33.3906 232.06 33.638 232.653 34.1328C233.252 34.6276 233.552 35.2604 233.552 36.0312H232.099C232.099 35.6354 231.929 35.2943 231.591 35.0078C231.257 34.7214 230.836 34.5781 230.325 34.5781C229.799 34.5781 229.388 34.6927 229.091 34.9219C228.794 35.151 228.646 35.4505 228.646 35.8203C228.646 36.1693 228.784 36.4323 229.06 36.6094C229.336 36.7865 229.833 36.9557 230.552 37.1172C231.276 37.2786 231.862 37.4714 232.31 37.6953C232.757 37.9193 233.088 38.1901 233.302 38.5078C233.521 38.8203 233.63 39.2031 233.63 39.6562C233.63 40.4115 233.328 41.0182 232.724 41.4766C232.119 41.9297 231.336 42.1562 230.372 42.1562C229.695 42.1562 229.096 42.0365 228.575 41.7969C228.054 41.5573 227.646 41.224 227.349 40.7969C227.057 40.3646 226.911 39.8984 226.911 39.3984H228.356C228.382 39.8828 228.575 40.2682 228.935 40.5547C229.299 40.8359 229.778 40.9766 230.372 40.9766C230.919 40.9766 231.356 40.8672 231.685 40.6484C232.018 40.4245 232.185 40.1276 232.185 39.7578ZM240.731 41.1641C240.169 41.8255 239.343 42.1562 238.255 42.1562C237.354 42.1562 236.666 41.8958 236.192 41.375C235.724 40.849 235.487 40.0729 235.481 39.0469V33.5469H236.927V39.0078C236.927 40.2891 237.448 40.9297 238.489 40.9297C239.593 40.9297 240.328 40.5182 240.692 39.6953V33.5469H242.138V42H240.763L240.731 41.1641ZM247.731 40.9766C248.247 40.9766 248.698 40.8203 249.083 40.5078C249.468 40.1953 249.682 39.8047 249.724 39.3359H251.091C251.065 39.8203 250.898 40.2812 250.591 40.7188C250.284 41.1562 249.872 41.5052 249.356 41.7656C248.846 42.026 248.304 42.1562 247.731 42.1562C246.58 42.1562 245.664 41.7734 244.981 41.0078C244.304 40.237 243.966 39.1849 243.966 37.8516V37.6094C243.966 36.7865 244.117 36.0547 244.419 35.4141C244.721 34.7734 245.153 34.276 245.716 33.9219C246.284 33.5677 246.953 33.3906 247.724 33.3906C248.672 33.3906 249.458 33.6745 250.083 34.2422C250.713 34.8099 251.049 35.5469 251.091 36.4531H249.724C249.682 35.9062 249.474 35.4583 249.099 35.1094C248.729 34.7552 248.271 34.5781 247.724 34.5781C246.989 34.5781 246.419 34.8438 246.013 35.375C245.612 35.901 245.411 36.6641 245.411 37.6641V37.9375C245.411 38.9115 245.612 39.6615 246.013 40.1875C246.414 40.7135 246.987 40.9766 247.731 40.9766ZM256.106 40.9766C256.622 40.9766 257.073 40.8203 257.458 40.5078C257.843 40.1953 258.057 39.8047 258.099 39.3359H259.466C259.44 39.8203 259.273 40.2812 258.966 40.7188C258.659 41.1562 258.247 41.5052 257.731 41.7656C257.221 42.026 256.679 42.1562 256.106 42.1562C254.955 42.1562 254.039 41.7734 253.356 41.0078C252.679 40.237 252.341 39.1849 252.341 37.8516V37.6094C252.341 36.7865 252.492 36.0547 252.794 35.4141C253.096 34.7734 253.528 34.276 254.091 33.9219C254.659 33.5677 255.328 33.3906 256.099 33.3906C257.047 33.3906 257.833 33.6745 258.458 34.2422C259.088 34.8099 259.424 35.5469 259.466 36.4531H258.099C258.057 35.9062 257.849 35.4583 257.474 35.1094C257.104 34.7552 256.646 34.5781 256.099 34.5781C255.364 34.5781 254.794 34.8438 254.388 35.375C253.987 35.901 253.786 36.6641 253.786 37.6641V37.9375C253.786 38.9115 253.987 39.6615 254.388 40.1875C254.789 40.7135 255.362 40.9766 256.106 40.9766ZM264.599 42.1562C263.453 42.1562 262.521 41.7812 261.802 41.0312C261.083 40.276 260.724 39.2682 260.724 38.0078V37.7422C260.724 36.9036 260.882 36.1562 261.2 35.5C261.523 34.8385 261.971 34.3229 262.544 33.9531C263.122 33.5781 263.747 33.3906 264.419 33.3906C265.518 33.3906 266.372 33.7526 266.981 34.4766C267.591 35.2005 267.896 36.237 267.896 37.5859V38.1875H262.169C262.19 39.0208 262.432 39.6953 262.896 40.2109C263.364 40.7214 263.958 40.9766 264.677 40.9766C265.187 40.9766 265.619 40.8724 265.974 40.6641C266.328 40.4557 266.638 40.1797 266.903 39.8359L267.786 40.5234C267.078 41.612 266.015 42.1562 264.599 42.1562ZM264.419 34.5781C263.836 34.5781 263.346 34.7917 262.95 35.2188C262.554 35.6406 262.31 36.2344 262.216 37H266.45V36.8906C266.409 36.1562 266.211 35.5885 265.856 35.1875C265.502 34.7812 265.023 34.5781 264.419 34.5781ZM274.497 39.7578C274.497 39.3672 274.349 39.0651 274.052 38.8516C273.76 38.6328 273.247 38.4453 272.513 38.2891C271.784 38.1328 271.203 37.9453 270.771 37.7266C270.343 37.5078 270.026 37.2474 269.817 36.9453C269.614 36.6432 269.513 36.2839 269.513 35.8672C269.513 35.1745 269.804 34.5885 270.388 34.1094C270.976 33.6302 271.726 33.3906 272.638 33.3906C273.596 33.3906 274.372 33.638 274.966 34.1328C275.565 34.6276 275.864 35.2604 275.864 36.0312H274.411C274.411 35.6354 274.242 35.2943 273.903 35.0078C273.57 34.7214 273.148 34.5781 272.638 34.5781C272.112 34.5781 271.7 34.6927 271.403 34.9219C271.106 35.151 270.958 35.4505 270.958 35.8203C270.958 36.1693 271.096 36.4323 271.372 36.6094C271.648 36.7865 272.146 36.9557 272.864 37.1172C273.588 37.2786 274.174 37.4714 274.622 37.6953C275.07 37.9193 275.401 38.1901 275.614 38.5078C275.833 38.8203 275.942 39.2031 275.942 39.6562C275.942 40.4115 275.64 41.0182 275.036 41.4766C274.432 41.9297 273.648 42.1562 272.685 42.1562C272.007 42.1562 271.409 42.0365 270.888 41.7969C270.367 41.5573 269.958 41.224 269.661 40.7969C269.369 40.3646 269.224 39.8984 269.224 39.3984H270.669C270.695 39.8828 270.888 40.2682 271.247 40.5547C271.612 40.8359 272.091 40.9766 272.685 40.9766C273.231 40.9766 273.669 40.8672 273.997 40.6484C274.33 40.4245 274.497 40.1276 274.497 39.7578ZM282.747 39.7578C282.747 39.3672 282.599 39.0651 282.302 38.8516C282.01 38.6328 281.497 38.4453 280.763 38.2891C280.034 38.1328 279.453 37.9453 279.021 37.7266C278.593 37.5078 278.276 37.2474 278.067 36.9453C277.864 36.6432 277.763 36.2839 277.763 35.8672C277.763 35.1745 278.054 34.5885 278.638 34.1094C279.226 33.6302 279.976 33.3906 280.888 33.3906C281.846 33.3906 282.622 33.638 283.216 34.1328C283.815 34.6276 284.114 35.2604 284.114 36.0312H282.661C282.661 35.6354 282.492 35.2943 282.153 35.0078C281.82 34.7214 281.398 34.5781 280.888 34.5781C280.362 34.5781 279.95 34.6927 279.653 34.9219C279.356 35.151 279.208 35.4505 279.208 35.8203C279.208 36.1693 279.346 36.4323 279.622 36.6094C279.898 36.7865 280.396 36.9557 281.114 37.1172C281.838 37.2786 282.424 37.4714 282.872 37.6953C283.32 37.9193 283.651 38.1901 283.864 38.5078C284.083 38.8203 284.192 39.2031 284.192 39.6562C284.192 40.4115 283.89 41.0182 283.286 41.4766C282.682 41.9297 281.898 42.1562 280.935 42.1562C280.257 42.1562 279.659 42.0365 279.138 41.7969C278.617 41.5573 278.208 41.224 277.911 40.7969C277.619 40.3646 277.474 39.8984 277.474 39.3984H278.919C278.945 39.8828 279.138 40.2682 279.497 40.5547C279.862 40.8359 280.341 40.9766 280.935 40.9766C281.481 40.9766 281.919 40.8672 282.247 40.6484C282.58 40.4245 282.747 40.1276 282.747 39.7578ZM286.786 42V34.6641H285.45V33.5469H286.786V32.6797C286.786 31.7734 287.028 31.0729 287.513 30.5781C287.997 30.0833 288.682 29.8359 289.567 29.8359C289.901 29.8359 290.231 29.8802 290.56 29.9688L290.481 31.1406C290.237 31.0938 289.976 31.0703 289.7 31.0703C289.231 31.0703 288.869 31.2083 288.614 31.4844C288.359 31.7552 288.231 32.1458 288.231 32.6562V33.5469H290.036V34.6641H288.231V42H286.786ZM296.856 41.1641C296.294 41.8255 295.468 42.1562 294.38 42.1562C293.479 42.1562 292.791 41.8958 292.317 41.375C291.849 40.849 291.612 40.0729 291.606 39.0469V33.5469H293.052V39.0078C293.052 40.2891 293.573 40.9297 294.614 40.9297C295.718 40.9297 296.453 40.5182 296.817 39.6953V33.5469H298.263V42H296.888L296.856 41.1641ZM302.036 42H300.591V30H302.036V42ZM305.927 42H304.481V30H305.927V42ZM311.013 39.8828L312.981 33.5469H314.528L311.13 43.3047C310.604 44.7109 309.768 45.4141 308.622 45.4141L308.349 45.3906L307.81 45.2891V44.1172L308.2 44.1484C308.69 44.1484 309.07 44.0495 309.341 43.8516C309.617 43.6536 309.843 43.2917 310.021 42.7656L310.341 41.9062L307.325 33.5469H308.903L311.013 39.8828ZM315.013 41.2422C315.013 40.9922 315.086 40.7839 315.231 40.6172C315.382 40.4505 315.606 40.3672 315.903 40.3672C316.2 40.3672 316.424 40.4505 316.575 40.6172C316.731 40.7839 316.81 40.9922 316.81 41.2422C316.81 41.4818 316.731 41.6823 316.575 41.8438C316.424 42.0052 316.2 42.0859 315.903 42.0859C315.606 42.0859 315.382 42.0052 315.231 41.8438C315.086 41.6823 315.013 41.4818 315.013 41.2422Z" fill="#656668"/>
<path d="M19.1105 47.744H34.5025V45.312H23.4945C27.6225 41.952 33.8305 37.056 33.8305 31.296C33.8305 27.008 31.0145 24.448 26.6625 24.448C22.5025 24.448 19.3985 27.008 19.2065 31.936H22.0225C22.1505 29.024 23.6865 26.944 26.6945 26.944C29.8305 26.944 30.9505 28.864 30.9505 31.424C30.9505 36.16 25.1905 40.768 19.1105 45.664V47.744Z" fill="#656668"/>
</svg>
