<svg width="557" height="75" viewBox="0 0 557 75" fill="none" xmlns="http://www.w3.org/2000/svg">
<path d="M68.3096 36.9766H63.5361V42H62.0361V30.625H69.083V31.8594H63.5361V35.75H68.3096V36.9766ZM72.2236 42H70.7783V33.5469H72.2236V42ZM70.6611 31.3047C70.6611 31.0703 70.7314 30.8724 70.8721 30.7109C71.0179 30.5495 71.2314 30.4688 71.5127 30.4688C71.7939 30.4688 72.0075 30.5495 72.1533 30.7109C72.2992 30.8724 72.3721 31.0703 72.3721 31.3047C72.3721 31.5391 72.2992 31.7344 72.1533 31.8906C72.0075 32.0469 71.7939 32.125 71.5127 32.125C71.2314 32.125 71.0179 32.0469 70.8721 31.8906C70.7314 31.7344 70.6611 31.5391 70.6611 31.3047ZM76.1143 42H74.6689V30H76.1143V42ZM80.0049 42H78.5596V30H80.0049V42ZM88.2549 31.5V33.5469H89.833V34.6641H88.2549V39.9062C88.2549 40.2448 88.3252 40.5 88.4658 40.6719C88.6064 40.8385 88.846 40.9219 89.1846 40.9219C89.3512 40.9219 89.5804 40.8906 89.8721 40.8281V42C89.4919 42.1042 89.1221 42.1562 88.7627 42.1562C88.1169 42.1562 87.6299 41.9609 87.3018 41.5703C86.9736 41.1797 86.8096 40.625 86.8096 39.9062V34.6641H85.2705V33.5469H86.8096V31.5H88.2549ZM92.9736 34.5703C93.6143 33.7839 94.4476 33.3906 95.4736 33.3906C97.2601 33.3906 98.1611 34.3984 98.1768 36.4141V42H96.7314V36.4062C96.7262 35.7969 96.5856 35.3464 96.3096 35.0547C96.0387 34.763 95.6143 34.6172 95.0361 34.6172C94.5674 34.6172 94.1559 34.7422 93.8018 34.9922C93.4476 35.2422 93.1715 35.5703 92.9736 35.9766V42H91.5283V30H92.9736V34.5703ZM103.849 42.1562C102.703 42.1562 101.771 41.7812 101.052 41.0312C100.333 40.276 99.9736 39.2682 99.9736 38.0078V37.7422C99.9736 36.9036 100.132 36.1562 100.45 35.5C100.773 34.8385 101.221 34.3229 101.794 33.9531C102.372 33.5781 102.997 33.3906 103.669 33.3906C104.768 33.3906 105.622 33.7526 106.231 34.4766C106.841 35.2005 107.146 36.237 107.146 37.5859V38.1875H101.419C101.44 39.0208 101.682 39.6953 102.146 40.2109C102.614 40.7214 103.208 40.9766 103.927 40.9766C104.437 40.9766 104.869 40.8724 105.224 40.6641C105.578 40.4557 105.888 40.1797 106.153 39.8359L107.036 40.5234C106.328 41.612 105.265 42.1562 103.849 42.1562ZM103.669 34.5781C103.086 34.5781 102.596 34.7917 102.2 35.2188C101.804 35.6406 101.56 36.2344 101.466 37H105.7V36.8906C105.659 36.1562 105.461 35.5885 105.106 35.1875C104.752 34.7812 104.273 34.5781 103.669 34.5781ZM116.88 34.8438C116.661 34.8073 116.424 34.7891 116.169 34.7891C115.221 34.7891 114.578 35.1927 114.239 36V42H112.794V33.5469H114.2L114.224 34.5234C114.698 33.7682 115.369 33.3906 116.239 33.3906C116.521 33.3906 116.734 33.4271 116.88 33.5V34.8438ZM121.567 42.1562C120.422 42.1562 119.489 41.7812 118.771 41.0312C118.052 40.276 117.692 39.2682 117.692 38.0078V37.7422C117.692 36.9036 117.851 36.1562 118.169 35.5C118.492 34.8385 118.94 34.3229 119.513 33.9531C120.091 33.5781 120.716 33.3906 121.388 33.3906C122.487 33.3906 123.341 33.7526 123.95 34.4766C124.56 35.2005 124.864 36.237 124.864 37.5859V38.1875H119.138C119.159 39.0208 119.401 39.6953 119.864 40.2109C120.333 40.7214 120.927 40.9766 121.646 40.9766C122.156 40.9766 122.588 40.8724 122.942 40.6641C123.297 40.4557 123.606 40.1797 123.872 39.8359L124.755 40.5234C124.047 41.612 122.984 42.1562 121.567 42.1562ZM121.388 34.5781C120.804 34.5781 120.315 34.7917 119.919 35.2188C119.523 35.6406 119.278 36.2344 119.185 37H123.419V36.8906C123.377 36.1562 123.179 35.5885 122.825 35.1875C122.471 34.7812 121.992 34.5781 121.388 34.5781ZM126.192 37.7031C126.192 36.375 126.497 35.3255 127.106 34.5547C127.716 33.7786 128.534 33.3906 129.56 33.3906C130.56 33.3906 131.349 33.7266 131.927 34.3984L131.989 33.5469H133.317V45.25H131.872V41.2188C131.289 41.8438 130.513 42.1562 129.544 42.1562C128.523 42.1562 127.708 41.7604 127.099 40.9688C126.494 40.1719 126.192 39.1172 126.192 37.8047V37.7031ZM127.638 37.8672C127.638 38.8359 127.841 39.5964 128.247 40.1484C128.659 40.7005 129.211 40.9766 129.903 40.9766C130.763 40.9766 131.419 40.5964 131.872 39.8359V35.6953C131.414 34.9505 130.763 34.5781 129.919 34.5781C129.221 34.5781 128.666 34.8568 128.255 35.4141C127.843 35.9661 127.638 36.7839 127.638 37.8672ZM140.856 41.1641C140.294 41.8255 139.468 42.1562 138.38 42.1562C137.479 42.1562 136.791 41.8958 136.317 41.375C135.849 40.849 135.612 40.0729 135.606 39.0469V33.5469H137.052V39.0078C137.052 40.2891 137.573 40.9297 138.614 40.9297C139.718 40.9297 140.453 40.5182 140.817 39.6953V33.5469H142.263V42H140.888L140.856 41.1641ZM147.974 42.1562C146.828 42.1562 145.896 41.7812 145.177 41.0312C144.458 40.276 144.099 39.2682 144.099 38.0078V37.7422C144.099 36.9036 144.257 36.1562 144.575 35.5C144.898 34.8385 145.346 34.3229 145.919 33.9531C146.497 33.5781 147.122 33.3906 147.794 33.3906C148.893 33.3906 149.747 33.7526 150.356 34.4766C150.966 35.2005 151.271 36.237 151.271 37.5859V38.1875H145.544C145.565 39.0208 145.807 39.6953 146.271 40.2109C146.739 40.7214 147.333 40.9766 148.052 40.9766C148.562 40.9766 148.994 40.8724 149.349 40.6641C149.703 40.4557 150.013 40.1797 150.278 39.8359L151.161 40.5234C150.453 41.612 149.39 42.1562 147.974 42.1562ZM147.794 34.5781C147.211 34.5781 146.721 34.7917 146.325 35.2188C145.929 35.6406 145.685 36.2344 145.591 37H149.825V36.8906C149.784 36.1562 149.586 35.5885 149.231 35.1875C148.877 34.7812 148.398 34.5781 147.794 34.5781ZM157.872 39.7578C157.872 39.3672 157.724 39.0651 157.427 38.8516C157.135 38.6328 156.622 38.4453 155.888 38.2891C155.159 38.1328 154.578 37.9453 154.146 37.7266C153.718 37.5078 153.401 37.2474 153.192 36.9453C152.989 36.6432 152.888 36.2839 152.888 35.8672C152.888 35.1745 153.179 34.5885 153.763 34.1094C154.351 33.6302 155.101 33.3906 156.013 33.3906C156.971 33.3906 157.747 33.638 158.341 34.1328C158.94 34.6276 159.239 35.2604 159.239 36.0312H157.786C157.786 35.6354 157.617 35.2943 157.278 35.0078C156.945 34.7214 156.523 34.5781 156.013 34.5781C155.487 34.5781 155.075 34.6927 154.778 34.9219C154.481 35.151 154.333 35.4505 154.333 35.8203C154.333 36.1693 154.471 36.4323 154.747 36.6094C155.023 36.7865 155.521 36.9557 156.239 37.1172C156.963 37.2786 157.549 37.4714 157.997 37.6953C158.445 37.9193 158.776 38.1901 158.989 38.5078C159.208 38.8203 159.317 39.2031 159.317 39.6562C159.317 40.4115 159.015 41.0182 158.411 41.4766C157.807 41.9297 157.023 42.1562 156.06 42.1562C155.382 42.1562 154.784 42.0365 154.263 41.7969C153.742 41.5573 153.333 41.224 153.036 40.7969C152.744 40.3646 152.599 39.8984 152.599 39.3984H154.044C154.07 39.8828 154.263 40.2682 154.622 40.5547C154.987 40.8359 155.466 40.9766 156.06 40.9766C156.606 40.9766 157.044 40.8672 157.372 40.6484C157.705 40.4245 157.872 40.1276 157.872 39.7578ZM163.161 31.5V33.5469H164.739V34.6641H163.161V39.9062C163.161 40.2448 163.231 40.5 163.372 40.6719C163.513 40.8385 163.752 40.9219 164.091 40.9219C164.257 40.9219 164.487 40.8906 164.778 40.8281V42C164.398 42.1042 164.028 42.1562 163.669 42.1562C163.023 42.1562 162.536 41.9609 162.208 41.5703C161.88 41.1797 161.716 40.625 161.716 39.9062V34.6641H160.177V33.5469H161.716V31.5H163.161ZM171.974 42H170.528V33.5469H171.974V42ZM170.411 31.3047C170.411 31.0703 170.481 30.8724 170.622 30.7109C170.768 30.5495 170.981 30.4688 171.263 30.4688C171.544 30.4688 171.757 30.5495 171.903 30.7109C172.049 30.8724 172.122 31.0703 172.122 31.3047C172.122 31.5391 172.049 31.7344 171.903 31.8906C171.757 32.0469 171.544 32.125 171.263 32.125C170.981 32.125 170.768 32.0469 170.622 31.8906C170.481 31.7344 170.411 31.5391 170.411 31.3047ZM175.661 33.5469L175.708 34.6094C176.354 33.7969 177.198 33.3906 178.239 33.3906C180.026 33.3906 180.927 34.3984 180.942 36.4141V42H179.497V36.4062C179.492 35.7969 179.351 35.3464 179.075 35.0547C178.804 34.763 178.38 34.6172 177.802 34.6172C177.333 34.6172 176.922 34.7422 176.567 34.9922C176.213 35.2422 175.937 35.5703 175.739 35.9766V42H174.294V33.5469H175.661ZM183.833 42V34.6641H182.497V33.5469H183.833V32.6797C183.833 31.7734 184.075 31.0729 184.56 30.5781C185.044 30.0833 185.729 29.8359 186.614 29.8359C186.948 29.8359 187.278 29.8802 187.606 29.9688L187.528 31.1406C187.284 31.0938 187.023 31.0703 186.747 31.0703C186.278 31.0703 185.916 31.2083 185.661 31.4844C185.406 31.7552 185.278 32.1458 185.278 32.6562V33.5469H187.083V34.6641H185.278V42H183.833ZM188.302 37.6953C188.302 36.8672 188.463 36.1224 188.786 35.4609C189.114 34.7995 189.567 34.2891 190.146 33.9297C190.729 33.5703 191.393 33.3906 192.138 33.3906C193.289 33.3906 194.218 33.7891 194.927 34.5859C195.64 35.3828 195.997 36.4427 195.997 37.7656V37.8672C195.997 38.6901 195.838 39.4297 195.521 40.0859C195.208 40.737 194.757 41.2448 194.169 41.6094C193.586 41.974 192.914 42.1562 192.153 42.1562C191.007 42.1562 190.078 41.7578 189.364 40.9609C188.656 40.1641 188.302 39.1094 188.302 37.7969V37.6953ZM189.755 37.8672C189.755 38.8047 189.971 39.5573 190.403 40.125C190.841 40.6927 191.424 40.9766 192.153 40.9766C192.888 40.9766 193.471 40.6901 193.903 40.1172C194.336 39.5391 194.552 38.7318 194.552 37.6953C194.552 36.7682 194.33 36.0182 193.888 35.4453C193.45 34.8672 192.867 34.5781 192.138 34.5781C191.424 34.5781 190.849 34.862 190.411 35.4297C189.974 35.9974 189.755 36.8099 189.755 37.8672ZM201.896 34.8438C201.677 34.8073 201.44 34.7891 201.185 34.7891C200.237 34.7891 199.593 35.1927 199.255 36V42H197.81V33.5469H199.216L199.239 34.5234C199.713 33.7682 200.385 33.3906 201.255 33.3906C201.536 33.3906 201.75 33.4271 201.896 33.5V34.8438ZM204.591 33.5469L204.63 34.4844C205.25 33.7552 206.086 33.3906 207.138 33.3906C208.32 33.3906 209.125 33.8438 209.552 34.75C209.833 34.3438 210.198 34.0156 210.646 33.7656C211.099 33.5156 211.632 33.3906 212.247 33.3906C214.101 33.3906 215.044 34.3724 215.075 36.3359V42H213.63V36.4219C213.63 35.8177 213.492 35.3672 213.216 35.0703C212.94 34.7682 212.476 34.6172 211.825 34.6172C211.289 34.6172 210.843 34.7786 210.489 35.1016C210.135 35.4193 209.929 35.849 209.872 36.3906V42H208.419V36.4609C208.419 35.2318 207.817 34.6172 206.614 34.6172C205.666 34.6172 205.018 35.0208 204.669 35.8281V42H203.224V33.5469H204.591ZM222.481 42C222.398 41.8333 222.33 41.5365 222.278 41.1094C221.606 41.8073 220.804 42.1562 219.872 42.1562C219.039 42.1562 218.354 41.9219 217.817 41.4531C217.286 40.9792 217.021 40.3802 217.021 39.6562C217.021 38.776 217.354 38.0938 218.021 37.6094C218.692 37.1198 219.635 36.875 220.849 36.875H222.255V36.2109C222.255 35.7057 222.104 35.3047 221.802 35.0078C221.5 34.7057 221.054 34.5547 220.466 34.5547C219.95 34.5547 219.518 34.6849 219.169 34.9453C218.82 35.2057 218.646 35.5208 218.646 35.8906H217.192C217.192 35.4688 217.341 35.0625 217.638 34.6719C217.94 34.276 218.346 33.9635 218.856 33.7344C219.372 33.5052 219.937 33.3906 220.552 33.3906C221.526 33.3906 222.289 33.6354 222.841 34.125C223.393 34.6094 223.679 35.2786 223.7 36.1328V40.0234C223.7 40.7995 223.799 41.4167 223.997 41.875V42H222.481ZM220.083 40.8984C220.536 40.8984 220.966 40.7812 221.372 40.5469C221.778 40.3125 222.073 40.0078 222.255 39.6328V37.8984H221.122C219.351 37.8984 218.466 38.4167 218.466 39.4531C218.466 39.9062 218.617 40.2604 218.919 40.5156C219.221 40.7708 219.609 40.8984 220.083 40.8984ZM227.927 31.5V33.5469H229.505V34.6641H227.927V39.9062C227.927 40.2448 227.997 40.5 228.138 40.6719C228.278 40.8385 228.518 40.9219 228.856 40.9219C229.023 40.9219 229.252 40.8906 229.544 40.8281V42C229.164 42.1042 228.794 42.1562 228.435 42.1562C227.789 42.1562 227.302 41.9609 226.974 41.5703C226.646 41.1797 226.481 40.625 226.481 39.9062V34.6641H224.942V33.5469H226.481V31.5H227.927ZM232.771 42H231.325V33.5469H232.771V42ZM231.208 31.3047C231.208 31.0703 231.278 30.8724 231.419 30.7109C231.565 30.5495 231.778 30.4688 232.06 30.4688C232.341 30.4688 232.554 30.5495 232.7 30.7109C232.846 30.8724 232.919 31.0703 232.919 31.3047C232.919 31.5391 232.846 31.7344 232.7 31.8906C232.554 32.0469 232.341 32.125 232.06 32.125C231.778 32.125 231.565 32.0469 231.419 31.8906C231.278 31.7344 231.208 31.5391 231.208 31.3047ZM234.708 37.6953C234.708 36.8672 234.869 36.1224 235.192 35.4609C235.521 34.7995 235.974 34.2891 236.552 33.9297C237.135 33.5703 237.799 33.3906 238.544 33.3906C239.695 33.3906 240.625 33.7891 241.333 34.5859C242.047 35.3828 242.403 36.4427 242.403 37.7656V37.8672C242.403 38.6901 242.244 39.4297 241.927 40.0859C241.614 40.737 241.164 41.2448 240.575 41.6094C239.992 41.974 239.32 42.1562 238.56 42.1562C237.414 42.1562 236.484 41.7578 235.771 40.9609C235.062 40.1641 234.708 39.1094 234.708 37.7969V37.6953ZM236.161 37.8672C236.161 38.8047 236.377 39.5573 236.81 40.125C237.247 40.6927 237.83 40.9766 238.56 40.9766C239.294 40.9766 239.877 40.6901 240.31 40.1172C240.742 39.5391 240.958 38.7318 240.958 37.6953C240.958 36.7682 240.737 36.0182 240.294 35.4453C239.856 34.8672 239.273 34.5781 238.544 34.5781C237.83 34.5781 237.255 34.862 236.817 35.4297C236.38 35.9974 236.161 36.8099 236.161 37.8672ZM245.583 33.5469L245.63 34.6094C246.276 33.7969 247.119 33.3906 248.161 33.3906C249.948 33.3906 250.849 34.3984 250.864 36.4141V42H249.419V36.4062C249.414 35.7969 249.273 35.3464 248.997 35.0547C248.726 34.763 248.302 34.6172 247.724 34.6172C247.255 34.6172 246.843 34.7422 246.489 34.9922C246.135 35.2422 245.859 35.5703 245.661 35.9766V42H244.216V33.5469H245.583ZM256.661 37.7031C256.661 36.4062 256.968 35.3646 257.583 34.5781C258.198 33.7865 259.002 33.3906 259.997 33.3906C260.987 33.3906 261.771 33.7292 262.349 34.4062V30H263.794V42H262.466L262.396 41.0938C261.817 41.8021 261.013 42.1562 259.981 42.1562C259.002 42.1562 258.203 41.7552 257.583 40.9531C256.968 40.151 256.661 39.1042 256.661 37.8125V37.7031ZM258.106 37.8672C258.106 38.8255 258.304 39.5755 258.7 40.1172C259.096 40.6589 259.643 40.9297 260.341 40.9297C261.257 40.9297 261.927 40.5182 262.349 39.6953V35.8125C261.916 35.0156 261.252 34.6172 260.356 34.6172C259.648 34.6172 259.096 34.8906 258.7 35.4375C258.304 35.9844 258.106 36.7943 258.106 37.8672ZM269.552 42.1562C268.406 42.1562 267.474 41.7812 266.755 41.0312C266.036 40.276 265.677 39.2682 265.677 38.0078V37.7422C265.677 36.9036 265.836 36.1562 266.153 35.5C266.476 34.8385 266.924 34.3229 267.497 33.9531C268.075 33.5781 268.7 33.3906 269.372 33.3906C270.471 33.3906 271.325 33.7526 271.935 34.4766C272.544 35.2005 272.849 36.237 272.849 37.5859V38.1875H267.122C267.143 39.0208 267.385 39.6953 267.849 40.2109C268.317 40.7214 268.911 40.9766 269.63 40.9766C270.14 40.9766 270.573 40.8724 270.927 40.6641C271.281 40.4557 271.591 40.1797 271.856 39.8359L272.739 40.5234C272.031 41.612 270.968 42.1562 269.552 42.1562ZM269.372 34.5781C268.789 34.5781 268.299 34.7917 267.903 35.2188C267.507 35.6406 267.263 36.2344 267.169 37H271.403V36.8906C271.362 36.1562 271.164 35.5885 270.81 35.1875C270.455 34.7812 269.976 34.5781 269.372 34.5781ZM276.489 31.5V33.5469H278.067V34.6641H276.489V39.9062C276.489 40.2448 276.56 40.5 276.7 40.6719C276.841 40.8385 277.08 40.9219 277.419 40.9219C277.586 40.9219 277.815 40.8906 278.106 40.8281V42C277.726 42.1042 277.356 42.1562 276.997 42.1562C276.351 42.1562 275.864 41.9609 275.536 41.5703C275.208 41.1797 275.044 40.625 275.044 39.9062V34.6641H273.505V33.5469H275.044V31.5H276.489ZM284.981 42C284.898 41.8333 284.83 41.5365 284.778 41.1094C284.106 41.8073 283.304 42.1562 282.372 42.1562C281.539 42.1562 280.854 41.9219 280.317 41.4531C279.786 40.9792 279.521 40.3802 279.521 39.6562C279.521 38.776 279.854 38.0938 280.521 37.6094C281.192 37.1198 282.135 36.875 283.349 36.875H284.755V36.2109C284.755 35.7057 284.604 35.3047 284.302 35.0078C284 34.7057 283.554 34.5547 282.966 34.5547C282.45 34.5547 282.018 34.6849 281.669 34.9453C281.32 35.2057 281.146 35.5208 281.146 35.8906H279.692C279.692 35.4688 279.841 35.0625 280.138 34.6719C280.44 34.276 280.846 33.9635 281.356 33.7344C281.872 33.5052 282.437 33.3906 283.052 33.3906C284.026 33.3906 284.789 33.6354 285.341 34.125C285.893 34.6094 286.179 35.2786 286.2 36.1328V40.0234C286.2 40.7995 286.299 41.4167 286.497 41.875V42H284.981ZM282.583 40.8984C283.036 40.8984 283.466 40.7812 283.872 40.5469C284.278 40.3125 284.573 40.0078 284.755 39.6328V37.8984H283.622C281.851 37.8984 280.966 38.4167 280.966 39.4531C280.966 39.9062 281.117 40.2604 281.419 40.5156C281.721 40.7708 282.109 40.8984 282.583 40.8984ZM290.036 42H288.591V33.5469H290.036V42ZM288.474 31.3047C288.474 31.0703 288.544 30.8724 288.685 30.7109C288.83 30.5495 289.044 30.4688 289.325 30.4688C289.606 30.4688 289.82 30.5495 289.966 30.7109C290.112 30.8724 290.185 31.0703 290.185 31.3047C290.185 31.5391 290.112 31.7344 289.966 31.8906C289.82 32.0469 289.606 32.125 289.325 32.125C289.044 32.125 288.83 32.0469 288.685 31.8906C288.544 31.7344 288.474 31.5391 288.474 31.3047ZM293.927 42H292.481V30H293.927V42ZM301.169 39.7578C301.169 39.3672 301.021 39.0651 300.724 38.8516C300.432 38.6328 299.919 38.4453 299.185 38.2891C298.455 38.1328 297.875 37.9453 297.442 37.7266C297.015 37.5078 296.698 37.2474 296.489 36.9453C296.286 36.6432 296.185 36.2839 296.185 35.8672C296.185 35.1745 296.476 34.5885 297.06 34.1094C297.648 33.6302 298.398 33.3906 299.31 33.3906C300.268 33.3906 301.044 33.638 301.638 34.1328C302.237 34.6276 302.536 35.2604 302.536 36.0312H301.083C301.083 35.6354 300.914 35.2943 300.575 35.0078C300.242 34.7214 299.82 34.5781 299.31 34.5781C298.784 34.5781 298.372 34.6927 298.075 34.9219C297.778 35.151 297.63 35.4505 297.63 35.8203C297.63 36.1693 297.768 36.4323 298.044 36.6094C298.32 36.7865 298.817 36.9557 299.536 37.1172C300.26 37.2786 300.846 37.4714 301.294 37.6953C301.742 37.9193 302.073 38.1901 302.286 38.5078C302.505 38.8203 302.614 39.2031 302.614 39.6562C302.614 40.4115 302.312 41.0182 301.708 41.4766C301.104 41.9297 300.32 42.1562 299.356 42.1562C298.679 42.1562 298.08 42.0365 297.56 41.7969C297.039 41.5573 296.63 41.224 296.333 40.7969C296.041 40.3646 295.896 39.8984 295.896 39.3984H297.341C297.367 39.8828 297.56 40.2682 297.919 40.5547C298.284 40.8359 298.763 40.9766 299.356 40.9766C299.903 40.9766 300.341 40.8672 300.669 40.6484C301.002 40.4245 301.169 40.1276 301.169 39.7578ZM304.528 41.2422C304.528 40.9922 304.601 40.7839 304.747 40.6172C304.898 40.4505 305.122 40.3672 305.419 40.3672C305.716 40.3672 305.94 40.4505 306.091 40.6172C306.247 40.7839 306.325 40.9922 306.325 41.2422C306.325 41.4818 306.247 41.6823 306.091 41.8438C305.94 42.0052 305.716 42.0859 305.419 42.0859C305.122 42.0859 304.898 42.0052 304.747 41.8438C304.601 41.6823 304.528 41.4818 304.528 41.2422Z" fill="#656668"/>
<path d="M24.2145 27.52V24.864H30.2305V48H27.2865V27.52H24.2145Z" fill="#656668"/>
</svg>
