<svg width="214" height="299" viewBox="0 0 214 299" fill="none" xmlns="http://www.w3.org/2000/svg">
<g clip-path="url(#clip0)">
<path d="M11.6084 71.7354C14.6102 65.7643 18.1187 60.7798 22.0448 57.2008C23.1578 56.1717 24.3547 55.2377 25.6228 54.4085C26.7585 53.6655 27.9595 53.0283 29.211 52.5049C47.102 45.088 65.4207 61.965 85.8867 59.9713C103.042 58.296 115.387 48.7359 126.33 40.7116C129.917 37.9695 133.672 35.4557 137.572 33.1849C138.606 32.6072 139.649 32.0786 140.683 31.6095C141.796 31.1131 142.978 30.6427 144.241 30.2146C144.241 30.2133 144.241 30.2119 144.242 30.2107C144.242 30.2094 144.243 30.2083 144.244 30.2074C144.245 30.2064 144.246 30.2057 144.247 30.2052C144.248 30.2048 144.25 30.2046 144.251 30.2047L144.262 30.2146C160.115 24.761 186.892 24.9608 198.761 36.6945C211.185 48.986 226.273 88.8209 192.101 140.132C154.131 197.163 50.3923 205.049 22.6711 186.188C-6.0147 166.689 -4.86154 104.503 11.6084 71.7354Z" fill="#D6DCFD"/>
<path d="M38.2494 37.1387C45.5457 27.5039 53.2363 28.8641 58.5742 31.1931C61.2311 32.4097 63.4658 34.3938 64.992 36.8914C66.5182 39.3891 67.2666 42.2867 67.1413 45.2133C67.0472 46.7522 66.7193 48.3729 67.3401 49.7816C68.3438 52.0481 71.2641 52.6866 72.9555 54.4953C75.2677 56.9691 74.7556 60.8855 73.9745 64.1839C73.1934 67.4823 72.3712 71.2492 74.3058 74.03C76.0774 76.5769 79.4549 77.26 82.2408 78.6148C84.0922 79.5012 85.7359 80.7698 87.0643 82.3377C88.3927 83.9055 89.3759 85.7372 89.9492 87.7127C90.4906 89.6983 90.5328 91.7875 90.0723 93.7935C89.6118 95.7995 88.6629 97.6598 87.3103 99.208C84.6019 102.168 80.5355 103.479 76.5737 104.065C70.7865 104.878 64.8921 104.415 59.302 102.707C53.712 100.999 48.561 98.0878 44.2089 94.1767C39.9117 90.2048 36.5309 85.3399 34.3024 79.9218C32.074 74.5038 31.0516 68.6631 31.3069 62.8078" fill="#2E353A"/>
<path d="M83.1477 100.199C83.1258 100.175 83.3988 99.9602 83.8102 99.4559C84.4117 98.7256 84.8538 97.877 85.1081 96.9648C85.4775 95.5129 85.4907 93.9929 85.1466 92.5348C84.7333 90.594 83.7953 88.8049 82.4355 87.3632C81.6558 86.522 80.7681 85.7882 79.796 85.1811C78.7252 84.5403 77.6006 83.9946 76.435 83.5505C75.1641 83.0696 73.9345 82.4856 72.7581 81.8043C71.5209 81.0286 70.4417 80.0243 69.578 78.8447C67.7565 76.2838 66.7711 73.2195 66.7576 70.0738C66.7242 68.4302 66.8632 66.7877 67.1723 65.1733C67.4698 63.5374 67.8833 61.9108 68.1986 60.2562C68.4441 59.1061 68.5792 57.9351 68.602 56.7591C68.5466 55.6163 68.2868 54.4927 67.8349 53.4421C67.4115 52.379 66.9134 51.347 66.5145 50.2733C66.1623 49.1969 65.9316 48.0842 65.8268 46.9562C65.6943 45.8519 65.6943 44.7635 65.5697 43.7283C65.458 42.702 65.2619 41.6868 64.9834 40.693C64.4895 38.8159 63.6613 37.0438 62.5388 35.4623L62.5261 35.4443V35.4403C61.6898 34.135 60.5844 33.0245 59.2842 32.1837C57.984 31.3428 56.5193 30.7912 54.9887 30.5658C52.6084 30.2314 50.1863 30.7392 48.1388 32.0017C46.8155 32.7961 45.673 33.86 44.7851 35.1247C44.1783 36.0032 43.9536 36.5354 43.9238 36.5201C44.1218 36.0055 44.3775 35.5151 44.6858 35.0583C45.5463 33.742 46.6838 32.6307 48.0183 31.8024C50.1033 30.4696 52.5894 29.9156 55.0409 30.2375C56.6279 30.4556 58.1495 31.014 59.5019 31.8748C60.8544 32.7356 62.0061 33.8784 62.8786 35.2257L62.8627 35.2045C64.0333 36.8239 64.8987 38.6443 65.4161 40.576C65.7051 41.5915 65.9097 42.6291 66.0281 43.6784C66.1606 44.7542 66.1607 45.8326 66.2932 46.9071C66.3965 47.9963 66.62 49.0707 66.9596 50.1105C67.3479 51.151 67.8469 52.1803 68.2808 53.2647C68.7553 54.3672 69.0277 55.5464 69.085 56.7459C69.0646 57.9566 68.9274 59.1625 68.675 60.3466C68.3556 62.0224 67.9422 63.6463 67.6468 65.2603C67.3417 66.8419 67.2029 68.4512 67.2327 70.0618C67.2376 73.1125 68.1822 76.0872 69.9371 78.5789C70.7635 79.718 71.7975 80.6898 72.9846 81.4428C74.1381 82.1181 75.3441 82.6989 76.5908 83.1797C77.7734 83.6398 78.913 84.2037 79.9967 84.8648C80.9908 85.497 81.8964 86.2595 82.6893 87.132C84.0728 88.6279 85.0154 90.4793 85.4128 92.4803C85.7443 93.98 85.7023 95.5385 85.2904 97.0179C85.012 97.9456 84.5323 98.7999 83.8858 99.5197C83.6684 99.7755 83.4205 100.004 83.1477 100.199Z" fill="#4D5A64"/>
<path d="M56.4639 88.8861C56.9381 88.2448 57.5017 87.6751 58.1373 87.1944C58.6987 86.6281 59.3384 86.1459 60.0367 85.7625C59.5622 86.4035 58.9987 86.9732 58.3633 87.4542C57.8017 88.0201 57.162 88.5024 56.4639 88.8861Z" fill="#FAFAFA"/>
<path d="M54.0905 82.7764L32.0948 85.4628C32.0948 85.4628 14.3963 88.6902 10.8392 101.984C8.38194 111.165 3.29642 128.266 0.384645 137.969C-0.224102 139.998 -0.107458 142.176 0.714449 144.128C1.53636 146.08 3.01189 147.683 4.88641 148.66C5.99025 149.235 7.20038 149.577 8.44147 149.663C9.68256 149.75 10.9281 149.579 12.1007 149.162C13.2733 148.745 14.3477 148.091 15.2574 147.24C16.167 146.389 16.8924 145.359 17.3882 144.214L27.008 122.013C27.008 122.013 30.3981 129.768 30.2034 133.435C30.0086 137.103 22.3696 150.583 22.3696 150.583C38.6159 159.926 55.1252 158.748 67.9662 152.908L67.3535 117.82C67.3535 117.82 73.3989 149.128 85.6429 146.743C95.9074 144.745 89.1483 124.683 85.6429 117.007C81.1716 107.22 75.3381 93.2577 71.6637 89.8915C61.8207 80.8647 54.0905 82.7764 54.0905 82.7764Z" fill="#E8505B"/>
<g opacity="0.2">
<g opacity="0.2">
<g opacity="0.2">
<path opacity="0.2" d="M33.7665 87.6243C32.3548 89.6554 30.6676 91.4792 28.7538 93.0431C27.5634 94.2111 26.177 95.1594 24.6582 95.8445C23.8946 96.1798 23.061 96.3231 22.2297 96.262C21.3984 96.2008 20.5946 95.9371 19.888 95.4936C18.5392 94.5202 18.0092 92.4005 19.0593 91.1082C19.7536 90.2543 20.8971 89.9433 21.9638 89.6795L32.6495 87.0376" fill="black"/>
</g>
</g>
</g>
<path d="M5.7168 128.518C6.55802 127.716 7.60688 127.167 8.74391 126.933C9.85268 126.589 11.0356 126.563 12.1579 126.86C11.0396 126.909 9.92657 127.045 8.82931 127.267C7.76079 127.602 6.72009 128.02 5.7168 128.518Z" fill="#2E353A"/>
<path d="M8.62012 125.473C9.31961 125.041 10.1519 124.878 10.9621 125.015C11.7836 125.035 12.57 125.354 13.1749 125.912C12.4408 125.673 11.6905 125.488 10.9297 125.358C10.1581 125.34 9.38617 125.379 8.62012 125.473Z" fill="#2E353A"/>
<g opacity="0.2">
<g opacity="0.2">
<g opacity="0.2">
<path opacity="0.2" d="M12.9881 127.112C12.0239 126.645 10.9551 126.438 9.88692 126.512C8.81879 126.587 7.78842 126.939 6.89766 127.535C6.5293 127.788 6.06349 128.094 5.67857 127.867C5.30954 127.65 5.33136 127.09 5.53542 126.713C6.02303 125.814 7.13607 125.474 8.15105 125.367C9.99128 125.178 11.8489 125.477 13.5374 126.235" fill="black"/>
</g>
</g>
</g>
<g opacity="0.2">
<g opacity="0.2">
<g opacity="0.2">
<path opacity="0.2" d="M48.7395 112.281C47.5814 114.621 44.2497 116.086 42.6901 118.638C41.373 120.793 40.8821 123.334 40.0891 125.733C37.8538 132.404 33.2574 138.022 27.1699 141.523C28.3757 139.231 29.3552 136.826 30.0943 134.343C30.2551 132.83 30.0325 131.3 29.447 129.895C30.2029 127.57 33.5083 124.357 35.0228 122.437C36.7606 120.075 38.7302 117.893 40.902 115.925C43.0918 113.95 45.8223 112.68 48.7401 112.279" fill="black"/>
</g>
</g>
</g>
<path d="M75.9375 127.48C75.9809 128.11 75.9667 128.743 75.8951 129.37C75.8362 130.533 75.705 132.138 75.7779 133.901C75.9031 137.454 77.2753 140.08 77.1414 140.121C77.1202 140.131 77.028 139.975 76.8763 139.683C76.6684 139.27 76.484 138.845 76.3238 138.41C75.7956 136.968 75.4944 135.452 75.4307 133.916C75.3902 132.391 75.4635 130.864 75.6501 129.35C75.688 128.719 75.7841 128.093 75.9375 127.48Z" fill="#2E353A"/>
<path d="M49.9904 103.503C49.9904 103.503 52.3092 104.533 54.1192 105.364C56.9773 106.678 57.9293 104.289 57.9293 104.289L49.9838 98.5282C48.9344 97.7835 47.6837 97.3772 46.3983 97.3634C45.1129 97.3496 43.8537 97.729 42.7887 98.4511C42.139 98.899 41.5775 99.4635 41.1324 100.116L35.4467 108.223L4.51239 132.966C-0.324003 136.837 -0.486309 143.371 4.40839 147.173C6.19918 148.57 8.45359 149.232 10.7132 149.022C12.9727 148.812 15.0677 147.747 16.5722 146.043L41.9726 117.267L45.2527 114.733L49.1111 111.925C49.1111 111.925 51.9952 109.833 49.6187 107.712C48.8495 107.025 50.331 107.039 50.48 106.043C50.5569 105.525 50.4058 105.431 49.5008 104.797C49.5028 104.796 50.9206 104.829 49.9904 103.503Z" fill="#B78876"/>
<path d="M49.913 104.179C49.8713 104.207 49.6879 103.984 49.3832 103.647C49.0149 103.207 48.5446 102.863 48.0136 102.647C47.7526 102.561 47.4753 102.535 47.203 102.573C46.9306 102.61 46.6703 102.71 46.4421 102.863C46.0943 103.113 46.0175 103.405 45.9619 103.385C45.9268 103.39 45.9135 103.036 46.2865 102.676C46.5353 102.461 46.8359 102.315 47.1585 102.252C47.4811 102.19 47.8143 102.214 48.1249 102.321C48.7169 102.552 49.2227 102.962 49.5726 103.494C49.8396 103.885 49.9501 104.155 49.913 104.179Z" fill="#996552"/>
<path d="M45.9478 106.188C45.9153 106.162 46.0272 105.938 46.3373 105.689C46.7514 105.366 47.2612 105.192 47.7856 105.193C48.31 105.196 48.8185 105.374 49.23 105.701C49.538 105.952 49.6485 106.177 49.6154 106.202C49.5823 106.228 49.4048 106.079 49.0935 105.901C48.6948 105.671 48.2443 105.546 47.7843 105.538C47.3242 105.542 46.8727 105.664 46.4725 105.891C46.1598 106.065 45.9869 106.223 45.9478 106.188Z" fill="#996552"/>
<path d="M45.9478 108.532C45.9153 108.506 46.0272 108.282 46.3373 108.033C46.7514 107.71 47.2612 107.536 47.7856 107.537C48.31 107.54 48.8185 107.719 49.23 108.045C49.538 108.296 49.6485 108.521 49.6154 108.546C49.5823 108.572 49.4048 108.423 49.0935 108.245C48.6948 108.015 48.2443 107.89 47.7843 107.882C47.3242 107.886 46.8727 108.008 46.4725 108.235C46.1598 108.41 45.9869 108.567 45.9478 108.532Z" fill="#996552"/>
<path d="M72.5283 96.8586L74.7101 99.2294C74.7101 99.2294 75.4388 132.785 76.7102 137.343C77.9815 141.902 85.4383 149.562 89.4379 143.361C93.4376 137.16 83.4381 97.5882 83.4381 97.5882C83.4381 97.5882 80.7106 88.4703 80.5284 86.2822L72.5283 96.8586Z" fill="#B78876"/>
<path d="M77.5348 77.4241L76.6735 100.604C76.6433 101.418 76.408 102.212 75.9893 102.91C75.5706 103.608 74.9821 104.188 74.2791 104.597L67.3181 108.635C66.88 108.89 66.3829 109.024 65.8768 109.024C65.3707 109.024 64.8734 108.891 64.435 108.637C63.9966 108.383 63.6325 108.018 63.3794 107.579C63.1263 107.139 62.9931 106.641 62.9932 106.133V84.6708C62.9933 84.0725 63.153 83.4851 63.4559 82.9697C63.7588 82.4543 64.1938 82.0297 64.7156 81.7398L75.1344 75.9456C75.3851 75.8067 75.6682 75.737 75.9545 75.7436C76.2408 75.7502 76.5202 75.8329 76.7642 75.9832C77.0083 76.1335 77.2082 76.3461 77.3436 76.5992C77.479 76.8524 77.545 77.137 77.5348 77.4241Z" fill="#455A64"/>
<path d="M69.5302 83.5331C69.4409 83.7153 69.3882 83.9133 69.3752 84.1158C69.3623 84.3184 69.3893 84.5215 69.4546 84.7136C69.52 84.9057 69.6225 85.083 69.7561 85.2354C69.8898 85.3877 70.0521 85.5122 70.2338 85.6016C70.4154 85.6912 70.6128 85.744 70.8148 85.757C71.0167 85.77 71.2193 85.7429 71.4108 85.6774C71.6024 85.6119 71.7791 85.5091 71.931 85.375C72.0829 85.241 72.2071 85.0782 72.2962 84.896C72.3855 84.7138 72.4381 84.5158 72.451 84.3133C72.464 84.1107 72.4371 83.9076 72.3718 83.7155C72.3064 83.5234 72.204 83.3461 72.0703 83.1937C71.9366 83.0413 71.7743 82.9169 71.5926 82.8274C71.411 82.7379 71.2136 82.6851 71.0116 82.6721C70.8097 82.6591 70.6071 82.6862 70.4156 82.7517C70.2241 82.8172 70.0473 82.92 69.8954 83.054C69.7435 83.1881 69.6194 83.3509 69.5302 83.5331Z" fill="#FAFAFA"/>
<path d="M80.5272 86.2821C80.5272 86.2821 75.3727 79.1198 74.2292 79.1796C73.0857 79.2394 67.5484 82.5604 67.7889 83.2847C68.0293 84.009 69.1735 84.4316 70.1965 83.9492C71.2194 83.4668 73.0254 81.7152 73.4468 82.0773C73.8682 82.4395 75.0719 83.7073 75.0719 83.7073C75.0719 83.7073 69.9823 86.3127 69.5948 87.3293C69.1973 88.3692 68.2698 90.1666 69.4743 90.8304C70.2587 91.2629 71.5207 90.7699 72.0024 88.7174C72.0024 88.7174 71.0391 91.6756 72.5271 92.3998C74.1284 93.1799 74.6207 91.536 75.9146 89.9247C77.0024 88.5679 77.4921 90.2948 77.4921 90.2948L80.5272 86.2821Z" fill="#AA8776"/>
<path d="M76.625 86.3433C76.3135 86.397 75.9984 86.4277 75.6824 86.435C74.9431 86.5245 74.2335 86.7803 73.6067 87.1832C72.9862 87.5962 72.4668 88.1445 72.0875 88.7872C71.9529 89.0744 71.7978 89.3516 71.6236 89.6165C71.6151 89.2849 71.7013 88.9577 71.8721 88.6736C72.214 87.949 72.7489 87.3332 73.4177 86.8942C74.0878 86.4575 74.865 86.2145 75.6638 86.1919C75.9921 86.1502 76.3253 86.2027 76.625 86.3433Z" fill="#996552"/>
<path d="M33.2165 39.2504L33.2225 42.2366L33.0284 86.9439C33.0059 92.1341 37.4375 96.287 42.9788 96.2684C48.5751 96.2498 53.1962 91.9886 53.3048 86.7459C53.4194 81.2428 53.6401 75.45 53.6401 75.45C53.6401 75.45 60.729 74.3988 62.3575 65.1753C63.1671 60.5905 63.0704 53.0428 62.7928 46.8712C62.7345 45.5543 62.411 44.2629 61.8419 43.0747C61.2728 41.8866 60.4697 40.8262 59.4812 39.9575C58.4926 39.0889 57.339 38.4299 56.0898 38.0203C54.8406 37.6106 53.5216 37.4588 52.2124 37.574L33.2165 39.2504Z" fill="#B78876"/>
<path d="M60.6237 52.5026C60.6212 52.8118 60.4982 53.1078 60.2813 53.3275C60.0644 53.5472 59.7704 53.6732 59.4622 53.6787C59.3115 53.6881 59.1605 53.6672 59.018 53.6171C58.8755 53.567 58.7445 53.4889 58.6326 53.3872C58.5207 53.2855 58.4302 53.1624 58.3665 53.025C58.3029 52.8877 58.2672 52.739 58.2617 52.5877C58.2642 52.2787 58.387 51.9828 58.6037 51.763C58.8203 51.5433 59.1137 51.4169 59.4218 51.4109C59.5726 51.4015 59.7238 51.4225 59.8664 51.4726C60.009 51.5227 60.1402 51.6009 60.2522 51.7026C60.3642 51.8044 60.4548 51.9276 60.5186 52.065C60.5824 52.2024 60.6182 52.3512 60.6237 52.5026Z" fill="#2E353A"/>
<path d="M61.0916 50.7684C60.9419 50.9199 60.0574 50.2368 58.7847 50.2202C57.514 50.1823 56.5679 50.8222 56.4328 50.6634C56.3665 50.5929 56.521 50.3165 56.9324 50.0268C57.49 49.6538 58.1491 49.4629 58.8192 49.4806C59.481 49.4898 60.1226 49.7102 60.651 50.1099C61.0372 50.4182 61.1645 50.6999 61.0916 50.7684Z" fill="#2E353A"/>
<path d="M48.5698 52.2859C48.5671 52.5952 48.4442 52.8912 48.2271 53.1108C48.0101 53.3305 47.716 53.4565 47.4077 53.4621C47.257 53.4714 47.1061 53.4504 46.9637 53.4003C46.8213 53.3501 46.6902 53.2719 46.5784 53.1703C46.4666 53.0686 46.3763 52.9454 46.3127 52.8082C46.249 52.6709 46.2135 52.5223 46.208 52.371C46.2104 52.0618 46.3328 51.7659 46.5495 51.5459C46.7661 51.326 47.0599 51.1996 47.3681 51.1936C47.5189 51.1842 47.6701 51.2053 47.8127 51.2554C47.9553 51.3056 48.0865 51.3839 48.1985 51.4857C48.3105 51.5875 48.4009 51.7107 48.4647 51.8482C48.5285 51.9856 48.5643 52.1344 48.5698 52.2859Z" fill="#2E353A"/>
<path d="M48.5777 50.7837C48.4279 50.9352 47.5422 50.2521 46.2708 50.2355C45.0001 50.1976 44.054 50.8375 43.9182 50.6787C43.8519 50.6083 44.0049 50.3319 44.4183 50.0422C44.9758 49.6692 45.6348 49.4784 46.3046 49.496C46.9666 49.505 47.6085 49.7254 48.1371 50.1252C48.522 50.4335 48.6506 50.7153 48.5777 50.7837Z" fill="#2E353A"/>
<path d="M53.0287 60.3321C53.7031 60.1329 54.3997 60.0195 55.1023 59.9946C55.4276 59.9667 55.7371 59.9075 55.7954 59.6863C55.8291 59.3501 55.7597 59.0117 55.5966 58.7161C55.3051 57.9219 54.9993 57.0889 54.679 56.2171C53.407 52.6595 52.4927 49.7365 52.6358 49.6867C52.7789 49.6368 53.9264 52.4775 55.1984 56.037C55.5036 56.9141 55.7958 57.7518 56.0749 58.55C56.2726 58.9469 56.3242 59.4011 56.2207 59.8324C56.1713 59.9462 56.097 60.0472 56.0029 60.1278C55.9089 60.2083 55.7979 60.2664 55.6782 60.2976C55.4972 60.3427 55.3114 60.3651 55.125 60.364C54.4277 60.4423 53.7233 60.4316 53.0287 60.3321Z" fill="#2E353A"/>
<path d="M53.642 75.4526C49.2985 75.4423 45.0431 74.2231 41.3496 71.9309C41.3496 71.9309 44.2335 78.3384 53.4789 77.6374L53.642 75.4526Z" fill="#996552"/>
<path d="M52.4363 63.3997C52.1995 63.0896 51.8878 62.8451 51.5307 62.6892C51.1736 62.5333 50.7827 62.4712 50.395 62.5087C50.1141 62.5293 49.8403 62.6065 49.5899 62.7358C49.3394 62.865 49.1175 63.0436 48.9375 63.2609C48.7633 63.4704 48.6574 63.7286 48.6346 64.0004C48.6117 64.2723 48.6729 64.5447 48.8097 64.7805C49.0102 65.0133 49.2752 65.1808 49.5711 65.2615C49.867 65.3422 50.1802 65.3325 50.4706 65.2337C51.0755 65.0307 51.6345 64.7095 52.1151 64.2888C52.2604 64.1893 52.3857 64.0633 52.4847 63.9173C52.5328 63.8478 52.5592 63.7655 52.5604 63.6808C52.5615 63.5962 52.5375 63.5131 52.4913 63.4423" fill="#996552"/>
<path d="M49.2695 61.1481C49.4768 61.1394 49.455 62.5255 50.6197 63.5295C51.7844 64.5335 53.2578 64.4079 53.2651 64.602C53.283 64.689 52.9339 64.8677 52.3111 64.8677C51.5016 64.8647 50.719 64.5756 50.101 64.0511C49.5087 63.5474 49.1344 62.8327 49.0574 62.0577C49.013 61.4789 49.1734 61.1408 49.2695 61.1481Z" fill="#2E353A"/>
<path d="M22.1067 91.3813C25.7654 91.6585 29.3927 90.5331 32.2564 88.2324C35.12 85.9318 37.0067 82.6271 37.5355 78.9856C37.611 78.3546 37.7522 77.7333 37.9568 77.1318C38.9758 74.4015 39.0978 71.4161 38.3052 68.6113C37.9627 67.3169 37.4726 65.8996 38.0589 64.6969C38.4842 63.8238 39.3765 63.3015 40.1066 62.6623C41.7201 61.1553 42.6944 59.0839 42.8277 56.8768C42.9484 54.6858 42.5877 52.495 41.771 50.4593C41.353 49.3298 40.8435 48.0958 41.2688 46.9702C41.6555 46.2095 42.2165 45.5516 42.9058 45.0506C44.2419 43.8427 45.3524 42.4055 46.1853 40.8066C47.03 39.1833 47.5767 37.0743 45.3738 35.7872C44.9079 35.5239 44.3971 35.35 43.8678 35.2742C39.9695 34.6683 35.3213 35.2503 32.7123 38.3308C30.5843 40.8385 30.2822 44.3774 30.0762 47.6626C29.4282 58.0156 12.3385 77.25 18.9458 91.4291L22.1067 91.3813Z" fill="#2E353A"/>
<path d="M48.9955 45.7867C48.863 46.1316 47.5964 45.9442 46.1004 46.0983C44.6004 46.2219 43.3887 46.6392 43.1959 46.3243C43.1104 46.1734 43.3283 45.8512 43.8186 45.5236C44.4724 45.1158 45.2138 44.8703 45.9812 44.8073C46.7457 44.7287 47.5178 44.8339 48.2337 45.1143C48.7816 45.3455 49.0525 45.6233 48.9955 45.7867Z" fill="#2E353A"/>
<path d="M60.6889 47.0658C60.4597 47.3515 59.5885 47.0346 58.5345 46.9994C57.4817 46.9296 56.5839 47.1595 56.3839 46.8525C56.2964 46.7037 56.4422 46.4159 56.8371 46.1482C57.3637 45.8206 57.9789 45.6655 58.5974 45.7043C59.2166 45.7257 59.8138 45.9401 60.3059 46.3176C60.673 46.6253 60.7903 46.9256 60.6889 47.0658Z" fill="#2E353A"/>
<path d="M176.685 14.7563C177.313 13.4051 178.297 12.252 179.532 11.4217C180.766 10.5914 182.204 10.1156 183.689 10.0458C185.175 10.0158 186.641 10.3942 187.929 11.1401C189.216 11.8859 190.276 12.9708 190.992 14.2772C191.819 15.8367 192.145 17.6946 193.34 18.9949C194.112 19.7839 195.138 20.2733 196.235 20.3762C197.333 20.4791 198.431 20.1889 199.336 19.557C199.548 20.5138 199.408 21.5149 198.943 22.3767C198.477 23.2384 197.718 23.9029 196.803 24.2482L199.733 24.5499C198.152 28.0091 193.824 29.5938 190.081 28.9181C186.339 28.2423 183.159 25.7605 180.613 22.9379" fill="#263238"/>
<path d="M176.706 14.8049L185.744 17.773C188.959 19.8701 191.403 22.9634 192.704 26.5819C193.126 27.8052 193.414 29.0776 193.949 30.2564C194.432 31.472 195.335 32.472 196.495 33.0724C197.362 33.4618 198.35 33.5063 199.239 33.8366C199.988 34.1341 200.655 34.6081 201.183 35.2185C201.711 35.829 202.085 36.5578 202.272 37.3436C202.448 38.1308 202.466 38.9451 202.325 39.7393C202.184 40.5335 201.888 41.2918 201.453 41.9703C201.024 42.6527 200.454 43.3152 200.417 44.1199C200.452 44.6644 200.564 45.2012 200.748 45.7146C200.947 46.6232 200.859 47.5713 200.498 48.4281C200.137 49.285 199.52 50.0084 198.732 50.4988C197.924 50.9588 196.993 51.1571 196.068 51.0666C195.143 50.9761 194.269 50.6012 193.564 49.9931C192.986 51.322 192.217 52.6942 190.908 53.3208C189.599 53.9474 187.667 53.3872 187.397 51.9586C187.054 52.6379 186.503 53.1895 185.826 53.5331C185.148 53.8768 184.379 53.9944 183.63 53.8689C182.888 53.7116 182.215 53.3201 181.711 52.7517C181.206 52.1833 180.896 51.4679 180.826 50.7101L156.058 23.6144C159.754 13.7005 174.211 14.5763 176.706 14.8049Z" fill="#263238"/>
<path d="M180.901 24.2295C181.669 24.3097 182.379 24.6762 182.89 25.2563C183.402 25.8365 183.678 26.5881 183.663 27.3624L181.914 69.0824C181.848 74.0094 172.911 79.8355 167.638 79.7238C162.312 79.6122 163.878 73.9583 163.801 69.2711C163.673 61.4403 163.675 58.5007 163.673 58.5459C163.673 58.5459 156.944 57.4283 155.549 48.6453C154.856 44.2778 155.076 37.1168 155.444 31.2629C155.775 25.9943 159.266 19.5303 164.514 20.0852L180.901 24.2295Z" fill="#FFBE9D"/>
<path d="M157.726 36.9486C157.724 37.2424 157.836 37.5255 158.039 37.7376C158.241 37.9498 158.519 38.0743 158.811 38.0848C158.955 38.0964 159.098 38.0792 159.235 38.0341C159.371 37.989 159.497 37.9171 159.605 37.8225C159.713 37.7279 159.801 37.6125 159.865 37.4832C159.928 37.3539 159.964 37.2133 159.972 37.0695C159.974 36.7766 159.862 36.4945 159.66 36.2827C159.458 36.071 159.182 35.9462 158.89 35.9346C158.747 35.9227 158.603 35.9396 158.466 35.9844C158.33 36.0292 158.203 36.1009 158.095 36.1954C157.986 36.2899 157.898 36.4052 157.834 36.5346C157.771 36.6639 157.734 36.8047 157.726 36.9486Z" fill="#263238"/>
<path d="M156.997 34.9885C157.137 35.136 157.991 34.5041 159.201 34.5074C160.412 34.4934 161.301 35.1167 161.433 34.9685C161.499 34.9021 161.355 34.6363 160.969 34.3552C160.445 33.9918 159.821 33.7997 159.184 33.805C158.553 33.8024 157.939 34.0007 157.429 34.3712C157.055 34.6576 156.929 34.9233 156.997 34.9885Z" fill="#263238"/>
<path d="M169.569 36.9488C169.567 37.2426 169.68 37.5257 169.883 37.7378C170.085 37.9499 170.362 38.0745 170.655 38.085C170.798 38.0965 170.942 38.0792 171.078 38.0341C171.215 37.989 171.341 37.917 171.449 37.8224C171.557 37.7279 171.645 37.6125 171.708 37.4833C171.771 37.354 171.808 37.2134 171.816 37.0697C171.818 36.7758 171.706 36.4925 171.504 36.2801C171.301 36.0677 171.024 35.9429 170.731 35.9321C170.588 35.9207 170.444 35.938 170.307 35.9832C170.171 36.0284 170.045 36.1004 169.937 36.1951C169.828 36.2899 169.74 36.4053 169.677 36.5348C169.614 36.6642 169.577 36.8049 169.569 36.9488Z" fill="#263238"/>
<path d="M168.906 35.2152C169.046 35.362 169.9 34.7308 171.111 34.7341C172.321 34.7195 173.211 35.3434 173.342 35.1946C173.408 35.1281 173.266 34.8623 172.878 34.5819C172.354 34.2183 171.73 34.0259 171.093 34.0311C170.463 34.0291 169.848 34.2275 169.338 34.5979C168.965 34.8836 168.838 35.1494 168.906 35.2152Z" fill="#263238"/>
<path d="M164.51 44.2034C163.871 44.0029 163.21 43.8835 162.542 43.8479C162.233 43.816 161.94 43.7548 161.887 43.5435C161.862 43.2237 161.934 42.9035 162.094 42.6259L163.009 40.2697C164.28 36.9141 165.199 34.1566 165.063 34.1055C164.926 34.0543 163.788 36.7341 162.517 40.0896C162.212 40.9167 161.919 41.707 161.64 42.4605C161.446 42.8337 161.389 43.2639 161.48 43.6751C161.525 43.7844 161.594 43.8821 161.682 43.9605C161.77 44.0389 161.875 44.0961 161.989 44.1276C162.16 44.174 162.337 44.1986 162.514 44.2007C163.177 44.2862 163.847 44.2871 164.51 44.2034Z" fill="#263238"/>
<path d="M163.673 58.5458C167.806 58.6088 171.875 57.5228 175.431 55.4082C175.431 55.4082 172.578 61.4409 163.791 60.619L163.673 58.5458Z" fill="#EB996E"/>
<path d="M165.023 47.1243C165.254 46.8338 165.554 46.607 165.897 46.4651C166.239 46.3232 166.612 46.2708 166.98 46.313C167.247 46.3369 167.506 46.4147 167.743 46.5416C167.979 46.6686 168.188 46.8421 168.356 47.0519C168.518 47.2537 168.614 47.5005 168.631 47.7589C168.648 48.0174 168.586 48.2748 168.452 48.4964C168.257 48.7145 168.001 48.8693 167.718 48.9409C167.435 49.0126 167.137 48.9978 166.862 48.8984C166.29 48.6957 165.764 48.3814 165.313 47.9735C165.177 47.8768 165.059 47.7553 164.967 47.6153C164.922 47.5486 164.898 47.4701 164.898 47.3897C164.898 47.3094 164.922 47.2309 164.967 47.1642" fill="#EB996E"/>
<path d="M168.075 45.0419C167.876 45.0306 167.876 46.3456 166.75 47.2798C165.624 48.2141 164.225 48.0685 164.215 48.2526C164.196 48.335 164.527 48.5084 165.118 48.5244C165.888 48.5352 166.638 48.2739 167.235 47.7861C167.808 47.3183 168.176 46.6453 168.262 45.9097C168.312 45.3602 168.165 45.0339 168.075 45.0419Z" fill="#263238"/>
<path d="M168.364 33.0928C168.484 33.425 169.693 33.2662 171.114 33.4376C172.539 33.5805 173.686 33.9971 173.874 33.7034C173.959 33.5619 173.759 33.2516 173.295 32.9326C172.68 32.5345 171.978 32.289 171.25 32.2163C170.522 32.1285 169.784 32.2153 169.097 32.4695C168.574 32.6788 168.311 32.9366 168.364 33.0928Z" fill="#263238"/>
<path d="M157.443 31.4827C157.656 31.7578 158.491 31.4721 159.497 31.4588C160.5 31.4097 161.352 31.6436 161.546 31.3558C161.632 31.2156 161.499 30.9399 161.127 30.6794C160.631 30.3593 160.048 30.2016 159.459 30.2282C158.87 30.2381 158.298 30.4316 157.823 30.7817C157.466 31.0635 157.349 31.3499 157.443 31.4827Z" fill="#263238"/>
<path d="M182.691 38.2772C183.047 38.0827 183.449 37.9905 183.854 38.0108C184.26 38.0311 184.651 38.163 184.986 38.3921C185.783 38.8791 186.394 39.6192 186.723 40.4947C187.053 41.3702 187.081 42.3309 186.803 43.2241C186.479 44.1028 185.872 44.8481 185.079 45.3423C184.285 45.8365 183.35 46.0515 182.421 45.9531" fill="#FFBE9D"/>
<path d="M168.889 17.1609C165.689 17.2673 163.262 18.2407 160.454 19.7776C159.03 20.5149 157.765 21.5267 156.732 22.7549C155.699 23.9831 154.917 25.4037 154.432 26.9353C154.309 27.2523 154.251 27.5913 154.263 27.9314C154.276 28.2715 154.357 28.6054 154.503 28.9127C154.782 29.2659 155.175 29.5108 155.614 29.6056C156.053 29.7004 156.511 29.6391 156.91 29.4323C157.698 28.9955 158.369 28.376 158.869 27.6256C159.097 28.4301 159.578 29.1391 160.241 29.6469C160.903 30.1546 161.712 30.4339 162.546 30.443C163.379 30.4153 164.181 30.1181 164.832 29.5958C165.483 29.0734 165.949 28.3539 166.159 27.5446C166.229 28.3872 166.619 29.1704 167.249 29.7324C167.879 30.2944 168.7 30.5921 169.543 30.5639C170.384 30.4907 171.186 30.1725 171.85 29.6484C172.514 29.1243 173.011 28.4171 173.279 27.6137C173.489 29.1354 174.015 30.596 174.824 31.9008C175.72 33.1421 177.341 33.9952 178.799 33.5208C178.593 34.8298 178.393 36.2079 178.856 37.4485C179.32 38.6891 180.699 39.6944 181.952 39.2638C183.168 38.8459 183.64 37.4033 183.925 36.1501C184.549 33.7465 184.865 31.2729 184.865 28.7891C184.86 26.2888 184.07 23.8537 182.608 21.8288C180.949 19.8398 178.691 18.4466 176.173 17.86C173.668 17.2843 171.098 17.0503 168.532 17.1643" fill="#263238"/>
<path d="M183.305 43.3336C183.33 43.2712 183.646 43.4081 184.07 43.2134C184.327 43.0644 184.536 42.8429 184.67 42.5763C184.804 42.3097 184.857 42.0095 184.823 41.713C184.82 41.4126 184.729 41.1195 184.563 40.8696C184.397 40.6196 184.162 40.4234 183.887 40.305C183.447 40.1249 183.123 40.2126 183.106 40.1448C183.074 40.1016 183.404 39.8684 183.983 39.998C184.319 40.0797 184.62 40.2675 184.841 40.5335C185.108 40.8614 185.261 41.2672 185.277 41.6897C185.321 42.0732 185.237 42.4604 185.039 42.7909C184.84 43.1214 184.538 43.3765 184.179 43.5164C183.582 43.6732 183.258 43.3689 183.305 43.3336Z" fill="#EB996E"/>
<path d="M183.567 47.0228C184.199 47.0228 184.712 46.5099 184.712 45.8772C184.712 45.2446 184.199 44.7317 183.567 44.7317C182.934 44.7317 182.422 45.2446 182.422 45.8772C182.422 46.5099 182.934 47.0228 183.567 47.0228Z" fill="#E8505B"/>
<path d="M176.823 14.3596C177.281 14.2035 177.768 14.1477 178.249 14.1961C179.42 14.2492 180.561 14.5844 181.576 15.1735C182.594 15.7581 183.455 16.5803 184.088 17.5703C184.371 17.9642 184.566 18.4141 184.661 18.8899C184.604 18.9145 184.391 18.4095 183.886 17.7078C183.221 16.7988 182.376 16.0379 181.404 15.4732C180.429 14.9134 179.349 14.5619 178.232 14.4406C177.374 14.3536 176.831 14.42 176.823 14.3596Z" fill="#E8505B"/>
<path d="M181.415 14.3641C181.389 14.2742 181.379 14.1805 181.384 14.087C181.389 13.8181 181.446 13.5526 181.552 13.3056C181.767 12.8554 182.084 12.4618 182.477 12.1562C182.871 11.8506 183.33 11.6415 183.819 11.5455C185.072 11.2033 186.657 11.8471 187.758 13.0618C188.337 13.6987 188.819 14.4185 189.187 15.1974C189.577 15.9947 189.894 16.8585 190.231 17.7224C190.539 18.5653 190.915 19.3814 191.357 20.1623C191.774 20.8753 192.314 21.508 192.952 22.0308C193.522 22.5044 194.206 22.8172 194.936 22.9371C195.572 23.0293 196.221 22.9386 196.808 22.6753C197.672 22.2866 198.371 21.604 198.781 20.7483C198.909 20.4228 199.017 20.09 199.105 19.7516C199.118 19.8436 199.117 19.9373 199.099 20.0287C199.067 20.2932 199.001 20.5526 198.905 20.8008C198.521 21.7228 197.809 22.4691 196.908 22.8952C196.283 23.1949 195.584 23.3071 194.896 23.2182C194.112 23.104 193.372 22.7794 192.756 22.2786C192.081 21.7383 191.509 21.0796 191.068 20.3344C190.613 19.5393 190.226 18.7068 189.911 17.846C189.254 16.107 188.618 14.4399 187.526 13.2777C186.482 12.1089 185.033 11.4983 183.871 11.784C183.41 11.8645 182.974 12.0481 182.594 12.321C182.214 12.594 181.9 12.9494 181.676 13.3608C181.536 13.6793 181.449 14.018 181.415 14.3641Z" fill="#455A64"/>
<path d="M164.873 27.9267C164.862 27.9267 164.842 27.8456 164.816 27.6855C164.776 27.4525 164.749 27.2173 164.736 26.9811C164.678 26.1093 164.733 25.2337 164.898 24.3758C165.14 23.0975 165.594 21.8688 166.24 20.7405C167.036 19.3528 168.12 18.1538 169.42 17.2254C170.726 16.314 172.188 15.653 173.734 15.2759C174.987 14.9489 176.283 14.816 177.577 14.8819C178.447 14.9176 179.309 15.0741 180.137 15.347C180.362 15.4189 180.582 15.5064 180.794 15.6088C180.942 15.6752 181.016 15.7164 181.012 15.7271C179.894 15.3766 178.736 15.1737 177.567 15.1237C176.3 15.0941 175.036 15.2483 173.813 15.5815C172.312 15.9676 170.892 16.6202 169.62 17.5085C168.36 18.4098 167.303 19.5661 166.517 20.9026C165.875 21.996 165.41 23.1847 165.14 24.4243C164.923 25.5784 164.833 26.7529 164.873 27.9267Z" fill="#455A64"/>
<path d="M170.404 27.3354C170.362 27.1099 170.354 26.8795 170.38 26.6516C170.409 26.0292 170.494 25.4107 170.635 24.8038C171.099 22.7811 172.081 20.9149 173.484 19.3897C174.897 17.8729 176.679 16.7508 178.655 16.1338C179.248 15.946 179.857 15.8125 180.473 15.7351C180.698 15.6914 180.927 15.6817 181.154 15.7065C181.164 15.773 180.193 15.8514 178.732 16.363C176.83 17.0303 175.117 18.1471 173.736 19.6189C172.375 21.1078 171.392 22.9046 170.872 24.8563C170.473 26.3626 170.469 27.3407 170.404 27.3354Z" fill="#455A64"/>
<path d="M168.89 79.2109C166.974 73.3184 162.286 67.317 157.134 69.4825C151.402 71.8925 149.808 74.9457 146.667 79.6781C143.525 84.4104 141.598 89.8258 139.702 95.1808C138.96 97.2752 138.244 99.7044 139.381 101.613C140.363 103.259 142.383 103.909 144.233 104.404C149.008 105.677 153.826 106.767 158.688 107.674C160.637 108.038 162.774 108.342 164.498 107.362C166.684 106.117 167.353 103.328 167.81 100.85L172.61 74.7683" fill="#E8505B"/>
<path d="M163.376 66.6552L155.835 69.9164C152.023 72.9264 150.945 78.0821 151.075 82.94L147.939 136.189C147.939 136.189 169.935 149.825 195.641 135.565C196.311 135.194 191.338 123.015 191.338 123.015L198.339 96.4247C198.878 92.6013 199.208 84.6749 198.213 80.9127C195.661 71.2613 188.837 68.3748 181.827 66.4419C181.827 66.4419 174.815 72.3417 167.975 71.0985C167.975 71.0985 163.802 70.7098 163.376 66.6552Z" fill="#E8505B"/>
<g opacity="0.2">
<g opacity="0.2">
<g opacity="0.2">
<path opacity="0.2" d="M153.248 110.987L166.3 129.957C168.001 132.429 169.769 134.968 172.294 136.586C174.152 137.737 176.299 138.336 178.483 138.313C180.668 138.291 182.801 137.647 184.636 136.458C186.433 135.212 187.841 133.481 188.697 131.466C189.553 129.45 189.822 127.232 189.473 125.07C189.418 124.552 189.217 124.061 188.893 123.654C188.595 123.387 188.23 123.206 187.838 123.131C187.445 123.056 187.039 123.089 186.664 123.227C185.919 123.511 185.204 123.869 184.53 124.296C180.433 126.478 175.228 125.306 171.383 122.702C167.539 120.098 164.721 116.278 161.776 112.681C160.687 111.352 159.498 109.988 157.888 109.395C156.277 108.802 154.139 109.286 153.457 110.866" fill="black"/>
</g>
</g>
</g>
<path d="M175.229 84.8981C177.718 84.8981 179.735 82.8799 179.735 80.3903C179.735 77.9008 177.718 75.8826 175.229 75.8826C172.741 75.8826 170.724 77.9008 170.724 80.3903C170.724 82.8799 172.741 84.8981 175.229 84.8981Z" fill="white"/>
<path d="M154.228 76.5437C154.229 77.7406 154.705 78.8879 155.549 79.7332C156.394 80.5785 157.539 81.0527 158.733 81.0515C159.324 81.0522 159.909 80.9361 160.455 80.71C161.001 80.4838 161.498 80.152 161.916 79.7334C162.334 79.3148 162.666 78.8177 162.893 78.2704C163.12 77.7231 163.237 77.1364 163.238 76.5437C163.236 75.3469 162.761 74.1997 161.916 73.3545C161.071 72.5092 159.926 72.0352 158.733 72.0366C157.539 72.0352 156.394 72.5092 155.549 73.3545C154.705 74.1997 154.229 75.3469 154.228 76.5437Z" fill="white"/>
<path d="M150.592 119.706C150.593 120.903 151.069 122.05 151.914 122.895C152.759 123.74 153.904 124.214 155.097 124.213C156.29 124.214 157.435 123.74 158.28 122.895C159.125 122.05 159.6 120.903 159.602 119.706C159.601 119.113 159.484 118.526 159.258 117.979C159.031 117.432 158.699 116.935 158.28 116.516C157.862 116.098 157.366 115.766 156.819 115.54C156.273 115.313 155.688 115.197 155.097 115.198C154.506 115.197 153.921 115.313 153.375 115.54C152.828 115.766 152.332 116.098 151.914 116.516C151.495 116.935 151.163 117.432 150.936 117.979C150.71 118.526 150.592 119.113 150.592 119.706Z" fill="white"/>
<path d="M163.24 137.191C165.729 137.191 167.746 135.173 167.746 132.683C167.746 130.194 165.729 128.176 163.24 128.176C160.752 128.176 158.734 130.194 158.734 132.683C158.734 135.173 160.752 137.191 163.24 137.191Z" fill="white"/>
<path d="M184.242 138.284C186.731 138.284 188.748 136.266 188.748 133.777C188.748 131.287 186.731 129.269 184.242 129.269C181.754 129.269 179.736 131.287 179.736 133.777C179.736 136.266 181.754 138.284 184.242 138.284Z" fill="white"/>
<path d="M166.449 110.533C168.938 110.533 170.955 108.514 170.955 106.025C170.955 103.535 168.938 101.517 166.449 101.517C163.961 101.517 161.943 103.535 161.943 106.025C161.943 108.514 163.961 110.533 166.449 110.533Z" fill="white"/>
<path d="M161.942 96.3204C164.431 96.3204 166.448 94.3022 166.448 91.8127C166.448 89.3231 164.431 87.3049 161.942 87.3049C159.454 87.3049 157.437 89.3231 157.437 91.8127C157.437 94.3022 159.454 96.3204 161.942 96.3204Z" fill="white"/>
<path d="M161.943 67.7503C162.544 68.8334 163.329 69.8033 164.262 70.6168C165.295 71.4675 166.481 72.1127 167.756 72.5178C169.314 73.0196 170.96 73.1875 172.587 73.0109C174.214 72.8041 175.795 72.3241 177.263 71.5909C178.467 70.9942 179.605 70.2733 180.66 69.44C181.376 68.8798 182.063 68.2837 182.719 67.6539C182.948 67.4089 183.196 67.1819 183.459 66.9749C183.271 67.2542 183.055 67.5136 182.814 67.749C182.19 68.4208 181.521 69.0497 180.813 69.6314C179.763 70.5048 178.62 71.2579 177.404 71.8766C175.909 72.6438 174.293 73.1439 172.627 73.3544C170.951 73.5376 169.257 73.3563 167.658 72.8228C166.352 72.3923 165.144 71.7064 164.104 70.8048C163.404 70.1998 162.812 69.4791 162.355 68.6739C162.228 68.4575 162.117 68.2321 162.024 67.9995C161.961 67.84 161.932 67.755 161.943 67.7503Z" fill="#263238"/>
<path d="M184.645 67.4419C189.798 69.6027 195.16 71.9151 198.719 76.2235C202.336 80.6023 203.596 86.5527 203.333 92.2272C203.07 97.9018 201.422 103.41 199.788 108.85C199.148 110.976 198.289 113.361 196.244 114.226C194.48 114.973 192.468 114.304 190.679 113.607C186.076 111.81 181.545 109.839 177.088 107.693C175.299 106.834 173.398 105.815 172.588 104.006C171.558 101.707 172.668 99.0633 173.765 96.7961C177.613 88.838 181.462 80.8801 185.31 72.9224" fill="#E8505B"/>
<path d="M195.639 99.4872C198.127 99.4872 200.144 97.469 200.144 94.9794C200.144 92.4899 198.127 90.4717 195.639 90.4717C193.15 90.4717 191.133 92.4899 191.133 94.9794C191.133 97.469 193.15 99.4872 195.639 99.4872Z" fill="white"/>
<path d="M183.706 107.727C186.194 107.727 188.212 105.709 188.212 103.219C188.212 100.73 186.194 98.7117 183.706 98.7117C181.217 98.7117 179.2 100.73 179.2 103.219C179.2 105.709 181.217 107.727 183.706 107.727Z" fill="white"/>
<path d="M184.898 81.0934C184.899 81.6746 185.014 82.25 185.236 82.7866C185.459 83.3233 185.784 83.8108 186.195 84.2213C186.605 84.6317 187.092 84.9571 187.628 85.1788C188.163 85.4005 188.737 85.5142 189.317 85.5134C189.896 85.5141 190.47 85.4004 191.006 85.1786C191.541 84.9569 192.028 84.6315 192.438 84.221C192.849 83.8106 193.174 83.3231 193.397 82.7865C193.619 82.2499 193.734 81.6745 193.734 81.0934C193.734 80.5122 193.619 79.9369 193.397 79.4003C193.174 78.8636 192.849 78.3762 192.438 77.9657C192.028 77.5553 191.541 77.2299 191.006 77.0082C190.47 76.7864 189.896 76.6726 189.317 76.6733C188.737 76.6726 188.163 76.7863 187.628 77.008C187.092 77.2297 186.605 77.5551 186.195 77.9655C185.784 78.376 185.459 78.8634 185.236 79.4001C185.014 79.9368 184.899 80.5122 184.898 81.0934Z" fill="white"/>
<path d="M175.742 107L174.593 111.437L151.698 94.7003L144.687 84.7067C143.748 83.3689 142.329 82.4474 140.728 82.1352C139.887 81.9705 139.021 81.9788 138.184 82.1598C137.346 82.3407 136.553 82.6904 135.855 83.1877L129.332 87.8297C129.332 87.8297 129.508 91.3514 131.093 90.6484C132.678 89.9454 135.848 88.1819 135.848 88.1819L136.728 96.6385L140.603 99.4572L144.477 102.452L170.328 128.189C171.622 129.476 173.202 130.438 174.938 130.996C176.674 131.553 178.517 131.69 180.316 131.396C182.115 131.102 183.819 130.385 185.289 129.303C186.758 128.221 187.951 126.806 188.771 125.173L192.602 114.264L175.742 107Z" fill="#FFBE9D"/>
<path d="M174.016 110.804C174.389 110.901 174.724 111.108 174.978 111.398C175.633 112.053 176.097 112.875 176.317 113.777C176.53 114.662 176.613 115.573 176.565 116.482C176.584 116.858 176.539 117.235 176.432 117.596C176.344 117.232 176.307 116.858 176.322 116.484C176.298 115.602 176.185 114.724 175.984 113.865C175.773 113.018 175.369 112.232 174.803 111.569C174.36 111.068 173.987 110.854 174.016 110.804Z" fill="#EB996E"/>
<path d="M135.808 88.6198C135.771 88.5958 135.881 88.3254 136.151 87.9347C136.502 87.4003 137.01 86.9886 137.605 86.7566C137.916 86.6487 138.251 86.6249 138.575 86.6874C138.899 86.7499 139.201 86.8965 139.45 87.1127C139.826 87.4742 139.812 87.8297 139.777 87.8251C139.721 87.8443 139.644 87.5513 139.295 87.3008C139.065 87.1465 138.804 87.0468 138.531 87.0091C138.257 86.9715 137.979 86.9969 137.716 87.0835C137.183 87.3013 136.711 87.6462 136.341 88.0882C136.034 88.4244 135.849 88.6483 135.808 88.6198Z" fill="#EB996E"/>
<path d="M139.906 90.8775C139.867 90.9127 139.694 90.7546 139.38 90.5792C138.978 90.3509 138.525 90.2288 138.063 90.2244C137.601 90.2326 137.148 90.3584 136.748 90.5898C136.435 90.7679 136.263 90.9267 136.224 90.8921C136.185 90.8576 136.302 90.6403 136.611 90.3878C137.024 90.0606 137.535 89.8812 138.061 89.8782C138.588 89.8771 139.1 90.0525 139.515 90.3765C139.827 90.6264 139.94 90.851 139.906 90.8775Z" fill="#EB996E"/>
<path d="M175.741 107C175.59 106.99 175.441 106.955 175.301 106.894C174.893 106.73 174.536 106.459 174.268 106.108C173.845 105.551 173.584 104.888 173.515 104.192C173.452 103.27 173.619 102.348 174.001 101.507C174.377 100.564 174.941 99.6154 175.421 98.5516C175.933 97.4149 176.371 96.246 176.732 95.0525C177.516 92.5321 178.082 89.6749 178.874 86.714C179.548 83.8966 180.677 81.2091 182.218 78.7584C183.512 76.7557 185.333 75.1505 187.479 74.1197C188.92 73.4197 190.514 73.0954 192.114 73.1768C192.696 73.2021 193.271 73.3118 193.822 73.5024C193.813 73.545 193.216 73.3516 192.107 73.3117C190.538 73.2831 188.986 73.6363 187.584 74.341C185.499 75.3805 183.736 76.969 182.483 78.9365C180.977 81.3666 179.871 84.0236 179.207 86.8057C178.419 89.7487 177.843 92.6126 177.035 95.1482C176.663 96.3511 176.21 97.5277 175.68 98.6698C175.18 99.7469 174.607 100.683 174.226 101.598C173.847 102.4 173.668 103.283 173.707 104.17C173.758 104.837 173.989 105.477 174.375 106.023C174.62 106.368 174.948 106.644 175.329 106.827C175.59 106.955 175.747 106.979 175.741 107Z" fill="#263238"/>
<path d="M150.333 92.5715C150.407 90.6416 150.597 88.7178 150.9 86.8106C151.09 84.8894 151.393 82.9812 151.809 81.0962C151.735 83.0264 151.546 84.9503 151.242 86.8578C151.052 88.7788 150.749 90.6867 150.333 92.5715Z" fill="#263238"/>
<path d="M140.035 102.44L138.819 112.034L124.232 99.5642L116.253 101.496C116.253 101.496 124.479 118.821 130.977 125.683C137.475 132.545 140.981 133.524 143.433 133.628C146.804 133.776 148.345 129.659 148.345 129.659L149.813 105.812L140.035 102.44Z" fill="#FFBE9D"/>
<path d="M138.875 111.779C139.376 112.498 139.726 113.312 139.903 114.171C140.19 114.999 140.306 115.877 140.244 116.751C139.968 115.937 139.743 115.106 139.571 114.263C139.287 113.45 139.055 112.621 138.875 111.779Z" fill="#EB996E"/>
<path d="M122.822 75.2454H111.84C110.179 75.2454 108.696 77.177 109.293 78.7551L120.336 100.328C120.546 100.738 120.865 101.082 121.257 101.322C121.65 101.563 122.101 101.69 122.561 101.689L135.948 101.661C136.261 101.625 136.561 101.512 136.82 101.333C137.079 101.153 137.29 100.912 137.434 100.631C137.578 100.35 137.651 100.037 137.646 99.7211C137.641 99.405 137.559 99.0951 137.406 98.8187L126.751 77.6992C126.391 76.9625 125.831 76.342 125.137 75.9082C124.442 75.4744 123.64 75.2448 122.822 75.2454Z" fill="#455A64"/>
<path d="M122.081 76.5437H111.099C110.785 76.5431 110.475 76.6236 110.2 76.7776C109.925 76.9315 109.695 77.1536 109.53 77.4227C109.365 77.6918 109.273 77.9988 109.26 78.3142C109.248 78.6297 109.317 78.943 109.46 79.2242L120.24 100.328C120.45 100.738 120.769 101.082 121.161 101.322C121.554 101.563 122.005 101.69 122.464 101.689H135.699C135.883 101.69 136.065 101.642 136.227 101.552C136.388 101.462 136.524 101.332 136.621 101.175C136.718 101.017 136.773 100.837 136.781 100.652C136.789 100.467 136.749 100.283 136.666 100.118L126.011 78.9976C125.65 78.2609 125.09 77.6405 124.396 77.2067C123.701 76.773 122.899 76.5433 122.081 76.5437Z" fill="#263238"/>
<path d="M121.149 85.3784L114.467 88.0562L113.034 93.457L116.253 101.497L128.063 103.22L124.603 99.6751L125.048 96.588C125.048 96.588 128.343 95.5521 128.427 95.0464C128.511 94.5408 128.018 92.845 127.513 92.764C127.007 92.6829 123.552 93.9726 123.552 93.9726C123.552 93.9726 127.642 90.7254 127.527 90.2031C127.413 89.6808 126.974 88.3479 126.157 88.1998C125.341 88.0516 118.742 91.1712 118.742 91.1712L117.67 93.6218L116.735 89.7014C116.735 89.7014 122.598 88.0529 121.149 85.3784Z" fill="#FFBE9D"/>
<path d="M121.988 98.0412C121.948 98.0531 121.824 97.8086 121.761 97.3767C121.691 96.8049 121.759 96.2246 121.96 95.685C122.157 95.1438 122.482 94.6584 122.906 94.2696C123.237 93.9799 123.489 93.8756 123.511 93.9102C123.009 94.4766 122.596 95.1154 122.283 95.8052C122.073 96.5313 121.973 97.2852 121.988 98.0412Z" fill="#EB996E"/>
<path d="M118.813 96.8711C118.937 96.2916 119.026 95.7051 119.078 95.1149C119.106 94.4547 119.219 93.8009 119.415 93.17C119.544 92.784 119.754 92.4301 120.031 92.1321C120.341 91.827 120.713 91.592 121.122 91.443C122.72 90.8616 124.159 90.3912 125.213 90.0476C125.77 89.8336 126.347 89.6738 126.935 89.5706C126.411 89.8597 125.86 90.0967 125.29 90.2782C124.264 90.6769 122.816 91.1912 121.249 91.7613C120.885 91.8927 120.551 92.0983 120.27 92.3653C120.023 92.6279 119.833 92.9387 119.711 93.2783C119.511 93.8818 119.38 94.5059 119.319 95.1388C119.301 95.7501 119.127 96.3465 118.813 96.8711Z" fill="#EB996E"/>
<path d="M117.279 95.6597C117.185 95.6445 117.205 95.0524 117.322 94.3381C117.439 93.6238 117.611 93.0577 117.705 93.0756C117.8 93.0936 117.78 93.6829 117.662 94.3972C117.544 95.1116 117.374 95.675 117.279 95.6597Z" fill="#EB996E"/>
<path d="M117.101 80.6143C117.101 80.9864 117.248 81.3433 117.511 81.6064C117.773 81.8696 118.129 82.0175 118.5 82.0177C118.871 82.0175 119.227 81.8696 119.489 81.6064C119.751 81.3433 119.899 80.9864 119.899 80.6143C119.899 80.2422 119.751 79.8853 119.489 79.6222C119.227 79.359 118.871 79.2111 118.5 79.2109C118.129 79.2111 117.773 79.359 117.511 79.6222C117.248 79.8853 117.101 80.2422 117.101 80.6143Z" fill="#FAFAFA"/>
<path d="M144.477 102.452C144.625 102.544 144.762 102.653 144.885 102.777L145.98 103.76L149.836 107.335L149.887 107.383L149.881 107.456C149.707 109.693 149.503 112.324 149.285 115.138C148.982 119.258 148.746 122.993 148.615 125.697C148.556 127.006 148.507 128.089 148.471 128.9C148.475 129.293 148.449 129.686 148.392 130.075C148.344 129.684 148.325 129.291 148.336 128.898C148.326 128.14 148.332 127.042 148.371 125.687C148.44 122.978 148.636 119.237 148.941 115.113C149.148 112.288 149.373 109.649 149.587 107.429L149.633 107.55L145.863 103.885L144.824 102.843C144.693 102.726 144.577 102.595 144.477 102.452Z" fill="#EB996E"/>
</g>
<path d="M37.9419 238.264H39.1249V234.182H42.3229V233.22H39.1249V230.165H43.0639V229.203H37.9419V238.264ZM45.6757 234.39C45.6757 232.739 46.5337 232.232 47.6647 232.232H47.9767V231.01C46.8457 231.01 46.0787 231.504 45.6757 232.297V231.14H44.4927V238.264H45.6757V234.39ZM49.3423 238.264H50.5253V231.14H49.3423V238.264ZM49.9533 229.983C50.3823 229.983 50.7333 229.632 50.7333 229.177C50.7333 228.722 50.3823 228.371 49.9533 228.371C49.4983 228.371 49.1473 228.722 49.1473 229.177C49.1473 229.632 49.4983 229.983 49.9533 229.983ZM55.5705 232.024C56.7925 232.024 57.8325 232.791 57.8195 234.182H53.3215C53.4515 232.791 54.4135 232.024 55.5705 232.024ZM58.8985 236.067H57.6245C57.3645 236.834 56.6885 237.38 55.6225 237.38C54.4135 237.38 53.3995 236.587 53.3085 235.144H59.0025C59.0285 234.897 59.0415 234.689 59.0415 234.429C59.0415 232.479 57.6895 231.023 55.6225 231.023C53.5425 231.023 52.0995 232.44 52.0995 234.689C52.0995 236.951 53.5945 238.381 55.6225 238.381C57.3905 238.381 58.5345 237.367 58.8985 236.067ZM65.8161 238.264H66.9861V234.065C66.9861 232.024 65.7251 231.01 64.0741 231.01C63.1121 231.01 62.2541 231.413 61.7861 232.154V231.14H60.6031V238.264H61.7861V234.325C61.7861 232.791 62.6181 232.037 63.8271 232.037C65.0231 232.037 65.8161 232.778 65.8161 234.234V238.264ZM68.4765 234.676C68.4765 236.886 69.9455 238.381 71.8565 238.381C73.1565 238.381 74.0795 237.718 74.5085 236.925V238.264H75.7045V228.644H74.5085V232.414C74.0145 231.595 72.9875 231.023 71.8695 231.023C69.9455 231.023 68.4765 232.453 68.4765 234.676ZM74.5085 234.689C74.5085 236.366 73.3905 237.341 72.0905 237.341C70.7905 237.341 69.6855 236.353 69.6855 234.676C69.6855 232.999 70.7905 232.05 72.0905 232.05C73.3905 232.05 74.5085 233.038 74.5085 234.689ZM82.8256 236.327C82.7736 233.779 78.6396 234.702 78.6396 233.012C78.6396 232.44 79.1596 232.024 80.0306 232.024C80.9796 232.024 81.5256 232.544 81.5776 233.259H82.7606C82.6826 231.868 81.6426 231.023 80.0696 231.023C78.4836 231.023 77.4566 231.92 77.4566 233.012C77.4566 235.664 81.6686 234.741 81.6686 236.327C81.6686 236.912 81.1486 237.38 80.2126 237.38C79.2116 237.38 78.6006 236.86 78.5356 236.171H77.3136C77.3916 237.471 78.5616 238.381 80.2256 238.381C81.7986 238.381 82.8256 237.497 82.8256 236.327ZM89.3524 238.264H90.5744L92.2904 232.609L94.0064 238.264H95.2284L97.4514 231.14H96.2814L94.6694 237.133L92.9404 231.14H91.7314L89.9634 237.12L88.3254 231.14H87.1164L89.3524 238.264ZM98.1835 234.676C98.1835 236.886 99.6525 238.381 101.551 238.381C102.864 238.381 103.787 237.705 104.216 236.938V238.264H105.412V231.14H104.216V232.44C103.8 231.699 102.89 231.023 101.564 231.023C99.6525 231.023 98.1835 232.453 98.1835 234.676ZM104.216 234.689C104.216 236.366 103.098 237.341 101.798 237.341C100.498 237.341 99.3925 236.353 99.3925 234.676C99.3925 232.999 100.498 232.05 101.798 232.05C103.098 232.05 104.216 233.038 104.216 234.689ZM112.624 238.264H113.794V234.065C113.794 232.024 112.533 231.01 110.882 231.01C109.92 231.01 109.062 231.413 108.594 232.154V231.14H107.411V238.264H108.594V234.325C108.594 232.791 109.426 232.037 110.635 232.037C111.831 232.037 112.624 232.778 112.624 234.234V238.264ZM115.986 236.314C115.986 237.744 116.701 238.264 117.962 238.264H119.028V237.263H118.157C117.429 237.263 117.169 237.016 117.169 236.314V232.115H119.028V231.14H117.169V229.346H115.986V231.14H115.063V232.115H115.986V236.314ZM124.187 236.314C124.187 237.744 124.902 238.264 126.163 238.264H127.229V237.263H126.358C125.63 237.263 125.37 237.016 125.37 236.314V232.115H127.229V231.14H125.37V229.346H124.187V231.14H123.264V232.115H124.187V236.314ZM129.846 234.39C129.846 232.739 130.704 232.232 131.835 232.232H132.147V231.01C131.016 231.01 130.249 231.504 129.846 232.297V231.14H128.663V238.264H129.846V234.39ZM133.07 234.676C133.07 236.886 134.539 238.381 136.437 238.381C137.75 238.381 138.673 237.705 139.102 236.938V238.264H140.298V231.14H139.102V232.44C138.686 231.699 137.776 231.023 136.45 231.023C134.539 231.023 133.07 232.453 133.07 234.676ZM139.102 234.689C139.102 236.366 137.984 237.341 136.684 237.341C135.384 237.341 134.279 236.353 134.279 234.676C134.279 232.999 135.384 232.05 136.684 232.05C137.984 232.05 139.102 233.038 139.102 234.689ZM147.51 238.264H148.68V234.065C148.68 232.024 147.419 231.01 145.768 231.01C144.806 231.01 143.948 231.413 143.48 232.154V231.14H142.297V238.264H143.48V234.325C143.48 232.791 144.312 232.037 145.521 232.037C146.717 232.037 147.51 232.778 147.51 234.234V238.264ZM155.735 236.327C155.683 233.779 151.549 234.702 151.549 233.012C151.549 232.44 152.069 232.024 152.94 232.024C153.889 232.024 154.435 232.544 154.487 233.259H155.67C155.592 231.868 154.552 231.023 152.979 231.023C151.393 231.023 150.366 231.92 150.366 233.012C150.366 235.664 154.578 234.741 154.578 236.327C154.578 236.912 154.058 237.38 153.122 237.38C152.121 237.38 151.51 236.86 151.445 236.171H150.223C150.301 237.471 151.471 238.381 153.135 238.381C154.708 238.381 155.735 237.497 155.735 236.327ZM157.626 238.264H158.809V232.115H160.304V231.14H158.809V230.633C158.809 229.71 159.16 229.32 160.226 229.32V228.332C158.406 228.332 157.626 229.047 157.626 230.633V231.14H156.703V232.115H157.626V238.264ZM164.712 232.024C165.934 232.024 166.974 232.791 166.961 234.182H162.463C162.593 232.791 163.555 232.024 164.712 232.024ZM168.04 236.067H166.766C166.506 236.834 165.83 237.38 164.764 237.38C163.555 237.38 162.541 236.587 162.45 235.144H168.144C168.17 234.897 168.183 234.689 168.183 234.429C168.183 232.479 166.831 231.023 164.764 231.023C162.684 231.023 161.241 232.44 161.241 234.689C161.241 236.951 162.736 238.381 164.764 238.381C166.532 238.381 167.676 237.367 168.04 236.067ZM170.928 234.39C170.928 232.739 171.786 232.232 172.917 232.232H173.229V231.01C172.098 231.01 171.331 231.504 170.928 232.297V231.14H169.745V238.264H170.928V234.39ZM46.7903 258.264H47.9603V254.065C47.9603 252.024 46.6993 251.01 45.0743 251.01C43.9823 251.01 42.9683 251.569 42.5523 252.596C42.0843 251.53 41.1093 251.01 39.9393 251.01C39.0033 251.01 38.1583 251.413 37.6903 252.167V251.14H36.5073V258.264H37.6903V254.338C37.6903 252.804 38.5093 252.037 39.7053 252.037C40.8753 252.037 41.6553 252.778 41.6553 254.234V258.264H42.8253V254.338C42.8253 252.804 43.6443 252.037 44.8403 252.037C46.0103 252.037 46.7903 252.778 46.7903 254.234V258.264ZM56.6609 254.689C56.6609 252.44 55.0879 251.023 53.0599 251.023C51.0449 251.023 49.4589 252.44 49.4589 254.689C49.4589 256.951 50.9929 258.381 53.0079 258.381C55.0359 258.381 56.6609 256.951 56.6609 254.689ZM50.6679 254.689C50.6679 252.895 51.7989 252.05 53.0469 252.05C54.2689 252.05 55.4519 252.895 55.4519 254.689C55.4519 256.496 54.2429 257.341 53.0079 257.341C51.7729 257.341 50.6679 256.496 50.6679 254.689ZM63.4293 258.264H64.5993V254.065C64.5993 252.024 63.3383 251.01 61.6873 251.01C60.7253 251.01 59.8673 251.413 59.3993 252.154V251.14H58.2163V258.264H59.3993V254.325C59.3993 252.791 60.2313 252.037 61.4403 252.037C62.6363 252.037 63.4293 252.778 63.4293 254.234V258.264ZM69.5608 252.024C70.7828 252.024 71.8228 252.791 71.8098 254.182H67.3118C67.4418 252.791 68.4038 252.024 69.5608 252.024ZM72.8888 256.067H71.6148C71.3548 256.834 70.6788 257.38 69.6128 257.38C68.4038 257.38 67.3898 256.587 67.2988 255.144H72.9928C73.0188 254.897 73.0318 254.689 73.0318 254.429C73.0318 252.479 71.6798 251.023 69.6128 251.023C67.5328 251.023 66.0898 252.44 66.0898 254.689C66.0898 256.951 67.5848 258.381 69.6128 258.381C71.3808 258.381 72.5248 257.367 72.8888 256.067ZM77.2973 256.912L75.0613 251.14H73.7483L76.6213 258.186L75.2173 261.618H76.4393L80.7293 251.14H79.5073L77.2973 256.912ZM85.6443 256.314C85.6443 257.744 86.3593 258.264 87.6203 258.264H88.6863V257.263H87.8153C87.0873 257.263 86.8273 257.016 86.8273 256.314V252.115H88.6863V251.14H86.8273V249.346H85.6443V251.14H84.7213V252.115H85.6443V256.314ZM96.8797 254.689C96.8797 252.44 95.3067 251.023 93.2787 251.023C91.2637 251.023 89.6777 252.44 89.6777 254.689C89.6777 256.951 91.2117 258.381 93.2267 258.381C95.2547 258.381 96.8797 256.951 96.8797 254.689ZM90.8867 254.689C90.8867 252.895 92.0177 252.05 93.2657 252.05C94.4877 252.05 95.6707 252.895 95.6707 254.689C95.6707 256.496 94.4617 257.341 93.2267 257.341C91.9917 257.341 90.8867 256.496 90.8867 254.689ZM104.93 252.024C106.152 252.024 107.192 252.791 107.179 254.182H102.681C102.811 252.791 103.773 252.024 104.93 252.024ZM108.258 256.067H106.984C106.724 256.834 106.048 257.38 104.982 257.38C103.773 257.38 102.759 256.587 102.668 255.144H108.362C108.388 254.897 108.401 254.689 108.401 254.429C108.401 252.479 107.049 251.023 104.982 251.023C102.902 251.023 101.459 252.44 101.459 254.689C101.459 256.951 102.954 258.381 104.982 258.381C106.75 258.381 107.894 257.367 108.258 256.067ZM109.52 254.676C109.52 256.886 110.989 258.381 112.887 258.381C114.2 258.381 115.123 257.705 115.552 256.938V258.264H116.748V251.14H115.552V252.44C115.136 251.699 114.226 251.023 112.9 251.023C110.989 251.023 109.52 252.453 109.52 254.676ZM115.552 254.689C115.552 256.366 114.434 257.341 113.134 257.341C111.834 257.341 110.729 256.353 110.729 254.676C110.729 252.999 111.834 252.05 113.134 252.05C114.434 252.05 115.552 253.038 115.552 254.689ZM118.306 254.689C118.306 256.951 119.749 258.381 121.777 258.381C123.545 258.381 124.702 257.393 125.066 255.976H123.792C123.532 256.873 122.83 257.38 121.777 257.38C120.477 257.38 119.515 256.457 119.515 254.689C119.515 252.947 120.477 252.024 121.777 252.024C122.83 252.024 123.545 252.57 123.792 253.428H125.066C124.702 251.933 123.545 251.023 121.777 251.023C119.749 251.023 118.306 252.453 118.306 254.689ZM126.644 258.264H127.827V254.325C127.827 252.791 128.659 252.037 129.868 252.037C131.064 252.037 131.857 252.778 131.857 254.234V258.264H133.027V254.065C133.027 252.024 131.766 251.01 130.18 251.01C129.179 251.01 128.295 251.413 127.827 252.167V248.644H126.644V258.264ZM145.185 254.689C145.185 252.44 143.612 251.023 141.584 251.023C139.569 251.023 137.983 252.44 137.983 254.689C137.983 256.951 139.517 258.381 141.532 258.381C143.56 258.381 145.185 256.951 145.185 254.689ZM139.192 254.689C139.192 252.895 140.323 252.05 141.571 252.05C142.793 252.05 143.976 252.895 143.976 254.689C143.976 256.496 142.767 257.341 141.532 257.341C140.297 257.341 139.192 256.496 139.192 254.689ZM147.001 256.314C147.001 257.744 147.716 258.264 148.977 258.264H150.043V257.263H149.172C148.444 257.263 148.184 257.016 148.184 256.314V252.115H150.043V251.14H148.184V249.346H147.001V251.14H146.078V252.115H147.001V256.314ZM151.476 258.264H152.659V254.325C152.659 252.791 153.491 252.037 154.7 252.037C155.896 252.037 156.689 252.778 156.689 254.234V258.264H157.859V254.065C157.859 252.024 156.598 251.01 155.012 251.01C154.011 251.01 153.127 251.413 152.659 252.167V248.644H151.476V258.264ZM162.821 252.024C164.043 252.024 165.083 252.791 165.07 254.182H160.572C160.702 252.791 161.664 252.024 162.821 252.024ZM166.149 256.067H164.875C164.615 256.834 163.939 257.38 162.873 257.38C161.664 257.38 160.65 256.587 160.559 255.144H166.253C166.279 254.897 166.292 254.689 166.292 254.429C166.292 252.479 164.94 251.023 162.873 251.023C160.793 251.023 159.35 252.44 159.35 254.689C159.35 256.951 160.845 258.381 162.873 258.381C164.641 258.381 165.785 257.367 166.149 256.067ZM169.036 254.39C169.036 252.739 169.894 252.232 171.025 252.232H171.337V251.01C170.206 251.01 169.439 251.504 169.036 252.297V251.14H167.853V258.264H169.036V254.39ZM177.825 256.327C177.773 253.779 173.639 254.702 173.639 253.012C173.639 252.44 174.159 252.024 175.03 252.024C175.979 252.024 176.525 252.544 176.577 253.259H177.76C177.682 251.868 176.642 251.023 175.069 251.023C173.483 251.023 172.456 251.92 172.456 253.012C172.456 255.664 176.668 254.741 176.668 256.327C176.668 256.912 176.148 257.38 175.212 257.38C174.211 257.38 173.6 256.86 173.535 256.171H172.313C172.391 257.471 173.561 258.381 175.225 258.381C176.798 258.381 177.825 257.497 177.825 256.327Z" fill="black"/>
<defs>
<clipPath id="clip0">
<rect width="213.043" height="194.783" fill="white" transform="translate(0 0.568359)"/>
</clipPath>
</defs>
</svg>
