<svg width="237" height="351" viewBox="0 0 237 351" fill="none" xmlns="http://www.w3.org/2000/svg">
<g clip-path="url(#clip0)">
<path d="M20.9385 108.791C24.0808 102.56 27.7534 97.3592 31.8632 93.6247C33.0282 92.5509 34.2811 91.5763 35.6085 90.7112C36.7973 89.9359 38.0545 89.271 39.3646 88.7248C58.0925 80.9858 77.2681 98.5958 98.6914 96.5155C116.649 94.7674 129.572 84.7922 141.027 76.4193C144.781 73.5582 148.712 70.9352 152.794 68.5658C153.877 67.963 154.968 67.4114 156.051 66.9219C157.216 66.4039 158.454 65.9132 159.776 65.4664C159.776 65.465 159.776 65.4637 159.776 65.4624C159.777 65.4611 159.778 65.4599 159.779 65.4589C159.779 65.4579 159.781 65.4571 159.782 65.4567C159.783 65.4562 159.785 65.456 159.786 65.4561L159.797 65.4664C176.392 59.776 204.422 59.9845 216.845 72.2277C229.851 85.0531 245.645 126.618 209.875 180.158C170.129 239.666 61.5367 247.895 32.5187 228.214C2.49105 207.868 3.69815 142.982 20.9385 108.791Z" fill="#D6DCFD"/>
<path d="M38.2604 81.9122C45.3927 72.5242 52.9103 73.8495 58.1282 76.1188C60.7254 77.3043 62.9098 79.2376 64.4017 81.6712C65.8935 84.1049 66.6251 86.9283 66.5027 89.78C66.4107 91.2795 66.0902 92.8586 66.697 94.2312C67.6781 96.4397 70.5327 97.0619 72.1861 98.8242C74.4463 101.235 73.9458 105.051 73.1822 108.265C72.4187 111.479 71.615 115.149 73.506 117.859C75.2378 120.34 78.5394 121.006 81.2626 122.326C83.0724 123.19 84.6791 124.426 85.9777 125.954C87.2762 127.481 88.2372 129.266 88.7977 131.191C89.3269 133.126 89.3682 135.161 88.918 137.116C88.4679 139.071 87.5403 140.883 86.2181 142.392C83.5707 145.276 79.5957 146.554 75.7229 147.124C70.0659 147.917 64.304 147.465 58.8397 145.801C53.3753 144.137 48.3401 141.3 44.0859 137.489C39.8853 133.619 36.5805 128.879 34.4022 123.6C32.2239 118.32 31.2245 112.629 31.474 106.924" fill="#2E353A"/>
<path d="M82.1485 143.357C82.1272 143.334 82.394 143.125 82.7961 142.633C83.3841 141.922 83.8162 141.095 84.0648 140.206C84.4259 138.791 84.4389 137.31 84.1025 135.889C83.6985 133.998 82.7816 132.255 81.4524 130.85C80.6902 130.031 79.8225 129.316 78.8722 128.724C77.8255 128.1 76.7262 127.568 75.5868 127.135C74.3444 126.667 73.1424 126.098 71.9926 125.434C70.7831 124.678 69.7282 123.699 68.884 122.55C67.1034 120.055 66.1402 117.069 66.127 114.004C66.0943 112.402 66.2302 110.802 66.5324 109.229C66.8232 107.635 67.2273 106.05 67.5356 104.438C67.7756 103.317 67.9076 102.176 67.9299 101.03C67.8758 99.9164 67.6218 98.8216 67.18 97.7979C66.7662 96.762 66.2792 95.7565 65.8894 94.7102C65.5451 93.6614 65.3196 92.5773 65.2171 91.4782C65.0875 90.4021 65.0876 89.3416 64.9658 88.3329C64.8566 87.3329 64.6649 86.3437 64.3927 85.3753C63.9099 83.5463 63.1003 81.8196 62.003 80.2786L61.9907 80.2611V80.2572C61.1732 78.9853 60.0926 77.9032 58.8216 77.0839C57.5507 76.2646 56.1189 75.7271 54.6227 75.5075C52.2959 75.1817 49.9283 75.6764 47.9269 76.9066C46.6333 77.6806 45.5165 78.7173 44.6486 79.9497C44.0554 80.8056 43.8358 81.3242 43.8066 81.3093C44.0002 80.8079 44.2502 80.33 44.5515 79.8849C45.3926 78.6023 46.5046 77.5195 47.8091 76.7124C49.8471 75.4138 52.2774 74.874 54.6738 75.1876C56.225 75.4001 57.7124 75.9442 59.0345 76.783C60.3565 77.6217 61.4823 78.7353 62.3352 80.0481L62.3197 80.0274C63.4639 81.6053 64.3098 83.3791 64.8156 85.2613C65.0981 86.2508 65.2981 87.2619 65.4139 88.2843C65.5434 89.3325 65.5435 90.3833 65.6731 91.4303C65.774 92.4916 65.9924 93.5385 66.3245 94.5516C66.704 95.5655 67.1917 96.5684 67.6159 97.6251C68.0797 98.6993 68.346 99.8484 68.402 101.017C68.3821 102.197 68.2479 103.372 68.0012 104.526C67.6891 106.158 67.285 107.741 66.9961 109.313C66.6979 110.855 66.5622 112.423 66.5914 113.992C66.5962 116.965 67.5195 119.863 69.235 122.291C70.0428 123.401 71.0536 124.348 72.2139 125.081C73.3415 125.739 74.5204 126.305 75.739 126.774C76.895 127.222 78.0091 127.772 79.0684 128.416C80.0401 129.032 80.9253 129.775 81.7004 130.625C83.0528 132.083 83.9743 133.887 84.3627 135.836C84.6867 137.298 84.6457 138.816 84.243 140.258C83.9709 141.162 83.502 141.994 82.87 142.695C82.6575 142.945 82.4152 143.167 82.1485 143.357Z" fill="#4D5A64"/>
<path d="M56.0654 132.334C56.529 131.71 57.0799 131.154 57.7012 130.686C58.25 130.134 58.8753 129.664 59.5579 129.291C59.0941 129.915 58.5433 130.471 57.9221 130.939C57.3732 131.491 56.7479 131.961 56.0654 132.334Z" fill="#FAFAFA"/>
<path d="M53.7453 126.381L32.2442 128.999C32.2442 128.999 14.9437 132.143 11.4666 145.097C9.06456 154.043 4.09339 170.705 1.24709 180.16C0.652031 182.137 0.766052 184.26 1.56948 186.161C2.3729 188.063 3.81526 189.625 5.64763 190.577C6.72664 191.138 7.90957 191.471 9.12275 191.555C10.3359 191.639 11.5535 191.473 12.6997 191.067C13.8459 190.66 14.8962 190.023 15.7854 189.193C16.6746 188.364 17.3836 187.361 17.8683 186.246L27.2718 164.612C27.2718 164.612 30.5857 172.169 30.3953 175.743C30.2049 179.316 22.7377 192.451 22.7377 192.451C38.6187 201.555 54.7568 200.407 67.309 194.717L66.7101 160.527C66.7101 160.527 72.6196 191.033 84.5883 188.71C94.6219 186.763 88.0148 167.214 84.5883 159.735C80.2175 150.199 74.5151 136.594 70.9234 133.314C61.3017 124.518 53.7453 126.381 53.7453 126.381Z" fill="#E8505B"/>
<g opacity="0.2">
<g opacity="0.2">
<g opacity="0.2">
<path opacity="0.2" d="M33.8784 131.105C32.4984 133.084 30.8491 134.861 28.9784 136.385C27.8147 137.523 26.4595 138.447 24.9748 139.114C24.2285 139.441 23.4136 139.581 22.601 139.521C21.7884 139.461 21.0027 139.204 20.312 138.772C18.9934 137.824 18.4754 135.759 19.5018 134.499C20.1806 133.667 21.2984 133.364 22.341 133.107L32.7865 130.533" fill="black"/>
</g>
</g>
</g>
<path d="M6.45898 170.951C7.28129 170.169 8.30657 169.634 9.41803 169.407C10.5019 169.071 11.6582 169.047 12.7553 169.336C11.6621 169.383 10.5741 169.516 9.50151 169.732C8.45701 170.058 7.43972 170.466 6.45898 170.951Z" fill="#2E353A"/>
<path d="M9.29785 167.984C9.98161 167.563 10.7952 167.404 11.5871 167.538C12.3902 167.558 13.1589 167.868 13.7503 168.412C13.0326 168.179 12.2992 167.999 11.5555 167.872C10.8013 167.855 10.0467 167.892 9.29785 167.984Z" fill="#2E353A"/>
<g opacity="0.2">
<g opacity="0.2">
<g opacity="0.2">
<path opacity="0.2" d="M13.5682 169.581C12.6257 169.126 11.5809 168.925 10.5368 168.997C9.49265 169.069 8.48546 169.413 7.61473 169.993C7.25465 170.24 6.79931 170.538 6.42305 170.317C6.06232 170.105 6.08365 169.56 6.28312 169.192C6.75977 168.316 7.84777 167.985 8.83993 167.881C10.6388 167.697 12.4547 167.988 14.1052 168.727" fill="black"/>
</g>
</g>
</g>
<g opacity="0.2">
<g opacity="0.2">
<g opacity="0.2">
<path opacity="0.2" d="M48.5142 155.13C47.3822 157.41 44.1254 158.838 42.6009 161.324C41.3134 163.423 40.8335 165.9 40.0583 168.237C37.8733 174.738 33.3803 180.212 27.4297 183.623C28.6084 181.39 29.5659 179.047 30.2883 176.627C30.4455 175.152 30.2279 173.661 29.6556 172.293C30.3945 170.027 33.6255 166.896 35.106 165.026C36.8047 162.724 38.73 160.599 40.853 158.681C42.9935 156.756 45.6626 155.518 48.5149 155.128" fill="black"/>
</g>
</g>
</g>
<path d="M75.1007 169.939C75.1431 170.553 75.1292 171.17 75.0592 171.781C75.0016 172.914 74.8734 174.479 74.9446 176.196C75.067 179.658 76.4083 182.217 76.2775 182.257C76.2568 182.267 76.1667 182.115 76.0183 181.831C75.8152 181.427 75.6348 181.013 75.4782 180.59C74.962 179.184 74.6675 177.707 74.6053 176.211C74.5657 174.725 74.6374 173.237 74.8197 171.761C74.8567 171.147 74.9507 170.537 75.1007 169.939Z" fill="#2E353A"/>
<path d="M49.7371 146.577C49.7371 146.577 52.0037 147.581 53.773 148.39C56.5669 149.67 57.4975 147.343 57.4975 147.343L49.7306 141.73C48.7048 141.004 47.4823 140.608 46.2258 140.595C44.9692 140.581 43.7384 140.951 42.6974 141.654C42.0622 142.091 41.5133 142.641 41.0783 143.277L35.5204 151.176L5.28169 175.285C0.554048 179.057 0.395392 185.424 5.18002 189.128C6.93055 190.49 9.13426 191.134 11.343 190.93C13.5518 190.725 15.5997 189.688 17.0703 188.027L41.8995 159.989L45.1059 157.519L48.8776 154.783C48.8776 154.783 51.6968 152.745 49.3737 150.678C48.6219 150.008 50.07 150.022 50.2157 149.052C50.2908 148.547 50.1431 148.455 49.2585 147.838C49.2604 147.837 50.6463 147.869 49.7371 146.577Z" fill="#B78876"/>
<path d="M49.6607 147.236C49.6199 147.263 49.4407 147.046 49.1428 146.718C48.7828 146.288 48.3231 145.954 47.804 145.743C47.5489 145.659 47.2778 145.634 47.0116 145.671C46.7454 145.707 46.491 145.804 46.2678 145.954C45.9278 146.197 45.8528 146.481 45.7984 146.462C45.7641 146.467 45.7511 146.122 46.1157 145.771C46.359 145.561 46.6528 145.419 46.9681 145.359C47.2834 145.298 47.6092 145.321 47.9128 145.425C48.4915 145.651 48.9859 146.05 49.3279 146.569C49.5889 146.949 49.697 147.212 49.6607 147.236Z" fill="#996552"/>
<path d="M45.7865 149.193C45.7548 149.167 45.8642 148.949 46.1673 148.706C46.5721 148.392 47.0704 148.222 47.583 148.223C48.0956 148.226 48.5927 148.4 48.9949 148.718C49.2961 148.963 49.4041 149.182 49.3717 149.207C49.3393 149.232 49.1659 149.086 48.8615 148.914C48.4718 148.689 48.0314 148.567 47.5817 148.559C47.132 148.564 46.6907 148.682 46.2994 148.904C45.9938 149.074 45.8247 149.227 45.7865 149.193Z" fill="#996552"/>
<path d="M45.7865 151.477C45.7548 151.452 45.8642 151.233 46.1673 150.991C46.5721 150.676 47.0704 150.506 47.583 150.508C48.0956 150.51 48.5927 150.685 48.9949 151.002C49.2961 151.247 49.4041 151.466 49.3717 151.491C49.3393 151.516 49.1659 151.371 48.8615 151.198C48.4718 150.973 48.0314 150.851 47.5817 150.844C47.132 150.848 46.6907 150.966 46.2994 151.188C45.9938 151.358 45.8247 151.511 45.7865 151.477Z" fill="#996552"/>
<path d="M71.7686 140.102L73.9013 142.412C73.9013 142.412 74.6136 175.109 75.8564 179.55C77.0991 183.992 84.3882 191.455 88.2979 185.413C92.2076 179.371 82.433 140.813 82.433 140.813C82.433 140.813 79.7668 131.929 79.5887 129.797L71.7686 140.102Z" fill="#B78876"/>
<path d="M76.6629 121.166L75.8209 143.752C75.7915 144.545 75.5614 145.318 75.1521 145.999C74.7428 146.679 74.1676 147.245 73.4804 147.643L66.676 151.578C66.2477 151.825 65.7618 151.956 65.267 151.956C64.7723 151.956 64.2862 151.826 63.8576 151.579C63.4291 151.332 63.0732 150.977 62.8258 150.548C62.5784 150.12 62.4482 149.634 62.4482 149.139V128.227C62.4483 127.644 62.6045 127.072 62.9006 126.569C63.1967 126.067 63.6218 125.653 64.132 125.371L74.3165 119.725C74.5615 119.59 74.8382 119.522 75.1181 119.528C75.398 119.535 75.671 119.615 75.9096 119.762C76.1482 119.908 76.3436 120.115 76.476 120.362C76.6083 120.609 76.6728 120.886 76.6629 121.166Z" fill="#455A64"/>
<path d="M68.8382 127.118C68.7509 127.296 68.6994 127.489 68.6867 127.686C68.674 127.884 68.7004 128.081 68.7643 128.269C68.8282 128.456 68.9283 128.629 69.059 128.777C69.1897 128.926 69.3483 129.047 69.5259 129.134C69.7035 129.221 69.8965 129.273 70.0939 129.285C70.2913 129.298 70.4893 129.272 70.6765 129.208C70.8637 129.144 71.0365 129.044 71.185 128.913C71.3335 128.783 71.4548 128.624 71.542 128.446C71.6293 128.269 71.6806 128.076 71.6933 127.879C71.706 127.681 71.6797 127.483 71.6158 127.296C71.552 127.109 71.4518 126.936 71.3211 126.788C71.1904 126.639 71.0318 126.518 70.8542 126.431C70.6767 126.344 70.4837 126.292 70.2863 126.279C70.0889 126.267 69.8909 126.293 69.7036 126.357C69.5164 126.421 69.3437 126.521 69.1952 126.652C69.0467 126.782 68.9253 126.941 68.8382 127.118Z" fill="#FAFAFA"/>
<path d="M79.5882 129.797C79.5882 129.797 74.5496 122.818 73.4318 122.876C72.314 122.935 66.9013 126.171 67.1363 126.876C67.3714 127.582 68.4899 127.994 69.4898 127.524C70.4897 127.054 72.2552 125.347 72.6671 125.7C73.0789 126.053 74.2556 127.288 74.2556 127.288C74.2556 127.288 69.2805 129.827 68.9016 130.817C68.5131 131.831 67.6065 133.582 68.7839 134.229C69.5506 134.65 70.7843 134.17 71.2551 132.17C71.2551 132.17 70.3135 135.052 71.768 135.758C73.3333 136.518 73.8145 134.916 75.0794 133.346C76.1427 132.024 76.6214 133.707 76.6214 133.707L79.5882 129.797Z" fill="#AA8776"/>
<path d="M75.7743 129.856C75.4697 129.909 75.1618 129.939 74.8528 129.946C74.1302 130.033 73.4366 130.282 72.8238 130.675C72.2172 131.077 71.7096 131.611 71.3388 132.238C71.2072 132.518 71.0556 132.788 70.8853 133.046C70.877 132.723 70.9613 132.404 71.1282 132.127C71.4624 131.421 71.9853 130.821 72.6391 130.393C73.2941 129.968 74.0538 129.731 74.8346 129.709C75.1555 129.668 75.4813 129.719 75.7743 129.856Z" fill="#996552"/>
<path d="M33.3402 83.9697L33.3461 86.8794L33.1563 130.442C33.1343 135.499 37.4663 139.546 42.883 139.527C48.3535 139.509 52.8706 135.357 52.9768 130.249C53.0888 124.887 53.3046 119.242 53.3046 119.242C53.3046 119.242 60.2341 118.218 61.8259 109.231C62.6173 104.763 62.5228 97.4089 62.2514 91.3953C62.1945 90.1122 61.8782 88.8538 61.3219 87.6961C60.7656 86.5383 59.9806 85.5051 59.0143 84.6587C58.0479 83.8123 56.9203 83.1702 55.6991 82.7711C54.478 82.3719 53.1888 82.224 51.9089 82.3362L33.3402 83.9697Z" fill="#B78876"/>
<path d="M60.1321 96.8825C60.1296 97.1838 60.0095 97.4722 59.7974 97.6863C59.5854 97.9003 59.2981 98.0231 58.9967 98.0285C58.8494 98.0377 58.7019 98.0173 58.5626 97.9685C58.4233 97.9197 58.2952 97.8435 58.1858 97.7445C58.0764 97.6454 57.9879 97.5254 57.9257 97.3916C57.8634 97.2578 57.8286 97.1129 57.8232 96.9655C57.8257 96.6643 57.9457 96.376 58.1575 96.1619C58.3693 95.9478 58.6561 95.8247 58.9572 95.8188C59.1046 95.8096 59.2524 95.8301 59.3919 95.8789C59.5313 95.9277 59.6595 96.0039 59.769 96.1031C59.8784 96.2022 59.967 96.3222 60.0294 96.4561C60.0917 96.59 60.1267 96.735 60.1321 96.8825Z" fill="#2E353A"/>
<path d="M60.589 95.1926C60.4427 95.3402 59.5781 94.6746 58.3341 94.6585C57.0919 94.6216 56.1671 95.245 56.035 95.0903C55.9702 95.0217 56.1212 94.7524 56.5234 94.4701C57.0685 94.1066 57.7127 93.9206 58.3677 93.9379C59.0146 93.9468 59.6418 94.1616 60.1583 94.551C60.5359 94.8514 60.6603 95.1259 60.589 95.1926Z" fill="#2E353A"/>
<path d="M48.3488 96.6715C48.3461 96.9728 48.2259 97.2612 48.0137 97.4752C47.8016 97.6893 47.5141 97.8121 47.2127 97.8175C47.0655 97.8265 46.918 97.8061 46.7787 97.7572C46.6395 97.7084 46.5114 97.6322 46.4021 97.5331C46.2928 97.4341 46.2045 97.3141 46.1423 97.1803C46.0801 97.0466 46.0454 96.9017 46.04 96.7543C46.0423 96.4531 46.162 96.1647 46.3738 95.9504C46.5856 95.7362 46.8728 95.613 47.174 95.6071C47.3215 95.598 47.4692 95.6185 47.6087 95.6674C47.7481 95.7163 47.8763 95.7926 47.9857 95.8918C48.0952 95.9909 48.1837 96.111 48.246 96.2449C48.3083 96.3788 48.3433 96.5239 48.3488 96.6715Z" fill="#2E353A"/>
<path d="M48.3563 95.2075C48.21 95.3551 47.3442 94.6895 46.1014 94.6733C44.8592 94.6364 43.9344 95.2599 43.8017 95.1052C43.7369 95.0365 43.8864 94.7672 44.2905 94.4849C44.8354 94.1215 45.4796 93.9356 46.1344 93.9527C46.7815 93.9615 47.4089 94.1763 47.9256 94.5658C48.3019 94.8663 48.4276 95.1408 48.3563 95.2075Z" fill="#2E353A"/>
<path d="M52.7071 104.511C53.3663 104.317 54.0472 104.207 54.734 104.182C55.052 104.155 55.3546 104.098 55.4116 103.882C55.4444 103.555 55.3766 103.225 55.2172 102.937C54.9323 102.163 54.6333 101.351 54.3203 100.502C53.0768 97.0353 52.1831 94.1871 52.323 94.1386C52.4629 94.09 53.5845 96.8579 54.828 100.326C55.1263 101.181 55.4119 101.997 55.6848 102.775C55.878 103.162 55.9284 103.604 55.8272 104.024C55.779 104.135 55.7063 104.234 55.6144 104.312C55.5225 104.391 55.4139 104.447 55.2969 104.478C55.1201 104.522 54.9384 104.543 54.7562 104.542C54.0746 104.619 53.386 104.608 52.7071 104.511Z" fill="#2E353A"/>
<path d="M53.306 119.245C49.0602 119.235 44.9005 118.047 41.29 115.813C41.29 115.813 44.109 122.057 53.1466 121.374L53.306 119.245Z" fill="#996552"/>
<path d="M52.128 107.501C51.8966 107.198 51.5919 106.96 51.2428 106.808C50.8937 106.656 50.5117 106.596 50.1327 106.632C49.8581 106.652 49.5904 106.728 49.3456 106.854C49.1008 106.98 48.8839 107.154 48.708 107.365C48.5376 107.569 48.4342 107.821 48.4118 108.086C48.3894 108.351 48.4493 108.616 48.583 108.846C48.779 109.073 49.038 109.236 49.3273 109.315C49.6165 109.393 49.9227 109.384 50.2065 109.288C50.7979 109.09 51.3443 108.777 51.814 108.367C51.9561 108.27 52.0786 108.147 52.1753 108.005C52.2224 107.937 52.2482 107.857 52.2493 107.775C52.2505 107.692 52.2269 107.611 52.1818 107.542" fill="#996552"/>
<path d="M49.0321 105.307C49.2348 105.298 49.2135 106.649 50.352 107.627C51.4905 108.605 52.9308 108.483 52.9379 108.672C52.9554 108.757 52.6141 108.931 52.0054 108.931C51.214 108.928 50.4491 108.646 49.8449 108.135C49.2659 107.644 48.9001 106.948 48.8248 106.193C48.7814 105.629 48.9382 105.299 49.0321 105.307Z" fill="#2E353A"/>
<path d="M22.48 134.766C26.0565 135.036 29.6022 133.939 32.4015 131.697C35.2007 129.456 37.045 126.236 37.5619 122.687C37.6357 122.072 37.7738 121.467 37.9738 120.881C38.9698 118.221 39.0891 115.312 38.3143 112.579C37.9795 111.317 37.5004 109.936 38.0735 108.765C38.4893 107.914 39.3615 107.405 40.0752 106.782C41.6524 105.314 42.6048 103.295 42.7351 101.145C42.8531 99.0099 42.5005 96.8752 41.7022 94.8916C41.2935 93.791 40.7955 92.5886 41.2113 91.4919C41.5892 90.7506 42.1376 90.1096 42.8115 89.6214C44.1175 88.4444 45.203 87.0441 46.0172 85.4861C46.8429 83.9044 47.3773 81.8494 45.2239 80.5952C44.7686 80.3387 44.2692 80.1692 43.7518 80.0954C39.9412 79.505 35.3975 80.0721 32.8472 83.0737C30.767 85.5172 30.4717 88.9655 30.2703 92.1665C29.6369 102.254 12.9315 120.996 19.3902 134.812L22.48 134.766Z" fill="#2E353A"/>
<path d="M48.7631 90.3389C48.6336 90.6749 47.3954 90.4923 45.9331 90.6425C44.4669 90.7629 43.2824 91.1695 43.0939 90.8626C43.0104 90.7157 43.2234 90.4017 43.7026 90.0825C44.3417 89.6851 45.0665 89.4459 45.8166 89.3845C46.5639 89.3079 47.3187 89.4105 48.0184 89.6837C48.554 89.909 48.8188 90.1796 48.7631 90.3389Z" fill="#2E353A"/>
<path d="M60.1951 91.585C59.971 91.8634 59.1194 91.5545 58.0891 91.5202C57.06 91.4523 56.1824 91.6763 55.9868 91.3771C55.9013 91.2321 56.0439 90.9518 56.4299 90.6909C56.9447 90.3717 57.546 90.2206 58.1506 90.2584C58.7559 90.2792 59.3396 90.4881 59.8207 90.856C60.1795 91.1557 60.2942 91.4484 60.1951 91.585Z" fill="#2E353A"/>
<path d="M94.1916 87.0417L82.9697 119.565L99.0797 125.12L110.302 92.5974L94.1916 87.0417Z" fill="#92E3A9"/>
<path opacity="0.5" d="M82.9697 119.565L99.0793 125.12L110.301 92.5971L94.1917 87.0413L82.9697 119.565ZM108.607 93.4212L98.2543 123.428L84.6626 118.741L95.0161 88.7357L108.607 93.4212Z" fill="black" fill-opacity="0.7"/>
<path opacity="0.5" d="M96.5842 91.2763L95.1983 95.2905C95.1614 95.3975 95.1039 95.4961 95.0289 95.5808C94.9539 95.6654 94.863 95.7345 94.7613 95.784C94.6596 95.8336 94.5491 95.8626 94.4362 95.8695C94.3233 95.8763 94.2101 95.8609 94.1032 95.824C93.9962 95.7872 93.8976 95.7296 93.8129 95.6547C93.7282 95.5797 93.6591 95.4888 93.6095 95.3871C93.5599 95.2855 93.5309 95.175 93.524 95.0621C93.5172 94.9492 93.5326 94.8361 93.5695 94.7292L94.9561 90.715C95.0306 90.4992 95.1879 90.3217 95.3933 90.2218C95.5986 90.1219 95.8353 90.1076 96.0512 90.1821C96.1581 90.219 96.2566 90.2765 96.3413 90.3514C96.4259 90.4264 96.4949 90.5172 96.5444 90.6188C96.5939 90.7204 96.6229 90.8308 96.6297 90.9436C96.6365 91.0564 96.6211 91.1695 96.5842 91.2763Z" fill="black" fill-opacity="0.7"/>
<path opacity="0.5" d="M99.7015 117.43L98.3149 121.444C98.2403 121.66 98.0831 121.837 97.8777 121.937C97.6723 122.037 97.4357 122.052 97.2198 121.977C97.0039 121.903 96.8265 121.745 96.7265 121.54C96.6266 121.335 96.6123 121.098 96.6868 120.882L98.0727 116.868C98.1473 116.652 98.3045 116.475 98.5099 116.375C98.7152 116.275 98.9519 116.261 99.1678 116.335C99.2748 116.372 99.3734 116.43 99.4581 116.505C99.5428 116.58 99.6119 116.67 99.6615 116.772C99.711 116.874 99.7401 116.984 99.7469 117.097C99.7538 117.21 99.7383 117.323 99.7015 117.43Z" fill="black" fill-opacity="0.7"/>
<path opacity="0.5" d="M91.5899 104.34C91.1281 105.678 91.2167 107.144 91.8361 108.417C92.4554 109.689 93.5549 110.663 94.8928 111.126C96.2309 111.587 97.6977 111.499 98.9706 110.88C100.243 110.261 101.218 109.161 101.68 107.824C102.142 106.486 102.054 105.019 101.435 103.747C100.815 102.474 99.7156 101.5 98.3776 101.038C97.0394 100.576 95.5726 100.664 94.2997 101.284C93.0267 101.903 92.052 103.003 91.5899 104.34ZM99.441 106.654L99.8393 106.792L99.5964 107.494L99.1982 107.357C99.0321 107.631 98.7677 107.832 98.4588 107.919C98.1498 108.005 97.8195 107.971 97.5351 107.822L97.1601 107.693L97.4405 106.881L97.8699 107.029C98.2585 107.164 98.4605 107.04 98.5544 106.77C98.6483 106.499 98.5674 106.276 98.1775 106.142C97.7876 106.007 97.4522 106.066 96.7994 106.488C96.5358 106.714 96.2188 106.868 95.8786 106.936C95.5385 107.004 95.1865 106.983 94.8565 106.876C94.1227 106.623 93.7555 106.157 93.8333 105.51L93.4272 105.37L93.6701 104.669L94.0761 104.808C94.2415 104.535 94.5044 104.336 94.8114 104.251C95.1184 104.165 95.4464 104.2 95.7288 104.347L95.9011 104.406L95.6207 105.218L95.394 105.141C95.0054 105.005 94.8014 105.111 94.7069 105.383C94.6123 105.656 94.7069 105.864 95.0955 105.999C95.484 106.133 95.813 106.072 96.473 105.652C96.7371 105.428 97.0541 105.274 97.3941 105.206C97.734 105.138 98.0856 105.158 98.4158 105.264C98.7306 105.323 99.0111 105.5 99.2011 105.758C99.391 106.016 99.4763 106.336 99.4397 106.654H99.441Z" fill="black" fill-opacity="0.7"/>
<path d="M94.1916 87.0417L82.9697 119.565L99.0797 125.12L110.302 92.5974L94.1916 87.0417Z" stroke="#263238" stroke-width="0.5" stroke-linecap="round" stroke-linejoin="round"/>
<path d="M95.2651 68.501L86.4258 35.2517L69.956 39.6279L78.7954 72.8771L95.2651 68.501Z" fill="#92E3A9"/>
<path opacity="0.5" d="M86.4257 35.2517L69.9561 39.6272L78.7948 72.877L95.2645 68.5009L86.4257 35.2517ZM79.741 71.25L71.5861 40.5744L85.4809 36.8839L93.6357 67.5601L79.741 71.25Z" fill="black" fill-opacity="0.7"/>
<path opacity="0.5" d="M90.9156 66.3215L89.8237 62.2147C89.7652 61.994 89.7967 61.7591 89.9113 61.5616C90.026 61.364 90.2143 61.2201 90.435 61.1613C90.6558 61.1028 90.8908 61.1343 91.0883 61.2489C91.2859 61.3635 91.4299 61.5518 91.4887 61.7725L92.5806 65.8786C92.6096 65.9879 92.6169 66.1018 92.6019 66.2139C92.5869 66.326 92.5499 66.434 92.4931 66.5319C92.4364 66.6297 92.3609 66.7154 92.271 66.7841C92.1811 66.8527 92.0786 66.903 91.9692 66.932C91.7485 66.9907 91.5135 66.9593 91.3159 66.8448C91.1184 66.7304 90.9743 66.5421 90.9156 66.3215Z" fill="black" fill-opacity="0.7"/>
<path opacity="0.5" d="M73.7323 46.356L72.6404 42.2492C72.6113 42.1399 72.6039 42.026 72.6189 41.9139C72.6338 41.8019 72.6706 41.6938 72.7274 41.596C72.7841 41.4982 72.8595 41.4124 72.9494 41.3438C73.0393 41.2751 73.1418 41.2249 73.2511 41.1958C73.3604 41.1667 73.4744 41.1593 73.5866 41.1743C73.6988 41.1892 73.8069 41.226 73.9048 41.2827C74.0027 41.3394 74.0885 41.4149 74.1572 41.5047C74.226 41.5946 74.2763 41.6971 74.3054 41.8064L75.3967 45.9132C75.4258 46.0224 75.4332 46.1363 75.4183 46.2484C75.4033 46.3605 75.3665 46.4685 75.3097 46.5664C75.253 46.6642 75.1776 46.7499 75.0877 46.8186C74.9978 46.8872 74.8953 46.9375 74.786 46.9665C74.6767 46.9957 74.5627 47.003 74.4506 46.9881C74.3385 46.9732 74.2304 46.9363 74.1326 46.8796C74.0347 46.8229 73.949 46.7475 73.8803 46.6577C73.8116 46.5678 73.7613 46.4653 73.7323 46.356Z" fill="black" fill-opacity="0.7"/>
<path opacity="0.5" d="M87.77 52.6939C87.5899 52.0165 87.2781 51.3812 86.8524 50.8242C86.4267 50.2673 85.8955 49.7995 85.289 49.4478C84.6825 49.0961 84.0127 48.8673 83.3177 48.7744C82.6228 48.6815 81.9163 48.7263 81.2387 48.9064C79.8702 49.2698 78.7022 50.1618 77.9916 51.3862C77.281 52.6106 77.086 54.0671 77.4494 55.4352C77.6295 56.1126 77.9413 56.7478 78.367 57.3047C78.7926 57.8616 79.3238 58.3292 79.9302 58.6809C80.5367 59.0325 81.2064 59.2614 81.9013 59.3542C82.5962 59.4471 83.3025 59.4022 83.9801 59.2222C84.6577 59.0424 85.2933 58.7309 85.8505 58.3055C86.4077 57.8801 86.8756 57.349 87.2276 56.7428C87.5795 56.1366 87.8085 55.467 87.9016 54.7723C87.9947 54.0776 87.9499 53.3714 87.77 52.6939ZM79.9629 55.1543L79.5555 55.2624L79.3612 54.5444L79.7686 54.4363C79.7284 53.772 80.1306 53.3233 80.889 53.1219L81.2724 53.0203L81.4932 53.8503L81.0541 53.9675C80.6545 54.073 80.558 54.2866 80.6319 54.5663C80.7057 54.846 80.8967 54.9826 81.2957 54.8771C81.6946 54.7716 81.9394 54.5346 82.2457 53.8211C82.6214 52.9523 83.0028 52.5865 83.6414 52.4168C83.9316 52.2915 84.2583 52.2797 84.5568 52.384C84.8552 52.4882 85.1036 52.7008 85.2527 52.9795L85.6678 52.8694L85.8621 53.5874L85.4469 53.6975C85.4851 54.354 85.0907 54.7981 84.3324 55.0021L84.1569 55.0487L83.936 54.2193L84.1679 54.1578C84.5675 54.0516 84.6763 53.8516 84.6024 53.5751C84.5286 53.2986 84.3343 53.1762 83.9347 53.2824C83.5352 53.3886 83.2988 53.6223 82.9847 54.3378C82.6006 55.2086 82.2276 55.5731 81.5891 55.7428C81.2936 55.8683 80.9614 55.8772 80.6597 55.7677C80.3579 55.6581 80.1089 55.4382 79.9629 55.1523V55.1543Z" fill="black" fill-opacity="0.7"/>
<path d="M95.2651 68.501L86.4258 35.2517L69.956 39.6279L78.7954 72.8771L95.2651 68.501Z" stroke="#263238" stroke-width="0.4" stroke-linecap="round" stroke-linejoin="round"/>
<path d="M109.216 52.795C109.216 53.7652 108.831 54.6957 108.145 55.3819C107.458 56.068 106.528 56.4535 105.557 56.4537C104.587 56.4537 103.656 56.0682 102.969 55.3821C102.283 54.6959 101.897 53.7653 101.897 52.795C101.897 52.3145 101.992 51.8387 102.176 51.3948C102.36 50.9509 102.63 50.5476 102.969 50.2079C103.309 49.8681 103.713 49.5985 104.157 49.4147C104.601 49.2308 105.077 49.1362 105.557 49.1362C106.528 49.1364 107.458 49.5219 108.145 50.208C108.831 50.8941 109.216 51.8247 109.216 52.795Z" fill="#BFBFBF" stroke="#263238" stroke-width="0.4" stroke-linecap="round" stroke-linejoin="round"/>
<path opacity="0.5" d="M107.601 55.0733C108.206 54.5312 108.57 53.7715 108.614 52.9611C108.658 52.1507 108.378 51.3559 107.836 50.7516C107.294 50.1474 106.534 49.7831 105.724 49.7389C104.913 49.6947 104.118 49.9742 103.514 50.5159C102.909 51.0578 102.545 51.8175 102.501 52.6279C102.456 53.4384 102.736 54.2332 103.278 54.8376C103.82 55.442 104.58 55.8064 105.391 55.8506C106.202 55.8948 106.997 55.6151 107.601 55.0733ZM104.312 51.7253L104.151 51.546L104.468 51.2611L104.629 51.4411C104.789 51.3495 104.978 51.3223 105.157 51.365C105.336 51.4077 105.492 51.5171 105.593 51.6709L105.745 51.8406L105.378 52.1695L105.204 51.9752C105.045 51.7984 104.911 51.805 104.788 51.9157C104.665 52.0264 104.644 52.1591 104.802 52.3352C104.959 52.5113 105.144 52.5754 105.589 52.5463C105.783 52.5073 105.985 52.5186 106.174 52.5793C106.363 52.6401 106.534 52.7482 106.669 52.8933C106.809 53.0094 106.9 53.1737 106.924 53.3536C106.948 53.5336 106.903 53.716 106.799 53.8645L106.963 54.0477L106.645 54.3326L106.482 54.1494C106.323 54.2398 106.135 54.2664 105.958 54.2237C105.78 54.181 105.625 54.0723 105.524 53.9195L105.454 53.8418L105.821 53.5136L105.913 53.6152C106.072 53.792 106.202 53.7959 106.325 53.6852C106.448 53.5745 106.459 53.4443 106.301 53.2676C106.143 53.0908 105.962 53.0312 105.514 53.0571C105.319 53.0961 105.118 53.0848 104.928 53.0241C104.739 52.9633 104.569 52.8552 104.433 52.7101C104.291 52.5916 104.2 52.4237 104.178 52.2404C104.155 52.057 104.203 51.872 104.312 51.7228V51.7253Z" fill="black" fill-opacity="0.7"/>
<path d="M91.8842 23.8869C91.8842 24.8571 91.4987 25.7876 90.8125 26.4737C90.1263 27.1599 89.1956 27.5454 88.2251 27.5456C87.2545 27.5456 86.3237 27.1601 85.6373 26.474C84.951 25.7878 84.5654 24.8572 84.5654 23.8869C84.5656 22.9166 84.9513 21.9862 85.6376 21.3002C86.3239 20.6141 87.2546 20.2288 88.2251 20.2288C88.7057 20.2288 89.1815 20.3234 89.6254 20.5073C90.0693 20.6911 90.4727 20.9605 90.8125 21.3002C91.1523 21.6399 91.4218 22.0432 91.6057 22.487C91.7896 22.9308 91.8842 23.4065 91.8842 23.8869Z" fill="#BFBFBF" stroke="#263238" stroke-width="0.4" stroke-linecap="round" stroke-linejoin="round"/>
<path opacity="0.5" d="M90.2686 26.1654C90.568 25.8971 90.8117 25.5724 90.9855 25.21C91.1594 24.8475 91.2602 24.4544 91.2821 24.053C91.304 23.6516 91.2466 23.2498 91.1131 22.8707C90.9797 22.4915 90.7728 22.1422 90.5044 21.843C89.9622 21.2389 89.2022 20.8748 88.3916 20.8307C87.581 20.7866 86.786 21.0662 86.1815 21.608C85.5771 22.1499 85.2128 22.9096 85.1686 23.72C85.1244 24.5305 85.4039 25.3253 85.9458 25.9297C86.4878 26.534 87.2477 26.8984 88.0584 26.9426C88.8691 26.9868 89.6641 26.7072 90.2686 26.1654ZM86.9794 22.8174L86.8181 22.6381L87.1354 22.3532L87.2967 22.5332C87.4564 22.4417 87.645 22.4146 87.8241 22.4573C88.0031 22.5 88.1591 22.6093 88.2604 22.763L88.4119 22.9326L88.0453 23.2616L87.8711 23.0673C87.7125 22.8905 87.5784 22.8971 87.4554 23.0078C87.3323 23.1185 87.3109 23.2512 87.469 23.4279C87.627 23.6047 87.8116 23.6675 88.2558 23.6384C88.4506 23.5994 88.6522 23.6107 88.8414 23.6714C89.0305 23.7322 89.2011 23.8403 89.3367 23.9854C89.4764 24.1014 89.5673 24.2657 89.5913 24.4457C89.6153 24.6256 89.5706 24.8081 89.4662 24.9566L89.6301 25.1398L89.3127 25.4247L89.1482 25.2415C88.9895 25.3319 88.8022 25.3584 88.6245 25.3157C88.4468 25.273 88.2921 25.1643 88.1917 25.0116L88.1218 24.9339L88.489 24.605L88.5803 24.7066C88.7389 24.8834 88.8691 24.8873 88.9922 24.7766C89.1152 24.6659 89.1262 24.5357 88.9676 24.359C88.8089 24.1822 88.6289 24.1227 88.1813 24.1486C87.9865 24.1876 87.785 24.1762 87.5958 24.1154C87.4066 24.0547 87.2361 23.9467 87.1005 23.8015C86.9597 23.6831 86.869 23.5157 86.8467 23.3332C86.8243 23.1506 86.872 22.9663 86.98 22.8174H86.9794Z" fill="black" fill-opacity="0.7"/>
<path d="M74.8972 94.573C74.4304 94.4584 73.9909 94.2531 73.6035 93.9688C73.2162 93.6844 72.8887 93.3265 72.6397 92.9155C72.3907 92.5046 72.2252 92.0486 72.1525 91.5737C72.0798 91.0988 72.1014 90.6142 72.216 90.1477C72.3306 89.6811 72.5361 89.2416 72.8206 88.8543C73.1051 88.4671 73.4632 88.1398 73.8743 87.8909C74.2854 87.6421 74.7415 87.4767 75.2166 87.4041C75.6917 87.3315 76.1764 87.3531 76.6431 87.4678C77.1098 87.5824 77.5493 87.7878 77.9366 88.0722C78.3238 88.3566 78.6513 88.7146 78.9002 89.1255C79.1491 89.5364 79.3146 89.9923 79.3873 90.4672C79.4599 90.9421 79.4383 91.4266 79.3236 91.8931C79.209 92.3597 79.0036 92.7991 78.7191 93.1862C78.4346 93.5734 78.0766 93.9008 77.6656 94.1497C77.2545 94.3985 76.7985 94.564 76.3235 94.6366C75.8485 94.7092 75.3638 94.6876 74.8972 94.573Z" fill="#BFBFBF" stroke="#263238" stroke-width="0.4" stroke-linecap="round" stroke-linejoin="round"/>
<path opacity="0.5" d="M73.0681 92.4611C73.2573 92.8161 73.5147 93.1303 73.8254 93.3858C74.1362 93.6413 74.4943 93.833 74.8793 93.9501C75.2642 94.0671 75.6685 94.107 76.0689 94.0677C76.4693 94.0284 76.8581 93.9106 77.2129 93.721C77.5681 93.5319 77.8824 93.2747 78.138 92.964C78.3937 92.6534 78.5855 92.2953 78.7026 91.9105C78.8197 91.5256 78.8598 91.1215 78.8206 90.7212C78.7813 90.3208 78.6635 89.9322 78.4738 89.5774C78.2846 89.2224 78.0273 88.9082 77.7165 88.6527C77.4057 88.3972 77.0476 88.2054 76.6627 88.0884C76.2777 87.9714 75.8735 87.9314 75.4731 87.9707C75.0726 88.01 74.6839 88.1278 74.329 88.3174C73.974 88.5066 73.6597 88.7638 73.4041 89.0745C73.1485 89.3852 72.9567 89.7432 72.8396 90.128C72.7225 90.5129 72.6824 90.9169 72.7216 91.3173C72.7608 91.7176 72.8786 92.1063 73.0681 92.4611ZM77.1054 90.0655L77.3185 89.9523L77.5192 90.3284L77.3062 90.4417C77.3568 90.6186 77.3381 90.8081 77.2539 90.9717C77.1697 91.1353 77.0263 91.2607 76.8528 91.3222L76.6521 91.4291L76.4202 90.9946L76.6501 90.8716C76.8593 90.7602 76.8852 90.6288 76.8075 90.4831C76.7298 90.3375 76.6054 90.2857 76.3963 90.3971C76.1871 90.5084 76.0815 90.6722 76.0038 91.1092C75.9952 91.3077 75.9361 91.5007 75.8319 91.6699C75.7277 91.8391 75.582 91.9788 75.4086 92.0758C75.2631 92.1832 75.0826 92.2322 74.9028 92.213C74.7229 92.1939 74.5568 92.108 74.4372 91.9723L74.2202 92.0882L74.0195 91.712L74.2371 91.5961C74.1873 91.4201 74.2065 91.2318 74.2907 91.0694C74.3749 90.907 74.5179 90.7828 74.6904 90.722L74.7824 90.6735L75.0142 91.1079L74.8931 91.1727C74.6846 91.2841 74.6496 91.4103 74.7273 91.5566C74.8051 91.7029 74.9287 91.7444 75.1386 91.6324C75.3484 91.5204 75.4494 91.3592 75.531 90.9202C75.5396 90.7217 75.5988 90.5287 75.7029 90.3595C75.8071 90.1903 75.9528 90.0506 76.1262 89.9535C76.2739 89.8462 76.4565 89.7983 76.6379 89.8192C76.8193 89.8402 76.9861 89.9286 77.1054 90.0669V90.0655Z" fill="black" fill-opacity="0.7"/>
<path d="M84.6211 89.5216V75.7063" stroke="#263238" stroke-width="0.4" stroke-linecap="round" stroke-linejoin="round"/>
<path d="M84.6211 97.8102V92.2842" stroke="#263238" stroke-width="0.4" stroke-linecap="round" stroke-linejoin="round"/>
<path d="M84.6211 102.974V100.018" stroke="#263238" stroke-width="0.4" stroke-linecap="round" stroke-linejoin="round"/>
<path d="M82.0107 77.319L84.6207 74.0896L87.2306 77.319" stroke="#263238" stroke-width="0.4" stroke-linecap="round" stroke-linejoin="round"/>
<path d="M78.5771 20.3441V6.52881" stroke="#263238" stroke-width="0.4" stroke-linecap="round" stroke-linejoin="round"/>
<path d="M78.5771 28.6327V23.1067" stroke="#263238" stroke-width="0.4" stroke-linecap="round" stroke-linejoin="round"/>
<path d="M78.5771 33.7969V30.8413" stroke="#263238" stroke-width="0.4" stroke-linecap="round" stroke-linejoin="round"/>
<path d="M75.9668 8.14357L78.5767 4.91406L81.1866 8.14357" stroke="#263238" stroke-width="0.4" stroke-linecap="round" stroke-linejoin="round"/>
<path d="M98.7041 61.9208V48.1055" stroke="#263238" stroke-width="0.4" stroke-linecap="round" stroke-linejoin="round"/>
<path d="M98.7041 70.2094V64.6833" stroke="#263238" stroke-width="0.4" stroke-linecap="round" stroke-linejoin="round"/>
<path d="M98.7041 75.3728V72.4172" stroke="#263238" stroke-width="0.4" stroke-linecap="round" stroke-linejoin="round"/>
<path d="M96.0938 49.7202L98.7037 46.4907L101.314 49.7202" stroke="#263238" stroke-width="0.4" stroke-linecap="round" stroke-linejoin="round"/>
<path d="M190.34 59.0067C190.954 57.6901 191.916 56.5665 193.123 55.7575C194.33 54.9485 195.735 54.4849 197.187 54.4169C198.64 54.3877 200.073 54.7564 201.331 55.4831C202.59 56.2099 203.625 57.2669 204.326 58.5399C205.134 60.0594 205.453 61.8697 206.62 63.1368C207.375 63.9056 208.378 64.3824 209.451 64.4827C210.524 64.5829 211.598 64.3002 212.482 63.6845C212.689 64.6167 212.552 65.5923 212.097 66.4319C211.643 67.2716 210.9 67.9191 210.006 68.2555L212.87 68.5494C211.325 71.9201 207.094 73.4643 203.435 72.8058C199.777 72.1473 196.669 69.7291 194.18 66.9787" fill="#263238"/>
<path d="M190.361 59.0539L199.195 61.946C202.338 63.9894 204.727 67.0034 205.999 70.5293C206.412 71.7213 206.694 72.9611 207.216 74.1097C207.688 75.2942 208.571 76.2686 209.704 76.8536C210.553 77.233 211.518 77.2764 212.387 77.5982C213.12 77.8881 213.771 78.35 214.287 78.9448C214.803 79.5395 215.169 80.2497 215.352 81.0154C215.524 81.7825 215.541 82.5759 215.404 83.3498C215.266 84.1236 214.976 84.8625 214.551 85.5236C214.132 86.1885 213.575 86.834 213.538 87.6181C213.573 88.1487 213.682 88.6717 213.862 89.172C214.056 90.0573 213.971 90.9811 213.618 91.816C213.265 92.6509 212.662 93.3558 211.891 93.8336C211.101 94.2819 210.192 94.4751 209.288 94.3869C208.383 94.2987 207.529 93.9334 206.84 93.3409C206.275 94.6358 205.523 95.9728 204.244 96.5833C202.964 97.1939 201.075 96.6481 200.811 95.2561C200.476 95.9179 199.938 96.4555 199.276 96.7903C198.613 97.1251 197.861 97.2397 197.13 97.1175C196.404 96.9642 195.746 96.5827 195.253 96.0289C194.76 95.475 194.457 94.7779 194.388 94.0395L170.177 67.6378C173.79 57.9778 187.922 58.8312 190.361 59.0539Z" fill="#263238"/>
<path d="M194.461 68.2375C195.212 68.3157 195.906 68.6727 196.406 69.238C196.906 69.8033 197.176 70.5357 197.162 71.2902L195.451 111.942C195.387 116.742 186.651 122.419 181.496 122.311C176.291 122.202 177.821 116.693 177.746 112.126C177.62 104.495 177.623 101.631 177.62 101.675C177.62 101.675 171.043 100.586 169.68 92.028C169.003 87.7723 169.217 80.7948 169.577 75.0907C169.901 69.9571 173.313 63.6587 178.443 64.1993L194.461 68.2375Z" fill="#FFBE9D"/>
<path d="M171.808 80.631C171.806 80.9174 171.916 81.1931 172.114 81.3998C172.312 81.6066 172.583 81.7279 172.869 81.7382C173.009 81.7494 173.15 81.7326 173.283 81.6887C173.416 81.6448 173.539 81.5747 173.645 81.4825C173.751 81.3904 173.837 81.278 173.898 81.152C173.96 81.026 173.996 80.8889 174.004 80.7489C174.005 80.4634 173.896 80.1885 173.699 79.9822C173.501 79.7759 173.231 79.6543 172.946 79.643C172.806 79.6314 172.665 79.6479 172.532 79.6915C172.398 79.7352 172.275 79.8051 172.169 79.8971C172.063 79.9892 171.976 80.1016 171.914 80.2276C171.852 80.3536 171.816 80.4908 171.808 80.631Z" fill="#263238"/>
<path d="M171.095 78.7211C171.232 78.8648 172.067 78.2491 173.25 78.2523C174.433 78.2387 175.302 78.846 175.431 78.7016C175.496 78.6369 175.355 78.3779 174.978 78.104C174.465 77.7499 173.856 77.5627 173.233 77.568C172.617 77.5654 172.016 77.7586 171.517 78.1196C171.152 78.3986 171.029 78.6576 171.095 78.7211Z" fill="#263238"/>
<path d="M183.386 80.6309C183.384 80.9172 183.494 81.193 183.692 81.3997C183.89 81.6064 184.161 81.7278 184.447 81.738C184.587 81.7492 184.728 81.7324 184.861 81.6884C184.994 81.6445 185.117 81.5744 185.223 81.4822C185.329 81.39 185.415 81.2777 185.476 81.1517C185.538 81.0258 185.574 80.8888 185.582 80.7488C185.584 80.4623 185.475 80.1863 185.276 79.9793C185.078 79.7724 184.807 79.6507 184.521 79.6403C184.381 79.6291 184.24 79.646 184.107 79.69C183.974 79.7341 183.851 79.8043 183.745 79.8966C183.639 79.9889 183.553 80.1014 183.491 80.2275C183.429 80.3536 183.394 80.4908 183.386 80.6309Z" fill="#263238"/>
<path d="M182.737 78.9417C182.874 79.0848 183.708 78.4697 184.892 78.4729C186.075 78.4587 186.945 79.0666 187.073 78.9216C187.138 78.8569 186.998 78.5979 186.619 78.3247C186.107 77.9703 185.497 77.7829 184.874 77.7879C184.258 77.786 183.658 77.9793 183.159 78.3402C182.795 78.6186 182.67 78.8776 182.737 78.9417Z" fill="#263238"/>
<path d="M178.439 87.6999C177.814 87.5046 177.168 87.3882 176.515 87.3535C176.213 87.3224 175.927 87.2628 175.875 87.0569C175.85 86.7453 175.921 86.4333 176.077 86.1628L176.972 83.867C178.214 80.5973 179.113 77.9104 178.979 77.8606C178.846 77.8107 177.733 80.4219 176.491 83.6915C176.192 84.4974 175.907 85.2674 175.634 86.0016C175.443 86.3652 175.388 86.7845 175.477 87.1851C175.521 87.2917 175.588 87.3868 175.675 87.4632C175.761 87.5396 175.863 87.5953 175.974 87.6261C176.142 87.6713 176.315 87.6952 176.488 87.6973C177.136 87.7806 177.791 87.7814 178.439 87.6999Z" fill="#263238"/>
<path d="M177.62 101.675C181.66 101.736 185.638 100.678 189.113 98.6177C189.113 98.6177 186.325 104.496 177.736 103.695L177.62 101.675Z" fill="#EB996E"/>
<path d="M178.94 90.546C179.166 90.263 179.46 90.042 179.794 89.9037C180.129 89.7655 180.493 89.7144 180.853 89.7555C181.114 89.7788 181.368 89.8546 181.599 89.9783C181.83 90.102 182.034 90.2711 182.198 90.4754C182.356 90.6721 182.45 90.9126 182.467 91.1644C182.484 91.4162 182.422 91.6671 182.292 91.883C182.101 92.0955 181.851 92.2464 181.575 92.3161C181.298 92.3859 181.006 92.3715 180.738 92.2747C180.178 92.0772 179.664 91.7709 179.224 91.3735C179.09 91.2792 178.976 91.1609 178.885 91.0245C178.842 90.9595 178.818 90.883 178.818 90.8047C178.818 90.7264 178.842 90.6499 178.885 90.5849" fill="#EB996E"/>
<path d="M181.924 88.517C181.73 88.506 181.73 89.7873 180.629 90.6976C179.528 91.6079 178.16 91.4661 178.15 91.6455C178.132 91.7258 178.455 91.8947 179.033 91.9103C179.786 91.9209 180.519 91.6662 181.103 91.191C181.662 90.7351 182.022 90.0793 182.106 89.3626C182.156 88.8271 182.012 88.5092 181.924 88.517Z" fill="#263238"/>
<path d="M182.206 76.8737C182.322 77.1974 183.505 77.0427 184.894 77.2097C186.287 77.3489 187.408 77.7549 187.592 77.4687C187.674 77.3308 187.48 77.0284 187.026 76.7177C186.424 76.3297 185.739 76.0905 185.026 76.0197C184.315 75.9341 183.594 76.0187 182.922 76.2664C182.411 76.4703 182.153 76.7215 182.206 76.8737Z" fill="#263238"/>
<path d="M171.53 75.305C171.738 75.5731 172.554 75.2947 173.538 75.2817C174.519 75.2338 175.351 75.4617 175.541 75.1814C175.625 75.0448 175.495 74.7761 175.131 74.5223C174.647 74.2104 174.077 74.0567 173.501 74.0826C172.925 74.0923 172.366 74.2808 171.902 74.622C171.552 74.8965 171.439 75.1755 171.53 75.305Z" fill="#263238"/>
<path d="M196.211 81.9251C196.559 81.7356 196.953 81.6458 197.349 81.6655C197.745 81.6853 198.127 81.8138 198.455 82.0371C199.234 82.5116 199.831 83.2327 200.153 84.0858C200.475 84.9389 200.502 85.875 200.231 86.7454C199.914 87.6015 199.321 88.3277 198.545 88.8093C197.769 89.2909 196.855 89.5003 195.947 89.4044" fill="#FFBE9D"/>
<path d="M182.719 61.3498C179.591 61.4534 177.219 62.4019 174.474 63.8994C173.082 64.6178 171.846 65.6037 170.836 66.8004C169.826 67.9972 169.062 69.3814 168.587 70.8738C168.467 71.1826 168.411 71.513 168.422 71.8443C168.434 72.1757 168.514 72.5012 168.657 72.8006C168.929 73.1447 169.313 73.3834 169.743 73.4757C170.172 73.5681 170.62 73.5084 171.01 73.3069C171.78 72.8813 172.436 72.2776 172.924 71.5465C173.147 72.3303 173.618 73.0212 174.266 73.5159C174.913 74.0107 175.704 74.2828 176.519 74.2916C177.333 74.2647 178.117 73.9751 178.754 73.4661C179.39 72.9571 179.845 72.256 180.05 71.4675C180.119 72.2885 180.501 73.0517 181.116 73.5993C181.732 74.1469 182.535 74.4369 183.358 74.4095C184.181 74.3381 184.965 74.0281 185.614 73.5174C186.263 73.0067 186.748 72.3176 187.011 71.5348C187.216 73.0175 187.73 74.4407 188.521 75.7121C189.397 76.9216 190.981 77.7529 192.406 77.2906C192.205 78.5661 192.009 79.9089 192.463 81.1177C192.916 82.3265 194.264 83.3061 195.488 82.8866C196.677 82.4793 197.138 81.0737 197.417 79.8526C198.027 77.5106 198.336 75.1003 198.337 72.6801C198.331 70.2439 197.559 67.8711 196.129 65.8981C194.509 63.96 192.3 62.6025 189.839 62.0309C187.391 61.4699 184.879 61.2419 182.37 61.353" fill="#263238"/>
<path d="M196.81 86.8522C196.835 86.7913 197.144 86.9247 197.558 86.735C197.81 86.5898 198.014 86.374 198.145 86.1142C198.276 85.8544 198.327 85.562 198.294 85.2731C198.291 84.9803 198.203 84.6948 198.04 84.4512C197.878 84.2077 197.648 84.0165 197.379 83.9011C196.949 83.7256 196.633 83.8111 196.615 83.7451C196.585 83.703 196.907 83.4757 197.473 83.602C197.802 83.6816 198.096 83.8646 198.312 84.1238C198.572 84.4433 198.722 84.8387 198.738 85.2504C198.781 85.624 198.699 86.0013 198.505 86.3234C198.311 86.6454 198.015 86.894 197.664 87.0302C197.081 87.183 196.764 86.8865 196.81 86.8522Z" fill="#EB996E"/>
<path d="M197.066 90.4468C197.684 90.4468 198.185 89.947 198.185 89.3306C198.185 88.7141 197.684 88.2144 197.066 88.2144C196.448 88.2144 195.947 88.7141 195.947 89.3306C195.947 89.947 196.448 90.4468 197.066 90.4468Z" fill="#E8505B"/>
<path d="M190.475 58.6201C190.922 58.468 191.398 58.4137 191.868 58.4608C193.013 58.5125 194.129 58.8392 195.121 59.4132C196.115 59.9828 196.958 60.7839 197.576 61.7486C197.853 62.1324 198.043 62.5708 198.136 63.0344C198.081 63.0584 197.872 62.5663 197.378 61.8826C196.729 60.9968 195.903 60.2554 194.952 59.7052C193.999 59.1598 192.944 58.8172 191.852 58.6991C191.013 58.6143 190.482 58.679 190.475 58.6201Z" fill="#E8505B"/>
<path d="M194.963 58.6246C194.938 58.5369 194.928 58.4456 194.933 58.3546C194.937 58.0925 194.993 57.8339 195.097 57.5932C195.307 57.1545 195.617 56.771 196.002 56.4732C196.386 56.1754 196.835 55.9716 197.313 55.8781C198.538 55.5447 200.087 56.172 201.164 57.3556C201.73 57.9762 202.2 58.6775 202.56 59.4365C202.941 60.2134 203.252 61.0551 203.581 61.8968C203.882 62.7182 204.25 63.5134 204.682 64.2742C205.089 64.969 205.617 65.5855 206.241 66.0949C206.797 66.5563 207.467 66.8612 208.18 66.978C208.802 67.0679 209.436 66.9794 210.01 66.7229C210.854 66.3441 211.537 65.6791 211.939 64.8453C212.063 64.5281 212.169 64.2038 212.255 63.8741C212.268 63.9637 212.267 64.055 212.25 64.1441C212.218 64.4018 212.154 64.6546 212.059 64.8964C211.684 65.7948 210.989 66.522 210.108 66.9372C209.496 67.2292 208.813 67.3385 208.141 67.2519C207.374 67.1406 206.651 66.8243 206.049 66.3364C205.389 65.8099 204.83 65.168 204.399 64.4419C203.954 63.6672 203.576 62.856 203.269 62.0172C202.626 60.3228 202.004 58.6984 200.937 57.566C199.916 56.4271 198.499 55.8321 197.364 56.1105C196.913 56.1889 196.487 56.3678 196.115 56.6338C195.744 56.8998 195.437 57.2461 195.218 57.6469C195.082 57.9573 194.996 58.2873 194.963 58.6246Z" fill="#455A64"/>
<path d="M178.793 71.8397C178.781 71.8397 178.762 71.7607 178.737 71.6047C178.697 71.3777 178.671 71.1485 178.659 70.9184C178.602 70.0689 178.655 69.2157 178.817 68.3798C179.054 67.1342 179.497 65.937 180.129 64.8376C180.906 63.4855 181.967 62.3172 183.237 61.4125C184.513 60.5244 185.943 59.8803 187.454 59.5129C188.679 59.1943 189.946 59.0649 191.21 59.129C192.061 59.1638 192.904 59.3163 193.713 59.5822C193.933 59.6523 194.148 59.7375 194.356 59.8373C194.499 59.902 194.573 59.9422 194.568 59.9525C193.476 59.6111 192.344 59.4134 191.2 59.3647C189.962 59.3358 188.727 59.486 187.532 59.8107C186.064 60.1869 184.676 60.8228 183.432 61.6884C182.201 62.5666 181.168 63.6933 180.399 64.9955C179.772 66.0609 179.317 67.2192 179.053 68.427C178.841 69.5516 178.754 70.6961 178.793 71.8397Z" fill="#455A64"/>
<path d="M184.2 71.2636C184.159 71.0439 184.151 70.8193 184.176 70.5973C184.205 69.9908 184.288 69.3881 184.426 68.7968C184.879 66.8259 185.839 65.0075 187.211 63.5213C188.592 62.0434 190.334 60.9501 192.266 60.3488C192.845 60.1658 193.44 60.0358 194.043 59.9604C194.262 59.9177 194.487 59.9083 194.709 59.9325C194.718 59.9973 193.769 60.0737 192.34 60.5722C190.482 61.2224 188.807 62.3106 187.457 63.7447C186.126 65.1955 185.166 66.9462 184.657 68.8479C184.268 70.3157 184.264 71.2687 184.2 71.2636Z" fill="#455A64"/>
<path d="M182.719 121.811C180.846 116.069 176.263 110.221 171.228 112.331C165.624 114.68 164.066 117.655 160.995 122.266C157.924 126.877 156.041 132.154 154.187 137.372C153.462 139.412 152.762 141.779 153.873 143.639C154.833 145.243 156.808 145.876 158.617 146.358C163.284 147.599 167.994 148.661 172.746 149.545C174.651 149.899 176.741 150.196 178.425 149.241C180.563 148.027 181.217 145.311 181.664 142.896L186.356 117.482" fill="#E8505B"/>
<path d="M177.329 109.576L169.957 112.754C166.231 115.687 165.178 120.711 165.304 125.444L162.239 177.33C162.239 177.33 183.74 190.616 208.868 176.722C209.523 176.36 204.662 164.493 204.662 164.493L211.505 138.584C212.032 134.858 212.355 127.135 211.382 123.469C208.887 114.065 202.217 111.252 195.365 109.369C195.365 109.369 188.511 115.117 181.825 113.906C181.825 113.906 177.745 113.527 177.329 109.576Z" fill="#E8505B"/>
<g opacity="0.2">
<g opacity="0.2">
<g opacity="0.2">
<path opacity="0.2" d="M167.429 152.773L180.187 171.257C181.85 173.666 183.578 176.14 186.046 177.716C187.863 178.838 189.961 179.421 192.097 179.399C194.232 179.377 196.317 178.751 198.111 177.592C199.868 176.378 201.244 174.691 202.081 172.727C202.918 170.763 203.18 168.602 202.839 166.495C202.786 165.991 202.589 165.512 202.272 165.115C201.981 164.855 201.624 164.679 201.24 164.606C200.857 164.533 200.46 164.565 200.094 164.699C199.365 164.976 198.666 165.325 198.008 165.742C194.002 167.867 188.914 166.725 185.156 164.188C181.398 161.65 178.644 157.928 175.765 154.423C174.7 153.129 173.538 151.8 171.964 151.222C170.39 150.644 168.3 151.116 167.633 152.655" fill="black"/>
</g>
</g>
</g>
<path d="M188.915 127.352C191.348 127.352 193.32 125.386 193.32 122.96C193.32 120.534 191.348 118.568 188.915 118.568C186.483 118.568 184.511 120.534 184.511 122.96C184.511 125.386 186.483 127.352 188.915 127.352Z" fill="white"/>
<path d="M168.386 119.212C168.387 120.378 168.852 121.496 169.678 122.32C170.504 123.143 171.623 123.605 172.79 123.604C173.367 123.605 173.939 123.492 174.473 123.271C175.007 123.051 175.492 122.728 175.901 122.32C176.31 121.912 176.635 121.427 176.857 120.894C177.078 120.361 177.193 119.789 177.193 119.212C177.192 118.046 176.727 116.928 175.901 116.104C175.075 115.281 173.956 114.819 172.79 114.82C171.623 114.819 170.504 115.281 169.678 116.104C168.852 116.928 168.387 118.046 168.386 119.212Z" fill="white"/>
<path d="M164.833 161.268C164.835 162.434 165.299 163.552 166.125 164.376C166.951 165.199 168.07 165.661 169.237 165.66C170.403 165.661 171.523 165.199 172.348 164.376C173.174 163.552 173.639 162.434 173.641 161.268C173.64 160.691 173.526 160.119 173.304 159.586C173.082 159.053 172.758 158.568 172.349 158.16C171.94 157.752 171.454 157.429 170.921 157.209C170.387 156.988 169.814 156.875 169.237 156.876C168.659 156.875 168.087 156.988 167.553 157.209C167.019 157.429 166.534 157.752 166.125 158.16C165.716 158.568 165.391 159.053 165.17 159.586C164.948 160.119 164.834 160.691 164.833 161.268Z" fill="white"/>
<path d="M177.195 178.306C179.628 178.306 181.6 176.339 181.6 173.914C181.6 171.488 179.628 169.521 177.195 169.521C174.763 169.521 172.791 171.488 172.791 173.914C172.791 176.339 174.763 178.306 177.195 178.306Z" fill="white"/>
<path d="M197.726 179.371C200.158 179.371 202.13 177.405 202.13 174.979C202.13 172.553 200.158 170.586 197.726 170.586C195.293 170.586 193.321 172.553 193.321 174.979C193.321 177.405 195.293 179.371 197.726 179.371Z" fill="white"/>
<path d="M180.332 152.33C182.765 152.33 184.737 150.364 184.737 147.938C184.737 145.512 182.765 143.546 180.332 143.546C177.9 143.546 175.928 145.512 175.928 147.938C175.928 150.364 177.9 152.33 180.332 152.33Z" fill="white"/>
<path d="M175.928 138.482C178.36 138.482 180.332 136.515 180.332 134.09C180.332 131.664 178.36 129.697 175.928 129.697C173.495 129.697 171.523 131.664 171.523 134.09C171.523 136.515 173.495 138.482 175.928 138.482Z" fill="white"/>
<path d="M175.928 110.644C176.516 111.699 177.283 112.644 178.195 113.437C179.205 114.265 180.364 114.894 181.61 115.289C183.133 115.778 184.742 115.942 186.333 115.769C187.923 115.568 189.469 115.1 190.904 114.386C192.08 113.804 193.193 113.102 194.225 112.29C194.924 111.744 195.596 111.163 196.237 110.55C196.461 110.311 196.703 110.09 196.961 109.888C196.777 110.16 196.566 110.413 196.33 110.642C195.72 111.297 195.066 111.91 194.374 112.476C193.348 113.327 192.23 114.061 191.042 114.664C189.58 115.412 188 115.899 186.372 116.104C184.734 116.283 183.077 116.106 181.514 115.586C180.238 115.167 179.057 114.498 178.041 113.62C177.356 113.03 176.778 112.328 176.331 111.543C176.207 111.333 176.099 111.113 176.007 110.886C175.946 110.731 175.917 110.648 175.928 110.644Z" fill="#263238"/>
<path d="M198.12 110.343C203.156 112.449 208.398 114.702 211.877 118.9C215.413 123.166 216.644 128.964 216.387 134.494C216.13 140.023 214.52 145.39 212.922 150.69C212.296 152.762 211.457 155.086 209.458 155.929C207.733 156.657 205.766 156.004 204.018 155.326C199.518 153.575 195.09 151.654 190.732 149.564C188.984 148.726 187.125 147.733 186.333 145.97C185.327 143.73 186.412 141.155 187.484 138.945C191.246 131.191 195.008 123.437 198.769 115.683" fill="#E8505B"/>
<path d="M208.865 141.568C211.298 141.568 213.27 139.601 213.27 137.175C213.27 134.749 211.298 132.783 208.865 132.783C206.433 132.783 204.461 134.749 204.461 137.175C204.461 139.601 206.433 141.568 208.865 141.568Z" fill="white"/>
<path d="M197.201 149.597C199.634 149.597 201.606 147.63 201.606 145.204C201.606 142.779 199.634 140.812 197.201 140.812C194.769 140.812 192.797 142.779 192.797 145.204C192.797 147.63 194.769 149.597 197.201 149.597Z" fill="white"/>
<path d="M198.367 123.645C198.368 124.211 198.48 124.772 198.698 125.295C198.915 125.818 199.233 126.293 199.634 126.693C200.035 127.093 200.511 127.41 201.035 127.626C201.559 127.842 202.12 127.953 202.686 127.952C203.253 127.953 203.814 127.842 204.337 127.626C204.861 127.41 205.337 127.092 205.738 126.693C206.139 126.293 206.457 125.818 206.674 125.295C206.892 124.772 207.004 124.211 207.004 123.645C207.004 123.079 206.892 122.518 206.674 121.995C206.457 121.472 206.139 120.997 205.738 120.597C205.337 120.198 204.861 119.88 204.337 119.664C203.814 119.448 203.253 119.337 202.686 119.338C202.12 119.337 201.559 119.448 201.035 119.664C200.511 119.88 200.035 120.197 199.634 120.597C199.233 120.997 198.915 121.472 198.698 121.995C198.48 122.518 198.368 123.079 198.367 123.645Z" fill="white"/>
<path d="M189.416 148.888L188.293 153.211L165.913 136.903L159.06 127.166C158.142 125.862 156.755 124.964 155.19 124.66C154.367 124.5 153.521 124.508 152.702 124.684C151.883 124.86 151.109 125.201 150.426 125.686L144.05 130.209C144.05 130.209 144.222 133.64 145.771 132.955C147.32 132.27 150.419 130.552 150.419 130.552L151.28 138.792L155.067 141.538L158.854 144.456L184.124 169.534C185.389 170.789 186.933 171.726 188.63 172.269C190.327 172.812 192.129 172.946 193.887 172.659C195.646 172.373 197.312 171.674 198.748 170.62C200.185 169.566 201.351 168.187 202.152 166.595L205.897 155.966L189.416 148.888Z" fill="#FFBE9D"/>
<path d="M187.729 152.595C188.094 152.689 188.421 152.89 188.669 153.174C189.31 153.811 189.763 154.613 189.978 155.491C190.186 156.353 190.268 157.242 190.22 158.127C190.239 158.494 190.195 158.861 190.091 159.213C190.004 158.858 189.968 158.494 189.983 158.129C189.96 157.27 189.849 156.414 189.653 155.577C189.446 154.752 189.051 153.986 188.498 153.34C188.065 152.851 187.701 152.644 187.729 152.595Z" fill="#EB996E"/>
<path d="M150.38 130.979C150.344 130.955 150.452 130.692 150.715 130.311C151.058 129.79 151.555 129.389 152.136 129.163C152.441 129.058 152.768 129.035 153.085 129.096C153.401 129.157 153.696 129.299 153.94 129.51C154.308 129.862 154.294 130.209 154.26 130.204C154.205 130.223 154.13 129.937 153.788 129.693C153.564 129.543 153.309 129.446 153.041 129.409C152.774 129.373 152.502 129.397 152.246 129.482C151.725 129.694 151.263 130.03 150.901 130.461C150.601 130.788 150.421 131.006 150.38 130.979Z" fill="#EB996E"/>
<path d="M154.387 133.179C154.349 133.213 154.18 133.059 153.872 132.888C153.479 132.665 153.036 132.546 152.585 132.542C152.133 132.55 151.691 132.673 151.3 132.898C150.994 133.072 150.826 133.226 150.787 133.193C150.749 133.159 150.863 132.947 151.166 132.701C151.57 132.383 152.069 132.208 152.583 132.205C153.098 132.204 153.598 132.375 154.005 132.69C154.309 132.934 154.419 133.153 154.387 133.179Z" fill="#EB996E"/>
<path d="M189.417 148.888C189.268 148.879 189.123 148.844 188.987 148.785C188.587 148.625 188.238 148.36 187.976 148.019C187.563 147.477 187.308 146.83 187.24 146.152C187.179 145.254 187.342 144.355 187.715 143.536C188.083 142.617 188.634 141.693 189.104 140.656C189.604 139.548 190.032 138.41 190.385 137.247C191.152 134.791 191.705 132.007 192.479 129.122C193.137 126.376 194.242 123.758 195.748 121.37C197.013 119.418 198.793 117.854 200.891 116.85C202.299 116.168 203.857 115.852 205.421 115.931C205.99 115.956 206.552 116.063 207.091 116.248C207.082 116.29 206.498 116.101 205.414 116.063C203.881 116.035 202.364 116.379 200.993 117.065C198.955 118.078 197.232 119.626 196.006 121.543C194.535 123.911 193.454 126.5 192.804 129.211C192.034 132.079 191.471 134.869 190.681 137.34C190.317 138.512 189.875 139.658 189.357 140.771C188.868 141.821 188.307 142.733 187.936 143.625C187.564 144.406 187.39 145.266 187.428 146.13C187.478 146.78 187.704 147.405 188.081 147.937C188.32 148.272 188.641 148.541 189.013 148.719C189.269 148.844 189.422 148.868 189.417 148.888Z" fill="#263238"/>
<path d="M164.579 134.829C164.652 132.948 164.837 131.074 165.133 129.216C165.319 127.344 165.615 125.484 166.022 123.647C165.949 125.528 165.764 127.403 165.468 129.261C165.282 131.133 164.986 132.992 164.579 134.829Z" fill="#263238"/>
<path d="M154.513 144.445L153.324 153.794L139.065 141.643L131.266 143.526C131.266 143.526 139.307 160.407 145.659 167.093C152.011 173.779 155.438 174.733 157.834 174.834C161.129 174.979 162.636 170.966 162.636 170.966L164.072 147.73L154.513 144.445Z" fill="#FFBE9D"/>
<path d="M153.38 153.544C153.869 154.245 154.211 155.038 154.385 155.875C154.665 156.682 154.778 157.538 154.719 158.39C154.449 157.596 154.229 156.786 154.06 155.965C153.783 155.173 153.555 154.365 153.38 153.544Z" fill="#EB996E"/>
<path d="M137.687 117.947H126.952C125.328 117.947 123.878 119.829 124.462 121.367L135.257 142.387C135.462 142.786 135.774 143.122 136.157 143.356C136.541 143.59 136.982 143.714 137.431 143.713L150.518 143.686C150.824 143.651 151.116 143.541 151.37 143.366C151.623 143.191 151.829 142.956 151.97 142.682C152.111 142.408 152.182 142.104 152.177 141.796C152.173 141.488 152.092 141.186 151.942 140.916L141.527 120.338C141.175 119.62 140.628 119.015 139.949 118.593C139.271 118.17 138.487 117.946 137.687 117.947Z" fill="#455A64"/>
<path d="M136.961 119.212H126.227C125.919 119.211 125.617 119.29 125.348 119.44C125.079 119.59 124.854 119.806 124.693 120.068C124.532 120.331 124.441 120.63 124.429 120.937C124.417 121.244 124.484 121.55 124.624 121.824L135.162 142.387C135.367 142.787 135.679 143.122 136.063 143.356C136.446 143.59 136.887 143.714 137.336 143.713H150.273C150.454 143.714 150.631 143.668 150.789 143.58C150.947 143.492 151.079 143.366 151.174 143.212C151.269 143.059 151.323 142.883 151.331 142.703C151.339 142.523 151.3 142.343 151.219 142.182L140.803 121.603C140.45 120.885 139.903 120.281 139.224 119.858C138.545 119.435 137.761 119.211 136.961 119.212Z" fill="#323232"/>
<path d="M136.051 127.82L129.519 130.43L128.119 135.692L131.266 143.526L142.81 145.205L139.428 141.751L139.863 138.743C139.863 138.743 143.084 137.733 143.166 137.241C143.248 136.748 142.766 135.096 142.272 135.017C141.778 134.938 138.401 136.194 138.401 136.194C138.401 136.194 142.399 133.03 142.286 132.521C142.174 132.013 141.745 130.714 140.947 130.569C140.149 130.425 133.698 133.465 133.698 133.465L132.651 135.853L131.737 132.033C131.737 132.033 137.468 130.426 136.051 127.82Z" fill="#FFBE9D"/>
<path d="M136.872 140.159C136.833 140.17 136.711 139.932 136.65 139.511C136.582 138.954 136.648 138.389 136.845 137.863C137.038 137.336 137.355 136.863 137.769 136.484C138.093 136.202 138.339 136.1 138.361 136.134C137.87 136.686 137.466 137.308 137.161 137.98C136.955 138.688 136.857 139.422 136.872 140.159Z" fill="#EB996E"/>
<path d="M133.769 139.019C133.89 138.454 133.976 137.882 134.028 137.307C134.055 136.664 134.165 136.027 134.357 135.412C134.483 135.036 134.688 134.691 134.958 134.401C135.262 134.104 135.625 133.875 136.025 133.73C137.588 133.163 138.994 132.705 140.024 132.37C140.569 132.161 141.133 132.006 141.708 131.905C141.196 132.187 140.657 132.418 140.1 132.595C139.097 132.983 137.681 133.484 136.149 134.04C135.793 134.168 135.467 134.368 135.193 134.628C134.951 134.884 134.765 135.187 134.645 135.518C134.45 136.106 134.322 136.714 134.263 137.331C134.245 137.926 134.075 138.507 133.769 139.019Z" fill="#EB996E"/>
<path d="M132.27 137.838C132.178 137.824 132.197 137.247 132.312 136.551C132.426 135.855 132.595 135.303 132.687 135.32C132.779 135.338 132.76 135.912 132.645 136.608C132.529 137.304 132.362 137.853 132.27 137.838Z" fill="#EB996E"/>
<path d="M132.094 123.178C132.094 123.541 132.238 123.889 132.495 124.145C132.751 124.401 133.099 124.545 133.462 124.546C133.824 124.545 134.172 124.401 134.428 124.145C134.685 123.889 134.829 123.541 134.829 123.178C134.829 122.816 134.685 122.468 134.428 122.211C134.172 121.955 133.824 121.811 133.462 121.811C133.099 121.811 132.751 121.955 132.495 122.211C132.238 122.468 132.094 122.816 132.094 123.178Z" fill="#FAFAFA"/>
<path d="M158.854 144.457C159 144.546 159.134 144.652 159.254 144.773L160.324 145.731L164.093 149.214L164.143 149.261L164.138 149.332C163.967 151.512 163.768 154.076 163.555 156.818C163.259 160.832 163.028 164.471 162.9 167.106C162.842 168.382 162.795 169.437 162.759 170.227C162.763 170.61 162.737 170.993 162.682 171.372C162.635 170.991 162.617 170.608 162.628 170.225C162.618 169.486 162.624 168.417 162.661 167.097C162.729 164.456 162.92 160.812 163.218 156.793C163.421 154.04 163.641 151.469 163.85 149.306L163.895 149.424L160.209 145.853L159.194 144.837C159.067 144.724 158.953 144.596 158.854 144.457Z" fill="#EB996E"/>
<path d="M119.797 83.8273L130.475 114.774L145.804 109.488L135.126 78.5407L119.797 83.8273Z" fill="#92E3A9"/>
<path opacity="0.5" d="M135.126 78.5405L119.797 83.8275L130.475 114.776L145.804 109.489L135.126 78.5405ZM134.341 80.1512L144.193 108.704L131.26 113.165L121.409 84.6123L134.341 80.1512Z" fill="black" fill-opacity="0.7"/>
<path opacity="0.5" d="M132.851 82.5706L134.169 86.3905C134.24 86.5959 134.39 86.7649 134.586 86.8601C134.781 86.9553 135.006 86.969 135.212 86.8982C135.418 86.8272 135.586 86.6775 135.682 86.482C135.777 86.2865 135.79 86.0612 135.719 85.8557L134.401 82.0358C134.33 81.8304 134.18 81.6614 133.984 81.5663C133.789 81.4713 133.563 81.4579 133.358 81.5289C133.256 81.5639 133.162 81.6186 133.082 81.69C133.001 81.7613 132.935 81.8478 132.888 81.9446C132.841 82.0414 132.814 82.1464 132.807 82.2538C132.801 82.3612 132.816 82.4689 132.851 82.5706Z" fill="black" fill-opacity="0.7"/>
<path opacity="0.5" d="M129.885 107.457L131.203 111.277C131.238 111.379 131.293 111.473 131.364 111.553C131.436 111.634 131.522 111.7 131.619 111.747C131.716 111.794 131.821 111.821 131.928 111.828C132.036 111.834 132.144 111.819 132.245 111.784C132.347 111.749 132.441 111.695 132.521 111.623C132.602 111.552 132.668 111.466 132.715 111.369C132.762 111.272 132.79 111.167 132.796 111.06C132.803 110.952 132.788 110.845 132.753 110.743L131.434 106.923C131.363 106.718 131.214 106.549 131.018 106.454C130.823 106.358 130.597 106.345 130.392 106.416C130.186 106.487 130.018 106.636 129.922 106.832C129.827 107.027 129.814 107.252 129.885 107.457Z" fill="black" fill-opacity="0.7"/>
<path opacity="0.5" d="M131.144 91.857C130.194 92.1845 129.362 92.7862 128.754 93.5861C128.147 94.386 127.79 95.3481 127.729 96.3507C127.668 97.3534 127.906 98.3516 128.413 99.2191C128.92 100.087 129.672 100.784 130.576 101.224C131.479 101.664 132.492 101.826 133.488 101.69C134.483 101.554 135.416 101.126 136.168 100.459C136.92 99.7933 137.458 98.9192 137.713 97.9476C137.968 96.976 137.929 95.9505 137.602 95.001C137.162 93.7279 136.235 92.6815 135.024 92.0919C133.813 91.5023 132.417 91.4178 131.144 91.857ZM131.105 95.8789C131.419 95.7779 131.753 95.7586 132.077 95.823C132.4 95.8873 132.702 96.0333 132.954 96.2467C133.581 96.6456 133.893 96.7037 134.264 96.5768C134.636 96.4499 134.725 96.2531 134.636 95.9941C134.547 95.7352 134.354 95.6342 133.982 95.7624L133.767 95.8369L133.501 95.0644L133.663 95.0081C133.932 94.8675 134.245 94.8346 134.537 94.9161C134.829 94.9977 135.08 95.1876 135.237 95.4471L135.626 95.313L135.856 95.9818L135.468 96.1113C135.54 96.727 135.193 97.1705 134.496 97.4114C134.182 97.513 133.848 97.5325 133.524 97.468C133.2 97.4035 132.899 97.2573 132.648 97.0431C132.028 96.6423 131.709 96.586 131.337 96.7141C130.965 96.8423 130.888 97.0514 130.978 97.311C131.067 97.5706 131.257 97.6885 131.629 97.5603L132.038 97.4198L132.304 98.1923L131.947 98.3152C131.676 98.4566 131.362 98.4895 131.068 98.4071C130.773 98.3247 130.522 98.1331 130.364 97.8717L129.985 98.0013L129.754 97.3325L130.133 97.2029C130.098 96.9003 130.178 96.5957 130.359 96.3501C130.539 96.1045 130.805 95.9362 131.105 95.8789Z" fill="black" fill-opacity="0.7"/>
<path d="M119.797 83.8273L130.475 114.774L145.804 109.488L135.126 78.5407L119.797 83.8273Z" stroke="#263238" stroke-width="0.5" stroke-linecap="round" stroke-linejoin="round"/>
<path d="M149.777 65.0623L158.188 33.4243L142.517 29.2603L134.106 60.8984L149.777 65.0623Z" fill="#92E3A9"/>
<path opacity="0.5" d="M134.105 60.8989L149.778 65.0621L158.189 33.4239L142.516 29.26L134.105 60.8989ZM135.656 60.0003L143.415 30.8113L156.638 34.3244L148.877 63.5127L135.656 60.0003Z" fill="black" fill-opacity="0.7"/>
<path opacity="0.5" d="M138.244 58.8253L139.28 54.9172C139.335 54.7071 139.305 54.4835 139.196 54.2956C139.087 54.1076 138.907 53.9708 138.697 53.9151C138.593 53.8875 138.484 53.8806 138.378 53.895C138.271 53.9094 138.168 53.9446 138.075 53.9987C137.982 54.0528 137.9 54.1247 137.835 54.2104C137.77 54.296 137.722 54.3936 137.694 54.4977L136.658 58.405C136.631 58.5091 136.624 58.6176 136.638 58.7243C136.653 58.831 136.688 58.9338 136.742 59.0269C136.796 59.1199 136.868 59.2016 136.954 59.2668C137.039 59.3321 137.137 59.3798 137.241 59.4073C137.451 59.463 137.675 59.433 137.863 59.3239C138.051 59.2147 138.188 59.0354 138.244 58.8253Z" fill="black" fill-opacity="0.7"/>
<path opacity="0.5" d="M154.595 39.8266L155.631 35.9186C155.658 35.8145 155.665 35.706 155.651 35.5993C155.636 35.4926 155.601 35.3898 155.547 35.2968C155.493 35.2037 155.421 35.1221 155.335 35.0568C155.25 34.9916 155.152 34.9438 155.048 34.9163C154.944 34.8887 154.835 34.8819 154.729 34.8962C154.622 34.9106 154.519 34.9458 154.426 34.9999C154.333 35.0541 154.252 35.1259 154.186 35.2116C154.121 35.2972 154.073 35.3948 154.046 35.4989L153.01 39.4058C152.982 39.5099 152.975 39.6183 152.99 39.7251C153.004 39.8318 153.039 39.9348 153.093 40.0279C153.148 40.1211 153.22 40.2027 153.305 40.268C153.391 40.3334 153.489 40.381 153.593 40.4086C153.803 40.4639 154.026 40.4337 154.214 40.3246C154.402 40.2155 154.539 40.0364 154.595 39.8266Z" fill="black" fill-opacity="0.7"/>
<path opacity="0.5" d="M144.845 52.0695C145.816 52.3275 146.841 52.292 147.792 51.9672C148.743 51.6424 149.576 51.043 150.186 50.2449C150.796 49.4468 151.156 48.4856 151.219 47.4831C151.283 46.4807 151.048 45.4819 150.544 44.6131C150.04 43.7442 149.289 43.0444 148.387 42.602C147.485 42.1596 146.472 41.9944 145.476 42.1276C144.48 42.2608 143.546 42.6862 142.792 43.3501C142.038 44.014 141.498 44.8864 141.24 45.8572C141.068 46.5018 141.026 47.1738 141.114 47.8348C141.202 48.4959 141.42 49.1331 141.755 49.71C142.09 50.2869 142.535 50.7922 143.065 51.1971C143.595 51.602 144.2 51.8983 144.845 52.0695ZM147.122 48.754C146.514 48.5921 146.159 48.2463 145.793 47.4169C145.495 46.7358 145.269 46.5106 144.887 46.4128C144.504 46.3151 144.322 46.4258 144.251 46.6906C144.181 46.9554 144.284 47.1437 144.665 47.2479L144.885 47.3062L144.674 48.0961L144.508 48.0507C143.786 47.8565 143.411 47.435 143.447 46.8096L143.052 46.7054L143.233 46.0218L143.628 46.1266C143.77 45.8615 144.006 45.6593 144.29 45.5601C144.574 45.4608 144.885 45.4717 145.161 45.5906C145.769 45.7524 146.133 46.1014 146.49 46.9275C146.781 47.6067 147.014 47.8339 147.396 47.9324C147.779 48.0308 147.957 47.9026 148.028 47.6358C148.1 47.3691 148.006 47.167 147.627 47.066L147.209 46.9547L147.419 46.1655L147.784 46.2619C148.506 46.4561 148.888 46.8816 148.85 47.5128L149.239 47.6164L149.057 48.2994L148.669 48.1971C148.529 48.4689 148.291 48.6777 148.004 48.781C147.716 48.8844 147.4 48.8747 147.119 48.754H147.122Z" fill="black" fill-opacity="0.7"/>
<path d="M149.777 65.0623L158.188 33.4243L142.517 29.2603L134.106 60.8984L149.777 65.0623Z" stroke="#263238" stroke-width="0.4" stroke-linecap="round" stroke-linejoin="round"/>
<path d="M120.831 45.9547C120.831 46.6432 121.035 47.3163 121.418 47.8888C121.801 48.4613 122.344 48.9076 122.981 49.1711C123.617 49.4346 124.317 49.5035 124.993 49.3691C125.668 49.2348 126.289 48.9033 126.776 48.4165C127.263 47.9296 127.594 47.3092 127.729 46.6339C127.863 45.9586 127.794 45.2586 127.531 44.6225C127.267 43.9864 126.821 43.4427 126.248 43.0601C125.675 42.6776 125.002 42.4734 124.313 42.4734C123.856 42.4733 123.403 42.5632 122.981 42.7382C122.558 42.9131 122.174 43.1695 121.851 43.4928C121.527 43.8161 121.271 44.1999 121.096 44.6223C120.921 45.0448 120.831 45.4975 120.831 45.9547Z" fill="#BFBFBF" stroke="#263238" stroke-width="0.4" stroke-linecap="round" stroke-linejoin="round"/>
<path opacity="0.5" d="M126.482 47.8984C126.867 47.4694 127.116 46.936 127.198 46.3656C127.279 45.7951 127.19 45.2131 126.941 44.6933C126.692 44.1736 126.294 43.7395 125.798 43.4457C125.302 43.152 124.73 43.0119 124.155 43.0431C123.579 43.0744 123.026 43.2756 122.564 43.6213C122.103 43.967 121.755 44.4417 121.564 44.9853C121.372 45.5289 121.347 46.1171 121.49 46.6754C121.633 47.2336 121.938 47.737 122.367 48.1217C122.943 48.6374 123.699 48.9035 124.471 48.8616C125.242 48.8197 125.966 48.4733 126.482 47.8984ZM125.381 45.8711C125.252 46.0093 125.089 46.1121 124.909 46.17C124.729 46.2279 124.537 46.2389 124.352 46.202C123.926 46.1774 123.753 46.2344 123.603 46.4021C123.453 46.5698 123.463 46.6941 123.58 46.7996C123.696 46.9052 123.822 46.9012 123.973 46.7348L124.06 46.6384L124.408 46.9504L124.343 47.0249C124.247 47.1699 124.1 47.2733 123.931 47.3138C123.762 47.3543 123.584 47.3291 123.433 47.2432L123.276 47.4172L122.974 47.1466L123.13 46.9724C123.032 46.8309 122.99 46.6575 123.013 46.4866C123.036 46.3157 123.123 46.1599 123.256 46.0499C123.385 45.9113 123.547 45.8081 123.727 45.7502C123.907 45.6923 124.099 45.6816 124.285 45.7191C124.708 45.7475 124.883 45.686 125.034 45.5189C125.184 45.3519 125.163 45.2244 125.047 45.1195C124.93 45.0146 124.801 45.0087 124.651 45.1758L124.485 45.3609L124.135 45.0482L124.28 44.887C124.376 44.7407 124.525 44.6366 124.695 44.596C124.865 44.5553 125.045 44.5812 125.197 44.6682L125.351 44.4966L125.653 44.7672L125.5 44.9388C125.601 45.0809 125.645 45.2558 125.622 45.4287C125.6 45.6016 125.513 45.7596 125.379 45.8711H125.381Z" fill="black" fill-opacity="0.7"/>
<path d="M137.322 18.4464C137.322 19.135 137.526 19.8081 137.908 20.3808C138.291 20.9535 138.835 21.4 139.471 21.6637C140.107 21.9274 140.808 21.9964 141.483 21.8622C142.159 21.728 142.779 21.3967 143.266 20.9099C143.753 20.423 144.085 19.8027 144.22 19.1273C144.354 18.452 144.285 17.7519 144.022 17.1157C143.758 16.4795 143.312 15.9357 142.739 15.5531C142.167 15.1705 141.493 14.9663 140.804 14.9663C139.881 14.9663 138.996 15.3329 138.343 15.9855C137.69 16.6381 137.323 17.5233 137.322 18.4464Z" fill="#BFBFBF" stroke="#263238" stroke-width="0.4" stroke-linecap="round" stroke-linejoin="round"/>
<path opacity="0.5" d="M142.973 20.3915C143.358 19.9625 143.607 19.429 143.689 18.8585C143.771 18.288 143.681 17.7061 143.432 17.1865C143.183 16.6668 142.785 16.2327 142.289 15.939C141.793 15.6453 141.221 15.5052 140.645 15.5365C140.07 15.5679 139.517 15.7693 139.055 16.1151C138.594 16.4609 138.246 16.9355 138.055 17.4792C137.863 18.0229 137.838 18.611 137.981 19.1693C138.124 19.7275 138.43 20.2308 138.859 20.6154C139.434 21.131 140.191 21.3971 140.962 21.3551C141.734 21.313 142.457 20.9665 142.973 20.3915ZM141.872 18.3649C141.743 18.503 141.581 18.606 141.401 18.6639C141.221 18.7218 141.029 18.7327 140.844 18.6957C140.418 18.6711 140.245 18.7288 140.095 18.8958C139.945 19.0629 139.955 19.1878 140.072 19.2927C140.189 19.3976 140.313 19.3943 140.464 19.2279L140.55 19.1309L140.9 19.4442L140.835 19.5173C140.74 19.6628 140.593 19.7665 140.424 19.8072C140.254 19.848 140.076 19.8228 139.925 19.7369L139.768 19.9111L139.466 19.6405L139.623 19.4663C139.525 19.3248 139.483 19.1514 139.506 18.9805C139.529 18.8097 139.615 18.6538 139.748 18.5436C139.877 18.405 140.039 18.3017 140.219 18.2438C140.4 18.1858 140.592 18.1752 140.777 18.2128C141.2 18.2413 141.376 18.1797 141.526 18.0127C141.676 17.8456 141.655 17.7181 141.539 17.6126C141.423 17.5071 141.294 17.5012 141.144 17.6689L140.979 17.8541L140.629 17.5407L140.774 17.3801C140.87 17.2338 141.019 17.1299 141.189 17.0891C141.359 17.0483 141.539 17.0739 141.691 17.1607L141.844 16.9897L142.146 17.2604L141.993 17.4307C142.094 17.5731 142.138 17.7485 142.115 17.9218C142.092 18.0951 142.005 18.2534 141.87 18.3649H141.872Z" fill="black" fill-opacity="0.7"/>
<path d="M153.487 85.7081C154.156 85.5442 154.761 85.1858 155.226 84.678C155.691 84.1701 155.995 83.5357 156.1 82.8551C156.204 82.1745 156.104 81.4783 155.813 80.8544C155.521 80.2306 155.052 79.7072 154.462 79.3504C153.873 78.9936 153.192 78.8195 152.504 78.8501C151.816 78.8807 151.152 79.1147 150.597 79.5224C150.042 79.93 149.62 80.493 149.386 81.1402C149.151 81.7875 149.113 82.4898 149.277 83.1585C149.498 84.0545 150.065 84.8266 150.854 85.3047C151.644 85.7828 152.591 85.9279 153.487 85.7081Z" fill="#BFBFBF" stroke="#263238" stroke-width="0.4" stroke-linecap="round" stroke-linejoin="round"/>
<path opacity="0.5" d="M154.027 79.7587C153.518 79.4873 152.941 79.3729 152.367 79.4298C151.793 79.4867 151.249 79.7125 150.804 80.0785C150.359 80.4445 150.032 80.9342 149.865 81.4859C149.698 82.0376 149.699 82.6264 149.867 83.1777C150.035 83.7291 150.362 84.2183 150.808 84.5835C151.254 84.9486 151.799 85.1733 152.373 85.229C152.946 85.2847 153.524 85.169 154.032 84.8966C154.54 84.6242 154.956 84.2073 155.227 83.6986C155.59 83.017 155.667 82.2191 155.442 81.4804C155.217 80.7417 154.708 80.1223 154.027 79.7587ZM152.322 81.3127C152.486 81.4053 152.625 81.5384 152.724 81.6993C152.823 81.8603 152.88 82.0438 152.888 82.2326C152.966 82.6522 153.062 82.8051 153.262 82.9112C153.461 83.0174 153.579 82.9759 153.651 82.8393C153.722 82.7027 153.691 82.5804 153.493 82.4742L153.377 82.4094L153.599 81.9963L153.686 82.0436C153.85 82.1017 153.986 82.22 154.065 82.3744C154.145 82.5289 154.163 82.7077 154.116 82.8749L154.323 82.9857L154.128 83.3431L153.921 83.2323C153.808 83.3619 153.649 83.4441 153.478 83.4624C153.306 83.4808 153.134 83.434 152.996 83.3314C152.831 83.2392 152.692 83.1063 152.593 82.9452C152.493 82.7842 152.437 82.6004 152.429 82.4114C152.355 81.9932 152.255 81.8378 152.056 81.7316C151.857 81.6254 151.738 81.6746 151.667 81.8138C151.597 81.953 151.618 82.0792 151.817 82.1854L152.036 82.3013L151.815 82.7157L151.624 82.6141C151.459 82.5554 151.323 82.4362 151.242 82.2805C151.162 82.1249 151.144 81.9445 151.192 81.7761L150.989 81.6674L151.181 81.31L151.383 81.4181C151.497 81.2849 151.657 81.2 151.832 81.1804C152.006 81.1608 152.181 81.2081 152.322 81.3127Z" fill="black" fill-opacity="0.7"/>
<path d="M150.397 13.1943V26.3402" stroke="#263238" stroke-width="0.4" stroke-linecap="round" stroke-linejoin="round"/>
<path d="M150.397 5.30713V10.5657" stroke="#263238" stroke-width="0.4" stroke-linecap="round" stroke-linejoin="round"/>
<path d="M150.397 0.393555V3.20608" stroke="#263238" stroke-width="0.4" stroke-linecap="round" stroke-linejoin="round"/>
<path d="M152.881 24.803L150.398 27.8765L147.915 24.803" stroke="#263238" stroke-width="0.4" stroke-linecap="round" stroke-linejoin="round"/>
<path d="M143.824 79.0193V92.1651" stroke="#263238" stroke-width="0.4" stroke-linecap="round" stroke-linejoin="round"/>
<path d="M143.824 71.1321V76.3907" stroke="#263238" stroke-width="0.4" stroke-linecap="round" stroke-linejoin="round"/>
<path d="M143.824 66.2185V69.031" stroke="#263238" stroke-width="0.4" stroke-linecap="round" stroke-linejoin="round"/>
<path d="M146.307 90.6287L143.824 93.7021L141.341 90.6287" stroke="#263238" stroke-width="0.4" stroke-linecap="round" stroke-linejoin="round"/>
<path d="M130.835 39.4575V52.6034" stroke="#263238" stroke-width="0.4" stroke-linecap="round" stroke-linejoin="round"/>
<path d="M130.835 31.5703V36.8283" stroke="#263238" stroke-width="0.4" stroke-linecap="round" stroke-linejoin="round"/>
<path d="M130.835 26.6567V29.4693" stroke="#263238" stroke-width="0.4" stroke-linecap="round" stroke-linejoin="round"/>
<path d="M133.318 51.0664L130.835 54.1393L128.353 51.0664" stroke="#263238" stroke-width="0.4" stroke-linecap="round" stroke-linejoin="round"/>
</g>
<path d="M54.7911 261.165H57.2741V269.264H58.4571V261.165H60.9271V260.203H54.7911V261.165ZM62.3833 269.264H63.5663V265.325C63.5663 263.791 64.3983 263.037 65.6073 263.037C66.8033 263.037 67.5963 263.778 67.5963 265.234V269.264H68.7663V265.065C68.7663 263.024 67.5053 262.01 65.9193 262.01C64.9183 262.01 64.0343 262.413 63.5663 263.167V259.644H62.3833V269.264ZM73.7278 263.024C74.9498 263.024 75.9898 263.791 75.9768 265.182H71.4788C71.6088 263.791 72.5708 263.024 73.7278 263.024ZM77.0558 267.067H75.7818C75.5218 267.834 74.8458 268.38 73.7798 268.38C72.5708 268.38 71.5568 267.587 71.4658 266.144H77.1598C77.1858 265.897 77.1988 265.689 77.1988 265.429C77.1988 263.479 75.8468 262.023 73.7798 262.023C71.6998 262.023 70.2568 263.44 70.2568 265.689C70.2568 267.951 71.7518 269.381 73.7798 269.381C75.5478 269.381 76.6918 268.367 77.0558 267.067ZM88.9861 265.689C88.9861 263.44 87.4131 262.023 85.3851 262.023C83.3701 262.023 81.7841 263.44 81.7841 265.689C81.7841 267.951 83.3181 269.381 85.3331 269.381C87.3611 269.381 88.9861 267.951 88.9861 265.689ZM82.9931 265.689C82.9931 263.895 84.1241 263.05 85.3721 263.05C86.5941 263.05 87.7771 263.895 87.7771 265.689C87.7771 267.496 86.5681 268.341 85.3331 268.341C84.0981 268.341 82.9931 267.496 82.9931 265.689ZM90.8015 267.314C90.8015 268.744 91.5165 269.264 92.7775 269.264H93.8435V268.263H92.9725C92.2445 268.263 91.9845 268.016 91.9845 267.314V263.115H93.8435V262.14H91.9845V260.346H90.8015V262.14H89.8785V263.115H90.8015V267.314ZM95.2769 269.264H96.4599V265.325C96.4599 263.791 97.2919 263.037 98.5009 263.037C99.6969 263.037 100.49 263.778 100.49 265.234V269.264H101.66V265.065C101.66 263.024 100.399 262.01 98.8129 262.01C97.8119 262.01 96.9279 262.413 96.4599 263.167V259.644H95.2769V269.264ZM106.621 263.024C107.843 263.024 108.883 263.791 108.87 265.182H104.372C104.502 263.791 105.464 263.024 106.621 263.024ZM109.949 267.067H108.675C108.415 267.834 107.739 268.38 106.673 268.38C105.464 268.38 104.45 267.587 104.359 266.144H110.053C110.079 265.897 110.092 265.689 110.092 265.429C110.092 263.479 108.74 262.023 106.673 262.023C104.593 262.023 103.15 263.44 103.15 265.689C103.15 267.951 104.645 269.381 106.673 269.381C108.441 269.381 109.585 268.367 109.949 267.067ZM112.837 265.39C112.837 263.739 113.695 263.232 114.826 263.232H115.138V262.01C114.007 262.01 113.24 262.504 112.837 263.297V262.14H111.654V269.264H112.837V265.39ZM120.19 269.264H121.373V263.115H122.868V262.14H121.373V261.633C121.373 260.71 121.724 260.32 122.79 260.32V259.332C120.97 259.332 120.19 260.047 120.19 261.633V262.14H119.267V263.115H120.19V269.264ZM125.431 265.39C125.431 263.739 126.289 263.232 127.42 263.232H127.732V262.01C126.601 262.01 125.834 262.504 125.431 263.297V262.14H124.248V269.264H125.431V265.39ZM129.097 269.264H130.28V262.14H129.097V269.264ZM129.708 260.983C130.137 260.983 130.488 260.632 130.488 260.177C130.488 259.722 130.137 259.371 129.708 259.371C129.253 259.371 128.902 259.722 128.902 260.177C128.902 260.632 129.253 260.983 129.708 260.983ZM135.325 263.024C136.547 263.024 137.587 263.791 137.574 265.182H133.076C133.206 263.791 134.168 263.024 135.325 263.024ZM138.653 267.067H137.379C137.119 267.834 136.443 268.38 135.377 268.38C134.168 268.38 133.154 267.587 133.063 266.144H138.757C138.783 265.897 138.796 265.689 138.796 265.429C138.796 263.479 137.444 262.023 135.377 262.023C133.297 262.023 131.854 263.44 131.854 265.689C131.854 267.951 133.349 269.381 135.377 269.381C137.145 269.381 138.289 268.367 138.653 267.067ZM145.571 269.264H146.741V265.065C146.741 263.024 145.48 262.01 143.829 262.01C142.867 262.01 142.009 262.413 141.541 263.154V262.14H140.358V269.264H141.541V265.325C141.541 263.791 142.373 263.037 143.582 263.037C144.778 263.037 145.571 263.778 145.571 265.234V269.264ZM148.231 265.676C148.231 267.886 149.7 269.381 151.611 269.381C152.911 269.381 153.834 268.718 154.263 267.925V269.264H155.459V259.644H154.263V263.414C153.769 262.595 152.742 262.023 151.624 262.023C149.7 262.023 148.231 263.453 148.231 265.676ZM154.263 265.689C154.263 267.366 153.145 268.341 151.845 268.341C150.545 268.341 149.44 267.353 149.44 265.676C149.44 263.999 150.545 263.05 151.845 263.05C153.145 263.05 154.263 264.038 154.263 265.689ZM162.315 269.264H163.537L165.253 263.609L166.969 269.264H168.191L170.414 262.14H169.244L167.632 268.133L165.903 262.14H164.694L162.926 268.12L161.288 262.14H160.079L162.315 269.264ZM171.588 269.264H172.771V262.14H171.588V269.264ZM172.199 260.983C172.628 260.983 172.979 260.632 172.979 260.177C172.979 259.722 172.628 259.371 172.199 259.371C171.744 259.371 171.393 259.722 171.393 260.177C171.393 260.632 171.744 260.983 172.199 260.983ZM174.788 269.264H175.971V259.644H174.788V269.264ZM177.987 269.264H179.17V259.644H177.987V269.264ZM48.9096 285.39C48.9096 283.739 49.7676 283.232 50.8986 283.232H51.2106V282.01C50.0796 282.01 49.3126 282.504 48.9096 283.297V282.14H47.7266V289.264H48.9096V285.39ZM55.6052 283.024C56.8272 283.024 57.8672 283.791 57.8542 285.182H53.3562C53.4862 283.791 54.4482 283.024 55.6052 283.024ZM58.9332 287.067H57.6592C57.3992 287.834 56.7232 288.38 55.6572 288.38C54.4482 288.38 53.4342 287.587 53.3432 286.144H59.0372C59.0632 285.897 59.0762 285.689 59.0762 285.429C59.0762 283.479 57.7242 282.023 55.6572 282.023C53.5772 282.023 52.1342 283.44 52.1342 285.689C52.1342 287.951 53.6292 289.381 55.6572 289.381C57.4252 289.381 58.5692 288.367 58.9332 287.067ZM60.1957 285.689C60.1957 287.951 61.6387 289.381 63.6667 289.381C65.4347 289.381 66.5917 288.393 66.9557 286.976H65.6817C65.4217 287.873 64.7197 288.38 63.6667 288.38C62.3667 288.38 61.4047 287.457 61.4047 285.689C61.4047 283.947 62.3667 283.024 63.6667 283.024C64.7197 283.024 65.4347 283.57 65.6817 284.428H66.9557C66.5917 282.933 65.4347 282.023 63.6667 282.023C61.6387 282.023 60.1957 283.453 60.1957 285.689ZM71.5632 283.024C72.7852 283.024 73.8252 283.791 73.8122 285.182H69.3142C69.4442 283.791 70.4062 283.024 71.5632 283.024ZM74.8912 287.067H73.6172C73.3572 287.834 72.6812 288.38 71.6152 288.38C70.4062 288.38 69.3922 287.587 69.3012 286.144H74.9952C75.0212 285.897 75.0342 285.689 75.0342 285.429C75.0342 283.479 73.6822 282.023 71.6152 282.023C69.5352 282.023 68.0922 283.44 68.0922 285.689C68.0922 287.951 69.5872 289.381 71.6152 289.381C73.3832 289.381 74.5272 288.367 74.8912 287.067ZM76.5957 289.264H77.7787V282.14H76.5957V289.264ZM77.2067 280.983C77.6357 280.983 77.9867 280.632 77.9867 280.177C77.9867 279.722 77.6357 279.371 77.2067 279.371C76.7517 279.371 76.4007 279.722 76.4007 280.177C76.4007 280.632 76.7517 280.983 77.2067 280.983ZM78.9499 282.14L81.7449 289.264H83.1229L85.9179 282.14H84.6569L82.4469 288.172L80.2239 282.14H78.9499ZM90.1111 283.024C91.3331 283.024 92.3731 283.791 92.3601 285.182H87.8621C87.9921 283.791 88.9541 283.024 90.1111 283.024ZM93.4391 287.067H92.1651C91.9051 287.834 91.2291 288.38 90.1631 288.38C88.9541 288.38 87.9401 287.587 87.8491 286.144H93.5431C93.5691 285.897 93.5821 285.689 93.5821 285.429C93.5821 283.479 92.2301 282.023 90.1631 282.023C88.0831 282.023 86.6401 283.44 86.6401 285.689C86.6401 287.951 88.1351 289.381 90.1631 289.381C91.9311 289.381 93.0751 288.367 93.4391 287.067ZM108.892 289.264H110.062V285.065C110.062 283.024 108.801 282.01 107.176 282.01C106.084 282.01 105.07 282.569 104.654 283.596C104.186 282.53 103.211 282.01 102.041 282.01C101.105 282.01 100.26 282.413 99.7924 283.167V282.14H98.6094V289.264H99.7924V285.338C99.7924 283.804 100.611 283.037 101.807 283.037C102.977 283.037 103.757 283.778 103.757 285.234V289.264H104.927V285.338C104.927 283.804 105.746 283.037 106.942 283.037C108.112 283.037 108.892 283.778 108.892 285.234V289.264ZM118.763 285.689C118.763 283.44 117.19 282.023 115.162 282.023C113.147 282.023 111.561 283.44 111.561 285.689C111.561 287.951 113.095 289.381 115.11 289.381C117.138 289.381 118.763 287.951 118.763 285.689ZM112.77 285.689C112.77 283.895 113.901 283.05 115.149 283.05C116.371 283.05 117.554 283.895 117.554 285.689C117.554 287.496 116.345 288.341 115.11 288.341C113.875 288.341 112.77 287.496 112.77 285.689ZM125.531 289.264H126.701V285.065C126.701 283.024 125.44 282.01 123.789 282.01C122.827 282.01 121.969 282.413 121.501 283.154V282.14H120.318V289.264H121.501V285.325C121.501 283.791 122.333 283.037 123.542 283.037C124.738 283.037 125.531 283.778 125.531 285.234V289.264ZM131.663 283.024C132.885 283.024 133.925 283.791 133.912 285.182H129.414C129.544 283.791 130.506 283.024 131.663 283.024ZM134.991 287.067H133.717C133.457 287.834 132.781 288.38 131.715 288.38C130.506 288.38 129.492 287.587 129.401 286.144H135.095C135.121 285.897 135.134 285.689 135.134 285.429C135.134 283.479 133.782 282.023 131.715 282.023C129.635 282.023 128.192 283.44 128.192 285.689C128.192 287.951 129.687 289.381 131.715 289.381C133.483 289.381 134.627 288.367 134.991 287.067ZM139.399 287.912L137.163 282.14H135.85L138.723 289.186L137.319 292.618H138.541L142.831 282.14H141.609L139.399 287.912ZM154.246 285.689C154.246 283.44 152.673 282.023 150.645 282.023C148.63 282.023 147.044 283.44 147.044 285.689C147.044 287.951 148.578 289.381 150.593 289.381C152.621 289.381 154.246 287.951 154.246 285.689ZM148.253 285.689C148.253 283.895 149.384 283.05 150.632 283.05C151.854 283.05 153.037 283.895 153.037 285.689C153.037 287.496 151.828 288.341 150.593 288.341C149.358 288.341 148.253 287.496 148.253 285.689ZM161.015 289.264H162.185V285.065C162.185 283.024 160.924 282.01 159.273 282.01C158.311 282.01 157.453 282.413 156.985 283.154V282.14H155.802V289.264H156.985V285.325C156.985 283.791 157.817 283.037 159.026 283.037C160.222 283.037 161.015 283.778 161.015 285.234V289.264ZM167.583 289.264H168.766V285.325C168.766 283.791 169.598 283.037 170.807 283.037C172.003 283.037 172.796 283.778 172.796 285.234V289.264H173.966V285.065C173.966 283.024 172.705 282.01 171.119 282.01C170.118 282.01 169.234 282.413 168.766 283.167V279.644H167.583V289.264ZM178.927 283.024C180.149 283.024 181.189 283.791 181.176 285.182H176.678C176.808 283.791 177.77 283.024 178.927 283.024ZM182.255 287.067H180.981C180.721 287.834 180.045 288.38 178.979 288.38C177.77 288.38 176.756 287.587 176.665 286.144H182.359C182.385 285.897 182.398 285.689 182.398 285.429C182.398 283.479 181.046 282.023 178.979 282.023C176.899 282.023 175.456 283.44 175.456 285.689C175.456 287.951 176.951 289.381 178.979 289.381C180.747 289.381 181.891 288.367 182.255 287.067ZM185.143 285.39C185.143 283.739 186.001 283.232 187.132 283.232H187.444V282.01C186.313 282.01 185.546 282.504 185.143 283.297V282.14H183.96V289.264H185.143V285.39ZM68.8654 303.024C70.0874 303.024 71.1274 303.791 71.1144 305.182H66.6164C66.7464 303.791 67.7084 303.024 68.8654 303.024ZM72.1934 307.067H70.9194C70.6594 307.834 69.9834 308.38 68.9174 308.38C67.7084 308.38 66.6944 307.587 66.6034 306.144H72.2974C72.3234 305.897 72.3364 305.689 72.3364 305.429C72.3364 303.479 70.9844 302.023 68.9174 302.023C66.8374 302.023 65.3944 303.44 65.3944 305.689C65.3944 307.951 66.8894 309.381 68.9174 309.381C70.6854 309.381 71.8294 308.367 72.1934 307.067ZM73.456 305.676C73.456 307.886 74.925 309.381 76.823 309.381C78.136 309.381 79.059 308.705 79.488 307.938V309.264H80.684V302.14H79.488V303.44C79.072 302.699 78.162 302.023 76.836 302.023C74.925 302.023 73.456 303.453 73.456 305.676ZM79.488 305.689C79.488 307.366 78.37 308.341 77.07 308.341C75.77 308.341 74.665 307.353 74.665 305.676C74.665 303.999 75.77 303.05 77.07 303.05C78.37 303.05 79.488 304.038 79.488 305.689ZM87.8051 307.327C87.7531 304.779 83.6191 305.702 83.6191 304.012C83.6191 303.44 84.1391 303.024 85.0101 303.024C85.9591 303.024 86.5051 303.544 86.5571 304.259H87.7401C87.6621 302.868 86.6221 302.023 85.0491 302.023C83.4631 302.023 82.4361 302.92 82.4361 304.012C82.4361 306.664 86.6481 305.741 86.6481 307.327C86.6481 307.912 86.1281 308.38 85.1921 308.38C84.1911 308.38 83.5801 307.86 83.5151 307.171H82.2931C82.3711 308.471 83.5411 309.381 85.2051 309.381C86.7781 309.381 87.8051 308.497 87.8051 307.327ZM92.1791 307.912L89.9431 302.14H88.6301L91.5031 309.186L90.0991 312.618H91.3211L95.6111 302.14H94.3891L92.1791 307.912ZM99.8241 305.689C99.8241 307.951 101.267 309.381 103.295 309.381C105.063 309.381 106.22 308.393 106.584 306.976H105.31C105.05 307.873 104.348 308.38 103.295 308.38C101.995 308.38 101.033 307.457 101.033 305.689C101.033 303.947 101.995 303.024 103.295 303.024C104.348 303.024 105.063 303.57 105.31 304.428H106.584C106.22 302.933 105.063 302.023 103.295 302.023C101.267 302.023 99.8241 303.453 99.8241 305.689ZM107.721 305.676C107.721 307.886 109.19 309.381 111.088 309.381C112.401 309.381 113.324 308.705 113.753 307.938V309.264H114.949V302.14H113.753V303.44C113.337 302.699 112.427 302.023 111.101 302.023C109.19 302.023 107.721 303.453 107.721 305.676ZM113.753 305.689C113.753 307.366 112.635 308.341 111.335 308.341C110.035 308.341 108.93 307.353 108.93 305.676C108.93 303.999 110.035 303.05 111.335 303.05C112.635 303.05 113.753 304.038 113.753 305.689ZM122.07 307.327C122.018 304.779 117.884 305.702 117.884 304.012C117.884 303.44 118.404 303.024 119.275 303.024C120.224 303.024 120.77 303.544 120.822 304.259H122.005C121.927 302.868 120.887 302.023 119.314 302.023C117.728 302.023 116.701 302.92 116.701 304.012C116.701 306.664 120.913 305.741 120.913 307.327C120.913 307.912 120.393 308.38 119.457 308.38C118.456 308.38 117.845 307.86 117.78 307.171H116.558C116.636 308.471 117.806 309.381 119.47 309.381C121.043 309.381 122.07 308.497 122.07 307.327ZM123.74 309.264H124.923V305.325C124.923 303.791 125.755 303.037 126.964 303.037C128.16 303.037 128.953 303.778 128.953 305.234V309.264H130.123V305.065C130.123 303.024 128.862 302.01 127.276 302.01C126.275 302.01 125.391 302.413 124.923 303.167V299.644H123.74V309.264ZM136.912 309.264H138.134L139.85 303.609L141.566 309.264H142.788L145.011 302.14H143.841L142.229 308.133L140.5 302.14H139.291L137.523 308.12L135.885 302.14H134.676L136.912 309.264ZM145.743 305.676C145.743 307.886 147.212 309.381 149.11 309.381C150.423 309.381 151.346 308.705 151.775 307.938V309.264H152.971V302.14H151.775V303.44C151.359 302.699 150.449 302.023 149.123 302.023C147.212 302.023 145.743 303.453 145.743 305.676ZM151.775 305.689C151.775 307.366 150.657 308.341 149.357 308.341C148.057 308.341 146.952 307.353 146.952 305.676C146.952 303.999 148.057 303.05 149.357 303.05C150.657 303.05 151.775 304.038 151.775 305.689ZM154.97 309.264H156.153V299.644H154.97V309.264ZM158.169 309.264H159.352V299.644H158.169V309.264ZM164.398 303.024C165.62 303.024 166.66 303.791 166.647 305.182H162.149C162.279 303.791 163.241 303.024 164.398 303.024ZM167.726 307.067H166.452C166.192 307.834 165.516 308.38 164.45 308.38C163.241 308.38 162.227 307.587 162.136 306.144H167.83C167.856 305.897 167.869 305.689 167.869 305.429C167.869 303.479 166.517 302.023 164.45 302.023C162.37 302.023 160.927 303.44 160.927 305.689C160.927 307.951 162.422 309.381 164.45 309.381C166.218 309.381 167.362 308.367 167.726 307.067ZM169.69 307.314C169.69 308.744 170.405 309.264 171.666 309.264H172.732V308.263H171.861C171.133 308.263 170.873 308.016 170.873 307.314V303.115H172.732V302.14H170.873V300.346H169.69V302.14H168.767V303.115H169.69V307.314Z" fill="black"/>
<defs>
<clipPath id="clip0">
<rect width="235.652" height="257.391" fill="white" transform="translate(0.870117 0.26416)"/>
</clipPath>
</defs>
</svg>
