<svg width="557" height="75" viewBox="0 0 557 75" fill="none" xmlns="http://www.w3.org/2000/svg">
<path d="M68.4656 37.7422H63.5359V41.7734H69.2625V43H62.0359V31.625H69.1843V32.8594H63.5359V36.5156H68.4656V37.7422ZM72.2703 34.5469L72.3171 35.6094C72.963 34.7969 73.8067 34.3906 74.8484 34.3906C76.6348 34.3906 77.5359 35.3984 77.5515 37.4141V43H76.1062V37.4062C76.101 36.7969 75.9604 36.3464 75.6843 36.0547C75.4135 35.763 74.989 35.6172 74.4109 35.6172C73.9421 35.6172 73.5307 35.7422 73.1765 35.9922C72.8223 36.2422 72.5463 36.5703 72.3484 36.9766V43H70.9031V34.5469H72.2703ZM81.6921 32.5V34.5469H83.2703V35.6641H81.6921V40.9062C81.6921 41.2448 81.7625 41.5 81.9031 41.6719C82.0437 41.8385 82.2833 41.9219 82.6218 41.9219C82.7885 41.9219 83.0177 41.8906 83.3093 41.8281V43C82.9291 43.1042 82.5593 43.1562 82.2 43.1562C81.5541 43.1562 81.0671 42.9609 80.739 42.5703C80.4109 42.1797 80.2468 41.625 80.2468 40.9062V35.6641H78.7078V34.5469H80.2468V32.5H81.6921ZM88.4734 43.1562C87.3276 43.1562 86.3953 42.7812 85.6765 42.0312C84.9578 41.276 84.5984 40.2682 84.5984 39.0078V38.7422C84.5984 37.9036 84.7572 37.1562 85.075 36.5C85.3979 35.8385 85.8458 35.3229 86.4187 34.9531C86.9968 34.5781 87.6218 34.3906 88.2937 34.3906C89.3927 34.3906 90.2468 34.7526 90.8562 35.4766C91.4656 36.2005 91.7703 37.237 91.7703 38.5859V39.1875H86.0437C86.0645 40.0208 86.3067 40.6953 86.7703 41.2109C87.239 41.7214 87.8328 41.9766 88.5515 41.9766C89.0619 41.9766 89.4942 41.8724 89.8484 41.6641C90.2026 41.4557 90.5125 41.1797 90.7781 40.8359L91.6609 41.5234C90.9526 42.612 89.8901 43.1562 88.4734 43.1562ZM88.2937 35.5781C87.7104 35.5781 87.2208 35.7917 86.825 36.2188C86.4291 36.6406 86.1843 37.2344 86.0906 38H90.325V37.8906C90.2833 37.1562 90.0854 36.5885 89.7312 36.1875C89.377 35.7812 88.8979 35.5781 88.2937 35.5781ZM97.5359 35.8438C97.3171 35.8073 97.0802 35.7891 96.825 35.7891C95.877 35.7891 95.2338 36.1927 94.8953 37V43H93.45V34.5469H94.8562L94.8796 35.5234C95.3536 34.7682 96.0255 34.3906 96.8953 34.3906C97.1765 34.3906 97.3901 34.4271 97.5359 34.5V35.8438ZM105.606 40.8828L107.575 34.5469H109.122L105.723 44.3047C105.197 45.7109 104.361 46.4141 103.216 46.4141L102.942 46.3906L102.403 46.2891V45.1172L102.794 45.1484C103.283 45.1484 103.663 45.0495 103.934 44.8516C104.21 44.6536 104.437 44.2917 104.614 43.7656L104.934 42.9062L101.919 34.5469H103.497L105.606 40.8828ZM109.911 38.6953C109.911 37.8672 110.072 37.1224 110.395 36.4609C110.723 35.7995 111.177 35.2891 111.755 34.9297C112.338 34.5703 113.002 34.3906 113.747 34.3906C114.898 34.3906 115.828 34.7891 116.536 35.5859C117.249 36.3828 117.606 37.4427 117.606 38.7656V38.8672C117.606 39.6901 117.447 40.4297 117.13 41.0859C116.817 41.737 116.367 42.2448 115.778 42.6094C115.195 42.974 114.523 43.1562 113.762 43.1562C112.617 43.1562 111.687 42.7578 110.973 41.9609C110.265 41.1641 109.911 40.1094 109.911 38.7969V38.6953ZM111.364 38.8672C111.364 39.8047 111.58 40.5573 112.012 41.125C112.45 41.6927 113.033 41.9766 113.762 41.9766C114.497 41.9766 115.08 41.6901 115.512 41.1172C115.945 40.5391 116.161 39.7318 116.161 38.6953C116.161 37.7682 115.94 37.0182 115.497 36.4453C115.059 35.8672 114.476 35.5781 113.747 35.5781C113.033 35.5781 112.458 35.862 112.02 36.4297C111.583 36.9974 111.364 37.8099 111.364 38.8672ZM124.637 42.1641C124.075 42.8255 123.249 43.1562 122.161 43.1562C121.26 43.1562 120.572 42.8958 120.098 42.375C119.63 41.849 119.393 41.0729 119.387 40.0469V34.5469H120.833V40.0078C120.833 41.2891 121.354 41.9297 122.395 41.9297C123.499 41.9297 124.234 41.5182 124.598 40.6953V34.5469H126.044V43H124.669L124.637 42.1641ZM132.333 35.8438C132.114 35.8073 131.877 35.7891 131.622 35.7891C130.674 35.7891 130.031 36.1927 129.692 37V43H128.247V34.5469H129.653L129.677 35.5234C130.15 34.7682 130.822 34.3906 131.692 34.3906C131.973 34.3906 132.187 34.4271 132.333 34.5V35.8438ZM139.364 38.5469V43H137.864V31.625H142.059C143.304 31.625 144.278 31.9427 144.981 32.5781C145.69 33.2135 146.044 34.0547 146.044 35.1016C146.044 36.2057 145.697 37.0573 145.005 37.6562C144.317 38.25 143.33 38.5469 142.044 38.5469H139.364ZM139.364 37.3203H142.059C142.861 37.3203 143.476 37.1328 143.903 36.7578C144.33 36.3776 144.544 35.8307 144.544 35.1172C144.544 34.4401 144.33 33.8984 143.903 33.4922C143.476 33.0859 142.89 32.875 142.145 32.8594H139.364V37.3203ZM149.567 43H148.067V31.625H149.567V43ZM161.059 43H159.552L153.825 34.2344V43H152.317V31.625H153.825L159.567 40.4297V31.625H161.059V43ZM169.427 32.5V34.5469H171.005V35.6641H169.427V40.9062C169.427 41.2448 169.497 41.5 169.637 41.6719C169.778 41.8385 170.018 41.9219 170.356 41.9219C170.523 41.9219 170.752 41.8906 171.044 41.8281V43C170.663 43.1042 170.294 43.1562 169.934 43.1562C169.288 43.1562 168.802 42.9609 168.473 42.5703C168.145 42.1797 167.981 41.625 167.981 40.9062V35.6641H166.442V34.5469H167.981V32.5H169.427ZM172.161 38.6953C172.161 37.8672 172.322 37.1224 172.645 36.4609C172.973 35.7995 173.427 35.2891 174.005 34.9297C174.588 34.5703 175.252 34.3906 175.997 34.3906C177.148 34.3906 178.078 34.7891 178.786 35.5859C179.499 36.3828 179.856 37.4427 179.856 38.7656V38.8672C179.856 39.6901 179.697 40.4297 179.38 41.0859C179.067 41.737 178.617 42.2448 178.028 42.6094C177.445 42.974 176.773 43.1562 176.012 43.1562C174.867 43.1562 173.937 42.7578 173.223 41.9609C172.515 41.1641 172.161 40.1094 172.161 38.7969V38.6953ZM173.614 38.8672C173.614 39.8047 173.83 40.5573 174.262 41.125C174.7 41.6927 175.283 41.9766 176.012 41.9766C176.747 41.9766 177.33 41.6901 177.762 41.1172C178.195 40.5391 178.411 39.7318 178.411 38.6953C178.411 37.7682 178.19 37.0182 177.747 36.4453C177.309 35.8672 176.726 35.5781 175.997 35.5781C175.283 35.5781 174.708 35.862 174.27 36.4297C173.833 36.9974 173.614 37.8099 173.614 38.8672ZM192.778 38.8672C192.778 40.1536 192.484 41.1901 191.895 41.9766C191.307 42.763 190.51 43.1562 189.505 43.1562C188.479 43.1562 187.671 42.8307 187.083 42.1797V46.25H185.637V34.5469H186.958L187.028 35.4844C187.617 34.7552 188.434 34.3906 189.481 34.3906C190.497 34.3906 191.299 34.7734 191.887 35.5391C192.481 36.3047 192.778 37.3698 192.778 38.7344V38.8672ZM191.333 38.7031C191.333 37.75 191.13 36.9974 190.723 36.4453C190.317 35.8932 189.76 35.6172 189.052 35.6172C188.177 35.6172 187.52 36.0052 187.083 36.7812V40.8203C187.515 41.5911 188.177 41.9766 189.067 41.9766C189.76 41.9766 190.309 41.7031 190.716 41.1562C191.127 40.6042 191.333 39.7865 191.333 38.7031ZM198.708 35.8438C198.489 35.8073 198.252 35.7891 197.997 35.7891C197.049 35.7891 196.406 36.1927 196.067 37V43H194.622V34.5469H196.028L196.052 35.5234C196.525 34.7682 197.197 34.3906 198.067 34.3906C198.348 34.3906 198.562 34.4271 198.708 34.5V35.8438ZM199.505 38.6953C199.505 37.8672 199.666 37.1224 199.989 36.4609C200.317 35.7995 200.77 35.2891 201.348 34.9297C201.932 34.5703 202.596 34.3906 203.341 34.3906C204.492 34.3906 205.421 34.7891 206.13 35.5859C206.843 36.3828 207.2 37.4427 207.2 38.7656V38.8672C207.2 39.6901 207.041 40.4297 206.723 41.0859C206.411 41.737 205.96 42.2448 205.372 42.6094C204.788 42.974 204.117 43.1562 203.356 43.1562C202.21 43.1562 201.281 42.7578 200.567 41.9609C199.859 41.1641 199.505 40.1094 199.505 38.7969V38.6953ZM200.958 38.8672C200.958 39.8047 201.174 40.5573 201.606 41.125C202.044 41.6927 202.627 41.9766 203.356 41.9766C204.091 41.9766 204.674 41.6901 205.106 41.1172C205.538 40.5391 205.755 39.7318 205.755 38.6953C205.755 37.7682 205.533 37.0182 205.091 36.4453C204.653 35.8672 204.07 35.5781 203.341 35.5781C202.627 35.5781 202.052 35.862 201.614 36.4297C201.177 36.9974 200.958 37.8099 200.958 38.8672ZM212.403 41.9766C212.919 41.9766 213.369 41.8203 213.755 41.5078C214.14 41.1953 214.354 40.8047 214.395 40.3359H215.762C215.736 40.8203 215.57 41.2812 215.262 41.7188C214.955 42.1562 214.544 42.5052 214.028 42.7656C213.518 43.026 212.976 43.1562 212.403 43.1562C211.252 43.1562 210.335 42.7734 209.653 42.0078C208.976 41.237 208.637 40.1849 208.637 38.8516V38.6094C208.637 37.7865 208.788 37.0547 209.091 36.4141C209.393 35.7734 209.825 35.276 210.387 34.9219C210.955 34.5677 211.624 34.3906 212.395 34.3906C213.343 34.3906 214.13 34.6745 214.755 35.2422C215.385 35.8099 215.721 36.5469 215.762 37.4531H214.395C214.354 36.9062 214.145 36.4583 213.77 36.1094C213.4 35.7552 212.942 35.5781 212.395 35.5781C211.661 35.5781 211.091 35.8438 210.684 36.375C210.283 36.901 210.083 37.6641 210.083 38.6641V38.9375C210.083 39.9115 210.283 40.6615 210.684 41.1875C211.085 41.7135 211.658 41.9766 212.403 41.9766ZM220.895 43.1562C219.749 43.1562 218.817 42.7812 218.098 42.0312C217.38 41.276 217.02 40.2682 217.02 39.0078V38.7422C217.02 37.9036 217.179 37.1562 217.497 36.5C217.82 35.8385 218.268 35.3229 218.841 34.9531C219.419 34.5781 220.044 34.3906 220.716 34.3906C221.815 34.3906 222.669 34.7526 223.278 35.4766C223.887 36.2005 224.192 37.237 224.192 38.5859V39.1875H218.466C218.486 40.0208 218.729 40.6953 219.192 41.2109C219.661 41.7214 220.255 41.9766 220.973 41.9766C221.484 41.9766 221.916 41.8724 222.27 41.6641C222.624 41.4557 222.934 41.1797 223.2 40.8359L224.083 41.5234C223.374 42.612 222.312 43.1562 220.895 43.1562ZM220.716 35.5781C220.132 35.5781 219.643 35.7917 219.247 36.2188C218.851 36.6406 218.606 37.2344 218.512 38H222.747V37.8906C222.705 37.1562 222.507 36.5885 222.153 36.1875C221.799 35.7812 221.32 35.5781 220.716 35.5781ZM229.38 43.1562C228.234 43.1562 227.302 42.7812 226.583 42.0312C225.864 41.276 225.505 40.2682 225.505 39.0078V38.7422C225.505 37.9036 225.663 37.1562 225.981 36.5C226.304 35.8385 226.752 35.3229 227.325 34.9531C227.903 34.5781 228.528 34.3906 229.2 34.3906C230.299 34.3906 231.153 34.7526 231.762 35.4766C232.372 36.2005 232.677 37.237 232.677 38.5859V39.1875H226.95C226.971 40.0208 227.213 40.6953 227.677 41.2109C228.145 41.7214 228.739 41.9766 229.458 41.9766C229.968 41.9766 230.4 41.8724 230.755 41.6641C231.109 41.4557 231.419 41.1797 231.684 40.8359L232.567 41.5234C231.859 42.612 230.796 43.1562 229.38 43.1562ZM229.2 35.5781C228.617 35.5781 228.127 35.7917 227.731 36.2188C227.335 36.6406 227.091 37.2344 226.997 38H231.231V37.8906C231.19 37.1562 230.992 36.5885 230.637 36.1875C230.283 35.7812 229.804 35.5781 229.2 35.5781ZM234.005 38.7031C234.005 37.4062 234.312 36.3646 234.927 35.5781C235.541 34.7865 236.346 34.3906 237.341 34.3906C238.33 34.3906 239.114 34.7292 239.692 35.4062V31H241.137V43H239.809L239.739 42.0938C239.161 42.8021 238.356 43.1562 237.325 43.1562C236.346 43.1562 235.546 42.7552 234.927 41.9531C234.312 41.151 234.005 40.1042 234.005 38.8125V38.7031ZM235.45 38.8672C235.45 39.8255 235.648 40.5755 236.044 41.1172C236.44 41.6589 236.986 41.9297 237.684 41.9297C238.601 41.9297 239.27 41.5182 239.692 40.6953V36.8125C239.26 36.0156 238.596 35.6172 237.7 35.6172C236.992 35.6172 236.44 35.8906 236.044 36.4375C235.648 36.9844 235.45 37.7943 235.45 38.8672ZM243.419 42.2422C243.419 41.9922 243.492 41.7839 243.637 41.6172C243.788 41.4505 244.012 41.3672 244.309 41.3672C244.606 41.3672 244.83 41.4505 244.981 41.6172C245.137 41.7839 245.216 41.9922 245.216 42.2422C245.216 42.4818 245.137 42.6823 244.981 42.8438C244.83 43.0052 244.606 43.0859 244.309 43.0859C244.012 43.0859 243.788 43.0052 243.637 42.8438C243.492 42.6823 243.419 42.4818 243.419 42.2422Z" fill="#656668"/>
<path d="M18.4788 31.688H21.3268C21.6148 29.448 23.2468 27.912 25.9668 27.912C28.7508 27.912 30.2228 29.448 30.2228 31.656C30.2228 34.344 28.1428 35.528 24.2708 35.56H23.5028V37.992H24.2388C28.3988 37.992 30.6708 39.24 30.6708 42.504C30.6708 44.872 29.1988 46.696 26.0948 46.696C23.0228 46.696 21.2308 44.808 20.9428 42.344H18.1268C18.4788 46.824 21.7428 49.16 26.1268 49.16C30.9588 49.16 33.4548 46.344 33.4548 42.76C33.4548 39.432 31.6308 37.448 28.9428 36.808V36.648C31.3748 36.104 33.0388 34.024 33.0388 31.368C33.0388 28.04 30.5748 25.416 26.0628 25.416C21.7748 25.416 18.7668 27.72 18.4788 31.688Z" fill="#656668"/>
</svg>
