<svg width="557" height="75" viewBox="0 0 557 75" fill="none" xmlns="http://www.w3.org/2000/svg">
<path d="M69.8953 32.8594H66.239V43H64.7468V32.8594H61.0984V31.625H69.8953V32.8594ZM74.8484 35.8438C74.6296 35.8073 74.3927 35.7891 74.1375 35.7891C73.1895 35.7891 72.5463 36.1927 72.2078 37V43H70.7625V34.5469H72.1687L72.1921 35.5234C72.6661 34.7682 73.338 34.3906 74.2078 34.3906C74.489 34.3906 74.7026 34.4271 74.8484 34.5V35.8438ZM81.0906 43C81.0072 42.8333 80.9395 42.5365 80.8875 42.1094C80.2156 42.8073 79.4135 43.1562 78.4812 43.1562C77.6479 43.1562 76.963 42.9219 76.4265 42.4531C75.8953 41.9792 75.6296 41.3802 75.6296 40.6562C75.6296 39.776 75.963 39.0938 76.6296 38.6094C77.3015 38.1198 78.2442 37.875 79.4578 37.875H80.864V37.2109C80.864 36.7057 80.713 36.3047 80.4109 36.0078C80.1088 35.7057 79.6635 35.5547 79.075 35.5547C78.5593 35.5547 78.127 35.6849 77.7781 35.9453C77.4291 36.2057 77.2546 36.5208 77.2546 36.8906H75.8015C75.8015 36.4688 75.95 36.0625 76.2468 35.6719C76.5489 35.276 76.9552 34.9635 77.4656 34.7344C77.9812 34.5052 78.5463 34.3906 79.1609 34.3906C80.1348 34.3906 80.8979 34.6354 81.45 35.125C82.002 35.6094 82.2885 36.2786 82.3093 37.1328V41.0234C82.3093 41.7995 82.4083 42.4167 82.6062 42.875V43H81.0906ZM78.6921 41.8984C79.1453 41.8984 79.575 41.7812 79.9812 41.5469C80.3875 41.3125 80.6817 41.0078 80.864 40.6328V38.8984H79.7312C77.9604 38.8984 77.075 39.4167 77.075 40.4531C77.075 40.9062 77.226 41.2604 77.5281 41.5156C77.8302 41.7708 78.2182 41.8984 78.6921 41.8984ZM85.9421 34.5469L85.989 35.6094C86.6348 34.7969 87.4786 34.3906 88.5203 34.3906C90.3067 34.3906 91.2078 35.3984 91.2234 37.4141V43H89.7781V37.4062C89.7729 36.7969 89.6322 36.3464 89.3562 36.0547C89.0854 35.763 88.6609 35.6172 88.0828 35.6172C87.614 35.6172 87.2026 35.7422 86.8484 35.9922C86.4942 36.2422 86.2182 36.5703 86.0203 36.9766V43H84.575V34.5469H85.9421ZM98.325 40.7578C98.325 40.3672 98.1765 40.0651 97.8796 39.8516C97.588 39.6328 97.075 39.4453 96.3406 39.2891C95.6114 39.1328 95.0307 38.9453 94.5984 38.7266C94.1713 38.5078 93.8536 38.2474 93.6453 37.9453C93.4421 37.6432 93.3406 37.2839 93.3406 36.8672C93.3406 36.1745 93.6322 35.5885 94.2156 35.1094C94.8041 34.6302 95.5541 34.3906 96.4656 34.3906C97.4239 34.3906 98.2 34.638 98.7937 35.1328C99.3927 35.6276 99.6921 36.2604 99.6921 37.0312H98.239C98.239 36.6354 98.0697 36.2943 97.7312 36.0078C97.3979 35.7214 96.976 35.5781 96.4656 35.5781C95.9395 35.5781 95.5281 35.6927 95.2312 35.9219C94.9343 36.151 94.7859 36.4505 94.7859 36.8203C94.7859 37.1693 94.9239 37.4323 95.2 37.6094C95.476 37.7865 95.9734 37.9557 96.6921 38.1172C97.4161 38.2786 98.002 38.4714 98.45 38.6953C98.8979 38.9193 99.2286 39.1901 99.4421 39.5078C99.6609 39.8203 99.7703 40.2031 99.7703 40.6562C99.7703 41.4115 99.4682 42.0182 98.864 42.4766C98.2598 42.9297 97.476 43.1562 96.5125 43.1562C95.8354 43.1562 95.2364 43.0365 94.7156 42.7969C94.1947 42.5573 93.7859 42.224 93.489 41.7969C93.1973 41.3646 93.0515 40.8984 93.0515 40.3984H94.4968C94.5229 40.8828 94.7156 41.2682 95.075 41.5547C95.4395 41.8359 95.9187 41.9766 96.5125 41.9766C97.0593 41.9766 97.4968 41.8672 97.825 41.6484C98.1583 41.4245 98.325 41.1276 98.325 40.7578ZM102.364 43V35.6641H101.028V34.5469H102.364V33.6797C102.364 32.7734 102.606 32.0729 103.091 31.5781C103.575 31.0833 104.26 30.8359 105.145 30.8359C105.479 30.8359 105.809 30.8802 106.137 30.9688L106.059 32.1406C105.815 32.0938 105.554 32.0703 105.278 32.0703C104.809 32.0703 104.447 32.2083 104.192 32.4844C103.937 32.7552 103.809 33.1458 103.809 33.6562V34.5469H105.614V35.6641H103.809V43H102.364ZM110.536 43.1562C109.39 43.1562 108.458 42.7812 107.739 42.0312C107.02 41.276 106.661 40.2682 106.661 39.0078V38.7422C106.661 37.9036 106.82 37.1562 107.137 36.5C107.46 35.8385 107.908 35.3229 108.481 34.9531C109.059 34.5781 109.684 34.3906 110.356 34.3906C111.455 34.3906 112.309 34.7526 112.919 35.4766C113.528 36.2005 113.833 37.237 113.833 38.5859V39.1875H108.106C108.127 40.0208 108.369 40.6953 108.833 41.2109C109.302 41.7214 109.895 41.9766 110.614 41.9766C111.124 41.9766 111.557 41.8724 111.911 41.6641C112.265 41.4557 112.575 41.1797 112.841 40.8359L113.723 41.5234C113.015 42.612 111.953 43.1562 110.536 43.1562ZM110.356 35.5781C109.773 35.5781 109.283 35.7917 108.887 36.2188C108.492 36.6406 108.247 37.2344 108.153 38H112.387V37.8906C112.346 37.1562 112.148 36.5885 111.794 36.1875C111.44 35.7812 110.96 35.5781 110.356 35.5781ZM119.598 35.8438C119.38 35.8073 119.143 35.7891 118.887 35.7891C117.94 35.7891 117.296 36.1927 116.958 37V43H115.512V34.5469H116.919L116.942 35.5234C117.416 34.7682 118.088 34.3906 118.958 34.3906C119.239 34.3906 119.453 34.4271 119.598 34.5V35.8438ZM128.294 41.9766C128.809 41.9766 129.26 41.8203 129.645 41.5078C130.031 41.1953 130.244 40.8047 130.286 40.3359H131.653C131.627 40.8203 131.46 41.2812 131.153 41.7188C130.846 42.1562 130.434 42.5052 129.919 42.7656C129.408 43.026 128.867 43.1562 128.294 43.1562C127.143 43.1562 126.226 42.7734 125.544 42.0078C124.867 41.237 124.528 40.1849 124.528 38.8516V38.6094C124.528 37.7865 124.679 37.0547 124.981 36.4141C125.283 35.7734 125.716 35.276 126.278 34.9219C126.846 34.5677 127.515 34.3906 128.286 34.3906C129.234 34.3906 130.02 34.6745 130.645 35.2422C131.275 35.8099 131.611 36.5469 131.653 37.4531H130.286C130.244 36.9062 130.036 36.4583 129.661 36.1094C129.291 35.7552 128.833 35.5781 128.286 35.5781C127.552 35.5781 126.981 35.8438 126.575 36.375C126.174 36.901 125.973 37.6641 125.973 38.6641V38.9375C125.973 39.9115 126.174 40.6615 126.575 41.1875C126.976 41.7135 127.549 41.9766 128.294 41.9766ZM132.895 38.6953C132.895 37.8672 133.057 37.1224 133.38 36.4609C133.708 35.7995 134.161 35.2891 134.739 34.9297C135.322 34.5703 135.986 34.3906 136.731 34.3906C137.882 34.3906 138.812 34.7891 139.52 35.5859C140.234 36.3828 140.591 37.4427 140.591 38.7656V38.8672C140.591 39.6901 140.432 40.4297 140.114 41.0859C139.802 41.737 139.351 42.2448 138.762 42.6094C138.179 42.974 137.507 43.1562 136.747 43.1562C135.601 43.1562 134.671 42.7578 133.958 41.9609C133.249 41.1641 132.895 40.1094 132.895 38.7969V38.6953ZM134.348 38.8672C134.348 39.8047 134.565 40.5573 134.997 41.125C135.434 41.6927 136.018 41.9766 136.747 41.9766C137.481 41.9766 138.065 41.6901 138.497 41.1172C138.929 40.5391 139.145 39.7318 139.145 38.6953C139.145 37.7682 138.924 37.0182 138.481 36.4453C138.044 35.8672 137.46 35.5781 136.731 35.5781C136.018 35.5781 135.442 35.862 135.005 36.4297C134.567 36.9974 134.348 37.8099 134.348 38.8672ZM143.762 34.5469L143.802 35.4844C144.421 34.7552 145.257 34.3906 146.309 34.3906C147.492 34.3906 148.296 34.8438 148.723 35.75C149.005 35.3438 149.369 35.0156 149.817 34.7656C150.27 34.5156 150.804 34.3906 151.419 34.3906C153.273 34.3906 154.216 35.3724 154.247 37.3359V43H152.802V37.4219C152.802 36.8177 152.663 36.3672 152.387 36.0703C152.111 35.7682 151.648 35.6172 150.997 35.6172C150.46 35.6172 150.015 35.7786 149.661 36.1016C149.307 36.4193 149.101 36.849 149.044 37.3906V43H147.591V37.4609C147.591 36.2318 146.989 35.6172 145.786 35.6172C144.838 35.6172 144.19 36.0208 143.841 36.8281V43H142.395V34.5469H143.762ZM163.575 38.8672C163.575 40.1536 163.281 41.1901 162.692 41.9766C162.104 42.763 161.307 43.1562 160.302 43.1562C159.275 43.1562 158.468 42.8307 157.88 42.1797V46.25H156.434V34.5469H157.755L157.825 35.4844C158.413 34.7552 159.231 34.3906 160.278 34.3906C161.294 34.3906 162.096 34.7734 162.684 35.5391C163.278 36.3047 163.575 37.3698 163.575 38.7344V38.8672ZM162.13 38.7031C162.13 37.75 161.927 36.9974 161.52 36.4453C161.114 35.8932 160.557 35.6172 159.848 35.6172C158.973 35.6172 158.317 36.0052 157.88 36.7812V40.8203C158.312 41.5911 158.973 41.9766 159.864 41.9766C160.557 41.9766 161.106 41.7031 161.512 41.1562C161.924 40.6042 162.13 39.7865 162.13 38.7031ZM166.989 43H165.544V31H166.989V43ZM172.817 43.1562C171.671 43.1562 170.739 42.7812 170.02 42.0312C169.302 41.276 168.942 40.2682 168.942 39.0078V38.7422C168.942 37.9036 169.101 37.1562 169.419 36.5C169.742 35.8385 170.19 35.3229 170.762 34.9531C171.341 34.5781 171.966 34.3906 172.637 34.3906C173.736 34.3906 174.591 34.7526 175.2 35.4766C175.809 36.2005 176.114 37.237 176.114 38.5859V39.1875H170.387C170.408 40.0208 170.65 40.6953 171.114 41.2109C171.583 41.7214 172.177 41.9766 172.895 41.9766C173.406 41.9766 173.838 41.8724 174.192 41.6641C174.546 41.4557 174.856 41.1797 175.122 40.8359L176.005 41.5234C175.296 42.612 174.234 43.1562 172.817 43.1562ZM172.637 35.5781C172.054 35.5781 171.565 35.7917 171.169 36.2188C170.773 36.6406 170.528 37.2344 170.434 38H174.669V37.8906C174.627 37.1562 174.429 36.5885 174.075 36.1875C173.721 35.7812 173.242 35.5781 172.637 35.5781ZM179.755 32.5V34.5469H181.333V35.6641H179.755V40.9062C179.755 41.2448 179.825 41.5 179.966 41.6719C180.106 41.8385 180.346 41.9219 180.684 41.9219C180.851 41.9219 181.08 41.8906 181.372 41.8281V43C180.992 43.1042 180.622 43.1562 180.262 43.1562C179.617 43.1562 179.13 42.9609 178.802 42.5703C178.473 42.1797 178.309 41.625 178.309 40.9062V35.6641H176.77V34.5469H178.309V32.5H179.755ZM186.536 43.1562C185.39 43.1562 184.458 42.7812 183.739 42.0312C183.02 41.276 182.661 40.2682 182.661 39.0078V38.7422C182.661 37.9036 182.82 37.1562 183.137 36.5C183.46 35.8385 183.908 35.3229 184.481 34.9531C185.059 34.5781 185.684 34.3906 186.356 34.3906C187.455 34.3906 188.309 34.7526 188.919 35.4766C189.528 36.2005 189.833 37.237 189.833 38.5859V39.1875H184.106C184.127 40.0208 184.369 40.6953 184.833 41.2109C185.302 41.7214 185.895 41.9766 186.614 41.9766C187.124 41.9766 187.557 41.8724 187.911 41.6641C188.265 41.4557 188.575 41.1797 188.841 40.8359L189.723 41.5234C189.015 42.612 187.953 43.1562 186.536 43.1562ZM186.356 35.5781C185.773 35.5781 185.283 35.7917 184.887 36.2188C184.492 36.6406 184.247 37.2344 184.153 38H188.387V37.8906C188.346 37.1562 188.148 36.5885 187.794 36.1875C187.44 35.7812 186.96 35.5781 186.356 35.5781ZM191.161 38.7031C191.161 37.4062 191.468 36.3646 192.083 35.5781C192.697 34.7865 193.502 34.3906 194.497 34.3906C195.486 34.3906 196.27 34.7292 196.848 35.4062V31H198.294V43H196.966L196.895 42.0938C196.317 42.8021 195.512 43.1562 194.481 43.1562C193.502 43.1562 192.703 42.7552 192.083 41.9531C191.468 41.151 191.161 40.1042 191.161 38.8125V38.7031ZM192.606 38.8672C192.606 39.8255 192.804 40.5755 193.2 41.1172C193.596 41.6589 194.143 41.9297 194.841 41.9297C195.757 41.9297 196.427 41.5182 196.848 40.6953V36.8125C196.416 36.0156 195.752 35.6172 194.856 35.6172C194.148 35.6172 193.596 35.8906 193.2 36.4375C192.804 36.9844 192.606 37.7943 192.606 38.8672ZM209.434 40.7578C209.434 40.3672 209.286 40.0651 208.989 39.8516C208.697 39.6328 208.184 39.4453 207.45 39.2891C206.721 39.1328 206.14 38.9453 205.708 38.7266C205.281 38.5078 204.963 38.2474 204.755 37.9453C204.552 37.6432 204.45 37.2839 204.45 36.8672C204.45 36.1745 204.742 35.5885 205.325 35.1094C205.913 34.6302 206.663 34.3906 207.575 34.3906C208.533 34.3906 209.309 34.638 209.903 35.1328C210.502 35.6276 210.802 36.2604 210.802 37.0312H209.348C209.348 36.6354 209.179 36.2943 208.841 36.0078C208.507 35.7214 208.085 35.5781 207.575 35.5781C207.049 35.5781 206.637 35.6927 206.341 35.9219C206.044 36.151 205.895 36.4505 205.895 36.8203C205.895 37.1693 206.033 37.4323 206.309 37.6094C206.585 37.7865 207.083 37.9557 207.802 38.1172C208.525 38.2786 209.111 38.4714 209.559 38.6953C210.007 38.9193 210.338 39.1901 210.552 39.5078C210.77 39.8203 210.88 40.2031 210.88 40.6562C210.88 41.4115 210.578 42.0182 209.973 42.4766C209.369 42.9297 208.585 43.1562 207.622 43.1562C206.945 43.1562 206.346 43.0365 205.825 42.7969C205.304 42.5573 204.895 42.224 204.598 41.7969C204.307 41.3646 204.161 40.8984 204.161 40.3984H205.606C205.632 40.8828 205.825 41.2682 206.184 41.5547C206.549 41.8359 207.028 41.9766 207.622 41.9766C208.169 41.9766 208.606 41.8672 208.934 41.6484C209.268 41.4245 209.434 41.1276 209.434 40.7578ZM217.981 42.1641C217.419 42.8255 216.593 43.1562 215.505 43.1562C214.604 43.1562 213.916 42.8958 213.442 42.375C212.973 41.849 212.736 41.0729 212.731 40.0469V34.5469H214.177V40.0078C214.177 41.2891 214.697 41.9297 215.739 41.9297C216.843 41.9297 217.578 41.5182 217.942 40.6953V34.5469H219.387V43H218.012L217.981 42.1641ZM224.981 41.9766C225.497 41.9766 225.947 41.8203 226.333 41.5078C226.718 41.1953 226.932 40.8047 226.973 40.3359H228.341C228.315 40.8203 228.148 41.2812 227.841 41.7188C227.533 42.1562 227.122 42.5052 226.606 42.7656C226.096 43.026 225.554 43.1562 224.981 43.1562C223.83 43.1562 222.913 42.7734 222.231 42.0078C221.554 41.237 221.216 40.1849 221.216 38.8516V38.6094C221.216 37.7865 221.367 37.0547 221.669 36.4141C221.971 35.7734 222.403 35.276 222.966 34.9219C223.533 34.5677 224.203 34.3906 224.973 34.3906C225.921 34.3906 226.708 34.6745 227.333 35.2422C227.963 35.8099 228.299 36.5469 228.341 37.4531H226.973C226.932 36.9062 226.723 36.4583 226.348 36.1094C225.979 35.7552 225.52 35.5781 224.973 35.5781C224.239 35.5781 223.669 35.8438 223.262 36.375C222.861 36.901 222.661 37.6641 222.661 38.6641V38.9375C222.661 39.9115 222.861 40.6615 223.262 41.1875C223.663 41.7135 224.236 41.9766 224.981 41.9766ZM233.356 41.9766C233.872 41.9766 234.322 41.8203 234.708 41.5078C235.093 41.1953 235.307 40.8047 235.348 40.3359H236.716C236.69 40.8203 236.523 41.2812 236.216 41.7188C235.908 42.1562 235.497 42.5052 234.981 42.7656C234.471 43.026 233.929 43.1562 233.356 43.1562C232.205 43.1562 231.288 42.7734 230.606 42.0078C229.929 41.237 229.591 40.1849 229.591 38.8516V38.6094C229.591 37.7865 229.742 37.0547 230.044 36.4141C230.346 35.7734 230.778 35.276 231.341 34.9219C231.908 34.5677 232.578 34.3906 233.348 34.3906C234.296 34.3906 235.083 34.6745 235.708 35.2422C236.338 35.8099 236.674 36.5469 236.716 37.4531H235.348C235.307 36.9062 235.098 36.4583 234.723 36.1094C234.354 35.7552 233.895 35.5781 233.348 35.5781C232.614 35.5781 232.044 35.8438 231.637 36.375C231.236 36.901 231.036 37.6641 231.036 38.6641V38.9375C231.036 39.9115 231.236 40.6615 231.637 41.1875C232.038 41.7135 232.611 41.9766 233.356 41.9766ZM241.848 43.1562C240.703 43.1562 239.77 42.7812 239.052 42.0312C238.333 41.276 237.973 40.2682 237.973 39.0078V38.7422C237.973 37.9036 238.132 37.1562 238.45 36.5C238.773 35.8385 239.221 35.3229 239.794 34.9531C240.372 34.5781 240.997 34.3906 241.669 34.3906C242.768 34.3906 243.622 34.7526 244.231 35.4766C244.841 36.2005 245.145 37.237 245.145 38.5859V39.1875H239.419C239.44 40.0208 239.682 40.6953 240.145 41.2109C240.614 41.7214 241.208 41.9766 241.927 41.9766C242.437 41.9766 242.869 41.8724 243.223 41.6641C243.578 41.4557 243.887 41.1797 244.153 40.8359L245.036 41.5234C244.328 42.612 243.265 43.1562 241.848 43.1562ZM241.669 35.5781C241.085 35.5781 240.596 35.7917 240.2 36.2188C239.804 36.6406 239.559 37.2344 239.466 38H243.7V37.8906C243.658 37.1562 243.46 36.5885 243.106 36.1875C242.752 35.7812 242.273 35.5781 241.669 35.5781ZM251.747 40.7578C251.747 40.3672 251.598 40.0651 251.302 39.8516C251.01 39.6328 250.497 39.4453 249.762 39.2891C249.033 39.1328 248.453 38.9453 248.02 38.7266C247.593 38.5078 247.275 38.2474 247.067 37.9453C246.864 37.6432 246.762 37.2839 246.762 36.8672C246.762 36.1745 247.054 35.5885 247.637 35.1094C248.226 34.6302 248.976 34.3906 249.887 34.3906C250.846 34.3906 251.622 34.638 252.216 35.1328C252.815 35.6276 253.114 36.2604 253.114 37.0312H251.661C251.661 36.6354 251.492 36.2943 251.153 36.0078C250.82 35.7214 250.398 35.5781 249.887 35.5781C249.361 35.5781 248.95 35.6927 248.653 35.9219C248.356 36.151 248.208 36.4505 248.208 36.8203C248.208 37.1693 248.346 37.4323 248.622 37.6094C248.898 37.7865 249.395 37.9557 250.114 38.1172C250.838 38.2786 251.424 38.4714 251.872 38.6953C252.32 38.9193 252.65 39.1901 252.864 39.5078C253.083 39.8203 253.192 40.2031 253.192 40.6562C253.192 41.4115 252.89 42.0182 252.286 42.4766C251.682 42.9297 250.898 43.1562 249.934 43.1562C249.257 43.1562 248.658 43.0365 248.137 42.7969C247.617 42.5573 247.208 42.224 246.911 41.7969C246.619 41.3646 246.473 40.8984 246.473 40.3984H247.919C247.945 40.8828 248.137 41.2682 248.497 41.5547C248.861 41.8359 249.341 41.9766 249.934 41.9766C250.481 41.9766 250.919 41.8672 251.247 41.6484C251.58 41.4245 251.747 41.1276 251.747 40.7578ZM259.997 40.7578C259.997 40.3672 259.848 40.0651 259.552 39.8516C259.26 39.6328 258.747 39.4453 258.012 39.2891C257.283 39.1328 256.703 38.9453 256.27 38.7266C255.843 38.5078 255.525 38.2474 255.317 37.9453C255.114 37.6432 255.012 37.2839 255.012 36.8672C255.012 36.1745 255.304 35.5885 255.887 35.1094C256.476 34.6302 257.226 34.3906 258.137 34.3906C259.096 34.3906 259.872 34.638 260.466 35.1328C261.065 35.6276 261.364 36.2604 261.364 37.0312H259.911C259.911 36.6354 259.742 36.2943 259.403 36.0078C259.07 35.7214 258.648 35.5781 258.137 35.5781C257.611 35.5781 257.2 35.6927 256.903 35.9219C256.606 36.151 256.458 36.4505 256.458 36.8203C256.458 37.1693 256.596 37.4323 256.872 37.6094C257.148 37.7865 257.645 37.9557 258.364 38.1172C259.088 38.2786 259.674 38.4714 260.122 38.6953C260.57 38.9193 260.9 39.1901 261.114 39.5078C261.333 39.8203 261.442 40.2031 261.442 40.6562C261.442 41.4115 261.14 42.0182 260.536 42.4766C259.932 42.9297 259.148 43.1562 258.184 43.1562C257.507 43.1562 256.908 43.0365 256.387 42.7969C255.867 42.5573 255.458 42.224 255.161 41.7969C254.869 41.3646 254.723 40.8984 254.723 40.3984H256.169C256.195 40.8828 256.387 41.2682 256.747 41.5547C257.111 41.8359 257.591 41.9766 258.184 41.9766C258.731 41.9766 259.169 41.8672 259.497 41.6484C259.83 41.4245 259.997 41.1276 259.997 40.7578ZM264.036 43V35.6641H262.7V34.5469H264.036V33.6797C264.036 32.7734 264.278 32.0729 264.762 31.5781C265.247 31.0833 265.932 30.8359 266.817 30.8359C267.15 30.8359 267.481 30.8802 267.809 30.9688L267.731 32.1406C267.486 32.0938 267.226 32.0703 266.95 32.0703C266.481 32.0703 266.119 32.2083 265.864 32.4844C265.609 32.7552 265.481 33.1458 265.481 33.6562V34.5469H267.286V35.6641H265.481V43H264.036ZM274.106 42.1641C273.544 42.8255 272.718 43.1562 271.63 43.1562C270.729 43.1562 270.041 42.8958 269.567 42.375C269.098 41.849 268.861 41.0729 268.856 40.0469V34.5469H270.302V40.0078C270.302 41.2891 270.822 41.9297 271.864 41.9297C272.968 41.9297 273.703 41.5182 274.067 40.6953V34.5469H275.512V43H274.137L274.106 42.1641ZM279.286 43H277.841V31H279.286V43ZM283.177 43H281.731V31H283.177V43ZM288.262 40.8828L290.231 34.5469H291.778L288.38 44.3047C287.854 45.7109 287.018 46.4141 285.872 46.4141L285.598 46.3906L285.059 46.2891V45.1172L285.45 45.1484C285.94 45.1484 286.32 45.0495 286.591 44.8516C286.867 44.6536 287.093 44.2917 287.27 43.7656L287.591 42.9062L284.575 34.5469H286.153L288.262 40.8828ZM292.262 42.2422C292.262 41.9922 292.335 41.7839 292.481 41.6172C292.632 41.4505 292.856 41.3672 293.153 41.3672C293.45 41.3672 293.674 41.4505 293.825 41.6172C293.981 41.7839 294.059 41.9922 294.059 42.2422C294.059 42.4818 293.981 42.6823 293.825 42.8438C293.674 43.0052 293.45 43.0859 293.153 43.0859C292.856 43.0859 292.632 43.0052 292.481 42.8438C292.335 42.6823 292.262 42.4818 292.262 42.2422Z" fill="#656668"/>
<path d="M28.7589 49H31.6389V43.848H34.8389V41.32H31.6389V26.088H28.1509L16.9189 41.64V43.848H28.7589V49ZM20.2789 41.32L28.8869 29.128V41.32H20.2789Z" fill="#656668"/>
</svg>
