<svg width="355" height="371" viewBox="0 0 355 371" fill="none" xmlns="http://www.w3.org/2000/svg">
<path d="M154.13 100.366C151.899 105.84 138.761 105.473 124.987 99.7344C111.213 93.9957 101.862 84.9136 104.103 79.4501C104.618 78.1862 106.062 73.4463 107.618 72.7838C112.748 70.6025 122.513 75.5155 133.085 79.919C142.931 84.0166 154.181 86.6566 155.928 92.0488C156.988 95.3412 154.767 98.8068 154.13 100.366Z" fill="#6654A4"/>
<path opacity="0.2" d="M155.938 92.0587C156.776 96.35 154.928 98.409 154.13 100.366C153.302 102.384 151 103.608 147.738 104.056C147.344 104.117 146.93 104.158 146.506 104.189C144.315 104.352 141.78 104.219 139.013 103.791C138.66 103.75 138.306 103.679 137.943 103.618C135.236 103.149 132.348 102.395 129.369 101.396C129.046 101.283 128.723 101.171 128.4 101.049C127.269 100.652 126.117 100.213 124.976 99.7341C123.835 99.2652 122.724 98.7556 121.644 98.2357C121.331 98.093 121.028 97.9401 120.725 97.7872C118.009 96.4316 115.545 94.9536 113.384 93.445C113.101 93.2513 112.828 93.0474 112.556 92.864C110.293 91.2025 108.395 89.5002 106.961 87.8184C106.709 87.533 106.486 87.2577 106.264 86.9723C104.093 84.1896 103.235 81.5496 104.093 79.4396C104.649 78.0737 105.87 73.4359 107.597 72.7733C109.324 72.1209 111.556 72.2127 114.141 72.7631C114.474 72.8345 114.818 72.916 115.161 73.0077C120.26 74.3125 126.572 77.2175 133.065 79.9187C140.73 83.1091 149.788 86.4219 154.221 90.2443C154.494 90.4788 154.746 90.7132 154.978 90.9578C155.362 91.3248 155.665 91.6918 155.938 92.0587Z" fill="black"/>
<g opacity="0.2">
<path opacity="0.2" d="M115.647 72.1619L115.183 73.0181L106.983 87.8287C106.73 87.5433 106.508 87.2681 106.286 86.9827L114.163 72.7735L114.769 71.6726L115.647 72.1619Z" fill="black"/>
</g>
<g opacity="0.2">
<path opacity="0.2" d="M121.846 78.1965L113.393 93.4556C113.111 93.2619 112.838 93.0581 112.565 92.8746L120.967 77.697L121.846 78.1965Z" fill="black"/>
</g>
<g opacity="0.2">
<path opacity="0.2" d="M137.387 86.9619L129.389 101.406C129.066 101.293 128.743 101.181 128.42 101.059L136.509 86.4624L137.387 86.9619Z" fill="black"/>
</g>
<g opacity="0.2">
<path opacity="0.2" d="M130.156 82.885L121.653 98.246C121.34 98.1033 121.037 97.9504 120.734 97.7975L129.267 82.3855L130.156 82.885Z" fill="black"/>
</g>
<g opacity="0.2">
<path opacity="0.2" d="M146.809 89.7553L139.024 103.801C138.67 103.761 138.317 103.689 137.953 103.628L145.921 89.2456L146.809 89.7553Z" fill="black"/>
</g>
<path d="M155.877 95.5551C153.645 101.029 140.669 100.815 126.895 95.076C113.121 89.3373 103.77 80.2552 106.012 74.7917C108.243 69.3179 121.22 69.532 134.994 75.2707C148.758 81.0095 158.109 90.0916 155.877 95.5551Z" fill="#6654A4"/>
<path opacity="0.2" d="M151.191 93.6086C149.616 97.4718 139.498 96.9316 128.602 92.3956C117.705 87.8597 110.152 81.0507 111.727 77.1773C113.303 73.3141 123.421 73.8543 134.317 78.3903C145.223 82.9364 152.777 89.7454 151.191 93.6086Z" fill="white"/>
<path d="M223.727 50.8885C227.312 55.5672 220.466 66.8815 208.691 76.0961C196.916 85.3005 184.455 88.9701 180.87 84.2914C180.042 83.2109 176.69 79.5822 176.892 77.9003C177.568 72.3247 186.647 66.219 195.695 59.145C204.117 52.5602 211.973 44.0183 217.487 45.1702C220.829 45.8837 222.707 49.5634 223.727 50.8885Z" fill="#6654A4"/>
<path opacity="0.2" d="M217.488 45.1804C221.598 46.5871 222.446 49.2169 223.729 50.8886C225.051 52.6112 224.961 55.241 223.729 58.3194C223.587 58.6965 223.416 59.0737 223.234 59.461C222.285 61.4589 220.911 63.6198 219.174 65.8215C218.962 66.1069 218.73 66.3821 218.498 66.6675C216.751 68.7979 214.66 70.9588 212.318 73.0688C212.065 73.2931 211.803 73.5275 211.54 73.7518C210.631 74.5366 209.692 75.3317 208.702 76.0962C207.733 76.8607 206.743 77.5844 205.764 78.2673C205.481 78.4712 205.198 78.6547 204.926 78.8483C202.411 80.5506 199.917 81.9776 197.534 83.1192C197.221 83.2721 196.918 83.4047 196.615 83.5474C194.07 84.6992 191.646 85.5146 189.506 85.9427C189.142 86.0243 188.789 86.0855 188.435 86.1364C184.961 86.6563 182.265 86.0956 180.882 84.2915C179.983 83.1294 176.61 79.7555 176.893 77.9106C177.186 76.0656 178.377 74.1595 180.134 72.182C180.367 71.9272 180.599 71.6622 180.851 71.4073C184.507 67.5951 190.142 63.5077 195.696 59.1654C202.25 54.0484 209.601 47.7593 215.095 45.7716C215.428 45.6391 215.761 45.5474 216.084 45.4556C216.579 45.3231 217.033 45.2314 217.488 45.1804Z" fill="black"/>
<g opacity="0.2">
<path opacity="0.2" d="M180.345 70.562L180.84 71.3978L189.484 85.9434C189.12 86.025 188.767 86.0861 188.414 86.1371L180.123 72.1725L179.477 71.0921L180.345 70.562Z" fill="black"/>
</g>
<g opacity="0.2">
<path opacity="0.2" d="M188.616 68.1355L197.523 83.1194C197.209 83.2723 196.907 83.4048 196.604 83.5475L187.737 68.6452L188.616 68.1355Z" fill="black"/>
</g>
<g opacity="0.2">
<path opacity="0.2" d="M203.874 58.8904L212.306 73.0792C212.054 73.3035 211.791 73.5379 211.529 73.7622L203.006 59.4204L203.874 58.8904Z" fill="black"/>
</g>
<g opacity="0.2">
<path opacity="0.2" d="M196.784 63.1919L205.752 78.2777C205.469 78.4816 205.186 78.6651 204.914 78.8587L195.916 63.7117L196.784 63.1919Z" fill="black"/>
</g>
<g opacity="0.2">
<path opacity="0.2" d="M210.963 52.0198L219.163 65.8315C218.951 66.1169 218.719 66.3921 218.486 66.6775L210.095 52.5498L210.963 52.0198Z" fill="black"/>
</g>
<path d="M205.63 72.1096C217.407 62.9028 224.045 51.6472 220.456 46.9695C216.867 42.2918 204.41 45.9634 192.633 55.1702C180.856 64.377 174.218 75.6326 177.807 80.3103C181.396 84.9879 193.853 81.3164 205.63 72.1096Z" fill="#6654A4"/>
<path opacity="0.2" d="M204.17 69.2802C213.491 61.9934 218.991 53.4055 216.454 50.0986C213.916 46.7917 204.303 50.0182 194.982 57.305C185.661 64.5919 180.161 73.1798 182.699 76.4866C185.236 79.7935 194.849 76.5671 204.17 69.2802Z" fill="white"/>
<path d="M174.982 28.9729C173.8 35.68 158.936 38.5238 142.041 35.4965C125.157 32.4589 112.423 24.5593 113.604 17.8522C113.877 16.2926 114.352 10.6151 115.937 9.48361C121.178 5.75293 133.357 8.86183 146.333 11.1961C158.41 13.3672 171.71 13.5405 174.992 19.1773C176.971 22.6022 175.315 27.0566 174.982 28.9729Z" fill="#6654A4"/>
<path opacity="0.2" d="M174.982 19.178C176.971 23.7954 175.396 26.568 174.972 28.9736C174.537 31.4505 172.245 33.3974 168.68 34.7123C168.256 34.8856 167.802 35.0283 167.327 35.171C164.904 35.8947 162.015 36.384 158.804 36.5878C158.39 36.6286 157.986 36.6388 157.562 36.6592C154.411 36.8019 150.978 36.6694 147.383 36.282C146.999 36.2413 146.595 36.1903 146.202 36.1393C144.838 35.966 143.435 35.7622 142.031 35.5074C140.637 35.2627 139.264 34.9671 137.921 34.6511C137.537 34.5696 137.153 34.4677 136.78 34.3759C133.397 33.5197 130.266 32.48 127.459 31.3078C127.085 31.1549 126.742 31.002 126.389 30.8593C123.45 29.5546 120.885 28.0969 118.865 26.5782C118.512 26.3233 118.189 26.0685 117.876 25.8035C114.755 23.2144 113.15 20.4521 113.604 17.8732C113.897 16.2016 114.139 10.6769 115.927 9.50468C117.714 8.33247 120.249 7.88397 123.278 7.87378C123.672 7.87378 124.076 7.87378 124.49 7.89416C130.539 8.09802 138.355 9.80028 146.313 11.2273C155.704 12.9194 166.701 14.3872 172.629 17.5878C172.992 17.7815 173.336 17.9854 173.659 18.1994C174.154 18.495 174.588 18.8314 174.982 19.178Z" fill="black"/>
<g opacity="0.2">
<path opacity="0.2" d="M124.815 6.79365L124.492 7.86393L118.868 26.5581C118.514 26.3033 118.191 26.0485 117.878 25.7835L123.281 7.84355L123.695 6.45728L124.815 6.79365Z" fill="black"/>
</g>
<g opacity="0.2">
<path opacity="0.2" d="M133.256 12.0426L127.46 31.2974C127.086 31.1445 126.743 30.9916 126.39 30.8489L132.146 11.696L133.256 12.0426Z" fill="black"/>
</g>
<g opacity="0.2">
<path opacity="0.2" d="M152.877 18.0466L147.393 36.2821C147.01 36.2413 146.606 36.1904 146.212 36.1394L151.756 17.7102L152.877 18.0466Z" fill="black"/>
</g>
<g opacity="0.2">
<path opacity="0.2" d="M143.759 15.2536L137.932 34.6409C137.548 34.5593 137.165 34.4574 136.791 34.3657L142.638 14.907L143.759 15.2536Z" fill="black"/>
</g>
<g opacity="0.2">
<path opacity="0.2" d="M164.157 18.8409L158.815 36.577C158.401 36.6178 157.997 36.628 157.573 36.6483L163.036 18.4944L164.157 18.8409Z" fill="black"/>
</g>
<path d="M175.767 23.1291C176.95 16.423 164.217 8.52718 147.327 5.49335C130.438 2.45952 115.788 5.43651 114.606 12.1426C113.423 18.8488 126.156 26.7446 143.046 29.7784C159.935 32.8122 174.585 29.8352 175.767 23.1291Z" fill="#6654A4"/>
<path opacity="0.2" d="M170.02 22.099C170.855 17.3604 160.698 11.5729 147.334 9.17223C133.97 6.7716 122.458 8.66692 121.623 13.4056C120.788 18.1442 130.944 23.9317 144.309 26.3323C157.673 28.733 169.184 26.8376 170.02 22.099Z" fill="white"/>
<path d="M263.144 200.208L159.223 206.313C155.537 206.527 151.922 207.424 148.559 208.943L35.6805 259.939C31.5806 261.794 29.3186 266.228 30.2375 270.601L48.9093 359.628C50.1917 365.734 56.9374 368.955 62.5419 366.131L173.956 309.988L276.838 306.481C282.24 306.298 286.28 301.415 285.421 296.105L271.647 210.849C270.93 206.446 267.618 200.075 263.144 200.208Z" fill="#6654A4"/>
<path opacity="0.1" d="M263.144 200.208L159.223 206.313C155.537 206.527 151.922 207.424 148.559 208.943L35.6805 259.939C31.5806 261.794 29.3186 266.228 30.2375 270.601L48.9093 359.628C50.1917 365.734 56.9374 368.955 62.5419 366.131L173.956 309.988L276.838 306.481C282.24 306.298 286.28 301.415 285.421 296.105L271.647 210.849C270.93 206.446 267.618 200.075 263.144 200.208Z" fill="black"/>
<path d="M54.5386 142.253L0 192.991L97.8568 300.162L152.395 249.424L54.5386 142.253Z" fill="#6654A4"/>
<path opacity="0.5" d="M152.403 249.409L97.8622 300.151L0.00976562 192.99L35.7981 159.689L54.5506 142.239L57.671 145.664L152.403 249.409Z" fill="#FAFAFA"/>
<path d="M54.8917 148.803L6.76855 193.573L98.3018 293.818L146.425 249.049L54.8917 148.803Z" stroke="#6654A4" stroke-miterlimit="10"/>
<path d="M87.4485 233.163C92.9683 228.028 92.2701 218.2 85.8892 211.212C79.5083 204.225 69.8609 202.724 64.3411 207.86C58.8213 212.996 59.5194 222.824 65.9004 229.811C72.2813 236.798 81.9287 238.299 87.4485 233.163Z" fill="#6654A4"/>
<path opacity="0.1" d="M97.2873 256.667L77.9087 263.415L35.7988 159.689L54.5513 142.239L57.6717 145.664L97.2873 256.667Z" fill="black"/>
<path d="M101.048 100.259L31.3193 125.774L80.5293 262.795L150.258 237.28L101.048 100.259Z" fill="#6654A4"/>
<path opacity="0.5" d="M101.048 100.259L31.3193 125.774L80.5293 262.795L150.258 237.28L101.048 100.259Z" fill="#FAFAFA"/>
<path d="M98.8597 106.444L37.333 128.958L83.363 257.125L144.89 234.611L98.8597 106.444Z" stroke="#6654A4" stroke-miterlimit="10"/>
<path d="M96.5626 196.943C103.62 194.361 106.74 185.025 103.531 176.092C100.323 167.159 92.0013 162.01 84.9441 164.592C77.887 167.175 74.7669 176.51 77.9753 185.443C81.1836 194.377 89.5055 199.525 96.5626 196.943Z" fill="#6654A4"/>
<path d="M263.819 203.826L161.322 209.656C157.687 209.86 154.122 210.747 150.81 212.256L39.5871 262.936C35.5478 264.771 33.3261 269.205 34.2451 273.578L52.8966 362.615C54.1791 368.72 60.844 371.951 66.3677 369.148L176.136 313.321L277.614 310.079C282.946 309.906 286.914 305.044 286.056 299.733L272.252 214.488C271.514 210.085 268.243 203.704 263.819 203.826Z" fill="#6654A4"/>
<path opacity="0.2" d="M165.491 225.252L253.437 219.788" stroke="black" stroke-width="2" stroke-miterlimit="10" stroke-linecap="round" stroke-linejoin="round"/>
<path opacity="0.2" d="M154.96 227.545L171.026 302.036" stroke="black" stroke-width="2" stroke-miterlimit="10" stroke-linecap="round" stroke-linejoin="round"/>
<path opacity="0.2" d="M47.8369 294.8L59.1672 352.105C59.1672 352.095 67.8517 329.364 47.8369 294.8Z" fill="#FAFAFA"/>
<path opacity="0.2" d="M49.3203 295.472C49.704 296.522 149.95 253.069 149.95 253.069C149.95 253.069 152.484 284.301 122.321 301.384C92.1572 318.458 49.3203 295.472 49.3203 295.472Z" fill="#FAFAFA"/>
<path d="M115.91 297.165C118.308 297.165 120.252 295.202 120.252 292.782C120.252 290.361 118.308 288.398 115.91 288.398C113.511 288.398 111.567 290.361 111.567 292.782C111.567 295.202 113.511 297.165 115.91 297.165Z" fill="#6654A4"/>
<path opacity="0.2" d="M150.011 253.069C150.011 253.069 162.442 271.947 159.432 304.126L150.011 253.069Z" fill="black"/>
<g opacity="0.2">
<g opacity="0.2">
<path opacity="0.2" d="M43.0391 272.293L45.3516 271.263" stroke="#FAFAFA" stroke-linecap="round" stroke-linejoin="round"/>
<path opacity="0.2" d="M50.1484 269.123L143.76 227.351" stroke="#FAFAFA" stroke-linecap="round" stroke-linejoin="round" stroke-dasharray="5.2 5.2"/>
<path opacity="0.2" d="M146.163 226.281L148.465 225.251" stroke="#FAFAFA" stroke-linecap="round" stroke-linejoin="round"/>
</g>
</g>
<path opacity="0.2" d="M168.442 241.999L256.388 236.525" stroke="black" stroke-width="2" stroke-miterlimit="10" stroke-linecap="round" stroke-linejoin="round"/>
<path opacity="0.2" d="M172.4 262.885L260.346 257.411" stroke="black" stroke-width="2" stroke-miterlimit="10" stroke-linecap="round" stroke-linejoin="round"/>
<path d="M241.066 114.514C241.066 114.514 238.855 138.294 230.1 140.343C221.344 142.392 213.952 138.712 213.952 138.712L206.833 133.188L203.359 145.409C203.359 145.409 207.156 150.618 215.084 147.01C215.084 147.01 229.211 153.299 237.037 147.01C244.863 140.72 247.358 123.504 247.358 123.504L241.066 114.514Z" fill="#B97964"/>
<path d="M248.106 102.995C248.106 102.995 241.997 92.4863 244.774 73.4354C247.551 54.3844 263.375 51.9992 269.484 53.3957C275.594 54.7921 280.592 60.7042 284.753 71.9676C288.913 83.2412 290.448 86.1768 297.386 84.2197C304.323 82.2626 322.783 76.0958 327.923 81.5593C333.063 87.0228 331.397 93.1897 331.397 93.1897C331.397 93.1897 357.077 86.8801 354.855 109.998C352.633 133.116 315.573 154.695 280.32 131.852C245.056 109.02 248.106 102.995 248.106 102.995Z" fill="#263238"/>
<path d="M247.822 158.946C247.822 158.946 240.844 219.523 241.076 247.942C241.308 276.35 251.316 343.278 251.316 343.278H263.646C263.646 343.278 262.02 289.744 262.252 271.427C262.484 253.11 265.746 222.826 265.746 222.826C265.746 222.826 269.705 250.062 274.35 259.694C279.005 269.317 304.826 303.372 322.741 313.932L331.112 306.185C331.112 306.185 312.501 282.935 305.523 271.437C298.545 259.929 292.264 256.647 289.709 235.272C287.154 213.907 291.567 179.617 284.125 158.956H247.822V158.946Z" fill="#263238"/>
<path opacity="0.2" d="M265.737 222.815L260.375 184.418C260.375 184.418 256.144 207.505 264.485 235.689L265.737 222.815Z" fill="black"/>
<path d="M253.841 346.682L254.255 358.578L262.525 359.271L262.939 358.16V345.847L253.841 346.682Z" fill="#FFC3BD"/>
<path d="M249.912 342.157L250.669 346.612L264.868 346.958L265.766 341.607L249.912 342.157Z" fill="#F05665"/>
<path d="M318.833 314.747L331.991 302.373L334.889 307.031L323.589 317.469L318.833 314.747Z" fill="#F05665"/>
<path d="M325.175 314.747L333.859 322.127L339.434 315.512L332.304 308.071L325.175 314.747Z" fill="#FFC3BD"/>
<path d="M341.12 315.002L346.371 318.264C347.391 318.896 347.603 320.303 346.805 321.21C342.998 325.542 333.273 336.571 332.304 337.356C331.102 338.334 329.648 336.663 329.305 335.134C329.305 335.134 332.062 331.444 332.304 329.079C332.486 327.336 332.395 324.808 332.344 323.595C332.324 323.137 332.476 322.688 332.768 322.341L338.636 315.4C339.262 314.666 340.312 314.493 341.12 315.002Z" fill="#263238"/>
<path d="M264.544 359.577L265.635 365.703C265.847 366.896 264.948 367.986 263.746 367.996C258 368.017 243.378 368.068 242.156 367.854C240.631 367.599 240.904 365.397 241.803 364.113C241.803 364.113 246.367 363.726 248.266 362.329C249.669 361.3 251.477 359.546 252.345 358.7C252.668 358.374 253.103 358.201 253.557 358.18L262.595 357.966C263.544 357.956 264.372 358.639 264.544 359.577Z" fill="#263238"/>
<path d="M285.439 125.349L298.041 116.419C298.041 116.419 294.689 102.883 289.731 102.21C284.772 101.537 260.102 96.7976 244.42 102.21C244.42 102.21 238.785 103.831 237.048 119.803L243.753 121.964C243.753 121.964 246.167 151.871 247.641 156.478H283.439C283.419 156.478 283.823 130.761 285.439 125.349Z" fill="#F05665"/>
<path d="M288.155 123.422C288.155 123.422 292.921 137.183 293.78 144.583C293.78 144.583 282.429 140.027 279.491 137.927L277.279 129.875L269.725 126.215L267.534 132.25L273.755 140.139C273.755 140.139 290.841 156.285 299.515 152.585C308.19 148.885 296.082 117.796 296.082 117.796L288.155 123.422Z" fill="#FFC3BD"/>
<path d="M256.093 63.1708C256.093 63.1708 251.73 71.9879 252.094 79.1435C252.457 86.2991 256.002 89.2449 262.828 90.254C262.828 90.254 265.737 99.438 258.102 100.355C257.527 100.427 257.315 102.761 257.365 103.138C257.567 104.626 259.021 105.442 260.344 105.788C261.758 106.165 263.263 106.227 264.727 106.278C267.999 106.39 270.695 105.054 272.866 102.618C273.038 102.435 274.562 100.447 274.562 100.447C274.562 100.447 270.927 98.6225 272.199 86.6762C272.199 86.6762 274.653 85.3001 276.017 81.9058C276.017 81.9058 278.38 80.7132 278.925 78.328C279.47 75.9428 277.38 72.6403 273.563 75.9428C273.563 75.9428 266.383 72.2733 263.646 59.4198C263.636 59.3994 260.819 62.6204 256.093 63.1708Z" fill="#FFC3BD"/>
<path d="M258.143 77.1863L258.769 72.4771L255.467 76.167C255.457 76.167 256.507 77.3901 258.143 77.1863Z" fill="#ED847E"/>
<path d="M260.062 80.6316C260.062 80.6316 263.545 81.1718 265.222 78.9089" stroke="#222221" stroke-width="0.75" stroke-miterlimit="10" stroke-linecap="round" stroke-linejoin="round"/>
<path d="M263.544 65.8824C263.544 65.8824 265.766 65.016 268.058 67.0954" stroke="#222221" stroke-miterlimit="10" stroke-linecap="round" stroke-linejoin="round"/>
<path d="M257.517 64.8632C257.517 64.8632 255.538 64.5472 254.599 65.7092" stroke="#222221" stroke-miterlimit="10" stroke-linecap="round" stroke-linejoin="round"/>
<path d="M264.949 72.0798C264.858 72.7933 264.403 73.3132 263.939 73.252C263.474 73.1909 263.161 72.5691 263.252 71.8556C263.343 71.142 263.797 70.6222 264.262 70.6834C264.736 70.7445 265.039 71.3663 264.949 72.0798Z" fill="#222221"/>
<path d="M256.924 70.5067C257.016 69.7977 256.709 69.1729 256.238 69.1112C255.768 69.0496 255.313 69.5744 255.222 70.2834C255.131 70.9924 255.438 71.6171 255.908 71.6788C256.378 71.7405 256.833 71.2157 256.924 70.5067Z" fill="#222221"/>
<path d="M264.273 70.6835L262.678 69.9802C262.678 69.9802 263.001 71.4276 264.273 70.6835Z" fill="#222221"/>
<path d="M256.354 69.1743L254.759 68.4709C254.759 68.4709 255.092 69.9184 256.354 69.1743Z" fill="#222221"/>
<path d="M246.378 154.889V159.139L285.155 159.465L284.115 154.41L246.378 154.889Z" fill="#F05665"/>
<path d="M246.854 134.258L225.537 209.147C224.032 214.437 219.508 218.025 214.408 218.535C212.823 218.688 211.177 218.555 209.541 218.087L168.734 206.252C161.877 204.254 157.909 197.027 159.878 190.106L181.205 115.207C182.356 111.201 185.224 108.174 188.789 106.716C191.374 105.656 194.313 105.432 197.201 106.278L237.998 118.102C244.865 120.09 248.823 127.317 246.854 134.258Z" fill="#6654A4"/>
<path opacity="0.2" d="M246.854 134.258L225.537 209.147C224.032 214.437 219.508 218.025 214.408 218.535C212.823 218.688 211.177 218.555 209.541 218.087L168.734 206.252C161.877 204.254 157.909 197.027 159.878 190.106L181.205 115.207C182.356 111.201 185.224 108.174 188.789 106.716C191.374 105.656 194.313 105.432 197.201 106.278L237.998 118.102C244.865 120.09 248.823 127.317 246.854 134.258Z" fill="black"/>
<path d="M243.31 135.145L221.992 210.034C220.851 214.05 217.963 217.088 214.408 218.535C212.823 218.688 211.177 218.556 209.541 218.087L168.734 206.253C161.877 204.255 157.909 197.028 159.878 190.107L181.205 115.208C182.356 111.202 185.224 108.174 188.789 106.717C190.375 106.564 192.021 106.696 193.656 107.165L234.454 118.989C241.31 120.987 245.279 128.214 243.31 135.145Z" fill="#6654A4"/>
<path opacity="0.5" d="M243.31 135.145L221.992 210.034C220.851 214.05 217.963 217.088 214.408 218.535C212.823 218.688 211.177 218.556 209.541 218.087L168.734 206.253C161.877 204.255 157.909 197.028 159.878 190.107L181.205 115.208C182.356 111.202 185.224 108.174 188.789 106.717C190.375 106.564 192.021 106.696 193.656 107.165L234.454 118.989C241.31 120.987 245.279 128.214 243.31 135.145Z" fill="#FAFAFA"/>
<path d="M185.984 141.492L181.62 140.25L165.917 196.506L170.281 197.747L185.984 141.492Z" fill="#FAFAFA"/>
<path d="M176.529 199.556L172.167 198.281L187.87 142.046L192.222 143.31L176.529 199.556Z" fill="#FAFAFA"/>
<path d="M182.871 201.391L178.509 200.127L194.212 143.881L198.574 145.155L182.871 201.391Z" fill="#FAFAFA"/>
<path opacity="0.5" d="M223.983 152.508L219.619 151.266L203.916 207.522L208.28 208.763L223.983 152.508Z" fill="black"/>
<path d="M223.416 136.623L221.245 144.258L218.66 143.524C216.055 142.78 214.54 140.048 215.267 137.419L216.681 132.353L221.902 133.861C223.073 134.208 223.75 135.441 223.416 136.623Z" fill="#FAFAFA"/>
<path d="M222.174 132.883L216.953 131.374L218.518 125.788C219.245 123.158 221.962 121.629 224.567 122.363L227.253 123.128L224.911 131.354C224.577 132.546 223.355 133.229 222.174 132.883Z" fill="#FAFAFA"/>
<path d="M227.122 135.38L232.373 136.898L230.979 141.883C230.252 144.513 227.546 146.052 224.94 145.308L222.214 144.533L224.385 136.909C224.718 135.726 225.94 135.043 227.122 135.38Z" fill="#FAFAFA"/>
<path d="M234.232 130.253L232.647 135.92L227.396 134.402C226.224 134.055 225.548 132.822 225.881 131.639L228.224 123.413L230.839 124.157C233.444 124.891 234.959 127.623 234.232 130.253Z" fill="#FAFAFA"/>
</svg>
