<svg width="557" height="75" viewBox="0 0 557 75" fill="none" xmlns="http://www.w3.org/2000/svg">
<path d="M70.4031 38.3906C70.2625 39.5938 69.8171 40.5234 69.0671 41.1797C68.3223 41.8307 67.3302 42.1562 66.0906 42.1562C64.7468 42.1562 63.6687 41.6745 62.8562 40.7109C62.0489 39.7474 61.6453 38.4583 61.6453 36.8438V35.75C61.6453 34.6927 61.8328 33.763 62.2078 32.9609C62.588 32.1589 63.1244 31.5443 63.8171 31.1172C64.5098 30.6849 65.3119 30.4688 66.2234 30.4688C67.4317 30.4688 68.4005 30.8073 69.1296 31.4844C69.8588 32.1562 70.2833 33.0885 70.4031 34.2812H68.8953C68.7651 33.375 68.4812 32.7188 68.0437 32.3125C67.6114 31.9062 67.0046 31.7031 66.2234 31.7031C65.2651 31.7031 64.5125 32.0573 63.9656 32.7656C63.4239 33.474 63.1531 34.4818 63.1531 35.7891V36.8906C63.1531 38.125 63.4109 39.1068 63.9265 39.8359C64.4421 40.5651 65.1635 40.9297 66.0906 40.9297C66.9239 40.9297 67.5619 40.7422 68.0046 40.3672C68.4526 39.987 68.7494 39.3281 68.8953 38.3906H70.4031ZM71.8484 37.6953C71.8484 36.8672 72.0098 36.1224 72.3328 35.4609C72.6609 34.7995 73.114 34.2891 73.6921 33.9297C74.2755 33.5703 74.9395 33.3906 75.6843 33.3906C76.8354 33.3906 77.7651 33.7891 78.4734 34.5859C79.1869 35.3828 79.5437 36.4427 79.5437 37.7656V37.8672C79.5437 38.6901 79.3848 39.4297 79.0671 40.0859C78.7546 40.737 78.3041 41.2448 77.7156 41.6094C77.1322 41.974 76.4604 42.1562 75.7 42.1562C74.5541 42.1562 73.6244 41.7578 72.9109 40.9609C72.2026 40.1641 71.8484 39.1094 71.8484 37.7969V37.6953ZM73.3015 37.8672C73.3015 38.8047 73.5177 39.5573 73.95 40.125C74.3875 40.6927 74.9708 40.9766 75.7 40.9766C76.4343 40.9766 77.0177 40.6901 77.45 40.1172C77.8822 39.5391 78.0984 38.7318 78.0984 37.6953C78.0984 36.7682 77.877 36.0182 77.4343 35.4453C76.9968 34.8672 76.4135 34.5781 75.6843 34.5781C74.9708 34.5781 74.3953 34.862 73.9578 35.4297C73.5203 35.9974 73.3015 36.8099 73.3015 37.8672ZM82.7234 33.5469L82.7703 34.6094C83.4161 33.7969 84.2598 33.3906 85.3015 33.3906C87.088 33.3906 87.989 34.3984 88.0046 36.4141V42H86.5593V36.4062C86.5541 35.7969 86.4135 35.3464 86.1375 35.0547C85.8666 34.763 85.4421 34.6172 84.864 34.6172C84.3953 34.6172 83.9838 34.7422 83.6296 34.9922C83.2755 35.2422 82.9994 35.5703 82.8015 35.9766V42H81.3562V33.5469H82.7234ZM90.6687 42V34.6641H89.3328V33.5469H90.6687V32.8281C90.6687 31.8854 90.9369 31.151 91.4734 30.625C92.0151 30.099 92.7781 29.8359 93.7625 29.8359C94.3458 29.8359 95.0828 29.9948 95.9734 30.3125L95.7312 31.5312C95.0802 31.2708 94.4604 31.1406 93.8718 31.1406C93.252 31.1406 92.8041 31.2812 92.5281 31.5625C92.2572 31.8385 92.1218 32.2552 92.1218 32.8125V33.5469H93.8484V34.6641H92.1218V42H90.6687ZM96.6921 42H95.239V33.5469H96.6921V42ZM103.13 34.8438C102.911 34.8073 102.674 34.7891 102.419 34.7891C101.471 34.7891 100.828 35.1927 100.489 36V42H99.0437V33.5469H100.45L100.473 34.5234C100.947 33.7682 101.619 33.3906 102.489 33.3906C102.77 33.3906 102.984 33.4271 103.13 33.5V34.8438ZM105.825 33.5469L105.864 34.4844C106.484 33.7552 107.32 33.3906 108.372 33.3906C109.554 33.3906 110.359 33.8438 110.786 34.75C111.067 34.3438 111.432 34.0156 111.88 33.7656C112.333 33.5156 112.867 33.3906 113.481 33.3906C115.335 33.3906 116.278 34.3724 116.309 36.3359V42H114.864V36.4219C114.864 35.8177 114.726 35.3672 114.45 35.0703C114.174 34.7682 113.71 34.6172 113.059 34.6172C112.523 34.6172 112.078 34.7786 111.723 35.1016C111.369 35.4193 111.163 35.849 111.106 36.3906V42H109.653V36.4609C109.653 35.2318 109.052 34.6172 107.848 34.6172C106.9 34.6172 106.252 35.0208 105.903 35.8281V42H104.458V33.5469H105.825ZM124.427 31.5V33.5469H126.005V34.6641H124.427V39.9062C124.427 40.2448 124.497 40.5 124.637 40.6719C124.778 40.8385 125.018 40.9219 125.356 40.9219C125.523 40.9219 125.752 40.8906 126.044 40.8281V42C125.663 42.1042 125.294 42.1562 124.934 42.1562C124.288 42.1562 123.802 41.9609 123.473 41.5703C123.145 41.1797 122.981 40.625 122.981 39.9062V34.6641H121.442V33.5469H122.981V31.5H124.427ZM129.145 34.5703C129.786 33.7839 130.619 33.3906 131.645 33.3906C133.432 33.3906 134.333 34.3984 134.348 36.4141V42H132.903V36.4062C132.898 35.7969 132.757 35.3464 132.481 35.0547C132.21 34.763 131.786 34.6172 131.208 34.6172C130.739 34.6172 130.328 34.7422 129.973 34.9922C129.619 35.2422 129.343 35.5703 129.145 35.9766V42H127.7V30H129.145V34.5703ZM140.02 42.1562C138.874 42.1562 137.942 41.7812 137.223 41.0312C136.505 40.276 136.145 39.2682 136.145 38.0078V37.7422C136.145 36.9036 136.304 36.1562 136.622 35.5C136.945 34.8385 137.393 34.3229 137.966 33.9531C138.544 33.5781 139.169 33.3906 139.841 33.3906C140.94 33.3906 141.794 33.7526 142.403 34.4766C143.012 35.2005 143.317 36.237 143.317 37.5859V38.1875H137.591C137.611 39.0208 137.854 39.6953 138.317 40.2109C138.786 40.7214 139.38 40.9766 140.098 40.9766C140.609 40.9766 141.041 40.8724 141.395 40.6641C141.749 40.4557 142.059 40.1797 142.325 39.8359L143.208 40.5234C142.499 41.612 141.437 42.1562 140.02 42.1562ZM139.841 34.5781C139.257 34.5781 138.768 34.7917 138.372 35.2188C137.976 35.6406 137.731 36.2344 137.637 37H141.872V36.8906C141.83 36.1562 141.632 35.5885 141.278 35.1875C140.924 34.7812 140.445 34.5781 139.841 34.5781ZM150.927 31.5V33.5469H152.505V34.6641H150.927V39.9062C150.927 40.2448 150.997 40.5 151.137 40.6719C151.278 40.8385 151.518 40.9219 151.856 40.9219C152.023 40.9219 152.252 40.8906 152.544 40.8281V42C152.163 42.1042 151.794 42.1562 151.434 42.1562C150.788 42.1562 150.302 41.9609 149.973 41.5703C149.645 41.1797 149.481 40.625 149.481 39.9062V34.6641H147.942V33.5469H149.481V31.5H150.927ZM158.286 34.8438C158.067 34.8073 157.83 34.7891 157.575 34.7891C156.627 34.7891 155.984 35.1927 155.645 36V42H154.2V33.5469H155.606L155.63 34.5234C156.104 33.7682 156.775 33.3906 157.645 33.3906C157.927 33.3906 158.14 33.4271 158.286 33.5V34.8438ZM164.528 42C164.445 41.8333 164.377 41.5365 164.325 41.1094C163.653 41.8073 162.851 42.1562 161.919 42.1562C161.085 42.1562 160.4 41.9219 159.864 41.4531C159.333 40.9792 159.067 40.3802 159.067 39.6562C159.067 38.776 159.4 38.0938 160.067 37.6094C160.739 37.1198 161.682 36.875 162.895 36.875H164.302V36.2109C164.302 35.7057 164.15 35.3047 163.848 35.0078C163.546 34.7057 163.101 34.5547 162.512 34.5547C161.997 34.5547 161.565 34.6849 161.216 34.9453C160.867 35.2057 160.692 35.5208 160.692 35.8906H159.239C159.239 35.4688 159.387 35.0625 159.684 34.6719C159.986 34.276 160.393 33.9635 160.903 33.7344C161.419 33.5052 161.984 33.3906 162.598 33.3906C163.572 33.3906 164.335 33.6354 164.887 34.125C165.44 34.6094 165.726 35.2786 165.747 36.1328V40.0234C165.747 40.7995 165.846 41.4167 166.044 41.875V42H164.528ZM162.13 40.8984C162.583 40.8984 163.012 40.7812 163.419 40.5469C163.825 40.3125 164.119 40.0078 164.302 39.6328V37.8984H163.169C161.398 37.8984 160.512 38.4167 160.512 39.4531C160.512 39.9062 160.663 40.2604 160.966 40.5156C161.268 40.7708 161.656 40.8984 162.13 40.8984ZM169.38 33.5469L169.427 34.6094C170.072 33.7969 170.916 33.3906 171.958 33.3906C173.744 33.3906 174.645 34.3984 174.661 36.4141V42H173.216V36.4062C173.21 35.7969 173.07 35.3464 172.794 35.0547C172.523 34.763 172.098 34.6172 171.52 34.6172C171.052 34.6172 170.64 34.7422 170.286 34.9922C169.932 35.2422 169.656 35.5703 169.458 35.9766V42H168.012V33.5469H169.38ZM181.762 39.7578C181.762 39.3672 181.614 39.0651 181.317 38.8516C181.025 38.6328 180.512 38.4453 179.778 38.2891C179.049 38.1328 178.468 37.9453 178.036 37.7266C177.609 37.5078 177.291 37.2474 177.083 36.9453C176.88 36.6432 176.778 36.2839 176.778 35.8672C176.778 35.1745 177.07 34.5885 177.653 34.1094C178.242 33.6302 178.992 33.3906 179.903 33.3906C180.861 33.3906 181.637 33.638 182.231 34.1328C182.83 34.6276 183.13 35.2604 183.13 36.0312H181.677C181.677 35.6354 181.507 35.2943 181.169 35.0078C180.835 34.7214 180.413 34.5781 179.903 34.5781C179.377 34.5781 178.966 34.6927 178.669 34.9219C178.372 35.151 178.223 35.4505 178.223 35.8203C178.223 36.1693 178.361 36.4323 178.637 36.6094C178.913 36.7865 179.411 36.9557 180.13 37.1172C180.854 37.2786 181.44 37.4714 181.887 37.6953C182.335 37.9193 182.666 38.1901 182.88 38.5078C183.098 38.8203 183.208 39.2031 183.208 39.6562C183.208 40.4115 182.906 41.0182 182.302 41.4766C181.697 41.9297 180.913 42.1562 179.95 42.1562C179.273 42.1562 178.674 42.0365 178.153 41.7969C177.632 41.5573 177.223 41.224 176.927 40.7969C176.635 40.3646 176.489 39.8984 176.489 39.3984H177.934C177.96 39.8828 178.153 40.2682 178.512 40.5547C178.877 40.8359 179.356 40.9766 179.95 40.9766C180.497 40.9766 180.934 40.8672 181.262 40.6484C181.596 40.4245 181.762 40.1276 181.762 39.7578ZM185.802 42V34.6641H184.466V33.5469H185.802V32.6797C185.802 31.7734 186.044 31.0729 186.528 30.5781C187.012 30.0833 187.697 29.8359 188.583 29.8359C188.916 29.8359 189.247 29.8802 189.575 29.9688L189.497 31.1406C189.252 31.0938 188.992 31.0703 188.716 31.0703C188.247 31.0703 187.885 31.2083 187.63 31.4844C187.374 31.7552 187.247 32.1458 187.247 32.6562V33.5469H189.052V34.6641H187.247V42H185.802ZM193.973 42.1562C192.828 42.1562 191.895 41.7812 191.177 41.0312C190.458 40.276 190.098 39.2682 190.098 38.0078V37.7422C190.098 36.9036 190.257 36.1562 190.575 35.5C190.898 34.8385 191.346 34.3229 191.919 33.9531C192.497 33.5781 193.122 33.3906 193.794 33.3906C194.893 33.3906 195.747 33.7526 196.356 34.4766C196.966 35.2005 197.27 36.237 197.27 37.5859V38.1875H191.544C191.565 39.0208 191.807 39.6953 192.27 40.2109C192.739 40.7214 193.333 40.9766 194.052 40.9766C194.562 40.9766 194.994 40.8724 195.348 40.6641C195.703 40.4557 196.012 40.1797 196.278 39.8359L197.161 40.5234C196.453 41.612 195.39 42.1562 193.973 42.1562ZM193.794 34.5781C193.21 34.5781 192.721 34.7917 192.325 35.2188C191.929 35.6406 191.684 36.2344 191.591 37H195.825V36.8906C195.783 36.1562 195.585 35.5885 195.231 35.1875C194.877 34.7812 194.398 34.5781 193.794 34.5781ZM203.036 34.8438C202.817 34.8073 202.58 34.7891 202.325 34.7891C201.377 34.7891 200.734 35.1927 200.395 36V42H198.95V33.5469H200.356L200.38 34.5234C200.854 33.7682 201.525 33.3906 202.395 33.3906C202.677 33.3906 202.89 33.4271 203.036 33.5V34.8438ZM213.559 42C213.476 41.8333 213.408 41.5365 213.356 41.1094C212.684 41.8073 211.882 42.1562 210.95 42.1562C210.117 42.1562 209.432 41.9219 208.895 41.4531C208.364 40.9792 208.098 40.3802 208.098 39.6562C208.098 38.776 208.432 38.0938 209.098 37.6094C209.77 37.1198 210.713 36.875 211.927 36.875H213.333V36.2109C213.333 35.7057 213.182 35.3047 212.88 35.0078C212.578 34.7057 212.132 34.5547 211.544 34.5547C211.028 34.5547 210.596 34.6849 210.247 34.9453C209.898 35.2057 209.723 35.5208 209.723 35.8906H208.27C208.27 35.4688 208.419 35.0625 208.716 34.6719C209.018 34.276 209.424 33.9635 209.934 33.7344C210.45 33.5052 211.015 33.3906 211.63 33.3906C212.604 33.3906 213.367 33.6354 213.919 34.125C214.471 34.6094 214.757 35.2786 214.778 36.1328V40.0234C214.778 40.7995 214.877 41.4167 215.075 41.875V42H213.559ZM211.161 40.8984C211.614 40.8984 212.044 40.7812 212.45 40.5469C212.856 40.3125 213.15 40.0078 213.333 39.6328V37.8984H212.2C210.429 37.8984 209.544 38.4167 209.544 39.4531C209.544 39.9062 209.695 40.2604 209.997 40.5156C210.299 40.7708 210.687 40.8984 211.161 40.8984ZM217.755 42V34.6641H216.419V33.5469H217.755V32.6797C217.755 31.7734 217.997 31.0729 218.481 30.5781C218.966 30.0833 219.65 29.8359 220.536 29.8359C220.869 29.8359 221.2 29.8802 221.528 29.9688L221.45 31.1406C221.205 31.0938 220.945 31.0703 220.669 31.0703C220.2 31.0703 219.838 31.2083 219.583 31.4844C219.328 31.7552 219.2 32.1458 219.2 32.6562V33.5469H221.005V34.6641H219.2V42H217.755ZM224.567 31.5V33.5469H226.145V34.6641H224.567V39.9062C224.567 40.2448 224.637 40.5 224.778 40.6719C224.919 40.8385 225.158 40.9219 225.497 40.9219C225.663 40.9219 225.893 40.8906 226.184 40.8281V42C225.804 42.1042 225.434 42.1562 225.075 42.1562C224.429 42.1562 223.942 41.9609 223.614 41.5703C223.286 41.1797 223.122 40.625 223.122 39.9062V34.6641H221.583V33.5469H223.122V31.5H224.567ZM231.348 42.1562C230.203 42.1562 229.27 41.7812 228.552 41.0312C227.833 40.276 227.473 39.2682 227.473 38.0078V37.7422C227.473 36.9036 227.632 36.1562 227.95 35.5C228.273 34.8385 228.721 34.3229 229.294 33.9531C229.872 33.5781 230.497 33.3906 231.169 33.3906C232.268 33.3906 233.122 33.7526 233.731 34.4766C234.341 35.2005 234.645 36.237 234.645 37.5859V38.1875H228.919C228.94 39.0208 229.182 39.6953 229.645 40.2109C230.114 40.7214 230.708 40.9766 231.427 40.9766C231.937 40.9766 232.369 40.8724 232.723 40.6641C233.078 40.4557 233.387 40.1797 233.653 39.8359L234.536 40.5234C233.828 41.612 232.765 42.1562 231.348 42.1562ZM231.169 34.5781C230.585 34.5781 230.096 34.7917 229.7 35.2188C229.304 35.6406 229.059 36.2344 228.966 37H233.2V36.8906C233.158 36.1562 232.96 35.5885 232.606 35.1875C232.252 34.7812 231.773 34.5781 231.169 34.5781ZM240.411 34.8438C240.192 34.8073 239.955 34.7891 239.7 34.7891C238.752 34.7891 238.109 35.1927 237.77 36V42H236.325V33.5469H237.731L237.755 34.5234C238.229 33.7682 238.9 33.3906 239.77 33.3906C240.052 33.3906 240.265 33.4271 240.411 33.5V34.8438ZM249.106 40.9766C249.622 40.9766 250.072 40.8203 250.458 40.5078C250.843 40.1953 251.057 39.8047 251.098 39.3359H252.466C252.44 39.8203 252.273 40.2812 251.966 40.7188C251.658 41.1562 251.247 41.5052 250.731 41.7656C250.221 42.026 249.679 42.1562 249.106 42.1562C247.955 42.1562 247.038 41.7734 246.356 41.0078C245.679 40.237 245.341 39.1849 245.341 37.8516V37.6094C245.341 36.7865 245.492 36.0547 245.794 35.4141C246.096 34.7734 246.528 34.276 247.091 33.9219C247.658 33.5677 248.328 33.3906 249.098 33.3906C250.046 33.3906 250.833 33.6745 251.458 34.2422C252.088 34.8099 252.424 35.5469 252.466 36.4531H251.098C251.057 35.9062 250.848 35.4583 250.473 35.1094C250.104 34.7552 249.645 34.5781 249.098 34.5781C248.364 34.5781 247.794 34.8438 247.387 35.375C246.986 35.901 246.786 36.6641 246.786 37.6641V37.9375C246.786 38.9115 246.986 39.6615 247.387 40.1875C247.788 40.7135 248.361 40.9766 249.106 40.9766ZM255.536 34.5703C256.177 33.7839 257.01 33.3906 258.036 33.3906C259.822 33.3906 260.723 34.3984 260.739 36.4141V42H259.294V36.4062C259.288 35.7969 259.148 35.3464 258.872 35.0547C258.601 34.763 258.177 34.6172 257.598 34.6172C257.13 34.6172 256.718 34.7422 256.364 34.9922C256.01 35.2422 255.734 35.5703 255.536 35.9766V42H254.091V30H255.536V34.5703ZM266.411 42.1562C265.265 42.1562 264.333 41.7812 263.614 41.0312C262.895 40.276 262.536 39.2682 262.536 38.0078V37.7422C262.536 36.9036 262.695 36.1562 263.012 35.5C263.335 34.8385 263.783 34.3229 264.356 33.9531C264.934 33.5781 265.559 33.3906 266.231 33.3906C267.33 33.3906 268.184 33.7526 268.794 34.4766C269.403 35.2005 269.708 36.237 269.708 37.5859V38.1875H263.981C264.002 39.0208 264.244 39.6953 264.708 40.2109C265.177 40.7214 265.77 40.9766 266.489 40.9766C266.999 40.9766 267.432 40.8724 267.786 40.6641C268.14 40.4557 268.45 40.1797 268.716 39.8359L269.598 40.5234C268.89 41.612 267.828 42.1562 266.411 42.1562ZM266.231 34.5781C265.648 34.5781 265.158 34.7917 264.762 35.2188C264.367 35.6406 264.122 36.2344 264.028 37H268.262V36.8906C268.221 36.1562 268.023 35.5885 267.669 35.1875C267.315 34.7812 266.835 34.5781 266.231 34.5781ZM274.778 40.9766C275.294 40.9766 275.744 40.8203 276.13 40.5078C276.515 40.1953 276.729 39.8047 276.77 39.3359H278.137C278.111 39.8203 277.945 40.2812 277.637 40.7188C277.33 41.1562 276.919 41.5052 276.403 41.7656C275.893 42.026 275.351 42.1562 274.778 42.1562C273.627 42.1562 272.71 41.7734 272.028 41.0078C271.351 40.237 271.012 39.1849 271.012 37.8516V37.6094C271.012 36.7865 271.163 36.0547 271.466 35.4141C271.768 34.7734 272.2 34.276 272.762 33.9219C273.33 33.5677 273.999 33.3906 274.77 33.3906C275.718 33.3906 276.505 33.6745 277.13 34.2422C277.76 34.8099 278.096 35.5469 278.137 36.4531H276.77C276.729 35.9062 276.52 35.4583 276.145 35.1094C275.775 34.7552 275.317 34.5781 274.77 34.5781C274.036 34.5781 273.466 34.8438 273.059 35.375C272.658 35.901 272.458 36.6641 272.458 37.6641V37.9375C272.458 38.9115 272.658 39.6615 273.059 40.1875C273.46 40.7135 274.033 40.9766 274.778 40.9766ZM282.122 38.0859L281.216 39.0312V42H279.77V30H281.216V37.2578L281.989 36.3281L284.622 33.5469H286.38L283.091 37.0781L286.762 42H285.067L282.122 38.0859ZM289.442 42H287.997V33.5469H289.442V42ZM287.88 31.3047C287.88 31.0703 287.95 30.8724 288.091 30.7109C288.236 30.5495 288.45 30.4688 288.731 30.4688C289.012 30.4688 289.226 30.5495 289.372 30.7109C289.518 30.8724 289.591 31.0703 289.591 31.3047C289.591 31.5391 289.518 31.7344 289.372 31.8906C289.226 32.0469 289.012 32.125 288.731 32.125C288.45 32.125 288.236 32.0469 288.091 31.8906C287.95 31.7344 287.88 31.5391 287.88 31.3047ZM293.13 33.5469L293.177 34.6094C293.822 33.7969 294.666 33.3906 295.708 33.3906C297.494 33.3906 298.395 34.3984 298.411 36.4141V42H296.966V36.4062C296.96 35.7969 296.82 35.3464 296.544 35.0547C296.273 34.763 295.848 34.6172 295.27 34.6172C294.802 34.6172 294.39 34.7422 294.036 34.9922C293.682 35.2422 293.406 35.5703 293.208 35.9766V42H291.762V33.5469H293.13ZM300.247 37.7031C300.247 36.3854 300.552 35.3385 301.161 34.5625C301.77 33.7812 302.578 33.3906 303.583 33.3906C304.614 33.3906 305.419 33.7552 305.997 34.4844L306.067 33.5469H307.387V41.7969C307.387 42.8906 307.062 43.7526 306.411 44.3828C305.765 45.013 304.895 45.3281 303.802 45.3281C303.192 45.3281 302.596 45.1979 302.012 44.9375C301.429 44.6771 300.984 44.3203 300.677 43.8672L301.427 43C302.046 43.7656 302.804 44.1484 303.7 44.1484C304.403 44.1484 304.95 43.9505 305.341 43.5547C305.736 43.1589 305.934 42.6016 305.934 41.8828V41.1562C305.356 41.8229 304.567 42.1562 303.567 42.1562C302.578 42.1562 301.775 41.7578 301.161 40.9609C300.552 40.1641 300.247 39.0781 300.247 37.7031ZM301.7 37.8672C301.7 38.8203 301.895 39.5703 302.286 40.1172C302.677 40.6589 303.223 40.9297 303.927 40.9297C304.838 40.9297 305.507 40.5156 305.934 39.6875V35.8281C305.492 35.0208 304.828 34.6172 303.942 34.6172C303.239 34.6172 302.69 34.8906 302.294 35.4375C301.898 35.9844 301.7 36.7943 301.7 37.8672ZM315.114 42H313.669V33.5469H315.114V42ZM313.552 31.3047C313.552 31.0703 313.622 30.8724 313.762 30.7109C313.908 30.5495 314.122 30.4688 314.403 30.4688C314.684 30.4688 314.898 30.5495 315.044 30.7109C315.19 30.8724 315.262 31.0703 315.262 31.3047C315.262 31.5391 315.19 31.7344 315.044 31.8906C314.898 32.0469 314.684 32.125 314.403 32.125C314.122 32.125 313.908 32.0469 313.762 31.8906C313.622 31.7344 313.552 31.5391 313.552 31.3047ZM319.395 31.5V33.5469H320.973V34.6641H319.395V39.9062C319.395 40.2448 319.466 40.5 319.606 40.6719C319.747 40.8385 319.986 40.9219 320.325 40.9219C320.492 40.9219 320.721 40.8906 321.012 40.8281V42C320.632 42.1042 320.262 42.1562 319.903 42.1562C319.257 42.1562 318.77 41.9609 318.442 41.5703C318.114 41.1797 317.95 40.625 317.95 39.9062V34.6641H316.411V33.5469H317.95V31.5H319.395ZM322.7 41.2422C322.7 40.9922 322.773 40.7839 322.919 40.6172C323.07 40.4505 323.294 40.3672 323.591 40.3672C323.887 40.3672 324.111 40.4505 324.262 40.6172C324.419 40.7839 324.497 40.9922 324.497 41.2422C324.497 41.4818 324.419 41.6823 324.262 41.8438C324.111 42.0052 323.887 42.0859 323.591 42.0859C323.294 42.0859 323.07 42.0052 322.919 41.8438C322.773 41.6823 322.7 41.4818 322.7 41.2422Z" fill="#656668"/>
<path d="M19.1108 47.744H34.5028V45.312H23.4948C27.6228 41.952 33.8308 37.056 33.8308 31.296C33.8308 27.008 31.0148 24.448 26.6628 24.448C22.5028 24.448 19.3988 27.008 19.2068 31.936H22.0228C22.1508 29.024 23.6868 26.944 26.6948 26.944C29.8308 26.944 30.9508 28.864 30.9508 31.424C30.9508 36.16 25.1908 40.768 19.1108 45.664V47.744Z" fill="#656668"/>
</svg>
