<svg width="595" height="113" viewBox="0 0 595 113" fill="none" xmlns="http://www.w3.org/2000/svg">
<g filter="url(#filter0_d)">
<rect x="19" y="16" width="556.56" height="75" rx="24" fill="white"/>
</g>
<path d="M87.4656 50.7422H82.5359V54.7734H88.2625V56H81.0359V44.625H88.1843V45.8594H82.5359V49.5156H87.4656V50.7422ZM91.2703 47.5469L91.3171 48.6094C91.963 47.7969 92.8067 47.3906 93.8484 47.3906C95.6348 47.3906 96.5359 48.3984 96.5515 50.4141V56H95.1062V50.4062C95.101 49.7969 94.9604 49.3464 94.6843 49.0547C94.4135 48.763 93.989 48.6172 93.4109 48.6172C92.9421 48.6172 92.5307 48.7422 92.1765 48.9922C91.8223 49.2422 91.5463 49.5703 91.3484 49.9766V56H89.9031V47.5469H91.2703ZM100.692 45.5V47.5469H102.27V48.6641H100.692V53.9062C100.692 54.2448 100.762 54.5 100.903 54.6719C101.044 54.8385 101.283 54.9219 101.622 54.9219C101.788 54.9219 102.018 54.8906 102.309 54.8281V56C101.929 56.1042 101.559 56.1562 101.2 56.1562C100.554 56.1562 100.067 55.9609 99.739 55.5703C99.4109 55.1797 99.2468 54.625 99.2468 53.9062V48.6641H97.7078V47.5469H99.2468V45.5H100.692ZM107.473 56.1562C106.328 56.1562 105.395 55.7812 104.677 55.0312C103.958 54.276 103.598 53.2682 103.598 52.0078V51.7422C103.598 50.9036 103.757 50.1562 104.075 49.5C104.398 48.8385 104.846 48.3229 105.419 47.9531C105.997 47.5781 106.622 47.3906 107.294 47.3906C108.393 47.3906 109.247 47.7526 109.856 48.4766C110.466 49.2005 110.77 50.237 110.77 51.5859V52.1875H105.044C105.065 53.0208 105.307 53.6953 105.77 54.2109C106.239 54.7214 106.833 54.9766 107.552 54.9766C108.062 54.9766 108.494 54.8724 108.848 54.6641C109.203 54.4557 109.512 54.1797 109.778 53.8359L110.661 54.5234C109.953 55.612 108.89 56.1562 107.473 56.1562ZM107.294 48.5781C106.71 48.5781 106.221 48.7917 105.825 49.2188C105.429 49.6406 105.184 50.2344 105.091 51H109.325V50.8906C109.283 50.1562 109.085 49.5885 108.731 49.1875C108.377 48.7812 107.898 48.5781 107.294 48.5781ZM116.536 48.8438C116.317 48.8073 116.08 48.7891 115.825 48.7891C114.877 48.7891 114.234 49.1927 113.895 50V56H112.45V47.5469H113.856L113.88 48.5234C114.354 47.7682 115.025 47.3906 115.895 47.3906C116.177 47.3906 116.39 47.4271 116.536 47.5V48.8438ZM123.802 45.5V47.5469H125.38V48.6641H123.802V53.9062C123.802 54.2448 123.872 54.5 124.012 54.6719C124.153 54.8385 124.393 54.9219 124.731 54.9219C124.898 54.9219 125.127 54.8906 125.419 54.8281V56C125.038 56.1042 124.669 56.1562 124.309 56.1562C123.663 56.1562 123.177 55.9609 122.848 55.5703C122.52 55.1797 122.356 54.625 122.356 53.9062V48.6641H120.817V47.5469H122.356V45.5H123.802ZM128.52 48.5703C129.161 47.7839 129.994 47.3906 131.02 47.3906C132.807 47.3906 133.708 48.3984 133.723 50.4141V56H132.278V50.4062C132.273 49.7969 132.132 49.3464 131.856 49.0547C131.585 48.763 131.161 48.6172 130.583 48.6172C130.114 48.6172 129.703 48.7422 129.348 48.9922C128.994 49.2422 128.718 49.5703 128.52 49.9766V56H127.075V44H128.52V48.5703ZM139.395 56.1562C138.249 56.1562 137.317 55.7812 136.598 55.0312C135.88 54.276 135.52 53.2682 135.52 52.0078V51.7422C135.52 50.9036 135.679 50.1562 135.997 49.5C136.32 48.8385 136.768 48.3229 137.341 47.9531C137.919 47.5781 138.544 47.3906 139.216 47.3906C140.315 47.3906 141.169 47.7526 141.778 48.4766C142.387 49.2005 142.692 50.237 142.692 51.5859V52.1875H136.966C136.986 53.0208 137.229 53.6953 137.692 54.2109C138.161 54.7214 138.755 54.9766 139.473 54.9766C139.984 54.9766 140.416 54.8724 140.77 54.6641C141.124 54.4557 141.434 54.1797 141.7 53.8359L142.583 54.5234C141.874 55.612 140.812 56.1562 139.395 56.1562ZM139.216 48.5781C138.632 48.5781 138.143 48.7917 137.747 49.2188C137.351 49.6406 137.106 50.2344 137.012 51H141.247V50.8906C141.205 50.1562 141.007 49.5885 140.653 49.1875C140.299 48.7812 139.82 48.5781 139.216 48.5781ZM152.427 48.8438C152.208 48.8073 151.971 48.7891 151.716 48.7891C150.768 48.7891 150.124 49.1927 149.786 50V56H148.341V47.5469H149.747L149.77 48.5234C150.244 47.7682 150.916 47.3906 151.786 47.3906C152.067 47.3906 152.281 47.4271 152.427 47.5V48.8438ZM157.114 56.1562C155.968 56.1562 155.036 55.7812 154.317 55.0312C153.598 54.276 153.239 53.2682 153.239 52.0078V51.7422C153.239 50.9036 153.398 50.1562 153.716 49.5C154.038 48.8385 154.486 48.3229 155.059 47.9531C155.637 47.5781 156.262 47.3906 156.934 47.3906C158.033 47.3906 158.887 47.7526 159.497 48.4766C160.106 49.2005 160.411 50.237 160.411 51.5859V52.1875H154.684C154.705 53.0208 154.947 53.6953 155.411 54.2109C155.88 54.7214 156.473 54.9766 157.192 54.9766C157.703 54.9766 158.135 54.8724 158.489 54.6641C158.843 54.4557 159.153 54.1797 159.419 53.8359L160.302 54.5234C159.593 55.612 158.531 56.1562 157.114 56.1562ZM156.934 48.5781C156.351 48.5781 155.861 48.7917 155.466 49.2188C155.07 49.6406 154.825 50.2344 154.731 51H158.966V50.8906C158.924 50.1562 158.726 49.5885 158.372 49.1875C158.018 48.7812 157.538 48.5781 156.934 48.5781ZM165.481 54.9766C165.997 54.9766 166.447 54.8203 166.833 54.5078C167.218 54.1953 167.432 53.8047 167.473 53.3359H168.841C168.815 53.8203 168.648 54.2812 168.341 54.7188C168.033 55.1562 167.622 55.5052 167.106 55.7656C166.596 56.026 166.054 56.1562 165.481 56.1562C164.33 56.1562 163.413 55.7734 162.731 55.0078C162.054 54.237 161.716 53.1849 161.716 51.8516V51.6094C161.716 50.7865 161.867 50.0547 162.169 49.4141C162.471 48.7734 162.903 48.276 163.466 47.9219C164.033 47.5677 164.703 47.3906 165.473 47.3906C166.421 47.3906 167.208 47.6745 167.833 48.2422C168.463 48.8099 168.799 49.5469 168.841 50.4531H167.473C167.432 49.9062 167.223 49.4583 166.848 49.1094C166.479 48.7552 166.02 48.5781 165.473 48.5781C164.739 48.5781 164.169 48.8438 163.762 49.375C163.361 49.901 163.161 50.6641 163.161 51.6641V51.9375C163.161 52.9115 163.361 53.6615 163.762 54.1875C164.163 54.7135 164.736 54.9766 165.481 54.9766ZM172.036 56H170.591V47.5469H172.036V56ZM170.473 45.3047C170.473 45.0703 170.544 44.8724 170.684 44.7109C170.83 44.5495 171.044 44.4688 171.325 44.4688C171.606 44.4688 171.82 44.5495 171.966 44.7109C172.111 44.8724 172.184 45.0703 172.184 45.3047C172.184 45.5391 172.111 45.7344 171.966 45.8906C171.82 46.0469 171.606 46.125 171.325 46.125C171.044 46.125 170.83 46.0469 170.684 45.8906C170.544 45.7344 170.473 45.5391 170.473 45.3047ZM181.497 51.8672C181.497 53.1536 181.203 54.1901 180.614 54.9766C180.025 55.763 179.229 56.1562 178.223 56.1562C177.197 56.1562 176.39 55.8307 175.802 55.1797V59.25H174.356V47.5469H175.677L175.747 48.4844C176.335 47.7552 177.153 47.3906 178.2 47.3906C179.216 47.3906 180.018 47.7734 180.606 48.5391C181.2 49.3047 181.497 50.3698 181.497 51.7344V51.8672ZM180.052 51.7031C180.052 50.75 179.848 49.9974 179.442 49.4453C179.036 48.8932 178.479 48.6172 177.77 48.6172C176.895 48.6172 176.239 49.0052 175.802 49.7812V53.8203C176.234 54.5911 176.895 54.9766 177.786 54.9766C178.479 54.9766 179.028 54.7031 179.434 54.1562C179.846 53.6042 180.052 52.7865 180.052 51.7031ZM184.911 56H183.466V47.5469H184.911V56ZM183.348 45.3047C183.348 45.0703 183.419 44.8724 183.559 44.7109C183.705 44.5495 183.919 44.4688 184.2 44.4688C184.481 44.4688 184.695 44.5495 184.841 44.7109C184.986 44.8724 185.059 45.0703 185.059 45.3047C185.059 45.5391 184.986 45.7344 184.841 45.8906C184.695 46.0469 184.481 46.125 184.2 46.125C183.919 46.125 183.705 46.0469 183.559 45.8906C183.419 45.7344 183.348 45.5391 183.348 45.3047ZM190.739 56.1562C189.593 56.1562 188.661 55.7812 187.942 55.0312C187.223 54.276 186.864 53.2682 186.864 52.0078V51.7422C186.864 50.9036 187.023 50.1562 187.341 49.5C187.663 48.8385 188.111 48.3229 188.684 47.9531C189.262 47.5781 189.887 47.3906 190.559 47.3906C191.658 47.3906 192.512 47.7526 193.122 48.4766C193.731 49.2005 194.036 50.237 194.036 51.5859V52.1875H188.309C188.33 53.0208 188.572 53.6953 189.036 54.2109C189.505 54.7214 190.098 54.9766 190.817 54.9766C191.328 54.9766 191.76 54.8724 192.114 54.6641C192.468 54.4557 192.778 54.1797 193.044 53.8359L193.927 54.5234C193.218 55.612 192.156 56.1562 190.739 56.1562ZM190.559 48.5781C189.976 48.5781 189.486 48.7917 189.091 49.2188C188.695 49.6406 188.45 50.2344 188.356 51H192.591V50.8906C192.549 50.1562 192.351 49.5885 191.997 49.1875C191.643 48.7812 191.163 48.5781 190.559 48.5781ZM197.083 47.5469L197.13 48.6094C197.775 47.7969 198.619 47.3906 199.661 47.3906C201.447 47.3906 202.348 48.3984 202.364 50.4141V56H200.919V50.4062C200.913 49.7969 200.773 49.3464 200.497 49.0547C200.226 48.763 199.802 48.6172 199.223 48.6172C198.755 48.6172 198.343 48.7422 197.989 48.9922C197.635 49.2422 197.359 49.5703 197.161 49.9766V56H195.716V47.5469H197.083ZM206.505 45.5V47.5469H208.083V48.6641H206.505V53.9062C206.505 54.2448 206.575 54.5 206.716 54.6719C206.856 54.8385 207.096 54.9219 207.434 54.9219C207.601 54.9219 207.83 54.8906 208.122 54.8281V56C207.742 56.1042 207.372 56.1562 207.012 56.1562C206.367 56.1562 205.88 55.9609 205.552 55.5703C205.223 55.1797 205.059 54.625 205.059 53.9062V48.6641H203.52V47.5469H205.059V45.5H206.505ZM210.661 44.8672L210.497 47.7422H209.489L209.497 44H210.661V44.8672ZM216.872 53.7578C216.872 53.3672 216.723 53.0651 216.427 52.8516C216.135 52.6328 215.622 52.4453 214.887 52.2891C214.158 52.1328 213.578 51.9453 213.145 51.7266C212.718 51.5078 212.4 51.2474 212.192 50.9453C211.989 50.6432 211.887 50.2839 211.887 49.8672C211.887 49.1745 212.179 48.5885 212.762 48.1094C213.351 47.6302 214.101 47.3906 215.012 47.3906C215.971 47.3906 216.747 47.638 217.341 48.1328C217.94 48.6276 218.239 49.2604 218.239 50.0312H216.786C216.786 49.6354 216.617 49.2943 216.278 49.0078C215.945 48.7214 215.523 48.5781 215.012 48.5781C214.486 48.5781 214.075 48.6927 213.778 48.9219C213.481 49.151 213.333 49.4505 213.333 49.8203C213.333 50.1693 213.471 50.4323 213.747 50.6094C214.023 50.7865 214.52 50.9557 215.239 51.1172C215.963 51.2786 216.549 51.4714 216.997 51.6953C217.445 51.9193 217.775 52.1901 217.989 52.5078C218.208 52.8203 218.317 53.2031 218.317 53.6562C218.317 54.4115 218.015 55.0182 217.411 55.4766C216.807 55.9297 216.023 56.1562 215.059 56.1562C214.382 56.1562 213.783 56.0365 213.262 55.7969C212.742 55.5573 212.333 55.224 212.036 54.7969C211.744 54.3646 211.598 53.8984 211.598 53.3984H213.044C213.07 53.8828 213.262 54.2682 213.622 54.5547C213.986 54.8359 214.466 54.9766 215.059 54.9766C215.606 54.9766 216.044 54.8672 216.372 54.6484C216.705 54.4245 216.872 54.1276 216.872 53.7578ZM225.528 47.5469L225.567 48.4844C226.187 47.7552 227.023 47.3906 228.075 47.3906C229.257 47.3906 230.062 47.8438 230.489 48.75C230.77 48.3438 231.135 48.0156 231.583 47.7656C232.036 47.5156 232.57 47.3906 233.184 47.3906C235.038 47.3906 235.981 48.3724 236.012 50.3359V56H234.567V50.4219C234.567 49.8177 234.429 49.3672 234.153 49.0703C233.877 48.7682 233.413 48.6172 232.762 48.6172C232.226 48.6172 231.781 48.7786 231.427 49.1016C231.072 49.4193 230.867 49.849 230.809 50.3906V56H229.356V50.4609C229.356 49.2318 228.755 48.6172 227.552 48.6172C226.604 48.6172 225.955 49.0208 225.606 49.8281V56H224.161V47.5469H225.528ZM237.817 51.6953C237.817 50.8672 237.979 50.1224 238.302 49.4609C238.63 48.7995 239.083 48.2891 239.661 47.9297C240.244 47.5703 240.908 47.3906 241.653 47.3906C242.804 47.3906 243.734 47.7891 244.442 48.5859C245.156 49.3828 245.512 50.4427 245.512 51.7656V51.8672C245.512 52.6901 245.354 53.4297 245.036 54.0859C244.723 54.737 244.273 55.2448 243.684 55.6094C243.101 55.974 242.429 56.1562 241.669 56.1562C240.523 56.1562 239.593 55.7578 238.88 54.9609C238.171 54.1641 237.817 53.1094 237.817 51.7969V51.6953ZM239.27 51.8672C239.27 52.8047 239.486 53.5573 239.919 54.125C240.356 54.6927 240.94 54.9766 241.669 54.9766C242.403 54.9766 242.986 54.6901 243.419 54.1172C243.851 53.5391 244.067 52.7318 244.067 51.6953C244.067 50.7682 243.846 50.0182 243.403 49.4453C242.966 48.8672 242.382 48.5781 241.653 48.5781C240.94 48.5781 240.364 48.862 239.927 49.4297C239.489 49.9974 239.27 50.8099 239.27 51.8672ZM254.481 51.8672C254.481 53.1589 254.184 54.1979 253.591 54.9844C252.997 55.7656 252.2 56.1562 251.2 56.1562C250.132 56.1562 249.307 55.7786 248.723 55.0234L248.653 56H247.325V44H248.77V48.4766C249.354 47.7526 250.158 47.3906 251.184 47.3906C252.21 47.3906 253.015 47.7786 253.598 48.5547C254.187 49.3307 254.481 50.3932 254.481 51.7422V51.8672ZM253.036 51.7031C253.036 50.7188 252.846 49.9583 252.466 49.4219C252.085 48.8854 251.538 48.6172 250.825 48.6172C249.872 48.6172 249.187 49.0599 248.77 49.9453V53.6016C249.213 54.487 249.903 54.9297 250.841 54.9297C251.533 54.9297 252.072 54.6615 252.458 54.125C252.843 53.5885 253.036 52.7812 253.036 51.7031ZM257.88 56H256.434V47.5469H257.88V56ZM256.317 45.3047C256.317 45.0703 256.387 44.8724 256.528 44.7109C256.674 44.5495 256.887 44.4688 257.169 44.4688C257.45 44.4688 257.663 44.5495 257.809 44.7109C257.955 44.8724 258.028 45.0703 258.028 45.3047C258.028 45.5391 257.955 45.7344 257.809 45.8906C257.663 46.0469 257.45 46.125 257.169 46.125C256.887 46.125 256.674 46.0469 256.528 45.8906C256.387 45.7344 256.317 45.5391 256.317 45.3047ZM261.77 56H260.325V44H261.77V56ZM267.598 56.1562C266.453 56.1562 265.52 55.7812 264.802 55.0312C264.083 54.276 263.723 53.2682 263.723 52.0078V51.7422C263.723 50.9036 263.882 50.1562 264.2 49.5C264.523 48.8385 264.971 48.3229 265.544 47.9531C266.122 47.5781 266.747 47.3906 267.419 47.3906C268.518 47.3906 269.372 47.7526 269.981 48.4766C270.591 49.2005 270.895 50.237 270.895 51.5859V52.1875H265.169C265.19 53.0208 265.432 53.6953 265.895 54.2109C266.364 54.7214 266.958 54.9766 267.677 54.9766C268.187 54.9766 268.619 54.8724 268.973 54.6641C269.328 54.4557 269.637 54.1797 269.903 53.8359L270.786 54.5234C270.078 55.612 269.015 56.1562 267.598 56.1562ZM267.419 48.5781C266.835 48.5781 266.346 48.7917 265.95 49.2188C265.554 49.6406 265.309 50.2344 265.216 51H269.45V50.8906C269.408 50.1562 269.21 49.5885 268.856 49.1875C268.502 48.7812 268.023 48.5781 267.419 48.5781ZM277.911 47.5469L277.958 48.6094C278.604 47.7969 279.447 47.3906 280.489 47.3906C282.275 47.3906 283.177 48.3984 283.192 50.4141V56H281.747V50.4062C281.742 49.7969 281.601 49.3464 281.325 49.0547C281.054 48.763 280.63 48.6172 280.052 48.6172C279.583 48.6172 279.171 48.7422 278.817 48.9922C278.463 49.2422 278.187 49.5703 277.989 49.9766V56H276.544V47.5469H277.911ZM290.591 55.1641C290.028 55.8255 289.203 56.1562 288.114 56.1562C287.213 56.1562 286.525 55.8958 286.052 55.375C285.583 54.849 285.346 54.0729 285.341 53.0469V47.5469H286.786V53.0078C286.786 54.2891 287.307 54.9297 288.348 54.9297C289.453 54.9297 290.187 54.5182 290.552 53.6953V47.5469H291.997V56H290.622L290.591 55.1641ZM295.559 47.5469L295.598 48.4844C296.218 47.7552 297.054 47.3906 298.106 47.3906C299.288 47.3906 300.093 47.8438 300.52 48.75C300.802 48.3438 301.166 48.0156 301.614 47.7656C302.067 47.5156 302.601 47.3906 303.216 47.3906C305.07 47.3906 306.012 48.3724 306.044 50.3359V56H304.598V50.4219C304.598 49.8177 304.46 49.3672 304.184 49.0703C303.908 48.7682 303.445 48.6172 302.794 48.6172C302.257 48.6172 301.812 48.7786 301.458 49.1016C301.104 49.4193 300.898 49.849 300.841 50.3906V56H299.387V50.4609C299.387 49.2318 298.786 48.6172 297.583 48.6172C296.635 48.6172 295.986 49.0208 295.637 49.8281V56H294.192V47.5469H295.559ZM315.387 51.8672C315.387 53.1589 315.091 54.1979 314.497 54.9844C313.903 55.7656 313.106 56.1562 312.106 56.1562C311.038 56.1562 310.213 55.7786 309.63 55.0234L309.559 56H308.231V44H309.677V48.4766C310.26 47.7526 311.065 47.3906 312.091 47.3906C313.117 47.3906 313.921 47.7786 314.505 48.5547C315.093 49.3307 315.387 50.3932 315.387 51.7422V51.8672ZM313.942 51.7031C313.942 50.7188 313.752 49.9583 313.372 49.4219C312.992 48.8854 312.445 48.6172 311.731 48.6172C310.778 48.6172 310.093 49.0599 309.677 49.9453V53.6016C310.119 54.487 310.809 54.9297 311.747 54.9297C312.44 54.9297 312.979 54.6615 313.364 54.125C313.749 53.5885 313.942 52.7812 313.942 51.7031ZM320.723 56.1562C319.578 56.1562 318.645 55.7812 317.927 55.0312C317.208 54.276 316.848 53.2682 316.848 52.0078V51.7422C316.848 50.9036 317.007 50.1562 317.325 49.5C317.648 48.8385 318.096 48.3229 318.669 47.9531C319.247 47.5781 319.872 47.3906 320.544 47.3906C321.643 47.3906 322.497 47.7526 323.106 48.4766C323.716 49.2005 324.02 50.237 324.02 51.5859V52.1875H318.294C318.315 53.0208 318.557 53.6953 319.02 54.2109C319.489 54.7214 320.083 54.9766 320.802 54.9766C321.312 54.9766 321.744 54.8724 322.098 54.6641C322.453 54.4557 322.762 54.1797 323.028 53.8359L323.911 54.5234C323.203 55.612 322.14 56.1562 320.723 56.1562ZM320.544 48.5781C319.96 48.5781 319.471 48.7917 319.075 49.2188C318.679 49.6406 318.434 50.2344 318.341 51H322.575V50.8906C322.533 50.1562 322.335 49.5885 321.981 49.1875C321.627 48.7812 321.148 48.5781 320.544 48.5781ZM329.786 48.8438C329.567 48.8073 329.33 48.7891 329.075 48.7891C328.127 48.7891 327.484 49.1927 327.145 50V56H325.7V47.5469H327.106L327.13 48.5234C327.604 47.7682 328.275 47.3906 329.145 47.3906C329.427 47.3906 329.64 47.4271 329.786 47.5V48.8438ZM340.309 56C340.226 55.8333 340.158 55.5365 340.106 55.1094C339.434 55.8073 338.632 56.1562 337.7 56.1562C336.867 56.1562 336.182 55.9219 335.645 55.4531C335.114 54.9792 334.848 54.3802 334.848 53.6562C334.848 52.776 335.182 52.0938 335.848 51.6094C336.52 51.1198 337.463 50.875 338.677 50.875H340.083V50.2109C340.083 49.7057 339.932 49.3047 339.63 49.0078C339.328 48.7057 338.882 48.5547 338.294 48.5547C337.778 48.5547 337.346 48.6849 336.997 48.9453C336.648 49.2057 336.473 49.5208 336.473 49.8906H335.02C335.02 49.4688 335.169 49.0625 335.466 48.6719C335.768 48.276 336.174 47.9635 336.684 47.7344C337.2 47.5052 337.765 47.3906 338.38 47.3906C339.354 47.3906 340.117 47.6354 340.669 48.125C341.221 48.6094 341.507 49.2786 341.528 50.1328V54.0234C341.528 54.7995 341.627 55.4167 341.825 55.875V56H340.309ZM337.911 54.8984C338.364 54.8984 338.794 54.7812 339.2 54.5469C339.606 54.3125 339.9 54.0078 340.083 53.6328V51.8984H338.95C337.179 51.8984 336.294 52.4167 336.294 53.4531C336.294 53.9062 336.445 54.2604 336.747 54.5156C337.049 54.7708 337.437 54.8984 337.911 54.8984ZM345.161 47.5469L345.208 48.6094C345.854 47.7969 346.697 47.3906 347.739 47.3906C349.525 47.3906 350.427 48.3984 350.442 50.4141V56H348.997V50.4062C348.992 49.7969 348.851 49.3464 348.575 49.0547C348.304 48.763 347.88 48.6172 347.302 48.6172C346.833 48.6172 346.421 48.7422 346.067 48.9922C345.713 49.2422 345.437 49.5703 345.239 49.9766V56H343.794V47.5469H345.161ZM352.27 51.7031C352.27 50.4062 352.578 49.3646 353.192 48.5781C353.807 47.7865 354.611 47.3906 355.606 47.3906C356.596 47.3906 357.38 47.7292 357.958 48.4062V44H359.403V56H358.075L358.005 55.0938C357.427 55.8021 356.622 56.1562 355.591 56.1562C354.611 56.1562 353.812 55.7552 353.192 54.9531C352.578 54.151 352.27 53.1042 352.27 51.8125V51.7031ZM353.716 51.8672C353.716 52.8255 353.913 53.5755 354.309 54.1172C354.705 54.6589 355.252 54.9297 355.95 54.9297C356.867 54.9297 357.536 54.5182 357.958 53.6953V49.8125C357.525 49.0156 356.861 48.6172 355.966 48.6172C355.257 48.6172 354.705 48.8906 354.309 49.4375C353.913 49.9844 353.716 50.7943 353.716 51.8672ZM370.841 56C370.757 55.8333 370.69 55.5365 370.637 55.1094C369.966 55.8073 369.163 56.1562 368.231 56.1562C367.398 56.1562 366.713 55.9219 366.177 55.4531C365.645 54.9792 365.38 54.3802 365.38 53.6562C365.38 52.776 365.713 52.0938 366.38 51.6094C367.052 51.1198 367.994 50.875 369.208 50.875H370.614V50.2109C370.614 49.7057 370.463 49.3047 370.161 49.0078C369.859 48.7057 369.413 48.5547 368.825 48.5547C368.309 48.5547 367.877 48.6849 367.528 48.9453C367.179 49.2057 367.005 49.5208 367.005 49.8906H365.552C365.552 49.4688 365.7 49.0625 365.997 48.6719C366.299 48.276 366.705 47.9635 367.216 47.7344C367.731 47.5052 368.296 47.3906 368.911 47.3906C369.885 47.3906 370.648 47.6354 371.2 48.125C371.752 48.6094 372.038 49.2786 372.059 50.1328V54.0234C372.059 54.7995 372.158 55.4167 372.356 55.875V56H370.841ZM368.442 54.8984C368.895 54.8984 369.325 54.7812 369.731 54.5469C370.137 54.3125 370.432 54.0078 370.614 53.6328V51.8984H369.481C367.71 51.8984 366.825 52.4167 366.825 53.4531C366.825 53.9062 366.976 54.2604 367.278 54.5156C367.58 54.7708 367.968 54.8984 368.442 54.8984ZM375.684 47.5469L375.723 48.4844C376.343 47.7552 377.179 47.3906 378.231 47.3906C379.413 47.3906 380.218 47.8438 380.645 48.75C380.927 48.3438 381.291 48.0156 381.739 47.7656C382.192 47.5156 382.726 47.3906 383.341 47.3906C385.195 47.3906 386.137 48.3724 386.169 50.3359V56H384.723V50.4219C384.723 49.8177 384.585 49.3672 384.309 49.0703C384.033 48.7682 383.57 48.6172 382.919 48.6172C382.382 48.6172 381.937 48.7786 381.583 49.1016C381.229 49.4193 381.023 49.849 380.966 50.3906V56H379.512V50.4609C379.512 49.2318 378.911 48.6172 377.708 48.6172C376.76 48.6172 376.111 49.0208 375.762 49.8281V56H374.317V47.5469H375.684ZM387.973 51.6953C387.973 50.8672 388.135 50.1224 388.458 49.4609C388.786 48.7995 389.239 48.2891 389.817 47.9297C390.4 47.5703 391.065 47.3906 391.809 47.3906C392.96 47.3906 393.89 47.7891 394.598 48.5859C395.312 49.3828 395.669 50.4427 395.669 51.7656V51.8672C395.669 52.6901 395.51 53.4297 395.192 54.0859C394.88 54.737 394.429 55.2448 393.841 55.6094C393.257 55.974 392.585 56.1562 391.825 56.1562C390.679 56.1562 389.749 55.7578 389.036 54.9609C388.328 54.1641 387.973 53.1094 387.973 51.7969V51.6953ZM389.427 51.8672C389.427 52.8047 389.643 53.5573 390.075 54.125C390.512 54.6927 391.096 54.9766 391.825 54.9766C392.559 54.9766 393.143 54.6901 393.575 54.1172C394.007 53.5391 394.223 52.7318 394.223 51.6953C394.223 50.7682 394.002 50.0182 393.559 49.4453C393.122 48.8672 392.538 48.5781 391.809 48.5781C391.096 48.5781 390.52 48.862 390.083 49.4297C389.645 49.9974 389.427 50.8099 389.427 51.8672ZM402.7 55.1641C402.137 55.8255 401.312 56.1562 400.223 56.1562C399.322 56.1562 398.635 55.8958 398.161 55.375C397.692 54.849 397.455 54.0729 397.45 53.0469V47.5469H398.895V53.0078C398.895 54.2891 399.416 54.9297 400.458 54.9297C401.562 54.9297 402.296 54.5182 402.661 53.6953V47.5469H404.106V56H402.731L402.7 55.1641ZM407.677 47.5469L407.723 48.6094C408.369 47.7969 409.213 47.3906 410.255 47.3906C412.041 47.3906 412.942 48.3984 412.958 50.4141V56H411.512V50.4062C411.507 49.7969 411.367 49.3464 411.091 49.0547C410.82 48.763 410.395 48.6172 409.817 48.6172C409.348 48.6172 408.937 48.7422 408.583 48.9922C408.229 49.2422 407.953 49.5703 407.755 49.9766V56H406.309V47.5469H407.677ZM417.098 45.5V47.5469H418.677V48.6641H417.098V53.9062C417.098 54.2448 417.169 54.5 417.309 54.6719C417.45 54.8385 417.69 54.9219 418.028 54.9219C418.195 54.9219 418.424 54.8906 418.716 54.8281V56C418.335 56.1042 417.966 56.1562 417.606 56.1562C416.96 56.1562 416.473 55.9609 416.145 55.5703C415.817 55.1797 415.653 54.625 415.653 53.9062V48.6641H414.114V47.5469H415.653V45.5H417.098ZM420.403 55.2422C420.403 54.9922 420.476 54.7839 420.622 54.6172C420.773 54.4505 420.997 54.3672 421.294 54.3672C421.591 54.3672 421.815 54.4505 421.966 54.6172C422.122 54.7839 422.2 54.9922 422.2 55.2422C422.2 55.4818 422.122 55.6823 421.966 55.8438C421.815 56.0052 421.591 56.0859 421.294 56.0859C420.997 56.0859 420.773 56.0052 420.622 55.8438C420.476 55.6823 420.403 55.4818 420.403 55.2422Z" fill="#6654A4"/>
<path d="M46.2863 64H49.2303V40.864H43.2143V43.52H46.2863V64Z" fill="#6654A4"/>
<defs>
<filter id="filter0_d" x="0" y="0" width="594.56" height="113" filterUnits="userSpaceOnUse" color-interpolation-filters="sRGB">
<feFlood flood-opacity="0" result="BackgroundImageFix"/>
<feColorMatrix in="SourceAlpha" type="matrix" values="0 0 0 0 0 0 0 0 0 0 0 0 0 0 0 0 0 0 127 0"/>
<feMorphology radius="4" operator="dilate" in="SourceAlpha" result="effect1_dropShadow"/>
<feOffset dy="3"/>
<feGaussianBlur stdDeviation="7.5"/>
<feColorMatrix type="matrix" values="0 0 0 0 0.872109 0 0 0 0 0.853125 0 0 0 0 0.9375 0 0 0 0.5 0"/>
<feBlend mode="normal" in2="BackgroundImageFix" result="effect1_dropShadow"/>
<feBlend mode="normal" in="SourceGraphic" in2="effect1_dropShadow" result="shape"/>
</filter>
</defs>
</svg>
