<svg width="563" height="75" viewBox="0 0 563 75" fill="none" xmlns="http://www.w3.org/2000/svg">
<path d="M68.4658 33.7422H63.5361V37.7734H69.2627V39H62.0361V27.625H69.1846V28.8594H63.5361V32.5156H68.4658V33.7422ZM72.2705 30.5469L72.3174 31.6094C72.9632 30.7969 73.807 30.3906 74.8486 30.3906C76.6351 30.3906 77.5361 31.3984 77.5518 33.4141V39H76.1064V33.4062C76.1012 32.7969 75.9606 32.3464 75.6846 32.0547C75.4137 31.763 74.9893 31.6172 74.4111 31.6172C73.9424 31.6172 73.5309 31.7422 73.1768 31.9922C72.8226 32.2422 72.5465 32.5703 72.3486 32.9766V39H70.9033V30.5469H72.2705ZM81.6924 28.5V30.5469H83.2705V31.6641H81.6924V36.9062C81.6924 37.2448 81.7627 37.5 81.9033 37.6719C82.0439 37.8385 82.2835 37.9219 82.6221 37.9219C82.7887 37.9219 83.0179 37.8906 83.3096 37.8281V39C82.9294 39.1042 82.5596 39.1562 82.2002 39.1562C81.5544 39.1562 81.0674 38.9609 80.7393 38.5703C80.4111 38.1797 80.2471 37.625 80.2471 36.9062V31.6641H78.708V30.5469H80.2471V28.5H81.6924ZM88.4736 39.1562C87.3278 39.1562 86.3955 38.7812 85.6768 38.0312C84.958 37.276 84.5986 36.2682 84.5986 35.0078V34.7422C84.5986 33.9036 84.7575 33.1562 85.0752 32.5C85.3981 31.8385 85.846 31.3229 86.4189 30.9531C86.9971 30.5781 87.6221 30.3906 88.2939 30.3906C89.3929 30.3906 90.2471 30.7526 90.8564 31.4766C91.4658 32.2005 91.7705 33.237 91.7705 34.5859V35.1875H86.0439C86.0648 36.0208 86.307 36.6953 86.7705 37.2109C87.2393 37.7214 87.833 37.9766 88.5518 37.9766C89.0622 37.9766 89.4945 37.8724 89.8486 37.6641C90.2028 37.4557 90.5127 37.1797 90.7783 36.8359L91.6611 37.5234C90.9528 38.612 89.8903 39.1562 88.4736 39.1562ZM88.2939 31.5781C87.7106 31.5781 87.221 31.7917 86.8252 32.2188C86.4294 32.6406 86.1846 33.2344 86.0908 34H90.3252V33.8906C90.2835 33.1562 90.0856 32.5885 89.7314 32.1875C89.3773 31.7812 88.8981 31.5781 88.2939 31.5781ZM97.5361 31.8438C97.3174 31.8073 97.0804 31.7891 96.8252 31.7891C95.8773 31.7891 95.234 32.1927 94.8955 33V39H93.4502V30.5469H94.8564L94.8799 31.5234C95.3538 30.7682 96.0257 30.3906 96.8955 30.3906C97.1768 30.3906 97.3903 30.4271 97.5361 30.5V31.8438ZM104.802 28.5V30.5469H106.38V31.6641H104.802V36.9062C104.802 37.2448 104.872 37.5 105.013 37.6719C105.153 37.8385 105.393 37.9219 105.731 37.9219C105.898 37.9219 106.127 37.8906 106.419 37.8281V39C106.039 39.1042 105.669 39.1562 105.31 39.1562C104.664 39.1562 104.177 38.9609 103.849 38.5703C103.521 38.1797 103.356 37.625 103.356 36.9062V31.6641H101.817V30.5469H103.356V28.5H104.802ZM109.521 31.5703C110.161 30.7839 110.994 30.3906 112.021 30.3906C113.807 30.3906 114.708 31.3984 114.724 33.4141V39H113.278V33.4062C113.273 32.7969 113.132 32.3464 112.856 32.0547C112.586 31.763 112.161 31.6172 111.583 31.6172C111.114 31.6172 110.703 31.7422 110.349 31.9922C109.994 32.2422 109.718 32.5703 109.521 32.9766V39H108.075V27H109.521V31.5703ZM120.396 39.1562C119.25 39.1562 118.317 38.7812 117.599 38.0312C116.88 37.276 116.521 36.2682 116.521 35.0078V34.7422C116.521 33.9036 116.679 33.1562 116.997 32.5C117.32 31.8385 117.768 31.3229 118.341 30.9531C118.919 30.5781 119.544 30.3906 120.216 30.3906C121.315 30.3906 122.169 30.7526 122.778 31.4766C123.388 32.2005 123.692 33.237 123.692 34.5859V35.1875H117.966C117.987 36.0208 118.229 36.6953 118.692 37.2109C119.161 37.7214 119.755 37.9766 120.474 37.9766C120.984 37.9766 121.416 37.8724 121.771 37.6641C122.125 37.4557 122.435 37.1797 122.7 36.8359L123.583 37.5234C122.875 38.612 121.812 39.1562 120.396 39.1562ZM120.216 31.5781C119.632 31.5781 119.143 31.7917 118.747 32.2188C118.351 32.6406 118.106 33.2344 118.013 34H122.247V33.8906C122.205 33.1562 122.007 32.5885 121.653 32.1875C121.299 31.7812 120.82 31.5781 120.216 31.5781ZM133.427 31.8438C133.208 31.8073 132.971 31.7891 132.716 31.7891C131.768 31.7891 131.125 32.1927 130.786 33V39H129.341V30.5469H130.747L130.771 31.5234C131.244 30.7682 131.916 30.3906 132.786 30.3906C133.067 30.3906 133.281 30.4271 133.427 30.5V31.8438ZM138.114 39.1562C136.968 39.1562 136.036 38.7812 135.317 38.0312C134.599 37.276 134.239 36.2682 134.239 35.0078V34.7422C134.239 33.9036 134.398 33.1562 134.716 32.5C135.039 31.8385 135.487 31.3229 136.06 30.9531C136.638 30.5781 137.263 30.3906 137.935 30.3906C139.034 30.3906 139.888 30.7526 140.497 31.4766C141.106 32.2005 141.411 33.237 141.411 34.5859V35.1875H135.685C135.705 36.0208 135.948 36.6953 136.411 37.2109C136.88 37.7214 137.474 37.9766 138.192 37.9766C138.703 37.9766 139.135 37.8724 139.489 37.6641C139.843 37.4557 140.153 37.1797 140.419 36.8359L141.302 37.5234C140.593 38.612 139.531 39.1562 138.114 39.1562ZM137.935 31.5781C137.351 31.5781 136.862 31.7917 136.466 32.2188C136.07 32.6406 135.825 33.2344 135.731 34H139.966V33.8906C139.924 33.1562 139.726 32.5885 139.372 32.1875C139.018 31.7812 138.539 31.5781 137.935 31.5781ZM146.481 37.9766C146.997 37.9766 147.448 37.8203 147.833 37.5078C148.218 37.1953 148.432 36.8047 148.474 36.3359H149.841C149.815 36.8203 149.648 37.2812 149.341 37.7188C149.034 38.1562 148.622 38.5052 148.106 38.7656C147.596 39.026 147.054 39.1562 146.481 39.1562C145.33 39.1562 144.414 38.7734 143.731 38.0078C143.054 37.237 142.716 36.1849 142.716 34.8516V34.6094C142.716 33.7865 142.867 33.0547 143.169 32.4141C143.471 31.7734 143.903 31.276 144.466 30.9219C145.034 30.5677 145.703 30.3906 146.474 30.3906C147.422 30.3906 148.208 30.6745 148.833 31.2422C149.463 31.8099 149.799 32.5469 149.841 33.4531H148.474C148.432 32.9062 148.224 32.4583 147.849 32.1094C147.479 31.7552 147.021 31.5781 146.474 31.5781C145.739 31.5781 145.169 31.8438 144.763 32.375C144.362 32.901 144.161 33.6641 144.161 34.6641V34.9375C144.161 35.9115 144.362 36.6615 144.763 37.1875C145.164 37.7135 145.737 37.9766 146.481 37.9766ZM153.036 39H151.591V30.5469H153.036V39ZM151.474 28.3047C151.474 28.0703 151.544 27.8724 151.685 27.7109C151.83 27.5495 152.044 27.4688 152.325 27.4688C152.606 27.4688 152.82 27.5495 152.966 27.7109C153.112 27.8724 153.185 28.0703 153.185 28.3047C153.185 28.5391 153.112 28.7344 152.966 28.8906C152.82 29.0469 152.606 29.125 152.325 29.125C152.044 29.125 151.83 29.0469 151.685 28.8906C151.544 28.7344 151.474 28.5391 151.474 28.3047ZM162.497 34.8672C162.497 36.1536 162.203 37.1901 161.614 37.9766C161.026 38.763 160.229 39.1562 159.224 39.1562C158.198 39.1562 157.39 38.8307 156.802 38.1797V42.25H155.356V30.5469H156.677L156.747 31.4844C157.336 30.7552 158.153 30.3906 159.2 30.3906C160.216 30.3906 161.018 30.7734 161.606 31.5391C162.2 32.3047 162.497 33.3698 162.497 34.7344V34.8672ZM161.052 34.7031C161.052 33.75 160.849 32.9974 160.442 32.4453C160.036 31.8932 159.479 31.6172 158.771 31.6172C157.896 31.6172 157.239 32.0052 156.802 32.7812V36.8203C157.234 37.5911 157.896 37.9766 158.786 37.9766C159.479 37.9766 160.028 37.7031 160.435 37.1562C160.846 36.6042 161.052 35.7865 161.052 34.7031ZM165.911 39H164.466V30.5469H165.911V39ZM164.349 28.3047C164.349 28.0703 164.419 27.8724 164.56 27.7109C164.705 27.5495 164.919 27.4688 165.2 27.4688C165.481 27.4688 165.695 27.5495 165.841 27.7109C165.987 27.8724 166.06 28.0703 166.06 28.3047C166.06 28.5391 165.987 28.7344 165.841 28.8906C165.695 29.0469 165.481 29.125 165.2 29.125C164.919 29.125 164.705 29.0469 164.56 28.8906C164.419 28.7344 164.349 28.5391 164.349 28.3047ZM171.739 39.1562C170.593 39.1562 169.661 38.7812 168.942 38.0312C168.224 37.276 167.864 36.2682 167.864 35.0078V34.7422C167.864 33.9036 168.023 33.1562 168.341 32.5C168.664 31.8385 169.112 31.3229 169.685 30.9531C170.263 30.5781 170.888 30.3906 171.56 30.3906C172.659 30.3906 173.513 30.7526 174.122 31.4766C174.731 32.2005 175.036 33.237 175.036 34.5859V35.1875H169.31C169.33 36.0208 169.573 36.6953 170.036 37.2109C170.505 37.7214 171.099 37.9766 171.817 37.9766C172.328 37.9766 172.76 37.8724 173.114 37.6641C173.468 37.4557 173.778 37.1797 174.044 36.8359L174.927 37.5234C174.218 38.612 173.156 39.1562 171.739 39.1562ZM171.56 31.5781C170.976 31.5781 170.487 31.7917 170.091 32.2188C169.695 32.6406 169.45 33.2344 169.356 34H173.591V33.8906C173.549 33.1562 173.351 32.5885 172.997 32.1875C172.643 31.7812 172.164 31.5781 171.56 31.5781ZM178.083 30.5469L178.13 31.6094C178.776 30.7969 179.619 30.3906 180.661 30.3906C182.448 30.3906 183.349 31.3984 183.364 33.4141V39H181.919V33.4062C181.914 32.7969 181.773 32.3464 181.497 32.0547C181.226 31.763 180.802 31.6172 180.224 31.6172C179.755 31.6172 179.343 31.7422 178.989 31.9922C178.635 32.2422 178.359 32.5703 178.161 32.9766V39H176.716V30.5469H178.083ZM187.505 28.5V30.5469H189.083V31.6641H187.505V36.9062C187.505 37.2448 187.575 37.5 187.716 37.6719C187.856 37.8385 188.096 37.9219 188.435 37.9219C188.601 37.9219 188.83 37.8906 189.122 37.8281V39C188.742 39.1042 188.372 39.1562 188.013 39.1562C187.367 39.1562 186.88 38.9609 186.552 38.5703C186.224 38.1797 186.06 37.625 186.06 36.9062V31.6641H184.521V30.5469H186.06V28.5H187.505ZM191.661 27.8672L191.497 30.7422H190.489L190.497 27H191.661V27.8672ZM197.872 36.7578C197.872 36.3672 197.724 36.0651 197.427 35.8516C197.135 35.6328 196.622 35.4453 195.888 35.2891C195.159 35.1328 194.578 34.9453 194.146 34.7266C193.718 34.5078 193.401 34.2474 193.192 33.9453C192.989 33.6432 192.888 33.2839 192.888 32.8672C192.888 32.1745 193.179 31.5885 193.763 31.1094C194.351 30.6302 195.101 30.3906 196.013 30.3906C196.971 30.3906 197.747 30.638 198.341 31.1328C198.94 31.6276 199.239 32.2604 199.239 33.0312H197.786C197.786 32.6354 197.617 32.2943 197.278 32.0078C196.945 31.7214 196.523 31.5781 196.013 31.5781C195.487 31.5781 195.075 31.6927 194.778 31.9219C194.481 32.151 194.333 32.4505 194.333 32.8203C194.333 33.1693 194.471 33.4323 194.747 33.6094C195.023 33.7865 195.521 33.9557 196.239 34.1172C196.963 34.2786 197.549 34.4714 197.997 34.6953C198.445 34.9193 198.776 35.1901 198.989 35.5078C199.208 35.8203 199.317 36.2031 199.317 36.6562C199.317 37.4115 199.015 38.0182 198.411 38.4766C197.807 38.9297 197.023 39.1562 196.06 39.1562C195.382 39.1562 194.784 39.0365 194.263 38.7969C193.742 38.5573 193.333 38.224 193.036 37.7969C192.744 37.3646 192.599 36.8984 192.599 36.3984H194.044C194.07 36.8828 194.263 37.2682 194.622 37.5547C194.987 37.8359 195.466 37.9766 196.06 37.9766C196.606 37.9766 197.044 37.8672 197.372 37.6484C197.705 37.4245 197.872 37.1276 197.872 36.7578ZM206.528 30.5469L206.567 31.4844C207.187 30.7552 208.023 30.3906 209.075 30.3906C210.257 30.3906 211.062 30.8438 211.489 31.75C211.771 31.3438 212.135 31.0156 212.583 30.7656C213.036 30.5156 213.57 30.3906 214.185 30.3906C216.039 30.3906 216.981 31.3724 217.013 33.3359V39H215.567V33.4219C215.567 32.8177 215.429 32.3672 215.153 32.0703C214.877 31.7682 214.414 31.6172 213.763 31.6172C213.226 31.6172 212.781 31.7786 212.427 32.1016C212.073 32.4193 211.867 32.849 211.81 33.3906V39H210.356V33.4609C210.356 32.2318 209.755 31.6172 208.552 31.6172C207.604 31.6172 206.955 32.0208 206.606 32.8281V39H205.161V30.5469H206.528ZM218.817 34.6953C218.817 33.8672 218.979 33.1224 219.302 32.4609C219.63 31.7995 220.083 31.2891 220.661 30.9297C221.244 30.5703 221.909 30.3906 222.653 30.3906C223.804 30.3906 224.734 30.7891 225.442 31.5859C226.156 32.3828 226.513 33.4427 226.513 34.7656V34.8672C226.513 35.6901 226.354 36.4297 226.036 37.0859C225.724 37.737 225.273 38.2448 224.685 38.6094C224.101 38.974 223.429 39.1562 222.669 39.1562C221.523 39.1562 220.593 38.7578 219.88 37.9609C219.172 37.1641 218.817 36.1094 218.817 34.7969V34.6953ZM220.271 34.8672C220.271 35.8047 220.487 36.5573 220.919 37.125C221.356 37.6927 221.94 37.9766 222.669 37.9766C223.403 37.9766 223.987 37.6901 224.419 37.1172C224.851 36.5391 225.067 35.7318 225.067 34.6953C225.067 33.7682 224.846 33.0182 224.403 32.4453C223.966 31.8672 223.382 31.5781 222.653 31.5781C221.94 31.5781 221.364 31.862 220.927 32.4297C220.489 32.9974 220.271 33.8099 220.271 34.8672ZM235.481 34.8672C235.481 36.1589 235.185 37.1979 234.591 37.9844C233.997 38.7656 233.2 39.1562 232.2 39.1562C231.132 39.1562 230.307 38.7786 229.724 38.0234L229.653 39H228.325V27H229.771V31.4766C230.354 30.7526 231.159 30.3906 232.185 30.3906C233.211 30.3906 234.015 30.7786 234.599 31.5547C235.187 32.3307 235.481 33.3932 235.481 34.7422V34.8672ZM234.036 34.7031C234.036 33.7188 233.846 32.9583 233.466 32.4219C233.086 31.8854 232.539 31.6172 231.825 31.6172C230.872 31.6172 230.187 32.0599 229.771 32.9453V36.6016C230.213 37.487 230.903 37.9297 231.841 37.9297C232.534 37.9297 233.073 37.6615 233.458 37.125C233.843 36.5885 234.036 35.7812 234.036 34.7031ZM238.88 39H237.435V30.5469H238.88V39ZM237.317 28.3047C237.317 28.0703 237.388 27.8724 237.528 27.7109C237.674 27.5495 237.888 27.4688 238.169 27.4688C238.45 27.4688 238.664 27.5495 238.81 27.7109C238.955 27.8724 239.028 28.0703 239.028 28.3047C239.028 28.5391 238.955 28.7344 238.81 28.8906C238.664 29.0469 238.45 29.125 238.169 29.125C237.888 29.125 237.674 29.0469 237.528 28.8906C237.388 28.7344 237.317 28.5391 237.317 28.3047ZM242.771 39H241.325V27H242.771V39ZM248.599 39.1562C247.453 39.1562 246.521 38.7812 245.802 38.0312C245.083 37.276 244.724 36.2682 244.724 35.0078V34.7422C244.724 33.9036 244.882 33.1562 245.2 32.5C245.523 31.8385 245.971 31.3229 246.544 30.9531C247.122 30.5781 247.747 30.3906 248.419 30.3906C249.518 30.3906 250.372 30.7526 250.981 31.4766C251.591 32.2005 251.896 33.237 251.896 34.5859V35.1875H246.169C246.19 36.0208 246.432 36.6953 246.896 37.2109C247.364 37.7214 247.958 37.9766 248.677 37.9766C249.187 37.9766 249.619 37.8724 249.974 37.6641C250.328 37.4557 250.638 37.1797 250.903 36.8359L251.786 37.5234C251.078 38.612 250.015 39.1562 248.599 39.1562ZM248.419 31.5781C247.836 31.5781 247.346 31.7917 246.95 32.2188C246.554 32.6406 246.31 33.2344 246.216 34H250.45V33.8906C250.409 33.1562 250.211 32.5885 249.856 32.1875C249.502 31.7812 249.023 31.5781 248.419 31.5781ZM258.911 30.5469L258.958 31.6094C259.604 30.7969 260.448 30.3906 261.489 30.3906C263.276 30.3906 264.177 31.3984 264.192 33.4141V39H262.747V33.4062C262.742 32.7969 262.601 32.3464 262.325 32.0547C262.054 31.763 261.63 31.6172 261.052 31.6172C260.583 31.6172 260.172 31.7422 259.817 31.9922C259.463 32.2422 259.187 32.5703 258.989 32.9766V39H257.544V30.5469H258.911ZM271.591 38.1641C271.028 38.8255 270.203 39.1562 269.114 39.1562C268.213 39.1562 267.526 38.8958 267.052 38.375C266.583 37.849 266.346 37.0729 266.341 36.0469V30.5469H267.786V36.0078C267.786 37.2891 268.307 37.9297 269.349 37.9297C270.453 37.9297 271.187 37.5182 271.552 36.6953V30.5469H272.997V39H271.622L271.591 38.1641ZM276.56 30.5469L276.599 31.4844C277.218 30.7552 278.054 30.3906 279.106 30.3906C280.289 30.3906 281.093 30.8438 281.521 31.75C281.802 31.3438 282.166 31.0156 282.614 30.7656C283.067 30.5156 283.601 30.3906 284.216 30.3906C286.07 30.3906 287.013 31.3724 287.044 33.3359V39H285.599V33.4219C285.599 32.8177 285.461 32.3672 285.185 32.0703C284.909 31.7682 284.445 31.6172 283.794 31.6172C283.257 31.6172 282.812 31.7786 282.458 32.1016C282.104 32.4193 281.898 32.849 281.841 33.3906V39H280.388V33.4609C280.388 32.2318 279.786 31.6172 278.583 31.6172C277.635 31.6172 276.987 32.0208 276.638 32.8281V39H275.192V30.5469H276.56ZM296.388 34.8672C296.388 36.1589 296.091 37.1979 295.497 37.9844C294.903 38.7656 294.106 39.1562 293.106 39.1562C292.039 39.1562 291.213 38.7786 290.63 38.0234L290.56 39H289.231V27H290.677V31.4766C291.26 30.7526 292.065 30.3906 293.091 30.3906C294.117 30.3906 294.922 30.7786 295.505 31.5547C296.093 32.3307 296.388 33.3932 296.388 34.7422V34.8672ZM294.942 34.7031C294.942 33.7188 294.752 32.9583 294.372 32.4219C293.992 31.8854 293.445 31.6172 292.731 31.6172C291.778 31.6172 291.093 32.0599 290.677 32.9453V36.6016C291.119 37.487 291.81 37.9297 292.747 37.9297C293.44 37.9297 293.979 37.6615 294.364 37.125C294.75 36.5885 294.942 35.7812 294.942 34.7031ZM301.724 39.1562C300.578 39.1562 299.646 38.7812 298.927 38.0312C298.208 37.276 297.849 36.2682 297.849 35.0078V34.7422C297.849 33.9036 298.007 33.1562 298.325 32.5C298.648 31.8385 299.096 31.3229 299.669 30.9531C300.247 30.5781 300.872 30.3906 301.544 30.3906C302.643 30.3906 303.497 30.7526 304.106 31.4766C304.716 32.2005 305.021 33.237 305.021 34.5859V35.1875H299.294C299.315 36.0208 299.557 36.6953 300.021 37.2109C300.489 37.7214 301.083 37.9766 301.802 37.9766C302.312 37.9766 302.744 37.8724 303.099 37.6641C303.453 37.4557 303.763 37.1797 304.028 36.8359L304.911 37.5234C304.203 38.612 303.14 39.1562 301.724 39.1562ZM301.544 31.5781C300.961 31.5781 300.471 31.7917 300.075 32.2188C299.679 32.6406 299.435 33.2344 299.341 34H303.575V33.8906C303.534 33.1562 303.336 32.5885 302.981 32.1875C302.627 31.7812 302.148 31.5781 301.544 31.5781ZM310.786 31.8438C310.567 31.8073 310.33 31.7891 310.075 31.7891C309.127 31.7891 308.484 32.1927 308.146 33V39H306.7V30.5469H308.106L308.13 31.5234C308.604 30.7682 309.276 30.3906 310.146 30.3906C310.427 30.3906 310.64 30.4271 310.786 30.5V31.8438ZM321.31 39C321.226 38.8333 321.159 38.5365 321.106 38.1094C320.435 38.8073 319.632 39.1562 318.7 39.1562C317.867 39.1562 317.182 38.9219 316.646 38.4531C316.114 37.9792 315.849 37.3802 315.849 36.6562C315.849 35.776 316.182 35.0938 316.849 34.6094C317.521 34.1198 318.463 33.875 319.677 33.875H321.083V33.2109C321.083 32.7057 320.932 32.3047 320.63 32.0078C320.328 31.7057 319.882 31.5547 319.294 31.5547C318.778 31.5547 318.346 31.6849 317.997 31.9453C317.648 32.2057 317.474 32.5208 317.474 32.8906H316.021C316.021 32.4688 316.169 32.0625 316.466 31.6719C316.768 31.276 317.174 30.9635 317.685 30.7344C318.2 30.5052 318.765 30.3906 319.38 30.3906C320.354 30.3906 321.117 30.6354 321.669 31.125C322.221 31.6094 322.507 32.2786 322.528 33.1328V37.0234C322.528 37.7995 322.627 38.4167 322.825 38.875V39H321.31ZM318.911 37.8984C319.364 37.8984 319.794 37.7812 320.2 37.5469C320.606 37.3125 320.901 37.0078 321.083 36.6328V34.8984H319.95C318.179 34.8984 317.294 35.4167 317.294 36.4531C317.294 36.9062 317.445 37.2604 317.747 37.5156C318.049 37.7708 318.437 37.8984 318.911 37.8984ZM326.161 30.5469L326.208 31.6094C326.854 30.7969 327.698 30.3906 328.739 30.3906C330.526 30.3906 331.427 31.3984 331.442 33.4141V39H329.997V33.4062C329.992 32.7969 329.851 32.3464 329.575 32.0547C329.304 31.763 328.88 31.6172 328.302 31.6172C327.833 31.6172 327.422 31.7422 327.067 31.9922C326.713 32.2422 326.437 32.5703 326.239 32.9766V39H324.794V30.5469H326.161ZM333.271 34.7031C333.271 33.4062 333.578 32.3646 334.192 31.5781C334.807 30.7865 335.612 30.3906 336.606 30.3906C337.596 30.3906 338.38 30.7292 338.958 31.4062V27H340.403V39H339.075L339.005 38.0938C338.427 38.8021 337.622 39.1562 336.591 39.1562C335.612 39.1562 334.812 38.7552 334.192 37.9531C333.578 37.151 333.271 36.1042 333.271 34.8125V34.7031ZM334.716 34.8672C334.716 35.8255 334.914 36.5755 335.31 37.1172C335.705 37.6589 336.252 37.9297 336.95 37.9297C337.867 37.9297 338.536 37.5182 338.958 36.6953V32.8125C338.526 32.0156 337.862 31.6172 336.966 31.6172C336.257 31.6172 335.705 31.8906 335.31 32.4375C334.914 32.9844 334.716 33.7943 334.716 34.8672ZM351.841 39C351.757 38.8333 351.69 38.5365 351.638 38.1094C350.966 38.8073 350.164 39.1562 349.231 39.1562C348.398 39.1562 347.713 38.9219 347.177 38.4531C346.646 37.9792 346.38 37.3802 346.38 36.6562C346.38 35.776 346.713 35.0938 347.38 34.6094C348.052 34.1198 348.994 33.875 350.208 33.875H351.614V33.2109C351.614 32.7057 351.463 32.3047 351.161 32.0078C350.859 31.7057 350.414 31.5547 349.825 31.5547C349.31 31.5547 348.877 31.6849 348.528 31.9453C348.179 32.2057 348.005 32.5208 348.005 32.8906H346.552C346.552 32.4688 346.7 32.0625 346.997 31.6719C347.299 31.276 347.705 30.9635 348.216 30.7344C348.731 30.5052 349.297 30.3906 349.911 30.3906C350.885 30.3906 351.648 30.6354 352.2 31.125C352.752 31.6094 353.039 32.2786 353.06 33.1328V37.0234C353.06 37.7995 353.159 38.4167 353.356 38.875V39H351.841ZM349.442 37.8984C349.896 37.8984 350.325 37.7812 350.731 37.5469C351.138 37.3125 351.432 37.0078 351.614 36.6328V34.8984H350.481C348.711 34.8984 347.825 35.4167 347.825 36.4531C347.825 36.9062 347.976 37.2604 348.278 37.5156C348.58 37.7708 348.968 37.8984 349.442 37.8984ZM356.685 30.5469L356.724 31.4844C357.343 30.7552 358.179 30.3906 359.231 30.3906C360.414 30.3906 361.218 30.8438 361.646 31.75C361.927 31.3438 362.291 31.0156 362.739 30.7656C363.192 30.5156 363.726 30.3906 364.341 30.3906C366.195 30.3906 367.138 31.3724 367.169 33.3359V39H365.724V33.4219C365.724 32.8177 365.586 32.3672 365.31 32.0703C365.034 31.7682 364.57 31.6172 363.919 31.6172C363.382 31.6172 362.937 31.7786 362.583 32.1016C362.229 32.4193 362.023 32.849 361.966 33.3906V39H360.513V33.4609C360.513 32.2318 359.911 31.6172 358.708 31.6172C357.76 31.6172 357.112 32.0208 356.763 32.8281V39H355.317V30.5469H356.685ZM368.974 34.6953C368.974 33.8672 369.135 33.1224 369.458 32.4609C369.786 31.7995 370.239 31.2891 370.817 30.9297C371.401 30.5703 372.065 30.3906 372.81 30.3906C373.961 30.3906 374.89 30.7891 375.599 31.5859C376.312 32.3828 376.669 33.4427 376.669 34.7656V34.8672C376.669 35.6901 376.51 36.4297 376.192 37.0859C375.88 37.737 375.429 38.2448 374.841 38.6094C374.257 38.974 373.586 39.1562 372.825 39.1562C371.679 39.1562 370.75 38.7578 370.036 37.9609C369.328 37.1641 368.974 36.1094 368.974 34.7969V34.6953ZM370.427 34.8672C370.427 35.8047 370.643 36.5573 371.075 37.125C371.513 37.6927 372.096 37.9766 372.825 37.9766C373.56 37.9766 374.143 37.6901 374.575 37.1172C375.007 36.5391 375.224 35.7318 375.224 34.6953C375.224 33.7682 375.002 33.0182 374.56 32.4453C374.122 31.8672 373.539 31.5781 372.81 31.5781C372.096 31.5781 371.521 31.862 371.083 32.4297C370.646 32.9974 370.427 33.8099 370.427 34.8672ZM383.7 38.1641C383.138 38.8255 382.312 39.1562 381.224 39.1562C380.323 39.1562 379.635 38.8958 379.161 38.375C378.692 37.849 378.455 37.0729 378.45 36.0469V30.5469H379.896V36.0078C379.896 37.2891 380.416 37.9297 381.458 37.9297C382.562 37.9297 383.297 37.5182 383.661 36.6953V30.5469H385.106V39H383.731L383.7 38.1641ZM388.677 30.5469L388.724 31.6094C389.369 30.7969 390.213 30.3906 391.255 30.3906C393.041 30.3906 393.942 31.3984 393.958 33.4141V39H392.513V33.4062C392.507 32.7969 392.367 32.3464 392.091 32.0547C391.82 31.763 391.396 31.6172 390.817 31.6172C390.349 31.6172 389.937 31.7422 389.583 31.9922C389.229 32.2422 388.953 32.5703 388.755 32.9766V39H387.31V30.5469H388.677ZM398.099 28.5V30.5469H399.677V31.6641H398.099V36.9062C398.099 37.2448 398.169 37.5 398.31 37.6719C398.45 37.8385 398.69 37.9219 399.028 37.9219C399.195 37.9219 399.424 37.8906 399.716 37.8281V39C399.336 39.1042 398.966 39.1562 398.606 39.1562C397.961 39.1562 397.474 38.9609 397.146 38.5703C396.817 38.1797 396.653 37.625 396.653 36.9062V31.6641H395.114V30.5469H396.653V28.5H398.099ZM401.403 38.2422C401.403 37.9922 401.476 37.7839 401.622 37.6172C401.773 37.4505 401.997 37.3672 402.294 37.3672C402.591 37.3672 402.815 37.4505 402.966 37.6172C403.122 37.7839 403.2 37.9922 403.2 38.2422C403.2 38.4818 403.122 38.6823 402.966 38.8438C402.815 39.0052 402.591 39.0859 402.294 39.0859C401.997 39.0859 401.773 39.0052 401.622 38.8438C401.476 38.6823 401.403 38.4818 401.403 38.2422Z" fill="#656668"/>
<path d="M27.2865 48H30.2305V24.864H24.2145V27.52H27.2865V48Z" fill="#656668"/>
</svg>
