<svg width="595" height="113" viewBox="0 0 595 113" fill="none" xmlns="http://www.w3.org/2000/svg">
<g filter="url(#filter0_d)">
<rect x="19" y="16" width="556.56" height="75" rx="24" fill="white"/>
</g>
<path d="M88.8955 48.8594H85.2393V59H83.7471V48.8594H80.0986V47.625H88.8955V48.8594ZM93.8486 51.8438C93.6299 51.8073 93.3929 51.7891 93.1377 51.7891C92.1898 51.7891 91.5465 52.1927 91.208 53V59H89.7627V50.5469H91.1689L91.1924 51.5234C91.6663 50.7682 92.3382 50.3906 93.208 50.3906C93.4893 50.3906 93.7028 50.4271 93.8486 50.5V51.8438ZM100.091 59C100.007 58.8333 99.9398 58.5365 99.8877 58.1094C99.2158 58.8073 98.4137 59.1562 97.4814 59.1562C96.6481 59.1562 95.9632 58.9219 95.4268 58.4531C94.8955 57.9792 94.6299 57.3802 94.6299 56.6562C94.6299 55.776 94.9632 55.0938 95.6299 54.6094C96.3018 54.1198 97.2445 53.875 98.458 53.875H99.8643V53.2109C99.8643 52.7057 99.7132 52.3047 99.4111 52.0078C99.109 51.7057 98.6637 51.5547 98.0752 51.5547C97.5596 51.5547 97.1273 51.6849 96.7783 51.9453C96.4294 52.2057 96.2549 52.5208 96.2549 52.8906H94.8018C94.8018 52.4688 94.9502 52.0625 95.2471 51.6719C95.5492 51.276 95.9554 50.9635 96.4658 50.7344C96.9814 50.5052 97.5465 50.3906 98.1611 50.3906C99.1351 50.3906 99.8981 50.6354 100.45 51.125C101.002 51.6094 101.289 52.2786 101.31 53.1328V57.0234C101.31 57.7995 101.409 58.4167 101.606 58.875V59H100.091ZM97.6924 57.8984C98.1455 57.8984 98.5752 57.7812 98.9814 57.5469C99.3877 57.3125 99.682 57.0078 99.8643 56.6328V54.8984H98.7314C96.9606 54.8984 96.0752 55.4167 96.0752 56.4531C96.0752 56.9062 96.2262 57.2604 96.5283 57.5156C96.8304 57.7708 97.2184 57.8984 97.6924 57.8984ZM104.942 50.5469L104.989 51.6094C105.635 50.7969 106.479 50.3906 107.521 50.3906C109.307 50.3906 110.208 51.3984 110.224 53.4141V59H108.778V53.4062C108.773 52.7969 108.632 52.3464 108.356 52.0547C108.086 51.763 107.661 51.6172 107.083 51.6172C106.614 51.6172 106.203 51.7422 105.849 51.9922C105.494 52.2422 105.218 52.5703 105.021 52.9766V59H103.575V50.5469H104.942ZM117.325 56.7578C117.325 56.3672 117.177 56.0651 116.88 55.8516C116.588 55.6328 116.075 55.4453 115.341 55.2891C114.612 55.1328 114.031 54.9453 113.599 54.7266C113.172 54.5078 112.854 54.2474 112.646 53.9453C112.442 53.6432 112.341 53.2839 112.341 52.8672C112.341 52.1745 112.632 51.5885 113.216 51.1094C113.804 50.6302 114.554 50.3906 115.466 50.3906C116.424 50.3906 117.2 50.638 117.794 51.1328C118.393 51.6276 118.692 52.2604 118.692 53.0312H117.239C117.239 52.6354 117.07 52.2943 116.731 52.0078C116.398 51.7214 115.976 51.5781 115.466 51.5781C114.94 51.5781 114.528 51.6927 114.231 51.9219C113.935 52.151 113.786 52.4505 113.786 52.8203C113.786 53.1693 113.924 53.4323 114.2 53.6094C114.476 53.7865 114.974 53.9557 115.692 54.1172C116.416 54.2786 117.002 54.4714 117.45 54.6953C117.898 54.9193 118.229 55.1901 118.442 55.5078C118.661 55.8203 118.771 56.2031 118.771 56.6562C118.771 57.4115 118.468 58.0182 117.864 58.4766C117.26 58.9297 116.476 59.1562 115.513 59.1562C114.836 59.1562 114.237 59.0365 113.716 58.7969C113.195 58.5573 112.786 58.224 112.489 57.7969C112.198 57.3646 112.052 56.8984 112.052 56.3984H113.497C113.523 56.8828 113.716 57.2682 114.075 57.5547C114.44 57.8359 114.919 57.9766 115.513 57.9766C116.06 57.9766 116.497 57.8672 116.825 57.6484C117.159 57.4245 117.325 57.1276 117.325 56.7578ZM121.364 59V51.6641H120.028V50.5469H121.364V49.6797C121.364 48.7734 121.606 48.0729 122.091 47.5781C122.575 47.0833 123.26 46.8359 124.146 46.8359C124.479 46.8359 124.81 46.8802 125.138 46.9688L125.06 48.1406C124.815 48.0938 124.554 48.0703 124.278 48.0703C123.81 48.0703 123.448 48.2083 123.192 48.4844C122.937 48.7552 122.81 49.1458 122.81 49.6562V50.5469H124.614V51.6641H122.81V59H121.364ZM129.536 59.1562C128.39 59.1562 127.458 58.7812 126.739 58.0312C126.021 57.276 125.661 56.2682 125.661 55.0078V54.7422C125.661 53.9036 125.82 53.1562 126.138 52.5C126.461 51.8385 126.909 51.3229 127.481 50.9531C128.06 50.5781 128.685 50.3906 129.356 50.3906C130.455 50.3906 131.31 50.7526 131.919 51.4766C132.528 52.2005 132.833 53.237 132.833 54.5859V55.1875H127.106C127.127 56.0208 127.369 56.6953 127.833 57.2109C128.302 57.7214 128.896 57.9766 129.614 57.9766C130.125 57.9766 130.557 57.8724 130.911 57.6641C131.265 57.4557 131.575 57.1797 131.841 56.8359L132.724 57.5234C132.015 58.612 130.953 59.1562 129.536 59.1562ZM129.356 51.5781C128.773 51.5781 128.284 51.7917 127.888 52.2188C127.492 52.6406 127.247 53.2344 127.153 54H131.388V53.8906C131.346 53.1562 131.148 52.5885 130.794 52.1875C130.44 51.7812 129.961 51.5781 129.356 51.5781ZM138.599 51.8438C138.38 51.8073 138.143 51.7891 137.888 51.7891C136.94 51.7891 136.297 52.1927 135.958 53V59H134.513V50.5469H135.919L135.942 51.5234C136.416 50.7682 137.088 50.3906 137.958 50.3906C138.239 50.3906 138.453 50.4271 138.599 50.5V51.8438ZM147.294 57.9766C147.81 57.9766 148.26 57.8203 148.646 57.5078C149.031 57.1953 149.244 56.8047 149.286 56.3359H150.653C150.627 56.8203 150.461 57.2812 150.153 57.7188C149.846 58.1562 149.435 58.5052 148.919 58.7656C148.409 59.026 147.867 59.1562 147.294 59.1562C146.143 59.1562 145.226 58.7734 144.544 58.0078C143.867 57.237 143.528 56.1849 143.528 54.8516V54.6094C143.528 53.7865 143.679 53.0547 143.981 52.4141C144.284 51.7734 144.716 51.276 145.278 50.9219C145.846 50.5677 146.515 50.3906 147.286 50.3906C148.234 50.3906 149.021 50.6745 149.646 51.2422C150.276 51.8099 150.612 52.5469 150.653 53.4531H149.286C149.244 52.9062 149.036 52.4583 148.661 52.1094C148.291 51.7552 147.833 51.5781 147.286 51.5781C146.552 51.5781 145.981 51.8438 145.575 52.375C145.174 52.901 144.974 53.6641 144.974 54.6641V54.9375C144.974 55.9115 145.174 56.6615 145.575 57.1875C145.976 57.7135 146.549 57.9766 147.294 57.9766ZM151.896 54.6953C151.896 53.8672 152.057 53.1224 152.38 52.4609C152.708 51.7995 153.161 51.2891 153.739 50.9297C154.323 50.5703 154.987 50.3906 155.731 50.3906C156.882 50.3906 157.812 50.7891 158.521 51.5859C159.234 52.3828 159.591 53.4427 159.591 54.7656V54.8672C159.591 55.6901 159.432 56.4297 159.114 57.0859C158.802 57.737 158.351 58.2448 157.763 58.6094C157.179 58.974 156.507 59.1562 155.747 59.1562C154.601 59.1562 153.672 58.7578 152.958 57.9609C152.25 57.1641 151.896 56.1094 151.896 54.7969V54.6953ZM153.349 54.8672C153.349 55.8047 153.565 56.5573 153.997 57.125C154.435 57.6927 155.018 57.9766 155.747 57.9766C156.481 57.9766 157.065 57.6901 157.497 57.1172C157.929 56.5391 158.146 55.7318 158.146 54.6953C158.146 53.7682 157.924 53.0182 157.481 52.4453C157.044 51.8672 156.461 51.5781 155.731 51.5781C155.018 51.5781 154.442 51.862 154.005 52.4297C153.567 52.9974 153.349 53.8099 153.349 54.8672ZM162.763 50.5469L162.802 51.4844C163.422 50.7552 164.257 50.3906 165.31 50.3906C166.492 50.3906 167.297 50.8438 167.724 51.75C168.005 51.3438 168.369 51.0156 168.817 50.7656C169.271 50.5156 169.804 50.3906 170.419 50.3906C172.273 50.3906 173.216 51.3724 173.247 53.3359V59H171.802V53.4219C171.802 52.8177 171.664 52.3672 171.388 52.0703C171.112 51.7682 170.648 51.6172 169.997 51.6172C169.461 51.6172 169.015 51.7786 168.661 52.1016C168.307 52.4193 168.101 52.849 168.044 53.3906V59H166.591V53.4609C166.591 52.2318 165.989 51.6172 164.786 51.6172C163.838 51.6172 163.19 52.0208 162.841 52.8281V59H161.396V50.5469H162.763ZM182.575 54.8672C182.575 56.1536 182.281 57.1901 181.692 57.9766C181.104 58.763 180.307 59.1562 179.302 59.1562C178.276 59.1562 177.468 58.8307 176.88 58.1797V62.25H175.435V50.5469H176.755L176.825 51.4844C177.414 50.7552 178.231 50.3906 179.278 50.3906C180.294 50.3906 181.096 50.7734 181.685 51.5391C182.278 52.3047 182.575 53.3698 182.575 54.7344V54.8672ZM181.13 54.7031C181.13 53.75 180.927 52.9974 180.521 52.4453C180.114 51.8932 179.557 51.6172 178.849 51.6172C177.974 51.6172 177.317 52.0052 176.88 52.7812V56.8203C177.312 57.5911 177.974 57.9766 178.864 57.9766C179.557 57.9766 180.106 57.7031 180.513 57.1562C180.924 56.6042 181.13 55.7865 181.13 54.7031ZM185.989 59H184.544V47H185.989V59ZM191.817 59.1562C190.672 59.1562 189.739 58.7812 189.021 58.0312C188.302 57.276 187.942 56.2682 187.942 55.0078V54.7422C187.942 53.9036 188.101 53.1562 188.419 52.5C188.742 51.8385 189.19 51.3229 189.763 50.9531C190.341 50.5781 190.966 50.3906 191.638 50.3906C192.737 50.3906 193.591 50.7526 194.2 51.4766C194.81 52.2005 195.114 53.237 195.114 54.5859V55.1875H189.388C189.409 56.0208 189.651 56.6953 190.114 57.2109C190.583 57.7214 191.177 57.9766 191.896 57.9766C192.406 57.9766 192.838 57.8724 193.192 57.6641C193.547 57.4557 193.856 57.1797 194.122 56.8359L195.005 57.5234C194.297 58.612 193.234 59.1562 191.817 59.1562ZM191.638 51.5781C191.054 51.5781 190.565 51.7917 190.169 52.2188C189.773 52.6406 189.528 53.2344 189.435 54H193.669V53.8906C193.627 53.1562 193.429 52.5885 193.075 52.1875C192.721 51.7812 192.242 51.5781 191.638 51.5781ZM198.755 48.5V50.5469H200.333V51.6641H198.755V56.9062C198.755 57.2448 198.825 57.5 198.966 57.6719C199.106 57.8385 199.346 57.9219 199.685 57.9219C199.851 57.9219 200.08 57.8906 200.372 57.8281V59C199.992 59.1042 199.622 59.1562 199.263 59.1562C198.617 59.1562 198.13 58.9609 197.802 58.5703C197.474 58.1797 197.31 57.625 197.31 56.9062V51.6641H195.771V50.5469H197.31V48.5H198.755ZM205.536 59.1562C204.39 59.1562 203.458 58.7812 202.739 58.0312C202.021 57.276 201.661 56.2682 201.661 55.0078V54.7422C201.661 53.9036 201.82 53.1562 202.138 52.5C202.461 51.8385 202.909 51.3229 203.481 50.9531C204.06 50.5781 204.685 50.3906 205.356 50.3906C206.455 50.3906 207.31 50.7526 207.919 51.4766C208.528 52.2005 208.833 53.237 208.833 54.5859V55.1875H203.106C203.127 56.0208 203.369 56.6953 203.833 57.2109C204.302 57.7214 204.896 57.9766 205.614 57.9766C206.125 57.9766 206.557 57.8724 206.911 57.6641C207.265 57.4557 207.575 57.1797 207.841 56.8359L208.724 57.5234C208.015 58.612 206.953 59.1562 205.536 59.1562ZM205.356 51.5781C204.773 51.5781 204.284 51.7917 203.888 52.2188C203.492 52.6406 203.247 53.2344 203.153 54H207.388V53.8906C207.346 53.1562 207.148 52.5885 206.794 52.1875C206.44 51.7812 205.961 51.5781 205.356 51.5781ZM210.161 54.7031C210.161 53.4062 210.468 52.3646 211.083 51.5781C211.698 50.7865 212.502 50.3906 213.497 50.3906C214.487 50.3906 215.271 50.7292 215.849 51.4062V47H217.294V59H215.966L215.896 58.0938C215.317 58.8021 214.513 59.1562 213.481 59.1562C212.502 59.1562 211.703 58.7552 211.083 57.9531C210.468 57.151 210.161 56.1042 210.161 54.8125V54.7031ZM211.606 54.8672C211.606 55.8255 211.804 56.5755 212.2 57.1172C212.596 57.6589 213.143 57.9297 213.841 57.9297C214.757 57.9297 215.427 57.5182 215.849 56.6953V52.8125C215.416 52.0156 214.752 51.6172 213.856 51.6172C213.148 51.6172 212.596 51.8906 212.2 52.4375C211.804 52.9844 211.606 53.7943 211.606 54.8672ZM228.435 56.7578C228.435 56.3672 228.286 56.0651 227.989 55.8516C227.698 55.6328 227.185 55.4453 226.45 55.2891C225.721 55.1328 225.14 54.9453 224.708 54.7266C224.281 54.5078 223.963 54.2474 223.755 53.9453C223.552 53.6432 223.45 53.2839 223.45 52.8672C223.45 52.1745 223.742 51.5885 224.325 51.1094C224.914 50.6302 225.664 50.3906 226.575 50.3906C227.534 50.3906 228.31 50.638 228.903 51.1328C229.502 51.6276 229.802 52.2604 229.802 53.0312H228.349C228.349 52.6354 228.179 52.2943 227.841 52.0078C227.507 51.7214 227.086 51.5781 226.575 51.5781C226.049 51.5781 225.638 51.6927 225.341 51.9219C225.044 52.151 224.896 52.4505 224.896 52.8203C224.896 53.1693 225.034 53.4323 225.31 53.6094C225.586 53.7865 226.083 53.9557 226.802 54.1172C227.526 54.2786 228.112 54.4714 228.56 54.6953C229.007 54.9193 229.338 55.1901 229.552 55.5078C229.771 55.8203 229.88 56.2031 229.88 56.6562C229.88 57.4115 229.578 58.0182 228.974 58.4766C228.369 58.9297 227.586 59.1562 226.622 59.1562C225.945 59.1562 225.346 59.0365 224.825 58.7969C224.304 58.5573 223.896 58.224 223.599 57.7969C223.307 57.3646 223.161 56.8984 223.161 56.3984H224.606C224.632 56.8828 224.825 57.2682 225.185 57.5547C225.549 57.8359 226.028 57.9766 226.622 57.9766C227.169 57.9766 227.606 57.8672 227.935 57.6484C228.268 57.4245 228.435 57.1276 228.435 56.7578ZM236.981 58.1641C236.419 58.8255 235.593 59.1562 234.505 59.1562C233.604 59.1562 232.916 58.8958 232.442 58.375C231.974 57.849 231.737 57.0729 231.731 56.0469V50.5469H233.177V56.0078C233.177 57.2891 233.698 57.9297 234.739 57.9297C235.843 57.9297 236.578 57.5182 236.942 56.6953V50.5469H238.388V59H237.013L236.981 58.1641ZM243.981 57.9766C244.497 57.9766 244.948 57.8203 245.333 57.5078C245.718 57.1953 245.932 56.8047 245.974 56.3359H247.341C247.315 56.8203 247.148 57.2812 246.841 57.7188C246.534 58.1562 246.122 58.5052 245.606 58.7656C245.096 59.026 244.554 59.1562 243.981 59.1562C242.83 59.1562 241.914 58.7734 241.231 58.0078C240.554 57.237 240.216 56.1849 240.216 54.8516V54.6094C240.216 53.7865 240.367 53.0547 240.669 52.4141C240.971 51.7734 241.403 51.276 241.966 50.9219C242.534 50.5677 243.203 50.3906 243.974 50.3906C244.922 50.3906 245.708 50.6745 246.333 51.2422C246.963 51.8099 247.299 52.5469 247.341 53.4531H245.974C245.932 52.9062 245.724 52.4583 245.349 52.1094C244.979 51.7552 244.521 51.5781 243.974 51.5781C243.239 51.5781 242.669 51.8438 242.263 52.375C241.862 52.901 241.661 53.6641 241.661 54.6641V54.9375C241.661 55.9115 241.862 56.6615 242.263 57.1875C242.664 57.7135 243.237 57.9766 243.981 57.9766ZM252.356 57.9766C252.872 57.9766 253.323 57.8203 253.708 57.5078C254.093 57.1953 254.307 56.8047 254.349 56.3359H255.716C255.69 56.8203 255.523 57.2812 255.216 57.7188C254.909 58.1562 254.497 58.5052 253.981 58.7656C253.471 59.026 252.929 59.1562 252.356 59.1562C251.205 59.1562 250.289 58.7734 249.606 58.0078C248.929 57.237 248.591 56.1849 248.591 54.8516V54.6094C248.591 53.7865 248.742 53.0547 249.044 52.4141C249.346 51.7734 249.778 51.276 250.341 50.9219C250.909 50.5677 251.578 50.3906 252.349 50.3906C253.297 50.3906 254.083 50.6745 254.708 51.2422C255.338 51.8099 255.674 52.5469 255.716 53.4531H254.349C254.307 52.9062 254.099 52.4583 253.724 52.1094C253.354 51.7552 252.896 51.5781 252.349 51.5781C251.614 51.5781 251.044 51.8438 250.638 52.375C250.237 52.901 250.036 53.6641 250.036 54.6641V54.9375C250.036 55.9115 250.237 56.6615 250.638 57.1875C251.039 57.7135 251.612 57.9766 252.356 57.9766ZM260.849 59.1562C259.703 59.1562 258.771 58.7812 258.052 58.0312C257.333 57.276 256.974 56.2682 256.974 55.0078V54.7422C256.974 53.9036 257.132 53.1562 257.45 52.5C257.773 51.8385 258.221 51.3229 258.794 50.9531C259.372 50.5781 259.997 50.3906 260.669 50.3906C261.768 50.3906 262.622 50.7526 263.231 51.4766C263.841 52.2005 264.146 53.237 264.146 54.5859V55.1875H258.419C258.44 56.0208 258.682 56.6953 259.146 57.2109C259.614 57.7214 260.208 57.9766 260.927 57.9766C261.437 57.9766 261.869 57.8724 262.224 57.6641C262.578 57.4557 262.888 57.1797 263.153 56.8359L264.036 57.5234C263.328 58.612 262.265 59.1562 260.849 59.1562ZM260.669 51.5781C260.086 51.5781 259.596 51.7917 259.2 52.2188C258.804 52.6406 258.56 53.2344 258.466 54H262.7V53.8906C262.659 53.1562 262.461 52.5885 262.106 52.1875C261.752 51.7812 261.273 51.5781 260.669 51.5781ZM270.747 56.7578C270.747 56.3672 270.599 56.0651 270.302 55.8516C270.01 55.6328 269.497 55.4453 268.763 55.2891C268.034 55.1328 267.453 54.9453 267.021 54.7266C266.593 54.5078 266.276 54.2474 266.067 53.9453C265.864 53.6432 265.763 53.2839 265.763 52.8672C265.763 52.1745 266.054 51.5885 266.638 51.1094C267.226 50.6302 267.976 50.3906 268.888 50.3906C269.846 50.3906 270.622 50.638 271.216 51.1328C271.815 51.6276 272.114 52.2604 272.114 53.0312H270.661C270.661 52.6354 270.492 52.2943 270.153 52.0078C269.82 51.7214 269.398 51.5781 268.888 51.5781C268.362 51.5781 267.95 51.6927 267.653 51.9219C267.356 52.151 267.208 52.4505 267.208 52.8203C267.208 53.1693 267.346 53.4323 267.622 53.6094C267.898 53.7865 268.396 53.9557 269.114 54.1172C269.838 54.2786 270.424 54.4714 270.872 54.6953C271.32 54.9193 271.651 55.1901 271.864 55.5078C272.083 55.8203 272.192 56.2031 272.192 56.6562C272.192 57.4115 271.89 58.0182 271.286 58.4766C270.682 58.9297 269.898 59.1562 268.935 59.1562C268.257 59.1562 267.659 59.0365 267.138 58.7969C266.617 58.5573 266.208 58.224 265.911 57.7969C265.619 57.3646 265.474 56.8984 265.474 56.3984H266.919C266.945 56.8828 267.138 57.2682 267.497 57.5547C267.862 57.8359 268.341 57.9766 268.935 57.9766C269.481 57.9766 269.919 57.8672 270.247 57.6484C270.58 57.4245 270.747 57.1276 270.747 56.7578ZM278.997 56.7578C278.997 56.3672 278.849 56.0651 278.552 55.8516C278.26 55.6328 277.747 55.4453 277.013 55.2891C276.284 55.1328 275.703 54.9453 275.271 54.7266C274.843 54.5078 274.526 54.2474 274.317 53.9453C274.114 53.6432 274.013 53.2839 274.013 52.8672C274.013 52.1745 274.304 51.5885 274.888 51.1094C275.476 50.6302 276.226 50.3906 277.138 50.3906C278.096 50.3906 278.872 50.638 279.466 51.1328C280.065 51.6276 280.364 52.2604 280.364 53.0312H278.911C278.911 52.6354 278.742 52.2943 278.403 52.0078C278.07 51.7214 277.648 51.5781 277.138 51.5781C276.612 51.5781 276.2 51.6927 275.903 51.9219C275.606 52.151 275.458 52.4505 275.458 52.8203C275.458 53.1693 275.596 53.4323 275.872 53.6094C276.148 53.7865 276.646 53.9557 277.364 54.1172C278.088 54.2786 278.674 54.4714 279.122 54.6953C279.57 54.9193 279.901 55.1901 280.114 55.5078C280.333 55.8203 280.442 56.2031 280.442 56.6562C280.442 57.4115 280.14 58.0182 279.536 58.4766C278.932 58.9297 278.148 59.1562 277.185 59.1562C276.507 59.1562 275.909 59.0365 275.388 58.7969C274.867 58.5573 274.458 58.224 274.161 57.7969C273.869 57.3646 273.724 56.8984 273.724 56.3984H275.169C275.195 56.8828 275.388 57.2682 275.747 57.5547C276.112 57.8359 276.591 57.9766 277.185 57.9766C277.731 57.9766 278.169 57.8672 278.497 57.6484C278.83 57.4245 278.997 57.1276 278.997 56.7578ZM283.036 59V51.6641H281.7V50.5469H283.036V49.6797C283.036 48.7734 283.278 48.0729 283.763 47.5781C284.247 47.0833 284.932 46.8359 285.817 46.8359C286.151 46.8359 286.481 46.8802 286.81 46.9688L286.731 48.1406C286.487 48.0938 286.226 48.0703 285.95 48.0703C285.481 48.0703 285.119 48.2083 284.864 48.4844C284.609 48.7552 284.481 49.1458 284.481 49.6562V50.5469H286.286V51.6641H284.481V59H283.036ZM293.106 58.1641C292.544 58.8255 291.718 59.1562 290.63 59.1562C289.729 59.1562 289.041 58.8958 288.567 58.375C288.099 57.849 287.862 57.0729 287.856 56.0469V50.5469H289.302V56.0078C289.302 57.2891 289.823 57.9297 290.864 57.9297C291.968 57.9297 292.703 57.5182 293.067 56.6953V50.5469H294.513V59H293.138L293.106 58.1641ZM298.286 59H296.841V47H298.286V59ZM302.177 59H300.731V47H302.177V59ZM307.263 56.8828L309.231 50.5469H310.778L307.38 60.3047C306.854 61.7109 306.018 62.4141 304.872 62.4141L304.599 62.3906L304.06 62.2891V61.1172L304.45 61.1484C304.94 61.1484 305.32 61.0495 305.591 60.8516C305.867 60.6536 306.093 60.2917 306.271 59.7656L306.591 58.9062L303.575 50.5469H305.153L307.263 56.8828ZM311.263 58.2422C311.263 57.9922 311.336 57.7839 311.481 57.6172C311.632 57.4505 311.856 57.3672 312.153 57.3672C312.45 57.3672 312.674 57.4505 312.825 57.6172C312.981 57.7839 313.06 57.9922 313.06 58.2422C313.06 58.4818 312.981 58.6823 312.825 58.8438C312.674 59.0052 312.45 59.0859 312.153 59.0859C311.856 59.0859 311.632 59.0052 311.481 58.8438C311.336 58.6823 311.263 58.4818 311.263 58.2422Z" fill="#6654A4"/>
<path d="M47.7587 65H50.6387V59.848H53.8387V57.32H50.6387V42.088H47.1507L35.9187 57.64V59.848H47.7587V65ZM39.2787 57.32L47.8867 45.128V57.32H39.2787Z" fill="#6654A4"/>
<defs>
<filter id="filter0_d" x="0" y="0" width="594.56" height="113" filterUnits="userSpaceOnUse" color-interpolation-filters="sRGB">
<feFlood flood-opacity="0" result="BackgroundImageFix"/>
<feColorMatrix in="SourceAlpha" type="matrix" values="0 0 0 0 0 0 0 0 0 0 0 0 0 0 0 0 0 0 127 0"/>
<feMorphology radius="4" operator="dilate" in="SourceAlpha" result="effect1_dropShadow"/>
<feOffset dy="3"/>
<feGaussianBlur stdDeviation="7.5"/>
<feColorMatrix type="matrix" values="0 0 0 0 0.872109 0 0 0 0 0.853125 0 0 0 0 0.9375 0 0 0 0.5 0"/>
<feBlend mode="normal" in2="BackgroundImageFix" result="effect1_dropShadow"/>
<feBlend mode="normal" in="SourceGraphic" in2="effect1_dropShadow" result="shape"/>
</filter>
</defs>
</svg>
