<svg width="194" height="33" viewBox="0 0 194 33" fill="none" xmlns="http://www.w3.org/2000/svg">
<path d="M15.1475 17.92C15.1475 9.664 3.1155 13.248 3.1155 7.488C3.1155 5.088 5.0035 3.84 7.4035 3.904C10.1235 3.936 11.5315 5.632 11.7235 7.136H14.9235C14.5715 3.744 11.7875 1.408 7.5315 1.408C3.1155 1.408 0.1395 3.904 0.1395 7.584C0.1395 15.872 12.2035 12.032 12.2035 18.048C12.2035 20.16 10.5395 21.76 7.7235 21.76C4.6195 21.76 3.3075 19.904 3.1155 18.048H0.0115001C0.0755001 21.728 3.2435 24.224 7.7235 24.224C12.5555 24.224 15.1475 21.088 15.1475 17.92ZM26.8888 8.64C29.8968 8.64 32.4568 10.528 32.4248 13.952H21.3528C21.6727 10.528 24.0408 8.64 26.8888 8.64ZM35.0808 18.592H31.9448C31.3048 20.48 29.6408 21.824 27.0168 21.824C24.0408 21.824 21.5448 19.872 21.3208 16.32H35.3368C35.4008 15.712 35.4328 15.2 35.4328 14.56C35.4328 9.76 32.1048 6.176 27.0168 6.176C21.8968 6.176 18.3448 9.664 18.3448 15.2C18.3448 20.768 22.0248 24.288 27.0168 24.288C31.3688 24.288 34.1848 21.792 35.0808 18.592ZM52.1085 24H54.9885V13.664C54.9885 8.64 51.8845 6.144 47.8205 6.144C45.4525 6.144 43.3405 7.136 42.1885 8.96V6.464H39.2765V24H42.1885V14.304C42.1885 10.528 44.2365 8.672 47.2125 8.672C50.1565 8.672 52.1085 10.496 52.1085 14.08V24ZM58.6573 15.168C58.6573 20.608 62.2733 24.288 66.9773 24.288C70.1773 24.288 72.4493 22.656 73.5053 20.704V24H76.4493V0.32H73.5053V9.6C72.2893 7.584 69.7613 6.176 67.0093 6.176C62.2733 6.176 58.6573 9.696 58.6573 15.168ZM73.5053 15.2C73.5053 19.328 70.7533 21.728 67.5533 21.728C64.3533 21.728 61.6333 19.296 61.6333 15.168C61.6333 11.04 64.3533 8.704 67.5533 8.704C70.7533 8.704 73.5053 11.136 73.5053 15.2ZM89.9015 24H92.8135V7.456L100.206 24H102.254L109.614 7.488V24H112.526V1.856H109.422L101.23 20.16L93.0375 1.856H89.9015V24ZM134.104 15.2C134.104 9.664 130.232 6.176 125.24 6.176C120.28 6.176 116.376 9.664 116.376 15.2C116.376 20.768 120.152 24.288 125.112 24.288C130.104 24.288 134.104 20.768 134.104 15.2ZM119.352 15.2C119.352 10.784 122.136 8.704 125.208 8.704C128.216 8.704 131.128 10.784 131.128 15.2C131.128 19.648 128.152 21.728 125.112 21.728C122.072 21.728 119.352 19.648 119.352 15.2ZM150.765 24H153.645V13.664C153.645 8.64 150.541 6.144 146.477 6.144C144.109 6.144 141.997 7.136 140.845 8.96V6.464H137.933V24H140.845V14.304C140.845 10.528 142.893 8.672 145.869 8.672C148.813 8.672 150.765 10.496 150.765 14.08V24ZM165.858 8.64C168.866 8.64 171.426 10.528 171.394 13.952H160.322C160.641 10.528 163.01 8.64 165.858 8.64ZM174.05 18.592H170.914C170.274 20.48 168.61 21.824 165.986 21.824C163.01 21.824 160.514 19.872 160.29 16.32H174.306C174.37 15.712 174.402 15.2 174.402 14.56C174.402 9.76 171.074 6.176 165.986 6.176C160.866 6.176 157.314 9.664 157.314 15.2C157.314 20.768 160.994 24.288 165.986 24.288C170.338 24.288 173.154 21.792 174.05 18.592ZM184.901 20.672L179.397 6.464H176.165L183.237 23.808L179.781 32.256H182.789L193.349 6.464H190.341L184.901 20.672Z" fill="#494B52"/>
</svg>
