<svg width="634" height="165" viewBox="0 0 634 165" fill="none" xmlns="http://www.w3.org/2000/svg">
<path d="M214.793 44.2642H218.433V16.3842H214.793V28.6242H200.593V16.3842H196.953V44.2642H200.593V31.6242H214.793V44.2642ZM245.409 33.2642C245.409 26.3442 240.569 21.9842 234.329 21.9842C228.129 21.9842 223.249 26.3442 223.249 33.2642C223.249 40.2242 227.969 44.6242 234.169 44.6242C240.409 44.6242 245.409 40.2242 245.409 33.2642ZM226.969 33.2642C226.969 27.7442 230.449 25.1442 234.289 25.1442C238.049 25.1442 241.689 27.7442 241.689 33.2642C241.689 38.8242 237.969 41.4242 234.169 41.4242C230.369 41.4242 226.969 38.8242 226.969 33.2642ZM254.475 44.2642H258.235L263.515 26.8642L268.795 44.2642H272.555L279.395 22.3442H275.795L270.835 40.7842L265.515 22.3442H261.795L256.355 40.7442L251.315 22.3442H247.595L254.475 44.2642ZM293.672 44.2642H297.312V22.3442H293.672V44.2642ZM295.552 18.7842C296.872 18.7842 297.952 17.7042 297.952 16.3042C297.952 14.9042 296.872 13.8242 295.552 13.8242C294.152 13.8242 293.072 14.9042 293.072 16.3042C293.072 17.7042 294.152 18.7842 295.552 18.7842ZM304.316 38.2642C304.316 42.6642 306.516 44.2642 310.396 44.2642H313.676V41.1842H310.996C308.756 41.1842 307.956 40.4242 307.956 38.2642V25.3442H313.676V22.3442H307.956V16.8242H304.316V22.3442H301.476V25.3442H304.316V38.2642ZM333.03 44.2642H336.79L342.07 26.8642L347.35 44.2642H351.11L357.95 22.3442H354.35L349.39 40.7842L344.07 22.3442H340.35L334.91 40.7442L329.87 22.3442H326.15L333.03 44.2642ZM382.362 33.2642C382.362 26.3442 377.522 21.9842 371.282 21.9842C365.082 21.9842 360.202 26.3442 360.202 33.2642C360.202 40.2242 364.922 44.6242 371.122 44.6242C377.362 44.6242 382.362 40.2242 382.362 33.2642ZM363.922 33.2642C363.922 27.7442 367.402 25.1442 371.242 25.1442C375.002 25.1442 378.642 27.7442 378.642 33.2642C378.642 38.8242 374.922 41.4242 371.122 41.4242C367.322 41.4242 363.922 38.8242 363.922 33.2642ZM390.788 32.3442C390.788 27.2642 393.428 25.7042 396.908 25.7042H397.868V21.9442C394.388 21.9442 392.028 23.4642 390.788 25.9042V22.3442H387.148V44.2642H390.788V32.3442ZM402.07 44.2642H405.71V34.5842L414.31 44.2642H419.27L408.91 33.2642L419.23 22.3442H414.15L405.71 32.0642V14.6642H402.07V44.2642ZM438.416 38.3042C438.256 30.4642 425.536 33.3042 425.536 28.1042C425.536 26.3442 427.136 25.0642 429.816 25.0642C432.736 25.0642 434.416 26.6642 434.576 28.8642H438.216C437.976 24.5842 434.776 21.9842 429.936 21.9842C425.056 21.9842 421.896 24.7442 421.896 28.1042C421.896 36.2642 434.856 33.4242 434.856 38.3042C434.856 40.1042 433.256 41.5442 430.376 41.5442C427.296 41.5442 425.416 39.9442 425.216 37.8242H421.456C421.696 41.8242 425.296 44.6242 430.416 44.6242C435.256 44.6242 438.416 41.9042 438.416 38.3042Z" fill="#2B334E"/>
<path d="M5.77589 109.68C5.77589 113.024 8.22389 115.36 11.3439 115.36C13.7599 115.36 15.6799 114.16 16.5119 112.016H14.7679C14.1599 113.344 12.9759 114.096 11.3439 114.096C9.00789 114.096 7.26389 112.4 7.26389 109.68C7.26389 106.944 9.00789 105.248 11.3439 105.248C12.9759 105.248 14.1599 106 14.7679 107.344H16.5119C15.6799 105.184 13.7599 103.968 11.3439 103.968C8.22389 103.968 5.77589 106.336 5.77589 109.68ZM26.9993 110.864C26.9993 108.096 25.0633 106.352 22.5673 106.352C20.0873 106.352 18.1353 108.096 18.1353 110.864C18.1353 113.648 20.0233 115.408 22.5033 115.408C24.9993 115.408 26.9993 113.648 26.9993 110.864ZM19.6233 110.864C19.6233 108.656 21.0153 107.616 22.5513 107.616C24.0553 107.616 25.5113 108.656 25.5113 110.864C25.5113 113.088 24.0233 114.128 22.5033 114.128C20.9833 114.128 19.6233 113.088 19.6233 110.864ZM35.3296 115.264H36.7696V110.096C36.7696 107.584 35.2176 106.336 33.1856 106.336C32.0016 106.336 30.9456 106.832 30.3696 107.744V106.496H28.9136V115.264H30.3696V110.416C30.3696 108.528 31.3936 107.6 32.8816 107.6C34.3536 107.6 35.3296 108.512 35.3296 110.304V115.264ZM45.452 112.88C45.388 109.744 40.3 110.88 40.3 108.8C40.3 108.096 40.94 107.584 42.012 107.584C43.18 107.584 43.852 108.224 43.916 109.104H45.372C45.276 107.392 43.996 106.352 42.06 106.352C40.108 106.352 38.844 107.456 38.844 108.8C38.844 112.064 44.028 110.928 44.028 112.88C44.028 113.6 43.388 114.176 42.236 114.176C41.004 114.176 40.252 113.536 40.172 112.688H38.668C38.764 114.288 40.204 115.408 42.252 115.408C44.188 115.408 45.452 114.32 45.452 112.88ZM55.2834 106.496H53.8274V111.312C53.8274 113.2 52.8194 114.128 51.3154 114.128C49.8434 114.128 48.8674 113.216 48.8674 111.44V106.496H47.4274V111.632C47.4274 114.144 49.0114 115.392 51.0274 115.392C52.1954 115.392 53.2674 114.88 53.8274 113.968V115.264H55.2834V106.496ZM70.3978 115.264H71.8378V110.096C71.8378 107.584 70.2858 106.336 68.2858 106.336C66.9418 106.336 65.6938 107.024 65.1818 108.288C64.6058 106.976 63.4058 106.336 61.9658 106.336C60.8138 106.336 59.7738 106.832 59.1978 107.76V106.496H57.7418V115.264H59.1978V110.432C59.1978 108.544 60.2058 107.6 61.6778 107.6C63.1178 107.6 64.0778 108.512 64.0778 110.304V115.264H65.5178V110.432C65.5178 108.544 66.5258 107.6 67.9978 107.6C69.4378 107.6 70.3978 108.512 70.3978 110.304V115.264ZM77.9541 107.584C79.4581 107.584 80.7381 108.528 80.7221 110.24H75.1861C75.3461 108.528 76.5301 107.584 77.9541 107.584ZM82.0501 112.56H80.4821C80.1621 113.504 79.3301 114.176 78.0181 114.176C76.5301 114.176 75.2821 113.2 75.1701 111.424H82.1781C82.2101 111.12 82.2261 110.864 82.2261 110.544C82.2261 108.144 80.5621 106.352 78.0181 106.352C75.4581 106.352 73.6821 108.096 73.6821 110.864C73.6821 113.648 75.5221 115.408 78.0181 115.408C80.1941 115.408 81.6021 114.16 82.0501 112.56ZM85.604 110.496C85.604 108.464 86.66 107.84 88.052 107.84H88.436V106.336C87.044 106.336 86.1 106.944 85.604 107.92V106.496H84.148V115.264H85.604V110.496ZM93.8384 110.864C93.8384 113.648 95.6144 115.408 98.1104 115.408C100.286 115.408 101.71 114.192 102.158 112.448H100.59C100.27 113.552 99.4064 114.176 98.1104 114.176C96.5104 114.176 95.3264 113.04 95.3264 110.864C95.3264 108.72 96.5104 107.584 98.1104 107.584C99.4064 107.584 100.286 108.256 100.59 109.312H102.158C101.71 107.472 100.286 106.352 98.1104 106.352C95.6144 106.352 93.8384 108.112 93.8384 110.864ZM103.557 110.848C103.557 113.568 105.365 115.408 107.701 115.408C109.317 115.408 110.453 114.576 110.981 113.632V115.264H112.453V106.496H110.981V108.096C110.469 107.184 109.349 106.352 107.717 106.352C105.365 106.352 103.557 108.112 103.557 110.848ZM110.981 110.864C110.981 112.928 109.605 114.128 108.005 114.128C106.405 114.128 105.045 112.912 105.045 110.848C105.045 108.784 106.405 107.616 108.005 107.616C109.605 107.616 110.981 108.832 110.981 110.864ZM121.33 115.264H122.77V110.096C122.77 107.584 121.218 106.336 119.186 106.336C118.002 106.336 116.946 106.832 116.37 107.744V106.496H114.914V115.264H116.37V110.416C116.37 108.528 117.394 107.6 118.882 107.6C120.354 107.6 121.33 108.512 121.33 110.304V115.264ZM133.142 107.584C134.646 107.584 135.926 108.528 135.91 110.24H130.374C130.534 108.528 131.718 107.584 133.142 107.584ZM137.238 112.56H135.67C135.35 113.504 134.518 114.176 133.206 114.176C131.718 114.176 130.47 113.2 130.358 111.424H137.366C137.398 111.12 137.414 110.864 137.414 110.544C137.414 108.144 135.75 106.352 133.206 106.352C130.646 106.352 128.87 108.096 128.87 110.864C128.87 113.648 130.71 115.408 133.206 115.408C135.382 115.408 136.79 114.16 137.238 112.56ZM138.792 110.848C138.792 113.568 140.6 115.408 142.936 115.408C144.552 115.408 145.688 114.576 146.216 113.632V115.264H147.688V106.496H146.216V108.096C145.704 107.184 144.584 106.352 142.952 106.352C140.6 106.352 138.792 108.112 138.792 110.848ZM146.216 110.864C146.216 112.928 144.84 114.128 143.24 114.128C141.64 114.128 140.28 112.912 140.28 110.848C140.28 108.784 141.64 107.616 143.24 107.616C144.84 107.616 146.216 108.832 146.216 110.864ZM156.452 112.88C156.388 109.744 151.3 110.88 151.3 108.8C151.3 108.096 151.94 107.584 153.012 107.584C154.18 107.584 154.852 108.224 154.916 109.104H156.372C156.276 107.392 154.996 106.352 153.06 106.352C151.108 106.352 149.844 107.456 149.844 108.8C149.844 112.064 155.028 110.928 155.028 112.88C155.028 113.6 154.388 114.176 153.236 114.176C152.004 114.176 151.252 113.536 151.172 112.688H149.668C149.764 114.288 151.204 115.408 153.252 115.408C155.188 115.408 156.452 114.32 156.452 112.88ZM158.507 115.264H159.963V106.496H158.507V115.264ZM159.259 105.072C159.787 105.072 160.219 104.64 160.219 104.08C160.219 103.52 159.787 103.088 159.259 103.088C158.699 103.088 158.267 103.52 158.267 104.08C158.267 104.64 158.699 105.072 159.259 105.072ZM162.445 115.264H163.901V103.424H162.445V115.264ZM169.71 113.6L166.958 106.496H165.342L168.878 115.168L167.15 119.392H168.654L173.934 106.496H172.43L169.71 113.6ZM185.968 112.88C185.904 109.744 180.816 110.88 180.816 108.8C180.816 108.096 181.456 107.584 182.528 107.584C183.696 107.584 184.368 108.224 184.432 109.104H185.888C185.792 107.392 184.512 106.352 182.576 106.352C180.624 106.352 179.36 107.456 179.36 108.8C179.36 112.064 184.544 110.928 184.544 112.88C184.544 113.6 183.904 114.176 182.752 114.176C181.52 114.176 180.768 113.536 180.688 112.688H179.184C179.28 114.288 180.72 115.408 182.768 115.408C184.704 115.408 185.968 114.32 185.968 112.88ZM191.751 107.584C193.255 107.584 194.535 108.528 194.519 110.24H188.983C189.143 108.528 190.327 107.584 191.751 107.584ZM195.847 112.56H194.279C193.959 113.504 193.127 114.176 191.815 114.176C190.327 114.176 189.079 113.2 188.967 111.424H195.975C196.007 111.12 196.023 110.864 196.023 110.544C196.023 108.144 194.359 106.352 191.815 106.352C189.255 106.352 187.479 108.096 187.479 110.864C187.479 113.648 189.319 115.408 191.815 115.408C193.991 115.408 195.399 114.16 195.847 112.56ZM204.361 115.264H205.801V110.096C205.801 107.584 204.249 106.336 202.217 106.336C201.033 106.336 199.977 106.832 199.401 107.744V106.496H197.945V115.264H199.401V110.416C199.401 108.528 200.425 107.6 201.913 107.6C203.385 107.6 204.361 108.512 204.361 110.304V115.264ZM207.635 110.848C207.635 113.568 209.443 115.408 211.795 115.408C213.395 115.408 214.531 114.592 215.059 113.616V115.264H216.531V103.424H215.059V108.064C214.451 107.056 213.187 106.352 211.811 106.352C209.443 106.352 207.635 108.112 207.635 110.848ZM215.059 110.864C215.059 112.928 213.683 114.128 212.083 114.128C210.483 114.128 209.123 112.912 209.123 110.848C209.123 108.784 210.483 107.616 212.083 107.616C213.683 107.616 215.059 108.832 215.059 110.864ZM235.913 115.264H237.353V110.096C237.353 107.584 235.801 106.336 233.801 106.336C232.457 106.336 231.209 107.024 230.697 108.288C230.121 106.976 228.921 106.336 227.481 106.336C226.329 106.336 225.289 106.832 224.713 107.76V106.496H223.257V115.264H224.713V110.432C224.713 108.544 225.721 107.6 227.193 107.6C228.633 107.6 229.593 108.512 229.593 110.304V115.264H231.033V110.432C231.033 108.544 232.041 107.6 233.513 107.6C234.953 107.6 235.913 108.512 235.913 110.304V115.264ZM248.062 110.864C248.062 108.096 246.126 106.352 243.63 106.352C241.15 106.352 239.198 108.096 239.198 110.864C239.198 113.648 241.086 115.408 243.566 115.408C246.062 115.408 248.062 113.648 248.062 110.864ZM240.686 110.864C240.686 108.656 242.078 107.616 243.614 107.616C245.118 107.616 246.574 108.656 246.574 110.864C246.574 113.088 245.086 114.128 243.566 114.128C242.046 114.128 240.686 113.088 240.686 110.864ZM256.392 115.264H257.832V110.096C257.832 107.584 256.28 106.336 254.248 106.336C253.064 106.336 252.008 106.832 251.432 107.744V106.496H249.976V115.264H251.432V110.416C251.432 108.528 252.456 107.6 253.944 107.6C255.416 107.6 256.392 108.512 256.392 110.304V115.264ZM263.939 107.584C265.443 107.584 266.723 108.528 266.707 110.24H261.171C261.331 108.528 262.515 107.584 263.939 107.584ZM268.035 112.56H266.467C266.147 113.504 265.315 114.176 264.003 114.176C262.515 114.176 261.267 113.2 261.155 111.424H268.163C268.195 111.12 268.211 110.864 268.211 110.544C268.211 108.144 266.547 106.352 264.003 106.352C261.443 106.352 259.667 108.096 259.667 110.864C259.667 113.648 261.507 115.408 264.003 115.408C266.179 115.408 267.587 114.16 268.035 112.56ZM273.46 113.6L270.708 106.496H269.092L272.628 115.168L270.9 119.392H272.404L277.684 106.496H276.18L273.46 113.6ZM283.734 112.864C283.734 114.624 284.614 115.264 286.166 115.264H287.478V114.032H286.406C285.51 114.032 285.19 113.728 285.19 112.864V107.696H287.478V106.496H285.19V104.288H283.734V106.496H282.598V107.696H283.734V112.864ZM297.562 110.864C297.562 108.096 295.626 106.352 293.13 106.352C290.65 106.352 288.698 108.096 288.698 110.864C288.698 113.648 290.586 115.408 293.066 115.408C295.562 115.408 297.562 113.648 297.562 110.864ZM290.186 110.864C290.186 108.656 291.578 107.616 293.114 107.616C294.618 107.616 296.074 108.656 296.074 110.864C296.074 113.088 294.586 114.128 293.066 114.128C291.546 114.128 290.186 113.088 290.186 110.864ZM312.062 110.864C312.062 108.096 310.126 106.352 307.63 106.352C305.15 106.352 303.198 108.096 303.198 110.864C303.198 113.648 305.086 115.408 307.566 115.408C310.062 115.408 312.062 113.648 312.062 110.864ZM304.686 110.864C304.686 108.656 306.078 107.616 307.614 107.616C309.118 107.616 310.574 108.656 310.574 110.864C310.574 113.088 309.086 114.128 307.566 114.128C306.046 114.128 304.686 113.088 304.686 110.864ZM314.296 112.864C314.296 114.624 315.176 115.264 316.728 115.264H318.04V114.032H316.968C316.072 114.032 315.752 113.728 315.752 112.864V107.696H318.04V106.496H315.752V104.288H314.296V106.496H313.16V107.696H314.296V112.864ZM319.804 115.264H321.26V110.416C321.26 108.528 322.284 107.6 323.772 107.6C325.244 107.6 326.22 108.512 326.22 110.304V115.264H327.66V110.096C327.66 107.584 326.108 106.336 324.156 106.336C322.924 106.336 321.836 106.832 321.26 107.76V103.424H319.804V115.264ZM333.767 107.584C335.271 107.584 336.551 108.528 336.535 110.24H330.999C331.159 108.528 332.343 107.584 333.767 107.584ZM337.863 112.56H336.295C335.975 113.504 335.143 114.176 333.831 114.176C332.343 114.176 331.095 113.2 330.983 111.424H337.991C338.023 111.12 338.039 110.864 338.039 110.544C338.039 108.144 336.375 106.352 333.831 106.352C331.271 106.352 329.495 108.096 329.495 110.864C329.495 113.648 331.335 115.408 333.831 115.408C336.007 115.408 337.415 114.16 337.863 112.56ZM341.417 110.496C341.417 108.464 342.473 107.84 343.865 107.84H344.249V106.336C342.857 106.336 341.913 106.944 341.417 107.92V106.496H339.961V115.264H341.417V110.496ZM356.195 104.096H350.195V115.264H356.195V114.064H351.651V110.224H355.715V109.024H351.651V105.296H356.195V104.096ZM357.854 110.848C357.854 113.568 359.662 115.408 361.998 115.408C363.614 115.408 364.75 114.576 365.278 113.632V115.264H366.75V106.496H365.278V108.096C364.766 107.184 363.646 106.352 362.014 106.352C359.662 106.352 357.854 108.112 357.854 110.848ZM365.278 110.864C365.278 112.928 363.902 114.128 362.302 114.128C360.702 114.128 359.342 112.912 359.342 110.848C359.342 108.784 360.702 107.616 362.302 107.616C363.902 107.616 365.278 108.832 365.278 110.864ZM375.515 112.88C375.451 109.744 370.363 110.88 370.363 108.8C370.363 108.096 371.003 107.584 372.075 107.584C373.243 107.584 373.915 108.224 373.979 109.104H375.435C375.339 107.392 374.059 106.352 372.123 106.352C370.171 106.352 368.907 107.456 368.907 108.8C368.907 112.064 374.091 110.928 374.091 112.88C374.091 113.6 373.451 114.176 372.299 114.176C371.067 114.176 370.315 113.536 370.235 112.688H368.731C368.827 114.288 370.267 115.408 372.315 115.408C374.251 115.408 375.515 114.32 375.515 112.88ZM380.898 113.6L378.146 106.496H376.53L380.066 115.168L378.338 119.392H379.842L385.122 106.496H383.618L380.898 113.6ZM386.042 109.68C386.042 113.024 388.49 115.36 391.61 115.36C394.026 115.36 395.946 114.16 396.778 112.016H395.034C394.426 113.344 393.242 114.096 391.61 114.096C389.274 114.096 387.53 112.4 387.53 109.68C387.53 106.944 389.274 105.248 391.61 105.248C393.242 105.248 394.426 106 395.034 107.344H396.778C395.946 105.184 394.026 103.968 391.61 103.968C388.49 103.968 386.042 106.336 386.042 109.68ZM398.401 110.848C398.401 113.568 400.209 115.408 402.545 115.408C404.161 115.408 405.297 114.576 405.825 113.632V115.264H407.297V106.496H405.825V108.096C405.313 107.184 404.193 106.352 402.561 106.352C400.209 106.352 398.401 108.112 398.401 110.848ZM405.825 110.864C405.825 112.928 404.449 114.128 402.849 114.128C401.249 114.128 399.889 112.912 399.889 110.848C399.889 108.784 401.249 107.616 402.849 107.616C404.449 107.616 405.825 108.832 405.825 110.864ZM416.061 112.88C415.997 109.744 410.909 110.88 410.909 108.8C410.909 108.096 411.549 107.584 412.621 107.584C413.789 107.584 414.461 108.224 414.525 109.104H415.981C415.885 107.392 414.605 106.352 412.669 106.352C410.717 106.352 409.453 107.456 409.453 108.8C409.453 112.064 414.637 110.928 414.637 112.88C414.637 113.6 413.997 114.176 412.845 114.176C411.613 114.176 410.861 113.536 410.781 112.688H409.277C409.373 114.288 410.813 115.408 412.861 115.408C414.797 115.408 416.061 114.32 416.061 112.88ZM418.117 115.264H419.573V110.416C419.573 108.528 420.597 107.6 422.085 107.6C423.557 107.6 424.533 108.512 424.533 110.304V115.264H425.973V110.096C425.973 107.584 424.421 106.336 422.469 106.336C421.237 106.336 420.149 106.832 419.573 107.76V103.424H418.117V115.264ZM440.393 106.496H438.937V111.312C438.937 113.2 437.929 114.128 436.425 114.128C434.953 114.128 433.977 113.216 433.977 111.44V106.496H432.537V111.632C432.537 114.144 434.121 115.392 436.137 115.392C437.305 115.392 438.377 114.88 438.937 113.968V115.264H440.393V106.496ZM449.155 112.88C449.091 109.744 444.003 110.88 444.003 108.8C444.003 108.096 444.643 107.584 445.715 107.584C446.883 107.584 447.555 108.224 447.619 109.104H449.075C448.979 107.392 447.699 106.352 445.763 106.352C443.811 106.352 442.547 107.456 442.547 108.8C442.547 112.064 447.731 110.928 447.731 112.88C447.731 113.6 447.091 114.176 445.939 114.176C444.707 114.176 443.955 113.536 443.875 112.688H442.371C442.467 114.288 443.907 115.408 445.955 115.408C447.891 115.408 449.155 114.32 449.155 112.88ZM454.939 107.584C456.443 107.584 457.723 108.528 457.707 110.24H452.171C452.331 108.528 453.515 107.584 454.939 107.584ZM459.035 112.56H457.467C457.147 113.504 456.315 114.176 455.003 114.176C453.515 114.176 452.267 113.2 452.155 111.424H459.163C459.195 111.12 459.211 110.864 459.211 110.544C459.211 108.144 457.547 106.352 455.003 106.352C452.443 106.352 450.667 108.096 450.667 110.864C450.667 113.648 452.507 115.408 455.003 115.408C457.179 115.408 458.587 114.16 459.035 112.56ZM462.588 110.496C462.588 108.464 463.644 107.84 465.036 107.84H465.42V106.336C464.028 106.336 463.084 106.944 462.588 107.92V106.496H461.132V115.264H462.588V110.496ZM473.405 112.88C473.341 109.744 468.253 110.88 468.253 108.8C468.253 108.096 468.893 107.584 469.965 107.584C471.133 107.584 471.805 108.224 471.869 109.104H473.325C473.229 107.392 471.949 106.352 470.013 106.352C468.061 106.352 466.797 107.456 466.797 108.8C466.797 112.064 471.981 110.928 471.981 112.88C471.981 113.6 471.341 114.176 470.189 114.176C468.957 114.176 468.205 113.536 468.125 112.688H466.621C466.717 114.288 468.157 115.408 470.205 115.408C472.141 115.408 473.405 114.32 473.405 112.88ZM478.686 106.496L482.126 115.264H483.822L487.262 106.496H485.71L482.99 113.92L480.254 106.496H478.686ZM488.695 115.264H490.151V106.496H488.695V115.264ZM489.447 105.072C489.975 105.072 490.407 104.64 490.407 104.08C490.407 103.52 489.975 103.088 489.447 103.088C488.887 103.088 488.455 103.52 488.455 104.08C488.455 104.64 488.887 105.072 489.447 105.072ZM492.088 110.848C492.088 113.568 493.896 115.408 496.232 115.408C497.848 115.408 498.984 114.576 499.512 113.632V115.264H500.984V106.496H499.512V108.096C499 107.184 497.88 106.352 496.248 106.352C493.896 106.352 492.088 108.112 492.088 110.848ZM499.512 110.864C499.512 112.928 498.136 114.128 496.536 114.128C494.936 114.128 493.576 112.912 493.576 110.848C493.576 108.784 494.936 107.616 496.536 107.616C498.136 107.616 499.512 108.832 499.512 110.864ZM516.031 110.864C516.031 108.096 514.095 106.352 511.599 106.352C509.119 106.352 507.167 108.096 507.167 110.864C507.167 113.648 509.055 115.408 511.535 115.408C514.031 115.408 516.031 113.648 516.031 110.864ZM508.655 110.864C508.655 108.656 510.047 107.616 511.583 107.616C513.087 107.616 514.543 108.656 514.543 110.864C514.543 113.088 513.055 114.128 511.535 114.128C510.015 114.128 508.655 113.088 508.655 110.864ZM525.721 106.496H524.265V111.312C524.265 113.2 523.257 114.128 521.753 114.128C520.281 114.128 519.305 113.216 519.305 111.44V106.496H517.865V111.632C517.865 114.144 519.449 115.392 521.465 115.392C522.633 115.392 523.705 114.88 524.265 113.968V115.264H525.721V106.496ZM529.635 110.496C529.635 108.464 530.691 107.84 532.083 107.84H532.467V106.336C531.075 106.336 530.131 106.944 529.635 107.92V106.496H528.179V115.264H529.635V110.496ZM537.87 110.848C537.87 113.568 539.678 115.408 542.014 115.408C543.63 115.408 544.766 114.576 545.294 113.632V115.264H546.766V106.496H545.294V108.096C544.782 107.184 543.662 106.352 542.03 106.352C539.678 106.352 537.87 108.112 537.87 110.848ZM545.294 110.864C545.294 112.928 543.918 114.128 542.318 114.128C540.718 114.128 539.358 112.912 539.358 110.848C539.358 108.784 540.718 107.616 542.318 107.616C543.918 107.616 545.294 108.832 545.294 110.864ZM550.682 108.112V106.496H549.226V119.424H550.682V113.648C551.226 114.544 552.362 115.408 553.962 115.408C556.314 115.408 558.122 113.568 558.122 110.848C558.122 108.112 556.314 106.352 553.962 106.352C552.362 106.352 551.21 107.184 550.682 108.112ZM556.634 110.848C556.634 112.912 555.274 114.128 553.658 114.128C552.074 114.128 550.682 112.928 550.682 110.864C550.682 108.832 552.074 107.616 553.658 107.616C555.274 107.616 556.634 108.784 556.634 110.848ZM561.495 108.112V106.496H560.039V119.424H561.495V113.648C562.039 114.544 563.175 115.408 564.775 115.408C567.127 115.408 568.935 113.568 568.935 110.848C568.935 108.112 567.127 106.352 564.775 106.352C563.175 106.352 562.023 107.184 561.495 108.112ZM567.447 110.848C567.447 112.912 566.087 114.128 564.471 114.128C562.887 114.128 561.495 112.928 561.495 110.864C561.495 108.832 562.887 107.616 564.471 107.616C566.087 107.616 567.447 108.784 567.447 110.848ZM570.851 115.264H572.307V103.424H570.851V115.264ZM574.789 115.264H576.245V106.496H574.789V115.264ZM575.541 105.072C576.069 105.072 576.501 104.64 576.501 104.08C576.501 103.52 576.069 103.088 575.541 103.088C574.981 103.088 574.549 103.52 574.549 104.08C574.549 104.64 574.981 105.072 575.541 105.072ZM578.182 110.864C578.182 113.648 579.958 115.408 582.454 115.408C584.63 115.408 586.054 114.192 586.502 112.448H584.934C584.614 113.552 583.75 114.176 582.454 114.176C580.854 114.176 579.67 113.04 579.67 110.864C579.67 108.72 580.854 107.584 582.454 107.584C583.75 107.584 584.63 108.256 584.934 109.312H586.502C586.054 107.472 584.63 106.352 582.454 106.352C579.958 106.352 578.182 108.112 578.182 110.864ZM587.901 110.848C587.901 113.568 589.709 115.408 592.045 115.408C593.661 115.408 594.797 114.576 595.325 113.632V115.264H596.797V106.496H595.325V108.096C594.813 107.184 593.693 106.352 592.061 106.352C589.709 106.352 587.901 108.112 587.901 110.848ZM595.325 110.864C595.325 112.928 593.949 114.128 592.349 114.128C590.749 114.128 589.389 112.912 589.389 110.848C589.389 108.784 590.749 107.616 592.349 107.616C593.949 107.616 595.325 108.832 595.325 110.864ZM599.577 112.864C599.577 114.624 600.457 115.264 602.009 115.264H603.321V114.032H602.249C601.353 114.032 601.033 113.728 601.033 112.864V107.696H603.321V106.496H601.033V104.288H599.577V106.496H598.441V107.696H599.577V112.864ZM605.086 115.264H606.542V106.496H605.086V115.264ZM605.838 105.072C606.366 105.072 606.798 104.64 606.798 104.08C606.798 103.52 606.366 103.088 605.838 103.088C605.278 103.088 604.846 103.52 604.846 104.08C604.846 104.64 605.278 105.072 605.838 105.072ZM617.343 110.864C617.343 108.096 615.407 106.352 612.911 106.352C610.431 106.352 608.479 108.096 608.479 110.864C608.479 113.648 610.367 115.408 612.847 115.408C615.343 115.408 617.343 113.648 617.343 110.864ZM609.967 110.864C609.967 108.656 611.359 107.616 612.895 107.616C614.399 107.616 615.855 108.656 615.855 110.864C615.855 113.088 614.367 114.128 612.847 114.128C611.327 114.128 609.967 113.088 609.967 110.864ZM625.673 115.264H627.113V110.096C627.113 107.584 625.561 106.336 623.529 106.336C622.345 106.336 621.289 106.832 620.713 107.744V106.496H619.257V115.264H620.713V110.416C620.713 108.528 621.737 107.6 623.225 107.6C624.697 107.6 625.673 108.512 625.673 110.304V115.264ZM26.44 138.128V133.424H24.984V145.264H26.44V143.648C26.984 144.608 28.12 145.408 29.72 145.408C32.072 145.408 33.88 143.568 33.88 140.848C33.88 138.112 32.088 136.352 29.72 136.352C28.168 136.352 27 137.152 26.44 138.128ZM32.392 140.848C32.392 142.912 31.032 144.128 29.416 144.128C27.832 144.128 26.44 142.928 26.44 140.864C26.44 138.832 27.832 137.616 29.416 137.616C31.032 137.616 32.392 138.784 32.392 140.848ZM39.1245 143.6L36.3725 136.496H34.7565L38.2925 145.168L36.5645 149.392H38.0685L43.3485 136.496H41.8445L39.1245 143.6ZM52.8057 137.584C54.3097 137.584 55.5897 138.528 55.5737 140.24H50.0377C50.1977 138.528 51.3817 137.584 52.8057 137.584ZM56.9017 142.56H55.3337C55.0137 143.504 54.1817 144.176 52.8697 144.176C51.3817 144.176 50.1337 143.2 50.0217 141.424H57.0297C57.0617 141.12 57.0777 140.864 57.0777 140.544C57.0777 138.144 55.4137 136.352 52.8697 136.352C50.3097 136.352 48.5337 138.096 48.5337 140.864C48.5337 143.648 50.3737 145.408 52.8697 145.408C55.0457 145.408 56.4537 144.16 56.9017 142.56ZM65.4156 145.264H66.8556V140.096C66.8556 137.584 65.3036 136.336 63.2716 136.336C62.0876 136.336 61.0316 136.832 60.4556 137.744V136.496H58.9996V145.264H60.4556V140.416C60.4556 138.528 61.4796 137.6 62.9676 137.6C64.4396 137.6 65.4156 138.512 65.4156 140.304V145.264ZM69.554 142.864C69.554 144.624 70.434 145.264 71.986 145.264H73.298V144.032H72.226C71.33 144.032 71.01 143.728 71.01 142.864V137.696H73.298V136.496H71.01V134.288H69.554V136.496H68.418V137.696H69.554V142.864ZM78.7901 137.584C80.2941 137.584 81.5741 138.528 81.5581 140.24H76.0221C76.1821 138.528 77.3661 137.584 78.7901 137.584ZM82.8861 142.56H81.3181C80.9981 143.504 80.1661 144.176 78.8541 144.176C77.3661 144.176 76.1181 143.2 76.0061 141.424H83.0141C83.0461 141.12 83.0621 140.864 83.0621 140.544C83.0621 138.144 81.3981 136.352 78.8541 136.352C76.2941 136.352 74.5181 138.096 74.5181 140.864C74.5181 143.648 76.3581 145.408 78.8541 145.408C81.0301 145.408 82.4381 144.16 82.8861 142.56ZM86.44 140.496C86.44 138.464 87.496 137.84 88.888 137.84H89.272V136.336C87.88 136.336 86.936 136.944 86.44 137.92V136.496H84.984V145.264H86.44V140.496ZM90.9527 145.264H92.4087V136.496H90.9527V145.264ZM91.7047 135.072C92.2327 135.072 92.6647 134.64 92.6647 134.08C92.6647 133.52 92.2327 133.088 91.7047 133.088C91.1447 133.088 90.7127 133.52 90.7127 134.08C90.7127 134.64 91.1447 135.072 91.7047 135.072ZM101.306 145.264H102.746V140.096C102.746 137.584 101.194 136.336 99.1622 136.336C97.9782 136.336 96.9222 136.832 96.3462 137.744V136.496H94.8902V145.264H96.3462V140.416C96.3462 138.528 97.3702 137.6 98.8582 137.6C100.33 137.6 101.306 138.512 101.306 140.304V145.264ZM104.581 140.848C104.581 143.568 106.389 145.408 108.741 145.408C110.341 145.408 111.477 144.56 112.005 143.616V145.456C112.005 147.328 110.837 148.32 109.285 148.32C107.845 148.32 106.805 147.6 106.485 146.544H105.045C105.333 148.416 106.981 149.584 109.285 149.584C111.861 149.584 113.477 147.872 113.477 145.456V136.496H112.005V138.096C111.493 137.152 110.341 136.352 108.741 136.352C106.389 136.352 104.581 138.112 104.581 140.848ZM112.005 140.864C112.005 142.928 110.629 144.128 109.029 144.128C107.429 144.128 106.069 142.912 106.069 140.848C106.069 138.784 107.429 137.616 109.029 137.616C110.629 137.616 112.005 138.832 112.005 140.864ZM120.523 142.864C120.523 144.624 121.403 145.264 122.955 145.264H124.267V144.032H123.195C122.299 144.032 121.979 143.728 121.979 142.864V137.696H124.267V136.496H121.979V134.288H120.523V136.496H119.387V137.696H120.523V142.864ZM126.031 145.264H127.487V140.416C127.487 138.528 128.511 137.6 129.999 137.6C131.471 137.6 132.447 138.512 132.447 140.304V145.264H133.887V140.096C133.887 137.584 132.335 136.336 130.383 136.336C129.151 136.336 128.063 136.832 127.487 137.76V133.424H126.031V145.264ZM136.265 145.264H137.721V136.496H136.265V145.264ZM137.017 135.072C137.545 135.072 137.977 134.64 137.977 134.08C137.977 133.52 137.545 133.088 137.017 133.088C136.457 133.088 136.025 133.52 136.025 134.08C136.025 134.64 136.457 135.072 137.017 135.072ZM143.931 137.584C145.435 137.584 146.715 138.528 146.699 140.24H141.163C141.323 138.528 142.507 137.584 143.931 137.584ZM148.027 142.56H146.459C146.139 143.504 145.307 144.176 143.995 144.176C142.507 144.176 141.259 143.2 141.147 141.424H148.155C148.187 141.12 148.203 140.864 148.203 140.544C148.203 138.144 146.539 136.352 143.995 136.352C141.435 136.352 139.659 138.096 139.659 140.864C139.659 143.648 141.499 145.408 143.995 145.408C146.171 145.408 147.579 144.16 148.027 142.56ZM151.581 140.496C151.581 138.464 152.637 137.84 154.029 137.84H154.413V136.336C153.021 136.336 152.077 136.944 151.581 137.92V136.496H150.125V145.264H151.581V140.496ZM159.815 140.848C159.815 143.568 161.623 145.408 163.975 145.408C165.575 145.408 166.711 144.592 167.239 143.616V145.264H168.711V133.424H167.239V138.064C166.631 137.056 165.367 136.352 163.991 136.352C161.623 136.352 159.815 138.112 159.815 140.848ZM167.239 140.864C167.239 142.928 165.863 144.128 164.263 144.128C162.663 144.128 161.303 142.912 161.303 140.848C161.303 138.784 162.663 137.616 164.263 137.616C165.863 137.616 167.239 138.832 167.239 140.864ZM170.627 140.848C170.627 143.568 172.435 145.408 174.771 145.408C176.387 145.408 177.523 144.576 178.051 143.632V145.264H179.523V136.496H178.051V138.096C177.539 137.184 176.419 136.352 174.787 136.352C172.435 136.352 170.627 138.112 170.627 140.848ZM178.051 140.864C178.051 142.928 176.675 144.128 175.075 144.128C173.475 144.128 172.115 142.912 172.115 140.848C172.115 138.784 173.475 137.616 175.075 137.616C176.675 137.616 178.051 138.832 178.051 140.864ZM182.304 142.864C182.304 144.624 183.184 145.264 184.736 145.264H186.048V144.032H184.976C184.08 144.032 183.76 143.728 183.76 142.864V137.696H186.048V136.496H183.76V134.288H182.304V136.496H181.168V137.696H182.304V142.864ZM187.268 140.848C187.268 143.568 189.076 145.408 191.412 145.408C193.028 145.408 194.164 144.576 194.692 143.632V145.264H196.164V136.496H194.692V138.096C194.18 137.184 193.06 136.352 191.428 136.352C189.076 136.352 187.268 138.112 187.268 140.848ZM194.692 140.864C194.692 142.928 193.316 144.128 191.716 144.128C190.116 144.128 188.756 142.912 188.756 140.848C188.756 138.784 190.116 137.616 191.716 137.616C193.316 137.616 194.692 138.832 194.692 140.864ZM209.61 136.496C209.69 135.008 208.618 133.888 206.858 133.888C205.05 133.888 203.914 134.944 203.914 136.368C203.914 137.184 204.186 137.808 204.874 138.608C203.13 139.296 202.25 140.528 202.25 142.064C202.25 144.128 203.834 145.456 206.154 145.456C207.722 145.456 208.922 144.912 209.994 143.792L211.45 145.264H213.354L210.842 142.752C211.066 142.432 211.274 142.112 211.482 141.744L212.794 139.472H211.226L210.138 141.296C210.042 141.456 209.946 141.6 209.85 141.744L206.522 138.4C205.738 137.568 205.37 137.024 205.37 136.368C205.37 135.632 205.93 135.088 206.794 135.088C207.578 135.088 208.186 135.584 208.154 136.496H209.61ZM206.154 144.208C204.698 144.208 203.706 143.264 203.706 142.016C203.706 140.896 204.362 140.064 205.754 139.536L209.034 142.832C208.202 143.76 207.306 144.208 206.154 144.208ZM219.304 142.864C219.304 144.624 220.184 145.264 221.736 145.264H223.048V144.032H221.976C221.08 144.032 220.76 143.728 220.76 142.864V137.696H223.048V136.496H220.76V134.288H219.304V136.496H218.168V137.696H219.304V142.864ZM224.812 145.264H226.268V140.416C226.268 138.528 227.292 137.6 228.78 137.6C230.252 137.6 231.228 138.512 231.228 140.304V145.264H232.668V140.096C232.668 137.584 231.116 136.336 229.164 136.336C227.932 136.336 226.844 136.832 226.268 137.76V133.424H224.812V145.264ZM238.774 137.584C240.278 137.584 241.558 138.528 241.542 140.24H236.006C236.166 138.528 237.35 137.584 238.774 137.584ZM242.87 142.56H241.302C240.982 143.504 240.15 144.176 238.838 144.176C237.35 144.176 236.102 143.2 235.99 141.424H242.998C243.03 141.12 243.046 140.864 243.046 140.544C243.046 138.144 241.382 136.352 238.838 136.352C236.278 136.352 234.502 138.096 234.502 140.864C234.502 143.648 236.342 145.408 238.838 145.408C241.014 145.408 242.422 144.16 242.87 142.56ZM248.69 140.848C248.69 143.568 250.498 145.408 252.834 145.408C254.45 145.408 255.586 144.576 256.114 143.632V145.264H257.586V136.496H256.114V138.096C255.602 137.184 254.482 136.352 252.85 136.352C250.498 136.352 248.69 138.112 248.69 140.848ZM256.114 140.864C256.114 142.928 254.738 144.128 253.138 144.128C251.538 144.128 250.178 142.912 250.178 140.848C250.178 138.784 251.538 137.616 253.138 137.616C254.738 137.616 256.114 138.832 256.114 140.864ZM272.702 145.264H274.142V140.096C274.142 137.584 272.59 136.336 270.59 136.336C269.246 136.336 267.998 137.024 267.486 138.288C266.91 136.976 265.71 136.336 264.27 136.336C263.118 136.336 262.078 136.832 261.502 137.76V136.496H260.046V145.264H261.502V140.432C261.502 138.544 262.51 137.6 263.982 137.6C265.422 137.6 266.382 138.512 266.382 140.304V145.264H267.822V140.432C267.822 138.544 268.83 137.6 270.302 137.6C271.742 137.6 272.702 138.512 272.702 140.304V145.264ZM284.851 140.864C284.851 138.096 282.915 136.352 280.419 136.352C277.939 136.352 275.987 138.096 275.987 140.864C275.987 143.648 277.875 145.408 280.355 145.408C282.851 145.408 284.851 143.648 284.851 140.864ZM277.475 140.864C277.475 138.656 278.867 137.616 280.403 137.616C281.907 137.616 283.363 138.656 283.363 140.864C283.363 143.088 281.875 144.128 280.355 144.128C278.835 144.128 277.475 143.088 277.475 140.864ZM294.541 136.496H293.085V141.312C293.085 143.2 292.077 144.128 290.573 144.128C289.101 144.128 288.125 143.216 288.125 141.44V136.496H286.685V141.632C286.685 144.144 288.269 145.392 290.285 145.392C291.453 145.392 292.525 144.88 293.085 143.968V145.264H294.541V136.496ZM303.416 145.264H304.856V140.096C304.856 137.584 303.304 136.336 301.272 136.336C300.088 136.336 299.032 136.832 298.456 137.744V136.496H297V145.264H298.456V140.416C298.456 138.528 299.48 137.6 300.968 137.6C302.44 137.6 303.416 138.512 303.416 140.304V145.264ZM307.554 142.864C307.554 144.624 308.434 145.264 309.986 145.264H311.298V144.032H310.226C309.33 144.032 309.01 143.728 309.01 142.864V137.696H311.298V136.496H309.01V134.288H307.554V136.496H306.418V137.696H307.554V142.864ZM320.656 143.6L317.904 136.496H316.288L319.824 145.168L318.096 149.392H319.6L324.88 136.496H323.376L320.656 143.6ZM334.663 140.864C334.663 138.096 332.727 136.352 330.231 136.352C327.751 136.352 325.799 138.096 325.799 140.864C325.799 143.648 327.687 145.408 330.167 145.408C332.663 145.408 334.663 143.648 334.663 140.864ZM327.287 140.864C327.287 138.656 328.679 137.616 330.215 137.616C331.719 137.616 333.175 138.656 333.175 140.864C333.175 143.088 331.687 144.128 330.167 144.128C328.647 144.128 327.287 143.088 327.287 140.864ZM344.354 136.496H342.898V141.312C342.898 143.2 341.89 144.128 340.386 144.128C338.914 144.128 337.938 143.216 337.938 141.44V136.496H336.498V141.632C336.498 144.144 338.082 145.392 340.098 145.392C341.266 145.392 342.338 144.88 342.898 143.968V145.264H344.354V136.496ZM352.79 145.264H354.294L356.406 138.304L358.518 145.264H360.022L362.758 136.496H361.318L359.334 143.872L357.206 136.496H355.718L353.542 143.856L351.526 136.496H350.038L352.79 145.264ZM363.659 140.848C363.659 143.568 365.467 145.408 367.803 145.408C369.419 145.408 370.555 144.576 371.083 143.632V145.264H372.555V136.496H371.083V138.096C370.571 137.184 369.451 136.352 367.819 136.352C365.467 136.352 363.659 138.112 363.659 140.848ZM371.083 140.864C371.083 142.928 369.707 144.128 368.107 144.128C366.507 144.128 365.147 142.912 365.147 140.848C365.147 138.784 366.507 137.616 368.107 137.616C369.707 137.616 371.083 138.832 371.083 140.864ZM381.431 145.264H382.871V140.096C382.871 137.584 381.319 136.336 379.287 136.336C378.103 136.336 377.047 136.832 376.471 137.744V136.496H375.015V145.264H376.471V140.416C376.471 138.528 377.495 137.6 378.983 137.6C380.455 137.6 381.431 138.512 381.431 140.304V145.264ZM385.57 142.864C385.57 144.624 386.45 145.264 388.002 145.264H389.314V144.032H388.242C387.346 144.032 387.026 143.728 387.026 142.864V137.696H389.314V136.496H387.026V134.288H385.57V136.496H384.434V137.696H385.57V142.864ZM395.663 142.864C395.663 144.624 396.543 145.264 398.095 145.264H399.407V144.032H398.335C397.439 144.032 397.119 143.728 397.119 142.864V137.696H399.407V136.496H397.119V134.288H395.663V136.496H394.527V137.696H395.663V142.864ZM409.491 140.864C409.491 138.096 407.555 136.352 405.059 136.352C402.579 136.352 400.627 138.096 400.627 140.864C400.627 143.648 402.515 145.408 404.995 145.408C407.491 145.408 409.491 143.648 409.491 140.864ZM402.115 140.864C402.115 138.656 403.507 137.616 405.043 137.616C406.547 137.616 408.003 138.656 408.003 140.864C408.003 143.088 406.515 144.128 404.995 144.128C403.475 144.128 402.115 143.088 402.115 140.864ZM421.975 142.88C421.911 139.744 416.823 140.88 416.823 138.8C416.823 138.096 417.463 137.584 418.535 137.584C419.703 137.584 420.375 138.224 420.439 139.104H421.895C421.799 137.392 420.519 136.352 418.583 136.352C416.631 136.352 415.367 137.456 415.367 138.8C415.367 142.064 420.551 140.928 420.551 142.88C420.551 143.6 419.911 144.176 418.759 144.176C417.527 144.176 416.775 143.536 416.695 142.688H415.191C415.287 144.288 416.727 145.408 418.775 145.408C420.711 145.408 421.975 144.32 421.975 142.88ZM427.759 137.584C429.263 137.584 430.543 138.528 430.527 140.24H424.991C425.151 138.528 426.335 137.584 427.759 137.584ZM431.855 142.56H430.287C429.967 143.504 429.135 144.176 427.823 144.176C426.335 144.176 425.087 143.2 424.975 141.424H431.983C432.015 141.12 432.031 140.864 432.031 140.544C432.031 138.144 430.367 136.352 427.823 136.352C425.263 136.352 423.487 138.096 423.487 140.864C423.487 143.648 425.327 145.408 427.823 145.408C429.999 145.408 431.407 144.16 431.855 142.56ZM440.369 145.264H441.809V140.096C441.809 137.584 440.257 136.336 438.225 136.336C437.041 136.336 435.985 136.832 435.409 137.744V136.496H433.953V145.264H435.409V140.416C435.409 138.528 436.433 137.6 437.921 137.6C439.393 137.6 440.369 138.512 440.369 140.304V145.264ZM443.643 140.848C443.643 143.568 445.451 145.408 447.803 145.408C449.403 145.408 450.539 144.592 451.067 143.616V145.264H452.539V133.424H451.067V138.064C450.459 137.056 449.195 136.352 447.819 136.352C445.451 136.352 443.643 138.112 443.643 140.848ZM451.067 140.864C451.067 142.928 449.691 144.128 448.091 144.128C446.491 144.128 445.131 142.912 445.131 140.848C445.131 138.784 446.491 137.616 448.091 137.616C449.691 137.616 451.067 138.832 451.067 140.864ZM460.977 145.264H462.481L464.593 138.304L466.705 145.264H468.209L470.945 136.496H469.505L467.521 143.872L465.393 136.496H463.905L461.729 143.856L459.713 136.496H458.225L460.977 145.264ZM472.39 145.264H473.846V136.496H472.39V145.264ZM473.142 135.072C473.67 135.072 474.102 134.64 474.102 134.08C474.102 133.52 473.67 133.088 473.142 133.088C472.582 133.088 472.15 133.52 472.15 134.08C472.15 134.64 472.582 135.072 473.142 135.072ZM476.648 142.864C476.648 144.624 477.528 145.264 479.08 145.264H480.392V144.032H479.32C478.424 144.032 478.104 143.728 478.104 142.864V137.696H480.392V136.496H478.104V134.288H476.648V136.496H475.512V137.696H476.648V142.864ZM482.156 145.264H483.612V140.416C483.612 138.528 484.636 137.6 486.124 137.6C487.596 137.6 488.572 138.512 488.572 140.304V145.264H490.012V140.096C490.012 137.584 488.46 136.336 486.508 136.336C485.276 136.336 484.188 136.832 483.612 137.76V133.424H482.156V145.264ZM504.976 140.864C504.976 138.096 503.04 136.352 500.544 136.352C498.064 136.352 496.112 138.096 496.112 140.864C496.112 143.648 498 145.408 500.48 145.408C502.976 145.408 504.976 143.648 504.976 140.864ZM497.6 140.864C497.6 138.656 498.992 137.616 500.528 137.616C502.032 137.616 503.488 138.656 503.488 140.864C503.488 143.088 502 144.128 500.48 144.128C498.96 144.128 497.6 143.088 497.6 140.864ZM513.306 145.264H514.746V140.096C514.746 137.584 513.194 136.336 511.162 136.336C509.978 136.336 508.922 136.832 508.346 137.744V136.496H506.89V145.264H508.346V140.416C508.346 138.528 509.37 137.6 510.858 137.6C512.33 137.6 513.306 138.512 513.306 140.304V145.264ZM517.125 145.264H518.581V133.424H517.125V145.264ZM524.39 143.6L521.638 136.496H520.022L523.558 145.168L521.83 149.392H523.334L528.614 136.496H527.11L524.39 143.6ZM534.615 145.264H536.071V137.696H537.911V136.496H536.071V135.872C536.071 134.736 536.503 134.256 537.815 134.256V133.04C535.575 133.04 534.615 133.92 534.615 135.872V136.496H533.479V137.696H534.615V145.264ZM543.337 137.584C544.841 137.584 546.121 138.528 546.105 140.24H540.569C540.729 138.528 541.913 137.584 543.337 137.584ZM547.433 142.56H545.865C545.545 143.504 544.713 144.176 543.401 144.176C541.913 144.176 540.665 143.2 540.553 141.424H547.561C547.593 141.12 547.609 140.864 547.609 140.544C547.609 138.144 545.945 136.352 543.401 136.352C540.841 136.352 539.065 138.096 539.065 140.864C539.065 143.648 540.905 145.408 543.401 145.408C545.577 145.408 546.985 144.16 547.433 142.56ZM551.243 145.264H552.747L554.859 138.304L556.971 145.264H558.475L561.211 136.496H559.771L557.787 143.872L555.659 136.496H554.171L551.995 143.856L549.979 136.496H548.491L551.243 145.264ZM566.377 140.864C566.377 143.648 568.153 145.408 570.649 145.408C572.825 145.408 574.249 144.192 574.697 142.448H573.129C572.809 143.552 571.945 144.176 570.649 144.176C569.049 144.176 567.865 143.04 567.865 140.864C567.865 138.72 569.049 137.584 570.649 137.584C571.945 137.584 572.825 138.256 573.129 139.312H574.697C574.249 137.472 572.825 136.352 570.649 136.352C568.153 136.352 566.377 138.112 566.377 140.864ZM576.64 145.264H578.096V133.424H576.64V145.264ZM580.578 145.264H582.034V136.496H580.578V145.264ZM581.33 135.072C581.858 135.072 582.29 134.64 582.29 134.08C582.29 133.52 581.858 133.088 581.33 133.088C580.77 133.088 580.338 133.52 580.338 134.08C580.338 134.64 580.77 135.072 581.33 135.072ZM583.971 140.864C583.971 143.648 585.747 145.408 588.243 145.408C590.419 145.408 591.843 144.192 592.291 142.448H590.723C590.403 143.552 589.539 144.176 588.243 144.176C586.643 144.176 585.459 143.04 585.459 140.864C585.459 138.72 586.643 137.584 588.243 137.584C589.539 137.584 590.419 138.256 590.723 139.312H592.291C591.843 137.472 590.419 136.352 588.243 136.352C585.747 136.352 583.971 138.112 583.971 140.864ZM594.234 145.264H595.69V141.392L599.13 145.264H601.114L596.97 140.864L601.098 136.496H599.066L595.69 140.384V133.424H594.234V145.264ZM608.772 142.88C608.708 139.744 603.62 140.88 603.62 138.8C603.62 138.096 604.26 137.584 605.332 137.584C606.5 137.584 607.172 138.224 607.236 139.104H608.692C608.596 137.392 607.316 136.352 605.38 136.352C603.428 136.352 602.164 137.456 602.164 138.8C602.164 142.064 607.348 140.928 607.348 142.88C607.348 143.6 606.708 144.176 605.556 144.176C604.324 144.176 603.572 143.536 603.492 142.688H601.988C602.084 144.288 603.524 145.408 605.572 145.408C607.508 145.408 608.772 144.32 608.772 142.88Z" fill="#656668"/>
</svg>
