<svg width="595" height="113" viewBox="0 0 595 113" fill="none" xmlns="http://www.w3.org/2000/svg">
<g filter="url(#filter0_d)">
<rect x="19" y="16" width="556.56" height="75" rx="24" fill="white"/>
</g>
<path d="M87.4658 53.7422H82.5361V57.7734H88.2627V59H81.0361V47.625H88.1846V48.8594H82.5361V52.5156H87.4658V53.7422ZM91.2705 50.5469L91.3174 51.6094C91.9632 50.7969 92.807 50.3906 93.8486 50.3906C95.6351 50.3906 96.5361 51.3984 96.5518 53.4141V59H95.1064V53.4062C95.1012 52.7969 94.9606 52.3464 94.6846 52.0547C94.4137 51.763 93.9893 51.6172 93.4111 51.6172C92.9424 51.6172 92.5309 51.7422 92.1768 51.9922C91.8226 52.2422 91.5465 52.5703 91.3486 52.9766V59H89.9033V50.5469H91.2705ZM100.692 48.5V50.5469H102.271V51.6641H100.692V56.9062C100.692 57.2448 100.763 57.5 100.903 57.6719C101.044 57.8385 101.284 57.9219 101.622 57.9219C101.789 57.9219 102.018 57.8906 102.31 57.8281V59C101.929 59.1042 101.56 59.1562 101.2 59.1562C100.554 59.1562 100.067 58.9609 99.7393 58.5703C99.4111 58.1797 99.2471 57.625 99.2471 56.9062V51.6641H97.708V50.5469H99.2471V48.5H100.692ZM107.474 59.1562C106.328 59.1562 105.396 58.7812 104.677 58.0312C103.958 57.276 103.599 56.2682 103.599 55.0078V54.7422C103.599 53.9036 103.757 53.1562 104.075 52.5C104.398 51.8385 104.846 51.3229 105.419 50.9531C105.997 50.5781 106.622 50.3906 107.294 50.3906C108.393 50.3906 109.247 50.7526 109.856 51.4766C110.466 52.2005 110.771 53.237 110.771 54.5859V55.1875H105.044C105.065 56.0208 105.307 56.6953 105.771 57.2109C106.239 57.7214 106.833 57.9766 107.552 57.9766C108.062 57.9766 108.494 57.8724 108.849 57.6641C109.203 57.4557 109.513 57.1797 109.778 56.8359L110.661 57.5234C109.953 58.612 108.89 59.1562 107.474 59.1562ZM107.294 51.5781C106.711 51.5781 106.221 51.7917 105.825 52.2188C105.429 52.6406 105.185 53.2344 105.091 54H109.325V53.8906C109.284 53.1562 109.086 52.5885 108.731 52.1875C108.377 51.7812 107.898 51.5781 107.294 51.5781ZM116.536 51.8438C116.317 51.8073 116.08 51.7891 115.825 51.7891C114.877 51.7891 114.234 52.1927 113.896 53V59H112.45V50.5469H113.856L113.88 51.5234C114.354 50.7682 115.026 50.3906 115.896 50.3906C116.177 50.3906 116.39 50.4271 116.536 50.5V51.8438ZM124.606 56.8828L126.575 50.5469H128.122L124.724 60.3047C124.198 61.7109 123.362 62.4141 122.216 62.4141L121.942 62.3906L121.403 62.2891V61.1172L121.794 61.1484C122.284 61.1484 122.664 61.0495 122.935 60.8516C123.211 60.6536 123.437 60.2917 123.614 59.7656L123.935 58.9062L120.919 50.5469H122.497L124.606 56.8828ZM128.911 54.6953C128.911 53.8672 129.073 53.1224 129.396 52.4609C129.724 51.7995 130.177 51.2891 130.755 50.9297C131.338 50.5703 132.002 50.3906 132.747 50.3906C133.898 50.3906 134.828 50.7891 135.536 51.5859C136.25 52.3828 136.606 53.4427 136.606 54.7656V54.8672C136.606 55.6901 136.448 56.4297 136.13 57.0859C135.817 57.737 135.367 58.2448 134.778 58.6094C134.195 58.974 133.523 59.1562 132.763 59.1562C131.617 59.1562 130.687 58.7578 129.974 57.9609C129.265 57.1641 128.911 56.1094 128.911 54.7969V54.6953ZM130.364 54.8672C130.364 55.8047 130.58 56.5573 131.013 57.125C131.45 57.6927 132.034 57.9766 132.763 57.9766C133.497 57.9766 134.08 57.6901 134.513 57.1172C134.945 56.5391 135.161 55.7318 135.161 54.6953C135.161 53.7682 134.94 53.0182 134.497 52.4453C134.06 51.8672 133.476 51.5781 132.747 51.5781C132.034 51.5781 131.458 51.862 131.021 52.4297C130.583 52.9974 130.364 53.8099 130.364 54.8672ZM143.638 58.1641C143.075 58.8255 142.25 59.1562 141.161 59.1562C140.26 59.1562 139.573 58.8958 139.099 58.375C138.63 57.849 138.393 57.0729 138.388 56.0469V50.5469H139.833V56.0078C139.833 57.2891 140.354 57.9297 141.396 57.9297C142.5 57.9297 143.234 57.5182 143.599 56.6953V50.5469H145.044V59H143.669L143.638 58.1641ZM151.333 51.8438C151.114 51.8073 150.877 51.7891 150.622 51.7891C149.674 51.7891 149.031 52.1927 148.692 53V59H147.247V50.5469H148.653L148.677 51.5234C149.151 50.7682 149.823 50.3906 150.692 50.3906C150.974 50.3906 151.187 50.4271 151.333 50.5V51.8438ZM158.364 54.5469V59H156.864V47.625H161.06C162.304 47.625 163.278 47.9427 163.981 48.5781C164.69 49.2135 165.044 50.0547 165.044 51.1016C165.044 52.2057 164.698 53.0573 164.005 53.6562C163.317 54.25 162.33 54.5469 161.044 54.5469H158.364ZM158.364 53.3203H161.06C161.862 53.3203 162.476 53.1328 162.903 52.7578C163.33 52.3776 163.544 51.8307 163.544 51.1172C163.544 50.4401 163.33 49.8984 162.903 49.4922C162.476 49.0859 161.89 48.875 161.146 48.8594H158.364V53.3203ZM168.567 59H167.067V47.625H168.567V59ZM180.06 59H178.552L172.825 50.2344V59H171.317V47.625H172.825L178.567 56.4297V47.625H180.06V59ZM188.427 48.5V50.5469H190.005V51.6641H188.427V56.9062C188.427 57.2448 188.497 57.5 188.638 57.6719C188.778 57.8385 189.018 57.9219 189.356 57.9219C189.523 57.9219 189.752 57.8906 190.044 57.8281V59C189.664 59.1042 189.294 59.1562 188.935 59.1562C188.289 59.1562 187.802 58.9609 187.474 58.5703C187.146 58.1797 186.981 57.625 186.981 56.9062V51.6641H185.442V50.5469H186.981V48.5H188.427ZM191.161 54.6953C191.161 53.8672 191.323 53.1224 191.646 52.4609C191.974 51.7995 192.427 51.2891 193.005 50.9297C193.588 50.5703 194.252 50.3906 194.997 50.3906C196.148 50.3906 197.078 50.7891 197.786 51.5859C198.5 52.3828 198.856 53.4427 198.856 54.7656V54.8672C198.856 55.6901 198.698 56.4297 198.38 57.0859C198.067 57.737 197.617 58.2448 197.028 58.6094C196.445 58.974 195.773 59.1562 195.013 59.1562C193.867 59.1562 192.937 58.7578 192.224 57.9609C191.515 57.1641 191.161 56.1094 191.161 54.7969V54.6953ZM192.614 54.8672C192.614 55.8047 192.83 56.5573 193.263 57.125C193.7 57.6927 194.284 57.9766 195.013 57.9766C195.747 57.9766 196.33 57.6901 196.763 57.1172C197.195 56.5391 197.411 55.7318 197.411 54.6953C197.411 53.7682 197.19 53.0182 196.747 52.4453C196.31 51.8672 195.726 51.5781 194.997 51.5781C194.284 51.5781 193.708 51.862 193.271 52.4297C192.833 52.9974 192.614 53.8099 192.614 54.8672ZM211.778 54.8672C211.778 56.1536 211.484 57.1901 210.896 57.9766C210.307 58.763 209.51 59.1562 208.505 59.1562C207.479 59.1562 206.672 58.8307 206.083 58.1797V62.25H204.638V50.5469H205.958L206.028 51.4844C206.617 50.7552 207.435 50.3906 208.481 50.3906C209.497 50.3906 210.299 50.7734 210.888 51.5391C211.481 52.3047 211.778 53.3698 211.778 54.7344V54.8672ZM210.333 54.7031C210.333 53.75 210.13 52.9974 209.724 52.4453C209.317 51.8932 208.76 51.6172 208.052 51.6172C207.177 51.6172 206.521 52.0052 206.083 52.7812V56.8203C206.515 57.5911 207.177 57.9766 208.067 57.9766C208.76 57.9766 209.31 57.7031 209.716 57.1562C210.127 56.6042 210.333 55.7865 210.333 54.7031ZM217.708 51.8438C217.489 51.8073 217.252 51.7891 216.997 51.7891C216.049 51.7891 215.406 52.1927 215.067 53V59H213.622V50.5469H215.028L215.052 51.5234C215.526 50.7682 216.198 50.3906 217.067 50.3906C217.349 50.3906 217.562 50.4271 217.708 50.5V51.8438ZM218.505 54.6953C218.505 53.8672 218.666 53.1224 218.989 52.4609C219.317 51.7995 219.771 51.2891 220.349 50.9297C220.932 50.5703 221.596 50.3906 222.341 50.3906C223.492 50.3906 224.422 50.7891 225.13 51.5859C225.843 52.3828 226.2 53.4427 226.2 54.7656V54.8672C226.2 55.6901 226.041 56.4297 225.724 57.0859C225.411 57.737 224.961 58.2448 224.372 58.6094C223.789 58.974 223.117 59.1562 222.356 59.1562C221.211 59.1562 220.281 58.7578 219.567 57.9609C218.859 57.1641 218.505 56.1094 218.505 54.7969V54.6953ZM219.958 54.8672C219.958 55.8047 220.174 56.5573 220.606 57.125C221.044 57.6927 221.627 57.9766 222.356 57.9766C223.091 57.9766 223.674 57.6901 224.106 57.1172C224.539 56.5391 224.755 55.7318 224.755 54.6953C224.755 53.7682 224.534 53.0182 224.091 52.4453C223.653 51.8672 223.07 51.5781 222.341 51.5781C221.627 51.5781 221.052 51.862 220.614 52.4297C220.177 52.9974 219.958 53.8099 219.958 54.8672ZM231.403 57.9766C231.919 57.9766 232.369 57.8203 232.755 57.5078C233.14 57.1953 233.354 56.8047 233.396 56.3359H234.763C234.737 56.8203 234.57 57.2812 234.263 57.7188C233.955 58.1562 233.544 58.5052 233.028 58.7656C232.518 59.026 231.976 59.1562 231.403 59.1562C230.252 59.1562 229.336 58.7734 228.653 58.0078C227.976 57.237 227.638 56.1849 227.638 54.8516V54.6094C227.638 53.7865 227.789 53.0547 228.091 52.4141C228.393 51.7734 228.825 51.276 229.388 50.9219C229.955 50.5677 230.625 50.3906 231.396 50.3906C232.343 50.3906 233.13 50.6745 233.755 51.2422C234.385 51.8099 234.721 52.5469 234.763 53.4531H233.396C233.354 52.9062 233.146 52.4583 232.771 52.1094C232.401 51.7552 231.942 51.5781 231.396 51.5781C230.661 51.5781 230.091 51.8438 229.685 52.375C229.284 52.901 229.083 53.6641 229.083 54.6641V54.9375C229.083 55.9115 229.284 56.6615 229.685 57.1875C230.086 57.7135 230.659 57.9766 231.403 57.9766ZM239.896 59.1562C238.75 59.1562 237.817 58.7812 237.099 58.0312C236.38 57.276 236.021 56.2682 236.021 55.0078V54.7422C236.021 53.9036 236.179 53.1562 236.497 52.5C236.82 51.8385 237.268 51.3229 237.841 50.9531C238.419 50.5781 239.044 50.3906 239.716 50.3906C240.815 50.3906 241.669 50.7526 242.278 51.4766C242.888 52.2005 243.192 53.237 243.192 54.5859V55.1875H237.466C237.487 56.0208 237.729 56.6953 238.192 57.2109C238.661 57.7214 239.255 57.9766 239.974 57.9766C240.484 57.9766 240.916 57.8724 241.271 57.6641C241.625 57.4557 241.935 57.1797 242.2 56.8359L243.083 57.5234C242.375 58.612 241.312 59.1562 239.896 59.1562ZM239.716 51.5781C239.132 51.5781 238.643 51.7917 238.247 52.2188C237.851 52.6406 237.606 53.2344 237.513 54H241.747V53.8906C241.705 53.1562 241.507 52.5885 241.153 52.1875C240.799 51.7812 240.32 51.5781 239.716 51.5781ZM248.38 59.1562C247.234 59.1562 246.302 58.7812 245.583 58.0312C244.864 57.276 244.505 56.2682 244.505 55.0078V54.7422C244.505 53.9036 244.664 53.1562 244.981 52.5C245.304 51.8385 245.752 51.3229 246.325 50.9531C246.903 50.5781 247.528 50.3906 248.2 50.3906C249.299 50.3906 250.153 50.7526 250.763 51.4766C251.372 52.2005 251.677 53.237 251.677 54.5859V55.1875H245.95C245.971 56.0208 246.213 56.6953 246.677 57.2109C247.146 57.7214 247.739 57.9766 248.458 57.9766C248.968 57.9766 249.401 57.8724 249.755 57.6641C250.109 57.4557 250.419 57.1797 250.685 56.8359L251.567 57.5234C250.859 58.612 249.797 59.1562 248.38 59.1562ZM248.2 51.5781C247.617 51.5781 247.127 51.7917 246.731 52.2188C246.336 52.6406 246.091 53.2344 245.997 54H250.231V53.8906C250.19 53.1562 249.992 52.5885 249.638 52.1875C249.284 51.7812 248.804 51.5781 248.2 51.5781ZM253.005 54.7031C253.005 53.4062 253.312 52.3646 253.927 51.5781C254.541 50.7865 255.346 50.3906 256.341 50.3906C257.33 50.3906 258.114 50.7292 258.692 51.4062V47H260.138V59H258.81L258.739 58.0938C258.161 58.8021 257.356 59.1562 256.325 59.1562C255.346 59.1562 254.547 58.7552 253.927 57.9531C253.312 57.151 253.005 56.1042 253.005 54.8125V54.7031ZM254.45 54.8672C254.45 55.8255 254.648 56.5755 255.044 57.1172C255.44 57.6589 255.987 57.9297 256.685 57.9297C257.601 57.9297 258.271 57.5182 258.692 56.6953V52.8125C258.26 52.0156 257.596 51.6172 256.7 51.6172C255.992 51.6172 255.44 51.8906 255.044 52.4375C254.648 52.9844 254.45 53.7943 254.45 54.8672ZM262.419 58.2422C262.419 57.9922 262.492 57.7839 262.638 57.6172C262.789 57.4505 263.013 57.3672 263.31 57.3672C263.606 57.3672 263.83 57.4505 263.981 57.6172C264.138 57.7839 264.216 57.9922 264.216 58.2422C264.216 58.4818 264.138 58.6823 263.981 58.8438C263.83 59.0052 263.606 59.0859 263.31 59.0859C263.013 59.0859 262.789 59.0052 262.638 58.8438C262.492 58.6823 262.419 58.4818 262.419 58.2422Z" fill="#6654A4"/>
<path d="M37.4786 47.688H40.3266C40.6146 45.448 42.2466 43.912 44.9666 43.912C47.7506 43.912 49.2226 45.448 49.2226 47.656C49.2226 50.344 47.1426 51.528 43.2706 51.56H42.5026V53.992H43.2386C47.3986 53.992 49.6706 55.24 49.6706 58.504C49.6706 60.872 48.1986 62.696 45.0946 62.696C42.0226 62.696 40.2306 60.808 39.9426 58.344H37.1266C37.4786 62.824 40.7426 65.16 45.1266 65.16C49.9586 65.16 52.4546 62.344 52.4546 58.76C52.4546 55.432 50.6306 53.448 47.9426 52.808V52.648C50.3746 52.104 52.0386 50.024 52.0386 47.368C52.0386 44.04 49.5746 41.416 45.0626 41.416C40.7746 41.416 37.7666 43.72 37.4786 47.688Z" fill="#6654A4"/>
<defs>
<filter id="filter0_d" x="0" y="0" width="594.56" height="113" filterUnits="userSpaceOnUse" color-interpolation-filters="sRGB">
<feFlood flood-opacity="0" result="BackgroundImageFix"/>
<feColorMatrix in="SourceAlpha" type="matrix" values="0 0 0 0 0 0 0 0 0 0 0 0 0 0 0 0 0 0 127 0"/>
<feMorphology radius="4" operator="dilate" in="SourceAlpha" result="effect1_dropShadow"/>
<feOffset dy="3"/>
<feGaussianBlur stdDeviation="7.5"/>
<feColorMatrix type="matrix" values="0 0 0 0 0.872109 0 0 0 0 0.853125 0 0 0 0 0.9375 0 0 0 0.5 0"/>
<feBlend mode="normal" in2="BackgroundImageFix" result="effect1_dropShadow"/>
<feBlend mode="normal" in="SourceGraphic" in2="effect1_dropShadow" result="shape"/>
</filter>
</defs>
</svg>
