<svg width="228" height="320" viewBox="0 0 228 320" fill="none" xmlns="http://www.w3.org/2000/svg">
<g clip-path="url(#clip0)">
<path d="M10.1341 80.409C14.086 74.1453 18.6124 70.404 23.5243 68.4504C31.0717 65.4217 39.5496 66.5838 48.315 69.2015C48.5826 69.2732 48.84 69.3521 49.1077 69.431C50.2972 69.803 51.4955 70.1931 52.7027 70.6013C66.4594 75.2756 80.6628 82.315 92.9437 81.3656C98.5595 80.9306 104.68 79.0717 111.245 76.6201C117.118 74.4215 123.368 71.7403 129.934 69.1697C131.103 68.7086 132.279 68.2603 133.47 67.8094C136.501 66.6704 139.601 65.579 142.77 64.5815C160.528 58.9966 180.308 56.5301 201.572 66.923C216.407 74.1755 246.179 115.374 212.129 156.083C174.295 201.331 73.2616 200.619 44.0245 187.759C-7.72292 164.998 -6.27716 106.407 10.1341 80.409Z" fill="#D6DCFD"/>
<path d="M72.9931 118.408C94.6325 118.408 112.175 100.777 112.175 79.0287C112.175 57.28 94.6325 39.6492 72.9931 39.6492C51.3537 39.6492 33.8115 57.28 33.8115 79.0287C33.8115 100.777 51.3537 118.408 72.9931 118.408Z" fill="#7A67D3"/>
<path d="M95.6864 21.0994H50.3017C47.3057 21.0994 44.877 23.5404 44.877 26.5515V121.326C44.877 124.337 47.3057 126.778 50.3017 126.778H95.6864C98.6824 126.778 101.111 124.337 101.111 121.326V26.5515C101.111 23.5404 98.6824 21.0994 95.6864 21.0994Z" fill="#323232"/>
<path d="M85.0998 24.8642V26.3035C85.1 26.8694 84.8765 27.4121 84.4785 27.8124C84.0805 28.2127 83.5406 28.4377 82.9775 28.438H63.0095C62.7308 28.4379 62.4547 28.3825 62.1972 28.2752C61.9397 28.1679 61.7059 28.0106 61.5088 27.8124C61.3118 27.6142 61.1555 27.3789 61.049 27.12C60.9424 26.8611 60.8876 26.5837 60.8878 26.3035V24.8642C60.8878 24.7729 60.87 24.6825 60.8353 24.5982C60.8005 24.5138 60.7497 24.4372 60.6855 24.3726C60.6213 24.3081 60.545 24.2568 60.4611 24.2219C60.3772 24.1869 60.2873 24.1689 60.1965 24.1689H51.9378C51.4457 24.1691 50.9586 24.2668 50.504 24.4562C50.0494 24.6457 49.6364 24.9233 49.2886 25.2732C48.9408 25.6231 48.665 26.0385 48.4769 26.4955C48.2888 26.9525 48.1921 27.4423 48.1924 27.9369V119.941C48.1921 120.436 48.2888 120.926 48.4769 121.383C48.665 121.84 48.9408 122.255 49.2886 122.605C49.6364 122.955 50.0494 123.232 50.504 123.422C50.9586 123.611 51.4457 123.709 51.9378 123.709H94.0467C94.5388 123.709 95.0261 123.611 95.4806 123.422C95.9352 123.232 96.3483 122.955 96.6961 122.605C97.044 122.255 97.3198 121.84 97.5079 121.383C97.6961 120.926 97.7928 120.436 97.7926 119.941V27.9369C97.7928 27.4423 97.6961 26.9525 97.5079 26.4955C97.3198 26.0384 97.044 25.6231 96.6961 25.2732C96.3483 24.9233 95.9352 24.6457 95.4806 24.4562C95.0261 24.2668 94.5388 24.1691 94.0467 24.1689H85.7881C85.6052 24.1698 85.43 24.2434 85.301 24.3737C85.172 24.504 85.0997 24.6804 85.0998 24.8642Z" fill="white"/>
<path d="M99.1261 113.196H47.2568V124.061H99.1261V113.196Z" fill="#323232"/>
<path d="M73.7638 123.237C75.9326 123.237 77.6908 121.469 77.6908 119.287C77.6908 117.105 75.9326 115.336 73.7638 115.336C71.5951 115.336 69.8369 117.105 69.8369 119.287C69.8369 121.469 71.5951 123.237 73.7638 123.237Z" fill="#545454"/>
<path d="M76.7099 119.285C76.7101 119.674 76.6342 120.059 76.4863 120.418C76.3384 120.778 76.1215 121.104 75.848 121.379C75.5745 121.654 75.2498 121.873 74.8924 122.022C74.535 122.171 74.1518 122.248 73.7649 122.248C73.3779 122.248 72.9948 122.171 72.6373 122.022C72.2798 121.873 71.955 121.655 71.6815 121.38C71.4079 121.104 71.191 120.778 71.0431 120.418C70.8952 120.059 70.8191 119.674 70.8193 119.285C70.8191 118.896 70.8952 118.511 71.0431 118.151C71.191 117.792 71.4079 117.465 71.6815 117.19C71.955 116.915 72.2798 116.697 72.6373 116.548C72.9948 116.399 73.3779 116.322 73.7649 116.322C74.1518 116.322 74.535 116.399 74.8924 116.548C75.2498 116.697 75.5745 116.915 75.848 117.19C76.1215 117.465 76.3384 117.792 76.4863 118.151C76.6342 118.511 76.7101 118.896 76.7099 119.285Z" fill="#737373"/>
<path d="M77.4106 24.9656H65.3035C64.9417 24.9656 64.6484 25.2603 64.6484 25.624C64.6484 25.9876 64.9417 26.2824 65.3035 26.2824H77.4106C77.7724 26.2824 78.0657 25.9876 78.0657 25.624C78.0657 25.2603 77.7724 24.9656 77.4106 24.9656Z" fill="#A4A5A4"/>
<path d="M81.3387 25.6241C81.3388 25.7537 81.3134 25.8821 81.2641 26.0019C81.2148 26.1217 81.1425 26.2305 81.0514 26.3222C80.9602 26.4139 80.8519 26.4866 80.7327 26.5363C80.6136 26.5859 80.4859 26.6114 80.3569 26.6114C80.0964 26.6113 79.8467 26.5072 79.6626 26.3221C79.4784 26.1369 79.375 25.8859 79.375 25.6241C79.3749 25.4944 79.4003 25.366 79.4496 25.2462C79.4989 25.1264 79.5712 25.0175 79.6624 24.9258C79.7536 24.8341 79.8618 24.7613 79.981 24.7116C80.1002 24.6619 80.2279 24.6363 80.3569 24.6362C80.4859 24.6363 80.6136 24.6619 80.7328 24.7116C80.852 24.7613 80.9602 24.8341 81.0514 24.9258C81.1425 25.0175 81.2148 25.1264 81.2641 25.2462C81.3134 25.366 81.3388 25.4944 81.3387 25.6241Z" fill="#A4A5A4"/>
<path d="M61.1616 78.4497V83.8947H60.1543V79.2972H59.0098V78.4497H61.1616Z" fill="#263238"/>
<path d="M62.2354 81.1739C62.2354 79.3852 63.2106 78.3733 64.4957 78.3733C65.7809 78.3733 66.7633 79.3852 66.7633 81.1739C66.7633 82.9625 65.7881 83.9745 64.4957 83.9745C63.2034 83.9745 62.2354 82.9636 62.2354 81.1739ZM65.7493 81.1739C65.7493 79.8591 65.2395 79.253 64.4957 79.253C63.7611 79.253 63.2493 79.8591 63.2493 81.1739C63.2493 82.4886 63.7591 83.0952 64.4957 83.0952C65.239 83.0952 65.7493 82.4891 65.7493 81.1739Z" fill="#263238"/>
<path d="M67.4111 81.1739C67.4111 79.3852 68.3863 78.3733 69.6715 78.3733C70.9567 78.3733 71.9391 79.3852 71.9391 81.1739C71.9391 82.9625 70.9638 83.9745 69.6715 83.9745C68.3792 83.9745 67.4111 82.9636 67.4111 81.1739ZM70.9251 81.1739C70.9251 79.8591 70.4153 79.253 69.6715 79.253C68.9369 79.253 68.4251 79.8591 68.4251 81.1739C68.4251 82.4886 68.9349 83.0952 69.6715 83.0952C70.4148 83.0952 70.9251 82.4891 70.9251 81.1739Z" fill="#263238"/>
<path d="M72.9555 83.3059C72.9524 83.221 72.9666 83.1363 72.9972 83.057C73.0278 82.9778 73.0743 82.9057 73.1337 82.8452C73.1931 82.7846 73.2642 82.7369 73.3426 82.7051C73.4211 82.6732 73.5051 82.6578 73.5897 82.6598C73.6743 82.6578 73.7585 82.6732 73.837 82.7051C73.9155 82.7369 73.9867 82.7845 74.0462 82.845C74.1058 82.9055 74.1523 82.9776 74.1831 83.0569C74.2139 83.1361 74.2283 83.2209 74.2254 83.3059C74.227 83.3906 74.2116 83.4747 74.1803 83.5533C74.149 83.6319 74.1024 83.7034 74.0431 83.7636C73.9839 83.8238 73.9132 83.8714 73.8353 83.9037C73.7574 83.936 73.6739 83.9522 73.5897 83.9515C73.5056 83.9522 73.4222 83.9358 73.3444 83.9035C73.2666 83.8712 73.1961 83.8235 73.137 83.7633C73.0779 83.7031 73.0313 83.6317 73.0001 83.5531C72.969 83.4745 72.9538 83.3905 72.9555 83.3059Z" fill="#263238"/>
<path d="M74.7812 81.1739C74.7812 79.3852 75.7555 78.3733 77.0407 78.3733C78.3258 78.3733 79.3082 79.3852 79.3082 81.1739C79.3082 82.9625 78.3325 83.9745 77.0407 83.9745C75.7488 83.9745 74.7812 82.9636 74.7812 81.1739ZM78.2937 81.1739C78.2937 79.8591 77.7839 79.253 77.0407 79.253C76.3055 79.253 75.7937 79.8591 75.7937 81.1739C75.7937 82.4886 76.3035 83.0952 77.0407 83.0952C77.7834 83.0952 78.2937 82.4891 78.2937 81.1739Z" fill="#263238"/>
<path d="M83.9284 82.2242C83.9284 83.1813 83.2392 83.9745 81.7832 83.9745C81.055 83.99 80.3413 83.7689 79.748 83.3442L80.1732 82.5588C80.6296 82.9127 81.1914 83.1017 81.7679 83.0952C82.4877 83.0952 82.9138 82.7765 82.9138 82.2636C82.9138 81.742 82.581 81.4152 81.4584 81.4152H80.1513L80.4292 78.4517H83.6103V79.2991H81.281L81.1637 80.56H81.6827C83.2855 80.56 83.9284 81.2594 83.9284 82.2242Z" fill="#263238"/>
<path d="M87.3234 92.1321H57.7585C54.9115 92.1321 52.6035 94.4517 52.6035 97.3131V97.3178C52.6035 100.179 54.9115 102.499 57.7585 102.499H87.3234C90.1705 102.499 92.4784 100.179 92.4784 97.3178V97.3131C92.4784 94.4517 90.1705 92.1321 87.3234 92.1321Z" fill="#6654A4"/>
<path d="M65.6396 95.2444V95.8772H65.1514V98.4065H64.3291V95.8772H63.8428V95.2444H65.6396ZM65.8271 95.2444H66.4092C66.7972 95.2444 67.0596 95.2594 67.1963 95.2893C67.3343 95.3193 67.4463 95.3961 67.5322 95.5198C67.6195 95.6422 67.6631 95.8381 67.6631 96.1077C67.6631 96.3538 67.6325 96.5191 67.5713 96.6038C67.5101 96.6884 67.3896 96.7392 67.21 96.7561C67.3727 96.7965 67.4821 96.8505 67.5381 96.9182C67.5941 96.9859 67.6286 97.0484 67.6416 97.1057C67.6559 97.1617 67.6631 97.3173 67.6631 97.5725V98.4065H66.8994V97.3557C66.8994 97.1864 66.8857 97.0816 66.8584 97.0413C66.8324 97.0009 66.7627 96.9807 66.6494 96.9807V98.4065H65.8271V95.2444ZM66.6494 95.7854V96.4885C66.7419 96.4885 66.8063 96.4762 66.8428 96.4514C66.8805 96.4254 66.8994 96.3427 66.8994 96.2034V96.0295C66.8994 95.9293 66.8812 95.8635 66.8447 95.8323C66.8096 95.801 66.7445 95.7854 66.6494 95.7854ZM69.4033 95.2444L69.874 98.4065H69.0322L68.9912 97.8381H68.6963L68.6475 98.4065H67.7959L68.2139 95.2444H69.4033ZM68.9678 97.2776C68.9261 96.9195 68.8844 96.4775 68.8428 95.9514C68.7594 96.5556 68.7074 96.9976 68.6865 97.2776H68.9678ZM71.8506 95.2444V98.4065H71.1299L70.7021 96.969V98.4065H70.0146V95.2444H70.7021L71.1631 96.6682V95.2444H71.8506ZM73.9248 96.2014H73.1611V95.967C73.1611 95.8577 73.1514 95.788 73.1318 95.7581C73.1123 95.7281 73.0798 95.7131 73.0342 95.7131C72.9847 95.7131 72.9469 95.7333 72.9209 95.7737C72.8962 95.814 72.8838 95.8752 72.8838 95.9573C72.8838 96.0627 72.8981 96.1422 72.9268 96.1956C72.9541 96.2489 73.0316 96.3134 73.1592 96.3889C73.5251 96.6064 73.7555 96.7847 73.8506 96.9241C73.9456 97.0634 73.9932 97.288 73.9932 97.5979C73.9932 97.8232 73.9665 97.9892 73.9131 98.0959C73.861 98.2027 73.7594 98.2926 73.6084 98.3655C73.4574 98.4371 73.2816 98.4729 73.0811 98.4729C72.861 98.4729 72.6729 98.4312 72.5166 98.3479C72.3617 98.2646 72.2601 98.1584 72.2119 98.0295C72.1637 97.9006 72.1396 97.7177 72.1396 97.4807V97.2737H72.9033V97.6584C72.9033 97.7769 72.9137 97.8531 72.9346 97.887C72.9567 97.9208 72.9951 97.9377 73.0498 97.9377C73.1045 97.9377 73.1449 97.9163 73.1709 97.8733C73.1982 97.8303 73.2119 97.7665 73.2119 97.6819C73.2119 97.4957 73.1865 97.3739 73.1357 97.3167C73.0837 97.2594 72.9554 97.1637 72.751 97.0295C72.5465 96.8941 72.4111 96.7958 72.3447 96.7346C72.2783 96.6734 72.223 96.5888 72.1787 96.4807C72.1357 96.3726 72.1143 96.2346 72.1143 96.0667C72.1143 95.8245 72.1449 95.6474 72.2061 95.5354C72.2686 95.4234 72.3688 95.3362 72.5068 95.2737C72.6449 95.2099 72.8115 95.178 73.0068 95.178C73.2204 95.178 73.402 95.2125 73.5518 95.2815C73.7028 95.3505 73.8024 95.4377 73.8506 95.5432C73.9001 95.6474 73.9248 95.8251 73.9248 96.0764V96.2014ZM74.2529 95.2444H75.6455V95.8772H75.0752V96.4768H75.583V97.0784H75.0752V98.4065H74.2529V95.2444ZM75.8467 95.2444H77.2178V95.8772H76.6689V96.4768H77.1826V97.0784H76.6689V97.7737H77.2725V98.4065H75.8467V95.2444ZM77.5107 95.2444H78.0928C78.4808 95.2444 78.7432 95.2594 78.8799 95.2893C79.0179 95.3193 79.1299 95.3961 79.2158 95.5198C79.3031 95.6422 79.3467 95.8381 79.3467 96.1077C79.3467 96.3538 79.3161 96.5191 79.2549 96.6038C79.1937 96.6884 79.0732 96.7392 78.8936 96.7561C79.0563 96.7965 79.1657 96.8505 79.2217 96.9182C79.2777 96.9859 79.3122 97.0484 79.3252 97.1057C79.3395 97.1617 79.3467 97.3173 79.3467 97.5725V98.4065H78.583V97.3557C78.583 97.1864 78.5693 97.0816 78.542 97.0413C78.516 97.0009 78.4463 96.9807 78.333 96.9807V98.4065H77.5107V95.2444ZM78.333 95.7854V96.4885C78.4255 96.4885 78.4899 96.4762 78.5264 96.4514C78.5641 96.4254 78.583 96.3427 78.583 96.2034V96.0295C78.583 95.9293 78.5648 95.8635 78.5283 95.8323C78.4932 95.801 78.4281 95.7854 78.333 95.7854Z" fill="white"/>
<path d="M71.7262 49.0593H52.6885V50.0041H71.7262V49.0593Z" fill="#6654A4"/>
<path d="M71.7262 52.6079H52.6885V53.5527H71.7262V52.6079Z" fill="#6654A4"/>
<path d="M93.4068 49.0593H74.3691V50.0041H93.4068V49.0593Z" fill="#6654A4"/>
<path d="M93.4068 52.6079H74.3691V53.5527H93.4068V52.6079Z" fill="#6654A4"/>
<path d="M71.7262 56.0044H52.6885V56.9492H71.7262V56.0044Z" fill="#6654A4"/>
<path d="M71.7262 59.5532H52.6885V60.498H71.7262V59.5532Z" fill="#6654A4"/>
<path d="M93.4068 56.0044H74.3691V56.9492H93.4068V56.0044Z" fill="#6654A4"/>
<path d="M93.4068 59.5532H74.3691V60.498H93.4068V59.5532Z" fill="#6654A4"/>
<path d="M46.271 64.0947C46.271 64.0947 50.5115 67.7715 51.4352 72.0528C52.6745 77.7964 46.7809 86.497 47.1056 93.5779C47.4808 101.762 51.9139 105.297 54.6122 110.721C57.7322 116.993 57.5089 121.116 57.5089 123.264C57.5224 124.511 57.2538 125.745 56.7233 126.873H86.0032C86.0032 126.873 80.2328 135.68 68.9053 142.768C59.6362 148.569 54.7993 158.447 54.7993 158.447H13.7646L28.5384 133.788C28.5384 133.788 25.8641 120.798 27.4429 111.405C30.2988 94.4136 46.271 64.0947 46.271 64.0947Z" fill="#B78876"/>
<path d="M56.8576 126.785C56.8576 126.785 55.2976 129.694 53.4751 132.67C51.6526 135.646 50.5137 137.249 50.5137 137.249C50.5137 137.249 54.8214 136.077 57.5753 134.044C60.3333 131.999 62.8028 129.588 64.9164 126.876L56.8576 126.785Z" fill="#9B6754"/>
<path d="M97.5595 2.90169L98.8294 0.568359L100.099 2.90169C101.369 5.23493 103.277 7.15337 105.599 8.42962L107.921 9.70594L105.599 10.9817C103.277 12.258 101.369 14.1764 100.099 16.5097L98.8294 18.843L97.5595 16.5097C96.2899 14.1763 94.3811 12.2578 92.0594 10.9817L89.7383 9.70594L92.0594 8.42962C94.3811 7.15353 96.2899 5.23506 97.5595 2.90169Z" fill="#6654A4"/>
<path d="M74.4397 11.3527L74.9786 10.3633L75.5169 11.3527C76.0552 12.3425 76.8648 13.1563 77.8497 13.6973L78.8341 14.2383L77.8497 14.7794C76.8651 15.3207 76.0555 16.1344 75.5169 17.124L74.9786 18.1134L74.4397 17.124C73.9012 16.1345 73.0918 15.3209 72.1074 14.7794L71.123 14.2383L72.1074 13.6973C73.0921 13.1562 73.9016 12.3425 74.4397 11.3527Z" fill="#6654A4"/>
<path d="M108.108 38.2575L108.356 37.802L108.604 38.2575C108.852 38.713 109.224 39.0876 109.678 39.337L110.131 39.5861L109.678 39.8351C109.224 40.0845 108.852 40.4592 108.604 40.9146L108.356 41.3701L108.108 40.9146C107.86 40.4592 107.487 40.0846 107.034 39.8351L106.58 39.5861L107.034 39.337C107.487 39.0875 107.86 38.7129 108.108 38.2575Z" fill="#6654A4"/>
<path d="M111.072 20.1494L111.524 19.3188L111.976 20.1494C112.428 20.9803 113.108 21.6635 113.935 22.1179L114.761 22.5724L113.935 23.0268C113.108 23.4812 112.428 24.1645 111.976 24.9954L111.524 25.8259L111.072 24.9954C110.62 24.1644 109.94 23.4812 109.113 23.0268L108.287 22.5724L109.113 22.1179C109.94 21.6636 110.62 20.9804 111.072 20.1494Z" fill="#6654A4"/>
<path d="M63.8398 71.3137C63.8464 71.3403 63.8498 71.3603 63.8498 71.3737C63.8498 71.417 63.8348 71.452 63.8048 71.4787C63.7748 71.5053 63.7398 71.5187 63.6998 71.5187C63.6664 71.5187 63.6364 71.5103 63.6098 71.4937C63.5864 71.4737 63.5681 71.4487 63.5548 71.4187L63.1798 70.5037H61.5548L61.1848 71.4187C61.1581 71.4853 61.1131 71.5187 61.0498 71.5187C61.0031 71.5187 60.9681 71.507 60.9448 71.4837C60.9214 71.4603 60.9081 71.4287 60.9048 71.3887V71.3737C60.9048 71.3537 60.9064 71.3387 60.9098 71.3287L62.2298 68.0987C62.2564 68.032 62.3064 67.9987 62.3798 67.9987C62.4131 67.9987 62.4414 68.0087 62.4648 68.0287C62.4914 68.0453 62.5114 68.0687 62.5248 68.0987L63.8398 71.3137ZM61.6698 70.2087H63.0598L62.3598 68.4987L61.6698 70.2087ZM67.5171 68.0137C67.5571 68.0137 67.5904 68.0287 67.6171 68.0587C67.6471 68.0853 67.6621 68.1203 67.6621 68.1637V71.3637C67.6621 71.407 67.6471 71.4437 67.6171 71.4737C67.5871 71.5003 67.5504 71.5137 67.5071 71.5137C67.4604 71.5137 67.4221 71.5003 67.3921 71.4737C67.3621 71.4437 67.3471 71.407 67.3471 71.3637V68.6137L66.1721 70.3937C66.1387 70.437 66.1004 70.457 66.0571 70.4537H66.0471C66.0071 70.4537 65.9704 70.4337 65.9371 70.3937L64.7621 68.6037V71.3637C64.7621 71.407 64.7471 71.4437 64.7171 71.4737C64.6904 71.5003 64.6554 71.5137 64.6121 71.5137C64.5687 71.5137 64.5337 71.5003 64.5071 71.4737C64.4804 71.4437 64.4671 71.407 64.4671 71.3637V68.1637C64.4671 68.1237 64.4804 68.0887 64.5071 68.0587C64.5371 68.0287 64.5737 68.0137 64.6171 68.0137C64.6404 68.0137 64.6654 68.0203 64.6921 68.0337C64.7187 68.0437 64.7387 68.0587 64.7521 68.0787L66.0621 70.0437L67.3821 68.0787C67.4187 68.0287 67.4637 68.007 67.5171 68.0137ZM71.7228 69.7637C71.7228 70.107 71.6511 70.4153 71.5078 70.6887C71.3645 70.962 71.1661 71.177 70.9128 71.3337C70.6595 71.487 70.3711 71.5637 70.0478 71.5637C69.7245 71.5637 69.4361 71.487 69.1828 71.3337C68.9295 71.177 68.7311 70.962 68.5878 70.6887C68.4445 70.4153 68.3728 70.107 68.3728 69.7637C68.3728 69.417 68.4445 69.107 68.5878 68.8337C68.7311 68.5603 68.9295 68.347 69.1828 68.1937C69.4361 68.0403 69.7245 67.9637 70.0478 67.9637C70.3711 67.9637 70.6595 68.0403 70.9128 68.1937C71.1661 68.347 71.3645 68.5603 71.5078 68.8337C71.6511 69.107 71.7228 69.417 71.7228 69.7637ZM71.4028 69.7637C71.4028 69.4737 71.3445 69.2153 71.2278 68.9887C71.1145 68.7587 70.9545 68.5803 70.7478 68.4537C70.5445 68.327 70.3111 68.2637 70.0478 68.2637C69.7845 68.2637 69.5495 68.327 69.3428 68.4537C69.1395 68.5803 68.9795 68.7587 68.8628 68.9887C68.7495 69.2153 68.6928 69.4737 68.6928 69.7637C68.6928 70.0537 68.7495 70.3137 68.8628 70.5437C68.9795 70.7703 69.1395 70.947 69.3428 71.0737C69.5495 71.2003 69.7845 71.2637 70.0478 71.2637C70.3111 71.2637 70.5445 71.2003 70.7478 71.0737C70.9545 70.947 71.1145 70.7703 71.2278 70.5437C71.3445 70.3137 71.4028 70.0537 71.4028 69.7637ZM74.9059 68.0137C74.9493 68.0137 74.9843 68.0287 75.0109 68.0587C75.0409 68.0853 75.0559 68.1203 75.0559 68.1637V70.2337C75.0559 70.477 74.9976 70.7003 74.8809 70.9037C74.7643 71.107 74.6059 71.267 74.4059 71.3837C74.2059 71.5003 73.9859 71.5587 73.7459 71.5587C73.5026 71.5587 73.2809 71.5003 73.0809 71.3837C72.8809 71.267 72.7226 71.107 72.6059 70.9037C72.4893 70.7003 72.4309 70.477 72.4309 70.2337V68.1637C72.4309 68.1203 72.4443 68.0853 72.4709 68.0587C72.5009 68.0287 72.5409 68.0137 72.5909 68.0137C72.6309 68.0137 72.6659 68.0287 72.6959 68.0587C72.7259 68.0853 72.7409 68.1203 72.7409 68.1637V70.2337C72.7409 70.4203 72.7859 70.592 72.8759 70.7487C72.9659 70.9053 73.0876 71.0303 73.2409 71.1237C73.3976 71.2137 73.5659 71.2587 73.7459 71.2587C73.9293 71.2587 74.0976 71.2137 74.2509 71.1237C74.4076 71.0303 74.5309 70.9053 74.6209 70.7487C74.7143 70.592 74.7609 70.4203 74.7609 70.2337V68.1637C74.7609 68.1203 74.7743 68.0853 74.8009 68.0587C74.8276 68.0287 74.8626 68.0137 74.9059 68.0137ZM78.5554 68.0137C78.5987 68.0137 78.6321 68.027 78.6554 68.0537C78.6821 68.0803 78.6954 68.1137 78.6954 68.1537V71.3537C78.6954 71.4037 78.6804 71.4437 78.6504 71.4737C78.6204 71.5003 78.5837 71.5137 78.5404 71.5137C78.5171 71.5137 78.4937 71.5087 78.4704 71.4987C78.4504 71.4887 78.4337 71.477 78.4204 71.4637L76.2754 68.5737V71.3787C76.2754 71.4153 76.2604 71.447 76.2304 71.4737C76.2037 71.5003 76.1721 71.5137 76.1354 71.5137C76.0954 71.5137 76.0621 71.5003 76.0354 71.4737C76.0087 71.447 75.9954 71.4153 75.9954 71.3787V68.1637C75.9954 68.117 76.0087 68.0803 76.0354 68.0537C76.0654 68.027 76.1004 68.0137 76.1404 68.0137C76.1937 68.0137 76.2337 68.032 76.2604 68.0687L78.4154 70.9737V68.1537C78.4154 68.1137 78.4287 68.0803 78.4554 68.0537C78.4821 68.027 78.5154 68.0137 78.5554 68.0137ZM81.8631 68.0137C81.9064 68.0137 81.9414 68.027 81.9681 68.0537C81.9981 68.0803 82.0131 68.1153 82.0131 68.1587C82.0131 68.202 81.9981 68.237 81.9681 68.2637C81.9414 68.287 81.9064 68.2987 81.8631 68.2987H80.8281V71.3637C80.8281 71.407 80.8131 71.4437 80.7831 71.4737C80.7531 71.5003 80.7164 71.5137 80.6731 71.5137C80.6264 71.5137 80.5881 71.5003 80.5581 71.4737C80.5314 71.4437 80.5181 71.407 80.5181 71.3637V68.2987H79.4831C79.4398 68.2987 79.4031 68.2853 79.3731 68.2587C79.3464 68.232 79.3331 68.197 79.3331 68.1537C79.3331 68.1137 79.3464 68.0803 79.3731 68.0537C79.4031 68.027 79.4398 68.0137 79.4831 68.0137H81.8631Z" fill="#263238"/>
<path d="M177.147 30.877C169.253 20.4303 160.933 21.9054 155.158 24.4309C152.283 25.7499 149.865 27.9012 148.214 30.6092C146.563 33.3173 145.753 36.4591 145.889 39.6323C145.991 41.3006 146.347 43.058 145.67 44.5854C144.584 47.0447 141.424 47.7349 139.594 49.6957C137.093 52.378 137.647 56.6239 138.492 60.1992C139.337 63.7745 140.225 67.8596 138.135 70.8744C136.218 73.6356 132.564 74.3764 129.55 75.8444C127.547 76.8052 125.768 78.1807 124.331 79.8806C122.894 81.5805 121.83 83.5665 121.21 85.7085C120.054 90.0026 121.072 94.8947 124.065 98.1718C126.995 101.381 131.395 102.803 135.682 103.437C141.943 104.32 148.32 103.817 154.368 101.966C160.416 100.114 165.989 96.9578 170.698 92.7172C175.347 88.4109 179.005 83.1364 181.416 77.2622C183.827 71.388 184.933 65.0556 184.657 58.7072" fill="#2E353A"/>
<path d="M128.571 99.2467C128.594 99.2216 128.299 98.9905 127.857 98.4412C127.206 97.6495 126.728 96.7295 126.453 95.7406C126.053 94.1665 126.039 92.5185 126.411 90.9376C126.858 88.8335 127.873 86.8938 129.344 85.3308C130.188 84.4189 131.148 83.6234 132.199 82.9652C133.358 82.2703 134.575 81.6787 135.836 81.197C137.21 80.6748 138.54 80.0407 139.812 79.3013C141.15 78.4601 142.317 77.3711 143.251 76.0923C145.222 73.316 146.288 69.9938 146.303 66.5833C146.339 64.8013 146.189 63.0204 145.854 61.27C145.532 59.4962 145.085 57.7347 144.744 55.9383C144.478 54.6914 144.332 53.4218 144.307 52.1468C144.367 50.9077 144.648 49.6896 145.137 48.5505C145.596 47.3977 146.134 46.2792 146.565 45.1151C146.946 43.9481 147.195 42.7417 147.309 41.5188C147.453 40.3214 147.452 39.1398 147.587 38.0188C147.708 36.9061 147.92 35.8054 148.221 34.7279C148.755 32.6928 149.651 30.7717 150.866 29.057L150.88 29.0375L150.882 29.0334C151.787 27.618 152.983 26.4138 154.39 25.5022C155.797 24.5905 157.382 23.9925 159.039 23.7483C161.614 23.3858 164.235 23.9362 166.45 25.3049C167.881 26.1661 169.117 27.3195 170.078 28.6906C170.734 29.6431 170.978 30.2201 171.013 30.2021C170.799 29.643 170.523 29.1101 170.189 28.6138C169.258 27.1872 168.027 25.9827 166.584 25.0851C164.329 23.6407 161.64 23.0401 158.988 23.3886C157.271 23.625 155.625 24.2303 154.161 25.1636C152.698 26.0968 151.452 27.3359 150.508 28.7967L150.525 28.7736C149.259 30.5292 148.323 32.5029 147.763 34.5972C147.45 35.6982 147.228 36.8232 147.1 37.9609C146.957 39.1271 146.955 40.2963 146.81 41.4614C146.697 42.6434 146.454 43.8092 146.085 44.9373C145.665 46.0645 145.125 47.1814 144.658 48.3573C144.144 49.5525 143.849 50.8311 143.787 52.1314C143.809 53.444 143.958 54.7514 144.231 56.0352C144.577 57.852 145.024 59.6125 145.343 61.3638C145.673 63.0785 145.823 64.8233 145.791 66.5695C145.786 69.877 144.764 73.1022 142.865 75.8039C141.972 77.0387 140.853 78.0922 139.569 78.9088C138.321 79.6408 137.017 80.2705 135.668 80.7917C134.388 81.2905 133.155 81.9019 131.983 82.6188C130.907 83.3047 129.928 84.1318 129.07 85.0782C127.573 86.7 126.553 88.7072 126.123 90.8767C125.764 92.5023 125.81 94.1916 126.255 95.7954C126.556 96.8012 127.075 97.7275 127.775 98.5079C128.009 98.786 128.276 99.0341 128.571 99.2467Z" fill="#4D5A64"/>
<path d="M157.439 86.9818C157.506 86.9039 156.696 86.0826 155.628 85.1475C154.561 84.2125 153.64 83.5172 153.573 83.5951C153.506 83.6729 154.316 84.4932 155.384 85.4293C156.451 86.3654 157.372 87.0597 157.439 86.9818Z" fill="#FAFAFA"/>
<path d="M160.007 80.3578L183.804 83.2706C183.804 83.2706 202.953 86.7695 206.801 101.183C209.459 111.137 214.962 129.678 218.112 140.198C218.771 142.397 218.645 144.759 217.755 146.875C216.866 148.991 215.27 150.729 213.242 151.788C212.047 152.412 210.738 152.783 209.395 152.876C208.053 152.97 206.705 152.785 205.436 152.333C204.168 151.881 203.005 151.172 202.021 150.249C201.037 149.326 200.252 148.21 199.716 146.969L189.308 122.898C189.308 122.898 185.64 131.306 185.851 135.283C186.062 139.259 194.326 153.873 194.326 153.873C176.749 164.004 158.887 162.726 144.994 156.391L145.657 118.349C145.657 118.349 139.116 152.292 125.869 149.706C114.764 147.539 122.077 125.785 125.869 117.465C130.707 106.854 137.018 91.7164 140.992 88.0668C151.642 78.2847 160.007 80.3578 160.007 80.3578Z" fill="#E8505B"/>
<g opacity="0.2">
<g opacity="0.2">
<g opacity="0.2">
<path opacity="0.2" d="M181.997 85.6136C183.436 87.868 185.418 89.7177 187.42 91.4884C188.77 92.6822 190.173 93.875 191.851 94.5257C193.53 95.1764 195.551 95.2 197.011 94.1455C198.47 93.0911 199.044 90.7921 197.908 89.3923C197.157 88.4665 195.92 88.1293 194.765 87.8434L183.204 84.9788" fill="black"/>
</g>
</g>
</g>
<path d="M212.343 129.948C212.41 129.886 211.097 128.743 209.068 128.23C207.043 127.697 205.347 128.065 205.374 128.151C205.382 128.268 207.035 128.079 208.976 128.592C210.922 129.08 212.28 130.046 212.343 129.948Z" fill="#2E353A"/>
<path d="M209.201 126.649C209.252 126.569 208.142 126.002 206.668 126.153C205.189 126.287 204.207 127.056 204.272 127.126C204.326 127.225 205.326 126.647 206.701 126.526C208.072 126.381 209.166 126.757 209.201 126.649Z" fill="#2E353A"/>
<g opacity="0.2">
<g opacity="0.2">
<g opacity="0.2">
<path opacity="0.2" d="M204.475 128.425C205.518 127.92 206.675 127.696 207.831 127.777C208.986 127.858 210.101 128.24 211.064 128.887C211.463 129.161 211.967 129.493 212.383 129.245C212.782 129.01 212.759 128.403 212.536 127.994C212.009 127.021 210.803 126.651 209.706 126.535C207.715 126.33 205.706 126.654 203.879 127.476" fill="black"/>
</g>
</g>
</g>
<g opacity="0.2">
<g opacity="0.2">
<g opacity="0.2">
<path opacity="0.2" d="M165.794 112.347C167.047 114.884 170.652 116.472 172.339 119.239C173.767 121.575 174.295 124.331 175.153 126.931C177.572 134.164 182.545 140.255 189.131 144.051C187.827 141.566 186.767 138.958 185.967 136.266C185.793 134.625 186.034 132.966 186.667 131.443C185.852 128.919 182.274 125.438 180.635 123.357C178.672 120.863 176.692 118.351 174.274 116.3C171.857 114.249 168.942 112.665 165.794 112.346" fill="black"/>
</g>
</g>
</g>
<path d="M136.37 128.825C136.323 129.508 136.338 130.194 136.416 130.874C136.48 132.135 136.62 133.876 136.543 135.786C136.407 139.639 134.923 142.487 135.068 142.53C135.09 142.541 135.19 142.372 135.35 142.055C135.575 141.607 135.775 141.146 135.948 140.675C136.521 139.111 136.847 137.467 136.917 135.803C136.961 134.148 136.881 132.493 136.679 130.851C136.639 130.167 136.535 129.489 136.37 128.825Z" fill="#2E353A"/>
<path d="M164.443 102.829C164.443 102.829 161.934 103.946 159.976 104.848C156.884 106.273 155.854 103.683 155.854 103.683L164.45 97.4371C165.585 96.6297 166.939 96.1891 168.329 96.1742C169.72 96.1593 171.082 96.5707 172.235 97.3536C172.936 97.8394 173.543 98.4514 174.023 99.1586L180.175 107.946L213.644 134.772C218.88 138.969 219.052 146.054 213.757 150.175C211.819 151.691 209.38 152.407 206.935 152.18C204.491 151.952 202.224 150.798 200.596 148.95L173.116 117.752L169.566 115.004L165.392 111.96C165.392 111.96 162.271 109.692 164.843 107.392C165.675 106.647 164.072 106.662 163.912 105.583C163.829 105.019 163.992 104.917 164.971 104.232C164.971 104.232 163.437 104.266 164.443 102.829Z" fill="#B78876"/>
<path d="M164.528 103.562C164.573 103.594 164.772 103.351 165.103 102.988C165.501 102.511 166.01 102.139 166.584 101.904C166.866 101.81 167.166 101.783 167.461 101.823C167.756 101.864 168.037 101.971 168.284 102.138C168.66 102.409 168.743 102.725 168.804 102.704C168.842 102.709 168.855 102.325 168.452 101.936C168.183 101.703 167.858 101.544 167.509 101.477C167.161 101.409 166.8 101.435 166.464 101.551C165.824 101.802 165.277 102.246 164.898 102.823C164.608 103.244 164.488 103.537 164.528 103.562Z" fill="#996552"/>
<path d="M168.816 105.739C168.851 105.711 168.73 105.468 168.395 105.198C167.947 104.848 167.395 104.659 166.828 104.66C166.26 104.664 165.71 104.857 165.265 105.211C164.932 105.483 164.812 105.727 164.848 105.755C164.89 105.793 165.076 105.621 165.413 105.428C165.844 105.179 166.332 105.043 166.83 105.034C167.327 105.039 167.816 105.171 168.249 105.418C168.587 105.607 168.774 105.778 168.816 105.739Z" fill="#996552"/>
<path d="M168.816 108.282C168.851 108.254 168.73 108.011 168.395 107.741C167.947 107.391 167.395 107.202 166.828 107.203C166.26 107.206 165.71 107.4 165.265 107.754C164.932 108.026 164.812 108.27 164.848 108.297C164.89 108.335 165.076 108.164 165.413 107.971C165.844 107.721 166.332 107.586 166.83 107.577C167.327 107.581 167.816 107.713 168.249 107.96C168.587 108.149 168.774 108.318 168.816 108.282Z" fill="#996552"/>
<path d="M140.06 95.6255L137.7 98.196C137.7 98.196 136.912 134.574 135.535 139.519C134.159 144.464 126.093 152.766 121.765 146.043C117.437 139.32 128.256 96.4166 128.256 96.4166C128.256 96.4166 131.207 86.531 131.404 84.1587L140.06 95.6255Z" fill="#B78876"/>
<path d="M134.642 74.5548L135.572 99.6864C135.605 100.569 135.86 101.429 136.313 102.186C136.766 102.943 137.403 103.572 138.164 104.015L145.695 108.394C146.169 108.669 146.707 108.814 147.255 108.815C147.803 108.815 148.341 108.67 148.815 108.395C149.29 108.119 149.684 107.723 149.957 107.246C150.231 106.77 150.375 106.229 150.375 105.678V82.4104C150.374 81.7622 150.202 81.1258 149.875 80.5672C149.547 80.0086 149.077 79.5482 148.513 79.2337L137.241 72.9516C136.969 72.8005 136.663 72.7245 136.353 72.7314C136.043 72.7383 135.74 72.8279 135.476 72.991C135.211 73.154 134.995 73.3848 134.848 73.6595C134.702 73.9343 134.631 74.2432 134.642 74.5548Z" fill="#455A64"/>
<path d="M143.301 81.1801C143.398 81.3776 143.455 81.5923 143.469 81.8118C143.483 82.0314 143.454 82.2516 143.383 82.4599C143.312 82.6681 143.201 82.8603 143.057 83.0256C142.912 83.1908 142.737 83.3257 142.54 83.4227C142.344 83.5198 142.13 83.5771 141.911 83.5912C141.693 83.6053 141.474 83.576 141.267 83.505C141.059 83.4339 140.868 83.3225 140.704 83.1772C140.539 83.0318 140.405 82.8553 140.309 82.6578C140.212 82.4603 140.155 82.2457 140.141 82.0261C140.127 81.8065 140.156 81.5862 140.227 81.378C140.298 81.1697 140.408 80.9774 140.553 80.8122C140.698 80.647 140.873 80.5121 141.07 80.4151C141.266 80.3181 141.48 80.2609 141.698 80.2468C141.917 80.2328 142.136 80.2621 142.343 80.3331C142.55 80.4042 142.742 80.5155 142.906 80.6609C143.07 80.8062 143.205 80.9826 143.301 81.1801Z" fill="#FAFAFA"/>
<path d="M131.403 84.159C131.403 84.159 136.98 76.3936 138.217 76.4587C139.454 76.5237 145.445 80.1241 145.185 80.9096C144.925 81.695 143.687 82.1531 142.58 81.63C141.473 81.1068 139.521 79.208 139.062 79.6005C138.604 79.9929 137.304 81.3676 137.304 81.3676C137.304 81.3676 142.81 84.1923 143.23 85.2944C143.659 86.4216 144.663 88.3686 143.36 89.09C142.512 89.5588 141.146 89.0245 140.625 86.7993C140.625 86.7993 141.667 90.0067 140.057 90.7916C138.324 91.6375 137.792 89.8581 136.393 88.1084C135.215 86.6373 134.686 88.5095 134.686 88.5095L131.403 84.159Z" fill="#AA8776"/>
<path d="M135.625 84.2252C135.962 84.2834 136.303 84.3166 136.645 84.3245C137.444 84.4215 138.212 84.6987 138.89 85.1356C139.561 85.5833 140.123 86.1778 140.534 86.8746C140.679 87.186 140.847 87.4865 141.035 87.7738C141.044 87.4134 140.951 87.0578 140.766 86.7491C140.396 85.9635 139.818 85.296 139.094 84.82C138.369 84.3466 137.528 84.0831 136.664 84.0586C136.309 84.0144 135.949 84.0722 135.625 84.2252Z" fill="#996552"/>
<path d="M182.59 33.1657L182.584 36.4033L182.794 84.8733C182.818 90.5006 178.024 95.0033 172.028 94.9828C165.974 94.9628 160.974 90.3428 160.856 84.6586C160.732 78.6921 160.494 72.413 160.494 72.413C160.494 72.413 152.823 71.2735 151.063 61.2731C150.187 56.3001 150.291 48.1191 150.592 41.4276C150.655 39.9999 151.005 38.5998 151.621 37.3116C152.237 36.0234 153.105 34.8739 154.175 33.9321C155.244 32.9903 156.492 32.2757 157.844 31.8315C159.196 31.3873 160.622 31.2226 162.039 31.3473L182.59 33.1657Z" fill="#B78876"/>
<path d="M152.937 47.5325C152.939 47.8677 153.072 48.1886 153.307 48.4268C153.542 48.6651 153.86 48.8017 154.193 48.8077C154.356 48.8179 154.52 48.7951 154.674 48.7408C154.828 48.6865 154.97 48.6017 155.091 48.4915C155.212 48.3812 155.31 48.2477 155.378 48.0988C155.447 47.95 155.486 47.7887 155.492 47.6247C155.489 47.2896 155.356 46.9689 155.122 46.7306C154.887 46.4924 154.57 46.3554 154.237 46.3489C154.073 46.3385 153.91 46.3611 153.755 46.4154C153.601 46.4696 153.459 46.5544 153.338 46.6648C153.217 46.7751 153.119 46.9087 153.05 47.0578C152.981 47.2068 152.942 47.3682 152.937 47.5325Z" fill="#2E353A"/>
<path d="M152.431 45.6542C152.593 45.8187 153.553 45.0809 154.929 45.0599C156.306 45.0189 157.325 45.7126 157.474 45.5404C157.546 45.4641 157.379 45.1644 156.934 44.8503C156.331 44.4462 155.619 44.2393 154.895 44.258C154.179 44.2678 153.485 44.5068 152.913 44.9405C152.49 45.2745 152.352 45.5804 152.431 45.6542Z" fill="#2E353A"/>
<path d="M165.979 47.3003C165.982 47.6356 166.114 47.9564 166.349 48.1946C166.584 48.4328 166.902 48.5695 167.236 48.5756C167.399 48.5857 167.562 48.5629 167.716 48.5085C167.87 48.4542 168.012 48.3694 168.133 48.2591C168.254 48.1489 168.351 48.0154 168.42 47.8666C168.489 47.7178 168.528 47.5566 168.534 47.3926C168.531 47.0573 168.398 46.7363 168.164 46.4978C167.93 46.2593 167.612 46.1223 167.278 46.1157C167.115 46.1054 166.952 46.128 166.797 46.1823C166.643 46.2366 166.501 46.3215 166.379 46.432C166.258 46.5424 166.16 46.6762 166.091 46.8253C166.023 46.9745 165.984 47.136 165.979 47.3003Z" fill="#2E353A"/>
<path d="M165.971 45.671C166.133 45.8355 167.092 45.0977 168.468 45.0767C169.845 45.0357 170.867 45.7295 171.014 45.5573C171.085 45.481 170.92 45.1812 170.473 44.8671C169.87 44.463 169.158 44.2561 168.433 44.2748C167.717 44.2845 167.023 44.5234 166.451 44.9568C166.03 45.2914 165.891 45.5973 165.971 45.671Z" fill="#2E353A"/>
<path d="M161.156 56.024C161.161 55.9446 160.302 55.8114 158.913 55.6582C158.56 55.6279 158.226 55.5639 158.163 55.3241C158.127 54.9596 158.202 54.5926 158.378 54.2722C158.694 53.4114 159.025 52.5083 159.372 51.5628C160.748 47.7057 161.737 44.5367 161.582 44.4824C161.427 44.4281 160.186 47.5105 158.81 51.3676C158.479 52.3186 158.163 53.2268 157.862 54.0924C157.648 54.5227 157.592 55.0152 157.704 55.4829C157.757 55.6067 157.837 55.7166 157.939 55.8045C158.041 55.8923 158.161 55.9556 158.291 55.9897C158.486 56.0388 158.688 56.0633 158.889 56.0624C160.286 56.1116 161.152 56.1024 161.156 56.024Z" fill="#2E353A"/>
<path d="M160.493 72.417C165.193 72.4048 169.797 71.0818 173.793 68.5952C173.793 68.5952 170.672 75.5424 160.669 74.7821L160.493 72.417Z" fill="#996552"/>
<path d="M161.796 59.3482C162.052 59.0119 162.39 58.7468 162.776 58.5777C163.162 58.4086 163.585 58.3412 164.005 58.3819C164.309 58.4038 164.606 58.4874 164.878 58.6275C165.149 58.7677 165.39 58.9616 165.585 59.1976C165.773 59.4249 165.887 59.7049 165.912 59.9996C165.937 60.2943 165.871 60.5895 165.723 60.8453C165.506 61.0977 165.219 61.2793 164.899 61.3668C164.579 61.4544 164.24 61.4439 163.926 61.3367C163.272 61.1165 162.667 60.7683 162.147 60.312C161.99 60.2041 161.854 60.0674 161.747 59.9092C161.695 59.8339 161.666 59.7446 161.665 59.6529C161.664 59.5611 161.69 59.4711 161.74 59.3943" fill="#996552"/>
<path d="M165.224 56.9082C165 56.8989 165.023 58.4017 163.763 59.49C162.503 60.5783 160.908 60.4425 160.901 60.6525C160.882 60.7468 161.261 60.9379 161.934 60.9441C162.809 60.941 163.656 60.6275 164.325 60.0587C164.966 59.5121 165.371 58.7364 165.454 57.8955C165.5 57.2668 165.326 56.8979 165.224 56.9082Z" fill="#2E353A"/>
<path d="M194.613 89.6871C190.655 89.9876 186.731 88.7674 183.632 86.273C180.534 83.7786 178.493 80.1957 177.921 76.2476C177.839 75.5635 177.686 74.8898 177.465 74.2376C176.363 71.2774 176.231 68.0407 177.088 64.9996C177.458 63.5962 177.989 62.0597 177.354 60.7557C176.896 59.8089 175.927 59.2427 175.139 58.55C173.393 56.9161 172.339 54.6702 172.195 52.277C172.064 49.9016 172.454 47.5263 173.338 45.3191C173.79 44.0961 174.34 42.7573 173.881 41.5363C173.556 40.6735 172.793 40.0725 172.11 39.4551C170.665 38.1456 169.463 36.5875 168.562 34.854C167.648 33.094 167.058 30.8063 169.44 29.4121C169.945 29.1265 170.498 28.9379 171.071 28.8562C175.289 28.1993 180.315 28.8301 183.141 32.1666C185.443 34.8852 185.77 38.7208 185.992 42.2838C186.693 53.5088 205.184 74.3626 198.037 89.7352L194.613 89.6871Z" fill="#2E353A"/>
<path d="M165.52 40.2508C165.661 40.6248 167.034 40.4214 168.652 40.5884C170.275 40.7227 171.586 41.1751 171.795 40.8333C171.887 40.6699 171.654 40.321 171.121 39.9654C170.413 39.5233 169.611 39.257 168.781 39.1886C167.953 39.1027 167.116 39.2169 166.34 39.5217C165.751 39.7748 165.459 40.0761 165.52 40.2508Z" fill="#2E353A"/>
<path d="M152.867 41.6408C153.115 41.9482 154.058 41.607 155.198 41.5716C156.337 41.4958 157.308 41.7453 157.524 41.4123C157.619 41.2509 157.461 40.9389 157.034 40.6489C156.464 40.2938 155.798 40.1256 155.129 40.1677C154.459 40.1913 153.813 40.4241 153.281 40.8338C152.884 41.1628 152.757 41.4886 152.867 41.6408Z" fill="#2E353A"/>
</g>
<path d="M35.979 238.264H37.162V234.182H40.36V233.22H37.162V230.165H41.101V229.203H35.979V238.264ZM43.7128 234.39C43.7128 232.739 44.5708 232.232 45.7018 232.232H46.0138V231.01C44.8828 231.01 44.1158 231.504 43.7128 232.297V231.14H42.5298V238.264H43.7128V234.39ZM47.3794 238.264H48.5624V231.14H47.3794V238.264ZM47.9904 229.983C48.4194 229.983 48.7704 229.632 48.7704 229.177C48.7704 228.722 48.4194 228.371 47.9904 228.371C47.5354 228.371 47.1844 228.722 47.1844 229.177C47.1844 229.632 47.5354 229.983 47.9904 229.983ZM53.6076 232.024C54.8296 232.024 55.8696 232.791 55.8566 234.182H51.3586C51.4886 232.791 52.4506 232.024 53.6076 232.024ZM56.9356 236.067H55.6616C55.4016 236.834 54.7256 237.38 53.6596 237.38C52.4506 237.38 51.4366 236.587 51.3456 235.144H57.0396C57.0656 234.897 57.0786 234.689 57.0786 234.429C57.0786 232.479 55.7266 231.023 53.6596 231.023C51.5796 231.023 50.1366 232.44 50.1366 234.689C50.1366 236.951 51.6316 238.381 53.6596 238.381C55.4276 238.381 56.5716 237.367 56.9356 236.067ZM63.8532 238.264H65.0232V234.065C65.0232 232.024 63.7622 231.01 62.1112 231.01C61.1492 231.01 60.2912 231.413 59.8232 232.154V231.14H58.6402V238.264H59.8232V234.325C59.8232 232.791 60.6552 232.037 61.8642 232.037C63.0602 232.037 63.8532 232.778 63.8532 234.234V238.264ZM66.5136 234.676C66.5136 236.886 67.9826 238.381 69.8936 238.381C71.1936 238.381 72.1166 237.718 72.5456 236.925V238.264H73.7416V228.644H72.5456V232.414C72.0516 231.595 71.0246 231.023 69.9066 231.023C67.9826 231.023 66.5136 232.453 66.5136 234.676ZM72.5456 234.689C72.5456 236.366 71.4276 237.341 70.1276 237.341C68.8276 237.341 67.7226 236.353 67.7226 234.676C67.7226 232.999 68.8276 232.05 70.1276 232.05C71.4276 232.05 72.5456 233.038 72.5456 234.689ZM80.8627 236.327C80.8107 233.779 76.6767 234.702 76.6767 233.012C76.6767 232.44 77.1967 232.024 78.0677 232.024C79.0167 232.024 79.5627 232.544 79.6147 233.259H80.7977C80.7197 231.868 79.6797 231.023 78.1067 231.023C76.5207 231.023 75.4937 231.92 75.4937 233.012C75.4937 235.664 79.7057 234.741 79.7057 236.327C79.7057 236.912 79.1857 237.38 78.2497 237.38C77.2487 237.38 76.6377 236.86 76.5727 236.171H75.3507C75.4287 237.471 76.5987 238.381 78.2627 238.381C79.8357 238.381 80.8627 237.497 80.8627 236.327ZM87.3896 238.264H88.6116L90.3276 232.609L92.0436 238.264H93.2656L95.4886 231.14H94.3186L92.7066 237.133L90.9776 231.14H89.7686L88.0006 237.12L86.3626 231.14H85.1536L87.3896 238.264ZM96.6626 238.264H97.8456V231.14H96.6626V238.264ZM97.2736 229.983C97.7026 229.983 98.0536 229.632 98.0536 229.177C98.0536 228.722 97.7026 228.371 97.2736 228.371C96.8186 228.371 96.4676 228.722 96.4676 229.177C96.4676 229.632 96.8186 229.983 97.2736 229.983ZM99.8618 238.264H101.045V228.644H99.8618V238.264ZM103.061 238.264H104.244V228.644H103.061V238.264ZM114.848 236.327C114.796 233.779 110.662 234.702 110.662 233.012C110.662 232.44 111.182 232.024 112.053 232.024C113.002 232.024 113.548 232.544 113.6 233.259H114.783C114.705 231.868 113.665 231.023 112.092 231.023C110.506 231.023 109.479 231.92 109.479 233.012C109.479 235.664 113.691 234.741 113.691 236.327C113.691 236.912 113.171 237.38 112.235 237.38C111.234 237.38 110.623 236.86 110.558 236.171H109.336C109.414 237.471 110.584 238.381 112.248 238.381C113.821 238.381 114.848 237.497 114.848 236.327ZM119.547 232.024C120.769 232.024 121.809 232.791 121.796 234.182H117.298C117.428 232.791 118.39 232.024 119.547 232.024ZM122.875 236.067H121.601C121.341 236.834 120.665 237.38 119.599 237.38C118.39 237.38 117.376 236.587 117.285 235.144H122.979C123.005 234.897 123.018 234.689 123.018 234.429C123.018 232.479 121.666 231.023 119.599 231.023C117.519 231.023 116.076 232.44 116.076 234.689C116.076 236.951 117.571 238.381 119.599 238.381C121.367 238.381 122.511 237.367 122.875 236.067ZM129.793 238.264H130.963V234.065C130.963 232.024 129.702 231.01 128.051 231.01C127.089 231.01 126.231 231.413 125.763 232.154V231.14H124.58V238.264H125.763V234.325C125.763 232.791 126.595 232.037 127.804 232.037C129 232.037 129.793 232.778 129.793 234.234V238.264ZM132.453 234.676C132.453 236.886 133.922 238.381 135.833 238.381C137.133 238.381 138.056 237.718 138.485 236.925V238.264H139.681V228.644H138.485V232.414C137.991 231.595 136.964 231.023 135.846 231.023C133.922 231.023 132.453 232.453 132.453 234.676ZM138.485 234.689C138.485 236.366 137.367 237.341 136.067 237.341C134.767 237.341 133.662 236.353 133.662 234.676C133.662 232.999 134.767 232.05 136.067 232.05C137.367 232.05 138.485 233.038 138.485 234.689ZM155.429 238.264H156.599V234.065C156.599 232.024 155.338 231.01 153.713 231.01C152.621 231.01 151.607 231.569 151.191 232.596C150.723 231.53 149.748 231.01 148.578 231.01C147.642 231.01 146.797 231.413 146.329 232.167V231.14H145.146V238.264H146.329V234.338C146.329 232.804 147.148 232.037 148.344 232.037C149.514 232.037 150.294 232.778 150.294 234.234V238.264H151.464V234.338C151.464 232.804 152.283 232.037 153.479 232.037C154.649 232.037 155.429 232.778 155.429 234.234V238.264ZM165.3 234.689C165.3 232.44 163.727 231.023 161.699 231.023C159.684 231.023 158.098 232.44 158.098 234.689C158.098 236.951 159.632 238.381 161.647 238.381C163.675 238.381 165.3 236.951 165.3 234.689ZM159.307 234.689C159.307 232.895 160.438 232.05 161.686 232.05C162.908 232.05 164.091 232.895 164.091 234.689C164.091 236.496 162.882 237.341 161.647 237.341C160.412 237.341 159.307 236.496 159.307 234.689ZM172.068 238.264H173.238V234.065C173.238 232.024 171.977 231.01 170.326 231.01C169.364 231.01 168.506 231.413 168.038 232.154V231.14H166.855V238.264H168.038V234.325C168.038 232.791 168.87 232.037 170.079 232.037C171.275 232.037 172.068 232.778 172.068 234.234V238.264ZM178.199 232.024C179.421 232.024 180.461 232.791 180.448 234.182H175.95C176.08 232.791 177.042 232.024 178.199 232.024ZM181.527 236.067H180.253C179.993 236.834 179.317 237.38 178.251 237.38C177.042 237.38 176.028 236.587 175.937 235.144H181.631C181.657 234.897 181.67 234.689 181.67 234.429C181.67 232.479 180.318 231.023 178.251 231.023C176.171 231.023 174.728 232.44 174.728 234.689C174.728 236.951 176.223 238.381 178.251 238.381C180.019 238.381 181.163 237.367 181.527 236.067ZM185.936 236.912L183.7 231.14H182.387L185.26 238.186L183.856 241.618H185.078L189.368 231.14H188.146L185.936 236.912ZM29.827 258.264H31.01V252.115H32.505V251.14H31.01V250.633C31.01 249.71 31.361 249.32 32.427 249.32V248.332C30.607 248.332 29.827 249.047 29.827 250.633V251.14H28.904V252.115H29.827V258.264ZM35.0673 254.39C35.0673 252.739 35.9253 252.232 37.0563 252.232H37.3683V251.01C36.2373 251.01 35.4703 251.504 35.0673 252.297V251.14H33.8843V258.264H35.0673V254.39ZM45.4939 254.689C45.4939 252.44 43.9209 251.023 41.8929 251.023C39.8779 251.023 38.2919 252.44 38.2919 254.689C38.2919 256.951 39.8259 258.381 41.8409 258.381C43.8689 258.381 45.4939 256.951 45.4939 254.689ZM39.5009 254.689C39.5009 252.895 40.6319 252.05 41.8799 252.05C43.1019 252.05 44.2849 252.895 44.2849 254.689C44.2849 256.496 43.0759 257.341 41.8409 257.341C40.6059 257.341 39.5009 256.496 39.5009 254.689ZM57.3323 258.264H58.5023V254.065C58.5023 252.024 57.2413 251.01 55.6163 251.01C54.5243 251.01 53.5103 251.569 53.0943 252.596C52.6263 251.53 51.6513 251.01 50.4813 251.01C49.5453 251.01 48.7003 251.413 48.2323 252.167V251.14H47.0493V258.264H48.2323V254.338C48.2323 252.804 49.0513 252.037 50.2473 252.037C51.4173 252.037 52.1973 252.778 52.1973 254.234V258.264H53.3673V254.338C53.3673 252.804 54.1863 252.037 55.3823 252.037C56.5523 252.037 57.3323 252.778 57.3323 254.234V258.264ZM63.9087 258.264H65.0917V254.325C65.0917 252.791 65.9237 252.037 67.1327 252.037C68.3287 252.037 69.1217 252.778 69.1217 254.234V258.264H70.2917V254.065C70.2917 252.024 69.0307 251.01 67.4447 251.01C66.4437 251.01 65.5597 251.413 65.0917 252.167V248.644H63.9087V258.264ZM75.2531 252.024C76.4751 252.024 77.5151 252.791 77.5021 254.182H73.0041C73.1341 252.791 74.0961 252.024 75.2531 252.024ZM78.5811 256.067H77.3071C77.0471 256.834 76.3711 257.38 75.3051 257.38C74.0961 257.38 73.0821 256.587 72.9911 255.144H78.6851C78.7111 254.897 78.7241 254.689 78.7241 254.429C78.7241 252.479 77.3721 251.023 75.3051 251.023C73.2251 251.023 71.7821 252.44 71.7821 254.689C71.7821 256.951 73.2771 258.381 75.3051 258.381C77.0731 258.381 78.2171 257.367 78.5811 256.067ZM81.4687 254.39C81.4687 252.739 82.3267 252.232 83.4577 252.232H83.7697V251.01C82.6387 251.01 81.8717 251.504 81.4687 252.297V251.14H80.2857V258.264H81.4687V254.39ZM91.6301 252.024C92.8521 252.024 93.8921 252.791 93.8791 254.182H89.3811C89.5111 252.791 90.4731 252.024 91.6301 252.024ZM94.9581 256.067H93.6841C93.4241 256.834 92.7481 257.38 91.6821 257.38C90.4731 257.38 89.4591 256.587 89.3681 255.144H95.0621C95.0881 254.897 95.1011 254.689 95.1011 254.429C95.1011 252.479 93.7491 251.023 91.6821 251.023C89.6021 251.023 88.1591 252.44 88.1591 254.689C88.1591 256.951 89.6541 258.381 91.6821 258.381C93.4501 258.381 94.5941 257.367 94.9581 256.067ZM96.2206 254.676C96.2206 256.886 97.6896 258.381 99.5876 258.381C100.901 258.381 101.824 257.705 102.253 256.938V258.264H103.449V251.14H102.253V252.44C101.837 251.699 100.927 251.023 99.6006 251.023C97.6896 251.023 96.2206 252.453 96.2206 254.676ZM102.253 254.689C102.253 256.366 101.135 257.341 99.8346 257.341C98.5346 257.341 97.4296 256.353 97.4296 254.676C97.4296 252.999 98.5346 252.05 99.8346 252.05C101.135 252.05 102.253 253.038 102.253 254.689ZM110.57 256.327C110.518 253.779 106.384 254.702 106.384 253.012C106.384 252.44 106.904 252.024 107.775 252.024C108.724 252.024 109.27 252.544 109.322 253.259H110.505C110.427 251.868 109.387 251.023 107.814 251.023C106.228 251.023 105.201 251.92 105.201 253.012C105.201 255.664 109.413 254.741 109.413 256.327C109.413 256.912 108.893 257.38 107.957 257.38C106.956 257.38 106.345 256.86 106.28 256.171H105.058C105.136 257.471 106.306 258.381 107.97 258.381C109.543 258.381 110.57 257.497 110.57 256.327ZM114.944 256.912L112.708 251.14H111.395L114.268 258.186L112.864 261.618H114.086L118.376 251.14H117.154L114.944 256.912ZM122.589 254.689C122.589 256.951 124.032 258.381 126.06 258.381C127.828 258.381 128.985 257.393 129.349 255.976H128.075C127.815 256.873 127.113 257.38 126.06 257.38C124.76 257.38 123.798 256.457 123.798 254.689C123.798 252.947 124.76 252.024 126.06 252.024C127.113 252.024 127.828 252.57 128.075 253.428H129.349C128.985 251.933 127.828 251.023 126.06 251.023C124.032 251.023 122.589 252.453 122.589 254.689ZM130.485 254.676C130.485 256.886 131.954 258.381 133.852 258.381C135.165 258.381 136.088 257.705 136.517 256.938V258.264H137.713V251.14H136.517V252.44C136.101 251.699 135.191 251.023 133.865 251.023C131.954 251.023 130.485 252.453 130.485 254.676ZM136.517 254.689C136.517 256.366 135.399 257.341 134.099 257.341C132.799 257.341 131.694 256.353 131.694 254.676C131.694 252.999 132.799 252.05 134.099 252.05C135.399 252.05 136.517 253.038 136.517 254.689ZM144.834 256.327C144.782 253.779 140.648 254.702 140.648 253.012C140.648 252.44 141.168 252.024 142.039 252.024C142.988 252.024 143.534 252.544 143.586 253.259H144.769C144.691 251.868 143.651 251.023 142.078 251.023C140.492 251.023 139.465 251.92 139.465 253.012C139.465 255.664 143.677 254.741 143.677 256.327C143.677 256.912 143.157 257.38 142.221 257.38C141.22 257.38 140.609 256.86 140.544 256.171H139.322C139.4 257.471 140.57 258.381 142.234 258.381C143.807 258.381 144.834 257.497 144.834 256.327ZM146.504 258.264H147.687V254.325C147.687 252.791 148.519 252.037 149.728 252.037C150.924 252.037 151.717 252.778 151.717 254.234V258.264H152.887V254.065C152.887 252.024 151.626 251.01 150.04 251.01C149.039 251.01 148.155 251.413 147.687 252.167V248.644H146.504V258.264ZM159.677 258.264H160.899L162.615 252.609L164.331 258.264H165.553L167.776 251.14H166.606L164.994 257.133L163.265 251.14H162.056L160.288 257.12L158.65 251.14H157.441L159.677 258.264ZM168.508 254.676C168.508 256.886 169.977 258.381 171.875 258.381C173.188 258.381 174.111 257.705 174.54 256.938V258.264H175.736V251.14H174.54V252.44C174.124 251.699 173.214 251.023 171.888 251.023C169.977 251.023 168.508 252.453 168.508 254.676ZM174.54 254.689C174.54 256.366 173.422 257.341 172.122 257.341C170.822 257.341 169.717 256.353 169.717 254.676C169.717 252.999 170.822 252.05 172.122 252.05C173.422 252.05 174.54 253.038 174.54 254.689ZM177.735 258.264H178.918V248.644H177.735V258.264ZM180.934 258.264H182.117V248.644H180.934V258.264ZM187.162 252.024C188.384 252.024 189.424 252.791 189.411 254.182H184.913C185.043 252.791 186.005 252.024 187.162 252.024ZM190.49 256.067H189.216C188.956 256.834 188.28 257.38 187.214 257.38C186.005 257.38 184.991 256.587 184.9 255.144H190.594C190.62 254.897 190.633 254.689 190.633 254.429C190.633 252.479 189.281 251.023 187.214 251.023C185.134 251.023 183.691 252.44 183.691 254.689C183.691 256.951 185.186 258.381 187.214 258.381C188.982 258.381 190.126 257.367 190.49 256.067ZM192.455 256.314C192.455 257.744 193.17 258.264 194.431 258.264H195.497V257.263H194.626C193.898 257.263 193.638 257.016 193.638 256.314V252.115H195.497V251.14H193.638V249.346H192.455V251.14H191.532V252.115H192.455V256.314ZM38.3718 276.314C38.3718 277.744 39.0868 278.264 40.3478 278.264H41.4138V277.263H40.5428C39.8148 277.263 39.5548 277.016 39.5548 276.314V272.115H41.4138V271.14H39.5548V269.346H38.3718V271.14H37.4488V272.115H38.3718V276.314ZM49.6072 274.689C49.6072 272.44 48.0342 271.023 46.0062 271.023C43.9912 271.023 42.4052 272.44 42.4052 274.689C42.4052 276.951 43.9392 278.381 45.9542 278.381C47.9822 278.381 49.6072 276.951 49.6072 274.689ZM43.6142 274.689C43.6142 272.895 44.7452 272.05 45.9932 272.05C47.2152 272.05 48.3982 272.895 48.3982 274.689C48.3982 276.496 47.1892 277.341 45.9542 277.341C44.7192 277.341 43.6142 276.496 43.6142 274.689ZM54.6284 278.264H55.8114V274.325C55.8114 272.791 56.6434 272.037 57.8524 272.037C59.0484 272.037 59.8414 272.778 59.8414 274.234V278.264H61.0114V274.065C61.0114 272.024 59.7504 271.01 58.1644 271.01C57.1634 271.01 56.2794 271.413 55.8114 272.167V268.644H54.6284V278.264ZM65.9729 272.024C67.1949 272.024 68.2349 272.791 68.2219 274.182H63.7239C63.8539 272.791 64.8159 272.024 65.9729 272.024ZM69.3009 276.067H68.0269C67.7669 276.834 67.0909 277.38 66.0249 277.38C64.8159 277.38 63.8019 276.587 63.7109 275.144H69.4049C69.4309 274.897 69.4439 274.689 69.4439 274.429C69.4439 272.479 68.0919 271.023 66.0249 271.023C63.9449 271.023 62.5019 272.44 62.5019 274.689C62.5019 276.951 63.9969 278.381 66.0249 278.381C67.7929 278.381 68.9369 277.367 69.3009 276.067ZM72.1884 274.39C72.1884 272.739 73.0464 272.232 74.1774 272.232H74.4894V271.01C73.3584 271.01 72.5914 271.504 72.1884 272.297V271.14H71.0054V278.264H72.1884V274.39ZM79.5418 278.264H80.7248V272.115H82.2198V271.14H80.7248V270.633C80.7248 269.71 81.0758 269.32 82.1418 269.32V268.332C80.3218 268.332 79.5418 269.047 79.5418 270.633V271.14H78.6188V272.115H79.5418V278.264ZM84.7821 274.39C84.7821 272.739 85.6401 272.232 86.7711 272.232H87.0831V271.01C85.9521 271.01 85.1851 271.504 84.7821 272.297V271.14H83.5991V278.264H84.7821V274.39ZM88.4488 278.264H89.6318V271.14H88.4488V278.264ZM89.0598 269.983C89.4888 269.983 89.8398 269.632 89.8398 269.177C89.8398 268.722 89.4888 268.371 89.0598 268.371C88.6048 268.371 88.2538 268.722 88.2538 269.177C88.2538 269.632 88.6048 269.983 89.0598 269.983ZM94.677 272.024C95.899 272.024 96.939 272.791 96.926 274.182H92.428C92.558 272.791 93.52 272.024 94.677 272.024ZM98.005 276.067H96.731C96.471 276.834 95.795 277.38 94.729 277.38C93.52 277.38 92.506 276.587 92.415 275.144H98.109C98.135 274.897 98.148 274.689 98.148 274.429C98.148 272.479 96.796 271.023 94.729 271.023C92.649 271.023 91.206 272.44 91.206 274.689C91.206 276.951 92.701 278.381 94.729 278.381C96.497 278.381 97.641 277.367 98.005 276.067ZM104.922 278.264H106.092V274.065C106.092 272.024 104.831 271.01 103.18 271.01C102.218 271.01 101.36 271.413 100.892 272.154V271.14H99.7095V278.264H100.892V274.325C100.892 272.791 101.724 272.037 102.933 272.037C104.129 272.037 104.922 272.778 104.922 274.234V278.264ZM107.583 274.676C107.583 276.886 109.052 278.381 110.963 278.381C112.263 278.381 113.186 277.718 113.615 276.925V278.264H114.811V268.644H113.615V272.414C113.121 271.595 112.094 271.023 110.976 271.023C109.052 271.023 107.583 272.453 107.583 274.676ZM113.615 274.689C113.615 276.366 112.497 277.341 111.197 277.341C109.897 277.341 108.792 276.353 108.792 274.676C108.792 272.999 109.897 272.05 111.197 272.05C112.497 272.05 113.615 273.038 113.615 274.689ZM116.433 270.503H117.252L117.408 267.916H116.264L116.433 270.503ZM124.001 276.327C123.949 273.779 119.815 274.702 119.815 273.012C119.815 272.44 120.335 272.024 121.206 272.024C122.155 272.024 122.701 272.544 122.753 273.259H123.936C123.858 271.868 122.818 271.023 121.245 271.023C119.659 271.023 118.632 271.92 118.632 273.012C118.632 275.664 122.844 274.741 122.844 276.327C122.844 276.912 122.324 277.38 121.388 277.38C120.387 277.38 119.776 276.86 119.711 276.171H118.489C118.567 277.471 119.737 278.381 121.401 278.381C122.974 278.381 124.001 277.497 124.001 276.327ZM132.166 272.024C133.388 272.024 134.428 272.791 134.415 274.182H129.917C130.047 272.791 131.009 272.024 132.166 272.024ZM135.494 276.067H134.22C133.96 276.834 133.284 277.38 132.218 277.38C131.009 277.38 129.995 276.587 129.904 275.144H135.598C135.624 274.897 135.637 274.689 135.637 274.429C135.637 272.479 134.285 271.023 132.218 271.023C130.138 271.023 128.695 272.44 128.695 274.689C128.695 276.951 130.19 278.381 132.218 278.381C133.986 278.381 135.13 277.367 135.494 276.067ZM136.757 274.676C136.757 276.886 138.226 278.381 140.124 278.381C141.437 278.381 142.36 277.705 142.789 276.938V278.264H143.985V271.14H142.789V272.44C142.373 271.699 141.463 271.023 140.137 271.023C138.226 271.023 136.757 272.453 136.757 274.676ZM142.789 274.689C142.789 276.366 141.671 277.341 140.371 277.341C139.071 277.341 137.966 276.353 137.966 274.676C137.966 272.999 139.071 272.05 140.371 272.05C141.671 272.05 142.789 273.038 142.789 274.689ZM151.106 276.327C151.054 273.779 146.92 274.702 146.92 273.012C146.92 272.44 147.44 272.024 148.311 272.024C149.26 272.024 149.806 272.544 149.858 273.259H151.041C150.963 271.868 149.923 271.023 148.35 271.023C146.764 271.023 145.737 271.92 145.737 273.012C145.737 275.664 149.949 274.741 149.949 276.327C149.949 276.912 149.429 277.38 148.493 277.38C147.492 277.38 146.881 276.86 146.816 276.171H145.594C145.672 277.471 146.842 278.381 148.506 278.381C150.079 278.381 151.106 277.497 151.106 276.327ZM155.48 276.912L153.244 271.14H151.931L154.804 278.186L153.4 281.618H154.622L158.912 271.14H157.69L155.48 276.912ZM163.125 274.689C163.125 276.951 164.568 278.381 166.596 278.381C168.364 278.381 169.521 277.393 169.885 275.976H168.611C168.351 276.873 167.649 277.38 166.596 277.38C165.296 277.38 164.334 276.457 164.334 274.689C164.334 272.947 165.296 272.024 166.596 272.024C167.649 272.024 168.364 272.57 168.611 273.428H169.885C169.521 271.933 168.364 271.023 166.596 271.023C164.568 271.023 163.125 272.453 163.125 274.689ZM171.021 274.676C171.021 276.886 172.49 278.381 174.388 278.381C175.701 278.381 176.624 277.705 177.053 276.938V278.264H178.249V271.14H177.053V272.44C176.637 271.699 175.727 271.023 174.401 271.023C172.49 271.023 171.021 272.453 171.021 274.676ZM177.053 274.689C177.053 276.366 175.935 277.341 174.635 277.341C173.335 277.341 172.23 276.353 172.23 274.676C172.23 272.999 173.335 272.05 174.635 272.05C175.935 272.05 177.053 273.038 177.053 274.689ZM185.371 276.327C185.319 273.779 181.185 274.702 181.185 273.012C181.185 272.44 181.705 272.024 182.576 272.024C183.525 272.024 184.071 272.544 184.123 273.259H185.306C185.228 271.868 184.188 271.023 182.615 271.023C181.029 271.023 180.002 271.92 180.002 273.012C180.002 275.664 184.214 274.741 184.214 276.327C184.214 276.912 183.694 277.38 182.758 277.38C181.757 277.38 181.146 276.86 181.081 276.171H179.859C179.937 277.471 181.107 278.381 182.771 278.381C184.344 278.381 185.371 277.497 185.371 276.327ZM187.041 278.264H188.224V274.325C188.224 272.791 189.056 272.037 190.265 272.037C191.461 272.037 192.254 272.778 192.254 274.234V278.264H193.424V274.065C193.424 272.024 192.163 271.01 190.577 271.01C189.576 271.01 188.692 271.413 188.224 272.167V268.644H187.041V278.264ZM97.0697 298.264H98.2917L100.008 292.609L101.724 298.264H102.946L105.169 291.14H103.999L102.387 297.133L100.658 291.14H99.4487L97.6807 297.12L96.0427 291.14H94.8337L97.0697 298.264ZM105.901 294.676C105.901 296.886 107.37 298.381 109.268 298.381C110.581 298.381 111.504 297.705 111.933 296.938V298.264H113.129V291.14H111.933V292.44C111.517 291.699 110.607 291.023 109.281 291.023C107.37 291.023 105.901 292.453 105.901 294.676ZM111.933 294.689C111.933 296.366 110.815 297.341 109.515 297.341C108.215 297.341 107.11 296.353 107.11 294.676C107.11 292.999 108.215 292.05 109.515 292.05C110.815 292.05 111.933 293.038 111.933 294.689ZM115.128 298.264H116.311V288.644H115.128V298.264ZM118.327 298.264H119.51V288.644H118.327V298.264ZM124.555 292.024C125.777 292.024 126.817 292.791 126.804 294.182H122.306C122.436 292.791 123.398 292.024 124.555 292.024ZM127.883 296.067H126.609C126.349 296.834 125.673 297.38 124.607 297.38C123.398 297.38 122.384 296.587 122.293 295.144H127.987C128.013 294.897 128.026 294.689 128.026 294.429C128.026 292.479 126.674 291.023 124.607 291.023C122.527 291.023 121.084 292.44 121.084 294.689C121.084 296.951 122.579 298.381 124.607 298.381C126.375 298.381 127.519 297.367 127.883 296.067ZM129.848 296.314C129.848 297.744 130.563 298.264 131.824 298.264H132.89V297.263H132.019C131.291 297.263 131.031 297.016 131.031 296.314V292.115H132.89V291.14H131.031V289.346H129.848V291.14H128.925V292.115H129.848V296.314Z" fill="black"/>
<defs>
<clipPath id="clip0">
<rect width="227.826" height="194.783" fill="white" transform="translate(0.0439453 0.568359)"/>
</clipPath>
</defs>
</svg>
