<svg width="595" height="113" viewBox="0 0 595 113" fill="none" xmlns="http://www.w3.org/2000/svg">
<g filter="url(#filter0_d)">
<rect x="19" y="16" width="556.56" height="75" rx="24" fill="white"/>
</g>
<path d="M89.4033 54.3906C89.2627 55.5938 88.8174 56.5234 88.0674 57.1797C87.3226 57.8307 86.3304 58.1562 85.0908 58.1562C83.7471 58.1562 82.6689 57.6745 81.8564 56.7109C81.0492 55.7474 80.6455 54.4583 80.6455 52.8438V51.75C80.6455 50.6927 80.833 49.763 81.208 48.9609C81.5882 48.1589 82.1247 47.5443 82.8174 47.1172C83.5101 46.6849 84.3122 46.4688 85.2236 46.4688C86.432 46.4688 87.4007 46.8073 88.1299 47.4844C88.859 48.1562 89.2835 49.0885 89.4033 50.2812H87.8955C87.7653 49.375 87.4814 48.7188 87.0439 48.3125C86.6117 47.9062 86.0049 47.7031 85.2236 47.7031C84.2653 47.7031 83.5127 48.0573 82.9658 48.7656C82.4242 49.474 82.1533 50.4818 82.1533 51.7891V52.8906C82.1533 54.125 82.4111 55.1068 82.9268 55.8359C83.4424 56.5651 84.1637 56.9297 85.0908 56.9297C85.9242 56.9297 86.5622 56.7422 87.0049 56.3672C87.4528 55.987 87.7497 55.3281 87.8955 54.3906H89.4033ZM90.8486 53.6953C90.8486 52.8672 91.0101 52.1224 91.333 51.4609C91.6611 50.7995 92.1143 50.2891 92.6924 49.9297C93.2757 49.5703 93.9398 49.3906 94.6846 49.3906C95.8356 49.3906 96.7653 49.7891 97.4736 50.5859C98.1872 51.3828 98.5439 52.4427 98.5439 53.7656V53.8672C98.5439 54.6901 98.3851 55.4297 98.0674 56.0859C97.7549 56.737 97.3044 57.2448 96.7158 57.6094C96.1325 57.974 95.4606 58.1562 94.7002 58.1562C93.5544 58.1562 92.6247 57.7578 91.9111 56.9609C91.2028 56.1641 90.8486 55.1094 90.8486 53.7969V53.6953ZM92.3018 53.8672C92.3018 54.8047 92.5179 55.5573 92.9502 56.125C93.3877 56.6927 93.971 56.9766 94.7002 56.9766C95.4346 56.9766 96.0179 56.6901 96.4502 56.1172C96.8825 55.5391 97.0986 54.7318 97.0986 53.6953C97.0986 52.7682 96.8773 52.0182 96.4346 51.4453C95.9971 50.8672 95.4137 50.5781 94.6846 50.5781C93.971 50.5781 93.3955 50.862 92.958 51.4297C92.5205 51.9974 92.3018 52.8099 92.3018 53.8672ZM101.724 49.5469L101.771 50.6094C102.416 49.7969 103.26 49.3906 104.302 49.3906C106.088 49.3906 106.989 50.3984 107.005 52.4141V58H105.56V52.4062C105.554 51.7969 105.414 51.3464 105.138 51.0547C104.867 50.763 104.442 50.6172 103.864 50.6172C103.396 50.6172 102.984 50.7422 102.63 50.9922C102.276 51.2422 102 51.5703 101.802 51.9766V58H100.356V49.5469H101.724ZM109.669 58V50.6641H108.333V49.5469H109.669V48.8281C109.669 47.8854 109.937 47.151 110.474 46.625C111.015 46.099 111.778 45.8359 112.763 45.8359C113.346 45.8359 114.083 45.9948 114.974 46.3125L114.731 47.5312C114.08 47.2708 113.461 47.1406 112.872 47.1406C112.252 47.1406 111.804 47.2812 111.528 47.5625C111.257 47.8385 111.122 48.2552 111.122 48.8125V49.5469H112.849V50.6641H111.122V58H109.669ZM115.692 58H114.239V49.5469H115.692V58ZM122.13 50.8438C121.911 50.8073 121.674 50.7891 121.419 50.7891C120.471 50.7891 119.828 51.1927 119.489 52V58H118.044V49.5469H119.45L119.474 50.5234C119.948 49.7682 120.619 49.3906 121.489 49.3906C121.771 49.3906 121.984 49.4271 122.13 49.5V50.8438ZM124.825 49.5469L124.864 50.4844C125.484 49.7552 126.32 49.3906 127.372 49.3906C128.554 49.3906 129.359 49.8438 129.786 50.75C130.067 50.3438 130.432 50.0156 130.88 49.7656C131.333 49.5156 131.867 49.3906 132.481 49.3906C134.336 49.3906 135.278 50.3724 135.31 52.3359V58H133.864V52.4219C133.864 51.8177 133.726 51.3672 133.45 51.0703C133.174 50.7682 132.711 50.6172 132.06 50.6172C131.523 50.6172 131.078 50.7786 130.724 51.1016C130.369 51.4193 130.164 51.849 130.106 52.3906V58H128.653V52.4609C128.653 51.2318 128.052 50.6172 126.849 50.6172C125.901 50.6172 125.252 51.0208 124.903 51.8281V58H123.458V49.5469H124.825ZM143.427 47.5V49.5469H145.005V50.6641H143.427V55.9062C143.427 56.2448 143.497 56.5 143.638 56.6719C143.778 56.8385 144.018 56.9219 144.356 56.9219C144.523 56.9219 144.752 56.8906 145.044 56.8281V58C144.664 58.1042 144.294 58.1562 143.935 58.1562C143.289 58.1562 142.802 57.9609 142.474 57.5703C142.146 57.1797 141.981 56.625 141.981 55.9062V50.6641H140.442V49.5469H141.981V47.5H143.427ZM148.146 50.5703C148.786 49.7839 149.619 49.3906 150.646 49.3906C152.432 49.3906 153.333 50.3984 153.349 52.4141V58H151.903V52.4062C151.898 51.7969 151.757 51.3464 151.481 51.0547C151.211 50.763 150.786 50.6172 150.208 50.6172C149.739 50.6172 149.328 50.7422 148.974 50.9922C148.619 51.2422 148.343 51.5703 148.146 51.9766V58H146.7V46H148.146V50.5703ZM159.021 58.1562C157.875 58.1562 156.942 57.7812 156.224 57.0312C155.505 56.276 155.146 55.2682 155.146 54.0078V53.7422C155.146 52.9036 155.304 52.1562 155.622 51.5C155.945 50.8385 156.393 50.3229 156.966 49.9531C157.544 49.5781 158.169 49.3906 158.841 49.3906C159.94 49.3906 160.794 49.7526 161.403 50.4766C162.013 51.2005 162.317 52.237 162.317 53.5859V54.1875H156.591C156.612 55.0208 156.854 55.6953 157.317 56.2109C157.786 56.7214 158.38 56.9766 159.099 56.9766C159.609 56.9766 160.041 56.8724 160.396 56.6641C160.75 56.4557 161.06 56.1797 161.325 55.8359L162.208 56.5234C161.5 57.612 160.437 58.1562 159.021 58.1562ZM158.841 50.5781C158.257 50.5781 157.768 50.7917 157.372 51.2188C156.976 51.6406 156.731 52.2344 156.638 53H160.872V52.8906C160.83 52.1562 160.632 51.5885 160.278 51.1875C159.924 50.7812 159.445 50.5781 158.841 50.5781ZM169.927 47.5V49.5469H171.505V50.6641H169.927V55.9062C169.927 56.2448 169.997 56.5 170.138 56.6719C170.278 56.8385 170.518 56.9219 170.856 56.9219C171.023 56.9219 171.252 56.8906 171.544 56.8281V58C171.164 58.1042 170.794 58.1562 170.435 58.1562C169.789 58.1562 169.302 57.9609 168.974 57.5703C168.646 57.1797 168.481 56.625 168.481 55.9062V50.6641H166.942V49.5469H168.481V47.5H169.927ZM177.286 50.8438C177.067 50.8073 176.83 50.7891 176.575 50.7891C175.627 50.7891 174.984 51.1927 174.646 52V58H173.2V49.5469H174.606L174.63 50.5234C175.104 49.7682 175.776 49.3906 176.646 49.3906C176.927 49.3906 177.14 49.4271 177.286 49.5V50.8438ZM183.528 58C183.445 57.8333 183.377 57.5365 183.325 57.1094C182.653 57.8073 181.851 58.1562 180.919 58.1562C180.086 58.1562 179.401 57.9219 178.864 57.4531C178.333 56.9792 178.067 56.3802 178.067 55.6562C178.067 54.776 178.401 54.0938 179.067 53.6094C179.739 53.1198 180.682 52.875 181.896 52.875H183.302V52.2109C183.302 51.7057 183.151 51.3047 182.849 51.0078C182.547 50.7057 182.101 50.5547 181.513 50.5547C180.997 50.5547 180.565 50.6849 180.216 50.9453C179.867 51.2057 179.692 51.5208 179.692 51.8906H178.239C178.239 51.4688 178.388 51.0625 178.685 50.6719C178.987 50.276 179.393 49.9635 179.903 49.7344C180.419 49.5052 180.984 49.3906 181.599 49.3906C182.573 49.3906 183.336 49.6354 183.888 50.125C184.44 50.6094 184.726 51.2786 184.747 52.1328V56.0234C184.747 56.7995 184.846 57.4167 185.044 57.875V58H183.528ZM181.13 56.8984C181.583 56.8984 182.013 56.7812 182.419 56.5469C182.825 56.3125 183.119 56.0078 183.302 55.6328V53.8984H182.169C180.398 53.8984 179.513 54.4167 179.513 55.4531C179.513 55.9062 179.664 56.2604 179.966 56.5156C180.268 56.7708 180.656 56.8984 181.13 56.8984ZM188.38 49.5469L188.427 50.6094C189.073 49.7969 189.916 49.3906 190.958 49.3906C192.744 49.3906 193.646 50.3984 193.661 52.4141V58H192.216V52.4062C192.211 51.7969 192.07 51.3464 191.794 51.0547C191.523 50.763 191.099 50.6172 190.521 50.6172C190.052 50.6172 189.64 50.7422 189.286 50.9922C188.932 51.2422 188.656 51.5703 188.458 51.9766V58H187.013V49.5469H188.38ZM200.763 55.7578C200.763 55.3672 200.614 55.0651 200.317 54.8516C200.026 54.6328 199.513 54.4453 198.778 54.2891C198.049 54.1328 197.468 53.9453 197.036 53.7266C196.609 53.5078 196.291 53.2474 196.083 52.9453C195.88 52.6432 195.778 52.2839 195.778 51.8672C195.778 51.1745 196.07 50.5885 196.653 50.1094C197.242 49.6302 197.992 49.3906 198.903 49.3906C199.862 49.3906 200.638 49.638 201.231 50.1328C201.83 50.6276 202.13 51.2604 202.13 52.0312H200.677C200.677 51.6354 200.507 51.2943 200.169 51.0078C199.836 50.7214 199.414 50.5781 198.903 50.5781C198.377 50.5781 197.966 50.6927 197.669 50.9219C197.372 51.151 197.224 51.4505 197.224 51.8203C197.224 52.1693 197.362 52.4323 197.638 52.6094C197.914 52.7865 198.411 52.9557 199.13 53.1172C199.854 53.2786 200.44 53.4714 200.888 53.6953C201.336 53.9193 201.666 54.1901 201.88 54.5078C202.099 54.8203 202.208 55.2031 202.208 55.6562C202.208 56.4115 201.906 57.0182 201.302 57.4766C200.698 57.9297 199.914 58.1562 198.95 58.1562C198.273 58.1562 197.674 58.0365 197.153 57.7969C196.632 57.5573 196.224 57.224 195.927 56.7969C195.635 56.3646 195.489 55.8984 195.489 55.3984H196.935C196.961 55.8828 197.153 56.2682 197.513 56.5547C197.877 56.8359 198.356 56.9766 198.95 56.9766C199.497 56.9766 199.935 56.8672 200.263 56.6484C200.596 56.4245 200.763 56.1276 200.763 55.7578ZM204.802 58V50.6641H203.466V49.5469H204.802V48.6797C204.802 47.7734 205.044 47.0729 205.528 46.5781C206.013 46.0833 206.698 45.8359 207.583 45.8359C207.916 45.8359 208.247 45.8802 208.575 45.9688L208.497 47.1406C208.252 47.0938 207.992 47.0703 207.716 47.0703C207.247 47.0703 206.885 47.2083 206.63 47.4844C206.375 47.7552 206.247 48.1458 206.247 48.6562V49.5469H208.052V50.6641H206.247V58H204.802ZM212.974 58.1562C211.828 58.1562 210.896 57.7812 210.177 57.0312C209.458 56.276 209.099 55.2682 209.099 54.0078V53.7422C209.099 52.9036 209.257 52.1562 209.575 51.5C209.898 50.8385 210.346 50.3229 210.919 49.9531C211.497 49.5781 212.122 49.3906 212.794 49.3906C213.893 49.3906 214.747 49.7526 215.356 50.4766C215.966 51.2005 216.271 52.237 216.271 53.5859V54.1875H210.544C210.565 55.0208 210.807 55.6953 211.271 56.2109C211.739 56.7214 212.333 56.9766 213.052 56.9766C213.562 56.9766 213.994 56.8724 214.349 56.6641C214.703 56.4557 215.013 56.1797 215.278 55.8359L216.161 56.5234C215.453 57.612 214.39 58.1562 212.974 58.1562ZM212.794 50.5781C212.211 50.5781 211.721 50.7917 211.325 51.2188C210.929 51.6406 210.685 52.2344 210.591 53H214.825V52.8906C214.784 52.1562 214.586 51.5885 214.231 51.1875C213.877 50.7812 213.398 50.5781 212.794 50.5781ZM222.036 50.8438C221.817 50.8073 221.58 50.7891 221.325 50.7891C220.377 50.7891 219.734 51.1927 219.396 52V58H217.95V49.5469H219.356L219.38 50.5234C219.854 49.7682 220.526 49.3906 221.396 49.3906C221.677 49.3906 221.89 49.4271 222.036 49.5V50.8438ZM232.56 58C232.476 57.8333 232.409 57.5365 232.356 57.1094C231.685 57.8073 230.882 58.1562 229.95 58.1562C229.117 58.1562 228.432 57.9219 227.896 57.4531C227.364 56.9792 227.099 56.3802 227.099 55.6562C227.099 54.776 227.432 54.0938 228.099 53.6094C228.771 53.1198 229.713 52.875 230.927 52.875H232.333V52.2109C232.333 51.7057 232.182 51.3047 231.88 51.0078C231.578 50.7057 231.132 50.5547 230.544 50.5547C230.028 50.5547 229.596 50.6849 229.247 50.9453C228.898 51.2057 228.724 51.5208 228.724 51.8906H227.271C227.271 51.4688 227.419 51.0625 227.716 50.6719C228.018 50.276 228.424 49.9635 228.935 49.7344C229.45 49.5052 230.015 49.3906 230.63 49.3906C231.604 49.3906 232.367 49.6354 232.919 50.125C233.471 50.6094 233.757 51.2786 233.778 52.1328V56.0234C233.778 56.7995 233.877 57.4167 234.075 57.875V58H232.56ZM230.161 56.8984C230.614 56.8984 231.044 56.7812 231.45 56.5469C231.856 56.3125 232.151 56.0078 232.333 55.6328V53.8984H231.2C229.429 53.8984 228.544 54.4167 228.544 55.4531C228.544 55.9062 228.695 56.2604 228.997 56.5156C229.299 56.7708 229.687 56.8984 230.161 56.8984ZM236.755 58V50.6641H235.419V49.5469H236.755V48.6797C236.755 47.7734 236.997 47.0729 237.481 46.5781C237.966 46.0833 238.651 45.8359 239.536 45.8359C239.869 45.8359 240.2 45.8802 240.528 45.9688L240.45 47.1406C240.205 47.0938 239.945 47.0703 239.669 47.0703C239.2 47.0703 238.838 47.2083 238.583 47.4844C238.328 47.7552 238.2 48.1458 238.2 48.6562V49.5469H240.005V50.6641H238.2V58H236.755ZM243.567 47.5V49.5469H245.146V50.6641H243.567V55.9062C243.567 56.2448 243.638 56.5 243.778 56.6719C243.919 56.8385 244.159 56.9219 244.497 56.9219C244.664 56.9219 244.893 56.8906 245.185 56.8281V58C244.804 58.1042 244.435 58.1562 244.075 58.1562C243.429 58.1562 242.942 57.9609 242.614 57.5703C242.286 57.1797 242.122 56.625 242.122 55.9062V50.6641H240.583V49.5469H242.122V47.5H243.567ZM250.349 58.1562C249.203 58.1562 248.271 57.7812 247.552 57.0312C246.833 56.276 246.474 55.2682 246.474 54.0078V53.7422C246.474 52.9036 246.632 52.1562 246.95 51.5C247.273 50.8385 247.721 50.3229 248.294 49.9531C248.872 49.5781 249.497 49.3906 250.169 49.3906C251.268 49.3906 252.122 49.7526 252.731 50.4766C253.341 51.2005 253.646 52.237 253.646 53.5859V54.1875H247.919C247.94 55.0208 248.182 55.6953 248.646 56.2109C249.114 56.7214 249.708 56.9766 250.427 56.9766C250.937 56.9766 251.369 56.8724 251.724 56.6641C252.078 56.4557 252.388 56.1797 252.653 55.8359L253.536 56.5234C252.828 57.612 251.765 58.1562 250.349 58.1562ZM250.169 50.5781C249.586 50.5781 249.096 50.7917 248.7 51.2188C248.304 51.6406 248.06 52.2344 247.966 53H252.2V52.8906C252.159 52.1562 251.961 51.5885 251.606 51.1875C251.252 50.7812 250.773 50.5781 250.169 50.5781ZM259.411 50.8438C259.192 50.8073 258.955 50.7891 258.7 50.7891C257.752 50.7891 257.109 51.1927 256.771 52V58H255.325V49.5469H256.731L256.755 50.5234C257.229 49.7682 257.901 49.3906 258.771 49.3906C259.052 49.3906 259.265 49.4271 259.411 49.5V50.8438ZM268.106 56.9766C268.622 56.9766 269.073 56.8203 269.458 56.5078C269.843 56.1953 270.057 55.8047 270.099 55.3359H271.466C271.44 55.8203 271.273 56.2812 270.966 56.7188C270.659 57.1562 270.247 57.5052 269.731 57.7656C269.221 58.026 268.679 58.1562 268.106 58.1562C266.955 58.1562 266.039 57.7734 265.356 57.0078C264.679 56.237 264.341 55.1849 264.341 53.8516V53.6094C264.341 52.7865 264.492 52.0547 264.794 51.4141C265.096 50.7734 265.528 50.276 266.091 49.9219C266.659 49.5677 267.328 49.3906 268.099 49.3906C269.047 49.3906 269.833 49.6745 270.458 50.2422C271.088 50.8099 271.424 51.5469 271.466 52.4531H270.099C270.057 51.9062 269.849 51.4583 269.474 51.1094C269.104 50.7552 268.646 50.5781 268.099 50.5781C267.364 50.5781 266.794 50.8438 266.388 51.375C265.987 51.901 265.786 52.6641 265.786 53.6641V53.9375C265.786 54.9115 265.987 55.6615 266.388 56.1875C266.789 56.7135 267.362 56.9766 268.106 56.9766ZM274.536 50.5703C275.177 49.7839 276.01 49.3906 277.036 49.3906C278.823 49.3906 279.724 50.3984 279.739 52.4141V58H278.294V52.4062C278.289 51.7969 278.148 51.3464 277.872 51.0547C277.601 50.763 277.177 50.6172 276.599 50.6172C276.13 50.6172 275.718 50.7422 275.364 50.9922C275.01 51.2422 274.734 51.5703 274.536 51.9766V58H273.091V46H274.536V50.5703ZM285.411 58.1562C284.265 58.1562 283.333 57.7812 282.614 57.0312C281.896 56.276 281.536 55.2682 281.536 54.0078V53.7422C281.536 52.9036 281.695 52.1562 282.013 51.5C282.336 50.8385 282.784 50.3229 283.356 49.9531C283.935 49.5781 284.56 49.3906 285.231 49.3906C286.33 49.3906 287.185 49.7526 287.794 50.4766C288.403 51.2005 288.708 52.237 288.708 53.5859V54.1875H282.981C283.002 55.0208 283.244 55.6953 283.708 56.2109C284.177 56.7214 284.771 56.9766 285.489 56.9766C286 56.9766 286.432 56.8724 286.786 56.6641C287.14 56.4557 287.45 56.1797 287.716 55.8359L288.599 56.5234C287.89 57.612 286.828 58.1562 285.411 58.1562ZM285.231 50.5781C284.648 50.5781 284.159 50.7917 283.763 51.2188C283.367 51.6406 283.122 52.2344 283.028 53H287.263V52.8906C287.221 52.1562 287.023 51.5885 286.669 51.1875C286.315 50.7812 285.836 50.5781 285.231 50.5781ZM293.778 56.9766C294.294 56.9766 294.744 56.8203 295.13 56.5078C295.515 56.1953 295.729 55.8047 295.771 55.3359H297.138C297.112 55.8203 296.945 56.2812 296.638 56.7188C296.33 57.1562 295.919 57.5052 295.403 57.7656C294.893 58.026 294.351 58.1562 293.778 58.1562C292.627 58.1562 291.711 57.7734 291.028 57.0078C290.351 56.237 290.013 55.1849 290.013 53.8516V53.6094C290.013 52.7865 290.164 52.0547 290.466 51.4141C290.768 50.7734 291.2 50.276 291.763 49.9219C292.33 49.5677 293 49.3906 293.771 49.3906C294.718 49.3906 295.505 49.6745 296.13 50.2422C296.76 50.8099 297.096 51.5469 297.138 52.4531H295.771C295.729 51.9062 295.521 51.4583 295.146 51.1094C294.776 50.7552 294.317 50.5781 293.771 50.5781C293.036 50.5781 292.466 50.8438 292.06 51.375C291.659 51.901 291.458 52.6641 291.458 53.6641V53.9375C291.458 54.9115 291.659 55.6615 292.06 56.1875C292.461 56.7135 293.034 56.9766 293.778 56.9766ZM301.122 54.0859L300.216 55.0312V58H298.771V46H300.216V53.2578L300.989 52.3281L303.622 49.5469H305.38L302.091 53.0781L305.763 58H304.067L301.122 54.0859ZM308.442 58H306.997V49.5469H308.442V58ZM306.88 47.3047C306.88 47.0703 306.95 46.8724 307.091 46.7109C307.237 46.5495 307.45 46.4688 307.731 46.4688C308.013 46.4688 308.226 46.5495 308.372 46.7109C308.518 46.8724 308.591 47.0703 308.591 47.3047C308.591 47.5391 308.518 47.7344 308.372 47.8906C308.226 48.0469 308.013 48.125 307.731 48.125C307.45 48.125 307.237 48.0469 307.091 47.8906C306.95 47.7344 306.88 47.5391 306.88 47.3047ZM312.13 49.5469L312.177 50.6094C312.823 49.7969 313.666 49.3906 314.708 49.3906C316.494 49.3906 317.396 50.3984 317.411 52.4141V58H315.966V52.4062C315.961 51.7969 315.82 51.3464 315.544 51.0547C315.273 50.763 314.849 50.6172 314.271 50.6172C313.802 50.6172 313.39 50.7422 313.036 50.9922C312.682 51.2422 312.406 51.5703 312.208 51.9766V58H310.763V49.5469H312.13ZM319.247 53.7031C319.247 52.3854 319.552 51.3385 320.161 50.5625C320.771 49.7812 321.578 49.3906 322.583 49.3906C323.614 49.3906 324.419 49.7552 324.997 50.4844L325.067 49.5469H326.388V57.7969C326.388 58.8906 326.062 59.7526 325.411 60.3828C324.765 61.013 323.896 61.3281 322.802 61.3281C322.192 61.3281 321.596 61.1979 321.013 60.9375C320.429 60.6771 319.984 60.3203 319.677 59.8672L320.427 59C321.047 59.7656 321.804 60.1484 322.7 60.1484C323.403 60.1484 323.95 59.9505 324.341 59.5547C324.737 59.1589 324.935 58.6016 324.935 57.8828V57.1562C324.356 57.8229 323.567 58.1562 322.567 58.1562C321.578 58.1562 320.776 57.7578 320.161 56.9609C319.552 56.1641 319.247 55.0781 319.247 53.7031ZM320.7 53.8672C320.7 54.8203 320.896 55.5703 321.286 56.1172C321.677 56.6589 322.224 56.9297 322.927 56.9297C323.838 56.9297 324.507 56.5156 324.935 55.6875V51.8281C324.492 51.0208 323.828 50.6172 322.942 50.6172C322.239 50.6172 321.69 50.8906 321.294 51.4375C320.898 51.9844 320.7 52.7943 320.7 53.8672ZM334.114 58H332.669V49.5469H334.114V58ZM332.552 47.3047C332.552 47.0703 332.622 46.8724 332.763 46.7109C332.909 46.5495 333.122 46.4688 333.403 46.4688C333.685 46.4688 333.898 46.5495 334.044 46.7109C334.19 46.8724 334.263 47.0703 334.263 47.3047C334.263 47.5391 334.19 47.7344 334.044 47.8906C333.898 48.0469 333.685 48.125 333.403 48.125C333.122 48.125 332.909 48.0469 332.763 47.8906C332.622 47.7344 332.552 47.5391 332.552 47.3047ZM338.396 47.5V49.5469H339.974V50.6641H338.396V55.9062C338.396 56.2448 338.466 56.5 338.606 56.6719C338.747 56.8385 338.987 56.9219 339.325 56.9219C339.492 56.9219 339.721 56.8906 340.013 56.8281V58C339.632 58.1042 339.263 58.1562 338.903 58.1562C338.257 58.1562 337.771 57.9609 337.442 57.5703C337.114 57.1797 336.95 56.625 336.95 55.9062V50.6641H335.411V49.5469H336.95V47.5H338.396ZM341.7 57.2422C341.7 56.9922 341.773 56.7839 341.919 56.6172C342.07 56.4505 342.294 56.3672 342.591 56.3672C342.888 56.3672 343.112 56.4505 343.263 56.6172C343.419 56.7839 343.497 56.9922 343.497 57.2422C343.497 57.4818 343.419 57.6823 343.263 57.8438C343.112 58.0052 342.888 58.0859 342.591 58.0859C342.294 58.0859 342.07 58.0052 341.919 57.8438C341.773 57.6823 341.7 57.4818 341.7 57.2422Z" fill="#6654A4"/>
<path d="M38.1105 63.744H53.5025V61.312H42.4945C46.6225 57.952 52.8305 53.056 52.8305 47.296C52.8305 43.008 50.0145 40.448 45.6625 40.448C41.5025 40.448 38.3985 43.008 38.2065 47.936H41.0225C41.1505 45.024 42.6865 42.944 45.6945 42.944C48.8305 42.944 49.9505 44.864 49.9505 47.424C49.9505 52.16 44.1905 56.768 38.1105 61.664V63.744Z" fill="#6654A4"/>
<defs>
<filter id="filter0_d" x="0" y="0" width="594.56" height="113" filterUnits="userSpaceOnUse" color-interpolation-filters="sRGB">
<feFlood flood-opacity="0" result="BackgroundImageFix"/>
<feColorMatrix in="SourceAlpha" type="matrix" values="0 0 0 0 0 0 0 0 0 0 0 0 0 0 0 0 0 0 127 0"/>
<feMorphology radius="4" operator="dilate" in="SourceAlpha" result="effect1_dropShadow"/>
<feOffset dy="3"/>
<feGaussianBlur stdDeviation="7.5"/>
<feColorMatrix type="matrix" values="0 0 0 0 0.872109 0 0 0 0 0.853125 0 0 0 0 0.9375 0 0 0 0.5 0"/>
<feBlend mode="normal" in2="BackgroundImageFix" result="effect1_dropShadow"/>
<feBlend mode="normal" in="SourceGraphic" in2="effect1_dropShadow" result="shape"/>
</filter>
</defs>
</svg>
