<svg width="595" height="113" viewBox="0 0 595 113" fill="none" xmlns="http://www.w3.org/2000/svg">
<g filter="url(#filter0_d)">
<rect x="19" y="16" width="556.56" height="75" rx="24" fill="white"/>
</g>
<path d="M87.4658 49.7422H82.5361V53.7734H88.2627V55H81.0361V43.625H88.1846V44.8594H82.5361V48.5156H87.4658V49.7422ZM95.1221 55C95.0387 54.8333 94.971 54.5365 94.9189 54.1094C94.2471 54.8073 93.445 55.1562 92.5127 55.1562C91.6794 55.1562 90.9945 54.9219 90.458 54.4531C89.9268 53.9792 89.6611 53.3802 89.6611 52.6562C89.6611 51.776 89.9945 51.0938 90.6611 50.6094C91.333 50.1198 92.2757 49.875 93.4893 49.875H94.8955V49.2109C94.8955 48.7057 94.7445 48.3047 94.4424 48.0078C94.1403 47.7057 93.695 47.5547 93.1064 47.5547C92.5908 47.5547 92.1585 47.6849 91.8096 47.9453C91.4606 48.2057 91.2861 48.5208 91.2861 48.8906H89.833C89.833 48.4688 89.9814 48.0625 90.2783 47.6719C90.5804 47.276 90.9867 46.9635 91.4971 46.7344C92.0127 46.5052 92.5778 46.3906 93.1924 46.3906C94.1663 46.3906 94.9294 46.6354 95.4814 47.125C96.0335 47.6094 96.32 48.2786 96.3408 49.1328V53.0234C96.3408 53.7995 96.4398 54.4167 96.6377 54.875V55H95.1221ZM92.7236 53.8984C93.1768 53.8984 93.6064 53.7812 94.0127 53.5469C94.4189 53.3125 94.7132 53.0078 94.8955 52.6328V50.8984H93.7627C91.9919 50.8984 91.1064 51.4167 91.1064 52.4531C91.1064 52.9062 91.2575 53.2604 91.5596 53.5156C91.8617 53.7708 92.2497 53.8984 92.7236 53.8984ZM103.528 52.7578C103.528 52.3672 103.38 52.0651 103.083 51.8516C102.791 51.6328 102.278 51.4453 101.544 51.2891C100.815 51.1328 100.234 50.9453 99.8018 50.7266C99.3747 50.5078 99.057 50.2474 98.8486 49.9453C98.6455 49.6432 98.5439 49.2839 98.5439 48.8672C98.5439 48.1745 98.8356 47.5885 99.4189 47.1094C100.007 46.6302 100.757 46.3906 101.669 46.3906C102.627 46.3906 103.403 46.638 103.997 47.1328C104.596 47.6276 104.896 48.2604 104.896 49.0312H103.442C103.442 48.6354 103.273 48.2943 102.935 48.0078C102.601 47.7214 102.179 47.5781 101.669 47.5781C101.143 47.5781 100.731 47.6927 100.435 47.9219C100.138 48.151 99.9893 48.4505 99.9893 48.8203C99.9893 49.1693 100.127 49.4323 100.403 49.6094C100.679 49.7865 101.177 49.9557 101.896 50.1172C102.619 50.2786 103.205 50.4714 103.653 50.6953C104.101 50.9193 104.432 51.1901 104.646 51.5078C104.864 51.8203 104.974 52.2031 104.974 52.6562C104.974 53.4115 104.672 54.0182 104.067 54.4766C103.463 54.9297 102.679 55.1562 101.716 55.1562C101.039 55.1562 100.44 55.0365 99.9189 54.7969C99.3981 54.5573 98.9893 54.224 98.6924 53.7969C98.4007 53.3646 98.2549 52.8984 98.2549 52.3984H99.7002C99.7262 52.8828 99.9189 53.2682 100.278 53.5547C100.643 53.8359 101.122 53.9766 101.716 53.9766C102.263 53.9766 102.7 53.8672 103.028 53.6484C103.362 53.4245 103.528 53.1276 103.528 52.7578ZM109.622 52.8828L111.591 46.5469H113.138L109.739 56.3047C109.213 57.7109 108.377 58.4141 107.231 58.4141L106.958 58.3906L106.419 58.2891V57.1172L106.81 57.1484C107.299 57.1484 107.679 57.0495 107.95 56.8516C108.226 56.6536 108.453 56.2917 108.63 55.7656L108.95 54.9062L105.935 46.5469H107.513L109.622 52.8828ZM123.028 51.3906C122.888 52.5938 122.442 53.5234 121.692 54.1797C120.948 54.8307 119.955 55.1562 118.716 55.1562C117.372 55.1562 116.294 54.6745 115.481 53.7109C114.674 52.7474 114.271 51.4583 114.271 49.8438V48.75C114.271 47.6927 114.458 46.763 114.833 45.9609C115.213 45.1589 115.75 44.5443 116.442 44.1172C117.135 43.6849 117.937 43.4688 118.849 43.4688C120.057 43.4688 121.026 43.8073 121.755 44.4844C122.484 45.1562 122.909 46.0885 123.028 47.2812H121.521C121.39 46.375 121.106 45.7188 120.669 45.3125C120.237 44.9062 119.63 44.7031 118.849 44.7031C117.89 44.7031 117.138 45.0573 116.591 45.7656C116.049 46.474 115.778 47.4818 115.778 48.7891V49.8906C115.778 51.125 116.036 52.1068 116.552 52.8359C117.067 53.5651 117.789 53.9297 118.716 53.9297C119.549 53.9297 120.187 53.7422 120.63 53.3672C121.078 52.987 121.375 52.3281 121.521 51.3906H123.028ZM130.075 55C129.992 54.8333 129.924 54.5365 129.872 54.1094C129.2 54.8073 128.398 55.1562 127.466 55.1562C126.632 55.1562 125.948 54.9219 125.411 54.4531C124.88 53.9792 124.614 53.3802 124.614 52.6562C124.614 51.776 124.948 51.0938 125.614 50.6094C126.286 50.1198 127.229 49.875 128.442 49.875H129.849V49.2109C129.849 48.7057 129.698 48.3047 129.396 48.0078C129.093 47.7057 128.648 47.5547 128.06 47.5547C127.544 47.5547 127.112 47.6849 126.763 47.9453C126.414 48.2057 126.239 48.5208 126.239 48.8906H124.786C124.786 48.4688 124.935 48.0625 125.231 47.6719C125.534 47.276 125.94 46.9635 126.45 46.7344C126.966 46.5052 127.531 46.3906 128.146 46.3906C129.119 46.3906 129.882 46.6354 130.435 47.125C130.987 47.6094 131.273 48.2786 131.294 49.1328V53.0234C131.294 53.7995 131.393 54.4167 131.591 54.875V55H130.075ZM127.677 53.8984C128.13 53.8984 128.56 53.7812 128.966 53.5469C129.372 53.3125 129.666 53.0078 129.849 52.6328V50.8984H128.716C126.945 50.8984 126.06 51.4167 126.06 52.4531C126.06 52.9062 126.211 53.2604 126.513 53.5156C126.815 53.7708 127.203 53.8984 127.677 53.8984ZM138.481 52.7578C138.481 52.3672 138.333 52.0651 138.036 51.8516C137.744 51.6328 137.231 51.4453 136.497 51.2891C135.768 51.1328 135.187 50.9453 134.755 50.7266C134.328 50.5078 134.01 50.2474 133.802 49.9453C133.599 49.6432 133.497 49.2839 133.497 48.8672C133.497 48.1745 133.789 47.5885 134.372 47.1094C134.961 46.6302 135.711 46.3906 136.622 46.3906C137.58 46.3906 138.356 46.638 138.95 47.1328C139.549 47.6276 139.849 48.2604 139.849 49.0312H138.396C138.396 48.6354 138.226 48.2943 137.888 48.0078C137.554 47.7214 137.132 47.5781 136.622 47.5781C136.096 47.5781 135.685 47.6927 135.388 47.9219C135.091 48.151 134.942 48.4505 134.942 48.8203C134.942 49.1693 135.08 49.4323 135.356 49.6094C135.632 49.7865 136.13 49.9557 136.849 50.1172C137.573 50.2786 138.159 50.4714 138.606 50.6953C139.054 50.9193 139.385 51.1901 139.599 51.5078C139.817 51.8203 139.927 52.2031 139.927 52.6562C139.927 53.4115 139.625 54.0182 139.021 54.4766C138.416 54.9297 137.632 55.1562 136.669 55.1562C135.992 55.1562 135.393 55.0365 134.872 54.7969C134.351 54.5573 133.942 54.224 133.646 53.7969C133.354 53.3646 133.208 52.8984 133.208 52.3984H134.653C134.679 52.8828 134.872 53.2682 135.231 53.5547C135.596 53.8359 136.075 53.9766 136.669 53.9766C137.216 53.9766 137.653 53.8672 137.981 53.6484C138.315 53.4245 138.481 53.1276 138.481 52.7578ZM143.255 47.5703C143.896 46.7839 144.729 46.3906 145.755 46.3906C147.541 46.3906 148.442 47.3984 148.458 49.4141V55H147.013V49.4062C147.007 48.7969 146.867 48.3464 146.591 48.0547C146.32 47.763 145.896 47.6172 145.317 47.6172C144.849 47.6172 144.437 47.7422 144.083 47.9922C143.729 48.2422 143.453 48.5703 143.255 48.9766V55H141.81V43H143.255V47.5703ZM159.81 55C159.726 54.8333 159.659 54.5365 159.606 54.1094C158.935 54.8073 158.132 55.1562 157.2 55.1562C156.367 55.1562 155.682 54.9219 155.146 54.4531C154.614 53.9792 154.349 53.3802 154.349 52.6562C154.349 51.776 154.682 51.0938 155.349 50.6094C156.021 50.1198 156.963 49.875 158.177 49.875H159.583V49.2109C159.583 48.7057 159.432 48.3047 159.13 48.0078C158.828 47.7057 158.382 47.5547 157.794 47.5547C157.278 47.5547 156.846 47.6849 156.497 47.9453C156.148 48.2057 155.974 48.5208 155.974 48.8906H154.521C154.521 48.4688 154.669 48.0625 154.966 47.6719C155.268 47.276 155.674 46.9635 156.185 46.7344C156.7 46.5052 157.265 46.3906 157.88 46.3906C158.854 46.3906 159.617 46.6354 160.169 47.125C160.721 47.6094 161.007 48.2786 161.028 49.1328V53.0234C161.028 53.7995 161.127 54.4167 161.325 54.875V55H159.81ZM157.411 53.8984C157.864 53.8984 158.294 53.7812 158.7 53.5469C159.106 53.3125 159.401 53.0078 159.583 52.6328V50.8984H158.45C156.679 50.8984 155.794 51.4167 155.794 52.4531C155.794 52.9062 155.945 53.2604 156.247 53.5156C156.549 53.7708 156.937 53.8984 157.411 53.8984ZM170.435 50.8672C170.435 52.1536 170.14 53.1901 169.552 53.9766C168.963 54.763 168.166 55.1562 167.161 55.1562C166.135 55.1562 165.328 54.8307 164.739 54.1797V58.25H163.294V46.5469H164.614L164.685 47.4844C165.273 46.7552 166.091 46.3906 167.138 46.3906C168.153 46.3906 168.955 46.7734 169.544 47.5391C170.138 48.3047 170.435 49.3698 170.435 50.7344V50.8672ZM168.989 50.7031C168.989 49.75 168.786 48.9974 168.38 48.4453C167.974 47.8932 167.416 47.6172 166.708 47.6172C165.833 47.6172 165.177 48.0052 164.739 48.7812V52.8203C165.172 53.5911 165.833 53.9766 166.724 53.9766C167.416 53.9766 167.966 53.7031 168.372 53.1562C168.784 52.6042 168.989 51.7865 168.989 50.7031ZM179.419 50.8672C179.419 52.1536 179.125 53.1901 178.536 53.9766C177.948 54.763 177.151 55.1562 176.146 55.1562C175.119 55.1562 174.312 54.8307 173.724 54.1797V58.25H172.278V46.5469H173.599L173.669 47.4844C174.257 46.7552 175.075 46.3906 176.122 46.3906C177.138 46.3906 177.94 46.7734 178.528 47.5391C179.122 48.3047 179.419 49.3698 179.419 50.7344V50.8672ZM177.974 50.7031C177.974 49.75 177.771 48.9974 177.364 48.4453C176.958 47.8932 176.401 47.6172 175.692 47.6172C174.817 47.6172 174.161 48.0052 173.724 48.7812V52.8203C174.156 53.5911 174.817 53.9766 175.708 53.9766C176.401 53.9766 176.95 53.7031 177.356 53.1562C177.768 52.6042 177.974 51.7865 177.974 50.7031ZM182.833 55H181.388V43H182.833V55ZM186.724 55H185.278V46.5469H186.724V55ZM185.161 44.3047C185.161 44.0703 185.231 43.8724 185.372 43.7109C185.518 43.5495 185.731 43.4688 186.013 43.4688C186.294 43.4688 186.507 43.5495 186.653 43.7109C186.799 43.8724 186.872 44.0703 186.872 44.3047C186.872 44.5391 186.799 44.7344 186.653 44.8906C186.507 45.0469 186.294 45.125 186.013 45.125C185.731 45.125 185.518 45.0469 185.372 44.8906C185.231 44.7344 185.161 44.5391 185.161 44.3047ZM192.435 53.9766C192.95 53.9766 193.401 53.8203 193.786 53.5078C194.172 53.1953 194.385 52.8047 194.427 52.3359H195.794C195.768 52.8203 195.601 53.2812 195.294 53.7188C194.987 54.1562 194.575 54.5052 194.06 54.7656C193.549 55.026 193.007 55.1562 192.435 55.1562C191.284 55.1562 190.367 54.7734 189.685 54.0078C189.007 53.237 188.669 52.1849 188.669 50.8516V50.6094C188.669 49.7865 188.82 49.0547 189.122 48.4141C189.424 47.7734 189.856 47.276 190.419 46.9219C190.987 46.5677 191.656 46.3906 192.427 46.3906C193.375 46.3906 194.161 46.6745 194.786 47.2422C195.416 47.8099 195.752 48.5469 195.794 49.4531H194.427C194.385 48.9062 194.177 48.4583 193.802 48.1094C193.432 47.7552 192.974 47.5781 192.427 47.5781C191.692 47.5781 191.122 47.8438 190.716 48.375C190.315 48.901 190.114 49.6641 190.114 50.6641V50.9375C190.114 51.9115 190.315 52.6615 190.716 53.1875C191.117 53.7135 191.69 53.9766 192.435 53.9766ZM202.638 55C202.554 54.8333 202.487 54.5365 202.435 54.1094C201.763 54.8073 200.961 55.1562 200.028 55.1562C199.195 55.1562 198.51 54.9219 197.974 54.4531C197.442 53.9792 197.177 53.3802 197.177 52.6562C197.177 51.776 197.51 51.0938 198.177 50.6094C198.849 50.1198 199.791 49.875 201.005 49.875H202.411V49.2109C202.411 48.7057 202.26 48.3047 201.958 48.0078C201.656 47.7057 201.211 47.5547 200.622 47.5547C200.106 47.5547 199.674 47.6849 199.325 47.9453C198.976 48.2057 198.802 48.5208 198.802 48.8906H197.349C197.349 48.4688 197.497 48.0625 197.794 47.6719C198.096 47.276 198.502 46.9635 199.013 46.7344C199.528 46.5052 200.093 46.3906 200.708 46.3906C201.682 46.3906 202.445 46.6354 202.997 47.125C203.549 47.6094 203.836 48.2786 203.856 49.1328V53.0234C203.856 53.7995 203.955 54.4167 204.153 54.875V55H202.638ZM200.239 53.8984C200.692 53.8984 201.122 53.7812 201.528 53.5469C201.935 53.3125 202.229 53.0078 202.411 52.6328V50.8984H201.278C199.507 50.8984 198.622 51.4167 198.622 52.4531C198.622 52.9062 198.773 53.2604 199.075 53.5156C199.377 53.7708 199.765 53.8984 200.239 53.8984ZM208.083 44.5V46.5469H209.661V47.6641H208.083V52.9062C208.083 53.2448 208.153 53.5 208.294 53.6719C208.435 53.8385 208.674 53.9219 209.013 53.9219C209.179 53.9219 209.409 53.8906 209.7 53.8281V55C209.32 55.1042 208.95 55.1562 208.591 55.1562C207.945 55.1562 207.458 54.9609 207.13 54.5703C206.802 54.1797 206.638 53.625 206.638 52.9062V47.6641H205.099V46.5469H206.638V44.5H208.083ZM212.927 55H211.481V46.5469H212.927V55ZM211.364 44.3047C211.364 44.0703 211.435 43.8724 211.575 43.7109C211.721 43.5495 211.935 43.4688 212.216 43.4688C212.497 43.4688 212.711 43.5495 212.856 43.7109C213.002 43.8724 213.075 44.0703 213.075 44.3047C213.075 44.5391 213.002 44.7344 212.856 44.8906C212.711 45.0469 212.497 45.125 212.216 45.125C211.935 45.125 211.721 45.0469 211.575 44.8906C211.435 44.7344 211.364 44.5391 211.364 44.3047ZM214.864 50.6953C214.864 49.8672 215.026 49.1224 215.349 48.4609C215.677 47.7995 216.13 47.2891 216.708 46.9297C217.291 46.5703 217.955 46.3906 218.7 46.3906C219.851 46.3906 220.781 46.7891 221.489 47.5859C222.203 48.3828 222.56 49.4427 222.56 50.7656V50.8672C222.56 51.6901 222.401 52.4297 222.083 53.0859C221.771 53.737 221.32 54.2448 220.731 54.6094C220.148 54.974 219.476 55.1562 218.716 55.1562C217.57 55.1562 216.64 54.7578 215.927 53.9609C215.218 53.1641 214.864 52.1094 214.864 50.7969V50.6953ZM216.317 50.8672C216.317 51.8047 216.534 52.5573 216.966 53.125C217.403 53.6927 217.987 53.9766 218.716 53.9766C219.45 53.9766 220.034 53.6901 220.466 53.1172C220.898 52.5391 221.114 51.7318 221.114 50.6953C221.114 49.7682 220.893 49.0182 220.45 48.4453C220.013 47.8672 219.429 47.5781 218.7 47.5781C217.987 47.5781 217.411 47.862 216.974 48.4297C216.536 48.9974 216.317 49.8099 216.317 50.8672ZM225.739 46.5469L225.786 47.6094C226.432 46.7969 227.276 46.3906 228.317 46.3906C230.104 46.3906 231.005 47.3984 231.021 49.4141V55H229.575V49.4062C229.57 48.7969 229.429 48.3464 229.153 48.0547C228.882 47.763 228.458 47.6172 227.88 47.6172C227.411 47.6172 227 47.7422 226.646 47.9922C226.291 48.2422 226.015 48.5703 225.817 48.9766V55H224.372V46.5469H225.739ZM244.653 53.0078L246.278 46.5469H247.724L245.263 55H244.091L242.036 48.5938L240.036 55H238.864L236.411 46.5469H237.849L239.513 52.875L241.481 46.5469H242.646L244.653 53.0078ZM250.771 55H249.325V46.5469H250.771V55ZM249.208 44.3047C249.208 44.0703 249.278 43.8724 249.419 43.7109C249.565 43.5495 249.778 43.4688 250.06 43.4688C250.341 43.4688 250.554 43.5495 250.7 43.7109C250.846 43.8724 250.919 44.0703 250.919 44.3047C250.919 44.5391 250.846 44.7344 250.7 44.8906C250.554 45.0469 250.341 45.125 250.06 45.125C249.778 45.125 249.565 45.0469 249.419 44.8906C249.278 44.7344 249.208 44.5391 249.208 44.3047ZM254.661 55H253.216V43H254.661V55ZM258.552 55H257.106V43H258.552V55ZM269.763 52.7578C269.763 52.3672 269.614 52.0651 269.317 51.8516C269.026 51.6328 268.513 51.4453 267.778 51.2891C267.049 51.1328 266.468 50.9453 266.036 50.7266C265.609 50.5078 265.291 50.2474 265.083 49.9453C264.88 49.6432 264.778 49.2839 264.778 48.8672C264.778 48.1745 265.07 47.5885 265.653 47.1094C266.242 46.6302 266.992 46.3906 267.903 46.3906C268.862 46.3906 269.638 46.638 270.231 47.1328C270.83 47.6276 271.13 48.2604 271.13 49.0312H269.677C269.677 48.6354 269.507 48.2943 269.169 48.0078C268.836 47.7214 268.414 47.5781 267.903 47.5781C267.377 47.5781 266.966 47.6927 266.669 47.9219C266.372 48.151 266.224 48.4505 266.224 48.8203C266.224 49.1693 266.362 49.4323 266.638 49.6094C266.914 49.7865 267.411 49.9557 268.13 50.1172C268.854 50.2786 269.44 50.4714 269.888 50.6953C270.336 50.9193 270.666 51.1901 270.88 51.5078C271.099 51.8203 271.208 52.2031 271.208 52.6562C271.208 53.4115 270.906 54.0182 270.302 54.4766C269.698 54.9297 268.914 55.1562 267.95 55.1562C267.273 55.1562 266.674 55.0365 266.153 54.7969C265.632 54.5573 265.224 54.224 264.927 53.7969C264.635 53.3646 264.489 52.8984 264.489 52.3984H265.935C265.961 52.8828 266.153 53.2682 266.513 53.5547C266.877 53.8359 267.356 53.9766 267.95 53.9766C268.497 53.9766 268.935 53.8672 269.263 53.6484C269.596 53.4245 269.763 53.1276 269.763 52.7578ZM276.599 55.1562C275.453 55.1562 274.521 54.7812 273.802 54.0312C273.083 53.276 272.724 52.2682 272.724 51.0078V50.7422C272.724 49.9036 272.882 49.1562 273.2 48.5C273.523 47.8385 273.971 47.3229 274.544 46.9531C275.122 46.5781 275.747 46.3906 276.419 46.3906C277.518 46.3906 278.372 46.7526 278.981 47.4766C279.591 48.2005 279.896 49.237 279.896 50.5859V51.1875H274.169C274.19 52.0208 274.432 52.6953 274.896 53.2109C275.364 53.7214 275.958 53.9766 276.677 53.9766C277.187 53.9766 277.619 53.8724 277.974 53.6641C278.328 53.4557 278.638 53.1797 278.903 52.8359L279.786 53.5234C279.078 54.612 278.015 55.1562 276.599 55.1562ZM276.419 47.5781C275.836 47.5781 275.346 47.7917 274.95 48.2188C274.554 48.6406 274.31 49.2344 274.216 50H278.45V49.8906C278.409 49.1562 278.211 48.5885 277.856 48.1875C277.502 47.7812 277.023 47.5781 276.419 47.5781ZM286.794 55C286.711 54.8333 286.643 54.5365 286.591 54.1094C285.919 54.8073 285.117 55.1562 284.185 55.1562C283.351 55.1562 282.666 54.9219 282.13 54.4531C281.599 53.9792 281.333 53.3802 281.333 52.6562C281.333 51.776 281.666 51.0938 282.333 50.6094C283.005 50.1198 283.948 49.875 285.161 49.875H286.567V49.2109C286.567 48.7057 286.416 48.3047 286.114 48.0078C285.812 47.7057 285.367 47.5547 284.778 47.5547C284.263 47.5547 283.83 47.6849 283.481 47.9453C283.132 48.2057 282.958 48.5208 282.958 48.8906H281.505C281.505 48.4688 281.653 48.0625 281.95 47.6719C282.252 47.276 282.659 46.9635 283.169 46.7344C283.685 46.5052 284.25 46.3906 284.864 46.3906C285.838 46.3906 286.601 46.6354 287.153 47.125C287.705 47.6094 287.992 48.2786 288.013 49.1328V53.0234C288.013 53.7995 288.112 54.4167 288.31 54.875V55H286.794ZM284.396 53.8984C284.849 53.8984 285.278 53.7812 285.685 53.5469C286.091 53.3125 286.385 53.0078 286.567 52.6328V50.8984H285.435C283.664 50.8984 282.778 51.4167 282.778 52.4531C282.778 52.9062 282.929 53.2604 283.231 53.5156C283.534 53.7708 283.922 53.8984 284.396 53.8984ZM294.364 47.8438C294.146 47.8073 293.909 47.7891 293.653 47.7891C292.705 47.7891 292.062 48.1927 291.724 49V55H290.278V46.5469H291.685L291.708 47.5234C292.182 46.7682 292.854 46.3906 293.724 46.3906C294.005 46.3906 294.218 46.4271 294.364 46.5V47.8438ZM298.935 53.9766C299.45 53.9766 299.901 53.8203 300.286 53.5078C300.672 53.1953 300.885 52.8047 300.927 52.3359H302.294C302.268 52.8203 302.101 53.2812 301.794 53.7188C301.487 54.1562 301.075 54.5052 300.56 54.7656C300.049 55.026 299.507 55.1562 298.935 55.1562C297.784 55.1562 296.867 54.7734 296.185 54.0078C295.507 53.237 295.169 52.1849 295.169 50.8516V50.6094C295.169 49.7865 295.32 49.0547 295.622 48.4141C295.924 47.7734 296.356 47.276 296.919 46.9219C297.487 46.5677 298.156 46.3906 298.927 46.3906C299.875 46.3906 300.661 46.6745 301.286 47.2422C301.916 47.8099 302.252 48.5469 302.294 49.4531H300.927C300.885 48.9062 300.677 48.4583 300.302 48.1094C299.932 47.7552 299.474 47.5781 298.927 47.5781C298.192 47.5781 297.622 47.8438 297.216 48.375C296.815 48.901 296.614 49.6641 296.614 50.6641V50.9375C296.614 51.9115 296.815 52.6615 297.216 53.1875C297.617 53.7135 298.19 53.9766 298.935 53.9766ZM305.364 47.5703C306.005 46.7839 306.838 46.3906 307.864 46.3906C309.651 46.3906 310.552 47.3984 310.567 49.4141V55H309.122V49.4062C309.117 48.7969 308.976 48.3464 308.7 48.0547C308.429 47.763 308.005 47.6172 307.427 47.6172C306.958 47.6172 306.547 47.7422 306.192 47.9922C305.838 48.2422 305.562 48.5703 305.364 48.9766V55H303.919V43H305.364V47.5703ZM318.067 46.5469L318.114 47.6094C318.76 46.7969 319.604 46.3906 320.646 46.3906C322.432 46.3906 323.333 47.3984 323.349 49.4141V55H321.903V49.4062C321.898 48.7969 321.757 48.3464 321.481 48.0547C321.211 47.763 320.786 47.6172 320.208 47.6172C319.739 47.6172 319.328 47.7422 318.974 47.9922C318.619 48.2422 318.343 48.5703 318.146 48.9766V55H316.7V46.5469H318.067ZM329.036 55.1562C327.89 55.1562 326.958 54.7812 326.239 54.0312C325.521 53.276 325.161 52.2682 325.161 51.0078V50.7422C325.161 49.9036 325.32 49.1562 325.638 48.5C325.961 47.8385 326.409 47.3229 326.981 46.9531C327.56 46.5781 328.185 46.3906 328.856 46.3906C329.955 46.3906 330.81 46.7526 331.419 47.4766C332.028 48.2005 332.333 49.237 332.333 50.5859V51.1875H326.606C326.627 52.0208 326.869 52.6953 327.333 53.2109C327.802 53.7214 328.396 53.9766 329.114 53.9766C329.625 53.9766 330.057 53.8724 330.411 53.6641C330.765 53.4557 331.075 53.1797 331.341 52.8359L332.224 53.5234C331.515 54.612 330.453 55.1562 329.036 55.1562ZM328.856 47.5781C328.273 47.5781 327.784 47.7917 327.388 48.2188C326.992 48.6406 326.747 49.2344 326.653 50H330.888V49.8906C330.846 49.1562 330.648 48.5885 330.294 48.1875C329.94 47.7812 329.461 47.5781 328.856 47.5781ZM339.231 55C339.148 54.8333 339.08 54.5365 339.028 54.1094C338.356 54.8073 337.554 55.1562 336.622 55.1562C335.789 55.1562 335.104 54.9219 334.567 54.4531C334.036 53.9792 333.771 53.3802 333.771 52.6562C333.771 51.776 334.104 51.0938 334.771 50.6094C335.442 50.1198 336.385 49.875 337.599 49.875H339.005V49.2109C339.005 48.7057 338.854 48.3047 338.552 48.0078C338.25 47.7057 337.804 47.5547 337.216 47.5547C336.7 47.5547 336.268 47.6849 335.919 47.9453C335.57 48.2057 335.396 48.5208 335.396 48.8906H333.942C333.942 48.4688 334.091 48.0625 334.388 47.6719C334.69 47.276 335.096 46.9635 335.606 46.7344C336.122 46.5052 336.687 46.3906 337.302 46.3906C338.276 46.3906 339.039 46.6354 339.591 47.125C340.143 47.6094 340.429 48.2786 340.45 49.1328V53.0234C340.45 53.7995 340.549 54.4167 340.747 54.875V55H339.231ZM336.833 53.8984C337.286 53.8984 337.716 53.7812 338.122 53.5469C338.528 53.3125 338.823 53.0078 339.005 52.6328V50.8984H337.872C336.101 50.8984 335.216 51.4167 335.216 52.4531C335.216 52.9062 335.367 53.2604 335.669 53.5156C335.971 53.7708 336.359 53.8984 336.833 53.8984ZM346.802 47.8438C346.583 47.8073 346.346 47.7891 346.091 47.7891C345.143 47.7891 344.5 48.1927 344.161 49V55H342.716V46.5469H344.122L344.146 47.5234C344.619 46.7682 345.291 46.3906 346.161 46.3906C346.442 46.3906 346.656 46.4271 346.802 46.5V47.8438ZM355.294 50.8672C355.294 52.1589 354.997 53.1979 354.403 53.9844C353.81 54.7656 353.013 55.1562 352.013 55.1562C350.945 55.1562 350.119 54.7786 349.536 54.0234L349.466 55H348.138V43H349.583V47.4766C350.166 46.7526 350.971 46.3906 351.997 46.3906C353.023 46.3906 353.828 46.7786 354.411 47.5547C355 48.3307 355.294 49.3932 355.294 50.7422V50.8672ZM353.849 50.7031C353.849 49.7188 353.659 48.9583 353.278 48.4219C352.898 47.8854 352.351 47.6172 351.638 47.6172C350.685 47.6172 350 48.0599 349.583 48.9453V52.6016C350.026 53.487 350.716 53.9297 351.653 53.9297C352.346 53.9297 352.885 53.6615 353.271 53.125C353.656 52.5885 353.849 51.7812 353.849 50.7031ZM359.794 52.8828L361.763 46.5469H363.31L359.911 56.3047C359.385 57.7109 358.549 58.4141 357.403 58.4141L357.13 58.3906L356.591 58.2891V57.1172L356.981 57.1484C357.471 57.1484 357.851 57.0495 358.122 56.8516C358.398 56.6536 358.625 56.2917 358.802 55.7656L359.122 54.9062L356.106 46.5469H357.685L359.794 52.8828ZM373.794 54.1641C373.231 54.8255 372.406 55.1562 371.317 55.1562C370.416 55.1562 369.729 54.8958 369.255 54.375C368.786 53.849 368.549 53.0729 368.544 52.0469V46.5469H369.989V52.0078C369.989 53.2891 370.51 53.9297 371.552 53.9297C372.656 53.9297 373.39 53.5182 373.755 52.6953V46.5469H375.2V55H373.825L373.794 54.1641ZM382.325 52.7578C382.325 52.3672 382.177 52.0651 381.88 51.8516C381.588 51.6328 381.075 51.4453 380.341 51.2891C379.612 51.1328 379.031 50.9453 378.599 50.7266C378.172 50.5078 377.854 50.2474 377.646 49.9453C377.442 49.6432 377.341 49.2839 377.341 48.8672C377.341 48.1745 377.632 47.5885 378.216 47.1094C378.804 46.6302 379.554 46.3906 380.466 46.3906C381.424 46.3906 382.2 46.638 382.794 47.1328C383.393 47.6276 383.692 48.2604 383.692 49.0312H382.239C382.239 48.6354 382.07 48.2943 381.731 48.0078C381.398 47.7214 380.976 47.5781 380.466 47.5781C379.94 47.5781 379.528 47.6927 379.231 47.9219C378.935 48.151 378.786 48.4505 378.786 48.8203C378.786 49.1693 378.924 49.4323 379.2 49.6094C379.476 49.7865 379.974 49.9557 380.692 50.1172C381.416 50.2786 382.002 50.4714 382.45 50.6953C382.898 50.9193 383.229 51.1901 383.442 51.5078C383.661 51.8203 383.771 52.2031 383.771 52.6562C383.771 53.4115 383.468 54.0182 382.864 54.4766C382.26 54.9297 381.476 55.1562 380.513 55.1562C379.836 55.1562 379.237 55.0365 378.716 54.7969C378.195 54.5573 377.786 54.224 377.489 53.7969C377.198 53.3646 377.052 52.8984 377.052 52.3984H378.497C378.523 52.8828 378.716 53.2682 379.075 53.5547C379.44 53.8359 379.919 53.9766 380.513 53.9766C381.06 53.9766 381.497 53.8672 381.825 53.6484C382.159 53.4245 382.325 53.1276 382.325 52.7578ZM389.161 55.1562C388.015 55.1562 387.083 54.7812 386.364 54.0312C385.646 53.276 385.286 52.2682 385.286 51.0078V50.7422C385.286 49.9036 385.445 49.1562 385.763 48.5C386.086 47.8385 386.534 47.3229 387.106 46.9531C387.685 46.5781 388.31 46.3906 388.981 46.3906C390.08 46.3906 390.935 46.7526 391.544 47.4766C392.153 48.2005 392.458 49.237 392.458 50.5859V51.1875H386.731C386.752 52.0208 386.994 52.6953 387.458 53.2109C387.927 53.7214 388.521 53.9766 389.239 53.9766C389.75 53.9766 390.182 53.8724 390.536 53.6641C390.89 53.4557 391.2 53.1797 391.466 52.8359L392.349 53.5234C391.64 54.612 390.578 55.1562 389.161 55.1562ZM388.981 47.5781C388.398 47.5781 387.909 47.7917 387.513 48.2188C387.117 48.6406 386.872 49.2344 386.778 50H391.013V49.8906C390.971 49.1562 390.773 48.5885 390.419 48.1875C390.065 47.7812 389.586 47.5781 388.981 47.5781ZM398.224 47.8438C398.005 47.8073 397.768 47.7891 397.513 47.7891C396.565 47.7891 395.922 48.1927 395.583 49V55H394.138V46.5469H395.544L395.567 47.5234C396.041 46.7682 396.713 46.3906 397.583 46.3906C397.864 46.3906 398.078 46.4271 398.224 46.5V47.8438ZM404.481 52.7578C404.481 52.3672 404.333 52.0651 404.036 51.8516C403.744 51.6328 403.231 51.4453 402.497 51.2891C401.768 51.1328 401.187 50.9453 400.755 50.7266C400.328 50.5078 400.01 50.2474 399.802 49.9453C399.599 49.6432 399.497 49.2839 399.497 48.8672C399.497 48.1745 399.789 47.5885 400.372 47.1094C400.961 46.6302 401.711 46.3906 402.622 46.3906C403.58 46.3906 404.356 46.638 404.95 47.1328C405.549 47.6276 405.849 48.2604 405.849 49.0312H404.396C404.396 48.6354 404.226 48.2943 403.888 48.0078C403.554 47.7214 403.132 47.5781 402.622 47.5781C402.096 47.5781 401.685 47.6927 401.388 47.9219C401.091 48.151 400.942 48.4505 400.942 48.8203C400.942 49.1693 401.08 49.4323 401.356 49.6094C401.632 49.7865 402.13 49.9557 402.849 50.1172C403.573 50.2786 404.159 50.4714 404.606 50.6953C405.054 50.9193 405.385 51.1901 405.599 51.5078C405.817 51.8203 405.927 52.2031 405.927 52.6562C405.927 53.4115 405.625 54.0182 405.021 54.4766C404.416 54.9297 403.632 55.1562 402.669 55.1562C401.992 55.1562 401.393 55.0365 400.872 54.7969C400.351 54.5573 399.942 54.224 399.646 53.7969C399.354 53.3646 399.208 52.8984 399.208 52.3984H400.653C400.679 52.8828 400.872 53.2682 401.231 53.5547C401.596 53.8359 402.075 53.9766 402.669 53.9766C403.216 53.9766 403.653 53.8672 403.981 53.6484C404.315 53.4245 404.481 53.1276 404.481 52.7578ZM407.841 54.2422C407.841 53.9922 407.914 53.7839 408.06 53.6172C408.211 53.4505 408.435 53.3672 408.731 53.3672C409.028 53.3672 409.252 53.4505 409.403 53.6172C409.56 53.7839 409.638 53.9922 409.638 54.2422C409.638 54.4818 409.56 54.6823 409.403 54.8438C409.252 55.0052 409.028 55.0859 408.731 55.0859C408.435 55.0859 408.211 55.0052 408.06 54.8438C407.914 54.6823 407.841 54.4818 407.841 54.2422Z" fill="#6654A4"/>
<path d="M38.1105 63.744H53.5025V61.312H42.4945C46.6225 57.952 52.8305 53.056 52.8305 47.296C52.8305 43.008 50.0145 40.448 45.6625 40.448C41.5025 40.448 38.3985 43.008 38.2065 47.936H41.0225C41.1505 45.024 42.6865 42.944 45.6945 42.944C48.8305 42.944 49.9505 44.864 49.9505 47.424C49.9505 52.16 44.1905 56.768 38.1105 61.664V63.744Z" fill="#6654A4"/>
<defs>
<filter id="filter0_d" x="0" y="0" width="594.56" height="113" filterUnits="userSpaceOnUse" color-interpolation-filters="sRGB">
<feFlood flood-opacity="0" result="BackgroundImageFix"/>
<feColorMatrix in="SourceAlpha" type="matrix" values="0 0 0 0 0 0 0 0 0 0 0 0 0 0 0 0 0 0 127 0"/>
<feMorphology radius="4" operator="dilate" in="SourceAlpha" result="effect1_dropShadow"/>
<feOffset dy="3"/>
<feGaussianBlur stdDeviation="7.5"/>
<feColorMatrix type="matrix" values="0 0 0 0 0.872109 0 0 0 0 0.853125 0 0 0 0 0.9375 0 0 0 0.5 0"/>
<feBlend mode="normal" in2="BackgroundImageFix" result="effect1_dropShadow"/>
<feBlend mode="normal" in="SourceGraphic" in2="effect1_dropShadow" result="shape"/>
</filter>
</defs>
</svg>
