<svg width="189" height="74" viewBox="0 0 189 74" fill="none" xmlns="http://www.w3.org/2000/svg">
<path d="M40.3278 15.3848H41.5108V6.32377H40.3278V10.3018H35.7128V6.32377H34.5298V15.3848H35.7128V11.2768H40.3278V15.3848ZM46.5471 9.14477C47.7691 9.14477 48.8091 9.91177 48.7961 11.3028H44.2981C44.4281 9.91177 45.3901 9.14477 46.5471 9.14477ZM49.8751 13.1878H48.6011C48.3411 13.9548 47.6651 14.5008 46.5991 14.5008C45.3901 14.5008 44.3761 13.7078 44.2851 12.2648H49.9791C50.0051 12.0178 50.0181 11.8098 50.0181 11.5498C50.0181 9.59977 48.6661 8.14377 46.5991 8.14377C44.5191 8.14377 43.0761 9.56077 43.0761 11.8098C43.0761 14.0718 44.5711 15.5018 46.5991 15.5018C48.3671 15.5018 49.5111 14.4878 49.8751 13.1878ZM60.1674 13.4478C60.1154 10.8998 55.9814 11.8228 55.9814 10.1328C55.9814 9.56077 56.5014 9.14477 57.3724 9.14477C58.3214 9.14477 58.8674 9.66477 58.9194 10.3798H60.1024C60.0244 8.98877 58.9844 8.14377 57.4114 8.14377C55.8254 8.14377 54.7984 9.04077 54.7984 10.1328C54.7984 12.7848 59.0104 11.8618 59.0104 13.4478C59.0104 14.0328 58.4904 14.5008 57.5544 14.5008C56.5534 14.5008 55.9424 13.9808 55.8774 13.2918H54.6554C54.7334 14.5918 55.9034 15.5018 57.5674 15.5018C59.1404 15.5018 60.1674 14.6178 60.1674 13.4478ZM64.8664 9.14477C66.0884 9.14477 67.1284 9.91177 67.1154 11.3028H62.6174C62.7474 9.91177 63.7094 9.14477 64.8664 9.14477ZM68.1944 13.1878H66.9204C66.6604 13.9548 65.9844 14.5008 64.9184 14.5008C63.7094 14.5008 62.6954 13.7078 62.6044 12.2648H68.2984C68.3244 12.0178 68.3374 11.8098 68.3374 11.5498C68.3374 9.59977 66.9854 8.14377 64.9184 8.14377C62.8384 8.14377 61.3954 9.56077 61.3954 11.8098C61.3954 14.0718 62.8904 15.5018 64.9184 15.5018C66.6864 15.5018 67.8304 14.4878 68.1944 13.1878ZM75.1119 15.3848H76.2819V11.1858C76.2819 9.14477 75.0209 8.13077 73.3699 8.13077C72.4079 8.13077 71.5499 8.53377 71.0819 9.27477V8.26077H69.8989V15.3848H71.0819V11.4458C71.0819 9.91177 71.9139 9.15777 73.1229 9.15777C74.3189 9.15777 75.1119 9.89877 75.1119 11.3548V15.3848ZM78.4744 13.4348C78.4744 14.8648 79.1894 15.3848 80.4504 15.3848H81.5164V14.3838H80.6454C79.9174 14.3838 79.6574 14.1368 79.6574 13.4348V9.23577H81.5164V8.26077H79.6574V6.46676H78.4744V8.26077H77.5514V9.23577H78.4744V13.4348ZM86.4156 15.3848H87.5986V11.4458C87.5986 9.91177 88.4306 9.15777 89.6396 9.15777C90.8356 9.15777 91.6286 9.89877 91.6286 11.3548V15.3848H92.7986V11.1858C92.7986 9.14477 91.5376 8.13077 89.9516 8.13077C88.9506 8.13077 88.0666 8.53377 87.5986 9.28777V5.76477H86.4156V15.3848ZM97.76 9.14477C98.982 9.14477 100.022 9.91177 100.009 11.3028H95.511C95.641 9.91177 96.603 9.14477 97.76 9.14477ZM101.088 13.1878H99.814C99.554 13.9548 98.878 14.5008 97.812 14.5008C96.603 14.5008 95.589 13.7078 95.498 12.2648H101.192C101.218 12.0178 101.231 11.8098 101.231 11.5498C101.231 9.59977 99.879 8.14377 97.812 8.14377C95.732 8.14377 94.289 9.56077 94.289 11.8098C94.289 14.0718 95.784 15.5018 97.812 15.5018C99.58 15.5018 100.724 14.4878 101.088 13.1878ZM103.976 11.5108C103.976 9.85977 104.834 9.35277 105.965 9.35277H106.277V8.13077C105.146 8.13077 104.379 8.62477 103.976 9.41777V8.26077H102.793V15.3848H103.976V11.5108ZM121.391 15.3848H122.561V11.1858C122.561 9.14477 121.3 8.13077 119.675 8.13077C118.583 8.13077 117.569 8.68977 117.153 9.71677C116.685 8.65077 115.71 8.13077 114.54 8.13077C113.604 8.13077 112.759 8.53377 112.291 9.28777V8.26077H111.108V15.3848H112.291V11.4588C112.291 9.92477 113.11 9.15777 114.306 9.15777C115.476 9.15777 116.256 9.89877 116.256 11.3548V15.3848H117.426V11.4588C117.426 9.92477 118.245 9.15777 119.441 9.15777C120.611 9.15777 121.391 9.89877 121.391 11.3548V15.3848ZM131.261 11.8098C131.261 9.56077 129.688 8.14377 127.66 8.14377C125.645 8.14377 124.059 9.56077 124.059 11.8098C124.059 14.0718 125.593 15.5018 127.608 15.5018C129.636 15.5018 131.261 14.0718 131.261 11.8098ZM125.268 11.8098C125.268 10.0158 126.399 9.17077 127.647 9.17077C128.869 9.17077 130.052 10.0158 130.052 11.8098C130.052 13.6168 128.843 14.4618 127.608 14.4618C126.373 14.4618 125.268 13.6168 125.268 11.8098ZM138.03 15.3848H139.2V11.1858C139.2 9.14477 137.939 8.13077 136.288 8.13077C135.326 8.13077 134.468 8.53377 134 9.27477V8.26077H132.817V15.3848H134V11.4458C134 9.91177 134.832 9.15777 136.041 9.15777C137.237 9.15777 138.03 9.89877 138.03 11.3548V15.3848ZM144.161 9.14477C145.383 9.14477 146.423 9.91177 146.41 11.3028H141.912C142.042 9.91177 143.004 9.14477 144.161 9.14477ZM147.489 13.1878H146.215C145.955 13.9548 145.279 14.5008 144.213 14.5008C143.004 14.5008 141.99 13.7078 141.899 12.2648H147.593C147.619 12.0178 147.632 11.8098 147.632 11.5498C147.632 9.59977 146.28 8.14377 144.213 8.14377C142.133 8.14377 140.69 9.56077 140.69 11.8098C140.69 14.0718 142.185 15.5018 144.213 15.5018C145.981 15.5018 147.125 14.4878 147.489 13.1878ZM151.898 14.0328L149.662 8.26077H148.349L151.222 15.3068L149.818 18.7388H151.04L155.33 8.26077H154.108L151.898 14.0328ZM61.2148 33.4478C61.1628 30.8998 57.0288 31.8228 57.0288 30.1328C57.0288 29.5608 57.5488 29.1448 58.4198 29.1448C59.3688 29.1448 59.9148 29.6648 59.9668 30.3798H61.1498C61.0718 28.9888 60.0318 28.1438 58.4588 28.1438C56.8728 28.1438 55.8458 29.0408 55.8458 30.1328C55.8458 32.7848 60.0578 31.8618 60.0578 33.4478C60.0578 34.0328 59.5378 34.5008 58.6018 34.5008C57.6008 34.5008 56.9898 33.9808 56.9248 33.2918H55.7028C55.7808 34.5918 56.9508 35.5018 58.6148 35.5018C60.1878 35.5018 61.2148 34.6178 61.2148 33.4478ZM69.2028 28.2608H68.0198V32.1738C68.0198 33.7078 67.2008 34.4618 65.9788 34.4618C64.7828 34.4618 63.9898 33.7208 63.9898 32.2778V28.2608H62.8198V32.4338C62.8198 34.4748 64.1068 35.4888 65.7448 35.4888C66.6938 35.4888 67.5648 35.0728 68.0198 34.3318V35.3848H69.2028V28.2608ZM70.7582 31.8098C70.7582 34.0718 72.2012 35.5018 74.2292 35.5018C75.9972 35.5018 77.1542 34.5138 77.5182 33.0968H76.2442C75.9842 33.9938 75.2822 34.5008 74.2292 34.5008C72.9292 34.5008 71.9672 33.5778 71.9672 31.8098C71.9672 30.0678 72.9292 29.1448 74.2292 29.1448C75.2822 29.1448 75.9972 29.6908 76.2442 30.5488H77.5182C77.1542 29.0538 75.9972 28.1438 74.2292 28.1438C72.2012 28.1438 70.7582 29.5738 70.7582 31.8098ZM78.6547 31.8098C78.6547 34.0718 80.0977 35.5018 82.1257 35.5018C83.8937 35.5018 85.0507 34.5138 85.4147 33.0968H84.1407C83.8807 33.9938 83.1787 34.5008 82.1257 34.5008C80.8257 34.5008 79.8637 33.5778 79.8637 31.8098C79.8637 30.0678 80.8257 29.1448 82.1257 29.1448C83.1787 29.1448 83.8937 29.6908 84.1407 30.5488H85.4147C85.0507 29.0538 83.8937 28.1438 82.1257 28.1438C80.0977 28.1438 78.6547 29.5738 78.6547 31.8098ZM90.0222 29.1448C91.2442 29.1448 92.2842 29.9118 92.2712 31.3028H87.7732C87.9032 29.9118 88.8652 29.1448 90.0222 29.1448ZM93.3502 33.1878H92.0762C91.8162 33.9548 91.1402 34.5008 90.0742 34.5008C88.8652 34.5008 87.8512 33.7078 87.7602 32.2648H93.4542C93.4802 32.0178 93.4932 31.8098 93.4932 31.5498C93.4932 29.5998 92.1412 28.1438 90.0742 28.1438C87.9942 28.1438 86.5512 29.5608 86.5512 31.8098C86.5512 34.0718 88.0462 35.5018 90.0742 35.5018C91.8422 35.5018 92.9862 34.4878 93.3502 33.1878ZM100.177 33.4478C100.125 30.8998 95.9907 31.8228 95.9907 30.1328C95.9907 29.5608 96.5107 29.1448 97.3817 29.1448C98.3307 29.1448 98.8767 29.6648 98.9287 30.3798H100.112C100.034 28.9888 98.9937 28.1438 97.4207 28.1438C95.8347 28.1438 94.8077 29.0408 94.8077 30.1328C94.8077 32.7848 99.0197 31.8618 99.0197 33.4478C99.0197 34.0328 98.4997 34.5008 97.5637 34.5008C96.5627 34.5008 95.9517 33.9808 95.8867 33.2918H94.6647C94.7427 34.5918 95.9127 35.5018 97.5767 35.5018C99.1497 35.5018 100.177 34.6178 100.177 33.4478ZM106.969 33.4478C106.917 30.8998 102.783 31.8228 102.783 30.1328C102.783 29.5608 103.303 29.1448 104.174 29.1448C105.123 29.1448 105.669 29.6648 105.721 30.3798H106.904C106.826 28.9888 105.786 28.1438 104.213 28.1438C102.627 28.1438 101.6 29.0408 101.6 30.1328C101.6 32.7848 105.812 31.8618 105.812 33.4478C105.812 34.0328 105.292 34.5008 104.356 34.5008C103.355 34.5008 102.744 33.9808 102.679 33.2918H101.457C101.535 34.5918 102.705 35.5018 104.369 35.5018C105.942 35.5018 106.969 34.6178 106.969 33.4478ZM108.86 35.3848H110.043V29.2358H111.538V28.2608H110.043V27.7538C110.043 26.8308 110.394 26.4408 111.46 26.4408V25.4528C109.64 25.4528 108.86 26.1678 108.86 27.7538V28.2608H107.937V29.2358H108.86V35.3848ZM119.235 28.2608H118.052V32.1738C118.052 33.7078 117.233 34.4618 116.011 34.4618C114.815 34.4618 114.022 33.7208 114.022 32.2778V28.2608H112.852V32.4338C112.852 34.4748 114.139 35.4888 115.777 35.4888C116.726 35.4888 117.597 35.0728 118.052 34.3318V35.3848H119.235V28.2608ZM121.232 35.3848H122.415V25.7648H121.232V35.3848ZM124.432 35.3848H125.615V25.7648H124.432V35.3848ZM130.335 34.0328L128.099 28.2608H126.786L129.659 35.3068L128.255 38.7388H129.477L133.767 28.2608H132.545L130.335 34.0328Z" fill="#494B52"/>
</svg>
