<svg width="194" height="332" viewBox="0 0 194 332" fill="none" xmlns="http://www.w3.org/2000/svg">
<path d="M147.821 59.3954C145.224 57.5743 97.5157 25.2865 49.6777 49.5735C12.2786 68.5613 3.3149 107.642 2.05532 113.58C-5.95075 151.331 10.0096 191.473 39.8857 212.86C84.7474 244.975 159.218 233.513 185.099 182.885C207.34 139.36 184.409 85.0634 147.821 59.3954Z" fill="url(#paint0_linear)"/>
<path d="M66.8268 148.761C65.1925 139.491 63.3105 132.099 61.8521 126.944C61.4445 125.502 60.042 118.322 57.241 103.957C56.6097 100.728 56.1342 98.0752 57.6166 95.7696C60.1339 91.8498 67.0466 90.8629 71.9533 92.9167C76.0569 94.6348 78.1667 98.239 80.3603 102.75C83.497 109.207 87.4168 118.813 90.1618 131.607C82.3862 137.325 74.6065 143.043 66.8268 148.761Z" fill="#FFBE9D"/>
<path d="M61.49 193.31C59.0247 183.712 56.4554 176.108 54.5055 170.818C53.9621 169.339 51.9123 161.915 47.8126 147.067C46.8896 143.731 46.1744 140.985 47.5449 138.444C49.8664 134.125 57.0468 132.53 62.3571 134.293C66.8003 135.763 69.3097 139.375 71.9748 143.934C75.7867 150.455 80.6775 160.217 84.5933 173.423C76.8936 180.052 69.1898 186.681 61.49 193.31Z" fill="#FFBE9D"/>
<path d="M88.5474 171.11C75.2855 173.055 70.9342 177.367 69.8074 178.562C64.1215 184.607 66.5109 192.674 64.569 203.339C57.9401 239.784 70.0631 262.184 70.0631 262.184C70.0631 262.184 90.8968 274.871 96.4669 275.766C99.8832 276.313 129.4 280.585 147.001 260.458C158.145 247.716 157.897 232.76 157.773 225.28C157.646 217.632 157.262 194.209 137.683 179.553C120.202 166.47 99.5836 169.491 88.5474 171.11Z" fill="#FFBE9D"/>
<path d="M189.292 202.66C184.374 210.623 166.345 274.067 148.832 276.285C141.463 277.216 127.059 272.397 120.042 266.679C111.471 259.691 115.603 243.448 116.874 238.445C120.893 222.626 131.966 212.909 138.958 206.775C147.677 199.123 156.192 194.596 161.926 192.011C165.294 180.595 191.782 198.632 189.292 202.66Z" fill="#FFBE9D"/>
<path d="M74.9072 256.962C75.5545 265.741 85.416 303.624 85.6318 310.924C87.0582 313.825 89.6715 318.28 94.2266 322.348C111.668 337.943 137.628 330.084 139.29 329.552C143.546 328.194 150.634 325.297 157.978 318.784C155.637 309.586 153.519 299.413 151.909 288.344C149.563 272.21 148.784 257.453 148.836 244.531C138.439 245.81 126.6 247.92 113.762 251.38C102.238 254.485 83.7977 253.298 74.9072 256.962Z" fill="#FFBE9D"/>
<path d="M135.23 243.561L59.5193 229.092C52.7705 227.802 48.3472 221.288 49.6378 214.54L81.8674 45.9119C83.158 39.1631 89.6711 34.7398 96.4199 36.0304L172.131 50.4989C178.88 51.7896 183.303 58.3026 182.012 65.0514L149.783 233.679C148.492 240.424 141.979 244.851 135.23 243.561Z" fill="#494949"/>
<path d="M54.361 212.23L85.4079 49.7952C85.9353 47.0382 88.5965 45.232 91.3535 45.7595L173.258 61.4148C176.015 61.9422 177.821 64.6034 177.294 67.3604L146.247 229.795C145.719 232.552 143.058 234.358 140.305 233.831L58.4007 218.175C55.6397 217.648 53.8336 214.987 54.361 212.23Z" fill="white"/>
<path d="M169.131 199.838C161.683 193.281 156.996 182.161 158.291 170.917C160.284 153.56 175.824 141.297 179.436 142.939C181.849 144.038 180.187 149.301 181.789 162.051C182.477 167.525 183.144 168.52 185.969 181.114C189.078 194.984 191.919 197.193 190.173 201.089C189.825 201.868 188.506 204.53 185.737 205.776C179.212 208.705 170.585 201.117 169.131 199.838Z" fill="#FFBE9D"/>
<path d="M178.118 143.495C174.661 145.297 171.213 149.065 170.514 154.711C170.326 156.233 170.61 161.663 171.677 164.692C173.051 165.148 181.474 165 182.889 164.92C180.183 152.509 184.063 140.398 178.118 143.495Z" fill="#FCCFB0"/>
<path d="M47.5441 138.44C50.2252 134.336 56.7862 124.087 67.6067 131.196C76.2654 139.271 72.0899 146.959 69.4287 149.081C60.1506 156.473 46.1256 144.797 47.5441 138.44Z" fill="#FFBE9D"/>
<path d="M68.0554 136.49C68.6947 137.765 60.2038 144.466 55.6726 142.851C54.9334 141.924 54.1982 141.001 53.459 140.074C57.159 134.317 63.1606 131.955 63.1606 131.955C63.1606 131.955 66.4531 133.31 68.0554 136.49Z" fill="#FCCFB0"/>
<path d="M110.569 216.753L72.1657 209.464C68.4058 208.749 65.9364 205.125 66.6516 201.365C67.3669 197.605 70.991 195.136 74.751 195.851L113.154 203.139C116.914 203.854 119.383 207.478 118.668 211.238C117.957 214.998 114.329 217.468 110.569 216.753Z" fill="#E0E1FE"/>
<path d="M130.767 220.588L128.074 220.077C124.314 219.361 121.845 215.737 122.56 211.977C123.275 208.217 126.899 205.748 130.659 206.463L133.352 206.975C137.112 207.69 139.582 211.314 138.866 215.074C138.155 218.83 134.527 221.299 130.767 220.588Z" fill="#E0E1FE"/>
<path d="M159.991 284.189C159.647 284.181 159.304 284.057 159.028 283.805C158.417 283.254 158.369 282.311 158.92 281.7C163.687 276.409 168.01 270.683 171.774 264.682C179.382 252.543 184.817 239.153 187.925 224.876C188.101 224.073 188.904 223.566 189.699 223.738C190.502 223.913 191.014 224.704 190.838 225.512C187.657 240.124 182.095 253.833 174.3 266.264C170.444 272.414 166.013 278.279 161.134 283.697C160.83 284.033 160.411 284.201 159.991 284.189Z" fill="#6654A4"/>
<path d="M163.604 294.785C163.292 294.777 162.984 294.677 162.721 294.469C162.073 293.962 161.957 293.027 162.465 292.38C165.533 288.46 168.558 284.42 171.467 280.368C174.688 275.881 177.844 271.254 180.857 266.623C181.305 265.932 182.228 265.74 182.919 266.188C183.61 266.635 183.806 267.558 183.354 268.249C180.322 272.916 177.137 277.579 173.889 282.107C170.96 286.19 167.907 290.262 164.814 294.214C164.511 294.601 164.059 294.797 163.604 294.785Z" fill="#6654A4"/>
<path d="M87.6408 10.5972C87.9844 10.6052 88.3281 10.7291 88.6038 10.9808C89.2151 11.5322 89.2631 12.4752 88.7117 13.0865C83.9448 18.3769 79.6214 24.1028 75.8574 30.1044C68.2495 42.2434 62.8153 55.6331 59.7066 69.9098C59.5308 70.713 58.7277 71.2204 57.9325 71.0486C57.1294 70.8728 56.618 70.0817 56.7938 69.2745C59.9744 54.6621 65.5364 40.9528 73.3321 28.522C77.188 22.3726 81.6192 16.5069 86.498 11.0887C86.8017 10.753 87.2213 10.5852 87.6408 10.5972Z" fill="#6654A4"/>
<path d="M84.0302 7.61667e-05C84.3419 0.00806798 84.6496 0.107977 84.9133 0.315754C85.5606 0.823212 85.6765 1.75821 85.169 2.40551C82.1003 6.32532 79.0755 10.365 76.1666 14.4167C72.9461 18.9039 69.7894 23.531 66.7767 28.162C66.3291 28.8533 65.4061 29.0451 64.7149 28.5975C64.0236 28.15 63.8278 27.227 64.2793 26.5357C67.3121 21.8687 70.4967 17.2057 73.7452 12.6786C76.6741 8.59493 79.7268 4.52326 82.8195 0.571487C83.1232 0.183901 83.5747 -0.0119116 84.0302 7.61667e-05Z" fill="#6654A4"/>
<path d="M105.733 111.365L102.596 110.8L101.734 115.587C101.611 116.271 101.356 116.761 100.969 117.056C100.583 117.352 100.143 117.455 99.6514 117.367C99.1362 117.274 98.7522 117.026 98.4992 116.623C98.2477 116.213 98.1828 115.669 98.3047 114.993L100.652 101.96C100.787 101.207 101.057 100.7 101.461 100.439C101.866 100.178 102.444 100.116 103.198 100.252L107.592 101.043C108.891 101.277 109.873 101.557 110.537 101.883C111.194 102.2 111.732 102.626 112.152 103.162C112.579 103.699 112.865 104.315 113.01 105.007C113.155 105.7 113.155 106.451 113.01 107.258C112.7 108.98 111.934 110.192 110.712 110.893C109.492 111.586 107.832 111.743 105.733 111.365ZM106.298 103.465L103.992 103.05L103.061 108.217L105.368 108.632C106.175 108.778 106.863 108.814 107.432 108.742C108.008 108.671 108.473 108.469 108.827 108.136C109.181 107.803 109.414 107.325 109.526 106.702C109.66 105.956 109.551 105.309 109.197 104.761C108.795 104.173 107.829 103.741 106.298 103.465ZM124.007 119.478L123.582 117.211L116.708 115.973L115.51 117.996C115.043 118.785 114.671 119.309 114.394 119.569C114.118 119.821 113.727 119.901 113.219 119.81C112.789 119.732 112.436 119.506 112.162 119.132C111.889 118.757 111.788 118.369 111.86 117.97C111.901 117.739 111.983 117.508 112.104 117.275C112.225 117.043 112.413 116.724 112.669 116.317L118.971 106.117C119.151 105.824 119.365 105.473 119.613 105.065C119.87 104.651 120.121 104.315 120.366 104.058C120.619 103.802 120.918 103.614 121.266 103.493C121.622 103.367 122.034 103.346 122.503 103.431C122.98 103.516 123.359 103.68 123.641 103.921C123.933 104.156 124.149 104.433 124.29 104.752C124.438 105.073 124.548 105.41 124.619 105.764C124.7 106.112 124.794 106.578 124.904 107.161L127.356 118.867C127.553 119.76 127.617 120.394 127.549 120.771C127.478 121.163 127.248 121.495 126.858 121.766C126.477 122.031 126.056 122.122 125.594 122.039C125.325 121.99 125.103 121.899 124.929 121.764C124.754 121.637 124.615 121.481 124.513 121.296C124.413 121.103 124.317 120.824 124.224 120.458C124.14 120.086 124.068 119.759 124.007 119.478ZM118.071 113.563L123.123 114.473L121.83 107.036L118.071 113.563ZM133.621 121.329L134.587 115.966L131.611 108.821C131.353 108.18 131.177 107.684 131.081 107.333C130.993 106.984 130.971 106.69 131.014 106.451C131.084 106.059 131.295 105.748 131.646 105.518C132.005 105.288 132.407 105.214 132.853 105.294C133.322 105.379 133.652 105.577 133.842 105.889C134.041 106.195 134.311 106.787 134.653 107.666L136.889 113.368L141.008 108.811C141.257 108.53 141.466 108.294 141.635 108.102C141.805 107.911 141.983 107.736 142.17 107.579C142.366 107.416 142.569 107.302 142.779 107.237C142.99 107.171 143.233 107.164 143.51 107.213C143.941 107.291 144.272 107.498 144.506 107.833C144.748 108.163 144.836 108.512 144.77 108.881C144.716 109.181 144.588 109.468 144.388 109.741C144.188 110.015 143.864 110.385 143.414 110.852L138.012 116.583L137.047 121.946C136.921 122.645 136.665 123.139 136.28 123.427C135.895 123.715 135.452 123.814 134.952 123.724C134.445 123.632 134.064 123.389 133.81 122.994C133.557 122.591 133.494 122.036 133.621 121.329Z" fill="#E4E1F1"/>
<defs>
<linearGradient id="paint0_linear" x1="19.9483" y1="66.1355" x2="193.857" y2="182.756" gradientUnits="userSpaceOnUse">
<stop offset="0.320584" stop-color="#E0E1FE"/>
<stop offset="1" stop-color="#E0E1FE" stop-opacity="0"/>
</linearGradient>
</defs>
</svg>
