<svg width="234" height="400" viewBox="0 0 234 400" fill="none" xmlns="http://www.w3.org/2000/svg">
<path d="M178.098 71.5608C174.969 69.3667 117.489 30.4657 59.8526 59.7272C14.7935 82.604 3.99386 129.689 2.47629 136.843C-7.16958 182.326 12.0598 230.69 48.0551 256.457C102.105 295.15 191.829 281.341 223.011 220.343C249.808 167.903 222.18 102.486 178.098 71.5608Z" fill="url(#paint0_linear)"/>
<path d="M80.5152 179.23C78.5462 168.061 76.2787 159.155 74.5216 152.945C74.0305 151.207 72.3408 142.556 68.9661 125.249C68.2055 121.359 67.6326 118.163 69.4186 115.385C72.4515 110.662 80.78 109.473 86.6917 111.948C91.6358 114.018 94.1777 118.36 96.8206 123.795C100.6 131.575 105.322 143.148 108.63 158.563C99.2614 165.452 89.8883 172.341 80.5152 179.23Z" fill="#FFBE9D"/>
<path d="M74.0837 232.903C71.1134 221.34 68.0179 212.178 65.6686 205.804C65.0139 204.023 62.5442 195.079 57.6049 177.189C56.4929 173.169 55.6311 169.862 57.2824 166.8C60.0794 161.596 68.7304 159.675 75.1284 161.798C80.4817 163.57 83.505 167.922 86.716 173.415C91.3087 181.272 97.2012 193.033 101.919 208.943C92.6422 216.93 83.3605 224.917 74.0837 232.903Z" fill="#FFBE9D"/>
<path d="M106.685 206.156C90.7068 208.5 85.4642 213.694 84.1066 215.134C77.2561 222.418 80.1349 232.137 77.7953 244.986C69.8086 288.896 84.4147 315.884 84.4147 315.884C84.4147 315.884 109.516 331.169 116.226 332.247C120.343 332.907 155.905 338.053 177.111 313.804C190.537 298.452 190.239 280.433 190.09 271.421C189.936 262.206 189.474 233.986 165.884 216.328C144.822 200.566 119.982 204.206 106.685 206.156Z" fill="#FFBE9D"/>
<path d="M228.063 244.168C222.137 253.763 200.415 330.202 179.315 332.873C170.438 333.995 153.083 328.189 144.629 321.3C134.303 312.88 139.281 293.311 140.812 287.284C145.655 268.224 158.995 256.516 167.419 249.127C177.924 239.908 188.183 234.453 195.091 231.338C199.149 217.585 231.062 239.316 228.063 244.168Z" fill="#FFBE9D"/>
<path d="M90.2495 309.592C91.0294 320.169 102.911 365.812 103.171 374.607C104.889 378.102 108.038 383.47 113.526 388.371C134.54 407.161 165.817 397.691 167.82 397.051C172.947 395.414 181.487 391.924 190.335 384.077C187.514 372.995 184.963 360.738 183.023 347.403C180.197 327.963 179.258 310.185 179.321 294.616C166.794 296.156 152.53 298.698 137.062 302.867C123.178 306.608 100.961 305.178 90.2495 309.592Z" fill="#FFBE9D"/>
<path d="M162.928 293.446L71.7096 276.014C63.5786 274.459 58.2493 266.612 59.8043 258.481L98.6351 55.3146C100.19 47.1835 108.037 41.8543 116.168 43.4093L207.386 60.8412C215.517 62.3962 220.847 70.2432 219.292 78.3743L180.461 281.54C178.906 289.667 171.059 295.001 162.928 293.446Z" fill="#494949"/>
<path d="M65.495 255.698L102.901 59.9941C103.536 56.6723 106.743 54.4963 110.064 55.1317L208.744 73.9935C212.066 74.629 214.242 77.8352 213.607 81.157L176.201 276.861C175.565 280.183 172.359 282.359 169.042 281.723L70.3621 262.862C67.0355 262.226 64.8596 259.02 65.495 255.698Z" fill="white"/>
<path d="M203.772 240.769C194.798 232.869 189.151 219.472 190.711 205.925C193.113 185.012 211.835 170.237 216.187 172.216C219.095 173.54 217.092 179.88 219.023 195.242C219.851 201.837 220.655 203.036 224.058 218.21C227.804 234.92 231.227 237.582 229.123 242.276C228.704 243.215 227.115 246.421 223.779 247.923C215.918 251.452 205.524 242.31 203.772 240.769Z" fill="#FFBE9D"/>
<path d="M214.598 172.885C210.434 175.056 206.279 179.596 205.437 186.398C205.211 188.233 205.553 194.775 206.838 198.424C208.494 198.973 218.642 198.795 220.346 198.699C217.087 183.746 221.762 169.154 214.598 172.885Z" fill="#FCCFB0"/>
<path d="M57.2823 166.795C60.5126 161.851 68.4174 149.503 81.4541 158.067C91.8863 167.797 86.8555 177.059 83.6493 179.616C72.4709 188.522 55.5733 174.455 57.2823 166.795Z" fill="#FFBE9D"/>
<path d="M81.9933 164.446C82.7635 165.982 72.5335 174.055 67.0743 172.11C66.1836 170.993 65.2978 169.881 64.4072 168.764C68.8651 161.827 76.0959 158.982 76.0959 158.982C76.0959 158.982 80.0628 160.614 81.9933 164.446Z" fill="#FCCFB0"/>
<path d="M133.215 261.148L86.9469 252.367C82.4168 251.505 79.4416 247.139 80.3033 242.608C81.1651 238.078 85.5315 235.103 90.0616 235.965L136.33 244.746C140.86 245.608 143.835 249.974 142.974 254.504C142.117 259.034 137.746 262.009 133.215 261.148Z" fill="#E0E1FE"/>
<path d="M157.55 265.769L154.306 265.153C149.776 264.291 146.801 259.925 147.662 255.395C148.524 250.864 152.89 247.889 157.42 248.751L160.665 249.367C165.195 250.229 168.17 254.595 167.309 259.126C166.452 263.651 162.081 266.626 157.55 265.769Z" fill="#E0E1FE"/>
<path d="M192.761 342.396C192.347 342.386 191.933 342.237 191.601 341.934C190.864 341.269 190.807 340.133 191.471 339.397C197.214 333.023 202.423 326.124 206.958 318.893C216.124 304.268 222.671 288.136 226.417 270.935C226.629 269.967 227.596 269.356 228.554 269.563C229.522 269.775 230.138 270.728 229.926 271.7C226.094 289.305 219.393 305.823 210.001 320.8C205.355 328.209 200.016 335.276 194.138 341.804C193.772 342.208 193.267 342.41 192.761 342.396Z" fill="#6654A4"/>
<path d="M197.114 355.163C196.738 355.153 196.367 355.033 196.05 354.782C195.27 354.171 195.13 353.044 195.741 352.264C199.439 347.542 203.083 342.675 206.588 337.793C210.468 332.387 214.271 326.812 217.901 321.232C218.44 320.4 219.552 320.169 220.385 320.708C221.218 321.247 221.454 322.359 220.91 323.192C217.256 328.815 213.419 334.433 209.505 339.887C205.976 344.807 202.298 349.713 198.572 354.474C198.206 354.941 197.662 355.177 197.114 355.163Z" fill="#6654A4"/>
<path d="M105.592 12.7673C106.006 12.777 106.42 12.9262 106.752 13.2295C107.489 13.8939 107.546 15.03 106.882 15.7665C101.139 22.1404 95.9299 29.0391 91.3949 36.27C82.2288 50.8953 75.6816 67.0274 71.9362 84.2283C71.7244 85.196 70.7568 85.8074 69.7987 85.6004C68.8311 85.3885 68.2149 84.4354 68.4267 83.4629C72.2588 65.8576 78.96 49.3403 88.3524 34.3635C92.998 26.9546 98.3369 19.8874 104.215 13.3595C104.581 12.9551 105.086 12.7529 105.592 12.7673Z" fill="#6654A4"/>
<path d="M101.24 0.000564422C101.616 0.0101928 101.987 0.130562 102.304 0.380897C103.084 0.992294 103.224 2.11879 102.613 2.89868C98.9153 7.62135 95.271 12.4885 91.7663 17.37C87.8861 22.7763 84.0829 28.351 80.4531 33.9306C79.9139 34.7635 78.8018 34.9945 77.969 34.4553C77.1361 33.9162 76.9002 32.8041 77.4442 31.9712C81.0982 26.3483 84.935 20.7303 88.8489 15.2759C92.3777 10.3558 96.0557 5.45019 99.7818 0.68901C100.148 0.222038 100.692 -0.0138781 101.24 0.000564422Z" fill="#6654A4"/>
<path d="M117.078 141.831L111.457 140.819L109.913 149.395C109.692 150.621 109.236 151.498 108.543 152.028C107.85 152.557 107.063 152.743 106.181 152.584C105.258 152.418 104.57 151.974 104.117 151.252C103.666 150.517 103.55 149.543 103.769 148.331L107.973 124.981C108.217 123.631 108.7 122.722 109.424 122.255C110.148 121.788 111.185 121.676 112.535 121.92L120.408 123.337C122.736 123.757 124.495 124.258 125.684 124.842C126.862 125.41 127.827 126.174 128.578 127.134C129.343 128.097 129.856 129.199 130.116 130.44C130.376 131.682 130.376 133.026 130.115 134.472C129.56 137.558 128.187 139.729 125.999 140.984C123.812 142.226 120.839 142.509 117.078 141.831ZM118.091 127.677L113.958 126.933L112.291 136.19L116.424 136.935C117.87 137.195 119.103 137.261 120.122 137.131C121.154 137.004 121.988 136.642 122.621 136.045C123.255 135.448 123.672 134.592 123.873 133.476C124.114 132.14 123.917 130.981 123.283 129.999C122.563 128.945 120.832 128.171 118.091 127.677ZM149.819 156.367L149.057 152.305L136.742 150.087L134.596 153.711C133.758 155.125 133.091 156.064 132.595 156.53C132.101 156.981 131.399 157.125 130.49 156.962C129.719 156.823 129.088 156.417 128.597 155.746C128.106 155.074 127.926 154.381 128.055 153.664C128.129 153.251 128.275 152.836 128.492 152.42C128.709 152.004 129.047 151.432 129.505 150.704L140.796 132.428C141.119 131.902 141.502 131.275 141.946 130.544C142.407 129.802 142.857 129.2 143.295 128.739C143.748 128.28 144.285 127.943 144.907 127.728C145.545 127.501 146.284 127.464 147.124 127.615C147.979 127.769 148.658 128.062 149.164 128.494C149.685 128.915 150.072 129.412 150.325 129.983C150.591 130.558 150.788 131.162 150.916 131.796C151.059 132.42 151.229 133.254 151.425 134.299L155.819 155.272C156.171 156.871 156.286 158.009 156.165 158.684C156.038 159.386 155.625 159.98 154.926 160.466C154.244 160.94 153.489 161.103 152.662 160.954C152.18 160.867 151.783 160.704 151.471 160.462C151.156 160.235 150.908 159.956 150.726 159.624C150.546 159.279 150.373 158.778 150.207 158.123C150.057 157.456 149.927 156.871 149.819 156.367ZM139.183 145.769L148.234 147.399L145.918 134.075L139.183 145.769ZM167.044 159.683L168.774 150.074L163.442 137.274C162.981 136.124 162.664 135.235 162.493 134.607C162.335 133.981 162.295 133.455 162.372 133.027C162.499 132.325 162.876 131.767 163.505 131.354C164.148 130.944 164.869 130.81 165.668 130.954C166.508 131.106 167.099 131.461 167.439 132.02C167.795 132.568 168.28 133.629 168.892 135.204L172.898 145.419L180.278 137.255C180.724 136.752 181.099 136.329 181.403 135.985C181.706 135.642 182.026 135.329 182.361 135.048C182.712 134.756 183.076 134.551 183.453 134.434C183.829 134.317 184.265 134.303 184.761 134.393C185.533 134.532 186.128 134.902 186.545 135.503C186.98 136.093 187.137 136.719 187.018 137.38C186.921 137.918 186.694 138.431 186.335 138.921C185.977 139.412 185.395 140.075 184.59 140.911L174.912 151.179L173.181 160.788C172.956 162.042 172.498 162.926 171.807 163.442C171.117 163.958 170.324 164.135 169.429 163.974C168.52 163.81 167.837 163.374 167.382 162.666C166.928 161.945 166.816 160.95 167.044 159.683Z" fill="#E4E1F1"/>
<defs>
<linearGradient id="paint0_linear" x1="24.0341" y1="79.6813" x2="233.563" y2="220.188" gradientUnits="userSpaceOnUse">
<stop offset="0.320584" stop-color="#E0E1FE"/>
<stop offset="1" stop-color="#E0E1FE" stop-opacity="0"/>
</linearGradient>
</defs>
</svg>
