<svg width="189" height="74" viewBox="0 0 189 74" fill="none" xmlns="http://www.w3.org/2000/svg">
<path d="M20.6042 15.3848H21.7872V6.32377H20.6042V10.3018H15.9892V6.32377H14.8062V15.3848H15.9892V11.2768H20.6042V15.3848ZM26.8235 9.14477C28.0455 9.14477 29.0855 9.91177 29.0725 11.3028H24.5745C24.7045 9.91177 25.6665 9.14477 26.8235 9.14477ZM30.1515 13.1878H28.8775C28.6175 13.9548 27.9415 14.5008 26.8755 14.5008C25.6665 14.5008 24.6525 13.7078 24.5615 12.2648H30.2555C30.2815 12.0178 30.2945 11.8098 30.2945 11.5498C30.2945 9.59977 28.9425 8.14377 26.8755 8.14377C24.7955 8.14377 23.3525 9.56077 23.3525 11.8098C23.3525 14.0718 24.8475 15.5018 26.8755 15.5018C28.6435 15.5018 29.7875 14.4878 30.1515 13.1878ZM34.8798 11.8098C34.8798 14.0718 36.3228 15.5018 38.3508 15.5018C40.1188 15.5018 41.2758 14.5138 41.6398 13.0968H40.3658C40.1058 13.9938 39.4038 14.5008 38.3508 14.5008C37.0508 14.5008 36.0888 13.5778 36.0888 11.8098C36.0888 10.0678 37.0508 9.14477 38.3508 9.14477C39.4038 9.14477 40.1188 9.69077 40.3658 10.5488H41.6398C41.2758 9.05377 40.1188 8.14377 38.3508 8.14377C36.3228 8.14377 34.8798 9.57377 34.8798 11.8098ZM49.9783 11.8098C49.9783 9.56077 48.4053 8.14377 46.3773 8.14377C44.3623 8.14377 42.7763 9.56077 42.7763 11.8098C42.7763 14.0718 44.3103 15.5018 46.3253 15.5018C48.3533 15.5018 49.9783 14.0718 49.9783 11.8098ZM43.9853 11.8098C43.9853 10.0158 45.1163 9.17077 46.3643 9.17077C47.5863 9.17077 48.7693 10.0158 48.7693 11.8098C48.7693 13.6168 47.5603 14.4618 46.3253 14.4618C45.0903 14.4618 43.9853 13.6168 43.9853 11.8098ZM57.8517 8.26077H56.6687V12.1738C56.6687 13.7078 55.8497 14.4618 54.6277 14.4618C53.4317 14.4618 52.6387 13.7208 52.6387 12.2778V8.26077H51.4687V12.4338C51.4687 14.4748 52.7557 15.4888 54.3937 15.4888C55.3427 15.4888 56.2137 15.0728 56.6687 14.3318V15.3848H57.8517V8.26077ZM59.8491 15.3848H61.0321V5.76477H59.8491V15.3848ZM62.6064 11.7968C62.6064 14.0068 64.0754 15.5018 65.9864 15.5018C67.2864 15.5018 68.2094 14.8388 68.6384 14.0458V15.3848H69.8344V5.76477H68.6384V9.53477C68.1444 8.71577 67.1174 8.14377 65.9994 8.14377C64.0754 8.14377 62.6064 9.57377 62.6064 11.7968ZM68.6384 11.8098C68.6384 13.4868 67.5204 14.4618 66.2204 14.4618C64.9204 14.4618 63.8154 13.4738 63.8154 11.7968C63.8154 10.1198 64.9204 9.17077 66.2204 9.17077C67.5204 9.17077 68.6384 10.1588 68.6384 11.8098ZM75.5203 15.3848H76.7033V9.23577H78.1983V8.26077H76.7033V7.75377C76.7033 6.83076 77.0543 6.44077 78.1203 6.44077V5.45276C76.3003 5.45276 75.5203 6.16776 75.5203 7.75377V8.26077H74.5973V9.23577H75.5203V15.3848ZM79.5777 15.3848H80.7607V8.26077H79.5777V15.3848ZM80.1887 7.10377C80.6177 7.10377 80.9687 6.75277 80.9687 6.29776C80.9687 5.84277 80.6177 5.49177 80.1887 5.49177C79.7337 5.49177 79.3827 5.84277 79.3827 6.29776C79.3827 6.75277 79.7337 7.10377 80.1887 7.10377ZM87.9899 15.3848H89.1599V11.1858C89.1599 9.14477 87.8989 8.13077 86.2479 8.13077C85.2859 8.13077 84.4279 8.53377 83.9599 9.27477V8.26077H82.7769V15.3848H83.9599V11.4458C83.9599 9.91177 84.7919 9.15777 86.0009 9.15777C87.1969 9.15777 87.9899 9.89877 87.9899 11.3548V15.3848ZM90.6503 11.7968C90.6503 14.0068 92.1193 15.5018 94.0303 15.5018C95.3303 15.5018 96.2533 14.8388 96.6823 14.0458V15.3848H97.8783V5.76477H96.6823V9.53477C96.1883 8.71577 95.1613 8.14377 94.0433 8.14377C92.1193 8.14377 90.6503 9.57377 90.6503 11.7968ZM96.6823 11.8098C96.6823 13.4868 95.5643 14.4618 94.2643 14.4618C92.9643 14.4618 91.8593 13.4738 91.8593 11.7968C91.8593 10.1198 92.9643 9.17077 94.2643 9.17077C95.5643 9.17077 96.6823 10.1588 96.6823 11.8098ZM108.803 8.26077C108.868 7.05177 107.997 6.14177 106.567 6.14177C105.098 6.14177 104.175 6.99977 104.175 8.15676C104.175 8.81977 104.396 9.32677 104.955 9.97677C103.538 10.5358 102.823 11.5368 102.823 12.7848C102.823 14.4618 104.11 15.5408 105.995 15.5408C107.269 15.5408 108.244 15.0988 109.115 14.1888L110.298 15.3848H111.845L109.804 13.3438C109.986 13.0838 110.155 12.8238 110.324 12.5248L111.39 10.6788H110.116L109.232 12.1608C109.154 12.2908 109.076 12.4078 108.998 12.5248L106.294 9.80777C105.657 9.13177 105.358 8.68977 105.358 8.15676C105.358 7.55876 105.813 7.11677 106.515 7.11677C107.152 7.11677 107.646 7.51977 107.62 8.26077H108.803ZM105.995 14.5268C104.812 14.5268 104.006 13.7598 104.006 12.7458C104.006 11.8358 104.539 11.1598 105.67 10.7308L108.335 13.4088C107.659 14.1628 106.931 14.5268 105.995 14.5268ZM121.541 13.4478C121.489 10.8998 117.355 11.8228 117.355 10.1328C117.355 9.56077 117.875 9.14477 118.746 9.14477C119.695 9.14477 120.241 9.66477 120.293 10.3798H121.476C121.398 8.98877 120.358 8.14377 118.785 8.14377C117.199 8.14377 116.172 9.04077 116.172 10.1328C116.172 12.7848 120.384 11.8618 120.384 13.4478C120.384 14.0328 119.864 14.5008 118.928 14.5008C117.927 14.5008 117.316 13.9808 117.251 13.2918H116.029C116.107 14.5918 117.277 15.5018 118.941 15.5018C120.514 15.5018 121.541 14.6178 121.541 13.4478ZM126.24 9.14477C127.462 9.14477 128.502 9.91177 128.489 11.3028H123.991C124.121 9.91177 125.083 9.14477 126.24 9.14477ZM129.568 13.1878H128.294C128.034 13.9548 127.358 14.5008 126.292 14.5008C125.083 14.5008 124.069 13.7078 123.978 12.2648H129.672C129.698 12.0178 129.711 11.8098 129.711 11.5498C129.711 9.59977 128.359 8.14377 126.292 8.14377C124.212 8.14377 122.769 9.56077 122.769 11.8098C122.769 14.0718 124.264 15.5018 126.292 15.5018C128.06 15.5018 129.204 14.4878 129.568 13.1878ZM131.273 15.3848H132.456V5.76477H131.273V15.3848ZM137.501 9.14477C138.723 9.14477 139.763 9.91177 139.75 11.3028H135.252C135.382 9.91177 136.344 9.14477 137.501 9.14477ZM140.829 13.1878H139.555C139.295 13.9548 138.619 14.5008 137.553 14.5008C136.344 14.5008 135.33 13.7078 135.239 12.2648H140.933C140.959 12.0178 140.972 11.8098 140.972 11.5498C140.972 9.59977 139.62 8.14377 137.553 8.14377C135.473 8.14377 134.03 9.56077 134.03 11.8098C134.03 14.0718 135.525 15.5018 137.553 15.5018C139.321 15.5018 140.465 14.4878 140.829 13.1878ZM142.092 11.8098C142.092 14.0718 143.535 15.5018 145.563 15.5018C147.331 15.5018 148.488 14.5138 148.852 13.0968H147.578C147.318 13.9938 146.616 14.5008 145.563 14.5008C144.263 14.5008 143.301 13.5778 143.301 11.8098C143.301 10.0678 144.263 9.14477 145.563 9.14477C146.616 9.14477 147.331 9.69077 147.578 10.5488H148.852C148.488 9.05377 147.331 8.14377 145.563 8.14377C143.535 8.14377 142.092 9.57377 142.092 11.8098ZM150.69 13.4348C150.69 14.8648 151.405 15.3848 152.666 15.3848H153.732V14.3838H152.861C152.133 14.3838 151.873 14.1368 151.873 13.4348V9.23577H153.732V8.26077H151.873V6.46676H150.69V8.26077H149.767V9.23577H150.69V13.4348ZM158.631 15.3848H159.814V11.4458C159.814 9.91177 160.646 9.15777 161.855 9.15777C163.051 9.15777 163.844 9.89877 163.844 11.3548V15.3848H165.014V11.1858C165.014 9.14477 163.753 8.13077 162.167 8.13077C161.166 8.13077 160.282 8.53377 159.814 9.28777V5.76477H158.631V15.3848ZM166.947 15.3848H168.13V8.26077H166.947V15.3848ZM167.558 7.10377C167.987 7.10377 168.338 6.75277 168.338 6.29776C168.338 5.84277 167.987 5.49177 167.558 5.49177C167.103 5.49177 166.752 5.84277 166.752 6.29776C166.752 6.75277 167.103 7.10377 167.558 7.10377ZM175.268 13.4478C175.216 10.8998 171.082 11.8228 171.082 10.1328C171.082 9.56077 171.602 9.14477 172.473 9.14477C173.422 9.14477 173.968 9.66477 174.02 10.3798H175.203C175.125 8.98877 174.085 8.14377 172.512 8.14377C170.926 8.14377 169.899 9.04077 169.899 10.1328C169.899 12.7848 174.111 11.8618 174.111 13.4478C174.111 14.0328 173.591 14.5008 172.655 14.5008C171.654 14.5008 171.043 13.9808 170.978 13.2918H169.756C169.834 14.5918 171.004 15.5018 172.668 15.5018C174.241 15.5018 175.268 14.6178 175.268 13.4478ZM14.5955 35.3848H15.7785V29.2358H17.2735V28.2608H15.7785V27.7538C15.7785 26.8308 16.1295 26.4408 17.1955 26.4408V25.4528C15.3755 25.4528 14.5955 26.1678 14.5955 27.7538V28.2608H13.6725V29.2358H14.5955V35.3848ZM19.8359 31.5108C19.8359 29.8598 20.6939 29.3528 21.8249 29.3528H22.1369V28.1308C21.0059 28.1308 20.2389 28.6248 19.8359 29.4178V28.2608H18.6529V35.3848H19.8359V31.5108ZM23.5025 35.3848H24.6855V28.2608H23.5025V35.3848ZM24.1135 27.1038C24.5425 27.1038 24.8935 26.7528 24.8935 26.2978C24.8935 25.8428 24.5425 25.4918 24.1135 25.4918C23.6585 25.4918 23.3075 25.8428 23.3075 26.2978C23.3075 26.7528 23.6585 27.1038 24.1135 27.1038ZM29.7307 29.1448C30.9527 29.1448 31.9927 29.9118 31.9797 31.3028H27.4817C27.6117 29.9118 28.5737 29.1448 29.7307 29.1448ZM33.0587 33.1878H31.7847C31.5247 33.9548 30.8487 34.5008 29.7827 34.5008C28.5737 34.5008 27.5597 33.7078 27.4687 32.2648H33.1627C33.1887 32.0178 33.2017 31.8098 33.2017 31.5498C33.2017 29.5998 31.8497 28.1438 29.7827 28.1438C27.7027 28.1438 26.2597 29.5608 26.2597 31.8098C26.2597 34.0718 27.7547 35.5018 29.7827 35.5018C31.5507 35.5018 32.6947 34.4878 33.0587 33.1878ZM39.9762 35.3848H41.1462V31.1858C41.1462 29.1448 39.8852 28.1308 38.2342 28.1308C37.2722 28.1308 36.4142 28.5338 35.9462 29.2748V28.2608H34.7632V35.3848H35.9462V31.4458C35.9462 29.9118 36.7782 29.1578 37.9872 29.1578C39.1832 29.1578 39.9762 29.8988 39.9762 31.3548V35.3848ZM42.6366 31.7968C42.6366 34.0068 44.1056 35.5018 46.0166 35.5018C47.3166 35.5018 48.2396 34.8388 48.6686 34.0458V35.3848H49.8646V25.7648H48.6686V29.5348C48.1746 28.7158 47.1476 28.1438 46.0296 28.1438C44.1056 28.1438 42.6366 29.5738 42.6366 31.7968ZM48.6686 31.8098C48.6686 33.4868 47.5506 34.4618 46.2506 34.4618C44.9506 34.4618 43.8456 33.4738 43.8456 31.7968C43.8456 30.1198 44.9506 29.1708 46.2506 29.1708C47.5506 29.1708 48.6686 30.1588 48.6686 31.8098ZM55.5896 33.4348C55.5896 34.8648 56.3046 35.3848 57.5656 35.3848H58.6316V34.3838H57.7606C57.0326 34.3838 56.7726 34.1368 56.7726 33.4348V29.2358H58.6316V28.2608H56.7726V26.4668H55.5896V28.2608H54.6666V29.2358H55.5896V33.4348ZM66.825 31.8098C66.825 29.5608 65.252 28.1438 63.224 28.1438C61.209 28.1438 59.623 29.5608 59.623 31.8098C59.623 34.0718 61.157 35.5018 63.172 35.5018C65.2 35.5018 66.825 34.0718 66.825 31.8098ZM60.832 31.8098C60.832 30.0158 61.963 29.1708 63.211 29.1708C64.433 29.1708 65.616 30.0158 65.616 31.8098C65.616 33.6168 64.407 34.4618 63.172 34.4618C61.937 34.4618 60.832 33.6168 60.832 31.8098ZM76.9682 33.4478C76.9162 30.8998 72.7822 31.8228 72.7822 30.1328C72.7822 29.5608 73.3022 29.1448 74.1732 29.1448C75.1222 29.1448 75.6682 29.6648 75.7202 30.3798H76.9032C76.8252 28.9888 75.7852 28.1438 74.2122 28.1438C72.6262 28.1438 71.5992 29.0408 71.5992 30.1328C71.5992 32.7848 75.8112 31.8618 75.8112 33.4478C75.8112 34.0328 75.2912 34.5008 74.3552 34.5008C73.3542 34.5008 72.7432 33.9808 72.6782 33.2918H71.4562C71.5342 34.5918 72.7042 35.5018 74.3682 35.5018C75.9412 35.5018 76.9682 34.6178 76.9682 33.4478ZM81.6672 29.1448C82.8892 29.1448 83.9292 29.9118 83.9162 31.3028H79.4182C79.5482 29.9118 80.5102 29.1448 81.6672 29.1448ZM84.9952 33.1878H83.7212C83.4612 33.9548 82.7852 34.5008 81.7192 34.5008C80.5102 34.5008 79.4962 33.7078 79.4052 32.2648H85.0992C85.1252 32.0178 85.1382 31.8098 85.1382 31.5498C85.1382 29.5998 83.7862 28.1438 81.7192 28.1438C79.6392 28.1438 78.1962 29.5608 78.1962 31.8098C78.1962 34.0718 79.6912 35.5018 81.7192 35.5018C83.4872 35.5018 84.6312 34.4878 84.9952 33.1878ZM91.9127 35.3848H93.0827V31.1858C93.0827 29.1448 91.8217 28.1308 90.1707 28.1308C89.2087 28.1308 88.3507 28.5338 87.8827 29.2748V28.2608H86.6997V35.3848H87.8827V31.4458C87.8827 29.9118 88.7147 29.1578 89.9237 29.1578C91.1197 29.1578 91.9127 29.8988 91.9127 31.3548V35.3848ZM94.5732 31.7968C94.5732 34.0068 96.0422 35.5018 97.9532 35.5018C99.2532 35.5018 100.176 34.8388 100.605 34.0458V35.3848H101.801V25.7648H100.605V29.5348C100.111 28.7158 99.0842 28.1438 97.9662 28.1438C96.0422 28.1438 94.5732 29.5738 94.5732 31.7968ZM100.605 31.8098C100.605 33.4868 99.4872 34.4618 98.1872 34.4618C96.8872 34.4618 95.7822 33.4738 95.7822 31.7968C95.7822 30.1198 96.8872 29.1708 98.1872 29.1708C99.4872 29.1708 100.605 30.1588 100.605 31.8098ZM107.266 35.3848H108.449V31.4458C108.449 29.9118 109.281 29.1578 110.49 29.1578C111.686 29.1578 112.479 29.8988 112.479 31.3548V35.3848H113.649V31.1858C113.649 29.1448 112.388 28.1308 110.802 28.1308C109.801 28.1308 108.917 28.5338 108.449 29.2878V25.7648H107.266V35.3848ZM118.611 29.1448C119.833 29.1448 120.873 29.9118 120.86 31.3028H116.362C116.492 29.9118 117.454 29.1448 118.611 29.1448ZM121.939 33.1878H120.665C120.405 33.9548 119.729 34.5008 118.663 34.5008C117.454 34.5008 116.44 33.7078 116.349 32.2648H122.043C122.069 32.0178 122.082 31.8098 122.082 31.5498C122.082 29.5998 120.73 28.1438 118.663 28.1438C116.583 28.1438 115.14 29.5608 115.14 31.8098C115.14 34.0718 116.635 35.5018 118.663 35.5018C120.431 35.5018 121.575 34.4878 121.939 33.1878ZM124.826 31.5108C124.826 29.8598 125.684 29.3528 126.815 29.3528H127.127V28.1308C125.996 28.1308 125.229 28.6248 124.826 29.4178V28.2608H123.643V35.3848H124.826V31.5108ZM142.242 35.3848H143.412V31.1858C143.412 29.1448 142.151 28.1308 140.526 28.1308C139.434 28.1308 138.42 28.6898 138.004 29.7168C137.536 28.6508 136.561 28.1308 135.391 28.1308C134.455 28.1308 133.61 28.5338 133.142 29.2878V28.2608H131.959V35.3848H133.142V31.4588C133.142 29.9248 133.961 29.1578 135.157 29.1578C136.327 29.1578 137.107 29.8988 137.107 31.3548V35.3848H138.277V31.4588C138.277 29.9248 139.096 29.1578 140.292 29.1578C141.462 29.1578 142.242 29.8988 142.242 31.3548V35.3848ZM152.112 31.8098C152.112 29.5608 150.539 28.1438 148.511 28.1438C146.496 28.1438 144.91 29.5608 144.91 31.8098C144.91 34.0718 146.444 35.5018 148.459 35.5018C150.487 35.5018 152.112 34.0718 152.112 31.8098ZM146.119 31.8098C146.119 30.0158 147.25 29.1708 148.498 29.1708C149.72 29.1708 150.903 30.0158 150.903 31.8098C150.903 33.6168 149.694 34.4618 148.459 34.4618C147.224 34.4618 146.119 33.6168 146.119 31.8098ZM158.881 35.3848H160.051V31.1858C160.051 29.1448 158.79 28.1308 157.139 28.1308C156.177 28.1308 155.319 28.5338 154.851 29.2748V28.2608H153.668V35.3848H154.851V31.4458C154.851 29.9118 155.683 29.1578 156.892 29.1578C158.088 29.1578 158.881 29.8988 158.881 31.3548V35.3848ZM165.012 29.1448C166.234 29.1448 167.274 29.9118 167.261 31.3028H162.763C162.893 29.9118 163.855 29.1448 165.012 29.1448ZM168.34 33.1878H167.066C166.806 33.9548 166.13 34.5008 165.064 34.5008C163.855 34.5008 162.841 33.7078 162.75 32.2648H168.444C168.47 32.0178 168.483 31.8098 168.483 31.5498C168.483 29.5998 167.131 28.1438 165.064 28.1438C162.984 28.1438 161.541 29.5608 161.541 31.8098C161.541 34.0718 163.036 35.5018 165.064 35.5018C166.832 35.5018 167.976 34.4878 168.34 33.1878ZM172.748 34.0328L170.512 28.2608H169.199L172.072 35.3068L170.668 38.7388H171.89L176.18 28.2608H174.958L172.748 34.0328Z" fill="#494B52"/>
</svg>
