<svg width="595" height="113" viewBox="0 0 595 113" fill="none" xmlns="http://www.w3.org/2000/svg">
<g filter="url(#filter0_d)">
<rect x="19" y="16" width="556.56" height="75" rx="24" fill="white"/>
</g>
<path d="M84.3877 47.9297C83.1012 47.5599 82.1637 47.1068 81.5752 46.5703C80.9919 46.0286 80.7002 45.362 80.7002 44.5703C80.7002 43.6745 81.057 42.9349 81.7705 42.3516C82.4893 41.763 83.4215 41.4688 84.5674 41.4688C85.3486 41.4688 86.0439 41.6198 86.6533 41.9219C87.2679 42.224 87.7419 42.6406 88.0752 43.1719C88.4137 43.7031 88.583 44.2839 88.583 44.9141H87.0752C87.0752 44.2266 86.8564 43.6875 86.4189 43.2969C85.9814 42.901 85.3643 42.7031 84.5674 42.7031C83.8278 42.7031 83.2497 42.8672 82.833 43.1953C82.4215 43.5182 82.2158 43.9688 82.2158 44.5469C82.2158 45.0104 82.4111 45.4036 82.8018 45.7266C83.1976 46.0443 83.8669 46.3359 84.8096 46.6016C85.7575 46.8672 86.4971 47.1615 87.0283 47.4844C87.5648 47.8021 87.9606 48.1745 88.2158 48.6016C88.4762 49.0286 88.6064 49.5312 88.6064 50.1094C88.6064 51.0312 88.2471 51.7708 87.5283 52.3281C86.8096 52.8802 85.8486 53.1562 84.6455 53.1562C83.8643 53.1562 83.1351 53.0078 82.458 52.7109C81.7809 52.4089 81.2575 51.9974 80.8877 51.4766C80.5231 50.9557 80.3408 50.3646 80.3408 49.7031H81.8486C81.8486 50.3906 82.1012 50.9349 82.6064 51.3359C83.1169 51.7318 83.7965 51.9297 84.6455 51.9297C85.4372 51.9297 86.0439 51.7682 86.4658 51.4453C86.8877 51.1224 87.0986 50.6823 87.0986 50.125C87.0986 49.5677 86.9033 49.138 86.5127 48.8359C86.1221 48.5286 85.4137 48.2266 84.3877 47.9297ZM93.8174 53.1562C92.6715 53.1562 91.7393 52.7812 91.0205 52.0312C90.3018 51.276 89.9424 50.2682 89.9424 49.0078V48.7422C89.9424 47.9036 90.1012 47.1562 90.4189 46.5C90.7419 45.8385 91.1898 45.3229 91.7627 44.9531C92.3408 44.5781 92.9658 44.3906 93.6377 44.3906C94.7367 44.3906 95.5908 44.7526 96.2002 45.4766C96.8096 46.2005 97.1143 47.237 97.1143 48.5859V49.1875H91.3877C91.4085 50.0208 91.6507 50.6953 92.1143 51.2109C92.583 51.7214 93.1768 51.9766 93.8955 51.9766C94.4059 51.9766 94.8382 51.8724 95.1924 51.6641C95.5465 51.4557 95.8564 51.1797 96.1221 50.8359L97.0049 51.5234C96.2965 52.612 95.234 53.1562 93.8174 53.1562ZM93.6377 45.5781C93.0544 45.5781 92.5648 45.7917 92.1689 46.2188C91.7731 46.6406 91.5283 47.2344 91.4346 48H95.6689V47.8906C95.6273 47.1562 95.4294 46.5885 95.0752 46.1875C94.721 45.7812 94.2419 45.5781 93.6377 45.5781ZM100.364 53H98.9189V41H100.364V53ZM106.192 53.1562C105.047 53.1562 104.114 52.7812 103.396 52.0312C102.677 51.276 102.317 50.2682 102.317 49.0078V48.7422C102.317 47.9036 102.476 47.1562 102.794 46.5C103.117 45.8385 103.565 45.3229 104.138 44.9531C104.716 44.5781 105.341 44.3906 106.013 44.3906C107.112 44.3906 107.966 44.7526 108.575 45.4766C109.185 46.2005 109.489 47.237 109.489 48.5859V49.1875H103.763C103.784 50.0208 104.026 50.6953 104.489 51.2109C104.958 51.7214 105.552 51.9766 106.271 51.9766C106.781 51.9766 107.213 51.8724 107.567 51.6641C107.922 51.4557 108.231 51.1797 108.497 50.8359L109.38 51.5234C108.672 52.612 107.609 53.1562 106.192 53.1562ZM106.013 45.5781C105.429 45.5781 104.94 45.7917 104.544 46.2188C104.148 46.6406 103.903 47.2344 103.81 48H108.044V47.8906C108.002 47.1562 107.804 46.5885 107.45 46.1875C107.096 45.7812 106.617 45.5781 106.013 45.5781ZM114.56 51.9766C115.075 51.9766 115.526 51.8203 115.911 51.5078C116.297 51.1953 116.51 50.8047 116.552 50.3359H117.919C117.893 50.8203 117.726 51.2812 117.419 51.7188C117.112 52.1562 116.7 52.5052 116.185 52.7656C115.674 53.026 115.132 53.1562 114.56 53.1562C113.409 53.1562 112.492 52.7734 111.81 52.0078C111.132 51.237 110.794 50.1849 110.794 48.8516V48.6094C110.794 47.7865 110.945 47.0547 111.247 46.4141C111.549 45.7734 111.981 45.276 112.544 44.9219C113.112 44.5677 113.781 44.3906 114.552 44.3906C115.5 44.3906 116.286 44.6745 116.911 45.2422C117.541 45.8099 117.877 46.5469 117.919 47.4531H116.552C116.51 46.9062 116.302 46.4583 115.927 46.1094C115.557 45.7552 115.099 45.5781 114.552 45.5781C113.817 45.5781 113.247 45.8438 112.841 46.375C112.44 46.901 112.239 47.6641 112.239 48.6641V48.9375C112.239 49.9115 112.44 50.6615 112.841 51.1875C113.242 51.7135 113.815 51.9766 114.56 51.9766ZM121.505 42.5V44.5469H123.083V45.6641H121.505V50.9062C121.505 51.2448 121.575 51.5 121.716 51.6719C121.856 51.8385 122.096 51.9219 122.435 51.9219C122.601 51.9219 122.83 51.8906 123.122 51.8281V53C122.742 53.1042 122.372 53.1562 122.013 53.1562C121.367 53.1562 120.88 52.9609 120.552 52.5703C120.224 52.1797 120.06 51.625 120.06 50.9062V45.6641H118.521V44.5469H120.06V42.5H121.505ZM130.708 42.5V44.5469H132.286V45.6641H130.708V50.9062C130.708 51.2448 130.778 51.5 130.919 51.6719C131.06 51.8385 131.299 51.9219 131.638 51.9219C131.804 51.9219 132.034 51.8906 132.325 51.8281V53C131.945 53.1042 131.575 53.1562 131.216 53.1562C130.57 53.1562 130.083 52.9609 129.755 52.5703C129.427 52.1797 129.263 51.625 129.263 50.9062V45.6641H127.724V44.5469H129.263V42.5H130.708ZM135.427 45.5703C136.067 44.7839 136.901 44.3906 137.927 44.3906C139.713 44.3906 140.614 45.3984 140.63 47.4141V53H139.185V47.4062C139.179 46.7969 139.039 46.3464 138.763 46.0547C138.492 45.763 138.067 45.6172 137.489 45.6172C137.021 45.6172 136.609 45.7422 136.255 45.9922C135.901 46.2422 135.625 46.5703 135.427 46.9766V53H133.981V41H135.427V45.5703ZM146.302 53.1562C145.156 53.1562 144.224 52.7812 143.505 52.0312C142.786 51.276 142.427 50.2682 142.427 49.0078V48.7422C142.427 47.9036 142.586 47.1562 142.903 46.5C143.226 45.8385 143.674 45.3229 144.247 44.9531C144.825 44.5781 145.45 44.3906 146.122 44.3906C147.221 44.3906 148.075 44.7526 148.685 45.4766C149.294 46.2005 149.599 47.237 149.599 48.5859V49.1875H143.872C143.893 50.0208 144.135 50.6953 144.599 51.2109C145.067 51.7214 145.661 51.9766 146.38 51.9766C146.89 51.9766 147.323 51.8724 147.677 51.6641C148.031 51.4557 148.341 51.1797 148.606 50.8359L149.489 51.5234C148.781 52.612 147.718 53.1562 146.302 53.1562ZM146.122 45.5781C145.539 45.5781 145.049 45.7917 144.653 46.2188C144.257 46.6406 144.013 47.2344 143.919 48H148.153V47.8906C148.112 47.1562 147.914 46.5885 147.56 46.1875C147.205 45.7812 146.726 45.5781 146.122 45.5781ZM160.466 52.1641C159.903 52.8255 159.078 53.1562 157.989 53.1562C157.088 53.1562 156.401 52.8958 155.927 52.375C155.458 51.849 155.221 51.0729 155.216 50.0469V44.5469H156.661V50.0078C156.661 51.2891 157.182 51.9297 158.224 51.9297C159.328 51.9297 160.062 51.5182 160.427 50.6953V44.5469H161.872V53H160.497L160.466 52.1641ZM168.997 50.7578C168.997 50.3672 168.849 50.0651 168.552 49.8516C168.26 49.6328 167.747 49.4453 167.013 49.2891C166.284 49.1328 165.703 48.9453 165.271 48.7266C164.843 48.5078 164.526 48.2474 164.317 47.9453C164.114 47.6432 164.013 47.2839 164.013 46.8672C164.013 46.1745 164.304 45.5885 164.888 45.1094C165.476 44.6302 166.226 44.3906 167.138 44.3906C168.096 44.3906 168.872 44.638 169.466 45.1328C170.065 45.6276 170.364 46.2604 170.364 47.0312H168.911C168.911 46.6354 168.742 46.2943 168.403 46.0078C168.07 45.7214 167.648 45.5781 167.138 45.5781C166.612 45.5781 166.2 45.6927 165.903 45.9219C165.606 46.151 165.458 46.4505 165.458 46.8203C165.458 47.1693 165.596 47.4323 165.872 47.6094C166.148 47.7865 166.646 47.9557 167.364 48.1172C168.088 48.2786 168.674 48.4714 169.122 48.6953C169.57 48.9193 169.901 49.1901 170.114 49.5078C170.333 49.8203 170.442 50.2031 170.442 50.6562C170.442 51.4115 170.14 52.0182 169.536 52.4766C168.932 52.9297 168.148 53.1562 167.185 53.1562C166.507 53.1562 165.909 53.0365 165.388 52.7969C164.867 52.5573 164.458 52.224 164.161 51.7969C163.869 51.3646 163.724 50.8984 163.724 50.3984H165.169C165.195 50.8828 165.388 51.2682 165.747 51.5547C166.112 51.8359 166.591 51.9766 167.185 51.9766C167.731 51.9766 168.169 51.8672 168.497 51.6484C168.83 51.4245 168.997 51.1276 168.997 50.7578ZM175.833 53.1562C174.687 53.1562 173.755 52.7812 173.036 52.0312C172.317 51.276 171.958 50.2682 171.958 49.0078V48.7422C171.958 47.9036 172.117 47.1562 172.435 46.5C172.757 45.8385 173.205 45.3229 173.778 44.9531C174.356 44.5781 174.981 44.3906 175.653 44.3906C176.752 44.3906 177.606 44.7526 178.216 45.4766C178.825 46.2005 179.13 47.237 179.13 48.5859V49.1875H173.403C173.424 50.0208 173.666 50.6953 174.13 51.2109C174.599 51.7214 175.192 51.9766 175.911 51.9766C176.422 51.9766 176.854 51.8724 177.208 51.6641C177.562 51.4557 177.872 51.1797 178.138 50.8359L179.021 51.5234C178.312 52.612 177.25 53.1562 175.833 53.1562ZM175.653 45.5781C175.07 45.5781 174.58 45.7917 174.185 46.2188C173.789 46.6406 173.544 47.2344 173.45 48H177.685V47.8906C177.643 47.1562 177.445 46.5885 177.091 46.1875C176.737 45.7812 176.257 45.5781 175.653 45.5781ZM184.896 45.8438C184.677 45.8073 184.44 45.7891 184.185 45.7891C183.237 45.7891 182.593 46.1927 182.255 47V53H180.81V44.5469H182.216L182.239 45.5234C182.713 44.7682 183.385 44.3906 184.255 44.3906C184.536 44.3906 184.75 44.4271 184.896 44.5V45.8438ZM191.153 50.7578C191.153 50.3672 191.005 50.0651 190.708 49.8516C190.416 49.6328 189.903 49.4453 189.169 49.2891C188.44 49.1328 187.859 48.9453 187.427 48.7266C187 48.5078 186.682 48.2474 186.474 47.9453C186.271 47.6432 186.169 47.2839 186.169 46.8672C186.169 46.1745 186.461 45.5885 187.044 45.1094C187.632 44.6302 188.382 44.3906 189.294 44.3906C190.252 44.3906 191.028 44.638 191.622 45.1328C192.221 45.6276 192.521 46.2604 192.521 47.0312H191.067C191.067 46.6354 190.898 46.2943 190.56 46.0078C190.226 45.7214 189.804 45.5781 189.294 45.5781C188.768 45.5781 188.356 45.6927 188.06 45.9219C187.763 46.151 187.614 46.4505 187.614 46.8203C187.614 47.1693 187.752 47.4323 188.028 47.6094C188.304 47.7865 188.802 47.9557 189.521 48.1172C190.244 48.2786 190.83 48.4714 191.278 48.6953C191.726 48.9193 192.057 49.1901 192.271 49.5078C192.489 49.8203 192.599 50.2031 192.599 50.6562C192.599 51.4115 192.297 52.0182 191.692 52.4766C191.088 52.9297 190.304 53.1562 189.341 53.1562C188.664 53.1562 188.065 53.0365 187.544 52.7969C187.023 52.5573 186.614 52.224 186.317 51.7969C186.026 51.3646 185.88 50.8984 185.88 50.3984H187.325C187.351 50.8828 187.544 51.2682 187.903 51.5547C188.268 51.8359 188.747 51.9766 189.341 51.9766C189.888 51.9766 190.325 51.8672 190.653 51.6484C190.987 51.4245 191.153 51.1276 191.153 50.7578ZM201.216 50.8828L203.185 44.5469H204.731L201.333 54.3047C200.807 55.7109 199.971 56.4141 198.825 56.4141L198.552 56.3906L198.013 56.2891V55.1172L198.403 55.1484C198.893 55.1484 199.273 55.0495 199.544 54.8516C199.82 54.6536 200.047 54.2917 200.224 53.7656L200.544 52.9062L197.528 44.5469H199.106L201.216 50.8828ZM205.521 48.6953C205.521 47.8672 205.682 47.1224 206.005 46.4609C206.333 45.7995 206.786 45.2891 207.364 44.9297C207.948 44.5703 208.612 44.3906 209.356 44.3906C210.507 44.3906 211.437 44.7891 212.146 45.5859C212.859 46.3828 213.216 47.4427 213.216 48.7656V48.8672C213.216 49.6901 213.057 50.4297 212.739 51.0859C212.427 51.737 211.976 52.2448 211.388 52.6094C210.804 52.974 210.132 53.1562 209.372 53.1562C208.226 53.1562 207.297 52.7578 206.583 51.9609C205.875 51.1641 205.521 50.1094 205.521 48.7969V48.6953ZM206.974 48.8672C206.974 49.8047 207.19 50.5573 207.622 51.125C208.06 51.6927 208.643 51.9766 209.372 51.9766C210.106 51.9766 210.69 51.6901 211.122 51.1172C211.554 50.5391 211.771 49.7318 211.771 48.6953C211.771 47.7682 211.549 47.0182 211.106 46.4453C210.669 45.8672 210.086 45.5781 209.356 45.5781C208.643 45.5781 208.067 45.862 207.63 46.4297C207.192 46.9974 206.974 47.8099 206.974 48.8672ZM220.247 52.1641C219.685 52.8255 218.859 53.1562 217.771 53.1562C216.869 53.1562 216.182 52.8958 215.708 52.375C215.239 51.849 215.002 51.0729 214.997 50.0469V44.5469H216.442V50.0078C216.442 51.2891 216.963 51.9297 218.005 51.9297C219.109 51.9297 219.843 51.5182 220.208 50.6953V44.5469H221.653V53H220.278L220.247 52.1641ZM235.31 51.0078L236.935 44.5469H238.38L235.919 53H234.747L232.692 46.5938L230.692 53H229.521L227.067 44.5469H228.505L230.169 50.875L232.138 44.5469H233.302L235.31 51.0078ZM245.075 53C244.992 52.8333 244.924 52.5365 244.872 52.1094C244.2 52.8073 243.398 53.1562 242.466 53.1562C241.632 53.1562 240.948 52.9219 240.411 52.4531C239.88 51.9792 239.614 51.3802 239.614 50.6562C239.614 49.776 239.948 49.0938 240.614 48.6094C241.286 48.1198 242.229 47.875 243.442 47.875H244.849V47.2109C244.849 46.7057 244.698 46.3047 244.396 46.0078C244.093 45.7057 243.648 45.5547 243.06 45.5547C242.544 45.5547 242.112 45.6849 241.763 45.9453C241.414 46.2057 241.239 46.5208 241.239 46.8906H239.786C239.786 46.4688 239.935 46.0625 240.231 45.6719C240.534 45.276 240.94 44.9635 241.45 44.7344C241.966 44.5052 242.531 44.3906 243.146 44.3906C244.119 44.3906 244.882 44.6354 245.435 45.125C245.987 45.6094 246.273 46.2786 246.294 47.1328V51.0234C246.294 51.7995 246.393 52.4167 246.591 52.875V53H245.075ZM242.677 51.8984C243.13 51.8984 243.56 51.7812 243.966 51.5469C244.372 51.3125 244.666 51.0078 244.849 50.6328V48.8984H243.716C241.945 48.8984 241.06 49.4167 241.06 50.4531C241.06 50.9062 241.211 51.2604 241.513 51.5156C241.815 51.7708 242.203 51.8984 242.677 51.8984ZM249.927 44.5469L249.974 45.6094C250.619 44.7969 251.463 44.3906 252.505 44.3906C254.291 44.3906 255.192 45.3984 255.208 47.4141V53H253.763V47.4062C253.757 46.7969 253.617 46.3464 253.341 46.0547C253.07 45.763 252.646 45.6172 252.067 45.6172C251.599 45.6172 251.187 45.7422 250.833 45.9922C250.479 46.2422 250.203 46.5703 250.005 46.9766V53H248.56V44.5469H249.927ZM259.349 42.5V44.5469H260.927V45.6641H259.349V50.9062C259.349 51.2448 259.419 51.5 259.56 51.6719C259.7 51.8385 259.94 51.9219 260.278 51.9219C260.445 51.9219 260.674 51.8906 260.966 51.8281V53C260.586 53.1042 260.216 53.1562 259.856 53.1562C259.211 53.1562 258.724 52.9609 258.396 52.5703C258.067 52.1797 257.903 51.625 257.903 50.9062V45.6641H256.364V44.5469H257.903V42.5H259.349ZM268.552 42.5V44.5469H270.13V45.6641H268.552V50.9062C268.552 51.2448 268.622 51.5 268.763 51.6719C268.903 51.8385 269.143 51.9219 269.481 51.9219C269.648 51.9219 269.877 51.8906 270.169 51.8281V53C269.789 53.1042 269.419 53.1562 269.06 53.1562C268.414 53.1562 267.927 52.9609 267.599 52.5703C267.271 52.1797 267.106 51.625 267.106 50.9062V45.6641H265.567V44.5469H267.106V42.5H268.552ZM271.286 48.6953C271.286 47.8672 271.448 47.1224 271.771 46.4609C272.099 45.7995 272.552 45.2891 273.13 44.9297C273.713 44.5703 274.377 44.3906 275.122 44.3906C276.273 44.3906 277.203 44.7891 277.911 45.5859C278.625 46.3828 278.981 47.4427 278.981 48.7656V48.8672C278.981 49.6901 278.823 50.4297 278.505 51.0859C278.192 51.737 277.742 52.2448 277.153 52.6094C276.57 52.974 275.898 53.1562 275.138 53.1562C273.992 53.1562 273.062 52.7578 272.349 51.9609C271.64 51.1641 271.286 50.1094 271.286 48.7969V48.6953ZM272.739 48.8672C272.739 49.8047 272.955 50.5573 273.388 51.125C273.825 51.6927 274.409 51.9766 275.138 51.9766C275.872 51.9766 276.455 51.6901 276.888 51.1172C277.32 50.5391 277.536 49.7318 277.536 48.6953C277.536 47.7682 277.315 47.0182 276.872 46.4453C276.435 45.8672 275.851 45.5781 275.122 45.5781C274.409 45.5781 273.833 45.862 273.396 46.4297C272.958 46.9974 272.739 47.8099 272.739 48.8672ZM286.333 53H284.888V44.5469H286.333V53ZM284.771 42.3047C284.771 42.0703 284.841 41.8724 284.981 41.7109C285.127 41.5495 285.341 41.4688 285.622 41.4688C285.903 41.4688 286.117 41.5495 286.263 41.7109C286.409 41.8724 286.481 42.0703 286.481 42.3047C286.481 42.5391 286.409 42.7344 286.263 42.8906C286.117 43.0469 285.903 43.125 285.622 43.125C285.341 43.125 285.127 43.0469 284.981 42.8906C284.841 42.7344 284.771 42.5391 284.771 42.3047ZM290.021 44.5469L290.067 45.6094C290.713 44.7969 291.557 44.3906 292.599 44.3906C294.385 44.3906 295.286 45.3984 295.302 47.4141V53H293.856V47.4062C293.851 46.7969 293.711 46.3464 293.435 46.0547C293.164 45.763 292.739 45.6172 292.161 45.6172C291.692 45.6172 291.281 45.7422 290.927 45.9922C290.573 46.2422 290.297 46.5703 290.099 46.9766V53H288.653V44.5469H290.021ZM299.442 42.5V44.5469H301.021V45.6641H299.442V50.9062C299.442 51.2448 299.513 51.5 299.653 51.6719C299.794 51.8385 300.034 51.9219 300.372 51.9219C300.539 51.9219 300.768 51.8906 301.06 51.8281V53C300.679 53.1042 300.31 53.1562 299.95 53.1562C299.304 53.1562 298.817 52.9609 298.489 52.5703C298.161 52.1797 297.997 51.625 297.997 50.9062V45.6641H296.458V44.5469H297.997V42.5H299.442ZM306.224 53.1562C305.078 53.1562 304.146 52.7812 303.427 52.0312C302.708 51.276 302.349 50.2682 302.349 49.0078V48.7422C302.349 47.9036 302.507 47.1562 302.825 46.5C303.148 45.8385 303.596 45.3229 304.169 44.9531C304.747 44.5781 305.372 44.3906 306.044 44.3906C307.143 44.3906 307.997 44.7526 308.606 45.4766C309.216 46.2005 309.521 47.237 309.521 48.5859V49.1875H303.794C303.815 50.0208 304.057 50.6953 304.521 51.2109C304.989 51.7214 305.583 51.9766 306.302 51.9766C306.812 51.9766 307.244 51.8724 307.599 51.6641C307.953 51.4557 308.263 51.1797 308.528 50.8359L309.411 51.5234C308.703 52.612 307.64 53.1562 306.224 53.1562ZM306.044 45.5781C305.461 45.5781 304.971 45.7917 304.575 46.2188C304.179 46.6406 303.935 47.2344 303.841 48H308.075V47.8906C308.034 47.1562 307.836 46.5885 307.481 46.1875C307.127 45.7812 306.648 45.5781 306.044 45.5781ZM315.286 45.8438C315.067 45.8073 314.83 45.7891 314.575 45.7891C313.627 45.7891 312.984 46.1927 312.646 47V53H311.2V44.5469H312.606L312.63 45.5234C313.104 44.7682 313.776 44.3906 314.646 44.3906C314.927 44.3906 315.14 44.4271 315.286 44.5V45.8438ZM321.528 53C321.445 52.8333 321.377 52.5365 321.325 52.1094C320.653 52.8073 319.851 53.1562 318.919 53.1562C318.086 53.1562 317.401 52.9219 316.864 52.4531C316.333 51.9792 316.067 51.3802 316.067 50.6562C316.067 49.776 316.401 49.0938 317.067 48.6094C317.739 48.1198 318.682 47.875 319.896 47.875H321.302V47.2109C321.302 46.7057 321.151 46.3047 320.849 46.0078C320.547 45.7057 320.101 45.5547 319.513 45.5547C318.997 45.5547 318.565 45.6849 318.216 45.9453C317.867 46.2057 317.692 46.5208 317.692 46.8906H316.239C316.239 46.4688 316.388 46.0625 316.685 45.6719C316.987 45.276 317.393 44.9635 317.903 44.7344C318.419 44.5052 318.984 44.3906 319.599 44.3906C320.573 44.3906 321.336 44.6354 321.888 45.125C322.44 45.6094 322.726 46.2786 322.747 47.1328V51.0234C322.747 51.7995 322.846 52.4167 323.044 52.875V53H321.528ZM319.13 51.8984C319.583 51.8984 320.013 51.7812 320.419 51.5469C320.825 51.3125 321.119 51.0078 321.302 50.6328V48.8984H320.169C318.398 48.8984 317.513 49.4167 317.513 50.4531C317.513 50.9062 317.664 51.2604 317.966 51.5156C318.268 51.7708 318.656 51.8984 319.13 51.8984ZM328.403 51.9766C328.919 51.9766 329.369 51.8203 329.755 51.5078C330.14 51.1953 330.354 50.8047 330.396 50.3359H331.763C331.737 50.8203 331.57 51.2812 331.263 51.7188C330.955 52.1562 330.544 52.5052 330.028 52.7656C329.518 53.026 328.976 53.1562 328.403 53.1562C327.252 53.1562 326.336 52.7734 325.653 52.0078C324.976 51.237 324.638 50.1849 324.638 48.8516V48.6094C324.638 47.7865 324.789 47.0547 325.091 46.4141C325.393 45.7734 325.825 45.276 326.388 44.9219C326.955 44.5677 327.625 44.3906 328.396 44.3906C329.343 44.3906 330.13 44.6745 330.755 45.2422C331.385 45.8099 331.721 46.5469 331.763 47.4531H330.396C330.354 46.9062 330.146 46.4583 329.771 46.1094C329.401 45.7552 328.942 45.5781 328.396 45.5781C327.661 45.5781 327.091 45.8438 326.685 46.375C326.284 46.901 326.083 47.6641 326.083 48.6641V48.9375C326.083 49.9115 326.284 50.6615 326.685 51.1875C327.086 51.7135 327.659 51.9766 328.403 51.9766ZM335.349 42.5V44.5469H336.927V45.6641H335.349V50.9062C335.349 51.2448 335.419 51.5 335.56 51.6719C335.7 51.8385 335.94 51.9219 336.278 51.9219C336.445 51.9219 336.674 51.8906 336.966 51.8281V53C336.586 53.1042 336.216 53.1562 335.856 53.1562C335.211 53.1562 334.724 52.9609 334.396 52.5703C334.067 52.1797 333.903 51.625 333.903 50.9062V45.6641H332.364V44.5469H333.903V42.5H335.349ZM350.075 51.0078L351.7 44.5469H353.146L350.685 53H349.513L347.458 46.5938L345.458 53H344.286L341.833 44.5469H343.271L344.935 50.875L346.903 44.5469H348.067L350.075 51.0078ZM356.192 53H354.747V44.5469H356.192V53ZM354.63 42.3047C354.63 42.0703 354.7 41.8724 354.841 41.7109C354.987 41.5495 355.2 41.4688 355.481 41.4688C355.763 41.4688 355.976 41.5495 356.122 41.7109C356.268 41.8724 356.341 42.0703 356.341 42.3047C356.341 42.5391 356.268 42.7344 356.122 42.8906C355.976 43.0469 355.763 43.125 355.481 43.125C355.2 43.125 354.987 43.0469 354.841 42.8906C354.7 42.7344 354.63 42.5391 354.63 42.3047ZM360.474 42.5V44.5469H362.052V45.6641H360.474V50.9062C360.474 51.2448 360.544 51.5 360.685 51.6719C360.825 51.8385 361.065 51.9219 361.403 51.9219C361.57 51.9219 361.799 51.8906 362.091 51.8281V53C361.711 53.1042 361.341 53.1562 360.981 53.1562C360.336 53.1562 359.849 52.9609 359.521 52.5703C359.192 52.1797 359.028 51.625 359.028 50.9062V45.6641H357.489V44.5469H359.028V42.5H360.474ZM365.192 45.5703C365.833 44.7839 366.666 44.3906 367.692 44.3906C369.479 44.3906 370.38 45.3984 370.396 47.4141V53H368.95V47.4062C368.945 46.7969 368.804 46.3464 368.528 46.0547C368.257 45.763 367.833 45.6172 367.255 45.6172C366.786 45.6172 366.375 45.7422 366.021 45.9922C365.666 46.2422 365.39 46.5703 365.192 46.9766V53H363.747V41H365.192V45.5703ZM372.591 52.2422C372.591 51.9922 372.664 51.7839 372.81 51.6172C372.961 51.4505 373.185 51.3672 373.481 51.3672C373.778 51.3672 374.002 51.4505 374.153 51.6172C374.31 51.7839 374.388 51.9922 374.388 52.2422C374.388 52.4818 374.31 52.6823 374.153 52.8438C374.002 53.0052 373.778 53.0859 373.481 53.0859C373.185 53.0859 372.961 53.0052 372.81 52.8438C372.664 52.6823 372.591 52.4818 372.591 52.2422Z" fill="#6654A4"/>
<path d="M47.7587 65H50.6387V59.848H53.8387V57.32H50.6387V42.088H47.1507L35.9187 57.64V59.848H47.7587V65ZM39.2787 57.32L47.8867 45.128V57.32H39.2787Z" fill="#6654A4"/>
<defs>
<filter id="filter0_d" x="0" y="0" width="594.56" height="113" filterUnits="userSpaceOnUse" color-interpolation-filters="sRGB">
<feFlood flood-opacity="0" result="BackgroundImageFix"/>
<feColorMatrix in="SourceAlpha" type="matrix" values="0 0 0 0 0 0 0 0 0 0 0 0 0 0 0 0 0 0 127 0"/>
<feMorphology radius="4" operator="dilate" in="SourceAlpha" result="effect1_dropShadow"/>
<feOffset dy="3"/>
<feGaussianBlur stdDeviation="7.5"/>
<feColorMatrix type="matrix" values="0 0 0 0 0.872109 0 0 0 0 0.853125 0 0 0 0 0.9375 0 0 0 0.5 0"/>
<feBlend mode="normal" in2="BackgroundImageFix" result="effect1_dropShadow"/>
<feBlend mode="normal" in="SourceGraphic" in2="effect1_dropShadow" result="shape"/>
</filter>
</defs>
</svg>
