<svg width="220" height="189" viewBox="0 0 220 189" fill="none" xmlns="http://www.w3.org/2000/svg">
<path d="M19.0201 50.2625C22.0165 43.5878 25.5156 38.0226 29.4338 34.0178C30.5434 32.8678 31.7396 31.8246 33.0052 30.9C34.1379 30.0678 35.337 29.357 36.5853 28.7705C54.4337 20.4805 72.7126 39.3431 93.1327 37.1153C110.25 35.2429 122.565 24.5605 133.487 15.5915C137.067 12.5257 140.812 9.71714 144.704 7.18017C145.736 6.53292 146.776 5.94346 147.808 5.42047C148.917 4.86279 150.099 4.3398 151.359 3.86014C151.359 3.85436 151.365 3.84858 151.367 3.84858L151.379 3.86014C167.193 -2.2338 193.912 -2.01131 205.751 11.1012C218.147 24.8379 233.201 69.3563 199.105 126.698C161.224 190.438 57.719 199.245 30.0608 178.169C1.4375 156.376 2.58752 86.881 19.0201 50.2625Z" fill="#E4F2FF"/>
<path d="M35.3018 112.409L37.5382 123.146H47.1689L48.8275 112.253L35.3018 112.409Z" fill="#EBEBEB"/>
<path d="M42.1616 119.177C45.2072 119.177 47.6748 119.203 47.6748 119.235C47.6748 119.266 45.2072 119.292 42.1616 119.292C39.1161 119.292 36.6514 119.266 36.6514 119.235C36.6485 119.203 39.1161 119.177 42.1616 119.177Z" fill="#FAFAFA"/>
<path d="M42.164 118.642C45.2298 118.642 47.7147 118.668 47.7147 118.699C47.7147 118.731 45.2298 118.757 42.164 118.757C39.1012 118.757 36.6162 118.731 36.6162 118.699C36.6162 118.668 39.1012 118.642 42.164 118.642Z" fill="#FAFAFA"/>
<path d="M42.1719 118.038C45.2376 118.038 47.7226 118.064 47.7226 118.096C47.7226 118.128 45.2376 118.154 42.1719 118.154C39.109 118.154 36.624 118.128 36.624 118.096C36.624 118.061 39.1061 118.038 42.1719 118.038Z" fill="#FAFAFA"/>
<path d="M46.2474 121.133C46.3081 120.671 46.4092 120.212 46.5421 119.764C46.519 120.232 46.4555 120.697 46.3572 121.154C46.2965 121.619 46.1954 122.078 46.0625 122.526C46.0856 122.058 46.1492 121.59 46.2474 121.133Z" fill="#FAFAFA"/>
<path d="M45.4086 122.41C45.3566 121.511 45.4173 120.613 45.5907 119.729C45.5993 120.176 45.5762 120.624 45.5271 121.072C45.5155 121.52 45.4751 121.965 45.4086 122.41Z" fill="#FAFAFA"/>
<path d="M44.5336 119.645C44.5451 120.575 44.4353 121.505 44.21 122.41C44.288 121.482 44.3949 120.561 44.5336 119.645Z" fill="#FAFAFA"/>
<path d="M43.4676 119.671C43.5543 120.601 43.5254 121.54 43.3752 122.465C43.3723 121.535 43.4041 120.601 43.4676 119.671Z" fill="#FAFAFA"/>
<path d="M41.9726 119.758C42.0188 120.642 41.987 121.529 41.883 122.407C41.8368 121.526 41.8686 120.639 41.9726 119.758Z" fill="#FAFAFA"/>
<path d="M40.7836 119.729C40.8674 120.639 40.8732 121.555 40.8067 122.468C40.7229 121.555 40.7171 120.639 40.7836 119.729Z" fill="#FAFAFA"/>
<path d="M39.5146 119.472C39.6822 120.414 39.7747 121.367 39.792 122.324C39.6245 121.379 39.532 120.428 39.5146 119.472Z" fill="#FAFAFA"/>
<path d="M37.9609 119.786C38.2643 120.549 38.4406 121.358 38.481 122.179C38.2903 121.384 38.117 120.587 37.9609 119.786Z" fill="#FAFAFA"/>
<path d="M39.4312 90.8078L39.4862 90.9581L39.6884 91.5388C39.778 91.7902 39.882 92.1023 39.9889 92.4664C40.0958 92.8304 40.2316 93.2407 40.3501 93.7059C40.4772 94.1683 40.6159 94.6739 40.7402 95.2229C40.8789 95.769 40.9945 96.3585 41.1216 96.9797C41.3585 98.2222 41.5724 99.6005 41.7226 101.054C41.8642 102.507 41.9249 103.9 41.9393 105.166C41.9364 105.798 41.9393 106.399 41.9104 106.963C41.8989 107.526 41.8642 108.049 41.8295 108.526C41.8035 109.006 41.7486 109.439 41.7168 109.815C41.685 110.191 41.6417 110.517 41.6041 110.783C41.5695 111.04 41.5406 111.245 41.5203 111.393C41.5117 111.456 41.503 111.508 41.4943 111.551C41.4914 111.569 41.4886 111.589 41.4828 111.603C41.4799 111.586 41.4799 111.566 41.4828 111.549C41.4857 111.505 41.4914 111.453 41.4972 111.387C41.5117 111.236 41.5348 111.031 41.5608 110.774C41.5926 110.508 41.6244 110.185 41.6533 109.803C41.6822 109.422 41.7284 108.994 41.7486 108.517C41.7775 108.041 41.8064 107.518 41.818 106.957C41.8411 106.397 41.8353 105.796 41.8353 105.163C41.8151 103.9 41.7515 102.51 41.6099 101.06C41.4626 99.6092 41.2516 98.2367 41.0205 96.9942C40.8962 96.3758 40.7835 95.7864 40.6477 95.2403C40.5264 94.6884 40.3934 94.1856 40.2721 93.7233C40.1565 93.2581 40.0265 92.8478 39.9253 92.4808C39.8242 92.1138 39.7231 91.8047 39.6422 91.5475C39.5642 91.299 39.5035 91.1025 39.4601 90.9581L39.4139 90.8049C39.4081 90.7876 39.4023 90.7702 39.4023 90.75C39.4168 90.7702 39.4255 90.7876 39.4312 90.8078Z" fill="#EBEBEB"/>
<path d="M41.3139 98.3576C40.736 98.4414 40.1466 98.2911 39.6785 97.9444C39.1468 97.5977 38.7625 97.0689 38.5891 96.4592C38.4909 96.1009 38.5169 95.627 38.8521 95.4652C39.1237 95.3785 39.4213 95.4334 39.6438 95.6097C40.346 96.0489 40.8776 96.7164 41.1406 97.5023" fill="#EBEBEB"/>
<path d="M41.837 102.525C40.4414 102.189 39.352 101.094 39.0255 99.6959C38.9504 99.4849 38.988 99.2509 39.1209 99.0717C39.2394 98.9706 39.4012 98.9359 39.5543 98.9793C39.7017 99.0226 39.8375 99.0977 39.956 99.196C40.8084 99.9617 41.4238 100.953 41.733 102.057" fill="#EBEBEB"/>
<path d="M41.8236 106.98C41.237 106.769 40.6793 106.483 40.165 106.127C39.6073 105.688 39.0641 105.119 39.0034 104.408C38.9745 104.064 39.1277 103.648 39.4686 103.588C39.6998 103.573 39.9252 103.654 40.0957 103.81C40.8845 104.388 41.5028 105.168 41.89 106.067" fill="#EBEBEB"/>
<path d="M41.6965 109.52C40.821 109.231 40.0582 108.673 39.5179 107.922C39.3532 107.705 39.2087 107.402 39.3618 107.176C39.4687 107.041 39.6421 106.974 39.8126 107.006C39.9802 107.038 40.1362 107.107 40.2691 107.211C40.899 107.67 41.4192 108.263 41.7948 108.948" fill="#EBEBEB"/>
<path d="M41.7969 108.411C43.0451 108.093 44.0796 107.22 44.6055 106.047C44.6604 105.934 44.6893 105.81 44.6893 105.686C44.6864 105.556 44.6084 105.44 44.487 105.391C44.3338 105.342 44.1749 105.452 44.0536 105.556C43.259 106.229 42.5279 106.972 41.872 107.778" fill="#EBEBEB"/>
<path d="M41.8953 104.587C42.4617 104.645 43.0251 104.472 43.4614 104.105C43.9555 103.741 44.3774 103.29 44.7097 102.776C44.8686 102.573 44.9813 102.339 45.0449 102.091C45.1027 101.834 45.0131 101.568 44.8108 101.4C44.5854 101.267 44.3023 101.27 44.0798 101.409C43.8631 101.548 43.6752 101.727 43.525 101.938L41.8115 104.027" fill="#EBEBEB"/>
<path d="M41.6579 100.519C42.3427 100.279 42.9871 99.9297 43.565 99.4905C43.8857 99.2623 44.1602 98.9733 44.3711 98.6381C44.5821 98.3001 44.637 97.8869 44.5272 97.5026C44.4318 97.1529 44.1024 96.9218 43.7412 96.9507C43.5707 96.9969 43.4147 97.0865 43.2905 97.2136C42.4959 97.91 41.9006 98.8028 41.5654 99.8026" fill="#EBEBEB"/>
<path d="M41.0292 96.5835C42.4363 96.0576 43.3928 94.74 43.4592 93.2404C43.4708 93.0757 43.4477 92.911 43.3899 92.7578C43.3292 92.6018 43.1963 92.4862 43.0316 92.4515C42.7773 92.414 42.5606 92.6307 42.4075 92.8387C41.6764 93.8183 41.0465 94.8267 40.8789 96.0403" fill="#EBEBEB"/>
<path d="M40.4026 94.1158C39.608 93.8095 38.8452 92.5931 38.3886 91.4922C38.2817 91.2668 38.2182 91.0241 38.1951 90.7756C38.1748 90.5242 38.2702 90.2757 38.4551 90.1023C38.6747 89.9376 38.9665 89.9001 39.2208 90.0012C39.4722 90.1052 39.686 90.2757 39.845 90.4982C40.2119 91.0096 40.4286 91.6135 40.4662 92.2434C40.5066 92.8647 40.4835 93.4946 40.4026 94.1158Z" fill="#EBEBEB"/>
<path d="M47.8857 95.7108C47.8886 95.8235 47.8944 95.968 47.9031 96.15C47.9117 96.3407 47.9146 96.5748 47.9117 96.8464C47.9088 97.118 47.9117 97.4272 47.8944 97.7682C47.8742 98.453 47.8164 99.2649 47.7181 100.164C47.6141 101.062 47.4668 102.047 47.2501 103.067C47.0333 104.087 46.7762 105.05 46.5103 105.917C46.2387 106.78 45.9642 107.546 45.7071 108.182C45.5857 108.503 45.4557 108.783 45.3517 109.034C45.2476 109.286 45.1465 109.497 45.0627 109.67L44.872 110.066C44.8518 110.112 44.8287 110.158 44.7969 110.202C44.8084 110.153 44.8287 110.103 44.8489 110.057L45.0222 109.653C45.1003 109.479 45.1898 109.263 45.291 109.011C45.3921 108.76 45.5135 108.477 45.6291 108.156C45.8747 107.52 46.1405 106.752 46.4063 105.891C46.6635 105.027 46.9235 104.07 47.1345 103.05C47.3454 102.03 47.4985 101.051 47.6083 100.158C47.7124 99.262 47.7788 98.453 47.8077 97.771C47.8308 97.4301 47.8308 97.1209 47.8395 96.8522C47.8482 96.5835 47.8511 96.3465 47.8511 96.1558L47.8568 95.7166C47.8539 95.6646 47.8568 95.6126 47.8655 95.5635C47.8829 95.6097 47.8857 95.6588 47.8857 95.7108Z" fill="#E0E0E0"/>
<path d="M47.5394 101.143C47.1291 101.074 46.7593 100.848 46.5136 100.51C46.2276 100.161 46.0773 99.7156 46.0918 99.2648C46.1004 98.999 46.2218 98.684 46.4847 98.6436C46.6899 98.6436 46.8777 98.7447 46.9933 98.9123C47.3776 99.363 47.5943 99.9323 47.6059 100.525" fill="#E0E0E0"/>
<path d="M46.9874 104.094C46.109 103.565 45.6033 102.585 45.6842 101.562C45.6784 101.404 45.7536 101.25 45.8865 101.161C45.9905 101.117 46.109 101.129 46.2015 101.19C46.2939 101.25 46.369 101.331 46.4297 101.424C46.8458 102.129 47.051 102.935 47.025 103.753" fill="#E0E0E0"/>
<path d="M46.0301 107.128C45.6747 106.856 45.3568 106.541 45.0852 106.191C44.7587 105.796 44.6056 105.281 44.6633 104.77C44.7182 104.53 44.9118 104.279 45.1574 104.31C45.3164 104.351 45.4522 104.455 45.536 104.596C45.9463 105.16 46.2006 105.824 46.2728 106.518" fill="#E0E0E0"/>
<path d="M45.3967 108.826C44.8622 108.442 44.4634 107.896 44.2583 107.269C44.1918 107.087 44.16 106.85 44.3132 106.728C44.4143 106.659 44.5472 106.65 44.657 106.708C44.7639 106.766 44.8535 106.847 44.9257 106.945C45.2551 107.393 45.4834 107.91 45.5903 108.456" fill="#E0E0E0"/>
<path d="M45.6963 108.092C46.6151 108.144 47.5051 107.775 48.1177 107.087C48.1783 107.02 48.2246 106.942 48.2535 106.856C48.2795 106.769 48.2506 106.674 48.1812 106.613C48.0743 106.564 47.9501 106.57 47.8489 106.63C47.1641 106.916 46.5053 107.266 45.8841 107.673" fill="#E0E0E0"/>
<path d="M46.5908 105.509C46.9636 105.671 47.3854 105.674 47.7582 105.518C48.1714 105.376 48.5557 105.162 48.8938 104.882C49.0469 104.778 49.174 104.642 49.2694 104.486C49.3647 104.324 49.359 104.122 49.2578 103.966C49.1336 103.827 48.94 103.767 48.7579 103.816C48.5817 103.865 48.4141 103.946 48.2667 104.058L46.6486 105.113" fill="#E0E0E0"/>
<path d="M47.3057 102.692C47.8258 102.675 48.3372 102.576 48.8255 102.4C49.0943 102.313 49.3427 102.175 49.5566 101.993C49.7733 101.808 49.9004 101.539 49.9091 101.253C49.9178 100.996 49.7444 100.767 49.493 100.707C49.3659 100.701 49.2416 100.73 49.1318 100.788C48.4412 101.091 47.8431 101.571 47.401 102.18" fill="#E0E0E0"/>
<path d="M47.7266 99.8778C48.7986 99.8229 49.7319 99.1323 50.0988 98.1239C50.1422 98.0141 50.1624 97.8985 50.1566 97.7801C50.1508 97.6616 50.0815 97.5518 49.9804 97.494C49.8012 97.442 49.6076 97.4911 49.4718 97.624C48.7465 98.0806 48.1513 98.7191 47.7439 99.4733" fill="#E0E0E0"/>
<path d="M47.8285 98.0635C47.3546 97.6821 47.0974 96.691 47.0223 95.8444C46.9992 95.6681 47.005 95.489 47.0454 95.3156C47.0859 95.1393 47.2043 94.992 47.3691 94.914C47.554 94.8504 47.7591 94.8851 47.9123 95.0093C48.0596 95.1336 48.1695 95.2983 48.2301 95.4803C48.3688 95.9079 48.3862 96.3645 48.2792 96.8008C48.1666 97.2342 48.0163 97.6561 47.8285 98.0635Z" fill="#E0E0E0"/>
<path d="M35.7067 95.6072C35.7067 95.7199 35.7096 95.8644 35.7125 96.0464C35.7125 96.2371 35.7153 96.4712 35.724 96.7428C35.7327 97.0144 35.7356 97.3236 35.7558 97.6645C35.7847 98.3464 35.8512 99.1555 35.9552 100.051C36.0679 100.947 36.2123 101.927 36.4291 102.944C36.6458 103.961 36.9 104.92 37.1572 105.784C37.423 106.645 37.686 107.414 37.9345 108.049C38.0501 108.37 38.1743 108.653 38.2726 108.905C38.3737 109.156 38.4661 109.37 38.5413 109.546C38.6135 109.714 38.6684 109.847 38.7146 109.951C38.7378 109.997 38.7551 110.046 38.7667 110.095C38.7378 110.052 38.7118 110.008 38.6915 109.959L38.5008 109.563C38.417 109.39 38.3188 109.179 38.2119 108.928C38.105 108.679 37.9778 108.396 37.8565 108.075C37.5993 107.443 37.3277 106.674 37.0561 105.81C36.7902 104.946 36.5273 103.984 36.3164 102.961C36.1054 101.938 35.9552 100.956 35.8483 100.057C35.75 99.1584 35.6922 98.3464 35.672 97.6616C35.6547 97.3207 35.6605 97.0115 35.6547 96.7399C35.6489 96.4683 35.6547 96.2342 35.6633 96.0435C35.6691 95.8615 35.6749 95.717 35.6807 95.6043C35.6807 95.5523 35.6836 95.5003 35.6951 95.4512C35.7038 95.5032 35.7067 95.5552 35.7067 95.6072Z" fill="#EBEBEB"/>
<path d="M36.0303 101.039C36.4406 100.97 36.8105 100.745 37.0561 100.407C37.3421 100.057 37.4924 99.612 37.478 99.1613C37.4693 98.8954 37.3479 98.5805 37.085 98.54C36.8798 98.54 36.692 98.6412 36.5764 98.8088C36.1921 99.2595 35.9754 99.8288 35.9639 100.421" fill="#EBEBEB"/>
<path d="M36.5788 103.989C37.4572 103.46 37.9629 102.481 37.882 101.458C37.8878 101.299 37.8126 101.146 37.6797 101.056C37.5757 101.013 37.4572 101.025 37.3648 101.085C37.2723 101.146 37.1943 101.227 37.1365 101.319C36.7204 102.024 36.5153 102.83 36.5413 103.648" fill="#EBEBEB"/>
<path d="M37.5386 107.02C37.894 106.749 38.2119 106.434 38.4835 106.081C38.81 105.685 38.9631 105.171 38.9053 104.662C38.8504 104.423 38.6568 104.171 38.4112 104.203C38.2523 104.243 38.1165 104.347 38.0327 104.489C37.6224 105.052 37.3681 105.717 37.2959 106.411" fill="#EBEBEB"/>
<path d="M38.1741 108.723C38.7086 108.338 39.1074 107.792 39.3125 107.165C39.379 106.983 39.4108 106.743 39.2576 106.625C39.1565 106.555 39.0236 106.547 38.9138 106.605C38.8069 106.662 38.7173 106.743 38.645 106.842C38.3156 107.289 38.0874 107.807 37.9805 108.353" fill="#EBEBEB"/>
<path d="M37.8684 107.989C36.9495 108.041 36.0596 107.671 35.447 106.983C35.3863 106.917 35.3372 106.839 35.3112 106.752C35.2852 106.666 35.3141 106.57 35.3834 106.51C35.4903 106.46 35.6146 106.466 35.7157 106.527C36.4005 106.813 37.0593 107.163 37.6806 107.57" fill="#EBEBEB"/>
<path d="M36.9781 105.402C36.6053 105.564 36.1834 105.567 35.8107 105.411C35.3975 105.27 35.0132 105.056 34.6751 104.775C34.522 104.671 34.3948 104.536 34.2995 104.38C34.2041 104.218 34.2099 104.016 34.311 103.859C34.4353 103.721 34.6289 103.66 34.8109 103.709C34.9872 103.758 35.1548 103.839 35.3021 103.952L36.9203 105.007" fill="#EBEBEB"/>
<path d="M36.2639 102.588C35.7438 102.571 35.2324 102.473 34.744 102.297C34.4753 102.21 34.2268 102.071 34.013 101.889C33.7963 101.704 33.6691 101.435 33.6605 101.149C33.6518 100.892 33.8252 100.664 34.0766 100.603C34.2037 100.597 34.3279 100.626 34.4377 100.684C35.1283 100.988 35.7265 101.467 36.1685 102.077" fill="#EBEBEB"/>
<path d="M35.8451 99.7739C34.7731 99.719 33.8398 99.0284 33.4728 98.02C33.4295 97.9102 33.4093 97.7946 33.415 97.6761C33.4208 97.5577 33.4873 97.4478 33.5913 97.39C33.7704 97.338 33.964 97.3901 34.0998 97.5201C34.8251 97.9766 35.4203 98.6152 35.8277 99.3694" fill="#EBEBEB"/>
<path d="M35.7407 97.9561C36.2146 97.5747 36.4718 96.5836 36.5469 95.737C36.57 95.5607 36.5642 95.3815 36.5238 95.2082C36.4833 95.0319 36.3649 94.8846 36.2002 94.8065C36.0152 94.743 35.8101 94.7776 35.6598 94.9019C35.5125 95.0261 35.4027 95.1908 35.342 95.3729C35.2033 95.8005 35.186 96.2571 35.2929 96.6934C35.4027 97.1268 35.5529 97.5487 35.7407 97.9561Z" fill="#EBEBEB"/>
<path d="M34.3838 110.095V112.135C34.3838 112.577 34.7421 112.938 35.1871 112.938H49.1347C49.5768 112.938 49.9379 112.58 49.9379 112.135V110.095H34.3838Z" fill="#EBEBEB"/>
<path d="M35.4141 112.936L35.7406 114.502L48.6104 113.586L48.726 112.936H35.4141Z" fill="#E0E0E0"/>
<path d="M57.3739 72.2946C57.5878 72.4911 57.8796 72.7685 58.1974 73.0835C58.5153 73.3955 58.7985 73.6845 58.9978 73.8954C59.1134 74.0023 59.2174 74.1237 59.307 74.2537C59.1741 74.167 59.0527 74.0659 58.9458 73.9503C58.732 73.7538 58.4402 73.4764 58.1252 73.1644C57.8102 72.8523 57.5271 72.5663 57.3248 72.3553C57.2063 72.2455 57.1023 72.1242 57.0156 71.9941C57.1457 72.0779 57.267 72.1791 57.3739 72.2946Z" fill="#E0E0E0"/>
<path d="M44.1388 72.3212C43.9423 72.535 43.662 72.8269 43.3499 73.1447C43.0379 73.4625 42.7489 73.7457 42.538 73.9451C42.4311 74.0607 42.3097 74.1647 42.1797 74.2543C42.2664 74.1214 42.3675 74 42.4831 73.8931C42.6796 73.6793 42.957 73.3874 43.269 73.0725C43.5811 72.7575 43.8672 72.4743 44.0781 72.2721C44.1879 72.1536 44.3092 72.0496 44.4393 71.9629C44.3555 72.0929 44.2543 72.2143 44.1388 72.3212Z" fill="#E0E0E0"/>
<path d="M67.7227 143.273C68.0058 143.365 70.1152 156.324 75.5358 162.225C80.9565 168.125 83.1757 162.225 83.1757 162.225C83.1757 162.225 77.9977 135.321 77.9428 135.344L67.7227 143.273Z" fill="#FFBE9D"/>
<path d="M38.0066 117.091C36.8768 117.383 35.7066 117.49 34.5421 117.406C33.3863 117.259 32.2219 116.663 31.696 115.623C31.3839 114.869 31.251 114.051 31.303 113.239C31.2423 106.744 31.433 100.26 31.8693 93.7843C32.1323 89.8835 32.4935 85.9567 33.5799 82.2003C34.6664 78.444 36.533 74.8321 39.4254 72.1998C42.3177 69.5675 46.3197 68.0129 50.1858 68.5879" fill="#263238"/>
<path d="M53.2061 119.824C53.7551 121.578 54.5641 123.297 55.8817 124.577C57.1993 125.857 59.0891 126.643 60.895 126.308C62.8685 125.944 64.4173 124.314 65.2321 122.479C66.0441 120.645 66.2434 118.607 66.4313 116.608C66.8531 112.118 67.275 107.627 67.6997 103.137C68.0812 99.0745 68.4655 94.983 68.0812 90.9203C67.7315 87.2247 66.7549 83.6215 65.7811 80.0385C65.1743 77.802 65.2552 74.4589 63.8134 72.6472C61.9583 70.3125 58.2829 69.4341 55.3327 69.8675" fill="#263238"/>
<path d="M67.1211 110.366C67.7423 109.144 68.2942 107.887 68.7738 106.601C69.5136 104.679 70.0481 102.683 70.3631 100.648C70.548 99.429 70.6173 98.1923 70.5711 96.9585C70.5711 96.6349 70.5278 96.3142 70.5046 95.9848C70.4815 95.6554 70.4353 95.3288 70.3891 94.9994C70.285 94.3406 70.155 93.6789 69.9845 93.023C69.3055 90.3907 68.2595 88.0733 67.384 85.9871C66.5749 84.1754 65.8872 82.3088 65.3267 80.4046C64.402 77.1597 64.6534 75.0273 64.4078 75.0013C64.3125 74.9868 64.116 75.504 64.0091 76.4894C63.8906 77.8821 63.9744 79.2864 64.2605 80.6531C64.6852 82.6584 65.2862 84.6233 66.0606 86.5217C66.8726 88.6541 67.8492 90.9426 68.482 93.4044C69.0801 95.7074 69.2362 98.1028 68.9472 100.466C68.7045 102.428 68.2971 104.364 67.7336 106.257C67.2684 107.895 66.835 109.216 66.5663 110.143C66.2976 111.068 66.1849 111.6 66.286 111.64C66.3813 111.68 66.6819 111.227 67.1211 110.366Z" fill="#263238"/>
<path d="M40.1772 113.593C40.3563 118.459 43.7341 122.574 48.6896 122.455C53.6278 122.331 56.8467 118.393 56.7571 113.538L56.1792 106.078C56.1792 106.055 56.1965 106.034 56.2196 106.031C56.8091 106.02 57.3957 105.948 57.9707 105.815C59.5917 105.254 63.6688 103.229 64.498 96.8862C64.7754 94.7826 64.6974 88.8938 64.4923 83.0455C64.2582 76.3737 58.8664 70.7565 52.0732 70.5947C44.8668 70.4213 39.0474 76.1252 39.1138 83.1206L40.1772 113.593Z" fill="#FFBE9D"/>
<path d="M56.3308 108.046C48.2807 108.988 46.417 103.449 46.417 103.449C51.8897 106.492 56.1777 106.038 56.1777 106.038L56.3308 108.046Z" fill="#EB996E"/>
<path d="M60.0022 86.4316C60.4983 86.8171 61.1046 87.0332 61.7357 87.0516C62.3724 87.0788 63.0001 86.9057 63.5334 86.5609C63.929 86.2908 64.0792 86.0318 64.0179 85.9633C63.892 85.8123 62.9855 86.4055 61.7782 86.3521C60.5691 86.3169 59.7412 85.6603 59.5961 85.8014C59.5239 85.8641 59.642 86.1319 60.0022 86.4316Z" fill="#263238"/>
<path d="M47.5176 86.3725C48.0556 86.8273 48.7129 87.1137 49.4094 87.2055C50.1182 87.3122 50.8428 87.2203 51.5019 86.941C51.9814 86.7241 52.1777 86.4824 52.1149 86.4101C51.9897 86.2436 50.8954 86.7184 49.5353 86.5178C48.1719 86.3316 47.3021 85.5772 47.1239 85.7003C47.0381 85.7508 47.1401 86.0335 47.5176 86.3725Z" fill="#263238"/>
<path d="M58.0189 93.8598C58.1973 93.857 58.3723 93.8336 58.5423 93.7859C58.771 93.72 58.9578 93.5564 59.0475 93.3336C59.1379 92.9245 59.0798 92.4935 58.8846 92.1218C58.6051 91.3707 58.3136 90.5827 58.0062 89.7591C56.732 86.4163 55.5915 83.7469 55.4552 83.797C55.319 83.8471 56.2431 86.5973 57.5147 89.939C57.8335 90.7582 58.1403 91.5404 58.4312 92.287C58.5925 92.5645 58.6636 92.881 58.6378 93.2018C58.5851 93.4126 58.2942 93.476 57.9862 93.5066C56.7703 93.6646 56.019 93.7953 56.0234 93.8637C56.033 93.9344 56.7924 93.9276 58.0189 93.8598Z" fill="#263238"/>
<path d="M47.2662 82.3427C48.7323 82.5398 50.2065 82.0506 51.2628 81.0146C51.6497 80.6078 51.7806 80.2641 51.6676 80.141C51.4209 79.8919 50.3899 80.5373 49.0311 80.9734C47.6787 81.4377 46.4666 81.5372 46.42 81.8836C46.404 82.0473 46.7145 82.2457 47.2662 82.3427Z" fill="#263238"/>
<path d="M59.5721 80.4457C59.9645 81.0002 60.5004 81.4382 61.1222 81.712C61.7373 82.008 62.4223 82.1326 63.1016 82.0712C63.6048 82.0073 63.8588 81.8134 63.8202 81.6443C63.7215 81.2902 62.7104 81.109 61.6458 80.6001C60.5671 80.1229 59.7771 79.4737 59.4397 79.6272C59.2867 79.7079 59.2982 80.0231 59.5721 80.4457Z" fill="#263238"/>
<path d="M55.0104 97.8988C54.7887 97.1957 54.3015 96.6053 53.6504 96.2552C52.9741 95.8908 52.1898 95.7757 51.4371 95.9311C50.8617 96.0578 50.568 96.2909 50.6037 96.367C50.6479 96.5449 51.9926 96.1405 53.2716 96.8429C54.5507 97.5454 54.7998 98.8336 54.9892 98.785C55.0831 98.773 55.1647 98.4264 55.0104 97.8988Z" fill="#263238"/>
<path d="M68.2336 147.852L79.4882 140.796C79.4882 140.796 79.0895 126.479 75.833 119.966C72.5766 113.453 67.1588 113.092 66.5664 112.944L68.2336 147.852Z" fill="#E8505B"/>
<path d="M56.5808 110.752C55.9942 112.104 55.1389 113.323 54.0698 114.337C49.6893 118.487 42.7719 118.299 38.6226 113.918L35.7158 110.85L25.3916 113.835L26.8161 165.343H70.5833L68.6964 147.867L72.1291 140.75L67.243 113.069L56.6501 110.584L56.5808 110.752Z" fill="#E8505B"/>
<path d="M30.4347 118.894C34.4251 123.878 33.5813 139.354 33.5813 139.354H16.8945C16.8945 139.354 17.8654 135.835 18.5473 126.742C19.2986 116.695 25.537 113.791 25.537 113.791C25.537 113.791 30.1053 118.484 30.4347 118.894Z" fill="#E8505B"/>
<path d="M62.0724 131.365H61.743L60.4571 131.347C59.3245 131.324 57.6774 131.292 55.5883 131.252C51.3957 131.159 45.426 131.024 38.3063 130.865L38.393 130.769C38.7455 133.841 39.124 137.164 39.5257 140.666C39.725 142.42 39.9302 144.211 40.1382 146.046C40.2422 146.962 40.3463 147.887 40.4561 148.82C40.511 149.285 40.563 149.756 40.6179 150.224C40.6554 150.692 40.7421 151.152 40.8779 151.603C41.0109 152.134 41.4009 152.568 41.9153 152.758C42.4556 152.868 43.0133 152.883 43.5565 152.799L46.8736 152.562L53.2652 152.108L64.8145 151.296L64.7394 151.389C63.9592 145.358 63.3091 140.357 62.8583 136.852C62.6387 135.109 62.4682 133.74 62.3469 132.798C62.292 132.335 62.2486 131.98 62.2197 131.732C62.1908 131.489 62.1851 131.365 62.1851 131.365C62.1851 131.365 62.2111 131.486 62.2457 131.726L62.3989 132.789C62.5289 133.728 62.7167 135.095 62.9565 136.837C63.4275 140.339 64.0979 145.338 64.907 151.366L64.9185 151.452L64.8318 151.458L53.2854 152.293C51.2165 152.441 49.0812 152.597 46.8939 152.753L43.5767 152.99C43.0075 153.076 42.4267 153.059 41.8604 152.94C41.5714 152.848 41.3143 152.678 41.1178 152.443C40.9299 152.212 40.7855 151.949 40.6959 151.663C40.5543 151.201 40.4647 150.727 40.4272 150.245C40.3723 149.774 40.3203 149.305 40.2654 148.837C40.1585 147.904 40.0544 146.979 39.9504 146.063C39.7424 144.229 39.5401 142.434 39.3407 140.683C38.9449 137.181 38.5692 133.858 38.2225 130.787L38.2109 130.688L38.3092 130.691L55.5912 131.151L60.4571 131.292L61.743 131.339L62.0724 131.353C62.1099 131.353 62.1475 131.356 62.1822 131.362C62.1475 131.368 62.1099 131.368 62.0724 131.365Z" fill="#FF735D"/>
<path d="M60.7046 141.53C61.3317 147.159 61.794 151.722 61.742 151.73C61.6871 151.736 61.1381 147.179 60.511 141.553C59.884 135.928 59.4217 131.362 59.4737 131.356C59.5257 131.348 60.0776 135.905 60.7046 141.53Z" fill="#FF735D"/>
<path d="M57.7427 141.275C58.3697 146.904 58.8321 151.467 58.7801 151.475C58.7252 151.481 58.1762 146.924 57.5491 141.299C56.9221 135.673 56.4598 131.107 56.5118 131.102C56.5638 131.093 57.1157 135.65 57.7427 141.275Z" fill="#FF735D"/>
<path d="M54.7779 141.53C55.4049 147.159 55.8701 151.722 55.8152 151.73C55.7603 151.736 55.2113 147.179 54.5843 141.553C53.9573 135.928 53.4949 131.362 53.547 131.356C53.6019 131.348 54.1509 135.905 54.7779 141.53Z" fill="#FF735D"/>
<path d="M51.8169 141.53C52.444 147.159 52.9092 151.722 52.8543 151.73C52.7994 151.739 52.2475 147.179 51.6233 141.553C50.9963 135.928 50.534 131.362 50.586 131.356C50.638 131.348 51.1899 135.905 51.8169 141.53Z" fill="#FF735D"/>
<path d="M48.5865 141.275C49.2135 146.904 49.6758 151.467 49.6238 151.475C49.5689 151.481 49.0199 146.924 48.3929 141.299C47.7659 135.673 47.3035 131.107 47.3556 131.102C47.4076 131.093 47.9595 135.65 48.5865 141.275Z" fill="#FF735D"/>
<path d="M45.5972 141.275C46.2242 146.904 46.6866 151.467 46.6345 151.475C46.5825 151.484 46.0278 146.924 45.4036 141.299C44.7766 135.673 44.3143 131.107 44.3663 131.102C44.4183 131.093 44.9702 135.65 45.5972 141.275Z" fill="#FF735D"/>
<path d="M43.1138 141.686C43.7408 147.314 44.2032 151.88 44.1512 151.886C44.0991 151.891 43.5472 147.335 42.9202 141.709C42.2932 136.083 41.8309 131.518 41.8829 131.512C41.9349 131.5 42.4868 136.057 43.1138 141.686Z" fill="#FF735D"/>
<path d="M68.5712 147.633C68.6723 147.477 68.7908 147.283 68.9237 147.055C69.0566 146.827 69.2156 146.572 69.3658 146.275C69.7357 145.593 70.0709 144.891 70.3714 144.174C71.1024 142.417 71.6052 140.574 71.8623 138.687C71.9664 137.918 72.0328 137.144 72.0588 136.367C72.0791 136.034 72.0675 135.737 72.0733 135.471C72.0791 135.205 72.0704 134.98 72.0646 134.795C72.0473 134.601 72.0502 134.408 72.0675 134.217C72.108 134.405 72.134 134.598 72.1397 134.792C72.16 134.977 72.1744 135.205 72.1831 135.471C72.1917 135.737 72.2091 136.037 72.1975 136.372C72.1918 137.155 72.1397 137.936 72.0415 138.713C71.8017 140.617 71.296 142.481 70.539 144.246C70.2298 144.966 69.8802 145.665 69.4872 146.344C69.3283 146.636 69.1578 146.887 69.0191 147.113C68.8804 147.338 68.7504 147.526 68.6377 147.676C68.5337 147.838 68.4152 147.991 68.2852 148.135C68.3603 147.956 68.4585 147.789 68.5712 147.633Z" fill="#263238"/>
<path d="M27.3664 114.843C27.6178 114.921 27.8634 115.019 28.1003 115.134C28.9845 115.545 29.7936 116.097 30.4928 116.773C30.9811 117.235 31.4203 117.747 31.8017 118.298C32.7437 119.633 33.3476 121.173 33.5672 122.792C33.677 123.673 33.7088 124.583 33.7406 125.519C33.8417 129.255 33.7695 132.636 33.7233 135.081C33.6915 136.286 33.6655 137.271 33.6452 137.976L33.6135 138.762C33.6135 138.854 33.6048 138.947 33.5903 139.036C33.5759 138.947 33.5701 138.854 33.5759 138.762C33.5759 138.562 33.573 138.302 33.5701 137.976C33.573 137.271 33.5788 136.288 33.5846 135.078C33.5961 132.633 33.6452 129.253 33.5441 125.525C33.5123 124.595 33.4834 123.682 33.3765 122.815C33.1656 121.226 32.579 119.709 31.6688 118.388C31.299 117.839 30.8713 117.33 30.3975 116.868C29.7127 116.192 28.9267 115.631 28.0656 115.201C27.8345 115.08 27.5946 114.973 27.349 114.877C27.2624 114.846 27.1786 114.808 27.0977 114.762C27.1901 114.782 27.2797 114.808 27.3664 114.843Z" fill="#263238"/>
<path d="M46.0213 79.7007C48.9281 77.7791 51.8378 75.8576 54.7446 73.9361C55.6259 73.3524 56.5881 72.6503 56.7413 71.6014C56.9349 70.278 55.7184 69.1685 54.4932 68.6281C50.8294 67.01 46.4373 68.1918 43.1375 70.4658C40.3347 72.3382 38.1792 75.0341 36.9656 78.1808C35.8705 81.1945 35.8387 84.4741 35.8214 87.6814C35.7809 95.0959 35.7376 102.51 35.6971 109.925C35.6798 112.777 35.6653 115.652 36.2432 118.446C36.8211 121.24 38.0434 123.976 40.1498 125.898C41.0889 126.82 42.2909 127.426 43.5912 127.637C44.9117 127.831 46.2322 127.288 47.0384 126.221C47.7636 125.149 47.7001 123.719 47.3533 122.471C47.0066 121.223 46.4056 120.052 46.1195 118.79C45.6341 116.64 46.0877 114.406 46.3015 112.213C46.8477 106.637 45.8334 101.045 45.2584 95.4715C44.6834 89.8977 44.5881 84.0638 46.8332 78.9292" fill="#263238"/>
<path d="M45.8423 117.66C46.5329 116.282 47.1252 114.857 47.6135 113.395C48.3648 111.202 48.8098 108.917 48.9427 106.602C49.0901 103.953 48.5931 101.075 47.8736 98.1967C47.157 95.3187 46.3537 92.6459 45.9492 90.1957C45.5591 88.0372 45.5013 85.8296 45.7758 83.6538C45.9781 82.1918 46.4144 80.7759 47.0761 79.4554C47.2032 79.2242 47.313 79.0191 47.4026 78.8342L47.6598 78.3834C47.7956 78.132 47.8476 77.9818 47.8071 77.9471C47.7667 77.9124 47.6338 77.9962 47.4142 78.1898C47.2784 78.3083 47.1483 78.4354 47.027 78.5654C46.8883 78.7273 46.7351 78.918 46.5589 79.1376C45.6429 80.4321 45.0101 81.9028 44.6951 83.4574C44.2415 85.7487 44.1866 88.1008 44.5333 90.4095C44.8801 93.0129 45.6602 95.7435 46.3653 98.5694C47.0703 101.398 47.5731 104.094 47.5095 106.559C47.4459 108.764 47.1252 110.957 46.5589 113.089C46.0821 114.93 45.5996 116.406 45.2817 117.435C44.961 118.464 44.8107 119.05 44.9119 119.093C45.013 119.131 45.3511 118.628 45.8423 117.66Z" fill="#263238"/>
<path d="M33.5826 82.703L34.2674 82.4603C34.565 82.3562 34.9291 82.2204 35.3452 82.0528C35.7613 81.8853 36.2409 81.7061 36.7582 81.4778C37.8013 81.0415 39.0264 80.4752 40.3614 79.8048C41.6934 79.1229 43.1324 78.3312 44.606 77.4297C46.0739 76.5224 47.4319 75.5919 48.6397 74.7077C49.8418 73.8178 50.8964 72.9798 51.7575 72.243C52.1938 71.8847 52.5695 71.5351 52.9075 71.2404C53.2456 70.9456 53.5288 70.6798 53.757 70.4602L54.2829 69.9574C54.3465 69.9025 54.4043 69.839 54.4592 69.7754C54.3898 69.8245 54.3234 69.8765 54.2627 69.9372L53.7166 70.4197C53.4825 70.6307 53.1936 70.8878 52.8526 71.1797C52.5117 71.4715 52.1303 71.8096 51.6882 72.165C50.8213 72.8874 49.7609 73.7167 48.5588 74.5979C47.3481 75.4706 45.993 76.3952 44.528 77.3025C43.0572 78.2011 41.6241 78.9986 40.2978 79.6835C38.9686 80.3596 37.7521 80.9346 36.7177 81.3825C36.2034 81.6165 35.7295 81.8043 35.3163 81.9777C34.9031 82.154 34.5448 82.2956 34.2501 82.4082C33.9669 82.5209 33.7415 82.6105 33.5739 82.677C33.493 82.7059 33.415 82.7405 33.3428 82.781C33.4208 82.7608 33.5046 82.7348 33.5826 82.703Z" fill="#455A64"/>
<path d="M33.6019 83.8552L34.333 83.7252L34.8618 83.627C35.0553 83.5865 35.2605 83.5345 35.483 83.4854C35.928 83.3785 36.4394 83.2716 36.9913 83.104C37.2687 83.026 37.5605 82.9422 37.8639 82.8555C38.1673 82.7688 38.4736 82.6532 38.7972 82.5492C39.4445 82.3469 40.1177 82.0724 40.8314 81.7979C43.9059 80.5526 46.7954 78.8853 49.4132 76.8482C50.0085 76.3686 50.5806 75.9236 51.0805 75.4642C51.3347 75.2388 51.5861 75.0278 51.8144 74.8082C52.0398 74.5886 52.2594 74.3806 52.4674 74.1783C52.8893 73.7854 53.2389 73.3953 53.5539 73.063C53.7099 72.8954 53.8602 72.7423 53.9902 72.5949L54.3398 72.1875L54.8166 71.6182C54.8744 71.5547 54.9293 71.4853 54.9755 71.4131C54.909 71.4709 54.8484 71.5316 54.7935 71.598L54.2936 72.147L53.9353 72.5458L53.4932 73.0023C53.1696 73.3259 52.82 73.7102 52.3923 74.0974L51.7364 74.7158C51.5081 74.9296 51.2538 75.1376 50.9996 75.3601C50.4968 75.8138 49.9247 76.2559 49.3294 76.7298C46.7116 78.7466 43.8365 80.4052 40.7794 81.6592C40.0715 81.9366 39.404 82.2111 38.7597 82.4221C38.4389 82.529 38.1355 82.6445 37.8321 82.737L36.9653 82.9942C36.4163 83.1675 35.9077 83.2802 35.4657 83.3958C35.2432 83.4507 35.038 83.5027 34.8473 83.5518L34.3243 83.6616C34.0209 83.7281 33.7782 83.7801 33.599 83.8206C33.5124 83.835 33.4286 83.8581 33.3477 83.887C33.4315 83.887 33.5181 83.8755 33.6019 83.8552Z" fill="#455A64"/>
<path d="M40.3009 122.427L40.2489 122.13C40.1998 121.867 40.1218 121.483 40.0467 120.983C39.8213 119.573 39.6681 118.151 39.5872 116.727C39.4745 114.923 39.4572 112.765 39.5266 110.375C39.5959 107.986 39.7462 105.356 39.8733 102.597C40.1305 97.0809 40.3645 92.0878 40.535 88.4615C40.613 86.6584 40.6737 85.1993 40.717 84.1764C40.7344 83.6794 40.7488 83.2864 40.7575 83.0119L40.7633 82.7085C40.7661 82.6738 40.7633 82.6392 40.7604 82.6045C40.7517 82.6392 40.7488 82.6738 40.7459 82.7085L40.7228 83.0119L40.6506 84.1764C40.5957 85.1964 40.5148 86.6585 40.4194 88.4586C40.2374 92.0849 39.9889 97.0751 39.7115 102.591C39.5815 105.351 39.4399 107.977 39.3763 110.373C39.3127 112.768 39.3416 114.929 39.4688 116.735C39.5583 118.163 39.7288 119.587 39.9773 120.994C40.0611 121.494 40.1507 121.878 40.2056 122.139L40.272 122.433C40.2778 122.468 40.2865 122.5 40.3009 122.531C40.3096 122.497 40.3067 122.462 40.3009 122.427Z" fill="#455A64"/>
<path d="M43.0818 105.523C43.0644 105.347 43.0442 105.107 43.0182 104.807C42.9604 104.168 42.8737 103.275 42.7726 102.174C42.5703 99.9524 42.3247 96.8809 42.1485 93.4829C41.9693 90.0819 41.8913 87.0017 41.8566 84.771C41.8422 83.6673 41.8335 82.7686 41.8248 82.1301C41.8191 81.8295 41.8162 81.5897 41.8133 81.4106C41.8162 81.3268 41.8104 81.243 41.7988 81.1592C41.7873 81.243 41.7815 81.3268 41.7815 81.4106L41.7642 82.1301C41.7497 82.7542 41.7439 83.6586 41.7468 84.7739C41.7526 87.0046 41.8133 90.0906 41.9924 93.4944C42.1716 96.8982 42.4345 99.9698 42.6628 102.189C42.7755 103.298 42.8766 104.197 42.9575 104.815C42.998 105.113 43.0269 105.35 43.05 105.529C43.0558 105.613 43.0702 105.697 43.0933 105.778C43.0933 105.691 43.0904 105.607 43.0818 105.523Z" fill="#455A64"/>
<path d="M62.8317 124.037C62.8317 124.037 62.4821 123.806 61.6181 123.979C60.7542 124.152 55.686 129.68 55.686 129.68L54.0852 130.209L57.4139 127.261C57.4139 127.261 58.9656 125.649 59.4279 124.785C59.8873 123.921 59.8324 123.231 58.9107 122.653C57.9889 122.075 56.313 124.265 56.313 124.265L52.8081 127.085L50.274 127.605L51.9441 126.915C52.9439 125.889 53.8685 124.791 54.7094 123.632C55.5733 122.306 54.6516 121.904 54.6516 121.904C54.6516 121.904 46.9915 125.36 46.3009 126.166C45.6103 126.972 41.1172 133.133 41.1172 133.133L48.0838 139.354C48.0838 139.354 50.7334 138.028 52.4613 137.106C53.7847 136.366 55.0706 135.56 56.313 134.69L60.3525 131.925L65.074 124.152C64.0944 122.367 62.8317 124.037 62.8317 124.037Z" fill="#FFBE9D"/>
<path d="M53.0835 133.587L54.5282 133.038L56.6664 132.211L57.9234 131.712L58.5793 131.434C58.692 131.388 58.796 131.333 58.9058 131.284C59.0011 131.226 59.0792 131.148 59.1398 131.056C60.339 129.478 61.3156 127.952 62.0264 126.863C62.3587 126.334 62.6361 125.895 62.85 125.557C62.9395 125.389 63.0435 125.23 63.1591 125.083C63.0956 125.262 63.0118 125.433 62.9164 125.597C62.7459 125.921 62.483 126.38 62.1449 126.941C61.4601 128.053 60.5066 129.585 59.2959 131.183C59.2179 131.295 59.1167 131.391 58.9983 131.46C58.8856 131.515 58.7729 131.57 58.6602 131.616C58.4348 131.714 58.2152 131.804 57.9956 131.894C57.5564 132.064 57.1345 132.229 56.73 132.385C55.9238 132.688 55.1899 132.954 54.5744 133.171C53.9214 133.437 53.2453 133.647 52.5547 133.795C52.5547 133.777 52.7396 133.72 53.0835 133.587Z" fill="#EB996E"/>
<path d="M52.0805 130.674C52.7624 130.46 53.4616 130.298 54.1696 130.186C53.5165 130.483 52.8317 130.711 52.1296 130.862C51.439 131.073 50.7195 131.174 50 131.159C49.9942 131.104 50.9391 130.966 52.0805 130.674Z" fill="#EB996E"/>
<path d="M47.0164 128.094C47.5018 128.013 48.1722 127.894 48.9119 127.756C49.799 127.545 50.7005 127.4 51.6107 127.319C51.3622 127.423 51.105 127.498 50.8392 127.542C50.3596 127.655 49.6921 127.805 48.9495 127.943C48.2069 128.082 47.5279 128.18 47.0337 128.227C46.7679 128.27 46.4992 128.279 46.2305 128.253C46.4876 128.172 46.7506 128.117 47.0164 128.094Z" fill="#EB996E"/>
<path d="M41.6989 132.345L30.9326 145.206L30.9153 139.355H18.2969C18.2969 139.355 18.554 155.582 18.8083 159.047C19.3082 165.929 23.4344 167.715 27.6704 168.082C31.9642 168.455 33.5823 166.952 35.3507 164.516C36.989 162.254 49.3676 138.618 49.3676 138.618L41.6989 132.345Z" fill="#FFBE9D"/>
<path d="M22.6922 159.555C22.695 159.443 22.6893 159.272 22.7095 159.055C22.7499 158.443 22.8366 157.833 22.9695 157.235C23.429 155.259 24.2236 153.372 25.3187 151.664C26.4312 149.974 27.7199 148.408 29.1646 146.989C29.6876 146.451 30.121 146.009 30.4418 145.674C30.592 145.507 30.7538 145.348 30.9243 145.203C30.8983 145.255 30.8636 145.304 30.8203 145.345L30.4967 145.723C30.2106 146.05 29.7859 146.512 29.2629 147.078C27.8557 148.514 26.5901 150.083 25.4834 151.762C24.3998 153.456 23.5966 155.313 23.1025 157.261C22.9609 157.853 22.854 158.451 22.7846 159.058C22.7702 159.281 22.7442 159.503 22.7037 159.726C22.695 159.674 22.6893 159.613 22.6922 159.555Z" fill="#EB996E"/>
<path d="M69.8713 64.467L73.6883 65.3425L75.708 57.6016L72.466 63.3285L68.7039 62.479L67.918 69.853L69.8713 64.467Z" fill="#E8505B"/>
<path d="M72.7336 69.1943L74.3979 71.2516L78.7032 67.9749L74.5886 69.6682L72.9416 67.6455L69.4453 71.2429L72.7336 69.1943Z" fill="#E8505B"/>
<path d="M28.217 70.68L25.3882 72.7084L21.0742 67.0508L25.7003 70.6366L28.4944 68.6487L31.67 74.4277L28.217 70.68Z" fill="#E8505B"/>
<path d="M23.1175 77.2796L22.5887 79.0885L18.8584 78.1205L22.0253 78.1002L22.5512 76.3203L25.8365 77.7217L23.1175 77.2796Z" fill="#E8505B"/>
<path d="M96.0634 116.518C95.4254 118.247 94.2722 126.153 94.2722 126.153C94.2722 126.153 87.8664 159.81 82.6146 163.104C77.3628 166.398 74.3938 157.918 75.04 153.998C75.6861 150.078 87.0333 124.296 87.0333 124.296L86.2093 121.716L96.0634 116.518Z" fill="#FFBE9D"/>
<path d="M97.0628 108C97.0096 107.25 96.3594 106.683 95.6095 106.736L85.6068 107.438C84.5875 107.508 83.6864 108.126 83.2525 109.055L75.641 125.38C75.4611 125.766 75.3861 126.193 75.4223 126.62C75.541 127.954 76.7176 128.939 78.0535 128.823L84.797 128.229C86.1809 128.107 87.4057 127.281 88.0406 126.044L96.9204 108.72C97.0299 108.497 97.0806 108.25 97.0628 108Z" fill="#4D5A64"/>
<path d="M92.3228 118.496C92.3228 118.496 92.5599 117.008 91.2509 117.653C89.6929 118.421 88.7354 119.493 87.7886 118.331C86.9093 117.252 88.6937 115.342 88.6937 115.342C87.5983 116.733 86.4602 116.658 86.0166 116.048C85.3325 115.114 86.6793 114.078 87.3512 113.427C88.0085 112.792 92.8129 112.621 92.8129 112.621C92.8129 112.621 92.3443 111.226 92.1491 110.801C91.9539 110.375 89.9585 111.067 89.0057 111.068C88.0542 111.072 87.3321 110.343 87.405 109.707C87.478 109.07 92.8812 108.515 93.7736 108.876C94.666 109.238 96.0597 116.521 96.0597 116.521L92.3228 118.496Z" fill="#FFBE9D"/>
<path d="M92.3805 114.721C91.1208 114.173 89.6621 114.382 88.6079 115.259C88.3774 115.414 88.1956 115.633 88.0852 115.889C88.3101 115.749 88.5276 115.593 88.7326 115.424C89.7776 114.698 91.1039 114.506 92.3079 114.914C92.552 115.02 92.8042 115.11 93.0595 115.179C92.8831 114.965 92.6458 114.804 92.3805 114.721Z" fill="#996552"/>
<path d="M77.1143 146.413C77.0738 146.517 77.0045 146.667 76.938 146.872C76.7386 147.442 76.5855 148.028 76.4786 148.62C76.1405 150.591 76.1434 152.605 76.4901 154.573C76.8629 156.538 77.4408 158.456 78.221 160.3C78.4955 160.987 78.7208 161.557 78.8884 161.984C78.9607 162.195 79.0474 162.4 79.1485 162.597C79.1427 162.539 79.1311 162.481 79.1109 162.429L78.9607 161.961C78.8249 161.554 78.6139 160.973 78.351 160.254C77.6142 158.407 77.0536 156.497 76.6809 154.544C76.3399 152.594 76.3168 150.6 76.6115 148.644C76.7069 148.054 76.8398 147.468 77.0103 146.895C77.0854 146.687 77.1461 146.476 77.1923 146.26C77.1547 146.306 77.1316 146.358 77.1143 146.413Z" fill="#EB996E"/>
<path d="M57.3601 58.5063C57.5566 58.2925 57.8339 58.0006 58.1489 57.6828C58.461 57.365 58.7499 57.0847 58.9608 56.8824C59.0678 56.7668 59.1891 56.6628 59.3191 56.5732C59.2325 56.7062 59.1313 56.8275 59.0157 56.9344C58.8193 57.1483 58.5419 57.4401 58.2298 57.755C57.9177 58.07 57.6317 58.3532 57.4208 58.5554C57.3138 58.6739 57.1896 58.7779 57.0596 58.8646C57.1434 58.7346 57.2445 58.6132 57.3601 58.5063Z" fill="#E0E0E0"/>
<path d="M144.785 94.5897C144.839 94.5261 144.178 93.8587 143.308 93.1016C142.438 92.3446 141.687 91.7782 141.632 91.8418C141.577 91.9054 142.239 92.5728 143.109 93.3298C143.978 94.0869 144.73 94.6533 144.785 94.5897Z" fill="#FAFAFA"/>
<path d="M146.876 89.2134L166.291 91.577C166.291 91.577 181.911 94.4174 185.052 106.117C187.222 114.196 191.709 129.247 194.278 137.786C195.388 141.47 193.718 145.42 190.305 147.194C186.384 149.234 181.55 147.708 179.51 143.784C179.423 143.62 179.345 143.452 179.27 143.282L170.781 123.743C170.781 123.743 167.787 130.568 167.961 133.795C168.131 137.023 174.875 148.887 174.875 148.887C160.535 157.111 145.963 156.073 134.627 150.93L135.168 120.05C135.168 120.05 129.831 147.601 119.024 145.504C109.966 143.744 115.93 126.086 119.024 119.333C122.971 110.72 128.12 98.4338 131.362 95.4691C140.054 87.5317 146.876 89.2134 146.876 89.2134Z" fill="#263238"/>
<g opacity="0.2">
<g opacity="0.2">
<g opacity="0.2">
<path opacity="0.2" d="M164.819 93.4782C165.992 95.3101 167.611 96.8098 169.243 98.2488C170.344 99.2167 171.491 100.185 172.858 100.714C174.225 101.242 175.877 101.262 177.068 100.404C178.258 99.5461 178.726 97.6825 177.799 96.5469C177.186 95.7956 176.178 95.5211 175.236 95.2899L165.805 92.9639" fill="black"/>
</g>
</g>
</g>
<path d="M189.578 129.466C189.633 129.417 188.561 128.489 186.906 128.07C185.253 127.64 183.869 127.937 183.892 128.007C183.898 128.102 185.247 127.949 186.83 128.365C188.417 128.764 189.526 129.547 189.578 129.466Z" fill="#2E353A"/>
<path d="M187.009 126.79C187.053 126.726 186.145 126.264 184.94 126.388C183.735 126.498 182.932 127.122 182.987 127.177C183.03 127.258 183.848 126.79 184.969 126.689C186.09 126.573 186.98 126.877 187.009 126.79Z" fill="#2E353A"/>
<g opacity="0.2">
<g opacity="0.2">
<g opacity="0.2">
<path opacity="0.2" d="M183.156 128.233C184.887 127.398 186.933 127.539 188.531 128.606C188.857 128.828 189.268 129.097 189.606 128.897C189.932 128.707 189.912 128.213 189.733 127.883C189.302 127.092 188.32 126.791 187.424 126.699C185.8 126.531 184.159 126.794 182.671 127.461" fill="black"/>
</g>
</g>
</g>
<g opacity="0.2">
<g opacity="0.2">
<g opacity="0.2">
<path opacity="0.2" d="M151.598 115.182C152.621 117.242 155.562 118.531 156.937 120.776C158.099 122.671 158.532 124.908 159.232 127.02C161.205 132.891 165.262 137.835 170.637 140.915C169.573 138.899 168.709 136.781 168.056 134.596C167.915 133.264 168.111 131.918 168.628 130.681C167.961 128.632 165.042 125.806 163.708 124.116C162.107 122.09 160.492 120.053 158.518 118.389C156.544 116.725 154.166 115.439 151.598 115.182Z" fill="black"/>
</g>
</g>
</g>
<path d="M127.598 128.556C127.555 128.559 127.575 129.194 127.636 130.22C127.688 131.243 127.804 132.656 127.74 134.208C127.63 137.334 126.42 139.646 126.535 139.683C126.555 139.692 126.636 139.553 126.766 139.299C126.951 138.935 127.113 138.562 127.255 138.178C127.72 136.909 127.986 135.574 128.043 134.222C128.078 132.878 128.015 131.535 127.85 130.203C127.734 129.18 127.639 128.553 127.598 128.556Z" fill="#2E353A"/>
<path d="M163.724 109.923L155.969 110.434L156.111 112.596L163.867 112.085L163.724 109.923Z" fill="#FAFAFA"/>
<path d="M126.956 97.0405C126.956 97.0405 132.42 93.7349 133.374 93.7638C133.978 93.7753 134.581 93.7118 135.171 93.576C135.171 93.576 138.303 92.5906 138.797 92.0098C139.291 91.429 140.855 90.9956 140.855 90.9956L143.215 87.7219L161.491 87.1699C161.491 87.1699 163.861 87.8345 164.56 88.3315C165.262 88.8285 166.467 92.1254 166.467 92.1254C166.467 92.1254 178.057 96.3527 180.264 98.4476" fill="#263238"/>
<path d="M159.915 98.2246C159.866 98.294 159.811 98.3546 159.747 98.4124L159.245 98.9267C158.808 99.3717 158.184 100.022 157.45 100.86C155.514 103.024 153.908 105.463 152.68 108.095L152.648 108.164L152.573 108.153L152.486 108.138L147.718 107.387L147.617 107.373L147.643 107.274C148.123 105.5 148.917 103.824 149.984 102.331C150.287 101.906 150.616 101.496 150.966 101.105C151.087 100.97 151.186 100.871 151.252 100.802C151.284 100.764 151.319 100.733 151.359 100.704C151.252 100.857 151.134 101.001 151.009 101.14C150.781 101.42 150.452 101.836 150.073 102.388C149.047 103.891 148.285 105.558 147.817 107.318L147.741 107.205L152.512 107.942L152.599 107.956L152.492 108.014C153.726 105.365 155.361 102.92 157.337 100.767C158.089 99.938 158.727 99.3024 159.181 98.8719C159.406 98.6551 159.588 98.4962 159.71 98.3835C159.779 98.3228 159.846 98.2708 159.915 98.2246Z" fill="#455A64"/>
<path d="M149.282 100.313C149.273 100.327 149.201 100.293 149.062 100.269C148.869 100.243 148.672 100.275 148.496 100.362C148.109 100.564 147.956 101.041 148.158 101.428C148.36 101.815 148.837 101.968 149.224 101.766C149.325 101.714 149.412 101.639 149.484 101.552C149.652 101.324 149.695 101.027 149.6 100.761C149.522 100.579 149.398 100.423 149.239 100.307C149.126 100.22 149.054 100.18 149.06 100.168C149.065 100.154 149.146 100.171 149.279 100.243C149.473 100.347 149.629 100.509 149.727 100.706C149.866 101.018 149.828 101.382 149.632 101.659C149.38 102.012 148.924 102.151 148.522 101.997C148.314 101.928 148.138 101.786 148.025 101.599C147.924 101.425 147.878 101.223 147.892 101.024C147.91 100.68 148.121 100.376 148.435 100.238C148.638 100.148 148.866 100.134 149.08 100.197C149.224 100.243 149.288 100.304 149.282 100.313Z" fill="#455A64"/>
<path d="M141.934 88.8203C141.908 88.8781 141.876 88.9359 141.836 88.985L141.532 89.4445C141.168 90.0224 140.85 90.6263 140.576 91.2533C140.168 92.2011 139.874 93.1951 139.706 94.215C139.478 95.4893 139.538 96.8011 139.885 98.0494L139.703 98.0436C140.05 97.1739 140.417 96.2521 140.795 95.3072C140.879 95.1049 140.949 94.8969 141.058 94.6918C141.159 94.4664 141.35 94.2931 141.584 94.2179C141.821 94.1717 142.067 94.2179 142.269 94.3508C142.451 94.4635 142.624 94.5935 142.786 94.7351C143.428 95.261 144.058 95.758 144.662 96.2232C145.872 97.1508 146.99 97.9511 147.944 98.6042C148.895 99.2572 149.681 99.7657 150.221 100.118L150.845 100.523C150.92 100.566 150.992 100.618 151.059 100.676C150.978 100.644 150.9 100.607 150.828 100.557C150.677 100.474 150.464 100.349 150.183 100.185C149.629 99.8553 148.831 99.3641 147.866 98.7226C146.901 98.084 145.774 97.2923 144.552 96.3706C143.942 95.9083 143.309 95.4141 142.665 94.8882C142.512 94.7524 142.347 94.6311 142.174 94.5242C142.018 94.4173 141.824 94.3768 141.636 94.4115C141.454 94.4751 141.31 94.6109 141.235 94.7872C141.139 94.9663 141.067 95.1772 140.983 95.3823C140.605 96.3272 140.235 97.2461 139.885 98.1159L139.784 98.3672L139.703 98.1072C139.351 96.83 139.296 95.4893 139.541 94.189C139.723 93.1604 140.033 92.1577 140.463 91.2041C140.749 90.5771 141.087 89.9761 141.477 89.4069C141.616 89.2104 141.734 89.0659 141.81 88.9648C141.844 88.9128 141.885 88.8637 141.934 88.8203Z" fill="#455A64"/>
<path d="M152.914 100.864C152.975 100.824 153.041 100.792 153.111 100.769L153.686 100.535L155.818 99.7029C157.621 99.0123 160.112 98.053 162.88 97.0417C163.732 96.7325 164.605 96.4927 165.495 96.3193C165.911 96.2384 166.336 96.2009 166.761 96.2009C166.966 96.2038 167.174 96.2298 167.373 96.2789C167.59 96.3165 167.783 96.4407 167.911 96.6198L167.746 96.6689C167.425 95.0624 167.153 93.7101 166.96 92.7306C166.873 92.2741 166.804 91.9042 166.752 91.621C166.642 91.6297 166.544 91.5459 166.538 91.4361C166.532 91.3263 166.613 91.2281 166.723 91.2223C166.833 91.2136 166.931 91.2974 166.937 91.4072C166.943 91.4968 166.891 91.5806 166.804 91.6123L167.058 92.7132L167.916 96.6372L168.02 97.1197L167.749 96.6863C167.636 96.5649 167.489 96.4811 167.327 96.4522C167.139 96.4089 166.948 96.3858 166.758 96.3858C166.344 96.3887 165.934 96.4291 165.53 96.5071C164.651 96.6805 163.787 96.9233 162.943 97.2267L155.867 99.8329C154.977 100.151 154.249 100.414 153.714 100.604L153.125 100.804C153.059 100.836 152.986 100.856 152.914 100.864Z" fill="#455A64"/>
<path d="M179.434 97.7967C179.056 97.4875 178.599 97.2853 178.114 97.2131C175.236 96.5427 172.21 97.1727 169.841 98.9381C168.94 99.6056 168.483 100.14 168.457 100.111C168.544 99.9725 168.651 99.8454 168.769 99.7298C169.075 99.4033 169.405 99.0999 169.757 98.8254C172.127 96.9617 175.233 96.3144 178.148 97.0744C178.559 97.1755 178.946 97.3575 179.287 97.6032C179.579 97.7361 179.44 97.7881 179.434 97.7967Z" fill="#455A64"/>
<path d="M134.598 110.645C134.707 108.547 134.95 106.458 135.329 104.392C135.476 103.601 135.609 102.962 135.719 102.523L135.846 102.02C135.857 101.959 135.875 101.902 135.904 101.847C135.907 101.907 135.901 101.968 135.886 102.029C135.86 102.167 135.831 102.338 135.797 102.54C135.713 102.982 135.6 103.624 135.47 104.415C135.135 106.481 134.913 108.565 134.8 110.657" fill="#455A64"/>
<path d="M135.352 100.846C135.289 100.872 134.942 99.4447 133.879 98.0346C132.833 96.6101 131.567 95.8674 131.61 95.8154C131.905 95.9339 132.18 96.0987 132.422 96.3009C133.656 97.2227 134.595 98.4824 135.121 99.9301C135.245 100.222 135.323 100.531 135.352 100.846Z" fill="#455A64"/>
<path d="M166.665 113.063C166.648 112.916 166.648 112.765 166.668 112.615C166.679 112.329 166.714 111.916 166.772 111.401C167.078 108.734 167.757 106.125 168.789 103.649C168.988 103.175 169.159 102.797 169.289 102.539C169.185 102.47 169.156 102.331 169.225 102.227C169.294 102.123 169.433 102.094 169.537 102.164C169.641 102.233 169.67 102.372 169.601 102.476C169.549 102.554 169.453 102.594 169.361 102.571C169.254 102.837 169.101 103.221 168.922 103.701C167.971 106.192 167.298 108.781 166.913 111.422C166.838 111.927 166.783 112.338 166.749 112.624C166.734 112.771 166.708 112.918 166.665 113.063Z" fill="#455A64"/>
<path d="M150.496 107.455C150.496 107.455 148.451 108.363 146.853 109.094C144.33 110.249 143.489 108.149 143.489 108.149L150.502 103.078C152.398 101.737 154.929 101.708 156.853 103.011C157.425 103.404 157.922 103.901 158.315 104.476L163.334 111.608L190.64 133.383C194.911 136.789 195.052 142.54 190.732 145.886C187.453 148.44 182.752 148.004 179.995 144.892L157.576 119.568L154.68 117.337L151.274 114.867C151.274 114.867 148.728 113.026 150.826 111.16C151.505 110.556 150.196 110.567 150.066 109.692C149.996 109.235 150.132 109.151 150.93 108.597C150.927 108.594 149.676 108.623 150.496 107.455Z" fill="#AA8776"/>
<path d="M150.567 108.052C150.605 108.078 150.767 107.881 151.036 107.586C151.362 107.199 151.775 106.896 152.243 106.708C152.711 106.555 153.223 106.624 153.63 106.899C153.937 107.118 154.003 107.375 154.055 107.358C154.087 107.361 154.098 107.052 153.769 106.734C153.321 106.35 152.706 106.228 152.145 106.422C151.622 106.624 151.174 106.985 150.865 107.453C150.631 107.791 150.536 108.028 150.567 108.052Z" fill="#996552"/>
<path d="M154.064 109.819C154.096 109.796 153.995 109.599 153.72 109.38C152.969 108.793 151.915 108.799 151.166 109.391C150.895 109.614 150.796 109.81 150.825 109.833C150.86 109.865 151.01 109.724 151.287 109.567C151.998 109.143 152.885 109.14 153.602 109.559C153.879 109.709 154.03 109.848 154.064 109.819Z" fill="#996552"/>
<path d="M154.064 111.88C154.096 111.857 153.995 111.661 153.72 111.441C152.969 110.855 151.915 110.86 151.166 111.453C150.895 111.675 150.796 111.872 150.825 111.895C150.86 111.927 151.01 111.785 151.287 111.629C151.998 111.204 152.885 111.201 153.602 111.62C153.879 111.774 154.03 111.912 154.064 111.88Z" fill="#996552"/>
<path d="M160.286 77.8413C161.185 75.1888 162.072 72.516 162.5 69.7508C162.927 66.9855 162.878 64.0931 161.936 61.4579C161.795 61.0591 160.567 58.3748 160.142 58.4095C159.838 58.4355 160.587 60.9378 160.431 61.195C158.943 63.6799 158.509 66.6821 158.709 69.5716C158.925 72.3773 159.454 75.1512 160.286 77.8413Z" fill="#263238"/>
<path d="M152.436 97.011C156.776 96.9735 160.292 93.4714 160.347 89.1314L160.685 67.1655C161 60.1498 157.178 54.1194 150.156 54.001L149.506 54.0269C142.97 54.2957 137.734 59.5401 137.477 66.0762C137.24 72.1586 137.052 78.8824 137.229 82.133C137.59 88.8627 144.366 89.6313 144.366 89.6313C144.38 89.6313 144.386 87.0365 144.38 89.0129C144.371 93.4223 147.94 97.0052 152.349 97.0139C152.381 97.011 152.41 97.011 152.436 97.011Z" fill="#B78876"/>
<path d="M144.371 89.6279C144.371 89.6279 148.624 89.703 153.031 86.6748C153.031 86.6748 151.095 91.6591 144.354 91.3297L144.371 89.6279Z" fill="#995037"/>
<path d="M140.062 70.2449C140.079 70.765 140.507 71.1812 141.03 71.1783C141.538 71.1985 141.966 70.7998 141.983 70.2941C141.983 70.2854 141.983 70.2796 141.983 70.271C141.966 69.7508 141.538 69.3377 141.018 69.3377C140.509 69.3174 140.082 69.7133 140.062 70.2219C140.062 70.2305 140.062 70.2391 140.062 70.2449Z" fill="#263238"/>
<path d="M139.036 68.8082C139.16 68.9296 139.865 68.3604 140.902 68.3199C141.934 68.265 142.717 68.7649 142.824 68.6348C142.876 68.577 142.746 68.3546 142.405 68.1292C141.945 67.8373 141.405 67.6958 140.859 67.7218C140.321 67.742 139.804 67.9328 139.379 68.2679C139.073 68.5222 138.975 68.7533 139.036 68.8082Z" fill="#263238"/>
<path d="M150.117 70.2449C150.135 70.765 150.562 71.1783 151.085 71.1754C151.594 71.1956 152.021 70.7997 152.039 70.2912C152.039 70.2825 152.039 70.2767 152.039 70.268C152.021 69.7479 151.594 69.3347 151.074 69.3347C150.565 69.3145 150.137 69.7133 150.117 70.2218C150.117 70.2305 150.117 70.2391 150.117 70.2449Z" fill="#263238"/>
<path d="M149.188 68.8082C149.312 68.9296 150.02 68.3604 151.054 68.3199C152.086 68.265 152.869 68.7649 152.976 68.6348C153.028 68.577 152.898 68.3546 152.557 68.1292C152.097 67.8373 151.557 67.6958 151.014 67.7218C150.476 67.742 149.959 67.9328 149.534 68.2679C149.228 68.5222 149.127 68.7533 149.188 68.8082Z" fill="#263238"/>
<path d="M145.804 76.9105C145.807 76.8527 145.16 76.766 144.111 76.6764C143.845 76.6591 143.594 76.6187 143.542 76.4396C143.507 76.1679 143.559 75.8906 143.686 75.6478C143.909 74.9977 144.14 74.3158 144.386 73.6049C145.354 70.6952 146.041 68.3085 145.923 68.271C145.807 68.2334 144.926 70.5594 143.961 73.4692C143.73 74.1857 143.507 74.8705 143.296 75.5235C143.143 75.8501 143.111 76.217 143.201 76.5667C143.288 76.7516 143.452 76.8874 143.652 76.9336C143.799 76.9683 143.952 76.9827 144.102 76.977C145.154 76.9914 145.804 76.9712 145.804 76.9105Z" fill="#263238"/>
<path d="M148.879 77.5012C148.711 77.4983 148.755 78.6223 147.827 79.4574C146.9 80.2953 145.698 80.2202 145.695 80.3762C145.683 80.4484 145.969 80.5843 146.478 80.5756C147.137 80.5583 147.766 80.3069 148.261 79.8705C148.732 79.4516 149.023 78.8621 149.07 78.2322C149.093 77.7641 148.954 77.4925 148.879 77.5012Z" fill="#263238"/>
<path d="M149.072 64.608C149.185 64.8854 150.214 64.7091 151.433 64.8045C152.655 64.8767 153.649 65.1917 153.8 64.9317C153.866 64.8074 153.684 64.5502 153.279 64.293C152.181 63.6602 150.852 63.5707 149.679 64.0446C149.237 64.244 149.023 64.4751 149.072 64.608Z" fill="#263238"/>
<path d="M139.314 65.3513C139.505 65.5796 140.21 65.3051 141.065 65.2589C141.921 65.1808 142.655 65.3513 142.811 65.097C142.88 64.9757 142.756 64.7445 142.429 64.5365C141.536 64.0279 140.424 64.1088 139.612 64.7387C139.32 64.993 139.228 65.2387 139.314 65.3513Z" fill="#263238"/>
<path d="M160.346 72.1706C160.458 72.1157 164.914 70.6103 164.957 75.219C165.001 79.8277 160.363 78.9205 160.354 78.7876C160.349 78.6575 160.346 72.1706 160.346 72.1706Z" fill="#B78876"/>
<path d="M161.75 77.0303C161.77 77.0158 161.831 77.0851 161.966 77.1458C162.157 77.2267 162.374 77.2296 162.567 77.1516C163.053 76.9696 163.454 76.1923 163.469 75.3601C163.478 74.9643 163.397 74.5742 163.235 74.213C163.145 73.9212 162.917 73.6929 162.625 73.6033C162.434 73.5542 162.235 73.6495 162.154 73.8287C162.093 73.9587 162.122 74.0512 162.099 74.057C162.088 74.0685 162.001 73.9818 162.036 73.7911C162.062 73.6755 162.122 73.5744 162.215 73.4992C162.342 73.401 162.501 73.3577 162.657 73.3779C163.041 73.4501 163.362 73.7189 163.504 74.0858C163.703 74.4846 163.804 74.9238 163.795 75.3688C163.775 76.2992 163.307 77.1718 162.642 77.3712C162.394 77.4463 162.122 77.403 161.906 77.2556C161.761 77.14 161.735 77.0389 161.75 77.0303Z" fill="#995037"/>
<path d="M140.459 58.4347C139.713 58.0244 141.95 55.6059 143.782 54.7737C146.553 53.5168 150.783 52.7395 153.337 53.4619C156.412 54.3316 158.969 55.8602 160.515 58.6601C162.061 61.46 162.641 64.7193 162.555 67.9151C162.529 68.8888 162.428 69.9059 161.907 70.7323C161.263 71.7523 160.029 72.3938 160.084 73.801C160.119 74.3153 159.948 74.821 159.607 75.2082C158.764 76.1069 157.732 75.2631 157.258 74.4193C156.244 72.6163 156.131 70.4608 156.042 68.3919C155.978 66.9211 155.918 65.4215 156.331 64.0086C156.556 63.24 156.917 62.5147 157.099 61.7345C157.281 60.9543 157.258 60.0702 156.77 59.4345C156.657 59.2958 156.533 59.1715 156.394 59.0559C155.085 57.9146 153.262 57.5679 151.627 58.1516C149.032 59.0704 144.599 60.4458 143.441 59.5645C141.773 58.2989 141.375 57.4725 141.375 57.4725L140.459 58.4347Z" fill="#263238"/>
<path d="M144.355 91.3282C144.355 91.3282 144.283 93.085 144.421 93.215C145.103 93.8594 150.821 98.4392 150.821 98.4392C150.821 98.4392 159.504 94.4777 159.984 93.7814C160.464 93.085 160.365 88.3145 160.365 88.3145L144.355 91.3282Z" fill="#B78876"/>
<path d="M133.254 89.8828C133.586 90.5561 133.309 91.3708 132.633 91.7031C131.959 92.0354 131.145 91.7581 130.812 91.0819C130.48 90.4087 130.757 89.5938 131.434 89.2615C132.107 88.9292 132.922 89.2067 133.254 89.8828Z" fill="#FAFAFA"/>
<path d="M130.601 101.608L128.673 103.694C128.673 103.694 128.032 133.225 126.908 137.235C125.784 141.246 119.205 147.987 115.674 142.532C112.143 137.076 120.97 102.249 120.97 102.249C120.97 102.249 123.377 94.2251 123.539 92.2979L130.601 101.608Z" fill="#AA8776"/>
<path d="M126.185 84.5045L126.945 104.904C127 106.361 127.797 107.687 129.06 108.418L135.203 111.972C136.42 112.674 137.974 112.261 138.679 111.044C138.904 110.657 139.02 110.218 139.02 109.77V90.8816C139.02 89.8096 138.439 88.8213 137.5 88.3012L128.306 83.2013C127.615 82.817 126.745 83.0655 126.364 83.7561C126.237 83.9843 126.173 84.2415 126.185 84.5045Z" fill="#4D5A64"/>
<path d="M123.543 92.3001C123.543 92.3001 128.094 85.9981 129.102 86.0501C130.111 86.1021 135 89.0263 134.786 89.662C134.572 90.2977 133.564 90.6704 132.659 90.2457C131.755 89.8209 130.163 88.2808 129.79 88.5987C129.417 88.9165 128.357 90.0319 128.357 90.0319C128.357 90.0319 132.85 92.3232 133.191 93.219C133.541 94.1349 134.358 95.7155 133.298 96.2991C132.607 96.6806 131.492 96.2472 131.067 94.4383C131.067 94.4383 131.917 97.0418 130.605 97.6803C129.192 98.368 128.756 96.9233 127.614 95.5016C126.655 94.3083 126.222 95.8282 126.222 95.8282L123.543 92.3001Z" fill="#AA8776"/>
<path d="M126.993 92.3545C127.268 92.4007 127.545 92.4267 127.826 92.4354C129.152 92.5828 130.328 93.3513 130.998 94.5042C131.117 94.7585 131.252 95.0012 131.406 95.2353C131.44 95.2266 131.411 94.8944 131.186 94.406C130.571 93.1058 129.279 92.2591 127.84 92.2216C127.303 92.21 126.985 92.3169 126.993 92.3545Z" fill="#996552"/>
<path d="M30.8618 14.2801C32.2661 13.2255 33.8437 12.61 35.5976 12.6071C39.1662 12.6013 41.7003 14.3119 43.3386 17.4268C43.4426 17.6233 43.5524 17.6984 43.7662 17.7215C46.1587 18.0018 48.2189 18.9842 49.8573 20.7497C51.9348 22.9891 52.715 25.6474 52.0533 28.6409C51.4638 31.3195 49.8284 33.2497 47.4619 34.5817C47.277 34.6857 47.2365 34.7955 47.2221 34.9978C47.1556 35.8589 47.1469 36.7402 46.9562 37.5752C45.8987 42.236 41.1368 45.374 36.45 44.5562C35.4821 44.3886 34.5661 44.0853 33.6877 43.6547C30.9109 46.917 27.3886 48.4079 23.1497 47.9456C18.8819 47.4804 15.7873 45.2295 13.8658 41.3576C13.7531 41.3836 13.6288 41.4125 13.5075 41.4414C11.6871 41.8661 9.86093 41.8777 8.07812 41.3171C3.71787 39.9504 1.06532 36.9858 0.201361 32.5099C-0.942878 26.5836 2.90593 20.8277 8.78893 19.5563C9.04321 19.5014 9.14723 19.3859 9.2108 19.1403C9.82915 16.8142 11.0976 14.8956 12.944 13.3757C17.8475 9.3391 25.0481 9.53848 29.732 13.8265C29.9863 14.0605 30.2001 14.3408 30.437 14.6038C30.6277 14.4622 30.7433 14.3697 30.8618 14.2801ZM7.89608 40.2682C9.8696 40.9328 11.8634 40.9473 13.8629 40.3578C14.3194 40.222 14.4928 40.3 14.6691 40.7103C16.1774 44.1806 18.8415 46.2466 22.5198 46.8938C26.2675 47.5555 29.5586 46.5182 32.269 43.7934C32.5435 43.516 32.7833 43.204 33.026 42.8977C33.341 42.5018 33.497 42.4585 33.942 42.7012C35.3549 43.4669 36.8632 43.7876 38.4669 43.7038C43.0323 43.464 46.6557 39.3031 46.2599 34.7464C46.2136 34.2032 46.2512 34.1425 46.7482 33.8825C48.8662 32.7787 50.3658 31.1374 51.0275 28.8201C51.9377 25.6272 50.7241 22.3187 47.9733 20.3336C46.5922 19.3367 45.0521 18.7675 43.3588 18.6317C42.963 18.5999 42.7578 18.4294 42.6018 18.0856C41.7263 16.1612 40.3393 14.7338 38.3369 14.0114C35.6323 13.0377 33.1734 13.5578 30.9889 15.4041C30.4775 15.8347 30.3445 15.8318 29.8967 15.3377C27.3135 12.4887 24.0657 11.2317 20.266 11.4715C16.9142 11.6825 14.12 13.0897 11.9847 15.7162C11.0081 16.9182 10.3666 18.2908 10.0256 19.802C9.9245 20.2469 9.8436 20.325 9.40728 20.3972C5.00948 21.134 1.5652 24.7632 1.05376 29.2044C1.00464 29.6349 0.984411 30.0683 0.967075 30.2937C0.99019 34.9949 3.72654 38.8639 7.89608 40.2682Z" fill="#6D6D6D"/>
<path d="M33.6069 50.6938C34.8899 48.1713 38.3919 47.4807 40.6111 49.3097C42.5297 50.8903 42.703 53.6093 40.9954 55.3314C39.5593 56.782 37.2477 57.1431 35.462 56.1607C34.0288 55.3719 33.2428 54.1525 33.1764 52.5026C33.1648 51.8583 33.318 51.2601 33.6069 50.6938ZM35.8838 55.3025C37.2968 56.1058 39.201 55.8082 40.3337 54.6408C41.7351 53.1961 41.4288 50.9278 39.6806 49.8009C38.1694 48.8272 36.0659 49.1219 34.8841 50.4771C34.3871 51.0463 34.1213 51.7658 34.1328 52.7771C34.1733 53.7827 34.809 54.6928 35.8838 55.3025Z" fill="#6D6D6D"/>
<path d="M45.7166 63.5865C43.8529 63.5865 42.3388 62.1331 42.3359 60.3474C42.3331 58.5299 43.8443 57.0996 45.7658 57.0967C47.589 57.0967 49.0974 58.5703 49.0974 60.3503C49.0974 62.1331 47.5804 63.5865 45.7166 63.5865ZM43.2866 60.3503C43.2866 61.5927 44.3759 62.6214 45.6993 62.6272C47.0458 62.633 48.1409 61.6101 48.1438 60.3503C48.1438 59.0644 47.0805 58.0473 45.734 58.0444C44.3586 58.0415 43.2866 59.0558 43.2866 60.3503Z" fill="#6D6D6D"/>
<path d="M32.4605 20.5756L13.6201 25.584L16.1009 34.9162L34.9413 29.9078L32.4605 20.5756Z" fill="#92E3A9"/>
<path opacity="0.5" d="M34.9175 29.9425L32.421 20.6152L13.5469 25.6083L16.0434 34.9356L34.9175 29.9425ZM14.5033 26.1255L31.9067 21.537L33.9987 29.4311L16.5953 34.0572L14.5033 26.1255Z" fill="black"/>
<path opacity="0.5" d="M17.2943 32.4767L19.6088 31.8526C19.866 31.7803 20.1231 31.9248 20.1954 32.182C20.2676 32.4391 20.1231 32.6963 19.866 32.7685L17.5515 33.3927C17.2943 33.4649 17.0372 33.3204 16.9649 33.0633C16.8898 32.8061 17.0372 32.5489 17.2943 32.4767Z" fill="black"/>
<path opacity="0.5" d="M28.6384 22.7452L30.9529 22.1211C31.21 22.0489 31.4672 22.1933 31.5394 22.4505C31.6117 22.7077 31.4672 22.9648 31.21 23.0371L28.8955 23.6612C28.6384 23.7334 28.3812 23.589 28.309 23.3318C28.1992 23.0775 28.3812 22.8204 28.6384 22.7452Z" fill="black"/>
<path d="M32.4605 20.5756L13.6201 25.584L16.1009 34.9162L34.9413 29.9078L32.4605 20.5756Z" stroke="#263238" stroke-width="0.4" stroke-miterlimit="3.9999" stroke-linecap="round" stroke-linejoin="round"/>
<path d="M23.1343 25.1445C21.6289 25.7687 20.9325 27.5312 21.5566 29.0367C22.1808 30.5421 23.9434 31.2385 25.4488 30.6143C26.9542 29.9902 27.6506 28.2276 27.0264 26.7222C26.4023 25.2168 24.6397 24.5204 23.1343 25.1445Z" fill="#5E936D"/>
<path d="M26.3611 28.6698C26.3987 28.8172 26.3235 28.9646 26.1762 29.0368L25.2227 29.4413C25.4076 29.2564 25.5174 29.0021 25.5521 28.745L25.9566 28.56C26.1415 28.5225 26.2889 28.56 26.3611 28.6698Z" fill="#92E3A9"/>
<path d="M26.2495 27.3844C26.287 27.5318 26.2119 27.6791 26.0645 27.7514L25.5502 27.971C25.5126 27.8612 25.5126 27.786 25.478 27.7138C25.4404 27.6416 25.4057 27.604 25.3682 27.5289L25.8449 27.3093C25.9923 27.2024 26.1772 27.237 26.2495 27.3844Z" fill="#92E3A9"/>
<path d="M25.992 26.0639C26.0296 26.2113 25.9545 26.3586 25.8071 26.4309L24.8883 26.8354C24.7033 26.688 24.4837 26.6158 24.2266 26.5782L25.5846 25.9917C25.6222 25.9917 25.6569 25.9541 25.6944 25.9541H25.732C25.7695 25.9541 25.8042 25.9541 25.8418 25.9917C25.9198 25.9541 25.9574 25.9888 25.992 26.0639Z" fill="#92E3A9"/>
<path d="M23.571 28.6699L23.756 29.0745C23.6086 29.1467 23.4988 29.2218 23.389 29.2941C23.2792 29.1467 23.2041 29.0369 23.1318 28.8895L23.571 28.6699Z" fill="#92E3A9"/>
<path d="M25.0383 28.0459C25.1105 28.2655 25.1481 28.4851 25.0759 28.7423C24.9661 28.7423 24.8187 28.7423 24.7089 28.7423C24.6713 28.5573 24.6367 28.4129 24.5615 28.2279L25.0383 28.0459Z" fill="#92E3A9"/>
<path d="M24.9268 27.7507L24.4876 27.9356C24.4154 27.7883 24.3403 27.6409 24.2305 27.4964C24.3403 27.4242 24.4154 27.3491 24.4876 27.2393C24.6697 27.3462 24.817 27.5311 24.9268 27.7507Z" fill="#92E3A9"/>
<path d="M23.8987 29.2939L24.1183 29.8458C24.0807 29.8458 24.0085 29.8458 23.9709 29.8083C23.8611 29.7707 23.786 29.6985 23.7138 29.6234C23.6762 29.5858 23.604 29.5135 23.5664 29.476C23.6415 29.4413 23.7513 29.3662 23.8987 29.2939Z" fill="#92E3A9"/>
<path d="M24.1934 27.0897C24.1212 27.1619 24.0461 27.2371 23.9738 27.3093C23.9363 27.2371 23.864 27.1995 23.7889 27.1244C23.7513 27.0868 23.7167 27.0521 23.6415 27.0146C23.6415 27.0146 23.604 27.0146 23.604 26.977L23.5664 26.9395C23.6762 26.9395 23.7513 26.9395 23.8611 26.9395C23.8987 26.9395 23.9334 26.977 24.0085 26.977C24.0461 26.977 24.0807 27.0146 24.1183 27.0146C24.1559 27.055 24.1934 27.055 24.1934 27.0897Z" fill="#92E3A9"/>
<path d="M24.4852 29.1094C24.4852 29.1816 24.4852 29.2567 24.4852 29.329C24.4852 29.4388 24.4476 29.5486 24.4129 29.6237C24.3754 29.6613 24.3754 29.6959 24.3407 29.7335L24.1211 29.1816C24.228 29.1845 24.3754 29.1469 24.4852 29.1094Z" fill="#92E3A9"/>
<path d="M23.7511 29.9553C23.6789 29.9553 23.6037 29.9553 23.5662 29.9553C23.4564 29.9553 23.3466 29.9178 23.2368 29.8831C23.2368 29.8831 23.1992 29.8831 23.1992 29.8455C23.1992 29.8455 23.1992 29.808 23.2368 29.808C23.309 29.7357 23.3466 29.6982 23.4217 29.623C23.4593 29.6953 23.5315 29.7328 23.6066 29.808C23.6037 29.8426 23.6789 29.9178 23.7511 29.9553Z" fill="#92E3A9"/>
<path d="M22.9794 27.1641L23.199 27.716C23.0892 27.7535 22.9418 27.7882 22.832 27.8258C22.832 27.7535 22.832 27.6784 22.832 27.6062C22.832 27.4964 22.8696 27.3866 22.9043 27.3114C22.9447 27.2363 22.9447 27.2016 22.9794 27.1641Z" fill="#92E3A9"/>
<path d="M23.3118 27.9707L23.4967 28.3752L23.0575 28.5602C22.9853 28.4128 22.9477 28.2654 22.9102 28.0834C23.0171 28.0834 23.1644 28.0458 23.3118 27.9707Z" fill="#92E3A9"/>
<path d="M24.3054 28.3379C24.3776 28.4853 24.4152 28.6326 24.4527 28.8147C24.3054 28.8522 24.158 28.8869 24.0482 28.9245L23.8633 28.5199L24.3054 28.3379Z" fill="#92E3A9"/>
<path d="M25.0369 29.0371V29.0747C24.9993 29.1469 24.9647 29.2596 24.9271 29.3318C24.8895 29.4041 24.8173 29.4792 24.7422 29.5514C24.7422 29.5139 24.7422 29.5139 24.7798 29.4792C24.7798 29.407 24.7798 29.3694 24.8173 29.2943C24.8173 29.222 24.8173 29.1093 24.8173 29.0371C24.852 29.0371 24.9618 29.0371 25.0369 29.0371Z" fill="#92E3A9"/>
<path d="M22.6526 27.3467C22.615 27.4189 22.615 27.5316 22.615 27.6038C22.615 27.6761 22.615 27.7888 22.615 27.861C22.5052 27.861 22.4301 27.861 22.3203 27.861C22.3203 27.861 22.3203 27.861 22.3203 27.8234C22.3203 27.8234 22.3203 27.8234 22.3203 27.7859C22.3954 27.6414 22.5052 27.494 22.6526 27.3467Z" fill="#92E3A9"/>
<path d="M24.1954 28.0837L23.7562 28.2687L23.5713 27.8641C23.7187 27.7919 23.8285 27.7168 23.9383 27.6445C24.0481 27.789 24.1203 27.9364 24.1954 28.0837Z" fill="#92E3A9"/>
<path d="M23.7902 27.4216C23.6804 27.4939 23.5706 27.569 23.4608 27.6066L23.2412 27.0547C23.2788 27.0547 23.351 27.0547 23.3886 27.0922C23.4984 27.1298 23.5735 27.202 23.6457 27.2772C23.6804 27.3118 23.7526 27.3465 23.7902 27.4216Z" fill="#92E3A9"/>
<path d="M156.365 36.329C156.365 38.3517 155.446 40.227 153.863 41.481C153.215 41.9867 152.794 42.6512 152.664 43.3649L152.617 43.3563H146.997L146.931 43.3649C146.801 42.6252 146.416 41.978 145.862 41.5677C143.819 40.0218 142.865 37.4935 143.388 34.945C143.903 32.4629 145.917 30.4402 148.399 29.923C150.375 29.5012 152.398 29.9895 153.935 31.2349C155.487 32.4889 156.365 34.3439 156.365 36.329Z" fill="#FFC107"/>
<path d="M149.808 29.7725C149.343 29.7725 148.872 29.8216 148.404 29.9227C145.922 30.437 143.908 32.4626 143.393 34.9447C142.867 37.4932 143.824 40.0215 145.867 41.5674C146.418 41.9806 146.803 42.6249 146.936 43.3646L147.002 43.356H149.814L149.808 29.7725Z" fill="#DEA806"/>
<path d="M155.962 30.8762C155.783 30.8762 155.603 30.8069 155.465 30.6711C155.19 30.3966 155.19 29.9516 155.465 29.6771L156.762 28.3797C157.037 28.1052 157.482 28.1052 157.756 28.3797C158.031 28.6542 158.031 29.0992 157.756 29.3737L156.459 30.6711C156.323 30.8069 156.141 30.8762 155.962 30.8762Z" fill="#FFC107"/>
<path d="M160.344 37.0312H158.512C158.125 37.0312 157.81 36.7163 157.81 36.3291C157.81 35.9419 158.125 35.627 158.512 35.627H160.344C160.731 35.627 161.046 35.9419 161.046 36.3291C161.046 36.7163 160.731 37.0312 160.344 37.0312Z" fill="#FFC107"/>
<path d="M157.259 44.4827C157.08 44.4827 156.901 44.4133 156.762 44.2775L155.465 42.9801C155.19 42.7056 155.19 42.2607 155.465 41.9861C155.739 41.7116 156.184 41.7116 156.459 41.9861L157.756 43.2835C158.031 43.558 158.031 44.003 157.756 44.2775C157.617 44.4133 157.438 44.4827 157.259 44.4827Z" fill="#FFC107"/>
<path d="M152.663 43.3652C152.635 43.5241 152.617 43.683 152.617 43.8535V45.9339C152.617 46.8325 151.877 47.5723 150.979 47.5723H148.635C147.85 47.5723 146.997 46.9741 146.997 45.6623V44.0037C146.997 43.787 146.98 43.5732 146.931 43.368L146.997 43.3594H152.617L152.663 43.3652Z" fill="#607D8B"/>
<path d="M149.805 43.3535H146.993L146.927 43.3622C146.973 43.5673 146.993 43.7841 146.993 43.9979V45.6564C146.993 46.9683 147.846 47.5664 148.632 47.5664H149.802V43.3535H149.805Z" fill="#546D79"/>
<path d="M149.805 28.3251C149.417 28.3251 149.103 28.0101 149.103 27.6229V25.791C149.103 25.4038 149.417 25.0889 149.805 25.0889C150.192 25.0889 150.507 25.4038 150.507 25.791V27.6229C150.507 28.0101 150.192 28.3251 149.805 28.3251Z" fill="#FFC107"/>
<path d="M149.805 25.0859C149.417 25.0859 149.103 25.4009 149.103 25.7881V27.62C149.103 28.0072 149.417 28.3222 149.805 28.3222V25.0859Z" fill="#DEA806"/>
<path d="M143.654 30.8762C143.474 30.8762 143.295 30.8069 143.157 30.6711L141.859 29.3737C141.585 29.0992 141.585 28.6542 141.859 28.3797C142.134 28.1052 142.579 28.1052 142.853 28.3797L144.151 29.6771C144.425 29.9516 144.425 30.3966 144.151 30.6711C144.012 30.8069 143.833 30.8762 143.654 30.8762Z" fill="#FFC107"/>
<path d="M141.859 28.3799C141.585 28.6544 141.585 29.0994 141.859 29.3739L143.157 30.6713C143.295 30.8071 143.474 30.8764 143.654 30.8764C143.833 30.8764 144.012 30.8071 144.151 30.6713L141.859 28.3799Z" fill="#DEA806"/>
<path d="M141.1 37.0312H139.269C138.881 37.0312 138.566 36.7163 138.566 36.3291C138.566 35.9419 138.881 35.627 139.269 35.627H141.1C141.488 35.627 141.803 35.9419 141.803 36.3291C141.803 36.7163 141.488 37.0312 141.1 37.0312Z" fill="#FFC107"/>
<path d="M141.803 36.3291H138.563C138.563 36.7163 138.878 37.0312 139.266 37.0312H141.098C141.488 37.0312 141.803 36.7163 141.803 36.3291Z" fill="#DEA806"/>
<path d="M142.356 44.4836C142.177 44.4836 141.998 44.4143 141.859 44.2785C141.585 44.004 141.585 43.559 141.859 43.2845L143.157 41.9871C143.431 41.7126 143.876 41.7126 144.151 41.9871C144.425 42.2616 144.425 42.7066 144.151 42.9811L142.853 44.2785C142.714 44.4143 142.535 44.4836 142.356 44.4836Z" fill="#FFC107"/>
<path d="M144.146 41.9863L141.857 44.2748C141.993 44.4106 142.175 44.48 142.354 44.48C142.534 44.48 142.713 44.4106 142.851 44.2748L144.149 42.9774C144.42 42.7058 144.42 42.2608 144.146 41.9863Z" fill="#DEA806"/>
<path d="M153.319 36.7971C152.931 36.7971 152.616 36.4822 152.616 36.095C152.616 34.6734 151.461 33.5176 150.039 33.5176C149.652 33.5176 149.337 33.2026 149.337 32.8154C149.337 32.4282 149.652 32.1133 150.039 32.1133C152.235 32.1133 154.021 33.899 154.021 36.095C154.021 36.4822 153.706 36.7971 153.319 36.7971Z" fill="#FFD54F"/>
<path d="M149.559 32.8125C149.487 32.8125 149.412 32.8125 149.337 32.8154C149.337 33.2026 149.652 33.5175 150.039 33.5175C151.461 33.5175 152.616 34.6733 152.616 36.095C152.616 36.4822 152.931 36.7971 153.319 36.7971C153.709 36.7971 153.842 32.8125 149.559 32.8125Z" fill="#DEB945"/>
</svg>
