<svg width="563" height="75" viewBox="0 0 563 75" fill="none" xmlns="http://www.w3.org/2000/svg">
<path d="M65.3877 34.9297C64.1012 34.5599 63.1637 34.1068 62.5752 33.5703C61.9919 33.0286 61.7002 32.362 61.7002 31.5703C61.7002 30.6745 62.057 29.9349 62.7705 29.3516C63.4893 28.763 64.4215 28.4688 65.5674 28.4688C66.3486 28.4688 67.0439 28.6198 67.6533 28.9219C68.2679 29.224 68.7419 29.6406 69.0752 30.1719C69.4137 30.7031 69.583 31.2839 69.583 31.9141H68.0752C68.0752 31.2266 67.8564 30.6875 67.4189 30.2969C66.9814 29.901 66.3643 29.7031 65.5674 29.7031C64.8278 29.7031 64.2497 29.8672 63.833 30.1953C63.4215 30.5182 63.2158 30.9688 63.2158 31.5469C63.2158 32.0104 63.4111 32.4036 63.8018 32.7266C64.1976 33.0443 64.8669 33.3359 65.8096 33.6016C66.7575 33.8672 67.4971 34.1615 68.0283 34.4844C68.5648 34.8021 68.9606 35.1745 69.2158 35.6016C69.4762 36.0286 69.6064 36.5312 69.6064 37.1094C69.6064 38.0312 69.2471 38.7708 68.5283 39.3281C67.8096 39.8802 66.8486 40.1562 65.6455 40.1562C64.8643 40.1562 64.1351 40.0078 63.458 39.7109C62.7809 39.4089 62.2575 38.9974 61.8877 38.4766C61.5231 37.9557 61.3408 37.3646 61.3408 36.7031H62.8486C62.8486 37.3906 63.1012 37.9349 63.6064 38.3359C64.1169 38.7318 64.7965 38.9297 65.6455 38.9297C66.4372 38.9297 67.0439 38.7682 67.4658 38.4453C67.8877 38.1224 68.0986 37.6823 68.0986 37.125C68.0986 36.5677 67.9033 36.138 67.5127 35.8359C67.1221 35.5286 66.4137 35.2266 65.3877 34.9297ZM72.7549 32.5703C73.3955 31.7839 74.2288 31.3906 75.2549 31.3906C77.0413 31.3906 77.9424 32.3984 77.958 34.4141V40H76.5127V34.4062C76.5075 33.7969 76.3669 33.3464 76.0908 33.0547C75.82 32.763 75.3955 32.6172 74.8174 32.6172C74.3486 32.6172 73.9372 32.7422 73.583 32.9922C73.2288 33.2422 72.9528 33.5703 72.7549 33.9766V40H71.3096V28H72.7549V32.5703ZM85.3408 40C85.2575 39.8333 85.1898 39.5365 85.1377 39.1094C84.4658 39.8073 83.6637 40.1562 82.7314 40.1562C81.8981 40.1562 81.2132 39.9219 80.6768 39.4531C80.1455 38.9792 79.8799 38.3802 79.8799 37.6562C79.8799 36.776 80.2132 36.0938 80.8799 35.6094C81.5518 35.1198 82.4945 34.875 83.708 34.875H85.1143V34.2109C85.1143 33.7057 84.9632 33.3047 84.6611 33.0078C84.359 32.7057 83.9137 32.5547 83.3252 32.5547C82.8096 32.5547 82.3773 32.6849 82.0283 32.9453C81.6794 33.2057 81.5049 33.5208 81.5049 33.8906H80.0518C80.0518 33.4688 80.2002 33.0625 80.4971 32.6719C80.7992 32.276 81.2054 31.9635 81.7158 31.7344C82.2314 31.5052 82.7965 31.3906 83.4111 31.3906C84.3851 31.3906 85.1481 31.6354 85.7002 32.125C86.2523 32.6094 86.5387 33.2786 86.5596 34.1328V38.0234C86.5596 38.7995 86.6585 39.4167 86.8564 39.875V40H85.3408ZM82.9424 38.8984C83.3955 38.8984 83.8252 38.7812 84.2314 38.5469C84.6377 38.3125 84.932 38.0078 85.1143 37.6328V35.8984H83.9814C82.2106 35.8984 81.3252 36.4167 81.3252 37.4531C81.3252 37.9062 81.4762 38.2604 81.7783 38.5156C82.0804 38.7708 82.4684 38.8984 82.9424 38.8984ZM91.1846 36.0859L90.2783 37.0312V40H88.833V28H90.2783V35.2578L91.0518 34.3281L93.6846 31.5469H95.4424L92.1533 35.0781L95.8252 40H94.1299L91.1846 36.0859ZM100.286 40.1562C99.1403 40.1562 98.208 39.7812 97.4893 39.0312C96.7705 38.276 96.4111 37.2682 96.4111 36.0078V35.7422C96.4111 34.9036 96.57 34.1562 96.8877 33.5C97.2106 32.8385 97.6585 32.3229 98.2314 31.9531C98.8096 31.5781 99.4346 31.3906 100.106 31.3906C101.205 31.3906 102.06 31.7526 102.669 32.4766C103.278 33.2005 103.583 34.237 103.583 35.5859V36.1875H97.8564C97.8773 37.0208 98.1195 37.6953 98.583 38.2109C99.0518 38.7214 99.6455 38.9766 100.364 38.9766C100.875 38.9766 101.307 38.8724 101.661 38.6641C102.015 38.4557 102.325 38.1797 102.591 37.8359L103.474 38.5234C102.765 39.612 101.703 40.1562 100.286 40.1562ZM100.106 32.5781C99.5231 32.5781 99.0335 32.7917 98.6377 33.2188C98.2419 33.6406 97.9971 34.2344 97.9033 35H102.138V34.8906C102.096 34.1562 101.898 33.5885 101.544 33.1875C101.19 32.7812 100.711 32.5781 100.106 32.5781ZM111.997 37.8828L113.966 31.5469H115.513L112.114 41.3047C111.588 42.7109 110.752 43.4141 109.606 43.4141L109.333 43.3906L108.794 43.2891V42.1172L109.185 42.1484C109.674 42.1484 110.054 42.0495 110.325 41.8516C110.601 41.6536 110.828 41.2917 111.005 40.7656L111.325 39.9062L108.31 31.5469H109.888L111.997 37.8828ZM116.302 35.6953C116.302 34.8672 116.463 34.1224 116.786 33.4609C117.114 32.7995 117.567 32.2891 118.146 31.9297C118.729 31.5703 119.393 31.3906 120.138 31.3906C121.289 31.3906 122.218 31.7891 122.927 32.5859C123.64 33.3828 123.997 34.4427 123.997 35.7656V35.8672C123.997 36.6901 123.838 37.4297 123.521 38.0859C123.208 38.737 122.757 39.2448 122.169 39.6094C121.586 39.974 120.914 40.1562 120.153 40.1562C119.007 40.1562 118.078 39.7578 117.364 38.9609C116.656 38.1641 116.302 37.1094 116.302 35.7969V35.6953ZM117.755 35.8672C117.755 36.8047 117.971 37.5573 118.403 38.125C118.841 38.6927 119.424 38.9766 120.153 38.9766C120.888 38.9766 121.471 38.6901 121.903 38.1172C122.336 37.5391 122.552 36.7318 122.552 35.6953C122.552 34.7682 122.33 34.0182 121.888 33.4453C121.45 32.8672 120.867 32.5781 120.138 32.5781C119.424 32.5781 118.849 32.862 118.411 33.4297C117.974 33.9974 117.755 34.8099 117.755 35.8672ZM131.028 39.1641C130.466 39.8255 129.64 40.1562 128.552 40.1562C127.651 40.1562 126.963 39.8958 126.489 39.375C126.021 38.849 125.784 38.0729 125.778 37.0469V31.5469H127.224V37.0078C127.224 38.2891 127.744 38.9297 128.786 38.9297C129.89 38.9297 130.625 38.5182 130.989 37.6953V31.5469H132.435V40H131.06L131.028 39.1641ZM138.724 32.8438C138.505 32.8073 138.268 32.7891 138.013 32.7891C137.065 32.7891 136.422 33.1927 136.083 34V40H134.638V31.5469H136.044L136.067 32.5234C136.541 31.7682 137.213 31.3906 138.083 31.3906C138.364 31.3906 138.578 31.4271 138.724 31.5V32.8438ZM145.388 31.5469L145.427 32.4844C146.047 31.7552 146.882 31.3906 147.935 31.3906C149.117 31.3906 149.922 31.8438 150.349 32.75C150.63 32.3438 150.994 32.0156 151.442 31.7656C151.896 31.5156 152.429 31.3906 153.044 31.3906C154.898 31.3906 155.841 32.3724 155.872 34.3359V40H154.427V34.4219C154.427 33.8177 154.289 33.3672 154.013 33.0703C153.737 32.7682 153.273 32.6172 152.622 32.6172C152.086 32.6172 151.64 32.7786 151.286 33.1016C150.932 33.4193 150.726 33.849 150.669 34.3906V40H149.216V34.4609C149.216 33.2318 148.614 32.6172 147.411 32.6172C146.463 32.6172 145.815 33.0208 145.466 33.8281V40H144.021V31.5469H145.388ZM157.677 35.6953C157.677 34.8672 157.838 34.1224 158.161 33.4609C158.489 32.7995 158.942 32.2891 159.521 31.9297C160.104 31.5703 160.768 31.3906 161.513 31.3906C162.664 31.3906 163.593 31.7891 164.302 32.5859C165.015 33.3828 165.372 34.4427 165.372 35.7656V35.8672C165.372 36.6901 165.213 37.4297 164.896 38.0859C164.583 38.737 164.132 39.2448 163.544 39.6094C162.961 39.974 162.289 40.1562 161.528 40.1562C160.382 40.1562 159.453 39.7578 158.739 38.9609C158.031 38.1641 157.677 37.1094 157.677 35.7969V35.6953ZM159.13 35.8672C159.13 36.8047 159.346 37.5573 159.778 38.125C160.216 38.6927 160.799 38.9766 161.528 38.9766C162.263 38.9766 162.846 38.6901 163.278 38.1172C163.711 37.5391 163.927 36.7318 163.927 35.6953C163.927 34.7682 163.705 34.0182 163.263 33.4453C162.825 32.8672 162.242 32.5781 161.513 32.5781C160.799 32.5781 160.224 32.862 159.786 33.4297C159.349 33.9974 159.13 34.8099 159.13 35.8672ZM174.341 35.8672C174.341 37.1589 174.044 38.1979 173.45 38.9844C172.856 39.7656 172.06 40.1562 171.06 40.1562C169.992 40.1562 169.166 39.7786 168.583 39.0234L168.513 40H167.185V28H168.63V32.4766C169.213 31.7526 170.018 31.3906 171.044 31.3906C172.07 31.3906 172.875 31.7786 173.458 32.5547C174.047 33.3307 174.341 34.3932 174.341 35.7422V35.8672ZM172.896 35.7031C172.896 34.7188 172.705 33.9583 172.325 33.4219C171.945 32.8854 171.398 32.6172 170.685 32.6172C169.731 32.6172 169.047 33.0599 168.63 33.9453V37.6016C169.073 38.487 169.763 38.9297 170.7 38.9297C171.393 38.9297 171.932 38.6615 172.317 38.125C172.703 37.5885 172.896 36.7812 172.896 35.7031ZM177.739 40H176.294V31.5469H177.739V40ZM176.177 29.3047C176.177 29.0703 176.247 28.8724 176.388 28.7109C176.534 28.5495 176.747 28.4688 177.028 28.4688C177.31 28.4688 177.523 28.5495 177.669 28.7109C177.815 28.8724 177.888 29.0703 177.888 29.3047C177.888 29.5391 177.815 29.7344 177.669 29.8906C177.523 30.0469 177.31 30.125 177.028 30.125C176.747 30.125 176.534 30.0469 176.388 29.8906C176.247 29.7344 176.177 29.5391 176.177 29.3047ZM181.63 40H180.185V28H181.63V40ZM187.458 40.1562C186.312 40.1562 185.38 39.7812 184.661 39.0312C183.942 38.276 183.583 37.2682 183.583 36.0078V35.7422C183.583 34.9036 183.742 34.1562 184.06 33.5C184.382 32.8385 184.83 32.3229 185.403 31.9531C185.981 31.5781 186.606 31.3906 187.278 31.3906C188.377 31.3906 189.231 31.7526 189.841 32.4766C190.45 33.2005 190.755 34.237 190.755 35.5859V36.1875H185.028C185.049 37.0208 185.291 37.6953 185.755 38.2109C186.224 38.7214 186.817 38.9766 187.536 38.9766C188.047 38.9766 188.479 38.8724 188.833 38.6641C189.187 38.4557 189.497 38.1797 189.763 37.8359L190.646 38.5234C189.937 39.612 188.875 40.1562 187.458 40.1562ZM187.278 32.5781C186.695 32.5781 186.205 32.7917 185.81 33.2188C185.414 33.6406 185.169 34.2344 185.075 35H189.31V34.8906C189.268 34.1562 189.07 33.5885 188.716 33.1875C188.362 32.7812 187.882 32.5781 187.278 32.5781ZM201.622 40C201.539 39.8333 201.471 39.5365 201.419 39.1094C200.747 39.8073 199.945 40.1562 199.013 40.1562C198.179 40.1562 197.494 39.9219 196.958 39.4531C196.427 38.9792 196.161 38.3802 196.161 37.6562C196.161 36.776 196.494 36.0938 197.161 35.6094C197.833 35.1198 198.776 34.875 199.989 34.875H201.396V34.2109C201.396 33.7057 201.244 33.3047 200.942 33.0078C200.64 32.7057 200.195 32.5547 199.606 32.5547C199.091 32.5547 198.659 32.6849 198.31 32.9453C197.961 33.2057 197.786 33.5208 197.786 33.8906H196.333C196.333 33.4688 196.481 33.0625 196.778 32.6719C197.08 32.276 197.487 31.9635 197.997 31.7344C198.513 31.5052 199.078 31.3906 199.692 31.3906C200.666 31.3906 201.429 31.6354 201.981 32.125C202.534 32.6094 202.82 33.2786 202.841 34.1328V38.0234C202.841 38.7995 202.94 39.4167 203.138 39.875V40H201.622ZM199.224 38.8984C199.677 38.8984 200.106 38.7812 200.513 38.5469C200.919 38.3125 201.213 38.0078 201.396 37.6328V35.8984H200.263C198.492 35.8984 197.606 36.4167 197.606 37.4531C197.606 37.9062 197.757 38.2604 198.06 38.5156C198.362 38.7708 198.75 38.8984 199.224 38.8984ZM206.474 31.5469L206.521 32.6094C207.166 31.7969 208.01 31.3906 209.052 31.3906C210.838 31.3906 211.739 32.3984 211.755 34.4141V40H210.31V34.4062C210.304 33.7969 210.164 33.3464 209.888 33.0547C209.617 32.763 209.192 32.6172 208.614 32.6172C208.146 32.6172 207.734 32.7422 207.38 32.9922C207.026 33.2422 206.75 33.5703 206.552 33.9766V40H205.106V31.5469H206.474ZM213.583 35.7031C213.583 34.4062 213.89 33.3646 214.505 32.5781C215.119 31.7865 215.924 31.3906 216.919 31.3906C217.909 31.3906 218.692 31.7292 219.271 32.4062V28H220.716V40H219.388L219.317 39.0938C218.739 39.8021 217.935 40.1562 216.903 40.1562C215.924 40.1562 215.125 39.7552 214.505 38.9531C213.89 38.151 213.583 37.1042 213.583 35.8125V35.7031ZM215.028 35.8672C215.028 36.8255 215.226 37.5755 215.622 38.1172C216.018 38.6589 216.565 38.9297 217.263 38.9297C218.179 38.9297 218.849 38.5182 219.271 37.6953V33.8125C218.838 33.0156 218.174 32.6172 217.278 32.6172C216.57 32.6172 216.018 32.8906 215.622 33.4375C215.226 33.9844 215.028 34.7943 215.028 35.8672ZM230.325 38.9766C230.841 38.9766 231.291 38.8203 231.677 38.5078C232.062 38.1953 232.276 37.8047 232.317 37.3359H233.685C233.659 37.8203 233.492 38.2812 233.185 38.7188C232.877 39.1562 232.466 39.5052 231.95 39.7656C231.44 40.026 230.898 40.1562 230.325 40.1562C229.174 40.1562 228.257 39.7734 227.575 39.0078C226.898 38.237 226.56 37.1849 226.56 35.8516V35.6094C226.56 34.7865 226.711 34.0547 227.013 33.4141C227.315 32.7734 227.747 32.276 228.31 31.9219C228.877 31.5677 229.547 31.3906 230.317 31.3906C231.265 31.3906 232.052 31.6745 232.677 32.2422C233.307 32.8099 233.643 33.5469 233.685 34.4531H232.317C232.276 33.9062 232.067 33.4583 231.692 33.1094C231.323 32.7552 230.864 32.5781 230.317 32.5781C229.583 32.5781 229.013 32.8438 228.606 33.375C228.205 33.901 228.005 34.6641 228.005 35.6641V35.9375C228.005 36.9115 228.205 37.6615 228.606 38.1875C229.007 38.7135 229.58 38.9766 230.325 38.9766ZM236.755 32.5703C237.396 31.7839 238.229 31.3906 239.255 31.3906C241.041 31.3906 241.942 32.3984 241.958 34.4141V40H240.513V34.4062C240.507 33.7969 240.367 33.3464 240.091 33.0547C239.82 32.763 239.396 32.6172 238.817 32.6172C238.349 32.6172 237.937 32.7422 237.583 32.9922C237.229 33.2422 236.953 33.5703 236.755 33.9766V40H235.31V28H236.755V32.5703ZM243.739 35.6953C243.739 34.8672 243.901 34.1224 244.224 33.4609C244.552 32.7995 245.005 32.2891 245.583 31.9297C246.166 31.5703 246.83 31.3906 247.575 31.3906C248.726 31.3906 249.656 31.7891 250.364 32.5859C251.078 33.3828 251.435 34.4427 251.435 35.7656V35.8672C251.435 36.6901 251.276 37.4297 250.958 38.0859C250.646 38.737 250.195 39.2448 249.606 39.6094C249.023 39.974 248.351 40.1562 247.591 40.1562C246.445 40.1562 245.515 39.7578 244.802 38.9609C244.093 38.1641 243.739 37.1094 243.739 35.7969V35.6953ZM245.192 35.8672C245.192 36.8047 245.409 37.5573 245.841 38.125C246.278 38.6927 246.862 38.9766 247.591 38.9766C248.325 38.9766 248.909 38.6901 249.341 38.1172C249.773 37.5391 249.989 36.7318 249.989 35.6953C249.989 34.7682 249.768 34.0182 249.325 33.4453C248.888 32.8672 248.304 32.5781 247.575 32.5781C246.862 32.5781 246.286 32.862 245.849 33.4297C245.411 33.9974 245.192 34.8099 245.192 35.8672ZM252.864 35.6953C252.864 34.8672 253.026 34.1224 253.349 33.4609C253.677 32.7995 254.13 32.2891 254.708 31.9297C255.291 31.5703 255.955 31.3906 256.7 31.3906C257.851 31.3906 258.781 31.7891 259.489 32.5859C260.203 33.3828 260.56 34.4427 260.56 35.7656V35.8672C260.56 36.6901 260.401 37.4297 260.083 38.0859C259.771 38.737 259.32 39.2448 258.731 39.6094C258.148 39.974 257.476 40.1562 256.716 40.1562C255.57 40.1562 254.64 39.7578 253.927 38.9609C253.218 38.1641 252.864 37.1094 252.864 35.7969V35.6953ZM254.317 35.8672C254.317 36.8047 254.534 37.5573 254.966 38.125C255.403 38.6927 255.987 38.9766 256.716 38.9766C257.45 38.9766 258.034 38.6901 258.466 38.1172C258.898 37.5391 259.114 36.7318 259.114 35.6953C259.114 34.7682 258.893 34.0182 258.45 33.4453C258.013 32.8672 257.429 32.5781 256.7 32.5781C255.987 32.5781 255.411 32.862 254.974 33.4297C254.536 33.9974 254.317 34.8099 254.317 35.8672ZM267.294 37.7578C267.294 37.3672 267.146 37.0651 266.849 36.8516C266.557 36.6328 266.044 36.4453 265.31 36.2891C264.58 36.1328 264 35.9453 263.567 35.7266C263.14 35.5078 262.823 35.2474 262.614 34.9453C262.411 34.6432 262.31 34.2839 262.31 33.8672C262.31 33.1745 262.601 32.5885 263.185 32.1094C263.773 31.6302 264.523 31.3906 265.435 31.3906C266.393 31.3906 267.169 31.638 267.763 32.1328C268.362 32.6276 268.661 33.2604 268.661 34.0312H267.208C267.208 33.6354 267.039 33.2943 266.7 33.0078C266.367 32.7214 265.945 32.5781 265.435 32.5781C264.909 32.5781 264.497 32.6927 264.2 32.9219C263.903 33.151 263.755 33.4505 263.755 33.8203C263.755 34.1693 263.893 34.4323 264.169 34.6094C264.445 34.7865 264.942 34.9557 265.661 35.1172C266.385 35.2786 266.971 35.4714 267.419 35.6953C267.867 35.9193 268.198 36.1901 268.411 36.5078C268.63 36.8203 268.739 37.2031 268.739 37.6562C268.739 38.4115 268.437 39.0182 267.833 39.4766C267.229 39.9297 266.445 40.1562 265.481 40.1562C264.804 40.1562 264.205 40.0365 263.685 39.7969C263.164 39.5573 262.755 39.224 262.458 38.7969C262.166 38.3646 262.021 37.8984 262.021 37.3984H263.466C263.492 37.8828 263.685 38.2682 264.044 38.5547C264.409 38.8359 264.888 38.9766 265.481 38.9766C266.028 38.9766 266.466 38.8672 266.794 38.6484C267.127 38.4245 267.294 38.1276 267.294 37.7578ZM274.13 40.1562C272.984 40.1562 272.052 39.7812 271.333 39.0312C270.614 38.276 270.255 37.2682 270.255 36.0078V35.7422C270.255 34.9036 270.414 34.1562 270.731 33.5C271.054 32.8385 271.502 32.3229 272.075 31.9531C272.653 31.5781 273.278 31.3906 273.95 31.3906C275.049 31.3906 275.903 31.7526 276.513 32.4766C277.122 33.2005 277.427 34.237 277.427 35.5859V36.1875H271.7C271.721 37.0208 271.963 37.6953 272.427 38.2109C272.896 38.7214 273.489 38.9766 274.208 38.9766C274.718 38.9766 275.151 38.8724 275.505 38.6641C275.859 38.4557 276.169 38.1797 276.435 37.8359L277.317 38.5234C276.609 39.612 275.547 40.1562 274.13 40.1562ZM273.95 32.5781C273.367 32.5781 272.877 32.7917 272.481 33.2188C272.086 33.6406 271.841 34.2344 271.747 35H275.981V34.8906C275.94 34.1562 275.742 33.5885 275.388 33.1875C275.034 32.7812 274.554 32.5781 273.95 32.5781ZM285.036 29.5V31.5469H286.614V32.6641H285.036V37.9062C285.036 38.2448 285.106 38.5 285.247 38.6719C285.388 38.8385 285.627 38.9219 285.966 38.9219C286.132 38.9219 286.362 38.8906 286.653 38.8281V40C286.273 40.1042 285.903 40.1562 285.544 40.1562C284.898 40.1562 284.411 39.9609 284.083 39.5703C283.755 39.1797 283.591 38.625 283.591 37.9062V32.6641H282.052V31.5469H283.591V29.5H285.036ZM289.755 32.5703C290.396 31.7839 291.229 31.3906 292.255 31.3906C294.041 31.3906 294.942 32.3984 294.958 34.4141V40H293.513V34.4062C293.507 33.7969 293.367 33.3464 293.091 33.0547C292.82 32.763 292.396 32.6172 291.817 32.6172C291.349 32.6172 290.937 32.7422 290.583 32.9922C290.229 33.2422 289.953 33.5703 289.755 33.9766V40H288.31V28H289.755V32.5703ZM300.63 40.1562C299.484 40.1562 298.552 39.7812 297.833 39.0312C297.114 38.276 296.755 37.2682 296.755 36.0078V35.7422C296.755 34.9036 296.914 34.1562 297.231 33.5C297.554 32.8385 298.002 32.3229 298.575 31.9531C299.153 31.5781 299.778 31.3906 300.45 31.3906C301.549 31.3906 302.403 31.7526 303.013 32.4766C303.622 33.2005 303.927 34.237 303.927 35.5859V36.1875H298.2C298.221 37.0208 298.463 37.6953 298.927 38.2109C299.396 38.7214 299.989 38.9766 300.708 38.9766C301.218 38.9766 301.651 38.8724 302.005 38.6641C302.359 38.4557 302.669 38.1797 302.935 37.8359L303.817 38.5234C303.109 39.612 302.047 40.1562 300.63 40.1562ZM300.45 32.5781C299.867 32.5781 299.377 32.7917 298.981 33.2188C298.586 33.6406 298.341 34.2344 298.247 35H302.481V34.8906C302.44 34.1562 302.242 33.5885 301.888 33.1875C301.534 32.7812 301.054 32.5781 300.45 32.5781ZM309.192 35.6953C309.192 34.8672 309.354 34.1224 309.677 33.4609C310.005 32.7995 310.458 32.2891 311.036 31.9297C311.619 31.5703 312.284 31.3906 313.028 31.3906C314.179 31.3906 315.109 31.7891 315.817 32.5859C316.531 33.3828 316.888 34.4427 316.888 35.7656V35.8672C316.888 36.6901 316.729 37.4297 316.411 38.0859C316.099 38.737 315.648 39.2448 315.06 39.6094C314.476 39.974 313.804 40.1562 313.044 40.1562C311.898 40.1562 310.968 39.7578 310.255 38.9609C309.547 38.1641 309.192 37.1094 309.192 35.7969V35.6953ZM310.646 35.8672C310.646 36.8047 310.862 37.5573 311.294 38.125C311.731 38.6927 312.315 38.9766 313.044 38.9766C313.778 38.9766 314.362 38.6901 314.794 38.1172C315.226 37.5391 315.442 36.7318 315.442 35.6953C315.442 34.7682 315.221 34.0182 314.778 33.4453C314.341 32.8672 313.757 32.5781 313.028 32.5781C312.315 32.5781 311.739 32.862 311.302 33.4297C310.864 33.9974 310.646 34.8099 310.646 35.8672ZM325.841 35.8672C325.841 37.1536 325.547 38.1901 324.958 38.9766C324.369 39.763 323.573 40.1562 322.567 40.1562C321.541 40.1562 320.734 39.8307 320.146 39.1797V43.25H318.7V31.5469H320.021L320.091 32.4844C320.679 31.7552 321.497 31.3906 322.544 31.3906C323.56 31.3906 324.362 31.7734 324.95 32.5391C325.544 33.3047 325.841 34.3698 325.841 35.7344V35.8672ZM324.396 35.7031C324.396 34.75 324.192 33.9974 323.786 33.4453C323.38 32.8932 322.823 32.6172 322.114 32.6172C321.239 32.6172 320.583 33.0052 320.146 33.7812V37.8203C320.578 38.5911 321.239 38.9766 322.13 38.9766C322.823 38.9766 323.372 38.7031 323.778 38.1562C324.19 37.6042 324.396 36.7865 324.396 35.7031ZM329.646 29.5V31.5469H331.224V32.6641H329.646V37.9062C329.646 38.2448 329.716 38.5 329.856 38.6719C329.997 38.8385 330.237 38.9219 330.575 38.9219C330.742 38.9219 330.971 38.8906 331.263 38.8281V40C330.882 40.1042 330.513 40.1562 330.153 40.1562C329.507 40.1562 329.021 39.9609 328.692 39.5703C328.364 39.1797 328.2 38.625 328.2 37.9062V32.6641H326.661V31.5469H328.2V29.5H329.646ZM334.489 40H333.044V31.5469H334.489V40ZM332.927 29.3047C332.927 29.0703 332.997 28.8724 333.138 28.7109C333.284 28.5495 333.497 28.4688 333.778 28.4688C334.06 28.4688 334.273 28.5495 334.419 28.7109C334.565 28.8724 334.638 29.0703 334.638 29.3047C334.638 29.5391 334.565 29.7344 334.419 29.8906C334.273 30.0469 334.06 30.125 333.778 30.125C333.497 30.125 333.284 30.0469 333.138 29.8906C332.997 29.7344 332.927 29.5391 332.927 29.3047ZM336.427 35.6953C336.427 34.8672 336.588 34.1224 336.911 33.4609C337.239 32.7995 337.692 32.2891 338.271 31.9297C338.854 31.5703 339.518 31.3906 340.263 31.3906C341.414 31.3906 342.343 31.7891 343.052 32.5859C343.765 33.3828 344.122 34.4427 344.122 35.7656V35.8672C344.122 36.6901 343.963 37.4297 343.646 38.0859C343.333 38.737 342.882 39.2448 342.294 39.6094C341.711 39.974 341.039 40.1562 340.278 40.1562C339.132 40.1562 338.203 39.7578 337.489 38.9609C336.781 38.1641 336.427 37.1094 336.427 35.7969V35.6953ZM337.88 35.8672C337.88 36.8047 338.096 37.5573 338.528 38.125C338.966 38.6927 339.549 38.9766 340.278 38.9766C341.013 38.9766 341.596 38.6901 342.028 38.1172C342.461 37.5391 342.677 36.7318 342.677 35.6953C342.677 34.7682 342.455 34.0182 342.013 33.4453C341.575 32.8672 340.992 32.5781 340.263 32.5781C339.549 32.5781 338.974 32.862 338.536 33.4297C338.099 33.9974 337.88 34.8099 337.88 35.8672ZM347.302 31.5469L347.349 32.6094C347.994 31.7969 348.838 31.3906 349.88 31.3906C351.666 31.3906 352.567 32.3984 352.583 34.4141V40H351.138V34.4062C351.132 33.7969 350.992 33.3464 350.716 33.0547C350.445 32.763 350.021 32.6172 349.442 32.6172C348.974 32.6172 348.562 32.7422 348.208 32.9922C347.854 33.2422 347.578 33.5703 347.38 33.9766V40H345.935V31.5469H347.302ZM361.497 37.8828L363.466 31.5469H365.013L361.614 41.3047C361.088 42.7109 360.252 43.4141 359.106 43.4141L358.833 43.3906L358.294 43.2891V42.1172L358.685 42.1484C359.174 42.1484 359.554 42.0495 359.825 41.8516C360.101 41.6536 360.328 41.2917 360.505 40.7656L360.825 39.9062L357.81 31.5469H359.388L361.497 37.8828ZM365.802 35.6953C365.802 34.8672 365.963 34.1224 366.286 33.4609C366.614 32.7995 367.067 32.2891 367.646 31.9297C368.229 31.5703 368.893 31.3906 369.638 31.3906C370.789 31.3906 371.718 31.7891 372.427 32.5859C373.14 33.3828 373.497 34.4427 373.497 35.7656V35.8672C373.497 36.6901 373.338 37.4297 373.021 38.0859C372.708 38.737 372.257 39.2448 371.669 39.6094C371.086 39.974 370.414 40.1562 369.653 40.1562C368.507 40.1562 367.578 39.7578 366.864 38.9609C366.156 38.1641 365.802 37.1094 365.802 35.7969V35.6953ZM367.255 35.8672C367.255 36.8047 367.471 37.5573 367.903 38.125C368.341 38.6927 368.924 38.9766 369.653 38.9766C370.388 38.9766 370.971 38.6901 371.403 38.1172C371.836 37.5391 372.052 36.7318 372.052 35.6953C372.052 34.7682 371.83 34.0182 371.388 33.4453C370.95 32.8672 370.367 32.5781 369.638 32.5781C368.924 32.5781 368.349 32.862 367.911 33.4297C367.474 33.9974 367.255 34.8099 367.255 35.8672ZM380.528 39.1641C379.966 39.8255 379.14 40.1562 378.052 40.1562C377.151 40.1562 376.463 39.8958 375.989 39.375C375.521 38.849 375.284 38.0729 375.278 37.0469V31.5469H376.724V37.0078C376.724 38.2891 377.244 38.9297 378.286 38.9297C379.39 38.9297 380.125 38.5182 380.489 37.6953V31.5469H381.935V40H380.56L380.528 39.1641ZM395.591 38.0078L397.216 31.5469H398.661L396.2 40H395.028L392.974 33.5938L390.974 40H389.802L387.349 31.5469H388.786L390.45 37.875L392.419 31.5469H393.583L395.591 38.0078ZM405.356 40C405.273 39.8333 405.205 39.5365 405.153 39.1094C404.481 39.8073 403.679 40.1562 402.747 40.1562C401.914 40.1562 401.229 39.9219 400.692 39.4531C400.161 38.9792 399.896 38.3802 399.896 37.6562C399.896 36.776 400.229 36.0938 400.896 35.6094C401.567 35.1198 402.51 34.875 403.724 34.875H405.13V34.2109C405.13 33.7057 404.979 33.3047 404.677 33.0078C404.375 32.7057 403.929 32.5547 403.341 32.5547C402.825 32.5547 402.393 32.6849 402.044 32.9453C401.695 33.2057 401.521 33.5208 401.521 33.8906H400.067C400.067 33.4688 400.216 33.0625 400.513 32.6719C400.815 32.276 401.221 31.9635 401.731 31.7344C402.247 31.5052 402.812 31.3906 403.427 31.3906C404.401 31.3906 405.164 31.6354 405.716 32.125C406.268 32.6094 406.554 33.2786 406.575 34.1328V38.0234C406.575 38.7995 406.674 39.4167 406.872 39.875V40H405.356ZM402.958 38.8984C403.411 38.8984 403.841 38.7812 404.247 38.5469C404.653 38.3125 404.948 38.0078 405.13 37.6328V35.8984H403.997C402.226 35.8984 401.341 36.4167 401.341 37.4531C401.341 37.9062 401.492 38.2604 401.794 38.5156C402.096 38.7708 402.484 38.8984 402.958 38.8984ZM410.208 31.5469L410.255 32.6094C410.901 31.7969 411.744 31.3906 412.786 31.3906C414.573 31.3906 415.474 32.3984 415.489 34.4141V40H414.044V34.4062C414.039 33.7969 413.898 33.3464 413.622 33.0547C413.351 32.763 412.927 32.6172 412.349 32.6172C411.88 32.6172 411.468 32.7422 411.114 32.9922C410.76 33.2422 410.484 33.5703 410.286 33.9766V40H408.841V31.5469H410.208ZM419.63 29.5V31.5469H421.208V32.6641H419.63V37.9062C419.63 38.2448 419.7 38.5 419.841 38.6719C419.981 38.8385 420.221 38.9219 420.56 38.9219C420.726 38.9219 420.955 38.8906 421.247 38.8281V40C420.867 40.1042 420.497 40.1562 420.138 40.1562C419.492 40.1562 419.005 39.9609 418.677 39.5703C418.349 39.1797 418.185 38.625 418.185 37.9062V32.6641H416.646V31.5469H418.185V29.5H419.63ZM428.833 29.5V31.5469H430.411V32.6641H428.833V37.9062C428.833 38.2448 428.903 38.5 429.044 38.6719C429.185 38.8385 429.424 38.9219 429.763 38.9219C429.929 38.9219 430.159 38.8906 430.45 38.8281V40C430.07 40.1042 429.7 40.1562 429.341 40.1562C428.695 40.1562 428.208 39.9609 427.88 39.5703C427.552 39.1797 427.388 38.625 427.388 37.9062V32.6641H425.849V31.5469H427.388V29.5H428.833ZM431.567 35.6953C431.567 34.8672 431.729 34.1224 432.052 33.4609C432.38 32.7995 432.833 32.2891 433.411 31.9297C433.994 31.5703 434.659 31.3906 435.403 31.3906C436.554 31.3906 437.484 31.7891 438.192 32.5859C438.906 33.3828 439.263 34.4427 439.263 35.7656V35.8672C439.263 36.6901 439.104 37.4297 438.786 38.0859C438.474 38.737 438.023 39.2448 437.435 39.6094C436.851 39.974 436.179 40.1562 435.419 40.1562C434.273 40.1562 433.343 39.7578 432.63 38.9609C431.922 38.1641 431.567 37.1094 431.567 35.7969V35.6953ZM433.021 35.8672C433.021 36.8047 433.237 37.5573 433.669 38.125C434.106 38.6927 434.69 38.9766 435.419 38.9766C436.153 38.9766 436.737 38.6901 437.169 38.1172C437.601 37.5391 437.817 36.7318 437.817 35.6953C437.817 34.7682 437.596 34.0182 437.153 33.4453C436.716 32.8672 436.132 32.5781 435.403 32.5781C434.69 32.5781 434.114 32.862 433.677 33.4297C433.239 33.9974 433.021 34.8099 433.021 35.8672ZM444.692 35.7031C444.692 34.4062 445 33.3646 445.614 32.5781C446.229 31.7865 447.034 31.3906 448.028 31.3906C449.018 31.3906 449.802 31.7292 450.38 32.4062V28H451.825V40H450.497L450.427 39.0938C449.849 39.8021 449.044 40.1562 448.013 40.1562C447.034 40.1562 446.234 39.7552 445.614 38.9531C445 38.151 444.692 37.1042 444.692 35.8125V35.7031ZM446.138 35.8672C446.138 36.8255 446.336 37.5755 446.731 38.1172C447.127 38.6589 447.674 38.9297 448.372 38.9297C449.289 38.9297 449.958 38.5182 450.38 37.6953V33.8125C449.948 33.0156 449.284 32.6172 448.388 32.6172C447.679 32.6172 447.127 32.8906 446.731 33.4375C446.336 33.9844 446.138 34.7943 446.138 35.8672ZM453.692 35.6953C453.692 34.8672 453.854 34.1224 454.177 33.4609C454.505 32.7995 454.958 32.2891 455.536 31.9297C456.119 31.5703 456.784 31.3906 457.528 31.3906C458.679 31.3906 459.609 31.7891 460.317 32.5859C461.031 33.3828 461.388 34.4427 461.388 35.7656V35.8672C461.388 36.6901 461.229 37.4297 460.911 38.0859C460.599 38.737 460.148 39.2448 459.56 39.6094C458.976 39.974 458.304 40.1562 457.544 40.1562C456.398 40.1562 455.468 39.7578 454.755 38.9609C454.047 38.1641 453.692 37.1094 453.692 35.7969V35.6953ZM455.146 35.8672C455.146 36.8047 455.362 37.5573 455.794 38.125C456.231 38.6927 456.815 38.9766 457.544 38.9766C458.278 38.9766 458.862 38.6901 459.294 38.1172C459.726 37.5391 459.942 36.7318 459.942 35.6953C459.942 34.7682 459.721 34.0182 459.278 33.4453C458.841 32.8672 458.257 32.5781 457.528 32.5781C456.815 32.5781 456.239 32.862 455.802 33.4297C455.364 33.9974 455.146 34.8099 455.146 35.8672ZM463.231 39.2422C463.231 38.9922 463.304 38.7839 463.45 38.6172C463.601 38.4505 463.825 38.3672 464.122 38.3672C464.419 38.3672 464.643 38.4505 464.794 38.6172C464.95 38.7839 465.028 38.9922 465.028 39.2422C465.028 39.4818 464.95 39.6823 464.794 39.8438C464.643 40.0052 464.419 40.0859 464.122 40.0859C463.825 40.0859 463.601 40.0052 463.45 39.8438C463.304 39.6823 463.231 39.4818 463.231 39.2422Z" fill="#656668"/>
<path d="M27.2865 48H30.2305V24.864H24.2145V27.52H27.2865V48Z" fill="#656668"/>
</svg>
