<svg width="188" height="74" viewBox="0 0 188 74" fill="none" xmlns="http://www.w3.org/2000/svg">
<path d="M13.2204 15.3848H14.4034V6.32377H13.2204V10.3018H8.60539V6.32377H7.42239V15.3848H8.60539V11.2768H13.2204V15.3848ZM19.4397 9.14477C20.6617 9.14477 21.7017 9.91177 21.6887 11.3028H17.1907C17.3207 9.91177 18.2827 9.14477 19.4397 9.14477ZM22.7677 13.1878H21.4937C21.2337 13.9548 20.5577 14.5008 19.4917 14.5008C18.2827 14.5008 17.2687 13.7078 17.1777 12.2648H22.8717C22.8977 12.0178 22.9107 11.8098 22.9107 11.5498C22.9107 9.59977 21.5587 8.14377 19.4917 8.14377C17.4117 8.14377 15.9687 9.56077 15.9687 11.8098C15.9687 14.0718 17.4637 15.5018 19.4917 15.5018C21.2597 15.5018 22.4037 14.4878 22.7677 13.1878ZM25.6552 11.5108C25.6552 9.85977 26.5132 9.35277 27.6442 9.35277H27.9562V8.13077C26.8252 8.13077 26.0582 8.62477 25.6552 9.41777V8.26077H24.4722V15.3848H25.6552V11.5108ZM33.0086 15.3848H34.1916V9.23577H35.6866V8.26077H34.1916V7.75377C34.1916 6.83076 34.5426 6.44077 35.6086 6.44077V5.45276C33.7886 5.45276 33.0086 6.16776 33.0086 7.75377V8.26077H32.0856V9.23577H33.0086V15.3848ZM38.2489 11.5108C38.2489 9.85977 39.1069 9.35277 40.2379 9.35277H40.5499V8.13077C39.4189 8.13077 38.6519 8.62477 38.2489 9.41777V8.26077H37.0659V15.3848H38.2489V11.5108ZM41.9156 15.3848H43.0986V8.26077H41.9156V15.3848ZM42.5266 7.10377C42.9556 7.10377 43.3066 6.75277 43.3066 6.29776C43.3066 5.84277 42.9556 5.49177 42.5266 5.49177C42.0716 5.49177 41.7206 5.84277 41.7206 6.29776C41.7206 6.75277 42.0716 7.10377 42.5266 7.10377ZM48.1438 9.14477C49.3658 9.14477 50.4058 9.91177 50.3928 11.3028H45.8948C46.0248 9.91177 46.9868 9.14477 48.1438 9.14477ZM51.4718 13.1878H50.1978C49.9378 13.9548 49.2618 14.5008 48.1958 14.5008C46.9868 14.5008 45.9728 13.7078 45.8818 12.2648H51.5758C51.6018 12.0178 51.6148 11.8098 51.6148 11.5498C51.6148 9.59977 50.2628 8.14377 48.1958 8.14377C46.1158 8.14377 44.6728 9.56077 44.6728 11.8098C44.6728 14.0718 46.1678 15.5018 48.1958 15.5018C49.9638 15.5018 51.1078 14.4878 51.4718 13.1878ZM58.3893 15.3848H59.5593V11.1858C59.5593 9.14477 58.2983 8.13077 56.6473 8.13077C55.6853 8.13077 54.8273 8.53377 54.3593 9.27477V8.26077H53.1763V15.3848H54.3593V11.4458C54.3593 9.91177 55.1913 9.15777 56.4003 9.15777C57.5963 9.15777 58.3893 9.89877 58.3893 11.3548V15.3848ZM61.0497 11.7968C61.0497 14.0068 62.5187 15.5018 64.4297 15.5018C65.7297 15.5018 66.6527 14.8388 67.0817 14.0458V15.3848H68.2777V5.76477H67.0817V9.53477C66.5877 8.71577 65.5607 8.14377 64.4427 8.14377C62.5187 8.14377 61.0497 9.57377 61.0497 11.7968ZM67.0817 11.8098C67.0817 13.4868 65.9637 14.4618 64.6637 14.4618C63.3637 14.4618 62.2587 13.4738 62.2587 11.7968C62.2587 10.1198 63.3637 9.17077 64.6637 9.17077C65.9637 9.17077 67.0817 10.1588 67.0817 11.8098ZM78.8647 13.4478C78.8127 10.8998 74.6787 11.8228 74.6787 10.1328C74.6787 9.56077 75.1987 9.14477 76.0697 9.14477C77.0187 9.14477 77.5647 9.66477 77.6167 10.3798H78.7997C78.7217 8.98877 77.6817 8.14377 76.1087 8.14377C74.5227 8.14377 73.4957 9.04077 73.4957 10.1328C73.4957 12.7848 77.7077 11.8618 77.7077 13.4478C77.7077 14.0328 77.1877 14.5008 76.2517 14.5008C75.2507 14.5008 74.6397 13.9808 74.5747 13.2918H73.3527C73.4307 14.5918 74.6007 15.5018 76.2647 15.5018C77.8377 15.5018 78.8647 14.6178 78.8647 13.4478ZM80.5347 15.3848H81.7177V11.4458C81.7177 9.91177 82.5497 9.15777 83.7587 9.15777C84.9547 9.15777 85.7477 9.89877 85.7477 11.3548V15.3848H86.9177V11.1858C86.9177 9.14477 85.6567 8.13077 84.0707 8.13077C83.0697 8.13077 82.1857 8.53377 81.7177 9.28777V5.76477H80.5347V15.3848ZM88.4081 11.7968C88.4081 14.0068 89.8771 15.5018 91.7751 15.5018C93.0881 15.5018 94.0111 14.8258 94.4401 14.0588V15.3848H95.6361V8.26077H94.4401V9.56077C94.0241 8.81977 93.1141 8.14377 91.7881 8.14377C89.8771 8.14377 88.4081 9.57377 88.4081 11.7968ZM94.4401 11.8098C94.4401 13.4868 93.3221 14.4618 92.0221 14.4618C90.7221 14.4618 89.6171 13.4738 89.6171 11.7968C89.6171 10.1198 90.7221 9.17077 92.0221 9.17077C93.3221 9.17077 94.4401 10.1588 94.4401 11.8098ZM97.6353 15.3848H98.8183V12.2388L101.613 15.3848H103.225L99.8583 11.8098L103.212 8.26077H101.561L98.8183 11.4198V5.76477H97.6353V15.3848ZM107.355 9.14477C108.577 9.14477 109.617 9.91177 109.604 11.3028H105.106C105.236 9.91177 106.198 9.14477 107.355 9.14477ZM110.683 13.1878H109.409C109.149 13.9548 108.473 14.5008 107.407 14.5008C106.198 14.5008 105.184 13.7078 105.093 12.2648H110.787C110.813 12.0178 110.826 11.8098 110.826 11.5498C110.826 9.59977 109.474 8.14377 107.407 8.14377C105.327 8.14377 103.884 9.56077 103.884 11.8098C103.884 14.0718 105.379 15.5018 107.407 15.5018C109.175 15.5018 110.319 14.4878 110.683 13.1878ZM115.853 15.3848H117.036V11.4458C117.036 9.91177 117.868 9.15777 119.077 9.15777C120.273 9.15777 121.066 9.89877 121.066 11.3548V15.3848H122.236V11.1858C122.236 9.14477 120.975 8.13077 119.389 8.13077C118.388 8.13077 117.504 8.53377 117.036 9.28777V5.76477H115.853V15.3848ZM124.168 15.3848H125.351V8.26077H124.168V15.3848ZM124.779 7.10377C125.208 7.10377 125.559 6.75277 125.559 6.29776C125.559 5.84277 125.208 5.49177 124.779 5.49177C124.324 5.49177 123.973 5.84277 123.973 6.29776C123.973 6.75277 124.324 7.10377 124.779 7.10377ZM132.49 13.4478C132.438 10.8998 128.304 11.8228 128.304 10.1328C128.304 9.56077 128.824 9.14477 129.695 9.14477C130.644 9.14477 131.19 9.66477 131.242 10.3798H132.425C132.347 8.98877 131.307 8.14377 129.734 8.14377C128.148 8.14377 127.121 9.04077 127.121 10.1328C127.121 12.7848 131.333 11.8618 131.333 13.4478C131.333 14.0328 130.813 14.5008 129.877 14.5008C128.876 14.5008 128.265 13.9808 128.2 13.2918H126.978C127.056 14.5918 128.226 15.5018 129.89 15.5018C131.463 15.5018 132.49 14.6178 132.49 13.4478ZM147.909 15.3848H149.079V11.1858C149.079 9.14477 147.818 8.13077 146.193 8.13077C145.101 8.13077 144.087 8.68977 143.671 9.71677C143.203 8.65077 142.228 8.13077 141.058 8.13077C140.122 8.13077 139.277 8.53377 138.809 9.28777V8.26077H137.626V15.3848H138.809V11.4588C138.809 9.92477 139.628 9.15777 140.824 9.15777C141.994 9.15777 142.774 9.89877 142.774 11.3548V15.3848H143.944V11.4588C143.944 9.92477 144.763 9.15777 145.959 9.15777C147.129 9.15777 147.909 9.89877 147.909 11.3548V15.3848ZM157.779 11.8098C157.779 9.56077 156.206 8.14377 154.178 8.14377C152.163 8.14377 150.577 9.56077 150.577 11.8098C150.577 14.0718 152.111 15.5018 154.126 15.5018C156.154 15.5018 157.779 14.0718 157.779 11.8098ZM151.786 11.8098C151.786 10.0158 152.917 9.17077 154.165 9.17077C155.387 9.17077 156.57 10.0158 156.57 11.8098C156.57 13.6168 155.361 14.4618 154.126 14.4618C152.891 14.4618 151.786 13.6168 151.786 11.8098ZM160.517 9.58677V5.76477H159.334V15.3848H160.517V14.0718C160.959 14.8518 161.882 15.5018 163.182 15.5018C165.093 15.5018 166.562 14.0068 166.562 11.7968C166.562 9.57377 165.106 8.14377 163.182 8.14377C161.921 8.14377 160.972 8.79377 160.517 9.58677ZM165.353 11.7968C165.353 13.4738 164.248 14.4618 162.935 14.4618C161.648 14.4618 160.517 13.4868 160.517 11.8098C160.517 10.1588 161.648 9.17077 162.935 9.17077C164.248 9.17077 165.353 10.1198 165.353 11.7968ZM168.12 15.3848H169.303V8.26077H168.12V15.3848ZM168.731 7.10377C169.16 7.10377 169.511 6.75277 169.511 6.29776C169.511 5.84277 169.16 5.49177 168.731 5.49177C168.276 5.49177 167.925 5.84277 167.925 6.29776C167.925 6.75277 168.276 7.10377 168.731 7.10377ZM171.319 15.3848H172.502V5.76477H171.319V15.3848ZM177.547 9.14477C178.769 9.14477 179.809 9.91177 179.796 11.3028H175.298C175.428 9.91177 176.39 9.14477 177.547 9.14477ZM180.875 13.1878H179.601C179.341 13.9548 178.665 14.5008 177.599 14.5008C176.39 14.5008 175.376 13.7078 175.285 12.2648H180.979C181.005 12.0178 181.018 11.8098 181.018 11.5498C181.018 9.59977 179.666 8.14377 177.599 8.14377C175.519 8.14377 174.076 9.56077 174.076 11.8098C174.076 14.0718 175.571 15.5018 177.599 15.5018C179.367 15.5018 180.511 14.4878 180.875 13.1878ZM26.7519 35.3848H27.9739L29.6899 29.7298L31.4059 35.3848H32.6279L34.8509 28.2608H33.6809L32.0689 34.2538L30.3399 28.2608H29.1309L27.3629 34.2408L25.7249 28.2608H24.5159L26.7519 35.3848ZM36.0249 35.3848H37.2079V31.4458C37.2079 29.9118 38.0399 29.1578 39.2489 29.1578C40.4449 29.1578 41.2379 29.8988 41.2379 31.3548V35.3848H42.4079V31.1858C42.4079 29.1448 41.1469 28.1308 39.5609 28.1308C38.5599 28.1308 37.6759 28.5338 37.2079 29.2878V25.7648H36.0249V35.3848ZM44.3404 35.3848H45.5234V28.2608H44.3404V35.3848ZM44.9514 27.1038C45.3804 27.1038 45.7314 26.7528 45.7314 26.2978C45.7314 25.8428 45.3804 25.4918 44.9514 25.4918C44.4964 25.4918 44.1454 25.8428 44.1454 26.2978C44.1454 26.7528 44.4964 27.1038 44.9514 27.1038ZM47.5396 35.3848H48.7226V25.7648H47.5396V35.3848ZM53.7678 29.1448C54.9898 29.1448 56.0298 29.9118 56.0168 31.3028H51.5188C51.6488 29.9118 52.6108 29.1448 53.7678 29.1448ZM57.0958 33.1878H55.8218C55.5618 33.9548 54.8858 34.5008 53.8198 34.5008C52.6108 34.5008 51.5968 33.7078 51.5058 32.2648H57.1998C57.2258 32.0178 57.2388 31.8098 57.2388 31.5498C57.2388 29.5998 55.8868 28.1438 53.8198 28.1438C51.7398 28.1438 50.2968 29.5608 50.2968 31.8098C50.2968 34.0718 51.7918 35.5018 53.8198 35.5018C55.5878 35.5018 56.7318 34.4878 57.0958 33.1878ZM68.5841 28.2608H67.4011V32.1738C67.4011 33.7078 66.5821 34.4618 65.3601 34.4618C64.1641 34.4618 63.3711 33.7208 63.3711 32.2778V28.2608H62.2011V32.4338C62.2011 34.4748 63.4881 35.4888 65.1261 35.4888C66.0751 35.4888 66.9461 35.0728 67.4011 34.3318V35.3848H68.5841V28.2608ZM75.7036 33.4478C75.6516 30.8998 71.5176 31.8228 71.5176 30.1328C71.5176 29.5608 72.0376 29.1448 72.9086 29.1448C73.8576 29.1448 74.4036 29.6648 74.4556 30.3798H75.6386C75.5606 28.9888 74.5206 28.1438 72.9476 28.1438C71.3616 28.1438 70.3346 29.0408 70.3346 30.1328C70.3346 32.7848 74.5466 31.8618 74.5466 33.4478C74.5466 34.0328 74.0266 34.5008 73.0906 34.5008C72.0896 34.5008 71.4786 33.9808 71.4136 33.2918H70.1916C70.2696 34.5918 71.4396 35.5018 73.1036 35.5018C74.6766 35.5018 75.7036 34.6178 75.7036 33.4478ZM77.3736 35.3848H78.5566V28.2608H77.3736V35.3848ZM77.9846 27.1038C78.4136 27.1038 78.7646 26.7528 78.7646 26.2978C78.7646 25.8428 78.4136 25.4918 77.9846 25.4918C77.5296 25.4918 77.1786 25.8428 77.1786 26.2978C77.1786 26.7528 77.5296 27.1038 77.9846 27.1038ZM85.7858 35.3848H86.9558V31.1858C86.9558 29.1448 85.6948 28.1308 84.0438 28.1308C83.0818 28.1308 82.2238 28.5338 81.7558 29.2748V28.2608H80.5728V35.3848H81.7558V31.4458C81.7558 29.9118 82.5878 29.1578 83.7968 29.1578C84.9928 29.1578 85.7858 29.8988 85.7858 31.3548V35.3848ZM88.4462 31.7968C88.4462 34.0068 89.9152 35.5018 91.8262 35.5018C93.1262 35.5018 94.0492 34.8128 94.4782 34.0458V35.5408C94.4782 37.0618 93.5292 37.8678 92.2682 37.8678C91.0982 37.8678 90.2532 37.2828 89.9932 36.4248H88.8232C89.0572 37.9458 90.3962 38.8948 92.2682 38.8948C94.3612 38.8948 95.6742 37.5038 95.6742 35.5408V28.2608H94.4782V29.5608C94.0622 28.7938 93.1262 28.1438 91.8262 28.1438C89.9152 28.1438 88.4462 29.5738 88.4462 31.7968ZM94.4782 31.8098C94.4782 33.4868 93.3602 34.4618 92.0602 34.4618C90.7602 34.4618 89.6552 33.4738 89.6552 31.7968C89.6552 30.1198 90.7602 29.1708 92.0602 29.1708C93.3602 29.1708 94.4782 30.1588 94.4782 31.8098ZM106.014 26.3108H101.139V35.3848H106.014V34.4098H102.322V31.2898H105.624V30.3148H102.322V27.2858H106.014V26.3108ZM107.362 31.7968C107.362 34.0068 108.831 35.5018 110.729 35.5018C112.042 35.5018 112.965 34.8258 113.394 34.0588V35.3848H114.59V28.2608H113.394V29.5608C112.978 28.8198 112.068 28.1438 110.742 28.1438C108.831 28.1438 107.362 29.5738 107.362 31.7968ZM113.394 31.8098C113.394 33.4868 112.276 34.4618 110.976 34.4618C109.676 34.4618 108.571 33.4738 108.571 31.7968C108.571 30.1198 109.676 29.1708 110.976 29.1708C112.276 29.1708 113.394 30.1588 113.394 31.8098ZM121.711 33.4478C121.659 30.8998 117.525 31.8228 117.525 30.1328C117.525 29.5608 118.045 29.1448 118.916 29.1448C119.865 29.1448 120.411 29.6648 120.463 30.3798H121.646C121.568 28.9888 120.528 28.1438 118.955 28.1438C117.369 28.1438 116.342 29.0408 116.342 30.1328C116.342 32.7848 120.554 31.8618 120.554 33.4478C120.554 34.0328 120.034 34.5008 119.098 34.5008C118.097 34.5008 117.486 33.9808 117.421 33.2918H116.199C116.277 34.5918 117.447 35.5018 119.111 35.5018C120.684 35.5018 121.711 34.6178 121.711 33.4478ZM126.085 34.0328L123.849 28.2608H122.536L125.409 35.3068L124.005 38.7388H125.227L129.517 28.2608H128.295L126.085 34.0328ZM130.265 30.8478C130.265 33.5648 132.254 35.4628 134.789 35.4628C136.752 35.4628 138.312 34.4878 138.988 32.7458H137.571C137.077 33.8248 136.115 34.4358 134.789 34.4358C132.891 34.4358 131.474 33.0578 131.474 30.8478C131.474 28.6248 132.891 27.2468 134.789 27.2468C136.115 27.2468 137.077 27.8578 137.571 28.9498H138.988C138.312 27.1948 136.752 26.2068 134.789 26.2068C132.254 26.2068 130.265 28.1308 130.265 30.8478ZM140.307 31.7968C140.307 34.0068 141.776 35.5018 143.674 35.5018C144.987 35.5018 145.91 34.8258 146.339 34.0588V35.3848H147.535V28.2608H146.339V29.5608C145.923 28.8198 145.013 28.1438 143.687 28.1438C141.776 28.1438 140.307 29.5738 140.307 31.7968ZM146.339 31.8098C146.339 33.4868 145.221 34.4618 143.921 34.4618C142.621 34.4618 141.516 33.4738 141.516 31.7968C141.516 30.1198 142.621 29.1708 143.921 29.1708C145.221 29.1708 146.339 30.1588 146.339 31.8098ZM154.656 33.4478C154.604 30.8998 150.47 31.8228 150.47 30.1328C150.47 29.5608 150.99 29.1448 151.861 29.1448C152.81 29.1448 153.356 29.6648 153.408 30.3798H154.591C154.513 28.9888 153.473 28.1438 151.9 28.1438C150.314 28.1438 149.287 29.0408 149.287 30.1328C149.287 32.7848 153.499 31.8618 153.499 33.4478C153.499 34.0328 152.979 34.5008 152.043 34.5008C151.042 34.5008 150.431 33.9808 150.366 33.2918H149.144C149.222 34.5918 150.392 35.5018 152.056 35.5018C153.629 35.5018 154.656 34.6178 154.656 33.4478ZM156.326 35.3848H157.509V31.4458C157.509 29.9118 158.341 29.1578 159.55 29.1578C160.746 29.1578 161.539 29.8988 161.539 31.3548V35.3848H162.709V31.1858C162.709 29.1448 161.448 28.1308 159.862 28.1308C158.861 28.1308 157.977 28.5338 157.509 29.2878V25.7648H156.326V35.3848ZM57.5585 51.7968C57.5585 54.0068 59.0275 55.5018 60.9255 55.5018C62.2385 55.5018 63.1615 54.8258 63.5905 54.0588V55.3848H64.7865V48.2608H63.5905V49.5608C63.1745 48.8198 62.2645 48.1438 60.9385 48.1438C59.0275 48.1438 57.5585 49.5738 57.5585 51.7968ZM63.5905 51.8098C63.5905 53.4868 62.4725 54.4618 61.1725 54.4618C59.8725 54.4618 58.7675 53.4738 58.7675 51.7968C58.7675 50.1198 59.8725 49.1708 61.1725 49.1708C62.4725 49.1708 63.5905 50.1588 63.5905 51.8098ZM67.9687 49.5738V48.2608H66.7857V58.7648H67.9687V54.0718C68.4107 54.7998 69.3337 55.5018 70.6337 55.5018C72.5447 55.5018 74.0137 54.0068 74.0137 51.7968C74.0137 49.5738 72.5447 48.1438 70.6337 48.1438C69.3337 48.1438 68.3977 48.8198 67.9687 49.5738ZM72.8047 51.7968C72.8047 53.4738 71.6997 54.4618 70.3867 54.4618C69.0997 54.4618 67.9687 53.4868 67.9687 51.8098C67.9687 50.1588 69.0997 49.1708 70.3867 49.1708C71.6997 49.1708 72.8047 50.1198 72.8047 51.7968ZM76.7538 49.5738V48.2608H75.5708V58.7648H76.7538V54.0718C77.1958 54.7998 78.1188 55.5018 79.4188 55.5018C81.3298 55.5018 82.7988 54.0068 82.7988 51.7968C82.7988 49.5738 81.3298 48.1438 79.4188 48.1438C78.1188 48.1438 77.1828 48.8198 76.7538 49.5738ZM81.5898 51.7968C81.5898 53.4738 80.4848 54.4618 79.1718 54.4618C77.8848 54.4618 76.7538 53.4868 76.7538 51.8098C76.7538 50.1588 77.8848 49.1708 79.1718 49.1708C80.4848 49.1708 81.5898 50.1198 81.5898 51.7968ZM84.356 55.3848H85.539V45.7648H84.356V55.3848ZM87.5552 55.3848H88.7382V48.2608H87.5552V55.3848ZM88.1662 47.1038C88.5952 47.1038 88.9462 46.7528 88.9462 46.2978C88.9462 45.8428 88.5952 45.4918 88.1662 45.4918C87.7112 45.4918 87.3602 45.8428 87.3602 46.2978C87.3602 46.7528 87.7112 47.1038 88.1662 47.1038ZM90.3124 51.8098C90.3124 54.0718 91.7554 55.5018 93.7834 55.5018C95.5514 55.5018 96.7084 54.5138 97.0724 53.0968H95.7984C95.5384 53.9938 94.8364 54.5008 93.7834 54.5008C92.4834 54.5008 91.5214 53.5778 91.5214 51.8098C91.5214 50.0678 92.4834 49.1448 93.7834 49.1448C94.8364 49.1448 95.5514 49.6908 95.7984 50.5488H97.0724C96.7084 49.0538 95.5514 48.1438 93.7834 48.1438C91.7554 48.1438 90.3124 49.5738 90.3124 51.8098ZM98.2089 51.7968C98.2089 54.0068 99.6779 55.5018 101.576 55.5018C102.889 55.5018 103.812 54.8258 104.241 54.0588V55.3848H105.437V48.2608H104.241V49.5608C103.825 48.8198 102.915 48.1438 101.589 48.1438C99.6779 48.1438 98.2089 49.5738 98.2089 51.7968ZM104.241 51.8098C104.241 53.4868 103.123 54.4618 101.823 54.4618C100.523 54.4618 99.4179 53.4738 99.4179 51.7968C99.4179 50.1198 100.523 49.1708 101.823 49.1708C103.123 49.1708 104.241 50.1588 104.241 51.8098ZM107.696 53.4348C107.696 54.8648 108.411 55.3848 109.672 55.3848H110.738V54.3838H109.867C109.139 54.3838 108.879 54.1368 108.879 53.4348V49.2358H110.738V48.2608H108.879V46.4668H107.696V48.2608H106.773V49.2358H107.696V53.4348ZM112.171 55.3848H113.354V48.2608H112.171V55.3848ZM112.782 47.1038C113.211 47.1038 113.562 46.7528 113.562 46.2978C113.562 45.8428 113.211 45.4918 112.782 45.4918C112.327 45.4918 111.976 45.8428 111.976 46.2978C111.976 46.7528 112.327 47.1038 112.782 47.1038ZM122.131 51.8098C122.131 49.5608 120.558 48.1438 118.53 48.1438C116.515 48.1438 114.929 49.5608 114.929 51.8098C114.929 54.0718 116.463 55.5018 118.478 55.5018C120.506 55.5018 122.131 54.0718 122.131 51.8098ZM116.138 51.8098C116.138 50.0158 117.269 49.1708 118.517 49.1708C119.739 49.1708 120.922 50.0158 120.922 51.8098C120.922 53.6168 119.713 54.4618 118.478 54.4618C117.243 54.4618 116.138 53.6168 116.138 51.8098ZM128.899 55.3848H130.069V51.1858C130.069 49.1448 128.808 48.1308 127.157 48.1308C126.195 48.1308 125.337 48.5338 124.869 49.2748V48.2608H123.686V55.3848H124.869V51.4458C124.869 49.9118 125.701 49.1578 126.91 49.1578C128.106 49.1578 128.899 49.8988 128.899 51.3548V55.3848Z" fill="#494B52"/>
</svg>
