<svg width="557" height="75" viewBox="0 0 557 75" fill="none" xmlns="http://www.w3.org/2000/svg">
<path d="M68.4656 36.7422H63.5359V40.7734H69.2625V42H62.0359V30.625H69.1843V31.8594H63.5359V35.5156H68.4656V36.7422ZM76.1218 42C76.0385 41.8333 75.9708 41.5365 75.9187 41.1094C75.2468 41.8073 74.4447 42.1562 73.5125 42.1562C72.6791 42.1562 71.9942 41.9219 71.4578 41.4531C70.9265 40.9792 70.6609 40.3802 70.6609 39.6562C70.6609 38.776 70.9942 38.0938 71.6609 37.6094C72.3328 37.1198 73.2755 36.875 74.489 36.875H75.8953V36.2109C75.8953 35.7057 75.7442 35.3047 75.4421 35.0078C75.1401 34.7057 74.6947 34.5547 74.1062 34.5547C73.5906 34.5547 73.1583 34.6849 72.8093 34.9453C72.4604 35.2057 72.2859 35.5208 72.2859 35.8906H70.8328C70.8328 35.4688 70.9812 35.0625 71.2781 34.6719C71.5802 34.276 71.9864 33.9635 72.4968 33.7344C73.0125 33.5052 73.5776 33.3906 74.1921 33.3906C75.1661 33.3906 75.9291 33.6354 76.4812 34.125C77.0333 34.6094 77.3197 35.2786 77.3406 36.1328V40.0234C77.3406 40.7995 77.4395 41.4167 77.6375 41.875V42H76.1218ZM73.7234 40.8984C74.1765 40.8984 74.6062 40.7812 75.0125 40.5469C75.4187 40.3125 75.713 40.0078 75.8953 39.6328V37.8984H74.7625C72.9916 37.8984 72.1062 38.4167 72.1062 39.4531C72.1062 39.9062 72.2572 40.2604 72.5593 40.5156C72.8614 40.7708 73.2494 40.8984 73.7234 40.8984ZM84.5281 39.7578C84.5281 39.3672 84.3796 39.0651 84.0828 38.8516C83.7911 38.6328 83.2781 38.4453 82.5437 38.2891C81.8145 38.1328 81.2338 37.9453 80.8015 37.7266C80.3744 37.5078 80.0567 37.2474 79.8484 36.9453C79.6453 36.6432 79.5437 36.2839 79.5437 35.8672C79.5437 35.1745 79.8354 34.5885 80.4187 34.1094C81.0072 33.6302 81.7572 33.3906 82.6687 33.3906C83.627 33.3906 84.4031 33.638 84.9968 34.1328C85.5958 34.6276 85.8953 35.2604 85.8953 36.0312H84.4421C84.4421 35.6354 84.2729 35.2943 83.9343 35.0078C83.601 34.7214 83.1791 34.5781 82.6687 34.5781C82.1427 34.5781 81.7312 34.6927 81.4343 34.9219C81.1375 35.151 80.989 35.4505 80.989 35.8203C80.989 36.1693 81.127 36.4323 81.4031 36.6094C81.6791 36.7865 82.1765 36.9557 82.8953 37.1172C83.6192 37.2786 84.2052 37.4714 84.6531 37.6953C85.101 37.9193 85.4317 38.1901 85.6453 38.5078C85.864 38.8203 85.9734 39.2031 85.9734 39.6562C85.9734 40.4115 85.6713 41.0182 85.0671 41.4766C84.463 41.9297 83.6791 42.1562 82.7156 42.1562C82.0385 42.1562 81.4395 42.0365 80.9187 41.7969C80.3979 41.5573 79.989 41.224 79.6921 40.7969C79.4005 40.3646 79.2546 39.8984 79.2546 39.3984H80.7C80.726 39.8828 80.9187 40.2682 81.2781 40.5547C81.6427 40.8359 82.1218 40.9766 82.7156 40.9766C83.2625 40.9766 83.7 40.8672 84.0281 40.6484C84.3614 40.4245 84.5281 40.1276 84.5281 39.7578ZM90.6218 39.8828L92.5906 33.5469H94.1375L90.739 43.3047C90.213 44.7109 89.377 45.4141 88.2312 45.4141L87.9578 45.3906L87.4187 45.2891V44.1172L87.8093 44.1484C88.2989 44.1484 88.6791 44.0495 88.95 43.8516C89.226 43.6536 89.4526 43.2917 89.6296 42.7656L89.95 41.9062L86.9343 33.5469H88.5125L90.6218 39.8828ZM104.028 38.3906C103.887 39.5938 103.442 40.5234 102.692 41.1797C101.947 41.8307 100.955 42.1562 99.7156 42.1562C98.3718 42.1562 97.2937 41.6745 96.4812 40.7109C95.6739 39.7474 95.2703 38.4583 95.2703 36.8438V35.75C95.2703 34.6927 95.4578 33.763 95.8328 32.9609C96.213 32.1589 96.7494 31.5443 97.4421 31.1172C98.1348 30.6849 98.9369 30.4688 99.8484 30.4688C101.057 30.4688 102.025 30.8073 102.755 31.4844C103.484 32.1562 103.908 33.0885 104.028 34.2812H102.52C102.39 33.375 102.106 32.7188 101.669 32.3125C101.236 31.9062 100.63 31.7031 99.8484 31.7031C98.8901 31.7031 98.1375 32.0573 97.5906 32.7656C97.0489 33.474 96.7781 34.4818 96.7781 35.7891V36.8906C96.7781 38.125 97.0359 39.1068 97.5515 39.8359C98.0671 40.5651 98.7885 40.9297 99.7156 40.9297C100.549 40.9297 101.187 40.7422 101.63 40.3672C102.078 39.987 102.374 39.3281 102.52 38.3906H104.028ZM111.075 42C110.992 41.8333 110.924 41.5365 110.872 41.1094C110.2 41.8073 109.398 42.1562 108.466 42.1562C107.632 42.1562 106.947 41.9219 106.411 41.4531C105.88 40.9792 105.614 40.3802 105.614 39.6562C105.614 38.776 105.947 38.0938 106.614 37.6094C107.286 37.1198 108.229 36.875 109.442 36.875H110.848V36.2109C110.848 35.7057 110.697 35.3047 110.395 35.0078C110.093 34.7057 109.648 34.5547 109.059 34.5547C108.544 34.5547 108.111 34.6849 107.762 34.9453C107.413 35.2057 107.239 35.5208 107.239 35.8906H105.786C105.786 35.4688 105.934 35.0625 106.231 34.6719C106.533 34.276 106.94 33.9635 107.45 33.7344C107.966 33.5052 108.531 33.3906 109.145 33.3906C110.119 33.3906 110.882 33.6354 111.434 34.125C111.986 34.6094 112.273 35.2786 112.294 36.1328V40.0234C112.294 40.7995 112.393 41.4167 112.591 41.875V42H111.075ZM108.677 40.8984C109.13 40.8984 109.559 40.7812 109.966 40.5469C110.372 40.3125 110.666 40.0078 110.848 39.6328V37.8984H109.716C107.945 37.8984 107.059 38.4167 107.059 39.4531C107.059 39.9062 107.21 40.2604 107.512 40.5156C107.815 40.7708 108.203 40.8984 108.677 40.8984ZM119.481 39.7578C119.481 39.3672 119.333 39.0651 119.036 38.8516C118.744 38.6328 118.231 38.4453 117.497 38.2891C116.768 38.1328 116.187 37.9453 115.755 37.7266C115.328 37.5078 115.01 37.2474 114.802 36.9453C114.598 36.6432 114.497 36.2839 114.497 35.8672C114.497 35.1745 114.788 34.5885 115.372 34.1094C115.96 33.6302 116.71 33.3906 117.622 33.3906C118.58 33.3906 119.356 33.638 119.95 34.1328C120.549 34.6276 120.848 35.2604 120.848 36.0312H119.395C119.395 35.6354 119.226 35.2943 118.887 35.0078C118.554 34.7214 118.132 34.5781 117.622 34.5781C117.096 34.5781 116.684 34.6927 116.387 34.9219C116.091 35.151 115.942 35.4505 115.942 35.8203C115.942 36.1693 116.08 36.4323 116.356 36.6094C116.632 36.7865 117.13 36.9557 117.848 37.1172C118.572 37.2786 119.158 37.4714 119.606 37.6953C120.054 37.9193 120.385 38.1901 120.598 38.5078C120.817 38.8203 120.927 39.2031 120.927 39.6562C120.927 40.4115 120.624 41.0182 120.02 41.4766C119.416 41.9297 118.632 42.1562 117.669 42.1562C116.992 42.1562 116.393 42.0365 115.872 41.7969C115.351 41.5573 114.942 41.224 114.645 40.7969C114.354 40.3646 114.208 39.8984 114.208 39.3984H115.653C115.679 39.8828 115.872 40.2682 116.231 40.5547C116.596 40.8359 117.075 40.9766 117.669 40.9766C118.216 40.9766 118.653 40.8672 118.981 40.6484C119.315 40.4245 119.481 40.1276 119.481 39.7578ZM124.255 34.5703C124.895 33.7839 125.729 33.3906 126.755 33.3906C128.541 33.3906 129.442 34.3984 129.458 36.4141V42H128.012V36.4062C128.007 35.7969 127.867 35.3464 127.591 35.0547C127.32 34.763 126.895 34.6172 126.317 34.6172C125.848 34.6172 125.437 34.7422 125.083 34.9922C124.729 35.2422 124.453 35.5703 124.255 35.9766V42H122.809V30H124.255V34.5703ZM140.809 42C140.726 41.8333 140.658 41.5365 140.606 41.1094C139.934 41.8073 139.132 42.1562 138.2 42.1562C137.367 42.1562 136.682 41.9219 136.145 41.4531C135.614 40.9792 135.348 40.3802 135.348 39.6562C135.348 38.776 135.682 38.0938 136.348 37.6094C137.02 37.1198 137.963 36.875 139.177 36.875H140.583V36.2109C140.583 35.7057 140.432 35.3047 140.13 35.0078C139.828 34.7057 139.382 34.5547 138.794 34.5547C138.278 34.5547 137.846 34.6849 137.497 34.9453C137.148 35.2057 136.973 35.5208 136.973 35.8906H135.52C135.52 35.4688 135.669 35.0625 135.966 34.6719C136.268 34.276 136.674 33.9635 137.184 33.7344C137.7 33.5052 138.265 33.3906 138.88 33.3906C139.854 33.3906 140.617 33.6354 141.169 34.125C141.721 34.6094 142.007 35.2786 142.028 36.1328V40.0234C142.028 40.7995 142.127 41.4167 142.325 41.875V42H140.809ZM138.411 40.8984C138.864 40.8984 139.294 40.7812 139.7 40.5469C140.106 40.3125 140.4 40.0078 140.583 39.6328V37.8984H139.45C137.679 37.8984 136.794 38.4167 136.794 39.4531C136.794 39.9062 136.945 40.2604 137.247 40.5156C137.549 40.7708 137.937 40.8984 138.411 40.8984ZM151.434 37.8672C151.434 39.1536 151.14 40.1901 150.552 40.9766C149.963 41.763 149.166 42.1562 148.161 42.1562C147.135 42.1562 146.328 41.8307 145.739 41.1797V45.25H144.294V33.5469H145.614L145.684 34.4844C146.273 33.7552 147.091 33.3906 148.137 33.3906C149.153 33.3906 149.955 33.7734 150.544 34.5391C151.137 35.3047 151.434 36.3698 151.434 37.7344V37.8672ZM149.989 37.7031C149.989 36.75 149.786 35.9974 149.38 35.4453C148.973 34.8932 148.416 34.6172 147.708 34.6172C146.833 34.6172 146.177 35.0052 145.739 35.7812V39.8203C146.171 40.5911 146.833 40.9766 147.723 40.9766C148.416 40.9766 148.966 40.7031 149.372 40.1562C149.783 39.6042 149.989 38.7865 149.989 37.7031ZM160.419 37.8672C160.419 39.1536 160.124 40.1901 159.536 40.9766C158.947 41.763 158.15 42.1562 157.145 42.1562C156.119 42.1562 155.312 41.8307 154.723 41.1797V45.25H153.278V33.5469H154.598L154.669 34.4844C155.257 33.7552 156.075 33.3906 157.122 33.3906C158.137 33.3906 158.94 33.7734 159.528 34.5391C160.122 35.3047 160.419 36.3698 160.419 37.7344V37.8672ZM158.973 37.7031C158.973 36.75 158.77 35.9974 158.364 35.4453C157.958 34.8932 157.4 34.6172 156.692 34.6172C155.817 34.6172 155.161 35.0052 154.723 35.7812V39.8203C155.156 40.5911 155.817 40.9766 156.708 40.9766C157.4 40.9766 157.95 40.7031 158.356 40.1562C158.768 39.6042 158.973 38.7865 158.973 37.7031ZM163.833 42H162.387V30H163.833V42ZM167.723 42H166.278V33.5469H167.723V42ZM166.161 31.3047C166.161 31.0703 166.231 30.8724 166.372 30.7109C166.518 30.5495 166.731 30.4688 167.012 30.4688C167.294 30.4688 167.507 30.5495 167.653 30.7109C167.799 30.8724 167.872 31.0703 167.872 31.3047C167.872 31.5391 167.799 31.7344 167.653 31.8906C167.507 32.0469 167.294 32.125 167.012 32.125C166.731 32.125 166.518 32.0469 166.372 31.8906C166.231 31.7344 166.161 31.5391 166.161 31.3047ZM173.434 40.9766C173.95 40.9766 174.4 40.8203 174.786 40.5078C175.171 40.1953 175.385 39.8047 175.427 39.3359H176.794C176.768 39.8203 176.601 40.2812 176.294 40.7188C175.986 41.1562 175.575 41.5052 175.059 41.7656C174.549 42.026 174.007 42.1562 173.434 42.1562C172.283 42.1562 171.367 41.7734 170.684 41.0078C170.007 40.237 169.669 39.1849 169.669 37.8516V37.6094C169.669 36.7865 169.82 36.0547 170.122 35.4141C170.424 34.7734 170.856 34.276 171.419 33.9219C171.986 33.5677 172.656 33.3906 173.427 33.3906C174.374 33.3906 175.161 33.6745 175.786 34.2422C176.416 34.8099 176.752 35.5469 176.794 36.4531H175.427C175.385 35.9062 175.177 35.4583 174.802 35.1094C174.432 34.7552 173.973 34.5781 173.427 34.5781C172.692 34.5781 172.122 34.8438 171.716 35.375C171.315 35.901 171.114 36.6641 171.114 37.6641V37.9375C171.114 38.9115 171.315 39.6615 171.716 40.1875C172.117 40.7135 172.69 40.9766 173.434 40.9766ZM183.637 42C183.554 41.8333 183.486 41.5365 183.434 41.1094C182.762 41.8073 181.96 42.1562 181.028 42.1562C180.195 42.1562 179.51 41.9219 178.973 41.4531C178.442 40.9792 178.177 40.3802 178.177 39.6562C178.177 38.776 178.51 38.0938 179.177 37.6094C179.848 37.1198 180.791 36.875 182.005 36.875H183.411V36.2109C183.411 35.7057 183.26 35.3047 182.958 35.0078C182.656 34.7057 182.21 34.5547 181.622 34.5547C181.106 34.5547 180.674 34.6849 180.325 34.9453C179.976 35.2057 179.802 35.5208 179.802 35.8906H178.348C178.348 35.4688 178.497 35.0625 178.794 34.6719C179.096 34.276 179.502 33.9635 180.012 33.7344C180.528 33.5052 181.093 33.3906 181.708 33.3906C182.682 33.3906 183.445 33.6354 183.997 34.125C184.549 34.6094 184.835 35.2786 184.856 36.1328V40.0234C184.856 40.7995 184.955 41.4167 185.153 41.875V42H183.637ZM181.239 40.8984C181.692 40.8984 182.122 40.7812 182.528 40.5469C182.934 40.3125 183.229 40.0078 183.411 39.6328V37.8984H182.278C180.507 37.8984 179.622 38.4167 179.622 39.4531C179.622 39.9062 179.773 40.2604 180.075 40.5156C180.377 40.7708 180.765 40.8984 181.239 40.8984ZM189.083 31.5V33.5469H190.661V34.6641H189.083V39.9062C189.083 40.2448 189.153 40.5 189.294 40.6719C189.434 40.8385 189.674 40.9219 190.012 40.9219C190.179 40.9219 190.408 40.8906 190.7 40.8281V42C190.32 42.1042 189.95 42.1562 189.591 42.1562C188.945 42.1562 188.458 41.9609 188.13 41.5703C187.802 41.1797 187.637 40.625 187.637 39.9062V34.6641H186.098V33.5469H187.637V31.5H189.083ZM193.927 42H192.481V33.5469H193.927V42ZM192.364 31.3047C192.364 31.0703 192.434 30.8724 192.575 30.7109C192.721 30.5495 192.934 30.4688 193.216 30.4688C193.497 30.4688 193.71 30.5495 193.856 30.7109C194.002 30.8724 194.075 31.0703 194.075 31.3047C194.075 31.5391 194.002 31.7344 193.856 31.8906C193.71 32.0469 193.497 32.125 193.216 32.125C192.934 32.125 192.721 32.0469 192.575 31.8906C192.434 31.7344 192.364 31.5391 192.364 31.3047ZM195.864 37.6953C195.864 36.8672 196.025 36.1224 196.348 35.4609C196.677 34.7995 197.13 34.2891 197.708 33.9297C198.291 33.5703 198.955 33.3906 199.7 33.3906C200.851 33.3906 201.781 33.7891 202.489 34.5859C203.203 35.3828 203.559 36.4427 203.559 37.7656V37.8672C203.559 38.6901 203.4 39.4297 203.083 40.0859C202.77 40.737 202.32 41.2448 201.731 41.6094C201.148 41.974 200.476 42.1562 199.716 42.1562C198.57 42.1562 197.64 41.7578 196.927 40.9609C196.218 40.1641 195.864 39.1094 195.864 37.7969V37.6953ZM197.317 37.8672C197.317 38.8047 197.533 39.5573 197.966 40.125C198.403 40.6927 198.986 40.9766 199.716 40.9766C200.45 40.9766 201.033 40.6901 201.466 40.1172C201.898 39.5391 202.114 38.7318 202.114 37.6953C202.114 36.7682 201.893 36.0182 201.45 35.4453C201.012 34.8672 200.429 34.5781 199.7 34.5781C198.986 34.5781 198.411 34.862 197.973 35.4297C197.536 35.9974 197.317 36.8099 197.317 37.8672ZM206.739 33.5469L206.786 34.6094C207.432 33.7969 208.275 33.3906 209.317 33.3906C211.104 33.3906 212.005 34.3984 212.02 36.4141V42H210.575V36.4062C210.57 35.7969 210.429 35.3464 210.153 35.0547C209.882 34.763 209.458 34.6172 208.88 34.6172C208.411 34.6172 207.999 34.7422 207.645 34.9922C207.291 35.2422 207.015 35.5703 206.817 35.9766V42H205.372V33.5469H206.739ZM225.653 40.0078L227.278 33.5469H228.723L226.262 42H225.091L223.036 35.5938L221.036 42H219.864L217.411 33.5469H218.848L220.512 39.875L222.481 33.5469H223.645L225.653 40.0078ZM231.77 42H230.325V33.5469H231.77V42ZM230.208 31.3047C230.208 31.0703 230.278 30.8724 230.419 30.7109C230.565 30.5495 230.778 30.4688 231.059 30.4688C231.341 30.4688 231.554 30.5495 231.7 30.7109C231.846 30.8724 231.919 31.0703 231.919 31.3047C231.919 31.5391 231.846 31.7344 231.7 31.8906C231.554 32.0469 231.341 32.125 231.059 32.125C230.778 32.125 230.565 32.0469 230.419 31.8906C230.278 31.7344 230.208 31.5391 230.208 31.3047ZM235.661 42H234.216V30H235.661V42ZM239.552 42H238.106V30H239.552V42ZM250.762 39.7578C250.762 39.3672 250.614 39.0651 250.317 38.8516C250.025 38.6328 249.512 38.4453 248.778 38.2891C248.049 38.1328 247.468 37.9453 247.036 37.7266C246.609 37.5078 246.291 37.2474 246.083 36.9453C245.88 36.6432 245.778 36.2839 245.778 35.8672C245.778 35.1745 246.07 34.5885 246.653 34.1094C247.242 33.6302 247.992 33.3906 248.903 33.3906C249.861 33.3906 250.637 33.638 251.231 34.1328C251.83 34.6276 252.13 35.2604 252.13 36.0312H250.677C250.677 35.6354 250.507 35.2943 250.169 35.0078C249.835 34.7214 249.413 34.5781 248.903 34.5781C248.377 34.5781 247.966 34.6927 247.669 34.9219C247.372 35.151 247.223 35.4505 247.223 35.8203C247.223 36.1693 247.361 36.4323 247.637 36.6094C247.913 36.7865 248.411 36.9557 249.13 37.1172C249.854 37.2786 250.44 37.4714 250.887 37.6953C251.335 37.9193 251.666 38.1901 251.88 38.5078C252.098 38.8203 252.208 39.2031 252.208 39.6562C252.208 40.4115 251.906 41.0182 251.302 41.4766C250.697 41.9297 249.913 42.1562 248.95 42.1562C248.273 42.1562 247.674 42.0365 247.153 41.7969C246.632 41.5573 246.223 41.224 245.927 40.7969C245.635 40.3646 245.489 39.8984 245.489 39.3984H246.934C246.96 39.8828 247.153 40.2682 247.512 40.5547C247.877 40.8359 248.356 40.9766 248.95 40.9766C249.497 40.9766 249.934 40.8672 250.262 40.6484C250.596 40.4245 250.762 40.1276 250.762 39.7578ZM257.598 42.1562C256.453 42.1562 255.52 41.7812 254.802 41.0312C254.083 40.276 253.723 39.2682 253.723 38.0078V37.7422C253.723 36.9036 253.882 36.1562 254.2 35.5C254.523 34.8385 254.971 34.3229 255.544 33.9531C256.122 33.5781 256.747 33.3906 257.419 33.3906C258.518 33.3906 259.372 33.7526 259.981 34.4766C260.591 35.2005 260.895 36.237 260.895 37.5859V38.1875H255.169C255.19 39.0208 255.432 39.6953 255.895 40.2109C256.364 40.7214 256.958 40.9766 257.677 40.9766C258.187 40.9766 258.619 40.8724 258.973 40.6641C259.328 40.4557 259.637 40.1797 259.903 39.8359L260.786 40.5234C260.078 41.612 259.015 42.1562 257.598 42.1562ZM257.419 34.5781C256.835 34.5781 256.346 34.7917 255.95 35.2188C255.554 35.6406 255.309 36.2344 255.216 37H259.45V36.8906C259.408 36.1562 259.21 35.5885 258.856 35.1875C258.502 34.7812 258.023 34.5781 257.419 34.5781ZM267.794 42C267.71 41.8333 267.643 41.5365 267.591 41.1094C266.919 41.8073 266.117 42.1562 265.184 42.1562C264.351 42.1562 263.666 41.9219 263.13 41.4531C262.598 40.9792 262.333 40.3802 262.333 39.6562C262.333 38.776 262.666 38.0938 263.333 37.6094C264.005 37.1198 264.947 36.875 266.161 36.875H267.567V36.2109C267.567 35.7057 267.416 35.3047 267.114 35.0078C266.812 34.7057 266.367 34.5547 265.778 34.5547C265.262 34.5547 264.83 34.6849 264.481 34.9453C264.132 35.2057 263.958 35.5208 263.958 35.8906H262.505C262.505 35.4688 262.653 35.0625 262.95 34.6719C263.252 34.276 263.658 33.9635 264.169 33.7344C264.684 33.5052 265.249 33.3906 265.864 33.3906C266.838 33.3906 267.601 33.6354 268.153 34.125C268.705 34.6094 268.992 35.2786 269.012 36.1328V40.0234C269.012 40.7995 269.111 41.4167 269.309 41.875V42H267.794ZM265.395 40.8984C265.848 40.8984 266.278 40.7812 266.684 40.5469C267.091 40.3125 267.385 40.0078 267.567 39.6328V37.8984H266.434C264.663 37.8984 263.778 38.4167 263.778 39.4531C263.778 39.9062 263.929 40.2604 264.231 40.5156C264.533 40.7708 264.921 40.8984 265.395 40.8984ZM275.364 34.8438C275.145 34.8073 274.908 34.7891 274.653 34.7891C273.705 34.7891 273.062 35.1927 272.723 36V42H271.278V33.5469H272.684L272.708 34.5234C273.182 33.7682 273.854 33.3906 274.723 33.3906C275.005 33.3906 275.218 33.4271 275.364 33.5V34.8438ZM279.934 40.9766C280.45 40.9766 280.9 40.8203 281.286 40.5078C281.671 40.1953 281.885 39.8047 281.927 39.3359H283.294C283.268 39.8203 283.101 40.2812 282.794 40.7188C282.486 41.1562 282.075 41.5052 281.559 41.7656C281.049 42.026 280.507 42.1562 279.934 42.1562C278.783 42.1562 277.867 41.7734 277.184 41.0078C276.507 40.237 276.169 39.1849 276.169 37.8516V37.6094C276.169 36.7865 276.32 36.0547 276.622 35.4141C276.924 34.7734 277.356 34.276 277.919 33.9219C278.486 33.5677 279.156 33.3906 279.927 33.3906C280.874 33.3906 281.661 33.6745 282.286 34.2422C282.916 34.8099 283.252 35.5469 283.294 36.4531H281.927C281.885 35.9062 281.677 35.4583 281.302 35.1094C280.932 34.7552 280.473 34.5781 279.927 34.5781C279.192 34.5781 278.622 34.8438 278.216 35.375C277.815 35.901 277.614 36.6641 277.614 37.6641V37.9375C277.614 38.9115 277.815 39.6615 278.216 40.1875C278.617 40.7135 279.19 40.9766 279.934 40.9766ZM286.364 34.5703C287.005 33.7839 287.838 33.3906 288.864 33.3906C290.65 33.3906 291.552 34.3984 291.567 36.4141V42H290.122V36.4062C290.117 35.7969 289.976 35.3464 289.7 35.0547C289.429 34.763 289.005 34.6172 288.427 34.6172C287.958 34.6172 287.546 34.7422 287.192 34.9922C286.838 35.2422 286.562 35.5703 286.364 35.9766V42H284.919V30H286.364V34.5703ZM299.067 33.5469L299.114 34.6094C299.76 33.7969 300.604 33.3906 301.645 33.3906C303.432 33.3906 304.333 34.3984 304.348 36.4141V42H302.903V36.4062C302.898 35.7969 302.757 35.3464 302.481 35.0547C302.21 34.763 301.786 34.6172 301.208 34.6172C300.739 34.6172 300.328 34.7422 299.973 34.9922C299.619 35.2422 299.343 35.5703 299.145 35.9766V42H297.7V33.5469H299.067ZM310.036 42.1562C308.89 42.1562 307.958 41.7812 307.239 41.0312C306.52 40.276 306.161 39.2682 306.161 38.0078V37.7422C306.161 36.9036 306.32 36.1562 306.637 35.5C306.96 34.8385 307.408 34.3229 307.981 33.9531C308.559 33.5781 309.184 33.3906 309.856 33.3906C310.955 33.3906 311.809 33.7526 312.419 34.4766C313.028 35.2005 313.333 36.237 313.333 37.5859V38.1875H307.606C307.627 39.0208 307.869 39.6953 308.333 40.2109C308.802 40.7214 309.395 40.9766 310.114 40.9766C310.624 40.9766 311.057 40.8724 311.411 40.6641C311.765 40.4557 312.075 40.1797 312.341 39.8359L313.223 40.5234C312.515 41.612 311.453 42.1562 310.036 42.1562ZM309.856 34.5781C309.273 34.5781 308.783 34.7917 308.387 35.2188C307.992 35.6406 307.747 36.2344 307.653 37H311.887V36.8906C311.846 36.1562 311.648 35.5885 311.294 35.1875C310.94 34.7812 310.46 34.5781 309.856 34.5781ZM320.231 42C320.148 41.8333 320.08 41.5365 320.028 41.1094C319.356 41.8073 318.554 42.1562 317.622 42.1562C316.788 42.1562 316.104 41.9219 315.567 41.4531C315.036 40.9792 314.77 40.3802 314.77 39.6562C314.77 38.776 315.104 38.0938 315.77 37.6094C316.442 37.1198 317.385 36.875 318.598 36.875H320.005V36.2109C320.005 35.7057 319.854 35.3047 319.552 35.0078C319.249 34.7057 318.804 34.5547 318.216 34.5547C317.7 34.5547 317.268 34.6849 316.919 34.9453C316.57 35.2057 316.395 35.5208 316.395 35.8906H314.942C314.942 35.4688 315.091 35.0625 315.387 34.6719C315.69 34.276 316.096 33.9635 316.606 33.7344C317.122 33.5052 317.687 33.3906 318.302 33.3906C319.275 33.3906 320.038 33.6354 320.591 34.125C321.143 34.6094 321.429 35.2786 321.45 36.1328V40.0234C321.45 40.7995 321.549 41.4167 321.747 41.875V42H320.231ZM317.833 40.8984C318.286 40.8984 318.716 40.7812 319.122 40.5469C319.528 40.3125 319.822 40.0078 320.005 39.6328V37.8984H318.872C317.101 37.8984 316.216 38.4167 316.216 39.4531C316.216 39.9062 316.367 40.2604 316.669 40.5156C316.971 40.7708 317.359 40.8984 317.833 40.8984ZM327.802 34.8438C327.583 34.8073 327.346 34.7891 327.091 34.7891C326.143 34.7891 325.499 35.1927 325.161 36V42H323.716V33.5469H325.122L325.145 34.5234C325.619 33.7682 326.291 33.3906 327.161 33.3906C327.442 33.3906 327.656 33.4271 327.802 33.5V34.8438ZM336.294 37.8672C336.294 39.1589 335.997 40.1979 335.403 40.9844C334.809 41.7656 334.012 42.1562 333.012 42.1562C331.945 42.1562 331.119 41.7786 330.536 41.0234L330.466 42H329.137V30H330.583V34.4766C331.166 33.7526 331.971 33.3906 332.997 33.3906C334.023 33.3906 334.828 33.7786 335.411 34.5547C335.999 35.3307 336.294 36.3932 336.294 37.7422V37.8672ZM334.848 37.7031C334.848 36.7188 334.658 35.9583 334.278 35.4219C333.898 34.8854 333.351 34.6172 332.637 34.6172C331.684 34.6172 330.999 35.0599 330.583 35.9453V39.6016C331.025 40.487 331.716 40.9297 332.653 40.9297C333.346 40.9297 333.885 40.6615 334.27 40.125C334.656 39.5885 334.848 38.7812 334.848 37.7031ZM340.794 39.8828L342.762 33.5469H344.309L340.911 43.3047C340.385 44.7109 339.549 45.4141 338.403 45.4141L338.13 45.3906L337.591 45.2891V44.1172L337.981 44.1484C338.471 44.1484 338.851 44.0495 339.122 43.8516C339.398 43.6536 339.624 43.2917 339.802 42.7656L340.122 41.9062L337.106 33.5469H338.684L340.794 39.8828ZM354.794 41.1641C354.231 41.8255 353.406 42.1562 352.317 42.1562C351.416 42.1562 350.729 41.8958 350.255 41.375C349.786 40.849 349.549 40.0729 349.544 39.0469V33.5469H350.989V39.0078C350.989 40.2891 351.51 40.9297 352.552 40.9297C353.656 40.9297 354.39 40.5182 354.755 39.6953V33.5469H356.2V42H354.825L354.794 41.1641ZM363.325 39.7578C363.325 39.3672 363.177 39.0651 362.88 38.8516C362.588 38.6328 362.075 38.4453 361.341 38.2891C360.611 38.1328 360.031 37.9453 359.598 37.7266C359.171 37.5078 358.854 37.2474 358.645 36.9453C358.442 36.6432 358.341 36.2839 358.341 35.8672C358.341 35.1745 358.632 34.5885 359.216 34.1094C359.804 33.6302 360.554 33.3906 361.466 33.3906C362.424 33.3906 363.2 33.638 363.794 34.1328C364.393 34.6276 364.692 35.2604 364.692 36.0312H363.239C363.239 35.6354 363.07 35.2943 362.731 35.0078C362.398 34.7214 361.976 34.5781 361.466 34.5781C360.94 34.5781 360.528 34.6927 360.231 34.9219C359.934 35.151 359.786 35.4505 359.786 35.8203C359.786 36.1693 359.924 36.4323 360.2 36.6094C360.476 36.7865 360.973 36.9557 361.692 37.1172C362.416 37.2786 363.002 37.4714 363.45 37.6953C363.898 37.9193 364.229 38.1901 364.442 38.5078C364.661 38.8203 364.77 39.2031 364.77 39.6562C364.77 40.4115 364.468 41.0182 363.864 41.4766C363.26 41.9297 362.476 42.1562 361.512 42.1562C360.835 42.1562 360.236 42.0365 359.716 41.7969C359.195 41.5573 358.786 41.224 358.489 40.7969C358.197 40.3646 358.052 39.8984 358.052 39.3984H359.497C359.523 39.8828 359.716 40.2682 360.075 40.5547C360.44 40.8359 360.919 40.9766 361.512 40.9766C362.059 40.9766 362.497 40.8672 362.825 40.6484C363.158 40.4245 363.325 40.1276 363.325 39.7578ZM370.161 42.1562C369.015 42.1562 368.083 41.7812 367.364 41.0312C366.645 40.276 366.286 39.2682 366.286 38.0078V37.7422C366.286 36.9036 366.445 36.1562 366.762 35.5C367.085 34.8385 367.533 34.3229 368.106 33.9531C368.684 33.5781 369.309 33.3906 369.981 33.3906C371.08 33.3906 371.934 33.7526 372.544 34.4766C373.153 35.2005 373.458 36.237 373.458 37.5859V38.1875H367.731C367.752 39.0208 367.994 39.6953 368.458 40.2109C368.927 40.7214 369.52 40.9766 370.239 40.9766C370.749 40.9766 371.182 40.8724 371.536 40.6641C371.89 40.4557 372.2 40.1797 372.466 39.8359L373.348 40.5234C372.64 41.612 371.578 42.1562 370.161 42.1562ZM369.981 34.5781C369.398 34.5781 368.908 34.7917 368.512 35.2188C368.117 35.6406 367.872 36.2344 367.778 37H372.012V36.8906C371.971 36.1562 371.773 35.5885 371.419 35.1875C371.065 34.7812 370.585 34.5781 369.981 34.5781ZM379.223 34.8438C379.005 34.8073 378.768 34.7891 378.512 34.7891C377.565 34.7891 376.921 35.1927 376.583 36V42H375.137V33.5469H376.544L376.567 34.5234C377.041 33.7682 377.713 33.3906 378.583 33.3906C378.864 33.3906 379.078 33.4271 379.223 33.5V34.8438ZM385.481 39.7578C385.481 39.3672 385.333 39.0651 385.036 38.8516C384.744 38.6328 384.231 38.4453 383.497 38.2891C382.768 38.1328 382.187 37.9453 381.755 37.7266C381.328 37.5078 381.01 37.2474 380.802 36.9453C380.598 36.6432 380.497 36.2839 380.497 35.8672C380.497 35.1745 380.788 34.5885 381.372 34.1094C381.96 33.6302 382.71 33.3906 383.622 33.3906C384.58 33.3906 385.356 33.638 385.95 34.1328C386.549 34.6276 386.848 35.2604 386.848 36.0312H385.395C385.395 35.6354 385.226 35.2943 384.887 35.0078C384.554 34.7214 384.132 34.5781 383.622 34.5781C383.096 34.5781 382.684 34.6927 382.387 34.9219C382.091 35.151 381.942 35.4505 381.942 35.8203C381.942 36.1693 382.08 36.4323 382.356 36.6094C382.632 36.7865 383.13 36.9557 383.848 37.1172C384.572 37.2786 385.158 37.4714 385.606 37.6953C386.054 37.9193 386.385 38.1901 386.598 38.5078C386.817 38.8203 386.927 39.2031 386.927 39.6562C386.927 40.4115 386.624 41.0182 386.02 41.4766C385.416 41.9297 384.632 42.1562 383.669 42.1562C382.992 42.1562 382.393 42.0365 381.872 41.7969C381.351 41.5573 380.942 41.224 380.645 40.7969C380.354 40.3646 380.208 39.8984 380.208 39.3984H381.653C381.679 39.8828 381.872 40.2682 382.231 40.5547C382.596 40.8359 383.075 40.9766 383.669 40.9766C384.216 40.9766 384.653 40.8672 384.981 40.6484C385.315 40.4245 385.481 40.1276 385.481 39.7578ZM388.841 41.2422C388.841 40.9922 388.913 40.7839 389.059 40.6172C389.21 40.4505 389.434 40.3672 389.731 40.3672C390.028 40.3672 390.252 40.4505 390.403 40.6172C390.559 40.7839 390.637 40.9922 390.637 41.2422C390.637 41.4818 390.559 41.6823 390.403 41.8438C390.252 42.0052 390.028 42.0859 389.731 42.0859C389.434 42.0859 389.21 42.0052 389.059 41.8438C388.913 41.6823 388.841 41.4818 388.841 41.2422Z" fill="#656668"/>
<path d="M19.1108 47.744H34.5028V45.312H23.4948C27.6228 41.952 33.8308 37.056 33.8308 31.296C33.8308 27.008 31.0148 24.448 26.6628 24.448C22.5028 24.448 19.3988 27.008 19.2068 31.936H22.0228C22.1508 29.024 23.6868 26.944 26.6948 26.944C29.8308 26.944 30.9508 28.864 30.9508 31.424C30.9508 36.16 25.1908 40.768 19.1108 45.664V47.744Z" fill="#656668"/>
</svg>
