<svg width="557" height="75" viewBox="0 0 557 75" fill="none" xmlns="http://www.w3.org/2000/svg">
<path d="M70.0437 31.625V39.3594C70.0385 40.4323 69.7 41.3099 69.0281 41.9922C68.3614 42.6745 67.4552 43.0573 66.3093 43.1406L65.9109 43.1562C64.6661 43.1562 63.6739 42.8203 62.9343 42.1484C62.1947 41.4766 61.8197 40.5521 61.8093 39.375V31.625H63.2937V39.3281C63.2937 40.151 63.5203 40.7917 63.9734 41.25C64.4265 41.7031 65.0723 41.9297 65.9109 41.9297C66.7598 41.9297 67.4083 41.7031 67.8562 41.25C68.3093 40.7969 68.5359 40.1589 68.5359 39.3359V31.625H70.0437ZM77.1062 40.7578C77.1062 40.3672 76.9578 40.0651 76.6609 39.8516C76.3692 39.6328 75.8562 39.4453 75.1218 39.2891C74.3927 39.1328 73.8119 38.9453 73.3796 38.7266C72.9526 38.5078 72.6348 38.2474 72.4265 37.9453C72.2234 37.6432 72.1218 37.2839 72.1218 36.8672C72.1218 36.1745 72.4135 35.5885 72.9968 35.1094C73.5854 34.6302 74.3354 34.3906 75.2468 34.3906C76.2052 34.3906 76.9812 34.638 77.575 35.1328C78.1739 35.6276 78.4734 36.2604 78.4734 37.0312H77.0203C77.0203 36.6354 76.851 36.2943 76.5125 36.0078C76.1791 35.7214 75.7572 35.5781 75.2468 35.5781C74.7208 35.5781 74.3093 35.6927 74.0125 35.9219C73.7156 36.151 73.5671 36.4505 73.5671 36.8203C73.5671 37.1693 73.7052 37.4323 73.9812 37.6094C74.2572 37.7865 74.7546 37.9557 75.4734 38.1172C76.1973 38.2786 76.7833 38.4714 77.2312 38.6953C77.6791 38.9193 78.0098 39.1901 78.2234 39.5078C78.4421 39.8203 78.5515 40.2031 78.5515 40.6562C78.5515 41.4115 78.2494 42.0182 77.6453 42.4766C77.0411 42.9297 76.2572 43.1562 75.2937 43.1562C74.6166 43.1562 74.0177 43.0365 73.4968 42.7969C72.976 42.5573 72.5671 42.224 72.2703 41.7969C71.9786 41.3646 71.8328 40.8984 71.8328 40.3984H73.2781C73.3041 40.8828 73.4968 41.2682 73.8562 41.5547C74.2208 41.8359 74.7 41.9766 75.2937 41.9766C75.8406 41.9766 76.2781 41.8672 76.6062 41.6484C76.9395 41.4245 77.1062 41.1276 77.1062 40.7578ZM83.9421 43.1562C82.7963 43.1562 81.864 42.7812 81.1453 42.0312C80.4265 41.276 80.0671 40.2682 80.0671 39.0078V38.7422C80.0671 37.9036 80.226 37.1562 80.5437 36.5C80.8666 35.8385 81.3145 35.3229 81.8875 34.9531C82.4656 34.5781 83.0906 34.3906 83.7625 34.3906C84.8614 34.3906 85.7156 34.7526 86.325 35.4766C86.9343 36.2005 87.239 37.237 87.239 38.5859V39.1875H81.5125C81.5333 40.0208 81.7755 40.6953 82.239 41.2109C82.7078 41.7214 83.3015 41.9766 84.0203 41.9766C84.5307 41.9766 84.963 41.8724 85.3171 41.6641C85.6713 41.4557 85.9812 41.1797 86.2468 40.8359L87.1296 41.5234C86.4213 42.612 85.3588 43.1562 83.9421 43.1562ZM83.7625 35.5781C83.1791 35.5781 82.6895 35.7917 82.2937 36.2188C81.8979 36.6406 81.6531 37.2344 81.5593 38H85.7937V37.8906C85.752 37.1562 85.5541 36.5885 85.2 36.1875C84.8458 35.7812 84.3666 35.5781 83.7625 35.5781ZM93.0046 35.8438C92.7859 35.8073 92.5489 35.7891 92.2937 35.7891C91.3458 35.7891 90.7026 36.1927 90.364 37V43H88.9187V34.5469H90.325L90.3484 35.5234C90.8223 34.7682 91.4942 34.3906 92.364 34.3906C92.6453 34.3906 92.8588 34.4271 93.0046 34.5V35.8438ZM99.2625 40.7578C99.2625 40.3672 99.114 40.0651 98.8171 39.8516C98.5255 39.6328 98.0125 39.4453 97.2781 39.2891C96.5489 39.1328 95.9682 38.9453 95.5359 38.7266C95.1088 38.5078 94.7911 38.2474 94.5828 37.9453C94.3796 37.6432 94.2781 37.2839 94.2781 36.8672C94.2781 36.1745 94.5697 35.5885 95.1531 35.1094C95.7416 34.6302 96.4916 34.3906 97.4031 34.3906C98.3614 34.3906 99.1375 34.638 99.7312 35.1328C100.33 35.6276 100.63 36.2604 100.63 37.0312H99.1765C99.1765 36.6354 99.0072 36.2943 98.6687 36.0078C98.3354 35.7214 97.9135 35.5781 97.4031 35.5781C96.877 35.5781 96.4656 35.6927 96.1687 35.9219C95.8718 36.151 95.7234 36.4505 95.7234 36.8203C95.7234 37.1693 95.8614 37.4323 96.1375 37.6094C96.4135 37.7865 96.9109 37.9557 97.6296 38.1172C98.3536 38.2786 98.9395 38.4714 99.3875 38.6953C99.8354 38.9193 100.166 39.1901 100.38 39.5078C100.598 39.8203 100.708 40.2031 100.708 40.6562C100.708 41.4115 100.406 42.0182 99.8015 42.4766C99.1973 42.9297 98.4135 43.1562 97.45 43.1562C96.7729 43.1562 96.1739 43.0365 95.6531 42.7969C95.1322 42.5573 94.7234 42.224 94.4265 41.7969C94.1348 41.3646 93.989 40.8984 93.989 40.3984H95.4343C95.4604 40.8828 95.6531 41.2682 96.0125 41.5547C96.377 41.8359 96.8562 41.9766 97.45 41.9766C97.9968 41.9766 98.4343 41.8672 98.7625 41.6484C99.0958 41.4245 99.2625 41.1276 99.2625 40.7578ZM111.778 43C111.695 42.8333 111.627 42.5365 111.575 42.1094C110.903 42.8073 110.101 43.1562 109.169 43.1562C108.335 43.1562 107.65 42.9219 107.114 42.4531C106.583 41.9792 106.317 41.3802 106.317 40.6562C106.317 39.776 106.65 39.0938 107.317 38.6094C107.989 38.1198 108.932 37.875 110.145 37.875H111.552V37.2109C111.552 36.7057 111.4 36.3047 111.098 36.0078C110.796 35.7057 110.351 35.5547 109.762 35.5547C109.247 35.5547 108.815 35.6849 108.466 35.9453C108.117 36.2057 107.942 36.5208 107.942 36.8906H106.489C106.489 36.4688 106.637 36.0625 106.934 35.6719C107.236 35.276 107.643 34.9635 108.153 34.7344C108.669 34.5052 109.234 34.3906 109.848 34.3906C110.822 34.3906 111.585 34.6354 112.137 35.125C112.69 35.6094 112.976 36.2786 112.997 37.1328V41.0234C112.997 41.7995 113.096 42.4167 113.294 42.875V43H111.778ZM109.38 41.8984C109.833 41.8984 110.262 41.7812 110.669 41.5469C111.075 41.3125 111.369 41.0078 111.552 40.6328V38.8984H110.419C108.648 38.8984 107.762 39.4167 107.762 40.4531C107.762 40.9062 107.913 41.2604 108.216 41.5156C108.518 41.7708 108.906 41.8984 109.38 41.8984ZM119.348 35.8438C119.13 35.8073 118.893 35.7891 118.637 35.7891C117.69 35.7891 117.046 36.1927 116.708 37V43H115.262V34.5469H116.669L116.692 35.5234C117.166 34.7682 117.838 34.3906 118.708 34.3906C118.989 34.3906 119.203 34.4271 119.348 34.5V35.8438ZM120.145 38.6953C120.145 37.8672 120.307 37.1224 120.63 36.4609C120.958 35.7995 121.411 35.2891 121.989 34.9297C122.572 34.5703 123.236 34.3906 123.981 34.3906C125.132 34.3906 126.062 34.7891 126.77 35.5859C127.484 36.3828 127.841 37.4427 127.841 38.7656V38.8672C127.841 39.6901 127.682 40.4297 127.364 41.0859C127.052 41.737 126.601 42.2448 126.012 42.6094C125.429 42.974 124.757 43.1562 123.997 43.1562C122.851 43.1562 121.921 42.7578 121.208 41.9609C120.499 41.1641 120.145 40.1094 120.145 38.7969V38.6953ZM121.598 38.8672C121.598 39.8047 121.815 40.5573 122.247 41.125C122.684 41.6927 123.268 41.9766 123.997 41.9766C124.731 41.9766 125.315 41.6901 125.747 41.1172C126.179 40.5391 126.395 39.7318 126.395 38.6953C126.395 37.7682 126.174 37.0182 125.731 36.4453C125.294 35.8672 124.71 35.5781 123.981 35.5781C123.268 35.5781 122.692 35.862 122.255 36.4297C121.817 36.9974 121.598 37.8099 121.598 38.8672ZM134.872 42.1641C134.309 42.8255 133.484 43.1562 132.395 43.1562C131.494 43.1562 130.807 42.8958 130.333 42.375C129.864 41.849 129.627 41.0729 129.622 40.0469V34.5469H131.067V40.0078C131.067 41.2891 131.588 41.9297 132.63 41.9297C133.734 41.9297 134.468 41.5182 134.833 40.6953V34.5469H136.278V43H134.903L134.872 42.1641ZM139.848 34.5469L139.895 35.6094C140.541 34.7969 141.385 34.3906 142.427 34.3906C144.213 34.3906 145.114 35.3984 145.13 37.4141V43H143.684V37.4062C143.679 36.7969 143.538 36.3464 143.262 36.0547C142.992 35.763 142.567 35.6172 141.989 35.6172C141.52 35.6172 141.109 35.7422 140.755 35.9922C140.4 36.2422 140.124 36.5703 139.927 36.9766V43H138.481V34.5469H139.848ZM146.958 38.7031C146.958 37.4062 147.265 36.3646 147.88 35.5781C148.494 34.7865 149.299 34.3906 150.294 34.3906C151.283 34.3906 152.067 34.7292 152.645 35.4062V31H154.091V43H152.762L152.692 42.0938C152.114 42.8021 151.309 43.1562 150.278 43.1562C149.299 43.1562 148.499 42.7552 147.88 41.9531C147.265 41.151 146.958 40.1042 146.958 38.8125V38.7031ZM148.403 38.8672C148.403 39.8255 148.601 40.5755 148.997 41.1172C149.393 41.6589 149.94 41.9297 150.637 41.9297C151.554 41.9297 152.223 41.5182 152.645 40.6953V36.8125C152.213 36.0156 151.549 35.6172 150.653 35.6172C149.945 35.6172 149.393 35.8906 148.997 36.4375C148.601 36.9844 148.403 37.7943 148.403 38.8672ZM167.794 41.0078L169.419 34.5469H170.864L168.403 43H167.231L165.177 36.5938L163.177 43H162.005L159.552 34.5469H160.989L162.653 40.875L164.622 34.5469H165.786L167.794 41.0078ZM173.911 43H172.466V34.5469H173.911V43ZM172.348 32.3047C172.348 32.0703 172.419 31.8724 172.559 31.7109C172.705 31.5495 172.919 31.4688 173.2 31.4688C173.481 31.4688 173.695 31.5495 173.841 31.7109C173.986 31.8724 174.059 32.0703 174.059 32.3047C174.059 32.5391 173.986 32.7344 173.841 32.8906C173.695 33.0469 173.481 33.125 173.2 33.125C172.919 33.125 172.705 33.0469 172.559 32.8906C172.419 32.7344 172.348 32.5391 172.348 32.3047ZM177.802 43H176.356V31H177.802V43ZM181.692 43H180.247V31H181.692V43ZM195.122 38.8672C195.122 40.1536 194.828 41.1901 194.239 41.9766C193.65 42.763 192.854 43.1562 191.848 43.1562C190.822 43.1562 190.015 42.8307 189.427 42.1797V46.25H187.981V34.5469H189.302L189.372 35.4844C189.96 34.7552 190.778 34.3906 191.825 34.3906C192.841 34.3906 193.643 34.7734 194.231 35.5391C194.825 36.3047 195.122 37.3698 195.122 38.7344V38.8672ZM193.677 38.7031C193.677 37.75 193.473 36.9974 193.067 36.4453C192.661 35.8932 192.104 35.6172 191.395 35.6172C190.52 35.6172 189.864 36.0052 189.427 36.7812V40.8203C189.859 41.5911 190.52 41.9766 191.411 41.9766C192.104 41.9766 192.653 41.7031 193.059 41.1562C193.471 40.6042 193.677 39.7865 193.677 38.7031ZM196.583 38.6953C196.583 37.8672 196.744 37.1224 197.067 36.4609C197.395 35.7995 197.848 35.2891 198.427 34.9297C199.01 34.5703 199.674 34.3906 200.419 34.3906C201.57 34.3906 202.499 34.7891 203.208 35.5859C203.921 36.3828 204.278 37.4427 204.278 38.7656V38.8672C204.278 39.6901 204.119 40.4297 203.802 41.0859C203.489 41.737 203.038 42.2448 202.45 42.6094C201.867 42.974 201.195 43.1562 200.434 43.1562C199.288 43.1562 198.359 42.7578 197.645 41.9609C196.937 41.1641 196.583 40.1094 196.583 38.7969V38.6953ZM198.036 38.8672C198.036 39.8047 198.252 40.5573 198.684 41.125C199.122 41.6927 199.705 41.9766 200.434 41.9766C201.169 41.9766 201.752 41.6901 202.184 41.1172C202.617 40.5391 202.833 39.7318 202.833 38.6953C202.833 37.7682 202.611 37.0182 202.169 36.4453C201.731 35.8672 201.148 35.5781 200.419 35.5781C199.705 35.5781 199.13 35.862 198.692 36.4297C198.255 36.9974 198.036 37.8099 198.036 38.8672ZM213.231 38.8672C213.231 40.1536 212.937 41.1901 212.348 41.9766C211.76 42.763 210.963 43.1562 209.958 43.1562C208.932 43.1562 208.124 42.8307 207.536 42.1797V46.25H206.091V34.5469H207.411L207.481 35.4844C208.07 34.7552 208.887 34.3906 209.934 34.3906C210.95 34.3906 211.752 34.7734 212.341 35.5391C212.934 36.3047 213.231 37.3698 213.231 38.7344V38.8672ZM211.786 38.7031C211.786 37.75 211.583 36.9974 211.177 36.4453C210.77 35.8932 210.213 35.6172 209.505 35.6172C208.63 35.6172 207.973 36.0052 207.536 36.7812V40.8203C207.968 41.5911 208.63 41.9766 209.52 41.9766C210.213 41.9766 210.762 41.7031 211.169 41.1562C211.58 40.6042 211.786 39.7865 211.786 38.7031ZM218.661 38.6953C218.661 37.8672 218.822 37.1224 219.145 36.4609C219.473 35.7995 219.927 35.2891 220.505 34.9297C221.088 34.5703 221.752 34.3906 222.497 34.3906C223.648 34.3906 224.578 34.7891 225.286 35.5859C225.999 36.3828 226.356 37.4427 226.356 38.7656V38.8672C226.356 39.6901 226.197 40.4297 225.88 41.0859C225.567 41.737 225.117 42.2448 224.528 42.6094C223.945 42.974 223.273 43.1562 222.512 43.1562C221.367 43.1562 220.437 42.7578 219.723 41.9609C219.015 41.1641 218.661 40.1094 218.661 38.7969V38.6953ZM220.114 38.8672C220.114 39.8047 220.33 40.5573 220.762 41.125C221.2 41.6927 221.783 41.9766 222.512 41.9766C223.247 41.9766 223.83 41.6901 224.262 41.1172C224.695 40.5391 224.911 39.7318 224.911 38.6953C224.911 37.7682 224.69 37.0182 224.247 36.4453C223.809 35.8672 223.226 35.5781 222.497 35.5781C221.783 35.5781 221.208 35.862 220.77 36.4297C220.333 36.9974 220.114 37.8099 220.114 38.8672ZM229.536 34.5469L229.583 35.6094C230.229 34.7969 231.072 34.3906 232.114 34.3906C233.9 34.3906 234.802 35.3984 234.817 37.4141V43H233.372V37.4062C233.367 36.7969 233.226 36.3464 232.95 36.0547C232.679 35.763 232.255 35.6172 231.677 35.6172C231.208 35.6172 230.796 35.7422 230.442 35.9922C230.088 36.2422 229.812 36.5703 229.614 36.9766V43H228.169V34.5469H229.536ZM242.927 32.5V34.5469H244.505V35.6641H242.927V40.9062C242.927 41.2448 242.997 41.5 243.137 41.6719C243.278 41.8385 243.518 41.9219 243.856 41.9219C244.023 41.9219 244.252 41.8906 244.544 41.8281V43C244.163 43.1042 243.794 43.1562 243.434 43.1562C242.788 43.1562 242.302 42.9609 241.973 42.5703C241.645 42.1797 241.481 41.625 241.481 40.9062V35.6641H239.942V34.5469H241.481V32.5H242.927ZM247.645 35.5703C248.286 34.7839 249.119 34.3906 250.145 34.3906C251.932 34.3906 252.833 35.3984 252.848 37.4141V43H251.403V37.4062C251.398 36.7969 251.257 36.3464 250.981 36.0547C250.71 35.763 250.286 35.6172 249.708 35.6172C249.239 35.6172 248.828 35.7422 248.473 35.9922C248.119 36.2422 247.843 36.5703 247.645 36.9766V43H246.2V31H247.645V35.5703ZM258.52 43.1562C257.374 43.1562 256.442 42.7812 255.723 42.0312C255.005 41.276 254.645 40.2682 254.645 39.0078V38.7422C254.645 37.9036 254.804 37.1562 255.122 36.5C255.445 35.8385 255.893 35.3229 256.466 34.9531C257.044 34.5781 257.669 34.3906 258.341 34.3906C259.44 34.3906 260.294 34.7526 260.903 35.4766C261.512 36.2005 261.817 37.237 261.817 38.5859V39.1875H256.091C256.111 40.0208 256.354 40.6953 256.817 41.2109C257.286 41.7214 257.88 41.9766 258.598 41.9766C259.109 41.9766 259.541 41.8724 259.895 41.6641C260.249 41.4557 260.559 41.1797 260.825 40.8359L261.708 41.5234C260.999 42.612 259.937 43.1562 258.52 43.1562ZM258.341 35.5781C257.757 35.5781 257.268 35.7917 256.872 36.2188C256.476 36.6406 256.231 37.2344 256.137 38H260.372V37.8906C260.33 37.1562 260.132 36.5885 259.778 36.1875C259.424 35.7812 258.945 35.5781 258.341 35.5781ZM272.684 43C272.601 42.8333 272.533 42.5365 272.481 42.1094C271.809 42.8073 271.007 43.1562 270.075 43.1562C269.242 43.1562 268.557 42.9219 268.02 42.4531C267.489 41.9792 267.223 41.3802 267.223 40.6562C267.223 39.776 267.557 39.0938 268.223 38.6094C268.895 38.1198 269.838 37.875 271.052 37.875H272.458V37.2109C272.458 36.7057 272.307 36.3047 272.005 36.0078C271.703 35.7057 271.257 35.5547 270.669 35.5547C270.153 35.5547 269.721 35.6849 269.372 35.9453C269.023 36.2057 268.848 36.5208 268.848 36.8906H267.395C267.395 36.4688 267.544 36.0625 267.841 35.6719C268.143 35.276 268.549 34.9635 269.059 34.7344C269.575 34.5052 270.14 34.3906 270.755 34.3906C271.729 34.3906 272.492 34.6354 273.044 35.125C273.596 35.6094 273.882 36.2786 273.903 37.1328V41.0234C273.903 41.7995 274.002 42.4167 274.2 42.875V43H272.684ZM270.286 41.8984C270.739 41.8984 271.169 41.7812 271.575 41.5469C271.981 41.3125 272.275 41.0078 272.458 40.6328V38.8984H271.325C269.554 38.8984 268.669 39.4167 268.669 40.4531C268.669 40.9062 268.82 41.2604 269.122 41.5156C269.424 41.7708 269.812 41.8984 270.286 41.8984ZM283.309 38.8672C283.309 40.1536 283.015 41.1901 282.427 41.9766C281.838 42.763 281.041 43.1562 280.036 43.1562C279.01 43.1562 278.203 42.8307 277.614 42.1797V46.25H276.169V34.5469H277.489L277.559 35.4844C278.148 34.7552 278.966 34.3906 280.012 34.3906C281.028 34.3906 281.83 34.7734 282.419 35.5391C283.012 36.3047 283.309 37.3698 283.309 38.7344V38.8672ZM281.864 38.7031C281.864 37.75 281.661 36.9974 281.255 36.4453C280.848 35.8932 280.291 35.6172 279.583 35.6172C278.708 35.6172 278.052 36.0052 277.614 36.7812V40.8203C278.046 41.5911 278.708 41.9766 279.598 41.9766C280.291 41.9766 280.841 41.7031 281.247 41.1562C281.658 40.6042 281.864 39.7865 281.864 38.7031ZM292.294 38.8672C292.294 40.1536 291.999 41.1901 291.411 41.9766C290.822 42.763 290.025 43.1562 289.02 43.1562C287.994 43.1562 287.187 42.8307 286.598 42.1797V46.25H285.153V34.5469H286.473L286.544 35.4844C287.132 34.7552 287.95 34.3906 288.997 34.3906C290.012 34.3906 290.815 34.7734 291.403 35.5391C291.997 36.3047 292.294 37.3698 292.294 38.7344V38.8672ZM290.848 38.7031C290.848 37.75 290.645 36.9974 290.239 36.4453C289.833 35.8932 289.275 35.6172 288.567 35.6172C287.692 35.6172 287.036 36.0052 286.598 36.7812V40.8203C287.031 41.5911 287.692 41.9766 288.583 41.9766C289.275 41.9766 289.825 41.7031 290.231 41.1562C290.643 40.6042 290.848 39.7865 290.848 38.7031ZM295.708 43H294.262V31H295.708V43ZM299.598 43H298.153V34.5469H299.598V43ZM298.036 32.3047C298.036 32.0703 298.106 31.8724 298.247 31.7109C298.393 31.5495 298.606 31.4688 298.887 31.4688C299.169 31.4688 299.382 31.5495 299.528 31.7109C299.674 31.8724 299.747 32.0703 299.747 32.3047C299.747 32.5391 299.674 32.7344 299.528 32.8906C299.382 33.0469 299.169 33.125 298.887 33.125C298.606 33.125 298.393 33.0469 298.247 32.8906C298.106 32.7344 298.036 32.5391 298.036 32.3047ZM305.309 41.9766C305.825 41.9766 306.275 41.8203 306.661 41.5078C307.046 41.1953 307.26 40.8047 307.302 40.3359H308.669C308.643 40.8203 308.476 41.2812 308.169 41.7188C307.861 42.1562 307.45 42.5052 306.934 42.7656C306.424 43.026 305.882 43.1562 305.309 43.1562C304.158 43.1562 303.242 42.7734 302.559 42.0078C301.882 41.237 301.544 40.1849 301.544 38.8516V38.6094C301.544 37.7865 301.695 37.0547 301.997 36.4141C302.299 35.7734 302.731 35.276 303.294 34.9219C303.861 34.5677 304.531 34.3906 305.302 34.3906C306.249 34.3906 307.036 34.6745 307.661 35.2422C308.291 35.8099 308.627 36.5469 308.669 37.4531H307.302C307.26 36.9062 307.052 36.4583 306.677 36.1094C306.307 35.7552 305.848 35.5781 305.302 35.5781C304.567 35.5781 303.997 35.8438 303.591 36.375C303.19 36.901 302.989 37.6641 302.989 38.6641V38.9375C302.989 39.9115 303.19 40.6615 303.591 41.1875C303.992 41.7135 304.565 41.9766 305.309 41.9766ZM315.512 43C315.429 42.8333 315.361 42.5365 315.309 42.1094C314.637 42.8073 313.835 43.1562 312.903 43.1562C312.07 43.1562 311.385 42.9219 310.848 42.4531C310.317 41.9792 310.052 41.3802 310.052 40.6562C310.052 39.776 310.385 39.0938 311.052 38.6094C311.723 38.1198 312.666 37.875 313.88 37.875H315.286V37.2109C315.286 36.7057 315.135 36.3047 314.833 36.0078C314.531 35.7057 314.085 35.5547 313.497 35.5547C312.981 35.5547 312.549 35.6849 312.2 35.9453C311.851 36.2057 311.677 36.5208 311.677 36.8906H310.223C310.223 36.4688 310.372 36.0625 310.669 35.6719C310.971 35.276 311.377 34.9635 311.887 34.7344C312.403 34.5052 312.968 34.3906 313.583 34.3906C314.557 34.3906 315.32 34.6354 315.872 35.125C316.424 35.6094 316.71 36.2786 316.731 37.1328V41.0234C316.731 41.7995 316.83 42.4167 317.028 42.875V43H315.512ZM313.114 41.8984C313.567 41.8984 313.997 41.7812 314.403 41.5469C314.809 41.3125 315.104 41.0078 315.286 40.6328V38.8984H314.153C312.382 38.8984 311.497 39.4167 311.497 40.4531C311.497 40.9062 311.648 41.2604 311.95 41.5156C312.252 41.7708 312.64 41.8984 313.114 41.8984ZM320.958 32.5V34.5469H322.536V35.6641H320.958V40.9062C320.958 41.2448 321.028 41.5 321.169 41.6719C321.309 41.8385 321.549 41.9219 321.887 41.9219C322.054 41.9219 322.283 41.8906 322.575 41.8281V43C322.195 43.1042 321.825 43.1562 321.466 43.1562C320.82 43.1562 320.333 42.9609 320.005 42.5703C319.677 42.1797 319.512 41.625 319.512 40.9062V35.6641H317.973V34.5469H319.512V32.5H320.958ZM325.802 43H324.356V34.5469H325.802V43ZM324.239 32.3047C324.239 32.0703 324.309 31.8724 324.45 31.7109C324.596 31.5495 324.809 31.4688 325.091 31.4688C325.372 31.4688 325.585 31.5495 325.731 31.7109C325.877 31.8724 325.95 32.0703 325.95 32.3047C325.95 32.5391 325.877 32.7344 325.731 32.8906C325.585 33.0469 325.372 33.125 325.091 33.125C324.809 33.125 324.596 33.0469 324.45 32.8906C324.309 32.7344 324.239 32.5391 324.239 32.3047ZM327.739 38.6953C327.739 37.8672 327.9 37.1224 328.223 36.4609C328.552 35.7995 329.005 35.2891 329.583 34.9297C330.166 34.5703 330.83 34.3906 331.575 34.3906C332.726 34.3906 333.656 34.7891 334.364 35.5859C335.078 36.3828 335.434 37.4427 335.434 38.7656V38.8672C335.434 39.6901 335.275 40.4297 334.958 41.0859C334.645 41.737 334.195 42.2448 333.606 42.6094C333.023 42.974 332.351 43.1562 331.591 43.1562C330.445 43.1562 329.515 42.7578 328.802 41.9609C328.093 41.1641 327.739 40.1094 327.739 38.7969V38.6953ZM329.192 38.8672C329.192 39.8047 329.408 40.5573 329.841 41.125C330.278 41.6927 330.861 41.9766 331.591 41.9766C332.325 41.9766 332.908 41.6901 333.341 41.1172C333.773 40.5391 333.989 39.7318 333.989 38.6953C333.989 37.7682 333.768 37.0182 333.325 36.4453C332.887 35.8672 332.304 35.5781 331.575 35.5781C330.861 35.5781 330.286 35.862 329.848 36.4297C329.411 36.9974 329.192 37.8099 329.192 38.8672ZM338.614 34.5469L338.661 35.6094C339.307 34.7969 340.15 34.3906 341.192 34.3906C342.979 34.3906 343.88 35.3984 343.895 37.4141V43H342.45V37.4062C342.445 36.7969 342.304 36.3464 342.028 36.0547C341.757 35.763 341.333 35.6172 340.755 35.6172C340.286 35.6172 339.874 35.7422 339.52 35.9922C339.166 36.2422 338.89 36.5703 338.692 36.9766V43H337.247V34.5469H338.614ZM354.966 40.7578C354.966 40.3672 354.817 40.0651 354.52 39.8516C354.229 39.6328 353.716 39.4453 352.981 39.2891C352.252 39.1328 351.671 38.9453 351.239 38.7266C350.812 38.5078 350.494 38.2474 350.286 37.9453C350.083 37.6432 349.981 37.2839 349.981 36.8672C349.981 36.1745 350.273 35.5885 350.856 35.1094C351.445 34.6302 352.195 34.3906 353.106 34.3906C354.065 34.3906 354.841 34.638 355.434 35.1328C356.033 35.6276 356.333 36.2604 356.333 37.0312H354.88C354.88 36.6354 354.71 36.2943 354.372 36.0078C354.038 35.7214 353.617 35.5781 353.106 35.5781C352.58 35.5781 352.169 35.6927 351.872 35.9219C351.575 36.151 351.427 36.4505 351.427 36.8203C351.427 37.1693 351.565 37.4323 351.841 37.6094C352.117 37.7865 352.614 37.9557 353.333 38.1172C354.057 38.2786 354.643 38.4714 355.091 38.6953C355.538 38.9193 355.869 39.1901 356.083 39.5078C356.302 39.8203 356.411 40.2031 356.411 40.6562C356.411 41.4115 356.109 42.0182 355.505 42.4766C354.9 42.9297 354.117 43.1562 353.153 43.1562C352.476 43.1562 351.877 43.0365 351.356 42.7969C350.835 42.5573 350.427 42.224 350.13 41.7969C349.838 41.3646 349.692 40.8984 349.692 40.3984H351.137C351.163 40.8828 351.356 41.2682 351.716 41.5547C352.08 41.8359 352.559 41.9766 353.153 41.9766C353.7 41.9766 354.137 41.8672 354.466 41.6484C354.799 41.4245 354.966 41.1276 354.966 40.7578ZM361.684 41.9766C362.2 41.9766 362.65 41.8203 363.036 41.5078C363.421 41.1953 363.635 40.8047 363.677 40.3359H365.044C365.018 40.8203 364.851 41.2812 364.544 41.7188C364.236 42.1562 363.825 42.5052 363.309 42.7656C362.799 43.026 362.257 43.1562 361.684 43.1562C360.533 43.1562 359.617 42.7734 358.934 42.0078C358.257 41.237 357.919 40.1849 357.919 38.8516V38.6094C357.919 37.7865 358.07 37.0547 358.372 36.4141C358.674 35.7734 359.106 35.276 359.669 34.9219C360.236 34.5677 360.906 34.3906 361.677 34.3906C362.624 34.3906 363.411 34.6745 364.036 35.2422C364.666 35.8099 365.002 36.5469 365.044 37.4531H363.677C363.635 36.9062 363.427 36.4583 363.052 36.1094C362.682 35.7552 362.223 35.5781 361.677 35.5781C360.942 35.5781 360.372 35.8438 359.966 36.375C359.565 36.901 359.364 37.6641 359.364 38.6641V38.9375C359.364 39.9115 359.565 40.6615 359.966 41.1875C360.367 41.7135 360.94 41.9766 361.684 41.9766ZM370.755 35.8438C370.536 35.8073 370.299 35.7891 370.044 35.7891C369.096 35.7891 368.453 36.1927 368.114 37V43H366.669V34.5469H368.075L368.098 35.5234C368.572 34.7682 369.244 34.3906 370.114 34.3906C370.395 34.3906 370.609 34.4271 370.755 34.5V35.8438ZM375.442 43.1562C374.296 43.1562 373.364 42.7812 372.645 42.0312C371.927 41.276 371.567 40.2682 371.567 39.0078V38.7422C371.567 37.9036 371.726 37.1562 372.044 36.5C372.367 35.8385 372.815 35.3229 373.387 34.9531C373.966 34.5781 374.591 34.3906 375.262 34.3906C376.361 34.3906 377.216 34.7526 377.825 35.4766C378.434 36.2005 378.739 37.237 378.739 38.5859V39.1875H373.012C373.033 40.0208 373.275 40.6953 373.739 41.2109C374.208 41.7214 374.802 41.9766 375.52 41.9766C376.031 41.9766 376.463 41.8724 376.817 41.6641C377.171 41.4557 377.481 41.1797 377.747 40.8359L378.63 41.5234C377.921 42.612 376.859 43.1562 375.442 43.1562ZM375.262 35.5781C374.679 35.5781 374.19 35.7917 373.794 36.2188C373.398 36.6406 373.153 37.2344 373.059 38H377.294V37.8906C377.252 37.1562 377.054 36.5885 376.7 36.1875C376.346 35.7812 375.867 35.5781 375.262 35.5781ZM383.927 43.1562C382.781 43.1562 381.848 42.7812 381.13 42.0312C380.411 41.276 380.052 40.2682 380.052 39.0078V38.7422C380.052 37.9036 380.21 37.1562 380.528 36.5C380.851 35.8385 381.299 35.3229 381.872 34.9531C382.45 34.5781 383.075 34.3906 383.747 34.3906C384.846 34.3906 385.7 34.7526 386.309 35.4766C386.919 36.2005 387.223 37.237 387.223 38.5859V39.1875H381.497C381.518 40.0208 381.76 40.6953 382.223 41.2109C382.692 41.7214 383.286 41.9766 384.005 41.9766C384.515 41.9766 384.947 41.8724 385.302 41.6641C385.656 41.4557 385.966 41.1797 386.231 40.8359L387.114 41.5234C386.406 42.612 385.343 43.1562 383.927 43.1562ZM383.747 35.5781C383.163 35.5781 382.674 35.7917 382.278 36.2188C381.882 36.6406 381.637 37.2344 381.544 38H385.778V37.8906C385.736 37.1562 385.538 36.5885 385.184 36.1875C384.83 35.7812 384.351 35.5781 383.747 35.5781ZM390.27 34.5469L390.317 35.6094C390.963 34.7969 391.807 34.3906 392.848 34.3906C394.635 34.3906 395.536 35.3984 395.552 37.4141V43H394.106V37.4062C394.101 36.7969 393.96 36.3464 393.684 36.0547C393.413 35.763 392.989 35.6172 392.411 35.6172C391.942 35.6172 391.531 35.7422 391.177 35.9922C390.822 36.2422 390.546 36.5703 390.348 36.9766V43H388.903V34.5469H390.27ZM397.762 42.2422C397.762 41.9922 397.835 41.7839 397.981 41.6172C398.132 41.4505 398.356 41.3672 398.653 41.3672C398.95 41.3672 399.174 41.4505 399.325 41.6172C399.481 41.7839 399.559 41.9922 399.559 42.2422C399.559 42.4818 399.481 42.6823 399.325 42.8438C399.174 43.0052 398.95 43.0859 398.653 43.0859C398.356 43.0859 398.132 43.0052 397.981 42.8438C397.835 42.6823 397.762 42.4818 397.762 42.2422Z" fill="#656668"/>
<path d="M18.4788 31.688H21.3268C21.6148 29.448 23.2468 27.912 25.9668 27.912C28.7508 27.912 30.2228 29.448 30.2228 31.656C30.2228 34.344 28.1428 35.528 24.2708 35.56H23.5028V37.992H24.2388C28.3988 37.992 30.6708 39.24 30.6708 42.504C30.6708 44.872 29.1988 46.696 26.0948 46.696C23.0228 46.696 21.2308 44.808 20.9428 42.344H18.1268C18.4788 46.824 21.7428 49.16 26.1268 49.16C30.9588 49.16 33.4548 46.344 33.4548 42.76C33.4548 39.432 31.6308 37.448 28.9428 36.808V36.648C31.3748 36.104 33.0388 34.024 33.0388 31.368C33.0388 28.04 30.5748 25.416 26.0628 25.416C21.7748 25.416 18.7668 27.72 18.4788 31.688Z" fill="#656668"/>
</svg>
