<svg width="188" height="74" viewBox="0 0 188 74" fill="none" xmlns="http://www.w3.org/2000/svg">
<path d="M22.1576 10.8478C22.1576 13.5648 24.1466 15.4628 26.6816 15.4628C28.6446 15.4628 30.2046 14.4878 30.8806 12.7458H29.4636C28.9696 13.8248 28.0076 14.4358 26.6816 14.4358C24.7836 14.4358 23.3666 13.0578 23.3666 10.8478C23.3666 8.62477 24.7836 7.24677 26.6816 7.24677C28.0076 7.24677 28.9696 7.85776 29.4636 8.94977H30.8806C30.2046 7.19476 28.6446 6.20677 26.6816 6.20677C24.1466 6.20677 22.1576 8.13077 22.1576 10.8478ZM39.4016 11.8098C39.4016 9.56077 37.8286 8.14377 35.8006 8.14377C33.7856 8.14377 32.1996 9.56077 32.1996 11.8098C32.1996 14.0718 33.7336 15.5018 35.7486 15.5018C37.7766 15.5018 39.4016 14.0718 39.4016 11.8098ZM33.4086 11.8098C33.4086 10.0158 34.5396 9.17077 35.7876 9.17077C37.0096 9.17077 38.1926 10.0158 38.1926 11.8098C38.1926 13.6168 36.9836 14.4618 35.7486 14.4618C34.5136 14.4618 33.4086 13.6168 33.4086 11.8098ZM46.1701 15.3848H47.3401V11.1858C47.3401 9.14477 46.0791 8.13077 44.4281 8.13077C43.4661 8.13077 42.6081 8.53377 42.1401 9.27477V8.26077H40.9571V15.3848H42.1401V11.4458C42.1401 9.91177 42.9721 9.15777 44.1811 9.15777C45.3771 9.15777 46.1701 9.89877 46.1701 11.3548V15.3848ZM54.3945 13.4478C54.3425 10.8998 50.2085 11.8228 50.2085 10.1328C50.2085 9.56077 50.7285 9.14477 51.5995 9.14477C52.5485 9.14477 53.0945 9.66477 53.1465 10.3798H54.3295C54.2515 8.98877 53.2115 8.14377 51.6385 8.14377C50.0525 8.14377 49.0255 9.04077 49.0255 10.1328C49.0255 12.7848 53.2375 11.8618 53.2375 13.4478C53.2375 14.0328 52.7175 14.5008 51.7815 14.5008C50.7805 14.5008 50.1695 13.9808 50.1045 13.2918H48.8825C48.9605 14.5918 50.1305 15.5018 51.7945 15.5018C53.3675 15.5018 54.3945 14.6178 54.3945 13.4478ZM62.3825 8.26077H61.1995V12.1738C61.1995 13.7078 60.3805 14.4618 59.1585 14.4618C57.9625 14.4618 57.1695 13.7208 57.1695 12.2778V8.26077H55.9995V12.4338C55.9995 14.4748 57.2865 15.4888 58.9245 15.4888C59.8735 15.4888 60.7445 15.0728 61.1995 14.3318V15.3848H62.3825V8.26077ZM74.6629 15.3848H75.8329V11.1858C75.8329 9.14477 74.5719 8.13077 72.9469 8.13077C71.8549 8.13077 70.8409 8.68977 70.4249 9.71677C69.9569 8.65077 68.9819 8.13077 67.8119 8.13077C66.8759 8.13077 66.0309 8.53377 65.5629 9.28777V8.26077H64.3799V15.3848H65.5629V11.4588C65.5629 9.92477 66.3819 9.15777 67.5779 9.15777C68.7479 9.15777 69.5279 9.89877 69.5279 11.3548V15.3848H70.6979V11.4588C70.6979 9.92477 71.5169 9.15777 72.7129 9.15777C73.8829 9.15777 74.6629 9.89877 74.6629 11.3548V15.3848ZM80.8025 9.14477C82.0245 9.14477 83.0645 9.91177 83.0515 11.3028H78.5535C78.6835 9.91177 79.6455 9.14477 80.8025 9.14477ZM84.1305 13.1878H82.8565C82.5965 13.9548 81.9205 14.5008 80.8545 14.5008C79.6455 14.5008 78.6315 13.7078 78.5405 12.2648H84.2345C84.2605 12.0178 84.2735 11.8098 84.2735 11.5498C84.2735 9.59977 82.9215 8.14377 80.8545 8.14377C78.7745 8.14377 77.3315 9.56077 77.3315 11.8098C77.3315 14.0718 78.8265 15.5018 80.8545 15.5018C82.6225 15.5018 83.7665 14.4878 84.1305 13.1878ZM87.018 11.5108C87.018 9.85977 87.876 9.35277 89.007 9.35277H89.319V8.13077C88.188 8.13077 87.421 8.62477 87.018 9.41777V8.26077H85.835V15.3848H87.018V11.5108ZM99.3634 15.3848H100.533V11.1858C100.533 9.14477 99.2724 8.13077 97.6214 8.13077C96.6594 8.13077 95.8014 8.53377 95.3334 9.27477V8.26077H94.1504V15.3848H95.3334V11.4458C95.3334 9.91177 96.1654 9.15777 97.3744 9.15777C98.5704 9.15777 99.3634 9.89877 99.3634 11.3548V15.3848ZM105.495 9.14477C106.717 9.14477 107.757 9.91177 107.744 11.3028H103.246C103.376 9.91177 104.338 9.14477 105.495 9.14477ZM108.823 13.1878H107.549C107.289 13.9548 106.613 14.5008 105.547 14.5008C104.338 14.5008 103.324 13.7078 103.233 12.2648H108.927C108.953 12.0178 108.966 11.8098 108.966 11.5498C108.966 9.59977 107.614 8.14377 105.547 8.14377C103.467 8.14377 102.024 9.56077 102.024 11.8098C102.024 14.0718 103.519 15.5018 105.547 15.5018C107.315 15.5018 108.459 14.4878 108.823 13.1878ZM113.556 9.14477C114.778 9.14477 115.818 9.91177 115.805 11.3028H111.307C111.437 9.91177 112.399 9.14477 113.556 9.14477ZM116.884 13.1878H115.61C115.35 13.9548 114.674 14.5008 113.608 14.5008C112.399 14.5008 111.385 13.7078 111.294 12.2648H116.988C117.014 12.0178 117.027 11.8098 117.027 11.5498C117.027 9.59977 115.675 8.14377 113.608 8.14377C111.528 8.14377 110.085 9.56077 110.085 11.8098C110.085 14.0718 111.58 15.5018 113.608 15.5018C115.376 15.5018 116.52 14.4878 116.884 13.1878ZM118.147 11.7968C118.147 14.0068 119.616 15.5018 121.527 15.5018C122.827 15.5018 123.75 14.8388 124.179 14.0458V15.3848H125.375V5.76477H124.179V9.53477C123.685 8.71577 122.658 8.14377 121.54 8.14377C119.616 8.14377 118.147 9.57377 118.147 11.7968ZM124.179 11.8098C124.179 13.4868 123.061 14.4618 121.761 14.4618C120.461 14.4618 119.356 13.4738 119.356 11.7968C119.356 10.1198 120.461 9.17077 121.761 9.17077C123.061 9.17077 124.179 10.1588 124.179 11.8098ZM135.962 13.4478C135.91 10.8998 131.776 11.8228 131.776 10.1328C131.776 9.56077 132.296 9.14477 133.167 9.14477C134.116 9.14477 134.662 9.66477 134.714 10.3798H135.897C135.819 8.98877 134.779 8.14377 133.206 8.14377C131.62 8.14377 130.593 9.04077 130.593 10.1328C130.593 12.7848 134.805 11.8618 134.805 13.4478C134.805 14.0328 134.285 14.5008 133.349 14.5008C132.348 14.5008 131.737 13.9808 131.672 13.2918H130.45C130.528 14.5918 131.698 15.5018 133.362 15.5018C134.935 15.5018 135.962 14.6178 135.962 13.4478ZM144.392 11.8098C144.392 9.56077 142.819 8.14377 140.791 8.14377C138.776 8.14377 137.19 9.56077 137.19 11.8098C137.19 14.0718 138.724 15.5018 140.739 15.5018C142.767 15.5018 144.392 14.0718 144.392 11.8098ZM138.399 11.8098C138.399 10.0158 139.53 9.17077 140.778 9.17077C142 9.17077 143.183 10.0158 143.183 11.8098C143.183 13.6168 141.974 14.4618 140.739 14.4618C139.504 14.4618 138.399 13.6168 138.399 11.8098ZM156.23 15.3848H157.4V11.1858C157.4 9.14477 156.139 8.13077 154.514 8.13077C153.422 8.13077 152.408 8.68977 151.992 9.71677C151.524 8.65077 150.549 8.13077 149.379 8.13077C148.443 8.13077 147.598 8.53377 147.13 9.28777V8.26077H145.947V15.3848H147.13V11.4588C147.13 9.92477 147.949 9.15777 149.145 9.15777C150.315 9.15777 151.095 9.89877 151.095 11.3548V15.3848H152.265V11.4588C152.265 9.92477 153.084 9.15777 154.28 9.15777C155.45 9.15777 156.23 9.89877 156.23 11.3548V15.3848ZM162.37 9.14477C163.592 9.14477 164.632 9.91177 164.619 11.3028H160.121C160.251 9.91177 161.213 9.14477 162.37 9.14477ZM165.698 13.1878H164.424C164.164 13.9548 163.488 14.5008 162.422 14.5008C161.213 14.5008 160.199 13.7078 160.108 12.2648H165.802C165.828 12.0178 165.841 11.8098 165.841 11.5498C165.841 9.59977 164.489 8.14377 162.422 8.14377C160.342 8.14377 158.899 9.56077 158.899 11.8098C158.899 14.0718 160.394 15.5018 162.422 15.5018C164.19 15.5018 165.334 14.4878 165.698 13.1878ZM82.5784 35.3848H83.7484V31.1858C83.7484 29.1448 82.4874 28.1308 80.8624 28.1308C79.7704 28.1308 78.7564 28.6898 78.3404 29.7168C77.8724 28.6508 76.8974 28.1308 75.7274 28.1308C74.7914 28.1308 73.9464 28.5338 73.4784 29.2878V28.2608H72.2954V35.3848H73.4784V31.4588C73.4784 29.9248 74.2974 29.1578 75.4934 29.1578C76.6634 29.1578 77.4434 29.8988 77.4434 31.3548V35.3848H78.6134V31.4588C78.6134 29.9248 79.4324 29.1578 80.6284 29.1578C81.7984 29.1578 82.5784 29.8988 82.5784 31.3548V35.3848ZM92.449 31.8098C92.449 29.5608 90.876 28.1438 88.848 28.1438C86.833 28.1438 85.247 29.5608 85.247 31.8098C85.247 34.0718 86.781 35.5018 88.796 35.5018C90.824 35.5018 92.449 34.0718 92.449 31.8098ZM86.456 31.8098C86.456 30.0158 87.587 29.1708 88.835 29.1708C90.057 29.1708 91.24 30.0158 91.24 31.8098C91.24 33.6168 90.031 34.4618 88.796 34.4618C87.561 34.4618 86.456 33.6168 86.456 31.8098ZM99.2174 35.3848H100.387V31.1858C100.387 29.1448 99.1264 28.1308 97.4754 28.1308C96.5134 28.1308 95.6554 28.5338 95.1874 29.2748V28.2608H94.0044V35.3848H95.1874V31.4458C95.1874 29.9118 96.0194 29.1578 97.2284 29.1578C98.4244 29.1578 99.2174 29.8988 99.2174 31.3548V35.3848ZM105.349 29.1448C106.571 29.1448 107.611 29.9118 107.598 31.3028H103.1C103.23 29.9118 104.192 29.1448 105.349 29.1448ZM108.677 33.1878H107.403C107.143 33.9548 106.467 34.5008 105.401 34.5008C104.192 34.5008 103.178 33.7078 103.087 32.2648H108.781C108.807 32.0178 108.82 31.8098 108.82 31.5498C108.82 29.5998 107.468 28.1438 105.401 28.1438C103.321 28.1438 101.878 29.5608 101.878 31.8098C101.878 34.0718 103.373 35.5018 105.401 35.5018C107.169 35.5018 108.313 34.4878 108.677 33.1878ZM113.085 34.0328L110.849 28.2608H109.536L112.409 35.3068L111.005 38.7388H112.227L116.517 28.2608H115.295L113.085 34.0328Z" fill="#494B52"/>
</svg>
