<svg width="595" height="113" viewBox="0 0 595 113" fill="none" xmlns="http://www.w3.org/2000/svg">
<g filter="url(#filter0_d)">
<rect x="19" y="16" width="556.56" height="75" rx="24" fill="white"/>
</g>
<path d="M89.0439 42.625V50.3594C89.0387 51.4323 88.7002 52.3099 88.0283 52.9922C87.3617 53.6745 86.4554 54.0573 85.3096 54.1406L84.9111 54.1562C83.6663 54.1562 82.6742 53.8203 81.9346 53.1484C81.195 52.4766 80.82 51.5521 80.8096 50.375V42.625H82.2939V50.3281C82.2939 51.151 82.5205 51.7917 82.9736 52.25C83.4268 52.7031 84.0726 52.9297 84.9111 52.9297C85.7601 52.9297 86.4085 52.7031 86.8564 52.25C87.3096 51.7969 87.5361 51.1589 87.5361 50.3359V42.625H89.0439ZM96.1064 51.7578C96.1064 51.3672 95.958 51.0651 95.6611 50.8516C95.3695 50.6328 94.8564 50.4453 94.1221 50.2891C93.3929 50.1328 92.8122 49.9453 92.3799 49.7266C91.9528 49.5078 91.6351 49.2474 91.4268 48.9453C91.2236 48.6432 91.1221 48.2839 91.1221 47.8672C91.1221 47.1745 91.4137 46.5885 91.9971 46.1094C92.5856 45.6302 93.3356 45.3906 94.2471 45.3906C95.2054 45.3906 95.9814 45.638 96.5752 46.1328C97.1742 46.6276 97.4736 47.2604 97.4736 48.0312H96.0205C96.0205 47.6354 95.8512 47.2943 95.5127 47.0078C95.1794 46.7214 94.7575 46.5781 94.2471 46.5781C93.721 46.5781 93.3096 46.6927 93.0127 46.9219C92.7158 47.151 92.5674 47.4505 92.5674 47.8203C92.5674 48.1693 92.7054 48.4323 92.9814 48.6094C93.2575 48.7865 93.7549 48.9557 94.4736 49.1172C95.1976 49.2786 95.7835 49.4714 96.2314 49.6953C96.6794 49.9193 97.0101 50.1901 97.2236 50.5078C97.4424 50.8203 97.5518 51.2031 97.5518 51.6562C97.5518 52.4115 97.2497 53.0182 96.6455 53.4766C96.0413 53.9297 95.2575 54.1562 94.2939 54.1562C93.6169 54.1562 93.0179 54.0365 92.4971 53.7969C91.9762 53.5573 91.5674 53.224 91.2705 52.7969C90.9788 52.3646 90.833 51.8984 90.833 51.3984H92.2783C92.3044 51.8828 92.4971 52.2682 92.8564 52.5547C93.221 52.8359 93.7002 52.9766 94.2939 52.9766C94.8408 52.9766 95.2783 52.8672 95.6064 52.6484C95.9398 52.4245 96.1064 52.1276 96.1064 51.7578ZM102.942 54.1562C101.797 54.1562 100.864 53.7812 100.146 53.0312C99.4268 52.276 99.0674 51.2682 99.0674 50.0078V49.7422C99.0674 48.9036 99.2262 48.1562 99.5439 47.5C99.8669 46.8385 100.315 46.3229 100.888 45.9531C101.466 45.5781 102.091 45.3906 102.763 45.3906C103.862 45.3906 104.716 45.7526 105.325 46.4766C105.935 47.2005 106.239 48.237 106.239 49.5859V50.1875H100.513C100.534 51.0208 100.776 51.6953 101.239 52.2109C101.708 52.7214 102.302 52.9766 103.021 52.9766C103.531 52.9766 103.963 52.8724 104.317 52.6641C104.672 52.4557 104.981 52.1797 105.247 51.8359L106.13 52.5234C105.422 53.612 104.359 54.1562 102.942 54.1562ZM102.763 46.5781C102.179 46.5781 101.69 46.7917 101.294 47.2188C100.898 47.6406 100.653 48.2344 100.56 49H104.794V48.8906C104.752 48.1562 104.554 47.5885 104.2 47.1875C103.846 46.7812 103.367 46.5781 102.763 46.5781ZM112.005 46.8438C111.786 46.8073 111.549 46.7891 111.294 46.7891C110.346 46.7891 109.703 47.1927 109.364 48V54H107.919V45.5469H109.325L109.349 46.5234C109.823 45.7682 110.494 45.3906 111.364 45.3906C111.646 45.3906 111.859 45.4271 112.005 45.5V46.8438ZM118.263 51.7578C118.263 51.3672 118.114 51.0651 117.817 50.8516C117.526 50.6328 117.013 50.4453 116.278 50.2891C115.549 50.1328 114.968 49.9453 114.536 49.7266C114.109 49.5078 113.791 49.2474 113.583 48.9453C113.38 48.6432 113.278 48.2839 113.278 47.8672C113.278 47.1745 113.57 46.5885 114.153 46.1094C114.742 45.6302 115.492 45.3906 116.403 45.3906C117.362 45.3906 118.138 45.638 118.731 46.1328C119.33 46.6276 119.63 47.2604 119.63 48.0312H118.177C118.177 47.6354 118.007 47.2943 117.669 47.0078C117.336 46.7214 116.914 46.5781 116.403 46.5781C115.877 46.5781 115.466 46.6927 115.169 46.9219C114.872 47.151 114.724 47.4505 114.724 47.8203C114.724 48.1693 114.862 48.4323 115.138 48.6094C115.414 48.7865 115.911 48.9557 116.63 49.1172C117.354 49.2786 117.94 49.4714 118.388 49.6953C118.836 49.9193 119.166 50.1901 119.38 50.5078C119.599 50.8203 119.708 51.2031 119.708 51.6562C119.708 52.4115 119.406 53.0182 118.802 53.4766C118.198 53.9297 117.414 54.1562 116.45 54.1562C115.773 54.1562 115.174 54.0365 114.653 53.7969C114.132 53.5573 113.724 53.224 113.427 52.7969C113.135 52.3646 112.989 51.8984 112.989 51.3984H114.435C114.461 51.8828 114.653 52.2682 115.013 52.5547C115.377 52.8359 115.856 52.9766 116.45 52.9766C116.997 52.9766 117.435 52.8672 117.763 52.6484C118.096 52.4245 118.263 52.1276 118.263 51.7578ZM130.778 54C130.695 53.8333 130.627 53.5365 130.575 53.1094C129.903 53.8073 129.101 54.1562 128.169 54.1562C127.336 54.1562 126.651 53.9219 126.114 53.4531C125.583 52.9792 125.317 52.3802 125.317 51.6562C125.317 50.776 125.651 50.0938 126.317 49.6094C126.989 49.1198 127.932 48.875 129.146 48.875H130.552V48.2109C130.552 47.7057 130.401 47.3047 130.099 47.0078C129.797 46.7057 129.351 46.5547 128.763 46.5547C128.247 46.5547 127.815 46.6849 127.466 46.9453C127.117 47.2057 126.942 47.5208 126.942 47.8906H125.489C125.489 47.4688 125.638 47.0625 125.935 46.6719C126.237 46.276 126.643 45.9635 127.153 45.7344C127.669 45.5052 128.234 45.3906 128.849 45.3906C129.823 45.3906 130.586 45.6354 131.138 46.125C131.69 46.6094 131.976 47.2786 131.997 48.1328V52.0234C131.997 52.7995 132.096 53.4167 132.294 53.875V54H130.778ZM128.38 52.8984C128.833 52.8984 129.263 52.7812 129.669 52.5469C130.075 52.3125 130.369 52.0078 130.552 51.6328V49.8984H129.419C127.648 49.8984 126.763 50.4167 126.763 51.4531C126.763 51.9062 126.914 52.2604 127.216 52.5156C127.518 52.7708 127.906 52.8984 128.38 52.8984ZM138.349 46.8438C138.13 46.8073 137.893 46.7891 137.638 46.7891C136.69 46.7891 136.047 47.1927 135.708 48V54H134.263V45.5469H135.669L135.692 46.5234C136.166 45.7682 136.838 45.3906 137.708 45.3906C137.989 45.3906 138.203 45.4271 138.349 45.5V46.8438ZM139.146 49.6953C139.146 48.8672 139.307 48.1224 139.63 47.4609C139.958 46.7995 140.411 46.2891 140.989 45.9297C141.573 45.5703 142.237 45.3906 142.981 45.3906C144.132 45.3906 145.062 45.7891 145.771 46.5859C146.484 47.3828 146.841 48.4427 146.841 49.7656V49.8672C146.841 50.6901 146.682 51.4297 146.364 52.0859C146.052 52.737 145.601 53.2448 145.013 53.6094C144.429 53.974 143.757 54.1562 142.997 54.1562C141.851 54.1562 140.922 53.7578 140.208 52.9609C139.5 52.1641 139.146 51.1094 139.146 49.7969V49.6953ZM140.599 49.8672C140.599 50.8047 140.815 51.5573 141.247 52.125C141.685 52.6927 142.268 52.9766 142.997 52.9766C143.731 52.9766 144.315 52.6901 144.747 52.1172C145.179 51.5391 145.396 50.7318 145.396 49.6953C145.396 48.7682 145.174 48.0182 144.731 47.4453C144.294 46.8672 143.711 46.5781 142.981 46.5781C142.268 46.5781 141.692 46.862 141.255 47.4297C140.817 47.9974 140.599 48.8099 140.599 49.8672ZM153.872 53.1641C153.31 53.8255 152.484 54.1562 151.396 54.1562C150.494 54.1562 149.807 53.8958 149.333 53.375C148.864 52.849 148.627 52.0729 148.622 51.0469V45.5469H150.067V51.0078C150.067 52.2891 150.588 52.9297 151.63 52.9297C152.734 52.9297 153.468 52.5182 153.833 51.6953V45.5469H155.278V54H153.903L153.872 53.1641ZM158.849 45.5469L158.896 46.6094C159.541 45.7969 160.385 45.3906 161.427 45.3906C163.213 45.3906 164.114 46.3984 164.13 48.4141V54H162.685V48.4062C162.679 47.7969 162.539 47.3464 162.263 47.0547C161.992 46.763 161.567 46.6172 160.989 46.6172C160.521 46.6172 160.109 46.7422 159.755 46.9922C159.401 47.2422 159.125 47.5703 158.927 47.9766V54H157.481V45.5469H158.849ZM165.958 49.7031C165.958 48.4062 166.265 47.3646 166.88 46.5781C167.494 45.7865 168.299 45.3906 169.294 45.3906C170.284 45.3906 171.067 45.7292 171.646 46.4062V42H173.091V54H171.763L171.692 53.0938C171.114 53.8021 170.31 54.1562 169.278 54.1562C168.299 54.1562 167.5 53.7552 166.88 52.9531C166.265 52.151 165.958 51.1042 165.958 49.8125V49.7031ZM167.403 49.8672C167.403 50.8255 167.601 51.5755 167.997 52.1172C168.393 52.6589 168.94 52.9297 169.638 52.9297C170.554 52.9297 171.224 52.5182 171.646 51.6953V47.8125C171.213 47.0156 170.549 46.6172 169.653 46.6172C168.945 46.6172 168.393 46.8906 167.997 47.4375C167.601 47.9844 167.403 48.7943 167.403 49.8672ZM186.794 52.0078L188.419 45.5469H189.864L187.403 54H186.231L184.177 47.5938L182.177 54H181.005L178.552 45.5469H179.989L181.653 51.875L183.622 45.5469H184.786L186.794 52.0078ZM192.911 54H191.466V45.5469H192.911V54ZM191.349 43.3047C191.349 43.0703 191.419 42.8724 191.56 42.7109C191.705 42.5495 191.919 42.4688 192.2 42.4688C192.481 42.4688 192.695 42.5495 192.841 42.7109C192.987 42.8724 193.06 43.0703 193.06 43.3047C193.06 43.5391 192.987 43.7344 192.841 43.8906C192.695 44.0469 192.481 44.125 192.2 44.125C191.919 44.125 191.705 44.0469 191.56 43.8906C191.419 43.7344 191.349 43.5391 191.349 43.3047ZM196.802 54H195.356V42H196.802V54ZM200.692 54H199.247V42H200.692V54ZM214.122 49.8672C214.122 51.1536 213.828 52.1901 213.239 52.9766C212.651 53.763 211.854 54.1562 210.849 54.1562C209.823 54.1562 209.015 53.8307 208.427 53.1797V57.25H206.981V45.5469H208.302L208.372 46.4844C208.961 45.7552 209.778 45.3906 210.825 45.3906C211.841 45.3906 212.643 45.7734 213.231 46.5391C213.825 47.3047 214.122 48.3698 214.122 49.7344V49.8672ZM212.677 49.7031C212.677 48.75 212.474 47.9974 212.067 47.4453C211.661 46.8932 211.104 46.6172 210.396 46.6172C209.521 46.6172 208.864 47.0052 208.427 47.7812V51.8203C208.859 52.5911 209.521 52.9766 210.411 52.9766C211.104 52.9766 211.653 52.7031 212.06 52.1562C212.471 51.6042 212.677 50.7865 212.677 49.7031ZM215.583 49.6953C215.583 48.8672 215.744 48.1224 216.067 47.4609C216.396 46.7995 216.849 46.2891 217.427 45.9297C218.01 45.5703 218.674 45.3906 219.419 45.3906C220.57 45.3906 221.5 45.7891 222.208 46.5859C222.922 47.3828 223.278 48.4427 223.278 49.7656V49.8672C223.278 50.6901 223.119 51.4297 222.802 52.0859C222.489 52.737 222.039 53.2448 221.45 53.6094C220.867 53.974 220.195 54.1562 219.435 54.1562C218.289 54.1562 217.359 53.7578 216.646 52.9609C215.937 52.1641 215.583 51.1094 215.583 49.7969V49.6953ZM217.036 49.8672C217.036 50.8047 217.252 51.5573 217.685 52.125C218.122 52.6927 218.705 52.9766 219.435 52.9766C220.169 52.9766 220.752 52.6901 221.185 52.1172C221.617 51.5391 221.833 50.7318 221.833 49.6953C221.833 48.7682 221.612 48.0182 221.169 47.4453C220.731 46.8672 220.148 46.5781 219.419 46.5781C218.705 46.5781 218.13 46.862 217.692 47.4297C217.255 47.9974 217.036 48.8099 217.036 49.8672ZM232.231 49.8672C232.231 51.1536 231.937 52.1901 231.349 52.9766C230.76 53.763 229.963 54.1562 228.958 54.1562C227.932 54.1562 227.125 53.8307 226.536 53.1797V57.25H225.091V45.5469H226.411L226.481 46.4844C227.07 45.7552 227.888 45.3906 228.935 45.3906C229.95 45.3906 230.752 45.7734 231.341 46.5391C231.935 47.3047 232.231 48.3698 232.231 49.7344V49.8672ZM230.786 49.7031C230.786 48.75 230.583 47.9974 230.177 47.4453C229.771 46.8932 229.213 46.6172 228.505 46.6172C227.63 46.6172 226.974 47.0052 226.536 47.7812V51.8203C226.968 52.5911 227.63 52.9766 228.521 52.9766C229.213 52.9766 229.763 52.7031 230.169 52.1562C230.58 51.6042 230.786 50.7865 230.786 49.7031ZM237.661 49.6953C237.661 48.8672 237.823 48.1224 238.146 47.4609C238.474 46.7995 238.927 46.2891 239.505 45.9297C240.088 45.5703 240.752 45.3906 241.497 45.3906C242.648 45.3906 243.578 45.7891 244.286 46.5859C245 47.3828 245.356 48.4427 245.356 49.7656V49.8672C245.356 50.6901 245.198 51.4297 244.88 52.0859C244.567 52.737 244.117 53.2448 243.528 53.6094C242.945 53.974 242.273 54.1562 241.513 54.1562C240.367 54.1562 239.437 53.7578 238.724 52.9609C238.015 52.1641 237.661 51.1094 237.661 49.7969V49.6953ZM239.114 49.8672C239.114 50.8047 239.33 51.5573 239.763 52.125C240.2 52.6927 240.784 52.9766 241.513 52.9766C242.247 52.9766 242.83 52.6901 243.263 52.1172C243.695 51.5391 243.911 50.7318 243.911 49.6953C243.911 48.7682 243.69 48.0182 243.247 47.4453C242.81 46.8672 242.226 46.5781 241.497 46.5781C240.784 46.5781 240.208 46.862 239.771 47.4297C239.333 47.9974 239.114 48.8099 239.114 49.8672ZM248.536 45.5469L248.583 46.6094C249.229 45.7969 250.073 45.3906 251.114 45.3906C252.901 45.3906 253.802 46.3984 253.817 48.4141V54H252.372V48.4062C252.367 47.7969 252.226 47.3464 251.95 47.0547C251.679 46.763 251.255 46.6172 250.677 46.6172C250.208 46.6172 249.797 46.7422 249.442 46.9922C249.088 47.2422 248.812 47.5703 248.614 47.9766V54H247.169V45.5469H248.536ZM261.927 43.5V45.5469H263.505V46.6641H261.927V51.9062C261.927 52.2448 261.997 52.5 262.138 52.6719C262.278 52.8385 262.518 52.9219 262.856 52.9219C263.023 52.9219 263.252 52.8906 263.544 52.8281V54C263.164 54.1042 262.794 54.1562 262.435 54.1562C261.789 54.1562 261.302 53.9609 260.974 53.5703C260.646 53.1797 260.481 52.625 260.481 51.9062V46.6641H258.942V45.5469H260.481V43.5H261.927ZM266.646 46.5703C267.286 45.7839 268.119 45.3906 269.146 45.3906C270.932 45.3906 271.833 46.3984 271.849 48.4141V54H270.403V48.4062C270.398 47.7969 270.257 47.3464 269.981 47.0547C269.711 46.763 269.286 46.6172 268.708 46.6172C268.239 46.6172 267.828 46.7422 267.474 46.9922C267.119 47.2422 266.843 47.5703 266.646 47.9766V54H265.2V42H266.646V46.5703ZM277.521 54.1562C276.375 54.1562 275.442 53.7812 274.724 53.0312C274.005 52.276 273.646 51.2682 273.646 50.0078V49.7422C273.646 48.9036 273.804 48.1562 274.122 47.5C274.445 46.8385 274.893 46.3229 275.466 45.9531C276.044 45.5781 276.669 45.3906 277.341 45.3906C278.44 45.3906 279.294 45.7526 279.903 46.4766C280.513 47.2005 280.817 48.237 280.817 49.5859V50.1875H275.091C275.112 51.0208 275.354 51.6953 275.817 52.2109C276.286 52.7214 276.88 52.9766 277.599 52.9766C278.109 52.9766 278.541 52.8724 278.896 52.6641C279.25 52.4557 279.56 52.1797 279.825 51.8359L280.708 52.5234C280 53.612 278.937 54.1562 277.521 54.1562ZM277.341 46.5781C276.757 46.5781 276.268 46.7917 275.872 47.2188C275.476 47.6406 275.231 48.2344 275.138 49H279.372V48.8906C279.33 48.1562 279.132 47.5885 278.778 47.1875C278.424 46.7812 277.945 46.5781 277.341 46.5781ZM291.685 54C291.601 53.8333 291.534 53.5365 291.481 53.1094C290.81 53.8073 290.007 54.1562 289.075 54.1562C288.242 54.1562 287.557 53.9219 287.021 53.4531C286.489 52.9792 286.224 52.3802 286.224 51.6562C286.224 50.776 286.557 50.0938 287.224 49.6094C287.896 49.1198 288.838 48.875 290.052 48.875H291.458V48.2109C291.458 47.7057 291.307 47.3047 291.005 47.0078C290.703 46.7057 290.257 46.5547 289.669 46.5547C289.153 46.5547 288.721 46.6849 288.372 46.9453C288.023 47.2057 287.849 47.5208 287.849 47.8906H286.396C286.396 47.4688 286.544 47.0625 286.841 46.6719C287.143 46.276 287.549 45.9635 288.06 45.7344C288.575 45.5052 289.14 45.3906 289.755 45.3906C290.729 45.3906 291.492 45.6354 292.044 46.125C292.596 46.6094 292.882 47.2786 292.903 48.1328V52.0234C292.903 52.7995 293.002 53.4167 293.2 53.875V54H291.685ZM289.286 52.8984C289.739 52.8984 290.169 52.7812 290.575 52.5469C290.981 52.3125 291.276 52.0078 291.458 51.6328V49.8984H290.325C288.554 49.8984 287.669 50.4167 287.669 51.4531C287.669 51.9062 287.82 52.2604 288.122 52.5156C288.424 52.7708 288.812 52.8984 289.286 52.8984ZM302.31 49.8672C302.31 51.1536 302.015 52.1901 301.427 52.9766C300.838 53.763 300.041 54.1562 299.036 54.1562C298.01 54.1562 297.203 53.8307 296.614 53.1797V57.25H295.169V45.5469H296.489L296.56 46.4844C297.148 45.7552 297.966 45.3906 299.013 45.3906C300.028 45.3906 300.83 45.7734 301.419 46.5391C302.013 47.3047 302.31 48.3698 302.31 49.7344V49.8672ZM300.864 49.7031C300.864 48.75 300.661 47.9974 300.255 47.4453C299.849 46.8932 299.291 46.6172 298.583 46.6172C297.708 46.6172 297.052 47.0052 296.614 47.7812V51.8203C297.047 52.5911 297.708 52.9766 298.599 52.9766C299.291 52.9766 299.841 52.7031 300.247 52.1562C300.659 51.6042 300.864 50.7865 300.864 49.7031ZM311.294 49.8672C311.294 51.1536 311 52.1901 310.411 52.9766C309.823 53.763 309.026 54.1562 308.021 54.1562C306.994 54.1562 306.187 53.8307 305.599 53.1797V57.25H304.153V45.5469H305.474L305.544 46.4844C306.132 45.7552 306.95 45.3906 307.997 45.3906C309.013 45.3906 309.815 45.7734 310.403 46.5391C310.997 47.3047 311.294 48.3698 311.294 49.7344V49.8672ZM309.849 49.7031C309.849 48.75 309.646 47.9974 309.239 47.4453C308.833 46.8932 308.276 46.6172 307.567 46.6172C306.692 46.6172 306.036 47.0052 305.599 47.7812V51.8203C306.031 52.5911 306.692 52.9766 307.583 52.9766C308.276 52.9766 308.825 52.7031 309.231 52.1562C309.643 51.6042 309.849 50.7865 309.849 49.7031ZM314.708 54H313.263V42H314.708V54ZM318.599 54H317.153V45.5469H318.599V54ZM317.036 43.3047C317.036 43.0703 317.106 42.8724 317.247 42.7109C317.393 42.5495 317.606 42.4688 317.888 42.4688C318.169 42.4688 318.382 42.5495 318.528 42.7109C318.674 42.8724 318.747 43.0703 318.747 43.3047C318.747 43.5391 318.674 43.7344 318.528 43.8906C318.382 44.0469 318.169 44.125 317.888 44.125C317.606 44.125 317.393 44.0469 317.247 43.8906C317.106 43.7344 317.036 43.5391 317.036 43.3047ZM324.31 52.9766C324.825 52.9766 325.276 52.8203 325.661 52.5078C326.047 52.1953 326.26 51.8047 326.302 51.3359H327.669C327.643 51.8203 327.476 52.2812 327.169 52.7188C326.862 53.1562 326.45 53.5052 325.935 53.7656C325.424 54.026 324.882 54.1562 324.31 54.1562C323.159 54.1562 322.242 53.7734 321.56 53.0078C320.882 52.237 320.544 51.1849 320.544 49.8516V49.6094C320.544 48.7865 320.695 48.0547 320.997 47.4141C321.299 46.7734 321.731 46.276 322.294 45.9219C322.862 45.5677 323.531 45.3906 324.302 45.3906C325.25 45.3906 326.036 45.6745 326.661 46.2422C327.291 46.8099 327.627 47.5469 327.669 48.4531H326.302C326.26 47.9062 326.052 47.4583 325.677 47.1094C325.307 46.7552 324.849 46.5781 324.302 46.5781C323.567 46.5781 322.997 46.8438 322.591 47.375C322.19 47.901 321.989 48.6641 321.989 49.6641V49.9375C321.989 50.9115 322.19 51.6615 322.591 52.1875C322.992 52.7135 323.565 52.9766 324.31 52.9766ZM334.513 54C334.429 53.8333 334.362 53.5365 334.31 53.1094C333.638 53.8073 332.836 54.1562 331.903 54.1562C331.07 54.1562 330.385 53.9219 329.849 53.4531C329.317 52.9792 329.052 52.3802 329.052 51.6562C329.052 50.776 329.385 50.0938 330.052 49.6094C330.724 49.1198 331.666 48.875 332.88 48.875H334.286V48.2109C334.286 47.7057 334.135 47.3047 333.833 47.0078C333.531 46.7057 333.086 46.5547 332.497 46.5547C331.981 46.5547 331.549 46.6849 331.2 46.9453C330.851 47.2057 330.677 47.5208 330.677 47.8906H329.224C329.224 47.4688 329.372 47.0625 329.669 46.6719C329.971 46.276 330.377 45.9635 330.888 45.7344C331.403 45.5052 331.968 45.3906 332.583 45.3906C333.557 45.3906 334.32 45.6354 334.872 46.125C335.424 46.6094 335.711 47.2786 335.731 48.1328V52.0234C335.731 52.7995 335.83 53.4167 336.028 53.875V54H334.513ZM332.114 52.8984C332.567 52.8984 332.997 52.7812 333.403 52.5469C333.81 52.3125 334.104 52.0078 334.286 51.6328V49.8984H333.153C331.382 49.8984 330.497 50.4167 330.497 51.4531C330.497 51.9062 330.648 52.2604 330.95 52.5156C331.252 52.7708 331.64 52.8984 332.114 52.8984ZM339.958 43.5V45.5469H341.536V46.6641H339.958V51.9062C339.958 52.2448 340.028 52.5 340.169 52.6719C340.31 52.8385 340.549 52.9219 340.888 52.9219C341.054 52.9219 341.284 52.8906 341.575 52.8281V54C341.195 54.1042 340.825 54.1562 340.466 54.1562C339.82 54.1562 339.333 53.9609 339.005 53.5703C338.677 53.1797 338.513 52.625 338.513 51.9062V46.6641H336.974V45.5469H338.513V43.5H339.958ZM344.802 54H343.356V45.5469H344.802V54ZM343.239 43.3047C343.239 43.0703 343.31 42.8724 343.45 42.7109C343.596 42.5495 343.81 42.4688 344.091 42.4688C344.372 42.4688 344.586 42.5495 344.731 42.7109C344.877 42.8724 344.95 43.0703 344.95 43.3047C344.95 43.5391 344.877 43.7344 344.731 43.8906C344.586 44.0469 344.372 44.125 344.091 44.125C343.81 44.125 343.596 44.0469 343.45 43.8906C343.31 43.7344 343.239 43.5391 343.239 43.3047ZM346.739 49.6953C346.739 48.8672 346.901 48.1224 347.224 47.4609C347.552 46.7995 348.005 46.2891 348.583 45.9297C349.166 45.5703 349.83 45.3906 350.575 45.3906C351.726 45.3906 352.656 45.7891 353.364 46.5859C354.078 47.3828 354.435 48.4427 354.435 49.7656V49.8672C354.435 50.6901 354.276 51.4297 353.958 52.0859C353.646 52.737 353.195 53.2448 352.606 53.6094C352.023 53.974 351.351 54.1562 350.591 54.1562C349.445 54.1562 348.515 53.7578 347.802 52.9609C347.093 52.1641 346.739 51.1094 346.739 49.7969V49.6953ZM348.192 49.8672C348.192 50.8047 348.409 51.5573 348.841 52.125C349.278 52.6927 349.862 52.9766 350.591 52.9766C351.325 52.9766 351.909 52.6901 352.341 52.1172C352.773 51.5391 352.989 50.7318 352.989 49.6953C352.989 48.7682 352.768 48.0182 352.325 47.4453C351.888 46.8672 351.304 46.5781 350.575 46.5781C349.862 46.5781 349.286 46.862 348.849 47.4297C348.411 47.9974 348.192 48.8099 348.192 49.8672ZM357.614 45.5469L357.661 46.6094C358.307 45.7969 359.151 45.3906 360.192 45.3906C361.979 45.3906 362.88 46.3984 362.896 48.4141V54H361.45V48.4062C361.445 47.7969 361.304 47.3464 361.028 47.0547C360.757 46.763 360.333 46.6172 359.755 46.6172C359.286 46.6172 358.875 46.7422 358.521 46.9922C358.166 47.2422 357.89 47.5703 357.692 47.9766V54H356.247V45.5469H357.614ZM373.966 51.7578C373.966 51.3672 373.817 51.0651 373.521 50.8516C373.229 50.6328 372.716 50.4453 371.981 50.2891C371.252 50.1328 370.672 49.9453 370.239 49.7266C369.812 49.5078 369.494 49.2474 369.286 48.9453C369.083 48.6432 368.981 48.2839 368.981 47.8672C368.981 47.1745 369.273 46.5885 369.856 46.1094C370.445 45.6302 371.195 45.3906 372.106 45.3906C373.065 45.3906 373.841 45.638 374.435 46.1328C375.034 46.6276 375.333 47.2604 375.333 48.0312H373.88C373.88 47.6354 373.711 47.2943 373.372 47.0078C373.039 46.7214 372.617 46.5781 372.106 46.5781C371.58 46.5781 371.169 46.6927 370.872 46.9219C370.575 47.151 370.427 47.4505 370.427 47.8203C370.427 48.1693 370.565 48.4323 370.841 48.6094C371.117 48.7865 371.614 48.9557 372.333 49.1172C373.057 49.2786 373.643 49.4714 374.091 49.6953C374.539 49.9193 374.869 50.1901 375.083 50.5078C375.302 50.8203 375.411 51.2031 375.411 51.6562C375.411 52.4115 375.109 53.0182 374.505 53.4766C373.901 53.9297 373.117 54.1562 372.153 54.1562C371.476 54.1562 370.877 54.0365 370.356 53.7969C369.836 53.5573 369.427 53.224 369.13 52.7969C368.838 52.3646 368.692 51.8984 368.692 51.3984H370.138C370.164 51.8828 370.356 52.2682 370.716 52.5547C371.08 52.8359 371.56 52.9766 372.153 52.9766C372.7 52.9766 373.138 52.8672 373.466 52.6484C373.799 52.4245 373.966 52.1276 373.966 51.7578ZM380.685 52.9766C381.2 52.9766 381.651 52.8203 382.036 52.5078C382.422 52.1953 382.635 51.8047 382.677 51.3359H384.044C384.018 51.8203 383.851 52.2812 383.544 52.7188C383.237 53.1562 382.825 53.5052 382.31 53.7656C381.799 54.026 381.257 54.1562 380.685 54.1562C379.534 54.1562 378.617 53.7734 377.935 53.0078C377.257 52.237 376.919 51.1849 376.919 49.8516V49.6094C376.919 48.7865 377.07 48.0547 377.372 47.4141C377.674 46.7734 378.106 46.276 378.669 45.9219C379.237 45.5677 379.906 45.3906 380.677 45.3906C381.625 45.3906 382.411 45.6745 383.036 46.2422C383.666 46.8099 384.002 47.5469 384.044 48.4531H382.677C382.635 47.9062 382.427 47.4583 382.052 47.1094C381.682 46.7552 381.224 46.5781 380.677 46.5781C379.942 46.5781 379.372 46.8438 378.966 47.375C378.565 47.901 378.364 48.6641 378.364 49.6641V49.9375C378.364 50.9115 378.565 51.6615 378.966 52.1875C379.367 52.7135 379.94 52.9766 380.685 52.9766ZM389.755 46.8438C389.536 46.8073 389.299 46.7891 389.044 46.7891C388.096 46.7891 387.453 47.1927 387.114 48V54H385.669V45.5469H387.075L387.099 46.5234C387.573 45.7682 388.244 45.3906 389.114 45.3906C389.396 45.3906 389.609 45.4271 389.755 45.5V46.8438ZM394.442 54.1562C393.297 54.1562 392.364 53.7812 391.646 53.0312C390.927 52.276 390.567 51.2682 390.567 50.0078V49.7422C390.567 48.9036 390.726 48.1562 391.044 47.5C391.367 46.8385 391.815 46.3229 392.388 45.9531C392.966 45.5781 393.591 45.3906 394.263 45.3906C395.362 45.3906 396.216 45.7526 396.825 46.4766C397.435 47.2005 397.739 48.237 397.739 49.5859V50.1875H392.013C392.034 51.0208 392.276 51.6953 392.739 52.2109C393.208 52.7214 393.802 52.9766 394.521 52.9766C395.031 52.9766 395.463 52.8724 395.817 52.6641C396.172 52.4557 396.481 52.1797 396.747 51.8359L397.63 52.5234C396.922 53.612 395.859 54.1562 394.442 54.1562ZM394.263 46.5781C393.679 46.5781 393.19 46.7917 392.794 47.2188C392.398 47.6406 392.153 48.2344 392.06 49H396.294V48.8906C396.252 48.1562 396.054 47.5885 395.7 47.1875C395.346 46.7812 394.867 46.5781 394.263 46.5781ZM402.927 54.1562C401.781 54.1562 400.849 53.7812 400.13 53.0312C399.411 52.276 399.052 51.2682 399.052 50.0078V49.7422C399.052 48.9036 399.211 48.1562 399.528 47.5C399.851 46.8385 400.299 46.3229 400.872 45.9531C401.45 45.5781 402.075 45.3906 402.747 45.3906C403.846 45.3906 404.7 45.7526 405.31 46.4766C405.919 47.2005 406.224 48.237 406.224 49.5859V50.1875H400.497C400.518 51.0208 400.76 51.6953 401.224 52.2109C401.692 52.7214 402.286 52.9766 403.005 52.9766C403.515 52.9766 403.948 52.8724 404.302 52.6641C404.656 52.4557 404.966 52.1797 405.231 51.8359L406.114 52.5234C405.406 53.612 404.343 54.1562 402.927 54.1562ZM402.747 46.5781C402.164 46.5781 401.674 46.7917 401.278 47.2188C400.882 47.6406 400.638 48.2344 400.544 49H404.778V48.8906C404.737 48.1562 404.539 47.5885 404.185 47.1875C403.83 46.7812 403.351 46.5781 402.747 46.5781ZM409.271 45.5469L409.317 46.6094C409.963 45.7969 410.807 45.3906 411.849 45.3906C413.635 45.3906 414.536 46.3984 414.552 48.4141V54H413.106V48.4062C413.101 47.7969 412.961 47.3464 412.685 47.0547C412.414 46.763 411.989 46.6172 411.411 46.6172C410.942 46.6172 410.531 46.7422 410.177 46.9922C409.823 47.2422 409.547 47.5703 409.349 47.9766V54H407.903V45.5469H409.271ZM416.763 53.2422C416.763 52.9922 416.836 52.7839 416.981 52.6172C417.132 52.4505 417.356 52.3672 417.653 52.3672C417.95 52.3672 418.174 52.4505 418.325 52.6172C418.481 52.7839 418.56 52.9922 418.56 53.2422C418.56 53.4818 418.481 53.6823 418.325 53.8438C418.174 54.0052 417.95 54.0859 417.653 54.0859C417.356 54.0859 417.132 54.0052 416.981 53.8438C416.836 53.6823 416.763 53.4818 416.763 53.2422Z" fill="#6654A4"/>
<path d="M37.4786 47.688H40.3266C40.6146 45.448 42.2466 43.912 44.9666 43.912C47.7506 43.912 49.2226 45.448 49.2226 47.656C49.2226 50.344 47.1426 51.528 43.2706 51.56H42.5026V53.992H43.2386C47.3986 53.992 49.6706 55.24 49.6706 58.504C49.6706 60.872 48.1986 62.696 45.0946 62.696C42.0226 62.696 40.2306 60.808 39.9426 58.344H37.1266C37.4786 62.824 40.7426 65.16 45.1266 65.16C49.9586 65.16 52.4546 62.344 52.4546 58.76C52.4546 55.432 50.6306 53.448 47.9426 52.808V52.648C50.3746 52.104 52.0386 50.024 52.0386 47.368C52.0386 44.04 49.5746 41.416 45.0626 41.416C40.7746 41.416 37.7666 43.72 37.4786 47.688Z" fill="#6654A4"/>
<defs>
<filter id="filter0_d" x="0" y="0" width="594.56" height="113" filterUnits="userSpaceOnUse" color-interpolation-filters="sRGB">
<feFlood flood-opacity="0" result="BackgroundImageFix"/>
<feColorMatrix in="SourceAlpha" type="matrix" values="0 0 0 0 0 0 0 0 0 0 0 0 0 0 0 0 0 0 127 0"/>
<feMorphology radius="4" operator="dilate" in="SourceAlpha" result="effect1_dropShadow"/>
<feOffset dy="3"/>
<feGaussianBlur stdDeviation="7.5"/>
<feColorMatrix type="matrix" values="0 0 0 0 0.872109 0 0 0 0 0.853125 0 0 0 0 0.9375 0 0 0 0.5 0"/>
<feBlend mode="normal" in2="BackgroundImageFix" result="effect1_dropShadow"/>
<feBlend mode="normal" in="SourceGraphic" in2="effect1_dropShadow" result="shape"/>
</filter>
</defs>
</svg>
