<svg width="220" height="196" viewBox="0 0 220 196" fill="none" xmlns="http://www.w3.org/2000/svg">
<path d="M11.9869 52.0213C15.0881 45.113 18.7098 39.3531 22.765 35.2082C23.9134 34.0179 25.1515 32.9383 26.4614 31.9813C27.6337 31.12 28.8748 30.3843 30.1668 29.7772C48.6397 21.1972 67.5583 40.7198 88.6929 38.4141C106.409 36.4762 119.155 25.4199 130.46 16.1371C134.165 12.964 138.041 10.0572 142.069 7.43142C143.137 6.76153 144.213 6.15144 145.281 5.61014C146.429 5.03296 147.653 4.49166 148.957 3.99522C148.957 3.98924 148.963 3.98325 148.966 3.98325L148.978 3.99522C165.345 -2.31197 192.999 -2.08169 205.252 11.4897C218.081 25.707 233.662 71.7832 198.373 131.132C159.166 197.102 52.04 206.217 23.414 184.403C-6.21098 161.848 -5.0207 89.9213 11.9869 52.0213Z" fill="#E4F2FF"/>
<path d="M66.4138 89.1733C66.6351 89.3767 66.9372 89.6638 67.2662 89.9898C67.5951 90.3128 67.8882 90.6118 68.0946 90.8301C68.2142 90.9408 68.3219 91.0664 68.4146 91.201C68.277 91.1112 68.1514 91.0066 68.0407 90.8869C67.8194 90.6836 67.5174 90.3965 67.1914 90.0735C66.8654 89.7505 66.5723 89.4544 66.363 89.2361C66.2404 89.1225 66.1327 88.9969 66.043 88.8623C66.1775 88.949 66.3031 89.0567 66.4138 89.1733Z" fill="#E0E0E0"/>
<path d="M52.719 89.1999C52.5157 89.4212 52.2256 89.7233 51.9026 90.0522C51.5796 90.3812 51.2806 90.6743 51.0622 90.8807C50.9516 91.0003 50.826 91.1079 50.6914 91.2006C50.7811 91.0631 50.8858 90.9375 51.0054 90.8268C51.2088 90.6055 51.4959 90.3035 51.8189 89.9775C52.1419 89.6515 52.4379 89.3584 52.6562 89.1491C52.7698 89.0265 52.8954 88.9188 53.03 88.8291C52.9433 88.9637 52.8387 89.0893 52.719 89.1999Z" fill="#E0E0E0"/>
<path d="M41.967 106.567L42.6757 106.316C42.9838 106.209 43.3606 106.068 43.7912 105.895C44.2219 105.721 44.7183 105.536 45.2537 105.299C46.3333 104.848 47.6013 104.262 48.9829 103.568C50.3616 102.862 51.8509 102.043 53.3761 101.11C54.8953 100.171 56.3009 99.2076 57.551 98.2925C58.7951 97.3713 59.8867 96.5041 60.7779 95.7415C61.2294 95.3706 61.6182 95.0088 61.9681 94.7037C62.318 94.3987 62.6111 94.1236 62.8473 93.8963L63.3917 93.3759C63.4574 93.3191 63.5173 93.2533 63.5741 93.1875C63.5023 93.2383 63.4335 93.2922 63.3707 93.355L62.8055 93.8544C62.5633 94.0727 62.2642 94.3389 61.9113 94.6409C61.5584 94.943 61.1637 95.2929 60.7061 95.6607C59.8089 96.4084 58.7113 97.2667 57.4672 98.1788C56.2142 99.082 54.8086 100.039 53.2954 100.978C51.7732 101.908 50.2898 102.734 48.9172 103.442C47.5415 104.142 46.2824 104.737 45.2118 105.201C44.6794 105.443 44.186 105.637 43.7614 105.817C43.3367 105.996 42.9628 106.146 42.6578 106.262C42.3647 106.379 42.1315 106.472 41.958 106.541C41.8743 106.57 41.7935 106.606 41.7188 106.648C41.7995 106.63 41.8833 106.603 41.967 106.567Z" fill="#455A64"/>
<path d="M41.9819 107.762L42.7385 107.628L43.2858 107.526C43.4862 107.484 43.6985 107.43 43.9288 107.38C44.3893 107.269 44.9187 107.158 45.4899 106.985C45.777 106.904 46.079 106.817 46.393 106.728C46.707 106.638 47.024 106.518 47.359 106.411C48.0289 106.201 48.7257 105.917 49.4644 105.633C52.6464 104.344 55.637 102.618 58.3465 100.51C58.9625 100.014 59.5547 99.5531 60.0721 99.0776C60.3352 98.8443 60.5954 98.626 60.8317 98.3987C61.0649 98.1714 61.2922 97.9561 61.5076 97.7468C61.9442 97.3401 62.3061 96.9363 62.632 96.5924C62.7935 96.4189 62.949 96.2604 63.0836 96.1079L63.4455 95.6862L63.939 95.0971C63.9988 95.0313 64.0555 94.9595 64.1034 94.8848C64.0346 94.9446 63.9718 95.0074 63.915 95.0762L63.3976 95.6444L63.0268 96.0571L62.5692 96.5296C62.2373 96.8645 61.8724 97.2623 61.4298 97.663L60.7509 98.303C60.5147 98.5243 60.2515 98.7397 59.9883 98.9699C59.4679 99.4395 58.8759 99.897 58.2598 100.387C55.5503 102.475 52.5746 104.192 49.4106 105.489C48.6779 105.777 47.9871 106.061 47.3201 106.279C46.9882 106.39 46.6742 106.509 46.3602 106.605L45.463 106.871C44.8948 107.051 44.3684 107.167 43.9108 107.287C43.6805 107.344 43.4682 107.397 43.2709 107.448L42.7295 107.562C42.4155 107.631 42.1643 107.685 41.9789 107.726C41.8892 107.741 41.8025 107.765 41.7188 107.795C41.8085 107.792 41.8952 107.78 41.9819 107.762Z" fill="#455A64"/>
<path d="M87.0193 172.51C86.9774 172.618 86.9057 172.773 86.8369 172.986C86.6306 173.575 86.472 174.182 86.3614 174.795C86.0115 176.834 86.0145 178.919 86.3734 180.956C86.7592 182.989 87.3573 184.975 88.1647 186.883C88.4488 187.595 88.6821 188.184 88.8556 188.626C88.9304 188.845 89.02 189.057 89.1247 189.26C89.1187 189.201 89.1068 189.141 89.0829 189.087L88.9274 188.602C88.7868 188.181 88.5685 187.58 88.2963 186.835C87.5337 184.924 86.9535 182.947 86.5677 180.926C86.2148 178.907 86.1909 176.843 86.496 174.819C86.5946 174.209 86.7323 173.602 86.9087 173.009C86.9865 172.794 87.0492 172.576 87.0971 172.352C87.0642 172.399 87.0373 172.453 87.0193 172.51Z" fill="#EB996E"/>
<path d="M51.6597 60.5534C51.863 60.3321 52.1501 60.0301 52.4761 59.7011C52.7991 59.3721 53.0981 59.0821 53.3164 58.8727C53.4271 58.7531 53.5527 58.6454 53.6872 58.5527C53.5975 58.6903 53.4929 58.8159 53.3733 58.9266C53.1699 59.1479 52.8828 59.4499 52.5598 59.7759C52.2369 60.1019 51.9408 60.3949 51.7225 60.6043C51.6118 60.7269 51.4832 60.8346 51.3486 60.9243C51.4354 60.7897 51.543 60.6641 51.6597 60.5534Z" fill="#E0E0E0"/>
<path d="M142.153 97.8999C142.21 97.8341 141.525 97.1433 140.625 96.3598C139.724 95.5762 138.947 94.99 138.89 95.0558C138.833 95.1216 139.518 95.8124 140.418 96.596C141.318 97.3795 142.096 97.9657 142.153 97.8999Z" fill="#FAFAFA"/>
<path d="M144.32 92.3358L164.413 94.7821C164.413 94.7821 180.581 97.7219 183.831 109.831C186.077 118.193 190.722 133.771 193.38 142.608C194.529 146.421 192.8 150.509 189.268 152.345C185.21 154.457 180.207 152.878 178.095 148.816C178.006 148.646 177.925 148.472 177.847 148.296L169.061 128.074C169.061 128.074 165.963 135.137 166.142 138.478C166.321 141.818 173.299 154.098 173.299 154.098C158.456 162.609 143.375 161.535 131.642 156.212L132.202 124.252C132.202 124.252 126.678 152.767 115.493 150.596C106.118 148.775 112.29 130.499 115.493 123.51C119.578 114.595 124.908 101.879 128.263 98.8105C137.259 90.5953 144.32 92.3358 144.32 92.3358Z" fill="#263238"/>
<g opacity="0.2">
<g opacity="0.2">
<g opacity="0.2">
<path opacity="0.2" d="M162.895 96.7501C164.109 98.6462 165.783 100.198 167.473 101.688C168.613 102.689 169.8 103.691 171.214 104.239C172.629 104.786 174.34 104.807 175.572 103.919C176.804 103.03 177.288 101.101 176.328 99.9262C175.694 99.1486 174.651 98.8645 173.676 98.6252L163.914 96.2178" fill="black"/>
</g>
</g>
</g>
<path d="M188.511 133.996C188.568 133.945 187.458 132.985 185.744 132.552C184.034 132.106 182.601 132.414 182.625 132.486C182.631 132.585 184.028 132.426 185.667 132.857C187.312 133.27 188.457 134.08 188.511 133.996Z" fill="#2E353A"/>
<path d="M185.861 131.227C185.906 131.161 184.967 130.682 183.72 130.811C182.473 130.925 181.641 131.571 181.698 131.627C181.743 131.711 182.589 131.227 183.75 131.122C184.907 131.002 185.831 131.316 185.861 131.227Z" fill="#2E353A"/>
<g opacity="0.2">
<g opacity="0.2">
<g opacity="0.2">
<path opacity="0.2" d="M181.867 132.72C183.658 131.856 185.775 132.002 187.429 133.106C187.767 133.336 188.192 133.614 188.542 133.408C188.88 133.21 188.859 132.699 188.673 132.358C188.228 131.539 187.211 131.228 186.284 131.132C184.603 130.958 182.904 131.231 181.364 131.921" fill="black"/>
</g>
</g>
</g>
<g opacity="0.2">
<g opacity="0.2">
<g opacity="0.2">
<path opacity="0.2" d="M149.207 119.212C150.266 121.344 153.307 122.678 154.734 125.002C155.936 126.964 156.384 129.278 157.108 131.464C159.151 137.541 163.35 142.658 168.912 145.846C167.812 143.759 166.914 141.567 166.242 139.306C166.095 137.927 166.298 136.533 166.834 135.253C166.143 133.133 163.122 130.208 161.741 128.459C160.084 126.362 158.412 124.254 156.37 122.531C154.327 120.809 151.866 119.478 149.207 119.212Z" fill="black"/>
</g>
</g>
</g>
<path d="M124.363 133.054C124.318 133.057 124.339 133.715 124.401 134.776C124.455 135.835 124.575 137.297 124.509 138.903C124.395 142.139 123.142 144.532 123.262 144.571C123.283 144.58 123.367 144.436 123.501 144.173C123.693 143.796 123.86 143.41 124.007 143.012C124.488 141.7 124.763 140.318 124.823 138.918C124.859 137.528 124.793 136.137 124.623 134.758C124.503 133.7 124.407 133.051 124.363 133.054Z" fill="#2E353A"/>
<path d="M161.73 113.743L153.703 114.271L153.85 116.51L161.878 115.981L161.73 113.743Z" fill="#FAFAFA"/>
<path d="M123.699 100.437C123.699 100.437 129.354 97.0154 130.341 97.0453C130.966 97.0572 131.591 96.9915 132.201 96.8509C132.201 96.8509 135.443 95.8311 135.955 95.23C136.466 94.6289 138.084 94.1803 138.084 94.1803L140.527 90.792L159.443 90.2207C159.443 90.2207 161.895 90.9085 162.619 91.4229C163.346 91.9373 164.593 95.3496 164.593 95.3496C164.593 95.3496 176.588 99.7249 178.873 101.893" fill="#263238"/>
<path d="M157.814 101.661C157.763 101.733 157.706 101.796 157.64 101.855L157.12 102.388C156.669 102.848 156.023 103.521 155.263 104.389C153.259 106.628 151.596 109.153 150.325 111.877L150.293 111.949L150.215 111.937L150.125 111.922L145.191 111.144L145.086 111.129L145.113 111.028C145.609 109.191 146.432 107.457 147.535 105.911C147.849 105.471 148.19 105.046 148.552 104.643C148.678 104.502 148.779 104.401 148.848 104.329C148.881 104.29 148.917 104.257 148.959 104.227C148.848 104.386 148.726 104.535 148.597 104.679C148.361 104.969 148.02 105.399 147.628 105.971C146.566 107.526 145.777 109.251 145.292 111.073L145.215 110.956L150.152 111.719L150.242 111.733L150.131 111.793C151.408 109.051 153.101 106.521 155.146 104.293C155.924 103.435 156.585 102.777 157.054 102.331C157.288 102.107 157.476 101.942 157.602 101.826C157.673 101.763 157.742 101.709 157.814 101.661Z" fill="#455A64"/>
<path d="M146.807 103.823C146.798 103.838 146.724 103.802 146.58 103.778C146.38 103.751 146.176 103.784 145.994 103.874C145.593 104.083 145.435 104.577 145.644 104.978C145.853 105.378 146.347 105.537 146.748 105.327C146.852 105.274 146.942 105.196 147.017 105.106C147.19 104.87 147.235 104.562 147.136 104.287C147.056 104.098 146.927 103.937 146.763 103.817C146.646 103.727 146.571 103.686 146.577 103.674C146.583 103.659 146.667 103.677 146.804 103.751C147.005 103.859 147.166 104.026 147.268 104.23C147.411 104.553 147.373 104.93 147.169 105.217C146.909 105.582 146.437 105.725 146.021 105.567C145.806 105.495 145.623 105.348 145.506 105.154C145.402 104.974 145.354 104.765 145.369 104.559C145.387 104.203 145.605 103.889 145.931 103.745C146.14 103.653 146.377 103.638 146.598 103.704C146.748 103.751 146.813 103.814 146.807 103.823Z" fill="#455A64"/>
<path d="M139.203 91.9287C139.176 91.9885 139.143 92.0484 139.101 92.0992L138.787 92.5747C138.41 93.1728 138.081 93.7979 137.797 94.4468C137.375 95.4278 137.07 96.4565 136.897 97.5122C136.661 98.8311 136.723 100.189 137.082 101.481L136.894 101.475C137.253 100.575 137.632 99.6205 138.024 98.6426C138.111 98.4333 138.183 98.218 138.296 98.0056C138.401 97.7724 138.598 97.593 138.841 97.5152C139.086 97.4674 139.34 97.5152 139.549 97.6528C139.738 97.7694 139.917 97.9039 140.085 98.0505C140.749 98.5948 141.401 99.1092 142.026 99.5907C143.279 100.551 144.436 101.379 145.423 102.055C146.407 102.731 147.22 103.257 147.78 103.622L148.426 104.041C148.503 104.086 148.578 104.139 148.647 104.199C148.563 104.166 148.482 104.127 148.408 104.077C148.252 103.99 148.031 103.861 147.741 103.691C147.167 103.35 146.341 102.841 145.342 102.178C144.343 101.517 143.177 100.697 141.912 99.7432C141.281 99.2647 140.626 98.7533 139.959 98.209C139.801 98.0684 139.63 97.9428 139.451 97.8322C139.289 97.7215 139.089 97.6797 138.895 97.7156C138.706 97.7814 138.557 97.9219 138.479 98.1044C138.38 98.2898 138.305 98.508 138.219 98.7204C137.827 99.6983 137.444 100.649 137.082 101.55L136.978 101.81L136.894 101.541C136.529 100.219 136.472 98.831 136.726 97.4853C136.915 96.4206 137.235 95.3829 137.68 94.396C137.976 93.747 138.326 93.125 138.73 92.5358C138.874 92.3325 138.996 92.1829 139.074 92.0782C139.11 92.0244 139.152 91.9736 139.203 91.9287Z" fill="#455A64"/>
<path d="M150.571 104.394C150.634 104.352 150.703 104.32 150.775 104.296L151.37 104.053L153.577 103.192C155.443 102.477 158.021 101.484 160.886 100.438C161.768 100.118 162.671 99.8695 163.592 99.6901C164.023 99.6064 164.463 99.5675 164.902 99.5675C165.115 99.5705 165.33 99.5974 165.536 99.6483C165.761 99.6871 165.961 99.8157 166.093 100.001L165.922 100.052C165.59 98.3892 165.309 96.9896 165.109 95.9758C165.019 95.5033 164.947 95.1204 164.893 94.8274C164.78 94.8363 164.678 94.7496 164.672 94.636C164.666 94.5224 164.75 94.4207 164.863 94.4147C164.977 94.4057 165.079 94.4924 165.085 94.6061C165.091 94.6988 165.037 94.7855 164.947 94.8184L165.21 95.9578L166.099 100.019L166.206 100.518L165.925 100.07C165.808 99.9443 165.656 99.8576 165.488 99.8277C165.294 99.7828 165.097 99.7589 164.899 99.7589C164.472 99.7619 164.047 99.8037 163.628 99.8845C162.719 100.064 161.825 100.315 160.952 100.629L153.628 103.327C152.707 103.656 151.953 103.928 151.4 104.125L150.79 104.332C150.718 104.364 150.646 104.385 150.571 104.394Z" fill="#455A64"/>
<path d="M178.018 101.219C177.623 100.899 177.153 100.689 176.651 100.615C173.672 99.9208 170.541 100.573 168.089 102.4C167.156 103.091 166.683 103.644 166.656 103.614C166.746 103.471 166.857 103.339 166.979 103.219C167.296 102.881 167.637 102.567 168.002 102.283C170.454 100.354 173.669 99.6845 176.687 100.471C177.111 100.576 177.512 100.764 177.865 101.018C178.167 101.156 178.024 101.21 178.018 101.219Z" fill="#455A64"/>
<path d="M131.608 114.517C131.722 112.345 131.973 110.183 132.365 108.045C132.518 107.225 132.655 106.565 132.769 106.11L132.9 105.59C132.912 105.527 132.93 105.467 132.96 105.41C132.963 105.473 132.957 105.536 132.942 105.599C132.915 105.742 132.885 105.919 132.85 106.128C132.763 106.585 132.646 107.249 132.512 108.069C132.165 110.207 131.934 112.363 131.818 114.529" fill="#455A64"/>
<path d="M132.391 104.375C132.325 104.402 131.966 102.924 130.865 101.465C129.783 99.9904 128.473 99.2218 128.518 99.168C128.823 99.2906 129.107 99.4611 129.358 99.6704C130.635 100.624 131.607 101.928 132.151 103.427C132.28 103.729 132.361 104.049 132.391 104.375Z" fill="#455A64"/>
<path d="M164.802 117.019C164.784 116.866 164.784 116.711 164.805 116.555C164.817 116.259 164.853 115.832 164.913 115.299C165.23 112.539 165.933 109.838 167 107.275C167.207 106.785 167.383 106.393 167.518 106.127C167.41 106.055 167.38 105.912 167.452 105.804C167.524 105.696 167.667 105.667 167.775 105.738C167.882 105.81 167.912 105.954 167.841 106.061C167.787 106.142 167.688 106.184 167.592 106.16C167.482 106.435 167.323 106.833 167.138 107.329C166.154 109.907 165.457 112.587 165.059 115.32C164.982 115.844 164.925 116.268 164.889 116.564C164.874 116.717 164.847 116.869 164.802 117.019Z" fill="#455A64"/>
<path d="M148.068 111.216C148.068 111.216 145.95 112.155 144.296 112.911C141.686 114.108 140.815 111.933 140.815 111.933L148.074 106.685C150.035 105.297 152.655 105.267 154.647 106.616C155.239 107.023 155.753 107.537 156.16 108.132L161.355 115.513L189.616 138.05C194.036 141.576 194.183 147.528 189.712 150.991C186.317 153.634 181.452 153.183 178.599 149.962L155.395 123.752L152.398 121.443L148.872 118.887C148.872 118.887 146.237 116.982 148.409 115.05C149.111 114.425 147.757 114.437 147.622 113.53C147.55 113.058 147.691 112.971 148.516 112.397C148.513 112.394 147.215 112.424 148.068 111.216Z" fill="#AA8776"/>
<path d="M148.142 111.832C148.181 111.859 148.348 111.656 148.626 111.351C148.964 110.95 149.392 110.636 149.876 110.442C150.361 110.283 150.89 110.355 151.312 110.639C151.629 110.866 151.698 111.133 151.751 111.115C151.784 111.118 151.796 110.798 151.455 110.469C150.992 110.071 150.352 109.945 149.775 110.146C149.233 110.355 148.77 110.729 148.45 111.213C148.211 111.563 148.109 111.809 148.142 111.832Z" fill="#996552"/>
<path d="M151.759 113.661C151.792 113.637 151.687 113.434 151.403 113.206C150.625 112.599 149.534 112.605 148.759 113.218C148.478 113.449 148.376 113.652 148.406 113.676C148.442 113.709 148.598 113.562 148.885 113.401C149.621 112.961 150.539 112.958 151.28 113.392C151.564 113.547 151.723 113.691 151.759 113.661Z" fill="#996552"/>
<path d="M151.759 115.796C151.792 115.772 151.687 115.569 151.403 115.341C150.625 114.734 149.534 114.74 148.759 115.353C148.478 115.583 148.376 115.787 148.406 115.811C148.442 115.844 148.598 115.697 148.885 115.536C149.621 115.096 150.539 115.093 151.28 115.527C151.564 115.685 151.723 115.829 151.759 115.796Z" fill="#996552"/>
<path d="M158.192 80.5643C159.122 77.8189 160.04 75.0526 160.483 72.1906C160.925 69.3286 160.874 66.335 159.899 63.6075C159.753 63.1948 158.482 60.4166 158.042 60.4525C157.728 60.4794 158.503 63.0692 158.341 63.3354C156.801 65.9073 156.353 69.0146 156.559 72.0052C156.783 74.909 157.33 77.7801 158.192 80.5643Z" fill="#263238"/>
<path d="M150.069 100.405C154.561 100.366 158.201 96.7413 158.257 92.2494L158.607 69.5149C158.933 62.2537 154.977 56.0123 147.71 55.8896L147.037 55.9165C140.272 56.1946 134.853 61.6226 134.587 68.3874C134.342 74.6826 134.147 81.6417 134.33 85.0061C134.703 91.9713 141.716 92.7668 141.716 92.7668C141.731 92.7668 141.737 90.0812 141.731 92.1268C141.722 96.6904 145.416 100.399 149.979 100.408C150.012 100.405 150.042 100.405 150.069 100.405Z" fill="#B78876"/>
<path d="M141.721 92.7634C141.721 92.7634 146.123 92.8412 150.684 89.707C150.684 89.707 148.68 94.8658 141.703 94.5249L141.721 92.7634Z" fill="#995037"/>
<path d="M137.262 72.7025C137.28 73.2408 137.722 73.6715 138.264 73.6685C138.79 73.6894 139.233 73.2767 139.25 72.7534C139.25 72.7444 139.25 72.7384 139.25 72.7294C139.233 72.1911 138.79 71.7635 138.252 71.7635C137.725 71.7425 137.283 72.1523 137.262 72.6786C137.262 72.6876 137.262 72.6965 137.262 72.7025Z" fill="#263238"/>
<path d="M136.201 71.2155C136.33 71.3411 137.06 70.752 138.133 70.7101C139.201 70.6533 140.011 71.1706 140.122 71.036C140.176 70.9762 140.041 70.7459 139.688 70.5127C139.213 70.2106 138.654 70.0641 138.088 70.091C137.532 70.112 136.997 70.3094 136.557 70.6563C136.24 70.9195 136.138 71.1587 136.201 71.2155Z" fill="#263238"/>
<path d="M147.668 72.7025C147.686 73.2408 148.129 73.6686 148.67 73.6656C149.196 73.6865 149.639 73.2768 149.657 72.7504C149.657 72.7415 149.657 72.7355 149.657 72.7265C149.639 72.1882 149.196 71.7605 148.658 71.7605C148.132 71.7396 147.689 72.1523 147.668 72.6787C147.668 72.6876 147.668 72.6966 147.668 72.7025Z" fill="#263238"/>
<path d="M146.693 71.2155C146.822 71.3411 147.554 70.752 148.625 70.7101C149.693 70.6533 150.503 71.1706 150.614 71.036C150.668 70.9762 150.533 70.7459 150.18 70.5127C149.705 70.2106 149.145 70.0641 148.583 70.091C148.027 70.112 147.492 70.3094 147.052 70.6563C146.735 70.9195 146.63 71.1587 146.693 71.2155Z" fill="#263238"/>
<path d="M143.219 79.6005C143.221 79.5407 142.552 79.451 141.466 79.3583C141.191 79.3403 140.931 79.2985 140.877 79.1131C140.841 78.832 140.895 78.5449 141.026 78.2937C141.257 77.6208 141.496 76.915 141.75 76.1793C142.752 73.1678 143.464 70.6975 143.341 70.6587C143.222 70.6198 142.309 73.0272 141.311 76.0388C141.071 76.7804 140.841 77.4892 140.623 78.165C140.464 78.503 140.431 78.8828 140.524 79.2447C140.614 79.4361 140.784 79.5766 140.991 79.6245C141.143 79.6604 141.302 79.6753 141.457 79.6693C142.543 79.6843 143.216 79.6633 143.219 79.6005Z" fill="#263238"/>
<path d="M146.37 80.2121C146.197 80.2091 146.242 81.3725 145.282 82.2368C144.322 83.104 143.078 83.0263 143.075 83.1878C143.063 83.2625 143.359 83.4031 143.885 83.3942C144.567 83.3762 145.219 83.116 145.73 82.6644C146.218 82.2308 146.52 81.6207 146.568 80.9688C146.592 80.4843 146.448 80.2032 146.37 80.2121Z" fill="#263238"/>
<path d="M146.578 66.8687C146.695 67.1558 147.76 66.9734 149.022 67.0721C150.287 67.1468 151.316 67.4729 151.471 67.2037C151.54 67.0751 151.351 66.8089 150.933 66.5427C149.796 65.8878 148.421 65.7951 147.206 66.2856C146.749 66.4919 146.528 66.7312 146.578 66.8687Z" fill="#263238"/>
<path d="M136.496 67.6376C136.693 67.8738 137.423 67.5897 138.308 67.5419C139.193 67.4611 139.953 67.6375 140.115 67.3744C140.186 67.2488 140.058 67.0095 139.72 66.7942C138.796 66.2679 137.644 66.3516 136.804 67.0035C136.502 67.2667 136.409 67.521 136.496 67.6376Z" fill="#263238"/>
<path d="M158.255 74.695C158.372 74.6381 162.983 73.08 163.028 77.8501C163.073 82.6201 158.273 81.681 158.264 81.5435C158.255 81.4059 158.255 74.695 158.255 74.695Z" fill="#B78876"/>
<path d="M159.708 79.7247C159.729 79.7097 159.792 79.7814 159.932 79.8442C160.13 79.928 160.354 79.931 160.554 79.8502C161.057 79.6618 161.472 78.8574 161.487 77.9961C161.496 77.5864 161.413 77.1826 161.245 76.8088C161.152 76.5068 160.916 76.2705 160.614 76.1778C160.417 76.1269 160.21 76.2256 160.127 76.411C160.064 76.5456 160.094 76.6413 160.07 76.6473C160.058 76.6593 159.968 76.5695 160.004 76.3721C160.031 76.2525 160.094 76.1478 160.189 76.0701C160.321 75.9684 160.486 75.9236 160.647 75.9445C161.045 76.0193 161.377 76.2974 161.523 76.6772C161.73 77.0899 161.834 77.5445 161.825 78.0051C161.804 78.968 161.32 79.8712 160.632 80.0775C160.375 80.1553 160.094 80.1104 159.869 79.9579C159.717 79.8382 159.69 79.7336 159.708 79.7247Z" fill="#995037"/>
<path d="M137.676 60.4788C136.904 60.0541 139.219 57.5509 141.115 56.6896C143.983 55.3887 148.361 54.5843 151.005 55.332C154.187 56.2321 156.834 57.8142 158.434 60.7121C160.034 63.607 160.635 66.9833 160.545 70.2909C160.518 71.2987 160.413 72.3514 159.875 73.2067C159.208 74.2624 157.931 74.9264 157.988 76.3828C158.024 76.9151 157.847 77.4385 157.495 77.8393C156.621 78.7693 155.554 77.896 155.063 77.0228C154.013 75.1566 153.897 72.9257 153.804 70.7844C153.738 69.2622 153.676 67.7101 154.103 66.2477C154.336 65.4522 154.71 64.7015 154.899 63.894C155.087 63.0866 155.063 62.1715 154.558 61.5135C154.441 61.37 154.313 61.2414 154.169 61.1217C152.814 59.9404 150.927 59.5816 149.235 60.1857C146.549 61.1367 141.961 62.5602 140.762 61.6481C139.037 60.3382 138.624 59.4829 138.624 59.4829L137.676 60.4788Z" fill="#263238"/>
<path d="M141.708 94.5235C141.708 94.5235 141.633 96.3418 141.777 96.4764C142.483 97.1433 148.401 101.883 148.401 101.883C148.401 101.883 157.388 97.7833 157.884 97.0625C158.381 96.3418 158.279 91.4043 158.279 91.4043L141.708 94.5235Z" fill="#B78876"/>
<path d="M130.215 93.0276C130.559 93.7244 130.272 94.5677 129.572 94.9116C128.876 95.2556 128.032 94.9685 127.688 94.2687C127.344 93.5719 127.632 92.7285 128.331 92.3846C129.028 92.0407 129.871 92.3278 130.215 93.0276Z" fill="#FAFAFA"/>
<path d="M127.473 105.163L125.478 107.322C125.478 107.322 124.814 137.886 123.651 142.037C122.487 146.188 115.678 153.165 112.023 147.519C108.369 141.873 117.505 105.827 117.505 105.827C117.505 105.827 119.996 97.5221 120.163 95.5273L127.473 105.163Z" fill="#AA8776"/>
<path d="M122.899 87.4617L123.686 108.575C123.743 110.083 124.568 111.455 125.875 112.212L132.233 115.89C133.492 116.617 135.101 116.189 135.831 114.93C136.064 114.53 136.184 114.075 136.184 113.611V94.0619C136.184 92.9524 135.582 91.9296 134.61 91.3913L125.094 86.1129C124.38 85.7151 123.479 85.9723 123.085 86.6871C122.953 86.9233 122.89 87.1895 122.899 87.4617Z" fill="#4D5A64"/>
<path d="M120.167 95.5296C120.167 95.5296 124.877 89.007 125.921 89.0609C126.965 89.1147 132.025 92.1412 131.803 92.7991C131.582 93.4571 130.538 93.8429 129.602 93.4032C128.666 92.9636 127.018 91.3696 126.633 91.6986C126.247 92.0276 125.149 93.1819 125.149 93.1819C125.149 93.1819 129.8 95.5535 130.153 96.4806C130.514 97.4286 131.361 99.0644 130.263 99.6685C129.549 100.063 128.394 99.6147 127.955 97.7426C127.955 97.7426 128.834 100.437 127.476 101.098C126.014 101.81 125.562 100.315 124.381 98.8431C123.388 97.608 122.939 99.1811 122.939 99.1811L120.167 95.5296Z" fill="#AA8776"/>
<path d="M123.733 95.5867C124.018 95.6345 124.305 95.6615 124.595 95.6704C125.967 95.823 127.185 96.6184 127.878 97.8117C128.001 98.0749 128.142 98.3261 128.3 98.5683C128.336 98.5593 128.306 98.2155 128.073 97.7101C127.436 96.3643 126.099 95.488 124.61 95.4491C124.056 95.4372 123.727 95.5478 123.733 95.5867Z" fill="#996552"/>
<mask id="mask0" mask-type="alpha" maskUnits="userSpaceOnUse" x="0" y="0" width="220" height="196">
<path d="M11.9869 52.0213C15.0881 45.113 18.7098 39.3531 22.765 35.2082C23.9134 34.0179 25.1515 32.9383 26.4614 31.9813C27.6337 31.12 28.8748 30.3843 30.1668 29.7772C48.6397 21.1972 67.5583 40.7198 88.6929 38.4141C106.409 36.4762 119.155 25.4199 130.46 16.1371C134.165 12.964 138.041 10.0572 142.069 7.43142C143.137 6.76153 144.213 6.15144 145.281 5.61014C146.429 5.03296 147.653 4.49166 148.957 3.99522C148.957 3.98924 148.963 3.98325 148.966 3.98325L148.978 3.99522C165.345 -2.31197 192.999 -2.08169 205.252 11.4897C218.081 25.707 233.662 71.7832 198.373 131.132C159.166 197.102 52.04 206.217 23.414 184.403C-6.21098 161.848 -5.0207 89.9213 11.9869 52.0213Z" fill="#E4F2FF"/>
</mask>
<g mask="url(#mask0)">
<path d="M43.7461 137.317L46.0608 148.43H56.0285L57.7451 137.155L43.7461 137.317Z" fill="#EBEBEB"/>
<path d="M50.8437 144.32C53.9958 144.32 56.5498 144.347 56.5498 144.38C56.5498 144.413 53.9958 144.44 50.8437 144.44C47.6946 144.44 45.1406 144.413 45.1406 144.38C45.1406 144.347 47.6946 144.32 50.8437 144.32Z" fill="#FAFAFA"/>
<path d="M50.8436 143.767C54.0166 143.767 56.5885 143.794 56.5885 143.826C56.5885 143.859 54.0166 143.886 50.8436 143.886C47.6735 143.886 45.1016 143.859 45.1016 143.826C45.1016 143.791 47.6706 143.767 50.8436 143.767Z" fill="#FAFAFA"/>
<path d="M50.863 143.139C54.0361 143.139 56.608 143.166 56.608 143.198C56.608 143.231 54.0361 143.258 50.863 143.258C47.69 143.258 45.1211 143.231 45.1211 143.198C45.1181 143.166 47.69 143.139 50.863 143.139Z" fill="#FAFAFA"/>
<path d="M55.0654 146.342C55.1282 145.864 55.2329 145.388 55.3704 144.925C55.3465 145.409 55.2808 145.891 55.1791 146.363C55.1163 146.845 55.0116 147.32 54.874 147.784C54.9009 147.299 54.9637 146.818 55.0654 146.342Z" fill="#FAFAFA"/>
<path d="M54.1993 147.667C54.1455 146.737 54.2082 145.807 54.3877 144.892C54.3966 145.355 54.3727 145.819 54.3219 146.282C54.3099 146.743 54.2681 147.206 54.1993 147.667Z" fill="#FAFAFA"/>
<path d="M53.3086 144.802C53.3205 145.765 53.2068 146.728 52.9766 147.664C53.0543 146.707 53.165 145.753 53.3086 144.802Z" fill="#FAFAFA"/>
<path d="M52.2051 144.832C52.2948 145.795 52.2649 146.767 52.1094 147.724C52.1094 146.761 52.1393 145.795 52.2051 144.832Z" fill="#FAFAFA"/>
<path d="M50.6587 144.922C50.7065 145.837 50.6736 146.755 50.5659 147.664C50.5181 146.749 50.548 145.834 50.6587 144.922Z" fill="#FAFAFA"/>
<path d="M49.4202 144.889C49.5069 145.831 49.5129 146.779 49.4441 147.724C49.3574 146.782 49.3484 145.834 49.4202 144.889Z" fill="#FAFAFA"/>
<path d="M48.1016 144.623C48.275 145.598 48.3707 146.585 48.3886 147.575C48.2152 146.6 48.1195 145.613 48.1016 144.623Z" fill="#FAFAFA"/>
<path d="M46.4883 144.951C46.8023 145.741 46.9847 146.578 47.0266 147.427C46.8322 146.605 46.6528 145.78 46.4883 144.951Z" fill="#FAFAFA"/>
<path d="M48.0172 114.958L48.074 115.114L48.2834 115.715C48.3761 115.975 48.4838 116.298 48.5944 116.675C48.7051 117.052 48.8456 117.476 48.9682 117.958C49.0998 118.436 49.2433 118.96 49.3719 119.528C49.5155 120.093 49.6351 120.703 49.7667 121.346C50.0119 122.632 50.2333 124.059 50.3888 125.563C50.5353 127.067 50.5981 128.509 50.6131 129.819C50.6101 130.474 50.613 131.096 50.5831 131.679C50.5712 132.262 50.5353 132.803 50.4994 133.297C50.4725 133.793 50.4157 134.242 50.3828 134.63C50.3499 135.019 50.305 135.357 50.2661 135.632C50.2302 135.898 50.2003 136.111 50.1794 136.263C50.1704 136.329 50.1615 136.383 50.1525 136.428C50.1495 136.446 50.1465 136.464 50.1405 136.482C50.1375 136.464 50.1375 136.443 50.1405 136.425C50.1435 136.38 50.1495 136.326 50.1555 136.257C50.1704 136.102 50.1944 135.889 50.2213 135.623C50.2542 135.348 50.2871 135.013 50.317 134.618C50.3469 134.227 50.3947 133.781 50.4156 133.288C50.4455 132.794 50.4754 132.253 50.4874 131.673C50.5113 131.093 50.5054 130.471 50.5054 129.816C50.4844 128.509 50.4186 127.07 50.2721 125.569C50.1196 124.068 49.9012 122.647 49.662 121.361C49.5334 120.721 49.4168 120.111 49.2763 119.546C49.1507 118.975 49.0131 118.454 48.8875 117.976C48.7679 117.494 48.6333 117.07 48.5286 116.69C48.424 116.31 48.3192 115.99 48.2355 115.724C48.1547 115.467 48.092 115.263 48.0471 115.114L47.9993 114.955C47.9933 114.937 47.9873 114.919 47.9873 114.898C48.0052 114.919 48.0142 114.937 48.0172 114.958Z" fill="#EBEBEB"/>
<path d="M49.9735 122.77C49.3754 122.857 48.7653 122.701 48.2809 122.342C47.7336 121.983 47.3328 121.436 47.1534 120.805C47.0517 120.434 47.0786 119.944 47.4255 119.776C47.7066 119.686 48.0147 119.743 48.2449 119.926C48.9717 120.38 49.522 121.071 49.7941 121.885" fill="#EBEBEB"/>
<path d="M50.4963 127.085C49.0518 126.738 47.9244 125.605 47.5864 124.157C47.5087 123.939 47.5476 123.697 47.6852 123.511C47.8078 123.406 47.9752 123.371 48.1337 123.415C48.2863 123.46 48.4268 123.538 48.5494 123.64C49.4316 124.432 50.0687 125.458 50.3887 126.6" fill="#EBEBEB"/>
<path d="M50.5074 131.697C49.9003 131.479 49.3231 131.183 48.7907 130.815C48.2136 130.36 47.6513 129.771 47.5885 129.036C47.5586 128.68 47.7171 128.249 48.07 128.186C48.3093 128.171 48.5425 128.255 48.719 128.417C49.5354 129.015 50.1754 129.822 50.5761 130.752" fill="#EBEBEB"/>
<path d="M50.3714 134.323C49.4622 134.024 48.6757 133.447 48.1164 132.669C47.946 132.445 47.7964 132.131 47.9549 131.897C48.0656 131.757 48.245 131.688 48.4215 131.721C48.5949 131.754 48.7565 131.826 48.894 131.933C49.546 132.409 50.0843 133.022 50.4731 133.731" fill="#EBEBEB"/>
<path d="M50.4727 133.175C51.7646 132.846 52.8352 131.943 53.3795 130.728C53.4363 130.612 53.4663 130.483 53.4663 130.355C53.4633 130.22 53.3825 130.1 53.2569 130.05C53.0984 129.999 52.9339 130.112 52.8083 130.22C51.9858 130.917 51.2293 131.685 50.5504 132.52" fill="#EBEBEB"/>
<path d="M50.5741 129.221C51.1603 129.281 51.7435 129.101 52.1951 128.721C52.7065 128.345 53.143 127.878 53.487 127.346C53.6514 127.136 53.7681 126.894 53.8339 126.637C53.8937 126.371 53.801 126.096 53.5917 125.922C53.3584 125.785 53.0653 125.788 52.835 125.931C52.6107 126.075 52.4164 126.26 52.2579 126.479L50.4844 128.641" fill="#EBEBEB"/>
<path d="M50.3262 125.01C51.035 124.762 51.7018 124.4 52.2999 123.946C52.6319 123.709 52.916 123.41 53.1343 123.063C53.3526 122.714 53.4095 122.286 53.2958 121.888C53.1971 121.526 52.8562 121.287 52.4824 121.317C52.306 121.365 52.1444 121.458 52.0159 121.589C51.1934 122.31 50.5774 123.234 50.2305 124.269" fill="#EBEBEB"/>
<path d="M49.6829 120.937C51.1393 120.393 52.1292 119.029 52.198 117.477C52.21 117.307 52.186 117.136 52.1262 116.978C52.0634 116.816 51.9258 116.697 51.7553 116.661C51.4922 116.622 51.2679 116.846 51.1094 117.061C50.3528 118.075 49.7008 119.119 49.5273 120.375" fill="#EBEBEB"/>
<path d="M49.0249 118.38C48.2025 118.063 47.413 116.804 46.9405 115.664C46.8298 115.431 46.764 115.18 46.7401 114.923C46.7191 114.663 46.8179 114.405 47.0093 114.226C47.2366 114.056 47.5386 114.017 47.8017 114.121C48.0619 114.229 48.2833 114.405 48.4478 114.636C48.8276 115.165 49.0518 115.79 49.0907 116.442C49.1296 117.088 49.1087 117.737 49.0249 118.38Z" fill="#EBEBEB"/>
<path d="M56.7711 120.033C56.7741 120.15 56.7801 120.3 56.7891 120.488C56.798 120.685 56.801 120.928 56.798 121.209C56.795 121.49 56.798 121.81 56.7801 122.163C56.7591 122.871 56.6994 123.712 56.5977 124.642C56.49 125.572 56.3375 126.592 56.1132 127.647C55.8889 128.703 55.6227 129.699 55.3476 130.596C55.0664 131.49 54.7823 132.283 54.5162 132.941C54.3906 133.273 54.256 133.563 54.1483 133.823C54.0407 134.083 53.936 134.302 53.8493 134.481L53.6519 134.891C53.631 134.939 53.6071 134.986 53.5771 135.031C53.5891 134.98 53.61 134.93 53.631 134.882L53.8104 134.463C53.8912 134.284 53.9839 134.059 54.0885 133.799C54.1932 133.539 54.3189 133.246 54.4385 132.914C54.6927 132.256 54.9678 131.46 55.2429 130.569C55.5091 129.675 55.7783 128.685 55.9966 127.63C56.2149 126.574 56.3734 125.56 56.487 124.636C56.5947 123.709 56.6634 122.871 56.6933 122.166C56.7173 121.813 56.7173 121.493 56.7263 121.215C56.7352 120.937 56.7382 120.691 56.7382 120.494L56.7442 120.039C56.7412 119.986 56.7442 119.932 56.7532 119.881C56.7652 119.926 56.7711 119.98 56.7711 120.033Z" fill="#E0E0E0"/>
<path d="M56.4055 125.656C55.9809 125.584 55.5981 125.351 55.3439 125.001C55.0478 124.639 54.8923 124.179 54.9072 123.712C54.9162 123.437 55.0418 123.111 55.314 123.069C55.5263 123.069 55.7207 123.174 55.8403 123.347C56.2381 123.814 56.4623 124.403 56.4743 125.016" fill="#E0E0E0"/>
<path d="M55.8341 128.709C54.9249 128.162 54.4016 127.148 54.4853 126.089C54.4793 125.925 54.5571 125.766 54.6946 125.673C54.8023 125.629 54.9249 125.641 55.0206 125.703C55.1163 125.766 55.194 125.85 55.2568 125.946C55.6875 126.675 55.8998 127.51 55.8729 128.356" fill="#E0E0E0"/>
<path d="M54.8449 131.849C54.4771 131.568 54.1481 131.242 53.867 130.877C53.529 130.468 53.3705 129.935 53.4304 129.406C53.4872 129.158 53.6875 128.898 53.9417 128.931C54.1062 128.972 54.2468 129.08 54.3335 129.227C54.7582 129.81 55.0214 130.498 55.0961 131.215" fill="#E0E0E0"/>
<path d="M54.1924 133.608C53.6391 133.21 53.2264 132.645 53.0141 131.996C52.9453 131.807 52.9124 131.562 53.0709 131.436C53.1756 131.365 53.3131 131.356 53.4268 131.415C53.5374 131.475 53.6301 131.559 53.7049 131.661C54.0458 132.124 54.2821 132.66 54.3927 133.225" fill="#E0E0E0"/>
<path d="M54.5156 132.849C55.4666 132.902 56.3877 132.52 57.0217 131.808C57.0845 131.739 57.1324 131.658 57.1623 131.569C57.1892 131.479 57.1593 131.38 57.0875 131.317C56.9768 131.266 56.8483 131.272 56.7436 131.335C56.0348 131.631 55.353 131.993 54.71 132.415" fill="#E0E0E0"/>
<path d="M55.4375 130.175C55.8233 130.343 56.2599 130.346 56.6457 130.184C57.0734 130.038 57.4711 129.816 57.821 129.526C57.9795 129.419 58.1111 129.278 58.2098 129.117C58.3085 128.949 58.3025 128.74 58.1978 128.578C58.0692 128.435 57.8689 128.372 57.6805 128.423C57.498 128.474 57.3246 128.557 57.1721 128.674L55.4973 129.765" fill="#E0E0E0"/>
<path d="M56.1748 127.259C56.7131 127.241 57.2425 127.14 57.7479 126.957C58.026 126.868 58.2832 126.724 58.5045 126.536C58.7288 126.344 58.8604 126.066 58.8693 125.77C58.8783 125.504 58.6989 125.268 58.4387 125.205C58.3071 125.199 58.1785 125.229 58.0649 125.289C57.3501 125.603 56.7311 126.099 56.2735 126.73" fill="#E0E0E0"/>
<path d="M56.6094 124.346C57.7189 124.289 58.6848 123.574 59.0646 122.53C59.1095 122.417 59.1304 122.297 59.1244 122.175C59.1185 122.052 59.0467 121.938 58.942 121.879C58.7566 121.825 58.5562 121.875 58.4156 122.013C57.665 122.486 57.0489 123.147 56.6273 123.927" fill="#E0E0E0"/>
<path d="M56.7107 122.465C56.2202 122.07 55.954 121.044 55.8763 120.168C55.8524 119.986 55.8584 119.8 55.9002 119.621C55.9421 119.438 56.0648 119.286 56.2322 119.205C56.4236 119.139 56.6359 119.175 56.7944 119.304C56.9469 119.432 57.0606 119.603 57.1234 119.791C57.267 120.234 57.2849 120.706 57.1742 121.158C57.0576 121.607 56.9051 122.046 56.7107 122.465Z" fill="#E0E0E0"/>
<path d="M44.1626 119.926C44.1626 120.043 44.1656 120.192 44.1686 120.381C44.1686 120.578 44.1716 120.82 44.1806 121.101C44.1895 121.383 44.1925 121.703 44.2134 122.055C44.2433 122.761 44.3122 123.599 44.4198 124.526C44.5365 125.453 44.686 126.467 44.9102 127.519C45.1345 128.572 45.3977 129.565 45.6639 130.459C45.939 131.35 46.2112 132.146 46.4683 132.804C46.588 133.136 46.7165 133.429 46.8182 133.689C46.9229 133.949 47.0186 134.17 47.0964 134.353C47.1712 134.526 47.2279 134.664 47.2758 134.772C47.2997 134.819 47.3177 134.87 47.3297 134.921C47.2998 134.876 47.2729 134.831 47.2549 134.78L47.0575 134.371C46.9708 134.191 46.8691 133.973 46.7584 133.713C46.6478 133.456 46.5162 133.163 46.3906 132.831C46.1244 132.176 45.8433 131.38 45.5622 130.486C45.287 129.592 45.0149 128.596 44.7966 127.537C44.5783 126.479 44.4228 125.462 44.3121 124.532C44.2104 123.602 44.1506 122.761 44.1297 122.052C44.1117 121.7 44.1178 121.38 44.1118 121.098C44.1058 120.817 44.1118 120.575 44.1208 120.378C44.1267 120.189 44.1327 120.04 44.1386 119.923C44.1386 119.869 44.1417 119.818 44.1536 119.765C44.1626 119.818 44.1656 119.872 44.1626 119.926Z" fill="#EBEBEB"/>
<path d="M44.5063 125.549C44.9309 125.477 45.3138 125.244 45.568 124.894C45.864 124.532 46.0195 124.071 46.0046 123.605C45.9956 123.33 45.87 123.004 45.5979 122.962C45.3856 122.962 45.1912 123.067 45.0715 123.24C44.6738 123.707 44.4495 124.296 44.4375 124.909" fill="#EBEBEB"/>
<path d="M45.0685 128.601C45.9777 128.054 46.501 127.04 46.4173 125.982C46.4233 125.817 46.3455 125.659 46.208 125.566C46.1003 125.521 45.9777 125.533 45.882 125.596C45.7863 125.659 45.7085 125.742 45.6457 125.838C45.2151 126.568 45.0027 127.402 45.0296 128.249" fill="#EBEBEB"/>
<path d="M46.0637 131.739C46.4316 131.458 46.7605 131.132 47.0416 130.767C47.3795 130.357 47.5381 129.825 47.4783 129.299C47.4215 129.05 47.221 128.79 46.9668 128.823C46.8023 128.865 46.6618 128.973 46.5751 129.119C46.1505 129.702 45.8873 130.39 45.8125 131.108" fill="#EBEBEB"/>
<path d="M46.716 133.5C47.2693 133.102 47.682 132.537 47.8943 131.888C47.9631 131.7 47.996 131.452 47.8375 131.329C47.7329 131.257 47.5953 131.248 47.4817 131.308C47.371 131.368 47.2782 131.452 47.2035 131.553C46.8625 132.017 46.6263 132.552 46.5156 133.117" fill="#EBEBEB"/>
<path d="M46.4026 132.741C45.4516 132.795 44.5305 132.412 43.8965 131.7C43.8337 131.632 43.7828 131.551 43.7559 131.461C43.7289 131.371 43.7589 131.273 43.8306 131.21C43.9413 131.159 44.0699 131.165 44.1746 131.228C44.8834 131.524 45.5652 131.886 46.2082 132.307" fill="#EBEBEB"/>
<path d="M45.4872 130.064C45.1015 130.231 44.6648 130.234 44.279 130.073C43.8514 129.926 43.4536 129.705 43.1037 129.415C42.9452 129.307 42.8136 129.167 42.715 129.005C42.6163 128.838 42.6223 128.628 42.7269 128.467C42.8555 128.323 43.0559 128.261 43.2443 128.311C43.4267 128.362 43.6002 128.446 43.7528 128.563L45.4275 129.654" fill="#EBEBEB"/>
<path d="M44.7456 127.151C44.2073 127.133 43.678 127.031 43.1726 126.849C42.8945 126.759 42.6373 126.616 42.4159 126.427C42.1917 126.236 42.0601 125.958 42.0511 125.662C42.0421 125.396 42.2216 125.159 42.4818 125.096C42.6134 125.09 42.742 125.12 42.8556 125.18C43.5704 125.494 44.1894 125.991 44.647 126.622" fill="#EBEBEB"/>
<path d="M44.31 124.236C43.2005 124.179 42.2346 123.464 41.8547 122.421C41.8099 122.307 41.789 122.187 41.7949 122.065C41.8009 121.942 41.8697 121.828 41.9773 121.769C42.1628 121.715 42.3631 121.769 42.5037 121.903C43.2543 122.376 43.8704 123.037 44.2921 123.817" fill="#EBEBEB"/>
<path d="M44.1943 122.357C44.6848 121.963 44.951 120.937 45.0287 120.061C45.0526 119.878 45.0467 119.693 45.0048 119.513C44.963 119.331 44.8403 119.178 44.6699 119.098C44.4785 119.032 44.2662 119.068 44.1107 119.196C43.9581 119.325 43.8445 119.495 43.7817 119.684C43.6381 120.126 43.6202 120.599 43.7308 121.051C43.8475 121.499 43.9999 121.936 44.1943 122.357Z" fill="#EBEBEB"/>
<path d="M42.793 134.921V137.032C42.793 137.49 43.1638 137.864 43.6244 137.864H58.06C58.5176 137.864 58.8914 137.493 58.8914 137.032V134.921H42.793Z" fill="#EBEBEB"/>
<path d="M43.8555 137.86L44.1934 139.481L57.5135 138.533L57.6332 137.86H43.8555Z" fill="#E0E0E0"/>
<path d="M77.3018 169.256C77.5948 169.352 79.778 182.765 85.3884 188.871C90.9987 194.978 93.2955 188.871 93.2955 188.871C93.2955 188.871 87.9364 161.026 87.8796 161.05L77.3018 169.256Z" fill="#FFBE9D"/>
<path d="M46.5434 142.162C45.3741 142.464 44.1629 142.574 42.9577 142.488C41.7614 142.335 40.5562 141.719 40.0119 140.642C39.6889 139.862 39.5513 139.015 39.6051 138.175C39.5423 131.452 39.7398 124.741 40.1913 118.039C40.4635 114.002 40.8373 109.938 41.9618 106.05C43.0862 102.162 45.0182 98.4239 48.0117 95.6995C51.0053 92.975 55.1473 91.3661 59.1488 91.9612" fill="#263238"/>
<path d="M62.2734 144.991C62.8417 146.806 63.679 148.586 65.0427 149.91C66.4065 151.235 68.3623 152.049 70.2315 151.702C72.2741 151.325 73.877 149.638 74.7204 147.739C75.5637 145.84 75.7671 143.732 75.9614 141.662C76.3981 137.015 76.8347 132.368 77.2744 127.72C77.6691 123.515 78.0668 119.281 77.6691 115.076C77.3072 111.251 76.2964 107.522 75.2886 103.813C74.6605 101.498 74.7442 98.0383 73.2519 96.1632C71.332 93.7468 67.528 92.8377 64.4746 93.2863" fill="#263238"/>
<path d="M76.6771 135.201C77.3201 133.936 77.8913 132.635 78.3877 131.304C79.1533 129.315 79.7066 127.249 80.0325 125.144C80.2269 123.882 80.2987 122.602 80.2479 121.325C80.2479 120.99 80.203 120.658 80.1791 120.317C80.1551 119.976 80.1073 119.638 80.0595 119.297C79.9518 118.615 79.8173 117.93 79.6408 117.251C78.938 114.527 77.8554 112.128 76.9493 109.969C76.1119 108.094 75.4001 106.162 74.8199 104.191C73.8629 100.833 74.1231 98.6259 73.8689 98.5989C73.7703 98.584 73.5669 99.1193 73.4562 100.139C73.3336 101.581 73.4203 103.034 73.7164 104.449C74.156 106.524 74.7781 108.558 75.5796 110.522C76.4199 112.73 77.4307 115.098 78.0856 117.646C78.7047 120.03 78.8662 122.509 78.5672 124.955C78.316 126.986 77.8943 128.989 77.3111 130.948C76.8296 132.644 76.381 134.011 76.1029 134.971C75.8248 135.931 75.7082 136.478 75.8128 136.52C75.9115 136.562 76.2225 136.092 76.6771 135.201Z" fill="#263238"/>
<path d="M48.7935 138.541C48.9789 143.578 52.4749 147.836 57.6038 147.714C62.7147 147.585 66.0463 143.509 65.9535 138.485L65.3554 130.763C65.3554 130.739 65.3734 130.718 65.3973 130.715C66.0074 130.703 66.6145 130.628 67.2097 130.491C68.8874 129.91 73.1071 127.814 73.9654 121.25C74.2525 119.073 74.1717 112.978 73.9594 106.925C73.7172 100.019 68.1367 94.2056 61.1058 94.0382C53.6472 93.8587 47.6242 99.7622 47.693 107.002L48.7935 138.541Z" fill="#FFBE9D"/>
<path d="M65.5284 132.797C57.1965 133.772 55.2676 128.039 55.2676 128.039C60.9318 131.188 65.3698 130.719 65.3698 130.719L65.5284 132.797Z" fill="#EB996E"/>
<path d="M77.8311 173.997L89.4794 166.694C89.4794 166.694 89.0668 151.875 85.6964 145.134C82.3259 138.394 76.7185 138.02 76.1055 137.867L77.8311 173.997Z" fill="#E8505B"/>
<path d="M71.4542 156.935H71.1133L69.7825 156.917C68.6102 156.893 66.9055 156.86 64.7433 156.819C60.4039 156.723 54.2253 156.582 46.8565 156.418L46.9462 156.319C47.311 159.498 47.7029 162.937 48.1186 166.562C48.3249 168.377 48.5372 170.231 48.7525 172.13C48.8602 173.078 48.9679 174.035 49.0815 175.001C49.1383 175.483 49.1921 175.97 49.2489 176.455C49.2878 176.939 49.3776 177.415 49.5181 177.881C49.6557 178.432 50.0594 178.88 50.5917 179.078C51.151 179.191 51.7282 179.206 52.2904 179.119L55.7236 178.874L62.3388 178.405L74.2923 177.564L74.2146 177.66C73.4071 171.419 72.7342 166.242 72.2677 162.614C72.0404 160.811 71.8639 159.393 71.7383 158.418C71.6815 157.94 71.6366 157.572 71.6067 157.315C71.5768 157.064 71.5709 156.935 71.5709 156.935C71.5709 156.935 71.5948 157.061 71.6336 157.309L71.7922 158.41C71.9267 159.381 72.1211 160.796 72.3693 162.599C72.8568 166.224 73.5506 171.398 74.388 177.636L74.4 177.726L74.3102 177.732L62.3598 178.596C60.2185 178.749 58.0085 178.91 55.7446 179.072L52.3113 179.317C51.7222 179.407 51.1211 179.389 50.5349 179.266C50.2359 179.17 49.9667 178.994 49.7664 178.752C49.572 178.512 49.4224 178.24 49.3297 177.944C49.1831 177.466 49.0905 176.975 49.0516 176.476C48.9948 175.988 48.9409 175.504 48.8841 175.019C48.7734 174.053 48.6658 173.096 48.5582 172.148C48.3428 170.249 48.1335 168.392 47.9271 166.58C47.5174 162.955 47.1287 159.516 46.7698 156.337L46.7578 156.235L46.8594 156.238L64.7463 156.714L69.7825 156.86L71.1133 156.908L71.4542 156.923C71.4931 156.923 71.532 156.926 71.5679 156.932C71.532 156.935 71.4931 156.938 71.4542 156.935Z" fill="#FF735D"/>
<path d="M70.035 167.456C70.6839 173.281 71.1625 178.004 71.1086 178.013C71.0518 178.019 70.4836 173.302 69.8346 167.48C69.1857 161.657 68.7071 156.932 68.761 156.926C68.8178 156.917 69.389 161.63 70.035 167.456Z" fill="#FF735D"/>
<path d="M66.9695 167.193C67.6185 173.019 68.097 177.741 68.0432 177.75C67.9864 177.756 67.4182 173.04 66.7692 167.217C66.1202 161.394 65.6417 156.669 65.6955 156.663C65.7524 156.654 66.3206 161.367 66.9695 167.193Z" fill="#FF735D"/>
<path d="M63.9031 167.456C64.5521 173.281 65.0336 178.004 64.9768 178.013C64.92 178.019 64.3517 173.302 63.7028 167.48C63.0538 161.657 62.5753 156.932 62.6291 156.926C62.683 156.917 63.2542 161.63 63.9031 167.456Z" fill="#FF735D"/>
<path d="M60.8406 167.456C61.4896 173.281 61.9711 178.004 61.9143 178.013C61.8575 178.019 61.2863 173.302 60.6403 167.48C59.9913 161.657 59.5128 156.932 59.5666 156.926C59.6205 156.917 60.1917 161.63 60.8406 167.456Z" fill="#FF735D"/>
<path d="M57.492 167.193C58.141 173.019 58.6195 177.741 58.5657 177.75C58.5088 177.756 57.9406 173.04 57.2917 167.217C56.6427 161.394 56.1642 156.669 56.218 156.663C56.2748 156.654 56.843 161.367 57.492 167.193Z" fill="#FF735D"/>
<path d="M54.404 167.193C55.053 173.019 55.5315 177.741 55.4777 177.75C55.4208 177.756 54.8496 173.04 54.2037 167.217C53.5577 161.394 53.0763 156.669 53.1301 156.663C53.1839 156.654 53.7551 161.367 54.404 167.193Z" fill="#FF735D"/>
<path d="M51.8328 167.614C52.4818 173.44 52.9603 178.165 52.9065 178.171C52.8497 178.177 52.2814 173.461 51.6325 167.638C50.9835 161.815 50.505 157.09 50.5588 157.084C50.6126 157.075 51.1839 161.791 51.8328 167.614Z" fill="#FF735D"/>
<path d="M78.176 173.769C78.2807 173.608 78.4033 173.407 78.5409 173.171C78.6784 172.935 78.8429 172.672 78.9984 172.364C79.3812 171.658 79.7281 170.931 80.0392 170.189C80.7958 168.371 81.3161 166.463 81.5823 164.51C81.69 163.715 81.7587 162.913 81.7856 162.109C81.8066 161.765 81.7946 161.457 81.8006 161.182C81.8066 160.907 81.7976 160.673 81.7916 160.482C81.7737 160.282 81.7767 160.081 81.7946 159.884C81.8365 160.078 81.8634 160.279 81.8694 160.479C81.8903 160.67 81.9053 160.907 81.9143 161.182C81.9233 161.457 81.9411 161.768 81.9292 162.115C81.9232 162.925 81.8693 163.733 81.7677 164.537C81.5194 166.508 80.9961 168.437 80.2126 170.264C79.8926 171.009 79.5307 171.733 79.124 172.435C78.9595 172.737 78.7831 172.998 78.6395 173.231C78.496 173.464 78.3614 173.659 78.2448 173.814C78.1371 173.982 78.0145 174.14 77.8799 174.29C77.9606 174.107 78.0594 173.934 78.176 173.769Z" fill="#263238"/>
<path d="M35.532 139.835C35.7922 139.916 36.0464 140.017 36.2916 140.137C37.2068 140.561 38.0441 141.133 38.7679 141.833C39.2733 142.311 39.7278 142.84 40.1225 143.412C41.0975 144.793 41.7226 146.387 41.9498 148.062C42.0635 148.974 42.0964 149.916 42.1293 150.885C42.234 154.752 42.1592 158.251 42.1113 160.781C42.0784 162.028 42.0515 163.048 42.0306 163.778L41.9977 164.591C41.9977 164.687 41.9887 164.782 41.9738 164.875C41.9588 164.782 41.9528 164.687 41.9588 164.591C41.9588 164.385 41.9558 164.115 41.9528 163.778C41.9558 163.048 41.9618 162.031 41.9678 160.778C41.9798 158.248 42.0306 154.749 41.9259 150.891C41.893 149.928 41.8631 148.983 41.7525 148.086C41.5342 146.441 40.927 144.871 39.985 143.504C39.6022 142.936 39.1596 142.41 38.6692 141.931C37.9604 141.231 37.1469 140.651 36.2557 140.203C36.0165 140.077 35.7683 139.966 35.5141 139.868C35.4243 139.835 35.3376 139.796 35.2539 139.748C35.3526 139.772 35.4453 139.799 35.532 139.835Z" fill="#263238"/>
<path d="M54.8388 103.463C57.8473 101.474 60.8589 99.4855 63.8674 97.4967C64.7795 96.8926 65.7754 96.1659 65.9339 95.0803C66.1343 93.7106 64.8752 92.5622 63.6072 92.003C59.8151 90.3282 55.2694 91.5514 51.8542 93.905C48.9533 95.8429 46.7193 98.6331 45.4662 101.89C44.3328 105.009 44.2999 108.403 44.2819 111.723C44.2401 119.397 44.1952 127.071 44.1534 134.745C44.1354 137.696 44.1204 140.672 44.7186 143.564C45.3167 146.453 46.5817 149.288 48.7619 151.277C49.7338 152.231 50.9779 152.859 52.3236 153.077C53.6903 153.277 55.0571 152.715 55.8915 151.612C56.6421 150.502 56.5763 149.022 56.2174 147.73C55.8585 146.438 55.2365 145.227 54.9404 143.92C54.438 141.695 54.9076 139.383 55.1289 137.113C55.6941 131.341 54.6444 125.555 54.0492 119.786C53.4541 114.017 53.3554 107.979 55.6791 102.664" fill="#263238"/>
<path d="M54.6576 142.748C55.3724 141.321 55.9855 139.847 56.4909 138.333C57.2685 136.063 57.729 133.698 57.8666 131.302C58.0191 128.56 57.5047 125.581 56.76 122.603C56.0154 119.624 55.187 116.858 54.7683 114.322C54.3646 112.088 54.3047 109.803 54.5888 107.551C54.7982 106.038 55.2498 104.572 55.9346 103.206C56.0662 102.966 56.1799 102.754 56.2726 102.563L56.5387 102.096C56.6793 101.836 56.7331 101.681 56.6912 101.645C56.6494 101.609 56.5118 101.695 56.2846 101.896C56.144 102.018 56.0094 102.15 55.8838 102.285C55.7402 102.452 55.5818 102.649 55.3994 102.877C54.4513 104.217 53.7963 105.739 53.4704 107.348C53.0008 109.719 52.9441 112.154 53.3029 114.543C53.6618 117.238 54.4692 120.064 55.1989 122.989C55.9286 125.913 56.449 128.707 56.3832 131.258C56.3174 133.539 55.9855 135.809 55.3994 138.016C54.9059 139.921 54.4064 141.45 54.0775 142.514C53.7485 143.579 53.59 144.186 53.6947 144.231C53.7993 144.273 54.1492 143.752 54.6576 142.748Z" fill="#263238"/>
<path d="M48.9165 147.685L48.8626 147.377C48.8117 147.105 48.731 146.707 48.6532 146.19C48.42 144.731 48.2615 143.259 48.1778 141.785C48.0612 139.919 48.0432 137.685 48.1149 135.211C48.1867 132.738 48.3423 130.017 48.4739 127.161C48.74 121.452 48.9822 116.284 49.1586 112.531C49.2394 110.665 49.3022 109.154 49.3471 108.096C49.365 107.581 49.38 107.175 49.3889 106.89L49.3949 106.576C49.3979 106.541 49.3949 106.505 49.3919 106.469C49.3829 106.505 49.38 106.541 49.377 106.576L49.3531 106.89L49.2783 108.096C49.2215 109.151 49.1377 110.665 49.039 112.528C48.8506 116.281 48.5935 121.446 48.3064 127.155C48.1718 130.011 48.0253 132.729 47.9595 135.208C47.8937 137.688 47.9235 139.925 48.0551 141.794C48.1478 143.271 48.3243 144.745 48.5815 146.202C48.6682 146.719 48.7579 147.117 48.8177 147.386L48.8865 147.691C48.8925 147.727 48.9015 147.76 48.9165 147.793C48.9254 147.757 48.9224 147.721 48.9165 147.685Z" fill="#455A64"/>
<path d="M51.7955 130.189C51.7775 130.007 51.7566 129.759 51.7297 129.448C51.6699 128.787 51.5801 127.863 51.4754 126.723C51.2661 124.424 51.0119 121.245 50.8295 117.728C50.6441 114.208 50.5603 111.02 50.5274 108.711C50.5125 107.569 50.5035 106.638 50.4945 105.978C50.4885 105.666 50.4856 105.418 50.4826 105.233C50.4856 105.146 50.4796 105.059 50.4676 104.973C50.4557 105.059 50.4497 105.146 50.4497 105.233L50.4317 105.978C50.4168 106.623 50.4108 107.56 50.4138 108.714C50.4198 111.023 50.4826 114.217 50.668 117.74C50.8534 121.259 51.1256 124.441 51.3618 126.738C51.4785 127.887 51.5831 128.817 51.6669 129.457C51.7088 129.765 51.7387 130.01 51.7626 130.195C51.7686 130.282 51.7835 130.369 51.8074 130.453C51.8104 130.363 51.8074 130.276 51.7955 130.189Z" fill="#455A64"/>
<path d="M62.1479 159.235L63.6432 158.667L65.8562 157.811L67.1572 157.294L67.836 157.007C67.9527 156.959 68.0603 156.902 68.1739 156.851C68.2726 156.792 68.3534 156.711 68.4162 156.615C69.6573 154.982 70.6681 153.403 71.4038 152.276C71.7477 151.729 72.0348 151.274 72.2561 150.924C72.3489 150.751 72.4565 150.586 72.5761 150.434C72.5103 150.619 72.4236 150.795 72.3249 150.966C72.1485 151.301 71.8763 151.776 71.5264 152.357C70.8176 153.508 69.8308 155.093 68.5777 156.747C68.4969 156.863 68.3923 156.962 68.2696 157.034C68.153 157.091 68.0364 157.148 67.9198 157.195C67.6865 157.297 67.4592 157.39 67.2319 157.482C66.7773 157.659 66.3407 157.829 65.922 157.991C65.0876 158.305 64.328 158.58 63.691 158.804C63.0151 159.079 62.3153 159.298 61.6006 159.45C61.6036 159.432 61.795 159.373 62.1479 159.235Z" fill="#EB996E"/>
<path d="M61.1142 156.217C61.82 155.996 62.5437 155.829 63.2764 155.712C62.6005 156.02 61.8918 156.256 61.165 156.412C60.4503 156.63 59.7057 156.735 58.961 156.72C58.952 156.666 59.9329 156.522 61.1142 156.217Z" fill="#EB996E"/>
<path d="M55.8711 153.55C56.3735 153.466 57.0673 153.343 57.8329 153.2C58.751 152.981 59.684 152.832 60.6261 152.748C60.3689 152.856 60.1028 152.933 59.8276 152.978C59.3312 153.095 58.6403 153.25 57.8717 153.394C57.1032 153.538 56.4004 153.639 55.889 153.687C55.6139 153.732 55.3357 153.741 55.0576 153.714C55.3208 153.627 55.5929 153.573 55.8711 153.55Z" fill="#EB996E"/>
<path d="M106.639 141.567C105.978 143.356 104.785 151.539 104.785 151.539C104.785 151.539 98.1548 186.374 92.7193 189.783C87.2837 193.192 84.2108 184.416 84.8796 180.359C85.5484 176.301 97.2927 149.617 97.2927 149.617L96.4398 146.946L106.639 141.567Z" fill="#FFBE9D"/>
<path d="M107.679 132.753C107.624 131.976 106.951 131.389 106.175 131.444L95.8222 132.17C94.7673 132.243 93.8346 132.883 93.3856 133.844L85.5077 150.74C85.3215 151.14 85.2439 151.582 85.2814 152.024C85.4042 153.405 86.6219 154.424 88.0046 154.304L94.9841 153.69C96.4165 153.563 97.6841 152.708 98.3412 151.428L107.532 133.498C107.644 133.264 107.696 133.009 107.679 132.753Z" fill="#4D5A64"/>
<path d="M102.765 143.614C102.765 143.614 103.01 142.074 101.655 142.742C100.043 143.537 99.0517 144.646 98.0718 143.443C97.1604 142.324 99.0085 140.35 99.0085 140.35C97.8748 141.79 96.6968 141.712 96.2377 141.081C95.5296 140.115 96.9236 139.042 97.619 138.368C98.2992 137.711 103.272 137.534 103.272 137.534C103.272 137.534 102.787 136.09 102.585 135.65C102.385 135.208 100.318 135.925 99.3314 135.926C98.3466 135.93 97.5992 135.177 97.6747 134.518C97.7503 133.859 103.342 133.284 104.266 133.658C105.19 134.033 106.632 141.57 106.632 141.57L102.765 143.614Z" fill="#FFBE9D"/>
<path d="M102.828 139.706C101.524 139.139 100.014 139.355 98.9231 140.263C98.6846 140.423 98.4964 140.65 98.3822 140.914C98.6149 140.769 98.8401 140.608 99.0522 140.433C100.134 139.682 101.507 139.484 102.753 139.906C103.005 140.016 103.266 140.108 103.531 140.18C103.348 139.958 103.104 139.795 102.828 139.706Z" fill="#996552"/>
<path d="M71.7571 111.83C71.7392 112.38 71.2876 112.817 70.7344 112.814C70.199 112.835 69.7475 112.416 69.7266 111.878V111.854C69.7445 111.304 70.1961 110.867 70.7463 110.87C71.2817 110.849 71.7333 111.268 71.7542 111.806L71.7571 111.83Z" fill="#2E353A"/>
<path d="M72.8534 110.312C72.7219 110.437 71.9772 109.836 70.8826 109.794C69.791 109.737 68.9657 110.267 68.8521 110.126C68.7952 110.063 68.9358 109.83 69.2947 109.591C69.7821 109.283 70.3533 109.133 70.9275 109.16C71.4957 109.181 72.043 109.385 72.4886 109.735C72.8116 110.01 72.9162 110.255 72.8534 110.312Z" fill="#2E353A"/>
<path d="M61.1361 111.831C61.1182 112.381 60.6666 112.818 60.1133 112.815C59.578 112.836 59.1264 112.417 59.1055 111.882V111.858C59.1234 111.307 59.575 110.871 60.1252 110.874C60.6606 110.853 61.1152 111.272 61.1361 111.807V111.831Z" fill="#2E353A"/>
<path d="M62.1301 110.311C61.9985 110.439 61.2508 109.838 60.1592 109.796C59.0677 109.739 58.2423 110.269 58.1286 110.128C58.0748 110.065 58.2094 109.832 58.5713 109.593C59.0588 109.285 59.6299 109.135 60.2041 109.162C60.7724 109.183 61.3196 109.387 61.7652 109.739C62.0882 110.009 62.1929 110.254 62.1301 110.311Z" fill="#2E353A"/>
<path d="M65.6915 118.871C66.2746 118.715 66.8757 118.632 67.4798 118.623C67.761 118.605 68.0271 118.56 68.081 118.375C68.1168 118.087 68.063 117.797 67.9284 117.54L67.1928 115.381C66.17 112.31 65.4432 109.785 65.5688 109.747C65.6944 109.705 66.6215 112.163 67.6413 115.237C67.8866 115.994 68.1198 116.718 68.3441 117.406C68.5056 117.749 68.5415 118.138 68.4428 118.506C68.3531 118.7 68.1766 118.844 67.9673 118.895C67.8118 118.931 67.6503 118.946 67.4918 118.94C66.8877 118.994 66.2836 118.97 65.6915 118.871Z" fill="#2E353A"/>
<path d="M62.4434 119.492C62.6229 119.492 62.575 120.677 63.5559 121.559C64.5369 122.444 65.8049 122.366 65.8079 122.531C65.8198 122.606 65.5178 122.749 64.9825 122.743C64.2886 122.725 63.6217 122.462 63.1014 121.999C62.6019 121.556 62.2969 120.934 62.2461 120.27C62.2162 119.771 62.3657 119.483 62.4434 119.492Z" fill="#2E353A"/>
<path d="M62.2315 105.873C62.1119 106.167 61.0262 105.981 59.7373 106.083C58.4453 106.158 57.3956 106.49 57.2371 106.22C57.1653 106.089 57.3627 105.817 57.7874 105.547C58.9478 104.881 60.3503 104.785 61.5914 105.287C62.058 105.491 62.2853 105.736 62.2315 105.873Z" fill="#2E353A"/>
<path d="M72.5356 106.659C72.3352 106.898 71.5906 106.611 70.6844 106.56C69.7813 106.48 69.0067 106.659 68.8393 106.39C68.7675 106.261 68.899 106.019 69.243 105.795C70.188 105.256 71.3603 105.343 72.2186 106.01C72.5326 106.282 72.6283 106.542 72.5356 106.659Z" fill="#2E353A"/>
<path d="M66.433 135.399C65.8259 136.901 64.9406 138.255 63.8341 139.383C59.3003 143.991 52.1408 143.782 47.8463 138.916L44.8378 135.51L34.1523 138.823L35.6268 196.013H80.9254L78.9726 176.613L82.5254 168.709L77.4683 137.974L66.5048 135.217L66.433 135.399Z" fill="#E8505B"/>
<path d="M38.0224 146.123C38.0733 146.069 40.2594 200.385 40.2594 200.385L33.6292 196.44L28.4226 191.721C28.4226 191.721 27.2622 151.563 26.999 151.351L38.0224 146.123Z" fill="#FFBE9D"/>
<path d="M38.7053 144.027C42.8354 149.186 41.9621 165.204 41.9621 165.204H24.6914C24.6914 165.204 25.6962 161.561 26.402 152.15C27.1796 141.752 33.6363 138.746 33.6363 138.746C33.6363 138.746 38.3674 143.603 38.7053 144.027Z" fill="#E8505B"/>
</g>
<path d="M104.305 85.5612L117.472 76.6826L113.074 70.1615L99.908 79.0401L104.305 85.5612Z" fill="#92E3A9"/>
<path opacity="0.5" d="M99.9118 79.0417L104.314 85.5762L117.476 76.6941L113.073 70.1596L99.9118 79.0417ZM116.641 76.5116L104.49 84.6969L100.767 79.2002L112.918 71.0149L116.641 76.5116Z" fill="black"/>
<path opacity="0.5" d="M112.813 72.3968L111.195 73.5003C111.021 73.6319 110.758 73.584 110.644 73.3867C110.513 73.2132 110.561 72.95 110.758 72.8364L112.376 71.7329C112.549 71.6013 112.813 71.6491 112.926 71.8465C113.016 72.0259 112.986 72.2652 112.813 72.3968Z" fill="black"/>
<path opacity="0.5" d="M106.695 82.9114L105.077 84.0149C104.903 84.1465 104.64 84.0987 104.526 83.9013C104.395 83.7279 104.443 83.4647 104.64 83.351L106.258 82.2475C106.431 82.1159 106.695 82.1638 106.808 82.3611C106.898 82.5406 106.868 82.7798 106.695 82.9114Z" fill="black"/>
<path d="M110.026 79.7294C111.138 78.9967 111.464 77.5193 110.732 76.4038C109.999 75.2883 108.522 74.9653 107.406 75.698C106.294 76.4307 105.968 77.9081 106.7 79.0236C107.409 80.1182 108.886 80.4441 110.026 79.7294Z" fill="#5E936D"/>
<path d="M110.159 77.9593C110.219 78.0789 110.195 78.2105 110.075 78.2703L109.369 78.7129C109.471 78.5275 109.549 78.3241 109.543 78.1327L109.836 77.9413C109.956 77.8815 110.081 77.8636 110.159 77.9593Z" fill="#92E3A9"/>
<path d="M109.885 76.9301C109.945 77.0497 109.921 77.1813 109.802 77.2411L109.431 77.4863C109.401 77.4265 109.365 77.3248 109.317 77.2889C109.287 77.2291 109.24 77.1932 109.234 77.1514L109.586 76.9301C109.658 76.8344 109.79 76.8583 109.885 76.9301Z" fill="#92E3A9"/>
<path d="M109.487 75.9193C109.547 76.039 109.523 76.1706 109.403 76.2304L108.739 76.667C108.578 76.5833 108.38 76.5474 108.189 76.5533L109.206 75.8984C109.224 75.8745 109.266 75.8685 109.308 75.8625L109.349 75.8565C109.391 75.8506 109.391 75.8506 109.433 75.8446C109.433 75.8416 109.457 75.8595 109.487 75.9193Z" fill="#92E3A9"/>
<path d="M107.929 78.3389L108.12 78.632C108.024 78.7097 107.929 78.7875 107.833 78.8652C107.755 78.7695 107.654 78.6559 107.576 78.5602L107.929 78.3389Z" fill="#92E3A9"/>
<path d="M109.008 77.6509C109.115 77.8064 109.145 78.0158 109.151 78.2072C109.068 78.2191 108.942 78.2371 108.858 78.249C108.816 78.1055 108.757 77.9859 108.655 77.8722L109.008 77.6509Z" fill="#92E3A9"/>
<path d="M108.87 77.4359L108.517 77.6572C108.457 77.5376 108.356 77.424 108.236 77.3342C108.29 77.2625 108.362 77.1668 108.416 77.095C108.595 77.1548 108.762 77.2804 108.87 77.4359Z" fill="#92E3A9"/>
<path d="M108.273 78.8237L108.542 79.2125C108.5 79.2185 108.458 79.2245 108.416 79.2305C108.327 79.2006 108.261 79.1886 108.189 79.1348C108.141 79.0989 108.093 79.063 108.046 79.0271C108.099 78.9553 108.177 78.9015 108.273 78.8237Z" fill="#92E3A9"/>
<path d="M108.188 76.999C108.134 77.0708 108.098 77.1187 108.044 77.1904C107.996 77.1545 107.924 77.1007 107.876 77.0648C107.829 77.0289 107.805 77.011 107.739 76.999L107.715 76.9811L107.691 76.9631C107.775 76.9512 107.859 76.9392 107.924 76.9512C107.966 76.9452 107.99 76.9631 108.032 76.9572C108.074 76.9512 108.098 76.9691 108.14 76.9631C108.164 76.9811 108.188 76.999 108.188 76.999Z" fill="#92E3A9"/>
<path d="M108.708 78.5906C108.738 78.6504 108.744 78.6923 108.732 78.7581C108.744 78.8418 108.756 78.9255 108.726 79.0153C108.732 79.0571 108.696 79.105 108.678 79.1289L108.409 78.7401C108.505 78.6624 108.607 78.6265 108.708 78.5906Z" fill="#92E3A9"/>
<path d="M108.245 79.3619C108.203 79.3679 108.143 79.3978 108.078 79.3858C107.994 79.3978 107.886 79.3918 107.797 79.3619C107.797 79.3619 107.773 79.344 107.755 79.3679L107.773 79.344C107.809 79.2961 107.862 79.2243 107.898 79.1765C107.946 79.2124 108.018 79.2662 108.066 79.3021C108.108 79.2961 108.155 79.332 108.245 79.3619Z" fill="#92E3A9"/>
<path d="M107.238 77.2176L107.507 77.6063C107.429 77.6602 107.309 77.72 107.208 77.7559C107.178 77.696 107.172 77.6542 107.184 77.5884C107.172 77.5046 107.16 77.4209 107.19 77.3312C107.208 77.3073 107.202 77.2654 107.238 77.2176Z" fill="#92E3A9"/>
<path d="M107.624 77.845L107.815 78.1381L107.463 78.3594C107.403 78.2398 107.343 78.1201 107.283 78.0005C107.385 77.9646 107.504 77.9048 107.624 77.845Z" fill="#92E3A9"/>
<path d="M108.456 77.9862C108.516 78.1059 108.576 78.2255 108.636 78.3451C108.534 78.381 108.414 78.4408 108.319 78.5186L108.127 78.2255L108.456 77.9862Z" fill="#92E3A9"/>
<path d="M109.141 78.4644C109.141 78.4644 109.124 78.4883 109.147 78.5062C109.135 78.572 109.106 78.6618 109.07 78.7096C109.04 78.7993 109.004 78.8472 108.95 78.9189C108.968 78.895 108.944 78.8771 108.962 78.8532C108.956 78.8113 108.968 78.7455 108.962 78.7036C108.95 78.6199 108.944 78.578 108.914 78.5182C108.992 78.4644 109.076 78.4524 109.141 78.4644Z" fill="#92E3A9"/>
<path d="M106.965 77.4268C106.953 77.4926 106.965 77.5763 106.971 77.6182C106.983 77.7019 106.989 77.7438 107.019 77.8036C106.935 77.8156 106.875 77.8455 106.791 77.8574C106.791 77.8574 106.791 77.8574 106.809 77.8335C106.809 77.8335 106.809 77.8335 106.827 77.8096C106.809 77.684 106.875 77.5464 106.965 77.4268Z" fill="#92E3A9"/>
<path d="M108.343 77.7885L107.99 78.0098L107.798 77.7167C107.894 77.6389 107.99 77.5612 108.086 77.4834C108.163 77.5791 108.265 77.6928 108.343 77.7885Z" fill="#92E3A9"/>
<path d="M107.913 77.3162C107.817 77.3939 107.764 77.4657 107.686 77.5195L107.417 77.1308C107.459 77.1248 107.5 77.1188 107.542 77.1128C107.632 77.1427 107.698 77.1547 107.77 77.2085C107.817 77.2444 107.865 77.2803 107.913 77.3162Z" fill="#92E3A9"/>
<path d="M104.305 85.5612L117.472 76.6826L113.074 70.1615L99.908 79.0401L104.305 85.5612Z" stroke="#263238" stroke-width="0.5" stroke-miterlimit="3.9999" stroke-linecap="round" stroke-linejoin="round"/>
<path d="M86.239 96.8659L99.4053 87.9873L95.0078 81.4662L81.8416 90.3448L86.239 96.8659Z" fill="#92E3A9"/>
<path opacity="0.5" d="M81.8415 90.3435L86.2436 96.8779L99.4053 87.9958L95.0031 81.4614L81.8415 90.3435ZM98.5709 87.8134L86.4201 95.9987L82.6968 90.502L94.8476 82.3167L98.5709 87.8134Z" fill="black"/>
<path opacity="0.5" d="M94.744 83.6985L93.126 84.8021C92.9526 84.9336 92.6894 84.8858 92.5758 84.6884C92.4442 84.515 92.492 84.2518 92.6894 84.1381L94.3073 83.0346C94.4808 82.903 94.744 82.9509 94.8576 83.1483C94.9503 83.3277 94.9174 83.5669 94.744 83.6985Z" fill="black"/>
<path opacity="0.5" d="M88.6252 94.2132L87.0072 95.3167C86.8338 95.4483 86.5706 95.4004 86.457 95.2031C86.3254 95.0296 86.3732 94.7664 86.5706 94.6528L88.1885 93.5493C88.362 93.4177 88.6252 93.4655 88.7388 93.6629C88.8285 93.8423 88.7986 94.0816 88.6252 94.2132Z" fill="black"/>
<path d="M91.9555 91.031C93.068 90.2983 93.394 88.821 92.6613 87.7055C91.9286 86.593 90.4512 86.267 89.3357 86.9997C88.2232 87.7324 87.8972 89.2097 88.6299 90.3252C89.3417 91.4228 90.8161 91.7488 91.9555 91.031Z" fill="#5E936D"/>
<path d="M92.0925 89.261C92.1523 89.3806 92.1284 89.5122 92.0088 89.572L91.303 90.0146C91.4047 89.8292 91.4824 89.6259 91.4764 89.4345L91.7695 89.2431C91.8892 89.1833 92.0148 89.1653 92.0925 89.261Z" fill="#92E3A9"/>
<path d="M91.8191 88.2318C91.8789 88.3515 91.8549 88.483 91.7353 88.5429L91.3645 88.7881C91.3346 88.7283 91.2987 88.6266 91.2508 88.5907C91.2209 88.5309 91.1731 88.495 91.1671 88.4531L91.52 88.2318C91.5918 88.1361 91.7234 88.1601 91.8191 88.2318Z" fill="#92E3A9"/>
<path d="M91.4167 87.2211C91.4765 87.3407 91.4526 87.4723 91.333 87.5321L90.6691 87.9688C90.5076 87.885 90.3102 87.8491 90.1188 87.8551L91.1356 87.2002C91.1535 87.1762 91.1954 87.1703 91.2373 87.1643L91.2792 87.1583C91.321 87.1523 91.321 87.1523 91.3629 87.1463C91.3629 87.1433 91.3868 87.1613 91.4167 87.2211Z" fill="#92E3A9"/>
<path d="M89.8584 89.6406L90.0498 89.9337C89.9541 90.0115 89.8584 90.0892 89.7627 90.167C89.685 90.0713 89.5833 89.9577 89.5055 89.862L89.8584 89.6406Z" fill="#92E3A9"/>
<path d="M90.9365 88.9556C91.0442 89.1111 91.0741 89.3204 91.0801 89.5118C90.9963 89.5238 90.8707 89.5417 90.787 89.5537C90.7451 89.4102 90.6853 89.2905 90.5836 89.1769L90.9365 88.9556Z" fill="#92E3A9"/>
<path d="M90.7988 88.7406L90.446 88.9619C90.3861 88.8423 90.2844 88.7286 90.1648 88.6389C90.2187 88.5672 90.2905 88.4715 90.3443 88.3997C90.5237 88.4595 90.6912 88.5851 90.7988 88.7406Z" fill="#92E3A9"/>
<path d="M90.2025 90.1255L90.4717 90.5143C90.4298 90.5203 90.388 90.5262 90.3461 90.5322C90.2564 90.5023 90.1906 90.4904 90.1188 90.4365C90.071 90.4006 90.0231 90.3648 89.9752 90.3289C90.0291 90.2571 90.1068 90.2033 90.2025 90.1255Z" fill="#92E3A9"/>
<path d="M90.1162 88.3008C90.0624 88.3726 90.0265 88.4204 89.9727 88.4922C89.9248 88.4563 89.853 88.4025 89.8052 88.3666C89.7573 88.3307 89.7334 88.3128 89.6676 88.3008L89.6437 88.2828L89.6198 88.2649C89.7035 88.2529 89.7872 88.241 89.853 88.2529C89.8949 88.247 89.9188 88.2649 89.9607 88.2589C90.0026 88.2529 90.0265 88.2709 90.0684 88.2649C90.0953 88.2828 90.1162 88.3008 90.1162 88.3008Z" fill="#92E3A9"/>
<path d="M90.6459 89.8953C90.6758 89.9551 90.6818 89.997 90.6698 90.0628C90.6818 90.1465 90.6938 90.2302 90.6638 90.32C90.6698 90.3618 90.6339 90.4097 90.616 90.4336L90.3469 90.0448C90.4396 89.9641 90.5442 89.9312 90.6459 89.8953Z" fill="#92E3A9"/>
<path d="M90.1738 90.6637C90.132 90.6696 90.0722 90.6995 90.0064 90.6876C89.9226 90.6995 89.815 90.6936 89.7252 90.6637C89.7252 90.6637 89.7013 90.6457 89.6834 90.6696L89.7013 90.6457C89.7372 90.5979 89.791 90.5261 89.8269 90.4782C89.8748 90.5141 89.9465 90.568 89.9944 90.6038C90.0363 90.5979 90.0841 90.6338 90.1738 90.6637Z" fill="#92E3A9"/>
<path d="M89.1664 88.5222L89.4355 88.911C89.3578 88.9648 89.2382 89.0247 89.1365 89.0605C89.1066 89.0007 89.1006 88.9589 89.1126 88.8931C89.1006 88.8093 89.0886 88.7256 89.1185 88.6359C89.1365 88.612 89.1305 88.5701 89.1664 88.5222Z" fill="#92E3A9"/>
<path d="M89.5537 89.1507L89.7451 89.4437L89.3922 89.665C89.3324 89.5454 89.2726 89.4258 89.2128 89.3062C89.3145 89.2703 89.4341 89.2105 89.5537 89.1507Z" fill="#92E3A9"/>
<path d="M90.386 89.288C90.4458 89.4076 90.5056 89.5272 90.5654 89.6469C90.4637 89.6827 90.3441 89.7426 90.2484 89.8203L90.057 89.5272L90.386 89.288Z" fill="#92E3A9"/>
<path d="M91.0741 89.7691C91.0741 89.7691 91.0562 89.793 91.0801 89.8109C91.0681 89.8767 91.0382 89.9664 91.0023 90.0143C90.9724 90.104 90.9365 90.1519 90.8827 90.2236C90.9006 90.1997 90.8767 90.1818 90.8947 90.1578C90.8887 90.116 90.9006 90.0502 90.8947 90.0083C90.8827 89.9246 90.8767 89.8827 90.8468 89.8229C90.9246 89.7691 91.0083 89.7571 91.0741 89.7691Z" fill="#92E3A9"/>
<path d="M88.8983 88.7315C88.8863 88.7973 88.8983 88.881 88.9043 88.9229C88.9163 89.0066 88.9222 89.0485 88.9521 89.1083C88.8684 89.1202 88.8086 89.1501 88.7249 89.1621C88.7249 89.1621 88.7249 89.1621 88.7428 89.1382C88.7428 89.1382 88.7428 89.1382 88.7607 89.1143C88.7428 88.9857 88.8086 88.8481 88.8983 88.7315Z" fill="#92E3A9"/>
<path d="M90.2734 89.0902L89.9205 89.3115L89.7291 89.0184C89.8248 88.9407 89.9205 88.8629 90.0162 88.7852C90.094 88.8809 90.1957 88.9945 90.2734 89.0902Z" fill="#92E3A9"/>
<path d="M89.8418 88.6179C89.7461 88.6957 89.6923 88.7675 89.6145 88.8213L89.3453 88.4325C89.3872 88.4265 89.4291 88.4205 89.471 88.4146C89.5607 88.4445 89.6265 88.4564 89.6983 88.5103C89.7461 88.5462 89.7939 88.582 89.8418 88.6179Z" fill="#92E3A9"/>
<path d="M86.239 96.8659L99.4053 87.9873L95.0078 81.4662L81.8416 90.3448L86.239 96.8659Z" stroke="#263238" stroke-width="0.5" stroke-miterlimit="3.9999" stroke-linecap="round" stroke-linejoin="round"/>
<path d="M93.4471 76.0565C93.2569 75.7522 93.1681 75.3845 93.1618 75.0358C93.1808 74.6712 93.3076 74.3099 93.5073 74.0087C93.7926 73.6188 94.2237 73.3493 94.6992 73.2637C95.1748 73.1781 95.6693 73.2923 96.075 73.603C96.2621 73.7329 96.4396 73.9041 96.5664 74.107C96.7566 74.4113 96.8454 74.779 96.8517 75.1277C96.8327 75.4923 96.7059 75.8537 96.5062 76.1548C96.2209 76.5447 95.7897 76.8142 95.3142 76.8998C94.8387 76.9854 94.3442 76.8712 93.9384 76.5606C93.7514 76.4306 93.5739 76.2594 93.4471 76.0565Z" fill="#BFBFBF"/>
<path d="M93.5227 76.0086C93.6336 76.1861 93.7858 76.3732 93.9728 76.5031C94.7526 77.0737 95.878 76.8994 96.4486 76.1195C96.8893 75.5267 96.8797 74.7216 96.5152 74.1383C96.4042 73.9608 96.2521 73.7737 96.065 73.6437C95.2852 73.0731 94.1599 73.2475 93.5892 74.0273C93.1486 74.6201 93.1581 75.4253 93.5227 76.0086ZM93.3959 76.0879L93.5227 76.0086L93.3959 76.0879C93.1898 75.7582 93.1011 75.3904 93.1042 75.0005C93.1074 74.6106 93.2342 74.2492 93.4846 73.9164C93.7953 73.5106 94.2264 73.2412 94.7273 73.1397C95.244 73.0636 95.7385 73.1778 96.1443 73.4884C96.3472 73.6437 96.5247 73.8149 96.6515 74.0178C96.8575 74.3475 96.9463 74.7152 96.9431 75.1051C96.94 75.495 96.8132 75.8564 96.5627 76.1893C96.2521 76.5951 95.8209 76.8645 95.3201 76.966C94.8192 77.0674 94.3088 76.9279 93.9031 76.6173C93.6748 76.4778 93.5227 76.2907 93.3959 76.0879Z" fill="#263238"/>
<path d="M94.1866 76.2277C94.8365 76.7032 95.7368 76.5637 96.2123 75.9139C96.6878 75.264 96.5483 74.3637 95.8984 73.8882C95.2486 73.4127 94.3483 73.5522 93.8728 74.202C93.3973 74.8519 93.5367 75.7522 94.1866 76.2277Z" fill="#7C7C7C"/>
<path d="M95.2513 75.9519C95.1911 76.0249 95.0833 76.0217 95.0104 75.9614L94.5063 75.6064C94.6712 75.6444 94.8043 75.6317 94.947 75.5779L95.1499 75.7332C95.2481 75.7776 95.2703 75.8695 95.2513 75.9519Z" fill="#BFBFBF"/>
<path d="M95.7241 75.5837C95.6638 75.6566 95.556 75.6534 95.4831 75.5932L95.2232 75.403C95.2739 75.3713 95.3088 75.3143 95.3437 75.2572C95.3532 75.216 95.4039 75.1843 95.4134 75.1431L95.6733 75.3333C95.7209 75.4093 95.7431 75.5013 95.7241 75.5837Z" fill="#BFBFBF"/>
<path d="M96.2025 75.2159C96.1422 75.2888 96.0345 75.2856 95.9616 75.2254L95.4987 74.8798C95.5114 74.7308 95.4987 74.5977 95.4195 74.4709L96.1264 74.9813C96.1422 75.0066 96.1422 75.0066 96.1835 75.0161L96.1993 75.0415C96.2152 75.0669 96.2152 75.0669 96.231 75.0922C96.2373 75.1588 96.212 75.1746 96.2025 75.2159Z" fill="#BFBFBF"/>
<path d="M94.5458 74.7688L94.3905 74.9718C94.3176 74.9115 94.2352 74.8925 94.1623 74.8323C94.2066 74.734 94.2415 74.6769 94.2859 74.5787L94.5458 74.7688Z" fill="#BFBFBF"/>
<path d="M95.153 75.2351C95.0832 75.3492 94.9565 75.4285 94.8138 75.4824C94.7821 75.4316 94.7346 75.3556 94.7029 75.3049C94.7631 75.2319 94.8645 75.1685 94.9089 75.0703L95.153 75.2351Z" fill="#BFBFBF"/>
<path d="M95.1991 75.1368L94.955 74.972C95.0152 74.8991 95.0596 74.8008 95.104 74.7025C95.1611 74.7374 95.2435 74.7564 95.3101 74.7501C95.3227 74.8832 95.2847 75.048 95.1991 75.1368Z" fill="#BFBFBF"/>
<path d="M94.3445 75.0699L94.1289 75.3457C94.1131 75.3203 94.0972 75.295 94.0814 75.2696C94.075 75.2031 94.0687 75.1365 94.0782 75.0953C94.0877 75.0541 94.0972 75.0129 94.1067 74.9716C94.2145 74.9748 94.2715 75.0097 94.3445 75.0699Z" fill="#BFBFBF"/>
<path d="M95.329 74.6681C95.2624 74.6744 95.2053 74.6395 95.1641 74.63C95.1736 74.5888 95.1831 74.5476 95.218 74.4905C95.2275 74.4493 95.237 74.4081 95.2212 74.3827L95.2053 74.3574L95.1895 74.332C95.2212 74.3827 95.2529 74.4335 95.2846 74.4842C95.3004 74.5095 95.3163 74.5349 95.3068 74.5761C95.3068 74.5761 95.2973 74.6173 95.329 74.6681Z" fill="#BFBFBF"/>
<path d="M94.5807 75.2766C94.5553 75.2925 94.5046 75.3242 94.4792 75.34C94.4285 75.3717 94.3619 75.378 94.3112 75.4098C94.2859 75.4256 94.2447 75.4161 94.2288 75.3907L94.4444 75.1149C94.4761 75.1657 94.5331 75.2005 94.5807 75.2766Z" fill="#BFBFBF"/>
<path d="M94.0117 75.21C93.9959 75.1846 93.9642 75.1339 93.9483 75.1085C93.9166 75.0578 93.8944 74.9659 93.8881 74.8993L93.8722 74.8739C93.8722 74.8739 93.8722 74.8739 93.9135 74.8834C93.9547 74.8929 93.9959 74.9025 94.0783 74.9215C94.0688 74.9627 94.0593 75.0039 94.0244 75.061C94.0149 75.1022 94.0212 75.1688 94.0117 75.21Z" fill="#BFBFBF"/>
<path d="M95.0124 74.1603L94.7968 74.4361C94.7397 74.4012 94.6668 74.341 94.6193 74.2649C94.6447 74.249 94.6954 74.2173 94.7207 74.2015C94.7715 74.1698 94.838 74.1635 94.8888 74.1318C94.93 74.1413 94.9712 74.1508 95.0124 74.1603Z" fill="#BFBFBF"/>
<path d="M94.7373 74.5091L94.5819 74.712L94.3378 74.5471C94.398 74.4742 94.4583 74.4013 94.5344 74.3538C94.6326 74.3982 94.6644 74.4489 94.7373 74.5091Z" fill="#BFBFBF"/>
<path d="M94.8369 75.0103C94.7766 75.0832 94.7164 75.1561 94.6562 75.229C94.5833 75.1688 94.5357 75.0927 94.4787 75.0579L94.634 74.855L94.8369 75.0103Z" fill="#BFBFBF"/>
<path d="M94.7341 75.4636C94.7087 75.4794 94.7087 75.4794 94.7341 75.4636C94.6421 75.4858 94.6009 75.4762 94.5344 75.4826C94.4678 75.4889 94.4266 75.4794 94.3695 75.4445C94.3695 75.4445 94.3949 75.4287 94.4203 75.4128C94.4456 75.397 94.471 75.3811 94.4963 75.3653C94.547 75.3336 94.5724 75.3177 94.6231 75.286C94.6865 75.3875 94.7024 75.4128 94.7341 75.4636Z" fill="#BFBFBF"/>
<path d="M94.8395 74.0563C94.7888 74.088 94.7476 74.0785 94.6969 74.1102C94.6462 74.1419 94.6208 74.1578 94.5701 74.1895C94.5384 74.1388 94.5067 74.0881 94.475 74.0373C94.475 74.0373 94.475 74.0373 94.5003 74.0215C94.5257 74.0056 94.5003 74.0215 94.5003 74.0215C94.6081 74.0247 94.7318 74.0532 94.8395 74.0563Z" fill="#BFBFBF"/>
<path d="M94.8973 74.9376L94.6532 74.7727L94.8086 74.5698C94.8815 74.6301 94.9639 74.6491 95.0368 74.7093C95.002 74.7664 94.9576 74.8647 94.8973 74.9376Z" fill="#BFBFBF"/>
<path d="M95.0663 74.585C95.0092 74.5502 94.9268 74.5311 94.8539 74.4709L95.0695 74.1951C95.0853 74.2205 95.1012 74.2458 95.117 74.2712C95.1234 74.3378 95.1297 74.4043 95.1202 74.4456C95.1012 74.528 95.0917 74.5692 95.0663 74.585Z" fill="#BFBFBF"/>
<path d="M105.958 91.755C105.414 92.069 104.728 92.0164 104.221 91.618C103.898 91.3561 103.688 90.9935 103.623 90.5821C103.558 90.1706 103.694 89.7471 103.93 89.4382C104.04 89.2708 104.207 89.1402 104.362 89.0505C104.906 88.7365 105.592 88.789 106.099 89.1874C106.423 89.4493 106.632 89.8119 106.697 90.2234C106.762 90.6348 106.626 91.0583 106.39 91.3673C106.28 91.5347 106.113 91.6653 105.958 91.755Z" fill="#BFBFBF"/>
<path d="M105.927 91.7035C106.082 91.6138 106.223 91.4982 106.359 91.3158C106.857 90.683 106.76 89.7375 106.101 89.2545C105.61 88.8821 104.964 88.8404 104.446 89.1395C104.291 89.2292 104.151 89.3448 104.014 89.5272C103.516 90.16 103.613 91.1055 104.272 91.5885C104.737 91.9759 105.409 92.0026 105.927 91.7035ZM106.001 91.833L105.927 91.7035L106.001 91.833C105.432 92.162 104.719 92.1243 104.172 91.715C103.848 91.4531 103.624 91.0646 103.544 90.6273C103.505 90.2009 103.6 89.7664 103.888 89.4276C104.024 89.2452 104.164 89.1296 104.346 89.0249C104.915 88.696 105.628 88.7336 106.175 89.1429C106.499 89.4048 106.723 89.7933 106.803 90.2307C106.842 90.6571 106.747 91.0915 106.46 91.4304C106.323 91.6127 106.183 91.7284 106.001 91.833Z" fill="#263238"/>
<path d="M106.137 91.1689C106.561 90.6477 106.436 89.8915 105.929 89.4931C105.408 89.0689 104.652 89.1947 104.254 89.7009C103.829 90.2221 103.955 90.9783 104.462 91.3766C104.968 91.775 105.713 91.6901 106.137 91.1689Z" fill="#7C7C7C"/>
<path d="M105.895 90.2713C105.965 90.3341 105.944 90.4158 105.907 90.4716L105.582 90.8662C105.615 90.7437 105.607 90.6102 105.573 90.4916L105.709 90.3092C105.772 90.2385 105.839 90.2345 105.895 90.2713Z" fill="#BFBFBF"/>
<path d="M105.616 89.8461C105.687 89.9088 105.665 89.9905 105.628 90.0463L105.466 90.2437C105.436 90.1919 105.395 90.1809 105.365 90.1291C105.35 90.1032 105.31 90.0923 105.269 90.0813L105.431 89.884C105.468 89.8282 105.561 89.8092 105.616 89.8461Z" fill="#BFBFBF"/>
<path d="M105.31 89.4364C105.381 89.4991 105.359 89.5808 105.322 89.6366L105.023 90.0163C104.915 90.0093 104.782 90.0174 104.663 90.0513L105.124 89.4743C105.15 89.4593 105.15 89.4593 105.176 89.4444C105.202 89.4294 105.202 89.4294 105.228 89.4145C105.269 89.4254 105.295 89.4105 105.31 89.4364Z" fill="#BFBFBF"/>
<path d="M104.924 90.7995L105.107 90.936C105.07 90.9918 105.033 91.0476 104.996 91.1034C104.914 91.0815 104.844 91.0187 104.788 90.9819L104.924 90.7995Z" fill="#BFBFBF"/>
<path d="M105.309 90.3336C105.394 90.4222 105.454 90.5258 105.499 90.6035C105.447 90.6334 105.395 90.6633 105.344 90.6932C105.299 90.6155 105.228 90.5528 105.172 90.5159L105.309 90.3336Z" fill="#BFBFBF"/>
<path d="M105.239 90.2709L105.077 90.4683C105.006 90.4055 104.925 90.3836 104.854 90.3209C104.891 90.2651 104.887 90.1983 104.898 90.1575C105.046 90.1754 105.143 90.2231 105.239 90.2709Z" fill="#BFBFBF"/>
<path d="M105.135 90.9878L105.373 91.1611C105.347 91.1761 105.321 91.191 105.321 91.191C105.254 91.1951 105.214 91.1841 105.173 91.1732C105.132 91.1622 105.091 91.1513 105.076 91.1254C105.061 91.0995 105.098 91.0437 105.135 90.9878Z" fill="#BFBFBF"/>
<path d="M104.829 90.1616C104.818 90.2024 104.807 90.2433 104.77 90.2991C104.73 90.2881 104.689 90.2772 104.648 90.2662C104.607 90.2553 104.607 90.2553 104.566 90.2443C104.566 90.2443 104.566 90.2443 104.54 90.2593C104.592 90.2294 104.618 90.2144 104.67 90.1845C104.696 90.1696 104.696 90.1696 104.736 90.1805C104.777 90.1915 104.803 90.1765 104.829 90.1616Z" fill="#BFBFBF"/>
<path d="M105.338 90.8011C105.353 90.8269 105.368 90.8528 105.398 90.9046C105.428 90.9564 105.458 91.0082 105.447 91.0491C105.462 91.075 105.436 91.09 105.425 91.1308L105.187 90.9575C105.224 90.9017 105.261 90.8459 105.338 90.8011Z" fill="#BFBFBF"/>
<path d="M105.257 91.2617C105.231 91.2767 105.205 91.2916 105.179 91.3066C105.127 91.3365 105.061 91.3405 104.994 91.3445L104.968 91.3595C104.968 91.3595 104.968 91.3595 104.953 91.3336C104.964 91.2927 104.975 91.2519 104.986 91.211C105.027 91.222 105.068 91.2329 105.108 91.2438C105.164 91.2807 105.19 91.2657 105.257 91.2617Z" fill="#BFBFBF"/>
<path d="M104.391 90.4155L104.629 90.5888C104.592 90.6446 104.541 90.6745 104.504 90.7303C104.489 90.7044 104.474 90.6786 104.444 90.6268C104.414 90.575 104.399 90.5491 104.395 90.4823C104.395 90.4823 104.406 90.4414 104.391 90.4155Z" fill="#BFBFBF"/>
<path d="M104.702 90.6521L104.884 90.7885L104.722 90.9858C104.651 90.9231 104.595 90.8862 104.55 90.8085C104.587 90.7527 104.65 90.682 104.702 90.6521Z" fill="#BFBFBF"/>
<path d="M105.095 90.561C105.165 90.6237 105.221 90.6605 105.266 90.7382C105.214 90.7681 105.151 90.8389 105.115 90.8947L104.932 90.7583L105.095 90.561Z" fill="#BFBFBF"/>
<path d="M105.505 90.6702C105.509 90.737 105.513 90.8037 105.528 90.8296C105.517 90.8705 105.521 90.9372 105.51 90.9781L105.495 90.9522C105.48 90.9263 105.465 90.9004 105.45 90.8745C105.435 90.8486 105.405 90.7968 105.391 90.7709C105.427 90.7151 105.453 90.7001 105.505 90.6702Z" fill="#BFBFBF"/>
<path d="M104.332 90.5536C104.347 90.5794 104.351 90.6462 104.365 90.6721C104.38 90.698 104.41 90.7498 104.425 90.7757C104.373 90.8056 104.348 90.8206 104.296 90.8505C104.303 90.7429 104.31 90.6353 104.332 90.5536Z" fill="#BFBFBF"/>
<path d="M105.041 90.5239L104.879 90.7212L104.696 90.5847C104.733 90.5289 104.77 90.4731 104.807 90.4173C104.915 90.4243 104.985 90.487 105.041 90.5239Z" fill="#BFBFBF"/>
<path d="M104.774 90.3657C104.738 90.4215 104.701 90.4773 104.664 90.5331L104.426 90.3598C104.452 90.3448 104.478 90.3299 104.478 90.3299C104.544 90.3259 104.585 90.3368 104.626 90.3478C104.693 90.3438 104.734 90.3547 104.774 90.3657Z" fill="#BFBFBF"/>
<path d="M79.9025 85.4596C79.5689 84.8578 79.6451 84.1313 80.0786 83.6174C80.3579 83.2573 80.7649 83.0659 81.1776 83.0082C81.631 82.9622 82.0522 83.105 82.3978 83.3581C82.5778 83.4978 82.7056 83.6664 82.8071 83.8496C83.1407 84.4515 83.0644 85.1779 82.6309 85.6918C82.3516 86.0519 81.9446 86.2433 81.5319 86.301C81.0785 86.3471 80.6573 86.2043 80.3117 85.9511C80.1579 85.797 80.0185 85.669 79.9025 85.4596Z" fill="#BFBFBF"/>
<path d="M79.9806 85.4162C80.0821 85.5994 80.1953 85.7419 80.3753 85.8815C81.0548 86.4285 82.0545 86.3191 82.6015 85.6396C83.035 85.1257 83.0589 84.4282 82.7543 83.8787C82.6528 83.6955 82.5396 83.553 82.3596 83.4134C81.6801 82.8664 80.6804 82.9759 80.1334 83.6553C79.7144 84.1954 79.676 84.8667 79.9806 85.4162ZM79.8497 85.4887L79.9806 85.4162L79.8497 85.4887C79.6902 85.2009 79.6091 84.8695 79.6473 84.5063C79.6592 84.1576 79.8194 83.8294 80.0347 83.539C80.314 83.1789 80.7327 82.9469 81.1861 82.9008C81.6395 82.8547 82.0868 82.9831 82.4614 83.2885C82.6415 83.4282 82.7692 83.5969 82.8852 83.8062C83.0447 84.094 83.1258 84.4254 83.0877 84.7886C83.0757 85.1373 82.9155 85.4656 82.7002 85.7559C82.4209 86.116 82.0022 86.3481 81.5488 86.3941C81.0955 86.4402 80.648 86.3119 80.2735 86.0064C80.0934 85.8667 79.9658 85.6981 79.8497 85.4887Z" fill="#263238"/>
<path d="M80.5548 85.6463C81.1094 86.0914 81.9232 86.0166 82.3683 85.462C82.8135 84.9074 82.7387 84.0937 82.1841 83.6485C81.6295 83.2034 80.8158 83.2781 80.3706 83.8327C79.9255 84.3874 80.0002 85.2011 80.5548 85.6463Z" fill="#7C7C7C"/>
<path d="M81.5344 85.4442C81.4705 85.5139 81.3891 85.4906 81.334 85.4527L80.9044 85.1096C81.0264 85.1445 81.16 85.1389 81.3053 85.0925L81.4852 85.2321C81.5549 85.2961 81.5723 85.3891 81.5344 85.4442Z" fill="#BFBFBF"/>
<path d="M81.9794 85.1303C81.9154 85.1999 81.8341 85.1766 81.779 85.1388L81.5438 84.9614C81.5962 84.9324 81.6078 84.8917 81.6601 84.8627C81.6863 84.8482 81.698 84.8076 81.7096 84.7669L81.9186 84.9589C81.9999 84.9822 82.0172 85.0751 81.9794 85.1303Z" fill="#BFBFBF"/>
<path d="M82.4213 84.8172C82.3573 84.8869 82.276 84.8635 82.2208 84.8257L81.8055 84.5086C81.8405 84.3865 81.8087 84.2674 81.7768 84.1482L82.3866 84.6312C82.4011 84.6573 82.4011 84.6573 82.4156 84.6835C82.4301 84.7097 82.4301 84.7097 82.4446 84.7358C82.4329 84.7765 82.4475 84.8027 82.4213 84.8172Z" fill="#BFBFBF"/>
<path d="M80.9425 84.3714L80.8029 84.5514C80.7477 84.5136 80.6781 84.4496 80.5968 84.4263C80.6201 84.345 80.6841 84.2753 80.748 84.2056L80.9425 84.3714Z" fill="#BFBFBF"/>
<path d="M81.4838 84.79C81.3937 84.8742 81.3035 84.9583 81.1844 84.9901C81.1554 84.9378 81.1264 84.8855 81.0974 84.8332C81.1759 84.7897 81.2399 84.7201 81.3039 84.6504L81.4838 84.79Z" fill="#BFBFBF"/>
<path d="M81.5189 84.7348L81.3244 84.5691C81.3884 84.4994 81.4379 84.4036 81.4757 84.3485C81.5309 84.3863 81.5977 84.3834 81.6528 84.4212C81.644 84.5287 81.5945 84.6245 81.5189 84.7348Z" fill="#BFBFBF"/>
<path d="M80.7651 84.6068L80.5615 84.8564C80.547 84.8303 80.5325 84.8041 80.518 84.778C80.5152 84.7112 80.5268 84.6705 80.524 84.6037C80.5356 84.563 80.5473 84.5224 80.559 84.4817C80.6548 84.5312 80.7099 84.569 80.7651 84.6068Z" fill="#BFBFBF"/>
<path d="M81.6623 84.3141C81.6216 84.3024 81.5548 84.3053 81.4996 84.2675C81.5113 84.2268 81.523 84.1861 81.5346 84.1455C81.5463 84.1048 81.5318 84.0787 81.5579 84.0642C81.5579 84.0642 81.5579 84.0642 81.5434 84.038L81.5289 84.0119C81.5579 84.0642 81.5724 84.0903 81.6014 84.1426C81.6159 84.1688 81.6304 84.195 81.6043 84.2095C81.6594 84.2473 81.6333 84.2618 81.6623 84.3141Z" fill="#BFBFBF"/>
<path d="M80.9742 84.7985C80.9481 84.813 80.8958 84.842 80.8696 84.8565C80.8173 84.8855 80.7505 84.8883 80.7244 84.9028C80.6982 84.9173 80.6575 84.9057 80.643 84.8795L80.8466 84.6299C80.8901 84.7084 80.9191 84.7607 80.9742 84.7985Z" fill="#BFBFBF"/>
<path d="M80.46 84.7393C80.4455 84.7131 80.431 84.6869 80.402 84.6346C80.373 84.5823 80.3701 84.5155 80.3673 84.4487L80.3528 84.4225C80.3528 84.4225 80.3528 84.4225 80.3789 84.408C80.4196 84.4197 80.4602 84.4313 80.5009 84.443C80.4892 84.4837 80.4776 84.5243 80.4659 84.565C80.4688 84.6318 80.4571 84.6724 80.46 84.7393Z" fill="#BFBFBF"/>
<path d="M81.3994 83.8425L81.1959 84.0921C81.1407 84.0543 81.1117 84.002 81.0421 83.938C81.0682 83.9235 81.1205 83.8945 81.1467 83.88C81.199 83.851 81.2658 83.8482 81.2919 83.8337C81.3588 83.8308 81.3588 83.8308 81.3994 83.8425Z" fill="#BFBFBF"/>
<path d="M81.1585 84.1476L81.0189 84.3276L80.8244 84.1618C80.8884 84.0922 80.9262 84.037 81.0047 83.9936C81.0337 84.0459 81.0889 84.0837 81.1585 84.1476Z" fill="#BFBFBF"/>
<path d="M81.2316 84.5869C81.1676 84.6565 81.1298 84.7117 81.0513 84.7552C81.0078 84.6767 80.9527 84.6389 80.8975 84.6011L81.0371 84.4211L81.2316 84.5869Z" fill="#BFBFBF"/>
<path d="M81.0899 85.0072C81.0231 85.0101 80.9563 85.0129 80.9156 85.0012C80.8749 84.9896 80.8082 84.9924 80.7675 84.9807L80.7936 84.9663C80.8198 84.9518 80.8459 84.9373 80.8721 84.9228C80.8983 84.9083 80.9506 84.8793 80.9767 84.8648C81.0464 84.9287 81.0609 84.9549 81.0899 85.0072Z" fill="#BFBFBF"/>
<path d="M81.2512 83.7551C81.2251 83.7696 81.1583 83.7724 81.1321 83.7869C81.106 83.8014 81.0537 83.8304 81.0275 83.8449C80.9985 83.7926 80.984 83.7665 80.955 83.7142C81.0625 83.723 81.1699 83.7318 81.2512 83.7551Z" fill="#BFBFBF"/>
<path d="M81.2689 84.5307L81.0744 84.365L81.2141 84.185C81.2692 84.2228 81.3389 84.2868 81.4202 84.3101C81.3562 84.3798 81.3329 84.4611 81.2689 84.5307Z" fill="#BFBFBF"/>
<path d="M81.4447 84.229C81.3895 84.1911 81.3344 84.1533 81.2792 84.1155L81.4828 83.8659C81.4973 83.8921 81.5118 83.9182 81.5263 83.9444C81.5291 84.0112 81.5175 84.0518 81.5203 84.1186C81.468 84.1476 81.4564 84.1883 81.4447 84.229Z" fill="#BFBFBF"/>
<path d="M90.0483 105.572L87.1914 106.198L87.1793 103.274" stroke="#263238" stroke-width="0.4" stroke-linecap="round" stroke-linejoin="round"/>
<path d="M87.2489 106.142C87.2489 106.142 93.4684 96.0746 102.579 92.1472" stroke="#263238" stroke-width="0.4" stroke-dasharray="8 8"/>
<path d="M80.6154 78.8833L77.6915 78.8779L78.3115 76.022" stroke="#263238" stroke-width="0.4" stroke-linecap="round" stroke-linejoin="round"/>
<path d="M77.7617 78.8367C77.7617 78.8367 86.0075 70.3488 95.7501 68.4786" stroke="#263238" stroke-width="0.4" stroke-dasharray="8 8"/>
<path d="M107.163 69.2854L105.276 68.906L106.042 67.1426" stroke="#263238" stroke-width="0.4" stroke-linecap="round" stroke-linejoin="round"/>
<path d="M105.323 68.8877C105.323 68.8877 111.74 64.4726 118.268 64.5228" stroke="#263238" stroke-width="0.4" stroke-dasharray="8 8"/>
</svg>
