<svg width="557" height="75" viewBox="0 0 557 75" fill="none" xmlns="http://www.w3.org/2000/svg">
<path d="M65.3875 37.9297C64.101 37.5599 63.1635 37.1068 62.575 36.5703C61.9916 36.0286 61.7 35.362 61.7 34.5703C61.7 33.6745 62.0567 32.9349 62.7703 32.3516C63.489 31.763 64.4213 31.4688 65.5671 31.4688C66.3484 31.4688 67.0437 31.6198 67.6531 31.9219C68.2677 32.224 68.7416 32.6406 69.075 33.1719C69.4135 33.7031 69.5828 34.2839 69.5828 34.9141H68.075C68.075 34.2266 67.8562 33.6875 67.4187 33.2969C66.9812 32.901 66.364 32.7031 65.5671 32.7031C64.8276 32.7031 64.2494 32.8672 63.8328 33.1953C63.4213 33.5182 63.2156 33.9688 63.2156 34.5469C63.2156 35.0104 63.4109 35.4036 63.8015 35.7266C64.1973 36.0443 64.8666 36.3359 65.8093 36.6016C66.7572 36.8672 67.4968 37.1615 68.0281 37.4844C68.5645 37.8021 68.9604 38.1745 69.2156 38.6016C69.476 39.0286 69.6062 39.5312 69.6062 40.1094C69.6062 41.0312 69.2468 41.7708 68.5281 42.3281C67.8093 42.8802 66.8484 43.1562 65.6453 43.1562C64.864 43.1562 64.1348 43.0078 63.4578 42.7109C62.7807 42.4089 62.2572 41.9974 61.8875 41.4766C61.5229 40.9557 61.3406 40.3646 61.3406 39.7031H62.8484C62.8484 40.3906 63.101 40.9349 63.6062 41.3359C64.1166 41.7318 64.7963 41.9297 65.6453 41.9297C66.4369 41.9297 67.0437 41.7682 67.4656 41.4453C67.8875 41.1224 68.0984 40.6823 68.0984 40.125C68.0984 39.5677 67.9031 39.138 67.5125 38.8359C67.1218 38.5286 66.4135 38.2266 65.3875 37.9297ZM74.8171 43.1562C73.6713 43.1562 72.739 42.7812 72.0203 42.0312C71.3015 41.276 70.9421 40.2682 70.9421 39.0078V38.7422C70.9421 37.9036 71.101 37.1562 71.4187 36.5C71.7416 35.8385 72.1895 35.3229 72.7625 34.9531C73.3406 34.5781 73.9656 34.3906 74.6375 34.3906C75.7364 34.3906 76.5906 34.7526 77.2 35.4766C77.8093 36.2005 78.114 37.237 78.114 38.5859V39.1875H72.3875C72.4083 40.0208 72.6505 40.6953 73.114 41.2109C73.5828 41.7214 74.1765 41.9766 74.8953 41.9766C75.4057 41.9766 75.838 41.8724 76.1921 41.6641C76.5463 41.4557 76.8562 41.1797 77.1218 40.8359L78.0046 41.5234C77.2963 42.612 76.2338 43.1562 74.8171 43.1562ZM74.6375 35.5781C74.0541 35.5781 73.5645 35.7917 73.1687 36.2188C72.7729 36.6406 72.5281 37.2344 72.4343 38H76.6687V37.8906C76.627 37.1562 76.4291 36.5885 76.075 36.1875C75.7208 35.7812 75.2416 35.5781 74.6375 35.5781ZM81.364 43H79.9187V31H81.364V43ZM87.1921 43.1562C86.0463 43.1562 85.114 42.7812 84.3953 42.0312C83.6765 41.276 83.3171 40.2682 83.3171 39.0078V38.7422C83.3171 37.9036 83.476 37.1562 83.7937 36.5C84.1166 35.8385 84.5645 35.3229 85.1375 34.9531C85.7156 34.5781 86.3406 34.3906 87.0125 34.3906C88.1114 34.3906 88.9656 34.7526 89.575 35.4766C90.1843 36.2005 90.489 37.237 90.489 38.5859V39.1875H84.7625C84.7833 40.0208 85.0255 40.6953 85.489 41.2109C85.9578 41.7214 86.5515 41.9766 87.2703 41.9766C87.7807 41.9766 88.213 41.8724 88.5671 41.6641C88.9213 41.4557 89.2312 41.1797 89.4968 40.8359L90.3796 41.5234C89.6713 42.612 88.6088 43.1562 87.1921 43.1562ZM87.0125 35.5781C86.4291 35.5781 85.9395 35.7917 85.5437 36.2188C85.1479 36.6406 84.9031 37.2344 84.8093 38H89.0437V37.8906C89.002 37.1562 88.8041 36.5885 88.45 36.1875C88.0958 35.7812 87.6166 35.5781 87.0125 35.5781ZM95.5593 41.9766C96.075 41.9766 96.5255 41.8203 96.9109 41.5078C97.2963 41.1953 97.5098 40.8047 97.5515 40.3359H98.9187C98.8927 40.8203 98.726 41.2812 98.4187 41.7188C98.1114 42.1562 97.7 42.5052 97.1843 42.7656C96.6739 43.026 96.1322 43.1562 95.5593 43.1562C94.4083 43.1562 93.4916 42.7734 92.8093 42.0078C92.1322 41.237 91.7937 40.1849 91.7937 38.8516V38.6094C91.7937 37.7865 91.9447 37.0547 92.2468 36.4141C92.5489 35.7734 92.9812 35.276 93.5437 34.9219C94.1114 34.5677 94.7807 34.3906 95.5515 34.3906C96.4994 34.3906 97.2859 34.6745 97.9109 35.2422C98.5411 35.8099 98.877 36.5469 98.9187 37.4531H97.5515C97.5098 36.9062 97.3015 36.4583 96.9265 36.1094C96.5567 35.7552 96.0984 35.5781 95.5515 35.5781C94.8171 35.5781 94.2468 35.8438 93.8406 36.375C93.4395 36.901 93.239 37.6641 93.239 38.6641V38.9375C93.239 39.9115 93.4395 40.6615 93.8406 41.1875C94.2416 41.7135 94.8145 41.9766 95.5593 41.9766ZM102.505 32.5V34.5469H104.083V35.6641H102.505V40.9062C102.505 41.2448 102.575 41.5 102.716 41.6719C102.856 41.8385 103.096 41.9219 103.434 41.9219C103.601 41.9219 103.83 41.8906 104.122 41.8281V43C103.742 43.1042 103.372 43.1562 103.012 43.1562C102.367 43.1562 101.88 42.9609 101.552 42.5703C101.223 42.1797 101.059 41.625 101.059 40.9062V35.6641H99.5203V34.5469H101.059V32.5H102.505ZM111.708 32.5V34.5469H113.286V35.6641H111.708V40.9062C111.708 41.2448 111.778 41.5 111.919 41.6719C112.059 41.8385 112.299 41.9219 112.637 41.9219C112.804 41.9219 113.033 41.8906 113.325 41.8281V43C112.945 43.1042 112.575 43.1562 112.216 43.1562C111.57 43.1562 111.083 42.9609 110.755 42.5703C110.427 42.1797 110.262 41.625 110.262 40.9062V35.6641H108.723V34.5469H110.262V32.5H111.708ZM116.427 35.5703C117.067 34.7839 117.9 34.3906 118.927 34.3906C120.713 34.3906 121.614 35.3984 121.63 37.4141V43H120.184V37.4062C120.179 36.7969 120.038 36.3464 119.762 36.0547C119.492 35.763 119.067 35.6172 118.489 35.6172C118.02 35.6172 117.609 35.7422 117.255 35.9922C116.9 36.2422 116.624 36.5703 116.427 36.9766V43H114.981V31H116.427V35.5703ZM127.302 43.1562C126.156 43.1562 125.223 42.7812 124.505 42.0312C123.786 41.276 123.427 40.2682 123.427 39.0078V38.7422C123.427 37.9036 123.585 37.1562 123.903 36.5C124.226 35.8385 124.674 35.3229 125.247 34.9531C125.825 34.5781 126.45 34.3906 127.122 34.3906C128.221 34.3906 129.075 34.7526 129.684 35.4766C130.294 36.2005 130.598 37.237 130.598 38.5859V39.1875H124.872C124.893 40.0208 125.135 40.6953 125.598 41.2109C126.067 41.7214 126.661 41.9766 127.38 41.9766C127.89 41.9766 128.322 41.8724 128.677 41.6641C129.031 41.4557 129.341 41.1797 129.606 40.8359L130.489 41.5234C129.781 42.612 128.718 43.1562 127.302 43.1562ZM127.122 35.5781C126.538 35.5781 126.049 35.7917 125.653 36.2188C125.257 36.6406 125.012 37.2344 124.919 38H129.153V37.8906C129.111 37.1562 128.913 36.5885 128.559 36.1875C128.205 35.7812 127.726 35.5781 127.122 35.5781ZM141.466 42.1641C140.903 42.8255 140.078 43.1562 138.989 43.1562C138.088 43.1562 137.4 42.8958 136.927 42.375C136.458 41.849 136.221 41.0729 136.216 40.0469V34.5469H137.661V40.0078C137.661 41.2891 138.182 41.9297 139.223 41.9297C140.328 41.9297 141.062 41.5182 141.427 40.6953V34.5469H142.872V43H141.497L141.466 42.1641ZM149.997 40.7578C149.997 40.3672 149.848 40.0651 149.552 39.8516C149.26 39.6328 148.747 39.4453 148.012 39.2891C147.283 39.1328 146.703 38.9453 146.27 38.7266C145.843 38.5078 145.525 38.2474 145.317 37.9453C145.114 37.6432 145.012 37.2839 145.012 36.8672C145.012 36.1745 145.304 35.5885 145.887 35.1094C146.476 34.6302 147.226 34.3906 148.137 34.3906C149.096 34.3906 149.872 34.638 150.466 35.1328C151.065 35.6276 151.364 36.2604 151.364 37.0312H149.911C149.911 36.6354 149.742 36.2943 149.403 36.0078C149.07 35.7214 148.648 35.5781 148.137 35.5781C147.611 35.5781 147.2 35.6927 146.903 35.9219C146.606 36.151 146.458 36.4505 146.458 36.8203C146.458 37.1693 146.596 37.4323 146.872 37.6094C147.148 37.7865 147.645 37.9557 148.364 38.1172C149.088 38.2786 149.674 38.4714 150.122 38.6953C150.57 38.9193 150.9 39.1901 151.114 39.5078C151.333 39.8203 151.442 40.2031 151.442 40.6562C151.442 41.4115 151.14 42.0182 150.536 42.4766C149.932 42.9297 149.148 43.1562 148.184 43.1562C147.507 43.1562 146.908 43.0365 146.387 42.7969C145.867 42.5573 145.458 42.224 145.161 41.7969C144.869 41.3646 144.723 40.8984 144.723 40.3984H146.169C146.195 40.8828 146.387 41.2682 146.747 41.5547C147.111 41.8359 147.591 41.9766 148.184 41.9766C148.731 41.9766 149.169 41.8672 149.497 41.6484C149.83 41.4245 149.997 41.1276 149.997 40.7578ZM156.833 43.1562C155.687 43.1562 154.755 42.7812 154.036 42.0312C153.317 41.276 152.958 40.2682 152.958 39.0078V38.7422C152.958 37.9036 153.117 37.1562 153.434 36.5C153.757 35.8385 154.205 35.3229 154.778 34.9531C155.356 34.5781 155.981 34.3906 156.653 34.3906C157.752 34.3906 158.606 34.7526 159.216 35.4766C159.825 36.2005 160.13 37.237 160.13 38.5859V39.1875H154.403C154.424 40.0208 154.666 40.6953 155.13 41.2109C155.598 41.7214 156.192 41.9766 156.911 41.9766C157.421 41.9766 157.854 41.8724 158.208 41.6641C158.562 41.4557 158.872 41.1797 159.137 40.8359L160.02 41.5234C159.312 42.612 158.249 43.1562 156.833 43.1562ZM156.653 35.5781C156.07 35.5781 155.58 35.7917 155.184 36.2188C154.788 36.6406 154.544 37.2344 154.45 38H158.684V37.8906C158.643 37.1562 158.445 36.5885 158.091 36.1875C157.736 35.7812 157.257 35.5781 156.653 35.5781ZM165.895 35.8438C165.677 35.8073 165.44 35.7891 165.184 35.7891C164.236 35.7891 163.593 36.1927 163.255 37V43H161.809V34.5469H163.216L163.239 35.5234C163.713 34.7682 164.385 34.3906 165.255 34.3906C165.536 34.3906 165.749 34.4271 165.895 34.5V35.8438ZM172.153 40.7578C172.153 40.3672 172.005 40.0651 171.708 39.8516C171.416 39.6328 170.903 39.4453 170.169 39.2891C169.44 39.1328 168.859 38.9453 168.427 38.7266C167.999 38.5078 167.682 38.2474 167.473 37.9453C167.27 37.6432 167.169 37.2839 167.169 36.8672C167.169 36.1745 167.46 35.5885 168.044 35.1094C168.632 34.6302 169.382 34.3906 170.294 34.3906C171.252 34.3906 172.028 34.638 172.622 35.1328C173.221 35.6276 173.52 36.2604 173.52 37.0312H172.067C172.067 36.6354 171.898 36.2943 171.559 36.0078C171.226 35.7214 170.804 35.5781 170.294 35.5781C169.768 35.5781 169.356 35.6927 169.059 35.9219C168.762 36.151 168.614 36.4505 168.614 36.8203C168.614 37.1693 168.752 37.4323 169.028 37.6094C169.304 37.7865 169.802 37.9557 170.52 38.1172C171.244 38.2786 171.83 38.4714 172.278 38.6953C172.726 38.9193 173.057 39.1901 173.27 39.5078C173.489 39.8203 173.598 40.2031 173.598 40.6562C173.598 41.4115 173.296 42.0182 172.692 42.4766C172.088 42.9297 171.304 43.1562 170.341 43.1562C169.663 43.1562 169.065 43.0365 168.544 42.7969C168.023 42.5573 167.614 42.224 167.317 41.7969C167.025 41.3646 166.88 40.8984 166.88 40.3984H168.325C168.351 40.8828 168.544 41.2682 168.903 41.5547C169.268 41.8359 169.747 41.9766 170.341 41.9766C170.887 41.9766 171.325 41.8672 171.653 41.6484C171.986 41.4245 172.153 41.1276 172.153 40.7578ZM182.216 40.8828L184.184 34.5469H185.731L182.333 44.3047C181.807 45.7109 180.971 46.4141 179.825 46.4141L179.552 46.3906L179.012 46.2891V45.1172L179.403 45.1484C179.893 45.1484 180.273 45.0495 180.544 44.8516C180.82 44.6536 181.046 44.2917 181.223 43.7656L181.544 42.9062L178.528 34.5469H180.106L182.216 40.8828ZM186.52 38.6953C186.52 37.8672 186.682 37.1224 187.005 36.4609C187.333 35.7995 187.786 35.2891 188.364 34.9297C188.947 34.5703 189.611 34.3906 190.356 34.3906C191.507 34.3906 192.437 34.7891 193.145 35.5859C193.859 36.3828 194.216 37.4427 194.216 38.7656V38.8672C194.216 39.6901 194.057 40.4297 193.739 41.0859C193.427 41.737 192.976 42.2448 192.387 42.6094C191.804 42.974 191.132 43.1562 190.372 43.1562C189.226 43.1562 188.296 42.7578 187.583 41.9609C186.874 41.1641 186.52 40.1094 186.52 38.7969V38.6953ZM187.973 38.8672C187.973 39.8047 188.19 40.5573 188.622 41.125C189.059 41.6927 189.643 41.9766 190.372 41.9766C191.106 41.9766 191.69 41.6901 192.122 41.1172C192.554 40.5391 192.77 39.7318 192.77 38.6953C192.77 37.7682 192.549 37.0182 192.106 36.4453C191.669 35.8672 191.085 35.5781 190.356 35.5781C189.643 35.5781 189.067 35.862 188.63 36.4297C188.192 36.9974 187.973 37.8099 187.973 38.8672ZM201.247 42.1641C200.684 42.8255 199.859 43.1562 198.77 43.1562C197.869 43.1562 197.182 42.8958 196.708 42.375C196.239 41.849 196.002 41.0729 195.997 40.0469V34.5469H197.442V40.0078C197.442 41.2891 197.963 41.9297 199.005 41.9297C200.109 41.9297 200.843 41.5182 201.208 40.6953V34.5469H202.653V43H201.278L201.247 42.1641ZM216.309 41.0078L217.934 34.5469H219.38L216.919 43H215.747L213.692 36.5938L211.692 43H210.52L208.067 34.5469H209.505L211.169 40.875L213.137 34.5469H214.302L216.309 41.0078ZM226.075 43C225.992 42.8333 225.924 42.5365 225.872 42.1094C225.2 42.8073 224.398 43.1562 223.466 43.1562C222.632 43.1562 221.947 42.9219 221.411 42.4531C220.88 41.9792 220.614 41.3802 220.614 40.6562C220.614 39.776 220.947 39.0938 221.614 38.6094C222.286 38.1198 223.229 37.875 224.442 37.875H225.848V37.2109C225.848 36.7057 225.697 36.3047 225.395 36.0078C225.093 35.7057 224.648 35.5547 224.059 35.5547C223.544 35.5547 223.111 35.6849 222.762 35.9453C222.413 36.2057 222.239 36.5208 222.239 36.8906H220.786C220.786 36.4688 220.934 36.0625 221.231 35.6719C221.533 35.276 221.94 34.9635 222.45 34.7344C222.966 34.5052 223.531 34.3906 224.145 34.3906C225.119 34.3906 225.882 34.6354 226.434 35.125C226.986 35.6094 227.273 36.2786 227.294 37.1328V41.0234C227.294 41.7995 227.393 42.4167 227.591 42.875V43H226.075ZM223.677 41.8984C224.13 41.8984 224.559 41.7812 224.966 41.5469C225.372 41.3125 225.666 41.0078 225.848 40.6328V38.8984H224.716C222.945 38.8984 222.059 39.4167 222.059 40.4531C222.059 40.9062 222.21 41.2604 222.512 41.5156C222.815 41.7708 223.203 41.8984 223.677 41.8984ZM230.927 34.5469L230.973 35.6094C231.619 34.7969 232.463 34.3906 233.505 34.3906C235.291 34.3906 236.192 35.3984 236.208 37.4141V43H234.762V37.4062C234.757 36.7969 234.617 36.3464 234.341 36.0547C234.07 35.763 233.645 35.6172 233.067 35.6172C232.598 35.6172 232.187 35.7422 231.833 35.9922C231.479 36.2422 231.203 36.5703 231.005 36.9766V43H229.559V34.5469H230.927ZM240.348 32.5V34.5469H241.927V35.6641H240.348V40.9062C240.348 41.2448 240.419 41.5 240.559 41.6719C240.7 41.8385 240.94 41.9219 241.278 41.9219C241.445 41.9219 241.674 41.8906 241.966 41.8281V43C241.585 43.1042 241.216 43.1562 240.856 43.1562C240.21 43.1562 239.723 42.9609 239.395 42.5703C239.067 42.1797 238.903 41.625 238.903 40.9062V35.6641H237.364V34.5469H238.903V32.5H240.348ZM249.552 32.5V34.5469H251.13V35.6641H249.552V40.9062C249.552 41.2448 249.622 41.5 249.762 41.6719C249.903 41.8385 250.143 41.9219 250.481 41.9219C250.648 41.9219 250.877 41.8906 251.169 41.8281V43C250.788 43.1042 250.419 43.1562 250.059 43.1562C249.413 43.1562 248.927 42.9609 248.598 42.5703C248.27 42.1797 248.106 41.625 248.106 40.9062V35.6641H246.567V34.5469H248.106V32.5H249.552ZM252.286 38.6953C252.286 37.8672 252.447 37.1224 252.77 36.4609C253.098 35.7995 253.552 35.2891 254.13 34.9297C254.713 34.5703 255.377 34.3906 256.122 34.3906C257.273 34.3906 258.203 34.7891 258.911 35.5859C259.624 36.3828 259.981 37.4427 259.981 38.7656V38.8672C259.981 39.6901 259.822 40.4297 259.505 41.0859C259.192 41.737 258.742 42.2448 258.153 42.6094C257.57 42.974 256.898 43.1562 256.137 43.1562C254.992 43.1562 254.062 42.7578 253.348 41.9609C252.64 41.1641 252.286 40.1094 252.286 38.7969V38.6953ZM253.739 38.8672C253.739 39.8047 253.955 40.5573 254.387 41.125C254.825 41.6927 255.408 41.9766 256.137 41.9766C256.872 41.9766 257.455 41.6901 257.887 41.1172C258.32 40.5391 258.536 39.7318 258.536 38.6953C258.536 37.7682 258.315 37.0182 257.872 36.4453C257.434 35.8672 256.851 35.5781 256.122 35.5781C255.408 35.5781 254.833 35.862 254.395 36.4297C253.958 36.9974 253.739 37.8099 253.739 38.8672ZM267.333 43H265.887V34.5469H267.333V43ZM265.77 32.3047C265.77 32.0703 265.841 31.8724 265.981 31.7109C266.127 31.5495 266.341 31.4688 266.622 31.4688C266.903 31.4688 267.117 31.5495 267.262 31.7109C267.408 31.8724 267.481 32.0703 267.481 32.3047C267.481 32.5391 267.408 32.7344 267.262 32.8906C267.117 33.0469 266.903 33.125 266.622 33.125C266.341 33.125 266.127 33.0469 265.981 32.8906C265.841 32.7344 265.77 32.5391 265.77 32.3047ZM271.02 34.5469L271.067 35.6094C271.713 34.7969 272.557 34.3906 273.598 34.3906C275.385 34.3906 276.286 35.3984 276.302 37.4141V43H274.856V37.4062C274.851 36.7969 274.71 36.3464 274.434 36.0547C274.163 35.763 273.739 35.6172 273.161 35.6172C272.692 35.6172 272.281 35.7422 271.927 35.9922C271.572 36.2422 271.296 36.5703 271.098 36.9766V43H269.653V34.5469H271.02ZM280.442 32.5V34.5469H282.02V35.6641H280.442V40.9062C280.442 41.2448 280.512 41.5 280.653 41.6719C280.794 41.8385 281.033 41.9219 281.372 41.9219C281.538 41.9219 281.768 41.8906 282.059 41.8281V43C281.679 43.1042 281.309 43.1562 280.95 43.1562C280.304 43.1562 279.817 42.9609 279.489 42.5703C279.161 42.1797 278.997 41.625 278.997 40.9062V35.6641H277.458V34.5469H278.997V32.5H280.442ZM287.223 43.1562C286.078 43.1562 285.145 42.7812 284.427 42.0312C283.708 41.276 283.348 40.2682 283.348 39.0078V38.7422C283.348 37.9036 283.507 37.1562 283.825 36.5C284.148 35.8385 284.596 35.3229 285.169 34.9531C285.747 34.5781 286.372 34.3906 287.044 34.3906C288.143 34.3906 288.997 34.7526 289.606 35.4766C290.216 36.2005 290.52 37.237 290.52 38.5859V39.1875H284.794C284.815 40.0208 285.057 40.6953 285.52 41.2109C285.989 41.7214 286.583 41.9766 287.302 41.9766C287.812 41.9766 288.244 41.8724 288.598 41.6641C288.953 41.4557 289.262 41.1797 289.528 40.8359L290.411 41.5234C289.703 42.612 288.64 43.1562 287.223 43.1562ZM287.044 35.5781C286.46 35.5781 285.971 35.7917 285.575 36.2188C285.179 36.6406 284.934 37.2344 284.841 38H289.075V37.8906C289.033 37.1562 288.835 36.5885 288.481 36.1875C288.127 35.7812 287.648 35.5781 287.044 35.5781ZM296.286 35.8438C296.067 35.8073 295.83 35.7891 295.575 35.7891C294.627 35.7891 293.984 36.1927 293.645 37V43H292.2V34.5469H293.606L293.63 35.5234C294.104 34.7682 294.775 34.3906 295.645 34.3906C295.927 34.3906 296.14 34.4271 296.286 34.5V35.8438ZM302.528 43C302.445 42.8333 302.377 42.5365 302.325 42.1094C301.653 42.8073 300.851 43.1562 299.919 43.1562C299.085 43.1562 298.4 42.9219 297.864 42.4531C297.333 41.9792 297.067 41.3802 297.067 40.6562C297.067 39.776 297.4 39.0938 298.067 38.6094C298.739 38.1198 299.682 37.875 300.895 37.875H302.302V37.2109C302.302 36.7057 302.15 36.3047 301.848 36.0078C301.546 35.7057 301.101 35.5547 300.512 35.5547C299.997 35.5547 299.565 35.6849 299.216 35.9453C298.867 36.2057 298.692 36.5208 298.692 36.8906H297.239C297.239 36.4688 297.387 36.0625 297.684 35.6719C297.986 35.276 298.393 34.9635 298.903 34.7344C299.419 34.5052 299.984 34.3906 300.598 34.3906C301.572 34.3906 302.335 34.6354 302.887 35.125C303.44 35.6094 303.726 36.2786 303.747 37.1328V41.0234C303.747 41.7995 303.846 42.4167 304.044 42.875V43H302.528ZM300.13 41.8984C300.583 41.8984 301.012 41.7812 301.419 41.5469C301.825 41.3125 302.119 41.0078 302.302 40.6328V38.8984H301.169C299.398 38.8984 298.512 39.4167 298.512 40.4531C298.512 40.9062 298.663 41.2604 298.966 41.5156C299.268 41.7708 299.656 41.8984 300.13 41.8984ZM309.403 41.9766C309.919 41.9766 310.369 41.8203 310.755 41.5078C311.14 41.1953 311.354 40.8047 311.395 40.3359H312.762C312.736 40.8203 312.57 41.2812 312.262 41.7188C311.955 42.1562 311.544 42.5052 311.028 42.7656C310.518 43.026 309.976 43.1562 309.403 43.1562C308.252 43.1562 307.335 42.7734 306.653 42.0078C305.976 41.237 305.637 40.1849 305.637 38.8516V38.6094C305.637 37.7865 305.788 37.0547 306.091 36.4141C306.393 35.7734 306.825 35.276 307.387 34.9219C307.955 34.5677 308.624 34.3906 309.395 34.3906C310.343 34.3906 311.13 34.6745 311.755 35.2422C312.385 35.8099 312.721 36.5469 312.762 37.4531H311.395C311.354 36.9062 311.145 36.4583 310.77 36.1094C310.4 35.7552 309.942 35.5781 309.395 35.5781C308.661 35.5781 308.091 35.8438 307.684 36.375C307.283 36.901 307.083 37.6641 307.083 38.6641V38.9375C307.083 39.9115 307.283 40.6615 307.684 41.1875C308.085 41.7135 308.658 41.9766 309.403 41.9766ZM316.348 32.5V34.5469H317.927V35.6641H316.348V40.9062C316.348 41.2448 316.419 41.5 316.559 41.6719C316.7 41.8385 316.94 41.9219 317.278 41.9219C317.445 41.9219 317.674 41.8906 317.966 41.8281V43C317.585 43.1042 317.216 43.1562 316.856 43.1562C316.21 43.1562 315.723 42.9609 315.395 42.5703C315.067 42.1797 314.903 41.625 314.903 40.9062V35.6641H313.364V34.5469H314.903V32.5H316.348ZM331.075 41.0078L332.7 34.5469H334.145L331.684 43H330.512L328.458 36.5938L326.458 43H325.286L322.833 34.5469H324.27L325.934 40.875L327.903 34.5469H329.067L331.075 41.0078ZM337.192 43H335.747V34.5469H337.192V43ZM335.63 32.3047C335.63 32.0703 335.7 31.8724 335.841 31.7109C335.986 31.5495 336.2 31.4688 336.481 31.4688C336.762 31.4688 336.976 31.5495 337.122 31.7109C337.268 31.8724 337.341 32.0703 337.341 32.3047C337.341 32.5391 337.268 32.7344 337.122 32.8906C336.976 33.0469 336.762 33.125 336.481 33.125C336.2 33.125 335.986 33.0469 335.841 32.8906C335.7 32.7344 335.63 32.5391 335.63 32.3047ZM341.473 32.5V34.5469H343.052V35.6641H341.473V40.9062C341.473 41.2448 341.544 41.5 341.684 41.6719C341.825 41.8385 342.065 41.9219 342.403 41.9219C342.57 41.9219 342.799 41.8906 343.091 41.8281V43C342.71 43.1042 342.341 43.1562 341.981 43.1562C341.335 43.1562 340.848 42.9609 340.52 42.5703C340.192 42.1797 340.028 41.625 340.028 40.9062V35.6641H338.489V34.5469H340.028V32.5H341.473ZM346.192 35.5703C346.833 34.7839 347.666 34.3906 348.692 34.3906C350.479 34.3906 351.38 35.3984 351.395 37.4141V43H349.95V37.4062C349.945 36.7969 349.804 36.3464 349.528 36.0547C349.257 35.763 348.833 35.6172 348.255 35.6172C347.786 35.6172 347.374 35.7422 347.02 35.9922C346.666 36.2422 346.39 36.5703 346.192 36.9766V43H344.747V31H346.192V35.5703ZM353.591 42.2422C353.591 41.9922 353.663 41.7839 353.809 41.6172C353.96 41.4505 354.184 41.3672 354.481 41.3672C354.778 41.3672 355.002 41.4505 355.153 41.6172C355.309 41.7839 355.387 41.9922 355.387 42.2422C355.387 42.4818 355.309 42.6823 355.153 42.8438C355.002 43.0052 354.778 43.0859 354.481 43.0859C354.184 43.0859 353.96 43.0052 353.809 42.8438C353.663 42.6823 353.591 42.4818 353.591 42.2422Z" fill="#656668"/>
<path d="M28.7589 49H31.6389V43.848H34.8389V41.32H31.6389V26.088H28.1509L16.9189 41.64V43.848H28.7589V49ZM20.2789 41.32L28.8869 29.128V41.32H20.2789Z" fill="#656668"/>
</svg>
