<svg width="207" height="33" viewBox="0 0 207 33" fill="none" xmlns="http://www.w3.org/2000/svg">
<path d="M15.96 17.92C15.96 9.664 3.928 13.248 3.928 7.488C3.928 5.088 5.816 3.84 8.216 3.904C10.936 3.936 12.344 5.632 12.536 7.136H15.736C15.384 3.744 12.6 1.408 8.344 1.408C3.928 1.408 0.952 3.904 0.952 7.584C0.952 15.872 13.016 12.032 13.016 18.048C13.016 20.16 11.352 21.76 8.536 21.76C5.432 21.76 4.12 19.904 3.928 18.048H0.824C0.888 21.728 4.056 24.224 8.536 24.224C13.368 24.224 15.96 21.088 15.96 17.92ZM20.2453 24H23.1573V14.304C23.1573 10.528 25.2053 8.672 28.1813 8.672C31.1253 8.672 33.0773 10.496 33.0773 14.08V24H35.9573V13.664C35.9573 8.64 32.8533 6.144 28.9493 6.144C26.4853 6.144 24.3093 7.136 23.1573 8.992V0.32H20.2453V24ZM39.626 15.168C39.626 20.608 43.242 24.288 47.914 24.288C51.146 24.288 53.418 22.624 54.474 20.736V24H57.418V6.464H54.474V9.664C53.45 7.84 51.21 6.176 47.946 6.176C43.242 6.176 39.626 9.696 39.626 15.168ZM54.474 15.2C54.474 19.328 51.722 21.728 48.522 21.728C45.322 21.728 42.602 19.296 42.602 15.168C42.602 11.04 45.322 8.704 48.522 8.704C51.722 8.704 54.474 11.136 54.474 15.2ZM62.339 24H65.251V16.256L72.131 24H76.099L67.811 15.2L76.067 6.464H72.003L65.251 14.24V0.32H62.339V24ZM86.2638 8.64C89.2718 8.64 91.8318 10.528 91.7998 13.952H80.7278C81.0477 10.528 83.4158 8.64 86.2638 8.64ZM94.4558 18.592H91.3198C90.6798 20.48 89.0158 21.824 86.3918 21.824C83.4158 21.824 80.9198 19.872 80.6958 16.32H94.7118C94.7758 15.712 94.8078 15.2 94.8078 14.56C94.8078 9.76 91.4798 6.176 86.3918 6.176C81.2718 6.176 77.7198 9.664 77.7198 15.2C77.7198 20.768 81.3998 24.288 86.3918 24.288C90.7438 24.288 93.5598 21.792 94.4558 18.592ZM107.823 19.2C107.823 22.72 109.583 24 112.687 24H115.311V21.536H113.167C111.375 21.536 110.735 20.928 110.735 19.2V8.864H115.311V6.464H110.735V2.048H107.823V6.464H105.551V8.864H107.823V19.2ZM135.479 15.2C135.479 9.664 131.607 6.176 126.615 6.176C121.655 6.176 117.751 9.664 117.751 15.2C117.751 20.768 121.527 24.288 126.487 24.288C131.479 24.288 135.479 20.768 135.479 15.2ZM120.727 15.2C120.727 10.784 123.511 8.704 126.583 8.704C129.591 8.704 132.503 10.784 132.503 15.2C132.503 19.648 129.527 21.728 126.487 21.728C123.447 21.728 120.727 19.648 120.727 15.2ZM150.751 9.696V6.464H147.839V32.32H150.751V20.768C151.839 22.56 154.111 24.288 157.311 24.288C162.015 24.288 165.631 20.608 165.631 15.168C165.631 9.696 162.015 6.176 157.311 6.176C154.111 6.176 151.807 7.84 150.751 9.696ZM162.655 15.168C162.655 19.296 159.935 21.728 156.703 21.728C153.535 21.728 150.751 19.328 150.751 15.2C150.751 11.136 153.535 8.704 156.703 8.704C159.935 8.704 162.655 11.04 162.655 15.168ZM168.376 15.168C168.376 20.608 171.992 24.288 176.664 24.288C179.896 24.288 182.168 22.624 183.224 20.736V24H186.168V6.464H183.224V9.664C182.2 7.84 179.96 6.176 176.696 6.176C171.992 6.176 168.376 9.696 168.376 15.168ZM183.224 15.2C183.224 19.328 180.472 21.728 177.272 21.728C174.072 21.728 171.352 19.296 171.352 15.168C171.352 11.04 174.072 8.704 177.272 8.704C180.472 8.704 183.224 11.136 183.224 15.2ZM197.745 20.672L192.241 6.464H189.009L196.081 23.808L192.625 32.256H195.633L206.193 6.464H203.185L197.745 20.672Z" fill="#494B52"/>
</svg>
