<svg width="220" height="195" viewBox="0 0 220 195" fill="none" xmlns="http://www.w3.org/2000/svg">
<path d="M11.9878 52.0211C15.089 45.1128 18.7107 39.353 22.7659 35.208C23.9143 34.0177 25.1524 32.9381 26.4623 31.9811C27.6346 31.1199 28.8757 30.3842 30.1676 29.7771C48.6405 21.1971 67.559 40.7197 88.6935 38.4139C106.41 36.476 119.156 25.4198 130.46 16.137C134.165 12.964 138.041 10.0571 142.07 7.43139C143.137 6.7615 144.214 6.15142 145.281 5.61012C146.43 5.03293 147.653 4.49164 148.957 3.9952C148.957 3.98922 148.963 3.98324 148.966 3.98324L148.978 3.9952C165.345 -2.31196 192.999 -2.08168 205.252 11.4896C218.081 25.7069 233.662 71.7829 198.373 131.131C159.167 197.101 52.0408 206.216 23.4148 184.403C-6.21296 161.848 -5.0197 89.9209 11.9878 52.0211Z" fill="#E4F2FF"/>
<path d="M106.241 153.567C127.663 153.567 145.029 136.201 145.029 114.779C145.029 93.3572 127.663 75.9912 106.241 75.9912C84.8191 75.9912 67.4531 93.3572 67.4531 114.779C67.4531 136.201 84.8191 153.567 106.241 153.567Z" fill="#6654A4"/>
<path d="M79.7881 100.068C79.7881 100.068 83.9839 103.69 84.8991 107.907C86.1252 113.565 80.2906 122.133 80.6135 129.107C80.9844 137.167 85.3746 140.651 88.0452 145.992C91.1344 152.167 90.9131 156.232 90.9131 158.346C90.9251 159.575 90.6619 160.789 90.1356 161.902H119.12C119.12 161.902 113.408 170.578 102.194 177.558C93.0185 183.27 88.2306 193.001 88.2306 193.001H47.6094L62.2334 168.714C62.2334 168.714 59.5867 155.921 61.1478 146.668C63.9769 129.932 79.7881 100.068 79.7881 100.068Z" fill="#AA8776"/>
<path d="M90.2685 161.815C90.2685 161.815 88.7254 164.68 86.9191 167.611C85.1157 170.542 83.9883 172.121 83.9883 172.121C83.9883 172.121 88.2529 170.967 90.9773 168.963C93.7077 166.95 96.151 164.573 98.2444 161.902L90.2685 161.815Z" fill="#996552"/>
<path d="M130.562 39.7958L131.818 37.499L133.074 39.7958C134.33 42.0926 136.22 43.9826 138.52 45.2417L140.817 46.4977L138.52 47.7537C136.22 49.0098 134.333 50.8999 133.074 53.1966L131.818 55.4934L130.562 53.1966C129.306 50.8999 127.416 49.0098 125.116 47.7537L122.819 46.4977L125.116 45.2417C127.416 43.9826 129.306 42.0926 130.562 39.7958Z" fill="#6654A4"/>
<path d="M107.673 48.1214L108.206 47.1465L108.738 48.1214C109.27 49.0963 110.072 49.8978 111.047 50.4301L112.022 50.9624L111.047 51.4948C110.072 52.0271 109.27 52.8286 108.738 53.8035L108.206 54.7784L107.673 53.8035C107.141 52.8286 106.34 52.0271 105.365 51.4948L104.39 50.9624L105.365 50.4301C106.34 49.8978 107.141 49.0963 107.673 48.1214Z" fill="#6654A4"/>
<path d="M141.003 74.6214L141.249 74.1729L141.494 74.6214C141.739 75.07 142.107 75.4408 142.556 75.6861L143.004 75.9313L142.556 76.1765C142.107 76.4218 141.739 76.7896 141.494 77.2412L141.249 77.6898L141.003 77.2412C140.758 76.7926 140.39 76.4248 139.939 76.1765L139.49 75.9313L139.939 75.6861C140.387 75.4379 140.758 75.07 141.003 74.6214Z" fill="#6654A4"/>
<path d="M143.936 56.7852L144.385 55.9658L144.833 56.7852C145.282 57.6047 145.955 58.2775 146.771 58.7231L147.591 59.1717L146.771 59.6203C145.952 60.0689 145.279 60.7418 144.833 61.5582L144.385 62.3776L143.936 61.5582C143.487 60.7388 142.815 60.0659 141.998 59.6203L141.179 59.1717L141.998 58.7231C142.818 58.2775 143.49 57.6047 143.936 56.7852Z" fill="#6654A4"/>
<path d="M83.7773 57.7217H128.705C131.672 57.7217 134.076 60.1261 134.076 63.0928V156.441C134.076 159.408 131.672 161.812 128.705 161.812H83.7773C80.8107 161.812 78.4062 159.408 78.4062 156.441V63.0928C78.4092 60.1261 80.8107 57.7217 83.7773 57.7217Z" fill="black"/>
<path d="M132.108 148.433H80.7627V159.133H132.108V148.433Z" fill="black"/>
<path d="M107.005 158.323C109.152 158.323 110.893 156.581 110.893 154.432C110.893 152.283 109.152 150.541 107.005 150.541C104.858 150.541 103.117 152.283 103.117 154.432C103.117 156.581 104.858 158.323 107.005 158.323Z" fill="#545454"/>
<path d="M109.917 154.431C109.917 156.043 108.613 157.347 107.001 157.35C105.389 157.35 104.085 156.043 104.085 154.434C104.085 152.823 105.389 151.516 107.001 151.516C108.613 151.513 109.92 152.82 109.917 154.431Z" fill="#737373"/>
<path d="M98.6255 61.5293H110.612C110.971 61.5293 111.261 61.8194 111.261 62.1782C111.261 62.5371 110.971 62.8272 110.612 62.8272H98.6255C98.2666 62.8272 97.9766 62.5371 97.9766 62.1782C97.9766 61.8224 98.2666 61.5293 98.6255 61.5293Z" fill="#A4A5A4"/>
<path d="M114.499 62.178C114.499 62.7163 114.065 63.1499 113.527 63.1499C112.988 63.1499 112.555 62.7133 112.555 62.178C112.555 61.6397 112.988 61.2061 113.527 61.2061C114.065 61.2061 114.499 61.6427 114.499 62.178Z" fill="#A4A5A4"/>
<path d="M118.227 61.4299V62.8475C118.227 64.0079 117.288 64.9499 116.127 64.9499H96.3593C95.199 64.9499 94.257 64.0079 94.257 62.8475V61.4299C94.257 61.0531 93.9519 60.7451 93.5721 60.7451H85.3958C83.3473 60.7451 81.6875 62.4079 81.6875 64.4565V155.074C81.6875 157.123 83.3473 158.786 85.3958 158.786H127.082C129.13 158.786 130.79 157.123 130.79 155.074V64.4565C130.79 62.4079 129.13 60.7451 127.082 60.7451H118.905C118.532 60.7451 118.227 61.0531 118.227 61.4299Z" fill="white"/>
<mask id="mask0" mask-type="alpha" maskUnits="userSpaceOnUse" x="81" y="60" width="50" height="99">
<path d="M118.227 61.4299V62.8475C118.227 64.0079 117.288 64.9499 116.127 64.9499H96.3593C95.199 64.9499 94.257 64.0079 94.257 62.8475V61.4299C94.257 61.0531 93.9519 60.7451 93.5721 60.7451H85.3958C83.3473 60.7451 81.6875 62.4079 81.6875 64.4565V155.074C81.6875 157.123 83.3473 158.786 85.3958 158.786H127.082C129.13 158.786 130.79 157.123 130.79 155.074V64.4565C130.79 62.4079 129.13 60.7451 127.082 60.7451H118.905C118.532 60.7451 118.227 61.0531 118.227 61.4299Z" fill="white"/>
</mask>
<g mask="url(#mask0)">
<path d="M106.631 144.536C128.752 144.536 146.684 126.603 146.684 104.483C146.684 82.362 128.752 64.4297 106.631 64.4297C84.5104 64.4297 66.5781 82.362 66.5781 104.483C66.5781 126.603 84.5104 144.536 106.631 144.536Z" stroke="#BBBBBB" stroke-opacity="0.5" stroke-width="0.5"/>
<path d="M106.63 137.062C124.623 137.062 139.21 122.476 139.21 104.483C139.21 86.4897 124.623 71.9033 106.63 71.9033C88.6371 71.9033 74.0508 86.4897 74.0508 104.483C74.0508 122.476 88.6371 137.062 106.63 137.062Z" stroke="#BBBBBB" stroke-opacity="0.5" stroke-width="0.5"/>
<path d="M106.629 129.589C120.495 129.589 131.735 118.349 131.735 104.483C131.735 90.6173 120.495 79.377 106.629 79.377C92.7638 79.377 81.5234 90.6173 81.5234 104.483C81.5234 118.349 92.7638 129.589 106.629 129.589Z" stroke="#BBBBBB" stroke-opacity="0.5" stroke-width="0.5"/>
<path d="M106.633 122.115C116.371 122.115 124.265 114.22 124.265 104.482C124.265 94.744 116.371 86.8496 106.633 86.8496C96.8943 86.8496 89 94.744 89 104.482C89 114.22 96.8943 122.115 106.633 122.115Z" stroke="#BBBBBB" stroke-opacity="0.5" stroke-width="0.5"/>
</g>
<path d="M106.494 94.3594C112.087 94.3594 116.617 98.8931 116.617 104.483C116.617 110.075 112.084 114.606 106.494 114.606C100.902 114.606 96.3711 110.072 96.3711 104.483C96.3711 98.8901 100.902 94.3594 106.494 94.3594Z" fill="#B7B7B7" stroke="#F8F8F8"/>
<path d="M109.959 106.489C110.306 105.47 110.647 104.441 110.811 103.376C110.976 102.312 110.958 101.199 110.593 100.185C110.539 100.033 110.067 98.9979 109.902 99.0129C109.785 99.0218 110.073 99.9848 110.013 100.084C109.441 101.04 109.274 102.195 109.349 103.307C109.433 104.387 109.639 105.455 109.959 106.489Z" fill="#263238"/>
<path d="M106.063 97.3135L105.812 97.3224C103.297 97.4271 101.284 99.4427 101.186 101.958C101.093 104.299 101.021 106.886 101.09 108.136C101.227 110.726 103.835 111.022 103.835 111.022C103.841 111.022 103.841 110.023 103.841 110.783C103.838 111.701 104.242 112.524 104.882 113.089C105.408 113.173 105.944 113.217 106.494 113.217C107.427 113.217 108.327 113.089 109.185 112.853C109.673 112.317 109.975 111.608 109.987 110.828L110.115 102.377C110.235 99.682 108.767 97.3613 106.063 97.3135Z" fill="#B78876"/>
<path d="M103.842 111.023C103.842 111.023 105.478 111.053 107.173 109.887C107.173 109.887 106.429 111.804 103.836 111.678L103.842 111.023Z" fill="#995037"/>
<path d="M102.176 103.567C102.182 103.767 102.346 103.926 102.547 103.926C102.741 103.932 102.905 103.779 102.914 103.585C102.914 103.582 102.914 103.579 102.914 103.576C102.908 103.376 102.744 103.217 102.544 103.217C102.349 103.208 102.185 103.361 102.176 103.558C102.176 103.561 102.176 103.564 102.176 103.567Z" fill="#263238"/>
<path d="M101.784 103.014C101.832 103.059 102.104 102.841 102.502 102.826C102.9 102.805 103.199 102.996 103.24 102.945C103.261 102.924 103.211 102.838 103.079 102.751C102.903 102.637 102.693 102.583 102.484 102.595C102.278 102.604 102.077 102.676 101.916 102.805C101.799 102.903 101.76 102.993 101.784 103.014Z" fill="#263238"/>
<path d="M106.047 103.567C106.053 103.767 106.217 103.926 106.418 103.926C106.612 103.932 106.777 103.782 106.786 103.585C106.786 103.582 106.786 103.579 106.786 103.576C106.78 103.376 106.615 103.217 106.415 103.217C106.22 103.208 106.056 103.364 106.047 103.558C106.047 103.561 106.047 103.564 106.047 103.567Z" fill="#263238"/>
<path d="M105.689 103.014C105.737 103.062 106.009 102.841 106.407 102.826C106.805 102.805 107.104 102.996 107.146 102.945C107.167 102.921 107.116 102.838 106.984 102.751C106.808 102.637 106.598 102.583 106.389 102.595C106.183 102.604 105.982 102.676 105.821 102.805C105.704 102.903 105.668 102.993 105.689 103.014Z" fill="#263238"/>
<path d="M104.377 106.129C104.377 106.105 104.129 106.076 103.726 106.04C103.624 106.034 103.525 106.016 103.507 105.95C103.495 105.845 103.513 105.738 103.564 105.645C103.651 105.394 103.741 105.134 103.833 104.858C104.204 103.74 104.47 102.819 104.425 102.807C104.38 102.792 104.043 103.689 103.669 104.808C103.579 105.083 103.495 105.346 103.412 105.597C103.352 105.723 103.34 105.863 103.376 105.998C103.409 106.07 103.471 106.12 103.549 106.138C103.606 106.15 103.666 106.156 103.723 106.156C104.126 106.162 104.377 106.153 104.377 106.129Z" fill="#263238"/>
<path d="M105.571 106.359C105.505 106.359 105.523 106.789 105.167 107.112C104.811 107.435 104.348 107.405 104.348 107.465C104.342 107.492 104.453 107.546 104.65 107.543C104.904 107.537 105.146 107.441 105.335 107.271C105.517 107.109 105.628 106.882 105.646 106.64C105.655 106.46 105.601 106.353 105.571 106.359Z" fill="#263238"/>
<path d="M105.643 101.397C105.688 101.505 106.083 101.436 106.552 101.472C107.022 101.499 107.404 101.621 107.461 101.52C107.488 101.472 107.416 101.373 107.261 101.274C106.839 101.032 106.328 100.996 105.876 101.179C105.709 101.256 105.625 101.346 105.643 101.397Z" fill="#263238"/>
<path d="M101.883 101.682C101.958 101.769 102.227 101.664 102.556 101.646C102.885 101.616 103.166 101.682 103.229 101.583C103.255 101.535 103.208 101.449 103.082 101.368C102.738 101.17 102.31 101.203 101.996 101.446C101.886 101.544 101.85 101.64 101.883 101.682Z" fill="#263238"/>
<path d="M109.984 104.307C110.029 104.286 111.743 103.706 111.758 105.48C111.776 107.253 109.99 106.903 109.987 106.852C109.984 106.802 109.984 104.307 109.984 104.307Z" fill="#B78876"/>
<path d="M110.526 106.176C110.535 106.17 110.556 106.197 110.61 106.221C110.685 106.251 110.765 106.254 110.84 106.224C111.025 106.152 111.181 105.853 111.187 105.536C111.19 105.384 111.16 105.234 111.097 105.094C111.061 104.983 110.975 104.893 110.864 104.858C110.789 104.84 110.714 104.875 110.682 104.944C110.658 104.995 110.67 105.028 110.661 105.031C110.655 105.034 110.622 105.001 110.637 104.929C110.646 104.884 110.67 104.846 110.705 104.819C110.753 104.78 110.816 104.765 110.876 104.771C111.025 104.798 111.148 104.902 111.202 105.043C111.28 105.195 111.319 105.366 111.313 105.536C111.304 105.895 111.124 106.23 110.87 106.305C110.774 106.335 110.67 106.317 110.586 106.26C110.529 106.218 110.52 106.179 110.526 106.176Z" fill="#995037"/>
<path d="M102.333 99.0208C102.046 98.8623 102.907 97.9323 103.613 97.6123C104.678 97.1278 106.308 96.8287 107.288 97.1068C108.473 97.4417 109.457 98.0309 110.049 99.1076C110.644 100.184 110.868 101.437 110.832 102.669C110.823 103.043 110.784 103.435 110.584 103.752C110.336 104.144 109.86 104.392 109.881 104.933C109.893 105.131 109.827 105.325 109.699 105.474C109.376 105.821 108.978 105.495 108.796 105.169C108.407 104.476 108.362 103.647 108.326 102.849C108.302 102.283 108.278 101.706 108.437 101.162C108.524 100.866 108.664 100.588 108.733 100.286C108.802 99.9838 108.793 99.6459 108.607 99.4006C108.562 99.3468 108.515 99.2989 108.464 99.2541C107.961 98.8145 107.259 98.6828 106.628 98.9071C105.629 99.26 103.924 99.7894 103.478 99.4514C102.838 98.964 102.683 98.647 102.683 98.647L102.333 99.0208Z" fill="#263238"/>
<path d="M107.577 75.9307C111.211 75.9307 114.154 78.8764 114.154 82.507C114.154 86.1405 111.208 89.0833 107.577 89.0833C103.944 89.0833 101.001 86.1375 101.001 82.507C100.998 78.8734 103.944 75.9307 107.577 75.9307Z" fill="#B7B7B7" stroke="#E8505B"/>
<path d="M108.93 77.8336C108.971 77.8714 109.026 77.9238 109.084 77.982C109.146 78.0403 109.198 78.0956 109.236 78.1363C109.259 78.1567 109.277 78.18 109.294 78.2033C109.268 78.1858 109.247 78.1683 109.224 78.1451C109.183 78.1072 109.128 78.0548 109.07 77.9966C109.012 77.9384 108.956 77.8831 108.919 77.8423C108.895 77.8219 108.878 77.7987 108.86 77.7725C108.887 77.7928 108.91 77.8103 108.93 77.8336Z" fill="#E0E0E0"/>
<path d="M106.423 77.8365C106.386 77.8772 106.333 77.9325 106.275 77.9907C106.217 78.0518 106.161 78.1043 106.121 78.1421C106.1 78.1654 106.077 78.1828 106.054 78.2003C106.071 78.1741 106.089 78.1537 106.112 78.1305C106.15 78.0897 106.202 78.0344 106.26 77.9762C106.319 77.918 106.374 77.8626 106.415 77.8248C106.435 77.8015 106.458 77.7841 106.485 77.7666C106.464 77.7957 106.444 77.8161 106.423 77.8365Z" fill="#E0E0E0"/>
<path d="M105.272 86.29C105.06 86.3453 104.839 86.3657 104.617 86.3482C104.399 86.3191 104.178 86.2085 104.079 86.0106C104.021 85.8679 103.994 85.7137 104.003 85.5594C103.992 84.3339 104.026 83.1085 104.111 81.8859C104.16 81.1495 104.227 80.4073 104.434 79.6999C104.641 78.9897 104.993 78.3085 105.537 77.8108C106.084 77.313 106.838 77.0191 107.569 77.1297L105.272 86.29Z" fill="#263238"/>
<path d="M108.142 86.8077C108.246 87.1395 108.398 87.4627 108.648 87.7043C108.896 87.9458 109.254 88.0943 109.594 88.0303C109.967 87.9604 110.261 87.6548 110.412 87.3084C110.566 86.962 110.604 86.5778 110.639 86.1994C110.718 85.3523 110.799 84.5023 110.878 83.6553C110.951 82.8868 111.023 82.1155 110.951 81.3499C110.884 80.6513 110.7 79.9731 110.517 79.2949C110.403 78.8728 110.418 78.2412 110.144 77.9006C109.795 77.4582 109.099 77.2952 108.543 77.3767L108.142 86.8077Z" fill="#263238"/>
<path d="M110.77 85.0222C110.886 84.7923 110.991 84.5536 111.081 84.312C111.221 83.9481 111.323 83.5726 111.381 83.1884C111.416 82.9585 111.431 82.7256 111.419 82.4927C111.419 82.4316 111.41 82.3705 111.407 82.3093C111.405 82.2482 111.393 82.1842 111.387 82.1231C111.367 81.9979 111.343 81.8727 111.311 81.7505C111.183 81.2527 110.985 80.8161 110.819 80.4231C110.668 80.0797 110.537 79.7274 110.432 79.3694C110.258 78.7581 110.304 78.3535 110.258 78.3477C110.24 78.3448 110.202 78.4438 110.182 78.6272C110.159 78.8891 110.176 79.154 110.229 79.4131C110.31 79.7915 110.424 80.1612 110.569 80.5221C110.723 80.9238 110.907 81.3575 111.026 81.8203C111.14 82.254 111.169 82.7081 111.113 83.1535C111.067 83.5232 110.991 83.8899 110.883 84.2479C110.796 84.5565 110.715 84.8068 110.662 84.9815C110.613 85.1561 110.59 85.258 110.61 85.2638C110.63 85.2696 110.686 85.1823 110.77 85.0222Z" fill="#263238"/>
<path d="M105.684 85.6317C105.719 86.5515 106.357 87.3287 107.291 87.3054C108.223 87.2821 108.831 86.5369 108.813 85.6229L108.706 84.2141C108.706 84.2083 108.709 84.2054 108.715 84.2054C108.825 84.2025 108.936 84.1908 109.046 84.1646C109.352 84.0598 110.123 83.6756 110.278 82.4792C110.33 82.0834 110.315 80.9714 110.278 79.8653C110.234 78.6049 109.215 77.5454 107.931 77.5134C106.572 77.4814 105.472 78.5584 105.483 79.8799L105.684 85.6317Z" fill="#FFBE9D"/>
<path d="M108.732 84.5842C107.213 84.7618 106.86 83.7168 106.86 83.7168C107.894 84.2902 108.703 84.2058 108.703 84.2058L108.732 84.5842Z" fill="#EB996E"/>
<path d="M106.786 79.2313C107.336 78.8675 107.884 78.5065 108.434 78.1427C108.6 78.0321 108.783 77.9011 108.812 77.7031C108.85 77.4528 108.62 77.2432 108.387 77.1413C107.694 76.8357 106.868 77.0598 106.242 77.4877C105.712 77.8429 105.305 78.3493 105.078 78.9431C104.871 79.5137 104.865 80.1308 104.862 80.7362C104.853 82.1363 104.848 83.5364 104.839 84.9365C104.836 85.475 104.833 86.0193 104.941 86.5462C105.051 87.0731 105.281 87.5912 105.677 87.9521C105.855 88.1268 106.082 88.2403 106.326 88.281C106.577 88.316 106.824 88.2141 106.978 88.0133C107.115 87.8095 107.103 87.5417 107.037 87.3059C106.97 87.0701 106.859 86.8489 106.804 86.6102C106.71 86.2056 106.798 85.7836 106.839 85.3673C106.94 84.3136 106.751 83.2599 106.641 82.2062C106.53 81.1525 106.516 80.0522 106.938 79.0829L106.786 79.2313Z" fill="#263238"/>
<path d="M106.754 86.398C106.885 86.1389 106.995 85.8682 107.088 85.5917C107.231 85.1783 107.315 84.7446 107.339 84.308C107.368 83.8073 107.272 83.2659 107.138 82.7216C107.004 82.1773 106.85 81.6737 106.774 81.2109C106.701 80.8034 106.69 80.3871 106.742 79.9767C106.78 79.7002 106.864 79.4324 106.986 79.185C107.01 79.1413 107.03 79.1035 107.048 79.0685L107.097 78.9841C107.123 78.9375 107.132 78.9084 107.126 78.9026C107.117 78.8968 107.094 78.9113 107.053 78.9492C107.027 78.9725 107.004 78.9958 106.981 79.019C106.954 79.0511 106.925 79.086 106.893 79.1267C106.722 79.3713 106.599 79.6478 106.541 79.9418C106.457 80.3755 106.445 80.8179 106.512 81.2546C106.579 81.7465 106.724 82.2617 106.858 82.7944C106.992 83.3271 107.085 83.8364 107.074 84.3022C107.062 84.7184 107.001 85.1318 106.893 85.5364C106.803 85.8828 106.713 86.1622 106.652 86.3572C106.591 86.5522 106.564 86.6628 106.582 86.6716C106.596 86.6774 106.66 86.5813 106.754 86.398Z" fill="#263238"/>
<path d="M104.436 79.7986L104.564 79.752C104.62 79.7317 104.689 79.7055 104.768 79.6764C104.847 79.6443 104.937 79.6094 105.036 79.5687C105.234 79.4872 105.464 79.3795 105.717 79.2514C105.967 79.1233 106.241 78.972 106.517 78.8031C106.794 78.6314 107.05 78.4567 107.28 78.2908C107.507 78.122 107.705 77.9648 107.868 77.8251C107.95 77.7581 108.022 77.6912 108.086 77.6359C108.15 77.5806 108.203 77.5311 108.247 77.4874L108.345 77.3914C108.357 77.3797 108.369 77.3681 108.378 77.3564C108.363 77.3652 108.351 77.3768 108.34 77.3855L108.238 77.4758C108.194 77.5165 108.139 77.5631 108.075 77.6184C108.011 77.6737 107.938 77.7378 107.856 77.8047C107.693 77.9415 107.493 78.0987 107.266 78.2646C107.039 78.4305 106.779 78.6052 106.503 78.774C106.226 78.9428 105.956 79.0942 105.705 79.2252C105.455 79.3533 105.225 79.461 105.03 79.5454C104.934 79.589 104.844 79.624 104.765 79.6589C104.687 79.6909 104.62 79.72 104.564 79.7404C104.512 79.7608 104.468 79.7782 104.436 79.7899C104.422 79.7957 104.407 79.8015 104.393 79.8103C104.407 79.8074 104.422 79.8044 104.436 79.7986Z" fill="#455A64"/>
<path d="M104.444 80.016L104.581 79.9928L104.68 79.9753C104.718 79.9666 104.756 79.9578 104.796 79.9491C104.881 79.9287 104.977 79.9083 105.082 79.8763C105.134 79.8618 105.189 79.8472 105.247 79.8298C105.306 79.8123 105.364 79.7919 105.425 79.7715C105.547 79.7337 105.675 79.6813 105.809 79.6289C106.389 79.3931 106.936 79.0788 107.431 78.6945C107.544 78.6043 107.652 78.5199 107.745 78.4326C107.791 78.3889 107.841 78.3511 107.885 78.3103C107.928 78.2696 107.969 78.2288 108.007 78.191C108.086 78.1182 108.152 78.0425 108.214 77.9814C108.243 77.9494 108.272 77.9203 108.295 77.8941L108.362 77.8155L108.452 77.7078C108.464 77.6961 108.473 77.6816 108.481 77.6699C108.47 77.6816 108.458 77.6932 108.446 77.7049L108.353 77.8096L108.286 77.8853L108.202 77.9726C108.141 78.0338 108.074 78.1065 107.995 78.1793L107.87 78.2958C107.826 78.3365 107.78 78.3743 107.73 78.418C107.634 78.5024 107.527 78.5868 107.416 78.6771C106.921 79.0584 106.38 79.3698 105.801 79.6085C105.667 79.6609 105.541 79.7133 105.419 79.7512C105.358 79.7715 105.3 79.7919 105.245 79.8094L105.082 79.8589C104.977 79.8909 104.881 79.9142 104.799 79.9345C104.758 79.9462 104.718 79.9549 104.683 79.9636L104.584 79.984C104.526 79.9957 104.482 80.0073 104.447 80.0131C104.43 80.016 104.415 80.019 104.4 80.0248C104.412 80.0219 104.427 80.019 104.444 80.016Z" fill="#455A64"/>
<path d="M105.703 87.2999L105.694 87.2446C105.685 87.1951 105.671 87.1223 105.656 87.0292C105.613 86.7643 105.584 86.4936 105.569 86.2258C105.549 85.8852 105.546 85.4777 105.557 85.0265C105.572 84.5753 105.598 84.0776 105.624 83.5566C105.674 82.5145 105.718 81.5714 105.75 80.8873C105.764 80.5468 105.776 80.2702 105.784 80.0781C105.787 79.985 105.79 79.9093 105.793 79.8569V79.7987C105.793 79.7929 105.793 79.7871 105.793 79.7783C105.79 79.7841 105.79 79.79 105.79 79.7987L105.787 79.8569L105.773 80.0752C105.761 80.2673 105.747 80.5439 105.729 80.8844C105.694 81.5685 105.648 82.5116 105.595 83.5537C105.572 84.0747 105.543 84.5695 105.531 85.0236C105.52 85.4748 105.525 85.8852 105.549 86.2258C105.566 86.4965 105.598 86.7643 105.645 87.0292C105.659 87.1223 105.677 87.1951 105.688 87.2446L105.7 87.2999C105.7 87.3057 105.703 87.3115 105.706 87.3173C105.706 87.3115 105.703 87.3057 105.703 87.2999Z" fill="#455A64"/>
<path d="M106.232 84.1069C106.229 84.072 106.226 84.0283 106.22 83.973C106.208 83.8537 106.194 83.6848 106.174 83.4753C106.136 83.0561 106.089 82.4768 106.054 81.8336C106.019 81.1903 106.005 80.611 105.999 80.1889C105.996 79.9794 105.993 79.8105 105.993 79.6912C105.993 79.633 105.99 79.5893 105.99 79.5544C105.99 79.5398 105.99 79.5224 105.987 79.5078C105.984 79.5224 105.984 79.5398 105.984 79.5544L105.981 79.6912C105.978 79.8076 105.979 79.9794 105.979 80.1889C105.979 80.611 105.99 81.1932 106.025 81.8365C106.06 82.4798 106.109 83.059 106.153 83.4782C106.173 83.6877 106.194 83.8566 106.208 83.973C106.217 84.0283 106.223 84.0749 106.226 84.1069C106.226 84.1215 106.229 84.1389 106.235 84.1535C106.232 84.1389 106.232 84.1244 106.232 84.1069Z" fill="#455A64"/>
<path d="M109.95 80.827C109.947 80.9347 109.859 81.0191 109.752 81.0191C109.647 81.022 109.56 80.9405 109.557 80.8386V80.8328C109.56 80.7251 109.647 80.6407 109.755 80.6407C109.859 80.6378 109.947 80.7193 109.95 80.8212V80.827Z" fill="#2E353A"/>
<path d="M110.135 80.5315C110.109 80.5548 109.963 80.4384 109.751 80.4325C109.538 80.4209 109.378 80.5228 109.358 80.4966C109.346 80.4849 109.375 80.4384 109.442 80.3918C109.536 80.3307 109.649 80.3015 109.76 80.3074C109.87 80.3103 109.975 80.351 110.062 80.418C110.129 80.4733 110.15 80.5199 110.135 80.5315Z" fill="#2E353A"/>
<path d="M107.873 80.826C107.87 80.9337 107.783 81.0181 107.675 81.0181C107.571 81.021 107.483 80.9395 107.48 80.8377V80.8318C107.483 80.7241 107.571 80.6397 107.678 80.6397C107.783 80.6368 107.87 80.7183 107.873 80.8202V80.826Z" fill="#2E353A"/>
<path d="M108.082 80.5315C108.055 80.5577 107.91 80.4384 107.697 80.4325C107.485 80.4209 107.325 80.5228 107.304 80.4966C107.293 80.4849 107.319 80.4384 107.392 80.3918C107.488 80.3307 107.598 80.3015 107.709 80.3074C107.82 80.3103 107.924 80.351 108.012 80.418C108.076 80.4733 108.096 80.5199 108.082 80.5315Z" fill="#2E353A"/>
<path d="M108.758 82.1946C108.871 82.1655 108.988 82.148 109.104 82.1451C109.16 82.1422 109.209 82.1335 109.221 82.0956C109.227 82.0403 109.218 81.9821 109.192 81.9326L109.049 81.5135C108.851 80.9168 108.708 80.4248 108.735 80.419C108.761 80.4132 108.938 80.8876 109.136 81.4873C109.183 81.6328 109.229 81.7754 109.273 81.9093C109.305 81.9763 109.311 82.052 109.293 82.1247C109.276 82.1626 109.241 82.1917 109.2 82.2004C109.171 82.2062 109.139 82.2092 109.107 82.2092C108.991 82.2179 108.874 82.215 108.758 82.1946Z" fill="#2E353A"/>
<path d="M108.13 82.3165C108.165 82.3165 108.156 82.5465 108.345 82.7182C108.534 82.8899 108.782 82.8754 108.782 82.9074C108.785 82.922 108.727 82.9511 108.622 82.9482C108.488 82.9452 108.357 82.8929 108.255 82.8026C108.159 82.7153 108.098 82.596 108.089 82.465C108.086 82.3689 108.112 82.3136 108.13 82.3165Z" fill="#2E353A"/>
<path d="M108.091 79.668C108.067 79.7263 107.858 79.6884 107.604 79.7088C107.354 79.7234 107.15 79.7874 107.118 79.735C107.104 79.7088 107.142 79.6564 107.226 79.604C107.45 79.473 107.724 79.4556 107.965 79.5545C108.056 79.5953 108.099 79.6419 108.091 79.668Z" fill="#2E353A"/>
<path d="M110.097 79.8201C110.059 79.8667 109.914 79.8114 109.736 79.7998C109.561 79.7852 109.41 79.8201 109.378 79.7678C109.363 79.7416 109.39 79.695 109.457 79.6513C109.64 79.5465 109.867 79.564 110.036 79.6921C110.097 79.7474 110.114 79.7969 110.097 79.8201Z" fill="#2E353A"/>
<path d="M119.703 137.42H92.7043C90.1054 137.42 88 135.312 88 132.713V132.707C88 130.108 90.1084 128 92.7073 128H119.706C122.305 128 124.413 130.108 124.413 132.707V132.713C124.413 135.312 122.305 137.417 119.703 137.42Z" fill="#6654A4"/>
<path d="M97.9601 134.026C97.8061 134.026 97.6601 134.006 97.5221 133.966C97.3861 133.924 97.2751 133.868 97.1891 133.798C97.1431 133.764 97.1201 133.716 97.1201 133.654C97.1201 133.612 97.1321 133.576 97.1561 133.546C97.1821 133.514 97.2121 133.498 97.2461 133.498C97.2821 133.498 97.3231 133.512 97.3691 133.54C97.4551 133.602 97.5451 133.647 97.6391 133.675C97.7331 133.703 97.8371 133.717 97.9511 133.717C98.0971 133.717 98.2091 133.692 98.2871 133.642C98.3651 133.59 98.4041 133.515 98.4041 133.417C98.4041 133.341 98.3671 133.283 98.2931 133.243C98.2211 133.201 98.1001 133.161 97.9301 133.123C97.7541 133.085 97.6111 133.041 97.5011 132.991C97.3911 132.941 97.3081 132.877 97.2521 132.799C97.1961 132.721 97.1681 132.622 97.1681 132.502C97.1681 132.378 97.2031 132.267 97.2731 132.169C97.3431 132.071 97.4401 131.995 97.5641 131.941C97.6901 131.885 97.8311 131.857 97.9871 131.857C98.2731 131.857 98.5061 131.933 98.6861 132.085C98.7121 132.107 98.7301 132.129 98.7401 132.151C98.7521 132.171 98.7581 132.197 98.7581 132.229C98.7581 132.271 98.7451 132.308 98.7191 132.34C98.6951 132.37 98.6661 132.385 98.6321 132.385C98.6121 132.385 98.5931 132.382 98.5751 132.376C98.5591 132.37 98.5371 132.359 98.5091 132.343C98.4271 132.283 98.3471 132.239 98.2691 132.211C98.1931 132.181 98.0991 132.166 97.9871 132.166C97.8511 132.166 97.7431 132.194 97.6631 132.25C97.5851 132.304 97.5461 132.38 97.5461 132.478C97.5461 132.56 97.5811 132.623 97.6511 132.667C97.7211 132.711 97.8401 132.752 98.0081 132.79C98.1861 132.83 98.3301 132.875 98.4401 132.925C98.5521 132.973 98.6371 133.035 98.6951 133.111C98.7551 133.187 98.7851 133.282 98.7851 133.396C98.7851 133.52 98.7501 133.63 98.6801 133.726C98.6121 133.82 98.5151 133.894 98.3891 133.948C98.2651 134 98.1221 134.026 97.9601 134.026Z" fill="white"/>
<path d="M100.269 133.597C100.303 133.597 100.33 133.61 100.35 133.636C100.372 133.662 100.383 133.697 100.383 133.741C100.383 133.803 100.346 133.855 100.272 133.897C100.204 133.935 100.127 133.966 100.041 133.99C99.9552 134.012 99.8732 134.023 99.7952 134.023C99.5592 134.023 99.3722 133.955 99.2342 133.819C99.0962 133.683 99.0272 133.497 99.0272 133.261C99.0272 133.111 99.0572 132.978 99.1172 132.862C99.1772 132.746 99.2612 132.656 99.3692 132.592C99.4792 132.528 99.6032 132.496 99.7412 132.496C99.8732 132.496 99.9882 132.525 100.086 132.583C100.184 132.641 100.26 132.723 100.314 132.829C100.368 132.935 100.395 133.06 100.395 133.204C100.395 133.29 100.357 133.333 100.281 133.333H99.3962C99.4082 133.471 99.4472 133.573 99.5132 133.639C99.5792 133.703 99.6752 133.735 99.8012 133.735C99.8652 133.735 99.9212 133.727 99.9692 133.711C100.019 133.695 100.075 133.673 100.137 133.645C100.197 133.613 100.241 133.597 100.269 133.597ZM99.7502 132.76C99.6482 132.76 99.5662 132.792 99.5042 132.856C99.4442 132.92 99.4082 133.012 99.3962 133.132H100.074C100.07 133.01 100.04 132.918 99.9842 132.856C99.9282 132.792 99.8502 132.76 99.7502 132.76Z" fill="white"/>
<path d="M101.554 132.496C101.73 132.496 101.861 132.546 101.947 132.646C102.033 132.746 102.076 132.897 102.076 133.099V133.837C102.076 133.893 102.059 133.937 102.025 133.969C101.993 134.001 101.948 134.017 101.89 134.017C101.832 134.017 101.786 134.001 101.752 133.969C101.718 133.937 101.701 133.893 101.701 133.837V133.12C101.701 133.006 101.679 132.923 101.635 132.871C101.593 132.819 101.526 132.793 101.434 132.793C101.326 132.793 101.239 132.827 101.173 132.895C101.109 132.963 101.077 133.054 101.077 133.168V133.837C101.077 133.893 101.06 133.937 101.026 133.969C100.992 134.001 100.946 134.017 100.888 134.017C100.83 134.017 100.784 134.001 100.75 133.969C100.718 133.937 100.702 133.893 100.702 133.837V132.676C100.702 132.624 100.719 132.582 100.753 132.55C100.787 132.518 100.833 132.502 100.891 132.502C100.943 132.502 100.985 132.518 101.017 132.55C101.051 132.58 101.068 132.62 101.068 132.67V132.751C101.118 132.669 101.185 132.606 101.269 132.562C101.353 132.518 101.448 132.496 101.554 132.496Z" fill="white"/>
<path d="M103.681 131.869C103.737 131.869 103.783 131.885 103.819 131.917C103.855 131.949 103.873 131.991 103.873 132.043V133.837C103.873 133.891 103.856 133.934 103.822 133.966C103.788 133.998 103.743 134.014 103.687 134.014C103.631 134.014 103.586 133.998 103.552 133.966C103.518 133.934 103.501 133.891 103.501 133.837V133.762C103.457 133.844 103.393 133.908 103.309 133.954C103.227 134 103.133 134.023 103.027 134.023C102.901 134.023 102.788 133.991 102.688 133.927C102.59 133.863 102.513 133.773 102.457 133.657C102.403 133.539 102.376 133.404 102.376 133.252C102.376 133.1 102.403 132.967 102.457 132.853C102.513 132.739 102.59 132.651 102.688 132.589C102.786 132.527 102.899 132.496 103.027 132.496C103.133 132.496 103.227 132.518 103.309 132.562C103.391 132.606 103.454 132.668 103.498 132.748V132.037C103.498 131.987 103.514 131.947 103.546 131.917C103.58 131.885 103.625 131.869 103.681 131.869ZM103.126 133.732C103.246 133.732 103.338 133.691 103.402 133.609C103.468 133.527 103.501 133.41 103.501 133.258C103.501 133.106 103.468 132.99 103.402 132.91C103.338 132.828 103.247 132.787 103.129 132.787C103.009 132.787 102.916 132.827 102.85 132.907C102.784 132.987 102.751 133.102 102.751 133.252C102.751 133.404 102.784 133.522 102.85 133.606C102.916 133.69 103.008 133.732 103.126 133.732Z" fill="white"/>
<path d="M106.984 131.869C107.04 131.869 107.085 131.887 107.119 131.923C107.153 131.957 107.17 132.003 107.17 132.061V133.837C107.17 133.893 107.154 133.937 107.122 133.969C107.09 134.001 107.048 134.017 106.996 134.017C106.944 134.017 106.903 134.001 106.873 133.969C106.843 133.937 106.828 133.893 106.828 133.837V132.601L106.318 133.567C106.294 133.611 106.268 133.644 106.24 133.666C106.212 133.686 106.179 133.696 106.141 133.696C106.103 133.696 106.07 133.686 106.042 133.666C106.014 133.646 105.988 133.613 105.964 133.567L105.451 132.616V133.837C105.451 133.891 105.435 133.935 105.403 133.969C105.373 134.001 105.332 134.017 105.28 134.017C105.228 134.017 105.187 134.001 105.157 133.969C105.127 133.937 105.112 133.893 105.112 133.837V132.061C105.112 132.003 105.128 131.957 105.16 131.923C105.194 131.887 105.239 131.869 105.295 131.869C105.373 131.869 105.434 131.912 105.478 131.998L106.144 133.267L106.807 131.998C106.851 131.912 106.91 131.869 106.984 131.869Z" fill="white"/>
<path d="M108.265 134.023C108.115 134.023 107.983 133.992 107.869 133.93C107.757 133.868 107.67 133.779 107.608 133.663C107.546 133.547 107.515 133.412 107.515 133.258C107.515 133.104 107.546 132.97 107.608 132.856C107.67 132.74 107.757 132.651 107.869 132.589C107.983 132.527 108.115 132.496 108.265 132.496C108.415 132.496 108.546 132.527 108.658 132.589C108.772 132.651 108.859 132.74 108.919 132.856C108.981 132.97 109.012 133.104 109.012 133.258C109.012 133.412 108.981 133.547 108.919 133.663C108.859 133.779 108.772 133.868 108.658 133.93C108.546 133.992 108.415 134.023 108.265 134.023ZM108.262 133.732C108.384 133.732 108.477 133.692 108.541 133.612C108.605 133.532 108.637 133.414 108.637 133.258C108.637 133.104 108.605 132.987 108.541 132.907C108.477 132.825 108.385 132.784 108.265 132.784C108.145 132.784 108.052 132.825 107.986 132.907C107.922 132.987 107.89 133.104 107.89 133.258C107.89 133.414 107.922 133.532 107.986 133.612C108.05 133.692 108.142 133.732 108.262 133.732Z" fill="white"/>
<path d="M110.173 132.496C110.349 132.496 110.48 132.546 110.566 132.646C110.652 132.746 110.695 132.897 110.695 133.099V133.837C110.695 133.893 110.678 133.937 110.644 133.969C110.612 134.001 110.567 134.017 110.509 134.017C110.451 134.017 110.405 134.001 110.371 133.969C110.337 133.937 110.32 133.893 110.32 133.837V133.12C110.32 133.006 110.298 132.923 110.254 132.871C110.212 132.819 110.145 132.793 110.053 132.793C109.945 132.793 109.858 132.827 109.792 132.895C109.728 132.963 109.696 133.054 109.696 133.168V133.837C109.696 133.893 109.679 133.937 109.645 133.969C109.611 134.001 109.565 134.017 109.507 134.017C109.449 134.017 109.403 134.001 109.369 133.969C109.337 133.937 109.321 133.893 109.321 133.837V132.676C109.321 132.624 109.338 132.582 109.372 132.55C109.406 132.518 109.452 132.502 109.51 132.502C109.562 132.502 109.604 132.518 109.636 132.55C109.67 132.58 109.687 132.62 109.687 132.67V132.751C109.737 132.669 109.804 132.606 109.888 132.562C109.972 132.518 110.067 132.496 110.173 132.496Z" fill="white"/>
<path d="M112.237 133.597C112.271 133.597 112.298 133.61 112.318 133.636C112.34 133.662 112.351 133.697 112.351 133.741C112.351 133.803 112.314 133.855 112.24 133.897C112.172 133.935 112.095 133.966 112.009 133.99C111.923 134.012 111.841 134.023 111.763 134.023C111.527 134.023 111.34 133.955 111.202 133.819C111.064 133.683 110.995 133.497 110.995 133.261C110.995 133.111 111.025 132.978 111.085 132.862C111.145 132.746 111.229 132.656 111.337 132.592C111.447 132.528 111.571 132.496 111.709 132.496C111.841 132.496 111.956 132.525 112.054 132.583C112.152 132.641 112.228 132.723 112.282 132.829C112.336 132.935 112.363 133.06 112.363 133.204C112.363 133.29 112.325 133.333 112.249 133.333H111.364C111.376 133.471 111.415 133.573 111.481 133.639C111.547 133.703 111.643 133.735 111.769 133.735C111.833 133.735 111.889 133.727 111.937 133.711C111.987 133.695 112.043 133.673 112.105 133.645C112.165 133.613 112.209 133.597 112.237 133.597ZM111.718 132.76C111.616 132.76 111.534 132.792 111.472 132.856C111.412 132.92 111.376 133.012 111.364 133.132H112.042C112.038 133.01 112.008 132.918 111.952 132.856C111.896 132.792 111.818 132.76 111.718 132.76Z" fill="white"/>
<path d="M113.669 132.61C113.685 132.574 113.706 132.548 113.732 132.532C113.76 132.514 113.79 132.505 113.822 132.505C113.868 132.505 113.909 132.521 113.945 132.553C113.983 132.583 114.002 132.621 114.002 132.667C114.002 132.689 113.996 132.712 113.984 132.736L113.165 134.452C113.131 134.52 113.078 134.554 113.006 134.554C112.96 134.554 112.919 134.539 112.883 134.509C112.849 134.481 112.832 134.445 112.832 134.401C112.832 134.379 112.838 134.354 112.85 134.326L113.054 133.897L112.496 132.736C112.486 132.716 112.481 132.693 112.481 132.667C112.481 132.621 112.5 132.582 112.538 132.55C112.578 132.518 112.623 132.502 112.673 132.502C112.707 132.502 112.738 132.511 112.766 132.529C112.794 132.545 112.816 132.571 112.832 132.607L113.252 133.534L113.669 132.61Z" fill="white"/>
</svg>
