<svg width="595" height="113" viewBox="0 0 595 113" fill="none" xmlns="http://www.w3.org/2000/svg">
<g filter="url(#filter0_d)">
<rect x="19" y="16" width="556.56" height="75" rx="24" fill="white"/>
</g>
<path d="M84.3875 52.9297C83.101 52.5599 82.1635 52.1068 81.575 51.5703C80.9916 51.0286 80.7 50.362 80.7 49.5703C80.7 48.6745 81.0567 47.9349 81.7703 47.3516C82.489 46.763 83.4213 46.4688 84.5671 46.4688C85.3484 46.4688 86.0437 46.6198 86.6531 46.9219C87.2677 47.224 87.7416 47.6406 88.075 48.1719C88.4135 48.7031 88.5828 49.2839 88.5828 49.9141H87.075C87.075 49.2266 86.8562 48.6875 86.4187 48.2969C85.9812 47.901 85.364 47.7031 84.5671 47.7031C83.8276 47.7031 83.2494 47.8672 82.8328 48.1953C82.4213 48.5182 82.2156 48.9688 82.2156 49.5469C82.2156 50.0104 82.4109 50.4036 82.8015 50.7266C83.1973 51.0443 83.8666 51.3359 84.8093 51.6016C85.7572 51.8672 86.4968 52.1615 87.0281 52.4844C87.5645 52.8021 87.9604 53.1745 88.2156 53.6016C88.476 54.0286 88.6062 54.5312 88.6062 55.1094C88.6062 56.0312 88.2468 56.7708 87.5281 57.3281C86.8093 57.8802 85.8484 58.1562 84.6453 58.1562C83.864 58.1562 83.1348 58.0078 82.4578 57.7109C81.7807 57.4089 81.2572 56.9974 80.8875 56.4766C80.5229 55.9557 80.3406 55.3646 80.3406 54.7031H81.8484C81.8484 55.3906 82.101 55.9349 82.6062 56.3359C83.1166 56.7318 83.7963 56.9297 84.6453 56.9297C85.4369 56.9297 86.0437 56.7682 86.4656 56.4453C86.8875 56.1224 87.0984 55.6823 87.0984 55.125C87.0984 54.5677 86.9031 54.138 86.5125 53.8359C86.1218 53.5286 85.4135 53.2266 84.3875 52.9297ZM91.7546 50.5703C92.3953 49.7839 93.2286 49.3906 94.2546 49.3906C96.0411 49.3906 96.9421 50.3984 96.9578 52.4141V58H95.5125V52.4062C95.5072 51.7969 95.3666 51.3464 95.0906 51.0547C94.8197 50.763 94.3953 50.6172 93.8171 50.6172C93.3484 50.6172 92.9369 50.7422 92.5828 50.9922C92.2286 51.2422 91.9526 51.5703 91.7546 51.9766V58H90.3093V46H91.7546V50.5703ZM104.341 58C104.257 57.8333 104.19 57.5365 104.137 57.1094C103.466 57.8073 102.663 58.1562 101.731 58.1562C100.898 58.1562 100.213 57.9219 99.6765 57.4531C99.1453 56.9792 98.8796 56.3802 98.8796 55.6562C98.8796 54.776 99.213 54.0938 99.8796 53.6094C100.552 53.1198 101.494 52.875 102.708 52.875H104.114V52.2109C104.114 51.7057 103.963 51.3047 103.661 51.0078C103.359 50.7057 102.913 50.5547 102.325 50.5547C101.809 50.5547 101.377 50.6849 101.028 50.9453C100.679 51.2057 100.505 51.5208 100.505 51.8906H99.0515C99.0515 51.4688 99.2 51.0625 99.4968 50.6719C99.7989 50.276 100.205 49.9635 100.716 49.7344C101.231 49.5052 101.796 49.3906 102.411 49.3906C103.385 49.3906 104.148 49.6354 104.7 50.125C105.252 50.6094 105.538 51.2786 105.559 52.1328V56.0234C105.559 56.7995 105.658 57.4167 105.856 57.875V58H104.341ZM101.942 56.8984C102.395 56.8984 102.825 56.7812 103.231 56.5469C103.637 56.3125 103.932 56.0078 104.114 55.6328V53.8984H102.981C101.21 53.8984 100.325 54.4167 100.325 55.4531C100.325 55.9062 100.476 56.2604 100.778 56.5156C101.08 56.7708 101.468 56.8984 101.942 56.8984ZM110.184 54.0859L109.278 55.0312V58H107.833V46H109.278V53.2578L110.052 52.3281L112.684 49.5469H114.442L111.153 53.0781L114.825 58H113.13L110.184 54.0859ZM119.286 58.1562C118.14 58.1562 117.208 57.7812 116.489 57.0312C115.77 56.276 115.411 55.2682 115.411 54.0078V53.7422C115.411 52.9036 115.57 52.1562 115.887 51.5C116.21 50.8385 116.658 50.3229 117.231 49.9531C117.809 49.5781 118.434 49.3906 119.106 49.3906C120.205 49.3906 121.059 49.7526 121.669 50.4766C122.278 51.2005 122.583 52.237 122.583 53.5859V54.1875H116.856C116.877 55.0208 117.119 55.6953 117.583 56.2109C118.052 56.7214 118.645 56.9766 119.364 56.9766C119.874 56.9766 120.307 56.8724 120.661 56.6641C121.015 56.4557 121.325 56.1797 121.591 55.8359L122.473 56.5234C121.765 57.612 120.703 58.1562 119.286 58.1562ZM119.106 50.5781C118.523 50.5781 118.033 50.7917 117.637 51.2188C117.242 51.6406 116.997 52.2344 116.903 53H121.137V52.8906C121.096 52.1562 120.898 51.5885 120.544 51.1875C120.19 50.7812 119.71 50.5781 119.106 50.5781ZM130.997 55.8828L132.966 49.5469H134.512L131.114 59.3047C130.588 60.7109 129.752 61.4141 128.606 61.4141L128.333 61.3906L127.794 61.2891V60.1172L128.184 60.1484C128.674 60.1484 129.054 60.0495 129.325 59.8516C129.601 59.6536 129.828 59.2917 130.005 58.7656L130.325 57.9062L127.309 49.5469H128.887L130.997 55.8828ZM135.302 53.6953C135.302 52.8672 135.463 52.1224 135.786 51.4609C136.114 50.7995 136.567 50.2891 137.145 49.9297C137.729 49.5703 138.393 49.3906 139.137 49.3906C140.288 49.3906 141.218 49.7891 141.927 50.5859C142.64 51.3828 142.997 52.4427 142.997 53.7656V53.8672C142.997 54.6901 142.838 55.4297 142.52 56.0859C142.208 56.737 141.757 57.2448 141.169 57.6094C140.585 57.974 139.913 58.1562 139.153 58.1562C138.007 58.1562 137.078 57.7578 136.364 56.9609C135.656 56.1641 135.302 55.1094 135.302 53.7969V53.6953ZM136.755 53.8672C136.755 54.8047 136.971 55.5573 137.403 56.125C137.841 56.6927 138.424 56.9766 139.153 56.9766C139.887 56.9766 140.471 56.6901 140.903 56.1172C141.335 55.5391 141.552 54.7318 141.552 53.6953C141.552 52.7682 141.33 52.0182 140.887 51.4453C140.45 50.8672 139.867 50.5781 139.137 50.5781C138.424 50.5781 137.848 50.862 137.411 51.4297C136.973 51.9974 136.755 52.8099 136.755 53.8672ZM150.028 57.1641C149.466 57.8255 148.64 58.1562 147.552 58.1562C146.65 58.1562 145.963 57.8958 145.489 57.375C145.02 56.849 144.783 56.0729 144.778 55.0469V49.5469H146.223V55.0078C146.223 56.2891 146.744 56.9297 147.786 56.9297C148.89 56.9297 149.624 56.5182 149.989 55.6953V49.5469H151.434V58H150.059L150.028 57.1641ZM157.723 50.8438C157.505 50.8073 157.268 50.7891 157.012 50.7891C156.065 50.7891 155.421 51.1927 155.083 52V58H153.637V49.5469H155.044L155.067 50.5234C155.541 49.7682 156.213 49.3906 157.083 49.3906C157.364 49.3906 157.578 49.4271 157.723 49.5V50.8438ZM164.387 49.5469L164.427 50.4844C165.046 49.7552 165.882 49.3906 166.934 49.3906C168.117 49.3906 168.921 49.8438 169.348 50.75C169.63 50.3438 169.994 50.0156 170.442 49.7656C170.895 49.5156 171.429 49.3906 172.044 49.3906C173.898 49.3906 174.841 50.3724 174.872 52.3359V58H173.427V52.4219C173.427 51.8177 173.288 51.3672 173.012 51.0703C172.736 50.7682 172.273 50.6172 171.622 50.6172C171.085 50.6172 170.64 50.7786 170.286 51.1016C169.932 51.4193 169.726 51.849 169.669 52.3906V58H168.216V52.4609C168.216 51.2318 167.614 50.6172 166.411 50.6172C165.463 50.6172 164.815 51.0208 164.466 51.8281V58H163.02V49.5469H164.387ZM176.677 53.6953C176.677 52.8672 176.838 52.1224 177.161 51.4609C177.489 50.7995 177.942 50.2891 178.52 49.9297C179.104 49.5703 179.768 49.3906 180.512 49.3906C181.663 49.3906 182.593 49.7891 183.302 50.5859C184.015 51.3828 184.372 52.4427 184.372 53.7656V53.8672C184.372 54.6901 184.213 55.4297 183.895 56.0859C183.583 56.737 183.132 57.2448 182.544 57.6094C181.96 57.974 181.288 58.1562 180.528 58.1562C179.382 58.1562 178.453 57.7578 177.739 56.9609C177.031 56.1641 176.677 55.1094 176.677 53.7969V53.6953ZM178.13 53.8672C178.13 54.8047 178.346 55.5573 178.778 56.125C179.216 56.6927 179.799 56.9766 180.528 56.9766C181.262 56.9766 181.846 56.6901 182.278 56.1172C182.71 55.5391 182.927 54.7318 182.927 53.6953C182.927 52.7682 182.705 52.0182 182.262 51.4453C181.825 50.8672 181.242 50.5781 180.512 50.5781C179.799 50.5781 179.223 50.862 178.786 51.4297C178.348 51.9974 178.13 52.8099 178.13 53.8672ZM193.341 53.8672C193.341 55.1589 193.044 56.1979 192.45 56.9844C191.856 57.7656 191.059 58.1562 190.059 58.1562C188.992 58.1562 188.166 57.7786 187.583 57.0234L187.512 58H186.184V46H187.63V50.4766C188.213 49.7526 189.018 49.3906 190.044 49.3906C191.07 49.3906 191.874 49.7786 192.458 50.5547C193.046 51.3307 193.341 52.3932 193.341 53.7422V53.8672ZM191.895 53.7031C191.895 52.7188 191.705 51.9583 191.325 51.4219C190.945 50.8854 190.398 50.6172 189.684 50.6172C188.731 50.6172 188.046 51.0599 187.63 51.9453V55.6016C188.072 56.487 188.762 56.9297 189.7 56.9297C190.393 56.9297 190.932 56.6615 191.317 56.125C191.703 55.5885 191.895 54.7812 191.895 53.7031ZM196.739 58H195.294V49.5469H196.739V58ZM195.177 47.3047C195.177 47.0703 195.247 46.8724 195.387 46.7109C195.533 46.5495 195.747 46.4688 196.028 46.4688C196.309 46.4688 196.523 46.5495 196.669 46.7109C196.815 46.8724 196.887 47.0703 196.887 47.3047C196.887 47.5391 196.815 47.7344 196.669 47.8906C196.523 48.0469 196.309 48.125 196.028 48.125C195.747 48.125 195.533 48.0469 195.387 47.8906C195.247 47.7344 195.177 47.5391 195.177 47.3047ZM200.63 58H199.184V46H200.63V58ZM206.458 58.1562C205.312 58.1562 204.38 57.7812 203.661 57.0312C202.942 56.276 202.583 55.2682 202.583 54.0078V53.7422C202.583 52.9036 202.742 52.1562 203.059 51.5C203.382 50.8385 203.83 50.3229 204.403 49.9531C204.981 49.5781 205.606 49.3906 206.278 49.3906C207.377 49.3906 208.231 49.7526 208.841 50.4766C209.45 51.2005 209.755 52.237 209.755 53.5859V54.1875H204.028C204.049 55.0208 204.291 55.6953 204.755 56.2109C205.223 56.7214 205.817 56.9766 206.536 56.9766C207.046 56.9766 207.479 56.8724 207.833 56.6641C208.187 56.4557 208.497 56.1797 208.762 55.8359L209.645 56.5234C208.937 57.612 207.874 58.1562 206.458 58.1562ZM206.278 50.5781C205.695 50.5781 205.205 50.7917 204.809 51.2188C204.413 51.6406 204.169 52.2344 204.075 53H208.309V52.8906C208.268 52.1562 208.07 51.5885 207.716 51.1875C207.361 50.7812 206.882 50.5781 206.278 50.5781ZM220.622 58C220.538 57.8333 220.471 57.5365 220.419 57.1094C219.747 57.8073 218.945 58.1562 218.012 58.1562C217.179 58.1562 216.494 57.9219 215.958 57.4531C215.427 56.9792 215.161 56.3802 215.161 55.6562C215.161 54.776 215.494 54.0938 216.161 53.6094C216.833 53.1198 217.775 52.875 218.989 52.875H220.395V52.2109C220.395 51.7057 220.244 51.3047 219.942 51.0078C219.64 50.7057 219.195 50.5547 218.606 50.5547C218.091 50.5547 217.658 50.6849 217.309 50.9453C216.96 51.2057 216.786 51.5208 216.786 51.8906H215.333C215.333 51.4688 215.481 51.0625 215.778 50.6719C216.08 50.276 216.486 49.9635 216.997 49.7344C217.512 49.5052 218.078 49.3906 218.692 49.3906C219.666 49.3906 220.429 49.6354 220.981 50.125C221.533 50.6094 221.82 51.2786 221.841 52.1328V56.0234C221.841 56.7995 221.94 57.4167 222.137 57.875V58H220.622ZM218.223 56.8984C218.677 56.8984 219.106 56.7812 219.512 56.5469C219.919 56.3125 220.213 56.0078 220.395 55.6328V53.8984H219.262C217.492 53.8984 216.606 54.4167 216.606 55.4531C216.606 55.9062 216.757 56.2604 217.059 56.5156C217.361 56.7708 217.749 56.8984 218.223 56.8984ZM225.473 49.5469L225.52 50.6094C226.166 49.7969 227.01 49.3906 228.052 49.3906C229.838 49.3906 230.739 50.3984 230.755 52.4141V58H229.309V52.4062C229.304 51.7969 229.163 51.3464 228.887 51.0547C228.617 50.763 228.192 50.6172 227.614 50.6172C227.145 50.6172 226.734 50.7422 226.38 50.9922C226.025 51.2422 225.749 51.5703 225.552 51.9766V58H224.106V49.5469H225.473ZM232.583 53.7031C232.583 52.4062 232.89 51.3646 233.505 50.5781C234.119 49.7865 234.924 49.3906 235.919 49.3906C236.908 49.3906 237.692 49.7292 238.27 50.4062V46H239.716V58H238.387L238.317 57.0938C237.739 57.8021 236.934 58.1562 235.903 58.1562C234.924 58.1562 234.124 57.7552 233.505 56.9531C232.89 56.151 232.583 55.1042 232.583 53.8125V53.7031ZM234.028 53.8672C234.028 54.8255 234.226 55.5755 234.622 56.1172C235.018 56.6589 235.565 56.9297 236.262 56.9297C237.179 56.9297 237.848 56.5182 238.27 55.6953V51.8125C237.838 51.0156 237.174 50.6172 236.278 50.6172C235.57 50.6172 235.018 50.8906 234.622 51.4375C234.226 51.9844 234.028 52.7943 234.028 53.8672ZM249.325 56.9766C249.841 56.9766 250.291 56.8203 250.677 56.5078C251.062 56.1953 251.275 55.8047 251.317 55.3359H252.684C252.658 55.8203 252.492 56.2812 252.184 56.7188C251.877 57.1562 251.466 57.5052 250.95 57.7656C250.44 58.026 249.898 58.1562 249.325 58.1562C248.174 58.1562 247.257 57.7734 246.575 57.0078C245.898 56.237 245.559 55.1849 245.559 53.8516V53.6094C245.559 52.7865 245.71 52.0547 246.012 51.4141C246.315 50.7734 246.747 50.276 247.309 49.9219C247.877 49.5677 248.546 49.3906 249.317 49.3906C250.265 49.3906 251.052 49.6745 251.677 50.2422C252.307 50.8099 252.643 51.5469 252.684 52.4531H251.317C251.275 51.9062 251.067 51.4583 250.692 51.1094C250.322 50.7552 249.864 50.5781 249.317 50.5781C248.583 50.5781 248.012 50.8438 247.606 51.375C247.205 51.901 247.005 52.6641 247.005 53.6641V53.9375C247.005 54.9115 247.205 55.6615 247.606 56.1875C248.007 56.7135 248.58 56.9766 249.325 56.9766ZM255.755 50.5703C256.395 49.7839 257.229 49.3906 258.255 49.3906C260.041 49.3906 260.942 50.3984 260.958 52.4141V58H259.512V52.4062C259.507 51.7969 259.367 51.3464 259.091 51.0547C258.82 50.763 258.395 50.6172 257.817 50.6172C257.348 50.6172 256.937 50.7422 256.583 50.9922C256.229 51.2422 255.953 51.5703 255.755 51.9766V58H254.309V46H255.755V50.5703ZM262.739 53.6953C262.739 52.8672 262.9 52.1224 263.223 51.4609C263.552 50.7995 264.005 50.2891 264.583 49.9297C265.166 49.5703 265.83 49.3906 266.575 49.3906C267.726 49.3906 268.656 49.7891 269.364 50.5859C270.078 51.3828 270.434 52.4427 270.434 53.7656V53.8672C270.434 54.6901 270.275 55.4297 269.958 56.0859C269.645 56.737 269.195 57.2448 268.606 57.6094C268.023 57.974 267.351 58.1562 266.591 58.1562C265.445 58.1562 264.515 57.7578 263.802 56.9609C263.093 56.1641 262.739 55.1094 262.739 53.7969V53.6953ZM264.192 53.8672C264.192 54.8047 264.408 55.5573 264.841 56.125C265.278 56.6927 265.861 56.9766 266.591 56.9766C267.325 56.9766 267.908 56.6901 268.341 56.1172C268.773 55.5391 268.989 54.7318 268.989 53.6953C268.989 52.7682 268.768 52.0182 268.325 51.4453C267.887 50.8672 267.304 50.5781 266.575 50.5781C265.861 50.5781 265.286 50.862 264.848 51.4297C264.411 51.9974 264.192 52.8099 264.192 53.8672ZM271.864 53.6953C271.864 52.8672 272.025 52.1224 272.348 51.4609C272.677 50.7995 273.13 50.2891 273.708 49.9297C274.291 49.5703 274.955 49.3906 275.7 49.3906C276.851 49.3906 277.781 49.7891 278.489 50.5859C279.203 51.3828 279.559 52.4427 279.559 53.7656V53.8672C279.559 54.6901 279.4 55.4297 279.083 56.0859C278.77 56.737 278.32 57.2448 277.731 57.6094C277.148 57.974 276.476 58.1562 275.716 58.1562C274.57 58.1562 273.64 57.7578 272.927 56.9609C272.218 56.1641 271.864 55.1094 271.864 53.7969V53.6953ZM273.317 53.8672C273.317 54.8047 273.533 55.5573 273.966 56.125C274.403 56.6927 274.986 56.9766 275.716 56.9766C276.45 56.9766 277.033 56.6901 277.466 56.1172C277.898 55.5391 278.114 54.7318 278.114 53.6953C278.114 52.7682 277.893 52.0182 277.45 51.4453C277.012 50.8672 276.429 50.5781 275.7 50.5781C274.986 50.5781 274.411 50.862 273.973 51.4297C273.536 51.9974 273.317 52.8099 273.317 53.8672ZM286.294 55.7578C286.294 55.3672 286.145 55.0651 285.848 54.8516C285.557 54.6328 285.044 54.4453 284.309 54.2891C283.58 54.1328 282.999 53.9453 282.567 53.7266C282.14 53.5078 281.822 53.2474 281.614 52.9453C281.411 52.6432 281.309 52.2839 281.309 51.8672C281.309 51.1745 281.601 50.5885 282.184 50.1094C282.773 49.6302 283.523 49.3906 284.434 49.3906C285.393 49.3906 286.169 49.638 286.762 50.1328C287.361 50.6276 287.661 51.2604 287.661 52.0312H286.208C286.208 51.6354 286.038 51.2943 285.7 51.0078C285.367 50.7214 284.945 50.5781 284.434 50.5781C283.908 50.5781 283.497 50.6927 283.2 50.9219C282.903 51.151 282.755 51.4505 282.755 51.8203C282.755 52.1693 282.893 52.4323 283.169 52.6094C283.445 52.7865 283.942 52.9557 284.661 53.1172C285.385 53.2786 285.971 53.4714 286.419 53.6953C286.867 53.9193 287.197 54.1901 287.411 54.5078C287.63 54.8203 287.739 55.2031 287.739 55.6562C287.739 56.4115 287.437 57.0182 286.833 57.4766C286.229 57.9297 285.445 58.1562 284.481 58.1562C283.804 58.1562 283.205 58.0365 282.684 57.7969C282.163 57.5573 281.755 57.224 281.458 56.7969C281.166 56.3646 281.02 55.8984 281.02 55.3984H282.466C282.492 55.8828 282.684 56.2682 283.044 56.5547C283.408 56.8359 283.887 56.9766 284.481 56.9766C285.028 56.9766 285.466 56.8672 285.794 56.6484C286.127 56.4245 286.294 56.1276 286.294 55.7578ZM293.13 58.1562C291.984 58.1562 291.052 57.7812 290.333 57.0312C289.614 56.276 289.255 55.2682 289.255 54.0078V53.7422C289.255 52.9036 289.413 52.1562 289.731 51.5C290.054 50.8385 290.502 50.3229 291.075 49.9531C291.653 49.5781 292.278 49.3906 292.95 49.3906C294.049 49.3906 294.903 49.7526 295.512 50.4766C296.122 51.2005 296.427 52.237 296.427 53.5859V54.1875H290.7C290.721 55.0208 290.963 55.6953 291.427 56.2109C291.895 56.7214 292.489 56.9766 293.208 56.9766C293.718 56.9766 294.15 56.8724 294.505 56.6641C294.859 56.4557 295.169 56.1797 295.434 55.8359L296.317 56.5234C295.609 57.612 294.546 58.1562 293.13 58.1562ZM292.95 50.5781C292.367 50.5781 291.877 50.7917 291.481 51.2188C291.085 51.6406 290.841 52.2344 290.747 53H294.981V52.8906C294.94 52.1562 294.742 51.5885 294.387 51.1875C294.033 50.7812 293.554 50.5781 292.95 50.5781ZM304.036 47.5V49.5469H305.614V50.6641H304.036V55.9062C304.036 56.2448 304.106 56.5 304.247 56.6719C304.387 56.8385 304.627 56.9219 304.966 56.9219C305.132 56.9219 305.361 56.8906 305.653 56.8281V58C305.273 58.1042 304.903 58.1562 304.544 58.1562C303.898 58.1562 303.411 57.9609 303.083 57.5703C302.755 57.1797 302.591 56.625 302.591 55.9062V50.6641H301.052V49.5469H302.591V47.5H304.036ZM308.755 50.5703C309.395 49.7839 310.229 49.3906 311.255 49.3906C313.041 49.3906 313.942 50.3984 313.958 52.4141V58H312.512V52.4062C312.507 51.7969 312.367 51.3464 312.091 51.0547C311.82 50.763 311.395 50.6172 310.817 50.6172C310.348 50.6172 309.937 50.7422 309.583 50.9922C309.229 51.2422 308.953 51.5703 308.755 51.9766V58H307.309V46H308.755V50.5703ZM319.63 58.1562C318.484 58.1562 317.552 57.7812 316.833 57.0312C316.114 56.276 315.755 55.2682 315.755 54.0078V53.7422C315.755 52.9036 315.913 52.1562 316.231 51.5C316.554 50.8385 317.002 50.3229 317.575 49.9531C318.153 49.5781 318.778 49.3906 319.45 49.3906C320.549 49.3906 321.403 49.7526 322.012 50.4766C322.622 51.2005 322.927 52.237 322.927 53.5859V54.1875H317.2C317.221 55.0208 317.463 55.6953 317.927 56.2109C318.395 56.7214 318.989 56.9766 319.708 56.9766C320.218 56.9766 320.65 56.8724 321.005 56.6641C321.359 56.4557 321.669 56.1797 321.934 55.8359L322.817 56.5234C322.109 57.612 321.046 58.1562 319.63 58.1562ZM319.45 50.5781C318.867 50.5781 318.377 50.7917 317.981 51.2188C317.585 51.6406 317.341 52.2344 317.247 53H321.481V52.8906C321.44 52.1562 321.242 51.5885 320.887 51.1875C320.533 50.7812 320.054 50.5781 319.45 50.5781ZM328.192 53.6953C328.192 52.8672 328.354 52.1224 328.677 51.4609C329.005 50.7995 329.458 50.2891 330.036 49.9297C330.619 49.5703 331.283 49.3906 332.028 49.3906C333.179 49.3906 334.109 49.7891 334.817 50.5859C335.531 51.3828 335.887 52.4427 335.887 53.7656V53.8672C335.887 54.6901 335.729 55.4297 335.411 56.0859C335.098 56.737 334.648 57.2448 334.059 57.6094C333.476 57.974 332.804 58.1562 332.044 58.1562C330.898 58.1562 329.968 57.7578 329.255 56.9609C328.546 56.1641 328.192 55.1094 328.192 53.7969V53.6953ZM329.645 53.8672C329.645 54.8047 329.861 55.5573 330.294 56.125C330.731 56.6927 331.315 56.9766 332.044 56.9766C332.778 56.9766 333.361 56.6901 333.794 56.1172C334.226 55.5391 334.442 54.7318 334.442 53.6953C334.442 52.7682 334.221 52.0182 333.778 51.4453C333.341 50.8672 332.757 50.5781 332.028 50.5781C331.315 50.5781 330.739 50.862 330.302 51.4297C329.864 51.9974 329.645 52.8099 329.645 53.8672ZM344.841 53.8672C344.841 55.1536 344.546 56.1901 343.958 56.9766C343.369 57.763 342.572 58.1562 341.567 58.1562C340.541 58.1562 339.734 57.8307 339.145 57.1797V61.25H337.7V49.5469H339.02L339.091 50.4844C339.679 49.7552 340.497 49.3906 341.544 49.3906C342.559 49.3906 343.361 49.7734 343.95 50.5391C344.544 51.3047 344.841 52.3698 344.841 53.7344V53.8672ZM343.395 53.7031C343.395 52.75 343.192 51.9974 342.786 51.4453C342.38 50.8932 341.822 50.6172 341.114 50.6172C340.239 50.6172 339.583 51.0052 339.145 51.7812V55.8203C339.578 56.5911 340.239 56.9766 341.13 56.9766C341.822 56.9766 342.372 56.7031 342.778 56.1562C343.19 55.6042 343.395 54.7865 343.395 53.7031ZM348.645 47.5V49.5469H350.223V50.6641H348.645V55.9062C348.645 56.2448 348.716 56.5 348.856 56.6719C348.997 56.8385 349.236 56.9219 349.575 56.9219C349.742 56.9219 349.971 56.8906 350.262 56.8281V58C349.882 58.1042 349.512 58.1562 349.153 58.1562C348.507 58.1562 348.02 57.9609 347.692 57.5703C347.364 57.1797 347.2 56.625 347.2 55.9062V50.6641H345.661V49.5469H347.2V47.5H348.645ZM353.489 58H352.044V49.5469H353.489V58ZM351.927 47.3047C351.927 47.0703 351.997 46.8724 352.137 46.7109C352.283 46.5495 352.497 46.4688 352.778 46.4688C353.059 46.4688 353.273 46.5495 353.419 46.7109C353.565 46.8724 353.637 47.0703 353.637 47.3047C353.637 47.5391 353.565 47.7344 353.419 47.8906C353.273 48.0469 353.059 48.125 352.778 48.125C352.497 48.125 352.283 48.0469 352.137 47.8906C351.997 47.7344 351.927 47.5391 351.927 47.3047ZM355.427 53.6953C355.427 52.8672 355.588 52.1224 355.911 51.4609C356.239 50.7995 356.692 50.2891 357.27 49.9297C357.854 49.5703 358.518 49.3906 359.262 49.3906C360.413 49.3906 361.343 49.7891 362.052 50.5859C362.765 51.3828 363.122 52.4427 363.122 53.7656V53.8672C363.122 54.6901 362.963 55.4297 362.645 56.0859C362.333 56.737 361.882 57.2448 361.294 57.6094C360.71 57.974 360.038 58.1562 359.278 58.1562C358.132 58.1562 357.203 57.7578 356.489 56.9609C355.781 56.1641 355.427 55.1094 355.427 53.7969V53.6953ZM356.88 53.8672C356.88 54.8047 357.096 55.5573 357.528 56.125C357.966 56.6927 358.549 56.9766 359.278 56.9766C360.012 56.9766 360.596 56.6901 361.028 56.1172C361.46 55.5391 361.677 54.7318 361.677 53.6953C361.677 52.7682 361.455 52.0182 361.012 51.4453C360.575 50.8672 359.992 50.5781 359.262 50.5781C358.549 50.5781 357.973 50.862 357.536 51.4297C357.098 51.9974 356.88 52.8099 356.88 53.8672ZM366.302 49.5469L366.348 50.6094C366.994 49.7969 367.838 49.3906 368.88 49.3906C370.666 49.3906 371.567 50.3984 371.583 52.4141V58H370.137V52.4062C370.132 51.7969 369.992 51.3464 369.716 51.0547C369.445 50.763 369.02 50.6172 368.442 50.6172C367.973 50.6172 367.562 50.7422 367.208 50.9922C366.854 51.2422 366.578 51.5703 366.38 51.9766V58H364.934V49.5469H366.302ZM380.497 55.8828L382.466 49.5469H384.012L380.614 59.3047C380.088 60.7109 379.252 61.4141 378.106 61.4141L377.833 61.3906L377.294 61.2891V60.1172L377.684 60.1484C378.174 60.1484 378.554 60.0495 378.825 59.8516C379.101 59.6536 379.328 59.2917 379.505 58.7656L379.825 57.9062L376.809 49.5469H378.387L380.497 55.8828ZM384.802 53.6953C384.802 52.8672 384.963 52.1224 385.286 51.4609C385.614 50.7995 386.067 50.2891 386.645 49.9297C387.229 49.5703 387.893 49.3906 388.637 49.3906C389.788 49.3906 390.718 49.7891 391.427 50.5859C392.14 51.3828 392.497 52.4427 392.497 53.7656V53.8672C392.497 54.6901 392.338 55.4297 392.02 56.0859C391.708 56.737 391.257 57.2448 390.669 57.6094C390.085 57.974 389.413 58.1562 388.653 58.1562C387.507 58.1562 386.578 57.7578 385.864 56.9609C385.156 56.1641 384.802 55.1094 384.802 53.7969V53.6953ZM386.255 53.8672C386.255 54.8047 386.471 55.5573 386.903 56.125C387.341 56.6927 387.924 56.9766 388.653 56.9766C389.387 56.9766 389.971 56.6901 390.403 56.1172C390.835 55.5391 391.052 54.7318 391.052 53.6953C391.052 52.7682 390.83 52.0182 390.387 51.4453C389.95 50.8672 389.367 50.5781 388.637 50.5781C387.924 50.5781 387.348 50.862 386.911 51.4297C386.473 51.9974 386.255 52.8099 386.255 53.8672ZM399.528 57.1641C398.966 57.8255 398.14 58.1562 397.052 58.1562C396.15 58.1562 395.463 57.8958 394.989 57.375C394.52 56.849 394.283 56.0729 394.278 55.0469V49.5469H395.723V55.0078C395.723 56.2891 396.244 56.9297 397.286 56.9297C398.39 56.9297 399.124 56.5182 399.489 55.6953V49.5469H400.934V58H399.559L399.528 57.1641ZM414.591 56.0078L416.216 49.5469H417.661L415.2 58H414.028L411.973 51.5938L409.973 58H408.802L406.348 49.5469H407.786L409.45 55.875L411.419 49.5469H412.583L414.591 56.0078ZM424.356 58C424.273 57.8333 424.205 57.5365 424.153 57.1094C423.481 57.8073 422.679 58.1562 421.747 58.1562C420.913 58.1562 420.229 57.9219 419.692 57.4531C419.161 56.9792 418.895 56.3802 418.895 55.6562C418.895 54.776 419.229 54.0938 419.895 53.6094C420.567 53.1198 421.51 52.875 422.723 52.875H424.13V52.2109C424.13 51.7057 423.979 51.3047 423.677 51.0078C423.374 50.7057 422.929 50.5547 422.341 50.5547C421.825 50.5547 421.393 50.6849 421.044 50.9453C420.695 51.2057 420.52 51.5208 420.52 51.8906H419.067C419.067 51.4688 419.216 51.0625 419.512 50.6719C419.815 50.276 420.221 49.9635 420.731 49.7344C421.247 49.5052 421.812 49.3906 422.427 49.3906C423.4 49.3906 424.163 49.6354 424.716 50.125C425.268 50.6094 425.554 51.2786 425.575 52.1328V56.0234C425.575 56.7995 425.674 57.4167 425.872 57.875V58H424.356ZM421.958 56.8984C422.411 56.8984 422.841 56.7812 423.247 56.5469C423.653 56.3125 423.947 56.0078 424.13 55.6328V53.8984H422.997C421.226 53.8984 420.341 54.4167 420.341 55.4531C420.341 55.9062 420.492 56.2604 420.794 56.5156C421.096 56.7708 421.484 56.8984 421.958 56.8984ZM429.208 49.5469L429.255 50.6094C429.9 49.7969 430.744 49.3906 431.786 49.3906C433.572 49.3906 434.473 50.3984 434.489 52.4141V58H433.044V52.4062C433.038 51.7969 432.898 51.3464 432.622 51.0547C432.351 50.763 431.927 50.6172 431.348 50.6172C430.88 50.6172 430.468 50.7422 430.114 50.9922C429.76 51.2422 429.484 51.5703 429.286 51.9766V58H427.841V49.5469H429.208ZM438.63 47.5V49.5469H440.208V50.6641H438.63V55.9062C438.63 56.2448 438.7 56.5 438.841 56.6719C438.981 56.8385 439.221 56.9219 439.559 56.9219C439.726 56.9219 439.955 56.8906 440.247 56.8281V58C439.867 58.1042 439.497 58.1562 439.137 58.1562C438.492 58.1562 438.005 57.9609 437.677 57.5703C437.348 57.1797 437.184 56.625 437.184 55.9062V50.6641H435.645V49.5469H437.184V47.5H438.63ZM447.833 47.5V49.5469H449.411V50.6641H447.833V55.9062C447.833 56.2448 447.903 56.5 448.044 56.6719C448.184 56.8385 448.424 56.9219 448.762 56.9219C448.929 56.9219 449.158 56.8906 449.45 56.8281V58C449.07 58.1042 448.7 58.1562 448.341 58.1562C447.695 58.1562 447.208 57.9609 446.88 57.5703C446.552 57.1797 446.387 56.625 446.387 55.9062V50.6641H444.848V49.5469H446.387V47.5H447.833ZM450.567 53.6953C450.567 52.8672 450.729 52.1224 451.052 51.4609C451.38 50.7995 451.833 50.2891 452.411 49.9297C452.994 49.5703 453.658 49.3906 454.403 49.3906C455.554 49.3906 456.484 49.7891 457.192 50.5859C457.906 51.3828 458.262 52.4427 458.262 53.7656V53.8672C458.262 54.6901 458.104 55.4297 457.786 56.0859C457.473 56.737 457.023 57.2448 456.434 57.6094C455.851 57.974 455.179 58.1562 454.419 58.1562C453.273 58.1562 452.343 57.7578 451.63 56.9609C450.921 56.1641 450.567 55.1094 450.567 53.7969V53.6953ZM452.02 53.8672C452.02 54.8047 452.236 55.5573 452.669 56.125C453.106 56.6927 453.69 56.9766 454.419 56.9766C455.153 56.9766 455.736 56.6901 456.169 56.1172C456.601 55.5391 456.817 54.7318 456.817 53.6953C456.817 52.7682 456.596 52.0182 456.153 51.4453C455.716 50.8672 455.132 50.5781 454.403 50.5781C453.69 50.5781 453.114 50.862 452.677 51.4297C452.239 51.9974 452.02 52.8099 452.02 53.8672ZM463.692 53.7031C463.692 52.4062 463.999 51.3646 464.614 50.5781C465.229 49.7865 466.033 49.3906 467.028 49.3906C468.018 49.3906 468.802 49.7292 469.38 50.4062V46H470.825V58H469.497L469.427 57.0938C468.848 57.8021 468.044 58.1562 467.012 58.1562C466.033 58.1562 465.234 57.7552 464.614 56.9531C463.999 56.151 463.692 55.1042 463.692 53.8125V53.7031ZM465.137 53.8672C465.137 54.8255 465.335 55.5755 465.731 56.1172C466.127 56.6589 466.674 56.9297 467.372 56.9297C468.288 56.9297 468.958 56.5182 469.38 55.6953V51.8125C468.947 51.0156 468.283 50.6172 467.387 50.6172C466.679 50.6172 466.127 50.8906 465.731 51.4375C465.335 51.9844 465.137 52.7943 465.137 53.8672ZM472.692 53.6953C472.692 52.8672 472.854 52.1224 473.177 51.4609C473.505 50.7995 473.958 50.2891 474.536 49.9297C475.119 49.5703 475.783 49.3906 476.528 49.3906C477.679 49.3906 478.609 49.7891 479.317 50.5859C480.031 51.3828 480.387 52.4427 480.387 53.7656V53.8672C480.387 54.6901 480.229 55.4297 479.911 56.0859C479.598 56.737 479.148 57.2448 478.559 57.6094C477.976 57.974 477.304 58.1562 476.544 58.1562C475.398 58.1562 474.468 57.7578 473.755 56.9609C473.046 56.1641 472.692 55.1094 472.692 53.7969V53.6953ZM474.145 53.8672C474.145 54.8047 474.361 55.5573 474.794 56.125C475.231 56.6927 475.815 56.9766 476.544 56.9766C477.278 56.9766 477.861 56.6901 478.294 56.1172C478.726 55.5391 478.942 54.7318 478.942 53.6953C478.942 52.7682 478.721 52.0182 478.278 51.4453C477.841 50.8672 477.257 50.5781 476.528 50.5781C475.815 50.5781 475.239 50.862 474.802 51.4297C474.364 51.9974 474.145 52.8099 474.145 53.8672ZM482.231 57.2422C482.231 56.9922 482.304 56.7839 482.45 56.6172C482.601 56.4505 482.825 56.3672 483.122 56.3672C483.419 56.3672 483.643 56.4505 483.794 56.6172C483.95 56.7839 484.028 56.9922 484.028 57.2422C484.028 57.4818 483.95 57.6823 483.794 57.8438C483.643 58.0052 483.419 58.0859 483.122 58.0859C482.825 58.0859 482.601 58.0052 482.45 57.8438C482.304 57.6823 482.231 57.4818 482.231 57.2422Z" fill="#6654A4"/>
<path d="M46.2863 64H49.2303V40.864H43.2143V43.52H46.2863V64Z" fill="#6654A4"/>
<defs>
<filter id="filter0_d" x="0" y="0" width="594.56" height="113" filterUnits="userSpaceOnUse" color-interpolation-filters="sRGB">
<feFlood flood-opacity="0" result="BackgroundImageFix"/>
<feColorMatrix in="SourceAlpha" type="matrix" values="0 0 0 0 0 0 0 0 0 0 0 0 0 0 0 0 0 0 127 0"/>
<feMorphology radius="4" operator="dilate" in="SourceAlpha" result="effect1_dropShadow"/>
<feOffset dy="3"/>
<feGaussianBlur stdDeviation="7.5"/>
<feColorMatrix type="matrix" values="0 0 0 0 0.872109 0 0 0 0 0.853125 0 0 0 0 0.9375 0 0 0 0.5 0"/>
<feBlend mode="normal" in2="BackgroundImageFix" result="effect1_dropShadow"/>
<feBlend mode="normal" in="SourceGraphic" in2="effect1_dropShadow" result="shape"/>
</filter>
</defs>
</svg>
