<svg width="118" height="34" viewBox="0 0 118 34" fill="none" xmlns="http://www.w3.org/2000/svg">
<path d="M15.1631 18.92C15.1631 10.664 3.13113 14.248 3.13113 8.488C3.13113 6.088 5.01913 4.84 7.41913 4.904C10.1391 4.936 11.5471 6.632 11.7391 8.136H14.9391C14.5871 4.744 11.8031 2.408 7.54713 2.408C3.13113 2.408 0.155125 4.904 0.155125 8.584C0.155125 16.872 12.2191 13.032 12.2191 19.048C12.2191 21.16 10.5551 22.76 7.73913 22.76C4.63513 22.76 3.32313 20.904 3.13113 19.048H0.0271251C0.0911251 22.728 3.25913 25.224 7.73913 25.224C12.5711 25.224 15.1631 22.088 15.1631 18.92ZM22.3604 10.696V7.464H19.4484V33.32H22.3604V21.768C23.4484 23.56 25.7204 25.288 28.9204 25.288C33.6244 25.288 37.2404 21.608 37.2404 16.168C37.2404 10.696 33.6244 7.176 28.9204 7.176C25.7204 7.176 23.4164 8.84 22.3604 10.696ZM34.2644 16.168C34.2644 20.296 31.5444 22.728 28.3124 22.728C25.1444 22.728 22.3604 20.328 22.3604 16.2C22.3604 12.136 25.1444 9.704 28.3124 9.704C31.5444 9.704 34.2644 12.04 34.2644 16.168ZM41.0734 25H43.9854V1.32H41.0734V25ZM48.9484 25H51.8604V7.464H48.9484V25ZM50.4524 4.616C51.5084 4.616 52.3724 3.752 52.3724 2.632C52.3724 1.512 51.5084 0.647999 50.4524 0.647999C49.3324 0.647999 48.4684 1.512 48.4684 2.632C48.4684 3.752 49.3324 4.616 50.4524 4.616ZM57.4634 20.2C57.4634 23.72 59.2234 25 62.3274 25H64.9514V22.536H62.8074C61.0154 22.536 60.3754 21.928 60.3754 20.2V9.864H64.9514V7.464H60.3754V3.048H57.4634V7.464H55.1914V9.864H57.4634V20.2ZM79.9229 10.728V1.32H77.0109V25H79.9229V21.768C81.0109 23.688 83.2829 25.288 86.4829 25.288C91.1869 25.288 94.8029 21.608 94.8029 16.168C94.8029 10.696 91.2189 7.176 86.4829 7.176C83.3789 7.176 81.0429 8.776 79.9229 10.728ZM91.8269 16.168C91.8269 20.296 89.1069 22.728 85.8749 22.728C82.7069 22.728 79.9229 20.328 79.9229 16.2C79.9229 12.136 82.7069 9.704 85.8749 9.704C89.1069 9.704 91.8269 12.04 91.8269 16.168ZM98.6359 25H101.548V7.464H98.6359V25ZM100.14 4.616C101.196 4.616 102.06 3.752 102.06 2.632C102.06 1.512 101.196 0.647999 100.14 0.647999C99.0199 0.647999 98.1559 1.512 98.1559 2.632C98.1559 3.752 99.0199 4.616 100.14 4.616ZM106.511 25H109.423V1.32H106.511V25ZM114.386 25H117.298V1.32H114.386V25Z" fill="#494B52"/>
</svg>
