<svg width="563" height="75" viewBox="0 0 563 75" fill="none" xmlns="http://www.w3.org/2000/svg">
<path d="M65.5046 33.3359L68.4734 27.625H70.1765L66.2546 34.7578V39H64.7546V34.7578L60.8328 27.625H62.5515L65.5046 33.3359ZM70.5203 34.6953C70.5203 33.8672 70.6817 33.1224 71.0046 32.4609C71.3328 31.7995 71.7859 31.2891 72.364 30.9297C72.9473 30.5703 73.6114 30.3906 74.3562 30.3906C75.5072 30.3906 76.4369 30.7891 77.1453 31.5859C77.8588 32.3828 78.2156 33.4427 78.2156 34.7656V34.8672C78.2156 35.6901 78.0567 36.4297 77.739 37.0859C77.4265 37.737 76.976 38.2448 76.3875 38.6094C75.8041 38.974 75.1322 39.1562 74.3718 39.1562C73.226 39.1562 72.2963 38.7578 71.5828 37.9609C70.8744 37.1641 70.5203 36.1094 70.5203 34.7969V34.6953ZM71.9734 34.8672C71.9734 35.8047 72.1895 36.5573 72.6218 37.125C73.0593 37.6927 73.6427 37.9766 74.3718 37.9766C75.1062 37.9766 75.6895 37.6901 76.1218 37.1172C76.5541 36.5391 76.7703 35.7318 76.7703 34.6953C76.7703 33.7682 76.5489 33.0182 76.1062 32.4453C75.6687 31.8672 75.0854 31.5781 74.3562 31.5781C73.6427 31.5781 73.0671 31.862 72.6296 32.4297C72.1921 32.9974 71.9734 33.8099 71.9734 34.8672ZM85.2468 38.1641C84.6843 38.8255 83.8588 39.1562 82.7703 39.1562C81.8692 39.1562 81.1817 38.8958 80.7078 38.375C80.239 37.849 80.002 37.0729 79.9968 36.0469V30.5469H81.4421V36.0078C81.4421 37.2891 81.963 37.9297 83.0046 37.9297C84.1088 37.9297 84.8432 37.5182 85.2078 36.6953V30.5469H86.6531V39H85.2781L85.2468 38.1641ZM96.2156 37.9766C96.7312 37.9766 97.1817 37.8203 97.5671 37.5078C97.9526 37.1953 98.1661 36.8047 98.2078 36.3359H99.575C99.5489 36.8203 99.3822 37.2812 99.075 37.7188C98.7677 38.1562 98.3562 38.5052 97.8406 38.7656C97.3302 39.026 96.7885 39.1562 96.2156 39.1562C95.0645 39.1562 94.1479 38.7734 93.4656 38.0078C92.7885 37.237 92.45 36.1849 92.45 34.8516V34.6094C92.45 33.7865 92.601 33.0547 92.9031 32.4141C93.2052 31.7734 93.6375 31.276 94.2 30.9219C94.7677 30.5677 95.4369 30.3906 96.2078 30.3906C97.1557 30.3906 97.9421 30.6745 98.5671 31.2422C99.1973 31.8099 99.5333 32.5469 99.575 33.4531H98.2078C98.1661 32.9062 97.9578 32.4583 97.5828 32.1094C97.213 31.7552 96.7546 31.5781 96.2078 31.5781C95.4734 31.5781 94.9031 31.8438 94.4968 32.375C94.0958 32.901 93.8953 33.6641 93.8953 34.6641V34.9375C93.8953 35.9115 94.0958 36.6615 94.4968 37.1875C94.8979 37.7135 95.4708 37.9766 96.2156 37.9766ZM106.419 39C106.335 38.8333 106.268 38.5365 106.216 38.1094C105.544 38.8073 104.742 39.1562 103.809 39.1562C102.976 39.1562 102.291 38.9219 101.755 38.4531C101.223 37.9792 100.958 37.3802 100.958 36.6562C100.958 35.776 101.291 35.0938 101.958 34.6094C102.63 34.1198 103.572 33.875 104.786 33.875H106.192V33.2109C106.192 32.7057 106.041 32.3047 105.739 32.0078C105.437 31.7057 104.992 31.5547 104.403 31.5547C103.887 31.5547 103.455 31.6849 103.106 31.9453C102.757 32.2057 102.583 32.5208 102.583 32.8906H101.13C101.13 32.4688 101.278 32.0625 101.575 31.6719C101.877 31.276 102.283 30.9635 102.794 30.7344C103.309 30.5052 103.874 30.3906 104.489 30.3906C105.463 30.3906 106.226 30.6354 106.778 31.125C107.33 31.6094 107.617 32.2786 107.637 33.1328V37.0234C107.637 37.7995 107.736 38.4167 107.934 38.875V39H106.419ZM104.02 37.8984C104.473 37.8984 104.903 37.7812 105.309 37.5469C105.716 37.3125 106.01 37.0078 106.192 36.6328V34.8984H105.059C103.288 34.8984 102.403 35.4167 102.403 36.4531C102.403 36.9062 102.554 37.2604 102.856 37.5156C103.158 37.7708 103.546 37.8984 104.02 37.8984ZM111.27 30.5469L111.317 31.6094C111.963 30.7969 112.807 30.3906 113.848 30.3906C115.635 30.3906 116.536 31.3984 116.552 33.4141V39H115.106V33.4062C115.101 32.7969 114.96 32.3464 114.684 32.0547C114.413 31.763 113.989 31.6172 113.411 31.6172C112.942 31.6172 112.531 31.7422 112.177 31.9922C111.822 32.2422 111.546 32.5703 111.348 32.9766V39H109.903V30.5469H111.27ZM126.091 37.9766C126.606 37.9766 127.057 37.8203 127.442 37.5078C127.828 37.1953 128.041 36.8047 128.083 36.3359H129.45C129.424 36.8203 129.257 37.2812 128.95 37.7188C128.643 38.1562 128.231 38.5052 127.716 38.7656C127.205 39.026 126.663 39.1562 126.091 39.1562C124.94 39.1562 124.023 38.7734 123.341 38.0078C122.663 37.237 122.325 36.1849 122.325 34.8516V34.6094C122.325 33.7865 122.476 33.0547 122.778 32.4141C123.08 31.7734 123.512 31.276 124.075 30.9219C124.643 30.5677 125.312 30.3906 126.083 30.3906C127.031 30.3906 127.817 30.6745 128.442 31.2422C129.072 31.8099 129.408 32.5469 129.45 33.4531H128.083C128.041 32.9062 127.833 32.4583 127.458 32.1094C127.088 31.7552 126.63 31.5781 126.083 31.5781C125.348 31.5781 124.778 31.8438 124.372 32.375C123.971 32.901 123.77 33.6641 123.77 34.6641V34.9375C123.77 35.9115 123.971 36.6615 124.372 37.1875C124.773 37.7135 125.346 37.9766 126.091 37.9766ZM132.52 31.5703C133.161 30.7839 133.994 30.3906 135.02 30.3906C136.807 30.3906 137.708 31.3984 137.723 33.4141V39H136.278V33.4062C136.273 32.7969 136.132 32.3464 135.856 32.0547C135.585 31.763 135.161 31.6172 134.583 31.6172C134.114 31.6172 133.703 31.7422 133.348 31.9922C132.994 32.2422 132.718 32.5703 132.52 32.9766V39H131.075V27H132.52V31.5703ZM139.505 34.6953C139.505 33.8672 139.666 33.1224 139.989 32.4609C140.317 31.7995 140.77 31.2891 141.348 30.9297C141.932 30.5703 142.596 30.3906 143.341 30.3906C144.492 30.3906 145.421 30.7891 146.13 31.5859C146.843 32.3828 147.2 33.4427 147.2 34.7656V34.8672C147.2 35.6901 147.041 36.4297 146.723 37.0859C146.411 37.737 145.96 38.2448 145.372 38.6094C144.788 38.974 144.117 39.1562 143.356 39.1562C142.21 39.1562 141.281 38.7578 140.567 37.9609C139.859 37.1641 139.505 36.1094 139.505 34.7969V34.6953ZM140.958 34.8672C140.958 35.8047 141.174 36.5573 141.606 37.125C142.044 37.6927 142.627 37.9766 143.356 37.9766C144.091 37.9766 144.674 37.6901 145.106 37.1172C145.538 36.5391 145.755 35.7318 145.755 34.6953C145.755 33.7682 145.533 33.0182 145.091 32.4453C144.653 31.8672 144.07 31.5781 143.341 31.5781C142.627 31.5781 142.052 31.862 141.614 32.4297C141.177 32.9974 140.958 33.8099 140.958 34.8672ZM148.63 34.6953C148.63 33.8672 148.791 33.1224 149.114 32.4609C149.442 31.7995 149.895 31.2891 150.473 30.9297C151.057 30.5703 151.721 30.3906 152.466 30.3906C153.617 30.3906 154.546 30.7891 155.255 31.5859C155.968 32.3828 156.325 33.4427 156.325 34.7656V34.8672C156.325 35.6901 156.166 36.4297 155.848 37.0859C155.536 37.737 155.085 38.2448 154.497 38.6094C153.913 38.974 153.242 39.1562 152.481 39.1562C151.335 39.1562 150.406 38.7578 149.692 37.9609C148.984 37.1641 148.63 36.1094 148.63 34.7969V34.6953ZM150.083 34.8672C150.083 35.8047 150.299 36.5573 150.731 37.125C151.169 37.6927 151.752 37.9766 152.481 37.9766C153.216 37.9766 153.799 37.6901 154.231 37.1172C154.663 36.5391 154.88 35.7318 154.88 34.6953C154.88 33.7682 154.658 33.0182 154.216 32.4453C153.778 31.8672 153.195 31.5781 152.466 31.5781C151.752 31.5781 151.177 31.862 150.739 32.4297C150.302 32.9974 150.083 33.8099 150.083 34.8672ZM163.059 36.7578C163.059 36.3672 162.911 36.0651 162.614 35.8516C162.322 35.6328 161.809 35.4453 161.075 35.2891C160.346 35.1328 159.765 34.9453 159.333 34.7266C158.906 34.5078 158.588 34.2474 158.38 33.9453C158.177 33.6432 158.075 33.2839 158.075 32.8672C158.075 32.1745 158.367 31.5885 158.95 31.1094C159.538 30.6302 160.288 30.3906 161.2 30.3906C162.158 30.3906 162.934 30.638 163.528 31.1328C164.127 31.6276 164.427 32.2604 164.427 33.0312H162.973C162.973 32.6354 162.804 32.2943 162.466 32.0078C162.132 31.7214 161.71 31.5781 161.2 31.5781C160.674 31.5781 160.262 31.6927 159.966 31.9219C159.669 32.151 159.52 32.4505 159.52 32.8203C159.52 33.1693 159.658 33.4323 159.934 33.6094C160.21 33.7865 160.708 33.9557 161.427 34.1172C162.15 34.2786 162.736 34.4714 163.184 34.6953C163.632 34.9193 163.963 35.1901 164.177 35.5078C164.395 35.8203 164.505 36.2031 164.505 36.6562C164.505 37.4115 164.203 38.0182 163.598 38.4766C162.994 38.9297 162.21 39.1562 161.247 39.1562C160.57 39.1562 159.971 39.0365 159.45 38.7969C158.929 38.5573 158.52 38.224 158.223 37.7969C157.932 37.3646 157.786 36.8984 157.786 36.3984H159.231C159.257 36.8828 159.45 37.2682 159.809 37.5547C160.174 37.8359 160.653 37.9766 161.247 37.9766C161.794 37.9766 162.231 37.8672 162.559 37.6484C162.893 37.4245 163.059 37.1276 163.059 36.7578ZM169.895 39.1562C168.749 39.1562 167.817 38.7812 167.098 38.0312C166.38 37.276 166.02 36.2682 166.02 35.0078V34.7422C166.02 33.9036 166.179 33.1562 166.497 32.5C166.82 31.8385 167.268 31.3229 167.841 30.9531C168.419 30.5781 169.044 30.3906 169.716 30.3906C170.815 30.3906 171.669 30.7526 172.278 31.4766C172.887 32.2005 173.192 33.237 173.192 34.5859V35.1875H167.466C167.486 36.0208 167.729 36.6953 168.192 37.2109C168.661 37.7214 169.255 37.9766 169.973 37.9766C170.484 37.9766 170.916 37.8724 171.27 37.6641C171.624 37.4557 171.934 37.1797 172.2 36.8359L173.083 37.5234C172.374 38.612 171.312 39.1562 169.895 39.1562ZM169.716 31.5781C169.132 31.5781 168.643 31.7917 168.247 32.2188C167.851 32.6406 167.606 33.2344 167.512 34H171.747V33.8906C171.705 33.1562 171.507 32.5885 171.153 32.1875C170.799 31.7812 170.32 31.5781 169.716 31.5781ZM180.802 28.5V30.5469H182.38V31.6641H180.802V36.9062C180.802 37.2448 180.872 37.5 181.012 37.6719C181.153 37.8385 181.393 37.9219 181.731 37.9219C181.898 37.9219 182.127 37.8906 182.419 37.8281V39C182.038 39.1042 181.669 39.1562 181.309 39.1562C180.663 39.1562 180.177 38.9609 179.848 38.5703C179.52 38.1797 179.356 37.625 179.356 36.9062V31.6641H177.817V30.5469H179.356V28.5H180.802ZM183.536 34.6953C183.536 33.8672 183.697 33.1224 184.02 32.4609C184.348 31.7995 184.802 31.2891 185.38 30.9297C185.963 30.5703 186.627 30.3906 187.372 30.3906C188.523 30.3906 189.453 30.7891 190.161 31.5859C190.874 32.3828 191.231 33.4427 191.231 34.7656V34.8672C191.231 35.6901 191.072 36.4297 190.755 37.0859C190.442 37.737 189.992 38.2448 189.403 38.6094C188.82 38.974 188.148 39.1562 187.387 39.1562C186.242 39.1562 185.312 38.7578 184.598 37.9609C183.89 37.1641 183.536 36.1094 183.536 34.7969V34.6953ZM184.989 34.8672C184.989 35.8047 185.205 36.5573 185.637 37.125C186.075 37.6927 186.658 37.9766 187.387 37.9766C188.122 37.9766 188.705 37.6901 189.137 37.1172C189.57 36.5391 189.786 35.7318 189.786 34.6953C189.786 33.7682 189.565 33.0182 189.122 32.4453C188.684 31.8672 188.101 31.5781 187.372 31.5781C186.658 31.5781 186.083 31.862 185.645 32.4297C185.208 32.9974 184.989 33.8099 184.989 34.8672ZM201.934 36.7578C201.934 36.3672 201.786 36.0651 201.489 35.8516C201.197 35.6328 200.684 35.4453 199.95 35.2891C199.221 35.1328 198.64 34.9453 198.208 34.7266C197.781 34.5078 197.463 34.2474 197.255 33.9453C197.052 33.6432 196.95 33.2839 196.95 32.8672C196.95 32.1745 197.242 31.5885 197.825 31.1094C198.413 30.6302 199.163 30.3906 200.075 30.3906C201.033 30.3906 201.809 30.638 202.403 31.1328C203.002 31.6276 203.302 32.2604 203.302 33.0312H201.848C201.848 32.6354 201.679 32.2943 201.341 32.0078C201.007 31.7214 200.585 31.5781 200.075 31.5781C199.549 31.5781 199.137 31.6927 198.841 31.9219C198.544 32.151 198.395 32.4505 198.395 32.8203C198.395 33.1693 198.533 33.4323 198.809 33.6094C199.085 33.7865 199.583 33.9557 200.302 34.1172C201.025 34.2786 201.611 34.4714 202.059 34.6953C202.507 34.9193 202.838 35.1901 203.052 35.5078C203.27 35.8203 203.38 36.2031 203.38 36.6562C203.38 37.4115 203.078 38.0182 202.473 38.4766C201.869 38.9297 201.085 39.1562 200.122 39.1562C199.445 39.1562 198.846 39.0365 198.325 38.7969C197.804 38.5573 197.395 38.224 197.098 37.7969C196.807 37.3646 196.661 36.8984 196.661 36.3984H198.106C198.132 36.8828 198.325 37.2682 198.684 37.5547C199.049 37.8359 199.528 37.9766 200.122 37.9766C200.669 37.9766 201.106 37.8672 201.434 37.6484C201.768 37.4245 201.934 37.1276 201.934 36.7578ZM206.833 39H205.387V27H206.833V39ZM210.723 39H209.278V30.5469H210.723V39ZM209.161 28.3047C209.161 28.0703 209.231 27.8724 209.372 27.7109C209.518 27.5495 209.731 27.4688 210.012 27.4688C210.294 27.4688 210.507 27.5495 210.653 27.7109C210.799 27.8724 210.872 28.0703 210.872 28.3047C210.872 28.5391 210.799 28.7344 210.653 28.8906C210.507 29.0469 210.294 29.125 210.012 29.125C209.731 29.125 209.518 29.0469 209.372 28.8906C209.231 28.7344 209.161 28.5391 209.161 28.3047ZM220.184 34.8672C220.184 36.1536 219.89 37.1901 219.302 37.9766C218.713 38.763 217.916 39.1562 216.911 39.1562C215.885 39.1562 215.078 38.8307 214.489 38.1797V42.25H213.044V30.5469H214.364L214.434 31.4844C215.023 30.7552 215.841 30.3906 216.887 30.3906C217.903 30.3906 218.705 30.7734 219.294 31.5391C219.887 32.3047 220.184 33.3698 220.184 34.7344V34.8672ZM218.739 34.7031C218.739 33.75 218.536 32.9974 218.13 32.4453C217.723 31.8932 217.166 31.6172 216.458 31.6172C215.583 31.6172 214.927 32.0052 214.489 32.7812V36.8203C214.921 37.5911 215.583 37.9766 216.473 37.9766C217.166 37.9766 217.716 37.7031 218.122 37.1562C218.533 36.6042 218.739 35.7865 218.739 34.7031ZM227.958 28.5V30.5469H229.536V31.6641H227.958V36.9062C227.958 37.2448 228.028 37.5 228.169 37.6719C228.309 37.8385 228.549 37.9219 228.887 37.9219C229.054 37.9219 229.283 37.8906 229.575 37.8281V39C229.195 39.1042 228.825 39.1562 228.466 39.1562C227.82 39.1562 227.333 38.9609 227.005 38.5703C226.677 38.1797 226.512 37.625 226.512 36.9062V31.6641H224.973V30.5469H226.512V28.5H227.958ZM232.677 31.5703C233.317 30.7839 234.15 30.3906 235.177 30.3906C236.963 30.3906 237.864 31.3984 237.88 33.4141V39H236.434V33.4062C236.429 32.7969 236.288 32.3464 236.012 32.0547C235.742 31.763 235.317 31.6172 234.739 31.6172C234.27 31.6172 233.859 31.7422 233.505 31.9922C233.15 32.2422 232.874 32.5703 232.677 32.9766V39H231.231V27H232.677V31.5703ZM243.552 39.1562C242.406 39.1562 241.473 38.7812 240.755 38.0312C240.036 37.276 239.677 36.2682 239.677 35.0078V34.7422C239.677 33.9036 239.835 33.1562 240.153 32.5C240.476 31.8385 240.924 31.3229 241.497 30.9531C242.075 30.5781 242.7 30.3906 243.372 30.3906C244.471 30.3906 245.325 30.7526 245.934 31.4766C246.544 32.2005 246.848 33.237 246.848 34.5859V35.1875H241.122C241.143 36.0208 241.385 36.6953 241.848 37.2109C242.317 37.7214 242.911 37.9766 243.63 37.9766C244.14 37.9766 244.572 37.8724 244.927 37.6641C245.281 37.4557 245.591 37.1797 245.856 36.8359L246.739 37.5234C246.031 38.612 244.968 39.1562 243.552 39.1562ZM243.372 31.5781C242.788 31.5781 242.299 31.7917 241.903 32.2188C241.507 32.6406 241.262 33.2344 241.169 34H245.403V33.8906C245.361 33.1562 245.163 32.5885 244.809 32.1875C244.455 31.7812 243.976 31.5781 243.372 31.5781ZM259.653 34.8672C259.653 36.1589 259.356 37.1979 258.762 37.9844C258.169 38.7656 257.372 39.1562 256.372 39.1562C255.304 39.1562 254.479 38.7786 253.895 38.0234L253.825 39H252.497V27H253.942V31.4766C254.525 30.7526 255.33 30.3906 256.356 30.3906C257.382 30.3906 258.187 30.7786 258.77 31.5547C259.359 32.3307 259.653 33.3932 259.653 34.7422V34.8672ZM258.208 34.7031C258.208 33.7188 258.018 32.9583 257.637 32.4219C257.257 31.8854 256.71 31.6172 255.997 31.6172C255.044 31.6172 254.359 32.0599 253.942 32.9453V36.6016C254.385 37.487 255.075 37.9297 256.012 37.9297C256.705 37.9297 257.244 37.6615 257.63 37.125C258.015 36.5885 258.208 35.7812 258.208 34.7031ZM263.052 39H261.606V30.5469H263.052V39ZM261.489 28.3047C261.489 28.0703 261.559 27.8724 261.7 27.7109C261.846 27.5495 262.059 27.4688 262.341 27.4688C262.622 27.4688 262.835 27.5495 262.981 27.7109C263.127 27.8724 263.2 28.0703 263.2 28.3047C263.2 28.5391 263.127 28.7344 262.981 28.8906C262.835 29.0469 262.622 29.125 262.341 29.125C262.059 29.125 261.846 29.0469 261.7 28.8906C261.559 28.7344 261.489 28.5391 261.489 28.3047ZM266.942 39H265.497V27H266.942V39ZM270.833 39H269.387V27H270.833V39ZM280.63 39.1562C279.484 39.1562 278.552 38.7812 277.833 38.0312C277.114 37.276 276.755 36.2682 276.755 35.0078V34.7422C276.755 33.9036 276.913 33.1562 277.231 32.5C277.554 31.8385 278.002 31.3229 278.575 30.9531C279.153 30.5781 279.778 30.3906 280.45 30.3906C281.549 30.3906 282.403 30.7526 283.012 31.4766C283.622 32.2005 283.927 33.237 283.927 34.5859V35.1875H278.2C278.221 36.0208 278.463 36.6953 278.927 37.2109C279.395 37.7214 279.989 37.9766 280.708 37.9766C281.218 37.9766 281.65 37.8724 282.005 37.6641C282.359 37.4557 282.669 37.1797 282.934 36.8359L283.817 37.5234C283.109 38.612 282.046 39.1562 280.63 39.1562ZM280.45 31.5781C279.867 31.5781 279.377 31.7917 278.981 32.2188C278.585 32.6406 278.341 33.2344 278.247 34H282.481V33.8906C282.44 33.1562 282.242 32.5885 281.887 32.1875C281.533 31.7812 281.054 31.5781 280.45 31.5781ZM288.286 37.0391L290.38 30.5469H291.856L288.825 39H287.723L284.661 30.5469H286.137L288.286 37.0391ZM296.645 39.1562C295.499 39.1562 294.567 38.7812 293.848 38.0312C293.13 37.276 292.77 36.2682 292.77 35.0078V34.7422C292.77 33.9036 292.929 33.1562 293.247 32.5C293.57 31.8385 294.018 31.3229 294.591 30.9531C295.169 30.5781 295.794 30.3906 296.466 30.3906C297.565 30.3906 298.419 30.7526 299.028 31.4766C299.637 32.2005 299.942 33.237 299.942 34.5859V35.1875H294.216C294.236 36.0208 294.479 36.6953 294.942 37.2109C295.411 37.7214 296.005 37.9766 296.723 37.9766C297.234 37.9766 297.666 37.8724 298.02 37.6641C298.374 37.4557 298.684 37.1797 298.95 36.8359L299.833 37.5234C299.124 38.612 298.062 39.1562 296.645 39.1562ZM296.466 31.5781C295.882 31.5781 295.393 31.7917 294.997 32.2188C294.601 32.6406 294.356 33.2344 294.262 34H298.497V33.8906C298.455 33.1562 298.257 32.5885 297.903 32.1875C297.549 31.7812 297.07 31.5781 296.466 31.5781ZM302.989 30.5469L303.036 31.6094C303.682 30.7969 304.525 30.3906 305.567 30.3906C307.354 30.3906 308.255 31.3984 308.27 33.4141V39H306.825V33.4062C306.82 32.7969 306.679 32.3464 306.403 32.0547C306.132 31.763 305.708 31.6172 305.13 31.6172C304.661 31.6172 304.249 31.7422 303.895 31.9922C303.541 32.2422 303.265 32.5703 303.067 32.9766V39H301.622V30.5469H302.989ZM312.02 39H310.575V27H312.02V39ZM317.106 36.8828L319.075 30.5469H320.622L317.223 40.3047C316.697 41.7109 315.861 42.4141 314.716 42.4141L314.442 42.3906L313.903 42.2891V41.1172L314.294 41.1484C314.783 41.1484 315.163 41.0495 315.434 40.8516C315.71 40.6536 315.937 40.2917 316.114 39.7656L316.434 38.9062L313.419 30.5469H314.997L317.106 36.8828ZM325.505 34.6953C325.505 33.8672 325.666 33.1224 325.989 32.4609C326.317 31.7995 326.77 31.2891 327.348 30.9297C327.932 30.5703 328.596 30.3906 329.341 30.3906C330.492 30.3906 331.421 30.7891 332.13 31.5859C332.843 32.3828 333.2 33.4427 333.2 34.7656V34.8672C333.2 35.6901 333.041 36.4297 332.723 37.0859C332.411 37.737 331.96 38.2448 331.372 38.6094C330.788 38.974 330.117 39.1562 329.356 39.1562C328.21 39.1562 327.281 38.7578 326.567 37.9609C325.859 37.1641 325.505 36.1094 325.505 34.7969V34.6953ZM326.958 34.8672C326.958 35.8047 327.174 36.5573 327.606 37.125C328.044 37.6927 328.627 37.9766 329.356 37.9766C330.091 37.9766 330.674 37.6901 331.106 37.1172C331.538 36.5391 331.755 35.7318 331.755 34.6953C331.755 33.7682 331.533 33.0182 331.091 32.4453C330.653 31.8672 330.07 31.5781 329.341 31.5781C328.627 31.5781 328.052 31.862 327.614 32.4297C327.177 32.9974 326.958 33.8099 326.958 34.8672ZM339.098 31.8438C338.88 31.8073 338.643 31.7891 338.387 31.7891C337.44 31.7891 336.796 32.1927 336.458 33V39H335.012V30.5469H336.419L336.442 31.5234C336.916 30.7682 337.588 30.3906 338.458 30.3906C338.739 30.3906 338.953 30.4271 339.098 30.5V31.8438ZM349.622 38.1641C349.059 38.8255 348.234 39.1562 347.145 39.1562C346.244 39.1562 345.557 38.8958 345.083 38.375C344.614 37.849 344.377 37.0729 344.372 36.0469V30.5469H345.817V36.0078C345.817 37.2891 346.338 37.9297 347.38 37.9297C348.484 37.9297 349.218 37.5182 349.583 36.6953V30.5469H351.028V39H349.653L349.622 38.1641ZM354.598 30.5469L354.645 31.6094C355.291 30.7969 356.135 30.3906 357.177 30.3906C358.963 30.3906 359.864 31.3984 359.88 33.4141V39H358.434V33.4062C358.429 32.7969 358.288 32.3464 358.012 32.0547C357.742 31.763 357.317 31.6172 356.739 31.6172C356.27 31.6172 355.859 31.7422 355.505 31.9922C355.15 32.2422 354.874 32.5703 354.677 32.9766V39H353.231V30.5469H354.598ZM365.567 39.1562C364.421 39.1562 363.489 38.7812 362.77 38.0312C362.052 37.276 361.692 36.2682 361.692 35.0078V34.7422C361.692 33.9036 361.851 33.1562 362.169 32.5C362.492 31.8385 362.94 31.3229 363.512 30.9531C364.091 30.5781 364.716 30.3906 365.387 30.3906C366.486 30.3906 367.341 30.7526 367.95 31.4766C368.559 32.2005 368.864 33.237 368.864 34.5859V35.1875H363.137C363.158 36.0208 363.4 36.6953 363.864 37.2109C364.333 37.7214 364.927 37.9766 365.645 37.9766C366.156 37.9766 366.588 37.8724 366.942 37.6641C367.296 37.4557 367.606 37.1797 367.872 36.8359L368.755 37.5234C368.046 38.612 366.984 39.1562 365.567 39.1562ZM365.387 31.5781C364.804 31.5781 364.315 31.7917 363.919 32.2188C363.523 32.6406 363.278 33.2344 363.184 34H367.419V33.8906C367.377 33.1562 367.179 32.5885 366.825 32.1875C366.471 31.7812 365.992 31.5781 365.387 31.5781ZM373.223 37.0391L375.317 30.5469H376.794L373.762 39H372.661L369.598 30.5469H371.075L373.223 37.0391ZM381.583 39.1562C380.437 39.1562 379.505 38.7812 378.786 38.0312C378.067 37.276 377.708 36.2682 377.708 35.0078V34.7422C377.708 33.9036 377.867 33.1562 378.184 32.5C378.507 31.8385 378.955 31.3229 379.528 30.9531C380.106 30.5781 380.731 30.3906 381.403 30.3906C382.502 30.3906 383.356 30.7526 383.966 31.4766C384.575 32.2005 384.88 33.237 384.88 34.5859V35.1875H379.153C379.174 36.0208 379.416 36.6953 379.88 37.2109C380.348 37.7214 380.942 37.9766 381.661 37.9766C382.171 37.9766 382.604 37.8724 382.958 37.6641C383.312 37.4557 383.622 37.1797 383.887 36.8359L384.77 37.5234C384.062 38.612 382.999 39.1562 381.583 39.1562ZM381.403 31.5781C380.82 31.5781 380.33 31.7917 379.934 32.2188C379.538 32.6406 379.294 33.2344 379.2 34H383.434V33.8906C383.393 33.1562 383.195 32.5885 382.841 32.1875C382.486 31.7812 382.007 31.5781 381.403 31.5781ZM387.927 30.5469L387.973 31.6094C388.619 30.7969 389.463 30.3906 390.505 30.3906C392.291 30.3906 393.192 31.3984 393.208 33.4141V39H391.762V33.4062C391.757 32.7969 391.617 32.3464 391.341 32.0547C391.07 31.763 390.645 31.6172 390.067 31.6172C389.598 31.6172 389.187 31.7422 388.833 31.9922C388.479 32.2422 388.203 32.5703 388.005 32.9766V39H386.559V30.5469H387.927ZM396.958 39H395.512V27H396.958V39ZM402.044 36.8828L404.012 30.5469H405.559L402.161 40.3047C401.635 41.7109 400.799 42.4141 399.653 42.4141L399.38 42.3906L398.841 42.2891V41.1172L399.231 41.1484C399.721 41.1484 400.101 41.0495 400.372 40.8516C400.648 40.6536 400.874 40.2917 401.052 39.7656L401.372 38.9062L398.356 30.5469H399.934L402.044 36.8828ZM406.044 38.2422C406.044 37.9922 406.117 37.7839 406.262 37.6172C406.413 37.4505 406.637 37.3672 406.934 37.3672C407.231 37.3672 407.455 37.4505 407.606 37.6172C407.762 37.7839 407.841 37.9922 407.841 38.2422C407.841 38.4818 407.762 38.6823 407.606 38.8438C407.455 39.0052 407.231 39.0859 406.934 39.0859C406.637 39.0859 406.413 39.0052 406.262 38.8438C406.117 38.6823 406.044 38.4818 406.044 38.2422Z" fill="#656668"/>
<path d="M19.1108 47.744H34.5028V45.312H23.4948C27.6228 41.952 33.8308 37.056 33.8308 31.296C33.8308 27.008 31.0148 24.448 26.6628 24.448C22.5028 24.448 19.3988 27.008 19.2068 31.936H22.0228C22.1508 29.024 23.6868 26.944 26.6948 26.944C29.8308 26.944 30.9508 28.864 30.9508 31.424C30.9508 36.16 25.1908 40.768 19.1108 45.664V47.744Z" fill="#656668"/>
</svg>
