<svg width="595" height="113" viewBox="0 0 595 113" fill="none" xmlns="http://www.w3.org/2000/svg">
<g filter="url(#filter0_d)">
<rect x="19" y="16" width="556.56" height="75" rx="24" fill="white"/>
</g>
<path d="M85.208 54.3984H82.5361V59H81.0283V47.625H84.7939C86.0752 47.625 87.0596 47.9167 87.7471 48.5C88.4398 49.0833 88.7861 49.9323 88.7861 51.0469C88.7861 51.7552 88.5934 52.3724 88.208 52.8984C87.8278 53.4245 87.2965 53.8177 86.6143 54.0781L89.2861 58.9062V59H87.6768L85.208 54.3984ZM82.5361 53.1719H84.8408C85.5856 53.1719 86.1768 52.9792 86.6143 52.5938C87.057 52.2083 87.2783 51.6927 87.2783 51.0469C87.2783 50.3438 87.0674 49.8047 86.6455 49.4297C86.2288 49.0547 85.6247 48.8646 84.833 48.8594H82.5361V53.1719ZM94.1768 59.1562C93.0309 59.1562 92.0986 58.7812 91.3799 58.0312C90.6611 57.276 90.3018 56.2682 90.3018 55.0078V54.7422C90.3018 53.9036 90.4606 53.1562 90.7783 52.5C91.1012 51.8385 91.5492 51.3229 92.1221 50.9531C92.7002 50.5781 93.3252 50.3906 93.9971 50.3906C95.096 50.3906 95.9502 50.7526 96.5596 51.4766C97.1689 52.2005 97.4736 53.237 97.4736 54.5859V55.1875H91.7471C91.7679 56.0208 92.0101 56.6953 92.4736 57.2109C92.9424 57.7214 93.5361 57.9766 94.2549 57.9766C94.7653 57.9766 95.1976 57.8724 95.5518 57.6641C95.9059 57.4557 96.2158 57.1797 96.4814 56.8359L97.3643 57.5234C96.6559 58.612 95.5934 59.1562 94.1768 59.1562ZM93.9971 51.5781C93.4137 51.5781 92.9242 51.7917 92.5283 52.2188C92.1325 52.6406 91.8877 53.2344 91.7939 54H96.0283V53.8906C95.9867 53.1562 95.7887 52.5885 95.4346 52.1875C95.0804 51.7812 94.6012 51.5781 93.9971 51.5781ZM98.8018 54.7031C98.8018 53.375 99.1064 52.3255 99.7158 51.5547C100.325 50.7786 101.143 50.3906 102.169 50.3906C103.169 50.3906 103.958 50.7266 104.536 51.3984L104.599 50.5469H105.927V62.25H104.481V58.2188C103.898 58.8438 103.122 59.1562 102.153 59.1562C101.132 59.1562 100.317 58.7604 99.708 57.9688C99.1038 57.1719 98.8018 56.1172 98.8018 54.8047V54.7031ZM100.247 54.8672C100.247 55.8359 100.45 56.5964 100.856 57.1484C101.268 57.7005 101.82 57.9766 102.513 57.9766C103.372 57.9766 104.028 57.5964 104.481 56.8359V52.6953C104.023 51.9505 103.372 51.5781 102.528 51.5781C101.83 51.5781 101.276 51.8568 100.864 52.4141C100.453 52.9661 100.247 53.7839 100.247 54.8672ZM113.466 58.1641C112.903 58.8255 112.078 59.1562 110.989 59.1562C110.088 59.1562 109.401 58.8958 108.927 58.375C108.458 57.849 108.221 57.0729 108.216 56.0469V50.5469H109.661V56.0078C109.661 57.2891 110.182 57.9297 111.224 57.9297C112.328 57.9297 113.062 57.5182 113.427 56.6953V50.5469H114.872V59H113.497L113.466 58.1641ZM120.583 59.1562C119.437 59.1562 118.505 58.7812 117.786 58.0312C117.067 57.276 116.708 56.2682 116.708 55.0078V54.7422C116.708 53.9036 116.867 53.1562 117.185 52.5C117.507 51.8385 117.955 51.3229 118.528 50.9531C119.106 50.5781 119.731 50.3906 120.403 50.3906C121.502 50.3906 122.356 50.7526 122.966 51.4766C123.575 52.2005 123.88 53.237 123.88 54.5859V55.1875H118.153C118.174 56.0208 118.416 56.6953 118.88 57.2109C119.349 57.7214 119.942 57.9766 120.661 57.9766C121.172 57.9766 121.604 57.8724 121.958 57.6641C122.312 57.4557 122.622 57.1797 122.888 56.8359L123.771 57.5234C123.062 58.612 122 59.1562 120.583 59.1562ZM120.403 51.5781C119.82 51.5781 119.33 51.7917 118.935 52.2188C118.539 52.6406 118.294 53.2344 118.2 54H122.435V53.8906C122.393 53.1562 122.195 52.5885 121.841 52.1875C121.487 51.7812 121.007 51.5781 120.403 51.5781ZM130.481 56.7578C130.481 56.3672 130.333 56.0651 130.036 55.8516C129.744 55.6328 129.231 55.4453 128.497 55.2891C127.768 55.1328 127.187 54.9453 126.755 54.7266C126.328 54.5078 126.01 54.2474 125.802 53.9453C125.599 53.6432 125.497 53.2839 125.497 52.8672C125.497 52.1745 125.789 51.5885 126.372 51.1094C126.961 50.6302 127.711 50.3906 128.622 50.3906C129.58 50.3906 130.356 50.638 130.95 51.1328C131.549 51.6276 131.849 52.2604 131.849 53.0312H130.396C130.396 52.6354 130.226 52.2943 129.888 52.0078C129.554 51.7214 129.132 51.5781 128.622 51.5781C128.096 51.5781 127.685 51.6927 127.388 51.9219C127.091 52.151 126.942 52.4505 126.942 52.8203C126.942 53.1693 127.08 53.4323 127.356 53.6094C127.632 53.7865 128.13 53.9557 128.849 54.1172C129.573 54.2786 130.159 54.4714 130.606 54.6953C131.054 54.9193 131.385 55.1901 131.599 55.5078C131.817 55.8203 131.927 56.2031 131.927 56.6562C131.927 57.4115 131.625 58.0182 131.021 58.4766C130.416 58.9297 129.632 59.1562 128.669 59.1562C127.992 59.1562 127.393 59.0365 126.872 58.7969C126.351 58.5573 125.942 58.224 125.646 57.7969C125.354 57.3646 125.208 56.8984 125.208 56.3984H126.653C126.679 56.8828 126.872 57.2682 127.231 57.5547C127.596 57.8359 128.075 57.9766 128.669 57.9766C129.216 57.9766 129.653 57.8672 129.981 57.6484C130.315 57.4245 130.481 57.1276 130.481 56.7578ZM135.771 48.5V50.5469H137.349V51.6641H135.771V56.9062C135.771 57.2448 135.841 57.5 135.981 57.6719C136.122 57.8385 136.362 57.9219 136.7 57.9219C136.867 57.9219 137.096 57.8906 137.388 57.8281V59C137.007 59.1042 136.638 59.1562 136.278 59.1562C135.632 59.1562 135.146 58.9609 134.817 58.5703C134.489 58.1797 134.325 57.625 134.325 56.9062V51.6641H132.786V50.5469H134.325V48.5H135.771ZM147.935 56.7578C147.935 56.3672 147.786 56.0651 147.489 55.8516C147.198 55.6328 146.685 55.4453 145.95 55.2891C145.221 55.1328 144.64 54.9453 144.208 54.7266C143.781 54.5078 143.463 54.2474 143.255 53.9453C143.052 53.6432 142.95 53.2839 142.95 52.8672C142.95 52.1745 143.242 51.5885 143.825 51.1094C144.414 50.6302 145.164 50.3906 146.075 50.3906C147.034 50.3906 147.81 50.638 148.403 51.1328C149.002 51.6276 149.302 52.2604 149.302 53.0312H147.849C147.849 52.6354 147.679 52.2943 147.341 52.0078C147.007 51.7214 146.586 51.5781 146.075 51.5781C145.549 51.5781 145.138 51.6927 144.841 51.9219C144.544 52.151 144.396 52.4505 144.396 52.8203C144.396 53.1693 144.534 53.4323 144.81 53.6094C145.086 53.7865 145.583 53.9557 146.302 54.1172C147.026 54.2786 147.612 54.4714 148.06 54.6953C148.507 54.9193 148.838 55.1901 149.052 55.5078C149.271 55.8203 149.38 56.2031 149.38 56.6562C149.38 57.4115 149.078 58.0182 148.474 58.4766C147.869 58.9297 147.086 59.1562 146.122 59.1562C145.445 59.1562 144.846 59.0365 144.325 58.7969C143.804 58.5573 143.396 58.224 143.099 57.7969C142.807 57.3646 142.661 56.8984 142.661 56.3984H144.106C144.132 56.8828 144.325 57.2682 144.685 57.5547C145.049 57.8359 145.528 57.9766 146.122 57.9766C146.669 57.9766 147.106 57.8672 147.435 57.6484C147.768 57.4245 147.935 57.1276 147.935 56.7578ZM154.771 59.1562C153.625 59.1562 152.692 58.7812 151.974 58.0312C151.255 57.276 150.896 56.2682 150.896 55.0078V54.7422C150.896 53.9036 151.054 53.1562 151.372 52.5C151.695 51.8385 152.143 51.3229 152.716 50.9531C153.294 50.5781 153.919 50.3906 154.591 50.3906C155.69 50.3906 156.544 50.7526 157.153 51.4766C157.763 52.2005 158.067 53.237 158.067 54.5859V55.1875H152.341C152.362 56.0208 152.604 56.6953 153.067 57.2109C153.536 57.7214 154.13 57.9766 154.849 57.9766C155.359 57.9766 155.791 57.8724 156.146 57.6641C156.5 57.4557 156.81 57.1797 157.075 56.8359L157.958 57.5234C157.25 58.612 156.187 59.1562 154.771 59.1562ZM154.591 51.5781C154.007 51.5781 153.518 51.7917 153.122 52.2188C152.726 52.6406 152.481 53.2344 152.388 54H156.622V53.8906C156.58 53.1562 156.382 52.5885 156.028 52.1875C155.674 51.7812 155.195 51.5781 154.591 51.5781ZM161.114 50.5469L161.161 51.6094C161.807 50.7969 162.651 50.3906 163.692 50.3906C165.479 50.3906 166.38 51.3984 166.396 53.4141V59H164.95V53.4062C164.945 52.7969 164.804 52.3464 164.528 52.0547C164.257 51.763 163.833 51.6172 163.255 51.6172C162.786 51.6172 162.375 51.7422 162.021 51.9922C161.666 52.2422 161.39 52.5703 161.192 52.9766V59H159.747V50.5469H161.114ZM170.536 48.5V50.5469H172.114V51.6641H170.536V56.9062C170.536 57.2448 170.606 57.5 170.747 57.6719C170.888 57.8385 171.127 57.9219 171.466 57.9219C171.632 57.9219 171.862 57.8906 172.153 57.8281V59C171.773 59.1042 171.403 59.1562 171.044 59.1562C170.398 59.1562 169.911 58.9609 169.583 58.5703C169.255 58.1797 169.091 57.625 169.091 56.9062V51.6641H167.552V50.5469H169.091V48.5H170.536ZM182.7 56.7578C182.7 56.3672 182.552 56.0651 182.255 55.8516C181.963 55.6328 181.45 55.4453 180.716 55.2891C179.987 55.1328 179.406 54.9453 178.974 54.7266C178.547 54.5078 178.229 54.2474 178.021 53.9453C177.817 53.6432 177.716 53.2839 177.716 52.8672C177.716 52.1745 178.007 51.5885 178.591 51.1094C179.179 50.6302 179.929 50.3906 180.841 50.3906C181.799 50.3906 182.575 50.638 183.169 51.1328C183.768 51.6276 184.067 52.2604 184.067 53.0312H182.614C182.614 52.6354 182.445 52.2943 182.106 52.0078C181.773 51.7214 181.351 51.5781 180.841 51.5781C180.315 51.5781 179.903 51.6927 179.606 51.9219C179.31 52.151 179.161 52.4505 179.161 52.8203C179.161 53.1693 179.299 53.4323 179.575 53.6094C179.851 53.7865 180.349 53.9557 181.067 54.1172C181.791 54.2786 182.377 54.4714 182.825 54.6953C183.273 54.9193 183.604 55.1901 183.817 55.5078C184.036 55.8203 184.146 56.2031 184.146 56.6562C184.146 57.4115 183.843 58.0182 183.239 58.4766C182.635 58.9297 181.851 59.1562 180.888 59.1562C180.211 59.1562 179.612 59.0365 179.091 58.7969C178.57 58.5573 178.161 58.224 177.864 57.7969C177.573 57.3646 177.427 56.8984 177.427 56.3984H178.872C178.898 56.8828 179.091 57.2682 179.45 57.5547C179.815 57.8359 180.294 57.9766 180.888 57.9766C181.435 57.9766 181.872 57.8672 182.2 57.6484C182.534 57.4245 182.7 57.1276 182.7 56.7578ZM191.247 58.1641C190.685 58.8255 189.859 59.1562 188.771 59.1562C187.869 59.1562 187.182 58.8958 186.708 58.375C186.239 57.849 186.002 57.0729 185.997 56.0469V50.5469H187.442V56.0078C187.442 57.2891 187.963 57.9297 189.005 57.9297C190.109 57.9297 190.843 57.5182 191.208 56.6953V50.5469H192.653V59H191.278L191.247 58.1641ZM198.247 57.9766C198.763 57.9766 199.213 57.8203 199.599 57.5078C199.984 57.1953 200.198 56.8047 200.239 56.3359H201.606C201.58 56.8203 201.414 57.2812 201.106 57.7188C200.799 58.1562 200.388 58.5052 199.872 58.7656C199.362 59.026 198.82 59.1562 198.247 59.1562C197.096 59.1562 196.179 58.7734 195.497 58.0078C194.82 57.237 194.481 56.1849 194.481 54.8516V54.6094C194.481 53.7865 194.632 53.0547 194.935 52.4141C195.237 51.7734 195.669 51.276 196.231 50.9219C196.799 50.5677 197.468 50.3906 198.239 50.3906C199.187 50.3906 199.974 50.6745 200.599 51.2422C201.229 51.8099 201.565 52.5469 201.606 53.4531H200.239C200.198 52.9062 199.989 52.4583 199.614 52.1094C199.244 51.7552 198.786 51.5781 198.239 51.5781C197.505 51.5781 196.935 51.8438 196.528 52.375C196.127 52.901 195.927 53.6641 195.927 54.6641V54.9375C195.927 55.9115 196.127 56.6615 196.528 57.1875C196.929 57.7135 197.502 57.9766 198.247 57.9766ZM206.622 57.9766C207.138 57.9766 207.588 57.8203 207.974 57.5078C208.359 57.1953 208.573 56.8047 208.614 56.3359H209.981C209.955 56.8203 209.789 57.2812 209.481 57.7188C209.174 58.1562 208.763 58.5052 208.247 58.7656C207.737 59.026 207.195 59.1562 206.622 59.1562C205.471 59.1562 204.554 58.7734 203.872 58.0078C203.195 57.237 202.856 56.1849 202.856 54.8516V54.6094C202.856 53.7865 203.007 53.0547 203.31 52.4141C203.612 51.7734 204.044 51.276 204.606 50.9219C205.174 50.5677 205.843 50.3906 206.614 50.3906C207.562 50.3906 208.349 50.6745 208.974 51.2422C209.604 51.8099 209.94 52.5469 209.981 53.4531H208.614C208.573 52.9062 208.364 52.4583 207.989 52.1094C207.619 51.7552 207.161 51.5781 206.614 51.5781C205.88 51.5781 205.31 51.8438 204.903 52.375C204.502 52.901 204.302 53.6641 204.302 54.6641V54.9375C204.302 55.9115 204.502 56.6615 204.903 57.1875C205.304 57.7135 205.877 57.9766 206.622 57.9766ZM215.114 59.1562C213.968 59.1562 213.036 58.7812 212.317 58.0312C211.599 57.276 211.239 56.2682 211.239 55.0078V54.7422C211.239 53.9036 211.398 53.1562 211.716 52.5C212.039 51.8385 212.487 51.3229 213.06 50.9531C213.638 50.5781 214.263 50.3906 214.935 50.3906C216.034 50.3906 216.888 50.7526 217.497 51.4766C218.106 52.2005 218.411 53.237 218.411 54.5859V55.1875H212.685C212.705 56.0208 212.948 56.6953 213.411 57.2109C213.88 57.7214 214.474 57.9766 215.192 57.9766C215.703 57.9766 216.135 57.8724 216.489 57.6641C216.843 57.4557 217.153 57.1797 217.419 56.8359L218.302 57.5234C217.593 58.612 216.531 59.1562 215.114 59.1562ZM214.935 51.5781C214.351 51.5781 213.862 51.7917 213.466 52.2188C213.07 52.6406 212.825 53.2344 212.731 54H216.966V53.8906C216.924 53.1562 216.726 52.5885 216.372 52.1875C216.018 51.7812 215.539 51.5781 214.935 51.5781ZM225.013 56.7578C225.013 56.3672 224.864 56.0651 224.567 55.8516C224.276 55.6328 223.763 55.4453 223.028 55.2891C222.299 55.1328 221.718 54.9453 221.286 54.7266C220.859 54.5078 220.541 54.2474 220.333 53.9453C220.13 53.6432 220.028 53.2839 220.028 52.8672C220.028 52.1745 220.32 51.5885 220.903 51.1094C221.492 50.6302 222.242 50.3906 223.153 50.3906C224.112 50.3906 224.888 50.638 225.481 51.1328C226.08 51.6276 226.38 52.2604 226.38 53.0312H224.927C224.927 52.6354 224.757 52.2943 224.419 52.0078C224.086 51.7214 223.664 51.5781 223.153 51.5781C222.627 51.5781 222.216 51.6927 221.919 51.9219C221.622 52.151 221.474 52.4505 221.474 52.8203C221.474 53.1693 221.612 53.4323 221.888 53.6094C222.164 53.7865 222.661 53.9557 223.38 54.1172C224.104 54.2786 224.69 54.4714 225.138 54.6953C225.586 54.9193 225.916 55.1901 226.13 55.5078C226.349 55.8203 226.458 56.2031 226.458 56.6562C226.458 57.4115 226.156 58.0182 225.552 58.4766C224.948 58.9297 224.164 59.1562 223.2 59.1562C222.523 59.1562 221.924 59.0365 221.403 58.7969C220.882 58.5573 220.474 58.224 220.177 57.7969C219.885 57.3646 219.739 56.8984 219.739 56.3984H221.185C221.211 56.8828 221.403 57.2682 221.763 57.5547C222.127 57.8359 222.606 57.9766 223.2 57.9766C223.747 57.9766 224.185 57.8672 224.513 57.6484C224.846 57.4245 225.013 57.1276 225.013 56.7578ZM233.263 56.7578C233.263 56.3672 233.114 56.0651 232.817 55.8516C232.526 55.6328 232.013 55.4453 231.278 55.2891C230.549 55.1328 229.968 54.9453 229.536 54.7266C229.109 54.5078 228.791 54.2474 228.583 53.9453C228.38 53.6432 228.278 53.2839 228.278 52.8672C228.278 52.1745 228.57 51.5885 229.153 51.1094C229.742 50.6302 230.492 50.3906 231.403 50.3906C232.362 50.3906 233.138 50.638 233.731 51.1328C234.33 51.6276 234.63 52.2604 234.63 53.0312H233.177C233.177 52.6354 233.007 52.2943 232.669 52.0078C232.336 51.7214 231.914 51.5781 231.403 51.5781C230.877 51.5781 230.466 51.6927 230.169 51.9219C229.872 52.151 229.724 52.4505 229.724 52.8203C229.724 53.1693 229.862 53.4323 230.138 53.6094C230.414 53.7865 230.911 53.9557 231.63 54.1172C232.354 54.2786 232.94 54.4714 233.388 54.6953C233.836 54.9193 234.166 55.1901 234.38 55.5078C234.599 55.8203 234.708 56.2031 234.708 56.6562C234.708 57.4115 234.406 58.0182 233.802 58.4766C233.198 58.9297 232.414 59.1562 231.45 59.1562C230.773 59.1562 230.174 59.0365 229.653 58.7969C229.132 58.5573 228.724 58.224 228.427 57.7969C228.135 57.3646 227.989 56.8984 227.989 56.3984H229.435C229.461 56.8828 229.653 57.2682 230.013 57.5547C230.377 57.8359 230.856 57.9766 231.45 57.9766C231.997 57.9766 232.435 57.8672 232.763 57.6484C233.096 57.4245 233.263 57.1276 233.263 56.7578ZM237.302 59V51.6641H235.966V50.5469H237.302V49.6797C237.302 48.7734 237.544 48.0729 238.028 47.5781C238.513 47.0833 239.198 46.8359 240.083 46.8359C240.416 46.8359 240.747 46.8802 241.075 46.9688L240.997 48.1406C240.752 48.0938 240.492 48.0703 240.216 48.0703C239.747 48.0703 239.385 48.2083 239.13 48.4844C238.875 48.7552 238.747 49.1458 238.747 49.6562V50.5469H240.552V51.6641H238.747V59H237.302ZM247.372 58.1641C246.81 58.8255 245.984 59.1562 244.896 59.1562C243.994 59.1562 243.307 58.8958 242.833 58.375C242.364 57.849 242.127 57.0729 242.122 56.0469V50.5469H243.567V56.0078C243.567 57.2891 244.088 57.9297 245.13 57.9297C246.234 57.9297 246.968 57.5182 247.333 56.6953V50.5469H248.778V59H247.403L247.372 58.1641ZM252.552 59H251.106V47H252.552V59ZM256.442 59H254.997V47H256.442V59ZM261.528 56.8828L263.497 50.5469H265.044L261.646 60.3047C261.119 61.7109 260.284 62.4141 259.138 62.4141L258.864 62.3906L258.325 62.2891V61.1172L258.716 61.1484C259.205 61.1484 259.586 61.0495 259.856 60.8516C260.132 60.6536 260.359 60.2917 260.536 59.7656L260.856 58.9062L257.841 50.5469H259.419L261.528 56.8828ZM265.528 58.2422C265.528 57.9922 265.601 57.7839 265.747 57.6172C265.898 57.4505 266.122 57.3672 266.419 57.3672C266.716 57.3672 266.94 57.4505 267.091 57.6172C267.247 57.7839 267.325 57.9922 267.325 58.2422C267.325 58.4818 267.247 58.6823 267.091 58.8438C266.94 59.0052 266.716 59.0859 266.419 59.0859C266.122 59.0859 265.898 59.0052 265.747 58.8438C265.601 58.6823 265.528 58.4818 265.528 58.2422Z" fill="#6654A4"/>
<path d="M47.7587 65H50.6387V59.848H53.8387V57.32H50.6387V42.088H47.1507L35.9187 57.64V59.848H47.7587V65ZM39.2787 57.32L47.8867 45.128V57.32H39.2787Z" fill="#6654A4"/>
<defs>
<filter id="filter0_d" x="0" y="0" width="594.56" height="113" filterUnits="userSpaceOnUse" color-interpolation-filters="sRGB">
<feFlood flood-opacity="0" result="BackgroundImageFix"/>
<feColorMatrix in="SourceAlpha" type="matrix" values="0 0 0 0 0 0 0 0 0 0 0 0 0 0 0 0 0 0 127 0"/>
<feMorphology radius="4" operator="dilate" in="SourceAlpha" result="effect1_dropShadow"/>
<feOffset dy="3"/>
<feGaussianBlur stdDeviation="7.5"/>
<feColorMatrix type="matrix" values="0 0 0 0 0.872109 0 0 0 0 0.853125 0 0 0 0 0.9375 0 0 0 0.5 0"/>
<feBlend mode="normal" in2="BackgroundImageFix" result="effect1_dropShadow"/>
<feBlend mode="normal" in="SourceGraphic" in2="effect1_dropShadow" result="shape"/>
</filter>
</defs>
</svg>
