<svg width="1101" height="351" viewBox="0 0 1101 351" fill="none" xmlns="http://www.w3.org/2000/svg">
<path d="M741.2 136.4C741.2 126.08 726.16 130.56 726.16 123.36C726.16 120.36 728.52 118.8 731.52 118.88C734.92 118.92 736.68 121.04 736.92 122.92H740.92C740.48 118.68 737 115.76 731.68 115.76C726.16 115.76 722.44 118.88 722.44 123.48C722.44 133.84 737.52 129.04 737.52 136.56C737.52 139.2 735.44 141.2 731.92 141.2C728.04 141.2 726.4 138.88 726.16 136.56H722.28C722.36 141.16 726.32 144.28 731.92 144.28C737.96 144.28 741.2 140.36 741.2 136.4ZM750.197 126.12V122.08H746.557V154.4H750.197V139.96C751.557 142.2 754.397 144.36 758.397 144.36C764.277 144.36 768.797 139.76 768.797 132.96C768.797 126.12 764.277 121.72 758.397 121.72C754.397 121.72 751.517 123.8 750.197 126.12ZM765.077 132.96C765.077 138.12 761.677 141.16 757.637 141.16C753.677 141.16 750.197 138.16 750.197 133C750.197 127.92 753.677 124.88 757.637 124.88C761.677 124.88 765.077 127.8 765.077 132.96ZM773.588 144H777.228V114.4H773.588V144ZM783.432 144H787.072V122.08H783.432V144ZM785.312 118.52C786.632 118.52 787.712 117.44 787.712 116.04C787.712 114.64 786.632 113.56 785.312 113.56C783.912 113.56 782.832 114.64 782.832 116.04C782.832 117.44 783.912 118.52 785.312 118.52ZM794.075 138C794.075 142.4 796.275 144 800.155 144H803.435V140.92H800.755C798.515 140.92 797.715 140.16 797.715 138V125.08H803.435V122.08H797.715V116.56H794.075V122.08H791.235V125.08H794.075V138ZM822.15 126.16V114.4H818.51V144H822.15V139.96C823.51 142.36 826.35 144.36 830.35 144.36C836.23 144.36 840.75 139.76 840.75 132.96C840.75 126.12 836.27 121.72 830.35 121.72C826.47 121.72 823.55 123.72 822.15 126.16ZM837.03 132.96C837.03 138.12 833.63 141.16 829.59 141.16C825.63 141.16 822.15 138.16 822.15 133C822.15 127.92 825.63 124.88 829.59 124.88C833.63 124.88 837.03 127.8 837.03 132.96ZM845.541 144H849.181V122.08H845.541V144ZM847.421 118.52C848.741 118.52 849.821 117.44 849.821 116.04C849.821 114.64 848.741 113.56 847.421 113.56C846.021 113.56 844.941 114.64 844.941 116.04C844.941 117.44 846.021 118.52 847.421 118.52ZM855.385 144H859.025V114.4H855.385V144ZM865.228 144H868.868V114.4H865.228V144ZM890.832 138.04C890.672 130.2 877.952 133.04 877.952 127.84C877.952 126.08 879.552 124.8 882.232 124.8C885.152 124.8 886.832 126.4 886.992 128.6H890.632C890.392 124.32 887.192 121.72 882.352 121.72C877.472 121.72 874.312 124.48 874.312 127.84C874.312 136 887.272 133.16 887.272 138.04C887.272 139.84 885.672 141.28 882.792 141.28C879.712 141.28 877.832 139.68 877.632 137.56H873.872C874.112 141.56 877.712 144.36 882.832 144.36C887.672 144.36 890.832 141.64 890.832 138.04Z" fill="#0F001A"/>
<path d="M721.232 212H722.688V200.848H721.232V212ZM731.586 212H733.026V206.832C733.026 204.32 731.474 203.072 729.442 203.072C728.258 203.072 727.202 203.568 726.626 204.48V203.232H725.17V212H726.626V207.152C726.626 205.264 727.65 204.336 729.138 204.336C730.61 204.336 731.586 205.248 731.586 207.04V212ZM741.708 209.616C741.644 206.48 736.556 207.616 736.556 205.536C736.556 204.832 737.196 204.32 738.268 204.32C739.436 204.32 740.108 204.96 740.172 205.84H741.628C741.532 204.128 740.252 203.088 738.316 203.088C736.364 203.088 735.1 204.192 735.1 205.536C735.1 208.8 740.284 207.664 740.284 209.616C740.284 210.336 739.644 210.912 738.492 210.912C737.26 210.912 736.508 210.272 736.428 209.424H734.924C735.02 211.024 736.46 212.144 738.508 212.144C740.444 212.144 741.708 211.056 741.708 209.616ZM744.083 209.6C744.083 211.36 744.963 212 746.515 212H747.827V210.768H746.755C745.859 210.768 745.539 210.464 745.539 209.6V204.432H747.827V203.232H745.539V201.024H744.083V203.232H742.947V204.432H744.083V209.6ZM749.047 207.584C749.047 210.304 750.855 212.144 753.191 212.144C754.807 212.144 755.943 211.312 756.471 210.368V212H757.943V203.232H756.471V204.832C755.959 203.92 754.839 203.088 753.207 203.088C750.855 203.088 749.047 204.848 749.047 207.584ZM756.471 207.6C756.471 209.664 755.095 210.864 753.495 210.864C751.895 210.864 750.535 209.648 750.535 207.584C750.535 205.52 751.895 204.352 753.495 204.352C755.095 204.352 756.471 205.568 756.471 207.6ZM766.82 212H768.26V206.832C768.26 204.32 766.708 203.072 764.676 203.072C763.492 203.072 762.436 203.568 761.86 204.48V203.232H760.404V212H761.86V207.152C761.86 205.264 762.884 204.336 764.372 204.336C765.844 204.336 766.82 205.248 766.82 207.04V212ZM770.958 209.6C770.958 211.36 771.838 212 773.39 212H774.702V210.768H773.63C772.734 210.768 772.414 210.464 772.414 209.6V204.432H774.702V203.232H772.414V201.024H770.958V203.232H769.822V204.432H770.958V209.6ZM776.466 212H777.922V200.16H776.466V212ZM783.732 210.336L780.98 203.232H779.364L782.9 211.904L781.172 216.128H782.676L787.956 203.232H786.452L783.732 210.336ZM795.141 204.848V203.232H793.685V216.16H795.141V210.384C795.685 211.28 796.821 212.144 798.421 212.144C800.773 212.144 802.581 210.304 802.581 207.584C802.581 204.848 800.773 203.088 798.421 203.088C796.821 203.088 795.669 203.92 795.141 204.848ZM801.093 207.584C801.093 209.648 799.733 210.864 798.117 210.864C796.533 210.864 795.141 209.664 795.141 207.6C795.141 205.568 796.533 204.352 798.117 204.352C799.733 204.352 801.093 205.52 801.093 207.584ZM803.954 207.584C803.954 210.304 805.762 212.144 808.098 212.144C809.714 212.144 810.85 211.312 811.378 210.368V212H812.85V203.232H811.378V204.832C810.866 203.92 809.746 203.088 808.114 203.088C805.762 203.088 803.954 204.848 803.954 207.584ZM811.378 207.6C811.378 209.664 810.002 210.864 808.402 210.864C806.802 210.864 805.442 209.648 805.442 207.584C805.442 205.52 806.802 204.352 808.402 204.352C810.002 204.352 811.378 205.568 811.378 207.6ZM818.638 210.336L815.886 203.232H814.27L817.806 211.904L816.078 216.128H817.582L822.862 203.232H821.358L818.638 210.336ZM830.047 204.864V200.16H828.591V212H830.047V210.384C830.591 211.344 831.727 212.144 833.327 212.144C835.679 212.144 837.487 210.304 837.487 207.584C837.487 204.848 835.695 203.088 833.327 203.088C831.775 203.088 830.607 203.888 830.047 204.864ZM835.999 207.584C835.999 209.648 834.639 210.864 833.023 210.864C831.439 210.864 830.047 209.664 830.047 207.6C830.047 205.568 831.439 204.352 833.023 204.352C834.639 204.352 835.999 205.52 835.999 207.584ZM838.86 207.584C838.86 210.304 840.668 212.144 843.004 212.144C844.62 212.144 845.756 211.312 846.284 210.368V212H847.756V203.232H846.284V204.832C845.772 203.92 844.652 203.088 843.02 203.088C840.668 203.088 838.86 204.848 838.86 207.584ZM846.284 207.6C846.284 209.664 844.908 210.864 843.308 210.864C841.708 210.864 840.348 209.648 840.348 207.584C840.348 205.52 841.708 204.352 843.308 204.352C844.908 204.352 846.284 205.568 846.284 207.6ZM849.672 207.6C849.672 210.384 851.448 212.144 853.944 212.144C856.12 212.144 857.544 210.928 857.992 209.184H856.424C856.104 210.288 855.24 210.912 853.944 210.912C852.344 210.912 851.16 209.776 851.16 207.6C851.16 205.456 852.344 204.32 853.944 204.32C855.24 204.32 856.12 204.992 856.424 206.048H857.992C857.544 204.208 856.12 203.088 853.944 203.088C851.448 203.088 849.672 204.848 849.672 207.6ZM859.935 212H861.391V208.128L864.831 212H866.815L862.671 207.6L866.799 203.232H864.767L861.391 207.12V200.16H859.935V212ZM871.891 207.584C871.891 210.304 873.699 212.144 876.035 212.144C877.651 212.144 878.787 211.312 879.315 210.368V212H880.787V203.232H879.315V204.832C878.803 203.92 877.683 203.088 876.051 203.088C873.699 203.088 871.891 204.848 871.891 207.584ZM879.315 207.6C879.315 209.664 877.939 210.864 876.339 210.864C874.739 210.864 873.379 209.648 873.379 207.584C873.379 205.52 874.739 204.352 876.339 204.352C877.939 204.352 879.315 205.568 879.315 207.6ZM889.664 212H891.104V206.832C891.104 204.32 889.552 203.072 887.52 203.072C886.336 203.072 885.28 203.568 884.704 204.48V203.232H883.248V212H884.704V207.152C884.704 205.264 885.728 204.336 887.216 204.336C888.688 204.336 889.664 205.248 889.664 207.04V212ZM896.81 210.336L894.058 203.232H892.442L895.978 211.904L894.25 216.128H895.754L901.034 203.232H899.53L896.81 210.336ZM910.818 207.6C910.818 204.832 908.882 203.088 906.386 203.088C903.906 203.088 901.954 204.832 901.954 207.6C901.954 210.384 903.842 212.144 906.322 212.144C908.818 212.144 910.818 210.384 910.818 207.6ZM903.442 207.6C903.442 205.392 904.834 204.352 906.37 204.352C907.874 204.352 909.33 205.392 909.33 207.6C909.33 209.824 907.842 210.864 906.322 210.864C904.802 210.864 903.442 209.824 903.442 207.6ZM919.148 212H920.588V206.832C920.588 204.32 919.036 203.072 917.004 203.072C915.82 203.072 914.764 203.568 914.188 204.48V203.232H912.732V212H914.188V207.152C914.188 205.264 915.212 204.336 916.7 204.336C918.172 204.336 919.148 205.248 919.148 207.04V212ZM926.694 204.32C928.198 204.32 929.478 205.264 929.462 206.976H923.926C924.086 205.264 925.27 204.32 926.694 204.32ZM930.79 209.296H929.222C928.902 210.24 928.07 210.912 926.758 210.912C925.27 210.912 924.022 209.936 923.91 208.16H930.918C930.95 207.856 930.966 207.6 930.966 207.28C930.966 204.88 929.302 203.088 926.758 203.088C924.198 203.088 922.422 204.832 922.422 207.6C922.422 210.384 924.262 212.144 926.758 212.144C928.934 212.144 930.342 210.896 930.79 209.296ZM937.474 209.6C937.474 211.36 938.354 212 939.906 212H941.218V210.768H940.146C939.25 210.768 938.93 210.464 938.93 209.6V204.432H941.218V203.232H938.93V201.024H937.474V203.232H936.338V204.432H937.474V209.6ZM942.982 212H944.438V207.152C944.438 205.264 945.462 204.336 946.95 204.336C948.422 204.336 949.398 205.248 949.398 207.04V212H950.838V206.832C950.838 204.32 949.286 203.072 947.334 203.072C946.102 203.072 945.014 203.568 944.438 204.496V200.16H942.982V212ZM956.944 204.32C958.448 204.32 959.728 205.264 959.712 206.976H954.176C954.336 205.264 955.52 204.32 956.944 204.32ZM961.04 209.296H959.472C959.152 210.24 958.32 210.912 957.008 210.912C955.52 210.912 954.272 209.936 954.16 208.16H961.168C961.2 207.856 961.216 207.6 961.216 207.28C961.216 204.88 959.552 203.088 957.008 203.088C954.448 203.088 952.672 204.832 952.672 207.6C952.672 210.384 954.512 212.144 957.008 212.144C959.184 212.144 960.592 210.896 961.04 209.296ZM966.86 207.584C966.86 210.304 968.668 212.144 971.02 212.144C972.62 212.144 973.756 211.328 974.284 210.352V212H975.756V200.16H974.284V204.8C973.676 203.792 972.412 203.088 971.036 203.088C968.668 203.088 966.86 204.848 966.86 207.584ZM974.284 207.6C974.284 209.664 972.908 210.864 971.308 210.864C969.708 210.864 968.348 209.648 968.348 207.584C968.348 205.52 969.708 204.352 971.308 204.352C972.908 204.352 974.284 205.568 974.284 207.6ZM978.216 212H979.672V203.232H978.216V212ZM978.968 201.808C979.496 201.808 979.928 201.376 979.928 200.816C979.928 200.256 979.496 199.824 978.968 199.824C978.408 199.824 977.976 200.256 977.976 200.816C977.976 201.376 978.408 201.808 978.968 201.808ZM988.57 212H990.01V206.832C990.01 204.32 988.458 203.072 986.426 203.072C985.242 203.072 984.186 203.568 983.61 204.48V203.232H982.154V212H983.61V207.152C983.61 205.264 984.634 204.336 986.122 204.336C987.594 204.336 988.57 205.248 988.57 207.04V212ZM998.804 212H1000.24V206.832C1000.24 204.32 998.692 203.072 996.66 203.072C995.476 203.072 994.42 203.568 993.844 204.48V203.232H992.388V212H993.844V207.152C993.844 205.264 994.868 204.336 996.356 204.336C997.828 204.336 998.804 205.248 998.804 207.04V212ZM1006.35 204.32C1007.85 204.32 1009.13 205.264 1009.12 206.976H1003.58C1003.74 205.264 1004.93 204.32 1006.35 204.32ZM1010.45 209.296H1008.88C1008.56 210.24 1007.73 210.912 1006.41 210.912C1004.93 210.912 1003.68 209.936 1003.57 208.16H1010.57C1010.61 207.856 1010.62 207.6 1010.62 207.28C1010.62 204.88 1008.96 203.088 1006.41 203.088C1003.85 203.088 1002.08 204.832 1002.08 207.6C1002.08 210.384 1003.92 212.144 1006.41 212.144C1008.59 212.144 1010 210.896 1010.45 209.296ZM1014 207.232C1014 205.2 1015.06 204.576 1016.45 204.576H1016.83V203.072C1015.44 203.072 1014.5 203.68 1014 204.656V203.232H1012.54V212H1014V207.232ZM1031.1 207.6C1031.1 204.832 1029.16 203.088 1026.67 203.088C1024.19 203.088 1022.23 204.832 1022.23 207.6C1022.23 210.384 1024.12 212.144 1026.6 212.144C1029.1 212.144 1031.1 210.384 1031.1 207.6ZM1023.72 207.6C1023.72 205.392 1025.11 204.352 1026.65 204.352C1028.15 204.352 1029.61 205.392 1029.61 207.6C1029.61 209.824 1028.12 210.864 1026.6 210.864C1025.08 210.864 1023.72 209.824 1023.72 207.6ZM1034.47 207.232C1034.47 205.2 1035.53 204.576 1036.92 204.576H1037.3V203.072C1035.91 203.072 1034.97 203.68 1034.47 204.656V203.232H1033.01V212H1034.47V207.232ZM1042.7 207.584C1042.7 210.304 1044.51 212.144 1046.85 212.144C1048.46 212.144 1049.6 211.312 1050.13 210.368V212H1051.6V203.232H1050.13V204.832C1049.62 203.92 1048.5 203.088 1046.86 203.088C1044.51 203.088 1042.7 204.848 1042.7 207.584ZM1050.13 207.6C1050.13 209.664 1048.75 210.864 1047.15 210.864C1045.55 210.864 1044.19 209.648 1044.19 207.584C1044.19 205.52 1045.55 204.352 1047.15 204.352C1048.75 204.352 1050.13 205.568 1050.13 207.6ZM1060.48 212H1061.92V206.832C1061.92 204.32 1060.36 203.072 1058.33 203.072C1057.15 203.072 1056.09 203.568 1055.52 204.48V203.232H1054.06V212H1055.52V207.152C1055.52 205.264 1056.54 204.336 1058.03 204.336C1059.5 204.336 1060.48 205.248 1060.48 207.04V212ZM1067.62 210.336L1064.87 203.232H1063.25L1066.79 211.904L1065.06 216.128H1066.57L1071.85 203.232H1070.34L1067.62 210.336ZM720.688 237.584C720.688 240.304 722.496 242.144 724.832 242.144C726.448 242.144 727.584 241.312 728.112 240.368V242H729.584V233.232H728.112V234.832C727.6 233.92 726.48 233.088 724.848 233.088C722.496 233.088 720.688 234.848 720.688 237.584ZM728.112 237.6C728.112 239.664 726.736 240.864 725.136 240.864C723.536 240.864 722.176 239.648 722.176 237.584C722.176 235.52 723.536 234.352 725.136 234.352C726.736 234.352 728.112 235.568 728.112 237.6ZM731.501 237.6C731.501 240.384 733.277 242.144 735.773 242.144C737.949 242.144 739.373 240.928 739.821 239.184H738.253C737.933 240.288 737.069 240.912 735.773 240.912C734.173 240.912 732.989 239.776 732.989 237.6C732.989 235.456 734.173 234.32 735.773 234.32C737.069 234.32 737.949 234.992 738.253 236.048H739.821C739.373 234.208 737.949 233.088 735.773 233.088C733.277 233.088 731.501 234.848 731.501 237.6ZM742.083 239.6C742.083 241.36 742.963 242 744.515 242H745.827V240.768H744.755C743.859 240.768 743.539 240.464 743.539 239.6V234.432H745.827V233.232H743.539V231.024H742.083V233.232H740.947V234.432H742.083V239.6ZM747.591 242H749.047V233.232H747.591V242ZM748.343 231.808C748.871 231.808 749.303 231.376 749.303 230.816C749.303 230.256 748.871 229.824 748.343 229.824C747.783 229.824 747.351 230.256 747.351 230.816C747.351 231.376 747.783 231.808 748.343 231.808ZM750.489 233.232L753.929 242H755.625L759.065 233.232H757.513L754.793 240.656L752.057 233.232H750.489ZM760.498 242H761.954V233.232H760.498V242ZM761.25 231.808C761.778 231.808 762.21 231.376 762.21 230.816C762.21 230.256 761.778 229.824 761.25 229.824C760.69 229.824 760.258 230.256 760.258 230.816C760.258 231.376 760.69 231.808 761.25 231.808ZM764.755 239.6C764.755 241.36 765.635 242 767.187 242H768.499V240.768H767.427C766.531 240.768 766.211 240.464 766.211 239.6V234.432H768.499V233.232H766.211V231.024H764.755V233.232H763.619V234.432H764.755V239.6ZM773.591 240.336L770.839 233.232H769.223L772.759 241.904L771.031 246.128H772.535L777.815 233.232H776.311L773.591 240.336ZM783.865 239.6C783.865 241.36 784.745 242 786.297 242H787.609V240.768H786.536C785.641 240.768 785.321 240.464 785.321 239.6V234.432H787.609V233.232H785.321V231.024H783.865V233.232H782.729V234.432H783.865V239.6ZM789.373 242H790.829V237.152C790.829 235.264 791.853 234.336 793.341 234.336C794.813 234.336 795.789 235.248 795.789 237.04V242H797.229V236.832C797.229 234.32 795.677 233.072 793.725 233.072C792.493 233.072 791.405 233.568 790.829 234.496V230.16H789.373V242ZM803.335 234.32C804.839 234.32 806.119 235.264 806.103 236.976H800.567C800.727 235.264 801.911 234.32 803.335 234.32ZM807.431 239.296H805.863C805.543 240.24 804.711 240.912 803.399 240.912C801.911 240.912 800.663 239.936 800.551 238.16H807.559C807.591 237.856 807.607 237.6 807.607 237.28C807.607 234.88 805.943 233.088 803.399 233.088C800.839 233.088 799.063 234.832 799.063 237.6C799.063 240.384 800.903 242.144 803.399 242.144C805.575 242.144 806.983 240.896 807.431 239.296ZM812.857 240.336L810.105 233.232H808.489L812.025 241.904L810.297 246.128H811.801L817.081 233.232H815.577L812.857 240.336ZM824.266 234.864V230.16H822.81V242H824.266V240.384C824.81 241.344 825.946 242.144 827.546 242.144C829.898 242.144 831.706 240.304 831.706 237.584C831.706 234.848 829.914 233.088 827.546 233.088C825.994 233.088 824.826 233.888 824.266 234.864ZM830.218 237.584C830.218 239.648 828.858 240.864 827.242 240.864C825.658 240.864 824.266 239.664 824.266 237.6C824.266 235.568 825.658 234.352 827.242 234.352C828.858 234.352 830.218 235.52 830.218 237.584ZM841.943 237.6C841.943 234.832 840.007 233.088 837.511 233.088C835.031 233.088 833.079 234.832 833.079 237.6C833.079 240.384 834.967 242.144 837.447 242.144C839.943 242.144 841.943 240.384 841.943 237.6ZM834.567 237.6C834.567 235.392 835.959 234.352 837.495 234.352C838.999 234.352 840.455 235.392 840.455 237.6C840.455 239.824 838.967 240.864 837.447 240.864C835.927 240.864 834.567 239.824 834.567 237.6ZM852.177 237.6C852.177 234.832 850.241 233.088 847.745 233.088C845.265 233.088 843.313 234.832 843.313 237.6C843.313 240.384 845.201 242.144 847.681 242.144C850.177 242.144 852.177 240.384 852.177 237.6ZM844.801 237.6C844.801 235.392 846.193 234.352 847.729 234.352C849.233 234.352 850.689 235.392 850.689 237.6C850.689 239.824 849.201 240.864 847.681 240.864C846.161 240.864 844.801 239.824 844.801 237.6ZM854.091 242H855.547V238.128L858.987 242H860.971L856.827 237.6L860.955 233.232H858.923L855.547 237.12V230.16H854.091V242ZM866.054 234.32C867.558 234.32 868.838 235.264 868.822 236.976H863.286C863.446 235.264 864.63 234.32 866.054 234.32ZM870.15 239.296H868.582C868.262 240.24 867.43 240.912 866.118 240.912C864.63 240.912 863.382 239.936 863.27 238.16H870.278C870.31 237.856 870.326 237.6 870.326 237.28C870.326 234.88 868.662 233.088 866.118 233.088C863.558 233.088 861.782 234.832 861.782 237.6C861.782 240.384 863.622 242.144 866.118 242.144C868.294 242.144 869.702 240.896 870.15 239.296ZM871.704 237.584C871.704 240.304 873.512 242.144 875.864 242.144C877.464 242.144 878.6 241.328 879.128 240.352V242H880.6V230.16H879.128V234.8C878.52 233.792 877.256 233.088 875.88 233.088C873.512 233.088 871.704 234.848 871.704 237.584ZM879.128 237.6C879.128 239.664 877.752 240.864 876.152 240.864C874.552 240.864 873.192 239.648 873.192 237.584C873.192 235.52 874.552 234.352 876.152 234.352C877.752 234.352 879.128 235.568 879.128 237.6ZM884.484 241.104C884.484 240.544 884.052 240.112 883.524 240.112C882.964 240.112 882.532 240.544 882.532 241.104C882.532 241.664 882.964 242.096 883.524 242.096C884.052 242.096 884.484 241.664 884.484 241.104Z" fill="#656668"/>
<path d="M582.686 167.471C566.958 144.304 533.626 131.893 532.762 97.1735C532.2 74.6139 541.905 62.3879 526.373 43.1287C488.83 -3.41745 430.974 -8.87374 381.576 10.5738C332.191 30.0131 292.728 68.9803 237.823 66.6304C207.923 65.3502 180.144 50.3807 150.546 47.5708C141.429 46.7062 132.909 47.4489 124.941 49.602C95.0753 57.6742 68.7056 87.9817 58.7762 121.653C50.7279 148.949 61.012 175.895 48.3729 202.622C34.9027 231.112 8.37241 250.9 1.68719 283.79C-6.33619 323.267 15.1795 330.486 46.6469 340.235C68.2457 346.924 118.237 353.143 136.04 339.501C157.719 322.891 177.827 324.478 203.1 325.116C251.196 326.327 299.286 337.744 346.762 345.874C387.441 352.841 439.934 328.494 481.161 329.805C511.437 330.766 524.736 365.859 541.121 331.165C560.703 289.693 615.672 216.062 582.686 167.471Z" fill="url(#paint0_linear)"/>
<path d="M273.195 348.051H273.361C274.71 348.029 275.749 346.926 275.626 345.657L266.637 255.88L258.788 256.579L271.702 346.839C271.796 347.546 272.445 348.065 273.195 348.051Z" fill="#8CB4F4"/>
<path d="M186.616 348.051H186.45C185.101 348.029 184.062 346.926 184.185 345.657L193.174 255.88L201.023 256.579L188.109 346.839C188.015 347.546 187.366 348.065 186.616 348.051Z" fill="#8CB4F4"/>
<path d="M336.631 348.051H336.797C338.146 348.029 339.185 346.926 339.062 345.657L330.073 255.88L322.224 256.579L335.138 346.839C335.239 347.546 335.881 348.065 336.631 348.051Z" fill="#8CB4F4"/>
<path d="M189.292 242.825L173.334 164.026C171.285 153.359 180.13 143.601 191.608 143.86L222.392 144.56C233.011 144.805 242.246 151.909 245.196 162.107L268.549 242.818H189.292V242.825Z" fill="#8CB4F4"/>
<path d="M198.946 242.825L182.988 164.025C180.939 153.358 189.784 143.6 201.262 143.86L232.045 144.559C242.665 144.805 251.899 151.909 254.85 162.107L278.203 242.818H198.946V242.825Z" fill="#8CB4F4"/>
<path d="M193.744 257.192H315.53C317.975 257.192 319.981 255.187 319.981 252.742V247.268C319.981 244.823 317.975 242.818 315.53 242.818H189.293V252.742C189.293 255.194 191.291 257.192 193.744 257.192Z" fill="#8CB4F4"/>
<path d="M250.889 257.192H328.522C330.492 257.192 332.108 255.576 332.108 253.607V246.402C332.108 244.434 330.492 242.818 328.522 242.818H250.889C248.919 242.818 247.303 244.434 247.303 246.402V253.607C247.31 255.584 248.919 257.192 250.889 257.192Z" fill="#8CB4F4"/>
<path d="M259.813 87.9309C259.813 87.9309 251.502 94.8401 260.657 103.617C260.657 103.617 252.801 106.358 250.247 104.497C250.247 104.497 250.781 105.442 251.25 105.86C251.25 105.86 243.206 106.589 239.736 104.259C236.273 101.93 236.157 60.568 258.789 63.9577C258.789 63.9577 277.676 61.4911 277.113 83.5242C276.543 105.564 283.707 105.175 283.707 105.175C283.707 105.175 281.766 106.264 280.807 106.315C280.807 106.315 279.371 105.853 279.054 105.096C279.054 105.096 279.4 106.3 279.782 106.668C279.782 106.668 272.092 107.822 268.074 105.117C264.041 102.406 258.955 92.5178 259.813 87.9309Z" fill="#263238"/>
<path d="M258.594 99.1966C258.594 99.1966 252.137 93.0446 249.461 87.073C247.549 82.8106 238.336 65.552 255.557 63.7706C255.557 63.7706 267.85 63.1936 273.16 65.1193C277.38 66.6554 283.909 70.6076 281.694 86.5032L281.406 91.7609L258.594 99.1966Z" fill="#263238"/>
<path d="M364.501 350.907C360.851 350.899 353.326 351.851 350.022 347.834C346.711 343.81 339.569 341.834 338.66 340.55C338.169 339.858 338.818 336.771 339.525 334.073C341.307 331.621 338.436 328.282 338.436 328.282L348.002 328.924C348.002 328.924 352.562 334.968 355.916 339.836C357.193 341.682 361.031 344.452 363.347 345.281C366.334 346.349 369.313 347.012 370.403 348.072C372.343 349.955 368.152 350.907 364.501 350.907Z" fill="#FFC3BD"/>
<path d="M364.501 350.906C360.851 350.899 353.326 351.851 350.022 347.834C346.711 343.809 339.569 341.833 338.66 340.549C338.169 339.857 338.14 337.059 339.525 334.073V334.066C339.525 334.066 345.549 336.532 348.954 341.256C352.352 345.98 361.414 348.036 363.318 345.309C363.325 345.302 363.333 345.288 363.34 345.281C366.327 346.348 369.306 347.011 370.395 348.072C372.343 349.954 368.152 350.906 364.501 350.906Z" fill="#263238"/>
<path d="M338.66 340.543L342.332 348.368L344.77 348.635L344.41 341.668L338.66 340.543Z" fill="#263238"/>
<path d="M267.02 201.905C267.02 201.905 320.233 218.378 331.682 227.898C343.131 237.411 351.11 331.789 351.11 331.789C351.11 331.789 349.747 332.618 346.948 332.553C344.343 332.496 338.889 330.246 338.889 330.246C338.889 330.246 315.5 285.415 314.837 274.813C314.166 264.204 315.876 255.044 311.295 254.186C306.713 253.335 248.227 253.025 241.539 236.553C234.851 220.087 244.035 205.858 244.035 205.858L267.02 201.905Z" fill="#102028"/>
<path d="M352.157 350.907C348.506 350.899 340.982 351.851 337.678 347.834C334.366 343.81 327.224 341.834 326.315 340.55C325.824 339.858 326.481 336.771 327.181 334.073C328.963 331.621 326.091 328.282 326.091 328.282L335.658 328.924C335.658 328.924 340.217 334.968 343.572 339.836C344.849 341.682 348.687 344.452 351.002 345.281C353.989 346.349 356.969 347.012 358.058 348.072C359.999 349.955 355.807 350.907 352.157 350.907Z" fill="#FFC3BD"/>
<path d="M352.157 350.906C348.506 350.899 340.982 351.851 337.677 347.834C334.366 343.809 327.224 341.833 326.315 340.549C325.824 339.857 325.795 337.059 327.181 334.073V334.066C327.181 334.066 333.205 336.532 336.61 341.256C340.008 345.98 349.069 348.036 350.973 345.309C350.981 345.302 350.988 345.288 350.995 345.281C353.982 346.348 356.961 347.011 358.051 348.072C359.999 349.954 355.807 350.906 352.157 350.906Z" fill="#263238"/>
<path d="M326.315 340.543L329.987 348.368L332.425 348.635L332.065 341.668L326.315 340.543Z" fill="#263238"/>
<path d="M253.096 206.888C253.096 206.888 307.897 218.384 319.346 227.897C330.795 237.41 338.774 331.788 338.774 331.788C338.774 331.788 337.41 332.617 334.611 332.552C332.007 332.495 326.553 330.244 326.553 330.244C326.553 330.244 303.164 285.414 302.5 274.812C301.829 264.203 303.539 255.043 298.951 254.185C294.37 253.334 235.883 253.024 229.195 236.551C222.508 220.086 231.691 205.857 231.691 205.857L253.096 206.888Z" fill="#263238"/>
<path d="M273.687 118.512C273.751 118.54 267.309 121.887 262.454 120.56C257.894 119.319 254.915 113.405 254.973 113.391C256.906 113.009 257.461 110.355 257.418 98.9522L258.291 99.1253L272.972 102.032C272.972 102.032 272.64 106.648 272.626 111.004C272.626 114.653 272.85 118.122 273.687 118.512Z" fill="#FFC3BD"/>
<path d="M272.98 102.03C272.98 102.03 272.648 106.646 272.633 111.002C264.416 110.772 260.073 103.278 258.298 99.1238L272.98 102.03Z" fill="#DFA09A"/>
<path d="M275.721 106.149C275.721 106.149 256.285 106.467 256.271 94.3646C256.256 82.2626 253.739 74.149 266.147 73.4349C278.556 72.7209 280.973 77.3367 281.961 81.3755C282.957 85.4071 280.778 105.753 275.721 106.149Z" fill="#FFC3BD"/>
<path d="M230.4 170.791C228.481 162.757 235.003 147.157 241.813 134.247C247.989 122.542 254.402 113.051 254.98 113.39C271.27 123.054 272.741 115.02 272.741 115.02C272.749 115.02 287.545 116.981 291.73 124.194C296.924 133.144 302.544 158.141 308.12 162.872C307.262 165.49 307.63 166.889 308.539 170.135C308.734 170.835 308.95 171.491 309.188 172.118C310.032 174.405 311.078 176.258 311.987 177.866C309.152 179.59 303.676 182.864 299.644 180.506C293.497 176.907 288.699 165.952 285.994 161.589C285.987 161.574 285.972 161.56 285.965 161.538C280.093 194.75 288.079 202.316 284.039 205.821C279.775 209.52 273.679 204.061 260.268 209.867C251.473 213.682 239.267 219.192 231.05 220.158C226.743 220.663 223.525 219.913 222.479 217.007C219.427 208.561 234.058 186.11 230.4 170.791Z" fill="white"/>
<path d="M271.406 98.8079C271.406 98.8079 271.767 100.344 275.598 100.106C275.598 100.106 278.808 99.9042 278.714 98.2165C278.707 98.2238 275.591 97.0193 271.406 98.8079Z" fill="white"/>
<path d="M219.694 182.591C224.052 176.475 228.589 173.244 231.576 171.614C230.891 169.847 249.901 146.545 249.901 142.931C249.901 139.275 254.972 113.383 254.972 113.383C254.972 113.383 239.13 114.364 233.647 122.009C226.793 131.579 212.545 168.383 219.694 182.591Z" fill="white"/>
<path d="M231.576 171.614L263.233 179.872L260.26 185.202C260.26 185.202 221.736 184.935 219.694 182.591C217.653 180.247 231.576 171.614 231.576 171.614Z" fill="#FFC3BD"/>
<path d="M285.994 161.603C288.692 165.966 293.49 176.922 299.644 180.521C303.676 182.879 309.152 179.597 311.987 177.881C311.078 176.273 310.025 174.419 309.188 172.133C306.923 172.652 304.167 173.308 302.385 173.849C298.915 174.888 285.994 161.603 285.994 161.603Z" fill="#3E3071"/>
<path d="M282.769 157.254L265.822 194.837L305.992 198.63L321.798 160.471L282.769 157.254Z" fill="#263238"/>
<path d="M321.799 160.471L340.542 148.585L321.799 189.557L305.992 198.63C306.836 196.589 321.799 160.471 321.799 160.471Z" fill="#4D5C63"/>
<path d="M263.239 179.872C263.239 179.872 269.09 177.298 270.576 175.978C271.536 175.127 271.456 176.338 271.37 176.677C271.189 177.348 270.944 178.69 269.242 179.807C266.782 181.423 263.239 179.872 263.239 179.872Z" fill="#FFC3BD"/>
<path d="M273.752 69.0865C273.752 69.0865 267.548 86.475 258.638 89.2877C249.728 92.1004 246.85 88.5448 246.85 88.5448C246.85 88.5448 253.48 82.6597 254.396 72.9738C254.396 72.9738 268.897 61.8455 273.752 69.0865Z" fill="#263238"/>
<path d="M272.359 70.4346C272.359 70.4346 276.947 73.7017 278.203 77.0553C279.458 80.409 280.324 87.3975 282.358 87.0514C282.358 87.0514 286.21 76.1322 280.893 70.3624C275.266 64.2465 272.359 70.4346 272.359 70.4346Z" fill="#263238"/>
<path d="M273.203 70.9247C273.203 70.9247 269.906 87.6064 258.796 93.4987C258.796 93.4987 269.646 82.7671 270.021 71.8551C270.397 60.9431 273.203 70.9247 273.203 70.9247Z" fill="#263238"/>
<path d="M239.736 104.253C243.199 106.59 251.25 105.861 251.25 105.861C250.781 105.45 250.247 104.498 250.247 104.498C254.994 106.849 264.329 102.277 264.329 102.277C256.069 102.306 256.069 90.3767 258.637 89.2949C258.277 80.3806 258.976 69.0288 259.344 63.9154C258.984 63.937 258.782 63.9658 258.782 63.9658C236.157 60.5617 236.273 101.923 239.736 104.253Z" fill="#263238"/>
<path d="M263.24 179.871C263.24 179.871 273.52 177.91 275.786 178.407C278.058 178.905 283.13 181.083 283.505 181.552C283.88 182.021 282.033 182.288 280.699 181.739C278.989 181.04 276.161 181.336 276.161 181.336C276.161 181.336 281.622 183.124 282.957 183.889C283.086 183.968 283.094 184.155 282.964 184.242C282.603 184.473 281.723 184.552 280.504 184.249C278.758 183.816 275.634 183.542 275.634 183.542L281.846 185.583C281.925 185.612 281.975 185.684 281.961 185.764C281.918 186.067 281.377 186.334 279.89 186.247C278.743 186.182 274.927 185.208 274.927 185.208L278.188 187.386C278.188 187.386 277.293 187.899 275.591 187.134C274.422 186.608 270.909 185.331 270.057 185.425C269.206 185.511 264.856 186.709 262.966 186.096C261.075 185.483 260.26 185.208 260.26 185.208L263.24 179.871Z" fill="#FFC3BD"/>
<path d="M121.29 349.984H121.456C122.805 349.963 123.844 348.859 123.721 347.59L114.732 257.813L106.883 258.513L119.797 348.773C119.891 349.472 120.533 349.999 121.29 349.984Z" fill="#8CB4F4"/>
<path d="M34.7035 349.984H34.5376C33.1885 349.963 32.1496 348.859 32.2723 347.59L41.2614 257.813L49.1106 258.513L36.1969 348.773C36.1031 349.472 35.461 349.999 34.7035 349.984Z" fill="#8CB4F4"/>
<path d="M184.726 349.984H184.892C186.241 349.963 187.28 348.859 187.157 347.59L178.168 257.813L170.319 258.513L183.233 348.773C183.326 349.472 183.976 349.999 184.726 349.984Z" fill="#8CB4F4"/>
<path d="M37.3875 244.751L21.4293 165.951C19.3805 155.285 28.2253 145.527 39.7033 145.786L70.4869 146.486C81.1064 146.731 90.3408 153.835 93.2915 164.033L116.644 244.744H37.3875V244.751Z" fill="#8CB4F4"/>
<path d="M47.0403 244.752L31.0822 165.952C29.0333 155.285 37.8781 145.527 49.3561 145.787L80.1397 146.486C90.7593 146.731 99.9936 153.835 102.944 164.033L126.297 244.745H47.0403V244.752Z" fill="#8CB4F4"/>
<path d="M41.8317 259.127H163.617C166.063 259.127 168.068 257.122 168.068 254.677V249.203C168.068 246.758 166.07 244.753 163.617 244.753H37.3877V254.677C37.3877 257.122 39.3861 259.127 41.8317 259.127Z" fill="#8CB4F4"/>
<path d="M98.983 259.127H176.617C178.586 259.127 180.202 257.511 180.202 255.542V248.337C180.202 246.369 178.586 244.753 176.617 244.753H98.983C97.0135 244.753 95.3975 246.369 95.3975 248.337V255.542C95.3975 257.511 97.0135 259.127 98.983 259.127Z" fill="#8CB4F4"/>
<path d="M566.112 347.971H566.278C567.627 347.949 568.666 346.846 568.543 345.576L559.554 255.799L551.705 256.499L564.619 346.759C564.713 347.466 565.362 347.985 566.112 347.971Z" fill="#8CB4F4"/>
<path d="M519.832 347.971H519.998C521.347 347.949 522.386 346.846 522.263 345.576L513.274 255.799L505.425 256.499L518.338 346.759C518.432 347.466 519.074 347.985 519.832 347.971Z" fill="#8CB4F4"/>
<path d="M432.943 347.971H432.777C431.428 347.949 430.389 346.846 430.511 345.576L439.5 255.799L447.35 256.499L434.436 346.759C434.342 347.466 433.693 347.985 432.943 347.971Z" fill="#73A2E5"/>
<path d="M563.573 243.084L572.107 168.106C573.226 157.303 569.611 146.722 554.014 145.9L526.57 144.227C510.309 143.556 502.965 157.086 500.902 167.508L484.612 249.928L563.573 243.084Z" fill="#8CB4F4"/>
<path d="M558.984 257.11H437.199C434.753 257.11 432.748 255.105 432.748 252.661V247.187C432.748 244.742 434.746 242.737 437.199 242.737H563.435V252.661C563.435 255.113 561.437 257.11 558.984 257.11Z" fill="#73A2E5"/>
<path d="M559.98 257.11H488.067C486.17 257.11 484.612 255.553 484.612 253.656V246.191C484.612 244.294 486.17 242.737 488.067 242.737H563.436V253.656C563.436 255.56 561.885 257.11 559.98 257.11Z" fill="#8CB4F4"/>
<path d="M440.294 178.616H449.882C451.051 178.616 452.003 177.671 452.003 176.495V158.004H438.181V176.495C438.181 177.671 439.126 178.616 440.294 178.616Z" fill="#8FB8EA"/>
<path d="M450.265 162.439H454.983C456.548 162.439 457.825 163.716 457.825 165.281V170.091C457.825 171.657 456.548 172.933 454.983 172.933H450.265V162.439ZM451.895 164.077V171.31H454.976C455.646 171.31 456.188 170.769 456.188 170.099V165.288C456.188 164.618 455.646 164.077 454.976 164.077H451.895Z" fill="#8FB8EA"/>
<path d="M440.8 177.187H449.378C450.294 177.187 451.037 176.445 451.037 175.529V162.446H439.134V175.529C439.141 176.445 439.884 177.187 440.8 177.187Z" fill="#FFB93E"/>
<path d="M451.044 162.439C451.044 162.439 450.546 161.313 449.211 161.27C447.877 161.227 447.703 161.97 446.542 161.725C445.38 161.487 444.305 161.277 443.101 161.725C441.896 162.172 439.19 161.652 439.169 162.042C439.147 162.431 438.75 162.9 440.042 162.943C441.333 162.987 443.57 162.597 444.435 162.943C445.294 163.29 447.494 163.297 448.396 162.943C449.291 162.612 451.029 163.304 451.044 162.439Z" fill="white"/>
<path d="M480.622 186.291C480.622 186.291 461.958 207.602 458.134 207.256C454.231 206.903 451.851 205.67 448.453 207.256C446.014 208.396 438.295 214.598 440.365 214.187C442.436 213.776 446.187 213.293 447.176 213.199C448.539 213.069 450.725 213.04 452.211 212.781C453.149 212.615 456.54 212.521 457.673 212.485C462.586 212.326 485.823 198.753 485.823 198.753L480.622 186.291Z" fill="#FFD8BE"/>
<path d="M493.572 78.0712C493.572 78.0712 494.416 67.3683 509.819 70.145C513.888 70.8807 516.687 63.6253 523.353 66.2072C537.702 71.775 538.546 64.4258 542.695 74.7464C544.433 79.0664 555.471 84.0933 552.102 91.5578C548.733 99.0224 554.375 104.042 550.407 109.891C548.358 112.92 549.188 118.329 539.513 118.524C534.694 118.618 527.184 127.546 521.78 129.169C516.37 130.792 500.13 128.448 500.743 121.034C501.219 115.243 494.467 115.726 490.319 109.076C486.697 103.263 493.161 101.792 489.705 92.3945C487.166 85.4997 493.767 83.8192 493.572 78.0712Z" fill="#233862"/>
<path d="M408.905 341.395C409.236 344.972 404.251 345.845 398.473 346.133C392.694 346.422 394.44 347.604 386.526 349.033C378.611 350.468 375.437 348.304 374.867 347.229C374.355 346.285 378.034 344.799 381.959 343.119C382.45 342.909 382.947 342.693 383.438 342.477C387.853 340.537 390.328 336.577 393.769 332.913C397.03 329.437 400.125 318.316 400.125 318.316L410.881 316.023C410.881 316.023 407.858 326.033 406.812 330.31C406.192 332.827 407.108 335.632 407.916 337.774C408.349 338.943 408.789 340.133 408.905 341.395Z" fill="#FFD8BE"/>
<path d="M398.472 346.133C392.701 346.421 394.439 347.604 386.525 349.032C378.611 350.467 375.437 348.304 374.867 347.229C374.355 346.284 378.034 344.799 381.958 343.118L382.016 343.183C382.016 343.183 387.578 345.073 394.006 343.327C399.244 341.906 404.301 338.776 407.908 337.767C408.341 338.928 408.781 340.125 408.897 341.387C409.236 344.972 404.251 345.844 398.472 346.133Z" fill="#6654A4"/>
<path d="M516.001 213.898C516.001 213.898 444.535 208.517 431.081 217.006C417.626 225.495 396.048 324.373 396.048 324.373C396.048 324.373 397.383 325.441 400.355 325.765C403.118 326.068 409.214 324.438 409.214 324.438C409.214 324.438 440.221 280.199 442.407 269.056C444.593 257.913 444.059 247.968 449.03 247.701C454.001 247.434 516.008 255.238 525.387 238.722C534.765 222.206 527.01 205.856 527.01 205.856L516.001 213.898Z" fill="#101B19"/>
<path d="M433.498 341.797C433.83 345.374 428.845 346.247 423.066 346.535C417.295 346.823 419.033 348.006 411.119 349.442C403.205 350.877 400.031 348.713 399.461 347.638C398.949 346.686 402.628 345.208 406.553 343.528C407.043 343.318 407.541 343.102 408.032 342.886C412.447 340.946 414.921 336.986 418.363 333.322C421.623 329.846 424.718 318.725 424.718 318.725L435.475 316.432C435.475 316.432 432.452 326.442 431.406 330.719C430.793 333.236 431.702 336.041 432.51 338.183C432.943 339.345 433.383 340.535 433.498 341.797Z" fill="#FFD8BE"/>
<path d="M423.066 346.535C417.294 346.824 419.033 348.007 411.119 349.442C403.205 350.877 400.03 348.713 399.46 347.639C398.948 346.687 402.628 345.208 406.552 343.528L406.61 343.593C406.61 343.593 412.172 345.482 418.6 343.737C423.838 342.316 428.895 339.186 432.502 338.177C432.935 339.338 433.375 340.535 433.491 341.797C433.83 345.374 428.837 346.247 423.066 346.535Z" fill="#6654A4"/>
<path d="M527.241 207.255C527.241 207.255 463.755 210.262 450.639 219.263C437.524 228.271 419.812 327.907 419.812 327.907C419.812 327.907 421.183 328.924 424.17 329.126C426.948 329.313 432.971 327.452 432.971 327.452C432.971 327.452 462.24 282.038 463.986 270.815C465.732 259.593 464.816 249.677 469.772 249.215C474.728 248.753 536.995 254.141 545.717 237.272C554.454 220.41 527.241 207.255 527.241 207.255Z" fill="#263836"/>
<path d="M546.251 126.163C546.229 126.126 546.2 126.098 546.171 126.062C545.666 125.492 545.068 124.973 544.404 124.511L544.382 124.496C544.382 124.496 544.382 124.496 544.375 124.496C539.188 120.876 529.925 120.097 529.925 120.097V120.104V120.097C529.925 120.097 528.915 120.003 527.306 119.931C526.094 116.78 524.709 112.12 524.276 105.312L523.36 105.557L507.914 109.697C507.914 109.697 508.599 114.601 508.917 119.239C508.989 120.256 509.039 121.258 509.061 122.196C508.614 122.362 508.202 122.52 507.834 122.672C507.834 122.672 499.004 123.71 496.912 125.961C494.82 128.211 490.643 143.162 489.589 145.816L549.057 146.789C549.057 146.782 550.551 131.247 546.251 126.163Z" fill="#FFD8BE"/>
<path d="M548.444 232.498C541.403 233.168 517.675 218.845 509.768 214.186C509.631 214.107 509.494 214.027 509.371 213.955C506.081 212.022 501.442 211.106 497.042 210.378C491.429 209.462 486.191 208.842 484.518 206.837C482.519 204.45 488.392 201.803 493.11 199.055C495.483 197.67 497.576 196.257 498.225 194.843C498.723 193.732 498.687 191.302 498.355 188.193V188.186C498.297 187.609 498.225 187.004 498.138 186.376C497.756 187.169 497.28 187.999 496.724 188.821C495.339 190.898 493.514 192.99 491.681 194.713C489.445 196.834 487.216 198.413 485.823 198.752C484.893 198.976 483.955 198.86 483.024 198.5C480.557 197.533 478.169 194.821 476.279 192.203C475.832 191.583 475.413 190.97 475.031 190.379C473.739 188.424 472.823 186.794 472.477 186.412C471.424 185.244 476.719 182.936 478.89 181.205C481.055 179.467 489.589 145.815 489.589 145.815C490.643 143.161 494.82 128.21 496.912 125.96C496.912 125.96 505.064 135.913 515.633 135.343C526.13 134.78 544.101 124.662 544.375 124.503C544.382 124.503 544.382 124.503 544.382 124.503L544.404 124.518L546.258 126.169C550.558 131.254 549.064 146.789 549.064 146.789C549.064 146.789 540.84 183.03 540.84 186.686C540.84 193.393 546.388 208.806 549.036 219.913C550.702 226.937 551.221 232.238 548.444 232.498Z" fill="#FF5364"/>
<path d="M507.9 109.703C507.9 109.703 508.585 114.607 508.903 119.245C517.646 118.415 521.744 110.114 523.346 105.563L507.9 109.703Z" fill="#F4A269"/>
<path d="M505.273 114.291C505.273 114.291 526.022 113.252 525.177 100.342C524.333 87.4397 526.44 78.6121 513.158 78.7275C499.877 78.8429 497.626 83.9418 496.861 88.3124C496.089 92.6901 499.855 114.226 505.273 114.291Z" fill="#FFD8BE"/>
<path d="M504.4 83.3226C504.4 83.3226 509.357 82.1687 510.98 84.5775C512.603 86.9864 511.442 88.335 515.063 89.352C518.678 90.3617 519.911 90.2895 519.55 92.821C519.19 95.3524 523.187 97.2348 523.36 99.2542C523.533 101.274 525.192 102.291 526.786 102.435C528.381 102.579 527.652 76.3268 521.506 75.1656C515.359 74.0117 509.422 75.382 507.618 76.8317C505.793 78.2885 504.4 83.3226 504.4 83.3226Z" fill="#233862"/>
<path d="M504.401 83.322C504.401 83.322 499.575 82.983 498.709 85.7309C497.843 88.4787 498.997 89.1278 497.771 90.7938C496.537 92.4598 497.252 95.4096 497.252 95.4096C497.252 95.4096 487.714 77.848 497.771 76.694C507.828 75.5401 507.554 77.5884 504.401 83.322Z" fill="#233862"/>
<path d="M498.34 185.266V185.259C498.275 184.3 498.189 183.29 498.095 182.251C496.717 186.391 494.257 190.942 491.674 194.728C489.438 196.849 487.208 198.428 485.816 198.767C484.885 198.991 483.948 198.875 483.017 198.515C480.55 197.548 478.162 194.837 476.272 192.219C475.824 191.598 475.406 190.985 475.023 190.394C481.617 185.107 494.105 173.013 495.404 156.454C497.179 133.843 498.347 185.266 498.347 185.266H498.34Z" fill="#DB4352"/>
<path d="M483.024 198.5C485.326 194.995 490.001 191.533 496.717 188.821C493.622 193.451 488.334 198.147 485.824 198.752C484.886 198.976 483.948 198.861 483.024 198.5Z" fill="#599DAD"/>
<path d="M537.869 154.995C537.869 154.995 532.689 207.038 509.761 214.185C509.624 214.106 509.487 214.027 509.365 213.954C506.075 212.022 501.436 211.106 497.035 210.377C491.423 209.461 486.185 208.841 484.511 206.836C482.513 204.449 488.385 201.802 493.104 199.054C495.477 197.669 497.569 196.256 498.219 194.842C498.716 193.732 498.68 191.301 498.348 188.193V188.185C520.59 179.964 537.869 154.995 537.869 154.995Z" fill="#DB4352"/>
<path d="M530.409 134.968C530.409 134.968 541.303 128.758 543.705 139.576C546.108 150.394 507.266 198.593 496.458 196.487C484.454 194.143 456.253 174.944 456.253 174.944L459.276 170.552C459.276 170.552 494.467 181.068 496.682 180.051C498.911 179.034 526.629 134.109 530.409 134.968Z" fill="#FFD8BE"/>
<path d="M462.039 171.627C462.039 171.627 452.667 164.191 451.232 164.083C449.796 163.975 440.179 166.441 440.237 167.97C440.295 169.499 442.546 171.735 446.095 172.298C449.645 172.867 456.462 175.767 458.424 174.872C460.387 173.978 462.039 171.627 462.039 171.627Z" fill="#FFD8BE"/>
<path d="M479.793 176.293C479.793 176.293 473.293 192.989 481.077 199.336C488.861 205.682 505.765 203.547 524.277 177.742C542.789 151.937 550.32 137.881 540.711 133.777C531.101 129.673 523.158 136.114 518.231 146.146C513.109 156.582 503.665 171.028 498.002 171.576C492.339 172.131 479.793 176.293 479.793 176.293Z" fill="#FF5364"/>
<path d="M501.768 107.671C501.768 107.671 502.77 109.012 503.109 109.445C503.441 109.878 507.618 109.445 507.9 109.113C508.188 108.781 508.426 106.812 508.426 106.812C508.426 106.812 503.21 107.296 501.768 107.671Z" fill="white"/>
<path d="M204.168 156.093H194.58C193.412 156.093 192.459 155.148 192.459 153.973V135.481H206.282V153.973C206.289 155.148 205.337 156.093 204.168 156.093Z" fill="#8FB8EA"/>
<path d="M194.205 150.417H189.487C187.921 150.417 186.645 149.141 186.645 147.576V142.765C186.645 141.193 187.921 139.917 189.487 139.917H194.205V150.417ZM189.487 141.547C188.816 141.547 188.275 142.087 188.275 142.758V147.569C188.275 148.239 188.816 148.78 189.487 148.78H192.568V141.547H189.487Z" fill="#8FB8EA"/>
<path d="M203.663 154.665H195.085C194.169 154.665 193.426 153.922 193.426 153.006V139.923H205.329V153.006C205.329 153.915 204.586 154.665 203.663 154.665Z" fill="#FFB93E"/>
<path d="M193.426 139.917C193.426 139.917 193.924 138.799 195.258 138.755C196.593 138.712 196.766 139.455 197.928 139.21C199.089 138.972 200.164 138.763 201.369 139.21C202.574 139.657 205.279 139.138 205.301 139.527C205.322 139.917 205.719 140.385 204.428 140.429C203.136 140.472 200.9 140.082 200.034 140.429C199.176 140.775 196.975 140.782 196.073 140.429C195.179 140.09 193.44 140.782 193.426 139.917Z" fill="white"/>
<path d="M162.664 258.296L141.367 329.271C141.367 329.271 131.628 326.891 128.035 321.179C128.035 321.179 130.438 252.188 145.176 241.889C159.915 231.583 162.664 258.296 162.664 258.296Z" fill="#3C484E"/>
<path d="M208.035 349.775H173.406C173.074 349.71 172.821 349.638 172.67 349.558C170.361 348.404 170.542 341.791 172.453 337.225C173.204 335.437 170.938 331.614 171.754 330.15C173.319 327.338 182.95 322.304 184.624 329.761C184.675 329.992 185.418 334.196 185.483 334.42V334.427C187.596 341.401 197.047 344.567 202.501 345.455C206.671 346.133 207.753 348.556 208.035 349.775Z" fill="#3C484E"/>
<path d="M75.1169 114.673C75.1169 114.673 83.2403 124.309 93.5857 120.277C93.5857 120.277 95.8077 114.897 95.8437 110.93C95.851 110.44 95.851 109.971 95.8582 109.517C95.9159 105.052 96.0674 102.543 96.0674 102.543C96.0674 102.543 96.0674 102.543 96.0602 102.543C95.5913 102.348 80.2463 96.0516 80.2608 96.5708C80.5133 108.651 75.1169 114.673 75.1169 114.673Z" fill="#FFB27D"/>
<path d="M147.673 349.775H136.303C133.922 349.775 131.274 347.387 130.611 343.024C129.947 338.654 125.048 336.274 123.988 332.696C122.927 329.119 128.36 324.085 128.36 324.085L129.269 322.917L130.214 321.698L139.217 323.818C139.217 323.818 139.441 325.96 139.578 328.694C139.672 330.662 139.73 332.942 139.614 334.939C139.347 339.707 140.949 344.842 145.184 345.765C149.426 346.702 147.673 349.775 147.673 349.775Z" fill="#3C484E"/>
<path d="M153.538 187.004L159.345 188.591C159.345 188.591 168.378 187.869 171.011 188.591C171.011 188.591 182.352 196.3 178.932 196.3C171.365 196.3 168.76 193.661 164.691 195.053C160.132 196.611 157.145 196.618 155.269 193.625L151.987 191.367L153.538 187.004Z" fill="#FFB27D"/>
<path d="M158.458 191.749C159.937 188.035 159.107 186.463 159.107 186.463C159.107 186.463 124.918 179.698 121.968 177.613C119.017 175.529 90.6214 121.265 90.6214 121.265L82.8948 122.779C71.121 125.087 67.1242 139.908 76.1494 147.813C91.3645 161.148 107.272 193.228 111.983 195.276C117.625 197.728 154.447 196.307 154.447 196.307C154.447 196.307 157.296 194.663 158.458 191.749Z" fill="#6958A4"/>
<path d="M54.138 203.355C54.138 203.355 44.7449 238.853 61.0637 244.003C61.0637 244.003 75.1173 250.71 142.03 246.044C142.03 246.044 139.173 275.679 171.313 333.772C171.313 333.772 180.75 336.297 186.644 329.272C186.644 329.272 174.105 245.496 169.943 226.86C166.776 212.717 77.599 208.072 54.138 203.355Z" fill="#263238"/>
<path d="M181.587 149.487C182.467 149.271 183.145 148.578 183.369 147.698C184.415 143.609 186.666 141.489 186.738 142.03C186.897 143.191 186.68 146.588 186.745 145.448C189.458 145.167 187.243 143.039 188.83 142.787C189.739 142.643 193.938 146.768 190.778 151.175C189.256 153.295 188.268 154.016 182.59 155.04L178.636 156.036L177.626 149.891C177.626 149.891 179.733 149.941 181.587 149.487Z" fill="#FFB27D"/>
<path d="M81.7907 100.026C83.2697 102.767 88.3486 108.133 95.8587 110.095C95.9164 105.63 96.0679 103.12 96.0679 103.12C96.0679 103.12 96.0679 103.12 96.0607 103.12C95.6279 103.005 81.3507 99.2186 81.7907 100.026Z" fill="#ED975D"/>
<path d="M100.944 102.817C100.944 102.817 81.141 107.468 78.4356 95.0996C75.723 82.7308 71.3438 74.9994 83.8752 71.5015C96.4065 68.0108 99.8983 72.1867 101.81 76.0956C103.715 80.0046 106.023 101.288 100.944 102.817Z" fill="#FFB27D"/>
<path d="M79.107 98.4678C78.8328 98.6409 74.5764 99.9463 66.5035 83.8777C65.2338 81.3534 64.3753 75.901 67.3259 71.0761C70.2766 66.2512 80.7446 62.4647 89.4451 60.8132C98.1456 59.1616 100.231 64.0587 102.279 68.9701C104.429 74.134 110.641 78.382 110.641 78.382C103.138 82.5723 94.1056 76.579 90.9746 77.567C87.8435 78.5551 86.7397 83.4809 86.5017 85.0604C86.2636 86.6399 85.9029 87.9525 81.9711 86.5461C78.032 85.1326 80.1891 92.1211 80.824 93.4553C80.8312 93.4626 81.3651 97.0254 79.107 98.4678Z" fill="#263238"/>
<path d="M110.85 161.798C109.768 165.224 111.081 188.736 108.376 203.138C106.781 211.627 102.626 214.014 102.532 214.094C99.3218 216.575 85.8815 222.352 75.803 226.621C53.3376 236.127 48.2803 223.823 48.4823 221.024C48.5761 219.77 57.9692 151.16 64.4116 131.233C68.1486 119.679 72.4412 110.578 78.4291 107.073C79.2154 106.633 81.9136 108.349 85.7805 110.83C89.3516 113.116 92.6918 113.21 96.3495 112.886L101.501 117.956C105.396 122.485 109.552 128.521 110.684 137.097C110.771 137.731 110.843 138.402 110.901 139.116C111.218 142.6 112.914 155.271 110.85 161.798Z" fill="#6654A4"/>
<path d="M111.204 151.975C111.103 157.687 110.771 164.113 110.324 170.632C110.295 171.022 110.266 171.404 110.244 171.794C88.0748 157.925 84.6624 132.545 84.6624 132.545C95.5704 133.021 104.228 135.531 110.908 139.115C111.218 142.599 111.291 147.02 111.204 151.975Z" fill="#4B3C7C"/>
<path d="M182.885 152.314C181.731 148.722 179.538 148.671 179.538 148.671C179.538 148.671 142.456 154.405 139.108 153.468C135.761 152.537 107.416 125.297 107.416 125.297C107.416 125.297 96.5654 113.967 87.5186 116.613C79.655 118.914 76.5167 124.59 75.4057 129.985C74.0783 136.404 77.1876 142.815 83.1467 146.14C96.5221 153.612 124.672 169.428 131.007 171.065C145.104 174.722 182.034 157.514 182.034 157.514C182.034 157.514 183.751 155.011 182.885 152.314Z" fill="#6654A4"/>
<path d="M159.338 196.077L167.223 196.301C167.223 196.301 167.418 195.493 166.79 195.269C166.17 195.053 163.63 193.134 163.63 193.134L159.338 196.077Z" fill="#FFB27D"/>
<path d="M115.75 205.134H449.644C450.842 205.134 451.816 204.16 451.816 202.963V198.477C451.816 197.28 450.842 196.306 449.644 196.306H115.75C114.552 196.306 113.578 197.28 113.578 198.477V202.963C113.578 204.16 114.552 205.134 115.75 205.134Z" fill="#182D4F"/>
<path d="M460.444 350.639L460.552 350.625C461.8 350.473 462.688 349.355 462.529 348.129L440.756 200.792L432.784 201.023L458.402 349.161C458.568 350.105 459.47 350.762 460.444 350.639Z" fill="#182D4F"/>
<path d="M107.259 350.639L107.15 350.625C105.902 350.473 105.015 349.355 105.174 348.129L126.947 200.792L134.918 201.023L109.3 349.161C109.134 350.105 108.233 350.762 107.259 350.639Z" fill="#182D4F"/>
<path d="M96.0688 96.1442C96.0688 96.1442 96.8191 97.6588 97.5839 97.7093C98.3486 97.7598 101.465 97.7093 101.754 97.4713C102.042 97.2333 102.28 95.8918 102.331 95.6033C102.374 95.3148 97.9951 95.5817 96.0688 96.1442Z" fill="white"/>
<defs>
<linearGradient id="paint0_linear" x1="-27.4619" y1="452.456" x2="579.068" y2="12.0943" gradientUnits="userSpaceOnUse">
<stop stop-color="#DADBFE"/>
<stop offset="1" stop-color="#F4F4FC"/>
</linearGradient>
</defs>
</svg>
