<svg width="595" height="113" viewBox="0 0 595 113" fill="none" xmlns="http://www.w3.org/2000/svg">
<g filter="url(#filter0_d)">
<rect x="19" y="16" width="556.56" height="75" rx="24" fill="white"/>
</g>
<path d="M87.3171 53.0312H82.5515L81.4812 56H79.9343L84.2781 44.625H85.5906L89.9421 56H88.4031L87.3171 53.0312ZM83.0046 51.7969H86.8718L84.9343 46.4766L83.0046 51.7969ZM90.8953 51.7031C90.8953 50.4062 91.2026 49.3646 91.8171 48.5781C92.4317 47.7865 93.2364 47.3906 94.2312 47.3906C95.2208 47.3906 96.0046 47.7292 96.5828 48.4062V44H98.0281V56H96.7L96.6296 55.0938C96.0515 55.8021 95.2468 56.1562 94.2156 56.1562C93.2364 56.1562 92.4369 55.7552 91.8171 54.9531C91.2026 54.151 90.8953 53.1042 90.8953 51.8125V51.7031ZM92.3406 51.8672C92.3406 52.8255 92.5385 53.5755 92.9343 54.1172C93.3302 54.6589 93.877 54.9297 94.575 54.9297C95.4916 54.9297 96.1609 54.5182 96.5828 53.6953V49.8125C96.1505 49.0156 95.4864 48.6172 94.5906 48.6172C93.8822 48.6172 93.3302 48.8906 92.9343 49.4375C92.5385 49.9844 92.3406 50.7943 92.3406 51.8672ZM99.9265 51.7031C99.9265 50.4062 100.234 49.3646 100.848 48.5781C101.463 47.7865 102.268 47.3906 103.262 47.3906C104.252 47.3906 105.036 47.7292 105.614 48.4062V44H107.059V56H105.731L105.661 55.0938C105.083 55.8021 104.278 56.1562 103.247 56.1562C102.268 56.1562 101.468 55.7552 100.848 54.9531C100.234 54.151 99.9265 53.1042 99.9265 51.8125V51.7031ZM101.372 51.8672C101.372 52.8255 101.57 53.5755 101.966 54.1172C102.361 54.6589 102.908 54.9297 103.606 54.9297C104.523 54.9297 105.192 54.5182 105.614 53.6953V49.8125C105.182 49.0156 104.518 48.6172 103.622 48.6172C102.913 48.6172 102.361 48.8906 101.966 49.4375C101.57 49.9844 101.372 50.7943 101.372 51.8672ZM115.239 45.5V47.5469H116.817V48.6641H115.239V53.9062C115.239 54.2448 115.309 54.5 115.45 54.6719C115.591 54.8385 115.83 54.9219 116.169 54.9219C116.335 54.9219 116.565 54.8906 116.856 54.8281V56C116.476 56.1042 116.106 56.1562 115.747 56.1562C115.101 56.1562 114.614 55.9609 114.286 55.5703C113.958 55.1797 113.794 54.625 113.794 53.9062V48.6641H112.255V47.5469H113.794V45.5H115.239ZM119.958 48.5703C120.598 47.7839 121.432 47.3906 122.458 47.3906C124.244 47.3906 125.145 48.3984 125.161 50.4141V56H123.716V50.4062C123.71 49.7969 123.57 49.3464 123.294 49.0547C123.023 48.763 122.598 48.6172 122.02 48.6172C121.552 48.6172 121.14 48.7422 120.786 48.9922C120.432 49.2422 120.156 49.5703 119.958 49.9766V56H118.512V44H119.958V48.5703ZM130.833 56.1562C129.687 56.1562 128.755 55.7812 128.036 55.0312C127.317 54.276 126.958 53.2682 126.958 52.0078V51.7422C126.958 50.9036 127.117 50.1562 127.434 49.5C127.757 48.8385 128.205 48.3229 128.778 47.9531C129.356 47.5781 129.981 47.3906 130.653 47.3906C131.752 47.3906 132.606 47.7526 133.216 48.4766C133.825 49.2005 134.13 50.237 134.13 51.5859V52.1875H128.403C128.424 53.0208 128.666 53.6953 129.13 54.2109C129.598 54.7214 130.192 54.9766 130.911 54.9766C131.421 54.9766 131.854 54.8724 132.208 54.6641C132.562 54.4557 132.872 54.1797 133.137 53.8359L134.02 54.5234C133.312 55.612 132.249 56.1562 130.833 56.1562ZM130.653 48.5781C130.07 48.5781 129.58 48.7917 129.184 49.2188C128.788 49.6406 128.544 50.2344 128.45 51H132.684V50.8906C132.643 50.1562 132.445 49.5885 132.091 49.1875C131.736 48.7812 131.257 48.5781 130.653 48.5781ZM144.997 55.1641C144.434 55.8255 143.609 56.1562 142.52 56.1562C141.619 56.1562 140.932 55.8958 140.458 55.375C139.989 54.849 139.752 54.0729 139.747 53.0469V47.5469H141.192V53.0078C141.192 54.2891 141.713 54.9297 142.755 54.9297C143.859 54.9297 144.593 54.5182 144.958 53.6953V47.5469H146.403V56H145.028L144.997 55.1641ZM153.528 53.7578C153.528 53.3672 153.38 53.0651 153.083 52.8516C152.791 52.6328 152.278 52.4453 151.544 52.2891C150.815 52.1328 150.234 51.9453 149.802 51.7266C149.374 51.5078 149.057 51.2474 148.848 50.9453C148.645 50.6432 148.544 50.2839 148.544 49.8672C148.544 49.1745 148.835 48.5885 149.419 48.1094C150.007 47.6302 150.757 47.3906 151.669 47.3906C152.627 47.3906 153.403 47.638 153.997 48.1328C154.596 48.6276 154.895 49.2604 154.895 50.0312H153.442C153.442 49.6354 153.273 49.2943 152.934 49.0078C152.601 48.7214 152.179 48.5781 151.669 48.5781C151.143 48.5781 150.731 48.6927 150.434 48.9219C150.137 49.151 149.989 49.4505 149.989 49.8203C149.989 50.1693 150.127 50.4323 150.403 50.6094C150.679 50.7865 151.177 50.9557 151.895 51.1172C152.619 51.2786 153.205 51.4714 153.653 51.6953C154.101 51.9193 154.432 52.1901 154.645 52.5078C154.864 52.8203 154.973 53.2031 154.973 53.6562C154.973 54.4115 154.671 55.0182 154.067 55.4766C153.463 55.9297 152.679 56.1562 151.716 56.1562C151.038 56.1562 150.44 56.0365 149.919 55.7969C149.398 55.5573 148.989 55.224 148.692 54.7969C148.4 54.3646 148.255 53.8984 148.255 53.3984H149.7C149.726 53.8828 149.919 54.2682 150.278 54.5547C150.643 54.8359 151.122 54.9766 151.716 54.9766C152.262 54.9766 152.7 54.8672 153.028 54.6484C153.361 54.4245 153.528 54.1276 153.528 53.7578ZM160.364 56.1562C159.218 56.1562 158.286 55.7812 157.567 55.0312C156.848 54.276 156.489 53.2682 156.489 52.0078V51.7422C156.489 50.9036 156.648 50.1562 156.966 49.5C157.288 48.8385 157.736 48.3229 158.309 47.9531C158.887 47.5781 159.512 47.3906 160.184 47.3906C161.283 47.3906 162.137 47.7526 162.747 48.4766C163.356 49.2005 163.661 50.237 163.661 51.5859V52.1875H157.934C157.955 53.0208 158.197 53.6953 158.661 54.2109C159.13 54.7214 159.723 54.9766 160.442 54.9766C160.953 54.9766 161.385 54.8724 161.739 54.6641C162.093 54.4557 162.403 54.1797 162.669 53.8359L163.552 54.5234C162.843 55.612 161.781 56.1562 160.364 56.1562ZM160.184 48.5781C159.601 48.5781 159.111 48.7917 158.716 49.2188C158.32 49.6406 158.075 50.2344 157.981 51H162.216V50.8906C162.174 50.1562 161.976 49.5885 161.622 49.1875C161.268 48.7812 160.788 48.5781 160.184 48.5781ZM169.427 48.8438C169.208 48.8073 168.971 48.7891 168.716 48.7891C167.768 48.7891 167.124 49.1927 166.786 50V56H165.341V47.5469H166.747L166.77 48.5234C167.244 47.7682 167.916 47.3906 168.786 47.3906C169.067 47.3906 169.281 47.4271 169.427 47.5V48.8438ZM175.684 53.7578C175.684 53.3672 175.536 53.0651 175.239 52.8516C174.947 52.6328 174.434 52.4453 173.7 52.2891C172.971 52.1328 172.39 51.9453 171.958 51.7266C171.531 51.5078 171.213 51.2474 171.005 50.9453C170.802 50.6432 170.7 50.2839 170.7 49.8672C170.7 49.1745 170.992 48.5885 171.575 48.1094C172.163 47.6302 172.913 47.3906 173.825 47.3906C174.783 47.3906 175.559 47.638 176.153 48.1328C176.752 48.6276 177.052 49.2604 177.052 50.0312H175.598C175.598 49.6354 175.429 49.2943 175.091 49.0078C174.757 48.7214 174.335 48.5781 173.825 48.5781C173.299 48.5781 172.887 48.6927 172.591 48.9219C172.294 49.151 172.145 49.4505 172.145 49.8203C172.145 50.1693 172.283 50.4323 172.559 50.6094C172.835 50.7865 173.333 50.9557 174.052 51.1172C174.775 51.2786 175.361 51.4714 175.809 51.6953C176.257 51.9193 176.588 52.1901 176.802 52.5078C177.02 52.8203 177.13 53.2031 177.13 53.6562C177.13 54.4115 176.828 55.0182 176.223 55.4766C175.619 55.9297 174.835 56.1562 173.872 56.1562C173.195 56.1562 172.596 56.0365 172.075 55.7969C171.554 55.5573 171.145 55.224 170.848 54.7969C170.557 54.3646 170.411 53.8984 170.411 53.3984H171.856C171.882 53.8828 172.075 54.2682 172.434 54.5547C172.799 54.8359 173.278 54.9766 173.872 54.9766C174.419 54.9766 174.856 54.8672 175.184 54.6484C175.518 54.4245 175.684 54.1276 175.684 53.7578ZM185.747 53.8828L187.716 47.5469H189.262L185.864 57.3047C185.338 58.7109 184.502 59.4141 183.356 59.4141L183.083 59.3906L182.544 59.2891V58.1172L182.934 58.1484C183.424 58.1484 183.804 58.0495 184.075 57.8516C184.351 57.6536 184.578 57.2917 184.755 56.7656L185.075 55.9062L182.059 47.5469H183.637L185.747 53.8828ZM190.052 51.6953C190.052 50.8672 190.213 50.1224 190.536 49.4609C190.864 48.7995 191.317 48.2891 191.895 47.9297C192.479 47.5703 193.143 47.3906 193.887 47.3906C195.038 47.3906 195.968 47.7891 196.677 48.5859C197.39 49.3828 197.747 50.4427 197.747 51.7656V51.8672C197.747 52.6901 197.588 53.4297 197.27 54.0859C196.958 54.737 196.507 55.2448 195.919 55.6094C195.335 55.974 194.663 56.1562 193.903 56.1562C192.757 56.1562 191.828 55.7578 191.114 54.9609C190.406 54.1641 190.052 53.1094 190.052 51.7969V51.6953ZM191.505 51.8672C191.505 52.8047 191.721 53.5573 192.153 54.125C192.591 54.6927 193.174 54.9766 193.903 54.9766C194.637 54.9766 195.221 54.6901 195.653 54.1172C196.085 53.5391 196.302 52.7318 196.302 51.6953C196.302 50.7682 196.08 50.0182 195.637 49.4453C195.2 48.8672 194.617 48.5781 193.887 48.5781C193.174 48.5781 192.598 48.862 192.161 49.4297C191.723 49.9974 191.505 50.8099 191.505 51.8672ZM204.778 55.1641C204.216 55.8255 203.39 56.1562 202.302 56.1562C201.4 56.1562 200.713 55.8958 200.239 55.375C199.77 54.849 199.533 54.0729 199.528 53.0469V47.5469H200.973V53.0078C200.973 54.2891 201.494 54.9297 202.536 54.9297C203.64 54.9297 204.374 54.5182 204.739 53.6953V47.5469H206.184V56H204.809L204.778 55.1641ZM213.723 47.5469L213.77 48.6094C214.416 47.7969 215.26 47.3906 216.302 47.3906C218.088 47.3906 218.989 48.3984 219.005 50.4141V56H217.559V50.4062C217.554 49.7969 217.413 49.3464 217.137 49.0547C216.867 48.763 216.442 48.6172 215.864 48.6172C215.395 48.6172 214.984 48.7422 214.63 48.9922C214.275 49.2422 213.999 49.5703 213.802 49.9766V56H212.356V47.5469H213.723ZM224.692 56.1562C223.546 56.1562 222.614 55.7812 221.895 55.0312C221.177 54.276 220.817 53.2682 220.817 52.0078V51.7422C220.817 50.9036 220.976 50.1562 221.294 49.5C221.617 48.8385 222.065 48.3229 222.637 47.9531C223.216 47.5781 223.841 47.3906 224.512 47.3906C225.611 47.3906 226.466 47.7526 227.075 48.4766C227.684 49.2005 227.989 50.237 227.989 51.5859V52.1875H222.262C222.283 53.0208 222.525 53.6953 222.989 54.2109C223.458 54.7214 224.052 54.9766 224.77 54.9766C225.281 54.9766 225.713 54.8724 226.067 54.6641C226.421 54.4557 226.731 54.1797 226.997 53.8359L227.88 54.5234C227.171 55.612 226.109 56.1562 224.692 56.1562ZM224.512 48.5781C223.929 48.5781 223.44 48.7917 223.044 49.2188C222.648 49.6406 222.403 50.2344 222.309 51H226.544V50.8906C226.502 50.1562 226.304 49.5885 225.95 49.1875C225.596 48.7812 225.117 48.5781 224.512 48.5781ZM233.177 56.1562C232.031 56.1562 231.098 55.7812 230.38 55.0312C229.661 54.276 229.302 53.2682 229.302 52.0078V51.7422C229.302 50.9036 229.46 50.1562 229.778 49.5C230.101 48.8385 230.549 48.3229 231.122 47.9531C231.7 47.5781 232.325 47.3906 232.997 47.3906C234.096 47.3906 234.95 47.7526 235.559 48.4766C236.169 49.2005 236.473 50.237 236.473 51.5859V52.1875H230.747C230.768 53.0208 231.01 53.6953 231.473 54.2109C231.942 54.7214 232.536 54.9766 233.255 54.9766C233.765 54.9766 234.197 54.8724 234.552 54.6641C234.906 54.4557 235.216 54.1797 235.481 53.8359L236.364 54.5234C235.656 55.612 234.593 56.1562 233.177 56.1562ZM232.997 48.5781C232.413 48.5781 231.924 48.7917 231.528 49.2188C231.132 49.6406 230.887 50.2344 230.794 51H235.028V50.8906C234.986 50.1562 234.788 49.5885 234.434 49.1875C234.08 48.7812 233.601 48.5781 232.997 48.5781ZM237.802 51.7031C237.802 50.4062 238.109 49.3646 238.723 48.5781C239.338 47.7865 240.143 47.3906 241.137 47.3906C242.127 47.3906 242.911 47.7292 243.489 48.4062V44H244.934V56H243.606L243.536 55.0938C242.958 55.8021 242.153 56.1562 241.122 56.1562C240.143 56.1562 239.343 55.7552 238.723 54.9531C238.109 54.151 237.802 53.1042 237.802 51.8125V51.7031ZM239.247 51.8672C239.247 52.8255 239.445 53.5755 239.841 54.1172C240.236 54.6589 240.783 54.9297 241.481 54.9297C242.398 54.9297 243.067 54.5182 243.489 53.6953V49.8125C243.057 49.0156 242.393 48.6172 241.497 48.6172C240.788 48.6172 240.236 48.8906 239.841 49.4375C239.445 49.9844 239.247 50.7943 239.247 51.8672ZM253.114 45.5V47.5469H254.692V48.6641H253.114V53.9062C253.114 54.2448 253.184 54.5 253.325 54.6719C253.466 54.8385 253.705 54.9219 254.044 54.9219C254.21 54.9219 254.44 54.8906 254.731 54.8281V56C254.351 56.1042 253.981 56.1562 253.622 56.1562C252.976 56.1562 252.489 55.9609 252.161 55.5703C251.833 55.1797 251.669 54.625 251.669 53.9062V48.6641H250.13V47.5469H251.669V45.5H253.114ZM255.848 51.6953C255.848 50.8672 256.01 50.1224 256.333 49.4609C256.661 48.7995 257.114 48.2891 257.692 47.9297C258.275 47.5703 258.94 47.3906 259.684 47.3906C260.835 47.3906 261.765 47.7891 262.473 48.5859C263.187 49.3828 263.544 50.4427 263.544 51.7656V51.8672C263.544 52.6901 263.385 53.4297 263.067 54.0859C262.755 54.737 262.304 55.2448 261.716 55.6094C261.132 55.974 260.46 56.1562 259.7 56.1562C258.554 56.1562 257.624 55.7578 256.911 54.9609C256.203 54.1641 255.848 53.1094 255.848 51.7969V51.6953ZM257.302 51.8672C257.302 52.8047 257.518 53.5573 257.95 54.125C258.387 54.6927 258.971 54.9766 259.7 54.9766C260.434 54.9766 261.018 54.6901 261.45 54.1172C261.882 53.5391 262.098 52.7318 262.098 51.6953C262.098 50.7682 261.877 50.0182 261.434 49.4453C260.997 48.8672 260.413 48.5781 259.684 48.5781C258.971 48.5781 258.395 48.862 257.958 49.4297C257.52 49.9974 257.302 50.8099 257.302 51.8672ZM274.247 53.7578C274.247 53.3672 274.098 53.0651 273.802 52.8516C273.51 52.6328 272.997 52.4453 272.262 52.2891C271.533 52.1328 270.953 51.9453 270.52 51.7266C270.093 51.5078 269.775 51.2474 269.567 50.9453C269.364 50.6432 269.262 50.2839 269.262 49.8672C269.262 49.1745 269.554 48.5885 270.137 48.1094C270.726 47.6302 271.476 47.3906 272.387 47.3906C273.346 47.3906 274.122 47.638 274.716 48.1328C275.315 48.6276 275.614 49.2604 275.614 50.0312H274.161C274.161 49.6354 273.992 49.2943 273.653 49.0078C273.32 48.7214 272.898 48.5781 272.387 48.5781C271.861 48.5781 271.45 48.6927 271.153 48.9219C270.856 49.151 270.708 49.4505 270.708 49.8203C270.708 50.1693 270.846 50.4323 271.122 50.6094C271.398 50.7865 271.895 50.9557 272.614 51.1172C273.338 51.2786 273.924 51.4714 274.372 51.6953C274.82 51.9193 275.15 52.1901 275.364 52.5078C275.583 52.8203 275.692 53.2031 275.692 53.6562C275.692 54.4115 275.39 55.0182 274.786 55.4766C274.182 55.9297 273.398 56.1562 272.434 56.1562C271.757 56.1562 271.158 56.0365 270.637 55.7969C270.117 55.5573 269.708 55.224 269.411 54.7969C269.119 54.3646 268.973 53.8984 268.973 53.3984H270.419C270.445 53.8828 270.637 54.2682 270.997 54.5547C271.361 54.8359 271.841 54.9766 272.434 54.9766C272.981 54.9766 273.419 54.8672 273.747 54.6484C274.08 54.4245 274.247 54.1276 274.247 53.7578ZM279.02 48.5703C279.661 47.7839 280.494 47.3906 281.52 47.3906C283.307 47.3906 284.208 48.3984 284.223 50.4141V56H282.778V50.4062C282.773 49.7969 282.632 49.3464 282.356 49.0547C282.085 48.763 281.661 48.6172 281.083 48.6172C280.614 48.6172 280.203 48.7422 279.848 48.9922C279.494 49.2422 279.218 49.5703 279.02 49.9766V56H277.575V44H279.02V48.5703ZM291.606 56C291.523 55.8333 291.455 55.5365 291.403 55.1094C290.731 55.8073 289.929 56.1562 288.997 56.1562C288.163 56.1562 287.479 55.9219 286.942 55.4531C286.411 54.9792 286.145 54.3802 286.145 53.6562C286.145 52.776 286.479 52.0938 287.145 51.6094C287.817 51.1198 288.76 50.875 289.973 50.875H291.38V50.2109C291.38 49.7057 291.229 49.3047 290.927 49.0078C290.624 48.7057 290.179 48.5547 289.591 48.5547C289.075 48.5547 288.643 48.6849 288.294 48.9453C287.945 49.2057 287.77 49.5208 287.77 49.8906H286.317C286.317 49.4688 286.466 49.0625 286.762 48.6719C287.065 48.276 287.471 47.9635 287.981 47.7344C288.497 47.5052 289.062 47.3906 289.677 47.3906C290.65 47.3906 291.413 47.6354 291.966 48.125C292.518 48.6094 292.804 49.2786 292.825 50.1328V54.0234C292.825 54.7995 292.924 55.4167 293.122 55.875V56H291.606ZM289.208 54.8984C289.661 54.8984 290.091 54.7812 290.497 54.5469C290.903 54.3125 291.197 54.0078 291.38 53.6328V51.8984H290.247C288.476 51.8984 287.591 52.4167 287.591 53.4531C287.591 53.9062 287.742 54.2604 288.044 54.5156C288.346 54.7708 288.734 54.8984 289.208 54.8984ZM299.177 48.8438C298.958 48.8073 298.721 48.7891 298.466 48.7891C297.518 48.7891 296.874 49.1927 296.536 50V56H295.091V47.5469H296.497L296.52 48.5234C296.994 47.7682 297.666 47.3906 298.536 47.3906C298.817 47.3906 299.031 47.4271 299.177 47.5V48.8438ZM303.864 56.1562C302.718 56.1562 301.786 55.7812 301.067 55.0312C300.348 54.276 299.989 53.2682 299.989 52.0078V51.7422C299.989 50.9036 300.148 50.1562 300.466 49.5C300.788 48.8385 301.236 48.3229 301.809 47.9531C302.387 47.5781 303.012 47.3906 303.684 47.3906C304.783 47.3906 305.637 47.7526 306.247 48.4766C306.856 49.2005 307.161 50.237 307.161 51.5859V52.1875H301.434C301.455 53.0208 301.697 53.6953 302.161 54.2109C302.63 54.7214 303.223 54.9766 303.942 54.9766C304.453 54.9766 304.885 54.8724 305.239 54.6641C305.593 54.4557 305.903 54.1797 306.169 53.8359L307.052 54.5234C306.343 55.612 305.281 56.1562 303.864 56.1562ZM303.684 48.5781C303.101 48.5781 302.611 48.7917 302.216 49.2188C301.82 49.6406 301.575 50.2344 301.481 51H305.716V50.8906C305.674 50.1562 305.476 49.5885 305.122 49.1875C304.768 48.7812 304.288 48.5781 303.684 48.5781ZM314.77 45.5V47.5469H316.348V48.6641H314.77V53.9062C314.77 54.2448 314.841 54.5 314.981 54.6719C315.122 54.8385 315.361 54.9219 315.7 54.9219C315.867 54.9219 316.096 54.8906 316.387 54.8281V56C316.007 56.1042 315.637 56.1562 315.278 56.1562C314.632 56.1562 314.145 55.9609 313.817 55.5703C313.489 55.1797 313.325 54.625 313.325 53.9062V48.6641H311.786V47.5469H313.325V45.5H314.77ZM319.489 48.5703C320.13 47.7839 320.963 47.3906 321.989 47.3906C323.775 47.3906 324.677 48.3984 324.692 50.4141V56H323.247V50.4062C323.242 49.7969 323.101 49.3464 322.825 49.0547C322.554 48.763 322.13 48.6172 321.552 48.6172C321.083 48.6172 320.671 48.7422 320.317 48.9922C319.963 49.2422 319.687 49.5703 319.489 49.9766V56H318.044V44H319.489V48.5703ZM330.364 56.1562C329.218 56.1562 328.286 55.7812 327.567 55.0312C326.848 54.276 326.489 53.2682 326.489 52.0078V51.7422C326.489 50.9036 326.648 50.1562 326.966 49.5C327.288 48.8385 327.736 48.3229 328.309 47.9531C328.887 47.5781 329.512 47.3906 330.184 47.3906C331.283 47.3906 332.137 47.7526 332.747 48.4766C333.356 49.2005 333.661 50.237 333.661 51.5859V52.1875H327.934C327.955 53.0208 328.197 53.6953 328.661 54.2109C329.13 54.7214 329.723 54.9766 330.442 54.9766C330.953 54.9766 331.385 54.8724 331.739 54.6641C332.093 54.4557 332.403 54.1797 332.669 53.8359L333.552 54.5234C332.843 55.612 331.781 56.1562 330.364 56.1562ZM330.184 48.5781C329.601 48.5781 329.111 48.7917 328.716 49.2188C328.32 49.6406 328.075 50.2344 327.981 51H332.216V50.8906C332.174 50.1562 331.976 49.5885 331.622 49.1875C331.268 48.7812 330.788 48.5781 330.184 48.5781ZM346.466 51.8672C346.466 53.1589 346.169 54.1979 345.575 54.9844C344.981 55.7656 344.184 56.1562 343.184 56.1562C342.117 56.1562 341.291 55.7786 340.708 55.0234L340.637 56H339.309V44H340.755V48.4766C341.338 47.7526 342.143 47.3906 343.169 47.3906C344.195 47.3906 344.999 47.7786 345.583 48.5547C346.171 49.3307 346.466 50.3932 346.466 51.7422V51.8672ZM345.02 51.7031C345.02 50.7188 344.83 49.9583 344.45 49.4219C344.07 48.8854 343.523 48.6172 342.809 48.6172C341.856 48.6172 341.171 49.0599 340.755 49.9453V53.6016C341.197 54.487 341.887 54.9297 342.825 54.9297C343.518 54.9297 344.057 54.6615 344.442 54.125C344.828 53.5885 345.02 52.7812 345.02 51.7031ZM349.864 56H348.419V47.5469H349.864V56ZM348.302 45.3047C348.302 45.0703 348.372 44.8724 348.512 44.7109C348.658 44.5495 348.872 44.4688 349.153 44.4688C349.434 44.4688 349.648 44.5495 349.794 44.7109C349.94 44.8724 350.012 45.0703 350.012 45.3047C350.012 45.5391 349.94 45.7344 349.794 45.8906C349.648 46.0469 349.434 46.125 349.153 46.125C348.872 46.125 348.658 46.0469 348.512 45.8906C348.372 45.7344 348.302 45.5391 348.302 45.3047ZM353.755 56H352.309V44H353.755V56ZM357.645 56H356.2V44H357.645V56ZM369.153 56C369.07 55.8333 369.002 55.5365 368.95 55.1094C368.278 55.8073 367.476 56.1562 366.544 56.1562C365.71 56.1562 365.025 55.9219 364.489 55.4531C363.958 54.9792 363.692 54.3802 363.692 53.6562C363.692 52.776 364.025 52.0938 364.692 51.6094C365.364 51.1198 366.307 50.875 367.52 50.875H368.927V50.2109C368.927 49.7057 368.775 49.3047 368.473 49.0078C368.171 48.7057 367.726 48.5547 367.137 48.5547C366.622 48.5547 366.19 48.6849 365.841 48.9453C365.492 49.2057 365.317 49.5208 365.317 49.8906H363.864C363.864 49.4688 364.012 49.0625 364.309 48.6719C364.611 48.276 365.018 47.9635 365.528 47.7344C366.044 47.5052 366.609 47.3906 367.223 47.3906C368.197 47.3906 368.96 47.6354 369.512 48.125C370.065 48.6094 370.351 49.2786 370.372 50.1328V54.0234C370.372 54.7995 370.471 55.4167 370.669 55.875V56H369.153ZM366.755 54.8984C367.208 54.8984 367.637 54.7812 368.044 54.5469C368.45 54.3125 368.744 54.0078 368.927 53.6328V51.8984H367.794C366.023 51.8984 365.137 52.4167 365.137 53.4531C365.137 53.9062 365.288 54.2604 365.591 54.5156C365.893 54.7708 366.281 54.8984 366.755 54.8984ZM373.997 47.5469L374.036 48.4844C374.656 47.7552 375.492 47.3906 376.544 47.3906C377.726 47.3906 378.531 47.8438 378.958 48.75C379.239 48.3438 379.604 48.0156 380.052 47.7656C380.505 47.5156 381.038 47.3906 381.653 47.3906C383.507 47.3906 384.45 48.3724 384.481 50.3359V56H383.036V50.4219C383.036 49.8177 382.898 49.3672 382.622 49.0703C382.346 48.7682 381.882 48.6172 381.231 48.6172C380.695 48.6172 380.249 48.7786 379.895 49.1016C379.541 49.4193 379.335 49.849 379.278 50.3906V56H377.825V50.4609C377.825 49.2318 377.223 48.6172 376.02 48.6172C375.072 48.6172 374.424 49.0208 374.075 49.8281V56H372.63V47.5469H373.997ZM386.286 51.6953C386.286 50.8672 386.447 50.1224 386.77 49.4609C387.098 48.7995 387.552 48.2891 388.13 47.9297C388.713 47.5703 389.377 47.3906 390.122 47.3906C391.273 47.3906 392.203 47.7891 392.911 48.5859C393.624 49.3828 393.981 50.4427 393.981 51.7656V51.8672C393.981 52.6901 393.822 53.4297 393.505 54.0859C393.192 54.737 392.742 55.2448 392.153 55.6094C391.57 55.974 390.898 56.1562 390.137 56.1562C388.992 56.1562 388.062 55.7578 387.348 54.9609C386.64 54.1641 386.286 53.1094 386.286 51.7969V51.6953ZM387.739 51.8672C387.739 52.8047 387.955 53.5573 388.387 54.125C388.825 54.6927 389.408 54.9766 390.137 54.9766C390.872 54.9766 391.455 54.6901 391.887 54.1172C392.32 53.5391 392.536 52.7318 392.536 51.6953C392.536 50.7682 392.315 50.0182 391.872 49.4453C391.434 48.8672 390.851 48.5781 390.122 48.5781C389.408 48.5781 388.833 48.862 388.395 49.4297C387.958 49.9974 387.739 50.8099 387.739 51.8672ZM401.012 55.1641C400.45 55.8255 399.624 56.1562 398.536 56.1562C397.635 56.1562 396.947 55.8958 396.473 55.375C396.005 54.849 395.768 54.0729 395.762 53.0469V47.5469H397.208V53.0078C397.208 54.2891 397.729 54.9297 398.77 54.9297C399.874 54.9297 400.609 54.5182 400.973 53.6953V47.5469H402.419V56H401.044L401.012 55.1641ZM405.989 47.5469L406.036 48.6094C406.682 47.7969 407.525 47.3906 408.567 47.3906C410.354 47.3906 411.255 48.3984 411.27 50.4141V56H409.825V50.4062C409.82 49.7969 409.679 49.3464 409.403 49.0547C409.132 48.763 408.708 48.6172 408.13 48.6172C407.661 48.6172 407.249 48.7422 406.895 48.9922C406.541 49.2422 406.265 49.5703 406.067 49.9766V56H404.622V47.5469H405.989ZM415.411 45.5V47.5469H416.989V48.6641H415.411V53.9062C415.411 54.2448 415.481 54.5 415.622 54.6719C415.762 54.8385 416.002 54.9219 416.341 54.9219C416.507 54.9219 416.736 54.8906 417.028 54.8281V56C416.648 56.1042 416.278 56.1562 415.919 56.1562C415.273 56.1562 414.786 55.9609 414.458 55.5703C414.13 55.1797 413.966 54.625 413.966 53.9062V48.6641H412.427V47.5469H413.966V45.5H415.411ZM430.137 54.0078L431.762 47.5469H433.208L430.747 56H429.575L427.52 49.5938L425.52 56H424.348L421.895 47.5469H423.333L424.997 53.875L426.966 47.5469H428.13L430.137 54.0078ZM436.255 56H434.809V47.5469H436.255V56ZM434.692 45.3047C434.692 45.0703 434.762 44.8724 434.903 44.7109C435.049 44.5495 435.262 44.4688 435.544 44.4688C435.825 44.4688 436.038 44.5495 436.184 44.7109C436.33 44.8724 436.403 45.0703 436.403 45.3047C436.403 45.5391 436.33 45.7344 436.184 45.8906C436.038 46.0469 435.825 46.125 435.544 46.125C435.262 46.125 435.049 46.0469 434.903 45.8906C434.762 45.7344 434.692 45.5391 434.692 45.3047ZM440.536 45.5V47.5469H442.114V48.6641H440.536V53.9062C440.536 54.2448 440.606 54.5 440.747 54.6719C440.887 54.8385 441.127 54.9219 441.466 54.9219C441.632 54.9219 441.861 54.8906 442.153 54.8281V56C441.773 56.1042 441.403 56.1562 441.044 56.1562C440.398 56.1562 439.911 55.9609 439.583 55.5703C439.255 55.1797 439.091 54.625 439.091 53.9062V48.6641H437.552V47.5469H439.091V45.5H440.536ZM445.255 48.5703C445.895 47.7839 446.729 47.3906 447.755 47.3906C449.541 47.3906 450.442 48.3984 450.458 50.4141V56H449.012V50.4062C449.007 49.7969 448.867 49.3464 448.591 49.0547C448.32 48.763 447.895 48.6172 447.317 48.6172C446.848 48.6172 446.437 48.7422 446.083 48.9922C445.729 49.2422 445.453 49.5703 445.255 49.9766V56H443.809V44H445.255V48.5703ZM452.653 55.2422C452.653 54.9922 452.726 54.7839 452.872 54.6172C453.023 54.4505 453.247 54.3672 453.544 54.3672C453.841 54.3672 454.065 54.4505 454.216 54.6172C454.372 54.7839 454.45 54.9922 454.45 55.2422C454.45 55.4818 454.372 55.6823 454.216 55.8438C454.065 56.0052 453.841 56.0859 453.544 56.0859C453.247 56.0859 453.023 56.0052 452.872 55.8438C452.726 55.6823 452.653 55.4818 452.653 55.2422Z" fill="#6654A4"/>
<path d="M46.2863 64H49.2303V40.864H43.2143V43.52H46.2863V64Z" fill="#6654A4"/>
<defs>
<filter id="filter0_d" x="0" y="0" width="594.56" height="113" filterUnits="userSpaceOnUse" color-interpolation-filters="sRGB">
<feFlood flood-opacity="0" result="BackgroundImageFix"/>
<feColorMatrix in="SourceAlpha" type="matrix" values="0 0 0 0 0 0 0 0 0 0 0 0 0 0 0 0 0 0 127 0"/>
<feMorphology radius="4" operator="dilate" in="SourceAlpha" result="effect1_dropShadow"/>
<feOffset dy="3"/>
<feGaussianBlur stdDeviation="7.5"/>
<feColorMatrix type="matrix" values="0 0 0 0 0.872109 0 0 0 0 0.853125 0 0 0 0 0.9375 0 0 0 0.5 0"/>
<feBlend mode="normal" in2="BackgroundImageFix" result="effect1_dropShadow"/>
<feBlend mode="normal" in="SourceGraphic" in2="effect1_dropShadow" result="shape"/>
</filter>
</defs>
</svg>
