<svg width="563" height="75" viewBox="0 0 563 75" fill="none" xmlns="http://www.w3.org/2000/svg">
<path d="M70.4031 34.3906C70.2625 35.5938 69.8171 36.5234 69.0671 37.1797C68.3223 37.8307 67.3302 38.1562 66.0906 38.1562C64.7468 38.1562 63.6687 37.6745 62.8562 36.7109C62.0489 35.7474 61.6453 34.4583 61.6453 32.8438V31.75C61.6453 30.6927 61.8328 29.763 62.2078 28.9609C62.588 28.1589 63.1244 27.5443 63.8171 27.1172C64.5098 26.6849 65.3119 26.4688 66.2234 26.4688C67.4317 26.4688 68.4005 26.8073 69.1296 27.4844C69.8588 28.1562 70.2833 29.0885 70.4031 30.2812H68.8953C68.7651 29.375 68.4812 28.7188 68.0437 28.3125C67.6114 27.9062 67.0046 27.7031 66.2234 27.7031C65.2651 27.7031 64.5125 28.0573 63.9656 28.7656C63.4239 29.474 63.1531 30.4818 63.1531 31.7891V32.8906C63.1531 34.125 63.4109 35.1068 63.9265 35.8359C64.4421 36.5651 65.1635 36.9297 66.0906 36.9297C66.9239 36.9297 67.5619 36.7422 68.0046 36.3672C68.4526 35.987 68.7494 35.3281 68.8953 34.3906H70.4031ZM71.8484 33.6953C71.8484 32.8672 72.0098 32.1224 72.3328 31.4609C72.6609 30.7995 73.114 30.2891 73.6921 29.9297C74.2755 29.5703 74.9395 29.3906 75.6843 29.3906C76.8354 29.3906 77.7651 29.7891 78.4734 30.5859C79.1869 31.3828 79.5437 32.4427 79.5437 33.7656V33.8672C79.5437 34.6901 79.3848 35.4297 79.0671 36.0859C78.7546 36.737 78.3041 37.2448 77.7156 37.6094C77.1322 37.974 76.4604 38.1562 75.7 38.1562C74.5541 38.1562 73.6244 37.7578 72.9109 36.9609C72.2026 36.1641 71.8484 35.1094 71.8484 33.7969V33.6953ZM73.3015 33.8672C73.3015 34.8047 73.5177 35.5573 73.95 36.125C74.3875 36.6927 74.9708 36.9766 75.7 36.9766C76.4343 36.9766 77.0177 36.6901 77.45 36.1172C77.8822 35.5391 78.0984 34.7318 78.0984 33.6953C78.0984 32.7682 77.877 32.0182 77.4343 31.4453C76.9968 30.8672 76.4135 30.5781 75.6843 30.5781C74.9708 30.5781 74.3953 30.862 73.9578 31.4297C73.5203 31.9974 73.3015 32.8099 73.3015 33.8672ZM82.7234 29.5469L82.7703 30.6094C83.4161 29.7969 84.2598 29.3906 85.3015 29.3906C87.088 29.3906 87.989 30.3984 88.0046 32.4141V38H86.5593V32.4062C86.5541 31.7969 86.4135 31.3464 86.1375 31.0547C85.8666 30.763 85.4421 30.6172 84.864 30.6172C84.3953 30.6172 83.9838 30.7422 83.6296 30.9922C83.2755 31.2422 82.9994 31.5703 82.8015 31.9766V38H81.3562V29.5469H82.7234ZM90.6687 38V30.6641H89.3328V29.5469H90.6687V28.8281C90.6687 27.8854 90.9369 27.151 91.4734 26.625C92.0151 26.099 92.7781 25.8359 93.7625 25.8359C94.3458 25.8359 95.0828 25.9948 95.9734 26.3125L95.7312 27.5312C95.0802 27.2708 94.4604 27.1406 93.8718 27.1406C93.252 27.1406 92.8041 27.2812 92.5281 27.5625C92.2572 27.8385 92.1218 28.2552 92.1218 28.8125V29.5469H93.8484V30.6641H92.1218V38H90.6687ZM96.6921 38H95.239V29.5469H96.6921V38ZM103.13 30.8438C102.911 30.8073 102.674 30.7891 102.419 30.7891C101.471 30.7891 100.828 31.1927 100.489 32V38H99.0437V29.5469H100.45L100.473 30.5234C100.947 29.7682 101.619 29.3906 102.489 29.3906C102.77 29.3906 102.984 29.4271 103.13 29.5V30.8438ZM105.825 29.5469L105.864 30.4844C106.484 29.7552 107.32 29.3906 108.372 29.3906C109.554 29.3906 110.359 29.8438 110.786 30.75C111.067 30.3438 111.432 30.0156 111.88 29.7656C112.333 29.5156 112.867 29.3906 113.481 29.3906C115.335 29.3906 116.278 30.3724 116.309 32.3359V38H114.864V32.4219C114.864 31.8177 114.726 31.3672 114.45 31.0703C114.174 30.7682 113.71 30.6172 113.059 30.6172C112.523 30.6172 112.078 30.7786 111.723 31.1016C111.369 31.4193 111.163 31.849 111.106 32.3906V38H109.653V32.4609C109.653 31.2318 109.052 30.6172 107.848 30.6172C106.9 30.6172 106.252 31.0208 105.903 31.8281V38H104.458V29.5469H105.825ZM124.427 27.5V29.5469H126.005V30.6641H124.427V35.9062C124.427 36.2448 124.497 36.5 124.637 36.6719C124.778 36.8385 125.018 36.9219 125.356 36.9219C125.523 36.9219 125.752 36.8906 126.044 36.8281V38C125.663 38.1042 125.294 38.1562 124.934 38.1562C124.288 38.1562 123.802 37.9609 123.473 37.5703C123.145 37.1797 122.981 36.625 122.981 35.9062V30.6641H121.442V29.5469H122.981V27.5H124.427ZM129.145 30.5703C129.786 29.7839 130.619 29.3906 131.645 29.3906C133.432 29.3906 134.333 30.3984 134.348 32.4141V38H132.903V32.4062C132.898 31.7969 132.757 31.3464 132.481 31.0547C132.21 30.763 131.786 30.6172 131.208 30.6172C130.739 30.6172 130.328 30.7422 129.973 30.9922C129.619 31.2422 129.343 31.5703 129.145 31.9766V38H127.7V26H129.145V30.5703ZM140.02 38.1562C138.874 38.1562 137.942 37.7812 137.223 37.0312C136.505 36.276 136.145 35.2682 136.145 34.0078V33.7422C136.145 32.9036 136.304 32.1562 136.622 31.5C136.945 30.8385 137.393 30.3229 137.966 29.9531C138.544 29.5781 139.169 29.3906 139.841 29.3906C140.94 29.3906 141.794 29.7526 142.403 30.4766C143.012 31.2005 143.317 32.237 143.317 33.5859V34.1875H137.591C137.611 35.0208 137.854 35.6953 138.317 36.2109C138.786 36.7214 139.38 36.9766 140.098 36.9766C140.609 36.9766 141.041 36.8724 141.395 36.6641C141.749 36.4557 142.059 36.1797 142.325 35.8359L143.208 36.5234C142.499 37.612 141.437 38.1562 140.02 38.1562ZM139.841 30.5781C139.257 30.5781 138.768 30.7917 138.372 31.2188C137.976 31.6406 137.731 32.2344 137.637 33H141.872V32.8906C141.83 32.1562 141.632 31.5885 141.278 31.1875C140.924 30.7812 140.445 30.5781 139.841 30.5781ZM156.106 33.8672C156.106 35.1536 155.812 36.1901 155.223 36.9766C154.635 37.763 153.838 38.1562 152.833 38.1562C151.807 38.1562 150.999 37.8307 150.411 37.1797V41.25H148.966V29.5469H150.286L150.356 30.4844C150.945 29.7552 151.762 29.3906 152.809 29.3906C153.825 29.3906 154.627 29.7734 155.216 30.5391C155.809 31.3047 156.106 32.3698 156.106 33.7344V33.8672ZM154.661 33.7031C154.661 32.75 154.458 31.9974 154.052 31.4453C153.645 30.8932 153.088 30.6172 152.38 30.6172C151.505 30.6172 150.848 31.0052 150.411 31.7812V35.8203C150.843 36.5911 151.505 36.9766 152.395 36.9766C153.088 36.9766 153.637 36.7031 154.044 36.1562C154.455 35.6042 154.661 34.7865 154.661 33.7031ZM163.169 38C163.085 37.8333 163.018 37.5365 162.966 37.1094C162.294 37.8073 161.492 38.1562 160.559 38.1562C159.726 38.1562 159.041 37.9219 158.505 37.4531C157.973 36.9792 157.708 36.3802 157.708 35.6562C157.708 34.776 158.041 34.0938 158.708 33.6094C159.38 33.1198 160.322 32.875 161.536 32.875H162.942V32.2109C162.942 31.7057 162.791 31.3047 162.489 31.0078C162.187 30.7057 161.742 30.5547 161.153 30.5547C160.637 30.5547 160.205 30.6849 159.856 30.9453C159.507 31.2057 159.333 31.5208 159.333 31.8906H157.88C157.88 31.4688 158.028 31.0625 158.325 30.6719C158.627 30.276 159.033 29.9635 159.544 29.7344C160.059 29.5052 160.624 29.3906 161.239 29.3906C162.213 29.3906 162.976 29.6354 163.528 30.125C164.08 30.6094 164.367 31.2786 164.387 32.1328V36.0234C164.387 36.7995 164.486 37.4167 164.684 37.875V38H163.169ZM160.77 36.8984C161.223 36.8984 161.653 36.7812 162.059 36.5469C162.466 36.3125 162.76 36.0078 162.942 35.6328V33.8984H161.809C160.038 33.8984 159.153 34.4167 159.153 35.4531C159.153 35.9062 159.304 36.2604 159.606 36.5156C159.908 36.7708 160.296 36.8984 160.77 36.8984ZM169.294 35.8828L171.262 29.5469H172.809L169.411 39.3047C168.885 40.7109 168.049 41.4141 166.903 41.4141L166.63 41.3906L166.091 41.2891V40.1172L166.481 40.1484C166.971 40.1484 167.351 40.0495 167.622 39.8516C167.898 39.6536 168.124 39.2917 168.302 38.7656L168.622 37.9062L165.606 29.5469H167.184L169.294 35.8828ZM175.466 29.5469L175.505 30.4844C176.124 29.7552 176.96 29.3906 178.012 29.3906C179.195 29.3906 179.999 29.8438 180.427 30.75C180.708 30.3438 181.072 30.0156 181.52 29.7656C181.973 29.5156 182.507 29.3906 183.122 29.3906C184.976 29.3906 185.919 30.3724 185.95 32.3359V38H184.505V32.4219C184.505 31.8177 184.367 31.3672 184.091 31.0703C183.815 30.7682 183.351 30.6172 182.7 30.6172C182.163 30.6172 181.718 30.7786 181.364 31.1016C181.01 31.4193 180.804 31.849 180.747 32.3906V38H179.294V32.4609C179.294 31.2318 178.692 30.6172 177.489 30.6172C176.541 30.6172 175.893 31.0208 175.544 31.8281V38H174.098V29.5469H175.466ZM191.645 38.1562C190.499 38.1562 189.567 37.7812 188.848 37.0312C188.13 36.276 187.77 35.2682 187.77 34.0078V33.7422C187.77 32.9036 187.929 32.1562 188.247 31.5C188.57 30.8385 189.018 30.3229 189.591 29.9531C190.169 29.5781 190.794 29.3906 191.466 29.3906C192.565 29.3906 193.419 29.7526 194.028 30.4766C194.637 31.2005 194.942 32.237 194.942 33.5859V34.1875H189.216C189.236 35.0208 189.479 35.6953 189.942 36.2109C190.411 36.7214 191.005 36.9766 191.723 36.9766C192.234 36.9766 192.666 36.8724 193.02 36.6641C193.374 36.4557 193.684 36.1797 193.95 35.8359L194.833 36.5234C194.124 37.612 193.062 38.1562 191.645 38.1562ZM191.466 30.5781C190.882 30.5781 190.393 30.7917 189.997 31.2188C189.601 31.6406 189.356 32.2344 189.262 33H193.497V32.8906C193.455 32.1562 193.257 31.5885 192.903 31.1875C192.549 30.7812 192.07 30.5781 191.466 30.5781ZM197.989 29.5469L198.036 30.6094C198.682 29.7969 199.525 29.3906 200.567 29.3906C202.354 29.3906 203.255 30.3984 203.27 32.4141V38H201.825V32.4062C201.82 31.7969 201.679 31.3464 201.403 31.0547C201.132 30.763 200.708 30.6172 200.13 30.6172C199.661 30.6172 199.249 30.7422 198.895 30.9922C198.541 31.2422 198.265 31.5703 198.067 31.9766V38H196.622V29.5469H197.989ZM207.411 27.5V29.5469H208.989V30.6641H207.411V35.9062C207.411 36.2448 207.481 36.5 207.622 36.6719C207.762 36.8385 208.002 36.9219 208.341 36.9219C208.507 36.9219 208.736 36.8906 209.028 36.8281V38C208.648 38.1042 208.278 38.1562 207.919 38.1562C207.273 38.1562 206.786 37.9609 206.458 37.5703C206.13 37.1797 205.966 36.625 205.966 35.9062V30.6641H204.427V29.5469H205.966V27.5H207.411ZM218.739 30.8438C218.52 30.8073 218.283 30.7891 218.028 30.7891C217.08 30.7891 216.437 31.1927 216.098 32V38H214.653V29.5469H216.059L216.083 30.5234C216.557 29.7682 217.229 29.3906 218.098 29.3906C218.38 29.3906 218.593 29.4271 218.739 29.5V30.8438ZM223.427 38.1562C222.281 38.1562 221.348 37.7812 220.63 37.0312C219.911 36.276 219.552 35.2682 219.552 34.0078V33.7422C219.552 32.9036 219.71 32.1562 220.028 31.5C220.351 30.8385 220.799 30.3229 221.372 29.9531C221.95 29.5781 222.575 29.3906 223.247 29.3906C224.346 29.3906 225.2 29.7526 225.809 30.4766C226.419 31.2005 226.723 32.237 226.723 33.5859V34.1875H220.997C221.018 35.0208 221.26 35.6953 221.723 36.2109C222.192 36.7214 222.786 36.9766 223.505 36.9766C224.015 36.9766 224.447 36.8724 224.802 36.6641C225.156 36.4557 225.466 36.1797 225.731 35.8359L226.614 36.5234C225.906 37.612 224.843 38.1562 223.427 38.1562ZM223.247 30.5781C222.663 30.5781 222.174 30.7917 221.778 31.2188C221.382 31.6406 221.137 32.2344 221.044 33H225.278V32.8906C225.236 32.1562 225.038 31.5885 224.684 31.1875C224.33 30.7812 223.851 30.5781 223.247 30.5781ZM228.052 33.7031C228.052 32.375 228.356 31.3255 228.966 30.5547C229.575 29.7786 230.393 29.3906 231.419 29.3906C232.419 29.3906 233.208 29.7266 233.786 30.3984L233.848 29.5469H235.177V41.25H233.731V37.2188C233.148 37.8438 232.372 38.1562 231.403 38.1562C230.382 38.1562 229.567 37.7604 228.958 36.9688C228.354 36.1719 228.052 35.1172 228.052 33.8047V33.7031ZM229.497 33.8672C229.497 34.8359 229.7 35.5964 230.106 36.1484C230.518 36.7005 231.07 36.9766 231.762 36.9766C232.622 36.9766 233.278 36.5964 233.731 35.8359V31.6953C233.273 30.9505 232.622 30.5781 231.778 30.5781C231.08 30.5781 230.525 30.8568 230.114 31.4141C229.703 31.9661 229.497 32.7839 229.497 33.8672ZM242.716 37.1641C242.153 37.8255 241.328 38.1562 240.239 38.1562C239.338 38.1562 238.65 37.8958 238.177 37.375C237.708 36.849 237.471 36.0729 237.466 35.0469V29.5469H238.911V35.0078C238.911 36.2891 239.432 36.9297 240.473 36.9297C241.578 36.9297 242.312 36.5182 242.677 35.6953V29.5469H244.122V38H242.747L242.716 37.1641ZM249.833 38.1562C248.687 38.1562 247.755 37.7812 247.036 37.0312C246.317 36.276 245.958 35.2682 245.958 34.0078V33.7422C245.958 32.9036 246.117 32.1562 246.434 31.5C246.757 30.8385 247.205 30.3229 247.778 29.9531C248.356 29.5781 248.981 29.3906 249.653 29.3906C250.752 29.3906 251.606 29.7526 252.216 30.4766C252.825 31.2005 253.13 32.237 253.13 33.5859V34.1875H247.403C247.424 35.0208 247.666 35.6953 248.13 36.2109C248.598 36.7214 249.192 36.9766 249.911 36.9766C250.421 36.9766 250.854 36.8724 251.208 36.6641C251.562 36.4557 251.872 36.1797 252.137 35.8359L253.02 36.5234C252.312 37.612 251.249 38.1562 249.833 38.1562ZM249.653 30.5781C249.07 30.5781 248.58 30.7917 248.184 31.2188C247.788 31.6406 247.544 32.2344 247.45 33H251.684V32.8906C251.643 32.1562 251.445 31.5885 251.091 31.1875C250.736 30.7812 250.257 30.5781 249.653 30.5781ZM259.731 35.7578C259.731 35.3672 259.583 35.0651 259.286 34.8516C258.994 34.6328 258.481 34.4453 257.747 34.2891C257.018 34.1328 256.437 33.9453 256.005 33.7266C255.578 33.5078 255.26 33.2474 255.052 32.9453C254.848 32.6432 254.747 32.2839 254.747 31.8672C254.747 31.1745 255.038 30.5885 255.622 30.1094C256.21 29.6302 256.96 29.3906 257.872 29.3906C258.83 29.3906 259.606 29.638 260.2 30.1328C260.799 30.6276 261.098 31.2604 261.098 32.0312H259.645C259.645 31.6354 259.476 31.2943 259.137 31.0078C258.804 30.7214 258.382 30.5781 257.872 30.5781C257.346 30.5781 256.934 30.6927 256.637 30.9219C256.341 31.151 256.192 31.4505 256.192 31.8203C256.192 32.1693 256.33 32.4323 256.606 32.6094C256.882 32.7865 257.38 32.9557 258.098 33.1172C258.822 33.2786 259.408 33.4714 259.856 33.6953C260.304 33.9193 260.635 34.1901 260.848 34.5078C261.067 34.8203 261.177 35.2031 261.177 35.6562C261.177 36.4115 260.874 37.0182 260.27 37.4766C259.666 37.9297 258.882 38.1562 257.919 38.1562C257.242 38.1562 256.643 38.0365 256.122 37.7969C255.601 37.5573 255.192 37.224 254.895 36.7969C254.604 36.3646 254.458 35.8984 254.458 35.3984H255.903C255.929 35.8828 256.122 36.2682 256.481 36.5547C256.846 36.8359 257.325 36.9766 257.919 36.9766C258.466 36.9766 258.903 36.8672 259.231 36.6484C259.565 36.4245 259.731 36.1276 259.731 35.7578ZM265.02 27.5V29.5469H266.598V30.6641H265.02V35.9062C265.02 36.2448 265.091 36.5 265.231 36.6719C265.372 36.8385 265.611 36.9219 265.95 36.9219C266.117 36.9219 266.346 36.8906 266.637 36.8281V38C266.257 38.1042 265.887 38.1562 265.528 38.1562C264.882 38.1562 264.395 37.9609 264.067 37.5703C263.739 37.1797 263.575 36.625 263.575 35.9062V30.6641H262.036V29.5469H263.575V27.5H265.02ZM274.223 27.5V29.5469H275.802V30.6641H274.223V35.9062C274.223 36.2448 274.294 36.5 274.434 36.6719C274.575 36.8385 274.815 36.9219 275.153 36.9219C275.32 36.9219 275.549 36.8906 275.841 36.8281V38C275.46 38.1042 275.091 38.1562 274.731 38.1562C274.085 38.1562 273.598 37.9609 273.27 37.5703C272.942 37.1797 272.778 36.625 272.778 35.9062V30.6641H271.239V29.5469H272.778V27.5H274.223ZM276.958 33.6953C276.958 32.8672 277.119 32.1224 277.442 31.4609C277.77 30.7995 278.223 30.2891 278.802 29.9297C279.385 29.5703 280.049 29.3906 280.794 29.3906C281.945 29.3906 282.874 29.7891 283.583 30.5859C284.296 31.3828 284.653 32.4427 284.653 33.7656V33.8672C284.653 34.6901 284.494 35.4297 284.177 36.0859C283.864 36.737 283.413 37.2448 282.825 37.6094C282.242 37.974 281.57 38.1562 280.809 38.1562C279.663 38.1562 278.734 37.7578 278.02 36.9609C277.312 36.1641 276.958 35.1094 276.958 33.7969V33.6953ZM278.411 33.8672C278.411 34.8047 278.627 35.5573 279.059 36.125C279.497 36.6927 280.08 36.9766 280.809 36.9766C281.544 36.9766 282.127 36.6901 282.559 36.1172C282.992 35.5391 283.208 34.7318 283.208 33.6953C283.208 32.7682 282.986 32.0182 282.544 31.4453C282.106 30.8672 281.523 30.5781 280.794 30.5781C280.08 30.5781 279.505 30.862 279.067 31.4297C278.63 31.9974 278.411 32.8099 278.411 33.8672ZM297.591 33.8672C297.591 35.1589 297.294 36.1979 296.7 36.9844C296.106 37.7656 295.309 38.1562 294.309 38.1562C293.242 38.1562 292.416 37.7786 291.833 37.0234L291.762 38H290.434V26H291.88V30.4766C292.463 29.7526 293.268 29.3906 294.294 29.3906C295.32 29.3906 296.124 29.7786 296.708 30.5547C297.296 31.3307 297.591 32.3932 297.591 33.7422V33.8672ZM296.145 33.7031C296.145 32.7188 295.955 31.9583 295.575 31.4219C295.195 30.8854 294.648 30.6172 293.934 30.6172C292.981 30.6172 292.296 31.0599 291.88 31.9453V35.6016C292.322 36.487 293.012 36.9297 293.95 36.9297C294.643 36.9297 295.182 36.6615 295.567 36.125C295.953 35.5885 296.145 34.7812 296.145 33.7031ZM302.927 38.1562C301.781 38.1562 300.848 37.7812 300.13 37.0312C299.411 36.276 299.052 35.2682 299.052 34.0078V33.7422C299.052 32.9036 299.21 32.1562 299.528 31.5C299.851 30.8385 300.299 30.3229 300.872 29.9531C301.45 29.5781 302.075 29.3906 302.747 29.3906C303.846 29.3906 304.7 29.7526 305.309 30.4766C305.919 31.2005 306.223 32.237 306.223 33.5859V34.1875H300.497C300.518 35.0208 300.76 35.6953 301.223 36.2109C301.692 36.7214 302.286 36.9766 303.005 36.9766C303.515 36.9766 303.947 36.8724 304.302 36.6641C304.656 36.4557 304.966 36.1797 305.231 35.8359L306.114 36.5234C305.406 37.612 304.343 38.1562 302.927 38.1562ZM302.747 30.5781C302.163 30.5781 301.674 30.7917 301.278 31.2188C300.882 31.6406 300.637 32.2344 300.544 33H304.778V32.8906C304.736 32.1562 304.538 31.5885 304.184 31.1875C303.83 30.7812 303.351 30.5781 302.747 30.5781ZM316.794 35.7578C316.794 35.3672 316.645 35.0651 316.348 34.8516C316.057 34.6328 315.544 34.4453 314.809 34.2891C314.08 34.1328 313.499 33.9453 313.067 33.7266C312.64 33.5078 312.322 33.2474 312.114 32.9453C311.911 32.6432 311.809 32.2839 311.809 31.8672C311.809 31.1745 312.101 30.5885 312.684 30.1094C313.273 29.6302 314.023 29.3906 314.934 29.3906C315.893 29.3906 316.669 29.638 317.262 30.1328C317.861 30.6276 318.161 31.2604 318.161 32.0312H316.708C316.708 31.6354 316.538 31.2943 316.2 31.0078C315.867 30.7214 315.445 30.5781 314.934 30.5781C314.408 30.5781 313.997 30.6927 313.7 30.9219C313.403 31.151 313.255 31.4505 313.255 31.8203C313.255 32.1693 313.393 32.4323 313.669 32.6094C313.945 32.7865 314.442 32.9557 315.161 33.1172C315.885 33.2786 316.471 33.4714 316.919 33.6953C317.367 33.9193 317.697 34.1901 317.911 34.5078C318.13 34.8203 318.239 35.2031 318.239 35.6562C318.239 36.4115 317.937 37.0182 317.333 37.4766C316.729 37.9297 315.945 38.1562 314.981 38.1562C314.304 38.1562 313.705 38.0365 313.184 37.7969C312.663 37.5573 312.255 37.224 311.958 36.7969C311.666 36.3646 311.52 35.8984 311.52 35.3984H312.966C312.992 35.8828 313.184 36.2682 313.544 36.5547C313.908 36.8359 314.387 36.9766 314.981 36.9766C315.528 36.9766 315.966 36.8672 316.294 36.6484C316.627 36.4245 316.794 36.1276 316.794 35.7578ZM323.63 38.1562C322.484 38.1562 321.552 37.7812 320.833 37.0312C320.114 36.276 319.755 35.2682 319.755 34.0078V33.7422C319.755 32.9036 319.913 32.1562 320.231 31.5C320.554 30.8385 321.002 30.3229 321.575 29.9531C322.153 29.5781 322.778 29.3906 323.45 29.3906C324.549 29.3906 325.403 29.7526 326.012 30.4766C326.622 31.2005 326.927 32.237 326.927 33.5859V34.1875H321.2C321.221 35.0208 321.463 35.6953 321.927 36.2109C322.395 36.7214 322.989 36.9766 323.708 36.9766C324.218 36.9766 324.65 36.8724 325.005 36.6641C325.359 36.4557 325.669 36.1797 325.934 35.8359L326.817 36.5234C326.109 37.612 325.046 38.1562 323.63 38.1562ZM323.45 30.5781C322.867 30.5781 322.377 30.7917 321.981 31.2188C321.585 31.6406 321.341 32.2344 321.247 33H325.481V32.8906C325.44 32.1562 325.242 31.5885 324.887 31.1875C324.533 30.7812 324.054 30.5781 323.45 30.5781ZM329.973 29.5469L330.02 30.6094C330.666 29.7969 331.51 29.3906 332.552 29.3906C334.338 29.3906 335.239 30.3984 335.255 32.4141V38H333.809V32.4062C333.804 31.7969 333.663 31.3464 333.387 31.0547C333.117 30.763 332.692 30.6172 332.114 30.6172C331.645 30.6172 331.234 30.7422 330.88 30.9922C330.525 31.2422 330.249 31.5703 330.052 31.9766V38H328.606V29.5469H329.973ZM339.395 27.5V29.5469H340.973V30.6641H339.395V35.9062C339.395 36.2448 339.466 36.5 339.606 36.6719C339.747 36.8385 339.986 36.9219 340.325 36.9219C340.492 36.9219 340.721 36.8906 341.012 36.8281V38C340.632 38.1042 340.262 38.1562 339.903 38.1562C339.257 38.1562 338.77 37.9609 338.442 37.5703C338.114 37.1797 337.95 36.625 337.95 35.9062V30.6641H336.411V29.5469H337.95V27.5H339.395ZM348.598 27.5V29.5469H350.177V30.6641H348.598V35.9062C348.598 36.2448 348.669 36.5 348.809 36.6719C348.95 36.8385 349.19 36.9219 349.528 36.9219C349.695 36.9219 349.924 36.8906 350.216 36.8281V38C349.835 38.1042 349.466 38.1562 349.106 38.1562C348.46 38.1562 347.973 37.9609 347.645 37.5703C347.317 37.1797 347.153 36.625 347.153 35.9062V30.6641H345.614V29.5469H347.153V27.5H348.598ZM351.333 33.6953C351.333 32.8672 351.494 32.1224 351.817 31.4609C352.145 30.7995 352.598 30.2891 353.177 29.9297C353.76 29.5703 354.424 29.3906 355.169 29.3906C356.32 29.3906 357.249 29.7891 357.958 30.5859C358.671 31.3828 359.028 32.4427 359.028 33.7656V33.8672C359.028 34.6901 358.869 35.4297 358.552 36.0859C358.239 36.737 357.788 37.2448 357.2 37.6094C356.617 37.974 355.945 38.1562 355.184 38.1562C354.038 38.1562 353.109 37.7578 352.395 36.9609C351.687 36.1641 351.333 35.1094 351.333 33.7969V33.6953ZM352.786 33.8672C352.786 34.8047 353.002 35.5573 353.434 36.125C353.872 36.6927 354.455 36.9766 355.184 36.9766C355.919 36.9766 356.502 36.6901 356.934 36.1172C357.367 35.5391 357.583 34.7318 357.583 33.6953C357.583 32.7682 357.361 32.0182 356.919 31.4453C356.481 30.8672 355.898 30.5781 355.169 30.5781C354.455 30.5781 353.88 30.862 353.442 31.4297C353.005 31.9974 352.786 32.8099 352.786 33.8672ZM364.427 33.6953C364.427 32.8672 364.588 32.1224 364.911 31.4609C365.239 30.7995 365.692 30.2891 366.27 29.9297C366.854 29.5703 367.518 29.3906 368.262 29.3906C369.413 29.3906 370.343 29.7891 371.052 30.5859C371.765 31.3828 372.122 32.4427 372.122 33.7656V33.8672C372.122 34.6901 371.963 35.4297 371.645 36.0859C371.333 36.737 370.882 37.2448 370.294 37.6094C369.71 37.974 369.038 38.1562 368.278 38.1562C367.132 38.1562 366.203 37.7578 365.489 36.9609C364.781 36.1641 364.427 35.1094 364.427 33.7969V33.6953ZM365.88 33.8672C365.88 34.8047 366.096 35.5573 366.528 36.125C366.966 36.6927 367.549 36.9766 368.278 36.9766C369.012 36.9766 369.596 36.6901 370.028 36.1172C370.46 35.5391 370.677 34.7318 370.677 33.6953C370.677 32.7682 370.455 32.0182 370.012 31.4453C369.575 30.8672 368.992 30.5781 368.262 30.5781C367.549 30.5781 366.973 30.862 366.536 31.4297C366.098 31.9974 365.88 32.8099 365.88 33.8672ZM375.895 27.5V29.5469H377.473V30.6641H375.895V35.9062C375.895 36.2448 375.966 36.5 376.106 36.6719C376.247 36.8385 376.486 36.9219 376.825 36.9219C376.992 36.9219 377.221 36.8906 377.512 36.8281V38C377.132 38.1042 376.762 38.1562 376.403 38.1562C375.757 38.1562 375.27 37.9609 374.942 37.5703C374.614 37.1797 374.45 36.625 374.45 35.9062V30.6641H372.911V29.5469H374.45V27.5H375.895ZM380.614 30.5703C381.255 29.7839 382.088 29.3906 383.114 29.3906C384.9 29.3906 385.802 30.3984 385.817 32.4141V38H384.372V32.4062C384.367 31.7969 384.226 31.3464 383.95 31.0547C383.679 30.763 383.255 30.6172 382.677 30.6172C382.208 30.6172 381.796 30.7422 381.442 30.9922C381.088 31.2422 380.812 31.5703 380.614 31.9766V38H379.169V26H380.614V30.5703ZM391.489 38.1562C390.343 38.1562 389.411 37.7812 388.692 37.0312C387.973 36.276 387.614 35.2682 387.614 34.0078V33.7422C387.614 32.9036 387.773 32.1562 388.091 31.5C388.413 30.8385 388.861 30.3229 389.434 29.9531C390.012 29.5781 390.637 29.3906 391.309 29.3906C392.408 29.3906 393.262 29.7526 393.872 30.4766C394.481 31.2005 394.786 32.237 394.786 33.5859V34.1875H389.059C389.08 35.0208 389.322 35.6953 389.786 36.2109C390.255 36.7214 390.848 36.9766 391.567 36.9766C392.078 36.9766 392.51 36.8724 392.864 36.6641C393.218 36.4557 393.528 36.1797 393.794 35.8359L394.677 36.5234C393.968 37.612 392.906 38.1562 391.489 38.1562ZM391.309 30.5781C390.726 30.5781 390.236 30.7917 389.841 31.2188C389.445 31.6406 389.2 32.2344 389.106 33H393.341V32.8906C393.299 32.1562 393.101 31.5885 392.747 31.1875C392.393 30.7812 391.913 30.5781 391.309 30.5781ZM400.552 30.8438C400.333 30.8073 400.096 30.7891 399.841 30.7891C398.893 30.7891 398.249 31.1927 397.911 32V38H396.466V29.5469H397.872L397.895 30.5234C398.369 29.7682 399.041 29.3906 399.911 29.3906C400.192 29.3906 400.406 29.4271 400.552 29.5V30.8438ZM406.809 35.7578C406.809 35.3672 406.661 35.0651 406.364 34.8516C406.072 34.6328 405.559 34.4453 404.825 34.2891C404.096 34.1328 403.515 33.9453 403.083 33.7266C402.656 33.5078 402.338 33.2474 402.13 32.9453C401.927 32.6432 401.825 32.2839 401.825 31.8672C401.825 31.1745 402.117 30.5885 402.7 30.1094C403.288 29.6302 404.038 29.3906 404.95 29.3906C405.908 29.3906 406.684 29.638 407.278 30.1328C407.877 30.6276 408.177 31.2604 408.177 32.0312H406.723C406.723 31.6354 406.554 31.2943 406.216 31.0078C405.882 30.7214 405.46 30.5781 404.95 30.5781C404.424 30.5781 404.012 30.6927 403.716 30.9219C403.419 31.151 403.27 31.4505 403.27 31.8203C403.27 32.1693 403.408 32.4323 403.684 32.6094C403.96 32.7865 404.458 32.9557 405.177 33.1172C405.9 33.2786 406.486 33.4714 406.934 33.6953C407.382 33.9193 407.713 34.1901 407.927 34.5078C408.145 34.8203 408.255 35.2031 408.255 35.6562C408.255 36.4115 407.953 37.0182 407.348 37.4766C406.744 37.9297 405.96 38.1562 404.997 38.1562C404.32 38.1562 403.721 38.0365 403.2 37.7969C402.679 37.5573 402.27 37.224 401.973 36.7969C401.682 36.3646 401.536 35.8984 401.536 35.3984H402.981C403.007 35.8828 403.2 36.2682 403.559 36.5547C403.924 36.8359 404.403 36.9766 404.997 36.9766C405.544 36.9766 405.981 36.8672 406.309 36.6484C406.643 36.4245 406.809 36.1276 406.809 35.7578ZM410.169 37.2422C410.169 36.9922 410.242 36.7839 410.387 36.6172C410.538 36.4505 410.762 36.3672 411.059 36.3672C411.356 36.3672 411.58 36.4505 411.731 36.6172C411.887 36.7839 411.966 36.9922 411.966 37.2422C411.966 37.4818 411.887 37.6823 411.731 37.8438C411.58 38.0052 411.356 38.0859 411.059 38.0859C410.762 38.0859 410.538 38.0052 410.387 37.8438C410.242 37.6823 410.169 37.4818 410.169 37.2422Z" fill="#656668"/>
<path d="M18.4788 31.688H21.3268C21.6148 29.448 23.2468 27.912 25.9668 27.912C28.7508 27.912 30.2228 29.448 30.2228 31.656C30.2228 34.344 28.1428 35.528 24.2708 35.56H23.5028V37.992H24.2388C28.3988 37.992 30.6708 39.24 30.6708 42.504C30.6708 44.872 29.1988 46.696 26.0948 46.696C23.0228 46.696 21.2308 44.808 20.9428 42.344H18.1268C18.4788 46.824 21.7428 49.16 26.1268 49.16C30.9588 49.16 33.4548 46.344 33.4548 42.76C33.4548 39.432 31.6308 37.448 28.9428 36.808V36.648C31.3748 36.104 33.0388 34.024 33.0388 31.368C33.0388 28.04 30.5748 25.416 26.0628 25.416C21.7748 25.416 18.7668 27.72 18.4788 31.688Z" fill="#656668"/>
</svg>
