<svg width="593" height="351" viewBox="0 0 593 351" fill="none" xmlns="http://www.w3.org/2000/svg">
<path d="M273.195 348.051H273.361C274.71 348.029 275.749 346.926 275.626 345.657L266.637 255.88L258.788 256.579L271.702 346.839C271.796 347.546 272.445 348.065 273.195 348.051Z" fill="#8CB4F4"/>
<path d="M186.616 348.051H186.45C185.101 348.029 184.062 346.926 184.185 345.657L193.174 255.88L201.023 256.579L188.109 346.839C188.016 347.546 187.366 348.065 186.616 348.051Z" fill="#8CB4F4"/>
<path d="M336.631 348.051H336.797C338.146 348.029 339.185 346.926 339.062 345.657L330.073 255.88L322.224 256.579L335.138 346.839C335.239 347.546 335.881 348.065 336.631 348.051Z" fill="#8CB4F4"/>
<path d="M189.292 242.826L173.334 164.026C171.285 153.359 180.13 143.601 191.608 143.861L222.392 144.56C233.011 144.805 242.246 151.909 245.196 162.107L268.549 242.818H189.292V242.826Z" fill="#8CB4F4"/>
<path d="M198.946 242.825L182.988 164.025C180.939 153.359 189.783 143.6 201.261 143.86L232.045 144.56C242.665 144.805 251.899 151.909 254.85 162.107L278.202 242.818H198.946V242.825Z" fill="#8CB4F4"/>
<path d="M193.744 257.192H315.53C317.975 257.192 319.981 255.187 319.981 252.742V247.268C319.981 244.823 317.975 242.818 315.53 242.818H189.293V252.742C189.293 255.194 191.291 257.192 193.744 257.192Z" fill="#8CB4F4"/>
<path d="M250.889 257.192H328.522C330.492 257.192 332.108 255.577 332.108 253.608V246.403C332.108 244.434 330.492 242.818 328.522 242.818H250.889C248.919 242.818 247.303 244.434 247.303 246.403V253.608C247.31 255.584 248.919 257.192 250.889 257.192Z" fill="#8CB4F4"/>
<path d="M259.814 87.9308C259.814 87.9308 251.503 94.84 260.658 103.617C260.658 103.617 252.801 106.358 250.247 104.497C250.247 104.497 250.781 105.442 251.25 105.86C251.25 105.86 243.206 106.589 239.736 104.259C236.273 101.929 236.158 60.5679 258.789 63.9576C258.789 63.9576 277.676 61.491 277.114 83.5241C276.544 105.564 283.707 105.175 283.707 105.175C283.707 105.175 281.767 106.264 280.807 106.315C280.807 106.315 279.372 105.853 279.054 105.096C279.054 105.096 279.401 106.3 279.783 106.668C279.783 106.668 272.092 107.822 268.074 105.117C264.041 102.406 258.955 92.5177 259.814 87.9308Z" fill="#263238"/>
<path d="M258.594 99.1965C258.594 99.1965 252.138 93.0445 249.461 87.0729C247.549 82.8105 238.337 65.5519 255.557 63.7705C255.557 63.7705 267.85 63.1935 273.16 65.1191C277.381 66.6553 283.91 70.6075 281.695 86.5031L281.406 91.7608L258.594 99.1965Z" fill="#263238"/>
<path d="M364.502 350.907C360.851 350.9 353.327 351.852 350.022 347.834C346.711 343.81 339.569 341.834 338.66 340.55C338.169 339.858 338.819 336.771 339.526 334.074C341.308 331.621 338.436 328.282 338.436 328.282L348.002 328.924C348.002 328.924 352.562 334.968 355.917 339.836C357.194 341.682 361.032 344.452 363.347 345.281C366.334 346.349 369.314 347.012 370.403 348.072C372.344 349.955 368.152 350.907 364.502 350.907Z" fill="#FFC3BD"/>
<path d="M364.502 350.906C360.851 350.899 353.327 351.851 350.022 347.834C346.711 343.81 339.569 341.833 338.66 340.55C338.169 339.857 338.14 337.059 339.525 334.073V334.066C339.525 334.066 345.549 336.533 348.955 341.257C352.353 345.98 361.414 348.036 363.318 345.31C363.326 345.303 363.333 345.288 363.34 345.281C366.327 346.348 369.306 347.012 370.396 348.072C372.344 349.954 368.152 350.906 364.502 350.906Z" fill="#263238"/>
<path d="M338.66 340.543L342.332 348.368L344.771 348.635L344.41 341.668L338.66 340.543Z" fill="#263238"/>
<path d="M267.021 201.905C267.021 201.905 320.234 218.378 331.683 227.898C343.132 237.411 351.111 331.789 351.111 331.789C351.111 331.789 349.748 332.618 346.948 332.553C344.344 332.496 338.89 330.245 338.89 330.245C338.89 330.245 315.501 285.415 314.837 274.813C314.166 264.204 315.876 255.044 311.295 254.186C306.714 253.335 248.227 253.025 241.54 236.552C234.852 220.087 244.036 205.858 244.036 205.858L267.021 201.905Z" fill="#102028"/>
<path d="M352.157 350.907C348.507 350.9 340.982 351.852 337.678 347.834C334.367 343.81 327.224 341.834 326.315 340.55C325.825 339.858 326.481 336.771 327.181 334.074C328.963 331.621 326.092 328.282 326.092 328.282L335.658 328.924C335.658 328.924 340.217 334.968 343.572 339.836C344.849 341.682 348.687 344.452 351.003 345.281C353.99 346.349 356.969 347.012 358.059 348.072C359.999 349.955 355.808 350.907 352.157 350.907Z" fill="#FFC3BD"/>
<path d="M352.157 350.906C348.507 350.899 340.982 351.851 337.678 347.834C334.366 343.81 327.224 341.833 326.315 340.55C325.825 339.857 325.796 337.059 327.181 334.073V334.066C327.181 334.066 333.205 336.533 336.61 341.257C340.008 345.98 349.069 348.036 350.974 345.31C350.981 345.303 350.988 345.288 350.996 345.281C353.982 346.348 356.962 347.012 358.051 348.072C359.999 349.954 355.808 350.906 352.157 350.906Z" fill="#263238"/>
<path d="M326.315 340.543L329.988 348.368L332.426 348.635L332.065 341.668L326.315 340.543Z" fill="#263238"/>
<path d="M253.097 206.888C253.097 206.888 307.897 218.384 319.346 227.897C330.795 237.41 338.774 331.788 338.774 331.788C338.774 331.788 337.411 332.617 334.612 332.552C332.007 332.494 326.553 330.244 326.553 330.244C326.553 330.244 303.164 285.414 302.501 274.812C301.83 264.203 303.54 255.043 298.951 254.185C294.37 253.334 235.883 253.024 229.196 236.551C222.508 220.086 231.692 205.856 231.692 205.856L253.097 206.888Z" fill="#263238"/>
<path d="M273.687 118.511C273.752 118.54 267.309 121.887 262.454 120.56C257.894 119.319 254.915 113.405 254.973 113.391C256.906 113.009 257.462 110.355 257.418 98.9521L258.291 99.1252L272.972 102.032C272.972 102.032 272.641 106.648 272.626 111.004C272.626 114.653 272.85 118.122 273.687 118.511Z" fill="#FFC3BD"/>
<path d="M272.98 102.03C272.98 102.03 272.648 106.646 272.634 111.002C264.416 110.771 260.073 103.278 258.299 99.1235L272.98 102.03Z" fill="#DFA09A"/>
<path d="M275.721 106.149C275.721 106.149 256.286 106.467 256.271 94.3646C256.257 82.2626 253.739 74.149 266.148 73.4349C278.556 72.7209 280.973 77.3367 281.961 81.3755C282.957 85.4071 280.778 105.753 275.721 106.149Z" fill="#FFC3BD"/>
<path d="M230.401 170.791C228.482 162.757 235.003 147.157 241.814 134.247C247.989 122.542 254.403 113.051 254.98 113.39C271.27 123.054 272.742 115.02 272.742 115.02C272.749 115.02 287.545 116.981 291.73 124.193C296.924 133.144 302.544 158.141 308.121 162.872C307.262 165.49 307.63 166.889 308.539 170.135C308.734 170.834 308.95 171.491 309.189 172.118C310.033 174.404 311.079 176.258 311.988 177.866C309.152 179.59 303.677 182.864 299.644 180.506C293.497 176.907 288.7 165.952 285.994 161.588C285.987 161.574 285.973 161.56 285.966 161.538C280.093 194.75 288.079 202.315 284.039 205.821C279.776 209.52 273.68 204.061 260.268 209.867C251.474 213.682 239.267 219.192 231.05 220.158C226.743 220.663 223.525 219.913 222.479 217.007C219.428 208.561 234.058 186.11 230.401 170.791Z" fill="white"/>
<path d="M271.407 98.8076C271.407 98.8076 271.767 100.344 275.598 100.106C275.598 100.106 278.809 99.9039 278.715 98.2162C278.708 98.2234 275.591 97.019 271.407 98.8076Z" fill="white"/>
<path d="M219.695 182.591C224.052 176.475 228.59 173.244 231.577 171.614C230.891 169.847 249.901 146.544 249.901 142.931C249.901 139.274 254.973 113.383 254.973 113.383C254.973 113.383 239.13 114.364 233.647 122.009C226.793 131.579 212.545 168.383 219.695 182.591Z" fill="white"/>
<path d="M231.577 171.614L263.233 179.872L260.261 185.202C260.261 185.202 221.736 184.935 219.695 182.591C217.653 180.247 231.577 171.614 231.577 171.614Z" fill="#FFC3BD"/>
<path d="M285.995 161.603C288.693 165.966 293.49 176.922 299.644 180.521C303.677 182.879 309.153 179.597 311.988 177.881C311.079 176.273 310.026 174.419 309.189 172.133C306.923 172.652 304.167 173.308 302.386 173.849C298.915 174.888 285.995 161.603 285.995 161.603Z" fill="#3E3071"/>
<path d="M282.769 157.254L265.823 194.836L305.992 198.63L321.799 160.47L282.769 157.254Z" fill="#263238"/>
<path d="M321.799 160.471L340.542 148.585L321.799 189.557L305.993 198.63C306.837 196.589 321.799 160.471 321.799 160.471Z" fill="#4D5C63"/>
<path d="M263.24 179.872C263.24 179.872 269.091 177.297 270.577 175.978C271.536 175.127 271.457 176.338 271.37 176.677C271.19 177.348 270.945 178.689 269.242 179.807C266.782 181.423 263.24 179.872 263.24 179.872Z" fill="#FFC3BD"/>
<path d="M273.752 69.0863C273.752 69.0863 267.548 86.4748 258.638 89.2875C249.729 92.1002 246.85 88.5446 246.85 88.5446C246.85 88.5446 253.48 82.6595 254.396 72.9736C254.396 72.9736 268.897 61.8453 273.752 69.0863Z" fill="#263238"/>
<path d="M272.359 70.4344C272.359 70.4344 276.948 73.7014 278.203 77.0551C279.458 80.4087 280.324 87.3973 282.358 87.0511C282.358 87.0511 286.211 76.1319 280.894 70.3622C275.267 64.2463 272.359 70.4344 272.359 70.4344Z" fill="#263238"/>
<path d="M273.203 70.9244C273.203 70.9244 269.906 87.6061 258.796 93.4984C258.796 93.4984 269.647 82.7668 270.022 71.8548C270.397 60.9428 273.203 70.9244 273.203 70.9244Z" fill="#263238"/>
<path d="M239.736 104.253C243.199 106.589 251.25 105.861 251.25 105.861C250.781 105.45 250.247 104.498 250.247 104.498C254.995 106.849 264.33 102.277 264.33 102.277C256.069 102.305 256.069 90.3765 258.638 89.2947C258.277 80.3805 258.977 69.0286 259.345 63.9152C258.984 63.9368 258.782 63.9656 258.782 63.9656C236.158 60.5615 236.273 101.923 239.736 104.253Z" fill="#263238"/>
<path d="M263.24 179.871C263.24 179.871 273.52 177.909 275.786 178.407C278.058 178.905 283.13 181.083 283.505 181.552C283.88 182.02 282.033 182.287 280.699 181.739C278.989 181.039 276.161 181.335 276.161 181.335C276.161 181.335 281.622 183.124 282.957 183.888C283.087 183.968 283.094 184.155 282.964 184.242C282.603 184.472 281.723 184.552 280.504 184.249C278.758 183.816 275.634 183.542 275.634 183.542L281.846 185.583C281.925 185.612 281.976 185.684 281.961 185.763C281.918 186.066 281.377 186.333 279.891 186.247C278.744 186.182 274.927 185.208 274.927 185.208L278.188 187.386C278.188 187.386 277.294 187.898 275.591 187.134C274.422 186.607 270.909 185.331 270.058 185.424C269.206 185.511 264.856 186.708 262.966 186.095C261.076 185.482 260.26 185.208 260.26 185.208L263.24 179.871Z" fill="#FFC3BD"/>
<path d="M121.29 349.984H121.456C122.805 349.963 123.844 348.859 123.721 347.59L114.732 257.813L106.883 258.513L119.797 348.773C119.891 349.472 120.533 349.999 121.29 349.984Z" fill="#8CB4F4"/>
<path d="M34.7036 349.984H34.5377C33.1886 349.963 32.1497 348.859 32.2724 347.59L41.2614 257.813L49.1106 258.513L36.197 348.773C36.1032 349.472 35.4611 349.999 34.7036 349.984Z" fill="#8CB4F4"/>
<path d="M184.726 349.984H184.892C186.241 349.963 187.28 348.859 187.157 347.59L178.168 257.813L170.319 258.513L183.233 348.773C183.326 349.472 183.976 349.999 184.726 349.984Z" fill="#8CB4F4"/>
<path d="M37.3875 244.751L21.4294 165.951C19.3805 155.285 28.2253 145.527 39.7033 145.786L70.487 146.486C81.1065 146.731 90.3409 153.835 93.2915 164.033L116.644 244.744H37.3875V244.751Z" fill="#8CB4F4"/>
<path d="M47.0404 244.752L31.0823 165.952C29.0334 155.285 37.8782 145.527 49.3562 145.787L80.1399 146.486C90.7594 146.732 99.9938 153.836 102.944 164.033L126.297 244.745H47.0404V244.752Z" fill="#8CB4F4"/>
<path d="M41.8318 259.127H163.617C166.063 259.127 168.068 257.122 168.068 254.677V249.203C168.068 246.758 166.07 244.753 163.617 244.753H37.3878V254.677C37.3878 257.122 39.3861 259.127 41.8318 259.127Z" fill="#8CB4F4"/>
<path d="M98.9831 259.127H176.617C178.586 259.127 180.202 257.511 180.202 255.542V248.337C180.202 246.368 178.586 244.753 176.617 244.753H98.9831C97.0136 244.753 95.3976 246.368 95.3976 248.337V255.542C95.3976 257.511 97.0136 259.127 98.9831 259.127Z" fill="#8CB4F4"/>
<path d="M566.112 347.971H566.278C567.627 347.949 568.666 346.845 568.544 345.576L559.555 255.799L551.705 256.499L564.619 346.759C564.713 347.466 565.362 347.985 566.112 347.971Z" fill="#8CB4F4"/>
<path d="M519.832 347.971H519.998C521.347 347.949 522.386 346.845 522.264 345.576L513.275 255.799L505.425 256.499L518.339 346.759C518.433 347.466 519.075 347.985 519.832 347.971Z" fill="#8CB4F4"/>
<path d="M432.943 347.971H432.777C431.428 347.949 430.389 346.845 430.512 345.576L439.501 255.799L447.35 256.499L434.436 346.759C434.342 347.466 433.693 347.985 432.943 347.971Z" fill="#73A2E5"/>
<path d="M563.573 243.084L572.108 168.107C573.226 157.303 569.612 146.723 554.014 145.9L526.571 144.227C510.31 143.556 502.965 157.086 500.902 167.508L484.612 249.928L563.573 243.084Z" fill="#8CB4F4"/>
<path d="M558.985 257.111H437.199C434.754 257.111 432.748 255.106 432.748 252.661V247.187C432.748 244.742 434.746 242.737 437.199 242.737H563.436V252.661C563.436 255.113 561.437 257.111 558.985 257.111Z" fill="#73A2E5"/>
<path d="M559.98 257.111H488.068C486.17 257.111 484.612 255.553 484.612 253.656V246.191C484.612 244.295 486.17 242.737 488.068 242.737H563.436V253.656C563.436 255.56 561.885 257.111 559.98 257.111Z" fill="#8CB4F4"/>
<path d="M440.294 178.616H449.882C451.051 178.616 452.003 177.671 452.003 176.496V158.004H438.181V176.496C438.181 177.671 439.126 178.616 440.294 178.616Z" fill="#8FB8EA"/>
<path d="M450.265 162.44H454.983C456.548 162.44 457.825 163.717 457.825 165.282V170.092C457.825 171.657 456.548 172.934 454.983 172.934H450.265V162.44ZM451.895 164.077V171.311H454.976C455.646 171.311 456.188 170.77 456.188 170.099V165.289C456.188 164.618 455.646 164.077 454.976 164.077H451.895Z" fill="#8FB8EA"/>
<path d="M440.8 177.188H449.378C450.294 177.188 451.037 176.445 451.037 175.529V162.446H439.134V175.529C439.141 176.445 439.884 177.188 440.8 177.188Z" fill="#FFB93E"/>
<path d="M451.043 162.439C451.043 162.439 450.546 161.314 449.211 161.27C447.876 161.227 447.703 161.97 446.542 161.725C445.38 161.487 444.305 161.278 443.1 161.725C441.896 162.172 439.19 161.653 439.169 162.042C439.147 162.432 438.75 162.9 440.042 162.944C441.333 162.987 443.569 162.597 444.435 162.944C445.294 163.29 447.494 163.297 448.396 162.944C449.29 162.612 451.029 163.304 451.043 162.439Z" fill="white"/>
<path d="M480.622 186.291C480.622 186.291 461.958 207.603 458.135 207.257C454.232 206.903 451.851 205.67 448.453 207.257C446.015 208.396 438.295 214.599 440.366 214.188C442.436 213.776 446.188 213.293 447.176 213.199C448.54 213.07 450.726 213.041 452.212 212.781C453.15 212.615 456.54 212.522 457.673 212.485C462.586 212.327 485.823 198.754 485.823 198.754L480.622 186.291Z" fill="#FFD8BE"/>
<path d="M493.573 78.0715C493.573 78.0715 494.417 67.3687 509.819 70.1454C513.888 70.881 516.687 63.6256 523.353 66.2075C537.703 71.7753 538.547 64.4261 542.695 74.7467C544.434 79.0668 555.472 84.0936 552.103 91.5582C548.734 99.0227 554.375 104.042 550.407 109.891C548.358 112.921 549.188 118.33 539.514 118.524C534.694 118.618 527.184 127.547 521.781 129.17C516.37 130.792 500.13 128.448 500.744 121.034C501.22 115.243 494.467 115.726 490.319 109.076C486.697 103.264 493.161 101.792 489.706 92.3948C487.166 85.5 493.767 83.8196 493.573 78.0715Z" fill="#233862"/>
<path d="M408.905 341.395C409.236 344.972 404.251 345.845 398.473 346.134C392.694 346.422 394.44 347.605 386.526 349.033C378.611 350.468 375.437 348.304 374.867 347.23C374.355 346.285 378.034 344.799 381.959 343.119C382.45 342.91 382.947 342.693 383.438 342.477C387.853 340.537 390.328 336.578 393.769 332.914C397.03 329.437 400.125 318.316 400.125 318.316L410.881 316.023C410.881 316.023 407.858 326.033 406.812 330.31C406.192 332.827 407.108 335.633 407.916 337.775C408.349 338.943 408.789 340.133 408.905 341.395Z" fill="#FFD8BE"/>
<path d="M398.472 346.133C392.701 346.422 394.439 347.604 386.525 349.032C378.611 350.468 375.437 348.304 374.867 347.229C374.355 346.285 378.034 344.799 381.959 343.119L382.016 343.183C382.016 343.183 387.579 345.073 394.007 343.328C399.244 341.907 404.301 338.777 407.909 337.767C408.342 338.928 408.782 340.125 408.897 341.388C409.236 344.972 404.251 345.845 398.472 346.133Z" fill="#6654A4"/>
<path d="M516.001 213.898C516.001 213.898 444.536 208.518 431.081 217.006C417.626 225.495 396.048 324.374 396.048 324.374C396.048 324.374 397.383 325.441 400.355 325.765C403.118 326.068 409.214 324.438 409.214 324.438C409.214 324.438 440.222 280.199 442.408 269.056C444.593 257.914 444.06 247.968 449.03 247.701C454.001 247.434 516.008 255.238 525.387 238.722C534.766 222.206 527.01 205.856 527.01 205.856L516.001 213.898Z" fill="#101B19"/>
<path d="M433.499 341.797C433.83 345.374 428.845 346.247 423.067 346.535C417.295 346.824 419.034 348.006 411.12 349.442C403.206 350.877 400.031 348.713 399.461 347.639C398.949 346.687 402.628 345.208 406.553 343.528C407.044 343.318 407.541 343.102 408.032 342.886C412.447 340.946 414.922 336.986 418.363 333.323C421.624 329.846 424.719 318.725 424.719 318.725L435.475 316.432C435.475 316.432 432.452 326.442 431.406 330.719C430.793 333.236 431.702 336.041 432.51 338.183C432.943 339.345 433.383 340.535 433.499 341.797Z" fill="#FFD8BE"/>
<path d="M423.066 346.536C417.295 346.824 419.033 348.007 411.119 349.442C403.205 350.877 400.031 348.714 399.461 347.639C398.949 346.687 402.628 345.209 406.552 343.528L406.61 343.593C406.61 343.593 412.172 345.483 418.6 343.737C423.838 342.316 428.895 339.186 432.503 338.177C432.935 339.338 433.375 340.535 433.491 341.797C433.83 345.374 428.838 346.247 423.066 346.536Z" fill="#6654A4"/>
<path d="M527.242 207.255C527.242 207.255 463.755 210.262 450.64 219.263C437.524 228.271 419.813 327.907 419.813 327.907C419.813 327.907 421.183 328.924 424.17 329.126C426.948 329.313 432.972 327.453 432.972 327.453C432.972 327.453 462.24 282.038 463.986 270.816C465.732 259.593 464.816 249.677 469.772 249.215C474.728 248.754 536.995 254.141 545.717 237.272C554.454 220.41 527.242 207.255 527.242 207.255Z" fill="#263836"/>
<path d="M546.251 126.163C546.229 126.127 546.2 126.098 546.172 126.062C545.667 125.492 545.068 124.973 544.404 124.511L544.382 124.497C544.382 124.497 544.382 124.497 544.375 124.497C539.188 120.876 529.925 120.097 529.925 120.097V120.105V120.097C529.925 120.097 528.915 120.004 527.306 119.932C526.094 116.78 524.709 112.121 524.276 105.312L523.36 105.558L507.914 109.697C507.914 109.697 508.599 114.602 508.917 119.239C508.989 120.256 509.039 121.259 509.061 122.196C508.614 122.362 508.202 122.521 507.835 122.672C507.835 122.672 499.004 123.711 496.912 125.961C494.82 128.211 490.643 143.162 489.589 145.816L549.057 146.79C549.057 146.782 550.551 131.247 546.251 126.163Z" fill="#FFD8BE"/>
<path d="M548.444 232.498C541.403 233.169 517.675 218.845 509.768 214.186C509.631 214.107 509.494 214.028 509.371 213.956C506.082 212.023 501.443 211.107 497.042 210.378C491.429 209.462 486.192 208.842 484.518 206.837C482.519 204.45 488.392 201.803 493.11 199.055C495.484 197.671 497.576 196.257 498.225 194.843C498.723 193.733 498.687 191.302 498.355 188.194V188.187C498.297 187.61 498.225 187.004 498.139 186.376C497.756 187.17 497.28 187.999 496.724 188.821C495.339 190.898 493.514 192.99 491.682 194.714C489.445 196.834 487.216 198.413 485.824 198.752C484.893 198.976 483.955 198.861 483.024 198.5C480.557 197.534 478.169 194.822 476.279 192.204C475.832 191.584 475.413 190.971 475.031 190.379C473.74 188.425 472.823 186.795 472.477 186.412C471.424 185.244 476.719 182.936 478.891 181.205C481.055 179.467 489.59 145.815 489.59 145.815C490.643 143.161 494.82 128.21 496.912 125.96C496.912 125.96 505.064 135.913 515.633 135.343C526.13 134.781 544.101 124.662 544.375 124.503C544.382 124.503 544.382 124.503 544.382 124.503L544.404 124.518L546.258 126.169C550.558 131.254 549.065 146.789 549.065 146.789C549.065 146.789 540.84 183.03 540.84 186.687C540.84 193.394 546.388 208.806 549.036 219.913C550.702 226.938 551.222 232.238 548.444 232.498Z" fill="#FF5364"/>
<path d="M507.9 109.704C507.9 109.704 508.585 114.608 508.903 119.245C517.646 118.416 521.744 110.115 523.346 105.564L507.9 109.704Z" fill="#F4A269"/>
<path d="M505.273 114.291C505.273 114.291 526.022 113.252 525.178 100.342C524.334 87.4399 526.44 78.6123 513.159 78.7277C499.877 78.8431 497.626 83.942 496.861 88.3126C496.09 92.6903 499.855 114.226 505.273 114.291Z" fill="#FFD8BE"/>
<path d="M504.4 83.323C504.4 83.323 509.357 82.169 510.98 84.5779C512.603 86.9867 511.442 88.3354 515.063 89.3523C518.678 90.362 519.911 90.2899 519.55 92.8213C519.19 95.3528 523.187 97.2352 523.36 99.2546C523.533 101.274 525.192 102.291 526.786 102.435C528.381 102.579 527.652 76.3272 521.506 75.166C515.359 74.0121 509.422 75.3824 507.618 76.8321C505.793 78.2889 504.4 83.323 504.4 83.323Z" fill="#233862"/>
<path d="M504.401 83.3224C504.401 83.3224 499.575 82.9834 498.709 85.7312C497.843 88.479 498.998 89.1281 497.771 90.7941C496.538 92.4601 497.252 95.4099 497.252 95.4099C497.252 95.4099 487.714 77.8483 497.771 76.6944C507.828 75.5404 507.554 77.5887 504.401 83.3224Z" fill="#233862"/>
<path d="M498.341 185.266V185.259C498.276 184.3 498.189 183.29 498.095 182.251C496.717 186.391 494.257 190.942 491.675 194.728C489.438 196.849 487.209 198.428 485.816 198.767C484.886 198.991 483.948 198.875 483.017 198.515C480.55 197.548 478.162 194.837 476.272 192.219C475.825 191.598 475.406 190.985 475.024 190.394C481.618 185.107 494.106 173.013 495.404 156.454C497.179 133.844 498.348 185.266 498.348 185.266H498.341Z" fill="#DB4352"/>
<path d="M483.025 198.501C485.326 194.995 490.001 191.534 496.717 188.822C493.623 193.452 488.334 198.147 485.824 198.753C484.886 198.976 483.948 198.861 483.025 198.501Z" fill="#599DAD"/>
<path d="M537.869 154.996C537.869 154.996 532.689 207.038 509.762 214.186C509.625 214.106 509.488 214.027 509.365 213.955C506.075 212.022 501.436 211.106 497.036 210.378C491.423 209.462 486.185 208.842 484.512 206.837C482.513 204.449 488.386 201.802 493.104 199.055C495.477 197.67 497.57 196.256 498.219 194.843C498.717 193.732 498.681 191.301 498.349 188.193V188.186C520.591 179.964 537.869 154.996 537.869 154.996Z" fill="#DB4352"/>
<path d="M530.409 134.968C530.409 134.968 541.303 128.758 543.705 139.577C546.108 150.395 507.266 198.594 496.458 196.488C484.454 194.144 456.253 174.945 456.253 174.945L459.276 170.553C459.276 170.553 494.467 181.068 496.682 180.051C498.911 179.034 526.629 134.11 530.409 134.968Z" fill="#FFD8BE"/>
<path d="M462.039 171.627C462.039 171.627 452.668 164.192 451.232 164.084C449.796 163.975 440.18 166.442 440.237 167.971C440.295 169.5 442.546 171.736 446.095 172.298C449.645 172.868 456.462 175.767 458.425 174.873C460.387 173.979 462.039 171.627 462.039 171.627Z" fill="#FFD8BE"/>
<path d="M479.793 176.293C479.793 176.293 473.293 192.989 481.077 199.336C488.861 205.682 505.765 203.548 524.277 177.742C542.789 151.937 550.32 137.881 540.711 133.777C531.101 129.674 523.158 136.114 518.231 146.146C513.109 156.582 503.665 171.028 498.002 171.576C492.339 172.131 479.793 176.293 479.793 176.293Z" fill="#FF5364"/>
<path d="M501.768 107.671C501.768 107.671 502.771 109.012 503.11 109.445C503.442 109.878 507.619 109.445 507.9 109.113C508.189 108.781 508.427 106.812 508.427 106.812C508.427 106.812 503.211 107.296 501.768 107.671Z" fill="white"/>
<path d="M204.169 156.093H194.581C193.412 156.093 192.46 155.148 192.46 153.973V135.481H206.282V153.973C206.29 155.148 205.337 156.093 204.169 156.093Z" fill="#8FB8EA"/>
<path d="M194.205 150.417H189.487C187.922 150.417 186.645 149.141 186.645 147.576V142.765C186.645 141.193 187.922 139.917 189.487 139.917H194.205V150.417ZM189.487 141.546C188.816 141.546 188.275 142.087 188.275 142.758V147.569C188.275 148.239 188.816 148.78 189.487 148.78H192.568V141.546H189.487Z" fill="#8FB8EA"/>
<path d="M203.663 154.665H195.085C194.169 154.665 193.426 153.922 193.426 153.006V139.923H205.33V153.006C205.33 153.915 204.587 154.665 203.663 154.665Z" fill="#FFB93E"/>
<path d="M193.426 139.917C193.426 139.917 193.924 138.799 195.259 138.756C196.593 138.712 196.766 139.455 197.928 139.21C199.089 138.972 200.164 138.763 201.369 139.21C202.574 139.657 205.279 139.138 205.301 139.527C205.323 139.917 205.719 140.386 204.428 140.429C203.137 140.472 200.9 140.083 200.034 140.429C199.176 140.775 196.976 140.782 196.074 140.429C195.179 140.09 193.441 140.782 193.426 139.917Z" fill="white"/>
<path d="M162.664 258.297L141.367 329.271C141.367 329.271 131.628 326.891 128.035 321.179C128.035 321.179 130.437 252.188 145.176 241.889C159.915 231.583 162.664 258.297 162.664 258.297Z" fill="#3C484E"/>
<path d="M208.035 349.775H173.406C173.074 349.71 172.822 349.638 172.67 349.558C170.361 348.405 170.542 341.791 172.454 337.226C173.204 335.437 170.939 331.615 171.754 330.151C173.319 327.338 182.95 322.304 184.624 329.761C184.675 329.992 185.418 334.197 185.483 334.42V334.427C187.596 341.401 197.047 344.568 202.501 345.455C206.671 346.133 207.753 348.556 208.035 349.775Z" fill="#3C484E"/>
<path d="M75.1171 114.673C75.1171 114.673 83.2404 124.309 93.5858 120.277C93.5858 120.277 95.8078 114.897 95.8439 110.93C95.8511 110.44 95.8511 109.971 95.8583 109.517C95.916 105.052 96.0675 102.543 96.0675 102.543C96.0675 102.543 96.0675 102.543 96.0603 102.543C95.5914 102.348 80.2465 96.0517 80.2609 96.571C80.5134 108.651 75.1171 114.673 75.1171 114.673Z" fill="#FFB27D"/>
<path d="M147.673 349.775H136.303C133.922 349.775 131.275 347.387 130.611 343.024C129.947 338.653 125.049 336.274 123.988 332.696C122.928 329.119 128.36 324.085 128.36 324.085L129.269 322.917L130.214 321.698L139.218 323.818C139.218 323.818 139.441 325.96 139.578 328.694C139.672 330.662 139.73 332.941 139.614 334.939C139.347 339.706 140.949 344.842 145.184 345.765C149.426 346.702 147.673 349.775 147.673 349.775Z" fill="#3C484E"/>
<path d="M153.538 187.004L159.345 188.591C159.345 188.591 168.378 187.87 171.011 188.591C171.011 188.591 182.352 196.301 178.932 196.301C171.365 196.301 168.76 193.661 164.691 195.053C160.132 196.611 157.145 196.618 155.269 193.625L151.987 191.368L153.538 187.004Z" fill="#FFB27D"/>
<path d="M158.458 191.749C159.937 188.035 159.107 186.463 159.107 186.463C159.107 186.463 124.918 179.698 121.968 177.614C119.017 175.529 90.6214 121.265 90.6214 121.265L82.8949 122.78C71.1211 125.088 67.1243 139.908 76.1495 147.813C91.3645 161.148 107.272 193.228 111.983 195.276C117.625 197.728 154.447 196.307 154.447 196.307C154.447 196.307 157.296 194.663 158.458 191.749Z" fill="#6958A4"/>
<path d="M54.138 203.355C54.138 203.355 44.7449 238.853 61.0637 244.003C61.0637 244.003 75.1173 250.71 142.03 246.044C142.03 246.044 139.173 275.678 171.313 333.772C171.313 333.772 180.75 336.297 186.644 329.272C186.644 329.272 174.105 245.496 169.943 226.859C166.776 212.716 77.599 208.072 54.138 203.355Z" fill="#263238"/>
<path d="M181.587 149.487C182.467 149.27 183.145 148.578 183.369 147.698C184.415 143.609 186.666 141.489 186.738 142.029C186.897 143.191 186.68 146.588 186.745 145.448C189.458 145.167 187.243 143.039 188.83 142.787C189.739 142.642 193.938 146.768 190.778 151.174C189.256 153.295 188.268 154.016 182.59 155.04L178.636 156.035L177.626 149.891C177.626 149.891 179.733 149.941 181.587 149.487Z" fill="#FFB27D"/>
<path d="M81.7909 100.027C83.2699 102.767 88.3488 108.133 95.8589 110.095C95.9166 105.63 96.0681 103.121 96.0681 103.121C96.0681 103.121 96.0681 103.121 96.0609 103.121C95.628 103.005 81.3508 99.2187 81.7909 100.027Z" fill="#ED975D"/>
<path d="M100.944 102.817C100.944 102.817 81.1411 107.468 78.4357 95.0996C75.7231 82.7308 71.344 74.9994 83.8753 71.5015C96.4066 68.0108 99.8984 72.1866 101.81 76.0956C103.715 80.0046 106.023 101.288 100.944 102.817Z" fill="#FFB27D"/>
<path d="M79.107 98.4679C78.8329 98.641 74.5764 99.9464 66.5036 83.8778C65.2338 81.3535 64.3753 75.9011 67.326 71.0762C70.2766 66.2513 80.7447 62.4648 89.4452 60.8132C98.1457 59.1617 100.231 64.0588 102.28 68.9702C104.429 74.1341 110.641 78.3821 110.641 78.3821C103.138 82.5724 94.1056 76.5791 90.9746 77.5671C87.8436 78.5552 86.7398 83.481 86.5017 85.0605C86.2637 86.6399 85.9029 87.9526 81.9711 86.5462C78.0321 85.1326 80.1892 92.1212 80.824 93.4554C80.8313 93.4626 81.3651 97.0255 79.107 98.4679Z" fill="#263238"/>
<path d="M110.85 161.799C109.768 165.224 111.081 188.736 108.376 203.139C106.782 211.627 102.626 214.014 102.532 214.094C99.3219 216.575 85.8816 222.352 75.8032 226.621C53.3377 236.127 48.2804 223.823 48.4824 221.025C48.5762 219.77 57.9693 151.161 64.4117 131.233C68.1487 119.68 72.4413 110.578 78.4292 107.073C79.2155 106.633 81.9137 108.349 85.7806 110.83C89.3517 113.117 92.6919 113.21 96.3496 112.886L101.501 117.956C105.396 122.485 109.552 128.522 110.685 137.097C110.771 137.732 110.843 138.402 110.901 139.116C111.218 142.6 112.914 155.272 110.85 161.799Z" fill="#6654A4"/>
<path d="M111.204 151.975C111.103 157.687 110.771 164.113 110.324 170.633C110.295 171.022 110.266 171.404 110.245 171.794C88.0748 157.925 84.6624 132.545 84.6624 132.545C95.5705 133.021 104.228 135.531 110.908 139.116C111.218 142.599 111.291 147.02 111.204 151.975Z" fill="#4B3C7C"/>
<path d="M182.885 152.314C181.731 148.722 179.538 148.672 179.538 148.672C179.538 148.672 142.456 154.405 139.108 153.468C135.761 152.537 107.416 125.297 107.416 125.297C107.416 125.297 96.5654 113.967 87.5186 116.614C79.655 118.914 76.5167 124.59 75.4057 129.985C74.0783 136.404 77.1876 142.815 83.1467 146.14C96.5221 153.612 124.672 169.428 131.007 171.065C145.104 174.722 182.034 157.514 182.034 157.514C182.034 157.514 183.751 155.011 182.885 152.314Z" fill="#6654A4"/>
<path d="M159.338 196.077L167.223 196.301C167.223 196.301 167.418 195.493 166.791 195.27C166.17 195.053 163.631 193.135 163.631 193.135L159.338 196.077Z" fill="#FFB27D"/>
<path d="M115.75 205.134H449.644C450.842 205.134 451.816 204.16 451.816 202.963V198.477C451.816 197.28 450.842 196.306 449.644 196.306H115.75C114.552 196.306 113.578 197.28 113.578 198.477V202.963C113.578 204.16 114.552 205.134 115.75 205.134Z" fill="#182D4F"/>
<path d="M460.444 350.639L460.552 350.625C461.8 350.473 462.687 349.355 462.529 348.129L440.756 200.792L432.784 201.023L458.402 349.161C458.568 350.106 459.47 350.762 460.444 350.639Z" fill="#182D4F"/>
<path d="M107.259 350.639L107.15 350.625C105.902 350.473 105.015 349.355 105.174 348.129L126.947 200.792L134.918 201.023L109.3 349.161C109.134 350.106 108.233 350.762 107.259 350.639Z" fill="#182D4F"/>
<path d="M96.0688 96.1442C96.0688 96.1442 96.8191 97.6587 97.5839 97.7092C98.3486 97.7597 101.465 97.7093 101.754 97.4713C102.042 97.2333 102.28 95.8917 102.331 95.6033C102.374 95.3148 97.9951 95.5816 96.0688 96.1442Z" fill="white"/>
</svg>
