<svg width="563" height="75" viewBox="0 0 563 75" fill="none" xmlns="http://www.w3.org/2000/svg">
<path d="M70.1765 33.3984H67.5046V38H65.9968V26.625H69.7625C71.0437 26.625 72.0281 26.9167 72.7156 27.5C73.4083 28.0833 73.7546 28.9323 73.7546 30.0469C73.7546 30.7552 73.5619 31.3724 73.1765 31.8984C72.7963 32.4245 72.2651 32.8177 71.5828 33.0781L74.2546 37.9062V38H72.6453L70.1765 33.3984ZM67.5046 32.1719H69.8093C70.5541 32.1719 71.1453 31.9792 71.5828 31.5938C72.0255 31.2083 72.2468 30.6927 72.2468 30.0469C72.2468 29.3438 72.0359 28.8047 71.614 28.4297C71.1973 28.0547 70.5932 27.8646 69.8015 27.8594H67.5046V32.1719ZM79.1453 38.1562C77.9994 38.1562 77.0671 37.7812 76.3484 37.0312C75.6296 36.276 75.2703 35.2682 75.2703 34.0078V33.7422C75.2703 32.9036 75.4291 32.1562 75.7468 31.5C76.0697 30.8385 76.5177 30.3229 77.0906 29.9531C77.6687 29.5781 78.2937 29.3906 78.9656 29.3906C80.0645 29.3906 80.9187 29.7526 81.5281 30.4766C82.1375 31.2005 82.4421 32.237 82.4421 33.5859V34.1875H76.7156C76.7364 35.0208 76.9786 35.6953 77.4421 36.2109C77.9109 36.7214 78.5046 36.9766 79.2234 36.9766C79.7338 36.9766 80.1661 36.8724 80.5203 36.6641C80.8744 36.4557 81.1843 36.1797 81.45 35.8359L82.3328 36.5234C81.6244 37.612 80.5619 38.1562 79.1453 38.1562ZM78.9656 30.5781C78.3822 30.5781 77.8927 30.7917 77.4968 31.2188C77.101 31.6406 76.8562 32.2344 76.7625 33H80.9968V32.8906C80.9552 32.1562 80.7572 31.5885 80.4031 31.1875C80.0489 30.7812 79.5697 30.5781 78.9656 30.5781ZM83.7703 33.7031C83.7703 32.375 84.075 31.3255 84.6843 30.5547C85.2937 29.7786 86.1114 29.3906 87.1375 29.3906C88.1375 29.3906 88.9265 29.7266 89.5046 30.3984L89.5671 29.5469H90.8953V41.25H89.45V37.2188C88.8666 37.8438 88.0906 38.1562 87.1218 38.1562C86.101 38.1562 85.2859 37.7604 84.6765 36.9688C84.0723 36.1719 83.7703 35.1172 83.7703 33.8047V33.7031ZM85.2156 33.8672C85.2156 34.8359 85.4187 35.5964 85.825 36.1484C86.2364 36.7005 86.7885 36.9766 87.4812 36.9766C88.3406 36.9766 88.9968 36.5964 89.45 35.8359V31.6953C88.9916 30.9505 88.3406 30.5781 87.4968 30.5781C86.7989 30.5781 86.2442 30.8568 85.8328 31.4141C85.4213 31.9661 85.2156 32.7839 85.2156 33.8672ZM98.4343 37.1641C97.8718 37.8255 97.0463 38.1562 95.9578 38.1562C95.0567 38.1562 94.3692 37.8958 93.8953 37.375C93.4265 36.849 93.1895 36.0729 93.1843 35.0469V29.5469H94.6296V35.0078C94.6296 36.2891 95.1505 36.9297 96.1921 36.9297C97.2963 36.9297 98.0307 36.5182 98.3953 35.6953V29.5469H99.8406V38H98.4656L98.4343 37.1641ZM105.552 38.1562C104.406 38.1562 103.473 37.7812 102.755 37.0312C102.036 36.276 101.677 35.2682 101.677 34.0078V33.7422C101.677 32.9036 101.835 32.1562 102.153 31.5C102.476 30.8385 102.924 30.3229 103.497 29.9531C104.075 29.5781 104.7 29.3906 105.372 29.3906C106.471 29.3906 107.325 29.7526 107.934 30.4766C108.544 31.2005 108.848 32.237 108.848 33.5859V34.1875H103.122C103.143 35.0208 103.385 35.6953 103.848 36.2109C104.317 36.7214 104.911 36.9766 105.63 36.9766C106.14 36.9766 106.572 36.8724 106.927 36.6641C107.281 36.4557 107.591 36.1797 107.856 35.8359L108.739 36.5234C108.031 37.612 106.968 38.1562 105.552 38.1562ZM105.372 30.5781C104.788 30.5781 104.299 30.7917 103.903 31.2188C103.507 31.6406 103.262 32.2344 103.169 33H107.403V32.8906C107.361 32.1562 107.163 31.5885 106.809 31.1875C106.455 30.7812 105.976 30.5781 105.372 30.5781ZM115.45 35.7578C115.45 35.3672 115.302 35.0651 115.005 34.8516C114.713 34.6328 114.2 34.4453 113.466 34.2891C112.736 34.1328 112.156 33.9453 111.723 33.7266C111.296 33.5078 110.979 33.2474 110.77 32.9453C110.567 32.6432 110.466 32.2839 110.466 31.8672C110.466 31.1745 110.757 30.5885 111.341 30.1094C111.929 29.6302 112.679 29.3906 113.591 29.3906C114.549 29.3906 115.325 29.638 115.919 30.1328C116.518 30.6276 116.817 31.2604 116.817 32.0312H115.364C115.364 31.6354 115.195 31.2943 114.856 31.0078C114.523 30.7214 114.101 30.5781 113.591 30.5781C113.065 30.5781 112.653 30.6927 112.356 30.9219C112.059 31.151 111.911 31.4505 111.911 31.8203C111.911 32.1693 112.049 32.4323 112.325 32.6094C112.601 32.7865 113.098 32.9557 113.817 33.1172C114.541 33.2786 115.127 33.4714 115.575 33.6953C116.023 33.9193 116.354 34.1901 116.567 34.5078C116.786 34.8203 116.895 35.2031 116.895 35.6562C116.895 36.4115 116.593 37.0182 115.989 37.4766C115.385 37.9297 114.601 38.1562 113.637 38.1562C112.96 38.1562 112.361 38.0365 111.841 37.7969C111.32 37.5573 110.911 37.224 110.614 36.7969C110.322 36.3646 110.177 35.8984 110.177 35.3984H111.622C111.648 35.8828 111.841 36.2682 112.2 36.5547C112.565 36.8359 113.044 36.9766 113.637 36.9766C114.184 36.9766 114.622 36.8672 114.95 36.6484C115.283 36.4245 115.45 36.1276 115.45 35.7578ZM120.739 27.5V29.5469H122.317V30.6641H120.739V35.9062C120.739 36.2448 120.809 36.5 120.95 36.6719C121.091 36.8385 121.33 36.9219 121.669 36.9219C121.835 36.9219 122.065 36.8906 122.356 36.8281V38C121.976 38.1042 121.606 38.1562 121.247 38.1562C120.601 38.1562 120.114 37.9609 119.786 37.5703C119.458 37.1797 119.294 36.625 119.294 35.9062V30.6641H117.755V29.5469H119.294V27.5H120.739ZM132.903 35.7578C132.903 35.3672 132.755 35.0651 132.458 34.8516C132.166 34.6328 131.653 34.4453 130.919 34.2891C130.19 34.1328 129.609 33.9453 129.177 33.7266C128.749 33.5078 128.432 33.2474 128.223 32.9453C128.02 32.6432 127.919 32.2839 127.919 31.8672C127.919 31.1745 128.21 30.5885 128.794 30.1094C129.382 29.6302 130.132 29.3906 131.044 29.3906C132.002 29.3906 132.778 29.638 133.372 30.1328C133.971 30.6276 134.27 31.2604 134.27 32.0312H132.817C132.817 31.6354 132.648 31.2943 132.309 31.0078C131.976 30.7214 131.554 30.5781 131.044 30.5781C130.518 30.5781 130.106 30.6927 129.809 30.9219C129.512 31.151 129.364 31.4505 129.364 31.8203C129.364 32.1693 129.502 32.4323 129.778 32.6094C130.054 32.7865 130.552 32.9557 131.27 33.1172C131.994 33.2786 132.58 33.4714 133.028 33.6953C133.476 33.9193 133.807 34.1901 134.02 34.5078C134.239 34.8203 134.348 35.2031 134.348 35.6562C134.348 36.4115 134.046 37.0182 133.442 37.4766C132.838 37.9297 132.054 38.1562 131.091 38.1562C130.413 38.1562 129.815 38.0365 129.294 37.7969C128.773 37.5573 128.364 37.224 128.067 36.7969C127.775 36.3646 127.63 35.8984 127.63 35.3984H129.075C129.101 35.8828 129.294 36.2682 129.653 36.5547C130.018 36.8359 130.497 36.9766 131.091 36.9766C131.637 36.9766 132.075 36.8672 132.403 36.6484C132.736 36.4245 132.903 36.1276 132.903 35.7578ZM139.739 38.1562C138.593 38.1562 137.661 37.7812 136.942 37.0312C136.223 36.276 135.864 35.2682 135.864 34.0078V33.7422C135.864 32.9036 136.023 32.1562 136.341 31.5C136.663 30.8385 137.111 30.3229 137.684 29.9531C138.262 29.5781 138.887 29.3906 139.559 29.3906C140.658 29.3906 141.512 29.7526 142.122 30.4766C142.731 31.2005 143.036 32.237 143.036 33.5859V34.1875H137.309C137.33 35.0208 137.572 35.6953 138.036 36.2109C138.505 36.7214 139.098 36.9766 139.817 36.9766C140.328 36.9766 140.76 36.8724 141.114 36.6641C141.468 36.4557 141.778 36.1797 142.044 35.8359L142.927 36.5234C142.218 37.612 141.156 38.1562 139.739 38.1562ZM139.559 30.5781C138.976 30.5781 138.486 30.7917 138.091 31.2188C137.695 31.6406 137.45 32.2344 137.356 33H141.591V32.8906C141.549 32.1562 141.351 31.5885 140.997 31.1875C140.643 30.7812 140.163 30.5781 139.559 30.5781ZM146.083 29.5469L146.13 30.6094C146.775 29.7969 147.619 29.3906 148.661 29.3906C150.447 29.3906 151.348 30.3984 151.364 32.4141V38H149.919V32.4062C149.913 31.7969 149.773 31.3464 149.497 31.0547C149.226 30.763 148.802 30.6172 148.223 30.6172C147.755 30.6172 147.343 30.7422 146.989 30.9922C146.635 31.2422 146.359 31.5703 146.161 31.9766V38H144.716V29.5469H146.083ZM155.505 27.5V29.5469H157.083V30.6641H155.505V35.9062C155.505 36.2448 155.575 36.5 155.716 36.6719C155.856 36.8385 156.096 36.9219 156.434 36.9219C156.601 36.9219 156.83 36.8906 157.122 36.8281V38C156.742 38.1042 156.372 38.1562 156.012 38.1562C155.367 38.1562 154.88 37.9609 154.552 37.5703C154.223 37.1797 154.059 36.625 154.059 35.9062V30.6641H152.52V29.5469H154.059V27.5H155.505ZM167.669 35.7578C167.669 35.3672 167.52 35.0651 167.223 34.8516C166.932 34.6328 166.419 34.4453 165.684 34.2891C164.955 34.1328 164.374 33.9453 163.942 33.7266C163.515 33.5078 163.197 33.2474 162.989 32.9453C162.786 32.6432 162.684 32.2839 162.684 31.8672C162.684 31.1745 162.976 30.5885 163.559 30.1094C164.148 29.6302 164.898 29.3906 165.809 29.3906C166.768 29.3906 167.544 29.638 168.137 30.1328C168.736 30.6276 169.036 31.2604 169.036 32.0312H167.583C167.583 31.6354 167.413 31.2943 167.075 31.0078C166.742 30.7214 166.32 30.5781 165.809 30.5781C165.283 30.5781 164.872 30.6927 164.575 30.9219C164.278 31.151 164.13 31.4505 164.13 31.8203C164.13 32.1693 164.268 32.4323 164.544 32.6094C164.82 32.7865 165.317 32.9557 166.036 33.1172C166.76 33.2786 167.346 33.4714 167.794 33.6953C168.242 33.9193 168.572 34.1901 168.786 34.5078C169.005 34.8203 169.114 35.2031 169.114 35.6562C169.114 36.4115 168.812 37.0182 168.208 37.4766C167.604 37.9297 166.82 38.1562 165.856 38.1562C165.179 38.1562 164.58 38.0365 164.059 37.7969C163.538 37.5573 163.13 37.224 162.833 36.7969C162.541 36.3646 162.395 35.8984 162.395 35.3984H163.841C163.867 35.8828 164.059 36.2682 164.419 36.5547C164.783 36.8359 165.262 36.9766 165.856 36.9766C166.403 36.9766 166.841 36.8672 167.169 36.6484C167.502 36.4245 167.669 36.1276 167.669 35.7578ZM176.216 37.1641C175.653 37.8255 174.828 38.1562 173.739 38.1562C172.838 38.1562 172.15 37.8958 171.677 37.375C171.208 36.849 170.971 36.0729 170.966 35.0469V29.5469H172.411V35.0078C172.411 36.2891 172.932 36.9297 173.973 36.9297C175.078 36.9297 175.812 36.5182 176.177 35.6953V29.5469H177.622V38H176.247L176.216 37.1641ZM183.216 36.9766C183.731 36.9766 184.182 36.8203 184.567 36.5078C184.953 36.1953 185.166 35.8047 185.208 35.3359H186.575C186.549 35.8203 186.382 36.2812 186.075 36.7188C185.768 37.1562 185.356 37.5052 184.841 37.7656C184.33 38.026 183.788 38.1562 183.216 38.1562C182.065 38.1562 181.148 37.7734 180.466 37.0078C179.788 36.237 179.45 35.1849 179.45 33.8516V33.6094C179.45 32.7865 179.601 32.0547 179.903 31.4141C180.205 30.7734 180.637 30.276 181.2 29.9219C181.768 29.5677 182.437 29.3906 183.208 29.3906C184.156 29.3906 184.942 29.6745 185.567 30.2422C186.197 30.8099 186.533 31.5469 186.575 32.4531H185.208C185.166 31.9062 184.958 31.4583 184.583 31.1094C184.213 30.7552 183.755 30.5781 183.208 30.5781C182.473 30.5781 181.903 30.8438 181.497 31.375C181.096 31.901 180.895 32.6641 180.895 33.6641V33.9375C180.895 34.9115 181.096 35.6615 181.497 36.1875C181.898 36.7135 182.471 36.9766 183.216 36.9766ZM191.591 36.9766C192.106 36.9766 192.557 36.8203 192.942 36.5078C193.328 36.1953 193.541 35.8047 193.583 35.3359H194.95C194.924 35.8203 194.757 36.2812 194.45 36.7188C194.143 37.1562 193.731 37.5052 193.216 37.7656C192.705 38.026 192.163 38.1562 191.591 38.1562C190.44 38.1562 189.523 37.7734 188.841 37.0078C188.163 36.237 187.825 35.1849 187.825 33.8516V33.6094C187.825 32.7865 187.976 32.0547 188.278 31.4141C188.58 30.7734 189.012 30.276 189.575 29.9219C190.143 29.5677 190.812 29.3906 191.583 29.3906C192.531 29.3906 193.317 29.6745 193.942 30.2422C194.572 30.8099 194.908 31.5469 194.95 32.4531H193.583C193.541 31.9062 193.333 31.4583 192.958 31.1094C192.588 30.7552 192.13 30.5781 191.583 30.5781C190.848 30.5781 190.278 30.8438 189.872 31.375C189.471 31.901 189.27 32.6641 189.27 33.6641V33.9375C189.27 34.9115 189.471 35.6615 189.872 36.1875C190.273 36.7135 190.846 36.9766 191.591 36.9766ZM200.083 38.1562C198.937 38.1562 198.005 37.7812 197.286 37.0312C196.567 36.276 196.208 35.2682 196.208 34.0078V33.7422C196.208 32.9036 196.367 32.1562 196.684 31.5C197.007 30.8385 197.455 30.3229 198.028 29.9531C198.606 29.5781 199.231 29.3906 199.903 29.3906C201.002 29.3906 201.856 29.7526 202.466 30.4766C203.075 31.2005 203.38 32.237 203.38 33.5859V34.1875H197.653C197.674 35.0208 197.916 35.6953 198.38 36.2109C198.848 36.7214 199.442 36.9766 200.161 36.9766C200.671 36.9766 201.104 36.8724 201.458 36.6641C201.812 36.4557 202.122 36.1797 202.387 35.8359L203.27 36.5234C202.562 37.612 201.499 38.1562 200.083 38.1562ZM199.903 30.5781C199.32 30.5781 198.83 30.7917 198.434 31.2188C198.038 31.6406 197.794 32.2344 197.7 33H201.934V32.8906C201.893 32.1562 201.695 31.5885 201.341 31.1875C200.986 30.7812 200.507 30.5781 199.903 30.5781ZM209.981 35.7578C209.981 35.3672 209.833 35.0651 209.536 34.8516C209.244 34.6328 208.731 34.4453 207.997 34.2891C207.268 34.1328 206.687 33.9453 206.255 33.7266C205.828 33.5078 205.51 33.2474 205.302 32.9453C205.098 32.6432 204.997 32.2839 204.997 31.8672C204.997 31.1745 205.288 30.5885 205.872 30.1094C206.46 29.6302 207.21 29.3906 208.122 29.3906C209.08 29.3906 209.856 29.638 210.45 30.1328C211.049 30.6276 211.348 31.2604 211.348 32.0312H209.895C209.895 31.6354 209.726 31.2943 209.387 31.0078C209.054 30.7214 208.632 30.5781 208.122 30.5781C207.596 30.5781 207.184 30.6927 206.887 30.9219C206.591 31.151 206.442 31.4505 206.442 31.8203C206.442 32.1693 206.58 32.4323 206.856 32.6094C207.132 32.7865 207.63 32.9557 208.348 33.1172C209.072 33.2786 209.658 33.4714 210.106 33.6953C210.554 33.9193 210.885 34.1901 211.098 34.5078C211.317 34.8203 211.427 35.2031 211.427 35.6562C211.427 36.4115 211.124 37.0182 210.52 37.4766C209.916 37.9297 209.132 38.1562 208.169 38.1562C207.492 38.1562 206.893 38.0365 206.372 37.7969C205.851 37.5573 205.442 37.224 205.145 36.7969C204.854 36.3646 204.708 35.8984 204.708 35.3984H206.153C206.179 35.8828 206.372 36.2682 206.731 36.5547C207.096 36.8359 207.575 36.9766 208.169 36.9766C208.716 36.9766 209.153 36.8672 209.481 36.6484C209.815 36.4245 209.981 36.1276 209.981 35.7578ZM218.231 35.7578C218.231 35.3672 218.083 35.0651 217.786 34.8516C217.494 34.6328 216.981 34.4453 216.247 34.2891C215.518 34.1328 214.937 33.9453 214.505 33.7266C214.078 33.5078 213.76 33.2474 213.552 32.9453C213.348 32.6432 213.247 32.2839 213.247 31.8672C213.247 31.1745 213.538 30.5885 214.122 30.1094C214.71 29.6302 215.46 29.3906 216.372 29.3906C217.33 29.3906 218.106 29.638 218.7 30.1328C219.299 30.6276 219.598 31.2604 219.598 32.0312H218.145C218.145 31.6354 217.976 31.2943 217.637 31.0078C217.304 30.7214 216.882 30.5781 216.372 30.5781C215.846 30.5781 215.434 30.6927 215.137 30.9219C214.841 31.151 214.692 31.4505 214.692 31.8203C214.692 32.1693 214.83 32.4323 215.106 32.6094C215.382 32.7865 215.88 32.9557 216.598 33.1172C217.322 33.2786 217.908 33.4714 218.356 33.6953C218.804 33.9193 219.135 34.1901 219.348 34.5078C219.567 34.8203 219.677 35.2031 219.677 35.6562C219.677 36.4115 219.374 37.0182 218.77 37.4766C218.166 37.9297 217.382 38.1562 216.419 38.1562C215.742 38.1562 215.143 38.0365 214.622 37.7969C214.101 37.5573 213.692 37.224 213.395 36.7969C213.104 36.3646 212.958 35.8984 212.958 35.3984H214.403C214.429 35.8828 214.622 36.2682 214.981 36.5547C215.346 36.8359 215.825 36.9766 216.419 36.9766C216.966 36.9766 217.403 36.8672 217.731 36.6484C218.065 36.4245 218.231 36.1276 218.231 35.7578ZM222.27 38V30.6641H220.934V29.5469H222.27V28.6797C222.27 27.7734 222.512 27.0729 222.997 26.5781C223.481 26.0833 224.166 25.8359 225.052 25.8359C225.385 25.8359 225.716 25.8802 226.044 25.9688L225.966 27.1406C225.721 27.0938 225.46 27.0703 225.184 27.0703C224.716 27.0703 224.354 27.2083 224.098 27.4844C223.843 27.7552 223.716 28.1458 223.716 28.6562V29.5469H225.52V30.6641H223.716V38H222.27ZM232.341 37.1641C231.778 37.8255 230.953 38.1562 229.864 38.1562C228.963 38.1562 228.275 37.8958 227.802 37.375C227.333 36.849 227.096 36.0729 227.091 35.0469V29.5469H228.536V35.0078C228.536 36.2891 229.057 36.9297 230.098 36.9297C231.203 36.9297 231.937 36.5182 232.302 35.6953V29.5469H233.747V38H232.372L232.341 37.1641ZM237.52 38H236.075V26H237.52V38ZM241.411 38H239.966V26H241.411V38ZM246.497 35.8828L248.466 29.5469H250.012L246.614 39.3047C246.088 40.7109 245.252 41.4141 244.106 41.4141L243.833 41.3906L243.294 41.2891V40.1172L243.684 40.1484C244.174 40.1484 244.554 40.0495 244.825 39.8516C245.101 39.6536 245.328 39.2917 245.505 38.7656L245.825 37.9062L242.809 29.5469H244.387L246.497 35.8828ZM250.497 37.2422C250.497 36.9922 250.57 36.7839 250.716 36.6172C250.867 36.4505 251.091 36.3672 251.387 36.3672C251.684 36.3672 251.908 36.4505 252.059 36.6172C252.216 36.7839 252.294 36.9922 252.294 37.2422C252.294 37.4818 252.216 37.6823 252.059 37.8438C251.908 38.0052 251.684 38.0859 251.387 38.0859C251.091 38.0859 250.867 38.0052 250.716 37.8438C250.57 37.6823 250.497 37.4818 250.497 37.2422Z" fill="#656668"/>
<path d="M28.7589 49H31.6389V43.848H34.8389V41.32H31.6389V26.088H28.1509L16.9189 41.64V43.848H28.7589V49ZM20.2789 41.32L28.8869 29.128V41.32H20.2789Z" fill="#656668"/>
</svg>
