<svg width="595" height="113" viewBox="0 0 595 113" fill="none" xmlns="http://www.w3.org/2000/svg">
<g filter="url(#filter0_d)">
<rect x="19" y="16" width="556.56" height="75" rx="24" fill="white"/>
</g>
<path d="M89.4033 50.3906C89.2627 51.5938 88.8174 52.5234 88.0674 53.1797C87.3226 53.8307 86.3304 54.1562 85.0908 54.1562C83.7471 54.1562 82.6689 53.6745 81.8564 52.7109C81.0492 51.7474 80.6455 50.4583 80.6455 48.8438V47.75C80.6455 46.6927 80.833 45.763 81.208 44.9609C81.5882 44.1589 82.1247 43.5443 82.8174 43.1172C83.5101 42.6849 84.3122 42.4688 85.2236 42.4688C86.432 42.4688 87.4007 42.8073 88.1299 43.4844C88.859 44.1562 89.2835 45.0885 89.4033 46.2812H87.8955C87.7653 45.375 87.4814 44.7188 87.0439 44.3125C86.6117 43.9062 86.0049 43.7031 85.2236 43.7031C84.2653 43.7031 83.5127 44.0573 82.9658 44.7656C82.4242 45.474 82.1533 46.4818 82.1533 47.7891V48.8906C82.1533 50.125 82.4111 51.1068 82.9268 51.8359C83.4424 52.5651 84.1637 52.9297 85.0908 52.9297C85.9242 52.9297 86.5622 52.7422 87.0049 52.3672C87.4528 51.987 87.7497 51.3281 87.8955 50.3906H89.4033ZM90.8486 49.6953C90.8486 48.8672 91.0101 48.1224 91.333 47.4609C91.6611 46.7995 92.1143 46.2891 92.6924 45.9297C93.2757 45.5703 93.9398 45.3906 94.6846 45.3906C95.8356 45.3906 96.7653 45.7891 97.4736 46.5859C98.1872 47.3828 98.5439 48.4427 98.5439 49.7656V49.8672C98.5439 50.6901 98.3851 51.4297 98.0674 52.0859C97.7549 52.737 97.3044 53.2448 96.7158 53.6094C96.1325 53.974 95.4606 54.1562 94.7002 54.1562C93.5544 54.1562 92.6247 53.7578 91.9111 52.9609C91.2028 52.1641 90.8486 51.1094 90.8486 49.7969V49.6953ZM92.3018 49.8672C92.3018 50.8047 92.5179 51.5573 92.9502 52.125C93.3877 52.6927 93.971 52.9766 94.7002 52.9766C95.4346 52.9766 96.0179 52.6901 96.4502 52.1172C96.8825 51.5391 97.0986 50.7318 97.0986 49.6953C97.0986 48.7682 96.8773 48.0182 96.4346 47.4453C95.9971 46.8672 95.4137 46.5781 94.6846 46.5781C93.971 46.5781 93.3955 46.862 92.958 47.4297C92.5205 47.9974 92.3018 48.8099 92.3018 49.8672ZM101.724 45.5469L101.771 46.6094C102.416 45.7969 103.26 45.3906 104.302 45.3906C106.088 45.3906 106.989 46.3984 107.005 48.4141V54H105.56V48.4062C105.554 47.7969 105.414 47.3464 105.138 47.0547C104.867 46.763 104.442 46.6172 103.864 46.6172C103.396 46.6172 102.984 46.7422 102.63 46.9922C102.276 47.2422 102 47.5703 101.802 47.9766V54H100.356V45.5469H101.724ZM109.669 54V46.6641H108.333V45.5469H109.669V44.8281C109.669 43.8854 109.937 43.151 110.474 42.625C111.015 42.099 111.778 41.8359 112.763 41.8359C113.346 41.8359 114.083 41.9948 114.974 42.3125L114.731 43.5312C114.08 43.2708 113.461 43.1406 112.872 43.1406C112.252 43.1406 111.804 43.2812 111.528 43.5625C111.257 43.8385 111.122 44.2552 111.122 44.8125V45.5469H112.849V46.6641H111.122V54H109.669ZM115.692 54H114.239V45.5469H115.692V54ZM122.13 46.8438C121.911 46.8073 121.674 46.7891 121.419 46.7891C120.471 46.7891 119.828 47.1927 119.489 48V54H118.044V45.5469H119.45L119.474 46.5234C119.948 45.7682 120.619 45.3906 121.489 45.3906C121.771 45.3906 121.984 45.4271 122.13 45.5V46.8438ZM124.825 45.5469L124.864 46.4844C125.484 45.7552 126.32 45.3906 127.372 45.3906C128.554 45.3906 129.359 45.8438 129.786 46.75C130.067 46.3438 130.432 46.0156 130.88 45.7656C131.333 45.5156 131.867 45.3906 132.481 45.3906C134.336 45.3906 135.278 46.3724 135.31 48.3359V54H133.864V48.4219C133.864 47.8177 133.726 47.3672 133.45 47.0703C133.174 46.7682 132.711 46.6172 132.06 46.6172C131.523 46.6172 131.078 46.7786 130.724 47.1016C130.369 47.4193 130.164 47.849 130.106 48.3906V54H128.653V48.4609C128.653 47.2318 128.052 46.6172 126.849 46.6172C125.901 46.6172 125.252 47.0208 124.903 47.8281V54H123.458V45.5469H124.825ZM143.427 43.5V45.5469H145.005V46.6641H143.427V51.9062C143.427 52.2448 143.497 52.5 143.638 52.6719C143.778 52.8385 144.018 52.9219 144.356 52.9219C144.523 52.9219 144.752 52.8906 145.044 52.8281V54C144.664 54.1042 144.294 54.1562 143.935 54.1562C143.289 54.1562 142.802 53.9609 142.474 53.5703C142.146 53.1797 141.981 52.625 141.981 51.9062V46.6641H140.442V45.5469H141.981V43.5H143.427ZM148.146 46.5703C148.786 45.7839 149.619 45.3906 150.646 45.3906C152.432 45.3906 153.333 46.3984 153.349 48.4141V54H151.903V48.4062C151.898 47.7969 151.757 47.3464 151.481 47.0547C151.211 46.763 150.786 46.6172 150.208 46.6172C149.739 46.6172 149.328 46.7422 148.974 46.9922C148.619 47.2422 148.343 47.5703 148.146 47.9766V54H146.7V42H148.146V46.5703ZM159.021 54.1562C157.875 54.1562 156.942 53.7812 156.224 53.0312C155.505 52.276 155.146 51.2682 155.146 50.0078V49.7422C155.146 48.9036 155.304 48.1562 155.622 47.5C155.945 46.8385 156.393 46.3229 156.966 45.9531C157.544 45.5781 158.169 45.3906 158.841 45.3906C159.94 45.3906 160.794 45.7526 161.403 46.4766C162.013 47.2005 162.317 48.237 162.317 49.5859V50.1875H156.591C156.612 51.0208 156.854 51.6953 157.317 52.2109C157.786 52.7214 158.38 52.9766 159.099 52.9766C159.609 52.9766 160.041 52.8724 160.396 52.6641C160.75 52.4557 161.06 52.1797 161.325 51.8359L162.208 52.5234C161.5 53.612 160.437 54.1562 159.021 54.1562ZM158.841 46.5781C158.257 46.5781 157.768 46.7917 157.372 47.2188C156.976 47.6406 156.731 48.2344 156.638 49H160.872V48.8906C160.83 48.1562 160.632 47.5885 160.278 47.1875C159.924 46.7812 159.445 46.5781 158.841 46.5781ZM175.106 49.8672C175.106 51.1536 174.812 52.1901 174.224 52.9766C173.635 53.763 172.838 54.1562 171.833 54.1562C170.807 54.1562 170 53.8307 169.411 53.1797V57.25H167.966V45.5469H169.286L169.356 46.4844C169.945 45.7552 170.763 45.3906 171.81 45.3906C172.825 45.3906 173.627 45.7734 174.216 46.5391C174.81 47.3047 175.106 48.3698 175.106 49.7344V49.8672ZM173.661 49.7031C173.661 48.75 173.458 47.9974 173.052 47.4453C172.646 46.8932 172.088 46.6172 171.38 46.6172C170.505 46.6172 169.849 47.0052 169.411 47.7812V51.8203C169.843 52.5911 170.505 52.9766 171.396 52.9766C172.088 52.9766 172.638 52.7031 173.044 52.1562C173.455 51.6042 173.661 50.7865 173.661 49.7031ZM182.169 54C182.086 53.8333 182.018 53.5365 181.966 53.1094C181.294 53.8073 180.492 54.1562 179.56 54.1562C178.726 54.1562 178.041 53.9219 177.505 53.4531C176.974 52.9792 176.708 52.3802 176.708 51.6562C176.708 50.776 177.041 50.0938 177.708 49.6094C178.38 49.1198 179.323 48.875 180.536 48.875H181.942V48.2109C181.942 47.7057 181.791 47.3047 181.489 47.0078C181.187 46.7057 180.742 46.5547 180.153 46.5547C179.638 46.5547 179.205 46.6849 178.856 46.9453C178.507 47.2057 178.333 47.5208 178.333 47.8906H176.88C176.88 47.4688 177.028 47.0625 177.325 46.6719C177.627 46.276 178.034 45.9635 178.544 45.7344C179.06 45.5052 179.625 45.3906 180.239 45.3906C181.213 45.3906 181.976 45.6354 182.528 46.125C183.08 46.6094 183.367 47.2786 183.388 48.1328V52.0234C183.388 52.7995 183.487 53.4167 183.685 53.875V54H182.169ZM179.771 52.8984C180.224 52.8984 180.653 52.7812 181.06 52.5469C181.466 52.3125 181.76 52.0078 181.942 51.6328V49.8984H180.81C179.039 49.8984 178.153 50.4167 178.153 51.4531C178.153 51.9062 178.304 52.2604 178.606 52.5156C178.909 52.7708 179.297 52.8984 179.771 52.8984ZM188.294 51.8828L190.263 45.5469H191.81L188.411 55.3047C187.885 56.7109 187.049 57.4141 185.903 57.4141L185.63 57.3906L185.091 57.2891V56.1172L185.481 56.1484C185.971 56.1484 186.351 56.0495 186.622 55.8516C186.898 55.6536 187.125 55.2917 187.302 54.7656L187.622 53.9062L184.606 45.5469H186.185L188.294 51.8828ZM194.466 45.5469L194.505 46.4844C195.125 45.7552 195.961 45.3906 197.013 45.3906C198.195 45.3906 199 45.8438 199.427 46.75C199.708 46.3438 200.073 46.0156 200.521 45.7656C200.974 45.5156 201.507 45.3906 202.122 45.3906C203.976 45.3906 204.919 46.3724 204.95 48.3359V54H203.505V48.4219C203.505 47.8177 203.367 47.3672 203.091 47.0703C202.815 46.7682 202.351 46.6172 201.7 46.6172C201.164 46.6172 200.718 46.7786 200.364 47.1016C200.01 47.4193 199.804 47.849 199.747 48.3906V54H198.294V48.4609C198.294 47.2318 197.692 46.6172 196.489 46.6172C195.541 46.6172 194.893 47.0208 194.544 47.8281V54H193.099V45.5469H194.466ZM210.646 54.1562C209.5 54.1562 208.567 53.7812 207.849 53.0312C207.13 52.276 206.771 51.2682 206.771 50.0078V49.7422C206.771 48.9036 206.929 48.1562 207.247 47.5C207.57 46.8385 208.018 46.3229 208.591 45.9531C209.169 45.5781 209.794 45.3906 210.466 45.3906C211.565 45.3906 212.419 45.7526 213.028 46.4766C213.638 47.2005 213.942 48.237 213.942 49.5859V50.1875H208.216C208.237 51.0208 208.479 51.6953 208.942 52.2109C209.411 52.7214 210.005 52.9766 210.724 52.9766C211.234 52.9766 211.666 52.8724 212.021 52.6641C212.375 52.4557 212.685 52.1797 212.95 51.8359L213.833 52.5234C213.125 53.612 212.062 54.1562 210.646 54.1562ZM210.466 46.5781C209.882 46.5781 209.393 46.7917 208.997 47.2188C208.601 47.6406 208.356 48.2344 208.263 49H212.497V48.8906C212.455 48.1562 212.257 47.5885 211.903 47.1875C211.549 46.7812 211.07 46.5781 210.466 46.5781ZM216.989 45.5469L217.036 46.6094C217.682 45.7969 218.526 45.3906 219.567 45.3906C221.354 45.3906 222.255 46.3984 222.271 48.4141V54H220.825V48.4062C220.82 47.7969 220.679 47.3464 220.403 47.0547C220.132 46.763 219.708 46.6172 219.13 46.6172C218.661 46.6172 218.25 46.7422 217.896 46.9922C217.541 47.2422 217.265 47.5703 217.067 47.9766V54H215.622V45.5469H216.989ZM226.411 43.5V45.5469H227.989V46.6641H226.411V51.9062C226.411 52.2448 226.481 52.5 226.622 52.6719C226.763 52.8385 227.002 52.9219 227.341 52.9219C227.507 52.9219 227.737 52.8906 228.028 52.8281V54C227.648 54.1042 227.278 54.1562 226.919 54.1562C226.273 54.1562 225.786 53.9609 225.458 53.5703C225.13 53.1797 224.966 52.625 224.966 51.9062V46.6641H223.427V45.5469H224.966V43.5H226.411ZM237.739 46.8438C237.521 46.8073 237.284 46.7891 237.028 46.7891C236.08 46.7891 235.437 47.1927 235.099 48V54H233.653V45.5469H235.06L235.083 46.5234C235.557 45.7682 236.229 45.3906 237.099 45.3906C237.38 45.3906 237.593 45.4271 237.739 45.5V46.8438ZM242.427 54.1562C241.281 54.1562 240.349 53.7812 239.63 53.0312C238.911 52.276 238.552 51.2682 238.552 50.0078V49.7422C238.552 48.9036 238.711 48.1562 239.028 47.5C239.351 46.8385 239.799 46.3229 240.372 45.9531C240.95 45.5781 241.575 45.3906 242.247 45.3906C243.346 45.3906 244.2 45.7526 244.81 46.4766C245.419 47.2005 245.724 48.237 245.724 49.5859V50.1875H239.997C240.018 51.0208 240.26 51.6953 240.724 52.2109C241.192 52.7214 241.786 52.9766 242.505 52.9766C243.015 52.9766 243.448 52.8724 243.802 52.6641C244.156 52.4557 244.466 52.1797 244.731 51.8359L245.614 52.5234C244.906 53.612 243.843 54.1562 242.427 54.1562ZM242.247 46.5781C241.664 46.5781 241.174 46.7917 240.778 47.2188C240.382 47.6406 240.138 48.2344 240.044 49H244.278V48.8906C244.237 48.1562 244.039 47.5885 243.685 47.1875C243.33 46.7812 242.851 46.5781 242.247 46.5781ZM247.052 49.7031C247.052 48.375 247.356 47.3255 247.966 46.5547C248.575 45.7786 249.393 45.3906 250.419 45.3906C251.419 45.3906 252.208 45.7266 252.786 46.3984L252.849 45.5469H254.177V57.25H252.731V53.2188C252.148 53.8438 251.372 54.1562 250.403 54.1562C249.382 54.1562 248.567 53.7604 247.958 52.9688C247.354 52.1719 247.052 51.1172 247.052 49.8047V49.7031ZM248.497 49.8672C248.497 50.8359 248.7 51.5964 249.106 52.1484C249.518 52.7005 250.07 52.9766 250.763 52.9766C251.622 52.9766 252.278 52.5964 252.731 51.8359V47.6953C252.273 46.9505 251.622 46.5781 250.778 46.5781C250.08 46.5781 249.526 46.8568 249.114 47.4141C248.703 47.9661 248.497 48.7839 248.497 49.8672ZM261.716 53.1641C261.153 53.8255 260.328 54.1562 259.239 54.1562C258.338 54.1562 257.651 53.8958 257.177 53.375C256.708 52.849 256.471 52.0729 256.466 51.0469V45.5469H257.911V51.0078C257.911 52.2891 258.432 52.9297 259.474 52.9297C260.578 52.9297 261.312 52.5182 261.677 51.6953V45.5469H263.122V54H261.747L261.716 53.1641ZM268.833 54.1562C267.687 54.1562 266.755 53.7812 266.036 53.0312C265.317 52.276 264.958 51.2682 264.958 50.0078V49.7422C264.958 48.9036 265.117 48.1562 265.435 47.5C265.757 46.8385 266.205 46.3229 266.778 45.9531C267.356 45.5781 267.981 45.3906 268.653 45.3906C269.752 45.3906 270.606 45.7526 271.216 46.4766C271.825 47.2005 272.13 48.237 272.13 49.5859V50.1875H266.403C266.424 51.0208 266.666 51.6953 267.13 52.2109C267.599 52.7214 268.192 52.9766 268.911 52.9766C269.422 52.9766 269.854 52.8724 270.208 52.6641C270.562 52.4557 270.872 52.1797 271.138 51.8359L272.021 52.5234C271.312 53.612 270.25 54.1562 268.833 54.1562ZM268.653 46.5781C268.07 46.5781 267.58 46.7917 267.185 47.2188C266.789 47.6406 266.544 48.2344 266.45 49H270.685V48.8906C270.643 48.1562 270.445 47.5885 270.091 47.1875C269.737 46.7812 269.257 46.5781 268.653 46.5781ZM278.731 51.7578C278.731 51.3672 278.583 51.0651 278.286 50.8516C277.994 50.6328 277.481 50.4453 276.747 50.2891C276.018 50.1328 275.437 49.9453 275.005 49.7266C274.578 49.5078 274.26 49.2474 274.052 48.9453C273.849 48.6432 273.747 48.2839 273.747 47.8672C273.747 47.1745 274.039 46.5885 274.622 46.1094C275.211 45.6302 275.961 45.3906 276.872 45.3906C277.83 45.3906 278.606 45.638 279.2 46.1328C279.799 46.6276 280.099 47.2604 280.099 48.0312H278.646C278.646 47.6354 278.476 47.2943 278.138 47.0078C277.804 46.7214 277.382 46.5781 276.872 46.5781C276.346 46.5781 275.935 46.6927 275.638 46.9219C275.341 47.151 275.192 47.4505 275.192 47.8203C275.192 48.1693 275.33 48.4323 275.606 48.6094C275.882 48.7865 276.38 48.9557 277.099 49.1172C277.823 49.2786 278.409 49.4714 278.856 49.6953C279.304 49.9193 279.635 50.1901 279.849 50.5078C280.067 50.8203 280.177 51.2031 280.177 51.6562C280.177 52.4115 279.875 53.0182 279.271 53.4766C278.666 53.9297 277.882 54.1562 276.919 54.1562C276.242 54.1562 275.643 54.0365 275.122 53.7969C274.601 53.5573 274.192 53.224 273.896 52.7969C273.604 52.3646 273.458 51.8984 273.458 51.3984H274.903C274.929 51.8828 275.122 52.2682 275.481 52.5547C275.846 52.8359 276.325 52.9766 276.919 52.9766C277.466 52.9766 277.903 52.8672 278.231 52.6484C278.565 52.4245 278.731 52.1276 278.731 51.7578ZM284.021 43.5V45.5469H285.599V46.6641H284.021V51.9062C284.021 52.2448 284.091 52.5 284.231 52.6719C284.372 52.8385 284.612 52.9219 284.95 52.9219C285.117 52.9219 285.346 52.8906 285.638 52.8281V54C285.257 54.1042 284.888 54.1562 284.528 54.1562C283.882 54.1562 283.396 53.9609 283.067 53.5703C282.739 53.1797 282.575 52.625 282.575 51.9062V46.6641H281.036V45.5469H282.575V43.5H284.021ZM293.224 43.5V45.5469H294.802V46.6641H293.224V51.9062C293.224 52.2448 293.294 52.5 293.435 52.6719C293.575 52.8385 293.815 52.9219 294.153 52.9219C294.32 52.9219 294.549 52.8906 294.841 52.8281V54C294.461 54.1042 294.091 54.1562 293.731 54.1562C293.086 54.1562 292.599 53.9609 292.271 53.5703C291.942 53.1797 291.778 52.625 291.778 51.9062V46.6641H290.239V45.5469H291.778V43.5H293.224ZM295.958 49.6953C295.958 48.8672 296.119 48.1224 296.442 47.4609C296.771 46.7995 297.224 46.2891 297.802 45.9297C298.385 45.5703 299.049 45.3906 299.794 45.3906C300.945 45.3906 301.875 45.7891 302.583 46.5859C303.297 47.3828 303.653 48.4427 303.653 49.7656V49.8672C303.653 50.6901 303.494 51.4297 303.177 52.0859C302.864 52.737 302.414 53.2448 301.825 53.6094C301.242 53.974 300.57 54.1562 299.81 54.1562C298.664 54.1562 297.734 53.7578 297.021 52.9609C296.312 52.1641 295.958 51.1094 295.958 49.7969V49.6953ZM297.411 49.8672C297.411 50.8047 297.627 51.5573 298.06 52.125C298.497 52.6927 299.08 52.9766 299.81 52.9766C300.544 52.9766 301.127 52.6901 301.56 52.1172C301.992 51.5391 302.208 50.7318 302.208 49.6953C302.208 48.7682 301.987 48.0182 301.544 47.4453C301.106 46.8672 300.523 46.5781 299.794 46.5781C299.08 46.5781 298.505 46.862 298.067 47.4297C297.63 47.9974 297.411 48.8099 297.411 49.8672ZM316.591 49.8672C316.591 51.1589 316.294 52.1979 315.7 52.9844C315.106 53.7656 314.31 54.1562 313.31 54.1562C312.242 54.1562 311.416 53.7786 310.833 53.0234L310.763 54H309.435V42H310.88V46.4766C311.463 45.7526 312.268 45.3906 313.294 45.3906C314.32 45.3906 315.125 45.7786 315.708 46.5547C316.297 47.3307 316.591 48.3932 316.591 49.7422V49.8672ZM315.146 49.7031C315.146 48.7188 314.955 47.9583 314.575 47.4219C314.195 46.8854 313.648 46.6172 312.935 46.6172C311.981 46.6172 311.297 47.0599 310.88 47.9453V51.6016C311.323 52.487 312.013 52.9297 312.95 52.9297C313.643 52.9297 314.182 52.6615 314.567 52.125C314.953 51.5885 315.146 50.7812 315.146 49.7031ZM321.927 54.1562C320.781 54.1562 319.849 53.7812 319.13 53.0312C318.411 52.276 318.052 51.2682 318.052 50.0078V49.7422C318.052 48.9036 318.211 48.1562 318.528 47.5C318.851 46.8385 319.299 46.3229 319.872 45.9531C320.45 45.5781 321.075 45.3906 321.747 45.3906C322.846 45.3906 323.7 45.7526 324.31 46.4766C324.919 47.2005 325.224 48.237 325.224 49.5859V50.1875H319.497C319.518 51.0208 319.76 51.6953 320.224 52.2109C320.692 52.7214 321.286 52.9766 322.005 52.9766C322.515 52.9766 322.948 52.8724 323.302 52.6641C323.656 52.4557 323.966 52.1797 324.231 51.8359L325.114 52.5234C324.406 53.612 323.343 54.1562 321.927 54.1562ZM321.747 46.5781C321.164 46.5781 320.674 46.7917 320.278 47.2188C319.882 47.6406 319.638 48.2344 319.544 49H323.778V48.8906C323.737 48.1562 323.539 47.5885 323.185 47.1875C322.83 46.7812 322.351 46.5781 321.747 46.5781ZM335.794 51.7578C335.794 51.3672 335.646 51.0651 335.349 50.8516C335.057 50.6328 334.544 50.4453 333.81 50.2891C333.08 50.1328 332.5 49.9453 332.067 49.7266C331.64 49.5078 331.323 49.2474 331.114 48.9453C330.911 48.6432 330.81 48.2839 330.81 47.8672C330.81 47.1745 331.101 46.5885 331.685 46.1094C332.273 45.6302 333.023 45.3906 333.935 45.3906C334.893 45.3906 335.669 45.638 336.263 46.1328C336.862 46.6276 337.161 47.2604 337.161 48.0312H335.708C335.708 47.6354 335.539 47.2943 335.2 47.0078C334.867 46.7214 334.445 46.5781 333.935 46.5781C333.409 46.5781 332.997 46.6927 332.7 46.9219C332.403 47.151 332.255 47.4505 332.255 47.8203C332.255 48.1693 332.393 48.4323 332.669 48.6094C332.945 48.7865 333.442 48.9557 334.161 49.1172C334.885 49.2786 335.471 49.4714 335.919 49.6953C336.367 49.9193 336.698 50.1901 336.911 50.5078C337.13 50.8203 337.239 51.2031 337.239 51.6562C337.239 52.4115 336.937 53.0182 336.333 53.4766C335.729 53.9297 334.945 54.1562 333.981 54.1562C333.304 54.1562 332.705 54.0365 332.185 53.7969C331.664 53.5573 331.255 53.224 330.958 52.7969C330.666 52.3646 330.521 51.8984 330.521 51.3984H331.966C331.992 51.8828 332.185 52.2682 332.544 52.5547C332.909 52.8359 333.388 52.9766 333.981 52.9766C334.528 52.9766 334.966 52.8672 335.294 52.6484C335.627 52.4245 335.794 52.1276 335.794 51.7578ZM342.63 54.1562C341.484 54.1562 340.552 53.7812 339.833 53.0312C339.114 52.276 338.755 51.2682 338.755 50.0078V49.7422C338.755 48.9036 338.914 48.1562 339.231 47.5C339.554 46.8385 340.002 46.3229 340.575 45.9531C341.153 45.5781 341.778 45.3906 342.45 45.3906C343.549 45.3906 344.403 45.7526 345.013 46.4766C345.622 47.2005 345.927 48.237 345.927 49.5859V50.1875H340.2C340.221 51.0208 340.463 51.6953 340.927 52.2109C341.396 52.7214 341.989 52.9766 342.708 52.9766C343.218 52.9766 343.651 52.8724 344.005 52.6641C344.359 52.4557 344.669 52.1797 344.935 51.8359L345.817 52.5234C345.109 53.612 344.047 54.1562 342.63 54.1562ZM342.45 46.5781C341.867 46.5781 341.377 46.7917 340.981 47.2188C340.586 47.6406 340.341 48.2344 340.247 49H344.481V48.8906C344.44 48.1562 344.242 47.5885 343.888 47.1875C343.534 46.7812 343.054 46.5781 342.45 46.5781ZM348.974 45.5469L349.021 46.6094C349.666 45.7969 350.51 45.3906 351.552 45.3906C353.338 45.3906 354.239 46.3984 354.255 48.4141V54H352.81V48.4062C352.804 47.7969 352.664 47.3464 352.388 47.0547C352.117 46.763 351.692 46.6172 351.114 46.6172C350.646 46.6172 350.234 46.7422 349.88 46.9922C349.526 47.2422 349.25 47.5703 349.052 47.9766V54H347.606V45.5469H348.974ZM358.396 43.5V45.5469H359.974V46.6641H358.396V51.9062C358.396 52.2448 358.466 52.5 358.606 52.6719C358.747 52.8385 358.987 52.9219 359.325 52.9219C359.492 52.9219 359.721 52.8906 360.013 52.8281V54C359.632 54.1042 359.263 54.1562 358.903 54.1562C358.257 54.1562 357.771 53.9609 357.442 53.5703C357.114 53.1797 356.95 52.625 356.95 51.9062V46.6641H355.411V45.5469H356.95V43.5H358.396ZM367.599 43.5V45.5469H369.177V46.6641H367.599V51.9062C367.599 52.2448 367.669 52.5 367.81 52.6719C367.95 52.8385 368.19 52.9219 368.528 52.9219C368.695 52.9219 368.924 52.8906 369.216 52.8281V54C368.836 54.1042 368.466 54.1562 368.106 54.1562C367.461 54.1562 366.974 53.9609 366.646 53.5703C366.317 53.1797 366.153 52.625 366.153 51.9062V46.6641H364.614V45.5469H366.153V43.5H367.599ZM370.333 49.6953C370.333 48.8672 370.494 48.1224 370.817 47.4609C371.146 46.7995 371.599 46.2891 372.177 45.9297C372.76 45.5703 373.424 45.3906 374.169 45.3906C375.32 45.3906 376.25 45.7891 376.958 46.5859C377.672 47.3828 378.028 48.4427 378.028 49.7656V49.8672C378.028 50.6901 377.869 51.4297 377.552 52.0859C377.239 52.737 376.789 53.2448 376.2 53.6094C375.617 53.974 374.945 54.1562 374.185 54.1562C373.039 54.1562 372.109 53.7578 371.396 52.9609C370.687 52.1641 370.333 51.1094 370.333 49.7969V49.6953ZM371.786 49.8672C371.786 50.8047 372.002 51.5573 372.435 52.125C372.872 52.6927 373.455 52.9766 374.185 52.9766C374.919 52.9766 375.502 52.6901 375.935 52.1172C376.367 51.5391 376.583 50.7318 376.583 49.6953C376.583 48.7682 376.362 48.0182 375.919 47.4453C375.481 46.8672 374.898 46.5781 374.169 46.5781C373.455 46.5781 372.88 46.862 372.442 47.4297C372.005 47.9974 371.786 48.8099 371.786 49.8672ZM383.427 49.6953C383.427 48.8672 383.588 48.1224 383.911 47.4609C384.239 46.7995 384.692 46.2891 385.271 45.9297C385.854 45.5703 386.518 45.3906 387.263 45.3906C388.414 45.3906 389.343 45.7891 390.052 46.5859C390.765 47.3828 391.122 48.4427 391.122 49.7656V49.8672C391.122 50.6901 390.963 51.4297 390.646 52.0859C390.333 52.737 389.882 53.2448 389.294 53.6094C388.711 53.974 388.039 54.1562 387.278 54.1562C386.132 54.1562 385.203 53.7578 384.489 52.9609C383.781 52.1641 383.427 51.1094 383.427 49.7969V49.6953ZM384.88 49.8672C384.88 50.8047 385.096 51.5573 385.528 52.125C385.966 52.6927 386.549 52.9766 387.278 52.9766C388.013 52.9766 388.596 52.6901 389.028 52.1172C389.461 51.5391 389.677 50.7318 389.677 49.6953C389.677 48.7682 389.455 48.0182 389.013 47.4453C388.575 46.8672 387.992 46.5781 387.263 46.5781C386.549 46.5781 385.974 46.862 385.536 47.4297C385.099 47.9974 384.88 48.8099 384.88 49.8672ZM394.896 43.5V45.5469H396.474V46.6641H394.896V51.9062C394.896 52.2448 394.966 52.5 395.106 52.6719C395.247 52.8385 395.487 52.9219 395.825 52.9219C395.992 52.9219 396.221 52.8906 396.513 52.8281V54C396.132 54.1042 395.763 54.1562 395.403 54.1562C394.757 54.1562 394.271 53.9609 393.942 53.5703C393.614 53.1797 393.45 52.625 393.45 51.9062V46.6641H391.911V45.5469H393.45V43.5H394.896ZM399.614 46.5703C400.255 45.7839 401.088 45.3906 402.114 45.3906C403.901 45.3906 404.802 46.3984 404.817 48.4141V54H403.372V48.4062C403.367 47.7969 403.226 47.3464 402.95 47.0547C402.679 46.763 402.255 46.6172 401.677 46.6172C401.208 46.6172 400.797 46.7422 400.442 46.9922C400.088 47.2422 399.812 47.5703 399.614 47.9766V54H398.169V42H399.614V46.5703ZM410.489 54.1562C409.343 54.1562 408.411 53.7812 407.692 53.0312C406.974 52.276 406.614 51.2682 406.614 50.0078V49.7422C406.614 48.9036 406.773 48.1562 407.091 47.5C407.414 46.8385 407.862 46.3229 408.435 45.9531C409.013 45.5781 409.638 45.3906 410.31 45.3906C411.409 45.3906 412.263 45.7526 412.872 46.4766C413.481 47.2005 413.786 48.237 413.786 49.5859V50.1875H408.06C408.08 51.0208 408.323 51.6953 408.786 52.2109C409.255 52.7214 409.849 52.9766 410.567 52.9766C411.078 52.9766 411.51 52.8724 411.864 52.6641C412.218 52.4557 412.528 52.1797 412.794 51.8359L413.677 52.5234C412.968 53.612 411.906 54.1562 410.489 54.1562ZM410.31 46.5781C409.726 46.5781 409.237 46.7917 408.841 47.2188C408.445 47.6406 408.2 48.2344 408.106 49H412.341V48.8906C412.299 48.1562 412.101 47.5885 411.747 47.1875C411.393 46.7812 410.914 46.5781 410.31 46.5781ZM419.552 46.8438C419.333 46.8073 419.096 46.7891 418.841 46.7891C417.893 46.7891 417.25 47.1927 416.911 48V54H415.466V45.5469H416.872L416.896 46.5234C417.369 45.7682 418.041 45.3906 418.911 45.3906C419.192 45.3906 419.406 45.4271 419.552 45.5V46.8438ZM425.81 51.7578C425.81 51.3672 425.661 51.0651 425.364 50.8516C425.073 50.6328 424.56 50.4453 423.825 50.2891C423.096 50.1328 422.515 49.9453 422.083 49.7266C421.656 49.5078 421.338 49.2474 421.13 48.9453C420.927 48.6432 420.825 48.2839 420.825 47.8672C420.825 47.1745 421.117 46.5885 421.7 46.1094C422.289 45.6302 423.039 45.3906 423.95 45.3906C424.909 45.3906 425.685 45.638 426.278 46.1328C426.877 46.6276 427.177 47.2604 427.177 48.0312H425.724C425.724 47.6354 425.554 47.2943 425.216 47.0078C424.882 46.7214 424.461 46.5781 423.95 46.5781C423.424 46.5781 423.013 46.6927 422.716 46.9219C422.419 47.151 422.271 47.4505 422.271 47.8203C422.271 48.1693 422.409 48.4323 422.685 48.6094C422.961 48.7865 423.458 48.9557 424.177 49.1172C424.901 49.2786 425.487 49.4714 425.935 49.6953C426.382 49.9193 426.713 50.1901 426.927 50.5078C427.146 50.8203 427.255 51.2031 427.255 51.6562C427.255 52.4115 426.953 53.0182 426.349 53.4766C425.744 53.9297 424.961 54.1562 423.997 54.1562C423.32 54.1562 422.721 54.0365 422.2 53.7969C421.679 53.5573 421.271 53.224 420.974 52.7969C420.682 52.3646 420.536 51.8984 420.536 51.3984H421.981C422.007 51.8828 422.2 52.2682 422.56 52.5547C422.924 52.8359 423.403 52.9766 423.997 52.9766C424.544 52.9766 424.981 52.8672 425.31 52.6484C425.643 52.4245 425.81 52.1276 425.81 51.7578ZM429.169 53.2422C429.169 52.9922 429.242 52.7839 429.388 52.6172C429.539 52.4505 429.763 52.3672 430.06 52.3672C430.356 52.3672 430.58 52.4505 430.731 52.6172C430.888 52.7839 430.966 52.9922 430.966 53.2422C430.966 53.4818 430.888 53.6823 430.731 53.8438C430.58 54.0052 430.356 54.0859 430.06 54.0859C429.763 54.0859 429.539 54.0052 429.388 53.8438C429.242 53.6823 429.169 53.4818 429.169 53.2422Z" fill="#6654A4"/>
<path d="M37.4786 47.688H40.3266C40.6146 45.448 42.2466 43.912 44.9666 43.912C47.7506 43.912 49.2226 45.448 49.2226 47.656C49.2226 50.344 47.1426 51.528 43.2706 51.56H42.5026V53.992H43.2386C47.3986 53.992 49.6706 55.24 49.6706 58.504C49.6706 60.872 48.1986 62.696 45.0946 62.696C42.0226 62.696 40.2306 60.808 39.9426 58.344H37.1266C37.4786 62.824 40.7426 65.16 45.1266 65.16C49.9586 65.16 52.4546 62.344 52.4546 58.76C52.4546 55.432 50.6306 53.448 47.9426 52.808V52.648C50.3746 52.104 52.0386 50.024 52.0386 47.368C52.0386 44.04 49.5746 41.416 45.0626 41.416C40.7746 41.416 37.7666 43.72 37.4786 47.688Z" fill="#6654A4"/>
<defs>
<filter id="filter0_d" x="0" y="0" width="594.56" height="113" filterUnits="userSpaceOnUse" color-interpolation-filters="sRGB">
<feFlood flood-opacity="0" result="BackgroundImageFix"/>
<feColorMatrix in="SourceAlpha" type="matrix" values="0 0 0 0 0 0 0 0 0 0 0 0 0 0 0 0 0 0 127 0"/>
<feMorphology radius="4" operator="dilate" in="SourceAlpha" result="effect1_dropShadow"/>
<feOffset dy="3"/>
<feGaussianBlur stdDeviation="7.5"/>
<feColorMatrix type="matrix" values="0 0 0 0 0.872109 0 0 0 0 0.853125 0 0 0 0 0.9375 0 0 0 0.5 0"/>
<feBlend mode="normal" in2="BackgroundImageFix" result="effect1_dropShadow"/>
<feBlend mode="normal" in="SourceGraphic" in2="effect1_dropShadow" result="shape"/>
</filter>
</defs>
</svg>
