<svg width="595" height="113" viewBox="0 0 595 113" fill="none" xmlns="http://www.w3.org/2000/svg">
<g filter="url(#filter0_d)">
<rect x="19" y="16" width="556.56" height="75" rx="24" fill="white"/>
</g>
<path d="M84.5049 49.3359L87.4736 43.625H89.1768L85.2549 50.7578V55H83.7549V50.7578L79.833 43.625H81.5518L84.5049 49.3359ZM89.5205 50.6953C89.5205 49.8672 89.682 49.1224 90.0049 48.4609C90.333 47.7995 90.7861 47.2891 91.3643 46.9297C91.9476 46.5703 92.6117 46.3906 93.3564 46.3906C94.5075 46.3906 95.4372 46.7891 96.1455 47.5859C96.859 48.3828 97.2158 49.4427 97.2158 50.7656V50.8672C97.2158 51.6901 97.057 52.4297 96.7393 53.0859C96.4268 53.737 95.9762 54.2448 95.3877 54.6094C94.8044 54.974 94.1325 55.1562 93.3721 55.1562C92.2262 55.1562 91.2965 54.7578 90.583 53.9609C89.8747 53.1641 89.5205 52.1094 89.5205 50.7969V50.6953ZM90.9736 50.8672C90.9736 51.8047 91.1898 52.5573 91.6221 53.125C92.0596 53.6927 92.6429 53.9766 93.3721 53.9766C94.1064 53.9766 94.6898 53.6901 95.1221 53.1172C95.5544 52.5391 95.7705 51.7318 95.7705 50.6953C95.7705 49.7682 95.5492 49.0182 95.1064 48.4453C94.6689 47.8672 94.0856 47.5781 93.3564 47.5781C92.6429 47.5781 92.0674 47.862 91.6299 48.4297C91.1924 48.9974 90.9736 49.8099 90.9736 50.8672ZM104.247 54.1641C103.685 54.8255 102.859 55.1562 101.771 55.1562C100.869 55.1562 100.182 54.8958 99.708 54.375C99.2393 53.849 99.0023 53.0729 98.9971 52.0469V46.5469H100.442V52.0078C100.442 53.2891 100.963 53.9297 102.005 53.9297C103.109 53.9297 103.843 53.5182 104.208 52.6953V46.5469H105.653V55H104.278L104.247 54.1641ZM115.216 53.9766C115.731 53.9766 116.182 53.8203 116.567 53.5078C116.953 53.1953 117.166 52.8047 117.208 52.3359H118.575C118.549 52.8203 118.382 53.2812 118.075 53.7188C117.768 54.1562 117.356 54.5052 116.841 54.7656C116.33 55.026 115.789 55.1562 115.216 55.1562C114.065 55.1562 113.148 54.7734 112.466 54.0078C111.789 53.237 111.45 52.1849 111.45 50.8516V50.6094C111.45 49.7865 111.601 49.0547 111.903 48.4141C112.205 47.7734 112.638 47.276 113.2 46.9219C113.768 46.5677 114.437 46.3906 115.208 46.3906C116.156 46.3906 116.942 46.6745 117.567 47.2422C118.198 47.8099 118.534 48.5469 118.575 49.4531H117.208C117.166 48.9062 116.958 48.4583 116.583 48.1094C116.213 47.7552 115.755 47.5781 115.208 47.5781C114.474 47.5781 113.903 47.8438 113.497 48.375C113.096 48.901 112.896 49.6641 112.896 50.6641V50.9375C112.896 51.9115 113.096 52.6615 113.497 53.1875C113.898 53.7135 114.471 53.9766 115.216 53.9766ZM125.419 55C125.336 54.8333 125.268 54.5365 125.216 54.1094C124.544 54.8073 123.742 55.1562 122.81 55.1562C121.976 55.1562 121.291 54.9219 120.755 54.4531C120.224 53.9792 119.958 53.3802 119.958 52.6562C119.958 51.776 120.291 51.0938 120.958 50.6094C121.63 50.1198 122.573 49.875 123.786 49.875H125.192V49.2109C125.192 48.7057 125.041 48.3047 124.739 48.0078C124.437 47.7057 123.992 47.5547 123.403 47.5547C122.888 47.5547 122.455 47.6849 122.106 47.9453C121.757 48.2057 121.583 48.5208 121.583 48.8906H120.13C120.13 48.4688 120.278 48.0625 120.575 47.6719C120.877 47.276 121.284 46.9635 121.794 46.7344C122.31 46.5052 122.875 46.3906 123.489 46.3906C124.463 46.3906 125.226 46.6354 125.778 47.125C126.33 47.6094 126.617 48.2786 126.638 49.1328V53.0234C126.638 53.7995 126.737 54.4167 126.935 54.875V55H125.419ZM123.021 53.8984C123.474 53.8984 123.903 53.7812 124.31 53.5469C124.716 53.3125 125.01 53.0078 125.192 52.6328V50.8984H124.06C122.289 50.8984 121.403 51.4167 121.403 52.4531C121.403 52.9062 121.554 53.2604 121.856 53.5156C122.159 53.7708 122.547 53.8984 123.021 53.8984ZM130.271 46.5469L130.317 47.6094C130.963 46.7969 131.807 46.3906 132.849 46.3906C134.635 46.3906 135.536 47.3984 135.552 49.4141V55H134.106V49.4062C134.101 48.7969 133.961 48.3464 133.685 48.0547C133.414 47.763 132.989 47.6172 132.411 47.6172C131.942 47.6172 131.531 47.7422 131.177 47.9922C130.823 48.2422 130.547 48.5703 130.349 48.9766V55H128.903V46.5469H130.271ZM145.091 53.9766C145.606 53.9766 146.057 53.8203 146.442 53.5078C146.828 53.1953 147.041 52.8047 147.083 52.3359H148.45C148.424 52.8203 148.257 53.2812 147.95 53.7188C147.643 54.1562 147.231 54.5052 146.716 54.7656C146.205 55.026 145.664 55.1562 145.091 55.1562C143.94 55.1562 143.023 54.7734 142.341 54.0078C141.664 53.237 141.325 52.1849 141.325 50.8516V50.6094C141.325 49.7865 141.476 49.0547 141.778 48.4141C142.08 47.7734 142.513 47.276 143.075 46.9219C143.643 46.5677 144.312 46.3906 145.083 46.3906C146.031 46.3906 146.817 46.6745 147.442 47.2422C148.073 47.8099 148.409 48.5469 148.45 49.4531H147.083C147.041 48.9062 146.833 48.4583 146.458 48.1094C146.088 47.7552 145.63 47.5781 145.083 47.5781C144.349 47.5781 143.778 47.8438 143.372 48.375C142.971 48.901 142.771 49.6641 142.771 50.6641V50.9375C142.771 51.9115 142.971 52.6615 143.372 53.1875C143.773 53.7135 144.346 53.9766 145.091 53.9766ZM151.521 47.5703C152.161 46.7839 152.994 46.3906 154.021 46.3906C155.807 46.3906 156.708 47.3984 156.724 49.4141V55H155.278V49.4062C155.273 48.7969 155.132 48.3464 154.856 48.0547C154.586 47.763 154.161 47.6172 153.583 47.6172C153.114 47.6172 152.703 47.7422 152.349 47.9922C151.994 48.2422 151.718 48.5703 151.521 48.9766V55H150.075V43H151.521V47.5703ZM158.505 50.6953C158.505 49.8672 158.666 49.1224 158.989 48.4609C159.317 47.7995 159.771 47.2891 160.349 46.9297C160.932 46.5703 161.596 46.3906 162.341 46.3906C163.492 46.3906 164.422 46.7891 165.13 47.5859C165.843 48.3828 166.2 49.4427 166.2 50.7656V50.8672C166.2 51.6901 166.041 52.4297 165.724 53.0859C165.411 53.737 164.961 54.2448 164.372 54.6094C163.789 54.974 163.117 55.1562 162.356 55.1562C161.211 55.1562 160.281 54.7578 159.567 53.9609C158.859 53.1641 158.505 52.1094 158.505 50.7969V50.6953ZM159.958 50.8672C159.958 51.8047 160.174 52.5573 160.606 53.125C161.044 53.6927 161.627 53.9766 162.356 53.9766C163.091 53.9766 163.674 53.6901 164.106 53.1172C164.539 52.5391 164.755 51.7318 164.755 50.6953C164.755 49.7682 164.534 49.0182 164.091 48.4453C163.653 47.8672 163.07 47.5781 162.341 47.5781C161.627 47.5781 161.052 47.862 160.614 48.4297C160.177 48.9974 159.958 49.8099 159.958 50.8672ZM167.63 50.6953C167.63 49.8672 167.791 49.1224 168.114 48.4609C168.442 47.7995 168.896 47.2891 169.474 46.9297C170.057 46.5703 170.721 46.3906 171.466 46.3906C172.617 46.3906 173.547 46.7891 174.255 47.5859C174.968 48.3828 175.325 49.4427 175.325 50.7656V50.8672C175.325 51.6901 175.166 52.4297 174.849 53.0859C174.536 53.737 174.086 54.2448 173.497 54.6094C172.914 54.974 172.242 55.1562 171.481 55.1562C170.336 55.1562 169.406 54.7578 168.692 53.9609C167.984 53.1641 167.63 52.1094 167.63 50.7969V50.6953ZM169.083 50.8672C169.083 51.8047 169.299 52.5573 169.731 53.125C170.169 53.6927 170.752 53.9766 171.481 53.9766C172.216 53.9766 172.799 53.6901 173.231 53.1172C173.664 52.5391 173.88 51.7318 173.88 50.6953C173.88 49.7682 173.659 49.0182 173.216 48.4453C172.778 47.8672 172.195 47.5781 171.466 47.5781C170.752 47.5781 170.177 47.862 169.739 48.4297C169.302 48.9974 169.083 49.8099 169.083 50.8672ZM182.06 52.7578C182.06 52.3672 181.911 52.0651 181.614 51.8516C181.323 51.6328 180.81 51.4453 180.075 51.2891C179.346 51.1328 178.765 50.9453 178.333 50.7266C177.906 50.5078 177.588 50.2474 177.38 49.9453C177.177 49.6432 177.075 49.2839 177.075 48.8672C177.075 48.1745 177.367 47.5885 177.95 47.1094C178.539 46.6302 179.289 46.3906 180.2 46.3906C181.159 46.3906 181.935 46.638 182.528 47.1328C183.127 47.6276 183.427 48.2604 183.427 49.0312H181.974C181.974 48.6354 181.804 48.2943 181.466 48.0078C181.132 47.7214 180.711 47.5781 180.2 47.5781C179.674 47.5781 179.263 47.6927 178.966 47.9219C178.669 48.151 178.521 48.4505 178.521 48.8203C178.521 49.1693 178.659 49.4323 178.935 49.6094C179.211 49.7865 179.708 49.9557 180.427 50.1172C181.151 50.2786 181.737 50.4714 182.185 50.6953C182.632 50.9193 182.963 51.1901 183.177 51.5078C183.396 51.8203 183.505 52.2031 183.505 52.6562C183.505 53.4115 183.203 54.0182 182.599 54.4766C181.994 54.9297 181.211 55.1562 180.247 55.1562C179.57 55.1562 178.971 55.0365 178.45 54.7969C177.929 54.5573 177.521 54.224 177.224 53.7969C176.932 53.3646 176.786 52.8984 176.786 52.3984H178.231C178.257 52.8828 178.45 53.2682 178.81 53.5547C179.174 53.8359 179.653 53.9766 180.247 53.9766C180.794 53.9766 181.231 53.8672 181.56 53.6484C181.893 53.4245 182.06 53.1276 182.06 52.7578ZM188.896 55.1562C187.75 55.1562 186.817 54.7812 186.099 54.0312C185.38 53.276 185.021 52.2682 185.021 51.0078V50.7422C185.021 49.9036 185.179 49.1562 185.497 48.5C185.82 47.8385 186.268 47.3229 186.841 46.9531C187.419 46.5781 188.044 46.3906 188.716 46.3906C189.815 46.3906 190.669 46.7526 191.278 47.4766C191.888 48.2005 192.192 49.237 192.192 50.5859V51.1875H186.466C186.487 52.0208 186.729 52.6953 187.192 53.2109C187.661 53.7214 188.255 53.9766 188.974 53.9766C189.484 53.9766 189.916 53.8724 190.271 53.6641C190.625 53.4557 190.935 53.1797 191.2 52.8359L192.083 53.5234C191.375 54.612 190.312 55.1562 188.896 55.1562ZM188.716 47.5781C188.132 47.5781 187.643 47.7917 187.247 48.2188C186.851 48.6406 186.606 49.2344 186.513 50H190.747V49.8906C190.705 49.1562 190.507 48.5885 190.153 48.1875C189.799 47.7812 189.32 47.5781 188.716 47.5781ZM199.802 44.5V46.5469H201.38V47.6641H199.802V52.9062C199.802 53.2448 199.872 53.5 200.013 53.6719C200.153 53.8385 200.393 53.9219 200.731 53.9219C200.898 53.9219 201.127 53.8906 201.419 53.8281V55C201.039 55.1042 200.669 55.1562 200.31 55.1562C199.664 55.1562 199.177 54.9609 198.849 54.5703C198.521 54.1797 198.356 53.625 198.356 52.9062V47.6641H196.817V46.5469H198.356V44.5H199.802ZM202.536 50.6953C202.536 49.8672 202.698 49.1224 203.021 48.4609C203.349 47.7995 203.802 47.2891 204.38 46.9297C204.963 46.5703 205.627 46.3906 206.372 46.3906C207.523 46.3906 208.453 46.7891 209.161 47.5859C209.875 48.3828 210.231 49.4427 210.231 50.7656V50.8672C210.231 51.6901 210.073 52.4297 209.755 53.0859C209.442 53.737 208.992 54.2448 208.403 54.6094C207.82 54.974 207.148 55.1562 206.388 55.1562C205.242 55.1562 204.312 54.7578 203.599 53.9609C202.89 53.1641 202.536 52.1094 202.536 50.7969V50.6953ZM203.989 50.8672C203.989 51.8047 204.205 52.5573 204.638 53.125C205.075 53.6927 205.659 53.9766 206.388 53.9766C207.122 53.9766 207.705 53.6901 208.138 53.1172C208.57 52.5391 208.786 51.7318 208.786 50.6953C208.786 49.7682 208.565 49.0182 208.122 48.4453C207.685 47.8672 207.101 47.5781 206.372 47.5781C205.659 47.5781 205.083 47.862 204.646 48.4297C204.208 48.9974 203.989 49.8099 203.989 50.8672ZM220.935 52.7578C220.935 52.3672 220.786 52.0651 220.489 51.8516C220.198 51.6328 219.685 51.4453 218.95 51.2891C218.221 51.1328 217.64 50.9453 217.208 50.7266C216.781 50.5078 216.463 50.2474 216.255 49.9453C216.052 49.6432 215.95 49.2839 215.95 48.8672C215.95 48.1745 216.242 47.5885 216.825 47.1094C217.414 46.6302 218.164 46.3906 219.075 46.3906C220.034 46.3906 220.81 46.638 221.403 47.1328C222.002 47.6276 222.302 48.2604 222.302 49.0312H220.849C220.849 48.6354 220.679 48.2943 220.341 48.0078C220.007 47.7214 219.586 47.5781 219.075 47.5781C218.549 47.5781 218.138 47.6927 217.841 47.9219C217.544 48.151 217.396 48.4505 217.396 48.8203C217.396 49.1693 217.534 49.4323 217.81 49.6094C218.086 49.7865 218.583 49.9557 219.302 50.1172C220.026 50.2786 220.612 50.4714 221.06 50.6953C221.507 50.9193 221.838 51.1901 222.052 51.5078C222.271 51.8203 222.38 52.2031 222.38 52.6562C222.38 53.4115 222.078 54.0182 221.474 54.4766C220.869 54.9297 220.086 55.1562 219.122 55.1562C218.445 55.1562 217.846 55.0365 217.325 54.7969C216.804 54.5573 216.396 54.224 216.099 53.7969C215.807 53.3646 215.661 52.8984 215.661 52.3984H217.106C217.132 52.8828 217.325 53.2682 217.685 53.5547C218.049 53.8359 218.528 53.9766 219.122 53.9766C219.669 53.9766 220.106 53.8672 220.435 53.6484C220.768 53.4245 220.935 53.1276 220.935 52.7578ZM225.833 55H224.388V43H225.833V55ZM229.724 55H228.278V46.5469H229.724V55ZM228.161 44.3047C228.161 44.0703 228.231 43.8724 228.372 43.7109C228.518 43.5495 228.731 43.4688 229.013 43.4688C229.294 43.4688 229.507 43.5495 229.653 43.7109C229.799 43.8724 229.872 44.0703 229.872 44.3047C229.872 44.5391 229.799 44.7344 229.653 44.8906C229.507 45.0469 229.294 45.125 229.013 45.125C228.731 45.125 228.518 45.0469 228.372 44.8906C228.231 44.7344 228.161 44.5391 228.161 44.3047ZM239.185 50.8672C239.185 52.1536 238.89 53.1901 238.302 53.9766C237.713 54.763 236.916 55.1562 235.911 55.1562C234.885 55.1562 234.078 54.8307 233.489 54.1797V58.25H232.044V46.5469H233.364L233.435 47.4844C234.023 46.7552 234.841 46.3906 235.888 46.3906C236.903 46.3906 237.705 46.7734 238.294 47.5391C238.888 48.3047 239.185 49.3698 239.185 50.7344V50.8672ZM237.739 50.7031C237.739 49.75 237.536 48.9974 237.13 48.4453C236.724 47.8932 236.166 47.6172 235.458 47.6172C234.583 47.6172 233.927 48.0052 233.489 48.7812V52.8203C233.922 53.5911 234.583 53.9766 235.474 53.9766C236.166 53.9766 236.716 53.7031 237.122 53.1562C237.534 52.6042 237.739 51.7865 237.739 50.7031ZM246.958 44.5V46.5469H248.536V47.6641H246.958V52.9062C246.958 53.2448 247.028 53.5 247.169 53.6719C247.31 53.8385 247.549 53.9219 247.888 53.9219C248.054 53.9219 248.284 53.8906 248.575 53.8281V55C248.195 55.1042 247.825 55.1562 247.466 55.1562C246.82 55.1562 246.333 54.9609 246.005 54.5703C245.677 54.1797 245.513 53.625 245.513 52.9062V47.6641H243.974V46.5469H245.513V44.5H246.958ZM251.677 47.5703C252.317 46.7839 253.151 46.3906 254.177 46.3906C255.963 46.3906 256.864 47.3984 256.88 49.4141V55H255.435V49.4062C255.429 48.7969 255.289 48.3464 255.013 48.0547C254.742 47.763 254.317 47.6172 253.739 47.6172C253.271 47.6172 252.859 47.7422 252.505 47.9922C252.151 48.2422 251.875 48.5703 251.677 48.9766V55H250.231V43H251.677V47.5703ZM262.552 55.1562C261.406 55.1562 260.474 54.7812 259.755 54.0312C259.036 53.276 258.677 52.2682 258.677 51.0078V50.7422C258.677 49.9036 258.836 49.1562 259.153 48.5C259.476 47.8385 259.924 47.3229 260.497 46.9531C261.075 46.5781 261.7 46.3906 262.372 46.3906C263.471 46.3906 264.325 46.7526 264.935 47.4766C265.544 48.2005 265.849 49.237 265.849 50.5859V51.1875H260.122C260.143 52.0208 260.385 52.6953 260.849 53.2109C261.317 53.7214 261.911 53.9766 262.63 53.9766C263.14 53.9766 263.573 53.8724 263.927 53.6641C264.281 53.4557 264.591 53.1797 264.856 52.8359L265.739 53.5234C265.031 54.612 263.968 55.1562 262.552 55.1562ZM262.372 47.5781C261.789 47.5781 261.299 47.7917 260.903 48.2188C260.507 48.6406 260.263 49.2344 260.169 50H264.403V49.8906C264.362 49.1562 264.164 48.5885 263.81 48.1875C263.455 47.7812 262.976 47.5781 262.372 47.5781ZM278.653 50.8672C278.653 52.1589 278.356 53.1979 277.763 53.9844C277.169 54.7656 276.372 55.1562 275.372 55.1562C274.304 55.1562 273.479 54.7786 272.896 54.0234L272.825 55H271.497V43H272.942V47.4766C273.526 46.7526 274.33 46.3906 275.356 46.3906C276.382 46.3906 277.187 46.7786 277.771 47.5547C278.359 48.3307 278.653 49.3932 278.653 50.7422V50.8672ZM277.208 50.7031C277.208 49.7188 277.018 48.9583 276.638 48.4219C276.257 47.8854 275.711 47.6172 274.997 47.6172C274.044 47.6172 273.359 48.0599 272.942 48.9453V52.6016C273.385 53.487 274.075 53.9297 275.013 53.9297C275.705 53.9297 276.244 53.6615 276.63 53.125C277.015 52.5885 277.208 51.7812 277.208 50.7031ZM282.052 55H280.606V46.5469H282.052V55ZM280.489 44.3047C280.489 44.0703 280.56 43.8724 280.7 43.7109C280.846 43.5495 281.06 43.4688 281.341 43.4688C281.622 43.4688 281.836 43.5495 281.981 43.7109C282.127 43.8724 282.2 44.0703 282.2 44.3047C282.2 44.5391 282.127 44.7344 281.981 44.8906C281.836 45.0469 281.622 45.125 281.341 45.125C281.06 45.125 280.846 45.0469 280.7 44.8906C280.56 44.7344 280.489 44.5391 280.489 44.3047ZM285.942 55H284.497V43H285.942V55ZM289.833 55H288.388V43H289.833V55ZM299.63 55.1562C298.484 55.1562 297.552 54.7812 296.833 54.0312C296.114 53.276 295.755 52.2682 295.755 51.0078V50.7422C295.755 49.9036 295.914 49.1562 296.231 48.5C296.554 47.8385 297.002 47.3229 297.575 46.9531C298.153 46.5781 298.778 46.3906 299.45 46.3906C300.549 46.3906 301.403 46.7526 302.013 47.4766C302.622 48.2005 302.927 49.237 302.927 50.5859V51.1875H297.2C297.221 52.0208 297.463 52.6953 297.927 53.2109C298.396 53.7214 298.989 53.9766 299.708 53.9766C300.218 53.9766 300.651 53.8724 301.005 53.6641C301.359 53.4557 301.669 53.1797 301.935 52.8359L302.817 53.5234C302.109 54.612 301.047 55.1562 299.63 55.1562ZM299.45 47.5781C298.867 47.5781 298.377 47.7917 297.981 48.2188C297.586 48.6406 297.341 49.2344 297.247 50H301.481V49.8906C301.44 49.1562 301.242 48.5885 300.888 48.1875C300.534 47.7812 300.054 47.5781 299.45 47.5781ZM307.286 53.0391L309.38 46.5469H310.856L307.825 55H306.724L303.661 46.5469H305.138L307.286 53.0391ZM315.646 55.1562C314.5 55.1562 313.567 54.7812 312.849 54.0312C312.13 53.276 311.771 52.2682 311.771 51.0078V50.7422C311.771 49.9036 311.929 49.1562 312.247 48.5C312.57 47.8385 313.018 47.3229 313.591 46.9531C314.169 46.5781 314.794 46.3906 315.466 46.3906C316.565 46.3906 317.419 46.7526 318.028 47.4766C318.638 48.2005 318.942 49.237 318.942 50.5859V51.1875H313.216C313.237 52.0208 313.479 52.6953 313.942 53.2109C314.411 53.7214 315.005 53.9766 315.724 53.9766C316.234 53.9766 316.666 53.8724 317.021 53.6641C317.375 53.4557 317.685 53.1797 317.95 52.8359L318.833 53.5234C318.125 54.612 317.062 55.1562 315.646 55.1562ZM315.466 47.5781C314.882 47.5781 314.393 47.7917 313.997 48.2188C313.601 48.6406 313.356 49.2344 313.263 50H317.497V49.8906C317.455 49.1562 317.257 48.5885 316.903 48.1875C316.549 47.7812 316.07 47.5781 315.466 47.5781ZM321.989 46.5469L322.036 47.6094C322.682 46.7969 323.526 46.3906 324.567 46.3906C326.354 46.3906 327.255 47.3984 327.271 49.4141V55H325.825V49.4062C325.82 48.7969 325.679 48.3464 325.403 48.0547C325.132 47.763 324.708 47.6172 324.13 47.6172C323.661 47.6172 323.25 47.7422 322.896 47.9922C322.541 48.2422 322.265 48.5703 322.067 48.9766V55H320.622V46.5469H321.989ZM331.021 55H329.575V43H331.021V55ZM336.106 52.8828L338.075 46.5469H339.622L336.224 56.3047C335.698 57.7109 334.862 58.4141 333.716 58.4141L333.442 58.3906L332.903 58.2891V57.1172L333.294 57.1484C333.784 57.1484 334.164 57.0495 334.435 56.8516C334.711 56.6536 334.937 56.2917 335.114 55.7656L335.435 54.9062L332.419 46.5469H333.997L336.106 52.8828ZM344.505 50.6953C344.505 49.8672 344.666 49.1224 344.989 48.4609C345.317 47.7995 345.771 47.2891 346.349 46.9297C346.932 46.5703 347.596 46.3906 348.341 46.3906C349.492 46.3906 350.422 46.7891 351.13 47.5859C351.843 48.3828 352.2 49.4427 352.2 50.7656V50.8672C352.2 51.6901 352.041 52.4297 351.724 53.0859C351.411 53.737 350.961 54.2448 350.372 54.6094C349.789 54.974 349.117 55.1562 348.356 55.1562C347.211 55.1562 346.281 54.7578 345.567 53.9609C344.859 53.1641 344.505 52.1094 344.505 50.7969V50.6953ZM345.958 50.8672C345.958 51.8047 346.174 52.5573 346.606 53.125C347.044 53.6927 347.627 53.9766 348.356 53.9766C349.091 53.9766 349.674 53.6901 350.106 53.1172C350.539 52.5391 350.755 51.7318 350.755 50.6953C350.755 49.7682 350.534 49.0182 350.091 48.4453C349.653 47.8672 349.07 47.5781 348.341 47.5781C347.627 47.5781 347.052 47.862 346.614 48.4297C346.177 48.9974 345.958 49.8099 345.958 50.8672ZM358.099 47.8438C357.88 47.8073 357.643 47.7891 357.388 47.7891C356.44 47.7891 355.797 48.1927 355.458 49V55H354.013V46.5469H355.419L355.442 47.5234C355.916 46.7682 356.588 46.3906 357.458 46.3906C357.739 46.3906 357.953 46.4271 358.099 46.5V47.8438ZM368.622 54.1641C368.06 54.8255 367.234 55.1562 366.146 55.1562C365.244 55.1562 364.557 54.8958 364.083 54.375C363.614 53.849 363.377 53.0729 363.372 52.0469V46.5469H364.817V52.0078C364.817 53.2891 365.338 53.9297 366.38 53.9297C367.484 53.9297 368.218 53.5182 368.583 52.6953V46.5469H370.028V55H368.653L368.622 54.1641ZM373.599 46.5469L373.646 47.6094C374.291 46.7969 375.135 46.3906 376.177 46.3906C377.963 46.3906 378.864 47.3984 378.88 49.4141V55H377.435V49.4062C377.429 48.7969 377.289 48.3464 377.013 48.0547C376.742 47.763 376.317 47.6172 375.739 47.6172C375.271 47.6172 374.859 47.7422 374.505 47.9922C374.151 48.2422 373.875 48.5703 373.677 48.9766V55H372.231V46.5469H373.599ZM384.567 55.1562C383.422 55.1562 382.489 54.7812 381.771 54.0312C381.052 53.276 380.692 52.2682 380.692 51.0078V50.7422C380.692 49.9036 380.851 49.1562 381.169 48.5C381.492 47.8385 381.94 47.3229 382.513 46.9531C383.091 46.5781 383.716 46.3906 384.388 46.3906C385.487 46.3906 386.341 46.7526 386.95 47.4766C387.56 48.2005 387.864 49.237 387.864 50.5859V51.1875H382.138C382.159 52.0208 382.401 52.6953 382.864 53.2109C383.333 53.7214 383.927 53.9766 384.646 53.9766C385.156 53.9766 385.588 53.8724 385.942 53.6641C386.297 53.4557 386.606 53.1797 386.872 52.8359L387.755 53.5234C387.047 54.612 385.984 55.1562 384.567 55.1562ZM384.388 47.5781C383.804 47.5781 383.315 47.7917 382.919 48.2188C382.523 48.6406 382.278 49.2344 382.185 50H386.419V49.8906C386.377 49.1562 386.179 48.5885 385.825 48.1875C385.471 47.7812 384.992 47.5781 384.388 47.5781ZM392.224 53.0391L394.317 46.5469H395.794L392.763 55H391.661L388.599 46.5469H390.075L392.224 53.0391ZM400.583 55.1562C399.437 55.1562 398.505 54.7812 397.786 54.0312C397.067 53.276 396.708 52.2682 396.708 51.0078V50.7422C396.708 49.9036 396.867 49.1562 397.185 48.5C397.507 47.8385 397.955 47.3229 398.528 46.9531C399.106 46.5781 399.731 46.3906 400.403 46.3906C401.502 46.3906 402.356 46.7526 402.966 47.4766C403.575 48.2005 403.88 49.237 403.88 50.5859V51.1875H398.153C398.174 52.0208 398.416 52.6953 398.88 53.2109C399.349 53.7214 399.942 53.9766 400.661 53.9766C401.172 53.9766 401.604 53.8724 401.958 53.6641C402.312 53.4557 402.622 53.1797 402.888 52.8359L403.771 53.5234C403.062 54.612 402 55.1562 400.583 55.1562ZM400.403 47.5781C399.82 47.5781 399.33 47.7917 398.935 48.2188C398.539 48.6406 398.294 49.2344 398.2 50H402.435V49.8906C402.393 49.1562 402.195 48.5885 401.841 48.1875C401.487 47.7812 401.007 47.5781 400.403 47.5781ZM406.927 46.5469L406.974 47.6094C407.619 46.7969 408.463 46.3906 409.505 46.3906C411.291 46.3906 412.192 47.3984 412.208 49.4141V55H410.763V49.4062C410.757 48.7969 410.617 48.3464 410.341 48.0547C410.07 47.763 409.646 47.6172 409.067 47.6172C408.599 47.6172 408.187 47.7422 407.833 47.9922C407.479 48.2422 407.203 48.5703 407.005 48.9766V55H405.56V46.5469H406.927ZM415.958 55H414.513V43H415.958V55ZM421.044 52.8828L423.013 46.5469H424.56L421.161 56.3047C420.635 57.7109 419.799 58.4141 418.653 58.4141L418.38 58.3906L417.841 58.2891V57.1172L418.231 57.1484C418.721 57.1484 419.101 57.0495 419.372 56.8516C419.648 56.6536 419.875 56.2917 420.052 55.7656L420.372 54.9062L417.356 46.5469H418.935L421.044 52.8828ZM425.044 54.2422C425.044 53.9922 425.117 53.7839 425.263 53.6172C425.414 53.4505 425.638 53.3672 425.935 53.3672C426.231 53.3672 426.455 53.4505 426.606 53.6172C426.763 53.7839 426.841 53.9922 426.841 54.2422C426.841 54.4818 426.763 54.6823 426.606 54.8438C426.455 55.0052 426.231 55.0859 425.935 55.0859C425.638 55.0859 425.414 55.0052 425.263 54.8438C425.117 54.6823 425.044 54.4818 425.044 54.2422Z" fill="#6654A4"/>
<path d="M38.1105 63.744H53.5025V61.312H42.4945C46.6225 57.952 52.8305 53.056 52.8305 47.296C52.8305 43.008 50.0145 40.448 45.6625 40.448C41.5025 40.448 38.3985 43.008 38.2065 47.936H41.0225C41.1505 45.024 42.6865 42.944 45.6945 42.944C48.8305 42.944 49.9505 44.864 49.9505 47.424C49.9505 52.16 44.1905 56.768 38.1105 61.664V63.744Z" fill="#6654A4"/>
<defs>
<filter id="filter0_d" x="0" y="0" width="594.56" height="113" filterUnits="userSpaceOnUse" color-interpolation-filters="sRGB">
<feFlood flood-opacity="0" result="BackgroundImageFix"/>
<feColorMatrix in="SourceAlpha" type="matrix" values="0 0 0 0 0 0 0 0 0 0 0 0 0 0 0 0 0 0 127 0"/>
<feMorphology radius="4" operator="dilate" in="SourceAlpha" result="effect1_dropShadow"/>
<feOffset dy="3"/>
<feGaussianBlur stdDeviation="7.5"/>
<feColorMatrix type="matrix" values="0 0 0 0 0.872109 0 0 0 0 0.853125 0 0 0 0 0.9375 0 0 0 0.5 0"/>
<feBlend mode="normal" in2="BackgroundImageFix" result="effect1_dropShadow"/>
<feBlend mode="normal" in="SourceGraphic" in2="effect1_dropShadow" result="shape"/>
</filter>
</defs>
</svg>
