<svg width="563" height="75" viewBox="0 0 563 75" fill="none" xmlns="http://www.w3.org/2000/svg">
<path d="M68.3174 37.0312H63.5518L62.4814 40H60.9346L65.2783 28.625H66.5908L70.9424 40H69.4033L68.3174 37.0312ZM64.0049 35.7969H67.8721L65.9346 30.4766L64.0049 35.7969ZM71.8955 35.7031C71.8955 34.4062 72.2028 33.3646 72.8174 32.5781C73.432 31.7865 74.2367 31.3906 75.2314 31.3906C76.221 31.3906 77.0049 31.7292 77.583 32.4062V28H79.0283V40H77.7002L77.6299 39.0938C77.0518 39.8021 76.2471 40.1562 75.2158 40.1562C74.2367 40.1562 73.4372 39.7552 72.8174 38.9531C72.2028 38.151 71.8955 37.1042 71.8955 35.8125V35.7031ZM73.3408 35.8672C73.3408 36.8255 73.5387 37.5755 73.9346 38.1172C74.3304 38.6589 74.8773 38.9297 75.5752 38.9297C76.4919 38.9297 77.1611 38.5182 77.583 37.6953V33.8125C77.1507 33.0156 76.4867 32.6172 75.5908 32.6172C74.8825 32.6172 74.3304 32.8906 73.9346 33.4375C73.5387 33.9844 73.3408 34.7943 73.3408 35.8672ZM80.9268 35.7031C80.9268 34.4062 81.234 33.3646 81.8486 32.5781C82.4632 31.7865 83.2679 31.3906 84.2627 31.3906C85.2523 31.3906 86.0361 31.7292 86.6143 32.4062V28H88.0596V40H86.7314L86.6611 39.0938C86.083 39.8021 85.2783 40.1562 84.2471 40.1562C83.2679 40.1562 82.4684 39.7552 81.8486 38.9531C81.234 38.151 80.9268 37.1042 80.9268 35.8125V35.7031ZM82.3721 35.8672C82.3721 36.8255 82.57 37.5755 82.9658 38.1172C83.3617 38.6589 83.9085 38.9297 84.6064 38.9297C85.5231 38.9297 86.1924 38.5182 86.6143 37.6953V33.8125C86.182 33.0156 85.5179 32.6172 84.6221 32.6172C83.9137 32.6172 83.3617 32.8906 82.9658 33.4375C82.57 33.9844 82.3721 34.7943 82.3721 35.8672ZM96.2393 29.5V31.5469H97.8174V32.6641H96.2393V37.9062C96.2393 38.2448 96.3096 38.5 96.4502 38.6719C96.5908 38.8385 96.8304 38.9219 97.1689 38.9219C97.3356 38.9219 97.5648 38.8906 97.8564 38.8281V40C97.4762 40.1042 97.1064 40.1562 96.7471 40.1562C96.1012 40.1562 95.6143 39.9609 95.2861 39.5703C94.958 39.1797 94.7939 38.625 94.7939 37.9062V32.6641H93.2549V31.5469H94.7939V29.5H96.2393ZM100.958 32.5703C101.599 31.7839 102.432 31.3906 103.458 31.3906C105.244 31.3906 106.146 32.3984 106.161 34.4141V40H104.716V34.4062C104.711 33.7969 104.57 33.3464 104.294 33.0547C104.023 32.763 103.599 32.6172 103.021 32.6172C102.552 32.6172 102.14 32.7422 101.786 32.9922C101.432 33.2422 101.156 33.5703 100.958 33.9766V40H99.5127V28H100.958V32.5703ZM111.833 40.1562C110.687 40.1562 109.755 39.7812 109.036 39.0312C108.317 38.276 107.958 37.2682 107.958 36.0078V35.7422C107.958 34.9036 108.117 34.1562 108.435 33.5C108.757 32.8385 109.205 32.3229 109.778 31.9531C110.356 31.5781 110.981 31.3906 111.653 31.3906C112.752 31.3906 113.606 31.7526 114.216 32.4766C114.825 33.2005 115.13 34.237 115.13 35.5859V36.1875H109.403C109.424 37.0208 109.666 37.6953 110.13 38.2109C110.599 38.7214 111.192 38.9766 111.911 38.9766C112.422 38.9766 112.854 38.8724 113.208 38.6641C113.562 38.4557 113.872 38.1797 114.138 37.8359L115.021 38.5234C114.312 39.612 113.25 40.1562 111.833 40.1562ZM111.653 32.5781C111.07 32.5781 110.58 32.7917 110.185 33.2188C109.789 33.6406 109.544 34.2344 109.45 35H113.685V34.8906C113.643 34.1562 113.445 33.5885 113.091 33.1875C112.737 32.7812 112.257 32.5781 111.653 32.5781ZM125.997 39.1641C125.435 39.8255 124.609 40.1562 123.521 40.1562C122.619 40.1562 121.932 39.8958 121.458 39.375C120.989 38.849 120.752 38.0729 120.747 37.0469V31.5469H122.192V37.0078C122.192 38.2891 122.713 38.9297 123.755 38.9297C124.859 38.9297 125.593 38.5182 125.958 37.6953V31.5469H127.403V40H126.028L125.997 39.1641ZM134.528 37.7578C134.528 37.3672 134.38 37.0651 134.083 36.8516C133.791 36.6328 133.278 36.4453 132.544 36.2891C131.815 36.1328 131.234 35.9453 130.802 35.7266C130.375 35.5078 130.057 35.2474 129.849 34.9453C129.646 34.6432 129.544 34.2839 129.544 33.8672C129.544 33.1745 129.836 32.5885 130.419 32.1094C131.007 31.6302 131.757 31.3906 132.669 31.3906C133.627 31.3906 134.403 31.638 134.997 32.1328C135.596 32.6276 135.896 33.2604 135.896 34.0312H134.442C134.442 33.6354 134.273 33.2943 133.935 33.0078C133.601 32.7214 133.179 32.5781 132.669 32.5781C132.143 32.5781 131.731 32.6927 131.435 32.9219C131.138 33.151 130.989 33.4505 130.989 33.8203C130.989 34.1693 131.127 34.4323 131.403 34.6094C131.679 34.7865 132.177 34.9557 132.896 35.1172C133.619 35.2786 134.205 35.4714 134.653 35.6953C135.101 35.9193 135.432 36.1901 135.646 36.5078C135.864 36.8203 135.974 37.2031 135.974 37.6562C135.974 38.4115 135.672 39.0182 135.067 39.4766C134.463 39.9297 133.679 40.1562 132.716 40.1562C132.039 40.1562 131.44 40.0365 130.919 39.7969C130.398 39.5573 129.989 39.224 129.692 38.7969C129.401 38.3646 129.255 37.8984 129.255 37.3984H130.7C130.726 37.8828 130.919 38.2682 131.278 38.5547C131.643 38.8359 132.122 38.9766 132.716 38.9766C133.263 38.9766 133.7 38.8672 134.028 38.6484C134.362 38.4245 134.528 38.1276 134.528 37.7578ZM141.364 40.1562C140.218 40.1562 139.286 39.7812 138.567 39.0312C137.849 38.276 137.489 37.2682 137.489 36.0078V35.7422C137.489 34.9036 137.648 34.1562 137.966 33.5C138.289 32.8385 138.737 32.3229 139.31 31.9531C139.888 31.5781 140.513 31.3906 141.185 31.3906C142.284 31.3906 143.138 31.7526 143.747 32.4766C144.356 33.2005 144.661 34.237 144.661 35.5859V36.1875H138.935C138.955 37.0208 139.198 37.6953 139.661 38.2109C140.13 38.7214 140.724 38.9766 141.442 38.9766C141.953 38.9766 142.385 38.8724 142.739 38.6641C143.093 38.4557 143.403 38.1797 143.669 37.8359L144.552 38.5234C143.843 39.612 142.781 40.1562 141.364 40.1562ZM141.185 32.5781C140.601 32.5781 140.112 32.7917 139.716 33.2188C139.32 33.6406 139.075 34.2344 138.981 35H143.216V34.8906C143.174 34.1562 142.976 33.5885 142.622 33.1875C142.268 32.7812 141.789 32.5781 141.185 32.5781ZM150.427 32.8438C150.208 32.8073 149.971 32.7891 149.716 32.7891C148.768 32.7891 148.125 33.1927 147.786 34V40H146.341V31.5469H147.747L147.771 32.5234C148.244 31.7682 148.916 31.3906 149.786 31.3906C150.067 31.3906 150.281 31.4271 150.427 31.5V32.8438ZM156.685 37.7578C156.685 37.3672 156.536 37.0651 156.239 36.8516C155.948 36.6328 155.435 36.4453 154.7 36.2891C153.971 36.1328 153.39 35.9453 152.958 35.7266C152.531 35.5078 152.213 35.2474 152.005 34.9453C151.802 34.6432 151.7 34.2839 151.7 33.8672C151.7 33.1745 151.992 32.5885 152.575 32.1094C153.164 31.6302 153.914 31.3906 154.825 31.3906C155.784 31.3906 156.56 31.638 157.153 32.1328C157.752 32.6276 158.052 33.2604 158.052 34.0312H156.599C156.599 33.6354 156.429 33.2943 156.091 33.0078C155.757 32.7214 155.336 32.5781 154.825 32.5781C154.299 32.5781 153.888 32.6927 153.591 32.9219C153.294 33.151 153.146 33.4505 153.146 33.8203C153.146 34.1693 153.284 34.4323 153.56 34.6094C153.836 34.7865 154.333 34.9557 155.052 35.1172C155.776 35.2786 156.362 35.4714 156.81 35.6953C157.257 35.9193 157.588 36.1901 157.802 36.5078C158.021 36.8203 158.13 37.2031 158.13 37.6562C158.13 38.4115 157.828 39.0182 157.224 39.4766C156.619 39.9297 155.836 40.1562 154.872 40.1562C154.195 40.1562 153.596 40.0365 153.075 39.7969C152.554 39.5573 152.146 39.224 151.849 38.7969C151.557 38.3646 151.411 37.8984 151.411 37.3984H152.856C152.882 37.8828 153.075 38.2682 153.435 38.5547C153.799 38.8359 154.278 38.9766 154.872 38.9766C155.419 38.9766 155.856 38.8672 156.185 38.6484C156.518 38.4245 156.685 38.1276 156.685 37.7578ZM166.747 37.8828L168.716 31.5469H170.263L166.864 41.3047C166.338 42.7109 165.502 43.4141 164.356 43.4141L164.083 43.3906L163.544 43.2891V42.1172L163.935 42.1484C164.424 42.1484 164.804 42.0495 165.075 41.8516C165.351 41.6536 165.578 41.2917 165.755 40.7656L166.075 39.9062L163.06 31.5469H164.638L166.747 37.8828ZM171.052 35.6953C171.052 34.8672 171.213 34.1224 171.536 33.4609C171.864 32.7995 172.317 32.2891 172.896 31.9297C173.479 31.5703 174.143 31.3906 174.888 31.3906C176.039 31.3906 176.968 31.7891 177.677 32.5859C178.39 33.3828 178.747 34.4427 178.747 35.7656V35.8672C178.747 36.6901 178.588 37.4297 178.271 38.0859C177.958 38.737 177.507 39.2448 176.919 39.6094C176.336 39.974 175.664 40.1562 174.903 40.1562C173.757 40.1562 172.828 39.7578 172.114 38.9609C171.406 38.1641 171.052 37.1094 171.052 35.7969V35.6953ZM172.505 35.8672C172.505 36.8047 172.721 37.5573 173.153 38.125C173.591 38.6927 174.174 38.9766 174.903 38.9766C175.638 38.9766 176.221 38.6901 176.653 38.1172C177.086 37.5391 177.302 36.7318 177.302 35.6953C177.302 34.7682 177.08 34.0182 176.638 33.4453C176.2 32.8672 175.617 32.5781 174.888 32.5781C174.174 32.5781 173.599 32.862 173.161 33.4297C172.724 33.9974 172.505 34.8099 172.505 35.8672ZM185.778 39.1641C185.216 39.8255 184.39 40.1562 183.302 40.1562C182.401 40.1562 181.713 39.8958 181.239 39.375C180.771 38.849 180.534 38.0729 180.528 37.0469V31.5469H181.974V37.0078C181.974 38.2891 182.494 38.9297 183.536 38.9297C184.64 38.9297 185.375 38.5182 185.739 37.6953V31.5469H187.185V40H185.81L185.778 39.1641ZM194.724 31.5469L194.771 32.6094C195.416 31.7969 196.26 31.3906 197.302 31.3906C199.088 31.3906 199.989 32.3984 200.005 34.4141V40H198.56V34.4062C198.554 33.7969 198.414 33.3464 198.138 33.0547C197.867 32.763 197.442 32.6172 196.864 32.6172C196.396 32.6172 195.984 32.7422 195.63 32.9922C195.276 33.2422 195 33.5703 194.802 33.9766V40H193.356V31.5469H194.724ZM205.692 40.1562C204.547 40.1562 203.614 39.7812 202.896 39.0312C202.177 38.276 201.817 37.2682 201.817 36.0078V35.7422C201.817 34.9036 201.976 34.1562 202.294 33.5C202.617 32.8385 203.065 32.3229 203.638 31.9531C204.216 31.5781 204.841 31.3906 205.513 31.3906C206.612 31.3906 207.466 31.7526 208.075 32.4766C208.685 33.2005 208.989 34.237 208.989 35.5859V36.1875H203.263C203.284 37.0208 203.526 37.6953 203.989 38.2109C204.458 38.7214 205.052 38.9766 205.771 38.9766C206.281 38.9766 206.713 38.8724 207.067 38.6641C207.422 38.4557 207.731 38.1797 207.997 37.8359L208.88 38.5234C208.172 39.612 207.109 40.1562 205.692 40.1562ZM205.513 32.5781C204.929 32.5781 204.44 32.7917 204.044 33.2188C203.648 33.6406 203.403 34.2344 203.31 35H207.544V34.8906C207.502 34.1562 207.304 33.5885 206.95 33.1875C206.596 32.7812 206.117 32.5781 205.513 32.5781ZM214.177 40.1562C213.031 40.1562 212.099 39.7812 211.38 39.0312C210.661 38.276 210.302 37.2682 210.302 36.0078V35.7422C210.302 34.9036 210.461 34.1562 210.778 33.5C211.101 32.8385 211.549 32.3229 212.122 31.9531C212.7 31.5781 213.325 31.3906 213.997 31.3906C215.096 31.3906 215.95 31.7526 216.56 32.4766C217.169 33.2005 217.474 34.237 217.474 35.5859V36.1875H211.747C211.768 37.0208 212.01 37.6953 212.474 38.2109C212.942 38.7214 213.536 38.9766 214.255 38.9766C214.765 38.9766 215.198 38.8724 215.552 38.6641C215.906 38.4557 216.216 38.1797 216.481 37.8359L217.364 38.5234C216.656 39.612 215.593 40.1562 214.177 40.1562ZM213.997 32.5781C213.414 32.5781 212.924 32.7917 212.528 33.2188C212.132 33.6406 211.888 34.2344 211.794 35H216.028V34.8906C215.987 34.1562 215.789 33.5885 215.435 33.1875C215.08 32.7812 214.601 32.5781 213.997 32.5781ZM218.802 35.7031C218.802 34.4062 219.109 33.3646 219.724 32.5781C220.338 31.7865 221.143 31.3906 222.138 31.3906C223.127 31.3906 223.911 31.7292 224.489 32.4062V28H225.935V40H224.606L224.536 39.0938C223.958 39.8021 223.153 40.1562 222.122 40.1562C221.143 40.1562 220.343 39.7552 219.724 38.9531C219.109 38.151 218.802 37.1042 218.802 35.8125V35.7031ZM220.247 35.8672C220.247 36.8255 220.445 37.5755 220.841 38.1172C221.237 38.6589 221.784 38.9297 222.481 38.9297C223.398 38.9297 224.067 38.5182 224.489 37.6953V33.8125C224.057 33.0156 223.393 32.6172 222.497 32.6172C221.789 32.6172 221.237 32.8906 220.841 33.4375C220.445 33.9844 220.247 34.7943 220.247 35.8672ZM234.114 29.5V31.5469H235.692V32.6641H234.114V37.9062C234.114 38.2448 234.185 38.5 234.325 38.6719C234.466 38.8385 234.705 38.9219 235.044 38.9219C235.211 38.9219 235.44 38.8906 235.731 38.8281V40C235.351 40.1042 234.981 40.1562 234.622 40.1562C233.976 40.1562 233.489 39.9609 233.161 39.5703C232.833 39.1797 232.669 38.625 232.669 37.9062V32.6641H231.13V31.5469H232.669V29.5H234.114ZM236.849 35.6953C236.849 34.8672 237.01 34.1224 237.333 33.4609C237.661 32.7995 238.114 32.2891 238.692 31.9297C239.276 31.5703 239.94 31.3906 240.685 31.3906C241.836 31.3906 242.765 31.7891 243.474 32.5859C244.187 33.3828 244.544 34.4427 244.544 35.7656V35.8672C244.544 36.6901 244.385 37.4297 244.067 38.0859C243.755 38.737 243.304 39.2448 242.716 39.6094C242.132 39.974 241.461 40.1562 240.7 40.1562C239.554 40.1562 238.625 39.7578 237.911 38.9609C237.203 38.1641 236.849 37.1094 236.849 35.7969V35.6953ZM238.302 35.8672C238.302 36.8047 238.518 37.5573 238.95 38.125C239.388 38.6927 239.971 38.9766 240.7 38.9766C241.435 38.9766 242.018 38.6901 242.45 38.1172C242.882 37.5391 243.099 36.7318 243.099 35.6953C243.099 34.7682 242.877 34.0182 242.435 33.4453C241.997 32.8672 241.414 32.5781 240.685 32.5781C239.971 32.5781 239.396 32.862 238.958 33.4297C238.521 33.9974 238.302 34.8099 238.302 35.8672ZM255.247 37.7578C255.247 37.3672 255.099 37.0651 254.802 36.8516C254.51 36.6328 253.997 36.4453 253.263 36.2891C252.534 36.1328 251.953 35.9453 251.521 35.7266C251.093 35.5078 250.776 35.2474 250.567 34.9453C250.364 34.6432 250.263 34.2839 250.263 33.8672C250.263 33.1745 250.554 32.5885 251.138 32.1094C251.726 31.6302 252.476 31.3906 253.388 31.3906C254.346 31.3906 255.122 31.638 255.716 32.1328C256.315 32.6276 256.614 33.2604 256.614 34.0312H255.161C255.161 33.6354 254.992 33.2943 254.653 33.0078C254.32 32.7214 253.898 32.5781 253.388 32.5781C252.862 32.5781 252.45 32.6927 252.153 32.9219C251.856 33.151 251.708 33.4505 251.708 33.8203C251.708 34.1693 251.846 34.4323 252.122 34.6094C252.398 34.7865 252.896 34.9557 253.614 35.1172C254.338 35.2786 254.924 35.4714 255.372 35.6953C255.82 35.9193 256.151 36.1901 256.364 36.5078C256.583 36.8203 256.692 37.2031 256.692 37.6562C256.692 38.4115 256.39 39.0182 255.786 39.4766C255.182 39.9297 254.398 40.1562 253.435 40.1562C252.757 40.1562 252.159 40.0365 251.638 39.7969C251.117 39.5573 250.708 39.224 250.411 38.7969C250.119 38.3646 249.974 37.8984 249.974 37.3984H251.419C251.445 37.8828 251.638 38.2682 251.997 38.5547C252.362 38.8359 252.841 38.9766 253.435 38.9766C253.981 38.9766 254.419 38.8672 254.747 38.6484C255.08 38.4245 255.247 38.1276 255.247 37.7578ZM260.021 32.5703C260.661 31.7839 261.494 31.3906 262.521 31.3906C264.307 31.3906 265.208 32.3984 265.224 34.4141V40H263.778V34.4062C263.773 33.7969 263.632 33.3464 263.356 33.0547C263.086 32.763 262.661 32.6172 262.083 32.6172C261.614 32.6172 261.203 32.7422 260.849 32.9922C260.494 33.2422 260.218 33.5703 260.021 33.9766V40H258.575V28H260.021V32.5703ZM272.606 40C272.523 39.8333 272.455 39.5365 272.403 39.1094C271.731 39.8073 270.929 40.1562 269.997 40.1562C269.164 40.1562 268.479 39.9219 267.942 39.4531C267.411 38.9792 267.146 38.3802 267.146 37.6562C267.146 36.776 267.479 36.0938 268.146 35.6094C268.817 35.1198 269.76 34.875 270.974 34.875H272.38V34.2109C272.38 33.7057 272.229 33.3047 271.927 33.0078C271.625 32.7057 271.179 32.5547 270.591 32.5547C270.075 32.5547 269.643 32.6849 269.294 32.9453C268.945 33.2057 268.771 33.5208 268.771 33.8906H267.317C267.317 33.4688 267.466 33.0625 267.763 32.6719C268.065 32.276 268.471 31.9635 268.981 31.7344C269.497 31.5052 270.062 31.3906 270.677 31.3906C271.651 31.3906 272.414 31.6354 272.966 32.125C273.518 32.6094 273.804 33.2786 273.825 34.1328V38.0234C273.825 38.7995 273.924 39.4167 274.122 39.875V40H272.606ZM270.208 38.8984C270.661 38.8984 271.091 38.7812 271.497 38.5469C271.903 38.3125 272.198 38.0078 272.38 37.6328V35.8984H271.247C269.476 35.8984 268.591 36.4167 268.591 37.4531C268.591 37.9062 268.742 38.2604 269.044 38.5156C269.346 38.7708 269.734 38.8984 270.208 38.8984ZM280.177 32.8438C279.958 32.8073 279.721 32.7891 279.466 32.7891C278.518 32.7891 277.875 33.1927 277.536 34V40H276.091V31.5469H277.497L277.521 32.5234C277.994 31.7682 278.666 31.3906 279.536 31.3906C279.817 31.3906 280.031 31.4271 280.177 31.5V32.8438ZM284.864 40.1562C283.718 40.1562 282.786 39.7812 282.067 39.0312C281.349 38.276 280.989 37.2682 280.989 36.0078V35.7422C280.989 34.9036 281.148 34.1562 281.466 33.5C281.789 32.8385 282.237 32.3229 282.81 31.9531C283.388 31.5781 284.013 31.3906 284.685 31.3906C285.784 31.3906 286.638 31.7526 287.247 32.4766C287.856 33.2005 288.161 34.237 288.161 35.5859V36.1875H282.435C282.455 37.0208 282.698 37.6953 283.161 38.2109C283.63 38.7214 284.224 38.9766 284.942 38.9766C285.453 38.9766 285.885 38.8724 286.239 38.6641C286.593 38.4557 286.903 38.1797 287.169 37.8359L288.052 38.5234C287.343 39.612 286.281 40.1562 284.864 40.1562ZM284.685 32.5781C284.101 32.5781 283.612 32.7917 283.216 33.2188C282.82 33.6406 282.575 34.2344 282.481 35H286.716V34.8906C286.674 34.1562 286.476 33.5885 286.122 33.1875C285.768 32.7812 285.289 32.5781 284.685 32.5781ZM295.771 29.5V31.5469H297.349V32.6641H295.771V37.9062C295.771 38.2448 295.841 38.5 295.981 38.6719C296.122 38.8385 296.362 38.9219 296.7 38.9219C296.867 38.9219 297.096 38.8906 297.388 38.8281V40C297.007 40.1042 296.638 40.1562 296.278 40.1562C295.632 40.1562 295.146 39.9609 294.817 39.5703C294.489 39.1797 294.325 38.625 294.325 37.9062V32.6641H292.786V31.5469H294.325V29.5H295.771ZM300.489 32.5703C301.13 31.7839 301.963 31.3906 302.989 31.3906C304.776 31.3906 305.677 32.3984 305.692 34.4141V40H304.247V34.4062C304.242 33.7969 304.101 33.3464 303.825 33.0547C303.554 32.763 303.13 32.6172 302.552 32.6172C302.083 32.6172 301.672 32.7422 301.317 32.9922C300.963 33.2422 300.687 33.5703 300.489 33.9766V40H299.044V28H300.489V32.5703ZM311.364 40.1562C310.218 40.1562 309.286 39.7812 308.567 39.0312C307.849 38.276 307.489 37.2682 307.489 36.0078V35.7422C307.489 34.9036 307.648 34.1562 307.966 33.5C308.289 32.8385 308.737 32.3229 309.31 31.9531C309.888 31.5781 310.513 31.3906 311.185 31.3906C312.284 31.3906 313.138 31.7526 313.747 32.4766C314.356 33.2005 314.661 34.237 314.661 35.5859V36.1875H308.935C308.955 37.0208 309.198 37.6953 309.661 38.2109C310.13 38.7214 310.724 38.9766 311.442 38.9766C311.953 38.9766 312.385 38.8724 312.739 38.6641C313.093 38.4557 313.403 38.1797 313.669 37.8359L314.552 38.5234C313.843 39.612 312.781 40.1562 311.364 40.1562ZM311.185 32.5781C310.601 32.5781 310.112 32.7917 309.716 33.2188C309.32 33.6406 309.075 34.2344 308.981 35H313.216V34.8906C313.174 34.1562 312.976 33.5885 312.622 33.1875C312.268 32.7812 311.789 32.5781 311.185 32.5781ZM327.466 35.8672C327.466 37.1589 327.169 38.1979 326.575 38.9844C325.981 39.7656 325.185 40.1562 324.185 40.1562C323.117 40.1562 322.291 39.7786 321.708 39.0234L321.638 40H320.31V28H321.755V32.4766C322.338 31.7526 323.143 31.3906 324.169 31.3906C325.195 31.3906 326 31.7786 326.583 32.5547C327.172 33.3307 327.466 34.3932 327.466 35.7422V35.8672ZM326.021 35.7031C326.021 34.7188 325.83 33.9583 325.45 33.4219C325.07 32.8854 324.523 32.6172 323.81 32.6172C322.856 32.6172 322.172 33.0599 321.755 33.9453V37.6016C322.198 38.487 322.888 38.9297 323.825 38.9297C324.518 38.9297 325.057 38.6615 325.442 38.125C325.828 37.5885 326.021 36.7812 326.021 35.7031ZM330.864 40H329.419V31.5469H330.864V40ZM329.302 29.3047C329.302 29.0703 329.372 28.8724 329.513 28.7109C329.659 28.5495 329.872 28.4688 330.153 28.4688C330.435 28.4688 330.648 28.5495 330.794 28.7109C330.94 28.8724 331.013 29.0703 331.013 29.3047C331.013 29.5391 330.94 29.7344 330.794 29.8906C330.648 30.0469 330.435 30.125 330.153 30.125C329.872 30.125 329.659 30.0469 329.513 29.8906C329.372 29.7344 329.302 29.5391 329.302 29.3047ZM334.755 40H333.31V28H334.755V40ZM338.646 40H337.2V28H338.646V40ZM350.153 40C350.07 39.8333 350.002 39.5365 349.95 39.1094C349.278 39.8073 348.476 40.1562 347.544 40.1562C346.711 40.1562 346.026 39.9219 345.489 39.4531C344.958 38.9792 344.692 38.3802 344.692 37.6562C344.692 36.776 345.026 36.0938 345.692 35.6094C346.364 35.1198 347.307 34.875 348.521 34.875H349.927V34.2109C349.927 33.7057 349.776 33.3047 349.474 33.0078C349.172 32.7057 348.726 32.5547 348.138 32.5547C347.622 32.5547 347.19 32.6849 346.841 32.9453C346.492 33.2057 346.317 33.5208 346.317 33.8906H344.864C344.864 33.4688 345.013 33.0625 345.31 32.6719C345.612 32.276 346.018 31.9635 346.528 31.7344C347.044 31.5052 347.609 31.3906 348.224 31.3906C349.198 31.3906 349.961 31.6354 350.513 32.125C351.065 32.6094 351.351 33.2786 351.372 34.1328V38.0234C351.372 38.7995 351.471 39.4167 351.669 39.875V40H350.153ZM347.755 38.8984C348.208 38.8984 348.638 38.7812 349.044 38.5469C349.45 38.3125 349.744 38.0078 349.927 37.6328V35.8984H348.794C347.023 35.8984 346.138 36.4167 346.138 37.4531C346.138 37.9062 346.289 38.2604 346.591 38.5156C346.893 38.7708 347.281 38.8984 347.755 38.8984ZM354.997 31.5469L355.036 32.4844C355.656 31.7552 356.492 31.3906 357.544 31.3906C358.726 31.3906 359.531 31.8438 359.958 32.75C360.239 32.3438 360.604 32.0156 361.052 31.7656C361.505 31.5156 362.039 31.3906 362.653 31.3906C364.507 31.3906 365.45 32.3724 365.481 34.3359V40H364.036V34.4219C364.036 33.8177 363.898 33.3672 363.622 33.0703C363.346 32.7682 362.882 32.6172 362.231 32.6172C361.695 32.6172 361.25 32.7786 360.896 33.1016C360.541 33.4193 360.336 33.849 360.278 34.3906V40H358.825V34.4609C358.825 33.2318 358.224 32.6172 357.021 32.6172C356.073 32.6172 355.424 33.0208 355.075 33.8281V40H353.63V31.5469H354.997ZM367.286 35.6953C367.286 34.8672 367.448 34.1224 367.771 33.4609C368.099 32.7995 368.552 32.2891 369.13 31.9297C369.713 31.5703 370.377 31.3906 371.122 31.3906C372.273 31.3906 373.203 31.7891 373.911 32.5859C374.625 33.3828 374.981 34.4427 374.981 35.7656V35.8672C374.981 36.6901 374.823 37.4297 374.505 38.0859C374.192 38.737 373.742 39.2448 373.153 39.6094C372.57 39.974 371.898 40.1562 371.138 40.1562C369.992 40.1562 369.062 39.7578 368.349 38.9609C367.64 38.1641 367.286 37.1094 367.286 35.7969V35.6953ZM368.739 35.8672C368.739 36.8047 368.955 37.5573 369.388 38.125C369.825 38.6927 370.409 38.9766 371.138 38.9766C371.872 38.9766 372.455 38.6901 372.888 38.1172C373.32 37.5391 373.536 36.7318 373.536 35.6953C373.536 34.7682 373.315 34.0182 372.872 33.4453C372.435 32.8672 371.851 32.5781 371.122 32.5781C370.409 32.5781 369.833 32.862 369.396 33.4297C368.958 33.9974 368.739 34.8099 368.739 35.8672ZM382.013 39.1641C381.45 39.8255 380.625 40.1562 379.536 40.1562C378.635 40.1562 377.948 39.8958 377.474 39.375C377.005 38.849 376.768 38.0729 376.763 37.0469V31.5469H378.208V37.0078C378.208 38.2891 378.729 38.9297 379.771 38.9297C380.875 38.9297 381.609 38.5182 381.974 37.6953V31.5469H383.419V40H382.044L382.013 39.1641ZM386.989 31.5469L387.036 32.6094C387.682 31.7969 388.526 31.3906 389.567 31.3906C391.354 31.3906 392.255 32.3984 392.271 34.4141V40H390.825V34.4062C390.82 33.7969 390.679 33.3464 390.403 33.0547C390.132 32.763 389.708 32.6172 389.13 32.6172C388.661 32.6172 388.25 32.7422 387.896 32.9922C387.541 33.2422 387.265 33.5703 387.067 33.9766V40H385.622V31.5469H386.989ZM396.411 29.5V31.5469H397.989V32.6641H396.411V37.9062C396.411 38.2448 396.481 38.5 396.622 38.6719C396.763 38.8385 397.002 38.9219 397.341 38.9219C397.507 38.9219 397.737 38.8906 398.028 38.8281V40C397.648 40.1042 397.278 40.1562 396.919 40.1562C396.273 40.1562 395.786 39.9609 395.458 39.5703C395.13 39.1797 394.966 38.625 394.966 37.9062V32.6641H393.427V31.5469H394.966V29.5H396.411ZM411.138 38.0078L412.763 31.5469H414.208L411.747 40H410.575L408.521 33.5938L406.521 40H405.349L402.896 31.5469H404.333L405.997 37.875L407.966 31.5469H409.13L411.138 38.0078ZM417.255 40H415.81V31.5469H417.255V40ZM415.692 29.3047C415.692 29.0703 415.763 28.8724 415.903 28.7109C416.049 28.5495 416.263 28.4688 416.544 28.4688C416.825 28.4688 417.039 28.5495 417.185 28.7109C417.33 28.8724 417.403 29.0703 417.403 29.3047C417.403 29.5391 417.33 29.7344 417.185 29.8906C417.039 30.0469 416.825 30.125 416.544 30.125C416.263 30.125 416.049 30.0469 415.903 29.8906C415.763 29.7344 415.692 29.5391 415.692 29.3047ZM421.536 29.5V31.5469H423.114V32.6641H421.536V37.9062C421.536 38.2448 421.606 38.5 421.747 38.6719C421.888 38.8385 422.127 38.9219 422.466 38.9219C422.632 38.9219 422.862 38.8906 423.153 38.8281V40C422.773 40.1042 422.403 40.1562 422.044 40.1562C421.398 40.1562 420.911 39.9609 420.583 39.5703C420.255 39.1797 420.091 38.625 420.091 37.9062V32.6641H418.552V31.5469H420.091V29.5H421.536ZM426.255 32.5703C426.896 31.7839 427.729 31.3906 428.755 31.3906C430.541 31.3906 431.442 32.3984 431.458 34.4141V40H430.013V34.4062C430.007 33.7969 429.867 33.3464 429.591 33.0547C429.32 32.763 428.896 32.6172 428.317 32.6172C427.849 32.6172 427.437 32.7422 427.083 32.9922C426.729 33.2422 426.453 33.5703 426.255 33.9766V40H424.81V28H426.255V32.5703ZM433.653 39.2422C433.653 38.9922 433.726 38.7839 433.872 38.6172C434.023 38.4505 434.247 38.3672 434.544 38.3672C434.841 38.3672 435.065 38.4505 435.216 38.6172C435.372 38.7839 435.45 38.9922 435.45 39.2422C435.45 39.4818 435.372 39.6823 435.216 39.8438C435.065 40.0052 434.841 40.0859 434.544 40.0859C434.247 40.0859 434.023 40.0052 433.872 39.8438C433.726 39.6823 433.653 39.4818 433.653 39.2422Z" fill="#656668"/>
<path d="M27.2865 48H30.2305V24.864H24.2145V27.52H27.2865V48Z" fill="#656668"/>
</svg>
