<svg width="555" height="124" viewBox="0 0 555 124" fill="none" xmlns="http://www.w3.org/2000/svg">
<path d="M175.12 44H178.76V16.12H175.12V28.36H160.92V16.12H157.28V44H160.92V31.36H175.12V44ZM205.736 33C205.736 26.08 200.896 21.72 194.656 21.72C188.456 21.72 183.576 26.08 183.576 33C183.576 39.96 188.296 44.36 194.496 44.36C200.736 44.36 205.736 39.96 205.736 33ZM187.296 33C187.296 27.48 190.776 24.88 194.616 24.88C198.376 24.88 202.016 27.48 202.016 33C202.016 38.56 198.296 41.16 194.496 41.16C190.696 41.16 187.296 38.56 187.296 33ZM214.802 44H218.562L223.842 26.6L229.122 44H232.882L239.722 22.08H236.122L231.162 40.52L225.842 22.08H222.122L216.682 40.48L211.642 22.08H207.922L214.802 44ZM253.999 44H257.639V22.08H253.999V44ZM255.879 18.52C257.199 18.52 258.279 17.44 258.279 16.04C258.279 14.64 257.199 13.56 255.879 13.56C254.479 13.56 253.399 14.64 253.399 16.04C253.399 17.44 254.479 18.52 255.879 18.52ZM264.643 38C264.643 42.4 266.843 44 270.723 44H274.003V40.92H271.323C269.083 40.92 268.283 40.16 268.283 38V25.08H274.003V22.08H268.283V16.56H264.643V22.08H261.803V25.08H264.643V38ZM293.357 44H297.117L302.397 26.6L307.677 44H311.437L318.277 22.08H314.677L309.717 40.52L304.397 22.08H300.677L295.237 40.48L290.197 22.08H286.477L293.357 44ZM342.69 33C342.69 26.08 337.85 21.72 331.61 21.72C325.41 21.72 320.53 26.08 320.53 33C320.53 39.96 325.25 44.36 331.45 44.36C337.69 44.36 342.69 39.96 342.69 33ZM324.25 33C324.25 27.48 327.73 24.88 331.57 24.88C335.33 24.88 338.97 27.48 338.97 33C338.97 38.56 335.25 41.16 331.45 41.16C327.65 41.16 324.25 38.56 324.25 33ZM351.116 32.08C351.116 27 353.756 25.44 357.236 25.44H358.196V21.68C354.716 21.68 352.356 23.2 351.116 25.64V22.08H347.476V44H351.116V32.08ZM362.397 44H366.037V34.32L374.637 44H379.597L369.237 33L379.557 22.08H374.477L366.037 31.8V14.4H362.397V44ZM398.743 38.04C398.583 30.2 385.863 33.04 385.863 27.84C385.863 26.08 387.463 24.8 390.143 24.8C393.063 24.8 394.743 26.4 394.903 28.6H398.543C398.303 24.32 395.103 21.72 390.263 21.72C385.383 21.72 382.223 24.48 382.223 27.84C382.223 36 395.183 33.16 395.183 38.04C395.183 39.84 393.583 41.28 390.703 41.28C387.623 41.28 385.743 39.68 385.543 37.56H381.783C382.023 41.56 385.623 44.36 390.743 44.36C395.583 44.36 398.743 41.64 398.743 38.04Z" fill="#2B334E"/>
<path d="M1.30616 109.416C1.30616 112.76 3.75416 115.096 6.87416 115.096C9.29016 115.096 11.2102 113.896 12.0422 111.752H10.2982C9.69016 113.08 8.50616 113.832 6.87416 113.832C4.53816 113.832 2.79416 112.136 2.79416 109.416C2.79416 106.68 4.53816 104.984 6.87416 104.984C8.50616 104.984 9.69016 105.736 10.2982 107.08H12.0422C11.2102 104.92 9.29016 103.704 6.87416 103.704C3.75416 103.704 1.30616 106.072 1.30616 109.416ZM22.5295 110.6C22.5295 107.832 20.5935 106.088 18.0975 106.088C15.6175 106.088 13.6655 107.832 13.6655 110.6C13.6655 113.384 15.5535 115.144 18.0335 115.144C20.5295 115.144 22.5295 113.384 22.5295 110.6ZM15.1535 110.6C15.1535 108.392 16.5455 107.352 18.0815 107.352C19.5855 107.352 21.0415 108.392 21.0415 110.6C21.0415 112.824 19.5535 113.864 18.0335 113.864C16.5135 113.864 15.1535 112.824 15.1535 110.6ZM30.8599 115H32.2999V109.832C32.2999 107.32 30.7479 106.072 28.7159 106.072C27.5319 106.072 26.4759 106.568 25.8999 107.48V106.232H24.4439V115H25.8999V110.152C25.8999 108.264 26.9239 107.336 28.4119 107.336C29.8839 107.336 30.8599 108.248 30.8599 110.04V115ZM40.9823 112.616C40.9183 109.48 35.8303 110.616 35.8303 108.536C35.8303 107.832 36.4703 107.32 37.5423 107.32C38.7103 107.32 39.3823 107.96 39.4463 108.84H40.9023C40.8063 107.128 39.5263 106.088 37.5903 106.088C35.6383 106.088 34.3743 107.192 34.3743 108.536C34.3743 111.8 39.5583 110.664 39.5583 112.616C39.5583 113.336 38.9183 113.912 37.7663 113.912C36.5343 113.912 35.7823 113.272 35.7023 112.424H34.1983C34.2943 114.024 35.7343 115.144 37.7823 115.144C39.7183 115.144 40.9823 114.056 40.9823 112.616ZM50.8137 106.232H49.3577V111.048C49.3577 112.936 48.3497 113.864 46.8457 113.864C45.3737 113.864 44.3977 112.952 44.3977 111.176V106.232H42.9577V111.368C42.9577 113.88 44.5417 115.128 46.5577 115.128C47.7257 115.128 48.7977 114.616 49.3577 113.704V115H50.8137V106.232ZM65.928 115H67.368V109.832C67.368 107.32 65.816 106.072 63.816 106.072C62.472 106.072 61.224 106.76 60.712 108.024C60.136 106.712 58.936 106.072 57.496 106.072C56.344 106.072 55.304 106.568 54.728 107.496V106.232H53.272V115H54.728V110.168C54.728 108.28 55.736 107.336 57.208 107.336C58.648 107.336 59.608 108.248 59.608 110.04V115H61.048V110.168C61.048 108.28 62.056 107.336 63.528 107.336C64.968 107.336 65.928 108.248 65.928 110.04V115ZM73.4844 107.32C74.9884 107.32 76.2684 108.264 76.2524 109.976H70.7164C70.8764 108.264 72.0604 107.32 73.4844 107.32ZM77.5804 112.296H76.0124C75.6924 113.24 74.8604 113.912 73.5484 113.912C72.0604 113.912 70.8124 112.936 70.7004 111.16H77.7084C77.7404 110.856 77.7564 110.6 77.7564 110.28C77.7564 107.88 76.0924 106.088 73.5484 106.088C70.9884 106.088 69.2124 107.832 69.2124 110.6C69.2124 113.384 71.0524 115.144 73.5484 115.144C75.7244 115.144 77.1324 113.896 77.5804 112.296ZM81.1343 110.232C81.1343 108.2 82.1903 107.576 83.5823 107.576H83.9663V106.072C82.5743 106.072 81.6303 106.68 81.1343 107.656V106.232H79.6783V115H81.1343V110.232ZM89.3687 110.6C89.3687 113.384 91.1447 115.144 93.6407 115.144C95.8167 115.144 97.2407 113.928 97.6887 112.184H96.1207C95.8007 113.288 94.9367 113.912 93.6407 113.912C92.0407 113.912 90.8567 112.776 90.8567 110.6C90.8567 108.456 92.0407 107.32 93.6407 107.32C94.9367 107.32 95.8167 107.992 96.1207 109.048H97.6887C97.2407 107.208 95.8167 106.088 93.6407 106.088C91.1447 106.088 89.3687 107.848 89.3687 110.6ZM99.0874 110.584C99.0874 113.304 100.895 115.144 103.231 115.144C104.847 115.144 105.983 114.312 106.511 113.368V115H107.983V106.232H106.511V107.832C105.999 106.92 104.879 106.088 103.247 106.088C100.895 106.088 99.0874 107.848 99.0874 110.584ZM106.511 110.6C106.511 112.664 105.135 113.864 103.535 113.864C101.935 113.864 100.575 112.648 100.575 110.584C100.575 108.52 101.935 107.352 103.535 107.352C105.135 107.352 106.511 108.568 106.511 110.6ZM116.86 115H118.3V109.832C118.3 107.32 116.748 106.072 114.716 106.072C113.532 106.072 112.476 106.568 111.9 107.48V106.232H110.444V115H111.9V110.152C111.9 108.264 112.924 107.336 114.412 107.336C115.884 107.336 116.86 108.248 116.86 110.04V115ZM131.36 115H132.8V109.832C132.8 107.32 131.248 106.072 129.216 106.072C128.032 106.072 126.976 106.568 126.4 107.48V106.232H124.944V115H126.4V110.152C126.4 108.264 127.424 107.336 128.912 107.336C130.384 107.336 131.36 108.248 131.36 110.04V115ZM143.498 110.6C143.498 107.832 141.562 106.088 139.066 106.088C136.586 106.088 134.634 107.832 134.634 110.6C134.634 113.384 136.522 115.144 139.002 115.144C141.498 115.144 143.498 113.384 143.498 110.6ZM136.122 110.6C136.122 108.392 137.514 107.352 139.05 107.352C140.554 107.352 142.01 108.392 142.01 110.6C142.01 112.824 140.522 113.864 139.002 113.864C137.482 113.864 136.122 112.824 136.122 110.6ZM147.125 115H148.629L150.741 108.04L152.853 115H154.357L157.093 106.232H155.653L153.669 113.608L151.541 106.232H150.053L147.877 113.592L145.861 106.232H144.373L147.125 115ZM169.107 112.616C169.043 109.48 163.955 110.616 163.955 108.536C163.955 107.832 164.595 107.32 165.667 107.32C166.835 107.32 167.507 107.96 167.571 108.84H169.027C168.931 107.128 167.651 106.088 165.715 106.088C163.763 106.088 162.499 107.192 162.499 108.536C162.499 111.8 167.683 110.664 167.683 112.616C167.683 113.336 167.043 113.912 165.891 113.912C164.659 113.912 163.907 113.272 163.827 112.424H162.323C162.419 114.024 163.859 115.144 165.907 115.144C167.843 115.144 169.107 114.056 169.107 112.616ZM172.619 107.848V106.232H171.163V119.16H172.619V113.384C173.163 114.28 174.299 115.144 175.899 115.144C178.251 115.144 180.059 113.304 180.059 110.584C180.059 107.848 178.251 106.088 175.899 106.088C174.299 106.088 173.147 106.92 172.619 107.848ZM178.571 110.584C178.571 112.648 177.211 113.864 175.595 113.864C174.011 113.864 172.619 112.664 172.619 110.6C172.619 108.568 174.011 107.352 175.595 107.352C177.211 107.352 178.571 108.52 178.571 110.584ZM181.975 115H183.431V103.16H181.975V115ZM185.913 115H187.369V106.232H185.913V115ZM186.665 104.808C187.193 104.808 187.625 104.376 187.625 103.816C187.625 103.256 187.193 102.824 186.665 102.824C186.105 102.824 185.673 103.256 185.673 103.816C185.673 104.376 186.105 104.808 186.665 104.808ZM190.17 112.6C190.17 114.36 191.05 115 192.602 115H193.914V113.768H192.842C191.946 113.768 191.626 113.464 191.626 112.6V107.432H193.914V106.232H191.626V104.024H190.17V106.232H189.034V107.432H190.17V112.6ZM203.272 113.336L200.52 106.232H198.904L202.44 114.904L200.712 119.128H202.216L207.496 106.232H205.992L203.272 113.336ZM217.28 110.6C217.28 107.832 215.344 106.088 212.848 106.088C210.368 106.088 208.416 107.832 208.416 110.6C208.416 113.384 210.304 115.144 212.784 115.144C215.28 115.144 217.28 113.384 217.28 110.6ZM209.904 110.6C209.904 108.392 211.296 107.352 212.832 107.352C214.336 107.352 215.792 108.392 215.792 110.6C215.792 112.824 214.304 113.864 212.784 113.864C211.264 113.864 209.904 112.824 209.904 110.6ZM226.97 106.232H225.514V111.048C225.514 112.936 224.506 113.864 223.002 113.864C221.53 113.864 220.554 112.952 220.554 111.176V106.232H219.114V111.368C219.114 113.88 220.698 115.128 222.714 115.128C223.882 115.128 224.954 114.616 225.514 113.704V115H226.97V106.232ZM230.884 110.232C230.884 108.2 231.94 107.576 233.332 107.576H233.716V106.072C232.324 106.072 231.38 106.68 230.884 107.656V106.232H229.428V115H230.884V110.232ZM241.119 107.864V103.16H239.663V115H241.119V113.384C241.663 114.344 242.799 115.144 244.399 115.144C246.751 115.144 248.559 113.304 248.559 110.584C248.559 107.848 246.767 106.088 244.399 106.088C242.847 106.088 241.679 106.888 241.119 107.864ZM247.071 110.584C247.071 112.648 245.711 113.864 244.095 113.864C242.511 113.864 241.119 112.664 241.119 110.6C241.119 108.568 242.511 107.352 244.095 107.352C245.711 107.352 247.071 108.52 247.071 110.584ZM250.475 115H251.931V106.232H250.475V115ZM251.227 104.808C251.755 104.808 252.187 104.376 252.187 103.816C252.187 103.256 251.755 102.824 251.227 102.824C250.667 102.824 250.235 103.256 250.235 103.816C250.235 104.376 250.667 104.808 251.227 104.808ZM254.413 115H255.869V103.16H254.413V115ZM258.35 115H259.806V103.16H258.35V115ZM268.592 112.616C268.528 109.48 263.44 110.616 263.44 108.536C263.44 107.832 264.08 107.32 265.152 107.32C266.32 107.32 266.992 107.96 267.056 108.84H268.512C268.416 107.128 267.136 106.088 265.2 106.088C263.248 106.088 261.984 107.192 261.984 108.536C261.984 111.8 267.168 110.664 267.168 112.616C267.168 113.336 266.528 113.912 265.376 113.912C264.144 113.912 263.392 113.272 263.312 112.424H261.808C261.904 114.024 263.344 115.144 265.392 115.144C267.328 115.144 268.592 114.056 268.592 112.616ZM276.625 115H278.129L280.241 108.04L282.353 115H283.857L286.593 106.232H285.153L283.169 113.608L281.041 106.232H279.553L277.377 113.592L275.361 106.232H273.873L276.625 115ZM288.038 115H289.494V106.232H288.038V115ZM288.79 104.808C289.318 104.808 289.75 104.376 289.75 103.816C289.75 103.256 289.318 102.824 288.79 102.824C288.23 102.824 287.798 103.256 287.798 103.816C287.798 104.376 288.23 104.808 288.79 104.808ZM292.295 112.6C292.295 114.36 293.175 115 294.727 115H296.039V113.768H294.967C294.071 113.768 293.751 113.464 293.751 112.6V107.432H296.039V106.232H293.751V104.024H292.295V106.232H291.159V107.432H292.295V112.6ZM297.803 115H299.259V110.152C299.259 108.264 300.283 107.336 301.771 107.336C303.243 107.336 304.219 108.248 304.219 110.04V115H305.659V109.832C305.659 107.32 304.107 106.072 302.155 106.072C300.923 106.072 299.835 106.568 299.259 107.496V103.16H297.803V115ZM315.631 113.336L312.879 106.232H311.263L314.799 114.904L313.071 119.128H314.575L319.855 106.232H318.351L315.631 113.336ZM329.639 110.6C329.639 107.832 327.703 106.088 325.207 106.088C322.727 106.088 320.775 107.832 320.775 110.6C320.775 113.384 322.663 115.144 325.143 115.144C327.639 115.144 329.639 113.384 329.639 110.6ZM322.263 110.6C322.263 108.392 323.655 107.352 325.191 107.352C326.695 107.352 328.151 108.392 328.151 110.6C328.151 112.824 326.663 113.864 325.143 113.864C323.623 113.864 322.263 112.824 322.263 110.6ZM339.329 106.232H337.873V111.048C337.873 112.936 336.865 113.864 335.361 113.864C333.889 113.864 332.913 112.952 332.913 111.176V106.232H331.473V111.368C331.473 113.88 333.057 115.128 335.073 115.128C336.241 115.128 337.313 114.616 337.873 113.704V115H339.329V106.232ZM343.244 110.232C343.244 108.2 344.3 107.576 345.692 107.576H346.076V106.072C344.684 106.072 343.74 106.68 343.244 107.656V106.232H341.788V115H343.244V110.232ZM352.294 115H353.75V107.432H355.59V106.232H353.75V105.608C353.75 104.472 354.182 103.992 355.494 103.992V102.776C353.254 102.776 352.294 103.656 352.294 105.608V106.232H351.158V107.432H352.294V115ZM358.744 110.232C358.744 108.2 359.8 107.576 361.192 107.576H361.576V106.072C360.184 106.072 359.24 106.68 358.744 107.656V106.232H357.288V115H358.744V110.232ZM363.256 115H364.712V106.232H363.256V115ZM364.008 104.808C364.536 104.808 364.968 104.376 364.968 103.816C364.968 103.256 364.536 102.824 364.008 102.824C363.448 102.824 363.016 103.256 363.016 103.816C363.016 104.376 363.448 104.808 364.008 104.808ZM370.922 107.32C372.426 107.32 373.706 108.264 373.69 109.976H368.154C368.314 108.264 369.498 107.32 370.922 107.32ZM375.018 112.296H373.45C373.13 113.24 372.298 113.912 370.986 113.912C369.498 113.912 368.25 112.936 368.138 111.16H375.146C375.178 110.856 375.194 110.6 375.194 110.28C375.194 107.88 373.53 106.088 370.986 106.088C368.426 106.088 366.65 107.832 366.65 110.6C366.65 113.384 368.49 115.144 370.986 115.144C373.162 115.144 374.57 113.896 375.018 112.296ZM383.532 115H384.972V109.832C384.972 107.32 383.42 106.072 381.388 106.072C380.204 106.072 379.148 106.568 378.572 107.48V106.232H377.116V115H378.572V110.152C378.572 108.264 379.596 107.336 381.084 107.336C382.556 107.336 383.532 108.248 383.532 110.04V115ZM386.806 110.584C386.806 113.304 388.614 115.144 390.966 115.144C392.566 115.144 393.702 114.328 394.23 113.352V115H395.702V103.16H394.23V107.8C393.622 106.792 392.358 106.088 390.982 106.088C388.614 106.088 386.806 107.848 386.806 110.584ZM394.23 110.6C394.23 112.664 392.854 113.864 391.254 113.864C389.654 113.864 388.294 112.648 388.294 110.584C388.294 108.52 389.654 107.352 391.254 107.352C392.854 107.352 394.23 108.568 394.23 110.6ZM404.467 112.616C404.403 109.48 399.315 110.616 399.315 108.536C399.315 107.832 399.955 107.32 401.027 107.32C402.195 107.32 402.867 107.96 402.931 108.84H404.387C404.291 107.128 403.011 106.088 401.075 106.088C399.123 106.088 397.859 107.192 397.859 108.536C397.859 111.8 403.043 110.664 403.043 112.616C403.043 113.336 402.403 113.912 401.251 113.912C400.019 113.912 399.267 113.272 399.187 112.424H397.683C397.779 114.024 399.219 115.144 401.267 115.144C403.203 115.144 404.467 114.056 404.467 112.616ZM414.516 107.32C416.02 107.32 417.3 108.264 417.284 109.976H411.748C411.908 108.264 413.092 107.32 414.516 107.32ZM418.612 112.296H417.044C416.724 113.24 415.892 113.912 414.58 113.912C413.092 113.912 411.844 112.936 411.732 111.16H418.74C418.772 110.856 418.788 110.6 418.788 110.28C418.788 107.88 417.124 106.088 414.58 106.088C412.02 106.088 410.244 107.832 410.244 110.6C410.244 113.384 412.084 115.144 414.58 115.144C416.756 115.144 418.164 113.896 418.612 112.296ZM419.67 106.232L423.11 115H424.806L428.246 106.232H426.694L423.974 113.656L421.238 106.232H419.67ZM433.406 107.32C434.91 107.32 436.19 108.264 436.174 109.976H430.638C430.798 108.264 431.982 107.32 433.406 107.32ZM437.502 112.296H435.934C435.614 113.24 434.782 113.912 433.47 113.912C431.982 113.912 430.734 112.936 430.622 111.16H437.63C437.662 110.856 437.678 110.6 437.678 110.28C437.678 107.88 436.014 106.088 433.47 106.088C430.91 106.088 429.134 107.832 429.134 110.6C429.134 113.384 430.974 115.144 433.47 115.144C435.646 115.144 437.054 113.896 437.502 112.296ZM446.016 115H447.456V109.832C447.456 107.32 445.904 106.072 443.872 106.072C442.688 106.072 441.632 106.568 441.056 107.48V106.232H439.6V115H441.056V110.152C441.056 108.264 442.08 107.336 443.568 107.336C445.04 107.336 446.016 108.248 446.016 110.04V115ZM449.835 115H451.291V103.16H449.835V115ZM457.1 113.336L454.348 106.232H452.732L456.268 114.904L454.54 119.128H456.044L461.324 106.232H459.82L457.1 113.336ZM473.773 106.232C473.853 104.744 472.781 103.624 471.021 103.624C469.213 103.624 468.077 104.68 468.077 106.104C468.077 106.92 468.349 107.544 469.037 108.344C467.293 109.032 466.413 110.264 466.413 111.8C466.413 113.864 467.997 115.192 470.317 115.192C471.885 115.192 473.085 114.648 474.157 113.528L475.613 115H477.517L475.005 112.488C475.229 112.168 475.437 111.848 475.645 111.48L476.957 109.208H475.389L474.301 111.032C474.205 111.192 474.109 111.336 474.013 111.48L470.685 108.136C469.901 107.304 469.533 106.76 469.533 106.104C469.533 105.368 470.093 104.824 470.957 104.824C471.741 104.824 472.349 105.32 472.317 106.232H473.773ZM470.317 113.944C468.861 113.944 467.869 113 467.869 111.752C467.869 110.632 468.525 109.8 469.917 109.272L473.197 112.568C472.365 113.496 471.469 113.944 470.317 113.944ZM490.923 106.232H489.467V111.048C489.467 112.936 488.459 113.864 486.955 113.864C485.483 113.864 484.507 112.952 484.507 111.176V106.232H483.067V111.368C483.067 113.88 484.651 115.128 486.667 115.128C487.835 115.128 488.907 114.616 489.467 113.704V115H490.923V106.232ZM499.797 115H501.237V109.832C501.237 107.32 499.685 106.072 497.653 106.072C496.469 106.072 495.413 106.568 494.837 107.48V106.232H493.381V115H494.837V110.152C494.837 108.264 495.861 107.336 497.349 107.336C498.821 107.336 499.797 108.248 499.797 110.04V115ZM507.344 107.32C508.848 107.32 510.128 108.264 510.112 109.976H504.576C504.736 108.264 505.92 107.32 507.344 107.32ZM511.44 112.296H509.872C509.552 113.24 508.72 113.912 507.408 113.912C505.92 113.912 504.672 112.936 504.56 111.16H511.568C511.6 110.856 511.616 110.6 511.616 110.28C511.616 107.88 509.952 106.088 507.408 106.088C504.848 106.088 503.072 107.832 503.072 110.6C503.072 113.384 504.912 115.144 507.408 115.144C509.584 115.144 510.992 113.896 511.44 112.296ZM512.498 106.232L515.938 115H517.634L521.074 106.232H519.522L516.802 113.656L514.066 106.232H512.498ZM526.234 107.32C527.738 107.32 529.018 108.264 529.002 109.976H523.466C523.626 108.264 524.81 107.32 526.234 107.32ZM530.33 112.296H528.762C528.442 113.24 527.61 113.912 526.298 113.912C524.81 113.912 523.562 112.936 523.45 111.16H530.458C530.49 110.856 530.506 110.6 530.506 110.28C530.506 107.88 528.842 106.088 526.298 106.088C523.738 106.088 521.962 107.832 521.962 110.6C521.962 113.384 523.802 115.144 526.298 115.144C528.474 115.144 529.882 113.896 530.33 112.296ZM538.844 115H540.284V109.832C540.284 107.32 538.732 106.072 536.7 106.072C535.516 106.072 534.46 106.568 533.884 107.48V106.232H532.428V115H533.884V110.152C533.884 108.264 534.908 107.336 536.396 107.336C537.868 107.336 538.844 108.248 538.844 110.04V115ZM542.663 115H544.119V103.16H542.663V115ZM549.928 113.336L547.176 106.232H545.56L549.096 114.904L547.368 119.128H548.872L554.152 106.232H552.648L549.928 113.336Z" fill="#656668"/>
</svg>
