<svg width="220" height="360" viewBox="0 0 220 360" fill="none" xmlns="http://www.w3.org/2000/svg">
<path d="M6.11466 247.32C6.11466 250.037 8.10366 251.935 10.6387 251.935C12.6017 251.935 14.1617 250.96 14.8377 249.218H13.4207C12.9267 250.297 11.9647 250.908 10.6387 250.908C8.74066 250.908 7.32366 249.53 7.32366 247.32C7.32366 245.097 8.74066 243.719 10.6387 243.719C11.9647 243.719 12.9267 244.33 13.4207 245.422H14.8377C14.1617 243.667 12.6017 242.679 10.6387 242.679C8.10366 242.679 6.11466 244.603 6.11466 247.32ZM23.3587 248.282C23.3587 246.033 21.7857 244.616 19.7577 244.616C17.7427 244.616 16.1567 246.033 16.1567 248.282C16.1567 250.544 17.6907 251.974 19.7057 251.974C21.7337 251.974 23.3587 250.544 23.3587 248.282ZM17.3657 248.282C17.3657 246.488 18.4967 245.643 19.7447 245.643C20.9667 245.643 22.1497 246.488 22.1497 248.282C22.1497 250.089 20.9407 250.934 19.7057 250.934C18.4707 250.934 17.3657 250.089 17.3657 248.282ZM30.1271 251.857H31.2971V247.658C31.2971 245.617 30.0361 244.603 28.3851 244.603C27.4231 244.603 26.5651 245.006 26.0971 245.747V244.733H24.9141V251.857H26.0971V247.918C26.0971 246.384 26.9291 245.63 28.1381 245.63C29.3341 245.63 30.1271 246.371 30.1271 247.827V251.857ZM38.3515 249.92C38.2995 247.372 34.1655 248.295 34.1655 246.605C34.1655 246.033 34.6855 245.617 35.5565 245.617C36.5055 245.617 37.0515 246.137 37.1035 246.852H38.2865C38.2085 245.461 37.1685 244.616 35.5955 244.616C34.0095 244.616 32.9825 245.513 32.9825 246.605C32.9825 249.257 37.1945 248.334 37.1945 249.92C37.1945 250.505 36.6745 250.973 35.7385 250.973C34.7375 250.973 34.1265 250.453 34.0615 249.764H32.8395C32.9175 251.064 34.0875 251.974 35.7515 251.974C37.3245 251.974 38.3515 251.09 38.3515 249.92ZM46.3395 244.733H45.1565V248.646C45.1565 250.18 44.3375 250.934 43.1155 250.934C41.9195 250.934 41.1265 250.193 41.1265 248.75V244.733H39.9565V248.906C39.9565 250.947 41.2435 251.961 42.8815 251.961C43.8305 251.961 44.7015 251.545 45.1565 250.804V251.857H46.3395V244.733ZM58.6199 251.857H59.7899V247.658C59.7899 245.617 58.5289 244.603 56.9039 244.603C55.8119 244.603 54.7979 245.162 54.3819 246.189C53.9139 245.123 52.9389 244.603 51.7689 244.603C50.8329 244.603 49.9879 245.006 49.5199 245.76V244.733H48.3369V251.857H49.5199V247.931C49.5199 246.397 50.3389 245.63 51.5349 245.63C52.7049 245.63 53.4849 246.371 53.4849 247.827V251.857H54.6549V247.931C54.6549 246.397 55.4739 245.63 56.6699 245.63C57.8399 245.63 58.6199 246.371 58.6199 247.827V251.857ZM64.7595 245.617C65.9815 245.617 67.0215 246.384 67.0085 247.775H62.5105C62.6405 246.384 63.6025 245.617 64.7595 245.617ZM68.0875 249.66H66.8135C66.5535 250.427 65.8775 250.973 64.8115 250.973C63.6025 250.973 62.5885 250.18 62.4975 248.737H68.1915C68.2175 248.49 68.2305 248.282 68.2305 248.022C68.2305 246.072 66.8785 244.616 64.8115 244.616C62.7315 244.616 61.2885 246.033 61.2885 248.282C61.2885 250.544 62.7835 251.974 64.8115 251.974C66.5795 251.974 67.7235 250.96 68.0875 249.66ZM70.975 247.983C70.975 246.332 71.833 245.825 72.964 245.825H73.276V244.603C72.145 244.603 71.378 245.097 70.975 245.89V244.733H69.792V251.857H70.975V247.983ZM79.4984 251.857H80.7204L82.4364 246.202L84.1524 251.857H85.3744L87.5974 244.733H86.4274L84.8154 250.726L83.0864 244.733H81.8774L80.1094 250.713L78.4714 244.733H77.2624L79.4984 251.857ZM88.7715 251.857H89.9545V244.733H88.7715V251.857ZM89.3825 243.576C89.8115 243.576 90.1625 243.225 90.1625 242.77C90.1625 242.315 89.8115 241.964 89.3825 241.964C88.9275 241.964 88.5765 242.315 88.5765 242.77C88.5765 243.225 88.9275 243.576 89.3825 243.576ZM91.9707 251.857H93.1537V242.237H91.9707V251.857ZM95.1699 251.857H96.3529V242.237H95.1699V251.857ZM106.957 249.92C106.905 247.372 102.771 248.295 102.771 246.605C102.771 246.033 103.291 245.617 104.162 245.617C105.111 245.617 105.657 246.137 105.709 246.852H106.892C106.814 245.461 105.774 244.616 104.201 244.616C102.615 244.616 101.588 245.513 101.588 246.605C101.588 249.257 105.8 248.334 105.8 249.92C105.8 250.505 105.28 250.973 104.344 250.973C103.343 250.973 102.732 250.453 102.667 249.764H101.445C101.523 251.064 102.693 251.974 104.357 251.974C105.93 251.974 106.957 251.09 106.957 249.92ZM108.627 251.857H109.81V247.918C109.81 246.384 110.642 245.63 111.851 245.63C113.047 245.63 113.84 246.371 113.84 247.827V251.857H115.01V247.658C115.01 245.617 113.749 244.603 112.163 244.603C111.162 244.603 110.278 245.006 109.81 245.76V242.237H108.627V251.857ZM116.5 248.269C116.5 250.479 117.969 251.974 119.867 251.974C121.18 251.974 122.103 251.298 122.532 250.531V251.857H123.728V244.733H122.532V246.033C122.116 245.292 121.206 244.616 119.88 244.616C117.969 244.616 116.5 246.046 116.5 248.269ZM122.532 248.282C122.532 249.959 121.414 250.934 120.114 250.934C118.814 250.934 117.709 249.946 117.709 248.269C117.709 246.592 118.814 245.643 120.114 245.643C121.414 245.643 122.532 246.631 122.532 248.282ZM126.911 247.983C126.911 246.332 127.769 245.825 128.9 245.825H129.212V244.603C128.081 244.603 127.314 245.097 126.911 245.89V244.733H125.728V251.857H126.911V247.983ZM133.606 245.617C134.828 245.617 135.868 246.384 135.855 247.775H131.357C131.487 246.384 132.449 245.617 133.606 245.617ZM136.934 249.66H135.66C135.4 250.427 134.724 250.973 133.658 250.973C132.449 250.973 131.435 250.18 131.344 248.737H137.038C137.064 248.49 137.077 248.282 137.077 248.022C137.077 246.072 135.725 244.616 133.658 244.616C131.578 244.616 130.135 246.033 130.135 248.282C130.135 250.544 131.63 251.974 133.658 251.974C135.426 251.974 136.57 250.96 136.934 249.66ZM142.365 249.907C142.365 251.337 143.08 251.857 144.341 251.857H145.407V250.856H144.536C143.808 250.856 143.548 250.609 143.548 249.907V245.708H145.407V244.733H143.548V242.939H142.365V244.733H141.442V245.708H142.365V249.907ZM146.84 251.857H148.023V247.918C148.023 246.384 148.855 245.63 150.064 245.63C151.26 245.63 152.053 246.371 152.053 247.827V251.857H153.223V247.658C153.223 245.617 151.962 244.603 150.376 244.603C149.375 244.603 148.491 245.006 148.023 245.76V242.237H146.84V251.857ZM158.184 245.617C159.406 245.617 160.446 246.384 160.433 247.775H155.935C156.065 246.384 157.027 245.617 158.184 245.617ZM161.512 249.66H160.238C159.978 250.427 159.302 250.973 158.236 250.973C157.027 250.973 156.013 250.18 155.922 248.737H161.616C161.642 248.49 161.655 248.282 161.655 248.022C161.655 246.072 160.303 244.616 158.236 244.616C156.156 244.616 154.713 246.033 154.713 248.282C154.713 250.544 156.208 251.974 158.236 251.974C160.004 251.974 161.148 250.96 161.512 249.66ZM167.866 246.059V242.237H166.683V251.857H167.866V250.544C168.308 251.324 169.231 251.974 170.531 251.974C172.442 251.974 173.911 250.479 173.911 248.269C173.911 246.046 172.455 244.616 170.531 244.616C169.27 244.616 168.321 245.266 167.866 246.059ZM172.702 248.269C172.702 249.946 171.597 250.934 170.284 250.934C168.997 250.934 167.866 249.959 167.866 248.282C167.866 246.631 168.997 245.643 170.284 245.643C171.597 245.643 172.702 246.592 172.702 248.269ZM175.468 251.857H176.651V244.733H175.468V251.857ZM176.079 243.576C176.508 243.576 176.859 243.225 176.859 242.77C176.859 242.315 176.508 241.964 176.079 241.964C175.624 241.964 175.273 242.315 175.273 242.77C175.273 243.225 175.624 243.576 176.079 243.576ZM178.667 251.857H179.85V242.237H178.667V251.857ZM181.866 251.857H183.049V242.237H181.866V251.857ZM189.922 251.857H191.144L192.86 246.202L194.576 251.857H195.798L198.021 244.733H196.851L195.239 250.726L193.51 244.733H192.301L190.533 250.713L188.895 244.733H187.686L189.922 251.857ZM199.195 251.857H200.378V244.733H199.195V251.857ZM199.806 243.576C200.235 243.576 200.586 243.225 200.586 242.77C200.586 242.315 200.235 241.964 199.806 241.964C199.351 241.964 199 242.315 199 242.77C199 243.225 199.351 243.576 199.806 243.576ZM202.655 249.907C202.655 251.337 203.37 251.857 204.631 251.857H205.697V250.856H204.826C204.098 250.856 203.838 250.609 203.838 249.907V245.708H205.697V244.733H203.838V242.939H202.655V244.733H201.732V245.708H202.655V249.907ZM207.13 251.857H208.313V247.918C208.313 246.384 209.145 245.63 210.354 245.63C211.55 245.63 212.343 246.371 212.343 247.827V251.857H213.513V247.658C213.513 245.617 212.252 244.603 210.666 244.603C209.665 244.603 208.781 245.006 208.313 245.76V242.237H207.13V251.857ZM76.5142 271.857H77.6972V267.918C77.6972 266.384 78.5292 265.63 79.7382 265.63C80.9342 265.63 81.7272 266.371 81.7272 267.827V271.857H82.8972V267.658C82.8972 265.617 81.6362 264.603 80.0502 264.603C79.0492 264.603 78.1652 265.006 77.6972 265.76V262.237H76.5142V271.857ZM87.8586 265.617C89.0806 265.617 90.1206 266.384 90.1076 267.775H85.6096C85.7396 266.384 86.7016 265.617 87.8586 265.617ZM91.1866 269.66H89.9126C89.6526 270.427 88.9766 270.973 87.9106 270.973C86.7016 270.973 85.6876 270.18 85.5966 268.737H91.2906C91.3166 268.49 91.3296 268.282 91.3296 268.022C91.3296 266.072 89.9776 264.616 87.9106 264.616C85.8306 264.616 84.3876 266.033 84.3876 268.282C84.3876 270.544 85.8826 271.974 87.9106 271.974C89.6786 271.974 90.8226 270.96 91.1866 269.66ZM94.0741 267.983C94.0741 266.332 94.9321 265.825 96.0631 265.825H96.3751V264.603C95.2441 264.603 94.4771 265.097 94.0741 265.89V264.733H92.8911V271.857H94.0741V267.983ZM101.428 271.857H102.611V265.708H104.106V264.733H102.611V264.226C102.611 263.303 102.962 262.913 104.028 262.913V261.925C102.208 261.925 101.428 262.64 101.428 264.226V264.733H100.505V265.708H101.428V271.857ZM106.668 267.983C106.668 266.332 107.526 265.825 108.657 265.825H108.969V264.603C107.838 264.603 107.071 265.097 106.668 265.89V264.733H105.485V271.857H106.668V267.983ZM110.334 271.857H111.517V264.733H110.334V271.857ZM110.945 263.576C111.374 263.576 111.725 263.225 111.725 262.77C111.725 262.315 111.374 261.964 110.945 261.964C110.49 261.964 110.139 262.315 110.139 262.77C110.139 263.225 110.49 263.576 110.945 263.576ZM116.563 265.617C117.785 265.617 118.825 266.384 118.812 267.775H114.314C114.444 266.384 115.406 265.617 116.563 265.617ZM119.891 269.66H118.617C118.357 270.427 117.681 270.973 116.615 270.973C115.406 270.973 114.392 270.18 114.301 268.737H119.995C120.021 268.49 120.034 268.282 120.034 268.022C120.034 266.072 118.682 264.616 116.615 264.616C114.535 264.616 113.092 266.033 113.092 268.282C113.092 270.544 114.587 271.974 116.615 271.974C118.383 271.974 119.527 270.96 119.891 269.66ZM126.808 271.857H127.978V267.658C127.978 265.617 126.717 264.603 125.066 264.603C124.104 264.603 123.246 265.006 122.778 265.747V264.733H121.595V271.857H122.778V267.918C122.778 266.384 123.61 265.63 124.819 265.63C126.015 265.63 126.808 266.371 126.808 267.827V271.857ZM129.469 268.269C129.469 270.479 130.938 271.974 132.849 271.974C134.149 271.974 135.072 271.311 135.501 270.518V271.857H136.697V262.237H135.501V266.007C135.007 265.188 133.98 264.616 132.862 264.616C130.938 264.616 129.469 266.046 129.469 268.269ZM135.501 268.282C135.501 269.959 134.383 270.934 133.083 270.934C131.783 270.934 130.678 269.946 130.678 268.269C130.678 266.592 131.783 265.643 133.083 265.643C134.383 265.643 135.501 266.631 135.501 268.282ZM143.818 269.92C143.766 267.372 139.632 268.295 139.632 266.605C139.632 266.033 140.152 265.617 141.023 265.617C141.972 265.617 142.518 266.137 142.57 266.852H143.753C143.675 265.461 142.635 264.616 141.062 264.616C139.476 264.616 138.449 265.513 138.449 266.605C138.449 269.257 142.661 268.334 142.661 269.92C142.661 270.505 142.141 270.973 141.205 270.973C140.204 270.973 139.593 270.453 139.528 269.764H138.306C138.384 271.064 139.554 271.974 141.218 271.974C142.791 271.974 143.818 271.09 143.818 269.92Z" fill="#494B52"/>
<path d="M208.013 162.548C204.912 168.695 201.289 173.828 197.236 177.514C196.087 178.573 194.851 179.535 193.54 180.39C192.366 181.154 191.127 181.812 189.833 182.348C171.358 189.983 152.44 172.609 131.308 174.665C113.594 176.389 100.844 186.232 89.544 194.493C85.8408 197.317 81.9644 199.906 77.9359 202.242C76.8699 202.838 75.79 203.381 74.7241 203.865C73.575 204.378 72.3533 204.862 71.0485 205.302C71.0485 205.312 71.0382 205.312 71.0382 205.312L71.0278 205.302C54.6573 210.915 27.0041 210.708 14.7488 198.629C1.91891 185.972 -13.6624 144.96 21.6257 92.1276C60.8352 33.4052 167.956 25.2857 196.585 44.7087C226.211 64.7859 225.021 128.814 208.013 162.548Z" fill="#E4F2FF"/>
<path d="M161.841 90.9374C161.841 116.147 141.408 136.581 116.198 136.581C90.9883 136.581 70.5547 116.147 70.5547 90.9374C70.5547 65.7276 90.9883 45.2939 116.198 45.2939C141.408 45.2939 161.841 65.7276 161.841 90.9374Z" fill="#6654A4"/>
<path d="M142.627 146.285H89.7573C86.2686 146.285 83.4375 143.458 83.4375 139.969V30.1176C83.4375 26.6289 86.2686 23.7979 89.7573 23.7979H142.627C146.116 23.7979 148.947 26.6289 148.947 30.1176V139.966C148.947 143.454 146.119 146.282 142.627 146.285Z" fill="black"/>
<path d="M130.296 28.158V29.8296C130.296 31.1967 129.192 32.3042 127.825 32.3042H104.56C103.193 32.3042 102.089 31.1967 102.089 29.8296V28.1614C102.089 27.7184 101.729 27.355 101.283 27.355H91.6612C89.2489 27.355 87.2969 29.3105 87.2969 31.7228V138.359C87.2969 140.771 89.2489 142.727 91.6612 142.727H140.714C143.126 142.727 145.078 140.771 145.078 138.359V31.7193C145.078 29.307 143.126 27.355 140.714 27.3516H131.092C130.649 27.3516 130.286 27.7115 130.286 28.158" fill="white"/>
<path d="M146.637 130.541H86.2148V143.132H146.637V130.541Z" fill="black"/>
<path d="M121.667 137.602C121.663 140.129 119.615 142.171 117.088 142.171C114.561 142.167 112.52 140.118 112.52 137.592C112.523 135.069 114.568 133.023 117.091 133.023C119.618 133.023 121.663 135.072 121.663 137.595C121.667 137.595 121.667 137.599 121.667 137.602Z" fill="#545454"/>
<path d="M120.524 137.601C120.524 139.494 118.984 141.031 117.09 141.028C115.197 141.028 113.661 139.487 113.664 137.594C113.664 135.701 115.201 134.168 117.094 134.168C118.987 134.165 120.524 135.701 120.524 137.601C120.524 137.598 120.524 137.598 120.524 137.601Z" fill="#737373"/>
<path d="M121.341 29.8021H107.234C106.812 29.8021 106.473 29.4595 106.473 29.0407C106.473 28.6185 106.815 28.2793 107.234 28.2793H121.338C121.76 28.2793 122.102 28.6219 122.102 29.0407C122.102 29.4595 121.763 29.8021 121.341 29.8021Z" fill="#A4A5A4"/>
<path d="M125.913 29.0382C125.913 29.6715 125.4 30.1803 124.767 30.1803C124.134 30.1803 123.625 29.6681 123.625 29.0347C123.625 28.4048 124.137 27.8926 124.767 27.8926C125.4 27.8926 125.913 28.4048 125.913 29.0382Z" fill="#A4A5A4"/>
<path d="M132.89 117.985H98.4467C95.1311 117.985 92.4453 115.296 92.4453 111.98V111.974C92.4453 108.658 95.1345 105.969 98.4501 105.969H132.894C136.209 105.969 138.899 108.658 138.899 111.974V111.98C138.899 115.296 136.209 117.985 132.89 117.985Z" fill="#6654A4"/>
<path d="M86.5298 73.6285C86.5298 73.6285 91.4686 77.8889 92.5449 82.852C93.9881 89.5109 87.1216 99.5927 87.5023 107.802C87.9384 117.289 93.1022 121.387 96.2482 127.672C99.8823 134.94 99.6227 139.719 99.6227 142.208C99.6365 143.654 99.325 145.084 98.7055 146.392H132.813C132.813 146.392 126.092 156.599 112.896 164.815C102.097 171.536 96.4628 182.989 96.4628 182.989H48.6562L65.8677 154.408C65.8677 154.408 62.7529 139.352 64.5907 128.464C67.9167 108.768 86.5228 73.625 86.5228 73.625" fill="#B78876"/>
<path d="M98.8618 146.292C98.8618 146.292 97.0448 149.663 94.9232 153.114C92.8017 156.564 91.4727 158.423 91.4727 158.423C91.4727 158.423 96.4911 157.063 99.6994 154.709C102.911 152.338 105.787 149.545 108.251 146.403L98.8618 146.292Z" fill="#AA6550"/>
<path d="M146.277 2.70303L147.755 0L149.233 2.70303C150.711 5.40605 152.936 7.63146 155.639 9.1093L158.342 10.5871L155.639 12.065C152.936 13.5428 150.711 15.7682 149.233 18.4713L147.755 21.1743L146.277 18.4713C144.799 15.7682 142.574 13.5428 139.871 12.065L137.168 10.5871L139.871 9.1093C142.574 7.63146 144.799 5.40605 146.277 2.70303Z" fill="#6654A4"/>
<path d="M119.343 12.4977L119.969 11.3486L120.596 12.4977C121.222 13.6433 122.167 14.5881 123.313 15.2145L124.462 15.841L123.313 16.4674C122.167 17.0939 121.222 18.0387 120.596 19.1843L119.969 20.3299L119.343 19.1843C118.717 18.0352 117.772 17.0939 116.626 16.4674L115.48 15.841L116.626 15.2145C117.775 14.5881 118.717 13.6467 119.343 12.4977Z" fill="#6654A4"/>
<path d="M158.564 43.6804L158.851 43.1543L159.142 43.6804C159.429 44.2099 159.865 44.6425 160.395 44.9332L160.924 45.224L160.395 45.5112C159.865 45.7985 159.433 46.2346 159.142 46.7641L158.851 47.2936L158.564 46.7641C158.277 46.2346 157.841 45.8019 157.315 45.5112L156.785 45.224L157.315 44.9332C157.844 44.6425 158.277 44.2099 158.564 43.6804Z" fill="#6654A4"/>
<path d="M162.021 22.6936L162.547 21.7314L163.073 22.6936C163.599 23.6558 164.392 24.4483 165.354 24.9744L166.316 25.5005L165.354 26.0265C164.392 26.5526 163.599 27.3452 163.073 28.3073L162.547 29.2695L162.021 28.3073C161.495 27.3452 160.703 26.5526 159.74 26.0265L158.778 25.5005L159.74 24.9744C160.703 24.4483 161.495 23.6558 162.021 22.6936Z" fill="#6654A4"/>
<path d="M97.2806 39.442L96.8929 40.6153H96.3945L97.6647 36.8809H98.2462L99.5198 40.6153H99.0041L98.6061 39.442H97.2806ZM98.5058 39.0682L98.1389 37.9953C98.0558 37.753 98.0004 37.5315 97.945 37.3135H97.9347C97.8793 37.535 97.817 37.7634 97.7477 37.9884L97.3809 39.0682H98.5058Z" fill="black"/>
<path d="M100.029 38.6626C100.029 38.3857 100.022 38.1573 100.008 37.9358H100.434L100.454 38.3684H100.472C100.62 38.1123 100.87 37.877 101.313 37.877C101.679 37.877 101.956 38.0985 102.071 38.4134H102.081C102.164 38.2646 102.268 38.1469 102.382 38.0638C102.541 37.9427 102.721 37.877 102.974 37.877C103.327 37.877 103.853 38.1088 103.853 39.0398V40.618H103.375V39.0987C103.375 38.583 103.188 38.275 102.794 38.275C102.517 38.275 102.302 38.4792 102.216 38.718C102.195 38.7837 102.178 38.8737 102.178 38.9602V40.618H101.7V39.0122C101.7 38.5865 101.513 38.275 101.14 38.275C100.835 38.275 100.613 38.5172 100.537 38.763C100.51 38.8356 100.499 38.9187 100.499 39.0018V40.618H100.022V38.6626H100.029Z" fill="black"/>
<path d="M107.077 39.254C107.077 40.2473 106.388 40.6764 105.741 40.6764C105.014 40.6764 104.457 40.1435 104.457 39.2955C104.457 38.3991 105.045 37.873 105.786 37.873C106.558 37.873 107.077 38.4337 107.077 39.254ZM104.952 39.2817C104.952 39.87 105.291 40.313 105.765 40.313C106.229 40.313 106.579 39.877 106.579 39.2713C106.579 38.8179 106.35 38.2399 105.776 38.2399C105.201 38.2399 104.952 38.7729 104.952 39.2817Z" fill="black"/>
<path d="M109.932 39.888C109.932 40.1649 109.939 40.4071 109.953 40.6183H109.52L109.492 40.1822H109.482C109.354 40.3967 109.074 40.6805 108.596 40.6805C108.174 40.6805 107.672 40.4487 107.672 39.5073V37.9395H108.16V39.4242C108.16 39.933 108.316 40.2791 108.759 40.2791C109.084 40.2791 109.312 40.0506 109.402 39.8361C109.43 39.7634 109.447 39.6769 109.447 39.5869V37.9429H109.935V39.888H109.932Z" fill="black"/>
<path d="M110.743 38.6621C110.743 38.3853 110.737 38.1569 110.723 37.9353H111.155L111.183 38.3784H111.193C111.325 38.1222 111.636 37.873 112.079 37.873C112.45 37.873 113.028 38.0946 113.028 39.0152V40.6176H112.54V39.0705C112.54 38.6379 112.381 38.278 111.92 38.278C111.598 38.278 111.349 38.5064 111.266 38.7764C111.245 38.8387 111.231 38.9217 111.231 39.0048V40.6176H110.743V38.6621Z" fill="black"/>
<path d="M114.378 37.168V37.9398H115.077V38.3101H114.378V39.7568C114.378 40.089 114.471 40.2759 114.745 40.2759C114.873 40.2759 114.966 40.2586 115.028 40.2413L115.049 40.6082C114.956 40.6463 114.807 40.6739 114.617 40.6739C114.388 40.6739 114.208 40.6013 114.09 40.4697C113.952 40.3244 113.904 40.089 113.904 39.7706V38.3066H113.488V37.9363H113.904V37.2926L114.378 37.168Z" fill="black"/>
<path d="M117.706 37.4719H117.695L117.069 37.8111L116.976 37.4408L117.761 37.0186H118.177V40.618H117.706V37.4719Z" fill="black"/>
<path d="M121.632 37.4275H120.258L120.119 38.3516C120.203 38.3412 120.279 38.3308 120.414 38.3308C120.69 38.3308 120.967 38.3931 121.189 38.5246C121.473 38.6838 121.705 38.9953 121.705 39.4487C121.705 40.1513 121.144 40.6773 120.365 40.6773C119.971 40.6773 119.638 40.5666 119.469 40.4558L119.59 40.0855C119.739 40.1755 120.033 40.2863 120.358 40.2863C120.819 40.2863 121.21 39.9886 121.21 39.5041C121.203 39.0403 120.895 38.7046 120.175 38.7046C119.971 38.7046 119.808 38.7254 119.676 38.7427L119.908 37.0156H121.632V37.4275Z" fill="black"/>
<path d="M124.717 38.7771C124.717 40.0022 124.263 40.6771 123.464 40.6771C122.761 40.6771 122.284 40.0195 122.273 38.8255C122.273 37.6176 122.793 36.9531 123.526 36.9531C124.284 36.9566 124.717 37.6315 124.717 38.7771ZM122.761 38.8324C122.761 39.7704 123.049 40.2999 123.492 40.2999C123.99 40.2999 124.229 39.7184 124.229 38.7978C124.229 37.9118 124 37.3304 123.499 37.3304C123.073 37.3338 122.761 37.853 122.761 38.8324Z" fill="black"/>
<path d="M128.446 38.8669H126.996V40.2133H128.613V40.6182H126.512V36.8838H128.529V37.2887H126.996V38.4689H128.446V38.8669Z" fill="black"/>
<path d="M132.075 40.452C131.861 40.5282 131.431 40.6562 130.93 40.6562C130.365 40.6562 129.898 40.5109 129.535 40.1648C129.213 39.8533 129.016 39.3549 129.016 38.7735C129.023 37.659 129.784 36.8457 131.037 36.8457C131.469 36.8457 131.805 36.9391 131.968 37.0188L131.85 37.4133C131.649 37.3233 131.4 37.2541 131.026 37.2541C130.116 37.2541 129.524 37.8182 129.524 38.7562C129.524 39.7045 130.095 40.2617 130.964 40.2617C131.279 40.2617 131.497 40.2167 131.608 40.1613V39.0469H130.85V38.6593H132.079V40.452H132.075Z" fill="black"/>
<path d="M132.813 36.9282C133.045 36.8901 133.35 36.8555 133.738 36.8555C134.215 36.8555 134.561 36.9662 134.786 37.167C134.99 37.3435 135.112 37.6169 135.112 37.9491C135.112 38.2883 135.011 38.5548 134.824 38.7486C134.568 39.0186 134.153 39.157 133.682 39.157C133.537 39.157 133.405 39.1501 133.295 39.1224V40.6176H132.813V36.9282ZM133.295 38.7279C133.398 38.7555 133.533 38.7659 133.693 38.7659C134.274 38.7659 134.63 38.4821 134.63 37.9699C134.63 37.4784 134.281 37.2396 133.751 37.2396C133.54 37.2396 133.381 37.2569 133.298 37.2777V38.7279H133.295Z" fill="black"/>
<path d="M100.566 113.362C100.338 113.293 100.154 113.203 100.009 113.085C99.9326 113.03 99.8945 112.95 99.8945 112.846C99.8945 112.777 99.9154 112.715 99.9569 112.663C99.9984 112.611 100.047 112.587 100.102 112.587C100.161 112.587 100.23 112.611 100.306 112.656C100.448 112.76 100.597 112.832 100.756 112.881C100.912 112.926 101.085 112.95 101.276 112.95C101.518 112.95 101.705 112.908 101.833 112.822C101.961 112.739 102.027 112.614 102.027 112.452C102.027 112.327 101.968 112.227 101.843 112.161C101.719 112.095 101.521 112.026 101.237 111.964C100.947 111.901 100.708 111.829 100.524 111.746C100.341 111.663 100.203 111.555 100.109 111.427C100.016 111.299 99.9707 111.133 99.9707 110.932C99.9707 110.725 100.03 110.541 100.144 110.379C100.261 110.216 100.421 110.088 100.632 109.998C100.839 109.908 101.071 109.859 101.331 109.859C101.805 109.859 102.193 109.987 102.494 110.24C102.539 110.278 102.566 110.313 102.587 110.347C102.604 110.382 102.615 110.427 102.615 110.479C102.615 110.548 102.594 110.61 102.553 110.662C102.511 110.714 102.463 110.738 102.404 110.738C102.369 110.738 102.342 110.735 102.31 110.725C102.283 110.714 102.245 110.697 102.2 110.669C102.065 110.569 101.93 110.496 101.802 110.448C101.673 110.399 101.518 110.375 101.331 110.375C101.106 110.375 100.926 110.42 100.794 110.513C100.663 110.603 100.597 110.732 100.597 110.894C100.597 111.029 100.656 111.136 100.77 111.209C100.888 111.282 101.085 111.351 101.362 111.413C101.656 111.479 101.898 111.555 102.082 111.635C102.265 111.718 102.407 111.822 102.504 111.946C102.601 112.074 102.65 112.23 102.65 112.42C102.65 112.628 102.591 112.808 102.476 112.967C102.362 113.127 102.2 113.248 101.992 113.338C101.784 113.424 101.546 113.469 101.276 113.469C101.033 113.462 100.791 113.431 100.566 113.362Z" fill="white"/>
<path d="M105.264 112.815C105.299 112.86 105.316 112.915 105.316 112.988C105.316 113.091 105.254 113.178 105.133 113.247C105.018 113.31 104.89 113.361 104.748 113.399C104.606 113.438 104.468 113.458 104.34 113.458C103.949 113.458 103.637 113.344 103.409 113.119C103.181 112.894 103.066 112.583 103.066 112.192C103.066 111.942 103.115 111.721 103.215 111.527C103.316 111.333 103.454 111.184 103.637 111.077C103.817 110.97 104.025 110.918 104.253 110.918C104.472 110.918 104.665 110.966 104.828 111.063C104.991 111.16 105.119 111.295 105.209 111.472C105.299 111.648 105.344 111.856 105.344 112.095C105.344 112.237 105.281 112.309 105.153 112.309H103.682C103.703 112.538 103.769 112.707 103.876 112.815C103.987 112.922 104.146 112.977 104.354 112.977C104.461 112.977 104.555 112.963 104.634 112.936C104.717 112.908 104.807 112.873 104.911 112.825C105.011 112.773 105.084 112.745 105.129 112.745C105.185 112.749 105.229 112.773 105.264 112.815ZM103.859 111.52C103.759 111.627 103.696 111.78 103.676 111.98H104.804C104.797 111.776 104.748 111.624 104.655 111.52C104.561 111.416 104.433 111.364 104.267 111.364C104.094 111.358 103.959 111.413 103.859 111.52Z" fill="white"/>
<path d="M107.918 111.171C108.06 111.337 108.132 111.589 108.132 111.925V113.15C108.132 113.244 108.105 113.316 108.049 113.368C107.994 113.42 107.918 113.448 107.821 113.448C107.724 113.448 107.648 113.42 107.593 113.368C107.537 113.316 107.509 113.244 107.509 113.15V111.96C107.509 111.769 107.475 111.631 107.402 111.544C107.329 111.458 107.219 111.416 107.066 111.416C106.886 111.416 106.745 111.472 106.634 111.586C106.527 111.7 106.471 111.849 106.471 112.039V113.15C106.471 113.244 106.443 113.316 106.385 113.368C106.326 113.42 106.253 113.448 106.156 113.448C106.059 113.448 105.983 113.42 105.928 113.368C105.872 113.316 105.845 113.244 105.845 113.15V111.219C105.845 111.133 105.872 111.063 105.931 111.011C105.987 110.959 106.063 110.932 106.16 110.932C106.246 110.932 106.315 110.956 106.371 111.008C106.426 111.06 106.454 111.126 106.454 111.209V111.344C106.537 111.209 106.648 111.101 106.786 111.029C106.925 110.956 107.084 110.918 107.26 110.918C107.558 110.921 107.776 111.004 107.918 111.171Z" fill="white"/>
<path d="M111.026 109.96C111.085 110.012 111.116 110.085 111.116 110.168V113.151C111.116 113.241 111.089 113.314 111.03 113.366C110.975 113.418 110.898 113.446 110.805 113.446C110.711 113.446 110.635 113.418 110.58 113.366C110.525 113.314 110.493 113.241 110.493 113.151V113.027C110.421 113.162 110.314 113.269 110.175 113.345C110.037 113.421 109.881 113.46 109.704 113.46C109.493 113.46 109.306 113.408 109.144 113.3C108.978 113.193 108.853 113.044 108.759 112.85C108.67 112.657 108.621 112.432 108.621 112.179C108.621 111.926 108.666 111.705 108.759 111.514C108.849 111.324 108.978 111.179 109.14 111.075C109.303 110.971 109.49 110.919 109.704 110.919C109.881 110.919 110.037 110.957 110.172 111.03C110.307 111.103 110.414 111.206 110.487 111.338V110.158C110.487 110.075 110.514 110.009 110.57 109.957C110.625 109.905 110.698 109.881 110.791 109.881C110.885 109.881 110.968 109.905 111.026 109.96ZM110.334 112.771C110.442 112.636 110.497 112.439 110.497 112.186C110.497 111.933 110.442 111.739 110.334 111.604C110.227 111.469 110.075 111.404 109.877 111.404C109.677 111.404 109.524 111.469 109.414 111.604C109.303 111.736 109.247 111.93 109.247 112.179C109.247 112.432 109.303 112.629 109.414 112.767C109.524 112.906 109.677 112.975 109.874 112.975C110.075 112.975 110.227 112.909 110.334 112.771Z" fill="white"/>
<path d="M116.041 113.189C116.041 113.265 116.009 113.327 115.947 113.379C115.885 113.431 115.812 113.455 115.729 113.455C115.677 113.455 115.625 113.441 115.577 113.417C115.528 113.393 115.487 113.355 115.456 113.306L114.791 112.299C114.725 112.192 114.653 112.119 114.58 112.074C114.504 112.029 114.407 112.009 114.289 112.009H113.801V113.126C113.801 113.227 113.774 113.306 113.715 113.362C113.656 113.417 113.583 113.448 113.486 113.448C113.389 113.448 113.313 113.421 113.254 113.362C113.196 113.303 113.168 113.223 113.168 113.126V110.209C113.168 110.112 113.196 110.039 113.251 109.984C113.306 109.932 113.383 109.904 113.479 109.904H114.725C115.123 109.904 115.428 109.994 115.636 110.171C115.843 110.347 115.947 110.607 115.947 110.943C115.947 111.216 115.871 111.438 115.715 111.614C115.56 111.787 115.341 111.901 115.061 111.95C115.158 111.974 115.241 112.015 115.317 112.074C115.39 112.133 115.463 112.216 115.532 112.324L115.985 113.016C116.02 113.075 116.041 113.133 116.041 113.189ZM115.168 111.379C115.283 111.289 115.338 111.147 115.338 110.956C115.338 110.763 115.283 110.624 115.168 110.534C115.054 110.448 114.878 110.403 114.635 110.403H113.798V111.514H114.635C114.878 111.514 115.054 111.469 115.168 111.379Z" fill="white"/>
<path d="M118.651 112.815C118.685 112.86 118.703 112.915 118.703 112.988C118.703 113.091 118.64 113.178 118.519 113.247C118.405 113.31 118.277 113.361 118.135 113.399C117.993 113.438 117.855 113.458 117.727 113.458C117.336 113.458 117.024 113.344 116.796 113.119C116.567 112.894 116.453 112.583 116.453 112.192C116.453 111.942 116.502 111.721 116.602 111.527C116.702 111.333 116.841 111.184 117.024 111.077C117.204 110.97 117.412 110.918 117.64 110.918C117.858 110.918 118.052 110.966 118.215 111.063C118.377 111.16 118.505 111.295 118.595 111.472C118.685 111.648 118.73 111.856 118.73 112.095C118.73 112.237 118.668 112.309 118.54 112.309H117.069C117.09 112.538 117.156 112.707 117.263 112.815C117.374 112.922 117.533 112.977 117.741 112.977C117.848 112.977 117.941 112.963 118.021 112.936C118.104 112.908 118.194 112.873 118.298 112.825C118.398 112.773 118.471 112.745 118.516 112.745C118.568 112.749 118.613 112.773 118.651 112.815ZM117.242 111.52C117.142 111.627 117.08 111.78 117.059 111.98H118.187C118.18 111.776 118.132 111.624 118.038 111.52C117.945 111.416 117.817 111.364 117.651 111.364C117.481 111.358 117.346 111.413 117.242 111.52Z" fill="white"/>
<path d="M121.491 111.011C121.547 111.063 121.578 111.136 121.578 111.226V114.054C121.578 114.14 121.547 114.209 121.488 114.261C121.429 114.313 121.353 114.341 121.259 114.341C121.166 114.341 121.093 114.317 121.038 114.265C120.983 114.213 120.955 114.147 120.955 114.064V113.036C120.882 113.168 120.775 113.271 120.636 113.348C120.498 113.424 120.342 113.458 120.169 113.458C119.955 113.458 119.768 113.406 119.605 113.303C119.442 113.199 119.314 113.053 119.224 112.863C119.134 112.673 119.086 112.451 119.086 112.199C119.086 111.946 119.131 111.721 119.224 111.527C119.314 111.333 119.442 111.181 119.609 111.077C119.775 110.97 119.962 110.918 120.169 110.918C120.346 110.918 120.501 110.956 120.64 111.029C120.778 111.105 120.882 111.209 120.958 111.344V111.219C120.958 111.129 120.986 111.056 121.045 111.004C121.1 110.953 121.176 110.925 121.27 110.925C121.36 110.932 121.436 110.956 121.491 111.011ZM120.796 112.77C120.903 112.635 120.958 112.441 120.958 112.192C120.958 111.939 120.903 111.745 120.796 111.607C120.688 111.472 120.533 111.403 120.335 111.403C120.138 111.403 119.986 111.472 119.875 111.61C119.764 111.749 119.709 111.946 119.709 112.199C119.709 112.444 119.764 112.635 119.875 112.77C119.986 112.905 120.138 112.97 120.339 112.97C120.536 112.974 120.688 112.908 120.796 112.77Z" fill="white"/>
<path d="M124.377 111.011C124.432 111.063 124.463 111.136 124.463 111.226V113.161C124.463 113.247 124.435 113.316 124.377 113.368C124.318 113.42 124.242 113.448 124.148 113.448C124.058 113.448 123.985 113.424 123.934 113.372C123.882 113.323 123.854 113.254 123.854 113.167V113.043C123.778 113.174 123.674 113.278 123.546 113.351C123.418 113.424 123.269 113.458 123.106 113.458C122.508 113.458 122.21 113.122 122.21 112.451V111.226C122.21 111.136 122.238 111.063 122.293 111.011C122.348 110.959 122.425 110.932 122.518 110.932C122.615 110.932 122.691 110.959 122.746 111.011C122.802 111.063 122.833 111.136 122.833 111.226V112.458C122.833 112.631 122.867 112.759 122.937 112.842C123.006 112.925 123.117 112.967 123.265 112.967C123.439 112.967 123.577 112.908 123.681 112.794C123.785 112.679 123.837 112.527 123.837 112.337V111.226C123.837 111.136 123.864 111.063 123.923 111.011C123.979 110.959 124.055 110.932 124.148 110.932C124.242 110.932 124.318 110.956 124.377 111.011Z" fill="white"/>
<path d="M127.174 112.815C127.209 112.86 127.226 112.915 127.226 112.988C127.226 113.091 127.164 113.178 127.043 113.247C126.929 113.31 126.8 113.361 126.659 113.399C126.517 113.438 126.378 113.458 126.25 113.458C125.859 113.458 125.548 113.344 125.319 113.119C125.091 112.894 124.977 112.583 124.977 112.192C124.977 111.942 125.025 111.721 125.125 111.527C125.226 111.333 125.364 111.184 125.548 111.077C125.728 110.97 125.935 110.918 126.164 110.918C126.382 110.918 126.575 110.966 126.738 111.063C126.901 111.16 127.029 111.295 127.119 111.472C127.209 111.648 127.254 111.856 127.254 112.095C127.254 112.237 127.192 112.309 127.063 112.309H125.593C125.613 112.538 125.679 112.707 125.786 112.815C125.897 112.922 126.056 112.977 126.264 112.977C126.371 112.977 126.465 112.963 126.544 112.936C126.627 112.908 126.717 112.873 126.821 112.825C126.922 112.773 126.994 112.745 127.039 112.745C127.091 112.749 127.14 112.773 127.174 112.815ZM125.766 111.52C125.665 111.627 125.603 111.78 125.582 111.98H126.711C126.704 111.776 126.655 111.624 126.562 111.52C126.468 111.416 126.34 111.364 126.174 111.364C126.004 111.358 125.869 111.413 125.766 111.52Z" fill="white"/>
<path d="M127.764 113.244C127.656 113.182 127.604 113.092 127.604 112.974C127.604 112.908 127.622 112.853 127.66 112.812C127.698 112.77 127.743 112.749 127.795 112.749C127.85 112.749 127.93 112.777 128.03 112.829C128.137 112.877 128.234 112.915 128.321 112.943C128.407 112.971 128.522 112.985 128.657 112.985C128.795 112.985 128.906 112.96 128.982 112.915C129.062 112.87 129.1 112.805 129.1 112.722C129.1 112.666 129.086 112.621 129.051 112.587C129.02 112.552 128.965 112.521 128.882 112.493C128.799 112.465 128.677 112.431 128.511 112.396C128.214 112.337 128.003 112.251 127.874 112.144C127.746 112.033 127.684 111.884 127.684 111.69C127.684 111.545 127.726 111.413 127.812 111.292C127.899 111.171 128.016 111.085 128.169 111.019C128.321 110.953 128.491 110.922 128.684 110.922C128.823 110.922 128.958 110.939 129.089 110.974C129.217 111.008 129.335 111.06 129.439 111.126C129.546 111.192 129.598 111.282 129.598 111.389C129.598 111.455 129.581 111.51 129.543 111.555C129.505 111.6 129.46 111.621 129.408 111.621C129.37 111.621 129.335 111.614 129.3 111.6C129.266 111.586 129.221 111.562 129.169 111.534C129.072 111.486 128.989 111.448 128.92 111.424C128.85 111.399 128.764 111.386 128.66 111.386C128.536 111.386 128.439 111.41 128.369 111.462C128.297 111.51 128.262 111.579 128.262 111.666C128.262 111.749 128.3 111.811 128.373 111.856C128.446 111.901 128.587 111.943 128.795 111.984C129.017 112.029 129.193 112.085 129.318 112.144C129.442 112.202 129.536 112.279 129.591 112.369C129.646 112.459 129.674 112.573 129.674 112.711C129.674 112.936 129.581 113.12 129.394 113.255C129.207 113.39 128.958 113.459 128.643 113.459C128.279 113.459 127.985 113.386 127.764 113.244Z" fill="white"/>
<path d="M131.666 113.209C131.666 113.288 131.635 113.351 131.569 113.392C131.503 113.434 131.413 113.451 131.292 113.444L131.157 113.434C130.6 113.392 130.32 113.095 130.32 112.537V111.451H130.07C129.98 111.451 129.911 111.43 129.863 111.392C129.814 111.35 129.79 111.295 129.79 111.219C129.79 111.143 129.814 111.084 129.863 111.046C129.911 111.004 129.98 110.987 130.07 110.987H130.32V110.527C130.32 110.437 130.347 110.364 130.403 110.312C130.458 110.26 130.534 110.232 130.631 110.232C130.724 110.232 130.797 110.26 130.856 110.312C130.911 110.364 130.943 110.437 130.943 110.527V110.987H131.365C131.455 110.987 131.524 111.008 131.572 111.046C131.621 111.087 131.645 111.143 131.645 111.219C131.645 111.295 131.621 111.354 131.572 111.392C131.524 111.433 131.455 111.451 131.365 111.451H130.943V112.582C130.943 112.828 131.057 112.96 131.282 112.977L131.417 112.987C131.583 112.994 131.666 113.07 131.666 113.209Z" fill="white"/>
<path d="M98.4286 73.0678C98.4079 72.6767 98.3837 72.2095 98.3872 71.8599H98.3733C98.2764 72.1887 98.1622 72.5383 98.0203 72.9225L97.5254 74.2792H97.2519L96.7985 72.9467C96.667 72.5521 96.5528 72.1922 96.4732 71.8599H96.4698C96.4628 72.2095 96.4421 72.6767 96.4144 73.0955L96.3383 74.2965H95.9922L96.1859 71.5H96.6463L97.1239 72.8532C97.2415 73.1993 97.335 73.5039 97.4077 73.7946H97.4215C97.4908 73.5108 97.5912 73.2063 97.7157 72.8532L98.2141 71.5H98.6744L98.8475 74.2965H98.4945L98.4286 73.0678Z" fill="black"/>
<path d="M101.241 73.2751C101.241 74.0192 100.725 74.3411 100.24 74.3411C99.697 74.3411 99.2783 73.943 99.2783 73.3062C99.2783 72.6348 99.7178 72.2402 100.275 72.2402C100.85 72.2402 101.241 72.659 101.241 73.2751ZM99.6451 73.2958C99.6451 73.7354 99.8978 74.0676 100.254 74.0676C100.604 74.0676 100.863 73.7388 100.863 73.2889C100.863 72.9497 100.694 72.5171 100.261 72.5171C99.832 72.5136 99.6451 72.9117 99.6451 73.2958Z" fill="black"/>
<path d="M101.705 72.8286C101.705 72.6209 101.701 72.4514 101.688 72.2852H102.013L102.034 72.6175H102.041C102.141 72.4271 102.373 72.2402 102.705 72.2402C102.982 72.2402 103.415 72.4064 103.415 73.0951V74.2961H103.051V73.1366C103.051 72.8113 102.93 72.5448 102.587 72.5448C102.345 72.5448 102.158 72.7144 102.096 72.9186C102.079 72.9636 102.072 73.0259 102.072 73.0882V74.2961H101.708V72.8286H101.705Z" fill="black"/>
<path d="M105.122 74.2956L105.094 74.043H105.08C104.969 74.2022 104.751 74.3406 104.464 74.3406C104.059 74.3406 103.852 74.0533 103.852 73.7626C103.852 73.2781 104.284 73.0116 105.059 73.015V72.9735C105.059 72.8074 105.014 72.5097 104.603 72.5097C104.416 72.5097 104.222 72.5686 104.08 72.6586L103.997 72.4163C104.163 72.309 104.402 72.2363 104.658 72.2363C105.274 72.2363 105.423 72.6551 105.423 73.0566V73.8076C105.423 73.9807 105.43 74.1537 105.457 74.2887H105.122V74.2956ZM105.066 73.2712C104.668 73.2642 104.215 73.3335 104.215 73.7246C104.215 73.9599 104.374 74.0741 104.561 74.0741C104.824 74.0741 104.99 73.908 105.046 73.7384C105.059 73.7003 105.066 73.6588 105.066 73.6207V73.2712Z" fill="black"/>
<path d="M123.35 72.4145C123.488 72.4906 123.599 72.6014 123.675 72.7398C123.751 72.8782 123.789 73.0409 123.789 73.2243C123.789 73.4078 123.748 73.5704 123.665 73.7123C123.581 73.8542 123.467 73.965 123.318 74.0446C123.17 74.1242 123 74.1623 122.806 74.1623C122.633 74.1623 122.467 74.1311 122.304 74.0723C122.142 74.01 122.003 73.9269 121.889 73.8231C121.844 73.7816 121.823 73.7331 121.823 73.6812C121.823 73.6397 121.834 73.6051 121.858 73.5774C121.879 73.5497 121.906 73.5358 121.937 73.5358C121.976 73.5358 122.014 73.5497 122.055 73.5808C122.176 73.6812 122.297 73.7539 122.422 73.8023C122.543 73.8508 122.671 73.875 122.803 73.875C123.007 73.875 123.17 73.8162 123.284 73.702C123.398 73.5877 123.457 73.4285 123.457 73.2278C123.457 73.034 123.398 72.8782 123.284 72.7571C123.166 72.6394 123.01 72.5771 122.813 72.5771C122.56 72.5771 122.356 72.674 122.197 72.8679C122.159 72.9094 122.11 72.9302 122.055 72.9302C122.017 72.9302 121.982 72.9198 121.958 72.8955C121.934 72.8713 121.92 72.8402 121.92 72.7986V71.3658C121.92 71.3173 121.934 71.2793 121.965 71.2481C121.993 71.217 122.034 71.2031 122.086 71.2031H123.547C123.595 71.2031 123.637 71.217 123.665 71.2412C123.692 71.2654 123.709 71.3 123.709 71.345C123.709 71.39 123.696 71.4246 123.665 71.4489C123.637 71.4731 123.595 71.4869 123.547 71.4869H122.256V72.5287C122.332 72.4525 122.425 72.3972 122.529 72.3556C122.633 72.3141 122.747 72.2968 122.868 72.2968C123.048 72.3003 123.211 72.3383 123.35 72.4145Z" fill="black"/>
<path d="M124.481 73.7849C124.308 73.5288 124.218 73.1585 124.218 72.6705C124.218 72.179 124.304 71.8087 124.481 71.5526C124.654 71.2965 124.91 71.1719 125.246 71.1719C125.581 71.1719 125.834 71.2999 126.011 71.5526C126.187 71.8052 126.274 72.179 126.274 72.667C126.274 73.155 126.187 73.5288 126.011 73.7849C125.838 74.041 125.581 74.1656 125.246 74.1656C124.91 74.1691 124.657 74.041 124.481 73.7849ZM125.761 73.5876C125.872 73.3904 125.928 73.0858 125.928 72.6705C125.928 72.2517 125.872 71.9471 125.765 71.7533C125.654 71.5595 125.485 71.4626 125.249 71.4626C125.017 71.4626 124.844 71.5595 124.733 71.7568C124.623 71.9506 124.567 72.2586 124.567 72.6739C124.567 73.0893 124.623 73.3938 124.733 73.5911C124.844 73.7884 125.017 73.8853 125.249 73.8853C125.478 73.8818 125.651 73.7815 125.761 73.5876Z" fill="black"/>
<path d="M127.973 74.09C127.942 74.0589 127.925 74.0208 127.925 73.9689V71.3732C127.925 71.3247 127.942 71.2832 127.973 71.252C128.004 71.2209 128.046 71.207 128.101 71.207H129.655C129.704 71.207 129.745 71.2209 129.773 71.2451C129.801 71.2693 129.814 71.3039 129.814 71.3489C129.814 71.3939 129.801 71.4285 129.773 71.4528C129.745 71.477 129.707 71.4908 129.655 71.4908H128.264V72.5084H129.572C129.621 72.5084 129.662 72.5222 129.69 72.5464C129.718 72.5707 129.731 72.6053 129.731 72.6503C129.731 72.6952 129.718 72.7299 129.69 72.7541C129.662 72.7783 129.624 72.7922 129.572 72.7922H128.264V73.8547H129.655C129.704 73.8547 129.745 73.8651 129.773 73.8893C129.801 73.9135 129.814 73.9481 129.814 73.9966C129.814 74.0416 129.801 74.0762 129.773 74.1004C129.745 74.1246 129.707 74.1385 129.655 74.1385H128.101C128.046 74.135 128.004 74.1212 127.973 74.09Z" fill="black"/>
<path d="M132.601 72.6463C132.629 72.6705 132.639 72.7051 132.639 72.7501V73.7849C132.639 73.8507 132.629 73.9026 132.608 73.9337C132.587 73.9684 132.549 73.9926 132.494 74.0133C132.383 74.0618 132.248 74.0964 132.092 74.1241C131.933 74.1518 131.777 74.1656 131.618 74.1656C131.327 74.1656 131.078 74.1068 130.867 73.9857C130.656 73.868 130.497 73.6949 130.382 73.47C130.272 73.245 130.213 72.9785 130.213 72.6636C130.213 72.3555 130.268 72.089 130.379 71.8675C130.49 71.646 130.649 71.4695 130.857 71.3518C131.064 71.2307 131.307 71.1719 131.587 71.1719C131.781 71.1719 131.961 71.203 132.127 71.2619C132.293 71.3207 132.431 71.4072 132.546 71.518C132.594 71.5664 132.615 71.6149 132.615 71.6633C132.615 71.7014 132.604 71.736 132.58 71.7637C132.559 71.7914 132.532 71.8087 132.497 71.8087C132.463 71.8087 132.424 71.7914 132.379 71.7602C132.234 71.6495 132.106 71.5733 131.988 71.5284C131.871 71.4834 131.739 71.4626 131.587 71.4626C131.258 71.4626 131.005 71.5664 130.829 71.7741C130.652 71.9817 130.566 72.2794 130.566 72.667C130.566 73.0616 130.656 73.3627 130.832 73.5703C131.012 73.778 131.272 73.8784 131.618 73.8784C131.874 73.8784 132.11 73.8403 132.321 73.7607V72.8712H131.715C131.667 72.8712 131.632 72.8574 131.604 72.8331C131.577 72.8089 131.563 72.7778 131.563 72.7362C131.563 72.6947 131.577 72.6636 131.604 72.6393C131.632 72.6151 131.67 72.6047 131.715 72.6047H132.49C132.539 72.6116 132.573 72.622 132.601 72.6463Z" fill="black"/>
<path d="M133.372 74.1069C133.341 74.0757 133.327 74.0342 133.327 73.9788V71.3693C133.327 71.3208 133.345 71.2793 133.376 71.2481C133.407 71.217 133.448 71.2031 133.504 71.2031H134.487C134.795 71.2031 135.033 71.2793 135.203 71.4281C135.373 71.5769 135.459 71.788 135.459 72.0649C135.459 72.3418 135.373 72.5529 135.203 72.7052C135.033 72.8575 134.795 72.9336 134.49 72.9336H133.673V73.9788C133.673 74.0307 133.659 74.0723 133.628 74.1069C133.597 74.138 133.556 74.1553 133.504 74.1553C133.445 74.1553 133.403 74.138 133.372 74.1069ZM135.123 72.0649C135.123 71.6807 134.902 71.4869 134.455 71.4869H133.67V72.6498H134.455C134.898 72.6533 135.123 72.456 135.123 72.0649Z" fill="black"/>
<path d="M139.731 80.2396H92.6681C91.8167 80.2396 91.1211 79.544 91.1211 78.6926C91.1211 77.8412 91.8167 77.1455 92.6681 77.1455H139.731C140.582 77.1455 141.278 77.8412 141.278 78.6926C141.278 79.544 140.582 80.2396 139.731 80.2396Z" fill="#E0E0E0"/>
<path d="M98.4255 56.5113V55.3242L97.543 53.7148H97.9548L98.3493 54.4866C98.4566 54.6978 98.5397 54.8673 98.6262 55.0646H98.6331C98.7127 54.8812 98.8062 54.6978 98.917 54.4866L99.3184 53.7148H99.7302L98.7923 55.3207V56.5113H98.4255Z" fill="black"/>
<path d="M101.537 55.4909C101.537 56.235 101.021 56.5569 100.536 56.5569C99.993 56.5569 99.5742 56.1589 99.5742 55.522C99.5742 54.8506 100.014 54.4561 100.571 54.4561C101.149 54.4561 101.537 54.8748 101.537 55.4909ZM99.9446 55.5116C99.9446 55.9512 100.197 56.2835 100.554 56.2835C100.903 56.2835 101.163 55.9547 101.163 55.5047C101.163 55.1656 100.993 54.7329 100.561 54.7329C100.131 54.7295 99.9446 55.1275 99.9446 55.5116Z" fill="black"/>
<path d="M103.681 55.9644C103.681 56.1721 103.684 56.3555 103.698 56.5113H103.373L103.352 56.1825H103.345C103.248 56.3451 103.037 56.5563 102.68 56.5563C102.366 56.5563 101.988 56.3832 101.988 55.6772V54.5039H102.352V55.6149C102.352 55.9956 102.469 56.2552 102.802 56.2552C103.047 56.2552 103.217 56.0856 103.283 55.9229C103.303 55.8675 103.317 55.8018 103.317 55.736V54.5039H103.681V55.9644Z" fill="black"/>
<path d="M123.35 54.6303C123.488 54.7064 123.599 54.8172 123.675 54.9556C123.751 55.0941 123.789 55.2567 123.789 55.4402C123.789 55.6236 123.748 55.7863 123.665 55.9282C123.581 56.0701 123.467 56.1808 123.318 56.2604C123.17 56.34 123 56.3781 122.806 56.3781C122.633 56.3781 122.467 56.3469 122.304 56.2881C122.142 56.2258 122.003 56.1427 121.889 56.0389C121.844 55.9974 121.823 55.9489 121.823 55.897C121.823 55.8555 121.834 55.8209 121.858 55.7932C121.879 55.7655 121.906 55.7516 121.937 55.7516C121.976 55.7516 122.014 55.7655 122.055 55.7966C122.176 55.897 122.297 55.9697 122.422 56.0181C122.543 56.0666 122.671 56.0908 122.803 56.0908C123.007 56.0908 123.17 56.032 123.284 55.9178C123.398 55.8036 123.457 55.6443 123.457 55.4436C123.457 55.2498 123.398 55.0941 123.284 54.9729C123.166 54.8552 123.01 54.7929 122.813 54.7929C122.56 54.7929 122.356 54.8899 122.197 55.0837C122.159 55.1252 122.11 55.146 122.055 55.146C122.017 55.146 121.982 55.1356 121.958 55.1114C121.934 55.0871 121.92 55.056 121.92 55.0145V53.5816C121.92 53.5331 121.934 53.4951 121.965 53.4639C121.993 53.4328 122.034 53.4189 122.086 53.4189H123.547C123.595 53.4189 123.637 53.4328 123.665 53.457C123.692 53.4812 123.709 53.5158 123.709 53.5608C123.709 53.6058 123.696 53.6404 123.665 53.6647C123.637 53.6889 123.595 53.7027 123.547 53.7027H122.256V54.7445C122.332 54.6684 122.425 54.613 122.529 54.5714C122.633 54.5299 122.747 54.5126 122.868 54.5126C123.048 54.5161 123.211 54.5541 123.35 54.6303Z" fill="black"/>
<path d="M124.481 55.9998C124.308 55.7437 124.218 55.3733 124.218 54.8853C124.218 54.3939 124.304 54.0235 124.481 53.7674C124.654 53.5113 124.91 53.3867 125.246 53.3867C125.581 53.3867 125.834 53.5148 126.011 53.7674C126.187 54.0201 126.274 54.3939 126.274 54.8819C126.274 55.3699 126.187 55.7437 126.011 55.9998C125.838 56.2559 125.581 56.3805 125.246 56.3805C124.91 56.3839 124.657 56.2559 124.481 55.9998ZM125.761 55.8025C125.872 55.6052 125.928 55.3006 125.928 54.8853C125.928 54.4666 125.872 54.162 125.765 53.9682C125.654 53.7744 125.485 53.6775 125.249 53.6775C125.017 53.6775 124.844 53.7743 124.733 53.9716C124.623 54.1654 124.567 54.4735 124.567 54.8888C124.567 55.3041 124.623 55.6087 124.733 55.806C124.844 56.0032 125.017 56.1001 125.249 56.1001C125.478 56.0967 125.651 55.9963 125.761 55.8025Z" fill="black"/>
<path d="M127.965 56.3049C127.934 56.2737 127.917 56.2357 127.917 56.1837V53.588C127.917 53.5396 127.934 53.498 127.965 53.4669C127.997 53.4357 128.038 53.4219 128.094 53.4219H129.647C129.696 53.4219 129.737 53.4357 129.765 53.46C129.793 53.4842 129.807 53.5188 129.807 53.5638C129.807 53.6088 129.793 53.6434 129.765 53.6676C129.737 53.6918 129.699 53.7057 129.647 53.7057H128.256V54.7232H129.564C129.613 54.7232 129.654 54.737 129.682 54.7613C129.71 54.7855 129.724 54.8201 129.724 54.8651C129.724 54.9101 129.71 54.9447 129.682 54.9689C129.654 54.9932 129.616 55.007 129.564 55.007H128.256V56.0695H129.647C129.696 56.0695 129.737 56.0799 129.765 56.1041C129.793 56.1284 129.807 56.163 129.807 56.2114C129.807 56.2564 129.793 56.291 129.765 56.3153C129.737 56.3395 129.699 56.3533 129.647 56.3533H128.094C128.038 56.3499 127.997 56.336 127.965 56.3049Z" fill="black"/>
<path d="M132.601 54.8611C132.629 54.8853 132.639 54.9199 132.639 54.9649V55.9998C132.639 56.0655 132.629 56.1174 132.608 56.1486C132.587 56.1832 132.549 56.2074 132.494 56.2282C132.383 56.2766 132.248 56.3112 132.092 56.3389C131.933 56.3666 131.777 56.3805 131.618 56.3805C131.327 56.3805 131.078 56.3216 130.867 56.2005C130.656 56.0828 130.497 55.9098 130.382 55.6848C130.272 55.4599 130.213 55.1933 130.213 54.8784C130.213 54.5704 130.268 54.3039 130.379 54.0824C130.49 53.8609 130.649 53.6844 130.857 53.5667C131.064 53.4456 131.307 53.3867 131.587 53.3867C131.781 53.3867 131.961 53.4179 132.127 53.4767C132.293 53.5355 132.431 53.6221 132.546 53.7328C132.594 53.7813 132.615 53.8297 132.615 53.8782C132.615 53.9163 132.604 53.9509 132.58 53.9786C132.559 54.0062 132.532 54.0235 132.497 54.0235C132.463 54.0235 132.424 54.0062 132.379 53.9751C132.234 53.8643 132.106 53.7882 131.988 53.7432C131.871 53.6982 131.739 53.6775 131.587 53.6775C131.258 53.6775 131.005 53.7813 130.829 53.9889C130.652 54.1966 130.566 54.4942 130.566 54.8819C130.566 55.2764 130.656 55.5775 130.832 55.7852C131.012 55.9928 131.272 56.0932 131.618 56.0932C131.874 56.0932 132.11 56.0551 132.321 55.9755V55.0861H131.715C131.667 55.0861 131.632 55.0722 131.604 55.048C131.577 55.0238 131.563 54.9926 131.563 54.9511C131.563 54.9096 131.577 54.8784 131.604 54.8542C131.632 54.83 131.67 54.8196 131.715 54.8196H132.49C132.539 54.8265 132.573 54.8369 132.601 54.8611Z" fill="black"/>
<path d="M133.372 56.3217C133.341 56.2906 133.327 56.249 133.327 56.1937V53.5841C133.327 53.5356 133.345 53.4941 133.376 53.463C133.407 53.4318 133.448 53.418 133.504 53.418H134.487C134.795 53.418 135.033 53.4941 135.203 53.6429C135.373 53.7918 135.459 54.0029 135.459 54.2797C135.459 54.5566 135.373 54.7677 135.203 54.92C135.033 55.0723 134.795 55.1485 134.49 55.1485H133.673V56.1937C133.673 56.2456 133.659 56.2871 133.628 56.3217C133.597 56.3529 133.556 56.3702 133.504 56.3702C133.445 56.3702 133.403 56.3529 133.372 56.3217ZM135.123 54.2797C135.123 53.8956 134.902 53.7018 134.455 53.7018H133.67V54.8647H134.455C134.898 54.8681 135.123 54.6708 135.123 54.2797Z" fill="black"/>
<path d="M139.731 62.4545H92.6681C91.8167 62.4545 91.1211 61.7588 91.1211 60.9074C91.1211 60.056 91.8167 59.3604 92.6681 59.3604H139.731C140.582 59.3604 141.278 60.056 141.278 60.9074C141.278 61.7588 140.582 62.4545 139.731 62.4545Z" fill="#E0E0E0"/>
<path d="M96.4858 91.266L96.195 92.1451H95.8213L96.7731 89.3486H97.2091L98.1644 92.1451H97.7767L97.479 91.266H96.4858ZM97.4029 90.9857L97.1295 90.1793C97.0672 89.9958 97.0257 89.8297 96.9841 89.667H96.9772C96.9357 89.8332 96.8907 90.0028 96.8353 90.1723L96.5619 90.9822H97.4029V90.9857Z" fill="black"/>
<path d="M98.5527 89.1992H98.9162V90.4521H98.9231C98.9819 90.3483 99.0719 90.2583 99.1861 90.196C99.2934 90.1337 99.4214 90.0921 99.5598 90.0921C99.8298 90.0921 100.262 90.2583 100.262 90.9505V92.1445H99.899V90.992C99.899 90.6667 99.7779 90.3933 99.4353 90.3933C99.2 90.3933 99.0131 90.5594 98.9439 90.7601C98.9231 90.8086 98.9196 90.864 98.9196 90.9332V92.1445H98.5562V89.1992H98.5527Z" fill="black"/>
<path d="M100.854 90.6807C100.854 90.473 100.851 90.3034 100.837 90.1373H101.155L101.173 90.4626H101.186C101.297 90.2723 101.484 90.0923 101.816 90.0923C102.09 90.0923 102.297 90.2584 102.384 90.4938H102.391C102.453 90.383 102.533 90.2931 102.616 90.2308C102.737 90.1408 102.868 90.0889 103.059 90.0889C103.325 90.0889 103.72 90.2619 103.72 90.961V92.1447H103.363V91.006C103.363 90.6184 103.221 90.3865 102.927 90.3865C102.72 90.3865 102.557 90.5388 102.495 90.7188C102.477 90.7672 102.467 90.8364 102.467 90.9022V92.1447H102.111V90.9403C102.111 90.6219 101.969 90.3865 101.692 90.3865C101.463 90.3865 101.297 90.5699 101.238 90.7534C101.218 90.8087 101.211 90.871 101.211 90.9333V92.1447H100.854V90.6807Z" fill="black"/>
<path d="M104.523 91.2097C104.53 91.7046 104.848 91.9054 105.212 91.9054C105.475 91.9054 105.63 91.8604 105.769 91.8015L105.831 92.0646C105.703 92.1234 105.482 92.1892 105.163 92.1892C104.544 92.1892 104.177 91.7808 104.177 91.1751C104.177 90.5694 104.533 90.0918 105.118 90.0918C105.772 90.0918 105.949 90.6698 105.949 91.0366C105.949 91.1128 105.942 91.1682 105.935 91.2062H104.523V91.2097ZM105.596 90.9467C105.599 90.7148 105.499 90.3548 105.09 90.3548C104.72 90.3548 104.557 90.694 104.53 90.9467H105.596Z" fill="black"/>
<path d="M108.134 89.1992V91.6288C108.134 91.8088 108.138 92.0095 108.152 92.148H107.823L107.805 91.7984H107.798C107.688 92.0234 107.442 92.193 107.113 92.193C106.629 92.193 106.255 91.7811 106.255 91.172C106.251 90.504 106.667 90.0921 107.155 90.0921C107.463 90.0921 107.67 90.2375 107.76 90.4002H107.767V89.1992H108.134ZM107.767 90.9539C107.767 90.9089 107.764 90.8466 107.75 90.8017C107.695 90.5698 107.497 90.3794 107.224 90.3794C106.847 90.3794 106.622 90.7117 106.622 91.1547C106.622 91.5631 106.823 91.8988 107.214 91.8988C107.459 91.8988 107.684 91.7361 107.75 91.4627C107.764 91.4142 107.767 91.3623 107.767 91.3035V90.9539Z" fill="black"/>
<path d="M123.148 90.4291C123.287 90.5053 123.398 90.616 123.474 90.7544C123.55 90.8929 123.588 91.0556 123.588 91.239C123.588 91.4224 123.546 91.5851 123.463 91.727C123.38 91.8689 123.266 91.9796 123.117 92.0592C122.968 92.1388 122.799 92.1769 122.605 92.1769C122.432 92.1769 122.266 92.1458 122.103 92.0869C121.941 92.0246 121.802 91.9416 121.688 91.8377C121.643 91.7962 121.622 91.7478 121.622 91.6958C121.622 91.6543 121.632 91.6197 121.657 91.592C121.677 91.5643 121.705 91.5505 121.736 91.5505C121.774 91.5505 121.812 91.5643 121.854 91.5955C121.975 91.6958 122.096 91.7685 122.221 91.817C122.342 91.8654 122.47 91.8897 122.602 91.8897C122.806 91.8897 122.968 91.8308 123.083 91.7166C123.197 91.6024 123.256 91.4432 123.256 91.2424C123.256 91.0486 123.197 90.8929 123.083 90.7718C122.965 90.6541 122.809 90.5918 122.612 90.5918C122.359 90.5918 122.155 90.6887 121.996 90.8825C121.958 90.924 121.909 90.9448 121.854 90.9448C121.816 90.9448 121.781 90.9344 121.757 90.9102C121.733 90.886 121.719 90.8548 121.719 90.8133V89.3804C121.719 89.332 121.733 89.2939 121.764 89.2628C121.792 89.2316 121.833 89.2178 121.885 89.2178H123.346C123.394 89.2178 123.436 89.2316 123.463 89.2558C123.491 89.2801 123.508 89.3147 123.508 89.3597C123.508 89.4047 123.494 89.4393 123.463 89.4635C123.436 89.4877 123.394 89.5016 123.346 89.5016H122.055V90.5433C122.131 90.4672 122.224 90.4118 122.328 90.3703C122.432 90.3288 122.546 90.3114 122.667 90.3114C122.844 90.3114 123.007 90.3495 123.148 90.4291Z" fill="black"/>
<path d="M124.272 91.7996C124.099 91.5435 124.009 91.1731 124.009 90.6851C124.009 90.1937 124.095 89.8233 124.272 89.5672C124.445 89.3111 124.701 89.1865 125.037 89.1865C125.372 89.1865 125.625 89.3146 125.802 89.5672C125.978 89.8199 126.065 90.1937 126.065 90.6817C126.065 91.1697 125.978 91.5435 125.802 91.7996C125.629 92.0557 125.372 92.1803 125.037 92.1803C124.701 92.1803 124.448 92.0522 124.272 91.7996ZM125.552 91.5988C125.663 91.4016 125.718 91.097 125.718 90.6817C125.718 90.2629 125.663 89.9583 125.556 89.7645C125.445 89.5707 125.276 89.4738 125.04 89.4738C124.808 89.4738 124.635 89.5707 124.524 89.768C124.414 89.9618 124.358 90.2698 124.358 90.6851C124.358 91.1005 124.414 91.405 124.524 91.6023C124.635 91.7996 124.808 91.8965 125.04 91.8965C125.269 91.893 125.442 91.7961 125.552 91.5988Z" fill="black"/>
<path d="M127.764 92.1008C127.733 92.0696 127.716 92.0316 127.716 91.9796V89.3839C127.716 89.3355 127.733 89.2939 127.764 89.2628C127.795 89.2316 127.837 89.2178 127.892 89.2178H129.446C129.495 89.2178 129.536 89.2316 129.564 89.2558C129.592 89.2801 129.606 89.3147 129.606 89.3597C129.606 89.4047 129.592 89.4393 129.564 89.4635C129.536 89.4877 129.498 89.5016 129.446 89.5016H128.055V90.5191H129.363C129.412 90.5191 129.453 90.533 129.481 90.5572C129.509 90.5814 129.522 90.616 129.522 90.661C129.522 90.706 129.509 90.7406 129.481 90.7648C129.453 90.7891 129.415 90.8029 129.363 90.8029H128.055V91.8654H129.446C129.495 91.8654 129.536 91.8758 129.564 91.9C129.592 91.9243 129.606 91.9589 129.606 92.0073C129.606 92.0523 129.592 92.0869 129.564 92.1112C129.536 92.1354 129.498 92.1492 129.446 92.1492H127.892C127.837 92.1492 127.795 92.1319 127.764 92.1008Z" fill="black"/>
<path d="M132.397 90.6609C132.425 90.6851 132.435 90.7197 132.435 90.7647V91.7996C132.435 91.8653 132.425 91.9172 132.404 91.9484C132.383 91.983 132.345 92.0072 132.29 92.028C132.179 92.0764 132.044 92.1111 131.888 92.1387C131.729 92.1664 131.573 92.1803 131.414 92.1803C131.123 92.1803 130.874 92.1214 130.663 92.0003C130.452 91.8826 130.293 91.7096 130.178 91.4846C130.068 91.2597 130.009 90.9932 130.009 90.6782C130.009 90.3702 130.064 90.1037 130.175 89.8822C130.286 89.6607 130.445 89.4842 130.653 89.3665C130.86 89.2454 131.103 89.1865 131.383 89.1865C131.577 89.1865 131.757 89.2177 131.923 89.2765C132.089 89.3353 132.227 89.4219 132.341 89.5326C132.39 89.5811 132.411 89.6295 132.411 89.678C132.411 89.7161 132.4 89.7507 132.376 89.7784C132.355 89.806 132.328 89.8233 132.293 89.8233C132.258 89.8233 132.22 89.806 132.175 89.7749C132.03 89.6641 131.902 89.588 131.784 89.543C131.667 89.498 131.535 89.4772 131.383 89.4772C131.054 89.4772 130.801 89.5811 130.625 89.7887C130.448 89.9964 130.362 90.294 130.362 90.6817C130.362 91.0762 130.452 91.3773 130.628 91.585C130.808 91.7926 131.068 91.893 131.414 91.893C131.67 91.893 131.905 91.8549 132.117 91.7753V90.8859H131.511C131.462 90.8859 131.428 90.872 131.4 90.8478C131.372 90.8236 131.359 90.7924 131.359 90.7509C131.359 90.7094 131.372 90.6782 131.4 90.654C131.428 90.6298 131.466 90.6194 131.511 90.6194H132.286C132.335 90.6228 132.369 90.6367 132.397 90.6609Z" fill="black"/>
<path d="M133.171 92.1215C133.14 92.0904 133.126 92.0489 133.126 91.9935V89.3839C133.126 89.3355 133.143 89.2939 133.174 89.2628C133.206 89.2316 133.247 89.2178 133.302 89.2178H134.285C134.593 89.2178 134.832 89.2939 135.002 89.4427C135.171 89.5916 135.258 89.8027 135.258 90.0796C135.258 90.3564 135.171 90.5676 135.002 90.7198C134.832 90.8721 134.593 90.9483 134.289 90.9483H133.472V91.9935C133.472 92.0454 133.458 92.0869 133.427 92.1215C133.396 92.1527 133.354 92.17 133.302 92.17C133.24 92.17 133.199 92.1527 133.171 92.1215ZM134.919 90.0796C134.919 89.6954 134.697 89.5016 134.251 89.5016H133.465V90.6645H134.251C134.694 90.6645 134.919 90.4707 134.919 90.0796Z" fill="black"/>
<path d="M139.731 97.8011H92.6681C91.8167 97.8011 91.1211 97.1055 91.1211 96.2541C91.1211 95.4027 91.8167 94.707 92.6681 94.707H139.731C140.582 94.707 141.278 95.4027 141.278 96.2541C141.278 97.1055 140.582 97.8011 139.731 97.8011Z" fill="#E0E0E0"/>
</svg>
