<svg width="306" height="79" viewBox="0 0 306 79" fill="none" xmlns="http://www.w3.org/2000/svg">
<path d="M181.904 21.44C180.784 22.1467 179.531 22.5 178.144 22.5C176.544 22.5 175.257 22 174.284 21C173.471 20.1467 173.064 19.1067 173.064 17.88C173.064 17.08 173.257 16.3467 173.644 15.68C174.044 15.0133 174.584 14.5 175.264 14.14C174.011 13.3267 173.384 12.04 173.384 10.28C173.384 8.92 173.857 7.84 174.804 7.04C175.551 6.4 176.431 6.07333 177.444 6.06C178.831 6.06 179.931 6.62667 180.744 7.76V9.38C179.877 8.23333 178.851 7.66 177.664 7.66C176.904 7.66 176.291 7.90667 175.824 8.4C175.357 8.88 175.124 9.52667 175.124 10.34C175.124 11.26 175.397 12 175.944 12.56C176.504 13.1067 177.244 13.38 178.164 13.38H181.704V15H178.204C176.964 15 176.037 15.3333 175.424 16C174.957 16.4933 174.724 17.1133 174.724 17.86C174.724 18.7667 175.044 19.4933 175.684 20.04C176.337 20.6 177.191 20.88 178.244 20.88C179.724 20.8667 180.944 20.5133 181.904 19.82V21.44ZM184.695 15V3.02L186.415 2.1V15H184.695ZM188.407 15L189.247 13.38H192.807C193.34 13.38 193.714 13.2467 193.927 12.98C194.154 12.7133 194.267 12.2533 194.267 11.6C194.267 9.82667 193.447 8.49333 191.807 7.6L192.687 6.12C194.78 7.34667 195.874 9.04 195.967 11.2C195.994 11.9733 196.167 12.5333 196.487 12.88C196.82 13.2133 197.347 13.38 198.067 13.38H199.247V15H197.927C196.82 15 195.954 14.6467 195.327 13.94C194.887 14.6467 194.147 15 193.107 15H188.407ZM198.056 15V13.38H199.376C200.683 13.38 201.336 12.7133 201.336 11.38V7.24L203.056 6.32V11.44C203.056 12.5733 202.716 13.4667 202.036 14.12C201.41 14.7067 200.59 15 199.576 15H198.056ZM199.116 18.98C198.463 18.98 198.136 18.6467 198.136 17.98C198.136 17.3267 198.463 17 199.116 17C199.756 17 200.076 17.3267 200.076 17.98C200.076 18.6467 199.756 18.98 199.116 18.98ZM201.656 18.98C201.003 18.98 200.676 18.6467 200.676 17.98C200.676 17.3267 201.003 17 201.656 17C202.296 17 202.616 17.3267 202.616 17.98C202.616 18.6467 202.296 18.98 201.656 18.98ZM214.068 3.02L215.808 2.1V11.22C215.808 12.4067 215.454 13.3467 214.748 14.04C214.081 14.68 213.208 15 212.128 15H205.248L206.088 13.38H209.008V5.62L210.728 4.7V13.38H211.988C213.374 13.38 214.068 12.6533 214.068 11.2V3.02ZM211.028 17.7C210.734 17.4733 210.454 17.36 210.188 17.36C209.694 17.36 209.448 17.58 209.448 18.02C209.448 18.2467 209.541 18.4733 209.728 18.7H211.548L211.088 19.56H207.788L208.248 18.7H208.788C208.654 18.46 208.588 18.2067 208.588 17.94C208.588 17.5533 208.734 17.2133 209.028 16.92C209.321 16.64 209.668 16.5 210.068 16.5C210.401 16.5 210.721 16.6067 211.028 16.82V17.7ZM219.402 15V3.02L221.122 2.1V15H219.402ZM234.302 14.36C233.795 14.56 233.175 14.66 232.442 14.66C231.255 14.66 230.322 14.2133 229.642 13.32C229.069 12.56 228.782 11.6067 228.782 10.46C228.782 9.04667 229.162 7.94 229.922 7.14C230.602 6.42 231.495 6.06 232.602 6.06C233.735 6.06 234.609 6.41333 235.222 7.12C235.769 7.74667 236.042 8.56667 236.042 9.58V13.94C236.042 15.4467 235.649 16.64 234.862 17.52C234.115 18.3467 233.122 18.76 231.882 18.76C231.055 18.76 230.275 18.5667 229.542 18.18V16.66C230.249 17.0333 230.949 17.22 231.642 17.22C232.429 17.22 233.055 16.9667 233.522 16.46C233.989 15.9667 234.249 15.2667 234.302 14.36ZM234.302 9.66C234.302 8.32667 233.735 7.66 232.602 7.66C231.935 7.66 231.409 7.90667 231.022 8.4C230.649 8.89333 230.462 9.56667 230.462 10.42C230.462 11.26 230.642 11.9333 231.002 12.44C231.375 12.9333 231.875 13.18 232.502 13.18C233.382 13.18 233.982 12.9333 234.302 12.44V9.66ZM260.029 13.38H260.949V15H259.829C258.709 15 257.835 14.6533 257.209 13.96C256.582 14.6533 255.709 15 254.589 15H247.449C246.369 15 245.522 14.64 244.909 13.92C244.375 13.2933 244.109 12.4733 244.109 11.46V9.04L245.829 8.12V11.3C245.829 12.6867 246.475 13.38 247.769 13.38H254.409C255.702 13.38 256.349 12.6867 256.349 11.3V7.24L258.069 6.32V11.38C258.069 12.7133 258.722 13.38 260.029 13.38ZM250.369 17C251.009 17 251.329 17.3267 251.329 17.98C251.329 18.6467 251.009 18.98 250.369 18.98C249.715 18.98 249.389 18.6467 249.389 17.98C249.389 17.3267 249.715 17 250.369 17ZM272.795 13.38H274.095V15H272.775C271.695 15 270.829 14.88 270.175 14.64C269.522 14.3867 268.915 13.9467 268.355 13.32C266.675 14.44 264.715 15 262.475 15H259.755V13.38H262.495C265.202 13.38 267.342 12.4867 268.915 10.7C267.809 8.66 266.462 7.64 264.875 7.64C263.795 7.64 262.682 8.21333 261.535 9.36V7.76C262.655 6.62667 263.842 6.06 265.095 6.06C266.122 6.06 267.115 6.43333 268.075 7.18C269.035 7.91333 269.882 8.96667 270.615 10.34V11.22C270.202 11.74 269.809 12.16 269.435 12.48C270.155 13.08 271.275 13.38 272.795 13.38ZM272.9 15V13.38H274.7C275.993 13.38 276.64 12.7133 276.64 11.38V8.58L278.36 7.66V11.38C278.36 12.7133 279.013 13.38 280.32 13.38H281.24C282.547 13.38 283.2 12.7133 283.2 11.38V7.9L284.92 7V11.38C284.92 12.7133 285.567 13.38 286.86 13.38H287.8C289.107 13.38 289.76 12.7133 289.76 11.38V7.24L291.48 6.32V11.2C291.48 12.6533 292.173 13.38 293.56 13.38H295.22V15H293.42C292.22 15 291.307 14.5933 290.68 13.78C290.12 14.58 289.247 14.9867 288.06 15H286.68C285.507 15 284.633 14.6067 284.06 13.82C283.487 14.5933 282.633 14.9867 281.5 15H280.12C278.973 15 278.1 14.6067 277.5 13.82C276.927 14.6067 276.053 15 274.88 15H272.9ZM294.013 15V13.38H295.073C296.46 13.38 297.153 12.6533 297.153 11.2V3.02L298.893 2.1V11.22C298.893 12.4067 298.54 13.3467 297.833 14.04C297.167 14.68 296.293 15 295.213 15H294.013ZM302.488 15V3.02L304.208 2.1V15H302.488Z" fill="#6654A4"/>
<path d="M25.2918 47C25.2064 47.9173 24.7264 48.6587 23.8518 49.224C23.0091 49.768 21.9264 50.04 20.6038 50.04C18.9611 50.04 17.7238 49.56 16.8918 48.6C16.2731 47.8853 15.9638 47.0053 15.9638 45.96C15.9638 45.0427 16.1984 44.2533 16.6678 43.592L17.7078 43.384C17.1958 44.1627 16.9398 44.9947 16.9398 45.88C16.9398 46.8613 17.2758 47.6453 17.9478 48.232C18.5878 48.7973 19.4731 49.08 20.6038 49.08C21.7664 49.08 22.6784 48.8347 23.3398 48.344C23.8304 47.9813 24.1184 47.5333 24.2038 47H22.5718L23.0838 46.008H25.3398V47H25.2918ZM19.5958 52.68C19.1584 52.68 18.9398 52.4613 18.9398 52.024C18.9398 51.5867 19.1584 51.368 19.5958 51.368C20.0118 51.368 20.2198 51.5867 20.2198 52.024C20.2198 52.4613 20.0118 52.68 19.5958 52.68ZM21.4198 52.68C20.9931 52.68 20.7798 52.4613 20.7798 52.024C20.7798 51.5867 20.9931 51.368 21.4198 51.368C21.8464 51.368 22.0598 51.5867 22.0598 52.024C22.0598 52.4613 21.8464 52.68 21.4198 52.68ZM24.8087 47V46.008H25.2568C26.4727 46.008 27.0807 45.3787 27.0807 44.12V37.24L28.1528 36.68V44.136C28.1528 45.0427 27.8861 45.7573 27.3528 46.28C26.8514 46.76 26.1901 47 25.3688 47H24.8087ZM36.8738 37.24L37.9298 36.68V44.136C37.9298 45.0427 37.6631 45.7573 37.1298 46.28C36.6391 46.76 35.9831 47 35.1618 47H29.9138L30.4258 46.008H32.8738V39.32L33.9298 38.76V46.008H35.0498C36.2658 46.008 36.8738 45.3787 36.8738 44.12V37.24ZM35.0338 37.08C34.7138 37.592 34.3618 37.848 33.9778 37.848C33.7324 37.848 33.4444 37.736 33.1138 37.512C32.8791 37.352 32.6978 37.272 32.5698 37.272C32.3778 37.272 32.1591 37.4427 31.9138 37.784L31.4978 37.48C31.8284 36.9573 32.1804 36.696 32.5538 36.696C32.7671 36.696 33.0231 36.7973 33.3218 37C33.5778 37.1813 33.7911 37.272 33.9618 37.272C34.1324 37.272 34.3511 37.1067 34.6178 36.776L35.0338 37.08ZM40.815 47V37.24L41.887 36.68V47H40.815ZM58.2919 38.088C57.8545 38.088 57.6359 37.864 57.6359 37.416C57.6359 36.9893 57.8545 36.776 58.2919 36.776C58.7079 36.776 58.9159 36.9893 58.9159 37.416C58.9159 37.864 58.7079 38.088 58.2919 38.088ZM51.2839 47C50.4199 47 49.7425 46.712 49.2519 46.136C48.8252 45.624 48.6119 44.968 48.6119 44.168V42.072L49.6839 41.512V44.04C49.6839 45.352 50.2919 46.008 51.5079 46.008H56.0839C55.4972 45.4427 55.2039 44.6 55.2039 43.48C55.2039 42.328 55.5025 41.4373 56.0999 40.808C56.6225 40.2427 57.3159 39.96 58.1799 39.96C59.0652 39.96 59.7479 40.2373 60.2279 40.792C60.6439 41.272 60.8519 41.912 60.8519 42.712V44.248C60.8519 45.1333 60.5799 45.8267 60.0359 46.328C59.5559 46.776 58.9212 47 58.1319 47H51.2839ZM59.7799 42.808C59.7799 41.56 59.2465 40.936 58.1799 40.936C57.5719 40.936 57.0972 41.16 56.7559 41.608C56.4252 42.056 56.2599 42.6747 56.2599 43.464C56.2599 44.232 56.4252 44.8507 56.7559 45.32C57.0865 45.7787 57.5239 46.008 58.0679 46.008C59.2092 46.008 59.7799 45.3893 59.7799 44.152V42.808ZM67.437 46.008H67.997V47H67.309C66.6477 47 66.0983 46.84 65.661 46.52C65.5757 48.2907 64.861 49.4107 63.517 49.88C63.1757 49.9973 62.813 50.056 62.429 50.056C61.8103 50.056 61.213 49.9067 60.637 49.608V48.664C61.181 48.9627 61.7357 49.112 62.301 49.112C62.749 49.112 63.1437 49.0107 63.485 48.808C64.2317 48.36 64.605 47.5227 64.605 46.296V40.712L65.661 40.152V40.168L65.677 40.152V44.184C65.677 45.4 66.2637 46.008 67.437 46.008ZM83.6838 46.008H84.2438V47H83.5558C82.5958 47 81.8758 46.6747 81.3958 46.024C80.9158 46.6747 80.1904 47 79.2198 47H72.7078C71.7478 47 71.0278 46.6747 70.5478 46.024C70.0464 46.6747 69.3211 47 68.3717 47H67.6837V46.008H68.2438C69.4171 46.008 70.0038 45.4 70.0038 44.184V41.88L71.0758 41.32V44.184C71.0758 45.1867 71.4651 45.7733 72.2438 45.944C72.6384 44.3013 73.3264 42.9253 74.3078 41.816C75.4064 40.5787 76.6971 39.96 78.1798 39.96C79.3744 39.96 80.3238 40.3707 81.0278 41.192C81.6251 41.896 81.9238 42.7653 81.9238 43.8V44.216C81.9238 45.4107 82.5104 46.008 83.6838 46.008ZM79.1398 46.008C80.2811 46.008 80.8518 45.3787 80.8518 44.12V43.8C80.8518 42.904 80.5691 42.184 80.0038 41.64C79.5238 41.1707 78.9211 40.936 78.1958 40.936C76.9478 40.936 75.8384 41.5227 74.8678 42.696C74.1318 43.592 73.5771 44.696 73.2038 46.008H79.1398ZM83.9181 47V46.008H84.3661C85.5821 46.008 86.1901 45.3787 86.1901 44.12V37.24L87.2621 36.68V44.136C87.2621 45.0427 86.9955 45.7573 86.4621 46.28C85.9608 46.76 85.2995 47 84.4781 47H83.9181ZM90.1431 47V37.24L91.2151 36.68V47H90.1431ZM102.18 39.56C101.753 39.56 101.54 39.336 101.54 38.888C101.54 38.4613 101.753 38.248 102.18 38.248C102.607 38.248 102.82 38.4613 102.82 38.888C102.82 39.336 102.607 39.56 102.18 39.56ZM104.02 39.56C103.583 39.56 103.364 39.336 103.364 38.888C103.364 38.4613 103.583 38.248 104.02 38.248C104.436 38.248 104.644 38.4613 104.644 38.888C104.644 39.336 104.436 39.56 104.02 39.56ZM100.532 47C99.7427 47 99.1133 46.7547 98.644 46.264C98.1747 45.7627 97.94 45.0907 97.94 44.248V42.152L99.012 41.592V44.12C99.012 45.3787 99.5987 46.008 100.772 46.008H106.132C107.305 46.008 107.892 45.3787 107.892 44.12V40.712L108.964 40.152V44.248C108.964 45.1547 108.687 45.8587 108.132 46.36C107.652 46.7867 107.023 47 106.244 47H100.532ZM114.55 47C113.644 47 112.945 46.7067 112.454 46.12C112.049 45.6187 111.846 44.984 111.846 44.216V37.24L112.918 36.68V44.184C112.918 45.4 113.505 46.008 114.678 46.008H115.238V47H114.55ZM117.59 38.04C117.153 38.04 116.934 37.816 116.934 37.368C116.934 36.9413 117.153 36.728 117.59 36.728C118.006 36.728 118.214 36.9413 118.214 37.368C118.214 37.816 118.006 38.04 117.59 38.04ZM120.07 46.008H120.63V47H119.942C118.982 47 118.262 46.6747 117.782 46.024C117.281 46.6747 116.555 47 115.606 47H114.918V46.008H115.478C116.651 46.008 117.238 45.4 117.238 44.184V40.712L118.31 40.152V44.184C118.31 45.4 118.897 46.008 120.07 46.008ZM125.461 46.008H126.021V47H125.333C124.373 47 123.653 46.6747 123.173 46.024C122.671 46.6747 121.946 47 120.997 47H120.309V46.008H120.869C122.042 46.008 122.629 45.4 122.629 44.184V40.712L123.701 40.152V44.184C123.701 45.4 124.287 46.008 125.461 46.008ZM121.829 48.68C122.255 48.68 122.469 48.8987 122.469 49.336C122.469 49.7733 122.255 49.992 121.829 49.992C121.402 49.992 121.189 49.7733 121.189 49.336C121.189 48.8987 121.402 48.68 121.829 48.68ZM123.653 48.68C124.079 48.68 124.293 48.8987 124.293 49.336C124.293 49.7733 124.079 49.992 123.653 49.992C123.226 49.992 123.013 49.7733 123.013 49.336C123.013 48.8987 123.226 48.68 123.653 48.68ZM128.227 40.392C128.334 40.3813 128.446 40.376 128.563 40.376C129.523 40.376 130.345 40.6107 131.027 41.08C131.966 41.752 132.435 42.712 132.435 43.96V44.264C132.435 45.16 132.158 45.8587 131.603 46.36C131.123 46.7867 130.499 47 129.731 47H125.699V46.008H129.619C130.782 46.008 131.363 45.384 131.363 44.136V43.976C131.363 43.112 131.054 42.4667 130.435 42.04C129.923 41.656 129.273 41.464 128.483 41.464C127.907 41.464 127.337 41.5653 126.771 41.768V40.712L130.403 36.68H131.507L128.227 40.392ZM137.535 47C136.628 47 135.929 46.7067 135.439 46.12C135.033 45.6187 134.831 44.984 134.831 44.216V37.24L135.903 36.68V44.184C135.903 45.4 136.489 46.008 137.663 46.008H138.223V47H137.535ZM140.223 42.712C140.223 41.8053 140.495 41.1013 141.039 40.6C141.508 40.1733 142.127 39.96 142.895 39.96C143.887 39.96 144.649 40.3227 145.183 41.048C145.641 41.6667 145.871 42.4773 145.871 43.48C145.871 44.6213 145.577 45.512 144.991 46.152C144.479 46.7173 143.812 47 142.991 47C141.988 47 141.241 46.68 140.751 46.04C140.271 46.68 139.551 47 138.59 47H137.902V46.008H138.463C139.636 46.008 140.223 45.4 140.223 44.184V42.712ZM141.295 44.248C141.295 45.4213 141.871 46.008 143.023 46.008C143.577 46.008 144.015 45.784 144.335 45.336C144.655 44.888 144.815 44.264 144.815 43.464C144.815 42.6747 144.644 42.056 144.303 41.608C143.972 41.16 143.503 40.936 142.895 40.936C141.828 40.936 141.295 41.56 141.295 42.808V44.248ZM156.026 39.672C155.589 39.672 155.37 39.448 155.37 39C155.37 38.5733 155.589 38.36 156.026 38.36C156.442 38.36 156.65 38.5733 156.65 39C156.65 39.448 156.442 39.672 156.026 39.672ZM161.946 46.008H162.506V47H161.818C161.157 47 160.607 46.8453 160.17 46.536C160.095 47.656 159.647 48.536 158.826 49.176C158.101 49.752 157.183 50.04 156.074 50.04C154.719 50.04 153.669 49.56 152.922 48.6C152.335 47.864 152.042 46.984 152.042 45.96C152.042 45.0427 152.277 44.2533 152.746 43.592L153.786 43.384C153.274 44.1627 153.018 44.9947 153.018 45.88C153.018 46.8187 153.322 47.592 153.93 48.2C154.495 48.7653 155.21 49.048 156.074 49.048C157.087 49.048 157.871 48.7493 158.426 48.152C158.885 47.6613 159.114 47.016 159.114 46.216V40.712L160.186 40.152V44.184C160.186 45.4 160.773 46.008 161.946 46.008ZM164.504 42.712C164.504 41.8053 164.776 41.1013 165.32 40.6C165.789 40.1733 166.408 39.96 167.176 39.96C168.168 39.96 168.93 40.3227 169.464 41.048C169.922 41.6667 170.152 42.4773 170.152 43.48C170.152 44.6213 169.858 45.512 169.272 46.152C168.76 46.7173 168.093 47 167.272 47C166.269 47 165.522 46.68 165.032 46.04C164.552 46.68 163.832 47 162.872 47H162.184V46.008H162.744C163.917 46.008 164.504 45.4 164.504 44.184V42.712ZM165.576 44.248C165.576 45.4213 166.152 46.008 167.304 46.008C167.858 46.008 168.296 45.784 168.616 45.336C168.936 44.888 169.096 44.264 169.096 43.464C169.096 42.6747 168.925 42.056 168.584 41.608C168.253 41.16 167.784 40.936 167.176 40.936C166.109 40.936 165.576 41.56 165.576 42.808V44.248ZM193.779 40.712L194.851 40.152V44.216C194.851 45.1013 194.584 45.8 194.051 46.312C193.571 46.7707 192.936 47 192.147 47H191.299C190.328 47 189.603 46.6693 189.123 46.008C188.643 46.6693 187.918 47 186.947 47H186.099C185.47 47 184.92 46.8453 184.451 46.536C184.376 47.656 183.928 48.536 183.107 49.176C182.382 49.752 181.464 50.04 180.355 50.04C179 50.04 177.95 49.56 177.203 48.6C176.616 47.864 176.323 46.984 176.323 45.96C176.323 45.0427 176.558 44.2533 177.027 43.592L178.067 43.384C177.555 44.1627 177.299 44.9947 177.299 45.88C177.299 46.8187 177.603 47.592 178.211 48.2C178.776 48.7653 179.491 49.048 180.355 49.048C181.368 49.048 182.152 48.7493 182.707 48.152C183.166 47.6613 183.395 47.016 183.395 46.216V41.88L184.467 41.32V44.184C184.467 45.4 185.059 46.008 186.243 46.008H186.819C188.003 46.008 188.595 45.4 188.595 44.184V41.304L189.651 40.728V44.184C189.651 45.4 190.243 46.008 191.427 46.008H192.019C193.192 46.008 193.779 45.4 193.779 44.184V40.712ZM204.761 46.008V47H203.065C203.054 47.704 202.825 48.3227 202.377 48.856C201.94 49.4 201.369 49.7573 200.665 49.928C200.409 50.0027 200.132 50.04 199.833 50.04C199.214 50.04 198.612 49.8907 198.025 49.592V48.648C198.58 48.9467 199.129 49.096 199.673 49.096C200.11 49.096 200.494 49 200.825 48.808C201.156 48.6373 201.433 48.376 201.657 48.024C201.881 47.6827 201.993 47.3413 201.993 47L200.633 46.952C199.449 46.8987 198.564 46.5253 197.977 45.832C197.497 45.2453 197.257 44.4613 197.257 43.48C197.257 42.328 197.556 41.4373 198.153 40.808C198.686 40.2427 199.401 39.96 200.297 39.96C201.225 39.96 201.934 40.2373 202.425 40.792C202.852 41.272 203.065 41.912 203.065 42.712V46.008H204.761ZM201.993 42.824C201.993 41.5653 201.428 40.936 200.297 40.936C199.668 40.936 199.177 41.16 198.825 41.608C198.484 42.0453 198.313 42.664 198.313 43.464C198.313 45.0533 199.097 45.8853 200.665 45.96C201.134 45.992 201.577 46.008 201.993 46.008V42.824ZM209.538 46.008H210.098V47H209.41C208.428 47 207.698 46.664 207.218 45.992C206.716 46.664 205.975 47 204.994 47H204.434V46.008H204.882C206.098 46.008 206.706 45.3787 206.706 44.12V37.24L207.778 36.68V44.184C207.778 45.4 208.364 46.008 209.538 46.008ZM214.641 38.072C214.204 38.072 213.986 37.848 213.986 37.4C213.986 36.9733 214.204 36.76 214.641 36.76C215.058 36.76 215.266 36.9733 215.266 37.4C215.266 37.848 215.058 38.072 214.641 38.072ZM209.777 47V46.008H212.498C211.911 45.4213 211.618 44.5787 211.618 43.48C211.618 42.328 211.916 41.4373 212.514 40.808C213.036 40.2427 213.73 39.96 214.594 39.96C215.479 39.96 216.162 40.2373 216.642 40.792C217.058 41.272 217.266 41.912 217.266 42.712V44.264C217.255 45.128 216.994 45.8053 216.482 46.296C216.012 46.7653 215.372 47 214.562 47H209.777ZM216.21 42.808C216.21 41.56 215.671 40.936 214.594 40.936C213.996 40.936 213.527 41.16 213.186 41.608C212.855 42.0453 212.69 42.664 212.69 43.464C212.69 44.2427 212.85 44.8613 213.17 45.32C213.5 45.7787 213.938 46.008 214.482 46.008C215.634 46.008 216.21 45.4107 216.21 44.216V42.808ZM230.439 52.168C229.564 52.7227 228.577 53 227.479 53C226.199 53 225.185 52.6 224.439 51.8C223.82 51.1387 223.511 50.3547 223.511 49.448C223.511 48.7867 223.681 48.1893 224.023 47.656C224.364 47.1227 224.828 46.7227 225.415 46.456C224.327 45.8373 223.783 44.7813 223.783 43.288C223.783 42.2107 224.151 41.3573 224.887 40.728C225.463 40.2267 226.151 39.9707 226.951 39.96C228.039 39.96 228.897 40.392 229.527 41.256V42.312C228.876 41.3947 228.049 40.936 227.047 40.936C226.385 40.936 225.852 41.16 225.447 41.608C225.041 42.0453 224.839 42.616 224.839 43.32C224.839 44.1413 225.084 44.7973 225.575 45.288C226.044 45.768 226.673 46.008 227.463 46.008H230.295V47H227.495C226.46 47 225.676 47.2827 225.143 47.848C224.737 48.2747 224.535 48.8027 224.535 49.432C224.535 50.2 224.817 50.8293 225.383 51.32C225.916 51.7787 226.615 52.008 227.479 52.008H227.511C228.727 52.008 229.703 51.736 230.439 51.192V52.168ZM231.394 47L231.906 46.008H234.914C235.405 46.008 235.746 45.8853 235.938 45.64C236.141 45.3947 236.242 44.968 236.242 44.36C236.242 42.8027 235.56 41.6347 234.194 40.856L234.706 39.976C236.445 40.9893 237.314 42.456 237.314 44.376C237.314 46.1253 236.573 47 235.09 47H231.394ZM239.862 47V37.24L240.934 36.68V47H239.862ZM251.755 46.408C251.307 46.664 250.731 46.792 250.027 46.792C249.099 46.792 248.373 46.4347 247.851 45.72C247.403 45.112 247.179 44.344 247.179 43.416C247.179 42.296 247.477 41.4213 248.075 40.792C248.597 40.2373 249.291 39.96 250.155 39.96C251.04 39.96 251.723 40.2373 252.203 40.792C252.619 41.272 252.827 41.912 252.827 42.712V46.232C252.827 47.224 252.619 48.04 252.203 48.68C251.787 49.3307 251.195 49.7467 250.427 49.928C250.171 50.0027 249.893 50.04 249.595 50.04C248.976 50.04 248.373 49.8907 247.787 49.592V48.648C248.341 48.9467 248.891 49.096 249.435 49.096C249.872 49.096 250.256 49 250.587 48.808C251.333 48.4347 251.723 47.6347 251.755 46.408ZM251.755 42.808C251.755 41.56 251.221 40.936 250.155 40.936C249.557 40.936 249.083 41.1547 248.731 41.592C248.389 42.0293 248.219 42.632 248.219 43.4C248.219 44.1467 248.384 44.744 248.715 45.192C249.045 45.6293 249.493 45.848 250.059 45.848C250.901 45.848 251.467 45.6133 251.755 45.144V42.808ZM255.549 47V37.24L256.621 36.68V47H255.549ZM276.13 46.008H276.69V47H276.002C275.042 47 274.322 46.6747 273.842 46.024C273.341 46.6747 272.61 47 271.65 47H265.938C265.149 47 264.52 46.7547 264.05 46.264C263.581 45.7627 263.346 45.0907 263.346 44.248V42.152L264.418 41.592V44.12C264.418 45.3787 265.005 46.008 266.178 46.008H271.538C272.712 46.008 273.298 45.3787 273.298 44.12V40.712L274.37 40.152V44.184C274.37 45.4 274.957 46.008 276.13 46.008ZM268.162 48.68C268.578 48.68 268.786 48.8933 268.786 49.32C268.786 49.768 268.578 49.992 268.162 49.992C267.725 49.992 267.506 49.768 267.506 49.32C267.506 48.8933 267.725 48.68 268.162 48.68ZM286.155 46.008H286.715V47H286.139C285.254 47 284.544 46.8987 284.011 46.696C283.488 46.4933 283.003 46.136 282.555 45.624C281.19 46.5413 279.611 47 277.819 47H276.043V46.008H277.835C280.16 46.008 281.974 45.2187 283.275 43.64C282.326 41.8267 281.179 40.92 279.835 40.92C278.918 40.92 278.022 41.384 277.147 42.312V41.256C278.022 40.392 278.934 39.96 279.883 39.96H279.915C281.59 39.96 283.04 41.0907 284.267 43.352V44.008C283.936 44.4347 283.584 44.8027 283.211 45.112C283.552 45.4427 283.936 45.6773 284.363 45.816C284.8 45.944 285.398 46.008 286.155 46.008ZM286.402 47V46.008H287.379C288.563 46.008 289.155 45.4 289.155 44.184V41.88L290.227 41.32V44.184C290.227 45.4 290.813 46.008 291.987 46.008H292.579C293.752 46.008 294.339 45.4 294.339 44.184V41.304L295.411 40.728V44.184C295.411 45.4 296.003 46.008 297.187 46.008H297.763C298.947 46.008 299.539 45.4 299.539 44.184V40.712L300.611 40.152V44.216C300.611 45.1013 300.349 45.7947 299.827 46.296C299.357 46.7547 298.723 46.9893 297.923 47H297.043C296.051 47 295.331 46.648 294.883 45.944C294.424 46.648 293.709 47 292.739 47H291.859C290.867 47 290.141 46.648 289.683 45.944C289.235 46.648 288.515 47 287.523 47H286.402ZM303.487 47V37.24L304.559 36.68V47H303.487ZM134.997 62.904C134.603 62.904 134.405 62.7013 134.405 62.296C134.405 61.912 134.603 61.72 134.997 61.72C135.381 61.72 135.573 61.912 135.573 62.296C135.573 62.7013 135.381 62.904 134.997 62.904ZM134.085 64.568C133.659 64.568 133.445 64.3493 133.445 63.912C133.445 63.4747 133.659 63.256 134.085 63.256C134.512 63.256 134.725 63.4747 134.725 63.912C134.725 64.3493 134.512 64.568 134.085 64.568ZM135.269 63.912C135.269 63.4747 135.488 63.256 135.925 63.256C136.341 63.256 136.549 63.4747 136.549 63.912C136.549 64.3493 136.341 64.568 135.925 64.568C135.488 64.568 135.269 64.3493 135.269 63.912ZM139.685 66.712L140.757 66.152V70.216C140.757 71.1013 140.491 71.8 139.957 72.312C139.477 72.7707 138.843 73 138.053 73H137.205C136.235 73 135.509 72.6693 135.029 72.008C134.549 72.6693 133.824 73 132.853 73H132.005C131.376 73 130.827 72.8453 130.357 72.536C130.283 73.656 129.835 74.536 129.013 75.176C128.288 75.752 127.371 76.04 126.261 76.04C124.907 76.04 123.856 75.56 123.109 74.6C122.523 73.864 122.229 72.984 122.229 71.96C122.229 71.0427 122.464 70.2533 122.933 69.592L123.973 69.384C123.461 70.1627 123.205 70.9947 123.205 71.88C123.205 72.8187 123.509 73.592 124.117 74.2C124.683 74.7653 125.397 75.048 126.261 75.048C127.275 75.048 128.059 74.7493 128.613 74.152C129.072 73.6613 129.301 73.016 129.301 72.216V67.88L130.373 67.32V70.184C130.373 71.4 130.965 72.008 132.149 72.008H132.725C133.909 72.008 134.501 71.4 134.501 70.184V67.304L135.557 66.728V70.184C135.557 71.4 136.149 72.008 137.333 72.008H137.925C139.099 72.008 139.685 71.4 139.685 70.184V66.712ZM146.347 73C145.44 73 144.742 72.7067 144.251 72.12C143.846 71.6187 143.643 70.984 143.643 70.216V63.24L144.715 62.68V70.184C144.715 71.4 145.302 72.008 146.475 72.008H147.035V73H146.347ZM149.243 66.392C149.35 66.3813 149.462 66.376 149.579 66.376C150.539 66.376 151.36 66.6107 152.043 67.08C152.982 67.752 153.451 68.712 153.451 69.96V70.264C153.451 71.16 153.174 71.8587 152.619 72.36C152.139 72.7867 151.515 73 150.747 73H146.715V72.008H150.635C151.798 72.008 152.379 71.384 152.379 70.136V69.976C152.379 69.112 152.07 68.4667 151.451 68.04C150.939 67.656 150.288 67.464 149.499 67.464C148.923 67.464 148.352 67.5653 147.787 67.768V66.712L151.419 62.68H152.523L149.243 66.392ZM168.042 68.2C167.37 67.432 166.623 67.048 165.802 67.048C165.343 67.048 164.981 67.1867 164.714 67.464C164.447 67.7307 164.314 68.0987 164.314 68.568V68.6C164.325 69.0907 164.474 69.4747 164.762 69.752C165.05 70.0293 165.61 70.312 166.442 70.6C167.317 70.9093 167.909 71.2187 168.218 71.528C168.538 71.8373 168.698 72.2747 168.698 72.84C168.698 73.7893 168.245 74.568 167.338 75.176C166.485 75.752 165.375 76.04 164.01 76.04C162.367 76.04 161.13 75.56 160.298 74.6C159.679 73.8853 159.37 73.0053 159.37 71.96C159.37 71.0427 159.605 70.2533 160.074 69.592L161.114 69.384C160.602 70.1627 160.346 70.9947 160.346 71.88C160.346 72.8507 160.682 73.624 161.354 74.2C162.005 74.7653 162.89 75.048 164.01 75.048C165.237 75.048 166.186 74.792 166.858 74.28C167.381 73.8747 167.642 73.3947 167.642 72.84C167.642 72.5093 167.525 72.248 167.29 72.056C167.055 71.864 166.591 71.6453 165.898 71.4C165.002 71.08 164.378 70.7653 164.026 70.456C163.525 69.9973 163.274 69.3733 163.274 68.584C163.274 67.7627 163.567 67.1173 164.154 66.648C164.613 66.2853 165.135 66.104 165.722 66.104C166.661 66.104 167.434 66.456 168.042 67.16V68.2ZM163.002 78.68C162.565 78.68 162.346 78.4613 162.346 78.024C162.346 77.5867 162.565 77.368 163.002 77.368C163.418 77.368 163.626 77.5867 163.626 78.024C163.626 78.4613 163.418 78.68 163.002 78.68ZM164.826 78.68C164.399 78.68 164.186 78.4613 164.186 78.024C164.186 77.5867 164.399 77.368 164.826 77.368C165.253 77.368 165.466 77.5867 165.466 78.024C165.466 78.4613 165.253 78.68 164.826 78.68ZM174.006 64.04C173.568 64.04 173.35 63.816 173.35 63.368C173.35 62.9413 173.568 62.728 174.006 62.728C174.422 62.728 174.63 62.9413 174.63 63.368C174.63 63.816 174.422 64.04 174.006 64.04ZM176.406 72.008H176.966V73H176.278C175.616 73 175.067 72.84 174.63 72.52C174.544 74.2907 173.83 75.4107 172.486 75.88C172.144 75.9973 171.782 76.056 171.398 76.056C170.779 76.056 170.182 75.9067 169.606 75.608V74.664C170.15 74.9627 170.704 75.112 171.27 75.112C171.718 75.112 172.112 75.0107 172.454 74.808C173.2 74.36 173.574 73.5227 173.574 72.296V66.712L174.63 66.152V66.168L174.646 66.152V70.184C174.646 71.4 175.232 72.008 176.406 72.008ZM176.652 73V72.008H177.213C178.386 72.008 178.973 71.4 178.973 70.184V66.712L180.045 66.152V70.216C180.045 71.112 179.783 71.8107 179.261 72.312C178.781 72.7707 178.141 73 177.34 73H176.652ZM177.181 75.992C176.743 75.992 176.524 75.768 176.524 75.32C176.524 74.8933 176.743 74.68 177.181 74.68C177.597 74.68 177.805 74.8933 177.805 75.32C177.805 75.768 177.597 75.992 177.181 75.992ZM179.005 75.992C178.567 75.992 178.349 75.768 178.349 75.32C178.349 74.8933 178.567 74.68 179.005 74.68C179.421 74.68 179.629 74.8933 179.629 75.32C179.629 75.768 179.421 75.992 179.005 75.992ZM182.924 73V63.24L183.996 62.68V73H182.924ZM197.185 72.008H197.729V73H197.041C195.9 73 195.105 72.552 194.657 71.656C194.103 72.232 193.42 72.52 192.609 72.52C191.692 72.52 190.967 72.1733 190.433 71.48C189.985 70.8933 189.761 70.1627 189.761 69.288C189.761 68.264 190.06 67.4427 190.657 66.824C191.18 66.28 191.825 66.008 192.593 66.008C193.287 66.008 193.868 66.2107 194.337 66.616V65.752L195.409 65.192V70.184C195.409 71.4 196.001 72.008 197.185 72.008ZM194.337 67.832C193.868 67.2667 193.297 66.984 192.625 66.984C192.092 66.984 191.655 67.2027 191.313 67.64C190.983 68.0667 190.817 68.6213 190.817 69.304C190.817 69.9973 190.983 70.552 191.313 70.968C191.655 71.384 192.097 71.592 192.641 71.592C193.335 71.592 193.911 71.288 194.369 70.68C194.348 70.488 194.337 70.3333 194.337 70.216V67.832ZM212.123 72.008V73H211.435C210.539 73 209.845 72.712 209.355 72.136C208.971 72.712 208.352 73 207.499 73H197.402V72.008H200.107V63.24L201.099 62.68V69.4C202.347 67.1067 204 65.96 206.059 65.96C207.253 65.96 208.203 66.3707 208.907 67.192C209.504 67.896 209.803 68.7653 209.803 69.8V70.216C209.803 71.4107 210.395 72.008 211.579 72.008H212.123ZM208.731 69.8C208.731 68.904 208.448 68.184 207.883 67.64C207.403 67.1707 206.8 66.936 206.075 66.936C204.827 66.936 203.717 67.5387 202.747 68.744C202.011 69.6507 201.467 70.7387 201.115 72.008H207.387C207.899 72.008 208.251 71.8907 208.443 71.656C208.635 71.4107 208.731 70.968 208.731 70.328V69.8ZM205.963 64.04C205.525 64.04 205.307 63.816 205.307 63.368C205.307 62.9413 205.525 62.728 205.963 62.728C206.379 62.728 206.587 62.9413 206.587 63.368C206.587 63.816 206.379 64.04 205.963 64.04ZM216.465 64.088C216.027 64.088 215.809 63.864 215.809 63.416C215.809 62.9893 216.027 62.776 216.465 62.776C216.881 62.776 217.089 62.9893 217.089 63.416C217.089 63.864 216.881 64.088 216.465 64.088ZM218.097 72.008H221.025V73H217.409C217.046 73 216.715 72.9627 216.417 72.888C216.118 72.9627 215.787 73 215.425 73H211.809V72.008H214.753C213.91 71.2293 213.489 70.3067 213.489 69.24C213.489 68.2053 213.777 67.384 214.353 66.776C214.875 66.232 215.563 65.96 216.417 65.96C217.387 65.96 218.139 66.312 218.673 67.016C219.121 67.6027 219.345 68.344 219.345 69.24C219.345 70.3173 218.929 71.24 218.097 72.008ZM216.481 71.864C217.025 71.672 217.467 71.3307 217.809 70.84C218.161 70.3387 218.337 69.8 218.337 69.224C218.337 68.52 218.161 67.9653 217.809 67.56C217.467 67.144 217.003 66.936 216.417 66.936C215.83 66.936 215.366 67.144 215.025 67.56C214.683 67.9653 214.513 68.5147 214.513 69.208C214.513 69.7947 214.683 70.3387 215.025 70.84C215.366 71.3307 215.809 71.672 216.353 71.864L216.417 71.88L216.449 71.864H216.481ZM230.811 72.008H231.371V73H230.795C229.91 73 229.201 72.8987 228.667 72.696C228.145 72.4933 227.659 72.136 227.211 71.624C225.846 72.5413 224.267 73 222.475 73H220.699V72.008H222.491C224.817 72.008 226.63 71.2187 227.931 69.64C226.982 67.8267 225.835 66.92 224.491 66.92C223.574 66.92 222.678 67.384 221.803 68.312V67.256C222.678 66.392 223.59 65.96 224.539 65.96H224.571C226.246 65.96 227.697 67.0907 228.923 69.352V70.008C228.593 70.4347 228.241 70.8027 227.867 71.112C228.209 71.4427 228.593 71.6773 229.019 71.816C229.457 71.944 230.054 72.008 230.811 72.008ZM233.379 68.712C233.379 67.8053 233.651 67.1013 234.195 66.6C234.664 66.1733 235.283 65.96 236.051 65.96C237.043 65.96 237.805 66.3227 238.339 67.048C238.797 67.6667 239.027 68.4773 239.027 69.48C239.027 70.6213 238.733 71.512 238.147 72.152C237.635 72.7173 236.968 73 236.147 73C235.144 73 234.397 72.68 233.907 72.04C233.427 72.68 232.707 73 231.747 73H231.059V72.008H231.619C232.792 72.008 233.379 71.4 233.379 70.184V68.712ZM234.451 70.248C234.451 71.4213 235.027 72.008 236.179 72.008C236.733 72.008 237.171 71.784 237.491 71.336C237.811 70.888 237.971 70.264 237.971 69.464C237.971 68.6747 237.8 68.056 237.459 67.608C237.128 67.16 236.659 66.936 236.051 66.936C234.984 66.936 234.451 67.56 234.451 68.808V70.248ZM247.054 72.008C246.553 71.368 246.302 70.5253 246.302 69.48C246.302 68.328 246.601 67.4373 247.198 66.808C247.721 66.2427 248.414 65.96 249.278 65.96C250.163 65.96 250.846 66.2373 251.326 66.792C251.742 67.272 251.95 67.912 251.95 68.712V70.344C251.95 71.1547 251.71 71.8 251.23 72.28C250.75 72.7493 250.094 72.9893 249.262 73H247.23C246.057 73 245.47 73.608 245.47 74.824V77.48L244.398 78.04V74.792C244.398 73.9067 244.659 73.2133 245.182 72.712C245.651 72.2533 246.275 72.0187 247.054 72.008ZM250.878 70.248V68.808C250.878 67.56 250.345 66.936 249.278 66.936C248.67 66.936 248.195 67.16 247.854 67.608C247.523 68.056 247.358 68.6747 247.358 69.464C247.358 70.264 247.518 70.888 247.838 71.336C248.158 71.784 248.601 72.008 249.166 72.008C250.307 72.008 250.878 71.4213 250.878 70.248ZM254.674 73V63.24L255.746 62.68V73H254.674ZM257.348 73L257.86 72.008H260.868C261.358 72.008 261.7 71.8853 261.891 71.64C262.094 71.3947 262.196 70.968 262.196 70.36C262.196 68.792 261.508 67.624 260.132 66.856L260.66 65.976C262.356 66.9573 263.22 68.3387 263.252 70.12C263.262 71.3787 263.876 72.008 265.092 72.008H265.588V73H264.98C264.052 73 263.342 72.6907 262.852 72.072C262.489 72.6907 261.886 73 261.044 73H257.348ZM269.742 64.04C269.305 64.04 269.086 63.816 269.086 63.368C269.086 62.9413 269.305 62.728 269.742 62.728C270.158 62.728 270.366 62.9413 270.366 63.368C270.366 63.816 270.158 64.04 269.742 64.04ZM275.374 72.008H275.934V73H275.358C274.473 73 273.763 72.8987 273.23 72.696C272.707 72.4933 272.222 72.136 271.774 71.624C270.409 72.5413 268.83 73 267.038 73H265.262V72.008H267.054C269.379 72.008 271.193 71.2187 272.494 69.64C271.545 67.8267 270.398 66.92 269.054 66.92C268.137 66.92 267.241 67.384 266.366 68.312V67.256C267.241 66.392 268.153 65.96 269.102 65.96H269.134C270.809 65.96 272.259 67.0907 273.486 69.352V70.008C273.155 70.4347 272.803 70.8027 272.43 71.112C272.771 71.4427 273.155 71.6773 273.582 71.816C274.019 71.944 274.617 72.008 275.374 72.008ZM277.237 64.088C276.811 64.088 276.597 63.8693 276.597 63.432C276.597 62.9947 276.811 62.776 277.237 62.776C277.664 62.776 277.877 62.9947 277.877 63.432C277.877 63.8693 277.664 64.088 277.237 64.088ZM279.061 64.088C278.635 64.088 278.421 63.8693 278.421 63.432C278.421 62.9947 278.635 62.776 279.061 62.776C279.488 62.776 279.701 62.9947 279.701 63.432C279.701 63.8693 279.488 64.088 279.061 64.088ZM280.773 72.008H281.333V73H280.645C279.685 73 278.965 72.6747 278.485 72.024C277.984 72.6747 277.259 73 276.309 73H275.621V72.008H276.181C277.355 72.008 277.941 71.4 277.941 70.184V66.712L279.013 66.152V70.184C279.013 71.4 279.6 72.008 280.773 72.008ZM281.012 73V72.008H281.988C283.172 72.008 283.764 71.4 283.764 70.184V67.88L284.836 67.32V70.184C284.836 71.4 285.423 72.008 286.596 72.008H287.188C288.361 72.008 288.948 71.4 288.948 70.184V67.304L290.02 66.728V70.184C290.02 71.4 290.612 72.008 291.796 72.008H292.372C293.556 72.008 294.148 71.4 294.148 70.184V66.712L295.22 66.152V70.216C295.22 71.1013 294.959 71.7947 294.436 72.296C293.967 72.7547 293.332 72.9893 292.532 73H291.652C290.66 73 289.94 72.648 289.492 71.944C289.033 72.648 288.319 73 287.348 73H286.468C285.476 73 284.751 72.648 284.292 71.944C283.844 72.648 283.124 73 282.132 73H281.012ZM300.8 73C299.894 73 299.195 72.7067 298.704 72.12C298.299 71.6187 298.096 70.984 298.096 70.216V63.24L299.168 62.68V70.184C299.168 71.4 299.755 72.008 300.928 72.008H301.488V73H300.8ZM301.168 73V72.008H301.728C302.901 72.008 303.488 71.4 303.488 70.184V66.712L304.56 66.152V70.216C304.56 71.112 304.299 71.8107 303.776 72.312C303.296 72.7707 302.656 73 301.856 73H301.168ZM303.296 75.992C302.859 75.992 302.64 75.768 302.64 75.32C302.64 74.8933 302.859 74.68 303.296 74.68C303.712 74.68 303.92 74.8933 303.92 75.32C303.92 75.768 303.712 75.992 303.296 75.992Z" fill="#656668"/>
</svg>
