<svg width="167" height="207" viewBox="0 0 167 207" fill="none" xmlns="http://www.w3.org/2000/svg">
<path d="M93.7585 177.357C123.394 161.374 140.971 136.462 133.018 121.715C125.064 106.967 94.5918 107.968 64.9559 123.951C35.32 139.934 17.7431 164.846 25.6967 179.594C33.6503 194.342 64.1226 193.34 93.7585 177.357Z" fill="#E0E0E0"/>
<path d="M123.233 142.315C129.159 135.253 138.441 130.644 148.879 127.931C159.184 125.248 161.031 118.908 154.203 116.85C146.46 114.516 136.799 118.805 130.567 124.767C119.708 135.156 118.349 143.109 118.349 143.109L123.233 142.315Z" fill="#F05665"/>
<path opacity="0.15" d="M123.233 142.315C129.159 135.253 138.441 130.644 148.879 127.931C159.184 125.248 161.031 118.908 154.203 116.85C146.46 114.516 136.799 118.805 130.567 124.767C119.708 135.156 118.349 143.109 118.349 143.109L123.233 142.315Z" fill="black"/>
<path d="M120.183 141.905C120.141 141.905 120.093 141.893 120.051 141.875C119.901 141.803 119.841 141.623 119.913 141.472C128.708 123.425 148.169 118.985 152.903 119.322C153.072 119.334 153.192 119.479 153.18 119.647C153.168 119.815 153.012 119.936 152.855 119.924C148.235 119.569 129.111 123.972 120.448 141.737C120.4 141.839 120.292 141.905 120.183 141.905Z" fill="white"/>
<path d="M118.349 144.192C118.349 145.467 119.732 146.244 120.833 145.6C126.344 142.393 134.381 140.619 147.393 144.318C154.311 146.286 157.716 144.968 159.172 142.153C160.79 139.025 157.361 135.999 153.451 134.573C140.138 129.706 128.124 133.027 118.349 142.736V144.192Z" fill="#F05665"/>
<path d="M119.107 144.451C119.022 144.451 118.944 144.415 118.884 144.349C118.776 144.223 118.782 144.036 118.908 143.922C130.404 133.647 148.211 135.65 154.949 139.657C155.093 139.741 155.141 139.927 155.051 140.072C154.967 140.216 154.78 140.258 154.636 140.174C148.03 136.246 130.579 134.297 119.305 144.373C119.245 144.427 119.173 144.451 119.107 144.451Z" fill="white"/>
<path d="M35.9077 163.828C30.8545 156.116 22.1797 150.449 12.1394 146.521C2.21931 142.641 1.13647 136.125 8.16291 134.892C16.1278 133.491 25.2177 138.887 30.6981 145.54C40.2571 157.139 40.6662 165.194 40.6662 165.194L35.9077 163.828Z" fill="#F05665"/>
<path opacity="0.15" d="M35.9077 163.828C30.8545 156.116 22.1797 150.449 12.1394 146.521C2.21931 142.641 1.13647 136.125 8.16291 134.892C16.1278 133.491 25.2177 138.887 30.6981 145.54C40.2571 157.139 40.6662 165.194 40.6662 165.194L35.9077 163.828Z" fill="black"/>
<path d="M38.9874 163.78C39.0295 163.786 39.0777 163.78 39.1198 163.768C39.2762 163.714 39.3604 163.54 39.3063 163.383C32.7009 144.427 13.8956 137.72 9.16115 137.497C8.99271 137.491 8.85435 137.618 8.84833 137.786C8.84232 137.954 8.98068 138.093 9.13709 138.099C13.7692 138.291 32.2377 144.921 38.7408 163.582C38.7769 163.696 38.8731 163.768 38.9874 163.78Z" fill="white"/>
<path d="M40.7082 164.827C40.4856 166.686 38.3801 167.654 36.828 166.608C31.7266 163.191 24.1287 160.977 11.682 162.968C4.58338 164.105 1.35891 162.397 0.239977 159.431C-0.999276 156.134 2.76661 153.535 6.81523 152.579C20.6094 149.324 32.1477 154.041 40.7082 164.827Z" fill="#F05665"/>
<path d="M39.7579 166.439C39.8421 166.451 39.9263 166.427 39.9925 166.367C40.1188 166.259 40.1308 166.066 40.0165 165.94C29.8138 154.383 11.8927 154.269 4.72792 157.452C4.57752 157.518 4.50533 157.698 4.57752 157.849C4.6437 157.999 4.82417 158.071 4.97457 157.999C11.995 154.883 29.5611 154.997 39.5654 166.337C39.6135 166.397 39.6857 166.433 39.7579 166.439Z" fill="white"/>
<path d="M128.63 30.6974L128.539 30.6433C128.533 30.6433 128.533 30.6373 128.527 30.6373L105.595 17.4386C105.589 17.4326 105.583 17.4326 105.571 17.4266L105.439 17.3604V17.3664C94.7246 11.9642 80.4311 13.5825 65.0607 23.5266C34.1757 43.499 10.6359 89.4717 12.4888 126.204C13.4152 144.516 20.4717 157.071 31.1437 162.588V162.594L31.24 162.642C31.246 162.642 31.246 162.648 31.252 162.648L54.1902 175.852C54.1962 175.852 54.1962 175.858 54.2023 175.858L54.3166 175.919V175.913C65.0307 181.333 79.3362 179.715 94.7246 169.77C125.61 149.798 149.149 103.825 147.297 67.0929C146.364 48.7749 139.302 36.2199 128.63 30.6974Z" fill="#37474F"/>
<path d="M53.4023 175.432L31.2522 162.642C31.2341 162.642 31.2341 162.642 31.2341 162.642L31.1319 162.582C20.4659 157.047 13.4093 144.492 12.4889 126.204C11.6648 109.823 15.8939 91.6136 23.552 74.6972L23.7084 74.3242L46.4962 87.8958C38.82 104.806 34.603 123.016 35.4271 139.403C36.3355 157.324 43.1153 169.729 53.4023 175.432Z" fill="#263238"/>
<path d="M94.7185 169.764C125.604 149.792 149.143 103.819 147.284 67.0865C145.432 30.3541 118.89 16.7644 88.0048 36.7368C57.1198 56.7092 33.58 102.682 35.4329 139.414C37.2917 176.147 63.8334 189.736 94.7185 169.764Z" fill="#455A64"/>
<path d="M120.875 27.8457L82.1634 107.579L73.8316 98.5493C71.2628 95.7579 67.5992 94.1577 63.7792 94.1577C60.3261 94.1577 57.0235 95.4451 54.4788 97.7853C48.9382 102.905 48.5953 111.585 53.7088 117.132L75.6604 140.906C78.0908 143.541 81.3994 145.093 84.9788 145.286C85.2315 145.298 85.4842 145.304 85.7368 145.304C86.3925 145.304 87.0543 145.256 87.722 145.16C92.2098 144.492 96.072 141.664 98.0391 137.592L142.436 46.1457C137.9 36.0212 130.32 29.7166 120.875 27.8457Z" fill="#37474F"/>
<path d="M152.314 1.58095C152.073 1.44259 151.826 1.31025 151.568 1.18993C145.66 -1.66757 138.525 0.798904 135.674 6.68836L86.4107 108.151L83.6133 105.119C82.7771 104.216 81.8387 103.47 80.822 102.887C79.3541 102.045 73.1098 98.4292 72.0991 97.8456C67.7196 95.319 62.0106 95.7942 58.0763 99.4097C53.2637 103.855 52.9689 111.393 57.4085 116.206L79.3602 139.986C80.1964 140.889 81.1529 141.647 82.1936 142.242C83.6254 143.06 89.8457 146.664 90.8683 147.253C92.4746 148.186 94.2853 148.733 96.1923 148.835C96.9744 148.878 97.7624 148.847 98.5746 148.733C102.473 148.156 105.824 145.695 107.532 142.164L165.807 22.1309C168.544 16.4821 166.409 9.7143 161.061 6.63422C160.814 6.48984 153.866 2.47731 152.314 1.58095Z" fill="#F05665"/>
<path opacity="0.15" d="M152.314 1.58095C152.073 1.44259 151.826 1.31025 151.568 1.18993C145.66 -1.66757 138.525 0.798904 135.674 6.68836L86.4107 108.151L83.6133 105.119C82.7771 104.216 81.8387 103.47 80.822 102.887C79.3541 102.045 73.1098 98.4292 72.0991 97.8456C67.7196 95.319 62.0106 95.7942 58.0763 99.4097C53.2637 103.855 52.9689 111.393 57.4085 116.206L79.3602 139.986C80.1964 140.889 81.1529 141.647 82.1936 142.242C83.6254 143.06 89.8457 146.664 90.8683 147.253C92.4746 148.186 94.2853 148.733 96.1923 148.835C96.9744 148.878 97.7624 148.847 98.5746 148.733C102.473 148.156 105.824 145.695 107.532 142.164L165.807 22.1309C168.544 16.4821 166.409 9.7143 161.061 6.63422C160.814 6.48984 153.866 2.47731 152.314 1.58095Z" fill="black"/>
<path opacity="0.15" d="M90.8623 147.253C89.8456 146.664 83.6253 143.054 82.1875 142.242C81.1468 141.647 80.1903 140.895 79.3541 139.992L57.4025 116.218C56.4039 115.129 55.6519 113.896 55.1345 112.603L63.8634 117.638C64.3808 118.937 65.1388 120.17 66.1434 121.259L88.095 145.034C88.9132 145.912 89.8456 146.658 90.8623 147.253Z" fill="black"/>
<path opacity="0.15" d="M147.164 8.0715C146.045 9.07012 145.101 10.3034 144.409 11.7291L93.7442 116.091L86.417 108.15L135.674 6.68787C136.366 5.25612 137.317 4.02889 138.436 3.03027L147.164 8.0715Z" fill="black"/>
<path d="M160.303 6.23095C154.395 3.37345 147.261 5.83992 144.409 11.7294L93.7441 116.091L83.6135 105.118C79.1859 100.312 71.6541 100.005 66.8114 104.457C61.9988 108.902 61.704 116.44 66.1437 121.259L88.0953 145.039C90.2008 147.325 93.0763 148.673 96.1865 148.841C96.9686 148.883 97.7566 148.853 98.5688 148.739C102.467 148.161 105.818 145.701 107.526 142.17L165.801 22.1367C168.665 16.2172 166.198 9.08845 160.303 6.23095Z" fill="#F05665"/>
</svg>
