<svg width="590" height="75" viewBox="0 0 590 75" fill="none" xmlns="http://www.w3.org/2000/svg">
<path d="M70.4023 36.3906C70.2617 37.5938 69.8164 38.5234 69.0664 39.1797C68.3216 39.8307 67.3294 40.1562 66.0898 40.1562C64.7461 40.1562 63.668 39.6745 62.8555 38.7109C62.0482 37.7474 61.6445 36.4583 61.6445 34.8438V33.75C61.6445 32.6927 61.832 31.763 62.207 30.9609C62.5872 30.1589 63.1237 29.5443 63.8164 29.1172C64.5091 28.6849 65.3112 28.4688 66.2227 28.4688C67.431 28.4688 68.3997 28.8073 69.1289 29.4844C69.8581 30.1562 70.2826 31.0885 70.4023 32.2812H68.8945C68.7643 31.375 68.4805 30.7188 68.043 30.3125C67.6107 29.9062 67.0039 29.7031 66.2227 29.7031C65.2643 29.7031 64.5117 30.0573 63.9648 30.7656C63.4232 31.474 63.1523 32.4818 63.1523 33.7891V34.8906C63.1523 36.125 63.4102 37.1068 63.9258 37.8359C64.4414 38.5651 65.1628 38.9297 66.0898 38.9297C66.9232 38.9297 67.5612 38.7422 68.0039 38.3672C68.4518 37.987 68.7487 37.3281 68.8945 36.3906H70.4023ZM71.8477 35.6953C71.8477 34.8672 72.0091 34.1224 72.332 33.4609C72.6602 32.7995 73.1133 32.2891 73.6914 31.9297C74.2747 31.5703 74.9388 31.3906 75.6836 31.3906C76.8346 31.3906 77.7643 31.7891 78.4727 32.5859C79.1862 33.3828 79.543 34.4427 79.543 35.7656V35.8672C79.543 36.6901 79.3841 37.4297 79.0664 38.0859C78.7539 38.737 78.3034 39.2448 77.7148 39.6094C77.1315 39.974 76.4596 40.1562 75.6992 40.1562C74.5534 40.1562 73.6237 39.7578 72.9102 38.9609C72.2018 38.1641 71.8477 37.1094 71.8477 35.7969V35.6953ZM73.3008 35.8672C73.3008 36.8047 73.5169 37.5573 73.9492 38.125C74.3867 38.6927 74.9701 38.9766 75.6992 38.9766C76.4336 38.9766 77.0169 38.6901 77.4492 38.1172C77.8815 37.5391 78.0977 36.7318 78.0977 35.6953C78.0977 34.7682 77.8763 34.0182 77.4336 33.4453C76.9961 32.8672 76.4128 32.5781 75.6836 32.5781C74.9701 32.5781 74.3945 32.862 73.957 33.4297C73.5195 33.9974 73.3008 34.8099 73.3008 35.8672ZM82.7227 31.5469L82.7695 32.6094C83.4154 31.7969 84.2591 31.3906 85.3008 31.3906C87.0872 31.3906 87.9883 32.3984 88.0039 34.4141V40H86.5586V34.4062C86.5534 33.7969 86.4128 33.3464 86.1367 33.0547C85.8659 32.763 85.4414 32.6172 84.8633 32.6172C84.3945 32.6172 83.9831 32.7422 83.6289 32.9922C83.2747 33.2422 82.9987 33.5703 82.8008 33.9766V40H81.3555V31.5469H82.7227ZM95.1055 37.7578C95.1055 37.3672 94.957 37.0651 94.6602 36.8516C94.3685 36.6328 93.8555 36.4453 93.1211 36.2891C92.3919 36.1328 91.8112 35.9453 91.3789 35.7266C90.9518 35.5078 90.6341 35.2474 90.4258 34.9453C90.2227 34.6432 90.1211 34.2839 90.1211 33.8672C90.1211 33.1745 90.4128 32.5885 90.9961 32.1094C91.5846 31.6302 92.3346 31.3906 93.2461 31.3906C94.2044 31.3906 94.9805 31.638 95.5742 32.1328C96.1732 32.6276 96.4727 33.2604 96.4727 34.0312H95.0195C95.0195 33.6354 94.8503 33.2943 94.5117 33.0078C94.1784 32.7214 93.7565 32.5781 93.2461 32.5781C92.7201 32.5781 92.3086 32.6927 92.0117 32.9219C91.7148 33.151 91.5664 33.4505 91.5664 33.8203C91.5664 34.1693 91.7044 34.4323 91.9805 34.6094C92.2565 34.7865 92.7539 34.9557 93.4727 35.1172C94.1966 35.2786 94.7826 35.4714 95.2305 35.6953C95.6784 35.9193 96.0091 36.1901 96.2227 36.5078C96.4414 36.8203 96.5508 37.2031 96.5508 37.6562C96.5508 38.4115 96.2487 39.0182 95.6445 39.4766C95.0404 39.9297 94.2565 40.1562 93.293 40.1562C92.6159 40.1562 92.0169 40.0365 91.4961 39.7969C90.9753 39.5573 90.5664 39.224 90.2695 38.7969C89.9779 38.3646 89.832 37.8984 89.832 37.3984H91.2773C91.3034 37.8828 91.4961 38.2682 91.8555 38.5547C92.2201 38.8359 92.6992 38.9766 93.293 38.9766C93.8398 38.9766 94.2773 38.8672 94.6055 38.6484C94.9388 38.4245 95.1055 38.1276 95.1055 37.7578ZM103.652 39.1641C103.09 39.8255 102.264 40.1562 101.176 40.1562C100.275 40.1562 99.5872 39.8958 99.1133 39.375C98.6445 38.849 98.4076 38.0729 98.4023 37.0469V31.5469H99.8477V37.0078C99.8477 38.2891 100.368 38.9297 101.41 38.9297C102.514 38.9297 103.249 38.5182 103.613 37.6953V31.5469H105.059V40H103.684L103.652 39.1641ZM108.621 31.5469L108.66 32.4844C109.28 31.7552 110.116 31.3906 111.168 31.3906C112.35 31.3906 113.155 31.8438 113.582 32.75C113.863 32.3438 114.228 32.0156 114.676 31.7656C115.129 31.5156 115.663 31.3906 116.277 31.3906C118.132 31.3906 119.074 32.3724 119.105 34.3359V40H117.66V34.4219C117.66 33.8177 117.522 33.3672 117.246 33.0703C116.97 32.7682 116.507 32.6172 115.855 32.6172C115.319 32.6172 114.874 32.7786 114.52 33.1016C114.165 33.4193 113.96 33.849 113.902 34.3906V40H112.449V34.4609C112.449 33.2318 111.848 32.6172 110.645 32.6172C109.697 32.6172 109.048 33.0208 108.699 33.8281V40H107.254V31.5469H108.621ZM124.801 40.1562C123.655 40.1562 122.723 39.7812 122.004 39.0312C121.285 38.276 120.926 37.2682 120.926 36.0078V35.7422C120.926 34.9036 121.085 34.1562 121.402 33.5C121.725 32.8385 122.173 32.3229 122.746 31.9531C123.324 31.5781 123.949 31.3906 124.621 31.3906C125.72 31.3906 126.574 31.7526 127.184 32.4766C127.793 33.2005 128.098 34.237 128.098 35.5859V36.1875H122.371C122.392 37.0208 122.634 37.6953 123.098 38.2109C123.566 38.7214 124.16 38.9766 124.879 38.9766C125.389 38.9766 125.822 38.8724 126.176 38.6641C126.53 38.4557 126.84 38.1797 127.105 37.8359L127.988 38.5234C127.28 39.612 126.217 40.1562 124.801 40.1562ZM124.621 32.5781C124.038 32.5781 123.548 32.7917 123.152 33.2188C122.757 33.6406 122.512 34.2344 122.418 35H126.652V34.8906C126.611 34.1562 126.413 33.5885 126.059 33.1875C125.704 32.7812 125.225 32.5781 124.621 32.5781ZM133.863 32.8438C133.645 32.8073 133.408 32.7891 133.152 32.7891C132.204 32.7891 131.561 33.1927 131.223 34V40H129.777V31.5469H131.184L131.207 32.5234C131.681 31.7682 132.353 31.3906 133.223 31.3906C133.504 31.3906 133.717 31.4271 133.863 31.5V32.8438ZM146.652 38.0078L148.277 31.5469H149.723L147.262 40H146.09L144.035 33.5938L142.035 40H140.863L138.41 31.5469H139.848L141.512 37.875L143.48 31.5469H144.645L146.652 38.0078ZM152.77 40H151.324V31.5469H152.77V40ZM151.207 29.3047C151.207 29.0703 151.277 28.8724 151.418 28.7109C151.564 28.5495 151.777 28.4688 152.059 28.4688C152.34 28.4688 152.553 28.5495 152.699 28.7109C152.845 28.8724 152.918 29.0703 152.918 29.3047C152.918 29.5391 152.845 29.7344 152.699 29.8906C152.553 30.0469 152.34 30.125 152.059 30.125C151.777 30.125 151.564 30.0469 151.418 29.8906C151.277 29.7344 151.207 29.5391 151.207 29.3047ZM156.66 40H155.215V28H156.66V40ZM160.551 40H159.105V28H160.551V40ZM171.762 37.7578C171.762 37.3672 171.613 37.0651 171.316 36.8516C171.025 36.6328 170.512 36.4453 169.777 36.2891C169.048 36.1328 168.467 35.9453 168.035 35.7266C167.608 35.5078 167.29 35.2474 167.082 34.9453C166.879 34.6432 166.777 34.2839 166.777 33.8672C166.777 33.1745 167.069 32.5885 167.652 32.1094C168.241 31.6302 168.991 31.3906 169.902 31.3906C170.861 31.3906 171.637 31.638 172.23 32.1328C172.829 32.6276 173.129 33.2604 173.129 34.0312H171.676C171.676 33.6354 171.507 33.2943 171.168 33.0078C170.835 32.7214 170.413 32.5781 169.902 32.5781C169.376 32.5781 168.965 32.6927 168.668 32.9219C168.371 33.151 168.223 33.4505 168.223 33.8203C168.223 34.1693 168.361 34.4323 168.637 34.6094C168.913 34.7865 169.41 34.9557 170.129 35.1172C170.853 35.2786 171.439 35.4714 171.887 35.6953C172.335 35.9193 172.665 36.1901 172.879 36.5078C173.098 36.8203 173.207 37.2031 173.207 37.6562C173.207 38.4115 172.905 39.0182 172.301 39.4766C171.697 39.9297 170.913 40.1562 169.949 40.1562C169.272 40.1562 168.673 40.0365 168.152 39.7969C167.632 39.5573 167.223 39.224 166.926 38.7969C166.634 38.3646 166.488 37.8984 166.488 37.3984H167.934C167.96 37.8828 168.152 38.2682 168.512 38.5547C168.876 38.8359 169.355 38.9766 169.949 38.9766C170.496 38.9766 170.934 38.8672 171.262 38.6484C171.595 38.4245 171.762 38.1276 171.762 37.7578ZM178.598 40.1562C177.452 40.1562 176.52 39.7812 175.801 39.0312C175.082 38.276 174.723 37.2682 174.723 36.0078V35.7422C174.723 34.9036 174.882 34.1562 175.199 33.5C175.522 32.8385 175.97 32.3229 176.543 31.9531C177.121 31.5781 177.746 31.3906 178.418 31.3906C179.517 31.3906 180.371 31.7526 180.98 32.4766C181.59 33.2005 181.895 34.237 181.895 35.5859V36.1875H176.168C176.189 37.0208 176.431 37.6953 176.895 38.2109C177.363 38.7214 177.957 38.9766 178.676 38.9766C179.186 38.9766 179.618 38.8724 179.973 38.6641C180.327 38.4557 180.637 38.1797 180.902 37.8359L181.785 38.5234C181.077 39.612 180.014 40.1562 178.598 40.1562ZM178.418 32.5781C177.835 32.5781 177.345 32.7917 176.949 33.2188C176.553 33.6406 176.309 34.2344 176.215 35H180.449V34.8906C180.408 34.1562 180.21 33.5885 179.855 33.1875C179.501 32.7812 179.022 32.5781 178.418 32.5781ZM185.145 40H183.699V28H185.145V40ZM190.973 40.1562C189.827 40.1562 188.895 39.7812 188.176 39.0312C187.457 38.276 187.098 37.2682 187.098 36.0078V35.7422C187.098 34.9036 187.257 34.1562 187.574 33.5C187.897 32.8385 188.345 32.3229 188.918 31.9531C189.496 31.5781 190.121 31.3906 190.793 31.3906C191.892 31.3906 192.746 31.7526 193.355 32.4766C193.965 33.2005 194.27 34.237 194.27 35.5859V36.1875H188.543C188.564 37.0208 188.806 37.6953 189.27 38.2109C189.738 38.7214 190.332 38.9766 191.051 38.9766C191.561 38.9766 191.993 38.8724 192.348 38.6641C192.702 38.4557 193.012 38.1797 193.277 37.8359L194.16 38.5234C193.452 39.612 192.389 40.1562 190.973 40.1562ZM190.793 32.5781C190.21 32.5781 189.72 32.7917 189.324 33.2188C188.928 33.6406 188.684 34.2344 188.59 35H192.824V34.8906C192.783 34.1562 192.585 33.5885 192.23 33.1875C191.876 32.7812 191.397 32.5781 190.793 32.5781ZM199.34 38.9766C199.855 38.9766 200.306 38.8203 200.691 38.5078C201.077 38.1953 201.29 37.8047 201.332 37.3359H202.699C202.673 37.8203 202.507 38.2812 202.199 38.7188C201.892 39.1562 201.48 39.5052 200.965 39.7656C200.454 40.026 199.913 40.1562 199.34 40.1562C198.189 40.1562 197.272 39.7734 196.59 39.0078C195.913 38.237 195.574 37.1849 195.574 35.8516V35.6094C195.574 34.7865 195.725 34.0547 196.027 33.4141C196.329 32.7734 196.762 32.276 197.324 31.9219C197.892 31.5677 198.561 31.3906 199.332 31.3906C200.28 31.3906 201.066 31.6745 201.691 32.2422C202.322 32.8099 202.658 33.5469 202.699 34.4531H201.332C201.29 33.9062 201.082 33.4583 200.707 33.1094C200.337 32.7552 199.879 32.5781 199.332 32.5781C198.598 32.5781 198.027 32.8438 197.621 33.375C197.22 33.901 197.02 34.6641 197.02 35.6641V35.9375C197.02 36.9115 197.22 37.6615 197.621 38.1875C198.022 38.7135 198.595 38.9766 199.34 38.9766ZM206.285 29.5V31.5469H207.863V32.6641H206.285V37.9062C206.285 38.2448 206.355 38.5 206.496 38.6719C206.637 38.8385 206.876 38.9219 207.215 38.9219C207.382 38.9219 207.611 38.8906 207.902 38.8281V40C207.522 40.1042 207.152 40.1562 206.793 40.1562C206.147 40.1562 205.66 39.9609 205.332 39.5703C205.004 39.1797 204.84 38.625 204.84 37.9062V32.6641H203.301V31.5469H204.84V29.5H206.285ZM215.488 29.5V31.5469H217.066V32.6641H215.488V37.9062C215.488 38.2448 215.559 38.5 215.699 38.6719C215.84 38.8385 216.079 38.9219 216.418 38.9219C216.585 38.9219 216.814 38.8906 217.105 38.8281V40C216.725 40.1042 216.355 40.1562 215.996 40.1562C215.35 40.1562 214.863 39.9609 214.535 39.5703C214.207 39.1797 214.043 38.625 214.043 37.9062V32.6641H212.504V31.5469H214.043V29.5H215.488ZM218.223 35.6953C218.223 34.8672 218.384 34.1224 218.707 33.4609C219.035 32.7995 219.488 32.2891 220.066 31.9297C220.65 31.5703 221.314 31.3906 222.059 31.3906C223.21 31.3906 224.139 31.7891 224.848 32.5859C225.561 33.3828 225.918 34.4427 225.918 35.7656V35.8672C225.918 36.6901 225.759 37.4297 225.441 38.0859C225.129 38.737 224.678 39.2448 224.09 39.6094C223.507 39.974 222.835 40.1562 222.074 40.1562C220.928 40.1562 219.999 39.7578 219.285 38.9609C218.577 38.1641 218.223 37.1094 218.223 35.7969V35.6953ZM219.676 35.8672C219.676 36.8047 219.892 37.5573 220.324 38.125C220.762 38.6927 221.345 38.9766 222.074 38.9766C222.809 38.9766 223.392 38.6901 223.824 38.1172C224.257 37.5391 224.473 36.7318 224.473 35.6953C224.473 34.7682 224.251 34.0182 223.809 33.4453C223.371 32.8672 222.788 32.5781 222.059 32.5781C221.345 32.5781 220.77 32.862 220.332 33.4297C219.895 33.9974 219.676 34.8099 219.676 35.8672ZM233.66 29.5V31.5469H235.238V32.6641H233.66V37.9062C233.66 38.2448 233.73 38.5 233.871 38.6719C234.012 38.8385 234.251 38.9219 234.59 38.9219C234.757 38.9219 234.986 38.8906 235.277 38.8281V40C234.897 40.1042 234.527 40.1562 234.168 40.1562C233.522 40.1562 233.035 39.9609 232.707 39.5703C232.379 39.1797 232.215 38.625 232.215 37.9062V32.6641H230.676V31.5469H232.215V29.5H233.66ZM236.395 35.6953C236.395 34.8672 236.556 34.1224 236.879 33.4609C237.207 32.7995 237.66 32.2891 238.238 31.9297C238.822 31.5703 239.486 31.3906 240.23 31.3906C241.382 31.3906 242.311 31.7891 243.02 32.5859C243.733 33.3828 244.09 34.4427 244.09 35.7656V35.8672C244.09 36.6901 243.931 37.4297 243.613 38.0859C243.301 38.737 242.85 39.2448 242.262 39.6094C241.678 39.974 241.007 40.1562 240.246 40.1562C239.1 40.1562 238.171 39.7578 237.457 38.9609C236.749 38.1641 236.395 37.1094 236.395 35.7969V35.6953ZM237.848 35.8672C237.848 36.8047 238.064 37.5573 238.496 38.125C238.934 38.6927 239.517 38.9766 240.246 38.9766C240.98 38.9766 241.564 38.6901 241.996 38.1172C242.428 37.5391 242.645 36.7318 242.645 35.6953C242.645 34.7682 242.423 34.0182 241.98 33.4453C241.543 32.8672 240.96 32.5781 240.23 32.5781C239.517 32.5781 238.941 32.862 238.504 33.4297C238.066 33.9974 237.848 34.8099 237.848 35.8672ZM253.043 35.8672C253.043 37.1536 252.749 38.1901 252.16 38.9766C251.572 39.763 250.775 40.1562 249.77 40.1562C248.743 40.1562 247.936 39.8307 247.348 39.1797V43.25H245.902V31.5469H247.223L247.293 32.4844C247.882 31.7552 248.699 31.3906 249.746 31.3906C250.762 31.3906 251.564 31.7734 252.152 32.5391C252.746 33.3047 253.043 34.3698 253.043 35.7344V35.8672ZM251.598 35.7031C251.598 34.75 251.395 33.9974 250.988 33.4453C250.582 32.8932 250.025 32.6172 249.316 32.6172C248.441 32.6172 247.785 33.0052 247.348 33.7812V37.8203C247.78 38.5911 248.441 38.9766 249.332 38.9766C250.025 38.9766 250.574 38.7031 250.98 38.1562C251.392 37.6042 251.598 36.7865 251.598 35.7031ZM264.074 39.1641C263.512 39.8255 262.686 40.1562 261.598 40.1562C260.697 40.1562 260.009 39.8958 259.535 39.375C259.066 38.849 258.829 38.0729 258.824 37.0469V31.5469H260.27V37.0078C260.27 38.2891 260.79 38.9297 261.832 38.9297C262.936 38.9297 263.671 38.5182 264.035 37.6953V31.5469H265.48V40H264.105L264.074 39.1641ZM274.824 35.8672C274.824 37.1536 274.53 38.1901 273.941 38.9766C273.353 39.763 272.556 40.1562 271.551 40.1562C270.525 40.1562 269.717 39.8307 269.129 39.1797V43.25H267.684V31.5469H269.004L269.074 32.4844C269.663 31.7552 270.48 31.3906 271.527 31.3906C272.543 31.3906 273.345 31.7734 273.934 32.5391C274.527 33.3047 274.824 34.3698 274.824 35.7344V35.8672ZM273.379 35.7031C273.379 34.75 273.176 33.9974 272.77 33.4453C272.363 32.8932 271.806 32.6172 271.098 32.6172C270.223 32.6172 269.566 33.0052 269.129 33.7812V37.8203C269.561 38.5911 270.223 38.9766 271.113 38.9766C271.806 38.9766 272.355 38.7031 272.762 38.1562C273.173 37.6042 273.379 36.7865 273.379 35.7031ZM281.348 40V32.6641H280.012V31.5469H281.348V30.6797C281.348 29.7734 281.59 29.0729 282.074 28.5781C282.559 28.0833 283.243 27.8359 284.129 27.8359C284.462 27.8359 284.793 27.8802 285.121 27.9688L285.043 29.1406C284.798 29.0938 284.538 29.0703 284.262 29.0703C283.793 29.0703 283.431 29.2083 283.176 29.4844C282.921 29.7552 282.793 30.1458 282.793 30.6562V31.5469H284.598V32.6641H282.793V40H281.348ZM290.285 32.8438C290.066 32.8073 289.829 32.7891 289.574 32.7891C288.626 32.7891 287.983 33.1927 287.645 34V40H286.199V31.5469H287.605L287.629 32.5234C288.103 31.7682 288.775 31.3906 289.645 31.3906C289.926 31.3906 290.139 31.4271 290.285 31.5V32.8438ZM291.082 35.6953C291.082 34.8672 291.243 34.1224 291.566 33.4609C291.895 32.7995 292.348 32.2891 292.926 31.9297C293.509 31.5703 294.173 31.3906 294.918 31.3906C296.069 31.3906 296.999 31.7891 297.707 32.5859C298.421 33.3828 298.777 34.4427 298.777 35.7656V35.8672C298.777 36.6901 298.618 37.4297 298.301 38.0859C297.988 38.737 297.538 39.2448 296.949 39.6094C296.366 39.974 295.694 40.1562 294.934 40.1562C293.788 40.1562 292.858 39.7578 292.145 38.9609C291.436 38.1641 291.082 37.1094 291.082 35.7969V35.6953ZM292.535 35.8672C292.535 36.8047 292.751 37.5573 293.184 38.125C293.621 38.6927 294.204 38.9766 294.934 38.9766C295.668 38.9766 296.251 38.6901 296.684 38.1172C297.116 37.5391 297.332 36.7318 297.332 35.6953C297.332 34.7682 297.111 34.0182 296.668 33.4453C296.23 32.8672 295.647 32.5781 294.918 32.5781C294.204 32.5781 293.629 32.862 293.191 33.4297C292.754 33.9974 292.535 34.8099 292.535 35.8672ZM301.949 31.5469L301.988 32.4844C302.608 31.7552 303.444 31.3906 304.496 31.3906C305.678 31.3906 306.483 31.8438 306.91 32.75C307.191 32.3438 307.556 32.0156 308.004 31.7656C308.457 31.5156 308.991 31.3906 309.605 31.3906C311.46 31.3906 312.402 32.3724 312.434 34.3359V40H310.988V34.4219C310.988 33.8177 310.85 33.3672 310.574 33.0703C310.298 32.7682 309.835 32.6172 309.184 32.6172C308.647 32.6172 308.202 32.7786 307.848 33.1016C307.493 33.4193 307.288 33.849 307.23 34.3906V40H305.777V34.4609C305.777 33.2318 305.176 32.6172 303.973 32.6172C303.025 32.6172 302.376 33.0208 302.027 33.8281V40H300.582V31.5469H301.949ZM325.098 37.0312H320.332L319.262 40H317.715L322.059 28.625H323.371L327.723 40H326.184L325.098 37.0312ZM320.785 35.7969H324.652L322.715 30.4766L320.785 35.7969ZM336.098 29.8594H332.441V40H330.949V29.8594H327.301V28.625H336.098V29.8594ZM339.723 28.625L343.441 37.9062L347.16 28.625H349.105V40H347.605V35.5703L347.746 30.7891L344.012 40H342.863L339.137 30.8125L339.285 35.5703V40H337.785V28.625H339.723Z" fill="#494B52"/>
<path d="M27.286 48H30.23V24.864H24.214V27.52H27.286V48Z" fill="#494B52"/>
</svg>
