<svg width="628" height="113" viewBox="0 0 628 113" fill="none" xmlns="http://www.w3.org/2000/svg">
<g filter="url(#filter0_d)">
<rect x="19" y="16" width="590" height="75" rx="24" fill="white"/>
</g>
<path d="M89.6875 54.3906C89.5469 55.5938 89.1016 56.5234 88.3516 57.1797C87.6068 57.8307 86.6146 58.1562 85.375 58.1562C84.0312 58.1562 82.9531 57.6745 82.1406 56.7109C81.3333 55.7474 80.9297 54.4583 80.9297 52.8438V51.75C80.9297 50.6927 81.1172 49.763 81.4922 48.9609C81.8724 48.1589 82.4089 47.5443 83.1016 47.1172C83.7943 46.6849 84.5964 46.4688 85.5078 46.4688C86.7161 46.4688 87.6849 46.8073 88.4141 47.4844C89.1432 48.1562 89.5677 49.0885 89.6875 50.2812H88.1797C88.0495 49.375 87.7656 48.7188 87.3281 48.3125C86.8958 47.9062 86.2891 47.7031 85.5078 47.7031C84.5495 47.7031 83.7969 48.0573 83.25 48.7656C82.7083 49.474 82.4375 50.4818 82.4375 51.7891V52.8906C82.4375 54.125 82.6953 55.1068 83.2109 55.8359C83.7266 56.5651 84.4479 56.9297 85.375 56.9297C86.2083 56.9297 86.8464 56.7422 87.2891 56.3672C87.737 55.987 88.0339 55.3281 88.1797 54.3906H89.6875ZM91.1328 53.6953C91.1328 52.8672 91.2943 52.1224 91.6172 51.4609C91.9453 50.7995 92.3984 50.2891 92.9766 49.9297C93.5599 49.5703 94.224 49.3906 94.9688 49.3906C96.1198 49.3906 97.0495 49.7891 97.7578 50.5859C98.4714 51.3828 98.8281 52.4427 98.8281 53.7656V53.8672C98.8281 54.6901 98.6693 55.4297 98.3516 56.0859C98.0391 56.737 97.5885 57.2448 97 57.6094C96.4167 57.974 95.7448 58.1562 94.9844 58.1562C93.8385 58.1562 92.9089 57.7578 92.1953 56.9609C91.487 56.1641 91.1328 55.1094 91.1328 53.7969V53.6953ZM92.5859 53.8672C92.5859 54.8047 92.8021 55.5573 93.2344 56.125C93.6719 56.6927 94.2552 56.9766 94.9844 56.9766C95.7188 56.9766 96.3021 56.6901 96.7344 56.1172C97.1667 55.5391 97.3828 54.7318 97.3828 53.6953C97.3828 52.7682 97.1615 52.0182 96.7188 51.4453C96.2812 50.8672 95.6979 50.5781 94.9688 50.5781C94.2552 50.5781 93.6797 50.862 93.2422 51.4297C92.8047 51.9974 92.5859 52.8099 92.5859 53.8672ZM102.008 49.5469L102.055 50.6094C102.701 49.7969 103.544 49.3906 104.586 49.3906C106.372 49.3906 107.273 50.3984 107.289 52.4141V58H105.844V52.4062C105.839 51.7969 105.698 51.3464 105.422 51.0547C105.151 50.763 104.727 50.6172 104.148 50.6172C103.68 50.6172 103.268 50.7422 102.914 50.9922C102.56 51.2422 102.284 51.5703 102.086 51.9766V58H100.641V49.5469H102.008ZM114.391 55.7578C114.391 55.3672 114.242 55.0651 113.945 54.8516C113.654 54.6328 113.141 54.4453 112.406 54.2891C111.677 54.1328 111.096 53.9453 110.664 53.7266C110.237 53.5078 109.919 53.2474 109.711 52.9453C109.508 52.6432 109.406 52.2839 109.406 51.8672C109.406 51.1745 109.698 50.5885 110.281 50.1094C110.87 49.6302 111.62 49.3906 112.531 49.3906C113.49 49.3906 114.266 49.638 114.859 50.1328C115.458 50.6276 115.758 51.2604 115.758 52.0312H114.305C114.305 51.6354 114.135 51.2943 113.797 51.0078C113.464 50.7214 113.042 50.5781 112.531 50.5781C112.005 50.5781 111.594 50.6927 111.297 50.9219C111 51.151 110.852 51.4505 110.852 51.8203C110.852 52.1693 110.99 52.4323 111.266 52.6094C111.542 52.7865 112.039 52.9557 112.758 53.1172C113.482 53.2786 114.068 53.4714 114.516 53.6953C114.964 53.9193 115.294 54.1901 115.508 54.5078C115.727 54.8203 115.836 55.2031 115.836 55.6562C115.836 56.4115 115.534 57.0182 114.93 57.4766C114.326 57.9297 113.542 58.1562 112.578 58.1562C111.901 58.1562 111.302 58.0365 110.781 57.7969C110.26 57.5573 109.852 57.224 109.555 56.7969C109.263 56.3646 109.117 55.8984 109.117 55.3984H110.562C110.589 55.8828 110.781 56.2682 111.141 56.5547C111.505 56.8359 111.984 56.9766 112.578 56.9766C113.125 56.9766 113.562 56.8672 113.891 56.6484C114.224 56.4245 114.391 56.1276 114.391 55.7578ZM122.938 57.1641C122.375 57.8255 121.549 58.1562 120.461 58.1562C119.56 58.1562 118.872 57.8958 118.398 57.375C117.93 56.849 117.693 56.0729 117.688 55.0469V49.5469H119.133V55.0078C119.133 56.2891 119.654 56.9297 120.695 56.9297C121.799 56.9297 122.534 56.5182 122.898 55.6953V49.5469H124.344V58H122.969L122.938 57.1641ZM127.906 49.5469L127.945 50.4844C128.565 49.7552 129.401 49.3906 130.453 49.3906C131.635 49.3906 132.44 49.8438 132.867 50.75C133.148 50.3438 133.513 50.0156 133.961 49.7656C134.414 49.5156 134.948 49.3906 135.562 49.3906C137.417 49.3906 138.359 50.3724 138.391 52.3359V58H136.945V52.4219C136.945 51.8177 136.807 51.3672 136.531 51.0703C136.255 50.7682 135.792 50.6172 135.141 50.6172C134.604 50.6172 134.159 50.7786 133.805 51.1016C133.451 51.4193 133.245 51.849 133.188 52.3906V58H131.734V52.4609C131.734 51.2318 131.133 50.6172 129.93 50.6172C128.982 50.6172 128.333 51.0208 127.984 51.8281V58H126.539V49.5469H127.906ZM144.086 58.1562C142.94 58.1562 142.008 57.7812 141.289 57.0312C140.57 56.276 140.211 55.2682 140.211 54.0078V53.7422C140.211 52.9036 140.37 52.1562 140.688 51.5C141.01 50.8385 141.458 50.3229 142.031 49.9531C142.609 49.5781 143.234 49.3906 143.906 49.3906C145.005 49.3906 145.859 49.7526 146.469 50.4766C147.078 51.2005 147.383 52.237 147.383 53.5859V54.1875H141.656C141.677 55.0208 141.919 55.6953 142.383 56.2109C142.852 56.7214 143.445 56.9766 144.164 56.9766C144.674 56.9766 145.107 56.8724 145.461 56.6641C145.815 56.4557 146.125 56.1797 146.391 55.8359L147.273 56.5234C146.565 57.612 145.503 58.1562 144.086 58.1562ZM143.906 50.5781C143.323 50.5781 142.833 50.7917 142.438 51.2188C142.042 51.6406 141.797 52.2344 141.703 53H145.938V52.8906C145.896 52.1562 145.698 51.5885 145.344 51.1875C144.99 50.7812 144.51 50.5781 143.906 50.5781ZM153.148 50.8438C152.93 50.8073 152.693 50.7891 152.438 50.7891C151.49 50.7891 150.846 51.1927 150.508 52V58H149.062V49.5469H150.469L150.492 50.5234C150.966 49.7682 151.638 49.3906 152.508 49.3906C152.789 49.3906 153.003 49.4271 153.148 49.5V50.8438ZM165.938 56.0078L167.562 49.5469H169.008L166.547 58H165.375L163.32 51.5938L161.32 58H160.148L157.695 49.5469H159.133L160.797 55.875L162.766 49.5469H163.93L165.938 56.0078ZM172.055 58H170.609V49.5469H172.055V58ZM170.492 47.3047C170.492 47.0703 170.562 46.8724 170.703 46.7109C170.849 46.5495 171.062 46.4688 171.344 46.4688C171.625 46.4688 171.839 46.5495 171.984 46.7109C172.13 46.8724 172.203 47.0703 172.203 47.3047C172.203 47.5391 172.13 47.7344 171.984 47.8906C171.839 48.0469 171.625 48.125 171.344 48.125C171.062 48.125 170.849 48.0469 170.703 47.8906C170.562 47.7344 170.492 47.5391 170.492 47.3047ZM175.945 58H174.5V46H175.945V58ZM179.836 58H178.391V46H179.836V58ZM190.211 50.8438C189.992 50.8073 189.755 50.7891 189.5 50.7891C188.552 50.7891 187.909 51.1927 187.57 52V58H186.125V49.5469H187.531L187.555 50.5234C188.029 49.7682 188.701 49.3906 189.57 49.3906C189.852 49.3906 190.065 49.4271 190.211 49.5V50.8438ZM194.898 58.1562C193.753 58.1562 192.82 57.7812 192.102 57.0312C191.383 56.276 191.023 55.2682 191.023 54.0078V53.7422C191.023 52.9036 191.182 52.1562 191.5 51.5C191.823 50.8385 192.271 50.3229 192.844 49.9531C193.422 49.5781 194.047 49.3906 194.719 49.3906C195.818 49.3906 196.672 49.7526 197.281 50.4766C197.891 51.2005 198.195 52.237 198.195 53.5859V54.1875H192.469C192.49 55.0208 192.732 55.6953 193.195 56.2109C193.664 56.7214 194.258 56.9766 194.977 56.9766C195.487 56.9766 195.919 56.8724 196.273 56.6641C196.628 56.4557 196.938 56.1797 197.203 55.8359L198.086 56.5234C197.378 57.612 196.315 58.1562 194.898 58.1562ZM194.719 50.5781C194.135 50.5781 193.646 50.7917 193.25 51.2188C192.854 51.6406 192.609 52.2344 192.516 53H196.75V52.8906C196.708 52.1562 196.51 51.5885 196.156 51.1875C195.802 50.7812 195.323 50.5781 194.719 50.5781ZM205.094 58C205.01 57.8333 204.943 57.5365 204.891 57.1094C204.219 57.8073 203.417 58.1562 202.484 58.1562C201.651 58.1562 200.966 57.9219 200.43 57.4531C199.898 56.9792 199.633 56.3802 199.633 55.6562C199.633 54.776 199.966 54.0938 200.633 53.6094C201.305 53.1198 202.247 52.875 203.461 52.875H204.867V52.2109C204.867 51.7057 204.716 51.3047 204.414 51.0078C204.112 50.7057 203.667 50.5547 203.078 50.5547C202.562 50.5547 202.13 50.6849 201.781 50.9453C201.432 51.2057 201.258 51.5208 201.258 51.8906H199.805C199.805 51.4688 199.953 51.0625 200.25 50.6719C200.552 50.276 200.958 49.9635 201.469 49.7344C201.984 49.5052 202.549 49.3906 203.164 49.3906C204.138 49.3906 204.901 49.6354 205.453 50.125C206.005 50.6094 206.292 51.2786 206.312 52.1328V56.0234C206.312 56.7995 206.411 57.4167 206.609 57.875V58H205.094ZM202.695 56.8984C203.148 56.8984 203.578 56.7812 203.984 56.5469C204.391 56.3125 204.685 56.0078 204.867 55.6328V53.8984H203.734C201.964 53.8984 201.078 54.4167 201.078 55.4531C201.078 55.9062 201.229 56.2604 201.531 56.5156C201.833 56.7708 202.221 56.8984 202.695 56.8984ZM208.227 53.7031C208.227 52.4062 208.534 51.3646 209.148 50.5781C209.763 49.7865 210.568 49.3906 211.562 49.3906C212.552 49.3906 213.336 49.7292 213.914 50.4062V46H215.359V58H214.031L213.961 57.0938C213.383 57.8021 212.578 58.1562 211.547 58.1562C210.568 58.1562 209.768 57.7552 209.148 56.9531C208.534 56.151 208.227 55.1042 208.227 53.8125V53.7031ZM209.672 53.8672C209.672 54.8255 209.87 55.5755 210.266 56.1172C210.661 56.6589 211.208 56.9297 211.906 56.9297C212.823 56.9297 213.492 56.5182 213.914 55.6953V51.8125C213.482 51.0156 212.818 50.6172 211.922 50.6172C211.214 50.6172 210.661 50.8906 210.266 51.4375C209.87 51.9844 209.672 52.7943 209.672 53.8672ZM223.539 47.5V49.5469H225.117V50.6641H223.539V55.9062C223.539 56.2448 223.609 56.5 223.75 56.6719C223.891 56.8385 224.13 56.9219 224.469 56.9219C224.635 56.9219 224.865 56.8906 225.156 56.8281V58C224.776 58.1042 224.406 58.1562 224.047 58.1562C223.401 58.1562 222.914 57.9609 222.586 57.5703C222.258 57.1797 222.094 56.625 222.094 55.9062V50.6641H220.555V49.5469H222.094V47.5H223.539ZM228.258 50.5703C228.898 49.7839 229.732 49.3906 230.758 49.3906C232.544 49.3906 233.445 50.3984 233.461 52.4141V58H232.016V52.4062C232.01 51.7969 231.87 51.3464 231.594 51.0547C231.323 50.763 230.898 50.6172 230.32 50.6172C229.852 50.6172 229.44 50.7422 229.086 50.9922C228.732 51.2422 228.456 51.5703 228.258 51.9766V58H226.812V46H228.258V50.5703ZM239.133 58.1562C237.987 58.1562 237.055 57.7812 236.336 57.0312C235.617 56.276 235.258 55.2682 235.258 54.0078V53.7422C235.258 52.9036 235.417 52.1562 235.734 51.5C236.057 50.8385 236.505 50.3229 237.078 49.9531C237.656 49.5781 238.281 49.3906 238.953 49.3906C240.052 49.3906 240.906 49.7526 241.516 50.4766C242.125 51.2005 242.43 52.237 242.43 53.5859V54.1875H236.703C236.724 55.0208 236.966 55.6953 237.43 56.2109C237.898 56.7214 238.492 56.9766 239.211 56.9766C239.721 56.9766 240.154 56.8724 240.508 56.6641C240.862 56.4557 241.172 56.1797 241.438 55.8359L242.32 56.5234C241.612 57.612 240.549 58.1562 239.133 58.1562ZM238.953 50.5781C238.37 50.5781 237.88 50.7917 237.484 51.2188C237.089 51.6406 236.844 52.2344 236.75 53H240.984V52.8906C240.943 52.1562 240.745 51.5885 240.391 51.1875C240.036 50.7812 239.557 50.5781 238.953 50.5781ZM249.648 58H248.203V49.5469H249.648V58ZM248.086 47.3047C248.086 47.0703 248.156 46.8724 248.297 46.7109C248.443 46.5495 248.656 46.4688 248.938 46.4688C249.219 46.4688 249.432 46.5495 249.578 46.7109C249.724 46.8724 249.797 47.0703 249.797 47.3047C249.797 47.5391 249.724 47.7344 249.578 47.8906C249.432 48.0469 249.219 48.125 248.938 48.125C248.656 48.125 248.443 48.0469 248.297 47.8906C248.156 47.7344 248.086 47.5391 248.086 47.3047ZM253.336 49.5469L253.383 50.6094C254.029 49.7969 254.872 49.3906 255.914 49.3906C257.701 49.3906 258.602 50.3984 258.617 52.4141V58H257.172V52.4062C257.167 51.7969 257.026 51.3464 256.75 51.0547C256.479 50.763 256.055 50.6172 255.477 50.6172C255.008 50.6172 254.596 50.7422 254.242 50.9922C253.888 51.2422 253.612 51.5703 253.414 51.9766V58H251.969V49.5469H253.336ZM265.719 55.7578C265.719 55.3672 265.57 55.0651 265.273 54.8516C264.982 54.6328 264.469 54.4453 263.734 54.2891C263.005 54.1328 262.424 53.9453 261.992 53.7266C261.565 53.5078 261.247 53.2474 261.039 52.9453C260.836 52.6432 260.734 52.2839 260.734 51.8672C260.734 51.1745 261.026 50.5885 261.609 50.1094C262.198 49.6302 262.948 49.3906 263.859 49.3906C264.818 49.3906 265.594 49.638 266.188 50.1328C266.786 50.6276 267.086 51.2604 267.086 52.0312H265.633C265.633 51.6354 265.464 51.2943 265.125 51.0078C264.792 50.7214 264.37 50.5781 263.859 50.5781C263.333 50.5781 262.922 50.6927 262.625 50.9219C262.328 51.151 262.18 51.4505 262.18 51.8203C262.18 52.1693 262.318 52.4323 262.594 52.6094C262.87 52.7865 263.367 52.9557 264.086 53.1172C264.81 53.2786 265.396 53.4714 265.844 53.6953C266.292 53.9193 266.622 54.1901 266.836 54.5078C267.055 54.8203 267.164 55.2031 267.164 55.6562C267.164 56.4115 266.862 57.0182 266.258 57.4766C265.654 57.9297 264.87 58.1562 263.906 58.1562C263.229 58.1562 262.63 58.0365 262.109 57.7969C261.589 57.5573 261.18 57.224 260.883 56.7969C260.591 56.3646 260.445 55.8984 260.445 55.3984H261.891C261.917 55.8828 262.109 56.2682 262.469 56.5547C262.833 56.8359 263.312 56.9766 263.906 56.9766C264.453 56.9766 264.891 56.8672 265.219 56.6484C265.552 56.4245 265.719 56.1276 265.719 55.7578ZM271.008 47.5V49.5469H272.586V50.6641H271.008V55.9062C271.008 56.2448 271.078 56.5 271.219 56.6719C271.359 56.8385 271.599 56.9219 271.938 56.9219C272.104 56.9219 272.333 56.8906 272.625 56.8281V58C272.245 58.1042 271.875 58.1562 271.516 58.1562C270.87 58.1562 270.383 57.9609 270.055 57.5703C269.727 57.1797 269.562 56.625 269.562 55.9062V50.6641H268.023V49.5469H269.562V47.5H271.008ZM279.5 57.1641C278.938 57.8255 278.112 58.1562 277.023 58.1562C276.122 58.1562 275.435 57.8958 274.961 57.375C274.492 56.849 274.255 56.0729 274.25 55.0469V49.5469H275.695V55.0078C275.695 56.2891 276.216 56.9297 277.258 56.9297C278.362 56.9297 279.096 56.5182 279.461 55.6953V49.5469H280.906V58H279.531L279.5 57.1641ZM286.5 56.9766C287.016 56.9766 287.466 56.8203 287.852 56.5078C288.237 56.1953 288.451 55.8047 288.492 55.3359H289.859C289.833 55.8203 289.667 56.2812 289.359 56.7188C289.052 57.1562 288.641 57.5052 288.125 57.7656C287.615 58.026 287.073 58.1562 286.5 58.1562C285.349 58.1562 284.432 57.7734 283.75 57.0078C283.073 56.237 282.734 55.1849 282.734 53.8516V53.6094C282.734 52.7865 282.885 52.0547 283.188 51.4141C283.49 50.7734 283.922 50.276 284.484 49.9219C285.052 49.5677 285.721 49.3906 286.492 49.3906C287.44 49.3906 288.227 49.6745 288.852 50.2422C289.482 50.8099 289.818 51.5469 289.859 52.4531H288.492C288.451 51.9062 288.242 51.4583 287.867 51.1094C287.497 50.7552 287.039 50.5781 286.492 50.5781C285.758 50.5781 285.188 50.8438 284.781 51.375C284.38 51.901 284.18 52.6641 284.18 53.6641V53.9375C284.18 54.9115 284.38 55.6615 284.781 56.1875C285.182 56.7135 285.755 56.9766 286.5 56.9766ZM293.445 47.5V49.5469H295.023V50.6641H293.445V55.9062C293.445 56.2448 293.516 56.5 293.656 56.6719C293.797 56.8385 294.036 56.9219 294.375 56.9219C294.542 56.9219 294.771 56.8906 295.062 56.8281V58C294.682 58.1042 294.312 58.1562 293.953 58.1562C293.307 58.1562 292.82 57.9609 292.492 57.5703C292.164 57.1797 292 56.625 292 55.9062V50.6641H290.461V49.5469H292V47.5H293.445ZM298.289 58H296.844V49.5469H298.289V58ZM296.727 47.3047C296.727 47.0703 296.797 46.8724 296.938 46.7109C297.083 46.5495 297.297 46.4688 297.578 46.4688C297.859 46.4688 298.073 46.5495 298.219 46.7109C298.365 46.8724 298.438 47.0703 298.438 47.3047C298.438 47.5391 298.365 47.7344 298.219 47.8906C298.073 48.0469 297.859 48.125 297.578 48.125C297.297 48.125 297.083 48.0469 296.938 47.8906C296.797 47.7344 296.727 47.5391 296.727 47.3047ZM300.227 53.6953C300.227 52.8672 300.388 52.1224 300.711 51.4609C301.039 50.7995 301.492 50.2891 302.07 49.9297C302.654 49.5703 303.318 49.3906 304.062 49.3906C305.214 49.3906 306.143 49.7891 306.852 50.5859C307.565 51.3828 307.922 52.4427 307.922 53.7656V53.8672C307.922 54.6901 307.763 55.4297 307.445 56.0859C307.133 56.737 306.682 57.2448 306.094 57.6094C305.51 57.974 304.839 58.1562 304.078 58.1562C302.932 58.1562 302.003 57.7578 301.289 56.9609C300.581 56.1641 300.227 55.1094 300.227 53.7969V53.6953ZM301.68 53.8672C301.68 54.8047 301.896 55.5573 302.328 56.125C302.766 56.6927 303.349 56.9766 304.078 56.9766C304.812 56.9766 305.396 56.6901 305.828 56.1172C306.26 55.5391 306.477 54.7318 306.477 53.6953C306.477 52.7682 306.255 52.0182 305.812 51.4453C305.375 50.8672 304.792 50.5781 304.062 50.5781C303.349 50.5781 302.773 50.862 302.336 51.4297C301.898 51.9974 301.68 52.8099 301.68 53.8672ZM311.102 49.5469L311.148 50.6094C311.794 49.7969 312.638 49.3906 313.68 49.3906C315.466 49.3906 316.367 50.3984 316.383 52.4141V58H314.938V52.4062C314.932 51.7969 314.792 51.3464 314.516 51.0547C314.245 50.763 313.82 50.6172 313.242 50.6172C312.773 50.6172 312.362 50.7422 312.008 50.9922C311.654 51.2422 311.378 51.5703 311.18 51.9766V58H309.734V49.5469H311.102ZM323.484 55.7578C323.484 55.3672 323.336 55.0651 323.039 54.8516C322.747 54.6328 322.234 54.4453 321.5 54.2891C320.771 54.1328 320.19 53.9453 319.758 53.7266C319.331 53.5078 319.013 53.2474 318.805 52.9453C318.602 52.6432 318.5 52.2839 318.5 51.8672C318.5 51.1745 318.792 50.5885 319.375 50.1094C319.964 49.6302 320.714 49.3906 321.625 49.3906C322.583 49.3906 323.359 49.638 323.953 50.1328C324.552 50.6276 324.852 51.2604 324.852 52.0312H323.398C323.398 51.6354 323.229 51.2943 322.891 51.0078C322.557 50.7214 322.135 50.5781 321.625 50.5781C321.099 50.5781 320.688 50.6927 320.391 50.9219C320.094 51.151 319.945 51.4505 319.945 51.8203C319.945 52.1693 320.083 52.4323 320.359 52.6094C320.635 52.7865 321.133 52.9557 321.852 53.1172C322.576 53.2786 323.161 53.4714 323.609 53.6953C324.057 53.9193 324.388 54.1901 324.602 54.5078C324.82 54.8203 324.93 55.2031 324.93 55.6562C324.93 56.4115 324.628 57.0182 324.023 57.4766C323.419 57.9297 322.635 58.1562 321.672 58.1562C320.995 58.1562 320.396 58.0365 319.875 57.7969C319.354 57.5573 318.945 57.224 318.648 56.7969C318.357 56.3646 318.211 55.8984 318.211 55.3984H319.656C319.682 55.8828 319.875 56.2682 320.234 56.5547C320.599 56.8359 321.078 56.9766 321.672 56.9766C322.219 56.9766 322.656 56.8672 322.984 56.6484C323.318 56.4245 323.484 56.1276 323.484 55.7578ZM330.398 53.6953C330.398 52.8672 330.56 52.1224 330.883 51.4609C331.211 50.7995 331.664 50.2891 332.242 49.9297C332.826 49.5703 333.49 49.3906 334.234 49.3906C335.385 49.3906 336.315 49.7891 337.023 50.5859C337.737 51.3828 338.094 52.4427 338.094 53.7656V53.8672C338.094 54.6901 337.935 55.4297 337.617 56.0859C337.305 56.737 336.854 57.2448 336.266 57.6094C335.682 57.974 335.01 58.1562 334.25 58.1562C333.104 58.1562 332.174 57.7578 331.461 56.9609C330.753 56.1641 330.398 55.1094 330.398 53.7969V53.6953ZM331.852 53.8672C331.852 54.8047 332.068 55.5573 332.5 56.125C332.938 56.6927 333.521 56.9766 334.25 56.9766C334.984 56.9766 335.568 56.6901 336 56.1172C336.432 55.5391 336.648 54.7318 336.648 53.6953C336.648 52.7682 336.427 52.0182 335.984 51.4453C335.547 50.8672 334.964 50.5781 334.234 50.5781C333.521 50.5781 332.945 50.862 332.508 51.4297C332.07 51.9974 331.852 52.8099 331.852 53.8672ZM340.617 58V50.6641H339.281V49.5469H340.617V48.6797C340.617 47.7734 340.859 47.0729 341.344 46.5781C341.828 46.0833 342.513 45.8359 343.398 45.8359C343.732 45.8359 344.062 45.8802 344.391 45.9688L344.312 47.1406C344.068 47.0938 343.807 47.0703 343.531 47.0703C343.062 47.0703 342.701 47.2083 342.445 47.4844C342.19 47.7552 342.062 48.1458 342.062 48.6562V49.5469H343.867V50.6641H342.062V58H340.617ZM350.883 50.5703C351.523 49.7839 352.357 49.3906 353.383 49.3906C355.169 49.3906 356.07 50.3984 356.086 52.4141V58H354.641V52.4062C354.635 51.7969 354.495 51.3464 354.219 51.0547C353.948 50.763 353.523 50.6172 352.945 50.6172C352.477 50.6172 352.065 50.7422 351.711 50.9922C351.357 51.2422 351.081 51.5703 350.883 51.9766V58H349.438V46H350.883V50.5703ZM357.867 53.6953C357.867 52.8672 358.029 52.1224 358.352 51.4609C358.68 50.7995 359.133 50.2891 359.711 49.9297C360.294 49.5703 360.958 49.3906 361.703 49.3906C362.854 49.3906 363.784 49.7891 364.492 50.5859C365.206 51.3828 365.562 52.4427 365.562 53.7656V53.8672C365.562 54.6901 365.404 55.4297 365.086 56.0859C364.773 56.737 364.323 57.2448 363.734 57.6094C363.151 57.974 362.479 58.1562 361.719 58.1562C360.573 58.1562 359.643 57.7578 358.93 56.9609C358.221 56.1641 357.867 55.1094 357.867 53.7969V53.6953ZM359.32 53.8672C359.32 54.8047 359.536 55.5573 359.969 56.125C360.406 56.6927 360.99 56.9766 361.719 56.9766C362.453 56.9766 363.036 56.6901 363.469 56.1172C363.901 55.5391 364.117 54.7318 364.117 53.6953C364.117 52.7682 363.896 52.0182 363.453 51.4453C363.016 50.8672 362.432 50.5781 361.703 50.5781C360.99 50.5781 360.414 50.862 359.977 51.4297C359.539 51.9974 359.32 52.8099 359.32 53.8672ZM374.859 56.0078L376.484 49.5469H377.93L375.469 58H374.297L372.242 51.5938L370.242 58H369.07L366.617 49.5469H368.055L369.719 55.875L371.688 49.5469H372.852L374.859 56.0078ZM385.336 47.5V49.5469H386.914V50.6641H385.336V55.9062C385.336 56.2448 385.406 56.5 385.547 56.6719C385.688 56.8385 385.927 56.9219 386.266 56.9219C386.432 56.9219 386.661 56.8906 386.953 56.8281V58C386.573 58.1042 386.203 58.1562 385.844 58.1562C385.198 58.1562 384.711 57.9609 384.383 57.5703C384.055 57.1797 383.891 56.625 383.891 55.9062V50.6641H382.352V49.5469H383.891V47.5H385.336ZM388.07 53.6953C388.07 52.8672 388.232 52.1224 388.555 51.4609C388.883 50.7995 389.336 50.2891 389.914 49.9297C390.497 49.5703 391.161 49.3906 391.906 49.3906C393.057 49.3906 393.987 49.7891 394.695 50.5859C395.409 51.3828 395.766 52.4427 395.766 53.7656V53.8672C395.766 54.6901 395.607 55.4297 395.289 56.0859C394.977 56.737 394.526 57.2448 393.938 57.6094C393.354 57.974 392.682 58.1562 391.922 58.1562C390.776 58.1562 389.846 57.7578 389.133 56.9609C388.424 56.1641 388.07 55.1094 388.07 53.7969V53.6953ZM389.523 53.8672C389.523 54.8047 389.74 55.5573 390.172 56.125C390.609 56.6927 391.193 56.9766 391.922 56.9766C392.656 56.9766 393.24 56.6901 393.672 56.1172C394.104 55.5391 394.32 54.7318 394.32 53.6953C394.32 52.7682 394.099 52.0182 393.656 51.4453C393.219 50.8672 392.635 50.5781 391.906 50.5781C391.193 50.5781 390.617 50.862 390.18 51.4297C389.742 51.9974 389.523 52.8099 389.523 53.8672ZM409.031 56.0078L410.656 49.5469H412.102L409.641 58H408.469L406.414 51.5938L404.414 58H403.242L400.789 49.5469H402.227L403.891 55.875L405.859 49.5469H407.023L409.031 56.0078ZM415.148 58H413.703V49.5469H415.148V58ZM413.586 47.3047C413.586 47.0703 413.656 46.8724 413.797 46.7109C413.943 46.5495 414.156 46.4688 414.438 46.4688C414.719 46.4688 414.932 46.5495 415.078 46.7109C415.224 46.8724 415.297 47.0703 415.297 47.3047C415.297 47.5391 415.224 47.7344 415.078 47.8906C414.932 48.0469 414.719 48.125 414.438 48.125C414.156 48.125 413.943 48.0469 413.797 47.8906C413.656 47.7344 413.586 47.5391 413.586 47.3047ZM419.43 47.5V49.5469H421.008V50.6641H419.43V55.9062C419.43 56.2448 419.5 56.5 419.641 56.6719C419.781 56.8385 420.021 56.9219 420.359 56.9219C420.526 56.9219 420.755 56.8906 421.047 56.8281V58C420.667 58.1042 420.297 58.1562 419.938 58.1562C419.292 58.1562 418.805 57.9609 418.477 57.5703C418.148 57.1797 417.984 56.625 417.984 55.9062V50.6641H416.445V49.5469H417.984V47.5H419.43ZM424.148 50.5703C424.789 49.7839 425.622 49.3906 426.648 49.3906C428.435 49.3906 429.336 50.3984 429.352 52.4141V58H427.906V52.4062C427.901 51.7969 427.76 51.3464 427.484 51.0547C427.214 50.763 426.789 50.6172 426.211 50.6172C425.742 50.6172 425.331 50.7422 424.977 50.9922C424.622 51.2422 424.346 51.5703 424.148 51.9766V58H422.703V46H424.148V50.5703ZM431.164 53.7031C431.164 52.4062 431.471 51.3646 432.086 50.5781C432.701 49.7865 433.505 49.3906 434.5 49.3906C435.49 49.3906 436.273 49.7292 436.852 50.4062V46H438.297V58H436.969L436.898 57.0938C436.32 57.8021 435.516 58.1562 434.484 58.1562C433.505 58.1562 432.706 57.7552 432.086 56.9531C431.471 56.151 431.164 55.1042 431.164 53.8125V53.7031ZM432.609 53.8672C432.609 54.8255 432.807 55.5755 433.203 56.1172C433.599 56.6589 434.146 56.9297 434.844 56.9297C435.76 56.9297 436.43 56.5182 436.852 55.6953V51.8125C436.419 51.0156 435.755 50.6172 434.859 50.6172C434.151 50.6172 433.599 50.8906 433.203 51.4375C432.807 51.9844 432.609 52.7943 432.609 53.8672ZM444.633 50.8438C444.414 50.8073 444.177 50.7891 443.922 50.7891C442.974 50.7891 442.331 51.1927 441.992 52V58H440.547V49.5469H441.953L441.977 50.5234C442.451 49.7682 443.122 49.3906 443.992 49.3906C444.273 49.3906 444.487 49.4271 444.633 49.5V50.8438ZM450.875 58C450.792 57.8333 450.724 57.5365 450.672 57.1094C450 57.8073 449.198 58.1562 448.266 58.1562C447.432 58.1562 446.747 57.9219 446.211 57.4531C445.68 56.9792 445.414 56.3802 445.414 55.6562C445.414 54.776 445.747 54.0938 446.414 53.6094C447.086 53.1198 448.029 52.875 449.242 52.875H450.648V52.2109C450.648 51.7057 450.497 51.3047 450.195 51.0078C449.893 50.7057 449.448 50.5547 448.859 50.5547C448.344 50.5547 447.911 50.6849 447.562 50.9453C447.214 51.2057 447.039 51.5208 447.039 51.8906H445.586C445.586 51.4688 445.734 51.0625 446.031 50.6719C446.333 50.276 446.74 49.9635 447.25 49.7344C447.766 49.5052 448.331 49.3906 448.945 49.3906C449.919 49.3906 450.682 49.6354 451.234 50.125C451.786 50.6094 452.073 51.2786 452.094 52.1328V56.0234C452.094 56.7995 452.193 57.4167 452.391 57.875V58H450.875ZM448.477 56.8984C448.93 56.8984 449.359 56.7812 449.766 56.5469C450.172 56.3125 450.466 56.0078 450.648 55.6328V53.8984H449.516C447.745 53.8984 446.859 54.4167 446.859 55.4531C446.859 55.9062 447.01 56.2604 447.312 56.5156C447.615 56.7708 448.003 56.8984 448.477 56.8984ZM461.844 56.0078L463.469 49.5469H464.914L462.453 58H461.281L459.227 51.5938L457.227 58H456.055L453.602 49.5469H455.039L456.703 55.875L458.672 49.5469H459.836L461.844 56.0078ZM471.719 49.5469L471.758 50.4844C472.378 49.7552 473.214 49.3906 474.266 49.3906C475.448 49.3906 476.253 49.8438 476.68 50.75C476.961 50.3438 477.326 50.0156 477.773 49.7656C478.227 49.5156 478.76 49.3906 479.375 49.3906C481.229 49.3906 482.172 50.3724 482.203 52.3359V58H480.758V52.4219C480.758 51.8177 480.62 51.3672 480.344 51.0703C480.068 50.7682 479.604 50.6172 478.953 50.6172C478.417 50.6172 477.971 50.7786 477.617 51.1016C477.263 51.4193 477.057 51.849 477 52.3906V58H475.547V52.4609C475.547 51.2318 474.945 50.6172 473.742 50.6172C472.794 50.6172 472.146 51.0208 471.797 51.8281V58H470.352V49.5469H471.719ZM484.008 53.6953C484.008 52.8672 484.169 52.1224 484.492 51.4609C484.82 50.7995 485.273 50.2891 485.852 49.9297C486.435 49.5703 487.099 49.3906 487.844 49.3906C488.995 49.3906 489.924 49.7891 490.633 50.5859C491.346 51.3828 491.703 52.4427 491.703 53.7656V53.8672C491.703 54.6901 491.544 55.4297 491.227 56.0859C490.914 56.737 490.464 57.2448 489.875 57.6094C489.292 57.974 488.62 58.1562 487.859 58.1562C486.714 58.1562 485.784 57.7578 485.07 56.9609C484.362 56.1641 484.008 55.1094 484.008 53.7969V53.6953ZM485.461 53.8672C485.461 54.8047 485.677 55.5573 486.109 56.125C486.547 56.6927 487.13 56.9766 487.859 56.9766C488.594 56.9766 489.177 56.6901 489.609 56.1172C490.042 55.5391 490.258 54.7318 490.258 53.6953C490.258 52.7682 490.036 52.0182 489.594 51.4453C489.156 50.8672 488.573 50.5781 487.844 50.5781C487.13 50.5781 486.555 50.862 486.117 51.4297C485.68 51.9974 485.461 52.8099 485.461 53.8672ZM494.883 49.5469L494.93 50.6094C495.576 49.7969 496.419 49.3906 497.461 49.3906C499.247 49.3906 500.148 50.3984 500.164 52.4141V58H498.719V52.4062C498.714 51.7969 498.573 51.3464 498.297 51.0547C498.026 50.763 497.602 50.6172 497.023 50.6172C496.555 50.6172 496.143 50.7422 495.789 50.9922C495.435 51.2422 495.159 51.5703 494.961 51.9766V58H493.516V49.5469H494.883ZM505.852 58.1562C504.706 58.1562 503.773 57.7812 503.055 57.0312C502.336 56.276 501.977 55.2682 501.977 54.0078V53.7422C501.977 52.9036 502.135 52.1562 502.453 51.5C502.776 50.8385 503.224 50.3229 503.797 49.9531C504.375 49.5781 505 49.3906 505.672 49.3906C506.771 49.3906 507.625 49.7526 508.234 50.4766C508.844 51.2005 509.148 52.237 509.148 53.5859V54.1875H503.422C503.443 55.0208 503.685 55.6953 504.148 56.2109C504.617 56.7214 505.211 56.9766 505.93 56.9766C506.44 56.9766 506.872 56.8724 507.227 56.6641C507.581 56.4557 507.891 56.1797 508.156 55.8359L509.039 56.5234C508.331 57.612 507.268 58.1562 505.852 58.1562ZM505.672 50.5781C505.089 50.5781 504.599 50.7917 504.203 51.2188C503.807 51.6406 503.562 52.2344 503.469 53H507.703V52.8906C507.661 52.1562 507.464 51.5885 507.109 51.1875C506.755 50.7812 506.276 50.5781 505.672 50.5781ZM513.484 55.8828L515.453 49.5469H517L513.602 59.3047C513.076 60.7109 512.24 61.4141 511.094 61.4141L510.82 61.3906L510.281 61.2891V60.1172L510.672 60.1484C511.161 60.1484 511.542 60.0495 511.812 59.8516C512.089 59.6536 512.315 59.2917 512.492 58.7656L512.812 57.9062L509.797 49.5469H511.375L513.484 55.8828ZM522.977 58V50.6641H521.641V49.5469H522.977V48.6797C522.977 47.7734 523.219 47.0729 523.703 46.5781C524.188 46.0833 524.872 45.8359 525.758 45.8359C526.091 45.8359 526.422 45.8802 526.75 45.9688L526.672 47.1406C526.427 47.0938 526.167 47.0703 525.891 47.0703C525.422 47.0703 525.06 47.2083 524.805 47.4844C524.549 47.7552 524.422 48.1458 524.422 48.6562V49.5469H526.227V50.6641H524.422V58H522.977ZM531.914 50.8438C531.695 50.8073 531.458 50.7891 531.203 50.7891C530.255 50.7891 529.612 51.1927 529.273 52V58H527.828V49.5469H529.234L529.258 50.5234C529.732 49.7682 530.404 49.3906 531.273 49.3906C531.555 49.3906 531.768 49.4271 531.914 49.5V50.8438ZM532.711 53.6953C532.711 52.8672 532.872 52.1224 533.195 51.4609C533.523 50.7995 533.977 50.2891 534.555 49.9297C535.138 49.5703 535.802 49.3906 536.547 49.3906C537.698 49.3906 538.628 49.7891 539.336 50.5859C540.049 51.3828 540.406 52.4427 540.406 53.7656V53.8672C540.406 54.6901 540.247 55.4297 539.93 56.0859C539.617 56.737 539.167 57.2448 538.578 57.6094C537.995 57.974 537.323 58.1562 536.562 58.1562C535.417 58.1562 534.487 57.7578 533.773 56.9609C533.065 56.1641 532.711 55.1094 532.711 53.7969V53.6953ZM534.164 53.8672C534.164 54.8047 534.38 55.5573 534.812 56.125C535.25 56.6927 535.833 56.9766 536.562 56.9766C537.297 56.9766 537.88 56.6901 538.312 56.1172C538.745 55.5391 538.961 54.7318 538.961 53.6953C538.961 52.7682 538.74 52.0182 538.297 51.4453C537.859 50.8672 537.276 50.5781 536.547 50.5781C535.833 50.5781 535.258 50.862 534.82 51.4297C534.383 51.9974 534.164 52.8099 534.164 53.8672ZM543.578 49.5469L543.617 50.4844C544.237 49.7552 545.073 49.3906 546.125 49.3906C547.307 49.3906 548.112 49.8438 548.539 50.75C548.82 50.3438 549.185 50.0156 549.633 49.7656C550.086 49.5156 550.62 49.3906 551.234 49.3906C553.089 49.3906 554.031 50.3724 554.062 52.3359V58H552.617V52.4219C552.617 51.8177 552.479 51.3672 552.203 51.0703C551.927 50.7682 551.464 50.6172 550.812 50.6172C550.276 50.6172 549.831 50.7786 549.477 51.1016C549.122 51.4193 548.917 51.849 548.859 52.3906V58H547.406V52.4609C547.406 51.2318 546.805 50.6172 545.602 50.6172C544.654 50.6172 544.005 51.0208 543.656 51.8281V58H542.211V49.5469H543.578ZM566.727 55.0312H561.961L560.891 58H559.344L563.688 46.625H565L569.352 58H567.812L566.727 55.0312ZM562.414 53.7969H566.281L564.344 48.4766L562.414 53.7969ZM577.727 47.8594H574.07V58H572.578V47.8594H568.93V46.625H577.727V47.8594ZM581.352 46.625L585.07 55.9062L588.789 46.625H590.734V58H589.234V53.5703L589.375 48.7891L585.641 58H584.492L580.766 48.8125L580.914 53.5703V58H579.414V46.625H581.352Z" fill="#6654A4"/>
<path d="M38.1105 63.744H53.5025V61.312H42.4945C46.6225 57.952 52.8305 53.056 52.8305 47.296C52.8305 43.008 50.0145 40.448 45.6625 40.448C41.5025 40.448 38.3985 43.008 38.2065 47.936H41.0225C41.1505 45.024 42.6865 42.944 45.6945 42.944C48.8305 42.944 49.9505 44.864 49.9505 47.424C49.9505 52.16 44.1905 56.768 38.1105 61.664V63.744Z" fill="#6654A4"/>
<defs>
<filter id="filter0_d" x="0" y="0" width="628" height="113" filterUnits="userSpaceOnUse" color-interpolation-filters="sRGB">
<feFlood flood-opacity="0" result="BackgroundImageFix"/>
<feColorMatrix in="SourceAlpha" type="matrix" values="0 0 0 0 0 0 0 0 0 0 0 0 0 0 0 0 0 0 127 0"/>
<feMorphology radius="4" operator="dilate" in="SourceAlpha" result="effect1_dropShadow"/>
<feOffset dy="3"/>
<feGaussianBlur stdDeviation="7.5"/>
<feColorMatrix type="matrix" values="0 0 0 0 0.872109 0 0 0 0 0.853125 0 0 0 0 0.9375 0 0 0 0.5 0"/>
<feBlend mode="normal" in2="BackgroundImageFix" result="effect1_dropShadow"/>
<feBlend mode="normal" in="SourceGraphic" in2="effect1_dropShadow" result="shape"/>
</filter>
</defs>
</svg>
