<svg width="629" height="113" viewBox="0 0 629 113" fill="none" xmlns="http://www.w3.org/2000/svg">
<g filter="url(#filter0_d)">
<rect x="19" y="16" width="591" height="75" rx="24" fill="white"/>
</g>
<path d="M89.4023 52.3906C89.2617 53.5938 88.8164 54.5234 88.0664 55.1797C87.3216 55.8307 86.3294 56.1562 85.0898 56.1562C83.7461 56.1562 82.668 55.6745 81.8555 54.7109C81.0482 53.7474 80.6445 52.4583 80.6445 50.8438V49.75C80.6445 48.6927 80.832 47.763 81.207 46.9609C81.5872 46.1589 82.1237 45.5443 82.8164 45.1172C83.5091 44.6849 84.3112 44.4688 85.2227 44.4688C86.431 44.4688 87.3997 44.8073 88.1289 45.4844C88.8581 46.1562 89.2826 47.0885 89.4023 48.2812H87.8945C87.7643 47.375 87.4805 46.7188 87.043 46.3125C86.6107 45.9062 86.0039 45.7031 85.2227 45.7031C84.2643 45.7031 83.5117 46.0573 82.9648 46.7656C82.4232 47.474 82.1523 48.4818 82.1523 49.7891V50.8906C82.1523 52.125 82.4102 53.1068 82.9258 53.8359C83.4414 54.5651 84.1628 54.9297 85.0898 54.9297C85.9232 54.9297 86.5612 54.7422 87.0039 54.3672C87.4518 53.987 87.7487 53.3281 87.8945 52.3906H89.4023ZM90.8477 51.6953C90.8477 50.8672 91.0091 50.1224 91.332 49.4609C91.6602 48.7995 92.1133 48.2891 92.6914 47.9297C93.2747 47.5703 93.9388 47.3906 94.6836 47.3906C95.8346 47.3906 96.7643 47.7891 97.4727 48.5859C98.1862 49.3828 98.543 50.4427 98.543 51.7656V51.8672C98.543 52.6901 98.3841 53.4297 98.0664 54.0859C97.7539 54.737 97.3034 55.2448 96.7148 55.6094C96.1315 55.974 95.4596 56.1562 94.6992 56.1562C93.5534 56.1562 92.6237 55.7578 91.9102 54.9609C91.2018 54.1641 90.8477 53.1094 90.8477 51.7969V51.6953ZM92.3008 51.8672C92.3008 52.8047 92.5169 53.5573 92.9492 54.125C93.3867 54.6927 93.9701 54.9766 94.6992 54.9766C95.4336 54.9766 96.0169 54.6901 96.4492 54.1172C96.8815 53.5391 97.0977 52.7318 97.0977 51.6953C97.0977 50.7682 96.8763 50.0182 96.4336 49.4453C95.9961 48.8672 95.4128 48.5781 94.6836 48.5781C93.9701 48.5781 93.3945 48.862 92.957 49.4297C92.5195 49.9974 92.3008 50.8099 92.3008 51.8672ZM101.723 47.5469L101.77 48.6094C102.415 47.7969 103.259 47.3906 104.301 47.3906C106.087 47.3906 106.988 48.3984 107.004 50.4141V56H105.559V50.4062C105.553 49.7969 105.413 49.3464 105.137 49.0547C104.866 48.763 104.441 48.6172 103.863 48.6172C103.395 48.6172 102.983 48.7422 102.629 48.9922C102.275 49.2422 101.999 49.5703 101.801 49.9766V56H100.355V47.5469H101.723ZM114.105 53.7578C114.105 53.3672 113.957 53.0651 113.66 52.8516C113.368 52.6328 112.855 52.4453 112.121 52.2891C111.392 52.1328 110.811 51.9453 110.379 51.7266C109.952 51.5078 109.634 51.2474 109.426 50.9453C109.223 50.6432 109.121 50.2839 109.121 49.8672C109.121 49.1745 109.413 48.5885 109.996 48.1094C110.585 47.6302 111.335 47.3906 112.246 47.3906C113.204 47.3906 113.98 47.638 114.574 48.1328C115.173 48.6276 115.473 49.2604 115.473 50.0312H114.02C114.02 49.6354 113.85 49.2943 113.512 49.0078C113.178 48.7214 112.757 48.5781 112.246 48.5781C111.72 48.5781 111.309 48.6927 111.012 48.9219C110.715 49.151 110.566 49.4505 110.566 49.8203C110.566 50.1693 110.704 50.4323 110.98 50.6094C111.257 50.7865 111.754 50.9557 112.473 51.1172C113.197 51.2786 113.783 51.4714 114.23 51.6953C114.678 51.9193 115.009 52.1901 115.223 52.5078C115.441 52.8203 115.551 53.2031 115.551 53.6562C115.551 54.4115 115.249 55.0182 114.645 55.4766C114.04 55.9297 113.257 56.1562 112.293 56.1562C111.616 56.1562 111.017 56.0365 110.496 55.7969C109.975 55.5573 109.566 55.224 109.27 54.7969C108.978 54.3646 108.832 53.8984 108.832 53.3984H110.277C110.303 53.8828 110.496 54.2682 110.855 54.5547C111.22 54.8359 111.699 54.9766 112.293 54.9766C112.84 54.9766 113.277 54.8672 113.605 54.6484C113.939 54.4245 114.105 54.1276 114.105 53.7578ZM122.652 55.1641C122.09 55.8255 121.264 56.1562 120.176 56.1562C119.275 56.1562 118.587 55.8958 118.113 55.375C117.645 54.849 117.408 54.0729 117.402 53.0469V47.5469H118.848V53.0078C118.848 54.2891 119.368 54.9297 120.41 54.9297C121.514 54.9297 122.249 54.5182 122.613 53.6953V47.5469H124.059V56H122.684L122.652 55.1641ZM127.621 47.5469L127.66 48.4844C128.28 47.7552 129.116 47.3906 130.168 47.3906C131.35 47.3906 132.155 47.8438 132.582 48.75C132.863 48.3438 133.228 48.0156 133.676 47.7656C134.129 47.5156 134.663 47.3906 135.277 47.3906C137.132 47.3906 138.074 48.3724 138.105 50.3359V56H136.66V50.4219C136.66 49.8177 136.522 49.3672 136.246 49.0703C135.97 48.7682 135.507 48.6172 134.855 48.6172C134.319 48.6172 133.874 48.7786 133.52 49.1016C133.165 49.4193 132.96 49.849 132.902 50.3906V56H131.449V50.4609C131.449 49.2318 130.848 48.6172 129.645 48.6172C128.697 48.6172 128.048 49.0208 127.699 49.8281V56H126.254V47.5469H127.621ZM143.801 56.1562C142.655 56.1562 141.723 55.7812 141.004 55.0312C140.285 54.276 139.926 53.2682 139.926 52.0078V51.7422C139.926 50.9036 140.085 50.1562 140.402 49.5C140.725 48.8385 141.173 48.3229 141.746 47.9531C142.324 47.5781 142.949 47.3906 143.621 47.3906C144.72 47.3906 145.574 47.7526 146.184 48.4766C146.793 49.2005 147.098 50.237 147.098 51.5859V52.1875H141.371C141.392 53.0208 141.634 53.6953 142.098 54.2109C142.566 54.7214 143.16 54.9766 143.879 54.9766C144.389 54.9766 144.822 54.8724 145.176 54.6641C145.53 54.4557 145.84 54.1797 146.105 53.8359L146.988 54.5234C146.28 55.612 145.217 56.1562 143.801 56.1562ZM143.621 48.5781C143.038 48.5781 142.548 48.7917 142.152 49.2188C141.757 49.6406 141.512 50.2344 141.418 51H145.652V50.8906C145.611 50.1562 145.413 49.5885 145.059 49.1875C144.704 48.7812 144.225 48.5781 143.621 48.5781ZM152.863 48.8438C152.645 48.8073 152.408 48.7891 152.152 48.7891C151.204 48.7891 150.561 49.1927 150.223 50V56H148.777V47.5469H150.184L150.207 48.5234C150.681 47.7682 151.353 47.3906 152.223 47.3906C152.504 47.3906 152.717 47.4271 152.863 47.5V48.8438ZM165.652 54.0078L167.277 47.5469H168.723L166.262 56H165.09L163.035 49.5938L161.035 56H159.863L157.41 47.5469H158.848L160.512 53.875L162.48 47.5469H163.645L165.652 54.0078ZM171.77 56H170.324V47.5469H171.77V56ZM170.207 45.3047C170.207 45.0703 170.277 44.8724 170.418 44.7109C170.564 44.5495 170.777 44.4688 171.059 44.4688C171.34 44.4688 171.553 44.5495 171.699 44.7109C171.845 44.8724 171.918 45.0703 171.918 45.3047C171.918 45.5391 171.845 45.7344 171.699 45.8906C171.553 46.0469 171.34 46.125 171.059 46.125C170.777 46.125 170.564 46.0469 170.418 45.8906C170.277 45.7344 170.207 45.5391 170.207 45.3047ZM175.66 56H174.215V44H175.66V56ZM179.551 56H178.105V44H179.551V56ZM190.762 53.7578C190.762 53.3672 190.613 53.0651 190.316 52.8516C190.025 52.6328 189.512 52.4453 188.777 52.2891C188.048 52.1328 187.467 51.9453 187.035 51.7266C186.608 51.5078 186.29 51.2474 186.082 50.9453C185.879 50.6432 185.777 50.2839 185.777 49.8672C185.777 49.1745 186.069 48.5885 186.652 48.1094C187.241 47.6302 187.991 47.3906 188.902 47.3906C189.861 47.3906 190.637 47.638 191.23 48.1328C191.829 48.6276 192.129 49.2604 192.129 50.0312H190.676C190.676 49.6354 190.507 49.2943 190.168 49.0078C189.835 48.7214 189.413 48.5781 188.902 48.5781C188.376 48.5781 187.965 48.6927 187.668 48.9219C187.371 49.151 187.223 49.4505 187.223 49.8203C187.223 50.1693 187.361 50.4323 187.637 50.6094C187.913 50.7865 188.41 50.9557 189.129 51.1172C189.853 51.2786 190.439 51.4714 190.887 51.6953C191.335 51.9193 191.665 52.1901 191.879 52.5078C192.098 52.8203 192.207 53.2031 192.207 53.6562C192.207 54.4115 191.905 55.0182 191.301 55.4766C190.697 55.9297 189.913 56.1562 188.949 56.1562C188.272 56.1562 187.673 56.0365 187.152 55.7969C186.632 55.5573 186.223 55.224 185.926 54.7969C185.634 54.3646 185.488 53.8984 185.488 53.3984H186.934C186.96 53.8828 187.152 54.2682 187.512 54.5547C187.876 54.8359 188.355 54.9766 188.949 54.9766C189.496 54.9766 189.934 54.8672 190.262 54.6484C190.595 54.4245 190.762 54.1276 190.762 53.7578ZM197.598 56.1562C196.452 56.1562 195.52 55.7812 194.801 55.0312C194.082 54.276 193.723 53.2682 193.723 52.0078V51.7422C193.723 50.9036 193.882 50.1562 194.199 49.5C194.522 48.8385 194.97 48.3229 195.543 47.9531C196.121 47.5781 196.746 47.3906 197.418 47.3906C198.517 47.3906 199.371 47.7526 199.98 48.4766C200.59 49.2005 200.895 50.237 200.895 51.5859V52.1875H195.168C195.189 53.0208 195.431 53.6953 195.895 54.2109C196.363 54.7214 196.957 54.9766 197.676 54.9766C198.186 54.9766 198.618 54.8724 198.973 54.6641C199.327 54.4557 199.637 54.1797 199.902 53.8359L200.785 54.5234C200.077 55.612 199.014 56.1562 197.598 56.1562ZM197.418 48.5781C196.835 48.5781 196.345 48.7917 195.949 49.2188C195.553 49.6406 195.309 50.2344 195.215 51H199.449V50.8906C199.408 50.1562 199.21 49.5885 198.855 49.1875C198.501 48.7812 198.022 48.5781 197.418 48.5781ZM204.145 56H202.699V44H204.145V56ZM209.973 56.1562C208.827 56.1562 207.895 55.7812 207.176 55.0312C206.457 54.276 206.098 53.2682 206.098 52.0078V51.7422C206.098 50.9036 206.257 50.1562 206.574 49.5C206.897 48.8385 207.345 48.3229 207.918 47.9531C208.496 47.5781 209.121 47.3906 209.793 47.3906C210.892 47.3906 211.746 47.7526 212.355 48.4766C212.965 49.2005 213.27 50.237 213.27 51.5859V52.1875H207.543C207.564 53.0208 207.806 53.6953 208.27 54.2109C208.738 54.7214 209.332 54.9766 210.051 54.9766C210.561 54.9766 210.993 54.8724 211.348 54.6641C211.702 54.4557 212.012 54.1797 212.277 53.8359L213.16 54.5234C212.452 55.612 211.389 56.1562 209.973 56.1562ZM209.793 48.5781C209.21 48.5781 208.72 48.7917 208.324 49.2188C207.928 49.6406 207.684 50.2344 207.59 51H211.824V50.8906C211.783 50.1562 211.585 49.5885 211.23 49.1875C210.876 48.7812 210.397 48.5781 209.793 48.5781ZM218.34 54.9766C218.855 54.9766 219.306 54.8203 219.691 54.5078C220.077 54.1953 220.29 53.8047 220.332 53.3359H221.699C221.673 53.8203 221.507 54.2812 221.199 54.7188C220.892 55.1562 220.48 55.5052 219.965 55.7656C219.454 56.026 218.913 56.1562 218.34 56.1562C217.189 56.1562 216.272 55.7734 215.59 55.0078C214.913 54.237 214.574 53.1849 214.574 51.8516V51.6094C214.574 50.7865 214.725 50.0547 215.027 49.4141C215.329 48.7734 215.762 48.276 216.324 47.9219C216.892 47.5677 217.561 47.3906 218.332 47.3906C219.28 47.3906 220.066 47.6745 220.691 48.2422C221.322 48.8099 221.658 49.5469 221.699 50.4531H220.332C220.29 49.9062 220.082 49.4583 219.707 49.1094C219.337 48.7552 218.879 48.5781 218.332 48.5781C217.598 48.5781 217.027 48.8438 216.621 49.375C216.22 49.901 216.02 50.6641 216.02 51.6641V51.9375C216.02 52.9115 216.22 53.6615 216.621 54.1875C217.022 54.7135 217.595 54.9766 218.34 54.9766ZM225.285 45.5V47.5469H226.863V48.6641H225.285V53.9062C225.285 54.2448 225.355 54.5 225.496 54.6719C225.637 54.8385 225.876 54.9219 226.215 54.9219C226.382 54.9219 226.611 54.8906 226.902 54.8281V56C226.522 56.1042 226.152 56.1562 225.793 56.1562C225.147 56.1562 224.66 55.9609 224.332 55.5703C224.004 55.1797 223.84 54.625 223.84 53.9062V48.6641H222.301V47.5469H223.84V45.5H225.285ZM234.488 45.5V47.5469H236.066V48.6641H234.488V53.9062C234.488 54.2448 234.559 54.5 234.699 54.6719C234.84 54.8385 235.079 54.9219 235.418 54.9219C235.585 54.9219 235.814 54.8906 236.105 54.8281V56C235.725 56.1042 235.355 56.1562 234.996 56.1562C234.35 56.1562 233.863 55.9609 233.535 55.5703C233.207 55.1797 233.043 54.625 233.043 53.9062V48.6641H231.504V47.5469H233.043V45.5H234.488ZM237.223 51.6953C237.223 50.8672 237.384 50.1224 237.707 49.4609C238.035 48.7995 238.488 48.2891 239.066 47.9297C239.65 47.5703 240.314 47.3906 241.059 47.3906C242.21 47.3906 243.139 47.7891 243.848 48.5859C244.561 49.3828 244.918 50.4427 244.918 51.7656V51.8672C244.918 52.6901 244.759 53.4297 244.441 54.0859C244.129 54.737 243.678 55.2448 243.09 55.6094C242.507 55.974 241.835 56.1562 241.074 56.1562C239.928 56.1562 238.999 55.7578 238.285 54.9609C237.577 54.1641 237.223 53.1094 237.223 51.7969V51.6953ZM238.676 51.8672C238.676 52.8047 238.892 53.5573 239.324 54.125C239.762 54.6927 240.345 54.9766 241.074 54.9766C241.809 54.9766 242.392 54.6901 242.824 54.1172C243.257 53.5391 243.473 52.7318 243.473 51.6953C243.473 50.7682 243.251 50.0182 242.809 49.4453C242.371 48.8672 241.788 48.5781 241.059 48.5781C240.345 48.5781 239.77 48.862 239.332 49.4297C238.895 49.9974 238.676 50.8099 238.676 51.8672ZM252.66 45.5V47.5469H254.238V48.6641H252.66V53.9062C252.66 54.2448 252.73 54.5 252.871 54.6719C253.012 54.8385 253.251 54.9219 253.59 54.9219C253.757 54.9219 253.986 54.8906 254.277 54.8281V56C253.897 56.1042 253.527 56.1562 253.168 56.1562C252.522 56.1562 252.035 55.9609 251.707 55.5703C251.379 55.1797 251.215 54.625 251.215 53.9062V48.6641H249.676V47.5469H251.215V45.5H252.66ZM255.395 51.6953C255.395 50.8672 255.556 50.1224 255.879 49.4609C256.207 48.7995 256.66 48.2891 257.238 47.9297C257.822 47.5703 258.486 47.3906 259.23 47.3906C260.382 47.3906 261.311 47.7891 262.02 48.5859C262.733 49.3828 263.09 50.4427 263.09 51.7656V51.8672C263.09 52.6901 262.931 53.4297 262.613 54.0859C262.301 54.737 261.85 55.2448 261.262 55.6094C260.678 55.974 260.007 56.1562 259.246 56.1562C258.1 56.1562 257.171 55.7578 256.457 54.9609C255.749 54.1641 255.395 53.1094 255.395 51.7969V51.6953ZM256.848 51.8672C256.848 52.8047 257.064 53.5573 257.496 54.125C257.934 54.6927 258.517 54.9766 259.246 54.9766C259.98 54.9766 260.564 54.6901 260.996 54.1172C261.428 53.5391 261.645 52.7318 261.645 51.6953C261.645 50.7682 261.423 50.0182 260.98 49.4453C260.543 48.8672 259.96 48.5781 259.23 48.5781C258.517 48.5781 257.941 48.862 257.504 49.4297C257.066 49.9974 256.848 50.8099 256.848 51.8672ZM272.043 51.8672C272.043 53.1536 271.749 54.1901 271.16 54.9766C270.572 55.763 269.775 56.1562 268.77 56.1562C267.743 56.1562 266.936 55.8307 266.348 55.1797V59.25H264.902V47.5469H266.223L266.293 48.4844C266.882 47.7552 267.699 47.3906 268.746 47.3906C269.762 47.3906 270.564 47.7734 271.152 48.5391C271.746 49.3047 272.043 50.3698 272.043 51.7344V51.8672ZM270.598 51.7031C270.598 50.75 270.395 49.9974 269.988 49.4453C269.582 48.8932 269.025 48.6172 268.316 48.6172C267.441 48.6172 266.785 49.0052 266.348 49.7812V53.8203C266.78 54.5911 267.441 54.9766 268.332 54.9766C269.025 54.9766 269.574 54.7031 269.98 54.1562C270.392 53.6042 270.598 52.7865 270.598 51.7031ZM283.074 55.1641C282.512 55.8255 281.686 56.1562 280.598 56.1562C279.697 56.1562 279.009 55.8958 278.535 55.375C278.066 54.849 277.829 54.0729 277.824 53.0469V47.5469H279.27V53.0078C279.27 54.2891 279.79 54.9297 280.832 54.9297C281.936 54.9297 282.671 54.5182 283.035 53.6953V47.5469H284.48V56H283.105L283.074 55.1641ZM293.824 51.8672C293.824 53.1536 293.53 54.1901 292.941 54.9766C292.353 55.763 291.556 56.1562 290.551 56.1562C289.525 56.1562 288.717 55.8307 288.129 55.1797V59.25H286.684V47.5469H288.004L288.074 48.4844C288.663 47.7552 289.48 47.3906 290.527 47.3906C291.543 47.3906 292.345 47.7734 292.934 48.5391C293.527 49.3047 293.824 50.3698 293.824 51.7344V51.8672ZM292.379 51.7031C292.379 50.75 292.176 49.9974 291.77 49.4453C291.363 48.8932 290.806 48.6172 290.098 48.6172C289.223 48.6172 288.566 49.0052 288.129 49.7812V53.8203C288.561 54.5911 289.223 54.9766 290.113 54.9766C290.806 54.9766 291.355 54.7031 291.762 54.1562C292.173 53.6042 292.379 52.7865 292.379 51.7031ZM300.348 56V48.6641H299.012V47.5469H300.348V46.6797C300.348 45.7734 300.59 45.0729 301.074 44.5781C301.559 44.0833 302.243 43.8359 303.129 43.8359C303.462 43.8359 303.793 43.8802 304.121 43.9688L304.043 45.1406C303.798 45.0938 303.538 45.0703 303.262 45.0703C302.793 45.0703 302.431 45.2083 302.176 45.4844C301.921 45.7552 301.793 46.1458 301.793 46.6562V47.5469H303.598V48.6641H301.793V56H300.348ZM309.285 48.8438C309.066 48.8073 308.829 48.7891 308.574 48.7891C307.626 48.7891 306.983 49.1927 306.645 50V56H305.199V47.5469H306.605L306.629 48.5234C307.103 47.7682 307.775 47.3906 308.645 47.3906C308.926 47.3906 309.139 47.4271 309.285 47.5V48.8438ZM310.082 51.6953C310.082 50.8672 310.243 50.1224 310.566 49.4609C310.895 48.7995 311.348 48.2891 311.926 47.9297C312.509 47.5703 313.173 47.3906 313.918 47.3906C315.069 47.3906 315.999 47.7891 316.707 48.5859C317.421 49.3828 317.777 50.4427 317.777 51.7656V51.8672C317.777 52.6901 317.618 53.4297 317.301 54.0859C316.988 54.737 316.538 55.2448 315.949 55.6094C315.366 55.974 314.694 56.1562 313.934 56.1562C312.788 56.1562 311.858 55.7578 311.145 54.9609C310.436 54.1641 310.082 53.1094 310.082 51.7969V51.6953ZM311.535 51.8672C311.535 52.8047 311.751 53.5573 312.184 54.125C312.621 54.6927 313.204 54.9766 313.934 54.9766C314.668 54.9766 315.251 54.6901 315.684 54.1172C316.116 53.5391 316.332 52.7318 316.332 51.6953C316.332 50.7682 316.111 50.0182 315.668 49.4453C315.23 48.8672 314.647 48.5781 313.918 48.5781C313.204 48.5781 312.629 48.862 312.191 49.4297C311.754 49.9974 311.535 50.8099 311.535 51.8672ZM320.949 47.5469L320.988 48.4844C321.608 47.7552 322.444 47.3906 323.496 47.3906C324.678 47.3906 325.483 47.8438 325.91 48.75C326.191 48.3438 326.556 48.0156 327.004 47.7656C327.457 47.5156 327.991 47.3906 328.605 47.3906C330.46 47.3906 331.402 48.3724 331.434 50.3359V56H329.988V50.4219C329.988 49.8177 329.85 49.3672 329.574 49.0703C329.298 48.7682 328.835 48.6172 328.184 48.6172C327.647 48.6172 327.202 48.7786 326.848 49.1016C326.493 49.4193 326.288 49.849 326.23 50.3906V56H324.777V50.4609C324.777 49.2318 324.176 48.6172 322.973 48.6172C322.025 48.6172 321.376 49.0208 321.027 49.8281V56H319.582V47.5469H320.949ZM344.098 53.0312H339.332L338.262 56H336.715L341.059 44.625H342.371L346.723 56H345.184L344.098 53.0312ZM339.785 51.7969H343.652L341.715 46.4766L339.785 51.7969ZM355.098 45.8594H351.441V56H349.949V45.8594H346.301V44.625H355.098V45.8594ZM358.723 44.625L362.441 53.9062L366.16 44.625H368.105V56H366.605V51.5703L366.746 46.7891L363.012 56H361.863L358.137 46.8125L358.285 51.5703V56H356.785V44.625H358.723Z" fill="#6654A4"/>
<path d="M46.286 64H49.23V40.864H43.214V43.52H46.286V64Z" fill="#6654A4"/>
<defs>
<filter id="filter0_d" x="0" y="0" width="629" height="113" filterUnits="userSpaceOnUse" color-interpolation-filters="sRGB">
<feFlood flood-opacity="0" result="BackgroundImageFix"/>
<feColorMatrix in="SourceAlpha" type="matrix" values="0 0 0 0 0 0 0 0 0 0 0 0 0 0 0 0 0 0 127 0"/>
<feMorphology radius="4" operator="dilate" in="SourceAlpha" result="effect1_dropShadow"/>
<feOffset dy="3"/>
<feGaussianBlur stdDeviation="7.5"/>
<feColorMatrix type="matrix" values="0 0 0 0 0.872109 0 0 0 0 0.853125 0 0 0 0 0.9375 0 0 0 0.5 0"/>
<feBlend mode="normal" in2="BackgroundImageFix" result="effect1_dropShadow"/>
<feBlend mode="normal" in="SourceGraphic" in2="effect1_dropShadow" result="shape"/>
</filter>
</defs>
</svg>
