<svg width="563" height="75" viewBox="0 0 563 75" fill="none" xmlns="http://www.w3.org/2000/svg">
<path d="M70.4033 33.3906C70.2627 34.5938 69.8174 35.5234 69.0674 36.1797C68.3226 36.8307 67.3304 37.1562 66.0908 37.1562C64.7471 37.1562 63.6689 36.6745 62.8564 35.7109C62.0492 34.7474 61.6455 33.4583 61.6455 31.8438V30.75C61.6455 29.6927 61.833 28.763 62.208 27.9609C62.5882 27.1589 63.1247 26.5443 63.8174 26.1172C64.5101 25.6849 65.3122 25.4688 66.2236 25.4688C67.432 25.4688 68.4007 25.8073 69.1299 26.4844C69.859 27.1562 70.2835 28.0885 70.4033 29.2812H68.8955C68.7653 28.375 68.4814 27.7188 68.0439 27.3125C67.6117 26.9062 67.0049 26.7031 66.2236 26.7031C65.2653 26.7031 64.5127 27.0573 63.9658 27.7656C63.4242 28.474 63.1533 29.4818 63.1533 30.7891V31.8906C63.1533 33.125 63.4111 34.1068 63.9268 34.8359C64.4424 35.5651 65.1637 35.9297 66.0908 35.9297C66.9242 35.9297 67.5622 35.7422 68.0049 35.3672C68.4528 34.987 68.7497 34.3281 68.8955 33.3906H70.4033ZM71.8486 32.6953C71.8486 31.8672 72.0101 31.1224 72.333 30.4609C72.6611 29.7995 73.1143 29.2891 73.6924 28.9297C74.2757 28.5703 74.9398 28.3906 75.6846 28.3906C76.8356 28.3906 77.7653 28.7891 78.4736 29.5859C79.1872 30.3828 79.5439 31.4427 79.5439 32.7656V32.8672C79.5439 33.6901 79.3851 34.4297 79.0674 35.0859C78.7549 35.737 78.3044 36.2448 77.7158 36.6094C77.1325 36.974 76.4606 37.1562 75.7002 37.1562C74.5544 37.1562 73.6247 36.7578 72.9111 35.9609C72.2028 35.1641 71.8486 34.1094 71.8486 32.7969V32.6953ZM73.3018 32.8672C73.3018 33.8047 73.5179 34.5573 73.9502 35.125C74.3877 35.6927 74.971 35.9766 75.7002 35.9766C76.4346 35.9766 77.0179 35.6901 77.4502 35.1172C77.8825 34.5391 78.0986 33.7318 78.0986 32.6953C78.0986 31.7682 77.8773 31.0182 77.4346 30.4453C76.9971 29.8672 76.4137 29.5781 75.6846 29.5781C74.971 29.5781 74.3955 29.862 73.958 30.4297C73.5205 30.9974 73.3018 31.8099 73.3018 32.8672ZM82.7236 28.5469L82.7705 29.6094C83.4163 28.7969 84.2601 28.3906 85.3018 28.3906C87.0882 28.3906 87.9893 29.3984 88.0049 31.4141V37H86.5596V31.4062C86.5544 30.7969 86.4137 30.3464 86.1377 30.0547C85.8669 29.763 85.4424 29.6172 84.8643 29.6172C84.3955 29.6172 83.984 29.7422 83.6299 29.9922C83.2757 30.2422 82.9997 30.5703 82.8018 30.9766V37H81.3564V28.5469H82.7236ZM95.1064 34.7578C95.1064 34.3672 94.958 34.0651 94.6611 33.8516C94.3695 33.6328 93.8564 33.4453 93.1221 33.2891C92.3929 33.1328 91.8122 32.9453 91.3799 32.7266C90.9528 32.5078 90.6351 32.2474 90.4268 31.9453C90.2236 31.6432 90.1221 31.2839 90.1221 30.8672C90.1221 30.1745 90.4137 29.5885 90.9971 29.1094C91.5856 28.6302 92.3356 28.3906 93.2471 28.3906C94.2054 28.3906 94.9814 28.638 95.5752 29.1328C96.1742 29.6276 96.4736 30.2604 96.4736 31.0312H95.0205C95.0205 30.6354 94.8512 30.2943 94.5127 30.0078C94.1794 29.7214 93.7575 29.5781 93.2471 29.5781C92.721 29.5781 92.3096 29.6927 92.0127 29.9219C91.7158 30.151 91.5674 30.4505 91.5674 30.8203C91.5674 31.1693 91.7054 31.4323 91.9814 31.6094C92.2575 31.7865 92.7549 31.9557 93.4736 32.1172C94.1976 32.2786 94.7835 32.4714 95.2314 32.6953C95.6794 32.9193 96.0101 33.1901 96.2236 33.5078C96.4424 33.8203 96.5518 34.2031 96.5518 34.6562C96.5518 35.4115 96.2497 36.0182 95.6455 36.4766C95.0413 36.9297 94.2575 37.1562 93.2939 37.1562C92.6169 37.1562 92.0179 37.0365 91.4971 36.7969C90.9762 36.5573 90.5674 36.224 90.2705 35.7969C89.9788 35.3646 89.833 34.8984 89.833 34.3984H91.2783C91.3044 34.8828 91.4971 35.2682 91.8564 35.5547C92.221 35.8359 92.7002 35.9766 93.2939 35.9766C93.8408 35.9766 94.2783 35.8672 94.6064 35.6484C94.9398 35.4245 95.1064 35.1276 95.1064 34.7578ZM103.653 36.1641C103.091 36.8255 102.265 37.1562 101.177 37.1562C100.276 37.1562 99.5882 36.8958 99.1143 36.375C98.6455 35.849 98.4085 35.0729 98.4033 34.0469V28.5469H99.8486V34.0078C99.8486 35.2891 100.369 35.9297 101.411 35.9297C102.515 35.9297 103.25 35.5182 103.614 34.6953V28.5469H105.06V37H103.685L103.653 36.1641ZM108.622 28.5469L108.661 29.4844C109.281 28.7552 110.117 28.3906 111.169 28.3906C112.351 28.3906 113.156 28.8438 113.583 29.75C113.864 29.3438 114.229 29.0156 114.677 28.7656C115.13 28.5156 115.664 28.3906 116.278 28.3906C118.132 28.3906 119.075 29.3724 119.106 31.3359V37H117.661V31.4219C117.661 30.8177 117.523 30.3672 117.247 30.0703C116.971 29.7682 116.507 29.6172 115.856 29.6172C115.32 29.6172 114.875 29.7786 114.521 30.1016C114.166 30.4193 113.961 30.849 113.903 31.3906V37H112.45V31.4609C112.45 30.2318 111.849 29.6172 110.646 29.6172C109.698 29.6172 109.049 30.0208 108.7 30.8281V37H107.255V28.5469H108.622ZM124.802 37.1562C123.656 37.1562 122.724 36.7812 122.005 36.0312C121.286 35.276 120.927 34.2682 120.927 33.0078V32.7422C120.927 31.9036 121.086 31.1562 121.403 30.5C121.726 29.8385 122.174 29.3229 122.747 28.9531C123.325 28.5781 123.95 28.3906 124.622 28.3906C125.721 28.3906 126.575 28.7526 127.185 29.4766C127.794 30.2005 128.099 31.237 128.099 32.5859V33.1875H122.372C122.393 34.0208 122.635 34.6953 123.099 35.2109C123.567 35.7214 124.161 35.9766 124.88 35.9766C125.39 35.9766 125.823 35.8724 126.177 35.6641C126.531 35.4557 126.841 35.1797 127.106 34.8359L127.989 35.5234C127.281 36.612 126.218 37.1562 124.802 37.1562ZM124.622 29.5781C124.039 29.5781 123.549 29.7917 123.153 30.2188C122.757 30.6406 122.513 31.2344 122.419 32H126.653V31.8906C126.612 31.1562 126.414 30.5885 126.06 30.1875C125.705 29.7812 125.226 29.5781 124.622 29.5781ZM133.864 29.8438C133.646 29.8073 133.409 29.7891 133.153 29.7891C132.205 29.7891 131.562 30.1927 131.224 31V37H129.778V28.5469H131.185L131.208 29.5234C131.682 28.7682 132.354 28.3906 133.224 28.3906C133.505 28.3906 133.718 28.4271 133.864 28.5V29.8438ZM146.653 35.0078L148.278 28.5469H149.724L147.263 37H146.091L144.036 30.5938L142.036 37H140.864L138.411 28.5469H139.849L141.513 34.875L143.481 28.5469H144.646L146.653 35.0078ZM152.771 37H151.325V28.5469H152.771V37ZM151.208 26.3047C151.208 26.0703 151.278 25.8724 151.419 25.7109C151.565 25.5495 151.778 25.4688 152.06 25.4688C152.341 25.4688 152.554 25.5495 152.7 25.7109C152.846 25.8724 152.919 26.0703 152.919 26.3047C152.919 26.5391 152.846 26.7344 152.7 26.8906C152.554 27.0469 152.341 27.125 152.06 27.125C151.778 27.125 151.565 27.0469 151.419 26.8906C151.278 26.7344 151.208 26.5391 151.208 26.3047ZM156.661 37H155.216V25H156.661V37ZM160.552 37H159.106V25H160.552V37ZM170.349 37.1562C169.203 37.1562 168.271 36.7812 167.552 36.0312C166.833 35.276 166.474 34.2682 166.474 33.0078V32.7422C166.474 31.9036 166.632 31.1562 166.95 30.5C167.273 29.8385 167.721 29.3229 168.294 28.9531C168.872 28.5781 169.497 28.3906 170.169 28.3906C171.268 28.3906 172.122 28.7526 172.731 29.4766C173.341 30.2005 173.646 31.237 173.646 32.5859V33.1875H167.919C167.94 34.0208 168.182 34.6953 168.646 35.2109C169.114 35.7214 169.708 35.9766 170.427 35.9766C170.937 35.9766 171.369 35.8724 171.724 35.6641C172.078 35.4557 172.388 35.1797 172.653 34.8359L173.536 35.5234C172.828 36.612 171.765 37.1562 170.349 37.1562ZM170.169 29.5781C169.586 29.5781 169.096 29.7917 168.7 30.2188C168.304 30.6406 168.06 31.2344 167.966 32H172.2V31.8906C172.159 31.1562 171.961 30.5885 171.606 30.1875C171.252 29.7812 170.773 29.5781 170.169 29.5781ZM176.692 28.5469L176.739 29.6094C177.385 28.7969 178.229 28.3906 179.271 28.3906C181.057 28.3906 181.958 29.3984 181.974 31.4141V37H180.528V31.4062C180.523 30.7969 180.382 30.3464 180.106 30.0547C179.836 29.763 179.411 29.6172 178.833 29.6172C178.364 29.6172 177.953 29.7422 177.599 29.9922C177.244 30.2422 176.968 30.5703 176.771 30.9766V37H175.325V28.5469H176.692ZM186.114 26.5V28.5469H187.692V29.6641H186.114V34.9062C186.114 35.2448 186.185 35.5 186.325 35.6719C186.466 35.8385 186.705 35.9219 187.044 35.9219C187.211 35.9219 187.44 35.8906 187.731 35.8281V37C187.351 37.1042 186.981 37.1562 186.622 37.1562C185.976 37.1562 185.489 36.9609 185.161 36.5703C184.833 36.1797 184.669 35.625 184.669 34.9062V29.6641H183.13V28.5469H184.669V26.5H186.114ZM192.896 37.1562C191.75 37.1562 190.817 36.7812 190.099 36.0312C189.38 35.276 189.021 34.2682 189.021 33.0078V32.7422C189.021 31.9036 189.179 31.1562 189.497 30.5C189.82 29.8385 190.268 29.3229 190.841 28.9531C191.419 28.5781 192.044 28.3906 192.716 28.3906C193.815 28.3906 194.669 28.7526 195.278 29.4766C195.888 30.2005 196.192 31.237 196.192 32.5859V33.1875H190.466C190.487 34.0208 190.729 34.6953 191.192 35.2109C191.661 35.7214 192.255 35.9766 192.974 35.9766C193.484 35.9766 193.916 35.8724 194.271 35.6641C194.625 35.4557 194.935 35.1797 195.2 34.8359L196.083 35.5234C195.375 36.612 194.312 37.1562 192.896 37.1562ZM192.716 29.5781C192.132 29.5781 191.643 29.7917 191.247 30.2188C190.851 30.6406 190.606 31.2344 190.513 32H194.747V31.8906C194.705 31.1562 194.507 30.5885 194.153 30.1875C193.799 29.7812 193.32 29.5781 192.716 29.5781ZM201.958 29.8438C201.739 29.8073 201.502 29.7891 201.247 29.7891C200.299 29.7891 199.656 30.1927 199.317 31V37H197.872V28.5469H199.278L199.302 29.5234C199.776 28.7682 200.448 28.3906 201.317 28.3906C201.599 28.3906 201.812 28.4271 201.958 28.5V29.8438ZM216.239 31.6797C216.239 32.7943 216.052 33.7682 215.677 34.6016C215.302 35.4297 214.771 36.0625 214.083 36.5C213.396 36.9375 212.593 37.1562 211.677 37.1562C210.781 37.1562 209.987 36.9375 209.294 36.5C208.601 36.0573 208.062 35.4297 207.677 34.6172C207.297 33.7995 207.101 32.8542 207.091 31.7812V30.9609C207.091 29.8672 207.281 28.901 207.661 28.0625C208.041 27.224 208.578 26.5833 209.271 26.1406C209.968 25.6927 210.765 25.4688 211.661 25.4688C212.573 25.4688 213.375 25.6901 214.067 26.1328C214.765 26.5703 215.302 27.2083 215.677 28.0469C216.052 28.8802 216.239 29.8516 216.239 30.9609V31.6797ZM214.747 30.9453C214.747 29.5964 214.476 28.5625 213.935 27.8438C213.393 27.1198 212.635 26.7578 211.661 26.7578C210.713 26.7578 209.966 27.1198 209.419 27.8438C208.877 28.5625 208.599 29.5625 208.583 30.8438V31.6797C208.583 32.987 208.856 34.0156 209.403 34.7656C209.955 35.5104 210.713 35.8828 211.677 35.8828C212.646 35.8828 213.396 35.5312 213.927 34.8281C214.458 34.1198 214.731 33.1068 214.747 31.7891V30.9453ZM226.13 26.8594H222.474V37H220.981V26.8594H217.333V25.625H226.13V26.8594ZM229.317 32.5469V37H227.817V25.625H232.013C233.257 25.625 234.231 25.9427 234.935 26.5781C235.643 27.2135 235.997 28.0547 235.997 29.1016C235.997 30.2057 235.651 31.0573 234.958 31.6562C234.271 32.25 233.284 32.5469 231.997 32.5469H229.317ZM229.317 31.3203H232.013C232.815 31.3203 233.429 31.1328 233.856 30.7578C234.284 30.3776 234.497 29.8307 234.497 29.1172C234.497 28.4401 234.284 27.8984 233.856 27.4922C233.429 27.0859 232.843 26.875 232.099 26.8594H229.317V31.3203ZM241.271 32.6953C241.271 31.8672 241.432 31.1224 241.755 30.4609C242.083 29.7995 242.536 29.2891 243.114 28.9297C243.698 28.5703 244.362 28.3906 245.106 28.3906C246.257 28.3906 247.187 28.7891 247.896 29.5859C248.609 30.3828 248.966 31.4427 248.966 32.7656V32.8672C248.966 33.6901 248.807 34.4297 248.489 35.0859C248.177 35.737 247.726 36.2448 247.138 36.6094C246.554 36.974 245.882 37.1562 245.122 37.1562C243.976 37.1562 243.047 36.7578 242.333 35.9609C241.625 35.1641 241.271 34.1094 241.271 32.7969V32.6953ZM242.724 32.8672C242.724 33.8047 242.94 34.5573 243.372 35.125C243.81 35.6927 244.393 35.9766 245.122 35.9766C245.856 35.9766 246.44 35.6901 246.872 35.1172C247.304 34.5391 247.521 33.7318 247.521 32.6953C247.521 31.7682 247.299 31.0182 246.856 30.4453C246.419 29.8672 245.836 29.5781 245.106 29.5781C244.393 29.5781 243.817 29.862 243.38 30.4297C242.942 30.9974 242.724 31.8099 242.724 32.8672ZM252.146 28.5469L252.192 29.6094C252.838 28.7969 253.682 28.3906 254.724 28.3906C256.51 28.3906 257.411 29.3984 257.427 31.4141V37H255.981V31.4062C255.976 30.7969 255.836 30.3464 255.56 30.0547C255.289 29.763 254.864 29.6172 254.286 29.6172C253.817 29.6172 253.406 29.7422 253.052 29.9922C252.698 30.2422 252.422 30.5703 252.224 30.9766V37H250.778V28.5469H252.146ZM270.083 34.0312H265.317L264.247 37H262.7L267.044 25.625H268.356L272.708 37H271.169L270.083 34.0312ZM265.771 32.7969H269.638L267.7 27.4766L265.771 32.7969ZM281.083 26.8594H277.427V37H275.935V26.8594H272.286V25.625H281.083V26.8594ZM284.708 25.625L288.427 34.9062L292.146 25.625H294.091V37H292.591V32.5703L292.731 27.7891L288.997 37H287.849L284.122 27.8125L284.271 32.5703V37H282.771V25.625H284.708ZM305.403 34.7578C305.403 34.3672 305.255 34.0651 304.958 33.8516C304.666 33.6328 304.153 33.4453 303.419 33.2891C302.69 33.1328 302.109 32.9453 301.677 32.7266C301.25 32.5078 300.932 32.2474 300.724 31.9453C300.521 31.6432 300.419 31.2839 300.419 30.8672C300.419 30.1745 300.711 29.5885 301.294 29.1094C301.882 28.6302 302.632 28.3906 303.544 28.3906C304.502 28.3906 305.278 28.638 305.872 29.1328C306.471 29.6276 306.771 30.2604 306.771 31.0312H305.317C305.317 30.6354 305.148 30.2943 304.81 30.0078C304.476 29.7214 304.054 29.5781 303.544 29.5781C303.018 29.5781 302.606 29.6927 302.31 29.9219C302.013 30.151 301.864 30.4505 301.864 30.8203C301.864 31.1693 302.002 31.4323 302.278 31.6094C302.554 31.7865 303.052 31.9557 303.771 32.1172C304.494 32.2786 305.08 32.4714 305.528 32.6953C305.976 32.9193 306.307 33.1901 306.521 33.5078C306.739 33.8203 306.849 34.2031 306.849 34.6562C306.849 35.4115 306.547 36.0182 305.942 36.4766C305.338 36.9297 304.554 37.1562 303.591 37.1562C302.914 37.1562 302.315 37.0365 301.794 36.7969C301.273 36.5573 300.864 36.224 300.567 35.7969C300.276 35.3646 300.13 34.8984 300.13 34.3984H301.575C301.601 34.8828 301.794 35.2682 302.153 35.5547C302.518 35.8359 302.997 35.9766 303.591 35.9766C304.138 35.9766 304.575 35.8672 304.903 35.6484C305.237 35.4245 305.403 35.1276 305.403 34.7578ZM312.122 35.9766C312.638 35.9766 313.088 35.8203 313.474 35.5078C313.859 35.1953 314.073 34.8047 314.114 34.3359H315.481C315.455 34.8203 315.289 35.2812 314.981 35.7188C314.674 36.1562 314.263 36.5052 313.747 36.7656C313.237 37.026 312.695 37.1562 312.122 37.1562C310.971 37.1562 310.054 36.7734 309.372 36.0078C308.695 35.237 308.356 34.1849 308.356 32.8516V32.6094C308.356 31.7865 308.507 31.0547 308.81 30.4141C309.112 29.7734 309.544 29.276 310.106 28.9219C310.674 28.5677 311.343 28.3906 312.114 28.3906C313.062 28.3906 313.849 28.6745 314.474 29.2422C315.104 29.8099 315.44 30.5469 315.481 31.4531H314.114C314.073 30.9062 313.864 30.4583 313.489 30.1094C313.119 29.7552 312.661 29.5781 312.114 29.5781C311.38 29.5781 310.81 29.8438 310.403 30.375C310.002 30.901 309.802 31.6641 309.802 32.6641V32.9375C309.802 33.9115 310.002 34.6615 310.403 35.1875C310.804 35.7135 311.377 35.9766 312.122 35.9766ZM321.192 29.8438C320.974 29.8073 320.737 29.7891 320.481 29.7891C319.534 29.7891 318.89 30.1927 318.552 31V37H317.106V28.5469H318.513L318.536 29.5234C319.01 28.7682 319.682 28.3906 320.552 28.3906C320.833 28.3906 321.047 28.4271 321.192 28.5V29.8438ZM325.88 37.1562C324.734 37.1562 323.802 36.7812 323.083 36.0312C322.364 35.276 322.005 34.2682 322.005 33.0078V32.7422C322.005 31.9036 322.164 31.1562 322.481 30.5C322.804 29.8385 323.252 29.3229 323.825 28.9531C324.403 28.5781 325.028 28.3906 325.7 28.3906C326.799 28.3906 327.653 28.7526 328.263 29.4766C328.872 30.2005 329.177 31.237 329.177 32.5859V33.1875H323.45C323.471 34.0208 323.713 34.6953 324.177 35.2109C324.646 35.7214 325.239 35.9766 325.958 35.9766C326.468 35.9766 326.901 35.8724 327.255 35.6641C327.609 35.4557 327.919 35.1797 328.185 34.8359L329.067 35.5234C328.359 36.612 327.297 37.1562 325.88 37.1562ZM325.7 29.5781C325.117 29.5781 324.627 29.7917 324.231 30.2188C323.836 30.6406 323.591 31.2344 323.497 32H327.731V31.8906C327.69 31.1562 327.492 30.5885 327.138 30.1875C326.784 29.7812 326.304 29.5781 325.7 29.5781ZM334.364 37.1562C333.218 37.1562 332.286 36.7812 331.567 36.0312C330.849 35.276 330.489 34.2682 330.489 33.0078V32.7422C330.489 31.9036 330.648 31.1562 330.966 30.5C331.289 29.8385 331.737 29.3229 332.31 28.9531C332.888 28.5781 333.513 28.3906 334.185 28.3906C335.284 28.3906 336.138 28.7526 336.747 29.4766C337.356 30.2005 337.661 31.237 337.661 32.5859V33.1875H331.935C331.955 34.0208 332.198 34.6953 332.661 35.2109C333.13 35.7214 333.724 35.9766 334.442 35.9766C334.953 35.9766 335.385 35.8724 335.739 35.6641C336.093 35.4557 336.403 35.1797 336.669 34.8359L337.552 35.5234C336.843 36.612 335.781 37.1562 334.364 37.1562ZM334.185 29.5781C333.601 29.5781 333.112 29.7917 332.716 30.2188C332.32 30.6406 332.075 31.2344 331.981 32H336.216V31.8906C336.174 31.1562 335.976 30.5885 335.622 30.1875C335.268 29.7812 334.789 29.5781 334.185 29.5781ZM340.708 28.5469L340.755 29.6094C341.401 28.7969 342.244 28.3906 343.286 28.3906C345.073 28.3906 345.974 29.3984 345.989 31.4141V37H344.544V31.4062C344.539 30.7969 344.398 30.3464 344.122 30.0547C343.851 29.763 343.427 29.6172 342.849 29.6172C342.38 29.6172 341.968 29.7422 341.614 29.9922C341.26 30.2422 340.984 30.5703 340.786 30.9766V37H339.341V28.5469H340.708ZM354.099 26.5V28.5469H355.677V29.6641H354.099V34.9062C354.099 35.2448 354.169 35.5 354.31 35.6719C354.45 35.8385 354.69 35.9219 355.028 35.9219C355.195 35.9219 355.424 35.8906 355.716 35.8281V37C355.336 37.1042 354.966 37.1562 354.606 37.1562C353.961 37.1562 353.474 36.9609 353.146 36.5703C352.817 36.1797 352.653 35.625 352.653 34.9062V29.6641H351.114V28.5469H352.653V26.5H354.099ZM356.833 32.6953C356.833 31.8672 356.994 31.1224 357.317 30.4609C357.646 29.7995 358.099 29.2891 358.677 28.9297C359.26 28.5703 359.924 28.3906 360.669 28.3906C361.82 28.3906 362.75 28.7891 363.458 29.5859C364.172 30.3828 364.528 31.4427 364.528 32.7656V32.8672C364.528 33.6901 364.369 34.4297 364.052 35.0859C363.739 35.737 363.289 36.2448 362.7 36.6094C362.117 36.974 361.445 37.1562 360.685 37.1562C359.539 37.1562 358.609 36.7578 357.896 35.9609C357.187 35.1641 356.833 34.1094 356.833 32.7969V32.6953ZM358.286 32.8672C358.286 33.8047 358.502 34.5573 358.935 35.125C359.372 35.6927 359.955 35.9766 360.685 35.9766C361.419 35.9766 362.002 35.6901 362.435 35.1172C362.867 34.5391 363.083 33.7318 363.083 32.6953C363.083 31.7682 362.862 31.0182 362.419 30.4453C361.981 29.8672 361.398 29.5781 360.669 29.5781C359.955 29.5781 359.38 29.862 358.942 30.4297C358.505 30.9974 358.286 31.8099 358.286 32.8672ZM377.794 35.0078L379.419 28.5469H380.864L378.403 37H377.231L375.177 30.5938L373.177 37H372.005L369.552 28.5469H370.989L372.653 34.875L374.622 28.5469H375.786L377.794 35.0078ZM383.911 37H382.466V28.5469H383.911V37ZM382.349 26.3047C382.349 26.0703 382.419 25.8724 382.56 25.7109C382.705 25.5495 382.919 25.4688 383.2 25.4688C383.481 25.4688 383.695 25.5495 383.841 25.7109C383.987 25.8724 384.06 26.0703 384.06 26.3047C384.06 26.5391 383.987 26.7344 383.841 26.8906C383.695 27.0469 383.481 27.125 383.2 27.125C382.919 27.125 382.705 27.0469 382.56 26.8906C382.419 26.7344 382.349 26.5391 382.349 26.3047ZM388.192 26.5V28.5469H389.771V29.6641H388.192V34.9062C388.192 35.2448 388.263 35.5 388.403 35.6719C388.544 35.8385 388.784 35.9219 389.122 35.9219C389.289 35.9219 389.518 35.8906 389.81 35.8281V37C389.429 37.1042 389.06 37.1562 388.7 37.1562C388.054 37.1562 387.567 36.9609 387.239 36.5703C386.911 36.1797 386.747 35.625 386.747 34.9062V29.6641H385.208V28.5469H386.747V26.5H388.192ZM392.911 29.5703C393.552 28.7839 394.385 28.3906 395.411 28.3906C397.198 28.3906 398.099 29.3984 398.114 31.4141V37H396.669V31.4062C396.664 30.7969 396.523 30.3464 396.247 30.0547C395.976 29.763 395.552 29.6172 394.974 29.6172C394.505 29.6172 394.093 29.7422 393.739 29.9922C393.385 30.2422 393.109 30.5703 392.911 30.9766V37H391.466V25H392.911V29.5703ZM399.927 32.7031C399.927 31.4062 400.234 30.3646 400.849 29.5781C401.463 28.7865 402.268 28.3906 403.263 28.3906C404.252 28.3906 405.036 28.7292 405.614 29.4062V25H407.06V37H405.731L405.661 36.0938C405.083 36.8021 404.278 37.1562 403.247 37.1562C402.268 37.1562 401.468 36.7552 400.849 35.9531C400.234 35.151 399.927 34.1042 399.927 32.8125V32.7031ZM401.372 32.8672C401.372 33.8255 401.57 34.5755 401.966 35.1172C402.362 35.6589 402.909 35.9297 403.606 35.9297C404.523 35.9297 405.192 35.5182 405.614 34.6953V30.8125C405.182 30.0156 404.518 29.6172 403.622 29.6172C402.914 29.6172 402.362 29.8906 401.966 30.4375C401.57 30.9844 401.372 31.7943 401.372 32.8672ZM413.396 29.8438C413.177 29.8073 412.94 29.7891 412.685 29.7891C411.737 29.7891 411.093 30.1927 410.755 31V37H409.31V28.5469H410.716L410.739 29.5234C411.213 28.7682 411.885 28.3906 412.755 28.3906C413.036 28.3906 413.25 28.4271 413.396 28.5V29.8438ZM419.638 37C419.554 36.8333 419.487 36.5365 419.435 36.1094C418.763 36.8073 417.961 37.1562 417.028 37.1562C416.195 37.1562 415.51 36.9219 414.974 36.4531C414.442 35.9792 414.177 35.3802 414.177 34.6562C414.177 33.776 414.51 33.0938 415.177 32.6094C415.849 32.1198 416.791 31.875 418.005 31.875H419.411V31.2109C419.411 30.7057 419.26 30.3047 418.958 30.0078C418.656 29.7057 418.211 29.5547 417.622 29.5547C417.106 29.5547 416.674 29.6849 416.325 29.9453C415.976 30.2057 415.802 30.5208 415.802 30.8906H414.349C414.349 30.4688 414.497 30.0625 414.794 29.6719C415.096 29.276 415.502 28.9635 416.013 28.7344C416.528 28.5052 417.093 28.3906 417.708 28.3906C418.682 28.3906 419.445 28.6354 419.997 29.125C420.549 29.6094 420.836 30.2786 420.856 31.1328V35.0234C420.856 35.7995 420.955 36.4167 421.153 36.875V37H419.638ZM417.239 35.8984C417.692 35.8984 418.122 35.7812 418.528 35.5469C418.935 35.3125 419.229 35.0078 419.411 34.6328V32.8984H418.278C416.507 32.8984 415.622 33.4167 415.622 34.4531C415.622 34.9062 415.773 35.2604 416.075 35.5156C416.377 35.7708 416.765 35.8984 417.239 35.8984ZM430.606 35.0078L432.231 28.5469H433.677L431.216 37H430.044L427.989 30.5938L425.989 37H424.817L422.364 28.5469H423.802L425.466 34.875L427.435 28.5469H428.599L430.606 35.0078ZM440.567 29.5703C441.208 28.7839 442.041 28.3906 443.067 28.3906C444.854 28.3906 445.755 29.3984 445.771 31.4141V37H444.325V31.4062C444.32 30.7969 444.179 30.3464 443.903 30.0547C443.632 29.763 443.208 29.6172 442.63 29.6172C442.161 29.6172 441.75 29.7422 441.396 29.9922C441.041 30.2422 440.765 30.5703 440.567 30.9766V37H439.122V25H440.567V29.5703ZM449.505 37H448.06V28.5469H449.505V37ZM447.942 26.3047C447.942 26.0703 448.013 25.8724 448.153 25.7109C448.299 25.5495 448.513 25.4688 448.794 25.4688C449.075 25.4688 449.289 25.5495 449.435 25.7109C449.58 25.8724 449.653 26.0703 449.653 26.3047C449.653 26.5391 449.58 26.7344 449.435 26.8906C449.289 27.0469 449.075 27.125 448.794 27.125C448.513 27.125 448.299 27.0469 448.153 26.8906C448.013 26.7344 447.942 26.5391 447.942 26.3047ZM456.747 34.7578C456.747 34.3672 456.599 34.0651 456.302 33.8516C456.01 33.6328 455.497 33.4453 454.763 33.2891C454.034 33.1328 453.453 32.9453 453.021 32.7266C452.593 32.5078 452.276 32.2474 452.067 31.9453C451.864 31.6432 451.763 31.2839 451.763 30.8672C451.763 30.1745 452.054 29.5885 452.638 29.1094C453.226 28.6302 453.976 28.3906 454.888 28.3906C455.846 28.3906 456.622 28.638 457.216 29.1328C457.815 29.6276 458.114 30.2604 458.114 31.0312H456.661C456.661 30.6354 456.492 30.2943 456.153 30.0078C455.82 29.7214 455.398 29.5781 454.888 29.5781C454.362 29.5781 453.95 29.6927 453.653 29.9219C453.356 30.151 453.208 30.4505 453.208 30.8203C453.208 31.1693 453.346 31.4323 453.622 31.6094C453.898 31.7865 454.396 31.9557 455.114 32.1172C455.838 32.2786 456.424 32.4714 456.872 32.6953C457.32 32.9193 457.651 33.1901 457.864 33.5078C458.083 33.8203 458.192 34.2031 458.192 34.6562C458.192 35.4115 457.89 36.0182 457.286 36.4766C456.682 36.9297 455.898 37.1562 454.935 37.1562C454.257 37.1562 453.659 37.0365 453.138 36.7969C452.617 36.5573 452.208 36.224 451.911 35.7969C451.619 35.3646 451.474 34.8984 451.474 34.3984H452.919C452.945 34.8828 453.138 35.2682 453.497 35.5547C453.862 35.8359 454.341 35.9766 454.935 35.9766C455.481 35.9766 455.919 35.8672 456.247 35.6484C456.58 35.4245 456.747 35.1276 456.747 34.7578ZM465.403 28.5469L465.442 29.4844C466.062 28.7552 466.898 28.3906 467.95 28.3906C469.132 28.3906 469.937 28.8438 470.364 29.75C470.646 29.3438 471.01 29.0156 471.458 28.7656C471.911 28.5156 472.445 28.3906 473.06 28.3906C474.914 28.3906 475.856 29.3724 475.888 31.3359V37H474.442V31.4219C474.442 30.8177 474.304 30.3672 474.028 30.0703C473.752 29.7682 473.289 29.6172 472.638 29.6172C472.101 29.6172 471.656 29.7786 471.302 30.1016C470.948 30.4193 470.742 30.849 470.685 31.3906V37H469.231V31.4609C469.231 30.2318 468.63 29.6172 467.427 29.6172C466.479 29.6172 465.83 30.0208 465.481 30.8281V37H464.036V28.5469H465.403ZM477.692 32.6953C477.692 31.8672 477.854 31.1224 478.177 30.4609C478.505 29.7995 478.958 29.2891 479.536 28.9297C480.119 28.5703 480.784 28.3906 481.528 28.3906C482.679 28.3906 483.609 28.7891 484.317 29.5859C485.031 30.3828 485.388 31.4427 485.388 32.7656V32.8672C485.388 33.6901 485.229 34.4297 484.911 35.0859C484.599 35.737 484.148 36.2448 483.56 36.6094C482.976 36.974 482.304 37.1562 481.544 37.1562C480.398 37.1562 479.468 36.7578 478.755 35.9609C478.047 35.1641 477.692 34.1094 477.692 32.7969V32.6953ZM479.146 32.8672C479.146 33.8047 479.362 34.5573 479.794 35.125C480.231 35.6927 480.815 35.9766 481.544 35.9766C482.278 35.9766 482.862 35.6901 483.294 35.1172C483.726 34.5391 483.942 33.7318 483.942 32.6953C483.942 31.7682 483.721 31.0182 483.278 30.4453C482.841 29.8672 482.257 29.5781 481.528 29.5781C480.815 29.5781 480.239 29.862 479.802 30.4297C479.364 30.9974 479.146 31.8099 479.146 32.8672ZM488.567 28.5469L488.614 29.6094C489.26 28.7969 490.104 28.3906 491.146 28.3906C492.932 28.3906 493.833 29.3984 493.849 31.4141V37H492.403V31.4062C492.398 30.7969 492.257 30.3464 491.981 30.0547C491.711 29.763 491.286 29.6172 490.708 29.6172C490.239 29.6172 489.828 29.7422 489.474 29.9922C489.119 30.2422 488.843 30.5703 488.646 30.9766V37H487.2V28.5469H488.567ZM499.536 37.1562C498.39 37.1562 497.458 36.7812 496.739 36.0312C496.021 35.276 495.661 34.2682 495.661 33.0078V32.7422C495.661 31.9036 495.82 31.1562 496.138 30.5C496.461 29.8385 496.909 29.3229 497.481 28.9531C498.06 28.5781 498.685 28.3906 499.356 28.3906C500.455 28.3906 501.31 28.7526 501.919 29.4766C502.528 30.2005 502.833 31.237 502.833 32.5859V33.1875H497.106C497.127 34.0208 497.369 34.6953 497.833 35.2109C498.302 35.7214 498.896 35.9766 499.614 35.9766C500.125 35.9766 500.557 35.8724 500.911 35.6641C501.265 35.4557 501.575 35.1797 501.841 34.8359L502.724 35.5234C502.015 36.612 500.953 37.1562 499.536 37.1562ZM499.356 29.5781C498.773 29.5781 498.284 29.7917 497.888 30.2188C497.492 30.6406 497.247 31.2344 497.153 32H501.388V31.8906C501.346 31.1562 501.148 30.5885 500.794 30.1875C500.44 29.7812 499.961 29.5781 499.356 29.5781ZM507.169 34.8828L509.138 28.5469H510.685L507.286 38.3047C506.76 39.7109 505.924 40.4141 504.778 40.4141L504.505 40.3906L503.966 40.2891V39.1172L504.356 39.1484C504.846 39.1484 505.226 39.0495 505.497 38.8516C505.773 38.6536 506 38.2917 506.177 37.7656L506.497 36.9062L503.481 28.5469H505.06L507.169 34.8828Z" fill="#656668"/>
<path d="M28.7587 49H31.6387V43.848H34.8387V41.32H31.6387V26.088H28.1507L16.9187 41.64V43.848H28.7587V49ZM20.2787 41.32L28.8867 29.128V41.32H20.2787Z" fill="#656668"/>
</svg>
