<svg width="220" height="186" viewBox="0 0 220 186" fill="none" xmlns="http://www.w3.org/2000/svg">
<path d="M14.1828 41.3618C30.1358 22.1007 38.7255 40.1308 63.6786 13.4948C88.6316 -13.1411 109.324 22.8176 131.582 6.52806C161.033 -15.0177 199.479 22.3473 199.479 38.0836C199.479 70.8495 211.776 76.6036 216.661 88.4854C227.107 113.897 209.706 117.173 209.706 138.892C209.706 167.575 174.529 185.72 174.529 185.72H40.8418C-10.2907 170.044 -4.64033 130.286 10.9023 102.419C26.4449 74.5519 -1.7771 60.6207 14.1828 41.3618Z" fill="#F1EFFA"/>
<path d="M201.709 185.939H16.0525C15.9394 185.939 15.8309 185.894 15.7509 185.814C15.6709 185.734 15.626 185.626 15.626 185.512C15.626 185.399 15.6709 185.291 15.7509 185.211C15.8309 185.131 15.9394 185.086 16.0525 185.086H201.709C201.822 185.086 201.93 185.131 202.01 185.211C202.09 185.291 202.135 185.399 202.135 185.512C202.135 185.626 202.09 185.734 202.01 185.814C201.93 185.894 201.822 185.939 201.709 185.939Z" fill="#36256D"/>
<path d="M83.5391 121.276C83.5391 121.276 93.1086 136.51 97.8991 139.145C102.69 141.78 106.131 142.667 107.231 139.67C108.153 136.484 94.9759 115.48 94.9759 115.48L83.5391 121.276Z" fill="#EBB389"/>
<path d="M58.3312 63.933C53.3977 69.6226 57.2868 75.6903 48.9899 80.9073C40.693 86.1243 40.6584 96.8534 44.7826 98.9881C48.9069 101.123 50.6313 99.6244 54.0455 106.501C57.4597 113.378 78.3392 106.04 82.6087 100.683C86.8782 95.3249 83.8398 93.8057 87.2609 91.7194C90.6821 89.633 91.0532 84.6051 86.3111 82.7078C81.569 80.8105 82.8808 67.7253 78.9617 63.7901C75.0426 59.8549 72.1817 60.0439 72.1817 60.0439C72.1817 60.0439 63.2577 58.2434 58.3312 63.933Z" fill="#5E2E0D"/>
<path opacity="0.6" d="M60.2337 78.8796C58.6476 84.085 54.8346 92.4165 60.5634 101.988C64.9159 105.14 76.355 103.372 74.9072 91.6512C74.732 90.2357 75.721 88.8848 76.9936 88.0733C80.3939 85.897 81.0463 83.7323 81.5189 80.0668C81.8325 77.6139 81.4682 73.0009 80.9956 70.5734C79.9767 65.3449 61.7621 64.0009 59.7196 72.7381C59.217 74.8913 61.1535 75.8573 60.2337 78.8796Z" fill="#5E2E0D"/>
<path d="M84.4131 123.268C94.7387 118.807 95.1537 115.769 95.1537 115.769C95.1537 115.769 89.2451 104.777 84.2725 102.195C81.2355 100.638 77.8738 99.8195 74.4609 99.8066" fill="#F05665"/>
<path d="M48.7973 138.947C48.7973 138.947 37.6971 147.29 37.3236 159.525C36.9501 171.759 37.3882 185.052 37.3882 185.052L79.7788 185.16C79.7788 185.16 79.3339 171.559 78.5754 162.086C77.817 152.613 73.4553 139.989 73.4553 139.989L48.7973 138.947Z" fill="#6654A4"/>
<path opacity="0.4" d="M37.2109 164.649C41.1151 164.779 45.0236 164.639 48.9083 164.228C66.7631 162.475 65.0457 156.968 65.0457 156.968L39.4725 150.709C38.1743 153.474 37.4437 156.472 37.3239 159.525C37.2709 161.226 37.2363 162.955 37.2109 164.649Z" fill="#6654A4"/>
<path opacity="0.4" d="M48.797 138.947C46.528 140.771 44.502 142.877 42.7686 145.215C48.0247 147.143 67.4196 144.782 74.1328 142.064C73.7224 140.759 73.455 139.989 73.455 139.989L48.797 138.947Z" fill="#6654A4"/>
<path d="M59.5352 185.108H60.3927L62.5644 162.541C65.2824 161.435 69.8746 158.161 70.0752 158.014C70.1738 157.935 70.2416 157.824 70.2665 157.701C70.2913 157.577 70.2718 157.449 70.2112 157.338C70.1872 157.286 70.1519 157.239 70.1077 157.201C70.0636 157.164 70.0117 157.136 69.9558 157.121C69.8999 157.106 69.8413 157.103 69.7842 157.113C69.7272 157.123 69.673 157.146 69.6256 157.179C69.5772 157.216 64.6115 160.759 62.0388 161.711L61.776 161.808L59.5352 185.108Z" fill="#45258F"/>
<path d="M76.825 99.3047L60.1735 97.6195C60.1735 97.6195 51.2195 97.2668 47.2843 101.202C43.3491 105.137 44.4856 136.432 47.7592 139.701C51.0328 142.97 72.7653 144.284 76.1149 140.935C77.7056 139.346 83.8909 122.916 83.8909 118.271C83.8909 113.625 82.6575 104.669 82.6575 104.669C82.1411 100.501 76.825 99.3047 76.825 99.3047Z" fill="#F05665"/>
<path opacity="0.61" d="M44.7814 132.123C49.18 133.146 53.8092 130.431 54.3924 128.42C55.3975 124.962 57.5115 113.152 56.0062 105.185C55.4437 102.22 54.3325 98.5291 51.3309 98.8496C49.7979 99.3775 48.357 100.131 47.2873 101.201C44.6131 103.873 43.691 121.56 44.7814 132.123Z" fill="#BA2836"/>
<path d="M38.2 115.607C38.2 115.607 28.6029 138.536 30.0621 141.515C31.6574 144.281 34.9403 142.831 39.2651 139.44C43.5899 136.049 51.4949 119.702 51.4949 119.702L38.2 115.607Z" fill="#EBB389"/>
<path d="M71.5859 127.166C71.6296 127.218 71.6828 127.261 71.7427 127.293L71.5859 127.166Z" fill="#CE3613"/>
<path d="M66.4414 124.718L69.3807 127.164C69.2147 126.95 69.2516 126.5 71.7437 126.083C73.5741 125.776 74.3649 125.46 74.2312 124.266C74.0975 123.072 68.1013 123.764 66.4414 124.718Z" fill="#EBB389"/>
<path d="M79.9046 117.581C79.9463 117.458 79.9602 117.328 79.9455 117.199C79.9307 117.07 79.8876 116.946 79.8193 116.836C79.751 116.726 79.6592 116.632 79.5503 116.562C79.4415 116.491 79.3184 116.446 79.1899 116.428L71.9927 115.492C71.7918 115.465 71.5878 115.509 71.4166 115.618C71.2453 115.726 71.1179 115.892 71.0567 116.085C70.0377 119.404 69.6735 123.022 68.5508 126.297C68.8574 129.094 77.1935 128.603 77.1935 128.603C77.7404 124.85 78.6483 121.159 79.9046 117.581Z" fill="black"/>
<path d="M30.4406 142.042C32.8566 146.505 63.6076 133.459 66.7452 133.586C68.7808 133.671 75.7591 135.241 76.3977 134.874C77.0362 134.508 79.526 132.952 79.8903 132.318C80.2545 131.684 79.9871 130.418 79.9871 130.418C79.9871 130.418 80.3905 129.641 80.3582 129.056C80.326 128.47 79.7381 127.808 79.7381 127.808C79.7381 127.808 80.1346 125.824 79.5652 124.812C78.9958 123.799 77.5803 123.813 77.465 125.024C77.3982 125.715 77.5665 127.128 77.0685 127.417C76.5706 127.705 73.32 128.585 72.3564 128.323L72.0636 128.237C70.5776 127.767 69.1977 127.012 68.0016 126.013L66.4386 124.71C65.6548 125.171 43.2491 130.907 40.538 131.557C35.4617 132.783 27.8264 137.194 30.4406 142.042Z" fill="#EBB389"/>
<path d="M98.229 133.102C95.9398 132.669 77.0037 128.722 76.3282 128.367L75.1225 129.66C74.2223 130.642 73.129 131.427 71.9112 131.966C71.8259 132.003 71.7475 132.035 71.6806 132.063C70.9014 132.365 68.1535 131.751 67.72 131.514C67.2866 131.277 67.3304 129.976 67.229 129.331C67.0492 128.222 65.8804 128.305 65.4746 129.264C65.0689 130.223 65.5346 132.03 65.5346 132.03C65.5346 132.03 65.092 132.676 65.1058 133.22C65.1578 133.654 65.294 134.074 65.5069 134.456C65.5069 134.456 65.3686 135.641 65.7144 136.201C66.0602 136.761 68.2295 138.045 68.7805 138.347C69.3315 138.649 75.0049 136.77 76.6832 136.57C79.2744 136.258 105.622 146.418 107.314 142.155C109.138 137.517 102.517 133.907 98.229 133.102Z" fill="#EBB389"/>
<path d="M34.2894 116C32.7702 120.456 50.1248 128.368 51.6441 123.146C52.6469 119.688 55.4133 110.896 56.0058 105.183C56.317 102.186 54.3344 98.5254 51.3305 98.8458C45.9522 99.4222 35.8063 111.546 34.2894 116Z" fill="#F05665"/>
<path d="M64.3499 84.416C64.3499 84.416 64.6703 97.0332 62.7361 97.598C62.2866 97.7294 60.168 97.6187 60.168 97.6187C60.168 97.6187 63.9695 113.104 71.6947 110.448C79.4199 107.792 76.8149 99.3039 76.8149 99.3039C76.8149 99.3039 74.2075 98.7829 73.6865 96.8879C73.1655 94.9929 73.6865 86.6937 73.6865 86.6937L64.3499 84.416Z" fill="#EBB389"/>
<path opacity="0.65" d="M73.5128 90.516C73.582 88.4411 73.6926 86.6914 73.6926 86.6914L64.3514 84.416C64.3514 84.416 64.3514 84.8448 64.3398 85.5525C64.3398 86.1312 65.9697 88.9091 66.9357 89.4716C69.2272 90.7788 71.491 91.0416 73.5128 90.516Z" fill="#DC894B"/>
<path d="M61.1029 73.0635C59.0396 81.8814 61.8844 84.4426 66.9354 87.073C71.9864 89.7034 76.8945 87.7116 79.3843 83.5897C81.874 79.4677 80.7352 69.7899 80.7352 67.941C80.7352 66.0921 78.6719 64.5959 78.6719 64.5959C71.8412 60.9696 63.1662 64.2409 61.1029 73.0635Z" fill="#EBB389"/>
<path d="M56.8477 66.0913L59.183 80.3844C59.644 79.6306 65.8685 71.14 66.3295 68.3298C68.2453 69.079 80.9546 70.5613 81.0031 70.5682H81.6808C82.7367 67.154 81.0192 64.5421 79.606 63.1381C75.6708 59.2029 70.7097 58.5274 64.7919 60.2196C62.528 60.7452 60.1558 61.8333 58.3369 63.9312C57.7579 64.5906 57.2581 65.3156 56.8477 66.0913Z" fill="#5E2E0D"/>
<path d="M61.274 80.8297C58.8626 81.3922 58.2771 76.143 60.4187 74.8358C62.5604 73.5287 62.6227 77.5446 62.6227 77.5446C62.6227 77.5446 63.6808 80.2649 61.274 80.8297Z" fill="#EBB389"/>
<path d="M65.0529 156.961C64.85 157.568 64.5918 159.767 58.478 160.189C50.852 160.726 36.6856 155.578 36.2822 154.375C35.8787 153.171 35.4223 149.319 36.13 147.904C36.8378 146.488 37.4441 145.73 40.3765 144.718C43.3089 143.706 60.1079 147.433 61.5119 148.358C62.2519 148.846 63.1832 149.356 63.8864 150.052C65.7099 151.85 65.8828 154.511 65.0575 156.936C65.0545 156.939 65.0525 156.944 65.0517 156.948C65.0509 156.952 65.0513 156.957 65.0529 156.961Z" fill="#968AC2"/>
<path d="M58.4751 160.201H58.4912C58.9676 160.165 59.4265 160.006 59.8233 159.74C60.22 159.474 60.541 159.109 60.755 158.682C61.3844 157.423 62.1751 154.099 62.2305 153.799C62.7814 150.837 60.8104 147.978 57.8872 147.241C52.4028 145.857 42.5566 143.979 40.3666 144.73C37.4342 145.74 36.8256 146.498 36.1178 147.916C35.4101 149.334 35.4792 153.324 36.27 154.387C37.0446 155.411 50.849 160.736 58.4751 160.201Z" fill="#CBC2EC"/>
<path d="M39.1016 148.019C39.1016 148.019 46.9121 147.639 51.2346 148.626C55.5571 149.612 59.1996 151.89 59.1996 151.89C49.5678 151.127 39.1016 148.019 39.1016 148.019Z" fill="#36256D"/>
<path d="M59.1996 151.89C59.1996 151.89 57.6849 151.814 57.2792 151.779C54.197 151.493 51.7464 151.332 47.6936 150.474C44.7825 149.832 41.9132 149.013 39.1016 148.021C46.0291 149.691 51.3291 150.876 59.1996 151.89Z" fill="#968AC2"/>
<path d="M51.992 148.986C48.4832 148.064 42.7498 148.018 39.082 148.018C40.8133 147.871 42.5516 147.82 44.2875 147.827C49.4999 147.854 52.0219 148.493 54.5463 149.503C56.1735 150.141 57.7328 150.94 59.2008 151.889C56.9165 150.649 54.4978 149.675 51.992 148.986Z" fill="#968AC2"/>
<path d="M51.5396 153.733C48.7603 153.424 46.0192 152.835 43.358 151.976C40.4417 150.992 38.1986 149.694 36.684 148.124C36.6512 148.09 36.6328 148.045 36.6328 147.998C36.6328 147.951 36.6512 147.906 36.684 147.872C36.7005 147.856 36.7201 147.843 36.7416 147.834C36.7632 147.825 36.7863 147.82 36.8096 147.82C36.833 147.82 36.8561 147.825 36.8776 147.834C36.8992 147.843 36.9188 147.856 36.9353 147.872C40.2803 151.349 46.7399 152.785 51.5719 153.378C54.8275 153.771 58.1076 153.925 61.3858 153.839C61.4104 153.835 61.4355 153.837 61.4595 153.843C61.4835 153.85 61.5058 153.862 61.525 153.878C61.5442 153.894 61.5598 153.913 61.5708 153.936C61.5818 153.958 61.588 153.982 61.589 154.007C61.59 154.032 61.5857 154.057 61.5765 154.08C61.5672 154.103 61.5532 154.124 61.5353 154.142C61.5175 154.159 61.4962 154.172 61.4728 154.181C61.4494 154.19 61.4244 154.193 61.3996 154.191C61.3835 154.191 60.7587 154.219 59.7098 154.219C56.9792 154.219 54.251 154.056 51.5396 153.733Z" fill="#968AC2"/>
<path d="M51.8931 158.444C51.871 158.436 51.8508 158.424 51.8336 158.408C51.8165 158.392 51.8026 158.372 51.793 158.351C51.7833 158.329 51.778 158.306 51.7774 158.283C51.7768 158.259 51.7808 158.236 51.7893 158.214L53.4838 153.732C53.4916 153.71 53.504 153.69 53.52 153.672C53.5361 153.655 53.5555 153.641 53.5771 153.632C53.5987 153.622 53.622 153.617 53.6456 153.617C53.6692 153.617 53.6926 153.622 53.7143 153.631C53.7363 153.639 53.7565 153.652 53.7736 153.668C53.7907 153.684 53.8044 153.703 53.8139 153.725C53.8233 153.746 53.8284 153.769 53.8287 153.793C53.829 153.816 53.8246 153.84 53.8157 153.861L52.1213 158.343C52.1086 158.377 52.086 158.406 52.0563 158.427C52.0267 158.447 51.9914 158.458 51.9553 158.458C51.9338 158.458 51.9125 158.454 51.8931 158.444Z" fill="#968AC2"/>
<path d="M40.6568 155.52L40.0482 150.506C40.0453 150.483 40.0471 150.46 40.0533 150.437C40.0595 150.415 40.0701 150.394 40.0845 150.376C40.0988 150.358 40.1167 150.342 40.137 150.331C40.1573 150.32 40.1796 150.313 40.2027 150.31C40.2258 150.307 40.2493 150.309 40.2718 150.315C40.2943 150.321 40.3153 150.331 40.3336 150.346C40.3519 150.36 40.3671 150.378 40.3783 150.399C40.3895 150.419 40.3964 150.442 40.3986 150.465L41.0073 155.47C41.0101 155.493 41.0084 155.516 41.0022 155.538C40.996 155.561 40.9854 155.582 40.971 155.6C40.9566 155.618 40.9388 155.633 40.9185 155.645C40.8982 155.656 40.8759 155.663 40.8528 155.666H40.8297C40.7883 155.666 40.7481 155.652 40.7163 155.625C40.6846 155.598 40.6635 155.561 40.6568 155.52Z" fill="#968AC2"/>
<path d="M38.4371 148.13L38.5616 147.643C38.5676 147.62 38.5823 147.601 38.6026 147.589C38.6229 147.577 38.6471 147.573 38.67 147.579L39.8227 147.872C39.8341 147.874 39.8449 147.879 39.8544 147.886C39.8639 147.893 39.8719 147.902 39.878 147.912C39.884 147.922 39.8879 147.933 39.8895 147.945C39.8911 147.957 39.8903 147.969 39.8872 147.98L39.7627 148.466C39.76 148.478 39.7551 148.489 39.7481 148.498C39.7412 148.508 39.7324 148.516 39.7223 148.522C39.7121 148.528 39.7009 148.532 39.6893 148.533C39.6776 148.535 39.6657 148.534 39.6544 148.531L38.5017 148.238C38.4789 148.232 38.4593 148.217 38.4472 148.197C38.4352 148.177 38.4315 148.153 38.4371 148.13Z" fill="#6654A4"/>
<path d="M39.5719 148.01H39.4381C39.4165 148.01 39.3955 148.017 39.379 148.031C39.3625 148.045 39.3516 148.064 39.3482 148.086L39.1062 149.598C39.1051 149.603 39.1053 149.608 39.1065 149.614C39.1078 149.619 39.1102 149.623 39.1135 149.627C39.1168 149.631 39.121 149.634 39.1257 149.637C39.1304 149.639 39.1356 149.64 39.1408 149.64H39.8669C39.8721 149.64 39.8773 149.639 39.882 149.637C39.8867 149.634 39.8909 149.631 39.8942 149.627C39.8975 149.623 39.8999 149.619 39.9012 149.614C39.9024 149.608 39.9026 149.603 39.9015 149.598L39.6595 148.086C39.6558 148.065 39.6451 148.046 39.6291 148.032C39.6132 148.018 39.593 148.011 39.5719 148.01ZM39.286 149.446L39.4704 148.293C39.4704 148.284 39.4741 148.275 39.4805 148.269C39.487 148.262 39.4958 148.259 39.505 148.259C39.5142 148.259 39.523 148.262 39.5294 148.269C39.5359 148.275 39.5396 148.284 39.5396 148.293L39.724 149.446C39.725 149.451 39.7249 149.456 39.7237 149.461C39.7224 149.466 39.72 149.471 39.7167 149.475C39.7134 149.479 39.7092 149.482 39.7045 149.484C39.6998 149.487 39.6946 149.488 39.6894 149.488H39.3113C39.3068 149.487 39.3025 149.485 39.2987 149.482C39.2949 149.48 39.2916 149.476 39.2892 149.473C39.2868 149.469 39.2853 149.464 39.2847 149.46C39.2842 149.455 39.2846 149.45 39.286 149.446Z" fill="#6654A4"/>
<path d="M39.0026 147.97V147.94C39.0053 147.929 39.0102 147.918 39.017 147.909C39.0238 147.9 39.0324 147.892 39.0422 147.886C39.0521 147.88 39.063 147.876 39.0744 147.874C39.0858 147.872 39.0975 147.873 39.1087 147.876L39.6228 148.005C39.6453 148.011 39.6645 148.026 39.6765 148.046C39.6885 148.066 39.6923 148.09 39.6873 148.113V148.143C39.6849 148.155 39.6801 148.166 39.6733 148.175C39.6665 148.185 39.6577 148.193 39.6475 148.2C39.6374 148.206 39.6261 148.21 39.6143 148.212C39.6025 148.214 39.5905 148.213 39.579 148.21L39.0672 148.081C39.0442 148.074 39.0246 148.059 39.0126 148.038C39.0005 148.018 38.997 147.993 39.0026 147.97Z" fill="#6654A4"/>
<path d="M64.6396 152.752C71.4197 152.314 75.7837 147.791 75.839 147.807C76.7612 148.067 77.2222 150.536 76.9663 151.454C76.8903 151.726 72.6507 155.029 64.8195 155.537L64.6396 152.752Z" fill="#968AC2"/>
<path d="M160.294 128.249C179.189 128.249 194.506 112.932 194.506 94.0375C194.506 75.1431 179.189 59.8262 160.294 59.8262C141.4 59.8262 126.083 75.1431 126.083 94.0375C126.083 112.932 141.4 128.249 160.294 128.249Z" fill="#6654A4"/>
<path d="M136.962 81.0625C136.962 81.0625 140.664 84.2577 141.471 87.9785C142.552 92.9696 137.406 100.527 137.69 106.679C138.017 113.789 141.888 116.86 144.244 121.572C146.969 127.02 146.78 130.602 146.78 132.469C146.791 133.553 146.555 134.626 146.088 135.605H171.655C171.655 135.605 166.615 143.256 156.725 149.414C148.631 154.453 144.408 163.034 144.408 163.034H108.578L121.488 141.612C121.488 141.612 119.153 130.316 120.531 122.167C123.014 107.396 136.962 81.0625 136.962 81.0625Z" fill="#EBB389"/>
<path opacity="0.65" d="M146.204 135.521C146.204 135.521 144.841 138.057 143.248 140.635C141.655 143.212 140.664 144.611 140.664 144.611C140.664 144.611 144.433 143.59 146.829 141.831C149.237 140.056 151.394 137.962 153.24 135.607L146.204 135.521Z" fill="#DC894B"/>
<path d="M181.749 27.8994L182.855 25.873L183.964 27.8994C185.073 29.9268 186.739 31.5941 188.766 32.7038L190.795 33.8127L188.766 34.9215C186.74 36.0306 185.073 37.697 183.964 39.7236L182.855 41.75L181.749 39.7236C180.64 37.6955 178.972 36.0282 176.944 34.9192L174.918 33.8104L176.944 32.7038C178.972 31.5949 180.64 29.9275 181.749 27.8994Z" fill="#6654A4"/>
<path d="M161.56 35.2388L162.021 34.3789L162.482 35.2388C162.952 36.0981 163.658 36.8046 164.517 37.2744L165.377 37.7355L164.517 38.1966C163.658 38.6672 162.951 39.3745 162.482 40.2345L162.021 41.0944L161.56 40.2345C161.089 39.3744 160.382 38.6671 159.522 38.1966L158.664 37.7355L159.522 37.2744C160.382 36.8048 161.089 36.0983 161.56 35.2388Z" fill="#6654A4"/>
<path d="M190.956 58.6169L191.173 58.2227L191.389 58.6169C191.605 59.013 191.93 59.3387 192.325 59.5551L192.722 59.7718L192.325 59.9886C191.93 60.205 191.605 60.5307 191.389 60.9268L191.173 61.3233L190.956 60.9268C190.739 60.5306 190.414 60.205 190.018 59.9886L189.621 59.7718L190.018 59.5551C190.414 59.3387 190.739 59.0131 190.956 58.6169Z" fill="#6654A4"/>
<path d="M193.541 42.8856L193.935 42.1641L194.332 42.8856C194.725 43.6081 195.318 44.202 196.04 44.5962L196.768 44.9927L196.044 45.3846C195.322 45.7789 194.729 46.3727 194.336 47.0952L193.94 47.8168L193.541 47.0975C193.148 46.3747 192.556 45.78 191.835 45.3846L191.113 44.9904L191.835 44.5939C192.555 44.1997 193.148 43.6068 193.541 42.8856Z" fill="#6654A4"/>
<path d="M180.109 43.709H140.483C137.866 43.709 135.745 45.83 135.745 48.4465V130.782C135.745 133.398 137.866 135.519 140.483 135.519H180.109C182.726 135.519 184.847 133.398 184.847 130.782V48.4465C184.847 45.83 182.726 43.709 180.109 43.709Z" fill="black"/>
<path d="M170.864 46.981V48.2305C170.864 48.7196 170.67 49.1887 170.324 49.5346C169.978 49.8804 169.509 50.0747 169.02 50.0747H151.582C151.093 50.0747 150.624 49.8804 150.278 49.5346C149.932 49.1887 149.738 48.7196 149.738 48.2305V46.981C149.738 46.8208 149.674 46.6671 149.561 46.5539C149.448 46.4406 149.294 46.377 149.134 46.377H141.9C141.47 46.3773 141.045 46.4622 140.648 46.6268C140.251 46.7915 139.891 47.0327 139.587 47.3367C139.284 47.6407 139.043 48.0015 138.879 48.3985C138.715 48.7955 138.631 49.221 138.631 49.6505V129.581C138.631 130.011 138.715 130.436 138.879 130.833C139.043 131.23 139.284 131.591 139.587 131.895C139.891 132.199 140.251 132.44 140.648 132.605C141.045 132.77 141.47 132.855 141.9 132.855H178.677C179.545 132.854 180.376 132.508 180.99 131.895C181.603 131.281 181.948 130.449 181.948 129.581V49.6505C181.949 49.2208 181.864 48.7951 181.7 48.398C181.536 48.0008 181.295 47.6399 180.991 47.3359C180.687 47.0319 180.326 46.7907 179.929 46.6262C179.532 46.4616 179.107 46.377 178.677 46.377H171.466C171.306 46.3782 171.154 46.4423 171.041 46.5553C170.928 46.6684 170.865 46.8213 170.864 46.981Z" fill="white"/>
<path d="M183.113 123.721H137.822V133.159H183.113V123.721Z" fill="black"/>
<path d="M160.966 132.443C162.859 132.443 164.394 130.907 164.394 129.011C164.394 127.115 162.859 125.578 160.966 125.578C159.073 125.578 157.538 127.115 157.538 129.011C157.538 130.907 159.073 132.443 160.966 132.443Z" fill="#545454"/>
<path d="M163.537 129.01C163.537 129.348 163.471 129.683 163.342 129.995C163.213 130.307 163.024 130.591 162.785 130.83C162.546 131.069 162.263 131.259 161.951 131.389C161.639 131.518 161.304 131.585 160.966 131.585C160.284 131.585 159.629 131.313 159.147 130.83C158.665 130.347 158.394 129.693 158.394 129.01C158.394 128.328 158.665 127.674 159.147 127.191C159.63 126.709 160.284 126.438 160.966 126.438C161.304 126.437 161.639 126.504 161.951 126.633C162.263 126.763 162.546 126.952 162.785 127.191C163.023 127.43 163.213 127.714 163.342 128.026C163.471 128.338 163.537 128.673 163.537 129.01Z" fill="#737373"/>
<path d="M153.582 47.0664H164.152C164.304 47.067 164.45 47.1278 164.557 47.2353C164.664 47.3429 164.724 47.4886 164.724 47.6404C164.724 47.7921 164.664 47.9375 164.557 48.0447C164.45 48.1519 164.304 48.2122 164.152 48.2122H153.582C153.431 48.2122 153.285 48.1519 153.178 48.0447C153.071 47.9375 153.011 47.7921 153.011 47.6404C153.011 47.4886 153.071 47.3429 153.178 47.2353C153.285 47.1278 153.431 47.067 153.582 47.0664Z" fill="#A4A5A4"/>
<path d="M167.581 47.6411C167.581 47.8686 167.491 48.0867 167.33 48.2476C167.169 48.4084 166.951 48.4987 166.724 48.4987C166.496 48.4987 166.278 48.4084 166.117 48.2476C165.957 48.0867 165.866 47.8686 165.866 47.6411C165.866 47.4135 165.956 47.1951 166.117 47.0339C166.278 46.8727 166.496 46.7819 166.724 46.7812C166.951 46.7819 167.17 46.8727 167.33 47.0339C167.491 47.1951 167.581 47.4135 167.581 47.6411Z" fill="#A4A5A4"/>
<path d="M74.3891 82.2799C74.1203 82.1992 73.8319 82.2139 73.5727 82.3215C73.3135 82.429 73.0994 82.6228 72.9667 82.8701C72.8395 83.0991 72.7875 83.3624 72.8181 83.6226C72.8487 83.8828 72.9604 84.1268 73.1373 84.3201C73.3241 84.5035 73.5702 84.6143 73.8313 84.6324C74.0925 84.6506 74.3516 84.575 74.562 84.4193C74.8262 84.1824 74.9868 83.8512 75.0092 83.4971C75.0508 83.1717 74.9685 82.8425 74.7787 82.575C74.6814 82.4428 74.5439 82.3457 74.3868 82.2983C74.2296 82.2509 74.0614 82.2558 73.9073 82.3122" fill="#EB996E"/>
<path d="M73.5037 80.1931C73.2893 80.0386 75.242 80.0571 75.5578 79.6122C75.1474 77.9592 72.517 72.2719 72.8306 72.2351C72.9343 72.1913 73.8979 74.2776 74.9792 76.8942C75.2719 77.897 75.9566 78.6577 75.8805 79.6951C75.6546 80.4236 73.4115 80.1931 73.5037 80.1931Z" fill="#263238"/>
<path d="M147.02 57.6006C147.064 57.5711 147.116 57.5558 147.17 57.5568C147.236 57.5549 147.301 57.5779 147.352 57.6214C147.376 57.6434 147.396 57.6705 147.409 57.7007C147.422 57.731 147.429 57.7636 147.428 57.7966C147.426 57.8357 147.419 57.8745 147.407 57.9119L146.464 60.5169C146.443 60.5741 146.402 60.6221 146.349 60.6529C146.295 60.6849 146.234 60.7016 146.172 60.7013C146.108 60.7017 146.046 60.685 145.992 60.6529C145.938 60.6233 145.898 60.5747 145.879 60.5169L145.15 58.4421L144.41 60.5169C144.389 60.5741 144.348 60.6221 144.295 60.6529C144.241 60.6849 144.18 60.7016 144.117 60.7013C144.055 60.702 143.993 60.6852 143.94 60.6529C143.887 60.6239 143.847 60.575 143.829 60.5169L142.886 57.9119C142.873 57.8748 142.865 57.8359 142.863 57.7966C142.862 57.7629 142.869 57.7295 142.884 57.6991C142.898 57.6686 142.92 57.642 142.946 57.6214C142.996 57.5833 143.055 57.5609 143.117 57.5572C143.179 57.5535 143.241 57.5686 143.294 57.6006C143.343 57.6307 143.378 57.6775 143.394 57.732L144.138 59.8737L144.906 57.7459C144.923 57.6896 144.959 57.6409 145.007 57.6075C145.051 57.5742 145.105 57.5563 145.159 57.5568C145.216 57.5567 145.271 57.5744 145.316 57.6075C145.364 57.6425 145.4 57.6917 145.418 57.7482L146.162 59.906L146.921 57.739C146.936 57.6824 146.971 57.6332 147.02 57.6006Z" fill="black"/>
<path d="M147.893 58.0152C147.863 57.9885 147.84 57.9557 147.825 57.919C147.81 57.8823 147.803 57.8427 147.805 57.8031C147.804 57.7649 147.811 57.727 147.826 57.692C147.842 57.657 147.864 57.6256 147.893 57.6002C147.957 57.546 148.039 57.518 148.123 57.5218C148.207 57.5187 148.289 57.5466 148.354 57.6002C148.383 57.6263 148.407 57.6586 148.422 57.6949C148.438 57.7312 148.445 57.7705 148.444 57.81C148.445 57.8496 148.438 57.889 148.423 57.9255C148.408 57.9621 148.385 57.9951 148.356 58.0221C148.292 58.0779 148.21 58.1076 148.125 58.1051C148.083 58.1062 148.04 58.0988 148 58.0834C147.96 58.0679 147.924 58.0448 147.893 58.0152ZM147.934 60.6317C147.907 60.607 147.886 60.5766 147.873 60.5427C147.859 60.5087 147.853 60.4722 147.856 60.4358V58.7529C147.853 58.7167 147.858 58.6803 147.872 58.6467C147.885 58.613 147.907 58.5831 147.934 58.5592C147.989 58.5146 148.058 58.4916 148.128 58.4947C148.199 58.492 148.27 58.5149 148.326 58.5592C148.353 58.5836 148.374 58.6137 148.387 58.6472C148.401 58.6807 148.407 58.7168 148.404 58.7529V60.4427C148.406 60.4791 148.4 60.5155 148.387 60.5493C148.373 60.5831 148.353 60.6136 148.326 60.6386C148.27 60.6838 148.2 60.7076 148.128 60.7055C148.059 60.7043 147.992 60.6781 147.941 60.6317H147.934Z" fill="black"/>
<path d="M150.309 60.4903C150.31 60.522 150.302 60.5533 150.287 60.5812C150.272 60.6091 150.25 60.6326 150.223 60.6494C150.149 60.6903 150.063 60.7064 149.979 60.6955H149.861C149.759 60.701 149.656 60.6839 149.561 60.6455C149.466 60.607 149.38 60.5481 149.31 60.473C149.24 60.3978 149.187 60.3082 149.155 60.2104C149.123 60.1126 149.113 60.0091 149.126 59.9071V58.9527H148.896C148.83 58.958 148.766 58.9392 148.713 58.8996C148.691 58.8812 148.674 58.8577 148.663 58.8313C148.652 58.8049 148.647 58.7761 148.649 58.7475C148.647 58.7185 148.652 58.6895 148.663 58.6627C148.674 58.6359 148.692 58.6121 148.713 58.593C148.766 58.5553 148.831 58.5373 148.896 58.5423H149.126V58.1389C149.124 58.1039 149.13 58.0689 149.142 58.0363C149.155 58.0037 149.175 57.9742 149.2 57.9498C149.257 57.9051 149.327 57.8809 149.399 57.8809C149.472 57.8809 149.542 57.9051 149.599 57.9498C149.623 57.9745 149.643 58.004 149.655 58.0366C149.668 58.0691 149.674 58.104 149.672 58.1389V58.5239H150.046C150.11 58.5192 150.174 58.5372 150.226 58.5746C150.248 58.5936 150.265 58.6175 150.276 58.6443C150.287 58.6711 150.292 58.7001 150.29 58.729C150.292 58.7577 150.287 58.7864 150.276 58.8129C150.265 58.8393 150.248 58.8627 150.226 58.8812C150.174 58.9204 150.11 58.9392 150.046 58.9342H149.672V59.9301C149.666 59.973 149.668 60.0168 149.68 60.0584C149.692 60.1001 149.713 60.1388 149.741 60.1716C149.77 60.2045 149.805 60.2309 149.844 60.2489C149.884 60.2669 149.926 60.2761 149.97 60.2759H150.09C150.235 60.3013 150.309 60.3681 150.309 60.4903Z" fill="black"/>
<path d="M152.6 59.3588V60.4354C152.602 60.4709 152.597 60.5064 152.585 60.5398C152.572 60.5732 152.553 60.6036 152.528 60.629C152.473 60.6776 152.401 60.7024 152.328 60.6982C152.254 60.7017 152.183 60.677 152.127 60.629C152.102 60.6037 152.082 60.5734 152.07 60.54C152.057 60.5067 152.052 60.471 152.053 60.4354V59.3588C152.063 59.2382 152.03 59.118 151.959 59.0199C151.921 58.9809 151.875 58.951 151.824 58.9322C151.773 58.9135 151.718 58.9064 151.664 58.9115C151.593 58.9085 151.523 58.9202 151.458 58.946C151.392 58.9719 151.333 59.0112 151.283 59.0614C151.235 59.115 151.198 59.1776 151.174 59.2456C151.149 59.3137 151.139 59.3858 151.143 59.4579V60.4354C151.145 60.4712 151.139 60.5071 151.126 60.5405C151.113 60.574 151.093 60.6041 151.067 60.629C151.009 60.6739 150.939 60.6983 150.866 60.6983C150.793 60.6983 150.723 60.6739 150.666 60.629C150.641 60.6032 150.622 60.5728 150.61 60.5395C150.598 60.5062 150.592 60.4708 150.594 60.4354V57.8165C150.592 57.782 150.598 57.7476 150.611 57.7156C150.624 57.6837 150.644 57.6552 150.67 57.6321C150.726 57.5842 150.797 57.5594 150.871 57.5629C150.942 57.5591 151.012 57.5821 151.067 57.6275C151.092 57.65 151.112 57.6779 151.125 57.7089C151.138 57.74 151.144 57.7736 151.143 57.8073V58.8285C151.213 58.7156 151.313 58.6252 151.433 58.568C151.562 58.5066 151.703 58.4758 151.846 58.4781C152.348 58.4781 152.6 58.7717 152.6 59.3588Z" fill="black"/>
<path d="M155.143 57.632C155.169 57.6549 155.189 57.6833 155.203 57.7152C155.216 57.7472 155.223 57.7818 155.221 57.8164V60.4353C155.223 60.4702 155.217 60.5052 155.205 60.5378C155.192 60.5704 155.172 60.5999 155.147 60.6243C155.093 60.6722 155.023 60.697 154.951 60.6935C154.879 60.6969 154.808 60.6721 154.753 60.6243C154.728 60.5997 154.709 60.5701 154.696 60.5376C154.683 60.505 154.678 60.4702 154.679 60.4353V60.3269C154.616 60.4455 154.519 60.5426 154.4 60.6059C154.274 60.6747 154.132 60.7097 153.988 60.7073C153.813 60.7107 153.641 60.6617 153.494 60.5667C153.346 60.4703 153.229 60.3324 153.158 60.1702C153.074 59.9858 153.032 59.7849 153.035 59.5823C153.031 59.3811 153.073 59.1816 153.158 58.9991C153.229 58.8411 153.346 58.7073 153.492 58.6141C153.641 58.522 153.813 58.4747 153.988 58.478C154.13 58.4754 154.271 58.5087 154.398 58.5749C154.514 58.636 154.61 58.7298 154.675 58.8446V57.8072C154.673 57.7742 154.679 57.7413 154.691 57.7107C154.703 57.68 154.722 57.6524 154.746 57.6297C154.8 57.5833 154.871 57.5594 154.942 57.5628C155.015 57.5602 155.087 57.5849 155.143 57.632ZM154.536 60.1033C154.64 59.953 154.691 59.7718 154.679 59.5892C154.691 59.4081 154.64 59.2284 154.536 59.0797C154.488 59.0208 154.426 58.974 154.357 58.9432C154.287 58.9124 154.211 58.8983 154.135 58.9022C154.058 58.8984 153.982 58.9122 153.911 58.9426C153.84 58.9729 153.777 59.0191 153.727 59.0774C153.623 59.2245 153.573 59.4026 153.584 59.5823C153.573 59.7655 153.623 59.9472 153.727 60.0987C153.778 60.1561 153.84 60.2021 153.91 60.2336C153.979 60.2651 154.055 60.2813 154.132 60.2813C154.208 60.2813 154.284 60.2651 154.354 60.2336C154.423 60.2021 154.486 60.1561 154.536 60.0987V60.1033Z" fill="black"/>
<path d="M157.162 58.5364C157.185 58.558 157.203 58.5846 157.215 58.6141C157.226 58.6436 157.231 58.6754 157.229 58.707C157.233 58.7706 157.212 58.8334 157.171 58.8822C157.112 58.9275 157.04 58.9533 156.966 58.956L156.835 58.9698C156.763 58.9716 156.692 58.9881 156.626 59.0182C156.561 59.0484 156.502 59.0915 156.454 59.145C156.372 59.2507 156.329 59.3822 156.334 59.5162V60.4383C156.337 60.4747 156.331 60.5113 156.317 60.5452C156.304 60.5791 156.283 60.6095 156.256 60.6342C156.2 60.6794 156.13 60.7032 156.058 60.7011C155.987 60.7035 155.918 60.6797 155.864 60.6342C155.838 60.6092 155.817 60.5787 155.803 60.5449C155.79 60.5111 155.784 60.4747 155.786 60.4383V58.7531C155.783 58.7177 155.789 58.6822 155.803 58.6494C155.816 58.6166 155.837 58.5874 155.864 58.564C155.917 58.5197 155.984 58.4967 156.053 58.4995C156.12 58.4963 156.186 58.5186 156.238 58.5617C156.262 58.585 156.281 58.6134 156.294 58.6448C156.306 58.6763 156.311 58.7101 156.309 58.7439V58.9191C156.358 58.7965 156.444 58.6925 156.556 58.6217C156.665 58.5499 156.792 58.5093 156.922 58.5041H156.982C157.013 58.497 157.044 58.4961 157.075 58.5017C157.106 58.5072 157.136 58.519 157.162 58.5364Z" fill="black"/>
<path d="M159.047 58.7004C159.205 58.8865 159.283 59.1278 159.264 59.3713V60.441C159.266 60.4752 159.26 60.5094 159.248 60.5415C159.237 60.5736 159.218 60.6029 159.195 60.6277C159.141 60.6737 159.072 60.6976 159.001 60.6945C158.932 60.6971 158.865 60.6723 158.814 60.6254C158.79 60.6014 158.771 60.5726 158.759 60.5408C158.747 60.509 158.741 60.475 158.743 60.441V60.3441C158.696 60.4552 158.615 60.5487 158.512 60.6116C158.401 60.6778 158.273 60.7113 158.143 60.7084C158.008 60.71 157.875 60.68 157.754 60.6208C157.641 60.5673 157.545 60.4835 157.477 60.3787C157.41 60.2777 157.375 60.1588 157.376 60.0375C157.369 59.9033 157.412 59.7712 157.496 59.6664C157.603 59.5607 157.741 59.4914 157.89 59.4681C158.136 59.4227 158.386 59.4026 158.637 59.4082H158.747V59.3067C158.757 59.1943 158.724 59.0823 158.655 58.9932C158.615 58.9574 158.568 58.9302 158.517 58.9132C158.466 58.8962 158.411 58.8896 158.358 58.8941C158.27 58.8948 158.183 58.908 158.1 58.9333C157.994 58.9631 157.89 58.9985 157.788 59.0393C157.738 59.07 157.681 59.0896 157.622 59.0969C157.598 59.0979 157.573 59.0933 157.551 59.0833C157.529 59.0733 157.509 59.0582 157.493 59.0393C157.458 58.9978 157.44 58.9441 157.443 58.8895C157.442 58.8437 157.455 58.7988 157.479 58.7604C157.513 58.7182 157.556 58.6837 157.604 58.6589C157.719 58.5985 157.843 58.5543 157.97 58.5275C158.107 58.4958 158.247 58.4795 158.388 58.4791C158.507 58.4701 158.627 58.485 158.74 58.5231C158.853 58.5611 158.958 58.6214 159.047 58.7004ZM158.604 60.1666C158.699 60.0638 158.748 59.9279 158.743 59.7885V59.6963H158.664C158.51 59.6932 158.356 59.7025 158.203 59.724C158.119 59.7312 158.039 59.7624 157.973 59.8139C157.949 59.8371 157.93 59.8652 157.919 59.8962C157.907 59.9273 157.902 59.9605 157.904 59.9937C157.902 60.0371 157.91 60.0803 157.927 60.1201C157.944 60.16 157.97 60.1956 158.003 60.2243C158.066 60.282 158.148 60.3141 158.233 60.3142C158.302 60.319 158.371 60.3082 158.436 60.2827C158.5 60.2571 158.558 60.2175 158.604 60.1666Z" fill="black"/>
<path d="M162.806 58.5236C162.844 58.498 162.889 58.4843 162.935 58.4844C163.002 58.4833 163.067 58.5072 163.117 58.5513C163.142 58.5714 163.163 58.597 163.177 58.6262C163.19 58.6553 163.198 58.6872 163.198 58.7196C163.198 58.7545 163.191 58.7892 163.177 58.821L162.453 60.5154C162.433 60.5684 162.396 60.6131 162.347 60.6422C162.298 60.672 162.242 60.6872 162.186 60.686C162.131 60.6865 162.077 60.6713 162.031 60.6422C161.982 60.6132 161.944 60.5686 161.923 60.5154L161.402 59.2636L160.899 60.5154C160.878 60.5686 160.84 60.6132 160.791 60.6422C160.743 60.6716 160.688 60.6868 160.632 60.686C160.576 60.6862 160.521 60.6711 160.473 60.6422C160.423 60.6132 160.385 60.5686 160.364 60.5154L159.65 58.8302C159.638 58.7993 159.63 58.7666 159.629 58.7334C159.629 58.6997 159.637 58.6665 159.652 58.6365C159.667 58.6064 159.689 58.5804 159.717 58.5605C159.77 58.5143 159.838 58.4889 159.908 58.489C159.958 58.4864 160.008 58.5003 160.05 58.5286C160.091 58.5569 160.122 58.5981 160.138 58.6458L160.655 59.9829L161.185 58.6596C161.205 58.6086 161.24 58.565 161.286 58.5351C161.33 58.5081 161.38 58.4938 161.431 58.4938C161.481 58.4938 161.531 58.5081 161.575 58.5351C161.621 58.565 161.656 58.6086 161.676 58.6596L162.211 59.9852L162.723 58.6504C162.735 58.6 162.765 58.5553 162.806 58.5236Z" fill="black"/>
<path d="M167.744 57.6394C167.77 57.6663 167.79 57.6982 167.803 57.7331C167.816 57.7679 167.822 57.8051 167.821 57.8422V60.4358C167.823 60.4712 167.818 60.5068 167.805 60.5402C167.793 60.5735 167.774 60.6039 167.749 60.6294C167.725 60.6528 167.696 60.6709 167.664 60.6828C167.632 60.6947 167.598 60.7001 167.565 60.6986C167.532 60.7004 167.499 60.6951 167.468 60.6832C167.438 60.6713 167.41 60.6529 167.387 60.6294C167.34 60.5762 167.316 60.5066 167.32 60.4358V58.6307L166.566 60.0415C166.539 60.0965 166.501 60.1452 166.453 60.1845C166.411 60.2136 166.36 60.2292 166.308 60.2292C166.256 60.2292 166.206 60.2136 166.163 60.1845C166.115 60.1454 166.076 60.0957 166.05 60.0392L165.301 58.656V60.4381C165.304 60.508 165.28 60.5764 165.234 60.6294C165.185 60.6748 165.12 60.6999 165.053 60.6999C164.986 60.6999 164.921 60.6748 164.872 60.6294C164.825 60.5762 164.801 60.5066 164.805 60.4358V57.8422C164.802 57.7676 164.829 57.6948 164.879 57.6394C164.904 57.6136 164.934 57.5935 164.967 57.5804C165.001 57.5672 165.037 57.5614 165.073 57.5633C165.131 57.5647 165.187 57.5831 165.234 57.6164C165.282 57.6496 165.319 57.6961 165.34 57.75L166.313 59.5943L167.281 57.75C167.301 57.6971 167.336 57.6513 167.382 57.6181C167.428 57.5849 167.483 57.5659 167.539 57.5633C167.577 57.5603 167.615 57.5656 167.65 57.5787C167.686 57.5919 167.718 57.6126 167.744 57.6394Z" fill="black"/>
<path d="M168.843 60.5718C168.68 60.4824 168.547 60.3469 168.461 60.1822C168.367 59.999 168.32 59.7954 168.324 59.5897C168.32 59.3855 168.367 59.1835 168.461 59.0019C168.547 58.8378 168.68 58.703 168.843 58.6146C169.022 58.5251 169.219 58.4785 169.42 58.4785C169.62 58.4785 169.817 58.5251 169.996 58.6146C170.159 58.7018 170.292 58.8369 170.376 59.0019C170.469 59.1837 170.515 59.3857 170.51 59.5897C170.515 59.7952 170.469 59.9988 170.376 60.1822C170.292 60.3474 170.159 60.4832 169.996 60.5718C169.817 60.6613 169.62 60.7079 169.42 60.7079C169.219 60.7079 169.022 60.6613 168.843 60.5718ZM169.823 60.1107C169.915 59.9542 169.964 59.7759 169.964 59.5943C169.964 59.4128 169.915 59.2345 169.823 59.0779C169.774 59.0188 169.712 58.972 169.642 58.9411C169.572 58.9103 169.496 58.8964 169.42 58.9004C169.343 58.8965 169.266 58.9105 169.196 58.9414C169.125 58.9722 169.063 59.0189 169.014 59.0779C168.91 59.2286 168.861 59.4097 168.873 59.592C168.86 59.7755 168.909 59.958 169.011 60.1107C169.064 60.166 169.127 60.21 169.196 60.2401C169.266 60.2702 169.341 60.2857 169.417 60.2857C169.493 60.2857 169.568 60.2702 169.638 60.2401C169.708 60.21 169.771 60.166 169.823 60.1107Z" fill="black"/>
<path d="M172.778 58.6988C172.919 58.8894 172.986 59.1243 172.967 59.3604V60.437C172.969 60.4725 172.964 60.508 172.952 60.5414C172.94 60.5748 172.92 60.6052 172.896 60.6306C172.841 60.6792 172.768 60.7041 172.695 60.6998C172.622 60.7036 172.55 60.6788 172.495 60.6306C172.469 60.6056 172.449 60.5754 172.436 60.5419C172.424 60.5085 172.418 60.4727 172.421 60.437V59.3904C172.431 59.2618 172.398 59.1335 172.326 59.0261C172.289 58.9861 172.243 58.9551 172.192 58.9355C172.141 58.9159 172.086 58.9083 172.031 58.9131C171.961 58.9101 171.891 58.9218 171.825 58.9476C171.76 58.9735 171.7 59.0128 171.651 59.063C171.552 59.171 171.501 59.3136 171.508 59.4595V60.437C171.51 60.4727 171.505 60.5085 171.492 60.5419C171.48 60.5754 171.46 60.6056 171.434 60.6306C171.379 60.6788 171.307 60.7036 171.234 60.6998C171.16 60.7041 171.088 60.6792 171.033 60.6306C171.008 60.6052 170.989 60.5748 170.977 60.5414C170.964 60.508 170.959 60.4725 170.961 60.437V58.7541C170.96 58.7199 170.966 58.6858 170.979 58.654C170.991 58.6223 171.011 58.5935 171.035 58.5697C171.091 58.5214 171.164 58.4966 171.238 58.5005C171.306 58.4981 171.372 58.5221 171.423 58.5673C171.447 58.5899 171.466 58.6174 171.479 58.648C171.492 58.6787 171.498 58.7117 171.496 58.7449V58.8624C171.566 58.7454 171.668 58.6503 171.789 58.5881C171.918 58.5219 172.061 58.4886 172.206 58.4913C172.311 58.4817 172.417 58.4953 172.515 58.5312C172.614 58.567 172.704 58.6242 172.778 58.6988Z" fill="black"/>
<path d="M175.338 60.1371C175.371 60.1808 175.387 60.2347 175.384 60.2893C175.382 60.339 175.365 60.3869 175.337 60.4277C175.308 60.4685 175.269 60.5004 175.223 60.5198C175.116 60.5789 175.002 60.6238 174.884 60.6535C174.768 60.6865 174.647 60.7036 174.527 60.7042C174.377 60.7121 174.227 60.6898 174.086 60.6387C173.945 60.5877 173.816 60.5088 173.706 60.4068C173.603 60.2986 173.522 60.1703 173.471 60.03C173.419 59.8897 173.396 59.7402 173.404 59.5907C173.4 59.3893 173.445 59.1899 173.535 59.0098C173.618 58.8449 173.747 58.7079 173.906 58.6156C174.07 58.5203 174.257 58.4716 174.446 58.475C174.623 58.4702 174.797 58.5141 174.951 58.6017C175.094 58.6871 175.209 58.812 175.283 58.9614C175.365 59.1314 175.407 59.3187 175.403 59.5077C175.403 59.6345 175.345 59.6968 175.234 59.6968H173.943C173.946 59.8606 174.006 60.0183 174.114 60.1417C174.171 60.1919 174.238 60.2304 174.31 60.2549C174.381 60.2795 174.458 60.2896 174.534 60.2847C174.618 60.2866 174.702 60.2741 174.783 60.2478C174.854 60.2247 174.935 60.1924 175.025 60.1532C175.083 60.1151 175.149 60.0907 175.218 60.0818C175.241 60.0809 175.264 60.0854 175.285 60.095C175.306 60.1047 175.324 60.1191 175.338 60.1371ZM174.102 58.9983C174.005 59.111 173.949 59.2531 173.943 59.4017H174.932C174.939 59.2551 174.892 59.111 174.801 58.996C174.758 58.9491 174.705 58.9125 174.646 58.8885C174.587 58.8646 174.523 58.8541 174.46 58.8576C174.393 58.8549 174.327 58.8667 174.265 58.8922C174.203 58.9176 174.148 58.9562 174.102 59.0052V58.9983Z" fill="black"/>
<path d="M177.4 58.5232C177.439 58.4984 177.483 58.4856 177.529 58.4864C177.596 58.4857 177.661 58.5095 177.711 58.5532C177.737 58.5734 177.757 58.599 177.771 58.6281C177.785 58.6573 177.792 58.6892 177.792 58.7215C177.791 58.7568 177.782 58.7914 177.767 58.8229L176.57 61.3358C176.551 61.3806 176.519 61.4186 176.478 61.4448C176.436 61.4711 176.388 61.4845 176.34 61.4833C176.275 61.4841 176.212 61.4621 176.162 61.4211C176.138 61.4016 176.119 61.377 176.106 61.3491C176.092 61.3211 176.086 61.2906 176.086 61.2597C176.088 61.2223 176.096 61.1856 176.111 61.1513L176.409 60.5243L175.595 58.8299C175.581 58.7981 175.573 58.7634 175.574 58.7284C175.574 58.6953 175.582 58.6625 175.596 58.6329C175.611 58.6032 175.633 58.5775 175.66 58.5578C175.714 58.5125 175.783 58.488 175.853 58.4887C175.901 58.4877 175.948 58.5005 175.989 58.5256C176.033 58.5527 176.067 58.5931 176.086 58.6408L176.699 59.9941L177.308 58.6454C177.324 58.5954 177.356 58.5523 177.4 58.5232Z" fill="black"/>
<path d="M24.2098 22.6432C24.2785 22.7194 24.3141 22.8197 24.3089 22.9222V26.4401C24.3131 26.5435 24.2767 26.6444 24.2075 26.7214C24.1742 26.7574 24.1334 26.7857 24.088 26.8044C24.0426 26.8231 23.9937 26.8318 23.9447 26.8297C23.8879 26.8327 23.8313 26.8216 23.7798 26.7975C23.7284 26.7734 23.6836 26.7369 23.6496 26.6914L21.4618 23.8443V26.4401C21.4661 26.5423 21.4324 26.6425 21.3673 26.7214C21.297 26.7908 21.2022 26.8297 21.1034 26.8297C21.0046 26.8297 20.9097 26.7908 20.8394 26.7214C20.7727 26.6432 20.7381 26.5427 20.7426 26.4401V22.9222C20.7403 22.8713 20.7481 22.8204 20.7655 22.7726C20.7829 22.7247 20.8096 22.6808 20.844 22.6432C20.8795 22.6084 20.9218 22.5813 20.9681 22.5634C21.0145 22.5456 21.0641 22.5374 21.1137 22.5395C21.1692 22.5368 21.2246 22.5478 21.2748 22.5715C21.3251 22.5952 21.3687 22.6309 21.4019 22.6755L23.5851 25.5111V22.9222C23.5799 22.8197 23.6155 22.7194 23.6842 22.6432C23.7178 22.6084 23.7584 22.5812 23.8033 22.5633C23.8482 22.5455 23.8964 22.5373 23.9447 22.5395C23.9937 22.5371 24.0427 22.5451 24.0883 22.563C24.134 22.5809 24.1754 22.6082 24.2098 22.6432Z" fill="black"/>
<path d="M25.7106 26.6564C25.4864 26.5341 25.3034 26.3479 25.185 26.1216C25.0567 25.8716 24.9932 25.5933 25.0006 25.3124C24.9932 25.033 25.0567 24.7562 25.185 24.5078C25.3036 24.2828 25.4866 24.0982 25.7106 23.9776C25.9553 23.8549 26.2253 23.791 26.499 23.791C26.7728 23.791 27.0428 23.8549 27.2875 23.9776C27.5101 24.0984 27.6916 24.2831 27.8085 24.5078C27.9349 24.7568 27.9975 25.0333 27.9906 25.3124C27.9975 25.593 27.9349 25.871 27.8085 26.1216C27.6917 26.3476 27.5104 26.5338 27.2875 26.6564C27.0424 26.7777 26.7725 26.8409 26.499 26.8409C26.2255 26.8409 25.9557 26.7777 25.7106 26.6564ZM27.05 26.0201C27.1752 25.8061 27.2412 25.5627 27.2412 25.3147C27.2412 25.0668 27.1752 24.8233 27.05 24.6093C26.9826 24.5305 26.8976 24.4686 26.8019 24.4286C26.7062 24.3885 26.6025 24.3715 26.499 24.3787C26.3949 24.3713 26.2904 24.3882 26.194 24.4282C26.0975 24.4683 26.0117 24.5303 25.9435 24.6093C25.8169 24.8228 25.7501 25.0665 25.7501 25.3147C25.7501 25.563 25.8169 25.8066 25.9435 26.0201C26.0107 26.0992 26.0956 26.1613 26.1913 26.2014C26.2871 26.2414 26.3909 26.2583 26.4944 26.2507C26.598 26.2573 26.7018 26.2397 26.7974 26.1993C26.8931 26.1589 26.978 26.0968 27.0454 26.0178L27.05 26.0201Z" fill="black"/>
<path d="M31.1106 26.5846C30.8051 26.4087 30.5594 26.1453 30.4051 25.8284C30.243 25.4658 30.1592 25.073 30.1592 24.6758C30.1592 24.2785 30.243 23.8857 30.4051 23.5231C30.5596 23.2075 30.8054 22.9457 31.1106 22.7715C31.437 22.5892 31.8064 22.4977 32.1802 22.5064C32.4325 22.5048 32.6832 22.5445 32.9226 22.624C33.1475 22.6982 33.3569 22.8131 33.5404 22.9629C33.5864 22.9947 33.6236 23.0375 33.6488 23.0874C33.6706 23.1391 33.6808 23.195 33.6787 23.2511C33.6838 23.334 33.6584 23.416 33.6073 23.4816C33.5872 23.5094 33.5609 23.532 33.5305 23.5476C33.5 23.5632 33.4663 23.5714 33.432 23.5715C33.3438 23.5688 33.2585 23.539 33.1877 23.4862C33.0425 23.3735 32.8808 23.2841 32.7082 23.2211C32.5498 23.1687 32.3839 23.143 32.2171 23.145C32.0402 23.1329 31.8629 23.1617 31.699 23.2293C31.535 23.2969 31.3889 23.4014 31.2719 23.5346C31.0606 23.882 30.9489 24.2807 30.9489 24.6873C30.9489 25.0939 31.0606 25.4926 31.2719 25.84C31.3889 25.9732 31.535 26.0777 31.699 26.1453C31.8629 26.2129 32.0402 26.2417 32.2171 26.2296C32.3788 26.2314 32.5395 26.2049 32.692 26.1512C32.8679 26.0853 33.0345 25.997 33.1877 25.8884C33.2255 25.8643 33.2656 25.8442 33.3076 25.8284C33.347 25.8119 33.3893 25.8033 33.432 25.8031C33.4663 25.8032 33.5 25.8114 33.5305 25.827C33.5609 25.8426 33.5872 25.8652 33.6073 25.893C33.6584 25.9586 33.6838 26.0405 33.6787 26.1235C33.6804 26.1773 33.6701 26.2309 33.6488 26.2803C33.6244 26.332 33.5871 26.3765 33.5404 26.4094C33.3582 26.561 33.1484 26.6761 32.9226 26.7483C32.6832 26.8278 32.4325 26.8675 32.1802 26.8658C31.805 26.8687 31.4358 26.7716 31.1106 26.5846Z" fill="black"/>
<path d="M36.4099 24.0929C36.6272 24.3488 36.7342 24.6804 36.7073 25.015V26.4789C36.7098 26.5256 36.7025 26.5723 36.6858 26.616C36.6691 26.6597 36.6435 26.6994 36.6105 26.7325C36.5754 26.7652 36.534 26.7905 36.4888 26.8067C36.4436 26.823 36.3956 26.8299 36.3477 26.827C36.3011 26.829 36.2545 26.8214 36.2109 26.8047C36.1673 26.7881 36.1276 26.7627 36.0941 26.7302C36.0609 26.6976 36.0349 26.6584 36.0178 26.6151C36.0008 26.5718 35.993 26.5254 35.995 26.4789V26.3475C35.9286 26.5 35.8156 26.6276 35.6722 26.7118C35.5193 26.8014 35.3446 26.8469 35.1674 26.8432C34.9821 26.8459 34.7989 26.8048 34.6325 26.7233C34.4793 26.6501 34.3493 26.536 34.2568 26.3936C34.1659 26.2571 34.1177 26.0966 34.1184 25.9326C34.1078 25.7483 34.1661 25.5667 34.2821 25.4231C34.4289 25.2798 34.6166 25.1855 34.8193 25.1534C35.1571 25.0879 35.5011 25.0593 35.8451 25.0681H35.995V24.9297C36.0073 24.776 35.9621 24.6232 35.8682 24.5009C35.8129 24.452 35.7481 24.4149 35.678 24.3919C35.6078 24.369 35.5337 24.3605 35.4601 24.3672C35.3408 24.3674 35.222 24.3845 35.1074 24.418C34.9875 24.4525 34.8446 24.5009 34.6809 24.5655C34.61 24.6065 34.5316 24.6331 34.4504 24.6439C34.4173 24.6442 34.3845 24.6373 34.3542 24.6238C34.324 24.6103 34.2971 24.5904 34.2752 24.5655C34.2338 24.5115 34.2098 24.4462 34.2065 24.3782C34.2032 24.3102 34.2207 24.2429 34.2568 24.1851C34.3014 24.1251 34.3599 24.0768 34.4273 24.0445C34.5851 23.962 34.7534 23.9015 34.9276 23.8647C35.1151 23.8212 35.3069 23.7988 35.4993 23.7978C35.6632 23.7832 35.8283 23.8018 35.9847 23.8525C36.1412 23.9032 36.2858 23.985 36.4099 24.0929ZM35.8059 26.1009C35.9341 25.9592 36.002 25.7731 35.995 25.5822V25.4577H35.8866C35.6778 25.4542 35.469 25.4657 35.2619 25.4922C35.1466 25.5034 35.037 25.5474 34.946 25.619C34.9131 25.6508 34.8874 25.6892 34.8707 25.7318C34.854 25.7744 34.8467 25.8201 34.8492 25.8657C34.8477 25.9247 34.8591 25.9833 34.8826 26.0375C34.9061 26.0916 34.9411 26.14 34.9852 26.1792C35.0298 26.2205 35.0821 26.2525 35.139 26.2734C35.196 26.2944 35.2566 26.3039 35.3172 26.3014C35.4082 26.3044 35.4988 26.288 35.583 26.2534C35.6673 26.2189 35.7432 26.1669 35.8059 26.1009Z" fill="black"/>
<path d="M37.469 26.585C37.41 26.554 37.3608 26.5072 37.327 26.4498C37.2932 26.3923 37.2761 26.3266 37.2777 26.2599C37.2742 26.1896 37.2972 26.1205 37.3422 26.0663C37.3618 26.0424 37.3864 26.0232 37.4143 26.01C37.4422 25.9969 37.4727 25.9901 37.5036 25.9902C37.6043 26.0003 37.7013 26.0334 37.7872 26.087C37.9005 26.1415 38.0176 26.1878 38.1376 26.2253C38.2691 26.26 38.405 26.2755 38.541 26.2715C38.6774 26.2786 38.8133 26.25 38.9352 26.1885C38.9773 26.1664 39.0126 26.1332 39.0374 26.0926C39.0622 26.052 39.0755 26.0055 39.0759 25.9579C39.0787 25.8979 39.058 25.8392 39.0182 25.7943C38.9591 25.7436 38.89 25.7059 38.8154 25.6836C38.7162 25.6513 38.5664 25.6121 38.3681 25.5683C38.0923 25.5284 37.8299 25.4233 37.6027 25.2617C37.5262 25.1934 37.4658 25.109 37.4259 25.0145C37.3861 24.92 37.3677 24.8178 37.3722 24.7154C37.3712 24.5442 37.4263 24.3774 37.529 24.2404C37.6384 24.0928 37.7869 23.9786 37.9578 23.9108C38.1542 23.8295 38.3653 23.7894 38.5779 23.7932C38.7413 23.7926 38.9041 23.8135 39.062 23.8555C39.2106 23.8947 39.3522 23.9569 39.4816 24.0399C39.5397 24.0698 39.5884 24.1151 39.6225 24.1707C39.6567 24.2264 39.6749 24.2904 39.6752 24.3557C39.6776 24.4284 39.6539 24.4996 39.6084 24.5563C39.59 24.582 39.5658 24.6029 39.5378 24.6173C39.5097 24.6318 39.4786 24.6393 39.447 24.6393C39.4025 24.6392 39.3585 24.6298 39.3179 24.6116C39.2764 24.5932 39.2234 24.5655 39.1588 24.5309C39.062 24.4792 38.9619 24.4338 38.8592 24.3949C38.7587 24.3626 38.6534 24.3478 38.5479 24.3511C38.4247 24.3444 38.3023 24.3758 38.1975 24.441C38.1566 24.467 38.1232 24.5032 38.1006 24.5461C38.0779 24.5889 38.0669 24.6369 38.0684 24.6854C38.0661 24.7323 38.0772 24.779 38.1005 24.8198C38.1238 24.8607 38.1582 24.894 38.1998 24.9159C38.3614 24.9921 38.5329 25.0449 38.7093 25.0727C38.9256 25.1125 39.1368 25.1767 39.3387 25.264C39.4718 25.3199 39.5857 25.4137 39.666 25.5337C39.7357 25.6598 39.77 25.8024 39.7652 25.9464C39.7679 26.0752 39.7384 26.2026 39.6792 26.317C39.62 26.4313 39.533 26.529 39.4263 26.6011C39.1585 26.7763 38.8421 26.8618 38.5226 26.8455C38.1537 26.8611 37.7881 26.7707 37.469 26.585Z" fill="black"/>
<path d="M43.1211 24.996V26.4783C43.1239 26.5269 43.1166 26.5757 43.0995 26.6213C43.0824 26.667 43.056 26.7085 43.022 26.7434C42.9471 26.8091 42.8495 26.843 42.7499 26.8379C42.649 26.843 42.55 26.8092 42.4733 26.7434C42.4388 26.7087 42.412 26.6672 42.3945 26.6216C42.3771 26.5759 42.3693 26.5271 42.3719 26.4783V25.0052C42.3851 24.841 42.3393 24.6775 42.2428 24.5441C42.1901 24.4919 42.1268 24.4516 42.0572 24.4262C41.9876 24.4007 41.9132 24.3906 41.8393 24.3966C41.7434 24.3929 41.6477 24.4092 41.5584 24.4445C41.4691 24.4799 41.3881 24.5334 41.3206 24.6017C41.2537 24.675 41.2019 24.7608 41.1682 24.8542C41.1346 24.9476 41.1198 25.0467 41.1247 25.1458V26.4783C41.1272 26.5271 41.1195 26.5759 41.102 26.6216C41.0845 26.6672 41.0577 26.7087 41.0232 26.7434C40.9468 26.8096 40.8476 26.8435 40.7466 26.8379C40.6471 26.843 40.5495 26.8091 40.4746 26.7434C40.4409 26.7083 40.4147 26.6667 40.3976 26.6211C40.3806 26.5755 40.373 26.5269 40.3754 26.4783V22.8843C40.3735 22.8372 40.3821 22.7902 40.4004 22.7468C40.4187 22.7033 40.4464 22.6645 40.4815 22.633C40.5592 22.5733 40.6544 22.541 40.7524 22.541C40.8503 22.541 40.9455 22.5733 41.0232 22.633C41.0571 22.6638 41.0837 22.7016 41.1012 22.7438C41.1187 22.7861 41.1268 22.8317 41.1247 22.8773V24.2744C41.2224 24.121 41.3604 23.9974 41.5235 23.9171C41.7007 23.8335 41.8947 23.7917 42.0906 23.7949C42.7776 23.7918 43.1211 24.1922 43.1211 24.996Z" fill="black"/>
<path d="M175.736 66.0293H144.39C143.821 66.0293 143.359 66.4907 143.359 67.0598V77.7243C143.359 78.2934 143.821 78.7548 144.39 78.7548H175.736C176.305 78.7548 176.766 78.2934 176.766 77.7243V67.0598C176.766 66.4907 176.305 66.0293 175.736 66.0293Z" fill="#E0E0E0"/>
<path d="M144.885 90.5396C146.486 90.5396 147.785 89.3083 147.785 87.7893C147.785 86.2704 146.486 85.0391 144.885 85.0391C143.283 85.0391 141.984 86.2704 141.984 87.7893C141.984 89.3083 143.283 90.5396 144.885 90.5396Z" fill="#AB97E8"/>
<path d="M143.547 87.6628L144.529 88.5112L146.226 87.0703" stroke="white" stroke-width="2" stroke-linecap="round" stroke-linejoin="round"/>
<path d="M176.464 86.8359H149.57C149 86.8359 148.539 87.2973 148.539 87.8664C148.539 88.4356 149 88.8969 149.57 88.8969H176.464C177.033 88.8969 177.494 88.4356 177.494 87.8664C177.494 87.2973 177.033 86.8359 176.464 86.8359Z" fill="#E0E0E0"/>
<path d="M144.885 97.8404C146.486 97.8404 147.785 96.6091 147.785 95.0901C147.785 93.5712 146.486 92.3398 144.885 92.3398C143.283 92.3398 141.984 93.5712 141.984 95.0901C141.984 96.6091 143.283 97.8404 144.885 97.8404Z" fill="#AB97E8"/>
<path d="M143.547 94.9636L144.529 95.8119L146.226 94.3711" stroke="white" stroke-width="2" stroke-linecap="round" stroke-linejoin="round"/>
<path d="M176.464 94.1367H149.57C149 94.1367 148.539 94.5981 148.539 95.1672C148.539 95.7363 149 96.1977 149.57 96.1977H176.464C177.033 96.1977 177.494 95.7363 177.494 95.1672C177.494 94.5981 177.033 94.1367 176.464 94.1367Z" fill="#E0E0E0"/>
<path d="M144.885 105.141C146.486 105.141 147.785 103.91 147.785 102.391C147.785 100.872 146.486 99.6406 144.885 99.6406C143.283 99.6406 141.984 100.872 141.984 102.391C141.984 103.91 143.283 105.141 144.885 105.141Z" fill="#AB97E8"/>
<path d="M143.547 102.264L144.529 103.113L146.226 101.672" stroke="white" stroke-width="2" stroke-linecap="round" stroke-linejoin="round"/>
<path d="M176.464 101.438H149.57C149 101.438 148.539 101.899 148.539 102.468C148.539 103.037 149 103.498 149.57 103.498H176.464C177.033 103.498 177.494 103.037 177.494 102.468C177.494 101.899 177.033 101.438 176.464 101.438Z" fill="#E0E0E0"/>
<path d="M74.6958 119.839C75.1987 119.839 75.6064 119.431 75.6064 118.928C75.6064 118.425 75.1987 118.018 74.6958 118.018C74.1928 118.018 73.7852 118.425 73.7852 118.928C73.7852 119.431 74.1928 119.839 74.6958 119.839Z" fill="#F1EFFA"/>
<path d="M79.0278 75.6855C79.0212 75.8959 78.9326 76.0954 78.781 76.2414C78.6294 76.3874 78.4268 76.4684 78.2163 76.4671C78.1149 76.4711 78.0137 76.455 77.9184 76.4199C77.8232 76.3848 77.7358 76.3312 77.6613 76.2622C77.5868 76.1933 77.5266 76.1103 77.4842 76.0181C77.4417 75.9259 77.4179 75.8262 77.4141 75.7247V75.7063C77.4207 75.4957 77.5091 75.296 77.6607 75.1496C77.8122 75.0033 78.0149 74.9218 78.2255 74.9225C78.327 74.9185 78.4282 74.9345 78.5235 74.9696C78.6187 75.0048 78.7061 75.0584 78.7806 75.1273C78.8551 75.1963 78.9153 75.2792 78.9577 75.3714C79.0001 75.4637 79.0239 75.5633 79.0278 75.6648V75.6855Z" fill="#2E353A"/>
<path d="M79.8993 74.4762C79.7955 74.5777 79.2077 74.1005 78.3339 74.0659C77.4602 74.0313 76.8101 74.4417 76.7202 74.331C76.6764 74.2826 76.7871 74.1005 77.0706 73.9045C77.4585 73.6596 77.9126 73.5404 78.3708 73.5633C78.8226 73.5821 79.2568 73.7435 79.6111 74.0244C79.8716 74.2365 79.9546 74.4278 79.8993 74.4762Z" fill="#2E353A"/>
<path d="M70.5708 75.6895C70.5636 75.9 70.4745 76.0995 70.3226 76.2454C70.1706 76.3914 69.9677 76.4723 69.757 76.471C69.5525 76.4784 69.3534 76.4045 69.2034 76.2653C69.0535 76.1261 68.9648 75.9331 68.957 75.7286V75.7102C68.9636 75.5 69.0518 75.3007 69.2028 75.1544C69.3539 75.008 69.5559 74.9263 69.7662 74.9264C69.9713 74.9183 70.1712 74.9919 70.3221 75.1311C70.4729 75.2703 70.5624 75.4636 70.5708 75.6687V75.6895Z" fill="#2E353A"/>
<path d="M71.3554 74.4781C71.2517 74.5796 70.6638 74.1024 69.7901 74.0678C68.9164 74.0332 68.2663 74.4435 68.1764 74.3329C68.1326 74.2845 68.2409 74.1024 68.5268 73.9064C68.914 73.6618 69.3673 73.5426 69.8247 73.5652C70.2772 73.5836 70.7123 73.7451 71.0673 74.0263C71.3324 74.2384 71.4154 74.4297 71.3554 74.4781Z" fill="#2E353A"/>
<path d="M71.4699 70.9508C71.3731 71.1813 70.5109 71.0361 69.485 71.1168C68.4591 71.1975 67.6246 71.4395 67.5001 71.2251C67.4425 71.1191 67.5969 70.9047 67.9381 70.6903C68.3929 70.4282 68.9014 70.2732 69.4251 70.2368C69.9487 70.2005 70.4738 70.2838 70.9604 70.4805C71.3293 70.6465 71.5114 70.8402 71.4699 70.9508Z" fill="#2E353A"/>
<path d="M79.664 71.5749C79.5049 71.7662 78.9147 71.538 78.1931 71.4965C77.4716 71.455 76.8607 71.5749 76.7293 71.3628C76.6716 71.2591 76.7754 71.0677 77.0497 70.8902C77.4167 70.6816 77.8372 70.5865 78.2582 70.6169C78.6792 70.6472 79.0818 70.8017 79.415 71.0608C79.664 71.2752 79.7285 71.4827 79.664 71.5749Z" fill="#2E353A"/>
<path d="M36.4536 13.1834C37.5481 12.3179 38.899 11.8403 40.2943 11.8256C43.1875 11.8256 45.2439 13.2088 46.5718 15.7332C46.6015 15.8005 46.6499 15.8579 46.7111 15.8987C46.7724 15.9396 46.844 15.9621 46.9176 15.9637C48.8098 16.1501 50.5677 17.0246 51.8579 18.4212C53.5431 20.2378 54.1748 22.391 53.6399 24.8185C53.1604 26.9902 51.8349 28.5555 49.9168 29.6367C49.8544 29.6667 49.8024 29.7149 49.7679 29.775C49.7333 29.8351 49.7177 29.9042 49.7232 29.9733C49.7019 30.6745 49.6302 31.3733 49.5088 32.0642C48.6489 35.8427 44.7874 38.3878 40.979 37.7238C40.2009 37.5889 39.4462 37.3428 38.7382 36.993C36.4882 39.6396 33.6296 40.8476 30.1946 40.4741C26.7596 40.1007 24.2238 38.2725 22.6676 35.1303L22.3772 35.1972C20.9283 35.5638 19.4071 35.5295 17.9763 35.0981C14.4399 33.9892 12.289 31.587 11.5882 27.9515C11.1547 25.6388 11.6412 23.2482 12.9442 21.289C14.2472 19.3298 16.2637 17.9567 18.5641 17.4622C18.6506 17.4522 18.7314 17.4137 18.7936 17.3528C18.8558 17.2918 18.8959 17.2119 18.9076 17.1256C19.3902 15.284 20.4512 13.646 21.9345 12.4527C23.87 10.8703 26.3098 10.0365 28.8088 10.1033C31.3079 10.1702 33.6996 11.1333 35.5476 12.8169C35.7551 13.0059 35.9257 13.2342 36.1193 13.4486C36.2646 13.3379 36.3568 13.2549 36.4536 13.1834ZM17.8333 34.2543C19.3995 34.7853 21.0929 34.8111 22.6746 34.3281C23.0457 34.2174 23.184 34.2797 23.3293 34.6116C24.5511 37.4241 26.7112 39.1024 29.6943 39.6281C32.7328 40.1629 35.4024 39.3214 37.5994 37.1129C37.8169 36.8816 38.0224 36.6392 38.2149 36.3867C38.4708 36.0663 38.5953 36.0294 38.9572 36.2254C40.0786 36.8371 41.3501 37.1192 42.625 37.0392C46.3274 36.8455 49.2667 33.4705 48.944 29.7773C48.9071 29.337 48.944 29.2886 49.3405 29.0857C51.058 28.1912 52.2752 26.8611 52.7985 24.9822C53.5362 22.391 52.5541 19.7122 50.3226 18.1007C49.2286 17.3 47.9327 16.8209 46.581 16.7175C46.4453 16.7161 46.3134 16.6728 46.2032 16.5935C46.0931 16.5143 46.01 16.4031 45.9655 16.2749C45.2554 14.7119 44.1212 13.5569 42.5074 12.9714C40.3151 12.1806 38.3209 12.6048 36.5481 14.101C36.1332 14.4514 36.0248 14.4468 35.6629 14.048C33.5673 11.7426 30.9346 10.719 27.8524 10.9127C26.552 10.9713 25.2794 11.309 24.1211 11.9029C22.9628 12.4968 21.9458 13.3329 21.1392 14.3546C20.359 15.32 19.8151 16.4544 19.5508 17.6673C19.4701 18.027 19.4033 18.0915 19.0483 18.1515C17.3003 18.4542 15.697 19.3134 14.4769 20.6012C13.2569 21.8889 12.4854 23.5363 12.2775 25.298C12.236 25.6484 12.2198 25.9896 12.206 26.181C12.2337 29.9779 14.4537 33.1155 17.8333 34.2543Z" fill="#263238"/>
<path d="M38.6816 42.7094C39.7236 40.6646 42.5615 40.1021 44.3596 41.5867C45.9157 42.8685 46.0564 45.0701 44.6731 46.4694C44.0952 47.0468 43.3473 47.4235 42.5394 47.5442C41.7315 47.665 40.9061 47.5234 40.1846 47.1403C39.6348 46.8623 39.172 46.4385 38.8468 45.9152C38.5215 45.392 38.3463 44.7894 38.3404 44.1733C38.331 43.6646 38.4482 43.1615 38.6816 42.7094ZM40.5258 46.4441C41.1047 46.7552 41.7684 46.8712 42.4184 46.7748C43.0685 46.6784 43.67 46.3749 44.1337 45.9092C45.2702 44.7381 45.0236 42.8984 43.6058 41.9901C42.9965 41.6097 42.2726 41.4562 41.5613 41.5565C40.8501 41.6569 40.1969 42.0047 39.7167 42.5388C39.28 43.0584 39.0612 43.7266 39.1057 44.4038C39.138 45.213 39.6544 45.9507 40.5258 46.4441Z" fill="#263238"/>
<path d="M48.4975 53.1607C47.7878 53.1719 47.1025 52.9022 46.5909 52.4104C46.0792 51.9185 45.7826 51.2445 45.7656 50.5349C45.7656 49.0595 46.9898 47.8999 48.5459 47.8999C48.9005 47.888 49.2539 47.9478 49.5849 48.0759C49.9158 48.204 50.2174 48.3976 50.4716 48.6452C50.7258 48.8928 50.9274 49.1893 51.0641 49.5167C51.2008 49.8442 51.2699 50.1959 51.2673 50.5508C51.2647 50.9056 51.1903 51.2563 51.0487 51.5816C50.9071 51.907 50.7012 52.2004 50.4433 52.4442C50.1855 52.688 49.881 52.8771 49.5482 53.0003C49.2154 53.1234 48.8611 53.178 48.5067 53.1607H48.4975ZM46.5264 50.5372C46.5057 50.9304 46.6032 51.3207 46.8063 51.6579C47.0093 51.9951 47.3088 52.2638 47.6659 52.4293C48.0231 52.5948 48.4216 52.6496 48.8102 52.5866C49.1988 52.5236 49.5596 52.3457 49.8462 52.0758C50.1327 51.8059 50.3319 51.4564 50.418 51.0722C50.5042 50.6881 50.4733 50.287 50.3295 49.9206C50.1856 49.5542 49.9353 49.2392 49.6109 49.0163C49.2864 48.7934 48.9026 48.6728 48.509 48.6699C48.2559 48.6613 48.0037 48.7029 47.7668 48.7923C47.5299 48.8816 47.313 49.017 47.1287 49.1906C46.9444 49.3642 46.7963 49.5726 46.6929 49.8037C46.5895 50.0348 46.5329 50.2841 46.5264 50.5372Z" fill="#263238"/>
</svg>
