<svg width="460" height="34" viewBox="0 0 460 34" fill="none" xmlns="http://www.w3.org/2000/svg">
<path d="M0.0880001 5.064H6.2V25H9.112V5.064H15.192V2.696H0.0880001V5.064ZM35.4165 16.2C35.4165 10.664 31.5445 7.176 26.5525 7.176C21.5925 7.176 17.6885 10.664 17.6885 16.2C17.6885 21.768 21.4645 25.288 26.4245 25.288C31.4165 25.288 35.4165 21.768 35.4165 16.2ZM20.6645 16.2C20.6645 11.784 23.4485 9.704 26.5205 9.704C29.5285 9.704 32.4405 11.784 32.4405 16.2C32.4405 20.648 29.4645 22.728 26.4245 22.728C23.3845 22.728 20.6645 20.648 20.6645 16.2ZM42.1573 10.696V7.464H39.2453V33.32H42.1573V21.768C43.2453 23.56 45.5173 25.288 48.7173 25.288C53.4213 25.288 57.0373 21.608 57.0373 16.168C57.0373 10.696 53.4213 7.176 48.7173 7.176C45.5173 7.176 43.2133 8.84 42.1573 10.696ZM54.0613 16.168C54.0613 20.296 51.3413 22.728 48.1093 22.728C44.9413 22.728 42.1573 20.328 42.1573 16.2C42.1573 12.136 44.9413 9.704 48.1093 9.704C51.3413 9.704 54.0613 12.04 54.0613 16.168ZM84.9535 7.464H82.0415V17.096C82.0415 20.872 80.0255 22.728 77.0175 22.728C74.0735 22.728 72.1215 20.904 72.1215 17.352V7.464H69.2415V17.736C69.2415 22.76 72.4095 25.256 76.4415 25.256C78.7775 25.256 80.9215 24.232 82.0415 22.408V25H84.9535V7.464ZM92.7823 10.696V7.464H89.8703V33.32H92.7823V21.768C93.8703 23.56 96.1423 25.288 99.3423 25.288C104.046 25.288 107.662 21.608 107.662 16.168C107.662 10.696 104.046 7.176 99.3423 7.176C96.1423 7.176 93.8383 8.84 92.7823 10.696ZM104.686 16.168C104.686 20.296 101.966 22.728 98.7343 22.728C95.5663 22.728 92.7823 20.328 92.7823 16.2C92.7823 12.136 95.5663 9.704 98.7343 9.704C101.966 9.704 104.686 12.04 104.686 16.168ZM133.467 7.464C133.627 4.488 131.483 2.248 127.963 2.248C124.347 2.248 122.075 4.36 122.075 7.208C122.075 8.84 122.619 10.088 123.995 11.688C120.507 13.064 118.747 15.528 118.747 18.6C118.747 22.728 121.915 25.384 126.555 25.384C129.691 25.384 132.091 24.296 134.235 22.056L137.147 25H140.955L135.931 19.976C136.378 19.336 136.795 18.696 137.211 17.96L139.835 13.416H136.699L134.523 17.064C134.331 17.384 134.139 17.672 133.947 17.96L127.291 11.272C125.723 9.608 124.987 8.52 124.987 7.208C124.987 5.736 126.107 4.648 127.835 4.648C129.403 4.648 130.619 5.64 130.555 7.464H133.467ZM126.555 22.888C123.643 22.888 121.659 21 121.659 18.504C121.659 16.264 122.971 14.6 125.755 13.544L132.315 20.136C130.651 21.992 128.859 22.888 126.555 22.888ZM156.726 25.032L159.958 25L165.334 7.048L170.518 25H173.782L180.246 2.696H177.11L172.214 21.544L167.094 2.696H163.83L158.454 21.608L153.59 2.696H150.486L156.726 25.032ZM183.433 25H186.345V7.464H183.433V25ZM184.937 4.616C185.993 4.616 186.857 3.752 186.857 2.632C186.857 1.512 185.993 0.647999 184.937 0.647999C183.817 0.647999 182.953 1.512 182.953 2.632C182.953 3.752 183.817 4.616 184.937 4.616ZM191.948 20.2C191.948 23.72 193.708 25 196.812 25H199.436V22.536H197.292C195.5 22.536 194.86 21.928 194.86 20.2V9.864H199.436V7.464H194.86V3.048H191.948V7.464H189.676V9.864H191.948V20.2ZM202.964 25H205.876V15.304C205.876 11.528 207.924 9.672 210.9 9.672C213.844 9.672 215.796 11.496 215.796 15.08V25H218.676V14.664C218.676 9.64 215.572 7.144 211.668 7.144C209.204 7.144 207.028 8.136 205.876 9.992V1.32H202.964V25ZM222.345 16.168C222.345 21.608 225.961 25.288 230.665 25.288C233.865 25.288 236.137 23.656 237.193 21.704V25H240.137V1.32H237.193V10.6C235.977 8.584 233.449 7.176 230.697 7.176C225.961 7.176 222.345 10.696 222.345 16.168ZM237.193 16.2C237.193 20.328 234.441 22.728 231.241 22.728C228.041 22.728 225.321 20.296 225.321 16.168C225.321 12.04 228.041 9.704 231.241 9.704C234.441 9.704 237.193 12.136 237.193 16.2ZM247.97 15.464C247.97 11.4 250.082 10.152 252.866 10.152H253.634V7.144C250.85 7.144 248.962 8.36 247.97 10.312V7.464H245.058V25H247.97V15.464ZM255.907 16.168C255.907 21.608 259.523 25.288 264.195 25.288C267.427 25.288 269.699 23.624 270.755 21.736V25H273.699V7.464H270.755V10.664C269.731 8.84 267.491 7.176 264.227 7.176C259.523 7.176 255.907 10.696 255.907 16.168ZM270.755 16.2C270.755 20.328 268.003 22.728 264.803 22.728C261.603 22.728 258.883 20.296 258.883 16.168C258.883 12.04 261.603 9.704 264.803 9.704C268.003 9.704 270.755 12.136 270.755 16.2ZM282.044 25H285.052L289.276 11.08L293.5 25H296.508L301.98 7.464H299.1L295.132 22.216L290.876 7.464H287.9L283.548 22.184L279.516 7.464H276.54L282.044 25ZM313.946 25H316.858V9.864H320.538V7.464H316.858V6.216C316.858 3.944 317.722 2.984 320.345 2.984V0.551998C315.866 0.551998 313.946 2.312 313.946 6.216V7.464H311.674V9.864H313.946V25ZM326.845 15.464C326.845 11.4 328.957 10.152 331.741 10.152H332.509V7.144C329.725 7.144 327.837 8.36 326.845 10.312V7.464H323.933V25H326.845V15.464ZM352.51 16.2C352.51 10.664 348.638 7.176 343.646 7.176C338.686 7.176 334.782 10.664 334.782 16.2C334.782 21.768 338.558 25.288 343.518 25.288C348.51 25.288 352.51 21.768 352.51 16.2ZM337.758 16.2C337.758 11.784 340.542 9.704 343.614 9.704C346.622 9.704 349.534 11.784 349.534 16.2C349.534 20.648 346.558 22.728 343.518 22.728C340.478 22.728 337.758 20.648 337.758 16.2ZM381.651 25H384.531V14.664C384.531 9.64 381.427 7.144 377.427 7.144C374.739 7.144 372.243 8.52 371.219 11.048C370.067 8.424 367.667 7.144 364.787 7.144C362.483 7.144 360.403 8.136 359.251 9.992V7.464H356.339V25H359.251V15.336C359.251 11.56 361.267 9.672 364.211 9.672C367.091 9.672 369.011 11.496 369.011 15.08V25H371.891V15.336C371.891 11.56 373.907 9.672 376.851 9.672C379.731 9.672 381.651 11.496 381.651 15.08V25ZM412.815 25H415.887L407.855 2.824H404.495L396.431 25H399.503L401.295 20.04H411.023L412.815 25ZM410.191 17.672H402.127L406.159 6.408L410.191 17.672ZM418.026 5.064H424.138V25H427.05V5.064H433.13V2.696H418.026V5.064ZM436.714 25H439.626V8.456L447.018 25H449.066L456.426 8.488V25H459.338V2.856H456.234L448.042 21.16L439.85 2.856H436.714V25Z" fill="#0F001A"/>
</svg>
