<svg width="188" height="63" viewBox="0 0 188 63" fill="none" xmlns="http://www.w3.org/2000/svg">
<path d="M27.8838 15.9941H29.1318L25.8688 6.98514H24.5038L21.2278 15.9941H22.4758L23.2038 13.9791H27.1558L27.8838 15.9941ZM26.8178 13.0171H23.5418L25.1798 8.44114L26.8178 13.0171ZM30.7806 15.9941H31.9636V9.84514H33.4586V8.87014H31.9636V8.36314C31.9636 7.44014 32.3146 7.05014 33.3806 7.05014V6.06214C31.5606 6.06214 30.7806 6.77714 30.7806 8.36314V8.87014H29.8576V9.84514H30.7806V15.9941ZM35.0979 14.0441C35.0979 15.4741 35.8129 15.9941 37.0739 15.9941H38.1399V14.9931H37.2689C36.5409 14.9931 36.2809 14.7461 36.2809 14.0441V9.84514H38.1399V8.87014H36.2809V7.07614H35.0979V8.87014H34.1749V9.84514H35.0979V14.0441ZM42.6023 9.75414C43.8243 9.75414 44.8643 10.5211 44.8513 11.9121H40.3533C40.4833 10.5211 41.4453 9.75414 42.6023 9.75414ZM45.9303 13.7971H44.6563C44.3963 14.5641 43.7203 15.1101 42.6543 15.1101C41.4453 15.1101 40.4313 14.3171 40.3403 12.8741H46.0343C46.0603 12.6271 46.0733 12.4191 46.0733 12.1591C46.0733 10.2091 44.7213 8.75314 42.6543 8.75314C40.5743 8.75314 39.1313 10.1701 39.1313 12.4191C39.1313 14.6811 40.6263 16.1111 42.6543 16.1111C44.4223 16.1111 45.5663 15.0971 45.9303 13.7971ZM48.8178 12.1201C48.8178 10.4691 49.6758 9.96214 50.8068 9.96214H51.1188V8.74014C49.9878 8.74014 49.2208 9.23414 48.8178 10.0271V8.87014H47.6348V15.9941H48.8178V12.1201ZM58.9792 9.75414C60.2012 9.75414 61.2412 10.5211 61.2282 11.9121H56.7302C56.8602 10.5211 57.8222 9.75414 58.9792 9.75414ZM62.3072 13.7971H61.0332C60.7732 14.5641 60.0972 15.1101 59.0312 15.1101C57.8222 15.1101 56.8082 14.3171 56.7172 12.8741H62.4112C62.4372 12.6271 62.4502 12.4191 62.4502 12.1591C62.4502 10.2091 61.0982 8.75314 59.0312 8.75314C56.9512 8.75314 55.5082 10.1701 55.5082 12.4191C55.5082 14.6811 57.0032 16.1111 59.0312 16.1111C60.7992 16.1111 61.9432 15.0971 62.3072 13.7971ZM69.2247 15.9941H70.3947V11.7951C70.3947 9.75414 69.1337 8.74014 67.4827 8.74014C66.5207 8.74014 65.6627 9.14314 65.1947 9.88414V8.87014H64.0117V15.9941H65.1947V12.0551C65.1947 10.5211 66.0267 9.76714 67.2357 9.76714C68.4317 9.76714 69.2247 10.5081 69.2247 11.9641V15.9941ZM72.5872 14.0441C72.5872 15.4741 73.3022 15.9941 74.5632 15.9941H75.6292V14.9931H74.7582C74.0302 14.9931 73.7702 14.7461 73.7702 14.0441V9.84514H75.6292V8.87014H73.7702V7.07614H72.5872V8.87014H71.6642V9.84514H72.5872V14.0441ZM80.0915 9.75414C81.3135 9.75414 82.3535 10.5211 82.3405 11.9121H77.8425C77.9725 10.5211 78.9345 9.75414 80.0915 9.75414ZM83.4195 13.7971H82.1455C81.8855 14.5641 81.2095 15.1101 80.1435 15.1101C78.9345 15.1101 77.9205 14.3171 77.8295 12.8741H83.5235C83.5495 12.6271 83.5625 12.4191 83.5625 12.1591C83.5625 10.2091 82.2105 8.75314 80.1435 8.75314C78.0635 8.75314 76.6205 10.1701 76.6205 12.4191C76.6205 14.6811 78.1155 16.1111 80.1435 16.1111C81.9115 16.1111 83.0555 15.0971 83.4195 13.7971ZM86.307 12.1201C86.307 10.4691 87.165 9.96214 88.296 9.96214H88.608V8.74014C87.477 8.74014 86.71 9.23414 86.307 10.0271V8.87014H85.124V15.9941H86.307V12.1201ZM89.9737 15.9941H91.1567V8.87014H89.9737V15.9941ZM90.5847 7.71314C91.0137 7.71314 91.3647 7.36214 91.3647 6.90714C91.3647 6.45214 91.0137 6.10114 90.5847 6.10114C90.1297 6.10114 89.7787 6.45214 89.7787 6.90714C89.7787 7.36214 90.1297 7.71314 90.5847 7.71314ZM98.3859 15.9941H99.5559V11.7951C99.5559 9.75414 98.2949 8.74014 96.6439 8.74014C95.6819 8.74014 94.8239 9.14314 94.3559 9.88414V8.87014H93.1729V15.9941H94.3559V12.0551C94.3559 10.5211 95.1879 9.76714 96.3969 9.76714C97.5929 9.76714 98.3859 10.5081 98.3859 11.9641V15.9941ZM101.046 12.4061C101.046 14.6161 102.515 16.1111 104.426 16.1111C105.726 16.1111 106.649 15.4221 107.078 14.6551V16.1501C107.078 17.6711 106.129 18.4771 104.868 18.4771C103.698 18.4771 102.853 17.8921 102.593 17.0341H101.423C101.657 18.5551 102.996 19.5041 104.868 19.5041C106.961 19.5041 108.274 18.1131 108.274 16.1501V8.87014H107.078V10.1701C106.662 9.40314 105.726 8.75314 104.426 8.75314C102.515 8.75314 101.046 10.1831 101.046 12.4061ZM107.078 12.4191C107.078 14.0961 105.96 15.0711 104.66 15.0711C103.36 15.0711 102.255 14.0831 102.255 12.4061C102.255 10.7291 103.36 9.78014 104.66 9.78014C105.96 9.78014 107.078 10.7681 107.078 12.4191ZM113.999 14.0441C113.999 15.4741 114.714 15.9941 115.975 15.9941H117.041V14.9931H116.17C115.442 14.9931 115.182 14.7461 115.182 14.0441V9.84514H117.041V8.87014H115.182V7.07614H113.999V8.87014H113.076V9.84514H113.999V14.0441ZM118.475 15.9941H119.658V12.0551C119.658 10.5211 120.49 9.76714 121.699 9.76714C122.895 9.76714 123.688 10.5081 123.688 11.9641V15.9941H124.858V11.7951C124.858 9.75414 123.597 8.74014 122.011 8.74014C121.01 8.74014 120.126 9.14314 119.658 9.89714V6.37414H118.475V15.9941ZM129.819 9.75414C131.041 9.75414 132.081 10.5211 132.068 11.9121H127.57C127.7 10.5211 128.662 9.75414 129.819 9.75414ZM133.147 13.7971H131.873C131.613 14.5641 130.937 15.1101 129.871 15.1101C128.662 15.1101 127.648 14.3171 127.557 12.8741H133.251C133.277 12.6271 133.29 12.4191 133.29 12.1591C133.29 10.2091 131.938 8.75314 129.871 8.75314C127.791 8.75314 126.348 10.1701 126.348 12.4191C126.348 14.6811 127.843 16.1111 129.871 16.1111C131.639 16.1111 132.783 15.0971 133.147 13.7971ZM139.5 12.1201C139.5 10.4691 140.358 9.96214 141.489 9.96214H141.801V8.74014C140.67 8.74014 139.903 9.23414 139.5 10.0271V8.87014H138.317V15.9941H139.5V12.1201ZM143.167 15.9941H144.35V8.87014H143.167V15.9941ZM143.778 7.71314C144.207 7.71314 144.558 7.36214 144.558 6.90714C144.558 6.45214 144.207 6.10114 143.778 6.10114C143.323 6.10114 142.972 6.45214 142.972 6.90714C142.972 7.36214 143.323 7.71314 143.778 7.71314ZM145.924 12.4061C145.924 14.6161 147.393 16.1111 149.304 16.1111C150.604 16.1111 151.527 15.4221 151.956 14.6551V16.1501C151.956 17.6711 151.007 18.4771 149.746 18.4771C148.576 18.4771 147.731 17.8921 147.471 17.0341H146.301C146.535 18.5551 147.874 19.5041 149.746 19.5041C151.839 19.5041 153.152 18.1131 153.152 16.1501V8.87014H151.956V10.1701C151.54 9.40314 150.604 8.75314 149.304 8.75314C147.393 8.75314 145.924 10.1831 145.924 12.4061ZM151.956 12.4191C151.956 14.0961 150.838 15.0711 149.538 15.0711C148.238 15.0711 147.133 14.0831 147.133 12.4061C147.133 10.7291 148.238 9.78014 149.538 9.78014C150.838 9.78014 151.956 10.7681 151.956 12.4191ZM155.151 15.9941H156.334V12.0551C156.334 10.5211 157.166 9.76714 158.375 9.76714C159.571 9.76714 160.364 10.5081 160.364 11.9641V15.9941H161.534V11.7951C161.534 9.75414 160.273 8.74014 158.687 8.74014C157.686 8.74014 156.802 9.14314 156.334 9.89714V6.37414H155.151V15.9941ZM163.727 14.0441C163.727 15.4741 164.442 15.9941 165.703 15.9941H166.769V14.9931H165.898C165.17 14.9931 164.91 14.7461 164.91 14.0441V9.84514H166.769V8.87014H164.91V7.07614H163.727V8.87014H162.804V9.84514H163.727V14.0441ZM25.8877 35.9941H27.0707V28.8701H25.8877V35.9941ZM26.4987 27.7131C26.9277 27.7131 27.2787 27.3621 27.2787 26.9071C27.2787 26.4521 26.9277 26.1011 26.4987 26.1011C26.0437 26.1011 25.6927 26.4521 25.6927 26.9071C25.6927 27.3621 26.0437 27.7131 26.4987 27.7131ZM34.2999 35.9941H35.4699V31.7951C35.4699 29.7541 34.2089 28.7401 32.5579 28.7401C31.5959 28.7401 30.7379 29.1431 30.2699 29.8841V28.8701H29.0869V35.9941H30.2699V32.0551C30.2699 30.5211 31.1019 29.7671 32.3109 29.7671C33.5069 29.7671 34.2999 30.5081 34.2999 31.9641V35.9941ZM37.6234 35.9941H38.8064V29.8451H40.3014V28.8701H38.8064V28.3631C38.8064 27.4401 39.1574 27.0501 40.2234 27.0501V26.0621C38.4034 26.0621 37.6234 26.7771 37.6234 28.3631V28.8701H36.7004V29.8451H37.6234V35.9941ZM48.4407 32.4191C48.4407 30.1701 46.8677 28.7531 44.8397 28.7531C42.8247 28.7531 41.2387 30.1701 41.2387 32.4191C41.2387 34.6811 42.7727 36.1111 44.7877 36.1111C46.8157 36.1111 48.4407 34.6811 48.4407 32.4191ZM42.4477 32.4191C42.4477 30.6251 43.5787 29.7801 44.8267 29.7801C46.0487 29.7801 47.2317 30.6251 47.2317 32.4191C47.2317 34.2261 46.0227 35.0711 44.7877 35.0711C43.5527 35.0711 42.4477 34.2261 42.4477 32.4191ZM51.1791 32.1201C51.1791 30.4691 52.0371 29.9621 53.1681 29.9621H53.4801V28.7401C52.3491 28.7401 51.5821 29.2341 51.1791 30.0271V28.8701H49.9961V35.9941H51.1791V32.1201ZM65.1287 35.9941H66.2987V31.7951C66.2987 29.7541 65.0377 28.7401 63.4127 28.7401C62.3207 28.7401 61.3067 29.2991 60.8907 30.3261C60.4227 29.2601 59.4477 28.7401 58.2777 28.7401C57.3417 28.7401 56.4967 29.1431 56.0287 29.8971V28.8701H54.8457V35.9941H56.0287V32.0681C56.0287 30.5341 56.8477 29.7671 58.0437 29.7671C59.2137 29.7671 59.9937 30.5081 59.9937 31.9641V35.9941H61.1637V32.0681C61.1637 30.5341 61.9827 29.7671 63.1787 29.7671C64.3487 29.7671 65.1287 30.5081 65.1287 31.9641V35.9941ZM67.7973 32.4061C67.7973 34.6161 69.2663 36.1111 71.1643 36.1111C72.4773 36.1111 73.4003 35.4351 73.8293 34.6681V35.9941H75.0253V28.8701H73.8293V30.1701C73.4133 29.4291 72.5033 28.7531 71.1773 28.7531C69.2663 28.7531 67.7973 30.1831 67.7973 32.4061ZM73.8293 32.4191C73.8293 34.0961 72.7113 35.0711 71.4113 35.0711C70.1113 35.0711 69.0063 34.0831 69.0063 32.4061C69.0063 30.7291 70.1113 29.7801 71.4113 29.7801C72.7113 29.7801 73.8293 30.7681 73.8293 32.4191ZM77.2844 34.0441C77.2844 35.4741 77.9994 35.9941 79.2604 35.9941H80.3264V34.9931H79.4554C78.7274 34.9931 78.4674 34.7461 78.4674 34.0441V29.8451H80.3264V28.8701H78.4674V27.0761H77.2844V28.8701H76.3614V29.8451H77.2844V34.0441ZM81.7598 35.9941H82.9428V28.8701H81.7598V35.9941ZM82.3708 27.7131C82.7998 27.7131 83.1508 27.3621 83.1508 26.9071C83.1508 26.4521 82.7998 26.1011 82.3708 26.1011C81.9158 26.1011 81.5648 26.4521 81.5648 26.9071C81.5648 27.3621 81.9158 27.7131 82.3708 27.7131ZM91.719 32.4191C91.719 30.1701 90.146 28.7531 88.118 28.7531C86.103 28.7531 84.517 30.1701 84.517 32.4191C84.517 34.6811 86.051 36.1111 88.066 36.1111C90.094 36.1111 91.719 34.6811 91.719 32.4191ZM85.726 32.4191C85.726 30.6251 86.857 29.7801 88.105 29.7801C89.327 29.7801 90.51 30.6251 90.51 32.4191C90.51 34.2261 89.301 35.0711 88.066 35.0711C86.831 35.0711 85.726 34.2261 85.726 32.4191ZM98.4874 35.9941H99.6574V31.7951C99.6574 29.7541 98.3964 28.7401 96.7454 28.7401C95.7834 28.7401 94.9254 29.1431 94.4574 29.8841V28.8701H93.2744V35.9941H94.4574V32.0551C94.4574 30.5211 95.2894 29.7671 96.4984 29.7671C97.6944 29.7671 98.4874 30.5081 98.4874 31.9641V35.9941ZM100.563 37.8531H101.356L102.812 34.3561H101.512L100.563 37.8531ZM113.951 28.8701H112.768V32.7831C112.768 34.3171 111.949 35.0711 110.727 35.0711C109.531 35.0711 108.738 34.3301 108.738 32.8871V28.8701H107.568V33.0431C107.568 35.0841 108.855 36.0981 110.493 36.0981C111.442 36.0981 112.313 35.6821 112.768 34.9411V35.9941H113.951V28.8701ZM121.07 34.0571C121.018 31.5091 116.884 32.4321 116.884 30.7421C116.884 30.1701 117.404 29.7541 118.275 29.7541C119.224 29.7541 119.77 30.2741 119.822 30.9891H121.005C120.927 29.5981 119.887 28.7531 118.314 28.7531C116.728 28.7531 115.701 29.6501 115.701 30.7421C115.701 33.3941 119.913 32.4711 119.913 34.0571C119.913 34.6421 119.393 35.1101 118.457 35.1101C117.456 35.1101 116.845 34.5901 116.78 33.9011H115.558C115.636 35.2011 116.806 36.1111 118.47 36.1111C120.043 36.1111 121.07 35.2271 121.07 34.0571ZM125.769 29.7541C126.991 29.7541 128.031 30.5211 128.018 31.9121H123.52C123.65 30.5211 124.612 29.7541 125.769 29.7541ZM129.097 33.7971H127.823C127.563 34.5641 126.887 35.1101 125.821 35.1101C124.612 35.1101 123.598 34.3171 123.507 32.8741H129.201C129.227 32.6271 129.24 32.4191 129.24 32.1591C129.24 30.2091 127.888 28.7531 125.821 28.7531C123.741 28.7531 122.298 30.1701 122.298 32.4191C122.298 34.6811 123.793 36.1111 125.821 36.1111C127.589 36.1111 128.733 35.0971 129.097 33.7971ZM131.985 32.1201C131.985 30.4691 132.843 29.9621 133.974 29.9621H134.286V28.7401C133.155 28.7401 132.388 29.2341 131.985 30.0271V28.8701H130.802V35.9941H131.985V32.1201ZM138.675 32.4191C138.675 34.6811 140.118 36.1111 142.146 36.1111C143.914 36.1111 145.071 35.1231 145.435 33.7061H144.161C143.901 34.6031 143.199 35.1101 142.146 35.1101C140.846 35.1101 139.884 34.1871 139.884 32.4191C139.884 30.6771 140.846 29.7541 142.146 29.7541C143.199 29.7541 143.914 30.3001 144.161 31.1581H145.435C145.071 29.6631 143.914 28.7531 142.146 28.7531C140.118 28.7531 138.675 30.1831 138.675 32.4191ZM146.572 32.4061C146.572 34.6161 148.041 36.1111 149.939 36.1111C151.252 36.1111 152.175 35.4351 152.604 34.6681V35.9941H153.8V28.8701H152.604V30.1701C152.188 29.4291 151.278 28.7531 149.952 28.7531C148.041 28.7531 146.572 30.1831 146.572 32.4061ZM152.604 32.4191C152.604 34.0961 151.486 35.0711 150.186 35.0711C148.886 35.0711 147.781 34.0831 147.781 32.4061C147.781 30.7291 148.886 29.7801 150.186 29.7801C151.486 29.7801 152.604 30.7681 152.604 32.4191ZM161.012 35.9941H162.182V31.7951C162.182 29.7541 160.921 28.7401 159.27 28.7401C158.308 28.7401 157.45 29.1431 156.982 29.8841V28.8701H155.799V35.9941H156.982V32.0551C156.982 30.5211 157.814 29.7671 159.023 29.7671C160.219 29.7671 161.012 30.5081 161.012 31.9641V35.9941ZM29.6654 55.9941H30.8874L32.6034 50.3391L34.3194 55.9941H35.5414L37.7644 48.8701H36.5944L34.9824 54.8631L33.2534 48.8701H32.0444L30.2764 54.8501L28.6384 48.8701H27.4294L29.6654 55.9941ZM38.9385 55.9941H40.1215V48.8701H38.9385V55.9941ZM39.5495 47.7131C39.9785 47.7131 40.3295 47.3621 40.3295 46.9071C40.3295 46.4521 39.9785 46.1011 39.5495 46.1011C39.0945 46.1011 38.7435 46.4521 38.7435 46.9071C38.7435 47.3621 39.0945 47.7131 39.5495 47.7131ZM42.3977 54.0441C42.3977 55.4741 43.1127 55.9941 44.3737 55.9941H45.4397V54.9931H44.5687C43.8407 54.9931 43.5807 54.7461 43.5807 54.0441V49.8451H45.4397V48.8701H43.5807V47.0761H42.3977V48.8701H41.4747V49.8451H42.3977V54.0441ZM46.8731 55.9941H48.0561V52.0551C48.0561 50.5211 48.8881 49.7671 50.0971 49.7671C51.2931 49.7671 52.0861 50.5081 52.0861 51.9641V55.9941H53.2561V51.7951C53.2561 49.7541 51.9951 48.7401 50.4091 48.7401C49.4081 48.7401 48.5241 49.1431 48.0561 49.8971V46.3741H46.8731V55.9941ZM54.7465 52.4061C54.7465 54.6161 56.2155 56.1111 58.1265 56.1111C59.4265 56.1111 60.3495 55.4481 60.7785 54.6551V55.9941H61.9745V46.3741H60.7785V50.1441C60.2845 49.3251 59.2575 48.7531 58.1395 48.7531C56.2155 48.7531 54.7465 50.1831 54.7465 52.4061ZM60.7785 52.4191C60.7785 54.0961 59.6605 55.0711 58.3605 55.0711C57.0605 55.0711 55.9555 54.0831 55.9555 52.4061C55.9555 50.7291 57.0605 49.7801 58.3605 49.7801C59.6605 49.7801 60.7785 50.7681 60.7785 52.4191ZM65.1567 52.1201C65.1567 50.4691 66.0147 49.9621 67.1457 49.9621H67.4577V48.7401C66.3267 48.7401 65.5597 49.2341 65.1567 50.0271V48.8701H63.9737V55.9941H65.1567V52.1201ZM68.3813 52.4061C68.3813 54.6161 69.8503 56.1111 71.7483 56.1111C73.0613 56.1111 73.9843 55.4351 74.4133 54.6681V55.9941H75.6093V48.8701H74.4133V50.1701C73.9973 49.4291 73.0873 48.7531 71.7613 48.7531C69.8503 48.7531 68.3813 50.1831 68.3813 52.4061ZM74.4133 52.4191C74.4133 54.0961 73.2953 55.0711 71.9953 55.0711C70.6953 55.0711 69.5903 54.0831 69.5903 52.4061C69.5903 50.7291 70.6953 49.7801 71.9953 49.7801C73.2953 49.7801 74.4133 50.7681 74.4133 52.4191ZM78.9994 55.9941H80.2214L81.9374 50.3391L83.6534 55.9941H84.8754L87.0984 48.8701H85.9284L84.3164 54.8631L82.5874 48.8701H81.3784L79.6104 54.8501L77.9724 48.8701H76.7634L78.9994 55.9941ZM91.9983 54.0441C91.9983 55.4741 92.7133 55.9941 93.9743 55.9941H95.0403V54.9931H94.1693C93.4413 54.9931 93.1813 54.7461 93.1813 54.0441V49.8451H95.0403V48.8701H93.1813V47.0761H91.9983V48.8701H91.0753V49.8451H91.9983V54.0441ZM96.4737 55.9941H97.6567V52.0551C97.6567 50.5211 98.4887 49.7671 99.6977 49.7671C100.894 49.7671 101.687 50.5081 101.687 51.9641V55.9941H102.857V51.7951C102.857 49.7541 101.596 48.7401 100.01 48.7401C99.0087 48.7401 98.1247 49.1431 97.6567 49.8971V46.3741H96.4737V55.9941ZM107.818 49.7541C109.04 49.7541 110.08 50.5211 110.067 51.9121H105.569C105.699 50.5211 106.661 49.7541 107.818 49.7541ZM111.146 53.7971H109.872C109.612 54.5641 108.936 55.1101 107.87 55.1101C106.661 55.1101 105.647 54.3171 105.556 52.8741H111.25C111.276 52.6271 111.289 52.4191 111.289 52.1591C111.289 50.2091 109.937 48.7531 107.87 48.7531C105.79 48.7531 104.347 50.1701 104.347 52.4191C104.347 54.6811 105.842 56.1111 107.87 56.1111C109.638 56.1111 110.782 55.0971 111.146 53.7971ZM126.599 55.9941H127.769V51.7951C127.769 49.7541 126.508 48.7401 124.883 48.7401C123.791 48.7401 122.777 49.2991 122.361 50.3261C121.893 49.2601 120.918 48.7401 119.748 48.7401C118.812 48.7401 117.967 49.1431 117.499 49.8971V48.8701H116.316V55.9941H117.499V52.0681C117.499 50.5341 118.318 49.7671 119.514 49.7671C120.684 49.7671 121.464 50.5081 121.464 51.9641V55.9941H122.634V52.0681C122.634 50.5341 123.453 49.7671 124.649 49.7671C125.819 49.7671 126.599 50.5081 126.599 51.9641V55.9941ZM136.47 52.4191C136.47 50.1701 134.897 48.7531 132.869 48.7531C130.854 48.7531 129.268 50.1701 129.268 52.4191C129.268 54.6811 130.802 56.1111 132.817 56.1111C134.845 56.1111 136.47 54.6811 136.47 52.4191ZM130.477 52.4191C130.477 50.6251 131.608 49.7801 132.856 49.7801C134.078 49.7801 135.261 50.6251 135.261 52.4191C135.261 54.2261 134.052 55.0711 132.817 55.0711C131.582 55.0711 130.477 54.2261 130.477 52.4191ZM143.238 55.9941H144.408V51.7951C144.408 49.7541 143.147 48.7401 141.496 48.7401C140.534 48.7401 139.676 49.1431 139.208 49.8841V48.8701H138.025V55.9941H139.208V52.0551C139.208 50.5211 140.04 49.7671 141.249 49.7671C142.445 49.7671 143.238 50.5081 143.238 51.9641V55.9941ZM149.37 49.7541C150.592 49.7541 151.632 50.5211 151.619 51.9121H147.121C147.251 50.5211 148.213 49.7541 149.37 49.7541ZM152.698 53.7971H151.424C151.164 54.5641 150.488 55.1101 149.422 55.1101C148.213 55.1101 147.199 54.3171 147.108 52.8741H152.802C152.828 52.6271 152.841 52.4191 152.841 52.1591C152.841 50.2091 151.489 48.7531 149.422 48.7531C147.342 48.7531 145.899 50.1701 145.899 52.4191C145.899 54.6811 147.394 56.1111 149.422 56.1111C151.19 56.1111 152.334 55.0971 152.698 53.7971ZM157.106 54.6421L154.87 48.8701H153.557L156.43 55.9161L155.026 59.3481H156.248L160.538 48.8701H159.316L157.106 54.6421Z" fill="#494B52"/>
</svg>
