<svg width="220" height="186" viewBox="0 0 220 186" fill="none" xmlns="http://www.w3.org/2000/svg">
<path d="M14.17 41.3589C30.1229 22.1 38.7126 40.1301 63.6657 13.4942C88.6187 -13.1418 109.3 22.817 131.577 6.52742C161.03 -15.016 199.48 22.3444 199.48 38.0807C199.48 70.8465 211.777 76.6007 216.662 88.4847C227.105 113.894 209.707 117.17 209.707 138.891C209.707 167.574 174.53 185.719 174.53 185.719H40.8428C-10.2898 170.043 -4.64163 130.285 10.9033 102.418C26.4482 74.5512 -1.78533 60.62 14.17 41.3589Z" fill="#F1EFFA"/>
<path d="M198.894 185.505H13.2468C13.1337 185.505 13.0252 185.46 12.9452 185.38C12.8652 185.3 12.8203 185.192 12.8203 185.079C12.8203 184.966 12.8652 184.857 12.9452 184.777C13.0252 184.697 13.1337 184.652 13.2468 184.652H198.894C199.007 184.652 199.115 184.697 199.195 184.777C199.275 184.857 199.32 184.966 199.32 185.079C199.32 185.192 199.275 185.3 199.195 185.38C199.115 185.46 199.007 185.505 198.894 185.505Z" fill="#36256D"/>
<path d="M161.407 128.536C180.301 128.536 195.618 113.219 195.618 94.3246C195.618 75.4302 180.301 60.1133 161.407 60.1133C142.512 60.1133 127.195 75.4302 127.195 94.3246C127.195 113.219 142.512 128.536 161.407 128.536Z" fill="#6654A4"/>
<path d="M138.075 81.3516C138.075 81.3516 141.777 84.5468 142.584 88.2676C143.665 93.2587 138.52 100.816 138.803 106.969C139.131 114.078 143.001 117.149 145.357 121.861C148.082 127.311 147.893 130.893 147.893 132.758C147.903 133.842 147.667 134.915 147.202 135.894H172.768C172.768 135.894 167.728 143.545 157.838 149.703C149.744 154.742 145.521 163.323 145.521 163.323H109.691L122.601 141.901C122.601 141.901 120.266 130.605 121.645 122.456C124.127 107.692 138.075 81.3516 138.075 81.3516Z" fill="#EBB389"/>
<path opacity="0.65" d="M147.319 135.816C147.319 135.816 145.959 138.352 144.366 140.93C142.773 143.507 141.781 144.906 141.781 144.906C141.781 144.906 145.541 143.89 147.946 142.122C150.354 140.346 152.511 138.252 154.357 135.897L147.319 135.816Z" fill="#DC894B"/>
<path d="M182.852 28.1866L183.961 26.1602L185.07 28.1866C186.178 30.2136 187.845 31.8802 189.872 32.9886L191.898 34.0975L189.872 35.2063C187.845 36.3154 186.179 37.9818 185.07 40.0084L183.961 42.0348L182.852 40.0084C181.744 37.9784 180.078 36.3087 178.05 35.1971L176.023 34.0882L178.05 32.9794C180.075 31.8728 181.741 30.2097 182.852 28.1866Z" fill="#6654A4"/>
<path d="M162.667 35.5318L163.128 34.6719L163.59 35.5318C164.059 36.3917 164.765 37.0983 165.625 37.5674L166.485 38.04L165.625 38.501C164.766 38.9717 164.059 39.679 163.59 40.539L163.128 41.3989L162.667 40.539C162.197 39.6789 161.49 38.9716 160.629 38.501L159.77 38.04L160.629 37.5674C161.49 37.0984 162.197 36.3917 162.667 35.5318Z" fill="#6654A4"/>
<path d="M192.065 58.9063L192.28 58.5098L192.496 58.9063C192.713 59.3019 193.039 59.6268 193.435 59.8423L193.831 60.059L193.435 60.2757C193.038 60.4921 192.713 60.8177 192.496 61.2139L192.28 61.6105L192.065 61.2139C191.848 60.8182 191.523 60.4927 191.127 60.2757L190.73 60.059L191.127 59.8423C191.522 59.6254 191.847 59.3008 192.065 58.9063Z" fill="#6654A4"/>
<path d="M194.654 43.1727L195.048 42.4512L195.442 43.1727C195.838 43.8939 196.432 44.4872 197.153 44.8833L197.874 45.2775L197.153 45.6717C196.431 46.0672 195.838 46.6607 195.442 47.3823L195.048 48.1039L194.654 47.3823C194.259 46.6601 193.665 46.0665 192.943 45.6717L192.222 45.2775L192.943 44.8833C193.665 44.4879 194.258 43.8944 194.654 43.1727Z" fill="#6654A4"/>
<path d="M181.22 44H141.593C138.977 44 136.855 46.121 136.855 48.7375V131.073C136.855 133.689 138.977 135.81 141.593 135.81H181.22C183.836 135.81 185.957 133.689 185.957 131.073V48.7375C185.957 46.121 183.836 44 181.22 44Z" fill="black"/>
<path d="M171.974 47.2682V48.52C171.974 49.0091 171.779 49.4782 171.433 49.8241C171.088 50.1699 170.618 50.3643 170.129 50.3643H152.694C152.205 50.3643 151.736 50.1699 151.39 49.8241C151.044 49.4782 150.85 49.0091 150.85 48.52V47.2682C150.849 47.1082 150.785 46.9549 150.672 46.8418C150.559 46.7286 150.406 46.6648 150.246 46.6642H143.035C142.605 46.6645 142.18 46.7494 141.783 46.9141C141.386 47.0787 141.026 47.32 140.722 47.6239C140.419 47.9279 140.178 48.2887 140.014 48.6857C139.85 49.0827 139.765 49.5082 139.766 49.9378V129.869C139.765 130.298 139.849 130.724 140.013 131.121C140.177 131.518 140.418 131.879 140.721 132.183C141.025 132.487 141.386 132.728 141.783 132.893C142.179 133.058 142.605 133.142 143.035 133.142H179.803C180.232 133.142 180.658 133.058 181.055 132.893C181.452 132.728 181.813 132.487 182.116 132.183C182.42 131.879 182.661 131.518 182.825 131.121C182.99 130.724 183.074 130.298 183.074 129.869V49.9378C183.074 49.07 182.729 48.2377 182.116 47.6238C181.502 47.01 180.67 46.6648 179.803 46.6642H172.591C172.511 46.6626 172.431 46.6771 172.356 46.7068C172.282 46.7364 172.214 46.7806 172.156 46.8368C172.099 46.893 172.053 46.9601 172.021 47.0342C171.99 47.1082 171.974 47.1878 171.974 47.2682Z" fill="white"/>
<path d="M184.223 124.01H138.933V133.448H184.223V124.01Z" fill="black"/>
<path d="M162.079 132.733C163.973 132.733 165.507 131.196 165.507 129.3C165.507 127.404 163.973 125.867 162.079 125.867C160.186 125.867 158.651 127.404 158.651 129.3C158.651 131.196 160.186 132.733 162.079 132.733Z" fill="#545454"/>
<path d="M164.65 129.3C164.651 129.638 164.585 129.973 164.456 130.285C164.327 130.598 164.138 130.882 163.899 131.121C163.66 131.36 163.377 131.55 163.064 131.679C162.752 131.809 162.418 131.875 162.08 131.875C161.397 131.875 160.743 131.604 160.26 131.122C159.778 130.639 159.507 129.985 159.507 129.303C159.506 128.964 159.571 128.629 159.7 128.315C159.829 128.002 160.018 127.717 160.257 127.478C160.496 127.238 160.78 127.047 161.093 126.917C161.406 126.788 161.741 126.721 162.08 126.721C162.417 126.721 162.752 126.787 163.064 126.917C163.376 127.046 163.659 127.235 163.898 127.474C164.137 127.713 164.326 127.997 164.455 128.309C164.584 128.621 164.65 128.956 164.65 129.293V129.3Z" fill="#737373"/>
<path d="M154.692 47.3594H165.262C165.414 47.3594 165.559 47.4196 165.666 47.5268C165.774 47.634 165.834 47.7795 165.834 47.9311C165.834 48.0827 165.774 48.2281 165.666 48.3354C165.559 48.4426 165.414 48.5028 165.262 48.5028H154.692C154.54 48.5028 154.395 48.4427 154.287 48.3355C154.18 48.2284 154.119 48.0829 154.118 47.9311C154.119 47.7793 154.18 47.6338 154.287 47.5267C154.395 47.4195 154.54 47.3594 154.692 47.3594Z" fill="#A4A5A4"/>
<path d="M168.693 47.9318C168.693 48.1593 168.602 48.3774 168.442 48.5382C168.281 48.699 168.063 48.7894 167.835 48.7894C167.608 48.7894 167.39 48.699 167.229 48.5382C167.068 48.3774 166.978 48.1593 166.978 47.9318C166.977 47.8191 166.999 47.7075 167.042 47.6033C167.085 47.4991 167.148 47.4044 167.228 47.3247C167.308 47.245 167.402 47.1819 167.507 47.1389C167.611 47.0959 167.722 47.0739 167.835 47.0742C167.948 47.0742 168.059 47.0964 168.163 47.1395C168.267 47.1826 168.362 47.2458 168.442 47.3254C168.521 47.405 168.584 47.4996 168.627 47.6036C168.671 47.7077 168.693 47.8192 168.693 47.9318Z" fill="#A4A5A4"/>
<path d="M153.862 75.9074C154.002 76.1007 154.074 76.335 154.067 76.5736C154.075 76.737 154.043 76.8999 153.975 77.0486C153.907 77.1973 153.804 77.3277 153.676 77.4289C153.362 77.6506 152.982 77.7595 152.599 77.7378H151.034C150.933 77.7432 150.834 77.7083 150.759 77.641C150.724 77.6052 150.697 77.5625 150.68 77.5157C150.662 77.4688 150.655 77.4189 150.658 77.3689V73.8326C150.655 73.7827 150.663 73.7328 150.68 73.686C150.698 73.6392 150.725 73.5965 150.759 73.5605C150.834 73.4932 150.933 73.4583 151.034 73.4637H152.539C152.91 73.4423 153.278 73.5462 153.583 73.7588C153.785 73.9275 153.916 74.1647 153.953 74.4247C153.99 74.6846 153.93 74.9491 153.784 75.1673C153.661 75.337 153.489 75.4643 153.291 75.5316C153.518 75.5877 153.72 75.7204 153.862 75.9074ZM151.423 75.2642H152.412C152.949 75.2642 153.217 75.0644 153.217 74.6648C153.223 74.5793 153.208 74.4937 153.174 74.4153C153.139 74.3369 153.086 74.2682 153.019 74.2152C152.836 74.1057 152.624 74.055 152.412 74.07H151.423V75.2642ZM153.131 76.9793C153.2 76.922 153.253 76.8492 153.287 76.7669C153.321 76.6847 153.335 76.5955 153.327 76.5068C153.334 76.4169 153.319 76.3268 153.285 76.2435C153.251 76.1603 153.197 76.0862 153.129 76.0272C152.947 75.9087 152.73 75.8536 152.514 75.8705H151.423V77.1315H152.514C152.731 77.1494 152.948 77.0959 153.131 76.9793Z" fill="black"/>
<path d="M156.934 75.0056C157.15 75.2619 157.258 75.593 157.233 75.9278V77.4078C157.236 77.4552 157.228 77.5025 157.212 77.5469C157.195 77.5913 157.169 77.6318 157.136 77.666C157.1 77.6982 157.058 77.7229 157.012 77.7388C156.966 77.7546 156.918 77.7612 156.869 77.7582C156.822 77.7599 156.775 77.7522 156.73 77.7355C156.686 77.7189 156.645 77.6937 156.611 77.6614C156.578 77.6284 156.552 77.5888 156.535 77.5451C156.517 77.5014 156.51 77.4547 156.512 77.4078V77.2741C156.445 77.4285 156.332 77.5577 156.187 77.643C156.032 77.7344 155.855 77.7807 155.675 77.7767C155.488 77.7796 155.303 77.7385 155.135 77.6568C154.981 77.5809 154.849 77.4656 154.753 77.3225C154.663 77.1855 154.615 77.0253 154.614 76.8615C154.604 76.6747 154.663 76.4907 154.78 76.345C154.929 76.2 155.119 76.1049 155.325 76.073C155.666 76.0076 156.013 75.979 156.36 75.9877H156.512V75.8494C156.526 75.6941 156.481 75.5392 156.385 75.416C156.33 75.3655 156.264 75.3272 156.193 75.3034C156.122 75.2796 156.047 75.2708 155.972 75.2777C155.851 75.2785 155.731 75.2964 155.615 75.3307C155.493 75.3653 155.35 75.4137 155.184 75.4782C155.113 75.5198 155.035 75.5465 154.953 75.5566C154.92 75.5572 154.887 75.5506 154.856 75.537C154.825 75.5235 154.798 75.5034 154.776 75.4782C154.726 75.4218 154.701 75.3482 154.704 75.2731C154.703 75.2091 154.722 75.1463 154.757 75.0932C154.804 75.0334 154.863 74.9845 154.93 74.9503C155.09 74.8677 155.26 74.8065 155.435 74.7682C155.625 74.7248 155.819 74.7023 156.014 74.7013C156.18 74.6879 156.347 74.7079 156.505 74.7601C156.663 74.8124 156.809 74.8959 156.934 75.0056ZM156.32 77.0367C156.451 76.8943 156.52 76.7062 156.512 76.5133V76.3866H156.403C156.192 76.3829 155.981 76.3945 155.772 76.4211C155.655 76.4319 155.543 76.4768 155.451 76.5502C155.419 76.5821 155.393 76.6205 155.376 76.6631C155.359 76.7056 155.352 76.7513 155.354 76.7969C155.352 76.857 155.363 76.9169 155.387 76.9723C155.41 77.0277 155.446 77.0773 155.491 77.1173C155.583 77.2002 155.703 77.244 155.827 77.2395C155.919 77.2432 156.011 77.2269 156.097 77.1919C156.182 77.1569 156.259 77.104 156.323 77.0367H156.32Z" fill="black"/>
<path d="M158.115 77.6803C158.078 77.646 158.05 77.604 158.031 77.5573C158.013 77.5107 158.005 77.4606 158.009 77.4106V73.7912C158.005 73.7415 158.013 73.6917 158.031 73.6454C158.05 73.5991 158.078 73.5575 158.115 73.5238C158.191 73.4623 158.287 73.4303 158.384 73.4339C158.483 73.4304 158.579 73.4623 158.656 73.5238C158.694 73.5569 158.724 73.5982 158.743 73.6446C158.762 73.691 158.77 73.7411 158.767 73.7912V77.4106C158.77 77.461 158.762 77.5114 158.743 77.5581C158.724 77.6049 158.694 77.6466 158.656 77.6803C158.58 77.7442 158.484 77.7779 158.384 77.7748C158.286 77.7779 158.19 77.7442 158.115 77.6803Z" fill="black"/>
<path d="M161.75 75.0056C161.967 75.2619 162.074 75.593 162.05 75.9278V77.4078C162.052 77.4552 162.045 77.5025 162.028 77.5469C162.011 77.5913 161.986 77.6318 161.953 77.666C161.917 77.6982 161.874 77.7229 161.828 77.7388C161.783 77.7546 161.734 77.7612 161.686 77.7582C161.639 77.7601 161.592 77.7525 161.548 77.7358C161.504 77.7192 161.464 77.6939 161.43 77.6614C161.396 77.6285 161.37 77.5889 161.352 77.5453C161.335 77.5016 161.327 77.4548 161.328 77.4078V77.2741C161.262 77.4285 161.148 77.5577 161.003 77.643C160.848 77.7344 160.671 77.7807 160.491 77.7767C160.305 77.7796 160.12 77.7385 159.952 77.6568C159.797 77.5809 159.665 77.4656 159.569 77.3225C159.479 77.1855 159.431 77.0253 159.431 76.8615C159.42 76.6747 159.48 76.4907 159.597 76.345C159.746 76.2005 159.936 76.1055 160.141 76.073C160.482 76.0076 160.829 75.979 161.176 75.9877H161.328V75.8494C161.342 75.6941 161.297 75.5392 161.201 75.416C161.146 75.3654 161.081 75.327 161.01 75.3032C160.939 75.2793 160.863 75.2707 160.789 75.2777C160.668 75.2787 160.547 75.2965 160.431 75.3307C160.309 75.3653 160.166 75.4137 160 75.4782C159.93 75.5202 159.851 75.5469 159.77 75.5566C159.736 75.5572 159.703 75.5506 159.672 75.537C159.642 75.5235 159.614 75.5034 159.592 75.4782C159.543 75.4214 159.519 75.3478 159.523 75.2731C159.521 75.2093 159.539 75.1466 159.574 75.0932C159.62 75.0334 159.679 74.9845 159.747 74.9503C159.906 74.8677 160.076 74.8065 160.252 74.7682C160.441 74.7248 160.635 74.7023 160.83 74.7013C160.996 74.6879 161.163 74.7079 161.321 74.7601C161.479 74.8124 161.625 74.8959 161.75 75.0056ZM161.137 77.0367C161.202 76.9665 161.252 76.8841 161.285 76.7942C161.318 76.7044 161.333 76.6089 161.328 76.5133V76.3866H161.22C161.009 76.3829 160.798 76.3945 160.588 76.4211C160.471 76.4319 160.36 76.4768 160.268 76.5502C160.235 76.5821 160.209 76.6205 160.193 76.6631C160.176 76.7056 160.168 76.7513 160.171 76.7969C160.169 76.857 160.18 76.9167 160.204 76.972C160.227 77.0273 160.262 77.0769 160.307 77.1173C160.399 77.1998 160.52 77.2435 160.643 77.2395C160.735 77.2431 160.827 77.2269 160.912 77.1919C160.997 77.1569 161.074 77.1039 161.137 77.0367Z" fill="black"/>
<path d="M165.337 75.0038C165.531 75.2703 165.624 75.5973 165.598 75.9259V77.4175C165.601 77.4666 165.593 77.5158 165.575 77.5618C165.558 77.6079 165.531 77.6498 165.496 77.6849C165.421 77.7522 165.323 77.7871 165.222 77.7817C165.12 77.7875 165.02 77.7527 164.943 77.6849C164.908 77.6502 164.88 77.6085 164.863 77.5624C164.845 77.5162 164.837 77.4669 164.839 77.4175V75.9697C164.854 75.7914 164.808 75.6133 164.708 75.4648C164.657 75.4117 164.595 75.3703 164.527 75.3436C164.458 75.3169 164.385 75.3056 164.312 75.3104C164.214 75.3057 164.117 75.3216 164.027 75.3569C163.936 75.3923 163.854 75.4463 163.786 75.5156C163.65 75.6669 163.58 75.8658 163.59 76.0688V77.4198C163.593 77.4692 163.585 77.5186 163.567 77.5647C163.549 77.6108 163.522 77.6525 163.486 77.6872C163.409 77.7546 163.309 77.7893 163.207 77.784C163.157 77.7872 163.107 77.7802 163.06 77.7636C163.013 77.747 162.97 77.721 162.933 77.6872C162.898 77.6521 162.872 77.6102 162.854 77.5641C162.837 77.5181 162.829 77.4689 162.832 77.4198V75.0637C162.83 75.0165 162.838 74.9694 162.856 74.9257C162.874 74.882 162.901 74.8426 162.935 74.8101C163.012 74.7427 163.112 74.708 163.214 74.7133C163.261 74.7112 163.308 74.7185 163.353 74.7347C163.397 74.7509 163.438 74.7758 163.472 74.8078C163.506 74.839 163.532 74.877 163.549 74.9192C163.566 74.9613 163.574 75.0067 163.572 75.0522V75.2159C163.67 75.0539 163.81 74.9216 163.977 74.8332C164.156 74.7428 164.354 74.697 164.554 74.6995C164.699 74.6898 164.844 74.712 164.979 74.7646C165.115 74.8172 165.237 74.8988 165.337 75.0038Z" fill="black"/>
<path d="M166.902 77.5995C166.681 77.4755 166.501 77.2897 166.383 77.0647C166.259 76.8143 166.197 76.5374 166.204 76.2578C166.198 75.975 166.263 75.6952 166.393 75.444C166.515 75.2131 166.702 75.0225 166.93 74.8954C167.174 74.7627 167.448 74.6952 167.725 74.6994C167.886 74.7003 168.045 74.7228 168.2 74.7663C168.348 74.8073 168.49 74.8686 168.622 74.9484C168.68 74.9806 168.728 75.0273 168.762 75.0839C168.796 75.1406 168.814 75.2051 168.816 75.2711C168.819 75.3479 168.797 75.4236 168.751 75.4855C168.732 75.5118 168.707 75.5332 168.678 75.5476C168.649 75.5621 168.617 75.5693 168.585 75.5685C168.537 75.5672 168.49 75.5563 168.447 75.5362C168.397 75.5162 168.348 75.4923 168.301 75.4648C168.22 75.4158 168.134 75.3742 168.046 75.3403C167.956 75.3084 167.862 75.2928 167.767 75.2942C167.658 75.2881 167.549 75.3072 167.449 75.3499C167.348 75.3927 167.259 75.458 167.188 75.5409C167.056 75.7515 166.985 75.9952 166.985 76.244C166.985 76.4928 167.056 76.7365 167.188 76.9471C167.259 77.0296 167.348 77.0946 167.449 77.137C167.549 77.1794 167.658 77.198 167.767 77.1915C167.858 77.1935 167.95 77.1786 168.036 77.1477C168.127 77.1121 168.216 77.0706 168.301 77.0232C168.352 76.9917 168.404 76.9639 168.458 76.9402C168.501 76.9222 168.546 76.9128 168.592 76.9125C168.624 76.9132 168.655 76.9212 168.684 76.936C168.712 76.9508 168.737 76.9719 168.756 76.9978C168.801 77.0592 168.824 77.1338 168.822 77.2099C168.824 77.2729 168.808 77.3351 168.776 77.3897C168.739 77.4467 168.689 77.4935 168.629 77.5257C168.493 77.6109 168.346 77.6754 168.191 77.7171C168.025 77.7633 167.854 77.7866 167.681 77.7863C167.41 77.7918 167.142 77.7275 166.902 77.5995Z" fill="black"/>
<path d="M171.839 77.0048C171.885 77.0656 171.908 77.1408 171.903 77.2169C171.898 77.2858 171.874 77.3518 171.833 77.4076C171.792 77.4634 171.737 77.5068 171.673 77.5327C171.527 77.6129 171.372 77.6748 171.212 77.7172C171.049 77.7618 170.882 77.785 170.714 77.7863C170.507 77.7973 170.3 77.7665 170.105 77.6956C169.91 77.6246 169.731 77.5152 169.58 77.3737C169.437 77.2241 169.326 77.047 169.254 76.8531C169.183 76.6592 169.151 76.4528 169.162 76.2463C169.157 75.9666 169.219 75.6897 169.344 75.4395C169.46 75.2133 169.637 75.0246 169.856 74.8954C170.084 74.7638 170.343 74.6961 170.605 74.6995C170.848 74.6948 171.087 74.7562 171.297 74.877C171.496 74.9937 171.656 75.166 171.758 75.3726C171.873 75.6086 171.929 75.8688 171.922 76.1311C171.922 76.3063 171.846 76.3916 171.691 76.3916H169.905C169.905 76.6177 169.987 76.8361 170.135 77.0071C170.214 77.077 170.306 77.1305 170.406 77.1645C170.505 77.1986 170.611 77.2125 170.716 77.2054C170.832 77.2075 170.948 77.1911 171.06 77.157C171.174 77.118 171.286 77.0734 171.396 77.0232C171.477 76.9722 171.569 76.9392 171.664 76.9264C171.697 76.9236 171.731 76.9293 171.761 76.943C171.792 76.9567 171.819 76.978 171.839 77.0048ZM170.131 75.428C169.992 75.582 169.911 75.7789 169.9 75.9858H171.269C171.276 75.7836 171.211 75.5855 171.087 75.4256C171.028 75.3627 170.957 75.3131 170.877 75.2801C170.798 75.2471 170.712 75.2315 170.626 75.2343C170.535 75.2295 170.443 75.2443 170.357 75.2777C170.272 75.3111 170.195 75.3623 170.131 75.428Z" fill="black"/>
<path d="M176.845 82.1719H145.499C144.93 82.1719 144.469 82.6332 144.469 83.2024V93.8669C144.469 94.436 144.93 94.8974 145.499 94.8974H176.845C177.414 94.8974 177.876 94.436 177.876 93.8669V83.2024C177.876 82.6332 177.414 82.1719 176.845 82.1719Z" fill="#E0E0E0"/>
<path d="M50.4289 67.6586C45.6499 73.173 49.4168 79.0562 41.3758 84.1095C33.3348 89.1628 33.3071 99.5553 37.3 101.63C41.2928 103.705 42.9688 102.248 46.277 108.91C49.5851 115.573 69.8168 108.463 73.9526 103.272C78.0884 98.0799 75.1468 96.6091 78.455 94.5873C81.7631 92.5655 82.1297 87.6943 77.5328 85.857C72.936 84.0196 74.2246 71.3333 70.4116 67.5226C66.5986 63.7118 63.8414 63.894 63.8414 63.894C63.8414 63.894 55.194 62.1465 50.4289 67.6586Z" fill="#5E2E0D"/>
<path opacity="0.6" d="M52.2711 82.1441C50.7335 87.1882 47.038 95.2615 52.5916 104.536C56.8057 107.59 67.8921 105.878 66.4905 94.5192C66.3199 93.136 67.2766 91.8427 68.51 91.0612C71.8066 88.9518 72.4291 86.8539 72.8901 83.3037C73.1944 80.9269 72.8417 76.4545 72.383 74.1031C71.3986 69.0313 53.7489 67.7334 51.7686 76.2009C51.2753 78.2757 53.1495 79.214 52.2711 82.1441Z" fill="#5E2E0D"/>
<path d="M70.1289 122.391C70.1289 122.391 77.7066 144.142 81.1946 144.414C83.3316 144.58 85.8513 142.554 85.8513 137.224C85.8513 131.894 78.1307 116.086 78.1307 116.086L70.1289 122.391Z" fill="#EBB389"/>
<path d="M71.9668 126.103C82.8019 124.999 82.2602 123.161 82.2602 123.161C82.2602 123.161 80.953 110.961 77.1146 107.121C74.7638 104.795 71.8974 103.058 68.7485 102.049C68.7485 102.049 61.1247 127.205 71.9668 126.103Z" fill="#F05665"/>
<path d="M71.9686 126.103C74.0665 125.888 75.7379 125.642 77.0704 125.4C76.7914 120.233 73.9904 107.121 73.9904 107.121C73.5777 103.799 70.0022 102.427 68.7596 102.049H68.748C68.748 102.049 61.1243 127.205 71.9686 126.103Z" fill="#CF3A48"/>
<path d="M80.5983 144.165C88.5079 149.283 102.942 115.152 103.795 114.622C104.099 114.433 98.5108 111.636 97.6117 113.303C96.7126 114.97 86.6844 125.777 83.9571 129.369C81.2299 132.961 76.8475 141.735 80.5983 144.165Z" fill="#EBB389"/>
<path d="M41.1809 140.348C41.1809 140.348 30.4288 148.432 30.0623 160.289C29.6957 172.145 30.1245 185.025 30.1245 185.025L71.2012 185.129C71.2012 185.129 70.7701 171.961 70.0347 162.767C69.2993 153.573 65.0712 141.355 65.0712 141.355L41.1809 140.348Z" fill="#6654A4"/>
<path opacity="0.4" d="M29.9521 165.255C33.7356 165.381 37.5231 165.244 41.2876 164.845C58.5892 163.148 56.9293 157.809 56.9293 157.809L32.1445 151.746C30.8885 154.427 30.183 157.332 30.0697 160.29C30.0098 161.936 29.9752 163.605 29.9521 165.255Z" fill="#6654A4"/>
<path opacity="0.4" d="M41.1806 140.348C38.981 142.114 37.0177 144.155 35.3389 146.422C40.4314 148.29 59.2245 146.003 65.7302 143.368C65.3314 142.104 65.0709 141.357 65.0709 141.357L41.1806 140.348Z" fill="#6654A4"/>
<path d="M51.582 185.079H52.4143L54.5167 163.21C57.1517 162.138 61.6011 158.962 61.7947 158.83C61.8904 158.755 61.9563 158.648 61.9808 158.528C62.0053 158.409 61.9867 158.285 61.9284 158.178C61.9051 158.126 61.8708 158.081 61.8279 158.044C61.7849 158.008 61.7345 157.981 61.6801 157.966C61.6257 157.952 61.5687 157.949 61.5132 157.959C61.4577 157.969 61.405 157.991 61.359 158.023C61.3129 158.06 56.5016 161.481 54.0073 162.403L53.7536 162.498L51.582 185.079Z" fill="#45258F"/>
<path d="M68.3382 101.933L52.2008 100.299C52.2008 100.299 43.5258 99.9577 39.7105 103.771C35.8951 107.584 37.0017 137.911 40.1715 141.08C43.3414 144.25 64.403 145.521 67.6466 142.277C69.1889 140.735 75.1828 124.814 75.1828 120.314C75.1828 115.814 73.9886 107.123 73.9886 107.123C73.4814 103.093 68.3382 101.933 68.3382 101.933Z" fill="#F05665"/>
<path opacity="0.61" d="M37.2876 133.737C41.5501 134.728 46.0363 132.095 46.6034 130.147C47.5763 126.804 49.6234 115.354 48.1642 107.633C47.6201 104.761 46.5504 101.178 43.6342 101.494C42.1495 102.006 40.7525 102.737 39.7151 103.772C37.1193 106.363 36.2363 123.492 37.2876 133.737Z" fill="#BA2836"/>
<path d="M30.9117 117.729C30.9117 117.729 21.6119 139.95 23.0251 142.857C23.9656 144.784 27.7534 144.134 31.9445 140.84C36.1356 137.545 43.7939 121.705 43.7939 121.705L30.9117 117.729Z" fill="#EBB389"/>
<path d="M63.2578 128.932C63.2992 128.983 63.3501 129.025 63.4077 129.056L63.2578 128.932Z" fill="#CE3613"/>
<path d="M60.4062 126.563L63.2556 128.933C63.0942 128.723 63.1312 128.288 65.5449 127.884C67.3177 127.587 68.0807 127.28 67.9539 126.125C67.8272 124.97 62.0131 125.636 60.4062 126.563Z" fill="#EBB389"/>
<path d="M27.1223 118.111C25.6515 122.431 42.469 130.099 43.9398 125.043C44.9104 121.698 47.5937 113.171 48.1655 107.635C48.4675 104.724 46.5518 101.181 43.6355 101.494C38.4254 102.052 28.5931 113.791 27.1223 118.111Z" fill="#F05665"/>
<path d="M56.2497 87.5078C56.2497 87.5078 56.5609 99.7261 54.6867 100.282C54.251 100.409 52.1992 100.302 52.1992 100.302C52.1992 100.302 55.8878 115.306 63.3709 112.733C70.8541 110.16 68.3343 101.935 68.3343 101.935C68.3343 101.935 65.7985 101.43 65.3005 99.5924C64.8026 97.7551 65.3005 89.714 65.3005 89.714L56.2497 87.5078Z" fill="#EBB389"/>
<path opacity="0.65" d="M65.1277 93.4187C65.1946 91.4085 65.3006 89.714 65.3006 89.714L56.2498 87.5078C56.2498 87.5078 56.2498 87.9251 56.2383 88.6098C56.2383 89.17 57.8175 91.8626 58.7534 92.3974C60.9758 93.6723 63.1705 93.9305 65.1277 93.4187Z" fill="#DC894B"/>
<path d="M53.1059 76.5024C51.1072 85.0483 53.8644 87.5288 58.7563 90.0809C63.6483 92.6329 68.4065 90.6987 70.8179 86.7035C73.2292 82.7084 72.1296 73.3325 72.1296 71.539C72.1296 69.7454 70.1286 68.3115 70.1286 68.3115C63.5122 64.7866 55.1047 67.9565 53.1059 76.5024Z" fill="#EBB389"/>
<path d="M48.9805 69.7495L51.2443 83.6046C51.6847 82.8738 57.7247 74.6437 58.1604 71.9234C60.0162 72.6473 72.3336 74.0836 72.3774 74.0928H73.0368C74.058 70.7846 72.3935 68.251 71.0334 66.8932C67.2203 63.0778 62.4137 62.4208 56.678 64.0622C54.4857 64.5717 52.1872 65.6183 50.4167 67.6586C49.8597 68.2985 49.3779 69 48.9805 69.7495Z" fill="#5E2E0D"/>
<path d="M53.2692 84.0304C50.9339 84.5768 50.3645 79.4889 52.4439 78.2256C54.5233 76.9623 54.5787 80.8422 54.5787 80.8422C54.5787 80.8422 55.6045 83.4841 53.2692 84.0304Z" fill="#EBB389"/>
<path d="M56.9328 157.811C56.7369 158.398 56.4925 160.529 50.5632 160.946C43.1723 161.465 29.4439 156.485 29.052 155.309C28.6601 154.134 28.2198 150.41 28.9044 149.039C29.5891 147.667 30.1793 146.934 33.0218 145.954C35.8643 144.974 52.14 148.585 53.5002 149.481C54.2172 149.942 55.1139 150.447 55.8055 151.123C57.5714 152.866 57.7397 155.441 56.9374 157.792C56.9346 157.798 56.933 157.804 56.9328 157.811Z" fill="#968AC2"/>
<path d="M50.5585 160.946H50.5746C51.0362 160.912 51.4812 160.759 51.8656 160.501C52.25 160.243 52.5606 159.889 52.767 159.475C53.3802 158.253 54.1502 155.035 54.1986 154.744C54.7312 151.872 52.8154 149.103 49.9914 148.389C44.6753 147.045 35.1334 145.226 33.0194 145.956C30.1792 146.934 29.5914 147.669 28.9044 149.041C28.2174 150.413 28.2843 154.283 29.0519 155.312C29.8196 156.34 43.1699 161.462 50.5585 160.946Z" fill="#CBC2EC"/>
<path d="M31.7822 149.138C31.7822 149.138 39.353 148.771 43.5395 149.725C47.726 150.68 51.2555 152.886 51.2555 152.886C41.9257 152.151 31.7822 149.138 31.7822 149.138Z" fill="#36256D"/>
<path d="M51.2584 152.885C51.2584 152.885 49.7899 152.814 49.398 152.777C46.4011 152.5 44.0335 152.346 40.1098 151.514C37.2892 150.891 34.5091 150.098 31.7852 149.137C38.4983 150.76 43.6324 151.908 51.2584 152.885Z" fill="#968AC2"/>
<path d="M44.2848 150.077C40.8844 149.192 35.3262 149.139 31.7852 149.139C33.4611 148.996 35.1464 148.945 36.8293 148.954C41.8803 148.982 44.3216 149.6 46.7699 150.568C48.3392 151.185 49.8429 151.957 51.2584 152.873C49.0481 151.678 46.7083 150.74 44.2848 150.077Z" fill="#968AC2"/>
<path d="M43.837 154.668C41.1447 154.369 38.4894 153.799 35.9113 152.967C33.0849 152.01 30.911 150.754 29.4425 149.23C29.4141 149.198 29.3984 149.157 29.3984 149.115C29.3984 149.072 29.4141 149.031 29.4425 149C29.4583 148.984 29.4772 148.971 29.4979 148.962C29.5187 148.954 29.541 148.949 29.5635 148.949C29.586 148.949 29.6083 148.954 29.629 148.962C29.6498 148.971 29.6687 148.984 29.6845 149C32.9281 152.365 39.1872 153.758 43.8693 154.334C47.0242 154.713 50.2025 154.861 53.3789 154.777C53.4241 154.775 53.4682 154.791 53.5015 154.822C53.5348 154.853 53.5545 154.895 53.5564 154.94C53.5582 154.986 53.542 155.03 53.5113 155.063C53.4806 155.096 53.4379 155.116 53.3927 155.118C53.3766 155.118 52.7702 155.146 51.7559 155.146C49.1092 155.143 46.4649 154.984 43.837 154.668Z" fill="#968AC2"/>
<path d="M44.1749 159.244C44.1531 159.235 44.1332 159.223 44.1163 159.206C44.0994 159.19 44.086 159.171 44.0767 159.149C44.0675 159.128 44.0627 159.105 44.0625 159.081C44.0623 159.058 44.0668 159.035 44.0758 159.013L45.7172 154.677C45.7252 154.656 45.7373 154.636 45.7528 154.62C45.7683 154.604 45.7868 154.591 45.8073 154.581C45.8279 154.572 45.8501 154.567 45.8726 154.566C45.8951 154.566 45.9175 154.57 45.9385 154.578C45.9596 154.586 45.9788 154.598 45.9952 154.613C46.0116 154.629 46.0247 154.647 46.0339 154.668C46.0431 154.688 46.0482 154.71 46.0488 154.733C46.0495 154.756 46.0457 154.778 46.0376 154.799L44.3963 159.135C44.3841 159.168 44.3624 159.196 44.334 159.215C44.3055 159.235 44.2718 159.246 44.2371 159.246C44.2165 159.25 44.1953 159.249 44.1749 159.244Z" fill="#968AC2"/>
<path d="M33.2884 156.408L32.7006 151.567C32.6977 151.545 32.6993 151.522 32.7053 151.5C32.7113 151.478 32.7215 151.458 32.7355 151.44C32.7494 151.422 32.7668 151.408 32.7865 151.397C32.8063 151.385 32.828 151.378 32.8505 151.376C32.8955 151.371 32.9406 151.384 32.9763 151.412C33.012 151.44 33.0355 151.481 33.0418 151.526L33.6296 156.367C33.6349 156.412 33.6221 156.458 33.594 156.493C33.566 156.529 33.5249 156.553 33.4798 156.558H33.459C33.417 156.559 33.3762 156.544 33.3447 156.517C33.3131 156.489 33.293 156.45 33.2884 156.408Z" fill="#968AC2"/>
<path d="M31.1413 149.246L31.2611 148.774C31.2638 148.763 31.2686 148.753 31.2753 148.744C31.282 148.735 31.2904 148.727 31.3 148.721C31.3097 148.715 31.3204 148.712 31.3315 148.71C31.3426 148.708 31.354 148.709 31.3649 148.712L32.4783 148.995C32.4894 148.998 32.4999 149.002 32.5091 149.009C32.5183 149.015 32.5261 149.024 32.5319 149.034C32.5377 149.043 32.5415 149.054 32.543 149.065C32.5445 149.077 32.5437 149.088 32.5406 149.099L32.4207 149.56C32.418 149.571 32.4132 149.581 32.4065 149.59C32.3998 149.599 32.3914 149.607 32.3818 149.613C32.3721 149.618 32.3614 149.622 32.3503 149.624C32.3392 149.626 32.3278 149.625 32.3169 149.622L31.2035 149.341C31.1836 149.335 31.1664 149.322 31.155 149.305C31.1436 149.288 31.1388 149.267 31.1413 149.246Z" fill="#6654A4"/>
<path d="M32.2392 149.131H32.1101C32.0892 149.131 32.0688 149.138 32.053 149.152C32.0372 149.165 32.0271 149.184 32.0248 149.205L31.7943 150.669C31.7936 150.674 31.794 150.679 31.7954 150.684C31.7969 150.689 31.7994 150.693 31.8026 150.697C31.8059 150.7 31.8099 150.703 31.8145 150.705C31.819 150.707 31.8239 150.708 31.8289 150.708H32.5343C32.5391 150.708 32.5441 150.707 32.5485 150.705C32.5529 150.703 32.5568 150.7 32.5599 150.697C32.563 150.693 32.5653 150.688 32.5664 150.684C32.5675 150.679 32.5676 150.674 32.5666 150.669L32.336 149.205C32.3326 149.183 32.3206 149.163 32.3025 149.149C32.2845 149.135 32.2618 149.129 32.2392 149.131ZM31.9625 150.515L32.1424 149.394C32.1443 149.387 32.1486 149.38 32.1547 149.376C32.1607 149.371 32.1682 149.369 32.1758 149.369C32.1834 149.369 32.1909 149.371 32.1969 149.376C32.2029 149.38 32.2073 149.387 32.2092 149.394L32.3891 150.515C32.3897 150.52 32.3893 150.525 32.3879 150.53C32.3864 150.535 32.384 150.539 32.3808 150.543C32.3775 150.547 32.3735 150.55 32.369 150.552C32.3645 150.555 32.3596 150.556 32.3545 150.556H31.9856C31.9783 150.554 31.972 150.549 31.9678 150.543C31.9636 150.537 31.9617 150.529 31.9625 150.522V150.515Z" fill="#6654A4"/>
<path d="M31.6902 149.102V149.072C31.6966 149.05 31.7112 149.032 31.7309 149.02C31.7506 149.009 31.7739 149.005 31.7962 149.01L32.2919 149.135C32.303 149.137 32.3136 149.142 32.3228 149.149C32.332 149.156 32.3398 149.164 32.3456 149.174C32.3514 149.184 32.3551 149.195 32.3566 149.207C32.3581 149.218 32.3572 149.23 32.3541 149.241V149.268C32.352 149.28 32.3475 149.29 32.341 149.3C32.3345 149.309 32.3262 149.317 32.3164 149.323C32.3067 149.329 32.2958 149.333 32.2844 149.335C32.273 149.337 32.2614 149.336 32.2503 149.333L31.7524 149.208C31.7302 149.202 31.7112 149.188 31.6996 149.168C31.6879 149.148 31.6845 149.125 31.6902 149.102Z" fill="#6654A4"/>
<path d="M56.5303 153.726C63.1005 153.302 67.3285 148.918 67.3839 148.934C68.2737 149.185 68.7256 151.578 68.4766 152.468C68.4028 152.731 64.2947 155.926 56.7055 156.424L56.5303 153.726Z" fill="#968AC2"/>
<path d="M64.7607 117.255L60.8047 132.133L68.1747 134.092L72.1307 119.214L64.7607 117.255Z" fill="#92E3A9"/>
<path opacity="0.5" d="M60.7578 132.148L68.1211 134.119L72.0655 119.218L64.6884 117.244L60.7578 132.148ZM61.4494 131.712L65.101 117.97L71.3255 119.623L67.7176 133.365L61.4494 131.712Z" fill="black"/>
<path opacity="0.5" d="M62.6998 131.161L63.1931 129.335C63.2068 129.288 63.2108 129.238 63.205 129.189C63.1993 129.14 63.1838 129.093 63.1595 129.05C63.1353 129.007 63.1028 128.969 63.0638 128.939C63.0248 128.909 62.9802 128.887 62.9326 128.874C62.8852 128.86 62.8356 128.856 62.7867 128.862C62.7377 128.868 62.6903 128.883 62.6474 128.907C62.6045 128.932 62.5669 128.964 62.5367 129.003C62.5065 129.042 62.4843 129.087 62.4715 129.134L61.9782 130.96C61.952 131.056 61.9647 131.158 62.0135 131.244C62.0623 131.331 62.1432 131.394 62.2387 131.421C62.2861 131.435 62.3356 131.438 62.3845 131.432C62.4333 131.427 62.4805 131.411 62.5234 131.387C62.5662 131.363 62.6039 131.33 62.6341 131.291C62.6644 131.253 62.6867 131.208 62.6998 131.161Z" fill="black"/>
<path opacity="0.5" d="M70.3845 122.204L70.8778 120.378C70.8914 120.331 70.8955 120.281 70.8897 120.232C70.884 120.184 70.8685 120.136 70.8442 120.093C70.82 120.05 70.7874 120.013 70.7484 119.982C70.7095 119.952 70.6649 119.93 70.6173 119.917C70.5699 119.903 70.5202 119.899 70.4711 119.905C70.4221 119.91 70.3746 119.926 70.3316 119.95C70.2886 119.974 70.2509 120.007 70.2208 120.046C70.1907 120.085 70.1687 120.13 70.1562 120.178L69.6629 122.004C69.6492 122.051 69.6452 122.101 69.651 122.15C69.6567 122.199 69.6722 122.246 69.6964 122.289C69.7207 122.332 69.7532 122.369 69.7922 122.4C69.8312 122.43 69.8758 122.452 69.9234 122.465C69.9707 122.482 70.021 122.488 70.0711 122.484C70.1211 122.48 70.1696 122.464 70.2134 122.44C70.2571 122.415 70.295 122.381 70.3245 122.341C70.354 122.3 70.3745 122.253 70.3845 122.204Z" fill="black"/>
<path d="M62.2076 112.781C62.0667 112.548 61.998 112.278 62.0102 112.005C62.0224 111.732 62.1149 111.47 62.2762 111.249C62.4374 111.029 62.6601 110.862 62.9163 110.768C63.1725 110.674 63.4508 110.658 63.716 110.722C63.9813 110.786 64.2217 110.927 64.4071 111.127C64.5924 111.327 64.7144 111.578 64.7577 111.847C64.801 112.117 64.7636 112.393 64.6503 112.641C64.5371 112.889 64.3529 113.098 64.121 113.242C63.9654 113.339 63.7922 113.403 63.6115 113.432C63.4307 113.462 63.246 113.454 63.068 113.412C62.89 113.369 62.7223 113.291 62.5746 113.183C62.4269 113.074 62.3022 112.938 62.2076 112.781Z" fill="#FFBC31"/>
<path d="M64.7607 117.255L60.8047 132.133L68.1747 134.092L72.1307 119.214L64.7607 117.255Z" stroke="#263238" stroke-width="0.4" stroke-linecap="round" stroke-linejoin="round"/>
<path d="M68.4922 126.551C68.3116 126.978 68.0084 127.342 67.621 127.596C67.2336 127.851 66.7794 127.985 66.3157 127.982C65.8521 127.979 65.3999 127.838 65.0162 127.577C64.6326 127.317 64.3348 126.949 64.1604 126.519C63.986 126.09 63.943 125.618 64.0366 125.164C64.1303 124.71 64.3565 124.294 64.6867 123.968C65.0169 123.643 65.4361 123.422 65.8915 123.335C66.3469 123.248 66.8179 123.297 67.245 123.478C67.8163 123.722 68.2681 124.182 68.5017 124.757C68.7353 125.333 68.7319 125.978 68.4922 126.551Z" fill="#5E936D"/>
<path d="M66.8377 126.95C66.8955 126.964 66.9564 126.957 67.0096 126.93C67.0628 126.904 67.1048 126.859 67.1282 126.805L67.4464 126.051C67.2955 126.195 67.1022 126.286 66.8954 126.311L66.7502 126.632C66.7311 126.687 66.7293 126.748 66.7449 126.804C66.7605 126.861 66.7929 126.912 66.8377 126.95Z" fill="#92E3A9"/>
<path d="M65.823 126.869C65.8799 126.88 65.9389 126.871 65.9901 126.844C66.0413 126.816 66.0816 126.772 66.1042 126.719L66.2771 126.311C66.2082 126.297 66.1404 126.278 66.0743 126.253C66.0167 126.226 65.9867 126.196 65.929 126.168L65.7561 126.544C65.7354 126.567 65.7202 126.595 65.7118 126.625C65.7033 126.655 65.7018 126.686 65.7074 126.717C65.7129 126.748 65.7254 126.777 65.7439 126.802C65.7623 126.827 65.7862 126.847 65.8138 126.862L65.823 126.869Z" fill="#92E3A9"/>
<path d="M64.7776 126.666C64.8351 126.679 64.8956 126.673 64.9486 126.646C65.0017 126.62 65.044 126.577 65.0681 126.523L65.3862 125.796C65.273 125.644 65.203 125.464 65.1834 125.275L64.7223 126.347C64.7223 126.377 64.6923 126.405 64.6923 126.435V126.463C64.6902 126.479 64.6918 126.495 64.697 126.51C64.7022 126.525 64.7109 126.539 64.7223 126.55C64.6924 126.608 64.7223 126.638 64.78 126.666H64.7776Z" fill="#92E3A9"/>
<path d="M66.8359 124.752L67.1541 124.898C67.2072 124.798 67.2657 124.701 67.3293 124.607C67.2292 124.531 67.1228 124.463 67.0111 124.404L66.8359 124.752Z" fill="#92E3A9"/>
<path d="M66.3359 125.911C66.5116 125.98 66.7048 125.991 66.8869 125.941V125.65C66.7481 125.626 66.6121 125.587 66.4811 125.535L66.3359 125.911Z" fill="#92E3A9"/>
<path d="M66.104 125.826L66.2492 125.478C66.1271 125.422 66.0106 125.354 65.9011 125.275C65.8474 125.356 65.7785 125.425 65.6982 125.478C65.7974 125.631 65.9382 125.752 66.104 125.826Z" fill="#92E3A9"/>
<path d="M67.332 125.015L67.7677 125.188C67.7723 125.147 67.7617 125.106 67.7378 125.072C67.7063 124.994 67.6565 124.925 67.5925 124.87L67.4772 124.752C67.4473 124.81 67.3897 124.897 67.332 125.015Z" fill="#92E3A9"/>
<path d="M65.5918 125.245L65.767 125.072C65.7094 125.042 65.6794 124.985 65.6218 124.927C65.5855 124.894 65.5558 124.854 65.5342 124.81C65.5342 124.802 65.5313 124.795 65.5261 124.79C65.5209 124.785 65.5138 124.782 65.5065 124.782L65.4766 124.752V124.982C65.4766 125.012 65.5065 125.04 65.5065 125.098C65.5065 125.155 65.5342 125.155 65.5342 125.185C65.5342 125.215 65.5642 125.245 65.5918 125.245Z" fill="#92E3A9"/>
<path d="M67.1836 125.478H67.3565C67.4365 125.475 67.5151 125.456 67.587 125.42C67.617 125.39 67.6447 125.39 67.6747 125.36L67.2389 125.188C67.235 125.287 67.2163 125.384 67.1836 125.478Z" fill="#92E3A9"/>
<path d="M67.8504 124.898V124.753C67.8453 124.664 67.8259 124.576 67.7927 124.493C67.7927 124.485 67.7898 124.478 67.7846 124.473C67.7795 124.468 67.7724 124.465 67.7651 124.465C67.7651 124.465 67.7351 124.465 67.7351 124.493L67.5898 124.638C67.6475 124.668 67.6775 124.725 67.7351 124.783C67.7651 124.783 67.8227 124.841 67.8504 124.898Z" fill="#92E3A9"/>
<path d="M65.6445 124.289L66.0802 124.464C66.1102 124.377 66.1379 124.259 66.1678 124.174H65.9926C65.9124 124.175 65.8336 124.195 65.7621 124.231C65.7091 124.261 65.6791 124.261 65.6445 124.289Z" fill="#92E3A9"/>
<path d="M66.2852 124.549L66.6033 124.694L66.7485 124.346C66.629 124.291 66.5026 124.252 66.3727 124.23C66.3673 124.342 66.3374 124.45 66.2852 124.549Z" fill="#92E3A9"/>
<path d="M66.5781 125.336C66.6973 125.393 66.8238 125.431 66.9539 125.452C66.9838 125.336 67.0138 125.221 67.0415 125.134L66.7233 124.988L66.5781 125.336Z" fill="#92E3A9"/>
<path d="M67.1289 125.912H67.1566C67.2165 125.885 67.3018 125.855 67.3594 125.827C67.4248 125.788 67.4839 125.739 67.5346 125.682C67.5047 125.682 67.5047 125.682 67.477 125.709C67.4267 125.705 67.3762 125.715 67.3318 125.739H67.1289V125.912Z" fill="#92E3A9"/>
<path d="M65.793 124.028C65.8576 124.004 65.9269 123.993 65.9959 123.998H66.1987V123.768H66.1411C66.0123 123.836 65.8948 123.924 65.793 124.028Z" fill="#92E3A9"/>
<path d="M66.3755 125.245L66.5207 124.897L66.2002 124.752C66.1493 124.853 66.0915 124.95 66.0273 125.042C66.1366 125.121 66.2532 125.189 66.3755 125.245Z" fill="#92E3A9"/>
<path d="M65.8507 124.928C65.9108 124.848 65.9597 124.76 65.996 124.667L65.5626 124.492C65.5581 124.533 65.5679 124.573 65.5903 124.607C65.6217 124.686 65.6715 124.755 65.7355 124.81C65.7654 124.84 65.7931 124.898 65.8507 124.928Z" fill="#92E3A9"/>
<path d="M62.8844 118.19L59.7109 131.816L66.4602 133.388L69.6337 119.762L62.8844 118.19Z" fill="#92E3A9"/>
<path opacity="0.5" d="M59.7266 131.862L66.472 133.446L69.6349 119.803L62.8895 118.219L59.7266 131.862ZM60.3467 131.447L63.2791 118.86L68.9871 120.185L66.0824 132.772L60.3467 131.447Z" fill="black"/>
<path opacity="0.5" d="M61.4638 130.909L61.8603 129.238C61.872 129.194 61.8748 129.149 61.8685 129.104C61.8622 129.059 61.847 129.016 61.8238 128.977C61.8006 128.939 61.7698 128.905 61.7333 128.879C61.6968 128.852 61.6553 128.833 61.6113 128.823C61.5676 128.812 61.5221 128.81 61.4774 128.816C61.4328 128.823 61.39 128.838 61.3514 128.862C61.3128 128.885 61.2793 128.916 61.2527 128.952C61.226 128.989 61.2069 129.03 61.1964 129.074L60.7999 130.745C60.7885 130.789 60.7861 130.835 60.7927 130.88C60.7992 130.924 60.8147 130.967 60.8381 131.006C60.8615 131.045 60.8924 131.078 60.929 131.105C60.9656 131.131 61.0071 131.15 61.0512 131.16C61.0948 131.171 61.1401 131.174 61.1846 131.167C61.229 131.16 61.2717 131.145 61.3101 131.121C61.3485 131.098 61.3819 131.067 61.4083 131.031C61.4347 130.994 61.4535 130.953 61.4638 130.909Z" fill="black"/>
<path opacity="0.5" d="M68.1911 122.556L68.5876 120.884C68.5989 120.84 68.6013 120.795 68.5948 120.75C68.5882 120.705 68.5728 120.662 68.5494 120.624C68.5259 120.585 68.4951 120.552 68.4585 120.525C68.4219 120.498 68.3803 120.48 68.3363 120.469C68.2925 120.458 68.2471 120.456 68.2024 120.463C68.1578 120.469 68.115 120.485 68.0764 120.508C68.0378 120.532 68.0042 120.562 67.9776 120.599C67.951 120.635 67.9318 120.677 67.9213 120.721L67.5271 122.392C67.5154 122.436 67.5126 122.481 67.5189 122.526C67.5252 122.571 67.5404 122.613 67.5636 122.652C67.5869 122.691 67.6176 122.725 67.6541 122.751C67.6906 122.778 67.7321 122.797 67.7761 122.807C67.8199 122.821 67.8662 122.826 67.9119 122.82C67.9576 122.815 68.0017 122.8 68.0411 122.776C68.0805 122.752 68.1143 122.72 68.1401 122.682C68.166 122.644 68.1834 122.601 68.1911 122.556Z" fill="black"/>
<path d="M60.4992 114.226C60.3626 114.017 60.2912 113.771 60.294 113.521C60.2969 113.27 60.3739 113.027 60.5153 112.82C60.6567 112.614 60.8561 112.454 61.0884 112.361C61.3207 112.267 61.5754 112.245 61.8203 112.297C62.0652 112.348 62.2893 112.471 62.4643 112.65C62.6394 112.829 62.7574 113.056 62.8035 113.302C62.8496 113.548 62.8218 113.802 62.7235 114.032C62.6252 114.262 62.4609 114.458 62.2513 114.595C62.1124 114.687 61.9565 114.75 61.793 114.781C61.6294 114.812 61.4612 114.811 61.2982 114.776C61.1353 114.742 60.9807 114.676 60.8436 114.581C60.7064 114.487 60.5894 114.366 60.4992 114.226Z" fill="#FFBC31"/>
<path d="M62.8844 118.19L59.7109 131.816L66.4602 133.388L69.6337 119.762L62.8844 118.19Z" stroke="#263238" stroke-width="0.4" stroke-linecap="round" stroke-linejoin="round"/>
<path d="M66.5989 126.559C66.4455 126.952 66.1793 127.29 65.8339 127.531C65.4885 127.772 65.0794 127.906 64.6582 127.915C64.237 127.924 63.8226 127.808 63.4672 127.581C63.1119 127.355 62.8316 127.029 62.6616 126.643C62.4917 126.258 62.4398 125.83 62.5124 125.415C62.585 125 62.7789 124.616 63.0696 124.311C63.3604 124.006 63.7349 123.794 64.146 123.702C64.5571 123.61 64.9863 123.641 65.3794 123.793C65.9069 123.999 66.3313 124.406 66.5598 124.925C66.7883 125.443 66.8023 126.031 66.5989 126.559Z" fill="#5E936D"/>
<path d="M65.108 126.975C65.161 126.986 65.2162 126.978 65.2638 126.952C65.3114 126.926 65.3485 126.884 65.3685 126.834L65.6359 126.143C65.5028 126.278 65.3299 126.367 65.1426 126.396L65.0204 126.689C65.004 126.74 65.0036 126.795 65.0193 126.847C65.0349 126.898 65.0658 126.944 65.108 126.977V126.975Z" fill="#92E3A9"/>
<path d="M64.1823 126.923C64.2353 126.934 64.2905 126.926 64.3381 126.9C64.3857 126.875 64.4228 126.833 64.4428 126.783L64.588 126.409C64.5256 126.398 64.464 126.383 64.4036 126.363C64.3506 126.338 64.3229 126.312 64.2699 126.287L64.1223 126.635C64.104 126.657 64.0909 126.682 64.0839 126.71C64.0769 126.737 64.0763 126.766 64.082 126.794C64.0878 126.822 64.0998 126.848 64.1172 126.87C64.1346 126.893 64.1568 126.911 64.1823 126.923Z" fill="#92E3A9"/>
<path d="M63.2297 126.77C63.2823 126.78 63.337 126.772 63.3841 126.746C63.4312 126.72 63.4679 126.679 63.4878 126.629L63.7576 125.963C63.6502 125.831 63.5815 125.671 63.5593 125.502L63.1674 126.491C63.1674 126.516 63.142 126.544 63.142 126.569V126.597C63.1407 126.611 63.1425 126.626 63.1473 126.639C63.152 126.653 63.1597 126.665 63.1697 126.675C63.1467 126.728 63.1697 126.754 63.2274 126.779L63.2297 126.77Z" fill="#92E3A9"/>
<path d="M65.043 124.975L65.3381 125.097C65.3812 125.004 65.4313 124.914 65.4879 124.828C65.3945 124.761 65.2958 124.703 65.1928 124.652L65.043 124.975Z" fill="#92E3A9"/>
<path d="M64.6289 126.041C64.7922 126.094 64.9682 126.094 65.1315 126.041V125.778C65.005 125.758 64.8808 125.727 64.7603 125.684L64.6289 126.041Z" fill="#92E3A9"/>
<path d="M64.4171 125.968L64.5393 125.648C64.4262 125.6 64.3181 125.542 64.2166 125.473C64.1712 125.548 64.1107 125.613 64.0391 125.664C64.1335 125.799 64.2647 125.905 64.4171 125.968Z" fill="#92E3A9"/>
<path d="M65.501 125.195L65.8999 125.342C65.9032 125.305 65.8925 125.267 65.8699 125.236C65.8401 125.166 65.7933 125.104 65.7338 125.057L65.6255 124.955C65.6001 125.008 65.5494 125.089 65.501 125.195Z" fill="#92E3A9"/>
<path d="M63.9246 125.457L64.079 125.293C64.0237 125.27 63.996 125.217 63.943 125.166C63.9087 125.137 63.8806 125.102 63.86 125.062C63.86 125.059 63.8593 125.055 63.8579 125.052C63.8565 125.049 63.8544 125.046 63.8518 125.044C63.8492 125.041 63.8461 125.039 63.8427 125.038C63.8394 125.037 63.8358 125.037 63.8323 125.037L63.8047 125.012V125.224C63.8047 125.249 63.8323 125.275 63.8346 125.328C63.8369 125.381 63.8623 125.378 63.8646 125.406C63.8669 125.434 63.8992 125.457 63.9246 125.457Z" fill="#92E3A9"/>
<path d="M65.3789 125.622H65.538C65.6114 125.617 65.6829 125.597 65.7477 125.562C65.7731 125.534 65.7985 125.534 65.8238 125.507L65.425 125.361C65.4225 125.45 65.407 125.538 65.3789 125.622Z" fill="#92E3A9"/>
<path d="M65.9712 125.075V124.944C65.9639 124.864 65.9436 124.786 65.9113 124.713C65.9125 124.709 65.9128 124.705 65.912 124.701C65.9112 124.696 65.9095 124.692 65.9069 124.689C65.9044 124.685 65.901 124.683 65.8972 124.681C65.8933 124.679 65.8891 124.678 65.8848 124.678C65.8805 124.678 65.8762 124.679 65.8724 124.681C65.8685 124.683 65.8652 124.685 65.8626 124.689C65.86 124.692 65.8583 124.696 65.8575 124.701C65.8568 124.705 65.857 124.709 65.8583 124.713L65.7314 124.849C65.7845 124.872 65.8122 124.925 65.8675 124.976C65.8882 124.974 65.9435 125.025 65.9712 125.075Z" fill="#92E3A9"/>
<path d="M63.9492 124.585L64.3503 124.73C64.3734 124.652 64.3965 124.546 64.4218 124.465H64.2628C64.1893 124.469 64.1178 124.49 64.053 124.525C64.0023 124.557 63.9746 124.557 63.9492 124.585Z" fill="#92E3A9"/>
<path d="M64.5391 124.802L64.8318 124.927L64.954 124.606C64.8442 124.557 64.7276 124.526 64.6082 124.512C64.6066 124.612 64.583 124.712 64.5391 124.802Z" fill="#92E3A9"/>
<path d="M64.8252 125.506C64.935 125.555 65.0516 125.587 65.171 125.601C65.1941 125.494 65.2171 125.388 65.2402 125.31L64.9474 125.186L64.8252 125.506Z" fill="#92E3A9"/>
<path d="M65.3415 126.028H65.3669C65.4199 125.998 65.4983 125.97 65.549 125.943C65.607 125.905 65.6591 125.859 65.7035 125.807C65.6758 125.807 65.6758 125.807 65.6505 125.834C65.6054 125.831 65.5605 125.842 65.5214 125.864H65.3369C65.3369 125.887 65.3392 125.966 65.3415 126.028Z" fill="#92E3A9"/>
<path d="M64.0742 124.344C64.1326 124.32 64.1956 124.309 64.2587 124.311H64.4431V124.102H64.3901C64.2727 124.165 64.166 124.247 64.0742 124.344Z" fill="#92E3A9"/>
<path d="M64.6382 125.433L64.758 125.115L64.4653 124.99C64.4222 125.084 64.3721 125.174 64.3154 125.26C64.417 125.328 64.5251 125.386 64.6382 125.433Z" fill="#92E3A9"/>
<path d="M64.1538 125.157C64.2049 125.086 64.2467 125.009 64.2783 124.927L63.8795 124.779C63.8763 124.817 63.886 124.854 63.9072 124.885C63.9376 124.956 63.9851 125.018 64.0455 125.065C64.0732 125.081 64.1008 125.132 64.1538 125.157Z" fill="#92E3A9"/>
<path d="M60.0905 118.603L57.2031 132.293L63.9838 133.723L66.8712 120.033L60.0905 118.603Z" fill="#92E3A9"/>
<path opacity="0.5" d="M57.1484 132.302L63.9262 133.743L66.7963 120.033L60.0209 118.592L57.1484 132.302ZM57.7594 131.875L60.4244 119.228L66.16 120.434L63.5204 133.079L57.7594 131.875Z" fill="black"/>
<path opacity="0.5" d="M58.8631 131.317L59.225 129.636C59.2355 129.592 59.2371 129.547 59.2298 129.503C59.2224 129.458 59.2062 129.416 59.1822 129.378C59.1581 129.339 59.1266 129.307 59.0896 129.281C59.0526 129.255 59.0109 129.237 58.9668 129.228C58.9229 129.218 58.8773 129.216 58.8328 129.223C58.7882 129.231 58.7455 129.247 58.7073 129.271C58.6691 129.295 58.636 129.326 58.6101 129.363C58.5842 129.4 58.566 129.442 58.5565 129.486L58.1968 131.167C58.1863 131.211 58.1847 131.256 58.192 131.301C58.1994 131.345 58.2156 131.387 58.2396 131.425C58.2637 131.464 58.2952 131.496 58.3322 131.522C58.3692 131.548 58.411 131.566 58.455 131.575C58.4988 131.585 58.5442 131.587 58.5887 131.58C58.6331 131.572 58.6756 131.556 58.7136 131.532C58.7516 131.508 58.7845 131.477 58.8102 131.44C58.8359 131.403 58.8538 131.361 58.8631 131.317Z" fill="black"/>
<path opacity="0.5" d="M65.4133 122.821L65.7729 121.14C65.7834 121.096 65.785 121.051 65.7777 121.006C65.7703 120.962 65.7541 120.919 65.7301 120.881C65.706 120.843 65.6745 120.811 65.6375 120.785C65.6005 120.759 65.5587 120.741 65.5147 120.732C65.4709 120.721 65.4255 120.72 65.3811 120.727C65.3366 120.735 65.2942 120.751 65.2561 120.775C65.2181 120.799 65.1852 120.83 65.1595 120.867C65.1339 120.904 65.1159 120.946 65.1066 120.99L64.7447 122.671C64.7342 122.715 64.7325 122.76 64.7398 122.805C64.7472 122.849 64.7633 122.892 64.7874 122.93C64.8114 122.969 64.8429 123.002 64.8799 123.027C64.9169 123.053 64.9587 123.072 65.0029 123.081C65.0471 123.095 65.0936 123.098 65.1393 123.092C65.1851 123.086 65.2289 123.07 65.2679 123.045C65.3068 123.02 65.34 122.987 65.3651 122.949C65.3902 122.91 65.4066 122.866 65.4133 122.821Z" fill="black"/>
<path d="M57.5483 114.655C57.4072 114.448 57.3306 114.204 57.3282 113.954C57.3257 113.703 57.3976 113.458 57.5346 113.249C57.6717 113.039 57.8677 112.875 58.098 112.777C58.3283 112.679 58.5825 112.651 58.8285 112.698C59.0745 112.744 59.3011 112.862 59.4799 113.038C59.6586 113.213 59.7814 113.437 59.8326 113.682C59.8839 113.927 59.8613 114.182 59.7678 114.414C59.6743 114.646 59.5141 114.846 59.3073 114.987C59.1703 115.081 59.0159 115.148 58.8531 115.182C58.6902 115.217 58.5221 115.219 58.3585 115.188C58.1949 115.157 58.0391 115.094 57.9 115.003C57.7609 114.911 57.6414 114.793 57.5483 114.655Z" fill="#FFBC31"/>
<path d="M60.0905 118.603L57.2031 132.293L63.9838 133.723L66.8712 120.033L60.0905 118.603Z" stroke="#263238" stroke-width="0.4" stroke-linecap="round" stroke-linejoin="round"/>
<path d="M63.9005 126.858C63.757 127.254 63.499 127.6 63.1593 127.85C62.8195 128.1 62.4132 128.244 61.9917 128.263C61.5703 128.282 61.1526 128.175 60.7916 127.957C60.4306 127.739 60.1425 127.418 59.9637 127.036C59.7849 126.654 59.7234 126.227 59.7871 125.81C59.8509 125.393 60.0369 125.005 60.3216 124.693C60.6063 124.382 60.977 124.162 61.3867 124.061C61.7964 123.961 62.2268 123.984 62.6233 124.128C63.1536 124.322 63.5856 124.718 63.8249 125.23C64.0642 125.741 64.0914 126.326 63.9005 126.858Z" fill="#5E936D"/>
<path d="M62.4177 127.306C62.4706 127.315 62.5251 127.306 62.5718 127.279C62.6185 127.253 62.6545 127.211 62.6736 127.16L62.9271 126.469C62.7974 126.606 62.6269 126.698 62.4408 126.732L62.3232 127.029C62.3081 127.081 62.309 127.136 62.3259 127.187C62.3428 127.238 62.3748 127.282 62.4177 127.315V127.306Z" fill="#92E3A9"/>
<path d="M61.4923 127.273C61.5452 127.282 61.5997 127.273 61.6464 127.247C61.6931 127.22 61.7292 127.178 61.7482 127.128L61.8865 126.752C61.8058 126.729 61.7528 126.731 61.6997 126.708C61.6467 126.685 61.6168 126.66 61.5638 126.637L61.4231 126.987C61.4055 127.009 61.3932 127.035 61.3872 127.063C61.3811 127.091 61.3814 127.119 61.3881 127.147C61.3947 127.174 61.4076 127.2 61.4256 127.222C61.4437 127.244 61.4665 127.261 61.4923 127.273Z" fill="#92E3A9"/>
<path d="M60.5393 127.139C60.5922 127.148 60.6467 127.139 60.6934 127.112C60.7401 127.086 60.7761 127.044 60.7952 126.994L61.0488 126.32C60.9391 126.188 60.8674 126.029 60.8413 125.859L60.4701 126.855C60.4701 126.883 60.4471 126.911 60.4494 126.936V126.95C60.4487 126.964 60.451 126.978 60.4562 126.991C60.4614 127.004 60.4693 127.016 60.4794 127.026C60.4563 127.081 60.4794 127.104 60.5393 127.13V127.139Z" fill="#92E3A9"/>
<path d="M62.3164 125.303L62.6115 125.421C62.6541 125.327 62.7026 125.236 62.7567 125.149C62.6627 125.083 62.5623 125.026 62.457 124.98L62.3164 125.303Z" fill="#92E3A9"/>
<path d="M61.9229 126.38C62.0862 126.433 62.2621 126.433 62.4254 126.38L62.4116 126.117C62.2845 126.1 62.1595 126.07 62.0381 126.029L61.9229 126.38Z" fill="#92E3A9"/>
<path d="M61.7092 126.311L61.8245 125.988C61.7114 125.943 61.6027 125.887 61.4994 125.822C61.455 125.898 61.3953 125.964 61.3242 126.016C61.4224 126.148 61.5558 126.251 61.7092 126.311Z" fill="#92E3A9"/>
<path d="M62.7773 125.518L63.1808 125.654C63.182 125.617 63.1706 125.58 63.1485 125.55C63.1162 125.481 63.0681 125.42 63.0079 125.373L62.8972 125.273C62.8788 125.336 62.8258 125.409 62.7773 125.518Z" fill="#92E3A9"/>
<path d="M61.2082 125.81L61.358 125.644C61.305 125.618 61.2751 125.568 61.2198 125.519C61.1859 125.491 61.157 125.456 61.1344 125.418C61.1344 125.414 61.1337 125.411 61.1323 125.408C61.1309 125.404 61.1288 125.401 61.1262 125.399C61.1236 125.397 61.1206 125.395 61.1172 125.394C61.1139 125.393 61.1103 125.392 61.1068 125.393L61.0791 125.367L61.0906 125.577C61.0906 125.605 61.1206 125.63 61.1229 125.681C61.1252 125.731 61.1506 125.734 61.1529 125.759C61.1552 125.784 61.1829 125.81 61.2082 125.81Z" fill="#92E3A9"/>
<path d="M62.668 125.944H62.8247C62.8978 125.938 62.9687 125.916 63.0322 125.879C63.0575 125.852 63.0829 125.852 63.1083 125.824L62.7048 125.686C62.7044 125.773 62.692 125.86 62.668 125.944Z" fill="#92E3A9"/>
<path d="M63.2421 125.387V125.256C63.2325 125.176 63.2107 125.099 63.1775 125.026C63.1775 125.026 63.1775 124.998 63.1498 125C63.1429 125.001 63.1365 125.004 63.1318 125.009C63.1271 125.014 63.1245 125.021 63.1245 125.028L63 125.166C63.0553 125.189 63.083 125.24 63.1383 125.291C63.159 125.286 63.2144 125.337 63.2421 125.387Z" fill="#92E3A9"/>
<path d="M61.2148 124.94L61.6183 125.076C61.6413 124.998 61.6621 124.889 61.6828 124.809H61.526C61.4529 124.814 61.382 124.836 61.3186 124.873C61.2632 124.91 61.2402 124.912 61.2148 124.94Z" fill="#92E3A9"/>
<path d="M61.8086 125.144L62.1036 125.262L62.2189 124.939C62.1071 124.895 61.9901 124.866 61.8708 124.852C61.8717 124.953 61.8505 125.052 61.8086 125.144Z" fill="#92E3A9"/>
<path d="M62.1055 125.842C62.2173 125.886 62.3343 125.916 62.4536 125.93C62.4743 125.822 62.4951 125.715 62.5158 125.635L62.2207 125.52L62.1055 125.842Z" fill="#92E3A9"/>
<path d="M62.6474 126.343H62.6728C62.7235 126.316 62.8019 126.284 62.8526 126.256C62.9094 126.216 62.9606 126.169 63.0048 126.115C62.9771 126.115 62.9771 126.115 62.9541 126.145C62.908 126.143 62.8622 126.154 62.8226 126.177H62.6382C62.629 126.212 62.6313 126.29 62.6474 126.343Z" fill="#92E3A9"/>
<path d="M61.3359 124.693C61.3937 124.67 61.4556 124.658 61.5181 124.659L61.7025 124.647L61.691 124.438H61.6402C61.5253 124.505 61.4225 124.592 61.3359 124.693Z" fill="#92E3A9"/>
<path d="M61.9179 125.774L62.0331 125.452L61.738 125.334C61.695 125.427 61.6464 125.518 61.5928 125.606C61.696 125.672 61.8048 125.728 61.9179 125.774Z" fill="#92E3A9"/>
<path d="M61.4282 125.509C61.4778 125.433 61.518 125.351 61.5481 125.265L61.1446 125.129C61.1434 125.166 61.1548 125.203 61.1769 125.233C61.2091 125.302 61.2573 125.363 61.3175 125.41C61.3452 125.433 61.3751 125.486 61.4282 125.509Z" fill="#92E3A9"/>
<path d="M23.1506 143.586C25.486 147.909 57.6617 135.029 60.707 135.153C62.6781 135.234 66.7009 136.755 67.3118 136.4C67.9227 136.045 70.3456 134.538 70.6984 133.924C71.0511 133.311 70.7929 132.08 70.7929 132.08C70.7929 132.08 71.1825 131.326 71.1502 130.759C71.1179 130.192 70.5508 129.549 70.5508 129.549C70.5508 129.549 70.9335 127.626 70.3826 126.656C69.8316 125.685 68.4599 125.69 68.3469 126.861C68.2824 127.552 68.4461 128.901 67.962 129.18C67.4778 129.459 67.0767 130.312 66.143 130.058C66.0554 130.035 65.9609 130.005 65.8595 129.975C64.4202 129.519 63.0836 128.787 61.9243 127.82L60.4096 126.559C59.6489 126.994 37.9371 132.553 35.3113 133.191C30.3871 134.374 20.6171 138.888 23.1506 143.586Z" fill="#EBB389"/>
<path d="M70.6597 79.6476C70.5537 79.7651 69.869 79.2949 68.9169 79.3202C67.9648 79.3456 67.2824 79.832 67.1764 79.719C67.1257 79.6706 67.2294 79.4631 67.5267 79.2372C67.9302 78.9465 68.4127 78.7857 68.91 78.7762C69.4017 78.7637 69.8852 78.9047 70.2932 79.1796C70.6067 79.394 70.722 79.5969 70.6597 79.6476Z" fill="#263238"/>
<path d="M61.6662 79.9758C61.5602 80.091 60.8755 79.6208 59.9257 79.6484C58.9759 79.6761 58.2912 80.1579 58.1851 80.0472C58.1321 79.9965 58.2359 79.789 58.5356 79.5654C58.9389 79.2744 59.4215 79.1136 59.9188 79.1044C60.4106 79.0912 60.8943 79.2323 61.302 79.5078C61.6132 79.7222 61.7239 79.9204 61.6662 79.9758Z" fill="#263238"/>
<path d="M64.8321 84.9914C65.3298 84.8247 65.8463 84.7202 66.3697 84.6802C66.6002 84.6479 66.8308 84.5949 66.8746 84.4312C66.8888 84.1839 66.8259 83.9382 66.6948 83.7281L65.9225 81.9299C64.8459 79.3664 64.0598 77.257 64.1658 77.2155C64.2719 77.174 65.2286 79.2188 66.3029 81.78C66.5611 82.4117 66.8101 83.0157 67.0452 83.592C67.207 83.8747 67.2618 84.206 67.1996 84.5257C67.1667 84.6112 67.1147 84.688 67.0476 84.7503C66.9805 84.8127 66.9 84.8588 66.8124 84.8853C66.6782 84.9249 66.5395 84.9474 66.3997 84.9522C65.8809 85.0309 65.3542 85.0441 64.8321 84.9914Z" fill="#263238"/>
<path d="M62.2219 85.7111C62.3763 85.6972 62.4086 86.7116 63.3146 87.4101C64.2206 88.1086 65.3156 87.968 65.3272 88.1017C65.3433 88.164 65.0967 88.3046 64.6241 88.3323C64.0206 88.3573 63.4272 88.1714 62.9458 87.8066C62.4879 87.4593 62.1828 86.9476 62.0951 86.3796C62.0444 85.9601 62.1527 85.7065 62.2219 85.7111Z" fill="#263238"/>
<path d="M61.5524 76.5015C61.4648 76.7597 60.5126 76.6629 59.3992 76.822C58.2857 76.981 57.3958 77.3038 57.2391 77.0801C57.1699 76.9718 57.3197 76.7297 57.6771 76.4738C58.1569 76.1596 58.7012 75.9571 59.2698 75.8813C59.8384 75.8055 60.4168 75.8583 60.9622 76.0358C61.3772 76.1857 61.5893 76.3816 61.5524 76.5015Z" fill="#263238"/>
<path d="M70.1119 75.3282C69.9506 75.5449 69.2889 75.3398 68.4982 75.349C67.7075 75.3582 67.0481 75.5311 66.8845 75.3098C66.8153 75.2038 66.9145 74.9894 67.198 74.7819C67.5848 74.5306 68.0367 74.398 68.498 74.4004C68.9592 74.4029 69.4097 74.5403 69.7938 74.7957C70.0843 75.0055 70.1834 75.2222 70.1119 75.3282Z" fill="#263238"/>
<path d="M98.9587 111.277L97.6055 113.345L97.8153 121.347H99.0233L105.425 112.054L105.137 111.858L105.407 111.983" fill="#EBB389"/>
<path d="M106.275 104.444C106.257 104.55 106.227 104.652 106.185 104.751C106.118 104.942 106.014 105.212 105.885 105.56C105.756 105.908 105.599 106.305 105.424 106.756C105.334 107.01 105.168 107.231 104.949 107.388C104.824 107.472 104.676 107.517 104.525 107.515C104.366 107.505 104.216 107.437 104.103 107.323C104.004 107.215 103.929 107.086 103.884 106.945C103.84 106.805 103.826 106.656 103.845 106.51C103.876 106.254 103.928 106.001 104 105.754C104.114 105.339 104.256 104.932 104.424 104.536C104.567 104.2 104.698 103.935 104.795 103.752C104.836 103.654 104.892 103.562 104.961 103.48C104.984 103.48 104.79 103.9 104.532 104.58C104.382 104.977 104.253 105.382 104.145 105.793C104.079 106.032 104.033 106.275 104.006 106.521C103.989 106.645 103.999 106.771 104.036 106.891C104.072 107.01 104.135 107.12 104.219 107.213C104.303 107.296 104.414 107.347 104.533 107.355C104.651 107.363 104.769 107.329 104.864 107.259C105.057 107.119 105.204 106.925 105.286 106.701L105.784 105.523C105.927 105.189 106.047 104.919 106.132 104.732C106.165 104.63 106.214 104.533 106.275 104.444Z" fill="#BF654E"/>
<path d="M106.94 105.851C106.89 106.157 106.813 106.458 106.71 106.75C106.624 107.027 106.525 107.35 106.401 107.716C106.37 107.822 106.319 107.92 106.25 108.005C106.18 108.09 106.094 108.161 105.997 108.212C105.941 108.24 105.879 108.255 105.816 108.258C105.753 108.261 105.69 108.251 105.631 108.228C105.515 108.183 105.415 108.102 105.347 107.997C105.237 107.793 105.192 107.56 105.218 107.329C105.228 107.127 105.254 106.925 105.297 106.727C105.365 106.392 105.479 106.067 105.633 105.761C105.736 105.555 105.859 105.361 106.002 105.18C106.103 105.054 106.17 104.994 106.18 105.001C106.189 105.007 105.972 105.293 105.737 105.812C105.604 106.115 105.506 106.432 105.444 106.757C105.408 106.948 105.386 107.142 105.38 107.336C105.357 107.533 105.394 107.732 105.486 107.908C105.526 107.986 105.594 108.047 105.677 108.077C105.76 108.107 105.851 108.105 105.933 108.071C106.09 107.984 106.208 107.84 106.26 107.668L106.599 106.72C106.686 106.421 106.8 106.13 106.94 105.851Z" fill="#BF654E"/>
<path d="M107.172 106.541C107.13 106.518 107.086 106.499 107.041 106.483C107.077 106.388 107.101 106.289 107.112 106.188C107.167 105.782 107.068 105.371 106.833 105.035C106.745 104.874 106.623 104.733 106.476 104.622C106.329 104.512 106.16 104.433 105.98 104.392C105.927 104.384 105.872 104.384 105.819 104.392C105.816 104.332 105.808 104.273 105.794 104.215C105.703 103.869 105.491 103.568 105.197 103.366C105.025 103.253 104.826 103.187 104.621 103.176C104.415 103.165 104.21 103.209 104.028 103.304C103.939 103.34 103.854 103.384 103.774 103.435C103.774 103.435 103.753 103.378 103.721 103.295C103.694 103.182 103.649 103.073 103.587 102.974C103.511 102.851 103.412 102.744 103.294 102.659C103.176 102.574 103.043 102.514 102.902 102.48C102.761 102.447 102.615 102.442 102.471 102.466C102.328 102.489 102.191 102.541 102.068 102.617C100.821 103.309 99.56 106.455 99.56 106.455C99.1111 105.563 98.5502 104.732 97.8909 103.982C97.031 103.117 96.2103 102.935 96.0213 103.505C95.9383 103.749 96.2817 104.427 96.6898 105.231L96.8351 105.517C97.3399 106.513 97.8771 107.627 97.8056 108.284C97.7848 108.466 97.7572 108.676 97.7249 108.901C97.5767 109.903 97.7778 110.924 98.2942 111.794C98.8106 112.665 99.6108 113.331 100.56 113.68C102.22 114.296 103.159 115.294 103.788 114.603C105.42 113.57 108.009 108.62 107.998 107.71C107.98 107.458 107.893 107.216 107.748 107.01C107.602 106.804 107.403 106.642 107.172 106.541Z" fill="#EBB389"/>
<path d="M151.401 88.4779C151.518 88.6379 151.578 88.8328 151.571 89.0312C151.577 89.1696 151.552 89.3076 151.497 89.4349C151.442 89.5622 151.36 89.6756 151.255 89.7666C151.012 89.9555 150.708 90.0504 150.4 90.034C150.185 90.0349 149.971 89.9975 149.768 89.9233C149.58 89.8576 149.406 89.754 149.259 89.619C149.233 89.5978 149.213 89.5714 149.199 89.5416C149.184 89.5118 149.176 89.4792 149.176 89.4461C149.174 89.4003 149.189 89.3554 149.217 89.3193C149.228 89.3038 149.243 89.2911 149.26 89.2823C149.276 89.2735 149.295 89.2688 149.314 89.2686C149.366 89.2707 149.415 89.2902 149.455 89.3239C149.594 89.4379 149.749 89.5303 149.916 89.5983C150.07 89.6562 150.233 89.6851 150.398 89.6836C150.603 89.6976 150.806 89.637 150.969 89.513C151.036 89.4493 151.089 89.3717 151.123 89.2857C151.156 89.1997 151.171 89.1073 151.165 89.015C151.165 88.5801 150.891 88.3618 150.342 88.3603H150.075C150.05 88.3619 150.026 88.3579 150.003 88.3487C149.98 88.3396 149.96 88.3254 149.944 88.3073C149.914 88.273 149.898 88.2292 149.898 88.1839C149.898 88.1387 149.914 88.0949 149.944 88.0606C149.961 88.0437 149.981 88.0306 150.004 88.0218C150.027 88.0131 150.051 88.0091 150.075 88.0099H150.262C150.478 88.0237 150.693 87.9626 150.87 87.837C150.942 87.7749 150.999 87.697 151.036 87.6094C151.072 87.5218 151.088 87.4269 151.082 87.3321C151.087 87.2501 151.075 87.1679 151.045 87.0911C151.016 87.0143 150.97 86.9448 150.912 86.8872C150.774 86.7762 150.6 86.7211 150.423 86.7327C150.265 86.733 150.109 86.7627 149.962 86.8203C149.801 86.8878 149.651 86.9795 149.517 87.0924C149.477 87.1266 149.427 87.1461 149.374 87.1477C149.355 87.1475 149.336 87.1428 149.32 87.134C149.303 87.1252 149.288 87.1125 149.277 87.097C149.249 87.0608 149.235 87.0158 149.238 86.9702C149.239 86.9377 149.246 86.9056 149.26 86.8762C149.274 86.8468 149.294 86.8207 149.319 86.7996C149.465 86.6656 149.637 86.5621 149.824 86.4953C150.019 86.4201 150.226 86.3818 150.435 86.3823C150.713 86.3683 150.988 86.456 151.207 86.629C151.302 86.7104 151.377 86.8121 151.427 86.9267C151.477 87.0413 151.5 87.1657 151.495 87.2906C151.499 87.4822 151.445 87.6705 151.338 87.8301C151.236 87.9846 151.087 88.1013 150.912 88.162C151.104 88.2118 151.276 88.3226 151.401 88.4779Z" fill="black"/>
<path d="M152.737 89.55C152.797 89.6369 152.825 89.7419 152.817 89.8474C152.821 89.9722 152.799 90.0963 152.754 90.2127C152.709 90.3291 152.641 90.4353 152.554 90.5252C152.541 90.5426 152.523 90.5568 152.503 90.5668C152.483 90.5767 152.461 90.5822 152.439 90.5828C152.405 90.5822 152.372 90.5681 152.347 90.5436C152.335 90.5327 152.325 90.5192 152.318 90.5041C152.311 90.489 152.308 90.4726 152.308 90.456C152.307 90.438 152.31 90.4201 152.317 90.4034C152.324 90.3867 152.334 90.3716 152.347 90.3592C152.436 90.2652 152.495 90.1462 152.515 90.018C152.445 90.0133 152.379 89.9839 152.329 89.935C152.305 89.9099 152.286 89.8802 152.274 89.8478C152.261 89.8153 152.256 89.7807 152.257 89.746C152.255 89.7075 152.262 89.6692 152.275 89.6331C152.289 89.5971 152.309 89.5641 152.335 89.5362C152.36 89.51 152.39 89.4894 152.424 89.4755C152.457 89.4616 152.493 89.4548 152.529 89.4555C152.569 89.4532 152.608 89.4606 152.645 89.4771C152.681 89.4935 152.712 89.5186 152.737 89.55Z" fill="black"/>
<path d="M153.708 89.5726C153.497 89.1498 153.388 88.6838 153.388 88.2113C153.388 87.7389 153.497 87.2729 153.708 86.85C153.816 86.705 153.957 86.5873 154.119 86.5061C154.281 86.425 154.459 86.3828 154.641 86.3828C154.822 86.3828 155 86.425 155.162 86.5061C155.324 86.5873 155.465 86.705 155.573 86.85C155.784 87.2733 155.894 87.7397 155.894 88.2125C155.894 88.6853 155.784 89.1517 155.573 89.5749C155.464 89.7196 155.324 89.8369 155.162 89.9177C155 89.9986 154.821 90.0406 154.641 90.0406C154.46 90.0406 154.281 89.9986 154.119 89.9177C153.958 89.8369 153.817 89.7196 153.708 89.5749V89.5726ZM155.269 89.3283C155.538 88.6056 155.538 87.8102 155.269 87.0875C155.204 86.9786 155.112 86.8884 155.001 86.8258C154.891 86.7632 154.766 86.7303 154.639 86.7303C154.513 86.7303 154.388 86.7632 154.278 86.8258C154.167 86.8884 154.075 86.9786 154.01 87.0875C153.74 87.8091 153.74 88.6043 154.01 89.326C154.074 89.436 154.166 89.5274 154.276 89.5909C154.386 89.6544 154.511 89.6879 154.638 89.6879C154.765 89.6879 154.891 89.6544 155.001 89.5909C155.111 89.5274 155.203 89.436 155.266 89.326L155.269 89.3283Z" fill="black"/>
<path d="M156.754 89.5726C156.543 89.1498 156.434 88.6838 156.434 88.2113C156.434 87.7389 156.543 87.2729 156.754 86.85C156.862 86.705 157.003 86.5873 157.165 86.5061C157.327 86.425 157.505 86.3828 157.686 86.3828C157.868 86.3828 158.046 86.425 158.208 86.5061C158.37 86.5873 158.511 86.705 158.619 86.85C158.83 87.2733 158.939 87.7397 158.939 88.2125C158.939 88.6853 158.83 89.1517 158.619 89.5749C158.51 89.7196 158.369 89.8369 158.208 89.9177C158.046 89.9986 157.867 90.0406 157.686 90.0406C157.506 90.0406 157.327 89.9986 157.165 89.9177C157.003 89.8369 156.863 89.7196 156.754 89.5749V89.5726ZM158.315 89.3283C158.584 88.6056 158.584 87.8102 158.315 87.0875C158.25 86.9786 158.157 86.8884 158.047 86.8258C157.937 86.7632 157.812 86.7303 157.685 86.7303C157.558 86.7303 157.434 86.7632 157.323 86.8258C157.213 86.8884 157.121 86.9786 157.056 87.0875C156.785 87.8091 156.785 88.6043 157.056 89.326C157.12 89.436 157.211 89.5274 157.322 89.5909C157.432 89.6544 157.557 89.6879 157.684 89.6879C157.811 89.6879 157.936 89.6544 158.047 89.5909C158.157 89.5274 158.249 89.436 158.312 89.326L158.315 89.3283Z" fill="black"/>
<path d="M159.796 89.5726C159.585 89.1498 159.476 88.6838 159.476 88.2113C159.476 87.7389 159.585 87.2729 159.796 86.85C159.904 86.705 160.045 86.5873 160.207 86.5061C160.369 86.425 160.547 86.3828 160.728 86.3828C160.91 86.3828 161.088 86.425 161.25 86.5061C161.412 86.5873 161.553 86.705 161.661 86.85C161.872 87.2733 161.981 87.7397 161.981 88.2125C161.981 88.6853 161.872 89.1517 161.661 89.5749C161.552 89.7196 161.411 89.8369 161.25 89.9177C161.088 89.9986 160.909 90.0406 160.728 90.0406C160.548 90.0406 160.369 89.9986 160.207 89.9177C160.045 89.8369 159.905 89.7196 159.796 89.5749V89.5726ZM161.357 89.3283C161.626 88.6056 161.626 87.8102 161.357 87.0875C161.292 86.9786 161.199 86.8884 161.089 86.8258C160.979 86.7632 160.854 86.7303 160.727 86.7303C160.6 86.7303 160.476 86.7632 160.366 86.8258C160.255 86.8884 160.163 86.9786 160.098 87.0875C159.827 87.8091 159.827 88.6043 160.098 89.326C160.162 89.436 160.253 89.5274 160.364 89.5909C160.474 89.6544 160.599 89.6879 160.726 89.6879C160.853 89.6879 160.978 89.6544 161.089 89.5909C161.199 89.5274 161.291 89.436 161.354 89.326L161.357 89.3283Z" fill="black"/>
<path d="M164.06 89.9428C164.041 89.9236 164.025 89.9006 164.015 89.8752C164.005 89.8498 164 89.8226 164 89.7952V86.6254C163.999 86.5979 164.004 86.5706 164.014 86.5451C164.025 86.5197 164.04 86.4968 164.06 86.4778C164.102 86.4396 164.158 86.4197 164.215 86.4225H166.112C166.137 86.4205 166.163 86.4235 166.187 86.4314C166.211 86.4393 166.233 86.452 166.252 86.4686C166.27 86.4845 166.284 86.5042 166.292 86.5262C166.301 86.5481 166.305 86.5718 166.303 86.5954C166.304 86.6189 166.3 86.6424 166.292 86.6643C166.283 86.6862 166.27 86.706 166.252 86.7222C166.213 86.7539 166.163 86.7695 166.112 86.766H164.413V88.0086H166.01C166.061 88.0061 166.111 88.0225 166.151 88.0547C166.168 88.0707 166.182 88.0904 166.191 88.1124C166.199 88.1343 166.203 88.1579 166.202 88.1815C166.203 88.2051 166.2 88.2287 166.191 88.2507C166.182 88.2726 166.169 88.2923 166.151 88.3083C166.111 88.3404 166.061 88.3568 166.01 88.3544H164.413V89.6523H166.112C166.163 89.6487 166.213 89.6644 166.252 89.6961C166.285 89.7307 166.303 89.7765 166.303 89.824C166.303 89.8716 166.285 89.9173 166.252 89.952C166.213 89.9845 166.163 90.001 166.112 89.9981H164.215C164.158 90.0008 164.102 89.9809 164.06 89.9428Z" fill="black"/>
<path d="M169.713 88.1829C169.73 88.1995 169.743 88.2193 169.751 88.2412C169.759 88.263 169.763 88.2864 169.762 88.3097V89.5731C169.766 89.6362 169.752 89.6992 169.723 89.7552C169.689 89.8026 169.64 89.8368 169.584 89.852C169.426 89.9164 169.26 89.9621 169.091 89.988C168.9 90.0221 168.706 90.0391 168.512 90.0387C168.191 90.048 167.873 89.9733 167.59 89.822C167.334 89.6772 167.128 89.4576 167 89.1927C166.865 88.884 166.796 88.5508 166.796 88.2141C166.796 87.8773 166.865 87.5441 167 87.2354C167.126 86.9707 167.329 86.7504 167.583 86.6038C167.855 86.4483 168.163 86.3686 168.475 86.3732C168.7 86.3711 168.923 86.4086 169.135 86.4839C169.326 86.5485 169.501 86.6548 169.647 86.7951C169.672 86.8172 169.693 86.8444 169.709 86.8749C169.724 86.9054 169.732 86.9386 169.734 86.9726C169.734 87.0176 169.72 87.0614 169.693 87.0971C169.681 87.1134 169.666 87.1267 169.648 87.136C169.631 87.1452 169.611 87.1501 169.591 87.1501C169.538 87.1451 169.488 87.1233 169.448 87.0879C169.304 86.9721 169.144 86.8774 168.973 86.8066C168.815 86.7525 168.648 86.726 168.48 86.7283C168.308 86.7186 168.135 86.7477 167.976 86.8135C167.816 86.8794 167.673 86.9802 167.558 87.1086C167.346 87.4353 167.233 87.8165 167.233 88.206C167.233 88.5955 167.346 88.9767 167.558 89.3033C167.68 89.4339 167.83 89.5356 167.996 89.601C168.162 89.6664 168.341 89.6939 168.519 89.6814C168.811 89.6847 169.102 89.6363 169.377 89.5385V88.4527H168.634C168.61 88.4543 168.585 88.4511 168.562 88.4432C168.539 88.4353 168.517 88.4228 168.498 88.4065C168.482 88.3924 168.469 88.3747 168.46 88.3547C168.451 88.3347 168.447 88.3131 168.448 88.2913C168.447 88.2688 168.451 88.2463 168.459 88.2256C168.468 88.2048 168.482 88.1863 168.498 88.1714C168.537 88.1413 168.585 88.1258 168.634 88.1276H169.584C169.608 88.1276 169.632 88.1324 169.655 88.142C169.677 88.1515 169.697 88.1654 169.713 88.1829Z" fill="black"/>
<path d="M170.657 89.9655C170.638 89.9447 170.623 89.9203 170.614 89.8938C170.604 89.8673 170.6 89.8392 170.602 89.811V86.6273C170.6 86.6001 170.605 86.5728 170.615 86.5473C170.625 86.5219 170.64 86.4989 170.659 86.4798C170.702 86.4416 170.757 86.4217 170.814 86.4245H172.017C172.333 86.4043 172.644 86.5021 172.891 86.6988C172.997 86.7968 173.08 86.9172 173.134 87.0511C173.188 87.1851 173.211 87.3293 173.202 87.4734C173.211 87.6187 173.187 87.764 173.133 87.8991C173.078 88.0342 172.995 88.1556 172.889 88.2549C172.643 88.4533 172.332 88.5528 172.017 88.5339H171.017V89.811C171.018 89.8392 171.014 89.8673 171.005 89.8938C170.995 89.9203 170.981 89.9447 170.962 89.9655C170.919 90.0024 170.865 90.0228 170.809 90.0228C170.753 90.0228 170.699 90.0024 170.657 89.9655ZM171.976 88.1881C172.52 88.1881 172.792 87.9498 172.792 87.4734C172.792 86.997 172.52 86.7618 171.976 86.768H171.017V88.1881H171.976Z" fill="black"/>
</svg>
