<svg width="596" height="75" viewBox="0 0 596 75" fill="none" xmlns="http://www.w3.org/2000/svg">
<path d="M70.6875 35.3906C70.5469 36.5938 70.1016 37.5234 69.3516 38.1797C68.6068 38.8307 67.6146 39.1562 66.375 39.1562C65.0312 39.1562 63.9531 38.6745 63.1406 37.7109C62.3333 36.7474 61.9297 35.4583 61.9297 33.8438V32.75C61.9297 31.6927 62.1172 30.763 62.4922 29.9609C62.8724 29.1589 63.4089 28.5443 64.1016 28.1172C64.7943 27.6849 65.5964 27.4688 66.5078 27.4688C67.7161 27.4688 68.6849 27.8073 69.4141 28.4844C70.1432 29.1562 70.5677 30.0885 70.6875 31.2812H69.1797C69.0495 30.375 68.7656 29.7188 68.3281 29.3125C67.8958 28.9062 67.2891 28.7031 66.5078 28.7031C65.5495 28.7031 64.7969 29.0573 64.25 29.7656C63.7083 30.474 63.4375 31.4818 63.4375 32.7891V33.8906C63.4375 35.125 63.6953 36.1068 64.2109 36.8359C64.7266 37.5651 65.4479 37.9297 66.375 37.9297C67.2083 37.9297 67.8464 37.7422 68.2891 37.3672C68.737 36.987 69.0339 36.3281 69.1797 35.3906H70.6875ZM72.1328 34.6953C72.1328 33.8672 72.2943 33.1224 72.6172 32.4609C72.9453 31.7995 73.3984 31.2891 73.9766 30.9297C74.5599 30.5703 75.224 30.3906 75.9688 30.3906C77.1198 30.3906 78.0495 30.7891 78.7578 31.5859C79.4714 32.3828 79.8281 33.4427 79.8281 34.7656V34.8672C79.8281 35.6901 79.6693 36.4297 79.3516 37.0859C79.0391 37.737 78.5885 38.2448 78 38.6094C77.4167 38.974 76.7448 39.1562 75.9844 39.1562C74.8385 39.1562 73.9089 38.7578 73.1953 37.9609C72.487 37.1641 72.1328 36.1094 72.1328 34.7969V34.6953ZM73.5859 34.8672C73.5859 35.8047 73.8021 36.5573 74.2344 37.125C74.6719 37.6927 75.2552 37.9766 75.9844 37.9766C76.7188 37.9766 77.3021 37.6901 77.7344 37.1172C78.1667 36.5391 78.3828 35.7318 78.3828 34.6953C78.3828 33.7682 78.1615 33.0182 77.7188 32.4453C77.2812 31.8672 76.6979 31.5781 75.9688 31.5781C75.2552 31.5781 74.6797 31.862 74.2422 32.4297C73.8047 32.9974 73.5859 33.8099 73.5859 34.8672ZM83.0078 30.5469L83.0547 31.6094C83.7005 30.7969 84.5443 30.3906 85.5859 30.3906C87.3724 30.3906 88.2734 31.3984 88.2891 33.4141V39H86.8438V33.4062C86.8385 32.7969 86.6979 32.3464 86.4219 32.0547C86.151 31.763 85.7266 31.6172 85.1484 31.6172C84.6797 31.6172 84.2682 31.7422 83.9141 31.9922C83.5599 32.2422 83.2839 32.5703 83.0859 32.9766V39H81.6406V30.5469H83.0078ZM95.3906 36.7578C95.3906 36.3672 95.2422 36.0651 94.9453 35.8516C94.6536 35.6328 94.1406 35.4453 93.4062 35.2891C92.6771 35.1328 92.0964 34.9453 91.6641 34.7266C91.237 34.5078 90.9193 34.2474 90.7109 33.9453C90.5078 33.6432 90.4062 33.2839 90.4062 32.8672C90.4062 32.1745 90.6979 31.5885 91.2812 31.1094C91.8698 30.6302 92.6198 30.3906 93.5312 30.3906C94.4896 30.3906 95.2656 30.638 95.8594 31.1328C96.4583 31.6276 96.7578 32.2604 96.7578 33.0312H95.3047C95.3047 32.6354 95.1354 32.2943 94.7969 32.0078C94.4635 31.7214 94.0417 31.5781 93.5312 31.5781C93.0052 31.5781 92.5938 31.6927 92.2969 31.9219C92 32.151 91.8516 32.4505 91.8516 32.8203C91.8516 33.1693 91.9896 33.4323 92.2656 33.6094C92.5417 33.7865 93.0391 33.9557 93.7578 34.1172C94.4818 34.2786 95.0677 34.4714 95.5156 34.6953C95.9635 34.9193 96.2943 35.1901 96.5078 35.5078C96.7266 35.8203 96.8359 36.2031 96.8359 36.6562C96.8359 37.4115 96.5339 38.0182 95.9297 38.4766C95.3255 38.9297 94.5417 39.1562 93.5781 39.1562C92.901 39.1562 92.3021 39.0365 91.7812 38.7969C91.2604 38.5573 90.8516 38.224 90.5547 37.7969C90.263 37.3646 90.1172 36.8984 90.1172 36.3984H91.5625C91.5885 36.8828 91.7812 37.2682 92.1406 37.5547C92.5052 37.8359 92.9844 37.9766 93.5781 37.9766C94.125 37.9766 94.5625 37.8672 94.8906 37.6484C95.224 37.4245 95.3906 37.1276 95.3906 36.7578ZM103.938 38.1641C103.375 38.8255 102.549 39.1562 101.461 39.1562C100.56 39.1562 99.8724 38.8958 99.3984 38.375C98.9297 37.849 98.6927 37.0729 98.6875 36.0469V30.5469H100.133V36.0078C100.133 37.2891 100.654 37.9297 101.695 37.9297C102.799 37.9297 103.534 37.5182 103.898 36.6953V30.5469H105.344V39H103.969L103.938 38.1641ZM108.906 30.5469L108.945 31.4844C109.565 30.7552 110.401 30.3906 111.453 30.3906C112.635 30.3906 113.44 30.8438 113.867 31.75C114.148 31.3438 114.513 31.0156 114.961 30.7656C115.414 30.5156 115.948 30.3906 116.562 30.3906C118.417 30.3906 119.359 31.3724 119.391 33.3359V39H117.945V33.4219C117.945 32.8177 117.807 32.3672 117.531 32.0703C117.255 31.7682 116.792 31.6172 116.141 31.6172C115.604 31.6172 115.159 31.7786 114.805 32.1016C114.451 32.4193 114.245 32.849 114.188 33.3906V39H112.734V33.4609C112.734 32.2318 112.133 31.6172 110.93 31.6172C109.982 31.6172 109.333 32.0208 108.984 32.8281V39H107.539V30.5469H108.906ZM125.086 39.1562C123.94 39.1562 123.008 38.7812 122.289 38.0312C121.57 37.276 121.211 36.2682 121.211 35.0078V34.7422C121.211 33.9036 121.37 33.1562 121.688 32.5C122.01 31.8385 122.458 31.3229 123.031 30.9531C123.609 30.5781 124.234 30.3906 124.906 30.3906C126.005 30.3906 126.859 30.7526 127.469 31.4766C128.078 32.2005 128.383 33.237 128.383 34.5859V35.1875H122.656C122.677 36.0208 122.919 36.6953 123.383 37.2109C123.852 37.7214 124.445 37.9766 125.164 37.9766C125.674 37.9766 126.107 37.8724 126.461 37.6641C126.815 37.4557 127.125 37.1797 127.391 36.8359L128.273 37.5234C127.565 38.612 126.503 39.1562 125.086 39.1562ZM124.906 31.5781C124.323 31.5781 123.833 31.7917 123.438 32.2188C123.042 32.6406 122.797 33.2344 122.703 34H126.938V33.8906C126.896 33.1562 126.698 32.5885 126.344 32.1875C125.99 31.7812 125.51 31.5781 124.906 31.5781ZM134.148 31.8438C133.93 31.8073 133.693 31.7891 133.438 31.7891C132.49 31.7891 131.846 32.1927 131.508 33V39H130.062V30.5469H131.469L131.492 31.5234C131.966 30.7682 132.638 30.3906 133.508 30.3906C133.789 30.3906 134.003 30.4271 134.148 30.5V31.8438ZM146.938 37.0078L148.562 30.5469H150.008L147.547 39H146.375L144.32 32.5938L142.32 39H141.148L138.695 30.5469H140.133L141.797 36.875L143.766 30.5469H144.93L146.938 37.0078ZM153.055 39H151.609V30.5469H153.055V39ZM151.492 28.3047C151.492 28.0703 151.562 27.8724 151.703 27.7109C151.849 27.5495 152.062 27.4688 152.344 27.4688C152.625 27.4688 152.839 27.5495 152.984 27.7109C153.13 27.8724 153.203 28.0703 153.203 28.3047C153.203 28.5391 153.13 28.7344 152.984 28.8906C152.839 29.0469 152.625 29.125 152.344 29.125C152.062 29.125 151.849 29.0469 151.703 28.8906C151.562 28.7344 151.492 28.5391 151.492 28.3047ZM156.945 39H155.5V27H156.945V39ZM160.836 39H159.391V27H160.836V39ZM171.211 31.8438C170.992 31.8073 170.755 31.7891 170.5 31.7891C169.552 31.7891 168.909 32.1927 168.57 33V39H167.125V30.5469H168.531L168.555 31.5234C169.029 30.7682 169.701 30.3906 170.57 30.3906C170.852 30.3906 171.065 30.4271 171.211 30.5V31.8438ZM175.898 39.1562C174.753 39.1562 173.82 38.7812 173.102 38.0312C172.383 37.276 172.023 36.2682 172.023 35.0078V34.7422C172.023 33.9036 172.182 33.1562 172.5 32.5C172.823 31.8385 173.271 31.3229 173.844 30.9531C174.422 30.5781 175.047 30.3906 175.719 30.3906C176.818 30.3906 177.672 30.7526 178.281 31.4766C178.891 32.2005 179.195 33.237 179.195 34.5859V35.1875H173.469C173.49 36.0208 173.732 36.6953 174.195 37.2109C174.664 37.7214 175.258 37.9766 175.977 37.9766C176.487 37.9766 176.919 37.8724 177.273 37.6641C177.628 37.4557 177.938 37.1797 178.203 36.8359L179.086 37.5234C178.378 38.612 177.315 39.1562 175.898 39.1562ZM175.719 31.5781C175.135 31.5781 174.646 31.7917 174.25 32.2188C173.854 32.6406 173.609 33.2344 173.516 34H177.75V33.8906C177.708 33.1562 177.51 32.5885 177.156 32.1875C176.802 31.7812 176.323 31.5781 175.719 31.5781ZM186.094 39C186.01 38.8333 185.943 38.5365 185.891 38.1094C185.219 38.8073 184.417 39.1562 183.484 39.1562C182.651 39.1562 181.966 38.9219 181.43 38.4531C180.898 37.9792 180.633 37.3802 180.633 36.6562C180.633 35.776 180.966 35.0938 181.633 34.6094C182.305 34.1198 183.247 33.875 184.461 33.875H185.867V33.2109C185.867 32.7057 185.716 32.3047 185.414 32.0078C185.112 31.7057 184.667 31.5547 184.078 31.5547C183.562 31.5547 183.13 31.6849 182.781 31.9453C182.432 32.2057 182.258 32.5208 182.258 32.8906H180.805C180.805 32.4688 180.953 32.0625 181.25 31.6719C181.552 31.276 181.958 30.9635 182.469 30.7344C182.984 30.5052 183.549 30.3906 184.164 30.3906C185.138 30.3906 185.901 30.6354 186.453 31.125C187.005 31.6094 187.292 32.2786 187.312 33.1328V37.0234C187.312 37.7995 187.411 38.4167 187.609 38.875V39H186.094ZM183.695 37.8984C184.148 37.8984 184.578 37.7812 184.984 37.5469C185.391 37.3125 185.685 37.0078 185.867 36.6328V34.8984H184.734C182.964 34.8984 182.078 35.4167 182.078 36.4531C182.078 36.9062 182.229 37.2604 182.531 37.5156C182.833 37.7708 183.221 37.8984 183.695 37.8984ZM189.227 34.7031C189.227 33.4062 189.534 32.3646 190.148 31.5781C190.763 30.7865 191.568 30.3906 192.562 30.3906C193.552 30.3906 194.336 30.7292 194.914 31.4062V27H196.359V39H195.031L194.961 38.0938C194.383 38.8021 193.578 39.1562 192.547 39.1562C191.568 39.1562 190.768 38.7552 190.148 37.9531C189.534 37.151 189.227 36.1042 189.227 34.8125V34.7031ZM190.672 34.8672C190.672 35.8255 190.87 36.5755 191.266 37.1172C191.661 37.6589 192.208 37.9297 192.906 37.9297C193.823 37.9297 194.492 37.5182 194.914 36.6953V32.8125C194.482 32.0156 193.818 31.6172 192.922 31.6172C192.214 31.6172 191.661 31.8906 191.266 32.4375C190.87 32.9844 190.672 33.7943 190.672 34.8672ZM204.539 28.5V30.5469H206.117V31.6641H204.539V36.9062C204.539 37.2448 204.609 37.5 204.75 37.6719C204.891 37.8385 205.13 37.9219 205.469 37.9219C205.635 37.9219 205.865 37.8906 206.156 37.8281V39C205.776 39.1042 205.406 39.1562 205.047 39.1562C204.401 39.1562 203.914 38.9609 203.586 38.5703C203.258 38.1797 203.094 37.625 203.094 36.9062V31.6641H201.555V30.5469H203.094V28.5H204.539ZM209.258 31.5703C209.898 30.7839 210.732 30.3906 211.758 30.3906C213.544 30.3906 214.445 31.3984 214.461 33.4141V39H213.016V33.4062C213.01 32.7969 212.87 32.3464 212.594 32.0547C212.323 31.763 211.898 31.6172 211.32 31.6172C210.852 31.6172 210.44 31.7422 210.086 31.9922C209.732 32.2422 209.456 32.5703 209.258 32.9766V39H207.812V27H209.258V31.5703ZM220.133 39.1562C218.987 39.1562 218.055 38.7812 217.336 38.0312C216.617 37.276 216.258 36.2682 216.258 35.0078V34.7422C216.258 33.9036 216.417 33.1562 216.734 32.5C217.057 31.8385 217.505 31.3229 218.078 30.9531C218.656 30.5781 219.281 30.3906 219.953 30.3906C221.052 30.3906 221.906 30.7526 222.516 31.4766C223.125 32.2005 223.43 33.237 223.43 34.5859V35.1875H217.703C217.724 36.0208 217.966 36.6953 218.43 37.2109C218.898 37.7214 219.492 37.9766 220.211 37.9766C220.721 37.9766 221.154 37.8724 221.508 37.6641C221.862 37.4557 222.172 37.1797 222.438 36.8359L223.32 37.5234C222.612 38.612 221.549 39.1562 220.133 39.1562ZM219.953 31.5781C219.37 31.5781 218.88 31.7917 218.484 32.2188C218.089 32.6406 217.844 33.2344 217.75 34H221.984V33.8906C221.943 33.1562 221.745 32.5885 221.391 32.1875C221.036 31.7812 220.557 31.5781 219.953 31.5781ZM230.648 39H229.203V30.5469H230.648V39ZM229.086 28.3047C229.086 28.0703 229.156 27.8724 229.297 27.7109C229.443 27.5495 229.656 27.4688 229.938 27.4688C230.219 27.4688 230.432 27.5495 230.578 27.7109C230.724 27.8724 230.797 28.0703 230.797 28.3047C230.797 28.5391 230.724 28.7344 230.578 28.8906C230.432 29.0469 230.219 29.125 229.938 29.125C229.656 29.125 229.443 29.0469 229.297 28.8906C229.156 28.7344 229.086 28.5391 229.086 28.3047ZM234.336 30.5469L234.383 31.6094C235.029 30.7969 235.872 30.3906 236.914 30.3906C238.701 30.3906 239.602 31.3984 239.617 33.4141V39H238.172V33.4062C238.167 32.7969 238.026 32.3464 237.75 32.0547C237.479 31.763 237.055 31.6172 236.477 31.6172C236.008 31.6172 235.596 31.7422 235.242 31.9922C234.888 32.2422 234.612 32.5703 234.414 32.9766V39H232.969V30.5469H234.336ZM246.719 36.7578C246.719 36.3672 246.57 36.0651 246.273 35.8516C245.982 35.6328 245.469 35.4453 244.734 35.2891C244.005 35.1328 243.424 34.9453 242.992 34.7266C242.565 34.5078 242.247 34.2474 242.039 33.9453C241.836 33.6432 241.734 33.2839 241.734 32.8672C241.734 32.1745 242.026 31.5885 242.609 31.1094C243.198 30.6302 243.948 30.3906 244.859 30.3906C245.818 30.3906 246.594 30.638 247.188 31.1328C247.786 31.6276 248.086 32.2604 248.086 33.0312H246.633C246.633 32.6354 246.464 32.2943 246.125 32.0078C245.792 31.7214 245.37 31.5781 244.859 31.5781C244.333 31.5781 243.922 31.6927 243.625 31.9219C243.328 32.151 243.18 32.4505 243.18 32.8203C243.18 33.1693 243.318 33.4323 243.594 33.6094C243.87 33.7865 244.367 33.9557 245.086 34.1172C245.81 34.2786 246.396 34.4714 246.844 34.6953C247.292 34.9193 247.622 35.1901 247.836 35.5078C248.055 35.8203 248.164 36.2031 248.164 36.6562C248.164 37.4115 247.862 38.0182 247.258 38.4766C246.654 38.9297 245.87 39.1562 244.906 39.1562C244.229 39.1562 243.63 39.0365 243.109 38.7969C242.589 38.5573 242.18 38.224 241.883 37.7969C241.591 37.3646 241.445 36.8984 241.445 36.3984H242.891C242.917 36.8828 243.109 37.2682 243.469 37.5547C243.833 37.8359 244.312 37.9766 244.906 37.9766C245.453 37.9766 245.891 37.8672 246.219 37.6484C246.552 37.4245 246.719 37.1276 246.719 36.7578ZM252.008 28.5V30.5469H253.586V31.6641H252.008V36.9062C252.008 37.2448 252.078 37.5 252.219 37.6719C252.359 37.8385 252.599 37.9219 252.938 37.9219C253.104 37.9219 253.333 37.8906 253.625 37.8281V39C253.245 39.1042 252.875 39.1562 252.516 39.1562C251.87 39.1562 251.383 38.9609 251.055 38.5703C250.727 38.1797 250.562 37.625 250.562 36.9062V31.6641H249.023V30.5469H250.562V28.5H252.008ZM260.5 38.1641C259.938 38.8255 259.112 39.1562 258.023 39.1562C257.122 39.1562 256.435 38.8958 255.961 38.375C255.492 37.849 255.255 37.0729 255.25 36.0469V30.5469H256.695V36.0078C256.695 37.2891 257.216 37.9297 258.258 37.9297C259.362 37.9297 260.096 37.5182 260.461 36.6953V30.5469H261.906V39H260.531L260.5 38.1641ZM267.5 37.9766C268.016 37.9766 268.466 37.8203 268.852 37.5078C269.237 37.1953 269.451 36.8047 269.492 36.3359H270.859C270.833 36.8203 270.667 37.2812 270.359 37.7188C270.052 38.1562 269.641 38.5052 269.125 38.7656C268.615 39.026 268.073 39.1562 267.5 39.1562C266.349 39.1562 265.432 38.7734 264.75 38.0078C264.073 37.237 263.734 36.1849 263.734 34.8516V34.6094C263.734 33.7865 263.885 33.0547 264.188 32.4141C264.49 31.7734 264.922 31.276 265.484 30.9219C266.052 30.5677 266.721 30.3906 267.492 30.3906C268.44 30.3906 269.227 30.6745 269.852 31.2422C270.482 31.8099 270.818 32.5469 270.859 33.4531H269.492C269.451 32.9062 269.242 32.4583 268.867 32.1094C268.497 31.7552 268.039 31.5781 267.492 31.5781C266.758 31.5781 266.188 31.8438 265.781 32.375C265.38 32.901 265.18 33.6641 265.18 34.6641V34.9375C265.18 35.9115 265.38 36.6615 265.781 37.1875C266.182 37.7135 266.755 37.9766 267.5 37.9766ZM274.445 28.5V30.5469H276.023V31.6641H274.445V36.9062C274.445 37.2448 274.516 37.5 274.656 37.6719C274.797 37.8385 275.036 37.9219 275.375 37.9219C275.542 37.9219 275.771 37.8906 276.062 37.8281V39C275.682 39.1042 275.312 39.1562 274.953 39.1562C274.307 39.1562 273.82 38.9609 273.492 38.5703C273.164 38.1797 273 37.625 273 36.9062V31.6641H271.461V30.5469H273V28.5H274.445ZM279.289 39H277.844V30.5469H279.289V39ZM277.727 28.3047C277.727 28.0703 277.797 27.8724 277.938 27.7109C278.083 27.5495 278.297 27.4688 278.578 27.4688C278.859 27.4688 279.073 27.5495 279.219 27.7109C279.365 27.8724 279.438 28.0703 279.438 28.3047C279.438 28.5391 279.365 28.7344 279.219 28.8906C279.073 29.0469 278.859 29.125 278.578 29.125C278.297 29.125 278.083 29.0469 277.938 28.8906C277.797 28.7344 277.727 28.5391 277.727 28.3047ZM281.227 34.6953C281.227 33.8672 281.388 33.1224 281.711 32.4609C282.039 31.7995 282.492 31.2891 283.07 30.9297C283.654 30.5703 284.318 30.3906 285.062 30.3906C286.214 30.3906 287.143 30.7891 287.852 31.5859C288.565 32.3828 288.922 33.4427 288.922 34.7656V34.8672C288.922 35.6901 288.763 36.4297 288.445 37.0859C288.133 37.737 287.682 38.2448 287.094 38.6094C286.51 38.974 285.839 39.1562 285.078 39.1562C283.932 39.1562 283.003 38.7578 282.289 37.9609C281.581 37.1641 281.227 36.1094 281.227 34.7969V34.6953ZM282.68 34.8672C282.68 35.8047 282.896 36.5573 283.328 37.125C283.766 37.6927 284.349 37.9766 285.078 37.9766C285.812 37.9766 286.396 37.6901 286.828 37.1172C287.26 36.5391 287.477 35.7318 287.477 34.6953C287.477 33.7682 287.255 33.0182 286.812 32.4453C286.375 31.8672 285.792 31.5781 285.062 31.5781C284.349 31.5781 283.773 31.862 283.336 32.4297C282.898 32.9974 282.68 33.8099 282.68 34.8672ZM292.102 30.5469L292.148 31.6094C292.794 30.7969 293.638 30.3906 294.68 30.3906C296.466 30.3906 297.367 31.3984 297.383 33.4141V39H295.938V33.4062C295.932 32.7969 295.792 32.3464 295.516 32.0547C295.245 31.763 294.82 31.6172 294.242 31.6172C293.773 31.6172 293.362 31.7422 293.008 31.9922C292.654 32.2422 292.378 32.5703 292.18 32.9766V39H290.734V30.5469H292.102ZM304.484 36.7578C304.484 36.3672 304.336 36.0651 304.039 35.8516C303.747 35.6328 303.234 35.4453 302.5 35.2891C301.771 35.1328 301.19 34.9453 300.758 34.7266C300.331 34.5078 300.013 34.2474 299.805 33.9453C299.602 33.6432 299.5 33.2839 299.5 32.8672C299.5 32.1745 299.792 31.5885 300.375 31.1094C300.964 30.6302 301.714 30.3906 302.625 30.3906C303.583 30.3906 304.359 30.638 304.953 31.1328C305.552 31.6276 305.852 32.2604 305.852 33.0312H304.398C304.398 32.6354 304.229 32.2943 303.891 32.0078C303.557 31.7214 303.135 31.5781 302.625 31.5781C302.099 31.5781 301.688 31.6927 301.391 31.9219C301.094 32.151 300.945 32.4505 300.945 32.8203C300.945 33.1693 301.083 33.4323 301.359 33.6094C301.635 33.7865 302.133 33.9557 302.852 34.1172C303.576 34.2786 304.161 34.4714 304.609 34.6953C305.057 34.9193 305.388 35.1901 305.602 35.5078C305.82 35.8203 305.93 36.2031 305.93 36.6562C305.93 37.4115 305.628 38.0182 305.023 38.4766C304.419 38.9297 303.635 39.1562 302.672 39.1562C301.995 39.1562 301.396 39.0365 300.875 38.7969C300.354 38.5573 299.945 38.224 299.648 37.7969C299.357 37.3646 299.211 36.8984 299.211 36.3984H300.656C300.682 36.8828 300.875 37.2682 301.234 37.5547C301.599 37.8359 302.078 37.9766 302.672 37.9766C303.219 37.9766 303.656 37.8672 303.984 37.6484C304.318 37.4245 304.484 37.1276 304.484 36.7578ZM311.398 34.6953C311.398 33.8672 311.56 33.1224 311.883 32.4609C312.211 31.7995 312.664 31.2891 313.242 30.9297C313.826 30.5703 314.49 30.3906 315.234 30.3906C316.385 30.3906 317.315 30.7891 318.023 31.5859C318.737 32.3828 319.094 33.4427 319.094 34.7656V34.8672C319.094 35.6901 318.935 36.4297 318.617 37.0859C318.305 37.737 317.854 38.2448 317.266 38.6094C316.682 38.974 316.01 39.1562 315.25 39.1562C314.104 39.1562 313.174 38.7578 312.461 37.9609C311.753 37.1641 311.398 36.1094 311.398 34.7969V34.6953ZM312.852 34.8672C312.852 35.8047 313.068 36.5573 313.5 37.125C313.938 37.6927 314.521 37.9766 315.25 37.9766C315.984 37.9766 316.568 37.6901 317 37.1172C317.432 36.5391 317.648 35.7318 317.648 34.6953C317.648 33.7682 317.427 33.0182 316.984 32.4453C316.547 31.8672 315.964 31.5781 315.234 31.5781C314.521 31.5781 313.945 31.862 313.508 32.4297C313.07 32.9974 312.852 33.8099 312.852 34.8672ZM321.617 39V31.6641H320.281V30.5469H321.617V29.6797C321.617 28.7734 321.859 28.0729 322.344 27.5781C322.828 27.0833 323.513 26.8359 324.398 26.8359C324.732 26.8359 325.062 26.8802 325.391 26.9688L325.312 28.1406C325.068 28.0938 324.807 28.0703 324.531 28.0703C324.062 28.0703 323.701 28.2083 323.445 28.4844C323.19 28.7552 323.062 29.1458 323.062 29.6562V30.5469H324.867V31.6641H323.062V39H321.617ZM331.883 31.5703C332.523 30.7839 333.357 30.3906 334.383 30.3906C336.169 30.3906 337.07 31.3984 337.086 33.4141V39H335.641V33.4062C335.635 32.7969 335.495 32.3464 335.219 32.0547C334.948 31.763 334.523 31.6172 333.945 31.6172C333.477 31.6172 333.065 31.7422 332.711 31.9922C332.357 32.2422 332.081 32.5703 331.883 32.9766V39H330.438V27H331.883V31.5703ZM338.867 34.6953C338.867 33.8672 339.029 33.1224 339.352 32.4609C339.68 31.7995 340.133 31.2891 340.711 30.9297C341.294 30.5703 341.958 30.3906 342.703 30.3906C343.854 30.3906 344.784 30.7891 345.492 31.5859C346.206 32.3828 346.562 33.4427 346.562 34.7656V34.8672C346.562 35.6901 346.404 36.4297 346.086 37.0859C345.773 37.737 345.323 38.2448 344.734 38.6094C344.151 38.974 343.479 39.1562 342.719 39.1562C341.573 39.1562 340.643 38.7578 339.93 37.9609C339.221 37.1641 338.867 36.1094 338.867 34.7969V34.6953ZM340.32 34.8672C340.32 35.8047 340.536 36.5573 340.969 37.125C341.406 37.6927 341.99 37.9766 342.719 37.9766C343.453 37.9766 344.036 37.6901 344.469 37.1172C344.901 36.5391 345.117 35.7318 345.117 34.6953C345.117 33.7682 344.896 33.0182 344.453 32.4453C344.016 31.8672 343.432 31.5781 342.703 31.5781C341.99 31.5781 341.414 31.862 340.977 32.4297C340.539 32.9974 340.32 33.8099 340.32 34.8672ZM355.859 37.0078L357.484 30.5469H358.93L356.469 39H355.297L353.242 32.5938L351.242 39H350.07L347.617 30.5469H349.055L350.719 36.875L352.688 30.5469H353.852L355.859 37.0078ZM366.336 28.5V30.5469H367.914V31.6641H366.336V36.9062C366.336 37.2448 366.406 37.5 366.547 37.6719C366.688 37.8385 366.927 37.9219 367.266 37.9219C367.432 37.9219 367.661 37.8906 367.953 37.8281V39C367.573 39.1042 367.203 39.1562 366.844 39.1562C366.198 39.1562 365.711 38.9609 365.383 38.5703C365.055 38.1797 364.891 37.625 364.891 36.9062V31.6641H363.352V30.5469H364.891V28.5H366.336ZM369.07 34.6953C369.07 33.8672 369.232 33.1224 369.555 32.4609C369.883 31.7995 370.336 31.2891 370.914 30.9297C371.497 30.5703 372.161 30.3906 372.906 30.3906C374.057 30.3906 374.987 30.7891 375.695 31.5859C376.409 32.3828 376.766 33.4427 376.766 34.7656V34.8672C376.766 35.6901 376.607 36.4297 376.289 37.0859C375.977 37.737 375.526 38.2448 374.938 38.6094C374.354 38.974 373.682 39.1562 372.922 39.1562C371.776 39.1562 370.846 38.7578 370.133 37.9609C369.424 37.1641 369.07 36.1094 369.07 34.7969V34.6953ZM370.523 34.8672C370.523 35.8047 370.74 36.5573 371.172 37.125C371.609 37.6927 372.193 37.9766 372.922 37.9766C373.656 37.9766 374.24 37.6901 374.672 37.1172C375.104 36.5391 375.32 35.7318 375.32 34.6953C375.32 33.7682 375.099 33.0182 374.656 32.4453C374.219 31.8672 373.635 31.5781 372.906 31.5781C372.193 31.5781 371.617 31.862 371.18 32.4297C370.742 32.9974 370.523 33.8099 370.523 34.8672ZM390.031 37.0078L391.656 30.5469H393.102L390.641 39H389.469L387.414 32.5938L385.414 39H384.242L381.789 30.5469H383.227L384.891 36.875L386.859 30.5469H388.023L390.031 37.0078ZM396.148 39H394.703V30.5469H396.148V39ZM394.586 28.3047C394.586 28.0703 394.656 27.8724 394.797 27.7109C394.943 27.5495 395.156 27.4688 395.438 27.4688C395.719 27.4688 395.932 27.5495 396.078 27.7109C396.224 27.8724 396.297 28.0703 396.297 28.3047C396.297 28.5391 396.224 28.7344 396.078 28.8906C395.932 29.0469 395.719 29.125 395.438 29.125C395.156 29.125 394.943 29.0469 394.797 28.8906C394.656 28.7344 394.586 28.5391 394.586 28.3047ZM400.43 28.5V30.5469H402.008V31.6641H400.43V36.9062C400.43 37.2448 400.5 37.5 400.641 37.6719C400.781 37.8385 401.021 37.9219 401.359 37.9219C401.526 37.9219 401.755 37.8906 402.047 37.8281V39C401.667 39.1042 401.297 39.1562 400.938 39.1562C400.292 39.1562 399.805 38.9609 399.477 38.5703C399.148 38.1797 398.984 37.625 398.984 36.9062V31.6641H397.445V30.5469H398.984V28.5H400.43ZM405.148 31.5703C405.789 30.7839 406.622 30.3906 407.648 30.3906C409.435 30.3906 410.336 31.3984 410.352 33.4141V39H408.906V33.4062C408.901 32.7969 408.76 32.3464 408.484 32.0547C408.214 31.763 407.789 31.6172 407.211 31.6172C406.742 31.6172 406.331 31.7422 405.977 31.9922C405.622 32.2422 405.346 32.5703 405.148 32.9766V39H403.703V27H405.148V31.5703ZM412.164 34.7031C412.164 33.4062 412.471 32.3646 413.086 31.5781C413.701 30.7865 414.505 30.3906 415.5 30.3906C416.49 30.3906 417.273 30.7292 417.852 31.4062V27H419.297V39H417.969L417.898 38.0938C417.32 38.8021 416.516 39.1562 415.484 39.1562C414.505 39.1562 413.706 38.7552 413.086 37.9531C412.471 37.151 412.164 36.1042 412.164 34.8125V34.7031ZM413.609 34.8672C413.609 35.8255 413.807 36.5755 414.203 37.1172C414.599 37.6589 415.146 37.9297 415.844 37.9297C416.76 37.9297 417.43 37.5182 417.852 36.6953V32.8125C417.419 32.0156 416.755 31.6172 415.859 31.6172C415.151 31.6172 414.599 31.8906 414.203 32.4375C413.807 32.9844 413.609 33.7943 413.609 34.8672ZM425.633 31.8438C425.414 31.8073 425.177 31.7891 424.922 31.7891C423.974 31.7891 423.331 32.1927 422.992 33V39H421.547V30.5469H422.953L422.977 31.5234C423.451 30.7682 424.122 30.3906 424.992 30.3906C425.273 30.3906 425.487 30.4271 425.633 30.5V31.8438ZM431.875 39C431.792 38.8333 431.724 38.5365 431.672 38.1094C431 38.8073 430.198 39.1562 429.266 39.1562C428.432 39.1562 427.747 38.9219 427.211 38.4531C426.68 37.9792 426.414 37.3802 426.414 36.6562C426.414 35.776 426.747 35.0938 427.414 34.6094C428.086 34.1198 429.029 33.875 430.242 33.875H431.648V33.2109C431.648 32.7057 431.497 32.3047 431.195 32.0078C430.893 31.7057 430.448 31.5547 429.859 31.5547C429.344 31.5547 428.911 31.6849 428.562 31.9453C428.214 32.2057 428.039 32.5208 428.039 32.8906H426.586C426.586 32.4688 426.734 32.0625 427.031 31.6719C427.333 31.276 427.74 30.9635 428.25 30.7344C428.766 30.5052 429.331 30.3906 429.945 30.3906C430.919 30.3906 431.682 30.6354 432.234 31.125C432.786 31.6094 433.073 32.2786 433.094 33.1328V37.0234C433.094 37.7995 433.193 38.4167 433.391 38.875V39H431.875ZM429.477 37.8984C429.93 37.8984 430.359 37.7812 430.766 37.5469C431.172 37.3125 431.466 37.0078 431.648 36.6328V34.8984H430.516C428.745 34.8984 427.859 35.4167 427.859 36.4531C427.859 36.9062 428.01 37.2604 428.312 37.5156C428.615 37.7708 429.003 37.8984 429.477 37.8984ZM442.844 37.0078L444.469 30.5469H445.914L443.453 39H442.281L440.227 32.5938L438.227 39H437.055L434.602 30.5469H436.039L437.703 36.875L439.672 30.5469H440.836L442.844 37.0078ZM452.719 30.5469L452.758 31.4844C453.378 30.7552 454.214 30.3906 455.266 30.3906C456.448 30.3906 457.253 30.8438 457.68 31.75C457.961 31.3438 458.326 31.0156 458.773 30.7656C459.227 30.5156 459.76 30.3906 460.375 30.3906C462.229 30.3906 463.172 31.3724 463.203 33.3359V39H461.758V33.4219C461.758 32.8177 461.62 32.3672 461.344 32.0703C461.068 31.7682 460.604 31.6172 459.953 31.6172C459.417 31.6172 458.971 31.7786 458.617 32.1016C458.263 32.4193 458.057 32.849 458 33.3906V39H456.547V33.4609C456.547 32.2318 455.945 31.6172 454.742 31.6172C453.794 31.6172 453.146 32.0208 452.797 32.8281V39H451.352V30.5469H452.719ZM465.008 34.6953C465.008 33.8672 465.169 33.1224 465.492 32.4609C465.82 31.7995 466.273 31.2891 466.852 30.9297C467.435 30.5703 468.099 30.3906 468.844 30.3906C469.995 30.3906 470.924 30.7891 471.633 31.5859C472.346 32.3828 472.703 33.4427 472.703 34.7656V34.8672C472.703 35.6901 472.544 36.4297 472.227 37.0859C471.914 37.737 471.464 38.2448 470.875 38.6094C470.292 38.974 469.62 39.1562 468.859 39.1562C467.714 39.1562 466.784 38.7578 466.07 37.9609C465.362 37.1641 465.008 36.1094 465.008 34.7969V34.6953ZM466.461 34.8672C466.461 35.8047 466.677 36.5573 467.109 37.125C467.547 37.6927 468.13 37.9766 468.859 37.9766C469.594 37.9766 470.177 37.6901 470.609 37.1172C471.042 36.5391 471.258 35.7318 471.258 34.6953C471.258 33.7682 471.036 33.0182 470.594 32.4453C470.156 31.8672 469.573 31.5781 468.844 31.5781C468.13 31.5781 467.555 31.862 467.117 32.4297C466.68 32.9974 466.461 33.8099 466.461 34.8672ZM475.883 30.5469L475.93 31.6094C476.576 30.7969 477.419 30.3906 478.461 30.3906C480.247 30.3906 481.148 31.3984 481.164 33.4141V39H479.719V33.4062C479.714 32.7969 479.573 32.3464 479.297 32.0547C479.026 31.763 478.602 31.6172 478.023 31.6172C477.555 31.6172 477.143 31.7422 476.789 31.9922C476.435 32.2422 476.159 32.5703 475.961 32.9766V39H474.516V30.5469H475.883ZM486.852 39.1562C485.706 39.1562 484.773 38.7812 484.055 38.0312C483.336 37.276 482.977 36.2682 482.977 35.0078V34.7422C482.977 33.9036 483.135 33.1562 483.453 32.5C483.776 31.8385 484.224 31.3229 484.797 30.9531C485.375 30.5781 486 30.3906 486.672 30.3906C487.771 30.3906 488.625 30.7526 489.234 31.4766C489.844 32.2005 490.148 33.237 490.148 34.5859V35.1875H484.422C484.443 36.0208 484.685 36.6953 485.148 37.2109C485.617 37.7214 486.211 37.9766 486.93 37.9766C487.44 37.9766 487.872 37.8724 488.227 37.6641C488.581 37.4557 488.891 37.1797 489.156 36.8359L490.039 37.5234C489.331 38.612 488.268 39.1562 486.852 39.1562ZM486.672 31.5781C486.089 31.5781 485.599 31.7917 485.203 32.2188C484.807 32.6406 484.562 33.2344 484.469 34H488.703V33.8906C488.661 33.1562 488.464 32.5885 488.109 32.1875C487.755 31.7812 487.276 31.5781 486.672 31.5781ZM494.484 36.8828L496.453 30.5469H498L494.602 40.3047C494.076 41.7109 493.24 42.4141 492.094 42.4141L491.82 42.3906L491.281 42.2891V41.1172L491.672 41.1484C492.161 41.1484 492.542 41.0495 492.812 40.8516C493.089 40.6536 493.315 40.2917 493.492 39.7656L493.812 38.9062L490.797 30.5469H492.375L494.484 36.8828ZM503.977 39V31.6641H502.641V30.5469H503.977V29.6797C503.977 28.7734 504.219 28.0729 504.703 27.5781C505.188 27.0833 505.872 26.8359 506.758 26.8359C507.091 26.8359 507.422 26.8802 507.75 26.9688L507.672 28.1406C507.427 28.0938 507.167 28.0703 506.891 28.0703C506.422 28.0703 506.06 28.2083 505.805 28.4844C505.549 28.7552 505.422 29.1458 505.422 29.6562V30.5469H507.227V31.6641H505.422V39H503.977ZM512.914 31.8438C512.695 31.8073 512.458 31.7891 512.203 31.7891C511.255 31.7891 510.612 32.1927 510.273 33V39H508.828V30.5469H510.234L510.258 31.5234C510.732 30.7682 511.404 30.3906 512.273 30.3906C512.555 30.3906 512.768 30.4271 512.914 30.5V31.8438ZM513.711 34.6953C513.711 33.8672 513.872 33.1224 514.195 32.4609C514.523 31.7995 514.977 31.2891 515.555 30.9297C516.138 30.5703 516.802 30.3906 517.547 30.3906C518.698 30.3906 519.628 30.7891 520.336 31.5859C521.049 32.3828 521.406 33.4427 521.406 34.7656V34.8672C521.406 35.6901 521.247 36.4297 520.93 37.0859C520.617 37.737 520.167 38.2448 519.578 38.6094C518.995 38.974 518.323 39.1562 517.562 39.1562C516.417 39.1562 515.487 38.7578 514.773 37.9609C514.065 37.1641 513.711 36.1094 513.711 34.7969V34.6953ZM515.164 34.8672C515.164 35.8047 515.38 36.5573 515.812 37.125C516.25 37.6927 516.833 37.9766 517.562 37.9766C518.297 37.9766 518.88 37.6901 519.312 37.1172C519.745 36.5391 519.961 35.7318 519.961 34.6953C519.961 33.7682 519.74 33.0182 519.297 32.4453C518.859 31.8672 518.276 31.5781 517.547 31.5781C516.833 31.5781 516.258 31.862 515.82 32.4297C515.383 32.9974 515.164 33.8099 515.164 34.8672ZM524.578 30.5469L524.617 31.4844C525.237 30.7552 526.073 30.3906 527.125 30.3906C528.307 30.3906 529.112 30.8438 529.539 31.75C529.82 31.3438 530.185 31.0156 530.633 30.7656C531.086 30.5156 531.62 30.3906 532.234 30.3906C534.089 30.3906 535.031 31.3724 535.062 33.3359V39H533.617V33.4219C533.617 32.8177 533.479 32.3672 533.203 32.0703C532.927 31.7682 532.464 31.6172 531.812 31.6172C531.276 31.6172 530.831 31.7786 530.477 32.1016C530.122 32.4193 529.917 32.849 529.859 33.3906V39H528.406V33.4609C528.406 32.2318 527.805 31.6172 526.602 31.6172C525.654 31.6172 525.005 32.0208 524.656 32.8281V39H523.211V30.5469H524.578ZM547.727 36.0312H542.961L541.891 39H540.344L544.688 27.625H546L550.352 39H548.812L547.727 36.0312ZM543.414 34.7969H547.281L545.344 29.4766L543.414 34.7969ZM558.727 28.8594H555.07V39H553.578V28.8594H549.93V27.625H558.727V28.8594ZM562.352 27.625L566.07 36.9062L569.789 27.625H571.734V39H570.234V34.5703L570.375 29.7891L566.641 39H565.492L561.766 29.8125L561.914 34.5703V39H560.414V27.625H562.352Z" fill="#656668"/>
<path d="M19.1105 47.744H34.5025V45.312H23.4945C27.6225 41.952 33.8305 37.056 33.8305 31.296C33.8305 27.008 31.0145 24.448 26.6625 24.448C22.5025 24.448 19.3985 27.008 19.2065 31.936H22.0225C22.1505 29.024 23.6865 26.944 26.6945 26.944C29.8305 26.944 30.9505 28.864 30.9505 31.424C30.9505 36.16 25.1905 40.768 19.1105 45.664V47.744Z" fill="#656668"/>
</svg>
