<svg width="595" height="113" viewBox="0 0 595 113" fill="none" xmlns="http://www.w3.org/2000/svg">
<g filter="url(#filter0_d)">
<rect x="19" y="16" width="556.56" height="75" rx="24" fill="white"/>
</g>
<path d="M89.4033 50.3906C89.2627 51.5938 88.8174 52.5234 88.0674 53.1797C87.3226 53.8307 86.3304 54.1562 85.0908 54.1562C83.7471 54.1562 82.6689 53.6745 81.8564 52.7109C81.0492 51.7474 80.6455 50.4583 80.6455 48.8438V47.75C80.6455 46.6927 80.833 45.763 81.208 44.9609C81.5882 44.1589 82.1247 43.5443 82.8174 43.1172C83.5101 42.6849 84.3122 42.4688 85.2236 42.4688C86.432 42.4688 87.4007 42.8073 88.1299 43.4844C88.859 44.1562 89.2835 45.0885 89.4033 46.2812H87.8955C87.7653 45.375 87.4814 44.7188 87.0439 44.3125C86.6117 43.9062 86.0049 43.7031 85.2236 43.7031C84.2653 43.7031 83.5127 44.0573 82.9658 44.7656C82.4242 45.474 82.1533 46.4818 82.1533 47.7891V48.8906C82.1533 50.125 82.4111 51.1068 82.9268 51.8359C83.4424 52.5651 84.1637 52.9297 85.0908 52.9297C85.9242 52.9297 86.5622 52.7422 87.0049 52.3672C87.4528 51.987 87.7497 51.3281 87.8955 50.3906H89.4033ZM90.8486 49.6953C90.8486 48.8672 91.0101 48.1224 91.333 47.4609C91.6611 46.7995 92.1143 46.2891 92.6924 45.9297C93.2757 45.5703 93.9398 45.3906 94.6846 45.3906C95.8356 45.3906 96.7653 45.7891 97.4736 46.5859C98.1872 47.3828 98.5439 48.4427 98.5439 49.7656V49.8672C98.5439 50.6901 98.3851 51.4297 98.0674 52.0859C97.7549 52.737 97.3044 53.2448 96.7158 53.6094C96.1325 53.974 95.4606 54.1562 94.7002 54.1562C93.5544 54.1562 92.6247 53.7578 91.9111 52.9609C91.2028 52.1641 90.8486 51.1094 90.8486 49.7969V49.6953ZM92.3018 49.8672C92.3018 50.8047 92.5179 51.5573 92.9502 52.125C93.3877 52.6927 93.971 52.9766 94.7002 52.9766C95.4346 52.9766 96.0179 52.6901 96.4502 52.1172C96.8825 51.5391 97.0986 50.7318 97.0986 49.6953C97.0986 48.7682 96.8773 48.0182 96.4346 47.4453C95.9971 46.8672 95.4137 46.5781 94.6846 46.5781C93.971 46.5781 93.3955 46.862 92.958 47.4297C92.5205 47.9974 92.3018 48.8099 92.3018 49.8672ZM101.724 45.5469L101.771 46.6094C102.416 45.7969 103.26 45.3906 104.302 45.3906C106.088 45.3906 106.989 46.3984 107.005 48.4141V54H105.56V48.4062C105.554 47.7969 105.414 47.3464 105.138 47.0547C104.867 46.763 104.442 46.6172 103.864 46.6172C103.396 46.6172 102.984 46.7422 102.63 46.9922C102.276 47.2422 102 47.5703 101.802 47.9766V54H100.356V45.5469H101.724ZM114.106 51.7578C114.106 51.3672 113.958 51.0651 113.661 50.8516C113.369 50.6328 112.856 50.4453 112.122 50.2891C111.393 50.1328 110.812 49.9453 110.38 49.7266C109.953 49.5078 109.635 49.2474 109.427 48.9453C109.224 48.6432 109.122 48.2839 109.122 47.8672C109.122 47.1745 109.414 46.5885 109.997 46.1094C110.586 45.6302 111.336 45.3906 112.247 45.3906C113.205 45.3906 113.981 45.638 114.575 46.1328C115.174 46.6276 115.474 47.2604 115.474 48.0312H114.021C114.021 47.6354 113.851 47.2943 113.513 47.0078C113.179 46.7214 112.757 46.5781 112.247 46.5781C111.721 46.5781 111.31 46.6927 111.013 46.9219C110.716 47.151 110.567 47.4505 110.567 47.8203C110.567 48.1693 110.705 48.4323 110.981 48.6094C111.257 48.7865 111.755 48.9557 112.474 49.1172C113.198 49.2786 113.784 49.4714 114.231 49.6953C114.679 49.9193 115.01 50.1901 115.224 50.5078C115.442 50.8203 115.552 51.2031 115.552 51.6562C115.552 52.4115 115.25 53.0182 114.646 53.4766C114.041 53.9297 113.257 54.1562 112.294 54.1562C111.617 54.1562 111.018 54.0365 110.497 53.7969C109.976 53.5573 109.567 53.224 109.271 52.7969C108.979 52.3646 108.833 51.8984 108.833 51.3984H110.278C110.304 51.8828 110.497 52.2682 110.856 52.5547C111.221 52.8359 111.7 52.9766 112.294 52.9766C112.841 52.9766 113.278 52.8672 113.606 52.6484C113.94 52.4245 114.106 52.1276 114.106 51.7578ZM122.653 53.1641C122.091 53.8255 121.265 54.1562 120.177 54.1562C119.276 54.1562 118.588 53.8958 118.114 53.375C117.646 52.849 117.409 52.0729 117.403 51.0469V45.5469H118.849V51.0078C118.849 52.2891 119.369 52.9297 120.411 52.9297C121.515 52.9297 122.25 52.5182 122.614 51.6953V45.5469H124.06V54H122.685L122.653 53.1641ZM127.622 45.5469L127.661 46.4844C128.281 45.7552 129.117 45.3906 130.169 45.3906C131.351 45.3906 132.156 45.8438 132.583 46.75C132.864 46.3438 133.229 46.0156 133.677 45.7656C134.13 45.5156 134.664 45.3906 135.278 45.3906C137.132 45.3906 138.075 46.3724 138.106 48.3359V54H136.661V48.4219C136.661 47.8177 136.523 47.3672 136.247 47.0703C135.971 46.7682 135.507 46.6172 134.856 46.6172C134.32 46.6172 133.875 46.7786 133.521 47.1016C133.166 47.4193 132.961 47.849 132.903 48.3906V54H131.45V48.4609C131.45 47.2318 130.849 46.6172 129.646 46.6172C128.698 46.6172 128.049 47.0208 127.7 47.8281V54H126.255V45.5469H127.622ZM143.802 54.1562C142.656 54.1562 141.724 53.7812 141.005 53.0312C140.286 52.276 139.927 51.2682 139.927 50.0078V49.7422C139.927 48.9036 140.086 48.1562 140.403 47.5C140.726 46.8385 141.174 46.3229 141.747 45.9531C142.325 45.5781 142.95 45.3906 143.622 45.3906C144.721 45.3906 145.575 45.7526 146.185 46.4766C146.794 47.2005 147.099 48.237 147.099 49.5859V50.1875H141.372C141.393 51.0208 141.635 51.6953 142.099 52.2109C142.567 52.7214 143.161 52.9766 143.88 52.9766C144.39 52.9766 144.823 52.8724 145.177 52.6641C145.531 52.4557 145.841 52.1797 146.106 51.8359L146.989 52.5234C146.281 53.612 145.218 54.1562 143.802 54.1562ZM143.622 46.5781C143.039 46.5781 142.549 46.7917 142.153 47.2188C141.757 47.6406 141.513 48.2344 141.419 49H145.653V48.8906C145.612 48.1562 145.414 47.5885 145.06 47.1875C144.705 46.7812 144.226 46.5781 143.622 46.5781ZM152.864 46.8438C152.646 46.8073 152.409 46.7891 152.153 46.7891C151.205 46.7891 150.562 47.1927 150.224 48V54H148.778V45.5469H150.185L150.208 46.5234C150.682 45.7682 151.354 45.3906 152.224 45.3906C152.505 45.3906 152.718 45.4271 152.864 45.5V46.8438ZM165.653 52.0078L167.278 45.5469H168.724L166.263 54H165.091L163.036 47.5938L161.036 54H159.864L157.411 45.5469H158.849L160.513 51.875L162.481 45.5469H163.646L165.653 52.0078ZM171.771 54H170.325V45.5469H171.771V54ZM170.208 43.3047C170.208 43.0703 170.278 42.8724 170.419 42.7109C170.565 42.5495 170.778 42.4688 171.06 42.4688C171.341 42.4688 171.554 42.5495 171.7 42.7109C171.846 42.8724 171.919 43.0703 171.919 43.3047C171.919 43.5391 171.846 43.7344 171.7 43.8906C171.554 44.0469 171.341 44.125 171.06 44.125C170.778 44.125 170.565 44.0469 170.419 43.8906C170.278 43.7344 170.208 43.5391 170.208 43.3047ZM175.661 54H174.216V42H175.661V54ZM179.552 54H178.106V42H179.552V54ZM189.349 54.1562C188.203 54.1562 187.271 53.7812 186.552 53.0312C185.833 52.276 185.474 51.2682 185.474 50.0078V49.7422C185.474 48.9036 185.632 48.1562 185.95 47.5C186.273 46.8385 186.721 46.3229 187.294 45.9531C187.872 45.5781 188.497 45.3906 189.169 45.3906C190.268 45.3906 191.122 45.7526 191.731 46.4766C192.341 47.2005 192.646 48.237 192.646 49.5859V50.1875H186.919C186.94 51.0208 187.182 51.6953 187.646 52.2109C188.114 52.7214 188.708 52.9766 189.427 52.9766C189.937 52.9766 190.369 52.8724 190.724 52.6641C191.078 52.4557 191.388 52.1797 191.653 51.8359L192.536 52.5234C191.828 53.612 190.765 54.1562 189.349 54.1562ZM189.169 46.5781C188.586 46.5781 188.096 46.7917 187.7 47.2188C187.304 47.6406 187.06 48.2344 186.966 49H191.2V48.8906C191.159 48.1562 190.961 47.5885 190.606 47.1875C190.252 46.7812 189.773 46.5781 189.169 46.5781ZM195.692 45.5469L195.739 46.6094C196.385 45.7969 197.229 45.3906 198.271 45.3906C200.057 45.3906 200.958 46.3984 200.974 48.4141V54H199.528V48.4062C199.523 47.7969 199.382 47.3464 199.106 47.0547C198.836 46.763 198.411 46.6172 197.833 46.6172C197.364 46.6172 196.953 46.7422 196.599 46.9922C196.244 47.2422 195.968 47.5703 195.771 47.9766V54H194.325V45.5469H195.692ZM205.114 43.5V45.5469H206.692V46.6641H205.114V51.9062C205.114 52.2448 205.185 52.5 205.325 52.6719C205.466 52.8385 205.705 52.9219 206.044 52.9219C206.211 52.9219 206.44 52.8906 206.731 52.8281V54C206.351 54.1042 205.981 54.1562 205.622 54.1562C204.976 54.1562 204.489 53.9609 204.161 53.5703C203.833 53.1797 203.669 52.625 203.669 51.9062V46.6641H202.13V45.5469H203.669V43.5H205.114ZM211.896 54.1562C210.75 54.1562 209.817 53.7812 209.099 53.0312C208.38 52.276 208.021 51.2682 208.021 50.0078V49.7422C208.021 48.9036 208.179 48.1562 208.497 47.5C208.82 46.8385 209.268 46.3229 209.841 45.9531C210.419 45.5781 211.044 45.3906 211.716 45.3906C212.815 45.3906 213.669 45.7526 214.278 46.4766C214.888 47.2005 215.192 48.237 215.192 49.5859V50.1875H209.466C209.487 51.0208 209.729 51.6953 210.192 52.2109C210.661 52.7214 211.255 52.9766 211.974 52.9766C212.484 52.9766 212.916 52.8724 213.271 52.6641C213.625 52.4557 213.935 52.1797 214.2 51.8359L215.083 52.5234C214.375 53.612 213.312 54.1562 211.896 54.1562ZM211.716 46.5781C211.132 46.5781 210.643 46.7917 210.247 47.2188C209.851 47.6406 209.606 48.2344 209.513 49H213.747V48.8906C213.705 48.1562 213.507 47.5885 213.153 47.1875C212.799 46.7812 212.32 46.5781 211.716 46.5781ZM220.958 46.8438C220.739 46.8073 220.502 46.7891 220.247 46.7891C219.299 46.7891 218.656 47.1927 218.317 48V54H216.872V45.5469H218.278L218.302 46.5234C218.776 45.7682 219.448 45.3906 220.317 45.3906C220.599 45.3906 220.812 45.4271 220.958 45.5V46.8438ZM227.708 46.5703C228.349 45.7839 229.182 45.3906 230.208 45.3906C231.994 45.3906 232.896 46.3984 232.911 48.4141V54H231.466V48.4062C231.461 47.7969 231.32 47.3464 231.044 47.0547C230.773 46.763 230.349 46.6172 229.771 46.6172C229.302 46.6172 228.89 46.7422 228.536 46.9922C228.182 47.2422 227.906 47.5703 227.708 47.9766V54H226.263V42H227.708V46.5703ZM236.646 54H235.2V45.5469H236.646V54ZM235.083 43.3047C235.083 43.0703 235.153 42.8724 235.294 42.7109C235.44 42.5495 235.653 42.4688 235.935 42.4688C236.216 42.4688 236.429 42.5495 236.575 42.7109C236.721 42.8724 236.794 43.0703 236.794 43.3047C236.794 43.5391 236.721 43.7344 236.575 43.8906C236.429 44.0469 236.216 44.125 235.935 44.125C235.653 44.125 235.44 44.0469 235.294 43.8906C235.153 43.7344 235.083 43.5391 235.083 43.3047ZM243.888 51.7578C243.888 51.3672 243.739 51.0651 243.442 50.8516C243.151 50.6328 242.638 50.4453 241.903 50.2891C241.174 50.1328 240.593 49.9453 240.161 49.7266C239.734 49.5078 239.416 49.2474 239.208 48.9453C239.005 48.6432 238.903 48.2839 238.903 47.8672C238.903 47.1745 239.195 46.5885 239.778 46.1094C240.367 45.6302 241.117 45.3906 242.028 45.3906C242.987 45.3906 243.763 45.638 244.356 46.1328C244.955 46.6276 245.255 47.2604 245.255 48.0312H243.802C243.802 47.6354 243.632 47.2943 243.294 47.0078C242.961 46.7214 242.539 46.5781 242.028 46.5781C241.502 46.5781 241.091 46.6927 240.794 46.9219C240.497 47.151 240.349 47.4505 240.349 47.8203C240.349 48.1693 240.487 48.4323 240.763 48.6094C241.039 48.7865 241.536 48.9557 242.255 49.1172C242.979 49.2786 243.565 49.4714 244.013 49.6953C244.461 49.9193 244.791 50.1901 245.005 50.5078C245.224 50.8203 245.333 51.2031 245.333 51.6562C245.333 52.4115 245.031 53.0182 244.427 53.4766C243.823 53.9297 243.039 54.1562 242.075 54.1562C241.398 54.1562 240.799 54.0365 240.278 53.7969C239.757 53.5573 239.349 53.224 239.052 52.7969C238.76 52.3646 238.614 51.8984 238.614 51.3984H240.06C240.086 51.8828 240.278 52.2682 240.638 52.5547C241.002 52.8359 241.481 52.9766 242.075 52.9766C242.622 52.9766 243.06 52.8672 243.388 52.6484C243.721 52.4245 243.888 52.1276 243.888 51.7578ZM252.911 49.5469V54H251.411V42.625H255.606C256.851 42.625 257.825 42.9427 258.528 43.5781C259.237 44.2135 259.591 45.0547 259.591 46.1016C259.591 47.2057 259.244 48.0573 258.552 48.6562C257.864 49.25 256.877 49.5469 255.591 49.5469H252.911ZM252.911 48.3203H255.606C256.409 48.3203 257.023 48.1328 257.45 47.7578C257.877 47.3776 258.091 46.8307 258.091 46.1172C258.091 45.4401 257.877 44.8984 257.45 44.4922C257.023 44.0859 256.437 43.875 255.692 43.8594H252.911V48.3203ZM263.114 54H261.614V42.625H263.114V54ZM274.606 54H273.099L267.372 45.2344V54H265.864V42.625H267.372L273.114 51.4297V42.625H274.606V54Z" fill="#6654A4"/>
<path d="M37.4786 47.688H40.3266C40.6146 45.448 42.2466 43.912 44.9666 43.912C47.7506 43.912 49.2226 45.448 49.2226 47.656C49.2226 50.344 47.1426 51.528 43.2706 51.56H42.5026V53.992H43.2386C47.3986 53.992 49.6706 55.24 49.6706 58.504C49.6706 60.872 48.1986 62.696 45.0946 62.696C42.0226 62.696 40.2306 60.808 39.9426 58.344H37.1266C37.4786 62.824 40.7426 65.16 45.1266 65.16C49.9586 65.16 52.4546 62.344 52.4546 58.76C52.4546 55.432 50.6306 53.448 47.9426 52.808V52.648C50.3746 52.104 52.0386 50.024 52.0386 47.368C52.0386 44.04 49.5746 41.416 45.0626 41.416C40.7746 41.416 37.7666 43.72 37.4786 47.688Z" fill="#6654A4"/>
<defs>
<filter id="filter0_d" x="0" y="0" width="594.56" height="113" filterUnits="userSpaceOnUse" color-interpolation-filters="sRGB">
<feFlood flood-opacity="0" result="BackgroundImageFix"/>
<feColorMatrix in="SourceAlpha" type="matrix" values="0 0 0 0 0 0 0 0 0 0 0 0 0 0 0 0 0 0 127 0"/>
<feMorphology radius="4" operator="dilate" in="SourceAlpha" result="effect1_dropShadow"/>
<feOffset dy="3"/>
<feGaussianBlur stdDeviation="7.5"/>
<feColorMatrix type="matrix" values="0 0 0 0 0.872109 0 0 0 0 0.853125 0 0 0 0 0.9375 0 0 0 0.5 0"/>
<feBlend mode="normal" in2="BackgroundImageFix" result="effect1_dropShadow"/>
<feBlend mode="normal" in="SourceGraphic" in2="effect1_dropShadow" result="shape"/>
</filter>
</defs>
</svg>
