<svg width="563" height="75" viewBox="0 0 563 75" fill="none" xmlns="http://www.w3.org/2000/svg">
<path d="M70.4033 34.3906C70.2627 35.5938 69.8174 36.5234 69.0674 37.1797C68.3226 37.8307 67.3304 38.1562 66.0908 38.1562C64.7471 38.1562 63.6689 37.6745 62.8564 36.7109C62.0492 35.7474 61.6455 34.4583 61.6455 32.8438V31.75C61.6455 30.6927 61.833 29.763 62.208 28.9609C62.5882 28.1589 63.1247 27.5443 63.8174 27.1172C64.5101 26.6849 65.3122 26.4688 66.2236 26.4688C67.432 26.4688 68.4007 26.8073 69.1299 27.4844C69.859 28.1562 70.2835 29.0885 70.4033 30.2812H68.8955C68.7653 29.375 68.4814 28.7188 68.0439 28.3125C67.6117 27.9062 67.0049 27.7031 66.2236 27.7031C65.2653 27.7031 64.5127 28.0573 63.9658 28.7656C63.4242 29.474 63.1533 30.4818 63.1533 31.7891V32.8906C63.1533 34.125 63.4111 35.1068 63.9268 35.8359C64.4424 36.5651 65.1637 36.9297 66.0908 36.9297C66.9242 36.9297 67.5622 36.7422 68.0049 36.3672C68.4528 35.987 68.7497 35.3281 68.8955 34.3906H70.4033ZM71.8486 33.6953C71.8486 32.8672 72.0101 32.1224 72.333 31.4609C72.6611 30.7995 73.1143 30.2891 73.6924 29.9297C74.2757 29.5703 74.9398 29.3906 75.6846 29.3906C76.8356 29.3906 77.7653 29.7891 78.4736 30.5859C79.1872 31.3828 79.5439 32.4427 79.5439 33.7656V33.8672C79.5439 34.6901 79.3851 35.4297 79.0674 36.0859C78.7549 36.737 78.3044 37.2448 77.7158 37.6094C77.1325 37.974 76.4606 38.1562 75.7002 38.1562C74.5544 38.1562 73.6247 37.7578 72.9111 36.9609C72.2028 36.1641 71.8486 35.1094 71.8486 33.7969V33.6953ZM73.3018 33.8672C73.3018 34.8047 73.5179 35.5573 73.9502 36.125C74.3877 36.6927 74.971 36.9766 75.7002 36.9766C76.4346 36.9766 77.0179 36.6901 77.4502 36.1172C77.8825 35.5391 78.0986 34.7318 78.0986 33.6953C78.0986 32.7682 77.8773 32.0182 77.4346 31.4453C76.9971 30.8672 76.4137 30.5781 75.6846 30.5781C74.971 30.5781 74.3955 30.862 73.958 31.4297C73.5205 31.9974 73.3018 32.8099 73.3018 33.8672ZM82.7236 29.5469L82.7705 30.6094C83.4163 29.7969 84.2601 29.3906 85.3018 29.3906C87.0882 29.3906 87.9893 30.3984 88.0049 32.4141V38H86.5596V32.4062C86.5544 31.7969 86.4137 31.3464 86.1377 31.0547C85.8669 30.763 85.4424 30.6172 84.8643 30.6172C84.3955 30.6172 83.984 30.7422 83.6299 30.9922C83.2757 31.2422 82.9997 31.5703 82.8018 31.9766V38H81.3564V29.5469H82.7236ZM95.1064 35.7578C95.1064 35.3672 94.958 35.0651 94.6611 34.8516C94.3695 34.6328 93.8564 34.4453 93.1221 34.2891C92.3929 34.1328 91.8122 33.9453 91.3799 33.7266C90.9528 33.5078 90.6351 33.2474 90.4268 32.9453C90.2236 32.6432 90.1221 32.2839 90.1221 31.8672C90.1221 31.1745 90.4137 30.5885 90.9971 30.1094C91.5856 29.6302 92.3356 29.3906 93.2471 29.3906C94.2054 29.3906 94.9814 29.638 95.5752 30.1328C96.1742 30.6276 96.4736 31.2604 96.4736 32.0312H95.0205C95.0205 31.6354 94.8512 31.2943 94.5127 31.0078C94.1794 30.7214 93.7575 30.5781 93.2471 30.5781C92.721 30.5781 92.3096 30.6927 92.0127 30.9219C91.7158 31.151 91.5674 31.4505 91.5674 31.8203C91.5674 32.1693 91.7054 32.4323 91.9814 32.6094C92.2575 32.7865 92.7549 32.9557 93.4736 33.1172C94.1976 33.2786 94.7835 33.4714 95.2314 33.6953C95.6794 33.9193 96.0101 34.1901 96.2236 34.5078C96.4424 34.8203 96.5518 35.2031 96.5518 35.6562C96.5518 36.4115 96.2497 37.0182 95.6455 37.4766C95.0413 37.9297 94.2575 38.1562 93.2939 38.1562C92.6169 38.1562 92.0179 38.0365 91.4971 37.7969C90.9762 37.5573 90.5674 37.224 90.2705 36.7969C89.9788 36.3646 89.833 35.8984 89.833 35.3984H91.2783C91.3044 35.8828 91.4971 36.2682 91.8564 36.5547C92.221 36.8359 92.7002 36.9766 93.2939 36.9766C93.8408 36.9766 94.2783 36.8672 94.6064 36.6484C94.9398 36.4245 95.1064 36.1276 95.1064 35.7578ZM103.653 37.1641C103.091 37.8255 102.265 38.1562 101.177 38.1562C100.276 38.1562 99.5882 37.8958 99.1143 37.375C98.6455 36.849 98.4085 36.0729 98.4033 35.0469V29.5469H99.8486V35.0078C99.8486 36.2891 100.369 36.9297 101.411 36.9297C102.515 36.9297 103.25 36.5182 103.614 35.6953V29.5469H105.06V38H103.685L103.653 37.1641ZM108.622 29.5469L108.661 30.4844C109.281 29.7552 110.117 29.3906 111.169 29.3906C112.351 29.3906 113.156 29.8438 113.583 30.75C113.864 30.3438 114.229 30.0156 114.677 29.7656C115.13 29.5156 115.664 29.3906 116.278 29.3906C118.132 29.3906 119.075 30.3724 119.106 32.3359V38H117.661V32.4219C117.661 31.8177 117.523 31.3672 117.247 31.0703C116.971 30.7682 116.507 30.6172 115.856 30.6172C115.32 30.6172 114.875 30.7786 114.521 31.1016C114.166 31.4193 113.961 31.849 113.903 32.3906V38H112.45V32.4609C112.45 31.2318 111.849 30.6172 110.646 30.6172C109.698 30.6172 109.049 31.0208 108.7 31.8281V38H107.255V29.5469H108.622ZM124.802 38.1562C123.656 38.1562 122.724 37.7812 122.005 37.0312C121.286 36.276 120.927 35.2682 120.927 34.0078V33.7422C120.927 32.9036 121.086 32.1562 121.403 31.5C121.726 30.8385 122.174 30.3229 122.747 29.9531C123.325 29.5781 123.95 29.3906 124.622 29.3906C125.721 29.3906 126.575 29.7526 127.185 30.4766C127.794 31.2005 128.099 32.237 128.099 33.5859V34.1875H122.372C122.393 35.0208 122.635 35.6953 123.099 36.2109C123.567 36.7214 124.161 36.9766 124.88 36.9766C125.39 36.9766 125.823 36.8724 126.177 36.6641C126.531 36.4557 126.841 36.1797 127.106 35.8359L127.989 36.5234C127.281 37.612 126.218 38.1562 124.802 38.1562ZM124.622 30.5781C124.039 30.5781 123.549 30.7917 123.153 31.2188C122.757 31.6406 122.513 32.2344 122.419 33H126.653V32.8906C126.612 32.1562 126.414 31.5885 126.06 31.1875C125.705 30.7812 125.226 30.5781 124.622 30.5781ZM133.864 30.8438C133.646 30.8073 133.409 30.7891 133.153 30.7891C132.205 30.7891 131.562 31.1927 131.224 32V38H129.778V29.5469H131.185L131.208 30.5234C131.682 29.7682 132.354 29.3906 133.224 29.3906C133.505 29.3906 133.718 29.4271 133.864 29.5V30.8438ZM146.653 36.0078L148.278 29.5469H149.724L147.263 38H146.091L144.036 31.5938L142.036 38H140.864L138.411 29.5469H139.849L141.513 35.875L143.481 29.5469H144.646L146.653 36.0078ZM152.771 38H151.325V29.5469H152.771V38ZM151.208 27.3047C151.208 27.0703 151.278 26.8724 151.419 26.7109C151.565 26.5495 151.778 26.4688 152.06 26.4688C152.341 26.4688 152.554 26.5495 152.7 26.7109C152.846 26.8724 152.919 27.0703 152.919 27.3047C152.919 27.5391 152.846 27.7344 152.7 27.8906C152.554 28.0469 152.341 28.125 152.06 28.125C151.778 28.125 151.565 28.0469 151.419 27.8906C151.278 27.7344 151.208 27.5391 151.208 27.3047ZM156.661 38H155.216V26H156.661V38ZM160.552 38H159.106V26H160.552V38ZM170.349 38.1562C169.203 38.1562 168.271 37.7812 167.552 37.0312C166.833 36.276 166.474 35.2682 166.474 34.0078V33.7422C166.474 32.9036 166.632 32.1562 166.95 31.5C167.273 30.8385 167.721 30.3229 168.294 29.9531C168.872 29.5781 169.497 29.3906 170.169 29.3906C171.268 29.3906 172.122 29.7526 172.731 30.4766C173.341 31.2005 173.646 32.237 173.646 33.5859V34.1875H167.919C167.94 35.0208 168.182 35.6953 168.646 36.2109C169.114 36.7214 169.708 36.9766 170.427 36.9766C170.937 36.9766 171.369 36.8724 171.724 36.6641C172.078 36.4557 172.388 36.1797 172.653 35.8359L173.536 36.5234C172.828 37.612 171.765 38.1562 170.349 38.1562ZM170.169 30.5781C169.586 30.5781 169.096 30.7917 168.7 31.2188C168.304 31.6406 168.06 32.2344 167.966 33H172.2V32.8906C172.159 32.1562 171.961 31.5885 171.606 31.1875C171.252 30.7812 170.773 30.5781 170.169 30.5781ZM176.692 29.5469L176.739 30.6094C177.385 29.7969 178.229 29.3906 179.271 29.3906C181.057 29.3906 181.958 30.3984 181.974 32.4141V38H180.528V32.4062C180.523 31.7969 180.382 31.3464 180.106 31.0547C179.836 30.763 179.411 30.6172 178.833 30.6172C178.364 30.6172 177.953 30.7422 177.599 30.9922C177.244 31.2422 176.968 31.5703 176.771 31.9766V38H175.325V29.5469H176.692ZM186.114 27.5V29.5469H187.692V30.6641H186.114V35.9062C186.114 36.2448 186.185 36.5 186.325 36.6719C186.466 36.8385 186.705 36.9219 187.044 36.9219C187.211 36.9219 187.44 36.8906 187.731 36.8281V38C187.351 38.1042 186.981 38.1562 186.622 38.1562C185.976 38.1562 185.489 37.9609 185.161 37.5703C184.833 37.1797 184.669 36.625 184.669 35.9062V30.6641H183.13V29.5469H184.669V27.5H186.114ZM192.896 38.1562C191.75 38.1562 190.817 37.7812 190.099 37.0312C189.38 36.276 189.021 35.2682 189.021 34.0078V33.7422C189.021 32.9036 189.179 32.1562 189.497 31.5C189.82 30.8385 190.268 30.3229 190.841 29.9531C191.419 29.5781 192.044 29.3906 192.716 29.3906C193.815 29.3906 194.669 29.7526 195.278 30.4766C195.888 31.2005 196.192 32.237 196.192 33.5859V34.1875H190.466C190.487 35.0208 190.729 35.6953 191.192 36.2109C191.661 36.7214 192.255 36.9766 192.974 36.9766C193.484 36.9766 193.916 36.8724 194.271 36.6641C194.625 36.4557 194.935 36.1797 195.2 35.8359L196.083 36.5234C195.375 37.612 194.312 38.1562 192.896 38.1562ZM192.716 30.5781C192.132 30.5781 191.643 30.7917 191.247 31.2188C190.851 31.6406 190.606 32.2344 190.513 33H194.747V32.8906C194.705 32.1562 194.507 31.5885 194.153 31.1875C193.799 30.7812 193.32 30.5781 192.716 30.5781ZM201.958 30.8438C201.739 30.8073 201.502 30.7891 201.247 30.7891C200.299 30.7891 199.656 31.1927 199.317 32V38H197.872V29.5469H199.278L199.302 30.5234C199.776 29.7682 200.448 29.3906 201.317 29.3906C201.599 29.3906 201.812 29.4271 201.958 29.5V30.8438ZM208.708 30.5703C209.349 29.7839 210.182 29.3906 211.208 29.3906C212.994 29.3906 213.896 30.3984 213.911 32.4141V38H212.466V32.4062C212.461 31.7969 212.32 31.3464 212.044 31.0547C211.773 30.763 211.349 30.6172 210.771 30.6172C210.302 30.6172 209.89 30.7422 209.536 30.9922C209.182 31.2422 208.906 31.5703 208.708 31.9766V38H207.263V26H208.708V30.5703ZM217.646 38H216.2V29.5469H217.646V38ZM216.083 27.3047C216.083 27.0703 216.153 26.8724 216.294 26.7109C216.44 26.5495 216.653 26.4688 216.935 26.4688C217.216 26.4688 217.429 26.5495 217.575 26.7109C217.721 26.8724 217.794 27.0703 217.794 27.3047C217.794 27.5391 217.721 27.7344 217.575 27.8906C217.429 28.0469 217.216 28.125 216.935 28.125C216.653 28.125 216.44 28.0469 216.294 27.8906C216.153 27.7344 216.083 27.5391 216.083 27.3047ZM224.888 35.7578C224.888 35.3672 224.739 35.0651 224.442 34.8516C224.151 34.6328 223.638 34.4453 222.903 34.2891C222.174 34.1328 221.593 33.9453 221.161 33.7266C220.734 33.5078 220.416 33.2474 220.208 32.9453C220.005 32.6432 219.903 32.2839 219.903 31.8672C219.903 31.1745 220.195 30.5885 220.778 30.1094C221.367 29.6302 222.117 29.3906 223.028 29.3906C223.987 29.3906 224.763 29.638 225.356 30.1328C225.955 30.6276 226.255 31.2604 226.255 32.0312H224.802C224.802 31.6354 224.632 31.2943 224.294 31.0078C223.961 30.7214 223.539 30.5781 223.028 30.5781C222.502 30.5781 222.091 30.6927 221.794 30.9219C221.497 31.151 221.349 31.4505 221.349 31.8203C221.349 32.1693 221.487 32.4323 221.763 32.6094C222.039 32.7865 222.536 32.9557 223.255 33.1172C223.979 33.2786 224.565 33.4714 225.013 33.6953C225.461 33.9193 225.791 34.1901 226.005 34.5078C226.224 34.8203 226.333 35.2031 226.333 35.6562C226.333 36.4115 226.031 37.0182 225.427 37.4766C224.823 37.9297 224.039 38.1562 223.075 38.1562C222.398 38.1562 221.799 38.0365 221.278 37.7969C220.757 37.5573 220.349 37.224 220.052 36.7969C219.76 36.3646 219.614 35.8984 219.614 35.3984H221.06C221.086 35.8828 221.278 36.2682 221.638 36.5547C222.002 36.8359 222.481 36.9766 223.075 36.9766C223.622 36.9766 224.06 36.8672 224.388 36.6484C224.721 36.4245 224.888 36.1276 224.888 35.7578ZM233.911 33.5469V38H232.411V26.625H236.606C237.851 26.625 238.825 26.9427 239.528 27.5781C240.237 28.2135 240.591 29.0547 240.591 30.1016C240.591 31.2057 240.244 32.0573 239.552 32.6562C238.864 33.25 237.877 33.5469 236.591 33.5469H233.911ZM233.911 32.3203H236.606C237.409 32.3203 238.023 32.1328 238.45 31.7578C238.877 31.3776 239.091 30.8307 239.091 30.1172C239.091 29.4401 238.877 28.8984 238.45 28.4922C238.023 28.0859 237.437 27.875 236.692 27.8594H233.911V32.3203ZM244.114 38H242.614V26.625H244.114V38ZM255.606 38H254.099L248.372 29.2344V38H246.864V26.625H248.372L254.114 35.4297V26.625H255.606V38Z" fill="#656668"/>
<path d="M18.4786 31.688H21.3266C21.6146 29.448 23.2466 27.912 25.9666 27.912C28.7506 27.912 30.2226 29.448 30.2226 31.656C30.2226 34.344 28.1426 35.528 24.2706 35.56H23.5026V37.992H24.2386C28.3986 37.992 30.6706 39.24 30.6706 42.504C30.6706 44.872 29.1986 46.696 26.0946 46.696C23.0226 46.696 21.2306 44.808 20.9426 42.344H18.1266C18.4786 46.824 21.7426 49.16 26.1266 49.16C30.9586 49.16 33.4546 46.344 33.4546 42.76C33.4546 39.432 31.6306 37.448 28.9426 36.808V36.648C31.3746 36.104 33.0386 34.024 33.0386 31.368C33.0386 28.04 30.5746 25.416 26.0626 25.416C21.7746 25.416 18.7666 27.72 18.4786 31.688Z" fill="#656668"/>
</svg>
