<svg width="189" height="63" viewBox="0 0 189 63" fill="none" xmlns="http://www.w3.org/2000/svg">
<path d="M22.629 13.4461C22.629 14.4341 21.927 15.0191 20.757 15.0191H18.664V11.8211H20.718C21.875 11.8211 22.629 12.4451 22.629 13.4461ZM22.395 9.37714C22.395 10.3001 21.758 10.8461 20.653 10.8461H18.664V7.90814H20.627C21.784 7.90814 22.395 8.48014 22.395 9.37714ZM23.812 13.5631C23.812 12.4451 23.006 11.4961 22.018 11.3271C22.889 11.0411 23.604 10.3781 23.604 9.23414C23.604 7.97314 22.642 6.93314 20.731 6.93314H17.481V15.9941H20.861C22.733 15.9941 23.812 14.9281 23.812 13.5631ZM25.0116 12.4061C25.0116 14.6161 26.4806 16.1111 28.3786 16.1111C29.6916 16.1111 30.6146 15.4351 31.0436 14.6681V15.9941H32.2396V8.87014H31.0436V10.1701C30.6276 9.42914 29.7176 8.75314 28.3916 8.75314C26.4806 8.75314 25.0116 10.1831 25.0116 12.4061ZM31.0436 12.4191C31.0436 14.0961 29.9256 15.0711 28.6256 15.0711C27.3256 15.0711 26.2206 14.0831 26.2206 12.4061C26.2206 10.7291 27.3256 9.78014 28.6256 9.78014C29.9256 9.78014 31.0436 10.7681 31.0436 12.4191ZM34.2388 15.9941H35.4218V6.37414H34.2388V15.9941ZM36.996 12.4061C36.996 14.6161 38.465 16.1111 40.363 16.1111C41.676 16.1111 42.599 15.4351 43.028 14.6681V15.9941H44.224V8.87014H43.028V10.1701C42.612 9.42914 41.702 8.75314 40.376 8.75314C38.465 8.75314 36.996 10.1831 36.996 12.4061ZM43.028 12.4191C43.028 14.0961 41.91 15.0711 40.61 15.0711C39.31 15.0711 38.205 14.0831 38.205 12.4061C38.205 10.7291 39.31 9.78014 40.61 9.78014C41.91 9.78014 43.028 10.7681 43.028 12.4191ZM51.4362 15.9941H52.6062V11.7951C52.6062 9.75414 51.3452 8.74014 49.6942 8.74014C48.7322 8.74014 47.8742 9.14314 47.4062 9.88414V8.87014H46.2232V15.9941H47.4062V12.0551C47.4062 10.5211 48.2382 9.76714 49.4472 9.76714C50.6432 9.76714 51.4362 10.5081 51.4362 11.9641V15.9941ZM54.0966 12.4191C54.0966 14.6811 55.5396 16.1111 57.5676 16.1111C59.3356 16.1111 60.4926 15.1231 60.8566 13.7061H59.5826C59.3226 14.6031 58.6206 15.1101 57.5676 15.1101C56.2676 15.1101 55.3056 14.1871 55.3056 12.4191C55.3056 10.6771 56.2676 9.75414 57.5676 9.75414C58.6206 9.75414 59.3356 10.3001 59.5826 11.1581H60.8566C60.4926 9.66314 59.3356 8.75314 57.5676 8.75314C55.5396 8.75314 54.0966 10.1831 54.0966 12.4191ZM65.4641 9.75414C66.6861 9.75414 67.7261 10.5211 67.7131 11.9121H63.2151C63.3451 10.5211 64.3071 9.75414 65.4641 9.75414ZM68.7921 13.7971H67.5181C67.2581 14.5641 66.5821 15.1101 65.5161 15.1101C64.3071 15.1101 63.2931 14.3171 63.2021 12.8741H68.8961C68.9221 12.6271 68.9351 12.4191 68.9351 12.1591C68.9351 10.2091 67.5831 8.75314 65.5161 8.75314C63.4361 8.75314 61.9931 10.1701 61.9931 12.4191C61.9931 14.6811 63.4881 16.1111 65.5161 16.1111C67.2841 16.1111 68.4281 15.0971 68.7921 13.7971ZM75.3534 15.9941H76.5754L78.2914 10.3391L80.0074 15.9941H81.2294L83.4524 8.87014H82.2824L80.6704 14.8631L78.9414 8.87014H77.7324L75.9644 14.8501L74.3264 8.87014H73.1174L75.3534 15.9941ZM84.6265 15.9941H85.8095V8.87014H84.6265V15.9941ZM85.2375 7.71314C85.6665 7.71314 86.0175 7.36214 86.0175 6.90714C86.0175 6.45214 85.6665 6.10114 85.2375 6.10114C84.7825 6.10114 84.4315 6.45214 84.4315 6.90714C84.4315 7.36214 84.7825 7.71314 85.2375 7.71314ZM87.8257 15.9941H89.0087V6.37414H87.8257V15.9941ZM91.0249 15.9941H92.2079V6.37414H91.0249V15.9941ZM98.873 10.1961V6.37414H97.69V15.9941H98.873V14.6811C99.315 15.4611 100.238 16.1111 101.538 16.1111C103.449 16.1111 104.918 14.6161 104.918 12.4061C104.918 10.1831 103.462 8.75314 101.538 8.75314C100.277 8.75314 99.328 9.40314 98.873 10.1961ZM103.709 12.4061C103.709 14.0831 102.604 15.0711 101.291 15.0711C100.004 15.0711 98.873 14.0961 98.873 12.4191C98.873 10.7681 100.004 9.78014 101.291 9.78014C102.604 9.78014 103.709 10.7291 103.709 12.4061ZM109.504 9.75414C110.726 9.75414 111.766 10.5211 111.753 11.9121H107.255C107.385 10.5211 108.347 9.75414 109.504 9.75414ZM112.832 13.7971H111.558C111.298 14.5641 110.622 15.1101 109.556 15.1101C108.347 15.1101 107.333 14.3171 107.242 12.8741H112.936C112.962 12.6271 112.975 12.4191 112.975 12.1591C112.975 10.2091 111.623 8.75314 109.556 8.75314C107.476 8.75314 106.033 10.1701 106.033 12.4191C106.033 14.6811 107.528 16.1111 109.556 16.1111C111.324 16.1111 112.468 15.0971 112.832 13.7971ZM124.32 8.87014H123.137V12.7831C123.137 14.3171 122.318 15.0711 121.096 15.0711C119.9 15.0711 119.107 14.3301 119.107 12.8871V8.87014H117.937V13.0431C117.937 15.0841 119.224 16.0981 120.862 16.0981C121.811 16.0981 122.682 15.6821 123.137 14.9411V15.9941H124.32V8.87014ZM127.501 10.1831V8.87014H126.318V19.3741H127.501V14.6811C127.943 15.4091 128.866 16.1111 130.166 16.1111C132.077 16.1111 133.546 14.6161 133.546 12.4061C133.546 10.1831 132.077 8.75314 130.166 8.75314C128.866 8.75314 127.93 9.42914 127.501 10.1831ZM132.337 12.4061C132.337 14.0831 131.232 15.0711 129.919 15.0711C128.632 15.0711 127.501 14.0961 127.501 12.4191C127.501 10.7681 128.632 9.78014 129.919 9.78014C131.232 9.78014 132.337 10.7291 132.337 12.4061ZM134.661 12.4061C134.661 14.6161 136.13 16.1111 138.041 16.1111C139.341 16.1111 140.264 15.4481 140.693 14.6551V15.9941H141.889V6.37414H140.693V10.1441C140.199 9.32514 139.172 8.75314 138.054 8.75314C136.13 8.75314 134.661 10.1831 134.661 12.4061ZM140.693 12.4191C140.693 14.0961 139.575 15.0711 138.275 15.0711C136.975 15.0711 135.87 14.0831 135.87 12.4061C135.87 10.7291 136.975 9.78014 138.275 9.78014C139.575 9.78014 140.693 10.7681 140.693 12.4191ZM143.446 12.4061C143.446 14.6161 144.915 16.1111 146.813 16.1111C148.126 16.1111 149.049 15.4351 149.478 14.6681V15.9941H150.674V8.87014H149.478V10.1701C149.062 9.42914 148.152 8.75314 146.826 8.75314C144.915 8.75314 143.446 10.1831 143.446 12.4061ZM149.478 12.4191C149.478 14.0961 148.36 15.0711 147.06 15.0711C145.76 15.0711 144.655 14.0831 144.655 12.4061C144.655 10.7291 145.76 9.78014 147.06 9.78014C148.36 9.78014 149.478 10.7681 149.478 12.4191ZM152.933 14.0441C152.933 15.4741 153.648 15.9941 154.909 15.9941H155.975V14.9931H155.104C154.376 14.9931 154.116 14.7461 154.116 14.0441V9.84514H155.975V8.87014H154.116V7.07614H152.933V8.87014H152.01V9.84514H152.933V14.0441ZM160.438 9.75414C161.66 9.75414 162.7 10.5211 162.687 11.9121H158.189C158.319 10.5211 159.281 9.75414 160.438 9.75414ZM163.766 13.7971H162.492C162.232 14.5641 161.556 15.1101 160.49 15.1101C159.281 15.1101 158.267 14.3171 158.176 12.8741H163.87C163.896 12.6271 163.909 12.4191 163.909 12.1591C163.909 10.2091 162.557 8.75314 160.49 8.75314C158.41 8.75314 156.967 10.1701 156.967 12.4191C156.967 14.6811 158.462 16.1111 160.49 16.1111C162.258 16.1111 163.402 15.0971 163.766 13.7971ZM165.028 12.4061C165.028 14.6161 166.497 16.1111 168.408 16.1111C169.708 16.1111 170.631 15.4481 171.06 14.6551V15.9941H172.256V6.37414H171.06V10.1441C170.566 9.32514 169.539 8.75314 168.421 8.75314C166.497 8.75314 165.028 10.1831 165.028 12.4061ZM171.06 12.4191C171.06 14.0961 169.942 15.0711 168.642 15.0711C167.342 15.0711 166.237 14.0831 166.237 12.4061C166.237 10.7291 167.342 9.78014 168.642 9.78014C169.942 9.78014 171.06 10.7681 171.06 12.4191Z" fill="#494B52"/>
</svg>
