<svg width="595" height="346" viewBox="0 0 595 346" fill="none" xmlns="http://www.w3.org/2000/svg">
<g filter="url(#filter0_d)">
<rect x="19" y="16" width="556.56" height="75" rx="24" fill="white"/>
</g>
<path d="M89.4033 52.3906C89.2627 53.5938 88.8174 54.5234 88.0674 55.1797C87.3226 55.8307 86.3304 56.1562 85.0908 56.1562C83.7471 56.1562 82.6689 55.6745 81.8564 54.7109C81.0492 53.7474 80.6455 52.4583 80.6455 50.8438V49.75C80.6455 48.6927 80.833 47.763 81.208 46.9609C81.5882 46.1589 82.1247 45.5443 82.8174 45.1172C83.5101 44.6849 84.3122 44.4688 85.2236 44.4688C86.432 44.4688 87.4007 44.8073 88.1299 45.4844C88.859 46.1562 89.2835 47.0885 89.4033 48.2812H87.8955C87.7653 47.375 87.4814 46.7188 87.0439 46.3125C86.6117 45.9062 86.0049 45.7031 85.2236 45.7031C84.2653 45.7031 83.5127 46.0573 82.9658 46.7656C82.4242 47.474 82.1533 48.4818 82.1533 49.7891V50.8906C82.1533 52.125 82.4111 53.1068 82.9268 53.8359C83.4424 54.5651 84.1637 54.9297 85.0908 54.9297C85.9242 54.9297 86.5622 54.7422 87.0049 54.3672C87.4528 53.987 87.7497 53.3281 87.8955 52.3906H89.4033ZM90.8486 51.6953C90.8486 50.8672 91.0101 50.1224 91.333 49.4609C91.6611 48.7995 92.1143 48.2891 92.6924 47.9297C93.2757 47.5703 93.9398 47.3906 94.6846 47.3906C95.8356 47.3906 96.7653 47.7891 97.4736 48.5859C98.1872 49.3828 98.5439 50.4427 98.5439 51.7656V51.8672C98.5439 52.6901 98.3851 53.4297 98.0674 54.0859C97.7549 54.737 97.3044 55.2448 96.7158 55.6094C96.1325 55.974 95.4606 56.1562 94.7002 56.1562C93.5544 56.1562 92.6247 55.7578 91.9111 54.9609C91.2028 54.1641 90.8486 53.1094 90.8486 51.7969V51.6953ZM92.3018 51.8672C92.3018 52.8047 92.5179 53.5573 92.9502 54.125C93.3877 54.6927 93.971 54.9766 94.7002 54.9766C95.4346 54.9766 96.0179 54.6901 96.4502 54.1172C96.8825 53.5391 97.0986 52.7318 97.0986 51.6953C97.0986 50.7682 96.8773 50.0182 96.4346 49.4453C95.9971 48.8672 95.4137 48.5781 94.6846 48.5781C93.971 48.5781 93.3955 48.862 92.958 49.4297C92.5205 49.9974 92.3018 50.8099 92.3018 51.8672ZM101.724 47.5469L101.771 48.6094C102.416 47.7969 103.26 47.3906 104.302 47.3906C106.088 47.3906 106.989 48.3984 107.005 50.4141V56H105.56V50.4062C105.554 49.7969 105.414 49.3464 105.138 49.0547C104.867 48.763 104.442 48.6172 103.864 48.6172C103.396 48.6172 102.984 48.7422 102.63 48.9922C102.276 49.2422 102 49.5703 101.802 49.9766V56H100.356V47.5469H101.724ZM114.106 53.7578C114.106 53.3672 113.958 53.0651 113.661 52.8516C113.369 52.6328 112.856 52.4453 112.122 52.2891C111.393 52.1328 110.812 51.9453 110.38 51.7266C109.953 51.5078 109.635 51.2474 109.427 50.9453C109.224 50.6432 109.122 50.2839 109.122 49.8672C109.122 49.1745 109.414 48.5885 109.997 48.1094C110.586 47.6302 111.336 47.3906 112.247 47.3906C113.205 47.3906 113.981 47.638 114.575 48.1328C115.174 48.6276 115.474 49.2604 115.474 50.0312H114.021C114.021 49.6354 113.851 49.2943 113.513 49.0078C113.179 48.7214 112.757 48.5781 112.247 48.5781C111.721 48.5781 111.31 48.6927 111.013 48.9219C110.716 49.151 110.567 49.4505 110.567 49.8203C110.567 50.1693 110.705 50.4323 110.981 50.6094C111.257 50.7865 111.755 50.9557 112.474 51.1172C113.198 51.2786 113.784 51.4714 114.231 51.6953C114.679 51.9193 115.01 52.1901 115.224 52.5078C115.442 52.8203 115.552 53.2031 115.552 53.6562C115.552 54.4115 115.25 55.0182 114.646 55.4766C114.041 55.9297 113.257 56.1562 112.294 56.1562C111.617 56.1562 111.018 56.0365 110.497 55.7969C109.976 55.5573 109.567 55.224 109.271 54.7969C108.979 54.3646 108.833 53.8984 108.833 53.3984H110.278C110.304 53.8828 110.497 54.2682 110.856 54.5547C111.221 54.8359 111.7 54.9766 112.294 54.9766C112.841 54.9766 113.278 54.8672 113.606 54.6484C113.94 54.4245 114.106 54.1276 114.106 53.7578ZM122.653 55.1641C122.091 55.8255 121.265 56.1562 120.177 56.1562C119.276 56.1562 118.588 55.8958 118.114 55.375C117.646 54.849 117.409 54.0729 117.403 53.0469V47.5469H118.849V53.0078C118.849 54.2891 119.369 54.9297 120.411 54.9297C121.515 54.9297 122.25 54.5182 122.614 53.6953V47.5469H124.06V56H122.685L122.653 55.1641ZM127.622 47.5469L127.661 48.4844C128.281 47.7552 129.117 47.3906 130.169 47.3906C131.351 47.3906 132.156 47.8438 132.583 48.75C132.864 48.3438 133.229 48.0156 133.677 47.7656C134.13 47.5156 134.664 47.3906 135.278 47.3906C137.132 47.3906 138.075 48.3724 138.106 50.3359V56H136.661V50.4219C136.661 49.8177 136.523 49.3672 136.247 49.0703C135.971 48.7682 135.507 48.6172 134.856 48.6172C134.32 48.6172 133.875 48.7786 133.521 49.1016C133.166 49.4193 132.961 49.849 132.903 50.3906V56H131.45V50.4609C131.45 49.2318 130.849 48.6172 129.646 48.6172C128.698 48.6172 128.049 49.0208 127.7 49.8281V56H126.255V47.5469H127.622ZM143.802 56.1562C142.656 56.1562 141.724 55.7812 141.005 55.0312C140.286 54.276 139.927 53.2682 139.927 52.0078V51.7422C139.927 50.9036 140.086 50.1562 140.403 49.5C140.726 48.8385 141.174 48.3229 141.747 47.9531C142.325 47.5781 142.95 47.3906 143.622 47.3906C144.721 47.3906 145.575 47.7526 146.185 48.4766C146.794 49.2005 147.099 50.237 147.099 51.5859V52.1875H141.372C141.393 53.0208 141.635 53.6953 142.099 54.2109C142.567 54.7214 143.161 54.9766 143.88 54.9766C144.39 54.9766 144.823 54.8724 145.177 54.6641C145.531 54.4557 145.841 54.1797 146.106 53.8359L146.989 54.5234C146.281 55.612 145.218 56.1562 143.802 56.1562ZM143.622 48.5781C143.039 48.5781 142.549 48.7917 142.153 49.2188C141.757 49.6406 141.513 50.2344 141.419 51H145.653V50.8906C145.612 50.1562 145.414 49.5885 145.06 49.1875C144.705 48.7812 144.226 48.5781 143.622 48.5781ZM152.864 48.8438C152.646 48.8073 152.409 48.7891 152.153 48.7891C151.205 48.7891 150.562 49.1927 150.224 50V56H148.778V47.5469H150.185L150.208 48.5234C150.682 47.7682 151.354 47.3906 152.224 47.3906C152.505 47.3906 152.718 47.4271 152.864 47.5V48.8438ZM165.653 54.0078L167.278 47.5469H168.724L166.263 56H165.091L163.036 49.5938L161.036 56H159.864L157.411 47.5469H158.849L160.513 53.875L162.481 47.5469H163.646L165.653 54.0078ZM171.771 56H170.325V47.5469H171.771V56ZM170.208 45.3047C170.208 45.0703 170.278 44.8724 170.419 44.7109C170.565 44.5495 170.778 44.4688 171.06 44.4688C171.341 44.4688 171.554 44.5495 171.7 44.7109C171.846 44.8724 171.919 45.0703 171.919 45.3047C171.919 45.5391 171.846 45.7344 171.7 45.8906C171.554 46.0469 171.341 46.125 171.06 46.125C170.778 46.125 170.565 46.0469 170.419 45.8906C170.278 45.7344 170.208 45.5391 170.208 45.3047ZM175.661 56H174.216V44H175.661V56ZM179.552 56H178.106V44H179.552V56ZM190.763 53.7578C190.763 53.3672 190.614 53.0651 190.317 52.8516C190.026 52.6328 189.513 52.4453 188.778 52.2891C188.049 52.1328 187.468 51.9453 187.036 51.7266C186.609 51.5078 186.291 51.2474 186.083 50.9453C185.88 50.6432 185.778 50.2839 185.778 49.8672C185.778 49.1745 186.07 48.5885 186.653 48.1094C187.242 47.6302 187.992 47.3906 188.903 47.3906C189.862 47.3906 190.638 47.638 191.231 48.1328C191.83 48.6276 192.13 49.2604 192.13 50.0312H190.677C190.677 49.6354 190.507 49.2943 190.169 49.0078C189.836 48.7214 189.414 48.5781 188.903 48.5781C188.377 48.5781 187.966 48.6927 187.669 48.9219C187.372 49.151 187.224 49.4505 187.224 49.8203C187.224 50.1693 187.362 50.4323 187.638 50.6094C187.914 50.7865 188.411 50.9557 189.13 51.1172C189.854 51.2786 190.44 51.4714 190.888 51.6953C191.336 51.9193 191.666 52.1901 191.88 52.5078C192.099 52.8203 192.208 53.2031 192.208 53.6562C192.208 54.4115 191.906 55.0182 191.302 55.4766C190.698 55.9297 189.914 56.1562 188.95 56.1562C188.273 56.1562 187.674 56.0365 187.153 55.7969C186.632 55.5573 186.224 55.224 185.927 54.7969C185.635 54.3646 185.489 53.8984 185.489 53.3984H186.935C186.961 53.8828 187.153 54.2682 187.513 54.5547C187.877 54.8359 188.356 54.9766 188.95 54.9766C189.497 54.9766 189.935 54.8672 190.263 54.6484C190.596 54.4245 190.763 54.1276 190.763 53.7578ZM197.599 56.1562C196.453 56.1562 195.521 55.7812 194.802 55.0312C194.083 54.276 193.724 53.2682 193.724 52.0078V51.7422C193.724 50.9036 193.882 50.1562 194.2 49.5C194.523 48.8385 194.971 48.3229 195.544 47.9531C196.122 47.5781 196.747 47.3906 197.419 47.3906C198.518 47.3906 199.372 47.7526 199.981 48.4766C200.591 49.2005 200.896 50.237 200.896 51.5859V52.1875H195.169C195.19 53.0208 195.432 53.6953 195.896 54.2109C196.364 54.7214 196.958 54.9766 197.677 54.9766C198.187 54.9766 198.619 54.8724 198.974 54.6641C199.328 54.4557 199.638 54.1797 199.903 53.8359L200.786 54.5234C200.078 55.612 199.015 56.1562 197.599 56.1562ZM197.419 48.5781C196.836 48.5781 196.346 48.7917 195.95 49.2188C195.554 49.6406 195.31 50.2344 195.216 51H199.45V50.8906C199.409 50.1562 199.211 49.5885 198.856 49.1875C198.502 48.7812 198.023 48.5781 197.419 48.5781ZM204.146 56H202.7V44H204.146V56ZM209.974 56.1562C208.828 56.1562 207.896 55.7812 207.177 55.0312C206.458 54.276 206.099 53.2682 206.099 52.0078V51.7422C206.099 50.9036 206.257 50.1562 206.575 49.5C206.898 48.8385 207.346 48.3229 207.919 47.9531C208.497 47.5781 209.122 47.3906 209.794 47.3906C210.893 47.3906 211.747 47.7526 212.356 48.4766C212.966 49.2005 213.271 50.237 213.271 51.5859V52.1875H207.544C207.565 53.0208 207.807 53.6953 208.271 54.2109C208.739 54.7214 209.333 54.9766 210.052 54.9766C210.562 54.9766 210.994 54.8724 211.349 54.6641C211.703 54.4557 212.013 54.1797 212.278 53.8359L213.161 54.5234C212.453 55.612 211.39 56.1562 209.974 56.1562ZM209.794 48.5781C209.211 48.5781 208.721 48.7917 208.325 49.2188C207.929 49.6406 207.685 50.2344 207.591 51H211.825V50.8906C211.784 50.1562 211.586 49.5885 211.231 49.1875C210.877 48.7812 210.398 48.5781 209.794 48.5781ZM218.341 54.9766C218.856 54.9766 219.307 54.8203 219.692 54.5078C220.078 54.1953 220.291 53.8047 220.333 53.3359H221.7C221.674 53.8203 221.507 54.2812 221.2 54.7188C220.893 55.1562 220.481 55.5052 219.966 55.7656C219.455 56.026 218.914 56.1562 218.341 56.1562C217.19 56.1562 216.273 55.7734 215.591 55.0078C214.914 54.237 214.575 53.1849 214.575 51.8516V51.6094C214.575 50.7865 214.726 50.0547 215.028 49.4141C215.33 48.7734 215.763 48.276 216.325 47.9219C216.893 47.5677 217.562 47.3906 218.333 47.3906C219.281 47.3906 220.067 47.6745 220.692 48.2422C221.323 48.8099 221.659 49.5469 221.7 50.4531H220.333C220.291 49.9062 220.083 49.4583 219.708 49.1094C219.338 48.7552 218.88 48.5781 218.333 48.5781C217.599 48.5781 217.028 48.8438 216.622 49.375C216.221 49.901 216.021 50.6641 216.021 51.6641V51.9375C216.021 52.9115 216.221 53.6615 216.622 54.1875C217.023 54.7135 217.596 54.9766 218.341 54.9766ZM225.286 45.5V47.5469H226.864V48.6641H225.286V53.9062C225.286 54.2448 225.356 54.5 225.497 54.6719C225.638 54.8385 225.877 54.9219 226.216 54.9219C226.382 54.9219 226.612 54.8906 226.903 54.8281V56C226.523 56.1042 226.153 56.1562 225.794 56.1562C225.148 56.1562 224.661 55.9609 224.333 55.5703C224.005 55.1797 223.841 54.625 223.841 53.9062V48.6641H222.302V47.5469H223.841V45.5H225.286ZM234.489 45.5V47.5469H236.067V48.6641H234.489V53.9062C234.489 54.2448 234.56 54.5 234.7 54.6719C234.841 54.8385 235.08 54.9219 235.419 54.9219C235.586 54.9219 235.815 54.8906 236.106 54.8281V56C235.726 56.1042 235.356 56.1562 234.997 56.1562C234.351 56.1562 233.864 55.9609 233.536 55.5703C233.208 55.1797 233.044 54.625 233.044 53.9062V48.6641H231.505V47.5469H233.044V45.5H234.489ZM237.224 51.6953C237.224 50.8672 237.385 50.1224 237.708 49.4609C238.036 48.7995 238.489 48.2891 239.067 47.9297C239.651 47.5703 240.315 47.3906 241.06 47.3906C242.211 47.3906 243.14 47.7891 243.849 48.5859C244.562 49.3828 244.919 50.4427 244.919 51.7656V51.8672C244.919 52.6901 244.76 53.4297 244.442 54.0859C244.13 54.737 243.679 55.2448 243.091 55.6094C242.507 55.974 241.836 56.1562 241.075 56.1562C239.929 56.1562 239 55.7578 238.286 54.9609C237.578 54.1641 237.224 53.1094 237.224 51.7969V51.6953ZM238.677 51.8672C238.677 52.8047 238.893 53.5573 239.325 54.125C239.763 54.6927 240.346 54.9766 241.075 54.9766C241.81 54.9766 242.393 54.6901 242.825 54.1172C243.257 53.5391 243.474 52.7318 243.474 51.6953C243.474 50.7682 243.252 50.0182 242.81 49.4453C242.372 48.8672 241.789 48.5781 241.06 48.5781C240.346 48.5781 239.771 48.862 239.333 49.4297C238.896 49.9974 238.677 50.8099 238.677 51.8672ZM258.185 54.0078L259.81 47.5469H261.255L258.794 56H257.622L255.567 49.5938L253.567 56H252.396L249.942 47.5469H251.38L253.044 53.875L255.013 47.5469H256.177L258.185 54.0078ZM264.302 56H262.856V47.5469H264.302V56ZM262.739 45.3047C262.739 45.0703 262.81 44.8724 262.95 44.7109C263.096 44.5495 263.31 44.4688 263.591 44.4688C263.872 44.4688 264.086 44.5495 264.231 44.7109C264.377 44.8724 264.45 45.0703 264.45 45.3047C264.45 45.5391 264.377 45.7344 264.231 45.8906C264.086 46.0469 263.872 46.125 263.591 46.125C263.31 46.125 263.096 46.0469 262.95 45.8906C262.81 45.7344 262.739 45.5391 262.739 45.3047ZM268.583 45.5V47.5469H270.161V48.6641H268.583V53.9062C268.583 54.2448 268.653 54.5 268.794 54.6719C268.935 54.8385 269.174 54.9219 269.513 54.9219C269.679 54.9219 269.909 54.8906 270.2 54.8281V56C269.82 56.1042 269.45 56.1562 269.091 56.1562C268.445 56.1562 267.958 55.9609 267.63 55.5703C267.302 55.1797 267.138 54.625 267.138 53.9062V48.6641H265.599V47.5469H267.138V45.5H268.583ZM273.302 48.5703C273.942 47.7839 274.776 47.3906 275.802 47.3906C277.588 47.3906 278.489 48.3984 278.505 50.4141V56H277.06V50.4062C277.054 49.7969 276.914 49.3464 276.638 49.0547C276.367 48.763 275.942 48.6172 275.364 48.6172C274.896 48.6172 274.484 48.7422 274.13 48.9922C273.776 49.2422 273.5 49.5703 273.302 49.9766V56H271.856V44H273.302V48.5703ZM280.317 51.7031C280.317 50.4062 280.625 49.3646 281.239 48.5781C281.854 47.7865 282.659 47.3906 283.653 47.3906C284.643 47.3906 285.427 47.7292 286.005 48.4062V44H287.45V56H286.122L286.052 55.0938C285.474 55.8021 284.669 56.1562 283.638 56.1562C282.659 56.1562 281.859 55.7552 281.239 54.9531C280.625 54.151 280.317 53.1042 280.317 51.8125V51.7031ZM281.763 51.8672C281.763 52.8255 281.961 53.5755 282.356 54.1172C282.752 54.6589 283.299 54.9297 283.997 54.9297C284.914 54.9297 285.583 54.5182 286.005 53.6953V49.8125C285.573 49.0156 284.909 48.6172 284.013 48.6172C283.304 48.6172 282.752 48.8906 282.356 49.4375C281.961 49.9844 281.763 50.7943 281.763 51.8672ZM293.786 48.8438C293.567 48.8073 293.33 48.7891 293.075 48.7891C292.127 48.7891 291.484 49.1927 291.146 50V56H289.7V47.5469H291.106L291.13 48.5234C291.604 47.7682 292.276 47.3906 293.146 47.3906C293.427 47.3906 293.64 47.4271 293.786 47.5V48.8438ZM300.028 56C299.945 55.8333 299.877 55.5365 299.825 55.1094C299.153 55.8073 298.351 56.1562 297.419 56.1562C296.586 56.1562 295.901 55.9219 295.364 55.4531C294.833 54.9792 294.567 54.3802 294.567 53.6562C294.567 52.776 294.901 52.0938 295.567 51.6094C296.239 51.1198 297.182 50.875 298.396 50.875H299.802V50.2109C299.802 49.7057 299.651 49.3047 299.349 49.0078C299.047 48.7057 298.601 48.5547 298.013 48.5547C297.497 48.5547 297.065 48.6849 296.716 48.9453C296.367 49.2057 296.192 49.5208 296.192 49.8906H294.739C294.739 49.4688 294.888 49.0625 295.185 48.6719C295.487 48.276 295.893 47.9635 296.403 47.7344C296.919 47.5052 297.484 47.3906 298.099 47.3906C299.073 47.3906 299.836 47.6354 300.388 48.125C300.94 48.6094 301.226 49.2786 301.247 50.1328V54.0234C301.247 54.7995 301.346 55.4167 301.544 55.875V56H300.028ZM297.63 54.8984C298.083 54.8984 298.513 54.7812 298.919 54.5469C299.325 54.3125 299.619 54.0078 299.802 53.6328V51.8984H298.669C296.898 51.8984 296.013 52.4167 296.013 53.4531C296.013 53.9062 296.164 54.2604 296.466 54.5156C296.768 54.7708 297.156 54.8984 297.63 54.8984ZM310.997 54.0078L312.622 47.5469H314.067L311.606 56H310.435L308.38 49.5938L306.38 56H305.208L302.755 47.5469H304.192L305.856 53.875L307.825 47.5469H308.989L310.997 54.0078ZM320.224 56V48.6641H318.888V47.5469H320.224V46.6797C320.224 45.7734 320.466 45.0729 320.95 44.5781C321.435 44.0833 322.119 43.8359 323.005 43.8359C323.338 43.8359 323.669 43.8802 323.997 43.9688L323.919 45.1406C323.674 45.0938 323.414 45.0703 323.138 45.0703C322.669 45.0703 322.307 45.2083 322.052 45.4844C321.797 45.7552 321.669 46.1458 321.669 46.6562V47.5469H323.474V48.6641H321.669V56H320.224ZM329.161 48.8438C328.942 48.8073 328.705 48.7891 328.45 48.7891C327.502 48.7891 326.859 49.1927 326.521 50V56H325.075V47.5469H326.481L326.505 48.5234C326.979 47.7682 327.651 47.3906 328.521 47.3906C328.802 47.3906 329.015 47.4271 329.161 47.5V48.8438ZM329.958 51.6953C329.958 50.8672 330.119 50.1224 330.442 49.4609C330.771 48.7995 331.224 48.2891 331.802 47.9297C332.385 47.5703 333.049 47.3906 333.794 47.3906C334.945 47.3906 335.875 47.7891 336.583 48.5859C337.297 49.3828 337.653 50.4427 337.653 51.7656V51.8672C337.653 52.6901 337.494 53.4297 337.177 54.0859C336.864 54.737 336.414 55.2448 335.825 55.6094C335.242 55.974 334.57 56.1562 333.81 56.1562C332.664 56.1562 331.734 55.7578 331.021 54.9609C330.312 54.1641 329.958 53.1094 329.958 51.7969V51.6953ZM331.411 51.8672C331.411 52.8047 331.627 53.5573 332.06 54.125C332.497 54.6927 333.08 54.9766 333.81 54.9766C334.544 54.9766 335.127 54.6901 335.56 54.1172C335.992 53.5391 336.208 52.7318 336.208 51.6953C336.208 50.7682 335.987 50.0182 335.544 49.4453C335.106 48.8672 334.523 48.5781 333.794 48.5781C333.08 48.5781 332.505 48.862 332.067 49.4297C331.63 49.9974 331.411 50.8099 331.411 51.8672ZM340.825 47.5469L340.864 48.4844C341.484 47.7552 342.32 47.3906 343.372 47.3906C344.554 47.3906 345.359 47.8438 345.786 48.75C346.067 48.3438 346.432 48.0156 346.88 47.7656C347.333 47.5156 347.867 47.3906 348.481 47.3906C350.336 47.3906 351.278 48.3724 351.31 50.3359V56H349.864V50.4219C349.864 49.8177 349.726 49.3672 349.45 49.0703C349.174 48.7682 348.711 48.6172 348.06 48.6172C347.523 48.6172 347.078 48.7786 346.724 49.1016C346.369 49.4193 346.164 49.849 346.106 50.3906V56H344.653V50.4609C344.653 49.2318 344.052 48.6172 342.849 48.6172C341.901 48.6172 341.252 49.0208 340.903 49.8281V56H339.458V47.5469H340.825ZM363.974 53.0312H359.208L358.138 56H356.591L360.935 44.625H362.247L366.599 56H365.06L363.974 53.0312ZM359.661 51.7969H363.528L361.591 46.4766L359.661 51.7969ZM374.974 45.8594H371.317V56H369.825V45.8594H366.177V44.625H374.974V45.8594ZM378.599 44.625L382.317 53.9062L386.036 44.625H387.981V56H386.481V51.5703L386.622 46.7891L382.888 56H381.739L378.013 46.8125L378.161 51.5703V56H376.661V44.625H378.599Z" fill="#6654A4"/>
<path d="M46.286 64H49.23V40.864H43.214V43.52H46.286V64Z" fill="#6654A4"/>
<path d="M89.6875 136.391C89.5469 137.594 89.1016 138.523 88.3516 139.18C87.6068 139.831 86.6146 140.156 85.375 140.156C84.0312 140.156 82.9531 139.674 82.1406 138.711C81.3333 137.747 80.9297 136.458 80.9297 134.844V133.75C80.9297 132.693 81.1172 131.763 81.4922 130.961C81.8724 130.159 82.4089 129.544 83.1016 129.117C83.7943 128.685 84.5964 128.469 85.5078 128.469C86.7161 128.469 87.6849 128.807 88.4141 129.484C89.1432 130.156 89.5677 131.089 89.6875 132.281H88.1797C88.0495 131.375 87.7656 130.719 87.3281 130.312C86.8958 129.906 86.2891 129.703 85.5078 129.703C84.5495 129.703 83.7969 130.057 83.25 130.766C82.7083 131.474 82.4375 132.482 82.4375 133.789V134.891C82.4375 136.125 82.6953 137.107 83.2109 137.836C83.7266 138.565 84.4479 138.93 85.375 138.93C86.2083 138.93 86.8464 138.742 87.2891 138.367C87.737 137.987 88.0339 137.328 88.1797 136.391H89.6875ZM91.1328 135.695C91.1328 134.867 91.2943 134.122 91.6172 133.461C91.9453 132.799 92.3984 132.289 92.9766 131.93C93.5599 131.57 94.224 131.391 94.9688 131.391C96.1198 131.391 97.0495 131.789 97.7578 132.586C98.4714 133.383 98.8281 134.443 98.8281 135.766V135.867C98.8281 136.69 98.6693 137.43 98.3516 138.086C98.0391 138.737 97.5885 139.245 97 139.609C96.4167 139.974 95.7448 140.156 94.9844 140.156C93.8385 140.156 92.9089 139.758 92.1953 138.961C91.487 138.164 91.1328 137.109 91.1328 135.797V135.695ZM92.5859 135.867C92.5859 136.805 92.8021 137.557 93.2344 138.125C93.6719 138.693 94.2552 138.977 94.9844 138.977C95.7188 138.977 96.3021 138.69 96.7344 138.117C97.1667 137.539 97.3828 136.732 97.3828 135.695C97.3828 134.768 97.1615 134.018 96.7188 133.445C96.2812 132.867 95.6979 132.578 94.9688 132.578C94.2552 132.578 93.6797 132.862 93.2422 133.43C92.8047 133.997 92.5859 134.81 92.5859 135.867ZM102.008 131.547L102.055 132.609C102.701 131.797 103.544 131.391 104.586 131.391C106.372 131.391 107.273 132.398 107.289 134.414V140H105.844V134.406C105.839 133.797 105.698 133.346 105.422 133.055C105.151 132.763 104.727 132.617 104.148 132.617C103.68 132.617 103.268 132.742 102.914 132.992C102.56 133.242 102.284 133.57 102.086 133.977V140H100.641V131.547H102.008ZM114.391 137.758C114.391 137.367 114.242 137.065 113.945 136.852C113.654 136.633 113.141 136.445 112.406 136.289C111.677 136.133 111.096 135.945 110.664 135.727C110.237 135.508 109.919 135.247 109.711 134.945C109.508 134.643 109.406 134.284 109.406 133.867C109.406 133.174 109.698 132.589 110.281 132.109C110.87 131.63 111.62 131.391 112.531 131.391C113.49 131.391 114.266 131.638 114.859 132.133C115.458 132.628 115.758 133.26 115.758 134.031H114.305C114.305 133.635 114.135 133.294 113.797 133.008C113.464 132.721 113.042 132.578 112.531 132.578C112.005 132.578 111.594 132.693 111.297 132.922C111 133.151 110.852 133.451 110.852 133.82C110.852 134.169 110.99 134.432 111.266 134.609C111.542 134.786 112.039 134.956 112.758 135.117C113.482 135.279 114.068 135.471 114.516 135.695C114.964 135.919 115.294 136.19 115.508 136.508C115.727 136.82 115.836 137.203 115.836 137.656C115.836 138.411 115.534 139.018 114.93 139.477C114.326 139.93 113.542 140.156 112.578 140.156C111.901 140.156 111.302 140.036 110.781 139.797C110.26 139.557 109.852 139.224 109.555 138.797C109.263 138.365 109.117 137.898 109.117 137.398H110.562C110.589 137.883 110.781 138.268 111.141 138.555C111.505 138.836 111.984 138.977 112.578 138.977C113.125 138.977 113.562 138.867 113.891 138.648C114.224 138.424 114.391 138.128 114.391 137.758ZM122.938 139.164C122.375 139.826 121.549 140.156 120.461 140.156C119.56 140.156 118.872 139.896 118.398 139.375C117.93 138.849 117.693 138.073 117.688 137.047V131.547H119.133V137.008C119.133 138.289 119.654 138.93 120.695 138.93C121.799 138.93 122.534 138.518 122.898 137.695V131.547H124.344V140H122.969L122.938 139.164ZM127.906 131.547L127.945 132.484C128.565 131.755 129.401 131.391 130.453 131.391C131.635 131.391 132.44 131.844 132.867 132.75C133.148 132.344 133.513 132.016 133.961 131.766C134.414 131.516 134.948 131.391 135.562 131.391C137.417 131.391 138.359 132.372 138.391 134.336V140H136.945V134.422C136.945 133.818 136.807 133.367 136.531 133.07C136.255 132.768 135.792 132.617 135.141 132.617C134.604 132.617 134.159 132.779 133.805 133.102C133.451 133.419 133.245 133.849 133.188 134.391V140H131.734V134.461C131.734 133.232 131.133 132.617 129.93 132.617C128.982 132.617 128.333 133.021 127.984 133.828V140H126.539V131.547H127.906ZM144.086 140.156C142.94 140.156 142.008 139.781 141.289 139.031C140.57 138.276 140.211 137.268 140.211 136.008V135.742C140.211 134.904 140.37 134.156 140.688 133.5C141.01 132.839 141.458 132.323 142.031 131.953C142.609 131.578 143.234 131.391 143.906 131.391C145.005 131.391 145.859 131.753 146.469 132.477C147.078 133.201 147.383 134.237 147.383 135.586V136.188H141.656C141.677 137.021 141.919 137.695 142.383 138.211C142.852 138.721 143.445 138.977 144.164 138.977C144.674 138.977 145.107 138.872 145.461 138.664C145.815 138.456 146.125 138.18 146.391 137.836L147.273 138.523C146.565 139.612 145.503 140.156 144.086 140.156ZM143.906 132.578C143.323 132.578 142.833 132.792 142.438 133.219C142.042 133.641 141.797 134.234 141.703 135H145.938V134.891C145.896 134.156 145.698 133.589 145.344 133.188C144.99 132.781 144.51 132.578 143.906 132.578ZM153.148 132.844C152.93 132.807 152.693 132.789 152.438 132.789C151.49 132.789 150.846 133.193 150.508 134V140H149.062V131.547H150.469L150.492 132.523C150.966 131.768 151.638 131.391 152.508 131.391C152.789 131.391 153.003 131.427 153.148 131.5V132.844ZM165.938 138.008L167.562 131.547H169.008L166.547 140H165.375L163.32 133.594L161.32 140H160.148L157.695 131.547H159.133L160.797 137.875L162.766 131.547H163.93L165.938 138.008ZM172.055 140H170.609V131.547H172.055V140ZM170.492 129.305C170.492 129.07 170.562 128.872 170.703 128.711C170.849 128.549 171.062 128.469 171.344 128.469C171.625 128.469 171.839 128.549 171.984 128.711C172.13 128.872 172.203 129.07 172.203 129.305C172.203 129.539 172.13 129.734 171.984 129.891C171.839 130.047 171.625 130.125 171.344 130.125C171.062 130.125 170.849 130.047 170.703 129.891C170.562 129.734 170.492 129.539 170.492 129.305ZM175.945 140H174.5V128H175.945V140ZM179.836 140H178.391V128H179.836V140ZM190.211 132.844C189.992 132.807 189.755 132.789 189.5 132.789C188.552 132.789 187.909 133.193 187.57 134V140H186.125V131.547H187.531L187.555 132.523C188.029 131.768 188.701 131.391 189.57 131.391C189.852 131.391 190.065 131.427 190.211 131.5V132.844ZM194.898 140.156C193.753 140.156 192.82 139.781 192.102 139.031C191.383 138.276 191.023 137.268 191.023 136.008V135.742C191.023 134.904 191.182 134.156 191.5 133.5C191.823 132.839 192.271 132.323 192.844 131.953C193.422 131.578 194.047 131.391 194.719 131.391C195.818 131.391 196.672 131.753 197.281 132.477C197.891 133.201 198.195 134.237 198.195 135.586V136.188H192.469C192.49 137.021 192.732 137.695 193.195 138.211C193.664 138.721 194.258 138.977 194.977 138.977C195.487 138.977 195.919 138.872 196.273 138.664C196.628 138.456 196.938 138.18 197.203 137.836L198.086 138.523C197.378 139.612 196.315 140.156 194.898 140.156ZM194.719 132.578C194.135 132.578 193.646 132.792 193.25 133.219C192.854 133.641 192.609 134.234 192.516 135H196.75V134.891C196.708 134.156 196.51 133.589 196.156 133.188C195.802 132.781 195.323 132.578 194.719 132.578ZM205.094 140C205.01 139.833 204.943 139.536 204.891 139.109C204.219 139.807 203.417 140.156 202.484 140.156C201.651 140.156 200.966 139.922 200.43 139.453C199.898 138.979 199.633 138.38 199.633 137.656C199.633 136.776 199.966 136.094 200.633 135.609C201.305 135.12 202.247 134.875 203.461 134.875H204.867V134.211C204.867 133.706 204.716 133.305 204.414 133.008C204.112 132.706 203.667 132.555 203.078 132.555C202.562 132.555 202.13 132.685 201.781 132.945C201.432 133.206 201.258 133.521 201.258 133.891H199.805C199.805 133.469 199.953 133.062 200.25 132.672C200.552 132.276 200.958 131.964 201.469 131.734C201.984 131.505 202.549 131.391 203.164 131.391C204.138 131.391 204.901 131.635 205.453 132.125C206.005 132.609 206.292 133.279 206.312 134.133V138.023C206.312 138.799 206.411 139.417 206.609 139.875V140H205.094ZM202.695 138.898C203.148 138.898 203.578 138.781 203.984 138.547C204.391 138.312 204.685 138.008 204.867 137.633V135.898H203.734C201.964 135.898 201.078 136.417 201.078 137.453C201.078 137.906 201.229 138.26 201.531 138.516C201.833 138.771 202.221 138.898 202.695 138.898ZM208.227 135.703C208.227 134.406 208.534 133.365 209.148 132.578C209.763 131.786 210.568 131.391 211.562 131.391C212.552 131.391 213.336 131.729 213.914 132.406V128H215.359V140H214.031L213.961 139.094C213.383 139.802 212.578 140.156 211.547 140.156C210.568 140.156 209.768 139.755 209.148 138.953C208.534 138.151 208.227 137.104 208.227 135.812V135.703ZM209.672 135.867C209.672 136.826 209.87 137.576 210.266 138.117C210.661 138.659 211.208 138.93 211.906 138.93C212.823 138.93 213.492 138.518 213.914 137.695V133.812C213.482 133.016 212.818 132.617 211.922 132.617C211.214 132.617 210.661 132.891 210.266 133.438C209.87 133.984 209.672 134.794 209.672 135.867ZM223.539 129.5V131.547H225.117V132.664H223.539V137.906C223.539 138.245 223.609 138.5 223.75 138.672C223.891 138.839 224.13 138.922 224.469 138.922C224.635 138.922 224.865 138.891 225.156 138.828V140C224.776 140.104 224.406 140.156 224.047 140.156C223.401 140.156 222.914 139.961 222.586 139.57C222.258 139.18 222.094 138.625 222.094 137.906V132.664H220.555V131.547H222.094V129.5H223.539ZM228.258 132.57C228.898 131.784 229.732 131.391 230.758 131.391C232.544 131.391 233.445 132.398 233.461 134.414V140H232.016V134.406C232.01 133.797 231.87 133.346 231.594 133.055C231.323 132.763 230.898 132.617 230.32 132.617C229.852 132.617 229.44 132.742 229.086 132.992C228.732 133.242 228.456 133.57 228.258 133.977V140H226.812V128H228.258V132.57ZM239.133 140.156C237.987 140.156 237.055 139.781 236.336 139.031C235.617 138.276 235.258 137.268 235.258 136.008V135.742C235.258 134.904 235.417 134.156 235.734 133.5C236.057 132.839 236.505 132.323 237.078 131.953C237.656 131.578 238.281 131.391 238.953 131.391C240.052 131.391 240.906 131.753 241.516 132.477C242.125 133.201 242.43 134.237 242.43 135.586V136.188H236.703C236.724 137.021 236.966 137.695 237.43 138.211C237.898 138.721 238.492 138.977 239.211 138.977C239.721 138.977 240.154 138.872 240.508 138.664C240.862 138.456 241.172 138.18 241.438 137.836L242.32 138.523C241.612 139.612 240.549 140.156 239.133 140.156ZM238.953 132.578C238.37 132.578 237.88 132.792 237.484 133.219C237.089 133.641 236.844 134.234 236.75 135H240.984V134.891C240.943 134.156 240.745 133.589 240.391 133.188C240.036 132.781 239.557 132.578 238.953 132.578ZM249.648 140H248.203V131.547H249.648V140ZM248.086 129.305C248.086 129.07 248.156 128.872 248.297 128.711C248.443 128.549 248.656 128.469 248.938 128.469C249.219 128.469 249.432 128.549 249.578 128.711C249.724 128.872 249.797 129.07 249.797 129.305C249.797 129.539 249.724 129.734 249.578 129.891C249.432 130.047 249.219 130.125 248.938 130.125C248.656 130.125 248.443 130.047 248.297 129.891C248.156 129.734 248.086 129.539 248.086 129.305ZM253.336 131.547L253.383 132.609C254.029 131.797 254.872 131.391 255.914 131.391C257.701 131.391 258.602 132.398 258.617 134.414V140H257.172V134.406C257.167 133.797 257.026 133.346 256.75 133.055C256.479 132.763 256.055 132.617 255.477 132.617C255.008 132.617 254.596 132.742 254.242 132.992C253.888 133.242 253.612 133.57 253.414 133.977V140H251.969V131.547H253.336ZM265.719 137.758C265.719 137.367 265.57 137.065 265.273 136.852C264.982 136.633 264.469 136.445 263.734 136.289C263.005 136.133 262.424 135.945 261.992 135.727C261.565 135.508 261.247 135.247 261.039 134.945C260.836 134.643 260.734 134.284 260.734 133.867C260.734 133.174 261.026 132.589 261.609 132.109C262.198 131.63 262.948 131.391 263.859 131.391C264.818 131.391 265.594 131.638 266.188 132.133C266.786 132.628 267.086 133.26 267.086 134.031H265.633C265.633 133.635 265.464 133.294 265.125 133.008C264.792 132.721 264.37 132.578 263.859 132.578C263.333 132.578 262.922 132.693 262.625 132.922C262.328 133.151 262.18 133.451 262.18 133.82C262.18 134.169 262.318 134.432 262.594 134.609C262.87 134.786 263.367 134.956 264.086 135.117C264.81 135.279 265.396 135.471 265.844 135.695C266.292 135.919 266.622 136.19 266.836 136.508C267.055 136.82 267.164 137.203 267.164 137.656C267.164 138.411 266.862 139.018 266.258 139.477C265.654 139.93 264.87 140.156 263.906 140.156C263.229 140.156 262.63 140.036 262.109 139.797C261.589 139.557 261.18 139.224 260.883 138.797C260.591 138.365 260.445 137.898 260.445 137.398H261.891C261.917 137.883 262.109 138.268 262.469 138.555C262.833 138.836 263.312 138.977 263.906 138.977C264.453 138.977 264.891 138.867 265.219 138.648C265.552 138.424 265.719 138.128 265.719 137.758ZM271.008 129.5V131.547H272.586V132.664H271.008V137.906C271.008 138.245 271.078 138.5 271.219 138.672C271.359 138.839 271.599 138.922 271.938 138.922C272.104 138.922 272.333 138.891 272.625 138.828V140C272.245 140.104 271.875 140.156 271.516 140.156C270.87 140.156 270.383 139.961 270.055 139.57C269.727 139.18 269.562 138.625 269.562 137.906V132.664H268.023V131.547H269.562V129.5H271.008ZM279.5 139.164C278.938 139.826 278.112 140.156 277.023 140.156C276.122 140.156 275.435 139.896 274.961 139.375C274.492 138.849 274.255 138.073 274.25 137.047V131.547H275.695V137.008C275.695 138.289 276.216 138.93 277.258 138.93C278.362 138.93 279.096 138.518 279.461 137.695V131.547H280.906V140H279.531L279.5 139.164ZM286.5 138.977C287.016 138.977 287.466 138.82 287.852 138.508C288.237 138.195 288.451 137.805 288.492 137.336H289.859C289.833 137.82 289.667 138.281 289.359 138.719C289.052 139.156 288.641 139.505 288.125 139.766C287.615 140.026 287.073 140.156 286.5 140.156C285.349 140.156 284.432 139.773 283.75 139.008C283.073 138.237 282.734 137.185 282.734 135.852V135.609C282.734 134.786 282.885 134.055 283.188 133.414C283.49 132.773 283.922 132.276 284.484 131.922C285.052 131.568 285.721 131.391 286.492 131.391C287.44 131.391 288.227 131.674 288.852 132.242C289.482 132.81 289.818 133.547 289.859 134.453H288.492C288.451 133.906 288.242 133.458 287.867 133.109C287.497 132.755 287.039 132.578 286.492 132.578C285.758 132.578 285.188 132.844 284.781 133.375C284.38 133.901 284.18 134.664 284.18 135.664V135.938C284.18 136.911 284.38 137.661 284.781 138.188C285.182 138.714 285.755 138.977 286.5 138.977ZM293.445 129.5V131.547H295.023V132.664H293.445V137.906C293.445 138.245 293.516 138.5 293.656 138.672C293.797 138.839 294.036 138.922 294.375 138.922C294.542 138.922 294.771 138.891 295.062 138.828V140C294.682 140.104 294.312 140.156 293.953 140.156C293.307 140.156 292.82 139.961 292.492 139.57C292.164 139.18 292 138.625 292 137.906V132.664H290.461V131.547H292V129.5H293.445ZM298.289 140H296.844V131.547H298.289V140ZM296.727 129.305C296.727 129.07 296.797 128.872 296.938 128.711C297.083 128.549 297.297 128.469 297.578 128.469C297.859 128.469 298.073 128.549 298.219 128.711C298.365 128.872 298.438 129.07 298.438 129.305C298.438 129.539 298.365 129.734 298.219 129.891C298.073 130.047 297.859 130.125 297.578 130.125C297.297 130.125 297.083 130.047 296.938 129.891C296.797 129.734 296.727 129.539 296.727 129.305ZM300.227 135.695C300.227 134.867 300.388 134.122 300.711 133.461C301.039 132.799 301.492 132.289 302.07 131.93C302.654 131.57 303.318 131.391 304.062 131.391C305.214 131.391 306.143 131.789 306.852 132.586C307.565 133.383 307.922 134.443 307.922 135.766V135.867C307.922 136.69 307.763 137.43 307.445 138.086C307.133 138.737 306.682 139.245 306.094 139.609C305.51 139.974 304.839 140.156 304.078 140.156C302.932 140.156 302.003 139.758 301.289 138.961C300.581 138.164 300.227 137.109 300.227 135.797V135.695ZM301.68 135.867C301.68 136.805 301.896 137.557 302.328 138.125C302.766 138.693 303.349 138.977 304.078 138.977C304.812 138.977 305.396 138.69 305.828 138.117C306.26 137.539 306.477 136.732 306.477 135.695C306.477 134.768 306.255 134.018 305.812 133.445C305.375 132.867 304.792 132.578 304.062 132.578C303.349 132.578 302.773 132.862 302.336 133.43C301.898 133.997 301.68 134.81 301.68 135.867ZM311.102 131.547L311.148 132.609C311.794 131.797 312.638 131.391 313.68 131.391C315.466 131.391 316.367 132.398 316.383 134.414V140H314.938V134.406C314.932 133.797 314.792 133.346 314.516 133.055C314.245 132.763 313.82 132.617 313.242 132.617C312.773 132.617 312.362 132.742 312.008 132.992C311.654 133.242 311.378 133.57 311.18 133.977V140H309.734V131.547H311.102ZM323.484 137.758C323.484 137.367 323.336 137.065 323.039 136.852C322.747 136.633 322.234 136.445 321.5 136.289C320.771 136.133 320.19 135.945 319.758 135.727C319.331 135.508 319.013 135.247 318.805 134.945C318.602 134.643 318.5 134.284 318.5 133.867C318.5 133.174 318.792 132.589 319.375 132.109C319.964 131.63 320.714 131.391 321.625 131.391C322.583 131.391 323.359 131.638 323.953 132.133C324.552 132.628 324.852 133.26 324.852 134.031H323.398C323.398 133.635 323.229 133.294 322.891 133.008C322.557 132.721 322.135 132.578 321.625 132.578C321.099 132.578 320.688 132.693 320.391 132.922C320.094 133.151 319.945 133.451 319.945 133.82C319.945 134.169 320.083 134.432 320.359 134.609C320.635 134.786 321.133 134.956 321.852 135.117C322.576 135.279 323.161 135.471 323.609 135.695C324.057 135.919 324.388 136.19 324.602 136.508C324.82 136.82 324.93 137.203 324.93 137.656C324.93 138.411 324.628 139.018 324.023 139.477C323.419 139.93 322.635 140.156 321.672 140.156C320.995 140.156 320.396 140.036 319.875 139.797C319.354 139.557 318.945 139.224 318.648 138.797C318.357 138.365 318.211 137.898 318.211 137.398H319.656C319.682 137.883 319.875 138.268 320.234 138.555C320.599 138.836 321.078 138.977 321.672 138.977C322.219 138.977 322.656 138.867 322.984 138.648C323.318 138.424 323.484 138.128 323.484 137.758ZM330.398 135.695C330.398 134.867 330.56 134.122 330.883 133.461C331.211 132.799 331.664 132.289 332.242 131.93C332.826 131.57 333.49 131.391 334.234 131.391C335.385 131.391 336.315 131.789 337.023 132.586C337.737 133.383 338.094 134.443 338.094 135.766V135.867C338.094 136.69 337.935 137.43 337.617 138.086C337.305 138.737 336.854 139.245 336.266 139.609C335.682 139.974 335.01 140.156 334.25 140.156C333.104 140.156 332.174 139.758 331.461 138.961C330.753 138.164 330.398 137.109 330.398 135.797V135.695ZM331.852 135.867C331.852 136.805 332.068 137.557 332.5 138.125C332.938 138.693 333.521 138.977 334.25 138.977C334.984 138.977 335.568 138.69 336 138.117C336.432 137.539 336.648 136.732 336.648 135.695C336.648 134.768 336.427 134.018 335.984 133.445C335.547 132.867 334.964 132.578 334.234 132.578C333.521 132.578 332.945 132.862 332.508 133.43C332.07 133.997 331.852 134.81 331.852 135.867ZM340.617 140V132.664H339.281V131.547H340.617V130.68C340.617 129.773 340.859 129.073 341.344 128.578C341.828 128.083 342.513 127.836 343.398 127.836C343.732 127.836 344.062 127.88 344.391 127.969L344.312 129.141C344.068 129.094 343.807 129.07 343.531 129.07C343.062 129.07 342.701 129.208 342.445 129.484C342.19 129.755 342.062 130.146 342.062 130.656V131.547H343.867V132.664H342.062V140H340.617ZM350.883 132.57C351.523 131.784 352.357 131.391 353.383 131.391C355.169 131.391 356.07 132.398 356.086 134.414V140H354.641V134.406C354.635 133.797 354.495 133.346 354.219 133.055C353.948 132.763 353.523 132.617 352.945 132.617C352.477 132.617 352.065 132.742 351.711 132.992C351.357 133.242 351.081 133.57 350.883 133.977V140H349.438V128H350.883V132.57ZM357.867 135.695C357.867 134.867 358.029 134.122 358.352 133.461C358.68 132.799 359.133 132.289 359.711 131.93C360.294 131.57 360.958 131.391 361.703 131.391C362.854 131.391 363.784 131.789 364.492 132.586C365.206 133.383 365.562 134.443 365.562 135.766V135.867C365.562 136.69 365.404 137.43 365.086 138.086C364.773 138.737 364.323 139.245 363.734 139.609C363.151 139.974 362.479 140.156 361.719 140.156C360.573 140.156 359.643 139.758 358.93 138.961C358.221 138.164 357.867 137.109 357.867 135.797V135.695ZM359.32 135.867C359.32 136.805 359.536 137.557 359.969 138.125C360.406 138.693 360.99 138.977 361.719 138.977C362.453 138.977 363.036 138.69 363.469 138.117C363.901 137.539 364.117 136.732 364.117 135.695C364.117 134.768 363.896 134.018 363.453 133.445C363.016 132.867 362.432 132.578 361.703 132.578C360.99 132.578 360.414 132.862 359.977 133.43C359.539 133.997 359.32 134.81 359.32 135.867ZM374.859 138.008L376.484 131.547H377.93L375.469 140H374.297L372.242 133.594L370.242 140H369.07L366.617 131.547H368.055L369.719 137.875L371.688 131.547H372.852L374.859 138.008ZM385.336 129.5V131.547H386.914V132.664H385.336V137.906C385.336 138.245 385.406 138.5 385.547 138.672C385.688 138.839 385.927 138.922 386.266 138.922C386.432 138.922 386.661 138.891 386.953 138.828V140C386.573 140.104 386.203 140.156 385.844 140.156C385.198 140.156 384.711 139.961 384.383 139.57C384.055 139.18 383.891 138.625 383.891 137.906V132.664H382.352V131.547H383.891V129.5H385.336ZM388.07 135.695C388.07 134.867 388.232 134.122 388.555 133.461C388.883 132.799 389.336 132.289 389.914 131.93C390.497 131.57 391.161 131.391 391.906 131.391C393.057 131.391 393.987 131.789 394.695 132.586C395.409 133.383 395.766 134.443 395.766 135.766V135.867C395.766 136.69 395.607 137.43 395.289 138.086C394.977 138.737 394.526 139.245 393.938 139.609C393.354 139.974 392.682 140.156 391.922 140.156C390.776 140.156 389.846 139.758 389.133 138.961C388.424 138.164 388.07 137.109 388.07 135.797V135.695ZM389.523 135.867C389.523 136.805 389.74 137.557 390.172 138.125C390.609 138.693 391.193 138.977 391.922 138.977C392.656 138.977 393.24 138.69 393.672 138.117C394.104 137.539 394.32 136.732 394.32 135.695C394.32 134.768 394.099 134.018 393.656 133.445C393.219 132.867 392.635 132.578 391.906 132.578C391.193 132.578 390.617 132.862 390.18 133.43C389.742 133.997 389.523 134.81 389.523 135.867ZM409.031 138.008L410.656 131.547H412.102L409.641 140H408.469L406.414 133.594L404.414 140H403.242L400.789 131.547H402.227L403.891 137.875L405.859 131.547H407.023L409.031 138.008ZM415.148 140H413.703V131.547H415.148V140ZM413.586 129.305C413.586 129.07 413.656 128.872 413.797 128.711C413.943 128.549 414.156 128.469 414.438 128.469C414.719 128.469 414.932 128.549 415.078 128.711C415.224 128.872 415.297 129.07 415.297 129.305C415.297 129.539 415.224 129.734 415.078 129.891C414.932 130.047 414.719 130.125 414.438 130.125C414.156 130.125 413.943 130.047 413.797 129.891C413.656 129.734 413.586 129.539 413.586 129.305ZM419.43 129.5V131.547H421.008V132.664H419.43V137.906C419.43 138.245 419.5 138.5 419.641 138.672C419.781 138.839 420.021 138.922 420.359 138.922C420.526 138.922 420.755 138.891 421.047 138.828V140C420.667 140.104 420.297 140.156 419.938 140.156C419.292 140.156 418.805 139.961 418.477 139.57C418.148 139.18 417.984 138.625 417.984 137.906V132.664H416.445V131.547H417.984V129.5H419.43ZM424.148 132.57C424.789 131.784 425.622 131.391 426.648 131.391C428.435 131.391 429.336 132.398 429.352 134.414V140H427.906V134.406C427.901 133.797 427.76 133.346 427.484 133.055C427.214 132.763 426.789 132.617 426.211 132.617C425.742 132.617 425.331 132.742 424.977 132.992C424.622 133.242 424.346 133.57 424.148 133.977V140H422.703V128H424.148V132.57ZM431.164 135.703C431.164 134.406 431.471 133.365 432.086 132.578C432.701 131.786 433.505 131.391 434.5 131.391C435.49 131.391 436.273 131.729 436.852 132.406V128H438.297V140H436.969L436.898 139.094C436.32 139.802 435.516 140.156 434.484 140.156C433.505 140.156 432.706 139.755 432.086 138.953C431.471 138.151 431.164 137.104 431.164 135.812V135.703ZM432.609 135.867C432.609 136.826 432.807 137.576 433.203 138.117C433.599 138.659 434.146 138.93 434.844 138.93C435.76 138.93 436.43 138.518 436.852 137.695V133.812C436.419 133.016 435.755 132.617 434.859 132.617C434.151 132.617 433.599 132.891 433.203 133.438C432.807 133.984 432.609 134.794 432.609 135.867ZM444.633 132.844C444.414 132.807 444.177 132.789 443.922 132.789C442.974 132.789 442.331 133.193 441.992 134V140H440.547V131.547H441.953L441.977 132.523C442.451 131.768 443.122 131.391 443.992 131.391C444.273 131.391 444.487 131.427 444.633 131.5V132.844ZM450.875 140C450.792 139.833 450.724 139.536 450.672 139.109C450 139.807 449.198 140.156 448.266 140.156C447.432 140.156 446.747 139.922 446.211 139.453C445.68 138.979 445.414 138.38 445.414 137.656C445.414 136.776 445.747 136.094 446.414 135.609C447.086 135.12 448.029 134.875 449.242 134.875H450.648V134.211C450.648 133.706 450.497 133.305 450.195 133.008C449.893 132.706 449.448 132.555 448.859 132.555C448.344 132.555 447.911 132.685 447.562 132.945C447.214 133.206 447.039 133.521 447.039 133.891H445.586C445.586 133.469 445.734 133.062 446.031 132.672C446.333 132.276 446.74 131.964 447.25 131.734C447.766 131.505 448.331 131.391 448.945 131.391C449.919 131.391 450.682 131.635 451.234 132.125C451.786 132.609 452.073 133.279 452.094 134.133V138.023C452.094 138.799 452.193 139.417 452.391 139.875V140H450.875ZM448.477 138.898C448.93 138.898 449.359 138.781 449.766 138.547C450.172 138.312 450.466 138.008 450.648 137.633V135.898H449.516C447.745 135.898 446.859 136.417 446.859 137.453C446.859 137.906 447.01 138.26 447.312 138.516C447.615 138.771 448.003 138.898 448.477 138.898ZM461.844 138.008L463.469 131.547H464.914L462.453 140H461.281L459.227 133.594L457.227 140H456.055L453.602 131.547H455.039L456.703 137.875L458.672 131.547H459.836L461.844 138.008ZM471.719 131.547L471.758 132.484C472.378 131.755 473.214 131.391 474.266 131.391C475.448 131.391 476.253 131.844 476.68 132.75C476.961 132.344 477.326 132.016 477.773 131.766C478.227 131.516 478.76 131.391 479.375 131.391C481.229 131.391 482.172 132.372 482.203 134.336V140H480.758V134.422C480.758 133.818 480.62 133.367 480.344 133.07C480.068 132.768 479.604 132.617 478.953 132.617C478.417 132.617 477.971 132.779 477.617 133.102C477.263 133.419 477.057 133.849 477 134.391V140H475.547V134.461C475.547 133.232 474.945 132.617 473.742 132.617C472.794 132.617 472.146 133.021 471.797 133.828V140H470.352V131.547H471.719ZM484.008 135.695C484.008 134.867 484.169 134.122 484.492 133.461C484.82 132.799 485.273 132.289 485.852 131.93C486.435 131.57 487.099 131.391 487.844 131.391C488.995 131.391 489.924 131.789 490.633 132.586C491.346 133.383 491.703 134.443 491.703 135.766V135.867C491.703 136.69 491.544 137.43 491.227 138.086C490.914 138.737 490.464 139.245 489.875 139.609C489.292 139.974 488.62 140.156 487.859 140.156C486.714 140.156 485.784 139.758 485.07 138.961C484.362 138.164 484.008 137.109 484.008 135.797V135.695ZM485.461 135.867C485.461 136.805 485.677 137.557 486.109 138.125C486.547 138.693 487.13 138.977 487.859 138.977C488.594 138.977 489.177 138.69 489.609 138.117C490.042 137.539 490.258 136.732 490.258 135.695C490.258 134.768 490.036 134.018 489.594 133.445C489.156 132.867 488.573 132.578 487.844 132.578C487.13 132.578 486.555 132.862 486.117 133.43C485.68 133.997 485.461 134.81 485.461 135.867ZM494.883 131.547L494.93 132.609C495.576 131.797 496.419 131.391 497.461 131.391C499.247 131.391 500.148 132.398 500.164 134.414V140H498.719V134.406C498.714 133.797 498.573 133.346 498.297 133.055C498.026 132.763 497.602 132.617 497.023 132.617C496.555 132.617 496.143 132.742 495.789 132.992C495.435 133.242 495.159 133.57 494.961 133.977V140H493.516V131.547H494.883ZM505.852 140.156C504.706 140.156 503.773 139.781 503.055 139.031C502.336 138.276 501.977 137.268 501.977 136.008V135.742C501.977 134.904 502.135 134.156 502.453 133.5C502.776 132.839 503.224 132.323 503.797 131.953C504.375 131.578 505 131.391 505.672 131.391C506.771 131.391 507.625 131.753 508.234 132.477C508.844 133.201 509.148 134.237 509.148 135.586V136.188H503.422C503.443 137.021 503.685 137.695 504.148 138.211C504.617 138.721 505.211 138.977 505.93 138.977C506.44 138.977 506.872 138.872 507.227 138.664C507.581 138.456 507.891 138.18 508.156 137.836L509.039 138.523C508.331 139.612 507.268 140.156 505.852 140.156ZM505.672 132.578C505.089 132.578 504.599 132.792 504.203 133.219C503.807 133.641 503.562 134.234 503.469 135H507.703V134.891C507.661 134.156 507.464 133.589 507.109 133.188C506.755 132.781 506.276 132.578 505.672 132.578ZM513.484 137.883L515.453 131.547H517L513.602 141.305C513.076 142.711 512.24 143.414 511.094 143.414L510.82 143.391L510.281 143.289V142.117L510.672 142.148C511.161 142.148 511.542 142.049 511.812 141.852C512.089 141.654 512.315 141.292 512.492 140.766L512.812 139.906L509.797 131.547H511.375L513.484 137.883ZM522.977 140V132.664H521.641V131.547H522.977V130.68C522.977 129.773 523.219 129.073 523.703 128.578C524.188 128.083 524.872 127.836 525.758 127.836C526.091 127.836 526.422 127.88 526.75 127.969L526.672 129.141C526.427 129.094 526.167 129.07 525.891 129.07C525.422 129.07 525.06 129.208 524.805 129.484C524.549 129.755 524.422 130.146 524.422 130.656V131.547H526.227V132.664H524.422V140H522.977ZM531.914 132.844C531.695 132.807 531.458 132.789 531.203 132.789C530.255 132.789 529.612 133.193 529.273 134V140H527.828V131.547H529.234L529.258 132.523C529.732 131.768 530.404 131.391 531.273 131.391C531.555 131.391 531.768 131.427 531.914 131.5V132.844ZM532.711 135.695C532.711 134.867 532.872 134.122 533.195 133.461C533.523 132.799 533.977 132.289 534.555 131.93C535.138 131.57 535.802 131.391 536.547 131.391C537.698 131.391 538.628 131.789 539.336 132.586C540.049 133.383 540.406 134.443 540.406 135.766V135.867C540.406 136.69 540.247 137.43 539.93 138.086C539.617 138.737 539.167 139.245 538.578 139.609C537.995 139.974 537.323 140.156 536.562 140.156C535.417 140.156 534.487 139.758 533.773 138.961C533.065 138.164 532.711 137.109 532.711 135.797V135.695ZM534.164 135.867C534.164 136.805 534.38 137.557 534.812 138.125C535.25 138.693 535.833 138.977 536.562 138.977C537.297 138.977 537.88 138.69 538.312 138.117C538.745 137.539 538.961 136.732 538.961 135.695C538.961 134.768 538.74 134.018 538.297 133.445C537.859 132.867 537.276 132.578 536.547 132.578C535.833 132.578 535.258 132.862 534.82 133.43C534.383 133.997 534.164 134.81 534.164 135.867ZM543.578 131.547L543.617 132.484C544.237 131.755 545.073 131.391 546.125 131.391C547.307 131.391 548.112 131.844 548.539 132.75C548.82 132.344 549.185 132.016 549.633 131.766C550.086 131.516 550.62 131.391 551.234 131.391C553.089 131.391 554.031 132.372 554.062 134.336V140H552.617V134.422C552.617 133.818 552.479 133.367 552.203 133.07C551.927 132.768 551.464 132.617 550.812 132.617C550.276 132.617 549.831 132.779 549.477 133.102C549.122 133.419 548.917 133.849 548.859 134.391V140H547.406V134.461C547.406 133.232 546.805 132.617 545.602 132.617C544.654 132.617 544.005 133.021 543.656 133.828V140H542.211V131.547H543.578ZM566.727 137.031H561.961L560.891 140H559.344L563.688 128.625H565L569.352 140H567.812L566.727 137.031ZM562.414 135.797H566.281L564.344 130.477L562.414 135.797ZM577.727 129.859H574.07V140H572.578V129.859H568.93V128.625H577.727V129.859ZM581.352 128.625L585.07 137.906L588.789 128.625H590.734V140H589.234V135.57L589.375 130.789L585.641 140H584.492L580.766 130.812L580.914 135.57V140H579.414V128.625H581.352Z" fill="#656668"/>
<path d="M38.1105 148.744H53.5025V146.312H42.4945C46.6225 142.952 52.8305 138.056 52.8305 132.296C52.8305 128.008 50.0145 125.448 45.6625 125.448C41.5025 125.448 38.3985 128.008 38.2065 132.936H41.0225C41.1505 130.024 42.6865 127.944 45.6945 127.944C48.8305 127.944 49.9505 129.864 49.9505 132.424C49.9505 137.16 44.1905 141.768 38.1105 146.664V148.744Z" fill="#656668"/>
<path d="M89.4033 220.391C89.2627 221.594 88.8174 222.523 88.0674 223.18C87.3226 223.831 86.3304 224.156 85.0908 224.156C83.7471 224.156 82.6689 223.674 81.8564 222.711C81.0492 221.747 80.6455 220.458 80.6455 218.844V217.75C80.6455 216.693 80.833 215.763 81.208 214.961C81.5882 214.159 82.1247 213.544 82.8174 213.117C83.5101 212.685 84.3122 212.469 85.2236 212.469C86.432 212.469 87.4007 212.807 88.1299 213.484C88.859 214.156 89.2835 215.089 89.4033 216.281H87.8955C87.7653 215.375 87.4814 214.719 87.0439 214.312C86.6117 213.906 86.0049 213.703 85.2236 213.703C84.2653 213.703 83.5127 214.057 82.9658 214.766C82.4242 215.474 82.1533 216.482 82.1533 217.789V218.891C82.1533 220.125 82.4111 221.107 82.9268 221.836C83.4424 222.565 84.1637 222.93 85.0908 222.93C85.9242 222.93 86.5622 222.742 87.0049 222.367C87.4528 221.987 87.7497 221.328 87.8955 220.391H89.4033ZM90.8486 219.695C90.8486 218.867 91.0101 218.122 91.333 217.461C91.6611 216.799 92.1143 216.289 92.6924 215.93C93.2757 215.57 93.9398 215.391 94.6846 215.391C95.8356 215.391 96.7653 215.789 97.4736 216.586C98.1872 217.383 98.5439 218.443 98.5439 219.766V219.867C98.5439 220.69 98.3851 221.43 98.0674 222.086C97.7549 222.737 97.3044 223.245 96.7158 223.609C96.1325 223.974 95.4606 224.156 94.7002 224.156C93.5544 224.156 92.6247 223.758 91.9111 222.961C91.2028 222.164 90.8486 221.109 90.8486 219.797V219.695ZM92.3018 219.867C92.3018 220.805 92.5179 221.557 92.9502 222.125C93.3877 222.693 93.971 222.977 94.7002 222.977C95.4346 222.977 96.0179 222.69 96.4502 222.117C96.8825 221.539 97.0986 220.732 97.0986 219.695C97.0986 218.768 96.8773 218.018 96.4346 217.445C95.9971 216.867 95.4137 216.578 94.6846 216.578C93.971 216.578 93.3955 216.862 92.958 217.43C92.5205 217.997 92.3018 218.81 92.3018 219.867ZM101.724 215.547L101.771 216.609C102.416 215.797 103.26 215.391 104.302 215.391C106.088 215.391 106.989 216.398 107.005 218.414V224H105.56V218.406C105.554 217.797 105.414 217.346 105.138 217.055C104.867 216.763 104.442 216.617 103.864 216.617C103.396 216.617 102.984 216.742 102.63 216.992C102.276 217.242 102 217.57 101.802 217.977V224H100.356V215.547H101.724ZM114.106 221.758C114.106 221.367 113.958 221.065 113.661 220.852C113.369 220.633 112.856 220.445 112.122 220.289C111.393 220.133 110.812 219.945 110.38 219.727C109.953 219.508 109.635 219.247 109.427 218.945C109.224 218.643 109.122 218.284 109.122 217.867C109.122 217.174 109.414 216.589 109.997 216.109C110.586 215.63 111.336 215.391 112.247 215.391C113.205 215.391 113.981 215.638 114.575 216.133C115.174 216.628 115.474 217.26 115.474 218.031H114.021C114.021 217.635 113.851 217.294 113.513 217.008C113.179 216.721 112.757 216.578 112.247 216.578C111.721 216.578 111.31 216.693 111.013 216.922C110.716 217.151 110.567 217.451 110.567 217.82C110.567 218.169 110.705 218.432 110.981 218.609C111.257 218.786 111.755 218.956 112.474 219.117C113.198 219.279 113.784 219.471 114.231 219.695C114.679 219.919 115.01 220.19 115.224 220.508C115.442 220.82 115.552 221.203 115.552 221.656C115.552 222.411 115.25 223.018 114.646 223.477C114.041 223.93 113.257 224.156 112.294 224.156C111.617 224.156 111.018 224.036 110.497 223.797C109.976 223.557 109.567 223.224 109.271 222.797C108.979 222.365 108.833 221.898 108.833 221.398H110.278C110.304 221.883 110.497 222.268 110.856 222.555C111.221 222.836 111.7 222.977 112.294 222.977C112.841 222.977 113.278 222.867 113.606 222.648C113.94 222.424 114.106 222.128 114.106 221.758ZM122.653 223.164C122.091 223.826 121.265 224.156 120.177 224.156C119.276 224.156 118.588 223.896 118.114 223.375C117.646 222.849 117.409 222.073 117.403 221.047V215.547H118.849V221.008C118.849 222.289 119.369 222.93 120.411 222.93C121.515 222.93 122.25 222.518 122.614 221.695V215.547H124.06V224H122.685L122.653 223.164ZM127.622 215.547L127.661 216.484C128.281 215.755 129.117 215.391 130.169 215.391C131.351 215.391 132.156 215.844 132.583 216.75C132.864 216.344 133.229 216.016 133.677 215.766C134.13 215.516 134.664 215.391 135.278 215.391C137.132 215.391 138.075 216.372 138.106 218.336V224H136.661V218.422C136.661 217.818 136.523 217.367 136.247 217.07C135.971 216.768 135.507 216.617 134.856 216.617C134.32 216.617 133.875 216.779 133.521 217.102C133.166 217.419 132.961 217.849 132.903 218.391V224H131.45V218.461C131.45 217.232 130.849 216.617 129.646 216.617C128.698 216.617 128.049 217.021 127.7 217.828V224H126.255V215.547H127.622ZM143.802 224.156C142.656 224.156 141.724 223.781 141.005 223.031C140.286 222.276 139.927 221.268 139.927 220.008V219.742C139.927 218.904 140.086 218.156 140.403 217.5C140.726 216.839 141.174 216.323 141.747 215.953C142.325 215.578 142.95 215.391 143.622 215.391C144.721 215.391 145.575 215.753 146.185 216.477C146.794 217.201 147.099 218.237 147.099 219.586V220.188H141.372C141.393 221.021 141.635 221.695 142.099 222.211C142.567 222.721 143.161 222.977 143.88 222.977C144.39 222.977 144.823 222.872 145.177 222.664C145.531 222.456 145.841 222.18 146.106 221.836L146.989 222.523C146.281 223.612 145.218 224.156 143.802 224.156ZM143.622 216.578C143.039 216.578 142.549 216.792 142.153 217.219C141.757 217.641 141.513 218.234 141.419 219H145.653V218.891C145.612 218.156 145.414 217.589 145.06 217.188C144.705 216.781 144.226 216.578 143.622 216.578ZM152.864 216.844C152.646 216.807 152.409 216.789 152.153 216.789C151.205 216.789 150.562 217.193 150.224 218V224H148.778V215.547H150.185L150.208 216.523C150.682 215.768 151.354 215.391 152.224 215.391C152.505 215.391 152.718 215.427 152.864 215.5V216.844ZM165.653 222.008L167.278 215.547H168.724L166.263 224H165.091L163.036 217.594L161.036 224H159.864L157.411 215.547H158.849L160.513 221.875L162.481 215.547H163.646L165.653 222.008ZM171.771 224H170.325V215.547H171.771V224ZM170.208 213.305C170.208 213.07 170.278 212.872 170.419 212.711C170.565 212.549 170.778 212.469 171.06 212.469C171.341 212.469 171.554 212.549 171.7 212.711C171.846 212.872 171.919 213.07 171.919 213.305C171.919 213.539 171.846 213.734 171.7 213.891C171.554 214.047 171.341 214.125 171.06 214.125C170.778 214.125 170.565 214.047 170.419 213.891C170.278 213.734 170.208 213.539 170.208 213.305ZM175.661 224H174.216V212H175.661V224ZM179.552 224H178.106V212H179.552V224ZM189.349 224.156C188.203 224.156 187.271 223.781 186.552 223.031C185.833 222.276 185.474 221.268 185.474 220.008V219.742C185.474 218.904 185.632 218.156 185.95 217.5C186.273 216.839 186.721 216.323 187.294 215.953C187.872 215.578 188.497 215.391 189.169 215.391C190.268 215.391 191.122 215.753 191.731 216.477C192.341 217.201 192.646 218.237 192.646 219.586V220.188H186.919C186.94 221.021 187.182 221.695 187.646 222.211C188.114 222.721 188.708 222.977 189.427 222.977C189.937 222.977 190.369 222.872 190.724 222.664C191.078 222.456 191.388 222.18 191.653 221.836L192.536 222.523C191.828 223.612 190.765 224.156 189.349 224.156ZM189.169 216.578C188.586 216.578 188.096 216.792 187.7 217.219C187.304 217.641 187.06 218.234 186.966 219H191.2V218.891C191.159 218.156 190.961 217.589 190.606 217.188C190.252 216.781 189.773 216.578 189.169 216.578ZM195.692 215.547L195.739 216.609C196.385 215.797 197.229 215.391 198.271 215.391C200.057 215.391 200.958 216.398 200.974 218.414V224H199.528V218.406C199.523 217.797 199.382 217.346 199.106 217.055C198.836 216.763 198.411 216.617 197.833 216.617C197.364 216.617 196.953 216.742 196.599 216.992C196.244 217.242 195.968 217.57 195.771 217.977V224H194.325V215.547H195.692ZM205.114 213.5V215.547H206.692V216.664H205.114V221.906C205.114 222.245 205.185 222.5 205.325 222.672C205.466 222.839 205.705 222.922 206.044 222.922C206.211 222.922 206.44 222.891 206.731 222.828V224C206.351 224.104 205.981 224.156 205.622 224.156C204.976 224.156 204.489 223.961 204.161 223.57C203.833 223.18 203.669 222.625 203.669 221.906V216.664H202.13V215.547H203.669V213.5H205.114ZM211.896 224.156C210.75 224.156 209.817 223.781 209.099 223.031C208.38 222.276 208.021 221.268 208.021 220.008V219.742C208.021 218.904 208.179 218.156 208.497 217.5C208.82 216.839 209.268 216.323 209.841 215.953C210.419 215.578 211.044 215.391 211.716 215.391C212.815 215.391 213.669 215.753 214.278 216.477C214.888 217.201 215.192 218.237 215.192 219.586V220.188H209.466C209.487 221.021 209.729 221.695 210.192 222.211C210.661 222.721 211.255 222.977 211.974 222.977C212.484 222.977 212.916 222.872 213.271 222.664C213.625 222.456 213.935 222.18 214.2 221.836L215.083 222.523C214.375 223.612 213.312 224.156 211.896 224.156ZM211.716 216.578C211.132 216.578 210.643 216.792 210.247 217.219C209.851 217.641 209.606 218.234 209.513 219H213.747V218.891C213.705 218.156 213.507 217.589 213.153 217.188C212.799 216.781 212.32 216.578 211.716 216.578ZM220.958 216.844C220.739 216.807 220.502 216.789 220.247 216.789C219.299 216.789 218.656 217.193 218.317 218V224H216.872V215.547H218.278L218.302 216.523C218.776 215.768 219.448 215.391 220.317 215.391C220.599 215.391 220.812 215.427 220.958 215.5V216.844ZM227.708 216.57C228.349 215.784 229.182 215.391 230.208 215.391C231.994 215.391 232.896 216.398 232.911 218.414V224H231.466V218.406C231.461 217.797 231.32 217.346 231.044 217.055C230.773 216.763 230.349 216.617 229.771 216.617C229.302 216.617 228.89 216.742 228.536 216.992C228.182 217.242 227.906 217.57 227.708 217.977V224H226.263V212H227.708V216.57ZM236.646 224H235.2V215.547H236.646V224ZM235.083 213.305C235.083 213.07 235.153 212.872 235.294 212.711C235.44 212.549 235.653 212.469 235.935 212.469C236.216 212.469 236.429 212.549 236.575 212.711C236.721 212.872 236.794 213.07 236.794 213.305C236.794 213.539 236.721 213.734 236.575 213.891C236.429 214.047 236.216 214.125 235.935 214.125C235.653 214.125 235.44 214.047 235.294 213.891C235.153 213.734 235.083 213.539 235.083 213.305ZM243.888 221.758C243.888 221.367 243.739 221.065 243.442 220.852C243.151 220.633 242.638 220.445 241.903 220.289C241.174 220.133 240.593 219.945 240.161 219.727C239.734 219.508 239.416 219.247 239.208 218.945C239.005 218.643 238.903 218.284 238.903 217.867C238.903 217.174 239.195 216.589 239.778 216.109C240.367 215.63 241.117 215.391 242.028 215.391C242.987 215.391 243.763 215.638 244.356 216.133C244.955 216.628 245.255 217.26 245.255 218.031H243.802C243.802 217.635 243.632 217.294 243.294 217.008C242.961 216.721 242.539 216.578 242.028 216.578C241.502 216.578 241.091 216.693 240.794 216.922C240.497 217.151 240.349 217.451 240.349 217.82C240.349 218.169 240.487 218.432 240.763 218.609C241.039 218.786 241.536 218.956 242.255 219.117C242.979 219.279 243.565 219.471 244.013 219.695C244.461 219.919 244.791 220.19 245.005 220.508C245.224 220.82 245.333 221.203 245.333 221.656C245.333 222.411 245.031 223.018 244.427 223.477C243.823 223.93 243.039 224.156 242.075 224.156C241.398 224.156 240.799 224.036 240.278 223.797C239.757 223.557 239.349 223.224 239.052 222.797C238.76 222.365 238.614 221.898 238.614 221.398H240.06C240.086 221.883 240.278 222.268 240.638 222.555C241.002 222.836 241.481 222.977 242.075 222.977C242.622 222.977 243.06 222.867 243.388 222.648C243.721 222.424 243.888 222.128 243.888 221.758ZM252.911 219.547V224H251.411V212.625H255.606C256.851 212.625 257.825 212.943 258.528 213.578C259.237 214.214 259.591 215.055 259.591 216.102C259.591 217.206 259.244 218.057 258.552 218.656C257.864 219.25 256.877 219.547 255.591 219.547H252.911ZM252.911 218.32H255.606C256.409 218.32 257.023 218.133 257.45 217.758C257.877 217.378 258.091 216.831 258.091 216.117C258.091 215.44 257.877 214.898 257.45 214.492C257.023 214.086 256.437 213.875 255.692 213.859H252.911V218.32ZM263.114 224H261.614V212.625H263.114V224ZM274.606 224H273.099L267.372 215.234V224H265.864V212.625H267.372L273.114 221.43V212.625H274.606V224Z" fill="#656668"/>
<path d="M37.4786 217.688H40.3266C40.6146 215.448 42.2466 213.912 44.9666 213.912C47.7506 213.912 49.2226 215.448 49.2226 217.656C49.2226 220.344 47.1426 221.528 43.2706 221.56H42.5026V223.992H43.2386C47.3986 223.992 49.6706 225.24 49.6706 228.504C49.6706 230.872 48.1986 232.696 45.0946 232.696C42.0226 232.696 40.2306 230.808 39.9426 228.344H37.1266C37.4786 232.824 40.7426 235.16 45.1266 235.16C49.9586 235.16 52.4546 232.344 52.4546 228.76C52.4546 225.432 50.6306 223.448 47.9426 222.808V222.648C50.3746 222.104 52.0386 220.024 52.0386 217.368C52.0386 214.04 49.5746 211.416 45.0626 211.416C40.7746 211.416 37.7666 213.72 37.4786 217.688Z" fill="#656668"/>
<path d="M89.4033 304.391C89.2627 305.594 88.8174 306.523 88.0674 307.18C87.3226 307.831 86.3304 308.156 85.0908 308.156C83.7471 308.156 82.6689 307.674 81.8564 306.711C81.0492 305.747 80.6455 304.458 80.6455 302.844V301.75C80.6455 300.693 80.833 299.763 81.208 298.961C81.5882 298.159 82.1247 297.544 82.8174 297.117C83.5101 296.685 84.3122 296.469 85.2236 296.469C86.432 296.469 87.4007 296.807 88.1299 297.484C88.859 298.156 89.2835 299.089 89.4033 300.281H87.8955C87.7653 299.375 87.4814 298.719 87.0439 298.312C86.6117 297.906 86.0049 297.703 85.2236 297.703C84.2653 297.703 83.5127 298.057 82.9658 298.766C82.4242 299.474 82.1533 300.482 82.1533 301.789V302.891C82.1533 304.125 82.4111 305.107 82.9268 305.836C83.4424 306.565 84.1637 306.93 85.0908 306.93C85.9242 306.93 86.5622 306.742 87.0049 306.367C87.4528 305.987 87.7497 305.328 87.8955 304.391H89.4033ZM90.8486 303.695C90.8486 302.867 91.0101 302.122 91.333 301.461C91.6611 300.799 92.1143 300.289 92.6924 299.93C93.2757 299.57 93.9398 299.391 94.6846 299.391C95.8356 299.391 96.7653 299.789 97.4736 300.586C98.1872 301.383 98.5439 302.443 98.5439 303.766V303.867C98.5439 304.69 98.3851 305.43 98.0674 306.086C97.7549 306.737 97.3044 307.245 96.7158 307.609C96.1325 307.974 95.4606 308.156 94.7002 308.156C93.5544 308.156 92.6247 307.758 91.9111 306.961C91.2028 306.164 90.8486 305.109 90.8486 303.797V303.695ZM92.3018 303.867C92.3018 304.805 92.5179 305.557 92.9502 306.125C93.3877 306.693 93.971 306.977 94.7002 306.977C95.4346 306.977 96.0179 306.69 96.4502 306.117C96.8825 305.539 97.0986 304.732 97.0986 303.695C97.0986 302.768 96.8773 302.018 96.4346 301.445C95.9971 300.867 95.4137 300.578 94.6846 300.578C93.971 300.578 93.3955 300.862 92.958 301.43C92.5205 301.997 92.3018 302.81 92.3018 303.867ZM101.724 299.547L101.771 300.609C102.416 299.797 103.26 299.391 104.302 299.391C106.088 299.391 106.989 300.398 107.005 302.414V308H105.56V302.406C105.554 301.797 105.414 301.346 105.138 301.055C104.867 300.763 104.442 300.617 103.864 300.617C103.396 300.617 102.984 300.742 102.63 300.992C102.276 301.242 102 301.57 101.802 301.977V308H100.356V299.547H101.724ZM114.106 305.758C114.106 305.367 113.958 305.065 113.661 304.852C113.369 304.633 112.856 304.445 112.122 304.289C111.393 304.133 110.812 303.945 110.38 303.727C109.953 303.508 109.635 303.247 109.427 302.945C109.224 302.643 109.122 302.284 109.122 301.867C109.122 301.174 109.414 300.589 109.997 300.109C110.586 299.63 111.336 299.391 112.247 299.391C113.205 299.391 113.981 299.638 114.575 300.133C115.174 300.628 115.474 301.26 115.474 302.031H114.021C114.021 301.635 113.851 301.294 113.513 301.008C113.179 300.721 112.757 300.578 112.247 300.578C111.721 300.578 111.31 300.693 111.013 300.922C110.716 301.151 110.567 301.451 110.567 301.82C110.567 302.169 110.705 302.432 110.981 302.609C111.257 302.786 111.755 302.956 112.474 303.117C113.198 303.279 113.784 303.471 114.231 303.695C114.679 303.919 115.01 304.19 115.224 304.508C115.442 304.82 115.552 305.203 115.552 305.656C115.552 306.411 115.25 307.018 114.646 307.477C114.041 307.93 113.257 308.156 112.294 308.156C111.617 308.156 111.018 308.036 110.497 307.797C109.976 307.557 109.567 307.224 109.271 306.797C108.979 306.365 108.833 305.898 108.833 305.398H110.278C110.304 305.883 110.497 306.268 110.856 306.555C111.221 306.836 111.7 306.977 112.294 306.977C112.841 306.977 113.278 306.867 113.606 306.648C113.94 306.424 114.106 306.128 114.106 305.758ZM122.653 307.164C122.091 307.826 121.265 308.156 120.177 308.156C119.276 308.156 118.588 307.896 118.114 307.375C117.646 306.849 117.409 306.073 117.403 305.047V299.547H118.849V305.008C118.849 306.289 119.369 306.93 120.411 306.93C121.515 306.93 122.25 306.518 122.614 305.695V299.547H124.06V308H122.685L122.653 307.164ZM127.622 299.547L127.661 300.484C128.281 299.755 129.117 299.391 130.169 299.391C131.351 299.391 132.156 299.844 132.583 300.75C132.864 300.344 133.229 300.016 133.677 299.766C134.13 299.516 134.664 299.391 135.278 299.391C137.132 299.391 138.075 300.372 138.106 302.336V308H136.661V302.422C136.661 301.818 136.523 301.367 136.247 301.07C135.971 300.768 135.507 300.617 134.856 300.617C134.32 300.617 133.875 300.779 133.521 301.102C133.166 301.419 132.961 301.849 132.903 302.391V308H131.45V302.461C131.45 301.232 130.849 300.617 129.646 300.617C128.698 300.617 128.049 301.021 127.7 301.828V308H126.255V299.547H127.622ZM143.802 308.156C142.656 308.156 141.724 307.781 141.005 307.031C140.286 306.276 139.927 305.268 139.927 304.008V303.742C139.927 302.904 140.086 302.156 140.403 301.5C140.726 300.839 141.174 300.323 141.747 299.953C142.325 299.578 142.95 299.391 143.622 299.391C144.721 299.391 145.575 299.753 146.185 300.477C146.794 301.201 147.099 302.237 147.099 303.586V304.188H141.372C141.393 305.021 141.635 305.695 142.099 306.211C142.567 306.721 143.161 306.977 143.88 306.977C144.39 306.977 144.823 306.872 145.177 306.664C145.531 306.456 145.841 306.18 146.106 305.836L146.989 306.523C146.281 307.612 145.218 308.156 143.802 308.156ZM143.622 300.578C143.039 300.578 142.549 300.792 142.153 301.219C141.757 301.641 141.513 302.234 141.419 303H145.653V302.891C145.612 302.156 145.414 301.589 145.06 301.188C144.705 300.781 144.226 300.578 143.622 300.578ZM152.864 300.844C152.646 300.807 152.409 300.789 152.153 300.789C151.205 300.789 150.562 301.193 150.224 302V308H148.778V299.547H150.185L150.208 300.523C150.682 299.768 151.354 299.391 152.224 299.391C152.505 299.391 152.718 299.427 152.864 299.5V300.844ZM165.653 306.008L167.278 299.547H168.724L166.263 308H165.091L163.036 301.594L161.036 308H159.864L157.411 299.547H158.849L160.513 305.875L162.481 299.547H163.646L165.653 306.008ZM171.771 308H170.325V299.547H171.771V308ZM170.208 297.305C170.208 297.07 170.278 296.872 170.419 296.711C170.565 296.549 170.778 296.469 171.06 296.469C171.341 296.469 171.554 296.549 171.7 296.711C171.846 296.872 171.919 297.07 171.919 297.305C171.919 297.539 171.846 297.734 171.7 297.891C171.554 298.047 171.341 298.125 171.06 298.125C170.778 298.125 170.565 298.047 170.419 297.891C170.278 297.734 170.208 297.539 170.208 297.305ZM175.661 308H174.216V296H175.661V308ZM179.552 308H178.106V296H179.552V308ZM189.349 308.156C188.203 308.156 187.271 307.781 186.552 307.031C185.833 306.276 185.474 305.268 185.474 304.008V303.742C185.474 302.904 185.632 302.156 185.95 301.5C186.273 300.839 186.721 300.323 187.294 299.953C187.872 299.578 188.497 299.391 189.169 299.391C190.268 299.391 191.122 299.753 191.731 300.477C192.341 301.201 192.646 302.237 192.646 303.586V304.188H186.919C186.94 305.021 187.182 305.695 187.646 306.211C188.114 306.721 188.708 306.977 189.427 306.977C189.937 306.977 190.369 306.872 190.724 306.664C191.078 306.456 191.388 306.18 191.653 305.836L192.536 306.523C191.828 307.612 190.765 308.156 189.349 308.156ZM189.169 300.578C188.586 300.578 188.096 300.792 187.7 301.219C187.304 301.641 187.06 302.234 186.966 303H191.2V302.891C191.159 302.156 190.961 301.589 190.606 301.188C190.252 300.781 189.773 300.578 189.169 300.578ZM195.692 299.547L195.739 300.609C196.385 299.797 197.229 299.391 198.271 299.391C200.057 299.391 200.958 300.398 200.974 302.414V308H199.528V302.406C199.523 301.797 199.382 301.346 199.106 301.055C198.836 300.763 198.411 300.617 197.833 300.617C197.364 300.617 196.953 300.742 196.599 300.992C196.244 301.242 195.968 301.57 195.771 301.977V308H194.325V299.547H195.692ZM205.114 297.5V299.547H206.692V300.664H205.114V305.906C205.114 306.245 205.185 306.5 205.325 306.672C205.466 306.839 205.705 306.922 206.044 306.922C206.211 306.922 206.44 306.891 206.731 306.828V308C206.351 308.104 205.981 308.156 205.622 308.156C204.976 308.156 204.489 307.961 204.161 307.57C203.833 307.18 203.669 306.625 203.669 305.906V300.664H202.13V299.547H203.669V297.5H205.114ZM211.896 308.156C210.75 308.156 209.817 307.781 209.099 307.031C208.38 306.276 208.021 305.268 208.021 304.008V303.742C208.021 302.904 208.179 302.156 208.497 301.5C208.82 300.839 209.268 300.323 209.841 299.953C210.419 299.578 211.044 299.391 211.716 299.391C212.815 299.391 213.669 299.753 214.278 300.477C214.888 301.201 215.192 302.237 215.192 303.586V304.188H209.466C209.487 305.021 209.729 305.695 210.192 306.211C210.661 306.721 211.255 306.977 211.974 306.977C212.484 306.977 212.916 306.872 213.271 306.664C213.625 306.456 213.935 306.18 214.2 305.836L215.083 306.523C214.375 307.612 213.312 308.156 211.896 308.156ZM211.716 300.578C211.132 300.578 210.643 300.792 210.247 301.219C209.851 301.641 209.606 302.234 209.513 303H213.747V302.891C213.705 302.156 213.507 301.589 213.153 301.188C212.799 300.781 212.32 300.578 211.716 300.578ZM220.958 300.844C220.739 300.807 220.502 300.789 220.247 300.789C219.299 300.789 218.656 301.193 218.317 302V308H216.872V299.547H218.278L218.302 300.523C218.776 299.768 219.448 299.391 220.317 299.391C220.599 299.391 220.812 299.427 220.958 299.5V300.844ZM235.239 302.68C235.239 303.794 235.052 304.768 234.677 305.602C234.302 306.43 233.771 307.062 233.083 307.5C232.396 307.938 231.593 308.156 230.677 308.156C229.781 308.156 228.987 307.938 228.294 307.5C227.601 307.057 227.062 306.43 226.677 305.617C226.297 304.799 226.101 303.854 226.091 302.781V301.961C226.091 300.867 226.281 299.901 226.661 299.062C227.041 298.224 227.578 297.583 228.271 297.141C228.968 296.693 229.765 296.469 230.661 296.469C231.573 296.469 232.375 296.69 233.067 297.133C233.765 297.57 234.302 298.208 234.677 299.047C235.052 299.88 235.239 300.852 235.239 301.961V302.68ZM233.747 301.945C233.747 300.596 233.476 299.562 232.935 298.844C232.393 298.12 231.635 297.758 230.661 297.758C229.713 297.758 228.966 298.12 228.419 298.844C227.877 299.562 227.599 300.562 227.583 301.844V302.68C227.583 303.987 227.856 305.016 228.403 305.766C228.955 306.51 229.713 306.883 230.677 306.883C231.646 306.883 232.396 306.531 232.927 305.828C233.458 305.12 233.731 304.107 233.747 302.789V301.945ZM245.13 297.859H241.474V308H239.981V297.859H236.333V296.625H245.13V297.859ZM248.317 303.547V308H246.817V296.625H251.013C252.257 296.625 253.231 296.943 253.935 297.578C254.643 298.214 254.997 299.055 254.997 300.102C254.997 301.206 254.651 302.057 253.958 302.656C253.271 303.25 252.284 303.547 250.997 303.547H248.317ZM248.317 302.32H251.013C251.815 302.32 252.429 302.133 252.856 301.758C253.284 301.378 253.497 300.831 253.497 300.117C253.497 299.44 253.284 298.898 252.856 298.492C252.429 298.086 251.843 297.875 251.099 297.859H248.317V302.32ZM260.271 303.695C260.271 302.867 260.432 302.122 260.755 301.461C261.083 300.799 261.536 300.289 262.114 299.93C262.698 299.57 263.362 299.391 264.106 299.391C265.257 299.391 266.187 299.789 266.896 300.586C267.609 301.383 267.966 302.443 267.966 303.766V303.867C267.966 304.69 267.807 305.43 267.489 306.086C267.177 306.737 266.726 307.245 266.138 307.609C265.554 307.974 264.882 308.156 264.122 308.156C262.976 308.156 262.047 307.758 261.333 306.961C260.625 306.164 260.271 305.109 260.271 303.797V303.695ZM261.724 303.867C261.724 304.805 261.94 305.557 262.372 306.125C262.81 306.693 263.393 306.977 264.122 306.977C264.856 306.977 265.44 306.69 265.872 306.117C266.304 305.539 266.521 304.732 266.521 303.695C266.521 302.768 266.299 302.018 265.856 301.445C265.419 300.867 264.836 300.578 264.106 300.578C263.393 300.578 262.817 300.862 262.38 301.43C261.942 301.997 261.724 302.81 261.724 303.867ZM271.146 299.547L271.192 300.609C271.838 299.797 272.682 299.391 273.724 299.391C275.51 299.391 276.411 300.398 276.427 302.414V308H274.981V302.406C274.976 301.797 274.836 301.346 274.56 301.055C274.289 300.763 273.864 300.617 273.286 300.617C272.817 300.617 272.406 300.742 272.052 300.992C271.698 301.242 271.422 301.57 271.224 301.977V308H269.778V299.547H271.146ZM289.083 305.031H284.317L283.247 308H281.7L286.044 296.625H287.356L291.708 308H290.169L289.083 305.031ZM284.771 303.797H288.638L286.7 298.477L284.771 303.797ZM300.083 297.859H296.427V308H294.935V297.859H291.286V296.625H300.083V297.859ZM303.708 296.625L307.427 305.906L311.146 296.625H313.091V308H311.591V303.57L311.731 298.789L307.997 308H306.849L303.122 298.812L303.271 303.57V308H301.771V296.625H303.708ZM324.403 305.758C324.403 305.367 324.255 305.065 323.958 304.852C323.666 304.633 323.153 304.445 322.419 304.289C321.69 304.133 321.109 303.945 320.677 303.727C320.25 303.508 319.932 303.247 319.724 302.945C319.521 302.643 319.419 302.284 319.419 301.867C319.419 301.174 319.711 300.589 320.294 300.109C320.882 299.63 321.632 299.391 322.544 299.391C323.502 299.391 324.278 299.638 324.872 300.133C325.471 300.628 325.771 301.26 325.771 302.031H324.317C324.317 301.635 324.148 301.294 323.81 301.008C323.476 300.721 323.054 300.578 322.544 300.578C322.018 300.578 321.606 300.693 321.31 300.922C321.013 301.151 320.864 301.451 320.864 301.82C320.864 302.169 321.002 302.432 321.278 302.609C321.554 302.786 322.052 302.956 322.771 303.117C323.494 303.279 324.08 303.471 324.528 303.695C324.976 303.919 325.307 304.19 325.521 304.508C325.739 304.82 325.849 305.203 325.849 305.656C325.849 306.411 325.547 307.018 324.942 307.477C324.338 307.93 323.554 308.156 322.591 308.156C321.914 308.156 321.315 308.036 320.794 307.797C320.273 307.557 319.864 307.224 319.567 306.797C319.276 306.365 319.13 305.898 319.13 305.398H320.575C320.601 305.883 320.794 306.268 321.153 306.555C321.518 306.836 321.997 306.977 322.591 306.977C323.138 306.977 323.575 306.867 323.903 306.648C324.237 306.424 324.403 306.128 324.403 305.758ZM331.122 306.977C331.638 306.977 332.088 306.82 332.474 306.508C332.859 306.195 333.073 305.805 333.114 305.336H334.481C334.455 305.82 334.289 306.281 333.981 306.719C333.674 307.156 333.263 307.505 332.747 307.766C332.237 308.026 331.695 308.156 331.122 308.156C329.971 308.156 329.054 307.773 328.372 307.008C327.695 306.237 327.356 305.185 327.356 303.852V303.609C327.356 302.786 327.507 302.055 327.81 301.414C328.112 300.773 328.544 300.276 329.106 299.922C329.674 299.568 330.343 299.391 331.114 299.391C332.062 299.391 332.849 299.674 333.474 300.242C334.104 300.81 334.44 301.547 334.481 302.453H333.114C333.073 301.906 332.864 301.458 332.489 301.109C332.119 300.755 331.661 300.578 331.114 300.578C330.38 300.578 329.81 300.844 329.403 301.375C329.002 301.901 328.802 302.664 328.802 303.664V303.938C328.802 304.911 329.002 305.661 329.403 306.188C329.804 306.714 330.377 306.977 331.122 306.977ZM340.192 300.844C339.974 300.807 339.737 300.789 339.481 300.789C338.534 300.789 337.89 301.193 337.552 302V308H336.106V299.547H337.513L337.536 300.523C338.01 299.768 338.682 299.391 339.552 299.391C339.833 299.391 340.047 299.427 340.192 299.5V300.844ZM344.88 308.156C343.734 308.156 342.802 307.781 342.083 307.031C341.364 306.276 341.005 305.268 341.005 304.008V303.742C341.005 302.904 341.164 302.156 341.481 301.5C341.804 300.839 342.252 300.323 342.825 299.953C343.403 299.578 344.028 299.391 344.7 299.391C345.799 299.391 346.653 299.753 347.263 300.477C347.872 301.201 348.177 302.237 348.177 303.586V304.188H342.45C342.471 305.021 342.713 305.695 343.177 306.211C343.646 306.721 344.239 306.977 344.958 306.977C345.468 306.977 345.901 306.872 346.255 306.664C346.609 306.456 346.919 306.18 347.185 305.836L348.067 306.523C347.359 307.612 346.297 308.156 344.88 308.156ZM344.7 300.578C344.117 300.578 343.627 300.792 343.231 301.219C342.836 301.641 342.591 302.234 342.497 303H346.731V302.891C346.69 302.156 346.492 301.589 346.138 301.188C345.784 300.781 345.304 300.578 344.7 300.578ZM353.364 308.156C352.218 308.156 351.286 307.781 350.567 307.031C349.849 306.276 349.489 305.268 349.489 304.008V303.742C349.489 302.904 349.648 302.156 349.966 301.5C350.289 300.839 350.737 300.323 351.31 299.953C351.888 299.578 352.513 299.391 353.185 299.391C354.284 299.391 355.138 299.753 355.747 300.477C356.356 301.201 356.661 302.237 356.661 303.586V304.188H350.935C350.955 305.021 351.198 305.695 351.661 306.211C352.13 306.721 352.724 306.977 353.442 306.977C353.953 306.977 354.385 306.872 354.739 306.664C355.093 306.456 355.403 306.18 355.669 305.836L356.552 306.523C355.843 307.612 354.781 308.156 353.364 308.156ZM353.185 300.578C352.601 300.578 352.112 300.792 351.716 301.219C351.32 301.641 351.075 302.234 350.981 303H355.216V302.891C355.174 302.156 354.976 301.589 354.622 301.188C354.268 300.781 353.789 300.578 353.185 300.578ZM359.708 299.547L359.755 300.609C360.401 299.797 361.244 299.391 362.286 299.391C364.073 299.391 364.974 300.398 364.989 302.414V308H363.544V302.406C363.539 301.797 363.398 301.346 363.122 301.055C362.851 300.763 362.427 300.617 361.849 300.617C361.38 300.617 360.968 300.742 360.614 300.992C360.26 301.242 359.984 301.57 359.786 301.977V308H358.341V299.547H359.708ZM373.099 297.5V299.547H374.677V300.664H373.099V305.906C373.099 306.245 373.169 306.5 373.31 306.672C373.45 306.839 373.69 306.922 374.028 306.922C374.195 306.922 374.424 306.891 374.716 306.828V308C374.336 308.104 373.966 308.156 373.606 308.156C372.961 308.156 372.474 307.961 372.146 307.57C371.817 307.18 371.653 306.625 371.653 305.906V300.664H370.114V299.547H371.653V297.5H373.099ZM375.833 303.695C375.833 302.867 375.994 302.122 376.317 301.461C376.646 300.799 377.099 300.289 377.677 299.93C378.26 299.57 378.924 299.391 379.669 299.391C380.82 299.391 381.75 299.789 382.458 300.586C383.172 301.383 383.528 302.443 383.528 303.766V303.867C383.528 304.69 383.369 305.43 383.052 306.086C382.739 306.737 382.289 307.245 381.7 307.609C381.117 307.974 380.445 308.156 379.685 308.156C378.539 308.156 377.609 307.758 376.896 306.961C376.187 306.164 375.833 305.109 375.833 303.797V303.695ZM377.286 303.867C377.286 304.805 377.502 305.557 377.935 306.125C378.372 306.693 378.955 306.977 379.685 306.977C380.419 306.977 381.002 306.69 381.435 306.117C381.867 305.539 382.083 304.732 382.083 303.695C382.083 302.768 381.862 302.018 381.419 301.445C380.981 300.867 380.398 300.578 379.669 300.578C378.955 300.578 378.38 300.862 377.942 301.43C377.505 301.997 377.286 302.81 377.286 303.867ZM396.794 306.008L398.419 299.547H399.864L397.403 308H396.231L394.177 301.594L392.177 308H391.005L388.552 299.547H389.989L391.653 305.875L393.622 299.547H394.786L396.794 306.008ZM402.911 308H401.466V299.547H402.911V308ZM401.349 297.305C401.349 297.07 401.419 296.872 401.56 296.711C401.705 296.549 401.919 296.469 402.2 296.469C402.481 296.469 402.695 296.549 402.841 296.711C402.987 296.872 403.06 297.07 403.06 297.305C403.06 297.539 402.987 297.734 402.841 297.891C402.695 298.047 402.481 298.125 402.2 298.125C401.919 298.125 401.705 298.047 401.56 297.891C401.419 297.734 401.349 297.539 401.349 297.305ZM407.192 297.5V299.547H408.771V300.664H407.192V305.906C407.192 306.245 407.263 306.5 407.403 306.672C407.544 306.839 407.784 306.922 408.122 306.922C408.289 306.922 408.518 306.891 408.81 306.828V308C408.429 308.104 408.06 308.156 407.7 308.156C407.054 308.156 406.567 307.961 406.239 307.57C405.911 307.18 405.747 306.625 405.747 305.906V300.664H404.208V299.547H405.747V297.5H407.192ZM411.911 300.57C412.552 299.784 413.385 299.391 414.411 299.391C416.198 299.391 417.099 300.398 417.114 302.414V308H415.669V302.406C415.664 301.797 415.523 301.346 415.247 301.055C414.976 300.763 414.552 300.617 413.974 300.617C413.505 300.617 413.093 300.742 412.739 300.992C412.385 301.242 412.109 301.57 411.911 301.977V308H410.466V296H411.911V300.57ZM418.927 303.703C418.927 302.406 419.234 301.365 419.849 300.578C420.463 299.786 421.268 299.391 422.263 299.391C423.252 299.391 424.036 299.729 424.614 300.406V296H426.06V308H424.731L424.661 307.094C424.083 307.802 423.278 308.156 422.247 308.156C421.268 308.156 420.468 307.755 419.849 306.953C419.234 306.151 418.927 305.104 418.927 303.812V303.703ZM420.372 303.867C420.372 304.826 420.57 305.576 420.966 306.117C421.362 306.659 421.909 306.93 422.606 306.93C423.523 306.93 424.192 306.518 424.614 305.695V301.812C424.182 301.016 423.518 300.617 422.622 300.617C421.914 300.617 421.362 300.891 420.966 301.438C420.57 301.984 420.372 302.794 420.372 303.867ZM432.396 300.844C432.177 300.807 431.94 300.789 431.685 300.789C430.737 300.789 430.093 301.193 429.755 302V308H428.31V299.547H429.716L429.739 300.523C430.213 299.768 430.885 299.391 431.755 299.391C432.036 299.391 432.25 299.427 432.396 299.5V300.844ZM438.638 308C438.554 307.833 438.487 307.536 438.435 307.109C437.763 307.807 436.961 308.156 436.028 308.156C435.195 308.156 434.51 307.922 433.974 307.453C433.442 306.979 433.177 306.38 433.177 305.656C433.177 304.776 433.51 304.094 434.177 303.609C434.849 303.12 435.791 302.875 437.005 302.875H438.411V302.211C438.411 301.706 438.26 301.305 437.958 301.008C437.656 300.706 437.211 300.555 436.622 300.555C436.106 300.555 435.674 300.685 435.325 300.945C434.976 301.206 434.802 301.521 434.802 301.891H433.349C433.349 301.469 433.497 301.062 433.794 300.672C434.096 300.276 434.502 299.964 435.013 299.734C435.528 299.505 436.093 299.391 436.708 299.391C437.682 299.391 438.445 299.635 438.997 300.125C439.549 300.609 439.836 301.279 439.856 302.133V306.023C439.856 306.799 439.955 307.417 440.153 307.875V308H438.638ZM436.239 306.898C436.692 306.898 437.122 306.781 437.528 306.547C437.935 306.312 438.229 306.008 438.411 305.633V303.898H437.278C435.507 303.898 434.622 304.417 434.622 305.453C434.622 305.906 434.773 306.26 435.075 306.516C435.377 306.771 435.765 306.898 436.239 306.898ZM449.606 306.008L451.231 299.547H452.677L450.216 308H449.044L446.989 301.594L444.989 308H443.817L441.364 299.547H442.802L444.466 305.875L446.435 299.547H447.599L449.606 306.008ZM459.567 300.57C460.208 299.784 461.041 299.391 462.067 299.391C463.854 299.391 464.755 300.398 464.771 302.414V308H463.325V302.406C463.32 301.797 463.179 301.346 462.903 301.055C462.632 300.763 462.208 300.617 461.63 300.617C461.161 300.617 460.75 300.742 460.396 300.992C460.041 301.242 459.765 301.57 459.567 301.977V308H458.122V296H459.567V300.57ZM468.505 308H467.06V299.547H468.505V308ZM466.942 297.305C466.942 297.07 467.013 296.872 467.153 296.711C467.299 296.549 467.513 296.469 467.794 296.469C468.075 296.469 468.289 296.549 468.435 296.711C468.58 296.872 468.653 297.07 468.653 297.305C468.653 297.539 468.58 297.734 468.435 297.891C468.289 298.047 468.075 298.125 467.794 298.125C467.513 298.125 467.299 298.047 467.153 297.891C467.013 297.734 466.942 297.539 466.942 297.305ZM475.747 305.758C475.747 305.367 475.599 305.065 475.302 304.852C475.01 304.633 474.497 304.445 473.763 304.289C473.034 304.133 472.453 303.945 472.021 303.727C471.593 303.508 471.276 303.247 471.067 302.945C470.864 302.643 470.763 302.284 470.763 301.867C470.763 301.174 471.054 300.589 471.638 300.109C472.226 299.63 472.976 299.391 473.888 299.391C474.846 299.391 475.622 299.638 476.216 300.133C476.815 300.628 477.114 301.26 477.114 302.031H475.661C475.661 301.635 475.492 301.294 475.153 301.008C474.82 300.721 474.398 300.578 473.888 300.578C473.362 300.578 472.95 300.693 472.653 300.922C472.356 301.151 472.208 301.451 472.208 301.82C472.208 302.169 472.346 302.432 472.622 302.609C472.898 302.786 473.396 302.956 474.114 303.117C474.838 303.279 475.424 303.471 475.872 303.695C476.32 303.919 476.651 304.19 476.864 304.508C477.083 304.82 477.192 305.203 477.192 305.656C477.192 306.411 476.89 307.018 476.286 307.477C475.682 307.93 474.898 308.156 473.935 308.156C473.257 308.156 472.659 308.036 472.138 307.797C471.617 307.557 471.208 307.224 470.911 306.797C470.619 306.365 470.474 305.898 470.474 305.398H471.919C471.945 305.883 472.138 306.268 472.497 306.555C472.862 306.836 473.341 306.977 473.935 306.977C474.481 306.977 474.919 306.867 475.247 306.648C475.58 306.424 475.747 306.128 475.747 305.758ZM484.403 299.547L484.442 300.484C485.062 299.755 485.898 299.391 486.95 299.391C488.132 299.391 488.937 299.844 489.364 300.75C489.646 300.344 490.01 300.016 490.458 299.766C490.911 299.516 491.445 299.391 492.06 299.391C493.914 299.391 494.856 300.372 494.888 302.336V308H493.442V302.422C493.442 301.818 493.304 301.367 493.028 301.07C492.752 300.768 492.289 300.617 491.638 300.617C491.101 300.617 490.656 300.779 490.302 301.102C489.948 301.419 489.742 301.849 489.685 302.391V308H488.231V302.461C488.231 301.232 487.63 300.617 486.427 300.617C485.479 300.617 484.83 301.021 484.481 301.828V308H483.036V299.547H484.403ZM496.692 303.695C496.692 302.867 496.854 302.122 497.177 301.461C497.505 300.799 497.958 300.289 498.536 299.93C499.119 299.57 499.784 299.391 500.528 299.391C501.679 299.391 502.609 299.789 503.317 300.586C504.031 301.383 504.388 302.443 504.388 303.766V303.867C504.388 304.69 504.229 305.43 503.911 306.086C503.599 306.737 503.148 307.245 502.56 307.609C501.976 307.974 501.304 308.156 500.544 308.156C499.398 308.156 498.468 307.758 497.755 306.961C497.047 306.164 496.692 305.109 496.692 303.797V303.695ZM498.146 303.867C498.146 304.805 498.362 305.557 498.794 306.125C499.231 306.693 499.815 306.977 500.544 306.977C501.278 306.977 501.862 306.69 502.294 306.117C502.726 305.539 502.942 304.732 502.942 303.695C502.942 302.768 502.721 302.018 502.278 301.445C501.841 300.867 501.257 300.578 500.528 300.578C499.815 300.578 499.239 300.862 498.802 301.43C498.364 301.997 498.146 302.81 498.146 303.867ZM507.567 299.547L507.614 300.609C508.26 299.797 509.104 299.391 510.146 299.391C511.932 299.391 512.833 300.398 512.849 302.414V308H511.403V302.406C511.398 301.797 511.257 301.346 510.981 301.055C510.711 300.763 510.286 300.617 509.708 300.617C509.239 300.617 508.828 300.742 508.474 300.992C508.119 301.242 507.843 301.57 507.646 301.977V308H506.2V299.547H507.567ZM518.536 308.156C517.39 308.156 516.458 307.781 515.739 307.031C515.021 306.276 514.661 305.268 514.661 304.008V303.742C514.661 302.904 514.82 302.156 515.138 301.5C515.461 300.839 515.909 300.323 516.481 299.953C517.06 299.578 517.685 299.391 518.356 299.391C519.455 299.391 520.31 299.753 520.919 300.477C521.528 301.201 521.833 302.237 521.833 303.586V304.188H516.106C516.127 305.021 516.369 305.695 516.833 306.211C517.302 306.721 517.896 306.977 518.614 306.977C519.125 306.977 519.557 306.872 519.911 306.664C520.265 306.456 520.575 306.18 520.841 305.836L521.724 306.523C521.015 307.612 519.953 308.156 518.536 308.156ZM518.356 300.578C517.773 300.578 517.284 300.792 516.888 301.219C516.492 301.641 516.247 302.234 516.153 303H520.388V302.891C520.346 302.156 520.148 301.589 519.794 301.188C519.44 300.781 518.961 300.578 518.356 300.578ZM526.169 305.883L528.138 299.547H529.685L526.286 309.305C525.76 310.711 524.924 311.414 523.778 311.414L523.505 311.391L522.966 311.289V310.117L523.356 310.148C523.846 310.148 524.226 310.049 524.497 309.852C524.773 309.654 525 309.292 525.177 308.766L525.497 307.906L522.481 299.547H524.06L526.169 305.883Z" fill="#656668"/>
<path d="M47.7587 320H50.6387V314.848H53.8387V312.32H50.6387V297.088H47.1507L35.9187 312.64V314.848H47.7587V320ZM39.2787 312.32L47.8867 300.128V312.32H39.2787Z" fill="#656668"/>
<defs>
<filter id="filter0_d" x="0" y="0" width="594.56" height="113" filterUnits="userSpaceOnUse" color-interpolation-filters="sRGB">
<feFlood flood-opacity="0" result="BackgroundImageFix"/>
<feColorMatrix in="SourceAlpha" type="matrix" values="0 0 0 0 0 0 0 0 0 0 0 0 0 0 0 0 0 0 127 0"/>
<feMorphology radius="4" operator="dilate" in="SourceAlpha" result="effect1_dropShadow"/>
<feOffset dy="3"/>
<feGaussianBlur stdDeviation="7.5"/>
<feColorMatrix type="matrix" values="0 0 0 0 0.872109 0 0 0 0 0.853125 0 0 0 0 0.9375 0 0 0 0.5 0"/>
<feBlend mode="normal" in2="BackgroundImageFix" result="effect1_dropShadow"/>
<feBlend mode="normal" in="SourceGraphic" in2="effect1_dropShadow" result="shape"/>
</filter>
</defs>
</svg>
