<svg width="188" height="63" viewBox="0 0 188 63" fill="none" xmlns="http://www.w3.org/2000/svg">
<path d="M1.48332 11.4571C1.48332 14.1741 3.47232 16.0721 6.00732 16.0721C7.97032 16.0721 9.53032 15.0971 10.2063 13.3551H8.78932C8.29532 14.4341 7.33332 15.0451 6.00732 15.0451C4.10932 15.0451 2.69232 13.6671 2.69232 11.4571C2.69232 9.23414 4.10932 7.85614 6.00732 7.85614C7.33332 7.85614 8.29532 8.46714 8.78932 9.55914H10.2063C9.53032 7.80414 7.97032 6.81614 6.00732 6.81614C3.47232 6.81614 1.48332 8.74014 1.48332 11.4571ZM18.7273 12.4191C18.7273 10.1701 17.1543 8.75314 15.1263 8.75314C13.1113 8.75314 11.5253 10.1701 11.5253 12.4191C11.5253 14.6811 13.0593 16.1111 15.0743 16.1111C17.1023 16.1111 18.7273 14.6811 18.7273 12.4191ZM12.7343 12.4191C12.7343 10.6251 13.8653 9.78014 15.1133 9.78014C16.3353 9.78014 17.5183 10.6251 17.5183 12.4191C17.5183 14.2261 16.3093 15.0711 15.0743 15.0711C13.8393 15.0711 12.7343 14.2261 12.7343 12.4191ZM25.4957 15.9941H26.6657V11.7951C26.6657 9.75414 25.4047 8.74014 23.7537 8.74014C22.7917 8.74014 21.9337 9.14314 21.4657 9.88414V8.87014H20.2827V15.9941H21.4657V12.0551C21.4657 10.5211 22.2977 9.76714 23.5067 9.76714C24.7027 9.76714 25.4957 10.5081 25.4957 11.9641V15.9941ZM33.7202 14.0571C33.6682 11.5091 29.5342 12.4321 29.5342 10.7421C29.5342 10.1701 30.0542 9.75414 30.9252 9.75414C31.8742 9.75414 32.4202 10.2741 32.4722 10.9891H33.6552C33.5772 9.59814 32.5372 8.75314 30.9642 8.75314C29.3782 8.75314 28.3512 9.65014 28.3512 10.7421C28.3512 13.3941 32.5632 12.4711 32.5632 14.0571C32.5632 14.6421 32.0432 15.1101 31.1072 15.1101C30.1062 15.1101 29.4952 14.5901 29.4302 13.9011H28.2082C28.2862 15.2011 29.4562 16.1111 31.1202 16.1111C32.6932 16.1111 33.7202 15.2271 33.7202 14.0571ZM41.7082 8.87014H40.5252V12.7831C40.5252 14.3171 39.7062 15.0711 38.4842 15.0711C37.2882 15.0711 36.4952 14.3301 36.4952 12.8871V8.87014H35.3252V13.0431C35.3252 15.0841 36.6122 16.0981 38.2502 16.0981C39.1992 16.0981 40.0702 15.6821 40.5252 14.9411V15.9941H41.7082V8.87014ZM53.9886 15.9941H55.1586V11.7951C55.1586 9.75414 53.8976 8.74014 52.2726 8.74014C51.1806 8.74014 50.1666 9.29914 49.7506 10.3261C49.2826 9.26014 48.3076 8.74014 47.1376 8.74014C46.2016 8.74014 45.3566 9.14314 44.8886 9.89714V8.87014H43.7056V15.9941H44.8886V12.0681C44.8886 10.5341 45.7076 9.76714 46.9036 9.76714C48.0736 9.76714 48.8536 10.5081 48.8536 11.9641V15.9941H50.0236V12.0681C50.0236 10.5341 50.8426 9.76714 52.0386 9.76714C53.2086 9.76714 53.9886 10.5081 53.9886 11.9641V15.9941ZM60.1281 9.75414C61.3501 9.75414 62.3901 10.5211 62.3771 11.9121H57.8791C58.0091 10.5211 58.9711 9.75414 60.1281 9.75414ZM63.4561 13.7971H62.1821C61.9221 14.5641 61.2461 15.1101 60.1801 15.1101C58.9711 15.1101 57.9571 14.3171 57.8661 12.8741H63.5601C63.5861 12.6271 63.5991 12.4191 63.5991 12.1591C63.5991 10.2091 62.2471 8.75314 60.1801 8.75314C58.1001 8.75314 56.6571 10.1701 56.6571 12.4191C56.6571 14.6811 58.1521 16.1111 60.1801 16.1111C61.9481 16.1111 63.0921 15.0971 63.4561 13.7971ZM66.3437 12.1201C66.3437 10.4691 67.2017 9.96214 68.3327 9.96214H68.6447V8.74014C67.5137 8.74014 66.7467 9.23414 66.3437 10.0271V8.87014H65.1607V15.9941H66.3437V12.1201ZM73.0341 12.4191C73.0341 14.6811 74.4771 16.1111 76.5051 16.1111C78.2731 16.1111 79.4301 15.1231 79.7941 13.7061H78.5201C78.2601 14.6031 77.5581 15.1101 76.5051 15.1101C75.2051 15.1101 74.2431 14.1871 74.2431 12.4191C74.2431 10.6771 75.2051 9.75414 76.5051 9.75414C77.5581 9.75414 78.2731 10.3001 78.5201 11.1581H79.7941C79.4301 9.66314 78.2731 8.75314 76.5051 8.75314C74.4771 8.75314 73.0341 10.1831 73.0341 12.4191ZM80.9306 12.4061C80.9306 14.6161 82.3996 16.1111 84.2976 16.1111C85.6106 16.1111 86.5336 15.4351 86.9626 14.6681V15.9941H88.1586V8.87014H86.9626V10.1701C86.5466 9.42914 85.6366 8.75314 84.3106 8.75314C82.3996 8.75314 80.9306 10.1831 80.9306 12.4061ZM86.9626 12.4191C86.9626 14.0961 85.8446 15.0711 84.5446 15.0711C83.2446 15.0711 82.1396 14.0831 82.1396 12.4061C82.1396 10.7291 83.2446 9.78014 84.5446 9.78014C85.8446 9.78014 86.9626 10.7681 86.9626 12.4191ZM95.3707 15.9941H96.5407V11.7951C96.5407 9.75414 95.2797 8.74014 93.6287 8.74014C92.6667 8.74014 91.8087 9.14314 91.3407 9.88414V8.87014H90.1577V15.9941H91.3407V12.0551C91.3407 10.5211 92.1727 9.76714 93.3817 9.76714C94.5777 9.76714 95.3707 10.5081 95.3707 11.9641V15.9941ZM101.497 12.4191C101.497 14.6811 102.94 16.1111 104.968 16.1111C106.736 16.1111 107.893 15.1231 108.257 13.7061H106.983C106.723 14.6031 106.021 15.1101 104.968 15.1101C103.668 15.1101 102.706 14.1871 102.706 12.4191C102.706 10.6771 103.668 9.75414 104.968 9.75414C106.021 9.75414 106.736 10.3001 106.983 11.1581H108.257C107.893 9.66314 106.736 8.75314 104.968 8.75314C102.94 8.75314 101.497 10.1831 101.497 12.4191ZM109.835 15.9941H111.018V12.0551C111.018 10.5211 111.85 9.76714 113.059 9.76714C114.255 9.76714 115.048 10.5081 115.048 11.9641V15.9941H116.218V11.7951C116.218 9.75414 114.957 8.74014 113.371 8.74014C112.37 8.74014 111.486 9.14314 111.018 9.89714V6.37414H109.835V15.9941ZM121.18 9.75414C122.402 9.75414 123.442 10.5211 123.429 11.9121H118.931C119.061 10.5211 120.023 9.75414 121.18 9.75414ZM124.508 13.7971H123.234C122.974 14.5641 122.298 15.1101 121.232 15.1101C120.023 15.1101 119.009 14.3171 118.918 12.8741H124.612C124.638 12.6271 124.651 12.4191 124.651 12.1591C124.651 10.2091 123.299 8.75314 121.232 8.75314C119.152 8.75314 117.709 10.1701 117.709 12.4191C117.709 14.6811 119.204 16.1111 121.232 16.1111C123 16.1111 124.144 15.0971 124.508 13.7971ZM125.77 12.4191C125.77 14.6811 127.213 16.1111 129.241 16.1111C131.009 16.1111 132.166 15.1231 132.53 13.7061H131.256C130.996 14.6031 130.294 15.1101 129.241 15.1101C127.941 15.1101 126.979 14.1871 126.979 12.4191C126.979 10.6771 127.941 9.75414 129.241 9.75414C130.294 9.75414 131.009 10.3001 131.256 11.1581H132.53C132.166 9.66314 131.009 8.75314 129.241 8.75314C127.213 8.75314 125.77 10.1831 125.77 12.4191ZM134.109 15.9941H135.292V12.8481L138.087 15.9941H139.699L136.332 12.4191L139.686 8.87014H138.035L135.292 12.0291V6.37414H134.109V15.9941ZM144.265 15.9941H145.448V12.0551C145.448 10.5211 146.28 9.76714 147.489 9.76714C148.685 9.76714 149.478 10.5081 149.478 11.9641V15.9941H150.648V11.7951C150.648 9.75414 149.387 8.74014 147.801 8.74014C146.8 8.74014 145.916 9.14314 145.448 9.89714V6.37414H144.265V15.9941ZM159.341 12.4191C159.341 10.1701 157.768 8.75314 155.74 8.75314C153.725 8.75314 152.139 10.1701 152.139 12.4191C152.139 14.6811 153.673 16.1111 155.688 16.1111C157.716 16.1111 159.341 14.6811 159.341 12.4191ZM153.348 12.4191C153.348 10.6251 154.479 9.78014 155.727 9.78014C156.949 9.78014 158.132 10.6251 158.132 12.4191C158.132 14.2261 156.923 15.0711 155.688 15.0711C154.453 15.0711 153.348 14.2261 153.348 12.4191ZM162.287 15.9941H163.509L165.225 10.3391L166.941 15.9941H168.163L170.386 8.87014H169.216L167.604 14.8631L165.875 8.87014H164.666L162.898 14.8501L161.26 8.87014H160.051L162.287 15.9941ZM175.286 14.0441C175.286 15.4741 176.001 15.9941 177.262 15.9941H178.328V14.9931H177.457C176.729 14.9931 176.469 14.7461 176.469 14.0441V9.84514H178.328V8.87014H176.469V7.07614H175.286V8.87014H174.363V9.84514H175.286V14.0441ZM186.521 12.4191C186.521 10.1701 184.948 8.75314 182.92 8.75314C180.905 8.75314 179.319 10.1701 179.319 12.4191C179.319 14.6811 180.853 16.1111 182.868 16.1111C184.896 16.1111 186.521 14.6811 186.521 12.4191ZM180.528 12.4191C180.528 10.6251 181.659 9.78014 182.907 9.78014C184.129 9.78014 185.312 10.6251 185.312 12.4191C185.312 14.2261 184.103 15.0711 182.868 15.0711C181.633 15.0711 180.528 14.2261 180.528 12.4191ZM47.0771 35.9941H48.2991L50.0151 30.3391L51.7311 35.9941H52.9531L55.1761 28.8701H54.0061L52.3941 34.8631L50.6651 28.8701H49.4561L47.6881 34.8501L46.0501 28.8701H44.8411L47.0771 35.9941ZM56.3501 35.9941H57.5331V28.8701H56.3501V35.9941ZM56.9611 27.7131C57.3901 27.7131 57.7411 27.3621 57.7411 26.9071C57.7411 26.4521 57.3901 26.1011 56.9611 26.1011C56.5061 26.1011 56.1551 26.4521 56.1551 26.9071C56.1551 27.3621 56.5061 27.7131 56.9611 27.7131ZM59.8093 34.0441C59.8093 35.4741 60.5243 35.9941 61.7853 35.9941H62.8513V34.9931H61.9803C61.2523 34.9931 60.9923 34.7461 60.9923 34.0441V29.8451H62.8513V28.8701H60.9923V27.0761H59.8093V28.8701H58.8863V29.8451H59.8093V34.0441ZM64.2847 35.9941H65.4677V32.0551C65.4677 30.5211 66.2997 29.7671 67.5087 29.7671C68.7047 29.7671 69.4977 30.5081 69.4977 31.9641V35.9941H70.6677V31.7951C70.6677 29.7541 69.4067 28.7401 67.8207 28.7401C66.8197 28.7401 65.9357 29.1431 65.4677 29.8971V26.3741H64.2847V35.9941ZM72.1581 32.4061C72.1581 34.6161 73.6271 36.1111 75.5381 36.1111C76.8381 36.1111 77.7611 35.4481 78.1901 34.6551V35.9941H79.3861V26.3741H78.1901V30.1441C77.6961 29.3251 76.6691 28.7531 75.5511 28.7531C73.6271 28.7531 72.1581 30.1831 72.1581 32.4061ZM78.1901 32.4191C78.1901 34.0961 77.0721 35.0711 75.7721 35.0711C74.4721 35.0711 73.3671 34.0831 73.3671 32.4061C73.3671 30.7291 74.4721 29.7801 75.7721 29.7801C77.0721 29.7801 78.1901 30.7681 78.1901 32.4191ZM82.5683 32.1201C82.5683 30.4691 83.4263 29.9621 84.5573 29.9621H84.8693V28.7401C83.7383 28.7401 82.9713 29.2341 82.5683 30.0271V28.8701H81.3853V35.9941H82.5683V32.1201ZM85.7929 32.4061C85.7929 34.6161 87.2619 36.1111 89.1599 36.1111C90.4729 36.1111 91.3959 35.4351 91.8249 34.6681V35.9941H93.0209V28.8701H91.8249V30.1701C91.4089 29.4291 90.4989 28.7531 89.1729 28.7531C87.2619 28.7531 85.7929 30.1831 85.7929 32.4061ZM91.8249 32.4191C91.8249 34.0961 90.7069 35.0711 89.4069 35.0711C88.1069 35.0711 87.0019 34.0831 87.0019 32.4061C87.0019 30.7291 88.1069 29.7801 89.4069 29.7801C90.7069 29.7801 91.8249 30.7681 91.8249 32.4191ZM96.411 35.9941H97.633L99.349 30.3391L101.065 35.9941H102.287L104.51 28.8701H103.34L101.728 34.8631L99.999 28.8701H98.79L97.022 34.8501L95.384 28.8701H94.175L96.411 35.9941ZM114.272 34.0571C114.22 31.5091 110.086 32.4321 110.086 30.7421C110.086 30.1701 110.606 29.7541 111.477 29.7541C112.426 29.7541 112.972 30.2741 113.024 30.9891H114.207C114.129 29.5981 113.089 28.7531 111.516 28.7531C109.93 28.7531 108.903 29.6501 108.903 30.7421C108.903 33.3941 113.115 32.4711 113.115 34.0571C113.115 34.6421 112.595 35.1101 111.659 35.1101C110.658 35.1101 110.047 34.5901 109.982 33.9011H108.76C108.838 35.2011 110.008 36.1111 111.672 36.1111C113.245 36.1111 114.272 35.2271 114.272 34.0571ZM116.202 34.0441C116.202 35.4741 116.917 35.9941 118.178 35.9941H119.244V34.9931H118.373C117.645 34.9931 117.385 34.7461 117.385 34.0441V29.8451H119.244V28.8701H117.385V27.0761H116.202V28.8701H115.279V29.8451H116.202V34.0441ZM123.706 29.7541C124.928 29.7541 125.968 30.5211 125.955 31.9121H121.457C121.587 30.5211 122.549 29.7541 123.706 29.7541ZM127.034 33.7971H125.76C125.5 34.5641 124.824 35.1101 123.758 35.1101C122.549 35.1101 121.535 34.3171 121.444 32.8741H127.138C127.164 32.6271 127.177 32.4191 127.177 32.1591C127.177 30.2091 125.825 28.7531 123.758 28.7531C121.678 28.7531 120.235 30.1701 120.235 32.4191C120.235 34.6811 121.73 36.1111 123.758 36.1111C125.526 36.1111 126.67 35.0971 127.034 33.7971ZM129.922 30.1831V28.8701H128.739V39.3741H129.922V34.6811C130.364 35.4091 131.287 36.1111 132.587 36.1111C134.498 36.1111 135.967 34.6161 135.967 32.4061C135.967 30.1831 134.498 28.7531 132.587 28.7531C131.287 28.7531 130.351 29.4291 129.922 30.1831ZM134.758 32.4061C134.758 34.0831 133.653 35.0711 132.34 35.0711C131.053 35.0711 129.922 34.0961 129.922 32.4191C129.922 30.7681 131.053 29.7801 132.34 29.7801C133.653 29.7801 134.758 30.7291 134.758 32.4061ZM142.646 34.0571C142.594 31.5091 138.46 32.4321 138.46 30.7421C138.46 30.1701 138.98 29.7541 139.851 29.7541C140.8 29.7541 141.346 30.2741 141.398 30.9891H142.581C142.503 29.5981 141.463 28.7531 139.89 28.7531C138.304 28.7531 137.277 29.6501 137.277 30.7421C137.277 33.3941 141.489 32.4711 141.489 34.0571C141.489 34.6421 140.969 35.1101 140.033 35.1101C139.032 35.1101 138.421 34.5901 138.356 33.9011H137.134C137.212 35.2011 138.382 36.1111 140.046 36.1111C141.619 36.1111 142.646 35.2271 142.646 34.0571Z" fill="#494B52"/>
</svg>
