<svg width="563" height="75" viewBox="0 0 563 75" fill="none" xmlns="http://www.w3.org/2000/svg">
<path d="M70.4023 34.3906C70.2617 35.5938 69.8164 36.5234 69.0664 37.1797C68.3216 37.8307 67.3294 38.1562 66.0898 38.1562C64.7461 38.1562 63.668 37.6745 62.8555 36.7109C62.0482 35.7474 61.6445 34.4583 61.6445 32.8438V31.75C61.6445 30.6927 61.832 29.763 62.207 28.9609C62.5872 28.1589 63.1237 27.5443 63.8164 27.1172C64.5091 26.6849 65.3112 26.4688 66.2227 26.4688C67.431 26.4688 68.3997 26.8073 69.1289 27.4844C69.8581 28.1562 70.2826 29.0885 70.4023 30.2812H68.8945C68.7643 29.375 68.4805 28.7188 68.043 28.3125C67.6107 27.9062 67.0039 27.7031 66.2227 27.7031C65.2643 27.7031 64.5117 28.0573 63.9648 28.7656C63.4232 29.474 63.1523 30.4818 63.1523 31.7891V32.8906C63.1523 34.125 63.4102 35.1068 63.9258 35.8359C64.4414 36.5651 65.1628 36.9297 66.0898 36.9297C66.9232 36.9297 67.5612 36.7422 68.0039 36.3672C68.4518 35.987 68.7487 35.3281 68.8945 34.3906H70.4023ZM71.8477 33.6953C71.8477 32.8672 72.0091 32.1224 72.332 31.4609C72.6602 30.7995 73.1133 30.2891 73.6914 29.9297C74.2747 29.5703 74.9388 29.3906 75.6836 29.3906C76.8346 29.3906 77.7643 29.7891 78.4727 30.5859C79.1862 31.3828 79.543 32.4427 79.543 33.7656V33.8672C79.543 34.6901 79.3841 35.4297 79.0664 36.0859C78.7539 36.737 78.3034 37.2448 77.7148 37.6094C77.1315 37.974 76.4596 38.1562 75.6992 38.1562C74.5534 38.1562 73.6237 37.7578 72.9102 36.9609C72.2018 36.1641 71.8477 35.1094 71.8477 33.7969V33.6953ZM73.3008 33.8672C73.3008 34.8047 73.5169 35.5573 73.9492 36.125C74.3867 36.6927 74.9701 36.9766 75.6992 36.9766C76.4336 36.9766 77.0169 36.6901 77.4492 36.1172C77.8815 35.5391 78.0977 34.7318 78.0977 33.6953C78.0977 32.7682 77.8763 32.0182 77.4336 31.4453C76.9961 30.8672 76.4128 30.5781 75.6836 30.5781C74.9701 30.5781 74.3945 30.862 73.957 31.4297C73.5195 31.9974 73.3008 32.8099 73.3008 33.8672ZM82.7227 29.5469L82.7695 30.6094C83.4154 29.7969 84.2591 29.3906 85.3008 29.3906C87.0872 29.3906 87.9883 30.3984 88.0039 32.4141V38H86.5586V32.4062C86.5534 31.7969 86.4128 31.3464 86.1367 31.0547C85.8659 30.763 85.4414 30.6172 84.8633 30.6172C84.3945 30.6172 83.9831 30.7422 83.6289 30.9922C83.2747 31.2422 82.9987 31.5703 82.8008 31.9766V38H81.3555V29.5469H82.7227ZM95.1055 35.7578C95.1055 35.3672 94.957 35.0651 94.6602 34.8516C94.3685 34.6328 93.8555 34.4453 93.1211 34.2891C92.3919 34.1328 91.8112 33.9453 91.3789 33.7266C90.9518 33.5078 90.6341 33.2474 90.4258 32.9453C90.2227 32.6432 90.1211 32.2839 90.1211 31.8672C90.1211 31.1745 90.4128 30.5885 90.9961 30.1094C91.5846 29.6302 92.3346 29.3906 93.2461 29.3906C94.2044 29.3906 94.9805 29.638 95.5742 30.1328C96.1732 30.6276 96.4727 31.2604 96.4727 32.0312H95.0195C95.0195 31.6354 94.8503 31.2943 94.5117 31.0078C94.1784 30.7214 93.7565 30.5781 93.2461 30.5781C92.7201 30.5781 92.3086 30.6927 92.0117 30.9219C91.7148 31.151 91.5664 31.4505 91.5664 31.8203C91.5664 32.1693 91.7044 32.4323 91.9805 32.6094C92.2565 32.7865 92.7539 32.9557 93.4727 33.1172C94.1966 33.2786 94.7826 33.4714 95.2305 33.6953C95.6784 33.9193 96.0091 34.1901 96.2227 34.5078C96.4414 34.8203 96.5508 35.2031 96.5508 35.6562C96.5508 36.4115 96.2487 37.0182 95.6445 37.4766C95.0404 37.9297 94.2565 38.1562 93.293 38.1562C92.6159 38.1562 92.0169 38.0365 91.4961 37.7969C90.9753 37.5573 90.5664 37.224 90.2695 36.7969C89.9779 36.3646 89.832 35.8984 89.832 35.3984H91.2773C91.3034 35.8828 91.4961 36.2682 91.8555 36.5547C92.2201 36.8359 92.6992 36.9766 93.293 36.9766C93.8398 36.9766 94.2773 36.8672 94.6055 36.6484C94.9388 36.4245 95.1055 36.1276 95.1055 35.7578ZM103.652 37.1641C103.09 37.8255 102.264 38.1562 101.176 38.1562C100.275 38.1562 99.5872 37.8958 99.1133 37.375C98.6445 36.849 98.4076 36.0729 98.4023 35.0469V29.5469H99.8477V35.0078C99.8477 36.2891 100.368 36.9297 101.41 36.9297C102.514 36.9297 103.249 36.5182 103.613 35.6953V29.5469H105.059V38H103.684L103.652 37.1641ZM108.621 29.5469L108.66 30.4844C109.28 29.7552 110.116 29.3906 111.168 29.3906C112.35 29.3906 113.155 29.8438 113.582 30.75C113.863 30.3438 114.228 30.0156 114.676 29.7656C115.129 29.5156 115.663 29.3906 116.277 29.3906C118.132 29.3906 119.074 30.3724 119.105 32.3359V38H117.66V32.4219C117.66 31.8177 117.522 31.3672 117.246 31.0703C116.97 30.7682 116.507 30.6172 115.855 30.6172C115.319 30.6172 114.874 30.7786 114.52 31.1016C114.165 31.4193 113.96 31.849 113.902 32.3906V38H112.449V32.4609C112.449 31.2318 111.848 30.6172 110.645 30.6172C109.697 30.6172 109.048 31.0208 108.699 31.8281V38H107.254V29.5469H108.621ZM124.801 38.1562C123.655 38.1562 122.723 37.7812 122.004 37.0312C121.285 36.276 120.926 35.2682 120.926 34.0078V33.7422C120.926 32.9036 121.085 32.1562 121.402 31.5C121.725 30.8385 122.173 30.3229 122.746 29.9531C123.324 29.5781 123.949 29.3906 124.621 29.3906C125.72 29.3906 126.574 29.7526 127.184 30.4766C127.793 31.2005 128.098 32.237 128.098 33.5859V34.1875H122.371C122.392 35.0208 122.634 35.6953 123.098 36.2109C123.566 36.7214 124.16 36.9766 124.879 36.9766C125.389 36.9766 125.822 36.8724 126.176 36.6641C126.53 36.4557 126.84 36.1797 127.105 35.8359L127.988 36.5234C127.28 37.612 126.217 38.1562 124.801 38.1562ZM124.621 30.5781C124.038 30.5781 123.548 30.7917 123.152 31.2188C122.757 31.6406 122.512 32.2344 122.418 33H126.652V32.8906C126.611 32.1562 126.413 31.5885 126.059 31.1875C125.704 30.7812 125.225 30.5781 124.621 30.5781ZM133.863 30.8438C133.645 30.8073 133.408 30.7891 133.152 30.7891C132.204 30.7891 131.561 31.1927 131.223 32V38H129.777V29.5469H131.184L131.207 30.5234C131.681 29.7682 132.353 29.3906 133.223 29.3906C133.504 29.3906 133.717 29.4271 133.863 29.5V30.8438ZM146.652 36.0078L148.277 29.5469H149.723L147.262 38H146.09L144.035 31.5938L142.035 38H140.863L138.41 29.5469H139.848L141.512 35.875L143.48 29.5469H144.645L146.652 36.0078ZM152.77 38H151.324V29.5469H152.77V38ZM151.207 27.3047C151.207 27.0703 151.277 26.8724 151.418 26.7109C151.564 26.5495 151.777 26.4688 152.059 26.4688C152.34 26.4688 152.553 26.5495 152.699 26.7109C152.845 26.8724 152.918 27.0703 152.918 27.3047C152.918 27.5391 152.845 27.7344 152.699 27.8906C152.553 28.0469 152.34 28.125 152.059 28.125C151.777 28.125 151.564 28.0469 151.418 27.8906C151.277 27.7344 151.207 27.5391 151.207 27.3047ZM156.66 38H155.215V26H156.66V38ZM160.551 38H159.105V26H160.551V38ZM170.348 38.1562C169.202 38.1562 168.27 37.7812 167.551 37.0312C166.832 36.276 166.473 35.2682 166.473 34.0078V33.7422C166.473 32.9036 166.632 32.1562 166.949 31.5C167.272 30.8385 167.72 30.3229 168.293 29.9531C168.871 29.5781 169.496 29.3906 170.168 29.3906C171.267 29.3906 172.121 29.7526 172.73 30.4766C173.34 31.2005 173.645 32.237 173.645 33.5859V34.1875H167.918C167.939 35.0208 168.181 35.6953 168.645 36.2109C169.113 36.7214 169.707 36.9766 170.426 36.9766C170.936 36.9766 171.368 36.8724 171.723 36.6641C172.077 36.4557 172.387 36.1797 172.652 35.8359L173.535 36.5234C172.827 37.612 171.764 38.1562 170.348 38.1562ZM170.168 30.5781C169.585 30.5781 169.095 30.7917 168.699 31.2188C168.303 31.6406 168.059 32.2344 167.965 33H172.199V32.8906C172.158 32.1562 171.96 31.5885 171.605 31.1875C171.251 30.7812 170.772 30.5781 170.168 30.5781ZM176.691 29.5469L176.738 30.6094C177.384 29.7969 178.228 29.3906 179.27 29.3906C181.056 29.3906 181.957 30.3984 181.973 32.4141V38H180.527V32.4062C180.522 31.7969 180.382 31.3464 180.105 31.0547C179.835 30.763 179.41 30.6172 178.832 30.6172C178.363 30.6172 177.952 30.7422 177.598 30.9922C177.243 31.2422 176.967 31.5703 176.77 31.9766V38H175.324V29.5469H176.691ZM186.113 27.5V29.5469H187.691V30.6641H186.113V35.9062C186.113 36.2448 186.184 36.5 186.324 36.6719C186.465 36.8385 186.704 36.9219 187.043 36.9219C187.21 36.9219 187.439 36.8906 187.73 36.8281V38C187.35 38.1042 186.98 38.1562 186.621 38.1562C185.975 38.1562 185.488 37.9609 185.16 37.5703C184.832 37.1797 184.668 36.625 184.668 35.9062V30.6641H183.129V29.5469H184.668V27.5H186.113ZM192.895 38.1562C191.749 38.1562 190.816 37.7812 190.098 37.0312C189.379 36.276 189.02 35.2682 189.02 34.0078V33.7422C189.02 32.9036 189.178 32.1562 189.496 31.5C189.819 30.8385 190.267 30.3229 190.84 29.9531C191.418 29.5781 192.043 29.3906 192.715 29.3906C193.814 29.3906 194.668 29.7526 195.277 30.4766C195.887 31.2005 196.191 32.237 196.191 33.5859V34.1875H190.465C190.486 35.0208 190.728 35.6953 191.191 36.2109C191.66 36.7214 192.254 36.9766 192.973 36.9766C193.483 36.9766 193.915 36.8724 194.27 36.6641C194.624 36.4557 194.934 36.1797 195.199 35.8359L196.082 36.5234C195.374 37.612 194.311 38.1562 192.895 38.1562ZM192.715 30.5781C192.132 30.5781 191.642 30.7917 191.246 31.2188C190.85 31.6406 190.605 32.2344 190.512 33H194.746V32.8906C194.704 32.1562 194.507 31.5885 194.152 31.1875C193.798 30.7812 193.319 30.5781 192.715 30.5781ZM201.957 30.8438C201.738 30.8073 201.501 30.7891 201.246 30.7891C200.298 30.7891 199.655 31.1927 199.316 32V38H197.871V29.5469H199.277L199.301 30.5234C199.775 29.7682 200.447 29.3906 201.316 29.3906C201.598 29.3906 201.811 29.4271 201.957 29.5V30.8438ZM208.707 30.5703C209.348 29.7839 210.181 29.3906 211.207 29.3906C212.993 29.3906 213.895 30.3984 213.91 32.4141V38H212.465V32.4062C212.46 31.7969 212.319 31.3464 212.043 31.0547C211.772 30.763 211.348 30.6172 210.77 30.6172C210.301 30.6172 209.889 30.7422 209.535 30.9922C209.181 31.2422 208.905 31.5703 208.707 31.9766V38H207.262V26H208.707V30.5703ZM217.645 38H216.199V29.5469H217.645V38ZM216.082 27.3047C216.082 27.0703 216.152 26.8724 216.293 26.7109C216.439 26.5495 216.652 26.4688 216.934 26.4688C217.215 26.4688 217.428 26.5495 217.574 26.7109C217.72 26.8724 217.793 27.0703 217.793 27.3047C217.793 27.5391 217.72 27.7344 217.574 27.8906C217.428 28.0469 217.215 28.125 216.934 28.125C216.652 28.125 216.439 28.0469 216.293 27.8906C216.152 27.7344 216.082 27.5391 216.082 27.3047ZM224.887 35.7578C224.887 35.3672 224.738 35.0651 224.441 34.8516C224.15 34.6328 223.637 34.4453 222.902 34.2891C222.173 34.1328 221.592 33.9453 221.16 33.7266C220.733 33.5078 220.415 33.2474 220.207 32.9453C220.004 32.6432 219.902 32.2839 219.902 31.8672C219.902 31.1745 220.194 30.5885 220.777 30.1094C221.366 29.6302 222.116 29.3906 223.027 29.3906C223.986 29.3906 224.762 29.638 225.355 30.1328C225.954 30.6276 226.254 31.2604 226.254 32.0312H224.801C224.801 31.6354 224.632 31.2943 224.293 31.0078C223.96 30.7214 223.538 30.5781 223.027 30.5781C222.501 30.5781 222.09 30.6927 221.793 30.9219C221.496 31.151 221.348 31.4505 221.348 31.8203C221.348 32.1693 221.486 32.4323 221.762 32.6094C222.038 32.7865 222.535 32.9557 223.254 33.1172C223.978 33.2786 224.564 33.4714 225.012 33.6953C225.46 33.9193 225.79 34.1901 226.004 34.5078C226.223 34.8203 226.332 35.2031 226.332 35.6562C226.332 36.4115 226.03 37.0182 225.426 37.4766C224.822 37.9297 224.038 38.1562 223.074 38.1562C222.397 38.1562 221.798 38.0365 221.277 37.7969C220.757 37.5573 220.348 37.224 220.051 36.7969C219.759 36.3646 219.613 35.8984 219.613 35.3984H221.059C221.085 35.8828 221.277 36.2682 221.637 36.5547C222.001 36.8359 222.48 36.9766 223.074 36.9766C223.621 36.9766 224.059 36.8672 224.387 36.6484C224.72 36.4245 224.887 36.1276 224.887 35.7578ZM233.91 33.5469V38H232.41V26.625H236.605C237.85 26.625 238.824 26.9427 239.527 27.5781C240.236 28.2135 240.59 29.0547 240.59 30.1016C240.59 31.2057 240.243 32.0573 239.551 32.6562C238.863 33.25 237.876 33.5469 236.59 33.5469H233.91ZM233.91 32.3203H236.605C237.408 32.3203 238.022 32.1328 238.449 31.7578C238.876 31.3776 239.09 30.8307 239.09 30.1172C239.09 29.4401 238.876 28.8984 238.449 28.4922C238.022 28.0859 237.436 27.875 236.691 27.8594H233.91V32.3203ZM244.113 38H242.613V26.625H244.113V38ZM255.605 38H254.098L248.371 29.2344V38H246.863V26.625H248.371L254.113 35.4297V26.625H255.605V38Z" fill="#656668"/>
<path d="M18.4786 31.688H21.3266C21.6146 29.448 23.2466 27.912 25.9666 27.912C28.7506 27.912 30.2226 29.448 30.2226 31.656C30.2226 34.344 28.1426 35.528 24.2706 35.56H23.5026V37.992H24.2386C28.3986 37.992 30.6706 39.24 30.6706 42.504C30.6706 44.872 29.1986 46.696 26.0946 46.696C23.0226 46.696 21.2306 44.808 20.9426 42.344H18.1266C18.4786 46.824 21.7426 49.16 26.1266 49.16C30.9586 49.16 33.4546 46.344 33.4546 42.76C33.4546 39.432 31.6306 37.448 28.9426 36.808V36.648C31.3746 36.104 33.0386 34.024 33.0386 31.368C33.0386 28.04 30.5746 25.416 26.0626 25.416C21.7746 25.416 18.7666 27.72 18.4786 31.688Z" fill="#656668"/>
</svg>
