<svg width="630" height="113" viewBox="0 0 630 113" fill="none" xmlns="http://www.w3.org/2000/svg">
<g filter="url(#filter0_d)">
<rect x="19" y="16" width="592" height="75" rx="24" fill="white"/>
</g>
<path d="M89.6875 51.3906C89.5469 52.5938 89.1016 53.5234 88.3516 54.1797C87.6068 54.8307 86.6146 55.1562 85.375 55.1562C84.0312 55.1562 82.9531 54.6745 82.1406 53.7109C81.3333 52.7474 80.9297 51.4583 80.9297 49.8438V48.75C80.9297 47.6927 81.1172 46.763 81.4922 45.9609C81.8724 45.1589 82.4089 44.5443 83.1016 44.1172C83.7943 43.6849 84.5964 43.4688 85.5078 43.4688C86.7161 43.4688 87.6849 43.8073 88.4141 44.4844C89.1432 45.1562 89.5677 46.0885 89.6875 47.2812H88.1797C88.0495 46.375 87.7656 45.7188 87.3281 45.3125C86.8958 44.9062 86.2891 44.7031 85.5078 44.7031C84.5495 44.7031 83.7969 45.0573 83.25 45.7656C82.7083 46.474 82.4375 47.4818 82.4375 48.7891V49.8906C82.4375 51.125 82.6953 52.1068 83.2109 52.8359C83.7266 53.5651 84.4479 53.9297 85.375 53.9297C86.2083 53.9297 86.8464 53.7422 87.2891 53.3672C87.737 52.987 88.0339 52.3281 88.1797 51.3906H89.6875ZM91.1328 50.6953C91.1328 49.8672 91.2943 49.1224 91.6172 48.4609C91.9453 47.7995 92.3984 47.2891 92.9766 46.9297C93.5599 46.5703 94.224 46.3906 94.9688 46.3906C96.1198 46.3906 97.0495 46.7891 97.7578 47.5859C98.4714 48.3828 98.8281 49.4427 98.8281 50.7656V50.8672C98.8281 51.6901 98.6693 52.4297 98.3516 53.0859C98.0391 53.737 97.5885 54.2448 97 54.6094C96.4167 54.974 95.7448 55.1562 94.9844 55.1562C93.8385 55.1562 92.9089 54.7578 92.1953 53.9609C91.487 53.1641 91.1328 52.1094 91.1328 50.7969V50.6953ZM92.5859 50.8672C92.5859 51.8047 92.8021 52.5573 93.2344 53.125C93.6719 53.6927 94.2552 53.9766 94.9844 53.9766C95.7188 53.9766 96.3021 53.6901 96.7344 53.1172C97.1667 52.5391 97.3828 51.7318 97.3828 50.6953C97.3828 49.7682 97.1615 49.0182 96.7188 48.4453C96.2812 47.8672 95.6979 47.5781 94.9688 47.5781C94.2552 47.5781 93.6797 47.862 93.2422 48.4297C92.8047 48.9974 92.5859 49.8099 92.5859 50.8672ZM102.008 46.5469L102.055 47.6094C102.701 46.7969 103.544 46.3906 104.586 46.3906C106.372 46.3906 107.273 47.3984 107.289 49.4141V55H105.844V49.4062C105.839 48.7969 105.698 48.3464 105.422 48.0547C105.151 47.763 104.727 47.6172 104.148 47.6172C103.68 47.6172 103.268 47.7422 102.914 47.9922C102.56 48.2422 102.284 48.5703 102.086 48.9766V55H100.641V46.5469H102.008ZM114.391 52.7578C114.391 52.3672 114.242 52.0651 113.945 51.8516C113.654 51.6328 113.141 51.4453 112.406 51.2891C111.677 51.1328 111.096 50.9453 110.664 50.7266C110.237 50.5078 109.919 50.2474 109.711 49.9453C109.508 49.6432 109.406 49.2839 109.406 48.8672C109.406 48.1745 109.698 47.5885 110.281 47.1094C110.87 46.6302 111.62 46.3906 112.531 46.3906C113.49 46.3906 114.266 46.638 114.859 47.1328C115.458 47.6276 115.758 48.2604 115.758 49.0312H114.305C114.305 48.6354 114.135 48.2943 113.797 48.0078C113.464 47.7214 113.042 47.5781 112.531 47.5781C112.005 47.5781 111.594 47.6927 111.297 47.9219C111 48.151 110.852 48.4505 110.852 48.8203C110.852 49.1693 110.99 49.4323 111.266 49.6094C111.542 49.7865 112.039 49.9557 112.758 50.1172C113.482 50.2786 114.068 50.4714 114.516 50.6953C114.964 50.9193 115.294 51.1901 115.508 51.5078C115.727 51.8203 115.836 52.2031 115.836 52.6562C115.836 53.4115 115.534 54.0182 114.93 54.4766C114.326 54.9297 113.542 55.1562 112.578 55.1562C111.901 55.1562 111.302 55.0365 110.781 54.7969C110.26 54.5573 109.852 54.224 109.555 53.7969C109.263 53.3646 109.117 52.8984 109.117 52.3984H110.562C110.589 52.8828 110.781 53.2682 111.141 53.5547C111.505 53.8359 111.984 53.9766 112.578 53.9766C113.125 53.9766 113.562 53.8672 113.891 53.6484C114.224 53.4245 114.391 53.1276 114.391 52.7578ZM122.938 54.1641C122.375 54.8255 121.549 55.1562 120.461 55.1562C119.56 55.1562 118.872 54.8958 118.398 54.375C117.93 53.849 117.693 53.0729 117.688 52.0469V46.5469H119.133V52.0078C119.133 53.2891 119.654 53.9297 120.695 53.9297C121.799 53.9297 122.534 53.5182 122.898 52.6953V46.5469H124.344V55H122.969L122.938 54.1641ZM127.906 46.5469L127.945 47.4844C128.565 46.7552 129.401 46.3906 130.453 46.3906C131.635 46.3906 132.44 46.8438 132.867 47.75C133.148 47.3438 133.513 47.0156 133.961 46.7656C134.414 46.5156 134.948 46.3906 135.562 46.3906C137.417 46.3906 138.359 47.3724 138.391 49.3359V55H136.945V49.4219C136.945 48.8177 136.807 48.3672 136.531 48.0703C136.255 47.7682 135.792 47.6172 135.141 47.6172C134.604 47.6172 134.159 47.7786 133.805 48.1016C133.451 48.4193 133.245 48.849 133.188 49.3906V55H131.734V49.4609C131.734 48.2318 131.133 47.6172 129.93 47.6172C128.982 47.6172 128.333 48.0208 127.984 48.8281V55H126.539V46.5469H127.906ZM144.086 55.1562C142.94 55.1562 142.008 54.7812 141.289 54.0312C140.57 53.276 140.211 52.2682 140.211 51.0078V50.7422C140.211 49.9036 140.37 49.1562 140.688 48.5C141.01 47.8385 141.458 47.3229 142.031 46.9531C142.609 46.5781 143.234 46.3906 143.906 46.3906C145.005 46.3906 145.859 46.7526 146.469 47.4766C147.078 48.2005 147.383 49.237 147.383 50.5859V51.1875H141.656C141.677 52.0208 141.919 52.6953 142.383 53.2109C142.852 53.7214 143.445 53.9766 144.164 53.9766C144.674 53.9766 145.107 53.8724 145.461 53.6641C145.815 53.4557 146.125 53.1797 146.391 52.8359L147.273 53.5234C146.565 54.612 145.503 55.1562 144.086 55.1562ZM143.906 47.5781C143.323 47.5781 142.833 47.7917 142.438 48.2188C142.042 48.6406 141.797 49.2344 141.703 50H145.938V49.8906C145.896 49.1562 145.698 48.5885 145.344 48.1875C144.99 47.7812 144.51 47.5781 143.906 47.5781ZM153.148 47.8438C152.93 47.8073 152.693 47.7891 152.438 47.7891C151.49 47.7891 150.846 48.1927 150.508 49V55H149.062V46.5469H150.469L150.492 47.5234C150.966 46.7682 151.638 46.3906 152.508 46.3906C152.789 46.3906 153.003 46.4271 153.148 46.5V47.8438ZM165.938 53.0078L167.562 46.5469H169.008L166.547 55H165.375L163.32 48.5938L161.32 55H160.148L157.695 46.5469H159.133L160.797 52.875L162.766 46.5469H163.93L165.938 53.0078ZM172.055 55H170.609V46.5469H172.055V55ZM170.492 44.3047C170.492 44.0703 170.562 43.8724 170.703 43.7109C170.849 43.5495 171.062 43.4688 171.344 43.4688C171.625 43.4688 171.839 43.5495 171.984 43.7109C172.13 43.8724 172.203 44.0703 172.203 44.3047C172.203 44.5391 172.13 44.7344 171.984 44.8906C171.839 45.0469 171.625 45.125 171.344 45.125C171.062 45.125 170.849 45.0469 170.703 44.8906C170.562 44.7344 170.492 44.5391 170.492 44.3047ZM175.945 55H174.5V43H175.945V55ZM179.836 55H178.391V43H179.836V55ZM190.211 47.8438C189.992 47.8073 189.755 47.7891 189.5 47.7891C188.552 47.7891 187.909 48.1927 187.57 49V55H186.125V46.5469H187.531L187.555 47.5234C188.029 46.7682 188.701 46.3906 189.57 46.3906C189.852 46.3906 190.065 46.4271 190.211 46.5V47.8438ZM194.898 55.1562C193.753 55.1562 192.82 54.7812 192.102 54.0312C191.383 53.276 191.023 52.2682 191.023 51.0078V50.7422C191.023 49.9036 191.182 49.1562 191.5 48.5C191.823 47.8385 192.271 47.3229 192.844 46.9531C193.422 46.5781 194.047 46.3906 194.719 46.3906C195.818 46.3906 196.672 46.7526 197.281 47.4766C197.891 48.2005 198.195 49.237 198.195 50.5859V51.1875H192.469C192.49 52.0208 192.732 52.6953 193.195 53.2109C193.664 53.7214 194.258 53.9766 194.977 53.9766C195.487 53.9766 195.919 53.8724 196.273 53.6641C196.628 53.4557 196.938 53.1797 197.203 52.8359L198.086 53.5234C197.378 54.612 196.315 55.1562 194.898 55.1562ZM194.719 47.5781C194.135 47.5781 193.646 47.7917 193.25 48.2188C192.854 48.6406 192.609 49.2344 192.516 50H196.75V49.8906C196.708 49.1562 196.51 48.5885 196.156 48.1875C195.802 47.7812 195.323 47.5781 194.719 47.5781ZM205.094 55C205.01 54.8333 204.943 54.5365 204.891 54.1094C204.219 54.8073 203.417 55.1562 202.484 55.1562C201.651 55.1562 200.966 54.9219 200.43 54.4531C199.898 53.9792 199.633 53.3802 199.633 52.6562C199.633 51.776 199.966 51.0938 200.633 50.6094C201.305 50.1198 202.247 49.875 203.461 49.875H204.867V49.2109C204.867 48.7057 204.716 48.3047 204.414 48.0078C204.112 47.7057 203.667 47.5547 203.078 47.5547C202.562 47.5547 202.13 47.6849 201.781 47.9453C201.432 48.2057 201.258 48.5208 201.258 48.8906H199.805C199.805 48.4688 199.953 48.0625 200.25 47.6719C200.552 47.276 200.958 46.9635 201.469 46.7344C201.984 46.5052 202.549 46.3906 203.164 46.3906C204.138 46.3906 204.901 46.6354 205.453 47.125C206.005 47.6094 206.292 48.2786 206.312 49.1328V53.0234C206.312 53.7995 206.411 54.4167 206.609 54.875V55H205.094ZM202.695 53.8984C203.148 53.8984 203.578 53.7812 203.984 53.5469C204.391 53.3125 204.685 53.0078 204.867 52.6328V50.8984H203.734C201.964 50.8984 201.078 51.4167 201.078 52.4531C201.078 52.9062 201.229 53.2604 201.531 53.5156C201.833 53.7708 202.221 53.8984 202.695 53.8984ZM208.227 50.7031C208.227 49.4062 208.534 48.3646 209.148 47.5781C209.763 46.7865 210.568 46.3906 211.562 46.3906C212.552 46.3906 213.336 46.7292 213.914 47.4062V43H215.359V55H214.031L213.961 54.0938C213.383 54.8021 212.578 55.1562 211.547 55.1562C210.568 55.1562 209.768 54.7552 209.148 53.9531C208.534 53.151 208.227 52.1042 208.227 50.8125V50.7031ZM209.672 50.8672C209.672 51.8255 209.87 52.5755 210.266 53.1172C210.661 53.6589 211.208 53.9297 211.906 53.9297C212.823 53.9297 213.492 53.5182 213.914 52.6953V48.8125C213.482 48.0156 212.818 47.6172 211.922 47.6172C211.214 47.6172 210.661 47.8906 210.266 48.4375C209.87 48.9844 209.672 49.7943 209.672 50.8672ZM223.539 44.5V46.5469H225.117V47.6641H223.539V52.9062C223.539 53.2448 223.609 53.5 223.75 53.6719C223.891 53.8385 224.13 53.9219 224.469 53.9219C224.635 53.9219 224.865 53.8906 225.156 53.8281V55C224.776 55.1042 224.406 55.1562 224.047 55.1562C223.401 55.1562 222.914 54.9609 222.586 54.5703C222.258 54.1797 222.094 53.625 222.094 52.9062V47.6641H220.555V46.5469H222.094V44.5H223.539ZM228.258 47.5703C228.898 46.7839 229.732 46.3906 230.758 46.3906C232.544 46.3906 233.445 47.3984 233.461 49.4141V55H232.016V49.4062C232.01 48.7969 231.87 48.3464 231.594 48.0547C231.323 47.763 230.898 47.6172 230.32 47.6172C229.852 47.6172 229.44 47.7422 229.086 47.9922C228.732 48.2422 228.456 48.5703 228.258 48.9766V55H226.812V43H228.258V47.5703ZM239.133 55.1562C237.987 55.1562 237.055 54.7812 236.336 54.0312C235.617 53.276 235.258 52.2682 235.258 51.0078V50.7422C235.258 49.9036 235.417 49.1562 235.734 48.5C236.057 47.8385 236.505 47.3229 237.078 46.9531C237.656 46.5781 238.281 46.3906 238.953 46.3906C240.052 46.3906 240.906 46.7526 241.516 47.4766C242.125 48.2005 242.43 49.237 242.43 50.5859V51.1875H236.703C236.724 52.0208 236.966 52.6953 237.43 53.2109C237.898 53.7214 238.492 53.9766 239.211 53.9766C239.721 53.9766 240.154 53.8724 240.508 53.6641C240.862 53.4557 241.172 53.1797 241.438 52.8359L242.32 53.5234C241.612 54.612 240.549 55.1562 239.133 55.1562ZM238.953 47.5781C238.37 47.5781 237.88 47.7917 237.484 48.2188C237.089 48.6406 236.844 49.2344 236.75 50H240.984V49.8906C240.943 49.1562 240.745 48.5885 240.391 48.1875C240.036 47.7812 239.557 47.5781 238.953 47.5781ZM249.648 55H248.203V46.5469H249.648V55ZM248.086 44.3047C248.086 44.0703 248.156 43.8724 248.297 43.7109C248.443 43.5495 248.656 43.4688 248.938 43.4688C249.219 43.4688 249.432 43.5495 249.578 43.7109C249.724 43.8724 249.797 44.0703 249.797 44.3047C249.797 44.5391 249.724 44.7344 249.578 44.8906C249.432 45.0469 249.219 45.125 248.938 45.125C248.656 45.125 248.443 45.0469 248.297 44.8906C248.156 44.7344 248.086 44.5391 248.086 44.3047ZM253.336 46.5469L253.383 47.6094C254.029 46.7969 254.872 46.3906 255.914 46.3906C257.701 46.3906 258.602 47.3984 258.617 49.4141V55H257.172V49.4062C257.167 48.7969 257.026 48.3464 256.75 48.0547C256.479 47.763 256.055 47.6172 255.477 47.6172C255.008 47.6172 254.596 47.7422 254.242 47.9922C253.888 48.2422 253.612 48.5703 253.414 48.9766V55H251.969V46.5469H253.336ZM265.719 52.7578C265.719 52.3672 265.57 52.0651 265.273 51.8516C264.982 51.6328 264.469 51.4453 263.734 51.2891C263.005 51.1328 262.424 50.9453 261.992 50.7266C261.565 50.5078 261.247 50.2474 261.039 49.9453C260.836 49.6432 260.734 49.2839 260.734 48.8672C260.734 48.1745 261.026 47.5885 261.609 47.1094C262.198 46.6302 262.948 46.3906 263.859 46.3906C264.818 46.3906 265.594 46.638 266.188 47.1328C266.786 47.6276 267.086 48.2604 267.086 49.0312H265.633C265.633 48.6354 265.464 48.2943 265.125 48.0078C264.792 47.7214 264.37 47.5781 263.859 47.5781C263.333 47.5781 262.922 47.6927 262.625 47.9219C262.328 48.151 262.18 48.4505 262.18 48.8203C262.18 49.1693 262.318 49.4323 262.594 49.6094C262.87 49.7865 263.367 49.9557 264.086 50.1172C264.81 50.2786 265.396 50.4714 265.844 50.6953C266.292 50.9193 266.622 51.1901 266.836 51.5078C267.055 51.8203 267.164 52.2031 267.164 52.6562C267.164 53.4115 266.862 54.0182 266.258 54.4766C265.654 54.9297 264.87 55.1562 263.906 55.1562C263.229 55.1562 262.63 55.0365 262.109 54.7969C261.589 54.5573 261.18 54.224 260.883 53.7969C260.591 53.3646 260.445 52.8984 260.445 52.3984H261.891C261.917 52.8828 262.109 53.2682 262.469 53.5547C262.833 53.8359 263.312 53.9766 263.906 53.9766C264.453 53.9766 264.891 53.8672 265.219 53.6484C265.552 53.4245 265.719 53.1276 265.719 52.7578ZM271.008 44.5V46.5469H272.586V47.6641H271.008V52.9062C271.008 53.2448 271.078 53.5 271.219 53.6719C271.359 53.8385 271.599 53.9219 271.938 53.9219C272.104 53.9219 272.333 53.8906 272.625 53.8281V55C272.245 55.1042 271.875 55.1562 271.516 55.1562C270.87 55.1562 270.383 54.9609 270.055 54.5703C269.727 54.1797 269.562 53.625 269.562 52.9062V47.6641H268.023V46.5469H269.562V44.5H271.008ZM279.5 54.1641C278.938 54.8255 278.112 55.1562 277.023 55.1562C276.122 55.1562 275.435 54.8958 274.961 54.375C274.492 53.849 274.255 53.0729 274.25 52.0469V46.5469H275.695V52.0078C275.695 53.2891 276.216 53.9297 277.258 53.9297C278.362 53.9297 279.096 53.5182 279.461 52.6953V46.5469H280.906V55H279.531L279.5 54.1641ZM286.5 53.9766C287.016 53.9766 287.466 53.8203 287.852 53.5078C288.237 53.1953 288.451 52.8047 288.492 52.3359H289.859C289.833 52.8203 289.667 53.2812 289.359 53.7188C289.052 54.1562 288.641 54.5052 288.125 54.7656C287.615 55.026 287.073 55.1562 286.5 55.1562C285.349 55.1562 284.432 54.7734 283.75 54.0078C283.073 53.237 282.734 52.1849 282.734 50.8516V50.6094C282.734 49.7865 282.885 49.0547 283.188 48.4141C283.49 47.7734 283.922 47.276 284.484 46.9219C285.052 46.5677 285.721 46.3906 286.492 46.3906C287.44 46.3906 288.227 46.6745 288.852 47.2422C289.482 47.8099 289.818 48.5469 289.859 49.4531H288.492C288.451 48.9062 288.242 48.4583 287.867 48.1094C287.497 47.7552 287.039 47.5781 286.492 47.5781C285.758 47.5781 285.188 47.8438 284.781 48.375C284.38 48.901 284.18 49.6641 284.18 50.6641V50.9375C284.18 51.9115 284.38 52.6615 284.781 53.1875C285.182 53.7135 285.755 53.9766 286.5 53.9766ZM293.445 44.5V46.5469H295.023V47.6641H293.445V52.9062C293.445 53.2448 293.516 53.5 293.656 53.6719C293.797 53.8385 294.036 53.9219 294.375 53.9219C294.542 53.9219 294.771 53.8906 295.062 53.8281V55C294.682 55.1042 294.312 55.1562 293.953 55.1562C293.307 55.1562 292.82 54.9609 292.492 54.5703C292.164 54.1797 292 53.625 292 52.9062V47.6641H290.461V46.5469H292V44.5H293.445ZM298.289 55H296.844V46.5469H298.289V55ZM296.727 44.3047C296.727 44.0703 296.797 43.8724 296.938 43.7109C297.083 43.5495 297.297 43.4688 297.578 43.4688C297.859 43.4688 298.073 43.5495 298.219 43.7109C298.365 43.8724 298.438 44.0703 298.438 44.3047C298.438 44.5391 298.365 44.7344 298.219 44.8906C298.073 45.0469 297.859 45.125 297.578 45.125C297.297 45.125 297.083 45.0469 296.938 44.8906C296.797 44.7344 296.727 44.5391 296.727 44.3047ZM300.227 50.6953C300.227 49.8672 300.388 49.1224 300.711 48.4609C301.039 47.7995 301.492 47.2891 302.07 46.9297C302.654 46.5703 303.318 46.3906 304.062 46.3906C305.214 46.3906 306.143 46.7891 306.852 47.5859C307.565 48.3828 307.922 49.4427 307.922 50.7656V50.8672C307.922 51.6901 307.763 52.4297 307.445 53.0859C307.133 53.737 306.682 54.2448 306.094 54.6094C305.51 54.974 304.839 55.1562 304.078 55.1562C302.932 55.1562 302.003 54.7578 301.289 53.9609C300.581 53.1641 300.227 52.1094 300.227 50.7969V50.6953ZM301.68 50.8672C301.68 51.8047 301.896 52.5573 302.328 53.125C302.766 53.6927 303.349 53.9766 304.078 53.9766C304.812 53.9766 305.396 53.6901 305.828 53.1172C306.26 52.5391 306.477 51.7318 306.477 50.6953C306.477 49.7682 306.255 49.0182 305.812 48.4453C305.375 47.8672 304.792 47.5781 304.062 47.5781C303.349 47.5781 302.773 47.862 302.336 48.4297C301.898 48.9974 301.68 49.8099 301.68 50.8672ZM311.102 46.5469L311.148 47.6094C311.794 46.7969 312.638 46.3906 313.68 46.3906C315.466 46.3906 316.367 47.3984 316.383 49.4141V55H314.938V49.4062C314.932 48.7969 314.792 48.3464 314.516 48.0547C314.245 47.763 313.82 47.6172 313.242 47.6172C312.773 47.6172 312.362 47.7422 312.008 47.9922C311.654 48.2422 311.378 48.5703 311.18 48.9766V55H309.734V46.5469H311.102ZM323.484 52.7578C323.484 52.3672 323.336 52.0651 323.039 51.8516C322.747 51.6328 322.234 51.4453 321.5 51.2891C320.771 51.1328 320.19 50.9453 319.758 50.7266C319.331 50.5078 319.013 50.2474 318.805 49.9453C318.602 49.6432 318.5 49.2839 318.5 48.8672C318.5 48.1745 318.792 47.5885 319.375 47.1094C319.964 46.6302 320.714 46.3906 321.625 46.3906C322.583 46.3906 323.359 46.638 323.953 47.1328C324.552 47.6276 324.852 48.2604 324.852 49.0312H323.398C323.398 48.6354 323.229 48.2943 322.891 48.0078C322.557 47.7214 322.135 47.5781 321.625 47.5781C321.099 47.5781 320.688 47.6927 320.391 47.9219C320.094 48.151 319.945 48.4505 319.945 48.8203C319.945 49.1693 320.083 49.4323 320.359 49.6094C320.635 49.7865 321.133 49.9557 321.852 50.1172C322.576 50.2786 323.161 50.4714 323.609 50.6953C324.057 50.9193 324.388 51.1901 324.602 51.5078C324.82 51.8203 324.93 52.2031 324.93 52.6562C324.93 53.4115 324.628 54.0182 324.023 54.4766C323.419 54.9297 322.635 55.1562 321.672 55.1562C320.995 55.1562 320.396 55.0365 319.875 54.7969C319.354 54.5573 318.945 54.224 318.648 53.7969C318.357 53.3646 318.211 52.8984 318.211 52.3984H319.656C319.682 52.8828 319.875 53.2682 320.234 53.5547C320.599 53.8359 321.078 53.9766 321.672 53.9766C322.219 53.9766 322.656 53.8672 322.984 53.6484C323.318 53.4245 323.484 53.1276 323.484 52.7578ZM330.398 50.6953C330.398 49.8672 330.56 49.1224 330.883 48.4609C331.211 47.7995 331.664 47.2891 332.242 46.9297C332.826 46.5703 333.49 46.3906 334.234 46.3906C335.385 46.3906 336.315 46.7891 337.023 47.5859C337.737 48.3828 338.094 49.4427 338.094 50.7656V50.8672C338.094 51.6901 337.935 52.4297 337.617 53.0859C337.305 53.737 336.854 54.2448 336.266 54.6094C335.682 54.974 335.01 55.1562 334.25 55.1562C333.104 55.1562 332.174 54.7578 331.461 53.9609C330.753 53.1641 330.398 52.1094 330.398 50.7969V50.6953ZM331.852 50.8672C331.852 51.8047 332.068 52.5573 332.5 53.125C332.938 53.6927 333.521 53.9766 334.25 53.9766C334.984 53.9766 335.568 53.6901 336 53.1172C336.432 52.5391 336.648 51.7318 336.648 50.6953C336.648 49.7682 336.427 49.0182 335.984 48.4453C335.547 47.8672 334.964 47.5781 334.234 47.5781C333.521 47.5781 332.945 47.862 332.508 48.4297C332.07 48.9974 331.852 49.8099 331.852 50.8672ZM340.617 55V47.6641H339.281V46.5469H340.617V45.6797C340.617 44.7734 340.859 44.0729 341.344 43.5781C341.828 43.0833 342.513 42.8359 343.398 42.8359C343.732 42.8359 344.062 42.8802 344.391 42.9688L344.312 44.1406C344.068 44.0938 343.807 44.0703 343.531 44.0703C343.062 44.0703 342.701 44.2083 342.445 44.4844C342.19 44.7552 342.062 45.1458 342.062 45.6562V46.5469H343.867V47.6641H342.062V55H340.617ZM350.883 47.5703C351.523 46.7839 352.357 46.3906 353.383 46.3906C355.169 46.3906 356.07 47.3984 356.086 49.4141V55H354.641V49.4062C354.635 48.7969 354.495 48.3464 354.219 48.0547C353.948 47.763 353.523 47.6172 352.945 47.6172C352.477 47.6172 352.065 47.7422 351.711 47.9922C351.357 48.2422 351.081 48.5703 350.883 48.9766V55H349.438V43H350.883V47.5703ZM357.867 50.6953C357.867 49.8672 358.029 49.1224 358.352 48.4609C358.68 47.7995 359.133 47.2891 359.711 46.9297C360.294 46.5703 360.958 46.3906 361.703 46.3906C362.854 46.3906 363.784 46.7891 364.492 47.5859C365.206 48.3828 365.562 49.4427 365.562 50.7656V50.8672C365.562 51.6901 365.404 52.4297 365.086 53.0859C364.773 53.737 364.323 54.2448 363.734 54.6094C363.151 54.974 362.479 55.1562 361.719 55.1562C360.573 55.1562 359.643 54.7578 358.93 53.9609C358.221 53.1641 357.867 52.1094 357.867 50.7969V50.6953ZM359.32 50.8672C359.32 51.8047 359.536 52.5573 359.969 53.125C360.406 53.6927 360.99 53.9766 361.719 53.9766C362.453 53.9766 363.036 53.6901 363.469 53.1172C363.901 52.5391 364.117 51.7318 364.117 50.6953C364.117 49.7682 363.896 49.0182 363.453 48.4453C363.016 47.8672 362.432 47.5781 361.703 47.5781C360.99 47.5781 360.414 47.862 359.977 48.4297C359.539 48.9974 359.32 49.8099 359.32 50.8672ZM374.859 53.0078L376.484 46.5469H377.93L375.469 55H374.297L372.242 48.5938L370.242 55H369.07L366.617 46.5469H368.055L369.719 52.875L371.688 46.5469H372.852L374.859 53.0078ZM385.336 44.5V46.5469H386.914V47.6641H385.336V52.9062C385.336 53.2448 385.406 53.5 385.547 53.6719C385.688 53.8385 385.927 53.9219 386.266 53.9219C386.432 53.9219 386.661 53.8906 386.953 53.8281V55C386.573 55.1042 386.203 55.1562 385.844 55.1562C385.198 55.1562 384.711 54.9609 384.383 54.5703C384.055 54.1797 383.891 53.625 383.891 52.9062V47.6641H382.352V46.5469H383.891V44.5H385.336ZM388.07 50.6953C388.07 49.8672 388.232 49.1224 388.555 48.4609C388.883 47.7995 389.336 47.2891 389.914 46.9297C390.497 46.5703 391.161 46.3906 391.906 46.3906C393.057 46.3906 393.987 46.7891 394.695 47.5859C395.409 48.3828 395.766 49.4427 395.766 50.7656V50.8672C395.766 51.6901 395.607 52.4297 395.289 53.0859C394.977 53.737 394.526 54.2448 393.938 54.6094C393.354 54.974 392.682 55.1562 391.922 55.1562C390.776 55.1562 389.846 54.7578 389.133 53.9609C388.424 53.1641 388.07 52.1094 388.07 50.7969V50.6953ZM389.523 50.8672C389.523 51.8047 389.74 52.5573 390.172 53.125C390.609 53.6927 391.193 53.9766 391.922 53.9766C392.656 53.9766 393.24 53.6901 393.672 53.1172C394.104 52.5391 394.32 51.7318 394.32 50.6953C394.32 49.7682 394.099 49.0182 393.656 48.4453C393.219 47.8672 392.635 47.5781 391.906 47.5781C391.193 47.5781 390.617 47.862 390.18 48.4297C389.742 48.9974 389.523 49.8099 389.523 50.8672ZM409.031 53.0078L410.656 46.5469H412.102L409.641 55H408.469L406.414 48.5938L404.414 55H403.242L400.789 46.5469H402.227L403.891 52.875L405.859 46.5469H407.023L409.031 53.0078ZM415.148 55H413.703V46.5469H415.148V55ZM413.586 44.3047C413.586 44.0703 413.656 43.8724 413.797 43.7109C413.943 43.5495 414.156 43.4688 414.438 43.4688C414.719 43.4688 414.932 43.5495 415.078 43.7109C415.224 43.8724 415.297 44.0703 415.297 44.3047C415.297 44.5391 415.224 44.7344 415.078 44.8906C414.932 45.0469 414.719 45.125 414.438 45.125C414.156 45.125 413.943 45.0469 413.797 44.8906C413.656 44.7344 413.586 44.5391 413.586 44.3047ZM419.43 44.5V46.5469H421.008V47.6641H419.43V52.9062C419.43 53.2448 419.5 53.5 419.641 53.6719C419.781 53.8385 420.021 53.9219 420.359 53.9219C420.526 53.9219 420.755 53.8906 421.047 53.8281V55C420.667 55.1042 420.297 55.1562 419.938 55.1562C419.292 55.1562 418.805 54.9609 418.477 54.5703C418.148 54.1797 417.984 53.625 417.984 52.9062V47.6641H416.445V46.5469H417.984V44.5H419.43ZM424.148 47.5703C424.789 46.7839 425.622 46.3906 426.648 46.3906C428.435 46.3906 429.336 47.3984 429.352 49.4141V55H427.906V49.4062C427.901 48.7969 427.76 48.3464 427.484 48.0547C427.214 47.763 426.789 47.6172 426.211 47.6172C425.742 47.6172 425.331 47.7422 424.977 47.9922C424.622 48.2422 424.346 48.5703 424.148 48.9766V55H422.703V43H424.148V47.5703ZM431.164 50.7031C431.164 49.4062 431.471 48.3646 432.086 47.5781C432.701 46.7865 433.505 46.3906 434.5 46.3906C435.49 46.3906 436.273 46.7292 436.852 47.4062V43H438.297V55H436.969L436.898 54.0938C436.32 54.8021 435.516 55.1562 434.484 55.1562C433.505 55.1562 432.706 54.7552 432.086 53.9531C431.471 53.151 431.164 52.1042 431.164 50.8125V50.7031ZM432.609 50.8672C432.609 51.8255 432.807 52.5755 433.203 53.1172C433.599 53.6589 434.146 53.9297 434.844 53.9297C435.76 53.9297 436.43 53.5182 436.852 52.6953V48.8125C436.419 48.0156 435.755 47.6172 434.859 47.6172C434.151 47.6172 433.599 47.8906 433.203 48.4375C432.807 48.9844 432.609 49.7943 432.609 50.8672ZM444.633 47.8438C444.414 47.8073 444.177 47.7891 443.922 47.7891C442.974 47.7891 442.331 48.1927 441.992 49V55H440.547V46.5469H441.953L441.977 47.5234C442.451 46.7682 443.122 46.3906 443.992 46.3906C444.273 46.3906 444.487 46.4271 444.633 46.5V47.8438ZM450.875 55C450.792 54.8333 450.724 54.5365 450.672 54.1094C450 54.8073 449.198 55.1562 448.266 55.1562C447.432 55.1562 446.747 54.9219 446.211 54.4531C445.68 53.9792 445.414 53.3802 445.414 52.6562C445.414 51.776 445.747 51.0938 446.414 50.6094C447.086 50.1198 448.029 49.875 449.242 49.875H450.648V49.2109C450.648 48.7057 450.497 48.3047 450.195 48.0078C449.893 47.7057 449.448 47.5547 448.859 47.5547C448.344 47.5547 447.911 47.6849 447.562 47.9453C447.214 48.2057 447.039 48.5208 447.039 48.8906H445.586C445.586 48.4688 445.734 48.0625 446.031 47.6719C446.333 47.276 446.74 46.9635 447.25 46.7344C447.766 46.5052 448.331 46.3906 448.945 46.3906C449.919 46.3906 450.682 46.6354 451.234 47.125C451.786 47.6094 452.073 48.2786 452.094 49.1328V53.0234C452.094 53.7995 452.193 54.4167 452.391 54.875V55H450.875ZM448.477 53.8984C448.93 53.8984 449.359 53.7812 449.766 53.5469C450.172 53.3125 450.466 53.0078 450.648 52.6328V50.8984H449.516C447.745 50.8984 446.859 51.4167 446.859 52.4531C446.859 52.9062 447.01 53.2604 447.312 53.5156C447.615 53.7708 448.003 53.8984 448.477 53.8984ZM461.844 53.0078L463.469 46.5469H464.914L462.453 55H461.281L459.227 48.5938L457.227 55H456.055L453.602 46.5469H455.039L456.703 52.875L458.672 46.5469H459.836L461.844 53.0078ZM471.719 46.5469L471.758 47.4844C472.378 46.7552 473.214 46.3906 474.266 46.3906C475.448 46.3906 476.253 46.8438 476.68 47.75C476.961 47.3438 477.326 47.0156 477.773 46.7656C478.227 46.5156 478.76 46.3906 479.375 46.3906C481.229 46.3906 482.172 47.3724 482.203 49.3359V55H480.758V49.4219C480.758 48.8177 480.62 48.3672 480.344 48.0703C480.068 47.7682 479.604 47.6172 478.953 47.6172C478.417 47.6172 477.971 47.7786 477.617 48.1016C477.263 48.4193 477.057 48.849 477 49.3906V55H475.547V49.4609C475.547 48.2318 474.945 47.6172 473.742 47.6172C472.794 47.6172 472.146 48.0208 471.797 48.8281V55H470.352V46.5469H471.719ZM484.008 50.6953C484.008 49.8672 484.169 49.1224 484.492 48.4609C484.82 47.7995 485.273 47.2891 485.852 46.9297C486.435 46.5703 487.099 46.3906 487.844 46.3906C488.995 46.3906 489.924 46.7891 490.633 47.5859C491.346 48.3828 491.703 49.4427 491.703 50.7656V50.8672C491.703 51.6901 491.544 52.4297 491.227 53.0859C490.914 53.737 490.464 54.2448 489.875 54.6094C489.292 54.974 488.62 55.1562 487.859 55.1562C486.714 55.1562 485.784 54.7578 485.07 53.9609C484.362 53.1641 484.008 52.1094 484.008 50.7969V50.6953ZM485.461 50.8672C485.461 51.8047 485.677 52.5573 486.109 53.125C486.547 53.6927 487.13 53.9766 487.859 53.9766C488.594 53.9766 489.177 53.6901 489.609 53.1172C490.042 52.5391 490.258 51.7318 490.258 50.6953C490.258 49.7682 490.036 49.0182 489.594 48.4453C489.156 47.8672 488.573 47.5781 487.844 47.5781C487.13 47.5781 486.555 47.862 486.117 48.4297C485.68 48.9974 485.461 49.8099 485.461 50.8672ZM494.883 46.5469L494.93 47.6094C495.576 46.7969 496.419 46.3906 497.461 46.3906C499.247 46.3906 500.148 47.3984 500.164 49.4141V55H498.719V49.4062C498.714 48.7969 498.573 48.3464 498.297 48.0547C498.026 47.763 497.602 47.6172 497.023 47.6172C496.555 47.6172 496.143 47.7422 495.789 47.9922C495.435 48.2422 495.159 48.5703 494.961 48.9766V55H493.516V46.5469H494.883ZM505.852 55.1562C504.706 55.1562 503.773 54.7812 503.055 54.0312C502.336 53.276 501.977 52.2682 501.977 51.0078V50.7422C501.977 49.9036 502.135 49.1562 502.453 48.5C502.776 47.8385 503.224 47.3229 503.797 46.9531C504.375 46.5781 505 46.3906 505.672 46.3906C506.771 46.3906 507.625 46.7526 508.234 47.4766C508.844 48.2005 509.148 49.237 509.148 50.5859V51.1875H503.422C503.443 52.0208 503.685 52.6953 504.148 53.2109C504.617 53.7214 505.211 53.9766 505.93 53.9766C506.44 53.9766 506.872 53.8724 507.227 53.6641C507.581 53.4557 507.891 53.1797 508.156 52.8359L509.039 53.5234C508.331 54.612 507.268 55.1562 505.852 55.1562ZM505.672 47.5781C505.089 47.5781 504.599 47.7917 504.203 48.2188C503.807 48.6406 503.562 49.2344 503.469 50H507.703V49.8906C507.661 49.1562 507.464 48.5885 507.109 48.1875C506.755 47.7812 506.276 47.5781 505.672 47.5781ZM513.484 52.8828L515.453 46.5469H517L513.602 56.3047C513.076 57.7109 512.24 58.4141 511.094 58.4141L510.82 58.3906L510.281 58.2891V57.1172L510.672 57.1484C511.161 57.1484 511.542 57.0495 511.812 56.8516C512.089 56.6536 512.315 56.2917 512.492 55.7656L512.812 54.9062L509.797 46.5469H511.375L513.484 52.8828ZM522.977 55V47.6641H521.641V46.5469H522.977V45.6797C522.977 44.7734 523.219 44.0729 523.703 43.5781C524.188 43.0833 524.872 42.8359 525.758 42.8359C526.091 42.8359 526.422 42.8802 526.75 42.9688L526.672 44.1406C526.427 44.0938 526.167 44.0703 525.891 44.0703C525.422 44.0703 525.06 44.2083 524.805 44.4844C524.549 44.7552 524.422 45.1458 524.422 45.6562V46.5469H526.227V47.6641H524.422V55H522.977ZM531.914 47.8438C531.695 47.8073 531.458 47.7891 531.203 47.7891C530.255 47.7891 529.612 48.1927 529.273 49V55H527.828V46.5469H529.234L529.258 47.5234C529.732 46.7682 530.404 46.3906 531.273 46.3906C531.555 46.3906 531.768 46.4271 531.914 46.5V47.8438ZM532.711 50.6953C532.711 49.8672 532.872 49.1224 533.195 48.4609C533.523 47.7995 533.977 47.2891 534.555 46.9297C535.138 46.5703 535.802 46.3906 536.547 46.3906C537.698 46.3906 538.628 46.7891 539.336 47.5859C540.049 48.3828 540.406 49.4427 540.406 50.7656V50.8672C540.406 51.6901 540.247 52.4297 539.93 53.0859C539.617 53.737 539.167 54.2448 538.578 54.6094C537.995 54.974 537.323 55.1562 536.562 55.1562C535.417 55.1562 534.487 54.7578 533.773 53.9609C533.065 53.1641 532.711 52.1094 532.711 50.7969V50.6953ZM534.164 50.8672C534.164 51.8047 534.38 52.5573 534.812 53.125C535.25 53.6927 535.833 53.9766 536.562 53.9766C537.297 53.9766 537.88 53.6901 538.312 53.1172C538.745 52.5391 538.961 51.7318 538.961 50.6953C538.961 49.7682 538.74 49.0182 538.297 48.4453C537.859 47.8672 537.276 47.5781 536.547 47.5781C535.833 47.5781 535.258 47.862 534.82 48.4297C534.383 48.9974 534.164 49.8099 534.164 50.8672ZM543.578 46.5469L543.617 47.4844C544.237 46.7552 545.073 46.3906 546.125 46.3906C547.307 46.3906 548.112 46.8438 548.539 47.75C548.82 47.3438 549.185 47.0156 549.633 46.7656C550.086 46.5156 550.62 46.3906 551.234 46.3906C553.089 46.3906 554.031 47.3724 554.062 49.3359V55H552.617V49.4219C552.617 48.8177 552.479 48.3672 552.203 48.0703C551.927 47.7682 551.464 47.6172 550.812 47.6172C550.276 47.6172 549.831 47.7786 549.477 48.1016C549.122 48.4193 548.917 48.849 548.859 49.3906V55H547.406V49.4609C547.406 48.2318 546.805 47.6172 545.602 47.6172C544.654 47.6172 544.005 48.0208 543.656 48.8281V55H542.211V46.5469H543.578ZM566.727 52.0312H561.961L560.891 55H559.344L563.688 43.625H565L569.352 55H567.812L566.727 52.0312ZM562.414 50.7969H566.281L564.344 45.4766L562.414 50.7969ZM577.727 44.8594H574.07V55H572.578V44.8594H568.93V43.625H577.727V44.8594ZM581.352 43.625L585.07 52.9062L588.789 43.625H590.734V55H589.234V50.5703L589.375 45.7891L585.641 55H584.492L580.766 45.8125L580.914 50.5703V55H579.414V43.625H581.352Z" fill="#6654A4"/>
<path d="M38.1105 63.744H53.5025V61.312H42.4945C46.6225 57.952 52.8305 53.056 52.8305 47.296C52.8305 43.008 50.0145 40.448 45.6625 40.448C41.5025 40.448 38.3985 43.008 38.2065 47.936H41.0225C41.1505 45.024 42.6865 42.944 45.6945 42.944C48.8305 42.944 49.9505 44.864 49.9505 47.424C49.9505 52.16 44.1905 56.768 38.1105 61.664V63.744Z" fill="#6654A4"/>
<defs>
<filter id="filter0_d" x="0" y="0" width="630" height="113" filterUnits="userSpaceOnUse" color-interpolation-filters="sRGB">
<feFlood flood-opacity="0" result="BackgroundImageFix"/>
<feColorMatrix in="SourceAlpha" type="matrix" values="0 0 0 0 0 0 0 0 0 0 0 0 0 0 0 0 0 0 127 0"/>
<feMorphology radius="4" operator="dilate" in="SourceAlpha" result="effect1_dropShadow"/>
<feOffset dy="3"/>
<feGaussianBlur stdDeviation="7.5"/>
<feColorMatrix type="matrix" values="0 0 0 0 0.872109 0 0 0 0 0.853125 0 0 0 0 0.9375 0 0 0 0.5 0"/>
<feBlend mode="normal" in2="BackgroundImageFix" result="effect1_dropShadow"/>
<feBlend mode="normal" in="SourceGraphic" in2="effect1_dropShadow" result="shape"/>
</filter>
</defs>
</svg>
