<svg width="530" height="124" viewBox="0 0 530 124" fill="none" xmlns="http://www.w3.org/2000/svg">
<path d="M164.119 44H167.759V16.12H164.119V28.36H149.919V16.12H146.279V44H149.919V31.36H164.119V44ZM194.735 33C194.735 26.08 189.895 21.72 183.655 21.72C177.455 21.72 172.575 26.08 172.575 33C172.575 39.96 177.295 44.36 183.495 44.36C189.735 44.36 194.735 39.96 194.735 33ZM176.295 33C176.295 27.48 179.775 24.88 183.615 24.88C187.375 24.88 191.015 27.48 191.015 33C191.015 38.56 187.295 41.16 183.495 41.16C179.695 41.16 176.295 38.56 176.295 33ZM203.801 44H207.561L212.841 26.6L218.121 44H221.881L228.721 22.08H225.121L220.161 40.52L214.841 22.08H211.121L205.681 40.48L200.641 22.08H196.921L203.801 44ZM242.998 44H246.638V22.08H242.998V44ZM244.878 18.52C246.198 18.52 247.278 17.44 247.278 16.04C247.278 14.64 246.198 13.56 244.878 13.56C243.478 13.56 242.398 14.64 242.398 16.04C242.398 17.44 243.478 18.52 244.878 18.52ZM253.642 38C253.642 42.4 255.842 44 259.722 44H263.002V40.92H260.322C258.082 40.92 257.282 40.16 257.282 38V25.08H263.002V22.08H257.282V16.56H253.642V22.08H250.802V25.08H253.642V38ZM282.356 44H286.116L291.396 26.6L296.676 44H300.436L307.276 22.08H303.676L298.716 40.52L293.396 22.08H289.676L284.236 40.48L279.196 22.08H275.476L282.356 44ZM331.689 33C331.689 26.08 326.849 21.72 320.609 21.72C314.409 21.72 309.529 26.08 309.529 33C309.529 39.96 314.249 44.36 320.449 44.36C326.689 44.36 331.689 39.96 331.689 33ZM313.249 33C313.249 27.48 316.729 24.88 320.569 24.88C324.329 24.88 327.969 27.48 327.969 33C327.969 38.56 324.249 41.16 320.449 41.16C316.649 41.16 313.249 38.56 313.249 33ZM340.115 32.08C340.115 27 342.755 25.44 346.235 25.44H347.195V21.68C343.715 21.68 341.355 23.2 340.115 25.64V22.08H336.475V44H340.115V32.08ZM351.396 44H355.036V34.32L363.636 44H368.596L358.236 33L368.556 22.08H363.476L355.036 31.8V14.4H351.396V44ZM387.742 38.04C387.582 30.2 374.862 33.04 374.862 27.84C374.862 26.08 376.462 24.8 379.142 24.8C382.062 24.8 383.742 26.4 383.902 28.6H387.542C387.302 24.32 384.102 21.72 379.262 21.72C374.382 21.72 371.222 24.48 371.222 27.84C371.222 36 384.182 33.16 384.182 38.04C384.182 39.84 382.582 41.28 379.702 41.28C376.622 41.28 374.742 39.68 374.542 37.56H370.782C371.022 41.56 374.622 44.36 379.742 44.36C384.582 44.36 387.742 41.64 387.742 38.04Z" fill="#2B334E"/>
<path d="M0.922375 109.416C0.922375 112.76 3.37038 115.096 6.49038 115.096C8.90638 115.096 10.8264 113.896 11.6584 111.752H9.91438C9.30638 113.08 8.12238 113.832 6.49038 113.832C4.15438 113.832 2.41038 112.136 2.41038 109.416C2.41038 106.68 4.15438 104.984 6.49038 104.984C8.12238 104.984 9.30638 105.736 9.91438 107.08H11.6584C10.8264 104.92 8.90638 103.704 6.49038 103.704C3.37038 103.704 0.922375 106.072 0.922375 109.416ZM22.1458 110.6C22.1458 107.832 20.2098 106.088 17.7138 106.088C15.2338 106.088 13.2818 107.832 13.2818 110.6C13.2818 113.384 15.1698 115.144 17.6498 115.144C20.1458 115.144 22.1458 113.384 22.1458 110.6ZM14.7698 110.6C14.7698 108.392 16.1618 107.352 17.6978 107.352C19.2018 107.352 20.6578 108.392 20.6578 110.6C20.6578 112.824 19.1698 113.864 17.6498 113.864C16.1298 113.864 14.7698 112.824 14.7698 110.6ZM30.4761 115H31.9161V109.832C31.9161 107.32 30.3641 106.072 28.3321 106.072C27.1481 106.072 26.0921 106.568 25.5161 107.48V106.232H24.0601V115H25.5161V110.152C25.5161 108.264 26.5401 107.336 28.0281 107.336C29.5001 107.336 30.4761 108.248 30.4761 110.04V115ZM40.5985 112.616C40.5345 109.48 35.4465 110.616 35.4465 108.536C35.4465 107.832 36.0865 107.32 37.1585 107.32C38.3265 107.32 38.9985 107.96 39.0625 108.84H40.5185C40.4225 107.128 39.1425 106.088 37.2065 106.088C35.2545 106.088 33.9905 107.192 33.9905 108.536C33.9905 111.8 39.1745 110.664 39.1745 112.616C39.1745 113.336 38.5345 113.912 37.3825 113.912C36.1505 113.912 35.3985 113.272 35.3185 112.424H33.8145C33.9105 114.024 35.3505 115.144 37.3985 115.144C39.3345 115.144 40.5985 114.056 40.5985 112.616ZM50.4299 106.232H48.9739V111.048C48.9739 112.936 47.9659 113.864 46.4619 113.864C44.9899 113.864 44.0139 112.952 44.0139 111.176V106.232H42.5739V111.368C42.5739 113.88 44.1579 115.128 46.1739 115.128C47.3419 115.128 48.4139 114.616 48.9739 113.704V115H50.4299V106.232ZM65.5443 115H66.9843V109.832C66.9843 107.32 65.4323 106.072 63.4323 106.072C62.0883 106.072 60.8403 106.76 60.3283 108.024C59.7523 106.712 58.5523 106.072 57.1123 106.072C55.9603 106.072 54.9203 106.568 54.3443 107.496V106.232H52.8883V115H54.3443V110.168C54.3443 108.28 55.3523 107.336 56.8243 107.336C58.2643 107.336 59.2243 108.248 59.2243 110.04V115H60.6643V110.168C60.6643 108.28 61.6723 107.336 63.1443 107.336C64.5843 107.336 65.5443 108.248 65.5443 110.04V115ZM73.1006 107.32C74.6046 107.32 75.8846 108.264 75.8686 109.976H70.3326C70.4926 108.264 71.6766 107.32 73.1006 107.32ZM77.1966 112.296H75.6286C75.3086 113.24 74.4766 113.912 73.1646 113.912C71.6766 113.912 70.4286 112.936 70.3166 111.16H77.3246C77.3566 110.856 77.3726 110.6 77.3726 110.28C77.3726 107.88 75.7086 106.088 73.1646 106.088C70.6046 106.088 68.8286 107.832 68.8286 110.6C68.8286 113.384 70.6686 115.144 73.1646 115.144C75.3406 115.144 76.7486 113.896 77.1966 112.296ZM80.7505 110.232C80.7505 108.2 81.8065 107.576 83.1985 107.576H83.5825V106.072C82.1905 106.072 81.2465 106.68 80.7505 107.656V106.232H79.2945V115H80.7505V110.232ZM88.9849 110.6C88.9849 113.384 90.7609 115.144 93.2569 115.144C95.4329 115.144 96.8569 113.928 97.3049 112.184H95.7369C95.4169 113.288 94.5529 113.912 93.2569 113.912C91.6569 113.912 90.4729 112.776 90.4729 110.6C90.4729 108.456 91.6569 107.32 93.2569 107.32C94.5529 107.32 95.4329 107.992 95.7369 109.048H97.3049C96.8569 107.208 95.4329 106.088 93.2569 106.088C90.7609 106.088 88.9849 107.848 88.9849 110.6ZM98.7036 110.584C98.7036 113.304 100.512 115.144 102.848 115.144C104.464 115.144 105.6 114.312 106.128 113.368V115H107.6V106.232H106.128V107.832C105.616 106.92 104.496 106.088 102.864 106.088C100.512 106.088 98.7036 107.848 98.7036 110.584ZM106.128 110.6C106.128 112.664 104.752 113.864 103.152 113.864C101.552 113.864 100.192 112.648 100.192 110.584C100.192 108.52 101.552 107.352 103.152 107.352C104.752 107.352 106.128 108.568 106.128 110.6ZM116.476 115H117.916V109.832C117.916 107.32 116.364 106.072 114.332 106.072C113.148 106.072 112.092 106.568 111.516 107.48V106.232H110.06V115H111.516V110.152C111.516 108.264 112.54 107.336 114.028 107.336C115.5 107.336 116.476 108.248 116.476 110.04V115ZM126.272 115H127.776L129.888 108.04L132 115H133.504L136.24 106.232H134.8L132.816 113.608L130.688 106.232H129.2L127.024 113.592L125.008 106.232H123.52L126.272 115ZM137.685 115H139.141V106.232H137.685V115ZM138.437 104.808C138.965 104.808 139.397 104.376 139.397 103.816C139.397 103.256 138.965 102.824 138.437 102.824C137.877 102.824 137.445 103.256 137.445 103.816C137.445 104.376 137.877 104.808 138.437 104.808ZM141.943 112.6C141.943 114.36 142.823 115 144.375 115H145.687V113.768H144.615C143.719 113.768 143.399 113.464 143.399 112.6V107.432H145.687V106.232H143.399V104.024H141.943V106.232H140.807V107.432H141.943V112.6ZM147.451 115H148.907V110.152C148.907 108.264 149.931 107.336 151.419 107.336C152.891 107.336 153.867 108.248 153.867 110.04V115H155.307V109.832C155.307 107.32 153.755 106.072 151.803 106.072C150.571 106.072 149.483 106.568 148.907 107.496V103.16H147.451V115ZM157.141 110.584C157.141 113.304 158.949 115.144 161.301 115.144C162.901 115.144 164.037 114.328 164.565 113.352V115H166.037V103.16H164.565V107.8C163.957 106.792 162.693 106.088 161.317 106.088C158.949 106.088 157.141 107.848 157.141 110.584ZM164.565 110.6C164.565 112.664 163.189 113.864 161.589 113.864C159.989 113.864 158.629 112.648 158.629 110.584C158.629 108.52 159.989 107.352 161.589 107.352C163.189 107.352 164.565 108.568 164.565 110.6ZM169.954 110.232C169.954 108.2 171.01 107.576 172.402 107.576H172.786V106.072C171.394 106.072 170.45 106.68 169.954 107.656V106.232H168.498V115H169.954V110.232ZM173.922 110.584C173.922 113.304 175.73 115.144 178.066 115.144C179.682 115.144 180.818 114.312 181.346 113.368V115H182.818V106.232H181.346V107.832C180.834 106.92 179.714 106.088 178.082 106.088C175.73 106.088 173.922 107.848 173.922 110.584ZM181.346 110.6C181.346 112.664 179.97 113.864 178.37 113.864C176.77 113.864 175.41 112.648 175.41 110.584C175.41 108.52 176.77 107.352 178.37 107.352C179.97 107.352 181.346 108.568 181.346 110.6ZM186.991 115H188.495L190.607 108.04L192.719 115H194.223L196.959 106.232H195.519L193.535 113.608L191.407 106.232H189.919L187.743 113.592L185.727 106.232H184.239L186.991 115ZM205.998 113.336L203.246 106.232H201.63L205.166 114.904L203.438 119.128H204.942L210.222 106.232H208.718L205.998 113.336ZM220.005 110.6C220.005 107.832 218.069 106.088 215.573 106.088C213.093 106.088 211.141 107.832 211.141 110.6C211.141 113.384 213.029 115.144 215.509 115.144C218.005 115.144 220.005 113.384 220.005 110.6ZM212.629 110.6C212.629 108.392 214.021 107.352 215.557 107.352C217.061 107.352 218.517 108.392 218.517 110.6C218.517 112.824 217.029 113.864 215.509 113.864C213.989 113.864 212.629 112.824 212.629 110.6ZM229.696 106.232H228.24V111.048C228.24 112.936 227.232 113.864 225.728 113.864C224.256 113.864 223.28 112.952 223.28 111.176V106.232H221.84V111.368C221.84 113.88 223.424 115.128 225.44 115.128C226.608 115.128 227.68 114.616 228.24 113.704V115H229.696V106.232ZM233.61 110.232C233.61 108.2 234.666 107.576 236.058 107.576H236.442V106.072C235.05 106.072 234.106 106.68 233.61 107.656V106.232H232.154V115H233.61V110.232ZM241.844 110.6C241.844 113.384 243.62 115.144 246.116 115.144C248.292 115.144 249.716 113.928 250.164 112.184H248.596C248.276 113.288 247.412 113.912 246.116 113.912C244.516 113.912 243.332 112.776 243.332 110.6C243.332 108.456 244.516 107.32 246.116 107.32C247.412 107.32 248.292 107.992 248.596 109.048H250.164C249.716 107.208 248.292 106.088 246.116 106.088C243.62 106.088 241.844 107.848 241.844 110.6ZM251.563 110.584C251.563 113.304 253.371 115.144 255.707 115.144C257.323 115.144 258.459 114.312 258.987 113.368V115H260.459V106.232H258.987V107.832C258.475 106.92 257.355 106.088 255.723 106.088C253.371 106.088 251.563 107.848 251.563 110.584ZM258.987 110.6C258.987 112.664 257.611 113.864 256.011 113.864C254.411 113.864 253.051 112.648 253.051 110.584C253.051 108.52 254.411 107.352 256.011 107.352C257.611 107.352 258.987 108.568 258.987 110.6ZM269.224 112.616C269.16 109.48 264.072 110.616 264.072 108.536C264.072 107.832 264.712 107.32 265.784 107.32C266.952 107.32 267.624 107.96 267.688 108.84H269.144C269.048 107.128 267.768 106.088 265.832 106.088C263.88 106.088 262.616 107.192 262.616 108.536C262.616 111.8 267.8 110.664 267.8 112.616C267.8 113.336 267.16 113.912 266.008 113.912C264.776 113.912 264.024 113.272 263.944 112.424H262.44C262.536 114.024 263.976 115.144 266.024 115.144C267.96 115.144 269.224 114.056 269.224 112.616ZM271.279 115H272.735V110.152C272.735 108.264 273.759 107.336 275.247 107.336C276.719 107.336 277.695 108.248 277.695 110.04V115H279.135V109.832C279.135 107.32 277.583 106.072 275.631 106.072C274.399 106.072 273.311 106.568 272.735 107.496V103.16H271.279V115ZM286.051 115H287.507V107.432H289.347V106.232H287.507V105.608C287.507 104.472 287.939 103.992 289.251 103.992V102.776C287.011 102.776 286.051 103.656 286.051 105.608V106.232H284.915V107.432H286.051V115ZM292.501 110.232C292.501 108.2 293.557 107.576 294.949 107.576H295.333V106.072C293.941 106.072 292.997 106.68 292.501 107.656V106.232H291.045V115H292.501V110.232ZM305.333 110.6C305.333 107.832 303.397 106.088 300.901 106.088C298.421 106.088 296.469 107.832 296.469 110.6C296.469 113.384 298.357 115.144 300.837 115.144C303.333 115.144 305.333 113.384 305.333 110.6ZM297.957 110.6C297.957 108.392 299.349 107.352 300.885 107.352C302.389 107.352 303.845 108.392 303.845 110.6C303.845 112.824 302.357 113.864 300.837 113.864C299.317 113.864 297.957 112.824 297.957 110.6ZM319.904 115H321.344V109.832C321.344 107.32 319.792 106.072 317.792 106.072C316.448 106.072 315.2 106.76 314.688 108.024C314.112 106.712 312.912 106.072 311.472 106.072C310.32 106.072 309.28 106.568 308.704 107.496V106.232H307.248V115H308.704V110.168C308.704 108.28 309.712 107.336 311.184 107.336C312.624 107.336 313.584 108.248 313.584 110.04V115H315.024V110.168C315.024 108.28 316.032 107.336 317.504 107.336C318.944 107.336 319.904 108.248 319.904 110.04V115ZM331.326 113.336L328.574 106.232H326.958L330.494 114.904L328.766 119.128H330.27L335.55 106.232H334.046L331.326 113.336ZM345.333 110.6C345.333 107.832 343.397 106.088 340.901 106.088C338.421 106.088 336.469 107.832 336.469 110.6C336.469 113.384 338.357 115.144 340.837 115.144C343.333 115.144 345.333 113.384 345.333 110.6ZM337.957 110.6C337.957 108.392 339.349 107.352 340.885 107.352C342.389 107.352 343.845 108.392 343.845 110.6C343.845 112.824 342.357 113.864 340.837 113.864C339.317 113.864 337.957 112.824 337.957 110.6ZM355.024 106.232H353.568V111.048C353.568 112.936 352.56 113.864 351.056 113.864C349.584 113.864 348.608 112.952 348.608 111.176V106.232H347.168V111.368C347.168 113.88 348.752 115.128 350.768 115.128C351.936 115.128 353.008 114.616 353.568 113.704V115H355.024V106.232ZM358.938 110.232C358.938 108.2 359.994 107.576 361.386 107.576H361.77V106.072C360.378 106.072 359.434 106.68 358.938 107.656V106.232H357.482V115H358.938V110.232ZM369.428 115H370.932L373.044 108.04L375.156 115H376.66L379.396 106.232H377.956L375.972 113.608L373.844 106.232H372.356L370.18 113.592L368.164 106.232H366.676L369.428 115ZM380.297 110.584C380.297 113.304 382.105 115.144 384.441 115.144C386.057 115.144 387.193 114.312 387.721 113.368V115H389.193V106.232H387.721V107.832C387.209 106.92 386.089 106.088 384.457 106.088C382.105 106.088 380.297 107.848 380.297 110.584ZM387.721 110.6C387.721 112.664 386.345 113.864 384.745 113.864C383.145 113.864 381.785 112.648 381.785 110.584C381.785 108.52 383.145 107.352 384.745 107.352C386.345 107.352 387.721 108.568 387.721 110.6ZM391.654 115H393.11V103.16H391.654V115ZM395.591 115H397.047V103.16H395.591V115ZM403.257 107.32C404.761 107.32 406.041 108.264 406.025 109.976H400.489C400.649 108.264 401.833 107.32 403.257 107.32ZM407.353 112.296H405.785C405.465 113.24 404.633 113.912 403.321 113.912C401.833 113.912 400.585 112.936 400.473 111.16H407.481C407.513 110.856 407.529 110.6 407.529 110.28C407.529 107.88 405.865 106.088 403.321 106.088C400.761 106.088 398.985 107.832 398.985 110.6C398.985 113.384 400.825 115.144 403.321 115.144C405.497 115.144 406.905 113.896 407.353 112.296ZM409.771 112.6C409.771 114.36 410.651 115 412.203 115H413.515V113.768H412.443C411.547 113.768 411.227 113.464 411.227 112.6V107.432H413.515V106.232H411.227V104.024H409.771V106.232H408.635V107.432H409.771V112.6ZM423.273 107.32C424.777 107.32 426.057 108.264 426.041 109.976H420.505C420.664 108.264 421.849 107.32 423.273 107.32ZM427.369 112.296H425.801C425.481 113.24 424.649 113.912 423.337 113.912C421.849 113.912 420.601 112.936 420.489 111.16H427.497C427.529 110.856 427.545 110.6 427.545 110.28C427.545 107.88 425.881 106.088 423.337 106.088C420.777 106.088 419.001 107.832 419.001 110.6C419.001 113.384 420.841 115.144 423.337 115.144C425.513 115.144 426.921 113.896 427.369 112.296ZM428.922 110.584C428.922 113.304 430.73 115.144 433.066 115.144C434.682 115.144 435.818 114.312 436.346 113.368V115H437.818V106.232H436.346V107.832C435.834 106.92 434.714 106.088 433.082 106.088C430.73 106.088 428.922 107.848 428.922 110.584ZM436.346 110.6C436.346 112.664 434.97 113.864 433.37 113.864C431.77 113.864 430.41 112.648 430.41 110.584C430.41 108.52 431.77 107.352 433.37 107.352C434.97 107.352 436.346 108.568 436.346 110.6ZM440.279 115H441.735V106.232H440.279V115ZM441.031 104.808C441.559 104.808 441.991 104.376 441.991 103.816C441.991 103.256 441.559 102.824 441.031 102.824C440.471 102.824 440.039 103.256 440.039 103.816C440.039 104.376 440.471 104.808 441.031 104.808ZM450.52 112.616C450.456 109.48 445.368 110.616 445.368 108.536C445.368 107.832 446.008 107.32 447.08 107.32C448.248 107.32 448.92 107.96 448.984 108.84H450.44C450.344 107.128 449.064 106.088 447.128 106.088C445.176 106.088 443.912 107.192 443.912 108.536C443.912 111.8 449.096 110.664 449.096 112.616C449.096 113.336 448.456 113.912 447.304 113.912C446.072 113.912 445.32 113.272 445.24 112.424H443.736C443.832 114.024 445.272 115.144 447.32 115.144C449.256 115.144 450.52 114.056 450.52 112.616ZM452.576 115H454.032V103.16H452.576V115ZM459.841 113.336L457.089 106.232H455.473L459.009 114.904L457.281 119.128H458.785L464.065 106.232H462.561L459.841 113.336ZM468.755 106.232L472.195 115H473.891L477.331 106.232H475.779L473.059 113.656L470.323 106.232H468.755ZM478.763 115H480.219V106.232H478.763V115ZM479.515 104.808C480.043 104.808 480.475 104.376 480.475 103.816C480.475 103.256 480.043 102.824 479.515 102.824C478.955 102.824 478.523 103.256 478.523 103.816C478.523 104.376 478.955 104.808 479.515 104.808ZM482.157 110.584C482.157 113.304 483.965 115.144 486.301 115.144C487.917 115.144 489.053 114.312 489.581 113.368V115H491.053V106.232H489.581V107.832C489.069 106.92 487.949 106.088 486.317 106.088C483.965 106.088 482.157 107.848 482.157 110.584ZM489.581 110.6C489.581 112.664 488.205 113.864 486.605 113.864C485.005 113.864 483.645 112.648 483.645 110.584C483.645 108.52 485.005 107.352 486.605 107.352C488.205 107.352 489.581 108.568 489.581 110.6ZM505.267 115H506.803L502.787 103.912H501.107L497.075 115H498.611L499.507 112.52H504.371L505.267 115ZM503.955 111.336H499.923L501.939 105.704L503.955 111.336ZM507.872 105.032H510.928V115H512.384V105.032H515.424V103.848H507.872V105.032ZM517.216 115H518.672V106.728L522.368 115H523.392L527.072 106.744V115H528.528V103.928H526.976L522.88 113.08L518.784 103.928H517.216V115Z" fill="#656668"/>
</svg>
