<svg width="220" height="186" viewBox="0 0 220 186" fill="none" xmlns="http://www.w3.org/2000/svg">
<path d="M14.1703 41.3675C30.1259 22.1083 38.7158 40.1388 63.6693 13.5023C88.6229 -13.1342 109.316 22.8253 131.575 6.53537C161.028 -15.0085 199.48 22.3527 199.48 38.0893C199.48 70.8558 211.777 76.6101 216.662 88.4944C227.106 113.904 209.707 117.18 209.707 138.899C209.707 167.585 174.526 185.731 174.526 185.731H40.8437C-10.29 170.055 -4.64174 130.293 10.9035 102.428C26.4488 74.5629 -1.77843 60.6291 14.1703 41.3675Z" fill="#F1EFFA"/>
<path d="M56.7628 51.6693L38.3911 51.2773L38.375 175.681H74.512V114.687C74.5051 107.476 64.3499 55.8697 56.7628 51.6693Z" fill="#36256D"/>
<path d="M71.3439 175.64H33.9297V78.1958C33.9297 77.5 34.2061 76.8327 34.6981 76.3407C35.1901 75.8487 35.8574 75.5723 36.5532 75.5723H71.3439V175.64Z" fill="#6654A4"/>
<path d="M55.2054 51.2344H34.5837C34.0114 51.2344 33.4625 51.4617 33.0578 51.8664C32.6531 52.2711 32.4258 52.8199 32.4258 53.3922V60.8456C32.4258 61.4179 32.6531 61.9667 33.0578 62.3714C33.4625 62.7761 34.0114 63.0034 34.5837 63.0034H59.7931C58.2439 56.8872 56.6532 52.4032 55.2054 51.2344Z" fill="#6654A4"/>
<path d="M34.0892 66.7367C33.6802 66.7367 33.2878 66.8992 32.9986 67.1884C32.7094 67.4776 32.5469 67.8699 32.5469 68.279V69.4985C32.5469 69.9076 32.7094 70.2999 32.9986 70.5891C33.2878 70.8784 33.6802 71.0408 34.0892 71.0408H61.6179C61.309 69.5608 60.9977 68.1199 60.6819 66.7344H34.0892V66.7367Z" fill="#6654A4"/>
<path d="M115.978 175.627H35.5195V185.789H115.978V175.627Z" fill="#45357C"/>
<path d="M70.7012 175.627H32.5654V185.771H70.7012V175.627Z" fill="#584792"/>
<path d="M89.9161 51.6701L55.2061 51.2344C55.2061 51.2344 68.0494 107.486 68.0494 114.688V175.682H112.829V114.688C112.822 107.207 103.449 52.175 89.9161 51.6701Z" fill="#584792"/>
<path d="M98.9401 101.999L99.9061 110.363C99.9645 110.868 100.202 111.335 100.577 111.679C100.951 112.023 101.436 112.221 101.944 112.237L107.477 112.412C107.783 112.422 108.088 112.365 108.371 112.246C108.653 112.126 108.906 111.947 109.112 111.72C109.319 111.493 109.473 111.224 109.565 110.932C109.658 110.639 109.685 110.33 109.646 110.026L108.593 101.787C108.529 101.296 108.296 100.843 107.934 100.506C107.571 100.169 107.102 99.9697 106.608 99.9425L101.149 99.6451C100.842 99.6301 100.536 99.682 100.251 99.7971C99.9667 99.9121 99.7105 100.088 99.5004 100.312C99.2903 100.535 99.1315 100.802 99.0347 101.094C98.938 101.385 98.9057 101.694 98.9401 101.999Z" fill="#36256D"/>
<path d="M73.4206 113.476C72.6437 113.479 71.8935 113.193 71.3146 112.675C70.7356 112.157 70.369 111.443 70.2852 110.671C69.4461 102.941 67.5349 89.0001 64.916 75.147L64.6094 73.5332H88.2373C89.723 73.5415 91.16 74.0636 92.3046 75.0107C93.4492 75.9578 94.231 77.2717 94.5172 78.7296C97.2353 92.3844 98.3857 107.669 98.6669 112.026L98.7615 113.476H73.4206Z" fill="#6654A4"/>
<path d="M71.625 110.522C70.6452 101.531 68.6441 87.6226 66.2373 74.8945H88.2238C89.3959 74.898 90.5303 75.3088 91.4328 76.0566C92.3353 76.8043 92.9499 77.8426 93.1712 78.9935C95.4766 90.6358 96.7653 103.984 97.3025 112.117H73.4186C72.9748 112.122 72.5451 111.961 72.2135 111.666C71.8818 111.371 71.672 110.963 71.625 110.522Z" fill="#9D8CDB"/>
<path d="M70.7969 103.617C71.1219 106.128 71.4009 108.459 71.6268 110.522C71.6741 110.961 71.8825 111.367 72.2117 111.661C72.5408 111.955 72.9674 112.117 73.4089 112.115H97.3043C97.1452 109.687 96.9193 106.792 96.6127 103.617H70.7969Z" fill="#534291"/>
<path d="M83.5485 79.5656C84.7208 79.569 85.8555 79.9797 86.7584 80.7275C87.6613 81.4752 88.2763 82.5135 88.4982 83.6646C90.4094 93.285 90.8036 95.5673 91.479 103.611L97.3025 112.113C96.7653 103.982 95.4858 90.6338 93.1712 78.9916C92.9499 77.8406 92.3353 76.8024 91.4328 76.0546C90.5303 75.3069 89.3959 74.8961 88.2238 74.8926H66.2373C66.5293 76.4295 66.8152 77.988 67.0949 79.5679H83.5485V79.5656Z" fill="#36256D"/>
<path d="M86.0643 85.5453H69.7468C69.6614 85.5383 69.5818 85.4994 69.5238 85.4364C69.4658 85.3734 69.4336 85.2909 69.4336 85.2053C69.4336 85.1196 69.4658 85.0371 69.5238 84.9741C69.5818 84.9111 69.6614 84.8723 69.7468 84.8652H86.0643C86.1497 84.8723 86.2293 84.9111 86.2873 84.9741C86.3453 85.0371 86.3775 85.1196 86.3775 85.2053C86.3775 85.2909 86.3453 85.3734 86.2873 85.4364C86.2293 85.4994 86.1497 85.5383 86.0643 85.5453Z" fill="#6654A4"/>
<path d="M85.6112 83.5063H69.2936C69.2083 83.4992 69.1287 83.4604 69.0707 83.3974C69.0127 83.3344 68.9805 83.2519 68.9805 83.1662C68.9805 83.0806 69.0127 82.9981 69.0707 82.9351C69.1287 82.8721 69.2083 82.8332 69.2936 82.8262H85.6112C85.6966 82.8332 85.7761 82.8721 85.8341 82.9351C85.8922 82.9981 85.9244 83.0806 85.9244 83.1662C85.9244 83.2519 85.8922 83.3344 85.8341 83.3974C85.7761 83.4604 85.6966 83.4992 85.6112 83.5063Z" fill="#6654A4"/>
<path d="M98.0574 120.454H74.049C73.7887 120.442 73.5431 120.33 73.3632 120.141C73.1833 119.952 73.083 119.702 73.083 119.441C73.083 119.18 73.1833 118.93 73.3632 118.741C73.5431 118.552 73.7887 118.44 74.049 118.428H98.0574C98.3178 118.44 98.5634 118.552 98.7432 118.741C98.9231 118.93 99.0234 119.18 99.0234 119.441C99.0234 119.702 98.9231 119.952 98.7432 120.141C98.5634 120.33 98.3178 120.442 98.0574 120.454Z" fill="#36256D"/>
<path d="M108.145 91.3663L97.7712 91.7651C97.5291 91.7651 97.3101 91.3271 97.294 90.7692C97.2779 90.2113 97.4508 89.7479 97.6928 89.7387L108.067 89.3398C108.298 89.3398 108.528 89.7779 108.544 90.3358C108.56 90.8937 108.388 91.3571 108.145 91.3663Z" fill="#1C0F36"/>
<path d="M97.7418 91.0529L108.116 90.6541C108.252 90.6541 108.377 90.7809 108.464 90.9953C108.527 90.7815 108.554 90.5585 108.543 90.3359C108.522 89.778 108.312 89.3308 108.068 89.34L97.6934 89.7388C97.4628 89.7388 97.2738 90.2114 97.2945 90.7693C97.3001 90.9926 97.3438 91.2132 97.4236 91.4218C97.4928 91.2004 97.6081 91.0575 97.7418 91.0529Z" fill="#2D185D"/>
<path d="M83.3603 39.6168H36.6346C35.6047 39.6168 34.617 39.2078 33.8886 38.4798C33.1602 37.7518 32.7506 36.7643 32.75 35.7345V3.8924C32.7506 2.86233 33.1601 1.87463 33.8885 1.14626C34.6168 0.417889 35.6045 0.00842601 36.6346 0.00781524H83.358C83.8686 0.00720942 84.3744 0.107223 84.8463 0.302142C85.3183 0.497061 85.7472 0.783065 86.1086 1.14381C86.47 1.50456 86.7567 1.93298 86.9525 2.4046C87.1483 2.87621 87.2492 3.38177 87.2495 3.8924V35.7345C87.2492 36.2448 87.1483 36.7501 86.9527 37.2214C86.7571 37.6927 86.4705 38.1209 86.1093 38.4814C85.7481 38.842 85.3194 39.1278 84.8477 39.3226C84.376 39.5174 83.8706 39.6174 83.3603 39.6168Z" fill="#36256D"/>
<path d="M88.741 39.6159H40.2655C39.7469 39.6162 39.2332 39.5142 38.7539 39.3159C38.2747 39.1175 37.8392 38.8266 37.4724 38.4599C37.1057 38.0931 36.8148 37.6576 36.6164 37.1784C36.418 36.6991 36.3161 36.1854 36.3164 35.6667V3.94914C36.3164 2.90176 36.7325 1.89728 37.4731 1.15667C38.2137 0.416068 39.2182 0 40.2655 0H88.741C89.7884 0 90.7929 0.416068 91.5335 1.15667C92.2741 1.89728 92.6902 2.90176 92.6902 3.94914V35.6667C92.6905 36.1854 92.5885 36.6991 92.3902 37.1784C92.1918 37.6576 91.901 38.0931 91.5342 38.4599C91.1674 38.8266 90.7319 39.1175 90.2527 39.3159C89.7734 39.5142 89.2597 39.6162 88.741 39.6159Z" fill="#F05665"/>
<path d="M49.7286 39.5977H44.6982V51.2422H49.7286V39.5977Z" fill="#36256D"/>
<path d="M83.2898 39.5977H78.2617V51.6111H83.2898V39.5977Z" fill="#36256D"/>
<path d="M47.4552 23.8489L46.3371 28.1185H42.6484L47.4414 11.4805H52.0959L56.9603 28.1185H53.1426L51.9346 23.8489H47.4552ZM51.4343 21.034C50.3023 16.799 50.6735 18.5742 49.6637 14.2954H49.6176C49.3871 15.2821 49.1566 16.5408 48.896 17.5022L47.9739 21.0317H51.4435L51.4343 21.034Z" fill="white"/>
<path d="M60.1582 14.6389H55.9463V11.4805H68.0012V14.6389H63.7178V28.1162H60.1582V14.6389Z" fill="white"/>
<path d="M82.918 14.9109H82.8489C82.0789 18.2537 81.6109 19.5955 79.1948 27.8465H76.4284C75.1051 22.6132 74.0884 19.3165 73.3322 14.9109H73.2861C72.7605 27.5906 72.7282 28.1162 72.7282 28.1185H69.4453L70.4458 11.4805H75.1696C75.8059 13.8942 77.196 18.3183 78.0329 22.9844H78.102C79.7158 16.0037 80.283 14.9455 81.2674 11.4805H85.8989L86.7588 28.1185H83.3007C83.1186 23.1596 82.918 19.1159 82.918 14.9109Z" fill="white"/>
<path d="M204.211 185.994H18.5505C18.4374 185.994 18.3289 185.949 18.2489 185.869C18.169 185.789 18.124 185.68 18.124 185.567C18.124 185.454 18.169 185.346 18.2489 185.266C18.3289 185.186 18.4374 185.141 18.5505 185.141H204.211C204.324 185.141 204.432 185.186 204.512 185.266C204.592 185.346 204.637 185.454 204.637 185.567C204.637 185.68 204.592 185.789 204.512 185.869C204.432 185.949 204.324 185.994 204.211 185.994Z" fill="#36256D"/>
<path d="M130.452 64.6016C130.452 64.6016 127.685 64.4172 123.881 68.2303C120.078 72.0434 121.346 84.7254 116.76 86.5651C112.175 88.4048 112.532 93.2738 115.838 95.2956C119.144 97.3174 116.204 98.7883 120.34 103.98C124.476 109.172 144.708 116.282 148.005 109.619C151.302 102.956 152.982 104.407 156.982 102.339C160.982 100.271 160.948 89.8733 152.906 84.8176C144.865 79.7619 148.632 73.8808 143.853 68.3663C139.074 62.8518 130.452 64.6016 130.452 64.6016Z" fill="#5E2E0D"/>
<path opacity="0.6" d="M142.52 76.9004C140.54 68.4327 122.892 69.7353 121.906 74.8025C121.444 77.154 121.094 81.6265 121.398 84.0034C121.859 87.5537 122.486 89.6516 125.779 91.761C127.012 92.5518 127.969 93.8566 127.798 95.2191C126.396 106.578 137.481 108.291 141.7 105.236C147.251 95.9614 143.544 87.8879 142.018 82.8438C141.133 79.9228 143.007 78.9845 142.52 76.9004Z" fill="#5E2E0D"/>
<path d="M116.162 116.797C116.162 116.797 108.441 132.605 108.441 137.935C108.441 143.265 110.963 145.292 113.101 145.126C116.577 144.854 124.166 123.102 124.166 123.102L116.162 116.797Z" fill="#EBB389"/>
<path d="M125.537 102.758C122.388 103.767 119.522 105.505 117.171 107.83C113.332 111.67 112.025 123.871 112.025 123.871C112.025 123.871 111.474 125.715 122.319 126.812C133.163 127.91 125.537 102.758 125.537 102.758Z" fill="#F05665"/>
<path d="M125.535 102.758C124.295 103.134 120.717 104.505 120.304 107.83C120.304 107.83 117.503 120.943 117.227 126.109C118.557 126.358 120.224 126.598 122.326 126.812C133.159 127.917 125.535 102.758 125.535 102.758Z" fill="#CF3A48"/>
<path d="M110.325 130.081C107.598 126.489 97.5692 115.681 96.6701 114.014C95.771 112.348 92.5872 117.996 92.8915 118.185C93.7445 118.715 105.774 149.999 113.684 144.877C117.435 142.447 113.052 133.672 110.325 130.081Z" fill="#EBB389"/>
<path d="M129.208 142.07C129.208 142.07 124.98 154.289 124.245 163.482C123.509 172.676 123.078 185.845 123.078 185.845L164.156 185.741C164.156 185.741 164.587 172.858 164.218 161.004C163.849 149.15 153.099 141.062 153.099 141.062L129.208 142.07Z" fill="#6654A4"/>
<path opacity="0.4" d="M164.223 161.001C164.11 158.043 163.405 155.138 162.149 152.457L137.363 158.52C137.363 158.52 135.703 163.86 153.005 165.556C156.77 165.955 160.558 166.092 164.341 165.967C164.311 164.316 164.276 162.647 164.223 161.001Z" fill="#6654A4"/>
<path opacity="0.4" d="M129.209 142.07C129.209 142.07 128.949 142.817 128.55 144.081C135.056 146.716 153.849 149.003 158.944 147.135C157.264 144.869 155.3 142.827 153.1 141.061L129.209 142.07Z" fill="#6654A4"/>
<path d="M140.529 163.215L140.273 163.12C137.779 162.198 132.967 158.763 132.921 158.74C132.875 158.708 132.823 158.686 132.767 158.676C132.712 158.666 132.655 158.669 132.6 158.683C132.546 158.698 132.495 158.725 132.453 158.761C132.41 158.798 132.375 158.843 132.352 158.895C132.294 159.002 132.275 159.126 132.3 159.245C132.324 159.365 132.39 159.472 132.486 159.547C132.679 159.688 137.129 162.864 139.764 163.927L141.866 185.796H142.699L140.529 163.215Z" fill="#45258F"/>
<path d="M120.296 107.834C120.296 107.834 119.102 116.523 119.102 121.026C119.102 125.528 125.096 141.447 126.638 142.989C129.882 146.233 150.944 144.965 154.114 141.793C157.283 138.62 158.388 108.295 154.575 104.482C150.762 100.669 142.084 101.006 142.084 101.006L125.946 102.64C125.946 102.64 120.796 103.804 120.296 107.834Z" fill="#F05665"/>
<path opacity="0.61" d="M154.567 104.484C153.532 103.449 152.135 102.718 150.648 102.206C147.739 101.895 146.662 105.473 146.118 108.346C144.659 116.067 146.706 127.517 147.681 130.86C148.246 132.808 152.732 135.441 156.995 134.45C158.046 124.211 157.163 107.073 154.567 104.484Z" fill="#BA2836"/>
<path d="M150.492 122.412C150.492 122.412 158.151 138.248 162.342 141.547C166.533 144.846 170.321 145.491 171.261 143.564C172.677 140.668 163.375 118.451 163.375 118.451L150.492 122.412Z" fill="#EBB389"/>
<path d="M130.875 129.769C130.933 129.737 130.985 129.695 131.027 129.645L130.875 129.769Z" fill="#CE3613"/>
<path d="M126.326 126.827C126.197 127.979 126.963 128.288 128.736 128.586C131.152 128.989 131.186 129.425 131.027 129.635L133.874 127.265C132.267 126.347 126.46 125.674 126.326 126.827Z" fill="#EBB389"/>
<path d="M150.649 102.205C147.737 101.893 145.808 105.432 146.119 108.346C146.691 113.879 149.374 122.409 150.345 125.754C151.815 130.808 168.633 123.142 167.174 118.822C165.715 114.502 155.859 102.758 150.649 102.205Z" fill="#F05665"/>
<path d="M128.979 90.4241C128.979 90.4241 129.484 98.4653 128.979 100.303C128.474 102.14 125.945 102.645 125.945 102.645C125.945 102.645 123.409 110.871 130.909 113.443C138.408 116.016 142.085 101.006 142.085 101.006C142.085 101.006 140.031 101.112 139.595 100.985C137.721 100.439 138.032 88.2109 138.032 88.2109L128.979 90.4241Z" fill="#EBB389"/>
<path opacity="0.65" d="M135.53 93.1085C136.466 92.5736 138.052 89.8809 138.045 89.3207C138.045 88.6291 138.045 88.2188 138.045 88.2188L128.98 90.425C128.98 90.425 129.087 92.1195 129.153 94.1298C131.115 94.6416 133.308 94.3834 135.53 93.1085Z" fill="#DC894B"/>
<path d="M124.157 69.0116C124.157 69.0116 122.158 70.4594 122.158 72.2391C122.158 74.0189 121.054 83.4042 123.468 87.404C125.882 91.4039 130.635 93.3312 135.53 90.7814C140.424 88.2316 143.179 85.7487 141.18 77.2027C139.181 68.6566 130.774 65.5028 124.157 69.0116Z" fill="#EBB389"/>
<path d="M143.867 68.3697C142.097 66.3294 139.798 65.2828 137.606 64.7733C131.872 63.1318 127.063 63.7889 123.25 67.602C121.89 68.9622 120.225 71.4958 121.247 74.804H121.906C121.95 74.804 134.268 73.3585 136.123 72.6346C136.559 75.355 142.599 83.5853 143.04 84.3161L145.303 70.4607C144.906 69.7111 144.424 69.0096 143.867 68.3697Z" fill="#5E2E0D"/>
<path d="M139.71 81.5597C139.71 81.5597 139.765 77.6728 141.842 78.9362C143.919 80.1995 143.352 85.2875 141.017 84.7411C138.682 84.1948 139.71 81.5597 139.71 81.5597Z" fill="#EBB389"/>
<path d="M137.35 158.505C136.548 156.154 136.716 153.579 138.482 151.836C139.173 151.16 140.068 150.667 140.787 150.194C142.147 149.298 158.426 145.687 161.266 146.667C164.106 147.647 164.696 148.38 165.383 149.752C166.07 151.123 165.628 154.849 165.236 156.022C164.844 157.196 151.111 162.178 143.733 161.659C137.806 161.242 137.56 159.112 137.366 158.524C137.362 158.516 137.357 158.51 137.35 158.505Z" fill="#968AC2"/>
<path d="M165.233 156.023C166 154.994 166.067 151.124 165.38 149.752C164.693 148.38 164.105 147.645 161.265 146.667C159.151 145.937 149.609 147.756 144.293 149.1C141.462 149.814 139.553 152.583 140.085 155.456C140.138 155.746 140.906 158.964 141.517 160.186C141.723 160.601 142.034 160.954 142.418 161.212C142.803 161.47 143.248 161.623 143.709 161.657H143.725C151.11 162.176 164.492 157.028 165.233 156.023Z" fill="#CBC2EC"/>
<path d="M143.027 153.599C143.027 153.599 146.555 151.393 150.743 150.438C154.932 149.484 162.501 149.85 162.501 149.85C162.501 149.85 152.36 152.864 143.027 153.599Z" fill="#36256D"/>
<path d="M162.501 149.848C159.777 150.809 156.997 151.602 154.176 152.225C150.257 153.057 147.873 153.211 144.888 153.488C144.496 153.525 143.043 153.596 143.027 153.596C150.651 152.619 155.788 151.471 162.501 149.848Z" fill="#968AC2"/>
<path d="M143.027 153.597C144.443 152.681 145.947 151.909 147.516 151.292C149.964 150.314 152.406 149.696 157.457 149.678C159.14 149.678 160.825 149.719 162.501 149.862C158.96 149.862 153.402 149.915 150.001 150.8C147.577 151.463 145.237 152.401 143.027 153.597Z" fill="#968AC2"/>
<path d="M142.526 155.853C141.509 155.853 140.912 155.828 140.886 155.825C140.864 155.825 140.842 155.819 140.822 155.81C140.801 155.8 140.783 155.787 140.768 155.771C140.753 155.754 140.741 155.735 140.733 155.714C140.725 155.693 140.722 155.67 140.723 155.648C140.724 155.626 140.729 155.604 140.738 155.583C140.748 155.563 140.761 155.545 140.778 155.529C140.794 155.514 140.813 155.502 140.835 155.495C140.856 155.487 140.878 155.483 140.9 155.484C144.077 155.568 147.255 155.42 150.41 155.042C155.092 154.465 161.354 153.073 164.595 149.707C164.627 149.678 164.668 149.662 164.71 149.662C164.753 149.662 164.794 149.678 164.826 149.707C164.854 149.739 164.87 149.78 164.87 149.822C164.87 149.865 164.854 149.906 164.826 149.937C163.359 151.461 161.183 152.718 158.357 153.675C155.779 154.506 153.123 155.076 150.431 155.376C147.807 155.691 145.168 155.85 142.526 155.853Z" fill="#968AC2"/>
<path d="M150.046 159.967C150.012 159.967 149.978 159.956 149.949 159.936C149.921 159.916 149.899 159.889 149.887 159.856L148.246 155.52C148.238 155.499 148.234 155.476 148.234 155.454C148.235 155.431 148.24 155.409 148.249 155.388C148.259 155.368 148.272 155.349 148.288 155.334C148.304 155.318 148.324 155.306 148.345 155.298C148.366 155.29 148.388 155.287 148.411 155.287C148.433 155.288 148.455 155.293 148.476 155.302C148.497 155.311 148.515 155.324 148.53 155.341C148.546 155.357 148.558 155.376 148.566 155.397L150.208 159.734C150.216 159.756 150.221 159.779 150.221 159.802C150.221 159.826 150.216 159.849 150.207 159.87C150.197 159.892 150.184 159.911 150.167 159.927C150.15 159.943 150.13 159.956 150.108 159.964C150.088 159.97 150.067 159.97 150.046 159.967Z" fill="#968AC2"/>
<path d="M160.826 157.271H160.796C160.75 157.266 160.709 157.242 160.681 157.206C160.653 157.171 160.64 157.125 160.646 157.08L161.234 152.239C161.24 152.194 161.263 152.153 161.299 152.125C161.335 152.097 161.38 152.084 161.425 152.089C161.447 152.091 161.469 152.098 161.489 152.109C161.509 152.12 161.526 152.135 161.54 152.153C161.554 152.171 161.564 152.191 161.57 152.213C161.576 152.235 161.578 152.258 161.575 152.28L160.987 157.121C160.982 157.161 160.963 157.198 160.934 157.226C160.904 157.253 160.866 157.269 160.826 157.271Z" fill="#968AC2"/>
<path d="M163.082 150.066L161.969 150.347C161.958 150.35 161.947 150.35 161.936 150.349C161.924 150.347 161.914 150.343 161.904 150.337C161.894 150.331 161.886 150.324 161.879 150.315C161.873 150.306 161.868 150.296 161.865 150.285L161.745 149.824C161.742 149.813 161.741 149.801 161.743 149.79C161.744 149.779 161.748 149.768 161.754 149.758C161.76 149.748 161.768 149.74 161.777 149.733C161.786 149.727 161.797 149.722 161.808 149.72L162.921 149.436C162.932 149.433 162.943 149.433 162.954 149.435C162.966 149.436 162.976 149.44 162.986 149.446C162.996 149.452 163.004 149.459 163.011 149.468C163.017 149.477 163.022 149.488 163.025 149.498L163.145 149.971C163.147 149.992 163.142 150.012 163.131 150.03C163.12 150.047 163.102 150.06 163.082 150.066Z" fill="#6654A4"/>
<path d="M161.962 149.918L161.731 151.382C161.73 151.387 161.73 151.392 161.731 151.397C161.733 151.401 161.735 151.406 161.738 151.409C161.741 151.413 161.745 151.416 161.749 151.418C161.754 151.42 161.759 151.421 161.763 151.421H162.469C162.474 151.421 162.479 151.42 162.483 151.418C162.488 151.416 162.492 151.413 162.495 151.41C162.498 151.406 162.501 151.401 162.502 151.397C162.504 151.392 162.504 151.387 162.504 151.382L162.273 149.918C162.271 149.897 162.261 149.878 162.245 149.865C162.229 149.851 162.209 149.844 162.188 149.844H162.059C162.036 149.842 162.013 149.848 161.995 149.862C161.977 149.875 161.965 149.896 161.962 149.918ZM162.294 151.276H161.932C161.927 151.276 161.922 151.274 161.917 151.272C161.913 151.27 161.909 151.267 161.905 151.263C161.902 151.259 161.9 151.254 161.898 151.249C161.897 151.245 161.897 151.24 161.897 151.234L162.077 150.114C162.079 150.107 162.083 150.1 162.089 150.096C162.095 150.091 162.103 150.088 162.11 150.088C162.118 150.088 162.125 150.091 162.132 150.096C162.138 150.1 162.142 150.107 162.144 150.114L162.324 151.234C162.325 151.239 162.325 151.244 162.325 151.249C162.324 151.254 162.322 151.259 162.319 151.263C162.316 151.267 162.312 151.27 162.308 151.272C162.304 151.275 162.299 151.276 162.294 151.276Z" fill="#6654A4"/>
<path d="M162.531 149.919L162.035 150.044C162.024 150.047 162.012 150.048 162.001 150.046C161.989 150.044 161.978 150.04 161.968 150.034C161.958 150.028 161.95 150.02 161.943 150.011C161.936 150.001 161.931 149.991 161.929 149.979V149.952C161.926 149.94 161.925 149.929 161.926 149.917C161.928 149.906 161.932 149.895 161.938 149.885C161.943 149.875 161.951 149.867 161.96 149.86C161.97 149.853 161.98 149.848 161.991 149.845L162.487 149.721C162.509 149.716 162.533 149.72 162.552 149.731C162.572 149.743 162.586 149.761 162.593 149.783V149.813C162.599 149.835 162.595 149.859 162.584 149.879C162.572 149.899 162.553 149.913 162.531 149.919Z" fill="#6654A4"/>
<path d="M137.578 157.135C129.988 156.644 125.88 153.446 125.806 153.179C125.557 152.289 126.009 149.896 126.899 149.645C126.954 149.628 131.182 154.013 137.753 154.437L137.578 157.135Z" fill="#968AC2"/>
<path d="M129.558 117.919L122.188 119.879L126.144 134.757L133.514 132.798L129.558 117.919Z" fill="#92E3A9"/>
<path opacity="0.5" d="M129.581 117.955L122.215 119.928L126.159 134.831L133.523 132.859L129.581 117.955ZM126.565 134.077L122.941 120.334L129.166 118.681L132.817 132.424L126.565 134.077Z" fill="black"/>
<path opacity="0.5" d="M131.581 131.874L131.088 130.048C131.074 130 131.07 129.951 131.076 129.902C131.082 129.853 131.097 129.806 131.121 129.763C131.146 129.72 131.178 129.682 131.217 129.652C131.256 129.622 131.301 129.599 131.348 129.587C131.396 129.573 131.445 129.569 131.494 129.575C131.543 129.581 131.59 129.596 131.633 129.62C131.676 129.645 131.714 129.677 131.744 129.716C131.774 129.755 131.797 129.8 131.809 129.847L132.303 131.673C132.329 131.769 132.316 131.871 132.267 131.957C132.219 132.044 132.138 132.107 132.042 132.134C131.995 132.147 131.945 132.151 131.896 132.145C131.847 132.139 131.8 132.124 131.757 132.1C131.715 132.076 131.677 132.043 131.647 132.004C131.616 131.966 131.594 131.921 131.581 131.874Z" fill="black"/>
<path opacity="0.5" d="M123.906 122.907L123.413 121.082C123.399 121.034 123.395 120.985 123.401 120.936C123.407 120.887 123.422 120.839 123.446 120.796C123.471 120.753 123.503 120.716 123.542 120.686C123.581 120.655 123.626 120.633 123.673 120.62C123.721 120.607 123.77 120.602 123.82 120.608C123.869 120.613 123.916 120.629 123.959 120.653C124.002 120.677 124.04 120.71 124.07 120.749C124.1 120.788 124.122 120.833 124.134 120.881L124.628 122.707C124.641 122.754 124.645 122.804 124.64 122.853C124.634 122.902 124.619 122.949 124.594 122.992C124.57 123.035 124.537 123.073 124.498 123.103C124.46 123.133 124.415 123.155 124.367 123.168C124.32 123.185 124.27 123.191 124.22 123.187C124.17 123.183 124.121 123.168 124.077 123.143C124.034 123.118 123.996 123.084 123.966 123.044C123.937 123.003 123.916 122.957 123.906 122.907Z" fill="black"/>
<path d="M132.073 113.492C132.214 113.259 132.282 112.988 132.27 112.716C132.258 112.443 132.165 112.18 132.004 111.96C131.843 111.74 131.62 111.573 131.364 111.479C131.108 111.385 130.829 111.369 130.564 111.433C130.299 111.497 130.058 111.638 129.873 111.838C129.688 112.038 129.566 112.289 129.522 112.558C129.479 112.828 129.516 113.104 129.63 113.352C129.743 113.6 129.927 113.809 130.159 113.953C130.315 114.05 130.488 114.114 130.669 114.143C130.849 114.173 131.034 114.165 131.212 114.123C131.39 114.08 131.558 114.002 131.706 113.894C131.853 113.785 131.978 113.649 132.073 113.492Z" fill="#FFBC31"/>
<path d="M129.558 117.919L122.188 119.879L126.144 134.757L133.514 132.798L129.558 117.919Z" stroke="#263238" stroke-width="0.4" stroke-linecap="round" stroke-linejoin="round"/>
<path d="M125.792 127.262C125.972 127.689 126.275 128.053 126.663 128.307C127.05 128.562 127.505 128.696 127.968 128.693C128.432 128.69 128.884 128.549 129.268 128.288C129.651 128.028 129.949 127.66 130.124 127.23C130.298 126.801 130.341 126.329 130.247 125.875C130.154 125.421 129.927 125.005 129.597 124.679C129.267 124.353 128.848 124.133 128.392 124.046C127.937 123.959 127.466 124.008 127.039 124.189C126.468 124.433 126.016 124.893 125.782 125.468C125.549 126.044 125.552 126.689 125.792 127.262Z" fill="#5E936D"/>
<path d="M127.445 127.669C127.387 127.683 127.326 127.676 127.273 127.649C127.22 127.623 127.177 127.578 127.154 127.523L126.836 126.77C126.987 126.913 127.18 127.005 127.387 127.03L127.532 127.35C127.551 127.406 127.553 127.466 127.537 127.523C127.522 127.58 127.489 127.631 127.445 127.669Z" fill="#92E3A9"/>
<path d="M128.46 127.581C128.403 127.594 128.342 127.588 128.289 127.562C128.236 127.535 128.194 127.492 128.17 127.438L127.997 127.03C128.066 127.016 128.134 126.996 128.2 126.972C128.258 126.944 128.288 126.914 128.345 126.887L128.518 127.262C128.539 127.286 128.555 127.313 128.564 127.343C128.572 127.373 128.574 127.405 128.568 127.436C128.563 127.467 128.55 127.496 128.531 127.521C128.513 127.546 128.488 127.566 128.46 127.581Z" fill="#92E3A9"/>
<path d="M129.503 127.378C129.445 127.393 129.384 127.386 129.331 127.359C129.278 127.332 129.236 127.288 129.213 127.233L128.895 126.509C129.008 126.357 129.078 126.177 129.097 125.988L129.558 127.06C129.558 127.09 129.588 127.118 129.588 127.148V127.176C129.59 127.191 129.589 127.208 129.584 127.223C129.578 127.238 129.57 127.252 129.558 127.263C129.588 127.321 129.558 127.351 129.501 127.378H129.503Z" fill="#92E3A9"/>
<path d="M127.446 125.463L127.127 125.609C127.075 125.508 127.017 125.411 126.952 125.318C127.053 125.241 127.16 125.173 127.273 125.115L127.446 125.463Z" fill="#92E3A9"/>
<path d="M127.938 126.623C127.762 126.693 127.569 126.703 127.387 126.653V126.365C127.526 126.341 127.662 126.302 127.792 126.25L127.938 126.623Z" fill="#92E3A9"/>
<path d="M128.169 126.537L128.026 126.189C128.147 126.132 128.263 126.064 128.372 125.986C128.426 126.067 128.496 126.136 128.577 126.189C128.477 126.341 128.335 126.462 128.169 126.537Z" fill="#92E3A9"/>
<path d="M126.954 125.725L126.521 125.901C126.516 125.86 126.526 125.819 126.548 125.785C126.58 125.707 126.629 125.637 126.693 125.582L126.809 125.465C126.839 125.522 126.906 125.61 126.954 125.725Z" fill="#92E3A9"/>
<path d="M128.691 125.958L128.516 125.785C128.576 125.755 128.603 125.698 128.661 125.64C128.697 125.607 128.727 125.567 128.748 125.522C128.748 125.519 128.749 125.515 128.751 125.511C128.752 125.508 128.755 125.505 128.757 125.502C128.76 125.499 128.764 125.497 128.767 125.496C128.771 125.495 128.775 125.494 128.778 125.495L128.806 125.465V125.695C128.806 125.723 128.778 125.753 128.778 125.811C128.778 125.868 128.748 125.868 128.748 125.898C128.748 125.928 128.719 125.958 128.691 125.958Z" fill="#92E3A9"/>
<path d="M127.097 126.189H126.924C126.844 126.186 126.765 126.167 126.693 126.131C126.663 126.101 126.635 126.101 126.605 126.071L127.041 125.898C127.046 125.997 127.065 126.095 127.097 126.189Z" fill="#92E3A9"/>
<path d="M126.441 125.609V125.464C126.446 125.375 126.466 125.287 126.499 125.204C126.499 125.2 126.5 125.196 126.501 125.192C126.503 125.189 126.505 125.186 126.508 125.183C126.511 125.181 126.514 125.179 126.518 125.177C126.521 125.176 126.525 125.176 126.529 125.176C126.536 125.176 126.543 125.179 126.549 125.184C126.554 125.189 126.557 125.196 126.557 125.204L126.702 125.349C126.644 125.379 126.614 125.436 126.557 125.494C126.517 125.494 126.458 125.552 126.441 125.609Z" fill="#92E3A9"/>
<path d="M128.637 125.002L128.201 125.177C128.171 125.09 128.143 124.972 128.113 124.887H128.288C128.369 124.888 128.448 124.908 128.519 124.944C128.579 124.984 128.607 124.984 128.637 125.002Z" fill="#92E3A9"/>
<path d="M127.999 125.262L127.68 125.407L127.535 125.059C127.654 125.003 127.781 124.964 127.911 124.943C127.916 125.055 127.946 125.163 127.999 125.262Z" fill="#92E3A9"/>
<path d="M127.706 126.045C127.586 126.101 127.46 126.14 127.33 126.161C127.3 126.045 127.272 125.93 127.242 125.843L127.56 125.697L127.706 126.045Z" fill="#92E3A9"/>
<path d="M127.156 126.623H127.135C127.077 126.595 126.99 126.565 126.932 126.538C126.867 126.498 126.808 126.45 126.757 126.393C126.787 126.393 126.787 126.393 126.814 126.42C126.865 126.416 126.915 126.426 126.96 126.45H127.163L127.156 126.623Z" fill="#92E3A9"/>
<path d="M128.492 124.753C128.427 124.728 128.358 124.718 128.289 124.723H128.086V124.492H128.144C128.272 124.561 128.39 124.648 128.492 124.753Z" fill="#92E3A9"/>
<path d="M127.911 125.958L127.766 125.61L128.086 125.465C128.137 125.565 128.195 125.663 128.259 125.755C128.15 125.834 128.033 125.902 127.911 125.958Z" fill="#92E3A9"/>
<path d="M128.43 125.639C128.37 125.559 128.321 125.471 128.285 125.378L128.719 125.203C128.723 125.244 128.713 125.284 128.691 125.318C128.659 125.397 128.61 125.466 128.546 125.521C128.516 125.551 128.488 125.609 128.43 125.639Z" fill="#92E3A9"/>
<path d="M131.364 118.94L124.614 120.512L127.788 134.138L134.537 132.567L131.364 118.94Z" fill="#92E3A9"/>
<path opacity="0.5" d="M131.392 118.924L124.646 120.508L127.81 134.158L134.555 132.574L131.392 118.924ZM128.199 133.485L125.294 120.897L131.002 119.572L133.935 132.159L128.199 133.485Z" fill="black"/>
<path opacity="0.5" d="M132.82 131.623L132.423 129.951C132.412 129.908 132.409 129.862 132.416 129.818C132.422 129.773 132.437 129.73 132.46 129.691C132.484 129.653 132.514 129.619 132.551 129.592C132.587 129.566 132.628 129.547 132.672 129.536C132.716 129.525 132.761 129.522 132.806 129.529C132.851 129.536 132.894 129.551 132.932 129.574C132.971 129.598 133.005 129.629 133.031 129.665C133.058 129.702 133.077 129.743 133.087 129.787L133.484 131.459C133.495 131.503 133.497 131.548 133.491 131.593C133.484 131.638 133.469 131.681 133.445 131.719C133.422 131.758 133.391 131.792 133.354 131.818C133.318 131.845 133.276 131.864 133.232 131.874C133.189 131.885 133.143 131.887 133.099 131.88C133.054 131.874 133.012 131.858 132.973 131.835C132.935 131.811 132.901 131.78 132.875 131.744C132.849 131.708 132.83 131.666 132.82 131.623Z" fill="black"/>
<path opacity="0.5" d="M126.091 123.269L125.697 121.597C125.685 121.554 125.683 121.508 125.689 121.463C125.695 121.419 125.71 121.376 125.734 121.337C125.757 121.298 125.788 121.264 125.824 121.238C125.861 121.211 125.902 121.192 125.946 121.182C125.99 121.171 126.035 121.169 126.08 121.176C126.124 121.182 126.167 121.198 126.206 121.221C126.245 121.245 126.278 121.275 126.305 121.312C126.331 121.348 126.35 121.39 126.361 121.433L126.757 123.105C126.769 123.149 126.771 123.194 126.765 123.239C126.758 123.284 126.743 123.327 126.719 123.365C126.696 123.404 126.665 123.438 126.628 123.464C126.592 123.491 126.55 123.51 126.506 123.52C126.462 123.534 126.416 123.539 126.37 123.533C126.325 123.528 126.281 123.513 126.241 123.489C126.202 123.465 126.168 123.433 126.142 123.395C126.116 123.357 126.099 123.314 126.091 123.269Z" fill="black"/>
<path d="M133.784 114.938C133.921 114.729 133.993 114.483 133.99 114.233C133.988 113.982 133.911 113.738 133.769 113.531C133.628 113.325 133.428 113.165 133.196 113.071C132.963 112.978 132.709 112.956 132.464 113.008C132.219 113.059 131.994 113.183 131.819 113.362C131.644 113.541 131.526 113.768 131.48 114.014C131.435 114.26 131.463 114.514 131.561 114.745C131.66 114.975 131.825 115.171 132.035 115.307C132.173 115.399 132.329 115.462 132.492 115.493C132.656 115.524 132.824 115.523 132.987 115.488C133.149 115.454 133.304 115.388 133.441 115.293C133.578 115.199 133.694 115.078 133.784 114.938Z" fill="#FFBC31"/>
<path d="M131.364 118.94L124.614 120.512L127.788 134.138L134.537 132.567L131.364 118.94Z" stroke="#263238" stroke-width="0.4" stroke-linecap="round" stroke-linejoin="round"/>
<path d="M127.687 127.272C127.841 127.664 128.107 128.001 128.452 128.241C128.797 128.482 129.206 128.615 129.627 128.623C130.047 128.632 130.461 128.515 130.816 128.289C131.17 128.063 131.45 127.736 131.62 127.351C131.789 126.966 131.841 126.54 131.768 126.125C131.695 125.711 131.501 125.327 131.211 125.023C130.92 124.719 130.546 124.507 130.136 124.415C129.725 124.323 129.297 124.354 128.904 124.506C128.377 124.712 127.952 125.119 127.724 125.637C127.496 126.156 127.483 126.744 127.687 127.272Z" fill="#5E936D"/>
<path d="M129.177 127.686C129.124 127.697 129.069 127.689 129.022 127.663C128.974 127.637 128.937 127.595 128.917 127.545L128.649 126.854C128.783 126.989 128.955 127.077 129.143 127.107L129.265 127.4C129.281 127.451 129.282 127.506 129.266 127.558C129.25 127.609 129.219 127.655 129.177 127.688V127.686Z" fill="#92E3A9"/>
<path d="M130.101 127.636C130.048 127.647 129.993 127.639 129.945 127.613C129.898 127.588 129.861 127.546 129.841 127.496L129.695 127.122C129.758 127.111 129.819 127.096 129.88 127.076C129.935 127.051 129.96 127.025 130.016 127L130.161 127.348C130.179 127.37 130.192 127.395 130.199 127.423C130.206 127.45 130.207 127.479 130.201 127.507C130.196 127.535 130.184 127.561 130.166 127.583C130.149 127.606 130.127 127.624 130.101 127.636Z" fill="#92E3A9"/>
<path d="M131.054 127.481C131.001 127.492 130.945 127.484 130.898 127.458C130.85 127.433 130.813 127.391 130.793 127.341L130.523 126.672C130.632 126.54 130.701 126.38 130.724 126.211L131.114 127.2C131.114 127.225 131.139 127.253 131.139 127.278V127.306C131.141 127.32 131.139 127.335 131.134 127.348C131.13 127.362 131.122 127.374 131.111 127.384C131.134 127.437 131.111 127.463 131.056 127.488L131.054 127.481Z" fill="#92E3A9"/>
<path d="M129.238 125.686L128.943 125.808C128.9 125.715 128.85 125.624 128.793 125.538C128.886 125.472 128.985 125.414 129.088 125.363L129.238 125.686Z" fill="#92E3A9"/>
<path d="M129.654 126.752C129.491 126.805 129.315 126.805 129.151 126.752V126.489C129.278 126.469 129.402 126.438 129.523 126.395L129.654 126.752Z" fill="#92E3A9"/>
<path d="M129.864 126.679L129.742 126.359C129.855 126.311 129.963 126.253 130.065 126.184C130.11 126.259 130.171 126.324 130.242 126.375C130.148 126.51 130.017 126.616 129.864 126.679Z" fill="#92E3A9"/>
<path d="M128.783 125.904L128.384 126.051C128.381 126.014 128.392 125.976 128.414 125.945C128.444 125.875 128.491 125.813 128.55 125.766L128.659 125.664C128.684 125.719 128.735 125.8 128.783 125.904Z" fill="#92E3A9"/>
<path d="M130.363 126.168L130.211 126.004C130.264 125.981 130.292 125.928 130.345 125.877C130.379 125.848 130.407 125.813 130.428 125.773C130.428 125.77 130.428 125.766 130.43 125.763C130.431 125.76 130.433 125.757 130.436 125.755C130.438 125.752 130.442 125.75 130.445 125.749C130.448 125.748 130.452 125.748 130.455 125.748L130.483 125.723V125.935C130.483 125.96 130.455 125.985 130.453 126.038C130.451 126.092 130.425 126.089 130.425 126.117C130.425 126.145 130.384 126.168 130.363 126.168Z" fill="#92E3A9"/>
<path d="M128.902 126.333H128.743C128.67 126.329 128.599 126.308 128.535 126.273C128.508 126.245 128.482 126.245 128.457 126.218L128.856 126.072C128.858 126.161 128.874 126.249 128.902 126.333Z" fill="#92E3A9"/>
<path d="M128.313 125.786V125.655C128.321 125.575 128.341 125.497 128.373 125.424C128.375 125.418 128.379 125.413 128.383 125.41C128.388 125.406 128.394 125.404 128.4 125.404C128.406 125.404 128.412 125.406 128.416 125.41C128.421 125.413 128.425 125.418 128.426 125.424L128.553 125.56C128.5 125.583 128.473 125.636 128.417 125.687C128.396 125.685 128.341 125.735 128.313 125.786Z" fill="#92E3A9"/>
<path d="M130.334 125.296L129.932 125.441C129.909 125.363 129.886 125.256 129.863 125.176H130.02C130.093 125.18 130.165 125.201 130.23 125.236C130.281 125.268 130.308 125.268 130.334 125.296Z" fill="#92E3A9"/>
<path d="M129.743 125.515L129.45 125.637L129.328 125.319C129.438 125.27 129.555 125.238 129.674 125.225C129.676 125.325 129.699 125.424 129.743 125.515Z" fill="#92E3A9"/>
<path d="M129.458 126.217C129.348 126.266 129.232 126.298 129.112 126.311C129.089 126.205 129.066 126.099 129.043 126.021L129.338 125.896L129.458 126.217Z" fill="#92E3A9"/>
<path d="M128.944 126.729H128.919C128.866 126.699 128.787 126.672 128.736 126.644C128.678 126.606 128.626 126.561 128.582 126.508C128.61 126.508 128.61 126.508 128.635 126.535C128.68 126.533 128.725 126.543 128.764 126.565H128.949C128.949 126.595 128.946 126.676 128.944 126.729Z" fill="#92E3A9"/>
<path d="M130.209 125.055C130.151 125.029 130.087 125.018 130.024 125.022H129.84V124.812H129.893C130.011 124.875 130.117 124.957 130.209 125.055Z" fill="#92E3A9"/>
<path d="M129.643 126.134L129.523 125.816L129.816 125.691C129.86 125.784 129.91 125.875 129.966 125.961C129.864 126.029 129.756 126.087 129.643 126.134Z" fill="#92E3A9"/>
<path d="M130.131 125.87C130.079 125.795 130.037 125.714 130.007 125.628L130.408 125.482C130.408 125.51 130.408 125.563 130.378 125.588C130.348 125.659 130.3 125.721 130.24 125.768C130.21 125.794 130.182 125.844 130.131 125.87Z" fill="#92E3A9"/>
<path d="M135.432 117.894L128.641 119.35L131.579 133.061L138.37 131.606L135.432 117.894Z" fill="#92E3A9"/>
<path opacity="0.5" d="M134.265 119.301L127.489 120.742L130.366 134.454L137.142 133.013L134.265 119.301ZM130.768 133.79L128.128 121.145L133.864 119.939L136.529 132.589L130.768 133.79Z" fill="black"/>
<path opacity="0.5" d="M135.423 132.028L135.061 130.347C135.051 130.303 135.049 130.258 135.056 130.213C135.064 130.169 135.08 130.127 135.104 130.088C135.128 130.05 135.159 130.018 135.196 129.992C135.233 129.966 135.275 129.948 135.319 129.939C135.363 129.929 135.409 129.927 135.453 129.934C135.498 129.942 135.541 129.958 135.579 129.982C135.617 130.006 135.65 130.037 135.676 130.074C135.702 130.111 135.72 130.153 135.73 130.197L136.089 131.878C136.1 131.922 136.101 131.967 136.094 132.012C136.087 132.056 136.071 132.098 136.046 132.136C136.022 132.175 135.991 132.207 135.954 132.233C135.917 132.259 135.875 132.277 135.831 132.286C135.787 132.296 135.742 132.298 135.697 132.291C135.653 132.283 135.611 132.267 135.572 132.243C135.534 132.219 135.502 132.188 135.476 132.151C135.45 132.114 135.432 132.072 135.423 132.028Z" fill="black"/>
<path opacity="0.5" d="M128.874 123.532L128.514 121.851C128.504 121.807 128.502 121.762 128.509 121.717C128.517 121.673 128.533 121.63 128.557 121.592C128.581 121.554 128.613 121.521 128.65 121.496C128.687 121.47 128.728 121.452 128.772 121.443C128.816 121.432 128.862 121.431 128.906 121.438C128.95 121.445 128.993 121.462 129.031 121.486C129.069 121.51 129.102 121.541 129.128 121.578C129.153 121.615 129.171 121.657 129.18 121.701L129.542 123.382C129.553 123.426 129.555 123.471 129.547 123.516C129.54 123.56 129.524 123.603 129.5 123.641C129.476 123.68 129.444 123.713 129.407 123.738C129.37 123.764 129.328 123.783 129.284 123.792C129.24 123.806 129.194 123.809 129.148 123.803C129.102 123.797 129.058 123.781 129.019 123.756C128.98 123.731 128.947 123.698 128.922 123.66C128.897 123.621 128.88 123.577 128.874 123.532Z" fill="black"/>
<path d="M136.741 115.366C136.882 115.159 136.959 114.915 136.961 114.665C136.963 114.414 136.892 114.169 136.755 113.96C136.617 113.75 136.421 113.586 136.191 113.488C135.961 113.39 135.707 113.362 135.461 113.409C135.215 113.455 134.988 113.573 134.809 113.749C134.631 113.924 134.508 114.148 134.457 114.393C134.405 114.638 134.428 114.893 134.521 115.125C134.615 115.357 134.775 115.557 134.982 115.698C135.119 115.792 135.273 115.859 135.436 115.893C135.599 115.928 135.767 115.93 135.931 115.899C136.094 115.868 136.25 115.805 136.389 115.714C136.528 115.622 136.648 115.504 136.741 115.366Z" fill="#FFBC31"/>
<path d="M135.432 117.894L128.641 119.35L131.579 133.061L138.37 131.606L135.432 117.894Z" stroke="#263238" stroke-width="0.400899" stroke-linecap="round" stroke-linejoin="round"/>
<path d="M130.383 127.569C130.527 127.965 130.784 128.311 131.124 128.561C131.464 128.811 131.87 128.955 132.292 128.974C132.713 128.993 133.131 128.886 133.492 128.668C133.853 128.45 134.141 128.129 134.32 127.747C134.499 127.365 134.56 126.938 134.496 126.521C134.433 126.104 134.247 125.716 133.962 125.404C133.677 125.093 133.307 124.873 132.897 124.772C132.487 124.672 132.057 124.695 131.66 124.839C131.13 125.034 130.699 125.43 130.459 125.941C130.22 126.452 130.193 127.037 130.383 127.569Z" fill="#5E936D"/>
<path d="M131.861 128.017C131.808 128.026 131.754 128.017 131.707 127.99C131.66 127.964 131.624 127.922 131.605 127.871L131.352 127.18C131.481 127.317 131.652 127.409 131.838 127.442L131.956 127.74C131.971 127.792 131.97 127.846 131.953 127.898C131.936 127.949 131.904 127.993 131.861 128.026V128.017Z" fill="#92E3A9"/>
<path d="M132.789 127.98C132.736 127.989 132.681 127.98 132.635 127.954C132.588 127.927 132.552 127.885 132.533 127.835L132.395 127.459C132.475 127.436 132.528 127.438 132.581 127.415C132.634 127.392 132.664 127.367 132.717 127.344L132.858 127.694C132.875 127.716 132.888 127.742 132.894 127.77C132.9 127.798 132.9 127.826 132.893 127.854C132.886 127.881 132.873 127.907 132.855 127.929C132.837 127.951 132.815 127.968 132.789 127.98Z" fill="#92E3A9"/>
<path d="M133.746 127.85C133.693 127.86 133.638 127.851 133.591 127.824C133.543 127.798 133.507 127.755 133.488 127.705L133.234 127.031C133.344 126.899 133.416 126.74 133.442 126.57L133.813 127.566C133.813 127.594 133.836 127.622 133.836 127.647V127.675C133.837 127.689 133.834 127.703 133.829 127.716C133.824 127.729 133.816 127.741 133.806 127.751C133.829 127.806 133.806 127.829 133.748 127.854L133.746 127.85Z" fill="#92E3A9"/>
<path d="M131.976 126.014L131.681 126.132C131.639 126.038 131.59 125.947 131.536 125.86C131.63 125.794 131.731 125.737 131.836 125.691L131.976 126.014Z" fill="#92E3A9"/>
<path d="M132.361 127.091C132.198 127.144 132.022 127.144 131.858 127.091L131.872 126.828C131.999 126.811 132.124 126.781 132.246 126.74L132.361 127.091Z" fill="#92E3A9"/>
<path d="M132.575 127.022L132.46 126.699C132.573 126.654 132.682 126.598 132.785 126.533C132.829 126.609 132.889 126.675 132.96 126.727C132.862 126.859 132.729 126.962 132.575 127.022Z" fill="#92E3A9"/>
<path d="M131.513 126.229L131.109 126.365C131.108 126.328 131.12 126.291 131.142 126.261C131.174 126.192 131.222 126.131 131.282 126.084L131.393 125.984C131.409 126.037 131.458 126.12 131.513 126.229Z" fill="#92E3A9"/>
<path d="M133.076 126.523L132.926 126.357C132.981 126.331 133.009 126.281 133.064 126.232C133.098 126.203 133.127 126.169 133.149 126.131C133.149 126.127 133.15 126.124 133.152 126.121C133.153 126.117 133.155 126.114 133.158 126.112C133.16 126.11 133.163 126.108 133.167 126.107C133.17 126.106 133.174 126.105 133.177 126.105L133.205 126.08V126.29C133.205 126.318 133.175 126.343 133.172 126.394C133.17 126.444 133.145 126.447 133.143 126.472C133.14 126.497 133.101 126.523 133.076 126.523Z" fill="#92E3A9"/>
<path d="M131.618 126.657H131.459C131.386 126.651 131.315 126.629 131.252 126.592C131.226 126.564 131.201 126.564 131.176 126.537L131.579 126.398C131.58 126.486 131.593 126.573 131.618 126.657Z" fill="#92E3A9"/>
<path d="M131.04 126.098V125.967C131.05 125.887 131.071 125.81 131.105 125.736C131.105 125.736 131.105 125.709 131.132 125.711C131.139 125.712 131.146 125.715 131.15 125.72C131.155 125.725 131.158 125.732 131.158 125.739L131.282 125.877C131.229 125.9 131.199 125.951 131.144 126.002C131.123 125.997 131.068 126.048 131.04 126.098Z" fill="#92E3A9"/>
<path d="M133.069 125.651L132.665 125.787C132.642 125.709 132.621 125.6 132.601 125.52H132.757C132.831 125.525 132.902 125.547 132.965 125.584C133.018 125.621 133.043 125.623 133.069 125.651Z" fill="#92E3A9"/>
<path d="M132.476 125.855L132.181 125.973L132.065 125.65C132.177 125.606 132.294 125.577 132.414 125.562C132.413 125.663 132.434 125.763 132.476 125.855Z" fill="#92E3A9"/>
<path d="M132.176 126.553C132.064 126.597 131.947 126.627 131.828 126.641C131.807 126.532 131.786 126.426 131.766 126.346L132.061 126.23L132.176 126.553Z" fill="#92E3A9"/>
<path d="M131.65 127.056H131.625C131.574 127.029 131.496 126.996 131.445 126.969C131.388 126.929 131.337 126.882 131.293 126.828C131.321 126.828 131.321 126.828 131.346 126.858C131.391 126.856 131.436 126.867 131.475 126.89H131.66C131.657 126.923 131.655 127.001 131.65 127.056Z" fill="#92E3A9"/>
<path d="M132.95 125.406C132.892 125.383 132.83 125.371 132.767 125.372L132.583 125.36V125.15H132.636C132.754 125.218 132.86 125.304 132.95 125.406Z" fill="#92E3A9"/>
<path d="M132.365 126.485L132.25 126.162L132.545 126.045C132.588 126.138 132.637 126.229 132.69 126.317C132.587 126.383 132.479 126.439 132.365 126.485Z" fill="#92E3A9"/>
<path d="M132.854 126.22C132.805 126.144 132.764 126.062 132.734 125.976L133.138 125.84C133.139 125.877 133.128 125.914 133.106 125.944C133.073 126.013 133.025 126.074 132.965 126.121C132.937 126.135 132.898 126.197 132.854 126.22Z" fill="#92E3A9"/>
<path d="M158.974 133.906C156.348 133.279 134.636 127.709 133.875 127.274L132.361 128.535C131.201 129.502 129.865 130.234 128.425 130.69C128.324 130.72 128.229 130.75 128.142 130.773C127.22 131.027 126.807 130.176 126.323 129.895C125.839 129.614 126.002 128.258 125.938 127.576C125.825 126.404 124.455 126.4 123.902 127.37C123.349 128.341 123.734 130.264 123.734 130.264C123.734 130.264 123.164 130.905 123.134 131.474C123.104 132.043 123.492 132.795 123.492 132.795C123.492 132.795 123.234 134.024 123.586 134.639C123.939 135.255 126.353 136.76 126.973 137.115C127.593 137.47 131.607 135.949 133.578 135.868C136.623 135.744 168.802 148.624 171.135 144.301C173.671 139.601 163.898 135.087 158.974 133.906Z" fill="#EBB389"/>
<path d="M123.627 80.3605C123.731 80.4781 124.415 80.0078 125.368 80.0331C126.32 80.0585 127.002 80.5449 127.108 80.4319C127.161 80.3835 127.055 80.1761 126.758 79.9501C126.354 79.6594 125.872 79.4985 125.374 79.489C124.883 79.4766 124.399 79.6176 123.991 79.8925C123.671 80.1069 123.574 80.3098 123.627 80.3605Z" fill="#263238"/>
<path d="M132.611 80.6847C132.717 80.8 133.402 80.3297 134.351 80.3573C135.301 80.385 135.986 80.8668 136.092 80.7562C136.145 80.7055 136.041 80.498 135.742 80.2743C135.338 79.9833 134.856 79.8225 134.358 79.8133C133.867 79.8008 133.383 79.9418 132.975 80.2167C132.662 80.4311 132.558 80.6317 132.611 80.6847Z" fill="#263238"/>
<path d="M129.44 85.7044C128.943 85.5377 128.426 85.4332 127.903 85.3932C127.672 85.3609 127.442 85.3079 127.398 85.1442C127.384 84.8969 127.447 84.6513 127.578 84.4411L128.35 82.6429C129.427 80.0793 130.213 77.9699 130.107 77.9284C130.001 77.8869 129.044 79.9317 127.97 82.493C127.711 83.1247 127.462 83.7287 127.227 84.3051C127.065 84.5877 127.011 84.9191 127.073 85.2388C127.106 85.3242 127.158 85.401 127.225 85.4634C127.292 85.5257 127.372 85.5719 127.46 85.5984C127.594 85.638 127.733 85.6604 127.873 85.6653C128.392 85.744 128.918 85.7572 129.44 85.7044Z" fill="#263238"/>
<path d="M132.055 86.422C131.901 86.4082 131.869 87.4226 130.963 88.1211C130.057 88.8196 128.961 88.679 128.95 88.8127C128.934 88.875 129.181 89.0156 129.642 89.0432C130.245 89.0683 130.838 88.8824 131.32 88.5176C131.778 88.1703 132.083 87.6586 132.171 87.0906C132.233 86.671 132.127 86.4174 132.055 86.422Z" fill="#263238"/>
<path d="M132.729 77.2125C132.817 77.4707 133.771 77.3738 134.883 77.5329C135.994 77.692 136.888 78.0147 137.043 77.7911C137.112 77.6828 136.962 77.4407 136.605 77.1848C136.125 76.8705 135.581 76.668 135.012 76.5922C134.443 76.5164 133.865 76.5692 133.32 76.7468C132.898 76.8966 132.695 77.0926 132.729 77.2125Z" fill="#263238"/>
<path d="M124.174 76.0373C124.335 76.254 124.997 76.0488 125.787 76.058C126.578 76.0672 127.238 76.2401 127.401 76.0188C127.47 75.9128 127.374 75.6984 127.088 75.4909C126.701 75.2396 126.249 75.107 125.788 75.1094C125.326 75.1119 124.876 75.2493 124.492 75.5047C124.201 75.7145 124.105 75.9312 124.174 76.0373Z" fill="#263238"/>
<path d="M87.0958 109.602C87.0958 109.602 85.8555 107.988 86.6924 106.144C87.5292 104.3 89.7862 102.16 89.7862 102.16C90.4386 101.99 89.5741 98.241 89.1937 97.0145C88.8134 95.788 89.2421 95.101 89.9176 95.3708C90.3787 95.5529 91.6305 99.3153 91.9787 100.549C92.17 101.222 92.5227 102.543 92.9515 103.267C93.3089 103.866 93.7192 104.051 94.1319 103.112C95.054 101.037 96.5041 99.7833 97.1289 99.7164C97.7537 99.6496 98.051 100.505 97.5323 100.975C97.1128 101.353 96.6102 102.202 96.2436 102.856C95.9473 103.394 95.7424 103.976 95.6373 104.581C95.5474 105.102 95.4852 105.568 95.4367 105.987C95.4367 105.987 95.4367 111.58 95.6673 112.869L96.677 114.063L96.4672 122.065H95.2592L88.8641 112.765L89.1522 112.569L88.8825 112.693L87.0958 109.602Z" fill="#EBB389"/>
<path d="M89.2178 103.773C89.2368 103.893 89.2709 104.01 89.3192 104.121C89.4114 104.372 89.5221 104.681 89.6558 105.043C89.7895 105.405 89.9809 105.905 90.1722 106.41C90.2585 106.695 90.3901 106.963 90.5618 107.206C90.6743 107.337 90.8293 107.425 90.9998 107.455C91.0912 107.466 91.1841 107.454 91.2696 107.42C91.3551 107.386 91.4305 107.33 91.4886 107.259C91.6025 107.124 91.6675 106.955 91.673 106.779C91.6804 106.621 91.6665 106.463 91.6315 106.309C91.56 106.014 91.484 105.735 91.401 105.47C91.2465 104.94 91.0851 104.472 90.9399 104.087C90.7947 103.702 90.6563 103.395 90.5595 103.176C90.5181 103.062 90.4607 102.954 90.3889 102.855C90.4145 102.973 90.4515 103.088 90.4996 103.199C90.5802 103.418 90.6955 103.734 90.8292 104.121C90.963 104.508 91.1128 104.986 91.258 105.504C91.3318 105.769 91.4033 106.048 91.4701 106.337C91.5193 106.47 91.5361 106.613 91.5193 106.754C91.5024 106.895 91.4524 107.03 91.3733 107.148C91.3336 107.2 91.2809 107.24 91.2205 107.265C91.1602 107.289 91.0944 107.298 91.0298 107.289C90.8976 107.266 90.7777 107.197 90.6909 107.095C90.5308 106.868 90.4064 106.618 90.322 106.353L89.7734 104.997C89.6212 104.64 89.4921 104.338 89.3884 104.091C89.3436 103.979 89.2864 103.872 89.2178 103.773Z" fill="#BF654E"/>
<path d="M88.0078 105.155C88.0254 105.26 88.0556 105.363 88.0977 105.462C88.1646 105.653 88.2683 105.923 88.3974 106.271C88.5265 106.619 88.6833 107.016 88.8585 107.467C88.9489 107.721 89.1146 107.942 89.3334 108.099C89.4586 108.183 89.6066 108.228 89.7576 108.226C89.9171 108.216 90.0674 108.148 90.1795 108.034C90.2791 107.926 90.3538 107.797 90.3984 107.656C90.443 107.516 90.4564 107.367 90.4377 107.221C90.409 106.965 90.3573 106.711 90.2832 106.465C90.1694 106.05 90.0277 105.643 89.859 105.247C89.7161 104.911 89.5847 104.646 89.4879 104.463C89.4467 104.365 89.3907 104.273 89.3219 104.191C89.2988 104.191 89.4925 104.611 89.7507 105.291C89.9006 105.688 90.0299 106.093 90.138 106.504C90.2033 106.742 90.2496 106.986 90.2763 107.232C90.2944 107.356 90.2848 107.482 90.2481 107.602C90.2115 107.722 90.1486 107.831 90.0642 107.924C89.9797 108.007 89.8683 108.058 89.75 108.066C89.6316 108.074 89.5142 108.04 89.4187 107.97C89.2258 107.83 89.079 107.636 88.9968 107.412L88.4989 106.234C88.3559 105.9 88.236 105.63 88.1507 105.443C88.1173 105.341 88.0692 105.244 88.0078 105.155Z" fill="#BF654E"/>
<path d="M87.3438 106.562C87.3941 106.868 87.4712 107.169 87.5743 107.461C87.6619 107.738 87.7587 108.061 87.8832 108.427C87.9138 108.533 87.9652 108.631 88.0346 108.716C88.1039 108.801 88.1896 108.872 88.2866 108.923C88.3437 108.951 88.4059 108.967 88.4694 108.969C88.5329 108.972 88.5962 108.962 88.6555 108.939C88.7714 108.893 88.8704 108.813 88.9391 108.708C89.0476 108.503 89.0918 108.27 89.0659 108.04C89.0566 107.838 89.0312 107.636 88.9898 107.438C88.9192 107.103 88.8053 106.778 88.6509 106.472C88.5482 106.266 88.4246 106.072 88.282 105.891C88.1806 105.765 88.1137 105.705 88.1045 105.711C88.0953 105.718 88.312 106.004 88.5472 106.523C88.6809 106.826 88.7792 107.143 88.8399 107.468C88.8762 107.659 88.8978 107.853 88.9045 108.047C88.9266 108.243 88.8905 108.442 88.8007 108.619C88.76 108.7 88.6892 108.763 88.6032 108.793C88.5172 108.824 88.4228 108.82 88.3397 108.782C88.1823 108.695 88.0649 108.551 88.0123 108.379C87.8901 108.035 87.7818 107.717 87.6734 107.431C87.5907 107.132 87.4803 106.841 87.3438 106.562Z" fill="#BF654E"/>
</svg>
