<svg width="563" height="75" viewBox="0 0 563 75" fill="none" xmlns="http://www.w3.org/2000/svg">
<path d="M70.4033 36.3906C70.2627 37.5938 69.8174 38.5234 69.0674 39.1797C68.3226 39.8307 67.3304 40.1562 66.0908 40.1562C64.7471 40.1562 63.6689 39.6745 62.8564 38.7109C62.0492 37.7474 61.6455 36.4583 61.6455 34.8438V33.75C61.6455 32.6927 61.833 31.763 62.208 30.9609C62.5882 30.1589 63.1247 29.5443 63.8174 29.1172C64.5101 28.6849 65.3122 28.4688 66.2236 28.4688C67.432 28.4688 68.4007 28.8073 69.1299 29.4844C69.859 30.1562 70.2835 31.0885 70.4033 32.2812H68.8955C68.7653 31.375 68.4814 30.7188 68.0439 30.3125C67.6117 29.9062 67.0049 29.7031 66.2236 29.7031C65.2653 29.7031 64.5127 30.0573 63.9658 30.7656C63.4242 31.474 63.1533 32.4818 63.1533 33.7891V34.8906C63.1533 36.125 63.4111 37.1068 63.9268 37.8359C64.4424 38.5651 65.1637 38.9297 66.0908 38.9297C66.9242 38.9297 67.5622 38.7422 68.0049 38.3672C68.4528 37.987 68.7497 37.3281 68.8955 36.3906H70.4033ZM71.8486 35.6953C71.8486 34.8672 72.0101 34.1224 72.333 33.4609C72.6611 32.7995 73.1143 32.2891 73.6924 31.9297C74.2757 31.5703 74.9398 31.3906 75.6846 31.3906C76.8356 31.3906 77.7653 31.7891 78.4736 32.5859C79.1872 33.3828 79.5439 34.4427 79.5439 35.7656V35.8672C79.5439 36.6901 79.3851 37.4297 79.0674 38.0859C78.7549 38.737 78.3044 39.2448 77.7158 39.6094C77.1325 39.974 76.4606 40.1562 75.7002 40.1562C74.5544 40.1562 73.6247 39.7578 72.9111 38.9609C72.2028 38.1641 71.8486 37.1094 71.8486 35.7969V35.6953ZM73.3018 35.8672C73.3018 36.8047 73.5179 37.5573 73.9502 38.125C74.3877 38.6927 74.971 38.9766 75.7002 38.9766C76.4346 38.9766 77.0179 38.6901 77.4502 38.1172C77.8825 37.5391 78.0986 36.7318 78.0986 35.6953C78.0986 34.7682 77.8773 34.0182 77.4346 33.4453C76.9971 32.8672 76.4137 32.5781 75.6846 32.5781C74.971 32.5781 74.3955 32.862 73.958 33.4297C73.5205 33.9974 73.3018 34.8099 73.3018 35.8672ZM82.7236 31.5469L82.7705 32.6094C83.4163 31.7969 84.2601 31.3906 85.3018 31.3906C87.0882 31.3906 87.9893 32.3984 88.0049 34.4141V40H86.5596V34.4062C86.5544 33.7969 86.4137 33.3464 86.1377 33.0547C85.8669 32.763 85.4424 32.6172 84.8643 32.6172C84.3955 32.6172 83.984 32.7422 83.6299 32.9922C83.2757 33.2422 82.9997 33.5703 82.8018 33.9766V40H81.3564V31.5469H82.7236ZM95.1064 37.7578C95.1064 37.3672 94.958 37.0651 94.6611 36.8516C94.3695 36.6328 93.8564 36.4453 93.1221 36.2891C92.3929 36.1328 91.8122 35.9453 91.3799 35.7266C90.9528 35.5078 90.6351 35.2474 90.4268 34.9453C90.2236 34.6432 90.1221 34.2839 90.1221 33.8672C90.1221 33.1745 90.4137 32.5885 90.9971 32.1094C91.5856 31.6302 92.3356 31.3906 93.2471 31.3906C94.2054 31.3906 94.9814 31.638 95.5752 32.1328C96.1742 32.6276 96.4736 33.2604 96.4736 34.0312H95.0205C95.0205 33.6354 94.8512 33.2943 94.5127 33.0078C94.1794 32.7214 93.7575 32.5781 93.2471 32.5781C92.721 32.5781 92.3096 32.6927 92.0127 32.9219C91.7158 33.151 91.5674 33.4505 91.5674 33.8203C91.5674 34.1693 91.7054 34.4323 91.9814 34.6094C92.2575 34.7865 92.7549 34.9557 93.4736 35.1172C94.1976 35.2786 94.7835 35.4714 95.2314 35.6953C95.6794 35.9193 96.0101 36.1901 96.2236 36.5078C96.4424 36.8203 96.5518 37.2031 96.5518 37.6562C96.5518 38.4115 96.2497 39.0182 95.6455 39.4766C95.0413 39.9297 94.2575 40.1562 93.2939 40.1562C92.6169 40.1562 92.0179 40.0365 91.4971 39.7969C90.9762 39.5573 90.5674 39.224 90.2705 38.7969C89.9788 38.3646 89.833 37.8984 89.833 37.3984H91.2783C91.3044 37.8828 91.4971 38.2682 91.8564 38.5547C92.221 38.8359 92.7002 38.9766 93.2939 38.9766C93.8408 38.9766 94.2783 38.8672 94.6064 38.6484C94.9398 38.4245 95.1064 38.1276 95.1064 37.7578ZM103.653 39.1641C103.091 39.8255 102.265 40.1562 101.177 40.1562C100.276 40.1562 99.5882 39.8958 99.1143 39.375C98.6455 38.849 98.4085 38.0729 98.4033 37.0469V31.5469H99.8486V37.0078C99.8486 38.2891 100.369 38.9297 101.411 38.9297C102.515 38.9297 103.25 38.5182 103.614 37.6953V31.5469H105.06V40H103.685L103.653 39.1641ZM108.622 31.5469L108.661 32.4844C109.281 31.7552 110.117 31.3906 111.169 31.3906C112.351 31.3906 113.156 31.8438 113.583 32.75C113.864 32.3438 114.229 32.0156 114.677 31.7656C115.13 31.5156 115.664 31.3906 116.278 31.3906C118.132 31.3906 119.075 32.3724 119.106 34.3359V40H117.661V34.4219C117.661 33.8177 117.523 33.3672 117.247 33.0703C116.971 32.7682 116.507 32.6172 115.856 32.6172C115.32 32.6172 114.875 32.7786 114.521 33.1016C114.166 33.4193 113.961 33.849 113.903 34.3906V40H112.45V34.4609C112.45 33.2318 111.849 32.6172 110.646 32.6172C109.698 32.6172 109.049 33.0208 108.7 33.8281V40H107.255V31.5469H108.622ZM124.802 40.1562C123.656 40.1562 122.724 39.7812 122.005 39.0312C121.286 38.276 120.927 37.2682 120.927 36.0078V35.7422C120.927 34.9036 121.086 34.1562 121.403 33.5C121.726 32.8385 122.174 32.3229 122.747 31.9531C123.325 31.5781 123.95 31.3906 124.622 31.3906C125.721 31.3906 126.575 31.7526 127.185 32.4766C127.794 33.2005 128.099 34.237 128.099 35.5859V36.1875H122.372C122.393 37.0208 122.635 37.6953 123.099 38.2109C123.567 38.7214 124.161 38.9766 124.88 38.9766C125.39 38.9766 125.823 38.8724 126.177 38.6641C126.531 38.4557 126.841 38.1797 127.106 37.8359L127.989 38.5234C127.281 39.612 126.218 40.1562 124.802 40.1562ZM124.622 32.5781C124.039 32.5781 123.549 32.7917 123.153 33.2188C122.757 33.6406 122.513 34.2344 122.419 35H126.653V34.8906C126.612 34.1562 126.414 33.5885 126.06 33.1875C125.705 32.7812 125.226 32.5781 124.622 32.5781ZM133.864 32.8438C133.646 32.8073 133.409 32.7891 133.153 32.7891C132.205 32.7891 131.562 33.1927 131.224 34V40H129.778V31.5469H131.185L131.208 32.5234C131.682 31.7682 132.354 31.3906 133.224 31.3906C133.505 31.3906 133.718 31.4271 133.864 31.5V32.8438ZM146.653 38.0078L148.278 31.5469H149.724L147.263 40H146.091L144.036 33.5938L142.036 40H140.864L138.411 31.5469H139.849L141.513 37.875L143.481 31.5469H144.646L146.653 38.0078ZM152.771 40H151.325V31.5469H152.771V40ZM151.208 29.3047C151.208 29.0703 151.278 28.8724 151.419 28.7109C151.565 28.5495 151.778 28.4688 152.06 28.4688C152.341 28.4688 152.554 28.5495 152.7 28.7109C152.846 28.8724 152.919 29.0703 152.919 29.3047C152.919 29.5391 152.846 29.7344 152.7 29.8906C152.554 30.0469 152.341 30.125 152.06 30.125C151.778 30.125 151.565 30.0469 151.419 29.8906C151.278 29.7344 151.208 29.5391 151.208 29.3047ZM156.661 40H155.216V28H156.661V40ZM160.552 40H159.106V28H160.552V40ZM171.763 37.7578C171.763 37.3672 171.614 37.0651 171.317 36.8516C171.026 36.6328 170.513 36.4453 169.778 36.2891C169.049 36.1328 168.468 35.9453 168.036 35.7266C167.609 35.5078 167.291 35.2474 167.083 34.9453C166.88 34.6432 166.778 34.2839 166.778 33.8672C166.778 33.1745 167.07 32.5885 167.653 32.1094C168.242 31.6302 168.992 31.3906 169.903 31.3906C170.862 31.3906 171.638 31.638 172.231 32.1328C172.83 32.6276 173.13 33.2604 173.13 34.0312H171.677C171.677 33.6354 171.507 33.2943 171.169 33.0078C170.836 32.7214 170.414 32.5781 169.903 32.5781C169.377 32.5781 168.966 32.6927 168.669 32.9219C168.372 33.151 168.224 33.4505 168.224 33.8203C168.224 34.1693 168.362 34.4323 168.638 34.6094C168.914 34.7865 169.411 34.9557 170.13 35.1172C170.854 35.2786 171.44 35.4714 171.888 35.6953C172.336 35.9193 172.666 36.1901 172.88 36.5078C173.099 36.8203 173.208 37.2031 173.208 37.6562C173.208 38.4115 172.906 39.0182 172.302 39.4766C171.698 39.9297 170.914 40.1562 169.95 40.1562C169.273 40.1562 168.674 40.0365 168.153 39.7969C167.632 39.5573 167.224 39.224 166.927 38.7969C166.635 38.3646 166.489 37.8984 166.489 37.3984H167.935C167.961 37.8828 168.153 38.2682 168.513 38.5547C168.877 38.8359 169.356 38.9766 169.95 38.9766C170.497 38.9766 170.935 38.8672 171.263 38.6484C171.596 38.4245 171.763 38.1276 171.763 37.7578ZM178.599 40.1562C177.453 40.1562 176.521 39.7812 175.802 39.0312C175.083 38.276 174.724 37.2682 174.724 36.0078V35.7422C174.724 34.9036 174.882 34.1562 175.2 33.5C175.523 32.8385 175.971 32.3229 176.544 31.9531C177.122 31.5781 177.747 31.3906 178.419 31.3906C179.518 31.3906 180.372 31.7526 180.981 32.4766C181.591 33.2005 181.896 34.237 181.896 35.5859V36.1875H176.169C176.19 37.0208 176.432 37.6953 176.896 38.2109C177.364 38.7214 177.958 38.9766 178.677 38.9766C179.187 38.9766 179.619 38.8724 179.974 38.6641C180.328 38.4557 180.638 38.1797 180.903 37.8359L181.786 38.5234C181.078 39.612 180.015 40.1562 178.599 40.1562ZM178.419 32.5781C177.836 32.5781 177.346 32.7917 176.95 33.2188C176.554 33.6406 176.31 34.2344 176.216 35H180.45V34.8906C180.409 34.1562 180.211 33.5885 179.856 33.1875C179.502 32.7812 179.023 32.5781 178.419 32.5781ZM185.146 40H183.7V28H185.146V40ZM190.974 40.1562C189.828 40.1562 188.896 39.7812 188.177 39.0312C187.458 38.276 187.099 37.2682 187.099 36.0078V35.7422C187.099 34.9036 187.257 34.1562 187.575 33.5C187.898 32.8385 188.346 32.3229 188.919 31.9531C189.497 31.5781 190.122 31.3906 190.794 31.3906C191.893 31.3906 192.747 31.7526 193.356 32.4766C193.966 33.2005 194.271 34.237 194.271 35.5859V36.1875H188.544C188.565 37.0208 188.807 37.6953 189.271 38.2109C189.739 38.7214 190.333 38.9766 191.052 38.9766C191.562 38.9766 191.994 38.8724 192.349 38.6641C192.703 38.4557 193.013 38.1797 193.278 37.8359L194.161 38.5234C193.453 39.612 192.39 40.1562 190.974 40.1562ZM190.794 32.5781C190.211 32.5781 189.721 32.7917 189.325 33.2188C188.929 33.6406 188.685 34.2344 188.591 35H192.825V34.8906C192.784 34.1562 192.586 33.5885 192.231 33.1875C191.877 32.7812 191.398 32.5781 190.794 32.5781ZM199.341 38.9766C199.856 38.9766 200.307 38.8203 200.692 38.5078C201.078 38.1953 201.291 37.8047 201.333 37.3359H202.7C202.674 37.8203 202.507 38.2812 202.2 38.7188C201.893 39.1562 201.481 39.5052 200.966 39.7656C200.455 40.026 199.914 40.1562 199.341 40.1562C198.19 40.1562 197.273 39.7734 196.591 39.0078C195.914 38.237 195.575 37.1849 195.575 35.8516V35.6094C195.575 34.7865 195.726 34.0547 196.028 33.4141C196.33 32.7734 196.763 32.276 197.325 31.9219C197.893 31.5677 198.562 31.3906 199.333 31.3906C200.281 31.3906 201.067 31.6745 201.692 32.2422C202.323 32.8099 202.659 33.5469 202.7 34.4531H201.333C201.291 33.9062 201.083 33.4583 200.708 33.1094C200.338 32.7552 199.88 32.5781 199.333 32.5781C198.599 32.5781 198.028 32.8438 197.622 33.375C197.221 33.901 197.021 34.6641 197.021 35.6641V35.9375C197.021 36.9115 197.221 37.6615 197.622 38.1875C198.023 38.7135 198.596 38.9766 199.341 38.9766ZM206.286 29.5V31.5469H207.864V32.6641H206.286V37.9062C206.286 38.2448 206.356 38.5 206.497 38.6719C206.638 38.8385 206.877 38.9219 207.216 38.9219C207.382 38.9219 207.612 38.8906 207.903 38.8281V40C207.523 40.1042 207.153 40.1562 206.794 40.1562C206.148 40.1562 205.661 39.9609 205.333 39.5703C205.005 39.1797 204.841 38.625 204.841 37.9062V32.6641H203.302V31.5469H204.841V29.5H206.286ZM215.489 29.5V31.5469H217.067V32.6641H215.489V37.9062C215.489 38.2448 215.56 38.5 215.7 38.6719C215.841 38.8385 216.08 38.9219 216.419 38.9219C216.586 38.9219 216.815 38.8906 217.106 38.8281V40C216.726 40.1042 216.356 40.1562 215.997 40.1562C215.351 40.1562 214.864 39.9609 214.536 39.5703C214.208 39.1797 214.044 38.625 214.044 37.9062V32.6641H212.505V31.5469H214.044V29.5H215.489ZM218.224 35.6953C218.224 34.8672 218.385 34.1224 218.708 33.4609C219.036 32.7995 219.489 32.2891 220.067 31.9297C220.651 31.5703 221.315 31.3906 222.06 31.3906C223.211 31.3906 224.14 31.7891 224.849 32.5859C225.562 33.3828 225.919 34.4427 225.919 35.7656V35.8672C225.919 36.6901 225.76 37.4297 225.442 38.0859C225.13 38.737 224.679 39.2448 224.091 39.6094C223.507 39.974 222.836 40.1562 222.075 40.1562C220.929 40.1562 220 39.7578 219.286 38.9609C218.578 38.1641 218.224 37.1094 218.224 35.7969V35.6953ZM219.677 35.8672C219.677 36.8047 219.893 37.5573 220.325 38.125C220.763 38.6927 221.346 38.9766 222.075 38.9766C222.81 38.9766 223.393 38.6901 223.825 38.1172C224.257 37.5391 224.474 36.7318 224.474 35.6953C224.474 34.7682 224.252 34.0182 223.81 33.4453C223.372 32.8672 222.789 32.5781 222.06 32.5781C221.346 32.5781 220.771 32.862 220.333 33.4297C219.896 33.9974 219.677 34.8099 219.677 35.8672ZM239.185 38.0078L240.81 31.5469H242.255L239.794 40H238.622L236.567 33.5938L234.567 40H233.396L230.942 31.5469H232.38L234.044 37.875L236.013 31.5469H237.177L239.185 38.0078ZM245.302 40H243.856V31.5469H245.302V40ZM243.739 29.3047C243.739 29.0703 243.81 28.8724 243.95 28.7109C244.096 28.5495 244.31 28.4688 244.591 28.4688C244.872 28.4688 245.086 28.5495 245.231 28.7109C245.377 28.8724 245.45 29.0703 245.45 29.3047C245.45 29.5391 245.377 29.7344 245.231 29.8906C245.086 30.0469 244.872 30.125 244.591 30.125C244.31 30.125 244.096 30.0469 243.95 29.8906C243.81 29.7344 243.739 29.5391 243.739 29.3047ZM249.583 29.5V31.5469H251.161V32.6641H249.583V37.9062C249.583 38.2448 249.653 38.5 249.794 38.6719C249.935 38.8385 250.174 38.9219 250.513 38.9219C250.679 38.9219 250.909 38.8906 251.2 38.8281V40C250.82 40.1042 250.45 40.1562 250.091 40.1562C249.445 40.1562 248.958 39.9609 248.63 39.5703C248.302 39.1797 248.138 38.625 248.138 37.9062V32.6641H246.599V31.5469H248.138V29.5H249.583ZM254.302 32.5703C254.942 31.7839 255.776 31.3906 256.802 31.3906C258.588 31.3906 259.489 32.3984 259.505 34.4141V40H258.06V34.4062C258.054 33.7969 257.914 33.3464 257.638 33.0547C257.367 32.763 256.942 32.6172 256.364 32.6172C255.896 32.6172 255.484 32.7422 255.13 32.9922C254.776 33.2422 254.5 33.5703 254.302 33.9766V40H252.856V28H254.302V32.5703ZM261.317 35.7031C261.317 34.4062 261.625 33.3646 262.239 32.5781C262.854 31.7865 263.659 31.3906 264.653 31.3906C265.643 31.3906 266.427 31.7292 267.005 32.4062V28H268.45V40H267.122L267.052 39.0938C266.474 39.8021 265.669 40.1562 264.638 40.1562C263.659 40.1562 262.859 39.7552 262.239 38.9531C261.625 38.151 261.317 37.1042 261.317 35.8125V35.7031ZM262.763 35.8672C262.763 36.8255 262.961 37.5755 263.356 38.1172C263.752 38.6589 264.299 38.9297 264.997 38.9297C265.914 38.9297 266.583 38.5182 267.005 37.6953V33.8125C266.573 33.0156 265.909 32.6172 265.013 32.6172C264.304 32.6172 263.752 32.8906 263.356 33.4375C262.961 33.9844 262.763 34.7943 262.763 35.8672ZM274.786 32.8438C274.567 32.8073 274.33 32.7891 274.075 32.7891C273.127 32.7891 272.484 33.1927 272.146 34V40H270.7V31.5469H272.106L272.13 32.5234C272.604 31.7682 273.276 31.3906 274.146 31.3906C274.427 31.3906 274.64 31.4271 274.786 31.5V32.8438ZM281.028 40C280.945 39.8333 280.877 39.5365 280.825 39.1094C280.153 39.8073 279.351 40.1562 278.419 40.1562C277.586 40.1562 276.901 39.9219 276.364 39.4531C275.833 38.9792 275.567 38.3802 275.567 37.6562C275.567 36.776 275.901 36.0938 276.567 35.6094C277.239 35.1198 278.182 34.875 279.396 34.875H280.802V34.2109C280.802 33.7057 280.651 33.3047 280.349 33.0078C280.047 32.7057 279.601 32.5547 279.013 32.5547C278.497 32.5547 278.065 32.6849 277.716 32.9453C277.367 33.2057 277.192 33.5208 277.192 33.8906H275.739C275.739 33.4688 275.888 33.0625 276.185 32.6719C276.487 32.276 276.893 31.9635 277.403 31.7344C277.919 31.5052 278.484 31.3906 279.099 31.3906C280.073 31.3906 280.836 31.6354 281.388 32.125C281.94 32.6094 282.226 33.2786 282.247 34.1328V38.0234C282.247 38.7995 282.346 39.4167 282.544 39.875V40H281.028ZM278.63 38.8984C279.083 38.8984 279.513 38.7812 279.919 38.5469C280.325 38.3125 280.619 38.0078 280.802 37.6328V35.8984H279.669C277.898 35.8984 277.013 36.4167 277.013 37.4531C277.013 37.9062 277.164 38.2604 277.466 38.5156C277.768 38.7708 278.156 38.8984 278.63 38.8984ZM291.997 38.0078L293.622 31.5469H295.067L292.606 40H291.435L289.38 33.5938L287.38 40H286.208L283.755 31.5469H285.192L286.856 37.875L288.825 31.5469H289.989L291.997 38.0078ZM301.224 40V32.6641H299.888V31.5469H301.224V30.6797C301.224 29.7734 301.466 29.0729 301.95 28.5781C302.435 28.0833 303.119 27.8359 304.005 27.8359C304.338 27.8359 304.669 27.8802 304.997 27.9688L304.919 29.1406C304.674 29.0938 304.414 29.0703 304.138 29.0703C303.669 29.0703 303.307 29.2083 303.052 29.4844C302.797 29.7552 302.669 30.1458 302.669 30.6562V31.5469H304.474V32.6641H302.669V40H301.224ZM310.161 32.8438C309.942 32.8073 309.705 32.7891 309.45 32.7891C308.502 32.7891 307.859 33.1927 307.521 34V40H306.075V31.5469H307.481L307.505 32.5234C307.979 31.7682 308.651 31.3906 309.521 31.3906C309.802 31.3906 310.015 31.4271 310.161 31.5V32.8438ZM310.958 35.6953C310.958 34.8672 311.119 34.1224 311.442 33.4609C311.771 32.7995 312.224 32.2891 312.802 31.9297C313.385 31.5703 314.049 31.3906 314.794 31.3906C315.945 31.3906 316.875 31.7891 317.583 32.5859C318.297 33.3828 318.653 34.4427 318.653 35.7656V35.8672C318.653 36.6901 318.494 37.4297 318.177 38.0859C317.864 38.737 317.414 39.2448 316.825 39.6094C316.242 39.974 315.57 40.1562 314.81 40.1562C313.664 40.1562 312.734 39.7578 312.021 38.9609C311.312 38.1641 310.958 37.1094 310.958 35.7969V35.6953ZM312.411 35.8672C312.411 36.8047 312.627 37.5573 313.06 38.125C313.497 38.6927 314.08 38.9766 314.81 38.9766C315.544 38.9766 316.127 38.6901 316.56 38.1172C316.992 37.5391 317.208 36.7318 317.208 35.6953C317.208 34.7682 316.987 34.0182 316.544 33.4453C316.106 32.8672 315.523 32.5781 314.794 32.5781C314.08 32.5781 313.505 32.862 313.067 33.4297C312.63 33.9974 312.411 34.8099 312.411 35.8672ZM321.825 31.5469L321.864 32.4844C322.484 31.7552 323.32 31.3906 324.372 31.3906C325.554 31.3906 326.359 31.8438 326.786 32.75C327.067 32.3438 327.432 32.0156 327.88 31.7656C328.333 31.5156 328.867 31.3906 329.481 31.3906C331.336 31.3906 332.278 32.3724 332.31 34.3359V40H330.864V34.4219C330.864 33.8177 330.726 33.3672 330.45 33.0703C330.174 32.7682 329.711 32.6172 329.06 32.6172C328.523 32.6172 328.078 32.7786 327.724 33.1016C327.369 33.4193 327.164 33.849 327.106 34.3906V40H325.653V34.4609C325.653 33.2318 325.052 32.6172 323.849 32.6172C322.901 32.6172 322.252 33.0208 321.903 33.8281V40H320.458V31.5469H321.825ZM344.974 37.0312H340.208L339.138 40H337.591L341.935 28.625H343.247L347.599 40H346.06L344.974 37.0312ZM340.661 35.7969H344.528L342.591 30.4766L340.661 35.7969ZM355.974 29.8594H352.317V40H350.825V29.8594H347.177V28.625H355.974V29.8594ZM359.599 28.625L363.317 37.9062L367.036 28.625H368.981V40H367.481V35.5703L367.622 30.7891L363.888 40H362.739L359.013 30.8125L359.161 35.5703V40H357.661V28.625H359.599Z" fill="#656668"/>
<path d="M27.286 48H30.23V24.864H24.214V27.52H27.286V48Z" fill="#656668"/>
</svg>
