<svg width="595" height="113" viewBox="0 0 595 113" fill="none" xmlns="http://www.w3.org/2000/svg">
<g filter="url(#filter0_d)">
<rect x="19" y="16" width="556.56" height="75" rx="24" fill="white"/>
</g>
<path d="M89.4023 49.3906C89.2617 50.5938 88.8164 51.5234 88.0664 52.1797C87.3216 52.8307 86.3294 53.1562 85.0898 53.1562C83.7461 53.1562 82.668 52.6745 81.8555 51.7109C81.0482 50.7474 80.6445 49.4583 80.6445 47.8438V46.75C80.6445 45.6927 80.832 44.763 81.207 43.9609C81.5872 43.1589 82.1237 42.5443 82.8164 42.1172C83.5091 41.6849 84.3112 41.4688 85.2227 41.4688C86.431 41.4688 87.3997 41.8073 88.1289 42.4844C88.8581 43.1562 89.2826 44.0885 89.4023 45.2812H87.8945C87.7643 44.375 87.4805 43.7188 87.043 43.3125C86.6107 42.9062 86.0039 42.7031 85.2227 42.7031C84.2643 42.7031 83.5117 43.0573 82.9648 43.7656C82.4232 44.474 82.1523 45.4818 82.1523 46.7891V47.8906C82.1523 49.125 82.4102 50.1068 82.9258 50.8359C83.4414 51.5651 84.1628 51.9297 85.0898 51.9297C85.9232 51.9297 86.5612 51.7422 87.0039 51.3672C87.4518 50.987 87.7487 50.3281 87.8945 49.3906H89.4023ZM90.8477 48.6953C90.8477 47.8672 91.0091 47.1224 91.332 46.4609C91.6602 45.7995 92.1133 45.2891 92.6914 44.9297C93.2747 44.5703 93.9388 44.3906 94.6836 44.3906C95.8346 44.3906 96.7643 44.7891 97.4727 45.5859C98.1862 46.3828 98.543 47.4427 98.543 48.7656V48.8672C98.543 49.6901 98.3841 50.4297 98.0664 51.0859C97.7539 51.737 97.3034 52.2448 96.7148 52.6094C96.1315 52.974 95.4596 53.1562 94.6992 53.1562C93.5534 53.1562 92.6237 52.7578 91.9102 51.9609C91.2018 51.1641 90.8477 50.1094 90.8477 48.7969V48.6953ZM92.3008 48.8672C92.3008 49.8047 92.5169 50.5573 92.9492 51.125C93.3867 51.6927 93.9701 51.9766 94.6992 51.9766C95.4336 51.9766 96.0169 51.6901 96.4492 51.1172C96.8815 50.5391 97.0977 49.7318 97.0977 48.6953C97.0977 47.7682 96.8763 47.0182 96.4336 46.4453C95.9961 45.8672 95.4128 45.5781 94.6836 45.5781C93.9701 45.5781 93.3945 45.862 92.957 46.4297C92.5195 46.9974 92.3008 47.8099 92.3008 48.8672ZM101.723 44.5469L101.77 45.6094C102.415 44.7969 103.259 44.3906 104.301 44.3906C106.087 44.3906 106.988 45.3984 107.004 47.4141V53H105.559V47.4062C105.553 46.7969 105.413 46.3464 105.137 46.0547C104.866 45.763 104.441 45.6172 103.863 45.6172C103.395 45.6172 102.983 45.7422 102.629 45.9922C102.275 46.2422 101.999 46.5703 101.801 46.9766V53H100.355V44.5469H101.723ZM114.105 50.7578C114.105 50.3672 113.957 50.0651 113.66 49.8516C113.368 49.6328 112.855 49.4453 112.121 49.2891C111.392 49.1328 110.811 48.9453 110.379 48.7266C109.952 48.5078 109.634 48.2474 109.426 47.9453C109.223 47.6432 109.121 47.2839 109.121 46.8672C109.121 46.1745 109.413 45.5885 109.996 45.1094C110.585 44.6302 111.335 44.3906 112.246 44.3906C113.204 44.3906 113.98 44.638 114.574 45.1328C115.173 45.6276 115.473 46.2604 115.473 47.0312H114.02C114.02 46.6354 113.85 46.2943 113.512 46.0078C113.178 45.7214 112.757 45.5781 112.246 45.5781C111.72 45.5781 111.309 45.6927 111.012 45.9219C110.715 46.151 110.566 46.4505 110.566 46.8203C110.566 47.1693 110.704 47.4323 110.98 47.6094C111.257 47.7865 111.754 47.9557 112.473 48.1172C113.197 48.2786 113.783 48.4714 114.23 48.6953C114.678 48.9193 115.009 49.1901 115.223 49.5078C115.441 49.8203 115.551 50.2031 115.551 50.6562C115.551 51.4115 115.249 52.0182 114.645 52.4766C114.04 52.9297 113.257 53.1562 112.293 53.1562C111.616 53.1562 111.017 53.0365 110.496 52.7969C109.975 52.5573 109.566 52.224 109.27 51.7969C108.978 51.3646 108.832 50.8984 108.832 50.3984H110.277C110.303 50.8828 110.496 51.2682 110.855 51.5547C111.22 51.8359 111.699 51.9766 112.293 51.9766C112.84 51.9766 113.277 51.8672 113.605 51.6484C113.939 51.4245 114.105 51.1276 114.105 50.7578ZM122.652 52.1641C122.09 52.8255 121.264 53.1562 120.176 53.1562C119.275 53.1562 118.587 52.8958 118.113 52.375C117.645 51.849 117.408 51.0729 117.402 50.0469V44.5469H118.848V50.0078C118.848 51.2891 119.368 51.9297 120.41 51.9297C121.514 51.9297 122.249 51.5182 122.613 50.6953V44.5469H124.059V53H122.684L122.652 52.1641ZM127.621 44.5469L127.66 45.4844C128.28 44.7552 129.116 44.3906 130.168 44.3906C131.35 44.3906 132.155 44.8438 132.582 45.75C132.863 45.3438 133.228 45.0156 133.676 44.7656C134.129 44.5156 134.663 44.3906 135.277 44.3906C137.132 44.3906 138.074 45.3724 138.105 47.3359V53H136.66V47.4219C136.66 46.8177 136.522 46.3672 136.246 46.0703C135.97 45.7682 135.507 45.6172 134.855 45.6172C134.319 45.6172 133.874 45.7786 133.52 46.1016C133.165 46.4193 132.96 46.849 132.902 47.3906V53H131.449V47.4609C131.449 46.2318 130.848 45.6172 129.645 45.6172C128.697 45.6172 128.048 46.0208 127.699 46.8281V53H126.254V44.5469H127.621ZM143.801 53.1562C142.655 53.1562 141.723 52.7812 141.004 52.0312C140.285 51.276 139.926 50.2682 139.926 49.0078V48.7422C139.926 47.9036 140.085 47.1562 140.402 46.5C140.725 45.8385 141.173 45.3229 141.746 44.9531C142.324 44.5781 142.949 44.3906 143.621 44.3906C144.72 44.3906 145.574 44.7526 146.184 45.4766C146.793 46.2005 147.098 47.237 147.098 48.5859V49.1875H141.371C141.392 50.0208 141.634 50.6953 142.098 51.2109C142.566 51.7214 143.16 51.9766 143.879 51.9766C144.389 51.9766 144.822 51.8724 145.176 51.6641C145.53 51.4557 145.84 51.1797 146.105 50.8359L146.988 51.5234C146.28 52.612 145.217 53.1562 143.801 53.1562ZM143.621 45.5781C143.038 45.5781 142.548 45.7917 142.152 46.2188C141.757 46.6406 141.512 47.2344 141.418 48H145.652V47.8906C145.611 47.1562 145.413 46.5885 145.059 46.1875C144.704 45.7812 144.225 45.5781 143.621 45.5781ZM152.863 45.8438C152.645 45.8073 152.408 45.7891 152.152 45.7891C151.204 45.7891 150.561 46.1927 150.223 47V53H148.777V44.5469H150.184L150.207 45.5234C150.681 44.7682 151.353 44.3906 152.223 44.3906C152.504 44.3906 152.717 44.4271 152.863 44.5V45.8438ZM165.652 51.0078L167.277 44.5469H168.723L166.262 53H165.09L163.035 46.5938L161.035 53H159.863L157.41 44.5469H158.848L160.512 50.875L162.48 44.5469H163.645L165.652 51.0078ZM171.77 53H170.324V44.5469H171.77V53ZM170.207 42.3047C170.207 42.0703 170.277 41.8724 170.418 41.7109C170.564 41.5495 170.777 41.4688 171.059 41.4688C171.34 41.4688 171.553 41.5495 171.699 41.7109C171.845 41.8724 171.918 42.0703 171.918 42.3047C171.918 42.5391 171.845 42.7344 171.699 42.8906C171.553 43.0469 171.34 43.125 171.059 43.125C170.777 43.125 170.564 43.0469 170.418 42.8906C170.277 42.7344 170.207 42.5391 170.207 42.3047ZM175.66 53H174.215V41H175.66V53ZM179.551 53H178.105V41H179.551V53ZM189.348 53.1562C188.202 53.1562 187.27 52.7812 186.551 52.0312C185.832 51.276 185.473 50.2682 185.473 49.0078V48.7422C185.473 47.9036 185.632 47.1562 185.949 46.5C186.272 45.8385 186.72 45.3229 187.293 44.9531C187.871 44.5781 188.496 44.3906 189.168 44.3906C190.267 44.3906 191.121 44.7526 191.73 45.4766C192.34 46.2005 192.645 47.237 192.645 48.5859V49.1875H186.918C186.939 50.0208 187.181 50.6953 187.645 51.2109C188.113 51.7214 188.707 51.9766 189.426 51.9766C189.936 51.9766 190.368 51.8724 190.723 51.6641C191.077 51.4557 191.387 51.1797 191.652 50.8359L192.535 51.5234C191.827 52.612 190.764 53.1562 189.348 53.1562ZM189.168 45.5781C188.585 45.5781 188.095 45.7917 187.699 46.2188C187.303 46.6406 187.059 47.2344 186.965 48H191.199V47.8906C191.158 47.1562 190.96 46.5885 190.605 46.1875C190.251 45.7812 189.772 45.5781 189.168 45.5781ZM195.691 44.5469L195.738 45.6094C196.384 44.7969 197.228 44.3906 198.27 44.3906C200.056 44.3906 200.957 45.3984 200.973 47.4141V53H199.527V47.4062C199.522 46.7969 199.382 46.3464 199.105 46.0547C198.835 45.763 198.41 45.6172 197.832 45.6172C197.363 45.6172 196.952 45.7422 196.598 45.9922C196.243 46.2422 195.967 46.5703 195.77 46.9766V53H194.324V44.5469H195.691ZM205.113 42.5V44.5469H206.691V45.6641H205.113V50.9062C205.113 51.2448 205.184 51.5 205.324 51.6719C205.465 51.8385 205.704 51.9219 206.043 51.9219C206.21 51.9219 206.439 51.8906 206.73 51.8281V53C206.35 53.1042 205.98 53.1562 205.621 53.1562C204.975 53.1562 204.488 52.9609 204.16 52.5703C203.832 52.1797 203.668 51.625 203.668 50.9062V45.6641H202.129V44.5469H203.668V42.5H205.113ZM211.895 53.1562C210.749 53.1562 209.816 52.7812 209.098 52.0312C208.379 51.276 208.02 50.2682 208.02 49.0078V48.7422C208.02 47.9036 208.178 47.1562 208.496 46.5C208.819 45.8385 209.267 45.3229 209.84 44.9531C210.418 44.5781 211.043 44.3906 211.715 44.3906C212.814 44.3906 213.668 44.7526 214.277 45.4766C214.887 46.2005 215.191 47.237 215.191 48.5859V49.1875H209.465C209.486 50.0208 209.728 50.6953 210.191 51.2109C210.66 51.7214 211.254 51.9766 211.973 51.9766C212.483 51.9766 212.915 51.8724 213.27 51.6641C213.624 51.4557 213.934 51.1797 214.199 50.8359L215.082 51.5234C214.374 52.612 213.311 53.1562 211.895 53.1562ZM211.715 45.5781C211.132 45.5781 210.642 45.7917 210.246 46.2188C209.85 46.6406 209.605 47.2344 209.512 48H213.746V47.8906C213.704 47.1562 213.507 46.5885 213.152 46.1875C212.798 45.7812 212.319 45.5781 211.715 45.5781ZM220.957 45.8438C220.738 45.8073 220.501 45.7891 220.246 45.7891C219.298 45.7891 218.655 46.1927 218.316 47V53H216.871V44.5469H218.277L218.301 45.5234C218.775 44.7682 219.447 44.3906 220.316 44.3906C220.598 44.3906 220.811 44.4271 220.957 44.5V45.8438ZM235.238 47.6797C235.238 48.7943 235.051 49.7682 234.676 50.6016C234.301 51.4297 233.77 52.0625 233.082 52.5C232.395 52.9375 231.592 53.1562 230.676 53.1562C229.78 53.1562 228.986 52.9375 228.293 52.5C227.6 52.0573 227.061 51.4297 226.676 50.6172C226.296 49.7995 226.1 48.8542 226.09 47.7812V46.9609C226.09 45.8672 226.28 44.901 226.66 44.0625C227.04 43.224 227.577 42.5833 228.27 42.1406C228.967 41.6927 229.764 41.4688 230.66 41.4688C231.572 41.4688 232.374 41.6901 233.066 42.1328C233.764 42.5703 234.301 43.2083 234.676 44.0469C235.051 44.8802 235.238 45.8516 235.238 46.9609V47.6797ZM233.746 46.9453C233.746 45.5964 233.475 44.5625 232.934 43.8438C232.392 43.1198 231.634 42.7578 230.66 42.7578C229.712 42.7578 228.965 43.1198 228.418 43.8438C227.876 44.5625 227.598 45.5625 227.582 46.8438V47.6797C227.582 48.987 227.855 50.0156 228.402 50.7656C228.954 51.5104 229.712 51.8828 230.676 51.8828C231.645 51.8828 232.395 51.5312 232.926 50.8281C233.457 50.1198 233.73 49.1068 233.746 47.7891V46.9453ZM245.129 42.8594H241.473V53H239.98V42.8594H236.332V41.625H245.129V42.8594ZM248.316 48.5469V53H246.816V41.625H251.012C252.257 41.625 253.23 41.9427 253.934 42.5781C254.642 43.2135 254.996 44.0547 254.996 45.1016C254.996 46.2057 254.65 47.0573 253.957 47.6562C253.27 48.25 252.283 48.5469 250.996 48.5469H248.316ZM248.316 47.3203H251.012C251.814 47.3203 252.428 47.1328 252.855 46.7578C253.283 46.3776 253.496 45.8307 253.496 45.1172C253.496 44.4401 253.283 43.8984 252.855 43.4922C252.428 43.0859 251.842 42.875 251.098 42.8594H248.316V47.3203ZM260.27 48.6953C260.27 47.8672 260.431 47.1224 260.754 46.4609C261.082 45.7995 261.535 45.2891 262.113 44.9297C262.697 44.5703 263.361 44.3906 264.105 44.3906C265.257 44.3906 266.186 44.7891 266.895 45.5859C267.608 46.3828 267.965 47.4427 267.965 48.7656V48.8672C267.965 49.6901 267.806 50.4297 267.488 51.0859C267.176 51.737 266.725 52.2448 266.137 52.6094C265.553 52.974 264.882 53.1562 264.121 53.1562C262.975 53.1562 262.046 52.7578 261.332 51.9609C260.624 51.1641 260.27 50.1094 260.27 48.7969V48.6953ZM261.723 48.8672C261.723 49.8047 261.939 50.5573 262.371 51.125C262.809 51.6927 263.392 51.9766 264.121 51.9766C264.855 51.9766 265.439 51.6901 265.871 51.1172C266.303 50.5391 266.52 49.7318 266.52 48.6953C266.52 47.7682 266.298 47.0182 265.855 46.4453C265.418 45.8672 264.835 45.5781 264.105 45.5781C263.392 45.5781 262.816 45.862 262.379 46.4297C261.941 46.9974 261.723 47.8099 261.723 48.8672ZM271.145 44.5469L271.191 45.6094C271.837 44.7969 272.681 44.3906 273.723 44.3906C275.509 44.3906 276.41 45.3984 276.426 47.4141V53H274.98V47.4062C274.975 46.7969 274.835 46.3464 274.559 46.0547C274.288 45.763 273.863 45.6172 273.285 45.6172C272.816 45.6172 272.405 45.7422 272.051 45.9922C271.697 46.2422 271.421 46.5703 271.223 46.9766V53H269.777V44.5469H271.145ZM289.082 50.0312H284.316L283.246 53H281.699L286.043 41.625H287.355L291.707 53H290.168L289.082 50.0312ZM284.77 48.7969H288.637L286.699 43.4766L284.77 48.7969ZM300.082 42.8594H296.426V53H294.934V42.8594H291.285V41.625H300.082V42.8594ZM303.707 41.625L307.426 50.9062L311.145 41.625H313.09V53H311.59V48.5703L311.73 43.7891L307.996 53H306.848L303.121 43.8125L303.27 48.5703V53H301.77V41.625H303.707ZM324.402 50.7578C324.402 50.3672 324.254 50.0651 323.957 49.8516C323.665 49.6328 323.152 49.4453 322.418 49.2891C321.689 49.1328 321.108 48.9453 320.676 48.7266C320.249 48.5078 319.931 48.2474 319.723 47.9453C319.52 47.6432 319.418 47.2839 319.418 46.8672C319.418 46.1745 319.71 45.5885 320.293 45.1094C320.882 44.6302 321.632 44.3906 322.543 44.3906C323.501 44.3906 324.277 44.638 324.871 45.1328C325.47 45.6276 325.77 46.2604 325.77 47.0312H324.316C324.316 46.6354 324.147 46.2943 323.809 46.0078C323.475 45.7214 323.053 45.5781 322.543 45.5781C322.017 45.5781 321.605 45.6927 321.309 45.9219C321.012 46.151 320.863 46.4505 320.863 46.8203C320.863 47.1693 321.001 47.4323 321.277 47.6094C321.553 47.7865 322.051 47.9557 322.77 48.1172C323.493 48.2786 324.079 48.4714 324.527 48.6953C324.975 48.9193 325.306 49.1901 325.52 49.5078C325.738 49.8203 325.848 50.2031 325.848 50.6562C325.848 51.4115 325.546 52.0182 324.941 52.4766C324.337 52.9297 323.553 53.1562 322.59 53.1562C321.913 53.1562 321.314 53.0365 320.793 52.7969C320.272 52.5573 319.863 52.224 319.566 51.7969C319.275 51.3646 319.129 50.8984 319.129 50.3984H320.574C320.6 50.8828 320.793 51.2682 321.152 51.5547C321.517 51.8359 321.996 51.9766 322.59 51.9766C323.137 51.9766 323.574 51.8672 323.902 51.6484C324.236 51.4245 324.402 51.1276 324.402 50.7578ZM331.121 51.9766C331.637 51.9766 332.087 51.8203 332.473 51.5078C332.858 51.1953 333.072 50.8047 333.113 50.3359H334.48C334.454 50.8203 334.288 51.2812 333.98 51.7188C333.673 52.1562 333.262 52.5052 332.746 52.7656C332.236 53.026 331.694 53.1562 331.121 53.1562C329.97 53.1562 329.053 52.7734 328.371 52.0078C327.694 51.237 327.355 50.1849 327.355 48.8516V48.6094C327.355 47.7865 327.507 47.0547 327.809 46.4141C328.111 45.7734 328.543 45.276 329.105 44.9219C329.673 44.5677 330.342 44.3906 331.113 44.3906C332.061 44.3906 332.848 44.6745 333.473 45.2422C334.103 45.8099 334.439 46.5469 334.48 47.4531H333.113C333.072 46.9062 332.863 46.4583 332.488 46.1094C332.118 45.7552 331.66 45.5781 331.113 45.5781C330.379 45.5781 329.809 45.8438 329.402 46.375C329.001 46.901 328.801 47.6641 328.801 48.6641V48.9375C328.801 49.9115 329.001 50.6615 329.402 51.1875C329.803 51.7135 330.376 51.9766 331.121 51.9766ZM340.191 45.8438C339.973 45.8073 339.736 45.7891 339.48 45.7891C338.533 45.7891 337.889 46.1927 337.551 47V53H336.105V44.5469H337.512L337.535 45.5234C338.009 44.7682 338.681 44.3906 339.551 44.3906C339.832 44.3906 340.046 44.4271 340.191 44.5V45.8438ZM344.879 53.1562C343.733 53.1562 342.801 52.7812 342.082 52.0312C341.363 51.276 341.004 50.2682 341.004 49.0078V48.7422C341.004 47.9036 341.163 47.1562 341.48 46.5C341.803 45.8385 342.251 45.3229 342.824 44.9531C343.402 44.5781 344.027 44.3906 344.699 44.3906C345.798 44.3906 346.652 44.7526 347.262 45.4766C347.871 46.2005 348.176 47.237 348.176 48.5859V49.1875H342.449C342.47 50.0208 342.712 50.6953 343.176 51.2109C343.645 51.7214 344.238 51.9766 344.957 51.9766C345.467 51.9766 345.9 51.8724 346.254 51.6641C346.608 51.4557 346.918 51.1797 347.184 50.8359L348.066 51.5234C347.358 52.612 346.296 53.1562 344.879 53.1562ZM344.699 45.5781C344.116 45.5781 343.626 45.7917 343.23 46.2188C342.835 46.6406 342.59 47.2344 342.496 48H346.73V47.8906C346.689 47.1562 346.491 46.5885 346.137 46.1875C345.783 45.7812 345.303 45.5781 344.699 45.5781ZM353.363 53.1562C352.217 53.1562 351.285 52.7812 350.566 52.0312C349.848 51.276 349.488 50.2682 349.488 49.0078V48.7422C349.488 47.9036 349.647 47.1562 349.965 46.5C350.288 45.8385 350.736 45.3229 351.309 44.9531C351.887 44.5781 352.512 44.3906 353.184 44.3906C354.283 44.3906 355.137 44.7526 355.746 45.4766C356.355 46.2005 356.66 47.237 356.66 48.5859V49.1875H350.934C350.954 50.0208 351.197 50.6953 351.66 51.2109C352.129 51.7214 352.723 51.9766 353.441 51.9766C353.952 51.9766 354.384 51.8724 354.738 51.6641C355.092 51.4557 355.402 51.1797 355.668 50.8359L356.551 51.5234C355.842 52.612 354.78 53.1562 353.363 53.1562ZM353.184 45.5781C352.6 45.5781 352.111 45.7917 351.715 46.2188C351.319 46.6406 351.074 47.2344 350.98 48H355.215V47.8906C355.173 47.1562 354.975 46.5885 354.621 46.1875C354.267 45.7812 353.788 45.5781 353.184 45.5781ZM359.707 44.5469L359.754 45.6094C360.4 44.7969 361.243 44.3906 362.285 44.3906C364.072 44.3906 364.973 45.3984 364.988 47.4141V53H363.543V47.4062C363.538 46.7969 363.397 46.3464 363.121 46.0547C362.85 45.763 362.426 45.6172 361.848 45.6172C361.379 45.6172 360.967 45.7422 360.613 45.9922C360.259 46.2422 359.983 46.5703 359.785 46.9766V53H358.34V44.5469H359.707ZM373.098 42.5V44.5469H374.676V45.6641H373.098V50.9062C373.098 51.2448 373.168 51.5 373.309 51.6719C373.449 51.8385 373.689 51.9219 374.027 51.9219C374.194 51.9219 374.423 51.8906 374.715 51.8281V53C374.335 53.1042 373.965 53.1562 373.605 53.1562C372.96 53.1562 372.473 52.9609 372.145 52.5703C371.816 52.1797 371.652 51.625 371.652 50.9062V45.6641H370.113V44.5469H371.652V42.5H373.098ZM375.832 48.6953C375.832 47.8672 375.993 47.1224 376.316 46.4609C376.645 45.7995 377.098 45.2891 377.676 44.9297C378.259 44.5703 378.923 44.3906 379.668 44.3906C380.819 44.3906 381.749 44.7891 382.457 45.5859C383.171 46.3828 383.527 47.4427 383.527 48.7656V48.8672C383.527 49.6901 383.368 50.4297 383.051 51.0859C382.738 51.737 382.288 52.2448 381.699 52.6094C381.116 52.974 380.444 53.1562 379.684 53.1562C378.538 53.1562 377.608 52.7578 376.895 51.9609C376.186 51.1641 375.832 50.1094 375.832 48.7969V48.6953ZM377.285 48.8672C377.285 49.8047 377.501 50.5573 377.934 51.125C378.371 51.6927 378.954 51.9766 379.684 51.9766C380.418 51.9766 381.001 51.6901 381.434 51.1172C381.866 50.5391 382.082 49.7318 382.082 48.6953C382.082 47.7682 381.861 47.0182 381.418 46.4453C380.98 45.8672 380.397 45.5781 379.668 45.5781C378.954 45.5781 378.379 45.862 377.941 46.4297C377.504 46.9974 377.285 47.8099 377.285 48.8672ZM396.793 51.0078L398.418 44.5469H399.863L397.402 53H396.23L394.176 46.5938L392.176 53H391.004L388.551 44.5469H389.988L391.652 50.875L393.621 44.5469H394.785L396.793 51.0078ZM402.91 53H401.465V44.5469H402.91V53ZM401.348 42.3047C401.348 42.0703 401.418 41.8724 401.559 41.7109C401.704 41.5495 401.918 41.4688 402.199 41.4688C402.48 41.4688 402.694 41.5495 402.84 41.7109C402.986 41.8724 403.059 42.0703 403.059 42.3047C403.059 42.5391 402.986 42.7344 402.84 42.8906C402.694 43.0469 402.48 43.125 402.199 43.125C401.918 43.125 401.704 43.0469 401.559 42.8906C401.418 42.7344 401.348 42.5391 401.348 42.3047ZM407.191 42.5V44.5469H408.77V45.6641H407.191V50.9062C407.191 51.2448 407.262 51.5 407.402 51.6719C407.543 51.8385 407.783 51.9219 408.121 51.9219C408.288 51.9219 408.517 51.8906 408.809 51.8281V53C408.428 53.1042 408.059 53.1562 407.699 53.1562C407.053 53.1562 406.566 52.9609 406.238 52.5703C405.91 52.1797 405.746 51.625 405.746 50.9062V45.6641H404.207V44.5469H405.746V42.5H407.191ZM411.91 45.5703C412.551 44.7839 413.384 44.3906 414.41 44.3906C416.197 44.3906 417.098 45.3984 417.113 47.4141V53H415.668V47.4062C415.663 46.7969 415.522 46.3464 415.246 46.0547C414.975 45.763 414.551 45.6172 413.973 45.6172C413.504 45.6172 413.092 45.7422 412.738 45.9922C412.384 46.2422 412.108 46.5703 411.91 46.9766V53H410.465V41H411.91V45.5703ZM418.926 48.7031C418.926 47.4062 419.233 46.3646 419.848 45.5781C420.462 44.7865 421.267 44.3906 422.262 44.3906C423.251 44.3906 424.035 44.7292 424.613 45.4062V41H426.059V53H424.73L424.66 52.0938C424.082 52.8021 423.277 53.1562 422.246 53.1562C421.267 53.1562 420.467 52.7552 419.848 51.9531C419.233 51.151 418.926 50.1042 418.926 48.8125V48.7031ZM420.371 48.8672C420.371 49.8255 420.569 50.5755 420.965 51.1172C421.361 51.6589 421.908 51.9297 422.605 51.9297C423.522 51.9297 424.191 51.5182 424.613 50.6953V46.8125C424.181 46.0156 423.517 45.6172 422.621 45.6172C421.913 45.6172 421.361 45.8906 420.965 46.4375C420.569 46.9844 420.371 47.7943 420.371 48.8672ZM432.395 45.8438C432.176 45.8073 431.939 45.7891 431.684 45.7891C430.736 45.7891 430.092 46.1927 429.754 47V53H428.309V44.5469H429.715L429.738 45.5234C430.212 44.7682 430.884 44.3906 431.754 44.3906C432.035 44.3906 432.249 44.4271 432.395 44.5V45.8438ZM438.637 53C438.553 52.8333 438.486 52.5365 438.434 52.1094C437.762 52.8073 436.96 53.1562 436.027 53.1562C435.194 53.1562 434.509 52.9219 433.973 52.4531C433.441 51.9792 433.176 51.3802 433.176 50.6562C433.176 49.776 433.509 49.0938 434.176 48.6094C434.848 48.1198 435.79 47.875 437.004 47.875H438.41V47.2109C438.41 46.7057 438.259 46.3047 437.957 46.0078C437.655 45.7057 437.21 45.5547 436.621 45.5547C436.105 45.5547 435.673 45.6849 435.324 45.9453C434.975 46.2057 434.801 46.5208 434.801 46.8906H433.348C433.348 46.4688 433.496 46.0625 433.793 45.6719C434.095 45.276 434.501 44.9635 435.012 44.7344C435.527 44.5052 436.092 44.3906 436.707 44.3906C437.681 44.3906 438.444 44.6354 438.996 45.125C439.548 45.6094 439.835 46.2786 439.855 47.1328V51.0234C439.855 51.7995 439.954 52.4167 440.152 52.875V53H438.637ZM436.238 51.8984C436.691 51.8984 437.121 51.7812 437.527 51.5469C437.934 51.3125 438.228 51.0078 438.41 50.6328V48.8984H437.277C435.507 48.8984 434.621 49.4167 434.621 50.4531C434.621 50.9062 434.772 51.2604 435.074 51.5156C435.376 51.7708 435.764 51.8984 436.238 51.8984ZM449.605 51.0078L451.23 44.5469H452.676L450.215 53H449.043L446.988 46.5938L444.988 53H443.816L441.363 44.5469H442.801L444.465 50.875L446.434 44.5469H447.598L449.605 51.0078ZM459.566 45.5703C460.207 44.7839 461.04 44.3906 462.066 44.3906C463.853 44.3906 464.754 45.3984 464.77 47.4141V53H463.324V47.4062C463.319 46.7969 463.178 46.3464 462.902 46.0547C462.632 45.763 462.207 45.6172 461.629 45.6172C461.16 45.6172 460.749 45.7422 460.395 45.9922C460.04 46.2422 459.764 46.5703 459.566 46.9766V53H458.121V41H459.566V45.5703ZM468.504 53H467.059V44.5469H468.504V53ZM466.941 42.3047C466.941 42.0703 467.012 41.8724 467.152 41.7109C467.298 41.5495 467.512 41.4688 467.793 41.4688C468.074 41.4688 468.288 41.5495 468.434 41.7109C468.579 41.8724 468.652 42.0703 468.652 42.3047C468.652 42.5391 468.579 42.7344 468.434 42.8906C468.288 43.0469 468.074 43.125 467.793 43.125C467.512 43.125 467.298 43.0469 467.152 42.8906C467.012 42.7344 466.941 42.5391 466.941 42.3047ZM475.746 50.7578C475.746 50.3672 475.598 50.0651 475.301 49.8516C475.009 49.6328 474.496 49.4453 473.762 49.2891C473.033 49.1328 472.452 48.9453 472.02 48.7266C471.592 48.5078 471.275 48.2474 471.066 47.9453C470.863 47.6432 470.762 47.2839 470.762 46.8672C470.762 46.1745 471.053 45.5885 471.637 45.1094C472.225 44.6302 472.975 44.3906 473.887 44.3906C474.845 44.3906 475.621 44.638 476.215 45.1328C476.814 45.6276 477.113 46.2604 477.113 47.0312H475.66C475.66 46.6354 475.491 46.2943 475.152 46.0078C474.819 45.7214 474.397 45.5781 473.887 45.5781C473.361 45.5781 472.949 45.6927 472.652 45.9219C472.355 46.151 472.207 46.4505 472.207 46.8203C472.207 47.1693 472.345 47.4323 472.621 47.6094C472.897 47.7865 473.395 47.9557 474.113 48.1172C474.837 48.2786 475.423 48.4714 475.871 48.6953C476.319 48.9193 476.65 49.1901 476.863 49.5078C477.082 49.8203 477.191 50.2031 477.191 50.6562C477.191 51.4115 476.889 52.0182 476.285 52.4766C475.681 52.9297 474.897 53.1562 473.934 53.1562C473.257 53.1562 472.658 53.0365 472.137 52.7969C471.616 52.5573 471.207 52.224 470.91 51.7969C470.618 51.3646 470.473 50.8984 470.473 50.3984H471.918C471.944 50.8828 472.137 51.2682 472.496 51.5547C472.861 51.8359 473.34 51.9766 473.934 51.9766C474.48 51.9766 474.918 51.8672 475.246 51.6484C475.579 51.4245 475.746 51.1276 475.746 50.7578ZM484.402 44.5469L484.441 45.4844C485.061 44.7552 485.897 44.3906 486.949 44.3906C488.132 44.3906 488.936 44.8438 489.363 45.75C489.645 45.3438 490.009 45.0156 490.457 44.7656C490.91 44.5156 491.444 44.3906 492.059 44.3906C493.913 44.3906 494.855 45.3724 494.887 47.3359V53H493.441V47.4219C493.441 46.8177 493.303 46.3672 493.027 46.0703C492.751 45.7682 492.288 45.6172 491.637 45.6172C491.1 45.6172 490.655 45.7786 490.301 46.1016C489.947 46.4193 489.741 46.849 489.684 47.3906V53H488.23V47.4609C488.23 46.2318 487.629 45.6172 486.426 45.6172C485.478 45.6172 484.829 46.0208 484.48 46.8281V53H483.035V44.5469H484.402ZM496.691 48.6953C496.691 47.8672 496.853 47.1224 497.176 46.4609C497.504 45.7995 497.957 45.2891 498.535 44.9297C499.118 44.5703 499.783 44.3906 500.527 44.3906C501.678 44.3906 502.608 44.7891 503.316 45.5859C504.03 46.3828 504.387 47.4427 504.387 48.7656V48.8672C504.387 49.6901 504.228 50.4297 503.91 51.0859C503.598 51.737 503.147 52.2448 502.559 52.6094C501.975 52.974 501.303 53.1562 500.543 53.1562C499.397 53.1562 498.467 52.7578 497.754 51.9609C497.046 51.1641 496.691 50.1094 496.691 48.7969V48.6953ZM498.145 48.8672C498.145 49.8047 498.361 50.5573 498.793 51.125C499.23 51.6927 499.814 51.9766 500.543 51.9766C501.277 51.9766 501.861 51.6901 502.293 51.1172C502.725 50.5391 502.941 49.7318 502.941 48.6953C502.941 47.7682 502.72 47.0182 502.277 46.4453C501.84 45.8672 501.257 45.5781 500.527 45.5781C499.814 45.5781 499.238 45.862 498.801 46.4297C498.363 46.9974 498.145 47.8099 498.145 48.8672ZM507.566 44.5469L507.613 45.6094C508.259 44.7969 509.103 44.3906 510.145 44.3906C511.931 44.3906 512.832 45.3984 512.848 47.4141V53H511.402V47.4062C511.397 46.7969 511.257 46.3464 510.98 46.0547C510.71 45.763 510.285 45.6172 509.707 45.6172C509.238 45.6172 508.827 45.7422 508.473 45.9922C508.118 46.2422 507.842 46.5703 507.645 46.9766V53H506.199V44.5469H507.566ZM518.535 53.1562C517.389 53.1562 516.457 52.7812 515.738 52.0312C515.02 51.276 514.66 50.2682 514.66 49.0078V48.7422C514.66 47.9036 514.819 47.1562 515.137 46.5C515.46 45.8385 515.908 45.3229 516.48 44.9531C517.059 44.5781 517.684 44.3906 518.355 44.3906C519.454 44.3906 520.309 44.7526 520.918 45.4766C521.527 46.2005 521.832 47.237 521.832 48.5859V49.1875H516.105C516.126 50.0208 516.368 50.6953 516.832 51.2109C517.301 51.7214 517.895 51.9766 518.613 51.9766C519.124 51.9766 519.556 51.8724 519.91 51.6641C520.264 51.4557 520.574 51.1797 520.84 50.8359L521.723 51.5234C521.014 52.612 519.952 53.1562 518.535 53.1562ZM518.355 45.5781C517.772 45.5781 517.283 45.7917 516.887 46.2188C516.491 46.6406 516.246 47.2344 516.152 48H520.387V47.8906C520.345 47.1562 520.147 46.5885 519.793 46.1875C519.439 45.7812 518.96 45.5781 518.355 45.5781ZM526.168 50.8828L528.137 44.5469H529.684L526.285 54.3047C525.759 55.7109 524.923 56.4141 523.777 56.4141L523.504 56.3906L522.965 56.2891V55.1172L523.355 55.1484C523.845 55.1484 524.225 55.0495 524.496 54.8516C524.772 54.6536 524.999 54.2917 525.176 53.7656L525.496 52.9062L522.48 44.5469H524.059L526.168 50.8828Z" fill="#6654A4"/>
<path d="M47.7587 65H50.6387V59.848H53.8387V57.32H50.6387V42.088H47.1507L35.9187 57.64V59.848H47.7587V65ZM39.2787 57.32L47.8867 45.128V57.32H39.2787Z" fill="#6654A4"/>
<defs>
<filter id="filter0_d" x="0" y="0" width="594.56" height="113" filterUnits="userSpaceOnUse" color-interpolation-filters="sRGB">
<feFlood flood-opacity="0" result="BackgroundImageFix"/>
<feColorMatrix in="SourceAlpha" type="matrix" values="0 0 0 0 0 0 0 0 0 0 0 0 0 0 0 0 0 0 127 0"/>
<feMorphology radius="4" operator="dilate" in="SourceAlpha" result="effect1_dropShadow"/>
<feOffset dy="3"/>
<feGaussianBlur stdDeviation="7.5"/>
<feColorMatrix type="matrix" values="0 0 0 0 0.872109 0 0 0 0 0.853125 0 0 0 0 0.9375 0 0 0 0.5 0"/>
<feBlend mode="normal" in2="BackgroundImageFix" result="effect1_dropShadow"/>
<feBlend mode="normal" in="SourceGraphic" in2="effect1_dropShadow" result="shape"/>
</filter>
</defs>
</svg>
