<svg width="500" height="355" viewBox="0 0 500 355" fill="none" xmlns="http://www.w3.org/2000/svg">
<path d="M445.794 143.579C364.523 160.547 412.174 -27.1048 301.46 52.5469C257.431 84.2235 194.031 45.8903 133.319 66.8425C77.5602 86.0837 91.296 149.22 96.6902 169.878C107.587 211.605 53.3128 194.964 21.8505 212.892C-27.4983 241.015 15.7897 354.393 62.4104 354.866C109.031 355.339 451.54 353.924 451.54 353.924C451.54 353.924 471.886 337.999 482.689 305.173C504.837 237.882 517.358 128.636 445.794 143.579Z" fill="url(#paint0_linear)"/>
<path d="M369.688 70.3184H251.22V352.17H369.688V70.3184Z" fill="#6654A4"/>
<path d="M251.219 173.369L212.862 205.886H336.189L369.688 173.369H251.219Z" fill="#B9ABE7"/>
<path d="M264.722 178.85L239.296 200.406H321.049L343.258 178.85H264.722Z" fill="white"/>
<path d="M336.186 205.887H212.862V352.085H336.186V205.887Z" fill="#6654A4"/>
<path d="M369.691 70.3184V173.366L336.189 205.886V352.17H369.691V352.173H414.251V70.3184H369.691Z" fill="#8678B7"/>
<path d="M355.246 98.5801H262.226V152.413H355.246V98.5801Z" fill="#8678B7"/>
<path d="M358.759 98.5801H266.4V152.413H358.759V98.5801Z" fill="white"/>
<path d="M255.135 217.086H223.702V221.784H255.135V217.086Z" fill="#8678B7"/>
<path d="M322.708 217.086H291.275V221.784H322.708V217.086Z" fill="#8678B7"/>
<path d="M414.251 308.328H212.862V309.073H414.251V308.328Z" fill="#8678B7"/>
<path d="M414.251 232.691H212.862V233.436H414.251V232.691Z" fill="#8678B7"/>
<path d="M292.185 113.502C292.561 113.502 292.844 113.604 293.032 113.801C293.22 114.001 293.383 114.302 293.524 114.7L302.145 136.936C302.169 137.004 302.181 137.09 302.181 137.183C302.181 137.441 302.089 137.663 301.898 137.851C301.71 138.039 301.489 138.134 301.23 138.134H298.696C298.229 138.134 297.899 138.036 297.714 137.835C297.524 137.635 297.397 137.441 297.326 137.257L295.812 133.35H284.695L283.18 137.257C283.112 137.444 282.98 137.635 282.792 137.835C282.604 138.036 282.275 138.134 281.807 138.134H279.273C279.018 138.134 278.796 138.039 278.605 137.851C278.418 137.663 278.325 137.441 278.325 137.183C278.325 137.09 278.334 137.004 278.359 136.936L286.979 114.7C287.121 114.302 287.284 114.001 287.475 113.801C287.663 113.604 287.943 113.502 288.318 113.502H292.185ZM294.125 128.947L290.255 118.917L286.385 128.947H294.125Z" fill="#6654A4"/>
<path d="M319.28 113.502C319.539 113.502 319.764 113.597 319.948 113.785C320.136 113.973 320.232 114.195 320.232 114.453V116.95C320.232 117.209 320.136 117.43 319.948 117.618C319.761 117.809 319.539 117.901 319.28 117.901H312.948V137.183C312.948 137.441 312.852 137.663 312.664 137.851C312.474 138.039 312.255 138.134 311.996 138.134H309.145C308.887 138.134 308.668 138.039 308.477 137.851C308.29 137.663 308.194 137.441 308.194 137.183V117.901H301.861C301.603 117.901 301.381 117.809 301.193 117.618C301.006 117.43 300.91 117.209 300.91 116.95V114.453C300.91 114.195 301.006 113.973 301.193 113.785C301.381 113.597 301.603 113.502 301.861 113.502H319.28Z" fill="#6654A4"/>
<path d="M335.289 126.062L341.973 114.449C342.068 114.332 342.225 114.145 342.447 113.886C342.668 113.63 343.016 113.498 343.484 113.498H345.876C346.135 113.498 346.357 113.593 346.544 113.781C346.732 113.969 346.828 114.191 346.828 114.449V137.179C346.828 137.437 346.732 137.659 346.544 137.847C346.357 138.035 346.135 138.13 345.876 138.13H343.026C342.77 138.13 342.548 138.035 342.358 137.847C342.17 137.659 342.08 137.437 342.08 137.179V123.424L337.506 131.339C337.389 131.526 337.222 131.717 337.013 131.917C336.801 132.118 336.53 132.216 336.203 132.216H334.372C334.045 132.216 333.774 132.118 333.565 131.917C333.353 131.717 333.189 131.523 333.069 131.339L328.498 123.424V137.179C328.498 137.437 328.402 137.659 328.214 137.847C328.023 138.035 327.802 138.13 327.546 138.13H324.695C324.437 138.13 324.215 138.035 324.027 137.847C323.84 137.659 323.744 137.437 323.744 137.179V114.449C323.744 114.191 323.84 113.969 324.027 113.781C324.215 113.593 324.437 113.498 324.695 113.498H327.088C327.555 113.498 327.903 113.63 328.128 113.886C328.35 114.145 328.507 114.332 328.602 114.449L335.289 126.062Z" fill="#6654A4"/>
<path d="M268.998 184.657H275.759L278.095 182.336H271.325L268.998 184.657Z" fill="#6654A4"/>
<path d="M260.707 192.92H267.44L269.758 190.617H263.019L260.707 192.92Z" fill="#6654A4"/>
<path d="M256.585 197.028H263.306L265.618 194.734H258.888L256.585 197.028Z" fill="#6654A4"/>
<path d="M293.558 187.391H290.012L291.856 185.578H295.402L293.558 187.391Z" fill="#6654A4"/>
<path d="M290.325 190.619H286.784L288.622 188.809H292.166L290.325 190.619Z" fill="#6654A4"/>
<path d="M291.538 184.158H287.988L289.832 182.336H293.385L291.538 184.158Z" fill="#6654A4"/>
<path d="M296.8 184.158H293.247L295.094 182.336H298.65L296.8 184.158Z" fill="#6654A4"/>
<path d="M301.965 184.158H298.412L300.265 182.336H303.821L301.965 184.158Z" fill="#6654A4"/>
<path d="M288.305 187.391H284.759L286.597 185.578H290.146L288.305 187.391Z" fill="#6654A4"/>
<path d="M298.717 187.391H295.171L297.018 185.578H300.568L298.717 187.391Z" fill="#6654A4"/>
<path d="M285.082 190.619H281.542L283.374 188.809H286.917L285.082 190.619Z" fill="#6654A4"/>
<path d="M295.476 190.619H291.936L293.78 188.809H297.323L295.476 190.619Z" fill="#6654A4"/>
<path d="M281.468 194.139H277.931L279.759 192.332H283.297L281.468 194.139Z" fill="#6654A4"/>
<path d="M286.702 194.139H283.168L284.997 192.332H288.537L286.702 194.139Z" fill="#6654A4"/>
<path d="M283.613 197.175H280.082L281.908 195.377H285.442L283.613 197.175Z" fill="#6654A4"/>
<path d="M291.844 194.139H288.31L290.144 192.332H293.682L291.844 194.139Z" fill="#6654A4"/>
<path d="M264.846 188.798H271.591L273.918 186.486H267.164L264.846 188.798Z" fill="#6654A4"/>
<path d="M312.7 184.657H319.461L321.847 182.336H315.08L312.7 184.657Z" fill="#6654A4"/>
<path d="M308.461 188.798H315.209L317.586 186.486H310.832L308.461 188.798Z" fill="#6654A4"/>
<path d="M304.24 192.92H310.973L313.341 190.617H306.598L304.24 192.92Z" fill="#6654A4"/>
<path d="M300.031 197.028H306.752L309.11 194.734H302.383L300.031 197.028Z" fill="#6654A4"/>
<path d="M245.793 151.822L249.186 152.872C249.186 152.872 258.29 149.498 263.009 158.946C263.009 158.946 264.665 162.992 261.504 163.155C258.345 163.318 259.53 162.801 255.082 163.13C250.633 163.459 246.418 161.717 244.99 158.783L240.88 155.652L245.793 151.822Z" fill="#FFC09F"/>
<path d="M180.339 352.073H149.085C148.952 352.042 148.844 352.005 148.764 351.968C147.105 351.183 147.077 345.989 147.234 342.689C147.311 341.091 147.431 339.937 147.431 339.937C147.431 339.937 158.083 331.039 159.712 337.646C160.023 338.915 160.602 340.041 161.371 341.039C164.604 345.247 171.174 347.184 175.237 347.756C179.932 348.415 180.311 351.648 180.339 352.073Z" fill="#233862"/>
<path d="M179.385 177.526C179.385 177.526 179.298 178.311 179.132 179.758C178.483 185.468 176.669 201.487 174.567 220.291C174.477 221.054 174.394 221.83 174.308 222.609C173.406 230.678 172.458 239.194 171.528 247.577C171.432 248.454 171.334 249.329 171.239 250.203C170.589 256.065 169.958 261.831 169.357 267.305C167.372 285.524 165.789 300.501 165.469 304.888C164.484 318.416 161.892 340.767 161.892 340.767C161.892 340.767 161.713 340.872 161.368 341.038C159.768 341.804 154.589 343.867 147.231 342.688C146.847 342.626 146.452 342.556 146.055 342.475C146.055 342.475 143.497 332.667 140.979 318.268C140.461 315.313 139.947 312.166 139.455 308.869C138.719 303.953 138.039 298.7 137.488 293.27C137.42 292.605 137.355 291.937 137.29 291.266C136.893 287.06 136.573 282.762 136.373 278.437C136.348 277.901 136.33 277.359 136.308 276.818C136.268 275.799 136.228 274.749 136.182 273.662C136.161 273.083 136.139 272.495 136.114 271.898L136.093 271.298C135.175 245.97 134.23 205.951 133.781 185.733C133.695 181.836 133.624 178.674 133.578 176.497C133.568 176.106 133.559 175.746 133.553 175.42C133.522 173.958 133.507 173.16 133.507 173.16L162.397 175.909L179.385 177.526Z" fill="#2B478B"/>
<path d="M156.449 219.65C153.952 239.316 143.7 288.747 139.458 308.866C138.722 303.949 138.042 298.697 137.491 293.266C137.423 292.601 137.358 291.933 137.294 291.262C136.897 287.057 136.577 282.759 136.376 278.433C136.352 277.898 136.333 277.356 136.312 276.814C136.272 275.795 136.232 274.745 136.186 273.658C136.164 273.08 136.142 272.492 136.118 271.894L136.096 271.294C135.179 245.966 134.234 205.947 133.784 185.73C147.641 181.546 160.704 186.17 156.449 219.65Z" fill="#233862"/>
<path d="M136.109 352.071H103.165C101.748 350.802 101.788 345.658 101.958 342.487C102.041 340.991 102.152 339.935 102.152 339.935C102.152 339.935 112.804 331.037 114.435 337.644C114.916 339.593 116.027 341.209 117.483 342.539C120.962 345.719 126.414 347.256 129.958 347.754C134.046 348.327 135.65 351.064 136.109 352.071Z" fill="#233862"/>
<path d="M160.704 175.502C160.704 175.502 144.089 256.138 131.152 294.02C118.216 331.903 118.053 342.426 118.053 342.426C118.053 342.426 106.182 344.999 100.951 342.01C100.951 342.01 97.9617 270.198 105.791 251.126C110.969 238.513 112.21 232.472 110.849 203.57C110.39 193.817 110.981 172.932 110.981 172.932L160.704 175.502Z" fill="#2B478B"/>
<path d="M91.6163 172.523L91.8595 180.143C91.8595 180.143 84.6278 188.388 91.8072 198.039C91.8072 198.039 95.0398 201.777 96.5668 198.43C98.0938 195.084 97.0747 196.121 99.3221 191.457C101.57 186.793 99.7377 180.771 98.5617 178.708L98.888 172.588L91.6163 172.523Z" fill="#FFC09F"/>
<path d="M165.571 55.0446C162.976 48.13 162.61 43.3796 162.61 43.3796L147.019 32.666C145.671 45.901 142.284 48.9797 142.408 54.1979C142.408 54.2657 149.639 61.5959 155.052 61.5743C160.245 61.5497 165.599 55.1092 165.571 55.0446Z" fill="#EFBCA3"/>
<path d="M248.596 151.886C248.596 151.886 247.869 153.771 246.77 155.473C245.6 157.283 243.602 158.389 243.602 158.389C243.602 158.389 229.859 151.126 218.641 143.657C217.745 143.06 216.864 142.463 216.005 141.863C211.64 138.824 207.912 135.847 205.926 133.402C205.686 133.107 205.437 132.793 205.181 132.46C198.836 124.259 187.839 105.439 187.839 105.439C187.839 105.439 187.719 106.203 187.516 107.804C187.516 107.807 187.516 107.807 187.516 107.807C187.057 111.446 186.164 119.41 185.262 132.547C183.905 152.293 188.073 176.549 179.385 177.525C139.44 181.999 126.211 178.332 113.66 175.41C113.022 175.263 112.385 175.115 111.748 174.973C109.408 174.447 107.672 172.569 108.306 170.257C110.495 162.261 114.857 145.889 115.534 139.978C116.581 130.819 117.726 106.237 117.893 102.607C117.908 102.311 117.914 102.157 117.914 102.157L117.711 102.619L117.705 102.647C117.523 103.454 113.681 120.802 112.351 131.093C111.295 139.246 99.1315 176.312 99.1315 176.312L91.3179 176.029C91.3179 176.029 89.0428 136.158 92.3739 125.675C93.5869 121.864 96.5393 61.7904 113.533 55.7656C118.598 53.9738 131.078 50.3564 142.98 49.4082C143.448 55.0544 151.148 59.2752 157.318 59.2752C161.588 59.2752 164.029 57.1663 165.223 54.0508C180.481 58.0345 191.259 61.3256 196.228 66.6362C211.033 82.4573 215.368 108.413 223.219 121.54C228.292 130.034 248.596 151.886 248.596 151.886Z" fill="#F05665"/>
<path d="M166.3 43.956C166.3 43.956 147.324 44.8242 146.967 32.9961C146.61 21.171 143.919 13.3175 156.018 12.2646C168.117 11.2117 170.61 15.6511 171.688 19.5701C172.769 23.4892 171.226 43.4264 166.3 43.956Z" fill="#FFBE9D"/>
<path d="M248.904 162.222C248.904 162.222 255.976 164.678 258.35 163.099C260.72 161.517 252.685 160.387 252.617 158.712C252.552 157.037 248.904 162.222 248.904 162.222Z" fill="#FFC09F"/>
<path d="M146.154 38.2728C146.154 38.2728 147.124 37.5339 143.346 31.8077C139.569 26.0814 137.777 27.6546 137.731 21.5528C137.685 15.4509 134.578 9.86939 141.656 5.89796C148.737 1.92653 151.009 1.16303 155.257 0.28254C159.506 -0.597948 167.6 0.621186 170.118 3.35809C174.671 8.30544 174.074 21.0417 171.688 19.5732C169.302 18.1016 157.588 14.552 156.563 17.215C155.541 19.8749 149.993 36.2132 146.154 38.2728Z" fill="#23324F"/>
<path d="M218.636 143.657C217.741 143.06 208.905 137.091 207.184 134.794L205.177 132.46C198.832 124.259 187.835 105.439 187.835 105.439C187.835 105.439 187.715 106.203 187.511 107.804C187.496 107.613 186.868 99.5314 191.301 103.383C195.784 107.283 209.727 132.873 213.326 137.688C214.73 139.566 216.725 141.721 218.636 143.657Z" fill="#A64D56"/>
<path d="M128.739 168.873C125.623 173.482 119.069 174.996 113.659 175.409C113.022 175.261 112.385 175.113 111.748 174.972C109.408 174.445 107.671 172.567 108.306 170.255C110.495 162.26 114.857 145.888 115.534 139.977C116.581 130.818 117.726 106.235 117.892 102.606C119.105 102.593 125.974 103.406 127.569 123.088C129.323 144.706 134.551 160.278 128.739 168.873Z" fill="#A64D56"/>
<defs>
<linearGradient id="paint0_linear" x1="286.251" y1="193.968" x2="460.271" y2="148.341" gradientUnits="userSpaceOnUse">
<stop stop-color="#D6DCFD"/>
<stop offset="1" stop-color="#D6DCFD" stop-opacity="0"/>
</linearGradient>
</defs>
</svg>
