<svg width="55" height="55" viewBox="0 0 55 55" fill="none" xmlns="http://www.w3.org/2000/svg">
<g clip-path="url(#clip0)">
<path d="M50.9896 13.9532H24.6354C22.424 13.9532 20.625 15.713 20.625 17.8764V32.4484C20.625 34.6118 22.424 36.3716 24.6354 36.3716H50.9896C53.201 36.3716 55 34.6118 55 32.4484V17.8764C55 15.713 53.201 13.9532 50.9896 13.9532Z" fill="#6654A4"/>
<path d="M37.8128 20.6787C35.2851 20.6787 33.2295 22.6896 33.2295 25.1624C33.2295 27.6352 35.2851 29.6461 37.8128 29.6461C40.3405 29.6461 42.3962 27.6352 42.3962 25.1624C42.3962 22.6896 40.3405 20.6787 37.8128 20.6787Z" fill="#FAFAFA"/>
<path d="M33.2292 39.7344V48.2377C33.2292 49.7308 32.0123 50.9436 30.5181 50.9436H6.14854C4.65438 50.9436 3.4375 49.7308 3.4375 48.2377V6.57076C3.4375 5.07769 4.65438 3.86485 6.14854 3.86485H6.30208H7.44792C8.39667 3.86485 9.16667 4.61811 9.16667 5.54623C9.16667 7.70962 10.9656 9.46947 13.1771 9.46947H23.4896C25.701 9.46947 27.5 7.70962 27.5 5.54623C27.5 4.61811 28.27 3.86485 29.2188 3.86485H30.3646H30.5181C32.0123 3.86485 33.2292 5.07769 33.2292 6.57076V10.5904H36.6667V6.57076C36.6667 3.22368 33.9075 0.502075 30.5181 0.502075H30.3646H29.2188H7.44792H6.30208H6.14854C2.75917 0.502075 0 3.22368 0 6.57076V48.24C0 51.5848 2.75917 54.3064 6.14854 54.3064H30.5181C33.9075 54.3064 36.6667 51.5848 36.6667 48.2377V39.7344H33.2292Z" fill="#6654A4"/>
<path d="M24.6354 39.7344C20.5288 39.7344 17.1875 36.4658 17.1875 32.4484V17.8764C17.1875 13.859 20.5288 10.5904 24.6354 10.5904H33.2292V6.57075C33.2292 5.07768 32.0123 3.86484 30.5181 3.86484H30.3646H29.2188C28.27 3.86484 27.5 4.6181 27.5 5.54622C27.5 7.70961 25.701 9.46946 23.4896 9.46946H13.1771C10.9656 9.46946 9.16667 7.70961 9.16667 5.54622C9.16667 4.6181 8.39667 3.86484 7.44792 3.86484H6.30208H6.14854C4.65438 3.86484 3.4375 5.07768 3.4375 6.57075V48.24C3.4375 49.733 4.65438 50.9459 6.14854 50.9459H30.5181C32.0123 50.9459 33.2292 49.733 33.2292 48.24V39.7344H24.6354Z" fill="#FAFAFA"/>
<path d="M28.0726 26.8433H26.9268C25.978 26.8433 25.208 26.0901 25.208 25.1619C25.208 24.2338 25.978 23.4806 26.9268 23.4806H28.0726C29.0213 23.4806 29.7913 24.2338 29.7913 25.1619C29.7913 26.0901 29.0213 26.8433 28.0726 26.8433Z" fill="#CBC2EC"/>
<path d="M27.4997 23.4806H26.9268C25.978 23.4806 25.208 24.2338 25.208 25.1619C25.208 26.0901 25.978 26.8433 26.9268 26.8433H27.4997V23.4806Z" fill="#CBC2EC"/>
<path d="M48.6976 26.8433H47.5518C46.603 26.8433 45.833 26.0901 45.833 25.1619C45.833 24.2338 46.603 23.4806 47.5518 23.4806H48.6976C49.6463 23.4806 50.4163 24.2338 50.4163 25.1619C50.4163 26.0901 49.6463 26.8433 48.6976 26.8433Z" fill="#CBC2EC"/>
<path d="M48.1247 23.4806H47.5518C46.603 23.4806 45.833 24.2338 45.833 25.1619C45.833 26.0901 46.603 26.8433 47.5518 26.8433H48.1247V23.4806Z" fill="#CBC2EC"/>
</g>
<defs>
<clipPath id="clip0">
<rect width="55" height="53.8043" fill="white" transform="translate(0 0.502075)"/>
</clipPath>
</defs>
</svg>
