<svg width="306" height="79" viewBox="0 0 306 79" fill="none" xmlns="http://www.w3.org/2000/svg">
<path d="M218.476 7.24L220.216 6.32V11.44C220.216 12.5733 219.876 13.4667 219.196 14.12C218.57 14.7067 217.75 15 216.736 15H215.396C214.276 15 213.41 14.6533 212.796 13.96C212.17 14.6533 211.296 15 210.176 15H208.856C208.163 15 207.563 14.86 207.056 14.58C206.896 15.94 206.303 17 205.276 17.76C204.356 18.4533 203.216 18.8 201.856 18.8C200.123 18.8 198.776 18.1867 197.816 16.96C197.083 16.0133 196.716 14.8933 196.716 13.6C196.716 12.48 196.996 11.52 197.556 10.72L199.216 10.36C198.616 11.3067 198.316 12.3267 198.316 13.42C198.316 14.54 198.663 15.46 199.356 16.18C200.01 16.8467 200.843 17.18 201.856 17.18C203.03 17.18 203.936 16.84 204.576 16.16C205.11 15.5867 205.376 14.84 205.376 13.92V8.58L207.096 7.66V11.38C207.096 12.7133 207.743 13.38 209.036 13.38H209.976C211.27 13.38 211.916 12.7133 211.916 11.38V7.9L213.656 7V11.38C213.656 12.7133 214.303 13.38 215.596 13.38H216.536C217.83 13.38 218.476 12.7133 218.476 11.38V7.24ZM233.156 13.38V15H230.676C230.622 16.1467 230.129 17.0933 229.196 17.84C228.409 18.4533 227.516 18.76 226.516 18.76C225.689 18.76 224.909 18.5667 224.176 18.18V16.66C224.882 17.0333 225.582 17.22 226.276 17.22C226.982 17.22 227.596 17 228.116 16.56C228.649 16.12 228.922 15.5933 228.936 14.98C228.242 14.9533 227.729 14.9267 227.396 14.9C225.956 14.82 224.869 14.3333 224.136 13.44C223.522 12.6933 223.216 11.7267 223.216 10.54C223.216 9.08667 223.602 7.95333 224.376 7.14C225.069 6.42 225.982 6.06 227.116 6.06C228.302 6.06 229.216 6.41333 229.856 7.12C230.402 7.74667 230.676 8.56667 230.676 9.58V13.38H233.156ZM228.936 9.7C228.936 8.34 228.329 7.66 227.116 7.66C226.422 7.66 225.882 7.91333 225.496 8.42C225.109 8.91333 224.916 9.60667 224.916 10.5C224.916 12.2467 225.769 13.1733 227.476 13.28C227.796 13.32 228.282 13.3533 228.936 13.38V9.7ZM238.783 13.38H240.103V15H238.583C237.436 15 236.549 14.6333 235.923 13.9C235.256 14.6333 234.336 15 233.163 15H231.962V13.38H233.023C234.409 13.38 235.103 12.6533 235.103 11.2V3.02L236.843 2.1V11.22C236.843 11.9933 236.989 12.5467 237.283 12.88C237.589 13.2133 238.089 13.38 238.783 13.38ZM245.416 4.02C244.763 4.02 244.436 3.68667 244.436 3.02C244.436 2.36667 244.763 2.04 245.416 2.04C246.056 2.04 246.376 2.36667 246.376 3.02C246.376 3.68667 246.056 4.02 245.416 4.02ZM238.896 15V13.38H242.496C241.883 12.7 241.576 11.7533 241.576 10.54C241.576 9.08667 241.956 7.95333 242.716 7.14C243.383 6.42 244.269 6.06 245.376 6.06C246.509 6.06 247.389 6.41333 248.016 7.12C248.549 7.74667 248.816 8.56667 248.816 9.58V11.48C248.803 12.5867 248.476 13.46 247.836 14.1C247.209 14.7 246.376 15 245.336 15H238.896ZM247.096 9.66C247.096 8.32667 246.523 7.66 245.376 7.66C244.723 7.66 244.209 7.91333 243.836 8.42C243.463 8.91333 243.276 9.60667 243.276 10.5C243.276 11.38 243.456 12.08 243.816 12.6C244.176 13.12 244.656 13.38 245.256 13.38C246.483 13.38 247.096 12.74 247.096 11.46V9.66ZM269.202 13.38H270.522V15H269.002C268.282 15 267.635 14.84 267.062 14.52C266.875 15.8933 266.255 16.9733 265.202 17.76C264.269 18.4533 263.115 18.8 261.742 18.8C259.955 18.8 258.575 18.2 257.602 17C256.855 16.0667 256.482 14.9533 256.482 13.66C256.482 12.5267 256.755 11.56 257.302 10.76L259.022 10.38C258.409 11.3267 258.102 12.36 258.102 13.48C258.102 14.5867 258.455 15.4933 259.162 16.2C259.815 16.8533 260.675 17.18 261.742 17.18C262.955 17.18 263.889 16.82 264.542 16.1C265.102 15.4867 265.382 14.7 265.382 13.74V3.02L267.122 2.1V11.38C267.122 12.7133 267.815 13.38 269.202 13.38ZM269.326 15V13.38H270.646C271.952 13.38 272.606 12.7133 272.606 11.38V7.24L274.326 6.32V11.44C274.326 12.5733 273.986 13.4667 273.306 14.12C272.679 14.7067 271.859 15 270.846 15H269.326ZM270.386 18.98C269.732 18.98 269.406 18.6467 269.406 17.98C269.406 17.3267 269.732 17 270.386 17C271.026 17 271.346 17.3267 271.346 17.98C271.346 18.6467 271.026 18.98 270.386 18.98ZM272.926 18.98C272.272 18.98 271.946 18.6467 271.946 17.98C271.946 17.3267 272.272 17 272.926 17C273.566 17 273.886 17.3267 273.886 17.98C273.886 18.6467 273.566 18.98 272.926 18.98ZM287.257 13.38V15H284.777C284.724 16.1467 284.231 17.0933 283.297 17.84C282.511 18.4533 281.617 18.76 280.617 18.76C279.791 18.76 279.011 18.5667 278.277 18.18V16.66C278.984 17.0333 279.684 17.22 280.377 17.22C281.084 17.22 281.697 17 282.217 16.56C282.751 16.12 283.024 15.5933 283.037 14.98C282.344 14.9533 281.831 14.9267 281.497 14.9C280.057 14.82 278.971 14.3333 278.237 13.44C277.624 12.6933 277.317 11.7267 277.317 10.54C277.317 9.08667 277.704 7.95333 278.477 7.14C279.171 6.42 280.084 6.06 281.217 6.06C282.404 6.06 283.317 6.41333 283.957 7.12C284.504 7.74667 284.777 8.56667 284.777 9.58V13.38H287.257ZM283.037 9.7C283.037 8.34 282.431 7.66 281.217 7.66C280.524 7.66 279.984 7.91333 279.597 8.42C279.211 8.91333 279.017 9.60667 279.017 10.5C279.017 12.2467 279.871 13.1733 281.577 13.28C281.897 13.32 282.384 13.3533 283.037 13.38V9.7ZM299.104 13.38H300.404V15H299.084C298.004 15 297.137 14.88 296.484 14.64C295.831 14.3867 295.224 13.9467 294.664 13.32C292.984 14.44 291.024 15 288.784 15H286.064V13.38H288.804C291.511 13.38 293.651 12.4867 295.224 10.7C294.117 8.66 292.771 7.64 291.184 7.64C290.104 7.64 288.991 8.21333 287.844 9.36V7.76C288.964 6.62667 290.151 6.06 291.404 6.06C292.431 6.06 293.424 6.43333 294.384 7.18C295.344 7.91333 296.191 8.96667 296.924 10.34V11.22C296.511 11.74 296.117 12.16 295.744 12.48C296.464 13.08 297.584 13.38 299.104 13.38ZM300.749 3.9C300.095 3.9 299.769 3.56667 299.769 2.9C299.769 2.24667 300.095 1.92 300.749 1.92C301.389 1.92 301.709 2.24667 301.709 2.9C301.709 3.56667 301.389 3.9 300.749 3.9ZM303.289 3.9C302.635 3.9 302.309 3.56667 302.309 2.9C302.309 2.24667 302.635 1.92 303.289 1.92C303.929 1.92 304.249 2.24667 304.249 2.9C304.249 3.56667 303.929 3.9 303.289 3.9ZM299.209 15V13.38H300.529C301.835 13.38 302.489 12.7133 302.489 11.38V7.24L304.209 6.32V11.44C304.209 12.5733 303.869 13.4667 303.189 14.12C302.562 14.7067 301.742 15 300.729 15H299.209Z" fill="#6654A4"/>
<path d="M35.1228 46.008H35.6667V47H34.9788C33.8374 47 33.0428 46.552 32.5948 45.656C32.0401 46.232 31.3574 46.52 30.5468 46.52C29.6294 46.52 28.9041 46.1733 28.3708 45.48C27.9228 44.8933 27.6988 44.1627 27.6988 43.288C27.6988 42.264 27.9974 41.4427 28.5948 40.824C29.1174 40.28 29.7628 40.008 30.5308 40.008C31.2241 40.008 31.8054 40.2107 32.2748 40.616V39.752L33.3468 39.192V44.184C33.3468 45.4 33.9388 46.008 35.1228 46.008ZM32.2748 41.832C31.8054 41.2667 31.2348 40.984 30.5628 40.984C30.0294 40.984 29.5921 41.2027 29.2508 41.64C28.9201 42.0667 28.7548 42.6213 28.7548 43.304C28.7548 43.9973 28.9201 44.552 29.2508 44.968C29.5921 45.384 30.0348 45.592 30.5788 45.592C31.2721 45.592 31.8481 45.288 32.3068 44.68C32.2854 44.488 32.2748 44.3333 32.2748 44.216V41.832ZM50.06 46.008V47H49.372C48.476 47 47.7827 46.712 47.292 46.136C46.908 46.712 46.2893 47 45.436 47H35.34V46.008H38.044V37.24L39.036 36.68V43.4C40.284 41.1067 41.9373 39.96 43.996 39.96C45.1907 39.96 46.14 40.3707 46.844 41.192C47.4413 41.896 47.74 42.7653 47.74 43.8V44.216C47.74 45.4107 48.332 46.008 49.516 46.008H50.06ZM46.668 43.8C46.668 42.904 46.3853 42.184 45.82 41.64C45.34 41.1707 44.7373 40.936 44.012 40.936C42.764 40.936 41.6547 41.5387 40.684 42.744C39.948 43.6507 39.404 44.7387 39.052 46.008H45.324C45.836 46.008 46.188 45.8907 46.38 45.656C46.572 45.4107 46.668 44.968 46.668 44.328V43.8ZM43.9 38.04C43.4627 38.04 43.244 37.816 43.244 37.368C43.244 36.9413 43.4627 36.728 43.9 36.728C44.316 36.728 44.524 36.9413 44.524 37.368C44.524 37.816 44.316 38.04 43.9 38.04ZM54.4023 38.088C53.9649 38.088 53.7463 37.864 53.7463 37.416C53.7463 36.9893 53.9649 36.776 54.4023 36.776C54.8183 36.776 55.0263 36.9893 55.0263 37.416C55.0263 37.864 54.8183 38.088 54.4023 38.088ZM56.0343 46.008H58.9623V47H55.3463C54.9836 47 54.6529 46.9627 54.3543 46.888C54.0556 46.9627 53.7249 47 53.3623 47H49.7462V46.008H52.6903C51.8476 45.2293 51.4263 44.3067 51.4263 43.24C51.4263 42.2053 51.7143 41.384 52.2903 40.776C52.8129 40.232 53.5009 39.96 54.3543 39.96C55.3249 39.96 56.0769 40.312 56.6103 41.016C57.0583 41.6027 57.2823 42.344 57.2823 43.24C57.2823 44.3173 56.8663 45.24 56.0343 46.008ZM54.4183 45.864C54.9623 45.672 55.4049 45.3307 55.7463 44.84C56.0983 44.3387 56.2743 43.8 56.2743 43.224C56.2743 42.52 56.0983 41.9653 55.7463 41.56C55.4049 41.144 54.9409 40.936 54.3543 40.936C53.7676 40.936 53.3036 41.144 52.9623 41.56C52.6209 41.9653 52.4503 42.5147 52.4503 43.208C52.4503 43.7947 52.6209 44.3387 52.9623 44.84C53.3036 45.3307 53.7463 45.672 54.2903 45.864L54.3543 45.88L54.3863 45.864H54.4183ZM68.7489 46.008H69.3089V47H68.7329C67.8475 47 67.1382 46.8987 66.6049 46.696C66.0822 46.4933 65.5969 46.136 65.1489 45.624C63.7835 46.5413 62.2049 47 60.4129 47H58.6369V46.008H60.4289C62.7542 46.008 64.5675 45.2187 65.8689 43.64C64.9195 41.8267 63.7729 40.92 62.4289 40.92C61.5115 40.92 60.6155 41.384 59.7409 42.312V41.256C60.6155 40.392 61.5275 39.96 62.4769 39.96H62.5089C64.1835 39.96 65.6342 41.0907 66.8609 43.352V44.008C66.5302 44.4347 66.1782 44.8027 65.8049 45.112C66.1462 45.4427 66.5302 45.6773 66.9569 45.816C67.3942 45.944 67.9915 46.008 68.7489 46.008ZM71.3163 42.712C71.3163 41.8053 71.5883 41.1013 72.1323 40.6C72.6016 40.1733 73.2203 39.96 73.9883 39.96C74.9803 39.96 75.7429 40.3227 76.2763 41.048C76.7349 41.6667 76.9643 42.4773 76.9643 43.48C76.9643 44.6213 76.6709 45.512 76.0843 46.152C75.5723 46.7173 74.9056 47 74.0843 47C73.0816 47 72.3349 46.68 71.8443 46.04C71.3643 46.68 70.6443 47 69.6842 47H68.9962V46.008H69.5563C70.7296 46.008 71.3163 45.4 71.3163 44.184V42.712ZM72.3883 44.248C72.3883 45.4213 72.9643 46.008 74.1163 46.008C74.6709 46.008 75.1083 45.784 75.4283 45.336C75.7483 44.888 75.9083 44.264 75.9083 43.464C75.9083 42.6747 75.7376 42.056 75.3963 41.608C75.0656 41.16 74.5963 40.936 73.9883 40.936C72.9216 40.936 72.3883 41.56 72.3883 42.808V44.248ZM87.1196 39.672C86.6823 39.672 86.4636 39.448 86.4636 39C86.4636 38.5733 86.6823 38.36 87.1196 38.36C87.5356 38.36 87.7436 38.5733 87.7436 39C87.7436 39.448 87.5356 39.672 87.1196 39.672ZM93.0396 46.008H93.5996V47H92.9116C92.2503 47 91.701 46.8453 91.2636 46.536C91.189 47.656 90.741 48.536 89.9196 49.176C89.1943 49.752 88.277 50.04 87.1676 50.04C85.813 50.04 84.7623 49.56 84.0156 48.6C83.429 47.864 83.1356 46.984 83.1356 45.96C83.1356 45.0427 83.3703 44.2533 83.8396 43.592L84.8796 43.384C84.3676 44.1627 84.1116 44.9947 84.1116 45.88C84.1116 46.8187 84.4156 47.592 85.0236 48.2C85.589 48.7653 86.3036 49.048 87.1676 49.048C88.181 49.048 88.965 48.7493 89.5196 48.152C89.9783 47.6613 90.2076 47.016 90.2076 46.216V40.712L91.2796 40.152V44.184C91.2796 45.4 91.8663 46.008 93.0396 46.008ZM95.5975 42.712C95.5975 41.8053 95.8695 41.1013 96.4135 40.6C96.8828 40.1733 97.5015 39.96 98.2695 39.96C99.2615 39.96 100.024 40.3227 100.558 41.048C101.016 41.6667 101.246 42.4773 101.246 43.48C101.246 44.6213 100.952 45.512 100.366 46.152C99.8535 46.7173 99.1868 47 98.3655 47C97.3628 47 96.6162 46.68 96.1255 46.04C95.6455 46.68 94.9255 47 93.9655 47H93.2775V46.008H93.8375C95.0108 46.008 95.5975 45.4 95.5975 44.184V42.712ZM96.6695 44.248C96.6695 45.4213 97.2455 46.008 98.3975 46.008C98.9522 46.008 99.3895 45.784 99.7095 45.336C100.03 44.888 100.19 44.264 100.19 43.464C100.19 42.6747 100.019 42.056 99.6775 41.608C99.3468 41.16 98.8775 40.936 98.2695 40.936C97.2028 40.936 96.6695 41.56 96.6695 42.808V44.248ZM111.497 39.832C111.06 39.832 110.841 39.608 110.841 39.16C110.841 38.7333 111.06 38.52 111.497 38.52C111.913 38.52 112.121 38.7333 112.121 39.16C112.121 39.608 111.913 39.832 111.497 39.832ZM115.561 46.216C115.561 47.4213 115.145 48.3813 114.313 49.096C113.577 49.7253 112.622 50.04 111.449 50.04C110.094 50.04 109.044 49.56 108.297 48.6C107.71 47.864 107.417 46.984 107.417 45.96C107.417 45.0427 107.652 44.2533 108.121 43.592L109.161 43.384C108.649 44.1627 108.393 44.9947 108.393 45.88C108.393 46.8187 108.697 47.592 109.305 48.2C109.87 48.7653 110.585 49.048 111.449 49.048C112.462 49.048 113.246 48.7493 113.801 48.152C114.26 47.6613 114.489 47.016 114.489 46.216V40.712L115.561 40.152V46.216ZM121.144 47C120.237 47 119.539 46.7067 119.048 46.12C118.643 45.6187 118.44 44.984 118.44 44.216V37.24L119.512 36.68V44.184C119.512 45.4 120.099 46.008 121.272 46.008H121.832V47H121.144ZM130.008 46.008H130.408V47H129.88C128.92 47 128.2 46.6747 127.72 46.024C127.24 46.6747 126.515 47 125.544 47H121.512V46.008H125.432C126.595 46.008 127.176 45.384 127.176 44.136V43.976C127.176 43.1013 126.856 42.4453 126.216 42.008C125.704 41.6453 125.064 41.464 124.296 41.464C123.72 41.464 123.149 41.5653 122.584 41.768V40.712L126.216 36.68H127.32L124.04 40.392C124.147 40.3813 124.259 40.376 124.376 40.376C125.4 40.376 126.253 40.6373 126.936 41.16C127.811 41.832 128.248 42.7653 128.248 43.96V44.184C128.248 45.4 128.835 46.008 130.008 46.008ZM132.41 42.712C132.41 41.8053 132.682 41.1013 133.226 40.6C133.695 40.1733 134.314 39.96 135.082 39.96C136.074 39.96 136.837 40.3227 137.37 41.048C137.829 41.6667 138.058 42.4773 138.058 43.48C138.058 44.6213 137.765 45.512 137.178 46.152C136.666 46.7173 135.999 47 135.178 47C134.175 47 133.429 46.68 132.938 46.04C132.458 46.68 131.738 47 130.778 47H130.09V46.008H130.65C131.823 46.008 132.41 45.4 132.41 44.184V42.712ZM133.482 44.248C133.482 45.4213 134.058 46.008 135.21 46.008C135.765 46.008 136.202 45.784 136.522 45.336C136.842 44.888 137.002 44.264 137.002 43.464C137.002 42.6747 136.831 42.056 136.49 41.608C136.159 41.16 135.69 40.936 135.082 40.936C134.015 40.936 133.482 41.56 133.482 42.808V44.248ZM152.901 42.2C152.229 41.432 151.483 41.048 150.661 41.048C150.203 41.048 149.84 41.1867 149.573 41.464C149.307 41.7307 149.173 42.0987 149.173 42.568V42.6C149.184 43.0907 149.333 43.4747 149.621 43.752C149.909 44.0293 150.469 44.312 151.301 44.6C152.176 44.9093 152.768 45.2187 153.077 45.528C153.397 45.8373 153.557 46.2747 153.557 46.84C153.557 47.7893 153.104 48.568 152.197 49.176C151.344 49.752 150.235 50.04 148.869 50.04C147.227 50.04 145.989 49.56 145.157 48.6C144.539 47.8853 144.229 47.0053 144.229 45.96C144.229 45.0427 144.464 44.2533 144.933 43.592L145.973 43.384C145.461 44.1627 145.205 44.9947 145.205 45.88C145.205 46.8507 145.541 47.624 146.213 48.2C146.864 48.7653 147.749 49.048 148.869 49.048C150.096 49.048 151.045 48.792 151.717 48.28C152.24 47.8747 152.501 47.3947 152.501 46.84C152.501 46.5093 152.384 46.248 152.149 46.056C151.915 45.864 151.451 45.6453 150.757 45.4C149.861 45.08 149.237 44.7653 148.885 44.456C148.384 43.9973 148.133 43.3733 148.133 42.584C148.133 41.7627 148.427 41.1173 149.013 40.648C149.472 40.2853 149.995 40.104 150.581 40.104C151.52 40.104 152.293 40.456 152.901 41.16V42.2ZM147.861 52.68C147.424 52.68 147.205 52.4613 147.205 52.024C147.205 51.5867 147.424 51.368 147.861 51.368C148.277 51.368 148.485 51.5867 148.485 52.024C148.485 52.4613 148.277 52.68 147.861 52.68ZM149.685 52.68C149.259 52.68 149.045 52.4613 149.045 52.024C149.045 51.5867 149.259 51.368 149.685 51.368C150.112 51.368 150.325 51.5867 150.325 52.024C150.325 52.4613 150.112 52.68 149.685 52.68ZM155.956 47V37.24L157.028 36.68V47H155.956ZM172.761 47C172.675 47.9173 172.195 48.6587 171.321 49.224C170.478 49.768 169.395 50.04 168.073 50.04C166.43 50.04 165.193 49.56 164.361 48.6C163.742 47.8853 163.433 47.0053 163.433 45.96C163.433 45.0427 163.667 44.2533 164.137 43.592L165.177 43.384C164.665 44.1627 164.409 44.9947 164.409 45.88C164.409 46.8613 164.745 47.6453 165.417 48.232C166.057 48.7973 166.942 49.08 168.073 49.08C169.235 49.08 170.147 48.8347 170.809 48.344C171.299 47.9813 171.587 47.5333 171.673 47H170.041L170.553 46.008H172.809V47H172.761ZM167.065 52.68C166.627 52.68 166.409 52.4613 166.409 52.024C166.409 51.5867 166.627 51.368 167.065 51.368C167.481 51.368 167.689 51.5867 167.689 52.024C167.689 52.4613 167.481 52.68 167.065 52.68ZM168.889 52.68C168.462 52.68 168.249 52.4613 168.249 52.024C168.249 51.5867 168.462 51.368 168.889 51.368C169.315 51.368 169.529 51.5867 169.529 52.024C169.529 52.4613 169.315 52.68 168.889 52.68ZM177.141 38.072C176.704 38.072 176.486 37.848 176.486 37.4C176.486 36.9733 176.704 36.76 177.141 36.76C177.558 36.76 177.766 36.9733 177.766 37.4C177.766 37.848 177.558 38.072 177.141 38.072ZM172.277 47V46.008H174.998C174.411 45.4213 174.118 44.5787 174.118 43.48C174.118 42.328 174.416 41.4373 175.014 40.808C175.536 40.2427 176.23 39.96 177.094 39.96C177.979 39.96 178.662 40.2373 179.142 40.792C179.558 41.272 179.766 41.912 179.766 42.712V44.264C179.755 45.128 179.494 45.8053 178.982 46.296C178.512 46.7653 177.872 47 177.062 47H172.277ZM178.71 42.808C178.71 41.56 178.171 40.936 177.094 40.936C176.496 40.936 176.027 41.16 175.686 41.608C175.355 42.0453 175.19 42.664 175.19 43.464C175.19 44.2427 175.35 44.8613 175.67 45.32C176 45.7787 176.438 46.008 176.982 46.008C178.134 46.008 178.71 45.4107 178.71 44.216V42.808ZM185.051 47L185.563 46.008H188.571C189.061 46.008 189.403 45.8853 189.595 45.64C189.797 45.3947 189.899 44.968 189.899 44.36C189.899 42.792 189.211 41.624 187.835 40.856L188.363 39.976C190.059 40.9573 190.923 42.3387 190.955 44.12C190.965 45.3787 191.579 46.008 192.795 46.008H193.291V47H192.683C191.755 47 191.045 46.6907 190.555 46.072C190.192 46.6907 189.589 47 188.747 47H185.051ZM192.965 47V46.008H194.757C197.082 46.008 198.896 45.2187 200.197 43.64C199.248 41.8267 198.101 40.92 196.757 40.92C195.84 40.92 194.944 41.384 194.069 42.312V41.256C194.944 40.392 195.856 39.96 196.805 39.96H196.837C198.512 39.96 199.962 41.0907 201.189 43.352V44.008C199.632 46.0027 197.482 47 194.741 47H192.965ZM215.62 42.2C214.948 41.432 214.201 41.048 213.38 41.048C212.921 41.048 212.559 41.1867 212.292 41.464C212.025 41.7307 211.892 42.0987 211.892 42.568V42.6C211.903 43.0907 212.052 43.4747 212.34 43.752C212.628 44.0293 213.188 44.312 214.02 44.6C214.895 44.9093 215.487 45.2187 215.796 45.528C216.116 45.8373 216.276 46.2747 216.276 46.84C216.276 47.7893 215.823 48.568 214.916 49.176C214.063 49.752 212.953 50.04 211.588 50.04C209.945 50.04 208.708 49.56 207.876 48.6C207.257 47.8853 206.948 47.0053 206.948 45.96C206.948 45.0427 207.183 44.2533 207.652 43.592L208.692 43.384C208.18 44.1627 207.924 44.9947 207.924 45.88C207.924 46.8507 208.26 47.624 208.932 48.2C209.583 48.7653 210.468 49.048 211.588 49.048C212.815 49.048 213.764 48.792 214.436 48.28C214.959 47.8747 215.22 47.3947 215.22 46.84C215.22 46.5093 215.103 46.248 214.868 46.056C214.633 45.864 214.169 45.6453 213.476 45.4C212.58 45.08 211.956 44.7653 211.604 44.456C211.103 43.9973 210.852 43.3733 210.852 42.584C210.852 41.7627 211.145 41.1173 211.732 40.648C212.191 40.2853 212.713 40.104 213.3 40.104C214.239 40.104 215.012 40.456 215.62 41.16V42.2ZM210.58 52.68C210.143 52.68 209.924 52.4613 209.924 52.024C209.924 51.5867 210.143 51.368 210.58 51.368C210.996 51.368 211.204 51.5867 211.204 52.024C211.204 52.4613 210.996 52.68 210.58 52.68ZM212.404 52.68C211.977 52.68 211.764 52.4613 211.764 52.024C211.764 51.5867 211.977 51.368 212.404 51.368C212.831 51.368 213.044 51.5867 213.044 52.024C213.044 52.4613 212.831 52.68 212.404 52.68ZM222.242 36.872L221.938 37.448H219.458L219.762 36.872H220.178C220.072 36.68 220.018 36.488 220.018 36.296C220.018 35.9973 220.13 35.7413 220.354 35.528C220.578 35.304 220.845 35.192 221.154 35.192C221.389 35.192 221.618 35.2613 221.842 35.4V36.008C221.629 35.848 221.421 35.768 221.218 35.768C221.048 35.768 220.904 35.8267 220.786 35.944C220.669 36.0507 220.61 36.1787 220.61 36.328C220.61 36.5093 220.685 36.6907 220.834 36.872H222.242ZM224.514 37.24L225.57 36.68V44.136C225.57 45.0427 225.304 45.7573 224.77 46.28C224.28 46.76 223.624 47 222.802 47H217.554L218.066 46.008H220.514V39.32L221.57 38.76V46.008H222.69C223.906 46.008 224.514 45.3787 224.514 44.12V37.24ZM249.435 40.712L250.507 40.152V44.216C250.507 45.1013 250.241 45.8 249.707 46.312C249.227 46.7707 248.593 47 247.803 47H246.955C245.985 47 245.259 46.6693 244.779 46.008C244.299 46.6693 243.574 47 242.603 47H241.755C241.126 47 240.577 46.8453 240.107 46.536C240.033 47.656 239.585 48.536 238.763 49.176C238.038 49.752 237.121 50.04 236.011 50.04C234.657 50.04 233.606 49.56 232.859 48.6C232.273 47.864 231.979 46.984 231.979 45.96C231.979 45.0427 232.214 44.2533 232.683 43.592L233.723 43.384C233.211 44.1627 232.955 44.9947 232.955 45.88C232.955 46.8187 233.259 47.592 233.867 48.2C234.433 48.7653 235.147 49.048 236.011 49.048C237.025 49.048 237.809 48.7493 238.363 48.152C238.822 47.6613 239.051 47.016 239.051 46.216V41.88L240.123 41.32V44.184C240.123 45.4 240.715 46.008 241.899 46.008H242.475C243.659 46.008 244.251 45.4 244.251 44.184V41.304L245.307 40.728V44.184C245.307 45.4 245.899 46.008 247.083 46.008H247.675C248.849 46.008 249.435 45.4 249.435 44.184V40.712ZM260.417 46.008V47H258.721C258.71 47.704 258.481 48.3227 258.033 48.856C257.596 49.4 257.025 49.7573 256.321 49.928C256.065 50.0027 255.788 50.04 255.489 50.04C254.87 50.04 254.268 49.8907 253.681 49.592V48.648C254.236 48.9467 254.785 49.096 255.329 49.096C255.766 49.096 256.15 49 256.481 48.808C256.812 48.6373 257.089 48.376 257.313 48.024C257.537 47.6827 257.649 47.3413 257.649 47L256.289 46.952C255.105 46.8987 254.22 46.5253 253.633 45.832C253.153 45.2453 252.913 44.4613 252.913 43.48C252.913 42.328 253.212 41.4373 253.809 40.808C254.342 40.2427 255.057 39.96 255.953 39.96C256.881 39.96 257.59 40.2373 258.081 40.792C258.508 41.272 258.721 41.912 258.721 42.712V46.008H260.417ZM257.649 42.824C257.649 41.5653 257.084 40.936 255.953 40.936C255.324 40.936 254.833 41.16 254.481 41.608C254.14 42.0453 253.969 42.664 253.969 43.464C253.969 45.0533 254.753 45.8853 256.321 45.96C256.79 45.992 257.233 46.008 257.649 46.008V42.824ZM265.194 46.008H265.754V47H265.066C264.085 47 263.354 46.664 262.874 45.992C262.373 46.664 261.631 47 260.65 47H260.09V46.008H260.538C261.754 46.008 262.362 45.3787 262.362 44.12V37.24L263.434 36.68V44.184C263.434 45.4 264.021 46.008 265.194 46.008ZM270.298 38.072C269.86 38.072 269.642 37.848 269.642 37.4C269.642 36.9733 269.86 36.76 270.298 36.76C270.714 36.76 270.922 36.9733 270.922 37.4C270.922 37.848 270.714 38.072 270.298 38.072ZM265.434 47V46.008H268.154C267.567 45.4213 267.274 44.5787 267.274 43.48C267.274 42.328 267.572 41.4373 268.17 40.808C268.692 40.2427 269.386 39.96 270.25 39.96C271.135 39.96 271.818 40.2373 272.298 40.792C272.714 41.272 272.922 41.912 272.922 42.712V44.264C272.911 45.128 272.65 45.8053 272.138 46.296C271.668 46.7653 271.028 47 270.218 47H265.434ZM271.866 42.808C271.866 41.56 271.327 40.936 270.25 40.936C269.652 40.936 269.183 41.16 268.842 41.608C268.511 42.0453 268.346 42.664 268.346 43.464C268.346 44.2427 268.506 44.8613 268.826 45.32C269.156 45.7787 269.594 46.008 270.138 46.008C271.29 46.008 271.866 45.4107 271.866 44.216V42.808ZM287.407 46.136C287.407 47.3733 286.986 48.3547 286.143 49.08C285.386 49.72 284.42 50.04 283.247 50.04C281.86 50.04 280.794 49.5653 280.047 48.616C279.46 47.88 279.167 47 279.167 45.976C279.167 45.048 279.402 44.264 279.871 43.624L280.927 43.384C280.404 44.152 280.143 44.9947 280.143 45.912C280.143 46.8507 280.447 47.6187 281.055 48.216C281.631 48.7813 282.362 49.064 283.247 49.064C284.271 49.064 285.066 48.7547 285.631 48.136C286.111 47.624 286.351 46.9573 286.351 46.136V37.24L287.407 36.68V46.136ZM297.308 46.008V47H295.612C295.601 47.704 295.372 48.3227 294.924 48.856C294.486 49.4 293.916 49.7573 293.212 49.928C292.956 50.0027 292.678 50.04 292.38 50.04C291.761 50.04 291.158 49.8907 290.572 49.592V48.648C291.126 48.9467 291.676 49.096 292.22 49.096C292.657 49.096 293.041 49 293.372 48.808C293.702 48.6373 293.98 48.376 294.204 48.024C294.428 47.6827 294.54 47.3413 294.54 47L293.18 46.952C291.996 46.8987 291.11 46.5253 290.524 45.832C290.044 45.2453 289.804 44.4613 289.804 43.48C289.804 42.328 290.102 41.4373 290.7 40.808C291.233 40.2427 291.948 39.96 292.844 39.96C293.772 39.96 294.481 40.2373 294.972 40.792C295.398 41.272 295.612 41.912 295.612 42.712V46.008H297.308ZM294.54 42.824C294.54 41.5653 293.974 40.936 292.844 40.936C292.214 40.936 291.724 41.16 291.372 41.608C291.03 42.0453 290.86 42.664 290.86 43.464C290.86 45.0533 291.644 45.8853 293.212 45.96C293.681 45.992 294.124 46.008 294.54 46.008V42.824ZM296.981 47V46.008H298.773C301.098 46.008 302.911 45.2187 304.213 43.64C303.263 41.8267 302.117 40.92 300.773 40.92C299.855 40.92 298.959 41.384 298.085 42.312V41.256C298.959 40.392 299.871 39.96 300.821 39.96H300.853C302.527 39.96 303.978 41.0907 305.205 43.352V44.008C303.647 46.0027 301.498 47 298.757 47H296.981ZM255.56 62.904C255.165 62.904 254.968 62.7013 254.968 62.296C254.968 61.912 255.165 61.72 255.56 61.72C255.944 61.72 256.136 61.912 256.136 62.296C256.136 62.7013 255.944 62.904 255.56 62.904ZM254.648 64.568C254.221 64.568 254.008 64.3493 254.008 63.912C254.008 63.4747 254.221 63.256 254.648 63.256C255.075 63.256 255.288 63.4747 255.288 63.912C255.288 64.3493 255.075 64.568 254.648 64.568ZM255.832 63.912C255.832 63.4747 256.051 63.256 256.488 63.256C256.904 63.256 257.112 63.4747 257.112 63.912C257.112 64.3493 256.904 64.568 256.488 64.568C256.051 64.568 255.832 64.3493 255.832 63.912ZM260.248 66.712L261.32 66.152V70.216C261.32 71.1013 261.053 71.8 260.52 72.312C260.04 72.7707 259.405 73 258.616 73H257.768C256.797 73 256.072 72.6693 255.592 72.008C255.112 72.6693 254.387 73 253.416 73H252.568C251.939 73 251.389 72.8453 250.92 72.536C250.845 73.656 250.397 74.536 249.576 75.176C248.851 75.752 247.933 76.04 246.824 76.04C245.469 76.04 244.419 75.56 243.672 74.6C243.085 73.864 242.792 72.984 242.792 71.96C242.792 71.0427 243.027 70.2533 243.496 69.592L244.536 69.384C244.024 70.1627 243.768 70.9947 243.768 71.88C243.768 72.8187 244.072 73.592 244.68 74.2C245.245 74.7653 245.96 75.048 246.824 75.048C247.837 75.048 248.621 74.7493 249.176 74.152C249.635 73.6613 249.864 73.016 249.864 72.216V67.88L250.936 67.32V70.184C250.936 71.4 251.528 72.008 252.712 72.008H253.288C254.472 72.008 255.064 71.4 255.064 70.184V67.304L256.12 66.728V70.184C256.12 71.4 256.712 72.008 257.896 72.008H258.488C259.661 72.008 260.248 71.4 260.248 70.184V66.712ZM266.91 73C266.003 73 265.304 72.7067 264.814 72.12C264.408 71.6187 264.206 70.984 264.206 70.216V63.24L265.278 62.68V70.184C265.278 71.4 265.864 72.008 267.038 72.008H267.598V73H266.91ZM269.806 66.392C269.912 66.3813 270.024 66.376 270.142 66.376C271.102 66.376 271.923 66.6107 272.606 67.08C273.544 67.752 274.014 68.712 274.014 69.96V70.264C274.014 71.16 273.736 71.8587 273.182 72.36C272.702 72.7867 272.078 73 271.31 73H267.277V72.008H271.198C272.36 72.008 272.942 71.384 272.942 70.136V69.976C272.942 69.112 272.632 68.4667 272.014 68.04C271.502 67.656 270.851 67.464 270.062 67.464C269.486 67.464 268.915 67.5653 268.35 67.768V66.712L271.982 62.68H273.086L269.806 66.392ZM288.605 68.2C287.933 67.432 287.186 67.048 286.365 67.048C285.906 67.048 285.543 67.1867 285.277 67.464C285.01 67.7307 284.877 68.0987 284.877 68.568V68.6C284.887 69.0907 285.037 69.4747 285.325 69.752C285.613 70.0293 286.173 70.312 287.005 70.6C287.879 70.9093 288.471 71.2187 288.781 71.528C289.101 71.8373 289.261 72.2747 289.261 72.84C289.261 73.7893 288.807 74.568 287.901 75.176C287.047 75.752 285.938 76.04 284.573 76.04C282.93 76.04 281.693 75.56 280.861 74.6C280.242 73.8853 279.933 73.0053 279.933 71.96C279.933 71.0427 280.167 70.2533 280.637 69.592L281.677 69.384C281.165 70.1627 280.909 70.9947 280.909 71.88C280.909 72.8507 281.245 73.624 281.917 74.2C282.567 74.7653 283.453 75.048 284.573 75.048C285.799 75.048 286.749 74.792 287.421 74.28C287.943 73.8747 288.205 73.3947 288.205 72.84C288.205 72.5093 288.087 72.248 287.852 72.056C287.618 71.864 287.154 71.6453 286.461 71.4C285.565 71.08 284.941 70.7653 284.589 70.456C284.087 69.9973 283.837 69.3733 283.837 68.584C283.837 67.7627 284.13 67.1173 284.717 66.648C285.175 66.2853 285.698 66.104 286.285 66.104C287.223 66.104 287.997 66.456 288.605 67.16V68.2ZM283.565 78.68C283.127 78.68 282.909 78.4613 282.909 78.024C282.909 77.5867 283.127 77.368 283.565 77.368C283.981 77.368 284.189 77.5867 284.189 78.024C284.189 78.4613 283.981 78.68 283.565 78.68ZM285.389 78.68C284.962 78.68 284.749 78.4613 284.749 78.024C284.749 77.5867 284.962 77.368 285.389 77.368C285.815 77.368 286.029 77.5867 286.029 78.024C286.029 78.4613 285.815 78.68 285.389 78.68ZM294.568 64.04C294.131 64.04 293.912 63.816 293.912 63.368C293.912 62.9413 294.131 62.728 294.568 62.728C294.984 62.728 295.192 62.9413 295.192 63.368C295.192 63.816 294.984 64.04 294.568 64.04ZM296.968 72.008H297.528V73H296.84C296.179 73 295.63 72.84 295.192 72.52C295.107 74.2907 294.392 75.4107 293.048 75.88C292.707 75.9973 292.344 76.056 291.96 76.056C291.342 76.056 290.744 75.9067 290.168 75.608V74.664C290.712 74.9627 291.267 75.112 291.832 75.112C292.28 75.112 292.675 75.0107 293.016 74.808C293.763 74.36 294.136 73.5227 294.136 72.296V66.712L295.192 66.152V66.168L295.208 66.152V70.184C295.208 71.4 295.795 72.008 296.968 72.008ZM297.215 73V72.008H297.775C298.948 72.008 299.535 71.4 299.535 70.184V66.712L300.607 66.152V70.216C300.607 71.112 300.346 71.8107 299.823 72.312C299.343 72.7707 298.703 73 297.903 73H297.215ZM297.743 75.992C297.306 75.992 297.087 75.768 297.087 75.32C297.087 74.8933 297.306 74.68 297.743 74.68C298.159 74.68 298.367 74.8933 298.367 75.32C298.367 75.768 298.159 75.992 297.743 75.992ZM299.567 75.992C299.13 75.992 298.911 75.768 298.911 75.32C298.911 74.8933 299.13 74.68 299.567 74.68C299.983 74.68 300.191 74.8933 300.191 75.32C300.191 75.768 299.983 75.992 299.567 75.992ZM303.487 73V63.24L304.559 62.68V73H303.487Z" fill="#656668"/>
</svg>
