<svg width="45" height="46" viewBox="0 0 45 46" fill="none" xmlns="http://www.w3.org/2000/svg">
<path d="M19.6875 24.18L16.0453 20.5378L14.0625 22.5206L19.6875 28.1455L30.9375 16.8957L28.9547 14.9129L19.6875 24.18Z" fill="#6654A4"/>
<path d="M22.5 43.0375L13.815 38.4068C11.3391 37.0896 9.26856 35.1231 7.82568 32.7182C6.3828 30.3134 5.62203 27.561 5.62501 24.7565V6.47549C5.62575 5.72981 5.92231 5.01488 6.44959 4.4876C6.97688 3.96032 7.69182 3.66377 8.43751 3.66302H36.5625C37.3082 3.66377 38.0231 3.96032 38.5504 4.4876C39.0777 5.01488 39.3743 5.72981 39.375 6.47549V24.7565C39.378 27.561 38.6172 30.3134 37.1743 32.7182C35.7315 35.1231 33.6609 37.0896 31.185 38.4068L22.5 43.0375ZM8.43751 6.47549V24.7565C8.43517 27.0512 9.05781 29.3032 10.2386 31.2708C11.4194 33.2384 13.1137 34.8473 15.1397 35.9248L22.5 39.8496L29.8603 35.9262C31.8865 34.8486 33.581 33.2395 34.7618 31.2716C35.9426 29.3038 36.5651 27.0515 36.5625 24.7565V6.47549H8.43751Z" fill="#6654A4"/>
</svg>
