<svg width="595" height="113" viewBox="0 0 595 113" fill="none" xmlns="http://www.w3.org/2000/svg">
<g filter="url(#filter0_d)">
<rect x="19" y="16" width="556.56" height="75" rx="24" fill="white"/>
</g>
<path d="M84.3875 50.9297C83.101 50.5599 82.1635 50.1068 81.575 49.5703C80.9916 49.0286 80.7 48.362 80.7 47.5703C80.7 46.6745 81.0567 45.9349 81.7703 45.3516C82.489 44.763 83.4213 44.4688 84.5671 44.4688C85.3484 44.4688 86.0437 44.6198 86.6531 44.9219C87.2677 45.224 87.7416 45.6406 88.075 46.1719C88.4135 46.7031 88.5828 47.2839 88.5828 47.9141H87.075C87.075 47.2266 86.8562 46.6875 86.4187 46.2969C85.9812 45.901 85.364 45.7031 84.5671 45.7031C83.8276 45.7031 83.2494 45.8672 82.8328 46.1953C82.4213 46.5182 82.2156 46.9688 82.2156 47.5469C82.2156 48.0104 82.4109 48.4036 82.8015 48.7266C83.1973 49.0443 83.8666 49.3359 84.8093 49.6016C85.7572 49.8672 86.4968 50.1615 87.0281 50.4844C87.5645 50.8021 87.9604 51.1745 88.2156 51.6016C88.476 52.0286 88.6062 52.5312 88.6062 53.1094C88.6062 54.0312 88.2468 54.7708 87.5281 55.3281C86.8093 55.8802 85.8484 56.1562 84.6453 56.1562C83.864 56.1562 83.1348 56.0078 82.4578 55.7109C81.7807 55.4089 81.2572 54.9974 80.8875 54.4766C80.5229 53.9557 80.3406 53.3646 80.3406 52.7031H81.8484C81.8484 53.3906 82.101 53.9349 82.6062 54.3359C83.1166 54.7318 83.7963 54.9297 84.6453 54.9297C85.4369 54.9297 86.0437 54.7682 86.4656 54.4453C86.8875 54.1224 87.0984 53.6823 87.0984 53.125C87.0984 52.5677 86.9031 52.138 86.5125 51.8359C86.1218 51.5286 85.4135 51.2266 84.3875 50.9297ZM93.8171 56.1562C92.6713 56.1562 91.739 55.7812 91.0203 55.0312C90.3015 54.276 89.9421 53.2682 89.9421 52.0078V51.7422C89.9421 50.9036 90.101 50.1562 90.4187 49.5C90.7416 48.8385 91.1895 48.3229 91.7625 47.9531C92.3406 47.5781 92.9656 47.3906 93.6375 47.3906C94.7364 47.3906 95.5906 47.7526 96.2 48.4766C96.8093 49.2005 97.114 50.237 97.114 51.5859V52.1875H91.3875C91.4083 53.0208 91.6505 53.6953 92.114 54.2109C92.5828 54.7214 93.1765 54.9766 93.8953 54.9766C94.4057 54.9766 94.838 54.8724 95.1921 54.6641C95.5463 54.4557 95.8562 54.1797 96.1218 53.8359L97.0046 54.5234C96.2963 55.612 95.2338 56.1562 93.8171 56.1562ZM93.6375 48.5781C93.0541 48.5781 92.5645 48.7917 92.1687 49.2188C91.7729 49.6406 91.5281 50.2344 91.4343 51H95.6687V50.8906C95.627 50.1562 95.4291 49.5885 95.075 49.1875C94.7208 48.7812 94.2416 48.5781 93.6375 48.5781ZM100.364 56H98.9187V44H100.364V56ZM106.192 56.1562C105.046 56.1562 104.114 55.7812 103.395 55.0312C102.677 54.276 102.317 53.2682 102.317 52.0078V51.7422C102.317 50.9036 102.476 50.1562 102.794 49.5C103.117 48.8385 103.565 48.3229 104.137 47.9531C104.716 47.5781 105.341 47.3906 106.012 47.3906C107.111 47.3906 107.966 47.7526 108.575 48.4766C109.184 49.2005 109.489 50.237 109.489 51.5859V52.1875H103.762C103.783 53.0208 104.025 53.6953 104.489 54.2109C104.958 54.7214 105.552 54.9766 106.27 54.9766C106.781 54.9766 107.213 54.8724 107.567 54.6641C107.921 54.4557 108.231 54.1797 108.497 53.8359L109.38 54.5234C108.671 55.612 107.609 56.1562 106.192 56.1562ZM106.012 48.5781C105.429 48.5781 104.94 48.7917 104.544 49.2188C104.148 49.6406 103.903 50.2344 103.809 51H108.044V50.8906C108.002 50.1562 107.804 49.5885 107.45 49.1875C107.096 48.7812 106.617 48.5781 106.012 48.5781ZM114.559 54.9766C115.075 54.9766 115.525 54.8203 115.911 54.5078C116.296 54.1953 116.51 53.8047 116.552 53.3359H117.919C117.893 53.8203 117.726 54.2812 117.419 54.7188C117.111 55.1562 116.7 55.5052 116.184 55.7656C115.674 56.026 115.132 56.1562 114.559 56.1562C113.408 56.1562 112.492 55.7734 111.809 55.0078C111.132 54.237 110.794 53.1849 110.794 51.8516V51.6094C110.794 50.7865 110.945 50.0547 111.247 49.4141C111.549 48.7734 111.981 48.276 112.544 47.9219C113.111 47.5677 113.781 47.3906 114.552 47.3906C115.499 47.3906 116.286 47.6745 116.911 48.2422C117.541 48.8099 117.877 49.5469 117.919 50.4531H116.552C116.51 49.9062 116.302 49.4583 115.927 49.1094C115.557 48.7552 115.098 48.5781 114.552 48.5781C113.817 48.5781 113.247 48.8438 112.841 49.375C112.44 49.901 112.239 50.6641 112.239 51.6641V51.9375C112.239 52.9115 112.44 53.6615 112.841 54.1875C113.242 54.7135 113.815 54.9766 114.559 54.9766ZM121.505 45.5V47.5469H123.083V48.6641H121.505V53.9062C121.505 54.2448 121.575 54.5 121.716 54.6719C121.856 54.8385 122.096 54.9219 122.434 54.9219C122.601 54.9219 122.83 54.8906 123.122 54.8281V56C122.742 56.1042 122.372 56.1562 122.012 56.1562C121.367 56.1562 120.88 55.9609 120.552 55.5703C120.223 55.1797 120.059 54.625 120.059 53.9062V48.6641H118.52V47.5469H120.059V45.5H121.505ZM135.255 53.0312H130.489L129.419 56H127.872L132.216 44.625H133.528L137.88 56H136.341L135.255 53.0312ZM130.942 51.7969H134.809L132.872 46.4766L130.942 51.7969ZM146.255 45.8594H142.598V56H141.106V45.8594H137.458V44.625H146.255V45.8594ZM149.88 44.625L153.598 53.9062L157.317 44.625H159.262V56H157.762V51.5703L157.903 46.7891L154.169 56H153.02L149.294 46.8125L149.442 51.5703V56H147.942V44.625H149.88ZM173.137 54.0078L174.762 47.5469H176.208L173.747 56H172.575L170.52 49.5938L168.52 56H167.348L164.895 47.5469H166.333L167.997 53.875L169.966 47.5469H171.13L173.137 54.0078ZM179.255 56H177.809V47.5469H179.255V56ZM177.692 45.3047C177.692 45.0703 177.762 44.8724 177.903 44.7109C178.049 44.5495 178.262 44.4688 178.544 44.4688C178.825 44.4688 179.038 44.5495 179.184 44.7109C179.33 44.8724 179.403 45.0703 179.403 45.3047C179.403 45.5391 179.33 45.7344 179.184 45.8906C179.038 46.0469 178.825 46.125 178.544 46.125C178.262 46.125 178.049 46.0469 177.903 45.8906C177.762 45.7344 177.692 45.5391 177.692 45.3047ZM183.536 45.5V47.5469H185.114V48.6641H183.536V53.9062C183.536 54.2448 183.606 54.5 183.747 54.6719C183.887 54.8385 184.127 54.9219 184.466 54.9219C184.632 54.9219 184.861 54.8906 185.153 54.8281V56C184.773 56.1042 184.403 56.1562 184.044 56.1562C183.398 56.1562 182.911 55.9609 182.583 55.5703C182.255 55.1797 182.091 54.625 182.091 53.9062V48.6641H180.552V47.5469H182.091V45.5H183.536ZM188.255 48.5703C188.895 47.7839 189.729 47.3906 190.755 47.3906C192.541 47.3906 193.442 48.3984 193.458 50.4141V56H192.012V50.4062C192.007 49.7969 191.867 49.3464 191.591 49.0547C191.32 48.763 190.895 48.6172 190.317 48.6172C189.848 48.6172 189.437 48.7422 189.083 48.9922C188.729 49.2422 188.453 49.5703 188.255 49.9766V56H186.809V44H188.255V48.5703ZM195.27 51.7031C195.27 50.4062 195.578 49.3646 196.192 48.5781C196.807 47.7865 197.611 47.3906 198.606 47.3906C199.596 47.3906 200.38 47.7292 200.958 48.4062V44H202.403V56H201.075L201.005 55.0938C200.427 55.8021 199.622 56.1562 198.591 56.1562C197.611 56.1562 196.812 55.7552 196.192 54.9531C195.578 54.151 195.27 53.1042 195.27 51.8125V51.7031ZM196.716 51.8672C196.716 52.8255 196.913 53.5755 197.309 54.1172C197.705 54.6589 198.252 54.9297 198.95 54.9297C199.867 54.9297 200.536 54.5182 200.958 53.6953V49.8125C200.525 49.0156 199.861 48.6172 198.966 48.6172C198.257 48.6172 197.705 48.8906 197.309 49.4375C196.913 49.9844 196.716 50.7943 196.716 51.8672ZM208.739 48.8438C208.52 48.8073 208.283 48.7891 208.028 48.7891C207.08 48.7891 206.437 49.1927 206.098 50V56H204.653V47.5469H206.059L206.083 48.5234C206.557 47.7682 207.229 47.3906 208.098 47.3906C208.38 47.3906 208.593 47.4271 208.739 47.5V48.8438ZM214.981 56C214.898 55.8333 214.83 55.5365 214.778 55.1094C214.106 55.8073 213.304 56.1562 212.372 56.1562C211.538 56.1562 210.854 55.9219 210.317 55.4531C209.786 54.9792 209.52 54.3802 209.52 53.6562C209.52 52.776 209.854 52.0938 210.52 51.6094C211.192 51.1198 212.135 50.875 213.348 50.875H214.755V50.2109C214.755 49.7057 214.604 49.3047 214.302 49.0078C213.999 48.7057 213.554 48.5547 212.966 48.5547C212.45 48.5547 212.018 48.6849 211.669 48.9453C211.32 49.2057 211.145 49.5208 211.145 49.8906H209.692C209.692 49.4688 209.841 49.0625 210.137 48.6719C210.44 48.276 210.846 47.9635 211.356 47.7344C211.872 47.5052 212.437 47.3906 213.052 47.3906C214.025 47.3906 214.788 47.6354 215.341 48.125C215.893 48.6094 216.179 49.2786 216.2 50.1328V54.0234C216.2 54.7995 216.299 55.4167 216.497 55.875V56H214.981ZM212.583 54.8984C213.036 54.8984 213.466 54.7812 213.872 54.5469C214.278 54.3125 214.572 54.0078 214.755 53.6328V51.8984H213.622C211.851 51.8984 210.966 52.4167 210.966 53.4531C210.966 53.9062 211.117 54.2604 211.419 54.5156C211.721 54.7708 212.109 54.8984 212.583 54.8984ZM225.95 54.0078L227.575 47.5469H229.02L226.559 56H225.387L223.333 49.5938L221.333 56H220.161L217.708 47.5469H219.145L220.809 53.875L222.778 47.5469H223.942L225.95 54.0078ZM235.716 56C235.632 55.8333 235.565 55.5365 235.512 55.1094C234.841 55.8073 234.038 56.1562 233.106 56.1562C232.273 56.1562 231.588 55.9219 231.052 55.4531C230.52 54.9792 230.255 54.3802 230.255 53.6562C230.255 52.776 230.588 52.0938 231.255 51.6094C231.927 51.1198 232.869 50.875 234.083 50.875H235.489V50.2109C235.489 49.7057 235.338 49.3047 235.036 49.0078C234.734 48.7057 234.288 48.5547 233.7 48.5547C233.184 48.5547 232.752 48.6849 232.403 48.9453C232.054 49.2057 231.88 49.5208 231.88 49.8906H230.427C230.427 49.4688 230.575 49.0625 230.872 48.6719C231.174 48.276 231.58 47.9635 232.091 47.7344C232.606 47.5052 233.171 47.3906 233.786 47.3906C234.76 47.3906 235.523 47.6354 236.075 48.125C236.627 48.6094 236.913 49.2786 236.934 50.1328V54.0234C236.934 54.7995 237.033 55.4167 237.231 55.875V56H235.716ZM233.317 54.8984C233.77 54.8984 234.2 54.7812 234.606 54.5469C235.012 54.3125 235.307 54.0078 235.489 53.6328V51.8984H234.356C232.585 51.8984 231.7 52.4167 231.7 53.4531C231.7 53.9062 231.851 54.2604 232.153 54.5156C232.455 54.7708 232.843 54.8984 233.317 54.8984ZM240.77 56H239.325V44H240.77V56ZM246.677 51.6953C246.677 50.8672 246.838 50.1224 247.161 49.4609C247.489 48.7995 247.942 48.2891 248.52 47.9297C249.104 47.5703 249.768 47.3906 250.512 47.3906C251.663 47.3906 252.593 47.7891 253.302 48.5859C254.015 49.3828 254.372 50.4427 254.372 51.7656V51.8672C254.372 52.6901 254.213 53.4297 253.895 54.0859C253.583 54.737 253.132 55.2448 252.544 55.6094C251.96 55.974 251.288 56.1562 250.528 56.1562C249.382 56.1562 248.453 55.7578 247.739 54.9609C247.031 54.1641 246.677 53.1094 246.677 51.7969V51.6953ZM248.13 51.8672C248.13 52.8047 248.346 53.5573 248.778 54.125C249.216 54.6927 249.799 54.9766 250.528 54.9766C251.262 54.9766 251.846 54.6901 252.278 54.1172C252.71 53.5391 252.927 52.7318 252.927 51.6953C252.927 50.7682 252.705 50.0182 252.262 49.4453C251.825 48.8672 251.242 48.5781 250.512 48.5781C249.799 48.5781 249.223 48.862 248.786 49.4297C248.348 49.9974 248.13 50.8099 248.13 51.8672ZM263.325 51.8672C263.325 53.1536 263.031 54.1901 262.442 54.9766C261.854 55.763 261.057 56.1562 260.052 56.1562C259.025 56.1562 258.218 55.8307 257.63 55.1797V59.25H256.184V47.5469H257.505L257.575 48.4844C258.163 47.7552 258.981 47.3906 260.028 47.3906C261.044 47.3906 261.846 47.7734 262.434 48.5391C263.028 49.3047 263.325 50.3698 263.325 51.7344V51.8672ZM261.88 51.7031C261.88 50.75 261.677 49.9974 261.27 49.4453C260.864 48.8932 260.307 48.6172 259.598 48.6172C258.723 48.6172 258.067 49.0052 257.63 49.7812V53.8203C258.062 54.5911 258.723 54.9766 259.614 54.9766C260.307 54.9766 260.856 54.7031 261.262 54.1562C261.674 53.6042 261.88 52.7865 261.88 51.7031ZM267.13 45.5V47.5469H268.708V48.6641H267.13V53.9062C267.13 54.2448 267.2 54.5 267.341 54.6719C267.481 54.8385 267.721 54.9219 268.059 54.9219C268.226 54.9219 268.455 54.8906 268.747 54.8281V56C268.367 56.1042 267.997 56.1562 267.637 56.1562C266.992 56.1562 266.505 55.9609 266.177 55.5703C265.848 55.1797 265.684 54.625 265.684 53.9062V48.6641H264.145V47.5469H265.684V45.5H267.13ZM271.973 56H270.528V47.5469H271.973V56ZM270.411 45.3047C270.411 45.0703 270.481 44.8724 270.622 44.7109C270.768 44.5495 270.981 44.4688 271.262 44.4688C271.544 44.4688 271.757 44.5495 271.903 44.7109C272.049 44.8724 272.122 45.0703 272.122 45.3047C272.122 45.5391 272.049 45.7344 271.903 45.8906C271.757 46.0469 271.544 46.125 271.262 46.125C270.981 46.125 270.768 46.0469 270.622 45.8906C270.481 45.7344 270.411 45.5391 270.411 45.3047ZM273.911 51.6953C273.911 50.8672 274.072 50.1224 274.395 49.4609C274.723 48.7995 275.177 48.2891 275.755 47.9297C276.338 47.5703 277.002 47.3906 277.747 47.3906C278.898 47.3906 279.828 47.7891 280.536 48.5859C281.249 49.3828 281.606 50.4427 281.606 51.7656V51.8672C281.606 52.6901 281.447 53.4297 281.13 54.0859C280.817 54.737 280.367 55.2448 279.778 55.6094C279.195 55.974 278.523 56.1562 277.762 56.1562C276.617 56.1562 275.687 55.7578 274.973 54.9609C274.265 54.1641 273.911 53.1094 273.911 51.7969V51.6953ZM275.364 51.8672C275.364 52.8047 275.58 53.5573 276.012 54.125C276.45 54.6927 277.033 54.9766 277.762 54.9766C278.497 54.9766 279.08 54.6901 279.512 54.1172C279.945 53.5391 280.161 52.7318 280.161 51.6953C280.161 50.7682 279.94 50.0182 279.497 49.4453C279.059 48.8672 278.476 48.5781 277.747 48.5781C277.033 48.5781 276.458 48.862 276.02 49.4297C275.583 49.9974 275.364 50.8099 275.364 51.8672ZM284.786 47.5469L284.833 48.6094C285.479 47.7969 286.322 47.3906 287.364 47.3906C289.15 47.3906 290.052 48.3984 290.067 50.4141V56H288.622V50.4062C288.617 49.7969 288.476 49.3464 288.2 49.0547C287.929 48.763 287.505 48.6172 286.927 48.6172C286.458 48.6172 286.046 48.7422 285.692 48.9922C285.338 49.2422 285.062 49.5703 284.864 49.9766V56H283.419V47.5469H284.786ZM292.278 55.2422C292.278 54.9922 292.351 54.7839 292.497 54.6172C292.648 54.4505 292.872 54.3672 293.169 54.3672C293.466 54.3672 293.69 54.4505 293.841 54.6172C293.997 54.7839 294.075 54.9922 294.075 55.2422C294.075 55.4818 293.997 55.6823 293.841 55.8438C293.69 56.0052 293.466 56.0859 293.169 56.0859C292.872 56.0859 292.648 56.0052 292.497 55.8438C292.351 55.6823 292.278 55.4818 292.278 55.2422Z" fill="#6654A4"/>
<path d="M46.2863 64H49.2303V40.864H43.2143V43.52H46.2863V64Z" fill="#6654A4"/>
<defs>
<filter id="filter0_d" x="0" y="0" width="594.56" height="113" filterUnits="userSpaceOnUse" color-interpolation-filters="sRGB">
<feFlood flood-opacity="0" result="BackgroundImageFix"/>
<feColorMatrix in="SourceAlpha" type="matrix" values="0 0 0 0 0 0 0 0 0 0 0 0 0 0 0 0 0 0 127 0"/>
<feMorphology radius="4" operator="dilate" in="SourceAlpha" result="effect1_dropShadow"/>
<feOffset dy="3"/>
<feGaussianBlur stdDeviation="7.5"/>
<feColorMatrix type="matrix" values="0 0 0 0 0.872109 0 0 0 0 0.853125 0 0 0 0 0.9375 0 0 0 0.5 0"/>
<feBlend mode="normal" in2="BackgroundImageFix" result="effect1_dropShadow"/>
<feBlend mode="normal" in="SourceGraphic" in2="effect1_dropShadow" result="shape"/>
</filter>
</defs>
</svg>
