<svg width="563" height="75" viewBox="0 0 563 75" fill="none" xmlns="http://www.w3.org/2000/svg">
<path d="M65.3877 34.9297C64.1012 34.5599 63.1637 34.1068 62.5752 33.5703C61.9919 33.0286 61.7002 32.362 61.7002 31.5703C61.7002 30.6745 62.057 29.9349 62.7705 29.3516C63.4893 28.763 64.4215 28.4688 65.5674 28.4688C66.3486 28.4688 67.0439 28.6198 67.6533 28.9219C68.2679 29.224 68.7419 29.6406 69.0752 30.1719C69.4137 30.7031 69.583 31.2839 69.583 31.9141H68.0752C68.0752 31.2266 67.8564 30.6875 67.4189 30.2969C66.9814 29.901 66.3643 29.7031 65.5674 29.7031C64.8278 29.7031 64.2497 29.8672 63.833 30.1953C63.4215 30.5182 63.2158 30.9688 63.2158 31.5469C63.2158 32.0104 63.4111 32.4036 63.8018 32.7266C64.1976 33.0443 64.8669 33.3359 65.8096 33.6016C66.7575 33.8672 67.4971 34.1615 68.0283 34.4844C68.5648 34.8021 68.9606 35.1745 69.2158 35.6016C69.4762 36.0286 69.6064 36.5312 69.6064 37.1094C69.6064 38.0312 69.2471 38.7708 68.5283 39.3281C67.8096 39.8802 66.8486 40.1562 65.6455 40.1562C64.8643 40.1562 64.1351 40.0078 63.458 39.7109C62.7809 39.4089 62.2575 38.9974 61.8877 38.4766C61.5231 37.9557 61.3408 37.3646 61.3408 36.7031H62.8486C62.8486 37.3906 63.1012 37.9349 63.6064 38.3359C64.1169 38.7318 64.7965 38.9297 65.6455 38.9297C66.4372 38.9297 67.0439 38.7682 67.4658 38.4453C67.8877 38.1224 68.0986 37.6823 68.0986 37.125C68.0986 36.5677 67.9033 36.138 67.5127 35.8359C67.1221 35.5286 66.4137 35.2266 65.3877 34.9297ZM74.8174 40.1562C73.6715 40.1562 72.7393 39.7812 72.0205 39.0312C71.3018 38.276 70.9424 37.2682 70.9424 36.0078V35.7422C70.9424 34.9036 71.1012 34.1562 71.4189 33.5C71.7419 32.8385 72.1898 32.3229 72.7627 31.9531C73.3408 31.5781 73.9658 31.3906 74.6377 31.3906C75.7367 31.3906 76.5908 31.7526 77.2002 32.4766C77.8096 33.2005 78.1143 34.237 78.1143 35.5859V36.1875H72.3877C72.4085 37.0208 72.6507 37.6953 73.1143 38.2109C73.583 38.7214 74.1768 38.9766 74.8955 38.9766C75.4059 38.9766 75.8382 38.8724 76.1924 38.6641C76.5465 38.4557 76.8564 38.1797 77.1221 37.8359L78.0049 38.5234C77.2965 39.612 76.234 40.1562 74.8174 40.1562ZM74.6377 32.5781C74.0544 32.5781 73.5648 32.7917 73.1689 33.2188C72.7731 33.6406 72.5283 34.2344 72.4346 35H76.6689V34.8906C76.6273 34.1562 76.4294 33.5885 76.0752 33.1875C75.721 32.7812 75.2419 32.5781 74.6377 32.5781ZM81.3643 40H79.9189V28H81.3643V40ZM87.1924 40.1562C86.0465 40.1562 85.1143 39.7812 84.3955 39.0312C83.6768 38.276 83.3174 37.2682 83.3174 36.0078V35.7422C83.3174 34.9036 83.4762 34.1562 83.7939 33.5C84.1169 32.8385 84.5648 32.3229 85.1377 31.9531C85.7158 31.5781 86.3408 31.3906 87.0127 31.3906C88.1117 31.3906 88.9658 31.7526 89.5752 32.4766C90.1846 33.2005 90.4893 34.237 90.4893 35.5859V36.1875H84.7627C84.7835 37.0208 85.0257 37.6953 85.4893 38.2109C85.958 38.7214 86.5518 38.9766 87.2705 38.9766C87.7809 38.9766 88.2132 38.8724 88.5674 38.6641C88.9215 38.4557 89.2314 38.1797 89.4971 37.8359L90.3799 38.5234C89.6715 39.612 88.609 40.1562 87.1924 40.1562ZM87.0127 32.5781C86.4294 32.5781 85.9398 32.7917 85.5439 33.2188C85.1481 33.6406 84.9033 34.2344 84.8096 35H89.0439V34.8906C89.0023 34.1562 88.8044 33.5885 88.4502 33.1875C88.096 32.7812 87.6169 32.5781 87.0127 32.5781ZM95.5596 38.9766C96.0752 38.9766 96.5257 38.8203 96.9111 38.5078C97.2965 38.1953 97.5101 37.8047 97.5518 37.3359H98.9189C98.8929 37.8203 98.7262 38.2812 98.4189 38.7188C98.1117 39.1562 97.7002 39.5052 97.1846 39.7656C96.6742 40.026 96.1325 40.1562 95.5596 40.1562C94.4085 40.1562 93.4919 39.7734 92.8096 39.0078C92.1325 38.237 91.7939 37.1849 91.7939 35.8516V35.6094C91.7939 34.7865 91.945 34.0547 92.2471 33.4141C92.5492 32.7734 92.9814 32.276 93.5439 31.9219C94.1117 31.5677 94.7809 31.3906 95.5518 31.3906C96.4997 31.3906 97.2861 31.6745 97.9111 32.2422C98.5413 32.8099 98.8773 33.5469 98.9189 34.4531H97.5518C97.5101 33.9062 97.3018 33.4583 96.9268 33.1094C96.557 32.7552 96.0986 32.5781 95.5518 32.5781C94.8174 32.5781 94.2471 32.8438 93.8408 33.375C93.4398 33.901 93.2393 34.6641 93.2393 35.6641V35.9375C93.2393 36.9115 93.4398 37.6615 93.8408 38.1875C94.2419 38.7135 94.8148 38.9766 95.5596 38.9766ZM102.505 29.5V31.5469H104.083V32.6641H102.505V37.9062C102.505 38.2448 102.575 38.5 102.716 38.6719C102.856 38.8385 103.096 38.9219 103.435 38.9219C103.601 38.9219 103.83 38.8906 104.122 38.8281V40C103.742 40.1042 103.372 40.1562 103.013 40.1562C102.367 40.1562 101.88 39.9609 101.552 39.5703C101.224 39.1797 101.06 38.625 101.06 37.9062V32.6641H99.5205V31.5469H101.06V29.5H102.505ZM116.255 37.0312H111.489L110.419 40H108.872L113.216 28.625H114.528L118.88 40H117.341L116.255 37.0312ZM111.942 35.7969H115.81L113.872 30.4766L111.942 35.7969ZM127.255 29.8594H123.599V40H122.106V29.8594H118.458V28.625H127.255V29.8594ZM130.88 28.625L134.599 37.9062L138.317 28.625H140.263V40H138.763V35.5703L138.903 30.7891L135.169 40H134.021L130.294 30.8125L130.442 35.5703V40H128.942V28.625H130.88ZM154.138 38.0078L155.763 31.5469H157.208L154.747 40H153.575L151.521 33.5938L149.521 40H148.349L145.896 31.5469H147.333L148.997 37.875L150.966 31.5469H152.13L154.138 38.0078ZM160.255 40H158.81V31.5469H160.255V40ZM158.692 29.3047C158.692 29.0703 158.763 28.8724 158.903 28.7109C159.049 28.5495 159.263 28.4688 159.544 28.4688C159.825 28.4688 160.039 28.5495 160.185 28.7109C160.33 28.8724 160.403 29.0703 160.403 29.3047C160.403 29.5391 160.33 29.7344 160.185 29.8906C160.039 30.0469 159.825 30.125 159.544 30.125C159.263 30.125 159.049 30.0469 158.903 29.8906C158.763 29.7344 158.692 29.5391 158.692 29.3047ZM164.536 29.5V31.5469H166.114V32.6641H164.536V37.9062C164.536 38.2448 164.606 38.5 164.747 38.6719C164.888 38.8385 165.127 38.9219 165.466 38.9219C165.632 38.9219 165.862 38.8906 166.153 38.8281V40C165.773 40.1042 165.403 40.1562 165.044 40.1562C164.398 40.1562 163.911 39.9609 163.583 39.5703C163.255 39.1797 163.091 38.625 163.091 37.9062V32.6641H161.552V31.5469H163.091V29.5H164.536ZM169.255 32.5703C169.896 31.7839 170.729 31.3906 171.755 31.3906C173.541 31.3906 174.442 32.3984 174.458 34.4141V40H173.013V34.4062C173.007 33.7969 172.867 33.3464 172.591 33.0547C172.32 32.763 171.896 32.6172 171.317 32.6172C170.849 32.6172 170.437 32.7422 170.083 32.9922C169.729 33.2422 169.453 33.5703 169.255 33.9766V40H167.81V28H169.255V32.5703ZM176.271 35.7031C176.271 34.4062 176.578 33.3646 177.192 32.5781C177.807 31.7865 178.612 31.3906 179.606 31.3906C180.596 31.3906 181.38 31.7292 181.958 32.4062V28H183.403V40H182.075L182.005 39.0938C181.427 39.8021 180.622 40.1562 179.591 40.1562C178.612 40.1562 177.812 39.7552 177.192 38.9531C176.578 38.151 176.271 37.1042 176.271 35.8125V35.7031ZM177.716 35.8672C177.716 36.8255 177.914 37.5755 178.31 38.1172C178.705 38.6589 179.252 38.9297 179.95 38.9297C180.867 38.9297 181.536 38.5182 181.958 37.6953V33.8125C181.526 33.0156 180.862 32.6172 179.966 32.6172C179.257 32.6172 178.705 32.8906 178.31 33.4375C177.914 33.9844 177.716 34.7943 177.716 35.8672ZM189.739 32.8438C189.521 32.8073 189.284 32.7891 189.028 32.7891C188.08 32.7891 187.437 33.1927 187.099 34V40H185.653V31.5469H187.06L187.083 32.5234C187.557 31.7682 188.229 31.3906 189.099 31.3906C189.38 31.3906 189.593 31.4271 189.739 31.5V32.8438ZM195.981 40C195.898 39.8333 195.83 39.5365 195.778 39.1094C195.106 39.8073 194.304 40.1562 193.372 40.1562C192.539 40.1562 191.854 39.9219 191.317 39.4531C190.786 38.9792 190.521 38.3802 190.521 37.6562C190.521 36.776 190.854 36.0938 191.521 35.6094C192.192 35.1198 193.135 34.875 194.349 34.875H195.755V34.2109C195.755 33.7057 195.604 33.3047 195.302 33.0078C195 32.7057 194.554 32.5547 193.966 32.5547C193.45 32.5547 193.018 32.6849 192.669 32.9453C192.32 33.2057 192.146 33.5208 192.146 33.8906H190.692C190.692 33.4688 190.841 33.0625 191.138 32.6719C191.44 32.276 191.846 31.9635 192.356 31.7344C192.872 31.5052 193.437 31.3906 194.052 31.3906C195.026 31.3906 195.789 31.6354 196.341 32.125C196.893 32.6094 197.179 33.2786 197.2 34.1328V38.0234C197.2 38.7995 197.299 39.4167 197.497 39.875V40H195.981ZM193.583 38.8984C194.036 38.8984 194.466 38.7812 194.872 38.5469C195.278 38.3125 195.573 38.0078 195.755 37.6328V35.8984H194.622C192.851 35.8984 191.966 36.4167 191.966 37.4531C191.966 37.9062 192.117 38.2604 192.419 38.5156C192.721 38.7708 193.109 38.8984 193.583 38.8984ZM206.95 38.0078L208.575 31.5469H210.021L207.56 40H206.388L204.333 33.5938L202.333 40H201.161L198.708 31.5469H200.146L201.81 37.875L203.778 31.5469H204.942L206.95 38.0078ZM216.716 40C216.632 39.8333 216.565 39.5365 216.513 39.1094C215.841 39.8073 215.039 40.1562 214.106 40.1562C213.273 40.1562 212.588 39.9219 212.052 39.4531C211.521 38.9792 211.255 38.3802 211.255 37.6562C211.255 36.776 211.588 36.0938 212.255 35.6094C212.927 35.1198 213.869 34.875 215.083 34.875H216.489V34.2109C216.489 33.7057 216.338 33.3047 216.036 33.0078C215.734 32.7057 215.289 32.5547 214.7 32.5547C214.185 32.5547 213.752 32.6849 213.403 32.9453C213.054 33.2057 212.88 33.5208 212.88 33.8906H211.427C211.427 33.4688 211.575 33.0625 211.872 32.6719C212.174 32.276 212.58 31.9635 213.091 31.7344C213.606 31.5052 214.172 31.3906 214.786 31.3906C215.76 31.3906 216.523 31.6354 217.075 32.125C217.627 32.6094 217.914 33.2786 217.935 34.1328V38.0234C217.935 38.7995 218.034 39.4167 218.231 39.875V40H216.716ZM214.317 38.8984C214.771 38.8984 215.2 38.7812 215.606 38.5469C216.013 38.3125 216.307 38.0078 216.489 37.6328V35.8984H215.356C213.586 35.8984 212.7 36.4167 212.7 37.4531C212.7 37.9062 212.851 38.2604 213.153 38.5156C213.455 38.7708 213.843 38.8984 214.317 38.8984ZM221.771 40H220.325V28H221.771V40ZM227.677 35.6953C227.677 34.8672 227.838 34.1224 228.161 33.4609C228.489 32.7995 228.942 32.2891 229.521 31.9297C230.104 31.5703 230.768 31.3906 231.513 31.3906C232.664 31.3906 233.593 31.7891 234.302 32.5859C235.015 33.3828 235.372 34.4427 235.372 35.7656V35.8672C235.372 36.6901 235.213 37.4297 234.896 38.0859C234.583 38.737 234.132 39.2448 233.544 39.6094C232.961 39.974 232.289 40.1562 231.528 40.1562C230.382 40.1562 229.453 39.7578 228.739 38.9609C228.031 38.1641 227.677 37.1094 227.677 35.7969V35.6953ZM229.13 35.8672C229.13 36.8047 229.346 37.5573 229.778 38.125C230.216 38.6927 230.799 38.9766 231.528 38.9766C232.263 38.9766 232.846 38.6901 233.278 38.1172C233.711 37.5391 233.927 36.7318 233.927 35.6953C233.927 34.7682 233.705 34.0182 233.263 33.4453C232.825 32.8672 232.242 32.5781 231.513 32.5781C230.799 32.5781 230.224 32.862 229.786 33.4297C229.349 33.9974 229.13 34.8099 229.13 35.8672ZM244.325 35.8672C244.325 37.1536 244.031 38.1901 243.442 38.9766C242.854 39.763 242.057 40.1562 241.052 40.1562C240.026 40.1562 239.218 39.8307 238.63 39.1797V43.25H237.185V31.5469H238.505L238.575 32.4844C239.164 31.7552 239.981 31.3906 241.028 31.3906C242.044 31.3906 242.846 31.7734 243.435 32.5391C244.028 33.3047 244.325 34.3698 244.325 35.7344V35.8672ZM242.88 35.7031C242.88 34.75 242.677 33.9974 242.271 33.4453C241.864 32.8932 241.307 32.6172 240.599 32.6172C239.724 32.6172 239.067 33.0052 238.63 33.7812V37.8203C239.062 38.5911 239.724 38.9766 240.614 38.9766C241.307 38.9766 241.856 38.7031 242.263 38.1562C242.674 37.6042 242.88 36.7865 242.88 35.7031ZM248.13 29.5V31.5469H249.708V32.6641H248.13V37.9062C248.13 38.2448 248.2 38.5 248.341 38.6719C248.481 38.8385 248.721 38.9219 249.06 38.9219C249.226 38.9219 249.455 38.8906 249.747 38.8281V40C249.367 40.1042 248.997 40.1562 248.638 40.1562C247.992 40.1562 247.505 39.9609 247.177 39.5703C246.849 39.1797 246.685 38.625 246.685 37.9062V32.6641H245.146V31.5469H246.685V29.5H248.13ZM252.974 40H251.528V31.5469H252.974V40ZM251.411 29.3047C251.411 29.0703 251.481 28.8724 251.622 28.7109C251.768 28.5495 251.981 28.4688 252.263 28.4688C252.544 28.4688 252.757 28.5495 252.903 28.7109C253.049 28.8724 253.122 29.0703 253.122 29.3047C253.122 29.5391 253.049 29.7344 252.903 29.8906C252.757 30.0469 252.544 30.125 252.263 30.125C251.981 30.125 251.768 30.0469 251.622 29.8906C251.481 29.7344 251.411 29.5391 251.411 29.3047ZM254.911 35.6953C254.911 34.8672 255.073 34.1224 255.396 33.4609C255.724 32.7995 256.177 32.2891 256.755 31.9297C257.338 31.5703 258.002 31.3906 258.747 31.3906C259.898 31.3906 260.828 31.7891 261.536 32.5859C262.25 33.3828 262.606 34.4427 262.606 35.7656V35.8672C262.606 36.6901 262.448 37.4297 262.13 38.0859C261.817 38.737 261.367 39.2448 260.778 39.6094C260.195 39.974 259.523 40.1562 258.763 40.1562C257.617 40.1562 256.687 39.7578 255.974 38.9609C255.265 38.1641 254.911 37.1094 254.911 35.7969V35.6953ZM256.364 35.8672C256.364 36.8047 256.58 37.5573 257.013 38.125C257.45 38.6927 258.034 38.9766 258.763 38.9766C259.497 38.9766 260.08 38.6901 260.513 38.1172C260.945 37.5391 261.161 36.7318 261.161 35.6953C261.161 34.7682 260.94 34.0182 260.497 33.4453C260.06 32.8672 259.476 32.5781 258.747 32.5781C258.034 32.5781 257.458 32.862 257.021 33.4297C256.583 33.9974 256.364 34.8099 256.364 35.8672ZM265.786 31.5469L265.833 32.6094C266.479 31.7969 267.323 31.3906 268.364 31.3906C270.151 31.3906 271.052 32.3984 271.067 34.4141V40H269.622V34.4062C269.617 33.7969 269.476 33.3464 269.2 33.0547C268.929 32.763 268.505 32.6172 267.927 32.6172C267.458 32.6172 267.047 32.7422 266.692 32.9922C266.338 33.2422 266.062 33.5703 265.864 33.9766V40H264.419V31.5469H265.786ZM273.278 39.2422C273.278 38.9922 273.351 38.7839 273.497 38.6172C273.648 38.4505 273.872 38.3672 274.169 38.3672C274.466 38.3672 274.69 38.4505 274.841 38.6172C274.997 38.7839 275.075 38.9922 275.075 39.2422C275.075 39.4818 274.997 39.6823 274.841 39.8438C274.69 40.0052 274.466 40.0859 274.169 40.0859C273.872 40.0859 273.648 40.0052 273.497 39.8438C273.351 39.6823 273.278 39.4818 273.278 39.2422Z" fill="#656668"/>
<path d="M27.2865 48H30.2305V24.864H24.2145V27.52H27.2865V48Z" fill="#656668"/>
</svg>
