<svg width="557" height="75" viewBox="0 0 557 75" fill="none" xmlns="http://www.w3.org/2000/svg">
<path d="M70.0437 25.625V33.3594C70.0385 34.4323 69.7 35.3099 69.0281 35.9922C68.3614 36.6745 67.4552 37.0573 66.3093 37.1406L65.9109 37.1562C64.6661 37.1562 63.6739 36.8203 62.9343 36.1484C62.1947 35.4766 61.8197 34.5521 61.8093 33.375V25.625H63.2937V33.3281C63.2937 34.151 63.5203 34.7917 63.9734 35.25C64.4265 35.7031 65.0723 35.9297 65.9109 35.9297C66.7598 35.9297 67.4083 35.7031 67.8562 35.25C68.3093 34.7969 68.5359 34.1589 68.5359 33.3359V25.625H70.0437ZM77.1062 34.7578C77.1062 34.3672 76.9578 34.0651 76.6609 33.8516C76.3692 33.6328 75.8562 33.4453 75.1218 33.2891C74.3927 33.1328 73.8119 32.9453 73.3796 32.7266C72.9526 32.5078 72.6348 32.2474 72.4265 31.9453C72.2234 31.6432 72.1218 31.2839 72.1218 30.8672C72.1218 30.1745 72.4135 29.5885 72.9968 29.1094C73.5854 28.6302 74.3354 28.3906 75.2468 28.3906C76.2052 28.3906 76.9812 28.638 77.575 29.1328C78.1739 29.6276 78.4734 30.2604 78.4734 31.0312H77.0203C77.0203 30.6354 76.851 30.2943 76.5125 30.0078C76.1791 29.7214 75.7572 29.5781 75.2468 29.5781C74.7208 29.5781 74.3093 29.6927 74.0125 29.9219C73.7156 30.151 73.5671 30.4505 73.5671 30.8203C73.5671 31.1693 73.7052 31.4323 73.9812 31.6094C74.2572 31.7865 74.7546 31.9557 75.4734 32.1172C76.1973 32.2786 76.7833 32.4714 77.2312 32.6953C77.6791 32.9193 78.0098 33.1901 78.2234 33.5078C78.4421 33.8203 78.5515 34.2031 78.5515 34.6562C78.5515 35.4115 78.2494 36.0182 77.6453 36.4766C77.0411 36.9297 76.2572 37.1562 75.2937 37.1562C74.6166 37.1562 74.0177 37.0365 73.4968 36.7969C72.976 36.5573 72.5671 36.224 72.2703 35.7969C71.9786 35.3646 71.8328 34.8984 71.8328 34.3984H73.2781C73.3041 34.8828 73.4968 35.2682 73.8562 35.5547C74.2208 35.8359 74.7 35.9766 75.2937 35.9766C75.8406 35.9766 76.2781 35.8672 76.6062 35.6484C76.9395 35.4245 77.1062 35.1276 77.1062 34.7578ZM83.9421 37.1562C82.7963 37.1562 81.864 36.7812 81.1453 36.0312C80.4265 35.276 80.0671 34.2682 80.0671 33.0078V32.7422C80.0671 31.9036 80.226 31.1562 80.5437 30.5C80.8666 29.8385 81.3145 29.3229 81.8875 28.9531C82.4656 28.5781 83.0906 28.3906 83.7625 28.3906C84.8614 28.3906 85.7156 28.7526 86.325 29.4766C86.9343 30.2005 87.239 31.237 87.239 32.5859V33.1875H81.5125C81.5333 34.0208 81.7755 34.6953 82.239 35.2109C82.7078 35.7214 83.3015 35.9766 84.0203 35.9766C84.5307 35.9766 84.963 35.8724 85.3171 35.6641C85.6713 35.4557 85.9812 35.1797 86.2468 34.8359L87.1296 35.5234C86.4213 36.612 85.3588 37.1562 83.9421 37.1562ZM83.7625 29.5781C83.1791 29.5781 82.6895 29.7917 82.2937 30.2188C81.8979 30.6406 81.6531 31.2344 81.5593 32H85.7937V31.8906C85.752 31.1562 85.5541 30.5885 85.2 30.1875C84.8458 29.7812 84.3666 29.5781 83.7625 29.5781ZM101.864 31.6797C101.864 32.7943 101.677 33.7682 101.302 34.6016C100.927 35.4297 100.395 36.0625 99.7078 36.5C99.0203 36.9375 98.2182 37.1562 97.3015 37.1562C96.4057 37.1562 95.6114 36.9375 94.9187 36.5C94.226 36.0573 93.6869 35.4297 93.3015 34.6172C92.9213 33.7995 92.726 32.8542 92.7156 31.7812V30.9609C92.7156 29.8672 92.9057 28.901 93.2859 28.0625C93.6661 27.224 94.2026 26.5833 94.8953 26.1406C95.5932 25.6927 96.3901 25.4688 97.2859 25.4688C98.1973 25.4688 98.9994 25.6901 99.6921 26.1328C100.39 26.5703 100.927 27.2083 101.302 28.0469C101.677 28.8802 101.864 29.8516 101.864 30.9609V31.6797ZM100.372 30.9453C100.372 29.5964 100.101 28.5625 99.5593 27.8438C99.0177 27.1198 98.2598 26.7578 97.2859 26.7578C96.338 26.7578 95.5906 27.1198 95.0437 27.8438C94.502 28.5625 94.2234 29.5625 94.2078 30.8438V31.6797C94.2078 32.987 94.4812 34.0156 95.0281 34.7656C95.5802 35.5104 96.338 35.8828 97.3015 35.8828C98.2703 35.8828 99.0203 35.5312 99.5515 34.8281C100.083 34.1198 100.356 33.1068 100.372 31.7891V30.9453ZM111.755 26.8594H108.098V37H106.606V26.8594H102.958V25.625H111.755V26.8594ZM114.942 32.5469V37H113.442V25.625H117.637C118.882 25.625 119.856 25.9427 120.559 26.5781C121.268 27.2135 121.622 28.0547 121.622 29.1016C121.622 30.2057 121.275 31.0573 120.583 31.6562C119.895 32.25 118.908 32.5469 117.622 32.5469H114.942ZM114.942 31.3203H117.637C118.44 31.3203 119.054 31.1328 119.481 30.7578C119.908 30.3776 120.122 29.8307 120.122 29.1172C120.122 28.4401 119.908 27.8984 119.481 27.4922C119.054 27.0859 118.468 26.875 117.723 26.8594H114.942V31.3203ZM126.895 32.6953C126.895 31.8672 127.057 31.1224 127.38 30.4609C127.708 29.7995 128.161 29.2891 128.739 28.9297C129.322 28.5703 129.986 28.3906 130.731 28.3906C131.882 28.3906 132.812 28.7891 133.52 29.5859C134.234 30.3828 134.591 31.4427 134.591 32.7656V32.8672C134.591 33.6901 134.432 34.4297 134.114 35.0859C133.802 35.737 133.351 36.2448 132.762 36.6094C132.179 36.974 131.507 37.1562 130.747 37.1562C129.601 37.1562 128.671 36.7578 127.958 35.9609C127.249 35.1641 126.895 34.1094 126.895 32.7969V32.6953ZM128.348 32.8672C128.348 33.8047 128.565 34.5573 128.997 35.125C129.434 35.6927 130.018 35.9766 130.747 35.9766C131.481 35.9766 132.065 35.6901 132.497 35.1172C132.929 34.5391 133.145 33.7318 133.145 32.6953C133.145 31.7682 132.924 31.0182 132.481 30.4453C132.044 29.8672 131.46 29.5781 130.731 29.5781C130.018 29.5781 129.442 29.862 129.005 30.4297C128.567 30.9974 128.348 31.8099 128.348 32.8672ZM137.77 28.5469L137.817 29.6094C138.463 28.7969 139.307 28.3906 140.348 28.3906C142.135 28.3906 143.036 29.3984 143.052 31.4141V37H141.606V31.4062C141.601 30.7969 141.46 30.3464 141.184 30.0547C140.913 29.763 140.489 29.6172 139.911 29.6172C139.442 29.6172 139.031 29.7422 138.677 29.9922C138.322 30.2422 138.046 30.5703 137.848 30.9766V37H136.403V28.5469H137.77ZM151.161 26.5V28.5469H152.739V29.6641H151.161V34.9062C151.161 35.2448 151.231 35.5 151.372 35.6719C151.512 35.8385 151.752 35.9219 152.091 35.9219C152.257 35.9219 152.486 35.8906 152.778 35.8281V37C152.398 37.1042 152.028 37.1562 151.669 37.1562C151.023 37.1562 150.536 36.9609 150.208 36.5703C149.88 36.1797 149.716 35.625 149.716 34.9062V29.6641H148.177V28.5469H149.716V26.5H151.161ZM155.88 29.5703C156.52 28.7839 157.354 28.3906 158.38 28.3906C160.166 28.3906 161.067 29.3984 161.083 31.4141V37H159.637V31.4062C159.632 30.7969 159.492 30.3464 159.216 30.0547C158.945 29.763 158.52 29.6172 157.942 29.6172C157.473 29.6172 157.062 29.7422 156.708 29.9922C156.354 30.2422 156.078 30.5703 155.88 30.9766V37H154.434V25H155.88V29.5703ZM166.755 37.1562C165.609 37.1562 164.677 36.7812 163.958 36.0312C163.239 35.276 162.88 34.2682 162.88 33.0078V32.7422C162.88 31.9036 163.038 31.1562 163.356 30.5C163.679 29.8385 164.127 29.3229 164.7 28.9531C165.278 28.5781 165.903 28.3906 166.575 28.3906C167.674 28.3906 168.528 28.7526 169.137 29.4766C169.747 30.2005 170.052 31.237 170.052 32.5859V33.1875H164.325C164.346 34.0208 164.588 34.6953 165.052 35.2109C165.52 35.7214 166.114 35.9766 166.833 35.9766C167.343 35.9766 167.775 35.8724 168.13 35.6641C168.484 35.4557 168.794 35.1797 169.059 34.8359L169.942 35.5234C169.234 36.612 168.171 37.1562 166.755 37.1562ZM166.575 29.5781C165.992 29.5781 165.502 29.7917 165.106 30.2188C164.71 30.6406 164.466 31.2344 164.372 32H168.606V31.8906C168.565 31.1562 168.367 30.5885 168.012 30.1875C167.658 29.7812 167.179 29.5781 166.575 29.5781ZM182.208 34.0312H177.442L176.372 37H174.825L179.169 25.625H180.481L184.833 37H183.294L182.208 34.0312ZM177.895 32.7969H181.762L179.825 27.4766L177.895 32.7969ZM193.208 26.8594H189.552V37H188.059V26.8594H184.411V25.625H193.208V26.8594ZM196.833 25.625L200.552 34.9062L204.27 25.625H206.216V37H204.716V32.5703L204.856 27.7891L201.122 37H199.973L196.247 27.8125L196.395 32.5703V37H194.895V25.625H196.833ZM217.528 34.7578C217.528 34.3672 217.38 34.0651 217.083 33.8516C216.791 33.6328 216.278 33.4453 215.544 33.2891C214.815 33.1328 214.234 32.9453 213.802 32.7266C213.374 32.5078 213.057 32.2474 212.848 31.9453C212.645 31.6432 212.544 31.2839 212.544 30.8672C212.544 30.1745 212.835 29.5885 213.419 29.1094C214.007 28.6302 214.757 28.3906 215.669 28.3906C216.627 28.3906 217.403 28.638 217.997 29.1328C218.596 29.6276 218.895 30.2604 218.895 31.0312H217.442C217.442 30.6354 217.273 30.2943 216.934 30.0078C216.601 29.7214 216.179 29.5781 215.669 29.5781C215.143 29.5781 214.731 29.6927 214.434 29.9219C214.137 30.151 213.989 30.4505 213.989 30.8203C213.989 31.1693 214.127 31.4323 214.403 31.6094C214.679 31.7865 215.177 31.9557 215.895 32.1172C216.619 32.2786 217.205 32.4714 217.653 32.6953C218.101 32.9193 218.432 33.1901 218.645 33.5078C218.864 33.8203 218.973 34.2031 218.973 34.6562C218.973 35.4115 218.671 36.0182 218.067 36.4766C217.463 36.9297 216.679 37.1562 215.716 37.1562C215.038 37.1562 214.44 37.0365 213.919 36.7969C213.398 36.5573 212.989 36.224 212.692 35.7969C212.4 35.3646 212.255 34.8984 212.255 34.3984H213.7C213.726 34.8828 213.919 35.2682 214.278 35.5547C214.643 35.8359 215.122 35.9766 215.716 35.9766C216.262 35.9766 216.7 35.8672 217.028 35.6484C217.361 35.4245 217.528 35.1276 217.528 34.7578ZM224.247 35.9766C224.762 35.9766 225.213 35.8203 225.598 35.5078C225.984 35.1953 226.197 34.8047 226.239 34.3359H227.606C227.58 34.8203 227.413 35.2812 227.106 35.7188C226.799 36.1562 226.387 36.5052 225.872 36.7656C225.361 37.026 224.82 37.1562 224.247 37.1562C223.096 37.1562 222.179 36.7734 221.497 36.0078C220.82 35.237 220.481 34.1849 220.481 32.8516V32.6094C220.481 31.7865 220.632 31.0547 220.934 30.4141C221.236 29.7734 221.669 29.276 222.231 28.9219C222.799 28.5677 223.468 28.3906 224.239 28.3906C225.187 28.3906 225.973 28.6745 226.598 29.2422C227.229 29.8099 227.565 30.5469 227.606 31.4531H226.239C226.197 30.9062 225.989 30.4583 225.614 30.1094C225.244 29.7552 224.786 29.5781 224.239 29.5781C223.505 29.5781 222.934 29.8438 222.528 30.375C222.127 30.901 221.927 31.6641 221.927 32.6641V32.9375C221.927 33.9115 222.127 34.6615 222.528 35.1875C222.929 35.7135 223.502 35.9766 224.247 35.9766ZM233.317 29.8438C233.098 29.8073 232.861 29.7891 232.606 29.7891C231.658 29.7891 231.015 30.1927 230.677 31V37H229.231V28.5469H230.637L230.661 29.5234C231.135 28.7682 231.807 28.3906 232.677 28.3906C232.958 28.3906 233.171 28.4271 233.317 28.5V29.8438ZM238.005 37.1562C236.859 37.1562 235.927 36.7812 235.208 36.0312C234.489 35.276 234.13 34.2682 234.13 33.0078V32.7422C234.13 31.9036 234.288 31.1562 234.606 30.5C234.929 29.8385 235.377 29.3229 235.95 28.9531C236.528 28.5781 237.153 28.3906 237.825 28.3906C238.924 28.3906 239.778 28.7526 240.387 29.4766C240.997 30.2005 241.302 31.237 241.302 32.5859V33.1875H235.575C235.596 34.0208 235.838 34.6953 236.302 35.2109C236.77 35.7214 237.364 35.9766 238.083 35.9766C238.593 35.9766 239.025 35.8724 239.38 35.6641C239.734 35.4557 240.044 35.1797 240.309 34.8359L241.192 35.5234C240.484 36.612 239.421 37.1562 238.005 37.1562ZM237.825 29.5781C237.242 29.5781 236.752 29.7917 236.356 30.2188C235.96 30.6406 235.716 31.2344 235.622 32H239.856V31.8906C239.815 31.1562 239.617 30.5885 239.262 30.1875C238.908 29.7812 238.429 29.5781 237.825 29.5781ZM246.489 37.1562C245.343 37.1562 244.411 36.7812 243.692 36.0312C242.973 35.276 242.614 34.2682 242.614 33.0078V32.7422C242.614 31.9036 242.773 31.1562 243.091 30.5C243.413 29.8385 243.861 29.3229 244.434 28.9531C245.012 28.5781 245.637 28.3906 246.309 28.3906C247.408 28.3906 248.262 28.7526 248.872 29.4766C249.481 30.2005 249.786 31.237 249.786 32.5859V33.1875H244.059C244.08 34.0208 244.322 34.6953 244.786 35.2109C245.255 35.7214 245.848 35.9766 246.567 35.9766C247.078 35.9766 247.51 35.8724 247.864 35.6641C248.218 35.4557 248.528 35.1797 248.794 34.8359L249.677 35.5234C248.968 36.612 247.906 37.1562 246.489 37.1562ZM246.309 29.5781C245.726 29.5781 245.236 29.7917 244.841 30.2188C244.445 30.6406 244.2 31.2344 244.106 32H248.341V31.8906C248.299 31.1562 248.101 30.5885 247.747 30.1875C247.393 29.7812 246.913 29.5781 246.309 29.5781ZM252.833 28.5469L252.88 29.6094C253.525 28.7969 254.369 28.3906 255.411 28.3906C257.197 28.3906 258.098 29.3984 258.114 31.4141V37H256.669V31.4062C256.663 30.7969 256.523 30.3464 256.247 30.0547C255.976 29.763 255.552 29.6172 254.973 29.6172C254.505 29.6172 254.093 29.7422 253.739 29.9922C253.385 30.2422 253.109 30.5703 252.911 30.9766V37H251.466V28.5469H252.833ZM266.223 26.5V28.5469H267.802V29.6641H266.223V34.9062C266.223 35.2448 266.294 35.5 266.434 35.6719C266.575 35.8385 266.815 35.9219 267.153 35.9219C267.32 35.9219 267.549 35.8906 267.841 35.8281V37C267.46 37.1042 267.091 37.1562 266.731 37.1562C266.085 37.1562 265.598 36.9609 265.27 36.5703C264.942 36.1797 264.778 35.625 264.778 34.9062V29.6641H263.239V28.5469H264.778V26.5H266.223ZM268.958 32.6953C268.958 31.8672 269.119 31.1224 269.442 30.4609C269.77 29.7995 270.223 29.2891 270.802 28.9297C271.385 28.5703 272.049 28.3906 272.794 28.3906C273.945 28.3906 274.874 28.7891 275.583 29.5859C276.296 30.3828 276.653 31.4427 276.653 32.7656V32.8672C276.653 33.6901 276.494 34.4297 276.177 35.0859C275.864 35.737 275.413 36.2448 274.825 36.6094C274.242 36.974 273.57 37.1562 272.809 37.1562C271.663 37.1562 270.734 36.7578 270.02 35.9609C269.312 35.1641 268.958 34.1094 268.958 32.7969V32.6953ZM270.411 32.8672C270.411 33.8047 270.627 34.5573 271.059 35.125C271.497 35.6927 272.08 35.9766 272.809 35.9766C273.544 35.9766 274.127 35.6901 274.559 35.1172C274.992 34.5391 275.208 33.7318 275.208 32.6953C275.208 31.7682 274.986 31.0182 274.544 30.4453C274.106 29.8672 273.523 29.5781 272.794 29.5781C272.08 29.5781 271.505 29.862 271.067 30.4297C270.63 30.9974 270.411 31.8099 270.411 32.8672ZM289.919 35.0078L291.544 28.5469H292.989L290.528 37H289.356L287.302 30.5938L285.302 37H284.13L281.677 28.5469H283.114L284.778 34.875L286.747 28.5469H287.911L289.919 35.0078ZM296.036 37H294.591V28.5469H296.036V37ZM294.473 26.3047C294.473 26.0703 294.544 25.8724 294.684 25.7109C294.83 25.5495 295.044 25.4688 295.325 25.4688C295.606 25.4688 295.82 25.5495 295.966 25.7109C296.111 25.8724 296.184 26.0703 296.184 26.3047C296.184 26.5391 296.111 26.7344 295.966 26.8906C295.82 27.0469 295.606 27.125 295.325 27.125C295.044 27.125 294.83 27.0469 294.684 26.8906C294.544 26.7344 294.473 26.5391 294.473 26.3047ZM300.317 26.5V28.5469H301.895V29.6641H300.317V34.9062C300.317 35.2448 300.387 35.5 300.528 35.6719C300.669 35.8385 300.908 35.9219 301.247 35.9219C301.413 35.9219 301.643 35.8906 301.934 35.8281V37C301.554 37.1042 301.184 37.1562 300.825 37.1562C300.179 37.1562 299.692 36.9609 299.364 36.5703C299.036 36.1797 298.872 35.625 298.872 34.9062V29.6641H297.333V28.5469H298.872V26.5H300.317ZM305.036 29.5703C305.677 28.7839 306.51 28.3906 307.536 28.3906C309.322 28.3906 310.223 29.3984 310.239 31.4141V37H308.794V31.4062C308.788 30.7969 308.648 30.3464 308.372 30.0547C308.101 29.763 307.677 29.6172 307.098 29.6172C306.63 29.6172 306.218 29.7422 305.864 29.9922C305.51 30.2422 305.234 30.5703 305.036 30.9766V37H303.591V25H305.036V29.5703ZM312.052 32.7031C312.052 31.4062 312.359 30.3646 312.973 29.5781C313.588 28.7865 314.393 28.3906 315.387 28.3906C316.377 28.3906 317.161 28.7292 317.739 29.4062V25H319.184V37H317.856L317.786 36.0938C317.208 36.8021 316.403 37.1562 315.372 37.1562C314.393 37.1562 313.593 36.7552 312.973 35.9531C312.359 35.151 312.052 34.1042 312.052 32.8125V32.7031ZM313.497 32.8672C313.497 33.8255 313.695 34.5755 314.091 35.1172C314.486 35.6589 315.033 35.9297 315.731 35.9297C316.648 35.9297 317.317 35.5182 317.739 34.6953V30.8125C317.307 30.0156 316.643 29.6172 315.747 29.6172C315.038 29.6172 314.486 29.8906 314.091 30.4375C313.695 30.9844 313.497 31.7943 313.497 32.8672ZM325.52 29.8438C325.302 29.8073 325.065 29.7891 324.809 29.7891C323.861 29.7891 323.218 30.1927 322.88 31V37H321.434V28.5469H322.841L322.864 29.5234C323.338 28.7682 324.01 28.3906 324.88 28.3906C325.161 28.3906 325.374 28.4271 325.52 28.5V29.8438ZM331.762 37C331.679 36.8333 331.611 36.5365 331.559 36.1094C330.887 36.8073 330.085 37.1562 329.153 37.1562C328.32 37.1562 327.635 36.9219 327.098 36.4531C326.567 35.9792 326.302 35.3802 326.302 34.6562C326.302 33.776 326.635 33.0938 327.302 32.6094C327.973 32.1198 328.916 31.875 330.13 31.875H331.536V31.2109C331.536 30.7057 331.385 30.3047 331.083 30.0078C330.781 29.7057 330.335 29.5547 329.747 29.5547C329.231 29.5547 328.799 29.6849 328.45 29.9453C328.101 30.2057 327.927 30.5208 327.927 30.8906H326.473C326.473 30.4688 326.622 30.0625 326.919 29.6719C327.221 29.276 327.627 28.9635 328.137 28.7344C328.653 28.5052 329.218 28.3906 329.833 28.3906C330.807 28.3906 331.57 28.6354 332.122 29.125C332.674 29.6094 332.96 30.2786 332.981 31.1328V35.0234C332.981 35.7995 333.08 36.4167 333.278 36.875V37H331.762ZM329.364 35.8984C329.817 35.8984 330.247 35.7812 330.653 35.5469C331.059 35.3125 331.354 35.0078 331.536 34.6328V32.8984H330.403C328.632 32.8984 327.747 33.4167 327.747 34.4531C327.747 34.9062 327.898 35.2604 328.2 35.5156C328.502 35.7708 328.89 35.8984 329.364 35.8984ZM342.731 35.0078L344.356 28.5469H345.802L343.341 37H342.169L340.114 30.5938L338.114 37H336.942L334.489 28.5469H335.927L337.591 34.875L339.559 28.5469H340.723L342.731 35.0078ZM353.208 26.5V28.5469H354.786V29.6641H353.208V34.9062C353.208 35.2448 353.278 35.5 353.419 35.6719C353.559 35.8385 353.799 35.9219 354.137 35.9219C354.304 35.9219 354.533 35.8906 354.825 35.8281V37C354.445 37.1042 354.075 37.1562 353.716 37.1562C353.07 37.1562 352.583 36.9609 352.255 36.5703C351.927 36.1797 351.762 35.625 351.762 34.9062V29.6641H350.223V28.5469H351.762V26.5H353.208ZM357.927 29.5703C358.567 28.7839 359.4 28.3906 360.427 28.3906C362.213 28.3906 363.114 29.3984 363.13 31.4141V37H361.684V31.4062C361.679 30.7969 361.538 30.3464 361.262 30.0547C360.992 29.763 360.567 29.6172 359.989 29.6172C359.52 29.6172 359.109 29.7422 358.755 29.9922C358.4 30.2422 358.124 30.5703 357.927 30.9766V37H356.481V25H357.927V29.5703ZM368.802 37.1562C367.656 37.1562 366.723 36.7812 366.005 36.0312C365.286 35.276 364.927 34.2682 364.927 33.0078V32.7422C364.927 31.9036 365.085 31.1562 365.403 30.5C365.726 29.8385 366.174 29.3229 366.747 28.9531C367.325 28.5781 367.95 28.3906 368.622 28.3906C369.721 28.3906 370.575 28.7526 371.184 29.4766C371.794 30.2005 372.098 31.237 372.098 32.5859V33.1875H366.372C366.393 34.0208 366.635 34.6953 367.098 35.2109C367.567 35.7214 368.161 35.9766 368.88 35.9766C369.39 35.9766 369.822 35.8724 370.177 35.6641C370.531 35.4557 370.841 35.1797 371.106 34.8359L371.989 35.5234C371.281 36.612 370.218 37.1562 368.802 37.1562ZM368.622 29.5781C368.038 29.5781 367.549 29.7917 367.153 30.2188C366.757 30.6406 366.512 31.2344 366.419 32H370.653V31.8906C370.611 31.1562 370.413 30.5885 370.059 30.1875C369.705 29.7812 369.226 29.5781 368.622 29.5781ZM379.106 28.5469L379.145 29.4844C379.765 28.7552 380.601 28.3906 381.653 28.3906C382.835 28.3906 383.64 28.8438 384.067 29.75C384.348 29.3438 384.713 29.0156 385.161 28.7656C385.614 28.5156 386.148 28.3906 386.762 28.3906C388.617 28.3906 389.559 29.3724 389.591 31.3359V37H388.145V31.4219C388.145 30.8177 388.007 30.3672 387.731 30.0703C387.455 29.7682 386.992 29.6172 386.341 29.6172C385.804 29.6172 385.359 29.7786 385.005 30.1016C384.65 30.4193 384.445 30.849 384.387 31.3906V37H382.934V31.4609C382.934 30.2318 382.333 29.6172 381.13 29.6172C380.182 29.6172 379.533 30.0208 379.184 30.8281V37H377.739V28.5469H379.106ZM391.395 32.6953C391.395 31.8672 391.557 31.1224 391.88 30.4609C392.208 29.7995 392.661 29.2891 393.239 28.9297C393.822 28.5703 394.486 28.3906 395.231 28.3906C396.382 28.3906 397.312 28.7891 398.02 29.5859C398.734 30.3828 399.091 31.4427 399.091 32.7656V32.8672C399.091 33.6901 398.932 34.4297 398.614 35.0859C398.302 35.737 397.851 36.2448 397.262 36.6094C396.679 36.974 396.007 37.1562 395.247 37.1562C394.101 37.1562 393.171 36.7578 392.458 35.9609C391.749 35.1641 391.395 34.1094 391.395 32.7969V32.6953ZM392.848 32.8672C392.848 33.8047 393.065 34.5573 393.497 35.125C393.934 35.6927 394.518 35.9766 395.247 35.9766C395.981 35.9766 396.565 35.6901 396.997 35.1172C397.429 34.5391 397.645 33.7318 397.645 32.6953C397.645 31.7682 397.424 31.0182 396.981 30.4453C396.544 29.8672 395.96 29.5781 395.231 29.5781C394.518 29.5781 393.942 29.862 393.505 30.4297C393.067 30.9974 392.848 31.8099 392.848 32.8672ZM402.27 28.5469L402.317 29.6094C402.963 28.7969 403.807 28.3906 404.848 28.3906C406.635 28.3906 407.536 29.3984 407.552 31.4141V37H406.106V31.4062C406.101 30.7969 405.96 30.3464 405.684 30.0547C405.413 29.763 404.989 29.6172 404.411 29.6172C403.942 29.6172 403.531 29.7422 403.177 29.9922C402.822 30.2422 402.546 30.5703 402.348 30.9766V37H400.903V28.5469H402.27ZM413.239 37.1562C412.093 37.1562 411.161 36.7812 410.442 36.0312C409.723 35.276 409.364 34.2682 409.364 33.0078V32.7422C409.364 31.9036 409.523 31.1562 409.841 30.5C410.163 29.8385 410.611 29.3229 411.184 28.9531C411.762 28.5781 412.387 28.3906 413.059 28.3906C414.158 28.3906 415.012 28.7526 415.622 29.4766C416.231 30.2005 416.536 31.237 416.536 32.5859V33.1875H410.809C410.83 34.0208 411.072 34.6953 411.536 35.2109C412.005 35.7214 412.598 35.9766 413.317 35.9766C413.828 35.9766 414.26 35.8724 414.614 35.6641C414.968 35.4557 415.278 35.1797 415.544 34.8359L416.427 35.5234C415.718 36.612 414.656 37.1562 413.239 37.1562ZM413.059 29.5781C412.476 29.5781 411.986 29.7917 411.591 30.2188C411.195 30.6406 410.95 31.2344 410.856 32H415.091V31.8906C415.049 31.1562 414.851 30.5885 414.497 30.1875C414.143 29.7812 413.663 29.5781 413.059 29.5781ZM420.872 34.8828L422.841 28.5469H424.387L420.989 38.3047C420.463 39.7109 419.627 40.4141 418.481 40.4141L418.208 40.3906L417.669 40.2891V39.1172L418.059 39.1484C418.549 39.1484 418.929 39.0495 419.2 38.8516C419.476 38.6536 419.703 38.2917 419.88 37.7656L420.2 36.9062L417.184 28.5469H418.762L420.872 34.8828ZM424.872 36.2422C424.872 35.9922 424.945 35.7839 425.091 35.6172C425.242 35.4505 425.466 35.3672 425.762 35.3672C426.059 35.3672 426.283 35.4505 426.434 35.6172C426.591 35.7839 426.669 35.9922 426.669 36.2422C426.669 36.4818 426.591 36.6823 426.434 36.8438C426.283 37.0052 426.059 37.0859 425.762 37.0859C425.466 37.0859 425.242 37.0052 425.091 36.8438C424.945 36.6823 424.872 36.4818 424.872 36.2422Z" fill="#656668"/>
<path d="M28.7589 49H31.6389V43.848H34.8389V41.32H31.6389V26.088H28.1509L16.9189 41.64V43.848H28.7589V49ZM20.2789 41.32L28.8869 29.128V41.32H20.2789Z" fill="#656668"/>
</svg>
