<svg width="630" height="113" viewBox="0 0 630 113" fill="none" xmlns="http://www.w3.org/2000/svg">
<g filter="url(#filter0_d)">
<rect x="19" y="16" width="592" height="75" rx="24" fill="white"/>
</g>
<path d="M87.5938 49.9766H82.8203V55H81.3203V43.625H88.3672V44.8594H82.8203V48.75H87.5938V49.9766ZM89.3828 50.6953C89.3828 49.8672 89.5443 49.1224 89.8672 48.4609C90.1953 47.7995 90.6484 47.2891 91.2266 46.9297C91.8099 46.5703 92.474 46.3906 93.2188 46.3906C94.3698 46.3906 95.2995 46.7891 96.0078 47.5859C96.7214 48.3828 97.0781 49.4427 97.0781 50.7656V50.8672C97.0781 51.6901 96.9193 52.4297 96.6016 53.0859C96.2891 53.737 95.8385 54.2448 95.25 54.6094C94.6667 54.974 93.9948 55.1562 93.2344 55.1562C92.0885 55.1562 91.1589 54.7578 90.4453 53.9609C89.737 53.1641 89.3828 52.1094 89.3828 50.7969V50.6953ZM90.8359 50.8672C90.8359 51.8047 91.0521 52.5573 91.4844 53.125C91.9219 53.6927 92.5052 53.9766 93.2344 53.9766C93.9688 53.9766 94.5521 53.6901 94.9844 53.1172C95.4167 52.5391 95.6328 51.7318 95.6328 50.6953C95.6328 49.7682 95.4115 49.0182 94.9688 48.4453C94.5312 47.8672 93.9479 47.5781 93.2188 47.5781C92.5052 47.5781 91.9297 47.862 91.4922 48.4297C91.0547 48.9974 90.8359 49.8099 90.8359 50.8672ZM100.461 55H99.0156V43H100.461V55ZM104.352 55H102.906V43H104.352V55ZM106.289 50.6953C106.289 49.8672 106.451 49.1224 106.773 48.4609C107.102 47.7995 107.555 47.2891 108.133 46.9297C108.716 46.5703 109.38 46.3906 110.125 46.3906C111.276 46.3906 112.206 46.7891 112.914 47.5859C113.628 48.3828 113.984 49.4427 113.984 50.7656V50.8672C113.984 51.6901 113.826 52.4297 113.508 53.0859C113.195 53.737 112.745 54.2448 112.156 54.6094C111.573 54.974 110.901 55.1562 110.141 55.1562C108.995 55.1562 108.065 54.7578 107.352 53.9609C106.643 53.1641 106.289 52.1094 106.289 50.7969V50.6953ZM107.742 50.8672C107.742 51.8047 107.958 52.5573 108.391 53.125C108.828 53.6927 109.411 53.9766 110.141 53.9766C110.875 53.9766 111.458 53.6901 111.891 53.1172C112.323 52.5391 112.539 51.7318 112.539 50.6953C112.539 49.7682 112.318 49.0182 111.875 48.4453C111.438 47.8672 110.854 47.5781 110.125 47.5781C109.411 47.5781 108.836 47.862 108.398 48.4297C107.961 48.9974 107.742 49.8099 107.742 50.8672ZM123.281 53.0078L124.906 46.5469H126.352L123.891 55H122.719L120.664 48.5938L118.664 55H117.492L115.039 46.5469H116.477L118.141 52.875L120.109 46.5469H121.273L123.281 53.0078ZM133.758 44.5V46.5469H135.336V47.6641H133.758V52.9062C133.758 53.2448 133.828 53.5 133.969 53.6719C134.109 53.8385 134.349 53.9219 134.688 53.9219C134.854 53.9219 135.083 53.8906 135.375 53.8281V55C134.995 55.1042 134.625 55.1562 134.266 55.1562C133.62 55.1562 133.133 54.9609 132.805 54.5703C132.477 54.1797 132.312 53.625 132.312 52.9062V47.6641H130.773V46.5469H132.312V44.5H133.758ZM138.477 47.5703C139.117 46.7839 139.951 46.3906 140.977 46.3906C142.763 46.3906 143.664 47.3984 143.68 49.4141V55H142.234V49.4062C142.229 48.7969 142.089 48.3464 141.812 48.0547C141.542 47.763 141.117 47.6172 140.539 47.6172C140.07 47.6172 139.659 47.7422 139.305 47.9922C138.951 48.2422 138.674 48.5703 138.477 48.9766V55H137.031V43H138.477V47.5703ZM149.352 55.1562C148.206 55.1562 147.273 54.7812 146.555 54.0312C145.836 53.276 145.477 52.2682 145.477 51.0078V50.7422C145.477 49.9036 145.635 49.1562 145.953 48.5C146.276 47.8385 146.724 47.3229 147.297 46.9531C147.875 46.5781 148.5 46.3906 149.172 46.3906C150.271 46.3906 151.125 46.7526 151.734 47.4766C152.344 48.2005 152.648 49.237 152.648 50.5859V51.1875H146.922C146.943 52.0208 147.185 52.6953 147.648 53.2109C148.117 53.7214 148.711 53.9766 149.43 53.9766C149.94 53.9766 150.372 53.8724 150.727 53.6641C151.081 53.4557 151.391 53.1797 151.656 52.8359L152.539 53.5234C151.831 54.612 150.768 55.1562 149.352 55.1562ZM149.172 47.5781C148.589 47.5781 148.099 47.7917 147.703 48.2188C147.307 48.6406 147.062 49.2344 146.969 50H151.203V49.8906C151.161 49.1562 150.964 48.5885 150.609 48.1875C150.255 47.7812 149.776 47.5781 149.172 47.5781ZM164.805 52.0312H160.039L158.969 55H157.422L161.766 43.625H163.078L167.43 55H165.891L164.805 52.0312ZM160.492 50.7969H164.359L162.422 45.4766L160.492 50.7969ZM175.805 44.8594H172.148V55H170.656V44.8594H167.008V43.625H175.805V44.8594ZM179.43 43.625L183.148 52.9062L186.867 43.625H188.812V55H187.312V50.5703L187.453 45.7891L183.719 55H182.57L178.844 45.8125L178.992 50.5703V55H177.492V43.625H179.43ZM202.688 53.0078L204.312 46.5469H205.758L203.297 55H202.125L200.07 48.5938L198.07 55H196.898L194.445 46.5469H195.883L197.547 52.875L199.516 46.5469H200.68L202.688 53.0078ZM208.805 55H207.359V46.5469H208.805V55ZM207.242 44.3047C207.242 44.0703 207.312 43.8724 207.453 43.7109C207.599 43.5495 207.812 43.4688 208.094 43.4688C208.375 43.4688 208.589 43.5495 208.734 43.7109C208.88 43.8724 208.953 44.0703 208.953 44.3047C208.953 44.5391 208.88 44.7344 208.734 44.8906C208.589 45.0469 208.375 45.125 208.094 45.125C207.812 45.125 207.599 45.0469 207.453 44.8906C207.312 44.7344 207.242 44.5391 207.242 44.3047ZM213.086 44.5V46.5469H214.664V47.6641H213.086V52.9062C213.086 53.2448 213.156 53.5 213.297 53.6719C213.438 53.8385 213.677 53.9219 214.016 53.9219C214.182 53.9219 214.411 53.8906 214.703 53.8281V55C214.323 55.1042 213.953 55.1562 213.594 55.1562C212.948 55.1562 212.461 54.9609 212.133 54.5703C211.805 54.1797 211.641 53.625 211.641 52.9062V47.6641H210.102V46.5469H211.641V44.5H213.086ZM217.805 47.5703C218.445 46.7839 219.279 46.3906 220.305 46.3906C222.091 46.3906 222.992 47.3984 223.008 49.4141V55H221.562V49.4062C221.557 48.7969 221.417 48.3464 221.141 48.0547C220.87 47.763 220.445 47.6172 219.867 47.6172C219.398 47.6172 218.987 47.7422 218.633 47.9922C218.279 48.2422 218.003 48.5703 217.805 48.9766V55H216.359V43H217.805V47.5703ZM224.82 50.7031C224.82 49.4062 225.128 48.3646 225.742 47.5781C226.357 46.7865 227.161 46.3906 228.156 46.3906C229.146 46.3906 229.93 46.7292 230.508 47.4062V43H231.953V55H230.625L230.555 54.0938C229.977 54.8021 229.172 55.1562 228.141 55.1562C227.161 55.1562 226.362 54.7552 225.742 53.9531C225.128 53.151 224.82 52.1042 224.82 50.8125V50.7031ZM226.266 50.8672C226.266 51.8255 226.464 52.5755 226.859 53.1172C227.255 53.6589 227.802 53.9297 228.5 53.9297C229.417 53.9297 230.086 53.5182 230.508 52.6953V48.8125C230.076 48.0156 229.411 47.6172 228.516 47.6172C227.807 47.6172 227.255 47.8906 226.859 48.4375C226.464 48.9844 226.266 49.7943 226.266 50.8672ZM238.289 47.8438C238.07 47.8073 237.833 47.7891 237.578 47.7891C236.63 47.7891 235.987 48.1927 235.648 49V55H234.203V46.5469H235.609L235.633 47.5234C236.107 46.7682 236.779 46.3906 237.648 46.3906C237.93 46.3906 238.143 46.4271 238.289 46.5V47.8438ZM244.531 55C244.448 54.8333 244.38 54.5365 244.328 54.1094C243.656 54.8073 242.854 55.1562 241.922 55.1562C241.089 55.1562 240.404 54.9219 239.867 54.4531C239.336 53.9792 239.07 53.3802 239.07 52.6562C239.07 51.776 239.404 51.0938 240.07 50.6094C240.742 50.1198 241.685 49.875 242.898 49.875H244.305V49.2109C244.305 48.7057 244.154 48.3047 243.852 48.0078C243.549 47.7057 243.104 47.5547 242.516 47.5547C242 47.5547 241.568 47.6849 241.219 47.9453C240.87 48.2057 240.695 48.5208 240.695 48.8906H239.242C239.242 48.4688 239.391 48.0625 239.688 47.6719C239.99 47.276 240.396 46.9635 240.906 46.7344C241.422 46.5052 241.987 46.3906 242.602 46.3906C243.576 46.3906 244.339 46.6354 244.891 47.125C245.443 47.6094 245.729 48.2786 245.75 49.1328V53.0234C245.75 53.7995 245.849 54.4167 246.047 54.875V55H244.531ZM242.133 53.8984C242.586 53.8984 243.016 53.7812 243.422 53.5469C243.828 53.3125 244.122 53.0078 244.305 52.6328V50.8984H243.172C241.401 50.8984 240.516 51.4167 240.516 52.4531C240.516 52.9062 240.667 53.2604 240.969 53.5156C241.271 53.7708 241.659 53.8984 242.133 53.8984ZM255.5 53.0078L257.125 46.5469H258.57L256.109 55H254.938L252.883 48.5938L250.883 55H249.711L247.258 46.5469H248.695L250.359 52.875L252.328 46.5469H253.492L255.5 53.0078ZM265.266 55C265.182 54.8333 265.115 54.5365 265.062 54.1094C264.391 54.8073 263.589 55.1562 262.656 55.1562C261.823 55.1562 261.138 54.9219 260.602 54.4531C260.07 53.9792 259.805 53.3802 259.805 52.6562C259.805 51.776 260.138 51.0938 260.805 50.6094C261.477 50.1198 262.419 49.875 263.633 49.875H265.039V49.2109C265.039 48.7057 264.888 48.3047 264.586 48.0078C264.284 47.7057 263.839 47.5547 263.25 47.5547C262.734 47.5547 262.302 47.6849 261.953 47.9453C261.604 48.2057 261.43 48.5208 261.43 48.8906H259.977C259.977 48.4688 260.125 48.0625 260.422 47.6719C260.724 47.276 261.13 46.9635 261.641 46.7344C262.156 46.5052 262.721 46.3906 263.336 46.3906C264.31 46.3906 265.073 46.6354 265.625 47.125C266.177 47.6094 266.464 48.2786 266.484 49.1328V53.0234C266.484 53.7995 266.583 54.4167 266.781 54.875V55H265.266ZM262.867 53.8984C263.32 53.8984 263.75 53.7812 264.156 53.5469C264.562 53.3125 264.857 53.0078 265.039 52.6328V50.8984H263.906C262.135 50.8984 261.25 51.4167 261.25 52.4531C261.25 52.9062 261.401 53.2604 261.703 53.5156C262.005 53.7708 262.393 53.8984 262.867 53.8984ZM270.32 55H268.875V43H270.32V55ZM278.18 55H276.734V46.5469H278.18V55ZM276.617 44.3047C276.617 44.0703 276.688 43.8724 276.828 43.7109C276.974 43.5495 277.188 43.4688 277.469 43.4688C277.75 43.4688 277.964 43.5495 278.109 43.7109C278.255 43.8724 278.328 44.0703 278.328 44.3047C278.328 44.5391 278.255 44.7344 278.109 44.8906C277.964 45.0469 277.75 45.125 277.469 45.125C277.188 45.125 276.974 45.0469 276.828 44.8906C276.688 44.7344 276.617 44.5391 276.617 44.3047ZM281.867 46.5469L281.914 47.6094C282.56 46.7969 283.404 46.3906 284.445 46.3906C286.232 46.3906 287.133 47.3984 287.148 49.4141V55H285.703V49.4062C285.698 48.7969 285.557 48.3464 285.281 48.0547C285.01 47.763 284.586 47.6172 284.008 47.6172C283.539 47.6172 283.128 47.7422 282.773 47.9922C282.419 48.2422 282.143 48.5703 281.945 48.9766V55H280.5V46.5469H281.867ZM294.25 52.7578C294.25 52.3672 294.102 52.0651 293.805 51.8516C293.513 51.6328 293 51.4453 292.266 51.2891C291.536 51.1328 290.956 50.9453 290.523 50.7266C290.096 50.5078 289.779 50.2474 289.57 49.9453C289.367 49.6432 289.266 49.2839 289.266 48.8672C289.266 48.1745 289.557 47.5885 290.141 47.1094C290.729 46.6302 291.479 46.3906 292.391 46.3906C293.349 46.3906 294.125 46.638 294.719 47.1328C295.318 47.6276 295.617 48.2604 295.617 49.0312H294.164C294.164 48.6354 293.995 48.2943 293.656 48.0078C293.323 47.7214 292.901 47.5781 292.391 47.5781C291.865 47.5781 291.453 47.6927 291.156 47.9219C290.859 48.151 290.711 48.4505 290.711 48.8203C290.711 49.1693 290.849 49.4323 291.125 49.6094C291.401 49.7865 291.898 49.9557 292.617 50.1172C293.341 50.2786 293.927 50.4714 294.375 50.6953C294.823 50.9193 295.154 51.1901 295.367 51.5078C295.586 51.8203 295.695 52.2031 295.695 52.6562C295.695 53.4115 295.393 54.0182 294.789 54.4766C294.185 54.9297 293.401 55.1562 292.438 55.1562C291.76 55.1562 291.161 55.0365 290.641 54.7969C290.12 54.5573 289.711 54.224 289.414 53.7969C289.122 53.3646 288.977 52.8984 288.977 52.3984H290.422C290.448 52.8828 290.641 53.2682 291 53.5547C291.365 53.8359 291.844 53.9766 292.438 53.9766C292.984 53.9766 293.422 53.8672 293.75 53.6484C294.083 53.4245 294.25 53.1276 294.25 52.7578ZM299.539 44.5V46.5469H301.117V47.6641H299.539V52.9062C299.539 53.2448 299.609 53.5 299.75 53.6719C299.891 53.8385 300.13 53.9219 300.469 53.9219C300.635 53.9219 300.865 53.8906 301.156 53.8281V55C300.776 55.1042 300.406 55.1562 300.047 55.1562C299.401 55.1562 298.914 54.9609 298.586 54.5703C298.258 54.1797 298.094 53.625 298.094 52.9062V47.6641H296.555V46.5469H298.094V44.5H299.539ZM306.898 47.8438C306.68 47.8073 306.443 47.7891 306.188 47.7891C305.24 47.7891 304.596 48.1927 304.258 49V55H302.812V46.5469H304.219L304.242 47.5234C304.716 46.7682 305.388 46.3906 306.258 46.3906C306.539 46.3906 306.753 46.4271 306.898 46.5V47.8438ZM313.453 54.1641C312.891 54.8255 312.065 55.1562 310.977 55.1562C310.076 55.1562 309.388 54.8958 308.914 54.375C308.445 53.849 308.208 53.0729 308.203 52.0469V46.5469H309.648V52.0078C309.648 53.2891 310.169 53.9297 311.211 53.9297C312.315 53.9297 313.049 53.5182 313.414 52.6953V46.5469H314.859V55H313.484L313.453 54.1641ZM320.453 53.9766C320.969 53.9766 321.419 53.8203 321.805 53.5078C322.19 53.1953 322.404 52.8047 322.445 52.3359H323.812C323.786 52.8203 323.62 53.2812 323.312 53.7188C323.005 54.1562 322.594 54.5052 322.078 54.7656C321.568 55.026 321.026 55.1562 320.453 55.1562C319.302 55.1562 318.385 54.7734 317.703 54.0078C317.026 53.237 316.688 52.1849 316.688 50.8516V50.6094C316.688 49.7865 316.839 49.0547 317.141 48.4141C317.443 47.7734 317.875 47.276 318.438 46.9219C319.005 46.5677 319.674 46.3906 320.445 46.3906C321.393 46.3906 322.18 46.6745 322.805 47.2422C323.435 47.8099 323.771 48.5469 323.812 49.4531H322.445C322.404 48.9062 322.195 48.4583 321.82 48.1094C321.451 47.7552 320.992 47.5781 320.445 47.5781C319.711 47.5781 319.141 47.8438 318.734 48.375C318.333 48.901 318.133 49.6641 318.133 50.6641V50.9375C318.133 51.9115 318.333 52.6615 318.734 53.1875C319.135 53.7135 319.708 53.9766 320.453 53.9766ZM327.398 44.5V46.5469H328.977V47.6641H327.398V52.9062C327.398 53.2448 327.469 53.5 327.609 53.6719C327.75 53.8385 327.99 53.9219 328.328 53.9219C328.495 53.9219 328.724 53.8906 329.016 53.8281V55C328.635 55.1042 328.266 55.1562 327.906 55.1562C327.26 55.1562 326.773 54.9609 326.445 54.5703C326.117 54.1797 325.953 53.625 325.953 52.9062V47.6641H324.414V46.5469H325.953V44.5H327.398ZM332.242 55H330.797V46.5469H332.242V55ZM330.68 44.3047C330.68 44.0703 330.75 43.8724 330.891 43.7109C331.036 43.5495 331.25 43.4688 331.531 43.4688C331.812 43.4688 332.026 43.5495 332.172 43.7109C332.318 43.8724 332.391 44.0703 332.391 44.3047C332.391 44.5391 332.318 44.7344 332.172 44.8906C332.026 45.0469 331.812 45.125 331.531 45.125C331.25 45.125 331.036 45.0469 330.891 44.8906C330.75 44.7344 330.68 44.5391 330.68 44.3047ZM334.18 50.6953C334.18 49.8672 334.341 49.1224 334.664 48.4609C334.992 47.7995 335.445 47.2891 336.023 46.9297C336.607 46.5703 337.271 46.3906 338.016 46.3906C339.167 46.3906 340.096 46.7891 340.805 47.5859C341.518 48.3828 341.875 49.4427 341.875 50.7656V50.8672C341.875 51.6901 341.716 52.4297 341.398 53.0859C341.086 53.737 340.635 54.2448 340.047 54.6094C339.464 54.974 338.792 55.1562 338.031 55.1562C336.885 55.1562 335.956 54.7578 335.242 53.9609C334.534 53.1641 334.18 52.1094 334.18 50.7969V50.6953ZM335.633 50.8672C335.633 51.8047 335.849 52.5573 336.281 53.125C336.719 53.6927 337.302 53.9766 338.031 53.9766C338.766 53.9766 339.349 53.6901 339.781 53.1172C340.214 52.5391 340.43 51.7318 340.43 50.6953C340.43 49.7682 340.208 49.0182 339.766 48.4453C339.328 47.8672 338.745 47.5781 338.016 47.5781C337.302 47.5781 336.727 47.862 336.289 48.4297C335.852 48.9974 335.633 49.8099 335.633 50.8672ZM345.055 46.5469L345.102 47.6094C345.747 46.7969 346.591 46.3906 347.633 46.3906C349.419 46.3906 350.32 47.3984 350.336 49.4141V55H348.891V49.4062C348.885 48.7969 348.745 48.3464 348.469 48.0547C348.198 47.763 347.773 47.6172 347.195 47.6172C346.727 47.6172 346.315 47.7422 345.961 47.9922C345.607 48.2422 345.331 48.5703 345.133 48.9766V55H343.688V46.5469H345.055ZM357.438 52.7578C357.438 52.3672 357.289 52.0651 356.992 51.8516C356.701 51.6328 356.188 51.4453 355.453 51.2891C354.724 51.1328 354.143 50.9453 353.711 50.7266C353.284 50.5078 352.966 50.2474 352.758 49.9453C352.555 49.6432 352.453 49.2839 352.453 48.8672C352.453 48.1745 352.745 47.5885 353.328 47.1094C353.917 46.6302 354.667 46.3906 355.578 46.3906C356.536 46.3906 357.312 46.638 357.906 47.1328C358.505 47.6276 358.805 48.2604 358.805 49.0312H357.352C357.352 48.6354 357.182 48.2943 356.844 48.0078C356.51 47.7214 356.089 47.5781 355.578 47.5781C355.052 47.5781 354.641 47.6927 354.344 47.9219C354.047 48.151 353.898 48.4505 353.898 48.8203C353.898 49.1693 354.036 49.4323 354.312 49.6094C354.589 49.7865 355.086 49.9557 355.805 50.1172C356.529 50.2786 357.115 50.4714 357.562 50.6953C358.01 50.9193 358.341 51.1901 358.555 51.5078C358.773 51.8203 358.883 52.2031 358.883 52.6562C358.883 53.4115 358.581 54.0182 357.977 54.4766C357.372 54.9297 356.589 55.1562 355.625 55.1562C354.948 55.1562 354.349 55.0365 353.828 54.7969C353.307 54.5573 352.898 54.224 352.602 53.7969C352.31 53.3646 352.164 52.8984 352.164 52.3984H353.609C353.635 52.8828 353.828 53.2682 354.188 53.5547C354.552 53.8359 355.031 53.9766 355.625 53.9766C356.172 53.9766 356.609 53.8672 356.938 53.6484C357.271 53.4245 357.438 53.1276 357.438 52.7578ZM360.797 54.2422C360.797 53.9922 360.87 53.7839 361.016 53.6172C361.167 53.4505 361.391 53.3672 361.688 53.3672C361.984 53.3672 362.208 53.4505 362.359 53.6172C362.516 53.7839 362.594 53.9922 362.594 54.2422C362.594 54.4818 362.516 54.6823 362.359 54.8438C362.208 55.0052 361.984 55.0859 361.688 55.0859C361.391 55.0859 361.167 55.0052 361.016 54.8438C360.87 54.6823 360.797 54.4818 360.797 54.2422Z" fill="#6654A4"/>
<path d="M38.1105 63.744H53.5025V61.312H42.4945C46.6225 57.952 52.8305 53.056 52.8305 47.296C52.8305 43.008 50.0145 40.448 45.6625 40.448C41.5025 40.448 38.3985 43.008 38.2065 47.936H41.0225C41.1505 45.024 42.6865 42.944 45.6945 42.944C48.8305 42.944 49.9505 44.864 49.9505 47.424C49.9505 52.16 44.1905 56.768 38.1105 61.664V63.744Z" fill="#6654A4"/>
<defs>
<filter id="filter0_d" x="0" y="0" width="630" height="113" filterUnits="userSpaceOnUse" color-interpolation-filters="sRGB">
<feFlood flood-opacity="0" result="BackgroundImageFix"/>
<feColorMatrix in="SourceAlpha" type="matrix" values="0 0 0 0 0 0 0 0 0 0 0 0 0 0 0 0 0 0 127 0"/>
<feMorphology radius="4" operator="dilate" in="SourceAlpha" result="effect1_dropShadow"/>
<feOffset dy="3"/>
<feGaussianBlur stdDeviation="7.5"/>
<feColorMatrix type="matrix" values="0 0 0 0 0.872109 0 0 0 0 0.853125 0 0 0 0 0.9375 0 0 0 0.5 0"/>
<feBlend mode="normal" in2="BackgroundImageFix" result="effect1_dropShadow"/>
<feBlend mode="normal" in="SourceGraphic" in2="effect1_dropShadow" result="shape"/>
</filter>
</defs>
</svg>
