<svg width="557" height="75" viewBox="0 0 557 75" fill="none" xmlns="http://www.w3.org/2000/svg">
<path d="M68.5938 33.9766H63.8203V39H62.3203V27.625H69.3672V28.8594H63.8203V32.75H68.5938V33.9766ZM70.3828 34.6953C70.3828 33.8672 70.5443 33.1224 70.8672 32.4609C71.1953 31.7995 71.6484 31.2891 72.2266 30.9297C72.8099 30.5703 73.474 30.3906 74.2188 30.3906C75.3698 30.3906 76.2995 30.7891 77.0078 31.5859C77.7214 32.3828 78.0781 33.4427 78.0781 34.7656V34.8672C78.0781 35.6901 77.9193 36.4297 77.6016 37.0859C77.2891 37.737 76.8385 38.2448 76.25 38.6094C75.6667 38.974 74.9948 39.1562 74.2344 39.1562C73.0885 39.1562 72.1589 38.7578 71.4453 37.9609C70.737 37.1641 70.3828 36.1094 70.3828 34.7969V34.6953ZM71.8359 34.8672C71.8359 35.8047 72.0521 36.5573 72.4844 37.125C72.9219 37.6927 73.5052 37.9766 74.2344 37.9766C74.9688 37.9766 75.5521 37.6901 75.9844 37.1172C76.4167 36.5391 76.6328 35.7318 76.6328 34.6953C76.6328 33.7682 76.4115 33.0182 75.9688 32.4453C75.5312 31.8672 74.9479 31.5781 74.2188 31.5781C73.5052 31.5781 72.9297 31.862 72.4922 32.4297C72.0547 32.9974 71.8359 33.8099 71.8359 34.8672ZM81.4609 39H80.0156V27H81.4609V39ZM85.3516 39H83.9062V27H85.3516V39ZM87.2891 34.6953C87.2891 33.8672 87.4505 33.1224 87.7734 32.4609C88.1016 31.7995 88.5547 31.2891 89.1328 30.9297C89.7161 30.5703 90.3802 30.3906 91.125 30.3906C92.276 30.3906 93.2057 30.7891 93.9141 31.5859C94.6276 32.3828 94.9844 33.4427 94.9844 34.7656V34.8672C94.9844 35.6901 94.8255 36.4297 94.5078 37.0859C94.1953 37.737 93.7448 38.2448 93.1562 38.6094C92.5729 38.974 91.901 39.1562 91.1406 39.1562C89.9948 39.1562 89.0651 38.7578 88.3516 37.9609C87.6432 37.1641 87.2891 36.1094 87.2891 34.7969V34.6953ZM88.7422 34.8672C88.7422 35.8047 88.9583 36.5573 89.3906 37.125C89.8281 37.6927 90.4115 37.9766 91.1406 37.9766C91.875 37.9766 92.4583 37.6901 92.8906 37.1172C93.3229 36.5391 93.5391 35.7318 93.5391 34.6953C93.5391 33.7682 93.3177 33.0182 92.875 32.4453C92.4375 31.8672 91.8542 31.5781 91.125 31.5781C90.4115 31.5781 89.8359 31.862 89.3984 32.4297C88.9609 32.9974 88.7422 33.8099 88.7422 34.8672ZM104.281 37.0078L105.906 30.5469H107.352L104.891 39H103.719L101.664 32.5938L99.6641 39H98.4922L96.0391 30.5469H97.4766L99.1406 36.875L101.109 30.5469H102.273L104.281 37.0078ZM114.758 28.5V30.5469H116.336V31.6641H114.758V36.9062C114.758 37.2448 114.828 37.5 114.969 37.6719C115.109 37.8385 115.349 37.9219 115.688 37.9219C115.854 37.9219 116.083 37.8906 116.375 37.8281V39C115.995 39.1042 115.625 39.1562 115.266 39.1562C114.62 39.1562 114.133 38.9609 113.805 38.5703C113.477 38.1797 113.312 37.625 113.312 36.9062V31.6641H111.773V30.5469H113.312V28.5H114.758ZM119.477 31.5703C120.117 30.7839 120.951 30.3906 121.977 30.3906C123.763 30.3906 124.664 31.3984 124.68 33.4141V39H123.234V33.4062C123.229 32.7969 123.089 32.3464 122.812 32.0547C122.542 31.763 122.117 31.6172 121.539 31.6172C121.07 31.6172 120.659 31.7422 120.305 31.9922C119.951 32.2422 119.674 32.5703 119.477 32.9766V39H118.031V27H119.477V31.5703ZM130.352 39.1562C129.206 39.1562 128.273 38.7812 127.555 38.0312C126.836 37.276 126.477 36.2682 126.477 35.0078V34.7422C126.477 33.9036 126.635 33.1562 126.953 32.5C127.276 31.8385 127.724 31.3229 128.297 30.9531C128.875 30.5781 129.5 30.3906 130.172 30.3906C131.271 30.3906 132.125 30.7526 132.734 31.4766C133.344 32.2005 133.648 33.237 133.648 34.5859V35.1875H127.922C127.943 36.0208 128.185 36.6953 128.648 37.2109C129.117 37.7214 129.711 37.9766 130.43 37.9766C130.94 37.9766 131.372 37.8724 131.727 37.6641C132.081 37.4557 132.391 37.1797 132.656 36.8359L133.539 37.5234C132.831 38.612 131.768 39.1562 130.352 39.1562ZM130.172 31.5781C129.589 31.5781 129.099 31.7917 128.703 32.2188C128.307 32.6406 128.062 33.2344 127.969 34H132.203V33.8906C132.161 33.1562 131.964 32.5885 131.609 32.1875C131.255 31.7812 130.776 31.5781 130.172 31.5781ZM145.805 36.0312H141.039L139.969 39H138.422L142.766 27.625H144.078L148.43 39H146.891L145.805 36.0312ZM141.492 34.7969H145.359L143.422 29.4766L141.492 34.7969ZM156.805 28.8594H153.148V39H151.656V28.8594H148.008V27.625H156.805V28.8594ZM160.43 27.625L164.148 36.9062L167.867 27.625H169.812V39H168.312V34.5703L168.453 29.7891L164.719 39H163.57L159.844 29.8125L159.992 34.5703V39H158.492V27.625H160.43ZM183.688 37.0078L185.312 30.5469H186.758L184.297 39H183.125L181.07 32.5938L179.07 39H177.898L175.445 30.5469H176.883L178.547 36.875L180.516 30.5469H181.68L183.688 37.0078ZM189.805 39H188.359V30.5469H189.805V39ZM188.242 28.3047C188.242 28.0703 188.312 27.8724 188.453 27.7109C188.599 27.5495 188.812 27.4688 189.094 27.4688C189.375 27.4688 189.589 27.5495 189.734 27.7109C189.88 27.8724 189.953 28.0703 189.953 28.3047C189.953 28.5391 189.88 28.7344 189.734 28.8906C189.589 29.0469 189.375 29.125 189.094 29.125C188.812 29.125 188.599 29.0469 188.453 28.8906C188.312 28.7344 188.242 28.5391 188.242 28.3047ZM194.086 28.5V30.5469H195.664V31.6641H194.086V36.9062C194.086 37.2448 194.156 37.5 194.297 37.6719C194.438 37.8385 194.677 37.9219 195.016 37.9219C195.182 37.9219 195.411 37.8906 195.703 37.8281V39C195.323 39.1042 194.953 39.1562 194.594 39.1562C193.948 39.1562 193.461 38.9609 193.133 38.5703C192.805 38.1797 192.641 37.625 192.641 36.9062V31.6641H191.102V30.5469H192.641V28.5H194.086ZM198.805 31.5703C199.445 30.7839 200.279 30.3906 201.305 30.3906C203.091 30.3906 203.992 31.3984 204.008 33.4141V39H202.562V33.4062C202.557 32.7969 202.417 32.3464 202.141 32.0547C201.87 31.763 201.445 31.6172 200.867 31.6172C200.398 31.6172 199.987 31.7422 199.633 31.9922C199.279 32.2422 199.003 32.5703 198.805 32.9766V39H197.359V27H198.805V31.5703ZM205.82 34.7031C205.82 33.4062 206.128 32.3646 206.742 31.5781C207.357 30.7865 208.161 30.3906 209.156 30.3906C210.146 30.3906 210.93 30.7292 211.508 31.4062V27H212.953V39H211.625L211.555 38.0938C210.977 38.8021 210.172 39.1562 209.141 39.1562C208.161 39.1562 207.362 38.7552 206.742 37.9531C206.128 37.151 205.82 36.1042 205.82 34.8125V34.7031ZM207.266 34.8672C207.266 35.8255 207.464 36.5755 207.859 37.1172C208.255 37.6589 208.802 37.9297 209.5 37.9297C210.417 37.9297 211.086 37.5182 211.508 36.6953V32.8125C211.076 32.0156 210.411 31.6172 209.516 31.6172C208.807 31.6172 208.255 31.8906 207.859 32.4375C207.464 32.9844 207.266 33.7943 207.266 34.8672ZM219.289 31.8438C219.07 31.8073 218.833 31.7891 218.578 31.7891C217.63 31.7891 216.987 32.1927 216.648 33V39H215.203V30.5469H216.609L216.633 31.5234C217.107 30.7682 217.779 30.3906 218.648 30.3906C218.93 30.3906 219.143 30.4271 219.289 30.5V31.8438ZM225.531 39C225.448 38.8333 225.38 38.5365 225.328 38.1094C224.656 38.8073 223.854 39.1562 222.922 39.1562C222.089 39.1562 221.404 38.9219 220.867 38.4531C220.336 37.9792 220.07 37.3802 220.07 36.6562C220.07 35.776 220.404 35.0938 221.07 34.6094C221.742 34.1198 222.685 33.875 223.898 33.875H225.305V33.2109C225.305 32.7057 225.154 32.3047 224.852 32.0078C224.549 31.7057 224.104 31.5547 223.516 31.5547C223 31.5547 222.568 31.6849 222.219 31.9453C221.87 32.2057 221.695 32.5208 221.695 32.8906H220.242C220.242 32.4688 220.391 32.0625 220.688 31.6719C220.99 31.276 221.396 30.9635 221.906 30.7344C222.422 30.5052 222.987 30.3906 223.602 30.3906C224.576 30.3906 225.339 30.6354 225.891 31.125C226.443 31.6094 226.729 32.2786 226.75 33.1328V37.0234C226.75 37.7995 226.849 38.4167 227.047 38.875V39H225.531ZM223.133 37.8984C223.586 37.8984 224.016 37.7812 224.422 37.5469C224.828 37.3125 225.122 37.0078 225.305 36.6328V34.8984H224.172C222.401 34.8984 221.516 35.4167 221.516 36.4531C221.516 36.9062 221.667 37.2604 221.969 37.5156C222.271 37.7708 222.659 37.8984 223.133 37.8984ZM236.5 37.0078L238.125 30.5469H239.57L237.109 39H235.938L233.883 32.5938L231.883 39H230.711L228.258 30.5469H229.695L231.359 36.875L233.328 30.5469H234.492L236.5 37.0078ZM246.266 39C246.182 38.8333 246.115 38.5365 246.062 38.1094C245.391 38.8073 244.589 39.1562 243.656 39.1562C242.823 39.1562 242.138 38.9219 241.602 38.4531C241.07 37.9792 240.805 37.3802 240.805 36.6562C240.805 35.776 241.138 35.0938 241.805 34.6094C242.477 34.1198 243.419 33.875 244.633 33.875H246.039V33.2109C246.039 32.7057 245.888 32.3047 245.586 32.0078C245.284 31.7057 244.839 31.5547 244.25 31.5547C243.734 31.5547 243.302 31.6849 242.953 31.9453C242.604 32.2057 242.43 32.5208 242.43 32.8906H240.977C240.977 32.4688 241.125 32.0625 241.422 31.6719C241.724 31.276 242.13 30.9635 242.641 30.7344C243.156 30.5052 243.721 30.3906 244.336 30.3906C245.31 30.3906 246.073 30.6354 246.625 31.125C247.177 31.6094 247.464 32.2786 247.484 33.1328V37.0234C247.484 37.7995 247.583 38.4167 247.781 38.875V39H246.266ZM243.867 37.8984C244.32 37.8984 244.75 37.7812 245.156 37.5469C245.562 37.3125 245.857 37.0078 246.039 36.6328V34.8984H244.906C243.135 34.8984 242.25 35.4167 242.25 36.4531C242.25 36.9062 242.401 37.2604 242.703 37.5156C243.005 37.7708 243.393 37.8984 243.867 37.8984ZM251.32 39H249.875V27H251.32V39ZM259.18 39H257.734V30.5469H259.18V39ZM257.617 28.3047C257.617 28.0703 257.688 27.8724 257.828 27.7109C257.974 27.5495 258.188 27.4688 258.469 27.4688C258.75 27.4688 258.964 27.5495 259.109 27.7109C259.255 27.8724 259.328 28.0703 259.328 28.3047C259.328 28.5391 259.255 28.7344 259.109 28.8906C258.964 29.0469 258.75 29.125 258.469 29.125C258.188 29.125 257.974 29.0469 257.828 28.8906C257.688 28.7344 257.617 28.5391 257.617 28.3047ZM262.867 30.5469L262.914 31.6094C263.56 30.7969 264.404 30.3906 265.445 30.3906C267.232 30.3906 268.133 31.3984 268.148 33.4141V39H266.703V33.4062C266.698 32.7969 266.557 32.3464 266.281 32.0547C266.01 31.763 265.586 31.6172 265.008 31.6172C264.539 31.6172 264.128 31.7422 263.773 31.9922C263.419 32.2422 263.143 32.5703 262.945 32.9766V39H261.5V30.5469H262.867ZM275.25 36.7578C275.25 36.3672 275.102 36.0651 274.805 35.8516C274.513 35.6328 274 35.4453 273.266 35.2891C272.536 35.1328 271.956 34.9453 271.523 34.7266C271.096 34.5078 270.779 34.2474 270.57 33.9453C270.367 33.6432 270.266 33.2839 270.266 32.8672C270.266 32.1745 270.557 31.5885 271.141 31.1094C271.729 30.6302 272.479 30.3906 273.391 30.3906C274.349 30.3906 275.125 30.638 275.719 31.1328C276.318 31.6276 276.617 32.2604 276.617 33.0312H275.164C275.164 32.6354 274.995 32.2943 274.656 32.0078C274.323 31.7214 273.901 31.5781 273.391 31.5781C272.865 31.5781 272.453 31.6927 272.156 31.9219C271.859 32.151 271.711 32.4505 271.711 32.8203C271.711 33.1693 271.849 33.4323 272.125 33.6094C272.401 33.7865 272.898 33.9557 273.617 34.1172C274.341 34.2786 274.927 34.4714 275.375 34.6953C275.823 34.9193 276.154 35.1901 276.367 35.5078C276.586 35.8203 276.695 36.2031 276.695 36.6562C276.695 37.4115 276.393 38.0182 275.789 38.4766C275.185 38.9297 274.401 39.1562 273.438 39.1562C272.76 39.1562 272.161 39.0365 271.641 38.7969C271.12 38.5573 270.711 38.224 270.414 37.7969C270.122 37.3646 269.977 36.8984 269.977 36.3984H271.422C271.448 36.8828 271.641 37.2682 272 37.5547C272.365 37.8359 272.844 37.9766 273.438 37.9766C273.984 37.9766 274.422 37.8672 274.75 37.6484C275.083 37.4245 275.25 37.1276 275.25 36.7578ZM280.539 28.5V30.5469H282.117V31.6641H280.539V36.9062C280.539 37.2448 280.609 37.5 280.75 37.6719C280.891 37.8385 281.13 37.9219 281.469 37.9219C281.635 37.9219 281.865 37.8906 282.156 37.8281V39C281.776 39.1042 281.406 39.1562 281.047 39.1562C280.401 39.1562 279.914 38.9609 279.586 38.5703C279.258 38.1797 279.094 37.625 279.094 36.9062V31.6641H277.555V30.5469H279.094V28.5H280.539ZM287.898 31.8438C287.68 31.8073 287.443 31.7891 287.188 31.7891C286.24 31.7891 285.596 32.1927 285.258 33V39H283.812V30.5469H285.219L285.242 31.5234C285.716 30.7682 286.388 30.3906 287.258 30.3906C287.539 30.3906 287.753 30.4271 287.898 30.5V31.8438ZM294.453 38.1641C293.891 38.8255 293.065 39.1562 291.977 39.1562C291.076 39.1562 290.388 38.8958 289.914 38.375C289.445 37.849 289.208 37.0729 289.203 36.0469V30.5469H290.648V36.0078C290.648 37.2891 291.169 37.9297 292.211 37.9297C293.315 37.9297 294.049 37.5182 294.414 36.6953V30.5469H295.859V39H294.484L294.453 38.1641ZM301.453 37.9766C301.969 37.9766 302.419 37.8203 302.805 37.5078C303.19 37.1953 303.404 36.8047 303.445 36.3359H304.812C304.786 36.8203 304.62 37.2812 304.312 37.7188C304.005 38.1562 303.594 38.5052 303.078 38.7656C302.568 39.026 302.026 39.1562 301.453 39.1562C300.302 39.1562 299.385 38.7734 298.703 38.0078C298.026 37.237 297.688 36.1849 297.688 34.8516V34.6094C297.688 33.7865 297.839 33.0547 298.141 32.4141C298.443 31.7734 298.875 31.276 299.438 30.9219C300.005 30.5677 300.674 30.3906 301.445 30.3906C302.393 30.3906 303.18 30.6745 303.805 31.2422C304.435 31.8099 304.771 32.5469 304.812 33.4531H303.445C303.404 32.9062 303.195 32.4583 302.82 32.1094C302.451 31.7552 301.992 31.5781 301.445 31.5781C300.711 31.5781 300.141 31.8438 299.734 32.375C299.333 32.901 299.133 33.6641 299.133 34.6641V34.9375C299.133 35.9115 299.333 36.6615 299.734 37.1875C300.135 37.7135 300.708 37.9766 301.453 37.9766ZM308.398 28.5V30.5469H309.977V31.6641H308.398V36.9062C308.398 37.2448 308.469 37.5 308.609 37.6719C308.75 37.8385 308.99 37.9219 309.328 37.9219C309.495 37.9219 309.724 37.8906 310.016 37.8281V39C309.635 39.1042 309.266 39.1562 308.906 39.1562C308.26 39.1562 307.773 38.9609 307.445 38.5703C307.117 38.1797 306.953 37.625 306.953 36.9062V31.6641H305.414V30.5469H306.953V28.5H308.398ZM313.242 39H311.797V30.5469H313.242V39ZM311.68 28.3047C311.68 28.0703 311.75 27.8724 311.891 27.7109C312.036 27.5495 312.25 27.4688 312.531 27.4688C312.812 27.4688 313.026 27.5495 313.172 27.7109C313.318 27.8724 313.391 28.0703 313.391 28.3047C313.391 28.5391 313.318 28.7344 313.172 28.8906C313.026 29.0469 312.812 29.125 312.531 29.125C312.25 29.125 312.036 29.0469 311.891 28.8906C311.75 28.7344 311.68 28.5391 311.68 28.3047ZM315.18 34.6953C315.18 33.8672 315.341 33.1224 315.664 32.4609C315.992 31.7995 316.445 31.2891 317.023 30.9297C317.607 30.5703 318.271 30.3906 319.016 30.3906C320.167 30.3906 321.096 30.7891 321.805 31.5859C322.518 32.3828 322.875 33.4427 322.875 34.7656V34.8672C322.875 35.6901 322.716 36.4297 322.398 37.0859C322.086 37.737 321.635 38.2448 321.047 38.6094C320.464 38.974 319.792 39.1562 319.031 39.1562C317.885 39.1562 316.956 38.7578 316.242 37.9609C315.534 37.1641 315.18 36.1094 315.18 34.7969V34.6953ZM316.633 34.8672C316.633 35.8047 316.849 36.5573 317.281 37.125C317.719 37.6927 318.302 37.9766 319.031 37.9766C319.766 37.9766 320.349 37.6901 320.781 37.1172C321.214 36.5391 321.43 35.7318 321.43 34.6953C321.43 33.7682 321.208 33.0182 320.766 32.4453C320.328 31.8672 319.745 31.5781 319.016 31.5781C318.302 31.5781 317.727 31.862 317.289 32.4297C316.852 32.9974 316.633 33.8099 316.633 34.8672ZM326.055 30.5469L326.102 31.6094C326.747 30.7969 327.591 30.3906 328.633 30.3906C330.419 30.3906 331.32 31.3984 331.336 33.4141V39H329.891V33.4062C329.885 32.7969 329.745 32.3464 329.469 32.0547C329.198 31.763 328.773 31.6172 328.195 31.6172C327.727 31.6172 327.315 31.7422 326.961 31.9922C326.607 32.2422 326.331 32.5703 326.133 32.9766V39H324.688V30.5469H326.055ZM338.438 36.7578C338.438 36.3672 338.289 36.0651 337.992 35.8516C337.701 35.6328 337.188 35.4453 336.453 35.2891C335.724 35.1328 335.143 34.9453 334.711 34.7266C334.284 34.5078 333.966 34.2474 333.758 33.9453C333.555 33.6432 333.453 33.2839 333.453 32.8672C333.453 32.1745 333.745 31.5885 334.328 31.1094C334.917 30.6302 335.667 30.3906 336.578 30.3906C337.536 30.3906 338.312 30.638 338.906 31.1328C339.505 31.6276 339.805 32.2604 339.805 33.0312H338.352C338.352 32.6354 338.182 32.2943 337.844 32.0078C337.51 31.7214 337.089 31.5781 336.578 31.5781C336.052 31.5781 335.641 31.6927 335.344 31.9219C335.047 32.151 334.898 32.4505 334.898 32.8203C334.898 33.1693 335.036 33.4323 335.312 33.6094C335.589 33.7865 336.086 33.9557 336.805 34.1172C337.529 34.2786 338.115 34.4714 338.562 34.6953C339.01 34.9193 339.341 35.1901 339.555 35.5078C339.773 35.8203 339.883 36.2031 339.883 36.6562C339.883 37.4115 339.581 38.0182 338.977 38.4766C338.372 38.9297 337.589 39.1562 336.625 39.1562C335.948 39.1562 335.349 39.0365 334.828 38.7969C334.307 38.5573 333.898 38.224 333.602 37.7969C333.31 37.3646 333.164 36.8984 333.164 36.3984H334.609C334.635 36.8828 334.828 37.2682 335.188 37.5547C335.552 37.8359 336.031 37.9766 336.625 37.9766C337.172 37.9766 337.609 37.8672 337.938 37.6484C338.271 37.4245 338.438 37.1276 338.438 36.7578ZM341.797 38.2422C341.797 37.9922 341.87 37.7839 342.016 37.6172C342.167 37.4505 342.391 37.3672 342.688 37.3672C342.984 37.3672 343.208 37.4505 343.359 37.6172C343.516 37.7839 343.594 37.9922 343.594 38.2422C343.594 38.4818 343.516 38.6823 343.359 38.8438C343.208 39.0052 342.984 39.0859 342.688 39.0859C342.391 39.0859 342.167 39.0052 342.016 38.8438C341.87 38.6823 341.797 38.4818 341.797 38.2422Z" fill="#656668"/>
<path d="M19.1108 47.744H34.5028V45.312H23.4948C27.6228 41.952 33.8308 37.056 33.8308 31.296C33.8308 27.008 31.0148 24.448 26.6628 24.448C22.5028 24.448 19.3988 27.008 19.2068 31.936H22.0228C22.1508 29.024 23.6868 26.944 26.6948 26.944C29.8308 26.944 30.9508 28.864 30.9508 31.424C30.9508 36.16 25.1908 40.768 19.1108 45.664V47.744Z" fill="#656668"/>
</svg>
