<svg width="557" height="75" viewBox="0 0 557 75" fill="none" xmlns="http://www.w3.org/2000/svg">
<path d="M68.4656 32.7422H63.5359V36.7734H69.2625V38H62.0359V26.625H69.1843V27.8594H63.5359V31.5156H68.4656V32.7422ZM72.2703 29.5469L72.3171 30.6094C72.963 29.7969 73.8067 29.3906 74.8484 29.3906C76.6348 29.3906 77.5359 30.3984 77.5515 32.4141V38H76.1062V32.4062C76.101 31.7969 75.9604 31.3464 75.6843 31.0547C75.4135 30.763 74.989 30.6172 74.4109 30.6172C73.9421 30.6172 73.5307 30.7422 73.1765 30.9922C72.8223 31.2422 72.5463 31.5703 72.3484 31.9766V38H70.9031V29.5469H72.2703ZM81.6921 27.5V29.5469H83.2703V30.6641H81.6921V35.9062C81.6921 36.2448 81.7625 36.5 81.9031 36.6719C82.0437 36.8385 82.2833 36.9219 82.6218 36.9219C82.7885 36.9219 83.0177 36.8906 83.3093 36.8281V38C82.9291 38.1042 82.5593 38.1562 82.2 38.1562C81.5541 38.1562 81.0671 37.9609 80.739 37.5703C80.4109 37.1797 80.2468 36.625 80.2468 35.9062V30.6641H78.7078V29.5469H80.2468V27.5H81.6921ZM88.4734 38.1562C87.3276 38.1562 86.3953 37.7812 85.6765 37.0312C84.9578 36.276 84.5984 35.2682 84.5984 34.0078V33.7422C84.5984 32.9036 84.7572 32.1562 85.075 31.5C85.3979 30.8385 85.8458 30.3229 86.4187 29.9531C86.9968 29.5781 87.6218 29.3906 88.2937 29.3906C89.3927 29.3906 90.2468 29.7526 90.8562 30.4766C91.4656 31.2005 91.7703 32.237 91.7703 33.5859V34.1875H86.0437C86.0645 35.0208 86.3067 35.6953 86.7703 36.2109C87.239 36.7214 87.8328 36.9766 88.5515 36.9766C89.0619 36.9766 89.4942 36.8724 89.8484 36.6641C90.2026 36.4557 90.5125 36.1797 90.7781 35.8359L91.6609 36.5234C90.9526 37.612 89.8901 38.1562 88.4734 38.1562ZM88.2937 30.5781C87.7104 30.5781 87.2208 30.7917 86.825 31.2188C86.4291 31.6406 86.1843 32.2344 86.0906 33H90.325V32.8906C90.2833 32.1562 90.0854 31.5885 89.7312 31.1875C89.377 30.7812 88.8979 30.5781 88.2937 30.5781ZM97.5359 30.8438C97.3171 30.8073 97.0802 30.7891 96.825 30.7891C95.877 30.7891 95.2338 31.1927 94.8953 32V38H93.45V29.5469H94.8562L94.8796 30.5234C95.3536 29.7682 96.0255 29.3906 96.8953 29.3906C97.1765 29.3906 97.3901 29.4271 97.5359 29.5V30.8438ZM105.606 35.8828L107.575 29.5469H109.122L105.723 39.3047C105.197 40.7109 104.361 41.4141 103.216 41.4141L102.942 41.3906L102.403 41.2891V40.1172L102.794 40.1484C103.283 40.1484 103.663 40.0495 103.934 39.8516C104.21 39.6536 104.437 39.2917 104.614 38.7656L104.934 37.9062L101.919 29.5469H103.497L105.606 35.8828ZM109.911 33.6953C109.911 32.8672 110.072 32.1224 110.395 31.4609C110.723 30.7995 111.177 30.2891 111.755 29.9297C112.338 29.5703 113.002 29.3906 113.747 29.3906C114.898 29.3906 115.828 29.7891 116.536 30.5859C117.249 31.3828 117.606 32.4427 117.606 33.7656V33.8672C117.606 34.6901 117.447 35.4297 117.13 36.0859C116.817 36.737 116.367 37.2448 115.778 37.6094C115.195 37.974 114.523 38.1562 113.762 38.1562C112.617 38.1562 111.687 37.7578 110.973 36.9609C110.265 36.1641 109.911 35.1094 109.911 33.7969V33.6953ZM111.364 33.8672C111.364 34.8047 111.58 35.5573 112.012 36.125C112.45 36.6927 113.033 36.9766 113.762 36.9766C114.497 36.9766 115.08 36.6901 115.512 36.1172C115.945 35.5391 116.161 34.7318 116.161 33.6953C116.161 32.7682 115.94 32.0182 115.497 31.4453C115.059 30.8672 114.476 30.5781 113.747 30.5781C113.033 30.5781 112.458 30.862 112.02 31.4297C111.583 31.9974 111.364 32.8099 111.364 33.8672ZM124.637 37.1641C124.075 37.8255 123.249 38.1562 122.161 38.1562C121.26 38.1562 120.572 37.8958 120.098 37.375C119.63 36.849 119.393 36.0729 119.387 35.0469V29.5469H120.833V35.0078C120.833 36.2891 121.354 36.9297 122.395 36.9297C123.499 36.9297 124.234 36.5182 124.598 35.6953V29.5469H126.044V38H124.669L124.637 37.1641ZM132.333 30.8438C132.114 30.8073 131.877 30.7891 131.622 30.7891C130.674 30.7891 130.031 31.1927 129.692 32V38H128.247V29.5469H129.653L129.677 30.5234C130.15 29.7682 130.822 29.3906 131.692 29.3906C131.973 29.3906 132.187 29.4271 132.333 29.5V30.8438ZM139.364 33.5469V38H137.864V26.625H142.059C143.304 26.625 144.278 26.9427 144.981 27.5781C145.69 28.2135 146.044 29.0547 146.044 30.1016C146.044 31.2057 145.697 32.0573 145.005 32.6562C144.317 33.25 143.33 33.5469 142.044 33.5469H139.364ZM139.364 32.3203H142.059C142.861 32.3203 143.476 32.1328 143.903 31.7578C144.33 31.3776 144.544 30.8307 144.544 30.1172C144.544 29.4401 144.33 28.8984 143.903 28.4922C143.476 28.0859 142.89 27.875 142.145 27.8594H139.364V32.3203ZM149.567 38H148.067V26.625H149.567V38ZM161.059 38H159.552L153.825 29.2344V38H152.317V26.625H153.825L159.567 35.4297V26.625H161.059V38ZM169.427 27.5V29.5469H171.005V30.6641H169.427V35.9062C169.427 36.2448 169.497 36.5 169.637 36.6719C169.778 36.8385 170.018 36.9219 170.356 36.9219C170.523 36.9219 170.752 36.8906 171.044 36.8281V38C170.663 38.1042 170.294 38.1562 169.934 38.1562C169.288 38.1562 168.802 37.9609 168.473 37.5703C168.145 37.1797 167.981 36.625 167.981 35.9062V30.6641H166.442V29.5469H167.981V27.5H169.427ZM172.161 33.6953C172.161 32.8672 172.322 32.1224 172.645 31.4609C172.973 30.7995 173.427 30.2891 174.005 29.9297C174.588 29.5703 175.252 29.3906 175.997 29.3906C177.148 29.3906 178.078 29.7891 178.786 30.5859C179.499 31.3828 179.856 32.4427 179.856 33.7656V33.8672C179.856 34.6901 179.697 35.4297 179.38 36.0859C179.067 36.737 178.617 37.2448 178.028 37.6094C177.445 37.974 176.773 38.1562 176.012 38.1562C174.867 38.1562 173.937 37.7578 173.223 36.9609C172.515 36.1641 172.161 35.1094 172.161 33.7969V33.6953ZM173.614 33.8672C173.614 34.8047 173.83 35.5573 174.262 36.125C174.7 36.6927 175.283 36.9766 176.012 36.9766C176.747 36.9766 177.33 36.6901 177.762 36.1172C178.195 35.5391 178.411 34.7318 178.411 33.6953C178.411 32.7682 178.19 32.0182 177.747 31.4453C177.309 30.8672 176.726 30.5781 175.997 30.5781C175.283 30.5781 174.708 30.862 174.27 31.4297C173.833 31.9974 173.614 32.8099 173.614 33.8672ZM192.778 33.8672C192.778 35.1536 192.484 36.1901 191.895 36.9766C191.307 37.763 190.51 38.1562 189.505 38.1562C188.479 38.1562 187.671 37.8307 187.083 37.1797V41.25H185.637V29.5469H186.958L187.028 30.4844C187.617 29.7552 188.434 29.3906 189.481 29.3906C190.497 29.3906 191.299 29.7734 191.887 30.5391C192.481 31.3047 192.778 32.3698 192.778 33.7344V33.8672ZM191.333 33.7031C191.333 32.75 191.13 31.9974 190.723 31.4453C190.317 30.8932 189.76 30.6172 189.052 30.6172C188.177 30.6172 187.52 31.0052 187.083 31.7812V35.8203C187.515 36.5911 188.177 36.9766 189.067 36.9766C189.76 36.9766 190.309 36.7031 190.716 36.1562C191.127 35.6042 191.333 34.7865 191.333 33.7031ZM198.708 30.8438C198.489 30.8073 198.252 30.7891 197.997 30.7891C197.049 30.7891 196.406 31.1927 196.067 32V38H194.622V29.5469H196.028L196.052 30.5234C196.525 29.7682 197.197 29.3906 198.067 29.3906C198.348 29.3906 198.562 29.4271 198.708 29.5V30.8438ZM199.505 33.6953C199.505 32.8672 199.666 32.1224 199.989 31.4609C200.317 30.7995 200.77 30.2891 201.348 29.9297C201.932 29.5703 202.596 29.3906 203.341 29.3906C204.492 29.3906 205.421 29.7891 206.13 30.5859C206.843 31.3828 207.2 32.4427 207.2 33.7656V33.8672C207.2 34.6901 207.041 35.4297 206.723 36.0859C206.411 36.737 205.96 37.2448 205.372 37.6094C204.788 37.974 204.117 38.1562 203.356 38.1562C202.21 38.1562 201.281 37.7578 200.567 36.9609C199.859 36.1641 199.505 35.1094 199.505 33.7969V33.6953ZM200.958 33.8672C200.958 34.8047 201.174 35.5573 201.606 36.125C202.044 36.6927 202.627 36.9766 203.356 36.9766C204.091 36.9766 204.674 36.6901 205.106 36.1172C205.538 35.5391 205.755 34.7318 205.755 33.6953C205.755 32.7682 205.533 32.0182 205.091 31.4453C204.653 30.8672 204.07 30.5781 203.341 30.5781C202.627 30.5781 202.052 30.862 201.614 31.4297C201.177 31.9974 200.958 32.8099 200.958 33.8672ZM212.403 36.9766C212.919 36.9766 213.369 36.8203 213.755 36.5078C214.14 36.1953 214.354 35.8047 214.395 35.3359H215.762C215.736 35.8203 215.57 36.2812 215.262 36.7188C214.955 37.1562 214.544 37.5052 214.028 37.7656C213.518 38.026 212.976 38.1562 212.403 38.1562C211.252 38.1562 210.335 37.7734 209.653 37.0078C208.976 36.237 208.637 35.1849 208.637 33.8516V33.6094C208.637 32.7865 208.788 32.0547 209.091 31.4141C209.393 30.7734 209.825 30.276 210.387 29.9219C210.955 29.5677 211.624 29.3906 212.395 29.3906C213.343 29.3906 214.13 29.6745 214.755 30.2422C215.385 30.8099 215.721 31.5469 215.762 32.4531H214.395C214.354 31.9062 214.145 31.4583 213.77 31.1094C213.4 30.7552 212.942 30.5781 212.395 30.5781C211.661 30.5781 211.091 30.8438 210.684 31.375C210.283 31.901 210.083 32.6641 210.083 33.6641V33.9375C210.083 34.9115 210.283 35.6615 210.684 36.1875C211.085 36.7135 211.658 36.9766 212.403 36.9766ZM220.895 38.1562C219.749 38.1562 218.817 37.7812 218.098 37.0312C217.38 36.276 217.02 35.2682 217.02 34.0078V33.7422C217.02 32.9036 217.179 32.1562 217.497 31.5C217.82 30.8385 218.268 30.3229 218.841 29.9531C219.419 29.5781 220.044 29.3906 220.716 29.3906C221.815 29.3906 222.669 29.7526 223.278 30.4766C223.887 31.2005 224.192 32.237 224.192 33.5859V34.1875H218.466C218.486 35.0208 218.729 35.6953 219.192 36.2109C219.661 36.7214 220.255 36.9766 220.973 36.9766C221.484 36.9766 221.916 36.8724 222.27 36.6641C222.624 36.4557 222.934 36.1797 223.2 35.8359L224.083 36.5234C223.374 37.612 222.312 38.1562 220.895 38.1562ZM220.716 30.5781C220.132 30.5781 219.643 30.7917 219.247 31.2188C218.851 31.6406 218.606 32.2344 218.512 33H222.747V32.8906C222.705 32.1562 222.507 31.5885 222.153 31.1875C221.799 30.7812 221.32 30.5781 220.716 30.5781ZM229.38 38.1562C228.234 38.1562 227.302 37.7812 226.583 37.0312C225.864 36.276 225.505 35.2682 225.505 34.0078V33.7422C225.505 32.9036 225.663 32.1562 225.981 31.5C226.304 30.8385 226.752 30.3229 227.325 29.9531C227.903 29.5781 228.528 29.3906 229.2 29.3906C230.299 29.3906 231.153 29.7526 231.762 30.4766C232.372 31.2005 232.677 32.237 232.677 33.5859V34.1875H226.95C226.971 35.0208 227.213 35.6953 227.677 36.2109C228.145 36.7214 228.739 36.9766 229.458 36.9766C229.968 36.9766 230.4 36.8724 230.755 36.6641C231.109 36.4557 231.419 36.1797 231.684 35.8359L232.567 36.5234C231.859 37.612 230.796 38.1562 229.38 38.1562ZM229.2 30.5781C228.617 30.5781 228.127 30.7917 227.731 31.2188C227.335 31.6406 227.091 32.2344 226.997 33H231.231V32.8906C231.19 32.1562 230.992 31.5885 230.637 31.1875C230.283 30.7812 229.804 30.5781 229.2 30.5781ZM234.005 33.7031C234.005 32.4062 234.312 31.3646 234.927 30.5781C235.541 29.7865 236.346 29.3906 237.341 29.3906C238.33 29.3906 239.114 29.7292 239.692 30.4062V26H241.137V38H239.809L239.739 37.0938C239.161 37.8021 238.356 38.1562 237.325 38.1562C236.346 38.1562 235.546 37.7552 234.927 36.9531C234.312 36.151 234.005 35.1042 234.005 33.8125V33.7031ZM235.45 33.8672C235.45 34.8255 235.648 35.5755 236.044 36.1172C236.44 36.6589 236.986 36.9297 237.684 36.9297C238.601 36.9297 239.27 36.5182 239.692 35.6953V31.8125C239.26 31.0156 238.596 30.6172 237.7 30.6172C236.992 30.6172 236.44 30.8906 236.044 31.4375C235.648 31.9844 235.45 32.7943 235.45 33.8672ZM243.419 37.2422C243.419 36.9922 243.492 36.7839 243.637 36.6172C243.788 36.4505 244.012 36.3672 244.309 36.3672C244.606 36.3672 244.83 36.4505 244.981 36.6172C245.137 36.7839 245.216 36.9922 245.216 37.2422C245.216 37.4818 245.137 37.6823 244.981 37.8438C244.83 38.0052 244.606 38.0859 244.309 38.0859C244.012 38.0859 243.788 38.0052 243.637 37.8438C243.492 37.6823 243.419 37.4818 243.419 37.2422Z" fill="#656668"/>
<path d="M18.4788 31.688H21.3268C21.6148 29.448 23.2468 27.912 25.9668 27.912C28.7508 27.912 30.2228 29.448 30.2228 31.656C30.2228 34.344 28.1428 35.528 24.2708 35.56H23.5028V37.992H24.2388C28.3988 37.992 30.6708 39.24 30.6708 42.504C30.6708 44.872 29.1988 46.696 26.0948 46.696C23.0228 46.696 21.2308 44.808 20.9428 42.344H18.1268C18.4788 46.824 21.7428 49.16 26.1268 49.16C30.9588 49.16 33.4548 46.344 33.4548 42.76C33.4548 39.432 31.6308 37.448 28.9428 36.808V36.648C31.3748 36.104 33.0388 34.024 33.0388 31.368C33.0388 28.04 30.5748 25.416 26.0628 25.416C21.7748 25.416 18.7668 27.72 18.4788 31.688Z" fill="#656668"/>
</svg>
