<svg width="595" height="113" viewBox="0 0 595 113" fill="none" xmlns="http://www.w3.org/2000/svg">
<g filter="url(#filter0_d)">
<rect x="19" y="16" width="556.56" height="75" rx="24" fill="white"/>
</g>
<path d="M87.4658 48.7422H82.5361V52.7734H88.2627V54H81.0361V42.625H88.1846V43.8594H82.5361V47.5156H87.4658V48.7422ZM91.2705 45.5469L91.3174 46.6094C91.9632 45.7969 92.807 45.3906 93.8486 45.3906C95.6351 45.3906 96.5361 46.3984 96.5518 48.4141V54H95.1064V48.4062C95.1012 47.7969 94.9606 47.3464 94.6846 47.0547C94.4137 46.763 93.9893 46.6172 93.4111 46.6172C92.9424 46.6172 92.5309 46.7422 92.1768 46.9922C91.8226 47.2422 91.5465 47.5703 91.3486 47.9766V54H89.9033V45.5469H91.2705ZM100.692 43.5V45.5469H102.271V46.6641H100.692V51.9062C100.692 52.2448 100.763 52.5 100.903 52.6719C101.044 52.8385 101.284 52.9219 101.622 52.9219C101.789 52.9219 102.018 52.8906 102.31 52.8281V54C101.929 54.1042 101.56 54.1562 101.2 54.1562C100.554 54.1562 100.067 53.9609 99.7393 53.5703C99.4111 53.1797 99.2471 52.625 99.2471 51.9062V46.6641H97.708V45.5469H99.2471V43.5H100.692ZM107.474 54.1562C106.328 54.1562 105.396 53.7812 104.677 53.0312C103.958 52.276 103.599 51.2682 103.599 50.0078V49.7422C103.599 48.9036 103.757 48.1562 104.075 47.5C104.398 46.8385 104.846 46.3229 105.419 45.9531C105.997 45.5781 106.622 45.3906 107.294 45.3906C108.393 45.3906 109.247 45.7526 109.856 46.4766C110.466 47.2005 110.771 48.237 110.771 49.5859V50.1875H105.044C105.065 51.0208 105.307 51.6953 105.771 52.2109C106.239 52.7214 106.833 52.9766 107.552 52.9766C108.062 52.9766 108.494 52.8724 108.849 52.6641C109.203 52.4557 109.513 52.1797 109.778 51.8359L110.661 52.5234C109.953 53.612 108.89 54.1562 107.474 54.1562ZM107.294 46.5781C106.711 46.5781 106.221 46.7917 105.825 47.2188C105.429 47.6406 105.185 48.2344 105.091 49H109.325V48.8906C109.284 48.1562 109.086 47.5885 108.731 47.1875C108.377 46.7812 107.898 46.5781 107.294 46.5781ZM116.536 46.8438C116.317 46.8073 116.08 46.7891 115.825 46.7891C114.877 46.7891 114.234 47.1927 113.896 48V54H112.45V45.5469H113.856L113.88 46.5234C114.354 45.7682 115.026 45.3906 115.896 45.3906C116.177 45.3906 116.39 45.4271 116.536 45.5V46.8438ZM124.606 51.8828L126.575 45.5469H128.122L124.724 55.3047C124.198 56.7109 123.362 57.4141 122.216 57.4141L121.942 57.3906L121.403 57.2891V56.1172L121.794 56.1484C122.284 56.1484 122.664 56.0495 122.935 55.8516C123.211 55.6536 123.437 55.2917 123.614 54.7656L123.935 53.9062L120.919 45.5469H122.497L124.606 51.8828ZM128.911 49.6953C128.911 48.8672 129.073 48.1224 129.396 47.4609C129.724 46.7995 130.177 46.2891 130.755 45.9297C131.338 45.5703 132.002 45.3906 132.747 45.3906C133.898 45.3906 134.828 45.7891 135.536 46.5859C136.25 47.3828 136.606 48.4427 136.606 49.7656V49.8672C136.606 50.6901 136.448 51.4297 136.13 52.0859C135.817 52.737 135.367 53.2448 134.778 53.6094C134.195 53.974 133.523 54.1562 132.763 54.1562C131.617 54.1562 130.687 53.7578 129.974 52.9609C129.265 52.1641 128.911 51.1094 128.911 49.7969V49.6953ZM130.364 49.8672C130.364 50.8047 130.58 51.5573 131.013 52.125C131.45 52.6927 132.034 52.9766 132.763 52.9766C133.497 52.9766 134.08 52.6901 134.513 52.1172C134.945 51.5391 135.161 50.7318 135.161 49.6953C135.161 48.7682 134.94 48.0182 134.497 47.4453C134.06 46.8672 133.476 46.5781 132.747 46.5781C132.034 46.5781 131.458 46.862 131.021 47.4297C130.583 47.9974 130.364 48.8099 130.364 49.8672ZM143.638 53.1641C143.075 53.8255 142.25 54.1562 141.161 54.1562C140.26 54.1562 139.573 53.8958 139.099 53.375C138.63 52.849 138.393 52.0729 138.388 51.0469V45.5469H139.833V51.0078C139.833 52.2891 140.354 52.9297 141.396 52.9297C142.5 52.9297 143.234 52.5182 143.599 51.6953V45.5469H145.044V54H143.669L143.638 53.1641ZM151.333 46.8438C151.114 46.8073 150.877 46.7891 150.622 46.7891C149.674 46.7891 149.031 47.1927 148.692 48V54H147.247V45.5469H148.653L148.677 46.5234C149.151 45.7682 149.823 45.3906 150.692 45.3906C150.974 45.3906 151.187 45.4271 151.333 45.5V46.8438ZM158.364 49.5469V54H156.864V42.625H161.06C162.304 42.625 163.278 42.9427 163.981 43.5781C164.69 44.2135 165.044 45.0547 165.044 46.1016C165.044 47.2057 164.698 48.0573 164.005 48.6562C163.317 49.25 162.33 49.5469 161.044 49.5469H158.364ZM158.364 48.3203H161.06C161.862 48.3203 162.476 48.1328 162.903 47.7578C163.33 47.3776 163.544 46.8307 163.544 46.1172C163.544 45.4401 163.33 44.8984 162.903 44.4922C162.476 44.0859 161.89 43.875 161.146 43.8594H158.364V48.3203ZM168.567 54H167.067V42.625H168.567V54ZM180.06 54H178.552L172.825 45.2344V54H171.317V42.625H172.825L178.567 51.4297V42.625H180.06V54ZM188.427 43.5V45.5469H190.005V46.6641H188.427V51.9062C188.427 52.2448 188.497 52.5 188.638 52.6719C188.778 52.8385 189.018 52.9219 189.356 52.9219C189.523 52.9219 189.752 52.8906 190.044 52.8281V54C189.664 54.1042 189.294 54.1562 188.935 54.1562C188.289 54.1562 187.802 53.9609 187.474 53.5703C187.146 53.1797 186.981 52.625 186.981 51.9062V46.6641H185.442V45.5469H186.981V43.5H188.427ZM191.161 49.6953C191.161 48.8672 191.323 48.1224 191.646 47.4609C191.974 46.7995 192.427 46.2891 193.005 45.9297C193.588 45.5703 194.252 45.3906 194.997 45.3906C196.148 45.3906 197.078 45.7891 197.786 46.5859C198.5 47.3828 198.856 48.4427 198.856 49.7656V49.8672C198.856 50.6901 198.698 51.4297 198.38 52.0859C198.067 52.737 197.617 53.2448 197.028 53.6094C196.445 53.974 195.773 54.1562 195.013 54.1562C193.867 54.1562 192.937 53.7578 192.224 52.9609C191.515 52.1641 191.161 51.1094 191.161 49.7969V49.6953ZM192.614 49.8672C192.614 50.8047 192.83 51.5573 193.263 52.125C193.7 52.6927 194.284 52.9766 195.013 52.9766C195.747 52.9766 196.33 52.6901 196.763 52.1172C197.195 51.5391 197.411 50.7318 197.411 49.6953C197.411 48.7682 197.19 48.0182 196.747 47.4453C196.31 46.8672 195.726 46.5781 194.997 46.5781C194.284 46.5781 193.708 46.862 193.271 47.4297C192.833 47.9974 192.614 48.8099 192.614 49.8672ZM211.778 49.8672C211.778 51.1536 211.484 52.1901 210.896 52.9766C210.307 53.763 209.51 54.1562 208.505 54.1562C207.479 54.1562 206.672 53.8307 206.083 53.1797V57.25H204.638V45.5469H205.958L206.028 46.4844C206.617 45.7552 207.435 45.3906 208.481 45.3906C209.497 45.3906 210.299 45.7734 210.888 46.5391C211.481 47.3047 211.778 48.3698 211.778 49.7344V49.8672ZM210.333 49.7031C210.333 48.75 210.13 47.9974 209.724 47.4453C209.317 46.8932 208.76 46.6172 208.052 46.6172C207.177 46.6172 206.521 47.0052 206.083 47.7812V51.8203C206.515 52.5911 207.177 52.9766 208.067 52.9766C208.76 52.9766 209.31 52.7031 209.716 52.1562C210.127 51.6042 210.333 50.7865 210.333 49.7031ZM217.708 46.8438C217.489 46.8073 217.252 46.7891 216.997 46.7891C216.049 46.7891 215.406 47.1927 215.067 48V54H213.622V45.5469H215.028L215.052 46.5234C215.526 45.7682 216.198 45.3906 217.067 45.3906C217.349 45.3906 217.562 45.4271 217.708 45.5V46.8438ZM218.505 49.6953C218.505 48.8672 218.666 48.1224 218.989 47.4609C219.317 46.7995 219.771 46.2891 220.349 45.9297C220.932 45.5703 221.596 45.3906 222.341 45.3906C223.492 45.3906 224.422 45.7891 225.13 46.5859C225.843 47.3828 226.2 48.4427 226.2 49.7656V49.8672C226.2 50.6901 226.041 51.4297 225.724 52.0859C225.411 52.737 224.961 53.2448 224.372 53.6094C223.789 53.974 223.117 54.1562 222.356 54.1562C221.211 54.1562 220.281 53.7578 219.567 52.9609C218.859 52.1641 218.505 51.1094 218.505 49.7969V49.6953ZM219.958 49.8672C219.958 50.8047 220.174 51.5573 220.606 52.125C221.044 52.6927 221.627 52.9766 222.356 52.9766C223.091 52.9766 223.674 52.6901 224.106 52.1172C224.539 51.5391 224.755 50.7318 224.755 49.6953C224.755 48.7682 224.534 48.0182 224.091 47.4453C223.653 46.8672 223.07 46.5781 222.341 46.5781C221.627 46.5781 221.052 46.862 220.614 47.4297C220.177 47.9974 219.958 48.8099 219.958 49.8672ZM231.403 52.9766C231.919 52.9766 232.369 52.8203 232.755 52.5078C233.14 52.1953 233.354 51.8047 233.396 51.3359H234.763C234.737 51.8203 234.57 52.2812 234.263 52.7188C233.955 53.1562 233.544 53.5052 233.028 53.7656C232.518 54.026 231.976 54.1562 231.403 54.1562C230.252 54.1562 229.336 53.7734 228.653 53.0078C227.976 52.237 227.638 51.1849 227.638 49.8516V49.6094C227.638 48.7865 227.789 48.0547 228.091 47.4141C228.393 46.7734 228.825 46.276 229.388 45.9219C229.955 45.5677 230.625 45.3906 231.396 45.3906C232.343 45.3906 233.13 45.6745 233.755 46.2422C234.385 46.8099 234.721 47.5469 234.763 48.4531H233.396C233.354 47.9062 233.146 47.4583 232.771 47.1094C232.401 46.7552 231.942 46.5781 231.396 46.5781C230.661 46.5781 230.091 46.8438 229.685 47.375C229.284 47.901 229.083 48.6641 229.083 49.6641V49.9375C229.083 50.9115 229.284 51.6615 229.685 52.1875C230.086 52.7135 230.659 52.9766 231.403 52.9766ZM239.896 54.1562C238.75 54.1562 237.817 53.7812 237.099 53.0312C236.38 52.276 236.021 51.2682 236.021 50.0078V49.7422C236.021 48.9036 236.179 48.1562 236.497 47.5C236.82 46.8385 237.268 46.3229 237.841 45.9531C238.419 45.5781 239.044 45.3906 239.716 45.3906C240.815 45.3906 241.669 45.7526 242.278 46.4766C242.888 47.2005 243.192 48.237 243.192 49.5859V50.1875H237.466C237.487 51.0208 237.729 51.6953 238.192 52.2109C238.661 52.7214 239.255 52.9766 239.974 52.9766C240.484 52.9766 240.916 52.8724 241.271 52.6641C241.625 52.4557 241.935 52.1797 242.2 51.8359L243.083 52.5234C242.375 53.612 241.312 54.1562 239.896 54.1562ZM239.716 46.5781C239.132 46.5781 238.643 46.7917 238.247 47.2188C237.851 47.6406 237.606 48.2344 237.513 49H241.747V48.8906C241.705 48.1562 241.507 47.5885 241.153 47.1875C240.799 46.7812 240.32 46.5781 239.716 46.5781ZM248.38 54.1562C247.234 54.1562 246.302 53.7812 245.583 53.0312C244.864 52.276 244.505 51.2682 244.505 50.0078V49.7422C244.505 48.9036 244.664 48.1562 244.981 47.5C245.304 46.8385 245.752 46.3229 246.325 45.9531C246.903 45.5781 247.528 45.3906 248.2 45.3906C249.299 45.3906 250.153 45.7526 250.763 46.4766C251.372 47.2005 251.677 48.237 251.677 49.5859V50.1875H245.95C245.971 51.0208 246.213 51.6953 246.677 52.2109C247.146 52.7214 247.739 52.9766 248.458 52.9766C248.968 52.9766 249.401 52.8724 249.755 52.6641C250.109 52.4557 250.419 52.1797 250.685 51.8359L251.567 52.5234C250.859 53.612 249.797 54.1562 248.38 54.1562ZM248.2 46.5781C247.617 46.5781 247.127 46.7917 246.731 47.2188C246.336 47.6406 246.091 48.2344 245.997 49H250.231V48.8906C250.19 48.1562 249.992 47.5885 249.638 47.1875C249.284 46.7812 248.804 46.5781 248.2 46.5781ZM253.005 49.7031C253.005 48.4062 253.312 47.3646 253.927 46.5781C254.541 45.7865 255.346 45.3906 256.341 45.3906C257.33 45.3906 258.114 45.7292 258.692 46.4062V42H260.138V54H258.81L258.739 53.0938C258.161 53.8021 257.356 54.1562 256.325 54.1562C255.346 54.1562 254.547 53.7552 253.927 52.9531C253.312 52.151 253.005 51.1042 253.005 49.8125V49.7031ZM254.45 49.8672C254.45 50.8255 254.648 51.5755 255.044 52.1172C255.44 52.6589 255.987 52.9297 256.685 52.9297C257.601 52.9297 258.271 52.5182 258.692 51.6953V47.8125C258.26 47.0156 257.596 46.6172 256.7 46.6172C255.992 46.6172 255.44 46.8906 255.044 47.4375C254.648 47.9844 254.45 48.7943 254.45 49.8672ZM262.419 53.2422C262.419 52.9922 262.492 52.7839 262.638 52.6172C262.789 52.4505 263.013 52.3672 263.31 52.3672C263.606 52.3672 263.83 52.4505 263.981 52.6172C264.138 52.7839 264.216 52.9922 264.216 53.2422C264.216 53.4818 264.138 53.6823 263.981 53.8438C263.83 54.0052 263.606 54.0859 263.31 54.0859C263.013 54.0859 262.789 54.0052 262.638 53.8438C262.492 53.6823 262.419 53.4818 262.419 53.2422Z" fill="#6654A4"/>
<path d="M37.4786 47.688H40.3266C40.6146 45.448 42.2466 43.912 44.9666 43.912C47.7506 43.912 49.2226 45.448 49.2226 47.656C49.2226 50.344 47.1426 51.528 43.2706 51.56H42.5026V53.992H43.2386C47.3986 53.992 49.6706 55.24 49.6706 58.504C49.6706 60.872 48.1986 62.696 45.0946 62.696C42.0226 62.696 40.2306 60.808 39.9426 58.344H37.1266C37.4786 62.824 40.7426 65.16 45.1266 65.16C49.9586 65.16 52.4546 62.344 52.4546 58.76C52.4546 55.432 50.6306 53.448 47.9426 52.808V52.648C50.3746 52.104 52.0386 50.024 52.0386 47.368C52.0386 44.04 49.5746 41.416 45.0626 41.416C40.7746 41.416 37.7666 43.72 37.4786 47.688Z" fill="#6654A4"/>
<defs>
<filter id="filter0_d" x="0" y="0" width="594.56" height="113" filterUnits="userSpaceOnUse" color-interpolation-filters="sRGB">
<feFlood flood-opacity="0" result="BackgroundImageFix"/>
<feColorMatrix in="SourceAlpha" type="matrix" values="0 0 0 0 0 0 0 0 0 0 0 0 0 0 0 0 0 0 127 0"/>
<feMorphology radius="4" operator="dilate" in="SourceAlpha" result="effect1_dropShadow"/>
<feOffset dy="3"/>
<feGaussianBlur stdDeviation="7.5"/>
<feColorMatrix type="matrix" values="0 0 0 0 0.872109 0 0 0 0 0.853125 0 0 0 0 0.9375 0 0 0 0.5 0"/>
<feBlend mode="normal" in2="BackgroundImageFix" result="effect1_dropShadow"/>
<feBlend mode="normal" in="SourceGraphic" in2="effect1_dropShadow" result="shape"/>
</filter>
</defs>
</svg>
