<svg width="595" height="113" viewBox="0 0 595 113" fill="none" xmlns="http://www.w3.org/2000/svg">
<g filter="url(#filter0_d)">
<rect x="19" y="16" width="556.56" height="75" rx="24" fill="white"/>
</g>
<path d="M89.0439 41.625V49.3594C89.0387 50.4323 88.7002 51.3099 88.0283 51.9922C87.3617 52.6745 86.4554 53.0573 85.3096 53.1406L84.9111 53.1562C83.6663 53.1562 82.6742 52.8203 81.9346 52.1484C81.195 51.4766 80.82 50.5521 80.8096 49.375V41.625H82.2939V49.3281C82.2939 50.151 82.5205 50.7917 82.9736 51.25C83.4268 51.7031 84.0726 51.9297 84.9111 51.9297C85.7601 51.9297 86.4085 51.7031 86.8564 51.25C87.3096 50.7969 87.5361 50.1589 87.5361 49.3359V41.625H89.0439ZM96.1064 50.7578C96.1064 50.3672 95.958 50.0651 95.6611 49.8516C95.3695 49.6328 94.8564 49.4453 94.1221 49.2891C93.3929 49.1328 92.8122 48.9453 92.3799 48.7266C91.9528 48.5078 91.6351 48.2474 91.4268 47.9453C91.2236 47.6432 91.1221 47.2839 91.1221 46.8672C91.1221 46.1745 91.4137 45.5885 91.9971 45.1094C92.5856 44.6302 93.3356 44.3906 94.2471 44.3906C95.2054 44.3906 95.9814 44.638 96.5752 45.1328C97.1742 45.6276 97.4736 46.2604 97.4736 47.0312H96.0205C96.0205 46.6354 95.8512 46.2943 95.5127 46.0078C95.1794 45.7214 94.7575 45.5781 94.2471 45.5781C93.721 45.5781 93.3096 45.6927 93.0127 45.9219C92.7158 46.151 92.5674 46.4505 92.5674 46.8203C92.5674 47.1693 92.7054 47.4323 92.9814 47.6094C93.2575 47.7865 93.7549 47.9557 94.4736 48.1172C95.1976 48.2786 95.7835 48.4714 96.2314 48.6953C96.6794 48.9193 97.0101 49.1901 97.2236 49.5078C97.4424 49.8203 97.5518 50.2031 97.5518 50.6562C97.5518 51.4115 97.2497 52.0182 96.6455 52.4766C96.0413 52.9297 95.2575 53.1562 94.2939 53.1562C93.6169 53.1562 93.0179 53.0365 92.4971 52.7969C91.9762 52.5573 91.5674 52.224 91.2705 51.7969C90.9788 51.3646 90.833 50.8984 90.833 50.3984H92.2783C92.3044 50.8828 92.4971 51.2682 92.8564 51.5547C93.221 51.8359 93.7002 51.9766 94.2939 51.9766C94.8408 51.9766 95.2783 51.8672 95.6064 51.6484C95.9398 51.4245 96.1064 51.1276 96.1064 50.7578ZM102.942 53.1562C101.797 53.1562 100.864 52.7812 100.146 52.0312C99.4268 51.276 99.0674 50.2682 99.0674 49.0078V48.7422C99.0674 47.9036 99.2262 47.1562 99.5439 46.5C99.8669 45.8385 100.315 45.3229 100.888 44.9531C101.466 44.5781 102.091 44.3906 102.763 44.3906C103.862 44.3906 104.716 44.7526 105.325 45.4766C105.935 46.2005 106.239 47.237 106.239 48.5859V49.1875H100.513C100.534 50.0208 100.776 50.6953 101.239 51.2109C101.708 51.7214 102.302 51.9766 103.021 51.9766C103.531 51.9766 103.963 51.8724 104.317 51.6641C104.672 51.4557 104.981 51.1797 105.247 50.8359L106.13 51.5234C105.422 52.612 104.359 53.1562 102.942 53.1562ZM102.763 45.5781C102.179 45.5781 101.69 45.7917 101.294 46.2188C100.898 46.6406 100.653 47.2344 100.56 48H104.794V47.8906C104.752 47.1562 104.554 46.5885 104.2 46.1875C103.846 45.7812 103.367 45.5781 102.763 45.5781ZM120.864 47.6797C120.864 48.7943 120.677 49.7682 120.302 50.6016C119.927 51.4297 119.396 52.0625 118.708 52.5C118.021 52.9375 117.218 53.1562 116.302 53.1562C115.406 53.1562 114.612 52.9375 113.919 52.5C113.226 52.0573 112.687 51.4297 112.302 50.6172C111.922 49.7995 111.726 48.8542 111.716 47.7812V46.9609C111.716 45.8672 111.906 44.901 112.286 44.0625C112.666 43.224 113.203 42.5833 113.896 42.1406C114.593 41.6927 115.39 41.4688 116.286 41.4688C117.198 41.4688 118 41.6901 118.692 42.1328C119.39 42.5703 119.927 43.2083 120.302 44.0469C120.677 44.8802 120.864 45.8516 120.864 46.9609V47.6797ZM119.372 46.9453C119.372 45.5964 119.101 44.5625 118.56 43.8438C118.018 43.1198 117.26 42.7578 116.286 42.7578C115.338 42.7578 114.591 43.1198 114.044 43.8438C113.502 44.5625 113.224 45.5625 113.208 46.8438V47.6797C113.208 48.987 113.481 50.0156 114.028 50.7656C114.58 51.5104 115.338 51.8828 116.302 51.8828C117.271 51.8828 118.021 51.5312 118.552 50.8281C119.083 50.1198 119.356 49.1068 119.372 47.7891V46.9453ZM130.755 42.8594H127.099V53H125.606V42.8594H121.958V41.625H130.755V42.8594ZM133.942 48.5469V53H132.442V41.625H136.638C137.882 41.625 138.856 41.9427 139.56 42.5781C140.268 43.2135 140.622 44.0547 140.622 45.1016C140.622 46.2057 140.276 47.0573 139.583 47.6562C138.896 48.25 137.909 48.5469 136.622 48.5469H133.942ZM133.942 47.3203H136.638C137.44 47.3203 138.054 47.1328 138.481 46.7578C138.909 46.3776 139.122 45.8307 139.122 45.1172C139.122 44.4401 138.909 43.8984 138.481 43.4922C138.054 43.0859 137.468 42.875 136.724 42.8594H133.942V47.3203ZM145.896 48.6953C145.896 47.8672 146.057 47.1224 146.38 46.4609C146.708 45.7995 147.161 45.2891 147.739 44.9297C148.323 44.5703 148.987 44.3906 149.731 44.3906C150.882 44.3906 151.812 44.7891 152.521 45.5859C153.234 46.3828 153.591 47.4427 153.591 48.7656V48.8672C153.591 49.6901 153.432 50.4297 153.114 51.0859C152.802 51.737 152.351 52.2448 151.763 52.6094C151.179 52.974 150.507 53.1562 149.747 53.1562C148.601 53.1562 147.672 52.7578 146.958 51.9609C146.25 51.1641 145.896 50.1094 145.896 48.7969V48.6953ZM147.349 48.8672C147.349 49.8047 147.565 50.5573 147.997 51.125C148.435 51.6927 149.018 51.9766 149.747 51.9766C150.481 51.9766 151.065 51.6901 151.497 51.1172C151.929 50.5391 152.146 49.7318 152.146 48.6953C152.146 47.7682 151.924 47.0182 151.481 46.4453C151.044 45.8672 150.461 45.5781 149.731 45.5781C149.018 45.5781 148.442 45.862 148.005 46.4297C147.567 46.9974 147.349 47.8099 147.349 48.8672ZM156.771 44.5469L156.817 45.6094C157.463 44.7969 158.307 44.3906 159.349 44.3906C161.135 44.3906 162.036 45.3984 162.052 47.4141V53H160.606V47.4062C160.601 46.7969 160.461 46.3464 160.185 46.0547C159.914 45.763 159.489 45.6172 158.911 45.6172C158.442 45.6172 158.031 45.7422 157.677 45.9922C157.323 46.2422 157.047 46.5703 156.849 46.9766V53H155.403V44.5469H156.771ZM170.161 42.5V44.5469H171.739V45.6641H170.161V50.9062C170.161 51.2448 170.231 51.5 170.372 51.6719C170.513 51.8385 170.752 51.9219 171.091 51.9219C171.257 51.9219 171.487 51.8906 171.778 51.8281V53C171.398 53.1042 171.028 53.1562 170.669 53.1562C170.023 53.1562 169.536 52.9609 169.208 52.5703C168.88 52.1797 168.716 51.625 168.716 50.9062V45.6641H167.177V44.5469H168.716V42.5H170.161ZM174.88 45.5703C175.521 44.7839 176.354 44.3906 177.38 44.3906C179.166 44.3906 180.067 45.3984 180.083 47.4141V53H178.638V47.4062C178.632 46.7969 178.492 46.3464 178.216 46.0547C177.945 45.763 177.521 45.6172 176.942 45.6172C176.474 45.6172 176.062 45.7422 175.708 45.9922C175.354 46.2422 175.078 46.5703 174.88 46.9766V53H173.435V41H174.88V45.5703ZM185.755 53.1562C184.609 53.1562 183.677 52.7812 182.958 52.0312C182.239 51.276 181.88 50.2682 181.88 49.0078V48.7422C181.88 47.9036 182.039 47.1562 182.356 46.5C182.679 45.8385 183.127 45.3229 183.7 44.9531C184.278 44.5781 184.903 44.3906 185.575 44.3906C186.674 44.3906 187.528 44.7526 188.138 45.4766C188.747 46.2005 189.052 47.237 189.052 48.5859V49.1875H183.325C183.346 50.0208 183.588 50.6953 184.052 51.2109C184.521 51.7214 185.114 51.9766 185.833 51.9766C186.343 51.9766 186.776 51.8724 187.13 51.6641C187.484 51.4557 187.794 51.1797 188.06 50.8359L188.942 51.5234C188.234 52.612 187.172 53.1562 185.755 53.1562ZM185.575 45.5781C184.992 45.5781 184.502 45.7917 184.106 46.2188C183.711 46.6406 183.466 47.2344 183.372 48H187.606V47.8906C187.565 47.1562 187.367 46.5885 187.013 46.1875C186.659 45.7812 186.179 45.5781 185.575 45.5781ZM201.208 50.0312H196.442L195.372 53H193.825L198.169 41.625H199.481L203.833 53H202.294L201.208 50.0312ZM196.896 48.7969H200.763L198.825 43.4766L196.896 48.7969ZM212.208 42.8594H208.552V53H207.06V42.8594H203.411V41.625H212.208V42.8594ZM215.833 41.625L219.552 50.9062L223.271 41.625H225.216V53H223.716V48.5703L223.856 43.7891L220.122 53H218.974L215.247 43.8125L215.396 48.5703V53H213.896V41.625H215.833ZM236.528 50.7578C236.528 50.3672 236.38 50.0651 236.083 49.8516C235.791 49.6328 235.278 49.4453 234.544 49.2891C233.815 49.1328 233.234 48.9453 232.802 48.7266C232.375 48.5078 232.057 48.2474 231.849 47.9453C231.646 47.6432 231.544 47.2839 231.544 46.8672C231.544 46.1745 231.836 45.5885 232.419 45.1094C233.007 44.6302 233.757 44.3906 234.669 44.3906C235.627 44.3906 236.403 44.638 236.997 45.1328C237.596 45.6276 237.896 46.2604 237.896 47.0312H236.442C236.442 46.6354 236.273 46.2943 235.935 46.0078C235.601 45.7214 235.179 45.5781 234.669 45.5781C234.143 45.5781 233.731 45.6927 233.435 45.9219C233.138 46.151 232.989 46.4505 232.989 46.8203C232.989 47.1693 233.127 47.4323 233.403 47.6094C233.679 47.7865 234.177 47.9557 234.896 48.1172C235.619 48.2786 236.205 48.4714 236.653 48.6953C237.101 48.9193 237.432 49.1901 237.646 49.5078C237.864 49.8203 237.974 50.2031 237.974 50.6562C237.974 51.4115 237.672 52.0182 237.067 52.4766C236.463 52.9297 235.679 53.1562 234.716 53.1562C234.039 53.1562 233.44 53.0365 232.919 52.7969C232.398 52.5573 231.989 52.224 231.692 51.7969C231.401 51.3646 231.255 50.8984 231.255 50.3984H232.7C232.726 50.8828 232.919 51.2682 233.278 51.5547C233.643 51.8359 234.122 51.9766 234.716 51.9766C235.263 51.9766 235.7 51.8672 236.028 51.6484C236.362 51.4245 236.528 51.1276 236.528 50.7578ZM243.247 51.9766C243.763 51.9766 244.213 51.8203 244.599 51.5078C244.984 51.1953 245.198 50.8047 245.239 50.3359H246.606C246.58 50.8203 246.414 51.2812 246.106 51.7188C245.799 52.1562 245.388 52.5052 244.872 52.7656C244.362 53.026 243.82 53.1562 243.247 53.1562C242.096 53.1562 241.179 52.7734 240.497 52.0078C239.82 51.237 239.481 50.1849 239.481 48.8516V48.6094C239.481 47.7865 239.632 47.0547 239.935 46.4141C240.237 45.7734 240.669 45.276 241.231 44.9219C241.799 44.5677 242.468 44.3906 243.239 44.3906C244.187 44.3906 244.974 44.6745 245.599 45.2422C246.229 45.8099 246.565 46.5469 246.606 47.4531H245.239C245.198 46.9062 244.989 46.4583 244.614 46.1094C244.244 45.7552 243.786 45.5781 243.239 45.5781C242.505 45.5781 241.935 45.8438 241.528 46.375C241.127 46.901 240.927 47.6641 240.927 48.6641V48.9375C240.927 49.9115 241.127 50.6615 241.528 51.1875C241.929 51.7135 242.502 51.9766 243.247 51.9766ZM252.317 45.8438C252.099 45.8073 251.862 45.7891 251.606 45.7891C250.659 45.7891 250.015 46.1927 249.677 47V53H248.231V44.5469H249.638L249.661 45.5234C250.135 44.7682 250.807 44.3906 251.677 44.3906C251.958 44.3906 252.172 44.4271 252.317 44.5V45.8438ZM257.005 53.1562C255.859 53.1562 254.927 52.7812 254.208 52.0312C253.489 51.276 253.13 50.2682 253.13 49.0078V48.7422C253.13 47.9036 253.289 47.1562 253.606 46.5C253.929 45.8385 254.377 45.3229 254.95 44.9531C255.528 44.5781 256.153 44.3906 256.825 44.3906C257.924 44.3906 258.778 44.7526 259.388 45.4766C259.997 46.2005 260.302 47.237 260.302 48.5859V49.1875H254.575C254.596 50.0208 254.838 50.6953 255.302 51.2109C255.771 51.7214 256.364 51.9766 257.083 51.9766C257.593 51.9766 258.026 51.8724 258.38 51.6641C258.734 51.4557 259.044 51.1797 259.31 50.8359L260.192 51.5234C259.484 52.612 258.422 53.1562 257.005 53.1562ZM256.825 45.5781C256.242 45.5781 255.752 45.7917 255.356 46.2188C254.961 46.6406 254.716 47.2344 254.622 48H258.856V47.8906C258.815 47.1562 258.617 46.5885 258.263 46.1875C257.909 45.7812 257.429 45.5781 256.825 45.5781ZM265.489 53.1562C264.343 53.1562 263.411 52.7812 262.692 52.0312C261.974 51.276 261.614 50.2682 261.614 49.0078V48.7422C261.614 47.9036 261.773 47.1562 262.091 46.5C262.414 45.8385 262.862 45.3229 263.435 44.9531C264.013 44.5781 264.638 44.3906 265.31 44.3906C266.409 44.3906 267.263 44.7526 267.872 45.4766C268.481 46.2005 268.786 47.237 268.786 48.5859V49.1875H263.06C263.08 50.0208 263.323 50.6953 263.786 51.2109C264.255 51.7214 264.849 51.9766 265.567 51.9766C266.078 51.9766 266.51 51.8724 266.864 51.6641C267.218 51.4557 267.528 51.1797 267.794 50.8359L268.677 51.5234C267.968 52.612 266.906 53.1562 265.489 53.1562ZM265.31 45.5781C264.726 45.5781 264.237 45.7917 263.841 46.2188C263.445 46.6406 263.2 47.2344 263.106 48H267.341V47.8906C267.299 47.1562 267.101 46.5885 266.747 46.1875C266.393 45.7812 265.914 45.5781 265.31 45.5781ZM271.833 44.5469L271.88 45.6094C272.526 44.7969 273.369 44.3906 274.411 44.3906C276.198 44.3906 277.099 45.3984 277.114 47.4141V53H275.669V47.4062C275.664 46.7969 275.523 46.3464 275.247 46.0547C274.976 45.763 274.552 45.6172 273.974 45.6172C273.505 45.6172 273.093 45.7422 272.739 45.9922C272.385 46.2422 272.109 46.5703 271.911 46.9766V53H270.466V44.5469H271.833ZM285.224 42.5V44.5469H286.802V45.6641H285.224V50.9062C285.224 51.2448 285.294 51.5 285.435 51.6719C285.575 51.8385 285.815 51.9219 286.153 51.9219C286.32 51.9219 286.549 51.8906 286.841 51.8281V53C286.461 53.1042 286.091 53.1562 285.731 53.1562C285.086 53.1562 284.599 52.9609 284.271 52.5703C283.942 52.1797 283.778 51.625 283.778 50.9062V45.6641H282.239V44.5469H283.778V42.5H285.224ZM287.958 48.6953C287.958 47.8672 288.119 47.1224 288.442 46.4609C288.771 45.7995 289.224 45.2891 289.802 44.9297C290.385 44.5703 291.049 44.3906 291.794 44.3906C292.945 44.3906 293.875 44.7891 294.583 45.5859C295.297 46.3828 295.653 47.4427 295.653 48.7656V48.8672C295.653 49.6901 295.494 50.4297 295.177 51.0859C294.864 51.737 294.414 52.2448 293.825 52.6094C293.242 52.974 292.57 53.1562 291.81 53.1562C290.664 53.1562 289.734 52.7578 289.021 51.9609C288.312 51.1641 287.958 50.1094 287.958 48.7969V48.6953ZM289.411 48.8672C289.411 49.8047 289.627 50.5573 290.06 51.125C290.497 51.6927 291.08 51.9766 291.81 51.9766C292.544 51.9766 293.127 51.6901 293.56 51.1172C293.992 50.5391 294.208 49.7318 294.208 48.6953C294.208 47.7682 293.987 47.0182 293.544 46.4453C293.106 45.8672 292.523 45.5781 291.794 45.5781C291.08 45.5781 290.505 45.862 290.067 46.4297C289.63 46.9974 289.411 47.8099 289.411 48.8672ZM308.919 51.0078L310.544 44.5469H311.989L309.528 53H308.356L306.302 46.5938L304.302 53H303.13L300.677 44.5469H302.114L303.778 50.875L305.747 44.5469H306.911L308.919 51.0078ZM315.036 53H313.591V44.5469H315.036V53ZM313.474 42.3047C313.474 42.0703 313.544 41.8724 313.685 41.7109C313.83 41.5495 314.044 41.4688 314.325 41.4688C314.606 41.4688 314.82 41.5495 314.966 41.7109C315.112 41.8724 315.185 42.0703 315.185 42.3047C315.185 42.5391 315.112 42.7344 314.966 42.8906C314.82 43.0469 314.606 43.125 314.325 43.125C314.044 43.125 313.83 43.0469 313.685 42.8906C313.544 42.7344 313.474 42.5391 313.474 42.3047ZM319.317 42.5V44.5469H320.896V45.6641H319.317V50.9062C319.317 51.2448 319.388 51.5 319.528 51.6719C319.669 51.8385 319.909 51.9219 320.247 51.9219C320.414 51.9219 320.643 51.8906 320.935 51.8281V53C320.554 53.1042 320.185 53.1562 319.825 53.1562C319.179 53.1562 318.692 52.9609 318.364 52.5703C318.036 52.1797 317.872 51.625 317.872 50.9062V45.6641H316.333V44.5469H317.872V42.5H319.317ZM324.036 45.5703C324.677 44.7839 325.51 44.3906 326.536 44.3906C328.323 44.3906 329.224 45.3984 329.239 47.4141V53H327.794V47.4062C327.789 46.7969 327.648 46.3464 327.372 46.0547C327.101 45.763 326.677 45.6172 326.099 45.6172C325.63 45.6172 325.218 45.7422 324.864 45.9922C324.51 46.2422 324.234 46.5703 324.036 46.9766V53H322.591V41H324.036V45.5703ZM331.052 48.7031C331.052 47.4062 331.359 46.3646 331.974 45.5781C332.588 44.7865 333.393 44.3906 334.388 44.3906C335.377 44.3906 336.161 44.7292 336.739 45.4062V41H338.185V53H336.856L336.786 52.0938C336.208 52.8021 335.403 53.1562 334.372 53.1562C333.393 53.1562 332.593 52.7552 331.974 51.9531C331.359 51.151 331.052 50.1042 331.052 48.8125V48.7031ZM332.497 48.8672C332.497 49.8255 332.695 50.5755 333.091 51.1172C333.487 51.6589 334.034 51.9297 334.731 51.9297C335.648 51.9297 336.317 51.5182 336.739 50.6953V46.8125C336.307 46.0156 335.643 45.6172 334.747 45.6172C334.039 45.6172 333.487 45.8906 333.091 46.4375C332.695 46.9844 332.497 47.7943 332.497 48.8672ZM344.521 45.8438C344.302 45.8073 344.065 45.7891 343.81 45.7891C342.862 45.7891 342.218 46.1927 341.88 47V53H340.435V44.5469H341.841L341.864 45.5234C342.338 44.7682 343.01 44.3906 343.88 44.3906C344.161 44.3906 344.375 44.4271 344.521 44.5V45.8438ZM350.763 53C350.679 52.8333 350.612 52.5365 350.56 52.1094C349.888 52.8073 349.086 53.1562 348.153 53.1562C347.32 53.1562 346.635 52.9219 346.099 52.4531C345.567 51.9792 345.302 51.3802 345.302 50.6562C345.302 49.776 345.635 49.0938 346.302 48.6094C346.974 48.1198 347.916 47.875 349.13 47.875H350.536V47.2109C350.536 46.7057 350.385 46.3047 350.083 46.0078C349.781 45.7057 349.336 45.5547 348.747 45.5547C348.231 45.5547 347.799 45.6849 347.45 45.9453C347.101 46.2057 346.927 46.5208 346.927 46.8906H345.474C345.474 46.4688 345.622 46.0625 345.919 45.6719C346.221 45.276 346.627 44.9635 347.138 44.7344C347.653 44.5052 348.218 44.3906 348.833 44.3906C349.807 44.3906 350.57 44.6354 351.122 45.125C351.674 45.6094 351.961 46.2786 351.981 47.1328V51.0234C351.981 51.7995 352.08 52.4167 352.278 52.875V53H350.763ZM348.364 51.8984C348.817 51.8984 349.247 51.7812 349.653 51.5469C350.06 51.3125 350.354 51.0078 350.536 50.6328V48.8984H349.403C347.632 48.8984 346.747 49.4167 346.747 50.4531C346.747 50.9062 346.898 51.2604 347.2 51.5156C347.502 51.7708 347.89 51.8984 348.364 51.8984ZM361.731 51.0078L363.356 44.5469H364.802L362.341 53H361.169L359.114 46.5938L357.114 53H355.942L353.489 44.5469H354.927L356.591 50.875L358.56 44.5469H359.724L361.731 51.0078ZM372.208 42.5V44.5469H373.786V45.6641H372.208V50.9062C372.208 51.2448 372.278 51.5 372.419 51.6719C372.56 51.8385 372.799 51.9219 373.138 51.9219C373.304 51.9219 373.534 51.8906 373.825 51.8281V53C373.445 53.1042 373.075 53.1562 372.716 53.1562C372.07 53.1562 371.583 52.9609 371.255 52.5703C370.927 52.1797 370.763 51.625 370.763 50.9062V45.6641H369.224V44.5469H370.763V42.5H372.208ZM376.927 45.5703C377.567 44.7839 378.401 44.3906 379.427 44.3906C381.213 44.3906 382.114 45.3984 382.13 47.4141V53H380.685V47.4062C380.679 46.7969 380.539 46.3464 380.263 46.0547C379.992 45.763 379.567 45.6172 378.989 45.6172C378.521 45.6172 378.109 45.7422 377.755 45.9922C377.401 46.2422 377.125 46.5703 376.927 46.9766V53H375.481V41H376.927V45.5703ZM387.802 53.1562C386.656 53.1562 385.724 52.7812 385.005 52.0312C384.286 51.276 383.927 50.2682 383.927 49.0078V48.7422C383.927 47.9036 384.086 47.1562 384.403 46.5C384.726 45.8385 385.174 45.3229 385.747 44.9531C386.325 44.5781 386.95 44.3906 387.622 44.3906C388.721 44.3906 389.575 44.7526 390.185 45.4766C390.794 46.2005 391.099 47.237 391.099 48.5859V49.1875H385.372C385.393 50.0208 385.635 50.6953 386.099 51.2109C386.567 51.7214 387.161 51.9766 387.88 51.9766C388.39 51.9766 388.823 51.8724 389.177 51.6641C389.531 51.4557 389.841 51.1797 390.106 50.8359L390.989 51.5234C390.281 52.612 389.218 53.1562 387.802 53.1562ZM387.622 45.5781C387.039 45.5781 386.549 45.7917 386.153 46.2188C385.757 46.6406 385.513 47.2344 385.419 48H389.653V47.8906C389.612 47.1562 389.414 46.5885 389.06 46.1875C388.705 45.7812 388.226 45.5781 387.622 45.5781ZM398.106 44.5469L398.146 45.4844C398.765 44.7552 399.601 44.3906 400.653 44.3906C401.836 44.3906 402.64 44.8438 403.067 45.75C403.349 45.3438 403.713 45.0156 404.161 44.7656C404.614 44.5156 405.148 44.3906 405.763 44.3906C407.617 44.3906 408.56 45.3724 408.591 47.3359V53H407.146V47.4219C407.146 46.8177 407.007 46.3672 406.731 46.0703C406.455 45.7682 405.992 45.6172 405.341 45.6172C404.804 45.6172 404.359 45.7786 404.005 46.1016C403.651 46.4193 403.445 46.849 403.388 47.3906V53H401.935V47.4609C401.935 46.2318 401.333 45.6172 400.13 45.6172C399.182 45.6172 398.534 46.0208 398.185 46.8281V53H396.739V44.5469H398.106ZM410.396 48.6953C410.396 47.8672 410.557 47.1224 410.88 46.4609C411.208 45.7995 411.661 45.2891 412.239 44.9297C412.823 44.5703 413.487 44.3906 414.231 44.3906C415.382 44.3906 416.312 44.7891 417.021 45.5859C417.734 46.3828 418.091 47.4427 418.091 48.7656V48.8672C418.091 49.6901 417.932 50.4297 417.614 51.0859C417.302 51.737 416.851 52.2448 416.263 52.6094C415.679 52.974 415.007 53.1562 414.247 53.1562C413.101 53.1562 412.172 52.7578 411.458 51.9609C410.75 51.1641 410.396 50.1094 410.396 48.7969V48.6953ZM411.849 48.8672C411.849 49.8047 412.065 50.5573 412.497 51.125C412.935 51.6927 413.518 51.9766 414.247 51.9766C414.981 51.9766 415.565 51.6901 415.997 51.1172C416.429 50.5391 416.646 49.7318 416.646 48.6953C416.646 47.7682 416.424 47.0182 415.981 46.4453C415.544 45.8672 414.961 45.5781 414.231 45.5781C413.518 45.5781 412.942 45.862 412.505 46.4297C412.067 46.9974 411.849 47.8099 411.849 48.8672ZM421.271 44.5469L421.317 45.6094C421.963 44.7969 422.807 44.3906 423.849 44.3906C425.635 44.3906 426.536 45.3984 426.552 47.4141V53H425.106V47.4062C425.101 46.7969 424.961 46.3464 424.685 46.0547C424.414 45.763 423.989 45.6172 423.411 45.6172C422.942 45.6172 422.531 45.7422 422.177 45.9922C421.823 46.2422 421.547 46.5703 421.349 46.9766V53H419.903V44.5469H421.271ZM432.239 53.1562C431.093 53.1562 430.161 52.7812 429.442 52.0312C428.724 51.276 428.364 50.2682 428.364 49.0078V48.7422C428.364 47.9036 428.523 47.1562 428.841 46.5C429.164 45.8385 429.612 45.3229 430.185 44.9531C430.763 44.5781 431.388 44.3906 432.06 44.3906C433.159 44.3906 434.013 44.7526 434.622 45.4766C435.231 46.2005 435.536 47.237 435.536 48.5859V49.1875H429.81C429.83 50.0208 430.073 50.6953 430.536 51.2109C431.005 51.7214 431.599 51.9766 432.317 51.9766C432.828 51.9766 433.26 51.8724 433.614 51.6641C433.968 51.4557 434.278 51.1797 434.544 50.8359L435.427 51.5234C434.718 52.612 433.656 53.1562 432.239 53.1562ZM432.06 45.5781C431.476 45.5781 430.987 45.7917 430.591 46.2188C430.195 46.6406 429.95 47.2344 429.856 48H434.091V47.8906C434.049 47.1562 433.851 46.5885 433.497 46.1875C433.143 45.7812 432.664 45.5781 432.06 45.5781ZM439.872 50.8828L441.841 44.5469H443.388L439.989 54.3047C439.463 55.7109 438.627 56.4141 437.481 56.4141L437.208 56.3906L436.669 56.2891V55.1172L437.06 55.1484C437.549 55.1484 437.929 55.0495 438.2 54.8516C438.476 54.6536 438.703 54.2917 438.88 53.7656L439.2 52.9062L436.185 44.5469H437.763L439.872 50.8828ZM443.872 52.2422C443.872 51.9922 443.945 51.7839 444.091 51.6172C444.242 51.4505 444.466 51.3672 444.763 51.3672C445.06 51.3672 445.284 51.4505 445.435 51.6172C445.591 51.7839 445.669 51.9922 445.669 52.2422C445.669 52.4818 445.591 52.6823 445.435 52.8438C445.284 53.0052 445.06 53.0859 444.763 53.0859C444.466 53.0859 444.242 53.0052 444.091 52.8438C443.945 52.6823 443.872 52.4818 443.872 52.2422Z" fill="#6654A4"/>
<path d="M47.7587 65H50.6387V59.848H53.8387V57.32H50.6387V42.088H47.1507L35.9187 57.64V59.848H47.7587V65ZM39.2787 57.32L47.8867 45.128V57.32H39.2787Z" fill="#6654A4"/>
<defs>
<filter id="filter0_d" x="0" y="0" width="594.56" height="113" filterUnits="userSpaceOnUse" color-interpolation-filters="sRGB">
<feFlood flood-opacity="0" result="BackgroundImageFix"/>
<feColorMatrix in="SourceAlpha" type="matrix" values="0 0 0 0 0 0 0 0 0 0 0 0 0 0 0 0 0 0 127 0"/>
<feMorphology radius="4" operator="dilate" in="SourceAlpha" result="effect1_dropShadow"/>
<feOffset dy="3"/>
<feGaussianBlur stdDeviation="7.5"/>
<feColorMatrix type="matrix" values="0 0 0 0 0.872109 0 0 0 0 0.853125 0 0 0 0 0.9375 0 0 0 0.5 0"/>
<feBlend mode="normal" in2="BackgroundImageFix" result="effect1_dropShadow"/>
<feBlend mode="normal" in="SourceGraphic" in2="effect1_dropShadow" result="shape"/>
</filter>
</defs>
</svg>
